<?xml version="1.0" encoding="utf-8" standalone="no"?>
<!DOCTYPE svg PUBLIC "-//W3C//DTD SVG 1.1//EN"
  "http://www.w3.org/Graphics/SVG/1.1/DTD/svg11.dtd">
<!-- Created with matplotlib (http://matplotlib.org/) -->
<svg height="345.6pt" version="1.1" viewBox="0 0 460.8 345.6" width="460.8pt" xmlns="http://www.w3.org/2000/svg" xmlns:xlink="http://www.w3.org/1999/xlink">
 <defs>
  <style type="text/css">
*{stroke-linecap:butt;stroke-linejoin:round;}
  </style>
 </defs>
 <g id="figure_1">
  <g id="patch_1">
   <path d="M 0 345.6 
L 460.8 345.6 
L 460.8 0 
L 0 0 
z
" style="fill:#ffffff;"/>
  </g>
  <g id="axes_1">
   <g id="patch_2">
    <path clip-path="url(#p5dcc6c5091)" d="M 155.578934 28.870556 
C 156.272444 28.870556 156.937643 28.787698 157.428029 28.640232 
C 157.918414 28.492766 158.193949 28.29273 158.193949 28.084181 
C 158.193949 27.875632 157.918414 27.675597 157.428029 27.528131 
C 156.937643 27.380664 156.272444 27.297807 155.578934 27.297807 
C 154.885424 27.297807 154.220224 27.380664 153.729839 27.528131 
C 153.239453 27.675597 152.963919 27.875632 152.963919 28.084181 
C 152.963919 28.29273 153.239453 28.492766 153.729839 28.640232 
C 154.220224 28.787698 154.885424 28.870556 155.578934 28.870556 
z
" style="fill:#ff0000;opacity:0.2;stroke:#ff0000;stroke-linejoin:miter;"/>
   </g>
   <g id="patch_3">
    <path clip-path="url(#p5dcc6c5091)" d="M 405.312881 304.888007 
C 406.006391 304.888007 406.67159 304.80515 407.161976 304.657683 
C 407.652361 304.510217 407.927896 304.310181 407.927896 304.101632 
C 407.927896 303.893083 407.652361 303.693048 407.161976 303.545582 
C 406.67159 303.398115 406.006391 303.315258 405.312881 303.315258 
C 404.619371 303.315258 403.954171 303.398115 403.463786 303.545582 
C 402.9734 303.693048 402.697866 303.893083 402.697866 304.101632 
C 402.697866 304.310181 402.9734 304.510217 403.463786 304.657683 
C 403.954171 304.80515 404.619371 304.888007 405.312881 304.888007 
z
" style="fill:#ff0000;opacity:0.2;stroke:#ff0000;stroke-linejoin:miter;"/>
   </g>
   <g id="patch_4">
    <path clip-path="url(#p5dcc6c5091)" d="M 329.477441 304.888007 
C 330.170951 304.888007 330.836151 304.80515 331.326536 304.657683 
C 331.816922 304.510217 332.092456 304.310181 332.092456 304.101632 
C 332.092456 303.893083 331.816922 303.693048 331.326536 303.545582 
C 330.836151 303.398115 330.170951 303.315258 329.477441 303.315258 
C 328.783931 303.315258 328.118732 303.398115 327.628346 303.545582 
C 327.137961 303.693048 326.862426 303.893083 326.862426 304.101632 
C 326.862426 304.310181 327.137961 304.510217 327.628346 304.657683 
C 328.118732 304.80515 328.783931 304.888007 329.477441 304.888007 
z
" style="fill:#ff0000;opacity:0.2;stroke:#ff0000;stroke-linejoin:miter;"/>
   </g>
   <g id="patch_5">
    <path clip-path="url(#p5dcc6c5091)" d="M 79.743494 28.870556 
C 80.437004 28.870556 81.102204 28.787698 81.592589 28.640232 
C 82.082975 28.492766 82.358509 28.29273 82.358509 28.084181 
C 82.358509 27.875632 82.082975 27.675597 81.592589 27.528131 
C 81.102204 27.380664 80.437004 27.297807 79.743494 27.297807 
C 79.049984 27.297807 78.384785 27.380664 77.894399 27.528131 
C 77.404014 27.675597 77.128479 27.875632 77.128479 28.084181 
C 77.128479 28.29273 77.404014 28.492766 77.894399 28.640232 
C 78.384785 28.787698 79.049984 28.870556 79.743494 28.870556 
z
" style="fill:#ff0000;opacity:0.2;stroke:#ff0000;stroke-linejoin:miter;"/>
   </g>
   <g id="patch_6">
    <path clip-path="url(#p5dcc6c5091)" d="M 176.499055 34.768365 
C 177.192565 34.768365 177.857764 34.685507 178.34815 34.538041 
C 178.838536 34.390574 179.11407 34.190539 179.11407 33.98199 
C 179.11407 33.773441 178.838536 33.573406 178.34815 33.425939 
C 177.857764 33.278473 177.192565 33.195616 176.499055 33.195616 
C 175.805545 33.195616 175.140346 33.278473 174.64996 33.425939 
C 174.159574 33.573406 173.88404 33.773441 173.88404 33.98199 
C 173.88404 34.190539 174.159574 34.390574 174.64996 34.538041 
C 175.140346 34.685507 175.805545 34.768365 176.499055 34.768365 
z
" style="fill:#0000ff;opacity:0.2;stroke:#0000ff;stroke-linejoin:miter;"/>
   </g>
   <g id="patch_7">
    <path clip-path="url(#p5dcc6c5091)" d="M 426.233002 306.853943 
C 426.926512 306.853943 427.591711 306.771086 428.082097 306.623619 
C 428.572483 306.476153 428.848017 306.276118 428.848017 306.067569 
C 428.848017 305.85902 428.572483 305.658984 428.082097 305.511518 
C 427.591711 305.364052 426.926512 305.281194 426.233002 305.281194 
C 425.539492 305.281194 424.874293 305.364052 424.383907 305.511518 
C 423.893521 305.658984 423.617987 305.85902 423.617987 306.067569 
C 423.617987 306.276118 423.893521 306.476153 424.383907 306.623619 
C 424.874293 306.771086 425.539492 306.853943 426.233002 306.853943 
z
" style="fill:#0000ff;opacity:0.2;stroke:#0000ff;stroke-linejoin:miter;"/>
   </g>
   <g id="patch_8">
    <path clip-path="url(#p5dcc6c5091)" d="M 308.55732 306.853943 
C 309.25083 306.853943 309.916029 306.771086 310.406415 306.623619 
C 310.896801 306.476153 311.172335 306.276118 311.172335 306.067569 
C 311.172335 305.85902 310.896801 305.658984 310.406415 305.511518 
C 309.916029 305.364052 309.25083 305.281194 308.55732 305.281194 
C 307.86381 305.281194 307.198611 305.364052 306.708225 305.511518 
C 306.217839 305.658984 305.942305 305.85902 305.942305 306.067569 
C 305.942305 306.276118 306.217839 306.476153 306.708225 306.623619 
C 307.198611 306.771086 307.86381 306.853943 308.55732 306.853943 
z
" style="fill:#0000ff;opacity:0.2;stroke:#0000ff;stroke-linejoin:miter;"/>
   </g>
   <g id="patch_9">
    <path clip-path="url(#p5dcc6c5091)" d="M 58.823373 34.768365 
C 59.516883 34.768365 60.182082 34.685507 60.672468 34.538041 
C 61.162854 34.390574 61.438388 34.190539 61.438388 33.98199 
C 61.438388 33.773441 61.162854 33.573406 60.672468 33.425939 
C 60.182082 33.278473 59.516883 33.195616 58.823373 33.195616 
C 58.129863 33.195616 57.464664 33.278473 56.974278 33.425939 
C 56.483892 33.573406 56.208358 33.773441 56.208358 33.98199 
C 56.208358 34.190539 56.483892 34.390574 56.974278 34.538041 
C 57.464664 34.685507 58.129863 34.768365 58.823373 34.768365 
z
" style="fill:#0000ff;opacity:0.2;stroke:#0000ff;stroke-linejoin:miter;"/>
   </g>
   <g id="patch_10">
    <path clip-path="url(#p5dcc6c5091)" d="M 155.578934 28.084181 
L 405.312881 304.101632 
L 329.477441 304.101632 
L 79.743494 28.084181 
L 155.578934 28.084181 
" style="fill:none;stroke:#ff0000;stroke-linejoin:miter;stroke-width:0.5;"/>
   </g>
   <g id="patch_11">
    <path clip-path="url(#p5dcc6c5091)" d="M 176.499055 33.98199 
L 426.233002 306.067569 
L 308.55732 306.067569 
L 58.823373 33.98199 
L 176.499055 33.98199 
" style="fill:none;stroke:#0000ff;stroke-linejoin:miter;stroke-width:0.5;"/>
   </g>
   <g id="patch_12">
    <path clip-path="url(#p5dcc6c5091)" d="M 155.578934 30.443305 
C 157.659464 30.443305 159.655061 30.194733 161.126219 29.752334 
C 162.597376 29.309934 163.423979 28.709828 163.423979 28.084181 
C 163.423979 27.458534 162.597376 26.858428 161.126219 26.416029 
C 159.655061 25.97363 157.659464 25.725058 155.578934 25.725058 
C 153.498403 25.725058 151.502806 25.97363 150.031649 26.416029 
C 148.560492 26.858428 147.733888 27.458534 147.733888 28.084181 
C 147.733888 28.709828 148.560492 29.309934 150.031649 29.752334 
C 151.502806 30.194733 153.498403 30.443305 155.578934 30.443305 
z
" style="fill:#0000ff;opacity:0.2;stroke:#0000ff;stroke-linejoin:miter;"/>
   </g>
   <g id="patch_13">
    <path clip-path="url(#p5dcc6c5091)" d="M 176.499055 36.341114 
C 178.579585 36.341114 180.575183 36.092541 182.04634 35.650142 
C 183.517497 35.207743 184.3441 34.607637 184.3441 33.98199 
C 184.3441 33.356343 183.517497 32.756237 182.04634 32.313838 
C 180.575183 31.871439 178.579585 31.622867 176.499055 31.622867 
C 174.418525 31.622867 172.422927 31.871439 170.95177 32.313838 
C 169.480613 32.756237 168.654009 33.356343 168.654009 33.98199 
C 168.654009 34.607637 169.480613 35.207743 170.95177 35.650142 
C 172.422927 36.092541 174.418525 36.341114 176.499055 36.341114 
z
" style="fill:#ff0000;opacity:0.2;stroke:#ff0000;stroke-linejoin:miter;"/>
   </g>
   <g id="patch_14">
    <path d="M 155.578934 28.084181 
Q 165.077517 30.762026 172.534366 32.864263 
" style="fill:none;opacity:0.5;stroke:#0000ff;stroke-linecap:round;stroke-width:3;"/>
    <path d="M 171.497657 31.013524 
L 172.534366 32.864263 
L 170.683626 33.900972 
" style="fill:none;opacity:0.5;stroke:#0000ff;stroke-linecap:round;stroke-width:3;"/>
   </g>
   <g id="patch_15">
    <path clip-path="url(#p5dcc6c5091)" d="M 405.312881 306.264162 
C 407.220034 306.264162 409.049331 306.036305 410.397892 305.630772 
C 411.746452 305.225239 412.504172 304.675142 412.504172 304.101632 
C 412.504172 303.528123 411.746452 302.978025 410.397892 302.572493 
C 409.049331 302.16696 407.220034 301.939103 405.312881 301.939103 
C 403.405728 301.939103 401.57643 302.16696 400.22787 302.572493 
C 398.879309 302.978025 398.121589 303.528123 398.121589 304.101632 
C 398.121589 304.675142 398.879309 305.225239 400.22787 305.630772 
C 401.57643 306.036305 403.405728 306.264162 405.312881 306.264162 
z
" style="fill:#0000ff;opacity:0.2;stroke:#0000ff;stroke-linejoin:miter;"/>
   </g>
   <g id="patch_16">
    <path clip-path="url(#p5dcc6c5091)" d="M 426.233002 308.230099 
C 428.140155 308.230099 429.969452 308.002241 431.318013 307.596708 
C 432.666574 307.191176 433.424294 306.641078 433.424294 306.067569 
C 433.424294 305.494059 432.666574 304.943962 431.318013 304.538429 
C 429.969452 304.132897 428.140155 303.905039 426.233002 303.905039 
C 424.325849 303.905039 422.496551 304.132897 421.147991 304.538429 
C 419.79943 304.943962 419.04171 305.494059 419.04171 306.067569 
C 419.04171 306.641078 419.79943 307.191176 421.147991 307.596708 
C 422.496551 308.002241 424.325849 308.230099 426.233002 308.230099 
z
" style="fill:#ff0000;opacity:0.2;stroke:#ff0000;stroke-linejoin:miter;"/>
   </g>
   <g id="patch_17">
    <path d="M 405.312881 304.101632 
Q 414.778265 304.991127 422.307636 305.698688 
" style="fill:none;opacity:0.5;stroke:#0000ff;stroke-linecap:round;stroke-width:2.75;"/>
    <path d="M 420.954557 304.064926 
L 422.307636 305.698688 
L 420.673873 307.051767 
" style="fill:none;opacity:0.5;stroke:#0000ff;stroke-linecap:round;stroke-width:2.75;"/>
   </g>
   <g id="patch_18">
    <path clip-path="url(#p5dcc6c5091)" d="M 329.477441 306.65735 
C 331.731349 306.65735 333.893246 306.388063 335.487 305.908797 
C 337.080753 305.429532 337.976241 304.779417 337.976241 304.101632 
C 337.976241 303.423848 337.080753 302.773733 335.487 302.294467 
C 333.893246 301.815202 331.731349 301.545915 329.477441 301.545915 
C 327.223533 301.545915 325.061636 301.815202 323.467883 302.294467 
C 321.874129 302.773733 320.978642 303.423848 320.978642 304.101632 
C 320.978642 304.779417 321.874129 305.429532 323.467883 305.908797 
C 325.061636 306.388063 327.223533 306.65735 329.477441 306.65735 
z
" style="fill:#0000ff;opacity:0.2;stroke:#0000ff;stroke-linejoin:miter;"/>
   </g>
   <g id="patch_19">
    <path clip-path="url(#p5dcc6c5091)" d="M 308.55732 308.623286 
C 310.811228 308.623286 312.973125 308.353999 314.566879 307.874734 
C 316.160632 307.395468 317.056119 306.745353 317.056119 306.067569 
C 317.056119 305.389785 316.160632 304.739669 314.566879 304.260404 
C 312.973125 303.781138 310.811228 303.511852 308.55732 303.511852 
C 306.303412 303.511852 304.141515 303.781138 302.547761 304.260404 
C 300.954008 304.739669 300.058521 305.389785 300.058521 306.067569 
C 300.058521 306.745353 300.954008 307.395468 302.547761 307.874734 
C 304.141515 308.353999 306.303412 308.623286 308.55732 308.623286 
z
" style="fill:#ff0000;opacity:0.2;stroke:#ff0000;stroke-linejoin:miter;"/>
   </g>
   <g id="patch_20">
    <path d="M 329.477441 304.101632 
Q 320.012057 304.991127 312.834689 305.66561 
" style="fill:none;opacity:0.5;stroke:#0000ff;stroke-linecap:round;stroke-width:3.25;"/>
    <path d="M 314.468451 307.018688 
L 312.834689 305.66561 
L 314.187767 304.031847 
" style="fill:none;opacity:0.5;stroke:#0000ff;stroke-linecap:round;stroke-width:3.25;"/>
   </g>
   <g id="patch_21">
    <path clip-path="url(#p5dcc6c5091)" d="M 79.743494 30.443305 
C 81.824025 30.443305 83.819622 30.194733 85.290779 29.752334 
C 86.761936 29.309934 87.58854 28.709828 87.58854 28.084181 
C 87.58854 27.458534 86.761936 26.858428 85.290779 26.416029 
C 83.819622 25.97363 81.824025 25.725058 79.743494 25.725058 
C 77.662964 25.725058 75.667367 25.97363 74.196209 26.416029 
C 72.725052 26.858428 71.898449 27.458534 71.898449 28.084181 
C 71.898449 28.709828 72.725052 29.309934 74.196209 29.752334 
C 75.667367 30.194733 77.662964 30.443305 79.743494 30.443305 
z
" style="fill:#0000ff;opacity:0.2;stroke:#0000ff;stroke-linejoin:miter;"/>
   </g>
   <g id="patch_22">
    <path clip-path="url(#p5dcc6c5091)" d="M 58.823373 36.341114 
C 60.903903 36.341114 62.899501 36.092541 64.370658 35.650142 
C 65.841815 35.207743 66.668419 34.607637 66.668419 33.98199 
C 66.668419 33.356343 65.841815 32.756237 64.370658 32.313838 
C 62.899501 31.871439 60.903903 31.622867 58.823373 31.622867 
C 56.742843 31.622867 54.747245 31.871439 53.276088 32.313838 
C 51.804931 32.756237 50.978328 33.356343 50.978328 33.98199 
C 50.978328 34.607637 51.804931 35.207743 53.276088 35.650142 
C 54.747245 36.092541 56.742843 36.341114 58.823373 36.341114 
z
" style="fill:#ff0000;opacity:0.2;stroke:#ff0000;stroke-linejoin:miter;"/>
   </g>
   <g id="patch_23">
    <path d="M 79.743494 28.084181 
Q 70.244911 30.762026 62.788062 32.864263 
" style="fill:none;opacity:0.5;stroke:#0000ff;stroke-linecap:round;stroke-width:3;"/>
    <path d="M 64.638802 33.900972 
L 62.788062 32.864263 
L 63.824771 31.013524 
" style="fill:none;opacity:0.5;stroke:#0000ff;stroke-linecap:round;stroke-width:3;"/>
   </g>
   <g id="patch_24">
    <path clip-path="url(#p5dcc6c5091)" d="M 176.499055 36.341114 
C 178.579585 36.341114 180.575183 36.092541 182.04634 35.650142 
C 183.517497 35.207743 184.3441 34.607637 184.3441 33.98199 
C 184.3441 33.356343 183.517497 32.756237 182.04634 32.313838 
C 180.575183 31.871439 178.579585 31.622867 176.499055 31.622867 
C 174.418525 31.622867 172.422927 31.871439 170.95177 32.313838 
C 169.480613 32.756237 168.654009 33.356343 168.654009 33.98199 
C 168.654009 34.607637 169.480613 35.207743 170.95177 35.650142 
C 172.422927 36.092541 174.418525 36.341114 176.499055 36.341114 
z
" style="fill:#0000ff;opacity:0.2;stroke:#0000ff;stroke-linejoin:miter;"/>
   </g>
   <g id="patch_25">
    <path clip-path="url(#p5dcc6c5091)" d="M 155.578934 30.443305 
C 157.659464 30.443305 159.655061 30.194733 161.126219 29.752334 
C 162.597376 29.309934 163.423979 28.709828 163.423979 28.084181 
C 163.423979 27.458534 162.597376 26.858428 161.126219 26.416029 
C 159.655061 25.97363 157.659464 25.725058 155.578934 25.725058 
C 153.498403 25.725058 151.502806 25.97363 150.031649 26.416029 
C 148.560492 26.858428 147.733888 27.458534 147.733888 28.084181 
C 147.733888 28.709828 148.560492 29.309934 150.031649 29.752334 
C 151.502806 30.194733 153.498403 30.443305 155.578934 30.443305 
z
" style="fill:#ff0000;opacity:0.2;stroke:#ff0000;stroke-linejoin:miter;"/>
   </g>
   <g id="patch_26">
    <path d="M 176.499055 33.98199 
Q 167.000472 31.304146 159.543623 29.201908 
" style="fill:none;opacity:0.5;stroke:#ff0000;stroke-linecap:round;stroke-width:3;"/>
    <path d="M 160.580332 31.052647 
L 159.543623 29.201908 
L 161.394362 28.165199 
" style="fill:none;opacity:0.5;stroke:#ff0000;stroke-linecap:round;stroke-width:3;"/>
   </g>
   <g id="patch_27">
    <path clip-path="url(#p5dcc6c5091)" d="M 426.233002 308.230099 
C 428.140155 308.230099 429.969452 308.002241 431.318013 307.596708 
C 432.666574 307.191176 433.424294 306.641078 433.424294 306.067569 
C 433.424294 305.494059 432.666574 304.943962 431.318013 304.538429 
C 429.969452 304.132897 428.140155 303.905039 426.233002 303.905039 
C 424.325849 303.905039 422.496551 304.132897 421.147991 304.538429 
C 419.79943 304.943962 419.04171 305.494059 419.04171 306.067569 
C 419.04171 306.641078 419.79943 307.191176 421.147991 307.596708 
C 422.496551 308.002241 424.325849 308.230099 426.233002 308.230099 
z
" style="fill:#0000ff;opacity:0.2;stroke:#0000ff;stroke-linejoin:miter;"/>
   </g>
   <g id="patch_28">
    <path clip-path="url(#p5dcc6c5091)" d="M 405.312881 306.264162 
C 407.220034 306.264162 409.049331 306.036305 410.397892 305.630772 
C 411.746452 305.225239 412.504172 304.675142 412.504172 304.101632 
C 412.504172 303.528123 411.746452 302.978025 410.397892 302.572493 
C 409.049331 302.16696 407.220034 301.939103 405.312881 301.939103 
C 403.405728 301.939103 401.57643 302.16696 400.22787 302.572493 
C 398.879309 302.978025 398.121589 303.528123 398.121589 304.101632 
C 398.121589 304.675142 398.879309 305.225239 400.22787 305.630772 
C 401.57643 306.036305 403.405728 306.264162 405.312881 306.264162 
z
" style="fill:#ff0000;opacity:0.2;stroke:#ff0000;stroke-linejoin:miter;"/>
   </g>
   <g id="patch_29">
    <path d="M 426.233002 306.067569 
Q 416.767617 305.178074 409.238247 304.470513 
" style="fill:none;opacity:0.5;stroke:#ff0000;stroke-linecap:round;stroke-width:2.75;"/>
    <path d="M 410.591325 306.104275 
L 409.238247 304.470513 
L 410.872009 303.117434 
" style="fill:none;opacity:0.5;stroke:#ff0000;stroke-linecap:round;stroke-width:2.75;"/>
   </g>
   <g id="patch_30">
    <path clip-path="url(#p5dcc6c5091)" d="M 308.55732 308.623286 
C 310.811228 308.623286 312.973125 308.353999 314.566879 307.874734 
C 316.160632 307.395468 317.056119 306.745353 317.056119 306.067569 
C 317.056119 305.389785 316.160632 304.739669 314.566879 304.260404 
C 312.973125 303.781138 310.811228 303.511852 308.55732 303.511852 
C 306.303412 303.511852 304.141515 303.781138 302.547761 304.260404 
C 300.954008 304.739669 300.058521 305.389785 300.058521 306.067569 
C 300.058521 306.745353 300.954008 307.395468 302.547761 307.874734 
C 304.141515 308.353999 306.303412 308.623286 308.55732 308.623286 
z
" style="fill:#0000ff;opacity:0.2;stroke:#0000ff;stroke-linejoin:miter;"/>
   </g>
   <g id="patch_31">
    <path clip-path="url(#p5dcc6c5091)" d="M 329.477441 306.65735 
C 331.731349 306.65735 333.893246 306.388063 335.487 305.908797 
C 337.080753 305.429532 337.976241 304.779417 337.976241 304.101632 
C 337.976241 303.423848 337.080753 302.773733 335.487 302.294467 
C 333.893246 301.815202 331.731349 301.545915 329.477441 301.545915 
C 327.223533 301.545915 325.061636 301.815202 323.467883 302.294467 
C 321.874129 302.773733 320.978642 303.423848 320.978642 304.101632 
C 320.978642 304.779417 321.874129 305.429532 323.467883 305.908797 
C 325.061636 306.388063 327.223533 306.65735 329.477441 306.65735 
z
" style="fill:#ff0000;opacity:0.2;stroke:#ff0000;stroke-linejoin:miter;"/>
   </g>
   <g id="patch_32">
    <path d="M 308.55732 306.067569 
Q 318.022705 305.178074 325.200072 304.503592 
" style="fill:none;opacity:0.5;stroke:#ff0000;stroke-linecap:round;stroke-width:3.25;"/>
    <path d="M 323.56631 303.150513 
L 325.200072 304.503592 
L 323.846994 306.137354 
" style="fill:none;opacity:0.5;stroke:#ff0000;stroke-linecap:round;stroke-width:3.25;"/>
   </g>
   <g id="patch_33">
    <path clip-path="url(#p5dcc6c5091)" d="M 58.823373 36.341114 
C 60.903903 36.341114 62.899501 36.092541 64.370658 35.650142 
C 65.841815 35.207743 66.668419 34.607637 66.668419 33.98199 
C 66.668419 33.356343 65.841815 32.756237 64.370658 32.313838 
C 62.899501 31.871439 60.903903 31.622867 58.823373 31.622867 
C 56.742843 31.622867 54.747245 31.871439 53.276088 32.313838 
C 51.804931 32.756237 50.978328 33.356343 50.978328 33.98199 
C 50.978328 34.607637 51.804931 35.207743 53.276088 35.650142 
C 54.747245 36.092541 56.742843 36.341114 58.823373 36.341114 
z
" style="fill:#0000ff;opacity:0.2;stroke:#0000ff;stroke-linejoin:miter;"/>
   </g>
   <g id="patch_34">
    <path clip-path="url(#p5dcc6c5091)" d="M 79.743494 30.443305 
C 81.824025 30.443305 83.819622 30.194733 85.290779 29.752334 
C 86.761936 29.309934 87.58854 28.709828 87.58854 28.084181 
C 87.58854 27.458534 86.761936 26.858428 85.290779 26.416029 
C 83.819622 25.97363 81.824025 25.725058 79.743494 25.725058 
C 77.662964 25.725058 75.667367 25.97363 74.196209 26.416029 
C 72.725052 26.858428 71.898449 27.458534 71.898449 28.084181 
C 71.898449 28.709828 72.725052 29.309934 74.196209 29.752334 
C 75.667367 30.194733 77.662964 30.443305 79.743494 30.443305 
z
" style="fill:#ff0000;opacity:0.2;stroke:#ff0000;stroke-linejoin:miter;"/>
   </g>
   <g id="patch_35">
    <path d="M 58.823373 33.98199 
Q 68.321956 31.304146 75.778805 29.201908 
" style="fill:none;opacity:0.5;stroke:#ff0000;stroke-linecap:round;stroke-width:3;"/>
    <path d="M 73.928066 28.165199 
L 75.778805 29.201908 
L 74.742096 31.052647 
" style="fill:none;opacity:0.5;stroke:#ff0000;stroke-linecap:round;stroke-width:3;"/>
   </g>
   <g id="patch_36">
    <path clip-path="url(#p5dcc6c5091)" d="M 166.038994 32.999022 
C 167.77277 32.999022 169.435767 32.791879 170.661732 32.423213 
C 171.887696 32.054547 172.576532 31.554458 172.576532 31.033086 
C 172.576532 30.511713 171.887696 30.011625 170.661732 29.642959 
C 169.435767 29.274293 167.77277 29.067149 166.038994 29.067149 
C 164.305219 29.067149 162.642221 29.274293 161.416257 29.642959 
C 160.190293 30.011625 159.501456 30.511713 159.501456 31.033086 
C 159.501456 31.554458 160.190293 32.054547 161.416257 32.423213 
C 162.642221 32.791879 164.305219 32.999022 166.038994 32.999022 
z
" style="fill:#008000;opacity:0.2;stroke:#008000;stroke-linejoin:miter;"/>
   </g>
   <g id="patch_37">
    <path clip-path="url(#p5dcc6c5091)" d="M 415.772941 307.050537 
C 417.506717 307.050537 419.169714 306.843393 420.395679 306.474727 
C 421.621643 306.106061 422.310479 305.605973 422.310479 305.084601 
C 422.310479 304.563228 421.621643 304.06314 420.395679 303.694474 
C 419.169714 303.325808 417.506717 303.118664 415.772941 303.118664 
C 414.039166 303.118664 412.376168 303.325808 411.150204 303.694474 
C 409.92424 304.06314 409.235403 304.563228 409.235403 305.084601 
C 409.235403 305.605973 409.92424 306.106061 411.150204 306.474727 
C 412.376168 306.843393 414.039166 307.050537 415.772941 307.050537 
z
" style="fill:#008000;opacity:0.2;stroke:#008000;stroke-linejoin:miter;"/>
   </g>
   <g id="patch_38">
    <path clip-path="url(#p5dcc6c5091)" d="M 319.017381 307.050537 
C 320.751156 307.050537 322.414154 306.843393 323.640118 306.474727 
C 324.866082 306.106061 325.554919 305.605973 325.554919 305.084601 
C 325.554919 304.563228 324.866082 304.06314 323.640118 303.694474 
C 322.414154 303.325808 320.751156 303.118664 319.017381 303.118664 
C 317.283605 303.118664 315.620608 303.325808 314.394643 303.694474 
C 313.168679 304.06314 312.479843 304.563228 312.479843 305.084601 
C 312.479843 305.605973 313.168679 306.106061 314.394643 306.474727 
C 315.620608 306.843393 317.283605 307.050537 319.017381 307.050537 
z
" style="fill:#008000;opacity:0.2;stroke:#008000;stroke-linejoin:miter;"/>
   </g>
   <g id="patch_39">
    <path clip-path="url(#p5dcc6c5091)" d="M 69.283434 32.999022 
C 71.017209 32.999022 72.680207 32.791879 73.906171 32.423213 
C 75.132135 32.054547 75.820972 31.554458 75.820972 31.033086 
C 75.820972 30.511713 75.132135 30.011625 73.906171 29.642959 
C 72.680207 29.274293 71.017209 29.067149 69.283434 29.067149 
C 67.549658 29.067149 65.886661 29.274293 64.660696 29.642959 
C 63.434732 30.011625 62.745896 30.511713 62.745896 31.033086 
C 62.745896 31.554458 63.434732 32.054547 64.660696 32.423213 
C 65.886661 32.791879 67.549658 32.999022 69.283434 32.999022 
z
" style="fill:#008000;opacity:0.2;stroke:#008000;stroke-linejoin:miter;"/>
   </g>
   <g id="patch_40">
    <path d="M 166.038994 31.033086 
Q 290.905968 168.058843 415.772941 305.084601 
" style="fill:none;opacity:0.5;stroke:#008000;stroke-linecap:round;stroke-width:2;"/>
   </g>
   <g id="patch_41">
    <path d="M 156.94009 28.467919 
Q 165.077517 30.762026 173.214944 33.056132 
" style="fill:none;opacity:0.5;stroke:#800080;stroke-linecap:round;stroke-width:2;"/>
    <path d="M 157.976798 30.318658 
L 156.94009 28.467919 
L 158.790829 27.43121 
" style="fill:none;opacity:0.5;stroke:#800080;stroke-linecap:round;stroke-width:2;"/>
    <path d="M 172.178235 31.205393 
L 173.214944 33.056132 
L 171.364204 34.092841 
" style="fill:none;opacity:0.5;stroke:#800080;stroke-linecap:round;stroke-width:2;"/>
   </g>
   <g id="patch_42">
    <path d="M 415.772941 305.084601 
Q 367.395161 305.084601 319.017381 305.084601 
" style="fill:none;opacity:0.5;stroke:#008000;stroke-linecap:round;stroke-width:2;"/>
   </g>
   <g id="patch_43">
    <path d="M 406.720891 304.233948 
Q 414.778265 304.991127 422.835639 305.748307 
" style="fill:none;opacity:0.5;stroke:#800080;stroke-linecap:round;stroke-width:2;"/>
    <path d="M 408.073969 305.86771 
L 406.720891 304.233948 
L 408.354653 302.88087 
" style="fill:none;opacity:0.5;stroke:#800080;stroke-linecap:round;stroke-width:2;"/>
    <path d="M 421.482561 304.114545 
L 422.835639 305.748307 
L 421.201877 307.101385 
" style="fill:none;opacity:0.5;stroke:#800080;stroke-linecap:round;stroke-width:2;"/>
   </g>
   <g id="patch_44">
    <path d="M 319.017381 305.084601 
Q 194.150407 168.058843 69.283434 31.033086 
" style="fill:none;opacity:0.5;stroke:#008000;stroke-linecap:round;stroke-width:2;"/>
   </g>
   <g id="patch_45">
    <path d="M 328.069431 304.233948 
Q 320.012057 304.991127 311.954683 305.748307 
" style="fill:none;opacity:0.5;stroke:#800080;stroke-linecap:round;stroke-width:2;"/>
    <path d="M 326.435669 302.88087 
L 328.069431 304.233948 
L 326.716353 305.86771 
" style="fill:none;opacity:0.5;stroke:#800080;stroke-linecap:round;stroke-width:2;"/>
    <path d="M 313.588445 307.101385 
L 311.954683 305.748307 
L 313.307761 304.114545 
" style="fill:none;opacity:0.5;stroke:#800080;stroke-linecap:round;stroke-width:2;"/>
   </g>
   <g id="patch_46">
    <path d="M 69.283434 31.033086 
Q 117.661214 31.033086 166.038994 31.033086 
" style="fill:none;opacity:0.5;stroke:#008000;stroke-linecap:round;stroke-width:2;"/>
   </g>
   <g id="patch_47">
    <path d="M 78.382338 28.467919 
Q 70.244911 30.762026 62.107485 33.056132 
" style="fill:none;opacity:0.5;stroke:#800080;stroke-linecap:round;stroke-width:2;"/>
    <path d="M 76.531599 27.43121 
L 78.382338 28.467919 
L 77.34563 30.318658 
" style="fill:none;opacity:0.5;stroke:#800080;stroke-linecap:round;stroke-width:2;"/>
    <path d="M 63.958224 34.092841 
L 62.107485 33.056132 
L 63.144193 31.205393 
" style="fill:none;opacity:0.5;stroke:#800080;stroke-linecap:round;stroke-width:2;"/>
   </g>
   <g id="line2d_1">
    <path clip-path="url(#p5dcc6c5091)" d="M 155.578934 28.084181 
L 405.312881 304.101632 
L 329.477441 304.101632 
L 79.743494 28.084181 
" style="fill:none;stroke:#ff0000;stroke-linecap:square;stroke-width:0.2;"/>
   </g>
   <g id="line2d_2">
    <path clip-path="url(#p5dcc6c5091)" d="M 176.499055 33.98199 
L 426.233002 306.067569 
L 308.55732 306.067569 
L 58.823373 33.98199 
" style="fill:none;stroke:#0000ff;stroke-linecap:square;stroke-width:0.2;"/>
   </g>
  </g>
 </g>
 <defs>
  <clipPath id="p5dcc6c5091">
   <rect height="307.51175" width="409.903625" x="37.576375" y="13.32"/>
  </clipPath>
 </defs>
</svg>
