<?xml version="1.0" encoding="utf-8" standalone="no"?>
<!DOCTYPE svg PUBLIC "-//W3C//DTD SVG 1.1//EN"
  "http://www.w3.org/Graphics/SVG/1.1/DTD/svg11.dtd">
<!-- Created with matplotlib (http://matplotlib.org/) -->
<svg height="345.6pt" version="1.1" viewBox="0 0 460.8 345.6" width="460.8pt" xmlns="http://www.w3.org/2000/svg" xmlns:xlink="http://www.w3.org/1999/xlink">
 <defs>
  <style type="text/css">
*{stroke-linecap:butt;stroke-linejoin:round;}
  </style>
 </defs>
 <g id="figure_1">
  <g id="patch_1">
   <path d="M 0 345.6 
L 460.8 345.6 
L 460.8 0 
L 0 0 
z
" style="fill:#ffffff;"/>
  </g>
  <g id="axes_1">
   <g id="patch_2">
    <path clip-path="url(#p24b2942fc1)" d="M 237.546374 163.454682 
C 238.603328 163.454682 239.617134 163.302061 240.364513 163.030432 
C 241.111893 162.758804 241.531825 162.390345 241.531825 162.006204 
C 241.531825 161.622063 241.111893 161.253604 240.364513 160.981976 
C 239.617134 160.710347 238.603328 160.557727 237.546374 160.557727 
C 236.48942 160.557727 235.475614 160.710347 234.728235 160.981976 
C 233.980855 161.253604 233.560923 161.622063 233.560923 162.006204 
C 233.560923 162.390345 233.980855 162.758804 234.728235 163.030432 
C 235.475614 163.302061 236.48942 163.454682 237.546374 163.454682 
z
" style="fill:#ff0000;opacity:0.2;stroke:#ff0000;stroke-linejoin:miter;"/>
   </g>
   <g id="patch_3">
    <path clip-path="url(#p24b2942fc1)" d="M 98.055592 62.061264 
C 99.112546 62.061264 100.126352 61.908643 100.873732 61.637015 
C 101.621111 61.365386 102.041043 60.996927 102.041043 60.612787 
C 102.041043 60.228646 101.621111 59.860187 100.873732 59.588559 
C 100.126352 59.31693 99.112546 59.164309 98.055592 59.164309 
C 96.998638 59.164309 95.984832 59.31693 95.237453 59.588559 
C 94.490074 59.860187 94.070141 60.228646 94.070141 60.612787 
C 94.070141 60.996927 94.490074 61.365386 95.237453 61.637015 
C 95.984832 61.908643 96.998638 62.061264 98.055592 62.061264 
z
" style="fill:#ff0000;opacity:0.2;stroke:#ff0000;stroke-linejoin:miter;"/>
   </g>
   <g id="patch_4">
    <path clip-path="url(#p24b2942fc1)" d="M 131.931925 52.646161 
C 132.988879 52.646161 134.002685 52.49354 134.750064 52.221912 
C 135.497444 51.950283 135.917376 51.581824 135.917376 51.197684 
C 135.917376 50.813543 135.497444 50.445084 134.750064 50.173456 
C 134.002685 49.901827 132.988879 49.749206 131.931925 49.749206 
C 130.874971 49.749206 129.861165 49.901827 129.113786 50.173456 
C 128.366406 50.445084 127.946474 50.813543 127.946474 51.197684 
C 127.946474 51.581824 128.366406 51.950283 129.113786 52.221912 
C 129.861165 52.49354 130.874971 52.646161 131.931925 52.646161 
z
" style="fill:#ff0000;opacity:0.2;stroke:#ff0000;stroke-linejoin:miter;"/>
   </g>
   <g id="patch_5">
    <path clip-path="url(#p24b2942fc1)" d="M 369.066254 161.281965 
C 370.123207 161.281965 371.137014 161.129345 371.884393 160.857716 
C 372.631772 160.586088 373.051704 160.217629 373.051704 159.833488 
C 373.051704 159.449347 372.631772 159.080888 371.884393 158.80926 
C 371.137014 158.537631 370.123207 158.385011 369.066254 158.385011 
C 368.0093 158.385011 366.995493 158.537631 366.248114 158.80926 
C 365.500735 159.080888 365.080803 159.449347 365.080803 159.833488 
C 365.080803 160.217629 365.500735 160.586088 366.248114 160.857716 
C 366.995493 161.129345 368.0093 161.281965 369.066254 161.281965 
z
" style="fill:#ff0000;opacity:0.2;stroke:#ff0000;stroke-linejoin:miter;"/>
   </g>
   <g id="patch_6">
    <path clip-path="url(#p24b2942fc1)" d="M 369.066254 183.733365 
C 370.123207 183.733365 371.137014 183.580744 371.884393 183.309116 
C 372.631772 183.037487 373.051704 182.669028 373.051704 182.284888 
C 373.051704 181.900747 372.631772 181.532288 371.884393 181.260659 
C 371.137014 180.989031 370.123207 180.83641 369.066254 180.83641 
C 368.0093 180.83641 366.995493 180.989031 366.248114 181.260659 
C 365.500735 181.532288 365.080803 181.900747 365.080803 182.284888 
C 365.080803 182.669028 365.500735 183.037487 366.248114 183.309116 
C 366.995493 183.580744 368.0093 183.733365 369.066254 183.733365 
z
" style="fill:#ff0000;opacity:0.2;stroke:#ff0000;stroke-linejoin:miter;"/>
   </g>
   <g id="patch_7">
    <path clip-path="url(#p24b2942fc1)" d="M 131.931925 293.093408 
C 132.988879 293.093408 134.002685 292.940787 134.750064 292.669159 
C 135.497444 292.39753 135.917376 292.029071 135.917376 291.644931 
C 135.917376 291.26079 135.497444 290.892331 134.750064 290.620702 
C 134.002685 290.349074 132.988879 290.196453 131.931925 290.196453 
C 130.874971 290.196453 129.861165 290.349074 129.113786 290.620702 
C 128.366406 290.892331 127.946474 291.26079 127.946474 291.644931 
C 127.946474 292.029071 128.366406 292.39753 129.113786 292.669159 
C 129.861165 292.940787 130.874971 293.093408 131.931925 293.093408 
z
" style="fill:#ff0000;opacity:0.2;stroke:#ff0000;stroke-linejoin:miter;"/>
   </g>
   <g id="patch_8">
    <path clip-path="url(#p24b2942fc1)" d="M 98.055592 283.678305 
C 99.112546 283.678305 100.126352 283.525684 100.873732 283.254056 
C 101.621111 282.982427 102.041043 282.613968 102.041043 282.229828 
C 102.041043 281.845687 101.621111 281.477228 100.873732 281.205599 
C 100.126352 280.933971 99.112546 280.78135 98.055592 280.78135 
C 96.998638 280.78135 95.984832 280.933971 95.237453 281.205599 
C 94.490074 281.477228 94.070141 281.845687 94.070141 282.229828 
C 94.070141 282.613968 94.490074 282.982427 95.237453 283.254056 
C 95.984832 283.525684 96.998638 283.678305 98.055592 283.678305 
z
" style="fill:#ff0000;opacity:0.2;stroke:#ff0000;stroke-linejoin:miter;"/>
   </g>
   <g id="patch_9">
    <path clip-path="url(#p24b2942fc1)" d="M 237.546374 180.83641 
C 238.603328 180.83641 239.617134 180.683789 240.364513 180.412161 
C 241.111893 180.140533 241.531825 179.772074 241.531825 179.387933 
C 241.531825 179.003792 241.111893 178.635333 240.364513 178.363705 
C 239.617134 178.092076 238.603328 177.939455 237.546374 177.939455 
C 236.48942 177.939455 235.475614 178.092076 234.728235 178.363705 
C 233.980855 178.635333 233.560923 179.003792 233.560923 179.387933 
C 233.560923 179.772074 233.980855 180.140533 234.728235 180.412161 
C 235.475614 180.683789 236.48942 180.83641 237.546374 180.83641 
z
" style="fill:#ff0000;opacity:0.2;stroke:#ff0000;stroke-linejoin:miter;"/>
   </g>
   <g id="patch_10">
    <path clip-path="url(#p24b2942fc1)" d="M 211.640943 156.936533 
C 212.697897 156.936533 213.711703 156.783913 214.459082 156.512284 
C 215.206462 156.240656 215.626394 155.872197 215.626394 155.488056 
C 215.626394 155.103915 215.206462 154.735456 214.459082 154.463828 
C 213.711703 154.192199 212.697897 154.039578 211.640943 154.039578 
C 210.583989 154.039578 209.570183 154.192199 208.822804 154.463828 
C 208.075424 154.735456 207.655492 155.103915 207.655492 155.488056 
C 207.655492 155.872197 208.075424 156.240656 208.822804 156.512284 
C 209.570183 156.783913 210.583989 156.936533 211.640943 156.936533 
z
" style="fill:#0000ff;opacity:0.2;stroke:#0000ff;stroke-linejoin:miter;"/>
   </g>
   <g id="patch_11">
    <path clip-path="url(#p24b2942fc1)" d="M 60.193809 41.058342 
C 61.250763 41.058342 62.264569 40.905721 63.011948 40.634093 
C 63.759328 40.362464 64.17926 39.994005 64.17926 39.609865 
C 64.17926 39.225724 63.759328 38.857265 63.011948 38.585636 
C 62.264569 38.314008 61.250763 38.161387 60.193809 38.161387 
C 59.136855 38.161387 58.123049 38.314008 57.375669 38.585636 
C 56.62829 38.857265 56.208358 39.225724 56.208358 39.609865 
C 56.208358 39.994005 56.62829 40.362464 57.375669 40.634093 
C 58.123049 40.905721 59.136855 41.058342 60.193809 41.058342 
z
" style="fill:#0000ff;opacity:0.2;stroke:#0000ff;stroke-linejoin:miter;"/>
   </g>
   <g id="patch_12">
    <path clip-path="url(#p24b2942fc1)" d="M 104.033769 30.194762 
C 105.090723 30.194762 106.104529 30.042141 106.851908 29.770512 
C 107.599287 29.498884 108.01922 29.130425 108.01922 28.746284 
C 108.01922 28.362144 107.599287 27.993685 106.851908 27.722056 
C 106.104529 27.450428 105.090723 27.297807 104.033769 27.297807 
C 102.976815 27.297807 101.963009 27.450428 101.215629 27.722056 
C 100.46825 27.993685 100.048318 28.362144 100.048318 28.746284 
C 100.048318 29.130425 100.46825 29.498884 101.215629 29.770512 
C 101.963009 30.042141 102.976815 30.194762 104.033769 30.194762 
z
" style="fill:#0000ff;opacity:0.2;stroke:#0000ff;stroke-linejoin:miter;"/>
   </g>
   <g id="patch_13">
    <path clip-path="url(#p24b2942fc1)" d="M 406.928037 154.763817 
C 407.984991 154.763817 408.998797 154.611196 409.746176 154.339568 
C 410.493556 154.067939 410.913488 153.69948 410.913488 153.31534 
C 410.913488 152.931199 410.493556 152.56274 409.746176 152.291112 
C 408.998797 152.019483 407.984991 151.866862 406.928037 151.866862 
C 405.871083 151.866862 404.857277 152.019483 404.109898 152.291112 
C 403.362518 152.56274 402.942586 152.931199 402.942586 153.31534 
C 402.942586 153.69948 403.362518 154.067939 404.109898 154.339568 
C 404.857277 154.611196 405.871083 154.763817 406.928037 154.763817 
z
" style="fill:#0000ff;opacity:0.2;stroke:#0000ff;stroke-linejoin:miter;"/>
   </g>
   <g id="patch_14">
    <path clip-path="url(#p24b2942fc1)" d="M 406.928037 180.83641 
C 407.984991 180.83641 408.998797 180.683789 409.746176 180.412161 
C 410.493556 180.140533 410.913488 179.772074 410.913488 179.387933 
C 410.913488 179.003792 410.493556 178.635333 409.746176 178.363705 
C 408.998797 178.092076 407.984991 177.939455 406.928037 177.939455 
C 405.871083 177.939455 404.857277 178.092076 404.109898 178.363705 
C 403.362518 178.635333 402.942586 179.003792 402.942586 179.387933 
C 402.942586 179.772074 403.362518 180.140533 404.109898 180.412161 
C 404.857277 180.683789 405.871083 180.83641 406.928037 180.83641 
z
" style="fill:#0000ff;opacity:0.2;stroke:#0000ff;stroke-linejoin:miter;"/>
   </g>
   <g id="patch_15">
    <path clip-path="url(#p24b2942fc1)" d="M 104.033769 306.853943 
C 105.090723 306.853943 106.104529 306.701322 106.851908 306.429694 
C 107.599287 306.158065 108.01922 305.789606 108.01922 305.405466 
C 108.01922 305.021325 107.599287 304.652866 106.851908 304.381238 
C 106.104529 304.109609 105.090723 303.956988 104.033769 303.956988 
C 102.976815 303.956988 101.963009 304.109609 101.215629 304.381238 
C 100.46825 304.652866 100.048318 305.021325 100.048318 305.405466 
C 100.048318 305.789606 100.46825 306.158065 101.215629 306.429694 
C 101.963009 306.701322 102.976815 306.853943 104.033769 306.853943 
z
" style="fill:#0000ff;opacity:0.2;stroke:#0000ff;stroke-linejoin:miter;"/>
   </g>
   <g id="patch_16">
    <path clip-path="url(#p24b2942fc1)" d="M 60.193809 295.990363 
C 61.250763 295.990363 62.264569 295.837742 63.011948 295.566114 
C 63.759328 295.294485 64.17926 294.926026 64.17926 294.541885 
C 64.17926 294.157745 63.759328 293.789286 63.011948 293.517657 
C 62.264569 293.246029 61.250763 293.093408 60.193809 293.093408 
C 59.136855 293.093408 58.123049 293.246029 57.375669 293.517657 
C 56.62829 293.789286 56.208358 294.157745 56.208358 294.541885 
C 56.208358 294.926026 56.62829 295.294485 57.375669 295.566114 
C 58.123049 295.837742 59.136855 295.990363 60.193809 295.990363 
z
" style="fill:#0000ff;opacity:0.2;stroke:#0000ff;stroke-linejoin:miter;"/>
   </g>
   <g id="patch_17">
    <path clip-path="url(#p24b2942fc1)" d="M 211.640943 177.939455 
C 212.697897 177.939455 213.711703 177.786835 214.459082 177.515206 
C 215.206462 177.243578 215.626394 176.875119 215.626394 176.490978 
C 215.626394 176.106837 215.206462 175.738378 214.459082 175.46675 
C 213.711703 175.195121 212.697897 175.042501 211.640943 175.042501 
C 210.583989 175.042501 209.570183 175.195121 208.822804 175.46675 
C 208.075424 175.738378 207.655492 176.106837 207.655492 176.490978 
C 207.655492 176.875119 208.075424 177.243578 208.822804 177.515206 
C 209.570183 177.786835 210.583989 177.939455 211.640943 177.939455 
z
" style="fill:#0000ff;opacity:0.2;stroke:#0000ff;stroke-linejoin:miter;"/>
   </g>
   <g id="patch_18">
    <path clip-path="url(#p24b2942fc1)" d="M 237.546374 162.006204 
L 98.055592 60.612787 
C 104.033769 54.818877 117.982847 51.921922 131.931925 51.197684 
C 209.648218 87.409619 285.371785 123.621553 369.066254 159.833488 
C 388.993508 167.800114 387.000783 174.318262 369.066254 182.284888 
C 285.371785 218.496822 209.648218 255.432996 131.931925 291.644931 
C 113.997396 290.196453 104.033769 287.299498 98.055592 282.229828 
L 237.546374 179.387933 
C 243.52455 174.318262 245.517276 168.524352 237.546374 162.006204 
" style="fill:none;stroke:#ff0000;stroke-linejoin:miter;stroke-width:0.5;"/>
   </g>
   <g id="patch_19">
    <path clip-path="url(#p24b2942fc1)" d="M 211.640943 155.488056 
L 60.193809 39.609865 
C 68.164711 33.091716 88.091965 30.194762 104.033769 28.746284 
C 201.677316 70.752129 301.313588 112.033734 406.928037 153.31534 
C 428.848017 162.730443 428.848017 169.97283 406.928037 179.387933 
C 301.313588 221.393777 201.677316 263.399621 104.033769 305.405466 
C 84.106514 306.129704 68.164711 300.335795 60.193809 294.541885 
L 211.640943 176.490978 
C 219.611845 169.97283 221.60457 163.454682 211.640943 155.488056 
" style="fill:none;stroke:#0000ff;stroke-linejoin:miter;stroke-width:0.5;"/>
   </g>
   <g id="patch_20">
    <path clip-path="url(#p24b2942fc1)" d="M 237.546374 166.713756 
C 240.981474 166.713756 244.276344 166.217738 246.705327 165.334946 
C 249.134309 164.452153 250.499089 163.254661 250.499089 162.006204 
C 250.499089 160.757747 249.134309 159.560255 246.705327 158.677463 
C 244.276344 157.79467 240.981474 157.298653 237.546374 157.298653 
C 234.111274 157.298653 230.816404 157.79467 228.387421 158.677463 
C 225.958438 159.560255 224.593658 160.757747 224.593658 162.006204 
C 224.593658 163.254661 225.958438 164.452153 228.387421 165.334946 
C 230.816404 166.217738 234.111274 166.713756 237.546374 166.713756 
z
" style="fill:#0000ff;opacity:0.2;stroke:#0000ff;stroke-linejoin:miter;"/>
   </g>
   <g id="patch_21">
    <path clip-path="url(#p24b2942fc1)" d="M 211.640943 160.195607 
C 215.076043 160.195607 218.370913 159.69959 220.799896 158.816797 
C 223.228879 157.934005 224.593658 156.736513 224.593658 155.488056 
C 224.593658 154.239599 223.228879 153.042107 220.799896 152.159314 
C 218.370913 151.276522 215.076043 150.780504 211.640943 150.780504 
C 208.205843 150.780504 204.910973 151.276522 202.48199 152.159314 
C 200.053007 153.042107 198.688228 154.239599 198.688228 155.488056 
C 198.688228 156.736513 200.053007 157.934005 202.48199 158.816797 
C 204.910973 159.69959 208.205843 160.195607 211.640943 160.195607 
z
" style="fill:#ff0000;opacity:0.2;stroke:#ff0000;stroke-linejoin:miter;"/>
   </g>
   <g id="patch_22">
    <path d="M 237.546374 162.006204 
Q 225.562899 158.991004 215.808056 156.536557 
" style="fill:none;opacity:0.5;stroke:#0000ff;stroke-linecap:round;stroke-width:3.25;"/>
    <path d="M 216.896705 158.357228 
L 215.808056 156.536557 
L 217.628728 155.447908 
" style="fill:none;opacity:0.5;stroke:#0000ff;stroke-linecap:round;stroke-width:3.25;"/>
   </g>
   <g id="patch_23">
    <path clip-path="url(#p24b2942fc1)" d="M 98.055592 63.147622 
C 99.905262 63.147622 101.679423 62.880536 102.987336 62.405186 
C 104.29525 61.929836 105.030131 61.285033 105.030131 60.612787 
C 105.030131 59.940541 104.29525 59.295737 102.987336 58.820387 
C 101.679423 58.345038 99.905262 58.077951 98.055592 58.077951 
C 96.205923 58.077951 94.431762 58.345038 93.123849 58.820387 
C 91.815935 59.295737 91.081053 59.940541 91.081053 60.612787 
C 91.081053 61.285033 91.815935 61.929836 93.123849 62.405186 
C 94.431762 62.880536 96.205923 63.147622 98.055592 63.147622 
z
" style="fill:#0000ff;opacity:0.2;stroke:#0000ff;stroke-linejoin:miter;"/>
   </g>
   <g id="patch_24">
    <path clip-path="url(#p24b2942fc1)" d="M 60.193809 42.1447 
C 62.043478 42.1447 63.817639 41.877614 65.125553 41.402264 
C 66.433466 40.926914 67.168348 40.282111 67.168348 39.609865 
C 67.168348 38.937618 66.433466 38.292815 65.125553 37.817465 
C 63.817639 37.342115 62.043478 37.075029 60.193809 37.075029 
C 58.344139 37.075029 56.569979 37.342115 55.262065 37.817465 
C 53.954151 38.292815 53.21927 38.937618 53.21927 39.609865 
C 53.21927 40.282111 53.954151 40.926914 55.262065 41.402264 
C 56.569979 41.877614 58.344139 42.1447 60.193809 42.1447 
z
" style="fill:#ff0000;opacity:0.2;stroke:#ff0000;stroke-linejoin:miter;"/>
   </g>
   <g id="patch_25">
    <path d="M 98.055592 60.612787 
Q 79.999376 50.596531 63.025255 41.180542 
" style="fill:none;opacity:0.5;stroke:#0000ff;stroke-linecap:round;stroke-width:1.75;"/>
    <path d="M 63.60932 43.219872 
L 63.025255 41.180542 
L 65.064586 40.596478 
" style="fill:none;opacity:0.5;stroke:#0000ff;stroke-linecap:round;stroke-width:1.75;"/>
   </g>
   <g id="patch_26">
    <path clip-path="url(#p24b2942fc1)" d="M 131.931925 53.3704 
C 133.517356 53.3704 135.038065 53.141469 136.159134 52.734026 
C 137.280203 52.326583 137.910101 51.773895 137.910101 51.197684 
C 137.910101 50.621473 137.280203 50.068784 136.159134 49.661341 
C 135.038065 49.253899 133.517356 49.024968 131.931925 49.024968 
C 130.346494 49.024968 128.825785 49.253899 127.704716 49.661341 
C 126.583647 50.068784 125.953749 50.621473 125.953749 51.197684 
C 125.953749 51.773895 126.583647 52.326583 127.704716 52.734026 
C 128.825785 53.141469 130.346494 53.3704 131.931925 53.3704 
z
" style="fill:#0000ff;opacity:0.2;stroke:#0000ff;stroke-linejoin:miter;"/>
   </g>
   <g id="patch_27">
    <path clip-path="url(#p24b2942fc1)" d="M 104.033769 30.919 
C 105.6192 30.919 107.139909 30.690069 108.260978 30.282626 
C 109.382047 29.875184 110.011945 29.322495 110.011945 28.746284 
C 110.011945 28.170073 109.382047 27.617385 108.260978 27.209942 
C 107.139909 26.802499 105.6192 26.573568 104.033769 26.573568 
C 102.448338 26.573568 100.927629 26.802499 99.80656 27.209942 
C 98.685491 27.617385 98.055592 28.170073 98.055592 28.746284 
C 98.055592 29.322495 98.685491 29.875184 99.80656 30.282626 
C 100.927629 30.690069 102.448338 30.919 104.033769 30.919 
z
" style="fill:#ff0000;opacity:0.2;stroke:#ff0000;stroke-linejoin:miter;"/>
   </g>
   <g id="patch_28">
    <path d="M 131.931925 51.197684 
Q 118.761012 40.598222 106.416412 30.663747 
" style="fill:none;opacity:0.5;stroke:#0000ff;stroke-linecap:round;stroke-width:1.5;"/>
    <path d="M 106.644563 32.772763 
L 106.416412 30.663747 
L 108.525428 30.435596 
" style="fill:none;opacity:0.5;stroke:#0000ff;stroke-linecap:round;stroke-width:1.5;"/>
   </g>
   <g id="patch_29">
    <path clip-path="url(#p24b2942fc1)" d="M 369.066254 162.368323 
C 370.915923 162.368323 372.690084 162.101237 373.997997 161.625887 
C 375.305911 161.150538 376.040793 160.505734 376.040793 159.833488 
C 376.040793 159.161242 375.305911 158.516439 373.997997 158.041089 
C 372.690084 157.565739 370.915923 157.298653 369.066254 157.298653 
C 367.216584 157.298653 365.442423 157.565739 364.13451 158.041089 
C 362.826596 158.516439 362.091714 159.161242 362.091714 159.833488 
C 362.091714 160.505734 362.826596 161.150538 364.13451 161.625887 
C 365.442423 162.101237 367.216584 162.368323 369.066254 162.368323 
z
" style="fill:#0000ff;opacity:0.2;stroke:#0000ff;stroke-linejoin:miter;"/>
   </g>
   <g id="patch_30">
    <path clip-path="url(#p24b2942fc1)" d="M 406.928037 155.850175 
C 408.777706 155.850175 410.551867 155.583089 411.859781 155.107739 
C 413.167695 154.632389 413.902576 153.987586 413.902576 153.31534 
C 413.902576 152.643094 413.167695 151.99829 411.859781 151.52294 
C 410.551867 151.047591 408.777706 150.780504 406.928037 150.780504 
C 405.078368 150.780504 403.304207 151.047591 401.996293 151.52294 
C 400.688379 151.99829 399.953498 152.643094 399.953498 153.31534 
C 399.953498 153.987586 400.688379 154.632389 401.996293 155.107739 
C 403.304207 155.583089 405.078368 155.850175 406.928037 155.850175 
z
" style="fill:#ff0000;opacity:0.2;stroke:#ff0000;stroke-linejoin:miter;"/>
   </g>
   <g id="patch_31">
    <path d="M 369.066254 159.833488 
Q 387.010391 156.74429 403.735031 153.865036 
" style="fill:none;opacity:0.5;stroke:#0000ff;stroke-linecap:round;stroke-width:1.75;"/>
    <path d="M 402.002287 152.641273 
L 403.735031 153.865036 
L 402.511268 155.597781 
" style="fill:none;opacity:0.5;stroke:#0000ff;stroke-linecap:round;stroke-width:1.75;"/>
   </g>
   <g id="patch_32">
    <path clip-path="url(#p24b2942fc1)" d="M 369.066254 186.2682 
C 371.972877 186.2682 374.760844 185.848493 376.816137 185.101515 
C 378.87143 184.354537 380.026244 183.341275 380.026244 182.284888 
C 380.026244 181.228501 378.87143 180.215238 376.816137 179.46826 
C 374.760844 178.721282 371.972877 178.301575 369.066254 178.301575 
C 366.15963 178.301575 363.371663 178.721282 361.31637 179.46826 
C 359.261077 180.215238 358.106264 181.228501 358.106264 182.284888 
C 358.106264 183.341275 359.261077 184.354537 361.31637 185.101515 
C 363.371663 185.848493 366.15963 186.2682 369.066254 186.2682 
z
" style="fill:#0000ff;opacity:0.2;stroke:#0000ff;stroke-linejoin:miter;"/>
   </g>
   <g id="patch_33">
    <path clip-path="url(#p24b2942fc1)" d="M 406.928037 183.371246 
C 409.83466 183.371246 412.622627 182.951539 414.67792 182.20456 
C 416.733213 181.457582 417.888027 180.44432 417.888027 179.387933 
C 417.888027 178.331546 416.733213 177.318284 414.67792 176.571305 
C 412.622627 175.824327 409.83466 175.40462 406.928037 175.40462 
C 404.021414 175.40462 401.233447 175.824327 399.178154 176.571305 
C 397.122861 177.318284 395.968047 178.331546 395.968047 179.387933 
C 395.968047 180.44432 397.122861 181.457582 399.178154 182.20456 
C 401.233447 182.951539 404.021414 183.371246 406.928037 183.371246 
z
" style="fill:#ff0000;opacity:0.2;stroke:#ff0000;stroke-linejoin:miter;"/>
   </g>
   <g id="patch_34">
    <path d="M 369.066254 182.284888 
Q 387.001147 180.912618 402.997165 179.688699 
" style="fill:none;opacity:0.5;stroke:#0000ff;stroke-linecap:round;stroke-width:2.75;"/>
    <path d="M 401.3871 178.307507 
L 402.997165 179.688699 
L 401.615973 181.298764 
" style="fill:none;opacity:0.5;stroke:#0000ff;stroke-linecap:round;stroke-width:2.75;"/>
   </g>
   <g id="patch_35">
    <path clip-path="url(#p24b2942fc1)" d="M 131.931925 296.352482 
C 135.367025 296.352482 138.661895 295.856465 141.090878 294.973672 
C 143.519861 294.09088 144.88464 292.893388 144.88464 291.644931 
C 144.88464 290.396473 143.519861 289.198982 141.090878 288.316189 
C 138.661895 287.433396 135.367025 286.937379 131.931925 286.937379 
C 128.496825 286.937379 125.201955 287.433396 122.772972 288.316189 
C 120.343989 289.198982 118.97921 290.396473 118.97921 291.644931 
C 118.97921 292.893388 120.343989 294.09088 122.772972 294.973672 
C 125.201955 295.856465 128.496825 296.352482 131.931925 296.352482 
z
" style="fill:#0000ff;opacity:0.2;stroke:#0000ff;stroke-linejoin:miter;"/>
   </g>
   <g id="patch_36">
    <path clip-path="url(#p24b2942fc1)" d="M 104.033769 310.113017 
C 107.468869 310.113017 110.763739 309.617 113.192722 308.734207 
C 115.621704 307.851415 116.986484 306.653923 116.986484 305.405466 
C 116.986484 304.157009 115.621704 302.959517 113.192722 302.076724 
C 110.763739 301.193932 107.468869 300.697914 104.033769 300.697914 
C 100.598668 300.697914 97.303799 301.193932 94.874816 302.076724 
C 92.445833 302.959517 91.081053 304.157009 91.081053 305.405466 
C 91.081053 306.653923 92.445833 307.851415 94.874816 308.734207 
C 97.303799 309.617 100.598668 310.113017 104.033769 310.113017 
z
" style="fill:#ff0000;opacity:0.2;stroke:#ff0000;stroke-linejoin:miter;"/>
   </g>
   <g id="patch_37">
    <path d="M 131.931925 291.644931 
Q 118.880206 298.082583 107.889508 303.503654 
" style="fill:none;opacity:0.5;stroke:#0000ff;stroke-linecap:round;stroke-width:3.25;"/>
    <path d="M 109.898303 304.185374 
L 107.889508 303.503654 
L 108.571229 301.494859 
" style="fill:none;opacity:0.5;stroke:#0000ff;stroke-linecap:round;stroke-width:3.25;"/>
   </g>
   <g id="patch_38">
    <path clip-path="url(#p24b2942fc1)" d="M 98.055592 284.764663 
C 99.905262 284.764663 101.679423 284.497577 102.987336 284.022227 
C 104.29525 283.546877 105.030131 282.902074 105.030131 282.229828 
C 105.030131 281.557581 104.29525 280.912778 102.987336 280.437428 
C 101.679423 279.962078 99.905262 279.694992 98.055592 279.694992 
C 96.205923 279.694992 94.431762 279.962078 93.123849 280.437428 
C 91.815935 280.912778 91.081053 281.557581 91.081053 282.229828 
C 91.081053 282.902074 91.815935 283.546877 93.123849 284.022227 
C 94.431762 284.497577 96.205923 284.764663 98.055592 284.764663 
z
" style="fill:#0000ff;opacity:0.2;stroke:#0000ff;stroke-linejoin:miter;"/>
   </g>
   <g id="patch_39">
    <path clip-path="url(#p24b2942fc1)" d="M 60.193809 297.076721 
C 62.043478 297.076721 63.817639 296.809635 65.125553 296.334285 
C 66.433466 295.858935 67.168348 295.214132 67.168348 294.541885 
C 67.168348 293.869639 66.433466 293.224836 65.125553 292.749486 
C 63.817639 292.274136 62.043478 292.00705 60.193809 292.00705 
C 58.344139 292.00705 56.569979 292.274136 55.262065 292.749486 
C 53.954151 293.224836 53.21927 293.869639 53.21927 294.541885 
C 53.21927 295.214132 53.954151 295.858935 55.262065 296.334285 
C 56.569979 296.809635 58.344139 297.076721 60.193809 297.076721 
z
" style="fill:#ff0000;opacity:0.2;stroke:#ff0000;stroke-linejoin:miter;"/>
   </g>
   <g id="patch_40">
    <path d="M 98.055592 282.229828 
Q 80.07448 288.077003 63.270149 293.541508 
" style="fill:none;opacity:0.5;stroke:#0000ff;stroke-linecap:round;stroke-width:1.75;"/>
    <path d="M 65.16049 294.504115 
L 63.270149 293.541508 
L 64.232756 291.651167 
" style="fill:none;opacity:0.5;stroke:#0000ff;stroke-linecap:round;stroke-width:1.75;"/>
   </g>
   <g id="patch_41">
    <path clip-path="url(#p24b2942fc1)" d="M 237.546374 183.733365 
C 240.717236 183.733365 243.758654 183.275503 246.000792 182.460617 
C 248.24293 181.645732 249.502727 180.540355 249.502727 179.387933 
C 249.502727 178.235511 248.24293 177.130134 246.000792 176.315248 
C 243.758654 175.500363 240.717236 175.042501 237.546374 175.042501 
C 234.375512 175.042501 231.334094 175.500363 229.091956 176.315248 
C 226.849818 177.130134 225.590021 178.235511 225.590021 179.387933 
C 225.590021 180.540355 226.849818 181.645732 229.091956 182.460617 
C 231.334094 183.275503 234.375512 183.733365 237.546374 183.733365 
z
" style="fill:#0000ff;opacity:0.2;stroke:#0000ff;stroke-linejoin:miter;"/>
   </g>
   <g id="patch_42">
    <path clip-path="url(#p24b2942fc1)" d="M 211.640943 180.83641 
C 214.811805 180.83641 217.853223 180.378548 220.095361 179.563663 
C 222.337499 178.748777 223.597296 177.6434 223.597296 176.490978 
C 223.597296 175.338556 222.337499 174.233179 220.095361 173.418293 
C 217.853223 172.603408 214.811805 172.145546 211.640943 172.145546 
C 208.470081 172.145546 205.428663 172.603408 203.186525 173.418293 
C 200.944387 174.233179 199.68459 175.338556 199.68459 176.490978 
C 199.68459 177.6434 200.944387 178.748777 203.186525 179.563663 
C 205.428663 180.378548 208.470081 180.83641 211.640943 180.83641 
z
" style="fill:#ff0000;opacity:0.2;stroke:#ff0000;stroke-linejoin:miter;"/>
   </g>
   <g id="patch_43">
    <path d="M 237.546374 179.387933 
Q 225.588197 178.050673 215.738199 176.949166 
" style="fill:none;opacity:0.5;stroke:#0000ff;stroke-linecap:round;stroke-width:3;"/>
    <path d="M 217.062204 178.606577 
L 215.738199 176.949166 
L 217.39561 175.625161 
" style="fill:none;opacity:0.5;stroke:#0000ff;stroke-linecap:round;stroke-width:3;"/>
   </g>
   <g id="patch_44">
    <path clip-path="url(#p24b2942fc1)" d="M 211.640943 160.195607 
C 215.076043 160.195607 218.370913 159.69959 220.799896 158.816797 
C 223.228879 157.934005 224.593658 156.736513 224.593658 155.488056 
C 224.593658 154.239599 223.228879 153.042107 220.799896 152.159314 
C 218.370913 151.276522 215.076043 150.780504 211.640943 150.780504 
C 208.205843 150.780504 204.910973 151.276522 202.48199 152.159314 
C 200.053007 153.042107 198.688228 154.239599 198.688228 155.488056 
C 198.688228 156.736513 200.053007 157.934005 202.48199 158.816797 
C 204.910973 159.69959 208.205843 160.195607 211.640943 160.195607 
z
" style="fill:#0000ff;opacity:0.2;stroke:#0000ff;stroke-linejoin:miter;"/>
   </g>
   <g id="patch_45">
    <path clip-path="url(#p24b2942fc1)" d="M 237.546374 166.713756 
C 240.981474 166.713756 244.276344 166.217738 246.705327 165.334946 
C 249.134309 164.452153 250.499089 163.254661 250.499089 162.006204 
C 250.499089 160.757747 249.134309 159.560255 246.705327 158.677463 
C 244.276344 157.79467 240.981474 157.298653 237.546374 157.298653 
C 234.111274 157.298653 230.816404 157.79467 228.387421 158.677463 
C 225.958438 159.560255 224.593658 160.757747 224.593658 162.006204 
C 224.593658 163.254661 225.958438 164.452153 228.387421 165.334946 
C 230.816404 166.217738 234.111274 166.713756 237.546374 166.713756 
z
" style="fill:#ff0000;opacity:0.2;stroke:#ff0000;stroke-linejoin:miter;"/>
   </g>
   <g id="patch_46">
    <path d="M 211.640943 155.488056 
Q 223.624418 158.503256 233.379261 160.957703 
" style="fill:none;opacity:0.5;stroke:#ff0000;stroke-linecap:round;stroke-width:3.25;"/>
    <path d="M 232.290612 159.137032 
L 233.379261 160.957703 
L 231.558589 162.046352 
" style="fill:none;opacity:0.5;stroke:#ff0000;stroke-linecap:round;stroke-width:3.25;"/>
   </g>
   <g id="patch_47">
    <path clip-path="url(#p24b2942fc1)" d="M 60.193809 42.1447 
C 62.043478 42.1447 63.817639 41.877614 65.125553 41.402264 
C 66.433466 40.926914 67.168348 40.282111 67.168348 39.609865 
C 67.168348 38.937618 66.433466 38.292815 65.125553 37.817465 
C 63.817639 37.342115 62.043478 37.075029 60.193809 37.075029 
C 58.344139 37.075029 56.569979 37.342115 55.262065 37.817465 
C 53.954151 38.292815 53.21927 38.937618 53.21927 39.609865 
C 53.21927 40.282111 53.954151 40.926914 55.262065 41.402264 
C 56.569979 41.877614 58.344139 42.1447 60.193809 42.1447 
z
" style="fill:#0000ff;opacity:0.2;stroke:#0000ff;stroke-linejoin:miter;"/>
   </g>
   <g id="patch_48">
    <path clip-path="url(#p24b2942fc1)" d="M 98.055592 63.147622 
C 99.905262 63.147622 101.679423 62.880536 102.987336 62.405186 
C 104.29525 61.929836 105.030131 61.285033 105.030131 60.612787 
C 105.030131 59.940541 104.29525 59.295737 102.987336 58.820387 
C 101.679423 58.345038 99.905262 58.077951 98.055592 58.077951 
C 96.205923 58.077951 94.431762 58.345038 93.123849 58.820387 
C 91.815935 59.295737 91.081053 59.940541 91.081053 60.612787 
C 91.081053 61.285033 91.815935 61.929836 93.123849 62.405186 
C 94.431762 62.880536 96.205923 63.147622 98.055592 63.147622 
z
" style="fill:#ff0000;opacity:0.2;stroke:#ff0000;stroke-linejoin:miter;"/>
   </g>
   <g id="patch_49">
    <path d="M 60.193809 39.609865 
Q 78.250025 49.62612 95.224146 59.042109 
" style="fill:none;opacity:0.5;stroke:#ff0000;stroke-linecap:round;stroke-width:1.75;"/>
    <path d="M 94.640081 57.002779 
L 95.224146 59.042109 
L 93.184816 59.626174 
" style="fill:none;opacity:0.5;stroke:#ff0000;stroke-linecap:round;stroke-width:1.75;"/>
   </g>
   <g id="patch_50">
    <path clip-path="url(#p24b2942fc1)" d="M 104.033769 30.919 
C 105.6192 30.919 107.139909 30.690069 108.260978 30.282626 
C 109.382047 29.875184 110.011945 29.322495 110.011945 28.746284 
C 110.011945 28.170073 109.382047 27.617385 108.260978 27.209942 
C 107.139909 26.802499 105.6192 26.573568 104.033769 26.573568 
C 102.448338 26.573568 100.927629 26.802499 99.80656 27.209942 
C 98.685491 27.617385 98.055592 28.170073 98.055592 28.746284 
C 98.055592 29.322495 98.685491 29.875184 99.80656 30.282626 
C 100.927629 30.690069 102.448338 30.919 104.033769 30.919 
z
" style="fill:#0000ff;opacity:0.2;stroke:#0000ff;stroke-linejoin:miter;"/>
   </g>
   <g id="patch_51">
    <path clip-path="url(#p24b2942fc1)" d="M 131.931925 53.3704 
C 133.517356 53.3704 135.038065 53.141469 136.159134 52.734026 
C 137.280203 52.326583 137.910101 51.773895 137.910101 51.197684 
C 137.910101 50.621473 137.280203 50.068784 136.159134 49.661341 
C 135.038065 49.253899 133.517356 49.024968 131.931925 49.024968 
C 130.346494 49.024968 128.825785 49.253899 127.704716 49.661341 
C 126.583647 50.068784 125.953749 50.621473 125.953749 51.197684 
C 125.953749 51.773895 126.583647 52.326583 127.704716 52.734026 
C 128.825785 53.141469 130.346494 53.3704 131.931925 53.3704 
z
" style="fill:#ff0000;opacity:0.2;stroke:#ff0000;stroke-linejoin:miter;"/>
   </g>
   <g id="patch_52">
    <path d="M 104.033769 28.746284 
Q 117.204682 39.345746 129.549282 49.280221 
" style="fill:none;opacity:0.5;stroke:#ff0000;stroke-linecap:round;stroke-width:1.5;"/>
    <path d="M 129.321131 47.171205 
L 129.549282 49.280221 
L 127.440266 49.508372 
" style="fill:none;opacity:0.5;stroke:#ff0000;stroke-linecap:round;stroke-width:1.5;"/>
   </g>
   <g id="patch_53">
    <path clip-path="url(#p24b2942fc1)" d="M 406.928037 155.850175 
C 408.777706 155.850175 410.551867 155.583089 411.859781 155.107739 
C 413.167695 154.632389 413.902576 153.987586 413.902576 153.31534 
C 413.902576 152.643094 413.167695 151.99829 411.859781 151.52294 
C 410.551867 151.047591 408.777706 150.780504 406.928037 150.780504 
C 405.078368 150.780504 403.304207 151.047591 401.996293 151.52294 
C 400.688379 151.99829 399.953498 152.643094 399.953498 153.31534 
C 399.953498 153.987586 400.688379 154.632389 401.996293 155.107739 
C 403.304207 155.583089 405.078368 155.850175 406.928037 155.850175 
z
" style="fill:#0000ff;opacity:0.2;stroke:#0000ff;stroke-linejoin:miter;"/>
   </g>
   <g id="patch_54">
    <path clip-path="url(#p24b2942fc1)" d="M 369.066254 162.368323 
C 370.915923 162.368323 372.690084 162.101237 373.997997 161.625887 
C 375.305911 161.150538 376.040793 160.505734 376.040793 159.833488 
C 376.040793 159.161242 375.305911 158.516439 373.997997 158.041089 
C 372.690084 157.565739 370.915923 157.298653 369.066254 157.298653 
C 367.216584 157.298653 365.442423 157.565739 364.13451 158.041089 
C 362.826596 158.516439 362.091714 159.161242 362.091714 159.833488 
C 362.091714 160.505734 362.826596 161.150538 364.13451 161.625887 
C 365.442423 162.101237 367.216584 162.368323 369.066254 162.368323 
z
" style="fill:#ff0000;opacity:0.2;stroke:#ff0000;stroke-linejoin:miter;"/>
   </g>
   <g id="patch_55">
    <path d="M 406.928037 153.31534 
Q 388.9839 156.404538 372.259259 159.283792 
" style="fill:none;opacity:0.5;stroke:#ff0000;stroke-linecap:round;stroke-width:1.75;"/>
    <path d="M 373.992004 160.507555 
L 372.259259 159.283792 
L 373.483022 157.551047 
" style="fill:none;opacity:0.5;stroke:#ff0000;stroke-linecap:round;stroke-width:1.75;"/>
   </g>
   <g id="patch_56">
    <path clip-path="url(#p24b2942fc1)" d="M 406.928037 183.371246 
C 409.83466 183.371246 412.622627 182.951539 414.67792 182.20456 
C 416.733213 181.457582 417.888027 180.44432 417.888027 179.387933 
C 417.888027 178.331546 416.733213 177.318284 414.67792 176.571305 
C 412.622627 175.824327 409.83466 175.40462 406.928037 175.40462 
C 404.021414 175.40462 401.233447 175.824327 399.178154 176.571305 
C 397.122861 177.318284 395.968047 178.331546 395.968047 179.387933 
C 395.968047 180.44432 397.122861 181.457582 399.178154 182.20456 
C 401.233447 182.951539 404.021414 183.371246 406.928037 183.371246 
z
" style="fill:#0000ff;opacity:0.2;stroke:#0000ff;stroke-linejoin:miter;"/>
   </g>
   <g id="patch_57">
    <path clip-path="url(#p24b2942fc1)" d="M 369.066254 186.2682 
C 371.972877 186.2682 374.760844 185.848493 376.816137 185.101515 
C 378.87143 184.354537 380.026244 183.341275 380.026244 182.284888 
C 380.026244 181.228501 378.87143 180.215238 376.816137 179.46826 
C 374.760844 178.721282 371.972877 178.301575 369.066254 178.301575 
C 366.15963 178.301575 363.371663 178.721282 361.31637 179.46826 
C 359.261077 180.215238 358.106264 181.228501 358.106264 182.284888 
C 358.106264 183.341275 359.261077 184.354537 361.31637 185.101515 
C 363.371663 185.848493 366.15963 186.2682 369.066254 186.2682 
z
" style="fill:#ff0000;opacity:0.2;stroke:#ff0000;stroke-linejoin:miter;"/>
   </g>
   <g id="patch_58">
    <path d="M 406.928037 179.387933 
Q 388.993143 180.760202 372.997126 181.984121 
" style="fill:none;opacity:0.5;stroke:#ff0000;stroke-linecap:round;stroke-width:2.75;"/>
    <path d="M 374.607191 183.365313 
L 372.997126 181.984121 
L 374.378318 180.374056 
" style="fill:none;opacity:0.5;stroke:#ff0000;stroke-linecap:round;stroke-width:2.75;"/>
   </g>
   <g id="patch_59">
    <path clip-path="url(#p24b2942fc1)" d="M 104.033769 310.113017 
C 107.468869 310.113017 110.763739 309.617 113.192722 308.734207 
C 115.621704 307.851415 116.986484 306.653923 116.986484 305.405466 
C 116.986484 304.157009 115.621704 302.959517 113.192722 302.076724 
C 110.763739 301.193932 107.468869 300.697914 104.033769 300.697914 
C 100.598668 300.697914 97.303799 301.193932 94.874816 302.076724 
C 92.445833 302.959517 91.081053 304.157009 91.081053 305.405466 
C 91.081053 306.653923 92.445833 307.851415 94.874816 308.734207 
C 97.303799 309.617 100.598668 310.113017 104.033769 310.113017 
z
" style="fill:#0000ff;opacity:0.2;stroke:#0000ff;stroke-linejoin:miter;"/>
   </g>
   <g id="patch_60">
    <path clip-path="url(#p24b2942fc1)" d="M 131.931925 296.352482 
C 135.367025 296.352482 138.661895 295.856465 141.090878 294.973672 
C 143.519861 294.09088 144.88464 292.893388 144.88464 291.644931 
C 144.88464 290.396473 143.519861 289.198982 141.090878 288.316189 
C 138.661895 287.433396 135.367025 286.937379 131.931925 286.937379 
C 128.496825 286.937379 125.201955 287.433396 122.772972 288.316189 
C 120.343989 289.198982 118.97921 290.396473 118.97921 291.644931 
C 118.97921 292.893388 120.343989 294.09088 122.772972 294.973672 
C 125.201955 295.856465 128.496825 296.352482 131.931925 296.352482 
z
" style="fill:#ff0000;opacity:0.2;stroke:#ff0000;stroke-linejoin:miter;"/>
   </g>
   <g id="patch_61">
    <path d="M 104.033769 305.405466 
Q 117.085488 298.967813 128.076185 293.546742 
" style="fill:none;opacity:0.5;stroke:#ff0000;stroke-linecap:round;stroke-width:3.25;"/>
    <path d="M 126.06739 292.865022 
L 128.076185 293.546742 
L 127.394465 295.555537 
" style="fill:none;opacity:0.5;stroke:#ff0000;stroke-linecap:round;stroke-width:3.25;"/>
   </g>
   <g id="patch_62">
    <path clip-path="url(#p24b2942fc1)" d="M 60.193809 297.076721 
C 62.043478 297.076721 63.817639 296.809635 65.125553 296.334285 
C 66.433466 295.858935 67.168348 295.214132 67.168348 294.541885 
C 67.168348 293.869639 66.433466 293.224836 65.125553 292.749486 
C 63.817639 292.274136 62.043478 292.00705 60.193809 292.00705 
C 58.344139 292.00705 56.569979 292.274136 55.262065 292.749486 
C 53.954151 293.224836 53.21927 293.869639 53.21927 294.541885 
C 53.21927 295.214132 53.954151 295.858935 55.262065 296.334285 
C 56.569979 296.809635 58.344139 297.076721 60.193809 297.076721 
z
" style="fill:#0000ff;opacity:0.2;stroke:#0000ff;stroke-linejoin:miter;"/>
   </g>
   <g id="patch_63">
    <path clip-path="url(#p24b2942fc1)" d="M 98.055592 284.764663 
C 99.905262 284.764663 101.679423 284.497577 102.987336 284.022227 
C 104.29525 283.546877 105.030131 282.902074 105.030131 282.229828 
C 105.030131 281.557581 104.29525 280.912778 102.987336 280.437428 
C 101.679423 279.962078 99.905262 279.694992 98.055592 279.694992 
C 96.205923 279.694992 94.431762 279.962078 93.123849 280.437428 
C 91.815935 280.912778 91.081053 281.557581 91.081053 282.229828 
C 91.081053 282.902074 91.815935 283.546877 93.123849 284.022227 
C 94.431762 284.497577 96.205923 284.764663 98.055592 284.764663 
z
" style="fill:#ff0000;opacity:0.2;stroke:#ff0000;stroke-linejoin:miter;"/>
   </g>
   <g id="patch_64">
    <path d="M 60.193809 294.541885 
Q 78.174921 288.69471 94.979252 283.230205 
" style="fill:none;opacity:0.5;stroke:#ff0000;stroke-linecap:round;stroke-width:1.75;"/>
    <path d="M 93.088911 282.267598 
L 94.979252 283.230205 
L 94.016645 285.120546 
" style="fill:none;opacity:0.5;stroke:#ff0000;stroke-linecap:round;stroke-width:1.75;"/>
   </g>
   <g id="patch_65">
    <path clip-path="url(#p24b2942fc1)" d="M 211.640943 180.83641 
C 214.811805 180.83641 217.853223 180.378548 220.095361 179.563663 
C 222.337499 178.748777 223.597296 177.6434 223.597296 176.490978 
C 223.597296 175.338556 222.337499 174.233179 220.095361 173.418293 
C 217.853223 172.603408 214.811805 172.145546 211.640943 172.145546 
C 208.470081 172.145546 205.428663 172.603408 203.186525 173.418293 
C 200.944387 174.233179 199.68459 175.338556 199.68459 176.490978 
C 199.68459 177.6434 200.944387 178.748777 203.186525 179.563663 
C 205.428663 180.378548 208.470081 180.83641 211.640943 180.83641 
z
" style="fill:#0000ff;opacity:0.2;stroke:#0000ff;stroke-linejoin:miter;"/>
   </g>
   <g id="patch_66">
    <path clip-path="url(#p24b2942fc1)" d="M 237.546374 183.733365 
C 240.717236 183.733365 243.758654 183.275503 246.000792 182.460617 
C 248.24293 181.645732 249.502727 180.540355 249.502727 179.387933 
C 249.502727 178.235511 248.24293 177.130134 246.000792 176.315248 
C 243.758654 175.500363 240.717236 175.042501 237.546374 175.042501 
C 234.375512 175.042501 231.334094 175.500363 229.091956 176.315248 
C 226.849818 177.130134 225.590021 178.235511 225.590021 179.387933 
C 225.590021 180.540355 226.849818 181.645732 229.091956 182.460617 
C 231.334094 183.275503 234.375512 183.733365 237.546374 183.733365 
z
" style="fill:#ff0000;opacity:0.2;stroke:#ff0000;stroke-linejoin:miter;"/>
   </g>
   <g id="patch_67">
    <path d="M 211.640943 176.490978 
Q 223.59912 177.828238 233.449118 178.929745 
" style="fill:none;opacity:0.5;stroke:#ff0000;stroke-linecap:round;stroke-width:3;"/>
    <path d="M 232.125113 177.272334 
L 233.449118 178.929745 
L 231.791707 180.253749 
" style="fill:none;opacity:0.5;stroke:#ff0000;stroke-linecap:round;stroke-width:3;"/>
   </g>
   <g id="patch_68">
    <path clip-path="url(#p24b2942fc1)" d="M 224.593658 162.368323 
C 227.236043 162.368323 229.770559 161.986772 231.639007 161.3077 
C 233.507455 160.628629 234.557286 159.707482 234.557286 158.74713 
C 234.557286 157.786778 233.507455 156.865631 231.639007 156.18656 
C 229.770559 155.507488 227.236043 155.125937 224.593658 155.125937 
C 221.951274 155.125937 219.416758 155.507488 217.54831 156.18656 
C 215.679862 156.865631 214.630031 157.786778 214.630031 158.74713 
C 214.630031 159.707482 215.679862 160.628629 217.54831 161.3077 
C 219.416758 161.986772 221.951274 162.368323 224.593658 162.368323 
z
" style="fill:#008000;opacity:0.2;stroke:#008000;stroke-linejoin:miter;"/>
   </g>
   <g id="patch_69">
    <path clip-path="url(#p24b2942fc1)" d="M 79.124701 53.732519 
C 81.767085 53.732519 84.301601 53.350967 86.170049 52.671896 
C 88.038497 51.992825 89.088328 51.071677 89.088328 50.111326 
C 89.088328 49.150974 88.038497 48.229826 86.170049 47.550755 
C 84.301601 46.871684 81.767085 46.490132 79.124701 46.490132 
C 76.482316 46.490132 73.9478 46.871684 72.079352 47.550755 
C 70.210904 48.229826 69.161073 49.150974 69.161073 50.111326 
C 69.161073 51.071677 70.210904 51.992825 72.079352 52.671896 
C 73.9478 53.350967 76.482316 53.732519 79.124701 53.732519 
z
" style="fill:#008000;opacity:0.2;stroke:#008000;stroke-linejoin:miter;"/>
   </g>
   <g id="patch_70">
    <path clip-path="url(#p24b2942fc1)" d="M 117.982847 43.593177 
C 120.625232 43.593177 123.159747 43.211626 125.028195 42.532554 
C 126.896644 41.853483 127.946474 40.932336 127.946474 39.971984 
C 127.946474 39.011632 126.896644 38.090485 125.028195 37.411414 
C 123.159747 36.732342 120.625232 36.350791 117.982847 36.350791 
C 115.340462 36.350791 112.805947 36.732342 110.937499 37.411414 
C 109.06905 38.090485 108.01922 39.011632 108.01922 39.971984 
C 108.01922 40.932336 109.06905 41.853483 110.937499 42.532554 
C 112.805947 43.211626 115.340462 43.593177 117.982847 43.593177 
z
" style="fill:#008000;opacity:0.2;stroke:#008000;stroke-linejoin:miter;"/>
   </g>
   <g id="patch_71">
    <path clip-path="url(#p24b2942fc1)" d="M 387.997145 160.195607 
C 390.63953 160.195607 393.174045 159.814056 395.042494 159.134984 
C 396.910942 158.455913 397.960773 157.534766 397.960773 156.574414 
C 397.960773 155.614062 396.910942 154.692915 395.042494 154.013843 
C 393.174045 153.334772 390.63953 152.95322 387.997145 152.95322 
C 385.35476 152.95322 382.820245 153.334772 380.951797 154.013843 
C 379.083349 154.692915 378.033518 155.614062 378.033518 156.574414 
C 378.033518 157.534766 379.083349 158.455913 380.951797 159.134984 
C 382.820245 159.814056 385.35476 160.195607 387.997145 160.195607 
z
" style="fill:#008000;opacity:0.2;stroke:#008000;stroke-linejoin:miter;"/>
   </g>
   <g id="patch_72">
    <path clip-path="url(#p24b2942fc1)" d="M 387.997145 184.457604 
C 390.63953 184.457604 393.174045 184.076052 395.042494 183.396981 
C 396.910942 182.717909 397.960773 181.796762 397.960773 180.83641 
C 397.960773 179.876058 396.910942 178.954911 395.042494 178.27584 
C 393.174045 177.596769 390.63953 177.215217 387.997145 177.215217 
C 385.35476 177.215217 382.820245 177.596769 380.951797 178.27584 
C 379.083349 178.954911 378.033518 179.876058 378.033518 180.83641 
C 378.033518 181.796762 379.083349 182.717909 380.951797 183.396981 
C 382.820245 184.076052 385.35476 184.457604 387.997145 184.457604 
z
" style="fill:#008000;opacity:0.2;stroke:#008000;stroke-linejoin:miter;"/>
   </g>
   <g id="patch_73">
    <path clip-path="url(#p24b2942fc1)" d="M 117.982847 302.146392 
C 120.625232 302.146392 123.159747 301.76484 125.028195 301.085769 
C 126.896644 300.406697 127.946474 299.48555 127.946474 298.525198 
C 127.946474 297.564846 126.896644 296.643699 125.028195 295.964628 
C 123.159747 295.285556 120.625232 294.904005 117.982847 294.904005 
C 115.340462 294.904005 112.805947 295.285556 110.937499 295.964628 
C 109.06905 296.643699 108.01922 297.564846 108.01922 298.525198 
C 108.01922 299.48555 109.06905 300.406697 110.937499 301.085769 
C 112.805947 301.76484 115.340462 302.146392 117.982847 302.146392 
z
" style="fill:#008000;opacity:0.2;stroke:#008000;stroke-linejoin:miter;"/>
   </g>
   <g id="patch_74">
    <path clip-path="url(#p24b2942fc1)" d="M 79.124701 292.00705 
C 81.767085 292.00705 84.301601 291.625498 86.170049 290.946427 
C 88.038497 290.267356 89.088328 289.346208 89.088328 288.385856 
C 89.088328 287.425505 88.038497 286.504357 86.170049 285.825286 
C 84.301601 285.146215 81.767085 284.764663 79.124701 284.764663 
C 76.482316 284.764663 73.9478 285.146215 72.079352 285.825286 
C 70.210904 286.504357 69.161073 287.425505 69.161073 288.385856 
C 69.161073 289.346208 70.210904 290.267356 72.079352 290.946427 
C 73.9478 291.625498 76.482316 292.00705 79.124701 292.00705 
z
" style="fill:#008000;opacity:0.2;stroke:#008000;stroke-linejoin:miter;"/>
   </g>
   <g id="patch_75">
    <path clip-path="url(#p24b2942fc1)" d="M 224.593658 181.560649 
C 227.236043 181.560649 229.770559 181.179097 231.639007 180.500026 
C 233.507455 179.820955 234.557286 178.899807 234.557286 177.939455 
C 234.557286 176.979104 233.507455 176.057956 231.639007 175.378885 
C 229.770559 174.699814 227.236043 174.318262 224.593658 174.318262 
C 221.951274 174.318262 219.416758 174.699814 217.54831 175.378885 
C 215.679862 176.057956 214.630031 176.979104 214.630031 177.939455 
C 214.630031 178.899807 215.679862 179.820955 217.54831 180.500026 
C 219.416758 181.179097 221.951274 181.560649 224.593658 181.560649 
z
" style="fill:#008000;opacity:0.2;stroke:#008000;stroke-linejoin:miter;"/>
   </g>
   <g id="patch_76">
    <path d="M 224.593658 158.74713 
Q 151.85918 104.429228 79.124701 50.111326 
" style="fill:none;opacity:0.5;stroke:#008000;stroke-linecap:round;stroke-width:2;"/>
   </g>
   <g id="patch_77">
    <path d="M 236.174907 161.661125 
Q 225.562899 158.991004 214.95089 156.320882 
" style="fill:none;opacity:0.5;stroke:#800080;stroke-linecap:round;stroke-width:2;"/>
    <path d="M 235.086259 159.840454 
L 236.174907 161.661125 
L 234.354236 162.749773 
" style="fill:none;opacity:0.5;stroke:#800080;stroke-linecap:round;stroke-width:2;"/>
    <path d="M 216.039538 158.141554 
L 214.95089 156.320882 
L 216.771561 155.232234 
" style="fill:none;opacity:0.5;stroke:#800080;stroke-linecap:round;stroke-width:2;"/>
   </g>
   <g id="patch_78">
    <path d="M 79.124701 50.111326 
Q 98.553774 45.041655 117.982847 39.971984 
" style="fill:none;opacity:0.5;stroke:#008000;stroke-linecap:round;stroke-width:2;"/>
   </g>
   <g id="patch_79">
    <path d="M 96.818912 59.926768 
Q 79.999376 50.596531 63.17984 41.266294 
" style="fill:none;opacity:0.5;stroke:#800080;stroke-linecap:round;stroke-width:2;"/>
    <path d="M 96.234848 57.887437 
L 96.818912 59.926768 
L 94.779582 60.510832 
" style="fill:none;opacity:0.5;stroke:#800080;stroke-linecap:round;stroke-width:2;"/>
    <path d="M 63.763905 43.305625 
L 63.17984 41.266294 
L 65.219171 40.68223 
" style="fill:none;opacity:0.5;stroke:#800080;stroke-linecap:round;stroke-width:2;"/>
   </g>
   <g id="patch_80">
    <path d="M 117.982847 39.971984 
Q 252.989996 98.273199 387.997145 156.574414 
" style="fill:none;opacity:0.5;stroke:#008000;stroke-linecap:round;stroke-width:2;"/>
   </g>
   <g id="patch_81">
    <path d="M 130.830174 50.311036 
Q 118.761012 40.598222 106.69185 30.885409 
" style="fill:none;opacity:0.5;stroke:#800080;stroke-linecap:round;stroke-width:2;"/>
    <path d="M 130.602023 48.20202 
L 130.830174 50.311036 
L 128.721158 50.539186 
" style="fill:none;opacity:0.5;stroke:#800080;stroke-linecap:round;stroke-width:2;"/>
    <path d="M 106.920001 32.994425 
L 106.69185 30.885409 
L 108.800866 30.657258 
" style="fill:none;opacity:0.5;stroke:#800080;stroke-linecap:round;stroke-width:2;"/>
   </g>
   <g id="patch_82">
    <path d="M 387.997145 156.574414 
Q 387.997145 168.705412 387.997145 180.83641 
" style="fill:none;opacity:0.5;stroke:#008000;stroke-linecap:round;stroke-width:2;"/>
   </g>
   <g id="patch_83">
    <path d="M 370.459965 159.593552 
Q 387.010391 156.74429 403.560818 153.895028 
" style="fill:none;opacity:0.5;stroke:#800080;stroke-linecap:round;stroke-width:2;"/>
    <path d="M 372.192709 160.817315 
L 370.459965 159.593552 
L 371.683728 157.860807 
" style="fill:none;opacity:0.5;stroke:#800080;stroke-linecap:round;stroke-width:2;"/>
    <path d="M 401.828073 152.671265 
L 403.560818 153.895028 
L 402.337055 155.627773 
" style="fill:none;opacity:0.5;stroke:#800080;stroke-linecap:round;stroke-width:2;"/>
   </g>
   <g id="patch_84">
    <path d="M 387.997145 180.83641 
Q 252.989996 239.680804 117.982847 298.525198 
" style="fill:none;opacity:0.5;stroke:#008000;stroke-linecap:round;stroke-width:2;"/>
   </g>
   <g id="patch_85">
    <path d="M 370.476346 182.176996 
Q 387.001147 180.912618 403.525949 179.64824 
" style="fill:none;opacity:0.5;stroke:#800080;stroke-linecap:round;stroke-width:2;"/>
    <path d="M 372.08641 183.558188 
L 370.476346 182.176996 
L 371.857537 180.566931 
" style="fill:none;opacity:0.5;stroke:#800080;stroke-linecap:round;stroke-width:2;"/>
    <path d="M 401.915885 178.267048 
L 403.525949 179.64824 
L 402.144757 181.258305 
" style="fill:none;opacity:0.5;stroke:#800080;stroke-linecap:round;stroke-width:2;"/>
   </g>
   <g id="patch_86">
    <path d="M 117.982847 298.525198 
Q 98.553774 293.455527 79.124701 288.385856 
" style="fill:none;opacity:0.5;stroke:#008000;stroke-linecap:round;stroke-width:2;"/>
   </g>
   <g id="patch_87">
    <path d="M 130.663604 292.27052 
Q 118.880206 298.082583 107.096808 303.894647 
" style="fill:none;opacity:0.5;stroke:#800080;stroke-linecap:round;stroke-width:2;"/>
    <path d="M 128.654809 291.588799 
L 130.663604 292.27052 
L 129.981883 294.279314 
" style="fill:none;opacity:0.5;stroke:#800080;stroke-linecap:round;stroke-width:2;"/>
    <path d="M 109.105603 304.576368 
L 107.096808 303.894647 
L 107.778528 301.885852 
" style="fill:none;opacity:0.5;stroke:#800080;stroke-linecap:round;stroke-width:2;"/>
   </g>
   <g id="patch_88">
    <path d="M 79.124701 288.385856 
Q 151.85918 233.162656 224.593658 177.939455 
" style="fill:none;opacity:0.5;stroke:#008000;stroke-linecap:round;stroke-width:2;"/>
   </g>
   <g id="patch_89">
    <path d="M 96.7107 282.667165 
Q 80.07448 288.077003 63.438261 293.48684 
" style="fill:none;opacity:0.5;stroke:#800080;stroke-linecap:round;stroke-width:2;"/>
    <path d="M 94.820359 281.704559 
L 96.7107 282.667165 
L 95.748093 284.557506 
" style="fill:none;opacity:0.5;stroke:#800080;stroke-linecap:round;stroke-width:2;"/>
    <path d="M 65.328602 294.449447 
L 63.438261 293.48684 
L 64.400868 291.5965 
" style="fill:none;opacity:0.5;stroke:#800080;stroke-linecap:round;stroke-width:2;"/>
   </g>
   <g id="patch_90">
    <path d="M 224.593658 177.939455 
Q 224.593658 168.343293 224.593658 158.74713 
" style="fill:none;opacity:0.5;stroke:#008000;stroke-linecap:round;stroke-width:2;"/>
   </g>
   <g id="patch_91">
    <path d="M 236.140921 179.230764 
Q 225.588197 178.050673 215.035473 176.870582 
" style="fill:none;opacity:0.5;stroke:#800080;stroke-linecap:round;stroke-width:2;"/>
    <path d="M 234.816916 177.573353 
L 236.140921 179.230764 
L 234.48351 180.554769 
" style="fill:none;opacity:0.5;stroke:#800080;stroke-linecap:round;stroke-width:2;"/>
    <path d="M 216.359478 178.527993 
L 215.035473 176.870582 
L 216.692884 175.546577 
" style="fill:none;opacity:0.5;stroke:#800080;stroke-linecap:round;stroke-width:2;"/>
   </g>
   <g id="line2d_1">
    <path clip-path="url(#p24b2942fc1)" d="M 237.546374 162.006204 
L 98.055592 60.612787 
L 131.931925 51.197684 
L 369.066254 159.833488 
L 369.066254 182.284888 
L 131.931925 291.644931 
L 98.055592 282.229828 
L 237.546374 179.387933 
" style="fill:none;stroke:#ff0000;stroke-linecap:square;stroke-width:0.2;"/>
   </g>
   <g id="line2d_2">
    <path clip-path="url(#p24b2942fc1)" d="M 211.640943 155.488056 
L 60.193809 39.609865 
L 104.033769 28.746284 
L 406.928037 153.31534 
L 406.928037 179.387933 
L 104.033769 305.405466 
L 60.193809 294.541885 
L 211.640943 176.490978 
" style="fill:none;stroke:#0000ff;stroke-linecap:square;stroke-width:0.2;"/>
   </g>
  </g>
 </g>
 <defs>
  <clipPath id="p24b2942fc1">
   <rect height="307.51175" width="409.903625" x="37.576375" y="13.32"/>
  </clipPath>
 </defs>
</svg>
