<?xml version="1.0" encoding="utf-8" standalone="no"?>
<!DOCTYPE svg PUBLIC "-//W3C//DTD SVG 1.1//EN"
  "http://www.w3.org/Graphics/SVG/1.1/DTD/svg11.dtd">
<!-- Created with matplotlib (http://matplotlib.org/) -->
<svg height="345.6pt" version="1.1" viewBox="0 0 460.8 345.6" width="460.8pt" xmlns="http://www.w3.org/2000/svg" xmlns:xlink="http://www.w3.org/1999/xlink">
 <defs>
  <style type="text/css">
*{stroke-linecap:butt;stroke-linejoin:round;}
  </style>
 </defs>
 <g id="figure_1">
  <g id="patch_1">
   <path d="M 0 345.6 
L 460.8 345.6 
L 460.8 0 
L 0 0 
z
" style="fill:#ffffff;"/>
  </g>
  <g id="axes_1">
   <g id="patch_2">
    <path clip-path="url(#pa2998e4cbb)" d="M 321.090395 29.854723 
C 364.618104 29.854723 402.837557 67.356156 402.837557 111.676031 
C 402.837557 170.485096 345.508378 211.39575 278.624337 227.589551 
C 270.131125 224.18033 265.884519 215.657277 271.192777 209.69114 
C 310.47388 195.20195 351.878287 171.337401 351.878287 136.392884 
C 351.878287 104.005283 318.967092 89.516093 298.795714 88.663788 
C 283.932594 87.811483 270.131125 80.99304 270.131125 64.79924 
C 270.131125 52.01466 279.685988 29.854723 321.090395 29.854723 
" style="fill:none;stroke:#ff0000;stroke-linejoin:miter;stroke-width:0.5;"/>
   </g>
   <g id="patch_3">
    <path clip-path="url(#pa2998e4cbb)" d="M 320.559569 55.423882 
C 364.087279 55.423882 425.663063 85.254567 425.663063 159.405127 
C 425.663063 238.66952 346.039204 288.103227 257.922134 304.297027 
C 239.874059 302.592417 235.627453 283.8417 247.305619 277.875563 
C 285.525071 266.795594 337.545992 238.66952 337.545992 198.611171 
C 337.545992 162.814349 304.634797 150.882074 279.155163 145.768243 
C 261.107088 141.506716 247.305619 127.869831 247.305619 108.26681 
C 247.305619 79.28843 280.216814 55.423882 320.559569 55.423882 
" style="fill:none;stroke:#0000ff;stroke-linejoin:miter;stroke-width:0.5;"/>
   </g>
   <g id="patch_4">
    <path clip-path="url(#pa2998e4cbb)" d="M 321.090395 32.411639 
C 321.935055 32.411639 322.745233 32.142226 323.342498 31.662735 
C 323.939762 31.183245 324.275349 30.532825 324.275349 29.854723 
C 324.275349 29.176621 323.939762 28.526201 323.342498 28.04671 
C 322.745233 27.56722 321.935055 27.297807 321.090395 27.297807 
C 320.245735 27.297807 319.435557 27.56722 318.838292 28.04671 
C 318.241027 28.526201 317.90544 29.176621 317.90544 29.854723 
C 317.90544 30.532825 318.241027 31.183245 318.838292 31.662735 
C 319.435557 32.142226 320.245735 32.411639 321.090395 32.411639 
z
" style="fill:#0000ff;opacity:0.5;stroke:#0000ff;stroke-linejoin:miter;"/>
   </g>
   <g id="patch_5">
    <path clip-path="url(#pa2998e4cbb)" d="M 320.559569 57.980797 
C 321.404229 57.980797 322.214407 57.711385 322.811672 57.231894 
C 323.408937 56.752404 323.744523 56.101984 323.744523 55.423882 
C 323.744523 54.745779 323.408937 54.095359 322.811672 53.615869 
C 322.214407 53.136378 321.404229 52.866966 320.559569 52.866966 
C 319.714909 52.866966 318.904731 53.136378 318.307466 53.615869 
C 317.710202 54.095359 317.374615 54.745779 317.374615 55.423882 
C 317.374615 56.101984 317.710202 56.752404 318.307466 57.231894 
C 318.904731 57.711385 319.714909 57.980797 320.559569 57.980797 
z
" style="fill:#ff0000;opacity:0.5;stroke:#ff0000;stroke-linejoin:miter;"/>
   </g>
   <g id="patch_6">
    <path d="M 321.090395 29.854723 
Q 320.84575 41.638946 320.62312 52.362738 
" style="fill:none;opacity:0.5;stroke:#0000ff;stroke-linecap:round;stroke-width:1.5;"/>
    <path d="M 322.15393 50.894195 
L 320.62312 52.362738 
L 319.154577 50.831927 
" style="fill:none;opacity:0.5;stroke:#0000ff;stroke-linecap:round;stroke-width:1.5;"/>
   </g>
   <g id="patch_7">
    <path clip-path="url(#pa2998e4cbb)" d="M 402.837557 114.232947 
C 403.682216 114.232947 404.492395 113.963534 405.089659 113.484043 
C 405.686924 113.004553 406.022511 112.354133 406.022511 111.676031 
C 406.022511 110.997929 405.686924 110.347509 405.089659 109.868018 
C 404.492395 109.388528 403.682216 109.119115 402.837557 109.119115 
C 401.992897 109.119115 401.182718 109.388528 400.585454 109.868018 
C 399.988189 110.347509 399.652602 110.997929 399.652602 111.676031 
C 399.652602 112.354133 399.988189 113.004553 400.585454 113.484043 
C 401.182718 113.963534 401.992897 114.232947 402.837557 114.232947 
z
" style="fill:#0000ff;opacity:0.5;stroke:#0000ff;stroke-linejoin:miter;"/>
   </g>
   <g id="patch_8">
    <path clip-path="url(#pa2998e4cbb)" d="M 425.663063 161.962043 
C 426.507722 161.962043 427.317901 161.69263 427.915166 161.21314 
C 428.51243 160.733649 428.848017 160.083229 428.848017 159.405127 
C 428.848017 158.727025 428.51243 158.076605 427.915166 157.597115 
C 427.317901 157.117624 426.507722 156.848211 425.663063 156.848211 
C 424.818403 156.848211 424.008225 157.117624 423.41096 157.597115 
C 422.813695 158.076605 422.478108 158.727025 422.478108 159.405127 
C 422.478108 160.083229 422.813695 160.733649 423.41096 161.21314 
C 424.008225 161.69263 424.818403 161.962043 425.663063 161.962043 
z
" style="fill:#ff0000;opacity:0.5;stroke:#ff0000;stroke-linejoin:miter;"/>
   </g>
   <g id="patch_9">
    <path d="M 402.837557 111.676031 
Q 413.819127 134.638958 424.343094 156.645017 
" style="fill:none;opacity:0.5;stroke:#0000ff;stroke-linecap:round;stroke-width:1.5;"/>
    <path d="M 425.049161 154.644649 
L 424.343094 156.645017 
L 422.342727 155.938949 
" style="fill:none;opacity:0.5;stroke:#0000ff;stroke-linecap:round;stroke-width:1.5;"/>
   </g>
   <g id="patch_10">
    <path clip-path="url(#pa2998e4cbb)" d="M 278.624337 230.146467 
C 279.468997 230.146467 280.279175 229.877054 280.87644 229.397563 
C 281.473704 228.918073 281.809291 228.267653 281.809291 227.589551 
C 281.809291 226.911449 281.473704 226.261029 280.87644 225.781538 
C 280.279175 225.302048 279.468997 225.032635 278.624337 225.032635 
C 277.779677 225.032635 276.969499 225.302048 276.372234 225.781538 
C 275.774969 226.261029 275.439382 226.911449 275.439382 227.589551 
C 275.439382 228.267653 275.774969 228.918073 276.372234 229.397563 
C 276.969499 229.877054 277.779677 230.146467 278.624337 230.146467 
z
" style="fill:#0000ff;opacity:0.5;stroke:#0000ff;stroke-linejoin:miter;"/>
   </g>
   <g id="patch_11">
    <path clip-path="url(#pa2998e4cbb)" d="M 257.922134 306.853943 
C 258.766793 306.853943 259.576972 306.58453 260.174236 306.10504 
C 260.771501 305.625549 261.107088 304.975129 261.107088 304.297027 
C 261.107088 303.618925 260.771501 302.968505 260.174236 302.489015 
C 259.576972 302.009524 258.766793 301.740111 257.922134 301.740111 
C 257.077474 301.740111 256.267295 302.009524 255.670031 302.489015 
C 255.072766 302.968505 254.737179 303.618925 254.737179 304.297027 
C 254.737179 304.975129 255.072766 305.625549 255.670031 306.10504 
C 256.267295 306.58453 257.077474 306.853943 257.922134 306.853943 
z
" style="fill:#ff0000;opacity:0.5;stroke:#ff0000;stroke-linejoin:miter;"/>
   </g>
   <g id="patch_12">
    <path d="M 278.624337 227.589551 
Q 268.534161 264.976486 258.720353 301.3394 
" style="fill:none;opacity:0.5;stroke:#0000ff;stroke-linecap:round;stroke-width:1.5;"/>
    <path d="M 260.559382 300.282058 
L 258.720353 301.3394 
L 257.663011 299.500371 
" style="fill:none;opacity:0.5;stroke:#0000ff;stroke-linecap:round;stroke-width:1.5;"/>
   </g>
   <g id="patch_13">
    <path clip-path="url(#pa2998e4cbb)" d="M 271.192777 212.248056 
C 272.037436 212.248056 272.847615 211.978643 273.444879 211.499152 
C 274.042144 211.019662 274.377731 210.369242 274.377731 209.69114 
C 274.377731 209.013038 274.042144 208.362618 273.444879 207.883127 
C 272.847615 207.403637 272.037436 207.134224 271.192777 207.134224 
C 270.348117 207.134224 269.537938 207.403637 268.940674 207.883127 
C 268.343409 208.362618 268.007822 209.013038 268.007822 209.69114 
C 268.007822 210.369242 268.343409 211.019662 268.940674 211.499152 
C 269.537938 211.978643 270.348117 212.248056 271.192777 212.248056 
z
" style="fill:#0000ff;opacity:0.5;stroke:#0000ff;stroke-linejoin:miter;"/>
   </g>
   <g id="patch_14">
    <path clip-path="url(#pa2998e4cbb)" d="M 247.305619 280.432479 
C 248.150279 280.432479 248.960457 280.163066 249.557722 279.683576 
C 250.154986 279.204085 250.490573 278.553665 250.490573 277.875563 
C 250.490573 277.197461 250.154986 276.547041 249.557722 276.067551 
C 248.960457 275.58806 248.150279 275.318647 247.305619 275.318647 
C 246.460959 275.318647 245.650781 275.58806 245.053516 276.067551 
C 244.456252 276.547041 244.120665 277.197461 244.120665 277.875563 
C 244.120665 278.553665 244.456252 279.204085 245.053516 279.683576 
C 245.650781 280.163066 246.460959 280.432479 247.305619 280.432479 
z
" style="fill:#ff0000;opacity:0.5;stroke:#ff0000;stroke-linejoin:miter;"/>
   </g>
   <g id="patch_15">
    <path d="M 271.192777 209.69114 
Q 259.579425 242.840738 248.316759 274.989328 
" style="fill:none;opacity:0.5;stroke:#0000ff;stroke-linecap:round;stroke-width:1.5;"/>
    <path d="M 250.228343 274.06963 
L 248.316759 274.989328 
L 247.397061 273.077743 
" style="fill:none;opacity:0.5;stroke:#0000ff;stroke-linecap:round;stroke-width:1.5;"/>
   </g>
   <g id="patch_16">
    <path clip-path="url(#pa2998e4cbb)" d="M 351.878287 137.671342 
C 352.300617 137.671342 352.705706 137.536636 353.004338 137.296891 
C 353.302971 137.057145 353.470764 136.731935 353.470764 136.392884 
C 353.470764 136.053833 353.302971 135.728623 353.004338 135.488878 
C 352.705706 135.249133 352.300617 135.114426 351.878287 135.114426 
C 351.455957 135.114426 351.050868 135.249133 350.752235 135.488878 
C 350.453603 135.728623 350.28581 136.053833 350.28581 136.392884 
C 350.28581 136.731935 350.453603 137.057145 350.752235 137.296891 
C 351.050868 137.536636 351.455957 137.671342 351.878287 137.671342 
z
" style="fill:#0000ff;opacity:0.5;stroke:#0000ff;stroke-linejoin:miter;"/>
   </g>
   <g id="patch_17">
    <path clip-path="url(#pa2998e4cbb)" d="M 337.545992 199.889629 
C 337.968322 199.889629 338.373411 199.754922 338.672044 199.515177 
C 338.970676 199.275432 339.138469 198.950222 339.138469 198.611171 
C 339.138469 198.27212 338.970676 197.94691 338.672044 197.707165 
C 338.373411 197.467419 337.968322 197.332713 337.545992 197.332713 
C 337.123662 197.332713 336.718573 197.467419 336.419941 197.707165 
C 336.121309 197.94691 335.953515 198.27212 335.953515 198.611171 
C 335.953515 198.950222 336.121309 199.275432 336.419941 199.515177 
C 336.718573 199.754922 337.123662 199.889629 337.545992 199.889629 
z
" style="fill:#ff0000;opacity:0.5;stroke:#ff0000;stroke-linejoin:miter;"/>
   </g>
   <g id="patch_18">
    <path d="M 351.878287 136.392884 
Q 344.936519 166.527968 338.113798 196.146256 
" style="fill:none;opacity:0.5;stroke:#0000ff;stroke-linecap:round;stroke-width:0.75;"/>
    <path d="M 339.912232 195.021251 
L 338.113798 196.146256 
L 336.988793 194.347822 
" style="fill:none;opacity:0.5;stroke:#0000ff;stroke-linecap:round;stroke-width:0.75;"/>
   </g>
   <g id="patch_19">
    <path clip-path="url(#pa2998e4cbb)" d="M 298.795714 90.368399 
C 299.358821 90.368399 299.89894 90.18879 300.297116 89.86913 
C 300.695293 89.549469 300.919017 89.115856 300.919017 88.663788 
C 300.919017 88.21172 300.695293 87.778107 300.297116 87.458446 
C 299.89894 87.138786 299.358821 86.959177 298.795714 86.959177 
C 298.232608 86.959177 297.692489 87.138786 297.294312 87.458446 
C 296.896136 87.778107 296.672411 88.21172 296.672411 88.663788 
C 296.672411 89.115856 296.896136 89.549469 297.294312 89.86913 
C 297.692489 90.18879 298.232608 90.368399 298.795714 90.368399 
z
" style="fill:#0000ff;opacity:0.5;stroke:#0000ff;stroke-linejoin:miter;"/>
   </g>
   <g id="patch_20">
    <path clip-path="url(#pa2998e4cbb)" d="M 279.155163 147.472853 
C 279.718269 147.472853 280.258388 147.293245 280.656564 146.973584 
C 281.054741 146.653924 281.278465 146.220311 281.278465 145.768243 
C 281.278465 145.316175 281.054741 144.882561 280.656564 144.562901 
C 280.258388 144.243241 279.718269 144.063632 279.155163 144.063632 
C 278.592056 144.063632 278.051937 144.243241 277.653761 144.562901 
C 277.255584 144.882561 277.03186 145.316175 277.03186 145.768243 
C 277.03186 146.220311 277.255584 146.653924 277.653761 146.973584 
C 278.051937 147.293245 278.592056 147.472853 279.155163 147.472853 
z
" style="fill:#ff0000;opacity:0.5;stroke:#ff0000;stroke-linejoin:miter;"/>
   </g>
   <g id="patch_21">
    <path d="M 298.795714 88.663788 
Q 289.300903 116.269735 280.036072 143.20702 
" style="fill:none;opacity:0.5;stroke:#0000ff;stroke-linecap:round;"/>
    <path d="M 281.94238 142.276435 
L 280.036072 143.20702 
L 279.105487 141.300711 
" style="fill:none;opacity:0.5;stroke:#0000ff;stroke-linecap:round;"/>
   </g>
   <g id="patch_22">
    <path clip-path="url(#pa2998e4cbb)" d="M 270.131125 67.356156 
C 270.975785 67.356156 271.785963 67.086743 272.383228 66.607252 
C 272.980493 66.127762 273.31608 65.477342 273.31608 64.79924 
C 273.31608 64.121138 272.980493 63.470718 272.383228 62.991227 
C 271.785963 62.511737 270.975785 62.242324 270.131125 62.242324 
C 269.286465 62.242324 268.476287 62.511737 267.879022 62.991227 
C 267.281758 63.470718 266.946171 64.121138 266.946171 64.79924 
C 266.946171 65.477342 267.281758 66.127762 267.879022 66.607252 
C 268.476287 67.086743 269.286465 67.356156 270.131125 67.356156 
z
" style="fill:#0000ff;opacity:0.5;stroke:#0000ff;stroke-linejoin:miter;"/>
   </g>
   <g id="patch_23">
    <path clip-path="url(#pa2998e4cbb)" d="M 247.305619 110.823726 
C 248.150279 110.823726 248.960457 110.554313 249.557722 110.074822 
C 250.154986 109.595332 250.490573 108.944912 250.490573 108.26681 
C 250.490573 107.588708 250.154986 106.938288 249.557722 106.458797 
C 248.960457 105.979307 248.150279 105.709894 247.305619 105.709894 
C 246.460959 105.709894 245.650781 105.979307 245.053516 106.458797 
C 244.456252 106.938288 244.120665 107.588708 244.120665 108.26681 
C 244.120665 108.944912 244.456252 109.595332 245.053516 110.074822 
C 245.650781 110.554313 246.460959 110.823726 247.305619 110.823726 
z
" style="fill:#ff0000;opacity:0.5;stroke:#ff0000;stroke-linejoin:miter;"/>
   </g>
   <g id="patch_24">
    <path d="M 270.131125 64.79924 
Q 259.18299 85.648233 248.727972 105.558164 
" style="fill:none;opacity:0.5;stroke:#0000ff;stroke-linecap:round;stroke-width:1.5;"/>
    <path d="M 250.753377 104.927502 
L 248.727972 105.558164 
L 248.097309 103.532759 
" style="fill:none;opacity:0.5;stroke:#0000ff;stroke-linecap:round;stroke-width:1.5;"/>
   </g>
   <g id="patch_25">
    <path clip-path="url(#pa2998e4cbb)" d="M 320.559569 57.980797 
C 321.404229 57.980797 322.214407 57.711385 322.811672 57.231894 
C 323.408937 56.752404 323.744523 56.101984 323.744523 55.423882 
C 323.744523 54.745779 323.408937 54.095359 322.811672 53.615869 
C 322.214407 53.136378 321.404229 52.866966 320.559569 52.866966 
C 319.714909 52.866966 318.904731 53.136378 318.307466 53.615869 
C 317.710202 54.095359 317.374615 54.745779 317.374615 55.423882 
C 317.374615 56.101984 317.710202 56.752404 318.307466 57.231894 
C 318.904731 57.711385 319.714909 57.980797 320.559569 57.980797 
z
" style="fill:#0000ff;opacity:0.5;stroke:#0000ff;stroke-linejoin:miter;"/>
   </g>
   <g id="patch_26">
    <path clip-path="url(#pa2998e4cbb)" d="M 321.090395 32.411639 
C 321.935055 32.411639 322.745233 32.142226 323.342498 31.662735 
C 323.939762 31.183245 324.275349 30.532825 324.275349 29.854723 
C 324.275349 29.176621 323.939762 28.526201 323.342498 28.04671 
C 322.745233 27.56722 321.935055 27.297807 321.090395 27.297807 
C 320.245735 27.297807 319.435557 27.56722 318.838292 28.04671 
C 318.241027 28.526201 317.90544 29.176621 317.90544 29.854723 
C 317.90544 30.532825 318.241027 31.183245 318.838292 31.662735 
C 319.435557 32.142226 320.245735 32.411639 321.090395 32.411639 
z
" style="fill:#ff0000;opacity:0.5;stroke:#ff0000;stroke-linejoin:miter;"/>
   </g>
   <g id="patch_27">
    <path d="M 320.559569 55.423882 
Q 320.804214 43.639658 321.026844 32.915866 
" style="fill:none;opacity:0.5;stroke:#ff0000;stroke-linecap:round;stroke-width:1.5;"/>
    <path d="M 319.496034 34.384409 
L 321.026844 32.915866 
L 322.495387 34.446677 
" style="fill:none;opacity:0.5;stroke:#ff0000;stroke-linecap:round;stroke-width:1.5;"/>
   </g>
   <g id="patch_28">
    <path clip-path="url(#pa2998e4cbb)" d="M 425.663063 161.962043 
C 426.507722 161.962043 427.317901 161.69263 427.915166 161.21314 
C 428.51243 160.733649 428.848017 160.083229 428.848017 159.405127 
C 428.848017 158.727025 428.51243 158.076605 427.915166 157.597115 
C 427.317901 157.117624 426.507722 156.848211 425.663063 156.848211 
C 424.818403 156.848211 424.008225 157.117624 423.41096 157.597115 
C 422.813695 158.076605 422.478108 158.727025 422.478108 159.405127 
C 422.478108 160.083229 422.813695 160.733649 423.41096 161.21314 
C 424.008225 161.69263 424.818403 161.962043 425.663063 161.962043 
z
" style="fill:#0000ff;opacity:0.5;stroke:#0000ff;stroke-linejoin:miter;"/>
   </g>
   <g id="patch_29">
    <path clip-path="url(#pa2998e4cbb)" d="M 402.837557 114.232947 
C 403.682216 114.232947 404.492395 113.963534 405.089659 113.484043 
C 405.686924 113.004553 406.022511 112.354133 406.022511 111.676031 
C 406.022511 110.997929 405.686924 110.347509 405.089659 109.868018 
C 404.492395 109.388528 403.682216 109.119115 402.837557 109.119115 
C 401.992897 109.119115 401.182718 109.388528 400.585454 109.868018 
C 399.988189 110.347509 399.652602 110.997929 399.652602 111.676031 
C 399.652602 112.354133 399.988189 113.004553 400.585454 113.484043 
C 401.182718 113.963534 401.992897 114.232947 402.837557 114.232947 
z
" style="fill:#ff0000;opacity:0.5;stroke:#ff0000;stroke-linejoin:miter;"/>
   </g>
   <g id="patch_30">
    <path d="M 425.663063 159.405127 
Q 414.681492 136.4422 404.157525 114.436142 
" style="fill:none;opacity:0.5;stroke:#ff0000;stroke-linecap:round;stroke-width:1.5;"/>
    <path d="M 403.451458 116.436509 
L 404.157525 114.436142 
L 406.157893 115.142209 
" style="fill:none;opacity:0.5;stroke:#ff0000;stroke-linecap:round;stroke-width:1.5;"/>
   </g>
   <g id="patch_31">
    <path clip-path="url(#pa2998e4cbb)" d="M 257.922134 306.853943 
C 258.766793 306.853943 259.576972 306.58453 260.174236 306.10504 
C 260.771501 305.625549 261.107088 304.975129 261.107088 304.297027 
C 261.107088 303.618925 260.771501 302.968505 260.174236 302.489015 
C 259.576972 302.009524 258.766793 301.740111 257.922134 301.740111 
C 257.077474 301.740111 256.267295 302.009524 255.670031 302.489015 
C 255.072766 302.968505 254.737179 303.618925 254.737179 304.297027 
C 254.737179 304.975129 255.072766 305.625549 255.670031 306.10504 
C 256.267295 306.58453 257.077474 306.853943 257.922134 306.853943 
z
" style="fill:#0000ff;opacity:0.5;stroke:#0000ff;stroke-linejoin:miter;"/>
   </g>
   <g id="patch_32">
    <path clip-path="url(#pa2998e4cbb)" d="M 278.624337 230.146467 
C 279.468997 230.146467 280.279175 229.877054 280.87644 229.397563 
C 281.473704 228.918073 281.809291 228.267653 281.809291 227.589551 
C 281.809291 226.911449 281.473704 226.261029 280.87644 225.781538 
C 280.279175 225.302048 279.468997 225.032635 278.624337 225.032635 
C 277.779677 225.032635 276.969499 225.302048 276.372234 225.781538 
C 275.774969 226.261029 275.439382 226.911449 275.439382 227.589551 
C 275.439382 228.267653 275.774969 228.918073 276.372234 229.397563 
C 276.969499 229.877054 277.779677 230.146467 278.624337 230.146467 
z
" style="fill:#ff0000;opacity:0.5;stroke:#ff0000;stroke-linejoin:miter;"/>
   </g>
   <g id="patch_33">
    <path d="M 257.922134 304.297027 
Q 268.01231 266.910092 277.826117 230.547178 
" style="fill:none;opacity:0.5;stroke:#ff0000;stroke-linecap:round;stroke-width:1.5;"/>
    <path d="M 275.987088 231.60452 
L 277.826117 230.547178 
L 278.883459 232.386207 
" style="fill:none;opacity:0.5;stroke:#ff0000;stroke-linecap:round;stroke-width:1.5;"/>
   </g>
   <g id="patch_34">
    <path clip-path="url(#pa2998e4cbb)" d="M 247.305619 280.432479 
C 248.150279 280.432479 248.960457 280.163066 249.557722 279.683576 
C 250.154986 279.204085 250.490573 278.553665 250.490573 277.875563 
C 250.490573 277.197461 250.154986 276.547041 249.557722 276.067551 
C 248.960457 275.58806 248.150279 275.318647 247.305619 275.318647 
C 246.460959 275.318647 245.650781 275.58806 245.053516 276.067551 
C 244.456252 276.547041 244.120665 277.197461 244.120665 277.875563 
C 244.120665 278.553665 244.456252 279.204085 245.053516 279.683576 
C 245.650781 280.163066 246.460959 280.432479 247.305619 280.432479 
z
" style="fill:#0000ff;opacity:0.5;stroke:#0000ff;stroke-linejoin:miter;"/>
   </g>
   <g id="patch_35">
    <path clip-path="url(#pa2998e4cbb)" d="M 271.192777 212.248056 
C 272.037436 212.248056 272.847615 211.978643 273.444879 211.499152 
C 274.042144 211.019662 274.377731 210.369242 274.377731 209.69114 
C 274.377731 209.013038 274.042144 208.362618 273.444879 207.883127 
C 272.847615 207.403637 272.037436 207.134224 271.192777 207.134224 
C 270.348117 207.134224 269.537938 207.403637 268.940674 207.883127 
C 268.343409 208.362618 268.007822 209.013038 268.007822 209.69114 
C 268.007822 210.369242 268.343409 211.019662 268.940674 211.499152 
C 269.537938 211.978643 270.348117 212.248056 271.192777 212.248056 
z
" style="fill:#ff0000;opacity:0.5;stroke:#ff0000;stroke-linejoin:miter;"/>
   </g>
   <g id="patch_36">
    <path d="M 247.305619 277.875563 
Q 258.918971 244.725964 270.181637 212.577375 
" style="fill:none;opacity:0.5;stroke:#ff0000;stroke-linecap:round;stroke-width:1.5;"/>
    <path d="M 268.270052 213.497072 
L 270.181637 212.577375 
L 271.101334 214.48896 
" style="fill:none;opacity:0.5;stroke:#ff0000;stroke-linecap:round;stroke-width:1.5;"/>
   </g>
   <g id="patch_37">
    <path clip-path="url(#pa2998e4cbb)" d="M 337.545992 201.168087 
C 338.390652 201.168087 339.20083 200.898674 339.798095 200.419183 
C 340.39536 199.939693 340.730947 199.289273 340.730947 198.611171 
C 340.730947 197.933069 340.39536 197.282649 339.798095 196.803158 
C 339.20083 196.323668 338.390652 196.054255 337.545992 196.054255 
C 336.701333 196.054255 335.891154 196.323668 335.293889 196.803158 
C 334.696625 197.282649 334.361038 197.933069 334.361038 198.611171 
C 334.361038 199.289273 334.696625 199.939693 335.293889 200.419183 
C 335.891154 200.898674 336.701333 201.168087 337.545992 201.168087 
z
" style="fill:#0000ff;opacity:0.5;stroke:#0000ff;stroke-linejoin:miter;"/>
   </g>
   <g id="patch_38">
    <path clip-path="url(#pa2998e4cbb)" d="M 351.878287 138.9498 
C 352.722947 138.9498 353.533125 138.680388 354.13039 138.200897 
C 354.727654 137.721406 355.063241 137.070986 355.063241 136.392884 
C 355.063241 135.714782 354.727654 135.064362 354.13039 134.584872 
C 353.533125 134.105381 352.722947 133.835969 351.878287 133.835969 
C 351.033627 133.835969 350.223449 134.105381 349.626184 134.584872 
C 349.028919 135.064362 348.693333 135.714782 348.693333 136.392884 
C 348.693333 137.070986 349.028919 137.721406 349.626184 138.200897 
C 350.223449 138.680388 351.033627 138.9498 351.878287 138.9498 
z
" style="fill:#ff0000;opacity:0.5;stroke:#ff0000;stroke-linejoin:miter;"/>
   </g>
   <g id="patch_39">
    <path d="M 337.545992 198.611171 
Q 344.48776 168.476087 351.191435 139.374595 
" style="fill:none;opacity:0.5;stroke:#ff0000;stroke-linecap:round;stroke-width:1.5;"/>
    <path d="M 349.393001 140.4996 
L 351.191435 139.374595 
L 352.31644 141.173029 
" style="fill:none;opacity:0.5;stroke:#ff0000;stroke-linecap:round;stroke-width:1.5;"/>
   </g>
   <g id="patch_40">
    <path clip-path="url(#pa2998e4cbb)" d="M 279.155163 147.472853 
C 279.718269 147.472853 280.258388 147.293245 280.656564 146.973584 
C 281.054741 146.653924 281.278465 146.220311 281.278465 145.768243 
C 281.278465 145.316175 281.054741 144.882561 280.656564 144.562901 
C 280.258388 144.243241 279.718269 144.063632 279.155163 144.063632 
C 278.592056 144.063632 278.051937 144.243241 277.653761 144.562901 
C 277.255584 144.882561 277.03186 145.316175 277.03186 145.768243 
C 277.03186 146.220311 277.255584 146.653924 277.653761 146.973584 
C 278.051937 147.293245 278.592056 147.472853 279.155163 147.472853 
z
" style="fill:#0000ff;opacity:0.5;stroke:#0000ff;stroke-linejoin:miter;"/>
   </g>
   <g id="patch_41">
    <path clip-path="url(#pa2998e4cbb)" d="M 298.795714 90.368399 
C 299.358821 90.368399 299.89894 90.18879 300.297116 89.86913 
C 300.695293 89.549469 300.919017 89.115856 300.919017 88.663788 
C 300.919017 88.21172 300.695293 87.778107 300.297116 87.458446 
C 299.89894 87.138786 299.358821 86.959177 298.795714 86.959177 
C 298.232608 86.959177 297.692489 87.138786 297.294312 87.458446 
C 296.896136 87.778107 296.672411 88.21172 296.672411 88.663788 
C 296.672411 89.115856 296.896136 89.549469 297.294312 89.86913 
C 297.692489 90.18879 298.232608 90.368399 298.795714 90.368399 
z
" style="fill:#ff0000;opacity:0.5;stroke:#ff0000;stroke-linejoin:miter;"/>
   </g>
   <g id="patch_42">
    <path d="M 279.155163 145.768243 
Q 288.649974 118.162296 297.914805 91.225011 
" style="fill:none;opacity:0.5;stroke:#ff0000;stroke-linecap:round;"/>
    <path d="M 296.008497 92.155596 
L 297.914805 91.225011 
L 298.84539 93.131319 
" style="fill:none;opacity:0.5;stroke:#ff0000;stroke-linecap:round;"/>
   </g>
   <g id="patch_43">
    <path clip-path="url(#pa2998e4cbb)" d="M 247.305619 110.823726 
C 248.150279 110.823726 248.960457 110.554313 249.557722 110.074822 
C 250.154986 109.595332 250.490573 108.944912 250.490573 108.26681 
C 250.490573 107.588708 250.154986 106.938288 249.557722 106.458797 
C 248.960457 105.979307 248.150279 105.709894 247.305619 105.709894 
C 246.460959 105.709894 245.650781 105.979307 245.053516 106.458797 
C 244.456252 106.938288 244.120665 107.588708 244.120665 108.26681 
C 244.120665 108.944912 244.456252 109.595332 245.053516 110.074822 
C 245.650781 110.554313 246.460959 110.823726 247.305619 110.823726 
z
" style="fill:#0000ff;opacity:0.5;stroke:#0000ff;stroke-linejoin:miter;"/>
   </g>
   <g id="patch_44">
    <path clip-path="url(#pa2998e4cbb)" d="M 270.131125 67.356156 
C 270.975785 67.356156 271.785963 67.086743 272.383228 66.607252 
C 272.980493 66.127762 273.31608 65.477342 273.31608 64.79924 
C 273.31608 64.121138 272.980493 63.470718 272.383228 62.991227 
C 271.785963 62.511737 270.975785 62.242324 270.131125 62.242324 
C 269.286465 62.242324 268.476287 62.511737 267.879022 62.991227 
C 267.281758 63.470718 266.946171 64.121138 266.946171 64.79924 
C 266.946171 65.477342 267.281758 66.127762 267.879022 66.607252 
C 268.476287 67.086743 269.286465 67.356156 270.131125 67.356156 
z
" style="fill:#ff0000;opacity:0.5;stroke:#ff0000;stroke-linejoin:miter;"/>
   </g>
   <g id="patch_45">
    <path d="M 247.305619 108.26681 
Q 258.253754 87.417817 268.708773 67.507886 
" style="fill:none;opacity:0.5;stroke:#ff0000;stroke-linecap:round;stroke-width:1.5;"/>
    <path d="M 266.683368 68.138548 
L 268.708773 67.507886 
L 269.339435 69.533291 
" style="fill:none;opacity:0.5;stroke:#ff0000;stroke-linecap:round;stroke-width:1.5;"/>
   </g>
   <g id="patch_46">
    <path clip-path="url(#pa2998e4cbb)" d="M 320.824982 46.900829 
C 322.232748 46.900829 323.583046 46.451807 324.578487 45.652656 
C 325.573928 44.853505 326.133239 43.769472 326.133239 42.639302 
C 326.133239 41.509132 325.573928 40.425099 324.578487 39.625948 
C 323.583046 38.826797 322.232748 38.377776 320.824982 38.377776 
C 319.417216 38.377776 318.066918 38.826797 317.071477 39.625948 
C 316.076036 40.425099 315.516725 41.509132 315.516725 42.639302 
C 315.516725 43.769472 316.076036 44.853505 317.071477 45.652656 
C 318.066918 46.451807 319.417216 46.900829 320.824982 46.900829 
z
" style="fill:#008000;opacity:0.5;stroke:#008000;stroke-linejoin:miter;"/>
   </g>
   <g id="patch_47">
    <path clip-path="url(#pa2998e4cbb)" d="M 414.25031 139.802106 
C 415.658076 139.802106 417.008373 139.353084 418.003814 138.553933 
C 418.999255 137.754783 419.558567 136.670749 419.558567 135.540579 
C 419.558567 134.410409 418.999255 133.326376 418.003814 132.527225 
C 417.008373 131.728074 415.658076 131.279053 414.25031 131.279053 
C 412.842543 131.279053 411.492246 131.728074 410.496805 132.527225 
C 409.501364 133.326376 408.942052 134.410409 408.942052 135.540579 
C 408.942052 136.670749 409.501364 137.754783 410.496805 138.553933 
C 411.492246 139.353084 412.842543 139.802106 414.25031 139.802106 
z
" style="fill:#008000;opacity:0.5;stroke:#008000;stroke-linejoin:miter;"/>
   </g>
   <g id="patch_48">
    <path clip-path="url(#pa2998e4cbb)" d="M 268.273235 270.204816 
C 269.681001 270.204816 271.031299 269.755794 272.02674 268.956643 
C 273.022181 268.157492 273.581492 267.073459 273.581492 265.943289 
C 273.581492 264.813119 273.022181 263.729086 272.02674 262.929935 
C 271.031299 262.130784 269.681001 261.681763 268.273235 261.681763 
C 266.865469 261.681763 265.515172 262.130784 264.51973 262.929935 
C 263.524289 263.729086 262.964978 264.813119 262.964978 265.943289 
C 262.964978 267.073459 263.524289 268.157492 264.51973 268.956643 
C 265.515172 269.755794 266.865469 270.204816 268.273235 270.204816 
z
" style="fill:#008000;opacity:0.5;stroke:#008000;stroke-linejoin:miter;"/>
   </g>
   <g id="patch_49">
    <path clip-path="url(#pa2998e4cbb)" d="M 259.249198 248.044878 
C 260.656964 248.044878 262.007261 247.595857 263.002703 246.796706 
C 263.998144 245.997555 264.557455 244.913521 264.557455 243.783351 
C 264.557455 242.653181 263.998144 241.569148 263.002703 240.769997 
C 262.007261 239.970846 260.656964 239.521825 259.249198 239.521825 
C 257.841432 239.521825 256.491134 239.970846 255.495693 240.769997 
C 254.500252 241.569148 253.940941 242.653181 253.940941 243.783351 
C 253.940941 244.913521 254.500252 245.997555 255.495693 246.796706 
C 256.491134 247.595857 257.841432 248.044878 259.249198 248.044878 
z
" style="fill:#008000;opacity:0.5;stroke:#008000;stroke-linejoin:miter;"/>
   </g>
   <g id="patch_50">
    <path clip-path="url(#pa2998e4cbb)" d="M 344.71214 171.763554 
C 346.119906 171.763554 347.470203 171.314533 348.465644 170.515382 
C 349.461085 169.716231 350.020397 168.632198 350.020397 167.502028 
C 350.020397 166.371858 349.461085 165.287824 348.465644 164.488673 
C 347.470203 163.689522 346.119906 163.240501 344.71214 163.240501 
C 343.304373 163.240501 341.954076 163.689522 340.958635 164.488673 
C 339.963194 165.287824 339.403882 166.371858 339.403882 167.502028 
C 339.403882 168.632198 339.963194 169.716231 340.958635 170.515382 
C 341.954076 171.314533 343.304373 171.763554 344.71214 171.763554 
z
" style="fill:#008000;opacity:0.5;stroke:#008000;stroke-linejoin:miter;"/>
   </g>
   <g id="patch_51">
    <path clip-path="url(#pa2998e4cbb)" d="M 288.975438 121.477542 
C 290.383205 121.477542 291.733502 121.02852 292.728943 120.22937 
C 293.724384 119.430219 294.283696 118.346185 294.283696 117.216015 
C 294.283696 116.085845 293.724384 115.001812 292.728943 114.202661 
C 291.733502 113.40351 290.383205 112.954489 288.975438 112.954489 
C 287.567672 112.954489 286.217375 113.40351 285.221934 114.202661 
C 284.226493 115.001812 283.667181 116.085845 283.667181 117.216015 
C 283.667181 118.346185 284.226493 119.430219 285.221934 120.22937 
C 286.217375 121.02852 287.567672 121.477542 288.975438 121.477542 
z
" style="fill:#008000;opacity:0.5;stroke:#008000;stroke-linejoin:miter;"/>
   </g>
   <g id="patch_52">
    <path clip-path="url(#pa2998e4cbb)" d="M 258.718372 90.794551 
C 260.126138 90.794551 261.476436 90.34553 262.471877 89.546379 
C 263.467318 88.747228 264.026629 87.663195 264.026629 86.533025 
C 264.026629 85.402855 263.467318 84.318821 262.471877 83.51967 
C 261.476436 82.72052 260.126138 82.271498 258.718372 82.271498 
C 257.310606 82.271498 255.960309 82.72052 254.964867 83.51967 
C 253.969426 84.318821 253.410115 85.402855 253.410115 86.533025 
C 253.410115 87.663195 253.969426 88.747228 254.964867 89.546379 
C 255.960309 90.34553 257.310606 90.794551 258.718372 90.794551 
z
" style="fill:#008000;opacity:0.5;stroke:#008000;stroke-linejoin:miter;"/>
   </g>
   <g id="patch_53">
    <path d="M 320.824982 42.639302 
Q 367.537646 89.089941 414.25031 135.540579 
" style="fill:none;opacity:0.5;stroke:#008000;stroke-linecap:round;stroke-width:2;"/>
   </g>
   <g id="patch_54">
    <path d="M 414.25031 135.540579 
Q 341.261772 200.741934 268.273235 265.943289 
" style="fill:none;opacity:0.5;stroke:#008000;stroke-linecap:round;stroke-width:2;"/>
   </g>
   <g id="patch_55">
    <path d="M 268.273235 265.943289 
Q 263.761217 254.86332 259.249198 243.783351 
" style="fill:none;opacity:0.5;stroke:#008000;stroke-linecap:round;stroke-width:2;"/>
   </g>
   <g id="patch_56">
    <path d="M 259.249198 243.783351 
Q 301.980669 205.64269 344.71214 167.502028 
" style="fill:none;opacity:0.5;stroke:#008000;stroke-linecap:round;stroke-width:2;"/>
   </g>
   <g id="patch_57">
    <path d="M 344.71214 167.502028 
Q 316.843789 142.359021 288.975438 117.216015 
" style="fill:none;opacity:0.5;stroke:#008000;stroke-linecap:round;stroke-width:2;"/>
   </g>
   <g id="patch_58">
    <path d="M 288.975438 117.216015 
Q 273.846905 101.87452 258.718372 86.533025 
" style="fill:none;opacity:0.5;stroke:#008000;stroke-linecap:round;stroke-width:2;"/>
   </g>
   <g id="patch_59">
    <path d="M 258.718372 86.533025 
Q 289.771677 64.586163 320.824982 42.639302 
" style="fill:none;opacity:0.5;stroke:#008000;stroke-linecap:round;stroke-width:2;"/>
   </g>
   <g id="patch_60">
    <path clip-path="url(#pa2998e4cbb)" d="M 141.6713 29.854723 
C 185.199009 29.854723 223.418461 67.356156 223.418461 111.676031 
C 223.418461 170.485096 166.089283 211.39575 99.205242 227.589551 
C 90.71203 224.18033 86.465424 215.657277 91.773682 209.69114 
C 131.054785 195.20195 172.459192 171.337401 172.459192 136.392884 
C 172.459192 104.005283 139.547997 89.516093 119.376619 88.663788 
C 104.513499 87.811483 90.71203 80.99304 90.71203 64.79924 
C 90.71203 52.01466 100.266893 29.854723 141.6713 29.854723 
" style="fill:none;stroke:#ff0000;stroke-linejoin:miter;stroke-width:0.5;"/>
   </g>
   <g id="patch_61">
    <path clip-path="url(#pa2998e4cbb)" d="M 141.140474 55.423882 
C 184.668183 55.423882 246.243968 85.254567 246.243968 159.405127 
C 246.243968 238.66952 166.620109 288.103227 78.503038 304.297027 
C 60.454964 302.592417 56.208358 283.8417 67.886524 277.875563 
C 106.105976 266.795594 158.126897 238.66952 158.126897 198.611171 
C 158.126897 162.814349 125.215702 150.882074 99.736067 145.768243 
C 81.687993 141.506716 67.886524 127.869831 67.886524 108.26681 
C 67.886524 79.28843 100.797719 55.423882 141.140474 55.423882 
" style="fill:none;stroke:#0000ff;stroke-linejoin:miter;stroke-width:0.5;"/>
   </g>
   <g id="patch_62">
    <path clip-path="url(#pa2998e4cbb)" d="M 141.6713 32.411639 
C 142.515959 32.411639 143.326138 32.142226 143.923403 31.662735 
C 144.520667 31.183245 144.856254 30.532825 144.856254 29.854723 
C 144.856254 29.176621 144.520667 28.526201 143.923403 28.04671 
C 143.326138 27.56722 142.515959 27.297807 141.6713 27.297807 
C 140.82664 27.297807 140.016462 27.56722 139.419197 28.04671 
C 138.821932 28.526201 138.486345 29.176621 138.486345 29.854723 
C 138.486345 30.532825 138.821932 31.183245 139.419197 31.662735 
C 140.016462 32.142226 140.82664 32.411639 141.6713 32.411639 
z
" style="fill:#0000ff;opacity:0.5;stroke:#0000ff;stroke-linejoin:miter;"/>
   </g>
   <g id="patch_63">
    <path clip-path="url(#pa2998e4cbb)" d="M 141.140474 57.980797 
C 141.985134 57.980797 142.795312 57.711385 143.392577 57.231894 
C 143.989841 56.752404 144.325428 56.101984 144.325428 55.423882 
C 144.325428 54.745779 143.989841 54.095359 143.392577 53.615869 
C 142.795312 53.136378 141.985134 52.866966 141.140474 52.866966 
C 140.295814 52.866966 139.485636 53.136378 138.888371 53.615869 
C 138.291107 54.095359 137.95552 54.745779 137.95552 55.423882 
C 137.95552 56.101984 138.291107 56.752404 138.888371 57.231894 
C 139.485636 57.711385 140.295814 57.980797 141.140474 57.980797 
z
" style="fill:#ff0000;opacity:0.5;stroke:#ff0000;stroke-linejoin:miter;"/>
   </g>
   <g id="patch_64">
    <path d="M 141.6713 29.854723 
Q 141.426655 41.638946 141.204025 52.362738 
" style="fill:none;opacity:0.5;stroke:#0000ff;stroke-linecap:round;stroke-width:1.5;"/>
    <path d="M 142.734835 50.894195 
L 141.204025 52.362738 
L 139.735482 50.831927 
" style="fill:none;opacity:0.5;stroke:#0000ff;stroke-linecap:round;stroke-width:1.5;"/>
   </g>
   <g id="patch_65">
    <path clip-path="url(#pa2998e4cbb)" d="M 223.418461 114.232947 
C 224.263121 114.232947 225.0733 113.963534 225.670564 113.484043 
C 226.267829 113.004553 226.603416 112.354133 226.603416 111.676031 
C 226.603416 110.997929 226.267829 110.347509 225.670564 109.868018 
C 225.0733 109.388528 224.263121 109.119115 223.418461 109.119115 
C 222.573802 109.119115 221.763623 109.388528 221.166359 109.868018 
C 220.569094 110.347509 220.233507 110.997929 220.233507 111.676031 
C 220.233507 112.354133 220.569094 113.004553 221.166359 113.484043 
C 221.763623 113.963534 222.573802 114.232947 223.418461 114.232947 
z
" style="fill:#0000ff;opacity:0.5;stroke:#0000ff;stroke-linejoin:miter;"/>
   </g>
   <g id="patch_66">
    <path clip-path="url(#pa2998e4cbb)" d="M 246.243968 161.962043 
C 247.088627 161.962043 247.898806 161.69263 248.49607 161.21314 
C 249.093335 160.733649 249.428922 160.083229 249.428922 159.405127 
C 249.428922 158.727025 249.093335 158.076605 248.49607 157.597115 
C 247.898806 157.117624 247.088627 156.848211 246.243968 156.848211 
C 245.399308 156.848211 244.589129 157.117624 243.991865 157.597115 
C 243.3946 158.076605 243.059013 158.727025 243.059013 159.405127 
C 243.059013 160.083229 243.3946 160.733649 243.991865 161.21314 
C 244.589129 161.69263 245.399308 161.962043 246.243968 161.962043 
z
" style="fill:#ff0000;opacity:0.5;stroke:#ff0000;stroke-linejoin:miter;"/>
   </g>
   <g id="patch_67">
    <path d="M 223.418461 111.676031 
Q 234.400032 134.638958 244.923999 156.645017 
" style="fill:none;opacity:0.5;stroke:#0000ff;stroke-linecap:round;stroke-width:1.5;"/>
    <path d="M 245.630066 154.644649 
L 244.923999 156.645017 
L 242.923632 155.938949 
" style="fill:none;opacity:0.5;stroke:#0000ff;stroke-linecap:round;stroke-width:1.5;"/>
   </g>
   <g id="patch_68">
    <path clip-path="url(#pa2998e4cbb)" d="M 99.205242 230.146467 
C 100.049901 230.146467 100.86008 229.877054 101.457345 229.397563 
C 102.054609 228.918073 102.390196 228.267653 102.390196 227.589551 
C 102.390196 226.911449 102.054609 226.261029 101.457345 225.781538 
C 100.86008 225.302048 100.049901 225.032635 99.205242 225.032635 
C 98.360582 225.032635 97.550404 225.302048 96.953139 225.781538 
C 96.355874 226.261029 96.020287 226.911449 96.020287 227.589551 
C 96.020287 228.267653 96.355874 228.918073 96.953139 229.397563 
C 97.550404 229.877054 98.360582 230.146467 99.205242 230.146467 
z
" style="fill:#0000ff;opacity:0.5;stroke:#0000ff;stroke-linejoin:miter;"/>
   </g>
   <g id="patch_69">
    <path clip-path="url(#pa2998e4cbb)" d="M 78.503038 306.853943 
C 79.347698 306.853943 80.157877 306.58453 80.755141 306.10504 
C 81.352406 305.625549 81.687993 304.975129 81.687993 304.297027 
C 81.687993 303.618925 81.352406 302.968505 80.755141 302.489015 
C 80.157877 302.009524 79.347698 301.740111 78.503038 301.740111 
C 77.658379 301.740111 76.8482 302.009524 76.250936 302.489015 
C 75.653671 302.968505 75.318084 303.618925 75.318084 304.297027 
C 75.318084 304.975129 75.653671 305.625549 76.250936 306.10504 
C 76.8482 306.58453 77.658379 306.853943 78.503038 306.853943 
z
" style="fill:#ff0000;opacity:0.5;stroke:#ff0000;stroke-linejoin:miter;"/>
   </g>
   <g id="patch_70">
    <path d="M 99.205242 227.589551 
Q 89.115066 264.976486 79.301258 301.3394 
" style="fill:none;opacity:0.5;stroke:#0000ff;stroke-linecap:round;stroke-width:1.5;"/>
    <path d="M 81.140287 300.282058 
L 79.301258 301.3394 
L 78.243916 299.500371 
" style="fill:none;opacity:0.5;stroke:#0000ff;stroke-linecap:round;stroke-width:1.5;"/>
   </g>
   <g id="patch_71">
    <path clip-path="url(#pa2998e4cbb)" d="M 91.773682 212.248056 
C 92.618341 212.248056 93.42852 211.978643 94.025784 211.499152 
C 94.623049 211.019662 94.958636 210.369242 94.958636 209.69114 
C 94.958636 209.013038 94.623049 208.362618 94.025784 207.883127 
C 93.42852 207.403637 92.618341 207.134224 91.773682 207.134224 
C 90.929022 207.134224 90.118843 207.403637 89.521579 207.883127 
C 88.924314 208.362618 88.588727 209.013038 88.588727 209.69114 
C 88.588727 210.369242 88.924314 211.019662 89.521579 211.499152 
C 90.118843 211.978643 90.929022 212.248056 91.773682 212.248056 
z
" style="fill:#0000ff;opacity:0.5;stroke:#0000ff;stroke-linejoin:miter;"/>
   </g>
   <g id="patch_72">
    <path clip-path="url(#pa2998e4cbb)" d="M 67.886524 280.432479 
C 68.731184 280.432479 69.541362 280.163066 70.138627 279.683576 
C 70.735891 279.204085 71.071478 278.553665 71.071478 277.875563 
C 71.071478 277.197461 70.735891 276.547041 70.138627 276.067551 
C 69.541362 275.58806 68.731184 275.318647 67.886524 275.318647 
C 67.041864 275.318647 66.231686 275.58806 65.634421 276.067551 
C 65.037156 276.547041 64.70157 277.197461 64.70157 277.875563 
C 64.70157 278.553665 65.037156 279.204085 65.634421 279.683576 
C 66.231686 280.163066 67.041864 280.432479 67.886524 280.432479 
z
" style="fill:#ff0000;opacity:0.5;stroke:#ff0000;stroke-linejoin:miter;"/>
   </g>
   <g id="patch_73">
    <path d="M 91.773682 209.69114 
Q 80.16033 242.840738 68.897663 274.989328 
" style="fill:none;opacity:0.5;stroke:#0000ff;stroke-linecap:round;stroke-width:1.5;"/>
    <path d="M 70.809248 274.06963 
L 68.897663 274.989328 
L 67.977966 273.077743 
" style="fill:none;opacity:0.5;stroke:#0000ff;stroke-linecap:round;stroke-width:1.5;"/>
   </g>
   <g id="patch_74">
    <path clip-path="url(#pa2998e4cbb)" d="M 172.459192 137.671342 
C 172.881522 137.671342 173.286611 137.536636 173.585243 137.296891 
C 173.883876 137.057145 174.051669 136.731935 174.051669 136.392884 
C 174.051669 136.053833 173.883876 135.728623 173.585243 135.488878 
C 173.286611 135.249133 172.881522 135.114426 172.459192 135.114426 
C 172.036862 135.114426 171.631773 135.249133 171.33314 135.488878 
C 171.034508 135.728623 170.866715 136.053833 170.866715 136.392884 
C 170.866715 136.731935 171.034508 137.057145 171.33314 137.296891 
C 171.631773 137.536636 172.036862 137.671342 172.459192 137.671342 
z
" style="fill:#0000ff;opacity:0.5;stroke:#0000ff;stroke-linejoin:miter;"/>
   </g>
   <g id="patch_75">
    <path clip-path="url(#pa2998e4cbb)" d="M 158.126897 199.889629 
C 158.549227 199.889629 158.954316 199.754922 159.252949 199.515177 
C 159.551581 199.275432 159.719374 198.950222 159.719374 198.611171 
C 159.719374 198.27212 159.551581 197.94691 159.252949 197.707165 
C 158.954316 197.467419 158.549227 197.332713 158.126897 197.332713 
C 157.704567 197.332713 157.299478 197.467419 157.000846 197.707165 
C 156.702213 197.94691 156.53442 198.27212 156.53442 198.611171 
C 156.53442 198.950222 156.702213 199.275432 157.000846 199.515177 
C 157.299478 199.754922 157.704567 199.889629 158.126897 199.889629 
z
" style="fill:#ff0000;opacity:0.5;stroke:#ff0000;stroke-linejoin:miter;"/>
   </g>
   <g id="patch_76">
    <path d="M 172.459192 136.392884 
Q 165.517424 166.527968 158.694703 196.146256 
" style="fill:none;opacity:0.5;stroke:#0000ff;stroke-linecap:round;stroke-width:0.75;"/>
    <path d="M 160.493136 195.021251 
L 158.694703 196.146256 
L 157.569698 194.347822 
" style="fill:none;opacity:0.5;stroke:#0000ff;stroke-linecap:round;stroke-width:0.75;"/>
   </g>
   <g id="patch_77">
    <path clip-path="url(#pa2998e4cbb)" d="M 119.376619 90.368399 
C 119.939726 90.368399 120.479845 90.18879 120.878021 89.86913 
C 121.276198 89.549469 121.499922 89.115856 121.499922 88.663788 
C 121.499922 88.21172 121.276198 87.778107 120.878021 87.458446 
C 120.479845 87.138786 119.939726 86.959177 119.376619 86.959177 
C 118.813513 86.959177 118.273394 87.138786 117.875217 87.458446 
C 117.477041 87.778107 117.253316 88.21172 117.253316 88.663788 
C 117.253316 89.115856 117.477041 89.549469 117.875217 89.86913 
C 118.273394 90.18879 118.813513 90.368399 119.376619 90.368399 
z
" style="fill:#0000ff;opacity:0.5;stroke:#0000ff;stroke-linejoin:miter;"/>
   </g>
   <g id="patch_78">
    <path clip-path="url(#pa2998e4cbb)" d="M 99.736067 147.472853 
C 100.299174 147.472853 100.839293 147.293245 101.237469 146.973584 
C 101.635646 146.653924 101.85937 146.220311 101.85937 145.768243 
C 101.85937 145.316175 101.635646 144.882561 101.237469 144.562901 
C 100.839293 144.243241 100.299174 144.063632 99.736067 144.063632 
C 99.172961 144.063632 98.632842 144.243241 98.234666 144.562901 
C 97.836489 144.882561 97.612765 145.316175 97.612765 145.768243 
C 97.612765 146.220311 97.836489 146.653924 98.234666 146.973584 
C 98.632842 147.293245 99.172961 147.472853 99.736067 147.472853 
z
" style="fill:#ff0000;opacity:0.5;stroke:#ff0000;stroke-linejoin:miter;"/>
   </g>
   <g id="patch_79">
    <path d="M 119.376619 88.663788 
Q 109.881808 116.269735 100.616977 143.20702 
" style="fill:none;opacity:0.5;stroke:#0000ff;stroke-linecap:round;"/>
    <path d="M 102.523285 142.276435 
L 100.616977 143.20702 
L 99.686392 141.300711 
" style="fill:none;opacity:0.5;stroke:#0000ff;stroke-linecap:round;"/>
   </g>
   <g id="patch_80">
    <path clip-path="url(#pa2998e4cbb)" d="M 90.71203 67.356156 
C 91.55669 67.356156 92.366868 67.086743 92.964133 66.607252 
C 93.561398 66.127762 93.896984 65.477342 93.896984 64.79924 
C 93.896984 64.121138 93.561398 63.470718 92.964133 62.991227 
C 92.366868 62.511737 91.55669 62.242324 90.71203 62.242324 
C 89.86737 62.242324 89.057192 62.511737 88.459927 62.991227 
C 87.862663 63.470718 87.527076 64.121138 87.527076 64.79924 
C 87.527076 65.477342 87.862663 66.127762 88.459927 66.607252 
C 89.057192 67.086743 89.86737 67.356156 90.71203 67.356156 
z
" style="fill:#0000ff;opacity:0.5;stroke:#0000ff;stroke-linejoin:miter;"/>
   </g>
   <g id="patch_81">
    <path clip-path="url(#pa2998e4cbb)" d="M 67.886524 110.823726 
C 68.731184 110.823726 69.541362 110.554313 70.138627 110.074822 
C 70.735891 109.595332 71.071478 108.944912 71.071478 108.26681 
C 71.071478 107.588708 70.735891 106.938288 70.138627 106.458797 
C 69.541362 105.979307 68.731184 105.709894 67.886524 105.709894 
C 67.041864 105.709894 66.231686 105.979307 65.634421 106.458797 
C 65.037156 106.938288 64.70157 107.588708 64.70157 108.26681 
C 64.70157 108.944912 65.037156 109.595332 65.634421 110.074822 
C 66.231686 110.554313 67.041864 110.823726 67.886524 110.823726 
z
" style="fill:#ff0000;opacity:0.5;stroke:#ff0000;stroke-linejoin:miter;"/>
   </g>
   <g id="patch_82">
    <path d="M 90.71203 64.79924 
Q 79.763895 85.648233 69.308877 105.558164 
" style="fill:none;opacity:0.5;stroke:#0000ff;stroke-linecap:round;stroke-width:1.5;"/>
    <path d="M 71.334281 104.927502 
L 69.308877 105.558164 
L 68.678214 103.532759 
" style="fill:none;opacity:0.5;stroke:#0000ff;stroke-linecap:round;stroke-width:1.5;"/>
   </g>
   <g id="patch_83">
    <path clip-path="url(#pa2998e4cbb)" d="M 141.140474 57.980797 
C 141.985134 57.980797 142.795312 57.711385 143.392577 57.231894 
C 143.989841 56.752404 144.325428 56.101984 144.325428 55.423882 
C 144.325428 54.745779 143.989841 54.095359 143.392577 53.615869 
C 142.795312 53.136378 141.985134 52.866966 141.140474 52.866966 
C 140.295814 52.866966 139.485636 53.136378 138.888371 53.615869 
C 138.291107 54.095359 137.95552 54.745779 137.95552 55.423882 
C 137.95552 56.101984 138.291107 56.752404 138.888371 57.231894 
C 139.485636 57.711385 140.295814 57.980797 141.140474 57.980797 
z
" style="fill:#0000ff;opacity:0.5;stroke:#0000ff;stroke-linejoin:miter;"/>
   </g>
   <g id="patch_84">
    <path clip-path="url(#pa2998e4cbb)" d="M 141.6713 32.411639 
C 142.515959 32.411639 143.326138 32.142226 143.923403 31.662735 
C 144.520667 31.183245 144.856254 30.532825 144.856254 29.854723 
C 144.856254 29.176621 144.520667 28.526201 143.923403 28.04671 
C 143.326138 27.56722 142.515959 27.297807 141.6713 27.297807 
C 140.82664 27.297807 140.016462 27.56722 139.419197 28.04671 
C 138.821932 28.526201 138.486345 29.176621 138.486345 29.854723 
C 138.486345 30.532825 138.821932 31.183245 139.419197 31.662735 
C 140.016462 32.142226 140.82664 32.411639 141.6713 32.411639 
z
" style="fill:#ff0000;opacity:0.5;stroke:#ff0000;stroke-linejoin:miter;"/>
   </g>
   <g id="patch_85">
    <path d="M 141.140474 55.423882 
Q 141.385119 43.639658 141.607749 32.915866 
" style="fill:none;opacity:0.5;stroke:#ff0000;stroke-linecap:round;stroke-width:1.5;"/>
    <path d="M 140.076938 34.384409 
L 141.607749 32.915866 
L 143.076292 34.446677 
" style="fill:none;opacity:0.5;stroke:#ff0000;stroke-linecap:round;stroke-width:1.5;"/>
   </g>
   <g id="patch_86">
    <path clip-path="url(#pa2998e4cbb)" d="M 246.243968 161.962043 
C 247.088627 161.962043 247.898806 161.69263 248.49607 161.21314 
C 249.093335 160.733649 249.428922 160.083229 249.428922 159.405127 
C 249.428922 158.727025 249.093335 158.076605 248.49607 157.597115 
C 247.898806 157.117624 247.088627 156.848211 246.243968 156.848211 
C 245.399308 156.848211 244.589129 157.117624 243.991865 157.597115 
C 243.3946 158.076605 243.059013 158.727025 243.059013 159.405127 
C 243.059013 160.083229 243.3946 160.733649 243.991865 161.21314 
C 244.589129 161.69263 245.399308 161.962043 246.243968 161.962043 
z
" style="fill:#0000ff;opacity:0.5;stroke:#0000ff;stroke-linejoin:miter;"/>
   </g>
   <g id="patch_87">
    <path clip-path="url(#pa2998e4cbb)" d="M 223.418461 114.232947 
C 224.263121 114.232947 225.0733 113.963534 225.670564 113.484043 
C 226.267829 113.004553 226.603416 112.354133 226.603416 111.676031 
C 226.603416 110.997929 226.267829 110.347509 225.670564 109.868018 
C 225.0733 109.388528 224.263121 109.119115 223.418461 109.119115 
C 222.573802 109.119115 221.763623 109.388528 221.166359 109.868018 
C 220.569094 110.347509 220.233507 110.997929 220.233507 111.676031 
C 220.233507 112.354133 220.569094 113.004553 221.166359 113.484043 
C 221.763623 113.963534 222.573802 114.232947 223.418461 114.232947 
z
" style="fill:#ff0000;opacity:0.5;stroke:#ff0000;stroke-linejoin:miter;"/>
   </g>
   <g id="patch_88">
    <path d="M 246.243968 159.405127 
Q 235.262397 136.4422 224.73843 114.436142 
" style="fill:none;opacity:0.5;stroke:#ff0000;stroke-linecap:round;stroke-width:1.5;"/>
    <path d="M 224.032363 116.436509 
L 224.73843 114.436142 
L 226.738797 115.142209 
" style="fill:none;opacity:0.5;stroke:#ff0000;stroke-linecap:round;stroke-width:1.5;"/>
   </g>
   <g id="patch_89">
    <path clip-path="url(#pa2998e4cbb)" d="M 78.503038 306.853943 
C 79.347698 306.853943 80.157877 306.58453 80.755141 306.10504 
C 81.352406 305.625549 81.687993 304.975129 81.687993 304.297027 
C 81.687993 303.618925 81.352406 302.968505 80.755141 302.489015 
C 80.157877 302.009524 79.347698 301.740111 78.503038 301.740111 
C 77.658379 301.740111 76.8482 302.009524 76.250936 302.489015 
C 75.653671 302.968505 75.318084 303.618925 75.318084 304.297027 
C 75.318084 304.975129 75.653671 305.625549 76.250936 306.10504 
C 76.8482 306.58453 77.658379 306.853943 78.503038 306.853943 
z
" style="fill:#0000ff;opacity:0.5;stroke:#0000ff;stroke-linejoin:miter;"/>
   </g>
   <g id="patch_90">
    <path clip-path="url(#pa2998e4cbb)" d="M 99.205242 230.146467 
C 100.049901 230.146467 100.86008 229.877054 101.457345 229.397563 
C 102.054609 228.918073 102.390196 228.267653 102.390196 227.589551 
C 102.390196 226.911449 102.054609 226.261029 101.457345 225.781538 
C 100.86008 225.302048 100.049901 225.032635 99.205242 225.032635 
C 98.360582 225.032635 97.550404 225.302048 96.953139 225.781538 
C 96.355874 226.261029 96.020287 226.911449 96.020287 227.589551 
C 96.020287 228.267653 96.355874 228.918073 96.953139 229.397563 
C 97.550404 229.877054 98.360582 230.146467 99.205242 230.146467 
z
" style="fill:#ff0000;opacity:0.5;stroke:#ff0000;stroke-linejoin:miter;"/>
   </g>
   <g id="patch_91">
    <path d="M 78.503038 304.297027 
Q 88.593214 266.910092 98.407022 230.547178 
" style="fill:none;opacity:0.5;stroke:#ff0000;stroke-linecap:round;stroke-width:1.5;"/>
    <path d="M 96.567993 231.60452 
L 98.407022 230.547178 
L 99.464364 232.386207 
" style="fill:none;opacity:0.5;stroke:#ff0000;stroke-linecap:round;stroke-width:1.5;"/>
   </g>
   <g id="patch_92">
    <path clip-path="url(#pa2998e4cbb)" d="M 67.886524 280.432479 
C 68.731184 280.432479 69.541362 280.163066 70.138627 279.683576 
C 70.735891 279.204085 71.071478 278.553665 71.071478 277.875563 
C 71.071478 277.197461 70.735891 276.547041 70.138627 276.067551 
C 69.541362 275.58806 68.731184 275.318647 67.886524 275.318647 
C 67.041864 275.318647 66.231686 275.58806 65.634421 276.067551 
C 65.037156 276.547041 64.70157 277.197461 64.70157 277.875563 
C 64.70157 278.553665 65.037156 279.204085 65.634421 279.683576 
C 66.231686 280.163066 67.041864 280.432479 67.886524 280.432479 
z
" style="fill:#0000ff;opacity:0.5;stroke:#0000ff;stroke-linejoin:miter;"/>
   </g>
   <g id="patch_93">
    <path clip-path="url(#pa2998e4cbb)" d="M 91.773682 212.248056 
C 92.618341 212.248056 93.42852 211.978643 94.025784 211.499152 
C 94.623049 211.019662 94.958636 210.369242 94.958636 209.69114 
C 94.958636 209.013038 94.623049 208.362618 94.025784 207.883127 
C 93.42852 207.403637 92.618341 207.134224 91.773682 207.134224 
C 90.929022 207.134224 90.118843 207.403637 89.521579 207.883127 
C 88.924314 208.362618 88.588727 209.013038 88.588727 209.69114 
C 88.588727 210.369242 88.924314 211.019662 89.521579 211.499152 
C 90.118843 211.978643 90.929022 212.248056 91.773682 212.248056 
z
" style="fill:#ff0000;opacity:0.5;stroke:#ff0000;stroke-linejoin:miter;"/>
   </g>
   <g id="patch_94">
    <path d="M 67.886524 277.875563 
Q 79.499876 244.725964 90.762542 212.577375 
" style="fill:none;opacity:0.5;stroke:#ff0000;stroke-linecap:round;stroke-width:1.5;"/>
    <path d="M 88.850957 213.497072 
L 90.762542 212.577375 
L 91.682239 214.48896 
" style="fill:none;opacity:0.5;stroke:#ff0000;stroke-linecap:round;stroke-width:1.5;"/>
   </g>
   <g id="patch_95">
    <path clip-path="url(#pa2998e4cbb)" d="M 158.126897 201.168087 
C 158.971557 201.168087 159.781735 200.898674 160.379 200.419183 
C 160.976265 199.939693 161.311852 199.289273 161.311852 198.611171 
C 161.311852 197.933069 160.976265 197.282649 160.379 196.803158 
C 159.781735 196.323668 158.971557 196.054255 158.126897 196.054255 
C 157.282237 196.054255 156.472059 196.323668 155.874794 196.803158 
C 155.27753 197.282649 154.941943 197.933069 154.941943 198.611171 
C 154.941943 199.289273 155.27753 199.939693 155.874794 200.419183 
C 156.472059 200.898674 157.282237 201.168087 158.126897 201.168087 
z
" style="fill:#0000ff;opacity:0.5;stroke:#0000ff;stroke-linejoin:miter;"/>
   </g>
   <g id="patch_96">
    <path clip-path="url(#pa2998e4cbb)" d="M 172.459192 138.9498 
C 173.303852 138.9498 174.11403 138.680388 174.711295 138.200897 
C 175.308559 137.721406 175.644146 137.070986 175.644146 136.392884 
C 175.644146 135.714782 175.308559 135.064362 174.711295 134.584872 
C 174.11403 134.105381 173.303852 133.835969 172.459192 133.835969 
C 171.614532 133.835969 170.804354 134.105381 170.207089 134.584872 
C 169.609824 135.064362 169.274237 135.714782 169.274237 136.392884 
C 169.274237 137.070986 169.609824 137.721406 170.207089 138.200897 
C 170.804354 138.680388 171.614532 138.9498 172.459192 138.9498 
z
" style="fill:#ff0000;opacity:0.5;stroke:#ff0000;stroke-linejoin:miter;"/>
   </g>
   <g id="patch_97">
    <path d="M 158.126897 198.611171 
Q 165.068665 168.476087 171.77234 139.374595 
" style="fill:none;opacity:0.5;stroke:#ff0000;stroke-linecap:round;stroke-width:1.5;"/>
    <path d="M 169.973906 140.4996 
L 171.77234 139.374595 
L 172.897345 141.173029 
" style="fill:none;opacity:0.5;stroke:#ff0000;stroke-linecap:round;stroke-width:1.5;"/>
   </g>
   <g id="patch_98">
    <path clip-path="url(#pa2998e4cbb)" d="M 99.736067 147.472853 
C 100.299174 147.472853 100.839293 147.293245 101.237469 146.973584 
C 101.635646 146.653924 101.85937 146.220311 101.85937 145.768243 
C 101.85937 145.316175 101.635646 144.882561 101.237469 144.562901 
C 100.839293 144.243241 100.299174 144.063632 99.736067 144.063632 
C 99.172961 144.063632 98.632842 144.243241 98.234666 144.562901 
C 97.836489 144.882561 97.612765 145.316175 97.612765 145.768243 
C 97.612765 146.220311 97.836489 146.653924 98.234666 146.973584 
C 98.632842 147.293245 99.172961 147.472853 99.736067 147.472853 
z
" style="fill:#0000ff;opacity:0.5;stroke:#0000ff;stroke-linejoin:miter;"/>
   </g>
   <g id="patch_99">
    <path clip-path="url(#pa2998e4cbb)" d="M 119.376619 90.368399 
C 119.939726 90.368399 120.479845 90.18879 120.878021 89.86913 
C 121.276198 89.549469 121.499922 89.115856 121.499922 88.663788 
C 121.499922 88.21172 121.276198 87.778107 120.878021 87.458446 
C 120.479845 87.138786 119.939726 86.959177 119.376619 86.959177 
C 118.813513 86.959177 118.273394 87.138786 117.875217 87.458446 
C 117.477041 87.778107 117.253316 88.21172 117.253316 88.663788 
C 117.253316 89.115856 117.477041 89.549469 117.875217 89.86913 
C 118.273394 90.18879 118.813513 90.368399 119.376619 90.368399 
z
" style="fill:#ff0000;opacity:0.5;stroke:#ff0000;stroke-linejoin:miter;"/>
   </g>
   <g id="patch_100">
    <path d="M 99.736067 145.768243 
Q 109.230879 118.162296 118.49571 91.225011 
" style="fill:none;opacity:0.5;stroke:#ff0000;stroke-linecap:round;"/>
    <path d="M 116.589402 92.155596 
L 118.49571 91.225011 
L 119.426295 93.131319 
" style="fill:none;opacity:0.5;stroke:#ff0000;stroke-linecap:round;"/>
   </g>
   <g id="patch_101">
    <path clip-path="url(#pa2998e4cbb)" d="M 67.886524 110.823726 
C 68.731184 110.823726 69.541362 110.554313 70.138627 110.074822 
C 70.735891 109.595332 71.071478 108.944912 71.071478 108.26681 
C 71.071478 107.588708 70.735891 106.938288 70.138627 106.458797 
C 69.541362 105.979307 68.731184 105.709894 67.886524 105.709894 
C 67.041864 105.709894 66.231686 105.979307 65.634421 106.458797 
C 65.037156 106.938288 64.70157 107.588708 64.70157 108.26681 
C 64.70157 108.944912 65.037156 109.595332 65.634421 110.074822 
C 66.231686 110.554313 67.041864 110.823726 67.886524 110.823726 
z
" style="fill:#0000ff;opacity:0.5;stroke:#0000ff;stroke-linejoin:miter;"/>
   </g>
   <g id="patch_102">
    <path clip-path="url(#pa2998e4cbb)" d="M 90.71203 67.356156 
C 91.55669 67.356156 92.366868 67.086743 92.964133 66.607252 
C 93.561398 66.127762 93.896984 65.477342 93.896984 64.79924 
C 93.896984 64.121138 93.561398 63.470718 92.964133 62.991227 
C 92.366868 62.511737 91.55669 62.242324 90.71203 62.242324 
C 89.86737 62.242324 89.057192 62.511737 88.459927 62.991227 
C 87.862663 63.470718 87.527076 64.121138 87.527076 64.79924 
C 87.527076 65.477342 87.862663 66.127762 88.459927 66.607252 
C 89.057192 67.086743 89.86737 67.356156 90.71203 67.356156 
z
" style="fill:#ff0000;opacity:0.5;stroke:#ff0000;stroke-linejoin:miter;"/>
   </g>
   <g id="patch_103">
    <path d="M 67.886524 108.26681 
Q 78.834659 87.417817 89.289677 67.507886 
" style="fill:none;opacity:0.5;stroke:#ff0000;stroke-linecap:round;stroke-width:1.5;"/>
    <path d="M 87.264273 68.138548 
L 89.289677 67.507886 
L 89.92034 69.533291 
" style="fill:none;opacity:0.5;stroke:#ff0000;stroke-linecap:round;stroke-width:1.5;"/>
   </g>
   <g id="patch_104">
    <path clip-path="url(#pa2998e4cbb)" d="M 141.405887 46.900829 
C 142.813653 46.900829 144.16395 46.451807 145.159392 45.652656 
C 146.154833 44.853505 146.714144 43.769472 146.714144 42.639302 
C 146.714144 41.509132 146.154833 40.425099 145.159392 39.625948 
C 144.16395 38.826797 142.813653 38.377776 141.405887 38.377776 
C 139.998121 38.377776 138.647823 38.826797 137.652382 39.625948 
C 136.656941 40.425099 136.09763 41.509132 136.09763 42.639302 
C 136.09763 43.769472 136.656941 44.853505 137.652382 45.652656 
C 138.647823 46.451807 139.998121 46.900829 141.405887 46.900829 
z
" style="fill:#008000;opacity:0.5;stroke:#008000;stroke-linejoin:miter;"/>
   </g>
   <g id="patch_105">
    <path clip-path="url(#pa2998e4cbb)" d="M 234.831214 139.802106 
C 236.238981 139.802106 237.589278 139.353084 238.584719 138.553933 
C 239.58016 137.754783 240.139472 136.670749 240.139472 135.540579 
C 240.139472 134.410409 239.58016 133.326376 238.584719 132.527225 
C 237.589278 131.728074 236.238981 131.279053 234.831214 131.279053 
C 233.423448 131.279053 232.073151 131.728074 231.07771 132.527225 
C 230.082269 133.326376 229.522957 134.410409 229.522957 135.540579 
C 229.522957 136.670749 230.082269 137.754783 231.07771 138.553933 
C 232.073151 139.353084 233.423448 139.802106 234.831214 139.802106 
z
" style="fill:#008000;opacity:0.5;stroke:#008000;stroke-linejoin:miter;"/>
   </g>
   <g id="patch_106">
    <path clip-path="url(#pa2998e4cbb)" d="M 88.85414 270.204816 
C 90.261906 270.204816 91.612204 269.755794 92.607645 268.956643 
C 93.603086 268.157492 94.162397 267.073459 94.162397 265.943289 
C 94.162397 264.813119 93.603086 263.729086 92.607645 262.929935 
C 91.612204 262.130784 90.261906 261.681763 88.85414 261.681763 
C 87.446374 261.681763 86.096076 262.130784 85.100635 262.929935 
C 84.105194 263.729086 83.545883 264.813119 83.545883 265.943289 
C 83.545883 267.073459 84.105194 268.157492 85.100635 268.956643 
C 86.096076 269.755794 87.446374 270.204816 88.85414 270.204816 
z
" style="fill:#008000;opacity:0.5;stroke:#008000;stroke-linejoin:miter;"/>
   </g>
   <g id="patch_107">
    <path clip-path="url(#pa2998e4cbb)" d="M 79.830103 248.044878 
C 81.237869 248.044878 82.588166 247.595857 83.583607 246.796706 
C 84.579049 245.997555 85.13836 244.913521 85.13836 243.783351 
C 85.13836 242.653181 84.579049 241.569148 83.583607 240.769997 
C 82.588166 239.970846 81.237869 239.521825 79.830103 239.521825 
C 78.422336 239.521825 77.072039 239.970846 76.076598 240.769997 
C 75.081157 241.569148 74.521845 242.653181 74.521845 243.783351 
C 74.521845 244.913521 75.081157 245.997555 76.076598 246.796706 
C 77.072039 247.595857 78.422336 248.044878 79.830103 248.044878 
z
" style="fill:#008000;opacity:0.5;stroke:#008000;stroke-linejoin:miter;"/>
   </g>
   <g id="patch_108">
    <path clip-path="url(#pa2998e4cbb)" d="M 165.293044 171.763554 
C 166.700811 171.763554 168.051108 171.314533 169.046549 170.515382 
C 170.04199 169.716231 170.601302 168.632198 170.601302 167.502028 
C 170.601302 166.371858 170.04199 165.287824 169.046549 164.488673 
C 168.051108 163.689522 166.700811 163.240501 165.293044 163.240501 
C 163.885278 163.240501 162.534981 163.689522 161.53954 164.488673 
C 160.544099 165.287824 159.984787 166.371858 159.984787 167.502028 
C 159.984787 168.632198 160.544099 169.716231 161.53954 170.515382 
C 162.534981 171.314533 163.885278 171.763554 165.293044 171.763554 
z
" style="fill:#008000;opacity:0.5;stroke:#008000;stroke-linejoin:miter;"/>
   </g>
   <g id="patch_109">
    <path clip-path="url(#pa2998e4cbb)" d="M 109.556343 121.477542 
C 110.96411 121.477542 112.314407 121.02852 113.309848 120.22937 
C 114.305289 119.430219 114.864601 118.346185 114.864601 117.216015 
C 114.864601 116.085845 114.305289 115.001812 113.309848 114.202661 
C 112.314407 113.40351 110.96411 112.954489 109.556343 112.954489 
C 108.148577 112.954489 106.79828 113.40351 105.802839 114.202661 
C 104.807398 115.001812 104.248086 116.085845 104.248086 117.216015 
C 104.248086 118.346185 104.807398 119.430219 105.802839 120.22937 
C 106.79828 121.02852 108.148577 121.477542 109.556343 121.477542 
z
" style="fill:#008000;opacity:0.5;stroke:#008000;stroke-linejoin:miter;"/>
   </g>
   <g id="patch_110">
    <path clip-path="url(#pa2998e4cbb)" d="M 79.299277 90.794551 
C 80.707043 90.794551 82.057341 90.34553 83.052782 89.546379 
C 84.048223 88.747228 84.607534 87.663195 84.607534 86.533025 
C 84.607534 85.402855 84.048223 84.318821 83.052782 83.51967 
C 82.057341 82.72052 80.707043 82.271498 79.299277 82.271498 
C 77.891511 82.271498 76.541213 82.72052 75.545772 83.51967 
C 74.550331 84.318821 73.99102 85.402855 73.99102 86.533025 
C 73.99102 87.663195 74.550331 88.747228 75.545772 89.546379 
C 76.541213 90.34553 77.891511 90.794551 79.299277 90.794551 
z
" style="fill:#008000;opacity:0.5;stroke:#008000;stroke-linejoin:miter;"/>
   </g>
   <g id="patch_111">
    <path d="M 141.405887 42.639302 
Q 188.118551 89.089941 234.831214 135.540579 
" style="fill:none;opacity:0.5;stroke:#008000;stroke-linecap:round;stroke-width:2;"/>
   </g>
   <g id="patch_112">
    <path d="M 234.831214 135.540579 
Q 161.842677 200.741934 88.85414 265.943289 
" style="fill:none;opacity:0.5;stroke:#008000;stroke-linecap:round;stroke-width:2;"/>
   </g>
   <g id="patch_113">
    <path d="M 88.85414 265.943289 
Q 84.342121 254.86332 79.830103 243.783351 
" style="fill:none;opacity:0.5;stroke:#008000;stroke-linecap:round;stroke-width:2;"/>
   </g>
   <g id="patch_114">
    <path d="M 79.830103 243.783351 
Q 122.561574 205.64269 165.293044 167.502028 
" style="fill:none;opacity:0.5;stroke:#008000;stroke-linecap:round;stroke-width:2;"/>
   </g>
   <g id="patch_115">
    <path d="M 165.293044 167.502028 
Q 137.424694 142.359021 109.556343 117.216015 
" style="fill:none;opacity:0.5;stroke:#008000;stroke-linecap:round;stroke-width:2;"/>
   </g>
   <g id="patch_116">
    <path d="M 109.556343 117.216015 
Q 94.42781 101.87452 79.299277 86.533025 
" style="fill:none;opacity:0.5;stroke:#008000;stroke-linecap:round;stroke-width:2;"/>
   </g>
   <g id="patch_117">
    <path d="M 79.299277 86.533025 
Q 110.352582 64.586163 141.405887 42.639302 
" style="fill:none;opacity:0.5;stroke:#008000;stroke-linecap:round;stroke-width:2;"/>
   </g>
   <g id="line2d_1">
    <path clip-path="url(#pa2998e4cbb)" d="M 321.090395 29.854723 
L 402.837557 111.676031 
L 278.624337 227.589551 
L 271.192777 209.69114 
L 351.878287 136.392884 
L 298.795714 88.663788 
L 270.131125 64.79924 
" style="fill:none;stroke:#ff0000;stroke-linecap:square;stroke-width:0.2;"/>
   </g>
   <g id="line2d_2">
    <path clip-path="url(#pa2998e4cbb)" d="M 320.559569 55.423882 
L 425.663063 159.405127 
L 257.922134 304.297027 
L 247.305619 277.875563 
L 337.545992 198.611171 
L 279.155163 145.768243 
L 247.305619 108.26681 
" style="fill:none;stroke:#0000ff;stroke-linecap:square;stroke-width:0.2;"/>
   </g>
   <g id="line2d_3">
    <path clip-path="url(#pa2998e4cbb)" d="M 141.6713 29.854723 
L 223.418461 111.676031 
L 99.205242 227.589551 
L 91.773682 209.69114 
L 172.459192 136.392884 
L 119.376619 88.663788 
L 90.71203 64.79924 
" style="fill:none;stroke:#ff0000;stroke-linecap:square;stroke-width:0.2;"/>
   </g>
   <g id="line2d_4">
    <path clip-path="url(#pa2998e4cbb)" d="M 141.140474 55.423882 
L 246.243968 159.405127 
L 78.503038 304.297027 
L 67.886524 277.875563 
L 158.126897 198.611171 
L 99.736067 145.768243 
L 67.886524 108.26681 
" style="fill:none;stroke:#0000ff;stroke-linecap:square;stroke-width:0.2;"/>
   </g>
  </g>
 </g>
 <defs>
  <clipPath id="pa2998e4cbb">
   <rect height="307.51175" width="409.903625" x="37.576375" y="13.32"/>
  </clipPath>
 </defs>
</svg>
