<?xml version="1.0" encoding="utf-8" standalone="no"?>
<!DOCTYPE svg PUBLIC "-//W3C//DTD SVG 1.1//EN"
  "http://www.w3.org/Graphics/SVG/1.1/DTD/svg11.dtd">
<!-- Created with matplotlib (http://matplotlib.org/) -->
<svg height="345.6pt" version="1.1" viewBox="0 0 460.8 345.6" width="460.8pt" xmlns="http://www.w3.org/2000/svg" xmlns:xlink="http://www.w3.org/1999/xlink">
 <defs>
  <style type="text/css">
*{stroke-linecap:butt;stroke-linejoin:round;}
  </style>
 </defs>
 <g id="figure_1">
  <g id="patch_1">
   <path d="M 0 345.6 
L 460.8 345.6 
L 460.8 0 
L 0 0 
z
" style="fill:#ffffff;"/>
  </g>
  <g id="axes_1">
   <g id="patch_2">
    <path clip-path="url(#pfb83ad1b57)" d="M 341.159713 229.269736 
C 341.720767 229.269736 342.258917 229.092024 342.655642 228.775739 
C 343.052368 228.459453 343.275277 228.030418 343.275277 227.583123 
C 343.275277 227.135828 343.052368 226.706793 342.655642 226.390508 
C 342.258917 226.074222 341.720767 225.89651 341.159713 225.89651 
C 340.598659 225.89651 340.060509 226.074222 339.663784 226.390508 
C 339.267059 226.706793 339.04415 227.135828 339.04415 227.583123 
C 339.04415 228.030418 339.267059 228.459453 339.663784 228.775739 
C 340.060509 229.092024 340.598659 229.269736 341.159713 229.269736 
z
" style="fill:#ff0000;opacity:0.2;stroke:#ff0000;stroke-linejoin:miter;"/>
   </g>
   <g id="patch_3">
    <path clip-path="url(#pfb83ad1b57)" d="M 259.710525 148.312303 
C 260.271579 148.312303 260.809729 148.134591 261.206454 147.818306 
C 261.603179 147.50202 261.826088 147.072985 261.826088 146.62569 
C 261.826088 146.178395 261.603179 145.74936 261.206454 145.433074 
C 260.809729 145.116789 260.271579 144.939077 259.710525 144.939077 
C 259.149471 144.939077 258.611321 145.116789 258.214596 145.433074 
C 257.817871 145.74936 257.594962 146.178395 257.594962 146.62569 
C 257.594962 147.072985 257.817871 147.50202 258.214596 147.818306 
C 258.611321 148.134591 259.149471 148.312303 259.710525 148.312303 
z
" style="fill:#ff0000;opacity:0.2;stroke:#ff0000;stroke-linejoin:miter;"/>
   </g>
   <g id="patch_4">
    <path clip-path="url(#pfb83ad1b57)" d="M 383.47098 33.622606 
C 384.032034 33.622606 384.570184 33.444894 384.966909 33.128609 
C 385.363634 32.812323 385.586543 32.383288 385.586543 31.935993 
C 385.586543 31.488698 385.363634 31.059663 384.966909 30.743377 
C 384.570184 30.427092 384.032034 30.24938 383.47098 30.24938 
C 382.909926 30.24938 382.371776 30.427092 381.975051 30.743377 
C 381.578326 31.059663 381.355417 31.488698 381.355417 31.935993 
C 381.355417 32.383288 381.578326 32.812323 381.975051 33.128609 
C 382.371776 33.444894 382.909926 33.622606 383.47098 33.622606 
z
" style="fill:#ff0000;opacity:0.2;stroke:#ff0000;stroke-linejoin:miter;"/>
   </g>
   <g id="patch_5">
    <path clip-path="url(#pfb83ad1b57)" d="M 390.875452 51.332045 
C 391.436506 51.332045 391.974656 51.154333 392.371381 50.838047 
C 392.768106 50.521762 392.991015 50.092727 392.991015 49.645432 
C 392.991015 49.198137 392.768106 48.769101 392.371381 48.452816 
C 391.974656 48.136531 391.436506 47.958818 390.875452 47.958818 
C 390.314398 47.958818 389.776248 48.136531 389.379522 48.452816 
C 388.982797 48.769101 388.759888 49.198137 388.759888 49.645432 
C 388.759888 50.092727 388.982797 50.521762 389.379522 50.838047 
C 389.776248 51.154333 390.314398 51.332045 390.875452 51.332045 
z
" style="fill:#ff0000;opacity:0.2;stroke:#ff0000;stroke-linejoin:miter;"/>
   </g>
   <g id="patch_6">
    <path clip-path="url(#pfb83ad1b57)" d="M 310.484045 123.856412 
C 311.045099 123.856412 311.583249 123.6787 311.979974 123.362414 
C 312.376699 123.046129 312.599608 122.617094 312.599608 122.169799 
C 312.599608 121.722504 312.376699 121.293469 311.979974 120.977183 
C 311.583249 120.660898 311.045099 120.483186 310.484045 120.483186 
C 309.922991 120.483186 309.384841 120.660898 308.988116 120.977183 
C 308.591391 121.293469 308.368482 121.722504 308.368482 122.169799 
C 308.368482 122.617094 308.591391 123.046129 308.988116 123.362414 
C 309.384841 123.6787 309.922991 123.856412 310.484045 123.856412 
z
" style="fill:#ff0000;opacity:0.2;stroke:#ff0000;stroke-linejoin:miter;"/>
   </g>
   <g id="patch_7">
    <path clip-path="url(#pfb83ad1b57)" d="M 363.373128 171.081581 
C 363.934182 171.081581 364.472332 170.903869 364.869057 170.587584 
C 365.265783 170.271298 365.488692 169.842263 365.488692 169.394968 
C 365.488692 168.947673 365.265783 168.518638 364.869057 168.202353 
C 364.472332 167.886067 363.934182 167.708355 363.373128 167.708355 
C 362.812074 167.708355 362.273924 167.886067 361.877199 168.202353 
C 361.480474 168.518638 361.257565 168.947673 361.257565 169.394968 
C 361.257565 169.842263 361.480474 170.271298 361.877199 170.587584 
C 362.273924 170.903869 362.812074 171.081581 363.373128 171.081581 
z
" style="fill:#ff0000;opacity:0.2;stroke:#ff0000;stroke-linejoin:miter;"/>
   </g>
   <g id="patch_8">
    <path clip-path="url(#pfb83ad1b57)" d="M 391.933233 194.694166 
C 392.494287 194.694166 393.032437 194.516454 393.429162 194.200168 
C 393.825888 193.883883 394.048797 193.454848 394.048797 193.007553 
C 394.048797 192.560258 393.825888 192.131223 393.429162 191.814937 
C 393.032437 191.498652 392.494287 191.32094 391.933233 191.32094 
C 391.372179 191.32094 390.834029 191.498652 390.437304 191.814937 
C 390.040579 192.131223 389.81767 192.560258 389.81767 193.007553 
C 389.81767 193.454848 390.040579 193.883883 390.437304 194.200168 
C 390.834029 194.516454 391.372179 194.694166 391.933233 194.694166 
z
" style="fill:#ff0000;opacity:0.2;stroke:#ff0000;stroke-linejoin:miter;"/>
   </g>
   <g id="patch_9">
    <path clip-path="url(#pfb83ad1b57)" d="M 341.688604 303.480717 
C 342.249658 303.480717 342.787808 303.303005 343.184533 302.986719 
C 343.581258 302.670434 343.804167 302.241399 343.804167 301.794104 
C 343.804167 301.346809 343.581258 300.917773 343.184533 300.601488 
C 342.787808 300.285203 342.249658 300.10749 341.688604 300.10749 
C 341.12755 300.10749 340.5894 300.285203 340.192675 300.601488 
C 339.79595 300.917773 339.573041 301.346809 339.573041 301.794104 
C 339.573041 302.241399 339.79595 302.670434 340.192675 302.986719 
C 340.5894 303.303005 341.12755 303.480717 341.688604 303.480717 
z
" style="fill:#0000ff;opacity:0.2;stroke:#0000ff;stroke-linejoin:miter;"/>
   </g>
   <g id="patch_10">
    <path clip-path="url(#pfb83ad1b57)" d="M 236.968219 200.597312 
C 237.529273 200.597312 238.067423 200.4196 238.464148 200.103315 
C 238.860873 199.787029 239.083782 199.357994 239.083782 198.910699 
C 239.083782 198.463404 238.860873 198.034369 238.464148 197.718083 
C 238.067423 197.401798 237.529273 197.224086 236.968219 197.224086 
C 236.407165 197.224086 235.869015 197.401798 235.47229 197.718083 
C 235.075565 198.034369 234.852656 198.463404 234.852656 198.910699 
C 234.852656 199.357994 235.075565 199.787029 235.47229 200.103315 
C 235.869015 200.4196 236.407165 200.597312 236.968219 200.597312 
z
" style="fill:#0000ff;opacity:0.2;stroke:#0000ff;stroke-linejoin:miter;"/>
   </g>
   <g id="patch_11">
    <path clip-path="url(#pfb83ad1b57)" d="M 404.097722 57.235191 
C 404.658776 57.235191 405.196927 57.057479 405.593652 56.741193 
C 405.990377 56.424908 406.213286 55.995873 406.213286 55.548578 
C 406.213286 55.101283 405.990377 54.672247 405.593652 54.355962 
C 405.196927 54.039677 404.658776 53.861965 404.097722 53.861965 
C 403.536669 53.861965 402.998518 54.039677 402.601793 54.355962 
C 402.205068 54.672247 401.982159 55.101283 401.982159 55.548578 
C 401.982159 55.995873 402.205068 56.424908 402.601793 56.741193 
C 402.998518 57.057479 403.536669 57.235191 404.097722 57.235191 
z
" style="fill:#0000ff;opacity:0.2;stroke:#0000ff;stroke-linejoin:miter;"/>
   </g>
   <g id="patch_12">
    <path clip-path="url(#pfb83ad1b57)" d="M 414.675539 83.377695 
C 415.236593 83.377695 415.774743 83.199983 416.171468 82.883698 
C 416.568193 82.567412 416.791102 82.138377 416.791102 81.691082 
C 416.791102 81.243787 416.568193 80.814752 416.171468 80.498467 
C 415.774743 80.182181 415.236593 80.004469 414.675539 80.004469 
C 414.114485 80.004469 413.576335 80.182181 413.17961 80.498467 
C 412.782885 80.814752 412.559976 81.243787 412.559976 81.691082 
C 412.559976 82.138377 412.782885 82.567412 413.17961 82.883698 
C 413.576335 83.199983 414.114485 83.377695 414.675539 83.377695 
z
" style="fill:#0000ff;opacity:0.2;stroke:#0000ff;stroke-linejoin:miter;"/>
   </g>
   <g id="patch_13">
    <path clip-path="url(#pfb83ad1b57)" d="M 324.764097 161.805209 
C 325.325151 161.805209 325.863302 161.627497 326.260027 161.311211 
C 326.656752 160.994926 326.879661 160.565891 326.879661 160.118596 
C 326.879661 159.671301 326.656752 159.242265 326.260027 158.92598 
C 325.863302 158.609695 325.325151 158.431982 324.764097 158.431982 
C 324.203044 158.431982 323.664893 158.609695 323.268168 158.92598 
C 322.871443 159.242265 322.648534 159.671301 322.648534 160.118596 
C 322.648534 160.565891 322.871443 160.994926 323.268168 161.311211 
C 323.664893 161.627497 324.203044 161.805209 324.764097 161.805209 
z
" style="fill:#0000ff;opacity:0.2;stroke:#0000ff;stroke-linejoin:miter;"/>
   </g>
   <g id="patch_14">
    <path clip-path="url(#pfb83ad1b57)" d="M 382.942089 214.090218 
C 383.503143 214.090218 384.041293 213.912505 384.438018 213.59622 
C 384.834743 213.279935 385.057652 212.8509 385.057652 212.403605 
C 385.057652 211.956309 384.834743 211.527274 384.438018 211.210989 
C 384.041293 210.894704 383.503143 210.716991 382.942089 210.716991 
C 382.381035 210.716991 381.842885 210.894704 381.44616 211.210989 
C 381.049435 211.527274 380.826526 211.956309 380.826526 212.403605 
C 380.826526 212.8509 381.049435 213.279935 381.44616 213.59622 
C 381.842885 213.912505 382.381035 214.090218 382.942089 214.090218 
z
" style="fill:#0000ff;opacity:0.2;stroke:#0000ff;stroke-linejoin:miter;"/>
   </g>
   <g id="patch_15">
    <path clip-path="url(#pfb83ad1b57)" d="M 414.675539 251.195708 
C 415.236593 251.195708 415.774743 251.017996 416.171468 250.70171 
C 416.568193 250.385425 416.791102 249.95639 416.791102 249.509095 
C 416.791102 249.0618 416.568193 248.632764 416.171468 248.316479 
C 415.774743 248.000194 415.236593 247.822482 414.675539 247.822482 
C 414.114485 247.822482 413.576335 248.000194 413.17961 248.316479 
C 412.782885 248.632764 412.559976 249.0618 412.559976 249.509095 
C 412.559976 249.95639 412.782885 250.385425 413.17961 250.70171 
C 413.576335 251.017996 414.114485 251.195708 414.675539 251.195708 
z
" style="fill:#0000ff;opacity:0.2;stroke:#0000ff;stroke-linejoin:miter;"/>
   </g>
   <g id="patch_16">
    <path clip-path="url(#pfb83ad1b57)" d="M 341.159713 227.583123 
C 297.790665 227.583123 259.710525 190.477633 259.710525 146.62569 
C 259.710525 88.437535 316.830735 47.958818 383.47098 31.935993 
C 391.933233 35.309219 396.16436 43.742285 390.875452 49.645432 
C 351.73753 63.981644 310.484045 87.594228 310.484045 122.169799 
C 310.484045 154.215449 343.275277 168.551662 363.373128 169.394968 
C 378.182072 170.238275 391.933233 176.984727 391.933233 193.007553 
C 391.933233 205.657152 382.413198 227.583123 341.159713 227.583123 
" style="fill:none;stroke:#ff0000;stroke-linejoin:miter;stroke-width:0.5;"/>
   </g>
   <g id="patch_17">
    <path clip-path="url(#pfb83ad1b57)" d="M 341.688604 301.794104 
C 298.319556 301.794104 236.968219 272.278373 236.968219 198.910699 
C 236.968219 120.483186 316.301844 71.571403 404.097722 55.548578 
C 422.080011 57.235191 426.311137 75.787936 414.675539 81.691082 
C 376.595399 92.654068 324.764097 120.483186 324.764097 160.118596 
C 324.764097 195.537473 357.555329 207.343765 382.942089 212.403605 
C 400.924377 216.620137 414.675539 230.113043 414.675539 249.509095 
C 414.675539 278.181519 381.884307 301.794104 341.688604 301.794104 
" style="fill:none;stroke:#0000ff;stroke-linejoin:miter;stroke-width:0.5;"/>
   </g>
   <g id="patch_18">
    <path clip-path="url(#pfb83ad1b57)" d="M 341.159713 232.642963 
C 342.842875 232.642963 344.457326 232.109826 345.647501 231.16097 
C 346.837676 230.212114 347.506403 228.925008 347.506403 227.583123 
C 347.506403 226.241238 346.837676 224.954132 345.647501 224.005276 
C 344.457326 223.05642 342.842875 222.523284 341.159713 222.523284 
C 339.476551 222.523284 337.862101 223.05642 336.671926 224.005276 
C 335.481751 224.954132 334.813023 226.241238 334.813023 227.583123 
C 334.813023 228.925008 335.481751 230.212114 336.671926 231.16097 
C 337.862101 232.109826 339.476551 232.642963 341.159713 232.642963 
z
" style="fill:#0000ff;opacity:0.2;stroke:#0000ff;stroke-linejoin:miter;"/>
   </g>
   <g id="patch_19">
    <path clip-path="url(#pfb83ad1b57)" d="M 341.688604 306.853943 
C 343.371766 306.853943 344.986217 306.320807 346.176392 305.37195 
C 347.366567 304.423094 348.035294 303.135989 348.035294 301.794104 
C 348.035294 300.452218 347.366567 299.165113 346.176392 298.216257 
C 344.986217 297.267401 343.371766 296.734264 341.688604 296.734264 
C 340.005442 296.734264 338.390992 297.267401 337.200817 298.216257 
C 336.010641 299.165113 335.341914 300.452218 335.341914 301.794104 
C 335.341914 303.135989 336.010641 304.423094 337.200817 305.37195 
C 338.390992 306.320807 340.005442 306.853943 341.688604 306.853943 
z
" style="fill:#ff0000;opacity:0.2;stroke:#ff0000;stroke-linejoin:miter;"/>
   </g>
   <g id="patch_20">
    <path d="M 341.159713 227.583123 
Q 341.417041 263.689863 341.65925 297.675337 
" style="fill:none;opacity:0.5;stroke:#0000ff;stroke-linecap:round;stroke-width:3;"/>
    <path d="M 343.148522 296.164685 
L 341.65925 297.675337 
L 340.148598 296.186065 
" style="fill:none;opacity:0.5;stroke:#0000ff;stroke-linecap:round;stroke-width:3;"/>
   </g>
   <g id="patch_21">
    <path clip-path="url(#pfb83ad1b57)" d="M 259.710525 151.68553 
C 261.393687 151.68553 263.008137 151.152393 264.198313 150.203537 
C 265.388488 149.254681 266.057215 147.967575 266.057215 146.62569 
C 266.057215 145.283805 265.388488 143.996699 264.198313 143.047843 
C 263.008137 142.098987 261.393687 141.56585 259.710525 141.56585 
C 258.027363 141.56585 256.412913 142.098987 255.222737 143.047843 
C 254.032562 143.996699 253.363835 145.283805 253.363835 146.62569 
C 253.363835 147.967575 254.032562 149.254681 255.222737 150.203537 
C 256.412913 151.152393 258.027363 151.68553 259.710525 151.68553 
z
" style="fill:#0000ff;opacity:0.2;stroke:#0000ff;stroke-linejoin:miter;"/>
   </g>
   <g id="patch_22">
    <path clip-path="url(#pfb83ad1b57)" d="M 324.764097 165.178435 
C 326.447259 165.178435 328.06171 164.645299 329.251885 163.696442 
C 330.44206 162.747586 331.110787 161.460481 331.110787 160.118596 
C 331.110787 158.77671 330.44206 157.489605 329.251885 156.540749 
C 328.06171 155.591893 326.447259 155.058756 324.764097 155.058756 
C 323.080936 155.058756 321.466485 155.591893 320.27631 156.540749 
C 319.086135 157.489605 318.417407 158.77671 318.417407 160.118596 
C 318.417407 161.460481 319.086135 162.747586 320.27631 163.696442 
C 321.466485 164.645299 323.080936 165.178435 324.764097 165.178435 
z
" style="fill:#ff0000;opacity:0.2;stroke:#ff0000;stroke-linejoin:miter;"/>
   </g>
   <g id="patch_23">
    <path d="M 259.710525 146.62569 
Q 291.258569 153.16914 320.729502 159.281771 
" style="fill:none;opacity:0.5;stroke:#0000ff;stroke-linecap:round;stroke-width:3;"/>
    <path d="M 319.565396 157.508396 
L 320.729502 159.281771 
L 318.956127 160.445877 
" style="fill:none;opacity:0.5;stroke:#0000ff;stroke-linecap:round;stroke-width:3;"/>
   </g>
   <g id="patch_24">
    <path clip-path="url(#pfb83ad1b57)" d="M 383.47098 36.574179 
C 385.013878 36.574179 386.493791 36.085471 387.584785 35.215686 
C 388.675779 34.345901 389.288779 33.166054 389.288779 31.935993 
C 389.288779 30.705932 388.675779 29.526085 387.584785 28.6563 
C 386.493791 27.786515 385.013878 27.297807 383.47098 27.297807 
C 381.928082 27.297807 380.448169 27.786515 379.357175 28.6563 
C 378.266181 29.526085 377.653181 30.705932 377.653181 31.935993 
C 377.653181 33.166054 378.266181 34.345901 379.357175 35.215686 
C 380.448169 36.085471 381.928082 36.574179 383.47098 36.574179 
z
" style="fill:#0000ff;opacity:0.2;stroke:#0000ff;stroke-linejoin:miter;"/>
   </g>
   <g id="patch_25">
    <path clip-path="url(#pfb83ad1b57)" d="M 404.097722 60.186764 
C 405.640621 60.186764 407.120534 59.698055 408.211528 58.828271 
C 409.302522 57.958486 409.915522 56.778639 409.915522 55.548578 
C 409.915522 54.318516 409.302522 53.13867 408.211528 52.268885 
C 407.120534 51.3991 405.640621 50.910391 404.097722 50.910391 
C 402.554824 50.910391 401.074911 51.3991 399.983917 52.268885 
C 398.892923 53.13867 398.279923 54.318516 398.279923 55.548578 
C 398.279923 56.778639 398.892923 57.958486 399.983917 58.828271 
C 401.074911 59.698055 402.554824 60.186764 404.097722 60.186764 
z
" style="fill:#ff0000;opacity:0.2;stroke:#ff0000;stroke-linejoin:miter;"/>
   </g>
   <g id="patch_26">
    <path d="M 383.47098 31.935993 
Q 393.125917 42.988539 401.501567 52.576614 
" style="fill:none;opacity:0.5;stroke:#0000ff;stroke-linecap:round;stroke-width:2.75;"/>
    <path d="M 401.644416 50.460109 
L 401.501567 52.576614 
L 399.385062 52.433765 
" style="fill:none;opacity:0.5;stroke:#0000ff;stroke-linecap:round;stroke-width:2.75;"/>
   </g>
   <g id="patch_27">
    <path clip-path="url(#pfb83ad1b57)" d="M 390.875452 52.597005 
C 391.857296 52.597005 392.799059 52.286008 393.493328 51.732509 
C 394.187597 51.17901 394.577687 50.428198 394.577687 49.645432 
C 394.577687 48.862665 394.187597 48.111854 393.493328 47.558354 
C 392.799059 47.004855 391.857296 46.693859 390.875452 46.693859 
C 389.893607 46.693859 388.951844 47.004855 388.257576 47.558354 
C 387.563307 48.111854 387.173216 48.862665 387.173216 49.645432 
C 387.173216 50.428198 387.563307 51.17901 388.257576 51.732509 
C 388.951844 52.286008 389.893607 52.597005 390.875452 52.597005 
z
" style="fill:#0000ff;opacity:0.2;stroke:#0000ff;stroke-linejoin:miter;"/>
   </g>
   <g id="patch_28">
    <path clip-path="url(#pfb83ad1b57)" d="M 414.675539 84.642655 
C 415.657384 84.642655 416.599146 84.331659 417.293415 83.77816 
C 417.987684 83.22466 418.377775 82.473849 418.377775 81.691082 
C 418.377775 80.908316 417.987684 80.157504 417.293415 79.604005 
C 416.599146 79.050505 415.657384 78.739509 414.675539 78.739509 
C 413.693695 78.739509 412.751932 79.050505 412.057663 79.604005 
C 411.363394 80.157504 410.973303 80.908316 410.973303 81.691082 
C 410.973303 82.473849 411.363394 83.22466 412.057663 83.77816 
C 412.751932 84.331659 413.693695 84.642655 414.675539 84.642655 
z
" style="fill:#ff0000;opacity:0.2;stroke:#ff0000;stroke-linejoin:miter;"/>
   </g>
   <g id="patch_29">
    <path d="M 390.875452 49.645432 
Q 402.178459 64.864377 412.743659 79.0899 
" style="fill:none;opacity:0.5;stroke:#0000ff;stroke-linecap:round;stroke-width:1.75;"/>
    <path d="M 413.05351 76.991331 
L 412.743659 79.0899 
L 410.64509 78.780049 
" style="fill:none;opacity:0.5;stroke:#0000ff;stroke-linecap:round;stroke-width:1.75;"/>
   </g>
   <g id="patch_30">
    <path clip-path="url(#pfb83ad1b57)" d="M 310.484045 127.229638 
C 312.167207 127.229638 313.781657 126.696502 314.971833 125.747646 
C 316.162008 124.79879 316.830735 123.511684 316.830735 122.169799 
C 316.830735 120.827914 316.162008 119.540808 314.971833 118.591952 
C 313.781657 117.643096 312.167207 117.109959 310.484045 117.109959 
C 308.800883 117.109959 307.186433 117.643096 305.996257 118.591952 
C 304.806082 119.540808 304.137355 120.827914 304.137355 122.169799 
C 304.137355 123.511684 304.806082 124.79879 305.996257 125.747646 
C 307.186433 126.696502 308.800883 127.229638 310.484045 127.229638 
z
" style="fill:#0000ff;opacity:0.2;stroke:#0000ff;stroke-linejoin:miter;"/>
   </g>
   <g id="patch_31">
    <path clip-path="url(#pfb83ad1b57)" d="M 324.764097 165.178435 
C 326.447259 165.178435 328.06171 164.645299 329.251885 163.696442 
C 330.44206 162.747586 331.110787 161.460481 331.110787 160.118596 
C 331.110787 158.77671 330.44206 157.489605 329.251885 156.540749 
C 328.06171 155.591893 326.447259 155.058756 324.764097 155.058756 
C 323.080936 155.058756 321.466485 155.591893 320.27631 156.540749 
C 319.086135 157.489605 318.417407 158.77671 318.417407 160.118596 
C 318.417407 161.460481 319.086135 162.747586 320.27631 163.696442 
C 321.466485 164.645299 323.080936 165.178435 324.764097 165.178435 
z
" style="fill:#ff0000;opacity:0.2;stroke:#ff0000;stroke-linejoin:miter;"/>
   </g>
   <g id="patch_32">
    <path d="M 310.484045 122.169799 
Q 317.271079 140.206132 323.311009 156.257059 
" style="fill:none;opacity:0.5;stroke:#0000ff;stroke-linecap:round;stroke-width:3;"/>
    <path d="M 324.186621 154.324883 
L 323.311009 156.257059 
L 321.378833 155.381448 
" style="fill:none;opacity:0.5;stroke:#0000ff;stroke-linecap:round;stroke-width:3;"/>
   </g>
   <g id="patch_33">
    <path clip-path="url(#pfb83ad1b57)" d="M 363.373128 171.924888 
C 364.214709 171.924888 365.021934 171.65832 365.617022 171.183892 
C 366.21211 170.709464 366.546473 170.065911 366.546473 169.394968 
C 366.546473 168.724026 366.21211 168.080473 365.617022 167.606045 
C 365.021934 167.131617 364.214709 166.865048 363.373128 166.865048 
C 362.531547 166.865048 361.724322 167.131617 361.129235 167.606045 
C 360.534147 168.080473 360.199783 168.724026 360.199783 169.394968 
C 360.199783 170.065911 360.534147 170.709464 361.129235 171.183892 
C 361.724322 171.65832 362.531547 171.924888 363.373128 171.924888 
z
" style="fill:#0000ff;opacity:0.2;stroke:#0000ff;stroke-linejoin:miter;"/>
   </g>
   <g id="patch_34">
    <path clip-path="url(#pfb83ad1b57)" d="M 382.942089 214.933524 
C 383.78367 214.933524 384.590895 214.666956 385.185983 214.192528 
C 385.78107 213.7181 386.115434 213.074547 386.115434 212.403605 
C 386.115434 211.732662 385.78107 211.089109 385.185983 210.614681 
C 384.590895 210.140253 383.78367 209.873685 382.942089 209.873685 
C 382.100508 209.873685 381.293283 210.140253 380.698195 210.614681 
C 380.103108 211.089109 379.768744 211.732662 379.768744 212.403605 
C 379.768744 213.074547 380.103108 213.7181 380.698195 214.192528 
C 381.293283 214.666956 382.100508 214.933524 382.942089 214.933524 
z
" style="fill:#ff0000;opacity:0.2;stroke:#ff0000;stroke-linejoin:miter;"/>
   </g>
   <g id="patch_35">
    <path d="M 363.373128 169.394968 
Q 372.743751 189.98971 381.675105 209.619029 
" style="fill:none;opacity:0.5;stroke:#0000ff;stroke-linecap:round;stroke-width:1.5;"/>
    <path d="M 382.419201 207.632494 
L 381.675105 209.619029 
L 379.68857 208.874933 
" style="fill:none;opacity:0.5;stroke:#0000ff;stroke-linecap:round;stroke-width:1.5;"/>
   </g>
   <g id="patch_36">
    <path clip-path="url(#pfb83ad1b57)" d="M 391.933233 198.067392 
C 393.616395 198.067392 395.230846 197.534256 396.421021 196.5854 
C 397.611196 195.636544 398.279923 194.349438 398.279923 193.007553 
C 398.279923 191.665668 397.611196 190.378562 396.421021 189.429706 
C 395.230846 188.48085 393.616395 187.947713 391.933233 187.947713 
C 390.250071 187.947713 388.635621 188.48085 387.445446 189.429706 
C 386.255271 190.378562 385.586543 191.665668 385.586543 193.007553 
C 385.586543 194.349438 386.255271 195.636544 387.445446 196.5854 
C 388.635621 197.534256 390.250071 198.067392 391.933233 198.067392 
z
" style="fill:#0000ff;opacity:0.2;stroke:#0000ff;stroke-linejoin:miter;"/>
   </g>
   <g id="patch_37">
    <path clip-path="url(#pfb83ad1b57)" d="M 414.675539 254.568934 
C 416.358701 254.568934 417.973152 254.035798 419.163327 253.086942 
C 420.353502 252.138085 421.022229 250.85098 421.022229 249.509095 
C 421.022229 248.16721 420.353502 246.880104 419.163327 245.931248 
C 417.973152 244.982392 416.358701 244.449255 414.675539 244.449255 
C 412.992377 244.449255 411.377927 244.982392 410.187752 245.931248 
C 408.997576 246.880104 408.328849 248.16721 408.328849 249.509095 
C 408.328849 250.85098 408.997576 252.138085 410.187752 253.086942 
C 411.377927 254.035798 412.992377 254.568934 414.675539 254.568934 
z
" style="fill:#ff0000;opacity:0.2;stroke:#ff0000;stroke-linejoin:miter;"/>
   </g>
   <g id="patch_38">
    <path d="M 391.933233 193.007553 
Q 402.930299 220.328931 413.135273 245.68242 
" style="fill:none;opacity:0.5;stroke:#0000ff;stroke-linecap:round;stroke-width:3;"/>
    <path d="M 413.966689 243.730818 
L 413.135273 245.68242 
L 411.183672 244.851004 
" style="fill:none;opacity:0.5;stroke:#0000ff;stroke-linecap:round;stroke-width:3;"/>
   </g>
   <g id="patch_39">
    <path clip-path="url(#pfb83ad1b57)" d="M 341.688604 306.853943 
C 343.371766 306.853943 344.986217 306.320807 346.176392 305.37195 
C 347.366567 304.423094 348.035294 303.135989 348.035294 301.794104 
C 348.035294 300.452218 347.366567 299.165113 346.176392 298.216257 
C 344.986217 297.267401 343.371766 296.734264 341.688604 296.734264 
C 340.005442 296.734264 338.390992 297.267401 337.200817 298.216257 
C 336.010641 299.165113 335.341914 300.452218 335.341914 301.794104 
C 335.341914 303.135989 336.010641 304.423094 337.200817 305.37195 
C 338.390992 306.320807 340.005442 306.853943 341.688604 306.853943 
z
" style="fill:#0000ff;opacity:0.2;stroke:#0000ff;stroke-linejoin:miter;"/>
   </g>
   <g id="patch_40">
    <path clip-path="url(#pfb83ad1b57)" d="M 341.159713 232.642963 
C 342.842875 232.642963 344.457326 232.109826 345.647501 231.16097 
C 346.837676 230.212114 347.506403 228.925008 347.506403 227.583123 
C 347.506403 226.241238 346.837676 224.954132 345.647501 224.005276 
C 344.457326 223.05642 342.842875 222.523284 341.159713 222.523284 
C 339.476551 222.523284 337.862101 223.05642 336.671926 224.005276 
C 335.481751 224.954132 334.813023 226.241238 334.813023 227.583123 
C 334.813023 228.925008 335.481751 230.212114 336.671926 231.16097 
C 337.862101 232.109826 339.476551 232.642963 341.159713 232.642963 
z
" style="fill:#ff0000;opacity:0.2;stroke:#ff0000;stroke-linejoin:miter;"/>
   </g>
   <g id="patch_41">
    <path d="M 341.688604 301.794104 
Q 341.431277 265.687363 341.189067 231.70189 
" style="fill:none;opacity:0.5;stroke:#ff0000;stroke-linecap:round;stroke-width:3;"/>
    <path d="M 339.699795 233.212542 
L 341.189067 231.70189 
L 342.699719 233.191162 
" style="fill:none;opacity:0.5;stroke:#ff0000;stroke-linecap:round;stroke-width:3;"/>
   </g>
   <g id="patch_42">
    <path clip-path="url(#pfb83ad1b57)" d="M 236.968219 203.970539 
C 238.651381 203.970539 240.265832 203.437402 241.456007 202.488546 
C 242.646182 201.53969 243.314909 200.252584 243.314909 198.910699 
C 243.314909 197.568814 242.646182 196.281708 241.456007 195.332852 
C 240.265832 194.383996 238.651381 193.850859 236.968219 193.850859 
C 235.285057 193.850859 233.670607 194.383996 232.480432 195.332852 
C 231.290256 196.281708 230.621529 197.568814 230.621529 198.910699 
C 230.621529 200.252584 231.290256 201.53969 232.480432 202.488546 
C 233.670607 203.437402 235.285057 203.970539 236.968219 203.970539 
z
" style="fill:#0000ff;opacity:0.2;stroke:#0000ff;stroke-linejoin:miter;"/>
   </g>
   <g id="patch_43">
    <path clip-path="url(#pfb83ad1b57)" d="M 259.710525 151.68553 
C 261.393687 151.68553 263.008137 151.152393 264.198313 150.203537 
C 265.388488 149.254681 266.057215 147.967575 266.057215 146.62569 
C 266.057215 145.283805 265.388488 143.996699 264.198313 143.047843 
C 263.008137 142.098987 261.393687 141.56585 259.710525 141.56585 
C 258.027363 141.56585 256.412913 142.098987 255.222737 143.047843 
C 254.032562 143.996699 253.363835 145.283805 253.363835 146.62569 
C 253.363835 147.967575 254.032562 149.254681 255.222737 150.203537 
C 256.412913 151.152393 258.027363 151.68553 259.710525 151.68553 
z
" style="fill:#ff0000;opacity:0.2;stroke:#ff0000;stroke-linejoin:miter;"/>
   </g>
   <g id="patch_44">
    <path d="M 236.968219 198.910699 
Q 247.940299 173.685671 258.06625 150.405911 
" style="fill:none;opacity:0.5;stroke:#ff0000;stroke-linecap:round;stroke-width:3;"/>
    <path d="M 256.092434 151.183119 
L 258.06625 150.405911 
L 258.843458 152.379727 
" style="fill:none;opacity:0.5;stroke:#ff0000;stroke-linecap:round;stroke-width:3;"/>
   </g>
   <g id="patch_45">
    <path clip-path="url(#pfb83ad1b57)" d="M 404.097722 60.186764 
C 405.640621 60.186764 407.120534 59.698055 408.211528 58.828271 
C 409.302522 57.958486 409.915522 56.778639 409.915522 55.548578 
C 409.915522 54.318516 409.302522 53.13867 408.211528 52.268885 
C 407.120534 51.3991 405.640621 50.910391 404.097722 50.910391 
C 402.554824 50.910391 401.074911 51.3991 399.983917 52.268885 
C 398.892923 53.13867 398.279923 54.318516 398.279923 55.548578 
C 398.279923 56.778639 398.892923 57.958486 399.983917 58.828271 
C 401.074911 59.698055 402.554824 60.186764 404.097722 60.186764 
z
" style="fill:#0000ff;opacity:0.2;stroke:#0000ff;stroke-linejoin:miter;"/>
   </g>
   <g id="patch_46">
    <path clip-path="url(#pfb83ad1b57)" d="M 383.47098 36.574179 
C 385.013878 36.574179 386.493791 36.085471 387.584785 35.215686 
C 388.675779 34.345901 389.288779 33.166054 389.288779 31.935993 
C 389.288779 30.705932 388.675779 29.526085 387.584785 28.6563 
C 386.493791 27.786515 385.013878 27.297807 383.47098 27.297807 
C 381.928082 27.297807 380.448169 27.786515 379.357175 28.6563 
C 378.266181 29.526085 377.653181 30.705932 377.653181 31.935993 
C 377.653181 33.166054 378.266181 34.345901 379.357175 35.215686 
C 380.448169 36.085471 381.928082 36.574179 383.47098 36.574179 
z
" style="fill:#ff0000;opacity:0.2;stroke:#ff0000;stroke-linejoin:miter;"/>
   </g>
   <g id="patch_47">
    <path d="M 404.097722 55.548578 
Q 394.442785 44.496032 386.067135 34.907957 
" style="fill:none;opacity:0.5;stroke:#ff0000;stroke-linecap:round;stroke-width:2.75;"/>
    <path d="M 385.924286 37.024462 
L 386.067135 34.907957 
L 388.18364 35.050806 
" style="fill:none;opacity:0.5;stroke:#ff0000;stroke-linecap:round;stroke-width:2.75;"/>
   </g>
   <g id="patch_48">
    <path clip-path="url(#pfb83ad1b57)" d="M 414.675539 84.642655 
C 415.657384 84.642655 416.599146 84.331659 417.293415 83.77816 
C 417.987684 83.22466 418.377775 82.473849 418.377775 81.691082 
C 418.377775 80.908316 417.987684 80.157504 417.293415 79.604005 
C 416.599146 79.050505 415.657384 78.739509 414.675539 78.739509 
C 413.693695 78.739509 412.751932 79.050505 412.057663 79.604005 
C 411.363394 80.157504 410.973303 80.908316 410.973303 81.691082 
C 410.973303 82.473849 411.363394 83.22466 412.057663 83.77816 
C 412.751932 84.331659 413.693695 84.642655 414.675539 84.642655 
z
" style="fill:#0000ff;opacity:0.2;stroke:#0000ff;stroke-linejoin:miter;"/>
   </g>
   <g id="patch_49">
    <path clip-path="url(#pfb83ad1b57)" d="M 390.875452 52.597005 
C 391.857296 52.597005 392.799059 52.286008 393.493328 51.732509 
C 394.187597 51.17901 394.577687 50.428198 394.577687 49.645432 
C 394.577687 48.862665 394.187597 48.111854 393.493328 47.558354 
C 392.799059 47.004855 391.857296 46.693859 390.875452 46.693859 
C 389.893607 46.693859 388.951844 47.004855 388.257576 47.558354 
C 387.563307 48.111854 387.173216 48.862665 387.173216 49.645432 
C 387.173216 50.428198 387.563307 51.17901 388.257576 51.732509 
C 388.951844 52.286008 389.893607 52.597005 390.875452 52.597005 
z
" style="fill:#ff0000;opacity:0.2;stroke:#ff0000;stroke-linejoin:miter;"/>
   </g>
   <g id="patch_50">
    <path d="M 414.675539 81.691082 
Q 403.372531 66.472136 392.807332 52.246613 
" style="fill:none;opacity:0.5;stroke:#ff0000;stroke-linecap:round;stroke-width:1.75;"/>
    <path d="M 392.49748 54.345183 
L 392.807332 52.246613 
L 394.905901 52.556465 
" style="fill:none;opacity:0.5;stroke:#ff0000;stroke-linecap:round;stroke-width:1.75;"/>
   </g>
   <g id="patch_51">
    <path clip-path="url(#pfb83ad1b57)" d="M 324.764097 165.178435 
C 326.447259 165.178435 328.06171 164.645299 329.251885 163.696442 
C 330.44206 162.747586 331.110787 161.460481 331.110787 160.118596 
C 331.110787 158.77671 330.44206 157.489605 329.251885 156.540749 
C 328.06171 155.591893 326.447259 155.058756 324.764097 155.058756 
C 323.080936 155.058756 321.466485 155.591893 320.27631 156.540749 
C 319.086135 157.489605 318.417407 158.77671 318.417407 160.118596 
C 318.417407 161.460481 319.086135 162.747586 320.27631 163.696442 
C 321.466485 164.645299 323.080936 165.178435 324.764097 165.178435 
z
" style="fill:#0000ff;opacity:0.2;stroke:#0000ff;stroke-linejoin:miter;"/>
   </g>
   <g id="patch_52">
    <path clip-path="url(#pfb83ad1b57)" d="M 310.484045 127.229638 
C 312.167207 127.229638 313.781657 126.696502 314.971833 125.747646 
C 316.162008 124.79879 316.830735 123.511684 316.830735 122.169799 
C 316.830735 120.827914 316.162008 119.540808 314.971833 118.591952 
C 313.781657 117.643096 312.167207 117.109959 310.484045 117.109959 
C 308.800883 117.109959 307.186433 117.643096 305.996257 118.591952 
C 304.806082 119.540808 304.137355 120.827914 304.137355 122.169799 
C 304.137355 123.511684 304.806082 124.79879 305.996257 125.747646 
C 307.186433 126.696502 308.800883 127.229638 310.484045 127.229638 
z
" style="fill:#ff0000;opacity:0.2;stroke:#ff0000;stroke-linejoin:miter;"/>
   </g>
   <g id="patch_53">
    <path d="M 324.764097 160.118596 
Q 317.977063 142.082263 311.937133 126.031335 
" style="fill:none;opacity:0.5;stroke:#ff0000;stroke-linecap:round;stroke-width:3;"/>
    <path d="M 311.061521 127.963511 
L 311.937133 126.031335 
L 313.869309 126.906947 
" style="fill:none;opacity:0.5;stroke:#ff0000;stroke-linecap:round;stroke-width:3;"/>
   </g>
   <g id="patch_54">
    <path clip-path="url(#pfb83ad1b57)" d="M 382.942089 214.933524 
C 383.78367 214.933524 384.590895 214.666956 385.185983 214.192528 
C 385.78107 213.7181 386.115434 213.074547 386.115434 212.403605 
C 386.115434 211.732662 385.78107 211.089109 385.185983 210.614681 
C 384.590895 210.140253 383.78367 209.873685 382.942089 209.873685 
C 382.100508 209.873685 381.293283 210.140253 380.698195 210.614681 
C 380.103108 211.089109 379.768744 211.732662 379.768744 212.403605 
C 379.768744 213.074547 380.103108 213.7181 380.698195 214.192528 
C 381.293283 214.666956 382.100508 214.933524 382.942089 214.933524 
z
" style="fill:#0000ff;opacity:0.2;stroke:#0000ff;stroke-linejoin:miter;"/>
   </g>
   <g id="patch_55">
    <path clip-path="url(#pfb83ad1b57)" d="M 363.373128 171.924888 
C 364.214709 171.924888 365.021934 171.65832 365.617022 171.183892 
C 366.21211 170.709464 366.546473 170.065911 366.546473 169.394968 
C 366.546473 168.724026 366.21211 168.080473 365.617022 167.606045 
C 365.021934 167.131617 364.214709 166.865048 363.373128 166.865048 
C 362.531547 166.865048 361.724322 167.131617 361.129235 167.606045 
C 360.534147 168.080473 360.199783 168.724026 360.199783 169.394968 
C 360.199783 170.065911 360.534147 170.709464 361.129235 171.183892 
C 361.724322 171.65832 362.531547 171.924888 363.373128 171.924888 
z
" style="fill:#ff0000;opacity:0.2;stroke:#ff0000;stroke-linejoin:miter;"/>
   </g>
   <g id="patch_56">
    <path d="M 382.942089 212.403605 
Q 373.571466 191.808862 364.640112 172.179544 
" style="fill:none;opacity:0.5;stroke:#ff0000;stroke-linecap:round;stroke-width:1.5;"/>
    <path d="M 363.896016 174.166079 
L 364.640112 172.179544 
L 366.626647 172.92364 
" style="fill:none;opacity:0.5;stroke:#ff0000;stroke-linecap:round;stroke-width:1.5;"/>
   </g>
   <g id="patch_57">
    <path clip-path="url(#pfb83ad1b57)" d="M 414.675539 254.568934 
C 416.358701 254.568934 417.973152 254.035798 419.163327 253.086942 
C 420.353502 252.138085 421.022229 250.85098 421.022229 249.509095 
C 421.022229 248.16721 420.353502 246.880104 419.163327 245.931248 
C 417.973152 244.982392 416.358701 244.449255 414.675539 244.449255 
C 412.992377 244.449255 411.377927 244.982392 410.187752 245.931248 
C 408.997576 246.880104 408.328849 248.16721 408.328849 249.509095 
C 408.328849 250.85098 408.997576 252.138085 410.187752 253.086942 
C 411.377927 254.035798 412.992377 254.568934 414.675539 254.568934 
z
" style="fill:#0000ff;opacity:0.2;stroke:#0000ff;stroke-linejoin:miter;"/>
   </g>
   <g id="patch_58">
    <path clip-path="url(#pfb83ad1b57)" d="M 391.933233 198.067392 
C 393.616395 198.067392 395.230846 197.534256 396.421021 196.5854 
C 397.611196 195.636544 398.279923 194.349438 398.279923 193.007553 
C 398.279923 191.665668 397.611196 190.378562 396.421021 189.429706 
C 395.230846 188.48085 393.616395 187.947713 391.933233 187.947713 
C 390.250071 187.947713 388.635621 188.48085 387.445446 189.429706 
C 386.255271 190.378562 385.586543 191.665668 385.586543 193.007553 
C 385.586543 194.349438 386.255271 195.636544 387.445446 196.5854 
C 388.635621 197.534256 390.250071 198.067392 391.933233 198.067392 
z
" style="fill:#ff0000;opacity:0.2;stroke:#ff0000;stroke-linejoin:miter;"/>
   </g>
   <g id="patch_59">
    <path d="M 414.675539 249.509095 
Q 403.678474 222.187716 393.473499 196.834228 
" style="fill:none;opacity:0.5;stroke:#ff0000;stroke-linecap:round;stroke-width:3;"/>
    <path d="M 392.642084 198.785829 
L 393.473499 196.834228 
L 395.425101 197.665643 
" style="fill:none;opacity:0.5;stroke:#ff0000;stroke-linecap:round;stroke-width:3;"/>
   </g>
   <g id="patch_60">
    <path clip-path="url(#pfb83ad1b57)" d="M 341.424159 268.905146 
C 342.826794 268.905146 344.172169 268.460866 345.163982 267.670152 
C 346.155794 266.879439 346.713067 265.806851 346.713067 264.688613 
C 346.713067 263.570376 346.155794 262.497788 345.163982 261.707074 
C 344.172169 260.916361 342.826794 260.47208 341.424159 260.47208 
C 340.021524 260.47208 338.676148 260.916361 337.684336 261.707074 
C 336.692523 262.497788 336.13525 263.570376 336.13525 264.688613 
C 336.13525 265.806851 336.692523 266.879439 337.684336 267.670152 
C 338.676148 268.460866 340.021524 268.905146 341.424159 268.905146 
z
" style="fill:#008000;opacity:0.2;stroke:#008000;stroke-linejoin:miter;"/>
   </g>
   <g id="patch_61">
    <path clip-path="url(#pfb83ad1b57)" d="M 393.784351 47.958818 
C 395.186986 47.958818 396.532362 47.514538 397.524174 46.723824 
C 398.515987 45.933111 399.07326 44.860523 399.07326 43.742285 
C 399.07326 42.624048 398.515987 41.55146 397.524174 40.760746 
C 396.532362 39.970033 395.186986 39.525752 393.784351 39.525752 
C 392.381716 39.525752 391.036341 39.970033 390.044528 40.760746 
C 389.052716 41.55146 388.495443 42.624048 388.495443 43.742285 
C 388.495443 44.860523 389.052716 45.933111 390.044528 46.723824 
C 391.036341 47.514538 392.381716 47.958818 393.784351 47.958818 
z
" style="fill:#008000;opacity:0.2;stroke:#008000;stroke-linejoin:miter;"/>
   </g>
   <g id="patch_62">
    <path clip-path="url(#pfb83ad1b57)" d="M 402.775495 69.88479 
C 404.17813 69.88479 405.523506 69.440509 406.515318 68.649796 
C 407.507131 67.859083 408.064404 66.786495 408.064404 65.668257 
C 408.064404 64.550019 407.507131 63.477431 406.515318 62.686718 
C 405.523506 61.896004 404.17813 61.451724 402.775495 61.451724 
C 401.372861 61.451724 400.027485 61.896004 399.035672 62.686718 
C 398.04386 63.477431 397.486587 64.550019 397.486587 65.668257 
C 397.486587 66.786495 398.04386 67.859083 399.035672 68.649796 
C 400.027485 69.440509 401.372861 69.88479 402.775495 69.88479 
z
" style="fill:#008000;opacity:0.2;stroke:#008000;stroke-linejoin:miter;"/>
   </g>
   <g id="patch_63">
    <path clip-path="url(#pfb83ad1b57)" d="M 317.624071 145.36073 
C 319.026706 145.36073 320.372082 144.91645 321.363894 144.125736 
C 322.355707 143.335023 322.91298 142.262435 322.91298 141.144197 
C 322.91298 140.02596 322.355707 138.953372 321.363894 138.162658 
C 320.372082 137.371945 319.026706 136.927664 317.624071 136.927664 
C 316.221436 136.927664 314.876061 137.371945 313.884248 138.162658 
C 312.892436 138.953372 312.335163 140.02596 312.335163 141.144197 
C 312.335163 142.262435 312.892436 143.335023 313.884248 144.125736 
C 314.876061 144.91645 316.221436 145.36073 317.624071 145.36073 
z
" style="fill:#008000;opacity:0.2;stroke:#008000;stroke-linejoin:miter;"/>
   </g>
   <g id="patch_64">
    <path clip-path="url(#pfb83ad1b57)" d="M 373.157609 195.115819 
C 374.560244 195.115819 375.905619 194.671539 376.897432 193.880825 
C 377.889244 193.090112 378.446517 192.017524 378.446517 190.899286 
C 378.446517 189.781049 377.889244 188.708461 376.897432 187.917747 
C 375.905619 187.127034 374.560244 186.682753 373.157609 186.682753 
C 371.754974 186.682753 370.409598 187.127034 369.417786 187.917747 
C 368.425973 188.708461 367.8687 189.781049 367.8687 190.899286 
C 367.8687 192.017524 368.425973 193.090112 369.417786 193.880825 
C 370.409598 194.671539 371.754974 195.115819 373.157609 195.115819 
z
" style="fill:#008000;opacity:0.2;stroke:#008000;stroke-linejoin:miter;"/>
   </g>
   <g id="patch_65">
    <path clip-path="url(#pfb83ad1b57)" d="M 403.304386 225.474857 
C 404.707021 225.474857 406.052397 225.030576 407.044209 224.239863 
C 408.036022 223.449149 408.593295 222.376561 408.593295 221.258324 
C 408.593295 220.140086 408.036022 219.067498 407.044209 218.276785 
C 406.052397 217.486071 404.707021 217.041791 403.304386 217.041791 
C 401.901751 217.041791 400.556376 217.486071 399.564563 218.276785 
C 398.572751 219.067498 398.015478 220.140086 398.015478 221.258324 
C 398.015478 222.376561 398.572751 223.449149 399.564563 224.239863 
C 400.556376 225.030576 401.901751 225.474857 403.304386 225.474857 
z
" style="fill:#008000;opacity:0.2;stroke:#008000;stroke-linejoin:miter;"/>
   </g>
   <g id="patch_66">
    <path d="M 341.424159 264.688613 
Q 294.881765 218.728404 248.339372 172.768195 
" style="fill:none;opacity:0.5;stroke:#008000;stroke-linecap:round;stroke-width:2;"/>
   </g>
   <g id="patch_67">
    <path d="M 341.169792 228.997301 
Q 341.417041 263.689863 341.66429 298.382426 
" style="fill:none;opacity:0.5;stroke:#800080;stroke-linecap:round;stroke-width:2;"/>
    <path d="M 339.68052 230.507953 
L 341.169792 228.997301 
L 342.680444 230.486573 
" style="fill:none;opacity:0.5;stroke:#800080;stroke-linecap:round;stroke-width:2;"/>
    <path d="M 343.153562 296.871774 
L 341.66429 298.382426 
L 340.153638 296.893154 
" style="fill:none;opacity:0.5;stroke:#800080;stroke-linecap:round;stroke-width:2;"/>
   </g>
   <g id="patch_68">
    <path d="M 248.339372 172.768195 
Q 321.061862 108.25524 393.784351 43.742285 
" style="fill:none;opacity:0.5;stroke:#008000;stroke-linecap:round;stroke-width:2;"/>
   </g>
   <g id="patch_69">
    <path d="M 259.146439 147.922535 
Q 248.738445 171.850718 238.330451 195.7789 
" style="fill:none;opacity:0.5;stroke:#800080;stroke-linecap:round;stroke-width:2;"/>
    <path d="M 257.172623 148.699743 
L 259.146439 147.922535 
L 259.923647 149.89635 
" style="fill:none;opacity:0.5;stroke:#800080;stroke-linecap:round;stroke-width:2;"/>
    <path d="M 240.304267 195.001692 
L 238.330451 195.7789 
L 237.553243 193.805085 
" style="fill:none;opacity:0.5;stroke:#800080;stroke-linecap:round;stroke-width:2;"/>
   </g>
   <g id="patch_70">
    <path d="M 393.784351 43.742285 
Q 398.279923 54.705271 402.775495 65.668257 
" style="fill:none;opacity:0.5;stroke:#008000;stroke-linecap:round;stroke-width:2;"/>
   </g>
   <g id="patch_71">
    <path d="M 384.40137 33.001063 
Q 393.125917 42.988539 401.850464 52.976015 
" style="fill:none;opacity:0.5;stroke:#800080;stroke-linecap:round;stroke-width:2;"/>
    <path d="M 384.258521 35.117568 
L 384.40137 33.001063 
L 386.517876 33.143912 
" style="fill:none;opacity:0.5;stroke:#800080;stroke-linecap:round;stroke-width:2;"/>
    <path d="M 401.993313 50.85951 
L 401.850464 52.976015 
L 399.733958 52.833166 
" style="fill:none;opacity:0.5;stroke:#800080;stroke-linecap:round;stroke-width:2;"/>
   </g>
   <g id="patch_72">
    <path d="M 402.775495 65.668257 
Q 360.199783 103.406227 317.624071 141.144197 
" style="fill:none;opacity:0.5;stroke:#008000;stroke-linecap:round;stroke-width:2;"/>
   </g>
   <g id="patch_73">
    <path d="M 391.718661 50.780772 
Q 402.178459 64.864377 412.638258 78.947983 
" style="fill:none;opacity:0.5;stroke:#800080;stroke-linecap:round;stroke-width:2;"/>
    <path d="M 391.40881 52.879341 
L 391.718661 50.780772 
L 393.81723 51.090623 
" style="fill:none;opacity:0.5;stroke:#800080;stroke-linecap:round;stroke-width:2;"/>
    <path d="M 412.948109 76.849414 
L 412.638258 78.947983 
L 410.539689 78.638131 
" style="fill:none;opacity:0.5;stroke:#800080;stroke-linecap:round;stroke-width:2;"/>
   </g>
   <g id="patch_74">
    <path d="M 317.624071 141.144197 
Q 345.39084 166.021742 373.157609 190.899286 
" style="fill:none;opacity:0.5;stroke:#008000;stroke-linecap:round;stroke-width:2;"/>
   </g>
   <g id="patch_75">
    <path d="M 310.982114 123.493403 
Q 317.271079 140.206132 323.560044 156.918861 
" style="fill:none;opacity:0.5;stroke:#800080;stroke-linecap:round;stroke-width:2;"/>
    <path d="M 310.106503 125.425579 
L 310.982114 123.493403 
L 312.91429 124.369014 
" style="fill:none;opacity:0.5;stroke:#800080;stroke-linecap:round;stroke-width:2;"/>
    <path d="M 324.435656 154.986685 
L 323.560044 156.918861 
L 321.627868 156.04325 
" style="fill:none;opacity:0.5;stroke:#800080;stroke-linecap:round;stroke-width:2;"/>
   </g>
   <g id="patch_76">
    <path d="M 373.157609 190.899286 
Q 388.230997 206.078805 403.304386 221.258324 
" style="fill:none;opacity:0.5;stroke:#008000;stroke-linecap:round;stroke-width:2;"/>
   </g>
   <g id="patch_77">
    <path d="M 363.95882 170.6822 
Q 372.743751 189.98971 381.528682 209.297221 
" style="fill:none;opacity:0.5;stroke:#800080;stroke-linecap:round;stroke-width:2;"/>
    <path d="M 363.214724 172.668735 
L 363.95882 170.6822 
L 365.945355 171.426296 
" style="fill:none;opacity:0.5;stroke:#800080;stroke-linecap:round;stroke-width:2;"/>
    <path d="M 382.272778 207.310686 
L 381.528682 209.297221 
L 379.542147 208.553125 
" style="fill:none;opacity:0.5;stroke:#800080;stroke-linecap:round;stroke-width:2;"/>
   </g>
   <g id="patch_78">
    <path d="M 403.304386 221.258324 
Q 372.364272 242.973469 341.424159 264.688613 
" style="fill:none;opacity:0.5;stroke:#008000;stroke-linecap:round;stroke-width:2;"/>
   </g>
   <g id="patch_79">
    <path d="M 392.461294 194.31948 
Q 402.930299 220.328931 413.399303 246.338383 
" style="fill:none;opacity:0.5;stroke:#800080;stroke-linecap:round;stroke-width:2;"/>
    <path d="M 391.629878 196.271081 
L 392.461294 194.31948 
L 394.412895 195.150895 
" style="fill:none;opacity:0.5;stroke:#800080;stroke-linecap:round;stroke-width:2;"/>
    <path d="M 414.230719 244.386782 
L 413.399303 246.338383 
L 411.447702 245.506967 
" style="fill:none;opacity:0.5;stroke:#800080;stroke-linecap:round;stroke-width:2;"/>
   </g>
   <g id="patch_80">
    <path clip-path="url(#pfb83ad1b57)" d="M 162.394612 229.269736 
C 162.955666 229.269736 163.493816 229.092024 163.890541 228.775739 
C 164.287266 228.459453 164.510175 228.030418 164.510175 227.583123 
C 164.510175 227.135828 164.287266 226.706793 163.890541 226.390508 
C 163.493816 226.074222 162.955666 225.89651 162.394612 225.89651 
C 161.833558 225.89651 161.295408 226.074222 160.898682 226.390508 
C 160.501957 226.706793 160.279048 227.135828 160.279048 227.583123 
C 160.279048 228.030418 160.501957 228.459453 160.898682 228.775739 
C 161.295408 229.092024 161.833558 229.269736 162.394612 229.269736 
z
" style="fill:#ff0000;opacity:0.2;stroke:#ff0000;stroke-linejoin:miter;"/>
   </g>
   <g id="patch_81">
    <path clip-path="url(#pfb83ad1b57)" d="M 80.945423 148.312303 
C 81.506477 148.312303 82.044627 148.134591 82.441353 147.818306 
C 82.838078 147.50202 83.060987 147.072985 83.060987 146.62569 
C 83.060987 146.178395 82.838078 145.74936 82.441353 145.433074 
C 82.044627 145.116789 81.506477 144.939077 80.945423 144.939077 
C 80.384369 144.939077 79.846219 145.116789 79.449494 145.433074 
C 79.052769 145.74936 78.82986 146.178395 78.82986 146.62569 
C 78.82986 147.072985 79.052769 147.50202 79.449494 147.818306 
C 79.846219 148.134591 80.384369 148.312303 80.945423 148.312303 
z
" style="fill:#ff0000;opacity:0.2;stroke:#ff0000;stroke-linejoin:miter;"/>
   </g>
   <g id="patch_82">
    <path clip-path="url(#pfb83ad1b57)" d="M 204.705878 33.622606 
C 205.266932 33.622606 205.805082 33.444894 206.201807 33.128609 
C 206.598533 32.812323 206.821442 32.383288 206.821442 31.935993 
C 206.821442 31.488698 206.598533 31.059663 206.201807 30.743377 
C 205.805082 30.427092 205.266932 30.24938 204.705878 30.24938 
C 204.144824 30.24938 203.606674 30.427092 203.209949 30.743377 
C 202.813224 31.059663 202.590315 31.488698 202.590315 31.935993 
C 202.590315 32.383288 202.813224 32.812323 203.209949 33.128609 
C 203.606674 33.444894 204.144824 33.622606 204.705878 33.622606 
z
" style="fill:#ff0000;opacity:0.2;stroke:#ff0000;stroke-linejoin:miter;"/>
   </g>
   <g id="patch_83">
    <path clip-path="url(#pfb83ad1b57)" d="M 212.11035 51.332045 
C 212.671404 51.332045 213.209554 51.154333 213.606279 50.838047 
C 214.003004 50.521762 214.225913 50.092727 214.225913 49.645432 
C 214.225913 49.198137 214.003004 48.769101 213.606279 48.452816 
C 213.209554 48.136531 212.671404 47.958818 212.11035 47.958818 
C 211.549296 47.958818 211.011146 48.136531 210.614421 48.452816 
C 210.217696 48.769101 209.994787 49.198137 209.994787 49.645432 
C 209.994787 50.092727 210.217696 50.521762 210.614421 50.838047 
C 211.011146 51.154333 211.549296 51.332045 212.11035 51.332045 
z
" style="fill:#ff0000;opacity:0.2;stroke:#ff0000;stroke-linejoin:miter;"/>
   </g>
   <g id="patch_84">
    <path clip-path="url(#pfb83ad1b57)" d="M 131.718943 123.856412 
C 132.279997 123.856412 132.818147 123.6787 133.214873 123.362414 
C 133.611598 123.046129 133.834507 122.617094 133.834507 122.169799 
C 133.834507 121.722504 133.611598 121.293469 133.214873 120.977183 
C 132.818147 120.660898 132.279997 120.483186 131.718943 120.483186 
C 131.157889 120.483186 130.619739 120.660898 130.223014 120.977183 
C 129.826289 121.293469 129.60338 121.722504 129.60338 122.169799 
C 129.60338 122.617094 129.826289 123.046129 130.223014 123.362414 
C 130.619739 123.6787 131.157889 123.856412 131.718943 123.856412 
z
" style="fill:#ff0000;opacity:0.2;stroke:#ff0000;stroke-linejoin:miter;"/>
   </g>
   <g id="patch_85">
    <path clip-path="url(#pfb83ad1b57)" d="M 184.608027 171.081581 
C 185.169081 171.081581 185.707231 170.903869 186.103956 170.587584 
C 186.500681 170.271298 186.72359 169.842263 186.72359 169.394968 
C 186.72359 168.947673 186.500681 168.518638 186.103956 168.202353 
C 185.707231 167.886067 185.169081 167.708355 184.608027 167.708355 
C 184.046973 167.708355 183.508823 167.886067 183.112097 168.202353 
C 182.715372 168.518638 182.492463 168.947673 182.492463 169.394968 
C 182.492463 169.842263 182.715372 170.271298 183.112097 170.587584 
C 183.508823 170.903869 184.046973 171.081581 184.608027 171.081581 
z
" style="fill:#ff0000;opacity:0.2;stroke:#ff0000;stroke-linejoin:miter;"/>
   </g>
   <g id="patch_86">
    <path clip-path="url(#pfb83ad1b57)" d="M 213.168132 194.694166 
C 213.729186 194.694166 214.267336 194.516454 214.664061 194.200168 
C 215.060786 193.883883 215.283695 193.454848 215.283695 193.007553 
C 215.283695 192.560258 215.060786 192.131223 214.664061 191.814937 
C 214.267336 191.498652 213.729186 191.32094 213.168132 191.32094 
C 212.607078 191.32094 212.068928 191.498652 211.672202 191.814937 
C 211.275477 192.131223 211.052568 192.560258 211.052568 193.007553 
C 211.052568 193.454848 211.275477 193.883883 211.672202 194.200168 
C 212.068928 194.516454 212.607078 194.694166 213.168132 194.694166 
z
" style="fill:#ff0000;opacity:0.2;stroke:#ff0000;stroke-linejoin:miter;"/>
   </g>
   <g id="patch_87">
    <path clip-path="url(#pfb83ad1b57)" d="M 162.923502 303.480717 
C 163.484556 303.480717 164.022707 303.303005 164.419432 302.986719 
C 164.816157 302.670434 165.039066 302.241399 165.039066 301.794104 
C 165.039066 301.346809 164.816157 300.917773 164.419432 300.601488 
C 164.022707 300.285203 163.484556 300.10749 162.923502 300.10749 
C 162.362449 300.10749 161.824298 300.285203 161.427573 300.601488 
C 161.030848 300.917773 160.807939 301.346809 160.807939 301.794104 
C 160.807939 302.241399 161.030848 302.670434 161.427573 302.986719 
C 161.824298 303.303005 162.362449 303.480717 162.923502 303.480717 
z
" style="fill:#0000ff;opacity:0.2;stroke:#0000ff;stroke-linejoin:miter;"/>
   </g>
   <g id="patch_88">
    <path clip-path="url(#pfb83ad1b57)" d="M 58.203117 200.597312 
C 58.764171 200.597312 59.302322 200.4196 59.699047 200.103315 
C 60.095772 199.787029 60.318681 199.357994 60.318681 198.910699 
C 60.318681 198.463404 60.095772 198.034369 59.699047 197.718083 
C 59.302322 197.401798 58.764171 197.224086 58.203117 197.224086 
C 57.642064 197.224086 57.103913 197.401798 56.707188 197.718083 
C 56.310463 198.034369 56.087554 198.463404 56.087554 198.910699 
C 56.087554 199.357994 56.310463 199.787029 56.707188 200.103315 
C 57.103913 200.4196 57.642064 200.597312 58.203117 200.597312 
z
" style="fill:#0000ff;opacity:0.2;stroke:#0000ff;stroke-linejoin:miter;"/>
   </g>
   <g id="patch_89">
    <path clip-path="url(#pfb83ad1b57)" d="M 225.332621 57.235191 
C 225.893675 57.235191 226.431825 57.057479 226.82855 56.741193 
C 227.225275 56.424908 227.448184 55.995873 227.448184 55.548578 
C 227.448184 55.101283 227.225275 54.672247 226.82855 54.355962 
C 226.431825 54.039677 225.893675 53.861965 225.332621 53.861965 
C 224.771567 53.861965 224.233417 54.039677 223.836692 54.355962 
C 223.439967 54.672247 223.217057 55.101283 223.217057 55.548578 
C 223.217057 55.995873 223.439967 56.424908 223.836692 56.741193 
C 224.233417 57.057479 224.771567 57.235191 225.332621 57.235191 
z
" style="fill:#0000ff;opacity:0.2;stroke:#0000ff;stroke-linejoin:miter;"/>
   </g>
   <g id="patch_90">
    <path clip-path="url(#pfb83ad1b57)" d="M 235.910437 83.377695 
C 236.471491 83.377695 237.009642 83.199983 237.406367 82.883698 
C 237.803092 82.567412 238.026001 82.138377 238.026001 81.691082 
C 238.026001 81.243787 237.803092 80.814752 237.406367 80.498467 
C 237.009642 80.182181 236.471491 80.004469 235.910437 80.004469 
C 235.349384 80.004469 234.811233 80.182181 234.414508 80.498467 
C 234.017783 80.814752 233.794874 81.243787 233.794874 81.691082 
C 233.794874 82.138377 234.017783 82.567412 234.414508 82.883698 
C 234.811233 83.199983 235.349384 83.377695 235.910437 83.377695 
z
" style="fill:#0000ff;opacity:0.2;stroke:#0000ff;stroke-linejoin:miter;"/>
   </g>
   <g id="patch_91">
    <path clip-path="url(#pfb83ad1b57)" d="M 145.998996 161.805209 
C 146.56005 161.805209 147.0982 161.627497 147.494925 161.311211 
C 147.89165 160.994926 148.114559 160.565891 148.114559 160.118596 
C 148.114559 159.671301 147.89165 159.242265 147.494925 158.92598 
C 147.0982 158.609695 146.56005 158.431982 145.998996 158.431982 
C 145.437942 158.431982 144.899792 158.609695 144.503067 158.92598 
C 144.106342 159.242265 143.883432 159.671301 143.883432 160.118596 
C 143.883432 160.565891 144.106342 160.994926 144.503067 161.311211 
C 144.899792 161.627497 145.437942 161.805209 145.998996 161.805209 
z
" style="fill:#0000ff;opacity:0.2;stroke:#0000ff;stroke-linejoin:miter;"/>
   </g>
   <g id="patch_92">
    <path clip-path="url(#pfb83ad1b57)" d="M 204.176987 214.090218 
C 204.738041 214.090218 205.276192 213.912505 205.672917 213.59622 
C 206.069642 213.279935 206.292551 212.8509 206.292551 212.403605 
C 206.292551 211.956309 206.069642 211.527274 205.672917 211.210989 
C 205.276192 210.894704 204.738041 210.716991 204.176987 210.716991 
C 203.615934 210.716991 203.077783 210.894704 202.681058 211.210989 
C 202.284333 211.527274 202.061424 211.956309 202.061424 212.403605 
C 202.061424 212.8509 202.284333 213.279935 202.681058 213.59622 
C 203.077783 213.912505 203.615934 214.090218 204.176987 214.090218 
z
" style="fill:#0000ff;opacity:0.2;stroke:#0000ff;stroke-linejoin:miter;"/>
   </g>
   <g id="patch_93">
    <path clip-path="url(#pfb83ad1b57)" d="M 235.910437 251.195708 
C 236.471491 251.195708 237.009642 251.017996 237.406367 250.70171 
C 237.803092 250.385425 238.026001 249.95639 238.026001 249.509095 
C 238.026001 249.0618 237.803092 248.632764 237.406367 248.316479 
C 237.009642 248.000194 236.471491 247.822482 235.910437 247.822482 
C 235.349384 247.822482 234.811233 248.000194 234.414508 248.316479 
C 234.017783 248.632764 233.794874 249.0618 233.794874 249.509095 
C 233.794874 249.95639 234.017783 250.385425 234.414508 250.70171 
C 234.811233 251.017996 235.349384 251.195708 235.910437 251.195708 
z
" style="fill:#0000ff;opacity:0.2;stroke:#0000ff;stroke-linejoin:miter;"/>
   </g>
   <g id="patch_94">
    <path clip-path="url(#pfb83ad1b57)" d="M 162.394612 227.583123 
C 119.025563 227.583123 80.945423 190.477633 80.945423 146.62569 
C 80.945423 88.437535 138.065633 47.958818 204.705878 31.935993 
C 213.168132 35.309219 217.399258 43.742285 212.11035 49.645432 
C 172.972428 63.981644 131.718943 87.594228 131.718943 122.169799 
C 131.718943 154.215449 164.510175 168.551662 184.608027 169.394968 
C 199.41697 170.238275 213.168132 176.984727 213.168132 193.007553 
C 213.168132 205.657152 203.648097 227.583123 162.394612 227.583123 
" style="fill:none;stroke:#ff0000;stroke-linejoin:miter;stroke-width:0.5;"/>
   </g>
   <g id="patch_95">
    <path clip-path="url(#pfb83ad1b57)" d="M 162.923502 301.794104 
C 119.554454 301.794104 58.203117 272.278373 58.203117 198.910699 
C 58.203117 120.483186 137.536742 71.571403 225.332621 55.548578 
C 243.314909 57.235191 247.546036 75.787936 235.910437 81.691082 
C 197.830297 92.654068 145.998996 120.483186 145.998996 160.118596 
C 145.998996 195.537473 178.790227 207.343765 204.176987 212.403605 
C 222.159276 216.620137 235.910437 230.113043 235.910437 249.509095 
C 235.910437 278.181519 203.119206 301.794104 162.923502 301.794104 
" style="fill:none;stroke:#0000ff;stroke-linejoin:miter;stroke-width:0.5;"/>
   </g>
   <g id="patch_96">
    <path clip-path="url(#pfb83ad1b57)" d="M 162.394612 232.642963 
C 164.077774 232.642963 165.692224 232.109826 166.882399 231.16097 
C 168.072574 230.212114 168.741302 228.925008 168.741302 227.583123 
C 168.741302 226.241238 168.072574 224.954132 166.882399 224.005276 
C 165.692224 223.05642 164.077774 222.523284 162.394612 222.523284 
C 160.71145 222.523284 159.096999 223.05642 157.906824 224.005276 
C 156.716649 224.954132 156.047922 226.241238 156.047922 227.583123 
C 156.047922 228.925008 156.716649 230.212114 157.906824 231.16097 
C 159.096999 232.109826 160.71145 232.642963 162.394612 232.642963 
z
" style="fill:#0000ff;opacity:0.2;stroke:#0000ff;stroke-linejoin:miter;"/>
   </g>
   <g id="patch_97">
    <path clip-path="url(#pfb83ad1b57)" d="M 162.923502 306.853943 
C 164.606664 306.853943 166.221115 306.320807 167.41129 305.37195 
C 168.601465 304.423094 169.270192 303.135989 169.270192 301.794104 
C 169.270192 300.452218 168.601465 299.165113 167.41129 298.216257 
C 166.221115 297.267401 164.606664 296.734264 162.923502 296.734264 
C 161.240341 296.734264 159.62589 297.267401 158.435715 298.216257 
C 157.24554 299.165113 156.576812 300.452218 156.576812 301.794104 
C 156.576812 303.135989 157.24554 304.423094 158.435715 305.37195 
C 159.62589 306.320807 161.240341 306.853943 162.923502 306.853943 
z
" style="fill:#ff0000;opacity:0.2;stroke:#ff0000;stroke-linejoin:miter;"/>
   </g>
   <g id="patch_98">
    <path d="M 162.394612 227.583123 
Q 162.651939 263.689863 162.894149 297.675337 
" style="fill:none;opacity:0.5;stroke:#0000ff;stroke-linecap:round;stroke-width:3;"/>
    <path d="M 164.383421 296.164685 
L 162.894149 297.675337 
L 161.383497 296.186065 
" style="fill:none;opacity:0.5;stroke:#0000ff;stroke-linecap:round;stroke-width:3;"/>
   </g>
   <g id="patch_99">
    <path clip-path="url(#pfb83ad1b57)" d="M 80.945423 151.68553 
C 82.628585 151.68553 84.243036 151.152393 85.433211 150.203537 
C 86.623386 149.254681 87.292113 147.967575 87.292113 146.62569 
C 87.292113 145.283805 86.623386 143.996699 85.433211 143.047843 
C 84.243036 142.098987 82.628585 141.56585 80.945423 141.56585 
C 79.262261 141.56585 77.647811 142.098987 76.457636 143.047843 
C 75.267461 143.996699 74.598733 145.283805 74.598733 146.62569 
C 74.598733 147.967575 75.267461 149.254681 76.457636 150.203537 
C 77.647811 151.152393 79.262261 151.68553 80.945423 151.68553 
z
" style="fill:#0000ff;opacity:0.2;stroke:#0000ff;stroke-linejoin:miter;"/>
   </g>
   <g id="patch_100">
    <path clip-path="url(#pfb83ad1b57)" d="M 145.998996 165.178435 
C 147.682158 165.178435 149.296608 164.645299 150.486783 163.696442 
C 151.676959 162.747586 152.345686 161.460481 152.345686 160.118596 
C 152.345686 158.77671 151.676959 157.489605 150.486783 156.540749 
C 149.296608 155.591893 147.682158 155.058756 145.998996 155.058756 
C 144.315834 155.058756 142.701383 155.591893 141.511208 156.540749 
C 140.321033 157.489605 139.652306 158.77671 139.652306 160.118596 
C 139.652306 161.460481 140.321033 162.747586 141.511208 163.696442 
C 142.701383 164.645299 144.315834 165.178435 145.998996 165.178435 
z
" style="fill:#ff0000;opacity:0.2;stroke:#ff0000;stroke-linejoin:miter;"/>
   </g>
   <g id="patch_101">
    <path d="M 80.945423 146.62569 
Q 112.493468 153.16914 141.9644 159.281771 
" style="fill:none;opacity:0.5;stroke:#0000ff;stroke-linecap:round;stroke-width:3;"/>
    <path d="M 140.800294 157.508396 
L 141.9644 159.281771 
L 140.191025 160.445877 
" style="fill:none;opacity:0.5;stroke:#0000ff;stroke-linecap:round;stroke-width:3;"/>
   </g>
   <g id="patch_102">
    <path clip-path="url(#pfb83ad1b57)" d="M 204.705878 36.574179 
C 206.248777 36.574179 207.72869 36.085471 208.819684 35.215686 
C 209.910677 34.345901 210.523677 33.166054 210.523677 31.935993 
C 210.523677 30.705932 209.910677 29.526085 208.819684 28.6563 
C 207.72869 27.786515 206.248777 27.297807 204.705878 27.297807 
C 203.16298 27.297807 201.683067 27.786515 200.592073 28.6563 
C 199.501079 29.526085 198.888079 30.705932 198.888079 31.935993 
C 198.888079 33.166054 199.501079 34.345901 200.592073 35.215686 
C 201.683067 36.085471 203.16298 36.574179 204.705878 36.574179 
z
" style="fill:#0000ff;opacity:0.2;stroke:#0000ff;stroke-linejoin:miter;"/>
   </g>
   <g id="patch_103">
    <path clip-path="url(#pfb83ad1b57)" d="M 225.332621 60.186764 
C 226.875519 60.186764 228.355432 59.698055 229.446426 58.828271 
C 230.53742 57.958486 231.15042 56.778639 231.15042 55.548578 
C 231.15042 54.318516 230.53742 53.13867 229.446426 52.268885 
C 228.355432 51.3991 226.875519 50.910391 225.332621 50.910391 
C 223.789722 50.910391 222.309809 51.3991 221.218816 52.268885 
C 220.127822 53.13867 219.514822 54.318516 219.514822 55.548578 
C 219.514822 56.778639 220.127822 57.958486 221.218816 58.828271 
C 222.309809 59.698055 223.789722 60.186764 225.332621 60.186764 
z
" style="fill:#ff0000;opacity:0.2;stroke:#ff0000;stroke-linejoin:miter;"/>
   </g>
   <g id="patch_104">
    <path d="M 204.705878 31.935993 
Q 214.360815 42.988539 222.736466 52.576614 
" style="fill:none;opacity:0.5;stroke:#0000ff;stroke-linecap:round;stroke-width:2.75;"/>
    <path d="M 222.879315 50.460109 
L 222.736466 52.576614 
L 220.61996 52.433765 
" style="fill:none;opacity:0.5;stroke:#0000ff;stroke-linecap:round;stroke-width:2.75;"/>
   </g>
   <g id="patch_105">
    <path clip-path="url(#pfb83ad1b57)" d="M 212.11035 52.597005 
C 213.092194 52.597005 214.033957 52.286008 214.728226 51.732509 
C 215.422495 51.17901 215.812586 50.428198 215.812586 49.645432 
C 215.812586 48.862665 215.422495 48.111854 214.728226 47.558354 
C 214.033957 47.004855 213.092194 46.693859 212.11035 46.693859 
C 211.128506 46.693859 210.186743 47.004855 209.492474 47.558354 
C 208.798205 48.111854 208.408114 48.862665 208.408114 49.645432 
C 208.408114 50.428198 208.798205 51.17901 209.492474 51.732509 
C 210.186743 52.286008 211.128506 52.597005 212.11035 52.597005 
z
" style="fill:#0000ff;opacity:0.2;stroke:#0000ff;stroke-linejoin:miter;"/>
   </g>
   <g id="patch_106">
    <path clip-path="url(#pfb83ad1b57)" d="M 235.910437 84.642655 
C 236.892282 84.642655 237.834045 84.331659 238.528314 83.77816 
C 239.222582 83.22466 239.612673 82.473849 239.612673 81.691082 
C 239.612673 80.908316 239.222582 80.157504 238.528314 79.604005 
C 237.834045 79.050505 236.892282 78.739509 235.910437 78.739509 
C 234.928593 78.739509 233.98683 79.050505 233.292561 79.604005 
C 232.598293 80.157504 232.208202 80.908316 232.208202 81.691082 
C 232.208202 82.473849 232.598293 83.22466 233.292561 83.77816 
C 233.98683 84.331659 234.928593 84.642655 235.910437 84.642655 
z
" style="fill:#ff0000;opacity:0.2;stroke:#ff0000;stroke-linejoin:miter;"/>
   </g>
   <g id="patch_107">
    <path d="M 212.11035 49.645432 
Q 223.413358 64.864377 233.978557 79.0899 
" style="fill:none;opacity:0.5;stroke:#0000ff;stroke-linecap:round;stroke-width:1.75;"/>
    <path d="M 234.288409 76.991331 
L 233.978557 79.0899 
L 231.879988 78.780049 
" style="fill:none;opacity:0.5;stroke:#0000ff;stroke-linecap:round;stroke-width:1.75;"/>
   </g>
   <g id="patch_108">
    <path clip-path="url(#pfb83ad1b57)" d="M 131.718943 127.229638 
C 133.402105 127.229638 135.016556 126.696502 136.206731 125.747646 
C 137.396906 124.79879 138.065633 123.511684 138.065633 122.169799 
C 138.065633 120.827914 137.396906 119.540808 136.206731 118.591952 
C 135.016556 117.643096 133.402105 117.109959 131.718943 117.109959 
C 130.035781 117.109959 128.421331 117.643096 127.231156 118.591952 
C 126.040981 119.540808 125.372253 120.827914 125.372253 122.169799 
C 125.372253 123.511684 126.040981 124.79879 127.231156 125.747646 
C 128.421331 126.696502 130.035781 127.229638 131.718943 127.229638 
z
" style="fill:#0000ff;opacity:0.2;stroke:#0000ff;stroke-linejoin:miter;"/>
   </g>
   <g id="patch_109">
    <path clip-path="url(#pfb83ad1b57)" d="M 145.998996 165.178435 
C 147.682158 165.178435 149.296608 164.645299 150.486783 163.696442 
C 151.676959 162.747586 152.345686 161.460481 152.345686 160.118596 
C 152.345686 158.77671 151.676959 157.489605 150.486783 156.540749 
C 149.296608 155.591893 147.682158 155.058756 145.998996 155.058756 
C 144.315834 155.058756 142.701383 155.591893 141.511208 156.540749 
C 140.321033 157.489605 139.652306 158.77671 139.652306 160.118596 
C 139.652306 161.460481 140.321033 162.747586 141.511208 163.696442 
C 142.701383 164.645299 144.315834 165.178435 145.998996 165.178435 
z
" style="fill:#ff0000;opacity:0.2;stroke:#ff0000;stroke-linejoin:miter;"/>
   </g>
   <g id="patch_110">
    <path d="M 131.718943 122.169799 
Q 138.505978 140.206132 144.545908 156.257059 
" style="fill:none;opacity:0.5;stroke:#0000ff;stroke-linecap:round;stroke-width:3;"/>
    <path d="M 145.421519 154.324883 
L 144.545908 156.257059 
L 142.613732 155.381448 
" style="fill:none;opacity:0.5;stroke:#0000ff;stroke-linecap:round;stroke-width:3;"/>
   </g>
   <g id="patch_111">
    <path clip-path="url(#pfb83ad1b57)" d="M 184.608027 171.924888 
C 185.449608 171.924888 186.256833 171.65832 186.85192 171.183892 
C 187.447008 170.709464 187.781372 170.065911 187.781372 169.394968 
C 187.781372 168.724026 187.447008 168.080473 186.85192 167.606045 
C 186.256833 167.131617 185.449608 166.865048 184.608027 166.865048 
C 183.766446 166.865048 182.95922 167.131617 182.364133 167.606045 
C 181.769045 168.080473 181.434682 168.724026 181.434682 169.394968 
C 181.434682 170.065911 181.769045 170.709464 182.364133 171.183892 
C 182.95922 171.65832 183.766446 171.924888 184.608027 171.924888 
z
" style="fill:#0000ff;opacity:0.2;stroke:#0000ff;stroke-linejoin:miter;"/>
   </g>
   <g id="patch_112">
    <path clip-path="url(#pfb83ad1b57)" d="M 204.176987 214.933524 
C 205.018568 214.933524 205.825794 214.666956 206.420881 214.192528 
C 207.015969 213.7181 207.350332 213.074547 207.350332 212.403605 
C 207.350332 211.732662 207.015969 211.089109 206.420881 210.614681 
C 205.825794 210.140253 205.018568 209.873685 204.176987 209.873685 
C 203.335407 209.873685 202.528181 210.140253 201.933094 210.614681 
C 201.338006 211.089109 201.003642 211.732662 201.003642 212.403605 
C 201.003642 213.074547 201.338006 213.7181 201.933094 214.192528 
C 202.528181 214.666956 203.335407 214.933524 204.176987 214.933524 
z
" style="fill:#ff0000;opacity:0.2;stroke:#ff0000;stroke-linejoin:miter;"/>
   </g>
   <g id="patch_113">
    <path d="M 184.608027 169.394968 
Q 193.978649 189.98971 202.910004 209.619029 
" style="fill:none;opacity:0.5;stroke:#0000ff;stroke-linecap:round;stroke-width:1.5;"/>
    <path d="M 203.654099 207.632494 
L 202.910004 209.619029 
L 200.923469 208.874933 
" style="fill:none;opacity:0.5;stroke:#0000ff;stroke-linecap:round;stroke-width:1.5;"/>
   </g>
   <g id="patch_114">
    <path clip-path="url(#pfb83ad1b57)" d="M 213.168132 198.067392 
C 214.851294 198.067392 216.465744 197.534256 217.655919 196.5854 
C 218.846094 195.636544 219.514822 194.349438 219.514822 193.007553 
C 219.514822 191.665668 218.846094 190.378562 217.655919 189.429706 
C 216.465744 188.48085 214.851294 187.947713 213.168132 187.947713 
C 211.48497 187.947713 209.870519 188.48085 208.680344 189.429706 
C 207.490169 190.378562 206.821442 191.665668 206.821442 193.007553 
C 206.821442 194.349438 207.490169 195.636544 208.680344 196.5854 
C 209.870519 197.534256 211.48497 198.067392 213.168132 198.067392 
z
" style="fill:#0000ff;opacity:0.2;stroke:#0000ff;stroke-linejoin:miter;"/>
   </g>
   <g id="patch_115">
    <path clip-path="url(#pfb83ad1b57)" d="M 235.910437 254.568934 
C 237.593599 254.568934 239.20805 254.035798 240.398225 253.086942 
C 241.5884 252.138085 242.257127 250.85098 242.257127 249.509095 
C 242.257127 248.16721 241.5884 246.880104 240.398225 245.931248 
C 239.20805 244.982392 237.593599 244.449255 235.910437 244.449255 
C 234.227276 244.449255 232.612825 244.982392 231.42265 245.931248 
C 230.232475 246.880104 229.563747 248.16721 229.563747 249.509095 
C 229.563747 250.85098 230.232475 252.138085 231.42265 253.086942 
C 232.612825 254.035798 234.227276 254.568934 235.910437 254.568934 
z
" style="fill:#ff0000;opacity:0.2;stroke:#ff0000;stroke-linejoin:miter;"/>
   </g>
   <g id="patch_116">
    <path d="M 213.168132 193.007553 
Q 224.165197 220.328931 234.370171 245.68242 
" style="fill:none;opacity:0.5;stroke:#0000ff;stroke-linecap:round;stroke-width:3;"/>
    <path d="M 235.201587 243.730818 
L 234.370171 245.68242 
L 232.41857 244.851004 
" style="fill:none;opacity:0.5;stroke:#0000ff;stroke-linecap:round;stroke-width:3;"/>
   </g>
   <g id="patch_117">
    <path clip-path="url(#pfb83ad1b57)" d="M 162.923502 306.853943 
C 164.606664 306.853943 166.221115 306.320807 167.41129 305.37195 
C 168.601465 304.423094 169.270192 303.135989 169.270192 301.794104 
C 169.270192 300.452218 168.601465 299.165113 167.41129 298.216257 
C 166.221115 297.267401 164.606664 296.734264 162.923502 296.734264 
C 161.240341 296.734264 159.62589 297.267401 158.435715 298.216257 
C 157.24554 299.165113 156.576812 300.452218 156.576812 301.794104 
C 156.576812 303.135989 157.24554 304.423094 158.435715 305.37195 
C 159.62589 306.320807 161.240341 306.853943 162.923502 306.853943 
z
" style="fill:#0000ff;opacity:0.2;stroke:#0000ff;stroke-linejoin:miter;"/>
   </g>
   <g id="patch_118">
    <path clip-path="url(#pfb83ad1b57)" d="M 162.394612 232.642963 
C 164.077774 232.642963 165.692224 232.109826 166.882399 231.16097 
C 168.072574 230.212114 168.741302 228.925008 168.741302 227.583123 
C 168.741302 226.241238 168.072574 224.954132 166.882399 224.005276 
C 165.692224 223.05642 164.077774 222.523284 162.394612 222.523284 
C 160.71145 222.523284 159.096999 223.05642 157.906824 224.005276 
C 156.716649 224.954132 156.047922 226.241238 156.047922 227.583123 
C 156.047922 228.925008 156.716649 230.212114 157.906824 231.16097 
C 159.096999 232.109826 160.71145 232.642963 162.394612 232.642963 
z
" style="fill:#ff0000;opacity:0.2;stroke:#ff0000;stroke-linejoin:miter;"/>
   </g>
   <g id="patch_119">
    <path d="M 162.923502 301.794104 
Q 162.666175 265.687363 162.423966 231.70189 
" style="fill:none;opacity:0.5;stroke:#ff0000;stroke-linecap:round;stroke-width:3;"/>
    <path d="M 160.934694 233.212542 
L 162.423966 231.70189 
L 163.934617 233.191162 
" style="fill:none;opacity:0.5;stroke:#ff0000;stroke-linecap:round;stroke-width:3;"/>
   </g>
   <g id="patch_120">
    <path clip-path="url(#pfb83ad1b57)" d="M 58.203117 203.970539 
C 59.886279 203.970539 61.50073 203.437402 62.690905 202.488546 
C 63.88108 201.53969 64.549807 200.252584 64.549807 198.910699 
C 64.549807 197.568814 63.88108 196.281708 62.690905 195.332852 
C 61.50073 194.383996 59.886279 193.850859 58.203117 193.850859 
C 56.519956 193.850859 54.905505 194.383996 53.71533 195.332852 
C 52.525155 196.281708 51.856427 197.568814 51.856427 198.910699 
C 51.856427 200.252584 52.525155 201.53969 53.71533 202.488546 
C 54.905505 203.437402 56.519956 203.970539 58.203117 203.970539 
z
" style="fill:#0000ff;opacity:0.2;stroke:#0000ff;stroke-linejoin:miter;"/>
   </g>
   <g id="patch_121">
    <path clip-path="url(#pfb83ad1b57)" d="M 80.945423 151.68553 
C 82.628585 151.68553 84.243036 151.152393 85.433211 150.203537 
C 86.623386 149.254681 87.292113 147.967575 87.292113 146.62569 
C 87.292113 145.283805 86.623386 143.996699 85.433211 143.047843 
C 84.243036 142.098987 82.628585 141.56585 80.945423 141.56585 
C 79.262261 141.56585 77.647811 142.098987 76.457636 143.047843 
C 75.267461 143.996699 74.598733 145.283805 74.598733 146.62569 
C 74.598733 147.967575 75.267461 149.254681 76.457636 150.203537 
C 77.647811 151.152393 79.262261 151.68553 80.945423 151.68553 
z
" style="fill:#ff0000;opacity:0.2;stroke:#ff0000;stroke-linejoin:miter;"/>
   </g>
   <g id="patch_122">
    <path d="M 58.203117 198.910699 
Q 69.175197 173.685671 79.301148 150.405911 
" style="fill:none;opacity:0.5;stroke:#ff0000;stroke-linecap:round;stroke-width:3;"/>
    <path d="M 77.327333 151.183119 
L 79.301148 150.405911 
L 80.078356 152.379727 
" style="fill:none;opacity:0.5;stroke:#ff0000;stroke-linecap:round;stroke-width:3;"/>
   </g>
   <g id="patch_123">
    <path clip-path="url(#pfb83ad1b57)" d="M 225.332621 60.186764 
C 226.875519 60.186764 228.355432 59.698055 229.446426 58.828271 
C 230.53742 57.958486 231.15042 56.778639 231.15042 55.548578 
C 231.15042 54.318516 230.53742 53.13867 229.446426 52.268885 
C 228.355432 51.3991 226.875519 50.910391 225.332621 50.910391 
C 223.789722 50.910391 222.309809 51.3991 221.218816 52.268885 
C 220.127822 53.13867 219.514822 54.318516 219.514822 55.548578 
C 219.514822 56.778639 220.127822 57.958486 221.218816 58.828271 
C 222.309809 59.698055 223.789722 60.186764 225.332621 60.186764 
z
" style="fill:#0000ff;opacity:0.2;stroke:#0000ff;stroke-linejoin:miter;"/>
   </g>
   <g id="patch_124">
    <path clip-path="url(#pfb83ad1b57)" d="M 204.705878 36.574179 
C 206.248777 36.574179 207.72869 36.085471 208.819684 35.215686 
C 209.910677 34.345901 210.523677 33.166054 210.523677 31.935993 
C 210.523677 30.705932 209.910677 29.526085 208.819684 28.6563 
C 207.72869 27.786515 206.248777 27.297807 204.705878 27.297807 
C 203.16298 27.297807 201.683067 27.786515 200.592073 28.6563 
C 199.501079 29.526085 198.888079 30.705932 198.888079 31.935993 
C 198.888079 33.166054 199.501079 34.345901 200.592073 35.215686 
C 201.683067 36.085471 203.16298 36.574179 204.705878 36.574179 
z
" style="fill:#ff0000;opacity:0.2;stroke:#ff0000;stroke-linejoin:miter;"/>
   </g>
   <g id="patch_125">
    <path d="M 225.332621 55.548578 
Q 215.677684 44.496032 207.302034 34.907957 
" style="fill:none;opacity:0.5;stroke:#ff0000;stroke-linecap:round;stroke-width:2.75;"/>
    <path d="M 207.159184 37.024462 
L 207.302034 34.907957 
L 209.418539 35.050806 
" style="fill:none;opacity:0.5;stroke:#ff0000;stroke-linecap:round;stroke-width:2.75;"/>
   </g>
   <g id="patch_126">
    <path clip-path="url(#pfb83ad1b57)" d="M 235.910437 84.642655 
C 236.892282 84.642655 237.834045 84.331659 238.528314 83.77816 
C 239.222582 83.22466 239.612673 82.473849 239.612673 81.691082 
C 239.612673 80.908316 239.222582 80.157504 238.528314 79.604005 
C 237.834045 79.050505 236.892282 78.739509 235.910437 78.739509 
C 234.928593 78.739509 233.98683 79.050505 233.292561 79.604005 
C 232.598293 80.157504 232.208202 80.908316 232.208202 81.691082 
C 232.208202 82.473849 232.598293 83.22466 233.292561 83.77816 
C 233.98683 84.331659 234.928593 84.642655 235.910437 84.642655 
z
" style="fill:#0000ff;opacity:0.2;stroke:#0000ff;stroke-linejoin:miter;"/>
   </g>
   <g id="patch_127">
    <path clip-path="url(#pfb83ad1b57)" d="M 212.11035 52.597005 
C 213.092194 52.597005 214.033957 52.286008 214.728226 51.732509 
C 215.422495 51.17901 215.812586 50.428198 215.812586 49.645432 
C 215.812586 48.862665 215.422495 48.111854 214.728226 47.558354 
C 214.033957 47.004855 213.092194 46.693859 212.11035 46.693859 
C 211.128506 46.693859 210.186743 47.004855 209.492474 47.558354 
C 208.798205 48.111854 208.408114 48.862665 208.408114 49.645432 
C 208.408114 50.428198 208.798205 51.17901 209.492474 51.732509 
C 210.186743 52.286008 211.128506 52.597005 212.11035 52.597005 
z
" style="fill:#ff0000;opacity:0.2;stroke:#ff0000;stroke-linejoin:miter;"/>
   </g>
   <g id="patch_128">
    <path d="M 235.910437 81.691082 
Q 224.60743 66.472136 214.04223 52.246613 
" style="fill:none;opacity:0.5;stroke:#ff0000;stroke-linecap:round;stroke-width:1.75;"/>
    <path d="M 213.732379 54.345183 
L 214.04223 52.246613 
L 216.140799 52.556465 
" style="fill:none;opacity:0.5;stroke:#ff0000;stroke-linecap:round;stroke-width:1.75;"/>
   </g>
   <g id="patch_129">
    <path clip-path="url(#pfb83ad1b57)" d="M 145.998996 165.178435 
C 147.682158 165.178435 149.296608 164.645299 150.486783 163.696442 
C 151.676959 162.747586 152.345686 161.460481 152.345686 160.118596 
C 152.345686 158.77671 151.676959 157.489605 150.486783 156.540749 
C 149.296608 155.591893 147.682158 155.058756 145.998996 155.058756 
C 144.315834 155.058756 142.701383 155.591893 141.511208 156.540749 
C 140.321033 157.489605 139.652306 158.77671 139.652306 160.118596 
C 139.652306 161.460481 140.321033 162.747586 141.511208 163.696442 
C 142.701383 164.645299 144.315834 165.178435 145.998996 165.178435 
z
" style="fill:#0000ff;opacity:0.2;stroke:#0000ff;stroke-linejoin:miter;"/>
   </g>
   <g id="patch_130">
    <path clip-path="url(#pfb83ad1b57)" d="M 131.718943 127.229638 
C 133.402105 127.229638 135.016556 126.696502 136.206731 125.747646 
C 137.396906 124.79879 138.065633 123.511684 138.065633 122.169799 
C 138.065633 120.827914 137.396906 119.540808 136.206731 118.591952 
C 135.016556 117.643096 133.402105 117.109959 131.718943 117.109959 
C 130.035781 117.109959 128.421331 117.643096 127.231156 118.591952 
C 126.040981 119.540808 125.372253 120.827914 125.372253 122.169799 
C 125.372253 123.511684 126.040981 124.79879 127.231156 125.747646 
C 128.421331 126.696502 130.035781 127.229638 131.718943 127.229638 
z
" style="fill:#ff0000;opacity:0.2;stroke:#ff0000;stroke-linejoin:miter;"/>
   </g>
   <g id="patch_131">
    <path d="M 145.998996 160.118596 
Q 139.211962 142.082263 133.172031 126.031335 
" style="fill:none;opacity:0.5;stroke:#ff0000;stroke-linecap:round;stroke-width:3;"/>
    <path d="M 132.29642 127.963511 
L 133.172031 126.031335 
L 135.104207 126.906947 
" style="fill:none;opacity:0.5;stroke:#ff0000;stroke-linecap:round;stroke-width:3;"/>
   </g>
   <g id="patch_132">
    <path clip-path="url(#pfb83ad1b57)" d="M 204.176987 214.933524 
C 205.018568 214.933524 205.825794 214.666956 206.420881 214.192528 
C 207.015969 213.7181 207.350332 213.074547 207.350332 212.403605 
C 207.350332 211.732662 207.015969 211.089109 206.420881 210.614681 
C 205.825794 210.140253 205.018568 209.873685 204.176987 209.873685 
C 203.335407 209.873685 202.528181 210.140253 201.933094 210.614681 
C 201.338006 211.089109 201.003642 211.732662 201.003642 212.403605 
C 201.003642 213.074547 201.338006 213.7181 201.933094 214.192528 
C 202.528181 214.666956 203.335407 214.933524 204.176987 214.933524 
z
" style="fill:#0000ff;opacity:0.2;stroke:#0000ff;stroke-linejoin:miter;"/>
   </g>
   <g id="patch_133">
    <path clip-path="url(#pfb83ad1b57)" d="M 184.608027 171.924888 
C 185.449608 171.924888 186.256833 171.65832 186.85192 171.183892 
C 187.447008 170.709464 187.781372 170.065911 187.781372 169.394968 
C 187.781372 168.724026 187.447008 168.080473 186.85192 167.606045 
C 186.256833 167.131617 185.449608 166.865048 184.608027 166.865048 
C 183.766446 166.865048 182.95922 167.131617 182.364133 167.606045 
C 181.769045 168.080473 181.434682 168.724026 181.434682 169.394968 
C 181.434682 170.065911 181.769045 170.709464 182.364133 171.183892 
C 182.95922 171.65832 183.766446 171.924888 184.608027 171.924888 
z
" style="fill:#ff0000;opacity:0.2;stroke:#ff0000;stroke-linejoin:miter;"/>
   </g>
   <g id="patch_134">
    <path d="M 204.176987 212.403605 
Q 194.806365 191.808862 185.875011 172.179544 
" style="fill:none;opacity:0.5;stroke:#ff0000;stroke-linecap:round;stroke-width:1.5;"/>
    <path d="M 185.130915 174.166079 
L 185.875011 172.179544 
L 187.861546 172.92364 
" style="fill:none;opacity:0.5;stroke:#ff0000;stroke-linecap:round;stroke-width:1.5;"/>
   </g>
   <g id="patch_135">
    <path clip-path="url(#pfb83ad1b57)" d="M 235.910437 254.568934 
C 237.593599 254.568934 239.20805 254.035798 240.398225 253.086942 
C 241.5884 252.138085 242.257127 250.85098 242.257127 249.509095 
C 242.257127 248.16721 241.5884 246.880104 240.398225 245.931248 
C 239.20805 244.982392 237.593599 244.449255 235.910437 244.449255 
C 234.227276 244.449255 232.612825 244.982392 231.42265 245.931248 
C 230.232475 246.880104 229.563747 248.16721 229.563747 249.509095 
C 229.563747 250.85098 230.232475 252.138085 231.42265 253.086942 
C 232.612825 254.035798 234.227276 254.568934 235.910437 254.568934 
z
" style="fill:#0000ff;opacity:0.2;stroke:#0000ff;stroke-linejoin:miter;"/>
   </g>
   <g id="patch_136">
    <path clip-path="url(#pfb83ad1b57)" d="M 213.168132 198.067392 
C 214.851294 198.067392 216.465744 197.534256 217.655919 196.5854 
C 218.846094 195.636544 219.514822 194.349438 219.514822 193.007553 
C 219.514822 191.665668 218.846094 190.378562 217.655919 189.429706 
C 216.465744 188.48085 214.851294 187.947713 213.168132 187.947713 
C 211.48497 187.947713 209.870519 188.48085 208.680344 189.429706 
C 207.490169 190.378562 206.821442 191.665668 206.821442 193.007553 
C 206.821442 194.349438 207.490169 195.636544 208.680344 196.5854 
C 209.870519 197.534256 211.48497 198.067392 213.168132 198.067392 
z
" style="fill:#ff0000;opacity:0.2;stroke:#ff0000;stroke-linejoin:miter;"/>
   </g>
   <g id="patch_137">
    <path d="M 235.910437 249.509095 
Q 224.913372 222.187716 214.708398 196.834228 
" style="fill:none;opacity:0.5;stroke:#ff0000;stroke-linecap:round;stroke-width:3;"/>
    <path d="M 213.876982 198.785829 
L 214.708398 196.834228 
L 216.659999 197.665643 
" style="fill:none;opacity:0.5;stroke:#ff0000;stroke-linecap:round;stroke-width:3;"/>
   </g>
   <g id="patch_138">
    <path clip-path="url(#pfb83ad1b57)" d="M 162.659057 268.905146 
C 164.061692 268.905146 165.407067 268.460866 166.39888 267.670152 
C 167.390693 266.879439 167.947965 265.806851 167.947965 264.688613 
C 167.947965 263.570376 167.390693 262.497788 166.39888 261.707074 
C 165.407067 260.916361 164.061692 260.47208 162.659057 260.47208 
C 161.256422 260.47208 159.911047 260.916361 158.919234 261.707074 
C 157.927421 262.497788 157.370149 263.570376 157.370149 264.688613 
C 157.370149 265.806851 157.927421 266.879439 158.919234 267.670152 
C 159.911047 268.460866 161.256422 268.905146 162.659057 268.905146 
z
" style="fill:#008000;opacity:0.2;stroke:#008000;stroke-linejoin:miter;"/>
   </g>
   <g id="patch_139">
    <path clip-path="url(#pfb83ad1b57)" d="M 215.01925 47.958818 
C 216.421884 47.958818 217.76726 47.514538 218.759073 46.723824 
C 219.750885 45.933111 220.308158 44.860523 220.308158 43.742285 
C 220.308158 42.624048 219.750885 41.55146 218.759073 40.760746 
C 217.76726 39.970033 216.421884 39.525752 215.01925 39.525752 
C 213.616615 39.525752 212.271239 39.970033 211.279427 40.760746 
C 210.287614 41.55146 209.730341 42.624048 209.730341 43.742285 
C 209.730341 44.860523 210.287614 45.933111 211.279427 46.723824 
C 212.271239 47.514538 213.616615 47.958818 215.01925 47.958818 
z
" style="fill:#008000;opacity:0.2;stroke:#008000;stroke-linejoin:miter;"/>
   </g>
   <g id="patch_140">
    <path clip-path="url(#pfb83ad1b57)" d="M 224.010394 69.88479 
C 225.413029 69.88479 226.758404 69.440509 227.750217 68.649796 
C 228.742029 67.859083 229.299302 66.786495 229.299302 65.668257 
C 229.299302 64.550019 228.742029 63.477431 227.750217 62.686718 
C 226.758404 61.896004 225.413029 61.451724 224.010394 61.451724 
C 222.607759 61.451724 221.262383 61.896004 220.270571 62.686718 
C 219.278758 63.477431 218.721485 64.550019 218.721485 65.668257 
C 218.721485 66.786495 219.278758 67.859083 220.270571 68.649796 
C 221.262383 69.440509 222.607759 69.88479 224.010394 69.88479 
z
" style="fill:#008000;opacity:0.2;stroke:#008000;stroke-linejoin:miter;"/>
   </g>
   <g id="patch_141">
    <path clip-path="url(#pfb83ad1b57)" d="M 138.85897 145.36073 
C 140.261604 145.36073 141.60698 144.91645 142.598793 144.125736 
C 143.590605 143.335023 144.147878 142.262435 144.147878 141.144197 
C 144.147878 140.02596 143.590605 138.953372 142.598793 138.162658 
C 141.60698 137.371945 140.261604 136.927664 138.85897 136.927664 
C 137.456335 136.927664 136.110959 137.371945 135.119147 138.162658 
C 134.127334 138.953372 133.570061 140.02596 133.570061 141.144197 
C 133.570061 142.262435 134.127334 143.335023 135.119147 144.125736 
C 136.110959 144.91645 137.456335 145.36073 138.85897 145.36073 
z
" style="fill:#008000;opacity:0.2;stroke:#008000;stroke-linejoin:miter;"/>
   </g>
   <g id="patch_142">
    <path clip-path="url(#pfb83ad1b57)" d="M 194.392507 195.115819 
C 195.795142 195.115819 197.140517 194.671539 198.13233 193.880825 
C 199.124143 193.090112 199.681415 192.017524 199.681415 190.899286 
C 199.681415 189.781049 199.124143 188.708461 198.13233 187.917747 
C 197.140517 187.127034 195.795142 186.682753 194.392507 186.682753 
C 192.989872 186.682753 191.644497 187.127034 190.652684 187.917747 
C 189.660871 188.708461 189.103599 189.781049 189.103599 190.899286 
C 189.103599 192.017524 189.660871 193.090112 190.652684 193.880825 
C 191.644497 194.671539 192.989872 195.115819 194.392507 195.115819 
z
" style="fill:#008000;opacity:0.2;stroke:#008000;stroke-linejoin:miter;"/>
   </g>
   <g id="patch_143">
    <path clip-path="url(#pfb83ad1b57)" d="M 224.539285 225.474857 
C 225.941919 225.474857 227.287295 225.030576 228.279108 224.239863 
C 229.27092 223.449149 229.828193 222.376561 229.828193 221.258324 
C 229.828193 220.140086 229.27092 219.067498 228.279108 218.276785 
C 227.287295 217.486071 225.941919 217.041791 224.539285 217.041791 
C 223.13665 217.041791 221.791274 217.486071 220.799462 218.276785 
C 219.807649 219.067498 219.250376 220.140086 219.250376 221.258324 
C 219.250376 222.376561 219.807649 223.449149 220.799462 224.239863 
C 221.791274 225.030576 223.13665 225.474857 224.539285 225.474857 
z
" style="fill:#008000;opacity:0.2;stroke:#008000;stroke-linejoin:miter;"/>
   </g>
   <g id="patch_144">
    <path d="M 162.659057 264.688613 
Q 116.116664 218.728404 69.57427 172.768195 
" style="fill:none;opacity:0.5;stroke:#008000;stroke-linecap:round;stroke-width:2;"/>
   </g>
   <g id="patch_145">
    <path d="M 162.40469 228.997301 
Q 162.651939 263.689863 162.899188 298.382426 
" style="fill:none;opacity:0.5;stroke:#800080;stroke-linecap:round;stroke-width:2;"/>
    <path d="M 160.915418 230.507953 
L 162.40469 228.997301 
L 163.915342 230.486573 
" style="fill:none;opacity:0.5;stroke:#800080;stroke-linecap:round;stroke-width:2;"/>
    <path d="M 164.38846 296.871774 
L 162.899188 298.382426 
L 161.388536 296.893154 
" style="fill:none;opacity:0.5;stroke:#800080;stroke-linecap:round;stroke-width:2;"/>
   </g>
   <g id="patch_146">
    <path d="M 69.57427 172.768195 
Q 142.29676 108.25524 215.01925 43.742285 
" style="fill:none;opacity:0.5;stroke:#008000;stroke-linecap:round;stroke-width:2;"/>
   </g>
   <g id="patch_147">
    <path d="M 80.381337 147.922535 
Q 69.973343 171.850718 59.56535 195.7789 
" style="fill:none;opacity:0.5;stroke:#800080;stroke-linecap:round;stroke-width:2;"/>
    <path d="M 78.407522 148.699743 
L 80.381337 147.922535 
L 81.158545 149.89635 
" style="fill:none;opacity:0.5;stroke:#800080;stroke-linecap:round;stroke-width:2;"/>
    <path d="M 61.539165 195.001692 
L 59.56535 195.7789 
L 58.788141 193.805085 
" style="fill:none;opacity:0.5;stroke:#800080;stroke-linecap:round;stroke-width:2;"/>
   </g>
   <g id="patch_148">
    <path d="M 215.01925 43.742285 
Q 219.514822 54.705271 224.010394 65.668257 
" style="fill:none;opacity:0.5;stroke:#008000;stroke-linecap:round;stroke-width:2;"/>
   </g>
   <g id="patch_149">
    <path d="M 205.636269 33.001063 
Q 214.360815 42.988539 223.085362 52.976015 
" style="fill:none;opacity:0.5;stroke:#800080;stroke-linecap:round;stroke-width:2;"/>
    <path d="M 205.49342 35.117568 
L 205.636269 33.001063 
L 207.752774 33.143912 
" style="fill:none;opacity:0.5;stroke:#800080;stroke-linecap:round;stroke-width:2;"/>
    <path d="M 223.228211 50.85951 
L 223.085362 52.976015 
L 220.968857 52.833166 
" style="fill:none;opacity:0.5;stroke:#800080;stroke-linecap:round;stroke-width:2;"/>
   </g>
   <g id="patch_150">
    <path d="M 224.010394 65.668257 
Q 181.434682 103.406227 138.85897 141.144197 
" style="fill:none;opacity:0.5;stroke:#008000;stroke-linecap:round;stroke-width:2;"/>
   </g>
   <g id="patch_151">
    <path d="M 212.95356 50.780772 
Q 223.413358 64.864377 233.873156 78.947983 
" style="fill:none;opacity:0.5;stroke:#800080;stroke-linecap:round;stroke-width:2;"/>
    <path d="M 212.643708 52.879341 
L 212.95356 50.780772 
L 215.052129 51.090623 
" style="fill:none;opacity:0.5;stroke:#800080;stroke-linecap:round;stroke-width:2;"/>
    <path d="M 234.183008 76.849414 
L 233.873156 78.947983 
L 231.774587 78.638131 
" style="fill:none;opacity:0.5;stroke:#800080;stroke-linecap:round;stroke-width:2;"/>
   </g>
   <g id="patch_152">
    <path d="M 138.85897 141.144197 
Q 166.625738 166.021742 194.392507 190.899286 
" style="fill:none;opacity:0.5;stroke:#008000;stroke-linecap:round;stroke-width:2;"/>
   </g>
   <g id="patch_153">
    <path d="M 132.217013 123.493403 
Q 138.505978 140.206132 144.794942 156.918861 
" style="fill:none;opacity:0.5;stroke:#800080;stroke-linecap:round;stroke-width:2;"/>
    <path d="M 131.341401 125.425579 
L 132.217013 123.493403 
L 134.149189 124.369014 
" style="fill:none;opacity:0.5;stroke:#800080;stroke-linecap:round;stroke-width:2;"/>
    <path d="M 145.670554 154.986685 
L 144.794942 156.918861 
L 142.862766 156.04325 
" style="fill:none;opacity:0.5;stroke:#800080;stroke-linecap:round;stroke-width:2;"/>
   </g>
   <g id="patch_154">
    <path d="M 194.392507 190.899286 
Q 209.465896 206.078805 224.539285 221.258324 
" style="fill:none;opacity:0.5;stroke:#008000;stroke-linecap:round;stroke-width:2;"/>
   </g>
   <g id="patch_155">
    <path d="M 185.193718 170.6822 
Q 193.978649 189.98971 202.763581 209.297221 
" style="fill:none;opacity:0.5;stroke:#800080;stroke-linecap:round;stroke-width:2;"/>
    <path d="M 184.449622 172.668735 
L 185.193718 170.6822 
L 187.180253 171.426296 
" style="fill:none;opacity:0.5;stroke:#800080;stroke-linecap:round;stroke-width:2;"/>
    <path d="M 203.507677 207.310686 
L 202.763581 209.297221 
L 200.777046 208.553125 
" style="fill:none;opacity:0.5;stroke:#800080;stroke-linecap:round;stroke-width:2;"/>
   </g>
   <g id="patch_156">
    <path d="M 224.539285 221.258324 
Q 193.599171 242.973469 162.659057 264.688613 
" style="fill:none;opacity:0.5;stroke:#008000;stroke-linecap:round;stroke-width:2;"/>
   </g>
   <g id="patch_157">
    <path d="M 213.696192 194.31948 
Q 224.165197 220.328931 234.634202 246.338383 
" style="fill:none;opacity:0.5;stroke:#800080;stroke-linecap:round;stroke-width:2;"/>
    <path d="M 212.864777 196.271081 
L 213.696192 194.31948 
L 215.647794 195.150895 
" style="fill:none;opacity:0.5;stroke:#800080;stroke-linecap:round;stroke-width:2;"/>
    <path d="M 235.465617 244.386782 
L 234.634202 246.338383 
L 232.6826 245.506967 
" style="fill:none;opacity:0.5;stroke:#800080;stroke-linecap:round;stroke-width:2;"/>
   </g>
   <g id="line2d_1">
    <path clip-path="url(#pfb83ad1b57)" d="M 341.159713 227.583123 
L 259.710525 146.62569 
L 383.47098 31.935993 
L 390.875452 49.645432 
L 310.484045 122.169799 
L 363.373128 169.394968 
L 391.933233 193.007553 
" style="fill:none;stroke:#ff0000;stroke-linecap:square;stroke-width:0.2;"/>
   </g>
   <g id="line2d_2">
    <path clip-path="url(#pfb83ad1b57)" d="M 341.688604 301.794104 
L 236.968219 198.910699 
L 404.097722 55.548578 
L 414.675539 81.691082 
L 324.764097 160.118596 
L 382.942089 212.403605 
L 414.675539 249.509095 
" style="fill:none;stroke:#0000ff;stroke-linecap:square;stroke-width:0.2;"/>
   </g>
   <g id="line2d_3">
    <path clip-path="url(#pfb83ad1b57)" d="M 162.394612 227.583123 
L 80.945423 146.62569 
L 204.705878 31.935993 
L 212.11035 49.645432 
L 131.718943 122.169799 
L 184.608027 169.394968 
L 213.168132 193.007553 
" style="fill:none;stroke:#ff0000;stroke-linecap:square;stroke-width:0.2;"/>
   </g>
   <g id="line2d_4">
    <path clip-path="url(#pfb83ad1b57)" d="M 162.923502 301.794104 
L 58.203117 198.910699 
L 225.332621 55.548578 
L 235.910437 81.691082 
L 145.998996 160.118596 
L 204.176987 212.403605 
L 235.910437 249.509095 
" style="fill:none;stroke:#0000ff;stroke-linecap:square;stroke-width:0.2;"/>
   </g>
  </g>
 </g>
 <defs>
  <clipPath id="pfb83ad1b57">
   <rect height="307.51175" width="407.245942" x="37.576375" y="13.32"/>
  </clipPath>
 </defs>
</svg>
