<?xml version="1.0" encoding="utf-8" standalone="no"?>
<!DOCTYPE svg PUBLIC "-//W3C//DTD SVG 1.1//EN"
  "http://www.w3.org/Graphics/SVG/1.1/DTD/svg11.dtd">
<!-- Created with matplotlib (http://matplotlib.org/) -->
<svg height="345.6pt" version="1.1" viewBox="0 0 460.8 345.6" width="460.8pt" xmlns="http://www.w3.org/2000/svg" xmlns:xlink="http://www.w3.org/1999/xlink">
 <defs>
  <style type="text/css">
*{stroke-linecap:butt;stroke-linejoin:round;}
  </style>
 </defs>
 <g id="figure_1">
  <g id="patch_1">
   <path d="M 0 345.6 
L 460.8 345.6 
L 460.8 0 
L 0 0 
z
" style="fill:#ffffff;"/>
  </g>
  <g id="axes_1">
   <g id="patch_2">
    <path clip-path="url(#p96282bae76)" d="M 74.366646 208.695187 
C 74.785397 208.695187 75.187053 208.612446 75.483155 208.465187 
C 75.779257 208.317928 75.945628 208.118173 75.945628 207.909917 
C 75.945628 207.701661 75.779257 207.501907 75.483155 207.354648 
C 75.187053 207.207388 74.785397 207.124647 74.366646 207.124647 
C 73.947896 207.124647 73.546239 207.207388 73.250138 207.354648 
C 72.954036 207.501907 72.787665 207.701661 72.787665 207.909917 
C 72.787665 208.118173 72.954036 208.317928 73.250138 208.465187 
C 73.546239 208.612446 73.947896 208.695187 74.366646 208.695187 
z
" style="fill:#ff0000;opacity:0.2;stroke:#ff0000;stroke-linejoin:miter;"/>
   </g>
   <g id="patch_3">
    <path clip-path="url(#p96282bae76)" d="M 180.158414 85.800425 
C 180.577165 85.800425 180.978821 85.717684 181.274923 85.570425 
C 181.571024 85.423166 181.737396 85.223411 181.737396 85.015155 
C 181.737396 84.806899 181.571024 84.607145 181.274923 84.459885 
C 180.978821 84.312626 180.577165 84.229885 180.158414 84.229885 
C 179.739663 84.229885 179.338007 84.312626 179.041905 84.459885 
C 178.745804 84.607145 178.579432 84.806899 178.579432 85.015155 
C 178.579432 85.223411 178.745804 85.423166 179.041905 85.570425 
C 179.338007 85.717684 179.739663 85.800425 180.158414 85.800425 
z
" style="fill:#ff0000;opacity:0.2;stroke:#ff0000;stroke-linejoin:miter;"/>
   </g>
   <g id="patch_4">
    <path clip-path="url(#p96282bae76)" d="M 406.742275 30.046252 
C 407.161025 30.046252 407.562682 29.963511 407.858783 29.816252 
C 408.154885 29.668992 408.321256 29.469238 408.321256 29.260982 
C 408.321256 29.052726 408.154885 28.852971 407.858783 28.705712 
C 407.562682 28.558453 407.161025 28.475712 406.742275 28.475712 
C 406.323524 28.475712 405.921867 28.558453 405.625766 28.705712 
C 405.329664 28.852971 405.163293 29.052726 405.163293 29.260982 
C 405.163293 29.469238 405.329664 29.668992 405.625766 29.816252 
C 405.921867 29.963511 406.323524 30.046252 406.742275 30.046252 
z
" style="fill:#ff0000;opacity:0.2;stroke:#ff0000;stroke-linejoin:miter;"/>
   </g>
   <g id="patch_5">
    <path clip-path="url(#p96282bae76)" d="M 409.900238 38.291587 
C 410.318989 38.291587 410.720645 38.208846 411.016746 38.061587 
C 411.312848 37.914328 411.479219 37.714573 411.479219 37.506317 
C 411.479219 37.298061 411.312848 37.098307 411.016746 36.951048 
C 410.720645 36.803788 410.318989 36.721047 409.900238 36.721047 
C 409.481487 36.721047 409.079831 36.803788 408.783729 36.951048 
C 408.487628 37.098307 408.321256 37.298061 408.321256 37.506317 
C 408.321256 37.714573 408.487628 37.914328 408.783729 38.061587 
C 409.079831 38.208846 409.481487 38.291587 409.900238 38.291587 
z
" style="fill:#ff0000;opacity:0.2;stroke:#ff0000;stroke-linejoin:miter;"/>
   </g>
   <g id="patch_6">
    <path clip-path="url(#p96282bae76)" d="M 234.633279 88.54887 
C 235.05203 88.54887 235.453687 88.466129 235.749788 88.31887 
C 236.04589 88.171611 236.212261 87.971856 236.212261 87.7636 
C 236.212261 87.555344 236.04589 87.35559 235.749788 87.208331 
C 235.453687 87.061071 235.05203 86.97833 234.633279 86.97833 
C 234.214529 86.97833 233.812872 87.061071 233.516771 87.208331 
C 233.220669 87.35559 233.054298 87.555344 233.054298 87.7636 
C 233.054298 87.971856 233.220669 88.171611 233.516771 88.31887 
C 233.812872 88.466129 234.214529 88.54887 234.633279 88.54887 
z
" style="fill:#ff0000;opacity:0.2;stroke:#ff0000;stroke-linejoin:miter;"/>
   </g>
   <g id="patch_7">
    <path clip-path="url(#p96282bae76)" d="M 144.631328 207.517282 
C 145.050079 207.517282 145.451735 207.434541 145.747837 207.287282 
C 146.043938 207.140023 146.21031 206.940268 146.21031 206.732012 
C 146.21031 206.523756 146.043938 206.324002 145.747837 206.176743 
C 145.451735 206.029483 145.050079 205.946742 144.631328 205.946742 
C 144.212577 205.946742 143.810921 206.029483 143.514819 206.176743 
C 143.218718 206.324002 143.052346 206.523756 143.052346 206.732012 
C 143.052346 206.940268 143.218718 207.140023 143.514819 207.287282 
C 143.810921 207.434541 144.212577 207.517282 144.631328 207.517282 
z
" style="fill:#ff0000;opacity:0.2;stroke:#ff0000;stroke-linejoin:miter;"/>
   </g>
   <g id="patch_8">
    <path clip-path="url(#p96282bae76)" d="M 254.37055 295.074892 
C 254.7893 295.074892 255.190957 294.992151 255.487058 294.844892 
C 255.78316 294.697633 255.949531 294.497878 255.949531 294.289622 
C 255.949531 294.081366 255.78316 293.881612 255.487058 293.734353 
C 255.190957 293.587093 254.7893 293.504352 254.37055 293.504352 
C 253.951799 293.504352 253.550142 293.587093 253.254041 293.734353 
C 252.957939 293.881612 252.791568 294.081366 252.791568 294.289622 
C 252.791568 294.497878 252.957939 294.697633 253.254041 294.844892 
C 253.550142 294.992151 253.951799 295.074892 254.37055 295.074892 
z
" style="fill:#ff0000;opacity:0.2;stroke:#ff0000;stroke-linejoin:miter;"/>
   </g>
   <g id="patch_9">
    <path clip-path="url(#p96282bae76)" d="M 343.58301 235.001734 
C 344.001761 235.001734 344.403417 234.918993 344.699519 234.771734 
C 344.99562 234.624474 345.161992 234.42472 345.161992 234.216464 
C 345.161992 234.008208 344.99562 233.808453 344.699519 233.661194 
C 344.403417 233.513935 344.001761 233.431194 343.58301 233.431194 
C 343.164259 233.431194 342.762603 233.513935 342.466502 233.661194 
C 342.1704 233.808453 342.004029 234.008208 342.004029 234.216464 
C 342.004029 234.42472 342.1704 234.624474 342.466502 234.771734 
C 342.762603 234.918993 343.164259 235.001734 343.58301 235.001734 
z
" style="fill:#ff0000;opacity:0.2;stroke:#ff0000;stroke-linejoin:miter;"/>
   </g>
   <g id="patch_10">
    <path clip-path="url(#p96282bae76)" d="M 246.475642 169.431685 
C 246.894392 169.431685 247.296049 169.348944 247.59215 169.201685 
C 247.888252 169.054426 248.054623 168.854671 248.054623 168.646415 
C 248.054623 168.438159 247.888252 168.238405 247.59215 168.091145 
C 247.296049 167.943886 246.894392 167.861145 246.475642 167.861145 
C 246.056891 167.861145 245.655234 167.943886 245.359133 168.091145 
C 245.063031 168.238405 244.89666 168.438159 244.89666 168.646415 
C 244.89666 168.854671 245.063031 169.054426 245.359133 169.201685 
C 245.655234 169.348944 246.056891 169.431685 246.475642 169.431685 
z
" style="fill:#ff0000;opacity:0.2;stroke:#ff0000;stroke-linejoin:miter;"/>
   </g>
   <g id="patch_11">
    <path clip-path="url(#p96282bae76)" d="M 210.159065 172.572765 
C 210.577815 172.572765 210.979472 172.490024 211.275573 172.342765 
C 211.571675 172.195506 211.738046 171.995751 211.738046 171.787495 
C 211.738046 171.579239 211.571675 171.379485 211.275573 171.232226 
C 210.979472 171.084966 210.577815 171.002225 210.159065 171.002225 
C 209.740314 171.002225 209.338658 171.084966 209.042556 171.232226 
C 208.746454 171.379485 208.580083 171.579239 208.580083 171.787495 
C 208.580083 171.995751 208.746454 172.195506 209.042556 172.342765 
C 209.338658 172.490024 209.740314 172.572765 210.159065 172.572765 
z
" style="fill:#ff0000;opacity:0.2;stroke:#ff0000;stroke-linejoin:miter;"/>
   </g>
   <g id="patch_12">
    <path clip-path="url(#p96282bae76)" d="M 207.790592 166.290605 
C 208.209343 166.290605 208.610999 166.207864 208.907101 166.060605 
C 209.203202 165.913345 209.369574 165.713591 209.369574 165.505335 
C 209.369574 165.297079 209.203202 165.097324 208.907101 164.950065 
C 208.610999 164.802806 208.209343 164.720065 207.790592 164.720065 
C 207.371841 164.720065 206.970185 164.802806 206.674084 164.950065 
C 206.377982 165.097324 206.211611 165.297079 206.211611 165.505335 
C 206.211611 165.713591 206.377982 165.913345 206.674084 166.060605 
C 206.970185 166.207864 207.371841 166.290605 207.790592 166.290605 
z
" style="fill:#ff0000;opacity:0.2;stroke:#ff0000;stroke-linejoin:miter;"/>
   </g>
   <g id="patch_13">
    <path clip-path="url(#p96282bae76)" d="M 285.160691 154.511554 
C 285.579442 154.511554 285.981098 154.428813 286.277199 154.281554 
C 286.573301 154.134295 286.739672 153.93454 286.739672 153.726284 
C 286.739672 153.518028 286.573301 153.318274 286.277199 153.171014 
C 285.981098 153.023755 285.579442 152.941014 285.160691 152.941014 
C 284.74194 152.941014 284.340284 153.023755 284.044182 153.171014 
C 283.748081 153.318274 283.581709 153.518028 283.581709 153.726284 
C 283.581709 153.93454 283.748081 154.134295 284.044182 154.281554 
C 284.340284 154.428813 284.74194 154.511554 285.160691 154.511554 
z
" style="fill:#ff0000;opacity:0.2;stroke:#ff0000;stroke-linejoin:miter;"/>
   </g>
   <g id="patch_14">
    <path clip-path="url(#p96282bae76)" d="M 410.689729 224.793223 
C 411.108479 224.793223 411.510136 224.710482 411.806237 224.563223 
C 412.102339 224.415964 412.26871 224.216209 412.26871 224.007953 
C 412.26871 223.799697 412.102339 223.599943 411.806237 223.452684 
C 411.510136 223.305424 411.108479 223.222683 410.689729 223.222683 
C 410.270978 223.222683 409.869322 223.305424 409.57322 223.452684 
C 409.277118 223.599943 409.110747 223.799697 409.110747 224.007953 
C 409.110747 224.216209 409.277118 224.415964 409.57322 224.563223 
C 409.869322 224.710482 410.270978 224.793223 410.689729 224.793223 
z
" style="fill:#ff0000;opacity:0.2;stroke:#ff0000;stroke-linejoin:miter;"/>
   </g>
   <g id="patch_15">
    <path clip-path="url(#p96282bae76)" d="M 244.107169 306.853943 
C 244.52592 306.853943 244.927576 306.771202 245.223678 306.623943 
C 245.519779 306.476684 245.686151 306.276929 245.686151 306.068673 
C 245.686151 305.860417 245.519779 305.660663 245.223678 305.513403 
C 244.927576 305.366144 244.52592 305.283403 244.107169 305.283403 
C 243.688418 305.283403 243.286762 305.366144 242.990661 305.513403 
C 242.694559 305.660663 242.528188 305.860417 242.528188 306.068673 
C 242.528188 306.276929 242.694559 306.476684 242.990661 306.623943 
C 243.286762 306.771202 243.688418 306.853943 244.107169 306.853943 
z
" style="fill:#ff0000;opacity:0.2;stroke:#ff0000;stroke-linejoin:miter;"/>
   </g>
   <g id="patch_16">
    <path clip-path="url(#p96282bae76)" d="M 57.78734 201.235122 
C 58.20609 201.235122 58.607747 201.152381 58.903848 201.005122 
C 59.19995 200.857862 59.366321 200.658108 59.366321 200.449852 
C 59.366321 200.241596 59.19995 200.041841 58.903848 199.894582 
C 58.607747 199.747323 58.20609 199.664582 57.78734 199.664582 
C 57.368589 199.664582 56.966933 199.747323 56.670831 199.894582 
C 56.374729 200.041841 56.208358 200.241596 56.208358 200.449852 
C 56.208358 200.658108 56.374729 200.857862 56.670831 201.005122 
C 56.966933 201.152381 57.368589 201.235122 57.78734 201.235122 
z
" style="fill:#0000ff;opacity:0.2;stroke:#0000ff;stroke-linejoin:miter;"/>
   </g>
   <g id="patch_17">
    <path clip-path="url(#p96282bae76)" d="M 161.210635 82.659345 
C 161.629386 82.659345 162.031042 82.576604 162.327143 82.429345 
C 162.623245 82.282086 162.789616 82.082331 162.789616 81.874075 
C 162.789616 81.665819 162.623245 81.466065 162.327143 81.318805 
C 162.031042 81.171546 161.629386 81.088805 161.210635 81.088805 
C 160.791884 81.088805 160.390228 81.171546 160.094126 81.318805 
C 159.798025 81.466065 159.631653 81.665819 159.631653 81.874075 
C 159.631653 82.082331 159.798025 82.282086 160.094126 82.429345 
C 160.390228 82.576604 160.791884 82.659345 161.210635 82.659345 
z
" style="fill:#0000ff;opacity:0.2;stroke:#0000ff;stroke-linejoin:miter;"/>
   </g>
   <g id="patch_18">
    <path clip-path="url(#p96282bae76)" d="M 412.26871 28.868347 
C 412.687461 28.868347 413.089117 28.785606 413.385219 28.638347 
C 413.68132 28.491087 413.847692 28.291333 413.847692 28.083077 
C 413.847692 27.874821 413.68132 27.675066 413.385219 27.527807 
C 413.089117 27.380548 412.687461 27.297807 412.26871 27.297807 
C 411.849959 27.297807 411.448303 27.380548 411.152202 27.527807 
C 410.8561 27.675066 410.689729 27.874821 410.689729 28.083077 
C 410.689729 28.291333 410.8561 28.491087 411.152202 28.638347 
C 411.448303 28.785606 411.849959 28.868347 412.26871 28.868347 
z
" style="fill:#0000ff;opacity:0.2;stroke:#0000ff;stroke-linejoin:miter;"/>
   </g>
   <g id="patch_19">
    <path clip-path="url(#p96282bae76)" d="M 414.637183 42.610573 
C 415.055933 42.610573 415.45759 42.527832 415.753691 42.380572 
C 416.049793 42.233313 416.216164 42.033559 416.216164 41.825303 
C 416.216164 41.617047 416.049793 41.417292 415.753691 41.270033 
C 415.45759 41.122774 415.055933 41.040033 414.637183 41.040033 
C 414.218432 41.040033 413.816776 41.122774 413.520674 41.270033 
C 413.224572 41.417292 413.058201 41.617047 413.058201 41.825303 
C 413.058201 42.033559 413.224572 42.233313 413.520674 42.380572 
C 413.816776 42.527832 414.218432 42.610573 414.637183 42.610573 
z
" style="fill:#0000ff;opacity:0.2;stroke:#0000ff;stroke-linejoin:miter;"/>
   </g>
   <g id="patch_20">
    <path clip-path="url(#p96282bae76)" d="M 232.264807 97.579476 
C 232.683558 97.579476 233.085214 97.496735 233.381316 97.349476 
C 233.677417 97.202216 233.843789 97.002462 233.843789 96.794206 
C 233.843789 96.58595 233.677417 96.386195 233.381316 96.238936 
C 233.085214 96.091677 232.683558 96.008936 232.264807 96.008936 
C 231.846056 96.008936 231.4444 96.091677 231.148298 96.238936 
C 230.852197 96.386195 230.685825 96.58595 230.685825 96.794206 
C 230.685825 97.002462 230.852197 97.202216 231.148298 97.349476 
C 231.4444 97.496735 231.846056 97.579476 232.264807 97.579476 
z
" style="fill:#0000ff;opacity:0.2;stroke:#0000ff;stroke-linejoin:miter;"/>
   </g>
   <g id="patch_21">
    <path clip-path="url(#p96282bae76)" d="M 173.052997 197.701407 
C 173.471748 197.701407 173.873404 197.618666 174.169505 197.471407 
C 174.465607 197.324147 174.631978 197.124393 174.631978 196.916137 
C 174.631978 196.707881 174.465607 196.508126 174.169505 196.360867 
C 173.873404 196.213608 173.471748 196.130867 173.052997 196.130867 
C 172.634246 196.130867 172.23259 196.213608 171.936488 196.360867 
C 171.640387 196.508126 171.474015 196.707881 171.474015 196.916137 
C 171.474015 197.124393 171.640387 197.324147 171.936488 197.471407 
C 172.23259 197.618666 172.634246 197.701407 173.052997 197.701407 
z
" style="fill:#0000ff;opacity:0.2;stroke:#0000ff;stroke-linejoin:miter;"/>
   </g>
   <g id="patch_22">
    <path clip-path="url(#p96282bae76)" d="M 259.896985 288.400097 
C 260.315736 288.400097 260.717392 288.317356 261.013494 288.170097 
C 261.309595 288.022838 261.475967 287.823083 261.475967 287.614827 
C 261.475967 287.406571 261.309595 287.206817 261.013494 287.059557 
C 260.717392 286.912298 260.315736 286.829557 259.896985 286.829557 
C 259.478234 286.829557 259.076578 286.912298 258.780477 287.059557 
C 258.484375 287.206817 258.318004 287.406571 258.318004 287.614827 
C 258.318004 287.823083 258.484375 288.022838 258.780477 288.170097 
C 259.076578 288.317356 259.478234 288.400097 259.896985 288.400097 
z
" style="fill:#0000ff;opacity:0.2;stroke:#0000ff;stroke-linejoin:miter;"/>
   </g>
   <g id="patch_23">
    <path clip-path="url(#p96282bae76)" d="M 319.898286 244.03234 
C 320.317037 244.03234 320.718693 243.949598 321.014795 243.802339 
C 321.310896 243.65508 321.477268 243.455326 321.477268 243.247069 
C 321.477268 243.038813 321.310896 242.839059 321.014795 242.6918 
C 320.718693 242.54454 320.317037 242.461799 319.898286 242.461799 
C 319.479535 242.461799 319.077879 242.54454 318.781778 242.6918 
C 318.485676 242.839059 318.319305 243.038813 318.319305 243.247069 
C 318.319305 243.455326 318.485676 243.65508 318.781778 243.802339 
C 319.077879 243.949598 319.479535 244.03234 319.898286 244.03234 
z
" style="fill:#0000ff;opacity:0.2;stroke:#0000ff;stroke-linejoin:miter;"/>
   </g>
   <g id="patch_24">
    <path clip-path="url(#p96282bae76)" d="M 229.896335 169.431685 
C 230.315085 169.431685 230.716742 169.348944 231.012843 169.201685 
C 231.308945 169.054426 231.475316 168.854671 231.475316 168.646415 
C 231.475316 168.438159 231.308945 168.238405 231.012843 168.091145 
C 230.716742 167.943886 230.315085 167.861145 229.896335 167.861145 
C 229.477584 167.861145 229.075928 167.943886 228.779826 168.091145 
C 228.483725 168.238405 228.317353 168.438159 228.317353 168.646415 
C 228.317353 168.854671 228.483725 169.054426 228.779826 169.201685 
C 229.075928 169.348944 229.477584 169.431685 229.896335 169.431685 
z
" style="fill:#0000ff;opacity:0.2;stroke:#0000ff;stroke-linejoin:miter;"/>
   </g>
   <g id="patch_25">
    <path clip-path="url(#p96282bae76)" d="M 211.738046 169.82432 
C 212.156797 169.82432 212.558453 169.741579 212.854555 169.59432 
C 213.150656 169.447061 213.317028 169.247306 213.317028 169.03905 
C 213.317028 168.830794 213.150656 168.63104 212.854555 168.48378 
C 212.558453 168.336521 212.156797 168.25378 211.738046 168.25378 
C 211.319295 168.25378 210.917639 168.336521 210.621538 168.48378 
C 210.325436 168.63104 210.159065 168.830794 210.159065 169.03905 
C 210.159065 169.247306 210.325436 169.447061 210.621538 169.59432 
C 210.917639 169.741579 211.319295 169.82432 211.738046 169.82432 
z
" style="fill:#0000ff;opacity:0.2;stroke:#0000ff;stroke-linejoin:miter;"/>
   </g>
   <g id="patch_26">
    <path clip-path="url(#p96282bae76)" d="M 206.211611 162.75689 
C 206.630361 162.75689 207.032018 162.674149 207.328119 162.526889 
C 207.624221 162.37963 207.790592 162.179876 207.790592 161.97162 
C 207.790592 161.763364 207.624221 161.563609 207.328119 161.41635 
C 207.032018 161.269091 206.630361 161.18635 206.211611 161.18635 
C 205.79286 161.18635 205.391203 161.269091 205.095102 161.41635 
C 204.799 161.563609 204.632629 161.763364 204.632629 161.97162 
C 204.632629 162.179876 204.799 162.37963 205.095102 162.526889 
C 205.391203 162.674149 205.79286 162.75689 206.211611 162.75689 
z
" style="fill:#0000ff;opacity:0.2;stroke:#0000ff;stroke-linejoin:miter;"/>
   </g>
   <g id="patch_27">
    <path clip-path="url(#p96282bae76)" d="M 285.160691 145.480949 
C 285.579442 145.480949 285.981098 145.398208 286.277199 145.250948 
C 286.573301 145.103689 286.739672 144.903935 286.739672 144.695679 
C 286.739672 144.487423 286.573301 144.287668 286.277199 144.140409 
C 285.981098 143.99315 285.579442 143.910409 285.160691 143.910409 
C 284.74194 143.910409 284.340284 143.99315 284.044182 144.140409 
C 283.748081 144.287668 283.581709 144.487423 283.581709 144.695679 
C 283.581709 144.903935 283.748081 145.103689 284.044182 145.250948 
C 284.340284 145.398208 284.74194 145.480949 285.160691 145.480949 
z
" style="fill:#0000ff;opacity:0.2;stroke:#0000ff;stroke-linejoin:miter;"/>
   </g>
   <g id="patch_28">
    <path clip-path="url(#p96282bae76)" d="M 427.269035 219.688968 
C 427.687786 219.688968 428.089442 219.606227 428.385544 219.458968 
C 428.681646 219.311709 428.848017 219.111954 428.848017 218.903698 
C 428.848017 218.695442 428.681646 218.495688 428.385544 218.348428 
C 428.089442 218.201169 427.687786 218.118428 427.269035 218.118428 
C 426.850285 218.118428 426.448628 218.201169 426.152527 218.348428 
C 425.856425 218.495688 425.690054 218.695442 425.690054 218.903698 
C 425.690054 219.111954 425.856425 219.311709 426.152527 219.458968 
C 426.448628 219.606227 426.850285 219.688968 427.269035 219.688968 
z
" style="fill:#0000ff;opacity:0.2;stroke:#0000ff;stroke-linejoin:miter;"/>
   </g>
   <g id="patch_29">
    <path clip-path="url(#p96282bae76)" d="M 246.475642 306.461308 
C 246.894392 306.461308 247.296049 306.378567 247.59215 306.231308 
C 247.888252 306.084049 248.054623 305.884294 248.054623 305.676038 
C 248.054623 305.467782 247.888252 305.268028 247.59215 305.120768 
C 247.296049 304.973509 246.894392 304.890768 246.475642 304.890768 
C 246.056891 304.890768 245.655234 304.973509 245.359133 305.120768 
C 245.063031 305.268028 244.89666 305.467782 244.89666 305.676038 
C 244.89666 305.884294 245.063031 306.084049 245.359133 306.231308 
C 245.655234 306.378567 246.056891 306.461308 246.475642 306.461308 
z
" style="fill:#0000ff;opacity:0.2;stroke:#0000ff;stroke-linejoin:miter;"/>
   </g>
   <g id="patch_30">
    <path clip-path="url(#p96282bae76)" d="M 74.366646 207.909917 
C 74.366646 174.53594 96.472389 125.849198 180.158414 85.015155 
C 262.265458 44.966383 358.583336 32.402062 406.742275 29.260982 
C 412.26871 30.438887 413.847692 35.543142 409.900238 37.506317 
C 359.372826 46.144288 291.476617 57.530704 234.633279 87.7636 
C 167.526561 123.100752 144.631328 166.290605 144.631328 206.732012 
C 144.631328 252.277675 176.21096 294.289622 254.37055 294.289622 
C 313.58236 294.289622 343.58301 267.590441 343.58301 234.216464 
C 343.58301 200.842487 313.58236 168.646415 246.475642 168.646415 
C 230.685825 168.646415 218.053973 170.60959 210.159065 171.787495 
C 205.42212 170.60959 204.632629 167.861145 207.790592 165.505335 
C 230.685825 158.437904 254.37055 153.726284 285.160691 153.726284 
C 360.951808 153.726284 410.689729 183.959181 410.689729 224.007953 
C 410.689729 269.946251 342.79352 306.068673 244.107169 306.068673 
C 128.841512 306.068673 74.366646 261.308281 74.366646 207.909917 
" style="fill:none;stroke:#ff0000;stroke-linejoin:miter;stroke-width:0.5;"/>
   </g>
   <g id="patch_31">
    <path clip-path="url(#p96282bae76)" d="M 57.78734 200.449852 
C 57.78734 156.082094 98.051371 112.106972 161.210635 81.874075 
C 222.001427 52.819083 317.529814 30.438887 412.26871 28.083077 
C 420.953109 30.438887 422.532091 37.113682 414.637183 41.825303 
C 318.319305 53.604353 276.476292 69.702389 232.264807 96.794206 
C 190.421794 122.708117 173.052997 160.40108 173.052997 196.916137 
C 173.052997 238.535449 200.685175 287.614827 259.896985 287.614827 
C 307.266433 287.614827 319.898286 261.700916 319.898286 243.247069 
C 319.898286 216.547888 297.792544 168.646415 229.896335 168.646415 
C 224.369899 168.25378 218.843463 168.646415 211.738046 169.03905 
C 207.001101 167.46851 205.42212 164.720065 206.211611 161.97162 
C 220.422445 153.726284 257.528513 144.695679 285.160691 144.695679 
C 383.05755 144.695679 427.269035 181.210736 427.269035 218.903698 
C 427.269035 270.338886 356.214863 305.676038 246.475642 305.676038 
C 126.473039 305.676038 57.78734 262.093551 57.78734 200.449852 
" style="fill:none;stroke:#0000ff;stroke-linejoin:miter;stroke-width:0.5;"/>
   </g>
   <g id="patch_32">
    <path clip-path="url(#p96282bae76)" d="M 74.366646 210.265728 
C 75.622899 210.265728 76.827868 210.017505 77.716172 209.575727 
C 78.604477 209.133949 79.103591 208.534686 79.103591 207.909917 
C 79.103591 207.285149 78.604477 206.685886 77.716172 206.244108 
C 76.827868 205.80233 75.622899 205.554107 74.366646 205.554107 
C 73.110394 205.554107 71.905425 205.80233 71.017121 206.244108 
C 70.128816 206.685886 69.629702 207.285149 69.629702 207.909917 
C 69.629702 208.534686 70.128816 209.133949 71.017121 209.575727 
C 71.905425 210.017505 73.110394 210.265728 74.366646 210.265728 
z
" style="fill:#0000ff;opacity:0.2;stroke:#0000ff;stroke-linejoin:miter;"/>
   </g>
   <g id="patch_33">
    <path clip-path="url(#p96282bae76)" d="M 57.78734 202.805662 
C 59.043592 202.805662 60.248561 202.557439 61.136865 202.115661 
C 62.02517 201.673883 62.524284 201.07462 62.524284 200.449852 
C 62.524284 199.825084 62.02517 199.22582 61.136865 198.784043 
C 60.248561 198.342265 59.043592 198.094042 57.78734 198.094042 
C 56.531087 198.094042 55.326118 198.342265 54.437814 198.784043 
C 53.549509 199.22582 53.050395 199.825084 53.050395 200.449852 
C 53.050395 201.07462 53.549509 201.673883 54.437814 202.115661 
C 55.326118 202.557439 56.531087 202.805662 57.78734 202.805662 
z
" style="fill:#ff0000;opacity:0.2;stroke:#ff0000;stroke-linejoin:miter;"/>
   </g>
   <g id="patch_34">
    <path d="M 74.366646 207.909917 
Q 66.989745 204.590589 61.547349 202.141715 
" style="fill:none;opacity:0.5;stroke:#0000ff;stroke-linecap:round;stroke-width:3;"/>
    <path d="M 62.299746 204.125121 
L 61.547349 202.141715 
L 63.530755 201.389318 
" style="fill:none;opacity:0.5;stroke:#0000ff;stroke-linecap:round;stroke-width:3;"/>
   </g>
   <g id="patch_35">
    <path clip-path="url(#p96282bae76)" d="M 180.158414 87.370965 
C 181.414667 87.370965 182.619635 87.122742 183.50794 86.680965 
C 184.396244 86.239187 184.895359 85.639923 184.895359 85.015155 
C 184.895359 84.390387 184.396244 83.791124 183.50794 83.349346 
C 182.619635 82.907568 181.414667 82.659345 180.158414 82.659345 
C 178.902162 82.659345 177.697193 82.907568 176.808888 83.349346 
C 175.920584 83.791124 175.421469 84.390387 175.421469 85.015155 
C 175.421469 85.639923 175.920584 86.239187 176.808888 86.680965 
C 177.697193 87.122742 178.902162 87.370965 180.158414 87.370965 
z
" style="fill:#0000ff;opacity:0.2;stroke:#0000ff;stroke-linejoin:miter;"/>
   </g>
   <g id="patch_36">
    <path clip-path="url(#p96282bae76)" d="M 161.210635 84.229885 
C 162.466887 84.229885 163.671856 83.981662 164.560161 83.539884 
C 165.448465 83.098107 165.94758 82.498843 165.94758 81.874075 
C 165.94758 81.249307 165.448465 80.650043 164.560161 80.208266 
C 163.671856 79.766488 162.466887 79.518265 161.210635 79.518265 
C 159.954382 79.518265 158.749414 79.766488 157.861109 80.208266 
C 156.972804 80.650043 156.47369 81.249307 156.47369 81.874075 
C 156.47369 82.498843 156.972804 83.098107 157.861109 83.539884 
C 158.749414 83.981662 159.954382 84.229885 161.210635 84.229885 
z
" style="fill:#ff0000;opacity:0.2;stroke:#ff0000;stroke-linejoin:miter;"/>
   </g>
   <g id="patch_37">
    <path d="M 180.158414 85.015155 
Q 171.672159 83.608341 165.278663 82.548455 
" style="fill:none;opacity:0.5;stroke:#0000ff;stroke-linecap:round;stroke-width:3;"/>
    <path d="M 166.513152 84.273575 
L 165.278663 82.548455 
L 167.003782 81.313966 
" style="fill:none;opacity:0.5;stroke:#0000ff;stroke-linecap:round;stroke-width:3;"/>
   </g>
   <g id="patch_38">
    <path clip-path="url(#p96282bae76)" d="M 406.742275 31.420475 
C 407.893839 31.420475 408.998394 31.192937 409.812673 30.787974 
C 410.626952 30.383011 411.084474 29.833686 411.084474 29.260982 
C 411.084474 28.688278 410.626952 28.138953 409.812673 27.73399 
C 408.998394 27.329027 407.893839 27.101489 406.742275 27.101489 
C 405.59071 27.101489 404.486155 27.329027 403.671876 27.73399 
C 402.857597 28.138953 402.400075 28.688278 402.400075 29.260982 
C 402.400075 29.833686 402.857597 30.383011 403.671876 30.787974 
C 404.486155 31.192937 405.59071 31.420475 406.742275 31.420475 
z
" style="fill:#0000ff;opacity:0.2;stroke:#0000ff;stroke-linejoin:miter;"/>
   </g>
   <g id="patch_39">
    <path clip-path="url(#p96282bae76)" d="M 412.26871 30.242569 
C 413.420275 30.242569 414.52483 30.015032 415.339109 29.610069 
C 416.153388 29.205106 416.61091 28.655781 416.61091 28.083077 
C 416.61091 27.510373 416.153388 26.961048 415.339109 26.556085 
C 414.52483 26.151122 413.420275 25.923584 412.26871 25.923584 
C 411.117145 25.923584 410.012591 26.151122 409.198312 26.556085 
C 408.384032 26.961048 407.926511 27.510373 407.926511 28.083077 
C 407.926511 28.655781 408.384032 29.205106 409.198312 29.610069 
C 410.012591 30.015032 411.117145 30.242569 412.26871 30.242569 
z
" style="fill:#ff0000;opacity:0.2;stroke:#ff0000;stroke-linejoin:miter;"/>
   </g>
   <g id="patch_40">
    <path d="M 406.742275 29.260982 
Q 408.527302 28.880521 408.410506 28.905415 
" style="fill:none;opacity:0.5;stroke:#0000ff;stroke-linecap:round;stroke-width:2.75;"/>
    <path d="M 406.630772 27.751054 
L 408.410506 28.905415 
L 407.256145 30.685149 
" style="fill:none;opacity:0.5;stroke:#0000ff;stroke-linecap:round;stroke-width:2.75;"/>
   </g>
   <g id="patch_41">
    <path clip-path="url(#p96282bae76)" d="M 409.900238 38.88054 
C 410.633052 38.88054 411.33595 38.735743 411.854128 38.47804 
C 412.372306 38.220336 412.663456 37.870766 412.663456 37.506317 
C 412.663456 37.141869 412.372306 36.792299 411.854128 36.534595 
C 411.33595 36.276892 410.633052 36.132095 409.900238 36.132095 
C 409.167424 36.132095 408.464525 36.276892 407.946348 36.534595 
C 407.42817 36.792299 407.13702 37.141869 407.13702 37.506317 
C 407.13702 37.870766 407.42817 38.220336 407.946348 38.47804 
C 408.464525 38.735743 409.167424 38.88054 409.900238 38.88054 
z
" style="fill:#0000ff;opacity:0.2;stroke:#0000ff;stroke-linejoin:miter;"/>
   </g>
   <g id="patch_42">
    <path clip-path="url(#p96282bae76)" d="M 414.637183 43.199525 
C 415.369997 43.199525 416.072895 43.054728 416.591073 42.797025 
C 417.10925 42.539321 417.4004 42.189751 417.4004 41.825303 
C 417.4004 41.460855 417.10925 41.111284 416.591073 40.853581 
C 416.072895 40.595877 415.369997 40.45108 414.637183 40.45108 
C 413.904369 40.45108 413.20147 40.595877 412.683293 40.853581 
C 412.165115 41.111284 411.873965 41.460855 411.873965 41.825303 
C 411.873965 42.189751 412.165115 42.539321 412.683293 42.797025 
C 413.20147 43.054728 413.904369 43.199525 414.637183 43.199525 
z
" style="fill:#ff0000;opacity:0.2;stroke:#ff0000;stroke-linejoin:miter;"/>
   </g>
   <g id="patch_43">
    <path d="M 409.900238 37.506317 
Q 411.529719 38.992023 412.24479 39.644 
" style="fill:none;opacity:0.5;stroke:#0000ff;stroke-linecap:round;stroke-width:1.75;"/>
    <path d="M 412.146988 37.524936 
L 412.24479 39.644 
L 410.125725 39.741802 
" style="fill:none;opacity:0.5;stroke:#0000ff;stroke-linecap:round;stroke-width:1.75;"/>
   </g>
   <g id="patch_44">
    <path clip-path="url(#p96282bae76)" d="M 234.633279 90.11941 
C 235.889532 90.11941 237.094501 89.871187 237.982805 89.42941 
C 238.87111 88.987632 239.370224 88.388369 239.370224 87.7636 
C 239.370224 87.138832 238.87111 86.539569 237.982805 86.097791 
C 237.094501 85.656013 235.889532 85.40779 234.633279 85.40779 
C 233.377027 85.40779 232.172058 85.656013 231.283754 86.097791 
C 230.395449 86.539569 229.896335 87.138832 229.896335 87.7636 
C 229.896335 88.388369 230.395449 88.987632 231.283754 89.42941 
C 232.172058 89.871187 233.377027 90.11941 234.633279 90.11941 
z
" style="fill:#0000ff;opacity:0.2;stroke:#0000ff;stroke-linejoin:miter;"/>
   </g>
   <g id="patch_45">
    <path clip-path="url(#p96282bae76)" d="M 232.264807 99.150016 
C 233.52106 99.150016 234.726028 98.901793 235.614333 98.460015 
C 236.502637 98.018237 237.001752 97.418974 237.001752 96.794206 
C 237.001752 96.169438 236.502637 95.570174 235.614333 95.128397 
C 234.726028 94.686619 233.52106 94.438396 232.264807 94.438396 
C 231.008555 94.438396 229.803586 94.686619 228.915281 95.128397 
C 228.026977 95.570174 227.527862 96.169438 227.527862 96.794206 
C 227.527862 97.418974 228.026977 98.018237 228.915281 98.460015 
C 229.803586 98.901793 231.008555 99.150016 232.264807 99.150016 
z
" style="fill:#ff0000;opacity:0.2;stroke:#ff0000;stroke-linejoin:miter;"/>
   </g>
   <g id="patch_46">
    <path d="M 234.633279 87.7636 
Q 233.702891 91.311023 233.310663 92.806524 
" style="fill:none;opacity:0.5;stroke:#0000ff;stroke-linecap:round;stroke-width:3;"/>
    <path d="M 235.142128 91.736134 
L 233.310663 92.806524 
L 232.240273 90.975059 
" style="fill:none;opacity:0.5;stroke:#0000ff;stroke-linecap:round;stroke-width:3;"/>
   </g>
   <g id="patch_47">
    <path clip-path="url(#p96282bae76)" d="M 144.631328 209.28414 
C 145.992268 209.28414 147.297651 209.015232 148.259981 208.536639 
C 149.222311 208.058046 149.763018 207.408844 149.763018 206.732012 
C 149.763018 206.05518 149.222311 205.405978 148.259981 204.927386 
C 147.297651 204.448793 145.992268 204.179885 144.631328 204.179885 
C 143.270388 204.179885 141.965005 204.448793 141.002675 204.927386 
C 140.040345 205.405978 139.499638 206.05518 139.499638 206.732012 
C 139.499638 207.408844 140.040345 208.058046 141.002675 208.536639 
C 141.965005 209.015232 143.270388 209.28414 144.631328 209.28414 
z
" style="fill:#0000ff;opacity:0.2;stroke:#0000ff;stroke-linejoin:miter;"/>
   </g>
   <g id="patch_48">
    <path clip-path="url(#p96282bae76)" d="M 173.052997 199.468264 
C 174.413937 199.468264 175.71932 199.199356 176.68165 198.720764 
C 177.64398 198.242171 178.184687 197.592969 178.184687 196.916137 
C 178.184687 196.239305 177.64398 195.590103 176.68165 195.11151 
C 175.71932 194.632917 174.413937 194.364009 173.052997 194.364009 
C 171.692057 194.364009 170.386674 194.632917 169.424344 195.11151 
C 168.462014 195.590103 167.921307 196.239305 167.921307 196.916137 
C 167.921307 197.592969 168.462014 198.242171 169.424344 198.720764 
C 170.386674 199.199356 171.692057 199.468264 173.052997 199.468264 
z
" style="fill:#ff0000;opacity:0.2;stroke:#ff0000;stroke-linejoin:miter;"/>
   </g>
   <g id="patch_49">
    <path d="M 144.631328 206.732012 
Q 157.896739 202.150591 168.989953 198.319374 
" style="fill:none;opacity:0.5;stroke:#0000ff;stroke-linecap:round;stroke-width:3.25;"/>
    <path d="M 167.082461 197.391218 
L 168.989953 198.319374 
L 168.061797 200.226866 
" style="fill:none;opacity:0.5;stroke:#0000ff;stroke-linecap:round;stroke-width:3.25;"/>
   </g>
   <g id="patch_50">
    <path clip-path="url(#p96282bae76)" d="M 254.37055 296.645433 
C 255.626802 296.645433 256.831771 296.39721 257.720075 295.955432 
C 258.60838 295.513654 259.107494 294.914391 259.107494 294.289622 
C 259.107494 293.664854 258.60838 293.065591 257.720075 292.623813 
C 256.831771 292.182035 255.626802 291.933812 254.37055 291.933812 
C 253.114297 291.933812 251.909328 292.182035 251.021024 292.623813 
C 250.132719 293.065591 249.633605 293.664854 249.633605 294.289622 
C 249.633605 294.914391 250.132719 295.513654 251.021024 295.955432 
C 251.909328 296.39721 253.114297 296.645433 254.37055 296.645433 
z
" style="fill:#0000ff;opacity:0.2;stroke:#0000ff;stroke-linejoin:miter;"/>
   </g>
   <g id="patch_51">
    <path clip-path="url(#p96282bae76)" d="M 259.896985 289.970637 
C 261.153238 289.970637 262.358206 289.722414 263.246511 289.280636 
C 264.134816 288.838859 264.63393 288.239595 264.63393 287.614827 
C 264.63393 286.990059 264.134816 286.390796 263.246511 285.949018 
C 262.358206 285.50724 261.153238 285.259017 259.896985 285.259017 
C 258.640733 285.259017 257.435764 285.50724 256.547459 285.949018 
C 255.659155 286.390796 255.16004 286.990059 255.16004 287.614827 
C 255.16004 288.239595 255.659155 288.838859 256.547459 289.280636 
C 257.435764 289.722414 258.640733 289.970637 259.896985 289.970637 
z
" style="fill:#ff0000;opacity:0.2;stroke:#ff0000;stroke-linejoin:miter;"/>
   </g>
   <g id="patch_52">
    <path d="M 254.37055 294.289622 
Q 256.495583 291.72302 257.267772 290.790374 
" style="fill:none;opacity:0.5;stroke:#0000ff;stroke-linecap:round;stroke-width:3;"/>
    <path d="M 255.155786 290.989151 
L 257.267772 290.790374 
L 257.466549 292.902361 
" style="fill:none;opacity:0.5;stroke:#0000ff;stroke-linecap:round;stroke-width:3;"/>
   </g>
   <g id="patch_53">
    <path clip-path="url(#p96282bae76)" d="M 343.58301 236.572274 
C 344.839263 236.572274 346.044231 236.324051 346.932536 235.882273 
C 347.820841 235.440495 348.319955 234.841232 348.319955 234.216464 
C 348.319955 233.591696 347.820841 232.992432 346.932536 232.550655 
C 346.044231 232.108877 344.839263 231.860654 343.58301 231.860654 
C 342.326758 231.860654 341.121789 232.108877 340.233485 232.550655 
C 339.34518 232.992432 338.846065 233.591696 338.846065 234.216464 
C 338.846065 234.841232 339.34518 235.440495 340.233485 235.882273 
C 341.121789 236.324051 342.326758 236.572274 343.58301 236.572274 
z
" style="fill:#0000ff;opacity:0.2;stroke:#0000ff;stroke-linejoin:miter;"/>
   </g>
   <g id="patch_54">
    <path clip-path="url(#p96282bae76)" d="M 319.898286 245.60288 
C 321.154539 245.60288 322.359507 245.354657 323.247812 244.912879 
C 324.136117 244.471101 324.635231 243.871838 324.635231 243.247069 
C 324.635231 242.622301 324.136117 242.023038 323.247812 241.58126 
C 322.359507 241.139482 321.154539 240.891259 319.898286 240.891259 
C 318.642034 240.891259 317.437065 241.139482 316.54876 241.58126 
C 315.660456 242.023038 315.161341 242.622301 315.161341 243.247069 
C 315.161341 243.871838 315.660456 244.471101 316.54876 244.912879 
C 317.437065 245.354657 318.642034 245.60288 319.898286 245.60288 
z
" style="fill:#ff0000;opacity:0.2;stroke:#ff0000;stroke-linejoin:miter;"/>
   </g>
   <g id="patch_55">
    <path d="M 343.58301 234.216464 
Q 332.675952 238.37515 323.751023 241.778083 
" style="fill:none;opacity:0.5;stroke:#0000ff;stroke-linecap:round;stroke-width:3;"/>
    <path d="M 325.686999 242.645261 
L 323.751023 241.778083 
L 324.618201 239.842107 
" style="fill:none;opacity:0.5;stroke:#0000ff;stroke-linecap:round;stroke-width:3;"/>
   </g>
   <g id="patch_56">
    <path clip-path="url(#p96282bae76)" d="M 246.475642 169.82432 
C 247.103768 169.82432 247.706252 169.700209 248.150404 169.47932 
C 248.594557 169.258431 248.844114 168.958799 248.844114 168.646415 
C 248.844114 168.334031 248.594557 168.034399 248.150404 167.81351 
C 247.706252 167.592622 247.103768 167.46851 246.475642 167.46851 
C 245.847515 167.46851 245.245031 167.592622 244.800879 167.81351 
C 244.356726 168.034399 244.107169 168.334031 244.107169 168.646415 
C 244.107169 168.958799 244.356726 169.258431 244.800879 169.47932 
C 245.245031 169.700209 245.847515 169.82432 246.475642 169.82432 
z
" style="fill:#0000ff;opacity:0.2;stroke:#0000ff;stroke-linejoin:miter;"/>
   </g>
   <g id="patch_57">
    <path clip-path="url(#p96282bae76)" d="M 229.896335 169.82432 
C 230.524461 169.82432 231.126945 169.700209 231.571098 169.47932 
C 232.01525 169.258431 232.264807 168.958799 232.264807 168.646415 
C 232.264807 168.334031 232.01525 168.034399 231.571098 167.81351 
C 231.126945 167.592622 230.524461 167.46851 229.896335 167.46851 
C 229.268208 167.46851 228.665724 167.592622 228.221572 167.81351 
C 227.777419 168.034399 227.527862 168.334031 227.527862 168.646415 
C 227.527862 168.958799 227.777419 169.258431 228.221572 169.47932 
C 228.665724 169.700209 229.268208 169.82432 229.896335 169.82432 
z
" style="fill:#ff0000;opacity:0.2;stroke:#ff0000;stroke-linejoin:miter;"/>
   </g>
   <g id="patch_58">
    <path d="M 246.475642 168.646415 
Q 239.187789 168.646415 232.960598 168.646415 
" style="fill:none;opacity:0.5;stroke:#0000ff;stroke-linecap:round;stroke-width:1.5;"/>
    <path d="M 234.460598 170.146415 
L 232.960598 168.646415 
L 234.460598 167.146415 
" style="fill:none;opacity:0.5;stroke:#0000ff;stroke-linecap:round;stroke-width:1.5;"/>
   </g>
   <g id="patch_59">
    <path clip-path="url(#p96282bae76)" d="M 210.159065 172.572765 
C 210.577815 172.572765 210.979472 172.490024 211.275573 172.342765 
C 211.571675 172.195506 211.738046 171.995751 211.738046 171.787495 
C 211.738046 171.579239 211.571675 171.379485 211.275573 171.232226 
C 210.979472 171.084966 210.577815 171.002225 210.159065 171.002225 
C 209.740314 171.002225 209.338658 171.084966 209.042556 171.232226 
C 208.746454 171.379485 208.580083 171.579239 208.580083 171.787495 
C 208.580083 171.995751 208.746454 172.195506 209.042556 172.342765 
C 209.338658 172.490024 209.740314 172.572765 210.159065 172.572765 
z
" style="fill:#0000ff;opacity:0.2;stroke:#0000ff;stroke-linejoin:miter;"/>
   </g>
   <g id="patch_60">
    <path clip-path="url(#p96282bae76)" d="M 211.738046 169.82432 
C 212.156797 169.82432 212.558453 169.741579 212.854555 169.59432 
C 213.150656 169.447061 213.317028 169.247306 213.317028 169.03905 
C 213.317028 168.830794 213.150656 168.63104 212.854555 168.48378 
C 212.558453 168.336521 212.156797 168.25378 211.738046 168.25378 
C 211.319295 168.25378 210.917639 168.336521 210.621538 168.48378 
C 210.325436 168.63104 210.159065 168.830794 210.159065 169.03905 
C 210.159065 169.247306 210.325436 169.447061 210.621538 169.59432 
C 210.917639 169.741579 211.319295 169.82432 211.738046 169.82432 
z
" style="fill:#ff0000;opacity:0.2;stroke:#ff0000;stroke-linejoin:miter;"/>
   </g>
   <g id="patch_61">
    <path d="M 210.159065 171.787495 
Q 210.449727 171.281556 210.388147 171.388744 
" style="fill:none;opacity:0.5;stroke:#0000ff;stroke-linecap:round;"/>
    <path d="M 208.340289 171.942167 
L 210.388147 171.388744 
L 210.94157 173.436603 
" style="fill:none;opacity:0.5;stroke:#0000ff;stroke-linecap:round;"/>
   </g>
   <g id="patch_62">
    <path clip-path="url(#p96282bae76)" d="M 207.790592 166.879557 
C 208.523406 166.879557 209.226305 166.734761 209.744482 166.477057 
C 210.26266 166.219353 210.55381 165.869783 210.55381 165.505335 
C 210.55381 165.140887 210.26266 164.791317 209.744482 164.533613 
C 209.226305 164.275909 208.523406 164.131112 207.790592 164.131112 
C 207.057778 164.131112 206.35488 164.275909 205.836702 164.533613 
C 205.318524 164.791317 205.027374 165.140887 205.027374 165.505335 
C 205.027374 165.869783 205.318524 166.219353 205.836702 166.477057 
C 206.35488 166.734761 207.057778 166.879557 207.790592 166.879557 
z
" style="fill:#0000ff;opacity:0.2;stroke:#0000ff;stroke-linejoin:miter;"/>
   </g>
   <g id="patch_63">
    <path clip-path="url(#p96282bae76)" d="M 206.211611 163.345842 
C 206.944424 163.345842 207.647323 163.201046 208.165501 162.943342 
C 208.683678 162.685638 208.974828 162.336068 208.974828 161.97162 
C 208.974828 161.607172 208.683678 161.257601 208.165501 160.999898 
C 207.647323 160.742194 206.944424 160.597397 206.211611 160.597397 
C 205.478797 160.597397 204.775898 160.742194 204.257721 160.999898 
C 203.739543 161.257601 203.448393 161.607172 203.448393 161.97162 
C 203.448393 162.336068 203.739543 162.685638 204.257721 162.943342 
C 204.775898 163.201046 205.478797 163.345842 206.211611 163.345842 
z
" style="fill:#ff0000;opacity:0.2;stroke:#ff0000;stroke-linejoin:miter;"/>
   </g>
   <g id="patch_64">
    <path d="M 207.790592 165.505335 
Q 207.408954 164.651239 207.532138 164.926923 
" style="fill:none;opacity:0.5;stroke:#0000ff;stroke-linecap:round;stroke-width:1.75;"/>
    <path d="M 206.774576 166.908362 
L 207.532138 164.926923 
L 209.513577 165.684485 
" style="fill:none;opacity:0.5;stroke:#0000ff;stroke-linecap:round;stroke-width:1.75;"/>
   </g>
   <g id="patch_65">
    <path clip-path="url(#p96282bae76)" d="M 285.160691 156.082094 
C 286.416943 156.082094 287.621912 155.833871 288.510217 155.392094 
C 289.398521 154.950316 289.897636 154.351052 289.897636 153.726284 
C 289.897636 153.101516 289.398521 152.502253 288.510217 152.060475 
C 287.621912 151.618697 286.416943 151.370474 285.160691 151.370474 
C 283.904438 151.370474 282.69947 151.618697 281.811165 152.060475 
C 280.92286 152.502253 280.423746 153.101516 280.423746 153.726284 
C 280.423746 154.351052 280.92286 154.950316 281.811165 155.392094 
C 282.69947 155.833871 283.904438 156.082094 285.160691 156.082094 
z
" style="fill:#0000ff;opacity:0.2;stroke:#0000ff;stroke-linejoin:miter;"/>
   </g>
   <g id="patch_66">
    <path clip-path="url(#p96282bae76)" d="M 285.160691 147.051489 
C 286.416943 147.051489 287.621912 146.803266 288.510217 146.361488 
C 289.398521 145.91971 289.897636 145.320447 289.897636 144.695679 
C 289.897636 144.070911 289.398521 143.471647 288.510217 143.029869 
C 287.621912 142.588092 286.416943 142.339869 285.160691 142.339869 
C 283.904438 142.339869 282.69947 142.588092 281.811165 143.029869 
C 280.92286 143.471647 280.423746 144.070911 280.423746 144.695679 
C 280.423746 145.320447 280.92286 145.91971 281.811165 146.361488 
C 282.69947 146.803266 283.904438 147.051489 285.160691 147.051489 
z
" style="fill:#ff0000;opacity:0.2;stroke:#ff0000;stroke-linejoin:miter;"/>
   </g>
   <g id="patch_67">
    <path d="M 285.160691 153.726284 
Q 285.160691 150.209728 285.160691 148.814491 
" style="fill:none;opacity:0.5;stroke:#0000ff;stroke-linecap:round;stroke-width:3;"/>
    <path d="M 283.660691 150.314491 
L 285.160691 148.814491 
L 286.660691 150.314491 
" style="fill:none;opacity:0.5;stroke:#0000ff;stroke-linecap:round;stroke-width:3;"/>
   </g>
   <g id="patch_68">
    <path clip-path="url(#p96282bae76)" d="M 410.689729 226.363763 
C 411.945981 226.363763 413.15095 226.11554 414.039254 225.673763 
C 414.927559 225.231985 415.426673 224.632721 415.426673 224.007953 
C 415.426673 223.383185 414.927559 222.783922 414.039254 222.342144 
C 413.15095 221.900366 411.945981 221.652143 410.689729 221.652143 
C 409.433476 221.652143 408.228507 221.900366 407.340203 222.342144 
C 406.451898 222.783922 405.952784 223.383185 405.952784 224.007953 
C 405.952784 224.632721 406.451898 225.231985 407.340203 225.673763 
C 408.228507 226.11554 409.433476 226.363763 410.689729 226.363763 
z
" style="fill:#0000ff;opacity:0.2;stroke:#0000ff;stroke-linejoin:miter;"/>
   </g>
   <g id="patch_69">
    <path clip-path="url(#p96282bae76)" d="M 427.269035 221.259508 
C 428.525288 221.259508 429.730257 221.011285 430.618561 220.569507 
C 431.506866 220.12773 432.00598 219.528466 432.00598 218.903698 
C 432.00598 218.27893 431.506866 217.679667 430.618561 217.237889 
C 429.730257 216.796111 428.525288 216.547888 427.269035 216.547888 
C 426.012783 216.547888 424.807814 216.796111 423.91951 217.237889 
C 423.031205 217.679667 422.532091 218.27893 422.532091 218.903698 
C 422.532091 219.528466 423.031205 220.12773 423.91951 220.569507 
C 424.807814 221.011285 426.012783 221.259508 427.269035 221.259508 
z
" style="fill:#ff0000;opacity:0.2;stroke:#ff0000;stroke-linejoin:miter;"/>
   </g>
   <g id="patch_70">
    <path d="M 410.689729 224.007953 
Q 418.022105 221.750542 423.327069 220.117307 
" style="fill:none;opacity:0.5;stroke:#0000ff;stroke-linecap:round;stroke-width:3;"/>
    <path d="M 421.452111 219.12507 
L 423.327069 220.117307 
L 422.334832 221.992265 
" style="fill:none;opacity:0.5;stroke:#0000ff;stroke-linecap:round;stroke-width:3;"/>
   </g>
   <g id="patch_71">
    <path clip-path="url(#p96282bae76)" d="M 244.107169 308.424483 
C 245.363422 308.424483 246.56839 308.17626 247.456695 307.734482 
C 248.345 307.292705 248.844114 306.693441 248.844114 306.068673 
C 248.844114 305.443905 248.345 304.844642 247.456695 304.402864 
C 246.56839 303.961086 245.363422 303.712863 244.107169 303.712863 
C 242.850917 303.712863 241.645948 303.961086 240.757643 304.402864 
C 239.869339 304.844642 239.370224 305.443905 239.370224 306.068673 
C 239.370224 306.693441 239.869339 307.292705 240.757643 307.734482 
C 241.645948 308.17626 242.850917 308.424483 244.107169 308.424483 
z
" style="fill:#0000ff;opacity:0.2;stroke:#0000ff;stroke-linejoin:miter;"/>
   </g>
   <g id="patch_72">
    <path clip-path="url(#p96282bae76)" d="M 246.475642 308.031848 
C 247.731894 308.031848 248.936863 307.783625 249.825167 307.341847 
C 250.713472 306.90007 251.212586 306.300806 251.212586 305.676038 
C 251.212586 305.05127 250.713472 304.452007 249.825167 304.010229 
C 248.936863 303.568451 247.731894 303.320228 246.475642 303.320228 
C 245.219389 303.320228 244.01442 303.568451 243.126116 304.010229 
C 242.237811 304.452007 241.738697 305.05127 241.738697 305.676038 
C 241.738697 306.300806 242.237811 306.90007 243.126116 307.341847 
C 244.01442 307.783625 245.219389 308.031848 246.475642 308.031848 
z
" style="fill:#ff0000;opacity:0.2;stroke:#ff0000;stroke-linejoin:miter;"/>
   </g>
   <g id="patch_73">
    <path d="M 244.107169 306.068673 
Q 244.303771 306.036081 242.407613 306.350418 
" style="fill:none;opacity:0.5;stroke:#0000ff;stroke-linecap:round;stroke-width:3;"/>
    <path d="M 240.682494 305.115929 
L 242.407613 306.350418 
L 241.173125 308.075538 
" style="fill:none;opacity:0.5;stroke:#0000ff;stroke-linecap:round;stroke-width:3;"/>
   </g>
   <g id="patch_74">
    <path clip-path="url(#p96282bae76)" d="M 57.78734 202.805662 
C 59.043592 202.805662 60.248561 202.557439 61.136865 202.115661 
C 62.02517 201.673883 62.524284 201.07462 62.524284 200.449852 
C 62.524284 199.825084 62.02517 199.22582 61.136865 198.784043 
C 60.248561 198.342265 59.043592 198.094042 57.78734 198.094042 
C 56.531087 198.094042 55.326118 198.342265 54.437814 198.784043 
C 53.549509 199.22582 53.050395 199.825084 53.050395 200.449852 
C 53.050395 201.07462 53.549509 201.673883 54.437814 202.115661 
C 55.326118 202.557439 56.531087 202.805662 57.78734 202.805662 
z
" style="fill:#0000ff;opacity:0.2;stroke:#0000ff;stroke-linejoin:miter;"/>
   </g>
   <g id="patch_75">
    <path clip-path="url(#p96282bae76)" d="M 74.366646 210.265728 
C 75.622899 210.265728 76.827868 210.017505 77.716172 209.575727 
C 78.604477 209.133949 79.103591 208.534686 79.103591 207.909917 
C 79.103591 207.285149 78.604477 206.685886 77.716172 206.244108 
C 76.827868 205.80233 75.622899 205.554107 74.366646 205.554107 
C 73.110394 205.554107 71.905425 205.80233 71.017121 206.244108 
C 70.128816 206.685886 69.629702 207.285149 69.629702 207.909917 
C 69.629702 208.534686 70.128816 209.133949 71.017121 209.575727 
C 71.905425 210.017505 73.110394 210.265728 74.366646 210.265728 
z
" style="fill:#ff0000;opacity:0.2;stroke:#ff0000;stroke-linejoin:miter;"/>
   </g>
   <g id="patch_76">
    <path d="M 57.78734 200.449852 
Q 65.164241 203.76918 70.606637 206.218054 
" style="fill:none;opacity:0.5;stroke:#ff0000;stroke-linecap:round;stroke-width:3;"/>
    <path d="M 69.85424 204.234649 
L 70.606637 206.218054 
L 68.623231 206.970451 
" style="fill:none;opacity:0.5;stroke:#ff0000;stroke-linecap:round;stroke-width:3;"/>
   </g>
   <g id="patch_77">
    <path clip-path="url(#p96282bae76)" d="M 161.210635 84.229885 
C 162.466887 84.229885 163.671856 83.981662 164.560161 83.539884 
C 165.448465 83.098107 165.94758 82.498843 165.94758 81.874075 
C 165.94758 81.249307 165.448465 80.650043 164.560161 80.208266 
C 163.671856 79.766488 162.466887 79.518265 161.210635 79.518265 
C 159.954382 79.518265 158.749414 79.766488 157.861109 80.208266 
C 156.972804 80.650043 156.47369 81.249307 156.47369 81.874075 
C 156.47369 82.498843 156.972804 83.098107 157.861109 83.539884 
C 158.749414 83.981662 159.954382 84.229885 161.210635 84.229885 
z
" style="fill:#0000ff;opacity:0.2;stroke:#0000ff;stroke-linejoin:miter;"/>
   </g>
   <g id="patch_78">
    <path clip-path="url(#p96282bae76)" d="M 180.158414 87.370965 
C 181.414667 87.370965 182.619635 87.122742 183.50794 86.680965 
C 184.396244 86.239187 184.895359 85.639923 184.895359 85.015155 
C 184.895359 84.390387 184.396244 83.791124 183.50794 83.349346 
C 182.619635 82.907568 181.414667 82.659345 180.158414 82.659345 
C 178.902162 82.659345 177.697193 82.907568 176.808888 83.349346 
C 175.920584 83.791124 175.421469 84.390387 175.421469 85.015155 
C 175.421469 85.639923 175.920584 86.239187 176.808888 86.680965 
C 177.697193 87.122742 178.902162 87.370965 180.158414 87.370965 
z
" style="fill:#ff0000;opacity:0.2;stroke:#ff0000;stroke-linejoin:miter;"/>
   </g>
   <g id="patch_79">
    <path d="M 161.210635 81.874075 
Q 169.69689 83.280889 176.090386 84.340775 
" style="fill:none;opacity:0.5;stroke:#ff0000;stroke-linecap:round;stroke-width:3;"/>
    <path d="M 174.855897 82.615656 
L 176.090386 84.340775 
L 174.365266 85.575264 
" style="fill:none;opacity:0.5;stroke:#ff0000;stroke-linecap:round;stroke-width:3;"/>
   </g>
   <g id="patch_80">
    <path clip-path="url(#p96282bae76)" d="M 412.26871 30.242569 
C 413.420275 30.242569 414.52483 30.015032 415.339109 29.610069 
C 416.153388 29.205106 416.61091 28.655781 416.61091 28.083077 
C 416.61091 27.510373 416.153388 26.961048 415.339109 26.556085 
C 414.52483 26.151122 413.420275 25.923584 412.26871 25.923584 
C 411.117145 25.923584 410.012591 26.151122 409.198312 26.556085 
C 408.384032 26.961048 407.926511 27.510373 407.926511 28.083077 
C 407.926511 28.655781 408.384032 29.205106 409.198312 29.610069 
C 410.012591 30.015032 411.117145 30.242569 412.26871 30.242569 
z
" style="fill:#0000ff;opacity:0.2;stroke:#0000ff;stroke-linejoin:miter;"/>
   </g>
   <g id="patch_81">
    <path clip-path="url(#p96282bae76)" d="M 406.742275 31.420475 
C 407.893839 31.420475 408.998394 31.192937 409.812673 30.787974 
C 410.626952 30.383011 411.084474 29.833686 411.084474 29.260982 
C 411.084474 28.688278 410.626952 28.138953 409.812673 27.73399 
C 408.998394 27.329027 407.893839 27.101489 406.742275 27.101489 
C 405.59071 27.101489 404.486155 27.329027 403.671876 27.73399 
C 402.857597 28.138953 402.400075 28.688278 402.400075 29.260982 
C 402.400075 29.833686 402.857597 30.383011 403.671876 30.787974 
C 404.486155 31.192937 405.59071 31.420475 406.742275 31.420475 
z
" style="fill:#ff0000;opacity:0.2;stroke:#ff0000;stroke-linejoin:miter;"/>
   </g>
   <g id="patch_82">
    <path d="M 412.26871 28.083077 
Q 410.483682 28.463538 410.600479 28.438644 
" style="fill:none;opacity:0.5;stroke:#ff0000;stroke-linecap:round;stroke-width:2.75;"/>
    <path d="M 412.380213 29.593004 
L 410.600479 28.438644 
L 411.75484 26.65891 
" style="fill:none;opacity:0.5;stroke:#ff0000;stroke-linecap:round;stroke-width:2.75;"/>
   </g>
   <g id="patch_83">
    <path clip-path="url(#p96282bae76)" d="M 414.637183 43.003208 
C 415.265309 43.003208 415.867793 42.879096 416.311945 42.658207 
C 416.756098 42.437318 417.005655 42.137687 417.005655 41.825303 
C 417.005655 41.512919 416.756098 41.213287 416.311945 40.992398 
C 415.867793 40.771509 415.265309 40.647398 414.637183 40.647398 
C 414.009056 40.647398 413.406572 40.771509 412.96242 40.992398 
C 412.518267 41.213287 412.26871 41.512919 412.26871 41.825303 
C 412.26871 42.137687 412.518267 42.437318 412.96242 42.658207 
C 413.406572 42.879096 414.009056 43.003208 414.637183 43.003208 
z
" style="fill:#0000ff;opacity:0.2;stroke:#0000ff;stroke-linejoin:miter;"/>
   </g>
   <g id="patch_84">
    <path clip-path="url(#p96282bae76)" d="M 409.900238 38.684222 
C 410.528364 38.684222 411.130848 38.560111 411.575001 38.339222 
C 412.019153 38.118333 412.26871 37.818701 412.26871 37.506317 
C 412.26871 37.193933 412.019153 36.894302 411.575001 36.673413 
C 411.130848 36.452524 410.528364 36.328412 409.900238 36.328412 
C 409.272112 36.328412 408.669627 36.452524 408.225475 36.673413 
C 407.781323 36.894302 407.531765 37.193933 407.531765 37.506317 
C 407.531765 37.818701 407.781323 38.118333 408.225475 38.339222 
C 408.669627 38.560111 409.272112 38.684222 409.900238 38.684222 
z
" style="fill:#ff0000;opacity:0.2;stroke:#ff0000;stroke-linejoin:miter;"/>
   </g>
   <g id="patch_85">
    <path d="M 414.637183 41.825303 
Q 413.007701 40.339597 412.162001 39.568516 
" style="fill:none;opacity:0.5;stroke:#ff0000;stroke-linecap:round;stroke-width:1.5;"/>
    <path d="M 412.259802 41.68758 
L 412.162001 39.568516 
L 414.281065 39.470714 
" style="fill:none;opacity:0.5;stroke:#ff0000;stroke-linecap:round;stroke-width:1.5;"/>
   </g>
   <g id="patch_86">
    <path clip-path="url(#p96282bae76)" d="M 232.264807 99.150016 
C 233.52106 99.150016 234.726028 98.901793 235.614333 98.460015 
C 236.502637 98.018237 237.001752 97.418974 237.001752 96.794206 
C 237.001752 96.169438 236.502637 95.570174 235.614333 95.128397 
C 234.726028 94.686619 233.52106 94.438396 232.264807 94.438396 
C 231.008555 94.438396 229.803586 94.686619 228.915281 95.128397 
C 228.026977 95.570174 227.527862 96.169438 227.527862 96.794206 
C 227.527862 97.418974 228.026977 98.018237 228.915281 98.460015 
C 229.803586 98.901793 231.008555 99.150016 232.264807 99.150016 
z
" style="fill:#0000ff;opacity:0.2;stroke:#0000ff;stroke-linejoin:miter;"/>
   </g>
   <g id="patch_87">
    <path clip-path="url(#p96282bae76)" d="M 234.633279 90.11941 
C 235.889532 90.11941 237.094501 89.871187 237.982805 89.42941 
C 238.87111 88.987632 239.370224 88.388369 239.370224 87.7636 
C 239.370224 87.138832 238.87111 86.539569 237.982805 86.097791 
C 237.094501 85.656013 235.889532 85.40779 234.633279 85.40779 
C 233.377027 85.40779 232.172058 85.656013 231.283754 86.097791 
C 230.395449 86.539569 229.896335 87.138832 229.896335 87.7636 
C 229.896335 88.388369 230.395449 88.987632 231.283754 89.42941 
C 232.172058 89.871187 233.377027 90.11941 234.633279 90.11941 
z
" style="fill:#ff0000;opacity:0.2;stroke:#ff0000;stroke-linejoin:miter;"/>
   </g>
   <g id="patch_88">
    <path d="M 232.264807 96.794206 
Q 233.195196 93.246783 233.587423 91.751282 
" style="fill:none;opacity:0.5;stroke:#ff0000;stroke-linecap:round;stroke-width:3;"/>
    <path d="M 231.755958 92.821672 
L 233.587423 91.751282 
L 234.657814 93.582747 
" style="fill:none;opacity:0.5;stroke:#ff0000;stroke-linecap:round;stroke-width:3;"/>
   </g>
   <g id="patch_89">
    <path clip-path="url(#p96282bae76)" d="M 173.052997 199.468264 
C 174.413937 199.468264 175.71932 199.199356 176.68165 198.720764 
C 177.64398 198.242171 178.184687 197.592969 178.184687 196.916137 
C 178.184687 196.239305 177.64398 195.590103 176.68165 195.11151 
C 175.71932 194.632917 174.413937 194.364009 173.052997 194.364009 
C 171.692057 194.364009 170.386674 194.632917 169.424344 195.11151 
C 168.462014 195.590103 167.921307 196.239305 167.921307 196.916137 
C 167.921307 197.592969 168.462014 198.242171 169.424344 198.720764 
C 170.386674 199.199356 171.692057 199.468264 173.052997 199.468264 
z
" style="fill:#0000ff;opacity:0.2;stroke:#0000ff;stroke-linejoin:miter;"/>
   </g>
   <g id="patch_90">
    <path clip-path="url(#p96282bae76)" d="M 144.631328 209.28414 
C 145.992268 209.28414 147.297651 209.015232 148.259981 208.536639 
C 149.222311 208.058046 149.763018 207.408844 149.763018 206.732012 
C 149.763018 206.05518 149.222311 205.405978 148.259981 204.927386 
C 147.297651 204.448793 145.992268 204.179885 144.631328 204.179885 
C 143.270388 204.179885 141.965005 204.448793 141.002675 204.927386 
C 140.040345 205.405978 139.499638 206.05518 139.499638 206.732012 
C 139.499638 207.408844 140.040345 208.058046 141.002675 208.536639 
C 141.965005 209.015232 143.270388 209.28414 144.631328 209.28414 
z
" style="fill:#ff0000;opacity:0.2;stroke:#ff0000;stroke-linejoin:miter;"/>
   </g>
   <g id="patch_91">
    <path d="M 173.052997 196.916137 
Q 159.787585 201.497558 148.694372 205.328775 
" style="fill:none;opacity:0.5;stroke:#ff0000;stroke-linecap:round;stroke-width:3.25;"/>
    <path d="M 150.601864 206.256931 
L 148.694372 205.328775 
L 149.622528 203.421283 
" style="fill:none;opacity:0.5;stroke:#ff0000;stroke-linecap:round;stroke-width:3.25;"/>
   </g>
   <g id="patch_92">
    <path clip-path="url(#p96282bae76)" d="M 259.896985 289.970637 
C 261.153238 289.970637 262.358206 289.722414 263.246511 289.280636 
C 264.134816 288.838859 264.63393 288.239595 264.63393 287.614827 
C 264.63393 286.990059 264.134816 286.390796 263.246511 285.949018 
C 262.358206 285.50724 261.153238 285.259017 259.896985 285.259017 
C 258.640733 285.259017 257.435764 285.50724 256.547459 285.949018 
C 255.659155 286.390796 255.16004 286.990059 255.16004 287.614827 
C 255.16004 288.239595 255.659155 288.838859 256.547459 289.280636 
C 257.435764 289.722414 258.640733 289.970637 259.896985 289.970637 
z
" style="fill:#0000ff;opacity:0.2;stroke:#0000ff;stroke-linejoin:miter;"/>
   </g>
   <g id="patch_93">
    <path clip-path="url(#p96282bae76)" d="M 254.37055 296.645433 
C 255.626802 296.645433 256.831771 296.39721 257.720075 295.955432 
C 258.60838 295.513654 259.107494 294.914391 259.107494 294.289622 
C 259.107494 293.664854 258.60838 293.065591 257.720075 292.623813 
C 256.831771 292.182035 255.626802 291.933812 254.37055 291.933812 
C 253.114297 291.933812 251.909328 292.182035 251.021024 292.623813 
C 250.132719 293.065591 249.633605 293.664854 249.633605 294.289622 
C 249.633605 294.914391 250.132719 295.513654 251.021024 295.955432 
C 251.909328 296.39721 253.114297 296.645433 254.37055 296.645433 
z
" style="fill:#ff0000;opacity:0.2;stroke:#ff0000;stroke-linejoin:miter;"/>
   </g>
   <g id="patch_94">
    <path d="M 259.896985 287.614827 
Q 257.771952 290.181429 256.999762 291.114075 
" style="fill:none;opacity:0.5;stroke:#ff0000;stroke-linecap:round;stroke-width:3;"/>
    <path d="M 259.111749 290.915298 
L 256.999762 291.114075 
L 256.800986 289.002088 
" style="fill:none;opacity:0.5;stroke:#ff0000;stroke-linecap:round;stroke-width:3;"/>
   </g>
   <g id="patch_95">
    <path clip-path="url(#p96282bae76)" d="M 319.898286 245.60288 
C 321.154539 245.60288 322.359507 245.354657 323.247812 244.912879 
C 324.136117 244.471101 324.635231 243.871838 324.635231 243.247069 
C 324.635231 242.622301 324.136117 242.023038 323.247812 241.58126 
C 322.359507 241.139482 321.154539 240.891259 319.898286 240.891259 
C 318.642034 240.891259 317.437065 241.139482 316.54876 241.58126 
C 315.660456 242.023038 315.161341 242.622301 315.161341 243.247069 
C 315.161341 243.871838 315.660456 244.471101 316.54876 244.912879 
C 317.437065 245.354657 318.642034 245.60288 319.898286 245.60288 
z
" style="fill:#0000ff;opacity:0.2;stroke:#0000ff;stroke-linejoin:miter;"/>
   </g>
   <g id="patch_96">
    <path clip-path="url(#p96282bae76)" d="M 343.58301 236.572274 
C 344.839263 236.572274 346.044231 236.324051 346.932536 235.882273 
C 347.820841 235.440495 348.319955 234.841232 348.319955 234.216464 
C 348.319955 233.591696 347.820841 232.992432 346.932536 232.550655 
C 346.044231 232.108877 344.839263 231.860654 343.58301 231.860654 
C 342.326758 231.860654 341.121789 232.108877 340.233485 232.550655 
C 339.34518 232.992432 338.846065 233.591696 338.846065 234.216464 
C 338.846065 234.841232 339.34518 235.440495 340.233485 235.882273 
C 341.121789 236.324051 342.326758 236.572274 343.58301 236.572274 
z
" style="fill:#ff0000;opacity:0.2;stroke:#ff0000;stroke-linejoin:miter;"/>
   </g>
   <g id="patch_97">
    <path d="M 319.898286 243.247069 
Q 330.805345 239.088383 339.730274 235.685451 
" style="fill:none;opacity:0.5;stroke:#ff0000;stroke-linecap:round;stroke-width:3;"/>
    <path d="M 337.794298 234.818272 
L 339.730274 235.685451 
L 338.863096 237.621426 
" style="fill:none;opacity:0.5;stroke:#ff0000;stroke-linecap:round;stroke-width:3;"/>
   </g>
   <g id="patch_98">
    <path clip-path="url(#p96282bae76)" d="M 229.896335 170.020638 
C 230.629149 170.020638 231.332047 169.875841 231.850225 169.618137 
C 232.368402 169.360433 232.659552 169.010863 232.659552 168.646415 
C 232.659552 168.281967 232.368402 167.932397 231.850225 167.674693 
C 231.332047 167.416989 230.629149 167.272193 229.896335 167.272193 
C 229.163521 167.272193 228.460622 167.416989 227.942445 167.674693 
C 227.424267 167.932397 227.133117 168.281967 227.133117 168.646415 
C 227.133117 169.010863 227.424267 169.360433 227.942445 169.618137 
C 228.460622 169.875841 229.163521 170.020638 229.896335 170.020638 
z
" style="fill:#0000ff;opacity:0.2;stroke:#0000ff;stroke-linejoin:miter;"/>
   </g>
   <g id="patch_99">
    <path clip-path="url(#p96282bae76)" d="M 246.475642 170.020638 
C 247.208455 170.020638 247.911354 169.875841 248.429532 169.618137 
C 248.947709 169.360433 249.238859 169.010863 249.238859 168.646415 
C 249.238859 168.281967 248.947709 167.932397 248.429532 167.674693 
C 247.911354 167.416989 247.208455 167.272193 246.475642 167.272193 
C 245.742828 167.272193 245.039929 167.416989 244.521751 167.674693 
C 244.003574 167.932397 243.712424 168.281967 243.712424 168.646415 
C 243.712424 169.010863 244.003574 169.360433 244.521751 169.618137 
C 245.039929 169.875841 245.742828 170.020638 246.475642 170.020638 
z
" style="fill:#ff0000;opacity:0.2;stroke:#ff0000;stroke-linejoin:miter;"/>
   </g>
   <g id="patch_100">
    <path d="M 229.896335 168.646415 
Q 237.184187 168.646415 243.234602 168.646415 
" style="fill:none;opacity:0.5;stroke:#ff0000;stroke-linecap:round;stroke-width:1.75;"/>
    <path d="M 241.734602 167.146415 
L 243.234602 168.646415 
L 241.734602 170.146415 
" style="fill:none;opacity:0.5;stroke:#ff0000;stroke-linecap:round;stroke-width:1.75;"/>
   </g>
   <g id="patch_101">
    <path clip-path="url(#p96282bae76)" d="M 211.738046 170.216955 
C 212.366172 170.216955 212.968657 170.092844 213.412809 169.871955 
C 213.856961 169.651066 214.106519 169.351434 214.106519 169.03905 
C 214.106519 168.726666 213.856961 168.427034 213.412809 168.206145 
C 212.968657 167.985257 212.366172 167.861145 211.738046 167.861145 
C 211.10992 167.861145 210.507436 167.985257 210.063283 168.206145 
C 209.619131 168.427034 209.369574 168.726666 209.369574 169.03905 
C 209.369574 169.351434 209.619131 169.651066 210.063283 169.871955 
C 210.507436 170.092844 211.10992 170.216955 211.738046 170.216955 
z
" style="fill:#0000ff;opacity:0.2;stroke:#0000ff;stroke-linejoin:miter;"/>
   </g>
   <g id="patch_102">
    <path clip-path="url(#p96282bae76)" d="M 210.159065 172.9654 
C 210.787191 172.9654 211.389675 172.841289 211.833827 172.6204 
C 212.27798 172.399511 212.527537 172.099879 212.527537 171.787495 
C 212.527537 171.475111 212.27798 171.17548 211.833827 170.954591 
C 211.389675 170.733702 210.787191 170.60959 210.159065 170.60959 
C 209.530938 170.60959 208.928454 170.733702 208.484302 170.954591 
C 208.040149 171.17548 207.790592 171.475111 207.790592 171.787495 
C 207.790592 172.099879 208.040149 172.399511 208.484302 172.6204 
C 208.928454 172.841289 209.530938 172.9654 210.159065 172.9654 
z
" style="fill:#ff0000;opacity:0.2;stroke:#ff0000;stroke-linejoin:miter;"/>
   </g>
   <g id="patch_103">
    <path d="M 211.738046 169.03905 
Q 211.447384 169.544989 211.685085 169.131237 
" style="fill:none;opacity:0.5;stroke:#ff0000;stroke-linecap:round;stroke-width:1.5;"/>
    <path d="M 213.732943 168.577815 
L 211.685085 169.131237 
L 211.131662 167.083379 
" style="fill:none;opacity:0.5;stroke:#ff0000;stroke-linecap:round;stroke-width:1.5;"/>
   </g>
   <g id="patch_104">
    <path clip-path="url(#p96282bae76)" d="M 206.211611 163.149525 
C 206.839737 163.149525 207.442221 163.025413 207.886373 162.804524 
C 208.330526 162.583635 208.580083 162.284004 208.580083 161.97162 
C 208.580083 161.659236 208.330526 161.359604 207.886373 161.138715 
C 207.442221 160.917826 206.839737 160.793715 206.211611 160.793715 
C 205.583484 160.793715 204.981 160.917826 204.536848 161.138715 
C 204.092695 161.359604 203.843138 161.659236 203.843138 161.97162 
C 203.843138 162.284004 204.092695 162.583635 204.536848 162.804524 
C 204.981 163.025413 205.583484 163.149525 206.211611 163.149525 
z
" style="fill:#0000ff;opacity:0.2;stroke:#0000ff;stroke-linejoin:miter;"/>
   </g>
   <g id="patch_105">
    <path clip-path="url(#p96282bae76)" d="M 207.790592 166.68324 
C 208.418718 166.68324 209.021203 166.559128 209.465355 166.33824 
C 209.909507 166.117351 210.159065 165.817719 210.159065 165.505335 
C 210.159065 165.192951 209.909507 164.893319 209.465355 164.67243 
C 209.021203 164.451541 208.418718 164.32743 207.790592 164.32743 
C 207.162466 164.32743 206.559982 164.451541 206.115829 164.67243 
C 205.671677 164.893319 205.42212 165.192951 205.42212 165.505335 
C 205.42212 165.817719 205.671677 166.117351 206.115829 166.33824 
C 206.559982 166.559128 207.162466 166.68324 207.790592 166.68324 
z
" style="fill:#ff0000;opacity:0.2;stroke:#ff0000;stroke-linejoin:miter;"/>
   </g>
   <g id="patch_106">
    <path d="M 206.211611 161.97162 
Q 206.593249 162.825716 206.542182 162.711429 
" style="fill:none;opacity:0.5;stroke:#ff0000;stroke-linecap:round;stroke-width:1.5;"/>
    <path d="M 207.299744 160.72999 
L 206.542182 162.711429 
L 204.560743 161.953867 
" style="fill:none;opacity:0.5;stroke:#ff0000;stroke-linecap:round;stroke-width:1.5;"/>
   </g>
   <g id="patch_107">
    <path clip-path="url(#p96282bae76)" d="M 285.160691 147.051489 
C 286.416943 147.051489 287.621912 146.803266 288.510217 146.361488 
C 289.398521 145.91971 289.897636 145.320447 289.897636 144.695679 
C 289.897636 144.070911 289.398521 143.471647 288.510217 143.029869 
C 287.621912 142.588092 286.416943 142.339869 285.160691 142.339869 
C 283.904438 142.339869 282.69947 142.588092 281.811165 143.029869 
C 280.92286 143.471647 280.423746 144.070911 280.423746 144.695679 
C 280.423746 145.320447 280.92286 145.91971 281.811165 146.361488 
C 282.69947 146.803266 283.904438 147.051489 285.160691 147.051489 
z
" style="fill:#0000ff;opacity:0.2;stroke:#0000ff;stroke-linejoin:miter;"/>
   </g>
   <g id="patch_108">
    <path clip-path="url(#p96282bae76)" d="M 285.160691 156.082094 
C 286.416943 156.082094 287.621912 155.833871 288.510217 155.392094 
C 289.398521 154.950316 289.897636 154.351052 289.897636 153.726284 
C 289.897636 153.101516 289.398521 152.502253 288.510217 152.060475 
C 287.621912 151.618697 286.416943 151.370474 285.160691 151.370474 
C 283.904438 151.370474 282.69947 151.618697 281.811165 152.060475 
C 280.92286 152.502253 280.423746 153.101516 280.423746 153.726284 
C 280.423746 154.351052 280.92286 154.950316 281.811165 155.392094 
C 282.69947 155.833871 283.904438 156.082094 285.160691 156.082094 
z
" style="fill:#ff0000;opacity:0.2;stroke:#ff0000;stroke-linejoin:miter;"/>
   </g>
   <g id="patch_109">
    <path d="M 285.160691 144.695679 
Q 285.160691 148.212235 285.160691 149.607472 
" style="fill:none;opacity:0.5;stroke:#ff0000;stroke-linecap:round;stroke-width:3;"/>
    <path d="M 286.660691 148.107472 
L 285.160691 149.607472 
L 283.660691 148.107472 
" style="fill:none;opacity:0.5;stroke:#ff0000;stroke-linecap:round;stroke-width:3;"/>
   </g>
   <g id="patch_110">
    <path clip-path="url(#p96282bae76)" d="M 427.269035 221.259508 
C 428.525288 221.259508 429.730257 221.011285 430.618561 220.569507 
C 431.506866 220.12773 432.00598 219.528466 432.00598 218.903698 
C 432.00598 218.27893 431.506866 217.679667 430.618561 217.237889 
C 429.730257 216.796111 428.525288 216.547888 427.269035 216.547888 
C 426.012783 216.547888 424.807814 216.796111 423.91951 217.237889 
C 423.031205 217.679667 422.532091 218.27893 422.532091 218.903698 
C 422.532091 219.528466 423.031205 220.12773 423.91951 220.569507 
C 424.807814 221.011285 426.012783 221.259508 427.269035 221.259508 
z
" style="fill:#0000ff;opacity:0.2;stroke:#0000ff;stroke-linejoin:miter;"/>
   </g>
   <g id="patch_111">
    <path clip-path="url(#p96282bae76)" d="M 410.689729 226.363763 
C 411.945981 226.363763 413.15095 226.11554 414.039254 225.673763 
C 414.927559 225.231985 415.426673 224.632721 415.426673 224.007953 
C 415.426673 223.383185 414.927559 222.783922 414.039254 222.342144 
C 413.15095 221.900366 411.945981 221.652143 410.689729 221.652143 
C 409.433476 221.652143 408.228507 221.900366 407.340203 222.342144 
C 406.451898 222.783922 405.952784 223.383185 405.952784 224.007953 
C 405.952784 224.632721 406.451898 225.231985 407.340203 225.673763 
C 408.228507 226.11554 409.433476 226.363763 410.689729 226.363763 
z
" style="fill:#ff0000;opacity:0.2;stroke:#ff0000;stroke-linejoin:miter;"/>
   </g>
   <g id="patch_112">
    <path d="M 427.269035 218.903698 
Q 419.936659 221.16111 414.631695 222.794344 
" style="fill:none;opacity:0.5;stroke:#ff0000;stroke-linecap:round;stroke-width:3;"/>
    <path d="M 416.506653 223.786581 
L 414.631695 222.794344 
L 415.623932 220.919386 
" style="fill:none;opacity:0.5;stroke:#ff0000;stroke-linecap:round;stroke-width:3;"/>
   </g>
   <g id="patch_113">
    <path clip-path="url(#p96282bae76)" d="M 246.475642 308.031848 
C 247.731894 308.031848 248.936863 307.783625 249.825167 307.341847 
C 250.713472 306.90007 251.212586 306.300806 251.212586 305.676038 
C 251.212586 305.05127 250.713472 304.452007 249.825167 304.010229 
C 248.936863 303.568451 247.731894 303.320228 246.475642 303.320228 
C 245.219389 303.320228 244.01442 303.568451 243.126116 304.010229 
C 242.237811 304.452007 241.738697 305.05127 241.738697 305.676038 
C 241.738697 306.300806 242.237811 306.90007 243.126116 307.341847 
C 244.01442 307.783625 245.219389 308.031848 246.475642 308.031848 
z
" style="fill:#0000ff;opacity:0.2;stroke:#0000ff;stroke-linejoin:miter;"/>
   </g>
   <g id="patch_114">
    <path clip-path="url(#p96282bae76)" d="M 244.107169 308.424483 
C 245.363422 308.424483 246.56839 308.17626 247.456695 307.734482 
C 248.345 307.292705 248.844114 306.693441 248.844114 306.068673 
C 248.844114 305.443905 248.345 304.844642 247.456695 304.402864 
C 246.56839 303.961086 245.363422 303.712863 244.107169 303.712863 
C 242.850917 303.712863 241.645948 303.961086 240.757643 304.402864 
C 239.869339 304.844642 239.370224 305.443905 239.370224 306.068673 
C 239.370224 306.693441 239.869339 307.292705 240.757643 307.734482 
C 241.645948 308.17626 242.850917 308.424483 244.107169 308.424483 
z
" style="fill:#ff0000;opacity:0.2;stroke:#ff0000;stroke-linejoin:miter;"/>
   </g>
   <g id="patch_115">
    <path d="M 246.475642 305.676038 
Q 246.27904 305.70863 248.175197 305.394293 
" style="fill:none;opacity:0.5;stroke:#ff0000;stroke-linecap:round;stroke-width:3;"/>
    <path d="M 249.900317 306.628782 
L 248.175197 305.394293 
L 249.409686 303.669174 
" style="fill:none;opacity:0.5;stroke:#ff0000;stroke-linecap:round;stroke-width:3;"/>
   </g>
   <g id="patch_116">
    <path clip-path="url(#p96282bae76)" d="M 66.076993 206.14306 
C 67.12387 206.14306 68.128011 205.936207 68.868264 205.568059 
C 69.608518 205.199911 70.024447 204.700525 70.024447 204.179885 
C 70.024447 203.659245 69.608518 203.159858 68.868264 202.79171 
C 68.128011 202.423562 67.12387 202.21671 66.076993 202.21671 
C 65.030116 202.21671 64.025975 202.423562 63.285721 202.79171 
C 62.545468 203.159858 62.129539 203.659245 62.129539 204.179885 
C 62.129539 204.700525 62.545468 205.199911 63.285721 205.568059 
C 64.025975 205.936207 65.030116 206.14306 66.076993 206.14306 
z
" style="fill:#008000;opacity:0.2;stroke:#008000;stroke-linejoin:miter;"/>
   </g>
   <g id="patch_117">
    <path clip-path="url(#p96282bae76)" d="M 170.684524 85.40779 
C 171.731401 85.40779 172.735542 85.200938 173.475796 84.83279 
C 174.21605 84.464641 174.631978 83.965255 174.631978 83.444615 
C 174.631978 82.923975 174.21605 82.424589 173.475796 82.056441 
C 172.735542 81.688293 171.731401 81.48144 170.684524 81.48144 
C 169.637647 81.48144 168.633507 81.688293 167.893253 82.056441 
C 167.152999 82.424589 166.73707 82.923975 166.73707 83.444615 
C 166.73707 83.965255 167.152999 84.464641 167.893253 84.83279 
C 168.633507 85.200938 169.637647 85.40779 170.684524 85.40779 
z
" style="fill:#008000;opacity:0.2;stroke:#008000;stroke-linejoin:miter;"/>
   </g>
   <g id="patch_118">
    <path clip-path="url(#p96282bae76)" d="M 409.505492 30.635205 
C 410.552369 30.635205 411.55651 30.428352 412.296764 30.060204 
C 413.037018 29.692056 413.452946 29.19267 413.452946 28.672029 
C 413.452946 28.151389 413.037018 27.652003 412.296764 27.283855 
C 411.55651 26.915707 410.552369 26.708854 409.505492 26.708854 
C 408.458615 26.708854 407.454475 26.915707 406.714221 27.283855 
C 405.973967 27.652003 405.558038 28.151389 405.558038 28.672029 
C 405.558038 29.19267 405.973967 29.692056 406.714221 30.060204 
C 407.454475 30.428352 408.458615 30.635205 409.505492 30.635205 
z
" style="fill:#008000;opacity:0.2;stroke:#008000;stroke-linejoin:miter;"/>
   </g>
   <g id="patch_119">
    <path clip-path="url(#p96282bae76)" d="M 412.26871 41.628985 
C 413.315587 41.628985 414.319728 41.422133 415.059982 41.053984 
C 415.800236 40.685836 416.216164 40.18645 416.216164 39.66581 
C 416.216164 39.14517 415.800236 38.645784 415.059982 38.277636 
C 414.319728 37.909487 413.315587 37.702635 412.26871 37.702635 
C 411.221833 37.702635 410.217693 37.909487 409.477439 38.277636 
C 408.737185 38.645784 408.321256 39.14517 408.321256 39.66581 
C 408.321256 40.18645 408.737185 40.685836 409.477439 41.053984 
C 410.217693 41.422133 411.221833 41.628985 412.26871 41.628985 
z
" style="fill:#008000;opacity:0.2;stroke:#008000;stroke-linejoin:miter;"/>
   </g>
   <g id="patch_120">
    <path clip-path="url(#p96282bae76)" d="M 233.449043 94.242078 
C 234.49592 94.242078 235.500061 94.035226 236.240315 93.667078 
C 236.980569 93.298929 237.396497 92.799543 237.396497 92.278903 
C 237.396497 91.758263 236.980569 91.258877 236.240315 90.890729 
C 235.500061 90.522581 234.49592 90.315728 233.449043 90.315728 
C 232.402166 90.315728 231.398026 90.522581 230.657772 90.890729 
C 229.917518 91.258877 229.501589 91.758263 229.501589 92.278903 
C 229.501589 92.799543 229.917518 93.298929 230.657772 93.667078 
C 231.398026 94.035226 232.402166 94.242078 233.449043 94.242078 
z
" style="fill:#008000;opacity:0.2;stroke:#008000;stroke-linejoin:miter;"/>
   </g>
   <g id="patch_121">
    <path clip-path="url(#p96282bae76)" d="M 158.842162 203.78725 
C 159.889039 203.78725 160.89318 203.580397 161.633434 203.212249 
C 162.373688 202.844101 162.789616 202.344715 162.789616 201.824075 
C 162.789616 201.303434 162.373688 200.804048 161.633434 200.4359 
C 160.89318 200.067752 159.889039 199.860899 158.842162 199.860899 
C 157.795285 199.860899 156.791145 200.067752 156.050891 200.4359 
C 155.310637 200.804048 154.894708 201.303434 154.894708 201.824075 
C 154.894708 202.344715 155.310637 202.844101 156.050891 203.212249 
C 156.791145 203.580397 157.795285 203.78725 158.842162 203.78725 
z
" style="fill:#008000;opacity:0.2;stroke:#008000;stroke-linejoin:miter;"/>
   </g>
   <g id="patch_122">
    <path clip-path="url(#p96282bae76)" d="M 257.133767 292.9154 
C 258.180644 292.9154 259.184785 292.708547 259.925039 292.340399 
C 260.665293 291.972251 261.081221 291.472865 261.081221 290.952225 
C 261.081221 290.431585 260.665293 289.932198 259.925039 289.56405 
C 259.184785 289.195902 258.180644 288.98905 257.133767 288.98905 
C 256.08689 288.98905 255.08275 289.195902 254.342496 289.56405 
C 253.602242 289.932198 253.186313 290.431585 253.186313 290.952225 
C 253.186313 291.472865 253.602242 291.972251 254.342496 292.340399 
C 255.08275 292.708547 256.08689 292.9154 257.133767 292.9154 
z
" style="fill:#008000;opacity:0.2;stroke:#008000;stroke-linejoin:miter;"/>
   </g>
   <g id="patch_123">
    <path clip-path="url(#p96282bae76)" d="M 331.740648 240.694942 
C 332.787525 240.694942 333.791666 240.488089 334.53192 240.119941 
C 335.272174 239.751793 335.688102 239.252407 335.688102 238.731767 
C 335.688102 238.211127 335.272174 237.71174 334.53192 237.343592 
C 333.791666 236.975444 332.787525 236.768592 331.740648 236.768592 
C 330.693771 236.768592 329.689631 236.975444 328.949377 237.343592 
C 328.209123 237.71174 327.793194 238.211127 327.793194 238.731767 
C 327.793194 239.252407 328.209123 239.751793 328.949377 240.119941 
C 329.689631 240.488089 330.693771 240.694942 331.740648 240.694942 
z
" style="fill:#008000;opacity:0.2;stroke:#008000;stroke-linejoin:miter;"/>
   </g>
   <g id="patch_124">
    <path clip-path="url(#p96282bae76)" d="M 238.185988 170.60959 
C 239.232865 170.60959 240.237006 170.402738 240.97726 170.03459 
C 241.717513 169.666441 242.133442 169.167055 242.133442 168.646415 
C 242.133442 168.125775 241.717513 167.626389 240.97726 167.258241 
C 240.237006 166.890092 239.232865 166.68324 238.185988 166.68324 
C 237.139111 166.68324 236.13497 166.890092 235.394717 167.258241 
C 234.654463 167.626389 234.238534 168.125775 234.238534 168.646415 
C 234.238534 169.167055 234.654463 169.666441 235.394717 170.03459 
C 236.13497 170.402738 237.139111 170.60959 238.185988 170.60959 
z
" style="fill:#008000;opacity:0.2;stroke:#008000;stroke-linejoin:miter;"/>
   </g>
   <g id="patch_125">
    <path clip-path="url(#p96282bae76)" d="M 210.948555 172.376448 
C 211.995432 172.376448 212.999573 172.169595 213.739827 171.801447 
C 214.480081 171.433299 214.896009 170.933913 214.896009 170.413273 
C 214.896009 169.892633 214.480081 169.393246 213.739827 169.025098 
C 212.999573 168.65695 211.995432 168.450098 210.948555 168.450098 
C 209.901678 168.450098 208.897538 168.65695 208.157284 169.025098 
C 207.41703 169.393246 207.001101 169.892633 207.001101 170.413273 
C 207.001101 170.933913 207.41703 171.433299 208.157284 171.801447 
C 208.897538 172.169595 209.901678 172.376448 210.948555 172.376448 
z
" style="fill:#008000;opacity:0.2;stroke:#008000;stroke-linejoin:miter;"/>
   </g>
   <g id="patch_126">
    <path clip-path="url(#p96282bae76)" d="M 207.001101 165.701652 
C 208.047978 165.701652 209.052119 165.4948 209.792373 165.126652 
C 210.532627 164.758504 210.948555 164.259117 210.948555 163.738477 
C 210.948555 163.217837 210.532627 162.718451 209.792373 162.350303 
C 209.052119 161.982155 208.047978 161.775302 207.001101 161.775302 
C 205.954224 161.775302 204.950084 161.982155 204.20983 162.350303 
C 203.469576 162.718451 203.053647 163.217837 203.053647 163.738477 
C 203.053647 164.259117 203.469576 164.758504 204.20983 165.126652 
C 204.950084 165.4948 205.954224 165.701652 207.001101 165.701652 
z
" style="fill:#008000;opacity:0.2;stroke:#008000;stroke-linejoin:miter;"/>
   </g>
   <g id="patch_127">
    <path clip-path="url(#p96282bae76)" d="M 285.160691 151.174157 
C 286.207568 151.174157 287.211709 150.967304 287.951962 150.599156 
C 288.692216 150.231008 289.108145 149.731622 289.108145 149.210981 
C 289.108145 148.690341 288.692216 148.190955 287.951962 147.822807 
C 287.211709 147.454659 286.207568 147.247806 285.160691 147.247806 
C 284.113814 147.247806 283.109673 147.454659 282.369419 147.822807 
C 281.629166 148.190955 281.213237 148.690341 281.213237 149.210981 
C 281.213237 149.731622 281.629166 150.231008 282.369419 150.599156 
C 283.109673 150.967304 284.113814 151.174157 285.160691 151.174157 
z
" style="fill:#008000;opacity:0.2;stroke:#008000;stroke-linejoin:miter;"/>
   </g>
   <g id="patch_128">
    <path clip-path="url(#p96282bae76)" d="M 418.979382 223.419001 
C 420.026259 223.419001 421.0304 223.212148 421.770654 222.844 
C 422.510907 222.475852 422.926836 221.976466 422.926836 221.455826 
C 422.926836 220.935186 422.510907 220.435799 421.770654 220.067651 
C 421.0304 219.699503 420.026259 219.492651 418.979382 219.492651 
C 417.932505 219.492651 416.928364 219.699503 416.188111 220.067651 
C 415.447857 220.435799 415.031928 220.935186 415.031928 221.455826 
C 415.031928 221.976466 415.447857 222.475852 416.188111 222.844 
C 416.928364 223.212148 417.932505 223.419001 418.979382 223.419001 
z
" style="fill:#008000;opacity:0.2;stroke:#008000;stroke-linejoin:miter;"/>
   </g>
   <g id="patch_129">
    <path clip-path="url(#p96282bae76)" d="M 245.291405 307.835531 
C 246.338282 307.835531 247.342423 307.628678 248.082677 307.26053 
C 248.822931 306.892382 249.238859 306.392996 249.238859 305.872356 
C 249.238859 305.351715 248.822931 304.852329 248.082677 304.484181 
C 247.342423 304.116033 246.338282 303.909181 245.291405 303.909181 
C 244.244528 303.909181 243.240388 304.116033 242.500134 304.484181 
C 241.75988 304.852329 241.343951 305.351715 241.343951 305.872356 
C 241.343951 306.392996 241.75988 306.892382 242.500134 307.26053 
C 243.240388 307.628678 244.244528 307.835531 245.291405 307.835531 
z
" style="fill:#008000;opacity:0.2;stroke:#008000;stroke-linejoin:miter;"/>
   </g>
   <g id="patch_130">
    <path d="M 66.076993 204.179885 
Q 118.380759 143.81225 170.684524 83.444615 
" style="fill:none;opacity:0.5;stroke:#008000;stroke-linecap:round;stroke-width:2;"/>
   </g>
   <g id="patch_131">
    <path d="M 73.076977 207.329614 
Q 66.989745 204.590589 60.902514 201.851564 
" style="fill:none;opacity:0.5;stroke:#800080;stroke-linecap:round;stroke-width:2;"/>
    <path d="M 72.324579 205.346209 
L 73.076977 207.329614 
L 71.093571 208.082012 
" style="fill:none;opacity:0.5;stroke:#800080;stroke-linecap:round;stroke-width:2;"/>
    <path d="M 61.654911 203.834969 
L 60.902514 201.851564 
L 62.88592 201.099166 
" style="fill:none;opacity:0.5;stroke:#800080;stroke-linecap:round;stroke-width:2;"/>
   </g>
   <g id="patch_132">
    <path d="M 170.684524 83.444615 
Q 290.095008 56.058322 409.505492 28.672029 
" style="fill:none;opacity:0.5;stroke:#008000;stroke-linecap:round;stroke-width:2;"/>
   </g>
   <g id="patch_133">
    <path d="M 178.763241 84.78387 
Q 171.672159 83.608341 164.581076 82.432812 
" style="fill:none;opacity:0.5;stroke:#800080;stroke-linecap:round;stroke-width:2;"/>
    <path d="M 177.528753 83.05875 
L 178.763241 84.78387 
L 177.038122 86.018358 
" style="fill:none;opacity:0.5;stroke:#800080;stroke-linecap:round;stroke-width:2;"/>
    <path d="M 165.815565 84.157932 
L 164.581076 82.432812 
L 166.306196 81.198323 
" style="fill:none;opacity:0.5;stroke:#800080;stroke-linecap:round;stroke-width:2;"/>
   </g>
   <g id="patch_134">
    <path d="M 409.505492 28.672029 
Q 410.887101 34.16892 412.26871 39.66581 
" style="fill:none;opacity:0.5;stroke:#008000;stroke-linecap:round;stroke-width:2;"/>
   </g>
   <g id="patch_135">
    <path d="M 408.12542 28.966178 
Q 408.527302 28.880521 408.929185 28.794864 
" style="fill:none;opacity:0.5;stroke:#800080;stroke-linecap:round;stroke-width:2;"/>
    <path d="M 409.905153 30.120539 
L 408.12542 28.966178 
L 409.27978 27.186445 
" style="fill:none;opacity:0.5;stroke:#800080;stroke-linecap:round;stroke-width:2;"/>
    <path d="M 407.149451 27.640503 
L 408.929185 28.794864 
L 407.774825 30.574597 
" style="fill:none;opacity:0.5;stroke:#800080;stroke-linecap:round;stroke-width:2;"/>
   </g>
   <g id="patch_136">
    <path d="M 412.26871 39.66581 
Q 322.858877 65.972357 233.449043 92.278903 
" style="fill:none;opacity:0.5;stroke:#008000;stroke-linecap:round;stroke-width:2;"/>
   </g>
   <g id="patch_137">
    <path d="M 410.945278 38.45915 
Q 411.529719 38.992023 412.11416 39.524896 
" style="fill:none;opacity:0.5;stroke:#800080;stroke-linecap:round;stroke-width:2;"/>
    <path d="M 411.04308 40.578215 
L 410.945278 38.45915 
L 413.064343 38.361349 
" style="fill:none;opacity:0.5;stroke:#800080;stroke-linecap:round;stroke-width:2;"/>
    <path d="M 412.016358 37.405831 
L 412.11416 39.524896 
L 409.995095 39.622698 
" style="fill:none;opacity:0.5;stroke:#800080;stroke-linecap:round;stroke-width:2;"/>
   </g>
   <g id="patch_138">
    <path d="M 233.449043 92.278903 
Q 196.145603 147.051489 158.842162 201.824075 
" style="fill:none;opacity:0.5;stroke:#008000;stroke-linecap:round;stroke-width:2;"/>
   </g>
   <g id="patch_139">
    <path d="M 234.274505 89.131548 
Q 233.702891 91.311023 233.131276 93.490498 
" style="fill:none;opacity:0.5;stroke:#800080;stroke-linecap:round;stroke-width:2;"/>
    <path d="M 232.44304 90.201939 
L 234.274505 89.131548 
L 235.344896 90.963013 
" style="fill:none;opacity:0.5;stroke:#800080;stroke-linecap:round;stroke-width:2;"/>
    <path d="M 234.962741 92.420108 
L 233.131276 93.490498 
L 232.060886 91.659033 
" style="fill:none;opacity:0.5;stroke:#800080;stroke-linecap:round;stroke-width:2;"/>
   </g>
   <g id="patch_140">
    <path d="M 158.842162 201.824075 
Q 207.987965 246.38815 257.133767 290.952225 
" style="fill:none;opacity:0.5;stroke:#008000;stroke-linecap:round;stroke-width:2;"/>
   </g>
   <g id="patch_141">
    <path d="M 145.968065 206.270349 
Q 157.896739 202.150591 169.825414 198.030834 
" style="fill:none;opacity:0.5;stroke:#800080;stroke-linecap:round;stroke-width:2;"/>
    <path d="M 147.875557 207.198505 
L 145.968065 206.270349 
L 146.896221 204.362857 
" style="fill:none;opacity:0.5;stroke:#800080;stroke-linecap:round;stroke-width:2;"/>
    <path d="M 167.917921 197.102678 
L 169.825414 198.030834 
L 168.897258 199.938326 
" style="fill:none;opacity:0.5;stroke:#800080;stroke-linecap:round;stroke-width:2;"/>
   </g>
   <g id="patch_142">
    <path d="M 257.133767 290.952225 
Q 294.437208 264.841996 331.740648 238.731767 
" style="fill:none;opacity:0.5;stroke:#008000;stroke-linecap:round;stroke-width:2;"/>
   </g>
   <g id="patch_143">
    <path d="M 255.272445 293.200318 
Q 256.495583 291.72302 257.71872 290.245722 
" style="fill:none;opacity:0.5;stroke:#800080;stroke-linecap:round;stroke-width:2;"/>
    <path d="M 257.384432 293.001541 
L 255.272445 293.200318 
L 255.073669 291.088331 
" style="fill:none;opacity:0.5;stroke:#800080;stroke-linecap:round;stroke-width:2;"/>
    <path d="M 255.606733 290.444499 
L 257.71872 290.245722 
L 257.917497 292.357709 
" style="fill:none;opacity:0.5;stroke:#800080;stroke-linecap:round;stroke-width:2;"/>
   </g>
   <g id="patch_144">
    <path d="M 331.740648 238.731767 
Q 284.963318 203.689091 238.185988 168.646415 
" style="fill:none;opacity:0.5;stroke:#008000;stroke-linecap:round;stroke-width:2;"/>
   </g>
   <g id="patch_145">
    <path d="M 342.261591 234.7203 
Q 332.675952 238.37515 323.090313 242.030001 
" style="fill:none;opacity:0.5;stroke:#800080;stroke-linecap:round;stroke-width:2;"/>
    <path d="M 340.325615 233.853122 
L 342.261591 234.7203 
L 341.394413 236.656276 
" style="fill:none;opacity:0.5;stroke:#800080;stroke-linecap:round;stroke-width:2;"/>
    <path d="M 325.026289 242.897179 
L 323.090313 242.030001 
L 323.957491 240.094025 
" style="fill:none;opacity:0.5;stroke:#800080;stroke-linecap:round;stroke-width:2;"/>
   </g>
   <g id="patch_146">
    <path d="M 238.185988 168.646415 
Q 224.567272 169.529844 210.948555 170.413273 
" style="fill:none;opacity:0.5;stroke:#008000;stroke-linecap:round;stroke-width:2;"/>
   </g>
   <g id="patch_147">
    <path d="M 245.061428 168.646415 
Q 239.187789 168.646415 233.314151 168.646415 
" style="fill:none;opacity:0.5;stroke:#800080;stroke-linecap:round;stroke-width:2;"/>
    <path d="M 243.561428 167.146415 
L 245.061428 168.646415 
L 243.561428 170.146415 
" style="fill:none;opacity:0.5;stroke:#800080;stroke-linecap:round;stroke-width:2;"/>
    <path d="M 234.814151 170.146415 
L 233.314151 168.646415 
L 234.814151 167.146415 
" style="fill:none;opacity:0.5;stroke:#800080;stroke-linecap:round;stroke-width:2;"/>
   </g>
   <g id="patch_148">
    <path d="M 210.948555 170.413273 
Q 208.974828 167.075875 207.001101 163.738477 
" style="fill:none;opacity:0.5;stroke:#008000;stroke-linecap:round;stroke-width:2;"/>
   </g>
   <g id="patch_149">
    <path d="M 210.863548 170.56124 
Q 210.449727 171.281556 210.035905 172.001872 
" style="fill:none;opacity:0.5;stroke:#800080;stroke-linecap:round;stroke-width:2;"/>
    <path d="M 212.911407 170.007817 
L 210.863548 170.56124 
L 210.310126 168.513381 
" style="fill:none;opacity:0.5;stroke:#800080;stroke-linecap:round;stroke-width:2;"/>
    <path d="M 207.988047 172.555295 
L 210.035905 172.001872 
L 210.589328 174.04973 
" style="fill:none;opacity:0.5;stroke:#800080;stroke-linecap:round;stroke-width:2;"/>
   </g>
   <g id="patch_150">
    <path d="M 207.001101 163.738477 
Q 246.080896 156.474729 285.160691 149.210981 
" style="fill:none;opacity:0.5;stroke:#008000;stroke-linecap:round;stroke-width:2;"/>
   </g>
   <g id="patch_151">
    <path d="M 207.213651 164.214158 
Q 207.408954 164.651239 207.604256 165.08832 
" style="fill:none;opacity:0.5;stroke:#800080;stroke-linecap:round;stroke-width:2;"/>
    <path d="M 207.971213 162.232719 
L 207.213651 164.214158 
L 205.232212 163.456595 
" style="fill:none;opacity:0.5;stroke:#800080;stroke-linecap:round;stroke-width:2;"/>
    <path d="M 206.846694 167.069759 
L 207.604256 165.08832 
L 209.585695 165.845882 
" style="fill:none;opacity:0.5;stroke:#800080;stroke-linecap:round;stroke-width:2;"/>
   </g>
   <g id="patch_152">
    <path d="M 285.160691 149.210981 
Q 352.070036 185.333404 418.979382 221.455826 
" style="fill:none;opacity:0.5;stroke:#008000;stroke-linecap:round;stroke-width:2;"/>
   </g>
   <g id="patch_153">
    <path d="M 285.160691 152.312071 
Q 285.160691 150.209728 285.160691 148.107385 
" style="fill:none;opacity:0.5;stroke:#800080;stroke-linecap:round;stroke-width:2;"/>
    <path d="M 286.660691 150.812071 
L 285.160691 152.312071 
L 283.660691 150.812071 
" style="fill:none;opacity:0.5;stroke:#800080;stroke-linecap:round;stroke-width:2;"/>
    <path d="M 283.660691 149.607385 
L 285.160691 148.107385 
L 286.660691 149.607385 
" style="fill:none;opacity:0.5;stroke:#800080;stroke-linecap:round;stroke-width:2;"/>
   </g>
   <g id="patch_154">
    <path d="M 418.979382 221.455826 
Q 332.135394 263.664091 245.291405 305.872356 
" style="fill:none;opacity:0.5;stroke:#008000;stroke-linecap:round;stroke-width:2;"/>
   </g>
   <g id="patch_155">
    <path d="M 412.041337 223.591835 
Q 418.022105 221.750542 424.002873 219.909248 
" style="fill:none;opacity:0.5;stroke:#800080;stroke-linecap:round;stroke-width:2;"/>
    <path d="M 413.916295 224.584072 
L 412.041337 223.591835 
L 413.033574 221.716877 
" style="fill:none;opacity:0.5;stroke:#800080;stroke-linecap:round;stroke-width:2;"/>
    <path d="M 422.127916 218.917011 
L 424.002873 219.909248 
L 423.010636 221.784206 
" style="fill:none;opacity:0.5;stroke:#800080;stroke-linecap:round;stroke-width:2;"/>
   </g>
   <g id="patch_156">
    <path d="M 245.291405 305.872356 
Q 155.684199 255.02612 66.076993 204.179885 
" style="fill:none;opacity:0.5;stroke:#008000;stroke-linecap:round;stroke-width:2;"/>
   </g>
   <g id="patch_157">
    <path d="M 245.502342 305.837387 
Q 244.303771 306.036081 243.1052 306.234775 
" style="fill:none;opacity:0.5;stroke:#800080;stroke-linecap:round;stroke-width:2;"/>
    <path d="M 247.227461 307.071876 
L 245.502342 305.837387 
L 246.736831 304.112268 
" style="fill:none;opacity:0.5;stroke:#800080;stroke-linecap:round;stroke-width:2;"/>
    <path d="M 241.38008 305.000287 
L 243.1052 306.234775 
L 241.870711 307.959895 
" style="fill:none;opacity:0.5;stroke:#800080;stroke-linecap:round;stroke-width:2;"/>
   </g>
   <g id="line2d_1">
    <path clip-path="url(#p96282bae76)" d="M 74.366646 207.909917 
L 180.158414 85.015155 
L 406.742275 29.260982 
L 409.900238 37.506317 
L 234.633279 87.7636 
L 144.631328 206.732012 
L 254.37055 294.289622 
L 343.58301 234.216464 
L 246.475642 168.646415 
L 210.159065 171.787495 
L 207.790592 165.505335 
L 285.160691 153.726284 
L 410.689729 224.007953 
L 244.107169 306.068673 
" style="fill:none;stroke:#ff0000;stroke-linecap:square;stroke-width:0.2;"/>
   </g>
   <g id="line2d_2">
    <path clip-path="url(#p96282bae76)" d="M 57.78734 200.449852 
L 161.210635 81.874075 
L 412.26871 28.083077 
L 414.637183 41.825303 
L 232.264807 96.794206 
L 173.052997 196.916137 
L 259.896985 287.614827 
L 319.898286 243.247069 
L 229.896335 168.646415 
L 211.738046 169.03905 
L 206.211611 161.97162 
L 285.160691 144.695679 
L 427.269035 218.903698 
L 246.475642 305.676038 
" style="fill:none;stroke:#0000ff;stroke-linecap:square;stroke-width:0.2;"/>
   </g>
  </g>
 </g>
 <defs>
  <clipPath id="p96282bae76">
   <rect height="307.51175" width="409.903625" x="37.576375" y="13.32"/>
  </clipPath>
 </defs>
</svg>
