<?xml version="1.0" encoding="utf-8" standalone="no"?>
<!DOCTYPE svg PUBLIC "-//W3C//DTD SVG 1.1//EN"
  "http://www.w3.org/Graphics/SVG/1.1/DTD/svg11.dtd">
<!-- Created with matplotlib (http://matplotlib.org/) -->
<svg height="345.6pt" version="1.1" viewBox="0 0 460.8 345.6" width="460.8pt" xmlns="http://www.w3.org/2000/svg" xmlns:xlink="http://www.w3.org/1999/xlink">
 <defs>
  <style type="text/css">
*{stroke-linecap:butt;stroke-linejoin:round;}
  </style>
 </defs>
 <g id="figure_1">
  <g id="patch_1">
   <path d="M 0 345.6 
L 460.8 345.6 
L 460.8 0 
L 0 0 
z
" style="fill:#ffffff;"/>
  </g>
  <g id="axes_1">
   <g id="patch_2">
    <path clip-path="url(#pf60cf7e8c5)" d="M 67.805764 33.761533 
C 68.463336 33.761533 69.094065 33.421003 69.559039 32.814942 
C 70.024013 32.208881 70.285269 31.38677 70.285269 30.52967 
C 70.285269 29.67257 70.024013 28.850459 69.559039 28.244398 
C 69.094065 27.638336 68.463336 27.297807 67.805764 27.297807 
C 67.148191 27.297807 66.517463 27.638336 66.052489 28.244398 
C 65.587515 28.850459 65.326259 29.67257 65.326259 30.52967 
C 65.326259 31.38677 65.587515 32.208881 66.052489 32.814942 
C 66.517463 33.421003 67.148191 33.761533 67.805764 33.761533 
z
" style="fill:#ff0000;opacity:0.2;stroke:#ff0000;stroke-linejoin:miter;stroke-width:2;"/>
   </g>
   <g id="patch_3">
    <path clip-path="url(#pf60cf7e8c5)" d="M 217.815829 114.558104 
C 218.473402 114.558104 219.10413 114.217574 219.569104 113.611513 
C 220.034078 113.005452 220.295335 112.183341 220.295335 111.326241 
C 220.295335 110.469141 220.034078 109.64703 219.569104 109.040969 
C 219.10413 108.434907 218.473402 108.094378 217.815829 108.094378 
C 217.158257 108.094378 216.527528 108.434907 216.062554 109.040969 
C 215.59758 109.64703 215.336324 110.469141 215.336324 111.326241 
C 215.336324 112.183341 215.59758 113.005452 216.062554 113.611513 
C 216.527528 114.217574 217.158257 114.558104 217.815829 114.558104 
z
" style="fill:#ff0000;opacity:0.2;stroke:#ff0000;stroke-linejoin:miter;stroke-width:2;"/>
   </g>
   <g id="patch_4">
    <path clip-path="url(#pf60cf7e8c5)" d="M 261.207171 116.174035 
C 261.864743 116.174035 262.495472 115.833506 262.960446 115.227444 
C 263.42542 114.621383 263.686676 113.799272 263.686676 112.942172 
C 263.686676 112.085072 263.42542 111.262961 262.960446 110.6569 
C 262.495472 110.050839 261.864743 109.710309 261.207171 109.710309 
C 260.549598 109.710309 259.91887 110.050839 259.453896 110.6569 
C 258.988922 111.262961 258.727665 112.085072 258.727665 112.942172 
C 258.727665 113.799272 258.988922 114.621383 259.453896 115.227444 
C 259.91887 115.833506 260.549598 116.174035 261.207171 116.174035 
z
" style="fill:#ff0000;opacity:0.2;stroke:#ff0000;stroke-linejoin:miter;stroke-width:2;"/>
   </g>
   <g id="patch_5">
    <path clip-path="url(#pf60cf7e8c5)" d="M 409.977484 33.761533 
C 410.635056 33.761533 411.265785 33.421003 411.730759 32.814942 
C 412.195733 32.208881 412.456989 31.38677 412.456989 30.52967 
C 412.456989 29.67257 412.195733 28.850459 411.730759 28.244398 
C 411.265785 27.638336 410.635056 27.297807 409.977484 27.297807 
C 409.319911 27.297807 408.689183 27.638336 408.224209 28.244398 
C 407.759235 28.850459 407.497978 29.67257 407.497978 30.52967 
C 407.497978 31.38677 407.759235 32.208881 408.224209 32.814942 
C 408.689183 33.421003 409.319911 33.761533 409.977484 33.761533 
z
" style="fill:#ff0000;opacity:0.2;stroke:#ff0000;stroke-linejoin:miter;stroke-width:2;"/>
   </g>
   <g id="patch_6">
    <path clip-path="url(#pf60cf7e8c5)" d="M 426.094268 75.77575 
C 426.75184 75.77575 427.382569 75.43522 427.847542 74.829159 
C 428.312516 74.223098 428.573773 73.400987 428.573773 72.543887 
C 428.573773 71.686787 428.312516 70.864676 427.847542 70.258615 
C 427.382569 69.652553 426.75184 69.312024 426.094268 69.312024 
C 425.436695 69.312024 424.805967 69.652553 424.340993 70.258615 
C 423.876019 70.864676 423.614762 71.686787 423.614762 72.543887 
C 423.614762 73.400987 423.876019 74.223098 424.340993 74.829159 
C 424.805967 75.43522 425.436695 75.77575 426.094268 75.77575 
z
" style="fill:#ff0000;opacity:0.2;stroke:#ff0000;stroke-linejoin:miter;stroke-width:2;"/>
   </g>
   <g id="patch_7">
    <path clip-path="url(#pf60cf7e8c5)" d="M 266.166181 264.839726 
C 266.823754 264.839726 267.454482 264.499197 267.919456 263.893135 
C 268.38443 263.287074 268.645686 262.464963 268.645686 261.607863 
C 268.645686 260.750763 268.38443 259.928652 267.919456 259.322591 
C 267.454482 258.71653 266.823754 258.376 266.166181 258.376 
C 265.508609 258.376 264.87788 258.71653 264.412906 259.322591 
C 263.947932 259.928652 263.686676 260.750763 263.686676 261.607863 
C 263.686676 262.464963 263.947932 263.287074 264.412906 263.893135 
C 264.87788 264.499197 265.508609 264.839726 266.166181 264.839726 
z
" style="fill:#ff0000;opacity:0.2;stroke:#ff0000;stroke-linejoin:miter;stroke-width:2;"/>
   </g>
   <g id="patch_8">
    <path clip-path="url(#pf60cf7e8c5)" d="M 211.617066 264.839726 
C 212.274639 264.839726 212.905367 264.499197 213.370341 263.893135 
C 213.835315 263.287074 214.096572 262.464963 214.096572 261.607863 
C 214.096572 260.750763 213.835315 259.928652 213.370341 259.322591 
C 212.905367 258.71653 212.274639 258.376 211.617066 258.376 
C 210.959494 258.376 210.328765 258.71653 209.863791 259.322591 
C 209.398817 259.928652 209.137561 260.750763 209.137561 261.607863 
C 209.137561 262.464963 209.398817 263.287074 209.863791 263.893135 
C 210.328765 264.499197 210.959494 264.839726 211.617066 264.839726 
z
" style="fill:#ff0000;opacity:0.2;stroke:#ff0000;stroke-linejoin:miter;stroke-width:2;"/>
   </g>
   <g id="patch_9">
    <path clip-path="url(#pf60cf7e8c5)" d="M 52.928732 75.77575 
C 53.586305 75.77575 54.217033 75.43522 54.682007 74.829159 
C 55.146981 74.223098 55.408238 73.400987 55.408238 72.543887 
C 55.408238 71.686787 55.146981 70.864676 54.682007 70.258615 
C 54.217033 69.652553 53.586305 69.312024 52.928732 69.312024 
C 52.27116 69.312024 51.640431 69.652553 51.175458 70.258615 
C 50.710484 70.864676 50.449227 71.686787 50.449227 72.543887 
C 50.449227 73.400987 50.710484 74.223098 51.175458 74.829159 
C 51.640431 75.43522 52.27116 75.77575 52.928732 75.77575 
z
" style="fill:#ff0000;opacity:0.2;stroke:#ff0000;stroke-linejoin:miter;stroke-width:2;"/>
   </g>
   <g id="patch_10">
    <path clip-path="url(#pf60cf7e8c5)" d="M 214.096572 289.078698 
C 214.754144 289.078698 215.384873 288.738168 215.849846 288.132107 
C 216.31482 287.526046 216.576077 286.703935 216.576077 285.846835 
C 216.576077 284.989735 216.31482 284.167624 215.849846 283.561563 
C 215.384873 282.955501 214.754144 282.614972 214.096572 282.614972 
C 213.438999 282.614972 212.808271 282.955501 212.343297 283.561563 
C 211.878323 284.167624 211.617066 284.989735 211.617066 285.846835 
C 211.617066 286.703935 211.878323 287.526046 212.343297 288.132107 
C 212.808271 288.738168 213.438999 289.078698 214.096572 289.078698 
z
" style="fill:#0000ff;opacity:0.2;stroke:#0000ff;stroke-linejoin:miter;stroke-width:2;"/>
   </g>
   <g id="patch_11">
    <path clip-path="url(#pf60cf7e8c5)" d="M 61.607001 106.478447 
C 62.264573 106.478447 62.895302 106.137917 63.360276 105.531856 
C 63.82525 104.925795 64.086506 104.103684 64.086506 103.246584 
C 64.086506 102.389484 63.82525 101.567373 63.360276 100.961312 
C 62.895302 100.35525 62.264573 100.014721 61.607001 100.014721 
C 60.949428 100.014721 60.3187 100.35525 59.853726 100.961312 
C 59.388752 101.567373 59.127496 102.389484 59.127496 103.246584 
C 59.127496 104.103684 59.388752 104.925795 59.853726 105.531856 
C 60.3187 106.137917 60.949428 106.478447 61.607001 106.478447 
z
" style="fill:#0000ff;opacity:0.2;stroke:#0000ff;stroke-linejoin:miter;stroke-width:2;"/>
   </g>
   <g id="patch_12">
    <path clip-path="url(#pf60cf7e8c5)" d="M 78.963537 74.159818 
C 79.62111 74.159818 80.251838 73.819289 80.716812 73.213227 
C 81.181786 72.607166 81.443042 71.785055 81.443042 70.927955 
C 81.443042 70.070855 81.181786 69.248744 80.716812 68.642683 
C 80.251838 68.036622 79.62111 67.696092 78.963537 67.696092 
C 78.305965 67.696092 77.675236 68.036622 77.210262 68.642683 
C 76.745288 69.248744 76.484032 70.070855 76.484032 70.927955 
C 76.484032 71.785055 76.745288 72.607166 77.210262 73.213227 
C 77.675236 73.819289 78.305965 74.159818 78.963537 74.159818 
z
" style="fill:#0000ff;opacity:0.2;stroke:#0000ff;stroke-linejoin:miter;stroke-width:2;"/>
   </g>
   <g id="patch_13">
    <path clip-path="url(#pf60cf7e8c5)" d="M 220.295335 166.267909 
C 220.952907 166.267909 221.583636 165.92738 222.04861 165.321319 
C 222.513583 164.715257 222.77484 163.893146 222.77484 163.036046 
C 222.77484 162.178946 222.513583 161.356836 222.04861 160.750774 
C 221.583636 160.144713 220.952907 159.804184 220.295335 159.804184 
C 219.637762 159.804184 219.007034 160.144713 218.54206 160.750774 
C 218.077086 161.356836 217.815829 162.178946 217.815829 163.036046 
C 217.815829 163.893146 218.077086 164.715257 218.54206 165.321319 
C 219.007034 165.92738 219.637762 166.267909 220.295335 166.267909 
z
" style="fill:#0000ff;opacity:0.2;stroke:#0000ff;stroke-linejoin:miter;stroke-width:2;"/>
   </g>
   <g id="patch_14">
    <path clip-path="url(#pf60cf7e8c5)" d="M 259.967418 166.267909 
C 260.624991 166.267909 261.255719 165.92738 261.720693 165.321319 
C 262.185667 164.715257 262.446923 163.893146 262.446923 163.036046 
C 262.446923 162.178946 262.185667 161.356836 261.720693 160.750774 
C 261.255719 160.144713 260.624991 159.804184 259.967418 159.804184 
C 259.309846 159.804184 258.679117 160.144713 258.214143 160.750774 
C 257.749169 161.356836 257.487913 162.178946 257.487913 163.036046 
C 257.487913 163.893146 257.749169 164.715257 258.214143 165.321319 
C 258.679117 165.92738 259.309846 166.267909 259.967418 166.267909 
z
" style="fill:#0000ff;opacity:0.2;stroke:#0000ff;stroke-linejoin:miter;stroke-width:2;"/>
   </g>
   <g id="patch_15">
    <path clip-path="url(#pf60cf7e8c5)" d="M 403.778721 74.159818 
C 404.436293 74.159818 405.067022 73.819289 405.531996 73.213227 
C 405.996969 72.607166 406.258226 71.785055 406.258226 70.927955 
C 406.258226 70.070855 405.996969 69.248744 405.531996 68.642683 
C 405.067022 68.036622 404.436293 67.696092 403.778721 67.696092 
C 403.121148 67.696092 402.49042 68.036622 402.025446 68.642683 
C 401.560472 69.248744 401.299215 70.070855 401.299215 70.927955 
C 401.299215 71.785055 401.560472 72.607166 402.025446 73.213227 
C 402.49042 73.819289 403.121148 74.159818 403.778721 74.159818 
z
" style="fill:#0000ff;opacity:0.2;stroke:#0000ff;stroke-linejoin:miter;stroke-width:2;"/>
   </g>
   <g id="patch_16">
    <path clip-path="url(#pf60cf7e8c5)" d="M 417.415999 106.478447 
C 418.073572 106.478447 418.7043 106.137917 419.169274 105.531856 
C 419.634248 104.925795 419.895504 104.103684 419.895504 103.246584 
C 419.895504 102.389484 419.634248 101.567373 419.169274 100.961312 
C 418.7043 100.35525 418.073572 100.014721 417.415999 100.014721 
C 416.758427 100.014721 416.127698 100.35525 415.662724 100.961312 
C 415.19775 101.567373 414.936494 102.389484 414.936494 103.246584 
C 414.936494 104.103684 415.19775 104.925795 415.662724 105.531856 
C 416.127698 106.137917 416.758427 106.478447 417.415999 106.478447 
z
" style="fill:#0000ff;opacity:0.2;stroke:#0000ff;stroke-linejoin:miter;stroke-width:2;"/>
   </g>
   <g id="patch_17">
    <path clip-path="url(#pf60cf7e8c5)" d="M 266.166181 289.078698 
C 266.823754 289.078698 267.454482 288.738168 267.919456 288.132107 
C 268.38443 287.526046 268.645686 286.703935 268.645686 285.846835 
C 268.645686 284.989735 268.38443 284.167624 267.919456 283.561563 
C 267.454482 282.955501 266.823754 282.614972 266.166181 282.614972 
C 265.508609 282.614972 264.87788 282.955501 264.412906 283.561563 
C 263.947932 284.167624 263.686676 284.989735 263.686676 285.846835 
C 263.686676 286.703935 263.947932 287.526046 264.412906 288.132107 
C 264.87788 288.738168 265.508609 289.078698 266.166181 289.078698 
z
" style="fill:#0000ff;opacity:0.2;stroke:#0000ff;stroke-linejoin:miter;stroke-width:2;"/>
   </g>
   <g id="patch_18">
    <path clip-path="url(#pf60cf7e8c5)" d="M 67.805764 30.52967 
L 217.815829 111.326241 
C 233.932613 119.405898 243.850634 122.637761 261.207171 112.942172 
L 409.977484 30.52967 
C 421.135257 30.52967 428.573773 53.15271 426.094268 72.543887 
L 266.166181 261.607863 
C 247.569892 282.614972 228.973603 282.614972 211.617066 261.607863 
L 52.928732 72.543887 
C 50.449227 53.15271 59.127496 32.145601 67.805764 30.52967 
" style="fill:none;stroke:#ff0000;stroke-linejoin:miter;stroke-width:0.5;"/>
   </g>
   <g id="patch_19">
    <path clip-path="url(#pf60cf7e8c5)" d="M 214.096572 285.846835 
L 61.607001 103.246584 
C 61.607001 88.703201 69.045516 70.927955 78.963537 70.927955 
L 220.295335 163.036046 
C 236.412118 175.963498 241.371129 174.347566 259.967418 163.036046 
L 403.778721 70.927955 
C 411.217236 72.543887 417.415999 88.703201 417.415999 103.246584 
L 266.166181 285.846835 
C 248.809645 306.853943 231.453108 305.238012 214.096572 285.846835 
" style="fill:none;stroke:#0000ff;stroke-linejoin:miter;stroke-width:0.5;"/>
   </g>
   <g id="[&quot;g_s&quot;:1,&quot;g_t&quot;:3,&quot;coords&quot;:[[99.0, 161.0],[108.0, 136.0]],&quot;certainty&quot;:11]">
    <path clip-path="url(#pf60cf7e8c5)" d="M 67.805764 40.225258 
C 69.778481 40.225258 71.670667 39.20367 73.065589 37.385486 
C 74.46051 35.567302 75.244279 33.10097 75.244279 30.52967 
C 75.244279 27.95837 74.46051 25.492037 73.065589 23.673853 
C 71.670667 21.855669 69.778481 20.834081 67.805764 20.834081 
C 65.833046 20.834081 63.940861 21.855669 62.545939 23.673853 
C 61.151017 25.492037 60.367248 27.95837 60.367248 30.52967 
C 60.367248 33.10097 61.151017 35.567302 62.545939 37.385486 
C 63.940861 39.20367 65.833046 40.225258 67.805764 40.225258 
z
" style="fill:#0000ff;opacity:0.2;stroke:#0000ff;stroke-linejoin:miter;stroke-width:2;"/>
   </g>
   <g id="[&quot;g_s&quot;:3,&quot;g_t&quot;:1,&quot;coords&quot;:[[108.0, 136.0],[99.0, 161.0]],&quot;certainty&quot;:11]">
    <path clip-path="url(#pf60cf7e8c5)" d="M 78.963537 80.623544 
C 80.936255 80.623544 82.82844 79.601955 84.223362 77.783772 
C 85.618284 75.965588 86.402053 73.499255 86.402053 70.927955 
C 86.402053 68.356655 85.618284 65.890323 84.223362 64.072139 
C 82.82844 62.253955 80.936255 61.232367 78.963537 61.232367 
C 76.99082 61.232367 75.098634 62.253955 73.703712 64.072139 
C 72.308791 65.890323 71.525022 68.356655 71.525022 70.927955 
C 71.525022 73.499255 72.308791 75.965588 73.703712 77.783772 
C 75.098634 79.601955 76.99082 80.623544 78.963537 80.623544 
z
" style="fill:#ff0000;opacity:0.2;stroke:#ff0000;stroke-linejoin:miter;stroke-width:2;"/>
   </g>
   <g id="patch_20">
    <path d="M 67.805764 30.52967 
Q 73.118714 49.76595 77.866912 66.957468 
" style="fill:none;opacity:0.5;stroke:#0000ff;stroke-linecap:round;stroke-width:3;"/>
    <path d="M 78.913438 65.112263 
L 77.866912 66.957468 
L 76.021706 65.910942 
" style="fill:none;opacity:0.5;stroke:#0000ff;stroke-linecap:round;stroke-width:3;"/>
   </g>
   <g id="[&quot;g_s&quot;:2,&quot;g_t&quot;:4,&quot;coords&quot;:[[220.0, 111.0],[222.0, 79.0]],&quot;certainty&quot;:11]">
    <path clip-path="url(#pf60cf7e8c5)" d="M 217.815829 121.021829 
C 219.788547 121.021829 221.680732 120.000241 223.075654 118.182057 
C 224.470576 116.363874 225.254345 113.897541 225.254345 111.326241 
C 225.254345 108.754941 224.470576 106.288608 223.075654 104.470424 
C 221.680732 102.652241 219.788547 101.630652 217.815829 101.630652 
C 215.843112 101.630652 213.950926 102.652241 212.556005 104.470424 
C 211.161083 106.288608 210.377314 108.754941 210.377314 111.326241 
C 210.377314 113.897541 211.161083 116.363874 212.556005 118.182057 
C 213.950926 120.000241 215.843112 121.021829 217.815829 121.021829 
z
" style="fill:#0000ff;opacity:0.2;stroke:#0000ff;stroke-linejoin:miter;stroke-width:2;"/>
   </g>
   <g id="[&quot;g_s&quot;:4,&quot;g_t&quot;:2,&quot;coords&quot;:[[222.0, 79.0],[220.0, 111.0]],&quot;certainty&quot;:11]">
    <path clip-path="url(#pf60cf7e8c5)" d="M 220.295335 172.731635 
C 222.268052 172.731635 224.160238 171.710047 225.555159 169.891863 
C 226.950081 168.073679 227.73385 165.607347 227.73385 163.036046 
C 227.73385 160.464746 226.950081 157.998414 225.555159 156.18023 
C 224.160238 154.362046 222.268052 153.340458 220.295335 153.340458 
C 218.322617 153.340458 216.430432 154.362046 215.03551 156.18023 
C 213.640588 157.998414 212.856819 160.464746 212.856819 163.036046 
C 212.856819 165.607347 213.640588 168.073679 215.03551 169.891863 
C 216.430432 171.710047 218.322617 172.731635 220.295335 172.731635 
z
" style="fill:#ff0000;opacity:0.2;stroke:#ff0000;stroke-linejoin:miter;stroke-width:2;"/>
   </g>
   <g id="patch_21">
    <path d="M 217.815829 111.326241 
Q 219.007684 136.182233 220.097937 158.919339 
" style="fill:none;opacity:0.5;stroke:#0000ff;stroke-linecap:round;stroke-width:3;"/>
    <path d="M 221.524372 157.349218 
L 220.097937 158.919339 
L 218.527815 157.492904 
" style="fill:none;opacity:0.5;stroke:#0000ff;stroke-linecap:round;stroke-width:3;"/>
   </g>
   <g id="[&quot;g_s&quot;:3,&quot;g_t&quot;:5,&quot;coords&quot;:[[255.0, 110.0],[254.0, 79.0]],&quot;certainty&quot;:6]">
    <path clip-path="url(#pf60cf7e8c5)" d="M 261.207171 118.597932 
C 262.357922 118.597932 263.461697 118.002006 264.275402 116.941399 
C 265.089106 115.880791 265.546305 114.442097 265.546305 112.942172 
C 265.546305 111.442247 265.089106 110.003553 264.275402 108.942946 
C 263.461697 107.882339 262.357922 107.286412 261.207171 107.286412 
C 260.056419 107.286412 258.952644 107.882339 258.138939 108.942946 
C 257.325235 110.003553 256.868037 111.442247 256.868037 112.942172 
C 256.868037 114.442097 257.325235 115.880791 258.138939 116.941399 
C 258.952644 118.002006 260.056419 118.597932 261.207171 118.597932 
z
" style="fill:#0000ff;opacity:0.2;stroke:#0000ff;stroke-linejoin:miter;stroke-width:2;"/>
   </g>
   <g id="[&quot;g_s&quot;:5,&quot;g_t&quot;:3,&quot;coords&quot;:[[254.0, 79.0],[255.0, 110.0]],&quot;certainty&quot;:6]">
    <path clip-path="url(#pf60cf7e8c5)" d="M 259.967418 168.691806 
C 261.11817 168.691806 262.221945 168.09588 263.035649 167.035273 
C 263.849354 165.974665 264.306552 164.535972 264.306552 163.036046 
C 264.306552 161.536121 263.849354 160.097427 263.035649 159.03682 
C 262.221945 157.976213 261.11817 157.380286 259.967418 157.380286 
C 258.816666 157.380286 257.712891 157.976213 256.899187 159.03682 
C 256.085482 160.097427 255.628284 161.536121 255.628284 163.036046 
C 255.628284 164.535972 256.085482 165.974665 256.899187 167.035273 
C 257.712891 168.09588 258.816666 168.691806 259.967418 168.691806 
z
" style="fill:#ff0000;opacity:0.2;stroke:#ff0000;stroke-linejoin:miter;stroke-width:2;"/>
   </g>
   <g id="patch_22">
    <path d="M 261.207171 112.942172 
Q 260.612 136.99084 260.047445 159.802449 
" style="fill:none;opacity:0.5;stroke:#0000ff;stroke-linecap:round;stroke-width:1.75;"/>
    <path d="M 261.584097 158.34002 
L 260.047445 159.802449 
L 258.585016 158.265797 
" style="fill:none;opacity:0.5;stroke:#0000ff;stroke-linecap:round;stroke-width:1.75;"/>
   </g>
   <g id="[&quot;g_s&quot;:4,&quot;g_t&quot;:6,&quot;coords&quot;:[[375.0, 161.0],[370.0, 136.0]],&quot;certainty&quot;:8]">
    <path clip-path="url(#pf60cf7e8c5)" d="M 409.977484 37.801361 
C 411.457022 37.801361 412.876161 37.03517 413.922352 35.671532 
C 414.968544 34.307894 415.55637 32.458145 415.55637 30.52967 
C 415.55637 28.601195 414.968544 26.751445 413.922352 25.387807 
C 412.876161 24.02417 411.457022 23.257978 409.977484 23.257978 
C 408.497946 23.257978 407.078806 24.02417 406.032615 25.387807 
C 404.986424 26.751445 404.398597 28.601195 404.398597 30.52967 
C 404.398597 32.458145 404.986424 34.307894 406.032615 35.671532 
C 407.078806 37.03517 408.497946 37.801361 409.977484 37.801361 
z
" style="fill:#0000ff;opacity:0.2;stroke:#0000ff;stroke-linejoin:miter;stroke-width:2;"/>
   </g>
   <g id="[&quot;g_s&quot;:6,&quot;g_t&quot;:4,&quot;coords&quot;:[[370.0, 136.0],[375.0, 161.0]],&quot;certainty&quot;:8]">
    <path clip-path="url(#pf60cf7e8c5)" d="M 403.778721 78.199647 
C 405.258259 78.199647 406.677398 77.433455 407.723589 76.069818 
C 408.769781 74.70618 409.357607 72.85643 409.357607 70.927955 
C 409.357607 68.99948 408.769781 67.149731 407.723589 65.786093 
C 406.677398 64.422455 405.258259 63.656264 403.778721 63.656264 
C 402.299183 63.656264 400.880043 64.422455 399.833852 65.786093 
C 398.787661 67.149731 398.199834 68.99948 398.199834 70.927955 
C 398.199834 72.85643 398.787661 74.70618 399.833852 76.069818 
C 400.880043 77.433455 402.299183 78.199647 403.778721 78.199647 
z
" style="fill:#ff0000;opacity:0.2;stroke:#ff0000;stroke-linejoin:miter;stroke-width:2;"/>
   </g>
   <g id="patch_23">
    <path d="M 409.977484 30.52967 
Q 407.029817 49.74006 404.323451 67.377866 
" style="fill:none;opacity:0.5;stroke:#0000ff;stroke-linecap:round;stroke-width:2.25;"/>
    <path d="M 406.033598 66.122718 
L 404.323451 67.377866 
L 403.068302 65.667719 
" style="fill:none;opacity:0.5;stroke:#0000ff;stroke-linecap:round;stroke-width:2.25;"/>
   </g>
   <g id="[&quot;g_s&quot;:5,&quot;g_t&quot;:7,&quot;coords&quot;:[[388.0, 135.0],[381.0, 116.0]],&quot;certainty&quot;:4]">
    <path clip-path="url(#pf60cf7e8c5)" d="M 426.094268 76.583715 
C 426.916233 76.583715 427.704644 76.158053 428.285861 75.400477 
C 428.867079 74.6429 429.193649 73.615262 429.193649 72.543887 
C 429.193649 71.472512 428.867079 70.444873 428.285861 69.687297 
C 427.704644 68.92972 426.916233 68.504058 426.094268 68.504058 
C 425.272302 68.504058 424.483891 68.92972 423.902674 69.687297 
C 423.321456 70.444873 422.994886 71.472512 422.994886 72.543887 
C 422.994886 73.615262 423.321456 74.6429 423.902674 75.400477 
C 424.483891 76.158053 425.272302 76.583715 426.094268 76.583715 
z
" style="fill:#0000ff;opacity:0.2;stroke:#0000ff;stroke-linejoin:miter;stroke-width:2;"/>
   </g>
   <g id="[&quot;g_s&quot;:7,&quot;g_t&quot;:5,&quot;coords&quot;:[[381.0, 116.0],[388.0, 135.0]],&quot;certainty&quot;:4]">
    <path clip-path="url(#pf60cf7e8c5)" d="M 417.415999 107.286412 
C 418.237965 107.286412 419.026376 106.86075 419.607593 106.103174 
C 420.18881 105.345597 420.515381 104.317959 420.515381 103.246584 
C 420.515381 102.175209 420.18881 101.14757 419.607593 100.389994 
C 419.026376 99.632417 418.237965 99.206755 417.415999 99.206755 
C 416.594034 99.206755 415.805623 99.632417 415.224406 100.389994 
C 414.643188 101.14757 414.316618 102.175209 414.316618 103.246584 
C 414.316618 104.317959 414.643188 105.345597 415.224406 106.103174 
C 415.805623 106.86075 416.594034 107.286412 417.415999 107.286412 
z
" style="fill:#ff0000;opacity:0.2;stroke:#ff0000;stroke-linejoin:miter;stroke-width:2;"/>
   </g>
   <g id="patch_24">
    <path d="M 426.094268 72.543887 
Q 422.026859 86.933902 418.199865 100.473358 
" style="fill:none;opacity:0.5;stroke:#0000ff;stroke-linecap:round;stroke-width:1.25;"/>
    <path d="M 420.051309 99.437909 
L 418.199865 100.473358 
L 417.164416 98.621914 
" style="fill:none;opacity:0.5;stroke:#0000ff;stroke-linecap:round;stroke-width:1.25;"/>
   </g>
   <g id="[&quot;g_s&quot;:6,&quot;g_t&quot;:8,&quot;coords&quot;:[[259.0, 18.0],[259.0, 3.0]],&quot;certainty&quot;:11]">
    <path clip-path="url(#pf60cf7e8c5)" d="M 266.166181 271.303452 
C 268.138898 271.303452 270.031084 270.281863 271.426006 268.46368 
C 272.820928 266.645496 273.604697 264.179163 273.604697 261.607863 
C 273.604697 259.036563 272.820928 256.570231 271.426006 254.752047 
C 270.031084 252.933863 268.138898 251.912275 266.166181 251.912275 
C 264.193464 251.912275 262.301278 252.933863 260.906356 254.752047 
C 259.511434 256.570231 258.727665 259.036563 258.727665 261.607863 
C 258.727665 264.179163 259.511434 266.645496 260.906356 268.46368 
C 262.301278 270.281863 264.193464 271.303452 266.166181 271.303452 
z
" style="fill:#0000ff;opacity:0.2;stroke:#0000ff;stroke-linejoin:miter;stroke-width:2;"/>
   </g>
   <g id="[&quot;g_s&quot;:8,&quot;g_t&quot;:6,&quot;coords&quot;:[[259.0, 3.0],[259.0, 18.0]],&quot;certainty&quot;:11]">
    <path clip-path="url(#pf60cf7e8c5)" d="M 266.166181 295.542423 
C 268.138898 295.542423 270.031084 294.520835 271.426006 292.702651 
C 272.820928 290.884467 273.604697 288.418135 273.604697 285.846835 
C 273.604697 283.275535 272.820928 280.809202 271.426006 278.991018 
C 270.031084 277.172834 268.138898 276.151246 266.166181 276.151246 
C 264.193464 276.151246 262.301278 277.172834 260.906356 278.991018 
C 259.511434 280.809202 258.727665 283.275535 258.727665 285.846835 
C 258.727665 288.418135 259.511434 290.884467 260.906356 292.702651 
C 262.301278 294.520835 264.193464 295.542423 266.166181 295.542423 
z
" style="fill:#ff0000;opacity:0.2;stroke:#ff0000;stroke-linejoin:miter;stroke-width:2;"/>
   </g>
   <g id="patch_25">
    <path d="M 266.166181 261.607863 
Q 266.166181 272.728734 266.166181 281.728285 
" style="fill:none;opacity:0.5;stroke:#0000ff;stroke-linecap:round;stroke-width:3;"/>
    <path d="M 267.666181 280.228285 
L 266.166181 281.728285 
L 264.666181 280.228285 
" style="fill:none;opacity:0.5;stroke:#0000ff;stroke-linecap:round;stroke-width:3;"/>
   </g>
   <g id="[&quot;g_s&quot;:7,&quot;g_t&quot;:1,&quot;coords&quot;:[[215.0, 18.0],[217.0, 3.0]],&quot;certainty&quot;:6]">
    <path clip-path="url(#pf60cf7e8c5)" d="M 211.617066 267.263623 
C 212.767818 267.263623 213.871593 266.667697 214.685297 265.60709 
C 215.499002 264.546482 215.9562 263.107788 215.9562 261.607863 
C 215.9562 260.107938 215.499002 258.669244 214.685297 257.608637 
C 213.871593 256.54803 212.767818 255.952103 211.617066 255.952103 
C 210.466314 255.952103 209.36254 256.54803 208.548835 257.608637 
C 207.735131 258.669244 207.277932 260.107938 207.277932 261.607863 
C 207.277932 263.107788 207.735131 264.546482 208.548835 265.60709 
C 209.36254 266.667697 210.466314 267.263623 211.617066 267.263623 
z
" style="fill:#0000ff;opacity:0.2;stroke:#0000ff;stroke-linejoin:miter;stroke-width:2;"/>
   </g>
   <g id="[&quot;g_s&quot;:1,&quot;g_t&quot;:7,&quot;coords&quot;:[[217.0, 3.0],[215.0, 18.0]],&quot;certainty&quot;:6]">
    <path clip-path="url(#pf60cf7e8c5)" d="M 214.096572 291.502595 
C 215.247323 291.502595 216.351098 290.906668 217.164803 289.846061 
C 217.978507 288.785454 218.435706 287.34676 218.435706 285.846835 
C 218.435706 284.34691 217.978507 282.908216 217.164803 281.847608 
C 216.351098 280.787001 215.247323 280.191075 214.096572 280.191075 
C 212.94582 280.191075 211.842045 280.787001 211.02834 281.847608 
C 210.214636 282.908216 209.757437 284.34691 209.757437 285.846835 
C 209.757437 287.34676 210.214636 288.785454 211.02834 289.846061 
C 211.842045 290.906668 212.94582 291.502595 214.096572 291.502595 
z
" style="fill:#ff0000;opacity:0.2;stroke:#ff0000;stroke-linejoin:miter;stroke-width:2;"/>
   </g>
   <g id="patch_26">
    <path d="M 211.617066 261.607863 
Q 212.754969 272.731693 213.766947 282.62451 
" style="fill:none;opacity:0.5;stroke:#0000ff;stroke-linecap:round;stroke-width:1.75;"/>
    <path d="M 215.106515 280.979652 
L 213.766947 282.62451 
L 212.122089 281.284941 
" style="fill:none;opacity:0.5;stroke:#0000ff;stroke-linecap:round;stroke-width:1.75;"/>
   </g>
   <g id="[&quot;g_s&quot;:8,&quot;g_t&quot;:2,&quot;coords&quot;:[[87.0, 135.0],[94.0, 116.0]],&quot;certainty&quot;:5]">
    <path clip-path="url(#pf60cf7e8c5)" d="M 52.928732 77.391681 
C 53.915091 77.391681 54.861184 76.880887 55.558645 75.971795 
C 56.256106 75.062703 56.64799 73.829537 56.64799 72.543887 
C 56.64799 71.258237 56.256106 70.02507 55.558645 69.115978 
C 54.861184 68.206887 53.915091 67.696092 52.928732 67.696092 
C 51.942374 67.696092 50.996281 68.206887 50.29882 69.115978 
C 49.601359 70.02507 49.209475 71.258237 49.209475 72.543887 
C 49.209475 73.829537 49.601359 75.062703 50.29882 75.971795 
C 50.996281 76.880887 51.942374 77.391681 52.928732 77.391681 
z
" style="fill:#0000ff;opacity:0.2;stroke:#0000ff;stroke-linejoin:miter;stroke-width:2;"/>
   </g>
   <g id="[&quot;g_s&quot;:2,&quot;g_t&quot;:8,&quot;coords&quot;:[[94.0, 116.0],[87.0, 135.0]],&quot;certainty&quot;:5]">
    <path clip-path="url(#pf60cf7e8c5)" d="M 61.607001 108.094378 
C 62.593359 108.094378 63.539452 107.583584 64.236913 106.674492 
C 64.934374 105.7654 65.326259 104.532234 65.326259 103.246584 
C 65.326259 101.960934 64.934374 100.727767 64.236913 99.818676 
C 63.539452 98.909584 62.593359 98.398789 61.607001 98.398789 
C 60.620642 98.398789 59.674549 98.909584 58.977088 99.818676 
C 58.279627 100.727767 57.887743 101.960934 57.887743 103.246584 
C 57.887743 104.532234 58.279627 105.7654 58.977088 106.674492 
C 59.674549 107.583584 60.620642 108.094378 61.607001 108.094378 
z
" style="fill:#ff0000;opacity:0.2;stroke:#ff0000;stroke-linejoin:miter;stroke-width:2;"/>
   </g>
   <g id="patch_27">
    <path d="M 52.928732 72.543887 
Q 56.996141 86.933902 60.775052 100.303246 
" style="fill:none;opacity:0.5;stroke:#0000ff;stroke-linecap:round;stroke-width:1.5;"/>
    <path d="M 61.810501 98.451802 
L 60.775052 100.303246 
L 58.923608 99.267797 
" style="fill:none;opacity:0.5;stroke:#0000ff;stroke-linecap:round;stroke-width:1.5;"/>
   </g>
   <g id="[&quot;g_s&quot;:1,&quot;g_t&quot;:7,&quot;coords&quot;:[[217.0, 3.0],[215.0, 18.0]],&quot;certainty&quot;:7]">
    <path clip-path="url(#pf60cf7e8c5)" d="M 214.096572 292.31056 
C 215.411716 292.31056 216.673174 291.629501 217.603121 290.417379 
C 218.533069 289.205256 219.055582 287.561035 219.055582 285.846835 
C 219.055582 284.132635 218.533069 282.488413 217.603121 281.27629 
C 216.673174 280.064168 215.411716 279.383109 214.096572 279.383109 
C 212.781427 279.383109 211.51997 280.064168 210.590022 281.27629 
C 209.660074 282.488413 209.137561 284.132635 209.137561 285.846835 
C 209.137561 287.561035 209.660074 289.205256 210.590022 290.417379 
C 211.51997 291.629501 212.781427 292.31056 214.096572 292.31056 
z
" style="fill:#0000ff;opacity:0.2;stroke:#0000ff;stroke-linejoin:miter;stroke-width:2;"/>
   </g>
   <g id="[&quot;g_s&quot;:7,&quot;g_t&quot;:1,&quot;coords&quot;:[[215.0, 18.0],[217.0, 3.0]],&quot;certainty&quot;:7]">
    <path clip-path="url(#pf60cf7e8c5)" d="M 211.617066 268.071589 
C 212.932211 268.071589 214.193668 267.39053 215.123616 266.178408 
C 216.053564 264.966285 216.576077 263.322063 216.576077 261.607863 
C 216.576077 259.893663 216.053564 258.249442 215.123616 257.037319 
C 214.193668 255.825197 212.932211 255.144138 211.617066 255.144138 
C 210.301921 255.144138 209.040464 255.825197 208.110516 257.037319 
C 207.180569 258.249442 206.658056 259.893663 206.658056 261.607863 
C 206.658056 263.322063 207.180569 264.966285 208.110516 266.178408 
C 209.040464 267.39053 210.301921 268.071589 211.617066 268.071589 
z
" style="fill:#ff0000;opacity:0.2;stroke:#ff0000;stroke-linejoin:miter;stroke-width:2;"/>
   </g>
   <g id="patch_28">
    <path d="M 214.096572 285.846835 
Q 212.958669 274.723005 211.964681 265.006047 
" style="fill:none;opacity:0.5;stroke:#ff0000;stroke-linecap:round;stroke-width:2;"/>
    <path d="M 210.625112 266.650905 
L 211.964681 265.006047 
L 213.609538 266.345615 
" style="fill:none;opacity:0.5;stroke:#ff0000;stroke-linecap:round;stroke-width:2;"/>
   </g>
   <g id="[&quot;g_s&quot;:2,&quot;g_t&quot;:8,&quot;coords&quot;:[[94.0, 116.0],[87.0, 135.0]],&quot;certainty&quot;:5]">
    <path clip-path="url(#pf60cf7e8c5)" d="M 61.607001 108.094378 
C 62.593359 108.094378 63.539452 107.583584 64.236913 106.674492 
C 64.934374 105.7654 65.326259 104.532234 65.326259 103.246584 
C 65.326259 101.960934 64.934374 100.727767 64.236913 99.818676 
C 63.539452 98.909584 62.593359 98.398789 61.607001 98.398789 
C 60.620642 98.398789 59.674549 98.909584 58.977088 99.818676 
C 58.279627 100.727767 57.887743 101.960934 57.887743 103.246584 
C 57.887743 104.532234 58.279627 105.7654 58.977088 106.674492 
C 59.674549 107.583584 60.620642 108.094378 61.607001 108.094378 
z
" style="fill:#0000ff;opacity:0.2;stroke:#0000ff;stroke-linejoin:miter;stroke-width:2;"/>
   </g>
   <g id="[&quot;g_s&quot;:8,&quot;g_t&quot;:2,&quot;coords&quot;:[[87.0, 135.0],[94.0, 116.0]],&quot;certainty&quot;:5]">
    <path clip-path="url(#pf60cf7e8c5)" d="M 52.928732 77.391681 
C 53.915091 77.391681 54.861184 76.880887 55.558645 75.971795 
C 56.256106 75.062703 56.64799 73.829537 56.64799 72.543887 
C 56.64799 71.258237 56.256106 70.02507 55.558645 69.115978 
C 54.861184 68.206887 53.915091 67.696092 52.928732 67.696092 
C 51.942374 67.696092 50.996281 68.206887 50.29882 69.115978 
C 49.601359 70.02507 49.209475 71.258237 49.209475 72.543887 
C 49.209475 73.829537 49.601359 75.062703 50.29882 75.971795 
C 50.996281 76.880887 51.942374 77.391681 52.928732 77.391681 
z
" style="fill:#ff0000;opacity:0.2;stroke:#ff0000;stroke-linejoin:miter;stroke-width:2;"/>
   </g>
   <g id="patch_29">
    <path d="M 61.607001 103.246584 
Q 57.539592 88.856568 53.760681 75.487224 
" style="fill:none;opacity:0.5;stroke:#ff0000;stroke-linecap:round;stroke-width:1.5;"/>
    <path d="M 52.725232 77.338668 
L 53.760681 75.487224 
L 55.612125 76.522673 
" style="fill:none;opacity:0.5;stroke:#ff0000;stroke-linecap:round;stroke-width:1.5;"/>
   </g>
   <g id="[&quot;g_s&quot;:3,&quot;g_t&quot;:1,&quot;coords&quot;:[[108.0, 136.0],[99.0, 161.0]],&quot;certainty&quot;:6]">
    <path clip-path="url(#pf60cf7e8c5)" d="M 78.963537 76.583715 
C 80.114289 76.583715 81.218064 75.987789 82.031768 74.927182 
C 82.845473 73.866574 83.302671 72.42788 83.302671 70.927955 
C 83.302671 69.42803 82.845473 67.989336 82.031768 66.928729 
C 81.218064 65.868122 80.114289 65.272195 78.963537 65.272195 
C 77.812785 65.272195 76.709011 65.868122 75.895306 66.928729 
C 75.081602 67.989336 74.624403 69.42803 74.624403 70.927955 
C 74.624403 72.42788 75.081602 73.866574 75.895306 74.927182 
C 76.709011 75.987789 77.812785 76.583715 78.963537 76.583715 
z
" style="fill:#0000ff;opacity:0.2;stroke:#0000ff;stroke-linejoin:miter;stroke-width:2;"/>
   </g>
   <g id="[&quot;g_s&quot;:1,&quot;g_t&quot;:3,&quot;coords&quot;:[[99.0, 161.0],[108.0, 136.0]],&quot;certainty&quot;:6]">
    <path clip-path="url(#pf60cf7e8c5)" d="M 67.805764 36.18543 
C 68.956516 36.18543 70.060291 35.589503 70.873995 34.528896 
C 71.687699 33.468289 72.144898 32.029595 72.144898 30.52967 
C 72.144898 29.029745 71.687699 27.591051 70.873995 26.530443 
C 70.060291 25.469836 68.956516 24.87391 67.805764 24.87391 
C 66.655012 24.87391 65.551237 25.469836 64.737533 26.530443 
C 63.923828 27.591051 63.46663 29.029745 63.46663 30.52967 
C 63.46663 32.029595 63.923828 33.468289 64.737533 34.528896 
C 65.551237 35.589503 66.655012 36.18543 67.805764 36.18543 
z
" style="fill:#ff0000;opacity:0.2;stroke:#ff0000;stroke-linejoin:miter;stroke-width:2;"/>
   </g>
   <g id="patch_30">
    <path d="M 78.963537 70.927955 
Q 73.650587 51.691674 68.667076 33.648172 
" style="fill:none;opacity:0.5;stroke:#ff0000;stroke-linecap:round;stroke-width:1.75;"/>
    <path d="M 67.62055 35.493378 
L 68.667076 33.648172 
L 70.512282 34.694698 
" style="fill:none;opacity:0.5;stroke:#ff0000;stroke-linecap:round;stroke-width:1.75;"/>
   </g>
   <g id="[&quot;g_s&quot;:4,&quot;g_t&quot;:2,&quot;coords&quot;:[[222.0, 79.0],[220.0, 111.0]],&quot;certainty&quot;:11]">
    <path clip-path="url(#pf60cf7e8c5)" d="M 220.295335 172.731635 
C 222.268052 172.731635 224.160238 171.710047 225.555159 169.891863 
C 226.950081 168.073679 227.73385 165.607347 227.73385 163.036046 
C 227.73385 160.464746 226.950081 157.998414 225.555159 156.18023 
C 224.160238 154.362046 222.268052 153.340458 220.295335 153.340458 
C 218.322617 153.340458 216.430432 154.362046 215.03551 156.18023 
C 213.640588 157.998414 212.856819 160.464746 212.856819 163.036046 
C 212.856819 165.607347 213.640588 168.073679 215.03551 169.891863 
C 216.430432 171.710047 218.322617 172.731635 220.295335 172.731635 
z
" style="fill:#0000ff;opacity:0.2;stroke:#0000ff;stroke-linejoin:miter;stroke-width:2;"/>
   </g>
   <g id="[&quot;g_s&quot;:2,&quot;g_t&quot;:4,&quot;coords&quot;:[[220.0, 111.0],[222.0, 79.0]],&quot;certainty&quot;:11]">
    <path clip-path="url(#pf60cf7e8c5)" d="M 217.815829 121.021829 
C 219.788547 121.021829 221.680732 120.000241 223.075654 118.182057 
C 224.470576 116.363874 225.254345 113.897541 225.254345 111.326241 
C 225.254345 108.754941 224.470576 106.288608 223.075654 104.470424 
C 221.680732 102.652241 219.788547 101.630652 217.815829 101.630652 
C 215.843112 101.630652 213.950926 102.652241 212.556005 104.470424 
C 211.161083 106.288608 210.377314 108.754941 210.377314 111.326241 
C 210.377314 113.897541 211.161083 116.363874 212.556005 118.182057 
C 213.950926 120.000241 215.843112 121.021829 217.815829 121.021829 
z
" style="fill:#ff0000;opacity:0.2;stroke:#ff0000;stroke-linejoin:miter;stroke-width:2;"/>
   </g>
   <g id="patch_31">
    <path d="M 220.295335 163.036046 
Q 219.10348 138.180054 218.013227 115.442948 
" style="fill:none;opacity:0.5;stroke:#ff0000;stroke-linecap:round;stroke-width:3;"/>
    <path d="M 216.586792 117.01307 
L 218.013227 115.442948 
L 219.583349 116.869384 
" style="fill:none;opacity:0.5;stroke:#ff0000;stroke-linecap:round;stroke-width:3;"/>
   </g>
   <g id="[&quot;g_s&quot;:5,&quot;g_t&quot;:3,&quot;coords&quot;:[[254.0, 79.0],[255.0, 110.0]],&quot;certainty&quot;:6]">
    <path clip-path="url(#pf60cf7e8c5)" d="M 259.967418 168.691806 
C 261.11817 168.691806 262.221945 168.09588 263.035649 167.035273 
C 263.849354 165.974665 264.306552 164.535972 264.306552 163.036046 
C 264.306552 161.536121 263.849354 160.097427 263.035649 159.03682 
C 262.221945 157.976213 261.11817 157.380286 259.967418 157.380286 
C 258.816666 157.380286 257.712891 157.976213 256.899187 159.03682 
C 256.085482 160.097427 255.628284 161.536121 255.628284 163.036046 
C 255.628284 164.535972 256.085482 165.974665 256.899187 167.035273 
C 257.712891 168.09588 258.816666 168.691806 259.967418 168.691806 
z
" style="fill:#0000ff;opacity:0.2;stroke:#0000ff;stroke-linejoin:miter;stroke-width:2;"/>
   </g>
   <g id="[&quot;g_s&quot;:3,&quot;g_t&quot;:5,&quot;coords&quot;:[[255.0, 110.0],[254.0, 79.0]],&quot;certainty&quot;:6]">
    <path clip-path="url(#pf60cf7e8c5)" d="M 261.207171 118.597932 
C 262.357922 118.597932 263.461697 118.002006 264.275402 116.941399 
C 265.089106 115.880791 265.546305 114.442097 265.546305 112.942172 
C 265.546305 111.442247 265.089106 110.003553 264.275402 108.942946 
C 263.461697 107.882339 262.357922 107.286412 261.207171 107.286412 
C 260.056419 107.286412 258.952644 107.882339 258.138939 108.942946 
C 257.325235 110.003553 256.868037 111.442247 256.868037 112.942172 
C 256.868037 114.442097 257.325235 115.880791 258.138939 116.941399 
C 258.952644 118.002006 260.056419 118.597932 261.207171 118.597932 
z
" style="fill:#ff0000;opacity:0.2;stroke:#ff0000;stroke-linejoin:miter;stroke-width:2;"/>
   </g>
   <g id="patch_32">
    <path d="M 259.967418 163.036046 
Q 260.562589 138.987379 261.127144 116.17577 
" style="fill:none;opacity:0.5;stroke:#ff0000;stroke-linecap:round;stroke-width:1.75;"/>
    <path d="M 259.590491 117.638199 
L 261.127144 116.17577 
L 262.589573 117.712422 
" style="fill:none;opacity:0.5;stroke:#ff0000;stroke-linecap:round;stroke-width:1.75;"/>
   </g>
   <g id="[&quot;g_s&quot;:6,&quot;g_t&quot;:4,&quot;coords&quot;:[[370.0, 136.0],[375.0, 161.0]],&quot;certainty&quot;:6]">
    <path clip-path="url(#pf60cf7e8c5)" d="M 403.778721 76.583715 
C 404.929472 76.583715 406.033247 75.987789 406.846952 74.927182 
C 407.660656 73.866574 408.117855 72.42788 408.117855 70.927955 
C 408.117855 69.42803 407.660656 67.989336 406.846952 66.928729 
C 406.033247 65.868122 404.929472 65.272195 403.778721 65.272195 
C 402.627969 65.272195 401.524194 65.868122 400.710489 66.928729 
C 399.896785 67.989336 399.439586 69.42803 399.439586 70.927955 
C 399.439586 72.42788 399.896785 73.866574 400.710489 74.927182 
C 401.524194 75.987789 402.627969 76.583715 403.778721 76.583715 
z
" style="fill:#0000ff;opacity:0.2;stroke:#0000ff;stroke-linejoin:miter;stroke-width:2;"/>
   </g>
   <g id="[&quot;g_s&quot;:4,&quot;g_t&quot;:6,&quot;coords&quot;:[[375.0, 161.0],[370.0, 136.0]],&quot;certainty&quot;:6]">
    <path clip-path="url(#pf60cf7e8c5)" d="M 409.977484 36.18543 
C 411.128235 36.18543 412.23201 35.589503 413.045715 34.528896 
C 413.859419 33.468289 414.316618 32.029595 414.316618 30.52967 
C 414.316618 29.029745 413.859419 27.591051 413.045715 26.530443 
C 412.23201 25.469836 411.128235 24.87391 409.977484 24.87391 
C 408.826732 24.87391 407.722957 25.469836 406.909252 26.530443 
C 406.095548 27.591051 405.638349 29.029745 405.638349 30.52967 
C 405.638349 32.029595 406.095548 33.468289 406.909252 34.528896 
C 407.722957 35.589503 408.826732 36.18543 409.977484 36.18543 
z
" style="fill:#ff0000;opacity:0.2;stroke:#ff0000;stroke-linejoin:miter;stroke-width:2;"/>
   </g>
   <g id="patch_33">
    <path d="M 403.778721 70.927955 
Q 406.726387 51.717564 409.486376 33.730296 
" style="fill:none;opacity:0.5;stroke:#ff0000;stroke-linecap:round;stroke-width:1.75;"/>
    <path d="M 407.776229 34.985444 
L 409.486376 33.730296 
L 410.741524 35.440443 
" style="fill:none;opacity:0.5;stroke:#ff0000;stroke-linecap:round;stroke-width:1.75;"/>
   </g>
   <g id="[&quot;g_s&quot;:7,&quot;g_t&quot;:5,&quot;coords&quot;:[[381.0, 116.0],[388.0, 135.0]],&quot;certainty&quot;:6]">
    <path clip-path="url(#pf60cf7e8c5)" d="M 417.415999 108.902344 
C 418.566751 108.902344 419.670526 108.306417 420.48423 107.24581 
C 421.297935 106.185203 421.755133 104.746509 421.755133 103.246584 
C 421.755133 101.746659 421.297935 100.307965 420.48423 99.247358 
C 419.670526 98.18675 418.566751 97.590824 417.415999 97.590824 
C 416.265247 97.590824 415.161473 98.18675 414.347768 99.247358 
C 413.534064 100.307965 413.076865 101.746659 413.076865 103.246584 
C 413.076865 104.746509 413.534064 106.185203 414.347768 107.24581 
C 415.161473 108.306417 416.265247 108.902344 417.415999 108.902344 
z
" style="fill:#0000ff;opacity:0.2;stroke:#0000ff;stroke-linejoin:miter;stroke-width:2;"/>
   </g>
   <g id="[&quot;g_s&quot;:5,&quot;g_t&quot;:7,&quot;coords&quot;:[[388.0, 135.0],[381.0, 116.0]],&quot;certainty&quot;:6]">
    <path clip-path="url(#pf60cf7e8c5)" d="M 426.094268 78.199647 
C 427.245019 78.199647 428.348794 77.60372 429.162499 76.543113 
C 429.976203 75.482506 430.433402 74.043812 430.433402 72.543887 
C 430.433402 71.043962 429.976203 69.605268 429.162499 68.54466 
C 428.348794 67.484053 427.245019 66.888127 426.094268 66.888127 
C 424.943516 66.888127 423.839741 67.484053 423.026036 68.54466 
C 422.212332 69.605268 421.755133 71.043962 421.755133 72.543887 
C 421.755133 74.043812 422.212332 75.482506 423.026036 76.543113 
C 423.839741 77.60372 424.943516 78.199647 426.094268 78.199647 
z
" style="fill:#ff0000;opacity:0.2;stroke:#ff0000;stroke-linejoin:miter;stroke-width:2;"/>
   </g>
   <g id="patch_34">
    <path d="M 417.415999 103.246584 
Q 421.483408 88.856568 425.214236 75.657336 
" style="fill:none;opacity:0.5;stroke:#ff0000;stroke-linecap:round;stroke-width:1.75;"/>
    <path d="M 423.362792 76.692785 
L 425.214236 75.657336 
L 426.249685 77.50878 
" style="fill:none;opacity:0.5;stroke:#ff0000;stroke-linecap:round;stroke-width:1.75;"/>
   </g>
   <g id="[&quot;g_s&quot;:8,&quot;g_t&quot;:6,&quot;coords&quot;:[[259.0, 3.0],[259.0, 18.0]],&quot;certainty&quot;:12]">
    <path clip-path="url(#pf60cf7e8c5)" d="M 266.166181 296.350389 
C 268.303292 296.350389 270.353159 295.243668 271.864325 293.273969 
C 273.37549 291.30427 274.224573 288.63241 274.224573 285.846835 
C 274.224573 283.06126 273.37549 280.389399 271.864325 278.4197 
C 270.353159 276.450001 268.303292 275.34328 266.166181 275.34328 
C 264.029071 275.34328 261.979203 276.450001 260.468037 278.4197 
C 258.956872 280.389399 258.107789 283.06126 258.107789 285.846835 
C 258.107789 288.63241 258.956872 291.30427 260.468037 293.273969 
C 261.979203 295.243668 264.029071 296.350389 266.166181 296.350389 
z
" style="fill:#0000ff;opacity:0.2;stroke:#0000ff;stroke-linejoin:miter;stroke-width:2;"/>
   </g>
   <g id="[&quot;g_s&quot;:6,&quot;g_t&quot;:8,&quot;coords&quot;:[[259.0, 18.0],[259.0, 3.0]],&quot;certainty&quot;:12]">
    <path clip-path="url(#pf60cf7e8c5)" d="M 266.166181 272.111418 
C 268.303292 272.111418 270.353159 271.004697 271.864325 269.034998 
C 273.37549 267.065299 274.224573 264.393438 274.224573 261.607863 
C 274.224573 258.822288 273.37549 256.150428 271.864325 254.180729 
C 270.353159 252.21103 268.303292 251.104309 266.166181 251.104309 
C 264.029071 251.104309 261.979203 252.21103 260.468037 254.180729 
C 258.956872 256.150428 258.107789 258.822288 258.107789 261.607863 
C 258.107789 264.393438 258.956872 267.065299 260.468037 269.034998 
C 261.979203 271.004697 264.029071 272.111418 266.166181 272.111418 
z
" style="fill:#ff0000;opacity:0.2;stroke:#ff0000;stroke-linejoin:miter;stroke-width:2;"/>
   </g>
   <g id="patch_35">
    <path d="M 266.166181 285.846835 
Q 266.166181 274.725964 266.166181 265.90319 
" style="fill:none;opacity:0.5;stroke:#ff0000;stroke-linecap:round;stroke-width:3.25;"/>
    <path d="M 264.666181 267.40319 
L 266.166181 265.90319 
L 267.666181 267.40319 
" style="fill:none;opacity:0.5;stroke:#ff0000;stroke-linecap:round;stroke-width:3.25;"/>
   </g>
   <g id="patch_36">
    <path clip-path="url(#pf60cf7e8c5)" d="M 73.384651 58.80847 
C 75.028582 58.80847 76.605403 57.957146 77.767838 56.441993 
C 78.930273 54.92684 79.583414 52.871563 79.583414 50.728812 
C 79.583414 48.586062 78.930273 46.530785 77.767838 45.015632 
C 76.605403 43.500479 75.028582 42.649155 73.384651 42.649155 
C 71.740719 42.649155 70.163898 43.500479 69.001463 45.015632 
C 67.839028 46.530785 67.185887 48.586062 67.185887 50.728812 
C 67.185887 52.871563 67.839028 54.92684 69.001463 56.441993 
C 70.163898 57.957146 71.740719 58.80847 73.384651 58.80847 
z
" style="fill:#008000;opacity:0.2;stroke:#008000;stroke-linejoin:miter;stroke-width:2;"/>
   </g>
   <g id="patch_37">
    <path clip-path="url(#pf60cf7e8c5)" d="M 219.055582 145.260801 
C 220.699513 145.260801 222.276334 144.409477 223.438769 142.894324 
C 224.601204 141.379171 225.254345 139.323894 225.254345 137.181144 
C 225.254345 135.038394 224.601204 132.983116 223.438769 131.467963 
C 222.276334 129.95281 220.699513 129.101487 219.055582 129.101487 
C 217.411651 129.101487 215.834829 129.95281 214.672395 131.467963 
C 213.50996 132.983116 212.856819 135.038394 212.856819 137.181144 
C 212.856819 139.323894 213.50996 141.379171 214.672395 142.894324 
C 215.834829 144.409477 217.411651 145.260801 219.055582 145.260801 
z
" style="fill:#008000;opacity:0.2;stroke:#008000;stroke-linejoin:miter;stroke-width:2;"/>
   </g>
   <g id="patch_38">
    <path clip-path="url(#pf60cf7e8c5)" d="M 260.587294 146.068766 
C 262.231226 146.068766 263.808047 145.217443 264.970482 143.70229 
C 266.132917 142.187137 266.786057 140.131859 266.786057 137.989109 
C 266.786057 135.846359 266.132917 133.791082 264.970482 132.275929 
C 263.808047 130.760776 262.231226 129.909452 260.587294 129.909452 
C 258.943363 129.909452 257.366542 130.760776 256.204107 132.275929 
C 255.041672 133.791082 254.388531 135.846359 254.388531 137.989109 
C 254.388531 140.131859 255.041672 142.187137 256.204107 143.70229 
C 257.366542 145.217443 258.943363 146.068766 260.587294 146.068766 
z
" style="fill:#008000;opacity:0.2;stroke:#008000;stroke-linejoin:miter;stroke-width:2;"/>
   </g>
   <g id="patch_39">
    <path clip-path="url(#pf60cf7e8c5)" d="M 406.878102 58.80847 
C 408.522033 58.80847 410.098855 57.957146 411.261289 56.441993 
C 412.423724 54.92684 413.076865 52.871563 413.076865 50.728812 
C 413.076865 48.586062 412.423724 46.530785 411.261289 45.015632 
C 410.098855 43.500479 408.522033 42.649155 406.878102 42.649155 
C 405.234171 42.649155 403.65735 43.500479 402.494915 45.015632 
C 401.33248 46.530785 400.679339 48.586062 400.679339 50.728812 
C 400.679339 52.871563 401.33248 54.92684 402.494915 56.441993 
C 403.65735 57.957146 405.234171 58.80847 406.878102 58.80847 
z
" style="fill:#008000;opacity:0.2;stroke:#008000;stroke-linejoin:miter;stroke-width:2;"/>
   </g>
   <g id="patch_40">
    <path clip-path="url(#pf60cf7e8c5)" d="M 421.755133 95.974892 
C 423.399065 95.974892 424.975886 95.123569 426.138321 93.608416 
C 427.300756 92.093262 427.953896 90.037985 427.953896 87.895235 
C 427.953896 85.752485 427.300756 83.697208 426.138321 82.182055 
C 424.975886 80.666902 423.399065 79.815578 421.755133 79.815578 
C 420.111202 79.815578 418.534381 80.666902 417.371946 82.182055 
C 416.209511 83.697208 415.55637 85.752485 415.55637 87.895235 
C 415.55637 90.037985 416.209511 92.093262 417.371946 93.608416 
C 418.534381 95.123569 420.111202 95.974892 421.755133 95.974892 
z
" style="fill:#008000;opacity:0.2;stroke:#008000;stroke-linejoin:miter;stroke-width:2;"/>
   </g>
   <g id="patch_41">
    <path clip-path="url(#pf60cf7e8c5)" d="M 266.166181 281.807006 
C 267.810112 281.807006 269.386934 280.955682 270.549368 279.440529 
C 271.711803 277.925376 272.364944 275.870099 272.364944 273.727349 
C 272.364944 271.584599 271.711803 269.529322 270.549368 268.014169 
C 269.386934 266.499016 267.810112 265.647692 266.166181 265.647692 
C 264.52225 265.647692 262.945429 266.499016 261.782994 268.014169 
C 260.620559 269.529322 259.967418 271.584599 259.967418 273.727349 
C 259.967418 275.870099 260.620559 277.925376 261.782994 279.440529 
C 262.945429 280.955682 264.52225 281.807006 266.166181 281.807006 
z
" style="fill:#008000;opacity:0.2;stroke:#008000;stroke-linejoin:miter;stroke-width:2;"/>
   </g>
   <g id="patch_42">
    <path clip-path="url(#pf60cf7e8c5)" d="M 212.856819 281.807006 
C 214.50075 281.807006 216.077571 280.955682 217.240006 279.440529 
C 218.402441 277.925376 219.055582 275.870099 219.055582 273.727349 
C 219.055582 271.584599 218.402441 269.529322 217.240006 268.014169 
C 216.077571 266.499016 214.50075 265.647692 212.856819 265.647692 
C 211.212888 265.647692 209.636066 266.499016 208.473632 268.014169 
C 207.311197 269.529322 206.658056 271.584599 206.658056 273.727349 
C 206.658056 275.870099 207.311197 277.925376 208.473632 279.440529 
C 209.636066 280.955682 211.212888 281.807006 212.856819 281.807006 
z
" style="fill:#008000;opacity:0.2;stroke:#008000;stroke-linejoin:miter;stroke-width:2;"/>
   </g>
   <g id="patch_43">
    <path clip-path="url(#pf60cf7e8c5)" d="M 57.267867 95.974892 
C 58.911798 95.974892 60.488619 95.123569 61.651054 93.608416 
C 62.813489 92.093262 63.46663 90.037985 63.46663 87.895235 
C 63.46663 85.752485 62.813489 83.697208 61.651054 82.182055 
C 60.488619 80.666902 58.911798 79.815578 57.267867 79.815578 
C 55.623935 79.815578 54.047114 80.666902 52.884679 82.182055 
C 51.722244 83.697208 51.069104 85.752485 51.069104 87.895235 
C 51.069104 90.037985 51.722244 92.093262 52.884679 93.608416 
C 54.047114 95.123569 55.623935 95.974892 57.267867 95.974892 
z
" style="fill:#008000;opacity:0.2;stroke:#008000;stroke-linejoin:miter;stroke-width:2;"/>
   </g>
   <g id="patch_44">
    <path clip-path="url(#pf60cf7e8c5)" d="M 67.805764 62.848298 
C 74.381488 62.848298 80.688774 59.443004 85.338513 53.382391 
C 89.988253 47.321778 92.600816 39.10067 92.600816 30.52967 
C 92.600816 21.958669 89.988253 13.737561 85.338513 7.676948 
C 80.688774 1.616336 74.381488 -1.788959 67.805764 -1.788959 
C 61.230039 -1.788959 54.922754 1.616336 50.273014 7.676948 
C 45.623275 13.737561 43.010712 21.958669 43.010712 30.52967 
C 43.010712 39.10067 45.623275 47.321778 50.273014 53.382391 
C 54.922754 59.443004 61.230039 62.848298 67.805764 62.848298 
z
" style="fill:none;opacity:0.2;stroke:#ff0000;stroke-linejoin:miter;stroke-width:2;"/>
   </g>
   <g id="patch_45">
    <path clip-path="url(#pf60cf7e8c5)" d="M 214.096572 318.165463 
C 220.672296 318.165463 226.979582 314.760169 231.629321 308.699556 
C 236.279061 302.638943 238.891624 294.417835 238.891624 285.846835 
C 238.891624 277.275834 236.279061 269.054726 231.629321 262.994113 
C 226.979582 256.933501 220.672296 253.528206 214.096572 253.528206 
C 207.520847 253.528206 201.213562 256.933501 196.563822 262.994113 
C 191.914082 269.054726 189.301519 277.275834 189.301519 285.846835 
C 189.301519 294.417835 191.914082 302.638943 196.563822 308.699556 
C 201.213562 314.760169 207.520847 318.165463 214.096572 318.165463 
z
" style="fill:none;opacity:0.2;stroke:#0000ff;stroke-linejoin:miter;stroke-width:2;"/>
   </g>
   <g id="patch_46">
    <path clip-path="url(#pf60cf7e8c5)" d="M 67.805764 46.688984 
C 71.093626 46.688984 74.247269 44.986337 76.572139 41.95603 
C 78.897008 38.925724 80.20329 34.81517 80.20329 30.52967 
C 80.20329 26.244169 78.897008 22.133615 76.572139 19.103309 
C 74.247269 16.073003 71.093626 14.370355 67.805764 14.370355 
C 64.517901 14.370355 61.364259 16.073003 59.039389 19.103309 
C 56.714519 22.133615 55.408238 26.244169 55.408238 30.52967 
C 55.408238 34.81517 56.714519 38.925724 59.039389 41.95603 
C 61.364259 44.986337 64.517901 46.688984 67.805764 46.688984 
z
" style="fill:none;opacity:0.2;stroke:#008000;stroke-linejoin:miter;stroke-width:2;"/>
   </g>
   <g id="patch_47">
    <path clip-path="url(#pf60cf7e8c5)" d="M 78.963537 87.08727 
C 82.2514 87.08727 85.405042 85.384622 87.729912 82.354316 
C 90.054782 79.32401 91.361063 75.213455 91.361063 70.927955 
C 91.361063 66.642455 90.054782 62.531901 87.729912 59.501595 
C 85.405042 56.471288 82.2514 54.768641 78.963537 54.768641 
C 75.675675 54.768641 72.522032 56.471288 70.197162 59.501595 
C 67.872293 62.531901 66.566011 66.642455 66.566011 70.927955 
C 66.566011 75.213455 67.872293 79.32401 70.197162 82.354316 
C 72.522032 85.384622 75.675675 87.08727 78.963537 87.08727 
z
" style="fill:none;opacity:0.2;stroke:#008000;stroke-linejoin:miter;stroke-width:2;"/>
   </g>
   <g id="patch_48">
    <path d="M 73.384651 50.728812 
Q 146.220116 93.954978 219.055582 137.181144 
" style="fill:none;opacity:0.5;stroke:#008000;stroke-linecap:round;stroke-width:2;"/>
   </g>
   <g id="patch_49">
    <path d="M 68.182265 31.892845 
Q 73.118714 49.76595 78.055162 67.639056 
" style="fill:none;opacity:0.5;stroke:#800080;stroke-linecap:round;stroke-width:2;"/>
    <path d="M 67.135739 33.73805 
L 68.182265 31.892845 
L 70.02747 32.939371 
" style="fill:none;opacity:0.5;stroke:#800080;stroke-linecap:round;stroke-width:2;"/>
    <path d="M 79.101688 65.793851 
L 78.055162 67.639056 
L 76.209957 66.59253 
" style="fill:none;opacity:0.5;stroke:#800080;stroke-linecap:round;stroke-width:2;"/>
   </g>
   <g id="patch_50">
    <path d="M 219.055582 137.181144 
Q 239.821438 137.585127 260.587294 137.989109 
" style="fill:none;opacity:0.5;stroke:#008000;stroke-linecap:round;stroke-width:2;"/>
   </g>
   <g id="patch_51">
    <path d="M 217.883564 112.738831 
Q 219.007684 136.182233 220.131804 159.625634 
" style="fill:none;opacity:0.5;stroke:#800080;stroke-linecap:round;stroke-width:2;"/>
    <path d="M 216.457128 114.308953 
L 217.883564 112.738831 
L 219.453685 114.165267 
" style="fill:none;opacity:0.5;stroke:#800080;stroke-linecap:round;stroke-width:2;"/>
    <path d="M 221.558239 158.055513 
L 220.131804 159.625634 
L 218.561682 158.199199 
" style="fill:none;opacity:0.5;stroke:#800080;stroke-linecap:round;stroke-width:2;"/>
   </g>
   <g id="patch_52">
    <path d="M 260.587294 137.989109 
Q 333.732698 94.358961 406.878102 50.728812 
" style="fill:none;opacity:0.5;stroke:#008000;stroke-linecap:round;stroke-width:2;"/>
   </g>
   <g id="patch_53">
    <path d="M 261.172182 114.355953 
Q 260.612 136.99084 260.051819 159.625726 
" style="fill:none;opacity:0.5;stroke:#800080;stroke-linecap:round;stroke-width:2;"/>
    <path d="M 259.635529 115.818382 
L 261.172182 114.355953 
L 262.634611 115.892605 
" style="fill:none;opacity:0.5;stroke:#800080;stroke-linecap:round;stroke-width:2;"/>
    <path d="M 261.588471 158.163297 
L 260.051819 159.625726 
L 258.589389 158.089074 
" style="fill:none;opacity:0.5;stroke:#800080;stroke-linecap:round;stroke-width:2;"/>
   </g>
   <g id="patch_54">
    <path d="M 406.878102 50.728812 
Q 414.316618 69.312024 421.755133 87.895235 
" style="fill:none;opacity:0.5;stroke:#008000;stroke-linecap:round;stroke-width:2;"/>
   </g>
   <g id="patch_55">
    <path d="M 409.762995 31.927523 
Q 407.029817 49.74006 404.29664 67.552598 
" style="fill:none;opacity:0.5;stroke:#800080;stroke-linecap:round;stroke-width:2;"/>
    <path d="M 408.052848 33.182672 
L 409.762995 31.927523 
L 411.018144 33.63767 
" style="fill:none;opacity:0.5;stroke:#800080;stroke-linecap:round;stroke-width:2;"/>
    <path d="M 406.006787 66.297449 
L 404.29664 67.552598 
L 403.041491 65.842451 
" style="fill:none;opacity:0.5;stroke:#800080;stroke-linecap:round;stroke-width:2;"/>
   </g>
   <g id="patch_56">
    <path d="M 421.755133 87.895235 
Q 343.960657 180.811292 266.166181 273.727349 
" style="fill:none;opacity:0.5;stroke:#008000;stroke-linecap:round;stroke-width:2;"/>
   </g>
   <g id="patch_57">
    <path d="M 425.709604 73.904781 
Q 422.026859 86.933902 418.344114 99.963023 
" style="fill:none;opacity:0.5;stroke:#800080;stroke-linecap:round;stroke-width:2;"/>
    <path d="M 423.85816 74.940231 
L 425.709604 73.904781 
L 426.745053 75.756225 
" style="fill:none;opacity:0.5;stroke:#800080;stroke-linecap:round;stroke-width:2;"/>
    <path d="M 420.195558 98.927573 
L 418.344114 99.963023 
L 417.308665 98.111579 
" style="fill:none;opacity:0.5;stroke:#800080;stroke-linecap:round;stroke-width:2;"/>
   </g>
   <g id="patch_58">
    <path d="M 266.166181 273.727349 
Q 239.5115 273.727349 212.856819 273.727349 
" style="fill:none;opacity:0.5;stroke:#008000;stroke-linecap:round;stroke-width:2;"/>
   </g>
   <g id="patch_59">
    <path d="M 266.166181 263.022077 
Q 266.166181 272.728734 266.166181 282.435391 
" style="fill:none;opacity:0.5;stroke:#800080;stroke-linecap:round;stroke-width:2;"/>
    <path d="M 264.666181 264.522077 
L 266.166181 263.022077 
L 267.666181 264.522077 
" style="fill:none;opacity:0.5;stroke:#800080;stroke-linecap:round;stroke-width:2;"/>
    <path d="M 267.666181 280.935391 
L 266.166181 282.435391 
L 264.666181 280.935391 
" style="fill:none;opacity:0.5;stroke:#800080;stroke-linecap:round;stroke-width:2;"/>
   </g>
   <g id="patch_60">
    <path d="M 212.856819 273.727349 
Q 135.062343 180.811292 57.267867 87.895235 
" style="fill:none;opacity:0.5;stroke:#008000;stroke-linecap:round;stroke-width:2;"/>
   </g>
   <g id="patch_61">
    <path d="M 211.760981 263.014735 
Q 212.754969 272.731693 213.748957 282.448651 
" style="fill:none;opacity:0.5;stroke:#800080;stroke-linecap:round;stroke-width:2;"/>
    <path d="M 210.421413 264.659593 
L 211.760981 263.014735 
L 213.405839 264.354304 
" style="fill:none;opacity:0.5;stroke:#800080;stroke-linecap:round;stroke-width:2;"/>
    <path d="M 215.088525 280.803793 
L 213.748957 282.448651 
L 212.1041 281.109082 
" style="fill:none;opacity:0.5;stroke:#800080;stroke-linecap:round;stroke-width:2;"/>
   </g>
   <g id="patch_62">
    <path d="M 57.267867 87.895235 
Q 65.326259 69.312024 73.384651 50.728812 
" style="fill:none;opacity:0.5;stroke:#008000;stroke-linecap:round;stroke-width:2;"/>
   </g>
   <g id="patch_63">
    <path d="M 53.313396 73.904781 
Q 56.996141 86.933902 60.678886 99.963023 
" style="fill:none;opacity:0.5;stroke:#800080;stroke-linecap:round;stroke-width:2;"/>
    <path d="M 52.277947 75.756225 
L 53.313396 73.904781 
L 55.16484 74.940231 
" style="fill:none;opacity:0.5;stroke:#800080;stroke-linecap:round;stroke-width:2;"/>
    <path d="M 61.714335 98.111579 
L 60.678886 99.963023 
L 58.827442 98.927573 
" style="fill:none;opacity:0.5;stroke:#800080;stroke-linecap:round;stroke-width:2;"/>
   </g>
   <g id="line2d_1">
    <path clip-path="url(#pf60cf7e8c5)" d="M 67.805764 30.52967 
L 217.815829 111.326241 
L 261.207171 112.942172 
L 409.977484 30.52967 
L 426.094268 72.543887 
L 266.166181 261.607863 
L 211.617066 261.607863 
L 52.928732 72.543887 
" style="fill:none;stroke:#ff0000;stroke-linecap:square;stroke-width:0.2;"/>
   </g>
   <g id="line2d_2">
    <path clip-path="url(#pf60cf7e8c5)" d="M 214.096572 285.846835 
L 61.607001 103.246584 
L 78.963537 70.927955 
L 220.295335 163.036046 
L 259.967418 163.036046 
L 403.778721 70.927955 
L 417.415999 103.246584 
L 266.166181 285.846835 
" style="fill:none;stroke:#0000ff;stroke-linecap:square;stroke-width:0.2;"/>
   </g>
  </g>
 </g>
 <defs>
  <clipPath id="pf60cf7e8c5">
   <rect height="307.51175" width="415.937" x="31.543" y="13.32"/>
  </clipPath>
 </defs>
</svg>
