<?xml version="1.0" encoding="utf-8" standalone="no"?>
<!DOCTYPE svg PUBLIC "-//W3C//DTD SVG 1.1//EN"
  "http://www.w3.org/Graphics/SVG/1.1/DTD/svg11.dtd">
<!-- Created with matplotlib (http://matplotlib.org/) -->
<svg height="345.6pt" version="1.1" viewBox="0 0 460.8 345.6" width="460.8pt" xmlns="http://www.w3.org/2000/svg" xmlns:xlink="http://www.w3.org/1999/xlink">
 <defs>
  <style type="text/css">
*{stroke-linecap:butt;stroke-linejoin:round;}
  </style>
 </defs>
 <g id="figure_1">
  <g id="patch_1">
   <path d="M 0 345.6 
L 460.8 345.6 
L 460.8 0 
L 0 0 
z
" style="fill:#ffffff;"/>
  </g>
  <g id="axes_1">
   <g id="patch_2">
    <path clip-path="url(#p7483685c70)" d="M 426.003439 54.511236 
C 426.75783 54.511236 427.481425 54.250565 428.01486 53.786633 
C 428.548294 53.322702 428.848017 52.693387 428.848017 52.037288 
C 428.848017 51.381189 428.548294 50.751874 428.01486 50.287942 
C 427.481425 49.824011 426.75783 49.56334 426.003439 49.56334 
C 425.249049 49.56334 424.525454 49.824011 423.992019 50.287942 
C 423.458585 50.751874 423.158862 51.381189 423.158862 52.037288 
C 423.158862 52.693387 423.458585 53.322702 423.992019 53.786633 
C 424.525454 54.250565 425.249049 54.511236 426.003439 54.511236 
z
" style="fill:#ff0000;opacity:0.2;stroke:#ff0000;stroke-linejoin:miter;stroke-width:2;"/>
   </g>
   <g id="patch_3">
    <path clip-path="url(#p7483685c70)" d="M 275.240829 290.77328 
C 275.99522 290.77328 276.718815 290.51261 277.252249 290.048678 
C 277.785684 289.584746 278.085407 288.955431 278.085407 288.299332 
C 278.085407 287.643234 277.785684 287.013919 277.252249 286.549987 
C 276.718815 286.086055 275.99522 285.825384 275.240829 285.825384 
C 274.486439 285.825384 273.762844 286.086055 273.229409 286.549987 
C 272.695974 287.013919 272.396252 287.643234 272.396252 288.299332 
C 272.396252 288.955431 272.695974 289.584746 273.229409 290.048678 
C 273.762844 290.51261 274.486439 290.77328 275.240829 290.77328 
z
" style="fill:#ff0000;opacity:0.2;stroke:#ff0000;stroke-linejoin:miter;stroke-width:2;"/>
   </g>
   <g id="patch_4">
    <path clip-path="url(#p7483685c70)" d="M 242.528188 306.853943 
C 243.282578 306.853943 244.006173 306.593272 244.539608 306.129341 
C 245.073042 305.665409 245.372765 305.036094 245.372765 304.379995 
C 245.372765 303.723896 245.073042 303.094581 244.539608 302.63065 
C 244.006173 302.166718 243.282578 301.906047 242.528188 301.906047 
C 241.773797 301.906047 241.050202 302.166718 240.516767 302.63065 
C 239.983333 303.094581 239.68361 303.723896 239.68361 304.379995 
C 239.68361 305.036094 239.983333 305.665409 240.516767 306.129341 
C 241.050202 306.593272 241.773797 306.853943 242.528188 306.853943 
z
" style="fill:#ff0000;opacity:0.2;stroke:#ff0000;stroke-linejoin:miter;stroke-width:2;"/>
   </g>
   <g id="patch_5">
    <path clip-path="url(#p7483685c70)" d="M 209.815546 290.77328 
C 210.569936 290.77328 211.293531 290.51261 211.826966 290.048678 
C 212.360401 289.584746 212.660123 288.955431 212.660123 288.299332 
C 212.660123 287.643234 212.360401 287.013919 211.826966 286.549987 
C 211.293531 286.086055 210.569936 285.825384 209.815546 285.825384 
C 209.061155 285.825384 208.33756 286.086055 207.804126 286.549987 
C 207.270691 287.013919 206.970968 287.643234 206.970968 288.299332 
C 206.970968 288.955431 207.270691 289.584746 207.804126 290.048678 
C 208.33756 290.51261 209.061155 290.77328 209.815546 290.77328 
z
" style="fill:#ff0000;opacity:0.2;stroke:#ff0000;stroke-linejoin:miter;stroke-width:2;"/>
   </g>
   <g id="patch_6">
    <path clip-path="url(#p7483685c70)" d="M 59.052936 54.511236 
C 59.807326 54.511236 60.530921 54.250565 61.064356 53.786633 
C 61.59779 53.322702 61.897513 52.693387 61.897513 52.037288 
C 61.897513 51.381189 61.59779 50.751874 61.064356 50.287942 
C 60.530921 49.824011 59.807326 49.56334 59.052936 49.56334 
C 58.298545 49.56334 57.57495 49.824011 57.041515 50.287942 
C 56.508081 50.751874 56.208358 51.381189 56.208358 52.037288 
C 56.208358 52.693387 56.508081 53.322702 57.041515 53.786633 
C 57.57495 54.250565 58.298545 54.511236 59.052936 54.511236 
z
" style="fill:#ff0000;opacity:0.2;stroke:#ff0000;stroke-linejoin:miter;stroke-width:2;"/>
   </g>
   <g id="patch_7">
    <path clip-path="url(#p7483685c70)" d="M 100.29931 32.245703 
C 101.053701 32.245703 101.777295 31.985032 102.31073 31.5211 
C 102.844165 31.057169 103.143888 30.427854 103.143888 29.771755 
C 103.143888 29.115656 102.844165 28.486341 102.31073 28.022409 
C 101.777295 27.558478 101.053701 27.297807 100.29931 27.297807 
C 99.544919 27.297807 98.821325 27.558478 98.28789 28.022409 
C 97.754455 28.486341 97.454732 29.115656 97.454732 29.771755 
C 97.454732 30.427854 97.754455 31.057169 98.28789 31.5211 
C 98.821325 31.985032 99.544919 32.245703 100.29931 32.245703 
z
" style="fill:#ff0000;opacity:0.2;stroke:#ff0000;stroke-linejoin:miter;stroke-width:2;"/>
   </g>
   <g id="patch_8">
    <path clip-path="url(#p7483685c70)" d="M 214.082412 139.862446 
C 214.836803 139.862446 215.560397 139.601775 216.093832 139.137843 
C 216.627267 138.673911 216.92699 138.044596 216.92699 137.388498 
C 216.92699 136.732399 216.627267 136.103084 216.093832 135.639152 
C 215.560397 135.17522 214.836803 134.91455 214.082412 134.91455 
C 213.328021 134.91455 212.604427 135.17522 212.070992 135.639152 
C 211.537557 136.103084 211.237834 136.732399 211.237834 137.388498 
C 211.237834 138.044596 211.537557 138.673911 212.070992 139.137843 
C 212.604427 139.601775 213.328021 139.862446 214.082412 139.862446 
z
" style="fill:#ff0000;opacity:0.2;stroke:#ff0000;stroke-linejoin:miter;stroke-width:2;"/>
   </g>
   <g id="patch_9">
    <path clip-path="url(#p7483685c70)" d="M 242.528188 163.364953 
C 243.282578 163.364953 244.006173 163.104282 244.539608 162.64035 
C 245.073042 162.176418 245.372765 161.547103 245.372765 160.891005 
C 245.372765 160.234906 245.073042 159.605591 244.539608 159.141659 
C 244.006173 158.677727 243.282578 158.417057 242.528188 158.417057 
C 241.773797 158.417057 241.050202 158.677727 240.516767 159.141659 
C 239.983333 159.605591 239.68361 160.234906 239.68361 160.891005 
C 239.68361 161.547103 239.983333 162.176418 240.516767 162.64035 
C 241.050202 163.104282 241.773797 163.364953 242.528188 163.364953 
z
" style="fill:#ff0000;opacity:0.2;stroke:#ff0000;stroke-linejoin:miter;stroke-width:2;"/>
   </g>
   <g id="patch_10">
    <path clip-path="url(#p7483685c70)" d="M 272.396252 141.09942 
C 273.150643 141.09942 273.874237 140.838749 274.407672 140.374817 
C 274.941107 139.910885 275.240829 139.28157 275.240829 138.625472 
C 275.240829 137.969373 274.941107 137.340058 274.407672 136.876126 
C 273.874237 136.412194 273.150643 136.151524 272.396252 136.151524 
C 271.641861 136.151524 270.918267 136.412194 270.384832 136.876126 
C 269.851397 137.340058 269.551674 137.969373 269.551674 138.625472 
C 269.551674 139.28157 269.851397 139.910885 270.384832 140.374817 
C 270.918267 140.838749 271.641861 141.09942 272.396252 141.09942 
z
" style="fill:#ff0000;opacity:0.2;stroke:#ff0000;stroke-linejoin:miter;stroke-width:2;"/>
   </g>
   <g id="patch_11">
    <path clip-path="url(#p7483685c70)" d="M 386.179354 32.245703 
C 386.933745 32.245703 387.657339 31.985032 388.190774 31.5211 
C 388.724209 31.057169 389.023931 30.427854 389.023931 29.771755 
C 389.023931 29.115656 388.724209 28.486341 388.190774 28.022409 
C 387.657339 27.558478 386.933745 27.297807 386.179354 27.297807 
C 385.424963 27.297807 384.701369 27.558478 384.167934 28.022409 
C 383.634499 28.486341 383.334776 29.115656 383.334776 29.771755 
C 383.334776 30.427854 383.634499 31.057169 384.167934 31.5211 
C 384.701369 31.985032 385.424963 32.245703 386.179354 32.245703 
z
" style="fill:#ff0000;opacity:0.2;stroke:#ff0000;stroke-linejoin:miter;stroke-width:2;"/>
   </g>
   <g id="patch_12">
    <path clip-path="url(#p7483685c70)" d="M 118.07792 32.245703 
C 118.83231 32.245703 119.555905 31.985032 120.08934 31.5211 
C 120.622775 31.057169 120.922497 30.427854 120.922497 29.771755 
C 120.922497 29.115656 120.622775 28.486341 120.08934 28.022409 
C 119.555905 27.558478 118.83231 27.297807 118.07792 27.297807 
C 117.323529 27.297807 116.599934 27.558478 116.0665 28.022409 
C 115.533065 28.486341 115.233342 29.115656 115.233342 29.771755 
C 115.233342 30.427854 115.533065 31.057169 116.0665 31.5211 
C 116.599934 31.985032 117.323529 32.245703 118.07792 32.245703 
z
" style="fill:#0000ff;opacity:0.2;stroke:#0000ff;stroke-linejoin:miter;stroke-width:2;"/>
   </g>
   <g id="patch_13">
    <path clip-path="url(#p7483685c70)" d="M 224.749578 147.28429 
C 225.503969 147.28429 226.227563 147.023619 226.760998 146.559687 
C 227.294433 146.095756 227.594155 145.466441 227.594155 144.810342 
C 227.594155 144.154243 227.294433 143.524928 226.760998 143.060997 
C 226.227563 142.597065 225.503969 142.336394 224.749578 142.336394 
C 223.995187 142.336394 223.271593 142.597065 222.738158 143.060997 
C 222.204723 143.524928 221.905 144.154243 221.905 144.810342 
C 221.905 145.466441 222.204723 146.095756 222.738158 146.559687 
C 223.271593 147.023619 223.995187 147.28429 224.749578 147.28429 
z
" style="fill:#0000ff;opacity:0.2;stroke:#0000ff;stroke-linejoin:miter;stroke-width:2;"/>
   </g>
   <g id="patch_14">
    <path clip-path="url(#p7483685c70)" d="M 263.151375 147.28429 
C 263.905766 147.28429 264.62936 147.023619 265.162795 146.559687 
C 265.69623 146.095756 265.995952 145.466441 265.995952 144.810342 
C 265.995952 144.154243 265.69623 143.524928 265.162795 143.060997 
C 264.62936 142.597065 263.905766 142.336394 263.151375 142.336394 
C 262.396984 142.336394 261.67339 142.597065 261.139955 143.060997 
C 260.60652 143.524928 260.306797 144.154243 260.306797 144.810342 
C 260.306797 145.466441 260.60652 146.095756 261.139955 146.559687 
C 261.67339 147.023619 262.396984 147.28429 263.151375 147.28429 
z
" style="fill:#0000ff;opacity:0.2;stroke:#0000ff;stroke-linejoin:miter;stroke-width:2;"/>
   </g>
   <g id="patch_15">
    <path clip-path="url(#p7483685c70)" d="M 369.823033 32.245703 
C 370.577424 32.245703 371.301018 31.985032 371.834453 31.5211 
C 372.367888 31.057169 372.66761 30.427854 372.66761 29.771755 
C 372.66761 29.115656 372.367888 28.486341 371.834453 28.022409 
C 371.301018 27.558478 370.577424 27.297807 369.823033 27.297807 
C 369.068642 27.297807 368.345048 27.558478 367.811613 28.022409 
C 367.278178 28.486341 366.978455 29.115656 366.978455 29.771755 
C 366.978455 30.427854 367.278178 31.057169 367.811613 31.5211 
C 368.345048 31.985032 369.068642 32.245703 369.823033 32.245703 
z
" style="fill:#0000ff;opacity:0.2;stroke:#0000ff;stroke-linejoin:miter;stroke-width:2;"/>
   </g>
   <g id="patch_16">
    <path clip-path="url(#p7483685c70)" d="M 395.424231 48.326366 
C 396.178622 48.326366 396.902216 48.065695 397.435651 47.601763 
C 397.969086 47.137831 398.268808 46.508516 398.268808 45.852418 
C 398.268808 45.196319 397.969086 44.567004 397.435651 44.103072 
C 396.902216 43.63914 396.178622 43.37847 395.424231 43.37847 
C 394.66984 43.37847 393.946246 43.63914 393.412811 44.103072 
C 392.879376 44.567004 392.579653 45.196319 392.579653 45.852418 
C 392.579653 46.508516 392.879376 47.137831 393.412811 47.601763 
C 393.946246 48.065695 394.66984 48.326366 395.424231 48.326366 
z
" style="fill:#0000ff;opacity:0.2;stroke:#0000ff;stroke-linejoin:miter;stroke-width:2;"/>
   </g>
   <g id="patch_17">
    <path clip-path="url(#p7483685c70)" d="M 267.418241 267.270773 
C 268.172632 267.270773 268.896226 267.010103 269.429661 266.546171 
C 269.963096 266.082239 270.262819 265.452924 270.262819 264.796825 
C 270.262819 264.140727 269.963096 263.511412 269.429661 263.04748 
C 268.896226 262.583548 268.172632 262.322877 267.418241 262.322877 
C 266.66385 262.322877 265.940256 262.583548 265.406821 263.04748 
C 264.873386 263.511412 264.573664 264.140727 264.573664 264.796825 
C 264.573664 265.452924 264.873386 266.082239 265.406821 266.546171 
C 265.940256 267.010103 266.66385 267.270773 267.418241 267.270773 
z
" style="fill:#0000ff;opacity:0.2;stroke:#0000ff;stroke-linejoin:miter;stroke-width:2;"/>
   </g>
   <g id="patch_18">
    <path clip-path="url(#p7483685c70)" d="M 220.482711 267.270773 
C 221.237102 267.270773 221.960697 267.010103 222.494132 266.546171 
C 223.027566 266.082239 223.327289 265.452924 223.327289 264.796825 
C 223.327289 264.140727 223.027566 263.511412 222.494132 263.04748 
C 221.960697 262.583548 221.237102 262.322877 220.482711 262.322877 
C 219.728321 262.322877 219.004726 262.583548 218.471291 263.04748 
C 217.937857 263.511412 217.638134 264.140727 217.638134 264.796825 
C 217.638134 265.452924 217.937857 266.082239 218.471291 266.546171 
C 219.004726 267.010103 219.728321 267.270773 220.482711 267.270773 
z
" style="fill:#0000ff;opacity:0.2;stroke:#0000ff;stroke-linejoin:miter;stroke-width:2;"/>
   </g>
   <g id="patch_19">
    <path clip-path="url(#p7483685c70)" d="M 89.632144 48.326366 
C 90.386535 48.326366 91.110129 48.065695 91.643564 47.601763 
C 92.176999 47.137831 92.476722 46.508516 92.476722 45.852418 
C 92.476722 45.196319 92.176999 44.567004 91.643564 44.103072 
C 91.110129 43.63914 90.386535 43.37847 89.632144 43.37847 
C 88.877753 43.37847 88.154159 43.63914 87.620724 44.103072 
C 87.087289 44.567004 86.787567 45.196319 86.787567 45.852418 
C 86.787567 46.508516 87.087289 47.137831 87.620724 47.601763 
C 88.154159 48.065695 88.877753 48.326366 89.632144 48.326366 
z
" style="fill:#0000ff;opacity:0.2;stroke:#0000ff;stroke-linejoin:miter;stroke-width:2;"/>
   </g>
   <g id="patch_20">
    <path clip-path="url(#p7483685c70)" d="M 426.003439 52.037288 
L 275.240829 288.299332 
C 266.707097 301.906047 259.595653 304.379995 242.528188 304.379995 
C 225.460722 304.379995 218.349278 301.906047 209.815546 288.299332 
L 59.052936 52.037288 
C 66.164379 37.193599 84.654133 31.008729 100.29931 29.771755 
L 214.082412 137.388498 
C 231.149877 153.46916 238.261321 160.891005 242.528188 160.891005 
C 246.795054 160.891005 256.751075 153.46916 272.396252 138.625472 
L 386.179354 29.771755 
C 400.402242 31.008729 418.891996 37.193599 426.003439 52.037288 
" style="fill:none;stroke:#ff0000;stroke-linejoin:miter;stroke-width:0.5;"/>
   </g>
   <g id="patch_21">
    <path clip-path="url(#p7483685c70)" d="M 118.07792 29.771755 
L 224.749578 144.810342 
C 238.972466 160.891005 248.928487 159.654031 263.151375 144.810342 
L 369.823033 29.771755 
C 378.356766 28.534781 394.001942 33.482677 395.424231 45.852418 
L 267.418241 264.796825 
C 253.195353 289.536306 234.705599 288.299332 220.482711 264.796825 
L 89.632144 45.852418 
C 91.054433 33.482677 110.966476 29.771755 118.07792 29.771755 
" style="fill:none;stroke:#0000ff;stroke-linejoin:miter;stroke-width:0.5;"/>
   </g>
   <g id="[&quot;g_s&quot;:1,&quot;g_t&quot;:5,&quot;coords&quot;:[[369.0, -40.0],[347.5, -35.0]],&quot;certainty&quot;:5]">
    <path clip-path="url(#p7483685c70)" d="M 426.003439 55.74821 
C 427.135026 55.74821 428.220417 55.357204 429.02057 54.661306 
C 429.820722 53.965408 430.270306 53.021436 430.270306 52.037288 
C 430.270306 51.05314 429.820722 50.109167 429.02057 49.41327 
C 428.220417 48.717372 427.135026 48.326366 426.003439 48.326366 
C 424.871853 48.326366 423.786462 48.717372 422.986309 49.41327 
C 422.186157 50.109167 421.736573 51.05314 421.736573 52.037288 
C 421.736573 53.021436 422.186157 53.965408 422.986309 54.661306 
C 423.786462 55.357204 424.871853 55.74821 426.003439 55.74821 
z
" style="fill:#0000ff;opacity:0.2;stroke:#0000ff;stroke-linejoin:miter;stroke-width:2;"/>
   </g>
   <g id="[&quot;g_s&quot;:5,&quot;g_t&quot;:1,&quot;coords&quot;:[[347.5, -35.0],[369.0, -40.0]],&quot;certainty&quot;:5]">
    <path clip-path="url(#p7483685c70)" d="M 395.424231 49.56334 
C 396.555817 49.56334 397.641209 49.172334 398.441361 48.476436 
C 399.241513 47.780538 399.691097 46.836566 399.691097 45.852418 
C 399.691097 44.86827 399.241513 43.924297 398.441361 43.228399 
C 397.641209 42.532502 396.555817 42.141495 395.424231 42.141495 
C 394.292645 42.141495 393.207253 42.532502 392.407101 43.228399 
C 391.606948 43.924297 391.157365 44.86827 391.157365 45.852418 
C 391.157365 46.836566 391.606948 47.780538 392.407101 48.476436 
C 393.207253 49.172334 394.292645 49.56334 395.424231 49.56334 
z
" style="fill:#ff0000;opacity:0.2;stroke:#ff0000;stroke-linejoin:miter;stroke-width:2;"/>
   </g>
   <g id="patch_22">
    <path d="M 426.003439 52.037288 
Q 411.693699 49.143037 398.423567 46.459055 
" style="fill:none;opacity:0.5;stroke:#0000ff;stroke-linecap:round;stroke-width:1.5;"/>
    <path d="M 399.596432 48.22665 
L 398.423567 46.459055 
L 400.191161 45.286191 
" style="fill:none;opacity:0.5;stroke:#0000ff;stroke-linecap:round;stroke-width:1.5;"/>
   </g>
   <g id="[&quot;g_s&quot;:2,&quot;g_t&quot;:6,&quot;coords&quot;:[[263.0, -231.0],[257.5, -212.0]],&quot;certainty&quot;:9]">
    <path clip-path="url(#p7483685c70)" d="M 275.240829 294.484203 
C 277.126806 294.484203 278.935792 293.832526 280.26938 292.672696 
C 281.602967 291.512866 282.352273 289.939579 282.352273 288.299332 
C 282.352273 286.659086 281.602967 285.085798 280.26938 283.925969 
C 278.935792 282.766139 277.126806 282.114462 275.240829 282.114462 
C 273.354852 282.114462 271.545866 282.766139 270.212279 283.925969 
C 268.878692 285.085798 268.129385 286.659086 268.129385 288.299332 
C 268.129385 289.939579 268.878692 291.512866 270.212279 292.672696 
C 271.545866 293.832526 273.354852 294.484203 275.240829 294.484203 
z
" style="fill:#0000ff;opacity:0.2;stroke:#0000ff;stroke-linejoin:miter;stroke-width:2;"/>
   </g>
   <g id="[&quot;g_s&quot;:6,&quot;g_t&quot;:2,&quot;coords&quot;:[[257.5, -212.0],[263.0, -231.0]],&quot;certainty&quot;:9]">
    <path clip-path="url(#p7483685c70)" d="M 267.418241 270.981696 
C 269.304218 270.981696 271.113204 270.330019 272.446791 269.170189 
C 273.780378 268.010359 274.529685 266.437072 274.529685 264.796825 
C 274.529685 263.156579 273.780378 261.583291 272.446791 260.423462 
C 271.113204 259.263632 269.304218 258.611955 267.418241 258.611955 
C 265.532264 258.611955 263.723278 259.263632 262.389691 260.423462 
C 261.056104 261.583291 260.306797 263.156579 260.306797 264.796825 
C 260.306797 266.437072 261.056104 268.010359 262.389691 269.170189 
C 263.723278 270.330019 265.532264 270.981696 267.418241 270.981696 
z
" style="fill:#ff0000;opacity:0.2;stroke:#ff0000;stroke-linejoin:miter;stroke-width:2;"/>
   </g>
   <g id="patch_23">
    <path d="M 275.240829 288.299332 
Q 271.645132 277.49627 268.607707 268.370506 
" style="fill:none;opacity:0.5;stroke:#0000ff;stroke-linecap:round;stroke-width:2.5;"/>
    <path d="M 267.658182 270.267451 
L 268.607707 268.370506 
L 270.504653 269.32003 
" style="fill:none;opacity:0.5;stroke:#0000ff;stroke-linecap:round;stroke-width:2.5;"/>
   </g>
   <g id="[&quot;g_s&quot;:3,&quot;g_t&quot;:7,&quot;coords&quot;:[[240.0, -244.0],[224.5, -212.0]],&quot;certainty&quot;:6]">
    <path clip-path="url(#p7483685c70)" d="M 242.528188 308.709404 
C 243.848371 308.709404 245.114662 308.25323 246.048173 307.44135 
C 246.981684 306.629469 247.506198 305.528168 247.506198 304.379995 
C 247.506198 303.231822 246.981684 302.130521 246.048173 301.31864 
C 245.114662 300.50676 243.848371 300.050586 242.528188 300.050586 
C 241.208004 300.050586 239.941713 300.50676 239.008202 301.31864 
C 238.074691 302.130521 237.550177 303.231822 237.550177 304.379995 
C 237.550177 305.528168 238.074691 306.629469 239.008202 307.44135 
C 239.941713 308.25323 241.208004 308.709404 242.528188 308.709404 
z
" style="fill:#0000ff;opacity:0.2;stroke:#0000ff;stroke-linejoin:miter;stroke-width:2;"/>
   </g>
   <g id="[&quot;g_s&quot;:7,&quot;g_t&quot;:3,&quot;coords&quot;:[[224.5, -212.0],[240.0, -244.0]],&quot;certainty&quot;:6]">
    <path clip-path="url(#p7483685c70)" d="M 220.482711 269.126235 
C 221.802895 269.126235 223.069186 268.670061 224.002697 267.85818 
C 224.936208 267.046299 225.460722 265.944998 225.460722 264.796825 
C 225.460722 263.648653 224.936208 262.547351 224.002697 261.735471 
C 223.069186 260.92359 221.802895 260.467416 220.482711 260.467416 
C 219.162528 260.467416 217.896237 260.92359 216.962726 261.735471 
C 216.029215 262.547351 215.504701 263.648653 215.504701 264.796825 
C 215.504701 265.944998 216.029215 267.046299 216.962726 267.85818 
C 217.896237 268.670061 219.162528 269.126235 220.482711 269.126235 
z
" style="fill:#ff0000;opacity:0.2;stroke:#ff0000;stroke-linejoin:miter;stroke-width:2;"/>
   </g>
   <g id="patch_24">
    <path d="M 242.528188 304.379995 
Q 231.991865 285.461782 222.05764 267.624646 
" style="fill:none;opacity:0.5;stroke:#0000ff;stroke-linecap:round;stroke-width:1.75;"/>
    <path d="M 221.477026 269.664962 
L 222.05764 267.624646 
L 224.097955 268.20526 
" style="fill:none;opacity:0.5;stroke:#0000ff;stroke-linecap:round;stroke-width:1.75;"/>
   </g>
   <g id="[&quot;g_s&quot;:4,&quot;g_t&quot;:7,&quot;coords&quot;:[[217.0, -231.0],[224.5, -212.0]],&quot;certainty&quot;:5]">
    <path clip-path="url(#p7483685c70)" d="M 209.815546 292.010255 
C 210.947132 292.010255 212.032524 291.619248 212.832676 290.923351 
C 213.632828 290.227453 214.082412 289.28348 214.082412 288.299332 
C 214.082412 287.315184 213.632828 286.371212 212.832676 285.675314 
C 212.032524 284.979416 210.947132 284.58841 209.815546 284.58841 
C 208.683959 284.58841 207.598568 284.979416 206.798416 285.675314 
C 205.998263 286.371212 205.548679 287.315184 205.548679 288.299332 
C 205.548679 289.28348 205.998263 290.227453 206.798416 290.923351 
C 207.598568 291.619248 208.683959 292.010255 209.815546 292.010255 
z
" style="fill:#0000ff;opacity:0.2;stroke:#0000ff;stroke-linejoin:miter;stroke-width:2;"/>
   </g>
   <g id="[&quot;g_s&quot;:7,&quot;g_t&quot;:4,&quot;coords&quot;:[[224.5, -212.0],[217.0, -231.0]],&quot;certainty&quot;:5]">
    <path clip-path="url(#p7483685c70)" d="M 220.482711 268.507747 
C 221.614298 268.507747 222.699689 268.116741 223.499842 267.420844 
C 224.299994 266.724946 224.749578 265.780973 224.749578 264.796825 
C 224.749578 263.812677 224.299994 262.868705 223.499842 262.172807 
C 222.699689 261.476909 221.614298 261.085903 220.482711 261.085903 
C 219.351125 261.085903 218.265734 261.476909 217.465581 262.172807 
C 216.665429 262.868705 216.215845 263.812677 216.215845 264.796825 
C 216.215845 265.780973 216.665429 266.724946 217.465581 267.420844 
C 218.265734 268.116741 219.351125 268.507747 220.482711 268.507747 
z
" style="fill:#ff0000;opacity:0.2;stroke:#ff0000;stroke-linejoin:miter;stroke-width:2;"/>
   </g>
   <g id="patch_25">
    <path d="M 209.815546 288.299332 
Q 214.735698 277.458973 219.217483 267.584448 
" style="fill:none;opacity:0.5;stroke:#0000ff;stroke-linecap:round;stroke-width:1.5;"/>
    <path d="M 217.231645 268.330399 
L 219.217483 267.584448 
L 219.963435 269.570287 
" style="fill:none;opacity:0.5;stroke:#0000ff;stroke-linecap:round;stroke-width:1.5;"/>
   </g>
   <g id="[&quot;g_s&quot;:5,&quot;g_t&quot;:8,&quot;coords&quot;:[[111.0, -40.0],[132.5, -35.0]],&quot;certainty&quot;:11]">
    <path clip-path="url(#p7483685c70)" d="M 59.052936 59.459132 
C 61.316108 59.459132 63.486891 58.67712 65.087196 57.285324 
C 66.6875 55.893529 67.586668 54.005584 67.586668 52.037288 
C 67.586668 50.068992 66.6875 48.181047 65.087196 46.789251 
C 63.486891 45.397456 61.316108 44.615444 59.052936 44.615444 
C 56.789763 44.615444 54.61898 45.397456 53.018675 46.789251 
C 51.418371 48.181047 50.519203 50.068992 50.519203 52.037288 
C 50.519203 54.005584 51.418371 55.893529 53.018675 57.285324 
C 54.61898 58.67712 56.789763 59.459132 59.052936 59.459132 
z
" style="fill:#0000ff;opacity:0.2;stroke:#0000ff;stroke-linejoin:miter;stroke-width:2;"/>
   </g>
   <g id="[&quot;g_s&quot;:8,&quot;g_t&quot;:5,&quot;coords&quot;:[[132.5, -35.0],[111.0, -40.0]],&quot;certainty&quot;:11]">
    <path clip-path="url(#p7483685c70)" d="M 89.632144 53.274262 
C 91.895317 53.274262 94.0661 52.49225 95.666404 51.100454 
C 97.266709 49.708659 98.165877 47.820714 98.165877 45.852418 
C 98.165877 43.884122 97.266709 41.996177 95.666404 40.604381 
C 94.0661 39.212586 91.895317 38.430573 89.632144 38.430573 
C 87.368972 38.430573 85.198188 39.212586 83.597884 40.604381 
C 81.997579 41.996177 81.098412 43.884122 81.098412 45.852418 
C 81.098412 47.820714 81.997579 49.708659 83.597884 51.100454 
C 85.198188 52.49225 87.368972 53.274262 89.632144 53.274262 
z
" style="fill:#ff0000;opacity:0.2;stroke:#ff0000;stroke-linejoin:miter;stroke-width:2;"/>
   </g>
   <g id="patch_26">
    <path d="M 59.052936 52.037288 
Q 73.362676 49.143037 85.593199 46.669324 
" style="fill:none;opacity:0.5;stroke:#0000ff;stroke-linecap:round;stroke-width:3;"/>
    <path d="M 83.825605 45.496459 
L 85.593199 46.669324 
L 84.420334 48.436918 
" style="fill:none;opacity:0.5;stroke:#0000ff;stroke-linecap:round;stroke-width:3;"/>
   </g>
   <g id="[&quot;g_s&quot;:6,&quot;g_t&quot;:1,&quot;coords&quot;:[[140.0, -22.0],[152.5, -22.0]],&quot;certainty&quot;:8]">
    <path clip-path="url(#p7483685c70)" d="M 100.29931 35.338138 
C 101.996689 35.338138 103.624777 34.751629 104.825005 33.707782 
C 106.025234 32.663936 106.699609 31.247977 106.699609 29.771755 
C 106.699609 28.295533 106.025234 26.879574 104.825005 25.835728 
C 103.624777 24.791881 101.996689 24.205372 100.29931 24.205372 
C 98.601931 24.205372 96.973843 24.791881 95.773615 25.835728 
C 94.573386 26.879574 93.89901 28.295533 93.89901 29.771755 
C 93.89901 31.247977 94.573386 32.663936 95.773615 33.707782 
C 96.973843 34.751629 98.601931 35.338138 100.29931 35.338138 
z
" style="fill:#0000ff;opacity:0.2;stroke:#0000ff;stroke-linejoin:miter;stroke-width:2;"/>
   </g>
   <g id="[&quot;g_s&quot;:1,&quot;g_t&quot;:6,&quot;coords&quot;:[[152.5, -22.0],[140.0, -22.0]],&quot;certainty&quot;:8]">
    <path clip-path="url(#p7483685c70)" d="M 118.07792 35.338138 
C 119.775299 35.338138 121.403386 34.751629 122.603615 33.707782 
C 123.803843 32.663936 124.478219 31.247977 124.478219 29.771755 
C 124.478219 28.295533 123.803843 26.879574 122.603615 25.835728 
C 121.403386 24.791881 119.775299 24.205372 118.07792 24.205372 
C 116.38054 24.205372 114.752453 24.791881 113.552225 25.835728 
C 112.351996 26.879574 111.67762 28.295533 111.67762 29.771755 
C 111.67762 31.247977 112.351996 32.663936 113.552225 33.707782 
C 114.752453 34.751629 116.38054 35.338138 118.07792 35.338138 
z
" style="fill:#ff0000;opacity:0.2;stroke:#ff0000;stroke-linejoin:miter;stroke-width:2;"/>
   </g>
   <g id="patch_27">
    <path d="M 100.29931 29.771755 
Q 108.188134 29.771755 114.485968 29.771755 
" style="fill:none;opacity:0.5;stroke:#0000ff;stroke-linecap:round;stroke-width:2.25;"/>
    <path d="M 112.985968 28.271755 
L 114.485968 29.771755 
L 112.985968 31.271755 
" style="fill:none;opacity:0.5;stroke:#0000ff;stroke-linecap:round;stroke-width:2.25;"/>
   </g>
   <g id="[&quot;g_s&quot;:7,&quot;g_t&quot;:2,&quot;coords&quot;:[[220.0, -109.0],[227.5, -115.0]],&quot;certainty&quot;:6]">
    <path clip-path="url(#p7483685c70)" d="M 214.082412 141.717907 
C 215.402596 141.717907 216.668886 141.261733 217.602397 140.449852 
C 218.535908 139.637972 219.060423 138.53667 219.060423 137.388498 
C 219.060423 136.240325 218.535908 135.139024 217.602397 134.327143 
C 216.668886 133.515262 215.402596 133.059088 214.082412 133.059088 
C 212.762228 133.059088 211.495938 133.515262 210.562427 134.327143 
C 209.628916 135.139024 209.104401 136.240325 209.104401 137.388498 
C 209.104401 138.53667 209.628916 139.637972 210.562427 140.449852 
C 211.495938 141.261733 212.762228 141.717907 214.082412 141.717907 
z
" style="fill:#0000ff;opacity:0.2;stroke:#0000ff;stroke-linejoin:miter;stroke-width:2;"/>
   </g>
   <g id="[&quot;g_s&quot;:2,&quot;g_t&quot;:7,&quot;coords&quot;:[[227.5, -115.0],[220.0, -109.0]],&quot;certainty&quot;:6]">
    <path clip-path="url(#p7483685c70)" d="M 224.749578 149.139751 
C 226.069762 149.139751 227.336052 148.683577 228.269563 147.871697 
C 229.203074 147.059816 229.727589 145.958515 229.727589 144.810342 
C 229.727589 143.662169 229.203074 142.560868 228.269563 141.748987 
C 227.336052 140.937107 226.069762 140.480933 224.749578 140.480933 
C 223.429394 140.480933 222.163104 140.937107 221.229593 141.748987 
C 220.296082 142.560868 219.771567 143.662169 219.771567 144.810342 
C 219.771567 145.958515 220.296082 147.059816 221.229593 147.871697 
C 222.163104 148.683577 223.429394 149.139751 224.749578 149.139751 
z
" style="fill:#ff0000;opacity:0.2;stroke:#ff0000;stroke-linejoin:miter;stroke-width:2;"/>
   </g>
   <g id="patch_28">
    <path d="M 214.082412 137.388498 
Q 218.594342 140.527742 222.090507 142.960253 
" style="fill:none;opacity:0.5;stroke:#0000ff;stroke-linecap:round;stroke-width:1.75;"/>
    <path d="M 221.715905 140.87227 
L 222.090507 142.960253 
L 220.002524 143.334855 
" style="fill:none;opacity:0.5;stroke:#0000ff;stroke-linecap:round;stroke-width:1.75;"/>
   </g>
   <g id="[&quot;g_s&quot;:8,&quot;g_t&quot;:2,&quot;coords&quot;:[[240.0, -128.0],[227.5, -115.0]],&quot;certainty&quot;:3]">
    <path clip-path="url(#p7483685c70)" d="M 242.528188 163.364953 
C 243.282578 163.364953 244.006173 163.104282 244.539608 162.64035 
C 245.073042 162.176418 245.372765 161.547103 245.372765 160.891005 
C 245.372765 160.234906 245.073042 159.605591 244.539608 159.141659 
C 244.006173 158.677727 243.282578 158.417057 242.528188 158.417057 
C 241.773797 158.417057 241.050202 158.677727 240.516767 159.141659 
C 239.983333 159.605591 239.68361 160.234906 239.68361 160.891005 
C 239.68361 161.547103 239.983333 162.176418 240.516767 162.64035 
C 241.050202 163.104282 241.773797 163.364953 242.528188 163.364953 
z
" style="fill:#0000ff;opacity:0.2;stroke:#0000ff;stroke-linejoin:miter;stroke-width:2;"/>
   </g>
   <g id="[&quot;g_s&quot;:2,&quot;g_t&quot;:8,&quot;coords&quot;:[[227.5, -115.0],[240.0, -128.0]],&quot;certainty&quot;:3]">
    <path clip-path="url(#p7483685c70)" d="M 224.749578 147.28429 
C 225.503969 147.28429 226.227563 147.023619 226.760998 146.559687 
C 227.294433 146.095756 227.594155 145.466441 227.594155 144.810342 
C 227.594155 144.154243 227.294433 143.524928 226.760998 143.060997 
C 226.227563 142.597065 225.503969 142.336394 224.749578 142.336394 
C 223.995187 142.336394 223.271593 142.597065 222.738158 143.060997 
C 222.204723 143.524928 221.905 144.154243 221.905 144.810342 
C 221.905 145.466441 222.204723 146.095756 222.738158 146.559687 
C 223.271593 147.023619 223.995187 147.28429 224.749578 147.28429 
z
" style="fill:#ff0000;opacity:0.2;stroke:#ff0000;stroke-linejoin:miter;stroke-width:2;"/>
   </g>
   <g id="patch_29">
    <path d="M 242.528188 160.891005 
Q 234.38002 153.521028 226.756267 146.625382 
" style="fill:none;opacity:0.5;stroke:#0000ff;stroke-linecap:round;"/>
    <path d="M 226.862511 148.74404 
L 226.756267 146.625382 
L 228.874925 146.519137 
" style="fill:none;opacity:0.5;stroke:#0000ff;stroke-linecap:round;"/>
   </g>
   <g id="[&quot;g_s&quot;:9,&quot;g_t&quot;:3,&quot;coords&quot;:[[261.0, -110.0],[254.5, -115.0]],&quot;certainty&quot;:7]">
    <path clip-path="url(#p7483685c70)" d="M 272.396252 143.573368 
C 273.905033 143.573368 275.352222 143.052026 276.419092 142.124163 
C 277.485962 141.196299 278.085407 139.937669 278.085407 138.625472 
C 278.085407 137.313274 277.485962 136.054644 276.419092 135.126781 
C 275.352222 134.198917 273.905033 133.677576 272.396252 133.677576 
C 270.88747 133.677576 269.440281 134.198917 268.373412 135.126781 
C 267.306542 136.054644 266.707097 137.313274 266.707097 138.625472 
C 266.707097 139.937669 267.306542 141.196299 268.373412 142.124163 
C 269.440281 143.052026 270.88747 143.573368 272.396252 143.573368 
z
" style="fill:#0000ff;opacity:0.2;stroke:#0000ff;stroke-linejoin:miter;stroke-width:2;"/>
   </g>
   <g id="[&quot;g_s&quot;:3,&quot;g_t&quot;:9,&quot;coords&quot;:[[254.5, -115.0],[261.0, -110.0]],&quot;certainty&quot;:7]">
    <path clip-path="url(#p7483685c70)" d="M 263.151375 149.758238 
C 264.660156 149.758238 266.107345 149.236897 267.174215 148.309033 
C 268.241085 147.381169 268.84053 146.122539 268.84053 144.810342 
C 268.84053 143.498145 268.241085 142.239515 267.174215 141.311651 
C 266.107345 140.383787 264.660156 139.862446 263.151375 139.862446 
C 261.642593 139.862446 260.195404 140.383787 259.128535 141.311651 
C 258.061665 142.239515 257.46222 143.498145 257.46222 144.810342 
C 257.46222 146.122539 258.061665 147.381169 259.128535 148.309033 
C 260.195404 149.236897 261.642593 149.758238 263.151375 149.758238 
z
" style="fill:#ff0000;opacity:0.2;stroke:#ff0000;stroke-linejoin:miter;stroke-width:2;"/>
   </g>
   <g id="patch_30">
    <path d="M 272.396252 138.625472 
Q 268.605536 141.16148 265.990247 142.911122 
" style="fill:none;opacity:0.5;stroke:#0000ff;stroke-linecap:round;stroke-width:2;"/>
    <path d="M 268.071043 143.323782 
L 265.990247 142.911122 
L 266.402908 140.830326 
" style="fill:none;opacity:0.5;stroke:#0000ff;stroke-linecap:round;stroke-width:2;"/>
   </g>
   <g id="[&quot;g_s&quot;:10,&quot;g_t&quot;:4,&quot;coords&quot;:[[341.0, -22.0],[329.5, -22.0]],&quot;certainty&quot;:5]">
    <path clip-path="url(#p7483685c70)" d="M 386.179354 33.482677 
C 387.31094 33.482677 388.396332 33.091671 389.196484 32.395773 
C 389.996636 31.699875 390.44622 30.755903 390.44622 29.771755 
C 390.44622 28.787607 389.996636 27.843634 389.196484 27.147737 
C 388.396332 26.451839 387.31094 26.060833 386.179354 26.060833 
C 385.047768 26.060833 383.962376 26.451839 383.162224 27.147737 
C 382.362071 27.843634 381.912487 28.787607 381.912487 29.771755 
C 381.912487 30.755903 382.362071 31.699875 383.162224 32.395773 
C 383.962376 33.091671 385.047768 33.482677 386.179354 33.482677 
z
" style="fill:#0000ff;opacity:0.2;stroke:#0000ff;stroke-linejoin:miter;stroke-width:2;"/>
   </g>
   <g id="[&quot;g_s&quot;:4,&quot;g_t&quot;:10,&quot;coords&quot;:[[329.5, -22.0],[341.0, -22.0]],&quot;certainty&quot;:5]">
    <path clip-path="url(#p7483685c70)" d="M 369.823033 33.482677 
C 370.954619 33.482677 372.040011 33.091671 372.840163 32.395773 
C 373.640315 31.699875 374.089899 30.755903 374.089899 29.771755 
C 374.089899 28.787607 373.640315 27.843634 372.840163 27.147737 
C 372.040011 26.451839 370.954619 26.060833 369.823033 26.060833 
C 368.691447 26.060833 367.606055 26.451839 366.805903 27.147737 
C 366.005751 27.843634 365.556167 28.787607 365.556167 29.771755 
C 365.556167 30.755903 366.005751 31.699875 366.805903 32.395773 
C 367.606055 33.091671 368.691447 33.482677 369.823033 33.482677 
z
" style="fill:#ff0000;opacity:0.2;stroke:#ff0000;stroke-linejoin:miter;stroke-width:2;"/>
   </g>
   <g id="patch_31">
    <path d="M 386.179354 29.771755 
Q 379.001501 29.771755 372.884307 29.771755 
" style="fill:none;opacity:0.5;stroke:#0000ff;stroke-linecap:round;stroke-width:1.5;"/>
    <path d="M 374.384307 31.271755 
L 372.884307 29.771755 
L 374.384307 28.271755 
" style="fill:none;opacity:0.5;stroke:#0000ff;stroke-linecap:round;stroke-width:1.5;"/>
   </g>
   <g id="[&quot;g_s&quot;:1,&quot;g_t&quot;:6,&quot;coords&quot;:[[152.5, -22.0],[140.0, -22.0]],&quot;certainty&quot;:6]">
    <path clip-path="url(#p7483685c70)" d="M 118.07792 34.101164 
C 119.398104 34.101164 120.664394 33.64499 121.597905 32.83311 
C 122.531416 32.021229 123.05593 30.919928 123.05593 29.771755 
C 123.05593 28.623582 122.531416 27.522281 121.597905 26.7104 
C 120.664394 25.89852 119.398104 25.442346 118.07792 25.442346 
C 116.757736 25.442346 115.491446 25.89852 114.557935 26.7104 
C 113.624424 27.522281 113.099909 28.623582 113.099909 29.771755 
C 113.099909 30.919928 113.624424 32.021229 114.557935 32.83311 
C 115.491446 33.64499 116.757736 34.101164 118.07792 34.101164 
z
" style="fill:#0000ff;opacity:0.2;stroke:#0000ff;stroke-linejoin:miter;stroke-width:2;"/>
   </g>
   <g id="[&quot;g_s&quot;:6,&quot;g_t&quot;:1,&quot;coords&quot;:[[140.0, -22.0],[152.5, -22.0]],&quot;certainty&quot;:6]">
    <path clip-path="url(#p7483685c70)" d="M 100.29931 34.101164 
C 101.619494 34.101164 102.885784 33.64499 103.819295 32.83311 
C 104.752806 32.021229 105.277321 30.919928 105.277321 29.771755 
C 105.277321 28.623582 104.752806 27.522281 103.819295 26.7104 
C 102.885784 25.89852 101.619494 25.442346 100.29931 25.442346 
C 98.979126 25.442346 97.712836 25.89852 96.779325 26.7104 
C 95.845814 27.522281 95.321299 28.623582 95.321299 29.771755 
C 95.321299 30.919928 95.845814 32.021229 96.779325 32.83311 
C 97.712836 33.64499 98.979126 34.101164 100.29931 34.101164 
z
" style="fill:#ff0000;opacity:0.2;stroke:#ff0000;stroke-linejoin:miter;stroke-width:2;"/>
   </g>
   <g id="patch_32">
    <path d="M 118.07792 29.771755 
Q 110.189096 29.771755 103.537709 29.771755 
" style="fill:none;opacity:0.5;stroke:#ff0000;stroke-linecap:round;stroke-width:1.75;"/>
    <path d="M 105.037709 31.271755 
L 103.537709 29.771755 
L 105.037709 28.271755 
" style="fill:none;opacity:0.5;stroke:#ff0000;stroke-linecap:round;stroke-width:1.75;"/>
   </g>
   <g id="[&quot;g_s&quot;:2,&quot;g_t&quot;:7,&quot;coords&quot;:[[227.5, -115.0],[220.0, -109.0]],&quot;certainty&quot;:5]">
    <path clip-path="url(#p7483685c70)" d="M 224.749578 148.521264 
C 225.881164 148.521264 226.966556 148.130258 227.766708 147.43436 
C 228.56686 146.738462 229.016444 145.79449 229.016444 144.810342 
C 229.016444 143.826194 228.56686 142.882222 227.766708 142.186324 
C 226.966556 141.490426 225.881164 141.09942 224.749578 141.09942 
C 223.617992 141.09942 222.5326 141.490426 221.732448 142.186324 
C 220.932295 142.882222 220.482711 143.826194 220.482711 144.810342 
C 220.482711 145.79449 220.932295 146.738462 221.732448 147.43436 
C 222.5326 148.130258 223.617992 148.521264 224.749578 148.521264 
z
" style="fill:#0000ff;opacity:0.2;stroke:#0000ff;stroke-linejoin:miter;stroke-width:2;"/>
   </g>
   <g id="[&quot;g_s&quot;:7,&quot;g_t&quot;:2,&quot;coords&quot;:[[220.0, -109.0],[227.5, -115.0]],&quot;certainty&quot;:5]">
    <path clip-path="url(#p7483685c70)" d="M 214.082412 141.09942 
C 215.213998 141.09942 216.29939 140.708414 217.099542 140.012516 
C 217.899694 139.316618 218.349278 138.372646 218.349278 137.388498 
C 218.349278 136.40435 217.899694 135.460377 217.099542 134.764479 
C 216.29939 134.068582 215.213998 133.677576 214.082412 133.677576 
C 212.950826 133.677576 211.865434 134.068582 211.065282 134.764479 
C 210.26513 135.460377 209.815546 136.40435 209.815546 137.388498 
C 209.815546 138.372646 210.26513 139.316618 211.065282 140.012516 
C 211.865434 140.708414 212.950826 141.09942 214.082412 141.09942 
z
" style="fill:#ff0000;opacity:0.2;stroke:#ff0000;stroke-linejoin:miter;stroke-width:2;"/>
   </g>
   <g id="patch_33">
    <path d="M 224.749578 144.810342 
Q 220.237648 141.671098 216.596373 139.137625 
" style="fill:none;opacity:0.5;stroke:#ff0000;stroke-linecap:round;stroke-width:1.5;"/>
    <path d="M 216.970975 141.225608 
L 216.596373 139.137625 
L 218.684356 138.763023 
" style="fill:none;opacity:0.5;stroke:#ff0000;stroke-linecap:round;stroke-width:1.5;"/>
   </g>
   <g id="[&quot;g_s&quot;:3,&quot;g_t&quot;:9,&quot;coords&quot;:[[254.5, -115.0],[261.0, -110.0]],&quot;certainty&quot;:6]">
    <path clip-path="url(#p7483685c70)" d="M 263.151375 149.139751 
C 264.471559 149.139751 265.737849 148.683577 266.67136 147.871697 
C 267.604871 147.059816 268.129385 145.958515 268.129385 144.810342 
C 268.129385 143.662169 267.604871 142.560868 266.67136 141.748987 
C 265.737849 140.937107 264.471559 140.480933 263.151375 140.480933 
C 261.831191 140.480933 260.564901 140.937107 259.63139 141.748987 
C 258.697879 142.560868 258.173364 143.662169 258.173364 144.810342 
C 258.173364 145.958515 258.697879 147.059816 259.63139 147.871697 
C 260.564901 148.683577 261.831191 149.139751 263.151375 149.139751 
z
" style="fill:#0000ff;opacity:0.2;stroke:#0000ff;stroke-linejoin:miter;stroke-width:2;"/>
   </g>
   <g id="[&quot;g_s&quot;:9,&quot;g_t&quot;:3,&quot;coords&quot;:[[261.0, -110.0],[254.5, -115.0]],&quot;certainty&quot;:6]">
    <path clip-path="url(#p7483685c70)" d="M 272.396252 142.954881 
C 273.716436 142.954881 274.982726 142.498707 275.916237 141.686826 
C 276.849748 140.874946 277.374262 139.773644 277.374262 138.625472 
C 277.374262 137.477299 276.849748 136.375998 275.916237 135.564117 
C 274.982726 134.752236 273.716436 134.296063 272.396252 134.296063 
C 271.076068 134.296063 269.809778 134.752236 268.876267 135.564117 
C 267.942756 136.375998 267.418241 137.477299 267.418241 138.625472 
C 267.418241 139.773644 267.942756 140.874946 268.876267 141.686826 
C 269.809778 142.498707 271.076068 142.954881 272.396252 142.954881 
z
" style="fill:#ff0000;opacity:0.2;stroke:#ff0000;stroke-linejoin:miter;stroke-width:2;"/>
   </g>
   <g id="patch_34">
    <path d="M 263.151375 144.810342 
Q 266.94209 142.274334 269.704308 140.426396 
" style="fill:none;opacity:0.5;stroke:#ff0000;stroke-linecap:round;stroke-width:1.75;"/>
    <path d="M 267.623512 140.013736 
L 269.704308 140.426396 
L 269.291647 142.507192 
" style="fill:none;opacity:0.5;stroke:#ff0000;stroke-linecap:round;stroke-width:1.75;"/>
   </g>
   <g id="[&quot;g_s&quot;:4,&quot;g_t&quot;:10,&quot;coords&quot;:[[329.5, -22.0],[341.0, -22.0]],&quot;certainty&quot;:7]">
    <path clip-path="url(#p7483685c70)" d="M 369.823033 34.719651 
C 371.331814 34.719651 372.779003 34.19831 373.845873 33.270446 
C 374.912743 32.342582 375.512188 31.083952 375.512188 29.771755 
C 375.512188 28.459558 374.912743 27.200928 373.845873 26.273064 
C 372.779003 25.3452 371.331814 24.823859 369.823033 24.823859 
C 368.314251 24.823859 366.867062 25.3452 365.800193 26.273064 
C 364.733323 27.200928 364.133878 28.459558 364.133878 29.771755 
C 364.133878 31.083952 364.733323 32.342582 365.800193 33.270446 
C 366.867062 34.19831 368.314251 34.719651 369.823033 34.719651 
z
" style="fill:#0000ff;opacity:0.2;stroke:#0000ff;stroke-linejoin:miter;stroke-width:2;"/>
   </g>
   <g id="[&quot;g_s&quot;:10,&quot;g_t&quot;:4,&quot;coords&quot;:[[341.0, -22.0],[329.5, -22.0]],&quot;certainty&quot;:7]">
    <path clip-path="url(#p7483685c70)" d="M 386.179354 34.719651 
C 387.688135 34.719651 389.135324 34.19831 390.202194 33.270446 
C 391.269064 32.342582 391.868509 31.083952 391.868509 29.771755 
C 391.868509 28.459558 391.269064 27.200928 390.202194 26.273064 
C 389.135324 25.3452 387.688135 24.823859 386.179354 24.823859 
C 384.670572 24.823859 383.223383 25.3452 382.156514 26.273064 
C 381.089644 27.200928 380.490199 28.459558 380.490199 29.771755 
C 380.490199 31.083952 381.089644 32.342582 382.156514 33.270446 
C 383.223383 34.19831 384.670572 34.719651 386.179354 34.719651 
z
" style="fill:#ff0000;opacity:0.2;stroke:#ff0000;stroke-linejoin:miter;stroke-width:2;"/>
   </g>
   <g id="patch_35">
    <path d="M 369.823033 29.771755 
Q 377.000886 29.771755 382.764526 29.771755 
" style="fill:none;opacity:0.5;stroke:#ff0000;stroke-linecap:round;stroke-width:2;"/>
    <path d="M 381.264526 28.271755 
L 382.764526 29.771755 
L 381.264526 31.271755 
" style="fill:none;opacity:0.5;stroke:#ff0000;stroke-linecap:round;stroke-width:2;"/>
   </g>
   <g id="[&quot;g_s&quot;:5,&quot;g_t&quot;:1,&quot;coords&quot;:[[347.5, -35.0],[369.0, -40.0]],&quot;certainty&quot;:10]">
    <path clip-path="url(#p7483685c70)" d="M 395.424231 52.655775 
C 397.498805 52.655775 399.48869 51.93893 400.955636 50.663118 
C 402.422582 49.387305 403.246819 47.656689 403.246819 45.852418 
C 403.246819 44.048146 402.422582 42.31753 400.955636 41.041718 
C 399.48869 39.765905 397.498805 39.04906 395.424231 39.04906 
C 393.349656 39.04906 391.359771 39.765905 389.892826 41.041718 
C 388.42588 42.31753 387.601643 44.048146 387.601643 45.852418 
C 387.601643 47.656689 388.42588 49.387305 389.892826 50.663118 
C 391.359771 51.93893 393.349656 52.655775 395.424231 52.655775 
z
" style="fill:#0000ff;opacity:0.2;stroke:#0000ff;stroke-linejoin:miter;stroke-width:2;"/>
   </g>
   <g id="[&quot;g_s&quot;:1,&quot;g_t&quot;:5,&quot;coords&quot;:[[369.0, -40.0],[347.5, -35.0]],&quot;certainty&quot;:10]">
    <path clip-path="url(#p7483685c70)" d="M 426.003439 58.840645 
C 428.078014 58.840645 430.067899 58.123801 431.534845 56.847988 
C 433.001791 55.572175 433.826028 53.841559 433.826028 52.037288 
C 433.826028 50.233016 433.001791 48.5024 431.534845 47.226588 
C 430.067899 45.950775 428.078014 45.233931 426.003439 45.233931 
C 423.928865 45.233931 421.93898 45.950775 420.472034 47.226588 
C 419.005088 48.5024 418.180851 50.233016 418.180851 52.037288 
C 418.180851 53.841559 419.005088 55.572175 420.472034 56.847988 
C 421.93898 58.123801 423.928865 58.840645 426.003439 58.840645 
z
" style="fill:#ff0000;opacity:0.2;stroke:#ff0000;stroke-linejoin:miter;stroke-width:2;"/>
   </g>
   <g id="patch_36">
    <path d="M 395.424231 45.852418 
Q 409.733972 48.746668 422.137762 51.255426 
" style="fill:none;opacity:0.5;stroke:#ff0000;stroke-linecap:round;stroke-width:2.75;"/>
    <path d="M 420.964898 49.487832 
L 422.137762 51.255426 
L 420.370168 52.428291 
" style="fill:none;opacity:0.5;stroke:#ff0000;stroke-linecap:round;stroke-width:2.75;"/>
   </g>
   <g id="[&quot;g_s&quot;:6,&quot;g_t&quot;:2,&quot;coords&quot;:[[257.5, -212.0],[263.0, -231.0]],&quot;certainty&quot;:7]">
    <path clip-path="url(#p7483685c70)" d="M 267.418241 269.744722 
C 268.927023 269.744722 270.374212 269.22338 271.441081 268.295516 
C 272.507951 267.367653 273.107396 266.109023 273.107396 264.796825 
C 273.107396 263.484628 272.507951 262.225998 271.441081 261.298134 
C 270.374212 260.370271 268.927023 259.848929 267.418241 259.848929 
C 265.909459 259.848929 264.462271 260.370271 263.395401 261.298134 
C 262.328531 262.225998 261.729086 263.484628 261.729086 264.796825 
C 261.729086 266.109023 262.328531 267.367653 263.395401 268.295516 
C 264.462271 269.22338 265.909459 269.744722 267.418241 269.744722 
z
" style="fill:#0000ff;opacity:0.2;stroke:#0000ff;stroke-linejoin:miter;stroke-width:2;"/>
   </g>
   <g id="[&quot;g_s&quot;:2,&quot;g_t&quot;:6,&quot;coords&quot;:[[263.0, -231.0],[257.5, -212.0]],&quot;certainty&quot;:7]">
    <path clip-path="url(#p7483685c70)" d="M 275.240829 293.247229 
C 276.749611 293.247229 278.1968 292.725887 279.263669 291.798023 
C 280.330539 290.87016 280.929984 289.61153 280.929984 288.299332 
C 280.929984 286.987135 280.330539 285.728505 279.263669 284.800641 
C 278.1968 283.872778 276.749611 283.351436 275.240829 283.351436 
C 273.732048 283.351436 272.284859 283.872778 271.217989 284.800641 
C 270.151119 285.728505 269.551674 286.987135 269.551674 288.299332 
C 269.551674 289.61153 270.151119 290.87016 271.217989 291.798023 
C 272.284859 292.725887 273.732048 293.247229 275.240829 293.247229 
z
" style="fill:#ff0000;opacity:0.2;stroke:#ff0000;stroke-linejoin:miter;stroke-width:2;"/>
   </g>
   <g id="patch_37">
    <path d="M 267.418241 264.796825 
Q 271.013939 275.599888 274.163018 285.061112 
" style="fill:none;opacity:0.5;stroke:#ff0000;stroke-linecap:round;stroke-width:2;"/>
    <path d="M 275.112543 283.164166 
L 274.163018 285.061112 
L 272.266072 284.111587 
" style="fill:none;opacity:0.5;stroke:#ff0000;stroke-linecap:round;stroke-width:2;"/>
   </g>
   <g id="[&quot;g_s&quot;:7,&quot;g_t&quot;:4,&quot;coords&quot;:[[224.5, -212.0],[217.0, -231.0]],&quot;certainty&quot;:7]">
    <path clip-path="url(#p7483685c70)" d="M 220.482711 269.744722 
C 221.991493 269.744722 223.438682 269.22338 224.505552 268.295516 
C 225.572421 267.367653 226.171867 266.109023 226.171867 264.796825 
C 226.171867 263.484628 225.572421 262.225998 224.505552 261.298134 
C 223.438682 260.370271 221.991493 259.848929 220.482711 259.848929 
C 218.97393 259.848929 217.526741 260.370271 216.459871 261.298134 
C 215.393002 262.225998 214.793556 263.484628 214.793556 264.796825 
C 214.793556 266.109023 215.393002 267.367653 216.459871 268.295516 
C 217.526741 269.22338 218.97393 269.744722 220.482711 269.744722 
z
" style="fill:#0000ff;opacity:0.2;stroke:#0000ff;stroke-linejoin:miter;stroke-width:2;"/>
   </g>
   <g id="[&quot;g_s&quot;:4,&quot;g_t&quot;:7,&quot;coords&quot;:[[217.0, -231.0],[224.5, -212.0]],&quot;certainty&quot;:7]">
    <path clip-path="url(#p7483685c70)" d="M 209.815546 293.247229 
C 211.324327 293.247229 212.771516 292.725887 213.838386 291.798023 
C 214.905256 290.87016 215.504701 289.61153 215.504701 288.299332 
C 215.504701 286.987135 214.905256 285.728505 213.838386 284.800641 
C 212.771516 283.872778 211.324327 283.351436 209.815546 283.351436 
C 208.306764 283.351436 206.859575 283.872778 205.792706 284.800641 
C 204.725836 285.728505 204.126391 286.987135 204.126391 288.299332 
C 204.126391 289.61153 204.725836 290.87016 205.792706 291.798023 
C 206.859575 292.725887 208.306764 293.247229 209.815546 293.247229 
z
" style="fill:#ff0000;opacity:0.2;stroke:#ff0000;stroke-linejoin:miter;stroke-width:2;"/>
   </g>
   <g id="patch_38">
    <path d="M 220.482711 264.796825 
Q 215.562559 275.637185 211.226896 285.189765 
" style="fill:none;opacity:0.5;stroke:#ff0000;stroke-linecap:round;stroke-width:2;"/>
    <path d="M 213.212735 284.443814 
L 211.226896 285.189765 
L 210.480944 283.203926 
" style="fill:none;opacity:0.5;stroke:#ff0000;stroke-linecap:round;stroke-width:2;"/>
   </g>
   <g id="[&quot;g_s&quot;:8,&quot;g_t&quot;:5,&quot;coords&quot;:[[132.5, -35.0],[111.0, -40.0]],&quot;certainty&quot;:11]">
    <path clip-path="url(#p7483685c70)" d="M 89.632144 53.274262 
C 91.895317 53.274262 94.0661 52.49225 95.666404 51.100454 
C 97.266709 49.708659 98.165877 47.820714 98.165877 45.852418 
C 98.165877 43.884122 97.266709 41.996177 95.666404 40.604381 
C 94.0661 39.212586 91.895317 38.430573 89.632144 38.430573 
C 87.368972 38.430573 85.198188 39.212586 83.597884 40.604381 
C 81.997579 41.996177 81.098412 43.884122 81.098412 45.852418 
C 81.098412 47.820714 81.997579 49.708659 83.597884 51.100454 
C 85.198188 52.49225 87.368972 53.274262 89.632144 53.274262 
z
" style="fill:#0000ff;opacity:0.2;stroke:#0000ff;stroke-linejoin:miter;stroke-width:2;"/>
   </g>
   <g id="[&quot;g_s&quot;:5,&quot;g_t&quot;:8,&quot;coords&quot;:[[111.0, -40.0],[132.5, -35.0]],&quot;certainty&quot;:11]">
    <path clip-path="url(#p7483685c70)" d="M 59.052936 59.459132 
C 61.316108 59.459132 63.486891 58.67712 65.087196 57.285324 
C 66.6875 55.893529 67.586668 54.005584 67.586668 52.037288 
C 67.586668 50.068992 66.6875 48.181047 65.087196 46.789251 
C 63.486891 45.397456 61.316108 44.615444 59.052936 44.615444 
C 56.789763 44.615444 54.61898 45.397456 53.018675 46.789251 
C 51.418371 48.181047 50.519203 50.068992 50.519203 52.037288 
C 50.519203 54.005584 51.418371 55.893529 53.018675 57.285324 
C 54.61898 58.67712 56.789763 59.459132 59.052936 59.459132 
z
" style="fill:#ff0000;opacity:0.2;stroke:#ff0000;stroke-linejoin:miter;stroke-width:2;"/>
   </g>
   <g id="patch_39">
    <path d="M 89.632144 45.852418 
Q 75.322403 48.746668 63.091881 51.220381 
" style="fill:none;opacity:0.5;stroke:#ff0000;stroke-linecap:round;stroke-width:3;"/>
    <path d="M 64.859475 52.393246 
L 63.091881 51.220381 
L 64.264745 49.452787 
" style="fill:none;opacity:0.5;stroke:#ff0000;stroke-linecap:round;stroke-width:3;"/>
   </g>
   <g id="patch_40">
    <path clip-path="url(#p7483685c70)" d="M 410.713835 55.129723 
C 412.599812 55.129723 414.408798 54.478046 415.742385 53.318216 
C 417.075972 52.158387 417.825279 50.5851 417.825279 48.944853 
C 417.825279 47.304606 417.075972 45.731319 415.742385 44.571489 
C 414.408798 43.411659 412.599812 42.759983 410.713835 42.759983 
C 408.827858 42.759983 407.018872 43.411659 405.685285 44.571489 
C 404.351698 45.731319 403.602391 47.304606 403.602391 48.944853 
C 403.602391 50.5851 404.351698 52.158387 405.685285 53.318216 
C 407.018872 54.478046 408.827858 55.129723 410.713835 55.129723 
z
" style="fill:#008000;opacity:0.2;stroke:#008000;stroke-linejoin:miter;stroke-width:2;"/>
   </g>
   <g id="patch_41">
    <path clip-path="url(#p7483685c70)" d="M 271.329535 282.732949 
C 273.215512 282.732949 275.024498 282.081272 276.358085 280.921443 
C 277.691672 279.761613 278.440979 278.188326 278.440979 276.548079 
C 278.440979 274.907832 277.691672 273.334545 276.358085 272.174715 
C 275.024498 271.014886 273.215512 270.363209 271.329535 270.363209 
C 269.443558 270.363209 267.634572 271.014886 266.300985 272.174715 
C 264.967398 273.334545 264.218091 274.907832 264.218091 276.548079 
C 264.218091 278.188326 264.967398 279.761613 266.300985 280.921443 
C 267.634572 282.081272 269.443558 282.732949 271.329535 282.732949 
z
" style="fill:#008000;opacity:0.2;stroke:#008000;stroke-linejoin:miter;stroke-width:2;"/>
   </g>
   <g id="patch_42">
    <path clip-path="url(#p7483685c70)" d="M 215.149129 282.732949 
C 217.035106 282.732949 218.844092 282.081272 220.177679 280.921443 
C 221.511266 279.761613 222.260572 278.188326 222.260572 276.548079 
C 222.260572 274.907832 221.511266 273.334545 220.177679 272.174715 
C 218.844092 271.014886 217.035106 270.363209 215.149129 270.363209 
C 213.263152 270.363209 211.454165 271.014886 210.120578 272.174715 
C 208.786991 273.334545 208.037685 274.907832 208.037685 276.548079 
C 208.037685 278.188326 208.786991 279.761613 210.120578 280.921443 
C 211.454165 282.081272 213.263152 282.732949 215.149129 282.732949 
z
" style="fill:#008000;opacity:0.2;stroke:#008000;stroke-linejoin:miter;stroke-width:2;"/>
   </g>
   <g id="patch_43">
    <path clip-path="url(#p7483685c70)" d="M 74.34254 55.129723 
C 76.228517 55.129723 78.037503 54.478046 79.37109 53.318216 
C 80.704677 52.158387 81.453984 50.5851 81.453984 48.944853 
C 81.453984 47.304606 80.704677 45.731319 79.37109 44.571489 
C 78.037503 43.411659 76.228517 42.759983 74.34254 42.759983 
C 72.456563 42.759983 70.647577 43.411659 69.31399 44.571489 
C 67.980403 45.731319 67.231096 47.304606 67.231096 48.944853 
C 67.231096 50.5851 67.980403 52.158387 69.31399 53.318216 
C 70.647577 54.478046 72.456563 55.129723 74.34254 55.129723 
z
" style="fill:#008000;opacity:0.2;stroke:#008000;stroke-linejoin:miter;stroke-width:2;"/>
   </g>
   <g id="patch_44">
    <path clip-path="url(#p7483685c70)" d="M 109.188615 35.956625 
C 111.074592 35.956625 112.883578 35.304948 114.217165 34.145119 
C 115.550752 32.985289 116.300059 31.412002 116.300059 29.771755 
C 116.300059 28.131508 115.550752 26.558221 114.217165 25.398391 
C 112.883578 24.238562 111.074592 23.586885 109.188615 23.586885 
C 107.302638 23.586885 105.493652 24.238562 104.160065 25.398391 
C 102.826478 26.558221 102.077171 28.131508 102.077171 29.771755 
C 102.077171 31.412002 102.826478 32.985289 104.160065 34.145119 
C 105.493652 35.304948 107.302638 35.956625 109.188615 35.956625 
z
" style="fill:#008000;opacity:0.2;stroke:#008000;stroke-linejoin:miter;stroke-width:2;"/>
   </g>
   <g id="patch_45">
    <path clip-path="url(#p7483685c70)" d="M 219.415995 147.28429 
C 221.301972 147.28429 223.110958 146.632613 224.444545 145.472784 
C 225.778132 144.312954 226.527439 142.739667 226.527439 141.09942 
C 226.527439 139.459173 225.778132 137.885886 224.444545 136.726056 
C 223.110958 135.566227 221.301972 134.91455 219.415995 134.91455 
C 217.530018 134.91455 215.721032 135.566227 214.387445 136.726056 
C 213.053858 137.885886 212.304551 139.459173 212.304551 141.09942 
C 212.304551 142.739667 213.053858 144.312954 214.387445 145.472784 
C 215.721032 146.632613 217.530018 147.28429 219.415995 147.28429 
z
" style="fill:#008000;opacity:0.2;stroke:#008000;stroke-linejoin:miter;stroke-width:2;"/>
   </g>
   <g id="patch_46">
    <path clip-path="url(#p7483685c70)" d="M 267.773813 147.902777 
C 269.65979 147.902777 271.468776 147.2511 272.802363 146.091271 
C 274.135951 144.931441 274.885257 143.358154 274.885257 141.717907 
C 274.885257 140.07766 274.135951 138.504373 272.802363 137.344543 
C 271.468776 136.184714 269.65979 135.533037 267.773813 135.533037 
C 265.887836 135.533037 264.07885 136.184714 262.745263 137.344543 
C 261.411676 138.504373 260.662369 140.07766 260.662369 141.717907 
C 260.662369 143.358154 261.411676 144.931441 262.745263 146.091271 
C 264.07885 147.2511 265.887836 147.902777 267.773813 147.902777 
z
" style="fill:#008000;opacity:0.2;stroke:#008000;stroke-linejoin:miter;stroke-width:2;"/>
   </g>
   <g id="patch_47">
    <path clip-path="url(#p7483685c70)" d="M 378.001193 35.956625 
C 379.88717 35.956625 381.696156 35.304948 383.029744 34.145119 
C 384.363331 32.985289 385.112637 31.412002 385.112637 29.771755 
C 385.112637 28.131508 384.363331 26.558221 383.029744 25.398391 
C 381.696156 24.238562 379.88717 23.586885 378.001193 23.586885 
C 376.115216 23.586885 374.30623 24.238562 372.972643 25.398391 
C 371.639056 26.558221 370.889749 28.131508 370.889749 29.771755 
C 370.889749 31.412002 371.639056 32.985289 372.972643 34.145119 
C 374.30623 35.304948 376.115216 35.956625 378.001193 35.956625 
z
" style="fill:#008000;opacity:0.2;stroke:#008000;stroke-linejoin:miter;stroke-width:2;"/>
   </g>
   <g id="patch_48">
    <path clip-path="url(#p7483685c70)" d="M 426.003439 76.776769 
C 433.547347 76.776769 440.783292 74.170061 446.11764 69.530743 
C 451.451989 64.891424 454.449215 58.598275 454.449215 52.037288 
C 454.449215 45.476301 451.451989 39.183152 446.11764 34.543833 
C 440.783292 29.904515 433.547347 27.297807 426.003439 27.297807 
C 418.459532 27.297807 411.223587 29.904515 405.889239 34.543833 
C 400.55489 39.183152 397.557664 45.476301 397.557664 52.037288 
C 397.557664 58.598275 400.55489 64.891424 405.889239 69.530743 
C 411.223587 74.170061 418.459532 76.776769 426.003439 76.776769 
z
" style="fill:none;opacity:0.2;stroke:#ff0000;stroke-linejoin:miter;stroke-width:2;"/>
   </g>
   <g id="patch_49">
    <path clip-path="url(#p7483685c70)" d="M 118.07792 54.511236 
C 125.621828 54.511236 132.857772 51.904528 138.19212 47.26521 
C 143.526469 42.625891 146.523695 36.332742 146.523695 29.771755 
C 146.523695 23.210768 143.526469 16.917619 138.19212 12.2783 
C 132.857772 7.638982 125.621828 5.032274 118.07792 5.032274 
C 110.534012 5.032274 103.298067 7.638982 97.963719 12.2783 
C 92.629371 16.917619 89.632144 23.210768 89.632144 29.771755 
C 89.632144 36.332742 92.629371 42.625891 97.963719 47.26521 
C 103.298067 51.904528 110.534012 54.511236 118.07792 54.511236 
z
" style="fill:none;opacity:0.2;stroke:#0000ff;stroke-linejoin:miter;stroke-width:2;"/>
   </g>
   <g id="patch_50">
    <path clip-path="url(#p7483685c70)" d="M 426.003439 64.407028 
C 429.775393 64.407028 433.393366 63.103675 436.06054 60.784015 
C 438.727714 58.464356 440.226327 55.317781 440.226327 52.037288 
C 440.226327 48.756794 438.727714 45.61022 436.06054 43.29056 
C 433.393366 40.970901 429.775393 39.667547 426.003439 39.667547 
C 422.231486 39.667547 418.613513 40.970901 415.946339 43.29056 
C 413.279165 45.61022 411.780552 48.756794 411.780552 52.037288 
C 411.780552 55.317781 413.279165 58.464356 415.946339 60.784015 
C 418.613513 63.103675 422.231486 64.407028 426.003439 64.407028 
z
" style="fill:none;opacity:0.2;stroke:#008000;stroke-linejoin:miter;stroke-width:2;"/>
   </g>
   <g id="patch_51">
    <path clip-path="url(#p7483685c70)" d="M 395.424231 58.222158 
C 399.196185 58.222158 402.814157 56.918804 405.481331 54.599145 
C 408.148505 52.279486 409.647119 49.132911 409.647119 45.852418 
C 409.647119 42.571924 408.148505 39.425349 405.481331 37.10569 
C 402.814157 34.786031 399.196185 33.482677 395.424231 33.482677 
C 391.652277 33.482677 388.034305 34.786031 385.36713 37.10569 
C 382.699956 39.425349 381.201343 42.571924 381.201343 45.852418 
C 381.201343 49.132911 382.699956 52.279486 385.36713 54.599145 
C 388.034305 56.918804 391.652277 58.222158 395.424231 58.222158 
z
" style="fill:none;opacity:0.2;stroke:#008000;stroke-linejoin:miter;stroke-width:2;"/>
   </g>
   <g id="patch_52">
    <path d="M 410.713835 48.944853 
Q 341.021685 162.746466 271.329535 276.548079 
" style="fill:none;opacity:0.5;stroke:#008000;stroke-linecap:round;stroke-width:2;"/>
   </g>
   <g id="patch_53">
    <path d="M 424.617294 51.75693 
Q 411.693699 49.143037 398.770103 46.529145 
" style="fill:none;opacity:0.5;stroke:#800080;stroke-linecap:round;stroke-width:2;"/>
    <path d="M 423.444429 49.989336 
L 424.617294 51.75693 
L 422.8497 52.929794 
" style="fill:none;opacity:0.5;stroke:#800080;stroke-linecap:round;stroke-width:2;"/>
    <path d="M 399.942968 48.296739 
L 398.770103 46.529145 
L 400.537697 45.35628 
" style="fill:none;opacity:0.5;stroke:#800080;stroke-linecap:round;stroke-width:2;"/>
   </g>
   <g id="patch_54">
    <path d="M 271.329535 276.548079 
Q 243.239332 276.548079 215.149129 276.548079 
" style="fill:none;opacity:0.5;stroke:#008000;stroke-linecap:round;stroke-width:2;"/>
   </g>
   <g id="patch_55">
    <path d="M 274.794211 286.957493 
Q 271.645132 277.49627 268.496052 268.035046 
" style="fill:none;opacity:0.5;stroke:#800080;stroke-linecap:round;stroke-width:2;"/>
    <path d="M 275.743736 285.060548 
L 274.794211 286.957493 
L 272.897265 286.007969 
" style="fill:none;opacity:0.5;stroke:#800080;stroke-linecap:round;stroke-width:2;"/>
    <path d="M 267.546528 269.931991 
L 268.496052 268.035046 
L 270.392998 268.984571 
" style="fill:none;opacity:0.5;stroke:#800080;stroke-linecap:round;stroke-width:2;"/>
   </g>
   <g id="patch_56">
    <path d="M 215.149129 276.548079 
Q 144.745834 162.746466 74.34254 48.944853 
" style="fill:none;opacity:0.5;stroke:#008000;stroke-linecap:round;stroke-width:2;"/>
   </g>
   <g id="patch_57">
    <path d="M 210.400034 287.011554 
Q 214.735698 277.458973 219.071361 267.906392 
" style="fill:none;opacity:0.5;stroke:#800080;stroke-linecap:round;stroke-width:2;"/>
    <path d="M 212.385873 286.265602 
L 210.400034 287.011554 
L 209.654083 285.025715 
" style="fill:none;opacity:0.5;stroke:#800080;stroke-linecap:round;stroke-width:2;"/>
    <path d="M 217.085522 268.652344 
L 219.071361 267.906392 
L 219.817313 269.892231 
" style="fill:none;opacity:0.5;stroke:#800080;stroke-linecap:round;stroke-width:2;"/>
   </g>
   <g id="patch_58">
    <path d="M 74.34254 48.944853 
Q 91.765577 39.358304 109.188615 29.771755 
" style="fill:none;opacity:0.5;stroke:#008000;stroke-linecap:round;stroke-width:2;"/>
   </g>
   <g id="patch_59">
    <path d="M 60.439081 51.75693 
Q 73.362676 49.143037 86.286272 46.529145 
" style="fill:none;opacity:0.5;stroke:#800080;stroke-linecap:round;stroke-width:2;"/>
    <path d="M 62.206675 52.929794 
L 60.439081 51.75693 
L 61.611946 49.989336 
" style="fill:none;opacity:0.5;stroke:#800080;stroke-linecap:round;stroke-width:2;"/>
    <path d="M 84.518678 45.35628 
L 86.286272 46.529145 
L 85.113407 48.296739 
" style="fill:none;opacity:0.5;stroke:#800080;stroke-linecap:round;stroke-width:2;"/>
   </g>
   <g id="patch_60">
    <path d="M 109.188615 29.771755 
Q 164.302305 85.435587 219.415995 141.09942 
" style="fill:none;opacity:0.5;stroke:#008000;stroke-linecap:round;stroke-width:2;"/>
   </g>
   <g id="patch_61">
    <path d="M 101.713524 29.771755 
Q 108.188134 29.771755 114.662744 29.771755 
" style="fill:none;opacity:0.5;stroke:#800080;stroke-linecap:round;stroke-width:2;"/>
    <path d="M 103.213524 31.271755 
L 101.713524 29.771755 
L 103.213524 28.271755 
" style="fill:none;opacity:0.5;stroke:#800080;stroke-linecap:round;stroke-width:2;"/>
    <path d="M 113.162744 28.271755 
L 114.662744 29.771755 
L 113.162744 31.271755 
" style="fill:none;opacity:0.5;stroke:#800080;stroke-linecap:round;stroke-width:2;"/>
   </g>
   <g id="patch_62">
    <path clip-path="url(#p7483685c70)" d="M 272.396252 150.995212 
C 276.168206 150.995212 279.786178 149.691858 282.453352 147.372199 
C 285.120526 145.05254 286.61914 141.905965 286.61914 138.625472 
C 286.61914 135.344978 285.120526 132.198404 282.453352 129.878744 
C 279.786178 127.559085 276.168206 126.255731 272.396252 126.255731 
C 268.624298 126.255731 265.006326 127.559085 262.339151 129.878744 
C 259.671977 132.198404 258.173364 135.344978 258.173364 138.625472 
C 258.173364 141.905965 259.671977 145.05254 262.339151 147.372199 
C 265.006326 149.691858 268.624298 150.995212 272.396252 150.995212 
z
" style="fill:none;opacity:0.2;stroke:#008000;stroke-linejoin:miter;stroke-width:2;"/>
   </g>
   <g id="patch_63">
    <path clip-path="url(#p7483685c70)" d="M 263.151375 157.180083 
C 266.923329 157.180083 270.541301 155.876729 273.208475 153.557069 
C 275.875649 151.23741 277.374262 148.090836 277.374262 144.810342 
C 277.374262 141.529848 275.875649 138.383274 273.208475 136.063615 
C 270.541301 133.743955 266.923329 132.440601 263.151375 132.440601 
C 259.379421 132.440601 255.761449 133.743955 253.094274 136.063615 
C 250.4271 138.383274 248.928487 141.529848 248.928487 144.810342 
C 248.928487 148.090836 250.4271 151.23741 253.094274 153.557069 
C 255.761449 155.876729 259.379421 157.180083 263.151375 157.180083 
z
" style="fill:none;opacity:0.2;stroke:#008000;stroke-linejoin:miter;stroke-width:2;"/>
   </g>
   <g id="patch_64">
    <path d="M 267.773813 141.717907 
Q 322.887503 85.744831 378.001193 29.771755 
" style="fill:none;opacity:0.5;stroke:#008000;stroke-linecap:round;stroke-width:2;"/>
   </g>
   <g id="patch_65">
    <path d="M 271.220825 139.411838 
Q 268.605536 141.16148 265.990247 142.911122 
" style="fill:none;opacity:0.5;stroke:#800080;stroke-linecap:round;stroke-width:2;"/>
    <path d="M 269.140029 138.999178 
L 271.220825 139.411838 
L 270.808165 141.492634 
" style="fill:none;opacity:0.5;stroke:#800080;stroke-linecap:round;stroke-width:2;"/>
    <path d="M 268.071043 143.323782 
L 265.990247 142.911122 
L 266.402908 140.830326 
" style="fill:none;opacity:0.5;stroke:#800080;stroke-linecap:round;stroke-width:2;"/>
   </g>
   <g id="patch_66">
    <path d="M 378.001193 29.771755 
Q 394.357514 39.358304 410.713835 48.944853 
" style="fill:none;opacity:0.5;stroke:#008000;stroke-linecap:round;stroke-width:2;"/>
   </g>
   <g id="patch_67">
    <path d="M 384.76514 29.771755 
Q 379.001501 29.771755 373.237861 29.771755 
" style="fill:none;opacity:0.5;stroke:#800080;stroke-linecap:round;stroke-width:2;"/>
    <path d="M 383.26514 28.271755 
L 384.76514 29.771755 
L 383.26514 31.271755 
" style="fill:none;opacity:0.5;stroke:#800080;stroke-linecap:round;stroke-width:2;"/>
    <path d="M 374.737861 31.271755 
L 373.237861 29.771755 
L 374.737861 28.271755 
" style="fill:none;opacity:0.5;stroke:#800080;stroke-linecap:round;stroke-width:2;"/>
   </g>
   <g id="line2d_1">
    <path clip-path="url(#p7483685c70)" d="M 426.003439 52.037288 
L 275.240829 288.299332 
L 242.528188 304.379995 
L 209.815546 288.299332 
L 59.052936 52.037288 
L 100.29931 29.771755 
L 214.082412 137.388498 
L 242.528188 160.891005 
L 272.396252 138.625472 
L 386.179354 29.771755 
" style="fill:none;stroke:#ff0000;stroke-linecap:square;stroke-width:0.2;"/>
   </g>
   <g id="line2d_2">
    <path clip-path="url(#p7483685c70)" d="M 118.07792 29.771755 
L 224.749578 144.810342 
L 263.151375 144.810342 
L 369.823033 29.771755 
L 395.424231 45.852418 
L 267.418241 264.796825 
L 220.482711 264.796825 
L 89.632144 45.852418 
" style="fill:none;stroke:#0000ff;stroke-linecap:square;stroke-width:0.2;"/>
   </g>
  </g>
 </g>
 <defs>
  <clipPath id="p7483685c70">
   <rect height="307.51175" width="409.903625" x="37.576375" y="13.32"/>
  </clipPath>
 </defs>
</svg>
