<?xml version="1.0" encoding="utf-8" standalone="no"?>
<!DOCTYPE svg PUBLIC "-//W3C//DTD SVG 1.1//EN"
  "http://www.w3.org/Graphics/SVG/1.1/DTD/svg11.dtd">
<!-- Created with matplotlib (http://matplotlib.org/) -->
<svg height="345.6pt" version="1.1" viewBox="0 0 460.8 345.6" width="460.8pt" xmlns="http://www.w3.org/2000/svg" xmlns:xlink="http://www.w3.org/1999/xlink">
 <defs>
  <style type="text/css">
*{stroke-linecap:butt;stroke-linejoin:round;}
  </style>
 </defs>
 <g id="figure_1">
  <g id="patch_1">
   <path d="M 0 345.6 
L 460.8 345.6 
L 460.8 0 
L 0 0 
z
" style="fill:#ffffff;"/>
  </g>
  <g id="axes_1">
   <g id="patch_2">
    <path clip-path="url(#p41f9083a66)" d="M 59.052936 284.58841 
C 59.807326 284.58841 60.530921 284.327739 61.064356 283.863808 
C 61.59779 283.399876 61.897513 282.770561 61.897513 282.114462 
C 61.897513 281.458363 61.59779 280.829048 61.064356 280.365117 
C 60.530921 279.901185 59.807326 279.640514 59.052936 279.640514 
C 58.298545 279.640514 57.57495 279.901185 57.041515 280.365117 
C 56.508081 280.829048 56.208358 281.458363 56.208358 282.114462 
C 56.208358 282.770561 56.508081 283.399876 57.041515 283.863808 
C 57.57495 284.327739 58.298545 284.58841 59.052936 284.58841 
z
" style="fill:#ff0000;opacity:0.2;stroke:#ff0000;stroke-linejoin:miter;stroke-width:2;"/>
   </g>
   <g id="patch_3">
    <path clip-path="url(#p41f9083a66)" d="M 209.815546 48.326366 
C 210.569936 48.326366 211.293531 48.065695 211.826966 47.601763 
C 212.360401 47.137831 212.660123 46.508516 212.660123 45.852418 
C 212.660123 45.196319 212.360401 44.567004 211.826966 44.103072 
C 211.293531 43.63914 210.569936 43.37847 209.815546 43.37847 
C 209.061155 43.37847 208.33756 43.63914 207.804126 44.103072 
C 207.270691 44.567004 206.970968 45.196319 206.970968 45.852418 
C 206.970968 46.508516 207.270691 47.137831 207.804126 47.601763 
C 208.33756 48.065695 209.061155 48.326366 209.815546 48.326366 
z
" style="fill:#ff0000;opacity:0.2;stroke:#ff0000;stroke-linejoin:miter;stroke-width:2;"/>
   </g>
   <g id="patch_4">
    <path clip-path="url(#p41f9083a66)" d="M 242.528188 32.245703 
C 243.282578 32.245703 244.006173 31.985032 244.539608 31.5211 
C 245.073042 31.057169 245.372765 30.427854 245.372765 29.771755 
C 245.372765 29.115656 245.073042 28.486341 244.539608 28.022409 
C 244.006173 27.558478 243.282578 27.297807 242.528188 27.297807 
C 241.773797 27.297807 241.050202 27.558478 240.516767 28.022409 
C 239.983333 28.486341 239.68361 29.115656 239.68361 29.771755 
C 239.68361 30.427854 239.983333 31.057169 240.516767 31.5211 
C 241.050202 31.985032 241.773797 32.245703 242.528188 32.245703 
z
" style="fill:#ff0000;opacity:0.2;stroke:#ff0000;stroke-linejoin:miter;stroke-width:2;"/>
   </g>
   <g id="patch_5">
    <path clip-path="url(#p41f9083a66)" d="M 275.240829 48.326366 
C 275.99522 48.326366 276.718815 48.065695 277.252249 47.601763 
C 277.785684 47.137831 278.085407 46.508516 278.085407 45.852418 
C 278.085407 45.196319 277.785684 44.567004 277.252249 44.103072 
C 276.718815 43.63914 275.99522 43.37847 275.240829 43.37847 
C 274.486439 43.37847 273.762844 43.63914 273.229409 44.103072 
C 272.695974 44.567004 272.396252 45.196319 272.396252 45.852418 
C 272.396252 46.508516 272.695974 47.137831 273.229409 47.601763 
C 273.762844 48.065695 274.486439 48.326366 275.240829 48.326366 
z
" style="fill:#ff0000;opacity:0.2;stroke:#ff0000;stroke-linejoin:miter;stroke-width:2;"/>
   </g>
   <g id="patch_6">
    <path clip-path="url(#p41f9083a66)" d="M 426.003439 284.58841 
C 426.75783 284.58841 427.481425 284.327739 428.01486 283.863808 
C 428.548294 283.399876 428.848017 282.770561 428.848017 282.114462 
C 428.848017 281.458363 428.548294 280.829048 428.01486 280.365117 
C 427.481425 279.901185 426.75783 279.640514 426.003439 279.640514 
C 425.249049 279.640514 424.525454 279.901185 423.992019 280.365117 
C 423.458585 280.829048 423.158862 281.458363 423.158862 282.114462 
C 423.158862 282.770561 423.458585 283.399876 423.992019 283.863808 
C 424.525454 284.327739 425.249049 284.58841 426.003439 284.58841 
z
" style="fill:#ff0000;opacity:0.2;stroke:#ff0000;stroke-linejoin:miter;stroke-width:2;"/>
   </g>
   <g id="patch_7">
    <path clip-path="url(#p41f9083a66)" d="M 384.757065 306.853943 
C 385.511456 306.853943 386.23505 306.593272 386.768485 306.129341 
C 387.30192 305.665409 387.601643 305.036094 387.601643 304.379995 
C 387.601643 303.723896 387.30192 303.094581 386.768485 302.63065 
C 386.23505 302.166718 385.511456 301.906047 384.757065 301.906047 
C 384.002674 301.906047 383.27908 302.166718 382.745645 302.63065 
C 382.21221 303.094581 381.912487 303.723896 381.912487 304.379995 
C 381.912487 305.036094 382.21221 305.665409 382.745645 306.129341 
C 383.27908 306.593272 384.002674 306.853943 384.757065 306.853943 
z
" style="fill:#ff0000;opacity:0.2;stroke:#ff0000;stroke-linejoin:miter;stroke-width:2;"/>
   </g>
   <g id="patch_8">
    <path clip-path="url(#p41f9083a66)" d="M 270.973963 199.2372 
C 271.728354 199.2372 272.451948 198.97653 272.985383 198.512598 
C 273.518818 198.048666 273.818541 197.419351 273.818541 196.763252 
C 273.818541 196.107154 273.518818 195.477839 272.985383 195.013907 
C 272.451948 194.549975 271.728354 194.289304 270.973963 194.289304 
C 270.219572 194.289304 269.495978 194.549975 268.962543 195.013907 
C 268.429108 195.477839 268.129385 196.107154 268.129385 196.763252 
C 268.129385 197.419351 268.429108 198.048666 268.962543 198.512598 
C 269.495978 198.97653 270.219572 199.2372 270.973963 199.2372 
z
" style="fill:#ff0000;opacity:0.2;stroke:#ff0000;stroke-linejoin:miter;stroke-width:2;"/>
   </g>
   <g id="patch_9">
    <path clip-path="url(#p41f9083a66)" d="M 242.528188 175.734693 
C 243.282578 175.734693 244.006173 175.474023 244.539608 175.010091 
C 245.073042 174.546159 245.372765 173.916844 245.372765 173.260745 
C 245.372765 172.604647 245.073042 171.975332 244.539608 171.5114 
C 244.006173 171.047468 243.282578 170.786797 242.528188 170.786797 
C 241.773797 170.786797 241.050202 171.047468 240.516767 171.5114 
C 239.983333 171.975332 239.68361 172.604647 239.68361 173.260745 
C 239.68361 173.916844 239.983333 174.546159 240.516767 175.010091 
C 241.050202 175.474023 241.773797 175.734693 242.528188 175.734693 
z
" style="fill:#ff0000;opacity:0.2;stroke:#ff0000;stroke-linejoin:miter;stroke-width:2;"/>
   </g>
   <g id="patch_10">
    <path clip-path="url(#p41f9083a66)" d="M 212.660123 198.000226 
C 213.414514 198.000226 214.138108 197.739556 214.671543 197.275624 
C 215.204978 196.811692 215.504701 196.182377 215.504701 195.526278 
C 215.504701 194.87018 215.204978 194.240865 214.671543 193.776933 
C 214.138108 193.313001 213.414514 193.05233 212.660123 193.05233 
C 211.905732 193.05233 211.182138 193.313001 210.648703 193.776933 
C 210.115268 194.240865 209.815546 194.87018 209.815546 195.526278 
C 209.815546 196.182377 210.115268 196.811692 210.648703 197.275624 
C 211.182138 197.739556 211.905732 198.000226 212.660123 198.000226 
z
" style="fill:#ff0000;opacity:0.2;stroke:#ff0000;stroke-linejoin:miter;stroke-width:2;"/>
   </g>
   <g id="patch_11">
    <path clip-path="url(#p41f9083a66)" d="M 98.877021 306.853943 
C 99.631412 306.853943 100.355006 306.593272 100.888441 306.129341 
C 101.421876 305.665409 101.721599 305.036094 101.721599 304.379995 
C 101.721599 303.723896 101.421876 303.094581 100.888441 302.63065 
C 100.355006 302.166718 99.631412 301.906047 98.877021 301.906047 
C 98.12263 301.906047 97.399036 302.166718 96.865601 302.63065 
C 96.332166 303.094581 96.032444 303.723896 96.032444 304.379995 
C 96.032444 305.036094 96.332166 305.665409 96.865601 306.129341 
C 97.399036 306.593272 98.12263 306.853943 98.877021 306.853943 
z
" style="fill:#ff0000;opacity:0.2;stroke:#ff0000;stroke-linejoin:miter;stroke-width:2;"/>
   </g>
   <g id="patch_12">
    <path clip-path="url(#p41f9083a66)" d="M 364.845022 304.379995 
C 365.599413 304.379995 366.323007 304.119324 366.856442 303.655392 
C 367.389877 303.191461 367.6896 302.562146 367.6896 301.906047 
C 367.6896 301.249948 367.389877 300.620633 366.856442 300.156701 
C 366.323007 299.69277 365.599413 299.432099 364.845022 299.432099 
C 364.090631 299.432099 363.367037 299.69277 362.833602 300.156701 
C 362.300167 300.620633 362.000445 301.249948 362.000445 301.906047 
C 362.000445 302.562146 362.300167 303.191461 362.833602 303.655392 
C 363.367037 304.119324 364.090631 304.379995 364.845022 304.379995 
z
" style="fill:#0000ff;opacity:0.2;stroke:#0000ff;stroke-linejoin:miter;stroke-width:2;"/>
   </g>
   <g id="patch_13">
    <path clip-path="url(#p41f9083a66)" d="M 261.017942 190.578382 
C 261.772332 190.578382 262.495927 190.317711 263.029362 189.853779 
C 263.562796 189.389848 263.862519 188.760533 263.862519 188.104434 
C 263.862519 187.448335 263.562796 186.81902 263.029362 186.355088 
C 262.495927 185.891157 261.772332 185.630486 261.017942 185.630486 
C 260.263551 185.630486 259.539956 185.891157 259.006522 186.355088 
C 258.473087 186.81902 258.173364 187.448335 258.173364 188.104434 
C 258.173364 188.760533 258.473087 189.389848 259.006522 189.853779 
C 259.539956 190.317711 260.263551 190.578382 261.017942 190.578382 
z
" style="fill:#0000ff;opacity:0.2;stroke:#0000ff;stroke-linejoin:miter;stroke-width:2;"/>
   </g>
   <g id="patch_14">
    <path clip-path="url(#p41f9083a66)" d="M 222.616145 190.578382 
C 223.370535 190.578382 224.09413 190.317711 224.627565 189.853779 
C 225.161 189.389848 225.460722 188.760533 225.460722 188.104434 
C 225.460722 187.448335 225.161 186.81902 224.627565 186.355088 
C 224.09413 185.891157 223.370535 185.630486 222.616145 185.630486 
C 221.861754 185.630486 221.138159 185.891157 220.604725 186.355088 
C 220.07129 186.81902 219.771567 187.448335 219.771567 188.104434 
C 219.771567 188.760533 220.07129 189.389848 220.604725 189.853779 
C 221.138159 190.317711 221.861754 190.578382 222.616145 190.578382 
z
" style="fill:#0000ff;opacity:0.2;stroke:#0000ff;stroke-linejoin:miter;stroke-width:2;"/>
   </g>
   <g id="patch_15">
    <path clip-path="url(#p41f9083a66)" d="M 117.366775 304.379995 
C 118.121166 304.379995 118.844761 304.119324 119.378195 303.655392 
C 119.91163 303.191461 120.211353 302.562146 120.211353 301.906047 
C 120.211353 301.249948 119.91163 300.620633 119.378195 300.156701 
C 118.844761 299.69277 118.121166 299.432099 117.366775 299.432099 
C 116.612385 299.432099 115.88879 299.69277 115.355355 300.156701 
C 114.82192 300.620633 114.522198 301.249948 114.522198 301.906047 
C 114.522198 302.562146 114.82192 303.191461 115.355355 303.655392 
C 115.88879 304.119324 116.612385 304.379995 117.366775 304.379995 
z
" style="fill:#0000ff;opacity:0.2;stroke:#0000ff;stroke-linejoin:miter;stroke-width:2;"/>
   </g>
   <g id="patch_16">
    <path clip-path="url(#p41f9083a66)" d="M 88.921 293.247229 
C 89.675391 293.247229 90.398985 292.986558 90.93242 292.522626 
C 91.465855 292.058694 91.765577 291.429379 91.765577 290.77328 
C 91.765577 290.117182 91.465855 289.487867 90.93242 289.023935 
C 90.398985 288.560003 89.675391 288.299332 88.921 288.299332 
C 88.166609 288.299332 87.443015 288.560003 86.90958 289.023935 
C 86.376145 289.487867 86.076422 290.117182 86.076422 290.77328 
C 86.076422 291.429379 86.376145 292.058694 86.90958 292.522626 
C 87.443015 292.986558 88.166609 293.247229 88.921 293.247229 
z
" style="fill:#0000ff;opacity:0.2;stroke:#0000ff;stroke-linejoin:miter;stroke-width:2;"/>
   </g>
   <g id="patch_17">
    <path clip-path="url(#p41f9083a66)" d="M 216.92699 74.302821 
C 217.68138 74.302821 218.404975 74.04215 218.93841 73.578218 
C 219.471844 73.114286 219.771567 72.484971 219.771567 71.828873 
C 219.771567 71.172774 219.471844 70.543459 218.93841 70.079527 
C 218.404975 69.615595 217.68138 69.354925 216.92699 69.354925 
C 216.172599 69.354925 215.449004 69.615595 214.915569 70.079527 
C 214.382135 70.543459 214.082412 71.172774 214.082412 71.828873 
C 214.082412 72.484971 214.382135 73.114286 214.915569 73.578218 
C 215.449004 74.04215 216.172599 74.302821 216.92699 74.302821 
z
" style="fill:#0000ff;opacity:0.2;stroke:#0000ff;stroke-linejoin:miter;stroke-width:2;"/>
   </g>
   <g id="patch_18">
    <path clip-path="url(#p41f9083a66)" d="M 266.707097 74.302821 
C 267.461487 74.302821 268.185082 74.04215 268.718517 73.578218 
C 269.251952 73.114286 269.551674 72.484971 269.551674 71.828873 
C 269.551674 71.172774 269.251952 70.543459 268.718517 70.079527 
C 268.185082 69.615595 267.461487 69.354925 266.707097 69.354925 
C 265.952706 69.354925 265.229111 69.615595 264.695677 70.079527 
C 264.162242 70.543459 263.862519 71.172774 263.862519 71.828873 
C 263.862519 72.484971 264.162242 73.114286 264.695677 73.578218 
C 265.229111 74.04215 265.952706 74.302821 266.707097 74.302821 
z
" style="fill:#0000ff;opacity:0.2;stroke:#0000ff;stroke-linejoin:miter;stroke-width:2;"/>
   </g>
   <g id="patch_19">
    <path clip-path="url(#p41f9083a66)" d="M 396.135375 293.247229 
C 396.889766 293.247229 397.61336 292.986558 398.146795 292.522626 
C 398.68023 292.058694 398.979953 291.429379 398.979953 290.77328 
C 398.979953 290.117182 398.68023 289.487867 398.146795 289.023935 
C 397.61336 288.560003 396.889766 288.299332 396.135375 288.299332 
C 395.380984 288.299332 394.65739 288.560003 394.123955 289.023935 
C 393.59052 289.487867 393.290798 290.117182 393.290798 290.77328 
C 393.290798 291.429379 393.59052 292.058694 394.123955 292.522626 
C 394.65739 292.986558 395.380984 293.247229 396.135375 293.247229 
z
" style="fill:#0000ff;opacity:0.2;stroke:#0000ff;stroke-linejoin:miter;stroke-width:2;"/>
   </g>
   <g id="patch_20">
    <path clip-path="url(#p41f9083a66)" d="M 59.052936 282.114462 
L 209.815546 45.852418 
C 218.349278 32.245703 225.460722 29.771755 242.528188 29.771755 
C 259.595653 29.771755 266.707097 32.245703 275.240829 45.852418 
L 426.003439 282.114462 
C 418.891996 296.958151 400.402242 303.143021 384.757065 304.379995 
L 270.973963 196.763252 
C 253.906498 180.68259 246.795054 173.260745 242.528188 173.260745 
C 238.261321 173.260745 228.3053 180.68259 212.660123 195.526278 
L 98.877021 304.379995 
C 84.654133 303.143021 66.164379 296.958151 59.052936 282.114462 
" style="fill:none;stroke:#ff0000;stroke-linejoin:miter;stroke-width:0.5;"/>
   </g>
   <g id="patch_21">
    <path clip-path="url(#p41f9083a66)" d="M 364.845022 301.906047 
L 261.017942 188.104434 
C 243.950476 169.549823 239.68361 169.549823 222.616145 188.104434 
L 117.366775 301.906047 
C 108.833043 304.379995 90.343289 298.195125 88.921 290.77328 
L 216.92699 71.828873 
C 232.572166 45.852418 251.06192 45.852418 266.707097 71.828873 
L 396.135375 290.77328 
C 394.713086 298.195125 371.956466 304.379995 364.845022 301.906047 
" style="fill:none;stroke:#0000ff;stroke-linejoin:miter;stroke-width:0.5;"/>
   </g>
   <g id="[&quot;g_s&quot;:1,&quot;g_t&quot;:5,&quot;coords&quot;:[[111.0, -227.0],[132.0, -234.0]],&quot;certainty&quot;:5]">
    <path clip-path="url(#p41f9083a66)" d="M 59.052936 285.825384 
C 60.184522 285.825384 61.269913 285.434378 62.070066 284.73848 
C 62.870218 284.042583 63.319802 283.09861 63.319802 282.114462 
C 63.319802 281.130314 62.870218 280.186342 62.070066 279.490444 
C 61.269913 278.794546 60.184522 278.40354 59.052936 278.40354 
C 57.921349 278.40354 56.835958 278.794546 56.035805 279.490444 
C 55.235653 280.186342 54.786069 281.130314 54.786069 282.114462 
C 54.786069 283.09861 55.235653 284.042583 56.035805 284.73848 
C 56.835958 285.434378 57.921349 285.825384 59.052936 285.825384 
z
" style="fill:#0000ff;opacity:0.2;stroke:#0000ff;stroke-linejoin:miter;stroke-width:2;"/>
   </g>
   <g id="[&quot;g_s&quot;:5,&quot;g_t&quot;:1,&quot;coords&quot;:[[132.0, -234.0],[111.0, -227.0]],&quot;certainty&quot;:5]">
    <path clip-path="url(#p41f9083a66)" d="M 88.921 294.484203 
C 90.052586 294.484203 91.137978 294.093196 91.93813 293.397299 
C 92.738282 292.701401 93.187866 291.757429 93.187866 290.77328 
C 93.187866 289.789132 92.738282 288.84516 91.93813 288.149262 
C 91.137978 287.453364 90.052586 287.062358 88.921 287.062358 
C 87.789414 287.062358 86.704022 287.453364 85.90387 288.149262 
C 85.103717 288.84516 84.654133 289.789132 84.654133 290.77328 
C 84.654133 291.757429 85.103717 292.701401 85.90387 293.397299 
C 86.704022 294.093196 87.789414 294.484203 88.921 294.484203 
z
" style="fill:#ff0000;opacity:0.2;stroke:#ff0000;stroke-linejoin:miter;stroke-width:2;"/>
   </g>
   <g id="patch_22">
    <path d="M 59.052936 282.114462 
Q 73.026246 286.165356 85.98084 289.920922 
" style="fill:none;opacity:0.5;stroke:#0000ff;stroke-linecap:round;stroke-width:1.5;"/>
    <path d="M 84.957815 288.062584 
L 85.98084 289.920922 
L 84.122502 290.943946 
" style="fill:none;opacity:0.5;stroke:#0000ff;stroke-linecap:round;stroke-width:1.5;"/>
   </g>
   <g id="[&quot;g_s&quot;:2,&quot;g_t&quot;:6,&quot;coords&quot;:[[217.0, -36.0],[222.0, -57.0]],&quot;certainty&quot;:9]">
    <path clip-path="url(#p41f9083a66)" d="M 209.815546 52.037288 
C 211.701523 52.037288 213.510509 51.385611 214.844096 50.225781 
C 216.177683 49.065952 216.92699 47.492664 216.92699 45.852418 
C 216.92699 44.212171 216.177683 42.638884 214.844096 41.479054 
C 213.510509 40.319224 211.701523 39.667547 209.815546 39.667547 
C 207.929569 39.667547 206.120583 40.319224 204.786995 41.479054 
C 203.453408 42.638884 202.704102 44.212171 202.704102 45.852418 
C 202.704102 47.492664 203.453408 49.065952 204.786995 50.225781 
C 206.120583 51.385611 207.929569 52.037288 209.815546 52.037288 
z
" style="fill:#0000ff;opacity:0.2;stroke:#0000ff;stroke-linejoin:miter;stroke-width:2;"/>
   </g>
   <g id="[&quot;g_s&quot;:6,&quot;g_t&quot;:2,&quot;coords&quot;:[[222.0, -57.0],[217.0, -36.0]],&quot;certainty&quot;:9]">
    <path clip-path="url(#p41f9083a66)" d="M 216.92699 78.013743 
C 218.812967 78.013743 220.621953 77.362066 221.95554 76.202236 
C 223.289127 75.042407 224.038433 73.46912 224.038433 71.828873 
C 224.038433 70.188626 223.289127 68.615339 221.95554 67.455509 
C 220.621953 66.295679 218.812967 65.644003 216.92699 65.644003 
C 215.041013 65.644003 213.232026 66.295679 211.898439 67.455509 
C 210.564852 68.615339 209.815546 70.188626 209.815546 71.828873 
C 209.815546 73.46912 210.564852 75.042407 211.898439 76.202236 
C 213.232026 77.362066 215.041013 78.013743 216.92699 78.013743 
z
" style="fill:#ff0000;opacity:0.2;stroke:#ff0000;stroke-linejoin:miter;stroke-width:2;"/>
   </g>
   <g id="patch_23">
    <path d="M 209.815546 45.852418 
Q 213.106932 57.87509 215.931542 68.192734 
" style="fill:none;opacity:0.5;stroke:#0000ff;stroke-linecap:round;stroke-width:2.5;"/>
    <path d="M 216.982233 66.349897 
L 215.931542 68.192734 
L 214.088705 67.142043 
" style="fill:none;opacity:0.5;stroke:#0000ff;stroke-linecap:round;stroke-width:2.5;"/>
   </g>
   <g id="[&quot;g_s&quot;:3,&quot;g_t&quot;:6,&quot;coords&quot;:[[240.0, -23.0],[222.0, -57.0]],&quot;certainty&quot;:6]">
    <path clip-path="url(#p41f9083a66)" d="M 242.528188 34.101164 
C 243.848371 34.101164 245.114662 33.64499 246.048173 32.83311 
C 246.981684 32.021229 247.506198 30.919928 247.506198 29.771755 
C 247.506198 28.623582 246.981684 27.522281 246.048173 26.7104 
C 245.114662 25.89852 243.848371 25.442346 242.528188 25.442346 
C 241.208004 25.442346 239.941713 25.89852 239.008202 26.7104 
C 238.074691 27.522281 237.550177 28.623582 237.550177 29.771755 
C 237.550177 30.919928 238.074691 32.021229 239.008202 32.83311 
C 239.941713 33.64499 241.208004 34.101164 242.528188 34.101164 
z
" style="fill:#0000ff;opacity:0.2;stroke:#0000ff;stroke-linejoin:miter;stroke-width:2;"/>
   </g>
   <g id="[&quot;g_s&quot;:6,&quot;g_t&quot;:3,&quot;coords&quot;:[[222.0, -57.0],[240.0, -23.0]],&quot;certainty&quot;:6]">
    <path clip-path="url(#p41f9083a66)" d="M 216.92699 76.158282 
C 218.247173 76.158282 219.513464 75.702108 220.446975 74.890227 
C 221.380486 74.078347 221.905 72.977046 221.905 71.828873 
C 221.905 70.6807 221.380486 69.579399 220.446975 68.767518 
C 219.513464 67.955637 218.247173 67.499464 216.92699 67.499464 
C 215.606806 67.499464 214.340515 67.955637 213.407004 68.767518 
C 212.473493 69.579399 211.948979 70.6807 211.948979 71.828873 
C 211.948979 72.977046 212.473493 74.078347 213.407004 74.890227 
C 214.340515 75.702108 215.606806 76.158282 216.92699 76.158282 
z
" style="fill:#ff0000;opacity:0.2;stroke:#ff0000;stroke-linejoin:miter;stroke-width:2;"/>
   </g>
   <g id="patch_24">
    <path d="M 242.528188 29.771755 
Q 230.247144 49.946799 218.609524 69.064839 
" style="fill:none;opacity:0.5;stroke:#0000ff;stroke-linecap:round;stroke-width:1.75;"/>
    <path d="M 220.670753 68.563505 
L 218.609524 69.064839 
L 218.10819 67.003611 
" style="fill:none;opacity:0.5;stroke:#0000ff;stroke-linecap:round;stroke-width:1.75;"/>
   </g>
   <g id="[&quot;g_s&quot;:4,&quot;g_t&quot;:7,&quot;coords&quot;:[[263.0, -36.0],[257.0, -57.0]],&quot;certainty&quot;:5]">
    <path clip-path="url(#p41f9083a66)" d="M 275.240829 49.56334 
C 276.372416 49.56334 277.457807 49.172334 278.257959 48.476436 
C 279.058112 47.780538 279.507696 46.836566 279.507696 45.852418 
C 279.507696 44.86827 279.058112 43.924297 278.257959 43.228399 
C 277.457807 42.532502 276.372416 42.141495 275.240829 42.141495 
C 274.109243 42.141495 273.023851 42.532502 272.223699 43.228399 
C 271.423547 43.924297 270.973963 44.86827 270.973963 45.852418 
C 270.973963 46.836566 271.423547 47.780538 272.223699 48.476436 
C 273.023851 49.172334 274.109243 49.56334 275.240829 49.56334 
z
" style="fill:#0000ff;opacity:0.2;stroke:#0000ff;stroke-linejoin:miter;stroke-width:2;"/>
   </g>
   <g id="[&quot;g_s&quot;:7,&quot;g_t&quot;:4,&quot;coords&quot;:[[257.0, -57.0],[263.0, -36.0]],&quot;certainty&quot;:5]">
    <path clip-path="url(#p41f9083a66)" d="M 266.707097 75.539795 
C 267.838683 75.539795 268.924075 75.148789 269.724227 74.452891 
C 270.524379 73.756993 270.973963 72.813021 270.973963 71.828873 
C 270.973963 70.844725 270.524379 69.900752 269.724227 69.204855 
C 268.924075 68.508957 267.838683 68.117951 266.707097 68.117951 
C 265.575511 68.117951 264.490119 68.508957 263.689967 69.204855 
C 262.889814 69.900752 262.44023 70.844725 262.44023 71.828873 
C 262.44023 72.813021 262.889814 73.756993 263.689967 74.452891 
C 264.490119 75.148789 265.575511 75.539795 266.707097 75.539795 
z
" style="fill:#ff0000;opacity:0.2;stroke:#ff0000;stroke-linejoin:miter;stroke-width:2;"/>
   </g>
   <g id="patch_25">
    <path d="M 275.240829 45.852418 
Q 271.285957 57.890944 267.662124 68.921795 
" style="fill:none;opacity:0.5;stroke:#0000ff;stroke-linecap:round;stroke-width:1.5;"/>
    <path d="M 269.555356 67.964886 
L 267.662124 68.921795 
L 266.705215 67.028563 
" style="fill:none;opacity:0.5;stroke:#0000ff;stroke-linecap:round;stroke-width:1.5;"/>
   </g>
   <g id="[&quot;g_s&quot;:5,&quot;g_t&quot;:8,&quot;coords&quot;:[[369.0, -227.0],[348.0, -234.0]],&quot;certainty&quot;:11]">
    <path clip-path="url(#p41f9083a66)" d="M 426.003439 289.536306 
C 428.266612 289.536306 430.437395 288.754294 432.0377 287.362499 
C 433.638004 285.970703 434.537172 284.082758 434.537172 282.114462 
C 434.537172 280.146166 433.638004 278.258221 432.0377 276.866426 
C 430.437395 275.47463 428.266612 274.692618 426.003439 274.692618 
C 423.740267 274.692618 421.569484 275.47463 419.969179 276.866426 
C 418.368875 278.258221 417.469707 280.146166 417.469707 282.114462 
C 417.469707 284.082758 418.368875 285.970703 419.969179 287.362499 
C 421.569484 288.754294 423.740267 289.536306 426.003439 289.536306 
z
" style="fill:#0000ff;opacity:0.2;stroke:#0000ff;stroke-linejoin:miter;stroke-width:2;"/>
   </g>
   <g id="[&quot;g_s&quot;:8,&quot;g_t&quot;:5,&quot;coords&quot;:[[348.0, -234.0],[369.0, -227.0]],&quot;certainty&quot;:11]">
    <path clip-path="url(#p41f9083a66)" d="M 396.135375 298.195125 
C 398.398548 298.195125 400.569331 297.413112 402.169635 296.021317 
C 403.76994 294.629521 404.669108 292.741577 404.669108 290.77328 
C 404.669108 288.804984 403.76994 286.91704 402.169635 285.525244 
C 400.569331 284.133448 398.398548 283.351436 396.135375 283.351436 
C 393.872203 283.351436 391.70142 284.133448 390.101115 285.525244 
C 388.50081 286.91704 387.601643 288.804984 387.601643 290.77328 
C 387.601643 292.741577 388.50081 294.629521 390.101115 296.021317 
C 391.70142 297.413112 393.872203 298.195125 396.135375 298.195125 
z
" style="fill:#ff0000;opacity:0.2;stroke:#ff0000;stroke-linejoin:miter;stroke-width:2;"/>
   </g>
   <g id="patch_26">
    <path d="M 426.003439 282.114462 
Q 412.030129 286.165356 400.09425 289.625594 
" style="fill:none;opacity:0.5;stroke:#0000ff;stroke-linecap:round;stroke-width:3;"/>
    <path d="M 401.952589 290.648618 
L 400.09425 289.625594 
L 401.117275 287.767256 
" style="fill:none;opacity:0.5;stroke:#0000ff;stroke-linecap:round;stroke-width:3;"/>
   </g>
   <g id="[&quot;g_s&quot;:6,&quot;g_t&quot;:1,&quot;coords&quot;:[[340.0, -245.0],[326.0, -243.0]],&quot;certainty&quot;:8]">
    <path clip-path="url(#p41f9083a66)" d="M 384.757065 309.946378 
C 386.454444 309.946378 388.082532 309.359869 389.28276 308.316022 
C 390.482989 307.272176 391.157365 305.856217 391.157365 304.379995 
C 391.157365 302.903773 390.482989 301.487814 389.28276 300.443968 
C 388.082532 299.400121 386.454444 298.813612 384.757065 298.813612 
C 383.059686 298.813612 381.431598 299.400121 380.23137 300.443968 
C 379.031141 301.487814 378.356766 302.903773 378.356766 304.379995 
C 378.356766 305.856217 379.031141 307.272176 380.23137 308.316022 
C 381.431598 309.359869 383.059686 309.946378 384.757065 309.946378 
z
" style="fill:#0000ff;opacity:0.2;stroke:#0000ff;stroke-linejoin:miter;stroke-width:2;"/>
   </g>
   <g id="[&quot;g_s&quot;:1,&quot;g_t&quot;:6,&quot;coords&quot;:[[326.0, -243.0],[340.0, -245.0]],&quot;certainty&quot;:8]">
    <path clip-path="url(#p41f9083a66)" d="M 364.845022 307.47243 
C 366.542401 307.47243 368.170489 306.885921 369.370717 305.842074 
C 370.570946 304.798228 371.245322 303.382269 371.245322 301.906047 
C 371.245322 300.429825 370.570946 299.013866 369.370717 297.97002 
C 368.170489 296.926173 366.542401 296.339664 364.845022 296.339664 
C 363.147643 296.339664 361.519555 296.926173 360.319327 297.97002 
C 359.119099 299.013866 358.444723 300.429825 358.444723 301.906047 
C 358.444723 303.382269 359.119099 304.798228 360.319327 305.842074 
C 361.519555 306.885921 363.147643 307.47243 364.845022 307.47243 
z
" style="fill:#ff0000;opacity:0.2;stroke:#ff0000;stroke-linejoin:miter;stroke-width:2;"/>
   </g>
   <g id="patch_27">
    <path d="M 384.757065 304.379995 
Q 375.795187 303.266537 368.412161 302.349242 
" style="fill:none;opacity:0.5;stroke:#0000ff;stroke-linecap:round;stroke-width:2.25;"/>
    <path d="M 369.715772 304.022741 
L 368.412161 302.349242 
L 370.085659 301.045631 
" style="fill:none;opacity:0.5;stroke:#0000ff;stroke-linecap:round;stroke-width:2.25;"/>
   </g>
   <g id="[&quot;g_s&quot;:7,&quot;g_t&quot;:2,&quot;coords&quot;:[[260.0, -158.0],[253.0, -151.0]],&quot;certainty&quot;:6]">
    <path clip-path="url(#p41f9083a66)" d="M 270.973963 201.092662 
C 272.294147 201.092662 273.560437 200.636488 274.493948 199.824607 
C 275.427459 199.012726 275.951974 197.911425 275.951974 196.763252 
C 275.951974 195.61508 275.427459 194.513778 274.493948 193.701898 
C 273.560437 192.890017 272.294147 192.433843 270.973963 192.433843 
C 269.653779 192.433843 268.387489 192.890017 267.453978 193.701898 
C 266.520467 194.513778 265.995952 195.61508 265.995952 196.763252 
C 265.995952 197.911425 266.520467 199.012726 267.453978 199.824607 
C 268.387489 200.636488 269.653779 201.092662 270.973963 201.092662 
z
" style="fill:#0000ff;opacity:0.2;stroke:#0000ff;stroke-linejoin:miter;stroke-width:2;"/>
   </g>
   <g id="[&quot;g_s&quot;:2,&quot;g_t&quot;:7,&quot;coords&quot;:[[253.0, -151.0],[260.0, -158.0]],&quot;certainty&quot;:6]">
    <path clip-path="url(#p41f9083a66)" d="M 261.017942 192.433843 
C 262.338125 192.433843 263.604416 191.977669 264.537927 191.165789 
C 265.471438 190.353908 265.995952 189.252607 265.995952 188.104434 
C 265.995952 186.956261 265.471438 185.85496 264.537927 185.043079 
C 263.604416 184.231199 262.338125 183.775025 261.017942 183.775025 
C 259.697758 183.775025 258.431467 184.231199 257.497956 185.043079 
C 256.564445 185.85496 256.039931 186.956261 256.039931 188.104434 
C 256.039931 189.252607 256.564445 190.353908 257.497956 191.165789 
C 258.431467 191.977669 259.697758 192.433843 261.017942 192.433843 
z
" style="fill:#ff0000;opacity:0.2;stroke:#ff0000;stroke-linejoin:miter;stroke-width:2;"/>
   </g>
   <g id="patch_28">
    <path d="M 270.973963 196.763252 
Q 266.750675 193.090231 263.461098 190.229264 
" style="fill:none;opacity:0.5;stroke:#0000ff;stroke-linecap:round;stroke-width:1.75;"/>
    <path d="M 263.608568 192.345452 
L 263.461098 190.229264 
L 265.577287 190.081794 
" style="fill:none;opacity:0.5;stroke:#0000ff;stroke-linecap:round;stroke-width:1.75;"/>
   </g>
   <g id="[&quot;g_s&quot;:8,&quot;g_t&quot;:2,&quot;coords&quot;:[[240.0, -139.0],[253.0, -151.0]],&quot;certainty&quot;:3]">
    <path clip-path="url(#p41f9083a66)" d="M 242.528188 175.734693 
C 243.282578 175.734693 244.006173 175.474023 244.539608 175.010091 
C 245.073042 174.546159 245.372765 173.916844 245.372765 173.260745 
C 245.372765 172.604647 245.073042 171.975332 244.539608 171.5114 
C 244.006173 171.047468 243.282578 170.786797 242.528188 170.786797 
C 241.773797 170.786797 241.050202 171.047468 240.516767 171.5114 
C 239.983333 171.975332 239.68361 172.604647 239.68361 173.260745 
C 239.68361 173.916844 239.983333 174.546159 240.516767 175.010091 
C 241.050202 175.474023 241.773797 175.734693 242.528188 175.734693 
z
" style="fill:#0000ff;opacity:0.2;stroke:#0000ff;stroke-linejoin:miter;stroke-width:2;"/>
   </g>
   <g id="[&quot;g_s&quot;:2,&quot;g_t&quot;:8,&quot;coords&quot;:[[253.0, -151.0],[240.0, -139.0]],&quot;certainty&quot;:3]">
    <path clip-path="url(#p41f9083a66)" d="M 261.017942 190.578382 
C 261.772332 190.578382 262.495927 190.317711 263.029362 189.853779 
C 263.562796 189.389848 263.862519 188.760533 263.862519 188.104434 
C 263.862519 187.448335 263.562796 186.81902 263.029362 186.355088 
C 262.495927 185.891157 261.772332 185.630486 261.017942 185.630486 
C 260.263551 185.630486 259.539956 185.891157 259.006522 186.355088 
C 258.473087 186.81902 258.173364 187.448335 258.173364 188.104434 
C 258.173364 188.760533 258.473087 189.389848 259.006522 189.853779 
C 259.539956 190.317711 260.263551 190.578382 261.017942 190.578382 
z
" style="fill:#ff0000;opacity:0.2;stroke:#ff0000;stroke-linejoin:miter;stroke-width:2;"/>
   </g>
   <g id="patch_29">
    <path d="M 242.528188 173.260745 
Q 250.993254 180.056553 258.906918 186.409691 
" style="fill:none;opacity:0.5;stroke:#0000ff;stroke-linecap:round;"/>
    <path d="M 258.67626 184.300948 
L 258.906918 186.409691 
L 256.798175 186.640349 
" style="fill:none;opacity:0.5;stroke:#0000ff;stroke-linecap:round;"/>
   </g>
   <g id="[&quot;g_s&quot;:9,&quot;g_t&quot;:3,&quot;coords&quot;:[[219.0, -157.0],[226.0, -151.0]],&quot;certainty&quot;:7]">
    <path clip-path="url(#p41f9083a66)" d="M 212.660123 200.474174 
C 214.168905 200.474174 215.616094 199.952833 216.682963 199.024969 
C 217.749833 198.097106 218.349278 196.838476 218.349278 195.526278 
C 218.349278 194.214081 217.749833 192.955451 216.682963 192.027587 
C 215.616094 191.099724 214.168905 190.578382 212.660123 190.578382 
C 211.151342 190.578382 209.704153 191.099724 208.637283 192.027587 
C 207.570413 192.955451 206.970968 194.214081 206.970968 195.526278 
C 206.970968 196.838476 207.570413 198.097106 208.637283 199.024969 
C 209.704153 199.952833 211.151342 200.474174 212.660123 200.474174 
z
" style="fill:#0000ff;opacity:0.2;stroke:#0000ff;stroke-linejoin:miter;stroke-width:2;"/>
   </g>
   <g id="[&quot;g_s&quot;:3,&quot;g_t&quot;:9,&quot;coords&quot;:[[226.0, -151.0],[219.0, -157.0]],&quot;certainty&quot;:7]">
    <path clip-path="url(#p41f9083a66)" d="M 222.616145 193.05233 
C 224.124926 193.05233 225.572115 192.530989 226.638985 191.603125 
C 227.705854 190.675261 228.3053 189.416631 228.3053 188.104434 
C 228.3053 186.792237 227.705854 185.533607 226.638985 184.605743 
C 225.572115 183.677879 224.124926 183.156538 222.616145 183.156538 
C 221.107363 183.156538 219.660174 183.677879 218.593304 184.605743 
C 217.526435 185.533607 216.92699 186.792237 216.92699 188.104434 
C 216.92699 189.416631 217.526435 190.675261 218.593304 191.603125 
C 219.660174 192.530989 221.107363 193.05233 222.616145 193.05233 
z
" style="fill:#ff0000;opacity:0.2;stroke:#ff0000;stroke-linejoin:miter;stroke-width:2;"/>
   </g>
   <g id="patch_30">
    <path d="M 212.660123 195.526278 
Q 216.837228 192.412401 219.880498 190.143757 
" style="fill:none;opacity:0.5;stroke:#0000ff;stroke-linecap:round;stroke-width:2;"/>
    <path d="M 217.78138 189.837647 
L 219.880498 190.143757 
L 219.574388 192.242875 
" style="fill:none;opacity:0.5;stroke:#0000ff;stroke-linecap:round;stroke-width:2;"/>
   </g>
   <g id="[&quot;g_s&quot;:10,&quot;g_t&quot;:4,&quot;coords&quot;:[[139.0, -245.0],[152.0, -243.0]],&quot;certainty&quot;:5]">
    <path clip-path="url(#p41f9083a66)" d="M 98.877021 308.090917 
C 100.008607 308.090917 101.093999 307.699911 101.894151 307.004013 
C 102.694304 306.308116 103.143888 305.364143 103.143888 304.379995 
C 103.143888 303.395847 102.694304 302.451875 101.894151 301.755977 
C 101.093999 301.060079 100.008607 300.669073 98.877021 300.669073 
C 97.745435 300.669073 96.660043 301.060079 95.859891 301.755977 
C 95.059739 302.451875 94.610155 303.395847 94.610155 304.379995 
C 94.610155 305.364143 95.059739 306.308116 95.859891 307.004013 
C 96.660043 307.699911 97.745435 308.090917 98.877021 308.090917 
z
" style="fill:#0000ff;opacity:0.2;stroke:#0000ff;stroke-linejoin:miter;stroke-width:2;"/>
   </g>
   <g id="[&quot;g_s&quot;:4,&quot;g_t&quot;:10,&quot;coords&quot;:[[152.0, -243.0],[139.0, -245.0]],&quot;certainty&quot;:5]">
    <path clip-path="url(#p41f9083a66)" d="M 117.366775 305.616969 
C 118.498361 305.616969 119.583753 305.225963 120.383905 304.530065 
C 121.184058 303.834167 121.633642 302.890195 121.633642 301.906047 
C 121.633642 300.921899 121.184058 299.977927 120.383905 299.282029 
C 119.583753 298.586131 118.498361 298.195125 117.366775 298.195125 
C 116.235189 298.195125 115.149797 298.586131 114.349645 299.282029 
C 113.549493 299.977927 113.099909 300.921899 113.099909 301.906047 
C 113.099909 302.890195 113.549493 303.834167 114.349645 304.530065 
C 115.149797 305.225963 116.235189 305.616969 117.366775 305.616969 
z
" style="fill:#ff0000;opacity:0.2;stroke:#ff0000;stroke-linejoin:miter;stroke-width:2;"/>
   </g>
   <g id="patch_31">
    <path d="M 98.877021 304.379995 
Q 107.131053 303.275597 114.333794 302.311863 
" style="fill:none;opacity:0.5;stroke:#0000ff;stroke-linecap:round;stroke-width:1.5;"/>
    <path d="M 112.648115 301.024041 
L 114.333794 302.311863 
L 113.045972 303.997542 
" style="fill:none;opacity:0.5;stroke:#0000ff;stroke-linecap:round;stroke-width:1.5;"/>
   </g>
   <g id="[&quot;g_s&quot;:1,&quot;g_t&quot;:6,&quot;coords&quot;:[[326.0, -243.0],[340.0, -245.0]],&quot;certainty&quot;:6]">
    <path clip-path="url(#p41f9083a66)" d="M 364.845022 306.235456 
C 366.165206 306.235456 367.431496 305.779282 368.365007 304.967402 
C 369.298518 304.155521 369.823033 303.05422 369.823033 301.906047 
C 369.823033 300.757874 369.298518 299.656573 368.365007 298.844692 
C 367.431496 298.032812 366.165206 297.576638 364.845022 297.576638 
C 363.524838 297.576638 362.258548 298.032812 361.325037 298.844692 
C 360.391526 299.656573 359.867011 300.757874 359.867011 301.906047 
C 359.867011 303.05422 360.391526 304.155521 361.325037 304.967402 
C 362.258548 305.779282 363.524838 306.235456 364.845022 306.235456 
z
" style="fill:#0000ff;opacity:0.2;stroke:#0000ff;stroke-linejoin:miter;stroke-width:2;"/>
   </g>
   <g id="[&quot;g_s&quot;:6,&quot;g_t&quot;:1,&quot;coords&quot;:[[340.0, -245.0],[326.0, -243.0]],&quot;certainty&quot;:6]">
    <path clip-path="url(#p41f9083a66)" d="M 384.757065 308.709404 
C 386.077249 308.709404 387.343539 308.25323 388.27705 307.44135 
C 389.210561 306.629469 389.735076 305.528168 389.735076 304.379995 
C 389.735076 303.231822 389.210561 302.130521 388.27705 301.31864 
C 387.343539 300.50676 386.077249 300.050586 384.757065 300.050586 
C 383.436881 300.050586 382.170591 300.50676 381.23708 301.31864 
C 380.303569 302.130521 379.779054 303.231822 379.779054 304.379995 
C 379.779054 305.528168 380.303569 306.629469 381.23708 307.44135 
C 382.170591 308.25323 383.436881 308.709404 384.757065 308.709404 
z
" style="fill:#ff0000;opacity:0.2;stroke:#ff0000;stroke-linejoin:miter;stroke-width:2;"/>
   </g>
   <g id="patch_32">
    <path d="M 364.845022 301.906047 
Q 373.8069 303.019505 381.540782 303.980392 
" style="fill:none;opacity:0.5;stroke:#ff0000;stroke-linecap:round;stroke-width:1.75;"/>
    <path d="M 380.237171 302.306893 
L 381.540782 303.980392 
L 379.867284 305.284003 
" style="fill:none;opacity:0.5;stroke:#ff0000;stroke-linecap:round;stroke-width:1.75;"/>
   </g>
   <g id="[&quot;g_s&quot;:2,&quot;g_t&quot;:7,&quot;coords&quot;:[[253.0, -151.0],[260.0, -158.0]],&quot;certainty&quot;:5]">
    <path clip-path="url(#p41f9083a66)" d="M 261.017942 191.815356 
C 262.149528 191.815356 263.234919 191.42435 264.035072 190.728452 
C 264.835224 190.032554 265.284808 189.088582 265.284808 188.104434 
C 265.284808 187.120286 264.835224 186.176313 264.035072 185.480416 
C 263.234919 184.784518 262.149528 184.393512 261.017942 184.393512 
C 259.886355 184.393512 258.800964 184.784518 258.000811 185.480416 
C 257.200659 186.176313 256.751075 187.120286 256.751075 188.104434 
C 256.751075 189.088582 257.200659 190.032554 258.000811 190.728452 
C 258.800964 191.42435 259.886355 191.815356 261.017942 191.815356 
z
" style="fill:#0000ff;opacity:0.2;stroke:#0000ff;stroke-linejoin:miter;stroke-width:2;"/>
   </g>
   <g id="[&quot;g_s&quot;:7,&quot;g_t&quot;:2,&quot;coords&quot;:[[260.0, -158.0],[253.0, -151.0]],&quot;certainty&quot;:5]">
    <path clip-path="url(#p41f9083a66)" d="M 270.973963 200.474174 
C 272.105549 200.474174 273.190941 200.083168 273.991093 199.387271 
C 274.791245 198.691373 275.240829 197.7474 275.240829 196.763252 
C 275.240829 195.779104 274.791245 194.835132 273.991093 194.139234 
C 273.190941 193.443336 272.105549 193.05233 270.973963 193.05233 
C 269.842377 193.05233 268.756985 193.443336 267.956833 194.139234 
C 267.156681 194.835132 266.707097 195.779104 266.707097 196.763252 
C 266.707097 197.7474 267.156681 198.691373 267.956833 199.387271 
C 268.756985 200.083168 269.842377 200.474174 270.973963 200.474174 
z
" style="fill:#ff0000;opacity:0.2;stroke:#ff0000;stroke-linejoin:miter;stroke-width:2;"/>
   </g>
   <g id="patch_33">
    <path d="M 261.017942 188.104434 
Q 265.241229 191.777456 268.664193 194.75443 
" style="fill:none;opacity:0.5;stroke:#ff0000;stroke-linecap:round;stroke-width:1.5;"/>
    <path d="M 268.516724 192.638242 
L 268.664193 194.75443 
L 266.548005 194.9019 
" style="fill:none;opacity:0.5;stroke:#ff0000;stroke-linecap:round;stroke-width:1.5;"/>
   </g>
   <g id="[&quot;g_s&quot;:3,&quot;g_t&quot;:9,&quot;coords&quot;:[[226.0, -151.0],[219.0, -157.0]],&quot;certainty&quot;:6]">
    <path clip-path="url(#p41f9083a66)" d="M 222.616145 192.433843 
C 223.936329 192.433843 225.202619 191.977669 226.13613 191.165789 
C 227.069641 190.353908 227.594155 189.252607 227.594155 188.104434 
C 227.594155 186.956261 227.069641 185.85496 226.13613 185.043079 
C 225.202619 184.231199 223.936329 183.775025 222.616145 183.775025 
C 221.295961 183.775025 220.02967 184.231199 219.09616 185.043079 
C 218.162649 185.85496 217.638134 186.956261 217.638134 188.104434 
C 217.638134 189.252607 218.162649 190.353908 219.09616 191.165789 
C 220.02967 191.977669 221.295961 192.433843 222.616145 192.433843 
z
" style="fill:#0000ff;opacity:0.2;stroke:#0000ff;stroke-linejoin:miter;stroke-width:2;"/>
   </g>
   <g id="[&quot;g_s&quot;:9,&quot;g_t&quot;:3,&quot;coords&quot;:[[219.0, -157.0],[226.0, -151.0]],&quot;certainty&quot;:6]">
    <path clip-path="url(#p41f9083a66)" d="M 212.660123 199.855687 
C 213.980307 199.855687 215.246597 199.399514 216.180108 198.587633 
C 217.113619 197.775752 217.638134 196.674451 217.638134 195.526278 
C 217.638134 194.378106 217.113619 193.276804 216.180108 192.464924 
C 215.246597 191.653043 213.980307 191.196869 212.660123 191.196869 
C 211.339939 191.196869 210.073649 191.653043 209.140138 192.464924 
C 208.206627 193.276804 207.682113 194.378106 207.682113 195.526278 
C 207.682113 196.674451 208.206627 197.775752 209.140138 198.587633 
C 210.073649 199.399514 211.339939 199.855687 212.660123 199.855687 
z
" style="fill:#ff0000;opacity:0.2;stroke:#ff0000;stroke-linejoin:miter;stroke-width:2;"/>
   </g>
   <g id="patch_34">
    <path d="M 222.616145 188.104434 
Q 218.439039 191.218311 215.25404 193.592609 
" style="fill:none;opacity:0.5;stroke:#ff0000;stroke-linecap:round;stroke-width:1.75;"/>
    <path d="M 217.353158 193.898719 
L 215.25404 193.592609 
L 215.56015 191.493491 
" style="fill:none;opacity:0.5;stroke:#ff0000;stroke-linecap:round;stroke-width:1.75;"/>
   </g>
   <g id="[&quot;g_s&quot;:4,&quot;g_t&quot;:10,&quot;coords&quot;:[[152.0, -243.0],[139.0, -245.0]],&quot;certainty&quot;:7]">
    <path clip-path="url(#p41f9083a66)" d="M 117.366775 306.853943 
C 118.875557 306.853943 120.322746 306.332602 121.389615 305.404738 
C 122.456485 304.476874 123.05593 303.218244 123.05593 301.906047 
C 123.05593 300.59385 122.456485 299.33522 121.389615 298.407356 
C 120.322746 297.479492 118.875557 296.958151 117.366775 296.958151 
C 115.857994 296.958151 114.410805 297.479492 113.343935 298.407356 
C 112.277065 299.33522 111.67762 300.59385 111.67762 301.906047 
C 111.67762 303.218244 112.277065 304.476874 113.343935 305.404738 
C 114.410805 306.332602 115.857994 306.853943 117.366775 306.853943 
z
" style="fill:#0000ff;opacity:0.2;stroke:#0000ff;stroke-linejoin:miter;stroke-width:2;"/>
   </g>
   <g id="[&quot;g_s&quot;:10,&quot;g_t&quot;:4,&quot;coords&quot;:[[139.0, -245.0],[152.0, -243.0]],&quot;certainty&quot;:7]">
    <path clip-path="url(#p41f9083a66)" d="M 98.877021 309.327891 
C 100.385803 309.327891 101.832992 308.80655 102.899861 307.878686 
C 103.966731 306.950822 104.566176 305.692192 104.566176 304.379995 
C 104.566176 303.067798 103.966731 301.809168 102.899861 300.881304 
C 101.832992 299.95344 100.385803 299.432099 98.877021 299.432099 
C 97.36824 299.432099 95.921051 299.95344 94.854181 300.881304 
C 93.787311 301.809168 93.187866 303.067798 93.187866 304.379995 
C 93.187866 305.692192 93.787311 306.950822 94.854181 307.878686 
C 95.921051 308.80655 97.36824 309.327891 98.877021 309.327891 
z
" style="fill:#ff0000;opacity:0.2;stroke:#ff0000;stroke-linejoin:miter;stroke-width:2;"/>
   </g>
   <g id="patch_35">
    <path d="M 117.366775 301.906047 
Q 109.112743 303.010445 102.260433 303.927291 
" style="fill:none;opacity:0.5;stroke:#ff0000;stroke-linecap:round;stroke-width:2;"/>
    <path d="M 103.946112 305.215113 
L 102.260433 303.927291 
L 103.548255 302.241612 
" style="fill:none;opacity:0.5;stroke:#ff0000;stroke-linecap:round;stroke-width:2;"/>
   </g>
   <g id="[&quot;g_s&quot;:5,&quot;g_t&quot;:1,&quot;coords&quot;:[[132.0, -234.0],[111.0, -227.0]],&quot;certainty&quot;:7]">
    <path clip-path="url(#p41f9083a66)" d="M 88.921 295.721177 
C 90.429781 295.721177 91.87697 295.199835 92.94384 294.271971 
C 94.01071 293.344108 94.610155 292.085478 94.610155 290.77328 
C 94.610155 289.461083 94.01071 288.202453 92.94384 287.27459 
C 91.87697 286.346726 90.429781 285.825384 88.921 285.825384 
C 87.412218 285.825384 85.965029 286.346726 84.89816 287.27459 
C 83.83129 288.202453 83.231845 289.461083 83.231845 290.77328 
C 83.231845 292.085478 83.83129 293.344108 84.89816 294.271971 
C 85.965029 295.199835 87.412218 295.721177 88.921 295.721177 
z
" style="fill:#0000ff;opacity:0.2;stroke:#0000ff;stroke-linejoin:miter;stroke-width:2;"/>
   </g>
   <g id="[&quot;g_s&quot;:1,&quot;g_t&quot;:5,&quot;coords&quot;:[[111.0, -227.0],[132.0, -234.0]],&quot;certainty&quot;:7]">
    <path clip-path="url(#p41f9083a66)" d="M 59.052936 287.062358 
C 60.561717 287.062358 62.008906 286.541017 63.075776 285.613153 
C 64.142645 284.685289 64.742091 283.42666 64.742091 282.114462 
C 64.742091 280.802265 64.142645 279.543635 63.075776 278.615771 
C 62.008906 277.687907 60.561717 277.166566 59.052936 277.166566 
C 57.544154 277.166566 56.096965 277.687907 55.030095 278.615771 
C 53.963226 279.543635 53.36378 280.802265 53.36378 282.114462 
C 53.36378 283.42666 53.963226 284.685289 55.030095 285.613153 
C 56.096965 286.541017 57.544154 287.062358 59.052936 287.062358 
z
" style="fill:#ff0000;opacity:0.2;stroke:#ff0000;stroke-linejoin:miter;stroke-width:2;"/>
   </g>
   <g id="patch_36">
    <path d="M 88.921 290.77328 
Q 74.94769 286.722387 62.332667 283.065264 
" style="fill:none;opacity:0.5;stroke:#ff0000;stroke-linecap:round;stroke-width:2;"/>
    <path d="M 63.355692 284.923602 
L 62.332667 283.065264 
L 64.191005 282.042239 
" style="fill:none;opacity:0.5;stroke:#ff0000;stroke-linecap:round;stroke-width:2;"/>
   </g>
   <g id="[&quot;g_s&quot;:6,&quot;g_t&quot;:2,&quot;coords&quot;:[[222.0, -57.0],[217.0, -36.0]],&quot;certainty&quot;:7]">
    <path clip-path="url(#p41f9083a66)" d="M 216.92699 76.776769 
C 218.435771 76.776769 219.88296 76.255427 220.94983 75.327564 
C 222.016699 74.3997 222.616145 73.14107 222.616145 71.828873 
C 222.616145 70.516675 222.016699 69.258046 220.94983 68.330182 
C 219.88296 67.402318 218.435771 66.880977 216.92699 66.880977 
C 215.418208 66.880977 213.971019 67.402318 212.904149 68.330182 
C 211.83728 69.258046 211.237834 70.516675 211.237834 71.828873 
C 211.237834 73.14107 211.83728 74.3997 212.904149 75.327564 
C 213.971019 76.255427 215.418208 76.776769 216.92699 76.776769 
z
" style="fill:#0000ff;opacity:0.2;stroke:#0000ff;stroke-linejoin:miter;stroke-width:2;"/>
   </g>
   <g id="[&quot;g_s&quot;:2,&quot;g_t&quot;:6,&quot;coords&quot;:[[217.0, -36.0],[222.0, -57.0]],&quot;certainty&quot;:7]">
    <path clip-path="url(#p41f9083a66)" d="M 209.815546 50.800314 
C 211.324327 50.800314 212.771516 50.278972 213.838386 49.351109 
C 214.905256 48.423245 215.504701 47.164615 215.504701 45.852418 
C 215.504701 44.54022 214.905256 43.28159 213.838386 42.353727 
C 212.771516 41.425863 211.324327 40.904521 209.815546 40.904521 
C 208.306764 40.904521 206.859575 41.425863 205.792706 42.353727 
C 204.725836 43.28159 204.126391 44.54022 204.126391 45.852418 
C 204.126391 47.164615 204.725836 48.423245 205.792706 49.351109 
C 206.859575 50.278972 208.306764 50.800314 209.815546 50.800314 
z
" style="fill:#ff0000;opacity:0.2;stroke:#ff0000;stroke-linejoin:miter;stroke-width:2;"/>
   </g>
   <g id="patch_37">
    <path d="M 216.92699 71.828873 
Q 213.635603 59.806201 210.717638 49.147551 
" style="fill:none;opacity:0.5;stroke:#ff0000;stroke-linecap:round;stroke-width:2;"/>
    <path d="M 209.666947 50.990388 
L 210.717638 49.147551 
L 212.560475 50.198241 
" style="fill:none;opacity:0.5;stroke:#ff0000;stroke-linecap:round;stroke-width:2;"/>
   </g>
   <g id="[&quot;g_s&quot;:7,&quot;g_t&quot;:4,&quot;coords&quot;:[[257.0, -57.0],[263.0, -36.0]],&quot;certainty&quot;:7]">
    <path clip-path="url(#p41f9083a66)" d="M 266.707097 76.776769 
C 268.215878 76.776769 269.663067 76.255427 270.729937 75.327564 
C 271.796807 74.3997 272.396252 73.14107 272.396252 71.828873 
C 272.396252 70.516675 271.796807 69.258046 270.729937 68.330182 
C 269.663067 67.402318 268.215878 66.880977 266.707097 66.880977 
C 265.198315 66.880977 263.751126 67.402318 262.684257 68.330182 
C 261.617387 69.258046 261.017942 70.516675 261.017942 71.828873 
C 261.017942 73.14107 261.617387 74.3997 262.684257 75.327564 
C 263.751126 76.255427 265.198315 76.776769 266.707097 76.776769 
z
" style="fill:#0000ff;opacity:0.2;stroke:#0000ff;stroke-linejoin:miter;stroke-width:2;"/>
   </g>
   <g id="[&quot;g_s&quot;:4,&quot;g_t&quot;:7,&quot;coords&quot;:[[263.0, -36.0],[257.0, -57.0]],&quot;certainty&quot;:7]">
    <path clip-path="url(#p41f9083a66)" d="M 275.240829 50.800314 
C 276.749611 50.800314 278.1968 50.278972 279.263669 49.351109 
C 280.330539 48.423245 280.929984 47.164615 280.929984 45.852418 
C 280.929984 44.54022 280.330539 43.28159 279.263669 42.353727 
C 278.1968 41.425863 276.749611 40.904521 275.240829 40.904521 
C 273.732048 40.904521 272.284859 41.425863 271.217989 42.353727 
C 270.151119 43.28159 269.551674 44.54022 269.551674 45.852418 
C 269.551674 47.164615 270.151119 48.423245 271.217989 49.351109 
C 272.284859 50.278972 273.732048 50.800314 275.240829 50.800314 
z
" style="fill:#ff0000;opacity:0.2;stroke:#ff0000;stroke-linejoin:miter;stroke-width:2;"/>
   </g>
   <g id="patch_38">
    <path d="M 266.707097 71.828873 
Q 270.661969 59.790346 274.175455 49.095388 
" style="fill:none;opacity:0.5;stroke:#ff0000;stroke-linecap:round;stroke-width:2;"/>
    <path d="M 272.282224 50.052297 
L 274.175455 49.095388 
L 275.132364 50.98862 
" style="fill:none;opacity:0.5;stroke:#ff0000;stroke-linecap:round;stroke-width:2;"/>
   </g>
   <g id="[&quot;g_s&quot;:8,&quot;g_t&quot;:5,&quot;coords&quot;:[[348.0, -234.0],[369.0, -227.0]],&quot;certainty&quot;:11]">
    <path clip-path="url(#p41f9083a66)" d="M 396.135375 298.195125 
C 398.398548 298.195125 400.569331 297.413112 402.169635 296.021317 
C 403.76994 294.629521 404.669108 292.741577 404.669108 290.77328 
C 404.669108 288.804984 403.76994 286.91704 402.169635 285.525244 
C 400.569331 284.133448 398.398548 283.351436 396.135375 283.351436 
C 393.872203 283.351436 391.70142 284.133448 390.101115 285.525244 
C 388.50081 286.91704 387.601643 288.804984 387.601643 290.77328 
C 387.601643 292.741577 388.50081 294.629521 390.101115 296.021317 
C 391.70142 297.413112 393.872203 298.195125 396.135375 298.195125 
z
" style="fill:#0000ff;opacity:0.2;stroke:#0000ff;stroke-linejoin:miter;stroke-width:2;"/>
   </g>
   <g id="[&quot;g_s&quot;:5,&quot;g_t&quot;:8,&quot;coords&quot;:[[369.0, -227.0],[348.0, -234.0]],&quot;certainty&quot;:11]">
    <path clip-path="url(#p41f9083a66)" d="M 426.003439 289.536306 
C 428.266612 289.536306 430.437395 288.754294 432.0377 287.362499 
C 433.638004 285.970703 434.537172 284.082758 434.537172 282.114462 
C 434.537172 280.146166 433.638004 278.258221 432.0377 276.866426 
C 430.437395 275.47463 428.266612 274.692618 426.003439 274.692618 
C 423.740267 274.692618 421.569484 275.47463 419.969179 276.866426 
C 418.368875 278.258221 417.469707 280.146166 417.469707 282.114462 
C 417.469707 284.082758 418.368875 285.970703 419.969179 287.362499 
C 421.569484 288.754294 423.740267 289.536306 426.003439 289.536306 
z
" style="fill:#ff0000;opacity:0.2;stroke:#ff0000;stroke-linejoin:miter;stroke-width:2;"/>
   </g>
   <g id="patch_39">
    <path d="M 396.135375 290.77328 
Q 410.108685 286.722387 422.044564 283.262149 
" style="fill:none;opacity:0.5;stroke:#ff0000;stroke-linecap:round;stroke-width:3;"/>
    <path d="M 420.186226 282.239124 
L 422.044564 283.262149 
L 421.02154 285.120487 
" style="fill:none;opacity:0.5;stroke:#ff0000;stroke-linecap:round;stroke-width:3;"/>
   </g>
   <g id="patch_40">
    <path clip-path="url(#p41f9083a66)" d="M 73.986968 292.628742 
C 75.872945 292.628742 77.681931 291.977065 79.015518 290.817235 
C 80.349105 289.657405 81.098412 288.084118 81.098412 286.443871 
C 81.098412 284.803625 80.349105 283.230337 79.015518 282.070508 
C 77.681931 280.910678 75.872945 280.259001 73.986968 280.259001 
C 72.100991 280.259001 70.292005 280.910678 68.958417 282.070508 
C 67.62483 283.230337 66.875524 284.803625 66.875524 286.443871 
C 66.875524 288.084118 67.62483 289.657405 68.958417 290.817235 
C 70.292005 291.977065 72.100991 292.628742 73.986968 292.628742 
z
" style="fill:#008000;opacity:0.2;stroke:#008000;stroke-linejoin:miter;stroke-width:2;"/>
   </g>
   <g id="patch_41">
    <path clip-path="url(#p41f9083a66)" d="M 213.371268 65.025515 
C 215.257245 65.025515 217.066231 64.373839 218.399818 63.214009 
C 219.733405 62.054179 220.482711 60.480892 220.482711 58.840645 
C 220.482711 57.200398 219.733405 55.627111 218.399818 54.467282 
C 217.066231 53.307452 215.257245 52.655775 213.371268 52.655775 
C 211.485291 52.655775 209.676305 53.307452 208.342717 54.467282 
C 207.00913 55.627111 206.259824 57.200398 206.259824 58.840645 
C 206.259824 60.480892 207.00913 62.054179 208.342717 63.214009 
C 209.676305 64.373839 211.485291 65.025515 213.371268 65.025515 
z
" style="fill:#008000;opacity:0.2;stroke:#008000;stroke-linejoin:miter;stroke-width:2;"/>
   </g>
   <g id="patch_42">
    <path clip-path="url(#p41f9083a66)" d="M 270.973963 65.025515 
C 272.85994 65.025515 274.668926 64.373839 276.002513 63.214009 
C 277.3361 62.054179 278.085407 60.480892 278.085407 58.840645 
C 278.085407 57.200398 277.3361 55.627111 276.002513 54.467282 
C 274.668926 53.307452 272.85994 52.655775 270.973963 52.655775 
C 269.087986 52.655775 267.279 53.307452 265.945413 54.467282 
C 264.611826 55.627111 263.862519 57.200398 263.862519 58.840645 
C 263.862519 60.480892 264.611826 62.054179 265.945413 63.214009 
C 267.279 64.373839 269.087986 65.025515 270.973963 65.025515 
z
" style="fill:#008000;opacity:0.2;stroke:#008000;stroke-linejoin:miter;stroke-width:2;"/>
   </g>
   <g id="patch_43">
    <path clip-path="url(#p41f9083a66)" d="M 411.069407 292.628742 
C 412.955384 292.628742 414.76437 291.977065 416.097958 290.817235 
C 417.431545 289.657405 418.180851 288.084118 418.180851 286.443871 
C 418.180851 284.803625 417.431545 283.230337 416.097958 282.070508 
C 414.76437 280.910678 412.955384 280.259001 411.069407 280.259001 
C 409.18343 280.259001 407.374444 280.910678 406.040857 282.070508 
C 404.70727 283.230337 403.957963 284.803625 403.957963 286.443871 
C 403.957963 288.084118 404.70727 289.657405 406.040857 290.817235 
C 407.374444 291.977065 409.18343 292.628742 411.069407 292.628742 
z
" style="fill:#008000;opacity:0.2;stroke:#008000;stroke-linejoin:miter;stroke-width:2;"/>
   </g>
   <g id="patch_44">
    <path clip-path="url(#p41f9083a66)" d="M 374.801044 309.327891 
C 376.687021 309.327891 378.496007 308.676214 379.829594 307.516385 
C 381.163181 306.356555 381.912487 304.783268 381.912487 303.143021 
C 381.912487 301.502774 381.163181 299.929487 379.829594 298.769657 
C 378.496007 297.609828 376.687021 296.958151 374.801044 296.958151 
C 372.915067 296.958151 371.10608 297.609828 369.772493 298.769657 
C 368.438906 299.929487 367.6896 301.502774 367.6896 303.143021 
C 367.6896 304.783268 368.438906 306.356555 369.772493 307.516385 
C 371.10608 308.676214 372.915067 309.327891 374.801044 309.327891 
z
" style="fill:#008000;opacity:0.2;stroke:#008000;stroke-linejoin:miter;stroke-width:2;"/>
   </g>
   <g id="patch_45">
    <path clip-path="url(#p41f9083a66)" d="M 265.995952 198.618713 
C 267.881929 198.618713 269.690915 197.967036 271.024502 196.807207 
C 272.35809 195.647377 273.107396 194.07409 273.107396 192.433843 
C 273.107396 190.793596 272.35809 189.220309 271.024502 188.060479 
C 269.690915 186.90065 267.881929 186.248973 265.995952 186.248973 
C 264.109975 186.248973 262.300989 186.90065 260.967402 188.060479 
C 259.633815 189.220309 258.884508 190.793596 258.884508 192.433843 
C 258.884508 194.07409 259.633815 195.647377 260.967402 196.807207 
C 262.300989 197.967036 264.109975 198.618713 265.995952 198.618713 
z
" style="fill:#008000;opacity:0.2;stroke:#008000;stroke-linejoin:miter;stroke-width:2;"/>
   </g>
   <g id="patch_46">
    <path clip-path="url(#p41f9083a66)" d="M 217.638134 198.000226 
C 219.524111 198.000226 221.333097 197.348549 222.666684 196.18872 
C 224.000271 195.02889 224.749578 193.455603 224.749578 191.815356 
C 224.749578 190.175109 224.000271 188.601822 222.666684 187.441992 
C 221.333097 186.282163 219.524111 185.630486 217.638134 185.630486 
C 215.752157 185.630486 213.943171 186.282163 212.609584 187.441992 
C 211.275997 188.601822 210.52669 190.175109 210.52669 191.815356 
C 210.52669 193.455603 211.275997 195.02889 212.609584 196.18872 
C 213.943171 197.348549 215.752157 198.000226 217.638134 198.000226 
z
" style="fill:#008000;opacity:0.2;stroke:#008000;stroke-linejoin:miter;stroke-width:2;"/>
   </g>
   <g id="patch_47">
    <path clip-path="url(#p41f9083a66)" d="M 108.121898 309.327891 
C 110.007875 309.327891 111.816861 308.676214 113.150448 307.516385 
C 114.484036 306.356555 115.233342 304.783268 115.233342 303.143021 
C 115.233342 301.502774 114.484036 299.929487 113.150448 298.769657 
C 111.816861 297.609828 110.007875 296.958151 108.121898 296.958151 
C 106.235921 296.958151 104.426935 297.609828 103.093348 298.769657 
C 101.759761 299.929487 101.010454 301.502774 101.010454 303.143021 
C 101.010454 304.783268 101.759761 306.356555 103.093348 307.516385 
C 104.426935 308.676214 106.235921 309.327891 108.121898 309.327891 
z
" style="fill:#008000;opacity:0.2;stroke:#008000;stroke-linejoin:miter;stroke-width:2;"/>
   </g>
   <g id="patch_48">
    <path clip-path="url(#p41f9083a66)" d="M 59.052936 306.853943 
C 66.596843 306.853943 73.832788 304.247235 79.167136 299.607917 
C 84.501485 294.968598 87.498711 288.675449 87.498711 282.114462 
C 87.498711 275.553475 84.501485 269.260326 79.167136 264.621007 
C 73.832788 259.981689 66.596843 257.374981 59.052936 257.374981 
C 51.509028 257.374981 44.273083 259.981689 38.938735 264.621007 
C 33.604386 269.260326 30.60716 275.553475 30.60716 282.114462 
C 30.60716 288.675449 33.604386 294.968598 38.938735 299.607917 
C 44.273083 304.247235 51.509028 306.853943 59.052936 306.853943 
z
" style="fill:none;opacity:0.2;stroke:#ff0000;stroke-linejoin:miter;stroke-width:2;"/>
   </g>
   <g id="patch_49">
    <path clip-path="url(#p41f9083a66)" d="M 364.845022 326.645528 
C 372.38893 326.645528 379.624875 324.03882 384.959223 319.399502 
C 390.293571 314.760183 393.290798 308.467034 393.290798 301.906047 
C 393.290798 295.34506 390.293571 289.051911 384.959223 284.412592 
C 379.624875 279.773274 372.38893 277.166566 364.845022 277.166566 
C 357.301114 277.166566 350.06517 279.773274 344.730821 284.412592 
C 339.396473 289.051911 336.399247 295.34506 336.399247 301.906047 
C 336.399247 308.467034 339.396473 314.760183 344.730821 319.399502 
C 350.06517 324.03882 357.301114 326.645528 364.845022 326.645528 
z
" style="fill:none;opacity:0.2;stroke:#0000ff;stroke-linejoin:miter;stroke-width:2;"/>
   </g>
   <g id="patch_50">
    <path clip-path="url(#p41f9083a66)" d="M 59.052936 294.484203 
C 62.824889 294.484203 66.442862 293.180849 69.110036 290.86119 
C 71.77721 288.54153 73.275823 285.394956 73.275823 282.114462 
C 73.275823 278.833969 71.77721 275.687394 69.110036 273.367735 
C 66.442862 271.048075 62.824889 269.744722 59.052936 269.744722 
C 55.280982 269.744722 51.663009 271.048075 48.995835 273.367735 
C 46.328661 275.687394 44.830048 278.833969 44.830048 282.114462 
C 44.830048 285.394956 46.328661 288.54153 48.995835 290.86119 
C 51.663009 293.180849 55.280982 294.484203 59.052936 294.484203 
z
" style="fill:none;opacity:0.2;stroke:#008000;stroke-linejoin:miter;stroke-width:2;"/>
   </g>
   <g id="patch_51">
    <path clip-path="url(#p41f9083a66)" d="M 88.921 303.143021 
C 92.692954 303.143021 96.310926 301.839667 98.9781 299.520008 
C 101.645274 297.200349 103.143888 294.053774 103.143888 290.77328 
C 103.143888 287.492787 101.645274 284.346212 98.9781 282.026553 
C 96.310926 279.706894 92.692954 278.40354 88.921 278.40354 
C 85.149046 278.40354 81.531074 279.706894 78.863899 282.026553 
C 76.196725 284.346212 74.698112 287.492787 74.698112 290.77328 
C 74.698112 294.053774 76.196725 297.200349 78.863899 299.520008 
C 81.531074 301.839667 85.149046 303.143021 88.921 303.143021 
z
" style="fill:none;opacity:0.2;stroke:#008000;stroke-linejoin:miter;stroke-width:2;"/>
   </g>
   <g id="patch_52">
    <path d="M 73.986968 286.443871 
Q 143.679118 172.642258 213.371268 58.840645 
" style="fill:none;opacity:0.5;stroke:#008000;stroke-linecap:round;stroke-width:2;"/>
   </g>
   <g id="patch_53">
    <path d="M 60.411223 282.508233 
Q 73.026246 286.165356 85.641268 289.822479 
" style="fill:none;opacity:0.5;stroke:#800080;stroke-linecap:round;stroke-width:2;"/>
    <path d="M 61.434248 284.366571 
L 60.411223 282.508233 
L 62.269561 281.485208 
" style="fill:none;opacity:0.5;stroke:#800080;stroke-linecap:round;stroke-width:2;"/>
    <path d="M 84.618244 287.964141 
L 85.641268 289.822479 
L 83.78293 290.845504 
" style="fill:none;opacity:0.5;stroke:#800080;stroke-linecap:round;stroke-width:2;"/>
   </g>
   <g id="patch_54">
    <path d="M 213.371268 58.840645 
Q 242.172615 58.840645 270.973963 58.840645 
" style="fill:none;opacity:0.5;stroke:#008000;stroke-linecap:round;stroke-width:2;"/>
   </g>
   <g id="patch_55">
    <path d="M 210.188967 47.21644 
Q 213.106932 57.87509 216.024897 68.53374 
" style="fill:none;opacity:0.5;stroke:#800080;stroke-linecap:round;stroke-width:2;"/>
    <path d="M 209.138277 49.059277 
L 210.188967 47.21644 
L 212.031804 48.26713 
" style="fill:none;opacity:0.5;stroke:#800080;stroke-linecap:round;stroke-width:2;"/>
    <path d="M 217.075588 66.690902 
L 216.024897 68.53374 
L 214.18206 67.483049 
" style="fill:none;opacity:0.5;stroke:#800080;stroke-linecap:round;stroke-width:2;"/>
   </g>
   <g id="patch_56">
    <path d="M 270.973963 58.840645 
Q 341.021685 172.642258 411.069407 286.443871 
" style="fill:none;opacity:0.5;stroke:#008000;stroke-linecap:round;stroke-width:2;"/>
   </g>
   <g id="patch_57">
    <path d="M 274.799443 47.195987 
Q 271.285957 57.890944 267.772471 68.585902 
" style="fill:none;opacity:0.5;stroke:#800080;stroke-linecap:round;stroke-width:2;"/>
    <path d="M 272.906211 48.152896 
L 274.799443 47.195987 
L 275.756352 49.089218 
" style="fill:none;opacity:0.5;stroke:#800080;stroke-linecap:round;stroke-width:2;"/>
    <path d="M 269.665702 67.628993 
L 267.772471 68.585902 
L 266.815562 66.692671 
" style="fill:none;opacity:0.5;stroke:#800080;stroke-linecap:round;stroke-width:2;"/>
   </g>
   <g id="patch_58">
    <path d="M 411.069407 286.443871 
Q 392.935225 294.793446 374.801044 303.143021 
" style="fill:none;opacity:0.5;stroke:#008000;stroke-linecap:round;stroke-width:2;"/>
   </g>
   <g id="patch_59">
    <path d="M 424.645152 282.508233 
Q 412.030129 286.165356 399.415107 289.822479 
" style="fill:none;opacity:0.5;stroke:#800080;stroke-linecap:round;stroke-width:2;"/>
    <path d="M 422.786814 281.485208 
L 424.645152 282.508233 
L 423.622127 284.366571 
" style="fill:none;opacity:0.5;stroke:#800080;stroke-linecap:round;stroke-width:2;"/>
    <path d="M 401.273445 290.845504 
L 399.415107 289.822479 
L 400.438131 287.964141 
" style="fill:none;opacity:0.5;stroke:#800080;stroke-linecap:round;stroke-width:2;"/>
   </g>
   <g id="patch_60">
    <path d="M 374.801044 303.143021 
Q 320.398498 247.788432 265.995952 192.433843 
" style="fill:none;opacity:0.5;stroke:#008000;stroke-linecap:round;stroke-width:2;"/>
   </g>
   <g id="patch_61">
    <path d="M 383.353642 304.205628 
Q 375.795187 303.266537 368.236733 302.327446 
" style="fill:none;opacity:0.5;stroke:#800080;stroke-linecap:round;stroke-width:2;"/>
    <path d="M 382.050031 302.53213 
L 383.353642 304.205628 
L 381.680143 305.50924 
" style="fill:none;opacity:0.5;stroke:#800080;stroke-linecap:round;stroke-width:2;"/>
    <path d="M 369.540344 304.000945 
L 368.236733 302.327446 
L 369.910231 301.023835 
" style="fill:none;opacity:0.5;stroke:#800080;stroke-linecap:round;stroke-width:2;"/>
   </g>
   <g id="patch_62">
    <path clip-path="url(#p41f9083a66)" d="M 212.660123 207.896019 
C 216.432077 207.896019 220.050049 206.592665 222.717224 204.273006 
C 225.384398 201.953346 226.883011 198.806772 226.883011 195.526278 
C 226.883011 192.245785 225.384398 189.09921 222.717224 186.779551 
C 220.050049 184.459892 216.432077 183.156538 212.660123 183.156538 
C 208.888169 183.156538 205.270197 184.459892 202.603023 186.779551 
C 199.935849 189.09921 198.437235 192.245785 198.437235 195.526278 
C 198.437235 198.806772 199.935849 201.953346 202.603023 204.273006 
C 205.270197 206.592665 208.888169 207.896019 212.660123 207.896019 
z
" style="fill:none;opacity:0.2;stroke:#008000;stroke-linejoin:miter;stroke-width:2;"/>
   </g>
   <g id="patch_63">
    <path clip-path="url(#p41f9083a66)" d="M 222.616145 200.474174 
C 226.388099 200.474174 230.006071 199.170821 232.673245 196.851161 
C 235.340419 194.531502 236.839032 191.384927 236.839032 188.104434 
C 236.839032 184.82394 235.340419 181.677366 232.673245 179.357707 
C 230.006071 177.038047 226.388099 175.734693 222.616145 175.734693 
C 218.844191 175.734693 215.226218 177.038047 212.559044 179.357707 
C 209.89187 181.677366 208.393257 184.82394 208.393257 188.104434 
C 208.393257 191.384927 209.89187 194.531502 212.559044 196.851161 
C 215.226218 199.170821 218.844191 200.474174 222.616145 200.474174 
z
" style="fill:none;opacity:0.2;stroke:#008000;stroke-linejoin:miter;stroke-width:2;"/>
   </g>
   <g id="patch_64">
    <path d="M 217.638134 191.815356 
Q 162.880016 247.479189 108.121898 303.143021 
" style="fill:none;opacity:0.5;stroke:#008000;stroke-linecap:round;stroke-width:2;"/>
   </g>
   <g id="patch_65">
    <path d="M 213.793959 194.681046 
Q 216.837228 192.412401 219.880498 190.143757 
" style="fill:none;opacity:0.5;stroke:#800080;stroke-linecap:round;stroke-width:2;"/>
    <path d="M 215.893077 194.987156 
L 213.793959 194.681046 
L 214.100068 192.581928 
" style="fill:none;opacity:0.5;stroke:#800080;stroke-linecap:round;stroke-width:2;"/>
    <path d="M 217.78138 189.837647 
L 219.880498 190.143757 
L 219.574388 192.242875 
" style="fill:none;opacity:0.5;stroke:#800080;stroke-linecap:round;stroke-width:2;"/>
   </g>
   <g id="patch_66">
    <path d="M 108.121898 303.143021 
Q 91.054433 294.793446 73.986968 286.443871 
" style="fill:none;opacity:0.5;stroke:#008000;stroke-linecap:round;stroke-width:2;"/>
   </g>
   <g id="patch_67">
    <path d="M 100.278743 304.192443 
Q 107.131053 303.275597 113.983363 302.358751 
" style="fill:none;opacity:0.5;stroke:#800080;stroke-linecap:round;stroke-width:2;"/>
    <path d="M 101.964422 305.480265 
L 100.278743 304.192443 
L 101.566565 302.506764 
" style="fill:none;opacity:0.5;stroke:#800080;stroke-linecap:round;stroke-width:2;"/>
    <path d="M 112.297684 301.070929 
L 113.983363 302.358751 
L 112.695542 304.04443 
" style="fill:none;opacity:0.5;stroke:#800080;stroke-linecap:round;stroke-width:2;"/>
   </g>
   <g id="line2d_1">
    <path clip-path="url(#p41f9083a66)" d="M 59.052936 282.114462 
L 209.815546 45.852418 
L 242.528188 29.771755 
L 275.240829 45.852418 
L 426.003439 282.114462 
L 384.757065 304.379995 
L 270.973963 196.763252 
L 242.528188 173.260745 
L 212.660123 195.526278 
L 98.877021 304.379995 
" style="fill:none;stroke:#ff0000;stroke-linecap:square;stroke-width:0.2;"/>
   </g>
   <g id="line2d_2">
    <path clip-path="url(#p41f9083a66)" d="M 364.845022 301.906047 
L 261.017942 188.104434 
L 222.616145 188.104434 
L 117.366775 301.906047 
L 88.921 290.77328 
L 216.92699 71.828873 
L 266.707097 71.828873 
L 396.135375 290.77328 
" style="fill:none;stroke:#0000ff;stroke-linecap:square;stroke-width:0.2;"/>
   </g>
  </g>
 </g>
 <defs>
  <clipPath id="p41f9083a66">
   <rect height="307.51175" width="409.903625" x="37.576375" y="13.32"/>
  </clipPath>
 </defs>
</svg>
