<?xml version="1.0" encoding="utf-8" standalone="no"?>
<!DOCTYPE svg PUBLIC "-//W3C//DTD SVG 1.1//EN"
  "http://www.w3.org/Graphics/SVG/1.1/DTD/svg11.dtd">
<!-- Created with matplotlib (http://matplotlib.org/) -->
<svg height="345.6pt" version="1.1" viewBox="0 0 460.8 345.6" width="460.8pt" xmlns="http://www.w3.org/2000/svg" xmlns:xlink="http://www.w3.org/1999/xlink">
 <defs>
  <style type="text/css">
*{stroke-linecap:butt;stroke-linejoin:round;}
  </style>
 </defs>
 <g id="figure_1">
  <g id="patch_1">
   <path d="M 0 345.6 
L 460.8 345.6 
L 460.8 0 
L 0 0 
z
" style="fill:#ffffff;"/>
  </g>
  <g id="axes_1">
   <g id="patch_2">
    <path clip-path="url(#p452c63d221)" d="M 408.346806 303.381196 
C 408.986451 303.381196 409.599984 303.015286 410.052282 302.364052 
C 410.504579 301.712819 410.758713 300.829432 410.758713 299.908449 
C 410.758713 298.987466 410.504579 298.10408 410.052282 297.452846 
C 409.599984 296.801613 408.986451 296.435702 408.346806 296.435702 
C 407.707161 296.435702 407.093628 296.801613 406.64133 297.452846 
C 406.189033 298.10408 405.934899 298.987466 405.934899 299.908449 
C 405.934899 300.829432 406.189033 301.712819 406.64133 302.364052 
C 407.093628 303.015286 407.707161 303.381196 408.346806 303.381196 
z
" style="fill:#ff0000;opacity:0.2;stroke:#ff0000;stroke-linejoin:miter;stroke-width:2;"/>
   </g>
   <g id="patch_3">
    <path clip-path="url(#p452c63d221)" d="M 262.426422 216.56252 
C 263.066067 216.56252 263.6796 216.19661 264.131898 215.545376 
C 264.584195 214.894143 264.838329 214.010757 264.838329 213.089773 
C 264.838329 212.16879 264.584195 211.285404 264.131898 210.63417 
C 263.6796 209.982937 263.066067 209.617026 262.426422 209.617026 
C 261.786776 209.617026 261.173243 209.982937 260.720946 210.63417 
C 260.268648 211.285404 260.014515 212.16879 260.014515 213.089773 
C 260.014515 214.010757 260.268648 214.894143 260.720946 215.545376 
C 261.173243 216.19661 261.786776 216.56252 262.426422 216.56252 
z
" style="fill:#ff0000;opacity:0.2;stroke:#ff0000;stroke-linejoin:miter;stroke-width:2;"/>
   </g>
   <g id="patch_4">
    <path clip-path="url(#p452c63d221)" d="M 222.629953 214.826147 
C 223.269599 214.826147 223.883132 214.460236 224.335429 213.809003 
C 224.787727 213.157769 225.04186 212.274383 225.04186 211.3534 
C 225.04186 210.432416 224.787727 209.54903 224.335429 208.897797 
C 223.883132 208.246563 223.269599 207.880653 222.629953 207.880653 
C 221.990308 207.880653 221.376775 208.246563 220.924477 208.897797 
C 220.47218 209.54903 220.218046 210.432416 220.218046 211.3534 
C 220.218046 212.274383 220.47218 213.157769 220.924477 213.809003 
C 221.376775 214.460236 221.990308 214.826147 222.629953 214.826147 
z
" style="fill:#ff0000;opacity:0.2;stroke:#ff0000;stroke-linejoin:miter;stroke-width:2;"/>
   </g>
   <g id="patch_5">
    <path clip-path="url(#p452c63d221)" d="M 77.915523 303.381196 
C 78.555168 303.381196 79.168701 303.015286 79.620998 302.364052 
C 80.073296 301.712819 80.32743 300.829432 80.32743 299.908449 
C 80.32743 298.987466 80.073296 298.10408 79.620998 297.452846 
C 79.168701 296.801613 78.555168 296.435702 77.915523 296.435702 
C 77.275877 296.435702 76.662344 296.801613 76.210047 297.452846 
C 75.757749 298.10408 75.503615 298.987466 75.503615 299.908449 
C 75.503615 300.829432 75.757749 301.712819 76.210047 302.364052 
C 76.662344 303.015286 77.275877 303.381196 77.915523 303.381196 
z
" style="fill:#ff0000;opacity:0.2;stroke:#ff0000;stroke-linejoin:miter;stroke-width:2;"/>
   </g>
   <g id="patch_6">
    <path clip-path="url(#p452c63d221)" d="M 61.032172 261.708232 
C 61.671818 261.708232 62.285351 261.342321 62.737648 260.691088 
C 63.189946 260.039854 63.444079 259.156468 63.444079 258.235485 
C 63.444079 257.314501 63.189946 256.431115 62.737648 255.779882 
C 62.285351 255.128648 61.671818 254.762738 61.032172 254.762738 
C 60.392527 254.762738 59.778994 255.128648 59.326696 255.779882 
C 58.874399 256.431115 58.620265 257.314501 58.620265 258.235485 
C 58.620265 259.156468 58.874399 260.039854 59.326696 260.691088 
C 59.778994 261.342321 60.392527 261.708232 61.032172 261.708232 
z
" style="fill:#ff0000;opacity:0.2;stroke:#ff0000;stroke-linejoin:miter;stroke-width:2;"/>
   </g>
   <g id="patch_7">
    <path clip-path="url(#p452c63d221)" d="M 214.188278 55.079783 
C 214.827923 55.079783 215.441457 54.713873 215.893754 54.062639 
C 216.346052 53.411406 216.600185 52.528019 216.600185 51.607036 
C 216.600185 50.686053 216.346052 49.802667 215.893754 49.151433 
C 215.441457 48.5002 214.827923 48.134289 214.188278 48.134289 
C 213.548633 48.134289 212.9351 48.5002 212.482802 49.151433 
C 212.030505 49.802667 211.776371 50.686053 211.776371 51.607036 
C 211.776371 52.528019 212.030505 53.411406 212.482802 54.062639 
C 212.9351 54.713873 213.548633 55.079783 214.188278 55.079783 
z
" style="fill:#ff0000;opacity:0.2;stroke:#ff0000;stroke-linejoin:miter;stroke-width:2;"/>
   </g>
   <g id="patch_8">
    <path clip-path="url(#p452c63d221)" d="M 270.868097 55.079783 
C 271.507742 55.079783 272.121275 54.713873 272.573573 54.062639 
C 273.02587 53.411406 273.280004 52.528019 273.280004 51.607036 
C 273.280004 50.686053 273.02587 49.802667 272.573573 49.151433 
C 272.121275 48.5002 271.507742 48.134289 270.868097 48.134289 
C 270.228452 48.134289 269.614918 48.5002 269.162621 49.151433 
C 268.710323 49.802667 268.45619 50.686053 268.45619 51.607036 
C 268.45619 52.528019 268.710323 53.411406 269.162621 54.062639 
C 269.614918 54.713873 270.228452 55.079783 270.868097 55.079783 
z
" style="fill:#ff0000;opacity:0.2;stroke:#ff0000;stroke-linejoin:miter;stroke-width:2;"/>
   </g>
   <g id="patch_9">
    <path clip-path="url(#p452c63d221)" d="M 424.024203 261.708232 
C 424.663848 261.708232 425.277381 261.342321 425.729679 260.691088 
C 426.181976 260.039854 426.43611 259.156468 426.43611 258.235485 
C 426.43611 257.314501 426.181976 256.431115 425.729679 255.779882 
C 425.277381 255.128648 424.663848 254.762738 424.024203 254.762738 
C 423.384557 254.762738 422.771024 255.128648 422.318727 255.779882 
C 421.866429 256.431115 421.612296 257.314501 421.612296 258.235485 
C 421.612296 259.156468 421.866429 260.039854 422.318727 260.691088 
C 422.771024 261.342321 423.384557 261.708232 424.024203 261.708232 
z
" style="fill:#ff0000;opacity:0.2;stroke:#ff0000;stroke-linejoin:miter;stroke-width:2;"/>
   </g>
   <g id="patch_10">
    <path clip-path="url(#p452c63d221)" d="M 70.076824 272.126473 
C 70.716469 272.126473 71.330003 271.760562 71.7823 271.109329 
C 72.234598 270.458095 72.488731 269.574709 72.488731 268.653726 
C 72.488731 267.732743 72.234598 266.849356 71.7823 266.198123 
C 71.330003 265.546889 70.716469 265.180979 70.076824 265.180979 
C 69.437179 265.180979 68.823646 265.546889 68.371348 266.198123 
C 67.919051 266.849356 67.664917 267.732743 67.664917 268.653726 
C 67.664917 269.574709 67.919051 270.458095 68.371348 271.109329 
C 68.823646 271.760562 69.437179 272.126473 70.076824 272.126473 
z
" style="fill:#0000ff;opacity:0.2;stroke:#0000ff;stroke-linejoin:miter;stroke-width:2;"/>
   </g>
   <g id="patch_11">
    <path clip-path="url(#p452c63d221)" d="M 217.203162 72.443518 
C 217.842807 72.443518 218.456341 72.077608 218.908638 71.426374 
C 219.360936 70.775141 219.615069 69.891755 219.615069 68.970771 
C 219.615069 68.049788 219.360936 67.166402 218.908638 66.515168 
C 218.456341 65.863935 217.842807 65.498024 217.203162 65.498024 
C 216.563517 65.498024 215.949984 65.863935 215.497686 66.515168 
C 215.045389 67.166402 214.791255 68.049788 214.791255 68.970771 
C 214.791255 69.891755 215.045389 70.775141 215.497686 71.426374 
C 215.949984 72.077608 216.563517 72.443518 217.203162 72.443518 
z
" style="fill:#0000ff;opacity:0.2;stroke:#0000ff;stroke-linejoin:miter;stroke-width:2;"/>
   </g>
   <g id="patch_12">
    <path clip-path="url(#p452c63d221)" d="M 267.853213 72.443518 
C 268.492858 72.443518 269.106391 72.077608 269.558689 71.426374 
C 270.010986 70.775141 270.26512 69.891755 270.26512 68.970771 
C 270.26512 68.049788 270.010986 67.166402 269.558689 66.515168 
C 269.106391 65.863935 268.492858 65.498024 267.853213 65.498024 
C 267.213568 65.498024 266.600034 65.863935 266.147737 66.515168 
C 265.695439 67.166402 265.441306 68.049788 265.441306 68.970771 
C 265.441306 69.891755 265.695439 70.775141 266.147737 71.426374 
C 266.600034 72.077608 267.213568 72.443518 267.853213 72.443518 
z
" style="fill:#0000ff;opacity:0.2;stroke:#0000ff;stroke-linejoin:miter;stroke-width:2;"/>
   </g>
   <g id="patch_13">
    <path clip-path="url(#p452c63d221)" d="M 414.979551 272.126473 
C 415.619196 272.126473 416.232729 271.760562 416.685027 271.109329 
C 417.137324 270.458095 417.391458 269.574709 417.391458 268.653726 
C 417.391458 267.732743 417.137324 266.849356 416.685027 266.198123 
C 416.232729 265.546889 415.619196 265.180979 414.979551 265.180979 
C 414.339906 265.180979 413.726372 265.546889 413.274075 266.198123 
C 412.821777 266.849356 412.567644 267.732743 412.567644 268.653726 
C 412.567644 269.574709 412.821777 270.458095 413.274075 271.109329 
C 413.726372 271.760562 414.339906 272.126473 414.979551 272.126473 
z
" style="fill:#0000ff;opacity:0.2;stroke:#0000ff;stroke-linejoin:miter;stroke-width:2;"/>
   </g>
   <g id="patch_14">
    <path clip-path="url(#p452c63d221)" d="M 400.508108 306.853943 
C 401.147753 306.853943 401.761286 306.488033 402.213584 305.836799 
C 402.665881 305.185566 402.920015 304.302179 402.920015 303.381196 
C 402.920015 302.460213 402.665881 301.576827 402.213584 300.925593 
C 401.761286 300.27436 401.147753 299.908449 400.508108 299.908449 
C 399.868462 299.908449 399.254929 300.27436 398.802632 300.925593 
C 398.350334 301.576827 398.096201 302.460213 398.096201 303.381196 
C 398.096201 304.302179 398.350334 305.185566 398.802632 305.836799 
C 399.254929 306.488033 399.868462 306.853943 400.508108 306.853943 
z
" style="fill:#0000ff;opacity:0.2;stroke:#0000ff;stroke-linejoin:miter;stroke-width:2;"/>
   </g>
   <g id="patch_15">
    <path clip-path="url(#p452c63d221)" d="M 260.617491 204.407906 
C 261.257137 204.407906 261.87067 204.041995 262.322967 203.390762 
C 262.775265 202.739528 263.029399 201.856142 263.029399 200.935159 
C 263.029399 200.014175 262.775265 199.130789 262.322967 198.479556 
C 261.87067 197.828322 261.257137 197.462412 260.617491 197.462412 
C 259.977846 197.462412 259.364313 197.828322 258.912015 198.479556 
C 258.459718 199.130789 258.205584 200.014175 258.205584 200.935159 
C 258.205584 201.856142 258.459718 202.739528 258.912015 203.390762 
C 259.364313 204.041995 259.977846 204.407906 260.617491 204.407906 
z
" style="fill:#0000ff;opacity:0.2;stroke:#0000ff;stroke-linejoin:miter;stroke-width:2;"/>
   </g>
   <g id="patch_16">
    <path clip-path="url(#p452c63d221)" d="M 222.026976 204.407906 
C 222.666622 204.407906 223.280155 204.041995 223.732452 203.390762 
C 224.18475 202.739528 224.438884 201.856142 224.438884 200.935159 
C 224.438884 200.014175 224.18475 199.130789 223.732452 198.479556 
C 223.280155 197.828322 222.666622 197.462412 222.026976 197.462412 
C 221.387331 197.462412 220.773798 197.828322 220.321501 198.479556 
C 219.869203 199.130789 219.615069 200.014175 219.615069 200.935159 
C 219.615069 201.856142 219.869203 202.739528 220.321501 203.390762 
C 220.773798 204.041995 221.387331 204.407906 222.026976 204.407906 
z
" style="fill:#0000ff;opacity:0.2;stroke:#0000ff;stroke-linejoin:miter;stroke-width:2;"/>
   </g>
   <g id="patch_17">
    <path clip-path="url(#p452c63d221)" d="M 85.754221 306.853943 
C 86.393866 306.853943 87.007399 306.488033 87.459697 305.836799 
C 87.911994 305.185566 88.166128 304.302179 88.166128 303.381196 
C 88.166128 302.460213 87.911994 301.576827 87.459697 300.925593 
C 87.007399 300.27436 86.393866 299.908449 85.754221 299.908449 
C 85.114576 299.908449 84.501042 300.27436 84.048745 300.925593 
C 83.596447 301.576827 83.342314 302.460213 83.342314 303.381196 
C 83.342314 304.302179 83.596447 305.185566 84.048745 305.836799 
C 84.501042 306.488033 85.114576 306.853943 85.754221 306.853943 
z
" style="fill:#0000ff;opacity:0.2;stroke:#0000ff;stroke-linejoin:miter;stroke-width:2;"/>
   </g>
   <g id="patch_18">
    <path clip-path="url(#p452c63d221)" d="M 408.346806 299.908449 
L 262.426422 213.089773 
C 249.160932 202.671532 235.895443 200.935159 222.629953 211.3534 
L 77.915523 299.908449 
C 67.06194 299.908449 56.208358 277.335593 61.032172 258.235485 
L 214.188278 51.607036 
C 231.071628 27.297807 253.984747 29.03418 270.868097 51.607036 
L 424.024203 258.235485 
C 428.848017 277.335593 416.788481 298.172076 408.346806 299.908449 
" style="fill:none;stroke:#ff0000;stroke-linejoin:miter;stroke-width:0.5;"/>
   </g>
   <g id="patch_19">
    <path clip-path="url(#p452c63d221)" d="M 70.076824 268.653726 
L 217.203162 68.970771 
C 234.086512 44.661542 250.969863 46.397916 267.853213 68.970771 
L 414.979551 268.653726 
C 414.979551 284.281087 407.743829 301.644823 400.508108 303.381196 
L 260.617491 200.935159 
C 243.734141 188.780544 238.910327 188.780544 222.026976 200.935159 
L 85.754221 303.381196 
C 74.900639 303.381196 70.076824 284.281087 70.076824 268.653726 
" style="fill:none;stroke:#0000ff;stroke-linejoin:miter;stroke-width:0.5;"/>
   </g>
   <g id="[&quot;g_s&quot;:1,&quot;g_t&quot;:5,&quot;coords&quot;:[[373.0, 6.0],[366.5, 4.0]],&quot;certainty&quot;:4]">
    <path clip-path="url(#p452c63d221)" d="M 408.346806 304.249383 
C 409.146363 304.249383 409.913279 303.791995 410.478651 302.977953 
C 411.044023 302.163911 411.36169 301.059678 411.36169 299.908449 
C 411.36169 298.75722 411.044023 297.652987 410.478651 296.838945 
C 409.913279 296.024903 409.146363 295.567515 408.346806 295.567515 
C 407.547249 295.567515 406.780333 296.024903 406.214961 296.838945 
C 405.649589 297.652987 405.331922 298.75722 405.331922 299.908449 
C 405.331922 301.059678 405.649589 302.163911 406.214961 302.977953 
C 406.780333 303.791995 407.547249 304.249383 408.346806 304.249383 
z
" style="fill:#0000ff;opacity:0.2;stroke:#0000ff;stroke-linejoin:miter;stroke-width:2;"/>
   </g>
   <g id="[&quot;g_s&quot;:5,&quot;g_t&quot;:1,&quot;coords&quot;:[[366.5, 4.0],[373.0, 6.0]],&quot;certainty&quot;:4]">
    <path clip-path="url(#p452c63d221)" d="M 400.508108 307.72213 
C 401.307664 307.72213 402.074581 307.264742 402.639953 306.4507 
C 403.205324 305.636658 403.522992 304.532425 403.522992 303.381196 
C 403.522992 302.229967 403.205324 301.125734 402.639953 300.311692 
C 402.074581 299.497651 401.307664 299.040262 400.508108 299.040262 
C 399.708551 299.040262 398.941635 299.497651 398.376263 300.311692 
C 397.810891 301.125734 397.493224 302.229967 397.493224 303.381196 
C 397.493224 304.532425 397.810891 305.636658 398.376263 306.4507 
C 398.941635 307.264742 399.708551 307.72213 400.508108 307.72213 
z
" style="fill:#ff0000;opacity:0.2;stroke:#ff0000;stroke-linejoin:miter;stroke-width:2;"/>
   </g>
   <g id="patch_20">
    <path d="M 408.346806 299.908449 
Q 405.340313 301.240404 403.141948 302.214336 
" style="fill:none;opacity:0.5;stroke:#0000ff;stroke-linecap:round;stroke-width:1.25;"/>
    <path d="M 405.120969 302.978192 
L 403.141948 302.214336 
L 403.905803 300.235315 
" style="fill:none;opacity:0.5;stroke:#0000ff;stroke-linecap:round;stroke-width:1.25;"/>
   </g>
   <g id="[&quot;g_s&quot;:2,&quot;g_t&quot;:6,&quot;coords&quot;:[[252.0, 56.0],[250.5, 63.0]],&quot;certainty&quot;:5]">
    <path clip-path="url(#p452c63d221)" d="M 262.426422 218.298894 
C 263.38589 218.298894 264.306189 217.750028 264.984636 216.773178 
C 265.663082 215.796327 266.044282 214.471248 266.044282 213.089773 
C 266.044282 211.708298 265.663082 210.383219 264.984636 209.406369 
C 264.306189 208.429518 263.38589 207.880653 262.426422 207.880653 
C 261.466954 207.880653 260.546654 208.429518 259.868208 209.406369 
C 259.189762 210.383219 258.808561 211.708298 258.808561 213.089773 
C 258.808561 214.471248 259.189762 215.796327 259.868208 216.773178 
C 260.546654 217.750028 261.466954 218.298894 262.426422 218.298894 
z
" style="fill:#0000ff;opacity:0.2;stroke:#0000ff;stroke-linejoin:miter;stroke-width:2;"/>
   </g>
   <g id="[&quot;g_s&quot;:6,&quot;g_t&quot;:2,&quot;coords&quot;:[[250.5, 63.0],[252.0, 56.0]],&quot;certainty&quot;:5]">
    <path clip-path="url(#p452c63d221)" d="M 260.617491 206.144279 
C 261.576959 206.144279 262.497259 205.595413 263.175705 204.618563 
C 263.854151 203.641713 264.235352 202.316634 264.235352 200.935159 
C 264.235352 199.553684 263.854151 198.228604 263.175705 197.251754 
C 262.497259 196.274904 261.576959 195.726038 260.617491 195.726038 
C 259.658023 195.726038 258.737724 196.274904 258.059277 197.251754 
C 257.380831 198.228604 256.999631 199.553684 256.999631 200.935159 
C 256.999631 202.316634 257.380831 203.641713 258.059277 204.618563 
C 258.737724 205.595413 259.658023 206.144279 260.617491 206.144279 
z
" style="fill:#ff0000;opacity:0.2;stroke:#ff0000;stroke-linejoin:miter;stroke-width:2;"/>
   </g>
   <g id="patch_21">
    <path d="M 262.426422 213.089773 
Q 261.669241 208.002106 261.068196 203.963543 
" style="fill:none;opacity:0.5;stroke:#0000ff;stroke-linecap:round;stroke-width:1.5;"/>
    <path d="M 259.805345 205.66801 
L 261.068196 203.963543 
L 262.772663 205.226394 
" style="fill:none;opacity:0.5;stroke:#0000ff;stroke-linecap:round;stroke-width:1.5;"/>
   </g>
   <g id="[&quot;g_s&quot;:3,&quot;g_t&quot;:7,&quot;coords&quot;:[[219.0, 57.0],[218.5, 63.0]],&quot;certainty&quot;:6]">
    <path clip-path="url(#p452c63d221)" d="M 222.629953 217.430707 
C 223.749332 217.430707 224.823016 216.790364 225.614536 215.650705 
C 226.406057 214.511046 226.850791 212.96512 226.850791 211.3534 
C 226.850791 209.741679 226.406057 208.195753 225.614536 207.056094 
C 224.823016 205.916436 223.749332 205.276092 222.629953 205.276092 
C 221.510574 205.276092 220.436891 205.916436 219.64537 207.056094 
C 218.85385 208.195753 218.409116 209.741679 218.409116 211.3534 
C 218.409116 212.96512 218.85385 214.511046 219.64537 215.650705 
C 220.436891 216.790364 221.510574 217.430707 222.629953 217.430707 
z
" style="fill:#0000ff;opacity:0.2;stroke:#0000ff;stroke-linejoin:miter;stroke-width:2;"/>
   </g>
   <g id="[&quot;g_s&quot;:7,&quot;g_t&quot;:3,&quot;coords&quot;:[[218.5, 63.0],[219.0, 57.0]],&quot;certainty&quot;:6]">
    <path clip-path="url(#p452c63d221)" d="M 222.026976 207.012466 
C 223.146356 207.012466 224.220039 206.372122 225.011559 205.232464 
C 225.80308 204.092805 226.247814 202.546879 226.247814 200.935159 
C 226.247814 199.323438 225.80308 197.777512 225.011559 196.637853 
C 224.220039 195.498195 223.146356 194.857851 222.026976 194.857851 
C 220.907597 194.857851 219.833914 195.498195 219.042394 196.637853 
C 218.250873 197.777512 217.806139 199.323438 217.806139 200.935159 
C 217.806139 202.546879 218.250873 204.092805 219.042394 205.232464 
C 219.833914 206.372122 220.907597 207.012466 222.026976 207.012466 
z
" style="fill:#ff0000;opacity:0.2;stroke:#ff0000;stroke-linejoin:miter;stroke-width:2;"/>
   </g>
   <g id="patch_22">
    <path d="M 222.629953 211.3534 
Q 222.386245 207.142609 222.214037 204.167188 
" style="fill:none;opacity:0.5;stroke:#0000ff;stroke-linecap:round;stroke-width:1.75;"/>
    <path d="M 220.803213 205.751353 
L 222.214037 204.167188 
L 223.798201 205.578012 
" style="fill:none;opacity:0.5;stroke:#0000ff;stroke-linecap:round;stroke-width:1.75;"/>
   </g>
   <g id="[&quot;g_s&quot;:4,&quot;g_t&quot;:8,&quot;coords&quot;:[[99.0, 6.0],[105.5, 4.0]],&quot;certainty&quot;:7]">
    <path clip-path="url(#p452c63d221)" d="M 77.915523 306.853943 
C 79.194813 306.853943 80.421879 306.122122 81.326474 304.819655 
C 82.231069 303.517188 82.739337 301.750416 82.739337 299.908449 
C 82.739337 298.066483 82.231069 296.29971 81.326474 294.997243 
C 80.421879 293.694776 79.194813 292.962955 77.915523 292.962955 
C 76.636232 292.962955 75.409166 293.694776 74.504571 294.997243 
C 73.599976 296.29971 73.091708 298.066483 73.091708 299.908449 
C 73.091708 301.750416 73.599976 303.517188 74.504571 304.819655 
C 75.409166 306.122122 76.636232 306.853943 77.915523 306.853943 
z
" style="fill:#0000ff;opacity:0.2;stroke:#0000ff;stroke-linejoin:miter;stroke-width:2;"/>
   </g>
   <g id="[&quot;g_s&quot;:8,&quot;g_t&quot;:4,&quot;coords&quot;:[[105.5, 4.0],[99.0, 6.0]],&quot;certainty&quot;:7]">
    <path clip-path="url(#p452c63d221)" d="M 85.754221 310.32669 
C 87.033511 310.32669 88.260578 309.594869 89.165173 308.292402 
C 90.069768 306.989935 90.578035 305.223163 90.578035 303.381196 
C 90.578035 301.53923 90.069768 299.772457 89.165173 298.46999 
C 88.260578 297.167523 87.033511 296.435702 85.754221 296.435702 
C 84.47493 296.435702 83.247864 297.167523 82.343269 298.46999 
C 81.438674 299.772457 80.930407 301.53923 80.930407 303.381196 
C 80.930407 305.223163 81.438674 306.989935 82.343269 308.292402 
C 83.247864 309.594869 84.47493 310.32669 85.754221 310.32669 
z
" style="fill:#ff0000;opacity:0.2;stroke:#ff0000;stroke-linejoin:miter;stroke-width:2;"/>
   </g>
   <g id="patch_23">
    <path d="M 77.915523 299.908449 
Q 80.922016 301.240404 82.635504 301.999524 
" style="fill:none;opacity:0.5;stroke:#0000ff;stroke-linecap:round;stroke-width:2;"/>
    <path d="M 81.871648 300.020502 
L 82.635504 301.999524 
L 80.656483 302.763379 
" style="fill:none;opacity:0.5;stroke:#0000ff;stroke-linecap:round;stroke-width:2;"/>
   </g>
   <g id="[&quot;g_s&quot;:5,&quot;g_t&quot;:1,&quot;coords&quot;:[[85.0, 30.0],[92.5, 24.0]],&quot;certainty&quot;:10]">
    <path clip-path="url(#p452c63d221)" d="M 61.032172 267.785539 
C 62.791197 267.785539 64.478413 266.779285 65.722231 264.988393 
C 66.966049 263.197501 67.664917 260.768189 67.664917 258.235485 
C 67.664917 255.702781 66.966049 253.273469 65.722231 251.482576 
C 64.478413 249.691684 62.791197 248.68543 61.032172 248.68543 
C 59.273148 248.68543 57.585932 249.691684 56.342114 251.482576 
C 55.098295 253.273469 54.399428 255.702781 54.399428 258.235485 
C 54.399428 260.768189 55.098295 263.197501 56.342114 264.988393 
C 57.585932 266.779285 59.273148 267.785539 61.032172 267.785539 
z
" style="fill:#0000ff;opacity:0.2;stroke:#0000ff;stroke-linejoin:miter;stroke-width:2;"/>
   </g>
   <g id="[&quot;g_s&quot;:1,&quot;g_t&quot;:5,&quot;coords&quot;:[[92.5, 24.0],[85.0, 30.0]],&quot;certainty&quot;:10]">
    <path clip-path="url(#p452c63d221)" d="M 70.076824 278.20378 
C 71.835849 278.20378 73.523065 277.197526 74.766883 275.406634 
C 76.010701 273.615742 76.709569 271.18643 76.709569 268.653726 
C 76.709569 266.121022 76.010701 263.69171 74.766883 261.900818 
C 73.523065 260.109925 71.835849 259.103671 70.076824 259.103671 
C 68.3178 259.103671 66.630584 260.109925 65.386765 261.900818 
C 64.142947 263.69171 63.444079 266.121022 63.444079 268.653726 
C 63.444079 271.18643 64.142947 273.615742 65.386765 275.406634 
C 66.630584 277.197526 68.3178 278.20378 70.076824 278.20378 
z
" style="fill:#ff0000;opacity:0.2;stroke:#ff0000;stroke-linejoin:miter;stroke-width:2;"/>
   </g>
   <g id="patch_24">
    <path d="M 61.032172 258.235485 
Q 64.899777 262.690453 67.492592 265.677033 
" style="fill:none;opacity:0.5;stroke:#0000ff;stroke-linecap:round;stroke-width:2.75;"/>
    <path d="M 67.641933 263.560976 
L 67.492592 265.677033 
L 65.376535 265.527693 
" style="fill:none;opacity:0.5;stroke:#0000ff;stroke-linecap:round;stroke-width:2.75;"/>
   </g>
   <g id="[&quot;g_s&quot;:6,&quot;g_t&quot;:2,&quot;coords&quot;:[[212.0, 149.0],[214.5, 139.0]],&quot;certainty&quot;:10]">
    <path clip-path="url(#p452c63d221)" d="M 214.188278 61.15709 
C 215.947303 61.15709 217.634519 60.150836 218.878337 58.359944 
C 220.122155 56.569052 220.821023 54.13974 220.821023 51.607036 
C 220.821023 49.074332 220.122155 46.64502 218.878337 44.854128 
C 217.634519 43.063236 215.947303 42.056982 214.188278 42.056982 
C 212.429254 42.056982 210.742037 43.063236 209.498219 44.854128 
C 208.254401 46.64502 207.555533 49.074332 207.555533 51.607036 
C 207.555533 54.13974 208.254401 56.569052 209.498219 58.359944 
C 210.742037 60.150836 212.429254 61.15709 214.188278 61.15709 
z
" style="fill:#0000ff;opacity:0.2;stroke:#0000ff;stroke-linejoin:miter;stroke-width:2;"/>
   </g>
   <g id="[&quot;g_s&quot;:2,&quot;g_t&quot;:6,&quot;coords&quot;:[[214.5, 139.0],[212.0, 149.0]],&quot;certainty&quot;:10]">
    <path clip-path="url(#p452c63d221)" d="M 217.203162 78.520826 
C 218.962187 78.520826 220.649403 77.514572 221.893221 75.723679 
C 223.137039 73.932787 223.835907 71.503475 223.835907 68.970771 
C 223.835907 66.438067 223.137039 64.008755 221.893221 62.217863 
C 220.649403 60.426971 218.962187 59.420717 217.203162 59.420717 
C 215.444138 59.420717 213.756921 60.426971 212.513103 62.217863 
C 211.269285 64.008755 210.570417 66.438067 210.570417 68.970771 
C 210.570417 71.503475 211.269285 73.932787 212.513103 75.723679 
C 213.756921 77.514572 215.444138 78.520826 217.203162 78.520826 
z
" style="fill:#ff0000;opacity:0.2;stroke:#ff0000;stroke-linejoin:miter;stroke-width:2;"/>
   </g>
   <g id="patch_25">
    <path d="M 214.188278 51.607036 
Q 215.524587 59.303291 216.52824 65.083668 
" style="fill:none;opacity:0.5;stroke:#0000ff;stroke-linecap:round;stroke-width:2.75;"/>
    <path d="M 217.749521 63.349173 
L 216.52824 65.083668 
L 214.793745 63.862387 
" style="fill:none;opacity:0.5;stroke:#0000ff;stroke-linecap:round;stroke-width:2.75;"/>
   </g>
   <g id="[&quot;g_s&quot;:7,&quot;g_t&quot;:3,&quot;coords&quot;:[[259.0, 149.0],[256.5, 139.0]],&quot;certainty&quot;:7]">
    <path clip-path="url(#p452c63d221)" d="M 270.868097 58.55253 
C 272.147387 58.55253 273.374454 57.820709 274.279049 56.518242 
C 275.183644 55.215775 275.691911 53.449003 275.691911 51.607036 
C 275.691911 49.76507 275.183644 47.998297 274.279049 46.69583 
C 273.374454 45.393363 272.147387 44.661542 270.868097 44.661542 
C 269.588806 44.661542 268.36174 45.393363 267.457145 46.69583 
C 266.55255 47.998297 266.044282 49.76507 266.044282 51.607036 
C 266.044282 53.449003 266.55255 55.215775 267.457145 56.518242 
C 268.36174 57.820709 269.588806 58.55253 270.868097 58.55253 
z
" style="fill:#0000ff;opacity:0.2;stroke:#0000ff;stroke-linejoin:miter;stroke-width:2;"/>
   </g>
   <g id="[&quot;g_s&quot;:3,&quot;g_t&quot;:7,&quot;coords&quot;:[[256.5, 139.0],[259.0, 149.0]],&quot;certainty&quot;:7]">
    <path clip-path="url(#p452c63d221)" d="M 267.853213 75.916265 
C 269.132503 75.916265 270.35957 75.184444 271.264165 73.881977 
C 272.16876 72.57951 272.677027 70.812738 272.677027 68.970771 
C 272.677027 67.128805 272.16876 65.362032 271.264165 64.059565 
C 270.35957 62.757098 269.132503 62.025277 267.853213 62.025277 
C 266.573922 62.025277 265.346856 62.757098 264.442261 64.059565 
C 263.537666 65.362032 263.029399 67.128805 263.029399 68.970771 
C 263.029399 70.812738 263.537666 72.57951 264.442261 73.881977 
C 265.346856 75.184444 266.573922 75.916265 267.853213 75.916265 
z
" style="fill:#ff0000;opacity:0.2;stroke:#ff0000;stroke-linejoin:miter;stroke-width:2;"/>
   </g>
   <g id="patch_26">
    <path d="M 270.868097 51.607036 
Q 269.531788 59.303291 268.43741 65.60618 
" style="fill:none;opacity:0.5;stroke:#0000ff;stroke-linecap:round;stroke-width:2;"/>
    <path d="M 270.171906 64.3849 
L 268.43741 65.60618 
L 267.21613 63.871685 
" style="fill:none;opacity:0.5;stroke:#0000ff;stroke-linecap:round;stroke-width:2;"/>
   </g>
   <g id="[&quot;g_s&quot;:8,&quot;g_t&quot;:4,&quot;coords&quot;:[[386.0, 30.0],[378.5, 24.0]],&quot;certainty&quot;:11]">
    <path clip-path="url(#p452c63d221)" d="M 424.024203 268.653726 
C 425.943138 268.653726 427.783738 267.555994 429.14063 265.602294 
C 430.497523 263.648593 431.259924 260.998435 431.259924 258.235485 
C 431.259924 255.472535 430.497523 252.822376 429.14063 250.868676 
C 427.783738 248.914975 425.943138 247.817244 424.024203 247.817244 
C 422.105267 247.817244 420.264667 248.914975 418.907775 250.868676 
C 417.550882 252.822376 416.788481 255.472535 416.788481 258.235485 
C 416.788481 260.998435 417.550882 263.648593 418.907775 265.602294 
C 420.264667 267.555994 422.105267 268.653726 424.024203 268.653726 
z
" style="fill:#0000ff;opacity:0.2;stroke:#0000ff;stroke-linejoin:miter;stroke-width:2;"/>
   </g>
   <g id="[&quot;g_s&quot;:4,&quot;g_t&quot;:8,&quot;coords&quot;:[[378.5, 24.0],[386.0, 30.0]],&quot;certainty&quot;:11]">
    <path clip-path="url(#p452c63d221)" d="M 414.979551 279.071967 
C 416.898487 279.071967 418.739086 277.974235 420.095979 276.020535 
C 421.452871 274.066834 422.215272 271.416676 422.215272 268.653726 
C 422.215272 265.890776 421.452871 263.240617 420.095979 261.286917 
C 418.739086 259.333216 416.898487 258.235485 414.979551 258.235485 
C 413.060615 258.235485 411.220016 259.333216 409.863123 261.286917 
C 408.50623 263.240617 407.743829 265.890776 407.743829 268.653726 
C 407.743829 271.416676 408.50623 274.066834 409.863123 276.020535 
C 411.220016 277.974235 413.060615 279.071967 414.979551 279.071967 
z
" style="fill:#ff0000;opacity:0.2;stroke:#ff0000;stroke-linejoin:miter;stroke-width:2;"/>
   </g>
   <g id="patch_27">
    <path d="M 424.024203 258.235485 
Q 420.156598 262.690453 417.679673 265.543543 
" style="fill:none;opacity:0.5;stroke:#0000ff;stroke-linecap:round;stroke-width:3;"/>
    <path d="M 419.79573 265.394203 
L 417.679673 265.543543 
L 417.530332 263.427486 
" style="fill:none;opacity:0.5;stroke:#0000ff;stroke-linecap:round;stroke-width:3;"/>
   </g>
   <g id="[&quot;g_s&quot;:1,&quot;g_t&quot;:5,&quot;coords&quot;:[[92.5, 24.0],[85.0, 30.0]],&quot;certainty&quot;:10]">
    <path clip-path="url(#p452c63d221)" d="M 70.076824 278.20378 
C 71.835849 278.20378 73.523065 277.197526 74.766883 275.406634 
C 76.010701 273.615742 76.709569 271.18643 76.709569 268.653726 
C 76.709569 266.121022 76.010701 263.69171 74.766883 261.900818 
C 73.523065 260.109925 71.835849 259.103671 70.076824 259.103671 
C 68.3178 259.103671 66.630584 260.109925 65.386765 261.900818 
C 64.142947 263.69171 63.444079 266.121022 63.444079 268.653726 
C 63.444079 271.18643 64.142947 273.615742 65.386765 275.406634 
C 66.630584 277.197526 68.3178 278.20378 70.076824 278.20378 
z
" style="fill:#0000ff;opacity:0.2;stroke:#0000ff;stroke-linejoin:miter;stroke-width:2;"/>
   </g>
   <g id="[&quot;g_s&quot;:5,&quot;g_t&quot;:1,&quot;coords&quot;:[[85.0, 30.0],[92.5, 24.0]],&quot;certainty&quot;:10]">
    <path clip-path="url(#p452c63d221)" d="M 61.032172 267.785539 
C 62.791197 267.785539 64.478413 266.779285 65.722231 264.988393 
C 66.966049 263.197501 67.664917 260.768189 67.664917 258.235485 
C 67.664917 255.702781 66.966049 253.273469 65.722231 251.482576 
C 64.478413 249.691684 62.791197 248.68543 61.032172 248.68543 
C 59.273148 248.68543 57.585932 249.691684 56.342114 251.482576 
C 55.098295 253.273469 54.399428 255.702781 54.399428 258.235485 
C 54.399428 260.768189 55.098295 263.197501 56.342114 264.988393 
C 57.585932 266.779285 59.273148 267.785539 61.032172 267.785539 
z
" style="fill:#ff0000;opacity:0.2;stroke:#ff0000;stroke-linejoin:miter;stroke-width:2;"/>
   </g>
   <g id="patch_28">
    <path d="M 70.076824 268.653726 
Q 66.20922 264.198758 63.616404 261.212178 
" style="fill:none;opacity:0.5;stroke:#ff0000;stroke-linecap:round;stroke-width:2.75;"/>
    <path d="M 63.467064 263.328235 
L 63.616404 261.212178 
L 65.732461 261.361518 
" style="fill:none;opacity:0.5;stroke:#ff0000;stroke-linecap:round;stroke-width:2.75;"/>
   </g>
   <g id="[&quot;g_s&quot;:2,&quot;g_t&quot;:6,&quot;coords&quot;:[[214.5, 139.0],[212.0, 149.0]],&quot;certainty&quot;:11]">
    <path clip-path="url(#p452c63d221)" d="M 217.203162 79.389012 
C 219.122098 79.389012 220.962697 78.291281 222.31959 76.33758 
C 223.676482 74.38388 224.438884 71.733721 224.438884 68.970771 
C 224.438884 66.207821 223.676482 63.557663 222.31959 61.603962 
C 220.962697 59.650262 219.122098 58.55253 217.203162 58.55253 
C 215.284226 58.55253 213.443627 59.650262 212.086734 61.603962 
C 210.729842 63.557663 209.967441 66.207821 209.967441 68.970771 
C 209.967441 71.733721 210.729842 74.38388 212.086734 76.33758 
C 213.443627 78.291281 215.284226 79.389012 217.203162 79.389012 
z
" style="fill:#0000ff;opacity:0.2;stroke:#0000ff;stroke-linejoin:miter;stroke-width:2;"/>
   </g>
   <g id="[&quot;g_s&quot;:6,&quot;g_t&quot;:2,&quot;coords&quot;:[[212.0, 149.0],[214.5, 139.0]],&quot;certainty&quot;:11]">
    <path clip-path="url(#p452c63d221)" d="M 214.188278 62.025277 
C 216.107214 62.025277 217.947813 60.927546 219.304706 58.973845 
C 220.661598 57.020144 221.424 54.369986 221.424 51.607036 
C 221.424 48.844086 220.661598 46.193928 219.304706 44.240227 
C 217.947813 42.286527 216.107214 41.188795 214.188278 41.188795 
C 212.269342 41.188795 210.428743 42.286527 209.07185 44.240227 
C 207.714958 46.193928 206.952557 48.844086 206.952557 51.607036 
C 206.952557 54.369986 207.714958 57.020144 209.07185 58.973845 
C 210.428743 60.927546 212.269342 62.025277 214.188278 62.025277 
z
" style="fill:#ff0000;opacity:0.2;stroke:#ff0000;stroke-linejoin:miter;stroke-width:2;"/>
   </g>
   <g id="patch_29">
    <path d="M 217.203162 68.970771 
Q 215.866853 61.274516 214.893442 55.66831 
" style="fill:none;opacity:0.5;stroke:#ff0000;stroke-linecap:round;stroke-width:3;"/>
    <path d="M 213.672161 57.402805 
L 214.893442 55.66831 
L 216.627937 56.889591 
" style="fill:none;opacity:0.5;stroke:#ff0000;stroke-linecap:round;stroke-width:3;"/>
   </g>
   <g id="[&quot;g_s&quot;:3,&quot;g_t&quot;:7,&quot;coords&quot;:[[256.5, 139.0],[259.0, 149.0]],&quot;certainty&quot;:7]">
    <path clip-path="url(#p452c63d221)" d="M 267.853213 75.916265 
C 269.132503 75.916265 270.35957 75.184444 271.264165 73.881977 
C 272.16876 72.57951 272.677027 70.812738 272.677027 68.970771 
C 272.677027 67.128805 272.16876 65.362032 271.264165 64.059565 
C 270.35957 62.757098 269.132503 62.025277 267.853213 62.025277 
C 266.573922 62.025277 265.346856 62.757098 264.442261 64.059565 
C 263.537666 65.362032 263.029399 67.128805 263.029399 68.970771 
C 263.029399 70.812738 263.537666 72.57951 264.442261 73.881977 
C 265.346856 75.184444 266.573922 75.916265 267.853213 75.916265 
z
" style="fill:#0000ff;opacity:0.2;stroke:#0000ff;stroke-linejoin:miter;stroke-width:2;"/>
   </g>
   <g id="[&quot;g_s&quot;:7,&quot;g_t&quot;:3,&quot;coords&quot;:[[259.0, 149.0],[256.5, 139.0]],&quot;certainty&quot;:7]">
    <path clip-path="url(#p452c63d221)" d="M 270.868097 58.55253 
C 272.147387 58.55253 273.374454 57.820709 274.279049 56.518242 
C 275.183644 55.215775 275.691911 53.449003 275.691911 51.607036 
C 275.691911 49.76507 275.183644 47.998297 274.279049 46.69583 
C 273.374454 45.393363 272.147387 44.661542 270.868097 44.661542 
C 269.588806 44.661542 268.36174 45.393363 267.457145 46.69583 
C 266.55255 47.998297 266.044282 49.76507 266.044282 51.607036 
C 266.044282 53.449003 266.55255 55.215775 267.457145 56.518242 
C 268.36174 57.820709 269.588806 58.55253 270.868097 58.55253 
z
" style="fill:#ff0000;opacity:0.2;stroke:#ff0000;stroke-linejoin:miter;stroke-width:2;"/>
   </g>
   <g id="patch_30">
    <path d="M 267.853213 68.970771 
Q 269.189522 61.274516 270.283899 54.971627 
" style="fill:none;opacity:0.5;stroke:#ff0000;stroke-linecap:round;stroke-width:2;"/>
    <path d="M 268.549404 56.192908 
L 270.283899 54.971627 
L 271.50518 56.706122 
" style="fill:none;opacity:0.5;stroke:#ff0000;stroke-linecap:round;stroke-width:2;"/>
   </g>
   <g id="[&quot;g_s&quot;:4,&quot;g_t&quot;:8,&quot;coords&quot;:[[378.5, 24.0],[386.0, 30.0]],&quot;certainty&quot;:11]">
    <path clip-path="url(#p452c63d221)" d="M 414.979551 279.071967 
C 416.898487 279.071967 418.739086 277.974235 420.095979 276.020535 
C 421.452871 274.066834 422.215272 271.416676 422.215272 268.653726 
C 422.215272 265.890776 421.452871 263.240617 420.095979 261.286917 
C 418.739086 259.333216 416.898487 258.235485 414.979551 258.235485 
C 413.060615 258.235485 411.220016 259.333216 409.863123 261.286917 
C 408.50623 263.240617 407.743829 265.890776 407.743829 268.653726 
C 407.743829 271.416676 408.50623 274.066834 409.863123 276.020535 
C 411.220016 277.974235 413.060615 279.071967 414.979551 279.071967 
z
" style="fill:#0000ff;opacity:0.2;stroke:#0000ff;stroke-linejoin:miter;stroke-width:2;"/>
   </g>
   <g id="[&quot;g_s&quot;:8,&quot;g_t&quot;:4,&quot;coords&quot;:[[386.0, 30.0],[378.5, 24.0]],&quot;certainty&quot;:11]">
    <path clip-path="url(#p452c63d221)" d="M 424.024203 268.653726 
C 425.943138 268.653726 427.783738 267.555994 429.14063 265.602294 
C 430.497523 263.648593 431.259924 260.998435 431.259924 258.235485 
C 431.259924 255.472535 430.497523 252.822376 429.14063 250.868676 
C 427.783738 248.914975 425.943138 247.817244 424.024203 247.817244 
C 422.105267 247.817244 420.264667 248.914975 418.907775 250.868676 
C 417.550882 252.822376 416.788481 255.472535 416.788481 258.235485 
C 416.788481 260.998435 417.550882 263.648593 418.907775 265.602294 
C 420.264667 267.555994 422.105267 268.653726 424.024203 268.653726 
z
" style="fill:#ff0000;opacity:0.2;stroke:#ff0000;stroke-linejoin:miter;stroke-width:2;"/>
   </g>
   <g id="patch_31">
    <path d="M 414.979551 268.653726 
Q 418.847155 264.198758 421.324081 261.345667 
" style="fill:none;opacity:0.5;stroke:#ff0000;stroke-linecap:round;stroke-width:3;"/>
    <path d="M 419.208024 261.495008 
L 421.324081 261.345667 
L 421.473421 263.461724 
" style="fill:none;opacity:0.5;stroke:#ff0000;stroke-linecap:round;stroke-width:3;"/>
   </g>
   <g id="[&quot;g_s&quot;:5,&quot;g_t&quot;:1,&quot;coords&quot;:[[366.5, 4.0],[373.0, 6.0]],&quot;certainty&quot;:6]">
    <path clip-path="url(#p452c63d221)" d="M 400.508108 309.458503 
C 401.627487 309.458503 402.70117 308.81816 403.492691 307.678501 
C 404.284211 306.538843 404.728945 304.992917 404.728945 303.381196 
C 404.728945 301.769475 404.284211 300.22355 403.492691 299.083891 
C 402.70117 297.944232 401.627487 297.303889 400.508108 297.303889 
C 399.388728 297.303889 398.315045 297.944232 397.523525 299.083891 
C 396.732004 300.22355 396.28727 301.769475 396.28727 303.381196 
C 396.28727 304.992917 396.732004 306.538843 397.523525 307.678501 
C 398.315045 308.81816 399.388728 309.458503 400.508108 309.458503 
z
" style="fill:#0000ff;opacity:0.2;stroke:#0000ff;stroke-linejoin:miter;stroke-width:2;"/>
   </g>
   <g id="[&quot;g_s&quot;:1,&quot;g_t&quot;:5,&quot;coords&quot;:[[373.0, 6.0],[366.5, 4.0]],&quot;certainty&quot;:6]">
    <path clip-path="url(#p452c63d221)" d="M 408.346806 305.985756 
C 409.466185 305.985756 410.539868 305.345413 411.331389 304.205754 
C 412.12291 303.066096 412.567644 301.52017 412.567644 299.908449 
C 412.567644 298.296728 412.12291 296.750803 411.331389 295.611144 
C 410.539868 294.471485 409.466185 293.831142 408.346806 293.831142 
C 407.227427 293.831142 406.153744 294.471485 405.362223 295.611144 
C 404.570703 296.750803 404.125968 298.296728 404.125968 299.908449 
C 404.125968 301.52017 404.570703 303.066096 405.362223 304.205754 
C 406.153744 305.345413 407.227427 305.985756 408.346806 305.985756 
z
" style="fill:#ff0000;opacity:0.2;stroke:#ff0000;stroke-linejoin:miter;stroke-width:2;"/>
   </g>
   <g id="patch_32">
    <path d="M 400.508108 303.381196 
Q 403.514601 302.049242 405.389715 301.218517 
" style="fill:none;opacity:0.5;stroke:#ff0000;stroke-linecap:round;stroke-width:1.75;"/>
    <path d="M 403.410694 300.454662 
L 405.389715 301.218517 
L 404.625859 303.197539 
" style="fill:none;opacity:0.5;stroke:#ff0000;stroke-linecap:round;stroke-width:1.75;"/>
   </g>
   <g id="[&quot;g_s&quot;:6,&quot;g_t&quot;:2,&quot;coords&quot;:[[250.5, 63.0],[252.0, 56.0]],&quot;certainty&quot;:6]">
    <path clip-path="url(#p452c63d221)" d="M 260.617491 207.012466 
C 261.736871 207.012466 262.810554 206.372122 263.602074 205.232464 
C 264.393595 204.092805 264.838329 202.546879 264.838329 200.935159 
C 264.838329 199.323438 264.393595 197.777512 263.602074 196.637853 
C 262.810554 195.498195 261.736871 194.857851 260.617491 194.857851 
C 259.498112 194.857851 258.424429 195.498195 257.632908 196.637853 
C 256.841388 197.777512 256.396654 199.323438 256.396654 200.935159 
C 256.396654 202.546879 256.841388 204.092805 257.632908 205.232464 
C 258.424429 206.372122 259.498112 207.012466 260.617491 207.012466 
z
" style="fill:#0000ff;opacity:0.2;stroke:#0000ff;stroke-linejoin:miter;stroke-width:2;"/>
   </g>
   <g id="[&quot;g_s&quot;:2,&quot;g_t&quot;:6,&quot;coords&quot;:[[252.0, 56.0],[250.5, 63.0]],&quot;certainty&quot;:6]">
    <path clip-path="url(#p452c63d221)" d="M 262.426422 219.167081 
C 263.545801 219.167081 264.619484 218.526737 265.411005 217.387078 
C 266.202525 216.24742 266.647259 214.701494 266.647259 213.089773 
C 266.647259 211.478052 266.202525 209.932127 265.411005 208.792468 
C 264.619484 207.652809 263.545801 207.012466 262.426422 207.012466 
C 261.307043 207.012466 260.233359 207.652809 259.441839 208.792468 
C 258.650318 209.932127 258.205584 211.478052 258.205584 213.089773 
C 258.205584 214.701494 258.650318 216.24742 259.441839 217.387078 
C 260.233359 218.526737 261.307043 219.167081 262.426422 219.167081 
z
" style="fill:#ff0000;opacity:0.2;stroke:#ff0000;stroke-linejoin:miter;stroke-width:2;"/>
   </g>
   <g id="patch_33">
    <path d="M 260.617491 200.935159 
Q 261.374672 206.022826 261.949695 209.886538 
" style="fill:none;opacity:0.5;stroke:#ff0000;stroke-linecap:round;stroke-width:1.75;"/>
    <path d="M 263.212546 208.182071 
L 261.949695 209.886538 
L 260.245228 208.623687 
" style="fill:none;opacity:0.5;stroke:#ff0000;stroke-linecap:round;stroke-width:1.75;"/>
   </g>
   <g id="[&quot;g_s&quot;:7,&quot;g_t&quot;:3,&quot;coords&quot;:[[218.5, 63.0],[219.0, 57.0]],&quot;certainty&quot;:6]">
    <path clip-path="url(#p452c63d221)" d="M 222.026976 207.012466 
C 223.146356 207.012466 224.220039 206.372122 225.011559 205.232464 
C 225.80308 204.092805 226.247814 202.546879 226.247814 200.935159 
C 226.247814 199.323438 225.80308 197.777512 225.011559 196.637853 
C 224.220039 195.498195 223.146356 194.857851 222.026976 194.857851 
C 220.907597 194.857851 219.833914 195.498195 219.042394 196.637853 
C 218.250873 197.777512 217.806139 199.323438 217.806139 200.935159 
C 217.806139 202.546879 218.250873 204.092805 219.042394 205.232464 
C 219.833914 206.372122 220.907597 207.012466 222.026976 207.012466 
z
" style="fill:#0000ff;opacity:0.2;stroke:#0000ff;stroke-linejoin:miter;stroke-width:2;"/>
   </g>
   <g id="[&quot;g_s&quot;:3,&quot;g_t&quot;:7,&quot;coords&quot;:[[219.0, 57.0],[218.5, 63.0]],&quot;certainty&quot;:6]">
    <path clip-path="url(#p452c63d221)" d="M 222.629953 217.430707 
C 223.749332 217.430707 224.823016 216.790364 225.614536 215.650705 
C 226.406057 214.511046 226.850791 212.96512 226.850791 211.3534 
C 226.850791 209.741679 226.406057 208.195753 225.614536 207.056094 
C 224.823016 205.916436 223.749332 205.276092 222.629953 205.276092 
C 221.510574 205.276092 220.436891 205.916436 219.64537 207.056094 
C 218.85385 208.195753 218.409116 209.741679 218.409116 211.3534 
C 218.409116 212.96512 218.85385 214.511046 219.64537 215.650705 
C 220.436891 216.790364 221.510574 217.430707 222.629953 217.430707 
z
" style="fill:#ff0000;opacity:0.2;stroke:#ff0000;stroke-linejoin:miter;stroke-width:2;"/>
   </g>
   <g id="patch_34">
    <path d="M 222.026976 200.935159 
Q 222.270685 205.145949 222.442893 208.12137 
" style="fill:none;opacity:0.5;stroke:#ff0000;stroke-linecap:round;stroke-width:1.75;"/>
    <path d="M 223.853717 206.537206 
L 222.442893 208.12137 
L 220.858729 206.710547 
" style="fill:none;opacity:0.5;stroke:#ff0000;stroke-linecap:round;stroke-width:1.75;"/>
   </g>
   <g id="[&quot;g_s&quot;:8,&quot;g_t&quot;:4,&quot;coords&quot;:[[105.5, 4.0],[99.0, 6.0]],&quot;certainty&quot;:5]">
    <path clip-path="url(#p452c63d221)" d="M 85.754221 308.590317 
C 86.713689 308.590317 87.633989 308.041451 88.312435 307.064601 
C 88.990881 306.08775 89.372082 304.762671 89.372082 303.381196 
C 89.372082 301.999721 88.990881 300.674642 88.312435 299.697792 
C 87.633989 298.720941 86.713689 298.172076 85.754221 298.172076 
C 84.794753 298.172076 83.874453 298.720941 83.196007 299.697792 
C 82.517561 300.674642 82.13636 301.999721 82.13636 303.381196 
C 82.13636 304.762671 82.517561 306.08775 83.196007 307.064601 
C 83.874453 308.041451 84.794753 308.590317 85.754221 308.590317 
z
" style="fill:#0000ff;opacity:0.2;stroke:#0000ff;stroke-linejoin:miter;stroke-width:2;"/>
   </g>
   <g id="[&quot;g_s&quot;:4,&quot;g_t&quot;:8,&quot;coords&quot;:[[99.0, 6.0],[105.5, 4.0]],&quot;certainty&quot;:5]">
    <path clip-path="url(#p452c63d221)" d="M 77.915523 305.11757 
C 78.87499 305.11757 79.79529 304.568704 80.473736 303.591854 
C 81.152183 302.615003 81.533383 301.289924 81.533383 299.908449 
C 81.533383 298.526974 81.152183 297.201895 80.473736 296.225045 
C 79.79529 295.248194 78.87499 294.699329 77.915523 294.699329 
C 76.956055 294.699329 76.035755 295.248194 75.357309 296.225045 
C 74.678862 297.201895 74.297662 298.526974 74.297662 299.908449 
C 74.297662 301.289924 74.678862 302.615003 75.357309 303.591854 
C 76.035755 304.568704 76.956055 305.11757 77.915523 305.11757 
z
" style="fill:#ff0000;opacity:0.2;stroke:#ff0000;stroke-linejoin:miter;stroke-width:2;"/>
   </g>
   <g id="patch_35">
    <path d="M 85.754221 303.381196 
Q 82.747728 302.049242 80.710988 301.146913 
" style="fill:none;opacity:0.5;stroke:#ff0000;stroke-linecap:round;stroke-width:1.5;"/>
    <path d="M 81.474844 303.125934 
L 80.710988 301.146913 
L 82.69001 300.383058 
" style="fill:none;opacity:0.5;stroke:#ff0000;stroke-linecap:round;stroke-width:1.5;"/>
   </g>
   <g id="patch_36">
    <path clip-path="url(#p452c63d221)" d="M 404.427457 310.32669 
C 406.02657 310.32669 407.560403 309.411914 408.691147 307.78383 
C 409.82189 306.155746 410.457225 303.947281 410.457225 301.644823 
C 410.457225 299.342364 409.82189 297.133899 408.691147 295.505815 
C 407.560403 293.877731 406.02657 292.962955 404.427457 292.962955 
C 402.828344 292.962955 401.294511 293.877731 400.163767 295.505815 
C 399.033023 297.133899 398.397689 299.342364 398.397689 301.644823 
C 398.397689 303.947281 399.033023 306.155746 400.163767 307.78383 
C 401.294511 309.411914 402.828344 310.32669 404.427457 310.32669 
z
" style="fill:#008000;opacity:0.2;stroke:#008000;stroke-linejoin:miter;stroke-width:2;"/>
   </g>
   <g id="patch_37">
    <path clip-path="url(#p452c63d221)" d="M 261.521957 215.694333 
C 263.12107 215.694333 264.654903 214.779557 265.785646 213.151473 
C 266.91639 211.52339 267.551724 209.314924 267.551724 207.012466 
C 267.551724 204.710008 266.91639 202.501542 265.785646 200.873458 
C 264.654903 199.245375 263.12107 198.330598 261.521957 198.330598 
C 259.922843 198.330598 258.38901 199.245375 257.258267 200.873458 
C 256.127523 202.501542 255.492189 204.710008 255.492189 207.012466 
C 255.492189 209.314924 256.127523 211.52339 257.258267 213.151473 
C 258.38901 214.779557 259.922843 215.694333 261.521957 215.694333 
z
" style="fill:#008000;opacity:0.2;stroke:#008000;stroke-linejoin:miter;stroke-width:2;"/>
   </g>
   <g id="patch_38">
    <path clip-path="url(#p452c63d221)" d="M 222.328465 214.826147 
C 223.927578 214.826147 225.461411 213.91137 226.592155 212.283287 
C 227.722898 210.655203 228.358233 208.446737 228.358233 206.144279 
C 228.358233 203.841821 227.722898 201.633356 226.592155 200.005272 
C 225.461411 198.377188 223.927578 197.462412 222.328465 197.462412 
C 220.729352 197.462412 219.195519 198.377188 218.064775 200.005272 
C 216.934031 201.633356 216.298697 203.841821 216.298697 206.144279 
C 216.298697 208.446737 216.934031 210.655203 218.064775 212.283287 
C 219.195519 213.91137 220.729352 214.826147 222.328465 214.826147 
z
" style="fill:#008000;opacity:0.2;stroke:#008000;stroke-linejoin:miter;stroke-width:2;"/>
   </g>
   <g id="patch_39">
    <path clip-path="url(#p452c63d221)" d="M 81.834872 310.32669 
C 83.433985 310.32669 84.967818 309.411914 86.098562 307.78383 
C 87.229305 306.155746 87.86464 303.947281 87.86464 301.644823 
C 87.86464 299.342364 87.229305 297.133899 86.098562 295.505815 
C 84.967818 293.877731 83.433985 292.962955 81.834872 292.962955 
C 80.235759 292.962955 78.701926 293.877731 77.571182 295.505815 
C 76.440438 297.133899 75.805104 299.342364 75.805104 301.644823 
C 75.805104 303.947281 76.440438 306.155746 77.571182 307.78383 
C 78.701926 309.411914 80.235759 310.32669 81.834872 310.32669 
z
" style="fill:#008000;opacity:0.2;stroke:#008000;stroke-linejoin:miter;stroke-width:2;"/>
   </g>
   <g id="patch_40">
    <path clip-path="url(#p452c63d221)" d="M 65.554498 272.126473 
C 67.153611 272.126473 68.687444 271.211696 69.818188 269.583613 
C 70.948932 267.955529 71.584266 265.747063 71.584266 263.444605 
C 71.584266 261.142147 70.948932 258.933682 69.818188 257.305598 
C 68.687444 255.677514 67.153611 254.762738 65.554498 254.762738 
C 63.955385 254.762738 62.421552 255.677514 61.290808 257.305598 
C 60.160065 258.933682 59.52473 261.142147 59.52473 263.444605 
C 59.52473 265.747063 60.160065 267.955529 61.290808 269.583613 
C 62.421552 271.211696 63.955385 272.126473 65.554498 272.126473 
z
" style="fill:#008000;opacity:0.2;stroke:#008000;stroke-linejoin:miter;stroke-width:2;"/>
   </g>
   <g id="patch_41">
    <path clip-path="url(#p452c63d221)" d="M 215.69572 68.970771 
C 217.294833 68.970771 218.828666 68.055995 219.95941 66.427911 
C 221.090154 64.799827 221.725488 62.591362 221.725488 60.288904 
C 221.725488 57.986445 221.090154 55.77798 219.95941 54.149896 
C 218.828666 52.521812 217.294833 51.607036 215.69572 51.607036 
C 214.096607 51.607036 212.562774 52.521812 211.43203 54.149896 
C 210.301287 55.77798 209.665952 57.986445 209.665952 60.288904 
C 209.665952 62.591362 210.301287 64.799827 211.43203 66.427911 
C 212.562774 68.055995 214.096607 68.970771 215.69572 68.970771 
z
" style="fill:#008000;opacity:0.2;stroke:#008000;stroke-linejoin:miter;stroke-width:2;"/>
   </g>
   <g id="patch_42">
    <path clip-path="url(#p452c63d221)" d="M 269.360655 68.970771 
C 270.959768 68.970771 272.493601 68.055995 273.624345 66.427911 
C 274.755088 64.799827 275.390423 62.591362 275.390423 60.288904 
C 275.390423 57.986445 274.755088 55.77798 273.624345 54.149896 
C 272.493601 52.521812 270.959768 51.607036 269.360655 51.607036 
C 267.761542 51.607036 266.227709 52.521812 265.096965 54.149896 
C 263.966221 55.77798 263.330887 57.986445 263.330887 60.288904 
C 263.330887 62.591362 263.966221 64.799827 265.096965 66.427911 
C 266.227709 68.055995 267.761542 68.970771 269.360655 68.970771 
z
" style="fill:#008000;opacity:0.2;stroke:#008000;stroke-linejoin:miter;stroke-width:2;"/>
   </g>
   <g id="patch_43">
    <path clip-path="url(#p452c63d221)" d="M 419.501877 272.126473 
C 421.10099 272.126473 422.634823 271.211696 423.765567 269.583613 
C 424.89631 267.955529 425.531645 265.747063 425.531645 263.444605 
C 425.531645 261.142147 424.89631 258.933682 423.765567 257.305598 
C 422.634823 255.677514 421.10099 254.762738 419.501877 254.762738 
C 417.902764 254.762738 416.368931 255.677514 415.238187 257.305598 
C 414.107443 258.933682 413.472109 261.142147 413.472109 263.444605 
C 413.472109 265.747063 414.107443 267.955529 415.238187 269.583613 
C 416.368931 271.211696 417.902764 272.126473 419.501877 272.126473 
z
" style="fill:#008000;opacity:0.2;stroke:#008000;stroke-linejoin:miter;stroke-width:2;"/>
   </g>
   <g id="patch_44">
    <path clip-path="url(#p452c63d221)" d="M 408.346806 334.635919 
C 414.743259 334.635919 420.87859 330.976814 425.401565 324.464479 
C 429.92454 317.952144 432.465878 309.118282 432.465878 299.908449 
C 432.465878 290.698616 429.92454 281.864755 425.401565 275.352419 
C 420.87859 268.840084 414.743259 265.180979 408.346806 265.180979 
C 401.950353 265.180979 395.815022 268.840084 391.292047 275.352419 
C 386.769072 281.864755 384.227734 290.698616 384.227734 299.908449 
C 384.227734 309.118282 386.769072 317.952144 391.292047 324.464479 
C 395.815022 330.976814 401.950353 334.635919 408.346806 334.635919 
z
" style="fill:none;opacity:0.2;stroke:#ff0000;stroke-linejoin:miter;stroke-width:2;"/>
   </g>
   <g id="patch_45">
    <path clip-path="url(#p452c63d221)" d="M 70.076824 303.381196 
C 76.473277 303.381196 82.608608 299.722091 87.131583 293.209756 
C 91.654558 286.69742 94.195896 277.863559 94.195896 268.653726 
C 94.195896 259.443893 91.654558 250.610031 87.131583 244.097696 
C 82.608608 237.585361 76.473277 233.926255 70.076824 233.926255 
C 63.680372 233.926255 57.54504 237.585361 53.022065 244.097696 
C 48.49909 250.610031 45.957752 259.443893 45.957752 268.653726 
C 45.957752 277.863559 48.49909 286.69742 53.022065 293.209756 
C 57.54504 299.722091 63.680372 303.381196 70.076824 303.381196 
z
" style="fill:none;opacity:0.2;stroke:#0000ff;stroke-linejoin:miter;stroke-width:2;"/>
   </g>
   <g id="patch_46">
    <path clip-path="url(#p452c63d221)" d="M 408.346806 317.272184 
C 411.545032 317.272184 414.612698 315.442632 416.874186 312.186464 
C 419.135673 308.930296 420.406342 304.513366 420.406342 299.908449 
C 420.406342 295.303533 419.135673 290.886602 416.874186 287.630434 
C 414.612698 284.374267 411.545032 282.544714 408.346806 282.544714 
C 405.14858 282.544714 402.080914 284.374267 399.819426 287.630434 
C 397.557939 290.886602 396.28727 295.303533 396.28727 299.908449 
C 396.28727 304.513366 397.557939 308.930296 399.819426 312.186464 
C 402.080914 315.442632 405.14858 317.272184 408.346806 317.272184 
z
" style="fill:none;opacity:0.2;stroke:#008000;stroke-linejoin:miter;stroke-width:2;"/>
   </g>
   <g id="patch_47">
    <path clip-path="url(#p452c63d221)" d="M 400.508108 320.744931 
C 403.706334 320.744931 406.774 318.915379 409.035487 315.659211 
C 411.296975 312.403043 412.567644 307.986113 412.567644 303.381196 
C 412.567644 298.77628 411.296975 294.359349 409.035487 291.103181 
C 406.774 287.847014 403.706334 286.017461 400.508108 286.017461 
C 397.309881 286.017461 394.242216 287.847014 391.980728 291.103181 
C 389.719241 294.359349 388.448572 298.77628 388.448572 303.381196 
C 388.448572 307.986113 389.719241 312.403043 391.980728 315.659211 
C 394.242216 318.915379 397.309881 320.744931 400.508108 320.744931 
z
" style="fill:none;opacity:0.2;stroke:#008000;stroke-linejoin:miter;stroke-width:2;"/>
   </g>
   <g id="patch_48">
    <path d="M 404.427457 301.644823 
Q 332.974707 254.328644 261.521957 207.012466 
" style="fill:none;opacity:0.5;stroke:#008000;stroke-linecap:round;stroke-width:2;"/>
   </g>
   <g id="patch_49">
    <path d="M 407.053802 300.481284 
Q 405.340313 301.240404 403.626825 301.999524 
" style="fill:none;opacity:0.5;stroke:#800080;stroke-linecap:round;stroke-width:2;"/>
    <path d="M 405.07478 299.717428 
L 407.053802 300.481284 
L 406.289946 302.460305 
" style="fill:none;opacity:0.5;stroke:#800080;stroke-linecap:round;stroke-width:2;"/>
    <path d="M 405.605846 302.763379 
L 403.626825 301.999524 
L 404.39068 300.020502 
" style="fill:none;opacity:0.5;stroke:#800080;stroke-linecap:round;stroke-width:2;"/>
   </g>
   <g id="patch_50">
    <path d="M 261.521957 207.012466 
Q 241.925211 206.578373 222.328465 206.144279 
" style="fill:none;opacity:0.5;stroke:#008000;stroke-linecap:round;stroke-width:2;"/>
   </g>
   <g id="patch_51">
    <path d="M 262.218242 211.690966 
Q 261.669241 208.002106 261.120241 204.313245 
" style="fill:none;opacity:0.5;stroke:#800080;stroke-linecap:round;stroke-width:2;"/>
    <path d="M 263.481093 209.986499 
L 262.218242 211.690966 
L 260.513775 210.428115 
" style="fill:none;opacity:0.5;stroke:#800080;stroke-linecap:round;stroke-width:2;"/>
    <path d="M 259.85739 206.017712 
L 261.120241 204.313245 
L 262.824707 205.576096 
" style="fill:none;opacity:0.5;stroke:#800080;stroke-linecap:round;stroke-width:2;"/>
   </g>
   <g id="patch_52">
    <path d="M 222.328465 206.144279 
Q 152.081668 253.894551 81.834872 301.644823 
" style="fill:none;opacity:0.5;stroke:#008000;stroke-linecap:round;stroke-width:2;"/>
   </g>
   <g id="patch_53">
    <path d="M 222.54824 209.941549 
Q 222.386245 207.142609 222.224251 204.343669 
" style="fill:none;opacity:0.5;stroke:#800080;stroke-linecap:round;stroke-width:2;"/>
    <path d="M 223.959063 208.357384 
L 222.54824 209.941549 
L 220.964075 208.530725 
" style="fill:none;opacity:0.5;stroke:#800080;stroke-linecap:round;stroke-width:2;"/>
    <path d="M 220.813427 205.927834 
L 222.224251 204.343669 
L 223.808415 205.754493 
" style="fill:none;opacity:0.5;stroke:#800080;stroke-linecap:round;stroke-width:2;"/>
   </g>
   <g id="patch_54">
    <path d="M 81.834872 301.644823 
Q 73.694685 282.544714 65.554498 263.444605 
" style="fill:none;opacity:0.5;stroke:#008000;stroke-linecap:round;stroke-width:2;"/>
   </g>
   <g id="patch_55">
    <path d="M 79.208527 300.481284 
Q 80.922016 301.240404 82.635504 301.999524 
" style="fill:none;opacity:0.5;stroke:#800080;stroke-linecap:round;stroke-width:2;"/>
    <path d="M 79.972383 302.460305 
L 79.208527 300.481284 
L 81.187548 299.717428 
" style="fill:none;opacity:0.5;stroke:#800080;stroke-linecap:round;stroke-width:2;"/>
    <path d="M 81.871648 300.020502 
L 82.635504 301.999524 
L 80.656483 302.763379 
" style="fill:none;opacity:0.5;stroke:#800080;stroke-linecap:round;stroke-width:2;"/>
   </g>
   <g id="patch_56">
    <path d="M 65.554498 263.444605 
Q 140.625109 161.866754 215.69572 60.288904 
" style="fill:none;opacity:0.5;stroke:#008000;stroke-linecap:round;stroke-width:2;"/>
   </g>
   <g id="patch_57">
    <path d="M 61.959292 259.303403 
Q 64.899777 262.690453 67.840262 266.077502 
" style="fill:none;opacity:0.5;stroke:#800080;stroke-linecap:round;stroke-width:2;"/>
    <path d="M 61.809951 261.41946 
L 61.959292 259.303403 
L 64.075349 259.452743 
" style="fill:none;opacity:0.5;stroke:#800080;stroke-linecap:round;stroke-width:2;"/>
    <path d="M 67.989602 263.961445 
L 67.840262 266.077502 
L 65.724205 265.928162 
" style="fill:none;opacity:0.5;stroke:#800080;stroke-linecap:round;stroke-width:2;"/>
   </g>
   <g id="patch_58">
    <path d="M 215.69572 60.288904 
Q 242.528188 60.288904 269.360655 60.288904 
" style="fill:none;opacity:0.5;stroke:#008000;stroke-linecap:round;stroke-width:2;"/>
   </g>
   <g id="patch_59">
    <path d="M 214.43021 53.000402 
Q 215.524587 59.303291 216.618965 65.60618 
" style="fill:none;opacity:0.5;stroke:#800080;stroke-linecap:round;stroke-width:2;"/>
    <path d="M 213.208929 54.734897 
L 214.43021 53.000402 
L 216.164705 54.221683 
" style="fill:none;opacity:0.5;stroke:#800080;stroke-linecap:round;stroke-width:2;"/>
    <path d="M 217.840245 63.871685 
L 216.618965 65.60618 
L 214.884469 64.3849 
" style="fill:none;opacity:0.5;stroke:#800080;stroke-linecap:round;stroke-width:2;"/>
   </g>
   <g id="patch_60">
    <path d="M 269.360655 60.288904 
Q 344.431266 161.866754 419.501877 263.444605 
" style="fill:none;opacity:0.5;stroke:#008000;stroke-linecap:round;stroke-width:2;"/>
   </g>
   <g id="patch_61">
    <path d="M 270.626165 53.000402 
Q 269.531788 59.303291 268.43741 65.60618 
" style="fill:none;opacity:0.5;stroke:#800080;stroke-linecap:round;stroke-width:2;"/>
    <path d="M 268.89167 54.221683 
L 270.626165 53.000402 
L 271.847446 54.734897 
" style="fill:none;opacity:0.5;stroke:#800080;stroke-linecap:round;stroke-width:2;"/>
    <path d="M 270.171906 64.3849 
L 268.43741 65.60618 
L 267.21613 63.871685 
" style="fill:none;opacity:0.5;stroke:#800080;stroke-linecap:round;stroke-width:2;"/>
   </g>
   <g id="patch_62">
    <path d="M 419.501877 263.444605 
Q 411.964667 282.544714 404.427457 301.644823 
" style="fill:none;opacity:0.5;stroke:#008000;stroke-linecap:round;stroke-width:2;"/>
   </g>
   <g id="patch_63">
    <path d="M 423.097083 259.303403 
Q 420.156598 262.690453 417.216113 266.077502 
" style="fill:none;opacity:0.5;stroke:#800080;stroke-linecap:round;stroke-width:2;"/>
    <path d="M 420.981026 259.452743 
L 423.097083 259.303403 
L 423.246424 261.41946 
" style="fill:none;opacity:0.5;stroke:#800080;stroke-linecap:round;stroke-width:2;"/>
    <path d="M 419.33217 265.928162 
L 417.216113 266.077502 
L 417.066773 263.961445 
" style="fill:none;opacity:0.5;stroke:#800080;stroke-linecap:round;stroke-width:2;"/>
   </g>
   <g id="line2d_1">
    <path clip-path="url(#p452c63d221)" d="M 408.346806 299.908449 
L 262.426422 213.089773 
L 222.629953 211.3534 
L 77.915523 299.908449 
L 61.032172 258.235485 
L 214.188278 51.607036 
L 270.868097 51.607036 
L 424.024203 258.235485 
" style="fill:none;stroke:#ff0000;stroke-linecap:square;stroke-width:0.2;"/>
   </g>
   <g id="line2d_2">
    <path clip-path="url(#p452c63d221)" d="M 70.076824 268.653726 
L 217.203162 68.970771 
L 267.853213 68.970771 
L 414.979551 268.653726 
L 400.508108 303.381196 
L 260.617491 200.935159 
L 222.026976 200.935159 
L 85.754221 303.381196 
" style="fill:none;stroke:#0000ff;stroke-linecap:square;stroke-width:0.2;"/>
   </g>
  </g>
 </g>
 <defs>
  <clipPath id="p452c63d221">
   <rect height="307.51175" width="409.903625" x="37.576375" y="13.32"/>
  </clipPath>
 </defs>
</svg>
