<?xml version="1.0" encoding="utf-8" standalone="no"?>
<!DOCTYPE svg PUBLIC "-//W3C//DTD SVG 1.1//EN"
  "http://www.w3.org/Graphics/SVG/1.1/DTD/svg11.dtd">
<!-- Created with matplotlib (http://matplotlib.org/) -->
<svg height="345.6pt" version="1.1" viewBox="0 0 460.8 345.6" width="460.8pt" xmlns="http://www.w3.org/2000/svg" xmlns:xlink="http://www.w3.org/1999/xlink">
 <defs>
  <style type="text/css">
*{stroke-linecap:butt;stroke-linejoin:round;}
  </style>
 </defs>
 <g id="figure_1">
  <g id="patch_1">
   <path d="M 0 345.6 
L 460.8 345.6 
L 460.8 0 
L 0 0 
z
" style="fill:#ffffff;"/>
  </g>
  <g id="axes_1">
   <g id="patch_2">
    <path clip-path="url(#pb1fdeae1e0)" d="M 424.218953 147.869728 
C 425.446595 147.869728 426.624121 147.644875 427.492196 147.244689 
C 428.36027 146.844504 428.848017 146.30166 428.848017 145.735712 
C 428.848017 145.169764 428.36027 144.62692 427.492196 144.226735 
C 426.624121 143.826549 425.446595 143.601696 424.218953 143.601696 
C 422.991311 143.601696 421.813784 143.826549 420.94571 144.226735 
C 420.077636 144.62692 419.589889 145.169764 419.589889 145.735712 
C 419.589889 146.30166 420.077636 146.844504 420.94571 147.244689 
C 421.813784 147.644875 422.991311 147.869728 424.218953 147.869728 
z
" style="fill:#ff0000;opacity:0.2;stroke:#ff0000;stroke-linejoin:miter;stroke-width:2;"/>
   </g>
   <g id="patch_3">
    <path clip-path="url(#pb1fdeae1e0)" d="M 100.184467 306.853943 
C 101.412109 306.853943 102.589635 306.62909 103.457709 306.228904 
C 104.325783 305.828719 104.813531 305.285875 104.813531 304.719927 
C 104.813531 304.153979 104.325783 303.611135 103.457709 303.210949 
C 102.589635 302.810764 101.412109 302.585911 100.184467 302.585911 
C 98.956825 302.585911 97.779298 302.810764 96.911224 303.210949 
C 96.04315 303.611135 95.555403 304.153979 95.555403 304.719927 
C 95.555403 305.285875 96.04315 305.828719 96.911224 306.228904 
C 97.779298 306.62909 98.956825 306.853943 100.184467 306.853943 
z
" style="fill:#ff0000;opacity:0.2;stroke:#ff0000;stroke-linejoin:miter;stroke-width:2;"/>
   </g>
   <g id="patch_4">
    <path clip-path="url(#pb1fdeae1e0)" d="M 79.353678 278.044723 
C 80.581321 278.044723 81.758847 277.81987 82.626921 277.419684 
C 83.494995 277.019499 83.982742 276.476654 83.982742 275.910707 
C 83.982742 275.344759 83.494995 274.801915 82.626921 274.401729 
C 81.758847 274.001544 80.581321 273.77669 79.353678 273.77669 
C 78.126036 273.77669 76.94851 274.001544 76.080436 274.401729 
C 75.212362 274.801915 74.724614 275.344759 74.724614 275.910707 
C 74.724614 276.476654 75.212362 277.019499 76.080436 277.419684 
C 76.94851 277.81987 78.126036 278.044723 79.353678 278.044723 
z
" style="fill:#ff0000;opacity:0.2;stroke:#ff0000;stroke-linejoin:miter;stroke-width:2;"/>
   </g>
   <g id="patch_5">
    <path clip-path="url(#pb1fdeae1e0)" d="M 252.943582 189.483046 
C 254.171224 189.483046 255.34875 189.258193 256.216824 188.858007 
C 257.084898 188.457822 257.572646 187.914978 257.572646 187.34903 
C 257.572646 186.783082 257.084898 186.240238 256.216824 185.840053 
C 255.34875 185.439867 254.171224 185.215014 252.943582 185.215014 
C 251.71594 185.215014 250.538413 185.439867 249.670339 185.840053 
C 248.802265 186.240238 248.314518 186.783082 248.314518 187.34903 
C 248.314518 187.914978 248.802265 188.457822 249.670339 188.858007 
C 250.538413 189.258193 251.71594 189.483046 252.943582 189.483046 
z
" style="fill:#ff0000;opacity:0.2;stroke:#ff0000;stroke-linejoin:miter;stroke-width:2;"/>
   </g>
   <g id="patch_6">
    <path clip-path="url(#pb1fdeae1e0)" d="M 139.531512 130.797598 
C 140.759154 130.797598 141.93668 130.572744 142.804754 130.172559 
C 143.672828 129.772373 144.160576 129.229529 144.160576 128.663581 
C 144.160576 128.097634 143.672828 127.55479 142.804754 127.154604 
C 141.93668 126.754419 140.759154 126.529565 139.531512 126.529565 
C 138.303869 126.529565 137.126343 126.754419 136.258269 127.154604 
C 135.390195 127.55479 134.902447 128.097634 134.902447 128.663581 
C 134.902447 129.229529 135.390195 129.772373 136.258269 130.172559 
C 137.126343 130.572744 138.303869 130.797598 139.531512 130.797598 
z
" style="fill:#ff0000;opacity:0.2;stroke:#ff0000;stroke-linejoin:miter;stroke-width:2;"/>
   </g>
   <g id="patch_7">
    <path clip-path="url(#pb1fdeae1e0)" d="M 79.353678 89.18428 
C 80.581321 89.18428 81.758847 88.959426 82.626921 88.559241 
C 83.494995 88.159055 83.982742 87.616211 83.982742 87.050263 
C 83.982742 86.484316 83.494995 85.941472 82.626921 85.541286 
C 81.758847 85.141101 80.581321 84.916247 79.353678 84.916247 
C 78.126036 84.916247 76.94851 85.141101 76.080436 85.541286 
C 75.212362 85.941472 74.724614 86.484316 74.724614 87.050263 
C 74.724614 87.616211 75.212362 88.159055 76.080436 88.559241 
C 76.94851 88.959426 78.126036 89.18428 79.353678 89.18428 
z
" style="fill:#ff0000;opacity:0.2;stroke:#ff0000;stroke-linejoin:miter;stroke-width:2;"/>
   </g>
   <g id="patch_8">
    <path clip-path="url(#pb1fdeae1e0)" d="M 220.540133 31.565839 
C 221.767775 31.565839 222.945302 31.340986 223.813376 30.940801 
C 224.68145 30.540615 225.169197 29.997771 225.169197 29.431823 
C 225.169197 28.865875 224.68145 28.323031 223.813376 27.922846 
C 222.945302 27.52266 221.767775 27.297807 220.540133 27.297807 
C 219.312491 27.297807 218.134965 27.52266 217.26689 27.922846 
C 216.398816 28.323031 215.911069 28.865875 215.911069 29.431823 
C 215.911069 29.997771 216.398816 30.540615 217.26689 30.940801 
C 218.134965 31.340986 219.312491 31.565839 220.540133 31.565839 
z
" style="fill:#ff0000;opacity:0.2;stroke:#ff0000;stroke-linejoin:miter;stroke-width:2;"/>
   </g>
   <g id="patch_9">
    <path clip-path="url(#pb1fdeae1e0)" d="M 234.427325 49.704978 
C 235.654967 49.704978 236.832494 49.480125 237.700568 49.079939 
C 238.568642 48.679754 239.056389 48.136909 239.056389 47.570962 
C 239.056389 47.005014 238.568642 46.46217 237.700568 46.061984 
C 236.832494 45.661799 235.654967 45.436945 234.427325 45.436945 
C 233.199683 45.436945 232.022157 45.661799 231.154083 46.061984 
C 230.286009 46.46217 229.798261 47.005014 229.798261 47.570962 
C 229.798261 48.136909 230.286009 48.679754 231.154083 49.079939 
C 232.022157 49.480125 233.199683 49.704978 234.427325 49.704978 
z
" style="fill:#0000ff;opacity:0.2;stroke:#0000ff;stroke-linejoin:miter;stroke-width:2;"/>
   </g>
   <g id="patch_10">
    <path clip-path="url(#pb1fdeae1e0)" d="M 391.815504 135.06563 
C 393.043146 135.06563 394.220673 134.840777 395.088747 134.440591 
C 395.956821 134.040406 396.444568 133.497562 396.444568 132.931614 
C 396.444568 132.365666 395.956821 131.822822 395.088747 131.422637 
C 394.220673 131.022451 393.043146 130.797598 391.815504 130.797598 
C 390.587862 130.797598 389.410336 131.022451 388.542262 131.422637 
C 387.674188 131.822822 387.18644 132.365666 387.18644 132.931614 
C 387.18644 133.497562 387.674188 134.040406 388.542262 134.440591 
C 389.410336 134.840777 390.587862 135.06563 391.815504 135.06563 
z
" style="fill:#0000ff;opacity:0.2;stroke:#0000ff;stroke-linejoin:miter;stroke-width:2;"/>
   </g>
   <g id="patch_11">
    <path clip-path="url(#pb1fdeae1e0)" d="M 130.273383 263.106609 
C 131.501026 263.106609 132.678552 262.881755 133.546626 262.48157 
C 134.4147 262.081384 134.902447 261.53854 134.902447 260.972593 
C 134.902447 260.406645 134.4147 259.863801 133.546626 259.463615 
C 132.678552 259.06343 131.501026 258.838576 130.273383 258.838576 
C 129.045741 258.838576 127.868215 259.06343 127.000141 259.463615 
C 126.132067 259.863801 125.644319 260.406645 125.644319 260.972593 
C 125.644319 261.53854 126.132067 262.081384 127.000141 262.48157 
C 127.868215 262.881755 129.045741 263.106609 130.273383 263.106609 
z
" style="fill:#0000ff;opacity:0.2;stroke:#0000ff;stroke-linejoin:miter;stroke-width:2;"/>
   </g>
   <g id="patch_12">
    <path clip-path="url(#pb1fdeae1e0)" d="M 111.757127 235.364397 
C 112.984769 235.364397 114.162296 235.139543 115.03037 234.739358 
C 115.898444 234.339172 116.386191 233.796328 116.386191 233.230381 
C 116.386191 232.664433 115.898444 232.121589 115.03037 231.721403 
C 114.162296 231.321218 112.984769 231.096364 111.757127 231.096364 
C 110.529485 231.096364 109.351958 231.321218 108.483884 231.721403 
C 107.61581 232.121589 107.128063 232.664433 107.128063 233.230381 
C 107.128063 233.796328 107.61581 234.339172 108.483884 234.739358 
C 109.351958 235.139543 110.529485 235.364397 111.757127 235.364397 
z
" style="fill:#0000ff;opacity:0.2;stroke:#0000ff;stroke-linejoin:miter;stroke-width:2;"/>
   </g>
   <g id="patch_13">
    <path clip-path="url(#pb1fdeae1e0)" d="M 273.77437 174.544932 
C 275.002012 174.544932 276.179539 174.320079 277.047613 173.919893 
C 277.915687 173.519708 278.403434 172.976864 278.403434 172.410916 
C 278.403434 171.844968 277.915687 171.302124 277.047613 170.901938 
C 276.179539 170.501753 275.002012 170.276899 273.77437 170.276899 
C 272.546728 170.276899 271.369202 170.501753 270.501127 170.901938 
C 269.633053 171.302124 269.145306 171.844968 269.145306 172.410916 
C 269.145306 172.976864 269.633053 173.519708 270.501127 173.919893 
C 271.369202 174.320079 272.546728 174.544932 273.77437 174.544932 
z
" style="fill:#0000ff;opacity:0.2;stroke:#0000ff;stroke-linejoin:miter;stroke-width:2;"/>
   </g>
   <g id="patch_14">
    <path clip-path="url(#pb1fdeae1e0)" d="M 160.3623 124.395549 
C 161.589942 124.395549 162.767468 124.170695 163.635543 123.77051 
C 164.503617 123.370324 164.991364 122.82748 164.991364 122.261533 
C 164.991364 121.695585 164.503617 121.152741 163.635543 120.752555 
C 162.767468 120.35237 161.589942 120.127516 160.3623 120.127516 
C 159.134658 120.127516 157.957131 120.35237 157.089057 120.752555 
C 156.220983 121.152741 155.733236 121.695585 155.733236 122.261533 
C 155.733236 122.82748 156.220983 123.370324 157.089057 123.77051 
C 157.957131 124.170695 159.134658 124.395549 160.3623 124.395549 
z
" style="fill:#0000ff;opacity:0.2;stroke:#0000ff;stroke-linejoin:miter;stroke-width:2;"/>
   </g>
   <g id="patch_15">
    <path clip-path="url(#pb1fdeae1e0)" d="M 121.015255 94.519321 
C 122.242897 94.519321 123.420424 94.294467 124.288498 93.894282 
C 125.156572 93.494096 125.644319 92.951252 125.644319 92.385304 
C 125.644319 91.819356 125.156572 91.276512 124.288498 90.876327 
C 123.420424 90.476141 122.242897 90.251288 121.015255 90.251288 
C 119.787613 90.251288 118.610087 90.476141 117.742013 90.876327 
C 116.873938 91.276512 116.386191 91.819356 116.386191 92.385304 
C 116.386191 92.951252 116.873938 93.494096 117.742013 93.894282 
C 118.610087 94.294467 119.787613 94.519321 121.015255 94.519321 
z
" style="fill:#0000ff;opacity:0.2;stroke:#0000ff;stroke-linejoin:miter;stroke-width:2;"/>
   </g>
   <g id="patch_16">
    <path clip-path="url(#pb1fdeae1e0)" d="M 424.218953 145.735712 
C 424.218953 235.364397 269.145306 286.580788 100.184467 304.719927 
C 65.466486 302.585911 56.208358 282.312756 79.353678 275.910707 
C 153.418704 263.106609 252.943582 232.163372 252.943582 187.34903 
C 252.943582 147.869728 188.136684 136.132639 139.531512 128.663581 
C 107.128063 124.395549 79.353678 108.390427 79.353678 87.050263 
C 79.353678 55.040019 141.846044 29.431823 220.540133 29.431823 
C 306.177819 29.431823 424.218953 61.442068 424.218953 145.735712 
" style="fill:none;stroke:#ff0000;stroke-linejoin:miter;stroke-width:0.5;"/>
   </g>
   <g id="patch_17">
    <path clip-path="url(#pb1fdeae1e0)" d="M 234.427325 47.570962 
C 310.806883 47.570962 391.815504 80.648215 391.815504 132.931614 
C 391.815504 207.622185 278.403434 244.96747 130.273383 260.972593 
C 102.498999 257.771568 93.240871 243.900462 111.757127 233.230381 
C 176.564024 226.828332 273.77437 206.555177 273.77437 172.410916 
C 273.77437 136.132639 171.93496 125.462557 160.3623 122.261533 
C 134.902447 115.859484 121.015255 106.25641 121.015255 92.385304 
C 121.015255 67.844117 160.3623 47.570962 234.427325 47.570962 
" style="fill:none;stroke:#0000ff;stroke-linejoin:miter;stroke-width:0.5;"/>
   </g>
   <g id="[&quot;g_s&quot;:1,&quot;g_t&quot;:2,&quot;coords&quot;:[[227.0, -833.0],[213.0, -821.0]],&quot;certainty&quot;:12]">
    <path clip-path="url(#pb1fdeae1e0)" d="M 424.218953 152.671265 
C 428.20879 152.671265 432.035751 151.940491 434.856991 150.639888 
C 437.678232 149.339286 439.263411 147.575042 439.263411 145.735712 
C 439.263411 143.896382 437.678232 142.132138 434.856991 140.831535 
C 432.035751 139.530933 428.20879 138.800159 424.218953 138.800159 
C 420.229116 138.800159 416.402155 139.530933 413.580914 140.831535 
C 410.759674 142.132138 409.174495 143.896382 409.174495 145.735712 
C 409.174495 147.575042 410.759674 149.339286 413.580914 150.639888 
C 416.402155 151.940491 420.229116 152.671265 424.218953 152.671265 
z
" style="fill:#0000ff;opacity:0.2;stroke:#0000ff;stroke-linejoin:miter;stroke-width:2;"/>
   </g>
   <g id="[&quot;g_s&quot;:2,&quot;g_t&quot;:1,&quot;coords&quot;:[[213.0, -821.0],[227.0, -833.0]],&quot;certainty&quot;:12]">
    <path clip-path="url(#pb1fdeae1e0)" d="M 391.815504 139.867167 
C 395.805341 139.867167 399.632302 139.136393 402.453543 137.835791 
C 405.274784 136.535188 406.859963 134.770944 406.859963 132.931614 
C 406.859963 131.092284 405.274784 129.32804 402.453543 128.027438 
C 399.632302 126.726835 395.805341 125.996061 391.815504 125.996061 
C 387.825667 125.996061 383.998707 126.726835 381.177466 128.027438 
C 378.356225 129.32804 376.771046 131.092284 376.771046 132.931614 
C 376.771046 134.770944 378.356225 136.535188 381.177466 137.835791 
C 383.998707 139.136393 387.825667 139.867167 391.815504 139.867167 
z
" style="fill:#ff0000;opacity:0.2;stroke:#ff0000;stroke-linejoin:miter;stroke-width:2;"/>
   </g>
   <g id="patch_18">
    <path d="M 424.218953 145.735712 
Q 408.948749 139.70175 395.815832 134.512328 
" style="fill:none;opacity:0.5;stroke:#0000ff;stroke-linecap:round;stroke-width:3.25;"/>
    <path d="M 396.659626 136.45861 
L 395.815832 134.512328 
L 397.762114 133.668534 
" style="fill:none;opacity:0.5;stroke:#0000ff;stroke-linecap:round;stroke-width:3.25;"/>
   </g>
   <g id="[&quot;g_s&quot;:2,&quot;g_t&quot;:3,&quot;coords&quot;:[[87.0, -982.0],[100.0, -941.0]],&quot;certainty&quot;:10]">
    <path clip-path="url(#pb1fdeae1e0)" d="M 100.184467 310.588472 
C 103.560483 310.588472 106.79868 309.970125 109.185884 308.869615 
C 111.573088 307.769105 112.914393 306.276283 112.914393 304.719927 
C 112.914393 303.163571 111.573088 301.670749 109.185884 300.570239 
C 106.79868 299.469729 103.560483 298.851382 100.184467 298.851382 
C 96.808451 298.851382 93.570253 299.469729 91.18305 300.570239 
C 88.795846 301.670749 87.454541 303.163571 87.454541 304.719927 
C 87.454541 306.276283 88.795846 307.769105 91.18305 308.869615 
C 93.570253 309.970125 96.808451 310.588472 100.184467 310.588472 
z
" style="fill:#0000ff;opacity:0.2;stroke:#0000ff;stroke-linejoin:miter;stroke-width:2;"/>
   </g>
   <g id="[&quot;g_s&quot;:3,&quot;g_t&quot;:2,&quot;coords&quot;:[[100.0, -941.0],[87.0, -982.0]],&quot;certainty&quot;:10]">
    <path clip-path="url(#pb1fdeae1e0)" d="M 130.273383 266.841137 
C 133.649399 266.841137 136.887597 266.22279 139.274801 265.12228 
C 141.662004 264.02177 143.00331 262.528949 143.00331 260.972593 
C 143.00331 259.416236 141.662004 257.923415 139.274801 256.822905 
C 136.887597 255.722395 133.649399 255.104048 130.273383 255.104048 
C 126.897367 255.104048 123.65917 255.722395 121.271966 256.822905 
C 118.884762 257.923415 117.543457 259.416236 117.543457 260.972593 
C 117.543457 262.528949 118.884762 264.02177 121.271966 265.12228 
C 123.65917 266.22279 126.897367 266.841137 130.273383 266.841137 
z
" style="fill:#ff0000;opacity:0.2;stroke:#ff0000;stroke-linejoin:miter;stroke-width:2;"/>
   </g>
   <g id="patch_19">
    <path d="M 100.184467 304.719927 
Q 114.66237 283.669993 128.03832 264.22223 
" style="fill:none;opacity:0.5;stroke:#0000ff;stroke-linecap:round;stroke-width:2.75;"/>
    <path d="M 125.952388 264.608091 
L 128.03832 264.22223 
L 128.424181 266.308161 
" style="fill:none;opacity:0.5;stroke:#0000ff;stroke-linecap:round;stroke-width:2.75;"/>
   </g>
   <g id="[&quot;g_s&quot;:3,&quot;g_t&quot;:4,&quot;coords&quot;:[[78.0, -955.0],[92.0, -915.0]],&quot;certainty&quot;:6]">
    <path clip-path="url(#pb1fdeae1e0)" d="M 79.353678 279.645235 
C 81.502052 279.645235 83.562723 279.251742 85.081853 278.551417 
C 86.600983 277.851093 87.454541 276.901115 87.454541 275.910707 
C 87.454541 274.920298 86.600983 273.970321 85.081853 273.269996 
C 83.562723 272.569672 81.502052 272.176178 79.353678 272.176178 
C 77.205305 272.176178 75.144633 272.569672 73.625504 273.269996 
C 72.106374 273.970321 71.252816 274.920298 71.252816 275.910707 
C 71.252816 276.901115 72.106374 277.851093 73.625504 278.551417 
C 75.144633 279.251742 77.205305 279.645235 79.353678 279.645235 
z
" style="fill:#0000ff;opacity:0.2;stroke:#0000ff;stroke-linejoin:miter;stroke-width:2;"/>
   </g>
   <g id="[&quot;g_s&quot;:4,&quot;g_t&quot;:3,&quot;coords&quot;:[[92.0, -915.0],[78.0, -955.0]],&quot;certainty&quot;:6]">
    <path clip-path="url(#pb1fdeae1e0)" d="M 111.757127 236.964909 
C 113.905501 236.964909 115.966172 236.571416 117.485302 235.871091 
C 119.004431 235.170766 119.857989 234.220789 119.857989 233.230381 
C 119.857989 232.239972 119.004431 231.289995 117.485302 230.58967 
C 115.966172 229.889345 113.905501 229.495852 111.757127 229.495852 
C 109.608753 229.495852 107.548082 229.889345 106.028952 230.58967 
C 104.509823 231.289995 103.656265 232.239972 103.656265 233.230381 
C 103.656265 234.220789 104.509823 235.170766 106.028952 235.871091 
C 107.548082 236.571416 109.608753 236.964909 111.757127 236.964909 
z
" style="fill:#ff0000;opacity:0.2;stroke:#ff0000;stroke-linejoin:miter;stroke-width:2;"/>
   </g>
   <g id="patch_20">
    <path d="M 79.353678 275.910707 
Q 94.9512 255.366371 109.800462 235.80761 
" style="fill:none;opacity:0.5;stroke:#0000ff;stroke-linecap:round;stroke-width:1.75;"/>
    <path d="M 107.698737 236.095277 
L 109.800462 235.80761 
L 110.088129 237.909335 
" style="fill:none;opacity:0.5;stroke:#0000ff;stroke-linecap:round;stroke-width:1.75;"/>
   </g>
   <g id="[&quot;g_s&quot;:4,&quot;g_t&quot;:5,&quot;coords&quot;:[[153.0, -872.0],[162.0, -858.0]],&quot;certainty&quot;:11]">
    <path clip-path="url(#pb1fdeae1e0)" d="M 252.943582 193.751079 
C 256.626508 193.751079 260.159087 193.076519 262.76331 191.875962 
C 265.367532 190.675406 266.830774 189.046873 266.830774 187.34903 
C 266.830774 185.651187 265.367532 184.022654 262.76331 182.822098 
C 260.159087 181.621541 256.626508 180.946981 252.943582 180.946981 
C 249.260655 180.946981 245.728076 181.621541 243.123854 182.822098 
C 240.519632 184.022654 239.056389 185.651187 239.056389 187.34903 
C 239.056389 189.046873 240.519632 190.675406 243.123854 191.875962 
C 245.728076 193.076519 249.260655 193.751079 252.943582 193.751079 
z
" style="fill:#0000ff;opacity:0.2;stroke:#0000ff;stroke-linejoin:miter;stroke-width:2;"/>
   </g>
   <g id="[&quot;g_s&quot;:5,&quot;g_t&quot;:4,&quot;coords&quot;:[[162.0, -858.0],[153.0, -872.0]],&quot;certainty&quot;:11]">
    <path clip-path="url(#pb1fdeae1e0)" d="M 273.77437 178.812965 
C 277.457297 178.812965 280.989876 178.138404 283.594098 176.937848 
C 286.19832 175.737292 287.661562 174.108759 287.661562 172.410916 
C 287.661562 170.713073 286.19832 169.08454 283.594098 167.883984 
C 280.989876 166.683427 277.457297 166.008867 273.77437 166.008867 
C 270.091444 166.008867 266.558865 166.683427 263.954642 167.883984 
C 261.35042 169.08454 259.887178 170.713073 259.887178 172.410916 
C 259.887178 174.108759 261.35042 175.737292 263.954642 176.937848 
C 266.558865 178.138404 270.091444 178.812965 273.77437 178.812965 
z
" style="fill:#ff0000;opacity:0.2;stroke:#ff0000;stroke-linejoin:miter;stroke-width:2;"/>
   </g>
   <g id="patch_21">
    <path d="M 252.943582 187.34903 
Q 262.546545 180.462581 270.42563 174.812355 
" style="fill:none;opacity:0.5;stroke:#0000ff;stroke-linecap:round;stroke-width:3;"/>
    <path d="M 268.332523 174.46753 
L 270.42563 174.812355 
L 270.080805 176.905461 
" style="fill:none;opacity:0.5;stroke:#0000ff;stroke-linecap:round;stroke-width:3;"/>
   </g>
   <g id="[&quot;g_s&quot;:5,&quot;g_t&quot;:6,&quot;coords&quot;:[[104.0, -817.0],[113.0, -811.0]],&quot;certainty&quot;:4]">
    <path clip-path="url(#pb1fdeae1e0)" d="M 139.531512 131.331102 
C 141.066064 131.331102 142.537972 131.050035 143.623065 130.549803 
C 144.708157 130.049571 145.317842 129.371016 145.317842 128.663581 
C 145.317842 127.956147 144.708157 127.277592 143.623065 126.77736 
C 142.537972 126.277128 141.066064 125.996061 139.531512 125.996061 
C 137.996959 125.996061 136.525051 126.277128 135.439958 126.77736 
C 134.354866 127.277592 133.745181 127.956147 133.745181 128.663581 
C 133.745181 129.371016 134.354866 130.049571 135.439958 130.549803 
C 136.525051 131.050035 137.996959 131.331102 139.531512 131.331102 
z
" style="fill:#0000ff;opacity:0.2;stroke:#0000ff;stroke-linejoin:miter;stroke-width:2;"/>
   </g>
   <g id="[&quot;g_s&quot;:6,&quot;g_t&quot;:5,&quot;coords&quot;:[[113.0, -811.0],[104.0, -817.0]],&quot;certainty&quot;:4]">
    <path clip-path="url(#pb1fdeae1e0)" d="M 160.3623 124.929053 
C 161.896853 124.929053 163.368761 124.647986 164.453853 124.147754 
C 165.538946 123.647522 166.14863 122.968967 166.14863 122.261533 
C 166.14863 121.554098 165.538946 120.875543 164.453853 120.375311 
C 163.368761 119.875079 161.896853 119.594012 160.3623 119.594012 
C 158.827747 119.594012 157.355839 119.875079 156.270747 120.375311 
C 155.185654 120.875543 154.57597 121.554098 154.57597 122.261533 
C 154.57597 122.968967 155.185654 123.647522 156.270747 124.147754 
C 157.355839 124.647986 158.827747 124.929053 160.3623 124.929053 
z
" style="fill:#ff0000;opacity:0.2;stroke:#ff0000;stroke-linejoin:miter;stroke-width:2;"/>
   </g>
   <g id="patch_22">
    <path d="M 139.531512 128.663581 
Q 148.992077 125.75601 157.60776 123.108102 
" style="fill:none;opacity:0.5;stroke:#0000ff;stroke-linecap:round;stroke-width:1.25;"/>
    <path d="M 155.733286 122.114951 
L 157.60776 123.108102 
L 156.614609 124.982576 
" style="fill:none;opacity:0.5;stroke:#0000ff;stroke-linecap:round;stroke-width:1.25;"/>
   </g>
   <g id="[&quot;g_s&quot;:6,&quot;g_t&quot;:7,&quot;coords&quot;:[[78.0, -778.0],[96.0, -783.0]],&quot;certainty&quot;:11]">
    <path clip-path="url(#pb1fdeae1e0)" d="M 79.353678 93.452312 
C 83.036605 93.452312 86.569184 92.777752 89.173406 91.577196 
C 91.777628 90.376639 93.240871 88.748107 93.240871 87.050263 
C 93.240871 85.35242 91.777628 83.723888 89.173406 82.523331 
C 86.569184 81.322775 83.036605 80.648215 79.353678 80.648215 
C 75.670752 80.648215 72.138173 81.322775 69.533951 82.523331 
C 66.929728 83.723888 65.466486 85.35242 65.466486 87.050263 
C 65.466486 88.748107 66.929728 90.376639 69.533951 91.577196 
C 72.138173 92.777752 75.670752 93.452312 79.353678 93.452312 
z
" style="fill:#0000ff;opacity:0.2;stroke:#0000ff;stroke-linejoin:miter;stroke-width:2;"/>
   </g>
   <g id="[&quot;g_s&quot;:7,&quot;g_t&quot;:6,&quot;coords&quot;:[[96.0, -783.0],[78.0, -778.0]],&quot;certainty&quot;:11]">
    <path clip-path="url(#pb1fdeae1e0)" d="M 121.015255 98.787353 
C 124.698182 98.787353 128.230761 98.112793 130.834983 96.912236 
C 133.439205 95.71168 134.902447 94.083147 134.902447 92.385304 
C 134.902447 90.687461 133.439205 89.058928 130.834983 87.858372 
C 128.230761 86.657816 124.698182 85.983255 121.015255 85.983255 
C 117.332329 85.983255 113.79975 86.657816 111.195527 87.858372 
C 108.591305 89.058928 107.128063 90.687461 107.128063 92.385304 
C 107.128063 94.083147 108.591305 95.71168 111.195527 96.912236 
C 113.79975 98.112793 117.332329 98.787353 121.015255 98.787353 
z
" style="fill:#ff0000;opacity:0.2;stroke:#ff0000;stroke-linejoin:miter;stroke-width:2;"/>
   </g>
   <g id="patch_23">
    <path d="M 79.353678 87.050263 
Q 99.191495 89.590627 116.925174 91.861542 
" style="fill:none;opacity:0.5;stroke:#0000ff;stroke-linecap:round;stroke-width:3;"/>
    <path d="M 115.627853 90.183163 
L 116.925174 91.861542 
L 115.246795 93.158863 
" style="fill:none;opacity:0.5;stroke:#0000ff;stroke-linecap:round;stroke-width:3;"/>
   </g>
   <g id="[&quot;g_s&quot;:7,&quot;g_t&quot;:1,&quot;coords&quot;:[[139.0, -724.0],[145.0, -741.0]],&quot;certainty&quot;:11]">
    <path clip-path="url(#pb1fdeae1e0)" d="M 220.540133 35.833872 
C 224.22306 35.833872 227.755639 35.159312 230.359861 33.958755 
C 232.964083 32.758199 234.427325 31.129666 234.427325 29.431823 
C 234.427325 27.73398 232.964083 26.105447 230.359861 24.904891 
C 227.755639 23.704334 224.22306 23.029774 220.540133 23.029774 
C 216.857207 23.029774 213.324628 23.704334 210.720405 24.904891 
C 208.116183 26.105447 206.652941 27.73398 206.652941 29.431823 
C 206.652941 31.129666 208.116183 32.758199 210.720405 33.958755 
C 213.324628 35.159312 216.857207 35.833872 220.540133 35.833872 
z
" style="fill:#0000ff;opacity:0.2;stroke:#0000ff;stroke-linejoin:miter;stroke-width:2;"/>
   </g>
   <g id="[&quot;g_s&quot;:1,&quot;g_t&quot;:7,&quot;coords&quot;:[[145.0, -741.0],[139.0, -724.0]],&quot;certainty&quot;:11]">
    <path clip-path="url(#pb1fdeae1e0)" d="M 234.427325 53.973011 
C 238.110252 53.973011 241.642831 53.29845 244.247053 52.097894 
C 246.851275 50.897337 248.314518 49.268805 248.314518 47.570962 
C 248.314518 45.873119 246.851275 44.244586 244.247053 43.04403 
C 241.642831 41.843473 238.110252 41.168913 234.427325 41.168913 
C 230.744399 41.168913 227.21182 41.843473 224.607598 43.04403 
C 222.003375 44.244586 220.540133 45.873119 220.540133 47.570962 
C 220.540133 49.268805 222.003375 50.897337 224.607598 52.097894 
C 227.21182 53.29845 230.744399 53.973011 234.427325 53.973011 
z
" style="fill:#ff0000;opacity:0.2;stroke:#ff0000;stroke-linejoin:miter;stroke-width:2;"/>
   </g>
   <g id="patch_24">
    <path d="M 220.540133 29.431823 
Q 226.875995 37.707584 231.922318 44.298978 
" style="fill:none;opacity:0.5;stroke:#0000ff;stroke-linecap:round;stroke-width:3;"/>
    <path d="M 232.201504 42.196109 
L 231.922318 44.298978 
L 229.81945 44.019792 
" style="fill:none;opacity:0.5;stroke:#0000ff;stroke-linecap:round;stroke-width:3;"/>
   </g>
   <g id="[&quot;g_s&quot;:1,&quot;g_t&quot;:7,&quot;coords&quot;:[[145.0, -741.0],[139.0, -724.0]],&quot;certainty&quot;:11]">
    <path clip-path="url(#pb1fdeae1e0)" d="M 234.427325 53.973011 
C 238.110252 53.973011 241.642831 53.29845 244.247053 52.097894 
C 246.851275 50.897337 248.314518 49.268805 248.314518 47.570962 
C 248.314518 45.873119 246.851275 44.244586 244.247053 43.04403 
C 241.642831 41.843473 238.110252 41.168913 234.427325 41.168913 
C 230.744399 41.168913 227.21182 41.843473 224.607598 43.04403 
C 222.003375 44.244586 220.540133 45.873119 220.540133 47.570962 
C 220.540133 49.268805 222.003375 50.897337 224.607598 52.097894 
C 227.21182 53.29845 230.744399 53.973011 234.427325 53.973011 
z
" style="fill:#0000ff;opacity:0.2;stroke:#0000ff;stroke-linejoin:miter;stroke-width:2;"/>
   </g>
   <g id="[&quot;g_s&quot;:7,&quot;g_t&quot;:1,&quot;coords&quot;:[[139.0, -724.0],[145.0, -741.0]],&quot;certainty&quot;:11]">
    <path clip-path="url(#pb1fdeae1e0)" d="M 220.540133 35.833872 
C 224.22306 35.833872 227.755639 35.159312 230.359861 33.958755 
C 232.964083 32.758199 234.427325 31.129666 234.427325 29.431823 
C 234.427325 27.73398 232.964083 26.105447 230.359861 24.904891 
C 227.755639 23.704334 224.22306 23.029774 220.540133 23.029774 
C 216.857207 23.029774 213.324628 23.704334 210.720405 24.904891 
C 208.116183 26.105447 206.652941 27.73398 206.652941 29.431823 
C 206.652941 31.129666 208.116183 32.758199 210.720405 33.958755 
C 213.324628 35.159312 216.857207 35.833872 220.540133 35.833872 
z
" style="fill:#ff0000;opacity:0.2;stroke:#ff0000;stroke-linejoin:miter;stroke-width:2;"/>
   </g>
   <g id="patch_25">
    <path d="M 234.427325 47.570962 
Q 228.091463 39.295201 223.04514 32.703807 
" style="fill:none;opacity:0.5;stroke:#ff0000;stroke-linecap:round;stroke-width:3;"/>
    <path d="M 222.765955 34.806675 
L 223.04514 32.703807 
L 225.148008 32.982992 
" style="fill:none;opacity:0.5;stroke:#ff0000;stroke-linecap:round;stroke-width:3;"/>
   </g>
   <g id="[&quot;g_s&quot;:2,&quot;g_t&quot;:1,&quot;coords&quot;:[[213.0, -821.0],[227.0, -833.0]],&quot;certainty&quot;:11]">
    <path clip-path="url(#pb1fdeae1e0)" d="M 391.815504 139.333663 
C 395.498431 139.333663 399.03101 138.659103 401.635232 137.458546 
C 404.239454 136.25799 405.702697 134.629457 405.702697 132.931614 
C 405.702697 131.233771 404.239454 129.605238 401.635232 128.404682 
C 399.03101 127.204125 395.498431 126.529565 391.815504 126.529565 
C 388.132578 126.529565 384.599999 127.204125 381.995777 128.404682 
C 379.391554 129.605238 377.928312 131.233771 377.928312 132.931614 
C 377.928312 134.629457 379.391554 136.25799 381.995777 137.458546 
C 384.599999 138.659103 388.132578 139.333663 391.815504 139.333663 
z
" style="fill:#0000ff;opacity:0.2;stroke:#0000ff;stroke-linejoin:miter;stroke-width:2;"/>
   </g>
   <g id="[&quot;g_s&quot;:1,&quot;g_t&quot;:2,&quot;coords&quot;:[[227.0, -833.0],[213.0, -821.0]],&quot;certainty&quot;:11]">
    <path clip-path="url(#pb1fdeae1e0)" d="M 424.218953 152.137761 
C 427.901879 152.137761 431.434459 151.463201 434.038681 150.262644 
C 436.642903 149.062088 438.106145 147.433555 438.106145 145.735712 
C 438.106145 144.037869 436.642903 142.409336 434.038681 141.20878 
C 431.434459 140.008223 427.901879 139.333663 424.218953 139.333663 
C 420.536027 139.333663 417.003447 140.008223 414.399225 141.20878 
C 411.795003 142.409336 410.331761 144.037869 410.331761 145.735712 
C 410.331761 147.433555 411.795003 149.062088 414.399225 150.262644 
C 417.003447 151.463201 420.536027 152.137761 424.218953 152.137761 
z
" style="fill:#ff0000;opacity:0.2;stroke:#ff0000;stroke-linejoin:miter;stroke-width:2;"/>
   </g>
   <g id="patch_26">
    <path d="M 391.815504 132.931614 
Q 407.085709 138.965576 420.383032 144.219962 
" style="fill:none;opacity:0.5;stroke:#ff0000;stroke-linecap:round;stroke-width:3;"/>
    <path d="M 419.539238 142.273681 
L 420.383032 144.219962 
L 418.43675 145.063756 
" style="fill:none;opacity:0.5;stroke:#ff0000;stroke-linecap:round;stroke-width:3;"/>
   </g>
   <g id="[&quot;g_s&quot;:3,&quot;g_t&quot;:2,&quot;coords&quot;:[[100.0, -941.0],[87.0, -982.0]],&quot;certainty&quot;:5]">
    <path clip-path="url(#pb1fdeae1e0)" d="M 130.273383 264.173617 
C 132.114847 264.173617 133.881136 263.836337 135.183247 263.236059 
C 136.485358 262.63578 137.216979 261.821514 137.216979 260.972593 
C 137.216979 260.123671 136.485358 259.309405 135.183247 258.709126 
C 133.881136 258.108848 132.114847 257.771568 130.273383 257.771568 
C 128.43192 257.771568 126.665631 258.108848 125.363519 258.709126 
C 124.061408 259.309405 123.329787 260.123671 123.329787 260.972593 
C 123.329787 261.821514 124.061408 262.63578 125.363519 263.236059 
C 126.665631 263.836337 128.43192 264.173617 130.273383 264.173617 
z
" style="fill:#0000ff;opacity:0.2;stroke:#0000ff;stroke-linejoin:miter;stroke-width:2;"/>
   </g>
   <g id="[&quot;g_s&quot;:2,&quot;g_t&quot;:3,&quot;coords&quot;:[[87.0, -982.0],[100.0, -941.0]],&quot;certainty&quot;:5]">
    <path clip-path="url(#pb1fdeae1e0)" d="M 100.184467 307.920951 
C 102.02593 307.920951 103.79222 307.583671 105.094331 306.983393 
C 106.396442 306.383115 107.128063 305.568848 107.128063 304.719927 
C 107.128063 303.871005 106.396442 303.056739 105.094331 302.456461 
C 103.79222 301.856183 102.02593 301.518902 100.184467 301.518902 
C 98.343004 301.518902 96.576714 301.856183 95.274603 302.456461 
C 93.972492 303.056739 93.240871 303.871005 93.240871 304.719927 
C 93.240871 305.568848 93.972492 306.383115 95.274603 306.983393 
C 96.576714 307.583671 98.343004 307.920951 100.184467 307.920951 
z
" style="fill:#ff0000;opacity:0.2;stroke:#ff0000;stroke-linejoin:miter;stroke-width:2;"/>
   </g>
   <g id="patch_27">
    <path d="M 130.273383 260.972593 
Q 115.79548 282.022526 101.918642 302.198549 
" style="fill:none;opacity:0.5;stroke:#ff0000;stroke-linecap:round;stroke-width:1.5;"/>
    <path d="M 104.004574 301.812688 
L 101.918642 302.198549 
L 101.532781 300.112617 
" style="fill:none;opacity:0.5;stroke:#ff0000;stroke-linecap:round;stroke-width:1.5;"/>
   </g>
   <g id="[&quot;g_s&quot;:4,&quot;g_t&quot;:3,&quot;coords&quot;:[[92.0, -915.0],[78.0, -955.0]],&quot;certainty&quot;:6]">
    <path clip-path="url(#pb1fdeae1e0)" d="M 111.757127 236.964909 
C 113.905501 236.964909 115.966172 236.571416 117.485302 235.871091 
C 119.004431 235.170766 119.857989 234.220789 119.857989 233.230381 
C 119.857989 232.239972 119.004431 231.289995 117.485302 230.58967 
C 115.966172 229.889345 113.905501 229.495852 111.757127 229.495852 
C 109.608753 229.495852 107.548082 229.889345 106.028952 230.58967 
C 104.509823 231.289995 103.656265 232.239972 103.656265 233.230381 
C 103.656265 234.220789 104.509823 235.170766 106.028952 235.871091 
C 107.548082 236.571416 109.608753 236.964909 111.757127 236.964909 
z
" style="fill:#0000ff;opacity:0.2;stroke:#0000ff;stroke-linejoin:miter;stroke-width:2;"/>
   </g>
   <g id="[&quot;g_s&quot;:3,&quot;g_t&quot;:4,&quot;coords&quot;:[[78.0, -955.0],[92.0, -915.0]],&quot;certainty&quot;:6]">
    <path clip-path="url(#pb1fdeae1e0)" d="M 79.353678 279.645235 
C 81.502052 279.645235 83.562723 279.251742 85.081853 278.551417 
C 86.600983 277.851093 87.454541 276.901115 87.454541 275.910707 
C 87.454541 274.920298 86.600983 273.970321 85.081853 273.269996 
C 83.562723 272.569672 81.502052 272.176178 79.353678 272.176178 
C 77.205305 272.176178 75.144633 272.569672 73.625504 273.269996 
C 72.106374 273.970321 71.252816 274.920298 71.252816 275.910707 
C 71.252816 276.901115 72.106374 277.851093 73.625504 278.551417 
C 75.144633 279.251742 77.205305 279.645235 79.353678 279.645235 
z
" style="fill:#ff0000;opacity:0.2;stroke:#ff0000;stroke-linejoin:miter;stroke-width:2;"/>
   </g>
   <g id="patch_28">
    <path d="M 111.757127 233.230381 
Q 96.159605 253.774716 81.310344 273.333477 
" style="fill:none;opacity:0.5;stroke:#ff0000;stroke-linecap:round;stroke-width:1.75;"/>
    <path d="M 83.412069 273.04581 
L 81.310344 273.333477 
L 81.022676 271.231753 
" style="fill:none;opacity:0.5;stroke:#ff0000;stroke-linecap:round;stroke-width:1.75;"/>
   </g>
   <g id="[&quot;g_s&quot;:5,&quot;g_t&quot;:4,&quot;coords&quot;:[[162.0, -858.0],[153.0, -872.0]],&quot;certainty&quot;:11]">
    <path clip-path="url(#pb1fdeae1e0)" d="M 273.77437 178.812965 
C 277.457297 178.812965 280.989876 178.138404 283.594098 176.937848 
C 286.19832 175.737292 287.661562 174.108759 287.661562 172.410916 
C 287.661562 170.713073 286.19832 169.08454 283.594098 167.883984 
C 280.989876 166.683427 277.457297 166.008867 273.77437 166.008867 
C 270.091444 166.008867 266.558865 166.683427 263.954642 167.883984 
C 261.35042 169.08454 259.887178 170.713073 259.887178 172.410916 
C 259.887178 174.108759 261.35042 175.737292 263.954642 176.937848 
C 266.558865 178.138404 270.091444 178.812965 273.77437 178.812965 
z
" style="fill:#0000ff;opacity:0.2;stroke:#0000ff;stroke-linejoin:miter;stroke-width:2;"/>
   </g>
   <g id="[&quot;g_s&quot;:4,&quot;g_t&quot;:5,&quot;coords&quot;:[[153.0, -872.0],[162.0, -858.0]],&quot;certainty&quot;:11]">
    <path clip-path="url(#pb1fdeae1e0)" d="M 252.943582 193.751079 
C 256.626508 193.751079 260.159087 193.076519 262.76331 191.875962 
C 265.367532 190.675406 266.830774 189.046873 266.830774 187.34903 
C 266.830774 185.651187 265.367532 184.022654 262.76331 182.822098 
C 260.159087 181.621541 256.626508 180.946981 252.943582 180.946981 
C 249.260655 180.946981 245.728076 181.621541 243.123854 182.822098 
C 240.519632 184.022654 239.056389 185.651187 239.056389 187.34903 
C 239.056389 189.046873 240.519632 190.675406 243.123854 191.875962 
C 245.728076 193.076519 249.260655 193.751079 252.943582 193.751079 
z
" style="fill:#ff0000;opacity:0.2;stroke:#ff0000;stroke-linejoin:miter;stroke-width:2;"/>
   </g>
   <g id="patch_29">
    <path d="M 273.77437 172.410916 
Q 264.171407 179.297365 256.292322 184.947591 
" style="fill:none;opacity:0.5;stroke:#ff0000;stroke-linecap:round;stroke-width:3;"/>
    <path d="M 258.385429 185.292416 
L 256.292322 184.947591 
L 256.637147 182.854484 
" style="fill:none;opacity:0.5;stroke:#ff0000;stroke-linecap:round;stroke-width:3;"/>
   </g>
   <g id="[&quot;g_s&quot;:6,&quot;g_t&quot;:5,&quot;coords&quot;:[[113.0, -811.0],[104.0, -817.0]],&quot;certainty&quot;:5]">
    <path clip-path="url(#pb1fdeae1e0)" d="M 160.3623 125.462557 
C 162.203763 125.462557 163.970053 125.125277 165.272164 124.524999 
C 166.574275 123.92472 167.305896 123.110454 167.305896 122.261533 
C 167.305896 121.412611 166.574275 120.598345 165.272164 119.998066 
C 163.970053 119.397788 162.203763 119.060508 160.3623 119.060508 
C 158.520837 119.060508 156.754547 119.397788 155.452436 119.998066 
C 154.150325 120.598345 153.418704 121.412611 153.418704 122.261533 
C 153.418704 123.110454 154.150325 123.92472 155.452436 124.524999 
C 156.754547 125.125277 158.520837 125.462557 160.3623 125.462557 
z
" style="fill:#0000ff;opacity:0.2;stroke:#0000ff;stroke-linejoin:miter;stroke-width:2;"/>
   </g>
   <g id="[&quot;g_s&quot;:5,&quot;g_t&quot;:6,&quot;coords&quot;:[[104.0, -817.0],[113.0, -811.0]],&quot;certainty&quot;:5]">
    <path clip-path="url(#pb1fdeae1e0)" d="M 139.531512 131.864606 
C 141.372975 131.864606 143.139264 131.527326 144.441375 130.927048 
C 145.743487 130.326769 146.475108 129.512503 146.475108 128.663581 
C 146.475108 127.81466 145.743487 127.000394 144.441375 126.400115 
C 143.139264 125.799837 141.372975 125.462557 139.531512 125.462557 
C 137.690048 125.462557 135.923759 125.799837 134.621648 126.400115 
C 133.319536 127.000394 132.587915 127.81466 132.587915 128.663581 
C 132.587915 129.512503 133.319536 130.326769 134.621648 130.927048 
C 135.923759 131.527326 137.690048 131.864606 139.531512 131.864606 
z
" style="fill:#ff0000;opacity:0.2;stroke:#ff0000;stroke-linejoin:miter;stroke-width:2;"/>
   </g>
   <g id="patch_30">
    <path d="M 160.3623 122.261533 
Q 150.901735 125.169104 142.455028 127.76508 
" style="fill:none;opacity:0.5;stroke:#ff0000;stroke-linecap:round;stroke-width:1.5;"/>
    <path d="M 144.329502 128.75823 
L 142.455028 127.76508 
L 143.448178 125.890606 
" style="fill:none;opacity:0.5;stroke:#ff0000;stroke-linecap:round;stroke-width:1.5;"/>
   </g>
   <g id="[&quot;g_s&quot;:7,&quot;g_t&quot;:6,&quot;coords&quot;:[[96.0, -783.0],[78.0, -778.0]],&quot;certainty&quot;:11]">
    <path clip-path="url(#pb1fdeae1e0)" d="M 121.015255 98.787353 
C 124.698182 98.787353 128.230761 98.112793 130.834983 96.912236 
C 133.439205 95.71168 134.902447 94.083147 134.902447 92.385304 
C 134.902447 90.687461 133.439205 89.058928 130.834983 87.858372 
C 128.230761 86.657816 124.698182 85.983255 121.015255 85.983255 
C 117.332329 85.983255 113.79975 86.657816 111.195527 87.858372 
C 108.591305 89.058928 107.128063 90.687461 107.128063 92.385304 
C 107.128063 94.083147 108.591305 95.71168 111.195527 96.912236 
C 113.79975 98.112793 117.332329 98.787353 121.015255 98.787353 
z
" style="fill:#0000ff;opacity:0.2;stroke:#0000ff;stroke-linejoin:miter;stroke-width:2;"/>
   </g>
   <g id="[&quot;g_s&quot;:6,&quot;g_t&quot;:7,&quot;coords&quot;:[[78.0, -778.0],[96.0, -783.0]],&quot;certainty&quot;:11]">
    <path clip-path="url(#pb1fdeae1e0)" d="M 79.353678 93.452312 
C 83.036605 93.452312 86.569184 92.777752 89.173406 91.577196 
C 91.777628 90.376639 93.240871 88.748107 93.240871 87.050263 
C 93.240871 85.35242 91.777628 83.723888 89.173406 82.523331 
C 86.569184 81.322775 83.036605 80.648215 79.353678 80.648215 
C 75.670752 80.648215 72.138173 81.322775 69.533951 82.523331 
C 66.929728 83.723888 65.466486 85.35242 65.466486 87.050263 
C 65.466486 88.748107 66.929728 90.376639 69.533951 91.577196 
C 72.138173 92.777752 75.670752 93.452312 79.353678 93.452312 
z
" style="fill:#ff0000;opacity:0.2;stroke:#ff0000;stroke-linejoin:miter;stroke-width:2;"/>
   </g>
   <g id="patch_31">
    <path d="M 121.015255 92.385304 
Q 101.177438 89.84494 83.44376 87.574025 
" style="fill:none;opacity:0.5;stroke:#ff0000;stroke-linecap:round;stroke-width:3;"/>
    <path d="M 84.741081 89.252405 
L 83.44376 87.574025 
L 85.122139 86.276704 
" style="fill:none;opacity:0.5;stroke:#ff0000;stroke-linecap:round;stroke-width:3;"/>
   </g>
   <g id="patch_32">
    <path clip-path="url(#pb1fdeae1e0)" d="M 408.017229 144.668704 
C 411.086334 144.668704 414.03015 144.10657 416.200335 143.106107 
C 418.37052 142.105643 419.589889 140.748532 419.589889 139.333663 
C 419.589889 137.918794 418.37052 136.561683 416.200335 135.561219 
C 414.03015 134.560756 411.086334 133.998622 408.017229 133.998622 
C 404.948123 133.998622 402.004307 134.560756 399.834122 135.561219 
C 397.663937 136.561683 396.444568 137.918794 396.444568 139.333663 
C 396.444568 140.748532 397.663937 142.105643 399.834122 143.106107 
C 402.004307 144.10657 404.948123 144.668704 408.017229 144.668704 
z
" style="fill:#008000;opacity:0.2;stroke:#008000;stroke-linejoin:miter;stroke-width:2;"/>
   </g>
   <g id="patch_33">
    <path clip-path="url(#pb1fdeae1e0)" d="M 115.228925 288.1813 
C 118.29803 288.1813 121.241846 287.619167 123.412032 286.618703 
C 125.582217 285.61824 126.801585 284.261129 126.801585 282.84626 
C 126.801585 281.43139 125.582217 280.07428 123.412032 279.073816 
C 121.241846 278.073352 118.29803 277.511219 115.228925 277.511219 
C 112.15982 277.511219 109.216004 278.073352 107.045819 279.073816 
C 104.875633 280.07428 103.656265 281.43139 103.656265 282.84626 
C 103.656265 284.261129 104.875633 285.61824 107.045819 286.618703 
C 109.216004 287.619167 112.15982 288.1813 115.228925 288.1813 
z
" style="fill:#008000;opacity:0.2;stroke:#008000;stroke-linejoin:miter;stroke-width:2;"/>
   </g>
   <g id="patch_34">
    <path clip-path="url(#pb1fdeae1e0)" d="M 95.555403 259.905584 
C 98.624508 259.905584 101.568324 259.343451 103.738509 258.342987 
C 105.908694 257.342523 107.128063 255.985413 107.128063 254.570544 
C 107.128063 253.155674 105.908694 251.798564 103.738509 250.7981 
C 101.568324 249.797636 98.624508 249.235503 95.555403 249.235503 
C 92.486297 249.235503 89.542481 249.797636 87.372296 250.7981 
C 85.202111 251.798564 83.982742 253.155674 83.982742 254.570544 
C 83.982742 255.985413 85.202111 257.342523 87.372296 258.342987 
C 89.542481 259.343451 92.486297 259.905584 95.555403 259.905584 
z
" style="fill:#008000;opacity:0.2;stroke:#008000;stroke-linejoin:miter;stroke-width:2;"/>
   </g>
   <g id="patch_35">
    <path clip-path="url(#pb1fdeae1e0)" d="M 263.358976 185.215014 
C 266.428081 185.215014 269.371897 184.65288 271.542082 183.652416 
C 273.712268 182.651953 274.931636 181.294842 274.931636 179.879973 
C 274.931636 178.465103 273.712268 177.107993 271.542082 176.107529 
C 269.371897 175.107066 266.428081 174.544932 263.358976 174.544932 
C 260.289871 174.544932 257.346055 175.107066 255.175869 176.107529 
C 253.005684 177.107993 251.786316 178.465103 251.786316 179.879973 
C 251.786316 181.294842 253.005684 182.651953 255.175869 183.652416 
C 257.346055 184.65288 260.289871 185.215014 263.358976 185.215014 
z
" style="fill:#008000;opacity:0.2;stroke:#008000;stroke-linejoin:miter;stroke-width:2;"/>
   </g>
   <g id="patch_36">
    <path clip-path="url(#pb1fdeae1e0)" d="M 149.946906 130.797598 
C 153.016011 130.797598 155.959827 130.235464 158.130012 129.235 
C 160.300197 128.234537 161.519566 126.877426 161.519566 125.462557 
C 161.519566 124.047688 160.300197 122.690577 158.130012 121.690113 
C 155.959827 120.68965 153.016011 120.127516 149.946906 120.127516 
C 146.8778 120.127516 143.933984 120.68965 141.763799 121.690113 
C 139.593614 122.690577 138.374246 124.047688 138.374246 125.462557 
C 138.374246 126.877426 139.593614 128.234537 141.763799 129.235 
C 143.933984 130.235464 146.8778 130.797598 149.946906 130.797598 
z
" style="fill:#008000;opacity:0.2;stroke:#008000;stroke-linejoin:miter;stroke-width:2;"/>
   </g>
   <g id="patch_37">
    <path clip-path="url(#pb1fdeae1e0)" d="M 100.184467 95.052825 
C 103.253572 95.052825 106.197388 94.490691 108.367573 93.490227 
C 110.537759 92.489764 111.757127 91.132653 111.757127 89.717784 
C 111.757127 88.302914 110.537759 86.945804 108.367573 85.94534 
C 106.197388 84.944877 103.253572 84.382743 100.184467 84.382743 
C 97.115361 84.382743 94.171545 84.944877 92.00136 85.94534 
C 89.831175 86.945804 88.611807 88.302914 88.611807 89.717784 
C 88.611807 91.132653 89.831175 92.489764 92.00136 93.490227 
C 94.171545 94.490691 97.115361 95.052825 100.184467 95.052825 
z
" style="fill:#008000;opacity:0.2;stroke:#008000;stroke-linejoin:miter;stroke-width:2;"/>
   </g>
   <g id="patch_38">
    <path clip-path="url(#pb1fdeae1e0)" d="M 227.483729 43.836433 
C 230.552835 43.836433 233.496651 43.2743 235.666836 42.273836 
C 237.837021 41.273372 239.056389 39.916262 239.056389 38.501392 
C 239.056389 37.086523 237.837021 35.729413 235.666836 34.728949 
C 233.496651 33.728485 230.552835 33.166352 227.483729 33.166352 
C 224.414624 33.166352 221.470808 33.728485 219.300623 34.728949 
C 217.130437 35.729413 215.911069 37.086523 215.911069 38.501392 
C 215.911069 39.916262 217.130437 41.273372 219.300623 42.273836 
C 221.470808 43.2743 224.414624 43.836433 227.483729 43.836433 
z
" style="fill:#008000;opacity:0.2;stroke:#008000;stroke-linejoin:miter;stroke-width:2;"/>
   </g>
   <g id="patch_39">
    <path clip-path="url(#pb1fdeae1e0)" d="M 424.218953 167.075875 
C 436.495374 167.075875 448.270638 164.827341 456.951379 160.825486 
C 465.63212 156.823631 470.509594 151.395189 470.509594 145.735712 
C 470.509594 140.076235 465.63212 134.647793 456.951379 130.645938 
C 448.270638 126.644083 436.495374 124.395549 424.218953 124.395549 
C 411.942531 124.395549 400.167268 126.644083 391.486527 130.645938 
C 382.805786 134.647793 377.928312 140.076235 377.928312 145.735712 
C 377.928312 151.395189 382.805786 156.823631 391.486527 160.825486 
C 400.167268 164.827341 411.942531 167.075875 424.218953 167.075875 
z
" style="fill:none;opacity:0.2;stroke:#ff0000;stroke-linejoin:miter;stroke-width:2;"/>
   </g>
   <g id="patch_40">
    <path clip-path="url(#pb1fdeae1e0)" d="M 234.427325 68.911125 
C 246.703747 68.911125 258.479011 66.662591 267.159751 62.660736 
C 275.840492 58.658881 280.717966 53.230439 280.717966 47.570962 
C 280.717966 41.911484 275.840492 36.483043 267.159751 32.481188 
C 258.479011 28.479333 246.703747 26.230799 234.427325 26.230799 
C 222.150904 26.230799 210.37564 28.479333 201.694899 32.481188 
C 193.014158 36.483043 188.136684 41.911484 188.136684 47.570962 
C 188.136684 53.230439 193.014158 58.658881 201.694899 62.660736 
C 210.37564 66.662591 222.150904 68.911125 234.427325 68.911125 
z
" style="fill:none;opacity:0.2;stroke:#0000ff;stroke-linejoin:miter;stroke-width:2;"/>
   </g>
   <g id="patch_41">
    <path clip-path="url(#pb1fdeae1e0)" d="M 424.218953 156.405793 
C 430.357164 156.405793 436.244796 155.281526 440.585166 153.280599 
C 444.925536 151.279672 447.364273 148.565451 447.364273 145.735712 
C 447.364273 142.905973 444.925536 140.191752 440.585166 138.190825 
C 436.244796 136.189897 430.357164 135.06563 424.218953 135.06563 
C 418.080742 135.06563 412.19311 136.189897 407.85274 138.190825 
C 403.512369 140.191752 401.073633 142.905973 401.073633 145.735712 
C 401.073633 148.565451 403.512369 151.279672 407.85274 153.280599 
C 412.19311 155.281526 418.080742 156.405793 424.218953 156.405793 
z
" style="fill:none;opacity:0.2;stroke:#008000;stroke-linejoin:miter;stroke-width:2;"/>
   </g>
   <g id="patch_42">
    <path clip-path="url(#pb1fdeae1e0)" d="M 391.815504 143.601696 
C 397.953715 143.601696 403.841347 142.477429 408.181717 140.476501 
C 412.522088 138.475574 414.960825 135.761353 414.960825 132.931614 
C 414.960825 130.101875 412.522088 127.387654 408.181717 125.386727 
C 403.841347 123.3858 397.953715 122.261533 391.815504 122.261533 
C 385.677294 122.261533 379.789662 123.3858 375.449291 125.386727 
C 371.108921 127.387654 368.670184 130.101875 368.670184 132.931614 
C 368.670184 135.761353 371.108921 138.475574 375.449291 140.476501 
C 379.789662 142.477429 385.677294 143.601696 391.815504 143.601696 
z
" style="fill:none;opacity:0.2;stroke:#008000;stroke-linejoin:miter;stroke-width:2;"/>
   </g>
   <g id="patch_43">
    <path d="M 408.017229 139.333663 
Q 261.623077 211.089961 115.228925 282.84626 
" style="fill:none;opacity:0.5;stroke:#008000;stroke-linecap:round;stroke-width:2;"/>
   </g>
   <g id="patch_44">
    <path d="M 422.903699 145.215994 
Q 408.948749 139.70175 394.993799 134.187505 
" style="fill:none;opacity:0.5;stroke:#800080;stroke-linecap:round;stroke-width:2;"/>
    <path d="M 422.059905 143.269713 
L 422.903699 145.215994 
L 420.957417 146.059788 
" style="fill:none;opacity:0.5;stroke:#800080;stroke-linecap:round;stroke-width:2;"/>
    <path d="M 395.837593 136.133786 
L 394.993799 134.187505 
L 396.94008 133.343711 
" style="fill:none;opacity:0.5;stroke:#800080;stroke-linecap:round;stroke-width:2;"/>
   </g>
   <g id="patch_45">
    <path d="M 115.228925 282.84626 
Q 105.392164 268.708402 95.555403 254.570544 
" style="fill:none;opacity:0.5;stroke:#008000;stroke-linecap:round;stroke-width:2;"/>
   </g>
   <g id="patch_46">
    <path d="M 100.985888 303.554713 
Q 114.66237 283.669993 128.338853 263.785274 
" style="fill:none;opacity:0.5;stroke:#800080;stroke-linecap:round;stroke-width:2;"/>
    <path d="M 103.07182 303.168852 
L 100.985888 303.554713 
L 100.600027 301.468781 
" style="fill:none;opacity:0.5;stroke:#800080;stroke-linecap:round;stroke-width:2;"/>
    <path d="M 126.252921 264.171135 
L 128.338853 263.785274 
L 128.724714 265.871206 
" style="fill:none;opacity:0.5;stroke:#800080;stroke-linecap:round;stroke-width:2;"/>
   </g>
   <g id="patch_47">
    <path d="M 95.555403 254.570544 
Q 179.457189 217.225258 263.358976 179.879973 
" style="fill:none;opacity:0.5;stroke:#008000;stroke-linecap:round;stroke-width:2;"/>
   </g>
   <g id="patch_48">
    <path d="M 80.208833 274.784336 
Q 94.9512 255.366371 109.693567 235.948406 
" style="fill:none;opacity:0.5;stroke:#800080;stroke-linecap:round;stroke-width:2;"/>
    <path d="M 82.310558 274.496669 
L 80.208833 274.784336 
L 79.921166 272.682611 
" style="fill:none;opacity:0.5;stroke:#800080;stroke-linecap:round;stroke-width:2;"/>
    <path d="M 107.591842 236.236074 
L 109.693567 235.948406 
L 109.981235 238.050131 
" style="fill:none;opacity:0.5;stroke:#800080;stroke-linecap:round;stroke-width:2;"/>
   </g>
   <g id="patch_49">
    <path d="M 263.358976 179.879973 
Q 206.652941 152.671265 149.946906 125.462557 
" style="fill:none;opacity:0.5;stroke:#008000;stroke-linecap:round;stroke-width:2;"/>
   </g>
   <g id="patch_50">
    <path d="M 254.092834 186.524882 
Q 262.546545 180.462581 271.000256 174.400281 
" style="fill:none;opacity:0.5;stroke:#800080;stroke-linecap:round;stroke-width:2;"/>
    <path d="M 256.18594 186.869706 
L 254.092834 186.524882 
L 254.437658 184.431775 
" style="fill:none;opacity:0.5;stroke:#800080;stroke-linecap:round;stroke-width:2;"/>
    <path d="M 268.907149 174.055456 
L 271.000256 174.400281 
L 270.655431 176.493387 
" style="fill:none;opacity:0.5;stroke:#800080;stroke-linecap:round;stroke-width:2;"/>
   </g>
   <g id="patch_51">
    <path d="M 149.946906 125.462557 
Q 125.065686 107.59017 100.184467 89.717784 
" style="fill:none;opacity:0.5;stroke:#008000;stroke-linecap:round;stroke-width:2;"/>
   </g>
   <g id="patch_52">
    <path d="M 140.883323 128.248121 
Q 148.992077 125.75601 157.10083 123.263899 
" style="fill:none;opacity:0.5;stroke:#800080;stroke-linecap:round;stroke-width:2;"/>
    <path d="M 142.757797 129.241272 
L 140.883323 128.248121 
L 141.876473 126.373647 
" style="fill:none;opacity:0.5;stroke:#800080;stroke-linecap:round;stroke-width:2;"/>
    <path d="M 155.226356 122.270749 
L 157.10083 123.263899 
L 156.10768 125.138373 
" style="fill:none;opacity:0.5;stroke:#800080;stroke-linecap:round;stroke-width:2;"/>
   </g>
   <g id="patch_53">
    <path d="M 100.184467 89.717784 
Q 163.834098 64.109588 227.483729 38.501392 
" style="fill:none;opacity:0.5;stroke:#008000;stroke-linecap:round;stroke-width:2;"/>
   </g>
   <g id="patch_54">
    <path d="M 80.756437 87.229896 
Q 99.191495 89.590627 117.626553 91.951359 
" style="fill:none;opacity:0.5;stroke:#800080;stroke-linecap:round;stroke-width:2;"/>
    <path d="M 82.053758 88.908275 
L 80.756437 87.229896 
L 82.434817 85.932575 
" style="fill:none;opacity:0.5;stroke:#800080;stroke-linecap:round;stroke-width:2;"/>
    <path d="M 116.329232 90.272979 
L 117.626553 91.951359 
L 115.948174 93.24868 
" style="fill:none;opacity:0.5;stroke:#800080;stroke-linecap:round;stroke-width:2;"/>
   </g>
   <g id="patch_55">
    <path d="M 227.483729 38.501392 
Q 317.750479 88.917528 408.017229 139.333663 
" style="fill:none;opacity:0.5;stroke:#008000;stroke-linecap:round;stroke-width:2;"/>
   </g>
   <g id="patch_56">
    <path d="M 221.399825 30.554734 
Q 226.875995 37.707584 232.352165 44.860433 
" style="fill:none;opacity:0.5;stroke:#800080;stroke-linecap:round;stroke-width:2;"/>
    <path d="M 221.12064 32.657602 
L 221.399825 30.554734 
L 223.502694 30.833919 
" style="fill:none;opacity:0.5;stroke:#800080;stroke-linecap:round;stroke-width:2;"/>
    <path d="M 232.63135 42.757565 
L 232.352165 44.860433 
L 230.249296 44.581248 
" style="fill:none;opacity:0.5;stroke:#800080;stroke-linecap:round;stroke-width:2;"/>
   </g>
   <g id="line2d_1">
    <path clip-path="url(#pb1fdeae1e0)" d="M 424.218953 145.735712 
L 100.184467 304.719927 
L 79.353678 275.910707 
L 252.943582 187.34903 
L 139.531512 128.663581 
L 79.353678 87.050263 
L 220.540133 29.431823 
" style="fill:none;stroke:#ff0000;stroke-linecap:square;stroke-width:0.2;"/>
   </g>
   <g id="line2d_2">
    <path clip-path="url(#pb1fdeae1e0)" d="M 234.427325 47.570962 
L 391.815504 132.931614 
L 130.273383 260.972593 
L 111.757127 233.230381 
L 273.77437 172.410916 
L 160.3623 122.261533 
L 121.015255 92.385304 
" style="fill:none;stroke:#0000ff;stroke-linecap:square;stroke-width:0.2;"/>
   </g>
  </g>
 </g>
 <defs>
  <clipPath id="pb1fdeae1e0">
   <rect height="307.51175" width="409.903625" x="37.576375" y="13.32"/>
  </clipPath>
 </defs>
</svg>
