<?xml version="1.0" encoding="utf-8" standalone="no"?>
<!DOCTYPE svg PUBLIC "-//W3C//DTD SVG 1.1//EN"
  "http://www.w3.org/Graphics/SVG/1.1/DTD/svg11.dtd">
<!-- Created with matplotlib (http://matplotlib.org/) -->
<svg height="345.6pt" version="1.1" viewBox="0 0 460.8 345.6" width="460.8pt" xmlns="http://www.w3.org/2000/svg" xmlns:xlink="http://www.w3.org/1999/xlink">
 <defs>
  <style type="text/css">
*{stroke-linecap:butt;stroke-linejoin:round;}
  </style>
 </defs>
 <g id="figure_1">
  <g id="patch_1">
   <path d="M 0 345.6 
L 460.8 345.6 
L 460.8 0 
L 0 0 
z
" style="fill:#ffffff;"/>
  </g>
  <g id="axes_1">
   <g id="patch_2">
    <path clip-path="url(#p3308524c57)" d="M 220.724803 30.922522 
C 221.776135 30.922522 222.784549 30.73156 223.527952 30.391695 
C 224.271356 30.051829 224.689055 29.590807 224.689055 29.110164 
C 224.689055 28.629521 224.271356 28.1685 223.527952 27.828634 
C 222.784549 27.488768 221.776135 27.297807 220.724803 27.297807 
C 219.673471 27.297807 218.665058 27.488768 217.921654 27.828634 
C 217.17825 28.1685 216.760551 28.629521 216.760551 29.110164 
C 216.760551 29.590807 217.17825 30.051829 217.921654 30.391695 
C 218.665058 30.73156 219.673471 30.922522 220.724803 30.922522 
z
" style="fill:#ff0000;opacity:0.2;stroke:#ff0000;stroke-linejoin:miter;stroke-width:2;"/>
   </g>
   <g id="patch_3">
    <path clip-path="url(#p3308524c57)" d="M 424.883765 147.819577 
C 425.935097 147.819577 426.943511 147.628616 427.686915 147.28875 
C 428.430318 146.948884 428.848017 146.487862 428.848017 146.00722 
C 428.848017 145.526577 428.430318 145.065555 427.686915 144.725689 
C 426.943511 144.385824 425.935097 144.194862 424.883765 144.194862 
C 423.832434 144.194862 422.82402 144.385824 422.080616 144.725689 
C 421.337212 145.065555 420.919514 145.526577 420.919514 146.00722 
C 420.919514 146.487862 421.337212 146.948884 422.080616 147.28875 
C 422.82402 147.628616 423.832434 147.819577 424.883765 147.819577 
z
" style="fill:#ff0000;opacity:0.2;stroke:#ff0000;stroke-linejoin:miter;stroke-width:2;"/>
   </g>
   <g id="patch_4">
    <path clip-path="url(#p3308524c57)" d="M 99.815127 306.400854 
C 100.866458 306.400854 101.874872 306.209892 102.618276 305.870027 
C 103.36168 305.530161 103.779378 305.069139 103.779378 304.588496 
C 103.779378 304.107854 103.36168 303.646832 102.618276 303.306966 
C 101.874872 302.9671 100.866458 302.776139 99.815127 302.776139 
C 98.763795 302.776139 97.755381 302.9671 97.011977 303.306966 
C 96.268573 303.646832 95.850875 304.107854 95.850875 304.588496 
C 95.850875 305.069139 96.268573 305.530161 97.011977 305.870027 
C 97.755381 306.209892 98.763795 306.400854 99.815127 306.400854 
z
" style="fill:#ff0000;opacity:0.2;stroke:#ff0000;stroke-linejoin:miter;stroke-width:2;"/>
   </g>
   <g id="patch_5">
    <path clip-path="url(#p3308524c57)" d="M 78.011742 277.403135 
C 79.063074 277.403135 80.071488 277.212173 80.814892 276.872307 
C 81.558295 276.532442 81.975994 276.07142 81.975994 275.590777 
C 81.975994 275.110134 81.558295 274.649113 80.814892 274.309247 
C 80.071488 273.969381 79.063074 273.77842 78.011742 273.77842 
C 76.96041 273.77842 75.951997 273.969381 75.208593 274.309247 
C 74.465189 274.649113 74.047491 275.110134 74.047491 275.590777 
C 74.047491 276.07142 74.465189 276.532442 75.208593 276.872307 
C 75.951997 277.212173 76.96041 277.403135 78.011742 277.403135 
z
" style="fill:#ff0000;opacity:0.2;stroke:#ff0000;stroke-linejoin:miter;stroke-width:2;"/>
   </g>
   <g id="patch_6">
    <path clip-path="url(#p3308524c57)" d="M 254.420943 189.503798 
C 255.472274 189.503798 256.480688 189.312837 257.224092 188.972971 
C 257.967496 188.633105 258.385194 188.172084 258.385194 187.691441 
C 258.385194 187.210798 257.967496 186.749777 257.224092 186.409911 
C 256.480688 186.070045 255.472274 185.879084 254.420943 185.879084 
C 253.369611 185.879084 252.361197 186.070045 251.617793 186.409911 
C 250.874389 186.749777 250.456691 187.210798 250.456691 187.691441 
C 250.456691 188.172084 250.874389 188.633105 251.617793 188.972971 
C 252.361197 189.312837 253.369611 189.503798 254.420943 189.503798 
z
" style="fill:#ff0000;opacity:0.2;stroke:#ff0000;stroke-linejoin:miter;stroke-width:2;"/>
   </g>
   <g id="patch_7">
    <path clip-path="url(#p3308524c57)" d="M 139.457643 130.602181 
C 140.508975 130.602181 141.517389 130.41122 142.260793 130.071354 
C 143.004197 129.731488 143.421895 129.270467 143.421895 128.789824 
C 143.421895 128.309181 143.004197 127.848159 142.260793 127.508294 
C 141.517389 127.168428 140.508975 126.977466 139.457643 126.977466 
C 138.406312 126.977466 137.397898 127.168428 136.654494 127.508294 
C 135.91109 127.848159 135.493392 128.309181 135.493392 128.789824 
C 135.493392 129.270467 135.91109 129.731488 136.654494 130.071354 
C 137.397898 130.41122 138.406312 130.602181 139.457643 130.602181 
z
" style="fill:#ff0000;opacity:0.2;stroke:#ff0000;stroke-linejoin:miter;stroke-width:2;"/>
   </g>
   <g id="patch_8">
    <path clip-path="url(#p3308524c57)" d="M 78.011742 89.824139 
C 79.063074 89.824139 80.071488 89.633177 80.814892 89.293312 
C 81.558295 88.953446 81.975994 88.492424 81.975994 88.011781 
C 81.975994 87.531139 81.558295 87.070117 80.814892 86.730251 
C 80.071488 86.390385 79.063074 86.199424 78.011742 86.199424 
C 76.96041 86.199424 75.951997 86.390385 75.208593 86.730251 
C 74.465189 87.070117 74.047491 87.531139 74.047491 88.011781 
C 74.047491 88.492424 74.465189 88.953446 75.208593 89.293312 
C 75.951997 89.633177 76.96041 89.824139 78.011742 89.824139 
z
" style="fill:#ff0000;opacity:0.2;stroke:#ff0000;stroke-linejoin:miter;stroke-width:2;"/>
   </g>
   <g id="patch_9">
    <path clip-path="url(#p3308524c57)" d="M 229.644369 86.652513 
C 230.695701 86.652513 231.704115 86.461552 232.447519 86.121686 
C 233.190923 85.78182 233.608621 85.320799 233.608621 84.840156 
C 233.608621 84.359513 233.190923 83.898491 232.447519 83.558626 
C 231.704115 83.21876 230.695701 83.027798 229.644369 83.027798 
C 228.593038 83.027798 227.584624 83.21876 226.84122 83.558626 
C 226.097816 83.898491 225.680118 84.359513 225.680118 84.840156 
C 225.680118 85.320799 226.097816 85.78182 226.84122 86.121686 
C 227.584624 86.461552 228.593038 86.652513 229.644369 86.652513 
z
" style="fill:#0000ff;opacity:0.2;stroke:#0000ff;stroke-linejoin:miter;stroke-width:2;"/>
   </g>
   <g id="patch_10">
    <path clip-path="url(#p3308524c57)" d="M 386.232311 175.458028 
C 387.283643 175.458028 388.292057 175.267067 389.035461 174.927201 
C 389.778864 174.587335 390.196563 174.126314 390.196563 173.645671 
C 390.196563 173.165028 389.778864 172.704006 389.035461 172.364141 
C 388.292057 172.024275 387.283643 171.833313 386.232311 171.833313 
C 385.18098 171.833313 384.172566 172.024275 383.429162 172.364141 
C 382.685758 172.704006 382.26806 173.165028 382.26806 173.645671 
C 382.26806 174.126314 382.685758 174.587335 383.429162 174.927201 
C 384.172566 175.267067 385.18098 175.458028 386.232311 175.458028 
z
" style="fill:#0000ff;opacity:0.2;stroke:#0000ff;stroke-linejoin:miter;stroke-width:2;"/>
   </g>
   <g id="patch_11">
    <path clip-path="url(#p3308524c57)" d="M 128.555951 306.853943 
C 129.607283 306.853943 130.615697 306.662982 131.359101 306.323116 
C 132.102504 305.98325 132.520203 305.522229 132.520203 305.041586 
C 132.520203 304.560943 132.102504 304.099921 131.359101 303.760055 
C 130.615697 303.42019 129.607283 303.229228 128.555951 303.229228 
C 127.50462 303.229228 126.496206 303.42019 125.752802 303.760055 
C 125.009398 304.099921 124.5917 304.560943 124.5917 305.041586 
C 124.5917 305.522229 125.009398 305.98325 125.752802 306.323116 
C 126.496206 306.662982 127.50462 306.853943 128.555951 306.853943 
z
" style="fill:#0000ff;opacity:0.2;stroke:#0000ff;stroke-linejoin:miter;stroke-width:2;"/>
   </g>
   <g id="patch_12">
    <path clip-path="url(#p3308524c57)" d="M 116.663196 285.105654 
C 117.714528 285.105654 118.722942 284.914692 119.466346 284.574827 
C 120.209749 284.234961 120.627448 283.773939 120.627448 283.293296 
C 120.627448 282.812654 120.209749 282.351632 119.466346 282.011766 
C 118.722942 281.6719 117.714528 281.480939 116.663196 281.480939 
C 115.611864 281.480939 114.603451 281.6719 113.860047 282.011766 
C 113.116643 282.351632 112.698945 282.812654 112.698945 283.293296 
C 112.698945 283.773939 113.116643 284.234961 113.860047 284.574827 
C 114.603451 284.914692 115.611864 285.105654 116.663196 285.105654 
z
" style="fill:#0000ff;opacity:0.2;stroke:#0000ff;stroke-linejoin:miter;stroke-width:2;"/>
   </g>
   <g id="patch_13">
    <path clip-path="url(#p3308524c57)" d="M 279.197516 206.268105 
C 280.248847 206.268105 281.257261 206.077143 282.000665 205.737278 
C 282.744069 205.397412 283.161767 204.93639 283.161767 204.455747 
C 283.161767 203.975105 282.744069 203.514083 282.000665 203.174217 
C 281.257261 202.834351 280.248847 202.64339 279.197516 202.64339 
C 278.146184 202.64339 277.13777 202.834351 276.394366 203.174217 
C 275.650963 203.514083 275.233264 203.975105 275.233264 204.455747 
C 275.233264 204.93639 275.650963 205.397412 276.394366 205.737278 
C 277.13777 206.077143 278.146184 206.268105 279.197516 206.268105 
z
" style="fill:#0000ff;opacity:0.2;stroke:#0000ff;stroke-linejoin:miter;stroke-width:2;"/>
   </g>
   <g id="patch_14">
    <path clip-path="url(#p3308524c57)" d="M 166.216342 153.709739 
C 167.267674 153.709739 168.276088 153.518777 169.019492 153.178912 
C 169.762896 152.839046 170.180594 152.378024 170.180594 151.897381 
C 170.180594 151.416739 169.762896 150.955717 169.019492 150.615851 
C 168.276088 150.275985 167.267674 150.085024 166.216342 150.085024 
C 165.165011 150.085024 164.156597 150.275985 163.413193 150.615851 
C 162.669789 150.955717 162.252091 151.416739 162.252091 151.897381 
C 162.252091 152.378024 162.669789 152.839046 163.413193 153.178912 
C 164.156597 153.518777 165.165011 153.709739 166.216342 153.709739 
z
" style="fill:#0000ff;opacity:0.2;stroke:#0000ff;stroke-linejoin:miter;stroke-width:2;"/>
   </g>
   <g id="patch_15">
    <path clip-path="url(#p3308524c57)" d="M 132.520203 127.430556 
C 133.571535 127.430556 134.579948 127.239594 135.323352 126.899729 
C 136.066756 126.559863 136.484455 126.098841 136.484455 125.618198 
C 136.484455 125.137556 136.066756 124.676534 135.323352 124.336668 
C 134.579948 123.996802 133.571535 123.805841 132.520203 123.805841 
C 131.468871 123.805841 130.460458 123.996802 129.717054 124.336668 
C 128.97365 124.676534 128.555951 125.137556 128.555951 125.618198 
C 128.555951 126.098841 128.97365 126.559863 129.717054 126.899729 
C 130.460458 127.239594 131.468871 127.430556 132.520203 127.430556 
z
" style="fill:#0000ff;opacity:0.2;stroke:#0000ff;stroke-linejoin:miter;stroke-width:2;"/>
   </g>
   <g id="patch_16">
    <path clip-path="url(#p3308524c57)" d="M 220.724803 29.110164 
C 305.956215 29.110164 424.883765 61.732598 424.883765 146.00722 
C 424.883765 235.718913 270.277949 286.464922 99.815127 304.588496 
C 64.136861 302.776139 56.208358 281.934028 78.011742 275.590777 
C 153.332524 262.904275 254.420943 232.094198 254.420943 187.691441 
C 254.420943 147.819577 189.01079 135.133075 139.457643 128.789824 
C 105.761504 124.25893 78.011742 108.853892 78.011742 88.011781 
C 78.011742 55.389347 141.439769 29.110164 220.724803 29.110164 
" style="fill:none;stroke:#ff0000;stroke-linejoin:miter;stroke-width:0.5;"/>
   </g>
   <g id="patch_17">
    <path clip-path="url(#p3308524c57)" d="M 229.644369 84.840156 
C 299.018774 84.840156 386.232311 113.837875 386.232311 173.645671 
C 386.232311 245.23379 267.304761 286.011833 128.555951 305.041586 
C 110.716819 302.32305 104.770441 287.82419 116.663196 283.293296 
C 178.109097 274.231509 279.197516 251.577041 279.197516 204.455747 
C 279.197516 166.396241 184.055475 156.428275 166.216342 151.897381 
C 140.448706 145.55413 132.520203 136.492343 132.520203 125.618198 
C 132.520203 104.776088 166.216342 84.840156 229.644369 84.840156 
" style="fill:none;stroke:#0000ff;stroke-linejoin:miter;stroke-width:0.5;"/>
   </g>
   <g id="[&quot;g_s&quot;:1,&quot;g_t&quot;:1,&quot;coords&quot;:[[166.0, -532.0],[170.5, -593.5]],&quot;certainty&quot;:11]">
    <path clip-path="url(#p3308524c57)" d="M 220.724803 34.547237 
C 223.878799 34.547237 226.904039 33.974352 229.134251 32.954755 
C 231.364463 31.935158 232.617558 30.552093 232.617558 29.110164 
C 232.617558 27.668236 231.364463 26.285171 229.134251 25.265574 
C 226.904039 24.245976 223.878799 23.673092 220.724803 23.673092 
C 217.570808 23.673092 214.545567 24.245976 212.315355 25.265574 
C 210.085144 26.285171 208.832048 27.668236 208.832048 29.110164 
C 208.832048 30.552093 210.085144 31.935158 212.315355 32.954755 
C 214.545567 33.974352 217.570808 34.547237 220.724803 34.547237 
z
" style="fill:#0000ff;opacity:0.2;stroke:#0000ff;stroke-linejoin:miter;stroke-width:2;"/>
   </g>
   <g id="[&quot;g_s&quot;:1,&quot;g_t&quot;:1,&quot;coords&quot;:[[170.5, -593.5],[166.0, -532.0]],&quot;certainty&quot;:11]">
    <path clip-path="url(#p3308524c57)" d="M 229.644369 90.277228 
C 232.798365 90.277228 235.823606 89.704344 238.053817 88.684747 
C 240.284029 87.665149 241.537125 86.282084 241.537125 84.840156 
C 241.537125 83.398227 240.284029 82.015162 238.053817 80.995565 
C 235.823606 79.975968 232.798365 79.403083 229.644369 79.403083 
C 226.490374 79.403083 223.465133 79.975968 221.234922 80.995565 
C 219.00471 82.015162 217.751614 83.398227 217.751614 84.840156 
C 217.751614 86.282084 219.00471 87.665149 221.234922 88.684747 
C 223.465133 89.704344 226.490374 90.277228 229.644369 90.277228 
z
" style="fill:#ff0000;opacity:0.2;stroke:#ff0000;stroke-linejoin:miter;stroke-width:2;"/>
   </g>
   <g id="patch_18">
    <path d="M 220.724803 29.110164 
Q 225.026436 55.987028 228.992819 80.769229 
" style="fill:none;opacity:0.5;stroke:#0000ff;stroke-linecap:round;stroke-width:3;"/>
    <path d="M 230.236911 79.051022 
L 228.992819 80.769229 
L 227.274612 79.525137 
" style="fill:none;opacity:0.5;stroke:#0000ff;stroke-linecap:round;stroke-width:3;"/>
   </g>
   <g id="[&quot;g_s&quot;:2,&quot;g_t&quot;:2,&quot;coords&quot;:[[269.0, -661.0],[249.5, -691.5]],&quot;certainty&quot;:11]">
    <path clip-path="url(#p3308524c57)" d="M 424.883765 151.444292 
C 428.037761 151.444292 431.063001 150.871408 433.293213 149.85181 
C 435.523425 148.832213 436.77652 147.449148 436.77652 146.00722 
C 436.77652 144.565291 435.523425 143.182226 433.293213 142.162629 
C 431.063001 141.143032 428.037761 140.570147 424.883765 140.570147 
C 421.72977 140.570147 418.704529 141.143032 416.474318 142.162629 
C 414.244106 143.182226 412.99101 144.565291 412.99101 146.00722 
C 412.99101 147.449148 414.244106 148.832213 416.474318 149.85181 
C 418.704529 150.871408 421.72977 151.444292 424.883765 151.444292 
z
" style="fill:#0000ff;opacity:0.2;stroke:#0000ff;stroke-linejoin:miter;stroke-width:2;"/>
   </g>
   <g id="[&quot;g_s&quot;:2,&quot;g_t&quot;:2,&quot;coords&quot;:[[249.5, -691.5],[269.0, -661.0]],&quot;certainty&quot;:11]">
    <path clip-path="url(#p3308524c57)" d="M 386.232311 179.082743 
C 389.386307 179.082743 392.411547 178.509859 394.641759 177.490261 
C 396.871971 176.470664 398.125066 175.087599 398.125066 173.645671 
C 398.125066 172.203742 396.871971 170.820677 394.641759 169.80108 
C 392.411547 168.781483 389.386307 168.208598 386.232311 168.208598 
C 383.078316 168.208598 380.053075 168.781483 377.822864 169.80108 
C 375.592652 170.820677 374.339556 172.203742 374.339556 173.645671 
C 374.339556 175.087599 375.592652 176.470664 377.822864 177.490261 
C 380.053075 178.509859 383.078316 179.082743 386.232311 179.082743 
z
" style="fill:#ff0000;opacity:0.2;stroke:#ff0000;stroke-linejoin:miter;stroke-width:2;"/>
   </g>
   <g id="patch_19">
    <path d="M 424.883765 146.00722 
Q 406.370747 159.245302 389.58328 171.249498 
" style="fill:none;opacity:0.5;stroke:#0000ff;stroke-linecap:round;stroke-width:3;"/>
    <path d="M 391.675918 171.597156 
L 389.58328 171.249498 
L 389.930938 169.15686 
" style="fill:none;opacity:0.5;stroke:#0000ff;stroke-linecap:round;stroke-width:3;"/>
   </g>
   <g id="[&quot;g_s&quot;:3,&quot;g_t&quot;:3,&quot;coords&quot;:[[105.0, -836.0],[119.5, -836.5]],&quot;certainty&quot;:10]">
    <path clip-path="url(#p3308524c57)" d="M 99.815127 309.572479 
C 102.706289 309.572479 105.479426 309.047335 107.523787 308.112705 
C 109.568148 307.178074 110.716819 305.910264 110.716819 304.588496 
C 110.716819 303.266729 109.568148 301.998919 107.523787 301.064288 
C 105.479426 300.129657 102.706289 299.604513 99.815127 299.604513 
C 96.923964 299.604513 94.150827 300.129657 92.106466 301.064288 
C 90.062105 301.998919 88.913434 303.266729 88.913434 304.588496 
C 88.913434 305.910264 90.062105 307.178074 92.106466 308.112705 
C 94.150827 309.047335 96.923964 309.572479 99.815127 309.572479 
z
" style="fill:#0000ff;opacity:0.2;stroke:#0000ff;stroke-linejoin:miter;stroke-width:2;"/>
   </g>
   <g id="[&quot;g_s&quot;:3,&quot;g_t&quot;:3,&quot;coords&quot;:[[119.5, -836.5],[105.0, -836.0]],&quot;certainty&quot;:10]">
    <path clip-path="url(#p3308524c57)" d="M 128.555951 310.025569 
C 131.447114 310.025569 134.220251 309.500425 136.264612 308.565794 
C 138.308972 307.631163 139.457643 306.363353 139.457643 305.041586 
C 139.457643 303.719818 138.308972 302.452008 136.264612 301.517378 
C 134.220251 300.582747 131.447114 300.057603 128.555951 300.057603 
C 125.664789 300.057603 122.891652 300.582747 120.847291 301.517378 
C 118.80293 302.452008 117.654259 303.719818 117.654259 305.041586 
C 117.654259 306.363353 118.80293 307.631163 120.847291 308.565794 
C 122.891652 309.500425 125.664789 310.025569 128.555951 310.025569 
z
" style="fill:#ff0000;opacity:0.2;stroke:#ff0000;stroke-linejoin:miter;stroke-width:2;"/>
   </g>
   <g id="patch_20">
    <path d="M 99.815127 304.588496 
Q 113.187399 304.799306 124.615369 304.979464 
" style="fill:none;opacity:0.5;stroke:#0000ff;stroke-linecap:round;stroke-width:2.75;"/>
    <path d="M 123.139199 303.456006 
L 124.615369 304.979464 
L 123.091911 306.455633 
" style="fill:none;opacity:0.5;stroke:#0000ff;stroke-linecap:round;stroke-width:2.75;"/>
   </g>
   <g id="[&quot;g_s&quot;:4,&quot;g_t&quot;:4,&quot;coords&quot;:[[94.0, -804.0],[113.5, -812.5]],&quot;certainty&quot;:6]">
    <path clip-path="url(#p3308524c57)" d="M 78.011742 278.762403 
C 79.851573 278.762403 81.616297 278.42822 82.917253 277.833455 
C 84.21821 277.23869 84.949183 276.431902 84.949183 275.590777 
C 84.949183 274.749652 84.21821 273.942864 82.917253 273.348099 
C 81.616297 272.753334 79.851573 272.419152 78.011742 272.419152 
C 76.171912 272.419152 74.407188 272.753334 73.106231 273.348099 
C 71.805274 273.942864 71.074302 274.749652 71.074302 275.590777 
C 71.074302 276.431902 71.805274 277.23869 73.106231 277.833455 
C 74.407188 278.42822 76.171912 278.762403 78.011742 278.762403 
z
" style="fill:#0000ff;opacity:0.2;stroke:#0000ff;stroke-linejoin:miter;stroke-width:2;"/>
   </g>
   <g id="[&quot;g_s&quot;:4,&quot;g_t&quot;:4,&quot;coords&quot;:[[113.5, -812.5],[94.0, -804.0]],&quot;certainty&quot;:6]">
    <path clip-path="url(#p3308524c57)" d="M 116.663196 286.464922 
C 118.503027 286.464922 120.267751 286.130739 121.568707 285.535974 
C 122.869664 284.941209 123.600637 284.134421 123.600637 283.293296 
C 123.600637 282.452171 122.869664 281.645384 121.568707 281.050618 
C 120.267751 280.455853 118.503027 280.121671 116.663196 280.121671 
C 114.823366 280.121671 113.058642 280.455853 111.757685 281.050618 
C 110.456728 281.645384 109.725756 282.452171 109.725756 283.293296 
C 109.725756 284.134421 110.456728 284.941209 111.757685 285.535974 
C 113.058642 286.130739 114.823366 286.464922 116.663196 286.464922 
z
" style="fill:#ff0000;opacity:0.2;stroke:#ff0000;stroke-linejoin:miter;stroke-width:2;"/>
   </g>
   <g id="patch_21">
    <path d="M 78.011742 275.590777 
Q 96.358444 279.246935 113.491571 282.66125 
" style="fill:none;opacity:0.5;stroke:#0000ff;stroke-linecap:round;stroke-width:1.75;"/>
    <path d="M 112.313655 280.897018 
L 113.491571 282.66125 
L 111.72734 283.839166 
" style="fill:none;opacity:0.5;stroke:#0000ff;stroke-linecap:round;stroke-width:1.75;"/>
   </g>
   <g id="[&quot;g_s&quot;:5,&quot;g_t&quot;:5,&quot;coords&quot;:[[183.0, -707.0],[195.5, -725.5]],&quot;certainty&quot;:11]">
    <path clip-path="url(#p3308524c57)" d="M 254.420943 193.128513 
C 257.574938 193.128513 260.600179 192.555629 262.83039 191.536032 
C 265.060602 190.516434 266.313698 189.133369 266.313698 187.691441 
C 266.313698 186.249513 265.060602 184.866448 262.83039 183.84685 
C 260.600179 182.827253 257.574938 182.254369 254.420943 182.254369 
C 251.266947 182.254369 248.241706 182.827253 246.011495 183.84685 
C 243.781283 184.866448 242.528188 186.249513 242.528188 187.691441 
C 242.528188 189.133369 243.781283 190.516434 246.011495 191.536032 
C 248.241706 192.555629 251.266947 193.128513 254.420943 193.128513 
z
" style="fill:#0000ff;opacity:0.2;stroke:#0000ff;stroke-linejoin:miter;stroke-width:2;"/>
   </g>
   <g id="[&quot;g_s&quot;:5,&quot;g_t&quot;:5,&quot;coords&quot;:[[195.5, -725.5],[183.0, -707.0]],&quot;certainty&quot;:11]">
    <path clip-path="url(#p3308524c57)" d="M 279.197516 209.89282 
C 282.351511 209.89282 285.376752 209.319935 287.606963 208.300338 
C 289.837175 207.280741 291.090271 205.897676 291.090271 204.455747 
C 291.090271 203.013819 289.837175 201.630754 287.606963 200.611157 
C 285.376752 199.591559 282.351511 199.018675 279.197516 199.018675 
C 276.04352 199.018675 273.01828 199.591559 270.788068 200.611157 
C 268.557856 201.630754 267.304761 203.013819 267.304761 204.455747 
C 267.304761 205.897676 268.557856 207.280741 270.788068 208.300338 
C 273.01828 209.319935 276.04352 209.89282 279.197516 209.89282 
z
" style="fill:#ff0000;opacity:0.2;stroke:#ff0000;stroke-linejoin:miter;stroke-width:2;"/>
   </g>
   <g id="patch_22">
    <path d="M 254.420943 187.691441 
Q 265.982033 195.513897 275.78619 202.147579 
" style="fill:none;opacity:0.5;stroke:#0000ff;stroke-linecap:round;stroke-width:3;"/>
    <path d="M 275.384441 200.064648 
L 275.78619 202.147579 
L 273.70326 202.549327 
" style="fill:none;opacity:0.5;stroke:#0000ff;stroke-linecap:round;stroke-width:3;"/>
   </g>
   <g id="[&quot;g_s&quot;:6,&quot;g_t&quot;:6,&quot;coords&quot;:[[125.0, -642.0],[138.5, -667.5]],&quot;certainty&quot;:5]">
    <path clip-path="url(#p3308524c57)" d="M 139.457643 131.50836 
C 141.034641 131.50836 142.547262 131.221918 143.662367 130.712119 
C 144.777473 130.202321 145.404021 129.510788 145.404021 128.789824 
C 145.404021 128.06886 144.777473 127.377327 143.662367 126.867529 
C 142.547262 126.35773 141.034641 126.071288 139.457643 126.071288 
C 137.880646 126.071288 136.368025 126.35773 135.25292 126.867529 
C 134.137814 127.377327 133.511266 128.06886 133.511266 128.789824 
C 133.511266 129.510788 134.137814 130.202321 135.25292 130.712119 
C 136.368025 131.221918 137.880646 131.50836 139.457643 131.50836 
z
" style="fill:#0000ff;opacity:0.2;stroke:#0000ff;stroke-linejoin:miter;stroke-width:2;"/>
   </g>
   <g id="[&quot;g_s&quot;:6,&quot;g_t&quot;:6,&quot;coords&quot;:[[138.5, -667.5],[125.0, -642.0]],&quot;certainty&quot;:5]">
    <path clip-path="url(#p3308524c57)" d="M 166.216342 154.615918 
C 167.79334 154.615918 169.30596 154.329475 170.421066 153.819677 
C 171.536172 153.309878 172.16272 152.618346 172.16272 151.897381 
C 172.16272 151.176417 171.536172 150.484885 170.421066 149.975086 
C 169.30596 149.465287 167.79334 149.178845 166.216342 149.178845 
C 164.639345 149.178845 163.126724 149.465287 162.011619 149.975086 
C 160.896513 150.484885 160.269965 151.176417 160.269965 151.897381 
C 160.269965 152.618346 160.896513 153.309878 162.011619 153.819677 
C 163.126724 154.329475 164.639345 154.615918 166.216342 154.615918 
z
" style="fill:#ff0000;opacity:0.2;stroke:#ff0000;stroke-linejoin:miter;stroke-width:2;"/>
   </g>
   <g id="patch_23">
    <path d="M 139.457643 128.789824 
Q 152.080811 139.6906 163.901214 149.898145 
" style="fill:none;opacity:0.5;stroke:#0000ff;stroke-linecap:round;stroke-width:1.5;"/>
    <path d="M 163.746309 147.782488 
L 163.901214 149.898145 
L 161.785557 150.053051 
" style="fill:none;opacity:0.5;stroke:#0000ff;stroke-linecap:round;stroke-width:1.5;"/>
   </g>
   <g id="[&quot;g_s&quot;:7,&quot;g_t&quot;:7,&quot;coords&quot;:[[94.0, -597.0],[121.5, -638.5]],&quot;certainty&quot;:11]">
    <path clip-path="url(#p3308524c57)" d="M 78.011742 93.448854 
C 81.165738 93.448854 84.190978 92.875969 86.42119 91.856372 
C 88.651402 90.836775 89.904497 89.45371 89.904497 88.011781 
C 89.904497 86.569853 88.651402 85.186788 86.42119 84.167191 
C 84.190978 83.147593 81.165738 82.574709 78.011742 82.574709 
C 74.857747 82.574709 71.832506 83.147593 69.602295 84.167191 
C 67.372083 85.186788 66.118987 86.569853 66.118987 88.011781 
C 66.118987 89.45371 67.372083 90.836775 69.602295 91.856372 
C 71.832506 92.875969 74.857747 93.448854 78.011742 93.448854 
z
" style="fill:#0000ff;opacity:0.2;stroke:#0000ff;stroke-linejoin:miter;stroke-width:2;"/>
   </g>
   <g id="[&quot;g_s&quot;:7,&quot;g_t&quot;:7,&quot;coords&quot;:[[121.5, -638.5],[94.0, -597.0]],&quot;certainty&quot;:11]">
    <path clip-path="url(#p3308524c57)" d="M 132.520203 131.055271 
C 135.674199 131.055271 138.699439 130.482386 140.929651 129.462789 
C 143.159862 128.443192 144.412958 127.060127 144.412958 125.618198 
C 144.412958 124.17627 143.159862 122.793205 140.929651 121.773608 
C 138.699439 120.75401 135.674199 120.181126 132.520203 120.181126 
C 129.366208 120.181126 126.340967 120.75401 124.110755 121.773608 
C 121.880544 122.793205 120.627448 124.17627 120.627448 125.618198 
C 120.627448 127.060127 121.880544 128.443192 124.110755 129.462789 
C 126.340967 130.482386 129.366208 131.055271 132.520203 131.055271 
z
" style="fill:#ff0000;opacity:0.2;stroke:#ff0000;stroke-linejoin:miter;stroke-width:2;"/>
   </g>
   <g id="patch_24">
    <path d="M 78.011742 88.011781 
Q 104.442557 106.2469 129.127289 123.277363 
" style="fill:none;opacity:0.5;stroke:#0000ff;stroke-linecap:round;stroke-width:3;"/>
    <path d="M 128.744442 121.190876 
L 129.127289 123.277363 
L 127.040802 123.66021 
" style="fill:none;opacity:0.5;stroke:#0000ff;stroke-linecap:round;stroke-width:3;"/>
   </g>
   <g id="[&quot;g_s&quot;:1,&quot;g_t&quot;:7,&quot;coords&quot;:[[170.5, -593.5],[94.0, -597.0]],&quot;certainty&quot;:3]">
    <path clip-path="url(#p3308524c57)" d="M 229.644369 86.652513 
C 230.695701 86.652513 231.704115 86.461552 232.447519 86.121686 
C 233.190923 85.78182 233.608621 85.320799 233.608621 84.840156 
C 233.608621 84.359513 233.190923 83.898491 232.447519 83.558626 
C 231.704115 83.21876 230.695701 83.027798 229.644369 83.027798 
C 228.593038 83.027798 227.584624 83.21876 226.84122 83.558626 
C 226.097816 83.898491 225.680118 84.359513 225.680118 84.840156 
C 225.680118 85.320799 226.097816 85.78182 226.84122 86.121686 
C 227.584624 86.461552 228.593038 86.652513 229.644369 86.652513 
z
" style="fill:#0000ff;opacity:0.2;stroke:#0000ff;stroke-linejoin:miter;stroke-width:2;"/>
   </g>
   <g id="[&quot;g_s&quot;:7,&quot;g_t&quot;:1,&quot;coords&quot;:[[94.0, -597.0],[170.5, -593.5]],&quot;certainty&quot;:3]">
    <path clip-path="url(#p3308524c57)" d="M 78.011742 89.824139 
C 79.063074 89.824139 80.071488 89.633177 80.814892 89.293312 
C 81.558295 88.953446 81.975994 88.492424 81.975994 88.011781 
C 81.975994 87.531139 81.558295 87.070117 80.814892 86.730251 
C 80.071488 86.390385 79.063074 86.199424 78.011742 86.199424 
C 76.96041 86.199424 75.951997 86.390385 75.208593 86.730251 
C 74.465189 87.070117 74.047491 87.531139 74.047491 88.011781 
C 74.047491 88.492424 74.465189 88.953446 75.208593 89.293312 
C 75.951997 89.633177 76.96041 89.824139 78.011742 89.824139 
z
" style="fill:#ff0000;opacity:0.2;stroke:#ff0000;stroke-linejoin:miter;stroke-width:2;"/>
   </g>
   <g id="patch_25">
    <path d="M 229.644369 84.840156 
Q 154.829901 86.405013 80.722385 87.955084 
" style="fill:none;opacity:0.5;stroke:#ff0000;stroke-linecap:round;"/>
    <path d="M 82.253425 89.423388 
L 80.722385 87.955084 
L 82.190689 86.424044 
" style="fill:none;opacity:0.5;stroke:#ff0000;stroke-linecap:round;"/>
   </g>
   <g id="[&quot;g_s&quot;:2,&quot;g_t&quot;:2,&quot;coords&quot;:[[249.5, -691.5],[269.0, -661.0]],&quot;certainty&quot;:8]">
    <path clip-path="url(#p3308524c57)" d="M 386.232311 177.723475 
C 388.597808 177.723475 390.866738 177.293812 392.539397 176.529114 
C 394.212056 175.764416 395.151878 174.727117 395.151878 173.645671 
C 395.151878 172.564224 394.212056 171.526926 392.539397 170.762228 
C 390.866738 169.99753 388.597808 169.567866 386.232311 169.567866 
C 383.866815 169.567866 381.597884 169.99753 379.925226 170.762228 
C 378.252567 171.526926 377.312745 172.564224 377.312745 173.645671 
C 377.312745 174.727117 378.252567 175.764416 379.925226 176.529114 
C 381.597884 177.293812 383.866815 177.723475 386.232311 177.723475 
z
" style="fill:#0000ff;opacity:0.2;stroke:#0000ff;stroke-linejoin:miter;stroke-width:2;"/>
   </g>
   <g id="[&quot;g_s&quot;:2,&quot;g_t&quot;:2,&quot;coords&quot;:[[269.0, -661.0],[249.5, -691.5]],&quot;certainty&quot;:8]">
    <path clip-path="url(#p3308524c57)" d="M 424.883765 150.085024 
C 427.249262 150.085024 429.518192 149.655361 431.190851 148.890663 
C 432.86351 148.125965 433.803332 147.088666 433.803332 146.00722 
C 433.803332 144.925773 432.86351 143.888475 431.190851 143.123777 
C 429.518192 142.359079 427.249262 141.929415 424.883765 141.929415 
C 422.518269 141.929415 420.249338 142.359079 418.57668 143.123777 
C 416.904021 143.888475 415.964199 144.925773 415.964199 146.00722 
C 415.964199 147.088666 416.904021 148.125965 418.57668 148.890663 
C 420.249338 149.655361 422.518269 150.085024 424.883765 150.085024 
z
" style="fill:#ff0000;opacity:0.2;stroke:#ff0000;stroke-linejoin:miter;stroke-width:2;"/>
   </g>
   <g id="patch_26">
    <path d="M 386.232311 173.645671 
Q 404.745329 160.407588 421.964185 148.094921 
" style="fill:none;opacity:0.5;stroke:#ff0000;stroke-linecap:round;stroke-width:2.25;"/>
    <path d="M 419.871547 147.747263 
L 421.964185 148.094921 
L 421.616526 150.187559 
" style="fill:none;opacity:0.5;stroke:#ff0000;stroke-linecap:round;stroke-width:2.25;"/>
   </g>
   <g id="[&quot;g_s&quot;:3,&quot;g_t&quot;:3,&quot;coords&quot;:[[119.5, -836.5],[105.0, -836.0]],&quot;certainty&quot;:5]">
    <path clip-path="url(#p3308524c57)" d="M 128.555951 307.760122 
C 130.132949 307.760122 131.645569 307.47368 132.760675 306.963881 
C 133.875781 306.454082 134.502329 305.76255 134.502329 305.041586 
C 134.502329 304.320622 133.875781 303.629089 132.760675 303.11929 
C 131.645569 302.609492 130.132949 302.32305 128.555951 302.32305 
C 126.978954 302.32305 125.466333 302.609492 124.351227 303.11929 
C 123.236122 303.629089 122.609574 304.320622 122.609574 305.041586 
C 122.609574 305.76255 123.236122 306.454082 124.351227 306.963881 
C 125.466333 307.47368 126.978954 307.760122 128.555951 307.760122 
z
" style="fill:#0000ff;opacity:0.2;stroke:#0000ff;stroke-linejoin:miter;stroke-width:2;"/>
   </g>
   <g id="[&quot;g_s&quot;:3,&quot;g_t&quot;:3,&quot;coords&quot;:[[105.0, -836.0],[119.5, -836.5]],&quot;certainty&quot;:5]">
    <path clip-path="url(#p3308524c57)" d="M 99.815127 307.307033 
C 101.392124 307.307033 102.904745 307.02059 104.01985 306.510792 
C 105.134956 306.000993 105.761504 305.309461 105.761504 304.588496 
C 105.761504 303.867532 105.134956 303.176 104.01985 302.666201 
C 102.904745 302.156402 101.392124 301.86996 99.815127 301.86996 
C 98.238129 301.86996 96.725508 302.156402 95.610403 302.666201 
C 94.495297 303.176 93.868749 303.867532 93.868749 304.588496 
C 93.868749 305.309461 94.495297 306.000993 95.610403 306.510792 
C 96.725508 307.02059 98.238129 307.307033 99.815127 307.307033 
z
" style="fill:#ff0000;opacity:0.2;stroke:#ff0000;stroke-linejoin:miter;stroke-width:2;"/>
   </g>
   <g id="patch_27">
    <path d="M 128.555951 305.041586 
Q 115.183679 304.830776 102.871935 304.636686 
" style="fill:none;opacity:0.5;stroke:#ff0000;stroke-linecap:round;stroke-width:1.5;"/>
    <path d="M 104.348105 306.160144 
L 102.871935 304.636686 
L 104.395393 303.160516 
" style="fill:none;opacity:0.5;stroke:#ff0000;stroke-linecap:round;stroke-width:1.5;"/>
   </g>
   <g id="[&quot;g_s&quot;:4,&quot;g_t&quot;:4,&quot;coords&quot;:[[113.5, -812.5],[94.0, -804.0]],&quot;certainty&quot;:6]">
    <path clip-path="url(#p3308524c57)" d="M 116.663196 286.464922 
C 118.503027 286.464922 120.267751 286.130739 121.568707 285.535974 
C 122.869664 284.941209 123.600637 284.134421 123.600637 283.293296 
C 123.600637 282.452171 122.869664 281.645384 121.568707 281.050618 
C 120.267751 280.455853 118.503027 280.121671 116.663196 280.121671 
C 114.823366 280.121671 113.058642 280.455853 111.757685 281.050618 
C 110.456728 281.645384 109.725756 282.452171 109.725756 283.293296 
C 109.725756 284.134421 110.456728 284.941209 111.757685 285.535974 
C 113.058642 286.130739 114.823366 286.464922 116.663196 286.464922 
z
" style="fill:#0000ff;opacity:0.2;stroke:#0000ff;stroke-linejoin:miter;stroke-width:2;"/>
   </g>
   <g id="[&quot;g_s&quot;:4,&quot;g_t&quot;:4,&quot;coords&quot;:[[94.0, -804.0],[113.5, -812.5]],&quot;certainty&quot;:6]">
    <path clip-path="url(#p3308524c57)" d="M 78.011742 278.762403 
C 79.851573 278.762403 81.616297 278.42822 82.917253 277.833455 
C 84.21821 277.23869 84.949183 276.431902 84.949183 275.590777 
C 84.949183 274.749652 84.21821 273.942864 82.917253 273.348099 
C 81.616297 272.753334 79.851573 272.419152 78.011742 272.419152 
C 76.171912 272.419152 74.407188 272.753334 73.106231 273.348099 
C 71.805274 273.942864 71.074302 274.749652 71.074302 275.590777 
C 71.074302 276.431902 71.805274 277.23869 73.106231 277.833455 
C 74.407188 278.42822 76.171912 278.762403 78.011742 278.762403 
z
" style="fill:#ff0000;opacity:0.2;stroke:#ff0000;stroke-linejoin:miter;stroke-width:2;"/>
   </g>
   <g id="patch_28">
    <path d="M 116.663196 283.293296 
Q 98.316495 279.637138 81.183367 276.222823 
" style="fill:none;opacity:0.5;stroke:#ff0000;stroke-linecap:round;stroke-width:1.75;"/>
    <path d="M 82.361283 277.987055 
L 81.183367 276.222823 
L 82.947599 275.044907 
" style="fill:none;opacity:0.5;stroke:#ff0000;stroke-linecap:round;stroke-width:1.75;"/>
   </g>
   <g id="[&quot;g_s&quot;:5,&quot;g_t&quot;:5,&quot;coords&quot;:[[195.5, -725.5],[183.0, -707.0]],&quot;certainty&quot;:11]">
    <path clip-path="url(#p3308524c57)" d="M 279.197516 209.89282 
C 282.351511 209.89282 285.376752 209.319935 287.606963 208.300338 
C 289.837175 207.280741 291.090271 205.897676 291.090271 204.455747 
C 291.090271 203.013819 289.837175 201.630754 287.606963 200.611157 
C 285.376752 199.591559 282.351511 199.018675 279.197516 199.018675 
C 276.04352 199.018675 273.01828 199.591559 270.788068 200.611157 
C 268.557856 201.630754 267.304761 203.013819 267.304761 204.455747 
C 267.304761 205.897676 268.557856 207.280741 270.788068 208.300338 
C 273.01828 209.319935 276.04352 209.89282 279.197516 209.89282 
z
" style="fill:#0000ff;opacity:0.2;stroke:#0000ff;stroke-linejoin:miter;stroke-width:2;"/>
   </g>
   <g id="[&quot;g_s&quot;:5,&quot;g_t&quot;:5,&quot;coords&quot;:[[183.0, -707.0],[195.5, -725.5]],&quot;certainty&quot;:11]">
    <path clip-path="url(#p3308524c57)" d="M 254.420943 193.128513 
C 257.574938 193.128513 260.600179 192.555629 262.83039 191.536032 
C 265.060602 190.516434 266.313698 189.133369 266.313698 187.691441 
C 266.313698 186.249513 265.060602 184.866448 262.83039 183.84685 
C 260.600179 182.827253 257.574938 182.254369 254.420943 182.254369 
C 251.266947 182.254369 248.241706 182.827253 246.011495 183.84685 
C 243.781283 184.866448 242.528188 186.249513 242.528188 187.691441 
C 242.528188 189.133369 243.781283 190.516434 246.011495 191.536032 
C 248.241706 192.555629 251.266947 193.128513 254.420943 193.128513 
z
" style="fill:#ff0000;opacity:0.2;stroke:#ff0000;stroke-linejoin:miter;stroke-width:2;"/>
   </g>
   <g id="patch_29">
    <path d="M 279.197516 204.455747 
Q 267.636425 196.633291 257.832269 189.99961 
" style="fill:none;opacity:0.5;stroke:#ff0000;stroke-linecap:round;stroke-width:3;"/>
    <path d="M 258.234017 192.08254 
L 257.832269 189.99961 
L 259.915199 189.597861 
" style="fill:none;opacity:0.5;stroke:#ff0000;stroke-linecap:round;stroke-width:3;"/>
   </g>
   <g id="[&quot;g_s&quot;:6,&quot;g_t&quot;:6,&quot;coords&quot;:[[138.5, -667.5],[125.0, -642.0]],&quot;certainty&quot;:4]">
    <path clip-path="url(#p3308524c57)" d="M 166.216342 154.162828 
C 167.530507 154.162828 168.791024 153.924126 169.720279 153.499294 
C 170.649534 153.074462 171.171657 152.498185 171.171657 151.897381 
C 171.171657 151.296578 170.649534 150.720301 169.720279 150.295469 
C 168.791024 149.870636 167.530507 149.631935 166.216342 149.631935 
C 164.902178 149.631935 163.641661 149.870636 162.712406 150.295469 
C 161.783151 150.720301 161.261028 151.296578 161.261028 151.897381 
C 161.261028 152.498185 161.783151 153.074462 162.712406 153.499294 
C 163.641661 153.924126 164.902178 154.162828 166.216342 154.162828 
z
" style="fill:#0000ff;opacity:0.2;stroke:#0000ff;stroke-linejoin:miter;stroke-width:2;"/>
   </g>
   <g id="[&quot;g_s&quot;:6,&quot;g_t&quot;:6,&quot;coords&quot;:[[125.0, -642.0],[138.5, -667.5]],&quot;certainty&quot;:4]">
    <path clip-path="url(#p3308524c57)" d="M 139.457643 131.055271 
C 140.771808 131.055271 142.032325 130.816569 142.96158 130.391737 
C 143.890835 129.966904 144.412958 129.390627 144.412958 128.789824 
C 144.412958 128.18902 143.890835 127.612743 142.96158 127.187911 
C 142.032325 126.763079 140.771808 126.524377 139.457643 126.524377 
C 138.143479 126.524377 136.882962 126.763079 135.953707 127.187911 
C 135.024452 127.612743 134.502329 128.18902 134.502329 128.789824 
C 134.502329 129.390627 135.024452 129.966904 135.953707 130.391737 
C 136.882962 130.816569 138.143479 131.055271 139.457643 131.055271 
z
" style="fill:#ff0000;opacity:0.2;stroke:#ff0000;stroke-linejoin:miter;stroke-width:2;"/>
   </g>
   <g id="patch_30">
    <path d="M 166.216342 151.897381 
Q 153.593174 140.996606 141.638977 130.673522 
" style="fill:none;opacity:0.5;stroke:#ff0000;stroke-linecap:round;stroke-width:1.25;"/>
    <path d="M 141.793883 132.789178 
L 141.638977 130.673522 
L 143.754634 130.518616 
" style="fill:none;opacity:0.5;stroke:#ff0000;stroke-linecap:round;stroke-width:1.25;"/>
   </g>
   <g id="[&quot;g_s&quot;:7,&quot;g_t&quot;:7,&quot;coords&quot;:[[121.5, -638.5],[94.0, -597.0]],&quot;certainty&quot;:11]">
    <path clip-path="url(#p3308524c57)" d="M 132.520203 131.055271 
C 135.674199 131.055271 138.699439 130.482386 140.929651 129.462789 
C 143.159862 128.443192 144.412958 127.060127 144.412958 125.618198 
C 144.412958 124.17627 143.159862 122.793205 140.929651 121.773608 
C 138.699439 120.75401 135.674199 120.181126 132.520203 120.181126 
C 129.366208 120.181126 126.340967 120.75401 124.110755 121.773608 
C 121.880544 122.793205 120.627448 124.17627 120.627448 125.618198 
C 120.627448 127.060127 121.880544 128.443192 124.110755 129.462789 
C 126.340967 130.482386 129.366208 131.055271 132.520203 131.055271 
z
" style="fill:#0000ff;opacity:0.2;stroke:#0000ff;stroke-linejoin:miter;stroke-width:2;"/>
   </g>
   <g id="[&quot;g_s&quot;:7,&quot;g_t&quot;:7,&quot;coords&quot;:[[94.0, -597.0],[121.5, -638.5]],&quot;certainty&quot;:11]">
    <path clip-path="url(#p3308524c57)" d="M 78.011742 93.448854 
C 81.165738 93.448854 84.190978 92.875969 86.42119 91.856372 
C 88.651402 90.836775 89.904497 89.45371 89.904497 88.011781 
C 89.904497 86.569853 88.651402 85.186788 86.42119 84.167191 
C 84.190978 83.147593 81.165738 82.574709 78.011742 82.574709 
C 74.857747 82.574709 71.832506 83.147593 69.602295 84.167191 
C 67.372083 85.186788 66.118987 86.569853 66.118987 88.011781 
C 66.118987 89.45371 67.372083 90.836775 69.602295 91.856372 
C 71.832506 92.875969 74.857747 93.448854 78.011742 93.448854 
z
" style="fill:#ff0000;opacity:0.2;stroke:#ff0000;stroke-linejoin:miter;stroke-width:2;"/>
   </g>
   <g id="patch_31">
    <path d="M 132.520203 125.618198 
Q 106.089388 107.38308 81.404657 90.352617 
" style="fill:none;opacity:0.5;stroke:#ff0000;stroke-linecap:round;stroke-width:3;"/>
    <path d="M 81.787504 92.439104 
L 81.404657 90.352617 
L 83.491144 89.96977 
" style="fill:none;opacity:0.5;stroke:#ff0000;stroke-linecap:round;stroke-width:3;"/>
   </g>
   <g id="patch_32">
    <path clip-path="url(#p3308524c57)" d="M 405.558038 164.357339 
C 408.186368 164.357339 410.707402 163.879935 412.565911 163.030271 
C 414.424421 162.180606 415.468668 161.028052 415.468668 159.826445 
C 415.468668 158.624838 414.424421 157.472284 412.565911 156.62262 
C 410.707402 155.772955 408.186368 155.295552 405.558038 155.295552 
C 402.929709 155.295552 400.408675 155.772955 398.550165 156.62262 
C 396.691656 157.472284 395.647409 158.624838 395.647409 159.826445 
C 395.647409 161.028052 396.691656 162.180606 398.550165 163.030271 
C 400.408675 163.879935 402.929709 164.357339 405.558038 164.357339 
z
" style="fill:#008000;opacity:0.2;stroke:#008000;stroke-linejoin:miter;stroke-width:2;"/>
   </g>
   <g id="patch_33">
    <path clip-path="url(#p3308524c57)" d="M 114.185539 309.345935 
C 116.813869 309.345935 119.334902 308.868531 121.193412 308.018867 
C 123.051922 307.169202 124.096168 306.016648 124.096168 304.815041 
C 124.096168 303.613434 123.051922 302.46088 121.193412 301.611215 
C 119.334902 300.761551 116.813869 300.284147 114.185539 300.284147 
C 111.557209 300.284147 109.036176 300.761551 107.177666 301.611215 
C 105.319156 302.46088 104.27491 303.613434 104.27491 304.815041 
C 104.27491 306.016648 105.319156 307.169202 107.177666 308.018867 
C 109.036176 308.868531 111.557209 309.345935 114.185539 309.345935 
z
" style="fill:#008000;opacity:0.2;stroke:#008000;stroke-linejoin:miter;stroke-width:2;"/>
   </g>
   <g id="patch_34">
    <path clip-path="url(#p3308524c57)" d="M 97.337469 283.97293 
C 99.965799 283.97293 102.486833 283.495527 104.345342 282.645862 
C 106.203852 281.796198 107.248098 280.643644 107.248098 279.442037 
C 107.248098 278.24043 106.203852 277.087876 104.345342 276.238211 
C 102.486833 275.388547 99.965799 274.911143 97.337469 274.911143 
C 94.70914 274.911143 92.188106 275.388547 90.329596 276.238211 
C 88.471086 277.087876 87.42684 278.24043 87.42684 279.442037 
C 87.42684 280.643644 88.471086 281.796198 90.329596 282.645862 
C 92.188106 283.495527 94.70914 283.97293 97.337469 283.97293 
z
" style="fill:#008000;opacity:0.2;stroke:#008000;stroke-linejoin:miter;stroke-width:2;"/>
   </g>
   <g id="patch_35">
    <path clip-path="url(#p3308524c57)" d="M 266.809229 200.604488 
C 269.437559 200.604488 271.958593 200.127084 273.817102 199.27742 
C 275.675612 198.427755 276.719858 197.275201 276.719858 196.073594 
C 276.719858 194.871987 275.675612 193.719433 273.817102 192.869769 
C 271.958593 192.020104 269.437559 191.542701 266.809229 191.542701 
C 264.1809 191.542701 261.659866 192.020104 259.801356 192.869769 
C 257.942846 193.719433 256.8986 194.871987 256.8986 196.073594 
C 256.8986 197.275201 257.942846 198.427755 259.801356 199.27742 
C 261.659866 200.127084 264.1809 200.604488 266.809229 200.604488 
z
" style="fill:#008000;opacity:0.2;stroke:#008000;stroke-linejoin:miter;stroke-width:2;"/>
   </g>
   <g id="patch_36">
    <path clip-path="url(#p3308524c57)" d="M 152.836993 144.874496 
C 155.465323 144.874496 157.986356 144.397093 159.844866 143.547428 
C 161.703376 142.697764 162.747622 141.54521 162.747622 140.343603 
C 162.747622 139.141996 161.703376 137.989442 159.844866 137.139777 
C 157.986356 136.290113 155.465323 135.812709 152.836993 135.812709 
C 150.208663 135.812709 147.68763 136.290113 145.82912 137.139777 
C 143.97061 137.989442 142.926364 139.141996 142.926364 140.343603 
C 142.926364 141.54521 143.97061 142.697764 145.82912 143.547428 
C 147.68763 144.397093 150.208663 144.874496 152.836993 144.874496 
z
" style="fill:#008000;opacity:0.2;stroke:#008000;stroke-linejoin:miter;stroke-width:2;"/>
   </g>
   <g id="patch_37">
    <path clip-path="url(#p3308524c57)" d="M 105.265973 111.345883 
C 107.894302 111.345883 110.415336 110.86848 112.273846 110.018815 
C 114.132355 109.169151 115.176602 108.016597 115.176602 106.81499 
C 115.176602 105.613383 114.132355 104.460829 112.273846 103.611164 
C 110.415336 102.7615 107.894302 102.284096 105.265973 102.284096 
C 102.637643 102.284096 100.116609 102.7615 98.2581 103.611164 
C 96.39959 104.460829 95.355343 105.613383 95.355343 106.81499 
C 95.355343 108.016597 96.39959 109.169151 98.2581 110.018815 
C 100.116609 110.86848 102.637643 111.345883 105.265973 111.345883 
z
" style="fill:#008000;opacity:0.2;stroke:#008000;stroke-linejoin:miter;stroke-width:2;"/>
   </g>
   <g id="patch_38">
    <path clip-path="url(#p3308524c57)" d="M 220.724803 47.233739 
C 231.238122 47.233739 241.322257 45.324125 248.756296 41.925467 
C 256.190334 38.526809 260.36732 33.916592 260.36732 29.110164 
C 260.36732 24.303736 256.190334 19.69352 248.756296 16.294862 
C 241.322257 12.896204 231.238122 10.98659 220.724803 10.98659 
C 210.211485 10.98659 200.127349 12.896204 192.693311 16.294862 
C 185.259272 19.69352 181.082286 24.303736 181.082286 29.110164 
C 181.082286 33.916592 185.259272 38.526809 192.693311 41.925467 
C 200.127349 45.324125 210.211485 47.233739 220.724803 47.233739 
z
" style="fill:none;opacity:0.2;stroke:#ff0000;stroke-linejoin:miter;stroke-width:2;"/>
   </g>
   <g id="patch_39">
    <path clip-path="url(#p3308524c57)" d="M 229.644369 102.96373 
C 240.157688 102.96373 250.241823 101.054116 257.675862 97.655458 
C 265.109901 94.2568 269.286886 89.646584 269.286886 84.840156 
C 269.286886 80.033728 265.109901 75.423511 257.675862 72.024853 
C 250.241823 68.626195 240.157688 66.716581 229.644369 66.716581 
C 219.131051 66.716581 209.046916 68.626195 201.612877 72.024853 
C 194.178838 75.423511 190.001853 80.033728 190.001853 84.840156 
C 190.001853 89.646584 194.178838 94.2568 201.612877 97.655458 
C 209.046916 101.054116 219.131051 102.96373 229.644369 102.96373 
z
" style="fill:none;opacity:0.2;stroke:#0000ff;stroke-linejoin:miter;stroke-width:2;"/>
   </g>
   <g id="patch_40">
    <path clip-path="url(#p3308524c57)" d="M 424.883765 155.069007 
C 430.140425 155.069007 435.182492 154.1142 438.899512 152.414871 
C 442.616531 150.715542 444.705024 148.410434 444.705024 146.00722 
C 444.705024 143.604006 442.616531 141.298897 438.899512 139.599568 
C 435.182492 137.900239 430.140425 136.945432 424.883765 136.945432 
C 419.627106 136.945432 414.585038 137.900239 410.868019 139.599568 
C 407.151 141.298897 405.062507 143.604006 405.062507 146.00722 
C 405.062507 148.410434 407.151 150.715542 410.868019 152.414871 
C 414.585038 154.1142 419.627106 155.069007 424.883765 155.069007 
z
" style="fill:none;opacity:0.2;stroke:#008000;stroke-linejoin:miter;stroke-width:2;"/>
   </g>
   <g id="patch_41">
    <path clip-path="url(#p3308524c57)" d="M 386.232311 182.707458 
C 391.488971 182.707458 396.531038 181.752651 400.248058 180.053322 
C 403.965077 178.353993 406.05357 176.048885 406.05357 173.645671 
C 406.05357 171.242457 403.965077 168.937349 400.248058 167.23802 
C 396.531038 165.538691 391.488971 164.583884 386.232311 164.583884 
C 380.975652 164.583884 375.933584 165.538691 372.216565 167.23802 
C 368.499546 168.937349 366.411053 171.242457 366.411053 173.645671 
C 366.411053 176.048885 368.499546 178.353993 372.216565 180.053322 
C 375.933584 181.752651 380.975652 182.707458 386.232311 182.707458 
z
" style="fill:none;opacity:0.2;stroke:#008000;stroke-linejoin:miter;stroke-width:2;"/>
   </g>
   <g id="patch_42">
    <path d="M 405.558038 159.826445 
Q 259.871789 232.320743 114.185539 304.815041 
" style="fill:none;opacity:0.5;stroke:#008000;stroke-linecap:round;stroke-width:2;"/>
   </g>
   <g id="patch_43">
    <path d="M 423.733399 146.829811 
Q 406.370747 159.245302 389.008096 171.660793 
" style="fill:none;opacity:0.5;stroke:#800080;stroke-linecap:round;stroke-width:2;"/>
    <path d="M 421.640761 146.482153 
L 423.733399 146.829811 
L 423.385741 148.922449 
" style="fill:none;opacity:0.5;stroke:#800080;stroke-linecap:round;stroke-width:2;"/>
    <path d="M 391.100734 172.008452 
L 389.008096 171.660793 
L 389.355754 169.568155 
" style="fill:none;opacity:0.5;stroke:#800080;stroke-linecap:round;stroke-width:2;"/>
   </g>
   <g id="patch_44">
    <path d="M 114.185539 304.815041 
Q 105.761504 292.128539 97.337469 279.442037 
" style="fill:none;opacity:0.5;stroke:#008000;stroke-linecap:round;stroke-width:2;"/>
   </g>
   <g id="patch_45">
    <path d="M 101.229164 304.610788 
Q 113.187399 304.799306 125.145633 304.987823 
" style="fill:none;opacity:0.5;stroke:#800080;stroke-linecap:round;stroke-width:2;"/>
    <path d="M 102.705334 306.134246 
L 101.229164 304.610788 
L 102.752622 303.134619 
" style="fill:none;opacity:0.5;stroke:#800080;stroke-linecap:round;stroke-width:2;"/>
    <path d="M 123.669463 303.464366 
L 125.145633 304.987823 
L 123.622175 306.463993 
" style="fill:none;opacity:0.5;stroke:#800080;stroke-linecap:round;stroke-width:2;"/>
   </g>
   <g id="patch_46">
    <path d="M 97.337469 279.442037 
Q 182.073349 237.757815 266.809229 196.073594 
" style="fill:none;opacity:0.5;stroke:#008000;stroke-linecap:round;stroke-width:2;"/>
   </g>
   <g id="patch_47">
    <path d="M 79.398684 275.867169 
Q 96.358444 279.246935 113.318204 282.626701 
" style="fill:none;opacity:0.5;stroke:#800080;stroke-linecap:round;stroke-width:2;"/>
    <path d="M 80.5766 277.631401 
L 79.398684 275.867169 
L 81.162916 274.689253 
" style="fill:none;opacity:0.5;stroke:#800080;stroke-linecap:round;stroke-width:2;"/>
    <path d="M 112.140287 280.86247 
L 113.318204 282.626701 
L 111.553972 283.804617 
" style="fill:none;opacity:0.5;stroke:#800080;stroke-linecap:round;stroke-width:2;"/>
   </g>
   <g id="patch_48">
    <path d="M 266.809229 196.073594 
Q 209.823111 168.208598 152.836993 140.343603 
" style="fill:none;opacity:0.5;stroke:#008000;stroke-linecap:round;stroke-width:2;"/>
   </g>
   <g id="patch_49">
    <path d="M 255.592231 188.483958 
Q 265.982033 195.513897 276.371834 202.543837 
" style="fill:none;opacity:0.5;stroke:#800080;stroke-linecap:round;stroke-width:2;"/>
    <path d="M 255.99398 190.566888 
L 255.592231 188.483958 
L 257.675162 188.082209 
" style="fill:none;opacity:0.5;stroke:#800080;stroke-linecap:round;stroke-width:2;"/>
    <path d="M 275.970085 200.460907 
L 276.371834 202.543837 
L 274.288904 202.945585 
" style="fill:none;opacity:0.5;stroke:#800080;stroke-linecap:round;stroke-width:2;"/>
   </g>
   <g id="patch_50">
    <path d="M 152.836993 140.343603 
Q 129.051483 123.579296 105.265973 106.81499 
" style="fill:none;opacity:0.5;stroke:#008000;stroke-linecap:round;stroke-width:2;"/>
   </g>
   <g id="patch_51">
    <path d="M 140.527997 129.714131 
Q 152.080811 139.6906 163.633626 149.667069 
" style="fill:none;opacity:0.5;stroke:#800080;stroke-linecap:round;stroke-width:2;"/>
    <path d="M 140.682903 131.829788 
L 140.527997 129.714131 
L 142.643654 129.559225 
" style="fill:none;opacity:0.5;stroke:#800080;stroke-linecap:round;stroke-width:2;"/>
    <path d="M 163.47872 147.551412 
L 163.633626 149.667069 
L 161.517969 149.821974 
" style="fill:none;opacity:0.5;stroke:#800080;stroke-linecap:round;stroke-width:2;"/>
   </g>
   <g id="line2d_1">
    <path clip-path="url(#p3308524c57)" d="M 220.724803 29.110164 
L 424.883765 146.00722 
L 99.815127 304.588496 
L 78.011742 275.590777 
L 254.420943 187.691441 
L 139.457643 128.789824 
L 78.011742 88.011781 
" style="fill:none;stroke:#ff0000;stroke-linecap:square;stroke-width:0.2;"/>
   </g>
   <g id="line2d_2">
    <path clip-path="url(#p3308524c57)" d="M 229.644369 84.840156 
L 386.232311 173.645671 
L 128.555951 305.041586 
L 116.663196 283.293296 
L 279.197516 204.455747 
L 166.216342 151.897381 
L 132.520203 125.618198 
" style="fill:none;stroke:#0000ff;stroke-linecap:square;stroke-width:0.2;"/>
   </g>
  </g>
 </g>
 <defs>
  <clipPath id="p3308524c57">
   <rect height="307.51175" width="409.903625" x="37.576375" y="13.32"/>
  </clipPath>
 </defs>
</svg>
