<?xml version="1.0" encoding="utf-8" standalone="no"?>
<!DOCTYPE svg PUBLIC "-//W3C//DTD SVG 1.1//EN"
  "http://www.w3.org/Graphics/SVG/1.1/DTD/svg11.dtd">
<!-- Created with matplotlib (http://matplotlib.org/) -->
<svg height="345.6pt" version="1.1" viewBox="0 0 460.8 345.6" width="460.8pt" xmlns="http://www.w3.org/2000/svg" xmlns:xlink="http://www.w3.org/1999/xlink">
 <defs>
  <style type="text/css">
*{stroke-linecap:butt;stroke-linejoin:round;}
  </style>
 </defs>
 <g id="figure_1">
  <g id="patch_1">
   <path d="M 0 345.6 
L 460.8 345.6 
L 460.8 0 
L 0 0 
z
" style="fill:#ffffff;"/>
  </g>
  <g id="axes_1">
   <g id="patch_2">
    <path clip-path="url(#pd4ee7f608d)" d="M 424.218953 147.869728 
C 425.446595 147.869728 426.624121 147.644875 427.492196 147.244689 
C 428.36027 146.844504 428.848017 146.30166 428.848017 145.735712 
C 428.848017 145.169764 428.36027 144.62692 427.492196 144.226735 
C 426.624121 143.826549 425.446595 143.601696 424.218953 143.601696 
C 422.991311 143.601696 421.813784 143.826549 420.94571 144.226735 
C 420.077636 144.62692 419.589889 145.169764 419.589889 145.735712 
C 419.589889 146.30166 420.077636 146.844504 420.94571 147.244689 
C 421.813784 147.644875 422.991311 147.869728 424.218953 147.869728 
z
" style="fill:#ff0000;opacity:0.2;stroke:#ff0000;stroke-linejoin:miter;stroke-width:2;"/>
   </g>
   <g id="patch_3">
    <path clip-path="url(#pd4ee7f608d)" d="M 100.184467 306.853943 
C 101.412109 306.853943 102.589635 306.62909 103.457709 306.228904 
C 104.325783 305.828719 104.813531 305.285875 104.813531 304.719927 
C 104.813531 304.153979 104.325783 303.611135 103.457709 303.210949 
C 102.589635 302.810764 101.412109 302.585911 100.184467 302.585911 
C 98.956825 302.585911 97.779298 302.810764 96.911224 303.210949 
C 96.04315 303.611135 95.555403 304.153979 95.555403 304.719927 
C 95.555403 305.285875 96.04315 305.828719 96.911224 306.228904 
C 97.779298 306.62909 98.956825 306.853943 100.184467 306.853943 
z
" style="fill:#ff0000;opacity:0.2;stroke:#ff0000;stroke-linejoin:miter;stroke-width:2;"/>
   </g>
   <g id="patch_4">
    <path clip-path="url(#pd4ee7f608d)" d="M 79.353678 278.044723 
C 80.581321 278.044723 81.758847 277.81987 82.626921 277.419684 
C 83.494995 277.019499 83.982742 276.476654 83.982742 275.910707 
C 83.982742 275.344759 83.494995 274.801915 82.626921 274.401729 
C 81.758847 274.001544 80.581321 273.77669 79.353678 273.77669 
C 78.126036 273.77669 76.94851 274.001544 76.080436 274.401729 
C 75.212362 274.801915 74.724614 275.344759 74.724614 275.910707 
C 74.724614 276.476654 75.212362 277.019499 76.080436 277.419684 
C 76.94851 277.81987 78.126036 278.044723 79.353678 278.044723 
z
" style="fill:#ff0000;opacity:0.2;stroke:#ff0000;stroke-linejoin:miter;stroke-width:2;"/>
   </g>
   <g id="patch_5">
    <path clip-path="url(#pd4ee7f608d)" d="M 252.943582 189.483046 
C 254.171224 189.483046 255.34875 189.258193 256.216824 188.858007 
C 257.084898 188.457822 257.572646 187.914978 257.572646 187.34903 
C 257.572646 186.783082 257.084898 186.240238 256.216824 185.840053 
C 255.34875 185.439867 254.171224 185.215014 252.943582 185.215014 
C 251.71594 185.215014 250.538413 185.439867 249.670339 185.840053 
C 248.802265 186.240238 248.314518 186.783082 248.314518 187.34903 
C 248.314518 187.914978 248.802265 188.457822 249.670339 188.858007 
C 250.538413 189.258193 251.71594 189.483046 252.943582 189.483046 
z
" style="fill:#ff0000;opacity:0.2;stroke:#ff0000;stroke-linejoin:miter;stroke-width:2;"/>
   </g>
   <g id="patch_6">
    <path clip-path="url(#pd4ee7f608d)" d="M 139.531512 130.797598 
C 140.759154 130.797598 141.93668 130.572744 142.804754 130.172559 
C 143.672828 129.772373 144.160576 129.229529 144.160576 128.663581 
C 144.160576 128.097634 143.672828 127.55479 142.804754 127.154604 
C 141.93668 126.754419 140.759154 126.529565 139.531512 126.529565 
C 138.303869 126.529565 137.126343 126.754419 136.258269 127.154604 
C 135.390195 127.55479 134.902447 128.097634 134.902447 128.663581 
C 134.902447 129.229529 135.390195 129.772373 136.258269 130.172559 
C 137.126343 130.572744 138.303869 130.797598 139.531512 130.797598 
z
" style="fill:#ff0000;opacity:0.2;stroke:#ff0000;stroke-linejoin:miter;stroke-width:2;"/>
   </g>
   <g id="patch_7">
    <path clip-path="url(#pd4ee7f608d)" d="M 79.353678 89.18428 
C 80.581321 89.18428 81.758847 88.959426 82.626921 88.559241 
C 83.494995 88.159055 83.982742 87.616211 83.982742 87.050263 
C 83.982742 86.484316 83.494995 85.941472 82.626921 85.541286 
C 81.758847 85.141101 80.581321 84.916247 79.353678 84.916247 
C 78.126036 84.916247 76.94851 85.141101 76.080436 85.541286 
C 75.212362 85.941472 74.724614 86.484316 74.724614 87.050263 
C 74.724614 87.616211 75.212362 88.159055 76.080436 88.559241 
C 76.94851 88.959426 78.126036 89.18428 79.353678 89.18428 
z
" style="fill:#ff0000;opacity:0.2;stroke:#ff0000;stroke-linejoin:miter;stroke-width:2;"/>
   </g>
   <g id="patch_8">
    <path clip-path="url(#pd4ee7f608d)" d="M 220.540133 31.565839 
C 221.767775 31.565839 222.945302 31.340986 223.813376 30.940801 
C 224.68145 30.540615 225.169197 29.997771 225.169197 29.431823 
C 225.169197 28.865875 224.68145 28.323031 223.813376 27.922846 
C 222.945302 27.52266 221.767775 27.297807 220.540133 27.297807 
C 219.312491 27.297807 218.134965 27.52266 217.26689 27.922846 
C 216.398816 28.323031 215.911069 28.865875 215.911069 29.431823 
C 215.911069 29.997771 216.398816 30.540615 217.26689 30.940801 
C 218.134965 31.340986 219.312491 31.565839 220.540133 31.565839 
z
" style="fill:#ff0000;opacity:0.2;stroke:#ff0000;stroke-linejoin:miter;stroke-width:2;"/>
   </g>
   <g id="patch_9">
    <path clip-path="url(#pd4ee7f608d)" d="M 234.427325 36.90088 
C 235.654967 36.90088 236.832494 36.676027 237.700568 36.275841 
C 238.568642 35.875656 239.056389 35.332812 239.056389 34.766864 
C 239.056389 34.200916 238.568642 33.658072 237.700568 33.257886 
C 236.832494 32.857701 235.654967 32.632848 234.427325 32.632848 
C 233.199683 32.632848 232.022157 32.857701 231.154083 33.257886 
C 230.286009 33.658072 229.798261 34.200916 229.798261 34.766864 
C 229.798261 35.332812 230.286009 35.875656 231.154083 36.275841 
C 232.022157 36.676027 233.199683 36.90088 234.427325 36.90088 
z
" style="fill:#0000ff;opacity:0.2;stroke:#0000ff;stroke-linejoin:miter;stroke-width:2;"/>
   </g>
   <g id="patch_10">
    <path clip-path="url(#pd4ee7f608d)" d="M 391.815504 122.261533 
C 393.043146 122.261533 394.220673 122.036679 395.088747 121.636494 
C 395.956821 121.236308 396.444568 120.693464 396.444568 120.127516 
C 396.444568 119.561568 395.956821 119.018724 395.088747 118.618539 
C 394.220673 118.218353 393.043146 117.9935 391.815504 117.9935 
C 390.587862 117.9935 389.410336 118.218353 388.542262 118.618539 
C 387.674188 119.018724 387.18644 119.561568 387.18644 120.127516 
C 387.18644 120.693464 387.674188 121.236308 388.542262 121.636494 
C 389.410336 122.036679 390.587862 122.261533 391.815504 122.261533 
z
" style="fill:#0000ff;opacity:0.2;stroke:#0000ff;stroke-linejoin:miter;stroke-width:2;"/>
   </g>
   <g id="patch_11">
    <path clip-path="url(#pd4ee7f608d)" d="M 130.273383 250.302511 
C 131.501026 250.302511 132.678552 250.077658 133.546626 249.677472 
C 134.4147 249.277287 134.902447 248.734442 134.902447 248.168495 
C 134.902447 247.602547 134.4147 247.059703 133.546626 246.659517 
C 132.678552 246.259332 131.501026 246.034478 130.273383 246.034478 
C 129.045741 246.034478 127.868215 246.259332 127.000141 246.659517 
C 126.132067 247.059703 125.644319 247.602547 125.644319 248.168495 
C 125.644319 248.734442 126.132067 249.277287 127.000141 249.677472 
C 127.868215 250.077658 129.045741 250.302511 130.273383 250.302511 
z
" style="fill:#0000ff;opacity:0.2;stroke:#0000ff;stroke-linejoin:miter;stroke-width:2;"/>
   </g>
   <g id="patch_12">
    <path clip-path="url(#pd4ee7f608d)" d="M 111.757127 222.560299 
C 112.984769 222.560299 114.162296 222.335446 115.03037 221.93526 
C 115.898444 221.535075 116.386191 220.99223 116.386191 220.426283 
C 116.386191 219.860335 115.898444 219.317491 115.03037 218.917305 
C 114.162296 218.51712 112.984769 218.292266 111.757127 218.292266 
C 110.529485 218.292266 109.351958 218.51712 108.483884 218.917305 
C 107.61581 219.317491 107.128063 219.860335 107.128063 220.426283 
C 107.128063 220.99223 107.61581 221.535075 108.483884 221.93526 
C 109.351958 222.335446 110.529485 222.560299 111.757127 222.560299 
z
" style="fill:#0000ff;opacity:0.2;stroke:#0000ff;stroke-linejoin:miter;stroke-width:2;"/>
   </g>
   <g id="patch_13">
    <path clip-path="url(#pd4ee7f608d)" d="M 273.77437 161.740834 
C 275.002012 161.740834 276.179539 161.515981 277.047613 161.115795 
C 277.915687 160.71561 278.403434 160.172766 278.403434 159.606818 
C 278.403434 159.04087 277.915687 158.498026 277.047613 158.097841 
C 276.179539 157.697655 275.002012 157.472802 273.77437 157.472802 
C 272.546728 157.472802 271.369202 157.697655 270.501127 158.097841 
C 269.633053 158.498026 269.145306 159.04087 269.145306 159.606818 
C 269.145306 160.172766 269.633053 160.71561 270.501127 161.115795 
C 271.369202 161.515981 272.546728 161.740834 273.77437 161.740834 
z
" style="fill:#0000ff;opacity:0.2;stroke:#0000ff;stroke-linejoin:miter;stroke-width:2;"/>
   </g>
   <g id="patch_14">
    <path clip-path="url(#pd4ee7f608d)" d="M 160.3623 111.591451 
C 161.589942 111.591451 162.767468 111.366598 163.635543 110.966412 
C 164.503617 110.566227 164.991364 110.023382 164.991364 109.457435 
C 164.991364 108.891487 164.503617 108.348643 163.635543 107.948457 
C 162.767468 107.548272 161.589942 107.323418 160.3623 107.323418 
C 159.134658 107.323418 157.957131 107.548272 157.089057 107.948457 
C 156.220983 108.348643 155.733236 108.891487 155.733236 109.457435 
C 155.733236 110.023382 156.220983 110.566227 157.089057 110.966412 
C 157.957131 111.366598 159.134658 111.591451 160.3623 111.591451 
z
" style="fill:#0000ff;opacity:0.2;stroke:#0000ff;stroke-linejoin:miter;stroke-width:2;"/>
   </g>
   <g id="patch_15">
    <path clip-path="url(#pd4ee7f608d)" d="M 121.015255 81.715223 
C 122.242897 81.715223 123.420424 81.490369 124.288498 81.090184 
C 125.156572 80.689998 125.644319 80.147154 125.644319 79.581206 
C 125.644319 79.015259 125.156572 78.472414 124.288498 78.072229 
C 123.420424 77.672043 122.242897 77.44719 121.015255 77.44719 
C 119.787613 77.44719 118.610087 77.672043 117.742013 78.072229 
C 116.873938 78.472414 116.386191 79.015259 116.386191 79.581206 
C 116.386191 80.147154 116.873938 80.689998 117.742013 81.090184 
C 118.610087 81.490369 119.787613 81.715223 121.015255 81.715223 
z
" style="fill:#0000ff;opacity:0.2;stroke:#0000ff;stroke-linejoin:miter;stroke-width:2;"/>
   </g>
   <g id="patch_16">
    <path clip-path="url(#pd4ee7f608d)" d="M 424.218953 145.735712 
C 424.218953 235.364397 269.145306 286.580788 100.184467 304.719927 
C 65.466486 302.585911 56.208358 282.312756 79.353678 275.910707 
C 153.418704 263.106609 252.943582 232.163372 252.943582 187.34903 
C 252.943582 147.869728 188.136684 136.132639 139.531512 128.663581 
C 107.128063 124.395549 79.353678 108.390427 79.353678 87.050263 
C 79.353678 55.040019 141.846044 29.431823 220.540133 29.431823 
C 306.177819 29.431823 424.218953 61.442068 424.218953 145.735712 
" style="fill:none;stroke:#ff0000;stroke-linejoin:miter;stroke-width:0.5;"/>
   </g>
   <g id="patch_17">
    <path clip-path="url(#pd4ee7f608d)" d="M 234.427325 34.766864 
C 310.806883 34.766864 391.815504 67.844117 391.815504 120.127516 
C 391.815504 194.818087 278.403434 232.163372 130.273383 248.168495 
C 102.498999 244.96747 93.240871 231.096364 111.757127 220.426283 
C 176.564024 214.024234 273.77437 193.751079 273.77437 159.606818 
C 273.77437 123.328541 171.93496 112.658459 160.3623 109.457435 
C 134.902447 103.055386 121.015255 93.452312 121.015255 79.581206 
C 121.015255 55.040019 160.3623 34.766864 234.427325 34.766864 
" style="fill:none;stroke:#0000ff;stroke-linejoin:miter;stroke-width:0.5;"/>
   </g>
   <g id="[&quot;g_s&quot;:1,&quot;g_t&quot;:2,&quot;coords&quot;:[[227.0, -353.0],[213.0, -329.0]],&quot;certainty&quot;:9]">
    <path clip-path="url(#pd4ee7f608d)" d="M 424.218953 151.070753 
C 427.288058 151.070753 430.231874 150.508619 432.402059 149.508155 
C 434.572245 148.507692 435.791613 147.150581 435.791613 145.735712 
C 435.791613 144.320843 434.572245 142.963732 432.402059 141.963268 
C 430.231874 140.962805 427.288058 140.400671 424.218953 140.400671 
C 421.149848 140.400671 418.206032 140.962805 416.035846 141.963268 
C 413.865661 142.963732 412.646293 144.320843 412.646293 145.735712 
C 412.646293 147.150581 413.865661 148.507692 416.035846 149.508155 
C 418.206032 150.508619 421.149848 151.070753 424.218953 151.070753 
z
" style="fill:#0000ff;opacity:0.2;stroke:#0000ff;stroke-linejoin:miter;stroke-width:2;"/>
   </g>
   <g id="[&quot;g_s&quot;:2,&quot;g_t&quot;:1,&quot;coords&quot;:[[213.0, -329.0],[227.0, -353.0]],&quot;certainty&quot;:9]">
    <path clip-path="url(#pd4ee7f608d)" d="M 391.815504 125.462557 
C 394.88461 125.462557 397.828426 124.900423 399.998611 123.89996 
C 402.168796 122.899496 403.388165 121.542386 403.388165 120.127516 
C 403.388165 118.712647 402.168796 117.355536 399.998611 116.355073 
C 397.828426 115.354609 394.88461 114.792475 391.815504 114.792475 
C 388.746399 114.792475 385.802583 115.354609 383.632398 116.355073 
C 381.462213 117.355536 380.242844 118.712647 380.242844 120.127516 
C 380.242844 121.542386 381.462213 122.899496 383.632398 123.89996 
C 385.802583 124.900423 388.746399 125.462557 391.815504 125.462557 
z
" style="fill:#ff0000;opacity:0.2;stroke:#ff0000;stroke-linejoin:miter;stroke-width:2;"/>
   </g>
   <g id="patch_18">
    <path d="M 424.218953 145.735712 
Q 408.801406 133.551344 394.770797 122.463061 
" style="fill:none;opacity:0.5;stroke:#0000ff;stroke-linecap:round;stroke-width:2.5;"/>
    <path d="M 395.017593 124.569977 
L 394.770797 122.463061 
L 396.877712 122.216266 
" style="fill:none;opacity:0.5;stroke:#0000ff;stroke-linecap:round;stroke-width:2.5;"/>
   </g>
   <g id="[&quot;g_s&quot;:2,&quot;g_t&quot;:3,&quot;coords&quot;:[[87.0, -502.0],[100.0, -449.0]],&quot;certainty&quot;:10]">
    <path clip-path="url(#pd4ee7f608d)" d="M 100.184467 310.588472 
C 103.560483 310.588472 106.79868 309.970125 109.185884 308.869615 
C 111.573088 307.769105 112.914393 306.276283 112.914393 304.719927 
C 112.914393 303.163571 111.573088 301.670749 109.185884 300.570239 
C 106.79868 299.469729 103.560483 298.851382 100.184467 298.851382 
C 96.808451 298.851382 93.570253 299.469729 91.18305 300.570239 
C 88.795846 301.670749 87.454541 303.163571 87.454541 304.719927 
C 87.454541 306.276283 88.795846 307.769105 91.18305 308.869615 
C 93.570253 309.970125 96.808451 310.588472 100.184467 310.588472 
z
" style="fill:#0000ff;opacity:0.2;stroke:#0000ff;stroke-linejoin:miter;stroke-width:2;"/>
   </g>
   <g id="[&quot;g_s&quot;:3,&quot;g_t&quot;:2,&quot;coords&quot;:[[100.0, -449.0],[87.0, -502.0]],&quot;certainty&quot;:10]">
    <path clip-path="url(#pd4ee7f608d)" d="M 130.273383 254.03704 
C 133.649399 254.03704 136.887597 253.418693 139.274801 252.318183 
C 141.662004 251.217672 143.00331 249.724851 143.00331 248.168495 
C 143.00331 246.612138 141.662004 245.119317 139.274801 244.018807 
C 136.887597 242.918297 133.649399 242.29995 130.273383 242.29995 
C 126.897367 242.29995 123.65917 242.918297 121.271966 244.018807 
C 118.884762 245.119317 117.543457 246.612138 117.543457 248.168495 
C 117.543457 249.724851 118.884762 251.217672 121.271966 252.318183 
C 123.65917 253.418693 126.897367 254.03704 130.273383 254.03704 
z
" style="fill:#ff0000;opacity:0.2;stroke:#ff0000;stroke-linejoin:miter;stroke-width:2;"/>
   </g>
   <g id="patch_19">
    <path d="M 100.184467 304.719927 
Q 114.759704 277.326101 128.42156 251.648954 
" style="fill:none;opacity:0.5;stroke:#0000ff;stroke-linecap:round;stroke-width:2.75;"/>
    <path d="M 126.392761 252.268609 
L 128.42156 251.648954 
L 129.041215 253.677753 
" style="fill:none;opacity:0.5;stroke:#0000ff;stroke-linecap:round;stroke-width:2.75;"/>
   </g>
   <g id="[&quot;g_s&quot;:3,&quot;g_t&quot;:4,&quot;coords&quot;:[[78.0, -475.0],[92.0, -423.0]],&quot;certainty&quot;:6]">
    <path clip-path="url(#pd4ee7f608d)" d="M 79.353678 279.645235 
C 81.502052 279.645235 83.562723 279.251742 85.081853 278.551417 
C 86.600983 277.851093 87.454541 276.901115 87.454541 275.910707 
C 87.454541 274.920298 86.600983 273.970321 85.081853 273.269996 
C 83.562723 272.569672 81.502052 272.176178 79.353678 272.176178 
C 77.205305 272.176178 75.144633 272.569672 73.625504 273.269996 
C 72.106374 273.970321 71.252816 274.920298 71.252816 275.910707 
C 71.252816 276.901115 72.106374 277.851093 73.625504 278.551417 
C 75.144633 279.251742 77.205305 279.645235 79.353678 279.645235 
z
" style="fill:#0000ff;opacity:0.2;stroke:#0000ff;stroke-linejoin:miter;stroke-width:2;"/>
   </g>
   <g id="[&quot;g_s&quot;:4,&quot;g_t&quot;:3,&quot;coords&quot;:[[92.0, -423.0],[78.0, -475.0]],&quot;certainty&quot;:6]">
    <path clip-path="url(#pd4ee7f608d)" d="M 111.757127 224.160811 
C 113.905501 224.160811 115.966172 223.767318 117.485302 223.066993 
C 119.004431 222.366669 119.857989 221.416691 119.857989 220.426283 
C 119.857989 219.435874 119.004431 218.485897 117.485302 217.785572 
C 115.966172 217.085248 113.905501 216.691754 111.757127 216.691754 
C 109.608753 216.691754 107.548082 217.085248 106.028952 217.785572 
C 104.509823 218.485897 103.656265 219.435874 103.656265 220.426283 
C 103.656265 221.416691 104.509823 222.366669 106.028952 223.066993 
C 107.548082 223.767318 109.608753 224.160811 111.757127 224.160811 
z
" style="fill:#ff0000;opacity:0.2;stroke:#ff0000;stroke-linejoin:miter;stroke-width:2;"/>
   </g>
   <g id="patch_20">
    <path d="M 79.353678 275.910707 
Q 95.052065 249.030359 110.126405 223.218569 
" style="fill:none;opacity:0.5;stroke:#0000ff;stroke-linecap:round;stroke-width:1.75;"/>
    <path d="M 108.074658 223.757395 
L 110.126405 223.218569 
L 110.665231 225.270316 
" style="fill:none;opacity:0.5;stroke:#0000ff;stroke-linecap:round;stroke-width:1.75;"/>
   </g>
   <g id="[&quot;g_s&quot;:4,&quot;g_t&quot;:5,&quot;coords&quot;:[[153.0, -392.0],[162.0, -366.0]],&quot;certainty&quot;:11]">
    <path clip-path="url(#pd4ee7f608d)" d="M 252.943582 193.751079 
C 256.626508 193.751079 260.159087 193.076519 262.76331 191.875962 
C 265.367532 190.675406 266.830774 189.046873 266.830774 187.34903 
C 266.830774 185.651187 265.367532 184.022654 262.76331 182.822098 
C 260.159087 181.621541 256.626508 180.946981 252.943582 180.946981 
C 249.260655 180.946981 245.728076 181.621541 243.123854 182.822098 
C 240.519632 184.022654 239.056389 185.651187 239.056389 187.34903 
C 239.056389 189.046873 240.519632 190.675406 243.123854 191.875962 
C 245.728076 193.076519 249.260655 193.751079 252.943582 193.751079 
z
" style="fill:#0000ff;opacity:0.2;stroke:#0000ff;stroke-linejoin:miter;stroke-width:2;"/>
   </g>
   <g id="[&quot;g_s&quot;:5,&quot;g_t&quot;:4,&quot;coords&quot;:[[162.0, -366.0],[153.0, -392.0]],&quot;certainty&quot;:11]">
    <path clip-path="url(#pd4ee7f608d)" d="M 273.77437 166.008867 
C 277.457297 166.008867 280.989876 165.334307 283.594098 164.13375 
C 286.19832 162.933194 287.661562 161.304661 287.661562 159.606818 
C 287.661562 157.908975 286.19832 156.280442 283.594098 155.079886 
C 280.989876 153.879329 277.457297 153.204769 273.77437 153.204769 
C 270.091444 153.204769 266.558865 153.879329 263.954642 155.079886 
C 261.35042 156.280442 259.887178 157.908975 259.887178 159.606818 
C 259.887178 161.304661 261.35042 162.933194 263.954642 164.13375 
C 266.558865 165.334307 270.091444 166.008867 273.77437 166.008867 
z
" style="fill:#ff0000;opacity:0.2;stroke:#ff0000;stroke-linejoin:miter;stroke-width:2;"/>
   </g>
   <g id="patch_21">
    <path d="M 252.943582 187.34903 
Q 262.757599 174.278831 271.29788 162.90498 
" style="fill:none;opacity:0.5;stroke:#0000ff;stroke-linecap:round;stroke-width:3;"/>
    <path d="M 269.197713 163.203812 
L 271.29788 162.90498 
L 271.596711 165.005147 
" style="fill:none;opacity:0.5;stroke:#0000ff;stroke-linecap:round;stroke-width:3;"/>
   </g>
   <g id="[&quot;g_s&quot;:5,&quot;g_t&quot;:6,&quot;coords&quot;:[[104.0, -337.0],[113.0, -319.0]],&quot;certainty&quot;:4]">
    <path clip-path="url(#pd4ee7f608d)" d="M 139.531512 131.331102 
C 141.066064 131.331102 142.537972 131.050035 143.623065 130.549803 
C 144.708157 130.049571 145.317842 129.371016 145.317842 128.663581 
C 145.317842 127.956147 144.708157 127.277592 143.623065 126.77736 
C 142.537972 126.277128 141.066064 125.996061 139.531512 125.996061 
C 137.996959 125.996061 136.525051 126.277128 135.439958 126.77736 
C 134.354866 127.277592 133.745181 127.956147 133.745181 128.663581 
C 133.745181 129.371016 134.354866 130.049571 135.439958 130.549803 
C 136.525051 131.050035 137.996959 131.331102 139.531512 131.331102 
z
" style="fill:#0000ff;opacity:0.2;stroke:#0000ff;stroke-linejoin:miter;stroke-width:2;"/>
   </g>
   <g id="[&quot;g_s&quot;:6,&quot;g_t&quot;:5,&quot;coords&quot;:[[113.0, -319.0],[104.0, -337.0]],&quot;certainty&quot;:4]">
    <path clip-path="url(#pd4ee7f608d)" d="M 160.3623 112.124955 
C 161.896853 112.124955 163.368761 111.843888 164.453853 111.343656 
C 165.538946 110.843425 166.14863 110.164869 166.14863 109.457435 
C 166.14863 108.75 165.538946 108.071445 164.453853 107.571213 
C 163.368761 107.070981 161.896853 106.789914 160.3623 106.789914 
C 158.827747 106.789914 157.355839 107.070981 156.270747 107.571213 
C 155.185654 108.071445 154.57597 108.75 154.57597 109.457435 
C 154.57597 110.164869 155.185654 110.843425 156.270747 111.343656 
C 157.355839 111.843888 158.827747 112.124955 160.3623 112.124955 
z
" style="fill:#ff0000;opacity:0.2;stroke:#ff0000;stroke-linejoin:miter;stroke-width:2;"/>
   </g>
   <g id="patch_22">
    <path d="M 139.531512 128.663581 
Q 149.210759 119.739241 158.24018 111.414046 
" style="fill:none;opacity:0.5;stroke:#0000ff;stroke-linecap:round;stroke-width:1.25;"/>
    <path d="M 156.120604 111.328036 
L 158.24018 111.414046 
L 158.15417 113.533622 
" style="fill:none;opacity:0.5;stroke:#0000ff;stroke-linecap:round;stroke-width:1.25;"/>
   </g>
   <g id="[&quot;g_s&quot;:6,&quot;g_t&quot;:7,&quot;coords&quot;:[[78.0, -298.0],[96.0, -291.0]],&quot;certainty&quot;:11]">
    <path clip-path="url(#pd4ee7f608d)" d="M 79.353678 93.452312 
C 83.036605 93.452312 86.569184 92.777752 89.173406 91.577196 
C 91.777628 90.376639 93.240871 88.748107 93.240871 87.050263 
C 93.240871 85.35242 91.777628 83.723888 89.173406 82.523331 
C 86.569184 81.322775 83.036605 80.648215 79.353678 80.648215 
C 75.670752 80.648215 72.138173 81.322775 69.533951 82.523331 
C 66.929728 83.723888 65.466486 85.35242 65.466486 87.050263 
C 65.466486 88.748107 66.929728 90.376639 69.533951 91.577196 
C 72.138173 92.777752 75.670752 93.452312 79.353678 93.452312 
z
" style="fill:#0000ff;opacity:0.2;stroke:#0000ff;stroke-linejoin:miter;stroke-width:2;"/>
   </g>
   <g id="[&quot;g_s&quot;:7,&quot;g_t&quot;:6,&quot;coords&quot;:[[96.0, -291.0],[78.0, -298.0]],&quot;certainty&quot;:11]">
    <path clip-path="url(#pd4ee7f608d)" d="M 121.015255 85.983255 
C 124.698182 85.983255 128.230761 85.308695 130.834983 84.108139 
C 133.439205 82.907582 134.902447 81.27905 134.902447 79.581206 
C 134.902447 77.883363 133.439205 76.254831 130.834983 75.054274 
C 128.230761 73.853718 124.698182 73.179157 121.015255 73.179157 
C 117.332329 73.179157 113.79975 73.853718 111.195527 75.054274 
C 108.591305 76.254831 107.128063 77.883363 107.128063 79.581206 
C 107.128063 81.27905 108.591305 82.907582 111.195527 84.108139 
C 113.79975 85.308695 117.332329 85.983255 121.015255 85.983255 
z
" style="fill:#ff0000;opacity:0.2;stroke:#ff0000;stroke-linejoin:miter;stroke-width:2;"/>
   </g>
   <g id="patch_23">
    <path d="M 79.353678 87.050263 
Q 99.199124 83.492386 116.956539 80.30885 
" style="fill:none;opacity:0.5;stroke:#0000ff;stroke-linecap:round;stroke-width:3;"/>
    <path d="M 115.21538 79.097089 
L 116.956539 80.30885 
L 115.744778 82.050009 
" style="fill:none;opacity:0.5;stroke:#0000ff;stroke-linecap:round;stroke-width:3;"/>
   </g>
   <g id="[&quot;g_s&quot;:7,&quot;g_t&quot;:1,&quot;coords&quot;:[[139.0, -244.0],[145.0, -249.0]],&quot;certainty&quot;:11]">
    <path clip-path="url(#pd4ee7f608d)" d="M 220.540133 35.833872 
C 224.22306 35.833872 227.755639 35.159312 230.359861 33.958755 
C 232.964083 32.758199 234.427325 31.129666 234.427325 29.431823 
C 234.427325 27.73398 232.964083 26.105447 230.359861 24.904891 
C 227.755639 23.704334 224.22306 23.029774 220.540133 23.029774 
C 216.857207 23.029774 213.324628 23.704334 210.720405 24.904891 
C 208.116183 26.105447 206.652941 27.73398 206.652941 29.431823 
C 206.652941 31.129666 208.116183 32.758199 210.720405 33.958755 
C 213.324628 35.159312 216.857207 35.833872 220.540133 35.833872 
z
" style="fill:#0000ff;opacity:0.2;stroke:#0000ff;stroke-linejoin:miter;stroke-width:2;"/>
   </g>
   <g id="[&quot;g_s&quot;:1,&quot;g_t&quot;:7,&quot;coords&quot;:[[145.0, -249.0],[139.0, -244.0]],&quot;certainty&quot;:11]">
    <path clip-path="url(#pd4ee7f608d)" d="M 234.427325 41.168913 
C 238.110252 41.168913 241.642831 40.494353 244.247053 39.293796 
C 246.851275 38.09324 248.314518 36.464707 248.314518 34.766864 
C 248.314518 33.069021 246.851275 31.440488 244.247053 30.239932 
C 241.642831 29.039375 238.110252 28.364815 234.427325 28.364815 
C 230.744399 28.364815 227.21182 29.039375 224.607598 30.239932 
C 222.003375 31.440488 220.540133 33.069021 220.540133 34.766864 
C 220.540133 36.464707 222.003375 38.09324 224.607598 39.293796 
C 227.21182 40.494353 230.744399 41.168913 234.427325 41.168913 
z
" style="fill:#ff0000;opacity:0.2;stroke:#ff0000;stroke-linejoin:miter;stroke-width:2;"/>
   </g>
   <g id="patch_24">
    <path d="M 220.540133 29.431823 
Q 226.549666 31.740505 230.578979 33.288445 
" style="fill:none;opacity:0.5;stroke:#0000ff;stroke-linecap:round;stroke-width:3;"/>
    <path d="M 229.716677 31.350293 
L 230.578979 33.288445 
L 228.640827 34.150747 
" style="fill:none;opacity:0.5;stroke:#0000ff;stroke-linecap:round;stroke-width:3;"/>
   </g>
   <g id="[&quot;g_s&quot;:1,&quot;g_t&quot;:7,&quot;coords&quot;:[[145.0, -249.0],[139.0, -244.0]],&quot;certainty&quot;:11]">
    <path clip-path="url(#pd4ee7f608d)" d="M 234.427325 41.168913 
C 238.110252 41.168913 241.642831 40.494353 244.247053 39.293796 
C 246.851275 38.09324 248.314518 36.464707 248.314518 34.766864 
C 248.314518 33.069021 246.851275 31.440488 244.247053 30.239932 
C 241.642831 29.039375 238.110252 28.364815 234.427325 28.364815 
C 230.744399 28.364815 227.21182 29.039375 224.607598 30.239932 
C 222.003375 31.440488 220.540133 33.069021 220.540133 34.766864 
C 220.540133 36.464707 222.003375 38.09324 224.607598 39.293796 
C 227.21182 40.494353 230.744399 41.168913 234.427325 41.168913 
z
" style="fill:#0000ff;opacity:0.2;stroke:#0000ff;stroke-linejoin:miter;stroke-width:2;"/>
   </g>
   <g id="[&quot;g_s&quot;:7,&quot;g_t&quot;:1,&quot;coords&quot;:[[139.0, -244.0],[145.0, -249.0]],&quot;certainty&quot;:11]">
    <path clip-path="url(#pd4ee7f608d)" d="M 220.540133 35.833872 
C 224.22306 35.833872 227.755639 35.159312 230.359861 33.958755 
C 232.964083 32.758199 234.427325 31.129666 234.427325 29.431823 
C 234.427325 27.73398 232.964083 26.105447 230.359861 24.904891 
C 227.755639 23.704334 224.22306 23.029774 220.540133 23.029774 
C 216.857207 23.029774 213.324628 23.704334 210.720405 24.904891 
C 208.116183 26.105447 206.652941 27.73398 206.652941 29.431823 
C 206.652941 31.129666 208.116183 32.758199 210.720405 33.958755 
C 213.324628 35.159312 216.857207 35.833872 220.540133 35.833872 
z
" style="fill:#ff0000;opacity:0.2;stroke:#ff0000;stroke-linejoin:miter;stroke-width:2;"/>
   </g>
   <g id="patch_25">
    <path d="M 234.427325 34.766864 
Q 228.417792 32.458182 224.388479 30.910242 
" style="fill:none;opacity:0.5;stroke:#ff0000;stroke-linecap:round;stroke-width:3;"/>
    <path d="M 225.250781 32.848394 
L 224.388479 30.910242 
L 226.326632 30.04794 
" style="fill:none;opacity:0.5;stroke:#ff0000;stroke-linecap:round;stroke-width:3;"/>
   </g>
   <g id="[&quot;g_s&quot;:2,&quot;g_t&quot;:1,&quot;coords&quot;:[[213.0, -329.0],[227.0, -353.0]],&quot;certainty&quot;:11]">
    <path clip-path="url(#pd4ee7f608d)" d="M 391.815504 126.529565 
C 395.498431 126.529565 399.03101 125.855005 401.635232 124.654448 
C 404.239454 123.453892 405.702697 121.825359 405.702697 120.127516 
C 405.702697 118.429673 404.239454 116.80114 401.635232 115.600584 
C 399.03101 114.400028 395.498431 113.725467 391.815504 113.725467 
C 388.132578 113.725467 384.599999 114.400028 381.995777 115.600584 
C 379.391554 116.80114 377.928312 118.429673 377.928312 120.127516 
C 377.928312 121.825359 379.391554 123.453892 381.995777 124.654448 
C 384.599999 125.855005 388.132578 126.529565 391.815504 126.529565 
z
" style="fill:#0000ff;opacity:0.2;stroke:#0000ff;stroke-linejoin:miter;stroke-width:2;"/>
   </g>
   <g id="[&quot;g_s&quot;:1,&quot;g_t&quot;:2,&quot;coords&quot;:[[227.0, -353.0],[213.0, -329.0]],&quot;certainty&quot;:11]">
    <path clip-path="url(#pd4ee7f608d)" d="M 424.218953 152.137761 
C 427.901879 152.137761 431.434459 151.463201 434.038681 150.262644 
C 436.642903 149.062088 438.106145 147.433555 438.106145 145.735712 
C 438.106145 144.037869 436.642903 142.409336 434.038681 141.20878 
C 431.434459 140.008223 427.901879 139.333663 424.218953 139.333663 
C 420.536027 139.333663 417.003447 140.008223 414.399225 141.20878 
C 411.795003 142.409336 410.331761 144.037869 410.331761 145.735712 
C 410.331761 147.433555 411.795003 149.062088 414.399225 150.262644 
C 417.003447 151.463201 420.536027 152.137761 424.218953 152.137761 
z
" style="fill:#ff0000;opacity:0.2;stroke:#ff0000;stroke-linejoin:miter;stroke-width:2;"/>
   </g>
   <g id="patch_26">
    <path d="M 391.815504 120.127516 
Q 407.233051 132.311884 420.986273 143.18095 
" style="fill:none;opacity:0.5;stroke:#ff0000;stroke-linecap:round;stroke-width:3;"/>
    <path d="M 420.739477 141.074034 
L 420.986273 143.18095 
L 418.879357 143.427745 
" style="fill:none;opacity:0.5;stroke:#ff0000;stroke-linecap:round;stroke-width:3;"/>
   </g>
   <g id="[&quot;g_s&quot;:3,&quot;g_t&quot;:2,&quot;coords&quot;:[[100.0, -449.0],[87.0, -502.0]],&quot;certainty&quot;:5]">
    <path clip-path="url(#pd4ee7f608d)" d="M 130.273383 251.369519 
C 132.114847 251.369519 133.881136 251.032239 135.183247 250.431961 
C 136.485358 249.831683 137.216979 249.017416 137.216979 248.168495 
C 137.216979 247.319573 136.485358 246.505307 135.183247 245.905029 
C 133.881136 245.30475 132.114847 244.96747 130.273383 244.96747 
C 128.43192 244.96747 126.665631 245.30475 125.363519 245.905029 
C 124.061408 246.505307 123.329787 247.319573 123.329787 248.168495 
C 123.329787 249.017416 124.061408 249.831683 125.363519 250.431961 
C 126.665631 251.032239 128.43192 251.369519 130.273383 251.369519 
z
" style="fill:#0000ff;opacity:0.2;stroke:#0000ff;stroke-linejoin:miter;stroke-width:2;"/>
   </g>
   <g id="[&quot;g_s&quot;:2,&quot;g_t&quot;:3,&quot;coords&quot;:[[87.0, -502.0],[100.0, -449.0]],&quot;certainty&quot;:5]">
    <path clip-path="url(#pd4ee7f608d)" d="M 100.184467 307.920951 
C 102.02593 307.920951 103.79222 307.583671 105.094331 306.983393 
C 106.396442 306.383115 107.128063 305.568848 107.128063 304.719927 
C 107.128063 303.871005 106.396442 303.056739 105.094331 302.456461 
C 103.79222 301.856183 102.02593 301.518902 100.184467 301.518902 
C 98.343004 301.518902 96.576714 301.856183 95.274603 302.456461 
C 93.972492 303.056739 93.240871 303.871005 93.240871 304.719927 
C 93.240871 305.568848 93.972492 306.383115 95.274603 306.983393 
C 96.576714 307.583671 98.343004 307.920951 100.184467 307.920951 
z
" style="fill:#ff0000;opacity:0.2;stroke:#ff0000;stroke-linejoin:miter;stroke-width:2;"/>
   </g>
   <g id="patch_27">
    <path d="M 130.273383 248.168495 
Q 115.698146 275.56232 101.621117 302.019776 
" style="fill:none;opacity:0.5;stroke:#ff0000;stroke-linecap:round;stroke-width:1.5;"/>
    <path d="M 103.649916 301.400121 
L 101.621117 302.019776 
L 101.001462 299.990977 
" style="fill:none;opacity:0.5;stroke:#ff0000;stroke-linecap:round;stroke-width:1.5;"/>
   </g>
   <g id="[&quot;g_s&quot;:4,&quot;g_t&quot;:3,&quot;coords&quot;:[[92.0, -423.0],[78.0, -475.0]],&quot;certainty&quot;:6]">
    <path clip-path="url(#pd4ee7f608d)" d="M 111.757127 224.160811 
C 113.905501 224.160811 115.966172 223.767318 117.485302 223.066993 
C 119.004431 222.366669 119.857989 221.416691 119.857989 220.426283 
C 119.857989 219.435874 119.004431 218.485897 117.485302 217.785572 
C 115.966172 217.085248 113.905501 216.691754 111.757127 216.691754 
C 109.608753 216.691754 107.548082 217.085248 106.028952 217.785572 
C 104.509823 218.485897 103.656265 219.435874 103.656265 220.426283 
C 103.656265 221.416691 104.509823 222.366669 106.028952 223.066993 
C 107.548082 223.767318 109.608753 224.160811 111.757127 224.160811 
z
" style="fill:#0000ff;opacity:0.2;stroke:#0000ff;stroke-linejoin:miter;stroke-width:2;"/>
   </g>
   <g id="[&quot;g_s&quot;:3,&quot;g_t&quot;:4,&quot;coords&quot;:[[78.0, -475.0],[92.0, -423.0]],&quot;certainty&quot;:6]">
    <path clip-path="url(#pd4ee7f608d)" d="M 79.353678 279.645235 
C 81.502052 279.645235 83.562723 279.251742 85.081853 278.551417 
C 86.600983 277.851093 87.454541 276.901115 87.454541 275.910707 
C 87.454541 274.920298 86.600983 273.970321 85.081853 273.269996 
C 83.562723 272.569672 81.502052 272.176178 79.353678 272.176178 
C 77.205305 272.176178 75.144633 272.569672 73.625504 273.269996 
C 72.106374 273.970321 71.252816 274.920298 71.252816 275.910707 
C 71.252816 276.901115 72.106374 277.851093 73.625504 278.551417 
C 75.144633 279.251742 77.205305 279.645235 79.353678 279.645235 
z
" style="fill:#ff0000;opacity:0.2;stroke:#ff0000;stroke-linejoin:miter;stroke-width:2;"/>
   </g>
   <g id="patch_28">
    <path d="M 111.757127 220.426283 
Q 96.05874 247.30663 80.984401 273.118421 
" style="fill:none;opacity:0.5;stroke:#ff0000;stroke-linecap:round;stroke-width:1.75;"/>
    <path d="M 83.036148 272.579594 
L 80.984401 273.118421 
L 80.445574 271.066674 
" style="fill:none;opacity:0.5;stroke:#ff0000;stroke-linecap:round;stroke-width:1.75;"/>
   </g>
   <g id="[&quot;g_s&quot;:5,&quot;g_t&quot;:4,&quot;coords&quot;:[[162.0, -366.0],[153.0, -392.0]],&quot;certainty&quot;:11]">
    <path clip-path="url(#pd4ee7f608d)" d="M 273.77437 166.008867 
C 277.457297 166.008867 280.989876 165.334307 283.594098 164.13375 
C 286.19832 162.933194 287.661562 161.304661 287.661562 159.606818 
C 287.661562 157.908975 286.19832 156.280442 283.594098 155.079886 
C 280.989876 153.879329 277.457297 153.204769 273.77437 153.204769 
C 270.091444 153.204769 266.558865 153.879329 263.954642 155.079886 
C 261.35042 156.280442 259.887178 157.908975 259.887178 159.606818 
C 259.887178 161.304661 261.35042 162.933194 263.954642 164.13375 
C 266.558865 165.334307 270.091444 166.008867 273.77437 166.008867 
z
" style="fill:#0000ff;opacity:0.2;stroke:#0000ff;stroke-linejoin:miter;stroke-width:2;"/>
   </g>
   <g id="[&quot;g_s&quot;:4,&quot;g_t&quot;:5,&quot;coords&quot;:[[153.0, -392.0],[162.0, -366.0]],&quot;certainty&quot;:11]">
    <path clip-path="url(#pd4ee7f608d)" d="M 252.943582 193.751079 
C 256.626508 193.751079 260.159087 193.076519 262.76331 191.875962 
C 265.367532 190.675406 266.830774 189.046873 266.830774 187.34903 
C 266.830774 185.651187 265.367532 184.022654 262.76331 182.822098 
C 260.159087 181.621541 256.626508 180.946981 252.943582 180.946981 
C 249.260655 180.946981 245.728076 181.621541 243.123854 182.822098 
C 240.519632 184.022654 239.056389 185.651187 239.056389 187.34903 
C 239.056389 189.046873 240.519632 190.675406 243.123854 191.875962 
C 245.728076 193.076519 249.260655 193.751079 252.943582 193.751079 
z
" style="fill:#ff0000;opacity:0.2;stroke:#ff0000;stroke-linejoin:miter;stroke-width:2;"/>
   </g>
   <g id="patch_29">
    <path d="M 273.77437 159.606818 
Q 263.960353 172.677017 255.420072 184.050867 
" style="fill:none;opacity:0.5;stroke:#ff0000;stroke-linecap:round;stroke-width:3;"/>
    <path d="M 257.520239 183.752036 
L 255.420072 184.050867 
L 255.121241 181.950701 
" style="fill:none;opacity:0.5;stroke:#ff0000;stroke-linecap:round;stroke-width:3;"/>
   </g>
   <g id="[&quot;g_s&quot;:6,&quot;g_t&quot;:5,&quot;coords&quot;:[[113.0, -319.0],[104.0, -337.0]],&quot;certainty&quot;:5]">
    <path clip-path="url(#pd4ee7f608d)" d="M 160.3623 112.658459 
C 162.203763 112.658459 163.970053 112.321179 165.272164 111.720901 
C 166.574275 111.120623 167.305896 110.306356 167.305896 109.457435 
C 167.305896 108.608513 166.574275 107.794247 165.272164 107.193969 
C 163.970053 106.59369 162.203763 106.25641 160.3623 106.25641 
C 158.520837 106.25641 156.754547 106.59369 155.452436 107.193969 
C 154.150325 107.794247 153.418704 108.608513 153.418704 109.457435 
C 153.418704 110.306356 154.150325 111.120623 155.452436 111.720901 
C 156.754547 112.321179 158.520837 112.658459 160.3623 112.658459 
z
" style="fill:#0000ff;opacity:0.2;stroke:#0000ff;stroke-linejoin:miter;stroke-width:2;"/>
   </g>
   <g id="[&quot;g_s&quot;:5,&quot;g_t&quot;:6,&quot;coords&quot;:[[104.0, -337.0],[113.0, -319.0]],&quot;certainty&quot;:5]">
    <path clip-path="url(#pd4ee7f608d)" d="M 139.531512 131.864606 
C 141.372975 131.864606 143.139264 131.527326 144.441375 130.927048 
C 145.743487 130.326769 146.475108 129.512503 146.475108 128.663581 
C 146.475108 127.81466 145.743487 127.000394 144.441375 126.400115 
C 143.139264 125.799837 141.372975 125.462557 139.531512 125.462557 
C 137.690048 125.462557 135.923759 125.799837 134.621648 126.400115 
C 133.319536 127.000394 132.587915 127.81466 132.587915 128.663581 
C 132.587915 129.512503 133.319536 130.326769 134.621648 130.927048 
C 135.923759 131.527326 137.690048 131.864606 139.531512 131.864606 
z
" style="fill:#ff0000;opacity:0.2;stroke:#ff0000;stroke-linejoin:miter;stroke-width:2;"/>
   </g>
   <g id="patch_30">
    <path d="M 160.3623 109.457435 
Q 150.683052 118.381775 141.783597 126.587141 
" style="fill:none;opacity:0.5;stroke:#ff0000;stroke-linecap:round;stroke-width:1.5;"/>
    <path d="M 143.903173 126.673151 
L 141.783597 126.587141 
L 141.869606 124.467565 
" style="fill:none;opacity:0.5;stroke:#ff0000;stroke-linecap:round;stroke-width:1.5;"/>
   </g>
   <g id="[&quot;g_s&quot;:7,&quot;g_t&quot;:6,&quot;coords&quot;:[[96.0, -291.0],[78.0, -298.0]],&quot;certainty&quot;:11]">
    <path clip-path="url(#pd4ee7f608d)" d="M 121.015255 85.983255 
C 124.698182 85.983255 128.230761 85.308695 130.834983 84.108139 
C 133.439205 82.907582 134.902447 81.27905 134.902447 79.581206 
C 134.902447 77.883363 133.439205 76.254831 130.834983 75.054274 
C 128.230761 73.853718 124.698182 73.179157 121.015255 73.179157 
C 117.332329 73.179157 113.79975 73.853718 111.195527 75.054274 
C 108.591305 76.254831 107.128063 77.883363 107.128063 79.581206 
C 107.128063 81.27905 108.591305 82.907582 111.195527 84.108139 
C 113.79975 85.308695 117.332329 85.983255 121.015255 85.983255 
z
" style="fill:#0000ff;opacity:0.2;stroke:#0000ff;stroke-linejoin:miter;stroke-width:2;"/>
   </g>
   <g id="[&quot;g_s&quot;:6,&quot;g_t&quot;:7,&quot;coords&quot;:[[78.0, -298.0],[96.0, -291.0]],&quot;certainty&quot;:11]">
    <path clip-path="url(#pd4ee7f608d)" d="M 79.353678 93.452312 
C 83.036605 93.452312 86.569184 92.777752 89.173406 91.577196 
C 91.777628 90.376639 93.240871 88.748107 93.240871 87.050263 
C 93.240871 85.35242 91.777628 83.723888 89.173406 82.523331 
C 86.569184 81.322775 83.036605 80.648215 79.353678 80.648215 
C 75.670752 80.648215 72.138173 81.322775 69.533951 82.523331 
C 66.929728 83.723888 65.466486 85.35242 65.466486 87.050263 
C 65.466486 88.748107 66.929728 90.376639 69.533951 91.577196 
C 72.138173 92.777752 75.670752 93.452312 79.353678 93.452312 
z
" style="fill:#ff0000;opacity:0.2;stroke:#ff0000;stroke-linejoin:miter;stroke-width:2;"/>
   </g>
   <g id="patch_31">
    <path d="M 121.015255 79.581206 
Q 101.16981 83.139083 83.412395 86.32262 
" style="fill:none;opacity:0.5;stroke:#ff0000;stroke-linecap:round;stroke-width:3;"/>
    <path d="M 85.153553 87.534381 
L 83.412395 86.32262 
L 84.624156 84.581461 
" style="fill:none;opacity:0.5;stroke:#ff0000;stroke-linecap:round;stroke-width:3;"/>
   </g>
   <g id="patch_32">
    <path clip-path="url(#pd4ee7f608d)" d="M 408.017229 138.266655 
C 411.086334 138.266655 414.03015 137.704521 416.200335 136.704058 
C 418.37052 135.703594 419.589889 134.346483 419.589889 132.931614 
C 419.589889 131.516745 418.37052 130.159634 416.200335 129.159171 
C 414.03015 128.158707 411.086334 127.596573 408.017229 127.596573 
C 404.948123 127.596573 402.004307 128.158707 399.834122 129.159171 
C 397.663937 130.159634 396.444568 131.516745 396.444568 132.931614 
C 396.444568 134.346483 397.663937 135.703594 399.834122 136.704058 
C 402.004307 137.704521 404.948123 138.266655 408.017229 138.266655 
z
" style="fill:#008000;opacity:0.2;stroke:#008000;stroke-linejoin:miter;stroke-width:2;"/>
   </g>
   <g id="patch_33">
    <path clip-path="url(#pd4ee7f608d)" d="M 115.228925 281.779252 
C 118.29803 281.779252 121.241846 281.217118 123.412032 280.216654 
C 125.582217 279.216191 126.801585 277.85908 126.801585 276.444211 
C 126.801585 275.029341 125.582217 273.672231 123.412032 272.671767 
C 121.241846 271.671304 118.29803 271.10917 115.228925 271.10917 
C 112.15982 271.10917 109.216004 271.671304 107.045819 272.671767 
C 104.875633 273.672231 103.656265 275.029341 103.656265 276.444211 
C 103.656265 277.85908 104.875633 279.216191 107.045819 280.216654 
C 109.216004 281.217118 112.15982 281.779252 115.228925 281.779252 
z
" style="fill:#008000;opacity:0.2;stroke:#008000;stroke-linejoin:miter;stroke-width:2;"/>
   </g>
   <g id="patch_34">
    <path clip-path="url(#pd4ee7f608d)" d="M 95.555403 253.503535 
C 98.624508 253.503535 101.568324 252.941402 103.738509 251.940938 
C 105.908694 250.940475 107.128063 249.583364 107.128063 248.168495 
C 107.128063 246.753625 105.908694 245.396515 103.738509 244.396051 
C 101.568324 243.395587 98.624508 242.833454 95.555403 242.833454 
C 92.486297 242.833454 89.542481 243.395587 87.372296 244.396051 
C 85.202111 245.396515 83.982742 246.753625 83.982742 248.168495 
C 83.982742 249.583364 85.202111 250.940475 87.372296 251.940938 
C 89.542481 252.941402 92.486297 253.503535 95.555403 253.503535 
z
" style="fill:#008000;opacity:0.2;stroke:#008000;stroke-linejoin:miter;stroke-width:2;"/>
   </g>
   <g id="patch_35">
    <path clip-path="url(#pd4ee7f608d)" d="M 263.358976 178.812965 
C 266.428081 178.812965 269.371897 178.250831 271.542082 177.250367 
C 273.712268 176.249904 274.931636 174.892793 274.931636 173.477924 
C 274.931636 172.063055 273.712268 170.705944 271.542082 169.70548 
C 269.371897 168.705017 266.428081 168.142883 263.358976 168.142883 
C 260.289871 168.142883 257.346055 168.705017 255.175869 169.70548 
C 253.005684 170.705944 251.786316 172.063055 251.786316 173.477924 
C 251.786316 174.892793 253.005684 176.249904 255.175869 177.250367 
C 257.346055 178.250831 260.289871 178.812965 263.358976 178.812965 
z
" style="fill:#008000;opacity:0.2;stroke:#008000;stroke-linejoin:miter;stroke-width:2;"/>
   </g>
   <g id="patch_36">
    <path clip-path="url(#pd4ee7f608d)" d="M 149.946906 124.395549 
C 153.016011 124.395549 155.959827 123.833415 158.130012 122.832952 
C 160.300197 121.832488 161.519566 120.475377 161.519566 119.060508 
C 161.519566 117.645639 160.300197 116.288528 158.130012 115.288065 
C 155.959827 114.287601 153.016011 113.725467 149.946906 113.725467 
C 146.8778 113.725467 143.933984 114.287601 141.763799 115.288065 
C 139.593614 116.288528 138.374246 117.645639 138.374246 119.060508 
C 138.374246 120.475377 139.593614 121.832488 141.763799 122.832952 
C 143.933984 123.833415 146.8778 124.395549 149.946906 124.395549 
z
" style="fill:#008000;opacity:0.2;stroke:#008000;stroke-linejoin:miter;stroke-width:2;"/>
   </g>
   <g id="patch_37">
    <path clip-path="url(#pd4ee7f608d)" d="M 100.184467 88.650776 
C 103.253572 88.650776 106.197388 88.088642 108.367573 87.088178 
C 110.537759 86.087715 111.757127 84.730604 111.757127 83.315735 
C 111.757127 81.900866 110.537759 80.543755 108.367573 79.543291 
C 106.197388 78.542828 103.253572 77.980694 100.184467 77.980694 
C 97.115361 77.980694 94.171545 78.542828 92.00136 79.543291 
C 89.831175 80.543755 88.611807 81.900866 88.611807 83.315735 
C 88.611807 84.730604 89.831175 86.087715 92.00136 87.088178 
C 94.171545 88.088642 97.115361 88.650776 100.184467 88.650776 
z
" style="fill:#008000;opacity:0.2;stroke:#008000;stroke-linejoin:miter;stroke-width:2;"/>
   </g>
   <g id="patch_38">
    <path clip-path="url(#pd4ee7f608d)" d="M 227.483729 37.434384 
C 230.552835 37.434384 233.496651 36.872251 235.666836 35.871787 
C 237.837021 34.871323 239.056389 33.514213 239.056389 32.099344 
C 239.056389 30.684474 237.837021 29.327364 235.666836 28.3269 
C 233.496651 27.326436 230.552835 26.764303 227.483729 26.764303 
C 224.414624 26.764303 221.470808 27.326436 219.300623 28.3269 
C 217.130437 29.327364 215.911069 30.684474 215.911069 32.099344 
C 215.911069 33.514213 217.130437 34.871323 219.300623 35.871787 
C 221.470808 36.872251 224.414624 37.434384 227.483729 37.434384 
z
" style="fill:#008000;opacity:0.2;stroke:#008000;stroke-linejoin:miter;stroke-width:2;"/>
   </g>
   <g id="patch_39">
    <path clip-path="url(#pd4ee7f608d)" d="M 424.218953 167.075875 
C 436.495374 167.075875 448.270638 164.827341 456.951379 160.825486 
C 465.63212 156.823631 470.509594 151.395189 470.509594 145.735712 
C 470.509594 140.076235 465.63212 134.647793 456.951379 130.645938 
C 448.270638 126.644083 436.495374 124.395549 424.218953 124.395549 
C 411.942531 124.395549 400.167268 126.644083 391.486527 130.645938 
C 382.805786 134.647793 377.928312 140.076235 377.928312 145.735712 
C 377.928312 151.395189 382.805786 156.823631 391.486527 160.825486 
C 400.167268 164.827341 411.942531 167.075875 424.218953 167.075875 
z
" style="fill:none;opacity:0.2;stroke:#ff0000;stroke-linejoin:miter;stroke-width:2;"/>
   </g>
   <g id="patch_40">
    <path clip-path="url(#pd4ee7f608d)" d="M 234.427325 56.107027 
C 246.703747 56.107027 258.479011 53.858493 267.159751 49.856638 
C 275.840492 45.854783 280.717966 40.426341 280.717966 34.766864 
C 280.717966 29.107386 275.840492 23.678945 267.159751 19.67709 
C 258.479011 15.675235 246.703747 13.426701 234.427325 13.426701 
C 222.150904 13.426701 210.37564 15.675235 201.694899 19.67709 
C 193.014158 23.678945 188.136684 29.107386 188.136684 34.766864 
C 188.136684 40.426341 193.014158 45.854783 201.694899 49.856638 
C 210.37564 53.858493 222.150904 56.107027 234.427325 56.107027 
z
" style="fill:none;opacity:0.2;stroke:#0000ff;stroke-linejoin:miter;stroke-width:2;"/>
   </g>
   <g id="patch_41">
    <path clip-path="url(#pd4ee7f608d)" d="M 424.218953 156.405793 
C 430.357164 156.405793 436.244796 155.281526 440.585166 153.280599 
C 444.925536 151.279672 447.364273 148.565451 447.364273 145.735712 
C 447.364273 142.905973 444.925536 140.191752 440.585166 138.190825 
C 436.244796 136.189897 430.357164 135.06563 424.218953 135.06563 
C 418.080742 135.06563 412.19311 136.189897 407.85274 138.190825 
C 403.512369 140.191752 401.073633 142.905973 401.073633 145.735712 
C 401.073633 148.565451 403.512369 151.279672 407.85274 153.280599 
C 412.19311 155.281526 418.080742 156.405793 424.218953 156.405793 
z
" style="fill:none;opacity:0.2;stroke:#008000;stroke-linejoin:miter;stroke-width:2;"/>
   </g>
   <g id="patch_42">
    <path clip-path="url(#pd4ee7f608d)" d="M 391.815504 130.797598 
C 397.953715 130.797598 403.841347 129.673331 408.181717 127.672403 
C 412.522088 125.671476 414.960825 122.957255 414.960825 120.127516 
C 414.960825 117.297778 412.522088 114.583557 408.181717 112.582629 
C 403.841347 110.581702 397.953715 109.457435 391.815504 109.457435 
C 385.677294 109.457435 379.789662 110.581702 375.449291 112.582629 
C 371.108921 114.583557 368.670184 117.297778 368.670184 120.127516 
C 368.670184 122.957255 371.108921 125.671476 375.449291 127.672403 
C 379.789662 129.673331 385.677294 130.797598 391.815504 130.797598 
z
" style="fill:none;opacity:0.2;stroke:#008000;stroke-linejoin:miter;stroke-width:2;"/>
   </g>
   <g id="patch_43">
    <path d="M 408.017229 132.931614 
Q 261.623077 204.687912 115.228925 276.444211 
" style="fill:none;opacity:0.5;stroke:#008000;stroke-linecap:round;stroke-width:2;"/>
   </g>
   <g id="patch_44">
    <path d="M 423.109403 144.858843 
Q 408.801406 133.551344 394.49341 122.243844 
" style="fill:none;opacity:0.5;stroke:#800080;stroke-linecap:round;stroke-width:2;"/>
    <path d="M 422.862607 142.751928 
L 423.109403 144.858843 
L 421.002488 145.105639 
" style="fill:none;opacity:0.5;stroke:#800080;stroke-linecap:round;stroke-width:2;"/>
    <path d="M 394.740205 124.350759 
L 394.49341 122.243844 
L 396.600325 121.997049 
" style="fill:none;opacity:0.5;stroke:#800080;stroke-linecap:round;stroke-width:2;"/>
   </g>
   <g id="patch_45">
    <path d="M 115.228925 276.444211 
Q 105.392164 262.306353 95.555403 248.168495 
" style="fill:none;opacity:0.5;stroke:#008000;stroke-linecap:round;stroke-width:2;"/>
   </g>
   <g id="patch_46">
    <path d="M 100.848744 303.471433 
Q 114.759704 277.326101 128.670664 251.180769 
" style="fill:none;opacity:0.5;stroke:#800080;stroke-linecap:round;stroke-width:2;"/>
    <path d="M 102.877543 302.851778 
L 100.848744 303.471433 
L 100.229089 301.442634 
" style="fill:none;opacity:0.5;stroke:#800080;stroke-linecap:round;stroke-width:2;"/>
    <path d="M 126.641865 251.800424 
L 128.670664 251.180769 
L 129.290319 253.209568 
" style="fill:none;opacity:0.5;stroke:#800080;stroke-linecap:round;stroke-width:2;"/>
   </g>
   <g id="patch_47">
    <path d="M 95.555403 248.168495 
Q 179.457189 210.823209 263.358976 173.477924 
" style="fill:none;opacity:0.5;stroke:#008000;stroke-linecap:round;stroke-width:2;"/>
   </g>
   <g id="patch_48">
    <path d="M 80.066876 274.689499 
Q 95.052065 249.030359 110.037255 223.37122 
" style="fill:none;opacity:0.5;stroke:#800080;stroke-linecap:round;stroke-width:2;"/>
    <path d="M 82.118623 274.150672 
L 80.066876 274.689499 
L 79.528049 272.637752 
" style="fill:none;opacity:0.5;stroke:#800080;stroke-linecap:round;stroke-width:2;"/>
    <path d="M 107.985508 223.910046 
L 110.037255 223.37122 
L 110.576082 225.422967 
" style="fill:none;opacity:0.5;stroke:#800080;stroke-linecap:round;stroke-width:2;"/>
   </g>
   <g id="patch_49">
    <path d="M 263.358976 173.477924 
Q 206.652941 146.269216 149.946906 119.060508 
" style="fill:none;opacity:0.5;stroke:#008000;stroke-linecap:round;stroke-width:2;"/>
   </g>
   <g id="patch_50">
    <path d="M 253.792739 186.218131 
Q 262.757599 174.278831 271.722458 162.339531 
" style="fill:none;opacity:0.5;stroke:#800080;stroke-linecap:round;stroke-width:2;"/>
    <path d="M 255.892906 185.9193 
L 253.792739 186.218131 
L 253.493908 184.117965 
" style="fill:none;opacity:0.5;stroke:#800080;stroke-linecap:round;stroke-width:2;"/>
    <path d="M 269.622292 162.638363 
L 271.722458 162.339531 
L 272.02129 164.439698 
" style="fill:none;opacity:0.5;stroke:#800080;stroke-linecap:round;stroke-width:2;"/>
   </g>
   <g id="patch_51">
    <path d="M 149.946906 119.060508 
Q 125.065686 101.188121 100.184467 83.315735 
" style="fill:none;opacity:0.5;stroke:#008000;stroke-linecap:round;stroke-width:2;"/>
   </g>
   <g id="patch_52">
    <path d="M 140.571234 127.704949 
Q 149.210759 119.739241 157.850284 111.773533 
" style="fill:none;opacity:0.5;stroke:#800080;stroke-linecap:round;stroke-width:2;"/>
    <path d="M 142.69081 127.790958 
L 140.571234 127.704949 
L 140.657244 125.585373 
" style="fill:none;opacity:0.5;stroke:#800080;stroke-linecap:round;stroke-width:2;"/>
    <path d="M 155.730708 111.687524 
L 157.850284 111.773533 
L 157.764274 113.893109 
" style="fill:none;opacity:0.5;stroke:#800080;stroke-linecap:round;stroke-width:2;"/>
   </g>
   <g id="patch_53">
    <path d="M 100.184467 83.315735 
Q 163.834098 57.707539 227.483729 32.099344 
" style="fill:none;opacity:0.5;stroke:#008000;stroke-linecap:round;stroke-width:2;"/>
   </g>
   <g id="patch_54">
    <path d="M 80.745698 86.800703 
Q 99.199124 83.492386 117.652549 80.18407 
" style="fill:none;opacity:0.5;stroke:#800080;stroke-linecap:round;stroke-width:2;"/>
    <path d="M 82.486857 88.012465 
L 80.745698 86.800703 
L 81.95746 85.059544 
" style="fill:none;opacity:0.5;stroke:#800080;stroke-linecap:round;stroke-width:2;"/>
    <path d="M 115.91139 78.972308 
L 117.652549 80.18407 
L 116.440788 81.925229 
" style="fill:none;opacity:0.5;stroke:#800080;stroke-linecap:round;stroke-width:2;"/>
   </g>
   <g id="patch_55">
    <path d="M 227.483729 32.099344 
Q 317.750479 82.515479 408.017229 132.931614 
" style="fill:none;opacity:0.5;stroke:#008000;stroke-linecap:round;stroke-width:2;"/>
   </g>
   <g id="patch_56">
    <path d="M 221.86028 29.938984 
Q 226.549666 31.740505 231.239053 33.542026 
" style="fill:none;opacity:0.5;stroke:#800080;stroke-linecap:round;stroke-width:2;"/>
    <path d="M 222.722582 31.877136 
L 221.86028 29.938984 
L 223.798433 29.076682 
" style="fill:none;opacity:0.5;stroke:#800080;stroke-linecap:round;stroke-width:2;"/>
    <path d="M 230.37675 31.603873 
L 231.239053 33.542026 
L 229.3009 34.404328 
" style="fill:none;opacity:0.5;stroke:#800080;stroke-linecap:round;stroke-width:2;"/>
   </g>
   <g id="line2d_1">
    <path clip-path="url(#pd4ee7f608d)" d="M 424.218953 145.735712 
L 100.184467 304.719927 
L 79.353678 275.910707 
L 252.943582 187.34903 
L 139.531512 128.663581 
L 79.353678 87.050263 
L 220.540133 29.431823 
" style="fill:none;stroke:#ff0000;stroke-linecap:square;stroke-width:0.2;"/>
   </g>
   <g id="line2d_2">
    <path clip-path="url(#pd4ee7f608d)" d="M 234.427325 34.766864 
L 391.815504 120.127516 
L 130.273383 248.168495 
L 111.757127 220.426283 
L 273.77437 159.606818 
L 160.3623 109.457435 
L 121.015255 79.581206 
" style="fill:none;stroke:#0000ff;stroke-linecap:square;stroke-width:0.2;"/>
   </g>
  </g>
 </g>
 <defs>
  <clipPath id="pd4ee7f608d">
   <rect height="307.51175" width="409.903625" x="37.576375" y="13.32"/>
  </clipPath>
 </defs>
</svg>
