<?xml version="1.0" encoding="utf-8" standalone="no"?>
<!DOCTYPE svg PUBLIC "-//W3C//DTD SVG 1.1//EN"
  "http://www.w3.org/Graphics/SVG/1.1/DTD/svg11.dtd">
<!-- Created with matplotlib (http://matplotlib.org/) -->
<svg height="345.6pt" version="1.1" viewBox="0 0 460.8 345.6" width="460.8pt" xmlns="http://www.w3.org/2000/svg" xmlns:xlink="http://www.w3.org/1999/xlink">
 <defs>
  <style type="text/css">
*{stroke-linecap:butt;stroke-linejoin:round;}
  </style>
 </defs>
 <g id="figure_1">
  <g id="patch_1">
   <path d="M 0 345.6 
L 460.8 345.6 
L 460.8 0 
L 0 0 
z
" style="fill:#ffffff;"/>
  </g>
  <g id="axes_1">
   <g id="patch_2">
    <path clip-path="url(#p26a2f7f0fd)" d="M 138.619052 276.631658 
C 139.252547 276.631658 139.86018 276.277835 140.308129 275.648113 
C 140.756077 275.018392 141.007768 274.164187 141.007768 273.273627 
C 141.007768 272.383066 140.756077 271.528861 140.308129 270.89914 
C 139.86018 270.269418 139.252547 269.915595 138.619052 269.915595 
C 137.985557 269.915595 137.377923 270.269418 136.929975 270.89914 
C 136.482026 271.528861 136.230336 272.383066 136.230336 273.273627 
C 136.230336 274.164187 136.482026 275.018392 136.929975 275.648113 
C 137.377923 276.277835 137.985557 276.631658 138.619052 276.631658 
z
" style="fill:#ff0000;opacity:0.2;stroke:#ff0000;stroke-linejoin:miter;stroke-width:2;"/>
   </g>
   <g id="patch_3">
    <path clip-path="url(#p26a2f7f0fd)" d="M 63.374505 177.569724 
C 64.008 177.569724 64.615634 177.215901 65.063582 176.586179 
C 65.511531 175.956458 65.763221 175.102253 65.763221 174.211692 
C 65.763221 173.321132 65.511531 172.466927 65.063582 171.837205 
C 64.615634 171.207484 64.008 170.853661 63.374505 170.853661 
C 62.74101 170.853661 62.133377 171.207484 61.685428 171.837205 
C 61.23748 172.466927 60.985789 173.321132 60.985789 174.211692 
C 60.985789 175.102253 61.23748 175.956458 61.685428 176.586179 
C 62.133377 177.215901 62.74101 177.569724 63.374505 177.569724 
z
" style="fill:#ff0000;opacity:0.2;stroke:#ff0000;stroke-linejoin:miter;stroke-width:2;"/>
   </g>
   <g id="patch_4">
    <path clip-path="url(#p26a2f7f0fd)" d="M 138.619052 70.112711 
C 139.252547 70.112711 139.86018 69.758887 140.308129 69.129166 
C 140.756077 68.499445 141.007768 67.645239 141.007768 66.754679 
C 141.007768 65.864119 140.756077 65.009913 140.308129 64.380192 
C 139.86018 63.750471 139.252547 63.396647 138.619052 63.396647 
C 137.985557 63.396647 137.377923 63.750471 136.929975 64.380192 
C 136.482026 65.009913 136.230336 65.864119 136.230336 66.754679 
C 136.230336 67.645239 136.482026 68.499445 136.929975 69.129166 
C 137.377923 69.758887 137.985557 70.112711 138.619052 70.112711 
z
" style="fill:#ff0000;opacity:0.2;stroke:#ff0000;stroke-linejoin:miter;stroke-width:2;"/>
   </g>
   <g id="patch_5">
    <path clip-path="url(#p26a2f7f0fd)" d="M 211.474883 169.174645 
C 212.108377 169.174645 212.716011 168.820821 213.16396 168.1911 
C 213.611908 167.561379 213.863598 166.707174 213.863598 165.816613 
C 213.863598 164.926053 213.611908 164.071847 213.16396 163.442126 
C 212.716011 162.812405 212.108377 162.458581 211.474883 162.458581 
C 210.841388 162.458581 210.233754 162.812405 209.785805 163.442126 
C 209.337857 164.071847 209.086167 164.926053 209.086167 165.816613 
C 209.086167 166.707174 209.337857 167.561379 209.785805 168.1911 
C 210.233754 168.820821 210.841388 169.174645 211.474883 169.174645 
z
" style="fill:#ff0000;opacity:0.2;stroke:#ff0000;stroke-linejoin:miter;stroke-width:2;"/>
   </g>
   <g id="patch_6">
    <path clip-path="url(#p26a2f7f0fd)" d="M 136.827515 211.150041 
C 137.46101 211.150041 138.068644 210.796217 138.516592 210.166496 
C 138.964541 209.536775 139.216231 208.682569 139.216231 207.792009 
C 139.216231 206.901449 138.964541 206.047243 138.516592 205.417522 
C 138.068644 204.787801 137.46101 204.433977 136.827515 204.433977 
C 136.19402 204.433977 135.586386 204.787801 135.138438 205.417522 
C 134.690489 206.047243 134.438799 206.901449 134.438799 207.792009 
C 134.438799 208.682569 134.690489 209.536775 135.138438 210.166496 
C 135.586386 210.796217 136.19402 211.150041 136.827515 211.150041 
z
" style="fill:#0000ff;opacity:0.2;stroke:#0000ff;stroke-linejoin:miter;stroke-width:2;"/>
   </g>
   <g id="patch_7">
    <path clip-path="url(#p26a2f7f0fd)" d="M 78.303979 128.878265 
C 78.937474 128.878265 79.545107 128.524441 79.993056 127.89472 
C 80.441004 127.264999 80.692695 126.410794 80.692695 125.520233 
C 80.692695 124.629673 80.441004 123.775467 79.993056 123.145746 
C 79.545107 122.516025 78.937474 122.162201 78.303979 122.162201 
C 77.670484 122.162201 77.06285 122.516025 76.614902 123.145746 
C 76.166953 123.775467 75.915263 124.629673 75.915263 125.520233 
C 75.915263 126.410794 76.166953 127.264999 76.614902 127.89472 
C 77.06285 128.524441 77.670484 128.878265 78.303979 128.878265 
z
" style="fill:#0000ff;opacity:0.2;stroke:#0000ff;stroke-linejoin:miter;stroke-width:2;"/>
   </g>
   <g id="patch_8">
    <path clip-path="url(#p26a2f7f0fd)" d="M 136.827515 41.569441 
C 137.46101 41.569441 138.068644 41.215618 138.516592 40.585897 
C 138.964541 39.956175 139.216231 39.10197 139.216231 38.21141 
C 139.216231 37.320849 138.964541 36.466644 138.516592 35.836923 
C 138.068644 35.207201 137.46101 34.853378 136.827515 34.853378 
C 136.19402 34.853378 135.586386 35.207201 135.138438 35.836923 
C 134.690489 36.466644 134.438799 37.320849 134.438799 38.21141 
C 134.438799 39.10197 134.690489 39.956175 135.138438 40.585897 
C 135.586386 41.215618 136.19402 41.569441 136.827515 41.569441 
z
" style="fill:#0000ff;opacity:0.2;stroke:#0000ff;stroke-linejoin:miter;stroke-width:2;"/>
   </g>
   <g id="patch_9">
    <path clip-path="url(#p26a2f7f0fd)" d="M 196.545409 122.162201 
C 197.178904 122.162201 197.786538 121.808378 198.234486 121.178657 
C 198.682435 120.548935 198.934125 119.69473 198.934125 118.80417 
C 198.934125 117.913609 198.682435 117.059404 198.234486 116.429683 
C 197.786538 115.799962 197.178904 115.446138 196.545409 115.446138 
C 195.911914 115.446138 195.30428 115.799962 194.856332 116.429683 
C 194.408383 117.059404 194.156693 117.913609 194.156693 118.80417 
C 194.156693 119.69473 194.408383 120.548935 194.856332 121.178657 
C 195.30428 121.808378 195.911914 122.162201 196.545409 122.162201 
z
" style="fill:#0000ff;opacity:0.2;stroke:#0000ff;stroke-linejoin:miter;stroke-width:2;"/>
   </g>
   <g id="patch_10">
    <path clip-path="url(#p26a2f7f0fd)" d="M 138.619052 273.273627 
C 96.816526 273.273627 64.568863 239.69331 63.374505 174.211692 
C 63.374505 112.088106 95.622168 66.754679 138.619052 66.754679 
C 180.421578 66.754679 211.474883 113.767122 211.474883 165.816613 
C 211.474883 231.298231 180.421578 273.273627 138.619052 273.273627 
" style="fill:none;stroke:#ff0000;stroke-linejoin:miter;stroke-width:0.5;"/>
   </g>
   <g id="patch_11">
    <path clip-path="url(#p26a2f7f0fd)" d="M 136.827515 207.792009 
C 103.385494 207.792009 79.498337 177.569724 78.303979 125.520233 
C 77.109621 76.828774 102.191136 38.21141 136.827515 38.21141 
C 171.463894 38.21141 196.545409 78.50779 196.545409 118.80417 
C 196.545409 170.853661 171.463894 207.792009 136.827515 207.792009 
" style="fill:none;stroke:#0000ff;stroke-linejoin:miter;stroke-width:0.5;"/>
   </g>
   <g id="[&quot;g_s&quot;:1,&quot;g_t&quot;:1,&quot;coords&quot;:[[151.0, -213.0],[149.5, -174.0]],&quot;certainty&quot;:11]">
    <path clip-path="url(#p26a2f7f0fd)" d="M 138.619052 283.347722 
C 140.519536 283.347722 142.342438 282.286251 143.686283 280.397087 
C 145.030129 278.507923 145.785199 275.945308 145.785199 273.273627 
C 145.785199 270.601945 145.030129 268.03933 143.686283 266.150166 
C 142.342438 264.261002 140.519536 263.199531 138.619052 263.199531 
C 136.718567 263.199531 134.895666 264.261002 133.55182 266.150166 
C 132.207975 268.03933 131.452905 270.601945 131.452905 273.273627 
C 131.452905 275.945308 132.207975 278.507923 133.55182 280.397087 
C 134.895666 282.286251 136.718567 283.347722 138.619052 283.347722 
z
" style="fill:#0000ff;opacity:0.2;stroke:#0000ff;stroke-linejoin:miter;stroke-width:2;"/>
   </g>
   <g id="[&quot;g_s&quot;:1,&quot;g_t&quot;:1,&quot;coords&quot;:[[149.5, -174.0],[151.0, -213.0]],&quot;certainty&quot;:11]">
    <path clip-path="url(#p26a2f7f0fd)" d="M 136.827515 217.866104 
C 138.727999 217.866104 140.550901 216.804634 141.894746 214.91547 
C 143.238592 213.026306 143.993662 210.46369 143.993662 207.792009 
C 143.993662 205.120328 143.238592 202.557712 141.894746 200.668548 
C 140.550901 198.779384 138.727999 197.717914 136.827515 197.717914 
C 134.92703 197.717914 133.104129 198.779384 131.760284 200.668548 
C 130.416438 202.557712 129.661368 205.120328 129.661368 207.792009 
C 129.661368 210.46369 130.416438 213.026306 131.760284 214.91547 
C 133.104129 216.804634 134.92703 217.866104 136.827515 217.866104 
z
" style="fill:#ff0000;opacity:0.2;stroke:#ff0000;stroke-linejoin:miter;stroke-width:2;"/>
   </g>
   <g id="patch_12">
    <path d="M 138.619052 273.273627 
Q 137.750675 241.533986 136.940314 211.914873 
" style="fill:none;opacity:0.5;stroke:#0000ff;stroke-linecap:round;stroke-width:3;"/>
    <path d="M 135.481899 213.455336 
L 136.940314 211.914873 
L 138.480777 213.373288 
" style="fill:none;opacity:0.5;stroke:#0000ff;stroke-linecap:round;stroke-width:3;"/>
   </g>
   <g id="[&quot;g_s&quot;:2,&quot;g_t&quot;:2,&quot;coords&quot;:[[88.0, -154.0],[100.5, -125.0]],&quot;certainty&quot;:10]">
    <path clip-path="url(#p26a2f7f0fd)" d="M 63.374505 183.446279 
C 65.116616 183.446279 66.787609 182.473265 68.019467 180.741531 
C 69.251326 179.009798 69.943474 176.660733 69.943474 174.211692 
C 69.943474 171.762651 69.251326 169.413587 68.019467 167.681853 
C 66.787609 165.95012 65.116616 164.977105 63.374505 164.977105 
C 61.632394 164.977105 59.961402 165.95012 58.729543 167.681853 
C 57.497685 169.413587 56.805537 171.762651 56.805537 174.211692 
C 56.805537 176.660733 57.497685 179.009798 58.729543 180.741531 
C 59.961402 182.473265 61.632394 183.446279 63.374505 183.446279 
z
" style="fill:#0000ff;opacity:0.2;stroke:#0000ff;stroke-linejoin:miter;stroke-width:2;"/>
   </g>
   <g id="[&quot;g_s&quot;:2,&quot;g_t&quot;:2,&quot;coords&quot;:[[100.5, -125.0],[88.0, -154.0]],&quot;certainty&quot;:10]">
    <path clip-path="url(#p26a2f7f0fd)" d="M 78.303979 134.75482 
C 80.04609 134.75482 81.717082 133.781806 82.948941 132.050072 
C 84.180799 130.318339 84.872947 127.969274 84.872947 125.520233 
C 84.872947 123.071192 84.180799 120.722128 82.948941 118.990394 
C 81.717082 117.25866 80.04609 116.285646 78.303979 116.285646 
C 76.561868 116.285646 74.890875 117.25866 73.659017 118.990394 
C 72.427158 120.722128 71.73501 123.071192 71.73501 125.520233 
C 71.73501 127.969274 72.427158 130.318339 73.659017 132.050072 
C 74.890875 133.781806 76.561868 134.75482 78.303979 134.75482 
z
" style="fill:#ff0000;opacity:0.2;stroke:#ff0000;stroke-linejoin:miter;stroke-width:2;"/>
   </g>
   <g id="patch_13">
    <path d="M 63.374505 174.211692 
Q 70.546284 150.821426 77.148032 129.290276 
" style="fill:none;opacity:0.5;stroke:#0000ff;stroke-linecap:round;stroke-width:2.75;"/>
    <path d="M 75.274213 130.284663 
L 77.148032 129.290276 
L 78.142419 131.164094 
" style="fill:none;opacity:0.5;stroke:#0000ff;stroke-linecap:round;stroke-width:2.75;"/>
   </g>
   <g id="[&quot;g_s&quot;:3,&quot;g_t&quot;:3,&quot;coords&quot;:[[151.0, -90.0],[149.5, -73.0]],&quot;certainty&quot;:12]">
    <path clip-path="url(#p26a2f7f0fd)" d="M 138.619052 77.668282 
C 140.67791 77.668282 142.65272 76.518356 144.108552 74.471762 
C 145.564385 72.425167 146.382378 69.649 146.382378 66.754679 
C 146.382378 63.860358 145.564385 61.084191 144.108552 59.037596 
C 142.65272 56.991002 140.67791 55.841076 138.619052 55.841076 
C 136.560194 55.841076 134.585384 56.991002 133.129551 59.037596 
C 131.673719 61.084191 130.855726 63.860358 130.855726 66.754679 
C 130.855726 69.649 131.673719 72.425167 133.129551 74.471762 
C 134.585384 76.518356 136.560194 77.668282 138.619052 77.668282 
z
" style="fill:#0000ff;opacity:0.2;stroke:#0000ff;stroke-linejoin:miter;stroke-width:2;"/>
   </g>
   <g id="[&quot;g_s&quot;:3,&quot;g_t&quot;:3,&quot;coords&quot;:[[149.5, -73.0],[151.0, -90.0]],&quot;certainty&quot;:12]">
    <path clip-path="url(#p26a2f7f0fd)" d="M 136.827515 49.125013 
C 138.886373 49.125013 140.861183 47.975087 142.317016 45.928492 
C 143.772848 43.881898 144.590841 41.105731 144.590841 38.21141 
C 144.590841 35.317088 143.772848 32.540921 142.317016 30.494327 
C 140.861183 28.447733 138.886373 27.297807 136.827515 27.297807 
C 134.768657 27.297807 132.793847 28.447733 131.338014 30.494327 
C 129.882182 32.540921 129.064189 35.317088 129.064189 38.21141 
C 129.064189 41.105731 129.882182 43.881898 131.338014 45.928492 
C 132.793847 47.975087 134.768657 49.125013 136.827515 49.125013 
z
" style="fill:#ff0000;opacity:0.2;stroke:#ff0000;stroke-linejoin:miter;stroke-width:2;"/>
   </g>
   <g id="patch_14">
    <path d="M 138.619052 66.754679 
Q 137.785939 53.481292 137.096785 42.501489 
" style="fill:none;opacity:0.5;stroke:#0000ff;stroke-linecap:round;stroke-width:3.25;"/>
    <path d="M 135.693694 44.092507 
L 137.096785 42.501489 
L 138.687802 43.90458 
" style="fill:none;opacity:0.5;stroke:#0000ff;stroke-linecap:round;stroke-width:3.25;"/>
   </g>
   <g id="[&quot;g_s&quot;:4,&quot;g_t&quot;:4,&quot;coords&quot;:[[212.0, -149.0],[199.5, -121.0]],&quot;certainty&quot;:11]">
    <path clip-path="url(#p26a2f7f0fd)" d="M 211.474883 175.890708 
C 213.375367 175.890708 215.198268 174.829238 216.542114 172.940074 
C 217.885959 171.05091 218.64103 168.488294 218.64103 165.816613 
C 218.64103 163.144932 217.885959 160.582316 216.542114 158.693152 
C 215.198268 156.803988 213.375367 155.742518 211.474883 155.742518 
C 209.574398 155.742518 207.751497 156.803988 206.407651 158.693152 
C 205.063806 160.582316 204.308735 163.144932 204.308735 165.816613 
C 204.308735 168.488294 205.063806 171.05091 206.407651 172.940074 
C 207.751497 174.829238 209.574398 175.890708 211.474883 175.890708 
z
" style="fill:#0000ff;opacity:0.2;stroke:#0000ff;stroke-linejoin:miter;stroke-width:2;"/>
   </g>
   <g id="[&quot;g_s&quot;:4,&quot;g_t&quot;:4,&quot;coords&quot;:[[199.5, -121.0],[212.0, -149.0]],&quot;certainty&quot;:11]">
    <path clip-path="url(#p26a2f7f0fd)" d="M 196.545409 128.878265 
C 198.445894 128.878265 200.268795 127.816795 201.61264 125.927631 
C 202.956486 124.038467 203.711556 121.475851 203.711556 118.80417 
C 203.711556 116.132489 202.956486 113.569873 201.61264 111.680709 
C 200.268795 109.791545 198.445894 108.730075 196.545409 108.730075 
C 194.644925 108.730075 192.822023 109.791545 191.478178 111.680709 
C 190.134332 113.569873 189.379262 116.132489 189.379262 118.80417 
C 189.379262 121.475851 190.134332 124.038467 191.478178 125.927631 
C 192.822023 127.816795 194.644925 128.878265 196.545409 128.878265 
z
" style="fill:#ff0000;opacity:0.2;stroke:#ff0000;stroke-linejoin:miter;stroke-width:2;"/>
   </g>
   <g id="patch_15">
    <path d="M 211.474883 165.816613 
Q 204.313127 143.264471 197.79343 122.73415 
" style="fill:none;opacity:0.5;stroke:#0000ff;stroke-linecap:round;stroke-width:3;"/>
    <path d="M 196.817791 124.617797 
L 197.79343 122.73415 
L 199.677078 123.70979 
" style="fill:none;opacity:0.5;stroke:#0000ff;stroke-linecap:round;stroke-width:3;"/>
   </g>
   <g id="[&quot;g_s&quot;:1,&quot;g_t&quot;:1,&quot;coords&quot;:[[149.5, -174.0],[151.0, -213.0]],&quot;certainty&quot;:10]">
    <path clip-path="url(#p26a2f7f0fd)" d="M 136.827515 217.026596 
C 138.569626 217.026596 140.240619 216.053582 141.472477 214.321848 
C 142.704335 212.590115 143.396483 210.24105 143.396483 207.792009 
C 143.396483 205.342968 142.704335 202.993903 141.472477 201.26217 
C 140.240619 199.530436 138.569626 198.557422 136.827515 198.557422 
C 135.085404 198.557422 133.414411 199.530436 132.182553 201.26217 
C 130.950695 202.993903 130.258547 205.342968 130.258547 207.792009 
C 130.258547 210.24105 130.950695 212.590115 132.182553 214.321848 
C 133.414411 216.053582 135.085404 217.026596 136.827515 217.026596 
z
" style="fill:#0000ff;opacity:0.2;stroke:#0000ff;stroke-linejoin:miter;stroke-width:2;"/>
   </g>
   <g id="[&quot;g_s&quot;:1,&quot;g_t&quot;:1,&quot;coords&quot;:[[151.0, -213.0],[149.5, -174.0]],&quot;certainty&quot;:10]">
    <path clip-path="url(#p26a2f7f0fd)" d="M 138.619052 282.508214 
C 140.361163 282.508214 142.032156 281.535199 143.264014 279.803466 
C 144.495872 278.071732 145.18802 275.722668 145.18802 273.273627 
C 145.18802 270.824585 144.495872 268.475521 143.264014 266.743787 
C 142.032156 265.012054 140.361163 264.039039 138.619052 264.039039 
C 136.876941 264.039039 135.205948 265.012054 133.97409 266.743787 
C 132.742231 268.475521 132.050083 270.824585 132.050083 273.273627 
C 132.050083 275.722668 132.742231 278.071732 133.97409 279.803466 
C 135.205948 281.535199 136.876941 282.508214 138.619052 282.508214 
z
" style="fill:#ff0000;opacity:0.2;stroke:#ff0000;stroke-linejoin:miter;stroke-width:2;"/>
   </g>
   <g id="patch_16">
    <path d="M 136.827515 207.792009 
Q 137.695892 239.531649 138.511087 269.327473 
" style="fill:none;opacity:0.5;stroke:#ff0000;stroke-linecap:round;stroke-width:2.75;"/>
    <path d="M 139.969503 267.787011 
L 138.511087 269.327473 
L 136.970625 267.869058 
" style="fill:none;opacity:0.5;stroke:#ff0000;stroke-linecap:round;stroke-width:2.75;"/>
   </g>
   <g id="[&quot;g_s&quot;:2,&quot;g_t&quot;:2,&quot;coords&quot;:[[100.5, -125.0],[88.0, -154.0]],&quot;certainty&quot;:11]">
    <path clip-path="url(#p26a2f7f0fd)" d="M 78.303979 135.594328 
C 80.204463 135.594328 82.027365 134.532858 83.37121 132.643694 
C 84.715056 130.75453 85.470126 128.191914 85.470126 125.520233 
C 85.470126 122.848552 84.715056 120.285936 83.37121 118.396772 
C 82.027365 116.507608 80.204463 115.446138 78.303979 115.446138 
C 76.403494 115.446138 74.580593 116.507608 73.236747 118.396772 
C 71.892902 120.285936 71.137831 122.848552 71.137831 125.520233 
C 71.137831 128.191914 71.892902 130.75453 73.236747 132.643694 
C 74.580593 134.532858 76.403494 135.594328 78.303979 135.594328 
z
" style="fill:#0000ff;opacity:0.2;stroke:#0000ff;stroke-linejoin:miter;stroke-width:2;"/>
   </g>
   <g id="[&quot;g_s&quot;:2,&quot;g_t&quot;:2,&quot;coords&quot;:[[88.0, -154.0],[100.5, -125.0]],&quot;certainty&quot;:11]">
    <path clip-path="url(#p26a2f7f0fd)" d="M 63.374505 184.285787 
C 65.27499 184.285787 67.097891 183.224317 68.441737 181.335153 
C 69.785582 179.445989 70.540653 176.883374 70.540653 174.211692 
C 70.540653 171.540011 69.785582 168.977395 68.441737 167.088231 
C 67.097891 165.199067 65.27499 164.137597 63.374505 164.137597 
C 61.474021 164.137597 59.651119 165.199067 58.307274 167.088231 
C 56.963428 168.977395 56.208358 171.540011 56.208358 174.211692 
C 56.208358 176.883374 56.963428 179.445989 58.307274 181.335153 
C 59.651119 183.224317 61.474021 184.285787 63.374505 184.285787 
z
" style="fill:#ff0000;opacity:0.2;stroke:#ff0000;stroke-linejoin:miter;stroke-width:2;"/>
   </g>
   <g id="patch_17">
    <path d="M 78.303979 125.520233 
Q 71.1322 148.9105 64.582273 170.272639 
" style="fill:none;opacity:0.5;stroke:#ff0000;stroke-linecap:round;stroke-width:3;"/>
    <path d="M 66.456091 169.278252 
L 64.582273 170.272639 
L 63.587886 168.398821 
" style="fill:none;opacity:0.5;stroke:#ff0000;stroke-linecap:round;stroke-width:3;"/>
   </g>
   <g id="[&quot;g_s&quot;:3,&quot;g_t&quot;:3,&quot;coords&quot;:[[149.5, -73.0],[151.0, -90.0]],&quot;certainty&quot;:11]">
    <path clip-path="url(#p26a2f7f0fd)" d="M 136.827515 48.285505 
C 138.727999 48.285505 140.550901 47.224035 141.894746 45.334871 
C 143.238592 43.445707 143.993662 40.883091 143.993662 38.21141 
C 143.993662 35.539729 143.238592 32.977113 141.894746 31.087949 
C 140.550901 29.198785 138.727999 28.137315 136.827515 28.137315 
C 134.92703 28.137315 133.104129 29.198785 131.760284 31.087949 
C 130.416438 32.977113 129.661368 35.539729 129.661368 38.21141 
C 129.661368 40.883091 130.416438 43.445707 131.760284 45.334871 
C 133.104129 47.224035 134.92703 48.285505 136.827515 48.285505 
z
" style="fill:#0000ff;opacity:0.2;stroke:#0000ff;stroke-linejoin:miter;stroke-width:2;"/>
   </g>
   <g id="[&quot;g_s&quot;:3,&quot;g_t&quot;:3,&quot;coords&quot;:[[151.0, -90.0],[149.5, -73.0]],&quot;certainty&quot;:11]">
    <path clip-path="url(#p26a2f7f0fd)" d="M 138.619052 76.828774 
C 140.519536 76.828774 142.342438 75.767304 143.686283 73.87814 
C 145.030129 71.988976 145.785199 69.42636 145.785199 66.754679 
C 145.785199 64.082998 145.030129 61.520382 143.686283 59.631218 
C 142.342438 57.742054 140.519536 56.680584 138.619052 56.680584 
C 136.718567 56.680584 134.895666 57.742054 133.55182 59.631218 
C 132.207975 61.520382 131.452905 64.082998 131.452905 66.754679 
C 131.452905 69.42636 132.207975 71.988976 133.55182 73.87814 
C 134.895666 75.767304 136.718567 76.828774 138.619052 76.828774 
z
" style="fill:#ff0000;opacity:0.2;stroke:#ff0000;stroke-linejoin:miter;stroke-width:2;"/>
   </g>
   <g id="patch_18">
    <path d="M 136.827515 38.21141 
Q 137.660628 51.484796 138.360856 62.641029 
" style="fill:none;opacity:0.5;stroke:#ff0000;stroke-linecap:round;stroke-width:3;"/>
    <path d="M 139.763946 61.050011 
L 138.360856 62.641029 
L 136.769838 61.237939 
" style="fill:none;opacity:0.5;stroke:#ff0000;stroke-linecap:round;stroke-width:3;"/>
   </g>
   <g id="[&quot;g_s&quot;:4,&quot;g_t&quot;:4,&quot;coords&quot;:[[199.5, -121.0],[212.0, -149.0]],&quot;certainty&quot;:12]">
    <path clip-path="url(#p26a2f7f0fd)" d="M 196.545409 129.717773 
C 198.604267 129.717773 200.579077 128.567847 202.03491 126.521252 
C 203.490742 124.474658 204.308735 121.698491 204.308735 118.80417 
C 204.308735 115.909848 203.490742 113.133681 202.03491 111.087087 
C 200.579077 109.040493 198.604267 107.890567 196.545409 107.890567 
C 194.486551 107.890567 192.511741 109.040493 191.055908 111.087087 
C 189.600076 113.133681 188.782083 115.909848 188.782083 118.80417 
C 188.782083 121.698491 189.600076 124.474658 191.055908 126.521252 
C 192.511741 128.567847 194.486551 129.717773 196.545409 129.717773 
z
" style="fill:#0000ff;opacity:0.2;stroke:#0000ff;stroke-linejoin:miter;stroke-width:2;"/>
   </g>
   <g id="[&quot;g_s&quot;:4,&quot;g_t&quot;:4,&quot;coords&quot;:[[212.0, -149.0],[199.5, -121.0]],&quot;certainty&quot;:12]">
    <path clip-path="url(#p26a2f7f0fd)" d="M 211.474883 176.730216 
C 213.533741 176.730216 215.508551 175.58029 216.964383 173.533696 
C 218.420216 171.487102 219.238209 168.710934 219.238209 165.816613 
C 219.238209 162.922292 218.420216 160.146125 216.964383 158.09953 
C 215.508551 156.052936 213.533741 154.90301 211.474883 154.90301 
C 209.416024 154.90301 207.441215 156.052936 205.985382 158.09953 
C 204.529549 160.146125 203.711556 162.922292 203.711556 165.816613 
C 203.711556 168.710934 204.529549 171.487102 205.985382 173.533696 
C 207.441215 175.58029 209.416024 176.730216 211.474883 176.730216 
z
" style="fill:#ff0000;opacity:0.2;stroke:#ff0000;stroke-linejoin:miter;stroke-width:2;"/>
   </g>
   <g id="patch_19">
    <path d="M 196.545409 118.80417 
Q 203.707164 141.356312 210.173356 161.718148 
" style="fill:none;opacity:0.5;stroke:#ff0000;stroke-linecap:round;stroke-width:3.25;"/>
    <path d="M 211.148996 159.834501 
L 210.173356 161.718148 
L 208.289709 160.742508 
" style="fill:none;opacity:0.5;stroke:#ff0000;stroke-linecap:round;stroke-width:3.25;"/>
   </g>
   <g id="patch_20">
    <path clip-path="url(#p26a2f7f0fd)" d="M 137.723283 248.927897 
C 139.30702 248.927897 140.826105 248.043338 141.945976 246.469035 
C 143.065847 244.894732 143.695073 242.759219 143.695073 240.532818 
C 143.695073 238.306417 143.065847 236.170904 141.945976 234.5966 
C 140.826105 233.022297 139.30702 232.137739 137.723283 232.137739 
C 136.139546 232.137739 134.620462 233.022297 133.500591 234.5966 
C 132.380719 236.170904 131.751494 238.306417 131.751494 240.532818 
C 131.751494 242.759219 132.380719 244.894732 133.500591 246.469035 
C 134.620462 248.043338 136.139546 248.927897 137.723283 248.927897 
z
" style="fill:#008000;opacity:0.2;stroke:#008000;stroke-linejoin:miter;stroke-width:2;"/>
   </g>
   <g id="patch_21">
    <path clip-path="url(#p26a2f7f0fd)" d="M 70.839242 158.261042 
C 72.422979 158.261042 73.942064 157.376483 75.061935 155.80218 
C 76.181806 154.227877 76.811031 152.092364 76.811031 149.865963 
C 76.811031 147.639562 76.181806 145.504049 75.061935 143.929745 
C 73.942064 142.355442 72.422979 141.470884 70.839242 141.470884 
C 69.255505 141.470884 67.73642 142.355442 66.616549 143.929745 
C 65.496678 145.504049 64.867453 147.639562 64.867453 149.865963 
C 64.867453 152.092364 65.496678 154.227877 66.616549 155.80218 
C 67.73642 157.376483 69.255505 158.261042 70.839242 158.261042 
z
" style="fill:#008000;opacity:0.2;stroke:#008000;stroke-linejoin:miter;stroke-width:2;"/>
   </g>
   <g id="patch_22">
    <path clip-path="url(#p26a2f7f0fd)" d="M 137.723283 60.878123 
C 139.30702 60.878123 140.826105 59.993565 141.945976 58.419262 
C 143.065847 56.844958 143.695073 54.709445 143.695073 52.483044 
C 143.695073 50.256643 143.065847 48.12113 141.945976 46.546827 
C 140.826105 44.972524 139.30702 44.087965 137.723283 44.087965 
C 136.139546 44.087965 134.620462 44.972524 133.500591 46.546827 
C 132.380719 48.12113 131.751494 50.256643 131.751494 52.483044 
C 131.751494 54.709445 132.380719 56.844958 133.500591 58.419262 
C 134.620462 59.993565 136.139546 60.878123 137.723283 60.878123 
z
" style="fill:#008000;opacity:0.2;stroke:#008000;stroke-linejoin:miter;stroke-width:2;"/>
   </g>
   <g id="patch_23">
    <path clip-path="url(#p26a2f7f0fd)" d="M 204.010146 150.705471 
C 205.593883 150.705471 207.112967 149.820912 208.232839 148.246609 
C 209.35271 146.672306 209.981935 144.536792 209.981935 142.310391 
C 209.981935 140.08399 209.35271 137.948477 208.232839 136.374174 
C 207.112967 134.799871 205.593883 133.915312 204.010146 133.915312 
C 202.426409 133.915312 200.907324 134.799871 199.787453 136.374174 
C 198.667582 137.948477 198.038356 140.08399 198.038356 142.310391 
C 198.038356 144.536792 198.667582 146.672306 199.787453 148.246609 
C 200.907324 149.820912 202.426409 150.705471 204.010146 150.705471 
z
" style="fill:#008000;opacity:0.2;stroke:#008000;stroke-linejoin:miter;stroke-width:2;"/>
   </g>
   <g id="patch_24">
    <path clip-path="url(#p26a2f7f0fd)" d="M 138.619052 306.853943 
C 144.954 306.853943 151.030338 303.315709 155.509823 297.018496 
C 159.989308 290.721283 162.506209 282.179231 162.506209 273.273627 
C 162.506209 264.368022 159.989308 255.82597 155.509823 249.528757 
C 151.030338 243.231544 144.954 239.69331 138.619052 239.69331 
C 132.284104 239.69331 126.207766 243.231544 121.728281 249.528757 
C 117.248796 255.82597 114.731894 264.368022 114.731894 273.273627 
C 114.731894 282.179231 117.248796 290.721283 121.728281 297.018496 
C 126.207766 303.315709 132.284104 306.853943 138.619052 306.853943 
z
" style="fill:none;opacity:0.2;stroke:#ff0000;stroke-linejoin:miter;stroke-width:2;"/>
   </g>
   <g id="patch_25">
    <path clip-path="url(#p26a2f7f0fd)" d="M 136.827515 241.372326 
C 143.162463 241.372326 149.238801 237.834092 153.718286 231.536879 
C 158.197771 225.239666 160.714673 216.697613 160.714673 207.792009 
C 160.714673 198.886405 158.197771 190.344352 153.718286 184.047139 
C 149.238801 177.749926 143.162463 174.211692 136.827515 174.211692 
C 130.492567 174.211692 124.416229 177.749926 119.936744 184.047139 
C 115.457259 190.344352 112.940357 198.886405 112.940357 207.792009 
C 112.940357 216.697613 115.457259 225.239666 119.936744 231.536879 
C 124.416229 237.834092 130.492567 241.372326 136.827515 241.372326 
z
" style="fill:none;opacity:0.2;stroke:#0000ff;stroke-linejoin:miter;stroke-width:2;"/>
   </g>
   <g id="patch_26">
    <path clip-path="url(#p26a2f7f0fd)" d="M 138.619052 290.063785 
C 141.786526 290.063785 144.824695 288.294668 147.064437 285.146061 
C 149.30418 281.997455 150.562631 277.726429 150.562631 273.273627 
C 150.562631 268.820824 149.30418 264.549798 147.064437 261.401192 
C 144.824695 258.252585 141.786526 256.483468 138.619052 256.483468 
C 135.451578 256.483468 132.413409 258.252585 130.173666 261.401192 
C 127.933924 264.549798 126.675473 268.820824 126.675473 273.273627 
C 126.675473 277.726429 127.933924 281.997455 130.173666 285.146061 
C 132.413409 288.294668 135.451578 290.063785 138.619052 290.063785 
z
" style="fill:none;opacity:0.2;stroke:#008000;stroke-linejoin:miter;stroke-width:2;"/>
   </g>
   <g id="patch_27">
    <path clip-path="url(#p26a2f7f0fd)" d="M 136.827515 224.582167 
C 139.994989 224.582167 143.033158 222.81305 145.272901 219.664444 
C 147.512643 216.515837 148.771094 212.244811 148.771094 207.792009 
C 148.771094 203.339207 147.512643 199.068181 145.272901 195.919574 
C 143.033158 192.770968 139.994989 191.001851 136.827515 191.001851 
C 133.660041 191.001851 130.621872 192.770968 128.382129 195.919574 
C 126.142387 199.068181 124.883936 203.339207 124.883936 207.792009 
C 124.883936 212.244811 126.142387 216.515837 128.382129 219.664444 
C 130.621872 222.81305 133.660041 224.582167 136.827515 224.582167 
z
" style="fill:none;opacity:0.2;stroke:#008000;stroke-linejoin:miter;stroke-width:2;"/>
   </g>
   <g id="patch_28">
    <path d="M 137.723283 240.532818 
Q 104.281263 195.19939 70.839242 149.865963 
" style="fill:none;opacity:0.5;stroke:#008000;stroke-linecap:round;stroke-width:2;"/>
   </g>
   <g id="patch_29">
    <path d="M 138.580374 271.859942 
Q 137.750675 241.533986 136.920975 211.208031 
" style="fill:none;opacity:0.5;stroke:#800080;stroke-linecap:round;stroke-width:2;"/>
    <path d="M 140.038789 270.319479 
L 138.580374 271.859942 
L 137.039912 270.401527 
" style="fill:none;opacity:0.5;stroke:#800080;stroke-linecap:round;stroke-width:2;"/>
    <path d="M 135.46256 212.748493 
L 136.920975 211.208031 
L 138.461438 212.666446 
" style="fill:none;opacity:0.5;stroke:#800080;stroke-linecap:round;stroke-width:2;"/>
   </g>
   <g id="patch_30">
    <path d="M 70.839242 149.865963 
Q 104.281263 101.174504 137.723283 52.483044 
" style="fill:none;opacity:0.5;stroke:#008000;stroke-linecap:round;stroke-width:2;"/>
   </g>
   <g id="patch_31">
    <path d="M 63.789073 172.859607 
Q 70.546284 150.821426 77.303495 128.783244 
" style="fill:none;opacity:0.5;stroke:#800080;stroke-linecap:round;stroke-width:2;"/>
    <path d="M 65.662891 171.865221 
L 63.789073 172.859607 
L 62.794686 170.985789 
" style="fill:none;opacity:0.5;stroke:#800080;stroke-linecap:round;stroke-width:2;"/>
    <path d="M 75.429676 129.777631 
L 77.303495 128.783244 
L 78.297882 130.657062 
" style="fill:none;opacity:0.5;stroke:#800080;stroke-linecap:round;stroke-width:2;"/>
   </g>
   <g id="patch_32">
    <path d="M 137.723283 52.483044 
Q 170.866715 97.396718 204.010146 142.310391 
" style="fill:none;opacity:0.5;stroke:#008000;stroke-linecap:round;stroke-width:2;"/>
   </g>
   <g id="patch_33">
    <path d="M 138.530462 65.343243 
Q 137.785939 53.481292 137.041416 41.619342 
" style="fill:none;opacity:0.5;stroke:#800080;stroke-linecap:round;stroke-width:2;"/>
    <path d="M 139.933553 63.752225 
L 138.530462 65.343243 
L 136.939444 63.940152 
" style="fill:none;opacity:0.5;stroke:#800080;stroke-linecap:round;stroke-width:2;"/>
    <path d="M 135.638326 43.210359 
L 137.041416 41.619342 
L 138.632434 43.022432 
" style="fill:none;opacity:0.5;stroke:#800080;stroke-linecap:round;stroke-width:2;"/>
   </g>
   <g id="patch_34">
    <path d="M 204.010146 142.310391 
Q 170.866715 191.421605 137.723283 240.532818 
" style="fill:none;opacity:0.5;stroke:#008000;stroke-linecap:round;stroke-width:2;"/>
   </g>
   <g id="patch_35">
    <path d="M 211.046844 164.468732 
Q 204.313127 143.264471 197.579411 122.060209 
" style="fill:none;opacity:0.5;stroke:#800080;stroke-linecap:round;stroke-width:2;"/>
    <path d="M 212.022484 162.585085 
L 211.046844 164.468732 
L 209.163196 163.493093 
" style="fill:none;opacity:0.5;stroke:#800080;stroke-linecap:round;stroke-width:2;"/>
    <path d="M 196.603771 123.943857 
L 197.579411 122.060209 
L 199.463058 123.035849 
" style="fill:none;opacity:0.5;stroke:#800080;stroke-linecap:round;stroke-width:2;"/>
   </g>
   <g id="patch_36">
    <path clip-path="url(#p26a2f7f0fd)" d="M 353.60347 276.631658 
C 354.236965 276.631658 354.844599 276.277835 355.292548 275.648113 
C 355.740496 275.018392 355.992186 274.164187 355.992186 273.273627 
C 355.992186 272.383066 355.740496 271.528861 355.292548 270.89914 
C 354.844599 270.269418 354.236965 269.915595 353.60347 269.915595 
C 352.969976 269.915595 352.362342 270.269418 351.914393 270.89914 
C 351.466445 271.528861 351.214755 272.383066 351.214755 273.273627 
C 351.214755 274.164187 351.466445 275.018392 351.914393 275.648113 
C 352.362342 276.277835 352.969976 276.631658 353.60347 276.631658 
z
" style="fill:#ff0000;opacity:0.2;stroke:#ff0000;stroke-linejoin:miter;stroke-width:2;"/>
   </g>
   <g id="patch_37">
    <path clip-path="url(#p26a2f7f0fd)" d="M 278.358924 177.569724 
C 278.992419 177.569724 279.600053 177.215901 280.048001 176.586179 
C 280.49595 175.956458 280.74764 175.102253 280.74764 174.211692 
C 280.74764 173.321132 280.49595 172.466927 280.048001 171.837205 
C 279.600053 171.207484 278.992419 170.853661 278.358924 170.853661 
C 277.725429 170.853661 277.117795 171.207484 276.669847 171.837205 
C 276.221898 172.466927 275.970208 173.321132 275.970208 174.211692 
C 275.970208 175.102253 276.221898 175.956458 276.669847 176.586179 
C 277.117795 177.215901 277.725429 177.569724 278.358924 177.569724 
z
" style="fill:#ff0000;opacity:0.2;stroke:#ff0000;stroke-linejoin:miter;stroke-width:2;"/>
   </g>
   <g id="patch_38">
    <path clip-path="url(#p26a2f7f0fd)" d="M 353.60347 70.112711 
C 354.236965 70.112711 354.844599 69.758887 355.292548 69.129166 
C 355.740496 68.499445 355.992186 67.645239 355.992186 66.754679 
C 355.992186 65.864119 355.740496 65.009913 355.292548 64.380192 
C 354.844599 63.750471 354.236965 63.396647 353.60347 63.396647 
C 352.969976 63.396647 352.362342 63.750471 351.914393 64.380192 
C 351.466445 65.009913 351.214755 65.864119 351.214755 66.754679 
C 351.214755 67.645239 351.466445 68.499445 351.914393 69.129166 
C 352.362342 69.758887 352.969976 70.112711 353.60347 70.112711 
z
" style="fill:#ff0000;opacity:0.2;stroke:#ff0000;stroke-linejoin:miter;stroke-width:2;"/>
   </g>
   <g id="patch_39">
    <path clip-path="url(#p26a2f7f0fd)" d="M 426.459301 169.174645 
C 427.092796 169.174645 427.70043 168.820821 428.148378 168.1911 
C 428.596327 167.561379 428.848017 166.707174 428.848017 165.816613 
C 428.848017 164.926053 428.596327 164.071847 428.148378 163.442126 
C 427.70043 162.812405 427.092796 162.458581 426.459301 162.458581 
C 425.825806 162.458581 425.218173 162.812405 424.770224 163.442126 
C 424.322276 164.071847 424.070586 164.926053 424.070586 165.816613 
C 424.070586 166.707174 424.322276 167.561379 424.770224 168.1911 
C 425.218173 168.820821 425.825806 169.174645 426.459301 169.174645 
z
" style="fill:#ff0000;opacity:0.2;stroke:#ff0000;stroke-linejoin:miter;stroke-width:2;"/>
   </g>
   <g id="patch_40">
    <path clip-path="url(#p26a2f7f0fd)" d="M 354.200649 211.150041 
C 354.834144 211.150041 355.441778 210.796217 355.889727 210.166496 
C 356.337675 209.536775 356.589365 208.682569 356.589365 207.792009 
C 356.589365 206.901449 356.337675 206.047243 355.889727 205.417522 
C 355.441778 204.787801 354.834144 204.433977 354.200649 204.433977 
C 353.567155 204.433977 352.959521 204.787801 352.511572 205.417522 
C 352.063624 206.047243 351.811934 206.901449 351.811934 207.792009 
C 351.811934 208.682569 352.063624 209.536775 352.511572 210.166496 
C 352.959521 210.796217 353.567155 211.150041 354.200649 211.150041 
z
" style="fill:#0000ff;opacity:0.2;stroke:#0000ff;stroke-linejoin:miter;stroke-width:2;"/>
   </g>
   <g id="patch_41">
    <path clip-path="url(#p26a2f7f0fd)" d="M 293.288397 127.199249 
C 293.921892 127.199249 294.529526 126.845426 294.977475 126.215704 
C 295.425423 125.585983 295.677113 124.731778 295.677113 123.841217 
C 295.677113 122.950657 295.425423 122.096452 294.977475 121.46673 
C 294.529526 120.837009 293.921892 120.483186 293.288397 120.483186 
C 292.654903 120.483186 292.047269 120.837009 291.59932 121.46673 
C 291.151372 122.096452 290.899682 122.950657 290.899682 123.841217 
C 290.899682 124.731778 291.151372 125.585983 291.59932 126.215704 
C 292.047269 126.845426 292.654903 127.199249 293.288397 127.199249 
z
" style="fill:#0000ff;opacity:0.2;stroke:#0000ff;stroke-linejoin:miter;stroke-width:2;"/>
   </g>
   <g id="patch_42">
    <path clip-path="url(#p26a2f7f0fd)" d="M 354.200649 41.569441 
C 354.834144 41.569441 355.441778 41.215618 355.889727 40.585897 
C 356.337675 39.956175 356.589365 39.10197 356.589365 38.21141 
C 356.589365 37.320849 356.337675 36.466644 355.889727 35.836923 
C 355.441778 35.207201 354.834144 34.853378 354.200649 34.853378 
C 353.567155 34.853378 352.959521 35.207201 352.511572 35.836923 
C 352.063624 36.466644 351.811934 37.320849 351.811934 38.21141 
C 351.811934 39.10197 352.063624 39.956175 352.511572 40.585897 
C 352.959521 41.215618 353.567155 41.569441 354.200649 41.569441 
z
" style="fill:#0000ff;opacity:0.2;stroke:#0000ff;stroke-linejoin:miter;stroke-width:2;"/>
   </g>
   <g id="patch_43">
    <path clip-path="url(#p26a2f7f0fd)" d="M 411.529828 120.483186 
C 412.163323 120.483186 412.770956 120.129362 413.218905 119.499641 
C 413.666853 118.86992 413.918544 118.015714 413.918544 117.125154 
C 413.918544 116.234594 413.666853 115.380388 413.218905 114.750667 
C 412.770956 114.120946 412.163323 113.767122 411.529828 113.767122 
C 410.896333 113.767122 410.288699 114.120946 409.840751 114.750667 
C 409.392802 115.380388 409.141112 116.234594 409.141112 117.125154 
C 409.141112 118.015714 409.392802 118.86992 409.840751 119.499641 
C 410.288699 120.129362 410.896333 120.483186 411.529828 120.483186 
z
" style="fill:#0000ff;opacity:0.2;stroke:#0000ff;stroke-linejoin:miter;stroke-width:2;"/>
   </g>
   <g id="patch_44">
    <path clip-path="url(#p26a2f7f0fd)" d="M 353.60347 273.273627 
C 311.800945 273.273627 279.553282 239.69331 278.358924 174.211692 
C 278.358924 112.088106 310.606587 66.754679 353.60347 66.754679 
C 395.405996 66.754679 426.459301 113.767122 426.459301 165.816613 
C 426.459301 231.298231 395.405996 273.273627 353.60347 273.273627 
" style="fill:none;stroke:#ff0000;stroke-linejoin:miter;stroke-width:0.5;"/>
   </g>
   <g id="patch_45">
    <path clip-path="url(#p26a2f7f0fd)" d="M 354.200649 207.792009 
C 320.758629 207.792009 294.482755 175.890708 293.288397 123.841217 
C 293.288397 76.828774 319.564271 38.21141 354.200649 38.21141 
C 388.837028 38.21141 411.529828 78.50779 411.529828 117.125154 
C 411.529828 169.174645 388.837028 207.792009 354.200649 207.792009 
" style="fill:none;stroke:#0000ff;stroke-linejoin:miter;stroke-width:0.5;"/>
   </g>
   <g id="[&quot;g_s&quot;:1,&quot;g_t&quot;:1,&quot;coords&quot;:[[331.0, -213.0],[331.5, -174.0]],&quot;certainty&quot;:11]">
    <path clip-path="url(#p26a2f7f0fd)" d="M 353.60347 283.347722 
C 355.503955 283.347722 357.326856 282.286251 358.670702 280.397087 
C 360.014547 278.507923 360.769618 275.945308 360.769618 273.273627 
C 360.769618 270.601945 360.014547 268.03933 358.670702 266.150166 
C 357.326856 264.261002 355.503955 263.199531 353.60347 263.199531 
C 351.702986 263.199531 349.880085 264.261002 348.536239 266.150166 
C 347.192394 268.03933 346.437323 270.601945 346.437323 273.273627 
C 346.437323 275.945308 347.192394 278.507923 348.536239 280.397087 
C 349.880085 282.286251 351.702986 283.347722 353.60347 283.347722 
z
" style="fill:#0000ff;opacity:0.2;stroke:#0000ff;stroke-linejoin:miter;stroke-width:2;"/>
   </g>
   <g id="[&quot;g_s&quot;:1,&quot;g_t&quot;:1,&quot;coords&quot;:[[331.5, -174.0],[331.0, -213.0]],&quot;certainty&quot;:11]">
    <path clip-path="url(#p26a2f7f0fd)" d="M 354.200649 217.866104 
C 356.101134 217.866104 357.924035 216.804634 359.267881 214.91547 
C 360.611726 213.026306 361.366797 210.46369 361.366797 207.792009 
C 361.366797 205.120328 360.611726 202.557712 359.267881 200.668548 
C 357.924035 198.779384 356.101134 197.717914 354.200649 197.717914 
C 352.300165 197.717914 350.477264 198.779384 349.133418 200.668548 
C 347.789573 202.557712 347.034502 205.120328 347.034502 207.792009 
C 347.034502 210.46369 347.789573 213.026306 349.133418 214.91547 
C 350.477264 216.804634 352.300165 217.866104 354.200649 217.866104 
z
" style="fill:#ff0000;opacity:0.2;stroke:#ff0000;stroke-linejoin:miter;stroke-width:2;"/>
   </g>
   <g id="patch_46">
    <path d="M 353.60347 273.273627 
Q 353.89293 241.533986 354.163043 211.915578 
" style="fill:none;opacity:0.5;stroke:#0000ff;stroke-linecap:round;stroke-width:3;"/>
    <path d="M 352.649427 213.401837 
L 354.163043 211.915578 
L 355.649302 213.429195 
" style="fill:none;opacity:0.5;stroke:#0000ff;stroke-linecap:round;stroke-width:3;"/>
   </g>
   <g id="[&quot;g_s&quot;:2,&quot;g_t&quot;:2,&quot;coords&quot;:[[268.0, -154.0],[280.5, -124.0]],&quot;certainty&quot;:10]">
    <path clip-path="url(#p26a2f7f0fd)" d="M 278.358924 183.446279 
C 280.101035 183.446279 281.772028 182.473265 283.003886 180.741531 
C 284.235744 179.009798 284.927892 176.660733 284.927892 174.211692 
C 284.927892 171.762651 284.235744 169.413587 283.003886 167.681853 
C 281.772028 165.95012 280.101035 164.977105 278.358924 164.977105 
C 276.616813 164.977105 274.94582 165.95012 273.713962 167.681853 
C 272.482104 169.413587 271.789956 171.762651 271.789956 174.211692 
C 271.789956 176.660733 272.482104 179.009798 273.713962 180.741531 
C 274.94582 182.473265 276.616813 183.446279 278.358924 183.446279 
z
" style="fill:#0000ff;opacity:0.2;stroke:#0000ff;stroke-linejoin:miter;stroke-width:2;"/>
   </g>
   <g id="[&quot;g_s&quot;:2,&quot;g_t&quot;:2,&quot;coords&quot;:[[280.5, -124.0],[268.0, -154.0]],&quot;certainty&quot;:10]">
    <path clip-path="url(#p26a2f7f0fd)" d="M 293.288397 133.075804 
C 295.030508 133.075804 296.701501 132.10279 297.93336 130.371056 
C 299.165218 128.639323 299.857366 126.290258 299.857366 123.841217 
C 299.857366 121.392176 299.165218 119.043112 297.93336 117.311378 
C 296.701501 115.579645 295.030508 114.60663 293.288397 114.60663 
C 291.546287 114.60663 289.875294 115.579645 288.643435 117.311378 
C 287.411577 119.043112 286.719429 121.392176 286.719429 123.841217 
C 286.719429 126.290258 287.411577 128.639323 288.643435 130.371056 
C 289.875294 132.10279 291.546287 133.075804 293.288397 133.075804 
z
" style="fill:#ff0000;opacity:0.2;stroke:#ff0000;stroke-linejoin:miter;stroke-width:2;"/>
   </g>
   <g id="patch_47">
    <path d="M 278.358924 174.211692 
Q 285.539815 149.984121 292.168117 127.620925 
" style="fill:none;opacity:0.5;stroke:#0000ff;stroke-linecap:round;stroke-width:2.75;"/>
    <path d="M 290.303697 128.632824 
L 292.168117 127.620925 
L 293.180016 129.485345 
" style="fill:none;opacity:0.5;stroke:#0000ff;stroke-linecap:round;stroke-width:2.75;"/>
   </g>
   <g id="[&quot;g_s&quot;:3,&quot;g_t&quot;:3,&quot;coords&quot;:[[331.0, -90.0],[331.5, -73.0]],&quot;certainty&quot;:12]">
    <path clip-path="url(#p26a2f7f0fd)" d="M 353.60347 77.668282 
C 355.662329 77.668282 357.637139 76.518356 359.092971 74.471762 
C 360.548804 72.425167 361.366797 69.649 361.366797 66.754679 
C 361.366797 63.860358 360.548804 61.084191 359.092971 59.037596 
C 357.637139 56.991002 355.662329 55.841076 353.60347 55.841076 
C 351.544612 55.841076 349.569802 56.991002 348.11397 59.037596 
C 346.658137 61.084191 345.840144 63.860358 345.840144 66.754679 
C 345.840144 69.649 346.658137 72.425167 348.11397 74.471762 
C 349.569802 76.518356 351.544612 77.668282 353.60347 77.668282 
z
" style="fill:#0000ff;opacity:0.2;stroke:#0000ff;stroke-linejoin:miter;stroke-width:2;"/>
   </g>
   <g id="[&quot;g_s&quot;:3,&quot;g_t&quot;:3,&quot;coords&quot;:[[331.5, -73.0],[331.0, -90.0]],&quot;certainty&quot;:12]">
    <path clip-path="url(#p26a2f7f0fd)" d="M 354.200649 49.125013 
C 356.259508 49.125013 358.234317 47.975087 359.69015 45.928492 
C 361.145983 43.881898 361.963976 41.105731 361.963976 38.21141 
C 361.963976 35.317088 361.145983 32.540921 359.69015 30.494327 
C 358.234317 28.447733 356.259508 27.297807 354.200649 27.297807 
C 352.141791 27.297807 350.166981 28.447733 348.711149 30.494327 
C 347.255316 32.540921 346.437323 35.317088 346.437323 38.21141 
C 346.437323 41.105731 347.255316 43.881898 348.711149 45.928492 
C 350.166981 47.975087 352.141791 49.125013 354.200649 49.125013 
z
" style="fill:#ff0000;opacity:0.2;stroke:#ff0000;stroke-linejoin:miter;stroke-width:2;"/>
   </g>
   <g id="patch_48">
    <path d="M 353.60347 66.754679 
Q 353.881175 53.481292 354.110809 42.5055 
" style="fill:none;opacity:0.5;stroke:#0000ff;stroke-linecap:round;stroke-width:3.25;"/>
    <path d="M 352.579761 43.973796 
L 354.110809 42.5055 
L 355.579105 44.036548 
" style="fill:none;opacity:0.5;stroke:#0000ff;stroke-linecap:round;stroke-width:3.25;"/>
   </g>
   <g id="[&quot;g_s&quot;:4,&quot;g_t&quot;:4,&quot;coords&quot;:[[392.0, -149.0],[379.5, -120.0]],&quot;certainty&quot;:11]">
    <path clip-path="url(#p26a2f7f0fd)" d="M 426.459301 175.890708 
C 428.359786 175.890708 430.182687 174.829238 431.526533 172.940074 
C 432.870378 171.05091 433.625449 168.488294 433.625449 165.816613 
C 433.625449 163.144932 432.870378 160.582316 431.526533 158.693152 
C 430.182687 156.803988 428.359786 155.742518 426.459301 155.742518 
C 424.558817 155.742518 422.735915 156.803988 421.39207 158.693152 
C 420.048224 160.582316 419.293154 163.144932 419.293154 165.816613 
C 419.293154 168.488294 420.048224 171.05091 421.39207 172.940074 
C 422.735915 174.829238 424.558817 175.890708 426.459301 175.890708 
z
" style="fill:#0000ff;opacity:0.2;stroke:#0000ff;stroke-linejoin:miter;stroke-width:2;"/>
   </g>
   <g id="[&quot;g_s&quot;:4,&quot;g_t&quot;:4,&quot;coords&quot;:[[379.5, -120.0],[392.0, -149.0]],&quot;certainty&quot;:11]">
    <path clip-path="url(#p26a2f7f0fd)" d="M 411.529828 127.199249 
C 413.430312 127.199249 415.253214 126.137779 416.597059 124.248615 
C 417.940905 122.359451 418.695975 119.796835 418.695975 117.125154 
C 418.695975 114.453473 417.940905 111.890857 416.597059 110.001693 
C 415.253214 108.112529 413.430312 107.051059 411.529828 107.051059 
C 409.629343 107.051059 407.806442 108.112529 406.462596 110.001693 
C 405.118751 111.890857 404.36368 114.453473 404.36368 117.125154 
C 404.36368 119.796835 405.118751 122.359451 406.462596 124.248615 
C 407.806442 126.137779 409.629343 127.199249 411.529828 127.199249 
z
" style="fill:#ff0000;opacity:0.2;stroke:#ff0000;stroke-linejoin:miter;stroke-width:2;"/>
   </g>
   <g id="patch_49">
    <path d="M 426.459301 165.816613 
Q 419.287523 142.426346 412.737596 121.064207 
" style="fill:none;opacity:0.5;stroke:#0000ff;stroke-linecap:round;stroke-width:3;"/>
    <path d="M 411.743209 122.938025 
L 412.737596 121.064207 
L 414.611414 122.058594 
" style="fill:none;opacity:0.5;stroke:#0000ff;stroke-linecap:round;stroke-width:3;"/>
   </g>
   <g id="[&quot;g_s&quot;:1,&quot;g_t&quot;:1,&quot;coords&quot;:[[331.5, -174.0],[331.0, -213.0]],&quot;certainty&quot;:10]">
    <path clip-path="url(#p26a2f7f0fd)" d="M 354.200649 217.026596 
C 355.94276 217.026596 357.613753 216.053582 358.845612 214.321848 
C 360.07747 212.590115 360.769618 210.24105 360.769618 207.792009 
C 360.769618 205.342968 360.07747 202.993903 358.845612 201.26217 
C 357.613753 199.530436 355.94276 198.557422 354.200649 198.557422 
C 352.458539 198.557422 350.787546 199.530436 349.555687 201.26217 
C 348.323829 202.993903 347.631681 205.342968 347.631681 207.792009 
C 347.631681 210.24105 348.323829 212.590115 349.555687 214.321848 
C 350.787546 216.053582 352.458539 217.026596 354.200649 217.026596 
z
" style="fill:#0000ff;opacity:0.2;stroke:#0000ff;stroke-linejoin:miter;stroke-width:2;"/>
   </g>
   <g id="[&quot;g_s&quot;:1,&quot;g_t&quot;:1,&quot;coords&quot;:[[331.0, -213.0],[331.5, -174.0]],&quot;certainty&quot;:10]">
    <path clip-path="url(#p26a2f7f0fd)" d="M 353.60347 282.508214 
C 355.345581 282.508214 357.016574 281.535199 358.248433 279.803466 
C 359.480291 278.071732 360.172439 275.722668 360.172439 273.273627 
C 360.172439 270.824585 359.480291 268.475521 358.248433 266.743787 
C 357.016574 265.012054 355.345581 264.039039 353.60347 264.039039 
C 351.86136 264.039039 350.190367 265.012054 348.958508 266.743787 
C 347.72665 268.475521 347.034502 270.824585 347.034502 273.273627 
C 347.034502 275.722668 347.72665 278.071732 348.958508 279.803466 
C 350.190367 281.535199 351.86136 282.508214 353.60347 282.508214 
z
" style="fill:#ff0000;opacity:0.2;stroke:#ff0000;stroke-linejoin:miter;stroke-width:2;"/>
   </g>
   <g id="patch_50">
    <path d="M 354.200649 207.792009 
Q 353.91119 239.531649 353.639465 269.326827 
" style="fill:none;opacity:0.5;stroke:#ff0000;stroke-linecap:round;stroke-width:2.75;"/>
    <path d="M 355.153081 267.840568 
L 353.639465 269.326827 
L 352.153206 267.81321 
" style="fill:none;opacity:0.5;stroke:#ff0000;stroke-linecap:round;stroke-width:2.75;"/>
   </g>
   <g id="[&quot;g_s&quot;:2,&quot;g_t&quot;:2,&quot;coords&quot;:[[280.5, -124.0],[268.0, -154.0]],&quot;certainty&quot;:11]">
    <path clip-path="url(#p26a2f7f0fd)" d="M 293.288397 133.915312 
C 295.188882 133.915312 297.011783 132.853842 298.355629 130.964678 
C 299.699474 129.075514 300.454545 126.512898 300.454545 123.841217 
C 300.454545 121.169536 299.699474 118.60692 298.355629 116.717756 
C 297.011783 114.828592 295.188882 113.767122 293.288397 113.767122 
C 291.387913 113.767122 289.565012 114.828592 288.221166 116.717756 
C 286.877321 118.60692 286.12225 121.169536 286.12225 123.841217 
C 286.12225 126.512898 286.877321 129.075514 288.221166 130.964678 
C 289.565012 132.853842 291.387913 133.915312 293.288397 133.915312 
z
" style="fill:#0000ff;opacity:0.2;stroke:#0000ff;stroke-linejoin:miter;stroke-width:2;"/>
   </g>
   <g id="[&quot;g_s&quot;:2,&quot;g_t&quot;:2,&quot;coords&quot;:[[268.0, -154.0],[280.5, -124.0]],&quot;certainty&quot;:11]">
    <path clip-path="url(#p26a2f7f0fd)" d="M 278.358924 184.285787 
C 280.259408 184.285787 282.08231 183.224317 283.426155 181.335153 
C 284.770001 179.445989 285.525071 176.883374 285.525071 174.211692 
C 285.525071 171.540011 284.770001 168.977395 283.426155 167.088231 
C 282.08231 165.199067 280.259408 164.137597 278.358924 164.137597 
C 276.458439 164.137597 274.635538 165.199067 273.291693 167.088231 
C 271.947847 168.977395 271.192777 171.540011 271.192777 174.211692 
C 271.192777 176.883374 271.947847 179.445989 273.291693 181.335153 
C 274.635538 183.224317 276.458439 184.285787 278.358924 184.285787 
z
" style="fill:#ff0000;opacity:0.2;stroke:#ff0000;stroke-linejoin:miter;stroke-width:2;"/>
   </g>
   <g id="patch_51">
    <path d="M 293.288397 123.841217 
Q 286.107507 148.068789 279.52944 170.262496 
" style="fill:none;opacity:0.5;stroke:#ff0000;stroke-linecap:round;stroke-width:3;"/>
    <path d="M 281.393859 169.250597 
L 279.52944 170.262496 
L 278.517541 168.398076 
" style="fill:none;opacity:0.5;stroke:#ff0000;stroke-linecap:round;stroke-width:3;"/>
   </g>
   <g id="[&quot;g_s&quot;:3,&quot;g_t&quot;:3,&quot;coords&quot;:[[331.5, -73.0],[331.0, -90.0]],&quot;certainty&quot;:11]">
    <path clip-path="url(#p26a2f7f0fd)" d="M 354.200649 48.285505 
C 356.101134 48.285505 357.924035 47.224035 359.267881 45.334871 
C 360.611726 43.445707 361.366797 40.883091 361.366797 38.21141 
C 361.366797 35.539729 360.611726 32.977113 359.267881 31.087949 
C 357.924035 29.198785 356.101134 28.137315 354.200649 28.137315 
C 352.300165 28.137315 350.477264 29.198785 349.133418 31.087949 
C 347.789573 32.977113 347.034502 35.539729 347.034502 38.21141 
C 347.034502 40.883091 347.789573 43.445707 349.133418 45.334871 
C 350.477264 47.224035 352.300165 48.285505 354.200649 48.285505 
z
" style="fill:#0000ff;opacity:0.2;stroke:#0000ff;stroke-linejoin:miter;stroke-width:2;"/>
   </g>
   <g id="[&quot;g_s&quot;:3,&quot;g_t&quot;:3,&quot;coords&quot;:[[331.0, -90.0],[331.5, -73.0]],&quot;certainty&quot;:11]">
    <path clip-path="url(#p26a2f7f0fd)" d="M 353.60347 76.828774 
C 355.503955 76.828774 357.326856 75.767304 358.670702 73.87814 
C 360.014547 71.988976 360.769618 69.42636 360.769618 66.754679 
C 360.769618 64.082998 360.014547 61.520382 358.670702 59.631218 
C 357.326856 57.742054 355.503955 56.680584 353.60347 56.680584 
C 351.702986 56.680584 349.880085 57.742054 348.536239 59.631218 
C 347.192394 61.520382 346.437323 64.082998 346.437323 66.754679 
C 346.437323 69.42636 347.192394 71.988976 348.536239 73.87814 
C 349.880085 75.767304 351.702986 76.828774 353.60347 76.828774 
z
" style="fill:#ff0000;opacity:0.2;stroke:#ff0000;stroke-linejoin:miter;stroke-width:2;"/>
   </g>
   <g id="patch_52">
    <path d="M 354.200649 38.21141 
Q 353.922945 51.484796 353.689613 62.637327 
" style="fill:none;opacity:0.5;stroke:#ff0000;stroke-linecap:round;stroke-width:3;"/>
    <path d="M 355.220661 61.169031 
L 353.689613 62.637327 
L 352.221317 61.106279 
" style="fill:none;opacity:0.5;stroke:#ff0000;stroke-linecap:round;stroke-width:3;"/>
   </g>
   <g id="[&quot;g_s&quot;:4,&quot;g_t&quot;:4,&quot;coords&quot;:[[379.5, -120.0],[392.0, -149.0]],&quot;certainty&quot;:12]">
    <path clip-path="url(#p26a2f7f0fd)" d="M 411.529828 128.038757 
C 413.588686 128.038757 415.563496 126.888831 417.019328 124.842237 
C 418.475161 122.795642 419.293154 120.019475 419.293154 117.125154 
C 419.293154 114.230833 418.475161 111.454666 417.019328 109.408071 
C 415.563496 107.361477 413.588686 106.211551 411.529828 106.211551 
C 409.47097 106.211551 407.49616 107.361477 406.040327 109.408071 
C 404.584495 111.454666 403.766502 114.230833 403.766502 117.125154 
C 403.766502 120.019475 404.584495 122.795642 406.040327 124.842237 
C 407.49616 126.888831 409.47097 128.038757 411.529828 128.038757 
z
" style="fill:#0000ff;opacity:0.2;stroke:#0000ff;stroke-linejoin:miter;stroke-width:2;"/>
   </g>
   <g id="[&quot;g_s&quot;:4,&quot;g_t&quot;:4,&quot;coords&quot;:[[392.0, -149.0],[379.5, -120.0]],&quot;certainty&quot;:12]">
    <path clip-path="url(#p26a2f7f0fd)" d="M 426.459301 176.730216 
C 428.518159 176.730216 430.492969 175.58029 431.948802 173.533696 
C 433.404634 171.487102 434.222628 168.710934 434.222628 165.816613 
C 434.222628 162.922292 433.404634 160.146125 431.948802 158.09953 
C 430.492969 156.052936 428.518159 154.90301 426.459301 154.90301 
C 424.400443 154.90301 422.425633 156.052936 420.969801 158.09953 
C 419.513968 160.146125 418.695975 162.922292 418.695975 165.816613 
C 418.695975 168.710934 419.513968 171.487102 420.969801 173.533696 
C 422.425633 175.58029 424.400443 176.730216 426.459301 176.730216 
z
" style="fill:#ff0000;opacity:0.2;stroke:#ff0000;stroke-linejoin:miter;stroke-width:2;"/>
   </g>
   <g id="patch_53">
    <path d="M 411.529828 117.125154 
Q 418.701606 140.515421 425.199712 161.708549 
" style="fill:none;opacity:0.5;stroke:#ff0000;stroke-linecap:round;stroke-width:3.25;"/>
    <path d="M 426.194099 159.834731 
L 425.199712 161.708549 
L 423.325894 160.714163 
" style="fill:none;opacity:0.5;stroke:#ff0000;stroke-linecap:round;stroke-width:3.25;"/>
   </g>
   <g id="patch_54">
    <path clip-path="url(#p26a2f7f0fd)" d="M 353.90206 248.927897 
C 355.485797 248.927897 357.004882 248.043338 358.124753 246.469035 
C 359.244624 244.894732 359.873849 242.759219 359.873849 240.532818 
C 359.873849 238.306417 359.244624 236.170904 358.124753 234.5966 
C 357.004882 233.022297 355.485797 232.137739 353.90206 232.137739 
C 352.318323 232.137739 350.799238 233.022297 349.679367 234.5966 
C 348.559496 236.170904 347.930271 238.306417 347.930271 240.532818 
C 347.930271 242.759219 348.559496 244.894732 349.679367 246.469035 
C 350.799238 248.043338 352.318323 248.927897 353.90206 248.927897 
z
" style="fill:#008000;opacity:0.2;stroke:#008000;stroke-linejoin:miter;stroke-width:2;"/>
   </g>
   <g id="patch_55">
    <path clip-path="url(#p26a2f7f0fd)" d="M 285.823661 157.421534 
C 287.407398 157.421534 288.926482 156.536975 290.046353 154.962672 
C 291.166225 153.388369 291.79545 151.252856 291.79545 149.026455 
C 291.79545 146.800054 291.166225 144.664541 290.046353 143.090237 
C 288.926482 141.515934 287.407398 140.631376 285.823661 140.631376 
C 284.239924 140.631376 282.720839 141.515934 281.600968 143.090237 
C 280.481097 144.664541 279.851871 146.800054 279.851871 149.026455 
C 279.851871 151.252856 280.481097 153.388369 281.600968 154.962672 
C 282.720839 156.536975 284.239924 157.421534 285.823661 157.421534 
z
" style="fill:#008000;opacity:0.2;stroke:#008000;stroke-linejoin:miter;stroke-width:2;"/>
   </g>
   <g id="patch_56">
    <path clip-path="url(#p26a2f7f0fd)" d="M 353.90206 60.878123 
C 355.485797 60.878123 357.004882 59.993565 358.124753 58.419262 
C 359.244624 56.844958 359.873849 54.709445 359.873849 52.483044 
C 359.873849 50.256643 359.244624 48.12113 358.124753 46.546827 
C 357.004882 44.972524 355.485797 44.087965 353.90206 44.087965 
C 352.318323 44.087965 350.799238 44.972524 349.679367 46.546827 
C 348.559496 48.12113 347.930271 50.256643 347.930271 52.483044 
C 347.930271 54.709445 348.559496 56.844958 349.679367 58.419262 
C 350.799238 59.993565 352.318323 60.878123 353.90206 60.878123 
z
" style="fill:#008000;opacity:0.2;stroke:#008000;stroke-linejoin:miter;stroke-width:2;"/>
   </g>
   <g id="patch_57">
    <path clip-path="url(#p26a2f7f0fd)" d="M 418.994565 149.865963 
C 420.578302 149.865963 422.097386 148.981404 423.217257 147.407101 
C 424.337129 145.832798 424.966354 143.697285 424.966354 141.470884 
C 424.966354 139.244483 424.337129 137.108969 423.217257 135.534666 
C 422.097386 133.960363 420.578302 133.075804 418.994565 133.075804 
C 417.410827 133.075804 415.891743 133.960363 414.771872 135.534666 
C 413.652001 137.108969 413.022775 139.244483 413.022775 141.470884 
C 413.022775 143.697285 413.652001 145.832798 414.771872 147.407101 
C 415.891743 148.981404 417.410827 149.865963 418.994565 149.865963 
z
" style="fill:#008000;opacity:0.2;stroke:#008000;stroke-linejoin:miter;stroke-width:2;"/>
   </g>
   <g id="patch_58">
    <path clip-path="url(#p26a2f7f0fd)" d="M 353.60347 306.853943 
C 359.938419 306.853943 366.014757 303.315709 370.494242 297.018496 
C 374.973727 290.721283 377.490628 282.179231 377.490628 273.273627 
C 377.490628 264.368022 374.973727 255.82597 370.494242 249.528757 
C 366.014757 243.231544 359.938419 239.69331 353.60347 239.69331 
C 347.268522 239.69331 341.192184 243.231544 336.712699 249.528757 
C 332.233214 255.82597 329.716313 264.368022 329.716313 273.273627 
C 329.716313 282.179231 332.233214 290.721283 336.712699 297.018496 
C 341.192184 303.315709 347.268522 306.853943 353.60347 306.853943 
z
" style="fill:none;opacity:0.2;stroke:#ff0000;stroke-linejoin:miter;stroke-width:2;"/>
   </g>
   <g id="patch_59">
    <path clip-path="url(#p26a2f7f0fd)" d="M 354.200649 241.372326 
C 360.535598 241.372326 366.611936 237.834092 371.091421 231.536879 
C 375.570905 225.239666 378.087807 216.697613 378.087807 207.792009 
C 378.087807 198.886405 375.570905 190.344352 371.091421 184.047139 
C 366.611936 177.749926 360.535598 174.211692 354.200649 174.211692 
C 347.865701 174.211692 341.789363 177.749926 337.309878 184.047139 
C 332.830393 190.344352 330.313492 198.886405 330.313492 207.792009 
C 330.313492 216.697613 332.830393 225.239666 337.309878 231.536879 
C 341.789363 237.834092 347.865701 241.372326 354.200649 241.372326 
z
" style="fill:none;opacity:0.2;stroke:#0000ff;stroke-linejoin:miter;stroke-width:2;"/>
   </g>
   <g id="patch_60">
    <path clip-path="url(#p26a2f7f0fd)" d="M 353.60347 290.063785 
C 356.770945 290.063785 359.809114 288.294668 362.048856 285.146061 
C 364.288599 281.997455 365.547049 277.726429 365.547049 273.273627 
C 365.547049 268.820824 364.288599 264.549798 362.048856 261.401192 
C 359.809114 258.252585 356.770945 256.483468 353.60347 256.483468 
C 350.435996 256.483468 347.397827 258.252585 345.158085 261.401192 
C 342.918342 264.549798 341.659892 268.820824 341.659892 273.273627 
C 341.659892 277.726429 342.918342 281.997455 345.158085 285.146061 
C 347.397827 288.294668 350.435996 290.063785 353.60347 290.063785 
z
" style="fill:none;opacity:0.2;stroke:#008000;stroke-linejoin:miter;stroke-width:2;"/>
   </g>
   <g id="patch_61">
    <path clip-path="url(#p26a2f7f0fd)" d="M 354.200649 224.582167 
C 357.368124 224.582167 360.406293 222.81305 362.646035 219.664444 
C 364.885777 216.515837 366.144228 212.244811 366.144228 207.792009 
C 366.144228 203.339207 364.885777 199.068181 362.646035 195.919574 
C 360.406293 192.770968 357.368124 191.001851 354.200649 191.001851 
C 351.033175 191.001851 347.995006 192.770968 345.755264 195.919574 
C 343.515521 199.068181 342.257071 203.339207 342.257071 207.792009 
C 342.257071 212.244811 343.515521 216.515837 345.755264 219.664444 
C 347.995006 222.81305 351.033175 224.582167 354.200649 224.582167 
z
" style="fill:none;opacity:0.2;stroke:#008000;stroke-linejoin:miter;stroke-width:2;"/>
   </g>
   <g id="patch_62">
    <path d="M 353.90206 240.532818 
Q 319.86286 194.779636 285.823661 149.026455 
" style="fill:none;opacity:0.5;stroke:#008000;stroke-linecap:round;stroke-width:2;"/>
   </g>
   <g id="patch_63">
    <path d="M 353.616367 271.859472 
Q 353.89293 241.533986 354.169492 211.208501 
" style="fill:none;opacity:0.5;stroke:#800080;stroke-linecap:round;stroke-width:2;"/>
    <path d="M 355.129984 270.373213 
L 353.616367 271.859472 
L 352.130109 270.345855 
" style="fill:none;opacity:0.5;stroke:#800080;stroke-linecap:round;stroke-width:2;"/>
    <path d="M 352.655875 212.694759 
L 354.169492 211.208501 
L 355.65575 212.722118 
" style="fill:none;opacity:0.5;stroke:#800080;stroke-linecap:round;stroke-width:2;"/>
   </g>
   <g id="patch_64">
    <path d="M 285.823661 149.026455 
Q 319.86286 100.75475 353.90206 52.483044 
" style="fill:none;opacity:0.5;stroke:#008000;stroke-linecap:round;stroke-width:2;"/>
   </g>
   <g id="patch_65">
    <path d="M 278.760806 172.855783 
Q 285.539815 149.984121 292.318823 127.112459 
" style="fill:none;opacity:0.5;stroke:#800080;stroke-linecap:round;stroke-width:2;"/>
    <path d="M 280.625226 171.843884 
L 278.760806 172.855783 
L 277.748908 170.991363 
" style="fill:none;opacity:0.5;stroke:#800080;stroke-linecap:round;stroke-width:2;"/>
    <path d="M 290.454403 128.124357 
L 292.318823 127.112459 
L 293.330722 128.976879 
" style="fill:none;opacity:0.5;stroke:#800080;stroke-linecap:round;stroke-width:2;"/>
   </g>
   <g id="patch_66">
    <path d="M 353.90206 52.483044 
Q 386.448312 96.976964 418.994565 141.470884 
" style="fill:none;opacity:0.5;stroke:#008000;stroke-linecap:round;stroke-width:2;"/>
   </g>
   <g id="patch_67">
    <path d="M 353.633052 65.340775 
Q 353.881175 53.481292 354.129297 41.62181 
" style="fill:none;opacity:0.5;stroke:#800080;stroke-linecap:round;stroke-width:2;"/>
    <path d="M 355.1641 63.872479 
L 353.633052 65.340775 
L 352.164756 63.809727 
" style="fill:none;opacity:0.5;stroke:#800080;stroke-linecap:round;stroke-width:2;"/>
    <path d="M 352.59825 43.090105 
L 354.129297 41.62181 
L 355.597593 43.152857 
" style="fill:none;opacity:0.5;stroke:#800080;stroke-linecap:round;stroke-width:2;"/>
   </g>
   <g id="patch_68">
    <path d="M 418.994565 141.470884 
Q 386.448312 191.001851 353.90206 240.532818 
" style="fill:none;opacity:0.5;stroke:#008000;stroke-linecap:round;stroke-width:2;"/>
   </g>
   <g id="patch_69">
    <path d="M 426.044733 164.464528 
Q 419.287523 142.426346 412.530312 120.388165 
" style="fill:none;opacity:0.5;stroke:#800080;stroke-linecap:round;stroke-width:2;"/>
    <path d="M 427.03912 162.59071 
L 426.044733 164.464528 
L 424.170915 163.470141 
" style="fill:none;opacity:0.5;stroke:#800080;stroke-linecap:round;stroke-width:2;"/>
    <path d="M 411.535925 122.261983 
L 412.530312 120.388165 
L 414.40413 121.382552 
" style="fill:none;opacity:0.5;stroke:#800080;stroke-linecap:round;stroke-width:2;"/>
   </g>
   <g id="line2d_1">
    <path clip-path="url(#p26a2f7f0fd)" d="M 138.619052 273.273627 
L 63.374505 174.211692 
L 138.619052 66.754679 
L 211.474883 165.816613 
" style="fill:none;stroke:#ff0000;stroke-linecap:square;stroke-width:0.2;"/>
   </g>
   <g id="line2d_2">
    <path clip-path="url(#p26a2f7f0fd)" d="M 136.827515 207.792009 
L 78.303979 125.520233 
L 136.827515 38.21141 
L 196.545409 118.80417 
" style="fill:none;stroke:#0000ff;stroke-linecap:square;stroke-width:0.2;"/>
   </g>
   <g id="line2d_3">
    <path clip-path="url(#p26a2f7f0fd)" d="M 353.60347 273.273627 
L 278.358924 174.211692 
L 353.60347 66.754679 
L 426.459301 165.816613 
" style="fill:none;stroke:#ff0000;stroke-linecap:square;stroke-width:0.2;"/>
   </g>
   <g id="line2d_4">
    <path clip-path="url(#p26a2f7f0fd)" d="M 354.200649 207.792009 
L 293.288397 123.841217 
L 354.200649 38.21141 
L 411.529828 117.125154 
" style="fill:none;stroke:#0000ff;stroke-linecap:square;stroke-width:0.2;"/>
   </g>
  </g>
 </g>
 <defs>
  <clipPath id="p26a2f7f0fd">
   <rect height="307.51175" width="409.903625" x="37.576375" y="13.32"/>
  </clipPath>
 </defs>
</svg>
