<?xml version="1.0" encoding="utf-8" standalone="no"?>
<!DOCTYPE svg PUBLIC "-//W3C//DTD SVG 1.1//EN"
  "http://www.w3.org/Graphics/SVG/1.1/DTD/svg11.dtd">
<!-- Created with matplotlib (http://matplotlib.org/) -->
<svg height="345.6pt" version="1.1" viewBox="0 0 460.8 345.6" width="460.8pt" xmlns="http://www.w3.org/2000/svg" xmlns:xlink="http://www.w3.org/1999/xlink">
 <defs>
  <style type="text/css">
*{stroke-linecap:butt;stroke-linejoin:round;}
  </style>
 </defs>
 <g id="figure_1">
  <g id="patch_1">
   <path d="M 0 345.6 
L 460.8 345.6 
L 460.8 0 
L 0 0 
z
" style="fill:#ffffff;"/>
  </g>
  <g id="axes_1">
   <g id="patch_2">
    <path clip-path="url(#p8060eb8bfd)" d="M 411.414583 186.017763 
C 411.876923 186.017763 412.320389 185.880119 412.647313 185.635145 
C 412.974236 185.390172 413.157926 185.05787 413.157926 184.711426 
C 413.157926 184.364981 412.974236 184.032679 412.647313 183.787706 
C 412.320389 183.542732 411.876923 183.405089 411.414583 183.405089 
C 410.952243 183.405089 410.508777 183.542732 410.181853 183.787706 
C 409.854929 184.032679 409.671239 184.364981 409.671239 184.711426 
C 409.671239 185.05787 409.854929 185.390172 410.181853 185.635145 
C 410.508777 185.880119 410.952243 186.017763 411.414583 186.017763 
z
" style="fill:#ff0000;opacity:0.2;stroke:#ff0000;stroke-linejoin:miter;stroke-width:2;"/>
   </g>
   <g id="patch_3">
    <path clip-path="url(#p8060eb8bfd)" d="M 61.874224 186.017763 
C 62.336564 186.017763 62.78003 185.880119 63.106954 185.635145 
C 63.433878 185.390172 63.617568 185.05787 63.617568 184.711426 
C 63.617568 184.364981 63.433878 184.032679 63.106954 183.787706 
C 62.78003 183.542732 62.336564 183.405089 61.874224 183.405089 
C 61.411884 183.405089 60.968418 183.542732 60.641494 183.787706 
C 60.31457 184.032679 60.130881 184.364981 60.130881 184.711426 
C 60.130881 185.05787 60.31457 185.390172 60.641494 185.635145 
C 60.968418 185.880119 61.411884 186.017763 61.874224 186.017763 
z
" style="fill:#ff0000;opacity:0.2;stroke:#ff0000;stroke-linejoin:miter;stroke-width:2;"/>
   </g>
   <g id="patch_4">
    <path clip-path="url(#p8060eb8bfd)" d="M 61.874224 138.989628 
C 62.336564 138.989628 62.78003 138.851984 63.106954 138.60701 
C 63.433878 138.362037 63.617568 138.029735 63.617568 137.683291 
C 63.617568 137.336846 63.433878 137.004544 63.106954 136.759571 
C 62.78003 136.514597 62.336564 136.376953 61.874224 136.376953 
C 61.411884 136.376953 60.968418 136.514597 60.641494 136.759571 
C 60.31457 137.004544 60.130881 137.336846 60.130881 137.683291 
C 60.130881 138.029735 60.31457 138.362037 60.641494 138.60701 
C 60.968418 138.851984 61.411884 138.989628 61.874224 138.989628 
z
" style="fill:#ff0000;opacity:0.2;stroke:#ff0000;stroke-linejoin:miter;stroke-width:2;"/>
   </g>
   <g id="patch_5">
    <path clip-path="url(#p8060eb8bfd)" d="M 411.414583 138.989628 
C 411.876923 138.989628 412.320389 138.851984 412.647313 138.60701 
C 412.974236 138.362037 413.157926 138.029735 413.157926 137.683291 
C 413.157926 137.336846 412.974236 137.004544 412.647313 136.759571 
C 412.320389 136.514597 411.876923 136.376953 411.414583 136.376953 
C 410.952243 136.376953 410.508777 136.514597 410.181853 136.759571 
C 409.854929 137.004544 409.671239 137.336846 409.671239 137.683291 
C 409.671239 138.029735 409.854929 138.362037 410.181853 138.60701 
C 410.508777 138.851984 410.952243 138.989628 411.414583 138.989628 
z
" style="fill:#ff0000;opacity:0.2;stroke:#ff0000;stroke-linejoin:miter;stroke-width:2;"/>
   </g>
   <g id="patch_6">
    <path clip-path="url(#p8060eb8bfd)" d="M 404.441209 156.298594 
C 404.903549 156.298594 405.347015 156.16095 405.673939 155.915977 
C 406.000863 155.671003 406.184552 155.338702 406.184552 154.992257 
C 406.184552 154.645812 406.000863 154.313511 405.673939 154.068537 
C 405.347015 153.823564 404.903549 153.68592 404.441209 153.68592 
C 403.978869 153.68592 403.535403 153.823564 403.208479 154.068537 
C 402.881555 154.313511 402.697866 154.645812 402.697866 154.992257 
C 402.697866 155.338702 402.881555 155.671003 403.208479 155.915977 
C 403.535403 156.16095 403.978869 156.298594 404.441209 156.298594 
z
" style="fill:#0000ff;opacity:0.2;stroke:#0000ff;stroke-linejoin:miter;stroke-width:2;"/>
   </g>
   <g id="patch_7">
    <path clip-path="url(#p8060eb8bfd)" d="M 404.441209 188.303853 
C 404.903549 188.303853 405.347015 188.166209 405.673939 187.921235 
C 406.000863 187.676262 406.184552 187.34396 406.184552 186.997516 
C 406.184552 186.651071 406.000863 186.318769 405.673939 186.073796 
C 405.347015 185.828822 404.903549 185.691178 404.441209 185.691178 
C 403.978869 185.691178 403.535403 185.828822 403.208479 186.073796 
C 402.881555 186.318769 402.697866 186.651071 402.697866 186.997516 
C 402.697866 187.34396 402.881555 187.676262 403.208479 187.921235 
C 403.535403 188.166209 403.978869 188.303853 404.441209 188.303853 
z
" style="fill:#0000ff;opacity:0.2;stroke:#0000ff;stroke-linejoin:miter;stroke-width:2;"/>
   </g>
   <g id="patch_8">
    <path clip-path="url(#p8060eb8bfd)" d="M 68.847598 188.303853 
C 69.309938 188.303853 69.753404 188.166209 70.080328 187.921235 
C 70.407252 187.676262 70.590941 187.34396 70.590941 186.997516 
C 70.590941 186.651071 70.407252 186.318769 70.080328 186.073796 
C 69.753404 185.828822 69.309938 185.691178 68.847598 185.691178 
C 68.385258 185.691178 67.941792 185.828822 67.614868 186.073796 
C 67.287944 186.318769 67.104254 186.651071 67.104254 186.997516 
C 67.104254 187.34396 67.287944 187.676262 67.614868 187.921235 
C 67.941792 188.166209 68.385258 188.303853 68.847598 188.303853 
z
" style="fill:#0000ff;opacity:0.2;stroke:#0000ff;stroke-linejoin:miter;stroke-width:2;"/>
   </g>
   <g id="patch_9">
    <path clip-path="url(#p8060eb8bfd)" d="M 68.847598 156.298594 
C 69.309938 156.298594 69.753404 156.16095 70.080328 155.915977 
C 70.407252 155.671003 70.590941 155.338702 70.590941 154.992257 
C 70.590941 154.645812 70.407252 154.313511 70.080328 154.068537 
C 69.753404 153.823564 69.309938 153.68592 68.847598 153.68592 
C 68.385258 153.68592 67.941792 153.823564 67.614868 154.068537 
C 67.287944 154.313511 67.104254 154.645812 67.104254 154.992257 
C 67.104254 155.338702 67.287944 155.671003 67.614868 155.915977 
C 67.941792 156.16095 68.385258 156.298594 68.847598 156.298594 
z
" style="fill:#0000ff;opacity:0.2;stroke:#0000ff;stroke-linejoin:miter;stroke-width:2;"/>
   </g>
   <g id="patch_10">
    <path clip-path="url(#p8060eb8bfd)" d="M 411.414583 184.711426 
L 61.874224 184.711426 
L 61.874224 137.683291 
L 411.414583 137.683291 
L 411.414583 184.711426 
" style="fill:none;stroke:#ff0000;stroke-linejoin:miter;stroke-width:0.5;"/>
   </g>
   <g id="patch_11">
    <path clip-path="url(#p8060eb8bfd)" d="M 404.441209 154.992257 
L 404.441209 186.997516 
L 68.847598 186.997516 
L 68.847598 154.992257 
L 404.441209 154.992257 
" style="fill:none;stroke:#0000ff;stroke-linejoin:miter;stroke-width:0.5;"/>
   </g>
   <g id="[&quot;g_s&quot;:1,&quot;g_t&quot;:2,&quot;coords&quot;:[[511.0, -523.0],[503.0, -526.5]],&quot;certainty&quot;:10]">
    <path clip-path="url(#p8060eb8bfd)" d="M 411.414583 188.303853 
C 412.686018 188.303853 413.90555 187.925332 414.80459 187.251655 
C 415.703631 186.577978 416.208777 185.664148 416.208777 184.711426 
C 416.208777 183.758703 415.703631 182.844873 414.80459 182.171196 
C 413.90555 181.497519 412.686018 181.118999 411.414583 181.118999 
C 410.143147 181.118999 408.923616 181.497519 408.024575 182.171196 
C 407.125535 182.844873 406.620388 183.758703 406.620388 184.711426 
C 406.620388 185.664148 407.125535 186.577978 408.024575 187.251655 
C 408.923616 187.925332 410.143147 188.303853 411.414583 188.303853 
z
" style="fill:#0000ff;opacity:0.2;stroke:#0000ff;stroke-linejoin:miter;stroke-width:2;"/>
   </g>
   <g id="[&quot;g_s&quot;:2,&quot;g_t&quot;:1,&quot;coords&quot;:[[503.0, -526.5],[511.0, -523.0]],&quot;certainty&quot;:10]">
    <path clip-path="url(#p8060eb8bfd)" d="M 404.441209 190.589943 
C 405.712644 190.589943 406.932176 190.211422 407.831216 189.537745 
C 408.730257 188.864068 409.235403 187.950238 409.235403 186.997516 
C 409.235403 186.044793 408.730257 185.130963 407.831216 184.457286 
C 406.932176 183.783609 405.712644 183.405089 404.441209 183.405089 
C 403.169774 183.405089 401.950242 183.783609 401.051202 184.457286 
C 400.152161 185.130963 399.647015 186.044793 399.647015 186.997516 
C 399.647015 187.950238 400.152161 188.864068 401.051202 189.537745 
C 401.950242 190.211422 403.169774 190.589943 404.441209 190.589943 
z
" style="fill:#ff0000;opacity:0.2;stroke:#ff0000;stroke-linejoin:miter;stroke-width:2;"/>
   </g>
   <g id="patch_12">
    <path d="M 411.414583 184.711426 
Q 408.879584 185.542477 408.192369 185.767768 
" style="fill:none;opacity:0.5;stroke:#0000ff;stroke-linecap:round;stroke-width:2.75;"/>
    <path d="M 410.085007 186.725851 
L 408.192369 185.767768 
L 409.150452 183.87513 
" style="fill:none;opacity:0.5;stroke:#0000ff;stroke-linecap:round;stroke-width:2.75;"/>
   </g>
   <g id="[&quot;g_s&quot;:2,&quot;g_t&quot;:3,&quot;coords&quot;:[[110.0, -523.0],[118.0, -526.5]],&quot;certainty&quot;:11]">
    <path clip-path="url(#p8060eb8bfd)" d="M 61.874224 188.630437 
C 63.261244 188.630437 64.591643 188.217505 65.572414 187.482585 
C 66.553185 186.747665 67.104254 185.75076 67.104254 184.711426 
C 67.104254 183.672092 66.553185 182.675186 65.572414 181.940266 
C 64.591643 181.205346 63.261244 180.792414 61.874224 180.792414 
C 60.487204 180.792414 59.156806 181.205346 58.176034 181.940266 
C 57.195263 182.675186 56.644194 183.672092 56.644194 184.711426 
C 56.644194 185.75076 57.195263 186.747665 58.176034 187.482585 
C 59.156806 188.217505 60.487204 188.630437 61.874224 188.630437 
z
" style="fill:#0000ff;opacity:0.2;stroke:#0000ff;stroke-linejoin:miter;stroke-width:2;"/>
   </g>
   <g id="[&quot;g_s&quot;:3,&quot;g_t&quot;:2,&quot;coords&quot;:[[118.0, -526.5],[110.0, -523.0]],&quot;certainty&quot;:11]">
    <path clip-path="url(#p8060eb8bfd)" d="M 68.847598 190.916527 
C 70.234618 190.916527 71.565016 190.503595 72.545788 189.768675 
C 73.526559 189.033755 74.077628 188.036849 74.077628 186.997516 
C 74.077628 185.958182 73.526559 184.961276 72.545788 184.226356 
C 71.565016 183.491436 70.234618 183.078504 68.847598 183.078504 
C 67.460578 183.078504 66.130179 183.491436 65.149408 184.226356 
C 64.168637 184.961276 63.617568 185.958182 63.617568 186.997516 
C 63.617568 188.036849 64.168637 189.033755 65.149408 189.768675 
C 66.130179 190.503595 67.460578 190.916527 68.847598 190.916527 
z
" style="fill:#ff0000;opacity:0.2;stroke:#ff0000;stroke-linejoin:miter;stroke-width:2;"/>
   </g>
   <g id="patch_13">
    <path d="M 61.874224 184.711426 
Q 64.409223 185.542477 64.928457 185.712699 
" style="fill:none;opacity:0.5;stroke:#0000ff;stroke-linecap:round;stroke-width:3;"/>
    <path d="M 63.970375 183.820061 
L 64.928457 185.712699 
L 63.035819 186.670781 
" style="fill:none;opacity:0.5;stroke:#0000ff;stroke-linecap:round;stroke-width:3;"/>
   </g>
   <g id="[&quot;g_s&quot;:3,&quot;g_t&quot;:4,&quot;coords&quot;:[[110.0, -451.0],[118.0, -477.5]],&quot;certainty&quot;:11]">
    <path clip-path="url(#p8060eb8bfd)" d="M 61.874224 141.602302 
C 63.261244 141.602302 64.591643 141.18937 65.572414 140.45445 
C 66.553185 139.71953 67.104254 138.722625 67.104254 137.683291 
C 67.104254 136.643957 66.553185 135.647051 65.572414 134.912131 
C 64.591643 134.177211 63.261244 133.764279 61.874224 133.764279 
C 60.487204 133.764279 59.156806 134.177211 58.176034 134.912131 
C 57.195263 135.647051 56.644194 136.643957 56.644194 137.683291 
C 56.644194 138.722625 57.195263 139.71953 58.176034 140.45445 
C 59.156806 141.18937 60.487204 141.602302 61.874224 141.602302 
z
" style="fill:#0000ff;opacity:0.2;stroke:#0000ff;stroke-linejoin:miter;stroke-width:2;"/>
   </g>
   <g id="[&quot;g_s&quot;:4,&quot;g_t&quot;:3,&quot;coords&quot;:[[118.0, -477.5],[110.0, -451.0]],&quot;certainty&quot;:11]">
    <path clip-path="url(#p8060eb8bfd)" d="M 68.847598 158.911268 
C 70.234618 158.911268 71.565016 158.498336 72.545788 157.763416 
C 73.526559 157.028496 74.077628 156.031591 74.077628 154.992257 
C 74.077628 153.952923 73.526559 152.956018 72.545788 152.221098 
C 71.565016 151.486177 70.234618 151.073246 68.847598 151.073246 
C 67.460578 151.073246 66.130179 151.486177 65.149408 152.221098 
C 64.168637 152.956018 63.617568 153.952923 63.617568 154.992257 
C 63.617568 156.031591 64.168637 157.028496 65.149408 157.763416 
C 66.130179 158.498336 67.460578 158.911268 68.847598 158.911268 
z
" style="fill:#ff0000;opacity:0.2;stroke:#ff0000;stroke-linejoin:miter;stroke-width:2;"/>
   </g>
   <g id="patch_14">
    <path d="M 61.874224 137.683291 
Q 64.987216 145.410206 67.307492 151.169482 
" style="fill:none;opacity:0.5;stroke:#0000ff;stroke-linecap:round;stroke-width:3;"/>
    <path d="M 68.138289 149.217617 
L 67.307492 151.169482 
L 65.355627 150.338686 
" style="fill:none;opacity:0.5;stroke:#0000ff;stroke-linecap:round;stroke-width:3;"/>
   </g>
   <g id="[&quot;g_s&quot;:4,&quot;g_t&quot;:1,&quot;coords&quot;:[[511.0, -451.0],[503.0, -477.5]],&quot;certainty&quot;:12]">
    <path clip-path="url(#p8060eb8bfd)" d="M 411.414583 141.928886 
C 412.917188 141.928886 414.358453 141.481543 415.420955 140.68538 
C 416.483457 139.889217 417.080449 138.809236 417.080449 137.683291 
C 417.080449 136.557345 416.483457 135.477365 415.420955 134.681201 
C 414.358453 133.885038 412.917188 133.437695 411.414583 133.437695 
C 409.911977 133.437695 408.470713 133.885038 407.40821 134.681201 
C 406.345708 135.477365 405.748717 136.557345 405.748717 137.683291 
C 405.748717 138.809236 406.345708 139.889217 407.40821 140.68538 
C 408.470713 141.481543 409.911977 141.928886 411.414583 141.928886 
z
" style="fill:#0000ff;opacity:0.2;stroke:#0000ff;stroke-linejoin:miter;stroke-width:2;"/>
   </g>
   <g id="[&quot;g_s&quot;:1,&quot;g_t&quot;:4,&quot;coords&quot;:[[503.0, -477.5],[511.0, -451.0]],&quot;certainty&quot;:12]">
    <path clip-path="url(#p8060eb8bfd)" d="M 404.441209 159.237852 
C 405.943814 159.237852 407.385079 158.79051 408.447581 157.994346 
C 409.510084 157.198183 410.107075 156.118202 410.107075 154.992257 
C 410.107075 153.866312 409.510084 152.786331 408.447581 151.990168 
C 407.385079 151.194004 405.943814 150.746661 404.441209 150.746661 
C 402.938604 150.746661 401.497339 151.194004 400.434837 151.990168 
C 399.372334 152.786331 398.775343 153.866312 398.775343 154.992257 
C 398.775343 156.118202 399.372334 157.198183 400.434837 157.994346 
C 401.497339 158.79051 402.938604 159.237852 404.441209 159.237852 
z
" style="fill:#ff0000;opacity:0.2;stroke:#ff0000;stroke-linejoin:miter;stroke-width:2;"/>
   </g>
   <g id="patch_15">
    <path d="M 411.414583 137.683291 
Q 408.301591 145.410206 406.047374 151.005512 
" style="fill:none;opacity:0.5;stroke:#0000ff;stroke-linecap:round;stroke-width:3.25;"/>
    <path d="M 407.999239 150.174716 
L 406.047374 151.005512 
L 405.216578 149.053647 
" style="fill:none;opacity:0.5;stroke:#0000ff;stroke-linecap:round;stroke-width:3.25;"/>
   </g>
   <g id="[&quot;g_s&quot;:1,&quot;g_t&quot;:4,&quot;coords&quot;:[[503.0, -477.5],[511.0, -451.0]],&quot;certainty&quot;:10]">
    <path clip-path="url(#p8060eb8bfd)" d="M 404.441209 158.584684 
C 405.712644 158.584684 406.932176 158.206163 407.831216 157.532486 
C 408.730257 156.85881 409.235403 155.94498 409.235403 154.992257 
C 409.235403 154.039534 408.730257 153.125704 407.831216 152.452027 
C 406.932176 151.778351 405.712644 151.39983 404.441209 151.39983 
C 403.169774 151.39983 401.950242 151.778351 401.051202 152.452027 
C 400.152161 153.125704 399.647015 154.039534 399.647015 154.992257 
C 399.647015 155.94498 400.152161 156.85881 401.051202 157.532486 
C 401.950242 158.206163 403.169774 158.584684 404.441209 158.584684 
z
" style="fill:#0000ff;opacity:0.2;stroke:#0000ff;stroke-linejoin:miter;stroke-width:2;"/>
   </g>
   <g id="[&quot;g_s&quot;:4,&quot;g_t&quot;:1,&quot;coords&quot;:[[511.0, -451.0],[503.0, -477.5]],&quot;certainty&quot;:10]">
    <path clip-path="url(#p8060eb8bfd)" d="M 411.414583 141.275718 
C 412.686018 141.275718 413.90555 140.897197 414.80459 140.22352 
C 415.703631 139.549843 416.208777 138.636013 416.208777 137.683291 
C 416.208777 136.730568 415.703631 135.816738 414.80459 135.143061 
C 413.90555 134.469384 412.686018 134.090864 411.414583 134.090864 
C 410.143147 134.090864 408.923616 134.469384 408.024575 135.143061 
C 407.125535 135.816738 406.620388 136.730568 406.620388 137.683291 
C 406.620388 138.636013 407.125535 139.549843 408.024575 140.22352 
C 408.923616 140.897197 410.143147 141.275718 411.414583 141.275718 
z
" style="fill:#ff0000;opacity:0.2;stroke:#ff0000;stroke-linejoin:miter;stroke-width:2;"/>
   </g>
   <g id="patch_16">
    <path d="M 404.441209 154.992257 
Q 407.554201 147.265342 409.940537 141.342095 
" style="fill:none;opacity:0.5;stroke:#ff0000;stroke-linecap:round;stroke-width:2.75;"/>
    <path d="M 407.988672 142.172892 
L 409.940537 141.342095 
L 410.771333 143.29396 
" style="fill:none;opacity:0.5;stroke:#ff0000;stroke-linecap:round;stroke-width:2.75;"/>
   </g>
   <g id="[&quot;g_s&quot;:2,&quot;g_t&quot;:1,&quot;coords&quot;:[[503.0, -526.5],[511.0, -523.0]],&quot;certainty&quot;:11]">
    <path clip-path="url(#p8060eb8bfd)" d="M 404.441209 190.916527 
C 405.828229 190.916527 407.158627 190.503595 408.139399 189.768675 
C 409.12017 189.033755 409.671239 188.036849 409.671239 186.997516 
C 409.671239 185.958182 409.12017 184.961276 408.139399 184.226356 
C 407.158627 183.491436 405.828229 183.078504 404.441209 183.078504 
C 403.054189 183.078504 401.72379 183.491436 400.743019 184.226356 
C 399.762248 184.961276 399.211179 185.958182 399.211179 186.997516 
C 399.211179 188.036849 399.762248 189.033755 400.743019 189.768675 
C 401.72379 190.503595 403.054189 190.916527 404.441209 190.916527 
z
" style="fill:#0000ff;opacity:0.2;stroke:#0000ff;stroke-linejoin:miter;stroke-width:2;"/>
   </g>
   <g id="[&quot;g_s&quot;:1,&quot;g_t&quot;:2,&quot;coords&quot;:[[511.0, -523.0],[503.0, -526.5]],&quot;certainty&quot;:11]">
    <path clip-path="url(#p8060eb8bfd)" d="M 411.414583 188.630437 
C 412.801603 188.630437 414.132001 188.217505 415.112773 187.482585 
C 416.093544 186.747665 416.644613 185.75076 416.644613 184.711426 
C 416.644613 183.672092 416.093544 182.675186 415.112773 181.940266 
C 414.132001 181.205346 412.801603 180.792414 411.414583 180.792414 
C 410.027562 180.792414 408.697164 181.205346 407.716393 181.940266 
C 406.735621 182.675186 406.184552 183.672092 406.184552 184.711426 
C 406.184552 185.75076 406.735621 186.747665 407.716393 187.482585 
C 408.697164 188.217505 410.027562 188.630437 411.414583 188.630437 
z
" style="fill:#ff0000;opacity:0.2;stroke:#ff0000;stroke-linejoin:miter;stroke-width:2;"/>
   </g>
   <g id="patch_17">
    <path d="M 404.441209 186.997516 
Q 406.976207 186.166464 407.495442 185.996242 
" style="fill:none;opacity:0.5;stroke:#ff0000;stroke-linecap:round;stroke-width:3;"/>
    <path d="M 405.602804 185.03816 
L 407.495442 185.996242 
L 406.53736 187.88888 
" style="fill:none;opacity:0.5;stroke:#ff0000;stroke-linecap:round;stroke-width:3;"/>
   </g>
   <g id="[&quot;g_s&quot;:3,&quot;g_t&quot;:2,&quot;coords&quot;:[[118.0, -526.5],[110.0, -523.0]],&quot;certainty&quot;:11]">
    <path clip-path="url(#p8060eb8bfd)" d="M 68.847598 190.916527 
C 70.234618 190.916527 71.565016 190.503595 72.545788 189.768675 
C 73.526559 189.033755 74.077628 188.036849 74.077628 186.997516 
C 74.077628 185.958182 73.526559 184.961276 72.545788 184.226356 
C 71.565016 183.491436 70.234618 183.078504 68.847598 183.078504 
C 67.460578 183.078504 66.130179 183.491436 65.149408 184.226356 
C 64.168637 184.961276 63.617568 185.958182 63.617568 186.997516 
C 63.617568 188.036849 64.168637 189.033755 65.149408 189.768675 
C 66.130179 190.503595 67.460578 190.916527 68.847598 190.916527 
z
" style="fill:#0000ff;opacity:0.2;stroke:#0000ff;stroke-linejoin:miter;stroke-width:2;"/>
   </g>
   <g id="[&quot;g_s&quot;:2,&quot;g_t&quot;:3,&quot;coords&quot;:[[110.0, -523.0],[118.0, -526.5]],&quot;certainty&quot;:11]">
    <path clip-path="url(#p8060eb8bfd)" d="M 61.874224 188.630437 
C 63.261244 188.630437 64.591643 188.217505 65.572414 187.482585 
C 66.553185 186.747665 67.104254 185.75076 67.104254 184.711426 
C 67.104254 183.672092 66.553185 182.675186 65.572414 181.940266 
C 64.591643 181.205346 63.261244 180.792414 61.874224 180.792414 
C 60.487204 180.792414 59.156806 181.205346 58.176034 181.940266 
C 57.195263 182.675186 56.644194 183.672092 56.644194 184.711426 
C 56.644194 185.75076 57.195263 186.747665 58.176034 187.482585 
C 59.156806 188.217505 60.487204 188.630437 61.874224 188.630437 
z
" style="fill:#ff0000;opacity:0.2;stroke:#ff0000;stroke-linejoin:miter;stroke-width:2;"/>
   </g>
   <g id="patch_18">
    <path d="M 68.847598 186.997516 
Q 66.312599 186.166464 65.793365 185.996242 
" style="fill:none;opacity:0.5;stroke:#ff0000;stroke-linecap:round;stroke-width:3;"/>
    <path d="M 66.751447 187.88888 
L 65.793365 185.996242 
L 67.686003 185.03816 
" style="fill:none;opacity:0.5;stroke:#ff0000;stroke-linecap:round;stroke-width:3;"/>
   </g>
   <g id="[&quot;g_s&quot;:4,&quot;g_t&quot;:3,&quot;coords&quot;:[[118.0, -477.5],[110.0, -451.0]],&quot;certainty&quot;:12]">
    <path clip-path="url(#p8060eb8bfd)" d="M 68.847598 159.237852 
C 70.350203 159.237852 71.791468 158.79051 72.85397 157.994346 
C 73.916473 157.198183 74.513464 156.118202 74.513464 154.992257 
C 74.513464 153.866312 73.916473 152.786331 72.85397 151.990168 
C 71.791468 151.194004 70.350203 150.746661 68.847598 150.746661 
C 67.344993 150.746661 65.903728 151.194004 64.841225 151.990168 
C 63.778723 152.786331 63.181732 153.866312 63.181732 154.992257 
C 63.181732 156.118202 63.778723 157.198183 64.841225 157.994346 
C 65.903728 158.79051 67.344993 159.237852 68.847598 159.237852 
z
" style="fill:#0000ff;opacity:0.2;stroke:#0000ff;stroke-linejoin:miter;stroke-width:2;"/>
   </g>
   <g id="[&quot;g_s&quot;:3,&quot;g_t&quot;:4,&quot;coords&quot;:[[110.0, -451.0],[118.0, -477.5]],&quot;certainty&quot;:12]">
    <path clip-path="url(#p8060eb8bfd)" d="M 61.874224 141.928886 
C 63.376829 141.928886 64.818094 141.481543 65.880597 140.68538 
C 66.943099 139.889217 67.54009 138.809236 67.54009 137.683291 
C 67.54009 136.557345 66.943099 135.477365 65.880597 134.681201 
C 64.818094 133.885038 63.376829 133.437695 61.874224 133.437695 
C 60.371619 133.437695 58.930354 133.885038 57.867852 134.681201 
C 56.805349 135.477365 56.208358 136.557345 56.208358 137.683291 
C 56.208358 138.809236 56.805349 139.889217 57.867852 140.68538 
C 58.930354 141.481543 60.371619 141.928886 61.874224 141.928886 
z
" style="fill:#ff0000;opacity:0.2;stroke:#ff0000;stroke-linejoin:miter;stroke-width:2;"/>
   </g>
   <g id="patch_19">
    <path d="M 68.847598 154.992257 
Q 65.734606 147.265342 63.480389 141.670035 
" style="fill:none;opacity:0.5;stroke:#ff0000;stroke-linecap:round;stroke-width:3.25;"/>
    <path d="M 62.649593 143.6219 
L 63.480389 141.670035 
L 65.432254 142.500832 
" style="fill:none;opacity:0.5;stroke:#ff0000;stroke-linecap:round;stroke-width:3.25;"/>
   </g>
   <g id="patch_20">
    <path clip-path="url(#p8060eb8bfd)" d="M 407.927896 189.120313 
C 409.083746 189.120313 410.192411 188.776204 411.009721 188.16377 
C 411.82703 187.551337 412.286254 186.720582 412.286254 185.854471 
C 412.286254 184.988359 411.82703 184.157604 411.009721 183.545171 
C 410.192411 182.932738 409.083746 182.588628 407.927896 182.588628 
C 406.772046 182.588628 405.66338 182.932738 404.846071 183.545171 
C 404.028761 184.157604 403.569537 184.988359 403.569537 185.854471 
C 403.569537 186.720582 404.028761 187.551337 404.846071 188.16377 
C 405.66338 188.776204 406.772046 189.120313 407.927896 189.120313 
z
" style="fill:#008000;opacity:0.2;stroke:#008000;stroke-linejoin:miter;stroke-width:2;"/>
   </g>
   <g id="patch_21">
    <path clip-path="url(#p8060eb8bfd)" d="M 65.360911 189.120313 
C 66.516761 189.120313 67.625426 188.776204 68.442736 188.16377 
C 69.260045 187.551337 69.71927 186.720582 69.71927 185.854471 
C 69.71927 184.988359 69.260045 184.157604 68.442736 183.545171 
C 67.625426 182.932738 66.516761 182.588628 65.360911 182.588628 
C 64.205061 182.588628 63.096396 182.932738 62.279086 183.545171 
C 61.461777 184.157604 61.002552 184.988359 61.002552 185.854471 
C 61.002552 186.720582 61.461777 187.551337 62.279086 188.16377 
C 63.096396 188.776204 64.205061 189.120313 65.360911 189.120313 
z
" style="fill:#008000;opacity:0.2;stroke:#008000;stroke-linejoin:miter;stroke-width:2;"/>
   </g>
   <g id="patch_22">
    <path clip-path="url(#p8060eb8bfd)" d="M 65.360911 149.603616 
C 66.516761 149.603616 67.625426 149.259507 68.442736 148.647073 
C 69.260045 148.03464 69.71927 147.203885 69.71927 146.337774 
C 69.71927 145.471662 69.260045 144.640908 68.442736 144.028474 
C 67.625426 143.416041 66.516761 143.071931 65.360911 143.071931 
C 64.205061 143.071931 63.096396 143.416041 62.279086 144.028474 
C 61.461777 144.640908 61.002552 145.471662 61.002552 146.337774 
C 61.002552 147.203885 61.461777 148.03464 62.279086 148.647073 
C 63.096396 149.259507 64.205061 149.603616 65.360911 149.603616 
z
" style="fill:#008000;opacity:0.2;stroke:#008000;stroke-linejoin:miter;stroke-width:2;"/>
   </g>
   <g id="patch_23">
    <path clip-path="url(#p8060eb8bfd)" d="M 407.927896 149.603616 
C 409.083746 149.603616 410.192411 149.259507 411.009721 148.647073 
C 411.82703 148.03464 412.286254 147.203885 412.286254 146.337774 
C 412.286254 145.471662 411.82703 144.640908 411.009721 144.028474 
C 410.192411 143.416041 409.083746 143.071931 407.927896 143.071931 
C 406.772046 143.071931 405.66338 143.416041 404.846071 144.028474 
C 404.028761 144.640908 403.569537 145.471662 403.569537 146.337774 
C 403.569537 147.203885 404.028761 148.03464 404.846071 148.647073 
C 405.66338 149.259507 406.772046 149.603616 407.927896 149.603616 
z
" style="fill:#008000;opacity:0.2;stroke:#008000;stroke-linejoin:miter;stroke-width:2;"/>
   </g>
   <g id="patch_24">
    <path clip-path="url(#p8060eb8bfd)" d="M 411.414583 197.774797 
C 416.037984 197.774797 420.472644 196.398357 423.741882 193.948624 
C 427.01112 191.49889 428.848017 188.175872 428.848017 184.711426 
C 428.848017 181.246979 427.01112 177.923961 423.741882 175.474228 
C 420.472644 173.024494 416.037984 171.648055 411.414583 171.648055 
C 406.791182 171.648055 402.356521 173.024494 399.087283 175.474228 
C 395.818045 177.923961 393.981148 181.246979 393.981148 184.711426 
C 393.981148 188.175872 395.818045 191.49889 399.087283 193.948624 
C 402.356521 196.398357 406.791182 197.774797 411.414583 197.774797 
z
" style="fill:none;opacity:0.2;stroke:#ff0000;stroke-linejoin:miter;stroke-width:2;"/>
   </g>
   <g id="patch_25">
    <path clip-path="url(#p8060eb8bfd)" d="M 404.441209 168.055628 
C 409.06461 168.055628 413.499271 166.679189 416.768509 164.229455 
C 420.037747 161.779721 421.874643 158.456703 421.874643 154.992257 
C 421.874643 151.527811 420.037747 148.204792 416.768509 145.755059 
C 413.499271 143.305325 409.06461 141.928886 404.441209 141.928886 
C 399.817808 141.928886 395.383147 143.305325 392.113909 145.755059 
C 388.844671 148.204792 387.007775 151.527811 387.007775 154.992257 
C 387.007775 158.456703 388.844671 161.779721 392.113909 164.229455 
C 395.383147 166.679189 399.817808 168.055628 404.441209 168.055628 
z
" style="fill:none;opacity:0.2;stroke:#0000ff;stroke-linejoin:miter;stroke-width:2;"/>
   </g>
   <g id="patch_26">
    <path clip-path="url(#p8060eb8bfd)" d="M 411.414583 191.243111 
C 413.726283 191.243111 415.943613 190.554892 417.578233 189.330025 
C 419.212852 188.105158 420.1313 186.443649 420.1313 184.711426 
C 420.1313 182.979202 419.212852 181.317693 417.578233 180.092827 
C 415.943613 178.86796 413.726283 178.17974 411.414583 178.17974 
C 409.102882 178.17974 406.885552 178.86796 405.250933 180.092827 
C 403.616314 181.317693 402.697866 182.979202 402.697866 184.711426 
C 402.697866 186.443649 403.616314 188.105158 405.250933 189.330025 
C 406.885552 190.554892 409.102882 191.243111 411.414583 191.243111 
z
" style="fill:none;opacity:0.2;stroke:#008000;stroke-linejoin:miter;stroke-width:2;"/>
   </g>
   <g id="patch_27">
    <path clip-path="url(#p8060eb8bfd)" d="M 404.441209 193.529201 
C 406.752909 193.529201 408.97024 192.840981 410.604859 191.616115 
C 412.239478 190.391248 413.157926 188.729739 413.157926 186.997516 
C 413.157926 185.265292 412.239478 183.603783 410.604859 182.378916 
C 408.97024 181.15405 406.752909 180.46583 404.441209 180.46583 
C 402.129509 180.46583 399.912178 181.15405 398.277559 182.378916 
C 396.64294 183.603783 395.724492 185.265292 395.724492 186.997516 
C 395.724492 188.729739 396.64294 190.391248 398.277559 191.616115 
C 399.912178 192.840981 402.129509 193.529201 404.441209 193.529201 
z
" style="fill:none;opacity:0.2;stroke:#008000;stroke-linejoin:miter;stroke-width:2;"/>
   </g>
   <g id="patch_28">
    <path d="M 407.927896 185.854471 
Q 236.644403 185.854471 65.360911 185.854471 
" style="fill:none;opacity:0.5;stroke:#008000;stroke-linecap:round;stroke-width:2;"/>
   </g>
   <g id="patch_29">
    <path d="M 410.07074 185.151979 
Q 408.879584 185.542477 407.688428 185.932976 
" style="fill:none;opacity:0.5;stroke:#800080;stroke-linecap:round;stroke-width:2;"/>
    <path d="M 408.178102 184.193897 
L 410.07074 185.151979 
L 409.112658 187.044617 
" style="fill:none;opacity:0.5;stroke:#800080;stroke-linecap:round;stroke-width:2;"/>
    <path d="M 409.581066 186.891058 
L 407.688428 185.932976 
L 408.646511 184.040338 
" style="fill:none;opacity:0.5;stroke:#800080;stroke-linecap:round;stroke-width:2;"/>
   </g>
   <g id="patch_30">
    <path d="M 65.360911 185.854471 
Q 65.360911 166.096122 65.360911 146.337774 
" style="fill:none;opacity:0.5;stroke:#008000;stroke-linecap:round;stroke-width:2;"/>
   </g>
   <g id="patch_31">
    <path d="M 63.218067 185.151979 
Q 64.409223 185.542477 65.600378 185.932976 
" style="fill:none;opacity:0.5;stroke:#800080;stroke-linecap:round;stroke-width:2;"/>
    <path d="M 64.176149 187.044617 
L 63.218067 185.151979 
L 65.110704 184.193897 
" style="fill:none;opacity:0.5;stroke:#800080;stroke-linecap:round;stroke-width:2;"/>
    <path d="M 64.642296 184.040338 
L 65.600378 185.932976 
L 63.707741 186.891058 
" style="fill:none;opacity:0.5;stroke:#800080;stroke-linecap:round;stroke-width:2;"/>
   </g>
   <g id="patch_32">
    <path d="M 65.360911 146.337774 
Q 236.644403 146.337774 407.927896 146.337774 
" style="fill:none;opacity:0.5;stroke:#008000;stroke-linecap:round;stroke-width:2;"/>
   </g>
   <g id="patch_33">
    <path d="M 62.402701 138.99505 
Q 64.987216 145.410206 67.571731 151.825362 
" style="fill:none;opacity:0.5;stroke:#800080;stroke-linecap:round;stroke-width:2;"/>
    <path d="M 61.571904 140.946915 
L 62.402701 138.99505 
L 64.354566 139.825846 
" style="fill:none;opacity:0.5;stroke:#800080;stroke-linecap:round;stroke-width:2;"/>
    <path d="M 68.402527 149.873497 
L 67.571731 151.825362 
L 65.619866 150.994565 
" style="fill:none;opacity:0.5;stroke:#800080;stroke-linecap:round;stroke-width:2;"/>
   </g>
   <g id="patch_34">
    <path d="M 407.927896 146.337774 
Q 407.927896 166.096122 407.927896 185.854471 
" style="fill:none;opacity:0.5;stroke:#008000;stroke-linecap:round;stroke-width:2;"/>
   </g>
   <g id="patch_35">
    <path d="M 410.886106 138.99505 
Q 408.301591 145.410206 405.717076 151.825362 
" style="fill:none;opacity:0.5;stroke:#800080;stroke-linecap:round;stroke-width:2;"/>
    <path d="M 408.934241 139.825846 
L 410.886106 138.99505 
L 411.716902 140.946915 
" style="fill:none;opacity:0.5;stroke:#800080;stroke-linecap:round;stroke-width:2;"/>
    <path d="M 407.668941 150.994565 
L 405.717076 151.825362 
L 404.88628 149.873497 
" style="fill:none;opacity:0.5;stroke:#800080;stroke-linecap:round;stroke-width:2;"/>
   </g>
   <g id="patch_36">
    <path clip-path="url(#p8060eb8bfd)" d="M 237.080239 295.096909 
C 237.542579 295.096909 237.986045 294.959265 238.312969 294.714292 
C 238.639893 294.469319 238.823583 294.137017 238.823583 293.790572 
C 238.823583 293.444128 238.639893 293.111826 238.312969 292.866853 
C 237.986045 292.621879 237.542579 292.484235 237.080239 292.484235 
C 236.617899 292.484235 236.174433 292.621879 235.847509 292.866853 
C 235.520585 293.111826 235.336896 293.444128 235.336896 293.790572 
C 235.336896 294.137017 235.520585 294.469319 235.847509 294.714292 
C 236.174433 294.959265 236.617899 295.096909 237.080239 295.096909 
z
" style="fill:#ff0000;opacity:0.2;stroke:#ff0000;stroke-linejoin:miter;stroke-width:2;"/>
   </g>
   <g id="patch_37">
    <path clip-path="url(#p8060eb8bfd)" d="M 183.908265 255.253628 
C 184.370605 255.253628 184.814071 255.115984 185.140994 254.871011 
C 185.467918 254.626038 185.651608 254.293736 185.651608 253.947291 
C 185.651608 253.600847 185.467918 253.268545 185.140994 253.023571 
C 184.814071 252.778598 184.370605 252.640954 183.908265 252.640954 
C 183.445924 252.640954 183.002458 252.778598 182.675535 253.023571 
C 182.348611 253.268545 182.164921 253.600847 182.164921 253.947291 
C 182.164921 254.293736 182.348611 254.626038 182.675535 254.871011 
C 183.002458 255.115984 183.445924 255.253628 183.908265 255.253628 
z
" style="fill:#ff0000;opacity:0.2;stroke:#ff0000;stroke-linejoin:miter;stroke-width:2;"/>
   </g>
   <g id="patch_38">
    <path clip-path="url(#p8060eb8bfd)" d="M 237.080239 216.063516 
C 237.542579 216.063516 237.986045 215.925872 238.312969 215.680898 
C 238.639893 215.435925 238.823583 215.103623 238.823583 214.757179 
C 238.823583 214.410734 238.639893 214.078432 238.312969 213.833459 
C 237.986045 213.588485 237.542579 213.450842 237.080239 213.450842 
C 236.617899 213.450842 236.174433 213.588485 235.847509 213.833459 
C 235.520585 214.078432 235.336896 214.410734 235.336896 214.757179 
C 235.336896 215.103623 235.520585 215.435925 235.847509 215.680898 
C 236.174433 215.925872 236.617899 216.063516 237.080239 216.063516 
z
" style="fill:#ff0000;opacity:0.2;stroke:#ff0000;stroke-linejoin:miter;stroke-width:2;"/>
   </g>
   <g id="patch_39">
    <path clip-path="url(#p8060eb8bfd)" d="M 288.508871 255.253628 
C 288.971211 255.253628 289.414677 255.115984 289.741601 254.871011 
C 290.068524 254.626038 290.252214 254.293736 290.252214 253.947291 
C 290.252214 253.600847 290.068524 253.268545 289.741601 253.023571 
C 289.414677 252.778598 288.971211 252.640954 288.508871 252.640954 
C 288.04653 252.640954 287.603064 252.778598 287.276141 253.023571 
C 286.949217 253.268545 286.765527 253.600847 286.765527 253.947291 
C 286.765527 254.293736 286.949217 254.626038 287.276141 254.871011 
C 287.603064 255.115984 288.04653 255.253628 288.508871 255.253628 
z
" style="fill:#ff0000;opacity:0.2;stroke:#ff0000;stroke-linejoin:miter;stroke-width:2;"/>
   </g>
   <g id="patch_40">
    <path clip-path="url(#p8060eb8bfd)" d="M 236.644403 209.53183 
C 237.106743 209.53183 237.55021 209.394186 237.877133 209.149213 
C 238.204057 208.90424 238.387747 208.571938 238.387747 208.225493 
C 238.387747 207.879049 238.204057 207.546747 237.877133 207.301773 
C 237.55021 207.0568 237.106743 206.919156 236.644403 206.919156 
C 236.182063 206.919156 235.738597 207.0568 235.411673 207.301773 
C 235.08475 207.546747 234.90106 207.879049 234.90106 208.225493 
C 234.90106 208.571938 235.08475 208.90424 235.411673 209.149213 
C 235.738597 209.394186 236.182063 209.53183 236.644403 209.53183 
z
" style="fill:#0000ff;opacity:0.2;stroke:#0000ff;stroke-linejoin:miter;stroke-width:2;"/>
   </g>
   <g id="patch_41">
    <path clip-path="url(#p8060eb8bfd)" d="M 274.997959 238.271246 
C 275.460299 238.271246 275.903765 238.133602 276.230689 237.888629 
C 276.557613 237.643656 276.741302 237.311354 276.741302 236.964909 
C 276.741302 236.618464 276.557613 236.286163 276.230689 236.041189 
C 275.903765 235.796216 275.460299 235.658572 274.997959 235.658572 
C 274.535619 235.658572 274.092153 235.796216 273.765229 236.041189 
C 273.438305 236.286163 273.254616 236.618464 273.254616 236.964909 
C 273.254616 237.311354 273.438305 237.643656 273.765229 237.888629 
C 274.092153 238.133602 274.535619 238.271246 274.997959 238.271246 
z
" style="fill:#0000ff;opacity:0.2;stroke:#0000ff;stroke-linejoin:miter;stroke-width:2;"/>
   </g>
   <g id="patch_42">
    <path clip-path="url(#p8060eb8bfd)" d="M 236.644403 267.663831 
C 237.106743 267.663831 237.55021 267.526187 237.877133 267.281213 
C 238.204057 267.03624 238.387747 266.703938 238.387747 266.357494 
C 238.387747 266.011049 238.204057 265.678747 237.877133 265.433774 
C 237.55021 265.1888 237.106743 265.051156 236.644403 265.051156 
C 236.182063 265.051156 235.738597 265.1888 235.411673 265.433774 
C 235.08475 265.678747 234.90106 266.011049 234.90106 266.357494 
C 234.90106 266.703938 235.08475 267.03624 235.411673 267.281213 
C 235.738597 267.526187 236.182063 267.663831 236.644403 267.663831 
z
" style="fill:#0000ff;opacity:0.2;stroke:#0000ff;stroke-linejoin:miter;stroke-width:2;"/>
   </g>
   <g id="patch_43">
    <path clip-path="url(#p8060eb8bfd)" d="M 197.419176 238.271246 
C 197.881516 238.271246 198.324982 238.133602 198.651906 237.888629 
C 198.97883 237.643656 199.16252 237.311354 199.16252 236.964909 
C 199.16252 236.618464 198.97883 236.286163 198.651906 236.041189 
C 198.324982 235.796216 197.881516 235.658572 197.419176 235.658572 
C 196.956836 235.658572 196.51337 235.796216 196.186446 236.041189 
C 195.859522 236.286163 195.675833 236.618464 195.675833 236.964909 
C 195.675833 237.311354 195.859522 237.643656 196.186446 237.888629 
C 196.51337 238.133602 196.956836 238.271246 197.419176 238.271246 
z
" style="fill:#0000ff;opacity:0.2;stroke:#0000ff;stroke-linejoin:miter;stroke-width:2;"/>
   </g>
   <g id="patch_44">
    <path clip-path="url(#p8060eb8bfd)" d="M 237.080239 293.790572 
C 207.443401 293.790572 183.908265 276.155022 183.908265 253.947291 
C 183.908265 232.392729 207.443401 214.757179 237.080239 214.757179 
C 264.102063 214.757179 288.508871 232.392729 288.508871 253.947291 
C 288.508871 276.155022 264.102063 293.790572 237.080239 293.790572 
" style="fill:none;stroke:#ff0000;stroke-linejoin:miter;stroke-width:0.5;"/>
   </g>
   <g id="patch_45">
    <path clip-path="url(#p8060eb8bfd)" d="M 236.644403 208.225493 
C 256.692853 208.225493 274.997959 221.288864 274.997959 236.964909 
C 274.997959 253.294123 256.692853 266.357494 236.644403 266.357494 
C 214.85261 266.357494 197.419176 253.294123 197.419176 236.964909 
C 197.419176 221.288864 214.85261 208.225493 236.644403 208.225493 
" style="fill:none;stroke:#0000ff;stroke-linejoin:miter;stroke-width:0.5;"/>
   </g>
   <g id="[&quot;g_s&quot;:1,&quot;g_t&quot;:3,&quot;coords&quot;:[[311.0, -690.0],[310.5, -648.0]],&quot;certainty&quot;:10]">
    <path clip-path="url(#p8060eb8bfd)" d="M 237.080239 297.382999 
C 238.351674 297.382999 239.571206 297.004479 240.470247 296.330802 
C 241.369287 295.657125 241.874434 294.743295 241.874434 293.790572 
C 241.874434 292.83785 241.369287 291.92402 240.470247 291.250343 
C 239.571206 290.576666 238.351674 290.198145 237.080239 290.198145 
C 235.808804 290.198145 234.589272 290.576666 233.690232 291.250343 
C 232.791191 291.92402 232.286045 292.83785 232.286045 293.790572 
C 232.286045 294.743295 232.791191 295.657125 233.690232 296.330802 
C 234.589272 297.004479 235.808804 297.382999 237.080239 297.382999 
z
" style="fill:#0000ff;opacity:0.2;stroke:#0000ff;stroke-linejoin:miter;stroke-width:2;"/>
   </g>
   <g id="[&quot;g_s&quot;:3,&quot;g_t&quot;:1,&quot;coords&quot;:[[310.5, -648.0],[311.0, -690.0]],&quot;certainty&quot;:10]">
    <path clip-path="url(#p8060eb8bfd)" d="M 236.644403 269.949921 
C 237.915839 269.949921 239.13537 269.5714 240.034411 268.897723 
C 240.933451 268.224046 241.438598 267.310216 241.438598 266.357494 
C 241.438598 265.404771 240.933451 264.490941 240.034411 263.817264 
C 239.13537 263.143587 237.915839 262.765067 236.644403 262.765067 
C 235.372968 262.765067 234.153436 263.143587 233.254396 263.817264 
C 232.355356 264.490941 231.850209 265.404771 231.850209 266.357494 
C 231.850209 267.310216 232.355356 268.224046 233.254396 268.897723 
C 234.153436 269.5714 235.372968 269.949921 236.644403 269.949921 
z
" style="fill:#ff0000;opacity:0.2;stroke:#ff0000;stroke-linejoin:miter;stroke-width:2;"/>
   </g>
   <g id="patch_46">
    <path d="M 237.080239 293.790572 
Q 236.878202 281.073639 236.707055 270.301004 
" style="fill:none;opacity:0.5;stroke:#0000ff;stroke-linecap:round;stroke-width:2.75;"/>
    <path d="M 235.231072 271.824643 
L 236.707055 270.301004 
L 238.230693 271.776987 
" style="fill:none;opacity:0.5;stroke:#0000ff;stroke-linecap:round;stroke-width:2.75;"/>
   </g>
   <g id="[&quot;g_s&quot;:2,&quot;g_t&quot;:4,&quot;coords&quot;:[[250.0, -629.0],[265.5, -603.0]],&quot;certainty&quot;:12]">
    <path clip-path="url(#p8060eb8bfd)" d="M 183.908265 258.192887 
C 185.41087 258.192887 186.852135 257.745544 187.914637 256.949381 
C 188.977139 256.153217 189.574131 255.073236 189.574131 253.947291 
C 189.574131 252.821346 188.977139 251.741365 187.914637 250.945202 
C 186.852135 250.149038 185.41087 249.701696 183.908265 249.701696 
C 182.405659 249.701696 180.964395 250.149038 179.901892 250.945202 
C 178.83939 251.741365 178.242398 252.821346 178.242398 253.947291 
C 178.242398 255.073236 178.83939 256.153217 179.901892 256.949381 
C 180.964395 257.745544 182.405659 258.192887 183.908265 258.192887 
z
" style="fill:#0000ff;opacity:0.2;stroke:#0000ff;stroke-linejoin:miter;stroke-width:2;"/>
   </g>
   <g id="[&quot;g_s&quot;:4,&quot;g_t&quot;:2,&quot;coords&quot;:[[265.5, -603.0],[250.0, -629.0]],&quot;certainty&quot;:12]">
    <path clip-path="url(#p8060eb8bfd)" d="M 197.419176 241.210505 
C 198.921781 241.210505 200.363046 240.763162 201.425549 239.966998 
C 202.488051 239.170835 203.085042 238.090854 203.085042 236.964909 
C 203.085042 235.838964 202.488051 234.758983 201.425549 233.96282 
C 200.363046 233.166656 198.921781 232.719314 197.419176 232.719314 
C 195.916571 232.719314 194.475306 233.166656 193.412804 233.96282 
C 192.350301 234.758983 191.75331 235.838964 191.75331 236.964909 
C 191.75331 238.090854 192.350301 239.170835 193.412804 239.966998 
C 194.475306 240.763162 195.916571 241.210505 197.419176 241.210505 
z
" style="fill:#ff0000;opacity:0.2;stroke:#ff0000;stroke-linejoin:miter;stroke-width:2;"/>
   </g>
   <g id="patch_47">
    <path d="M 183.908265 253.947291 
Q 190.041117 246.238675 194.743207 240.328438 
" style="fill:none;opacity:0.5;stroke:#0000ff;stroke-linecap:round;stroke-width:3.25;"/>
    <path d="M 192.635501 240.568387 
L 194.743207 240.328438 
L 194.983156 242.436144 
" style="fill:none;opacity:0.5;stroke:#0000ff;stroke-linecap:round;stroke-width:3.25;"/>
   </g>
   <g id="[&quot;g_s&quot;:3,&quot;g_t&quot;:1,&quot;coords&quot;:[[311.0, -569.0],[310.5, -559.0]],&quot;certainty&quot;:11]">
    <path clip-path="url(#p8060eb8bfd)" d="M 237.080239 218.67619 
C 238.46726 218.67619 239.797658 218.263258 240.778429 217.528338 
C 241.759201 216.793418 242.31027 215.796513 242.31027 214.757179 
C 242.31027 213.717845 241.759201 212.720939 240.778429 211.986019 
C 239.797658 211.251099 238.46726 210.838167 237.080239 210.838167 
C 235.693219 210.838167 234.362821 211.251099 233.382049 211.986019 
C 232.401278 212.720939 231.850209 213.717845 231.850209 214.757179 
C 231.850209 215.796513 232.401278 216.793418 233.382049 217.528338 
C 234.362821 218.263258 235.693219 218.67619 237.080239 218.67619 
z
" style="fill:#0000ff;opacity:0.2;stroke:#0000ff;stroke-linejoin:miter;stroke-width:2;"/>
   </g>
   <g id="[&quot;g_s&quot;:1,&quot;g_t&quot;:3,&quot;coords&quot;:[[310.5, -559.0],[311.0, -569.0]],&quot;certainty&quot;:11]">
    <path clip-path="url(#p8060eb8bfd)" d="M 236.644403 212.144504 
C 238.031424 212.144504 239.361822 211.731573 240.342593 210.996653 
C 241.323365 210.261733 241.874434 209.264827 241.874434 208.225493 
C 241.874434 207.186159 241.323365 206.189254 240.342593 205.454334 
C 239.361822 204.719414 238.031424 204.306482 236.644403 204.306482 
C 235.257383 204.306482 233.926985 204.719414 232.946214 205.454334 
C 231.965442 206.189254 231.414373 207.186159 231.414373 208.225493 
C 231.414373 209.264827 231.965442 210.261733 232.946214 210.996653 
C 233.926985 211.731573 235.257383 212.144504 236.644403 212.144504 
z
" style="fill:#ff0000;opacity:0.2;stroke:#ff0000;stroke-linejoin:miter;stroke-width:2;"/>
   </g>
   <g id="patch_48">
    <path d="M 237.080239 214.757179 
Q 236.928825 212.487992 236.918644 212.335419 
" style="fill:none;opacity:0.5;stroke:#0000ff;stroke-linecap:round;stroke-width:3;"/>
    <path d="M 235.52184 213.931958 
L 236.918644 212.335419 
L 238.515183 213.732223 
" style="fill:none;opacity:0.5;stroke:#0000ff;stroke-linecap:round;stroke-width:3;"/>
   </g>
   <g id="[&quot;g_s&quot;:4,&quot;g_t&quot;:2,&quot;coords&quot;:[[370.0, -629.0],[354.5, -603.0]],&quot;certainty&quot;:11]">
    <path clip-path="url(#p8060eb8bfd)" d="M 288.508871 257.866302 
C 289.895891 257.866302 291.226289 257.453371 292.20706 256.718451 
C 293.187832 255.983531 293.738901 254.986625 293.738901 253.947291 
C 293.738901 252.907957 293.187832 251.911052 292.20706 251.176132 
C 291.226289 250.441212 289.895891 250.02828 288.508871 250.02828 
C 287.12185 250.02828 285.791452 250.441212 284.810681 251.176132 
C 283.829909 251.911052 283.27884 252.907957 283.27884 253.947291 
C 283.27884 254.986625 283.829909 255.983531 284.810681 256.718451 
C 285.791452 257.453371 287.12185 257.866302 288.508871 257.866302 
z
" style="fill:#0000ff;opacity:0.2;stroke:#0000ff;stroke-linejoin:miter;stroke-width:2;"/>
   </g>
   <g id="[&quot;g_s&quot;:2,&quot;g_t&quot;:4,&quot;coords&quot;:[[354.5, -603.0],[370.0, -629.0]],&quot;certainty&quot;:11]">
    <path clip-path="url(#p8060eb8bfd)" d="M 274.997959 240.88392 
C 276.384979 240.88392 277.715377 240.470989 278.696149 239.736069 
C 279.67692 239.001148 280.227989 238.004243 280.227989 236.964909 
C 280.227989 235.925575 279.67692 234.92867 278.696149 234.19375 
C 277.715377 233.45883 276.384979 233.045898 274.997959 233.045898 
C 273.610939 233.045898 272.28054 233.45883 271.299769 234.19375 
C 270.318998 234.92867 269.767929 235.925575 269.767929 236.964909 
C 269.767929 238.004243 270.318998 239.001148 271.299769 239.736069 
C 272.28054 240.470989 273.610939 240.88392 274.997959 240.88392 
z
" style="fill:#ff0000;opacity:0.2;stroke:#ff0000;stroke-linejoin:miter;stroke-width:2;"/>
   </g>
   <g id="patch_49">
    <path d="M 288.508871 253.947291 
Q 282.376018 246.238675 277.56387 240.190101 
" style="fill:none;opacity:0.5;stroke:#0000ff;stroke-linecap:round;stroke-width:3;"/>
    <path d="M 277.323921 242.297807 
L 277.56387 240.190101 
L 279.671576 240.43005 
" style="fill:none;opacity:0.5;stroke:#0000ff;stroke-linecap:round;stroke-width:3;"/>
   </g>
   <g id="[&quot;g_s&quot;:1,&quot;g_t&quot;:3,&quot;coords&quot;:[[310.5, -559.0],[311.0, -569.0]],&quot;certainty&quot;:10]">
    <path clip-path="url(#p8060eb8bfd)" d="M 236.644403 211.81792 
C 237.915839 211.81792 239.13537 211.439399 240.034411 210.765723 
C 240.933451 210.092046 241.438598 209.178216 241.438598 208.225493 
C 241.438598 207.27277 240.933451 206.35894 240.034411 205.685264 
C 239.13537 205.011587 237.915839 204.633066 236.644403 204.633066 
C 235.372968 204.633066 234.153436 205.011587 233.254396 205.685264 
C 232.355356 206.35894 231.850209 207.27277 231.850209 208.225493 
C 231.850209 209.178216 232.355356 210.092046 233.254396 210.765723 
C 234.153436 211.439399 235.372968 211.81792 236.644403 211.81792 
z
" style="fill:#0000ff;opacity:0.2;stroke:#0000ff;stroke-linejoin:miter;stroke-width:2;"/>
   </g>
   <g id="[&quot;g_s&quot;:3,&quot;g_t&quot;:1,&quot;coords&quot;:[[311.0, -569.0],[310.5, -559.0]],&quot;certainty&quot;:10]">
    <path clip-path="url(#p8060eb8bfd)" d="M 237.080239 218.349606 
C 238.351674 218.349606 239.571206 217.971085 240.470247 217.297408 
C 241.369287 216.623731 241.874434 215.709901 241.874434 214.757179 
C 241.874434 213.804456 241.369287 212.890626 240.470247 212.216949 
C 239.571206 211.543272 238.351674 211.164752 237.080239 211.164752 
C 235.808804 211.164752 234.589272 211.543272 233.690232 212.216949 
C 232.791191 212.890626 232.286045 213.804456 232.286045 214.757179 
C 232.286045 215.709901 232.791191 216.623731 233.690232 217.297408 
C 234.589272 217.971085 235.808804 218.349606 237.080239 218.349606 
z
" style="fill:#ff0000;opacity:0.2;stroke:#ff0000;stroke-linejoin:miter;stroke-width:2;"/>
   </g>
   <g id="patch_50">
    <path d="M 236.644403 208.225493 
Q 236.795818 210.49468 236.817768 210.823637 
" style="fill:none;opacity:0.5;stroke:#ff0000;stroke-linecap:round;stroke-width:2.75;"/>
    <path d="M 238.214572 209.227098 
L 236.817768 210.823637 
L 235.221229 209.426833 
" style="fill:none;opacity:0.5;stroke:#ff0000;stroke-linecap:round;stroke-width:2.75;"/>
   </g>
   <g id="[&quot;g_s&quot;:2,&quot;g_t&quot;:4,&quot;coords&quot;:[[354.5, -603.0],[370.0, -629.0]],&quot;certainty&quot;:11]">
    <path clip-path="url(#p8060eb8bfd)" d="M 274.997959 240.88392 
C 276.384979 240.88392 277.715377 240.470989 278.696149 239.736069 
C 279.67692 239.001148 280.227989 238.004243 280.227989 236.964909 
C 280.227989 235.925575 279.67692 234.92867 278.696149 234.19375 
C 277.715377 233.45883 276.384979 233.045898 274.997959 233.045898 
C 273.610939 233.045898 272.28054 233.45883 271.299769 234.19375 
C 270.318998 234.92867 269.767929 235.925575 269.767929 236.964909 
C 269.767929 238.004243 270.318998 239.001148 271.299769 239.736069 
C 272.28054 240.470989 273.610939 240.88392 274.997959 240.88392 
z
" style="fill:#0000ff;opacity:0.2;stroke:#0000ff;stroke-linejoin:miter;stroke-width:2;"/>
   </g>
   <g id="[&quot;g_s&quot;:4,&quot;g_t&quot;:2,&quot;coords&quot;:[[370.0, -629.0],[354.5, -603.0]],&quot;certainty&quot;:11]">
    <path clip-path="url(#p8060eb8bfd)" d="M 288.508871 257.866302 
C 289.895891 257.866302 291.226289 257.453371 292.20706 256.718451 
C 293.187832 255.983531 293.738901 254.986625 293.738901 253.947291 
C 293.738901 252.907957 293.187832 251.911052 292.20706 251.176132 
C 291.226289 250.441212 289.895891 250.02828 288.508871 250.02828 
C 287.12185 250.02828 285.791452 250.441212 284.810681 251.176132 
C 283.829909 251.911052 283.27884 252.907957 283.27884 253.947291 
C 283.27884 254.986625 283.829909 255.983531 284.810681 256.718451 
C 285.791452 257.453371 287.12185 257.866302 288.508871 257.866302 
z
" style="fill:#ff0000;opacity:0.2;stroke:#ff0000;stroke-linejoin:miter;stroke-width:2;"/>
   </g>
   <g id="patch_51">
    <path d="M 274.997959 236.964909 
Q 281.130811 244.673526 285.94296 250.7221 
" style="fill:none;opacity:0.5;stroke:#ff0000;stroke-linecap:round;stroke-width:3;"/>
    <path d="M 286.182909 248.614394 
L 285.94296 250.7221 
L 283.835254 250.482151 
" style="fill:none;opacity:0.5;stroke:#ff0000;stroke-linecap:round;stroke-width:3;"/>
   </g>
   <g id="[&quot;g_s&quot;:3,&quot;g_t&quot;:1,&quot;coords&quot;:[[310.5, -648.0],[311.0, -690.0]],&quot;certainty&quot;:11]">
    <path clip-path="url(#p8060eb8bfd)" d="M 236.644403 270.276505 
C 238.031424 270.276505 239.361822 269.863573 240.342593 269.128653 
C 241.323365 268.393733 241.874434 267.396827 241.874434 266.357494 
C 241.874434 265.31816 241.323365 264.321254 240.342593 263.586334 
C 239.361822 262.851414 238.031424 262.438482 236.644403 262.438482 
C 235.257383 262.438482 233.926985 262.851414 232.946214 263.586334 
C 231.965442 264.321254 231.414373 265.31816 231.414373 266.357494 
C 231.414373 267.396827 231.965442 268.393733 232.946214 269.128653 
C 233.926985 269.863573 235.257383 270.276505 236.644403 270.276505 
z
" style="fill:#0000ff;opacity:0.2;stroke:#0000ff;stroke-linejoin:miter;stroke-width:2;"/>
   </g>
   <g id="[&quot;g_s&quot;:1,&quot;g_t&quot;:3,&quot;coords&quot;:[[311.0, -690.0],[310.5, -648.0]],&quot;certainty&quot;:11]">
    <path clip-path="url(#p8060eb8bfd)" d="M 237.080239 297.709584 
C 238.46726 297.709584 239.797658 297.296652 240.778429 296.561732 
C 241.759201 295.826812 242.31027 294.829906 242.31027 293.790572 
C 242.31027 292.751238 241.759201 291.754333 240.778429 291.019413 
C 239.797658 290.284493 238.46726 289.871561 237.080239 289.871561 
C 235.693219 289.871561 234.362821 290.284493 233.382049 291.019413 
C 232.401278 291.754333 231.850209 292.751238 231.850209 293.790572 
C 231.850209 294.829906 232.401278 295.826812 233.382049 296.561732 
C 234.362821 297.296652 235.693219 297.709584 237.080239 297.709584 
z
" style="fill:#ff0000;opacity:0.2;stroke:#ff0000;stroke-linejoin:miter;stroke-width:2;"/>
   </g>
   <g id="patch_52">
    <path d="M 236.644403 266.357494 
Q 236.84644 279.074427 237.01478 289.670307 
" style="fill:none;opacity:0.5;stroke:#ff0000;stroke-linecap:round;stroke-width:3;"/>
    <path d="M 238.490763 288.146669 
L 237.01478 289.670307 
L 235.491141 288.194324 
" style="fill:none;opacity:0.5;stroke:#ff0000;stroke-linecap:round;stroke-width:3;"/>
   </g>
   <g id="[&quot;g_s&quot;:4,&quot;g_t&quot;:2,&quot;coords&quot;:[[265.5, -603.0],[250.0, -629.0]],&quot;certainty&quot;:12]">
    <path clip-path="url(#p8060eb8bfd)" d="M 197.419176 241.210505 
C 198.921781 241.210505 200.363046 240.763162 201.425549 239.966998 
C 202.488051 239.170835 203.085042 238.090854 203.085042 236.964909 
C 203.085042 235.838964 202.488051 234.758983 201.425549 233.96282 
C 200.363046 233.166656 198.921781 232.719314 197.419176 232.719314 
C 195.916571 232.719314 194.475306 233.166656 193.412804 233.96282 
C 192.350301 234.758983 191.75331 235.838964 191.75331 236.964909 
C 191.75331 238.090854 192.350301 239.170835 193.412804 239.966998 
C 194.475306 240.763162 195.916571 241.210505 197.419176 241.210505 
z
" style="fill:#0000ff;opacity:0.2;stroke:#0000ff;stroke-linejoin:miter;stroke-width:2;"/>
   </g>
   <g id="[&quot;g_s&quot;:2,&quot;g_t&quot;:4,&quot;coords&quot;:[[250.0, -629.0],[265.5, -603.0]],&quot;certainty&quot;:12]">
    <path clip-path="url(#p8060eb8bfd)" d="M 183.908265 258.192887 
C 185.41087 258.192887 186.852135 257.745544 187.914637 256.949381 
C 188.977139 256.153217 189.574131 255.073236 189.574131 253.947291 
C 189.574131 252.821346 188.977139 251.741365 187.914637 250.945202 
C 186.852135 250.149038 185.41087 249.701696 183.908265 249.701696 
C 182.405659 249.701696 180.964395 250.149038 179.901892 250.945202 
C 178.83939 251.741365 178.242398 252.821346 178.242398 253.947291 
C 178.242398 255.073236 178.83939 256.153217 179.901892 256.949381 
C 180.964395 257.745544 182.405659 258.192887 183.908265 258.192887 
z
" style="fill:#ff0000;opacity:0.2;stroke:#ff0000;stroke-linejoin:miter;stroke-width:2;"/>
   </g>
   <g id="patch_53">
    <path d="M 197.419176 236.964909 
Q 191.286324 244.673526 186.584234 250.583763 
" style="fill:none;opacity:0.5;stroke:#ff0000;stroke-linecap:round;stroke-width:3.25;"/>
    <path d="M 188.69194 250.343814 
L 186.584234 250.583763 
L 186.344285 248.476057 
" style="fill:none;opacity:0.5;stroke:#ff0000;stroke-linecap:round;stroke-width:3.25;"/>
   </g>
   <g id="patch_54">
    <path clip-path="url(#p8060eb8bfd)" d="M 236.862321 283.339876 
C 238.018172 283.339876 239.126837 282.995766 239.944146 282.383332 
C 240.761456 281.770899 241.22068 280.940145 241.22068 280.074033 
C 241.22068 279.207921 240.761456 278.377167 239.944146 277.764733 
C 239.126837 277.1523 238.018172 276.80819 236.862321 276.80819 
C 235.706471 276.80819 234.597806 277.1523 233.780496 277.764733 
C 232.963187 278.377167 232.503963 279.207921 232.503963 280.074033 
C 232.503963 280.940145 232.963187 281.770899 233.780496 282.383332 
C 234.597806 282.995766 235.706471 283.339876 236.862321 283.339876 
z
" style="fill:#008000;opacity:0.2;stroke:#008000;stroke-linejoin:miter;stroke-width:2;"/>
   </g>
   <g id="patch_55">
    <path clip-path="url(#p8060eb8bfd)" d="M 190.66372 248.721943 
C 191.819571 248.721943 192.928236 248.377833 193.745545 247.7654 
C 194.562855 247.152966 195.022079 246.322212 195.022079 245.4561 
C 195.022079 244.589989 194.562855 243.759234 193.745545 243.146801 
C 192.928236 242.534367 191.819571 242.190257 190.66372 242.190257 
C 189.50787 242.190257 188.399205 242.534367 187.581895 243.146801 
C 186.764586 243.759234 186.305362 244.589989 186.305362 245.4561 
C 186.305362 246.322212 186.764586 247.152966 187.581895 247.7654 
C 188.399205 248.377833 189.50787 248.721943 190.66372 248.721943 
z
" style="fill:#008000;opacity:0.2;stroke:#008000;stroke-linejoin:miter;stroke-width:2;"/>
   </g>
   <g id="patch_56">
    <path clip-path="url(#p8060eb8bfd)" d="M 236.862321 214.757179 
C 238.018172 214.757179 239.126837 214.413069 239.944146 213.800635 
C 240.761456 213.188202 241.22068 212.357448 241.22068 211.491336 
C 241.22068 210.625224 240.761456 209.79447 239.944146 209.182036 
C 239.126837 208.569603 238.018172 208.225493 236.862321 208.225493 
C 235.706471 208.225493 234.597806 208.569603 233.780496 209.182036 
C 232.963187 209.79447 232.503963 210.625224 232.503963 211.491336 
C 232.503963 212.357448 232.963187 213.188202 233.780496 213.800635 
C 234.597806 214.413069 235.706471 214.757179 236.862321 214.757179 
z
" style="fill:#008000;opacity:0.2;stroke:#008000;stroke-linejoin:miter;stroke-width:2;"/>
   </g>
   <g id="patch_57">
    <path clip-path="url(#p8060eb8bfd)" d="M 281.753415 248.721943 
C 282.909265 248.721943 284.01793 248.377833 284.83524 247.7654 
C 285.652549 247.152966 286.111773 246.322212 286.111773 245.4561 
C 286.111773 244.589989 285.652549 243.759234 284.83524 243.146801 
C 284.01793 242.534367 282.909265 242.190257 281.753415 242.190257 
C 280.597565 242.190257 279.488899 242.534367 278.67159 243.146801 
C 277.85428 243.759234 277.395056 244.589989 277.395056 245.4561 
C 277.395056 246.322212 277.85428 247.152966 278.67159 247.7654 
C 279.488899 248.377833 280.597565 248.721943 281.753415 248.721943 
z
" style="fill:#008000;opacity:0.2;stroke:#008000;stroke-linejoin:miter;stroke-width:2;"/>
   </g>
   <g id="patch_58">
    <path clip-path="url(#p8060eb8bfd)" d="M 237.080239 306.853943 
C 241.70364 306.853943 246.138301 305.477504 249.407539 303.02777 
C 252.676777 300.578037 254.513674 297.255019 254.513674 293.790572 
C 254.513674 290.326126 252.676777 287.003108 249.407539 284.553374 
C 246.138301 282.103641 241.70364 280.727201 237.080239 280.727201 
C 232.456838 280.727201 228.022178 282.103641 224.75294 284.553374 
C 221.483702 287.003108 219.646805 290.326126 219.646805 293.790572 
C 219.646805 297.255019 221.483702 300.578037 224.75294 303.02777 
C 228.022178 305.477504 232.456838 306.853943 237.080239 306.853943 
z
" style="fill:none;opacity:0.2;stroke:#ff0000;stroke-linejoin:miter;stroke-width:2;"/>
   </g>
   <g id="patch_59">
    <path clip-path="url(#p8060eb8bfd)" d="M 236.644403 221.288864 
C 241.267804 221.288864 245.702465 219.912425 248.971703 217.462691 
C 252.240941 215.012958 254.077838 211.68994 254.077838 208.225493 
C 254.077838 204.761047 252.240941 201.438029 248.971703 198.988295 
C 245.702465 196.538562 241.267804 195.162122 236.644403 195.162122 
C 232.021003 195.162122 227.586342 196.538562 224.317104 198.988295 
C 221.047866 201.438029 219.210969 204.761047 219.210969 208.225493 
C 219.210969 211.68994 221.047866 215.012958 224.317104 217.462691 
C 227.586342 219.912425 232.021003 221.288864 236.644403 221.288864 
z
" style="fill:none;opacity:0.2;stroke:#0000ff;stroke-linejoin:miter;stroke-width:2;"/>
   </g>
   <g id="patch_60">
    <path clip-path="url(#p8060eb8bfd)" d="M 237.080239 300.322258 
C 239.39194 300.322258 241.60927 299.634038 243.243889 298.409171 
C 244.878508 297.184305 245.796956 295.522796 245.796956 293.790572 
C 245.796956 292.058349 244.878508 290.39684 243.243889 289.171973 
C 241.60927 287.947106 239.39194 287.258887 237.080239 287.258887 
C 234.768539 287.258887 232.551208 287.947106 230.916589 289.171973 
C 229.28197 290.39684 228.363522 292.058349 228.363522 293.790572 
C 228.363522 295.522796 229.28197 297.184305 230.916589 298.409171 
C 232.551208 299.634038 234.768539 300.322258 237.080239 300.322258 
z
" style="fill:none;opacity:0.2;stroke:#008000;stroke-linejoin:miter;stroke-width:2;"/>
   </g>
   <g id="patch_61">
    <path clip-path="url(#p8060eb8bfd)" d="M 236.644403 272.889179 
C 238.956104 272.889179 241.173434 272.200959 242.808053 270.976093 
C 244.442672 269.751226 245.361121 268.089717 245.361121 266.357494 
C 245.361121 264.62527 244.442672 262.963761 242.808053 261.738894 
C 241.173434 260.514028 238.956104 259.825808 236.644403 259.825808 
C 234.332703 259.825808 232.115373 260.514028 230.480754 261.738894 
C 228.846135 262.963761 227.927686 264.62527 227.927686 266.357494 
C 227.927686 268.089717 228.846135 269.751226 230.480754 270.976093 
C 232.115373 272.200959 234.332703 272.889179 236.644403 272.889179 
z
" style="fill:none;opacity:0.2;stroke:#008000;stroke-linejoin:miter;stroke-width:2;"/>
   </g>
   <g id="patch_62">
    <path d="M 236.862321 280.074033 
Q 213.763021 262.765067 190.66372 245.4561 
" style="fill:none;opacity:0.5;stroke:#008000;stroke-linecap:round;stroke-width:2;"/>
   </g>
   <g id="patch_63">
    <path d="M 237.057774 292.376537 
Q 236.878202 281.073639 236.69863 269.770741 
" style="fill:none;opacity:0.5;stroke:#800080;stroke-linecap:round;stroke-width:2;"/>
    <path d="M 238.533757 290.852899 
L 237.057774 292.376537 
L 235.534136 290.900554 
" style="fill:none;opacity:0.5;stroke:#800080;stroke-linecap:round;stroke-width:2;"/>
    <path d="M 235.222648 271.29438 
L 236.69863 269.770741 
L 238.222269 271.246724 
" style="fill:none;opacity:0.5;stroke:#800080;stroke-linecap:round;stroke-width:2;"/>
   </g>
   <g id="patch_64">
    <path d="M 190.66372 245.4561 
Q 213.763021 228.473718 236.862321 211.491336 
" style="fill:none;opacity:0.5;stroke:#008000;stroke-linecap:round;stroke-width:2;"/>
   </g>
   <g id="patch_65">
    <path d="M 184.788734 252.840596 
Q 190.041117 246.238675 195.2935 239.636753 
" style="fill:none;opacity:0.5;stroke:#800080;stroke-linecap:round;stroke-width:2;"/>
    <path d="M 186.896439 252.600647 
L 184.788734 252.840596 
L 184.548784 250.73289 
" style="fill:none;opacity:0.5;stroke:#800080;stroke-linecap:round;stroke-width:2;"/>
    <path d="M 193.185794 239.876702 
L 195.2935 239.636753 
L 195.533449 241.744459 
" style="fill:none;opacity:0.5;stroke:#800080;stroke-linecap:round;stroke-width:2;"/>
   </g>
   <g id="patch_66">
    <path d="M 236.862321 211.491336 
Q 259.307868 228.473718 281.753415 245.4561 
" style="fill:none;opacity:0.5;stroke:#008000;stroke-linecap:round;stroke-width:2;"/>
   </g>
   <g id="patch_67">
    <path d="M 236.986083 213.346103 
Q 236.928825 212.487992 236.871566 211.629881 
" style="fill:none;opacity:0.5;stroke:#800080;stroke-linecap:round;stroke-width:2;"/>
    <path d="M 238.382888 211.749564 
L 236.986083 213.346103 
L 235.389544 211.949299 
" style="fill:none;opacity:0.5;stroke:#800080;stroke-linecap:round;stroke-width:2;"/>
    <path d="M 235.474762 213.22642 
L 236.871566 211.629881 
L 238.468105 213.026685 
" style="fill:none;opacity:0.5;stroke:#800080;stroke-linecap:round;stroke-width:2;"/>
   </g>
   <g id="patch_68">
    <path d="M 281.753415 245.4561 
Q 259.307868 262.765067 236.862321 280.074033 
" style="fill:none;opacity:0.5;stroke:#008000;stroke-linecap:round;stroke-width:2;"/>
   </g>
   <g id="patch_69">
    <path d="M 287.628402 252.840596 
Q 282.376018 246.238675 277.123635 239.636753 
" style="fill:none;opacity:0.5;stroke:#800080;stroke-linecap:round;stroke-width:2;"/>
    <path d="M 287.868351 250.73289 
L 287.628402 252.840596 
L 285.520696 252.600647 
" style="fill:none;opacity:0.5;stroke:#800080;stroke-linecap:round;stroke-width:2;"/>
    <path d="M 276.883686 241.744459 
L 277.123635 239.636753 
L 279.231341 239.876702 
" style="fill:none;opacity:0.5;stroke:#800080;stroke-linecap:round;stroke-width:2;"/>
   </g>
   <g id="patch_70">
    <path clip-path="url(#p8060eb8bfd)" d="M 237.080239 108.943875 
C 237.542579 108.943875 237.986045 108.806231 238.312969 108.561257 
C 238.639893 108.316284 238.823583 107.983982 238.823583 107.637538 
C 238.823583 107.291093 238.639893 106.958791 238.312969 106.713818 
C 237.986045 106.468844 237.542579 106.331201 237.080239 106.331201 
C 236.617899 106.331201 236.174433 106.468844 235.847509 106.713818 
C 235.520585 106.958791 235.336896 107.291093 235.336896 107.637538 
C 235.336896 107.983982 235.520585 108.316284 235.847509 108.561257 
C 236.174433 108.806231 236.617899 108.943875 237.080239 108.943875 
z
" style="fill:#ff0000;opacity:0.2;stroke:#ff0000;stroke-linejoin:miter;stroke-width:2;"/>
   </g>
   <g id="patch_71">
    <path clip-path="url(#p8060eb8bfd)" d="M 183.908265 69.100594 
C 184.370605 69.100594 184.814071 68.96295 185.140994 68.717976 
C 185.467918 68.473003 185.651608 68.140701 185.651608 67.794256 
C 185.651608 67.447812 185.467918 67.11551 185.140994 66.870537 
C 184.814071 66.625563 184.370605 66.487919 183.908265 66.487919 
C 183.445924 66.487919 183.002458 66.625563 182.675535 66.870537 
C 182.348611 67.11551 182.164921 67.447812 182.164921 67.794256 
C 182.164921 68.140701 182.348611 68.473003 182.675535 68.717976 
C 183.002458 68.96295 183.445924 69.100594 183.908265 69.100594 
z
" style="fill:#ff0000;opacity:0.2;stroke:#ff0000;stroke-linejoin:miter;stroke-width:2;"/>
   </g>
   <g id="patch_72">
    <path clip-path="url(#p8060eb8bfd)" d="M 237.080239 29.910481 
C 237.542579 29.910481 237.986045 29.772837 238.312969 29.527864 
C 238.639893 29.28289 238.823583 28.950589 238.823583 28.604144 
C 238.823583 28.257699 238.639893 27.925397 238.312969 27.680424 
C 237.986045 27.435451 237.542579 27.297807 237.080239 27.297807 
C 236.617899 27.297807 236.174433 27.435451 235.847509 27.680424 
C 235.520585 27.925397 235.336896 28.257699 235.336896 28.604144 
C 235.336896 28.950589 235.520585 29.28289 235.847509 29.527864 
C 236.174433 29.772837 236.617899 29.910481 237.080239 29.910481 
z
" style="fill:#ff0000;opacity:0.2;stroke:#ff0000;stroke-linejoin:miter;stroke-width:2;"/>
   </g>
   <g id="patch_73">
    <path clip-path="url(#p8060eb8bfd)" d="M 288.508871 69.100594 
C 288.971211 69.100594 289.414677 68.96295 289.741601 68.717976 
C 290.068524 68.473003 290.252214 68.140701 290.252214 67.794256 
C 290.252214 67.447812 290.068524 67.11551 289.741601 66.870537 
C 289.414677 66.625563 288.971211 66.487919 288.508871 66.487919 
C 288.04653 66.487919 287.603064 66.625563 287.276141 66.870537 
C 286.949217 67.11551 286.765527 67.447812 286.765527 67.794256 
C 286.765527 68.140701 286.949217 68.473003 287.276141 68.717976 
C 287.603064 68.96295 288.04653 69.100594 288.508871 69.100594 
z
" style="fill:#ff0000;opacity:0.2;stroke:#ff0000;stroke-linejoin:miter;stroke-width:2;"/>
   </g>
   <g id="patch_74">
    <path clip-path="url(#p8060eb8bfd)" d="M 236.644403 135.070616 
C 237.106743 135.070616 237.55021 134.932972 237.877133 134.687999 
C 238.204057 134.443026 238.387747 134.110724 238.387747 133.764279 
C 238.387747 133.417835 238.204057 133.085533 237.877133 132.840559 
C 237.55021 132.595586 237.106743 132.457942 236.644403 132.457942 
C 236.182063 132.457942 235.738597 132.595586 235.411673 132.840559 
C 235.08475 133.085533 234.90106 133.417835 234.90106 133.764279 
C 234.90106 134.110724 235.08475 134.443026 235.411673 134.687999 
C 235.738597 134.932972 236.182063 135.070616 236.644403 135.070616 
z
" style="fill:#0000ff;opacity:0.2;stroke:#0000ff;stroke-linejoin:miter;stroke-width:2;"/>
   </g>
   <g id="patch_75">
    <path clip-path="url(#p8060eb8bfd)" d="M 197.419176 105.678032 
C 197.881516 105.678032 198.324982 105.540388 198.651906 105.295415 
C 198.97883 105.050441 199.16252 104.71814 199.16252 104.371695 
C 199.16252 104.02525 198.97883 103.692948 198.651906 103.447975 
C 198.324982 103.203002 197.881516 103.065358 197.419176 103.065358 
C 196.956836 103.065358 196.51337 103.203002 196.186446 103.447975 
C 195.859522 103.692948 195.675833 104.02525 195.675833 104.371695 
C 195.675833 104.71814 195.859522 105.050441 196.186446 105.295415 
C 196.51337 105.540388 196.956836 105.678032 197.419176 105.678032 
z
" style="fill:#0000ff;opacity:0.2;stroke:#0000ff;stroke-linejoin:miter;stroke-width:2;"/>
   </g>
   <g id="patch_76">
    <path clip-path="url(#p8060eb8bfd)" d="M 236.644403 76.938616 
C 237.106743 76.938616 237.55021 76.800972 237.877133 76.555999 
C 238.204057 76.311025 238.387747 75.978724 238.387747 75.632279 
C 238.387747 75.285834 238.204057 74.953533 237.877133 74.708559 
C 237.55021 74.463586 237.106743 74.325942 236.644403 74.325942 
C 236.182063 74.325942 235.738597 74.463586 235.411673 74.708559 
C 235.08475 74.953533 234.90106 75.285834 234.90106 75.632279 
C 234.90106 75.978724 235.08475 76.311025 235.411673 76.555999 
C 235.738597 76.800972 236.182063 76.938616 236.644403 76.938616 
z
" style="fill:#0000ff;opacity:0.2;stroke:#0000ff;stroke-linejoin:miter;stroke-width:2;"/>
   </g>
   <g id="patch_77">
    <path clip-path="url(#p8060eb8bfd)" d="M 274.997959 105.678032 
C 275.460299 105.678032 275.903765 105.540388 276.230689 105.295415 
C 276.557613 105.050441 276.741302 104.71814 276.741302 104.371695 
C 276.741302 104.02525 276.557613 103.692948 276.230689 103.447975 
C 275.903765 103.203002 275.460299 103.065358 274.997959 103.065358 
C 274.535619 103.065358 274.092153 103.203002 273.765229 103.447975 
C 273.438305 103.692948 273.254616 104.02525 273.254616 104.371695 
C 273.254616 104.71814 273.438305 105.050441 273.765229 105.295415 
C 274.092153 105.540388 274.535619 105.678032 274.997959 105.678032 
z
" style="fill:#0000ff;opacity:0.2;stroke:#0000ff;stroke-linejoin:miter;stroke-width:2;"/>
   </g>
   <g id="patch_78">
    <path clip-path="url(#p8060eb8bfd)" d="M 237.080239 107.637538 
C 207.443401 107.637538 183.908265 90.001987 183.908265 67.794256 
C 183.908265 46.239695 207.443401 28.604144 237.080239 28.604144 
C 264.102063 28.604144 288.508871 46.239695 288.508871 67.794256 
C 288.508871 90.001987 264.102063 107.637538 237.080239 107.637538 
" style="fill:none;stroke:#ff0000;stroke-linejoin:miter;stroke-width:0.5;"/>
   </g>
   <g id="patch_79">
    <path clip-path="url(#p8060eb8bfd)" d="M 236.644403 133.764279 
C 214.85261 133.764279 197.419176 120.700908 197.419176 104.371695 
C 197.419176 88.69565 214.85261 75.632279 236.644403 75.632279 
C 256.692853 75.632279 274.997959 88.69565 274.997959 104.371695 
C 274.997959 120.700908 256.692853 133.764279 236.644403 133.764279 
" style="fill:none;stroke:#0000ff;stroke-linejoin:miter;stroke-width:0.5;"/>
   </g>
   <g id="[&quot;g_s&quot;:1,&quot;g_t&quot;:1,&quot;coords&quot;:[[311.0, -405.0],[310.5, -445.0]],&quot;certainty&quot;:10]">
    <path clip-path="url(#p8060eb8bfd)" d="M 237.080239 111.229965 
C 238.351674 111.229965 239.571206 110.851444 240.470247 110.177767 
C 241.369287 109.50409 241.874434 108.59026 241.874434 107.637538 
C 241.874434 106.684815 241.369287 105.770985 240.470247 105.097308 
C 239.571206 104.423631 238.351674 104.045111 237.080239 104.045111 
C 235.808804 104.045111 234.589272 104.423631 233.690232 105.097308 
C 232.791191 105.770985 232.286045 106.684815 232.286045 107.637538 
C 232.286045 108.59026 232.791191 109.50409 233.690232 110.177767 
C 234.589272 110.851444 235.808804 111.229965 237.080239 111.229965 
z
" style="fill:#0000ff;opacity:0.2;stroke:#0000ff;stroke-linejoin:miter;stroke-width:2;"/>
   </g>
   <g id="[&quot;g_s&quot;:1,&quot;g_t&quot;:1,&quot;coords&quot;:[[310.5, -445.0],[311.0, -405.0]],&quot;certainty&quot;:10]">
    <path clip-path="url(#p8060eb8bfd)" d="M 236.644403 137.356706 
C 237.915839 137.356706 239.13537 136.978186 240.034411 136.304509 
C 240.933451 135.630832 241.438598 134.717002 241.438598 133.764279 
C 241.438598 132.811557 240.933451 131.897727 240.034411 131.22405 
C 239.13537 130.550373 237.915839 130.171852 236.644403 130.171852 
C 235.372968 130.171852 234.153436 130.550373 233.254396 131.22405 
C 232.355356 131.897727 231.850209 132.811557 231.850209 133.764279 
C 231.850209 134.717002 232.355356 135.630832 233.254396 136.304509 
C 234.153436 136.978186 235.372968 137.356706 236.644403 137.356706 
z
" style="fill:#ff0000;opacity:0.2;stroke:#ff0000;stroke-linejoin:miter;stroke-width:2;"/>
   </g>
   <g id="patch_80">
    <path d="M 237.080239 107.637538 
Q 236.879 119.701063 236.710195 129.820315 
" style="fill:none;opacity:0.5;stroke:#0000ff;stroke-linecap:round;stroke-width:2.75;"/>
    <path d="M 238.235005 128.345543 
L 236.710195 129.820315 
L 235.235423 128.295505 
" style="fill:none;opacity:0.5;stroke:#0000ff;stroke-linecap:round;stroke-width:2.75;"/>
   </g>
   <g id="[&quot;g_s&quot;:2,&quot;g_t&quot;:3,&quot;coords&quot;:[[250.0, -344.0],[310.5, -356.0]],&quot;certainty&quot;:12]">
    <path clip-path="url(#p8060eb8bfd)" d="M 183.908265 72.039852 
C 185.41087 72.039852 186.852135 71.592509 187.914637 70.796346 
C 188.977139 70.000182 189.574131 68.920202 189.574131 67.794256 
C 189.574131 66.668311 188.977139 65.588331 187.914637 64.792167 
C 186.852135 63.996004 185.41087 63.548661 183.908265 63.548661 
C 182.405659 63.548661 180.964395 63.996004 179.901892 64.792167 
C 178.83939 65.588331 178.242398 66.668311 178.242398 67.794256 
C 178.242398 68.920202 178.83939 70.000182 179.901892 70.796346 
C 180.964395 71.592509 182.405659 72.039852 183.908265 72.039852 
z
" style="fill:#0000ff;opacity:0.2;stroke:#0000ff;stroke-linejoin:miter;stroke-width:2;"/>
   </g>
   <g id="[&quot;g_s&quot;:3,&quot;g_t&quot;:2,&quot;coords&quot;:[[310.5, -356.0],[250.0, -344.0]],&quot;certainty&quot;:12]">
    <path clip-path="url(#p8060eb8bfd)" d="M 236.644403 79.877875 
C 238.147009 79.877875 239.588273 79.430532 240.650776 78.634368 
C 241.713278 77.838205 242.31027 76.758224 242.31027 75.632279 
C 242.31027 74.506334 241.713278 73.426353 240.650776 72.63019 
C 239.588273 71.834026 238.147009 71.386683 236.644403 71.386683 
C 235.141798 71.386683 233.700533 71.834026 232.638031 72.63019 
C 231.575529 73.426353 230.978537 74.506334 230.978537 75.632279 
C 230.978537 76.758224 231.575529 77.838205 232.638031 78.634368 
C 233.700533 79.430532 235.141798 79.877875 236.644403 79.877875 
z
" style="fill:#ff0000;opacity:0.2;stroke:#ff0000;stroke-linejoin:miter;stroke-width:2;"/>
   </g>
   <g id="patch_81">
    <path d="M 183.908265 67.794256 
Q 209.286566 71.566161 232.391739 75.000218 
" style="fill:none;opacity:0.5;stroke:#0000ff;stroke-linecap:round;stroke-width:3.25;"/>
    <path d="M 231.128556 73.295997 
L 232.391739 75.000218 
L 230.687519 76.263401 
" style="fill:none;opacity:0.5;stroke:#0000ff;stroke-linecap:round;stroke-width:3.25;"/>
   </g>
   <g id="[&quot;g_s&quot;:3,&quot;g_t&quot;:3,&quot;coords&quot;:[[311.0, -284.0],[310.5, -356.0]],&quot;certainty&quot;:11]">
    <path clip-path="url(#p8060eb8bfd)" d="M 237.080239 32.523155 
C 238.46726 32.523155 239.797658 32.110223 240.778429 31.375303 
C 241.759201 30.640383 242.31027 29.643478 242.31027 28.604144 
C 242.31027 27.56481 241.759201 26.567905 240.778429 25.832984 
C 239.797658 25.098064 238.46726 24.685133 237.080239 24.685133 
C 235.693219 24.685133 234.362821 25.098064 233.382049 25.832984 
C 232.401278 26.567905 231.850209 27.56481 231.850209 28.604144 
C 231.850209 29.643478 232.401278 30.640383 233.382049 31.375303 
C 234.362821 32.110223 235.693219 32.523155 237.080239 32.523155 
z
" style="fill:#0000ff;opacity:0.2;stroke:#0000ff;stroke-linejoin:miter;stroke-width:2;"/>
   </g>
   <g id="[&quot;g_s&quot;:3,&quot;g_t&quot;:3,&quot;coords&quot;:[[310.5, -356.0],[311.0, -284.0]],&quot;certainty&quot;:11]">
    <path clip-path="url(#p8060eb8bfd)" d="M 236.644403 79.55129 
C 238.031424 79.55129 239.361822 79.138359 240.342593 78.403438 
C 241.323365 77.668518 241.874434 76.671613 241.874434 75.632279 
C 241.874434 74.592945 241.323365 73.59604 240.342593 72.86112 
C 239.361822 72.126199 238.031424 71.713268 236.644403 71.713268 
C 235.257383 71.713268 233.926985 72.126199 232.946214 72.86112 
C 231.965442 73.59604 231.414373 74.592945 231.414373 75.632279 
C 231.414373 76.671613 231.965442 77.668518 232.946214 78.403438 
C 233.926985 79.138359 235.257383 79.55129 236.644403 79.55129 
z
" style="fill:#ff0000;opacity:0.2;stroke:#ff0000;stroke-linejoin:miter;stroke-width:2;"/>
   </g>
   <g id="patch_82">
    <path d="M 237.080239 28.604144 
Q 236.871592 51.117888 236.682603 71.510402 
" style="fill:none;opacity:0.5;stroke:#0000ff;stroke-linecap:round;stroke-width:3;"/>
    <path d="M 238.196439 70.024367 
L 236.682603 71.510402 
L 235.196568 69.996566 
" style="fill:none;opacity:0.5;stroke:#0000ff;stroke-linecap:round;stroke-width:3;"/>
   </g>
   <g id="[&quot;g_s&quot;:4,&quot;g_t&quot;:4,&quot;coords&quot;:[[370.0, -344.0],[354.5, -400.0]],&quot;certainty&quot;:11]">
    <path clip-path="url(#p8060eb8bfd)" d="M 288.508871 71.713268 
C 289.895891 71.713268 291.226289 71.300336 292.20706 70.565416 
C 293.187832 69.830496 293.738901 68.83359 293.738901 67.794256 
C 293.738901 66.754923 293.187832 65.758017 292.20706 65.023097 
C 291.226289 64.288177 289.895891 63.875245 288.508871 63.875245 
C 287.12185 63.875245 285.791452 64.288177 284.810681 65.023097 
C 283.829909 65.758017 283.27884 66.754923 283.27884 67.794256 
C 283.27884 68.83359 283.829909 69.830496 284.810681 70.565416 
C 285.791452 71.300336 287.12185 71.713268 288.508871 71.713268 
z
" style="fill:#0000ff;opacity:0.2;stroke:#0000ff;stroke-linejoin:miter;stroke-width:2;"/>
   </g>
   <g id="[&quot;g_s&quot;:4,&quot;g_t&quot;:4,&quot;coords&quot;:[[354.5, -400.0],[370.0, -344.0]],&quot;certainty&quot;:11]">
    <path clip-path="url(#p8060eb8bfd)" d="M 274.997959 108.290706 
C 276.384979 108.290706 277.715377 107.877774 278.696149 107.142854 
C 279.67692 106.407934 280.227989 105.411029 280.227989 104.371695 
C 280.227989 103.332361 279.67692 102.335456 278.696149 101.600535 
C 277.715377 100.865615 276.384979 100.452684 274.997959 100.452684 
C 273.610939 100.452684 272.28054 100.865615 271.299769 101.600535 
C 270.318998 102.335456 269.767929 103.332361 269.767929 104.371695 
C 269.767929 105.411029 270.318998 106.407934 271.299769 107.142854 
C 272.28054 107.877774 273.610939 108.290706 274.997959 108.290706 
z
" style="fill:#ff0000;opacity:0.2;stroke:#ff0000;stroke-linejoin:miter;stroke-width:2;"/>
   </g>
   <g id="patch_83">
    <path d="M 288.508871 67.794256 
Q 282.100588 85.143089 276.427335 100.502014 
" style="fill:none;opacity:0.5;stroke:#0000ff;stroke-linecap:round;stroke-width:3;"/>
    <path d="M 278.354156 99.614681 
L 276.427335 100.502014 
L 275.540002 98.575193 
" style="fill:none;opacity:0.5;stroke:#0000ff;stroke-linecap:round;stroke-width:3;"/>
   </g>
   <g id="[&quot;g_s&quot;:1,&quot;g_t&quot;:1,&quot;coords&quot;:[[310.5, -445.0],[311.0, -405.0]],&quot;certainty&quot;:10]">
    <path clip-path="url(#p8060eb8bfd)" d="M 236.644403 137.356706 
C 237.915839 137.356706 239.13537 136.978186 240.034411 136.304509 
C 240.933451 135.630832 241.438598 134.717002 241.438598 133.764279 
C 241.438598 132.811557 240.933451 131.897727 240.034411 131.22405 
C 239.13537 130.550373 237.915839 130.171852 236.644403 130.171852 
C 235.372968 130.171852 234.153436 130.550373 233.254396 131.22405 
C 232.355356 131.897727 231.850209 132.811557 231.850209 133.764279 
C 231.850209 134.717002 232.355356 135.630832 233.254396 136.304509 
C 234.153436 136.978186 235.372968 137.356706 236.644403 137.356706 
z
" style="fill:#0000ff;opacity:0.2;stroke:#0000ff;stroke-linejoin:miter;stroke-width:2;"/>
   </g>
   <g id="[&quot;g_s&quot;:1,&quot;g_t&quot;:1,&quot;coords&quot;:[[311.0, -405.0],[310.5, -445.0]],&quot;certainty&quot;:10]">
    <path clip-path="url(#p8060eb8bfd)" d="M 237.080239 111.229965 
C 238.351674 111.229965 239.571206 110.851444 240.470247 110.177767 
C 241.369287 109.50409 241.874434 108.59026 241.874434 107.637538 
C 241.874434 106.684815 241.369287 105.770985 240.470247 105.097308 
C 239.571206 104.423631 238.351674 104.045111 237.080239 104.045111 
C 235.808804 104.045111 234.589272 104.423631 233.690232 105.097308 
C 232.791191 105.770985 232.286045 106.684815 232.286045 107.637538 
C 232.286045 108.59026 232.791191 109.50409 233.690232 110.177767 
C 234.589272 110.851444 235.808804 111.229965 237.080239 111.229965 
z
" style="fill:#ff0000;opacity:0.2;stroke:#ff0000;stroke-linejoin:miter;stroke-width:2;"/>
   </g>
   <g id="patch_84">
    <path d="M 236.644403 133.764279 
Q 236.845642 121.700754 237.014448 111.581502 
" style="fill:none;opacity:0.5;stroke:#ff0000;stroke-linecap:round;stroke-width:2.75;"/>
    <path d="M 235.489637 113.056274 
L 237.014448 111.581502 
L 238.48922 113.106312 
" style="fill:none;opacity:0.5;stroke:#ff0000;stroke-linecap:round;stroke-width:2.75;"/>
   </g>
   <g id="[&quot;g_s&quot;:2,&quot;g_t&quot;:2,&quot;coords&quot;:[[265.5, -400.0],[250.0, -344.0]],&quot;certainty&quot;:11]">
    <path clip-path="url(#p8060eb8bfd)" d="M 197.419176 108.290706 
C 198.806196 108.290706 200.136595 107.877774 201.117366 107.142854 
C 202.098137 106.407934 202.649206 105.411029 202.649206 104.371695 
C 202.649206 103.332361 202.098137 102.335456 201.117366 101.600535 
C 200.136595 100.865615 198.806196 100.452684 197.419176 100.452684 
C 196.032156 100.452684 194.701758 100.865615 193.720986 101.600535 
C 192.740215 102.335456 192.189146 103.332361 192.189146 104.371695 
C 192.189146 105.411029 192.740215 106.407934 193.720986 107.142854 
C 194.701758 107.877774 196.032156 108.290706 197.419176 108.290706 
z
" style="fill:#0000ff;opacity:0.2;stroke:#0000ff;stroke-linejoin:miter;stroke-width:2;"/>
   </g>
   <g id="[&quot;g_s&quot;:2,&quot;g_t&quot;:2,&quot;coords&quot;:[[250.0, -344.0],[265.5, -400.0]],&quot;certainty&quot;:11]">
    <path clip-path="url(#p8060eb8bfd)" d="M 183.908265 71.713268 
C 185.295285 71.713268 186.625683 71.300336 187.606454 70.565416 
C 188.587226 69.830496 189.138295 68.83359 189.138295 67.794256 
C 189.138295 66.754923 188.587226 65.758017 187.606454 65.023097 
C 186.625683 64.288177 185.295285 63.875245 183.908265 63.875245 
C 182.521244 63.875245 181.190846 64.288177 180.210075 65.023097 
C 179.229303 65.758017 178.678234 66.754923 178.678234 67.794256 
C 178.678234 68.83359 179.229303 69.830496 180.210075 70.565416 
C 181.190846 71.300336 182.521244 71.713268 183.908265 71.713268 
z
" style="fill:#ff0000;opacity:0.2;stroke:#ff0000;stroke-linejoin:miter;stroke-width:2;"/>
   </g>
   <g id="patch_85">
    <path d="M 197.419176 104.371695 
Q 191.010894 87.022862 185.337641 71.663937 
" style="fill:none;opacity:0.5;stroke:#ff0000;stroke-linecap:round;stroke-width:3;"/>
    <path d="M 184.450307 73.590758 
L 185.337641 71.663937 
L 187.264462 72.551271 
" style="fill:none;opacity:0.5;stroke:#ff0000;stroke-linecap:round;stroke-width:3;"/>
   </g>
   <g id="[&quot;g_s&quot;:3,&quot;g_t&quot;:2,&quot;coords&quot;:[[310.5, -356.0],[250.0, -344.0]],&quot;certainty&quot;:11]">
    <path clip-path="url(#p8060eb8bfd)" d="M 236.644403 79.55129 
C 238.031424 79.55129 239.361822 79.138359 240.342593 78.403438 
C 241.323365 77.668518 241.874434 76.671613 241.874434 75.632279 
C 241.874434 74.592945 241.323365 73.59604 240.342593 72.86112 
C 239.361822 72.126199 238.031424 71.713268 236.644403 71.713268 
C 235.257383 71.713268 233.926985 72.126199 232.946214 72.86112 
C 231.965442 73.59604 231.414373 74.592945 231.414373 75.632279 
C 231.414373 76.671613 231.965442 77.668518 232.946214 78.403438 
C 233.926985 79.138359 235.257383 79.55129 236.644403 79.55129 
z
" style="fill:#0000ff;opacity:0.2;stroke:#0000ff;stroke-linejoin:miter;stroke-width:2;"/>
   </g>
   <g id="[&quot;g_s&quot;:2,&quot;g_t&quot;:3,&quot;coords&quot;:[[250.0, -344.0],[310.5, -356.0]],&quot;certainty&quot;:11]">
    <path clip-path="url(#p8060eb8bfd)" d="M 183.908265 71.713268 
C 185.295285 71.713268 186.625683 71.300336 187.606454 70.565416 
C 188.587226 69.830496 189.138295 68.83359 189.138295 67.794256 
C 189.138295 66.754923 188.587226 65.758017 187.606454 65.023097 
C 186.625683 64.288177 185.295285 63.875245 183.908265 63.875245 
C 182.521244 63.875245 181.190846 64.288177 180.210075 65.023097 
C 179.229303 65.758017 178.678234 66.754923 178.678234 67.794256 
C 178.678234 68.83359 179.229303 69.830496 180.210075 70.565416 
C 181.190846 71.300336 182.521244 71.713268 183.908265 71.713268 
z
" style="fill:#ff0000;opacity:0.2;stroke:#ff0000;stroke-linejoin:miter;stroke-width:2;"/>
   </g>
   <g id="patch_86">
    <path d="M 236.644403 75.632279 
Q 211.266102 71.860374 187.986072 68.400329 
" style="fill:none;opacity:0.5;stroke:#ff0000;stroke-linecap:round;stroke-width:3;"/>
    <path d="M 189.249256 70.10455 
L 187.986072 68.400329 
L 189.690293 67.137146 
" style="fill:none;opacity:0.5;stroke:#ff0000;stroke-linecap:round;stroke-width:3;"/>
   </g>
   <g id="[&quot;g_s&quot;:4,&quot;g_t&quot;:4,&quot;coords&quot;:[[354.5, -400.0],[370.0, -344.0]],&quot;certainty&quot;:12]">
    <path clip-path="url(#p8060eb8bfd)" d="M 274.997959 108.61729 
C 276.500564 108.61729 277.941829 108.169948 279.004331 107.373784 
C 280.066834 106.577621 280.663825 105.49764 280.663825 104.371695 
C 280.663825 103.24575 280.066834 102.165769 279.004331 101.369605 
C 277.941829 100.573442 276.500564 100.126099 274.997959 100.126099 
C 273.495354 100.126099 272.054089 100.573442 270.991587 101.369605 
C 269.929084 102.165769 269.332093 103.24575 269.332093 104.371695 
C 269.332093 105.49764 269.929084 106.577621 270.991587 107.373784 
C 272.054089 108.169948 273.495354 108.61729 274.997959 108.61729 
z
" style="fill:#0000ff;opacity:0.2;stroke:#0000ff;stroke-linejoin:miter;stroke-width:2;"/>
   </g>
   <g id="[&quot;g_s&quot;:4,&quot;g_t&quot;:4,&quot;coords&quot;:[[370.0, -344.0],[354.5, -400.0]],&quot;certainty&quot;:12]">
    <path clip-path="url(#p8060eb8bfd)" d="M 288.508871 72.039852 
C 290.011476 72.039852 291.452741 71.592509 292.515243 70.796346 
C 293.577745 70.000182 294.174737 68.920202 294.174737 67.794256 
C 294.174737 66.668311 293.577745 65.588331 292.515243 64.792167 
C 291.452741 63.996004 290.011476 63.548661 288.508871 63.548661 
C 287.006265 63.548661 285.565001 63.996004 284.502498 64.792167 
C 283.439996 65.588331 282.843004 66.668311 282.843004 67.794256 
C 282.843004 68.920202 283.439996 70.000182 284.502498 70.796346 
C 285.565001 71.592509 287.006265 72.039852 288.508871 72.039852 
z
" style="fill:#ff0000;opacity:0.2;stroke:#ff0000;stroke-linejoin:miter;stroke-width:2;"/>
   </g>
   <g id="patch_87">
    <path d="M 274.997959 104.371695 
Q 281.406241 87.022862 287.018242 71.829763 
" style="fill:none;opacity:0.5;stroke:#ff0000;stroke-linecap:round;stroke-width:3.25;"/>
    <path d="M 285.091421 72.717096 
L 287.018242 71.829763 
L 287.905576 73.756584 
" style="fill:none;opacity:0.5;stroke:#ff0000;stroke-linecap:round;stroke-width:3.25;"/>
   </g>
   <g id="patch_88">
    <path clip-path="url(#p8060eb8bfd)" d="M 236.862321 123.966751 
C 238.018172 123.966751 239.126837 123.622641 239.944146 123.010208 
C 240.761456 122.397775 241.22068 121.56702 241.22068 120.700908 
C 241.22068 119.834797 240.761456 119.004042 239.944146 118.391609 
C 239.126837 117.779176 238.018172 117.435066 236.862321 117.435066 
C 235.706471 117.435066 234.597806 117.779176 233.780496 118.391609 
C 232.963187 119.004042 232.503963 119.834797 232.503963 120.700908 
C 232.503963 121.56702 232.963187 122.397775 233.780496 123.010208 
C 234.597806 123.622641 235.706471 123.966751 236.862321 123.966751 
z
" style="fill:#008000;opacity:0.2;stroke:#008000;stroke-linejoin:miter;stroke-width:2;"/>
   </g>
   <g id="patch_89">
    <path clip-path="url(#p8060eb8bfd)" d="M 210.276334 74.97911 
C 211.432184 74.97911 212.540849 74.635001 213.358159 74.022567 
C 214.175468 73.410134 214.634693 72.579379 214.634693 71.713268 
C 214.634693 70.847156 214.175468 70.016402 213.358159 69.403968 
C 212.540849 68.791535 211.432184 68.447425 210.276334 68.447425 
C 209.120484 68.447425 208.011819 68.791535 207.194509 69.403968 
C 206.3772 70.016402 205.917975 70.847156 205.917975 71.713268 
C 205.917975 72.579379 206.3772 73.410134 207.194509 74.022567 
C 208.011819 74.635001 209.120484 74.97911 210.276334 74.97911 
z
" style="fill:#008000;opacity:0.2;stroke:#008000;stroke-linejoin:miter;stroke-width:2;"/>
   </g>
   <g id="patch_90">
    <path clip-path="url(#p8060eb8bfd)" d="M 281.753415 89.348818 
C 282.909265 89.348818 284.01793 89.004709 284.83524 88.392275 
C 285.652549 87.779842 286.111773 86.949087 286.111773 86.082976 
C 286.111773 85.216864 285.652549 84.38611 284.83524 83.773676 
C 284.01793 83.161243 282.909265 82.817133 281.753415 82.817133 
C 280.597565 82.817133 279.488899 83.161243 278.67159 83.773676 
C 277.85428 84.38611 277.395056 85.216864 277.395056 86.082976 
C 277.395056 86.949087 277.85428 87.779842 278.67159 88.392275 
C 279.488899 89.004709 280.597565 89.348818 281.753415 89.348818 
z
" style="fill:#008000;opacity:0.2;stroke:#008000;stroke-linejoin:miter;stroke-width:2;"/>
   </g>
   <g id="patch_91">
    <path clip-path="url(#p8060eb8bfd)" d="M 237.080239 120.700908 
C 241.70364 120.700908 246.138301 119.324469 249.407539 116.874736 
C 252.676777 114.425002 254.513674 111.101984 254.513674 107.637538 
C 254.513674 104.173091 252.676777 100.850073 249.407539 98.400339 
C 246.138301 95.950606 241.70364 94.574167 237.080239 94.574167 
C 232.456838 94.574167 228.022178 95.950606 224.75294 98.400339 
C 221.483702 100.850073 219.646805 104.173091 219.646805 107.637538 
C 219.646805 111.101984 221.483702 114.425002 224.75294 116.874736 
C 228.022178 119.324469 232.456838 120.700908 237.080239 120.700908 
z
" style="fill:none;opacity:0.2;stroke:#ff0000;stroke-linejoin:miter;stroke-width:2;"/>
   </g>
   <g id="patch_92">
    <path clip-path="url(#p8060eb8bfd)" d="M 236.644403 146.82765 
C 241.267804 146.82765 245.702465 145.451211 248.971703 143.001477 
C 252.240941 140.551744 254.077838 137.228726 254.077838 133.764279 
C 254.077838 130.299833 252.240941 126.976815 248.971703 124.527081 
C 245.702465 122.077348 241.267804 120.700908 236.644403 120.700908 
C 232.021003 120.700908 227.586342 122.077348 224.317104 124.527081 
C 221.047866 126.976815 219.210969 130.299833 219.210969 133.764279 
C 219.210969 137.228726 221.047866 140.551744 224.317104 143.001477 
C 227.586342 145.451211 232.021003 146.82765 236.644403 146.82765 
z
" style="fill:none;opacity:0.2;stroke:#0000ff;stroke-linejoin:miter;stroke-width:2;"/>
   </g>
   <g id="patch_93">
    <path clip-path="url(#p8060eb8bfd)" d="M 237.080239 114.169223 
C 239.39194 114.169223 241.60927 113.481003 243.243889 112.256137 
C 244.878508 111.03127 245.796956 109.369761 245.796956 107.637538 
C 245.796956 105.905314 244.878508 104.243805 243.243889 103.018939 
C 241.60927 101.794072 239.39194 101.105852 237.080239 101.105852 
C 234.768539 101.105852 232.551208 101.794072 230.916589 103.018939 
C 229.28197 104.243805 228.363522 105.905314 228.363522 107.637538 
C 228.363522 109.369761 229.28197 111.03127 230.916589 112.256137 
C 232.551208 113.481003 234.768539 114.169223 237.080239 114.169223 
z
" style="fill:none;opacity:0.2;stroke:#008000;stroke-linejoin:miter;stroke-width:2;"/>
   </g>
   <g id="patch_94">
    <path clip-path="url(#p8060eb8bfd)" d="M 236.644403 140.295965 
C 238.956104 140.295965 241.173434 139.607745 242.808053 138.382878 
C 244.442672 137.158012 245.361121 135.496503 245.361121 133.764279 
C 245.361121 132.032056 244.442672 130.370547 242.808053 129.14568 
C 241.173434 127.920813 238.956104 127.232594 236.644403 127.232594 
C 234.332703 127.232594 232.115373 127.920813 230.480754 129.14568 
C 228.846135 130.370547 227.927686 132.032056 227.927686 133.764279 
C 227.927686 135.496503 228.846135 137.158012 230.480754 138.382878 
C 232.115373 139.607745 234.332703 140.295965 236.644403 140.295965 
z
" style="fill:none;opacity:0.2;stroke:#008000;stroke-linejoin:miter;stroke-width:2;"/>
   </g>
   <g id="patch_95">
    <path d="M 236.862321 120.700908 
Q 223.569328 96.207088 210.276334 71.713268 
" style="fill:none;opacity:0.5;stroke:#008000;stroke-linecap:round;stroke-width:2;"/>
   </g>
   <g id="patch_96">
    <path d="M 237.056651 109.051554 
Q 236.879 119.701063 236.70135 130.350572 
" style="fill:none;opacity:0.5;stroke:#800080;stroke-linecap:round;stroke-width:2;"/>
    <path d="M 235.531841 110.526327 
L 237.056651 109.051554 
L 238.531424 110.576365 
" style="fill:none;opacity:0.5;stroke:#800080;stroke-linecap:round;stroke-width:2;"/>
    <path d="M 238.22616 128.875799 
L 236.70135 130.350572 
L 235.226577 128.825761 
" style="fill:none;opacity:0.5;stroke:#800080;stroke-linecap:round;stroke-width:2;"/>
   </g>
   <g id="patch_97">
    <path d="M 210.276334 71.713268 
Q 246.014874 78.898122 281.753415 86.082976 
" style="fill:none;opacity:0.5;stroke:#008000;stroke-linecap:round;stroke-width:2;"/>
   </g>
   <g id="patch_98">
    <path d="M 185.307112 68.002163 
Q 209.286566 71.566161 233.266019 75.130159 
" style="fill:none;opacity:0.5;stroke:#800080;stroke-linecap:round;stroke-width:2;"/>
    <path d="M 186.570296 69.706384 
L 185.307112 68.002163 
L 187.011333 66.73898 
" style="fill:none;opacity:0.5;stroke:#800080;stroke-linecap:round;stroke-width:2;"/>
    <path d="M 232.002836 73.425939 
L 233.266019 75.130159 
L 231.561799 76.393343 
" style="fill:none;opacity:0.5;stroke:#800080;stroke-linecap:round;stroke-width:2;"/>
   </g>
   <g id="patch_99">
    <path d="M 281.753415 86.082976 
Q 259.307868 103.391942 236.862321 120.700908 
" style="fill:none;opacity:0.5;stroke:#008000;stroke-linecap:round;stroke-width:2;"/>
   </g>
   <g id="patch_100">
    <path d="M 288.018851 69.120862 
Q 282.100588 85.143089 276.182325 101.165317 
" style="fill:none;opacity:0.5;stroke:#800080;stroke-linecap:round;stroke-width:2;"/>
    <path d="M 286.09203 70.008195 
L 288.018851 69.120862 
L 288.906185 71.047683 
" style="fill:none;opacity:0.5;stroke:#800080;stroke-linecap:round;stroke-width:2;"/>
    <path d="M 278.109147 100.277983 
L 276.182325 101.165317 
L 275.294992 99.238496 
" style="fill:none;opacity:0.5;stroke:#800080;stroke-linecap:round;stroke-width:2;"/>
   </g>
   <g id="line2d_1">
    <path clip-path="url(#p8060eb8bfd)" d="M 411.414583 184.711426 
L 61.874224 184.711426 
L 61.874224 137.683291 
L 411.414583 137.683291 
" style="fill:none;stroke:#ff0000;stroke-linecap:square;stroke-width:0.2;"/>
   </g>
   <g id="line2d_2">
    <path clip-path="url(#p8060eb8bfd)" d="M 404.441209 154.992257 
L 404.441209 186.997516 
L 68.847598 186.997516 
L 68.847598 154.992257 
" style="fill:none;stroke:#0000ff;stroke-linecap:square;stroke-width:0.2;"/>
   </g>
   <g id="line2d_3">
    <path clip-path="url(#p8060eb8bfd)" d="M 237.080239 293.790572 
L 183.908265 253.947291 
L 237.080239 214.757179 
L 288.508871 253.947291 
" style="fill:none;stroke:#ff0000;stroke-linecap:square;stroke-width:0.2;"/>
   </g>
   <g id="line2d_4">
    <path clip-path="url(#p8060eb8bfd)" d="M 236.644403 208.225493 
L 274.997959 236.964909 
L 236.644403 266.357494 
L 197.419176 236.964909 
" style="fill:none;stroke:#0000ff;stroke-linecap:square;stroke-width:0.2;"/>
   </g>
   <g id="line2d_5">
    <path clip-path="url(#p8060eb8bfd)" d="M 237.080239 107.637538 
L 183.908265 67.794256 
L 237.080239 28.604144 
L 288.508871 67.794256 
" style="fill:none;stroke:#ff0000;stroke-linecap:square;stroke-width:0.2;"/>
   </g>
   <g id="line2d_6">
    <path clip-path="url(#p8060eb8bfd)" d="M 236.644403 133.764279 
L 197.419176 104.371695 
L 236.644403 75.632279 
L 274.997959 104.371695 
" style="fill:none;stroke:#0000ff;stroke-linecap:square;stroke-width:0.2;"/>
   </g>
  </g>
 </g>
 <defs>
  <clipPath id="p8060eb8bfd">
   <rect height="307.51175" width="409.903625" x="37.576375" y="13.32"/>
  </clipPath>
 </defs>
</svg>
