<?xml version="1.0" encoding="utf-8" standalone="no"?>
<!DOCTYPE svg PUBLIC "-//W3C//DTD SVG 1.1//EN"
  "http://www.w3.org/Graphics/SVG/1.1/DTD/svg11.dtd">
<!-- Created with matplotlib (http://matplotlib.org/) -->
<svg height="345.6pt" version="1.1" viewBox="0 0 460.8 345.6" width="460.8pt" xmlns="http://www.w3.org/2000/svg" xmlns:xlink="http://www.w3.org/1999/xlink">
 <defs>
  <style type="text/css">
*{stroke-linecap:butt;stroke-linejoin:round;}
  </style>
 </defs>
 <g id="figure_1">
  <g id="patch_1">
   <path d="M 0 345.6 
L 460.8 345.6 
L 460.8 0 
L 0 0 
z
" style="fill:#ffffff;"/>
  </g>
  <g id="axes_1">
   <g id="patch_2">
    <path clip-path="url(#pec60e0d0b3)" d="M 244.487359 269.274266 
C 245.99006 269.274266 247.431417 268.88796 248.493988 268.200429 
C 249.556558 267.512897 250.153588 266.580273 250.153588 265.607956 
C 250.153588 264.635639 249.556558 263.703015 248.493988 263.015483 
C 247.431417 262.327951 245.99006 261.941646 244.487359 261.941646 
C 242.984658 261.941646 241.543301 262.327951 240.48073 263.015483 
C 239.41816 263.703015 238.82113 264.635639 238.82113 265.607956 
C 238.82113 266.580273 239.41816 267.512897 240.48073 268.200429 
C 241.543301 268.88796 242.984658 269.274266 244.487359 269.274266 
z
" style="fill:#ff0000;opacity:0.2;stroke:#ff0000;stroke-linejoin:miter;stroke-width:2;"/>
   </g>
   <g id="patch_3">
    <path clip-path="url(#pec60e0d0b3)" d="M 57.501814 157.451811 
C 59.004515 157.451811 60.445872 157.065506 61.508443 156.377974 
C 62.571013 155.690442 63.168043 154.757818 63.168043 153.785501 
C 63.168043 152.813185 62.571013 151.88056 61.508443 151.193029 
C 60.445872 150.505497 59.004515 150.119191 57.501814 150.119191 
C 55.999112 150.119191 54.557756 150.505497 53.495185 151.193029 
C 52.432615 151.88056 51.835585 152.813185 51.835585 153.785501 
C 51.835585 154.757818 52.432615 155.690442 53.495185 156.377974 
C 54.557756 157.065506 55.999112 157.451811 57.501814 157.451811 
z
" style="fill:#ff0000;opacity:0.2;stroke:#ff0000;stroke-linejoin:miter;stroke-width:2;"/>
   </g>
   <g id="patch_4">
    <path clip-path="url(#pec60e0d0b3)" d="M 244.487359 34.630427 
C 245.99006 34.630427 247.431417 34.244121 248.493988 33.556589 
C 249.556558 32.869058 250.153588 31.936434 250.153588 30.964117 
C 250.153588 29.9918 249.556558 29.059176 248.493988 28.371644 
C 247.431417 27.684112 245.99006 27.297807 244.487359 27.297807 
C 242.984658 27.297807 241.543301 27.684112 240.48073 28.371644 
C 239.41816 29.059176 238.82113 29.9918 238.82113 30.964117 
C 238.82113 31.936434 239.41816 32.869058 240.48073 33.556589 
C 241.543301 34.244121 242.984658 34.630427 244.487359 34.630427 
z
" style="fill:#ff0000;opacity:0.2;stroke:#ff0000;stroke-linejoin:miter;stroke-width:2;"/>
   </g>
   <g id="patch_5">
    <path clip-path="url(#pec60e0d0b3)" d="M 422.973561 146.452881 
C 424.476263 146.452881 425.917619 146.066576 426.98019 145.379044 
C 428.04276 144.691512 428.63979 143.758888 428.63979 142.786571 
C 428.63979 141.814255 428.04276 140.88163 426.98019 140.194099 
C 425.917619 139.506567 424.476263 139.120261 422.973561 139.120261 
C 421.47086 139.120261 420.029503 139.506567 418.966932 140.194099 
C 417.904362 140.88163 417.307332 141.814255 417.307332 142.786571 
C 417.307332 143.758888 417.904362 144.691512 418.966932 145.379044 
C 420.029503 146.066576 421.47086 146.452881 422.973561 146.452881 
z
" style="fill:#ff0000;opacity:0.2;stroke:#ff0000;stroke-linejoin:miter;stroke-width:2;"/>
   </g>
   <g id="patch_6">
    <path clip-path="url(#pec60e0d0b3)" d="M 241.654245 306.853943 
C 243.156946 306.853943 244.598303 306.467638 245.660873 305.780106 
C 246.723444 305.092574 247.320473 304.15995 247.320473 303.187633 
C 247.320473 302.215316 246.723444 301.282692 245.660873 300.595161 
C 244.598303 299.907629 243.156946 299.521323 241.654245 299.521323 
C 240.151543 299.521323 238.710186 299.907629 237.647616 300.595161 
C 236.585046 301.282692 235.988016 302.215316 235.988016 303.187633 
C 235.988016 304.15995 236.585046 305.092574 237.647616 305.780106 
C 238.710186 306.467638 240.151543 306.853943 241.654245 306.853943 
z
" style="fill:#0000ff;opacity:0.2;stroke:#0000ff;stroke-linejoin:miter;stroke-width:2;"/>
   </g>
   <g id="patch_7">
    <path clip-path="url(#pec60e0d0b3)" d="M 88.666071 209.696729 
C 90.168773 209.696729 91.61013 209.310423 92.6727 208.622891 
C 93.73527 207.935359 94.3323 207.002735 94.3323 206.030419 
C 94.3323 205.058102 93.73527 204.125478 92.6727 203.437946 
C 91.61013 202.750414 90.168773 202.364109 88.666071 202.364109 
C 87.16337 202.364109 85.722013 202.750414 84.659443 203.437946 
C 83.596872 204.125478 82.999843 205.058102 82.999843 206.030419 
C 82.999843 207.002735 83.596872 207.935359 84.659443 208.622891 
C 85.722013 209.310423 87.16337 209.696729 88.666071 209.696729 
z
" style="fill:#0000ff;opacity:0.2;stroke:#0000ff;stroke-linejoin:miter;stroke-width:2;"/>
   </g>
   <g id="patch_8">
    <path clip-path="url(#pec60e0d0b3)" d="M 241.654245 110.706359 
C 243.156946 110.706359 244.598303 110.320053 245.660873 109.632522 
C 246.723444 108.94499 247.320473 108.012366 247.320473 107.040049 
C 247.320473 106.067732 246.723444 105.135108 245.660873 104.447576 
C 244.598303 103.760045 243.156946 103.373739 241.654245 103.373739 
C 240.151543 103.373739 238.710186 103.760045 237.647616 104.447576 
C 236.585046 105.135108 235.988016 106.067732 235.988016 107.040049 
C 235.988016 108.012366 236.585046 108.94499 237.647616 109.632522 
C 238.710186 110.320053 240.151543 110.706359 241.654245 110.706359 
z
" style="fill:#0000ff;opacity:0.2;stroke:#0000ff;stroke-linejoin:miter;stroke-width:2;"/>
   </g>
   <g id="patch_9">
    <path clip-path="url(#pec60e0d0b3)" d="M 391.809304 204.197264 
C 393.312005 204.197264 394.753362 203.810958 395.815932 203.123426 
C 396.878503 202.435894 397.475532 201.50327 397.475532 200.530954 
C 397.475532 199.558637 396.878503 198.626013 395.815932 197.938481 
C 394.753362 197.250949 393.312005 196.864644 391.809304 196.864644 
C 390.306602 196.864644 388.865245 197.250949 387.802675 197.938481 
C 386.740105 198.626013 386.143075 199.558637 386.143075 200.530954 
C 386.143075 201.50327 386.740105 202.435894 387.802675 203.123426 
C 388.865245 203.810958 390.306602 204.197264 391.809304 204.197264 
z
" style="fill:#0000ff;opacity:0.2;stroke:#0000ff;stroke-linejoin:miter;stroke-width:2;"/>
   </g>
   <g id="patch_10">
    <path clip-path="url(#pec60e0d0b3)" d="M 244.487359 265.607956 
C 142.495243 265.607956 60.334928 227.111701 57.501814 153.785501 
C 57.501814 82.292457 139.662129 30.964117 244.487359 30.964117 
C 346.479474 30.964117 422.973561 84.125612 422.973561 142.786571 
C 422.973561 217.945926 346.479474 265.607956 244.487359 265.607956 
" style="fill:none;stroke:#ff0000;stroke-linejoin:miter;stroke-width:0.5;"/>
   </g>
   <g id="patch_11">
    <path clip-path="url(#pec60e0d0b3)" d="M 241.654245 303.187633 
C 153.827701 303.187633 91.499186 268.357688 88.666071 206.030419 
C 85.832957 151.035769 150.994586 107.040049 241.654245 107.040049 
C 329.480789 107.040049 391.809304 154.702079 391.809304 200.530954 
C 391.809304 261.025068 329.480789 303.187633 241.654245 303.187633 
" style="fill:none;stroke:#0000ff;stroke-linejoin:miter;stroke-width:0.5;"/>
   </g>
   <g id="[&quot;g_s&quot;:1,&quot;g_t&quot;:1,&quot;coords&quot;:[[241.0, 12.0],[240.0, -8.5]],&quot;certainty&quot;:11]">
    <path clip-path="url(#pec60e0d0b3)" d="M 244.487359 276.606886 
C 248.995463 276.606886 253.319534 275.447969 256.507245 273.385374 
C 259.694956 271.322778 261.486045 268.524906 261.486045 265.607956 
C 261.486045 262.691006 259.694956 259.893133 256.507245 257.830538 
C 253.319534 255.767943 248.995463 254.609026 244.487359 254.609026 
C 239.979255 254.609026 235.655184 255.767943 232.467473 257.830538 
C 229.279762 259.893133 227.488673 262.691006 227.488673 265.607956 
C 227.488673 268.524906 229.279762 271.322778 232.467473 273.385374 
C 235.655184 275.447969 239.979255 276.606886 244.487359 276.606886 
z
" style="fill:#0000ff;opacity:0.2;stroke:#0000ff;stroke-linejoin:miter;stroke-width:2;"/>
   </g>
   <g id="[&quot;g_s&quot;:1,&quot;g_t&quot;:1,&quot;coords&quot;:[[240.0, -8.5],[241.0, 12.0]],&quot;certainty&quot;:11]">
    <path clip-path="url(#pec60e0d0b3)" d="M 241.654245 314.186563 
C 246.162349 314.186563 250.48642 313.027647 253.674131 310.965051 
C 256.861842 308.902456 258.652931 306.104584 258.652931 303.187633 
C 258.652931 300.270683 256.861842 297.472811 253.674131 295.410215 
C 250.48642 293.34762 246.162349 292.188703 241.654245 292.188703 
C 237.14614 292.188703 232.82207 293.34762 229.634359 295.410215 
C 226.446648 297.472811 224.655559 300.270683 224.655559 303.187633 
C 224.655559 306.104584 226.446648 308.902456 229.634359 310.965051 
C 232.82207 313.027647 237.14614 314.186563 241.654245 314.186563 
z
" style="fill:#ff0000;opacity:0.2;stroke:#ff0000;stroke-linejoin:miter;stroke-width:2;"/>
   </g>
   <g id="patch_12">
    <path d="M 244.487359 265.607956 
Q 243.146022 283.400043 241.964157 299.076813 
" style="fill:none;opacity:0.5;stroke:#0000ff;stroke-linecap:round;stroke-width:3;"/>
    <path d="M 243.572677 297.693822 
L 241.964157 299.076813 
L 240.581166 297.468293 
" style="fill:none;opacity:0.5;stroke:#0000ff;stroke-linecap:round;stroke-width:3;"/>
   </g>
   <g id="[&quot;g_s&quot;:2,&quot;g_t&quot;:2,&quot;coords&quot;:[[175.0, 73.0],[186.0, 44.5]],&quot;certainty&quot;:10]">
    <path clip-path="url(#pec60e0d0b3)" d="M 57.501814 163.867854 
C 61.634243 163.867854 65.597974 162.805514 68.520043 160.914801 
C 71.442111 159.024089 73.083943 156.459372 73.083943 153.785501 
C 73.083943 151.11163 71.442111 148.546914 68.520043 146.656202 
C 65.597974 144.765489 61.634243 143.703149 57.501814 143.703149 
C 53.369385 143.703149 49.405653 144.765489 46.483585 146.656202 
C 43.561516 148.546914 41.919685 151.11163 41.919685 153.785501 
C 41.919685 156.459372 43.561516 159.024089 46.483585 160.914801 
C 49.405653 162.805514 53.369385 163.867854 57.501814 163.867854 
z
" style="fill:#0000ff;opacity:0.2;stroke:#0000ff;stroke-linejoin:miter;stroke-width:2;"/>
   </g>
   <g id="[&quot;g_s&quot;:2,&quot;g_t&quot;:2,&quot;coords&quot;:[[186.0, 44.5],[175.0, 73.0]],&quot;certainty&quot;:10]">
    <path clip-path="url(#pec60e0d0b3)" d="M 88.666071 216.112771 
C 92.7985 216.112771 96.762232 215.050431 99.6843 213.159718 
C 102.606369 211.269006 104.2482 208.70429 104.2482 206.030419 
C 104.2482 203.356547 102.606369 200.791831 99.6843 198.901119 
C 96.762232 197.010406 92.7985 195.948066 88.666071 195.948066 
C 84.533643 195.948066 80.569911 197.010406 77.647842 198.901119 
C 74.725774 200.791831 73.083943 203.356547 73.083943 206.030419 
C 73.083943 208.70429 74.725774 211.269006 77.647842 213.159718 
C 80.569911 215.050431 84.533643 216.112771 88.666071 216.112771 
z
" style="fill:#ff0000;opacity:0.2;stroke:#ff0000;stroke-linejoin:miter;stroke-width:2;"/>
   </g>
   <g id="patch_13">
    <path d="M 57.501814 153.785501 
Q 72.571323 179.048585 86.644669 202.641665 
" style="fill:none;opacity:0.5;stroke:#0000ff;stroke-linecap:round;stroke-width:2.75;"/>
    <path d="M 87.164463 200.585013 
L 86.644669 202.641665 
L 84.588018 202.121871 
" style="fill:none;opacity:0.5;stroke:#0000ff;stroke-linecap:round;stroke-width:2.75;"/>
   </g>
   <g id="[&quot;g_s&quot;:3,&quot;g_t&quot;:3,&quot;coords&quot;:[[241.0, 140.0],[240.0, 98.5]],&quot;certainty&quot;:12]">
    <path clip-path="url(#pec60e0d0b3)" d="M 244.487359 42.879624 
C 249.371139 42.879624 254.055549 41.624131 257.508902 39.389653 
C 260.962256 37.155175 262.902602 34.124146 262.902602 30.964117 
C 262.902602 27.804087 260.962256 24.773059 257.508902 22.538581 
C 254.055549 20.304102 249.371139 19.048609 244.487359 19.048609 
C 239.603579 19.048609 234.919169 20.304102 231.465816 22.538581 
C 228.012462 24.773059 226.072116 27.804087 226.072116 30.964117 
C 226.072116 34.124146 228.012462 37.155175 231.465816 39.389653 
C 234.919169 41.624131 239.603579 42.879624 244.487359 42.879624 
z
" style="fill:#0000ff;opacity:0.2;stroke:#0000ff;stroke-linejoin:miter;stroke-width:2;"/>
   </g>
   <g id="[&quot;g_s&quot;:3,&quot;g_t&quot;:3,&quot;coords&quot;:[[240.0, 98.5],[241.0, 140.0]],&quot;certainty&quot;:12]">
    <path clip-path="url(#pec60e0d0b3)" d="M 241.654245 118.955556 
C 246.538024 118.955556 251.222434 117.700063 254.675788 115.465585 
C 258.129142 113.231107 260.069488 110.200079 260.069488 107.040049 
C 260.069488 103.880019 258.129142 100.848991 254.675788 98.614513 
C 251.222434 96.380035 246.538024 95.124542 241.654245 95.124542 
C 236.770465 95.124542 232.086055 96.380035 228.632701 98.614513 
C 225.179348 100.848991 223.239002 103.880019 223.239002 107.040049 
C 223.239002 110.200079 225.179348 113.231107 228.632701 115.465585 
C 232.086055 117.700063 236.770465 118.955556 241.654245 118.955556 
z
" style="fill:#ff0000;opacity:0.2;stroke:#ff0000;stroke-linejoin:miter;stroke-width:2;"/>
   </g>
   <g id="patch_14">
    <path d="M 244.487359 30.964117 
Q 243.108066 68.00145 241.814296 102.742279 
" style="fill:none;opacity:0.5;stroke:#0000ff;stroke-linecap:round;stroke-width:3.25;"/>
    <path d="M 243.369079 101.29914 
L 241.814296 102.742279 
L 240.371158 101.187496 
" style="fill:none;opacity:0.5;stroke:#0000ff;stroke-linecap:round;stroke-width:3.25;"/>
   </g>
   <g id="[&quot;g_s&quot;:4,&quot;g_t&quot;:4,&quot;coords&quot;:[[304.0, 79.0],[293.0, 47.5]],&quot;certainty&quot;:11]">
    <path clip-path="url(#pec60e0d0b3)" d="M 422.973561 153.785501 
C 427.481665 153.785501 431.805736 152.626585 434.993447 150.563989 
C 438.181158 148.501394 439.972247 145.703522 439.972247 142.786571 
C 439.972247 139.869621 438.181158 137.071749 434.993447 135.009153 
C 431.805736 132.946558 427.481665 131.787641 422.973561 131.787641 
C 418.465457 131.787641 414.141386 132.946558 410.953675 135.009153 
C 407.765964 137.071749 405.974875 139.869621 405.974875 142.786571 
C 405.974875 145.703522 407.765964 148.501394 410.953675 150.563989 
C 414.141386 152.626585 418.465457 153.785501 422.973561 153.785501 
z
" style="fill:#0000ff;opacity:0.2;stroke:#0000ff;stroke-linejoin:miter;stroke-width:2;"/>
   </g>
   <g id="[&quot;g_s&quot;:4,&quot;g_t&quot;:4,&quot;coords&quot;:[[293.0, 47.5],[304.0, 79.0]],&quot;certainty&quot;:11]">
    <path clip-path="url(#pec60e0d0b3)" d="M 391.809304 211.529884 
C 396.317408 211.529884 400.641479 210.370967 403.82919 208.308372 
C 407.016901 206.245776 408.80799 203.447904 408.80799 200.530954 
C 408.80799 197.614003 407.016901 194.816131 403.82919 192.753536 
C 400.641479 190.69094 396.317408 189.532024 391.809304 189.532024 
C 387.301199 189.532024 382.977129 190.69094 379.789418 192.753536 
C 376.601706 194.816131 374.810618 197.614003 374.810618 200.530954 
C 374.810618 203.447904 376.601706 206.245776 379.789418 208.308372 
C 382.977129 210.370967 387.301199 211.529884 391.809304 211.529884 
z
" style="fill:#ff0000;opacity:0.2;stroke:#ff0000;stroke-linejoin:miter;stroke-width:2;"/>
   </g>
   <g id="patch_15">
    <path d="M 422.973561 142.786571 
Q 407.86601 170.779415 393.765959 196.905459 
" style="fill:none;opacity:0.5;stroke:#0000ff;stroke-linecap:round;stroke-width:3;"/>
    <path d="M 395.798396 196.297841 
L 393.765959 196.905459 
L 393.158342 194.873022 
" style="fill:none;opacity:0.5;stroke:#0000ff;stroke-linecap:round;stroke-width:3;"/>
   </g>
   <g id="[&quot;g_s&quot;:1,&quot;g_t&quot;:1,&quot;coords&quot;:[[240.0, -8.5],[241.0, 12.0]],&quot;certainty&quot;:11]">
    <path clip-path="url(#pec60e0d0b3)" d="M 241.654245 314.186563 
C 246.162349 314.186563 250.48642 313.027647 253.674131 310.965051 
C 256.861842 308.902456 258.652931 306.104584 258.652931 303.187633 
C 258.652931 300.270683 256.861842 297.472811 253.674131 295.410215 
C 250.48642 293.34762 246.162349 292.188703 241.654245 292.188703 
C 237.14614 292.188703 232.82207 293.34762 229.634359 295.410215 
C 226.446648 297.472811 224.655559 300.270683 224.655559 303.187633 
C 224.655559 306.104584 226.446648 308.902456 229.634359 310.965051 
C 232.82207 313.027647 237.14614 314.186563 241.654245 314.186563 
z
" style="fill:#0000ff;opacity:0.2;stroke:#0000ff;stroke-linejoin:miter;stroke-width:2;"/>
   </g>
   <g id="[&quot;g_s&quot;:1,&quot;g_t&quot;:1,&quot;coords&quot;:[[241.0, 12.0],[240.0, -8.5]],&quot;certainty&quot;:11]">
    <path clip-path="url(#pec60e0d0b3)" d="M 244.487359 276.606886 
C 248.995463 276.606886 253.319534 275.447969 256.507245 273.385374 
C 259.694956 271.322778 261.486045 268.524906 261.486045 265.607956 
C 261.486045 262.691006 259.694956 259.893133 256.507245 257.830538 
C 253.319534 255.767943 248.995463 254.609026 244.487359 254.609026 
C 239.979255 254.609026 235.655184 255.767943 232.467473 257.830538 
C 229.279762 259.893133 227.488673 262.691006 227.488673 265.607956 
C 227.488673 268.524906 229.279762 271.322778 232.467473 273.385374 
C 235.655184 275.447969 239.979255 276.606886 244.487359 276.606886 
z
" style="fill:#ff0000;opacity:0.2;stroke:#ff0000;stroke-linejoin:miter;stroke-width:2;"/>
   </g>
   <g id="patch_16">
    <path d="M 241.654245 303.187633 
Q 242.995582 285.395546 244.177446 269.718776 
" style="fill:none;opacity:0.5;stroke:#ff0000;stroke-linecap:round;stroke-width:3;"/>
    <path d="M 242.568926 271.101767 
L 244.177446 269.718776 
L 245.560437 271.327296 
" style="fill:none;opacity:0.5;stroke:#ff0000;stroke-linecap:round;stroke-width:3;"/>
   </g>
   <g id="[&quot;g_s&quot;:2,&quot;g_t&quot;:2,&quot;coords&quot;:[[186.0, 44.5],[175.0, 73.0]],&quot;certainty&quot;:11]">
    <path clip-path="url(#pec60e0d0b3)" d="M 88.666071 217.029349 
C 93.174176 217.029349 97.498246 215.870432 100.685957 213.807837 
C 103.873669 211.745241 105.664757 208.947369 105.664757 206.030419 
C 105.664757 203.113468 103.873669 200.315596 100.685957 198.253001 
C 97.498246 196.190405 93.174176 195.031489 88.666071 195.031489 
C 84.157967 195.031489 79.833896 196.190405 76.646185 198.253001 
C 73.458474 200.315596 71.667385 203.113468 71.667385 206.030419 
C 71.667385 208.947369 73.458474 211.745241 76.646185 213.807837 
C 79.833896 215.870432 84.157967 217.029349 88.666071 217.029349 
z
" style="fill:#0000ff;opacity:0.2;stroke:#0000ff;stroke-linejoin:miter;stroke-width:2;"/>
   </g>
   <g id="[&quot;g_s&quot;:2,&quot;g_t&quot;:2,&quot;coords&quot;:[[175.0, 73.0],[186.0, 44.5]],&quot;certainty&quot;:11]">
    <path clip-path="url(#pec60e0d0b3)" d="M 57.501814 164.784431 
C 62.009918 164.784431 66.333989 163.625515 69.5217 161.562919 
C 72.709411 159.500324 74.5005 156.702452 74.5005 153.785501 
C 74.5005 150.868551 72.709411 148.070679 69.5217 146.008083 
C 66.333989 143.945488 62.009918 142.786571 57.501814 142.786571 
C 52.99371 142.786571 48.669639 143.945488 45.481928 146.008083 
C 42.294217 148.070679 40.503128 150.868551 40.503128 153.785501 
C 40.503128 156.702452 42.294217 159.500324 45.481928 161.562919 
C 48.669639 163.625515 52.99371 164.784431 57.501814 164.784431 
z
" style="fill:#ff0000;opacity:0.2;stroke:#ff0000;stroke-linejoin:miter;stroke-width:2;"/>
   </g>
   <g id="patch_17">
    <path d="M 88.666071 206.030419 
Q 73.596563 180.767335 59.613776 157.326074 
" style="fill:none;opacity:0.5;stroke:#ff0000;stroke-linecap:round;stroke-width:3;"/>
    <path d="M 59.093983 159.382725 
L 59.613776 157.326074 
L 61.670428 157.845867 
" style="fill:none;opacity:0.5;stroke:#ff0000;stroke-linecap:round;stroke-width:3;"/>
   </g>
   <g id="[&quot;g_s&quot;:3,&quot;g_t&quot;:3,&quot;coords&quot;:[[240.0, 98.5],[241.0, 140.0]],&quot;certainty&quot;:12]">
    <path clip-path="url(#pec60e0d0b3)" d="M 241.654245 118.955556 
C 246.538024 118.955556 251.222434 117.700063 254.675788 115.465585 
C 258.129142 113.231107 260.069488 110.200079 260.069488 107.040049 
C 260.069488 103.880019 258.129142 100.848991 254.675788 98.614513 
C 251.222434 96.380035 246.538024 95.124542 241.654245 95.124542 
C 236.770465 95.124542 232.086055 96.380035 228.632701 98.614513 
C 225.179348 100.848991 223.239002 103.880019 223.239002 107.040049 
C 223.239002 110.200079 225.179348 113.231107 228.632701 115.465585 
C 232.086055 117.700063 236.770465 118.955556 241.654245 118.955556 
z
" style="fill:#0000ff;opacity:0.2;stroke:#0000ff;stroke-linejoin:miter;stroke-width:2;"/>
   </g>
   <g id="[&quot;g_s&quot;:3,&quot;g_t&quot;:3,&quot;coords&quot;:[[241.0, 140.0],[240.0, 98.5]],&quot;certainty&quot;:12]">
    <path clip-path="url(#pec60e0d0b3)" d="M 244.487359 42.879624 
C 249.371139 42.879624 254.055549 41.624131 257.508902 39.389653 
C 260.962256 37.155175 262.902602 34.124146 262.902602 30.964117 
C 262.902602 27.804087 260.962256 24.773059 257.508902 22.538581 
C 254.055549 20.304102 249.371139 19.048609 244.487359 19.048609 
C 239.603579 19.048609 234.919169 20.304102 231.465816 22.538581 
C 228.012462 24.773059 226.072116 27.804087 226.072116 30.964117 
C 226.072116 34.124146 228.012462 37.155175 231.465816 39.389653 
C 234.919169 41.624131 239.603579 42.879624 244.487359 42.879624 
z
" style="fill:#ff0000;opacity:0.2;stroke:#ff0000;stroke-linejoin:miter;stroke-width:2;"/>
   </g>
   <g id="patch_18">
    <path d="M 241.654245 107.040049 
Q 243.033538 70.002715 244.327307 35.261887 
" style="fill:none;opacity:0.5;stroke:#ff0000;stroke-linecap:round;stroke-width:3.25;"/>
    <path d="M 242.772524 36.705026 
L 244.327307 35.261887 
L 245.770446 36.81667 
" style="fill:none;opacity:0.5;stroke:#ff0000;stroke-linecap:round;stroke-width:3.25;"/>
   </g>
   <g id="[&quot;g_s&quot;:4,&quot;g_t&quot;:4,&quot;coords&quot;:[[293.0, 47.5],[304.0, 79.0]],&quot;certainty&quot;:10]">
    <path clip-path="url(#pec60e0d0b3)" d="M 391.809304 210.613306 
C 395.941732 210.613306 399.905464 209.550966 402.827533 207.660253 
C 405.749601 205.769541 407.391432 203.204825 407.391432 200.530954 
C 407.391432 197.857082 405.749601 195.292366 402.827533 193.401654 
C 399.905464 191.510941 395.941732 190.448601 391.809304 190.448601 
C 387.676875 190.448601 383.713143 191.510941 380.791075 193.401654 
C 377.869006 195.292366 376.227175 197.857082 376.227175 200.530954 
C 376.227175 203.204825 377.869006 205.769541 380.791075 207.660253 
C 383.713143 209.550966 387.676875 210.613306 391.809304 210.613306 
z
" style="fill:#0000ff;opacity:0.2;stroke:#0000ff;stroke-linejoin:miter;stroke-width:2;"/>
   </g>
   <g id="[&quot;g_s&quot;:4,&quot;g_t&quot;:4,&quot;coords&quot;:[[304.0, 79.0],[293.0, 47.5]],&quot;certainty&quot;:10]">
    <path clip-path="url(#pec60e0d0b3)" d="M 422.973561 152.868924 
C 427.10599 152.868924 431.069722 151.806584 433.99179 149.915871 
C 436.913859 148.025159 438.55569 145.460442 438.55569 142.786571 
C 438.55569 140.1127 436.913859 137.547984 433.99179 135.657272 
C 431.069722 133.766559 427.10599 132.704219 422.973561 132.704219 
C 418.841132 132.704219 414.877401 133.766559 411.955332 135.657272 
C 409.033264 137.547984 407.391432 140.1127 407.391432 142.786571 
C 407.391432 145.460442 409.033264 148.025159 411.955332 149.915871 
C 414.877401 151.806584 418.841132 152.868924 422.973561 152.868924 
z
" style="fill:#ff0000;opacity:0.2;stroke:#ff0000;stroke-linejoin:miter;stroke-width:2;"/>
   </g>
   <g id="patch_19">
    <path d="M 391.809304 200.530954 
Q 406.916855 172.53811 421.100864 146.256499 
" style="fill:none;opacity:0.5;stroke:#ff0000;stroke-linecap:round;stroke-width:2.75;"/>
    <path d="M 419.068427 146.864117 
L 421.100864 146.256499 
L 421.708482 148.288937 
" style="fill:none;opacity:0.5;stroke:#ff0000;stroke-linecap:round;stroke-width:2.75;"/>
   </g>
   <g id="patch_20">
    <path clip-path="url(#pec60e0d0b3)" d="M 243.070802 293.563569 
C 246.827555 293.563569 250.430948 292.597806 253.087374 290.878976 
C 255.743799 289.160147 257.236373 286.828586 257.236373 284.397795 
C 257.236373 281.967003 255.743799 279.635442 253.087374 277.916613 
C 250.430948 276.197783 246.827555 275.23202 243.070802 275.23202 
C 239.314048 275.23202 235.710656 276.197783 233.05423 277.916613 
C 230.397804 279.635442 228.90523 281.967003 228.90523 284.397795 
C 228.90523 286.828586 230.397804 289.160147 233.05423 290.878976 
C 235.710656 292.597806 239.314048 293.563569 243.070802 293.563569 
z
" style="fill:#008000;opacity:0.2;stroke:#008000;stroke-linejoin:miter;stroke-width:2;"/>
   </g>
   <g id="patch_21">
    <path clip-path="url(#pec60e0d0b3)" d="M 73.083943 189.073735 
C 76.840696 189.073735 80.444088 188.107971 83.100514 186.389142 
C 85.75694 184.670312 87.249514 182.338752 87.249514 179.90796 
C 87.249514 177.477168 85.75694 175.145608 83.100514 173.426778 
C 80.444088 171.707949 76.840696 170.742185 73.083943 170.742185 
C 69.327189 170.742185 65.723797 171.707949 63.067371 173.426778 
C 60.410945 175.145608 58.918371 177.477168 58.918371 179.90796 
C 58.918371 182.338752 60.410945 184.670312 63.067371 186.389142 
C 65.723797 188.107971 69.327189 189.073735 73.083943 189.073735 
z
" style="fill:#008000;opacity:0.2;stroke:#008000;stroke-linejoin:miter;stroke-width:2;"/>
   </g>
   <g id="patch_22">
    <path clip-path="url(#pec60e0d0b3)" d="M 243.070802 78.167858 
C 246.827555 78.167858 250.430948 77.202094 253.087374 75.483265 
C 255.743799 73.764435 257.236373 71.432875 257.236373 69.002083 
C 257.236373 66.571291 255.743799 64.239731 253.087374 62.520901 
C 250.430948 60.802072 246.827555 59.836308 243.070802 59.836308 
C 239.314048 59.836308 235.710656 60.802072 233.05423 62.520901 
C 230.397804 64.239731 228.90523 66.571291 228.90523 69.002083 
C 228.90523 71.432875 230.397804 73.764435 233.05423 75.483265 
C 235.710656 77.202094 239.314048 78.167858 243.070802 78.167858 
z
" style="fill:#008000;opacity:0.2;stroke:#008000;stroke-linejoin:miter;stroke-width:2;"/>
   </g>
   <g id="patch_23">
    <path clip-path="url(#pec60e0d0b3)" d="M 407.391432 180.824537 
C 411.148186 180.824537 414.751578 179.858774 417.408004 178.139944 
C 420.06443 176.421115 421.557004 174.089554 421.557004 171.658762 
C 421.557004 169.227971 420.06443 166.89641 417.408004 165.177581 
C 414.751578 163.458751 411.148186 162.492988 407.391432 162.492988 
C 403.634679 162.492988 400.031287 163.458751 397.374861 165.177581 
C 394.718435 166.89641 393.225861 169.227971 393.225861 171.658762 
C 393.225861 174.089554 394.718435 176.421115 397.374861 178.139944 
C 400.031287 179.858774 403.634679 180.824537 407.391432 180.824537 
z
" style="fill:#008000;opacity:0.2;stroke:#008000;stroke-linejoin:miter;stroke-width:2;"/>
   </g>
   <g id="patch_24">
    <path clip-path="url(#pec60e0d0b3)" d="M 244.487359 302.271056 
C 259.514373 302.271056 273.927942 298.408 284.553646 291.532682 
C 295.179349 284.657365 301.149645 275.331124 301.149645 265.607956 
C 301.149645 255.884788 295.179349 246.558547 284.553646 239.683229 
C 273.927942 232.807911 259.514373 228.944856 244.487359 228.944856 
C 229.460345 228.944856 215.046776 232.807911 204.421072 239.683229 
C 193.795369 246.558547 187.825073 255.884788 187.825073 265.607956 
C 187.825073 275.331124 193.795369 284.657365 204.421072 291.532682 
C 215.046776 298.408 229.460345 302.271056 244.487359 302.271056 
z
" style="fill:none;opacity:0.2;stroke:#ff0000;stroke-linejoin:miter;stroke-width:2;"/>
   </g>
   <g id="patch_25">
    <path clip-path="url(#pec60e0d0b3)" d="M 241.654245 339.850733 
C 256.681259 339.850733 271.094828 335.987678 281.720532 329.11236 
C 292.346235 322.237042 298.316531 312.910801 298.316531 303.187633 
C 298.316531 293.464465 292.346235 284.138225 281.720532 277.262907 
C 271.094828 270.387589 256.681259 266.524533 241.654245 266.524533 
C 226.627231 266.524533 212.213661 270.387589 201.587958 277.262907 
C 190.962254 284.138225 184.991958 293.464465 184.991958 303.187633 
C 184.991958 312.910801 190.962254 322.237042 201.587958 329.11236 
C 212.213661 335.987678 226.627231 339.850733 241.654245 339.850733 
z
" style="fill:none;opacity:0.2;stroke:#0000ff;stroke-linejoin:miter;stroke-width:2;"/>
   </g>
   <g id="patch_26">
    <path clip-path="url(#pec60e0d0b3)" d="M 244.487359 283.939506 
C 252.000866 283.939506 259.207651 282.007978 264.520502 278.570319 
C 269.833354 275.13266 272.818502 270.46954 272.818502 265.607956 
C 272.818502 260.746372 269.833354 256.083252 264.520502 252.645593 
C 259.207651 249.207934 252.000866 247.276406 244.487359 247.276406 
C 236.973852 247.276406 229.767067 249.207934 224.454216 252.645593 
C 219.141364 256.083252 216.156216 260.746372 216.156216 265.607956 
C 216.156216 270.46954 219.141364 275.13266 224.454216 278.570319 
C 229.767067 282.007978 236.973852 283.939506 244.487359 283.939506 
z
" style="fill:none;opacity:0.2;stroke:#008000;stroke-linejoin:miter;stroke-width:2;"/>
   </g>
   <g id="patch_27">
    <path clip-path="url(#pec60e0d0b3)" d="M 241.654245 321.519183 
C 249.167752 321.519183 256.374536 319.587655 261.687388 316.149996 
C 267.00024 312.712338 269.985388 308.049217 269.985388 303.187633 
C 269.985388 298.326049 267.00024 293.662929 261.687388 290.22527 
C 256.374536 286.787611 249.167752 284.856083 241.654245 284.856083 
C 234.140738 284.856083 226.933953 286.787611 221.621101 290.22527 
C 216.308249 293.662929 213.323101 298.326049 213.323101 303.187633 
C 213.323101 308.049217 216.308249 312.712338 221.621101 316.149996 
C 226.933953 319.587655 234.140738 321.519183 241.654245 321.519183 
z
" style="fill:none;opacity:0.2;stroke:#008000;stroke-linejoin:miter;stroke-width:2;"/>
   </g>
   <g id="patch_28">
    <path d="M 243.070802 284.397795 
Q 158.077372 232.152877 73.083943 179.90796 
" style="fill:none;opacity:0.5;stroke:#008000;stroke-linecap:round;stroke-width:2;"/>
   </g>
   <g id="patch_29">
    <path d="M 244.381044 267.018168 
Q 243.146022 283.400043 241.911 299.781919 
" style="fill:none;opacity:0.5;stroke:#800080;stroke-linecap:round;stroke-width:2;"/>
    <path d="M 242.772524 268.401159 
L 244.381044 267.018168 
L 245.764035 268.626687 
" style="fill:none;opacity:0.5;stroke:#800080;stroke-linecap:round;stroke-width:2;"/>
    <path d="M 243.51952 298.398927 
L 241.911 299.781919 
L 240.528009 298.173399 
" style="fill:none;opacity:0.5;stroke:#800080;stroke-linecap:round;stroke-width:2;"/>
   </g>
   <g id="patch_30">
    <path d="M 73.083943 179.90796 
Q 158.077372 124.455021 243.070802 69.002083 
" style="fill:none;opacity:0.5;stroke:#008000;stroke-linecap:round;stroke-width:2;"/>
   </g>
   <g id="patch_31">
    <path d="M 58.226295 155.000049 
Q 72.571323 179.048585 86.91635 203.09712 
" style="fill:none;opacity:0.5;stroke:#800080;stroke-linecap:round;stroke-width:2;"/>
    <path d="M 57.706502 157.0567 
L 58.226295 155.000049 
L 60.282947 155.519843 
" style="fill:none;opacity:0.5;stroke:#800080;stroke-linecap:round;stroke-width:2;"/>
    <path d="M 87.436143 201.040469 
L 86.91635 203.09712 
L 84.859698 202.577326 
" style="fill:none;opacity:0.5;stroke:#800080;stroke-linecap:round;stroke-width:2;"/>
   </g>
   <g id="patch_32">
    <path d="M 243.070802 69.002083 
Q 325.231117 120.330423 407.391432 171.658762 
" style="fill:none;opacity:0.5;stroke:#008000;stroke-linecap:round;stroke-width:2;"/>
   </g>
   <g id="patch_33">
    <path d="M 244.434729 32.377351 
Q 243.108066 68.00145 241.781403 103.62555 
" style="fill:none;opacity:0.5;stroke:#800080;stroke-linecap:round;stroke-width:2;"/>
    <path d="M 242.879946 33.820489 
L 244.434729 32.377351 
L 245.877868 33.932134 
" style="fill:none;opacity:0.5;stroke:#800080;stroke-linecap:round;stroke-width:2;"/>
    <path d="M 243.336186 102.182411 
L 241.781403 103.62555 
L 240.338264 102.070767 
" style="fill:none;opacity:0.5;stroke:#800080;stroke-linecap:round;stroke-width:2;"/>
   </g>
   <g id="patch_34">
    <path d="M 407.391432 171.658762 
Q 325.231117 228.028279 243.070802 284.397795 
" style="fill:none;opacity:0.5;stroke:#008000;stroke-linecap:round;stroke-width:2;"/>
   </g>
   <g id="patch_35">
    <path d="M 422.301895 144.031105 
Q 407.86601 170.779415 393.430126 197.527726 
" style="fill:none;opacity:0.5;stroke:#800080;stroke-linecap:round;stroke-width:2;"/>
    <path d="M 420.269457 144.638722 
L 422.301895 144.031105 
L 422.909512 146.063542 
" style="fill:none;opacity:0.5;stroke:#800080;stroke-linecap:round;stroke-width:2;"/>
    <path d="M 395.462563 196.920108 
L 393.430126 197.527726 
L 392.822508 195.495288 
" style="fill:none;opacity:0.5;stroke:#800080;stroke-linecap:round;stroke-width:2;"/>
   </g>
   <g id="line2d_1">
    <path clip-path="url(#pec60e0d0b3)" d="M 244.487359 265.607956 
L 57.501814 153.785501 
L 244.487359 30.964117 
L 422.973561 142.786571 
" style="fill:none;stroke:#ff0000;stroke-linecap:square;stroke-width:0.2;"/>
   </g>
   <g id="line2d_2">
    <path clip-path="url(#pec60e0d0b3)" d="M 241.654245 303.187633 
L 88.666071 206.030419 
L 241.654245 107.040049 
L 391.809304 200.530954 
" style="fill:none;stroke:#0000ff;stroke-linecap:square;stroke-width:0.2;"/>
   </g>
  </g>
 </g>
 <defs>
  <clipPath id="pec60e0d0b3">
   <rect height="307.51175" width="414.484625" x="32.995375" y="13.32"/>
  </clipPath>
 </defs>
</svg>
