<?xml version="1.0" encoding="utf-8" standalone="no"?>
<!DOCTYPE svg PUBLIC "-//W3C//DTD SVG 1.1//EN"
  "http://www.w3.org/Graphics/SVG/1.1/DTD/svg11.dtd">
<!-- Created with matplotlib (http://matplotlib.org/) -->
<svg height="345.6pt" version="1.1" viewBox="0 0 460.8 345.6" width="460.8pt" xmlns="http://www.w3.org/2000/svg" xmlns:xlink="http://www.w3.org/1999/xlink">
 <defs>
  <style type="text/css">
*{stroke-linecap:butt;stroke-linejoin:round;}
  </style>
 </defs>
 <g id="figure_1">
  <g id="patch_1">
   <path d="M 0 345.6 
L 460.8 345.6 
L 460.8 0 
L 0 0 
z
" style="fill:#ffffff;"/>
  </g>
  <g id="axes_1">
   <g id="patch_2">
    <path clip-path="url(#p6c167627cb)" d="M 245.439435 306.853943 
C 246.983578 306.853943 248.464686 306.405946 249.55656 305.608619 
C 250.648435 304.811291 251.26193 303.729731 251.26193 302.602139 
C 251.26193 301.474547 250.648435 300.392987 249.55656 299.595659 
C 248.464686 298.798331 246.983578 298.350334 245.439435 298.350334 
C 243.895291 298.350334 242.414184 298.798331 241.322309 299.595659 
C 240.230435 300.392987 239.61694 301.474547 239.61694 302.602139 
C 239.61694 303.729731 240.230435 304.811291 241.322309 305.608619 
C 242.414184 306.405946 243.895291 306.853943 245.439435 306.853943 
z
" style="fill:#ff0000;opacity:0.2;stroke:#ff0000;stroke-linejoin:miter;stroke-width:2;"/>
   </g>
   <g id="patch_3">
    <path clip-path="url(#p6c167627cb)" d="M 62.030853 181.425715 
C 63.574996 181.425715 65.056104 180.977718 66.147978 180.18039 
C 67.239853 179.383062 67.853347 178.301502 67.853347 177.17391 
C 67.853347 176.046319 67.239853 174.964758 66.147978 174.167431 
C 65.056104 173.370103 63.574996 172.922106 62.030853 172.922106 
C 60.486709 172.922106 59.005602 173.370103 57.913727 174.167431 
C 56.821853 174.964758 56.208358 176.046319 56.208358 177.17391 
C 56.208358 178.301502 56.821853 179.383062 57.913727 180.18039 
C 59.005602 180.977718 60.486709 181.425715 62.030853 181.425715 
z
" style="fill:#ff0000;opacity:0.2;stroke:#ff0000;stroke-linejoin:miter;stroke-width:2;"/>
   </g>
   <g id="patch_4">
    <path clip-path="url(#p6c167627cb)" d="M 245.439435 45.367975 
C 246.983578 45.367975 248.464686 44.919978 249.55656 44.122651 
C 250.648435 43.325323 251.26193 42.243763 251.26193 41.116171 
C 251.26193 39.988579 250.648435 38.907019 249.55656 38.109691 
C 248.464686 37.312364 246.983578 36.864367 245.439435 36.864367 
C 243.895291 36.864367 242.414184 37.312364 241.322309 38.109691 
C 240.230435 38.907019 239.61694 39.988579 239.61694 41.116171 
C 239.61694 42.243763 240.230435 43.325323 241.322309 44.122651 
C 242.414184 44.919978 243.895291 45.367975 245.439435 45.367975 
z
" style="fill:#ff0000;opacity:0.2;stroke:#ff0000;stroke-linejoin:miter;stroke-width:2;"/>
   </g>
   <g id="patch_5">
    <path clip-path="url(#p6c167627cb)" d="M 423.025522 170.796204 
C 424.569666 170.796204 426.050773 170.348207 427.142648 169.550879 
C 428.234522 168.753551 428.848017 167.671991 428.848017 166.544399 
C 428.848017 165.416808 428.234522 164.335247 427.142648 163.53792 
C 426.050773 162.740592 424.569666 162.292595 423.025522 162.292595 
C 421.481379 162.292595 420.000271 162.740592 418.908397 163.53792 
C 417.816522 164.335247 417.203028 165.416808 417.203028 166.544399 
C 417.203028 167.671991 417.816522 168.753551 418.908397 169.550879 
C 420.000271 170.348207 421.481379 170.796204 423.025522 170.796204 
z
" style="fill:#ff0000;opacity:0.2;stroke:#ff0000;stroke-linejoin:miter;stroke-width:2;"/>
   </g>
   <g id="patch_6">
    <path clip-path="url(#p6c167627cb)" d="M 249.806306 35.801416 
C 251.350449 35.801416 252.831557 35.353419 253.923431 34.556091 
C 255.015306 33.758763 255.628801 32.677203 255.628801 31.549611 
C 255.628801 30.422019 255.015306 29.340459 253.923431 28.543131 
C 252.831557 27.745804 251.350449 27.297807 249.806306 27.297807 
C 248.262162 27.297807 246.781055 27.745804 245.68918 28.543131 
C 244.597306 29.340459 243.983811 30.422019 243.983811 31.549611 
C 243.983811 32.677203 244.597306 33.758763 245.68918 34.556091 
C 246.781055 35.353419 248.262162 35.801416 249.806306 35.801416 
z
" style="fill:#0000ff;opacity:0.2;stroke:#0000ff;stroke-linejoin:miter;stroke-width:2;"/>
   </g>
   <g id="patch_7">
    <path clip-path="url(#p6c167627cb)" d="M 389.546178 146.348329 
C 391.090322 146.348329 392.571429 145.900332 393.663303 145.103004 
C 394.755178 144.305676 395.368673 143.224116 395.368673 142.096524 
C 395.368673 140.968933 394.755178 139.887372 393.663303 139.090045 
C 392.571429 138.292717 391.090322 137.84472 389.546178 137.84472 
C 388.002034 137.84472 386.520927 138.292717 385.429053 139.090045 
C 384.337178 139.887372 383.723683 140.968933 383.723683 142.096524 
C 383.723683 143.224116 384.337178 144.305676 385.429053 145.103004 
C 386.520927 145.900332 388.002034 146.348329 389.546178 146.348329 
z
" style="fill:#0000ff;opacity:0.2;stroke:#0000ff;stroke-linejoin:miter;stroke-width:2;"/>
   </g>
   <g id="patch_8">
    <path clip-path="url(#p6c167627cb)" d="M 241.072564 252.643438 
C 242.616707 252.643438 244.097815 252.195441 245.189689 251.398113 
C 246.281564 250.600785 246.895059 249.519225 246.895059 248.391633 
C 246.895059 247.264042 246.281564 246.182481 245.189689 245.385154 
C 244.097815 244.587826 242.616707 244.139829 241.072564 244.139829 
C 239.52842 244.139829 238.047313 244.587826 236.955438 245.385154 
C 235.863564 246.182481 235.250069 247.264042 235.250069 248.391633 
C 235.250069 249.519225 235.863564 250.600785 236.955438 251.398113 
C 238.047313 252.195441 239.52842 252.643438 241.072564 252.643438 
z
" style="fill:#0000ff;opacity:0.2;stroke:#0000ff;stroke-linejoin:miter;stroke-width:2;"/>
   </g>
   <g id="patch_9">
    <path clip-path="url(#p6c167627cb)" d="M 95.510197 148.474231 
C 97.054341 148.474231 98.535448 148.026234 99.627322 147.228906 
C 100.719197 146.431579 101.332692 145.350018 101.332692 144.222427 
C 101.332692 143.094835 100.719197 142.013275 99.627322 141.215947 
C 98.535448 140.418619 97.054341 139.970622 95.510197 139.970622 
C 93.966053 139.970622 92.484946 140.418619 91.393072 141.215947 
C 90.301197 142.013275 89.687702 143.094835 89.687702 144.222427 
C 89.687702 145.350018 90.301197 146.431579 91.393072 147.228906 
C 92.484946 148.026234 93.966053 148.474231 95.510197 148.474231 
z
" style="fill:#0000ff;opacity:0.2;stroke:#0000ff;stroke-linejoin:miter;stroke-width:2;"/>
   </g>
   <g id="patch_10">
    <path clip-path="url(#p6c167627cb)" d="M 245.439435 302.602139 
C 143.545778 302.602139 64.9421 260.084095 62.030853 177.17391 
C 62.030853 98.51553 140.634531 41.116171 245.439435 41.116171 
C 347.333092 41.116171 423.025522 100.641432 423.025522 166.544399 
C 423.025522 249.454584 347.333092 302.602139 245.439435 302.602139 
" style="fill:none;stroke:#ff0000;stroke-linejoin:miter;stroke-width:0.5;"/>
   </g>
   <g id="patch_11">
    <path clip-path="url(#p6c167627cb)" d="M 249.806306 31.549611 
C 337.143726 31.549611 389.546178 82.571263 389.546178 142.096524 
C 389.546178 216.503101 322.587489 248.391633 241.072564 248.391633 
C 150.823896 248.391633 95.510197 201.621785 95.510197 144.222427 
C 95.510197 74.067655 162.468886 31.549611 249.806306 31.549611 
" style="fill:none;stroke:#0000ff;stroke-linejoin:miter;stroke-width:0.5;"/>
   </g>
   <g id="[&quot;g_s&quot;:1,&quot;g_t&quot;:3,&quot;coords&quot;:[[241.0, -208.0],[239.5, -182.5]],&quot;certainty&quot;:11]">
    <path clip-path="url(#p6c167627cb)" d="M 245.439435 315.357552 
C 250.071866 315.357552 254.515188 314.013561 257.790811 311.621578 
C 261.066435 309.229595 262.906919 305.984914 262.906919 302.602139 
C 262.906919 299.219364 261.066435 295.974683 257.790811 293.5827 
C 254.515188 291.190717 250.071866 289.846726 245.439435 289.846726 
C 240.807004 289.846726 236.363682 291.190717 233.088058 293.5827 
C 229.812435 295.974683 227.971951 299.219364 227.971951 302.602139 
C 227.971951 305.984914 229.812435 309.229595 233.088058 311.621578 
C 236.363682 314.013561 240.807004 315.357552 245.439435 315.357552 
z
" style="fill:#0000ff;opacity:0.2;stroke:#0000ff;stroke-linejoin:miter;stroke-width:2;"/>
   </g>
   <g id="[&quot;g_s&quot;:3,&quot;g_t&quot;:1,&quot;coords&quot;:[[239.5, -182.5],[241.0, -208.0]],&quot;certainty&quot;:11]">
    <path clip-path="url(#p6c167627cb)" d="M 241.072564 261.147046 
C 245.704995 261.147046 250.148317 259.803056 253.42394 257.411072 
C 256.699564 255.019089 258.540048 251.774408 258.540048 248.391633 
C 258.540048 245.008858 256.699564 241.764177 253.42394 239.372194 
C 250.148317 236.980211 245.704995 235.63622 241.072564 235.63622 
C 236.440133 235.63622 231.996811 236.980211 228.721187 239.372194 
C 225.445564 241.764177 223.60508 245.008858 223.60508 248.391633 
C 223.60508 251.774408 225.445564 255.019089 228.721187 257.411072 
C 231.996811 259.803056 236.440133 261.147046 241.072564 261.147046 
z
" style="fill:#ff0000;opacity:0.2;stroke:#ff0000;stroke-linejoin:miter;stroke-width:2;"/>
   </g>
   <g id="patch_12">
    <path d="M 245.439435 302.602139 
Q 243.336359 276.494473 241.403612 252.501279 
" style="fill:none;opacity:0.5;stroke:#0000ff;stroke-linecap:round;stroke-width:3;"/>
    <path d="M 240.028896 254.116876 
L 241.403612 252.501279 
L 243.01921 253.875995 
" style="fill:none;opacity:0.5;stroke:#0000ff;stroke-linecap:round;stroke-width:3;"/>
   </g>
   <g id="[&quot;g_s&quot;:2,&quot;g_t&quot;:4,&quot;coords&quot;:[[178.0, -149.0],[189.5, -133.5]],&quot;certainty&quot;:10]">
    <path clip-path="url(#p6c167627cb)" d="M 62.030853 188.866372 
C 66.277248 188.866372 70.350293 187.634381 73.352948 185.441729 
C 76.355602 183.249078 78.042713 180.274788 78.042713 177.17391 
C 78.042713 174.073033 76.355602 171.098742 73.352948 168.906091 
C 70.350293 166.71344 66.277248 165.481448 62.030853 165.481448 
C 57.784458 165.481448 53.711412 166.71344 50.708758 168.906091 
C 47.706103 171.098742 46.018992 174.073033 46.018992 177.17391 
C 46.018992 180.274788 47.706103 183.249078 50.708758 185.441729 
C 53.711412 187.634381 57.784458 188.866372 62.030853 188.866372 
z
" style="fill:#0000ff;opacity:0.2;stroke:#0000ff;stroke-linejoin:miter;stroke-width:2;"/>
   </g>
   <g id="[&quot;g_s&quot;:4,&quot;g_t&quot;:2,&quot;coords&quot;:[[189.5, -133.5],[178.0, -149.0]],&quot;certainty&quot;:10]">
    <path clip-path="url(#p6c167627cb)" d="M 95.510197 155.914889 
C 99.756592 155.914889 103.829637 154.682897 106.832292 152.490246 
C 109.834947 150.297594 111.522057 147.323304 111.522057 144.222427 
C 111.522057 141.121549 109.834947 138.147259 106.832292 135.954607 
C 103.829637 133.761956 99.756592 132.529965 95.510197 132.529965 
C 91.263802 132.529965 87.190757 133.761956 84.188102 135.954607 
C 81.185447 138.147259 79.498337 141.121549 79.498337 144.222427 
C 79.498337 147.323304 81.185447 150.297594 84.188102 152.490246 
C 87.190757 154.682897 91.263802 155.914889 95.510197 155.914889 
z
" style="fill:#ff0000;opacity:0.2;stroke:#ff0000;stroke-linejoin:miter;stroke-width:2;"/>
   </g>
   <g id="patch_13">
    <path d="M 62.030853 177.17391 
Q 78.058394 161.399071 92.700053 146.988263 
" style="fill:none;opacity:0.5;stroke:#0000ff;stroke-linecap:round;stroke-width:2.75;"/>
    <path d="M 90.5788 146.971408 
L 92.700053 146.988263 
L 92.683198 149.109517 
" style="fill:none;opacity:0.5;stroke:#0000ff;stroke-linecap:round;stroke-width:2.75;"/>
   </g>
   <g id="[&quot;g_s&quot;:3,&quot;g_t&quot;:1,&quot;coords&quot;:[[241.0, -85.0],[242.5, -80.5]],&quot;certainty&quot;:12]">
    <path clip-path="url(#p6c167627cb)" d="M 245.439435 54.934535 
C 250.457902 54.934535 255.271501 53.478545 258.820093 50.88723 
C 262.368685 48.295915 264.362543 44.780844 264.362543 41.116171 
C 264.362543 37.451498 262.368685 33.936427 258.820093 31.345112 
C 255.271501 28.753797 250.457902 27.297807 245.439435 27.297807 
C 240.420968 27.297807 235.607369 28.753797 232.058777 31.345112 
C 228.510185 33.936427 226.516327 37.451498 226.516327 41.116171 
C 226.516327 44.780844 228.510185 48.295915 232.058777 50.88723 
C 235.607369 53.478545 240.420968 54.934535 245.439435 54.934535 
z
" style="fill:#0000ff;opacity:0.2;stroke:#0000ff;stroke-linejoin:miter;stroke-width:2;"/>
   </g>
   <g id="[&quot;g_s&quot;:1,&quot;g_t&quot;:3,&quot;coords&quot;:[[242.5, -80.5],[241.0, -85.0]],&quot;certainty&quot;:12]">
    <path clip-path="url(#p6c167627cb)" d="M 249.806306 45.367975 
C 254.824773 45.367975 259.638372 43.911985 263.186964 41.32067 
C 266.735556 38.729355 268.729414 35.214284 268.729414 31.549611 
C 268.729414 27.884938 266.735556 24.369867 263.186964 21.778552 
C 259.638372 19.187237 254.824773 17.731247 249.806306 17.731247 
C 244.787839 17.731247 239.97424 19.187237 236.425648 21.778552 
C 232.877056 24.369867 230.883198 27.884938 230.883198 31.549611 
C 230.883198 35.214284 232.877056 38.729355 236.425648 41.32067 
C 239.97424 43.911985 244.787839 45.367975 249.806306 45.367975 
z
" style="fill:#ff0000;opacity:0.2;stroke:#ff0000;stroke-linejoin:miter;stroke-width:2;"/>
   </g>
   <g id="patch_14">
    <path d="M 245.439435 41.116171 
Q 247.207612 37.242602 248.021493 35.459623 
" style="fill:none;opacity:0.5;stroke:#0000ff;stroke-linecap:round;stroke-width:3.25;"/>
    <path d="M 246.034053 36.201297 
L 248.021493 35.459623 
L 248.763168 37.447063 
" style="fill:none;opacity:0.5;stroke:#0000ff;stroke-linecap:round;stroke-width:3.25;"/>
   </g>
   <g id="[&quot;g_s&quot;:4,&quot;g_t&quot;:2,&quot;coords&quot;:[[302.0, -144.0],[290.5, -132.5]],&quot;certainty&quot;:11]">
    <path clip-path="url(#p6c167627cb)" d="M 423.025522 179.299813 
C 427.657953 179.299813 432.101275 177.955822 435.376899 175.563839 
C 438.652522 173.171855 440.493006 169.927175 440.493006 166.544399 
C 440.493006 163.161624 438.652522 159.916944 435.376899 157.52496 
C 432.101275 155.132977 427.657953 153.788986 423.025522 153.788986 
C 418.393091 153.788986 413.949769 155.132977 410.674146 157.52496 
C 407.398523 159.916944 405.558038 163.161624 405.558038 166.544399 
C 405.558038 169.927175 407.398523 173.171855 410.674146 175.563839 
C 413.949769 177.955822 418.393091 179.299813 423.025522 179.299813 
z
" style="fill:#0000ff;opacity:0.2;stroke:#0000ff;stroke-linejoin:miter;stroke-width:2;"/>
   </g>
   <g id="[&quot;g_s&quot;:2,&quot;g_t&quot;:4,&quot;coords&quot;:[[290.5, -132.5],[302.0, -144.0]],&quot;certainty&quot;:11]">
    <path clip-path="url(#p6c167627cb)" d="M 389.546178 154.851937 
C 394.178609 154.851937 398.621931 153.507947 401.897554 151.115963 
C 405.173178 148.72398 407.013662 145.479299 407.013662 142.096524 
C 407.013662 138.713749 405.173178 135.469069 401.897554 133.077085 
C 398.621931 130.685102 394.178609 129.341111 389.546178 129.341111 
C 384.913747 129.341111 380.470425 130.685102 377.194802 133.077085 
C 373.919178 135.469069 372.078694 138.713749 372.078694 142.096524 
C 372.078694 145.479299 373.919178 148.72398 377.194802 151.115963 
C 380.470425 153.507947 384.913747 154.851937 389.546178 154.851937 
z
" style="fill:#ff0000;opacity:0.2;stroke:#ff0000;stroke-linejoin:miter;stroke-width:2;"/>
   </g>
   <g id="patch_15">
    <path d="M 423.025522 166.544399 
Q 407.094022 154.910619 392.87569 144.527859 
" style="fill:none;opacity:0.5;stroke:#0000ff;stroke-linecap:round;stroke-width:3;"/>
    <path d="M 393.202478 146.623857 
L 392.87569 144.527859 
L 394.971688 144.201071 
" style="fill:none;opacity:0.5;stroke:#0000ff;stroke-linecap:round;stroke-width:3;"/>
   </g>
   <g id="[&quot;g_s&quot;:1,&quot;g_t&quot;:3,&quot;coords&quot;:[[242.5, -80.5],[241.0, -85.0]],&quot;certainty&quot;:10]">
    <path clip-path="url(#p6c167627cb)" d="M 249.806306 43.242073 
C 254.052701 43.242073 258.125746 42.010082 261.128401 39.81743 
C 264.131056 37.624779 265.818166 34.650488 265.818166 31.549611 
C 265.818166 28.448734 264.131056 25.474443 261.128401 23.281792 
C 258.125746 21.089141 254.052701 19.857149 249.806306 19.857149 
C 245.559911 19.857149 241.486866 21.089141 238.484211 23.281792 
C 235.481556 25.474443 233.794445 28.448734 233.794445 31.549611 
C 233.794445 34.650488 235.481556 37.624779 238.484211 39.81743 
C 241.486866 42.010082 245.559911 43.242073 249.806306 43.242073 
z
" style="fill:#0000ff;opacity:0.2;stroke:#0000ff;stroke-linejoin:miter;stroke-width:2;"/>
   </g>
   <g id="[&quot;g_s&quot;:3,&quot;g_t&quot;:1,&quot;coords&quot;:[[241.0, -85.0],[242.5, -80.5]],&quot;certainty&quot;:10]">
    <path clip-path="url(#p6c167627cb)" d="M 245.439435 52.808633 
C 249.68583 52.808633 253.758875 51.576641 256.76153 49.38399 
C 259.764185 47.191339 261.451295 44.217048 261.451295 41.116171 
C 261.451295 38.015294 259.764185 35.041003 256.76153 32.848352 
C 253.758875 30.655701 249.68583 29.423709 245.439435 29.423709 
C 241.19304 29.423709 237.119995 30.655701 234.11734 32.848352 
C 231.114685 35.041003 229.427574 38.015294 229.427574 41.116171 
C 229.427574 44.217048 231.114685 47.191339 234.11734 49.38399 
C 237.119995 51.576641 241.19304 52.808633 245.439435 52.808633 
z
" style="fill:#ff0000;opacity:0.2;stroke:#ff0000;stroke-linejoin:miter;stroke-width:2;"/>
   </g>
   <g id="patch_16">
    <path d="M 249.806306 31.549611 
Q 248.038128 35.42318 247.077433 37.527789 
" style="fill:none;opacity:0.5;stroke:#ff0000;stroke-linecap:round;stroke-width:2.75;"/>
    <path d="M 249.064873 36.786114 
L 247.077433 37.527789 
L 246.335758 35.540348 
" style="fill:none;opacity:0.5;stroke:#ff0000;stroke-linecap:round;stroke-width:2.75;"/>
   </g>
   <g id="[&quot;g_s&quot;:2,&quot;g_t&quot;:4,&quot;coords&quot;:[[290.5, -132.5],[302.0, -144.0]],&quot;certainty&quot;:11]">
    <path clip-path="url(#p6c167627cb)" d="M 389.546178 154.851937 
C 394.178609 154.851937 398.621931 153.507947 401.897554 151.115963 
C 405.173178 148.72398 407.013662 145.479299 407.013662 142.096524 
C 407.013662 138.713749 405.173178 135.469069 401.897554 133.077085 
C 398.621931 130.685102 394.178609 129.341111 389.546178 129.341111 
C 384.913747 129.341111 380.470425 130.685102 377.194802 133.077085 
C 373.919178 135.469069 372.078694 138.713749 372.078694 142.096524 
C 372.078694 145.479299 373.919178 148.72398 377.194802 151.115963 
C 380.470425 153.507947 384.913747 154.851937 389.546178 154.851937 
z
" style="fill:#0000ff;opacity:0.2;stroke:#0000ff;stroke-linejoin:miter;stroke-width:2;"/>
   </g>
   <g id="[&quot;g_s&quot;:4,&quot;g_t&quot;:2,&quot;coords&quot;:[[302.0, -144.0],[290.5, -132.5]],&quot;certainty&quot;:11]">
    <path clip-path="url(#p6c167627cb)" d="M 423.025522 179.299813 
C 427.657953 179.299813 432.101275 177.955822 435.376899 175.563839 
C 438.652522 173.171855 440.493006 169.927175 440.493006 166.544399 
C 440.493006 163.161624 438.652522 159.916944 435.376899 157.52496 
C 432.101275 155.132977 427.657953 153.788986 423.025522 153.788986 
C 418.393091 153.788986 413.949769 155.132977 410.674146 157.52496 
C 407.398523 159.916944 405.558038 163.161624 405.558038 166.544399 
C 405.558038 169.927175 407.398523 173.171855 410.674146 175.563839 
C 413.949769 177.955822 418.393091 179.299813 423.025522 179.299813 
z
" style="fill:#ff0000;opacity:0.2;stroke:#ff0000;stroke-linejoin:miter;stroke-width:2;"/>
   </g>
   <g id="patch_17">
    <path d="M 389.546178 142.096524 
Q 405.477679 153.730305 419.696011 164.113065 
" style="fill:none;opacity:0.5;stroke:#ff0000;stroke-linecap:round;stroke-width:3;"/>
    <path d="M 419.369222 162.017066 
L 419.696011 164.113065 
L 417.600012 164.439853 
" style="fill:none;opacity:0.5;stroke:#ff0000;stroke-linecap:round;stroke-width:3;"/>
   </g>
   <g id="[&quot;g_s&quot;:3,&quot;g_t&quot;:1,&quot;coords&quot;:[[239.5, -182.5],[241.0, -208.0]],&quot;certainty&quot;:11]">
    <path clip-path="url(#p6c167627cb)" d="M 241.072564 261.147046 
C 245.704995 261.147046 250.148317 259.803056 253.42394 257.411072 
C 256.699564 255.019089 258.540048 251.774408 258.540048 248.391633 
C 258.540048 245.008858 256.699564 241.764177 253.42394 239.372194 
C 250.148317 236.980211 245.704995 235.63622 241.072564 235.63622 
C 236.440133 235.63622 231.996811 236.980211 228.721187 239.372194 
C 225.445564 241.764177 223.60508 245.008858 223.60508 248.391633 
C 223.60508 251.774408 225.445564 255.019089 228.721187 257.411072 
C 231.996811 259.803056 236.440133 261.147046 241.072564 261.147046 
z
" style="fill:#0000ff;opacity:0.2;stroke:#0000ff;stroke-linejoin:miter;stroke-width:2;"/>
   </g>
   <g id="[&quot;g_s&quot;:1,&quot;g_t&quot;:3,&quot;coords&quot;:[[241.0, -208.0],[239.5, -182.5]],&quot;certainty&quot;:11]">
    <path clip-path="url(#p6c167627cb)" d="M 245.439435 315.357552 
C 250.071866 315.357552 254.515188 314.013561 257.790811 311.621578 
C 261.066435 309.229595 262.906919 305.984914 262.906919 302.602139 
C 262.906919 299.219364 261.066435 295.974683 257.790811 293.5827 
C 254.515188 291.190717 250.071866 289.846726 245.439435 289.846726 
C 240.807004 289.846726 236.363682 291.190717 233.088058 293.5827 
C 229.812435 295.974683 227.971951 299.219364 227.971951 302.602139 
C 227.971951 305.984914 229.812435 309.229595 233.088058 311.621578 
C 236.363682 314.013561 240.807004 315.357552 245.439435 315.357552 
z
" style="fill:#ff0000;opacity:0.2;stroke:#ff0000;stroke-linejoin:miter;stroke-width:2;"/>
   </g>
   <g id="patch_18">
    <path d="M 241.072564 248.391633 
Q 243.17564 274.499299 245.108387 298.492493 
" style="fill:none;opacity:0.5;stroke:#ff0000;stroke-linecap:round;stroke-width:3;"/>
    <path d="M 246.483103 296.876896 
L 245.108387 298.492493 
L 243.492789 297.117777 
" style="fill:none;opacity:0.5;stroke:#ff0000;stroke-linecap:round;stroke-width:3;"/>
   </g>
   <g id="[&quot;g_s&quot;:4,&quot;g_t&quot;:2,&quot;coords&quot;:[[189.5, -133.5],[178.0, -149.0]],&quot;certainty&quot;:12]">
    <path clip-path="url(#p6c167627cb)" d="M 95.510197 158.040791 
C 100.528664 158.040791 105.342263 156.584801 108.890855 153.993486 
C 112.439447 151.40217 114.433305 147.8871 114.433305 144.222427 
C 114.433305 140.557754 112.439447 137.042683 108.890855 134.451368 
C 105.342263 131.860052 100.528664 130.404062 95.510197 130.404062 
C 90.49173 130.404062 85.678131 131.860052 82.129539 134.451368 
C 78.580947 137.042683 76.587089 140.557754 76.587089 144.222427 
C 76.587089 147.8871 78.580947 151.40217 82.129539 153.993486 
C 85.678131 156.584801 90.49173 158.040791 95.510197 158.040791 
z
" style="fill:#0000ff;opacity:0.2;stroke:#0000ff;stroke-linejoin:miter;stroke-width:2;"/>
   </g>
   <g id="[&quot;g_s&quot;:2,&quot;g_t&quot;:4,&quot;coords&quot;:[[178.0, -149.0],[189.5, -133.5]],&quot;certainty&quot;:12]">
    <path clip-path="url(#p6c167627cb)" d="M 62.030853 190.992274 
C 67.049319 190.992274 71.862918 189.536284 75.41151 186.944969 
C 78.960102 184.353654 80.95396 180.838583 80.95396 177.17391 
C 80.95396 173.509237 78.960102 169.994166 75.41151 167.402851 
C 71.862918 164.811536 67.049319 163.355546 62.030853 163.355546 
C 57.012386 163.355546 52.198787 164.811536 48.650195 167.402851 
C 45.101603 169.994166 43.107745 173.509237 43.107745 177.17391 
C 43.107745 180.838583 45.101603 184.353654 48.650195 186.944969 
C 52.198787 189.536284 57.012386 190.992274 62.030853 190.992274 
z
" style="fill:#ff0000;opacity:0.2;stroke:#ff0000;stroke-linejoin:miter;stroke-width:2;"/>
   </g>
   <g id="patch_19">
    <path d="M 95.510197 144.222427 
Q 79.482656 159.997266 65.092975 174.160068 
" style="fill:none;opacity:0.5;stroke:#ff0000;stroke-linecap:round;stroke-width:3.25;"/>
    <path d="M 67.214228 174.176923 
L 65.092975 174.160068 
L 65.10983 172.038814 
" style="fill:none;opacity:0.5;stroke:#ff0000;stroke-linecap:round;stroke-width:3.25;"/>
   </g>
   <g id="patch_20">
    <path clip-path="url(#p6c167627cb)" d="M 243.255999 286.126397 
C 247.116358 286.126397 250.819127 285.006405 253.548813 283.013085 
C 256.278499 281.019766 257.812236 278.315865 257.812236 275.496886 
C 257.812236 272.677907 256.278499 269.974006 253.548813 267.980687 
C 250.819127 265.987367 247.116358 264.867375 243.255999 264.867375 
C 239.39564 264.867375 235.692872 265.987367 232.963186 267.980687 
C 230.2335 269.974006 228.699763 272.677907 228.699763 275.496886 
C 228.699763 278.315865 230.2335 281.019766 232.963186 283.013085 
C 235.692872 285.006405 239.39564 286.126397 243.255999 286.126397 
z
" style="fill:#008000;opacity:0.2;stroke:#008000;stroke-linejoin:miter;stroke-width:2;"/>
   </g>
   <g id="patch_21">
    <path clip-path="url(#p6c167627cb)" d="M 78.770525 171.327679 
C 82.630884 171.327679 86.333652 170.207687 89.063338 168.214368 
C 91.793025 166.221048 93.326761 163.517148 93.326761 160.698168 
C 93.326761 157.879189 91.793025 155.175289 89.063338 153.181969 
C 86.333652 151.18865 82.630884 150.068658 78.770525 150.068658 
C 74.910166 150.068658 71.207397 151.18865 68.477711 153.181969 
C 65.748025 155.175289 64.214288 157.879189 64.214288 160.698168 
C 64.214288 163.517148 65.748025 166.221048 68.477711 168.214368 
C 71.207397 170.207687 74.910166 171.327679 78.770525 171.327679 
z
" style="fill:#008000;opacity:0.2;stroke:#008000;stroke-linejoin:miter;stroke-width:2;"/>
   </g>
   <g id="patch_22">
    <path clip-path="url(#p6c167627cb)" d="M 247.62287 46.962402 
C 251.483229 46.962402 255.185998 45.84241 257.915684 43.84909 
C 260.64537 41.855771 262.179107 39.15187 262.179107 36.332891 
C 262.179107 33.513912 260.64537 30.810011 257.915684 28.816692 
C 255.185998 26.823373 251.483229 25.70338 247.62287 25.70338 
C 243.762511 25.70338 240.059743 26.823373 237.330057 28.816692 
C 234.600371 30.810011 233.066634 33.513912 233.066634 36.332891 
C 233.066634 39.15187 234.600371 41.855771 237.330057 43.84909 
C 240.059743 45.84241 243.762511 46.962402 247.62287 46.962402 
z
" style="fill:#008000;opacity:0.2;stroke:#008000;stroke-linejoin:miter;stroke-width:2;"/>
   </g>
   <g id="patch_23">
    <path clip-path="url(#p6c167627cb)" d="M 406.28585 164.949973 
C 410.146209 164.949973 413.848978 163.82998 416.578664 161.836661 
C 419.30835 159.843342 420.842087 157.139441 420.842087 154.320462 
C 420.842087 151.501483 419.30835 148.797582 416.578664 146.804263 
C 413.848978 144.810943 410.146209 143.690951 406.28585 143.690951 
C 402.425491 143.690951 398.722723 144.810943 395.993037 146.804263 
C 393.26335 148.797582 391.729614 151.501483 391.729614 154.320462 
C 391.729614 157.139441 393.26335 159.843342 395.993037 161.836661 
C 398.722723 163.82998 402.425491 164.949973 406.28585 164.949973 
z
" style="fill:#008000;opacity:0.2;stroke:#008000;stroke-linejoin:miter;stroke-width:2;"/>
   </g>
   <g id="patch_24">
    <path clip-path="url(#p6c167627cb)" d="M 245.439435 345.120182 
C 260.880871 345.120182 275.691945 340.640213 286.61069 332.666936 
C 297.529434 324.693658 303.664382 313.878056 303.664382 302.602139 
C 303.664382 291.326222 297.529434 280.510619 286.61069 272.537342 
C 275.691945 264.564065 260.880871 260.084095 245.439435 260.084095 
C 229.997998 260.084095 215.186925 264.564065 204.26818 272.537342 
C 193.349436 280.510619 187.214488 291.326222 187.214488 302.602139 
C 187.214488 313.878056 193.349436 324.693658 204.26818 332.666936 
C 215.186925 340.640213 229.997998 345.120182 245.439435 345.120182 
z
" style="fill:none;opacity:0.2;stroke:#ff0000;stroke-linejoin:miter;stroke-width:2;"/>
   </g>
   <g id="patch_25">
    <path clip-path="url(#p6c167627cb)" d="M 249.806306 74.067655 
C 265.247742 74.067655 280.058816 69.587685 290.977561 61.614408 
C 301.896305 53.641131 308.031253 42.825528 308.031253 31.549611 
C 308.031253 20.273694 301.896305 9.458092 290.977561 1.484814 
C 280.058816 -6.488463 265.247742 -10.968432 249.806306 -10.968432 
C 234.364869 -10.968432 219.553796 -6.488463 208.635051 1.484814 
C 197.716307 9.458092 191.581359 20.273694 191.581359 31.549611 
C 191.581359 42.825528 197.716307 53.641131 208.635051 61.614408 
C 219.553796 69.587685 234.364869 74.067655 249.806306 74.067655 
z
" style="fill:none;opacity:0.2;stroke:#0000ff;stroke-linejoin:miter;stroke-width:2;"/>
   </g>
   <g id="patch_26">
    <path clip-path="url(#p6c167627cb)" d="M 245.439435 323.861161 
C 253.160153 323.861161 260.56569 321.621176 266.025062 317.634537 
C 271.484434 313.647899 274.551908 308.240097 274.551908 302.602139 
C 274.551908 296.96418 271.484434 291.556379 266.025062 287.56974 
C 260.56569 283.583102 253.160153 281.343117 245.439435 281.343117 
C 237.718717 281.343117 230.31318 283.583102 224.853808 287.56974 
C 219.394435 291.556379 216.326961 296.96418 216.326961 302.602139 
C 216.326961 308.240097 219.394435 313.647899 224.853808 317.634537 
C 230.31318 321.621176 237.718717 323.861161 245.439435 323.861161 
z
" style="fill:none;opacity:0.2;stroke:#008000;stroke-linejoin:miter;stroke-width:2;"/>
   </g>
   <g id="patch_27">
    <path clip-path="url(#p6c167627cb)" d="M 241.072564 269.650655 
C 248.793282 269.650655 256.198819 267.41067 261.658191 263.424032 
C 267.117563 259.437393 270.185037 254.029592 270.185037 248.391633 
C 270.185037 242.753675 267.117563 237.345874 261.658191 233.359235 
C 256.198819 229.372596 248.793282 227.132612 241.072564 227.132612 
C 233.351846 227.132612 225.946309 229.372596 220.486936 233.359235 
C 215.027564 237.345874 211.96009 242.753675 211.96009 248.391633 
C 211.96009 254.029592 215.027564 259.437393 220.486936 263.424032 
C 225.946309 267.41067 233.351846 269.650655 241.072564 269.650655 
z
" style="fill:none;opacity:0.2;stroke:#008000;stroke-linejoin:miter;stroke-width:2;"/>
   </g>
   <g id="patch_28">
    <path d="M 243.255999 275.496886 
Q 161.013262 218.097527 78.770525 160.698168 
" style="fill:none;opacity:0.5;stroke:#008000;stroke-linecap:round;stroke-width:2;"/>
   </g>
   <g id="patch_29">
    <path d="M 245.325882 301.192491 
Q 243.336359 276.494473 241.346836 251.796455 
" style="fill:none;opacity:0.5;stroke:#800080;stroke-linecap:round;stroke-width:2;"/>
    <path d="M 246.700598 299.576894 
L 245.325882 301.192491 
L 243.710284 299.817775 
" style="fill:none;opacity:0.5;stroke:#800080;stroke-linecap:round;stroke-width:2;"/>
    <path d="M 239.97212 253.412053 
L 241.346836 251.796455 
L 242.962433 253.171171 
" style="fill:none;opacity:0.5;stroke:#800080;stroke-linecap:round;stroke-width:2;"/>
   </g>
   <g id="patch_30">
    <path d="M 78.770525 160.698168 
Q 163.196698 98.51553 247.62287 36.332891 
" style="fill:none;opacity:0.5;stroke:#008000;stroke-linecap:round;stroke-width:2;"/>
   </g>
   <g id="patch_31">
    <path d="M 63.038767 176.181888 
Q 78.058394 161.399071 93.078021 146.616255 
" style="fill:none;opacity:0.5;stroke:#800080;stroke-linecap:round;stroke-width:2;"/>
    <path d="M 65.16002 176.198743 
L 63.038767 176.181888 
L 63.055622 174.060634 
" style="fill:none;opacity:0.5;stroke:#800080;stroke-linecap:round;stroke-width:2;"/>
    <path d="M 90.956768 146.599399 
L 93.078021 146.616255 
L 93.061166 148.737508 
" style="fill:none;opacity:0.5;stroke:#800080;stroke-linecap:round;stroke-width:2;"/>
   </g>
   <g id="patch_32">
    <path d="M 247.62287 36.332891 
Q 326.95436 95.326677 406.28585 154.320462 
" style="fill:none;opacity:0.5;stroke:#008000;stroke-linecap:round;stroke-width:2;"/>
   </g>
   <g id="patch_33">
    <path d="M 246.026694 39.829654 
Q 247.207612 37.242602 248.38853 34.65555 
" style="fill:none;opacity:0.5;stroke:#800080;stroke-linecap:round;stroke-width:2;"/>
    <path d="M 248.014135 39.087979 
L 246.026694 39.829654 
L 245.28502 37.842214 
" style="fill:none;opacity:0.5;stroke:#800080;stroke-linecap:round;stroke-width:2;"/>
    <path d="M 246.40109 35.397224 
L 248.38853 34.65555 
L 249.130205 36.64299 
" style="fill:none;opacity:0.5;stroke:#800080;stroke-linecap:round;stroke-width:2;"/>
   </g>
   <g id="patch_34">
    <path d="M 406.28585 154.320462 
Q 324.770925 214.908674 243.255999 275.496886 
" style="fill:none;opacity:0.5;stroke:#008000;stroke-linecap:round;stroke-width:2;"/>
   </g>
   <g id="patch_35">
    <path d="M 421.88341 165.710386 
Q 407.094022 154.910619 392.304634 144.110852 
" style="fill:none;opacity:0.5;stroke:#800080;stroke-linecap:round;stroke-width:2;"/>
    <path d="M 421.556621 163.614387 
L 421.88341 165.710386 
L 419.787411 166.037174 
" style="fill:none;opacity:0.5;stroke:#800080;stroke-linecap:round;stroke-width:2;"/>
    <path d="M 392.631422 146.206851 
L 392.304634 144.110852 
L 394.400632 143.784064 
" style="fill:none;opacity:0.5;stroke:#800080;stroke-linecap:round;stroke-width:2;"/>
   </g>
   <g id="line2d_1">
    <path clip-path="url(#p6c167627cb)" d="M 245.439435 302.602139 
L 62.030853 177.17391 
L 245.439435 41.116171 
L 423.025522 166.544399 
" style="fill:none;stroke:#ff0000;stroke-linecap:square;stroke-width:0.2;"/>
   </g>
   <g id="line2d_2">
    <path clip-path="url(#p6c167627cb)" d="M 249.806306 31.549611 
L 389.546178 142.096524 
L 241.072564 248.391633 
L 95.510197 144.222427 
" style="fill:none;stroke:#0000ff;stroke-linecap:square;stroke-width:0.2;"/>
   </g>
  </g>
 </g>
 <defs>
  <clipPath id="p6c167627cb">
   <rect height="307.51175" width="409.903625" x="37.576375" y="13.32"/>
  </clipPath>
 </defs>
</svg>
