<?xml version="1.0" encoding="utf-8" standalone="no"?>
<!DOCTYPE svg PUBLIC "-//W3C//DTD SVG 1.1//EN"
  "http://www.w3.org/Graphics/SVG/1.1/DTD/svg11.dtd">
<!-- Created with matplotlib (http://matplotlib.org/) -->
<svg height="345.6pt" version="1.1" viewBox="0 0 460.8 345.6" width="460.8pt" xmlns="http://www.w3.org/2000/svg" xmlns:xlink="http://www.w3.org/1999/xlink">
 <defs>
  <style type="text/css">
*{stroke-linecap:butt;stroke-linejoin:round;}
  </style>
 </defs>
 <g id="figure_1">
  <g id="patch_1">
   <path d="M 0 345.6 
L 460.8 345.6 
L 460.8 0 
L 0 0 
z
" style="fill:#ffffff;"/>
  </g>
  <g id="axes_1">
   <g id="patch_2">
    <path clip-path="url(#p9fbadc504f)" d="M 57.687087 42.615951 
C 58.07925 42.615951 58.455404 41.808943 58.732706 40.372661 
C 59.010007 38.936379 59.165816 36.988089 59.165816 34.956879 
C 59.165816 32.925669 59.010007 30.977379 58.732706 29.541097 
C 58.455404 28.104815 58.07925 27.297807 57.687087 27.297807 
C 57.294923 27.297807 56.918769 28.104815 56.641468 29.541097 
C 56.364166 30.977379 56.208358 32.925669 56.208358 34.956879 
C 56.208358 36.988089 56.364166 38.936379 56.641468 40.372661 
C 56.918769 41.808943 57.294923 42.615951 57.687087 42.615951 
z
" style="fill:#ff0000;opacity:0.2;stroke:#ff0000;stroke-linejoin:miter;stroke-width:2;"/>
   </g>
   <g id="patch_3">
    <path clip-path="url(#p9fbadc504f)" d="M 427.369288 42.615951 
C 427.761452 42.615951 428.137606 41.808943 428.414907 40.372661 
C 428.692209 38.936379 428.848017 36.988089 428.848017 34.956879 
C 428.848017 32.925669 428.692209 30.977379 428.414907 29.541097 
C 428.137606 28.104815 427.761452 27.297807 427.369288 27.297807 
C 426.977125 27.297807 426.600971 28.104815 426.323669 29.541097 
C 426.046368 30.977379 425.890559 32.925669 425.890559 34.956879 
C 425.890559 36.988089 426.046368 38.936379 426.323669 40.372661 
C 426.600971 41.808943 426.977125 42.615951 427.369288 42.615951 
z
" style="fill:#ff0000;opacity:0.2;stroke:#ff0000;stroke-linejoin:miter;stroke-width:2;"/>
   </g>
   <g id="patch_4">
    <path clip-path="url(#p9fbadc504f)" d="M 427.369288 306.853943 
C 427.761452 306.853943 428.137606 306.046935 428.414907 304.610653 
C 428.692209 303.174371 428.848017 301.226081 428.848017 299.194871 
C 428.848017 297.163661 428.692209 295.215371 428.414907 293.779089 
C 428.137606 292.342807 427.761452 291.535799 427.369288 291.535799 
C 426.977125 291.535799 426.600971 292.342807 426.323669 293.779089 
C 426.046368 295.215371 425.890559 297.163661 425.890559 299.194871 
C 425.890559 301.226081 426.046368 303.174371 426.323669 304.610653 
C 426.600971 306.046935 426.977125 306.853943 427.369288 306.853943 
z
" style="fill:#ff0000;opacity:0.2;stroke:#ff0000;stroke-linejoin:miter;stroke-width:2;"/>
   </g>
   <g id="patch_5">
    <path clip-path="url(#p9fbadc504f)" d="M 57.687087 306.853943 
C 58.07925 306.853943 58.455404 306.046935 58.732706 304.610653 
C 59.010007 303.174371 59.165816 301.226081 59.165816 299.194871 
C 59.165816 297.163661 59.010007 295.215371 58.732706 293.779089 
C 58.455404 292.342807 58.07925 291.535799 57.687087 291.535799 
C 57.294923 291.535799 56.918769 292.342807 56.641468 293.779089 
C 56.364166 295.215371 56.208358 297.163661 56.208358 299.194871 
C 56.208358 301.226081 56.364166 303.174371 56.641468 304.610653 
C 56.918769 306.046935 57.294923 306.853943 57.687087 306.853943 
z
" style="fill:#ff0000;opacity:0.2;stroke:#ff0000;stroke-linejoin:miter;stroke-width:2;"/>
   </g>
   <g id="patch_6">
    <path clip-path="url(#p9fbadc504f)" d="M 57.687087 96.229457 
C 58.07925 96.229457 58.455404 95.422449 58.732706 93.986167 
C 59.010007 92.549884 59.165816 90.601594 59.165816 88.570385 
C 59.165816 86.539175 59.010007 84.590885 58.732706 83.154603 
C 58.455404 81.718321 58.07925 80.911312 57.687087 80.911312 
C 57.294923 80.911312 56.918769 81.718321 56.641468 83.154603 
C 56.364166 84.590885 56.208358 86.539175 56.208358 88.570385 
C 56.208358 90.601594 56.364166 92.549884 56.641468 93.986167 
C 56.918769 95.422449 57.294923 96.229457 57.687087 96.229457 
z
" style="fill:#0000ff;opacity:0.2;stroke:#0000ff;stroke-linejoin:miter;stroke-width:2;"/>
   </g>
   <g id="patch_7">
    <path clip-path="url(#p9fbadc504f)" d="M 427.369288 96.229457 
C 427.761452 96.229457 428.137606 95.422449 428.414907 93.986167 
C 428.692209 92.549884 428.848017 90.601594 428.848017 88.570385 
C 428.848017 86.539175 428.692209 84.590885 428.414907 83.154603 
C 428.137606 81.718321 427.761452 80.911312 427.369288 80.911312 
C 426.977125 80.911312 426.600971 81.718321 426.323669 83.154603 
C 426.046368 84.590885 425.890559 86.539175 425.890559 88.570385 
C 425.890559 90.601594 426.046368 92.549884 426.323669 93.986167 
C 426.600971 95.422449 426.977125 96.229457 427.369288 96.229457 
z
" style="fill:#0000ff;opacity:0.2;stroke:#0000ff;stroke-linejoin:miter;stroke-width:2;"/>
   </g>
   <g id="patch_8">
    <path clip-path="url(#p9fbadc504f)" d="M 427.369288 283.876726 
C 427.761452 283.876726 428.137606 283.069718 428.414907 281.633436 
C 428.692209 280.197154 428.848017 278.248864 428.848017 276.217654 
C 428.848017 274.186445 428.692209 272.238155 428.414907 270.801872 
C 428.137606 269.36559 427.761452 268.558582 427.369288 268.558582 
C 426.977125 268.558582 426.600971 269.36559 426.323669 270.801872 
C 426.046368 272.238155 425.890559 274.186445 425.890559 276.217654 
C 425.890559 278.248864 426.046368 280.197154 426.323669 281.633436 
C 426.600971 283.069718 426.977125 283.876726 427.369288 283.876726 
z
" style="fill:#0000ff;opacity:0.2;stroke:#0000ff;stroke-linejoin:miter;stroke-width:2;"/>
   </g>
   <g id="patch_9">
    <path clip-path="url(#p9fbadc504f)" d="M 57.687087 283.876726 
C 58.07925 283.876726 58.455404 283.069718 58.732706 281.633436 
C 59.010007 280.197154 59.165816 278.248864 59.165816 276.217654 
C 59.165816 274.186445 59.010007 272.238155 58.732706 270.801872 
C 58.455404 269.36559 58.07925 268.558582 57.687087 268.558582 
C 57.294923 268.558582 56.918769 269.36559 56.641468 270.801872 
C 56.364166 272.238155 56.208358 274.186445 56.208358 276.217654 
C 56.208358 278.248864 56.364166 280.197154 56.641468 281.633436 
C 56.918769 283.069718 57.294923 283.876726 57.687087 283.876726 
z
" style="fill:#0000ff;opacity:0.2;stroke:#0000ff;stroke-linejoin:miter;stroke-width:2;"/>
   </g>
   <g id="patch_10">
    <path clip-path="url(#p9fbadc504f)" d="M 57.687087 34.956879 
L 427.369288 34.956879 
L 427.369288 299.194871 
L 57.687087 299.194871 
L 57.687087 34.956879 
" style="fill:none;stroke:#ff0000;stroke-linejoin:miter;stroke-width:0.5;"/>
   </g>
   <g id="patch_11">
    <path clip-path="url(#p9fbadc504f)" d="M 57.687087 88.570385 
L 427.369288 88.570385 
L 427.369288 276.217654 
L 57.687087 276.217654 
L 57.687087 88.570385 
" style="fill:none;stroke:#0000ff;stroke-linejoin:miter;stroke-width:0.5;"/>
   </g>
   <g id="[&quot;g_s&quot;:1,&quot;g_t&quot;:1,&quot;coords&quot;:[[50.0, -458.0],[50.0, -472.0]],&quot;certainty&quot;:10]">
    <path clip-path="url(#p9fbadc504f)" d="M 57.687087 56.019328 
C 58.765536 56.019328 59.79996 53.800055 60.562539 49.850279 
C 61.325118 45.900503 61.753591 40.542706 61.753591 34.956879 
C 61.753591 29.371052 61.325118 24.013255 60.562539 20.063479 
C 59.79996 16.113703 58.765536 13.89443 57.687087 13.89443 
C 56.608637 13.89443 55.574213 16.113703 54.811634 20.063479 
C 54.049055 24.013255 53.620583 29.371052 53.620583 34.956879 
C 53.620583 40.542706 54.049055 45.900503 54.811634 49.850279 
C 55.574213 53.800055 56.608637 56.019328 57.687087 56.019328 
z
" style="fill:#0000ff;opacity:0.2;stroke:#0000ff;stroke-linejoin:miter;stroke-width:2;"/>
   </g>
   <g id="[&quot;g_s&quot;:1,&quot;g_t&quot;:1,&quot;coords&quot;:[[50.0, -472.0],[50.0, -458.0]],&quot;certainty&quot;:10]">
    <path clip-path="url(#p9fbadc504f)" d="M 57.687087 109.632833 
C 58.765536 109.632833 59.79996 107.413561 60.562539 103.463785 
C 61.325118 99.514009 61.753591 94.156211 61.753591 88.570385 
C 61.753591 82.984558 61.325118 77.62676 60.562539 73.676984 
C 59.79996 69.727208 58.765536 67.507936 57.687087 67.507936 
C 56.608637 67.507936 55.574213 69.727208 54.811634 73.676984 
C 54.049055 77.62676 53.620583 82.984558 53.620583 88.570385 
C 53.620583 94.156211 54.049055 99.514009 54.811634 103.463785 
C 55.574213 107.413561 56.608637 109.632833 57.687087 109.632833 
z
" style="fill:#ff0000;opacity:0.2;stroke:#ff0000;stroke-linejoin:miter;stroke-width:2;"/>
   </g>
   <g id="patch_12">
    <path d="M 57.687087 34.956879 
Q 57.687087 60.763942 57.687087 84.62646 
" style="fill:none;opacity:0.5;stroke:#0000ff;stroke-linecap:round;stroke-width:2.75;"/>
    <path d="M 59.187087 83.12646 
L 57.687087 84.62646 
L 56.187087 83.12646 
" style="fill:none;opacity:0.5;stroke:#0000ff;stroke-linecap:round;stroke-width:2.75;"/>
   </g>
   <g id="[&quot;g_s&quot;:2,&quot;g_t&quot;:2,&quot;coords&quot;:[[550.0, -458.0],[550.0, -472.0]],&quot;certainty&quot;:11]">
    <path clip-path="url(#p9fbadc504f)" d="M 427.369288 57.934096 
C 428.545779 57.934096 429.674241 55.513071 430.506146 51.204225 
C 431.33805 46.895378 431.805475 41.050508 431.805475 34.956879 
C 431.805475 28.86325 431.33805 23.01838 430.506146 18.709533 
C 429.674241 14.400687 428.545779 11.979662 427.369288 11.979662 
C 426.192798 11.979662 425.064335 14.400687 424.232431 18.709533 
C 423.400526 23.01838 422.933102 28.86325 422.933102 34.956879 
C 422.933102 41.050508 423.400526 46.895378 424.232431 51.204225 
C 425.064335 55.513071 426.192798 57.934096 427.369288 57.934096 
z
" style="fill:#0000ff;opacity:0.2;stroke:#0000ff;stroke-linejoin:miter;stroke-width:2;"/>
   </g>
   <g id="[&quot;g_s&quot;:2,&quot;g_t&quot;:2,&quot;coords&quot;:[[550.0, -472.0],[550.0, -458.0]],&quot;certainty&quot;:11]">
    <path clip-path="url(#p9fbadc504f)" d="M 427.369288 111.547601 
C 428.545779 111.547601 429.674241 109.126577 430.506146 104.81773 
C 431.33805 100.508884 431.805475 94.664014 431.805475 88.570385 
C 431.805475 82.476756 431.33805 76.631885 430.506146 72.323039 
C 429.674241 68.014192 428.545779 65.593168 427.369288 65.593168 
C 426.192798 65.593168 425.064335 68.014192 424.232431 72.323039 
C 423.400526 76.631885 422.933102 82.476756 422.933102 88.570385 
C 422.933102 94.664014 423.400526 100.508884 424.232431 104.81773 
C 425.064335 109.126577 426.192798 111.547601 427.369288 111.547601 
z
" style="fill:#ff0000;opacity:0.2;stroke:#ff0000;stroke-linejoin:miter;stroke-width:2;"/>
   </g>
   <g id="patch_13">
    <path d="M 427.369288 34.956879 
Q 427.369288 60.763942 427.369288 84.449684 
" style="fill:none;opacity:0.5;stroke:#0000ff;stroke-linecap:round;stroke-width:3;"/>
    <path d="M 428.869288 82.949684 
L 427.369288 84.449684 
L 425.869288 82.949684 
" style="fill:none;opacity:0.5;stroke:#0000ff;stroke-linecap:round;stroke-width:3;"/>
   </g>
   <g id="[&quot;g_s&quot;:3,&quot;g_t&quot;:3,&quot;coords&quot;:[[550.0, -527.0],[550.0, -521.0]],&quot;certainty&quot;:11]">
    <path clip-path="url(#p9fbadc504f)" d="M 427.369288 322.172088 
C 428.545779 322.172088 429.674241 319.751063 430.506146 315.442217 
C 431.33805 311.13337 431.805475 305.2885 431.805475 299.194871 
C 431.805475 293.101242 431.33805 287.256372 430.506146 282.947525 
C 429.674241 278.638679 428.545779 276.217654 427.369288 276.217654 
C 426.192798 276.217654 425.064335 278.638679 424.232431 282.947525 
C 423.400526 287.256372 422.933102 293.101242 422.933102 299.194871 
C 422.933102 305.2885 423.400526 311.13337 424.232431 315.442217 
C 425.064335 319.751063 426.192798 322.172088 427.369288 322.172088 
z
" style="fill:#0000ff;opacity:0.2;stroke:#0000ff;stroke-linejoin:miter;stroke-width:2;"/>
   </g>
   <g id="[&quot;g_s&quot;:3,&quot;g_t&quot;:3,&quot;coords&quot;:[[550.0, -521.0],[550.0, -527.0]],&quot;certainty&quot;:11]">
    <path clip-path="url(#p9fbadc504f)" d="M 427.369288 299.194871 
C 428.545779 299.194871 429.674241 296.773846 430.506146 292.465 
C 431.33805 288.156154 431.805475 282.311283 431.805475 276.217654 
C 431.805475 270.124025 431.33805 264.279155 430.506146 259.970309 
C 429.674241 255.661462 428.545779 253.240438 427.369288 253.240438 
C 426.192798 253.240438 425.064335 255.661462 424.232431 259.970309 
C 423.400526 264.279155 422.933102 270.124025 422.933102 276.217654 
C 422.933102 282.311283 423.400526 288.156154 424.232431 292.465 
C 425.064335 296.773846 426.192798 299.194871 427.369288 299.194871 
z
" style="fill:#ff0000;opacity:0.2;stroke:#ff0000;stroke-linejoin:miter;stroke-width:2;"/>
   </g>
   <g id="patch_14">
    <path d="M 427.369288 299.194871 
Q 427.369288 288.706187 427.369288 280.338823 
" style="fill:none;opacity:0.5;stroke:#0000ff;stroke-linecap:round;stroke-width:3;"/>
    <path d="M 425.869288 281.838823 
L 427.369288 280.338823 
L 428.869288 281.838823 
" style="fill:none;opacity:0.5;stroke:#0000ff;stroke-linecap:round;stroke-width:3;"/>
   </g>
   <g id="[&quot;g_s&quot;:4,&quot;g_t&quot;:4,&quot;coords&quot;:[[50.0, -527.0],[50.0, -521.0]],&quot;certainty&quot;:12]">
    <path clip-path="url(#p9fbadc504f)" d="M 57.687087 324.086856 
C 58.961618 324.086856 60.184119 321.464079 61.085349 316.796162 
C 61.986579 312.128245 62.492955 305.796302 62.492955 299.194871 
C 62.492955 292.593439 61.986579 286.261497 61.085349 281.59358 
C 60.184119 276.925663 58.961618 274.302886 57.687087 274.302886 
C 56.412556 274.302886 55.190054 276.925663 54.288824 281.59358 
C 53.387595 286.261497 52.881218 292.593439 52.881218 299.194871 
C 52.881218 305.796302 53.387595 312.128245 54.288824 316.796162 
C 55.190054 321.464079 56.412556 324.086856 57.687087 324.086856 
z
" style="fill:#0000ff;opacity:0.2;stroke:#0000ff;stroke-linejoin:miter;stroke-width:2;"/>
   </g>
   <g id="[&quot;g_s&quot;:4,&quot;g_t&quot;:4,&quot;coords&quot;:[[50.0, -521.0],[50.0, -527.0]],&quot;certainty&quot;:12]">
    <path clip-path="url(#p9fbadc504f)" d="M 57.687087 301.109639 
C 58.961618 301.109639 60.184119 298.486862 61.085349 293.818945 
C 61.986579 289.151028 62.492955 282.819086 62.492955 276.217654 
C 62.492955 269.616223 61.986579 263.28428 61.085349 258.616363 
C 60.184119 253.948446 58.961618 251.32567 57.687087 251.32567 
C 56.412556 251.32567 55.190054 253.948446 54.288824 258.616363 
C 53.387595 263.28428 52.881218 269.616223 52.881218 276.217654 
C 52.881218 282.819086 53.387595 289.151028 54.288824 293.818945 
C 55.190054 298.486862 56.412556 301.109639 57.687087 301.109639 
z
" style="fill:#ff0000;opacity:0.2;stroke:#ff0000;stroke-linejoin:miter;stroke-width:2;"/>
   </g>
   <g id="patch_15">
    <path d="M 57.687087 299.194871 
Q 57.687087 288.706187 57.687087 280.515599 
" style="fill:none;opacity:0.5;stroke:#0000ff;stroke-linecap:round;stroke-width:3.25;"/>
    <path d="M 56.187087 282.015599 
L 57.687087 280.515599 
L 59.187087 282.015599 
" style="fill:none;opacity:0.5;stroke:#0000ff;stroke-linecap:round;stroke-width:3.25;"/>
   </g>
   <g id="[&quot;g_s&quot;:1,&quot;g_t&quot;:1,&quot;coords&quot;:[[50.0, -472.0],[50.0, -458.0]],&quot;certainty&quot;:10]">
    <path clip-path="url(#p9fbadc504f)" d="M 57.687087 109.632833 
C 58.765536 109.632833 59.79996 107.413561 60.562539 103.463785 
C 61.325118 99.514009 61.753591 94.156211 61.753591 88.570385 
C 61.753591 82.984558 61.325118 77.62676 60.562539 73.676984 
C 59.79996 69.727208 58.765536 67.507936 57.687087 67.507936 
C 56.608637 67.507936 55.574213 69.727208 54.811634 73.676984 
C 54.049055 77.62676 53.620583 82.984558 53.620583 88.570385 
C 53.620583 94.156211 54.049055 99.514009 54.811634 103.463785 
C 55.574213 107.413561 56.608637 109.632833 57.687087 109.632833 
z
" style="fill:#0000ff;opacity:0.2;stroke:#0000ff;stroke-linejoin:miter;stroke-width:2;"/>
   </g>
   <g id="[&quot;g_s&quot;:1,&quot;g_t&quot;:1,&quot;coords&quot;:[[50.0, -458.0],[50.0, -472.0]],&quot;certainty&quot;:10]">
    <path clip-path="url(#p9fbadc504f)" d="M 57.687087 56.019328 
C 58.765536 56.019328 59.79996 53.800055 60.562539 49.850279 
C 61.325118 45.900503 61.753591 40.542706 61.753591 34.956879 
C 61.753591 29.371052 61.325118 24.013255 60.562539 20.063479 
C 59.79996 16.113703 58.765536 13.89443 57.687087 13.89443 
C 56.608637 13.89443 55.574213 16.113703 54.811634 20.063479 
C 54.049055 24.013255 53.620583 29.371052 53.620583 34.956879 
C 53.620583 40.542706 54.049055 45.900503 54.811634 49.850279 
C 55.574213 53.800055 56.608637 56.019328 57.687087 56.019328 
z
" style="fill:#ff0000;opacity:0.2;stroke:#ff0000;stroke-linejoin:miter;stroke-width:2;"/>
   </g>
   <g id="patch_16">
    <path d="M 57.687087 88.570385 
Q 57.687087 62.763322 57.687087 38.900803 
" style="fill:none;opacity:0.5;stroke:#ff0000;stroke-linecap:round;stroke-width:2.75;"/>
    <path d="M 56.187087 40.400803 
L 57.687087 38.900803 
L 59.187087 40.400803 
" style="fill:none;opacity:0.5;stroke:#ff0000;stroke-linecap:round;stroke-width:2.75;"/>
   </g>
   <g id="[&quot;g_s&quot;:2,&quot;g_t&quot;:2,&quot;coords&quot;:[[550.0, -472.0],[550.0, -458.0]],&quot;certainty&quot;:11]">
    <path clip-path="url(#p9fbadc504f)" d="M 427.369288 111.547601 
C 428.545779 111.547601 429.674241 109.126577 430.506146 104.81773 
C 431.33805 100.508884 431.805475 94.664014 431.805475 88.570385 
C 431.805475 82.476756 431.33805 76.631885 430.506146 72.323039 
C 429.674241 68.014192 428.545779 65.593168 427.369288 65.593168 
C 426.192798 65.593168 425.064335 68.014192 424.232431 72.323039 
C 423.400526 76.631885 422.933102 82.476756 422.933102 88.570385 
C 422.933102 94.664014 423.400526 100.508884 424.232431 104.81773 
C 425.064335 109.126577 426.192798 111.547601 427.369288 111.547601 
z
" style="fill:#0000ff;opacity:0.2;stroke:#0000ff;stroke-linejoin:miter;stroke-width:2;"/>
   </g>
   <g id="[&quot;g_s&quot;:2,&quot;g_t&quot;:2,&quot;coords&quot;:[[550.0, -458.0],[550.0, -472.0]],&quot;certainty&quot;:11]">
    <path clip-path="url(#p9fbadc504f)" d="M 427.369288 57.934096 
C 428.545779 57.934096 429.674241 55.513071 430.506146 51.204225 
C 431.33805 46.895378 431.805475 41.050508 431.805475 34.956879 
C 431.805475 28.86325 431.33805 23.01838 430.506146 18.709533 
C 429.674241 14.400687 428.545779 11.979662 427.369288 11.979662 
C 426.192798 11.979662 425.064335 14.400687 424.232431 18.709533 
C 423.400526 23.01838 422.933102 28.86325 422.933102 34.956879 
C 422.933102 41.050508 423.400526 46.895378 424.232431 51.204225 
C 425.064335 55.513071 426.192798 57.934096 427.369288 57.934096 
z
" style="fill:#ff0000;opacity:0.2;stroke:#ff0000;stroke-linejoin:miter;stroke-width:2;"/>
   </g>
   <g id="patch_17">
    <path d="M 427.369288 88.570385 
Q 427.369288 62.763322 427.369288 39.07758 
" style="fill:none;opacity:0.5;stroke:#ff0000;stroke-linecap:round;stroke-width:3;"/>
    <path d="M 425.869288 40.57758 
L 427.369288 39.07758 
L 428.869288 40.57758 
" style="fill:none;opacity:0.5;stroke:#ff0000;stroke-linecap:round;stroke-width:3;"/>
   </g>
   <g id="[&quot;g_s&quot;:3,&quot;g_t&quot;:3,&quot;coords&quot;:[[550.0, -521.0],[550.0, -527.0]],&quot;certainty&quot;:11]">
    <path clip-path="url(#p9fbadc504f)" d="M 427.369288 299.194871 
C 428.545779 299.194871 429.674241 296.773846 430.506146 292.465 
C 431.33805 288.156154 431.805475 282.311283 431.805475 276.217654 
C 431.805475 270.124025 431.33805 264.279155 430.506146 259.970309 
C 429.674241 255.661462 428.545779 253.240438 427.369288 253.240438 
C 426.192798 253.240438 425.064335 255.661462 424.232431 259.970309 
C 423.400526 264.279155 422.933102 270.124025 422.933102 276.217654 
C 422.933102 282.311283 423.400526 288.156154 424.232431 292.465 
C 425.064335 296.773846 426.192798 299.194871 427.369288 299.194871 
z
" style="fill:#0000ff;opacity:0.2;stroke:#0000ff;stroke-linejoin:miter;stroke-width:2;"/>
   </g>
   <g id="[&quot;g_s&quot;:3,&quot;g_t&quot;:3,&quot;coords&quot;:[[550.0, -527.0],[550.0, -521.0]],&quot;certainty&quot;:11]">
    <path clip-path="url(#p9fbadc504f)" d="M 427.369288 322.172088 
C 428.545779 322.172088 429.674241 319.751063 430.506146 315.442217 
C 431.33805 311.13337 431.805475 305.2885 431.805475 299.194871 
C 431.805475 293.101242 431.33805 287.256372 430.506146 282.947525 
C 429.674241 278.638679 428.545779 276.217654 427.369288 276.217654 
C 426.192798 276.217654 425.064335 278.638679 424.232431 282.947525 
C 423.400526 287.256372 422.933102 293.101242 422.933102 299.194871 
C 422.933102 305.2885 423.400526 311.13337 424.232431 315.442217 
C 425.064335 319.751063 426.192798 322.172088 427.369288 322.172088 
z
" style="fill:#ff0000;opacity:0.2;stroke:#ff0000;stroke-linejoin:miter;stroke-width:2;"/>
   </g>
   <g id="patch_18">
    <path d="M 427.369288 276.217654 
Q 427.369288 286.706339 427.369288 295.073703 
" style="fill:none;opacity:0.5;stroke:#ff0000;stroke-linecap:round;stroke-width:3;"/>
    <path d="M 428.869288 293.573703 
L 427.369288 295.073703 
L 425.869288 293.573703 
" style="fill:none;opacity:0.5;stroke:#ff0000;stroke-linecap:round;stroke-width:3;"/>
   </g>
   <g id="[&quot;g_s&quot;:4,&quot;g_t&quot;:4,&quot;coords&quot;:[[50.0, -521.0],[50.0, -527.0]],&quot;certainty&quot;:12]">
    <path clip-path="url(#p9fbadc504f)" d="M 57.687087 301.109639 
C 58.961618 301.109639 60.184119 298.486862 61.085349 293.818945 
C 61.986579 289.151028 62.492955 282.819086 62.492955 276.217654 
C 62.492955 269.616223 61.986579 263.28428 61.085349 258.616363 
C 60.184119 253.948446 58.961618 251.32567 57.687087 251.32567 
C 56.412556 251.32567 55.190054 253.948446 54.288824 258.616363 
C 53.387595 263.28428 52.881218 269.616223 52.881218 276.217654 
C 52.881218 282.819086 53.387595 289.151028 54.288824 293.818945 
C 55.190054 298.486862 56.412556 301.109639 57.687087 301.109639 
z
" style="fill:#0000ff;opacity:0.2;stroke:#0000ff;stroke-linejoin:miter;stroke-width:2;"/>
   </g>
   <g id="[&quot;g_s&quot;:4,&quot;g_t&quot;:4,&quot;coords&quot;:[[50.0, -527.0],[50.0, -521.0]],&quot;certainty&quot;:12]">
    <path clip-path="url(#p9fbadc504f)" d="M 57.687087 324.086856 
C 58.961618 324.086856 60.184119 321.464079 61.085349 316.796162 
C 61.986579 312.128245 62.492955 305.796302 62.492955 299.194871 
C 62.492955 292.593439 61.986579 286.261497 61.085349 281.59358 
C 60.184119 276.925663 58.961618 274.302886 57.687087 274.302886 
C 56.412556 274.302886 55.190054 276.925663 54.288824 281.59358 
C 53.387595 286.261497 52.881218 292.593439 52.881218 299.194871 
C 52.881218 305.796302 53.387595 312.128245 54.288824 316.796162 
C 55.190054 321.464079 56.412556 324.086856 57.687087 324.086856 
z
" style="fill:#ff0000;opacity:0.2;stroke:#ff0000;stroke-linejoin:miter;stroke-width:2;"/>
   </g>
   <g id="patch_19">
    <path d="M 57.687087 276.217654 
Q 57.687087 286.706339 57.687087 294.896926 
" style="fill:none;opacity:0.5;stroke:#ff0000;stroke-linecap:round;stroke-width:3.25;"/>
    <path d="M 59.187087 293.396926 
L 57.687087 294.896926 
L 56.187087 293.396926 
" style="fill:none;opacity:0.5;stroke:#ff0000;stroke-linecap:round;stroke-width:3.25;"/>
   </g>
   <g id="patch_20">
    <path clip-path="url(#p9fbadc504f)" d="M 57.687087 80.911312 
C 58.667495 80.911312 59.607881 78.893792 60.301135 75.303087 
C 60.994388 71.712381 61.383909 66.841656 61.383909 61.763632 
C 61.383909 56.685608 60.994388 51.814882 60.301135 48.224177 
C 59.607881 44.633472 58.667495 42.615951 57.687087 42.615951 
C 56.706678 42.615951 55.766292 44.633472 55.073039 48.224177 
C 54.379785 51.814882 53.990265 56.685608 53.990265 61.763632 
C 53.990265 66.841656 54.379785 71.712381 55.073039 75.303087 
C 55.766292 78.893792 56.706678 80.911312 57.687087 80.911312 
z
" style="fill:#008000;opacity:0.2;stroke:#008000;stroke-linejoin:miter;stroke-width:2;"/>
   </g>
   <g id="patch_21">
    <path clip-path="url(#p9fbadc504f)" d="M 427.369288 80.911312 
C 428.349697 80.911312 429.290083 78.893792 429.983336 75.303087 
C 430.67659 71.712381 431.06611 66.841656 431.06611 61.763632 
C 431.06611 56.685608 430.67659 51.814882 429.983336 48.224177 
C 429.290083 44.633472 428.349697 42.615951 427.369288 42.615951 
C 426.38888 42.615951 425.448494 44.633472 424.75524 48.224177 
C 424.061987 51.814882 423.672466 56.685608 423.672466 61.763632 
C 423.672466 66.841656 424.061987 71.712381 424.75524 75.303087 
C 425.448494 78.893792 426.38888 80.911312 427.369288 80.911312 
z
" style="fill:#008000;opacity:0.2;stroke:#008000;stroke-linejoin:miter;stroke-width:2;"/>
   </g>
   <g id="patch_22">
    <path clip-path="url(#p9fbadc504f)" d="M 427.369288 306.853943 
C 428.349697 306.853943 429.290083 304.836423 429.983336 301.245717 
C 430.67659 297.655012 431.06611 292.784287 431.06611 287.706263 
C 431.06611 282.628238 430.67659 277.757513 429.983336 274.166808 
C 429.290083 270.576102 428.349697 268.558582 427.369288 268.558582 
C 426.38888 268.558582 425.448494 270.576102 424.75524 274.166808 
C 424.061987 277.757513 423.672466 282.628238 423.672466 287.706263 
C 423.672466 292.784287 424.061987 297.655012 424.75524 301.245717 
C 425.448494 304.836423 426.38888 306.853943 427.369288 306.853943 
z
" style="fill:#008000;opacity:0.2;stroke:#008000;stroke-linejoin:miter;stroke-width:2;"/>
   </g>
   <g id="patch_23">
    <path clip-path="url(#p9fbadc504f)" d="M 57.687087 306.853943 
C 58.667495 306.853943 59.607881 304.836423 60.301135 301.245717 
C 60.994388 297.655012 61.383909 292.784287 61.383909 287.706263 
C 61.383909 282.628238 60.994388 277.757513 60.301135 274.166808 
C 59.607881 270.576102 58.667495 268.558582 57.687087 268.558582 
C 56.706678 268.558582 55.766292 270.576102 55.073039 274.166808 
C 54.379785 277.757513 53.990265 282.628238 53.990265 287.706263 
C 53.990265 292.784287 54.379785 297.655012 55.073039 301.245717 
C 55.766292 304.836423 56.706678 306.853943 57.687087 306.853943 
z
" style="fill:#008000;opacity:0.2;stroke:#008000;stroke-linejoin:miter;stroke-width:2;"/>
   </g>
   <g id="patch_24">
    <path clip-path="url(#p9fbadc504f)" d="M 57.687087 111.547601 
C 61.608721 111.547601 65.370264 103.47752 68.143278 89.114698 
C 70.916293 74.751877 72.474375 55.268976 72.474375 34.956879 
C 72.474375 14.644782 70.916293 -4.838119 68.143278 -19.20094 
C 65.370264 -33.563762 61.608721 -41.633843 57.687087 -41.633843 
C 53.765452 -41.633843 50.00391 -33.563762 47.230895 -19.20094 
C 44.457881 -4.838119 42.899799 14.644782 42.899799 34.956879 
C 42.899799 55.268976 44.457881 74.751877 47.230895 89.114698 
C 50.00391 103.47752 53.765452 111.547601 57.687087 111.547601 
z
" style="fill:none;opacity:0.2;stroke:#ff0000;stroke-linejoin:miter;stroke-width:2;"/>
   </g>
   <g id="patch_25">
    <path clip-path="url(#p9fbadc504f)" d="M 57.687087 165.161107 
C 61.608721 165.161107 65.370264 157.091025 68.143278 142.728204 
C 70.916293 128.365382 72.474375 108.882482 72.474375 88.570385 
C 72.474375 68.258288 70.916293 48.775387 68.143278 34.412566 
C 65.370264 20.049744 61.608721 11.979662 57.687087 11.979662 
C 53.765452 11.979662 50.00391 20.049744 47.230895 34.412566 
C 44.457881 48.775387 42.899799 68.258288 42.899799 88.570385 
C 42.899799 108.882482 44.457881 128.365382 47.230895 142.728204 
C 50.00391 157.091025 53.765452 165.161107 57.687087 165.161107 
z
" style="fill:none;opacity:0.2;stroke:#0000ff;stroke-linejoin:miter;stroke-width:2;"/>
   </g>
   <g id="patch_26">
    <path clip-path="url(#p9fbadc504f)" d="M 57.687087 73.25224 
C 59.647904 73.25224 61.528675 69.217199 62.915183 62.035789 
C 64.30169 54.854378 65.080731 45.112928 65.080731 34.956879 
C 65.080731 24.800831 64.30169 15.05938 62.915183 7.877969 
C 61.528675 0.696559 59.647904 -3.338482 57.687087 -3.338482 
C 55.726269 -3.338482 53.845498 0.696559 52.458991 7.877969 
C 51.072484 15.05938 50.293443 24.800831 50.293443 34.956879 
C 50.293443 45.112928 51.072484 54.854378 52.458991 62.035789 
C 53.845498 69.217199 55.726269 73.25224 57.687087 73.25224 
z
" style="fill:none;opacity:0.2;stroke:#008000;stroke-linejoin:miter;stroke-width:2;"/>
   </g>
   <g id="patch_27">
    <path clip-path="url(#p9fbadc504f)" d="M 57.687087 126.865746 
C 59.647904 126.865746 61.528675 122.830705 62.915183 115.649294 
C 64.30169 108.467883 65.080731 98.726433 65.080731 88.570385 
C 65.080731 78.414336 64.30169 68.672886 62.915183 61.491475 
C 61.528675 54.310064 59.647904 50.275024 57.687087 50.275024 
C 55.726269 50.275024 53.845498 54.310064 52.458991 61.491475 
C 51.072484 68.672886 50.293443 78.414336 50.293443 88.570385 
C 50.293443 98.726433 51.072484 108.467883 52.458991 115.649294 
C 53.845498 122.830705 55.726269 126.865746 57.687087 126.865746 
z
" style="fill:none;opacity:0.2;stroke:#008000;stroke-linejoin:miter;stroke-width:2;"/>
   </g>
   <g id="patch_28">
    <path d="M 57.687087 61.763632 
Q 242.528188 61.763632 427.369288 61.763632 
" style="fill:none;opacity:0.5;stroke:#008000;stroke-linecap:round;stroke-width:2;"/>
   </g>
   <g id="patch_29">
    <path d="M 57.687087 36.371093 
Q 57.687087 60.763942 57.687087 85.15679 
" style="fill:none;opacity:0.5;stroke:#800080;stroke-linecap:round;stroke-width:2;"/>
    <path d="M 56.187087 37.871093 
L 57.687087 36.371093 
L 59.187087 37.871093 
" style="fill:none;opacity:0.5;stroke:#800080;stroke-linecap:round;stroke-width:2;"/>
    <path d="M 59.187087 83.65679 
L 57.687087 85.15679 
L 56.187087 83.65679 
" style="fill:none;opacity:0.5;stroke:#800080;stroke-linecap:round;stroke-width:2;"/>
   </g>
   <g id="patch_30">
    <path d="M 427.369288 61.763632 
Q 427.369288 174.734947 427.369288 287.706263 
" style="fill:none;opacity:0.5;stroke:#008000;stroke-linecap:round;stroke-width:2;"/>
   </g>
   <g id="patch_31">
    <path d="M 427.369288 36.371093 
Q 427.369288 60.763942 427.369288 85.15679 
" style="fill:none;opacity:0.5;stroke:#800080;stroke-linecap:round;stroke-width:2;"/>
    <path d="M 425.869288 37.871093 
L 427.369288 36.371093 
L 428.869288 37.871093 
" style="fill:none;opacity:0.5;stroke:#800080;stroke-linecap:round;stroke-width:2;"/>
    <path d="M 428.869288 83.65679 
L 427.369288 85.15679 
L 425.869288 83.65679 
" style="fill:none;opacity:0.5;stroke:#800080;stroke-linecap:round;stroke-width:2;"/>
   </g>
   <g id="patch_32">
    <path d="M 427.369288 287.706263 
Q 242.528188 287.706263 57.687087 287.706263 
" style="fill:none;opacity:0.5;stroke:#008000;stroke-linecap:round;stroke-width:2;"/>
   </g>
   <g id="patch_33">
    <path d="M 427.369288 297.780657 
Q 427.369288 288.706187 427.369288 279.631716 
" style="fill:none;opacity:0.5;stroke:#800080;stroke-linecap:round;stroke-width:2;"/>
    <path d="M 428.869288 296.280657 
L 427.369288 297.780657 
L 425.869288 296.280657 
" style="fill:none;opacity:0.5;stroke:#800080;stroke-linecap:round;stroke-width:2;"/>
    <path d="M 425.869288 281.131716 
L 427.369288 279.631716 
L 428.869288 281.131716 
" style="fill:none;opacity:0.5;stroke:#800080;stroke-linecap:round;stroke-width:2;"/>
   </g>
   <g id="patch_34">
    <path d="M 57.687087 287.706263 
Q 57.687087 174.734947 57.687087 61.763632 
" style="fill:none;opacity:0.5;stroke:#008000;stroke-linecap:round;stroke-width:2;"/>
   </g>
   <g id="patch_35">
    <path d="M 57.687087 297.780657 
Q 57.687087 288.706187 57.687087 279.631716 
" style="fill:none;opacity:0.5;stroke:#800080;stroke-linecap:round;stroke-width:2;"/>
    <path d="M 59.187087 296.280657 
L 57.687087 297.780657 
L 56.187087 296.280657 
" style="fill:none;opacity:0.5;stroke:#800080;stroke-linecap:round;stroke-width:2;"/>
    <path d="M 56.187087 281.131716 
L 57.687087 279.631716 
L 59.187087 281.131716 
" style="fill:none;opacity:0.5;stroke:#800080;stroke-linecap:round;stroke-width:2;"/>
   </g>
   <g id="line2d_1">
    <path clip-path="url(#p9fbadc504f)" d="M 57.687087 34.956879 
L 427.369288 34.956879 
L 427.369288 299.194871 
L 57.687087 299.194871 
" style="fill:none;stroke:#ff0000;stroke-linecap:square;stroke-width:0.2;"/>
   </g>
   <g id="line2d_2">
    <path clip-path="url(#p9fbadc504f)" d="M 57.687087 88.570385 
L 427.369288 88.570385 
L 427.369288 276.217654 
L 57.687087 276.217654 
" style="fill:none;stroke:#0000ff;stroke-linecap:square;stroke-width:0.2;"/>
   </g>
  </g>
 </g>
 <defs>
  <clipPath id="p9fbadc504f">
   <rect height="307.51175" width="409.903625" x="37.576375" y="13.32"/>
  </clipPath>
 </defs>
</svg>
