<?xml version="1.0" encoding="utf-8" standalone="no"?>
<!DOCTYPE svg PUBLIC "-//W3C//DTD SVG 1.1//EN"
  "http://www.w3.org/Graphics/SVG/1.1/DTD/svg11.dtd">
<!-- Created with matplotlib (http://matplotlib.org/) -->
<svg height="345.6pt" version="1.1" viewBox="0 0 460.8 345.6" width="460.8pt" xmlns="http://www.w3.org/2000/svg" xmlns:xlink="http://www.w3.org/1999/xlink">
 <defs>
  <style type="text/css">
*{stroke-linecap:butt;stroke-linejoin:round;}
  </style>
 </defs>
 <g id="figure_1">
  <g id="patch_1">
   <path d="M 0 345.6 
L 460.8 345.6 
L 460.8 0 
L 0 0 
z
" style="fill:#ffffff;"/>
  </g>
  <g id="axes_1">
   <g id="patch_2">
    <path clip-path="url(#p4d5c53b075)" d="M 241.444933 299.736531 
C 242.594063 299.736531 243.696282 299.653205 244.50884 299.504904 
C 245.321398 299.356603 245.777952 299.155436 245.777952 298.945707 
C 245.777952 298.735978 245.321398 298.534811 244.50884 298.386511 
C 243.696282 298.23821 242.594063 298.154884 241.444933 298.154884 
C 240.295803 298.154884 239.193583 298.23821 238.381025 298.386511 
C 237.568468 298.534811 237.111913 298.735978 237.111913 298.945707 
C 237.111913 299.155436 237.568468 299.356603 238.381025 299.504904 
C 239.193583 299.653205 240.295803 299.736531 241.444933 299.736531 
z
" style="fill:#ff0000;opacity:0.2;stroke:#ff0000;stroke-linejoin:miter;stroke-width:2;"/>
   </g>
   <g id="patch_3">
    <path clip-path="url(#p4d5c53b075)" d="M 68.124161 282.733824 
C 69.273291 282.733824 70.375511 282.650498 71.188068 282.502197 
C 72.000626 282.353896 72.45718 282.152729 72.45718 281.943 
C 72.45718 281.733271 72.000626 281.532104 71.188068 281.383804 
C 70.375511 281.235503 69.273291 281.152177 68.124161 281.152177 
C 66.975031 281.152177 65.872811 281.235503 65.060254 281.383804 
C 64.247696 281.532104 63.791142 281.733271 63.791142 281.943 
C 63.791142 282.152729 64.247696 282.353896 65.060254 282.502197 
C 65.872811 282.650498 66.975031 282.733824 68.124161 282.733824 
z
" style="fill:#ff0000;opacity:0.2;stroke:#ff0000;stroke-linejoin:miter;stroke-width:2;"/>
   </g>
   <g id="patch_4">
    <path clip-path="url(#p4d5c53b075)" d="M 102.788315 236.470644 
C 103.937445 236.470644 105.039665 236.387318 105.852223 236.239017 
C 106.66478 236.090717 107.121335 235.88955 107.121335 235.679821 
C 107.121335 235.470092 106.66478 235.268925 105.852223 235.120624 
C 105.039665 234.972323 103.937445 234.888997 102.788315 234.888997 
C 101.639185 234.888997 100.536966 234.972323 99.724408 235.120624 
C 98.91185 235.268925 98.455296 235.470092 98.455296 235.679821 
C 98.455296 235.88955 98.91185 236.090717 99.724408 236.239017 
C 100.536966 236.387318 101.639185 236.470644 102.788315 236.470644 
z
" style="fill:#ff0000;opacity:0.2;stroke:#ff0000;stroke-linejoin:miter;stroke-width:2;"/>
   </g>
   <g id="patch_5">
    <path clip-path="url(#p4d5c53b075)" d="M 193.78172 125.359931 
C 194.930851 125.359931 196.03307 125.276605 196.845628 125.128304 
C 197.658186 124.980003 198.11474 124.778836 198.11474 124.569107 
C 198.11474 124.359379 197.658186 124.158211 196.845628 124.009911 
C 196.03307 123.86161 194.930851 123.778284 193.78172 123.778284 
C 192.63259 123.778284 191.530371 123.86161 190.717813 124.009911 
C 189.905255 124.158211 189.448701 124.359379 189.448701 124.569107 
C 189.448701 124.778836 189.905255 124.980003 190.717813 125.128304 
C 191.530371 125.276605 192.63259 125.359931 193.78172 125.359931 
z
" style="fill:#ff0000;opacity:0.2;stroke:#ff0000;stroke-linejoin:miter;stroke-width:2;"/>
   </g>
   <g id="patch_6">
    <path clip-path="url(#p4d5c53b075)" d="M 289.108145 125.359931 
C 290.257275 125.359931 291.359494 125.276605 292.172052 125.128304 
C 292.98461 124.980003 293.441164 124.778836 293.441164 124.569107 
C 293.441164 124.359379 292.98461 124.158211 292.172052 124.009911 
C 291.359494 123.86161 290.257275 123.778284 289.108145 123.778284 
C 287.959015 123.778284 286.856795 123.86161 286.044238 124.009911 
C 285.23168 124.158211 284.775126 124.359379 284.775126 124.569107 
C 284.775126 124.778836 285.23168 124.980003 286.044238 125.128304 
C 286.856795 125.276605 287.959015 125.359931 289.108145 125.359931 
z
" style="fill:#ff0000;opacity:0.2;stroke:#ff0000;stroke-linejoin:miter;stroke-width:2;"/>
   </g>
   <g id="patch_7">
    <path clip-path="url(#p4d5c53b075)" d="M 380.10155 236.470644 
C 381.25068 236.470644 382.3529 236.387318 383.165457 236.239017 
C 383.978015 236.090717 384.434569 235.88955 384.434569 235.679821 
C 384.434569 235.470092 383.978015 235.268925 383.165457 235.120624 
C 382.3529 234.972323 381.25068 234.888997 380.10155 234.888997 
C 378.95242 234.888997 377.8502 234.972323 377.037643 235.120624 
C 376.225085 235.268925 375.768531 235.470092 375.768531 235.679821 
C 375.768531 235.88955 376.225085 236.090717 377.037643 236.239017 
C 377.8502 236.387318 378.95242 236.470644 380.10155 236.470644 
z
" style="fill:#ff0000;opacity:0.2;stroke:#ff0000;stroke-linejoin:miter;stroke-width:2;"/>
   </g>
   <g id="patch_8">
    <path clip-path="url(#p4d5c53b075)" d="M 414.765704 282.733824 
C 415.914834 282.733824 417.017054 282.650498 417.829612 282.502197 
C 418.642169 282.353896 419.098724 282.152729 419.098724 281.943 
C 419.098724 281.733271 418.642169 281.532104 417.829612 281.383804 
C 417.017054 281.235503 415.914834 281.152177 414.765704 281.152177 
C 413.616574 281.152177 412.514355 281.235503 411.701797 281.383804 
C 410.889239 281.532104 410.432685 281.733271 410.432685 281.943 
C 410.432685 282.152729 410.889239 282.353896 411.701797 282.502197 
C 412.514355 282.650498 413.616574 282.733824 414.765704 282.733824 
z
" style="fill:#ff0000;opacity:0.2;stroke:#ff0000;stroke-linejoin:miter;stroke-width:2;"/>
   </g>
   <g id="patch_9">
    <path clip-path="url(#p4d5c53b075)" d="M 241.444933 299.736531 
C 242.594063 299.736531 243.696282 299.653205 244.50884 299.504904 
C 245.321398 299.356603 245.777952 299.155436 245.777952 298.945707 
C 245.777952 298.735978 245.321398 298.534811 244.50884 298.386511 
C 243.696282 298.23821 242.594063 298.154884 241.444933 298.154884 
C 240.295803 298.154884 239.193583 298.23821 238.381025 298.386511 
C 237.568468 298.534811 237.111913 298.735978 237.111913 298.945707 
C 237.111913 299.155436 237.568468 299.356603 238.381025 299.504904 
C 239.193583 299.653205 240.295803 299.736531 241.444933 299.736531 
z
" style="fill:#0000ff;opacity:0.2;stroke:#0000ff;stroke-linejoin:miter;stroke-width:2;"/>
   </g>
   <g id="patch_10">
    <path clip-path="url(#p4d5c53b075)" d="M 135.28596 288.269589 
C 136.43509 288.269589 137.53731 288.186263 138.349867 288.037962 
C 139.162425 287.889661 139.618979 287.688494 139.618979 287.478765 
C 139.618979 287.269037 139.162425 287.067869 138.349867 286.919569 
C 137.53731 286.771268 136.43509 286.687942 135.28596 286.687942 
C 134.13683 286.687942 133.03461 286.771268 132.222053 286.919569 
C 131.409495 287.067869 130.952941 287.269037 130.952941 287.478765 
C 130.952941 287.688494 131.409495 287.889661 132.222053 288.037962 
C 133.03461 288.186263 134.13683 288.269589 135.28596 288.269589 
z
" style="fill:#0000ff;opacity:0.2;stroke:#0000ff;stroke-linejoin:miter;stroke-width:2;"/>
   </g>
   <g id="patch_11">
    <path clip-path="url(#p4d5c53b075)" d="M 150.451528 253.07794 
C 151.600658 253.07794 152.702877 252.994613 153.515435 252.846313 
C 154.327993 252.698012 154.784547 252.496845 154.784547 252.287116 
C 154.784547 252.077387 154.327993 251.87622 153.515435 251.727919 
C 152.702877 251.579619 151.600658 251.496292 150.451528 251.496292 
C 149.302397 251.496292 148.200178 251.579619 147.38762 251.727919 
C 146.575063 251.87622 146.118508 252.077387 146.118508 252.287116 
C 146.118508 252.496845 146.575063 252.698012 147.38762 252.846313 
C 148.200178 252.994613 149.302397 253.07794 150.451528 253.07794 
z
" style="fill:#0000ff;opacity:0.2;stroke:#0000ff;stroke-linejoin:miter;stroke-width:2;"/>
   </g>
   <g id="patch_12">
    <path clip-path="url(#p4d5c53b075)" d="M 213.280307 125.359931 
C 214.429437 125.359931 215.531657 125.276605 216.344215 125.128304 
C 217.156772 124.980003 217.613327 124.778836 217.613327 124.569107 
C 217.613327 124.359379 217.156772 124.158211 216.344215 124.009911 
C 215.531657 123.86161 214.429437 123.778284 213.280307 123.778284 
C 212.131177 123.778284 211.028958 123.86161 210.2164 124.009911 
C 209.403842 124.158211 208.947288 124.359379 208.947288 124.569107 
C 208.947288 124.778836 209.403842 124.980003 210.2164 125.128304 
C 211.028958 125.276605 212.131177 125.359931 213.280307 125.359931 
z
" style="fill:#0000ff;opacity:0.2;stroke:#0000ff;stroke-linejoin:miter;stroke-width:2;"/>
   </g>
   <g id="patch_13">
    <path clip-path="url(#p4d5c53b075)" d="M 269.609558 125.359931 
C 270.758688 125.359931 271.860908 125.276605 272.673465 125.128304 
C 273.486023 124.980003 273.942577 124.778836 273.942577 124.569107 
C 273.942577 124.359379 273.486023 124.158211 272.673465 124.009911 
C 271.860908 123.86161 270.758688 123.778284 269.609558 123.778284 
C 268.460428 123.778284 267.358208 123.86161 266.545651 124.009911 
C 265.733093 124.158211 265.276539 124.359379 265.276539 124.569107 
C 265.276539 124.778836 265.733093 124.980003 266.545651 125.128304 
C 267.358208 125.276605 268.460428 125.359931 269.609558 125.359931 
z
" style="fill:#0000ff;opacity:0.2;stroke:#0000ff;stroke-linejoin:miter;stroke-width:2;"/>
   </g>
   <g id="patch_14">
    <path clip-path="url(#p4d5c53b075)" d="M 332.438338 253.07794 
C 333.587468 253.07794 334.689687 252.994613 335.502245 252.846313 
C 336.314803 252.698012 336.771357 252.496845 336.771357 252.287116 
C 336.771357 252.077387 336.314803 251.87622 335.502245 251.727919 
C 334.689687 251.579619 333.587468 251.496292 332.438338 251.496292 
C 331.289208 251.496292 330.186988 251.579619 329.37443 251.727919 
C 328.561873 251.87622 328.105319 252.077387 328.105319 252.287116 
C 328.105319 252.496845 328.561873 252.698012 329.37443 252.846313 
C 330.186988 252.994613 331.289208 253.07794 332.438338 253.07794 
z
" style="fill:#0000ff;opacity:0.2;stroke:#0000ff;stroke-linejoin:miter;stroke-width:2;"/>
   </g>
   <g id="patch_15">
    <path clip-path="url(#p4d5c53b075)" d="M 347.603905 288.269589 
C 348.753035 288.269589 349.855255 288.186263 350.667813 288.037962 
C 351.48037 287.889661 351.936925 287.688494 351.936925 287.478765 
C 351.936925 287.269037 351.48037 287.067869 350.667813 286.919569 
C 349.855255 286.771268 348.753035 286.687942 347.603905 286.687942 
C 346.454775 286.687942 345.352556 286.771268 344.539998 286.919569 
C 343.72744 287.067869 343.270886 287.269037 343.270886 287.478765 
C 343.270886 287.688494 343.72744 287.889661 344.539998 288.037962 
C 345.352556 288.186263 346.454775 288.269589 347.603905 288.269589 
z
" style="fill:#0000ff;opacity:0.2;stroke:#0000ff;stroke-linejoin:miter;stroke-width:2;"/>
   </g>
   <g id="patch_16">
    <path clip-path="url(#p4d5c53b075)" d="M 241.444933 298.945707 
C 128.786431 298.945707 68.124161 295.387001 68.124161 281.943 
C 68.124161 275.616412 81.123219 263.358646 102.788315 235.679821 
L 193.78172 124.569107 
C 219.779836 121.405813 263.110029 121.405813 289.108145 124.569107 
L 380.10155 235.679821 
C 401.766646 263.358646 414.765704 275.616412 414.765704 281.943 
C 414.765704 295.387001 354.103434 298.945707 241.444933 298.945707 
" style="fill:none;stroke:#ff0000;stroke-linejoin:miter;stroke-width:0.5;"/>
   </g>
   <g id="patch_17">
    <path clip-path="url(#p4d5c53b075)" d="M 241.444933 298.945707 
C 172.116624 298.945707 135.28596 297.36406 135.28596 287.478765 
C 135.28596 281.547589 139.618979 273.243941 150.451528 252.287116 
L 213.280307 124.569107 
C 226.279365 122.196637 258.77701 122.196637 269.609558 124.569107 
L 332.438338 252.287116 
C 343.270886 273.243941 347.603905 281.547589 347.603905 287.478765 
C 347.603905 297.36406 310.773241 298.945707 241.444933 298.945707 
" style="fill:none;stroke:#0000ff;stroke-linejoin:miter;stroke-width:0.5;"/>
   </g>
   <g id="[&quot;g_s&quot;:1,&quot;g_t&quot;:1,&quot;coords&quot;:[[177.0, -966.0],[177.0, -966.0]],&quot;certainty&quot;:11]">
    <path clip-path="url(#p4d5c53b075)" d="M 241.444933 301.318178 
C 244.892323 301.318178 248.198981 301.0682 250.636655 300.623298 
C 253.074328 300.178395 254.443991 299.574894 254.443991 298.945707 
C 254.443991 298.316521 253.074328 297.713019 250.636655 297.268117 
C 248.198981 296.823215 244.892323 296.573237 241.444933 296.573237 
C 237.997542 296.573237 234.690884 296.823215 232.253211 297.268117 
C 229.815538 297.713019 228.445875 298.316521 228.445875 298.945707 
C 228.445875 299.574894 229.815538 300.178395 232.253211 300.623298 
C 234.690884 301.0682 237.997542 301.318178 241.444933 301.318178 
z
" style="fill:#0000ff;opacity:0.2;stroke:#0000ff;stroke-linejoin:miter;stroke-width:2;"/>
   </g>
   <g id="[&quot;g_s&quot;:1,&quot;g_t&quot;:1,&quot;coords&quot;:[[177.0, -966.0],[177.0, -966.0]],&quot;certainty&quot;:11]">
    <path clip-path="url(#p4d5c53b075)" d="M 241.444933 301.318178 
C 244.892323 301.318178 248.198981 301.0682 250.636655 300.623298 
C 253.074328 300.178395 254.443991 299.574894 254.443991 298.945707 
C 254.443991 298.316521 253.074328 297.713019 250.636655 297.268117 
C 248.198981 296.823215 244.892323 296.573237 241.444933 296.573237 
C 237.997542 296.573237 234.690884 296.823215 232.253211 297.268117 
C 229.815538 297.713019 228.445875 298.316521 228.445875 298.945707 
C 228.445875 299.574894 229.815538 300.178395 232.253211 300.623298 
C 234.690884 301.0682 237.997542 301.318178 241.444933 301.318178 
z
" style="fill:#ff0000;opacity:0.2;stroke:#ff0000;stroke-linejoin:miter;stroke-width:2;"/>
   </g>
   <g id="patch_18">
    <path d="M 241.444933 298.945707 
Q 241.444933 298.945707 241.444933 298.945707 
" style="fill:none;opacity:0.5;stroke:#0000ff;stroke-linecap:round;stroke-width:3;"/>
   </g>
   <g id="[&quot;g_s&quot;:2,&quot;g_t&quot;:2,&quot;coords&quot;:[[97.0, -923.0],[128.0, -937.0]],&quot;certainty&quot;:10]">
    <path clip-path="url(#p4d5c53b075)" d="M 68.124161 284.117765 
C 71.284269 284.117765 74.315372 283.888618 76.549906 283.480791 
C 78.78444 283.072964 80.039964 282.519755 80.039964 281.943 
C 80.039964 281.366246 78.78444 280.813036 76.549906 280.405209 
C 74.315372 279.997382 71.284269 279.768235 68.124161 279.768235 
C 64.964053 279.768235 61.93295 279.997382 59.698416 280.405209 
C 57.463882 280.813036 56.208358 281.366246 56.208358 281.943 
C 56.208358 282.519755 57.463882 283.072964 59.698416 283.480791 
C 61.93295 283.888618 64.964053 284.117765 68.124161 284.117765 
z
" style="fill:#0000ff;opacity:0.2;stroke:#0000ff;stroke-linejoin:miter;stroke-width:2;"/>
   </g>
   <g id="[&quot;g_s&quot;:2,&quot;g_t&quot;:2,&quot;coords&quot;:[[128.0, -937.0],[97.0, -923.0]],&quot;certainty&quot;:10]">
    <path clip-path="url(#p4d5c53b075)" d="M 135.28596 289.65353 
C 138.446068 289.65353 141.477171 289.424383 143.711705 289.016556 
C 145.946239 288.608729 147.201763 288.05552 147.201763 287.478765 
C 147.201763 286.902011 145.946239 286.348801 143.711705 285.940974 
C 141.477171 285.533148 138.446068 285.304001 135.28596 285.304001 
C 132.125852 285.304001 129.094749 285.533148 126.860215 285.940974 
C 124.625681 286.348801 123.370157 286.902011 123.370157 287.478765 
C 123.370157 288.05552 124.625681 288.608729 126.860215 289.016556 
C 129.094749 289.424383 132.125852 289.65353 135.28596 289.65353 
z
" style="fill:#ff0000;opacity:0.2;stroke:#ff0000;stroke-linejoin:miter;stroke-width:2;"/>
   </g>
   <g id="patch_19">
    <path d="M 68.124161 281.943 
Q 100.706898 284.62861 131.351663 287.154484 
" style="fill:none;opacity:0.5;stroke:#0000ff;stroke-linecap:round;stroke-width:2.75;"/>
    <path d="M 129.979951 285.536335 
L 131.351663 287.154484 
L 129.733514 288.526196 
" style="fill:none;opacity:0.5;stroke:#0000ff;stroke-linecap:round;stroke-width:2.75;"/>
   </g>
   <g id="[&quot;g_s&quot;:3,&quot;g_t&quot;:3,&quot;coords&quot;:[[113.0, -806.0],[135.0, -848.0]],&quot;certainty&quot;:8]">
    <path clip-path="url(#p4d5c53b075)" d="M 102.788315 237.459174 
C 105.373858 237.459174 107.853852 237.27169 109.682107 236.938013 
C 111.510362 236.604337 112.537609 236.151711 112.537609 235.679821 
C 112.537609 235.207931 111.510362 234.755305 109.682107 234.421628 
C 107.853852 234.087952 105.373858 233.900468 102.788315 233.900468 
C 100.202773 233.900468 97.722779 234.087952 95.894524 234.421628 
C 94.066269 234.755305 93.039022 235.207931 93.039022 235.679821 
C 93.039022 236.151711 94.066269 236.604337 95.894524 236.938013 
C 97.722779 237.27169 100.202773 237.459174 102.788315 237.459174 
z
" style="fill:#0000ff;opacity:0.2;stroke:#0000ff;stroke-linejoin:miter;stroke-width:2;"/>
   </g>
   <g id="[&quot;g_s&quot;:3,&quot;g_t&quot;:3,&quot;coords&quot;:[[135.0, -848.0],[113.0, -806.0]],&quot;certainty&quot;:8]">
    <path clip-path="url(#p4d5c53b075)" d="M 150.451528 254.066469 
C 153.03707 254.066469 155.517064 253.878985 157.345319 253.545309 
C 159.173574 253.211632 160.200821 252.759006 160.200821 252.287116 
C 160.200821 251.815226 159.173574 251.3626 157.345319 251.028923 
C 155.517064 250.695247 153.03707 250.507763 150.451528 250.507763 
C 147.865985 250.507763 145.385991 250.695247 143.557736 251.028923 
C 141.729481 251.3626 140.702234 251.815226 140.702234 252.287116 
C 140.702234 252.759006 141.729481 253.211632 143.557736 253.545309 
C 145.385991 253.878985 147.865985 254.066469 150.451528 254.066469 
z
" style="fill:#ff0000;opacity:0.2;stroke:#ff0000;stroke-linejoin:miter;stroke-width:2;"/>
   </g>
   <g id="patch_20">
    <path d="M 102.788315 235.679821 
Q 125.675908 243.654546 147.061098 251.105788 
" style="fill:none;opacity:0.5;stroke:#0000ff;stroke-linecap:round;stroke-width:2.25;"/>
    <path d="M 146.138162 249.195765 
L 147.061098 251.105788 
L 145.151074 252.028724 
" style="fill:none;opacity:0.5;stroke:#0000ff;stroke-linecap:round;stroke-width:2.25;"/>
   </g>
   <g id="[&quot;g_s&quot;:4,&quot;g_t&quot;:4,&quot;coords&quot;:[[155.0, -525.0],[164.0, -525.0]],&quot;certainty&quot;:10]">
    <path clip-path="url(#p4d5c53b075)" d="M 193.78172 126.743872 
C 196.941828 126.743872 199.972932 126.514725 202.207466 126.106898 
C 204.441999 125.699071 205.697524 125.145862 205.697524 124.569107 
C 205.697524 123.992353 204.441999 123.439143 202.207466 123.031316 
C 199.972932 122.62349 196.941828 122.394343 193.78172 122.394343 
C 190.621613 122.394343 187.590509 122.62349 185.355975 123.031316 
C 183.121442 123.439143 181.865917 123.992353 181.865917 124.569107 
C 181.865917 125.145862 183.121442 125.699071 185.355975 126.106898 
C 187.590509 126.514725 190.621613 126.743872 193.78172 126.743872 
z
" style="fill:#0000ff;opacity:0.2;stroke:#0000ff;stroke-linejoin:miter;stroke-width:2;"/>
   </g>
   <g id="[&quot;g_s&quot;:4,&quot;g_t&quot;:4,&quot;coords&quot;:[[164.0, -525.0],[155.0, -525.0]],&quot;certainty&quot;:10]">
    <path clip-path="url(#p4d5c53b075)" d="M 213.280307 126.743872 
C 216.440415 126.743872 219.471519 126.514725 221.706052 126.106898 
C 223.940586 125.699071 225.19611 125.145862 225.19611 124.569107 
C 225.19611 123.992353 223.940586 123.439143 221.706052 123.031316 
C 219.471519 122.62349 216.440415 122.394343 213.280307 122.394343 
C 210.120199 122.394343 207.089096 122.62349 204.854562 123.031316 
C 202.620028 123.439143 201.364504 123.992353 201.364504 124.569107 
C 201.364504 125.145862 202.620028 125.699071 204.854562 126.106898 
C 207.089096 126.514725 210.120199 126.743872 213.280307 126.743872 
z
" style="fill:#ff0000;opacity:0.2;stroke:#ff0000;stroke-linejoin:miter;stroke-width:2;"/>
   </g>
   <g id="patch_21">
    <path d="M 193.78172 124.569107 
Q 202.52895 124.569107 209.331636 124.569107 
" style="fill:none;opacity:0.5;stroke:#0000ff;stroke-linecap:round;stroke-width:2.75;"/>
    <path d="M 207.831636 123.069107 
L 209.331636 124.569107 
L 207.831636 126.069107 
" style="fill:none;opacity:0.5;stroke:#0000ff;stroke-linecap:round;stroke-width:2.75;"/>
   </g>
   <g id="[&quot;g_s&quot;:5,&quot;g_t&quot;:5,&quot;coords&quot;:[[199.0, -525.0],[190.0, -525.0]],&quot;certainty&quot;:5]">
    <path clip-path="url(#p4d5c53b075)" d="M 289.108145 125.755343 
C 290.83184 125.755343 292.485169 125.630354 293.704006 125.407903 
C 294.922842 125.185451 295.607674 124.883701 295.607674 124.569107 
C 295.607674 124.254514 294.922842 123.952763 293.704006 123.730312 
C 292.485169 123.507861 290.83184 123.382872 289.108145 123.382872 
C 287.38445 123.382872 285.73112 123.507861 284.512284 123.730312 
C 283.293447 123.952763 282.608616 124.254514 282.608616 124.569107 
C 282.608616 124.883701 283.293447 125.185451 284.512284 125.407903 
C 285.73112 125.630354 287.38445 125.755343 289.108145 125.755343 
z
" style="fill:#0000ff;opacity:0.2;stroke:#0000ff;stroke-linejoin:miter;stroke-width:2;"/>
   </g>
   <g id="[&quot;g_s&quot;:5,&quot;g_t&quot;:5,&quot;coords&quot;:[[190.0, -525.0],[199.0, -525.0]],&quot;certainty&quot;:5]">
    <path clip-path="url(#p4d5c53b075)" d="M 269.609558 125.755343 
C 271.333253 125.755343 272.986582 125.630354 274.205419 125.407903 
C 275.424256 125.185451 276.109087 124.883701 276.109087 124.569107 
C 276.109087 124.254514 275.424256 123.952763 274.205419 123.730312 
C 272.986582 123.507861 271.333253 123.382872 269.609558 123.382872 
C 267.885863 123.382872 266.232534 123.507861 265.013697 123.730312 
C 263.794861 123.952763 263.110029 124.254514 263.110029 124.569107 
C 263.110029 124.883701 263.794861 125.185451 265.013697 125.407903 
C 266.232534 125.630354 267.885863 125.755343 269.609558 125.755343 
z
" style="fill:#ff0000;opacity:0.2;stroke:#ff0000;stroke-linejoin:miter;stroke-width:2;"/>
   </g>
   <g id="patch_22">
    <path d="M 289.108145 124.569107 
Q 280.360915 124.569107 272.674345 124.569107 
" style="fill:none;opacity:0.5;stroke:#0000ff;stroke-linecap:round;stroke-width:1.5;"/>
    <path d="M 274.174345 126.069107 
L 272.674345 124.569107 
L 274.174345 123.069107 
" style="fill:none;opacity:0.5;stroke:#0000ff;stroke-linecap:round;stroke-width:1.5;"/>
   </g>
   <g id="[&quot;g_s&quot;:6,&quot;g_t&quot;:6,&quot;coords&quot;:[[241.0, -806.0],[219.0, -848.0]],&quot;certainty&quot;:12]">
    <path clip-path="url(#p4d5c53b075)" d="M 380.10155 238.249997 
C 383.836223 238.249997 387.418436 237.979187 390.059249 237.49721 
C 392.700061 237.015233 394.183863 236.36144 394.183863 235.679821 
C 394.183863 234.998202 392.700061 234.344409 390.059249 233.862431 
C 387.418436 233.380454 383.836223 233.109644 380.10155 233.109644 
C 376.366877 233.109644 372.784664 233.380454 370.143851 233.862431 
C 367.503039 234.344409 366.019237 234.998202 366.019237 235.679821 
C 366.019237 236.36144 367.503039 237.015233 370.143851 237.49721 
C 372.784664 237.979187 376.366877 238.249997 380.10155 238.249997 
z
" style="fill:#0000ff;opacity:0.2;stroke:#0000ff;stroke-linejoin:miter;stroke-width:2;"/>
   </g>
   <g id="[&quot;g_s&quot;:6,&quot;g_t&quot;:6,&quot;coords&quot;:[[219.0, -848.0],[241.0, -806.0]],&quot;certainty&quot;:12]">
    <path clip-path="url(#p4d5c53b075)" d="M 332.438338 254.857293 
C 336.173011 254.857293 339.755224 254.586483 342.396037 254.104505 
C 345.036849 253.622528 346.520651 252.968735 346.520651 252.287116 
C 346.520651 251.605497 345.036849 250.951704 342.396037 250.469727 
C 339.755224 249.987749 336.173011 249.716939 332.438338 249.716939 
C 328.703665 249.716939 325.121452 249.987749 322.480639 250.469727 
C 319.839826 250.951704 318.356025 251.605497 318.356025 252.287116 
C 318.356025 252.968735 319.839826 253.622528 322.480639 254.104505 
C 325.121452 254.586483 328.703665 254.857293 332.438338 254.857293 
z
" style="fill:#ff0000;opacity:0.2;stroke:#ff0000;stroke-linejoin:miter;stroke-width:2;"/>
   </g>
   <g id="patch_23">
    <path d="M 380.10155 235.679821 
Q 357.213957 243.654546 336.496503 250.873129 
" style="fill:none;opacity:0.5;stroke:#0000ff;stroke-linecap:round;stroke-width:3.25;"/>
    <path d="M 338.406526 251.796065 
L 336.496503 250.873129 
L 337.419438 248.963106 
" style="fill:none;opacity:0.5;stroke:#0000ff;stroke-linecap:round;stroke-width:3.25;"/>
   </g>
   <g id="[&quot;g_s&quot;:7,&quot;g_t&quot;:7,&quot;coords&quot;:[[257.0, -923.0],[226.0, -937.0]],&quot;certainty&quot;:12]">
    <path clip-path="url(#p4d5c53b075)" d="M 414.765704 284.513177 
C 418.500377 284.513177 422.082591 284.242367 424.723403 283.76039 
C 427.364216 283.278412 428.848017 282.624619 428.848017 281.943 
C 428.848017 281.261382 427.364216 280.607588 424.723403 280.125611 
C 422.082591 279.643634 418.500377 279.372824 414.765704 279.372824 
C 411.031031 279.372824 407.448818 279.643634 404.808006 280.125611 
C 402.167193 280.607588 400.683392 281.261382 400.683392 281.943 
C 400.683392 282.624619 402.167193 283.278412 404.808006 283.76039 
C 407.448818 284.242367 411.031031 284.513177 414.765704 284.513177 
z
" style="fill:#0000ff;opacity:0.2;stroke:#0000ff;stroke-linejoin:miter;stroke-width:2;"/>
   </g>
   <g id="[&quot;g_s&quot;:7,&quot;g_t&quot;:7,&quot;coords&quot;:[[226.0, -937.0],[257.0, -923.0]],&quot;certainty&quot;:12]">
    <path clip-path="url(#p4d5c53b075)" d="M 347.603905 290.048942 
C 351.338578 290.048942 354.920792 289.778132 357.561604 289.296155 
C 360.202417 288.814177 361.686218 288.160384 361.686218 287.478765 
C 361.686218 286.797147 360.202417 286.143353 357.561604 285.661376 
C 354.920792 285.179399 351.338578 284.908589 347.603905 284.908589 
C 343.869232 284.908589 340.287019 285.179399 337.646207 285.661376 
C 335.005394 286.143353 333.521593 286.797147 333.521593 287.478765 
C 333.521593 288.160384 335.005394 288.814177 337.646207 289.296155 
C 340.287019 289.778132 343.869232 290.048942 347.603905 290.048942 
z
" style="fill:#ff0000;opacity:0.2;stroke:#ff0000;stroke-linejoin:miter;stroke-width:2;"/>
   </g>
   <g id="patch_24">
    <path d="M 414.765704 281.943 
Q 382.182968 284.62861 351.890561 287.125441 
" style="fill:none;opacity:0.5;stroke:#0000ff;stroke-linecap:round;stroke-width:3.25;"/>
    <path d="M 353.50871 288.497153 
L 351.890561 287.125441 
L 353.262273 285.507292 
" style="fill:none;opacity:0.5;stroke:#0000ff;stroke-linecap:round;stroke-width:3.25;"/>
   </g>
   <g id="[&quot;g_s&quot;:1,&quot;g_t&quot;:1,&quot;coords&quot;:[[177.0, -966.0],[177.0, -966.0]],&quot;certainty&quot;:11]">
    <path clip-path="url(#p4d5c53b075)" d="M 241.444933 301.318178 
C 244.892323 301.318178 248.198981 301.0682 250.636655 300.623298 
C 253.074328 300.178395 254.443991 299.574894 254.443991 298.945707 
C 254.443991 298.316521 253.074328 297.713019 250.636655 297.268117 
C 248.198981 296.823215 244.892323 296.573237 241.444933 296.573237 
C 237.997542 296.573237 234.690884 296.823215 232.253211 297.268117 
C 229.815538 297.713019 228.445875 298.316521 228.445875 298.945707 
C 228.445875 299.574894 229.815538 300.178395 232.253211 300.623298 
C 234.690884 301.0682 237.997542 301.318178 241.444933 301.318178 
z
" style="fill:#0000ff;opacity:0.2;stroke:#0000ff;stroke-linejoin:miter;stroke-width:2;"/>
   </g>
   <g id="[&quot;g_s&quot;:1,&quot;g_t&quot;:1,&quot;coords&quot;:[[177.0, -966.0],[177.0, -966.0]],&quot;certainty&quot;:11]">
    <path clip-path="url(#p4d5c53b075)" d="M 241.444933 301.318178 
C 244.892323 301.318178 248.198981 301.0682 250.636655 300.623298 
C 253.074328 300.178395 254.443991 299.574894 254.443991 298.945707 
C 254.443991 298.316521 253.074328 297.713019 250.636655 297.268117 
C 248.198981 296.823215 244.892323 296.573237 241.444933 296.573237 
C 237.997542 296.573237 234.690884 296.823215 232.253211 297.268117 
C 229.815538 297.713019 228.445875 298.316521 228.445875 298.945707 
C 228.445875 299.574894 229.815538 300.178395 232.253211 300.623298 
C 234.690884 301.0682 237.997542 301.318178 241.444933 301.318178 
z
" style="fill:#ff0000;opacity:0.2;stroke:#ff0000;stroke-linejoin:miter;stroke-width:2;"/>
   </g>
   <g id="patch_25">
    <path d="M 241.444933 298.945707 
Q 241.444933 298.945707 241.444933 298.945707 
" style="fill:none;opacity:0.5;stroke:#ff0000;stroke-linecap:round;stroke-width:3;"/>
   </g>
   <g id="[&quot;g_s&quot;:2,&quot;g_t&quot;:2,&quot;coords&quot;:[[128.0, -937.0],[97.0, -923.0]],&quot;certainty&quot;:8]">
    <path clip-path="url(#p4d5c53b075)" d="M 135.28596 289.258118 
C 137.871503 289.258118 140.351497 289.070635 142.179752 288.736958 
C 144.008006 288.403281 145.035253 287.950655 145.035253 287.478765 
C 145.035253 287.006875 144.008006 286.554249 142.179752 286.220573 
C 140.351497 285.886896 137.871503 285.699412 135.28596 285.699412 
C 132.700417 285.699412 130.220423 285.886896 128.392169 286.220573 
C 126.563914 286.554249 125.536667 287.006875 125.536667 287.478765 
C 125.536667 287.950655 126.563914 288.403281 128.392169 288.736958 
C 130.220423 289.070635 132.700417 289.258118 135.28596 289.258118 
z
" style="fill:#0000ff;opacity:0.2;stroke:#0000ff;stroke-linejoin:miter;stroke-width:2;"/>
   </g>
   <g id="[&quot;g_s&quot;:2,&quot;g_t&quot;:2,&quot;coords&quot;:[[97.0, -923.0],[128.0, -937.0]],&quot;certainty&quot;:8]">
    <path clip-path="url(#p4d5c53b075)" d="M 68.124161 283.722353 
C 70.709704 283.722353 73.189698 283.53487 75.017952 283.201193 
C 76.846207 282.867516 77.873454 282.41489 77.873454 281.943 
C 77.873454 281.47111 76.846207 281.018484 75.017952 280.684808 
C 73.189698 280.351131 70.709704 280.163647 68.124161 280.163647 
C 65.538618 280.163647 63.058624 280.351131 61.23037 280.684808 
C 59.402115 281.018484 58.374868 281.47111 58.374868 281.943 
C 58.374868 282.41489 59.402115 282.867516 61.23037 283.201193 
C 63.058624 283.53487 65.538618 283.722353 68.124161 283.722353 
z
" style="fill:#ff0000;opacity:0.2;stroke:#ff0000;stroke-linejoin:miter;stroke-width:2;"/>
   </g>
   <g id="patch_26">
    <path d="M 135.28596 287.478765 
Q 102.703223 284.793156 71.7061 282.238239 
" style="fill:none;opacity:0.5;stroke:#ff0000;stroke-linecap:round;stroke-width:2.25;"/>
    <path d="M 73.077812 283.856388 
L 71.7061 282.238239 
L 73.324249 280.866527 
" style="fill:none;opacity:0.5;stroke:#ff0000;stroke-linecap:round;stroke-width:2.25;"/>
   </g>
   <g id="[&quot;g_s&quot;:3,&quot;g_t&quot;:3,&quot;coords&quot;:[[135.0, -848.0],[113.0, -806.0]],&quot;certainty&quot;:7]">
    <path clip-path="url(#p4d5c53b075)" d="M 150.451528 253.868763 
C 152.749788 253.868763 154.954227 253.702111 156.579342 253.405509 
C 158.204458 253.108908 159.117566 252.706574 159.117566 252.287116 
C 159.117566 251.867658 158.204458 251.465324 156.579342 251.168723 
C 154.954227 250.872121 152.749788 250.705469 150.451528 250.705469 
C 148.153267 250.705469 145.948828 250.872121 144.323713 251.168723 
C 142.698597 251.465324 141.785489 251.867658 141.785489 252.287116 
C 141.785489 252.706574 142.698597 253.108908 144.323713 253.405509 
C 145.948828 253.702111 148.153267 253.868763 150.451528 253.868763 
z
" style="fill:#0000ff;opacity:0.2;stroke:#0000ff;stroke-linejoin:miter;stroke-width:2;"/>
   </g>
   <g id="[&quot;g_s&quot;:3,&quot;g_t&quot;:3,&quot;coords&quot;:[[113.0, -806.0],[135.0, -848.0]],&quot;certainty&quot;:7]">
    <path clip-path="url(#p4d5c53b075)" d="M 102.788315 237.261468 
C 105.086576 237.261468 107.291015 237.094816 108.91613 236.798214 
C 110.541245 236.501613 111.454354 236.099279 111.454354 235.679821 
C 111.454354 235.260363 110.541245 234.858029 108.91613 234.561427 
C 107.291015 234.264826 105.086576 234.098174 102.788315 234.098174 
C 100.490055 234.098174 98.285616 234.264826 96.660501 234.561427 
C 95.035385 234.858029 94.122277 235.260363 94.122277 235.679821 
C 94.122277 236.099279 95.035385 236.501613 96.660501 236.798214 
C 98.285616 237.094816 100.490055 237.261468 102.788315 237.261468 
z
" style="fill:#ff0000;opacity:0.2;stroke:#ff0000;stroke-linejoin:miter;stroke-width:2;"/>
   </g>
   <g id="patch_27">
    <path d="M 150.451528 252.287116 
Q 127.563935 244.312391 106.011811 236.802984 
" style="fill:none;opacity:0.5;stroke:#ff0000;stroke-linecap:round;stroke-width:2;"/>
    <path d="M 106.934747 238.713007 
L 106.011811 236.802984 
L 107.921835 235.880048 
" style="fill:none;opacity:0.5;stroke:#ff0000;stroke-linecap:round;stroke-width:2;"/>
   </g>
   <g id="[&quot;g_s&quot;:4,&quot;g_t&quot;:4,&quot;coords&quot;:[[164.0, -525.0],[155.0, -525.0]],&quot;certainty&quot;:10]">
    <path clip-path="url(#p4d5c53b075)" d="M 213.280307 126.743872 
C 216.440415 126.743872 219.471519 126.514725 221.706052 126.106898 
C 223.940586 125.699071 225.19611 125.145862 225.19611 124.569107 
C 225.19611 123.992353 223.940586 123.439143 221.706052 123.031316 
C 219.471519 122.62349 216.440415 122.394343 213.280307 122.394343 
C 210.120199 122.394343 207.089096 122.62349 204.854562 123.031316 
C 202.620028 123.439143 201.364504 123.992353 201.364504 124.569107 
C 201.364504 125.145862 202.620028 125.699071 204.854562 126.106898 
C 207.089096 126.514725 210.120199 126.743872 213.280307 126.743872 
z
" style="fill:#0000ff;opacity:0.2;stroke:#0000ff;stroke-linejoin:miter;stroke-width:2;"/>
   </g>
   <g id="[&quot;g_s&quot;:4,&quot;g_t&quot;:4,&quot;coords&quot;:[[155.0, -525.0],[164.0, -525.0]],&quot;certainty&quot;:10]">
    <path clip-path="url(#p4d5c53b075)" d="M 193.78172 126.743872 
C 196.941828 126.743872 199.972932 126.514725 202.207466 126.106898 
C 204.441999 125.699071 205.697524 125.145862 205.697524 124.569107 
C 205.697524 123.992353 204.441999 123.439143 202.207466 123.031316 
C 199.972932 122.62349 196.941828 122.394343 193.78172 122.394343 
C 190.621613 122.394343 187.590509 122.62349 185.355975 123.031316 
C 183.121442 123.439143 181.865917 123.992353 181.865917 124.569107 
C 181.865917 125.145862 183.121442 125.699071 185.355975 126.106898 
C 187.590509 126.514725 190.621613 126.743872 193.78172 126.743872 
z
" style="fill:#ff0000;opacity:0.2;stroke:#ff0000;stroke-linejoin:miter;stroke-width:2;"/>
   </g>
   <g id="patch_28">
    <path d="M 213.280307 124.569107 
Q 204.533077 124.569107 197.730391 124.569107 
" style="fill:none;opacity:0.5;stroke:#ff0000;stroke-linecap:round;stroke-width:2.75;"/>
    <path d="M 199.230391 126.069107 
L 197.730391 124.569107 
L 199.230391 123.069107 
" style="fill:none;opacity:0.5;stroke:#ff0000;stroke-linecap:round;stroke-width:2.75;"/>
   </g>
   <g id="[&quot;g_s&quot;:5,&quot;g_t&quot;:5,&quot;coords&quot;:[[190.0, -525.0],[199.0, -525.0]],&quot;certainty&quot;:6]">
    <path clip-path="url(#p4d5c53b075)" d="M 269.609558 125.953049 
C 271.620536 125.953049 273.54942 125.807228 274.971396 125.547702 
C 276.393372 125.288175 277.192342 124.936133 277.192342 124.569107 
C 277.192342 124.202082 276.393372 123.850039 274.971396 123.590513 
C 273.54942 123.330987 271.620536 123.185166 269.609558 123.185166 
C 267.59858 123.185166 265.669696 123.330987 264.24772 123.590513 
C 262.825744 123.850039 262.026774 124.202082 262.026774 124.569107 
C 262.026774 124.936133 262.825744 125.288175 264.24772 125.547702 
C 265.669696 125.807228 267.59858 125.953049 269.609558 125.953049 
z
" style="fill:#0000ff;opacity:0.2;stroke:#0000ff;stroke-linejoin:miter;stroke-width:2;"/>
   </g>
   <g id="[&quot;g_s&quot;:5,&quot;g_t&quot;:5,&quot;coords&quot;:[[199.0, -525.0],[190.0, -525.0]],&quot;certainty&quot;:6]">
    <path clip-path="url(#p4d5c53b075)" d="M 289.108145 125.953049 
C 291.119123 125.953049 293.048007 125.807228 294.469983 125.547702 
C 295.891959 125.288175 296.690929 124.936133 296.690929 124.569107 
C 296.690929 124.202082 295.891959 123.850039 294.469983 123.590513 
C 293.048007 123.330987 291.119123 123.185166 289.108145 123.185166 
C 287.097167 123.185166 285.168283 123.330987 283.746307 123.590513 
C 282.324331 123.850039 281.525361 124.202082 281.525361 124.569107 
C 281.525361 124.936133 282.324331 125.288175 283.746307 125.547702 
C 285.168283 125.807228 287.097167 125.953049 289.108145 125.953049 
z
" style="fill:#ff0000;opacity:0.2;stroke:#ff0000;stroke-linejoin:miter;stroke-width:2;"/>
   </g>
   <g id="patch_29">
    <path d="M 269.609558 124.569107 
Q 278.356788 124.569107 285.866581 124.569107 
" style="fill:none;opacity:0.5;stroke:#ff0000;stroke-linecap:round;stroke-width:1.75;"/>
    <path d="M 284.366581 123.069107 
L 285.866581 124.569107 
L 284.366581 126.069107 
" style="fill:none;opacity:0.5;stroke:#ff0000;stroke-linecap:round;stroke-width:1.75;"/>
   </g>
   <g id="[&quot;g_s&quot;:6,&quot;g_t&quot;:6,&quot;coords&quot;:[[219.0, -848.0],[241.0, -806.0]],&quot;certainty&quot;:13]">
    <path clip-path="url(#p4d5c53b075)" d="M 332.438338 255.054999 
C 336.460293 255.054999 340.318061 254.763357 343.162013 254.244305 
C 346.005965 253.725252 347.603905 253.021167 347.603905 252.287116 
C 347.603905 251.553065 346.005965 250.84898 343.162013 250.329927 
C 340.318061 249.810875 336.460293 249.519233 332.438338 249.519233 
C 328.416382 249.519233 324.558614 249.810875 321.714662 250.329927 
C 318.87071 250.84898 317.27277 251.553065 317.27277 252.287116 
C 317.27277 253.021167 318.87071 253.725252 321.714662 254.244305 
C 324.558614 254.763357 328.416382 255.054999 332.438338 255.054999 
z
" style="fill:#0000ff;opacity:0.2;stroke:#0000ff;stroke-linejoin:miter;stroke-width:2;"/>
   </g>
   <g id="[&quot;g_s&quot;:6,&quot;g_t&quot;:6,&quot;coords&quot;:[[241.0, -806.0],[219.0, -848.0]],&quot;certainty&quot;:13]">
    <path clip-path="url(#p4d5c53b075)" d="M 380.10155 238.447703 
C 384.123506 238.447703 387.981274 238.156062 390.825226 237.637009 
C 393.669178 237.117957 395.267118 236.413872 395.267118 235.679821 
C 395.267118 234.94577 393.669178 234.241685 390.825226 233.722632 
C 387.981274 233.20358 384.123506 232.911938 380.10155 232.911938 
C 376.079594 232.911938 372.221826 233.20358 369.377874 233.722632 
C 366.533922 234.241685 364.935982 234.94577 364.935982 235.679821 
C 364.935982 236.413872 366.533922 237.117957 369.377874 237.637009 
C 372.221826 238.156062 376.079594 238.447703 380.10155 238.447703 
z
" style="fill:#ff0000;opacity:0.2;stroke:#ff0000;stroke-linejoin:miter;stroke-width:2;"/>
   </g>
   <g id="patch_30">
    <path d="M 332.438338 252.287116 
Q 355.325931 244.312391 375.876452 237.151972 
" style="fill:none;opacity:0.5;stroke:#ff0000;stroke-linecap:round;stroke-width:3.5;"/>
    <path d="M 373.966428 236.229036 
L 375.876452 237.151972 
L 374.953516 239.061996 
" style="fill:none;opacity:0.5;stroke:#ff0000;stroke-linecap:round;stroke-width:3.5;"/>
   </g>
   <g id="[&quot;g_s&quot;:7,&quot;g_t&quot;:7,&quot;coords&quot;:[[226.0, -937.0],[257.0, -923.0]],&quot;certainty&quot;:10]">
    <path clip-path="url(#p4d5c53b075)" d="M 347.603905 289.65353 
C 350.764013 289.65353 353.795117 289.424383 356.02965 289.016556 
C 358.264184 288.608729 359.519708 288.05552 359.519708 287.478765 
C 359.519708 286.902011 358.264184 286.348801 356.02965 285.940974 
C 353.795117 285.533148 350.764013 285.304001 347.603905 285.304001 
C 344.443797 285.304001 341.412694 285.533148 339.17816 285.940974 
C 336.943626 286.348801 335.688102 286.902011 335.688102 287.478765 
C 335.688102 288.05552 336.943626 288.608729 339.17816 289.016556 
C 341.412694 289.424383 344.443797 289.65353 347.603905 289.65353 
z
" style="fill:#0000ff;opacity:0.2;stroke:#0000ff;stroke-linejoin:miter;stroke-width:2;"/>
   </g>
   <g id="[&quot;g_s&quot;:7,&quot;g_t&quot;:7,&quot;coords&quot;:[[257.0, -923.0],[226.0, -937.0]],&quot;certainty&quot;:10]">
    <path clip-path="url(#p4d5c53b075)" d="M 414.765704 284.117765 
C 417.925812 284.117765 420.956916 283.888618 423.191449 283.480791 
C 425.425983 283.072964 426.681507 282.519755 426.681507 281.943 
C 426.681507 281.366246 425.425983 280.813036 423.191449 280.405209 
C 420.956916 279.997382 417.925812 279.768235 414.765704 279.768235 
C 411.605596 279.768235 408.574493 279.997382 406.339959 280.405209 
C 404.105425 280.813036 402.849901 281.366246 402.849901 281.943 
C 402.849901 282.519755 404.105425 283.072964 406.339959 283.480791 
C 408.574493 283.888618 411.605596 284.117765 414.765704 284.117765 
z
" style="fill:#ff0000;opacity:0.2;stroke:#ff0000;stroke-linejoin:miter;stroke-width:2;"/>
   </g>
   <g id="patch_31">
    <path d="M 347.603905 287.478765 
Q 380.186642 284.793156 410.831407 282.267282 
" style="fill:none;opacity:0.5;stroke:#ff0000;stroke-linecap:round;stroke-width:2.75;"/>
    <path d="M 409.213258 280.89557 
L 410.831407 282.267282 
L 409.459695 283.885431 
" style="fill:none;opacity:0.5;stroke:#ff0000;stroke-linecap:round;stroke-width:2.75;"/>
   </g>
   <g id="patch_32">
    <path clip-path="url(#p4d5c53b075)" d="M 241.444933 300.922766 
C 244.317758 300.922766 247.073307 300.714451 249.104701 300.343699 
C 251.136095 299.972947 252.277481 299.47003 252.277481 298.945707 
C 252.277481 298.421385 251.136095 297.918467 249.104701 297.547716 
C 247.073307 297.176964 244.317758 296.968648 241.444933 296.968648 
C 238.572107 296.968648 235.816559 297.176964 233.785164 297.547716 
C 231.75377 297.918467 230.612384 298.421385 230.612384 298.945707 
C 230.612384 299.47003 231.75377 299.972947 233.785164 300.343699 
C 235.816559 300.714451 238.572107 300.922766 241.444933 300.922766 
z
" style="fill:#008000;opacity:0.2;stroke:#008000;stroke-linejoin:miter;stroke-width:2;"/>
   </g>
   <g id="patch_33">
    <path clip-path="url(#p4d5c53b075)" d="M 101.705061 286.687942 
C 104.577886 286.687942 107.333435 286.479626 109.364829 286.108875 
C 111.396223 285.738123 112.537609 285.235205 112.537609 284.710883 
C 112.537609 284.186561 111.396223 283.683643 109.364829 283.312891 
C 107.333435 282.942139 104.577886 282.733824 101.705061 282.733824 
C 98.832235 282.733824 96.076687 282.942139 94.045292 283.312891 
C 92.013898 283.683643 90.872512 284.186561 90.872512 284.710883 
C 90.872512 285.235205 92.013898 285.738123 94.045292 286.108875 
C 96.076687 286.479626 98.832235 286.687942 101.705061 286.687942 
z
" style="fill:#008000;opacity:0.2;stroke:#008000;stroke-linejoin:miter;stroke-width:2;"/>
   </g>
   <g id="patch_34">
    <path clip-path="url(#p4d5c53b075)" d="M 126.619921 245.960527 
C 129.492747 245.960527 132.248295 245.752212 134.27969 245.38146 
C 136.311084 245.010708 137.45247 244.507791 137.45247 243.983468 
C 137.45247 243.459146 136.311084 242.956228 134.27969 242.585477 
C 132.248295 242.214725 129.492747 242.006409 126.619921 242.006409 
C 123.747096 242.006409 120.991547 242.214725 118.960153 242.585477 
C 116.928759 242.956228 115.787373 243.459146 115.787373 243.983468 
C 115.787373 244.507791 116.928759 245.010708 118.960153 245.38146 
C 120.991547 245.752212 123.747096 245.960527 126.619921 245.960527 
z
" style="fill:#008000;opacity:0.2;stroke:#008000;stroke-linejoin:miter;stroke-width:2;"/>
   </g>
   <g id="patch_35">
    <path clip-path="url(#p4d5c53b075)" d="M 203.531014 126.546166 
C 206.403839 126.546166 209.159388 126.337851 211.190782 125.967099 
C 213.222176 125.596347 214.363562 125.09343 214.363562 124.569107 
C 214.363562 124.044785 213.222176 123.541867 211.190782 123.171116 
C 209.159388 122.800364 206.403839 122.592048 203.531014 122.592048 
C 200.658189 122.592048 197.90264 122.800364 195.871246 123.171116 
C 193.839851 123.541867 192.698466 124.044785 192.698466 124.569107 
C 192.698466 125.09343 193.839851 125.596347 195.871246 125.967099 
C 197.90264 126.337851 200.658189 126.546166 203.531014 126.546166 
z
" style="fill:#008000;opacity:0.2;stroke:#008000;stroke-linejoin:miter;stroke-width:2;"/>
   </g>
   <g id="patch_36">
    <path clip-path="url(#p4d5c53b075)" d="M 279.358851 126.546166 
C 282.231677 126.546166 284.987225 126.337851 287.01862 125.967099 
C 289.050014 125.596347 290.1914 125.09343 290.1914 124.569107 
C 290.1914 124.044785 289.050014 123.541867 287.01862 123.171116 
C 284.987225 122.800364 282.231677 122.592048 279.358851 122.592048 
C 276.486026 122.592048 273.730477 122.800364 271.699083 123.171116 
C 269.667689 123.541867 268.526303 124.044785 268.526303 124.569107 
C 268.526303 125.09343 269.667689 125.596347 271.699083 125.967099 
C 273.730477 126.337851 276.486026 126.546166 279.358851 126.546166 
z
" style="fill:#008000;opacity:0.2;stroke:#008000;stroke-linejoin:miter;stroke-width:2;"/>
   </g>
   <g id="patch_37">
    <path clip-path="url(#p4d5c53b075)" d="M 356.269944 245.960527 
C 359.142769 245.960527 361.898318 245.752212 363.929712 245.38146 
C 365.961107 245.010708 367.102492 244.507791 367.102492 243.983468 
C 367.102492 243.459146 365.961107 242.956228 363.929712 242.585477 
C 361.898318 242.214725 359.142769 242.006409 356.269944 242.006409 
C 353.397119 242.006409 350.64157 242.214725 348.610176 242.585477 
C 346.578781 242.956228 345.437396 243.459146 345.437396 243.983468 
C 345.437396 244.507791 346.578781 245.010708 348.610176 245.38146 
C 350.64157 245.752212 353.397119 245.960527 356.269944 245.960527 
z
" style="fill:#008000;opacity:0.2;stroke:#008000;stroke-linejoin:miter;stroke-width:2;"/>
   </g>
   <g id="patch_38">
    <path clip-path="url(#p4d5c53b075)" d="M 381.184805 286.687942 
C 384.05763 286.687942 386.813179 286.479626 388.844573 286.108875 
C 390.875967 285.738123 392.017353 285.235205 392.017353 284.710883 
C 392.017353 284.186561 390.875967 283.683643 388.844573 283.312891 
C 386.813179 282.942139 384.05763 282.733824 381.184805 282.733824 
C 378.311979 282.733824 375.556431 282.942139 373.525037 283.312891 
C 371.493642 283.683643 370.352257 284.186561 370.352257 284.710883 
C 370.352257 285.235205 371.493642 285.738123 373.525037 286.108875 
C 375.556431 286.479626 378.311979 286.687942 381.184805 286.687942 
z
" style="fill:#008000;opacity:0.2;stroke:#008000;stroke-linejoin:miter;stroke-width:2;"/>
   </g>
   <g id="patch_39">
    <path clip-path="url(#p4d5c53b075)" d="M 241.444933 306.853943 
C 252.936234 306.853943 263.958429 306.020682 272.084006 304.537675 
C 280.209583 303.054668 284.775126 301.042996 284.775126 298.945707 
C 284.775126 296.848419 280.209583 294.836747 272.084006 293.35374 
C 263.958429 291.870733 252.936234 291.037472 241.444933 291.037472 
C 229.953631 291.037472 218.931437 291.870733 210.805859 293.35374 
C 202.680282 294.836747 198.11474 296.848419 198.11474 298.945707 
C 198.11474 301.042996 202.680282 303.054668 210.805859 304.537675 
C 218.931437 306.020682 229.953631 306.853943 241.444933 306.853943 
z
" style="fill:none;opacity:0.2;stroke:#ff0000;stroke-linejoin:miter;stroke-width:2;"/>
   </g>
   <g id="patch_40">
    <path clip-path="url(#p4d5c53b075)" d="M 241.444933 306.853943 
C 252.936234 306.853943 263.958429 306.020682 272.084006 304.537675 
C 280.209583 303.054668 284.775126 301.042996 284.775126 298.945707 
C 284.775126 296.848419 280.209583 294.836747 272.084006 293.35374 
C 263.958429 291.870733 252.936234 291.037472 241.444933 291.037472 
C 229.953631 291.037472 218.931437 291.870733 210.805859 293.35374 
C 202.680282 294.836747 198.11474 296.848419 198.11474 298.945707 
C 198.11474 301.042996 202.680282 303.054668 210.805859 304.537675 
C 218.931437 306.020682 229.953631 306.853943 241.444933 306.853943 
z
" style="fill:none;opacity:0.2;stroke:#0000ff;stroke-linejoin:miter;stroke-width:2;"/>
   </g>
   <g id="patch_41">
    <path clip-path="url(#p4d5c53b075)" d="M 241.444933 302.899825 
C 247.190583 302.899825 252.701681 302.483194 256.764469 301.741691 
C 260.827258 301.000187 263.110029 299.994352 263.110029 298.945707 
C 263.110029 297.897063 260.827258 296.891227 256.764469 296.149724 
C 252.701681 295.40822 247.190583 294.991589 241.444933 294.991589 
C 235.699282 294.991589 230.188185 295.40822 226.125396 296.149724 
C 222.062607 296.891227 219.779836 297.897063 219.779836 298.945707 
C 219.779836 299.994352 222.062607 301.000187 226.125396 301.741691 
C 230.188185 302.483194 235.699282 302.899825 241.444933 302.899825 
z
" style="fill:none;opacity:0.2;stroke:#008000;stroke-linejoin:miter;stroke-width:2;"/>
   </g>
   <g id="patch_42">
    <path clip-path="url(#p4d5c53b075)" d="M 241.444933 302.899825 
C 247.190583 302.899825 252.701681 302.483194 256.764469 301.741691 
C 260.827258 301.000187 263.110029 299.994352 263.110029 298.945707 
C 263.110029 297.897063 260.827258 296.891227 256.764469 296.149724 
C 252.701681 295.40822 247.190583 294.991589 241.444933 294.991589 
C 235.699282 294.991589 230.188185 295.40822 226.125396 296.149724 
C 222.062607 296.891227 219.779836 297.897063 219.779836 298.945707 
C 219.779836 299.994352 222.062607 301.000187 226.125396 301.741691 
C 230.188185 302.483194 235.699282 302.899825 241.444933 302.899825 
z
" style="fill:none;opacity:0.2;stroke:#008000;stroke-linejoin:miter;stroke-width:2;"/>
   </g>
   <g id="patch_43">
    <path d="M 241.444933 298.945707 
Q 171.574997 291.828295 101.705061 284.710883 
" style="fill:none;opacity:0.5;stroke:#008000;stroke-linecap:round;stroke-width:2;"/>
   </g>
   <g id="patch_44">
    <path d="M 241.444933 298.945707 
Q 241.444933 298.945707 241.444933 298.945707 
" style="fill:none;opacity:0.5;stroke:#800080;stroke-linecap:round;stroke-width:2;"/>
   </g>
   <g id="patch_45">
    <path d="M 101.705061 284.710883 
Q 114.162491 264.347176 126.619921 243.983468 
" style="fill:none;opacity:0.5;stroke:#008000;stroke-linecap:round;stroke-width:2;"/>
   </g>
   <g id="patch_46">
    <path d="M 69.533595 282.059172 
Q 100.706898 284.62861 131.880201 287.198048 
" style="fill:none;opacity:0.5;stroke:#800080;stroke-linecap:round;stroke-width:2;"/>
    <path d="M 70.905307 283.677321 
L 69.533595 282.059172 
L 71.151744 280.68746 
" style="fill:none;opacity:0.5;stroke:#800080;stroke-linecap:round;stroke-width:2;"/>
    <path d="M 130.508489 285.579899 
L 131.880201 287.198048 
L 130.262051 288.56976 
" style="fill:none;opacity:0.5;stroke:#800080;stroke-linecap:round;stroke-width:2;"/>
   </g>
   <g id="patch_47">
    <path d="M 126.619921 243.983468 
Q 165.075468 184.276288 203.531014 124.569107 
" style="fill:none;opacity:0.5;stroke:#008000;stroke-linecap:round;stroke-width:2;"/>
   </g>
   <g id="patch_48">
    <path d="M 104.123785 236.145139 
Q 125.675908 243.654546 147.228031 251.163953 
" style="fill:none;opacity:0.5;stroke:#800080;stroke-linecap:round;stroke-width:2;"/>
    <path d="M 105.046721 238.055162 
L 104.123785 236.145139 
L 106.033809 235.222203 
" style="fill:none;opacity:0.5;stroke:#800080;stroke-linecap:round;stroke-width:2;"/>
    <path d="M 146.305096 249.25393 
L 147.228031 251.163953 
L 145.318008 252.086889 
" style="fill:none;opacity:0.5;stroke:#800080;stroke-linecap:round;stroke-width:2;"/>
   </g>
   <g id="patch_49">
    <path d="M 203.531014 124.569107 
Q 241.444933 124.569107 279.358851 124.569107 
" style="fill:none;opacity:0.5;stroke:#008000;stroke-linecap:round;stroke-width:2;"/>
   </g>
   <g id="patch_50">
    <path d="M 195.195934 124.569107 
Q 202.52895 124.569107 209.861967 124.569107 
" style="fill:none;opacity:0.5;stroke:#800080;stroke-linecap:round;stroke-width:2;"/>
    <path d="M 196.695934 126.069107 
L 195.195934 124.569107 
L 196.695934 123.069107 
" style="fill:none;opacity:0.5;stroke:#800080;stroke-linecap:round;stroke-width:2;"/>
    <path d="M 208.361967 123.069107 
L 209.861967 124.569107 
L 208.361967 126.069107 
" style="fill:none;opacity:0.5;stroke:#800080;stroke-linecap:round;stroke-width:2;"/>
   </g>
   <g id="patch_51">
    <path d="M 279.358851 124.569107 
Q 317.814398 184.276288 356.269944 243.983468 
" style="fill:none;opacity:0.5;stroke:#008000;stroke-linecap:round;stroke-width:2;"/>
   </g>
   <g id="patch_52">
    <path d="M 287.693931 124.569107 
Q 280.360915 124.569107 273.027899 124.569107 
" style="fill:none;opacity:0.5;stroke:#800080;stroke-linecap:round;stroke-width:2;"/>
    <path d="M 286.193931 123.069107 
L 287.693931 124.569107 
L 286.193931 126.069107 
" style="fill:none;opacity:0.5;stroke:#800080;stroke-linecap:round;stroke-width:2;"/>
    <path d="M 274.527899 126.069107 
L 273.027899 124.569107 
L 274.527899 123.069107 
" style="fill:none;opacity:0.5;stroke:#800080;stroke-linecap:round;stroke-width:2;"/>
   </g>
   <g id="patch_53">
    <path d="M 356.269944 243.983468 
Q 368.727374 264.347176 381.184805 284.710883 
" style="fill:none;opacity:0.5;stroke:#008000;stroke-linecap:round;stroke-width:2;"/>
   </g>
   <g id="patch_54">
    <path d="M 378.76608 236.145139 
Q 357.213957 243.654546 335.661834 251.163953 
" style="fill:none;opacity:0.5;stroke:#800080;stroke-linecap:round;stroke-width:2;"/>
    <path d="M 376.856057 235.222203 
L 378.76608 236.145139 
L 377.843145 238.055162 
" style="fill:none;opacity:0.5;stroke:#800080;stroke-linecap:round;stroke-width:2;"/>
    <path d="M 337.571858 252.086889 
L 335.661834 251.163953 
L 336.584769 249.25393 
" style="fill:none;opacity:0.5;stroke:#800080;stroke-linecap:round;stroke-width:2;"/>
   </g>
   <g id="patch_55">
    <path d="M 381.184805 284.710883 
Q 311.314869 291.828295 241.444933 298.945707 
" style="fill:none;opacity:0.5;stroke:#008000;stroke-linecap:round;stroke-width:2;"/>
   </g>
   <g id="patch_56">
    <path d="M 413.35627 282.059172 
Q 382.182968 284.62861 351.009665 287.198048 
" style="fill:none;opacity:0.5;stroke:#800080;stroke-linecap:round;stroke-width:2;"/>
    <path d="M 411.738121 280.68746 
L 413.35627 282.059172 
L 411.984558 283.677321 
" style="fill:none;opacity:0.5;stroke:#800080;stroke-linecap:round;stroke-width:2;"/>
    <path d="M 352.627814 288.56976 
L 351.009665 287.198048 
L 352.381377 285.579899 
" style="fill:none;opacity:0.5;stroke:#800080;stroke-linecap:round;stroke-width:2;"/>
   </g>
   <g id="patch_57">
    <path clip-path="url(#p4d5c53b075)" d="M 241.444933 38.764749 
C 242.594063 38.764749 243.696282 38.681423 244.50884 38.533122 
C 245.321398 38.384821 245.777952 38.183654 245.777952 37.973925 
C 245.777952 37.764196 245.321398 37.563029 244.50884 37.414728 
C 243.696282 37.266428 242.594063 37.183102 241.444933 37.183102 
C 240.295803 37.183102 239.193583 37.266428 238.381025 37.414728 
C 237.568468 37.563029 237.111913 37.764196 237.111913 37.973925 
C 237.111913 38.183654 237.568468 38.384821 238.381025 38.533122 
C 239.193583 38.681423 240.295803 38.764749 241.444933 38.764749 
z
" style="fill:#ff0000;opacity:0.2;stroke:#ff0000;stroke-linejoin:miter;stroke-width:2;"/>
   </g>
   <g id="patch_58">
    <path clip-path="url(#p4d5c53b075)" d="M 416.932214 70.793104 
C 418.081344 70.793104 419.183564 70.709778 419.996121 70.561477 
C 420.808679 70.413176 421.265233 70.212009 421.265233 70.00228 
C 421.265233 69.792551 420.808679 69.591384 419.996121 69.443084 
C 419.183564 69.294783 418.081344 69.211457 416.932214 69.211457 
C 415.783084 69.211457 414.680864 69.294783 413.868307 69.443084 
C 413.055749 69.591384 412.599195 69.792551 412.599195 70.00228 
C 412.599195 70.212009 413.055749 70.413176 413.868307 70.561477 
C 414.680864 70.709778 415.783084 70.793104 416.932214 70.793104 
z
" style="fill:#ff0000;opacity:0.2;stroke:#ff0000;stroke-linejoin:miter;stroke-width:2;"/>
   </g>
   <g id="patch_59">
    <path clip-path="url(#p4d5c53b075)" d="M 241.444933 103.612283 
C 242.594063 103.612283 243.696282 103.528956 244.50884 103.380656 
C 245.321398 103.232355 245.777952 103.031188 245.777952 102.821459 
C 245.777952 102.61173 245.321398 102.410563 244.50884 102.262262 
C 243.696282 102.113962 242.594063 102.030635 241.444933 102.030635 
C 240.295803 102.030635 239.193583 102.113962 238.381025 102.262262 
C 237.568468 102.410563 237.111913 102.61173 237.111913 102.821459 
C 237.111913 103.031188 237.568468 103.232355 238.381025 103.380656 
C 239.193583 103.528956 240.295803 103.612283 241.444933 103.612283 
z
" style="fill:#ff0000;opacity:0.2;stroke:#ff0000;stroke-linejoin:miter;stroke-width:2;"/>
   </g>
   <g id="patch_60">
    <path clip-path="url(#p4d5c53b075)" d="M 65.957651 70.793104 
C 67.106782 70.793104 68.209001 70.709778 69.021559 70.561477 
C 69.834116 70.413176 70.290671 70.212009 70.290671 70.00228 
C 70.290671 69.792551 69.834116 69.591384 69.021559 69.443084 
C 68.209001 69.294783 67.106782 69.211457 65.957651 69.211457 
C 64.808521 69.211457 63.706302 69.294783 62.893744 69.443084 
C 62.081186 69.591384 61.624632 69.792551 61.624632 70.00228 
C 61.624632 70.212009 62.081186 70.413176 62.893744 70.561477 
C 63.706302 70.709778 64.808521 70.793104 65.957651 70.793104 
z
" style="fill:#ff0000;opacity:0.2;stroke:#ff0000;stroke-linejoin:miter;stroke-width:2;"/>
   </g>
   <g id="patch_61">
    <path clip-path="url(#p4d5c53b075)" d="M 241.444933 73.956398 
C 242.594063 73.956398 243.696282 73.873072 244.50884 73.724771 
C 245.321398 73.576471 245.777952 73.375303 245.777952 73.165575 
C 245.777952 72.955846 245.321398 72.754679 244.50884 72.606378 
C 243.696282 72.458077 242.594063 72.374751 241.444933 72.374751 
C 240.295803 72.374751 239.193583 72.458077 238.381025 72.606378 
C 237.568468 72.754679 237.111913 72.955846 237.111913 73.165575 
C 237.111913 73.375303 237.568468 73.576471 238.381025 73.724771 
C 239.193583 73.873072 240.295803 73.956398 241.444933 73.956398 
z
" style="fill:#0000ff;opacity:0.2;stroke:#0000ff;stroke-linejoin:miter;stroke-width:2;"/>
   </g>
   <g id="patch_62">
    <path clip-path="url(#p4d5c53b075)" d="M 120.120393 52.20875 
C 121.269523 52.20875 122.371742 52.125424 123.1843 51.977123 
C 123.996858 51.828822 124.453412 51.627655 124.453412 51.417926 
C 124.453412 51.208197 123.996858 51.00703 123.1843 50.858729 
C 122.371742 50.710429 121.269523 50.627102 120.120393 50.627102 
C 118.971262 50.627102 117.869043 50.710429 117.056485 50.858729 
C 116.243927 51.00703 115.787373 51.208197 115.787373 51.417926 
C 115.787373 51.627655 116.243927 51.828822 117.056485 51.977123 
C 117.869043 52.125424 118.971262 52.20875 120.120393 52.20875 
z
" style="fill:#0000ff;opacity:0.2;stroke:#0000ff;stroke-linejoin:miter;stroke-width:2;"/>
   </g>
   <g id="patch_63">
    <path clip-path="url(#p4d5c53b075)" d="M 241.444933 28.879454 
C 242.594063 28.879454 243.696282 28.796128 244.50884 28.647827 
C 245.321398 28.499526 245.777952 28.298359 245.777952 28.08863 
C 245.777952 27.878902 245.321398 27.677734 244.50884 27.529434 
C 243.696282 27.381133 242.594063 27.297807 241.444933 27.297807 
C 240.295803 27.297807 239.193583 27.381133 238.381025 27.529434 
C 237.568468 27.677734 237.111913 27.878902 237.111913 28.08863 
C 237.111913 28.298359 237.568468 28.499526 238.381025 28.647827 
C 239.193583 28.796128 240.295803 28.879454 241.444933 28.879454 
z
" style="fill:#0000ff;opacity:0.2;stroke:#0000ff;stroke-linejoin:miter;stroke-width:2;"/>
   </g>
   <g id="patch_64">
    <path clip-path="url(#p4d5c53b075)" d="M 362.769473 52.20875 
C 363.918603 52.20875 365.020822 52.125424 365.83338 51.977123 
C 366.645938 51.828822 367.102492 51.627655 367.102492 51.417926 
C 367.102492 51.208197 366.645938 51.00703 365.83338 50.858729 
C 365.020822 50.710429 363.918603 50.627102 362.769473 50.627102 
C 361.620343 50.627102 360.518123 50.710429 359.705566 50.858729 
C 358.893008 51.00703 358.436454 51.208197 358.436454 51.417926 
C 358.436454 51.627655 358.893008 51.828822 359.705566 51.977123 
C 360.518123 52.125424 361.620343 52.20875 362.769473 52.20875 
z
" style="fill:#0000ff;opacity:0.2;stroke:#0000ff;stroke-linejoin:miter;stroke-width:2;"/>
   </g>
   <g id="patch_65">
    <path clip-path="url(#p4d5c53b075)" d="M 241.444933 37.973925 
C 345.437396 37.973925 416.932214 51.813338 416.932214 70.00228 
C 416.932214 87.004987 345.437396 102.821459 241.444933 102.821459 
C 143.951999 102.821459 65.957651 88.586634 65.957651 70.00228 
C 65.957651 50.627102 154.784547 37.973925 241.444933 37.973925 
" style="fill:none;stroke:#ff0000;stroke-linejoin:miter;stroke-width:0.5;"/>
   </g>
   <g id="patch_66">
    <path clip-path="url(#p4d5c53b075)" d="M 241.444933 73.165575 
C 178.616153 73.165575 120.120393 64.861927 120.120393 51.417926 
C 120.120393 37.973925 172.116624 28.08863 241.444933 28.08863 
C 315.106261 28.08863 362.769473 38.764749 362.769473 51.417926 
C 362.769473 64.071103 315.106261 73.165575 241.444933 73.165575 
" style="fill:none;stroke:#0000ff;stroke-linejoin:miter;stroke-width:0.5;"/>
   </g>
   <g id="[&quot;g_s&quot;:1,&quot;g_t&quot;:3,&quot;coords&quot;:[[177.0, -306.0],[177.0, -281.0]],&quot;certainty&quot;:10]">
    <path clip-path="url(#p4d5c53b075)" d="M 241.444933 40.14869 
C 244.605041 40.14869 247.636144 39.919543 249.870678 39.511716 
C 252.105212 39.103889 253.360736 38.55068 253.360736 37.973925 
C 253.360736 37.397171 252.105212 36.843961 249.870678 36.436134 
C 247.636144 36.028307 244.605041 35.79916 241.444933 35.79916 
C 238.284825 35.79916 235.253721 36.028307 233.019188 36.436134 
C 230.784654 36.843961 229.52913 37.397171 229.52913 37.973925 
C 229.52913 38.55068 230.784654 39.103889 233.019188 39.511716 
C 235.253721 39.919543 238.284825 40.14869 241.444933 40.14869 
z
" style="fill:#0000ff;opacity:0.2;stroke:#0000ff;stroke-linejoin:miter;stroke-width:2;"/>
   </g>
   <g id="[&quot;g_s&quot;:3,&quot;g_t&quot;:1,&quot;coords&quot;:[[177.0, -281.0],[177.0, -306.0]],&quot;certainty&quot;:10]">
    <path clip-path="url(#p4d5c53b075)" d="M 241.444933 30.263395 
C 244.605041 30.263395 247.636144 30.034248 249.870678 29.626421 
C 252.105212 29.218594 253.360736 28.665385 253.360736 28.08863 
C 253.360736 27.511876 252.105212 26.958666 249.870678 26.550839 
C 247.636144 26.143012 244.605041 25.913866 241.444933 25.913866 
C 238.284825 25.913866 235.253721 26.143012 233.019188 26.550839 
C 230.784654 26.958666 229.52913 27.511876 229.52913 28.08863 
C 229.52913 28.665385 230.784654 29.218594 233.019188 29.626421 
C 235.253721 30.034248 238.284825 30.263395 241.444933 30.263395 
z
" style="fill:#ff0000;opacity:0.2;stroke:#ff0000;stroke-linejoin:miter;stroke-width:2;"/>
   </g>
   <g id="patch_67">
    <path d="M 241.444933 37.973925 
Q 241.444933 34.03284 241.444933 32.036298 
" style="fill:none;opacity:0.5;stroke:#0000ff;stroke-linecap:round;stroke-width:2.75;"/>
    <path d="M 239.944933 33.536298 
L 241.444933 32.036298 
L 242.944933 33.536298 
" style="fill:none;opacity:0.5;stroke:#0000ff;stroke-linecap:round;stroke-width:2.75;"/>
   </g>
   <g id="[&quot;g_s&quot;:2,&quot;g_t&quot;:4,&quot;coords&quot;:[[258.0, -387.0],[233.0, -340.0]],&quot;certainty&quot;:12]">
    <path clip-path="url(#p4d5c53b075)" d="M 416.932214 72.572457 
C 420.666887 72.572457 424.2491 72.301647 426.889913 71.81967 
C 429.530725 71.337692 431.014527 70.683899 431.014527 70.00228 
C 431.014527 69.320661 429.530725 68.666868 426.889913 68.184891 
C 424.2491 67.702914 420.666887 67.432104 416.932214 67.432104 
C 413.197541 67.432104 409.615328 67.702914 406.974515 68.184891 
C 404.333703 68.666868 402.849901 69.320661 402.849901 70.00228 
C 402.849901 70.683899 404.333703 71.337692 406.974515 71.81967 
C 409.615328 72.301647 413.197541 72.572457 416.932214 72.572457 
z
" style="fill:#0000ff;opacity:0.2;stroke:#0000ff;stroke-linejoin:miter;stroke-width:2;"/>
   </g>
   <g id="[&quot;g_s&quot;:4,&quot;g_t&quot;:2,&quot;coords&quot;:[[233.0, -340.0],[258.0, -387.0]],&quot;certainty&quot;:12]">
    <path clip-path="url(#p4d5c53b075)" d="M 362.769473 53.988103 
C 366.504146 53.988103 370.086359 53.717293 372.727172 53.235315 
C 375.367984 52.753338 376.851786 52.099545 376.851786 51.417926 
C 376.851786 50.736307 375.367984 50.082514 372.727172 49.600537 
C 370.086359 49.118559 366.504146 48.847749 362.769473 48.847749 
C 359.0348 48.847749 355.452587 49.118559 352.811774 49.600537 
C 350.170961 50.082514 348.68716 50.736307 348.68716 51.417926 
C 348.68716 52.099545 350.170961 52.753338 352.811774 53.235315 
C 355.452587 53.717293 359.0348 53.988103 362.769473 53.988103 
z
" style="fill:#ff0000;opacity:0.2;stroke:#ff0000;stroke-linejoin:miter;stroke-width:2;"/>
   </g>
   <g id="patch_68">
    <path d="M 416.932214 70.00228 
Q 390.797964 61.03508 366.837414 52.813721 
" style="fill:none;opacity:0.5;stroke:#0000ff;stroke-linecap:round;stroke-width:3.25;"/>
    <path d="M 367.769397 54.719346 
L 366.837414 52.813721 
L 368.743039 51.881737 
" style="fill:none;opacity:0.5;stroke:#0000ff;stroke-linecap:round;stroke-width:3.25;"/>
   </g>
   <g id="[&quot;g_s&quot;:3,&quot;g_t&quot;:2,&quot;coords&quot;:[[177.0, -470.0],[121.0, -340.0]],&quot;certainty&quot;:11]">
    <path clip-path="url(#p4d5c53b075)" d="M 241.444933 105.19393 
C 244.892323 105.19393 248.198981 104.943951 250.636655 104.499049 
C 253.074328 104.054147 254.443991 103.450646 254.443991 102.821459 
C 254.443991 102.192272 253.074328 101.588771 250.636655 101.143869 
C 248.198981 100.698967 244.892323 100.448988 241.444933 100.448988 
C 237.997542 100.448988 234.690884 100.698967 232.253211 101.143869 
C 229.815538 101.588771 228.445875 102.192272 228.445875 102.821459 
C 228.445875 103.450646 229.815538 104.054147 232.253211 104.499049 
C 234.690884 104.943951 237.997542 105.19393 241.444933 105.19393 
z
" style="fill:#0000ff;opacity:0.2;stroke:#0000ff;stroke-linejoin:miter;stroke-width:2;"/>
   </g>
   <g id="[&quot;g_s&quot;:2,&quot;g_t&quot;:3,&quot;coords&quot;:[[121.0, -340.0],[177.0, -470.0]],&quot;certainty&quot;:11]">
    <path clip-path="url(#p4d5c53b075)" d="M 120.120393 53.790397 
C 123.567783 53.790397 126.874441 53.540418 129.312114 53.095516 
C 131.749788 52.650614 133.11945 52.047113 133.11945 51.417926 
C 133.11945 50.788739 131.749788 50.185238 129.312114 49.740336 
C 126.874441 49.295434 123.567783 49.045455 120.120393 49.045455 
C 116.673002 49.045455 113.366344 49.295434 110.928671 49.740336 
C 108.490997 50.185238 107.121335 50.788739 107.121335 51.417926 
C 107.121335 52.047113 108.490997 52.650614 110.928671 53.095516 
C 113.366344 53.540418 116.673002 53.790397 120.120393 53.790397 
z
" style="fill:#ff0000;opacity:0.2;stroke:#ff0000;stroke-linejoin:miter;stroke-width:2;"/>
   </g>
   <g id="patch_69">
    <path d="M 241.444933 102.821459 
Q 181.702742 77.509517 123.91379 53.025136 
" style="fill:none;opacity:0.5;stroke:#0000ff;stroke-linecap:round;stroke-width:3;"/>
    <path d="M 124.709765 54.991458 
L 123.91379 53.025136 
L 125.880112 52.229161 
" style="fill:none;opacity:0.5;stroke:#0000ff;stroke-linecap:round;stroke-width:3;"/>
   </g>
   <g id="[&quot;g_s&quot;:4,&quot;g_t&quot;:2,&quot;coords&quot;:[[96.0, -387.0],[121.0, -340.0]],&quot;certainty&quot;:11]">
    <path clip-path="url(#p4d5c53b075)" d="M 65.957651 72.374751 
C 69.405042 72.374751 72.7117 72.124773 75.149373 71.67987 
C 77.587046 71.234968 78.956709 70.631467 78.956709 70.00228 
C 78.956709 69.373094 77.587046 68.769592 75.149373 68.32469 
C 72.7117 67.879788 69.405042 67.62981 65.957651 67.62981 
C 62.510261 67.62981 59.203603 67.879788 56.765929 68.32469 
C 54.328256 68.769592 52.958593 69.373094 52.958593 70.00228 
C 52.958593 70.631467 54.328256 71.234968 56.765929 71.67987 
C 59.203603 72.124773 62.510261 72.374751 65.957651 72.374751 
z
" style="fill:#0000ff;opacity:0.2;stroke:#0000ff;stroke-linejoin:miter;stroke-width:2;"/>
   </g>
   <g id="[&quot;g_s&quot;:2,&quot;g_t&quot;:4,&quot;coords&quot;:[[121.0, -340.0],[96.0, -387.0]],&quot;certainty&quot;:11]">
    <path clip-path="url(#p4d5c53b075)" d="M 120.120393 53.790397 
C 123.567783 53.790397 126.874441 53.540418 129.312114 53.095516 
C 131.749788 52.650614 133.11945 52.047113 133.11945 51.417926 
C 133.11945 50.788739 131.749788 50.185238 129.312114 49.740336 
C 126.874441 49.295434 123.567783 49.045455 120.120393 49.045455 
C 116.673002 49.045455 113.366344 49.295434 110.928671 49.740336 
C 108.490997 50.185238 107.121335 50.788739 107.121335 51.417926 
C 107.121335 52.047113 108.490997 52.650614 110.928671 53.095516 
C 113.366344 53.540418 116.673002 53.790397 120.120393 53.790397 
z
" style="fill:#ff0000;opacity:0.2;stroke:#ff0000;stroke-linejoin:miter;stroke-width:2;"/>
   </g>
   <g id="patch_70">
    <path d="M 65.957651 70.00228 
Q 92.091901 61.03508 116.219659 52.756348 
" style="fill:none;opacity:0.5;stroke:#0000ff;stroke-linecap:round;stroke-width:3;"/>
    <path d="M 114.314034 51.824365 
L 116.219659 52.756348 
L 115.287676 54.661973 
" style="fill:none;opacity:0.5;stroke:#0000ff;stroke-linecap:round;stroke-width:3;"/>
   </g>
   <g id="[&quot;g_s&quot;:1,&quot;g_t&quot;:3,&quot;coords&quot;:[[177.0, -395.0],[177.0, -470.0]],&quot;certainty&quot;:10]">
    <path clip-path="url(#p4d5c53b075)" d="M 241.444933 75.340339 
C 244.605041 75.340339 247.636144 75.111193 249.870678 74.703366 
C 252.105212 74.295539 253.360736 73.742329 253.360736 73.165575 
C 253.360736 72.58882 252.105212 72.035611 249.870678 71.627784 
C 247.636144 71.219957 244.605041 70.99081 241.444933 70.99081 
C 238.284825 70.99081 235.253721 71.219957 233.019188 71.627784 
C 230.784654 72.035611 229.52913 72.58882 229.52913 73.165575 
C 229.52913 73.742329 230.784654 74.295539 233.019188 74.703366 
C 235.253721 75.111193 238.284825 75.340339 241.444933 75.340339 
z
" style="fill:#0000ff;opacity:0.2;stroke:#0000ff;stroke-linejoin:miter;stroke-width:2;"/>
   </g>
   <g id="[&quot;g_s&quot;:3,&quot;g_t&quot;:1,&quot;coords&quot;:[[177.0, -470.0],[177.0, -395.0]],&quot;certainty&quot;:10]">
    <path clip-path="url(#p4d5c53b075)" d="M 241.444933 104.996224 
C 244.605041 104.996224 247.636144 104.767077 249.870678 104.35925 
C 252.105212 103.951423 253.360736 103.398213 253.360736 102.821459 
C 253.360736 102.244705 252.105212 101.691495 249.870678 101.283668 
C 247.636144 100.875841 244.605041 100.646694 241.444933 100.646694 
C 238.284825 100.646694 235.253721 100.875841 233.019188 101.283668 
C 230.784654 101.691495 229.52913 102.244705 229.52913 102.821459 
C 229.52913 103.398213 230.784654 103.951423 233.019188 104.35925 
C 235.253721 104.767077 238.284825 104.996224 241.444933 104.996224 
z
" style="fill:#ff0000;opacity:0.2;stroke:#ff0000;stroke-linejoin:miter;stroke-width:2;"/>
   </g>
   <g id="patch_71">
    <path d="M 241.444933 73.165575 
Q 241.444933 86.992558 241.444933 98.874998 
" style="fill:none;opacity:0.5;stroke:#ff0000;stroke-linecap:round;stroke-width:2.75;"/>
    <path d="M 242.944933 97.374998 
L 241.444933 98.874998 
L 239.944933 97.374998 
" style="fill:none;opacity:0.5;stroke:#ff0000;stroke-linecap:round;stroke-width:2.75;"/>
   </g>
   <g id="[&quot;g_s&quot;:2,&quot;g_t&quot;:4,&quot;coords&quot;:[[121.0, -340.0],[96.0, -387.0]],&quot;certainty&quot;:12]">
    <path clip-path="url(#p4d5c53b075)" d="M 120.120393 53.988103 
C 123.855065 53.988103 127.437279 53.717293 130.078091 53.235315 
C 132.718904 52.753338 134.202705 52.099545 134.202705 51.417926 
C 134.202705 50.736307 132.718904 50.082514 130.078091 49.600537 
C 127.437279 49.118559 123.855065 48.847749 120.120393 48.847749 
C 116.38572 48.847749 112.803506 49.118559 110.162694 49.600537 
C 107.521881 50.082514 106.03808 50.736307 106.03808 51.417926 
C 106.03808 52.099545 107.521881 52.753338 110.162694 53.235315 
C 112.803506 53.717293 116.38572 53.988103 120.120393 53.988103 
z
" style="fill:#0000ff;opacity:0.2;stroke:#0000ff;stroke-linejoin:miter;stroke-width:2;"/>
   </g>
   <g id="[&quot;g_s&quot;:4,&quot;g_t&quot;:2,&quot;coords&quot;:[[96.0, -387.0],[121.0, -340.0]],&quot;certainty&quot;:12]">
    <path clip-path="url(#p4d5c53b075)" d="M 65.957651 72.572457 
C 69.692324 72.572457 73.274538 72.301647 75.91535 71.81967 
C 78.556163 71.337692 80.039964 70.683899 80.039964 70.00228 
C 80.039964 69.320661 78.556163 68.666868 75.91535 68.184891 
C 73.274538 67.702914 69.692324 67.432104 65.957651 67.432104 
C 62.222978 67.432104 58.640765 67.702914 55.999953 68.184891 
C 53.35914 68.666868 51.875339 69.320661 51.875339 70.00228 
C 51.875339 70.683899 53.35914 71.337692 55.999953 71.81967 
C 58.640765 72.301647 62.222978 72.572457 65.957651 72.572457 
z
" style="fill:#ff0000;opacity:0.2;stroke:#ff0000;stroke-linejoin:miter;stroke-width:2;"/>
   </g>
   <g id="patch_72">
    <path d="M 120.120393 51.417926 
Q 93.986143 60.385127 70.025593 68.606486 
" style="fill:none;opacity:0.5;stroke:#ff0000;stroke-linecap:round;stroke-width:3.25;"/>
    <path d="M 71.931218 69.538469 
L 70.025593 68.606486 
L 70.957576 66.700861 
" style="fill:none;opacity:0.5;stroke:#ff0000;stroke-linecap:round;stroke-width:3.25;"/>
   </g>
   <g id="[&quot;g_s&quot;:3,&quot;g_t&quot;:1,&quot;coords&quot;:[[177.0, -281.0],[177.0, -306.0]],&quot;certainty&quot;:11]">
    <path clip-path="url(#p4d5c53b075)" d="M 241.444933 30.461101 
C 244.892323 30.461101 248.198981 30.211123 250.636655 29.766221 
C 253.074328 29.321318 254.443991 28.717817 254.443991 28.08863 
C 254.443991 27.459444 253.074328 26.855942 250.636655 26.41104 
C 248.198981 25.966138 244.892323 25.71616 241.444933 25.71616 
C 237.997542 25.71616 234.690884 25.966138 232.253211 26.41104 
C 229.815538 26.855942 228.445875 27.459444 228.445875 28.08863 
C 228.445875 28.717817 229.815538 29.321318 232.253211 29.766221 
C 234.690884 30.211123 237.997542 30.461101 241.444933 30.461101 
z
" style="fill:#0000ff;opacity:0.2;stroke:#0000ff;stroke-linejoin:miter;stroke-width:2;"/>
   </g>
   <g id="[&quot;g_s&quot;:1,&quot;g_t&quot;:3,&quot;coords&quot;:[[177.0, -306.0],[177.0, -281.0]],&quot;certainty&quot;:11]">
    <path clip-path="url(#p4d5c53b075)" d="M 241.444933 40.346396 
C 244.892323 40.346396 248.198981 40.096417 250.636655 39.651515 
C 253.074328 39.206613 254.443991 38.603112 254.443991 37.973925 
C 254.443991 37.344739 253.074328 36.741237 250.636655 36.296335 
C 248.198981 35.851433 244.892323 35.601454 241.444933 35.601454 
C 237.997542 35.601454 234.690884 35.851433 232.253211 36.296335 
C 229.815538 36.741237 228.445875 37.344739 228.445875 37.973925 
C 228.445875 38.603112 229.815538 39.206613 232.253211 39.651515 
C 234.690884 40.096417 237.997542 40.346396 241.444933 40.346396 
z
" style="fill:#ff0000;opacity:0.2;stroke:#ff0000;stroke-linejoin:miter;stroke-width:2;"/>
   </g>
   <g id="patch_73">
    <path d="M 241.444933 28.08863 
Q 241.444933 32.029716 241.444933 33.849481 
" style="fill:none;opacity:0.5;stroke:#ff0000;stroke-linecap:round;stroke-width:3;"/>
    <path d="M 242.944933 32.349481 
L 241.444933 33.849481 
L 239.944933 32.349481 
" style="fill:none;opacity:0.5;stroke:#ff0000;stroke-linecap:round;stroke-width:3;"/>
   </g>
   <g id="[&quot;g_s&quot;:4,&quot;g_t&quot;:2,&quot;coords&quot;:[[233.0, -340.0],[258.0, -387.0]],&quot;certainty&quot;:11]">
    <path clip-path="url(#p4d5c53b075)" d="M 362.769473 53.790397 
C 366.216863 53.790397 369.523522 53.540418 371.961195 53.095516 
C 374.398868 52.650614 375.768531 52.047113 375.768531 51.417926 
C 375.768531 50.788739 374.398868 50.185238 371.961195 49.740336 
C 369.523522 49.295434 366.216863 49.045455 362.769473 49.045455 
C 359.322082 49.045455 356.015424 49.295434 353.577751 49.740336 
C 351.140078 50.185238 349.770415 50.788739 349.770415 51.417926 
C 349.770415 52.047113 351.140078 52.650614 353.577751 53.095516 
C 356.015424 53.540418 359.322082 53.790397 362.769473 53.790397 
z
" style="fill:#0000ff;opacity:0.2;stroke:#0000ff;stroke-linejoin:miter;stroke-width:2;"/>
   </g>
   <g id="[&quot;g_s&quot;:2,&quot;g_t&quot;:4,&quot;coords&quot;:[[258.0, -387.0],[233.0, -340.0]],&quot;certainty&quot;:11]">
    <path clip-path="url(#p4d5c53b075)" d="M 416.932214 72.374751 
C 420.379604 72.374751 423.686263 72.124773 426.123936 71.67987 
C 428.561609 71.234968 429.931272 70.631467 429.931272 70.00228 
C 429.931272 69.373094 428.561609 68.769592 426.123936 68.32469 
C 423.686263 67.879788 420.379604 67.62981 416.932214 67.62981 
C 413.484824 67.62981 410.178165 67.879788 407.740492 68.32469 
C 405.302819 68.769592 403.933156 69.373094 403.933156 70.00228 
C 403.933156 70.631467 405.302819 71.234968 407.740492 71.67987 
C 410.178165 72.124773 413.484824 72.374751 416.932214 72.374751 
z
" style="fill:#ff0000;opacity:0.2;stroke:#ff0000;stroke-linejoin:miter;stroke-width:2;"/>
   </g>
   <g id="patch_74">
    <path d="M 362.769473 51.417926 
Q 388.903723 60.385127 413.03148 68.663858 
" style="fill:none;opacity:0.5;stroke:#ff0000;stroke-linecap:round;stroke-width:3;"/>
    <path d="M 412.099497 66.758233 
L 413.03148 68.663858 
L 411.125855 69.595841 
" style="fill:none;opacity:0.5;stroke:#ff0000;stroke-linecap:round;stroke-width:3;"/>
   </g>
   <g id="patch_75">
    <path clip-path="url(#p4d5c53b075)" d="M 241.444933 35.008337 
C 244.317758 35.008337 247.073307 34.800021 249.104701 34.42927 
C 251.136095 34.058518 252.277481 33.5556 252.277481 33.031278 
C 252.277481 32.506956 251.136095 32.004038 249.104701 31.633286 
C 247.073307 31.262534 244.317758 31.054219 241.444933 31.054219 
C 238.572107 31.054219 235.816559 31.262534 233.785164 31.633286 
C 231.75377 32.004038 230.612384 32.506956 230.612384 33.031278 
C 230.612384 33.5556 231.75377 34.058518 233.785164 34.42927 
C 235.816559 34.800021 238.572107 35.008337 241.444933 35.008337 
z
" style="fill:#008000;opacity:0.2;stroke:#008000;stroke-linejoin:miter;stroke-width:2;"/>
   </g>
   <g id="patch_76">
    <path clip-path="url(#p4d5c53b075)" d="M 389.850843 62.687162 
C 392.723669 62.687162 395.479217 62.478847 397.510612 62.108095 
C 399.542006 61.737343 400.683392 61.234425 400.683392 60.710103 
C 400.683392 60.185781 399.542006 59.682863 397.510612 59.312111 
C 395.479217 58.94136 392.723669 58.733044 389.850843 58.733044 
C 386.978018 58.733044 384.222469 58.94136 382.191075 59.312111 
C 380.159681 59.682863 379.018295 60.185781 379.018295 60.710103 
C 379.018295 61.234425 380.159681 61.737343 382.191075 62.108095 
C 384.222469 62.478847 386.978018 62.687162 389.850843 62.687162 
z
" style="fill:#008000;opacity:0.2;stroke:#008000;stroke-linejoin:miter;stroke-width:2;"/>
   </g>
   <g id="patch_77">
    <path clip-path="url(#p4d5c53b075)" d="M 93.039022 62.687162 
C 95.911847 62.687162 98.667396 62.478847 100.69879 62.108095 
C 102.730185 61.737343 103.87157 61.234425 103.87157 60.710103 
C 103.87157 60.185781 102.730185 59.682863 100.69879 59.312111 
C 98.667396 58.94136 95.911847 58.733044 93.039022 58.733044 
C 90.166197 58.733044 87.410648 58.94136 85.379254 59.312111 
C 83.347859 59.682863 82.206474 60.185781 82.206474 60.710103 
C 82.206474 61.234425 83.347859 61.737343 85.379254 62.108095 
C 87.410648 62.478847 90.166197 62.687162 93.039022 62.687162 
z
" style="fill:#008000;opacity:0.2;stroke:#008000;stroke-linejoin:miter;stroke-width:2;"/>
   </g>
   <g id="patch_78">
    <path clip-path="url(#p4d5c53b075)" d="M 241.444933 45.882161 
C 252.936234 45.882161 263.958429 45.048899 272.084006 43.565892 
C 280.209583 42.082885 284.775126 40.071214 284.775126 37.973925 
C 284.775126 35.876637 280.209583 33.864965 272.084006 32.381958 
C 263.958429 30.898951 252.936234 30.065689 241.444933 30.065689 
C 229.953631 30.065689 218.931437 30.898951 210.805859 32.381958 
C 202.680282 33.864965 198.11474 35.876637 198.11474 37.973925 
C 198.11474 40.071214 202.680282 42.082885 210.805859 43.565892 
C 218.931437 45.048899 229.953631 45.882161 241.444933 45.882161 
z
" style="fill:none;opacity:0.2;stroke:#ff0000;stroke-linejoin:miter;stroke-width:2;"/>
   </g>
   <g id="patch_79">
    <path clip-path="url(#p4d5c53b075)" d="M 241.444933 81.07381 
C 252.936234 81.07381 263.958429 80.240549 272.084006 78.757542 
C 280.209583 77.274535 284.775126 75.262863 284.775126 73.165575 
C 284.775126 71.068286 280.209583 69.056614 272.084006 67.573607 
C 263.958429 66.0906 252.936234 65.257339 241.444933 65.257339 
C 229.953631 65.257339 218.931437 66.0906 210.805859 67.573607 
C 202.680282 69.056614 198.11474 71.068286 198.11474 73.165575 
C 198.11474 75.262863 202.680282 77.274535 210.805859 78.757542 
C 218.931437 80.240549 229.953631 81.07381 241.444933 81.07381 
z
" style="fill:none;opacity:0.2;stroke:#0000ff;stroke-linejoin:miter;stroke-width:2;"/>
   </g>
   <g id="patch_80">
    <path clip-path="url(#p4d5c53b075)" d="M 241.444933 41.928043 
C 247.190583 41.928043 252.701681 41.511412 256.764469 40.769909 
C 260.827258 40.028405 263.110029 39.02257 263.110029 37.973925 
C 263.110029 36.925281 260.827258 35.919445 256.764469 35.177942 
C 252.701681 34.436438 247.190583 34.019807 241.444933 34.019807 
C 235.699282 34.019807 230.188185 34.436438 226.125396 35.177942 
C 222.062607 35.919445 219.779836 36.925281 219.779836 37.973925 
C 219.779836 39.02257 222.062607 40.028405 226.125396 40.769909 
C 230.188185 41.511412 235.699282 41.928043 241.444933 41.928043 
z
" style="fill:none;opacity:0.2;stroke:#008000;stroke-linejoin:miter;stroke-width:2;"/>
   </g>
   <g id="patch_81">
    <path clip-path="url(#p4d5c53b075)" d="M 241.444933 32.042748 
C 247.190583 32.042748 252.701681 31.626118 256.764469 30.884614 
C 260.827258 30.14311 263.110029 29.137275 263.110029 28.08863 
C 263.110029 27.039986 260.827258 26.03415 256.764469 25.292647 
C 252.701681 24.551143 247.190583 24.134512 241.444933 24.134512 
C 235.699282 24.134512 230.188185 24.551143 226.125396 25.292647 
C 222.062607 26.03415 219.779836 27.039986 219.779836 28.08863 
C 219.779836 29.137275 222.062607 30.14311 226.125396 30.884614 
C 230.188185 31.626118 235.699282 32.042748 241.444933 32.042748 
z
" style="fill:none;opacity:0.2;stroke:#008000;stroke-linejoin:miter;stroke-width:2;"/>
   </g>
   <g id="patch_82">
    <path d="M 241.444933 33.031278 
Q 315.647888 46.87069 389.850843 60.710103 
" style="fill:none;opacity:0.5;stroke:#008000;stroke-linecap:round;stroke-width:2;"/>
   </g>
   <g id="patch_83">
    <path d="M 241.444933 36.559712 
Q 241.444933 34.03284 241.444933 31.505968 
" style="fill:none;opacity:0.5;stroke:#800080;stroke-linecap:round;stroke-width:2;"/>
    <path d="M 242.944933 35.059712 
L 241.444933 36.559712 
L 239.944933 35.059712 
" style="fill:none;opacity:0.5;stroke:#800080;stroke-linecap:round;stroke-width:2;"/>
    <path d="M 239.944933 33.005968 
L 241.444933 31.505968 
L 242.944933 33.005968 
" style="fill:none;opacity:0.5;stroke:#800080;stroke-linecap:round;stroke-width:2;"/>
   </g>
   <g id="patch_84">
    <path d="M 389.850843 60.710103 
Q 241.444933 60.710103 93.039022 60.710103 
" style="fill:none;opacity:0.5;stroke:#008000;stroke-linecap:round;stroke-width:2;"/>
   </g>
   <g id="patch_85">
    <path d="M 415.594553 69.543301 
Q 390.797964 61.03508 366.001376 52.526859 
" style="fill:none;opacity:0.5;stroke:#800080;stroke-linecap:round;stroke-width:2;"/>
    <path d="M 414.662569 67.637676 
L 415.594553 69.543301 
L 413.688927 70.475284 
" style="fill:none;opacity:0.5;stroke:#800080;stroke-linecap:round;stroke-width:2;"/>
    <path d="M 366.933359 54.432484 
L 366.001376 52.526859 
L 367.907001 51.594875 
" style="fill:none;opacity:0.5;stroke:#800080;stroke-linecap:round;stroke-width:2;"/>
   </g>
   <g id="patch_86">
    <path d="M 93.039022 60.710103 
Q 167.241977 46.87069 241.444933 33.031278 
" style="fill:none;opacity:0.5;stroke:#008000;stroke-linecap:round;stroke-width:2;"/>
   </g>
   <g id="patch_87">
    <path d="M 67.295313 69.543301 
Q 92.091901 61.03508 116.88849 52.526859 
" style="fill:none;opacity:0.5;stroke:#800080;stroke-linecap:round;stroke-width:2;"/>
    <path d="M 69.200938 70.475284 
L 67.295313 69.543301 
L 68.227296 67.637676 
" style="fill:none;opacity:0.5;stroke:#800080;stroke-linecap:round;stroke-width:2;"/>
    <path d="M 114.982865 51.594875 
L 116.88849 52.526859 
L 115.956507 54.432484 
" style="fill:none;opacity:0.5;stroke:#800080;stroke-linecap:round;stroke-width:2;"/>
   </g>
   <g id="line2d_1">
    <path clip-path="url(#p4d5c53b075)" d="M 241.444933 298.945707 
L 68.124161 281.943 
L 102.788315 235.679821 
L 193.78172 124.569107 
L 289.108145 124.569107 
L 380.10155 235.679821 
L 414.765704 281.943 
" style="fill:none;stroke:#ff0000;stroke-linecap:square;stroke-width:0.2;"/>
   </g>
   <g id="line2d_2">
    <path clip-path="url(#p4d5c53b075)" d="M 241.444933 298.945707 
L 135.28596 287.478765 
L 150.451528 252.287116 
L 213.280307 124.569107 
L 269.609558 124.569107 
L 332.438338 252.287116 
L 347.603905 287.478765 
" style="fill:none;stroke:#0000ff;stroke-linecap:square;stroke-width:0.2;"/>
   </g>
   <g id="line2d_3">
    <path clip-path="url(#p4d5c53b075)" d="M 241.444933 37.973925 
L 416.932214 70.00228 
L 241.444933 102.821459 
L 65.957651 70.00228 
" style="fill:none;stroke:#ff0000;stroke-linecap:square;stroke-width:0.2;"/>
   </g>
   <g id="line2d_4">
    <path clip-path="url(#p4d5c53b075)" d="M 241.444933 73.165575 
L 120.120393 51.417926 
L 241.444933 28.08863 
L 362.769473 51.417926 
" style="fill:none;stroke:#0000ff;stroke-linecap:square;stroke-width:0.2;"/>
   </g>
  </g>
 </g>
 <defs>
  <clipPath id="p4d5c53b075">
   <rect height="307.51175" width="409.903625" x="37.576375" y="13.32"/>
  </clipPath>
 </defs>
</svg>
