<?xml version="1.0" encoding="utf-8" standalone="no"?>
<!DOCTYPE svg PUBLIC "-//W3C//DTD SVG 1.1//EN"
  "http://www.w3.org/Graphics/SVG/1.1/DTD/svg11.dtd">
<!-- Created with matplotlib (http://matplotlib.org/) -->
<svg height="345.6pt" version="1.1" viewBox="0 0 460.8 345.6" width="460.8pt" xmlns="http://www.w3.org/2000/svg" xmlns:xlink="http://www.w3.org/1999/xlink">
 <defs>
  <style type="text/css">
*{stroke-linecap:butt;stroke-linejoin:round;}
  </style>
 </defs>
 <g id="figure_1">
  <g id="patch_1">
   <path d="M 0 345.6 
L 460.8 345.6 
L 460.8 0 
L 0 0 
z
" style="fill:#ffffff;"/>
  </g>
  <g id="axes_1">
   <g id="patch_2">
    <path clip-path="url(#p20c0ddf9fa)" d="M 250.576111 68.267241 
C 251.594036 68.267241 252.570405 68.013311 253.290187 67.561378 
C 254.009968 67.109444 254.414394 66.496405 254.414394 65.857274 
C 254.414394 65.218143 254.009968 64.605104 253.290187 64.15317 
C 252.570405 63.701237 251.594036 63.447307 250.576111 63.447307 
C 249.558187 63.447307 248.581817 63.701237 247.862036 64.15317 
C 247.142254 64.605104 246.737829 65.218143 246.737829 65.857274 
C 246.737829 66.496405 247.142254 67.109444 247.862036 67.561378 
C 248.581817 68.013311 249.558187 68.267241 250.576111 68.267241 
z
" style="fill:#ff0000;opacity:0.2;stroke:#ff0000;stroke-linejoin:miter;stroke-width:2;"/>
   </g>
   <g id="patch_3">
    <path clip-path="url(#p20c0ddf9fa)" d="M 425.217962 287.57421 
C 426.235886 287.57421 427.212256 287.32028 427.932037 286.868347 
C 428.651819 286.416413 429.056244 285.803374 429.056244 285.164243 
C 429.056244 284.525112 428.651819 283.912073 427.932037 283.460139 
C 427.212256 283.008206 426.235886 282.754276 425.217962 282.754276 
C 424.200037 282.754276 423.223668 283.008206 422.503886 283.460139 
C 421.784105 283.912073 421.379679 284.525112 421.379679 285.164243 
C 421.379679 285.803374 421.784105 286.416413 422.503886 286.868347 
C 423.223668 287.32028 424.200037 287.57421 425.217962 287.57421 
z
" style="fill:#ff0000;opacity:0.2;stroke:#ff0000;stroke-linejoin:miter;stroke-width:2;"/>
   </g>
   <g id="patch_4">
    <path clip-path="url(#p20c0ddf9fa)" d="M 377.239431 306.853943 
C 378.257356 306.853943 379.233726 306.600014 379.953507 306.14808 
C 380.673288 305.696147 381.077714 305.083107 381.077714 304.443976 
C 381.077714 303.804846 380.673288 303.191806 379.953507 302.739873 
C 379.233726 302.287939 378.257356 302.03401 377.239431 302.03401 
C 376.221507 302.03401 375.245137 302.287939 374.525356 302.739873 
C 373.805575 303.191806 373.401149 303.804846 373.401149 304.443976 
C 373.401149 305.083107 373.805575 305.696147 374.525356 306.14808 
C 375.245137 306.600014 376.221507 306.853943 377.239431 306.853943 
z
" style="fill:#ff0000;opacity:0.2;stroke:#ff0000;stroke-linejoin:miter;stroke-width:2;"/>
   </g>
   <g id="patch_5">
    <path clip-path="url(#p20c0ddf9fa)" d="M 106.64052 139.361258 
C 107.658444 139.361258 108.634814 139.107329 109.354595 138.655395 
C 110.074377 138.203462 110.478802 137.590422 110.478802 136.951291 
C 110.478802 136.312161 110.074377 135.699121 109.354595 135.247188 
C 108.634814 134.795254 107.658444 134.541325 106.64052 134.541325 
C 105.622595 134.541325 104.646226 134.795254 103.926444 135.247188 
C 103.206663 135.699121 102.802237 136.312161 102.802237 136.951291 
C 102.802237 137.590422 103.206663 138.203462 103.926444 138.655395 
C 104.646226 139.107329 105.622595 139.361258 106.64052 139.361258 
z
" style="fill:#ff0000;opacity:0.2;stroke:#ff0000;stroke-linejoin:miter;stroke-width:2;"/>
   </g>
   <g id="patch_6">
    <path clip-path="url(#p20c0ddf9fa)" d="M 64.419413 94.776874 
C 65.437338 94.776874 66.413707 94.522945 67.133489 94.071011 
C 67.85327 93.619078 68.257696 93.006038 68.257696 92.366908 
C 68.257696 91.727777 67.85327 91.114737 67.133489 90.662804 
C 66.413707 90.21087 65.437338 89.956941 64.419413 89.956941 
C 63.401489 89.956941 62.425119 90.21087 61.705338 90.662804 
C 60.985556 91.114737 60.581131 91.727777 60.581131 92.366908 
C 60.581131 93.006038 60.985556 93.619078 61.705338 94.071011 
C 62.425119 94.522945 63.401489 94.776874 64.419413 94.776874 
z
" style="fill:#ff0000;opacity:0.2;stroke:#ff0000;stroke-linejoin:miter;stroke-width:2;"/>
   </g>
   <g id="patch_7">
    <path clip-path="url(#p20c0ddf9fa)" d="M 116.236226 51.397474 
C 117.25415 51.397474 118.23052 51.143544 118.950302 50.691611 
C 119.670083 50.239677 120.074508 49.626638 120.074508 48.987507 
C 120.074508 48.348376 119.670083 47.735337 118.950302 47.283403 
C 118.23052 46.83147 117.25415 46.57754 116.236226 46.57754 
C 115.218302 46.57754 114.241932 46.83147 113.52215 47.283403 
C 112.802369 47.735337 112.397944 48.348376 112.397944 48.987507 
C 112.397944 49.626638 112.802369 50.239677 113.52215 50.691611 
C 114.241932 51.143544 115.218302 51.397474 116.236226 51.397474 
z
" style="fill:#ff0000;opacity:0.2;stroke:#ff0000;stroke-linejoin:miter;stroke-width:2;"/>
   </g>
   <g id="patch_8">
    <path clip-path="url(#p20c0ddf9fa)" d="M 191.082733 32.11774 
C 192.100658 32.11774 193.077028 31.863811 193.796809 31.411877 
C 194.51659 30.959944 194.921016 30.346904 194.921016 29.707774 
C 194.921016 29.068643 194.51659 28.455603 193.796809 28.00367 
C 193.077028 27.551736 192.100658 27.297807 191.082733 27.297807 
C 190.064809 27.297807 189.088439 27.551736 188.368658 28.00367 
C 187.648877 28.455603 187.244451 29.068643 187.244451 29.707774 
C 187.244451 30.346904 187.648877 30.959944 188.368658 31.411877 
C 189.088439 31.863811 190.064809 32.11774 191.082733 32.11774 
z
" style="fill:#ff0000;opacity:0.2;stroke:#ff0000;stroke-linejoin:miter;stroke-width:2;"/>
   </g>
   <g id="patch_9">
    <path clip-path="url(#p20c0ddf9fa)" d="M 241.939976 93.571891 
C 242.9579 93.571891 243.93427 93.317962 244.654051 92.866028 
C 245.373832 92.414094 245.778258 91.801055 245.778258 91.161924 
C 245.778258 90.522794 245.373832 89.909754 244.654051 89.45782 
C 243.93427 89.005887 242.9579 88.751957 241.939976 88.751957 
C 240.922051 88.751957 239.945681 89.005887 239.2259 89.45782 
C 238.506119 89.909754 238.101693 90.522794 238.101693 91.161924 
C 238.101693 91.801055 238.506119 92.414094 239.2259 92.866028 
C 239.945681 93.317962 240.922051 93.571891 241.939976 93.571891 
z
" style="fill:#0000ff;opacity:0.2;stroke:#0000ff;stroke-linejoin:miter;stroke-width:2;"/>
   </g>
   <g id="patch_10">
    <path clip-path="url(#p20c0ddf9fa)" d="M 393.552132 287.57421 
C 394.570056 287.57421 395.546426 287.32028 396.266207 286.868347 
C 396.985989 286.416413 397.390414 285.803374 397.390414 285.164243 
C 397.390414 284.525112 396.985989 283.912073 396.266207 283.460139 
C 395.546426 283.008206 394.570056 282.754276 393.552132 282.754276 
C 392.534207 282.754276 391.557838 283.008206 390.838056 283.460139 
C 390.118275 283.912073 389.713849 284.525112 389.713849 285.164243 
C 389.713849 285.803374 390.118275 286.416413 390.838056 286.868347 
C 391.557838 287.32028 392.534207 287.57421 393.552132 287.57421 
z
" style="fill:#0000ff;opacity:0.2;stroke:#0000ff;stroke-linejoin:miter;stroke-width:2;"/>
   </g>
   <g id="patch_11">
    <path clip-path="url(#p20c0ddf9fa)" d="M 353.250166 302.03401 
C 354.268091 302.03401 355.244461 301.780081 355.964242 301.328147 
C 356.684023 300.876213 357.088449 300.263174 357.088449 299.624043 
C 357.088449 298.984912 356.684023 298.371873 355.964242 297.919939 
C 355.244461 297.468006 354.268091 297.214076 353.250166 297.214076 
C 352.232242 297.214076 351.255872 297.468006 350.536091 297.919939 
C 349.816309 298.371873 349.411884 298.984912 349.411884 299.624043 
C 349.411884 300.263174 349.816309 300.876213 350.536091 301.328147 
C 351.255872 301.780081 352.232242 302.03401 353.250166 302.03401 
z
" style="fill:#0000ff;opacity:0.2;stroke:#0000ff;stroke-linejoin:miter;stroke-width:2;"/>
   </g>
   <g id="patch_12">
    <path clip-path="url(#p20c0ddf9fa)" d="M 128.710644 149.001125 
C 129.728568 149.001125 130.704938 148.747196 131.424719 148.295262 
C 132.144501 147.843328 132.548926 147.230289 132.548926 146.591158 
C 132.548926 145.952027 132.144501 145.338988 131.424719 144.887054 
C 130.704938 144.435121 129.728568 144.181191 128.710644 144.181191 
C 127.692719 144.181191 126.71635 144.435121 125.996568 144.887054 
C 125.276787 145.338988 124.872361 145.952027 124.872361 146.591158 
C 124.872361 147.230289 125.276787 147.843328 125.996568 148.295262 
C 126.71635 148.747196 127.692719 149.001125 128.710644 149.001125 
z
" style="fill:#0000ff;opacity:0.2;stroke:#0000ff;stroke-linejoin:miter;stroke-width:2;"/>
   </g>
   <g id="patch_13">
    <path clip-path="url(#p20c0ddf9fa)" d="M 96.085243 112.851624 
C 97.103168 112.851624 98.079537 112.597695 98.799319 112.145762 
C 99.5191 111.693828 99.923526 111.080788 99.923526 110.441658 
C 99.923526 109.802527 99.5191 109.189488 98.799319 108.737554 
C 98.079537 108.28562 97.103168 108.031691 96.085243 108.031691 
C 95.067319 108.031691 94.090949 108.28562 93.371168 108.737554 
C 92.651386 109.189488 92.246961 109.802527 92.246961 110.441658 
C 92.246961 111.080788 92.651386 111.693828 93.371168 112.145762 
C 94.090949 112.597695 95.067319 112.851624 96.085243 112.851624 
z
" style="fill:#0000ff;opacity:0.2;stroke:#0000ff;stroke-linejoin:miter;stroke-width:2;"/>
   </g>
   <g id="patch_14">
    <path clip-path="url(#p20c0ddf9fa)" d="M 132.548926 82.727041 
C 133.566851 82.727041 134.543221 82.473111 135.263002 82.021178 
C 135.982783 81.569244 136.387209 80.956205 136.387209 80.317074 
C 136.387209 79.677943 135.982783 79.064904 135.263002 78.61297 
C 134.543221 78.161037 133.566851 77.907107 132.548926 77.907107 
C 131.531002 77.907107 130.554632 78.161037 129.834851 78.61297 
C 129.11507 79.064904 128.710644 79.677943 128.710644 80.317074 
C 128.710644 80.956205 129.11507 81.569244 129.834851 82.021178 
C 130.554632 82.473111 131.531002 82.727041 132.548926 82.727041 
z
" style="fill:#0000ff;opacity:0.2;stroke:#0000ff;stroke-linejoin:miter;stroke-width:2;"/>
   </g>
   <g id="patch_15">
    <path clip-path="url(#p20c0ddf9fa)" d="M 197.799728 65.857274 
C 198.817652 65.857274 199.794022 65.603345 200.513803 65.151411 
C 201.233584 64.699477 201.63801 64.086438 201.63801 63.447307 
C 201.63801 62.808177 201.233584 62.195137 200.513803 61.743203 
C 199.794022 61.29127 198.817652 61.037341 197.799728 61.037341 
C 196.781803 61.037341 195.805433 61.29127 195.085652 61.743203 
C 194.365871 62.195137 193.961445 62.808177 193.961445 63.447307 
C 193.961445 64.086438 194.365871 64.699477 195.085652 65.151411 
C 195.805433 65.603345 196.781803 65.857274 197.799728 65.857274 
z
" style="fill:#0000ff;opacity:0.2;stroke:#0000ff;stroke-linejoin:miter;stroke-width:2;"/>
   </g>
   <g id="patch_16">
    <path clip-path="url(#p20c0ddf9fa)" d="M 250.576111 65.857274 
L 425.217962 285.164243 
C 421.379679 299.624043 404.107408 306.853943 377.239431 304.443976 
L 106.64052 136.951291 
C 81.691684 121.286508 64.419413 105.621724 64.419413 92.366908 
C 64.419413 79.112091 81.691684 65.857274 116.236226 48.987507 
C 148.861627 34.527707 169.97218 29.707774 191.082733 29.707774 
C 210.274146 29.707774 229.465558 38.142657 250.576111 65.857274 
" style="fill:none;stroke:#ff0000;stroke-linejoin:miter;stroke-width:0.5;"/>
   </g>
   <g id="patch_17">
    <path clip-path="url(#p20c0ddf9fa)" d="M 241.939976 91.161924 
L 393.552132 285.164243 
C 393.552132 296.009093 364.765014 300.829026 353.250166 299.624043 
L 128.710644 146.591158 
C 105.680949 130.926375 96.085243 120.081524 96.085243 110.441658 
C 96.085243 102.006774 109.519232 92.366908 132.548926 80.317074 
C 161.336045 68.267241 184.365739 63.447307 197.799728 63.447307 
C 216.99114 63.447307 230.425128 75.497141 241.939976 91.161924 
" style="fill:none;stroke:#0000ff;stroke-linejoin:miter;stroke-width:0.5;"/>
   </g>
   <g id="[&quot;g_s&quot;:1,&quot;g_t&quot;:1,&quot;coords&quot;:[[235.0, -45.0],[230.5, -66.0]],&quot;certainty&quot;:11]">
    <path clip-path="url(#p20c0ddf9fa)" d="M 250.576111 73.087174 
C 253.629884 73.087174 256.558994 72.325386 258.718338 70.969585 
C 260.877681 69.613784 262.090958 67.774666 262.090958 65.857274 
C 262.090958 63.939882 260.877681 62.100763 258.718338 60.744963 
C 256.558994 59.389162 253.629884 58.627374 250.576111 58.627374 
C 247.522338 58.627374 244.593228 59.389162 242.433885 60.744963 
C 240.274541 62.100763 239.061264 63.939882 239.061264 65.857274 
C 239.061264 67.774666 240.274541 69.613784 242.433885 70.969585 
C 244.593228 72.325386 247.522338 73.087174 250.576111 73.087174 
z
" style="fill:#0000ff;opacity:0.2;stroke:#0000ff;stroke-linejoin:miter;stroke-width:2;"/>
   </g>
   <g id="[&quot;g_s&quot;:1,&quot;g_t&quot;:1,&quot;coords&quot;:[[230.5, -66.0],[235.0, -45.0]],&quot;certainty&quot;:11]">
    <path clip-path="url(#p20c0ddf9fa)" d="M 241.939976 98.391824 
C 244.993749 98.391824 247.922859 97.630036 250.082202 96.274236 
C 252.241546 94.918435 253.454823 93.079316 253.454823 91.161924 
C 253.454823 89.244532 252.241546 87.405414 250.082202 86.049613 
C 247.922859 84.693812 244.993749 83.932024 241.939976 83.932024 
C 238.886202 83.932024 235.957093 84.693812 233.797749 86.049613 
C 231.638405 87.405414 230.425128 89.244532 230.425128 91.161924 
C 230.425128 93.079316 231.638405 94.918435 233.797749 96.274236 
C 235.957093 97.630036 238.886202 98.391824 241.939976 98.391824 
z
" style="fill:#ff0000;opacity:0.2;stroke:#ff0000;stroke-linejoin:miter;stroke-width:2;"/>
   </g>
   <g id="patch_18">
    <path d="M 250.576111 65.857274 
Q 246.581161 77.562837 243.271383 87.26078 
" style="fill:none;opacity:0.5;stroke:#0000ff;stroke-linecap:round;stroke-width:3;"/>
    <path d="M 245.175476 86.325669 
L 243.271383 87.26078 
L 242.336273 85.356688 
" style="fill:none;opacity:0.5;stroke:#0000ff;stroke-linecap:round;stroke-width:3;"/>
   </g>
   <g id="[&quot;g_s&quot;:2,&quot;g_t&quot;:2,&quot;coords&quot;:[[326.0, -227.0],[309.5, -227.0]],&quot;certainty&quot;:4]">
    <path clip-path="url(#p20c0ddf9fa)" d="M 425.217962 288.176701 
C 426.490367 288.176701 427.71083 287.85929 428.610556 287.294373 
C 429.510283 286.729456 430.015815 285.963156 430.015815 285.164243 
C 430.015815 284.36533 429.510283 283.59903 428.610556 283.034113 
C 427.71083 282.469196 426.490367 282.151785 425.217962 282.151785 
C 423.945556 282.151785 422.725094 282.469196 421.825367 283.034113 
C 420.925641 283.59903 420.420109 284.36533 420.420109 285.164243 
C 420.420109 285.963156 420.925641 286.729456 421.825367 287.294373 
C 422.725094 287.85929 423.945556 288.176701 425.217962 288.176701 
z
" style="fill:#0000ff;opacity:0.2;stroke:#0000ff;stroke-linejoin:miter;stroke-width:2;"/>
   </g>
   <g id="[&quot;g_s&quot;:2,&quot;g_t&quot;:2,&quot;coords&quot;:[[309.5, -227.0],[326.0, -227.0]],&quot;certainty&quot;:4]">
    <path clip-path="url(#p20c0ddf9fa)" d="M 393.552132 288.176701 
C 394.824537 288.176701 396.045 287.85929 396.944726 287.294373 
C 397.844453 286.729456 398.349985 285.963156 398.349985 285.164243 
C 398.349985 284.36533 397.844453 283.59903 396.944726 283.034113 
C 396.045 282.469196 394.824537 282.151785 393.552132 282.151785 
C 392.279726 282.151785 391.059264 282.469196 390.159537 283.034113 
C 389.259811 283.59903 388.754279 284.36533 388.754279 285.164243 
C 388.754279 285.963156 389.259811 286.729456 390.159537 287.294373 
C 391.059264 287.85929 392.279726 288.176701 393.552132 288.176701 
z
" style="fill:#ff0000;opacity:0.2;stroke:#ff0000;stroke-linejoin:miter;stroke-width:2;"/>
   </g>
   <g id="patch_19">
    <path d="M 425.217962 285.164243 
Q 410.384268 285.164243 396.434457 285.164243 
" style="fill:none;opacity:0.5;stroke:#0000ff;stroke-linecap:round;stroke-width:1.25;"/>
    <path d="M 397.934457 286.664243 
L 396.434457 285.164243 
L 397.934457 283.664243 
" style="fill:none;opacity:0.5;stroke:#0000ff;stroke-linecap:round;stroke-width:1.25;"/>
   </g>
   <g id="[&quot;g_s&quot;:3,&quot;g_t&quot;:3,&quot;coords&quot;:[[301.0, -243.0],[288.5, -239.0]],&quot;certainty&quot;:7]">
    <path clip-path="url(#p20c0ddf9fa)" d="M 377.239431 309.26391 
C 379.27528 309.26391 381.22802 308.756051 382.667583 307.852184 
C 384.107145 306.948317 384.915996 305.722238 384.915996 304.443976 
C 384.915996 303.165715 384.107145 301.939636 382.667583 301.035769 
C 381.22802 300.131902 379.27528 299.624043 377.239431 299.624043 
C 375.203583 299.624043 373.250843 300.131902 371.81128 301.035769 
C 370.371718 301.939636 369.562867 303.165715 369.562867 304.443976 
C 369.562867 305.722238 370.371718 306.948317 371.81128 307.852184 
C 373.250843 308.756051 375.203583 309.26391 377.239431 309.26391 
z
" style="fill:#0000ff;opacity:0.2;stroke:#0000ff;stroke-linejoin:miter;stroke-width:2;"/>
   </g>
   <g id="[&quot;g_s&quot;:3,&quot;g_t&quot;:3,&quot;coords&quot;:[[288.5, -239.0],[301.0, -243.0]],&quot;certainty&quot;:7]">
    <path clip-path="url(#p20c0ddf9fa)" d="M 353.250166 304.443976 
C 355.286015 304.443976 357.238755 303.936118 358.678317 303.032251 
C 360.11788 302.128383 360.926731 300.902304 360.926731 299.624043 
C 360.926731 298.345782 360.11788 297.119703 358.678317 296.215836 
C 357.238755 295.311968 355.286015 294.80411 353.250166 294.80411 
C 351.214317 294.80411 349.261578 295.311968 347.822015 296.215836 
C 346.382453 297.119703 345.573601 298.345782 345.573601 299.624043 
C 345.573601 300.902304 346.382453 302.128383 347.822015 303.032251 
C 349.261578 303.936118 351.214317 304.443976 353.250166 304.443976 
z
" style="fill:#ff0000;opacity:0.2;stroke:#ff0000;stroke-linejoin:miter;stroke-width:2;"/>
   </g>
   <g id="patch_20">
    <path d="M 377.239431 304.443976 
Q 366.224341 302.23082 356.595755 300.29624 
" style="fill:none;opacity:0.5;stroke:#0000ff;stroke-linecap:round;stroke-width:2;"/>
    <path d="M 357.77089 302.062326 
L 356.595755 300.29624 
L 358.361841 299.121106 
" style="fill:none;opacity:0.5;stroke:#0000ff;stroke-linecap:round;stroke-width:2;"/>
   </g>
   <g id="[&quot;g_s&quot;:4,&quot;g_t&quot;:4,&quot;coords&quot;:[[160.0, -104.0],[171.5, -112.0]],&quot;certainty&quot;:6]">
    <path clip-path="url(#p20c0ddf9fa)" d="M 106.64052 141.168733 
C 108.421888 141.168733 110.130535 140.724357 111.390152 139.933473 
C 112.649769 139.142589 113.357514 138.06977 113.357514 136.951291 
C 113.357514 135.832813 112.649769 134.759994 111.390152 133.96911 
C 110.130535 133.178226 108.421888 132.73385 106.64052 132.73385 
C 104.859152 132.73385 103.150505 133.178226 101.890888 133.96911 
C 100.631271 134.759994 99.923526 135.832813 99.923526 136.951291 
C 99.923526 138.06977 100.631271 139.142589 101.890888 139.933473 
C 103.150505 140.724357 104.859152 141.168733 106.64052 141.168733 
z
" style="fill:#0000ff;opacity:0.2;stroke:#0000ff;stroke-linejoin:miter;stroke-width:2;"/>
   </g>
   <g id="[&quot;g_s&quot;:4,&quot;g_t&quot;:4,&quot;coords&quot;:[[171.5, -112.0],[160.0, -104.0]],&quot;certainty&quot;:6]">
    <path clip-path="url(#p20c0ddf9fa)" d="M 128.710644 150.8086 
C 130.492012 150.8086 132.200659 150.364224 133.460276 149.57334 
C 134.719893 148.782456 135.427638 147.709637 135.427638 146.591158 
C 135.427638 145.472679 134.719893 144.39986 133.460276 143.608976 
C 132.200659 142.818093 130.492012 142.373716 128.710644 142.373716 
C 126.929276 142.373716 125.220629 142.818093 123.961012 143.608976 
C 122.701395 144.39986 121.99365 145.472679 121.99365 146.591158 
C 121.99365 147.709637 122.701395 148.782456 123.961012 149.57334 
C 125.220629 150.364224 126.929276 150.8086 128.710644 150.8086 
z
" style="fill:#ff0000;opacity:0.2;stroke:#ff0000;stroke-linejoin:miter;stroke-width:2;"/>
   </g>
   <g id="patch_21">
    <path d="M 106.64052 136.951291 
Q 116.758238 141.370544 125.741972 145.294491 
" style="fill:none;opacity:0.5;stroke:#0000ff;stroke-linecap:round;stroke-width:1.75;"/>
    <path d="M 124.967776 143.319492 
L 125.741972 145.294491 
L 123.766973 146.068687 
" style="fill:none;opacity:0.5;stroke:#0000ff;stroke-linecap:round;stroke-width:1.75;"/>
   </g>
   <g id="[&quot;g_s&quot;:5,&quot;g_t&quot;:5,&quot;coords&quot;:[[138.0, -67.0],[154.5, -82.0]],&quot;certainty&quot;:13]">
    <path clip-path="url(#p20c0ddf9fa)" d="M 64.419413 100.801791 
C 67.982149 100.801791 71.399443 99.913038 73.918677 98.331271 
C 76.437912 96.749503 77.853402 94.603865 77.853402 92.366908 
C 77.853402 90.12995 76.437912 87.984312 73.918677 86.402544 
C 71.399443 84.820777 67.982149 83.932024 64.419413 83.932024 
C 60.856678 83.932024 57.439383 84.820777 54.920149 86.402544 
C 52.400914 87.984312 50.985425 90.12995 50.985425 92.366908 
C 50.985425 94.603865 52.400914 96.749503 54.920149 98.331271 
C 57.439383 99.913038 60.856678 100.801791 64.419413 100.801791 
z
" style="fill:#0000ff;opacity:0.2;stroke:#0000ff;stroke-linejoin:miter;stroke-width:2;"/>
   </g>
   <g id="[&quot;g_s&quot;:5,&quot;g_t&quot;:5,&quot;coords&quot;:[[154.5, -82.0],[138.0, -67.0]],&quot;certainty&quot;:13]">
    <path clip-path="url(#p20c0ddf9fa)" d="M 96.085243 118.876541 
C 99.647979 118.876541 103.065273 117.987789 105.584508 116.406021 
C 108.103742 114.824253 109.519232 112.678615 109.519232 110.441658 
C 109.519232 108.2047 108.103742 106.059062 105.584508 104.477294 
C 103.065273 102.895527 99.647979 102.006774 96.085243 102.006774 
C 92.522508 102.006774 89.105213 102.895527 86.585979 104.477294 
C 84.066744 106.059062 82.651255 108.2047 82.651255 110.441658 
C 82.651255 112.678615 84.066744 114.824253 86.585979 116.406021 
C 89.105213 117.987789 92.522508 118.876541 96.085243 118.876541 
z
" style="fill:#ff0000;opacity:0.2;stroke:#ff0000;stroke-linejoin:miter;stroke-width:2;"/>
   </g>
   <g id="patch_22">
    <path d="M 64.419413 92.366908 
Q 79.384533 100.908948 92.200276 108.224131 
" style="fill:none;opacity:0.5;stroke:#0000ff;stroke-linecap:round;stroke-width:3.5;"/>
    <path d="M 91.641144 106.177824 
L 92.200276 108.224131 
L 90.153969 108.783263 
" style="fill:none;opacity:0.5;stroke:#0000ff;stroke-linecap:round;stroke-width:3.5;"/>
   </g>
   <g id="[&quot;g_s&quot;:6,&quot;g_t&quot;:6,&quot;coords&quot;:[[165.0, -31.0],[173.5, -57.0]],&quot;certainty&quot;:3]">
    <path clip-path="url(#p20c0ddf9fa)" d="M 116.236226 51.397474 
C 117.25415 51.397474 118.23052 51.143544 118.950302 50.691611 
C 119.670083 50.239677 120.074508 49.626638 120.074508 48.987507 
C 120.074508 48.348376 119.670083 47.735337 118.950302 47.283403 
C 118.23052 46.83147 117.25415 46.57754 116.236226 46.57754 
C 115.218302 46.57754 114.241932 46.83147 113.52215 47.283403 
C 112.802369 47.735337 112.397944 48.348376 112.397944 48.987507 
C 112.397944 49.626638 112.802369 50.239677 113.52215 50.691611 
C 114.241932 51.143544 115.218302 51.397474 116.236226 51.397474 
z
" style="fill:#0000ff;opacity:0.2;stroke:#0000ff;stroke-linejoin:miter;stroke-width:2;"/>
   </g>
   <g id="[&quot;g_s&quot;:6,&quot;g_t&quot;:6,&quot;coords&quot;:[[173.5, -57.0],[165.0, -31.0]],&quot;certainty&quot;:3]">
    <path clip-path="url(#p20c0ddf9fa)" d="M 132.548926 82.727041 
C 133.566851 82.727041 134.543221 82.473111 135.263002 82.021178 
C 135.982783 81.569244 136.387209 80.956205 136.387209 80.317074 
C 136.387209 79.677943 135.982783 79.064904 135.263002 78.61297 
C 134.543221 78.161037 133.566851 77.907107 132.548926 77.907107 
C 131.531002 77.907107 130.554632 78.161037 129.834851 78.61297 
C 129.11507 79.064904 128.710644 79.677943 128.710644 80.317074 
C 128.710644 80.956205 129.11507 81.569244 129.834851 82.021178 
C 130.554632 82.473111 131.531002 82.727041 132.548926 82.727041 
z
" style="fill:#ff0000;opacity:0.2;stroke:#ff0000;stroke-linejoin:miter;stroke-width:2;"/>
   </g>
   <g id="patch_23">
    <path d="M 116.236226 48.987507 
Q 123.931591 63.76694 131.300394 77.91919 
" style="fill:none;opacity:0.5;stroke:#0000ff;stroke-linecap:round;"/>
    <path d="M 131.938107 75.895994 
L 131.300394 77.91919 
L 129.277198 77.281478 
" style="fill:none;opacity:0.5;stroke:#0000ff;stroke-linecap:round;"/>
   </g>
   <g id="[&quot;g_s&quot;:7,&quot;g_t&quot;:7,&quot;coords&quot;:[[204.0, -15.0],[207.5, -43.0]],&quot;certainty&quot;:11]">
    <path clip-path="url(#p20c0ddf9fa)" d="M 191.082733 36.937674 
C 194.136507 36.937674 197.065616 36.175886 199.22496 34.820085 
C 201.384304 33.464284 202.597581 31.625165 202.597581 29.707774 
C 202.597581 27.790382 201.384304 25.951263 199.22496 24.595462 
C 197.065616 23.239661 194.136507 22.477873 191.082733 22.477873 
C 188.02896 22.477873 185.099851 23.239661 182.940507 24.595462 
C 180.781163 25.951263 179.567886 27.790382 179.567886 29.707774 
C 179.567886 31.625165 180.781163 33.464284 182.940507 34.820085 
C 185.099851 36.175886 188.02896 36.937674 191.082733 36.937674 
z
" style="fill:#0000ff;opacity:0.2;stroke:#0000ff;stroke-linejoin:miter;stroke-width:2;"/>
   </g>
   <g id="[&quot;g_s&quot;:7,&quot;g_t&quot;:7,&quot;coords&quot;:[[207.5, -43.0],[204.0, -15.0]],&quot;certainty&quot;:11]">
    <path clip-path="url(#p20c0ddf9fa)" d="M 197.799728 70.677207 
C 200.853501 70.677207 203.782611 69.915419 205.941954 68.559619 
C 208.101298 67.203818 209.314575 65.364699 209.314575 63.447307 
C 209.314575 61.529915 208.101298 59.690797 205.941954 58.334996 
C 203.782611 56.979195 200.853501 56.217407 197.799728 56.217407 
C 194.745954 56.217407 191.816845 56.979195 189.657501 58.334996 
C 187.498157 59.690797 186.28488 61.529915 186.28488 63.447307 
C 186.28488 65.364699 187.498157 67.203818 189.657501 68.559619 
C 191.816845 69.915419 194.745954 70.677207 197.799728 70.677207 
z
" style="fill:#ff0000;opacity:0.2;stroke:#ff0000;stroke-linejoin:miter;stroke-width:2;"/>
   </g>
   <g id="patch_24">
    <path d="M 191.082733 29.707774 
Q 194.245674 45.595255 196.994422 59.402246 
" style="fill:none;opacity:0.5;stroke:#0000ff;stroke-linecap:round;stroke-width:3;"/>
    <path d="M 198.172673 57.638238 
L 196.994422 59.402246 
L 195.230414 58.223994 
" style="fill:none;opacity:0.5;stroke:#0000ff;stroke-linecap:round;stroke-width:3;"/>
   </g>
   <g id="[&quot;g_s&quot;:1,&quot;g_t&quot;:1,&quot;coords&quot;:[[230.5, -66.0],[235.0, -45.0]],&quot;certainty&quot;:11]">
    <path clip-path="url(#p20c0ddf9fa)" d="M 241.939976 98.391824 
C 244.993749 98.391824 247.922859 97.630036 250.082202 96.274236 
C 252.241546 94.918435 253.454823 93.079316 253.454823 91.161924 
C 253.454823 89.244532 252.241546 87.405414 250.082202 86.049613 
C 247.922859 84.693812 244.993749 83.932024 241.939976 83.932024 
C 238.886202 83.932024 235.957093 84.693812 233.797749 86.049613 
C 231.638405 87.405414 230.425128 89.244532 230.425128 91.161924 
C 230.425128 93.079316 231.638405 94.918435 233.797749 96.274236 
C 235.957093 97.630036 238.886202 98.391824 241.939976 98.391824 
z
" style="fill:#0000ff;opacity:0.2;stroke:#0000ff;stroke-linejoin:miter;stroke-width:2;"/>
   </g>
   <g id="[&quot;g_s&quot;:1,&quot;g_t&quot;:1,&quot;coords&quot;:[[235.0, -45.0],[230.5, -66.0]],&quot;certainty&quot;:11]">
    <path clip-path="url(#p20c0ddf9fa)" d="M 250.576111 73.087174 
C 253.629884 73.087174 256.558994 72.325386 258.718338 70.969585 
C 260.877681 69.613784 262.090958 67.774666 262.090958 65.857274 
C 262.090958 63.939882 260.877681 62.100763 258.718338 60.744963 
C 256.558994 59.389162 253.629884 58.627374 250.576111 58.627374 
C 247.522338 58.627374 244.593228 59.389162 242.433885 60.744963 
C 240.274541 62.100763 239.061264 63.939882 239.061264 65.857274 
C 239.061264 67.774666 240.274541 69.613784 242.433885 70.969585 
C 244.593228 72.325386 247.522338 73.087174 250.576111 73.087174 
z
" style="fill:#ff0000;opacity:0.2;stroke:#ff0000;stroke-linejoin:miter;stroke-width:2;"/>
   </g>
   <g id="patch_25">
    <path d="M 241.939976 91.161924 
Q 245.934926 79.456361 249.244703 69.758418 
" style="fill:none;opacity:0.5;stroke:#ff0000;stroke-linecap:round;stroke-width:3;"/>
    <path d="M 247.340611 70.693529 
L 249.244703 69.758418 
L 250.179814 71.66251 
" style="fill:none;opacity:0.5;stroke:#ff0000;stroke-linecap:round;stroke-width:3;"/>
   </g>
   <g id="[&quot;g_s&quot;:2,&quot;g_t&quot;:2,&quot;coords&quot;:[[309.5, -227.0],[326.0, -227.0]],&quot;certainty&quot;:5]">
    <path clip-path="url(#p20c0ddf9fa)" d="M 393.552132 288.779193 
C 395.079018 288.779193 396.543573 288.398299 397.623245 287.720399 
C 398.702917 287.042498 399.309555 286.122939 399.309555 285.164243 
C 399.309555 284.205547 398.702917 283.285988 397.623245 282.608087 
C 396.543573 281.930187 395.079018 281.549293 393.552132 281.549293 
C 392.025245 281.549293 390.56069 281.930187 389.481019 282.608087 
C 388.401347 283.285988 387.794708 284.205547 387.794708 285.164243 
C 387.794708 286.122939 388.401347 287.042498 389.481019 287.720399 
C 390.56069 288.398299 392.025245 288.779193 393.552132 288.779193 
z
" style="fill:#0000ff;opacity:0.2;stroke:#0000ff;stroke-linejoin:miter;stroke-width:2;"/>
   </g>
   <g id="[&quot;g_s&quot;:2,&quot;g_t&quot;:2,&quot;coords&quot;:[[326.0, -227.0],[309.5, -227.0]],&quot;certainty&quot;:5]">
    <path clip-path="url(#p20c0ddf9fa)" d="M 425.217962 288.779193 
C 426.744848 288.779193 428.209403 288.398299 429.289075 287.720399 
C 430.368747 287.042498 430.975386 286.122939 430.975386 285.164243 
C 430.975386 284.205547 430.368747 283.285988 429.289075 282.608087 
C 428.209403 281.930187 426.744848 281.549293 425.217962 281.549293 
C 423.691075 281.549293 422.22652 281.930187 421.146849 282.608087 
C 420.067177 283.285988 419.460538 284.205547 419.460538 285.164243 
C 419.460538 286.122939 420.067177 287.042498 421.146849 287.720399 
C 422.22652 288.398299 423.691075 288.779193 425.217962 288.779193 
z
" style="fill:#ff0000;opacity:0.2;stroke:#ff0000;stroke-linejoin:miter;stroke-width:2;"/>
   </g>
   <g id="patch_26">
    <path d="M 393.552132 285.164243 
Q 408.385826 285.164243 422.15886 285.164243 
" style="fill:none;opacity:0.5;stroke:#ff0000;stroke-linecap:round;stroke-width:1.5;"/>
    <path d="M 420.65886 283.664243 
L 422.15886 285.164243 
L 420.65886 286.664243 
" style="fill:none;opacity:0.5;stroke:#ff0000;stroke-linecap:round;stroke-width:1.5;"/>
   </g>
   <g id="[&quot;g_s&quot;:3,&quot;g_t&quot;:3,&quot;coords&quot;:[[288.5, -239.0],[301.0, -243.0]],&quot;certainty&quot;:6]">
    <path clip-path="url(#p20c0ddf9fa)" d="M 353.250166 303.841485 
C 355.031534 303.841485 356.740181 303.397109 357.999798 302.606225 
C 359.259416 301.815341 359.967161 300.742522 359.967161 299.624043 
C 359.967161 298.505564 359.259416 297.432745 357.999798 296.641861 
C 356.740181 295.850978 355.031534 295.406601 353.250166 295.406601 
C 351.468799 295.406601 349.760151 295.850978 348.500534 296.641861 
C 347.240917 297.432745 346.533172 298.505564 346.533172 299.624043 
C 346.533172 300.742522 347.240917 301.815341 348.500534 302.606225 
C 349.760151 303.397109 351.468799 303.841485 353.250166 303.841485 
z
" style="fill:#0000ff;opacity:0.2;stroke:#0000ff;stroke-linejoin:miter;stroke-width:2;"/>
   </g>
   <g id="[&quot;g_s&quot;:3,&quot;g_t&quot;:3,&quot;coords&quot;:[[301.0, -243.0],[288.5, -239.0]],&quot;certainty&quot;:6]">
    <path clip-path="url(#p20c0ddf9fa)" d="M 377.239431 308.661418 
C 379.020799 308.661418 380.729446 308.217042 381.989064 307.426158 
C 383.248681 306.635274 383.956426 305.562455 383.956426 304.443976 
C 383.956426 303.325498 383.248681 302.252679 381.989064 301.461795 
C 380.729446 300.670911 379.020799 300.226535 377.239431 300.226535 
C 375.458064 300.226535 373.749416 300.670911 372.489799 301.461795 
C 371.230182 302.252679 370.522437 303.325498 370.522437 304.443976 
C 370.522437 305.562455 371.230182 306.635274 372.489799 307.426158 
C 373.749416 308.217042 375.458064 308.661418 377.239431 308.661418 
z
" style="fill:#ff0000;opacity:0.2;stroke:#ff0000;stroke-linejoin:miter;stroke-width:2;"/>
   </g>
   <g id="patch_27">
    <path d="M 353.250166 299.624043 
Q 364.265257 301.8372 374.067156 303.806601 
" style="fill:none;opacity:0.5;stroke:#ff0000;stroke-linecap:round;stroke-width:1.75;"/>
    <path d="M 372.892021 302.040516 
L 374.067156 303.806601 
L 372.30107 304.981736 
" style="fill:none;opacity:0.5;stroke:#ff0000;stroke-linecap:round;stroke-width:1.75;"/>
   </g>
   <g id="[&quot;g_s&quot;:4,&quot;g_t&quot;:4,&quot;coords&quot;:[[171.5, -112.0],[160.0, -104.0]],&quot;certainty&quot;:6]">
    <path clip-path="url(#p20c0ddf9fa)" d="M 128.710644 150.8086 
C 130.492012 150.8086 132.200659 150.364224 133.460276 149.57334 
C 134.719893 148.782456 135.427638 147.709637 135.427638 146.591158 
C 135.427638 145.472679 134.719893 144.39986 133.460276 143.608976 
C 132.200659 142.818093 130.492012 142.373716 128.710644 142.373716 
C 126.929276 142.373716 125.220629 142.818093 123.961012 143.608976 
C 122.701395 144.39986 121.99365 145.472679 121.99365 146.591158 
C 121.99365 147.709637 122.701395 148.782456 123.961012 149.57334 
C 125.220629 150.364224 126.929276 150.8086 128.710644 150.8086 
z
" style="fill:#0000ff;opacity:0.2;stroke:#0000ff;stroke-linejoin:miter;stroke-width:2;"/>
   </g>
   <g id="[&quot;g_s&quot;:4,&quot;g_t&quot;:4,&quot;coords&quot;:[[160.0, -104.0],[171.5, -112.0]],&quot;certainty&quot;:6]">
    <path clip-path="url(#p20c0ddf9fa)" d="M 106.64052 141.168733 
C 108.421888 141.168733 110.130535 140.724357 111.390152 139.933473 
C 112.649769 139.142589 113.357514 138.06977 113.357514 136.951291 
C 113.357514 135.832813 112.649769 134.759994 111.390152 133.96911 
C 110.130535 133.178226 108.421888 132.73385 106.64052 132.73385 
C 104.859152 132.73385 103.150505 133.178226 101.890888 133.96911 
C 100.631271 134.759994 99.923526 135.832813 99.923526 136.951291 
C 99.923526 138.06977 100.631271 139.142589 101.890888 139.933473 
C 103.150505 140.724357 104.859152 141.168733 106.64052 141.168733 
z
" style="fill:#ff0000;opacity:0.2;stroke:#ff0000;stroke-linejoin:miter;stroke-width:2;"/>
   </g>
   <g id="patch_28">
    <path d="M 128.710644 146.591158 
Q 118.592925 142.171905 109.609192 138.247958 
" style="fill:none;opacity:0.5;stroke:#ff0000;stroke-linecap:round;stroke-width:1.75;"/>
    <path d="M 110.383388 140.222957 
L 109.609192 138.247958 
L 111.584191 137.473762 
" style="fill:none;opacity:0.5;stroke:#ff0000;stroke-linecap:round;stroke-width:1.75;"/>
   </g>
   <g id="[&quot;g_s&quot;:5,&quot;g_t&quot;:5,&quot;coords&quot;:[[154.5, -82.0],[138.0, -67.0]],&quot;certainty&quot;:13]">
    <path clip-path="url(#p20c0ddf9fa)" d="M 96.085243 118.876541 
C 99.647979 118.876541 103.065273 117.987789 105.584508 116.406021 
C 108.103742 114.824253 109.519232 112.678615 109.519232 110.441658 
C 109.519232 108.2047 108.103742 106.059062 105.584508 104.477294 
C 103.065273 102.895527 99.647979 102.006774 96.085243 102.006774 
C 92.522508 102.006774 89.105213 102.895527 86.585979 104.477294 
C 84.066744 106.059062 82.651255 108.2047 82.651255 110.441658 
C 82.651255 112.678615 84.066744 114.824253 86.585979 116.406021 
C 89.105213 117.987789 92.522508 118.876541 96.085243 118.876541 
z
" style="fill:#0000ff;opacity:0.2;stroke:#0000ff;stroke-linejoin:miter;stroke-width:2;"/>
   </g>
   <g id="[&quot;g_s&quot;:5,&quot;g_t&quot;:5,&quot;coords&quot;:[[138.0, -67.0],[154.5, -82.0]],&quot;certainty&quot;:13]">
    <path clip-path="url(#p20c0ddf9fa)" d="M 64.419413 100.801791 
C 67.982149 100.801791 71.399443 99.913038 73.918677 98.331271 
C 76.437912 96.749503 77.853402 94.603865 77.853402 92.366908 
C 77.853402 90.12995 76.437912 87.984312 73.918677 86.402544 
C 71.399443 84.820777 67.982149 83.932024 64.419413 83.932024 
C 60.856678 83.932024 57.439383 84.820777 54.920149 86.402544 
C 52.400914 87.984312 50.985425 90.12995 50.985425 92.366908 
C 50.985425 94.603865 52.400914 96.749503 54.920149 98.331271 
C 57.439383 99.913038 60.856678 100.801791 64.419413 100.801791 
z
" style="fill:#ff0000;opacity:0.2;stroke:#ff0000;stroke-linejoin:miter;stroke-width:2;"/>
   </g>
   <g id="patch_29">
    <path d="M 96.085243 110.441658 
Q 81.120123 101.899617 68.304381 94.584434 
" style="fill:none;opacity:0.5;stroke:#ff0000;stroke-linecap:round;stroke-width:3.5;"/>
    <path d="M 68.863512 96.630741 
L 68.304381 94.584434 
L 70.350688 94.025303 
" style="fill:none;opacity:0.5;stroke:#ff0000;stroke-linecap:round;stroke-width:3.5;"/>
   </g>
   <g id="[&quot;g_s&quot;:6,&quot;g_t&quot;:6,&quot;coords&quot;:[[173.5, -57.0],[165.0, -31.0]],&quot;certainty&quot;:4]">
    <path clip-path="url(#p20c0ddf9fa)" d="M 132.548926 83.329532 
C 133.821332 83.329532 135.041794 83.012121 135.941521 82.447204 
C 136.841247 81.882287 137.346779 81.115987 137.346779 80.317074 
C 137.346779 79.518161 136.841247 78.751861 135.941521 78.186944 
C 135.041794 77.622027 133.821332 77.304616 132.548926 77.304616 
C 131.276521 77.304616 130.056058 77.622027 129.156332 78.186944 
C 128.256605 78.751861 127.751073 79.518161 127.751073 80.317074 
C 127.751073 81.115987 128.256605 81.882287 129.156332 82.447204 
C 130.056058 83.012121 131.276521 83.329532 132.548926 83.329532 
z
" style="fill:#0000ff;opacity:0.2;stroke:#0000ff;stroke-linejoin:miter;stroke-width:2;"/>
   </g>
   <g id="[&quot;g_s&quot;:6,&quot;g_t&quot;:6,&quot;coords&quot;:[[165.0, -31.0],[173.5, -57.0]],&quot;certainty&quot;:4]">
    <path clip-path="url(#p20c0ddf9fa)" d="M 116.236226 51.999965 
C 117.508631 51.999965 118.729094 51.682554 119.62882 51.117637 
C 120.528547 50.55272 121.034079 49.78642 121.034079 48.987507 
C 121.034079 48.188594 120.528547 47.422294 119.62882 46.857377 
C 118.729094 46.29246 117.508631 45.975049 116.236226 45.975049 
C 114.96382 45.975049 113.743358 46.29246 112.843632 46.857377 
C 111.943905 47.422294 111.438373 48.188594 111.438373 48.987507 
C 111.438373 49.78642 111.943905 50.55272 112.843632 51.117637 
C 113.743358 51.682554 114.96382 51.999965 116.236226 51.999965 
z
" style="fill:#ff0000;opacity:0.2;stroke:#ff0000;stroke-linejoin:miter;stroke-width:2;"/>
   </g>
   <g id="patch_30">
    <path d="M 132.548926 80.317074 
Q 124.853561 65.537641 117.566398 51.542187 
" style="fill:none;opacity:0.5;stroke:#ff0000;stroke-linecap:round;stroke-width:1.25;"/>
    <path d="M 116.928686 53.565383 
L 117.566398 51.542187 
L 119.589594 52.179899 
" style="fill:none;opacity:0.5;stroke:#ff0000;stroke-linecap:round;stroke-width:1.25;"/>
   </g>
   <g id="[&quot;g_s&quot;:7,&quot;g_t&quot;:7,&quot;coords&quot;:[[207.5, -43.0],[204.0, -15.0]],&quot;certainty&quot;:11]">
    <path clip-path="url(#p20c0ddf9fa)" d="M 197.799728 70.677207 
C 200.853501 70.677207 203.782611 69.915419 205.941954 68.559619 
C 208.101298 67.203818 209.314575 65.364699 209.314575 63.447307 
C 209.314575 61.529915 208.101298 59.690797 205.941954 58.334996 
C 203.782611 56.979195 200.853501 56.217407 197.799728 56.217407 
C 194.745954 56.217407 191.816845 56.979195 189.657501 58.334996 
C 187.498157 59.690797 186.28488 61.529915 186.28488 63.447307 
C 186.28488 65.364699 187.498157 67.203818 189.657501 68.559619 
C 191.816845 69.915419 194.745954 70.677207 197.799728 70.677207 
z
" style="fill:#0000ff;opacity:0.2;stroke:#0000ff;stroke-linejoin:miter;stroke-width:2;"/>
   </g>
   <g id="[&quot;g_s&quot;:7,&quot;g_t&quot;:7,&quot;coords&quot;:[[204.0, -15.0],[207.5, -43.0]],&quot;certainty&quot;:11]">
    <path clip-path="url(#p20c0ddf9fa)" d="M 191.082733 36.937674 
C 194.136507 36.937674 197.065616 36.175886 199.22496 34.820085 
C 201.384304 33.464284 202.597581 31.625165 202.597581 29.707774 
C 202.597581 27.790382 201.384304 25.951263 199.22496 24.595462 
C 197.065616 23.239661 194.136507 22.477873 191.082733 22.477873 
C 188.02896 22.477873 185.099851 23.239661 182.940507 24.595462 
C 180.781163 25.951263 179.567886 27.790382 179.567886 29.707774 
C 179.567886 31.625165 180.781163 33.464284 182.940507 34.820085 
C 185.099851 36.175886 188.02896 36.937674 191.082733 36.937674 
z
" style="fill:#ff0000;opacity:0.2;stroke:#ff0000;stroke-linejoin:miter;stroke-width:2;"/>
   </g>
   <g id="patch_31">
    <path d="M 197.799728 63.447307 
Q 194.636788 47.559825 191.88804 33.752835 
" style="fill:none;opacity:0.5;stroke:#ff0000;stroke-linecap:round;stroke-width:3;"/>
    <path d="M 190.709788 35.516843 
L 191.88804 33.752835 
L 193.652047 34.931087 
" style="fill:none;opacity:0.5;stroke:#ff0000;stroke-linecap:round;stroke-width:3;"/>
   </g>
   <g id="patch_32">
    <path clip-path="url(#p20c0ddf9fa)" d="M 246.258043 84.534516 
C 248.802854 84.534516 251.243779 83.899693 253.043232 82.769859 
C 254.842685 81.640024 255.853749 80.107426 255.853749 78.509599 
C 255.853749 76.911772 254.842685 75.379174 253.043232 74.24934 
C 251.243779 73.119506 248.802854 72.484682 246.258043 72.484682 
C 243.713232 72.484682 241.272308 73.119506 239.472855 74.24934 
C 237.673401 75.379174 236.662337 76.911772 236.662337 78.509599 
C 236.662337 80.107426 237.673401 81.640024 239.472855 82.769859 
C 241.272308 83.899693 243.713232 84.534516 246.258043 84.534516 
z
" style="fill:#008000;opacity:0.2;stroke:#008000;stroke-linejoin:miter;stroke-width:2;"/>
   </g>
   <g id="patch_33">
    <path clip-path="url(#p20c0ddf9fa)" d="M 409.385047 291.18916 
C 411.929858 291.18916 414.370783 290.554336 416.170236 289.424502 
C 417.969689 288.294668 418.980753 286.76207 418.980753 285.164243 
C 418.980753 283.566416 417.969689 282.033817 416.170236 280.903983 
C 414.370783 279.774149 411.929858 279.139326 409.385047 279.139326 
C 406.840236 279.139326 404.399311 279.774149 402.599858 280.903983 
C 400.800405 282.033817 399.789341 283.566416 399.789341 285.164243 
C 399.789341 286.76207 400.800405 288.294668 402.599858 289.424502 
C 404.399311 290.554336 406.840236 291.18916 409.385047 291.18916 
z
" style="fill:#008000;opacity:0.2;stroke:#008000;stroke-linejoin:miter;stroke-width:2;"/>
   </g>
   <g id="patch_34">
    <path clip-path="url(#p20c0ddf9fa)" d="M 365.244799 308.058927 
C 367.78961 308.058927 370.230535 307.424103 372.029988 306.294269 
C 373.829441 305.164435 374.840505 303.631836 374.840505 302.03401 
C 374.840505 300.436183 373.829441 298.903584 372.029988 297.77375 
C 370.230535 296.643916 367.78961 296.009093 365.244799 296.009093 
C 362.699988 296.009093 360.259063 296.643916 358.45961 297.77375 
C 356.660157 298.903584 355.649093 300.436183 355.649093 302.03401 
C 355.649093 303.631836 356.660157 305.164435 358.45961 306.294269 
C 360.259063 307.424103 362.699988 308.058927 365.244799 308.058927 
z
" style="fill:#008000;opacity:0.2;stroke:#008000;stroke-linejoin:miter;stroke-width:2;"/>
   </g>
   <g id="patch_35">
    <path clip-path="url(#p20c0ddf9fa)" d="M 117.675582 147.796141 
C 120.220393 147.796141 122.661318 147.161318 124.460771 146.031484 
C 126.260224 144.90165 127.271288 143.369051 127.271288 141.771225 
C 127.271288 140.173398 126.260224 138.640799 124.460771 137.510965 
C 122.661318 136.381131 120.220393 135.746308 117.675582 135.746308 
C 115.130771 135.746308 112.689846 136.381131 110.890393 137.510965 
C 109.09094 138.640799 108.079876 140.173398 108.079876 141.771225 
C 108.079876 143.369051 109.09094 144.90165 110.890393 146.031484 
C 112.689846 147.161318 115.130771 147.796141 117.675582 147.796141 
z
" style="fill:#008000;opacity:0.2;stroke:#008000;stroke-linejoin:miter;stroke-width:2;"/>
   </g>
   <g id="patch_36">
    <path clip-path="url(#p20c0ddf9fa)" d="M 80.252328 107.429199 
C 82.797139 107.429199 85.238064 106.794376 87.037517 105.664542 
C 88.83697 104.534708 89.848034 103.002109 89.848034 101.404283 
C 89.848034 99.806456 88.83697 98.273857 87.037517 97.144023 
C 85.238064 96.014189 82.797139 95.379366 80.252328 95.379366 
C 77.707517 95.379366 75.266592 96.014189 73.467139 97.144023 
C 71.667686 98.273857 70.656622 99.806456 70.656622 101.404283 
C 70.656622 103.002109 71.667686 104.534708 73.467139 105.664542 
C 75.266592 106.794376 77.707517 107.429199 80.252328 107.429199 
z
" style="fill:#008000;opacity:0.2;stroke:#008000;stroke-linejoin:miter;stroke-width:2;"/>
   </g>
   <g id="patch_37">
    <path clip-path="url(#p20c0ddf9fa)" d="M 124.392576 70.677207 
C 126.937387 70.677207 129.378312 70.042384 131.177765 68.91255 
C 132.977218 67.782716 133.988282 66.250117 133.988282 64.652291 
C 133.988282 63.054464 132.977218 61.521865 131.177765 60.392031 
C 129.378312 59.262197 126.937387 58.627374 124.392576 58.627374 
C 121.847765 58.627374 119.40684 59.262197 117.607387 60.392031 
C 115.807934 61.521865 114.79687 63.054464 114.79687 64.652291 
C 114.79687 66.250117 115.807934 67.782716 117.607387 68.91255 
C 119.40684 70.042384 121.847765 70.677207 124.392576 70.677207 
z
" style="fill:#008000;opacity:0.2;stroke:#008000;stroke-linejoin:miter;stroke-width:2;"/>
   </g>
   <g id="patch_38">
    <path clip-path="url(#p20c0ddf9fa)" d="M 194.441231 52.602457 
C 196.986042 52.602457 199.426966 51.967634 201.226419 50.8378 
C 203.025873 49.707966 204.036937 48.175367 204.036937 46.57754 
C 204.036937 44.979714 203.025873 43.447115 201.226419 42.317281 
C 199.426966 41.187447 196.986042 40.552624 194.441231 40.552624 
C 191.89642 40.552624 189.455495 41.187447 187.656042 42.317281 
C 185.856589 43.447115 184.845524 44.979714 184.845524 46.57754 
C 184.845524 48.175367 185.856589 49.707966 187.656042 50.8378 
C 189.455495 51.967634 191.89642 52.602457 194.441231 52.602457 
z
" style="fill:#008000;opacity:0.2;stroke:#008000;stroke-linejoin:miter;stroke-width:2;"/>
   </g>
   <g id="patch_39">
    <path clip-path="url(#p20c0ddf9fa)" d="M 250.576111 89.956941 
C 260.755355 89.956941 270.519054 87.417648 277.716867 82.898312 
C 284.914679 78.378976 288.958935 72.24858 288.958935 65.857274 
C 288.958935 59.465968 284.914679 53.335572 277.716867 48.816236 
C 270.519054 44.2969 260.755355 41.757607 250.576111 41.757607 
C 240.396867 41.757607 230.633168 44.2969 223.435356 48.816236 
C 216.237543 53.335572 212.193287 59.465968 212.193287 65.857274 
C 212.193287 72.24858 216.237543 78.378976 223.435356 82.898312 
C 230.633168 87.417648 240.396867 89.956941 250.576111 89.956941 
z
" style="fill:none;opacity:0.2;stroke:#ff0000;stroke-linejoin:miter;stroke-width:2;"/>
   </g>
   <g id="patch_40">
    <path clip-path="url(#p20c0ddf9fa)" d="M 241.939976 115.261591 
C 252.11922 115.261591 261.882919 112.722298 269.080731 108.202962 
C 276.278544 103.683626 280.3228 97.553231 280.3228 91.161924 
C 280.3228 84.770618 276.278544 78.640222 269.080731 74.120886 
C 261.882919 69.60155 252.11922 67.062257 241.939976 67.062257 
C 231.760732 67.062257 221.997033 69.60155 214.79922 74.120886 
C 207.601408 78.640222 203.557151 84.770618 203.557151 91.161924 
C 203.557151 97.553231 207.601408 103.683626 214.79922 108.202962 
C 221.997033 112.722298 231.760732 115.261591 241.939976 115.261591 
z
" style="fill:none;opacity:0.2;stroke:#0000ff;stroke-linejoin:miter;stroke-width:2;"/>
   </g>
   <g id="patch_41">
    <path clip-path="url(#p20c0ddf9fa)" d="M 250.576111 77.907107 
C 255.665733 77.907107 260.547583 76.637461 264.146489 74.377793 
C 267.745395 72.118125 269.767523 69.052927 269.767523 65.857274 
C 269.767523 62.661621 267.745395 59.596423 264.146489 57.336755 
C 260.547583 55.077087 255.665733 53.80744 250.576111 53.80744 
C 245.486489 53.80744 240.60464 55.077087 237.005733 57.336755 
C 233.406827 59.596423 231.384699 62.661621 231.384699 65.857274 
C 231.384699 69.052927 233.406827 72.118125 237.005733 74.377793 
C 240.60464 76.637461 245.486489 77.907107 250.576111 77.907107 
z
" style="fill:none;opacity:0.2;stroke:#008000;stroke-linejoin:miter;stroke-width:2;"/>
   </g>
   <g id="patch_42">
    <path clip-path="url(#p20c0ddf9fa)" d="M 241.939976 103.211758 
C 247.029598 103.211758 251.911447 101.942111 255.510353 99.682443 
C 259.10926 97.422775 261.131388 94.357577 261.131388 91.161924 
C 261.131388 87.966271 259.10926 84.901073 255.510353 82.641405 
C 251.911447 80.381737 247.029598 79.112091 241.939976 79.112091 
C 236.850354 79.112091 231.968504 80.381737 228.369598 82.641405 
C 224.770692 84.901073 222.748564 87.966271 222.748564 91.161924 
C 222.748564 94.357577 224.770692 97.422775 228.369598 99.682443 
C 231.968504 101.942111 236.850354 103.211758 241.939976 103.211758 
z
" style="fill:none;opacity:0.2;stroke:#008000;stroke-linejoin:miter;stroke-width:2;"/>
   </g>
   <g id="patch_43">
    <path d="M 246.258043 78.509599 
Q 327.821545 181.836921 409.385047 285.164243 
" style="fill:none;opacity:0.5;stroke:#008000;stroke-linecap:round;stroke-width:2;"/>
   </g>
   <g id="patch_44">
    <path d="M 250.119329 67.195687 
Q 246.581161 77.562837 243.042992 87.929987 
" style="fill:none;opacity:0.5;stroke:#800080;stroke-linecap:round;stroke-width:2;"/>
    <path d="M 248.215236 68.130798 
L 250.119329 67.195687 
L 251.05444 69.09978 
" style="fill:none;opacity:0.5;stroke:#800080;stroke-linecap:round;stroke-width:2;"/>
    <path d="M 244.947085 86.994876 
L 243.042992 87.929987 
L 242.107882 86.025894 
" style="fill:none;opacity:0.5;stroke:#800080;stroke-linecap:round;stroke-width:2;"/>
   </g>
   <g id="patch_45">
    <path d="M 409.385047 285.164243 
Q 387.314923 293.599126 365.244799 302.03401 
" style="fill:none;opacity:0.5;stroke:#008000;stroke-linecap:round;stroke-width:2;"/>
   </g>
   <g id="patch_46">
    <path d="M 423.803748 285.164243 
Q 410.384268 285.164243 396.964787 285.164243 
" style="fill:none;opacity:0.5;stroke:#800080;stroke-linecap:round;stroke-width:2;"/>
    <path d="M 422.303748 283.664243 
L 423.803748 285.164243 
L 422.303748 286.664243 
" style="fill:none;opacity:0.5;stroke:#800080;stroke-linecap:round;stroke-width:2;"/>
    <path d="M 398.464787 286.664243 
L 396.964787 285.164243 
L 398.464787 283.664243 
" style="fill:none;opacity:0.5;stroke:#800080;stroke-linecap:round;stroke-width:2;"/>
   </g>
   <g id="patch_47">
    <path d="M 365.244799 302.03401 
Q 241.46019 221.902617 117.675582 141.771225 
" style="fill:none;opacity:0.5;stroke:#008000;stroke-linecap:round;stroke-width:2;"/>
   </g>
   <g id="patch_48">
    <path d="M 375.852927 304.165399 
Q 366.224341 302.23082 356.595755 300.29624 
" style="fill:none;opacity:0.5;stroke:#800080;stroke-linecap:round;stroke-width:2;"/>
    <path d="M 374.677792 302.399314 
L 375.852927 304.165399 
L 374.086841 305.340534 
" style="fill:none;opacity:0.5;stroke:#800080;stroke-linecap:round;stroke-width:2;"/>
    <path d="M 357.77089 302.062326 
L 356.595755 300.29624 
L 358.361841 299.121106 
" style="fill:none;opacity:0.5;stroke:#800080;stroke-linecap:round;stroke-width:2;"/>
   </g>
   <g id="patch_49">
    <path d="M 117.675582 141.771225 
Q 98.963955 121.587754 80.252328 101.404283 
" style="fill:none;opacity:0.5;stroke:#008000;stroke-linecap:round;stroke-width:2;"/>
   </g>
   <g id="patch_50">
    <path d="M 107.936503 137.517355 
Q 116.758238 141.370544 125.579974 145.223733 
" style="fill:none;opacity:0.5;stroke:#800080;stroke-linecap:round;stroke-width:2;"/>
    <path d="M 108.710699 139.492354 
L 107.936503 137.517355 
L 109.911502 136.743159 
" style="fill:none;opacity:0.5;stroke:#800080;stroke-linecap:round;stroke-width:2;"/>
    <path d="M 124.805778 143.248734 
L 125.579974 145.223733 
L 123.604975 145.997929 
" style="fill:none;opacity:0.5;stroke:#800080;stroke-linecap:round;stroke-width:2;"/>
   </g>
   <g id="patch_51">
    <path d="M 80.252328 101.404283 
Q 102.322452 83.028287 124.392576 64.652291 
" style="fill:none;opacity:0.5;stroke:#008000;stroke-linecap:round;stroke-width:2;"/>
   </g>
   <g id="patch_52">
    <path d="M 65.647629 93.067969 
Q 79.384533 100.908948 93.121437 108.749927 
" style="fill:none;opacity:0.5;stroke:#800080;stroke-linecap:round;stroke-width:2;"/>
    <path d="M 66.20676 95.114276 
L 65.647629 93.067969 
L 67.693935 92.508837 
" style="fill:none;opacity:0.5;stroke:#800080;stroke-linecap:round;stroke-width:2;"/>
    <path d="M 92.562306 106.70362 
L 93.121437 108.749927 
L 91.07513 109.309059 
" style="fill:none;opacity:0.5;stroke:#800080;stroke-linecap:round;stroke-width:2;"/>
   </g>
   <g id="patch_53">
    <path d="M 124.392576 64.652291 
Q 124.392576 64.652291 124.392576 64.652291 
" style="fill:none;opacity:0.5;stroke:#008000;stroke-linecap:round;stroke-width:2;"/>
   </g>
   <g id="patch_54">
    <path d="M 116.889349 50.241871 
Q 123.931591 63.76694 130.973833 77.292008 
" style="fill:none;opacity:0.5;stroke:#800080;stroke-linecap:round;stroke-width:2;"/>
    <path d="M 116.251637 52.265068 
L 116.889349 50.241871 
L 118.912545 50.879584 
" style="fill:none;opacity:0.5;stroke:#800080;stroke-linecap:round;stroke-width:2;"/>
    <path d="M 131.611545 75.268812 
L 130.973833 77.292008 
L 128.950637 76.654295 
" style="fill:none;opacity:0.5;stroke:#800080;stroke-linecap:round;stroke-width:2;"/>
   </g>
   <g id="patch_55">
    <path d="M 124.392576 64.652291 
Q 159.416903 55.614915 194.441231 46.57754 
" style="fill:none;opacity:0.5;stroke:#008000;stroke-linecap:round;stroke-width:2;"/>
   </g>
   <g id="patch_56">
    <path d="M 116.889349 50.241871 
Q 123.931591 63.76694 130.973833 77.292008 
" style="fill:none;opacity:0.5;stroke:#800080;stroke-linecap:round;stroke-width:2;"/>
    <path d="M 116.251637 52.265068 
L 116.889349 50.241871 
L 118.912545 50.879584 
" style="fill:none;opacity:0.5;stroke:#800080;stroke-linecap:round;stroke-width:2;"/>
    <path d="M 131.611545 75.268812 
L 130.973833 77.292008 
L 128.950637 76.654295 
" style="fill:none;opacity:0.5;stroke:#800080;stroke-linecap:round;stroke-width:2;"/>
   </g>
   <g id="patch_57">
    <path d="M 194.441231 46.57754 
Q 220.349637 62.54357 246.258043 78.509599 
" style="fill:none;opacity:0.5;stroke:#008000;stroke-linecap:round;stroke-width:2;"/>
   </g>
   <g id="patch_58">
    <path d="M 191.358862 31.094768 
Q 194.245674 45.595255 197.132486 60.095743 
" style="fill:none;opacity:0.5;stroke:#800080;stroke-linecap:round;stroke-width:2;"/>
    <path d="M 190.18061 32.858776 
L 191.358862 31.094768 
L 193.122869 32.273019 
" style="fill:none;opacity:0.5;stroke:#800080;stroke-linecap:round;stroke-width:2;"/>
    <path d="M 198.310737 58.331735 
L 197.132486 60.095743 
L 195.368478 58.917491 
" style="fill:none;opacity:0.5;stroke:#800080;stroke-linecap:round;stroke-width:2;"/>
   </g>
   <g id="line2d_1">
    <path clip-path="url(#p20c0ddf9fa)" d="M 250.576111 65.857274 
L 425.217962 285.164243 
L 377.239431 304.443976 
L 106.64052 136.951291 
L 64.419413 92.366908 
L 116.236226 48.987507 
L 191.082733 29.707774 
" style="fill:none;stroke:#ff0000;stroke-linecap:square;stroke-width:0.2;"/>
   </g>
   <g id="line2d_2">
    <path clip-path="url(#p20c0ddf9fa)" d="M 241.939976 91.161924 
L 393.552132 285.164243 
L 353.250166 299.624043 
L 128.710644 146.591158 
L 96.085243 110.441658 
L 132.548926 80.317074 
L 197.799728 63.447307 
" style="fill:none;stroke:#0000ff;stroke-linecap:square;stroke-width:0.2;"/>
   </g>
  </g>
 </g>
 <defs>
  <clipPath id="p20c0ddf9fa">
   <rect height="307.51175" width="405.322625" x="42.157375" y="13.32"/>
  </clipPath>
 </defs>
</svg>
