<?xml version="1.0" encoding="utf-8" standalone="no"?>
<!DOCTYPE svg PUBLIC "-//W3C//DTD SVG 1.1//EN"
  "http://www.w3.org/Graphics/SVG/1.1/DTD/svg11.dtd">
<!-- Created with matplotlib (http://matplotlib.org/) -->
<svg height="345.6pt" version="1.1" viewBox="0 0 460.8 345.6" width="460.8pt" xmlns="http://www.w3.org/2000/svg" xmlns:xlink="http://www.w3.org/1999/xlink">
 <defs>
  <style type="text/css">
*{stroke-linecap:butt;stroke-linejoin:round;}
  </style>
 </defs>
 <g id="figure_1">
  <g id="patch_1">
   <path d="M 0 345.6 
L 460.8 345.6 
L 460.8 0 
L 0 0 
z
" style="fill:#ffffff;"/>
  </g>
  <g id="axes_1">
   <g id="patch_2">
    <path clip-path="url(#pe8298a0479)" d="M 58.104743 29.960246 
C 58.60767 29.960246 59.090066 29.819981 59.44569 29.570341 
C 59.801313 29.320701 60.001128 28.98207 60.001128 28.629027 
C 60.001128 28.275983 59.801313 27.937352 59.44569 27.687712 
C 59.090066 27.438073 58.60767 27.297807 58.104743 27.297807 
C 57.601816 27.297807 57.119419 27.438073 56.763796 27.687712 
C 56.408173 27.937352 56.208358 28.275983 56.208358 28.629027 
C 56.208358 28.98207 56.408173 29.320701 56.763796 29.570341 
C 57.119419 29.819981 57.601816 29.960246 58.104743 29.960246 
z
" style="fill:#ff0000;opacity:0.2;stroke:#ff0000;stroke-linejoin:miter;stroke-width:2;"/>
   </g>
   <g id="patch_3">
    <path clip-path="url(#pe8298a0479)" d="M 426.951632 148.438799 
C 427.454559 148.438799 427.936956 148.298534 428.292579 148.048894 
C 428.648202 147.799255 428.848017 147.460623 428.848017 147.10758 
C 428.848017 146.754536 428.648202 146.415905 428.292579 146.166265 
C 427.936956 145.916626 427.454559 145.77636 426.951632 145.77636 
C 426.448705 145.77636 425.966309 145.916626 425.610685 146.166265 
C 425.255062 146.415905 425.055247 146.754536 425.055247 147.10758 
C 425.055247 147.460623 425.255062 147.799255 425.610685 148.048894 
C 425.966309 148.298534 426.448705 148.438799 426.951632 148.438799 
z
" style="fill:#ff0000;opacity:0.2;stroke:#ff0000;stroke-linejoin:miter;stroke-width:2;"/>
   </g>
   <g id="patch_4">
    <path clip-path="url(#pe8298a0479)" d="M 426.951632 187.70978 
C 427.454559 187.70978 427.936956 187.569515 428.292579 187.319875 
C 428.648202 187.070236 428.848017 186.731604 428.848017 186.378561 
C 428.848017 186.025517 428.648202 185.686886 428.292579 185.437246 
C 427.936956 185.187607 427.454559 185.047341 426.951632 185.047341 
C 426.448705 185.047341 425.966309 185.187607 425.610685 185.437246 
C 425.255062 185.686886 425.055247 186.025517 425.055247 186.378561 
C 425.055247 186.731604 425.255062 187.070236 425.610685 187.319875 
C 425.966309 187.569515 426.448705 187.70978 426.951632 187.70978 
z
" style="fill:#ff0000;opacity:0.2;stroke:#ff0000;stroke-linejoin:miter;stroke-width:2;"/>
   </g>
   <g id="patch_5">
    <path clip-path="url(#pe8298a0479)" d="M 58.104743 305.522723 
C 58.60767 305.522723 59.090066 305.382458 59.44569 305.132818 
C 59.801313 304.883179 60.001128 304.544547 60.001128 304.191504 
C 60.001128 303.83846 59.801313 303.499829 59.44569 303.250189 
C 59.090066 303.00055 58.60767 302.860284 58.104743 302.860284 
C 57.601816 302.860284 57.119419 303.00055 56.763796 303.250189 
C 56.408173 303.499829 56.208358 303.83846 56.208358 304.191504 
C 56.208358 304.544547 56.408173 304.883179 56.763796 305.132818 
C 57.119419 305.382458 57.601816 305.522723 58.104743 305.522723 
z
" style="fill:#ff0000;opacity:0.2;stroke:#ff0000;stroke-linejoin:miter;stroke-width:2;"/>
   </g>
   <g id="patch_6">
    <path clip-path="url(#pe8298a0479)" d="M 58.104743 250.942716 
C 58.60767 250.942716 59.090066 250.80245 59.44569 250.552811 
C 59.801313 250.303171 60.001128 249.96454 60.001128 249.611496 
C 60.001128 249.258453 59.801313 248.919821 59.44569 248.670182 
C 59.090066 248.420542 58.60767 248.280277 58.104743 248.280277 
C 57.601816 248.280277 57.119419 248.420542 56.763796 248.670182 
C 56.408173 248.919821 56.208358 249.258453 56.208358 249.611496 
C 56.208358 249.96454 56.408173 250.303171 56.763796 250.552811 
C 57.119419 250.80245 57.601816 250.942716 58.104743 250.942716 
z
" style="fill:#ff0000;opacity:0.2;stroke:#ff0000;stroke-linejoin:miter;stroke-width:2;"/>
   </g>
   <g id="patch_7">
    <path clip-path="url(#pe8298a0479)" d="M 329.287803 168.407095 
C 329.79073 168.407095 330.273126 168.266829 330.62875 168.017189 
C 330.984373 167.76755 331.184188 167.428919 331.184188 167.075875 
C 331.184188 166.722831 330.984373 166.3842 330.62875 166.134561 
C 330.273126 165.884921 329.79073 165.744655 329.287803 165.744655 
C 328.784876 165.744655 328.302479 165.884921 327.946856 166.134561 
C 327.591233 166.3842 327.391418 166.722831 327.391418 167.075875 
C 327.391418 167.428919 327.591233 167.76755 327.946856 168.017189 
C 328.302479 168.266829 328.784876 168.407095 329.287803 168.407095 
z
" style="fill:#ff0000;opacity:0.2;stroke:#ff0000;stroke-linejoin:miter;stroke-width:2;"/>
   </g>
   <g id="patch_8">
    <path clip-path="url(#pe8298a0479)" d="M 329.287803 167.075875 
C 329.79073 167.075875 330.273126 166.935609 330.62875 166.68597 
C 330.984373 166.43633 331.184188 166.097699 331.184188 165.744655 
C 331.184188 165.391612 330.984373 165.05298 330.62875 164.803341 
C 330.273126 164.553701 329.79073 164.413436 329.287803 164.413436 
C 328.784876 164.413436 328.302479 164.553701 327.946856 164.803341 
C 327.591233 165.05298 327.391418 165.391612 327.391418 165.744655 
C 327.391418 166.097699 327.591233 166.43633 327.946856 166.68597 
C 328.302479 166.935609 328.784876 167.075875 329.287803 167.075875 
z
" style="fill:#ff0000;opacity:0.2;stroke:#ff0000;stroke-linejoin:miter;stroke-width:2;"/>
   </g>
   <g id="patch_9">
    <path clip-path="url(#pe8298a0479)" d="M 58.104743 85.205864 
C 58.60767 85.205864 59.090066 85.065598 59.44569 84.815958 
C 59.801313 84.566319 60.001128 84.227688 60.001128 83.874644 
C 60.001128 83.5216 59.801313 83.182969 59.44569 82.933329 
C 59.090066 82.68369 58.60767 82.543424 58.104743 82.543424 
C 57.601816 82.543424 57.119419 82.68369 56.763796 82.933329 
C 56.408173 83.182969 56.208358 83.5216 56.208358 83.874644 
C 56.208358 84.227688 56.408173 84.566319 56.763796 84.815958 
C 57.119419 85.065598 57.601816 85.205864 58.104743 85.205864 
z
" style="fill:#ff0000;opacity:0.2;stroke:#ff0000;stroke-linejoin:miter;stroke-width:2;"/>
   </g>
   <g id="patch_10">
    <path clip-path="url(#pe8298a0479)" d="M 58.104743 31.291466 
C 58.60767 31.291466 59.090066 31.1512 59.44569 30.901561 
C 59.801313 30.651921 60.001128 30.31329 60.001128 29.960246 
C 60.001128 29.607203 59.801313 29.268571 59.44569 29.018932 
C 59.090066 28.769292 58.60767 28.629027 58.104743 28.629027 
C 57.601816 28.629027 57.119419 28.769292 56.763796 29.018932 
C 56.408173 29.268571 56.208358 29.607203 56.208358 29.960246 
C 56.208358 30.31329 56.408173 30.651921 56.763796 30.901561 
C 57.119419 31.1512 57.601816 31.291466 58.104743 31.291466 
z
" style="fill:#0000ff;opacity:0.2;stroke:#0000ff;stroke-linejoin:miter;stroke-width:2;"/>
   </g>
   <g id="patch_11">
    <path clip-path="url(#pe8298a0479)" d="M 426.951632 154.429288 
C 427.454559 154.429288 427.936956 154.289022 428.292579 154.039383 
C 428.648202 153.789743 428.848017 153.451112 428.848017 153.098068 
C 428.848017 152.745025 428.648202 152.406393 428.292579 152.156754 
C 427.936956 151.907114 427.454559 151.766848 426.951632 151.766848 
C 426.448705 151.766848 425.966309 151.907114 425.610685 152.156754 
C 425.255062 152.406393 425.055247 152.745025 425.055247 153.098068 
C 425.055247 153.451112 425.255062 153.789743 425.610685 154.039383 
C 425.966309 154.289022 426.448705 154.429288 426.951632 154.429288 
z
" style="fill:#0000ff;opacity:0.2;stroke:#0000ff;stroke-linejoin:miter;stroke-width:2;"/>
   </g>
   <g id="patch_12">
    <path clip-path="url(#pe8298a0479)" d="M 426.951632 184.381731 
C 427.454559 184.381731 427.936956 184.241465 428.292579 183.991826 
C 428.648202 183.742186 428.848017 183.403555 428.848017 183.050511 
C 428.848017 182.697468 428.648202 182.358836 428.292579 182.109197 
C 427.936956 181.859557 427.454559 181.719292 426.951632 181.719292 
C 426.448705 181.719292 425.966309 181.859557 425.610685 182.109197 
C 425.255062 182.358836 425.055247 182.697468 425.055247 183.050511 
C 425.055247 183.403555 425.255062 183.742186 425.610685 183.991826 
C 425.966309 184.241465 426.448705 184.381731 426.951632 184.381731 
z
" style="fill:#0000ff;opacity:0.2;stroke:#0000ff;stroke-linejoin:miter;stroke-width:2;"/>
   </g>
   <g id="patch_13">
    <path clip-path="url(#pe8298a0479)" d="M 58.104743 306.853943 
C 58.60767 306.853943 59.090066 306.713677 59.44569 306.464038 
C 59.801313 306.214398 60.001128 305.875767 60.001128 305.522723 
C 60.001128 305.16968 59.801313 304.831049 59.44569 304.581409 
C 59.090066 304.331769 58.60767 304.191504 58.104743 304.191504 
C 57.601816 304.191504 57.119419 304.331769 56.763796 304.581409 
C 56.408173 304.831049 56.208358 305.16968 56.208358 305.522723 
C 56.208358 305.875767 56.408173 306.214398 56.763796 306.464038 
C 57.119419 306.713677 57.601816 306.853943 58.104743 306.853943 
z
" style="fill:#0000ff;opacity:0.2;stroke:#0000ff;stroke-linejoin:miter;stroke-width:2;"/>
   </g>
   <g id="patch_14">
    <path clip-path="url(#pe8298a0479)" d="M 58.104743 268.914182 
C 58.60767 268.914182 59.090066 268.773916 59.44569 268.524277 
C 59.801313 268.274637 60.001128 267.936006 60.001128 267.582962 
C 60.001128 267.229919 59.801313 266.891287 59.44569 266.641648 
C 59.090066 266.392008 58.60767 266.251742 58.104743 266.251742 
C 57.601816 266.251742 57.119419 266.392008 56.763796 266.641648 
C 56.408173 266.891287 56.208358 267.229919 56.208358 267.582962 
C 56.208358 267.936006 56.408173 268.274637 56.763796 268.524277 
C 57.119419 268.773916 57.601816 268.914182 58.104743 268.914182 
z
" style="fill:#0000ff;opacity:0.2;stroke:#0000ff;stroke-linejoin:miter;stroke-width:2;"/>
   </g>
   <g id="patch_15">
    <path clip-path="url(#pe8298a0479)" d="M 358.681771 169.738314 
C 359.184698 169.738314 359.667094 169.598049 360.022718 169.348409 
C 360.378341 169.09877 360.578156 168.760138 360.578156 168.407095 
C 360.578156 168.054051 360.378341 167.71542 360.022718 167.46578 
C 359.667094 167.216141 359.184698 167.075875 358.681771 167.075875 
C 358.178844 167.075875 357.696447 167.216141 357.340824 167.46578 
C 356.985201 167.71542 356.785386 168.054051 356.785386 168.407095 
C 356.785386 168.760138 356.985201 169.09877 357.340824 169.348409 
C 357.696447 169.598049 358.178844 169.738314 358.681771 169.738314 
z
" style="fill:#0000ff;opacity:0.2;stroke:#0000ff;stroke-linejoin:miter;stroke-width:2;"/>
   </g>
   <g id="patch_16">
    <path clip-path="url(#pe8298a0479)" d="M 358.681771 168.407095 
C 359.184698 168.407095 359.667094 168.266829 360.022718 168.017189 
C 360.378341 167.76755 360.578156 167.428919 360.578156 167.075875 
C 360.578156 166.722831 360.378341 166.3842 360.022718 166.134561 
C 359.667094 165.884921 359.184698 165.744655 358.681771 165.744655 
C 358.178844 165.744655 357.696447 165.884921 357.340824 166.134561 
C 356.985201 166.3842 356.785386 166.722831 356.785386 167.075875 
C 356.785386 167.428919 356.985201 167.76755 357.340824 168.017189 
C 357.696447 168.266829 358.178844 168.407095 358.681771 168.407095 
z
" style="fill:#0000ff;opacity:0.2;stroke:#0000ff;stroke-linejoin:miter;stroke-width:2;"/>
   </g>
   <g id="patch_17">
    <path clip-path="url(#pe8298a0479)" d="M 58.104743 69.896837 
C 58.60767 69.896837 59.090066 69.756571 59.44569 69.506932 
C 59.801313 69.257292 60.001128 68.918661 60.001128 68.565617 
C 60.001128 68.212574 59.801313 67.873942 59.44569 67.624303 
C 59.090066 67.374663 58.60767 67.234398 58.104743 67.234398 
C 57.601816 67.234398 57.119419 67.374663 56.763796 67.624303 
C 56.408173 67.873942 56.208358 68.212574 56.208358 68.565617 
C 56.208358 68.918661 56.408173 69.257292 56.763796 69.506932 
C 57.119419 69.756571 57.601816 69.896837 58.104743 69.896837 
z
" style="fill:#0000ff;opacity:0.2;stroke:#0000ff;stroke-linejoin:miter;stroke-width:2;"/>
   </g>
   <g id="patch_18">
    <path clip-path="url(#pe8298a0479)" d="M 58.104743 28.629027 
L 426.951632 147.10758 
L 426.951632 186.378561 
L 58.104743 304.191504 
L 58.104743 249.611496 
L 329.287803 167.075875 
L 329.287803 165.744655 
L 58.104743 83.874644 
L 58.104743 28.629027 
" style="fill:none;stroke:#ff0000;stroke-linejoin:miter;stroke-width:0.5;"/>
   </g>
   <g id="patch_19">
    <path clip-path="url(#pe8298a0479)" d="M 58.104743 29.960246 
L 426.951632 153.098068 
L 426.951632 183.050511 
L 58.104743 305.522723 
L 58.104743 267.582962 
L 358.681771 168.407095 
L 358.681771 167.075875 
L 58.104743 68.565617 
L 58.104743 29.960246 
" style="fill:none;stroke:#0000ff;stroke-linejoin:miter;stroke-width:0.5;"/>
   </g>
   <g id="[&quot;g_s&quot;:1,&quot;g_t&quot;:1,&quot;coords&quot;:[[116.0, -286.0],[116.0, -288.0]],&quot;certainty&quot;:10]">
    <path clip-path="url(#pe8298a0479)" d="M 58.104743 32.289881 
C 59.487793 32.289881 60.814383 31.90415 61.792346 31.217641 
C 62.77031 30.531133 63.319802 29.599896 63.319802 28.629027 
C 63.319802 27.658157 62.77031 26.72692 61.792346 26.040412 
C 60.814383 25.353903 59.487793 24.968172 58.104743 24.968172 
C 56.721693 24.968172 55.395103 25.353903 54.41714 26.040412 
C 53.439176 26.72692 52.889684 27.658157 52.889684 28.629027 
C 52.889684 29.599896 53.439176 30.531133 54.41714 31.217641 
C 55.395103 31.90415 56.721693 32.289881 58.104743 32.289881 
z
" style="fill:#0000ff;opacity:0.2;stroke:#0000ff;stroke-linejoin:miter;stroke-width:2;"/>
   </g>
   <g id="[&quot;g_s&quot;:1,&quot;g_t&quot;:1,&quot;coords&quot;:[[116.0, -288.0],[116.0, -286.0]],&quot;certainty&quot;:10]">
    <path clip-path="url(#pe8298a0479)" d="M 58.104743 33.6211 
C 59.487793 33.6211 60.814383 33.23537 61.792346 32.548861 
C 62.77031 31.862352 63.319802 30.931116 63.319802 29.960246 
C 63.319802 28.989376 62.77031 28.05814 61.792346 27.371631 
C 60.814383 26.685123 59.487793 26.299392 58.104743 26.299392 
C 56.721693 26.299392 55.395103 26.685123 54.41714 27.371631 
C 53.439176 28.05814 52.889684 28.989376 52.889684 29.960246 
C 52.889684 30.931116 53.439176 31.862352 54.41714 32.548861 
C 55.395103 33.23537 56.721693 33.6211 58.104743 33.6211 
z
" style="fill:#ff0000;opacity:0.2;stroke:#ff0000;stroke-linejoin:miter;stroke-width:2;"/>
   </g>
   <g id="patch_20">
    <path d="M 58.104743 28.629027 
Q 58.104743 29.294636 58.104743 28.015703 
" style="fill:none;opacity:0.5;stroke:#0000ff;stroke-linecap:round;stroke-width:2.75;"/>
    <path d="M 59.604743 26.515703 
L 58.104743 28.015703 
L 56.604743 26.515703 
" style="fill:none;opacity:0.5;stroke:#0000ff;stroke-linecap:round;stroke-width:2.75;"/>
   </g>
   <g id="[&quot;g_s&quot;:2,&quot;g_t&quot;:2,&quot;coords&quot;:[[505.0, -464.0],[505.0, -473.0]],&quot;certainty&quot;:9]">
    <path clip-path="url(#pe8298a0479)" d="M 426.951632 150.435629 
C 428.20895 150.435629 429.414941 150.084965 430.303999 149.460866 
C 431.193057 148.836767 431.692595 147.990189 431.692595 147.10758 
C 431.692595 146.224971 431.193057 145.378392 430.303999 144.754293 
C 429.414941 144.130195 428.20895 143.77953 426.951632 143.77953 
C 425.694314 143.77953 424.488323 144.130195 423.599265 144.754293 
C 422.710207 145.378392 422.210669 146.224971 422.210669 147.10758 
C 422.210669 147.990189 422.710207 148.836767 423.599265 149.460866 
C 424.488323 150.084965 425.694314 150.435629 426.951632 150.435629 
z
" style="fill:#0000ff;opacity:0.2;stroke:#0000ff;stroke-linejoin:miter;stroke-width:2;"/>
   </g>
   <g id="[&quot;g_s&quot;:2,&quot;g_t&quot;:2,&quot;coords&quot;:[[505.0, -473.0],[505.0, -464.0]],&quot;certainty&quot;:9]">
    <path clip-path="url(#pe8298a0479)" d="M 426.951632 156.426117 
C 428.20895 156.426117 429.414941 156.075453 430.303999 155.451354 
C 431.193057 154.827256 431.692595 153.980677 431.692595 153.098068 
C 431.692595 152.215459 431.193057 151.368881 430.303999 150.744782 
C 429.414941 150.120683 428.20895 149.770019 426.951632 149.770019 
C 425.694314 149.770019 424.488323 150.120683 423.599265 150.744782 
C 422.710207 151.368881 422.210669 152.215459 422.210669 153.098068 
C 422.210669 153.980677 422.710207 154.827256 423.599265 155.451354 
C 424.488323 156.075453 425.694314 156.426117 426.951632 156.426117 
z
" style="fill:#ff0000;opacity:0.2;stroke:#ff0000;stroke-linejoin:miter;stroke-width:2;"/>
   </g>
   <g id="patch_21">
    <path d="M 426.951632 147.10758 
Q 426.951632 149.103922 426.951632 149.332497 
" style="fill:none;opacity:0.5;stroke:#0000ff;stroke-linecap:round;stroke-width:2.5;"/>
    <path d="M 428.451632 147.832497 
L 426.951632 149.332497 
L 425.451632 147.832497 
" style="fill:none;opacity:0.5;stroke:#0000ff;stroke-linecap:round;stroke-width:2.5;"/>
   </g>
   <g id="[&quot;g_s&quot;:3,&quot;g_t&quot;:3,&quot;coords&quot;:[[505.0, -523.0],[505.0, -518.0]],&quot;certainty&quot;:11]">
    <path clip-path="url(#pe8298a0479)" d="M 426.951632 190.37222 
C 428.460414 190.37222 429.907602 189.951423 430.974472 189.202504 
C 432.041342 188.453585 432.640787 187.437691 432.640787 186.378561 
C 432.640787 185.31943 432.041342 184.303536 430.974472 183.554617 
C 429.907602 182.805699 428.460414 182.384902 426.951632 182.384902 
C 425.44285 182.384902 423.995662 182.805699 422.928792 183.554617 
C 421.861922 184.303536 421.262477 185.31943 421.262477 186.378561 
C 421.262477 187.437691 421.861922 188.453585 422.928792 189.202504 
C 423.995662 189.951423 425.44285 190.37222 426.951632 190.37222 
z
" style="fill:#0000ff;opacity:0.2;stroke:#0000ff;stroke-linejoin:miter;stroke-width:2;"/>
   </g>
   <g id="[&quot;g_s&quot;:3,&quot;g_t&quot;:3,&quot;coords&quot;:[[505.0, -518.0],[505.0, -523.0]],&quot;certainty&quot;:11]">
    <path clip-path="url(#pe8298a0479)" d="M 426.951632 187.04417 
C 428.460414 187.04417 429.907602 186.623373 430.974472 185.874455 
C 432.041342 185.125536 432.640787 184.109642 432.640787 183.050511 
C 432.640787 181.991381 432.041342 180.975486 430.974472 180.226568 
C 429.907602 179.477649 428.460414 179.056852 426.951632 179.056852 
C 425.44285 179.056852 423.995662 179.477649 422.928792 180.226568 
C 421.861922 180.975486 421.262477 181.991381 421.262477 183.050511 
C 421.262477 184.109642 421.861922 185.125536 422.928792 185.874455 
C 423.995662 186.623373 425.44285 187.04417 426.951632 187.04417 
z
" style="fill:#ff0000;opacity:0.2;stroke:#ff0000;stroke-linejoin:miter;stroke-width:2;"/>
   </g>
   <g id="patch_22">
    <path d="M 426.951632 186.378561 
Q 426.951632 185.713926 426.951632 187.170611 
" style="fill:none;opacity:0.5;stroke:#0000ff;stroke-linecap:round;stroke-width:3;"/>
    <path d="M 425.451632 188.670611 
L 426.951632 187.170611 
L 428.451632 188.670611 
" style="fill:none;opacity:0.5;stroke:#0000ff;stroke-linecap:round;stroke-width:3;"/>
   </g>
   <g id="[&quot;g_s&quot;:4,&quot;g_t&quot;:4,&quot;coords&quot;:[[116.0, -700.0],[116.0, -702.0]],&quot;certainty&quot;:11]">
    <path clip-path="url(#pe8298a0479)" d="M 58.104743 308.185163 
C 59.613525 308.185163 61.060713 307.764366 62.127583 307.015447 
C 63.194453 306.266529 63.793898 305.250635 63.793898 304.191504 
C 63.793898 303.132373 63.194453 302.116479 62.127583 301.36756 
C 61.060713 300.618642 59.613525 300.197845 58.104743 300.197845 
C 56.595961 300.197845 55.148773 300.618642 54.081903 301.36756 
C 53.015033 302.116479 52.415588 303.132373 52.415588 304.191504 
C 52.415588 305.250635 53.015033 306.266529 54.081903 307.015447 
C 55.148773 307.764366 56.595961 308.185163 58.104743 308.185163 
z
" style="fill:#0000ff;opacity:0.2;stroke:#0000ff;stroke-linejoin:miter;stroke-width:2;"/>
   </g>
   <g id="[&quot;g_s&quot;:4,&quot;g_t&quot;:4,&quot;coords&quot;:[[116.0, -702.0],[116.0, -700.0]],&quot;certainty&quot;:11]">
    <path clip-path="url(#pe8298a0479)" d="M 58.104743 309.516383 
C 59.613525 309.516383 61.060713 309.095585 62.127583 308.346667 
C 63.194453 307.597748 63.793898 306.581854 63.793898 305.522723 
C 63.793898 304.463593 63.194453 303.447699 62.127583 302.69878 
C 61.060713 301.949862 59.613525 301.529064 58.104743 301.529064 
C 56.595961 301.529064 55.148773 301.949862 54.081903 302.69878 
C 53.015033 303.447699 52.415588 304.463593 52.415588 305.522723 
C 52.415588 306.581854 53.015033 307.597748 54.081903 308.346667 
C 55.148773 309.095585 56.595961 309.516383 58.104743 309.516383 
z
" style="fill:#ff0000;opacity:0.2;stroke:#ff0000;stroke-linejoin:miter;stroke-width:2;"/>
   </g>
   <g id="patch_23">
    <path d="M 58.104743 304.191504 
Q 58.104743 304.857114 58.104743 303.401403 
" style="fill:none;opacity:0.5;stroke:#0000ff;stroke-linecap:round;stroke-width:3;"/>
    <path d="M 59.604743 301.901403 
L 58.104743 303.401403 
L 56.604743 301.901403 
" style="fill:none;opacity:0.5;stroke:#0000ff;stroke-linecap:round;stroke-width:3;"/>
   </g>
   <g id="[&quot;g_s&quot;:5,&quot;g_t&quot;:5,&quot;coords&quot;:[[116.0, -618.0],[116.0, -645.0]],&quot;certainty&quot;:11]">
    <path clip-path="url(#pe8298a0479)" d="M 58.104743 253.605155 
C 59.613525 253.605155 61.060713 253.184358 62.127583 252.43544 
C 63.194453 251.686521 63.793898 250.670627 63.793898 249.611496 
C 63.793898 248.552365 63.194453 247.536471 62.127583 246.787553 
C 61.060713 246.038634 59.613525 245.617837 58.104743 245.617837 
C 56.595961 245.617837 55.148773 246.038634 54.081903 246.787553 
C 53.015033 247.536471 52.415588 248.552365 52.415588 249.611496 
C 52.415588 250.670627 53.015033 251.686521 54.081903 252.43544 
C 55.148773 253.184358 56.595961 253.605155 58.104743 253.605155 
z
" style="fill:#0000ff;opacity:0.2;stroke:#0000ff;stroke-linejoin:miter;stroke-width:2;"/>
   </g>
   <g id="[&quot;g_s&quot;:5,&quot;g_t&quot;:5,&quot;coords&quot;:[[116.0, -645.0],[116.0, -618.0]],&quot;certainty&quot;:11]">
    <path clip-path="url(#pe8298a0479)" d="M 58.104743 271.576621 
C 59.613525 271.576621 61.060713 271.155824 62.127583 270.406906 
C 63.194453 269.657987 63.793898 268.642093 63.793898 267.582962 
C 63.793898 266.523831 63.194453 265.507937 62.127583 264.759019 
C 61.060713 264.0101 59.613525 263.589303 58.104743 263.589303 
C 56.595961 263.589303 55.148773 264.0101 54.081903 264.759019 
C 53.015033 265.507937 52.415588 266.523831 52.415588 267.582962 
C 52.415588 268.642093 53.015033 269.657987 54.081903 270.406906 
C 55.148773 271.155824 56.595961 271.576621 58.104743 271.576621 
z
" style="fill:#ff0000;opacity:0.2;stroke:#ff0000;stroke-linejoin:miter;stroke-width:2;"/>
   </g>
   <g id="patch_24">
    <path d="M 58.104743 249.611496 
Q 58.104743 257.599058 58.104743 263.4653 
" style="fill:none;opacity:0.5;stroke:#0000ff;stroke-linecap:round;stroke-width:3;"/>
    <path d="M 59.604743 261.9653 
L 58.104743 263.4653 
L 56.604743 261.9653 
" style="fill:none;opacity:0.5;stroke:#0000ff;stroke-linecap:round;stroke-width:3;"/>
   </g>
   <g id="[&quot;g_s&quot;:6,&quot;g_t&quot;:6,&quot;coords&quot;:[[402.0, -494.0],[433.0, -496.0]],&quot;certainty&quot;:1]">
    <path clip-path="url(#pe8298a0479)" d="M 329.287803 167.741485 
C 329.539266 167.741485 329.780465 167.671352 329.958276 167.546532 
C 330.136088 167.421712 330.235995 167.252397 330.235995 167.075875 
C 330.235995 166.899353 330.136088 166.730038 329.958276 166.605218 
C 329.780465 166.480398 329.539266 166.410265 329.287803 166.410265 
C 329.036339 166.410265 328.795141 166.480398 328.617329 166.605218 
C 328.439518 166.730038 328.33961 166.899353 328.33961 167.075875 
C 328.33961 167.252397 328.439518 167.421712 328.617329 167.546532 
C 328.795141 167.671352 329.036339 167.741485 329.287803 167.741485 
z
" style="fill:#0000ff;opacity:0.2;stroke:#0000ff;stroke-linejoin:miter;stroke-width:2;"/>
   </g>
   <g id="[&quot;g_s&quot;:6,&quot;g_t&quot;:6,&quot;coords&quot;:[[433.0, -496.0],[402.0, -494.0]],&quot;certainty&quot;:1]">
    <path clip-path="url(#pe8298a0479)" d="M 358.681771 169.072705 
C 358.933234 169.072705 359.174433 169.002572 359.352244 168.877752 
C 359.530056 168.752932 359.629963 168.583616 359.629963 168.407095 
C 359.629963 168.230573 359.530056 168.061257 359.352244 167.936437 
C 359.174433 167.811618 358.933234 167.741485 358.681771 167.741485 
C 358.430307 167.741485 358.189109 167.811618 358.011297 167.936437 
C 357.833486 168.061257 357.733578 168.230573 357.733578 168.407095 
C 357.733578 168.583616 357.833486 168.752932 358.011297 168.877752 
C 358.189109 169.002572 358.430307 169.072705 358.681771 169.072705 
z
" style="fill:#ff0000;opacity:0.2;stroke:#ff0000;stroke-linejoin:miter;stroke-width:2;"/>
   </g>
   <g id="patch_25">
    <path d="M 329.287803 167.075875 
Q 342.985492 167.696228 356.329991 168.300585 
" style="fill:none;opacity:0.5;stroke:#0000ff;stroke-linecap:round;stroke-width:0.5;"/>
    <path d="M 354.89939 166.734257 
L 356.329991 168.300585 
L 354.763663 169.731186 
" style="fill:none;opacity:0.5;stroke:#0000ff;stroke-linecap:round;stroke-width:0.5;"/>
   </g>
   <g id="[&quot;g_s&quot;:7,&quot;g_t&quot;:7,&quot;coords&quot;:[[402.0, -492.0],[433.0, -494.0]],&quot;certainty&quot;:12]">
    <path clip-path="url(#pe8298a0479)" d="M 329.287803 170.071119 
C 330.922316 170.071119 332.490104 169.615256 333.64588 168.803927 
C 334.801655 167.992599 335.451054 166.892047 335.451054 165.744655 
C 335.451054 164.597264 334.801655 163.496712 333.64588 162.685383 
C 332.490104 161.874055 330.922316 161.418191 329.287803 161.418191 
C 327.653289 161.418191 326.085501 161.874055 324.929726 162.685383 
C 323.77395 163.496712 323.124551 164.597264 323.124551 165.744655 
C 323.124551 166.892047 323.77395 167.992599 324.929726 168.803927 
C 326.085501 169.615256 327.653289 170.071119 329.287803 170.071119 
z
" style="fill:#0000ff;opacity:0.2;stroke:#0000ff;stroke-linejoin:miter;stroke-width:2;"/>
   </g>
   <g id="[&quot;g_s&quot;:7,&quot;g_t&quot;:7,&quot;coords&quot;:[[433.0, -494.0],[402.0, -492.0]],&quot;certainty&quot;:12]">
    <path clip-path="url(#pe8298a0479)" d="M 358.681771 171.402339 
C 360.316284 171.402339 361.884072 170.946475 363.039848 170.135147 
C 364.195623 169.323819 364.845022 168.223267 364.845022 167.075875 
C 364.845022 165.928483 364.195623 164.827931 363.039848 164.016603 
C 361.884072 163.205275 360.316284 162.749411 358.681771 162.749411 
C 357.047257 162.749411 355.479469 163.205275 354.323694 164.016603 
C 353.167918 164.827931 352.518519 165.928483 352.518519 167.075875 
C 352.518519 168.223267 353.167918 169.323819 354.323694 170.135147 
C 355.479469 170.946475 357.047257 171.402339 358.681771 171.402339 
z
" style="fill:#ff0000;opacity:0.2;stroke:#ff0000;stroke-linejoin:miter;stroke-width:2;"/>
   </g>
   <g id="patch_26">
    <path d="M 329.287803 165.744655 
Q 342.985492 166.365008 354.387438 166.88139 
" style="fill:none;opacity:0.5;stroke:#0000ff;stroke-linecap:round;stroke-width:3.25;"/>
    <path d="M 352.956838 165.315062 
L 354.387438 166.88139 
L 352.82111 168.31199 
" style="fill:none;opacity:0.5;stroke:#0000ff;stroke-linecap:round;stroke-width:3.25;"/>
   </g>
   <g id="[&quot;g_s&quot;:8,&quot;g_t&quot;:8,&quot;coords&quot;:[[116.0, -369.0],[116.0, -346.0]],&quot;certainty&quot;:11]">
    <path clip-path="url(#pe8298a0479)" d="M 58.104743 87.868303 
C 59.613525 87.868303 61.060713 87.447506 62.127583 86.698587 
C 63.194453 85.949669 63.793898 84.933775 63.793898 83.874644 
C 63.793898 82.815513 63.194453 81.799619 62.127583 81.050701 
C 61.060713 80.301782 59.613525 79.880985 58.104743 79.880985 
C 56.595961 79.880985 55.148773 80.301782 54.081903 81.050701 
C 53.015033 81.799619 52.415588 82.815513 52.415588 83.874644 
C 52.415588 84.933775 53.015033 85.949669 54.081903 86.698587 
C 55.148773 87.447506 56.595961 87.868303 58.104743 87.868303 
z
" style="fill:#0000ff;opacity:0.2;stroke:#0000ff;stroke-linejoin:miter;stroke-width:2;"/>
   </g>
   <g id="[&quot;g_s&quot;:8,&quot;g_t&quot;:8,&quot;coords&quot;:[[116.0, -346.0],[116.0, -369.0]],&quot;certainty&quot;:11]">
    <path clip-path="url(#pe8298a0479)" d="M 58.104743 72.559277 
C 59.613525 72.559277 61.060713 72.138479 62.127583 71.389561 
C 63.194453 70.640642 63.793898 69.624748 63.793898 68.565617 
C 63.793898 67.506487 63.194453 66.490593 62.127583 65.741674 
C 61.060713 64.992755 59.613525 64.571958 58.104743 64.571958 
C 56.595961 64.571958 55.148773 64.992755 54.081903 65.741674 
C 53.015033 66.490593 52.415588 67.506487 52.415588 68.565617 
C 52.415588 69.624748 53.015033 70.640642 54.081903 71.389561 
C 55.148773 72.138479 56.595961 72.559277 58.104743 72.559277 
z
" style="fill:#ff0000;opacity:0.2;stroke:#ff0000;stroke-linejoin:miter;stroke-width:2;"/>
   </g>
   <g id="patch_27">
    <path d="M 58.104743 83.874644 
Q 58.104743 77.219927 58.104743 72.68653 
" style="fill:none;opacity:0.5;stroke:#0000ff;stroke-linecap:round;stroke-width:3;"/>
    <path d="M 56.604743 74.18653 
L 58.104743 72.68653 
L 59.604743 74.18653 
" style="fill:none;opacity:0.5;stroke:#0000ff;stroke-linecap:round;stroke-width:3;"/>
   </g>
   <g id="[&quot;g_s&quot;:1,&quot;g_t&quot;:1,&quot;coords&quot;:[[116.0, -288.0],[116.0, -286.0]],&quot;certainty&quot;:10]">
    <path clip-path="url(#pe8298a0479)" d="M 58.104743 33.6211 
C 59.487793 33.6211 60.814383 33.23537 61.792346 32.548861 
C 62.77031 31.862352 63.319802 30.931116 63.319802 29.960246 
C 63.319802 28.989376 62.77031 28.05814 61.792346 27.371631 
C 60.814383 26.685123 59.487793 26.299392 58.104743 26.299392 
C 56.721693 26.299392 55.395103 26.685123 54.41714 27.371631 
C 53.439176 28.05814 52.889684 28.989376 52.889684 29.960246 
C 52.889684 30.931116 53.439176 31.862352 54.41714 32.548861 
C 55.395103 33.23537 56.721693 33.6211 58.104743 33.6211 
z
" style="fill:#0000ff;opacity:0.2;stroke:#0000ff;stroke-linejoin:miter;stroke-width:2;"/>
   </g>
   <g id="[&quot;g_s&quot;:1,&quot;g_t&quot;:1,&quot;coords&quot;:[[116.0, -286.0],[116.0, -288.0]],&quot;certainty&quot;:10]">
    <path clip-path="url(#pe8298a0479)" d="M 58.104743 32.289881 
C 59.487793 32.289881 60.814383 31.90415 61.792346 31.217641 
C 62.77031 30.531133 63.319802 29.599896 63.319802 28.629027 
C 63.319802 27.658157 62.77031 26.72692 61.792346 26.040412 
C 60.814383 25.353903 59.487793 24.968172 58.104743 24.968172 
C 56.721693 24.968172 55.395103 25.353903 54.41714 26.040412 
C 53.439176 26.72692 52.889684 27.658157 52.889684 28.629027 
C 52.889684 29.599896 53.439176 30.531133 54.41714 31.217641 
C 55.395103 31.90415 56.721693 32.289881 58.104743 32.289881 
z
" style="fill:#ff0000;opacity:0.2;stroke:#ff0000;stroke-linejoin:miter;stroke-width:2;"/>
   </g>
   <g id="patch_28">
    <path d="M 58.104743 29.960246 
Q 58.104743 29.294636 58.104743 30.57357 
" style="fill:none;opacity:0.5;stroke:#ff0000;stroke-linecap:round;stroke-width:2.75;"/>
    <path d="M 56.604743 32.07357 
L 58.104743 30.57357 
L 59.604743 32.07357 
" style="fill:none;opacity:0.5;stroke:#ff0000;stroke-linecap:round;stroke-width:2.75;"/>
   </g>
   <g id="[&quot;g_s&quot;:2,&quot;g_t&quot;:2,&quot;coords&quot;:[[505.0, -473.0],[505.0, -464.0]],&quot;certainty&quot;:10]">
    <path clip-path="url(#pe8298a0479)" d="M 426.951632 156.758922 
C 428.334682 156.758922 429.661272 156.373192 430.639235 155.686683 
C 431.617199 155.000174 432.166691 154.068938 432.166691 153.098068 
C 432.166691 152.127198 431.617199 151.195962 430.639235 150.509453 
C 429.661272 149.822945 428.334682 149.437214 426.951632 149.437214 
C 425.568582 149.437214 424.241992 149.822945 423.264029 150.509453 
C 422.286065 151.195962 421.736573 152.127198 421.736573 153.098068 
C 421.736573 154.068938 422.286065 155.000174 423.264029 155.686683 
C 424.241992 156.373192 425.568582 156.758922 426.951632 156.758922 
z
" style="fill:#0000ff;opacity:0.2;stroke:#0000ff;stroke-linejoin:miter;stroke-width:2;"/>
   </g>
   <g id="[&quot;g_s&quot;:2,&quot;g_t&quot;:2,&quot;coords&quot;:[[505.0, -464.0],[505.0, -473.0]],&quot;certainty&quot;:10]">
    <path clip-path="url(#pe8298a0479)" d="M 426.951632 150.768434 
C 428.334682 150.768434 429.661272 150.382703 430.639235 149.696194 
C 431.617199 149.009686 432.166691 148.078449 432.166691 147.10758 
C 432.166691 146.13671 431.617199 145.205473 430.639235 144.518965 
C 429.661272 143.832456 428.334682 143.446725 426.951632 143.446725 
C 425.568582 143.446725 424.241992 143.832456 423.264029 144.518965 
C 422.286065 145.205473 421.736573 146.13671 421.736573 147.10758 
C 421.736573 148.078449 422.286065 149.009686 423.264029 149.696194 
C 424.241992 150.382703 425.568582 150.768434 426.951632 150.768434 
z
" style="fill:#ff0000;opacity:0.2;stroke:#ff0000;stroke-linejoin:miter;stroke-width:2;"/>
   </g>
   <g id="patch_29">
    <path d="M 426.951632 153.098068 
Q 426.951632 151.101726 426.951632 151.049928 
" style="fill:none;opacity:0.5;stroke:#ff0000;stroke-linecap:round;stroke-width:2.75;"/>
    <path d="M 425.451632 152.549928 
L 426.951632 151.049928 
L 428.451632 152.549928 
" style="fill:none;opacity:0.5;stroke:#ff0000;stroke-linecap:round;stroke-width:2.75;"/>
   </g>
   <g id="[&quot;g_s&quot;:3,&quot;g_t&quot;:3,&quot;coords&quot;:[[505.0, -518.0],[505.0, -523.0]],&quot;certainty&quot;:11]">
    <path clip-path="url(#pe8298a0479)" d="M 426.951632 187.04417 
C 428.460414 187.04417 429.907602 186.623373 430.974472 185.874455 
C 432.041342 185.125536 432.640787 184.109642 432.640787 183.050511 
C 432.640787 181.991381 432.041342 180.975486 430.974472 180.226568 
C 429.907602 179.477649 428.460414 179.056852 426.951632 179.056852 
C 425.44285 179.056852 423.995662 179.477649 422.928792 180.226568 
C 421.861922 180.975486 421.262477 181.991381 421.262477 183.050511 
C 421.262477 184.109642 421.861922 185.125536 422.928792 185.874455 
C 423.995662 186.623373 425.44285 187.04417 426.951632 187.04417 
z
" style="fill:#0000ff;opacity:0.2;stroke:#0000ff;stroke-linejoin:miter;stroke-width:2;"/>
   </g>
   <g id="[&quot;g_s&quot;:3,&quot;g_t&quot;:3,&quot;coords&quot;:[[505.0, -523.0],[505.0, -518.0]],&quot;certainty&quot;:11]">
    <path clip-path="url(#pe8298a0479)" d="M 426.951632 190.37222 
C 428.460414 190.37222 429.907602 189.951423 430.974472 189.202504 
C 432.041342 188.453585 432.640787 187.437691 432.640787 186.378561 
C 432.640787 185.31943 432.041342 184.303536 430.974472 183.554617 
C 429.907602 182.805699 428.460414 182.384902 426.951632 182.384902 
C 425.44285 182.384902 423.995662 182.805699 422.928792 183.554617 
C 421.861922 184.303536 421.262477 185.31943 421.262477 186.378561 
C 421.262477 187.437691 421.861922 188.453585 422.928792 189.202504 
C 423.995662 189.951423 425.44285 190.37222 426.951632 190.37222 
z
" style="fill:#ff0000;opacity:0.2;stroke:#ff0000;stroke-linejoin:miter;stroke-width:2;"/>
   </g>
   <g id="patch_30">
    <path d="M 426.951632 183.050511 
Q 426.951632 183.715146 426.951632 182.258461 
" style="fill:none;opacity:0.5;stroke:#ff0000;stroke-linecap:round;stroke-width:3;"/>
    <path d="M 428.451632 180.758461 
L 426.951632 182.258461 
L 425.451632 180.758461 
" style="fill:none;opacity:0.5;stroke:#ff0000;stroke-linecap:round;stroke-width:3;"/>
   </g>
   <g id="[&quot;g_s&quot;:4,&quot;g_t&quot;:4,&quot;coords&quot;:[[116.0, -702.0],[116.0, -700.0]],&quot;certainty&quot;:11]">
    <path clip-path="url(#pe8298a0479)" d="M 58.104743 309.516383 
C 59.613525 309.516383 61.060713 309.095585 62.127583 308.346667 
C 63.194453 307.597748 63.793898 306.581854 63.793898 305.522723 
C 63.793898 304.463593 63.194453 303.447699 62.127583 302.69878 
C 61.060713 301.949862 59.613525 301.529064 58.104743 301.529064 
C 56.595961 301.529064 55.148773 301.949862 54.081903 302.69878 
C 53.015033 303.447699 52.415588 304.463593 52.415588 305.522723 
C 52.415588 306.581854 53.015033 307.597748 54.081903 308.346667 
C 55.148773 309.095585 56.595961 309.516383 58.104743 309.516383 
z
" style="fill:#0000ff;opacity:0.2;stroke:#0000ff;stroke-linejoin:miter;stroke-width:2;"/>
   </g>
   <g id="[&quot;g_s&quot;:4,&quot;g_t&quot;:4,&quot;coords&quot;:[[116.0, -700.0],[116.0, -702.0]],&quot;certainty&quot;:11]">
    <path clip-path="url(#pe8298a0479)" d="M 58.104743 308.185163 
C 59.613525 308.185163 61.060713 307.764366 62.127583 307.015447 
C 63.194453 306.266529 63.793898 305.250635 63.793898 304.191504 
C 63.793898 303.132373 63.194453 302.116479 62.127583 301.36756 
C 61.060713 300.618642 59.613525 300.197845 58.104743 300.197845 
C 56.595961 300.197845 55.148773 300.618642 54.081903 301.36756 
C 53.015033 302.116479 52.415588 303.132373 52.415588 304.191504 
C 52.415588 305.250635 53.015033 306.266529 54.081903 307.015447 
C 55.148773 307.764366 56.595961 308.185163 58.104743 308.185163 
z
" style="fill:#ff0000;opacity:0.2;stroke:#ff0000;stroke-linejoin:miter;stroke-width:2;"/>
   </g>
   <g id="patch_31">
    <path d="M 58.104743 305.522723 
Q 58.104743 304.857114 58.104743 306.312824 
" style="fill:none;opacity:0.5;stroke:#ff0000;stroke-linecap:round;stroke-width:3;"/>
    <path d="M 56.604743 307.812824 
L 58.104743 306.312824 
L 59.604743 307.812824 
" style="fill:none;opacity:0.5;stroke:#ff0000;stroke-linecap:round;stroke-width:3;"/>
   </g>
   <g id="[&quot;g_s&quot;:5,&quot;g_t&quot;:5,&quot;coords&quot;:[[116.0, -645.0],[116.0, -618.0]],&quot;certainty&quot;:11]">
    <path clip-path="url(#pe8298a0479)" d="M 58.104743 271.576621 
C 59.613525 271.576621 61.060713 271.155824 62.127583 270.406906 
C 63.194453 269.657987 63.793898 268.642093 63.793898 267.582962 
C 63.793898 266.523831 63.194453 265.507937 62.127583 264.759019 
C 61.060713 264.0101 59.613525 263.589303 58.104743 263.589303 
C 56.595961 263.589303 55.148773 264.0101 54.081903 264.759019 
C 53.015033 265.507937 52.415588 266.523831 52.415588 267.582962 
C 52.415588 268.642093 53.015033 269.657987 54.081903 270.406906 
C 55.148773 271.155824 56.595961 271.576621 58.104743 271.576621 
z
" style="fill:#0000ff;opacity:0.2;stroke:#0000ff;stroke-linejoin:miter;stroke-width:2;"/>
   </g>
   <g id="[&quot;g_s&quot;:5,&quot;g_t&quot;:5,&quot;coords&quot;:[[116.0, -618.0],[116.0, -645.0]],&quot;certainty&quot;:11]">
    <path clip-path="url(#pe8298a0479)" d="M 58.104743 253.605155 
C 59.613525 253.605155 61.060713 253.184358 62.127583 252.43544 
C 63.194453 251.686521 63.793898 250.670627 63.793898 249.611496 
C 63.793898 248.552365 63.194453 247.536471 62.127583 246.787553 
C 61.060713 246.038634 59.613525 245.617837 58.104743 245.617837 
C 56.595961 245.617837 55.148773 246.038634 54.081903 246.787553 
C 53.015033 247.536471 52.415588 248.552365 52.415588 249.611496 
C 52.415588 250.670627 53.015033 251.686521 54.081903 252.43544 
C 55.148773 253.184358 56.595961 253.605155 58.104743 253.605155 
z
" style="fill:#ff0000;opacity:0.2;stroke:#ff0000;stroke-linejoin:miter;stroke-width:2;"/>
   </g>
   <g id="patch_32">
    <path d="M 58.104743 267.582962 
Q 58.104743 259.5954 58.104743 253.729159 
" style="fill:none;opacity:0.5;stroke:#ff0000;stroke-linecap:round;stroke-width:3;"/>
    <path d="M 56.604743 255.229159 
L 58.104743 253.729159 
L 59.604743 255.229159 
" style="fill:none;opacity:0.5;stroke:#ff0000;stroke-linecap:round;stroke-width:3;"/>
   </g>
   <g id="[&quot;g_s&quot;:6,&quot;g_t&quot;:6,&quot;coords&quot;:[[433.0, -496.0],[402.0, -494.0]],&quot;certainty&quot;:1]">
    <path clip-path="url(#pe8298a0479)" d="M 358.681771 169.072705 
C 358.933234 169.072705 359.174433 169.002572 359.352244 168.877752 
C 359.530056 168.752932 359.629963 168.583616 359.629963 168.407095 
C 359.629963 168.230573 359.530056 168.061257 359.352244 167.936437 
C 359.174433 167.811618 358.933234 167.741485 358.681771 167.741485 
C 358.430307 167.741485 358.189109 167.811618 358.011297 167.936437 
C 357.833486 168.061257 357.733578 168.230573 357.733578 168.407095 
C 357.733578 168.583616 357.833486 168.752932 358.011297 168.877752 
C 358.189109 169.002572 358.430307 169.072705 358.681771 169.072705 
z
" style="fill:#0000ff;opacity:0.2;stroke:#0000ff;stroke-linejoin:miter;stroke-width:2;"/>
   </g>
   <g id="[&quot;g_s&quot;:6,&quot;g_t&quot;:6,&quot;coords&quot;:[[402.0, -494.0],[433.0, -496.0]],&quot;certainty&quot;:1]">
    <path clip-path="url(#pe8298a0479)" d="M 329.287803 167.741485 
C 329.539266 167.741485 329.780465 167.671352 329.958276 167.546532 
C 330.136088 167.421712 330.235995 167.252397 330.235995 167.075875 
C 330.235995 166.899353 330.136088 166.730038 329.958276 166.605218 
C 329.780465 166.480398 329.539266 166.410265 329.287803 166.410265 
C 329.036339 166.410265 328.795141 166.480398 328.617329 166.605218 
C 328.439518 166.730038 328.33961 166.899353 328.33961 167.075875 
C 328.33961 167.252397 328.439518 167.421712 328.617329 167.546532 
C 328.795141 167.671352 329.036339 167.741485 329.287803 167.741485 
z
" style="fill:#ff0000;opacity:0.2;stroke:#ff0000;stroke-linejoin:miter;stroke-width:2;"/>
   </g>
   <g id="patch_33">
    <path d="M 358.681771 168.407095 
Q 344.984081 167.786742 331.639583 167.182384 
" style="fill:none;opacity:0.5;stroke:#ff0000;stroke-linecap:round;stroke-width:0.5;"/>
    <path d="M 333.070183 168.748712 
L 331.639583 167.182384 
L 333.205911 165.751784 
" style="fill:none;opacity:0.5;stroke:#ff0000;stroke-linecap:round;stroke-width:0.5;"/>
   </g>
   <g id="[&quot;g_s&quot;:7,&quot;g_t&quot;:7,&quot;coords&quot;:[[433.0, -494.0],[402.0, -492.0]],&quot;certainty&quot;:12]">
    <path clip-path="url(#pe8298a0479)" d="M 358.681771 171.402339 
C 360.316284 171.402339 361.884072 170.946475 363.039848 170.135147 
C 364.195623 169.323819 364.845022 168.223267 364.845022 167.075875 
C 364.845022 165.928483 364.195623 164.827931 363.039848 164.016603 
C 361.884072 163.205275 360.316284 162.749411 358.681771 162.749411 
C 357.047257 162.749411 355.479469 163.205275 354.323694 164.016603 
C 353.167918 164.827931 352.518519 165.928483 352.518519 167.075875 
C 352.518519 168.223267 353.167918 169.323819 354.323694 170.135147 
C 355.479469 170.946475 357.047257 171.402339 358.681771 171.402339 
z
" style="fill:#0000ff;opacity:0.2;stroke:#0000ff;stroke-linejoin:miter;stroke-width:2;"/>
   </g>
   <g id="[&quot;g_s&quot;:7,&quot;g_t&quot;:7,&quot;coords&quot;:[[402.0, -492.0],[433.0, -494.0]],&quot;certainty&quot;:12]">
    <path clip-path="url(#pe8298a0479)" d="M 329.287803 170.071119 
C 330.922316 170.071119 332.490104 169.615256 333.64588 168.803927 
C 334.801655 167.992599 335.451054 166.892047 335.451054 165.744655 
C 335.451054 164.597264 334.801655 163.496712 333.64588 162.685383 
C 332.490104 161.874055 330.922316 161.418191 329.287803 161.418191 
C 327.653289 161.418191 326.085501 161.874055 324.929726 162.685383 
C 323.77395 163.496712 323.124551 164.597264 323.124551 165.744655 
C 323.124551 166.892047 323.77395 167.992599 324.929726 168.803927 
C 326.085501 169.615256 327.653289 170.071119 329.287803 170.071119 
z
" style="fill:#ff0000;opacity:0.2;stroke:#ff0000;stroke-linejoin:miter;stroke-width:2;"/>
   </g>
   <g id="patch_34">
    <path d="M 358.681771 167.075875 
Q 344.984081 166.455522 333.582136 165.939141 
" style="fill:none;opacity:0.5;stroke:#ff0000;stroke-linecap:round;stroke-width:3.25;"/>
    <path d="M 335.012736 167.505469 
L 333.582136 165.939141 
L 335.148463 164.50854 
" style="fill:none;opacity:0.5;stroke:#ff0000;stroke-linecap:round;stroke-width:3.25;"/>
   </g>
   <g id="[&quot;g_s&quot;:8,&quot;g_t&quot;:8,&quot;coords&quot;:[[116.0, -346.0],[116.0, -369.0]],&quot;certainty&quot;:11]">
    <path clip-path="url(#pe8298a0479)" d="M 58.104743 72.559277 
C 59.613525 72.559277 61.060713 72.138479 62.127583 71.389561 
C 63.194453 70.640642 63.793898 69.624748 63.793898 68.565617 
C 63.793898 67.506487 63.194453 66.490593 62.127583 65.741674 
C 61.060713 64.992755 59.613525 64.571958 58.104743 64.571958 
C 56.595961 64.571958 55.148773 64.992755 54.081903 65.741674 
C 53.015033 66.490593 52.415588 67.506487 52.415588 68.565617 
C 52.415588 69.624748 53.015033 70.640642 54.081903 71.389561 
C 55.148773 72.138479 56.595961 72.559277 58.104743 72.559277 
z
" style="fill:#0000ff;opacity:0.2;stroke:#0000ff;stroke-linejoin:miter;stroke-width:2;"/>
   </g>
   <g id="[&quot;g_s&quot;:8,&quot;g_t&quot;:8,&quot;coords&quot;:[[116.0, -369.0],[116.0, -346.0]],&quot;certainty&quot;:11]">
    <path clip-path="url(#pe8298a0479)" d="M 58.104743 87.868303 
C 59.613525 87.868303 61.060713 87.447506 62.127583 86.698587 
C 63.194453 85.949669 63.793898 84.933775 63.793898 83.874644 
C 63.793898 82.815513 63.194453 81.799619 62.127583 81.050701 
C 61.060713 80.301782 59.613525 79.880985 58.104743 79.880985 
C 56.595961 79.880985 55.148773 80.301782 54.081903 81.050701 
C 53.015033 81.799619 52.415588 82.815513 52.415588 83.874644 
C 52.415588 84.933775 53.015033 85.949669 54.081903 86.698587 
C 55.148773 87.447506 56.595961 87.868303 58.104743 87.868303 
z
" style="fill:#ff0000;opacity:0.2;stroke:#ff0000;stroke-linejoin:miter;stroke-width:2;"/>
   </g>
   <g id="patch_35">
    <path d="M 58.104743 68.565617 
Q 58.104743 75.220335 58.104743 79.753732 
" style="fill:none;opacity:0.5;stroke:#ff0000;stroke-linecap:round;stroke-width:3;"/>
    <path d="M 59.604743 78.253732 
L 58.104743 79.753732 
L 56.604743 78.253732 
" style="fill:none;opacity:0.5;stroke:#ff0000;stroke-linecap:round;stroke-width:3;"/>
   </g>
   <g id="patch_36">
    <path clip-path="url(#pe8298a0479)" d="M 58.104743 32.622686 
C 59.362061 32.622686 60.568052 32.272021 61.45711 31.647923 
C 62.346168 31.023824 62.845706 30.177245 62.845706 29.294636 
C 62.845706 28.412027 62.346168 27.565449 61.45711 26.94135 
C 60.568052 26.317251 59.362061 25.966587 58.104743 25.966587 
C 56.847425 25.966587 55.641434 26.317251 54.752376 26.94135 
C 53.863318 27.565449 53.36378 28.412027 53.36378 29.294636 
C 53.36378 30.177245 53.863318 31.023824 54.752376 31.647923 
C 55.641434 32.272021 56.847425 32.622686 58.104743 32.622686 
z
" style="fill:#008000;opacity:0.2;stroke:#008000;stroke-linejoin:miter;stroke-width:2;"/>
   </g>
   <g id="patch_37">
    <path clip-path="url(#pe8298a0479)" d="M 426.951632 153.430873 
C 428.20895 153.430873 429.414941 153.080209 430.303999 152.45611 
C 431.193057 151.832011 431.692595 150.985433 431.692595 150.102824 
C 431.692595 149.220215 431.193057 148.373636 430.303999 147.749538 
C 429.414941 147.125439 428.20895 146.774775 426.951632 146.774775 
C 425.694314 146.774775 424.488323 147.125439 423.599265 147.749538 
C 422.710207 148.373636 422.210669 149.220215 422.210669 150.102824 
C 422.210669 150.985433 422.710207 151.832011 423.599265 152.45611 
C 424.488323 153.080209 425.694314 153.430873 426.951632 153.430873 
z
" style="fill:#008000;opacity:0.2;stroke:#008000;stroke-linejoin:miter;stroke-width:2;"/>
   </g>
   <g id="patch_38">
    <path clip-path="url(#pe8298a0479)" d="M 426.951632 188.042585 
C 428.20895 188.042585 429.414941 187.691921 430.303999 187.067822 
C 431.193057 186.443723 431.692595 185.597145 431.692595 184.714536 
C 431.692595 183.831927 431.193057 182.985349 430.303999 182.36125 
C 429.414941 181.737151 428.20895 181.386487 426.951632 181.386487 
C 425.694314 181.386487 424.488323 181.737151 423.599265 182.36125 
C 422.710207 182.985349 422.210669 183.831927 422.210669 184.714536 
C 422.210669 185.597145 422.710207 186.443723 423.599265 187.067822 
C 424.488323 187.691921 425.694314 188.042585 426.951632 188.042585 
z
" style="fill:#008000;opacity:0.2;stroke:#008000;stroke-linejoin:miter;stroke-width:2;"/>
   </g>
   <g id="patch_39">
    <path clip-path="url(#pe8298a0479)" d="M 58.104743 308.185163 
C 59.362061 308.185163 60.568052 307.834499 61.45711 307.2104 
C 62.346168 306.586301 62.845706 305.739723 62.845706 304.857114 
C 62.845706 303.974505 62.346168 303.127926 61.45711 302.503827 
C 60.568052 301.879729 59.362061 301.529064 58.104743 301.529064 
C 56.847425 301.529064 55.641434 301.879729 54.752376 302.503827 
C 53.863318 303.127926 53.36378 303.974505 53.36378 304.857114 
C 53.36378 305.739723 53.863318 306.586301 54.752376 307.2104 
C 55.641434 307.834499 56.847425 308.185163 58.104743 308.185163 
z
" style="fill:#008000;opacity:0.2;stroke:#008000;stroke-linejoin:miter;stroke-width:2;"/>
   </g>
   <g id="patch_40">
    <path clip-path="url(#pe8298a0479)" d="M 58.104743 261.925278 
C 59.362061 261.925278 60.568052 261.574614 61.45711 260.950515 
C 62.346168 260.326417 62.845706 259.479838 62.845706 258.597229 
C 62.845706 257.71462 62.346168 256.868042 61.45711 256.243943 
C 60.568052 255.619844 59.362061 255.26918 58.104743 255.26918 
C 56.847425 255.26918 55.641434 255.619844 54.752376 256.243943 
C 53.863318 256.868042 53.36378 257.71462 53.36378 258.597229 
C 53.36378 259.479838 53.863318 260.326417 54.752376 260.950515 
C 55.641434 261.574614 56.847425 261.925278 58.104743 261.925278 
z
" style="fill:#008000;opacity:0.2;stroke:#008000;stroke-linejoin:miter;stroke-width:2;"/>
   </g>
   <g id="patch_41">
    <path clip-path="url(#pe8298a0479)" d="M 343.984787 171.069534 
C 345.242105 171.069534 346.448096 170.71887 347.337154 170.094771 
C 348.226212 169.470672 348.725749 168.624094 348.725749 167.741485 
C 348.725749 166.858876 348.226212 166.012297 347.337154 165.388199 
C 346.448096 164.7641 345.242105 164.413436 343.984787 164.413436 
C 342.727469 164.413436 341.521478 164.7641 340.63242 165.388199 
C 339.743362 166.012297 339.243824 166.858876 339.243824 167.741485 
C 339.243824 168.624094 339.743362 169.470672 340.63242 170.094771 
C 341.521478 170.71887 342.727469 171.069534 343.984787 171.069534 
z
" style="fill:#008000;opacity:0.2;stroke:#008000;stroke-linejoin:miter;stroke-width:2;"/>
   </g>
   <g id="patch_42">
    <path clip-path="url(#pe8298a0479)" d="M 343.984787 169.738314 
C 345.242105 169.738314 346.448096 169.38765 347.337154 168.763551 
C 348.226212 168.139453 348.725749 167.292874 348.725749 166.410265 
C 348.725749 165.527656 348.226212 164.681078 347.337154 164.056979 
C 346.448096 163.43288 345.242105 163.082216 343.984787 163.082216 
C 342.727469 163.082216 341.521478 163.43288 340.63242 164.056979 
C 339.743362 164.681078 339.243824 165.527656 339.243824 166.410265 
C 339.243824 167.292874 339.743362 168.139453 340.63242 168.763551 
C 341.521478 169.38765 342.727469 169.738314 343.984787 169.738314 
z
" style="fill:#008000;opacity:0.2;stroke:#008000;stroke-linejoin:miter;stroke-width:2;"/>
   </g>
   <g id="patch_43">
    <path clip-path="url(#pe8298a0479)" d="M 58.104743 79.54818 
C 59.362061 79.54818 60.568052 79.197516 61.45711 78.573417 
C 62.346168 77.949318 62.845706 77.10274 62.845706 76.220131 
C 62.845706 75.337522 62.346168 74.490943 61.45711 73.866844 
C 60.568052 73.242746 59.362061 72.892081 58.104743 72.892081 
C 56.847425 72.892081 55.641434 73.242746 54.752376 73.866844 
C 53.863318 74.490943 53.36378 75.337522 53.36378 76.220131 
C 53.36378 77.10274 53.863318 77.949318 54.752376 78.573417 
C 55.641434 79.197516 56.847425 79.54818 58.104743 79.54818 
z
" style="fill:#008000;opacity:0.2;stroke:#008000;stroke-linejoin:miter;stroke-width:2;"/>
   </g>
   <g id="patch_44">
    <path clip-path="url(#pe8298a0479)" d="M 58.104743 41.941223 
C 63.134015 41.941223 67.957978 40.538566 71.51421 38.042171 
C 75.070442 35.545776 77.068593 32.159462 77.068593 28.629027 
C 77.068593 25.098591 75.070442 21.712277 71.51421 19.215882 
C 67.957978 16.719487 63.134015 15.31683 58.104743 15.31683 
C 53.075471 15.31683 48.251508 16.719487 44.695276 19.215882 
C 41.139044 21.712277 39.140893 25.098591 39.140893 28.629027 
C 39.140893 32.159462 41.139044 35.545776 44.695276 38.042171 
C 48.251508 40.538566 53.075471 41.941223 58.104743 41.941223 
z
" style="fill:none;opacity:0.2;stroke:#ff0000;stroke-linejoin:miter;stroke-width:2;"/>
   </g>
   <g id="patch_45">
    <path clip-path="url(#pe8298a0479)" d="M 58.104743 43.272443 
C 63.134015 43.272443 67.957978 41.869786 71.51421 39.373391 
C 75.070442 36.876996 77.068593 33.490682 77.068593 29.960246 
C 77.068593 26.42981 75.070442 23.043497 71.51421 20.547101 
C 67.957978 18.050706 63.134015 16.648049 58.104743 16.648049 
C 53.075471 16.648049 48.251508 18.050706 44.695276 20.547101 
C 41.139044 23.043497 39.140893 26.42981 39.140893 29.960246 
C 39.140893 33.490682 41.139044 36.876996 44.695276 39.373391 
C 48.251508 41.869786 53.075471 43.272443 58.104743 43.272443 
z
" style="fill:none;opacity:0.2;stroke:#0000ff;stroke-linejoin:miter;stroke-width:2;"/>
   </g>
   <g id="patch_46">
    <path clip-path="url(#pe8298a0479)" d="M 58.104743 35.285125 
C 60.619379 35.285125 63.03136 34.583796 64.809477 33.335599 
C 66.587593 32.087401 67.586668 30.394244 67.586668 28.629027 
C 67.586668 26.863809 66.587593 25.170652 64.809477 23.922454 
C 63.03136 22.674257 60.619379 21.972928 58.104743 21.972928 
C 55.590107 21.972928 53.178126 22.674257 51.400009 23.922454 
C 49.621893 25.170652 48.622818 26.863809 48.622818 28.629027 
C 48.622818 30.394244 49.621893 32.087401 51.400009 33.335599 
C 53.178126 34.583796 55.590107 35.285125 58.104743 35.285125 
z
" style="fill:none;opacity:0.2;stroke:#008000;stroke-linejoin:miter;stroke-width:2;"/>
   </g>
   <g id="patch_47">
    <path clip-path="url(#pe8298a0479)" d="M 58.104743 36.616345 
C 60.619379 36.616345 63.03136 35.915016 64.809477 34.666819 
C 66.587593 33.418621 67.586668 31.725464 67.586668 29.960246 
C 67.586668 28.195028 66.587593 26.501871 64.809477 25.253674 
C 63.03136 24.005476 60.619379 23.304148 58.104743 23.304148 
C 55.590107 23.304148 53.178126 24.005476 51.400009 25.253674 
C 49.621893 26.501871 48.622818 28.195028 48.622818 29.960246 
C 48.622818 31.725464 49.621893 33.418621 51.400009 34.666819 
C 53.178126 35.915016 55.590107 36.616345 58.104743 36.616345 
z
" style="fill:none;opacity:0.2;stroke:#008000;stroke-linejoin:miter;stroke-width:2;"/>
   </g>
   <g id="patch_48">
    <path d="M 58.104743 29.294636 
Q 242.528188 89.69873 426.951632 150.102824 
" style="fill:none;opacity:0.5;stroke:#008000;stroke-linecap:round;stroke-width:2;"/>
   </g>
   <g id="patch_49">
    <path d="M 58.104743 30.04324 
Q 58.104743 29.294636 58.104743 28.546033 
" style="fill:none;opacity:0.5;stroke:#800080;stroke-linecap:round;stroke-width:2;"/>
    <path d="M 56.604743 31.54324 
L 58.104743 30.04324 
L 59.604743 31.54324 
" style="fill:none;opacity:0.5;stroke:#800080;stroke-linecap:round;stroke-width:2;"/>
    <path d="M 59.604743 27.046033 
L 58.104743 28.546033 
L 56.604743 27.046033 
" style="fill:none;opacity:0.5;stroke:#800080;stroke-linecap:round;stroke-width:2;"/>
   </g>
   <g id="patch_50">
    <path d="M 426.951632 150.102824 
Q 426.951632 167.40868 426.951632 184.714536 
" style="fill:none;opacity:0.5;stroke:#008000;stroke-linecap:round;stroke-width:2;"/>
   </g>
   <g id="patch_51">
    <path d="M 426.951632 148.521793 
Q 426.951632 149.103922 426.951632 149.68605 
" style="fill:none;opacity:0.5;stroke:#800080;stroke-linecap:round;stroke-width:2;"/>
    <path d="M 425.451632 150.021793 
L 426.951632 148.521793 
L 428.451632 150.021793 
" style="fill:none;opacity:0.5;stroke:#800080;stroke-linecap:round;stroke-width:2;"/>
    <path d="M 428.451632 148.18605 
L 426.951632 149.68605 
L 425.451632 148.18605 
" style="fill:none;opacity:0.5;stroke:#800080;stroke-linecap:round;stroke-width:2;"/>
   </g>
   <g id="patch_52">
    <path d="M 426.951632 184.714536 
Q 242.528188 244.785825 58.104743 304.857114 
" style="fill:none;opacity:0.5;stroke:#008000;stroke-linecap:round;stroke-width:2;"/>
   </g>
   <g id="patch_53">
    <path d="M 426.951632 184.964347 
Q 426.951632 185.713926 426.951632 186.463505 
" style="fill:none;opacity:0.5;stroke:#800080;stroke-linecap:round;stroke-width:2;"/>
    <path d="M 428.451632 183.464347 
L 426.951632 184.964347 
L 425.451632 183.464347 
" style="fill:none;opacity:0.5;stroke:#800080;stroke-linecap:round;stroke-width:2;"/>
    <path d="M 425.451632 187.963505 
L 426.951632 186.463505 
L 428.451632 187.963505 
" style="fill:none;opacity:0.5;stroke:#800080;stroke-linecap:round;stroke-width:2;"/>
   </g>
   <g id="patch_54">
    <path d="M 58.104743 304.857114 
Q 58.104743 281.727171 58.104743 258.597229 
" style="fill:none;opacity:0.5;stroke:#008000;stroke-linecap:round;stroke-width:2;"/>
   </g>
   <g id="patch_55">
    <path d="M 58.104743 305.605717 
Q 58.104743 304.857114 58.104743 304.10851 
" style="fill:none;opacity:0.5;stroke:#800080;stroke-linecap:round;stroke-width:2;"/>
    <path d="M 56.604743 307.105717 
L 58.104743 305.605717 
L 59.604743 307.105717 
" style="fill:none;opacity:0.5;stroke:#800080;stroke-linecap:round;stroke-width:2;"/>
    <path d="M 59.604743 302.60851 
L 58.104743 304.10851 
L 56.604743 302.60851 
" style="fill:none;opacity:0.5;stroke:#800080;stroke-linecap:round;stroke-width:2;"/>
   </g>
   <g id="patch_56">
    <path d="M 58.104743 258.597229 
Q 201.044765 213.169357 343.984787 167.741485 
" style="fill:none;opacity:0.5;stroke:#008000;stroke-linecap:round;stroke-width:2;"/>
   </g>
   <g id="patch_57">
    <path d="M 58.104743 251.02571 
Q 58.104743 257.599058 58.104743 264.172407 
" style="fill:none;opacity:0.5;stroke:#800080;stroke-linecap:round;stroke-width:2;"/>
    <path d="M 56.604743 252.52571 
L 58.104743 251.02571 
L 59.604743 252.52571 
" style="fill:none;opacity:0.5;stroke:#800080;stroke-linecap:round;stroke-width:2;"/>
    <path d="M 59.604743 262.672407 
L 58.104743 264.172407 
L 56.604743 262.672407 
" style="fill:none;opacity:0.5;stroke:#800080;stroke-linecap:round;stroke-width:2;"/>
   </g>
   <g id="patch_58">
    <path d="M 343.984787 167.741485 
Q 343.984787 167.741485 343.984787 167.741485 
" style="fill:none;opacity:0.5;stroke:#008000;stroke-linecap:round;stroke-width:2;"/>
   </g>
   <g id="patch_59">
    <path d="M 330.700568 167.139858 
Q 342.985492 167.696228 355.270416 168.252598 
" style="fill:none;opacity:0.5;stroke:#800080;stroke-linecap:round;stroke-width:2;"/>
    <path d="M 332.131169 168.706185 
L 330.700568 167.139858 
L 332.266896 165.709257 
" style="fill:none;opacity:0.5;stroke:#800080;stroke-linecap:round;stroke-width:2;"/>
    <path d="M 353.839816 166.686271 
L 355.270416 168.252598 
L 353.704089 169.683199 
" style="fill:none;opacity:0.5;stroke:#800080;stroke-linecap:round;stroke-width:2;"/>
   </g>
   <g id="patch_60">
    <path d="M 343.984787 167.741485 
Q 343.984787 167.075875 343.984787 166.410265 
" style="fill:none;opacity:0.5;stroke:#008000;stroke-linecap:round;stroke-width:2;"/>
   </g>
   <g id="patch_61">
    <path d="M 330.700568 167.139858 
Q 342.985492 167.696228 355.270416 168.252598 
" style="fill:none;opacity:0.5;stroke:#800080;stroke-linecap:round;stroke-width:2;"/>
    <path d="M 332.131169 168.706185 
L 330.700568 167.139858 
L 332.266896 165.709257 
" style="fill:none;opacity:0.5;stroke:#800080;stroke-linecap:round;stroke-width:2;"/>
    <path d="M 353.839816 166.686271 
L 355.270416 168.252598 
L 353.704089 169.683199 
" style="fill:none;opacity:0.5;stroke:#800080;stroke-linecap:round;stroke-width:2;"/>
   </g>
   <g id="patch_62">
    <path d="M 343.984787 166.410265 
Q 201.044765 121.315198 58.104743 76.220131 
" style="fill:none;opacity:0.5;stroke:#008000;stroke-linecap:round;stroke-width:2;"/>
   </g>
   <g id="patch_63">
    <path d="M 330.700568 165.808638 
Q 342.985492 166.365008 355.270416 166.921379 
" style="fill:none;opacity:0.5;stroke:#800080;stroke-linecap:round;stroke-width:2;"/>
    <path d="M 332.131169 167.374966 
L 330.700568 165.808638 
L 332.266896 164.378038 
" style="fill:none;opacity:0.5;stroke:#800080;stroke-linecap:round;stroke-width:2;"/>
    <path d="M 353.839816 165.355051 
L 355.270416 166.921379 
L 353.704089 168.351979 
" style="fill:none;opacity:0.5;stroke:#800080;stroke-linecap:round;stroke-width:2;"/>
   </g>
   <g id="patch_64">
    <path d="M 58.104743 76.220131 
Q 58.104743 52.757384 58.104743 29.294636 
" style="fill:none;opacity:0.5;stroke:#008000;stroke-linecap:round;stroke-width:2;"/>
   </g>
   <g id="patch_65">
    <path d="M 58.104743 82.46043 
Q 58.104743 77.219927 58.104743 71.979423 
" style="fill:none;opacity:0.5;stroke:#800080;stroke-linecap:round;stroke-width:2;"/>
    <path d="M 59.604743 80.96043 
L 58.104743 82.46043 
L 56.604743 80.96043 
" style="fill:none;opacity:0.5;stroke:#800080;stroke-linecap:round;stroke-width:2;"/>
    <path d="M 56.604743 73.479423 
L 58.104743 71.979423 
L 59.604743 73.479423 
" style="fill:none;opacity:0.5;stroke:#800080;stroke-linecap:round;stroke-width:2;"/>
   </g>
   <g id="line2d_1">
    <path clip-path="url(#pe8298a0479)" d="M 58.104743 28.629027 
L 426.951632 147.10758 
L 426.951632 186.378561 
L 58.104743 304.191504 
L 58.104743 249.611496 
L 329.287803 167.075875 
L 329.287803 165.744655 
L 58.104743 83.874644 
" style="fill:none;stroke:#ff0000;stroke-linecap:square;stroke-width:0.2;"/>
   </g>
   <g id="line2d_2">
    <path clip-path="url(#pe8298a0479)" d="M 58.104743 29.960246 
L 426.951632 153.098068 
L 426.951632 183.050511 
L 58.104743 305.522723 
L 58.104743 267.582962 
L 358.681771 168.407095 
L 358.681771 167.075875 
L 58.104743 68.565617 
" style="fill:none;stroke:#0000ff;stroke-linecap:square;stroke-width:0.2;"/>
   </g>
  </g>
 </g>
 <defs>
  <clipPath id="pe8298a0479">
   <rect height="307.51175" width="409.903625" x="37.576375" y="13.32"/>
  </clipPath>
 </defs>
</svg>
