<?xml version="1.0" encoding="utf-8" standalone="no"?>
<!DOCTYPE svg PUBLIC "-//W3C//DTD SVG 1.1//EN"
  "http://www.w3.org/Graphics/SVG/1.1/DTD/svg11.dtd">
<!-- Created with matplotlib (http://matplotlib.org/) -->
<svg height="345.6pt" version="1.1" viewBox="0 0 460.8 345.6" width="460.8pt" xmlns="http://www.w3.org/2000/svg" xmlns:xlink="http://www.w3.org/1999/xlink">
 <defs>
  <style type="text/css">
*{stroke-linecap:butt;stroke-linejoin:round;}
  </style>
 </defs>
 <g id="figure_1">
  <g id="patch_1">
   <path d="M 0 345.6 
L 460.8 345.6 
L 460.8 0 
L 0 0 
z
" style="fill:#ffffff;"/>
  </g>
  <g id="axes_1">
   <g id="patch_2">
    <path clip-path="url(#p6ba4f2de36)" d="M 58.104743 148.438799 
C 58.60767 148.438799 59.090066 148.298534 59.44569 148.048894 
C 59.801313 147.799255 60.001128 147.460623 60.001128 147.10758 
C 60.001128 146.754536 59.801313 146.415905 59.44569 146.166265 
C 59.090066 145.916626 58.60767 145.77636 58.104743 145.77636 
C 57.601816 145.77636 57.119419 145.916626 56.763796 146.166265 
C 56.408173 146.415905 56.208358 146.754536 56.208358 147.10758 
C 56.208358 147.460623 56.408173 147.799255 56.763796 148.048894 
C 57.119419 148.298534 57.601816 148.438799 58.104743 148.438799 
z
" style="fill:#ff0000;opacity:0.2;stroke:#ff0000;stroke-linejoin:miter;stroke-width:2;"/>
   </g>
   <g id="patch_3">
    <path clip-path="url(#p6ba4f2de36)" d="M 426.951632 29.960246 
C 427.454559 29.960246 427.936956 29.819981 428.292579 29.570341 
C 428.648202 29.320701 428.848017 28.98207 428.848017 28.629027 
C 428.848017 28.275983 428.648202 27.937352 428.292579 27.687712 
C 427.936956 27.438073 427.454559 27.297807 426.951632 27.297807 
C 426.448705 27.297807 425.966309 27.438073 425.610685 27.687712 
C 425.255062 27.937352 425.055247 28.275983 425.055247 28.629027 
C 425.055247 28.98207 425.255062 29.320701 425.610685 29.570341 
C 425.966309 29.819981 426.448705 29.960246 426.951632 29.960246 
z
" style="fill:#ff0000;opacity:0.2;stroke:#ff0000;stroke-linejoin:miter;stroke-width:2;"/>
   </g>
   <g id="patch_4">
    <path clip-path="url(#p6ba4f2de36)" d="M 426.951632 85.205864 
C 427.454559 85.205864 427.936956 85.065598 428.292579 84.815958 
C 428.648202 84.566319 428.848017 84.227688 428.848017 83.874644 
C 428.848017 83.5216 428.648202 83.182969 428.292579 82.933329 
C 427.936956 82.68369 427.454559 82.543424 426.951632 82.543424 
C 426.448705 82.543424 425.966309 82.68369 425.610685 82.933329 
C 425.255062 83.182969 425.055247 83.5216 425.055247 83.874644 
C 425.055247 84.227688 425.255062 84.566319 425.610685 84.815958 
C 425.966309 85.065598 426.448705 85.205864 426.951632 85.205864 
z
" style="fill:#ff0000;opacity:0.2;stroke:#ff0000;stroke-linejoin:miter;stroke-width:2;"/>
   </g>
   <g id="patch_5">
    <path clip-path="url(#p6ba4f2de36)" d="M 155.768572 167.075875 
C 156.271499 167.075875 156.753896 166.935609 157.109519 166.68597 
C 157.465142 166.43633 157.664957 166.097699 157.664957 165.744655 
C 157.664957 165.391612 157.465142 165.05298 157.109519 164.803341 
C 156.753896 164.553701 156.271499 164.413436 155.768572 164.413436 
C 155.265645 164.413436 154.783249 164.553701 154.427625 164.803341 
C 154.072002 165.05298 153.872187 165.391612 153.872187 165.744655 
C 153.872187 166.097699 154.072002 166.43633 154.427625 166.68597 
C 154.783249 166.935609 155.265645 167.075875 155.768572 167.075875 
z
" style="fill:#ff0000;opacity:0.2;stroke:#ff0000;stroke-linejoin:miter;stroke-width:2;"/>
   </g>
   <g id="patch_6">
    <path clip-path="url(#p6ba4f2de36)" d="M 155.768572 168.407095 
C 156.271499 168.407095 156.753896 168.266829 157.109519 168.017189 
C 157.465142 167.76755 157.664957 167.428919 157.664957 167.075875 
C 157.664957 166.722831 157.465142 166.3842 157.109519 166.134561 
C 156.753896 165.884921 156.271499 165.744655 155.768572 165.744655 
C 155.265645 165.744655 154.783249 165.884921 154.427625 166.134561 
C 154.072002 166.3842 153.872187 166.722831 153.872187 167.075875 
C 153.872187 167.428919 154.072002 167.76755 154.427625 168.017189 
C 154.783249 168.266829 155.265645 168.407095 155.768572 168.407095 
z
" style="fill:#ff0000;opacity:0.2;stroke:#ff0000;stroke-linejoin:miter;stroke-width:2;"/>
   </g>
   <g id="patch_7">
    <path clip-path="url(#p6ba4f2de36)" d="M 426.951632 250.942716 
C 427.454559 250.942716 427.936956 250.80245 428.292579 250.552811 
C 428.648202 250.303171 428.848017 249.96454 428.848017 249.611496 
C 428.848017 249.258453 428.648202 248.919821 428.292579 248.670182 
C 427.936956 248.420542 427.454559 248.280277 426.951632 248.280277 
C 426.448705 248.280277 425.966309 248.420542 425.610685 248.670182 
C 425.255062 248.919821 425.055247 249.258453 425.055247 249.611496 
C 425.055247 249.96454 425.255062 250.303171 425.610685 250.552811 
C 425.966309 250.80245 426.448705 250.942716 426.951632 250.942716 
z
" style="fill:#ff0000;opacity:0.2;stroke:#ff0000;stroke-linejoin:miter;stroke-width:2;"/>
   </g>
   <g id="patch_8">
    <path clip-path="url(#p6ba4f2de36)" d="M 426.951632 305.522723 
C 427.454559 305.522723 427.936956 305.382458 428.292579 305.132818 
C 428.648202 304.883179 428.848017 304.544547 428.848017 304.191504 
C 428.848017 303.83846 428.648202 303.499829 428.292579 303.250189 
C 427.936956 303.00055 427.454559 302.860284 426.951632 302.860284 
C 426.448705 302.860284 425.966309 303.00055 425.610685 303.250189 
C 425.255062 303.499829 425.055247 303.83846 425.055247 304.191504 
C 425.055247 304.544547 425.255062 304.883179 425.610685 305.132818 
C 425.966309 305.382458 426.448705 305.522723 426.951632 305.522723 
z
" style="fill:#ff0000;opacity:0.2;stroke:#ff0000;stroke-linejoin:miter;stroke-width:2;"/>
   </g>
   <g id="patch_9">
    <path clip-path="url(#p6ba4f2de36)" d="M 58.104743 187.70978 
C 58.60767 187.70978 59.090066 187.569515 59.44569 187.319875 
C 59.801313 187.070236 60.001128 186.731604 60.001128 186.378561 
C 60.001128 186.025517 59.801313 185.686886 59.44569 185.437246 
C 59.090066 185.187607 58.60767 185.047341 58.104743 185.047341 
C 57.601816 185.047341 57.119419 185.187607 56.763796 185.437246 
C 56.408173 185.686886 56.208358 186.025517 56.208358 186.378561 
C 56.208358 186.731604 56.408173 187.070236 56.763796 187.319875 
C 57.119419 187.569515 57.601816 187.70978 58.104743 187.70978 
z
" style="fill:#ff0000;opacity:0.2;stroke:#ff0000;stroke-linejoin:miter;stroke-width:2;"/>
   </g>
   <g id="patch_10">
    <path clip-path="url(#p6ba4f2de36)" d="M 58.104743 154.429288 
C 58.60767 154.429288 59.090066 154.289022 59.44569 154.039383 
C 59.801313 153.789743 60.001128 153.451112 60.001128 153.098068 
C 60.001128 152.745025 59.801313 152.406393 59.44569 152.156754 
C 59.090066 151.907114 58.60767 151.766848 58.104743 151.766848 
C 57.601816 151.766848 57.119419 151.907114 56.763796 152.156754 
C 56.408173 152.406393 56.208358 152.745025 56.208358 153.098068 
C 56.208358 153.451112 56.408173 153.789743 56.763796 154.039383 
C 57.119419 154.289022 57.601816 154.429288 58.104743 154.429288 
z
" style="fill:#0000ff;opacity:0.2;stroke:#0000ff;stroke-linejoin:miter;stroke-width:2;"/>
   </g>
   <g id="patch_11">
    <path clip-path="url(#p6ba4f2de36)" d="M 426.951632 31.291466 
C 427.454559 31.291466 427.936956 31.1512 428.292579 30.901561 
C 428.648202 30.651921 428.848017 30.31329 428.848017 29.960246 
C 428.848017 29.607203 428.648202 29.268571 428.292579 29.018932 
C 427.936956 28.769292 427.454559 28.629027 426.951632 28.629027 
C 426.448705 28.629027 425.966309 28.769292 425.610685 29.018932 
C 425.255062 29.268571 425.055247 29.607203 425.055247 29.960246 
C 425.055247 30.31329 425.255062 30.651921 425.610685 30.901561 
C 425.966309 31.1512 426.448705 31.291466 426.951632 31.291466 
z
" style="fill:#0000ff;opacity:0.2;stroke:#0000ff;stroke-linejoin:miter;stroke-width:2;"/>
   </g>
   <g id="patch_12">
    <path clip-path="url(#p6ba4f2de36)" d="M 426.951632 69.896837 
C 427.454559 69.896837 427.936956 69.756571 428.292579 69.506932 
C 428.648202 69.257292 428.848017 68.918661 428.848017 68.565617 
C 428.848017 68.212574 428.648202 67.873942 428.292579 67.624303 
C 427.936956 67.374663 427.454559 67.234398 426.951632 67.234398 
C 426.448705 67.234398 425.966309 67.374663 425.610685 67.624303 
C 425.255062 67.873942 425.055247 68.212574 425.055247 68.565617 
C 425.055247 68.918661 425.255062 69.257292 425.610685 69.506932 
C 425.966309 69.756571 426.448705 69.896837 426.951632 69.896837 
z
" style="fill:#0000ff;opacity:0.2;stroke:#0000ff;stroke-linejoin:miter;stroke-width:2;"/>
   </g>
   <g id="patch_13">
    <path clip-path="url(#p6ba4f2de36)" d="M 126.374604 168.407095 
C 126.877531 168.407095 127.359928 168.266829 127.715551 168.017189 
C 128.071174 167.76755 128.270989 167.428919 128.270989 167.075875 
C 128.270989 166.722831 128.071174 166.3842 127.715551 166.134561 
C 127.359928 165.884921 126.877531 165.744655 126.374604 165.744655 
C 125.871677 165.744655 125.389281 165.884921 125.033657 166.134561 
C 124.678034 166.3842 124.478219 166.722831 124.478219 167.075875 
C 124.478219 167.428919 124.678034 167.76755 125.033657 168.017189 
C 125.389281 168.266829 125.871677 168.407095 126.374604 168.407095 
z
" style="fill:#0000ff;opacity:0.2;stroke:#0000ff;stroke-linejoin:miter;stroke-width:2;"/>
   </g>
   <g id="patch_14">
    <path clip-path="url(#p6ba4f2de36)" d="M 126.374604 169.738314 
C 126.877531 169.738314 127.359928 169.598049 127.715551 169.348409 
C 128.071174 169.09877 128.270989 168.760138 128.270989 168.407095 
C 128.270989 168.054051 128.071174 167.71542 127.715551 167.46578 
C 127.359928 167.216141 126.877531 167.075875 126.374604 167.075875 
C 125.871677 167.075875 125.389281 167.216141 125.033657 167.46578 
C 124.678034 167.71542 124.478219 168.054051 124.478219 168.407095 
C 124.478219 168.760138 124.678034 169.09877 125.033657 169.348409 
C 125.389281 169.598049 125.871677 169.738314 126.374604 169.738314 
z
" style="fill:#0000ff;opacity:0.2;stroke:#0000ff;stroke-linejoin:miter;stroke-width:2;"/>
   </g>
   <g id="patch_15">
    <path clip-path="url(#p6ba4f2de36)" d="M 426.951632 268.914182 
C 427.454559 268.914182 427.936956 268.773916 428.292579 268.524277 
C 428.648202 268.274637 428.848017 267.936006 428.848017 267.582962 
C 428.848017 267.229919 428.648202 266.891287 428.292579 266.641648 
C 427.936956 266.392008 427.454559 266.251742 426.951632 266.251742 
C 426.448705 266.251742 425.966309 266.392008 425.610685 266.641648 
C 425.255062 266.891287 425.055247 267.229919 425.055247 267.582962 
C 425.055247 267.936006 425.255062 268.274637 425.610685 268.524277 
C 425.966309 268.773916 426.448705 268.914182 426.951632 268.914182 
z
" style="fill:#0000ff;opacity:0.2;stroke:#0000ff;stroke-linejoin:miter;stroke-width:2;"/>
   </g>
   <g id="patch_16">
    <path clip-path="url(#p6ba4f2de36)" d="M 426.951632 306.853943 
C 427.454559 306.853943 427.936956 306.713677 428.292579 306.464038 
C 428.648202 306.214398 428.848017 305.875767 428.848017 305.522723 
C 428.848017 305.16968 428.648202 304.831049 428.292579 304.581409 
C 427.936956 304.331769 427.454559 304.191504 426.951632 304.191504 
C 426.448705 304.191504 425.966309 304.331769 425.610685 304.581409 
C 425.255062 304.831049 425.055247 305.16968 425.055247 305.522723 
C 425.055247 305.875767 425.255062 306.214398 425.610685 306.464038 
C 425.966309 306.713677 426.448705 306.853943 426.951632 306.853943 
z
" style="fill:#0000ff;opacity:0.2;stroke:#0000ff;stroke-linejoin:miter;stroke-width:2;"/>
   </g>
   <g id="patch_17">
    <path clip-path="url(#p6ba4f2de36)" d="M 58.104743 184.381731 
C 58.60767 184.381731 59.090066 184.241465 59.44569 183.991826 
C 59.801313 183.742186 60.001128 183.403555 60.001128 183.050511 
C 60.001128 182.697468 59.801313 182.358836 59.44569 182.109197 
C 59.090066 181.859557 58.60767 181.719292 58.104743 181.719292 
C 57.601816 181.719292 57.119419 181.859557 56.763796 182.109197 
C 56.408173 182.358836 56.208358 182.697468 56.208358 183.050511 
C 56.208358 183.403555 56.408173 183.742186 56.763796 183.991826 
C 57.119419 184.241465 57.601816 184.381731 58.104743 184.381731 
z
" style="fill:#0000ff;opacity:0.2;stroke:#0000ff;stroke-linejoin:miter;stroke-width:2;"/>
   </g>
   <g id="patch_18">
    <path clip-path="url(#p6ba4f2de36)" d="M 58.104743 147.10758 
L 426.951632 28.629027 
L 426.951632 83.874644 
L 155.768572 165.744655 
L 155.768572 167.075875 
L 426.951632 249.611496 
L 426.951632 304.191504 
L 58.104743 186.378561 
L 58.104743 147.10758 
" style="fill:none;stroke:#ff0000;stroke-linejoin:miter;stroke-width:0.5;"/>
   </g>
   <g id="patch_19">
    <path clip-path="url(#p6ba4f2de36)" d="M 58.104743 153.098068 
L 426.951632 29.960246 
L 426.951632 68.565617 
L 126.374604 167.075875 
L 126.374604 168.407095 
L 426.951632 267.582962 
L 426.951632 305.522723 
L 58.104743 183.050511 
L 58.104743 153.098068 
" style="fill:none;stroke:#0000ff;stroke-linejoin:miter;stroke-width:0.5;"/>
   </g>
   <g id="[&quot;g_s&quot;:1,&quot;g_t&quot;:1,&quot;coords&quot;:[[116.0, -464.0],[116.0, -473.0]],&quot;certainty&quot;:12]">
    <path clip-path="url(#p6ba4f2de36)" d="M 58.104743 151.434044 
C 59.739256 151.434044 61.307044 150.97818 62.46282 150.166852 
C 63.618595 149.355523 64.267994 148.254971 64.267994 147.10758 
C 64.267994 145.960188 63.618595 144.859636 62.46282 144.048308 
C 61.307044 143.236979 59.739256 142.781116 58.104743 142.781116 
C 56.47023 142.781116 54.902442 143.236979 53.746666 144.048308 
C 52.590891 144.859636 51.941492 145.960188 51.941492 147.10758 
C 51.941492 148.254971 52.590891 149.355523 53.746666 150.166852 
C 54.902442 150.97818 56.47023 151.434044 58.104743 151.434044 
z
" style="fill:#0000ff;opacity:0.2;stroke:#0000ff;stroke-linejoin:miter;stroke-width:2;"/>
   </g>
   <g id="[&quot;g_s&quot;:1,&quot;g_t&quot;:1,&quot;coords&quot;:[[116.0, -473.0],[116.0, -464.0]],&quot;certainty&quot;:12]">
    <path clip-path="url(#p6ba4f2de36)" d="M 58.104743 157.424532 
C 59.739256 157.424532 61.307044 156.968669 62.46282 156.15734 
C 63.618595 155.346012 64.267994 154.24546 64.267994 153.098068 
C 64.267994 151.950677 63.618595 150.850125 62.46282 150.038796 
C 61.307044 149.227468 59.739256 148.771604 58.104743 148.771604 
C 56.47023 148.771604 54.902442 149.227468 53.746666 150.038796 
C 52.590891 150.850125 51.941492 151.950677 51.941492 153.098068 
C 51.941492 154.24546 52.590891 155.346012 53.746666 156.15734 
C 54.902442 156.968669 56.47023 157.424532 58.104743 157.424532 
z
" style="fill:#ff0000;opacity:0.2;stroke:#ff0000;stroke-linejoin:miter;stroke-width:2;"/>
   </g>
   <g id="patch_20">
    <path d="M 58.104743 147.10758 
Q 58.104743 149.103922 58.104743 148.802167 
" style="fill:none;opacity:0.5;stroke:#0000ff;stroke-linecap:round;stroke-width:3.25;"/>
    <path d="M 59.604743 147.302167 
L 58.104743 148.802167 
L 56.604743 147.302167 
" style="fill:none;opacity:0.5;stroke:#0000ff;stroke-linecap:round;stroke-width:3.25;"/>
   </g>
   <g id="[&quot;g_s&quot;:2,&quot;g_t&quot;:2,&quot;coords&quot;:[[505.0, -286.0],[505.0, -288.0]],&quot;certainty&quot;:10]">
    <path clip-path="url(#p6ba4f2de36)" d="M 426.951632 32.289881 
C 428.334682 32.289881 429.661272 31.90415 430.639235 31.217641 
C 431.617199 30.531133 432.166691 29.599896 432.166691 28.629027 
C 432.166691 27.658157 431.617199 26.72692 430.639235 26.040412 
C 429.661272 25.353903 428.334682 24.968172 426.951632 24.968172 
C 425.568582 24.968172 424.241992 25.353903 423.264029 26.040412 
C 422.286065 26.72692 421.736573 27.658157 421.736573 28.629027 
C 421.736573 29.599896 422.286065 30.531133 423.264029 31.217641 
C 424.241992 31.90415 425.568582 32.289881 426.951632 32.289881 
z
" style="fill:#0000ff;opacity:0.2;stroke:#0000ff;stroke-linejoin:miter;stroke-width:2;"/>
   </g>
   <g id="[&quot;g_s&quot;:2,&quot;g_t&quot;:2,&quot;coords&quot;:[[505.0, -288.0],[505.0, -286.0]],&quot;certainty&quot;:10]">
    <path clip-path="url(#p6ba4f2de36)" d="M 426.951632 33.6211 
C 428.334682 33.6211 429.661272 33.23537 430.639235 32.548861 
C 431.617199 31.862352 432.166691 30.931116 432.166691 29.960246 
C 432.166691 28.989376 431.617199 28.05814 430.639235 27.371631 
C 429.661272 26.685123 428.334682 26.299392 426.951632 26.299392 
C 425.568582 26.299392 424.241992 26.685123 423.264029 27.371631 
C 422.286065 28.05814 421.736573 28.989376 421.736573 29.960246 
C 421.736573 30.931116 422.286065 31.862352 423.264029 32.548861 
C 424.241992 33.23537 425.568582 33.6211 426.951632 33.6211 
z
" style="fill:#ff0000;opacity:0.2;stroke:#ff0000;stroke-linejoin:miter;stroke-width:2;"/>
   </g>
   <g id="patch_21">
    <path d="M 426.951632 28.629027 
Q 426.951632 29.294636 426.951632 28.015703 
" style="fill:none;opacity:0.5;stroke:#0000ff;stroke-linecap:round;stroke-width:2.75;"/>
    <path d="M 428.451632 26.515703 
L 426.951632 28.015703 
L 425.451632 26.515703 
" style="fill:none;opacity:0.5;stroke:#0000ff;stroke-linecap:round;stroke-width:2.75;"/>
   </g>
   <g id="[&quot;g_s&quot;:3,&quot;g_t&quot;:3,&quot;coords&quot;:[[505.0, -369.0],[505.0, -346.0]],&quot;certainty&quot;:11]">
    <path clip-path="url(#p6ba4f2de36)" d="M 426.951632 87.868303 
C 428.460414 87.868303 429.907602 87.447506 430.974472 86.698587 
C 432.041342 85.949669 432.640787 84.933775 432.640787 83.874644 
C 432.640787 82.815513 432.041342 81.799619 430.974472 81.050701 
C 429.907602 80.301782 428.460414 79.880985 426.951632 79.880985 
C 425.44285 79.880985 423.995662 80.301782 422.928792 81.050701 
C 421.861922 81.799619 421.262477 82.815513 421.262477 83.874644 
C 421.262477 84.933775 421.861922 85.949669 422.928792 86.698587 
C 423.995662 87.447506 425.44285 87.868303 426.951632 87.868303 
z
" style="fill:#0000ff;opacity:0.2;stroke:#0000ff;stroke-linejoin:miter;stroke-width:2;"/>
   </g>
   <g id="[&quot;g_s&quot;:3,&quot;g_t&quot;:3,&quot;coords&quot;:[[505.0, -346.0],[505.0, -369.0]],&quot;certainty&quot;:11]">
    <path clip-path="url(#p6ba4f2de36)" d="M 426.951632 72.559277 
C 428.460414 72.559277 429.907602 72.138479 430.974472 71.389561 
C 432.041342 70.640642 432.640787 69.624748 432.640787 68.565617 
C 432.640787 67.506487 432.041342 66.490593 430.974472 65.741674 
C 429.907602 64.992755 428.460414 64.571958 426.951632 64.571958 
C 425.44285 64.571958 423.995662 64.992755 422.928792 65.741674 
C 421.861922 66.490593 421.262477 67.506487 421.262477 68.565617 
C 421.262477 69.624748 421.861922 70.640642 422.928792 71.389561 
C 423.995662 72.138479 425.44285 72.559277 426.951632 72.559277 
z
" style="fill:#ff0000;opacity:0.2;stroke:#ff0000;stroke-linejoin:miter;stroke-width:2;"/>
   </g>
   <g id="patch_22">
    <path d="M 426.951632 83.874644 
Q 426.951632 77.219927 426.951632 72.68653 
" style="fill:none;opacity:0.5;stroke:#0000ff;stroke-linecap:round;stroke-width:3;"/>
    <path d="M 425.451632 74.18653 
L 426.951632 72.68653 
L 428.451632 74.18653 
" style="fill:none;opacity:0.5;stroke:#0000ff;stroke-linecap:round;stroke-width:3;"/>
   </g>
   <g id="[&quot;g_s&quot;:4,&quot;g_t&quot;:4,&quot;coords&quot;:[[219.0, -492.0],[188.0, -494.0]],&quot;certainty&quot;:11]">
    <path clip-path="url(#p6ba4f2de36)" d="M 155.768572 169.738314 
C 157.277354 169.738314 158.724543 169.317517 159.791412 168.568599 
C 160.858282 167.81968 161.457727 166.803786 161.457727 165.744655 
C 161.457727 164.685525 160.858282 163.66963 159.791412 162.920712 
C 158.724543 162.171793 157.277354 161.750996 155.768572 161.750996 
C 154.259791 161.750996 152.812602 162.171793 151.745732 162.920712 
C 150.678862 163.66963 150.079417 164.685525 150.079417 165.744655 
C 150.079417 166.803786 150.678862 167.81968 151.745732 168.568599 
C 152.812602 169.317517 154.259791 169.738314 155.768572 169.738314 
z
" style="fill:#0000ff;opacity:0.2;stroke:#0000ff;stroke-linejoin:miter;stroke-width:2;"/>
   </g>
   <g id="[&quot;g_s&quot;:4,&quot;g_t&quot;:4,&quot;coords&quot;:[[188.0, -494.0],[219.0, -492.0]],&quot;certainty&quot;:11]">
    <path clip-path="url(#p6ba4f2de36)" d="M 126.374604 171.069534 
C 127.883386 171.069534 129.330575 170.648737 130.397444 169.899818 
C 131.464314 169.1509 132.063759 168.135006 132.063759 167.075875 
C 132.063759 166.016744 131.464314 165.00085 130.397444 164.251932 
C 129.330575 163.503013 127.883386 163.082216 126.374604 163.082216 
C 124.865823 163.082216 123.418634 163.503013 122.351764 164.251932 
C 121.284894 165.00085 120.685449 166.016744 120.685449 167.075875 
C 120.685449 168.135006 121.284894 169.1509 122.351764 169.899818 
C 123.418634 170.648737 124.865823 171.069534 126.374604 171.069534 
z
" style="fill:#ff0000;opacity:0.2;stroke:#ff0000;stroke-linejoin:miter;stroke-width:2;"/>
   </g>
   <g id="patch_23">
    <path d="M 155.768572 165.744655 
Q 142.070883 166.365008 130.492341 166.889387 
" style="fill:none;opacity:0.5;stroke:#0000ff;stroke-linecap:round;stroke-width:3;"/>
    <path d="M 132.058669 168.319988 
L 130.492341 166.889387 
L 131.922942 165.32306 
" style="fill:none;opacity:0.5;stroke:#0000ff;stroke-linecap:round;stroke-width:3;"/>
   </g>
   <g id="[&quot;g_s&quot;:5,&quot;g_t&quot;:5,&quot;coords&quot;:[[219.0, -494.0],[188.0, -496.0]],&quot;certainty&quot;:1]">
    <path clip-path="url(#p6ba4f2de36)" d="M 155.768572 167.741485 
C 156.020036 167.741485 156.261234 167.671352 156.439046 167.546532 
C 156.616857 167.421712 156.716765 167.252397 156.716765 167.075875 
C 156.716765 166.899353 156.616857 166.730038 156.439046 166.605218 
C 156.261234 166.480398 156.020036 166.410265 155.768572 166.410265 
C 155.517109 166.410265 155.27591 166.480398 155.098099 166.605218 
C 154.920287 166.730038 154.82038 166.899353 154.82038 167.075875 
C 154.82038 167.252397 154.920287 167.421712 155.098099 167.546532 
C 155.27591 167.671352 155.517109 167.741485 155.768572 167.741485 
z
" style="fill:#0000ff;opacity:0.2;stroke:#0000ff;stroke-linejoin:miter;stroke-width:2;"/>
   </g>
   <g id="[&quot;g_s&quot;:5,&quot;g_t&quot;:5,&quot;coords&quot;:[[188.0, -496.0],[219.0, -494.0]],&quot;certainty&quot;:1]">
    <path clip-path="url(#p6ba4f2de36)" d="M 126.374604 169.072705 
C 126.626068 169.072705 126.867266 169.002572 127.045078 168.877752 
C 127.222889 168.752932 127.322797 168.583616 127.322797 168.407095 
C 127.322797 168.230573 127.222889 168.061257 127.045078 167.936437 
C 126.867266 167.811618 126.626068 167.741485 126.374604 167.741485 
C 126.123141 167.741485 125.881942 167.811618 125.704131 167.936437 
C 125.526319 168.061257 125.426412 168.230573 125.426412 168.407095 
C 125.426412 168.583616 125.526319 168.752932 125.704131 168.877752 
C 125.881942 169.002572 126.123141 169.072705 126.374604 169.072705 
z
" style="fill:#ff0000;opacity:0.2;stroke:#ff0000;stroke-linejoin:miter;stroke-width:2;"/>
   </g>
   <g id="patch_24">
    <path d="M 155.768572 167.075875 
Q 142.070883 167.696228 128.726384 168.300585 
" style="fill:none;opacity:0.5;stroke:#0000ff;stroke-linecap:round;stroke-width:0.5;"/>
    <path d="M 130.292712 169.731186 
L 128.726384 168.300585 
L 130.156985 166.734257 
" style="fill:none;opacity:0.5;stroke:#0000ff;stroke-linecap:round;stroke-width:0.5;"/>
   </g>
   <g id="[&quot;g_s&quot;:6,&quot;g_t&quot;:6,&quot;coords&quot;:[[505.0, -618.0],[505.0, -645.0]],&quot;certainty&quot;:11]">
    <path clip-path="url(#p6ba4f2de36)" d="M 426.951632 253.605155 
C 428.460414 253.605155 429.907602 253.184358 430.974472 252.43544 
C 432.041342 251.686521 432.640787 250.670627 432.640787 249.611496 
C 432.640787 248.552365 432.041342 247.536471 430.974472 246.787553 
C 429.907602 246.038634 428.460414 245.617837 426.951632 245.617837 
C 425.44285 245.617837 423.995662 246.038634 422.928792 246.787553 
C 421.861922 247.536471 421.262477 248.552365 421.262477 249.611496 
C 421.262477 250.670627 421.861922 251.686521 422.928792 252.43544 
C 423.995662 253.184358 425.44285 253.605155 426.951632 253.605155 
z
" style="fill:#0000ff;opacity:0.2;stroke:#0000ff;stroke-linejoin:miter;stroke-width:2;"/>
   </g>
   <g id="[&quot;g_s&quot;:6,&quot;g_t&quot;:6,&quot;coords&quot;:[[505.0, -645.0],[505.0, -618.0]],&quot;certainty&quot;:11]">
    <path clip-path="url(#p6ba4f2de36)" d="M 426.951632 271.576621 
C 428.460414 271.576621 429.907602 271.155824 430.974472 270.406906 
C 432.041342 269.657987 432.640787 268.642093 432.640787 267.582962 
C 432.640787 266.523831 432.041342 265.507937 430.974472 264.759019 
C 429.907602 264.0101 428.460414 263.589303 426.951632 263.589303 
C 425.44285 263.589303 423.995662 264.0101 422.928792 264.759019 
C 421.861922 265.507937 421.262477 266.523831 421.262477 267.582962 
C 421.262477 268.642093 421.861922 269.657987 422.928792 270.406906 
C 423.995662 271.155824 425.44285 271.576621 426.951632 271.576621 
z
" style="fill:#ff0000;opacity:0.2;stroke:#ff0000;stroke-linejoin:miter;stroke-width:2;"/>
   </g>
   <g id="patch_25">
    <path d="M 426.951632 249.611496 
Q 426.951632 257.599058 426.951632 263.4653 
" style="fill:none;opacity:0.5;stroke:#0000ff;stroke-linecap:round;stroke-width:3;"/>
    <path d="M 428.451632 261.9653 
L 426.951632 263.4653 
L 425.451632 261.9653 
" style="fill:none;opacity:0.5;stroke:#0000ff;stroke-linecap:round;stroke-width:3;"/>
   </g>
   <g id="[&quot;g_s&quot;:7,&quot;g_t&quot;:7,&quot;coords&quot;:[[505.0, -700.0],[505.0, -702.0]],&quot;certainty&quot;:11]">
    <path clip-path="url(#p6ba4f2de36)" d="M 426.951632 308.185163 
C 428.460414 308.185163 429.907602 307.764366 430.974472 307.015447 
C 432.041342 306.266529 432.640787 305.250635 432.640787 304.191504 
C 432.640787 303.132373 432.041342 302.116479 430.974472 301.36756 
C 429.907602 300.618642 428.460414 300.197845 426.951632 300.197845 
C 425.44285 300.197845 423.995662 300.618642 422.928792 301.36756 
C 421.861922 302.116479 421.262477 303.132373 421.262477 304.191504 
C 421.262477 305.250635 421.861922 306.266529 422.928792 307.015447 
C 423.995662 307.764366 425.44285 308.185163 426.951632 308.185163 
z
" style="fill:#0000ff;opacity:0.2;stroke:#0000ff;stroke-linejoin:miter;stroke-width:2;"/>
   </g>
   <g id="[&quot;g_s&quot;:7,&quot;g_t&quot;:7,&quot;coords&quot;:[[505.0, -702.0],[505.0, -700.0]],&quot;certainty&quot;:11]">
    <path clip-path="url(#p6ba4f2de36)" d="M 426.951632 309.516383 
C 428.460414 309.516383 429.907602 309.095585 430.974472 308.346667 
C 432.041342 307.597748 432.640787 306.581854 432.640787 305.522723 
C 432.640787 304.463593 432.041342 303.447699 430.974472 302.69878 
C 429.907602 301.949862 428.460414 301.529064 426.951632 301.529064 
C 425.44285 301.529064 423.995662 301.949862 422.928792 302.69878 
C 421.861922 303.447699 421.262477 304.463593 421.262477 305.522723 
C 421.262477 306.581854 421.861922 307.597748 422.928792 308.346667 
C 423.995662 309.095585 425.44285 309.516383 426.951632 309.516383 
z
" style="fill:#ff0000;opacity:0.2;stroke:#ff0000;stroke-linejoin:miter;stroke-width:2;"/>
   </g>
   <g id="patch_26">
    <path d="M 426.951632 304.191504 
Q 426.951632 304.857114 426.951632 303.401403 
" style="fill:none;opacity:0.5;stroke:#0000ff;stroke-linecap:round;stroke-width:3;"/>
    <path d="M 428.451632 301.901403 
L 426.951632 303.401403 
L 425.451632 301.901403 
" style="fill:none;opacity:0.5;stroke:#0000ff;stroke-linecap:round;stroke-width:3;"/>
   </g>
   <g id="[&quot;g_s&quot;:8,&quot;g_t&quot;:8,&quot;coords&quot;:[[116.0, -523.0],[116.0, -518.0]],&quot;certainty&quot;:11]">
    <path clip-path="url(#p6ba4f2de36)" d="M 58.104743 190.37222 
C 59.613525 190.37222 61.060713 189.951423 62.127583 189.202504 
C 63.194453 188.453585 63.793898 187.437691 63.793898 186.378561 
C 63.793898 185.31943 63.194453 184.303536 62.127583 183.554617 
C 61.060713 182.805699 59.613525 182.384902 58.104743 182.384902 
C 56.595961 182.384902 55.148773 182.805699 54.081903 183.554617 
C 53.015033 184.303536 52.415588 185.31943 52.415588 186.378561 
C 52.415588 187.437691 53.015033 188.453585 54.081903 189.202504 
C 55.148773 189.951423 56.595961 190.37222 58.104743 190.37222 
z
" style="fill:#0000ff;opacity:0.2;stroke:#0000ff;stroke-linejoin:miter;stroke-width:2;"/>
   </g>
   <g id="[&quot;g_s&quot;:8,&quot;g_t&quot;:8,&quot;coords&quot;:[[116.0, -518.0],[116.0, -523.0]],&quot;certainty&quot;:11]">
    <path clip-path="url(#p6ba4f2de36)" d="M 58.104743 187.04417 
C 59.613525 187.04417 61.060713 186.623373 62.127583 185.874455 
C 63.194453 185.125536 63.793898 184.109642 63.793898 183.050511 
C 63.793898 181.991381 63.194453 180.975486 62.127583 180.226568 
C 61.060713 179.477649 59.613525 179.056852 58.104743 179.056852 
C 56.595961 179.056852 55.148773 179.477649 54.081903 180.226568 
C 53.015033 180.975486 52.415588 181.991381 52.415588 183.050511 
C 52.415588 184.109642 53.015033 185.125536 54.081903 185.874455 
C 55.148773 186.623373 56.595961 187.04417 58.104743 187.04417 
z
" style="fill:#ff0000;opacity:0.2;stroke:#ff0000;stroke-linejoin:miter;stroke-width:2;"/>
   </g>
   <g id="patch_27">
    <path d="M 58.104743 186.378561 
Q 58.104743 185.713926 58.104743 187.170611 
" style="fill:none;opacity:0.5;stroke:#0000ff;stroke-linecap:round;stroke-width:3;"/>
    <path d="M 56.604743 188.670611 
L 58.104743 187.170611 
L 59.604743 188.670611 
" style="fill:none;opacity:0.5;stroke:#0000ff;stroke-linecap:round;stroke-width:3;"/>
   </g>
   <g id="[&quot;g_s&quot;:1,&quot;g_t&quot;:1,&quot;coords&quot;:[[116.0, -473.0],[116.0, -464.0]],&quot;certainty&quot;:12]">
    <path clip-path="url(#p6ba4f2de36)" d="M 58.104743 157.424532 
C 59.739256 157.424532 61.307044 156.968669 62.46282 156.15734 
C 63.618595 155.346012 64.267994 154.24546 64.267994 153.098068 
C 64.267994 151.950677 63.618595 150.850125 62.46282 150.038796 
C 61.307044 149.227468 59.739256 148.771604 58.104743 148.771604 
C 56.47023 148.771604 54.902442 149.227468 53.746666 150.038796 
C 52.590891 150.850125 51.941492 151.950677 51.941492 153.098068 
C 51.941492 154.24546 52.590891 155.346012 53.746666 156.15734 
C 54.902442 156.968669 56.47023 157.424532 58.104743 157.424532 
z
" style="fill:#0000ff;opacity:0.2;stroke:#0000ff;stroke-linejoin:miter;stroke-width:2;"/>
   </g>
   <g id="[&quot;g_s&quot;:1,&quot;g_t&quot;:1,&quot;coords&quot;:[[116.0, -464.0],[116.0, -473.0]],&quot;certainty&quot;:12]">
    <path clip-path="url(#p6ba4f2de36)" d="M 58.104743 151.434044 
C 59.739256 151.434044 61.307044 150.97818 62.46282 150.166852 
C 63.618595 149.355523 64.267994 148.254971 64.267994 147.10758 
C 64.267994 145.960188 63.618595 144.859636 62.46282 144.048308 
C 61.307044 143.236979 59.739256 142.781116 58.104743 142.781116 
C 56.47023 142.781116 54.902442 143.236979 53.746666 144.048308 
C 52.590891 144.859636 51.941492 145.960188 51.941492 147.10758 
C 51.941492 148.254971 52.590891 149.355523 53.746666 150.166852 
C 54.902442 150.97818 56.47023 151.434044 58.104743 151.434044 
z
" style="fill:#ff0000;opacity:0.2;stroke:#ff0000;stroke-linejoin:miter;stroke-width:2;"/>
   </g>
   <g id="patch_28">
    <path d="M 58.104743 153.098068 
Q 58.104743 151.101726 58.104743 151.403481 
" style="fill:none;opacity:0.5;stroke:#ff0000;stroke-linecap:round;stroke-width:3.25;"/>
    <path d="M 56.604743 152.903481 
L 58.104743 151.403481 
L 59.604743 152.903481 
" style="fill:none;opacity:0.5;stroke:#ff0000;stroke-linecap:round;stroke-width:3.25;"/>
   </g>
   <g id="[&quot;g_s&quot;:2,&quot;g_t&quot;:2,&quot;coords&quot;:[[505.0, -288.0],[505.0, -286.0]],&quot;certainty&quot;:10]">
    <path clip-path="url(#p6ba4f2de36)" d="M 426.951632 33.6211 
C 428.334682 33.6211 429.661272 33.23537 430.639235 32.548861 
C 431.617199 31.862352 432.166691 30.931116 432.166691 29.960246 
C 432.166691 28.989376 431.617199 28.05814 430.639235 27.371631 
C 429.661272 26.685123 428.334682 26.299392 426.951632 26.299392 
C 425.568582 26.299392 424.241992 26.685123 423.264029 27.371631 
C 422.286065 28.05814 421.736573 28.989376 421.736573 29.960246 
C 421.736573 30.931116 422.286065 31.862352 423.264029 32.548861 
C 424.241992 33.23537 425.568582 33.6211 426.951632 33.6211 
z
" style="fill:#0000ff;opacity:0.2;stroke:#0000ff;stroke-linejoin:miter;stroke-width:2;"/>
   </g>
   <g id="[&quot;g_s&quot;:2,&quot;g_t&quot;:2,&quot;coords&quot;:[[505.0, -286.0],[505.0, -288.0]],&quot;certainty&quot;:10]">
    <path clip-path="url(#p6ba4f2de36)" d="M 426.951632 32.289881 
C 428.334682 32.289881 429.661272 31.90415 430.639235 31.217641 
C 431.617199 30.531133 432.166691 29.599896 432.166691 28.629027 
C 432.166691 27.658157 431.617199 26.72692 430.639235 26.040412 
C 429.661272 25.353903 428.334682 24.968172 426.951632 24.968172 
C 425.568582 24.968172 424.241992 25.353903 423.264029 26.040412 
C 422.286065 26.72692 421.736573 27.658157 421.736573 28.629027 
C 421.736573 29.599896 422.286065 30.531133 423.264029 31.217641 
C 424.241992 31.90415 425.568582 32.289881 426.951632 32.289881 
z
" style="fill:#ff0000;opacity:0.2;stroke:#ff0000;stroke-linejoin:miter;stroke-width:2;"/>
   </g>
   <g id="patch_29">
    <path d="M 426.951632 29.960246 
Q 426.951632 29.294636 426.951632 30.57357 
" style="fill:none;opacity:0.5;stroke:#ff0000;stroke-linecap:round;stroke-width:2.75;"/>
    <path d="M 425.451632 32.07357 
L 426.951632 30.57357 
L 428.451632 32.07357 
" style="fill:none;opacity:0.5;stroke:#ff0000;stroke-linecap:round;stroke-width:2.75;"/>
   </g>
   <g id="[&quot;g_s&quot;:3,&quot;g_t&quot;:3,&quot;coords&quot;:[[505.0, -346.0],[505.0, -369.0]],&quot;certainty&quot;:11]">
    <path clip-path="url(#p6ba4f2de36)" d="M 426.951632 72.559277 
C 428.460414 72.559277 429.907602 72.138479 430.974472 71.389561 
C 432.041342 70.640642 432.640787 69.624748 432.640787 68.565617 
C 432.640787 67.506487 432.041342 66.490593 430.974472 65.741674 
C 429.907602 64.992755 428.460414 64.571958 426.951632 64.571958 
C 425.44285 64.571958 423.995662 64.992755 422.928792 65.741674 
C 421.861922 66.490593 421.262477 67.506487 421.262477 68.565617 
C 421.262477 69.624748 421.861922 70.640642 422.928792 71.389561 
C 423.995662 72.138479 425.44285 72.559277 426.951632 72.559277 
z
" style="fill:#0000ff;opacity:0.2;stroke:#0000ff;stroke-linejoin:miter;stroke-width:2;"/>
   </g>
   <g id="[&quot;g_s&quot;:3,&quot;g_t&quot;:3,&quot;coords&quot;:[[505.0, -369.0],[505.0, -346.0]],&quot;certainty&quot;:11]">
    <path clip-path="url(#p6ba4f2de36)" d="M 426.951632 87.868303 
C 428.460414 87.868303 429.907602 87.447506 430.974472 86.698587 
C 432.041342 85.949669 432.640787 84.933775 432.640787 83.874644 
C 432.640787 82.815513 432.041342 81.799619 430.974472 81.050701 
C 429.907602 80.301782 428.460414 79.880985 426.951632 79.880985 
C 425.44285 79.880985 423.995662 80.301782 422.928792 81.050701 
C 421.861922 81.799619 421.262477 82.815513 421.262477 83.874644 
C 421.262477 84.933775 421.861922 85.949669 422.928792 86.698587 
C 423.995662 87.447506 425.44285 87.868303 426.951632 87.868303 
z
" style="fill:#ff0000;opacity:0.2;stroke:#ff0000;stroke-linejoin:miter;stroke-width:2;"/>
   </g>
   <g id="patch_30">
    <path d="M 426.951632 68.565617 
Q 426.951632 75.220335 426.951632 79.753732 
" style="fill:none;opacity:0.5;stroke:#ff0000;stroke-linecap:round;stroke-width:3;"/>
    <path d="M 428.451632 78.253732 
L 426.951632 79.753732 
L 425.451632 78.253732 
" style="fill:none;opacity:0.5;stroke:#ff0000;stroke-linecap:round;stroke-width:3;"/>
   </g>
   <g id="[&quot;g_s&quot;:4,&quot;g_t&quot;:4,&quot;coords&quot;:[[188.0, -494.0],[219.0, -492.0]],&quot;certainty&quot;:11]">
    <path clip-path="url(#p6ba4f2de36)" d="M 126.374604 171.069534 
C 127.883386 171.069534 129.330575 170.648737 130.397444 169.899818 
C 131.464314 169.1509 132.063759 168.135006 132.063759 167.075875 
C 132.063759 166.016744 131.464314 165.00085 130.397444 164.251932 
C 129.330575 163.503013 127.883386 163.082216 126.374604 163.082216 
C 124.865823 163.082216 123.418634 163.503013 122.351764 164.251932 
C 121.284894 165.00085 120.685449 166.016744 120.685449 167.075875 
C 120.685449 168.135006 121.284894 169.1509 122.351764 169.899818 
C 123.418634 170.648737 124.865823 171.069534 126.374604 171.069534 
z
" style="fill:#0000ff;opacity:0.2;stroke:#0000ff;stroke-linejoin:miter;stroke-width:2;"/>
   </g>
   <g id="[&quot;g_s&quot;:4,&quot;g_t&quot;:4,&quot;coords&quot;:[[219.0, -492.0],[188.0, -494.0]],&quot;certainty&quot;:11]">
    <path clip-path="url(#p6ba4f2de36)" d="M 155.768572 169.738314 
C 157.277354 169.738314 158.724543 169.317517 159.791412 168.568599 
C 160.858282 167.81968 161.457727 166.803786 161.457727 165.744655 
C 161.457727 164.685525 160.858282 163.66963 159.791412 162.920712 
C 158.724543 162.171793 157.277354 161.750996 155.768572 161.750996 
C 154.259791 161.750996 152.812602 162.171793 151.745732 162.920712 
C 150.678862 163.66963 150.079417 164.685525 150.079417 165.744655 
C 150.079417 166.803786 150.678862 167.81968 151.745732 168.568599 
C 152.812602 169.317517 154.259791 169.738314 155.768572 169.738314 
z
" style="fill:#ff0000;opacity:0.2;stroke:#ff0000;stroke-linejoin:miter;stroke-width:2;"/>
   </g>
   <g id="patch_31">
    <path d="M 126.374604 167.075875 
Q 140.072294 166.455522 151.650835 165.931143 
" style="fill:none;opacity:0.5;stroke:#ff0000;stroke-linecap:round;stroke-width:3;"/>
    <path d="M 150.084507 164.500543 
L 151.650835 165.931143 
L 150.220235 167.497471 
" style="fill:none;opacity:0.5;stroke:#ff0000;stroke-linecap:round;stroke-width:3;"/>
   </g>
   <g id="[&quot;g_s&quot;:5,&quot;g_t&quot;:5,&quot;coords&quot;:[[188.0, -496.0],[219.0, -494.0]],&quot;certainty&quot;:1]">
    <path clip-path="url(#p6ba4f2de36)" d="M 126.374604 169.072705 
C 126.626068 169.072705 126.867266 169.002572 127.045078 168.877752 
C 127.222889 168.752932 127.322797 168.583616 127.322797 168.407095 
C 127.322797 168.230573 127.222889 168.061257 127.045078 167.936437 
C 126.867266 167.811618 126.626068 167.741485 126.374604 167.741485 
C 126.123141 167.741485 125.881942 167.811618 125.704131 167.936437 
C 125.526319 168.061257 125.426412 168.230573 125.426412 168.407095 
C 125.426412 168.583616 125.526319 168.752932 125.704131 168.877752 
C 125.881942 169.002572 126.123141 169.072705 126.374604 169.072705 
z
" style="fill:#0000ff;opacity:0.2;stroke:#0000ff;stroke-linejoin:miter;stroke-width:2;"/>
   </g>
   <g id="[&quot;g_s&quot;:5,&quot;g_t&quot;:5,&quot;coords&quot;:[[219.0, -494.0],[188.0, -496.0]],&quot;certainty&quot;:1]">
    <path clip-path="url(#p6ba4f2de36)" d="M 155.768572 167.741485 
C 156.020036 167.741485 156.261234 167.671352 156.439046 167.546532 
C 156.616857 167.421712 156.716765 167.252397 156.716765 167.075875 
C 156.716765 166.899353 156.616857 166.730038 156.439046 166.605218 
C 156.261234 166.480398 156.020036 166.410265 155.768572 166.410265 
C 155.517109 166.410265 155.27591 166.480398 155.098099 166.605218 
C 154.920287 166.730038 154.82038 166.899353 154.82038 167.075875 
C 154.82038 167.252397 154.920287 167.421712 155.098099 167.546532 
C 155.27591 167.671352 155.517109 167.741485 155.768572 167.741485 
z
" style="fill:#ff0000;opacity:0.2;stroke:#ff0000;stroke-linejoin:miter;stroke-width:2;"/>
   </g>
   <g id="patch_32">
    <path d="M 126.374604 168.407095 
Q 140.072294 167.786742 153.416792 167.182384 
" style="fill:none;opacity:0.5;stroke:#ff0000;stroke-linecap:round;stroke-width:0.5;"/>
    <path d="M 151.850464 165.751784 
L 153.416792 167.182384 
L 151.986192 168.748712 
" style="fill:none;opacity:0.5;stroke:#ff0000;stroke-linecap:round;stroke-width:0.5;"/>
   </g>
   <g id="[&quot;g_s&quot;:6,&quot;g_t&quot;:6,&quot;coords&quot;:[[505.0, -645.0],[505.0, -618.0]],&quot;certainty&quot;:11]">
    <path clip-path="url(#p6ba4f2de36)" d="M 426.951632 271.576621 
C 428.460414 271.576621 429.907602 271.155824 430.974472 270.406906 
C 432.041342 269.657987 432.640787 268.642093 432.640787 267.582962 
C 432.640787 266.523831 432.041342 265.507937 430.974472 264.759019 
C 429.907602 264.0101 428.460414 263.589303 426.951632 263.589303 
C 425.44285 263.589303 423.995662 264.0101 422.928792 264.759019 
C 421.861922 265.507937 421.262477 266.523831 421.262477 267.582962 
C 421.262477 268.642093 421.861922 269.657987 422.928792 270.406906 
C 423.995662 271.155824 425.44285 271.576621 426.951632 271.576621 
z
" style="fill:#0000ff;opacity:0.2;stroke:#0000ff;stroke-linejoin:miter;stroke-width:2;"/>
   </g>
   <g id="[&quot;g_s&quot;:6,&quot;g_t&quot;:6,&quot;coords&quot;:[[505.0, -618.0],[505.0, -645.0]],&quot;certainty&quot;:11]">
    <path clip-path="url(#p6ba4f2de36)" d="M 426.951632 253.605155 
C 428.460414 253.605155 429.907602 253.184358 430.974472 252.43544 
C 432.041342 251.686521 432.640787 250.670627 432.640787 249.611496 
C 432.640787 248.552365 432.041342 247.536471 430.974472 246.787553 
C 429.907602 246.038634 428.460414 245.617837 426.951632 245.617837 
C 425.44285 245.617837 423.995662 246.038634 422.928792 246.787553 
C 421.861922 247.536471 421.262477 248.552365 421.262477 249.611496 
C 421.262477 250.670627 421.861922 251.686521 422.928792 252.43544 
C 423.995662 253.184358 425.44285 253.605155 426.951632 253.605155 
z
" style="fill:#ff0000;opacity:0.2;stroke:#ff0000;stroke-linejoin:miter;stroke-width:2;"/>
   </g>
   <g id="patch_33">
    <path d="M 426.951632 267.582962 
Q 426.951632 259.5954 426.951632 253.729159 
" style="fill:none;opacity:0.5;stroke:#ff0000;stroke-linecap:round;stroke-width:3;"/>
    <path d="M 425.451632 255.229159 
L 426.951632 253.729159 
L 428.451632 255.229159 
" style="fill:none;opacity:0.5;stroke:#ff0000;stroke-linecap:round;stroke-width:3;"/>
   </g>
   <g id="[&quot;g_s&quot;:7,&quot;g_t&quot;:7,&quot;coords&quot;:[[505.0, -702.0],[505.0, -700.0]],&quot;certainty&quot;:11]">
    <path clip-path="url(#p6ba4f2de36)" d="M 426.951632 309.516383 
C 428.460414 309.516383 429.907602 309.095585 430.974472 308.346667 
C 432.041342 307.597748 432.640787 306.581854 432.640787 305.522723 
C 432.640787 304.463593 432.041342 303.447699 430.974472 302.69878 
C 429.907602 301.949862 428.460414 301.529064 426.951632 301.529064 
C 425.44285 301.529064 423.995662 301.949862 422.928792 302.69878 
C 421.861922 303.447699 421.262477 304.463593 421.262477 305.522723 
C 421.262477 306.581854 421.861922 307.597748 422.928792 308.346667 
C 423.995662 309.095585 425.44285 309.516383 426.951632 309.516383 
z
" style="fill:#0000ff;opacity:0.2;stroke:#0000ff;stroke-linejoin:miter;stroke-width:2;"/>
   </g>
   <g id="[&quot;g_s&quot;:7,&quot;g_t&quot;:7,&quot;coords&quot;:[[505.0, -700.0],[505.0, -702.0]],&quot;certainty&quot;:11]">
    <path clip-path="url(#p6ba4f2de36)" d="M 426.951632 308.185163 
C 428.460414 308.185163 429.907602 307.764366 430.974472 307.015447 
C 432.041342 306.266529 432.640787 305.250635 432.640787 304.191504 
C 432.640787 303.132373 432.041342 302.116479 430.974472 301.36756 
C 429.907602 300.618642 428.460414 300.197845 426.951632 300.197845 
C 425.44285 300.197845 423.995662 300.618642 422.928792 301.36756 
C 421.861922 302.116479 421.262477 303.132373 421.262477 304.191504 
C 421.262477 305.250635 421.861922 306.266529 422.928792 307.015447 
C 423.995662 307.764366 425.44285 308.185163 426.951632 308.185163 
z
" style="fill:#ff0000;opacity:0.2;stroke:#ff0000;stroke-linejoin:miter;stroke-width:2;"/>
   </g>
   <g id="patch_34">
    <path d="M 426.951632 305.522723 
Q 426.951632 304.857114 426.951632 306.312824 
" style="fill:none;opacity:0.5;stroke:#ff0000;stroke-linecap:round;stroke-width:3;"/>
    <path d="M 425.451632 307.812824 
L 426.951632 306.312824 
L 428.451632 307.812824 
" style="fill:none;opacity:0.5;stroke:#ff0000;stroke-linecap:round;stroke-width:3;"/>
   </g>
   <g id="[&quot;g_s&quot;:8,&quot;g_t&quot;:8,&quot;coords&quot;:[[116.0, -518.0],[116.0, -523.0]],&quot;certainty&quot;:11]">
    <path clip-path="url(#p6ba4f2de36)" d="M 58.104743 187.04417 
C 59.613525 187.04417 61.060713 186.623373 62.127583 185.874455 
C 63.194453 185.125536 63.793898 184.109642 63.793898 183.050511 
C 63.793898 181.991381 63.194453 180.975486 62.127583 180.226568 
C 61.060713 179.477649 59.613525 179.056852 58.104743 179.056852 
C 56.595961 179.056852 55.148773 179.477649 54.081903 180.226568 
C 53.015033 180.975486 52.415588 181.991381 52.415588 183.050511 
C 52.415588 184.109642 53.015033 185.125536 54.081903 185.874455 
C 55.148773 186.623373 56.595961 187.04417 58.104743 187.04417 
z
" style="fill:#0000ff;opacity:0.2;stroke:#0000ff;stroke-linejoin:miter;stroke-width:2;"/>
   </g>
   <g id="[&quot;g_s&quot;:8,&quot;g_t&quot;:8,&quot;coords&quot;:[[116.0, -523.0],[116.0, -518.0]],&quot;certainty&quot;:11]">
    <path clip-path="url(#p6ba4f2de36)" d="M 58.104743 190.37222 
C 59.613525 190.37222 61.060713 189.951423 62.127583 189.202504 
C 63.194453 188.453585 63.793898 187.437691 63.793898 186.378561 
C 63.793898 185.31943 63.194453 184.303536 62.127583 183.554617 
C 61.060713 182.805699 59.613525 182.384902 58.104743 182.384902 
C 56.595961 182.384902 55.148773 182.805699 54.081903 183.554617 
C 53.015033 184.303536 52.415588 185.31943 52.415588 186.378561 
C 52.415588 187.437691 53.015033 188.453585 54.081903 189.202504 
C 55.148773 189.951423 56.595961 190.37222 58.104743 190.37222 
z
" style="fill:#ff0000;opacity:0.2;stroke:#ff0000;stroke-linejoin:miter;stroke-width:2;"/>
   </g>
   <g id="patch_35">
    <path d="M 58.104743 183.050511 
Q 58.104743 183.715146 58.104743 182.258461 
" style="fill:none;opacity:0.5;stroke:#ff0000;stroke-linecap:round;stroke-width:3;"/>
    <path d="M 59.604743 180.758461 
L 58.104743 182.258461 
L 56.604743 180.758461 
" style="fill:none;opacity:0.5;stroke:#ff0000;stroke-linecap:round;stroke-width:3;"/>
   </g>
   <g id="patch_36">
    <path clip-path="url(#p6ba4f2de36)" d="M 58.104743 153.430873 
C 59.362061 153.430873 60.568052 153.080209 61.45711 152.45611 
C 62.346168 151.832011 62.845706 150.985433 62.845706 150.102824 
C 62.845706 149.220215 62.346168 148.373636 61.45711 147.749538 
C 60.568052 147.125439 59.362061 146.774775 58.104743 146.774775 
C 56.847425 146.774775 55.641434 147.125439 54.752376 147.749538 
C 53.863318 148.373636 53.36378 149.220215 53.36378 150.102824 
C 53.36378 150.985433 53.863318 151.832011 54.752376 152.45611 
C 55.641434 153.080209 56.847425 153.430873 58.104743 153.430873 
z
" style="fill:#008000;opacity:0.2;stroke:#008000;stroke-linejoin:miter;stroke-width:2;"/>
   </g>
   <g id="patch_37">
    <path clip-path="url(#p6ba4f2de36)" d="M 426.951632 32.622686 
C 428.20895 32.622686 429.414941 32.272021 430.303999 31.647923 
C 431.193057 31.023824 431.692595 30.177245 431.692595 29.294636 
C 431.692595 28.412027 431.193057 27.565449 430.303999 26.94135 
C 429.414941 26.317251 428.20895 25.966587 426.951632 25.966587 
C 425.694314 25.966587 424.488323 26.317251 423.599265 26.94135 
C 422.710207 27.565449 422.210669 28.412027 422.210669 29.294636 
C 422.210669 30.177245 422.710207 31.023824 423.599265 31.647923 
C 424.488323 32.272021 425.694314 32.622686 426.951632 32.622686 
z
" style="fill:#008000;opacity:0.2;stroke:#008000;stroke-linejoin:miter;stroke-width:2;"/>
   </g>
   <g id="patch_38">
    <path clip-path="url(#p6ba4f2de36)" d="M 426.951632 79.54818 
C 428.20895 79.54818 429.414941 79.197516 430.303999 78.573417 
C 431.193057 77.949318 431.692595 77.10274 431.692595 76.220131 
C 431.692595 75.337522 431.193057 74.490943 430.303999 73.866844 
C 429.414941 73.242746 428.20895 72.892081 426.951632 72.892081 
C 425.694314 72.892081 424.488323 73.242746 423.599265 73.866844 
C 422.710207 74.490943 422.210669 75.337522 422.210669 76.220131 
C 422.210669 77.10274 422.710207 77.949318 423.599265 78.573417 
C 424.488323 79.197516 425.694314 79.54818 426.951632 79.54818 
z
" style="fill:#008000;opacity:0.2;stroke:#008000;stroke-linejoin:miter;stroke-width:2;"/>
   </g>
   <g id="patch_39">
    <path clip-path="url(#p6ba4f2de36)" d="M 141.071588 169.738314 
C 142.328906 169.738314 143.534897 169.38765 144.423955 168.763551 
C 145.313013 168.139453 145.812551 167.292874 145.812551 166.410265 
C 145.812551 165.527656 145.313013 164.681078 144.423955 164.056979 
C 143.534897 163.43288 142.328906 163.082216 141.071588 163.082216 
C 139.81427 163.082216 138.608279 163.43288 137.719221 164.056979 
C 136.830163 164.681078 136.330626 165.527656 136.330626 166.410265 
C 136.330626 167.292874 136.830163 168.139453 137.719221 168.763551 
C 138.608279 169.38765 139.81427 169.738314 141.071588 169.738314 
z
" style="fill:#008000;opacity:0.2;stroke:#008000;stroke-linejoin:miter;stroke-width:2;"/>
   </g>
   <g id="patch_40">
    <path clip-path="url(#p6ba4f2de36)" d="M 141.071588 171.069534 
C 142.328906 171.069534 143.534897 170.71887 144.423955 170.094771 
C 145.313013 169.470672 145.812551 168.624094 145.812551 167.741485 
C 145.812551 166.858876 145.313013 166.012297 144.423955 165.388199 
C 143.534897 164.7641 142.328906 164.413436 141.071588 164.413436 
C 139.81427 164.413436 138.608279 164.7641 137.719221 165.388199 
C 136.830163 166.012297 136.330626 166.858876 136.330626 167.741485 
C 136.330626 168.624094 136.830163 169.470672 137.719221 170.094771 
C 138.608279 170.71887 139.81427 171.069534 141.071588 171.069534 
z
" style="fill:#008000;opacity:0.2;stroke:#008000;stroke-linejoin:miter;stroke-width:2;"/>
   </g>
   <g id="patch_41">
    <path clip-path="url(#p6ba4f2de36)" d="M 426.951632 261.925278 
C 428.20895 261.925278 429.414941 261.574614 430.303999 260.950515 
C 431.193057 260.326417 431.692595 259.479838 431.692595 258.597229 
C 431.692595 257.71462 431.193057 256.868042 430.303999 256.243943 
C 429.414941 255.619844 428.20895 255.26918 426.951632 255.26918 
C 425.694314 255.26918 424.488323 255.619844 423.599265 256.243943 
C 422.710207 256.868042 422.210669 257.71462 422.210669 258.597229 
C 422.210669 259.479838 422.710207 260.326417 423.599265 260.950515 
C 424.488323 261.574614 425.694314 261.925278 426.951632 261.925278 
z
" style="fill:#008000;opacity:0.2;stroke:#008000;stroke-linejoin:miter;stroke-width:2;"/>
   </g>
   <g id="patch_42">
    <path clip-path="url(#p6ba4f2de36)" d="M 426.951632 308.185163 
C 428.20895 308.185163 429.414941 307.834499 430.303999 307.2104 
C 431.193057 306.586301 431.692595 305.739723 431.692595 304.857114 
C 431.692595 303.974505 431.193057 303.127926 430.303999 302.503827 
C 429.414941 301.879729 428.20895 301.529064 426.951632 301.529064 
C 425.694314 301.529064 424.488323 301.879729 423.599265 302.503827 
C 422.710207 303.127926 422.210669 303.974505 422.210669 304.857114 
C 422.210669 305.739723 422.710207 306.586301 423.599265 307.2104 
C 424.488323 307.834499 425.694314 308.185163 426.951632 308.185163 
z
" style="fill:#008000;opacity:0.2;stroke:#008000;stroke-linejoin:miter;stroke-width:2;"/>
   </g>
   <g id="patch_43">
    <path clip-path="url(#p6ba4f2de36)" d="M 58.104743 188.042585 
C 59.362061 188.042585 60.568052 187.691921 61.45711 187.067822 
C 62.346168 186.443723 62.845706 185.597145 62.845706 184.714536 
C 62.845706 183.831927 62.346168 182.985349 61.45711 182.36125 
C 60.568052 181.737151 59.362061 181.386487 58.104743 181.386487 
C 56.847425 181.386487 55.641434 181.737151 54.752376 182.36125 
C 53.863318 182.985349 53.36378 183.831927 53.36378 184.714536 
C 53.36378 185.597145 53.863318 186.443723 54.752376 187.067822 
C 55.641434 187.691921 56.847425 188.042585 58.104743 188.042585 
z
" style="fill:#008000;opacity:0.2;stroke:#008000;stroke-linejoin:miter;stroke-width:2;"/>
   </g>
   <g id="patch_44">
    <path clip-path="url(#p6ba4f2de36)" d="M 58.104743 160.419777 
C 63.134015 160.419777 67.957978 159.017119 71.51421 156.520724 
C 75.070442 154.024329 77.068593 150.638015 77.068593 147.10758 
C 77.068593 143.577144 75.070442 140.19083 71.51421 137.694435 
C 67.957978 135.19804 63.134015 133.795383 58.104743 133.795383 
C 53.075471 133.795383 48.251508 135.19804 44.695276 137.694435 
C 41.139044 140.19083 39.140893 143.577144 39.140893 147.10758 
C 39.140893 150.638015 41.139044 154.024329 44.695276 156.520724 
C 48.251508 159.017119 53.075471 160.419777 58.104743 160.419777 
z
" style="fill:none;opacity:0.2;stroke:#ff0000;stroke-linejoin:miter;stroke-width:2;"/>
   </g>
   <g id="patch_45">
    <path clip-path="url(#p6ba4f2de36)" d="M 58.104743 166.410265 
C 63.134015 166.410265 67.957978 165.007608 71.51421 162.511213 
C 75.070442 160.014818 77.068593 156.628504 77.068593 153.098068 
C 77.068593 149.567632 75.070442 146.181319 71.51421 143.684923 
C 67.957978 141.188528 63.134015 139.785871 58.104743 139.785871 
C 53.075471 139.785871 48.251508 141.188528 44.695276 143.684923 
C 41.139044 146.181319 39.140893 149.567632 39.140893 153.098068 
C 39.140893 156.628504 41.139044 160.014818 44.695276 162.511213 
C 48.251508 165.007608 53.075471 166.410265 58.104743 166.410265 
z
" style="fill:none;opacity:0.2;stroke:#0000ff;stroke-linejoin:miter;stroke-width:2;"/>
   </g>
   <g id="patch_46">
    <path clip-path="url(#p6ba4f2de36)" d="M 58.104743 153.763678 
C 60.619379 153.763678 63.03136 153.06235 64.809477 151.814152 
C 66.587593 150.565954 67.586668 148.872797 67.586668 147.10758 
C 67.586668 145.342362 66.587593 143.649205 64.809477 142.401007 
C 63.03136 141.15281 60.619379 140.451481 58.104743 140.451481 
C 55.590107 140.451481 53.178126 141.15281 51.400009 142.401007 
C 49.621893 143.649205 48.622818 145.342362 48.622818 147.10758 
C 48.622818 148.872797 49.621893 150.565954 51.400009 151.814152 
C 53.178126 153.06235 55.590107 153.763678 58.104743 153.763678 
z
" style="fill:none;opacity:0.2;stroke:#008000;stroke-linejoin:miter;stroke-width:2;"/>
   </g>
   <g id="patch_47">
    <path clip-path="url(#p6ba4f2de36)" d="M 58.104743 159.754167 
C 60.619379 159.754167 63.03136 159.052838 64.809477 157.804641 
C 66.587593 156.556443 67.586668 154.863286 67.586668 153.098068 
C 67.586668 151.33285 66.587593 149.639693 64.809477 148.391496 
C 63.03136 147.143298 60.619379 146.44197 58.104743 146.44197 
C 55.590107 146.44197 53.178126 147.143298 51.400009 148.391496 
C 49.621893 149.639693 48.622818 151.33285 48.622818 153.098068 
C 48.622818 154.863286 49.621893 156.556443 51.400009 157.804641 
C 53.178126 159.052838 55.590107 159.754167 58.104743 159.754167 
z
" style="fill:none;opacity:0.2;stroke:#008000;stroke-linejoin:miter;stroke-width:2;"/>
   </g>
   <g id="patch_48">
    <path d="M 58.104743 150.102824 
Q 242.528188 89.69873 426.951632 29.294636 
" style="fill:none;opacity:0.5;stroke:#008000;stroke-linecap:round;stroke-width:2;"/>
   </g>
   <g id="patch_49">
    <path d="M 58.104743 148.521793 
Q 58.104743 149.103922 58.104743 149.68605 
" style="fill:none;opacity:0.5;stroke:#800080;stroke-linecap:round;stroke-width:2;"/>
    <path d="M 56.604743 150.021793 
L 58.104743 148.521793 
L 59.604743 150.021793 
" style="fill:none;opacity:0.5;stroke:#800080;stroke-linecap:round;stroke-width:2;"/>
    <path d="M 59.604743 148.18605 
L 58.104743 149.68605 
L 56.604743 148.18605 
" style="fill:none;opacity:0.5;stroke:#800080;stroke-linecap:round;stroke-width:2;"/>
   </g>
   <g id="patch_50">
    <path d="M 426.951632 29.294636 
Q 426.951632 52.757384 426.951632 76.220131 
" style="fill:none;opacity:0.5;stroke:#008000;stroke-linecap:round;stroke-width:2;"/>
   </g>
   <g id="patch_51">
    <path d="M 426.951632 30.04324 
Q 426.951632 29.294636 426.951632 28.546033 
" style="fill:none;opacity:0.5;stroke:#800080;stroke-linecap:round;stroke-width:2;"/>
    <path d="M 425.451632 31.54324 
L 426.951632 30.04324 
L 428.451632 31.54324 
" style="fill:none;opacity:0.5;stroke:#800080;stroke-linecap:round;stroke-width:2;"/>
    <path d="M 428.451632 27.046033 
L 426.951632 28.546033 
L 425.451632 27.046033 
" style="fill:none;opacity:0.5;stroke:#800080;stroke-linecap:round;stroke-width:2;"/>
   </g>
   <g id="patch_52">
    <path d="M 426.951632 76.220131 
Q 284.01161 121.315198 141.071588 166.410265 
" style="fill:none;opacity:0.5;stroke:#008000;stroke-linecap:round;stroke-width:2;"/>
   </g>
   <g id="patch_53">
    <path d="M 426.951632 82.46043 
Q 426.951632 77.219927 426.951632 71.979423 
" style="fill:none;opacity:0.5;stroke:#800080;stroke-linecap:round;stroke-width:2;"/>
    <path d="M 428.451632 80.96043 
L 426.951632 82.46043 
L 425.451632 80.96043 
" style="fill:none;opacity:0.5;stroke:#800080;stroke-linecap:round;stroke-width:2;"/>
    <path d="M 425.451632 73.479423 
L 426.951632 71.979423 
L 428.451632 73.479423 
" style="fill:none;opacity:0.5;stroke:#800080;stroke-linecap:round;stroke-width:2;"/>
   </g>
   <g id="patch_54">
    <path d="M 141.071588 166.410265 
Q 141.071588 167.075875 141.071588 167.741485 
" style="fill:none;opacity:0.5;stroke:#008000;stroke-linecap:round;stroke-width:2;"/>
   </g>
   <g id="patch_55">
    <path d="M 154.355807 165.808638 
Q 142.070883 166.365008 129.785959 166.921379 
" style="fill:none;opacity:0.5;stroke:#800080;stroke-linecap:round;stroke-width:2;"/>
    <path d="M 152.789479 164.378038 
L 154.355807 165.808638 
L 152.925206 167.374966 
" style="fill:none;opacity:0.5;stroke:#800080;stroke-linecap:round;stroke-width:2;"/>
    <path d="M 131.352286 168.351979 
L 129.785959 166.921379 
L 131.216559 165.355051 
" style="fill:none;opacity:0.5;stroke:#800080;stroke-linecap:round;stroke-width:2;"/>
   </g>
   <g id="patch_56">
    <path d="M 141.071588 167.741485 
Q 141.071588 167.741485 141.071588 167.741485 
" style="fill:none;opacity:0.5;stroke:#008000;stroke-linecap:round;stroke-width:2;"/>
   </g>
   <g id="patch_57">
    <path d="M 154.355807 167.139858 
Q 142.070883 167.696228 129.785959 168.252598 
" style="fill:none;opacity:0.5;stroke:#800080;stroke-linecap:round;stroke-width:2;"/>
    <path d="M 152.789479 165.709257 
L 154.355807 167.139858 
L 152.925206 168.706185 
" style="fill:none;opacity:0.5;stroke:#800080;stroke-linecap:round;stroke-width:2;"/>
    <path d="M 131.352286 169.683199 
L 129.785959 168.252598 
L 131.216559 166.686271 
" style="fill:none;opacity:0.5;stroke:#800080;stroke-linecap:round;stroke-width:2;"/>
   </g>
   <g id="patch_58">
    <path d="M 141.071588 167.741485 
Q 284.01161 213.169357 426.951632 258.597229 
" style="fill:none;opacity:0.5;stroke:#008000;stroke-linecap:round;stroke-width:2;"/>
   </g>
   <g id="patch_59">
    <path d="M 154.355807 167.139858 
Q 142.070883 167.696228 129.785959 168.252598 
" style="fill:none;opacity:0.5;stroke:#800080;stroke-linecap:round;stroke-width:2;"/>
    <path d="M 152.789479 165.709257 
L 154.355807 167.139858 
L 152.925206 168.706185 
" style="fill:none;opacity:0.5;stroke:#800080;stroke-linecap:round;stroke-width:2;"/>
    <path d="M 131.352286 169.683199 
L 129.785959 168.252598 
L 131.216559 166.686271 
" style="fill:none;opacity:0.5;stroke:#800080;stroke-linecap:round;stroke-width:2;"/>
   </g>
   <g id="patch_60">
    <path d="M 426.951632 258.597229 
Q 426.951632 281.727171 426.951632 304.857114 
" style="fill:none;opacity:0.5;stroke:#008000;stroke-linecap:round;stroke-width:2;"/>
   </g>
   <g id="patch_61">
    <path d="M 426.951632 251.02571 
Q 426.951632 257.599058 426.951632 264.172407 
" style="fill:none;opacity:0.5;stroke:#800080;stroke-linecap:round;stroke-width:2;"/>
    <path d="M 425.451632 252.52571 
L 426.951632 251.02571 
L 428.451632 252.52571 
" style="fill:none;opacity:0.5;stroke:#800080;stroke-linecap:round;stroke-width:2;"/>
    <path d="M 428.451632 262.672407 
L 426.951632 264.172407 
L 425.451632 262.672407 
" style="fill:none;opacity:0.5;stroke:#800080;stroke-linecap:round;stroke-width:2;"/>
   </g>
   <g id="patch_62">
    <path d="M 426.951632 304.857114 
Q 242.528188 244.785825 58.104743 184.714536 
" style="fill:none;opacity:0.5;stroke:#008000;stroke-linecap:round;stroke-width:2;"/>
   </g>
   <g id="patch_63">
    <path d="M 426.951632 305.605717 
Q 426.951632 304.857114 426.951632 304.10851 
" style="fill:none;opacity:0.5;stroke:#800080;stroke-linecap:round;stroke-width:2;"/>
    <path d="M 425.451632 307.105717 
L 426.951632 305.605717 
L 428.451632 307.105717 
" style="fill:none;opacity:0.5;stroke:#800080;stroke-linecap:round;stroke-width:2;"/>
    <path d="M 428.451632 302.60851 
L 426.951632 304.10851 
L 425.451632 302.60851 
" style="fill:none;opacity:0.5;stroke:#800080;stroke-linecap:round;stroke-width:2;"/>
   </g>
   <g id="patch_64">
    <path d="M 58.104743 184.714536 
Q 58.104743 167.40868 58.104743 150.102824 
" style="fill:none;opacity:0.5;stroke:#008000;stroke-linecap:round;stroke-width:2;"/>
   </g>
   <g id="patch_65">
    <path d="M 58.104743 184.964347 
Q 58.104743 185.713926 58.104743 186.463505 
" style="fill:none;opacity:0.5;stroke:#800080;stroke-linecap:round;stroke-width:2;"/>
    <path d="M 59.604743 183.464347 
L 58.104743 184.964347 
L 56.604743 183.464347 
" style="fill:none;opacity:0.5;stroke:#800080;stroke-linecap:round;stroke-width:2;"/>
    <path d="M 56.604743 187.963505 
L 58.104743 186.463505 
L 59.604743 187.963505 
" style="fill:none;opacity:0.5;stroke:#800080;stroke-linecap:round;stroke-width:2;"/>
   </g>
   <g id="line2d_1">
    <path clip-path="url(#p6ba4f2de36)" d="M 58.104743 147.10758 
L 426.951632 28.629027 
L 426.951632 83.874644 
L 155.768572 165.744655 
L 155.768572 167.075875 
L 426.951632 249.611496 
L 426.951632 304.191504 
L 58.104743 186.378561 
" style="fill:none;stroke:#ff0000;stroke-linecap:square;stroke-width:0.2;"/>
   </g>
   <g id="line2d_2">
    <path clip-path="url(#p6ba4f2de36)" d="M 58.104743 153.098068 
L 426.951632 29.960246 
L 426.951632 68.565617 
L 126.374604 167.075875 
L 126.374604 168.407095 
L 426.951632 267.582962 
L 426.951632 305.522723 
L 58.104743 183.050511 
" style="fill:none;stroke:#0000ff;stroke-linecap:square;stroke-width:0.2;"/>
   </g>
  </g>
 </g>
 <defs>
  <clipPath id="p6ba4f2de36">
   <rect height="307.51175" width="409.903625" x="37.576375" y="13.32"/>
  </clipPath>
 </defs>
</svg>
