<?xml version="1.0" encoding="utf-8" standalone="no"?>
<!DOCTYPE svg PUBLIC "-//W3C//DTD SVG 1.1//EN"
  "http://www.w3.org/Graphics/SVG/1.1/DTD/svg11.dtd">
<!-- Created with matplotlib (http://matplotlib.org/) -->
<svg height="345.6pt" version="1.1" viewBox="0 0 460.8 345.6" width="460.8pt" xmlns="http://www.w3.org/2000/svg" xmlns:xlink="http://www.w3.org/1999/xlink">
 <defs>
  <style type="text/css">
*{stroke-linecap:butt;stroke-linejoin:round;}
  </style>
 </defs>
 <g id="figure_1">
  <g id="patch_1">
   <path d="M 0 345.6 
L 460.8 345.6 
L 460.8 0 
L 0 0 
z
" style="fill:#ffffff;"/>
  </g>
  <g id="axes_1">
   <g id="patch_2">
    <path clip-path="url(#pca16ab46d5)" d="M 73.995454 122.799949 
C 74.467173 122.799949 74.919636 122.691456 75.253191 122.498365 
C 75.586747 122.305274 75.774163 122.043349 75.774163 121.770276 
C 75.774163 121.497204 75.586747 121.235279 75.253191 121.042188 
C 74.919636 120.849097 74.467173 120.740604 73.995454 120.740604 
C 73.523735 120.740604 73.071272 120.849097 72.737716 121.042188 
C 72.40416 121.235279 72.216744 121.497204 72.216744 121.770276 
C 72.216744 122.043349 72.40416 122.305274 72.737716 122.498365 
C 73.071272 122.691456 73.523735 122.799949 73.995454 122.799949 
z
" style="fill:#ff0000;opacity:0.2;stroke:#ff0000;stroke-linejoin:miter;stroke-width:2;"/>
   </g>
   <g id="patch_3">
    <path clip-path="url(#pca16ab46d5)" d="M 419.954469 31.159079 
C 420.426188 31.159079 420.878651 31.050587 421.212207 30.857495 
C 421.545763 30.664404 421.733179 30.402479 421.733179 30.129407 
C 421.733179 29.856334 421.545763 29.59441 421.212207 29.401318 
C 420.878651 29.208227 420.426188 29.099734 419.954469 29.099734 
C 419.48275 29.099734 419.030287 29.208227 418.696731 29.401318 
C 418.363176 29.59441 418.17576 29.856334 418.17576 30.129407 
C 418.17576 30.402479 418.363176 30.664404 418.696731 30.857495 
C 419.030287 31.050587 419.48275 31.159079 419.954469 31.159079 
z
" style="fill:#ff0000;opacity:0.2;stroke:#ff0000;stroke-linejoin:miter;stroke-width:2;"/>
   </g>
   <g id="patch_4">
    <path clip-path="url(#pca16ab46d5)" d="M 419.954469 73.890496 
C 420.426188 73.890496 420.878651 73.782003 421.212207 73.588912 
C 421.545763 73.395821 421.733179 73.133896 421.733179 72.860824 
C 421.733179 72.587751 421.545763 72.325826 421.212207 72.132735 
C 420.878651 71.939644 420.426188 71.831151 419.954469 71.831151 
C 419.48275 71.831151 419.030287 71.939644 418.696731 72.132735 
C 418.363176 72.325826 418.17576 72.587751 418.17576 72.860824 
C 418.17576 73.133896 418.363176 73.395821 418.696731 73.588912 
C 419.030287 73.782003 419.48275 73.890496 419.954469 73.890496 
z
" style="fill:#ff0000;opacity:0.2;stroke:#ff0000;stroke-linejoin:miter;stroke-width:2;"/>
   </g>
   <g id="patch_5">
    <path clip-path="url(#pca16ab46d5)" d="M 165.598998 137.215367 
C 166.070717 137.215367 166.523179 137.106874 166.856735 136.913783 
C 167.190291 136.720691 167.377707 136.458767 167.377707 136.185694 
C 167.377707 135.912622 167.190291 135.650697 166.856735 135.457606 
C 166.523179 135.264514 166.070717 135.156021 165.598998 135.156021 
C 165.127278 135.156021 164.674816 135.264514 164.34126 135.457606 
C 164.007704 135.650697 163.820288 135.912622 163.820288 136.185694 
C 163.820288 136.458767 164.007704 136.720691 164.34126 136.913783 
C 164.674816 137.106874 165.127278 137.215367 165.598998 137.215367 
z
" style="fill:#ff0000;opacity:0.2;stroke:#ff0000;stroke-linejoin:miter;stroke-width:2;"/>
   </g>
   <g id="patch_6">
    <path clip-path="url(#pca16ab46d5)" d="M 165.598998 138.24504 
C 166.070717 138.24504 166.523179 138.136547 166.856735 137.943455 
C 167.190291 137.750364 167.377707 137.488439 167.377707 137.215367 
C 167.377707 136.942294 167.190291 136.68037 166.856735 136.487278 
C 166.523179 136.294187 166.070717 136.185694 165.598998 136.185694 
C 165.127278 136.185694 164.674816 136.294187 164.34126 136.487278 
C 164.007704 136.68037 163.820288 136.942294 163.820288 137.215367 
C 163.820288 137.488439 164.007704 137.750364 164.34126 137.943455 
C 164.674816 138.136547 165.127278 138.24504 165.598998 138.24504 
z
" style="fill:#ff0000;opacity:0.2;stroke:#ff0000;stroke-linejoin:miter;stroke-width:2;"/>
   </g>
   <g id="patch_7">
    <path clip-path="url(#pca16ab46d5)" d="M 419.954469 202.084747 
C 420.426188 202.084747 420.878651 201.976254 421.212207 201.783162 
C 421.545763 201.590071 421.733179 201.328146 421.733179 201.055074 
C 421.733179 200.782002 421.545763 200.520077 421.212207 200.326985 
C 420.878651 200.133894 420.426188 200.025401 419.954469 200.025401 
C 419.48275 200.025401 419.030287 200.133894 418.696731 200.326985 
C 418.363176 200.520077 418.17576 200.782002 418.17576 201.055074 
C 418.17576 201.328146 418.363176 201.590071 418.696731 201.783162 
C 419.030287 201.976254 419.48275 202.084747 419.954469 202.084747 
z
" style="fill:#ff0000;opacity:0.2;stroke:#ff0000;stroke-linejoin:miter;stroke-width:2;"/>
   </g>
   <g id="patch_8">
    <path clip-path="url(#pca16ab46d5)" d="M 419.954469 244.301327 
C 420.426188 244.301327 420.878651 244.192834 421.212207 243.999743 
C 421.545763 243.806652 421.733179 243.544727 421.733179 243.271654 
C 421.733179 242.998582 421.545763 242.736657 421.212207 242.543566 
C 420.878651 242.350474 420.426188 242.241982 419.954469 242.241982 
C 419.48275 242.241982 419.030287 242.350474 418.696731 242.543566 
C 418.363176 242.736657 418.17576 242.998582 418.17576 243.271654 
C 418.17576 243.544727 418.363176 243.806652 418.696731 243.999743 
C 419.030287 244.192834 419.48275 244.301327 419.954469 244.301327 
z
" style="fill:#ff0000;opacity:0.2;stroke:#ff0000;stroke-linejoin:miter;stroke-width:2;"/>
   </g>
   <g id="patch_9">
    <path clip-path="url(#pca16ab46d5)" d="M 73.995454 153.175294 
C 74.467173 153.175294 74.919636 153.066801 75.253191 152.873709 
C 75.586747 152.680618 75.774163 152.418693 75.774163 152.145621 
C 75.774163 151.872549 75.586747 151.610624 75.253191 151.417532 
C 74.919636 151.224441 74.467173 151.115948 73.995454 151.115948 
C 73.523735 151.115948 73.071272 151.224441 72.737716 151.417532 
C 72.40416 151.610624 72.216744 151.872549 72.216744 152.145621 
C 72.216744 152.418693 72.40416 152.680618 72.737716 152.873709 
C 73.071272 153.066801 73.523735 153.175294 73.995454 153.175294 
z
" style="fill:#ff0000;opacity:0.2;stroke:#ff0000;stroke-linejoin:miter;stroke-width:2;"/>
   </g>
   <g id="patch_10">
    <path clip-path="url(#pca16ab46d5)" d="M 73.995454 137.730203 
C 74.467173 137.730203 74.919636 137.62171 75.253191 137.428619 
C 75.586747 137.235528 75.774163 136.973603 75.774163 136.700531 
C 75.774163 136.427458 75.586747 136.165533 75.253191 135.972442 
C 74.919636 135.779351 74.467173 135.670858 73.995454 135.670858 
C 73.523735 135.670858 73.071272 135.779351 72.737716 135.972442 
C 72.40416 136.165533 72.216744 136.427458 72.216744 136.700531 
C 72.216744 136.973603 72.40416 137.235528 72.737716 137.428619 
C 73.071272 137.62171 73.523735 137.730203 73.995454 137.730203 
z
" style="fill:#0000ff;opacity:0.2;stroke:#0000ff;stroke-linejoin:miter;stroke-width:2;"/>
   </g>
   <g id="patch_11">
    <path clip-path="url(#pca16ab46d5)" d="M 419.954469 42.485479 
C 420.426188 42.485479 420.878651 42.376986 421.212207 42.183895 
C 421.545763 41.990804 421.733179 41.728879 421.733179 41.455806 
C 421.733179 41.182734 421.545763 40.920809 421.212207 40.727718 
C 420.878651 40.534626 420.426188 40.426134 419.954469 40.426134 
C 419.48275 40.426134 419.030287 40.534626 418.696731 40.727718 
C 418.363176 40.920809 418.17576 41.182734 418.17576 41.455806 
C 418.17576 41.728879 418.363176 41.990804 418.696731 42.183895 
C 419.030287 42.376986 419.48275 42.485479 419.954469 42.485479 
z
" style="fill:#0000ff;opacity:0.2;stroke:#0000ff;stroke-linejoin:miter;stroke-width:2;"/>
   </g>
   <g id="patch_12">
    <path clip-path="url(#pca16ab46d5)" d="M 419.954469 72.345987 
C 420.426188 72.345987 420.878651 72.237494 421.212207 72.044403 
C 421.545763 71.851312 421.733179 71.589387 421.733179 71.316314 
C 421.733179 71.043242 421.545763 70.781317 421.212207 70.588226 
C 420.878651 70.395135 420.426188 70.286642 419.954469 70.286642 
C 419.48275 70.286642 419.030287 70.395135 418.696731 70.588226 
C 418.363176 70.781317 418.17576 71.043242 418.17576 71.316314 
C 418.17576 71.589387 418.363176 71.851312 418.696731 72.044403 
C 419.030287 72.237494 419.48275 72.345987 419.954469 72.345987 
z
" style="fill:#0000ff;opacity:0.2;stroke:#0000ff;stroke-linejoin:miter;stroke-width:2;"/>
   </g>
   <g id="patch_13">
    <path clip-path="url(#pca16ab46d5)" d="M 138.028999 148.541767 
C 138.500718 148.541767 138.953181 148.433274 139.286737 148.240182 
C 139.620293 148.047091 139.807709 147.785166 139.807709 147.512094 
C 139.807709 147.239021 139.620293 146.977097 139.286737 146.784005 
C 138.953181 146.590914 138.500718 146.482421 138.028999 146.482421 
C 137.55728 146.482421 137.104817 146.590914 136.771261 146.784005 
C 136.437706 146.977097 136.25029 147.239021 136.25029 147.512094 
C 136.25029 147.785166 136.437706 148.047091 136.771261 148.240182 
C 137.104817 148.433274 137.55728 148.541767 138.028999 148.541767 
z
" style="fill:#0000ff;opacity:0.2;stroke:#0000ff;stroke-linejoin:miter;stroke-width:2;"/>
   </g>
   <g id="patch_14">
    <path clip-path="url(#pca16ab46d5)" d="M 138.028999 149.571439 
C 138.500718 149.571439 138.953181 149.462946 139.286737 149.269855 
C 139.620293 149.076764 139.807709 148.814839 139.807709 148.541767 
C 139.807709 148.268694 139.620293 148.006769 139.286737 147.813678 
C 138.953181 147.620587 138.500718 147.512094 138.028999 147.512094 
C 137.55728 147.512094 137.104817 147.620587 136.771261 147.813678 
C 136.437706 148.006769 136.25029 148.268694 136.25029 148.541767 
C 136.25029 148.814839 136.437706 149.076764 136.771261 149.269855 
C 137.104817 149.462946 137.55728 149.571439 138.028999 149.571439 
z
" style="fill:#0000ff;opacity:0.2;stroke:#0000ff;stroke-linejoin:miter;stroke-width:2;"/>
   </g>
   <g id="patch_15">
    <path clip-path="url(#pca16ab46d5)" d="M 419.954469 226.282055 
C 420.426188 226.282055 420.878651 226.173562 421.212207 225.980471 
C 421.545763 225.787379 421.733179 225.525455 421.733179 225.252382 
C 421.733179 224.97931 421.545763 224.717385 421.212207 224.524294 
C 420.878651 224.331202 420.426188 224.22271 419.954469 224.22271 
C 419.48275 224.22271 419.030287 224.331202 418.696731 224.524294 
C 418.363176 224.717385 418.17576 224.97931 418.17576 225.252382 
C 418.17576 225.525455 418.363176 225.787379 418.696731 225.980471 
C 419.030287 226.173562 419.48275 226.282055 419.954469 226.282055 
z
" style="fill:#0000ff;opacity:0.2;stroke:#0000ff;stroke-linejoin:miter;stroke-width:2;"/>
   </g>
   <g id="patch_16">
    <path clip-path="url(#pca16ab46d5)" d="M 419.954469 255.627727 
C 420.426188 255.627727 420.878651 255.519234 421.212207 255.326143 
C 421.545763 255.133051 421.733179 254.871126 421.733179 254.598054 
C 421.733179 254.324982 421.545763 254.063057 421.212207 253.869965 
C 420.878651 253.676874 420.426188 253.568381 419.954469 253.568381 
C 419.48275 253.568381 419.030287 253.676874 418.696731 253.869965 
C 418.363176 254.063057 418.17576 254.324982 418.17576 254.598054 
C 418.17576 254.871126 418.363176 255.133051 418.696731 255.326143 
C 419.030287 255.519234 419.48275 255.627727 419.954469 255.627727 
z
" style="fill:#0000ff;opacity:0.2;stroke:#0000ff;stroke-linejoin:miter;stroke-width:2;"/>
   </g>
   <g id="patch_17">
    <path clip-path="url(#pca16ab46d5)" d="M 73.995454 160.897839 
C 74.467173 160.897839 74.919636 160.789346 75.253191 160.596255 
C 75.586747 160.403163 75.774163 160.141239 75.774163 159.868166 
C 75.774163 159.595094 75.586747 159.333169 75.253191 159.140078 
C 74.919636 158.946986 74.467173 158.838493 73.995454 158.838493 
C 73.523735 158.838493 73.071272 158.946986 72.737716 159.140078 
C 72.40416 159.333169 72.216744 159.595094 72.216744 159.868166 
C 72.216744 160.141239 72.40416 160.403163 72.737716 160.596255 
C 73.071272 160.789346 73.523735 160.897839 73.995454 160.897839 
z
" style="fill:#0000ff;opacity:0.2;stroke:#0000ff;stroke-linejoin:miter;stroke-width:2;"/>
   </g>
   <g id="patch_18">
    <path clip-path="url(#pca16ab46d5)" d="M 73.995454 121.770276 
L 419.954469 30.129407 
L 419.954469 72.860824 
L 165.598998 136.185694 
L 165.598998 137.215367 
L 419.954469 201.055074 
L 419.954469 243.271654 
L 73.995454 152.145621 
L 73.995454 121.770276 
" style="fill:none;stroke:#ff0000;stroke-linejoin:miter;stroke-width:0.5;"/>
   </g>
   <g id="patch_19">
    <path clip-path="url(#pca16ab46d5)" d="M 73.995454 136.700531 
L 419.954469 41.455806 
L 419.954469 71.316314 
L 138.028999 147.512094 
L 138.028999 148.541767 
L 419.954469 225.252382 
L 419.954469 254.598054 
L 73.995454 159.868166 
L 73.995454 136.700531 
" style="fill:none;stroke:#0000ff;stroke-linejoin:miter;stroke-width:0.5;"/>
   </g>
   <g id="[&quot;g_s&quot;:1,&quot;g_t&quot;:1,&quot;coords&quot;:[[116.0, -354.0],[116.0, -383.0]],&quot;certainty&quot;:12]">
    <path clip-path="url(#pca16ab46d5)" d="M 73.995454 125.116713 
C 75.528542 125.116713 76.999044 124.764111 78.083101 124.136564 
C 79.167158 123.509017 79.77626 122.657762 79.77626 121.770276 
C 79.77626 120.882791 79.167158 120.031536 78.083101 119.403989 
C 76.999044 118.776442 75.528542 118.42384 73.995454 118.42384 
C 72.462366 118.42384 70.991863 118.776442 69.907807 119.403989 
C 68.82375 120.031536 68.214648 120.882791 68.214648 121.770276 
C 68.214648 122.657762 68.82375 123.509017 69.907807 124.136564 
C 70.991863 124.764111 72.462366 125.116713 73.995454 125.116713 
z
" style="fill:#0000ff;opacity:0.2;stroke:#0000ff;stroke-linejoin:miter;stroke-width:2;"/>
   </g>
   <g id="[&quot;g_s&quot;:1,&quot;g_t&quot;:1,&quot;coords&quot;:[[116.0, -383.0],[116.0, -354.0]],&quot;certainty&quot;:12]">
    <path clip-path="url(#pca16ab46d5)" d="M 73.995454 140.046967 
C 75.528542 140.046967 76.999044 139.694365 78.083101 139.066818 
C 79.167158 138.439271 79.77626 137.588016 79.77626 136.700531 
C 79.77626 135.813045 79.167158 134.96179 78.083101 134.334243 
C 76.999044 133.706696 75.528542 133.354094 73.995454 133.354094 
C 72.462366 133.354094 70.991863 133.706696 69.907807 134.334243 
C 68.82375 134.96179 68.214648 135.813045 68.214648 136.700531 
C 68.214648 137.588016 68.82375 138.439271 69.907807 139.066818 
C 70.991863 139.694365 72.462366 140.046967 73.995454 140.046967 
z
" style="fill:#ff0000;opacity:0.2;stroke:#ff0000;stroke-linejoin:miter;stroke-width:2;"/>
   </g>
   <g id="patch_20">
    <path d="M 73.995454 121.770276 
Q 73.995454 128.234829 73.995454 132.401284 
" style="fill:none;opacity:0.5;stroke:#0000ff;stroke-linecap:round;stroke-width:3.25;"/>
    <path d="M 75.495454 130.901284 
L 73.995454 132.401284 
L 72.495454 130.901284 
" style="fill:none;opacity:0.5;stroke:#0000ff;stroke-linecap:round;stroke-width:3.25;"/>
   </g>
   <g id="[&quot;g_s&quot;:2,&quot;g_t&quot;:2,&quot;coords&quot;:[[505.0, -176.0],[505.0, -198.0]],&quot;certainty&quot;:10]">
    <path clip-path="url(#pca16ab46d5)" d="M 419.954469 32.961007 
C 421.251697 32.961007 422.495969 32.662651 423.413248 32.13165 
C 424.330526 31.600649 424.84592 30.880356 424.84592 30.129407 
C 424.84592 29.378458 424.330526 28.658164 423.413248 28.127163 
C 422.495969 27.596162 421.251697 27.297807 419.954469 27.297807 
C 418.657241 27.297807 417.412969 27.596162 416.495691 28.127163 
C 415.578412 28.658164 415.063018 29.378458 415.063018 30.129407 
C 415.063018 30.880356 415.578412 31.600649 416.495691 32.13165 
C 417.412969 32.662651 418.657241 32.961007 419.954469 32.961007 
z
" style="fill:#0000ff;opacity:0.2;stroke:#0000ff;stroke-linejoin:miter;stroke-width:2;"/>
   </g>
   <g id="[&quot;g_s&quot;:2,&quot;g_t&quot;:2,&quot;coords&quot;:[[505.0, -198.0],[505.0, -176.0]],&quot;certainty&quot;:10]">
    <path clip-path="url(#pca16ab46d5)" d="M 419.954469 44.287406 
C 421.251697 44.287406 422.495969 43.989051 423.413248 43.45805 
C 424.330526 42.927049 424.84592 42.206755 424.84592 41.455806 
C 424.84592 40.704857 424.330526 39.984564 423.413248 39.453563 
C 422.495969 38.922562 421.251697 38.624206 419.954469 38.624206 
C 418.657241 38.624206 417.412969 38.922562 416.495691 39.453563 
C 415.578412 39.984564 415.063018 40.704857 415.063018 41.455806 
C 415.063018 42.206755 415.578412 42.927049 416.495691 43.45805 
C 417.412969 43.989051 418.657241 44.287406 419.954469 44.287406 
z
" style="fill:#ff0000;opacity:0.2;stroke:#ff0000;stroke-linejoin:miter;stroke-width:2;"/>
   </g>
   <g id="patch_21">
    <path d="M 419.954469 30.129407 
Q 419.954469 34.792974 419.954469 37.511998 
" style="fill:none;opacity:0.5;stroke:#0000ff;stroke-linecap:round;stroke-width:2.75;"/>
    <path d="M 421.454469 36.011998 
L 419.954469 37.511998 
L 418.454469 36.011998 
" style="fill:none;opacity:0.5;stroke:#0000ff;stroke-linecap:round;stroke-width:2.75;"/>
   </g>
   <g id="[&quot;g_s&quot;:3,&quot;g_t&quot;:3,&quot;coords&quot;:[[505.0, -259.0],[505.0, -256.0]],&quot;certainty&quot;:11]">
    <path clip-path="url(#pca16ab46d5)" d="M 419.954469 75.949842 
C 421.369627 75.949842 422.727014 75.624363 423.727682 75.045089 
C 424.72835 74.465815 425.290598 73.680041 425.290598 72.860824 
C 425.290598 72.041606 424.72835 71.255832 423.727682 70.676558 
C 422.727014 70.097284 421.369627 69.771805 419.954469 69.771805 
C 418.539311 69.771805 417.181924 70.097284 416.181256 70.676558 
C 415.180589 71.255832 414.61834 72.041606 414.61834 72.860824 
C 414.61834 73.680041 415.180589 74.465815 416.181256 75.045089 
C 417.181924 75.624363 418.539311 75.949842 419.954469 75.949842 
z
" style="fill:#0000ff;opacity:0.2;stroke:#0000ff;stroke-linejoin:miter;stroke-width:2;"/>
   </g>
   <g id="[&quot;g_s&quot;:3,&quot;g_t&quot;:3,&quot;coords&quot;:[[505.0, -256.0],[505.0, -259.0]],&quot;certainty&quot;:11]">
    <path clip-path="url(#pca16ab46d5)" d="M 419.954469 74.405333 
C 421.369627 74.405333 422.727014 74.079854 423.727682 73.50058 
C 424.72835 72.921306 425.290598 72.135532 425.290598 71.316314 
C 425.290598 70.497097 424.72835 69.711323 423.727682 69.132049 
C 422.727014 68.552775 421.369627 68.227296 419.954469 68.227296 
C 418.539311 68.227296 417.181924 68.552775 416.181256 69.132049 
C 415.180589 69.711323 414.61834 70.497097 414.61834 71.316314 
C 414.61834 72.135532 415.180589 72.921306 416.181256 73.50058 
C 417.181924 74.079854 418.539311 74.405333 419.954469 74.405333 
z
" style="fill:#ff0000;opacity:0.2;stroke:#ff0000;stroke-linejoin:miter;stroke-width:2;"/>
   </g>
   <g id="patch_22">
    <path d="M 419.954469 72.860824 
Q 419.954469 72.088569 419.954469 73.437635 
" style="fill:none;opacity:0.5;stroke:#0000ff;stroke-linecap:round;stroke-width:3;"/>
    <path d="M 418.454469 74.937635 
L 419.954469 73.437635 
L 421.454469 74.937635 
" style="fill:none;opacity:0.5;stroke:#0000ff;stroke-linecap:round;stroke-width:3;"/>
   </g>
   <g id="[&quot;g_s&quot;:4,&quot;g_t&quot;:1,&quot;coords&quot;:[[219.0, -382.0],[116.0, -383.0]],&quot;certainty&quot;:0]">
    <path clip-path="url(#pca16ab46d5)" d="M 165.598998 136.443112 
C 165.716928 136.443112 165.830043 136.415989 165.913432 136.367716 
C 165.996821 136.319443 166.043675 136.253962 166.043675 136.185694 
C 166.043675 136.117426 165.996821 136.051945 165.913432 136.003672 
C 165.830043 135.955399 165.716928 135.928276 165.598998 135.928276 
C 165.481068 135.928276 165.367952 135.955399 165.284563 136.003672 
C 165.201174 136.051945 165.15432 136.117426 165.15432 136.185694 
C 165.15432 136.253962 165.201174 136.319443 165.284563 136.367716 
C 165.367952 136.415989 165.481068 136.443112 165.598998 136.443112 
z
" style="fill:#0000ff;opacity:0.2;stroke:#0000ff;stroke-linejoin:miter;stroke-width:2;"/>
   </g>
   <g id="[&quot;g_s&quot;:1,&quot;g_t&quot;:4,&quot;coords&quot;:[[116.0, -383.0],[219.0, -382.0]],&quot;certainty&quot;:0]">
    <path clip-path="url(#pca16ab46d5)" d="M 73.995454 136.957949 
C 74.113384 136.957949 74.226499 136.930826 74.309888 136.882553 
C 74.393277 136.83428 74.440131 136.768799 74.440131 136.700531 
C 74.440131 136.632262 74.393277 136.566781 74.309888 136.518508 
C 74.226499 136.470236 74.113384 136.443112 73.995454 136.443112 
C 73.877524 136.443112 73.764408 136.470236 73.681019 136.518508 
C 73.59763 136.566781 73.550776 136.632262 73.550776 136.700531 
C 73.550776 136.768799 73.59763 136.83428 73.681019 136.882553 
C 73.764408 136.930826 73.877524 136.957949 73.995454 136.957949 
z
" style="fill:#ff0000;opacity:0.2;stroke:#ff0000;stroke-linejoin:miter;stroke-width:2;"/>
   </g>
   <g id="patch_23">
    <path d="M 165.598998 136.185694 
Q 120.796624 136.437495 76.171023 136.688303 
" style="fill:none;opacity:0.5;stroke:#0000ff;stroke-linecap:round;stroke-width:0.25;"/>
    <path d="M 77.67943 138.179849 
L 76.171023 136.688303 
L 77.662569 135.179897 
" style="fill:none;opacity:0.5;stroke:#0000ff;stroke-linecap:round;stroke-width:0.25;"/>
   </g>
   <g id="[&quot;g_s&quot;:5,&quot;g_t&quot;:5,&quot;coords&quot;:[[219.0, -384.0],[188.0, -406.0]],&quot;certainty&quot;:1]">
    <path clip-path="url(#pca16ab46d5)" d="M 165.598998 137.730203 
C 165.834857 137.730203 166.061089 137.675957 166.227867 137.579411 
C 166.394644 137.482865 166.488353 137.351903 166.488353 137.215367 
C 166.488353 137.078831 166.394644 136.947868 166.227867 136.851323 
C 166.061089 136.754777 165.834857 136.700531 165.598998 136.700531 
C 165.363138 136.700531 165.136907 136.754777 164.970129 136.851323 
C 164.803351 136.947868 164.709643 137.078831 164.709643 137.215367 
C 164.709643 137.351903 164.803351 137.482865 164.970129 137.579411 
C 165.136907 137.675957 165.363138 137.730203 165.598998 137.730203 
z
" style="fill:#0000ff;opacity:0.2;stroke:#0000ff;stroke-linejoin:miter;stroke-width:2;"/>
   </g>
   <g id="[&quot;g_s&quot;:5,&quot;g_t&quot;:5,&quot;coords&quot;:[[188.0, -406.0],[219.0, -384.0]],&quot;certainty&quot;:1]">
    <path clip-path="url(#pca16ab46d5)" d="M 138.028999 149.056603 
C 138.264859 149.056603 138.49109 149.002356 138.657868 148.905811 
C 138.824646 148.809265 138.918354 148.678303 138.918354 148.541767 
C 138.918354 148.40523 138.824646 148.274268 138.657868 148.177722 
C 138.49109 148.081177 138.264859 148.02693 138.028999 148.02693 
C 137.793139 148.02693 137.566908 148.081177 137.40013 148.177722 
C 137.233352 148.274268 137.139644 148.40523 137.139644 148.541767 
C 137.139644 148.678303 137.233352 148.809265 137.40013 148.905811 
C 137.566908 149.002356 137.793139 149.056603 138.028999 149.056603 
z
" style="fill:#ff0000;opacity:0.2;stroke:#ff0000;stroke-linejoin:miter;stroke-width:2;"/>
   </g>
   <g id="patch_24">
    <path d="M 165.598998 137.215367 
Q 152.737822 142.499038 140.203678 147.648358 
" style="fill:none;opacity:0.5;stroke:#0000ff;stroke-linecap:round;stroke-width:0.5;"/>
    <path d="M 142.161162 148.465826 
L 140.203678 147.648358 
L 141.021147 145.690873 
" style="fill:none;opacity:0.5;stroke:#0000ff;stroke-linecap:round;stroke-width:0.5;"/>
   </g>
   <g id="[&quot;g_s&quot;:6,&quot;g_t&quot;:6,&quot;coords&quot;:[[505.0, -508.0],[505.0, -555.0]],&quot;certainty&quot;:11]">
    <path clip-path="url(#pca16ab46d5)" d="M 419.954469 204.144092 
C 421.369627 204.144092 422.727014 203.818614 423.727682 203.23934 
C 424.72835 202.660066 425.290598 201.874291 425.290598 201.055074 
C 425.290598 200.235857 424.72835 199.450082 423.727682 198.870808 
C 422.727014 198.291534 421.369627 197.966056 419.954469 197.966056 
C 418.539311 197.966056 417.181924 198.291534 416.181256 198.870808 
C 415.180589 199.450082 414.61834 200.235857 414.61834 201.055074 
C 414.61834 201.874291 415.180589 202.660066 416.181256 203.23934 
C 417.181924 203.818614 418.539311 204.144092 419.954469 204.144092 
z
" style="fill:#0000ff;opacity:0.2;stroke:#0000ff;stroke-linejoin:miter;stroke-width:2;"/>
   </g>
   <g id="[&quot;g_s&quot;:6,&quot;g_t&quot;:6,&quot;coords&quot;:[[505.0, -555.0],[505.0, -508.0]],&quot;certainty&quot;:11]">
    <path clip-path="url(#pca16ab46d5)" d="M 419.954469 228.3414 
C 421.369627 228.3414 422.727014 228.015922 423.727682 227.436648 
C 424.72835 226.857374 425.290598 226.071599 425.290598 225.252382 
C 425.290598 224.433165 424.72835 223.647391 423.727682 223.068117 
C 422.727014 222.488843 421.369627 222.163364 419.954469 222.163364 
C 418.539311 222.163364 417.181924 222.488843 416.181256 223.068117 
C 415.180589 223.647391 414.61834 224.433165 414.61834 225.252382 
C 414.61834 226.071599 415.180589 226.857374 416.181256 227.436648 
C 417.181924 228.015922 418.539311 228.3414 419.954469 228.3414 
z
" style="fill:#ff0000;opacity:0.2;stroke:#ff0000;stroke-linejoin:miter;stroke-width:2;"/>
   </g>
   <g id="patch_25">
    <path d="M 419.954469 201.055074 
Q 419.954469 212.153876 419.954469 221.131358 
" style="fill:none;opacity:0.5;stroke:#0000ff;stroke-linecap:round;stroke-width:3;"/>
    <path d="M 421.454469 219.631358 
L 419.954469 221.131358 
L 418.454469 219.631358 
" style="fill:none;opacity:0.5;stroke:#0000ff;stroke-linecap:round;stroke-width:3;"/>
   </g>
   <g id="[&quot;g_s&quot;:7,&quot;g_t&quot;:7,&quot;coords&quot;:[[505.0, -590.0],[505.0, -612.0]],&quot;certainty&quot;:11]">
    <path clip-path="url(#pca16ab46d5)" d="M 419.954469 246.360672 
C 421.369627 246.360672 422.727014 246.035194 423.727682 245.45592 
C 424.72835 244.876646 425.290598 244.090872 425.290598 243.271654 
C 425.290598 242.452437 424.72835 241.666663 423.727682 241.087389 
C 422.727014 240.508115 421.369627 240.182636 419.954469 240.182636 
C 418.539311 240.182636 417.181924 240.508115 416.181256 241.087389 
C 415.180589 241.666663 414.61834 242.452437 414.61834 243.271654 
C 414.61834 244.090872 415.180589 244.876646 416.181256 245.45592 
C 417.181924 246.035194 418.539311 246.360672 419.954469 246.360672 
z
" style="fill:#0000ff;opacity:0.2;stroke:#0000ff;stroke-linejoin:miter;stroke-width:2;"/>
   </g>
   <g id="[&quot;g_s&quot;:7,&quot;g_t&quot;:7,&quot;coords&quot;:[[505.0, -612.0],[505.0, -590.0]],&quot;certainty&quot;:11]">
    <path clip-path="url(#pca16ab46d5)" d="M 419.954469 257.687072 
C 421.369627 257.687072 422.727014 257.361594 423.727682 256.78232 
C 424.72835 256.203046 425.290598 255.417271 425.290598 254.598054 
C 425.290598 253.778837 424.72835 252.993062 423.727682 252.413788 
C 422.727014 251.834514 421.369627 251.509036 419.954469 251.509036 
C 418.539311 251.509036 417.181924 251.834514 416.181256 252.413788 
C 415.180589 252.993062 414.61834 253.778837 414.61834 254.598054 
C 414.61834 255.417271 415.180589 256.203046 416.181256 256.78232 
C 417.181924 257.361594 418.539311 257.687072 419.954469 257.687072 
z
" style="fill:#ff0000;opacity:0.2;stroke:#ff0000;stroke-linejoin:miter;stroke-width:2;"/>
   </g>
   <g id="patch_26">
    <path d="M 419.954469 243.271654 
Q 419.954469 247.935222 419.954469 250.477469 
" style="fill:none;opacity:0.5;stroke:#0000ff;stroke-linecap:round;stroke-width:3;"/>
    <path d="M 421.454469 248.977469 
L 419.954469 250.477469 
L 418.454469 248.977469 
" style="fill:none;opacity:0.5;stroke:#0000ff;stroke-linecap:round;stroke-width:3;"/>
   </g>
   <g id="[&quot;g_s&quot;:8,&quot;g_t&quot;:8,&quot;coords&quot;:[[116.0, -413.0],[116.0, -428.0]],&quot;certainty&quot;:11]">
    <path clip-path="url(#pca16ab46d5)" d="M 73.995454 155.234639 
C 75.410612 155.234639 76.767999 154.909161 77.768667 154.329887 
C 78.769334 153.750613 79.331583 152.964838 79.331583 152.145621 
C 79.331583 151.326404 78.769334 150.540629 77.768667 149.961355 
C 76.767999 149.382081 75.410612 149.056603 73.995454 149.056603 
C 72.580296 149.056603 71.222909 149.382081 70.222241 149.961355 
C 69.221573 150.540629 68.659325 151.326404 68.659325 152.145621 
C 68.659325 152.964838 69.221573 153.750613 70.222241 154.329887 
C 71.222909 154.909161 72.580296 155.234639 73.995454 155.234639 
z
" style="fill:#0000ff;opacity:0.2;stroke:#0000ff;stroke-linejoin:miter;stroke-width:2;"/>
   </g>
   <g id="[&quot;g_s&quot;:8,&quot;g_t&quot;:8,&quot;coords&quot;:[[116.0, -428.0],[116.0, -413.0]],&quot;certainty&quot;:11]">
    <path clip-path="url(#pca16ab46d5)" d="M 73.995454 162.957184 
C 75.410612 162.957184 76.767999 162.631706 77.768667 162.052432 
C 78.769334 161.473158 79.331583 160.687383 79.331583 159.868166 
C 79.331583 159.048949 78.769334 158.263175 77.768667 157.683901 
C 76.767999 157.104626 75.410612 156.779148 73.995454 156.779148 
C 72.580296 156.779148 71.222909 157.104626 70.222241 157.683901 
C 69.221573 158.263175 68.659325 159.048949 68.659325 159.868166 
C 68.659325 160.687383 69.221573 161.473158 70.222241 162.052432 
C 71.222909 162.631706 72.580296 162.957184 73.995454 162.957184 
z
" style="fill:#ff0000;opacity:0.2;stroke:#ff0000;stroke-linejoin:miter;stroke-width:2;"/>
   </g>
   <g id="patch_27">
    <path d="M 73.995454 152.145621 
Q 73.995454 155.005753 73.995454 155.744565 
" style="fill:none;opacity:0.5;stroke:#0000ff;stroke-linecap:round;stroke-width:3;"/>
    <path d="M 75.495454 154.244565 
L 73.995454 155.744565 
L 72.495454 154.244565 
" style="fill:none;opacity:0.5;stroke:#0000ff;stroke-linecap:round;stroke-width:3;"/>
   </g>
   <g id="[&quot;g_s&quot;:1,&quot;g_t&quot;:1,&quot;coords&quot;:[[116.0, -383.0],[116.0, -354.0]],&quot;certainty&quot;:12]">
    <path clip-path="url(#pca16ab46d5)" d="M 73.995454 140.046967 
C 75.528542 140.046967 76.999044 139.694365 78.083101 139.066818 
C 79.167158 138.439271 79.77626 137.588016 79.77626 136.700531 
C 79.77626 135.813045 79.167158 134.96179 78.083101 134.334243 
C 76.999044 133.706696 75.528542 133.354094 73.995454 133.354094 
C 72.462366 133.354094 70.991863 133.706696 69.907807 134.334243 
C 68.82375 134.96179 68.214648 135.813045 68.214648 136.700531 
C 68.214648 137.588016 68.82375 138.439271 69.907807 139.066818 
C 70.991863 139.694365 72.462366 140.046967 73.995454 140.046967 
z
" style="fill:#0000ff;opacity:0.2;stroke:#0000ff;stroke-linejoin:miter;stroke-width:2;"/>
   </g>
   <g id="[&quot;g_s&quot;:1,&quot;g_t&quot;:1,&quot;coords&quot;:[[116.0, -354.0],[116.0, -383.0]],&quot;certainty&quot;:12]">
    <path clip-path="url(#pca16ab46d5)" d="M 73.995454 125.116713 
C 75.528542 125.116713 76.999044 124.764111 78.083101 124.136564 
C 79.167158 123.509017 79.77626 122.657762 79.77626 121.770276 
C 79.77626 120.882791 79.167158 120.031536 78.083101 119.403989 
C 76.999044 118.776442 75.528542 118.42384 73.995454 118.42384 
C 72.462366 118.42384 70.991863 118.776442 69.907807 119.403989 
C 68.82375 120.031536 68.214648 120.882791 68.214648 121.770276 
C 68.214648 122.657762 68.82375 123.509017 69.907807 124.136564 
C 70.991863 124.764111 72.462366 125.116713 73.995454 125.116713 
z
" style="fill:#ff0000;opacity:0.2;stroke:#ff0000;stroke-linejoin:miter;stroke-width:2;"/>
   </g>
   <g id="patch_28">
    <path d="M 73.995454 136.700531 
Q 73.995454 130.235978 73.995454 126.069523 
" style="fill:none;opacity:0.5;stroke:#ff0000;stroke-linecap:round;stroke-width:3.25;"/>
    <path d="M 72.495454 127.569523 
L 73.995454 126.069523 
L 75.495454 127.569523 
" style="fill:none;opacity:0.5;stroke:#ff0000;stroke-linecap:round;stroke-width:3.25;"/>
   </g>
   <g id="[&quot;g_s&quot;:2,&quot;g_t&quot;:2,&quot;coords&quot;:[[505.0, -198.0],[505.0, -176.0]],&quot;certainty&quot;:10]">
    <path clip-path="url(#pca16ab46d5)" d="M 419.954469 44.287406 
C 421.251697 44.287406 422.495969 43.989051 423.413248 43.45805 
C 424.330526 42.927049 424.84592 42.206755 424.84592 41.455806 
C 424.84592 40.704857 424.330526 39.984564 423.413248 39.453563 
C 422.495969 38.922562 421.251697 38.624206 419.954469 38.624206 
C 418.657241 38.624206 417.412969 38.922562 416.495691 39.453563 
C 415.578412 39.984564 415.063018 40.704857 415.063018 41.455806 
C 415.063018 42.206755 415.578412 42.927049 416.495691 43.45805 
C 417.412969 43.989051 418.657241 44.287406 419.954469 44.287406 
z
" style="fill:#0000ff;opacity:0.2;stroke:#0000ff;stroke-linejoin:miter;stroke-width:2;"/>
   </g>
   <g id="[&quot;g_s&quot;:2,&quot;g_t&quot;:2,&quot;coords&quot;:[[505.0, -176.0],[505.0, -198.0]],&quot;certainty&quot;:10]">
    <path clip-path="url(#pca16ab46d5)" d="M 419.954469 32.961007 
C 421.251697 32.961007 422.495969 32.662651 423.413248 32.13165 
C 424.330526 31.600649 424.84592 30.880356 424.84592 30.129407 
C 424.84592 29.378458 424.330526 28.658164 423.413248 28.127163 
C 422.495969 27.596162 421.251697 27.297807 419.954469 27.297807 
C 418.657241 27.297807 417.412969 27.596162 416.495691 28.127163 
C 415.578412 28.658164 415.063018 29.378458 415.063018 30.129407 
C 415.063018 30.880356 415.578412 31.600649 416.495691 32.13165 
C 417.412969 32.662651 418.657241 32.961007 419.954469 32.961007 
z
" style="fill:#ff0000;opacity:0.2;stroke:#ff0000;stroke-linejoin:miter;stroke-width:2;"/>
   </g>
   <g id="patch_29">
    <path d="M 419.954469 41.455806 
Q 419.954469 36.792239 419.954469 34.073215 
" style="fill:none;opacity:0.5;stroke:#ff0000;stroke-linecap:round;stroke-width:2.75;"/>
    <path d="M 418.454469 35.573215 
L 419.954469 34.073215 
L 421.454469 35.573215 
" style="fill:none;opacity:0.5;stroke:#ff0000;stroke-linecap:round;stroke-width:2.75;"/>
   </g>
   <g id="[&quot;g_s&quot;:3,&quot;g_t&quot;:3,&quot;coords&quot;:[[505.0, -256.0],[505.0, -259.0]],&quot;certainty&quot;:11]">
    <path clip-path="url(#pca16ab46d5)" d="M 419.954469 74.405333 
C 421.369627 74.405333 422.727014 74.079854 423.727682 73.50058 
C 424.72835 72.921306 425.290598 72.135532 425.290598 71.316314 
C 425.290598 70.497097 424.72835 69.711323 423.727682 69.132049 
C 422.727014 68.552775 421.369627 68.227296 419.954469 68.227296 
C 418.539311 68.227296 417.181924 68.552775 416.181256 69.132049 
C 415.180589 69.711323 414.61834 70.497097 414.61834 71.316314 
C 414.61834 72.135532 415.180589 72.921306 416.181256 73.50058 
C 417.181924 74.079854 418.539311 74.405333 419.954469 74.405333 
z
" style="fill:#0000ff;opacity:0.2;stroke:#0000ff;stroke-linejoin:miter;stroke-width:2;"/>
   </g>
   <g id="[&quot;g_s&quot;:3,&quot;g_t&quot;:3,&quot;coords&quot;:[[505.0, -259.0],[505.0, -256.0]],&quot;certainty&quot;:11]">
    <path clip-path="url(#pca16ab46d5)" d="M 419.954469 75.949842 
C 421.369627 75.949842 422.727014 75.624363 423.727682 75.045089 
C 424.72835 74.465815 425.290598 73.680041 425.290598 72.860824 
C 425.290598 72.041606 424.72835 71.255832 423.727682 70.676558 
C 422.727014 70.097284 421.369627 69.771805 419.954469 69.771805 
C 418.539311 69.771805 417.181924 70.097284 416.181256 70.676558 
C 415.180589 71.255832 414.61834 72.041606 414.61834 72.860824 
C 414.61834 73.680041 415.180589 74.465815 416.181256 75.045089 
C 417.181924 75.624363 418.539311 75.949842 419.954469 75.949842 
z
" style="fill:#ff0000;opacity:0.2;stroke:#ff0000;stroke-linejoin:miter;stroke-width:2;"/>
   </g>
   <g id="patch_30">
    <path d="M 419.954469 71.316314 
Q 419.954469 72.088569 419.954469 70.739503 
" style="fill:none;opacity:0.5;stroke:#ff0000;stroke-linecap:round;stroke-width:3;"/>
    <path d="M 421.454469 69.239503 
L 419.954469 70.739503 
L 418.454469 69.239503 
" style="fill:none;opacity:0.5;stroke:#ff0000;stroke-linecap:round;stroke-width:3;"/>
   </g>
   <g id="[&quot;g_s&quot;:4,&quot;g_t&quot;:4,&quot;coords&quot;:[[188.0, -404.0],[219.0, -382.0]],&quot;certainty&quot;:11]">
    <path clip-path="url(#pca16ab46d5)" d="M 138.028999 150.601112 
C 139.444157 150.601112 140.801544 150.275633 141.802212 149.696359 
C 142.80288 149.117085 143.365128 148.331311 143.365128 147.512094 
C 143.365128 146.692877 142.80288 145.907102 141.802212 145.327828 
C 140.801544 144.748554 139.444157 144.423076 138.028999 144.423076 
C 136.613841 144.423076 135.256454 144.748554 134.255786 145.327828 
C 133.255119 145.907102 132.69287 146.692877 132.69287 147.512094 
C 132.69287 148.331311 133.255119 149.117085 134.255786 149.696359 
C 135.256454 150.275633 136.613841 150.601112 138.028999 150.601112 
z
" style="fill:#0000ff;opacity:0.2;stroke:#0000ff;stroke-linejoin:miter;stroke-width:2;"/>
   </g>
   <g id="[&quot;g_s&quot;:4,&quot;g_t&quot;:4,&quot;coords&quot;:[[219.0, -382.0],[188.0, -404.0]],&quot;certainty&quot;:11]">
    <path clip-path="url(#pca16ab46d5)" d="M 165.598998 139.274712 
C 167.014156 139.274712 168.371543 138.949234 169.372211 138.36996 
C 170.372878 137.790686 170.935127 137.004911 170.935127 136.185694 
C 170.935127 135.366477 170.372878 134.580703 169.372211 134.001429 
C 168.371543 133.422155 167.014156 133.096676 165.598998 133.096676 
C 164.18384 133.096676 162.826453 133.422155 161.825785 134.001429 
C 160.825117 134.580703 160.262869 135.366477 160.262869 136.185694 
C 160.262869 137.004911 160.825117 137.790686 161.825785 138.36996 
C 162.826453 138.949234 164.18384 139.274712 165.598998 139.274712 
z
" style="fill:#ff0000;opacity:0.2;stroke:#ff0000;stroke-linejoin:miter;stroke-width:2;"/>
   </g>
   <g id="patch_31">
    <path d="M 138.028999 147.512094 
Q 150.890175 142.228422 161.789162 137.750864 
" style="fill:none;opacity:0.5;stroke:#ff0000;stroke-linecap:round;stroke-width:3;"/>
    <path d="M 159.831678 136.933395 
L 161.789162 137.750864 
L 160.971693 139.708348 
" style="fill:none;opacity:0.5;stroke:#ff0000;stroke-linecap:round;stroke-width:3;"/>
   </g>
   <g id="[&quot;g_s&quot;:5,&quot;g_t&quot;:8,&quot;coords&quot;:[[188.0, -406.0],[116.0, -413.0]],&quot;certainty&quot;:1]">
    <path clip-path="url(#pca16ab46d5)" d="M 138.028999 149.056603 
C 138.264859 149.056603 138.49109 149.002356 138.657868 148.905811 
C 138.824646 148.809265 138.918354 148.678303 138.918354 148.541767 
C 138.918354 148.40523 138.824646 148.274268 138.657868 148.177722 
C 138.49109 148.081177 138.264859 148.02693 138.028999 148.02693 
C 137.793139 148.02693 137.566908 148.081177 137.40013 148.177722 
C 137.233352 148.274268 137.139644 148.40523 137.139644 148.541767 
C 137.139644 148.678303 137.233352 148.809265 137.40013 148.905811 
C 137.566908 149.002356 137.793139 149.056603 138.028999 149.056603 
z
" style="fill:#0000ff;opacity:0.2;stroke:#0000ff;stroke-linejoin:miter;stroke-width:2;"/>
   </g>
   <g id="[&quot;g_s&quot;:8,&quot;g_t&quot;:5,&quot;coords&quot;:[[116.0, -413.0],[188.0, -406.0]],&quot;certainty&quot;:1]">
    <path clip-path="url(#pca16ab46d5)" d="M 73.995454 152.660457 
C 74.231314 152.660457 74.457545 152.606211 74.624323 152.509665 
C 74.791101 152.41312 74.884809 152.282157 74.884809 152.145621 
C 74.884809 152.009085 74.791101 151.878122 74.624323 151.781577 
C 74.457545 151.685031 74.231314 151.630785 73.995454 151.630785 
C 73.759594 151.630785 73.533363 151.685031 73.366585 151.781577 
C 73.199807 151.878122 73.106099 152.009085 73.106099 152.145621 
C 73.106099 152.282157 73.199807 152.41312 73.366585 152.509665 
C 73.533363 152.606211 73.759594 152.660457 73.995454 152.660457 
z
" style="fill:#ff0000;opacity:0.2;stroke:#ff0000;stroke-linejoin:miter;stroke-width:2;"/>
   </g>
   <g id="patch_32">
    <path d="M 138.028999 148.541767 
Q 107.010796 150.287493 76.345589 152.013354 
" style="fill:none;opacity:0.5;stroke:#ff0000;stroke-linecap:round;stroke-width:0.5;"/>
    <path d="M 77.927506 153.426696 
L 76.345589 152.013354 
L 77.758931 150.431436 
" style="fill:none;opacity:0.5;stroke:#ff0000;stroke-linecap:round;stroke-width:0.5;"/>
   </g>
   <g id="[&quot;g_s&quot;:6,&quot;g_t&quot;:6,&quot;coords&quot;:[[505.0, -555.0],[505.0, -508.0]],&quot;certainty&quot;:11]">
    <path clip-path="url(#pca16ab46d5)" d="M 419.954469 228.3414 
C 421.369627 228.3414 422.727014 228.015922 423.727682 227.436648 
C 424.72835 226.857374 425.290598 226.071599 425.290598 225.252382 
C 425.290598 224.433165 424.72835 223.647391 423.727682 223.068117 
C 422.727014 222.488843 421.369627 222.163364 419.954469 222.163364 
C 418.539311 222.163364 417.181924 222.488843 416.181256 223.068117 
C 415.180589 223.647391 414.61834 224.433165 414.61834 225.252382 
C 414.61834 226.071599 415.180589 226.857374 416.181256 227.436648 
C 417.181924 228.015922 418.539311 228.3414 419.954469 228.3414 
z
" style="fill:#0000ff;opacity:0.2;stroke:#0000ff;stroke-linejoin:miter;stroke-width:2;"/>
   </g>
   <g id="[&quot;g_s&quot;:6,&quot;g_t&quot;:6,&quot;coords&quot;:[[505.0, -508.0],[505.0, -555.0]],&quot;certainty&quot;:11]">
    <path clip-path="url(#pca16ab46d5)" d="M 419.954469 204.144092 
C 421.369627 204.144092 422.727014 203.818614 423.727682 203.23934 
C 424.72835 202.660066 425.290598 201.874291 425.290598 201.055074 
C 425.290598 200.235857 424.72835 199.450082 423.727682 198.870808 
C 422.727014 198.291534 421.369627 197.966056 419.954469 197.966056 
C 418.539311 197.966056 417.181924 198.291534 416.181256 198.870808 
C 415.180589 199.450082 414.61834 200.235857 414.61834 201.055074 
C 414.61834 201.874291 415.180589 202.660066 416.181256 203.23934 
C 417.181924 203.818614 418.539311 204.144092 419.954469 204.144092 
z
" style="fill:#ff0000;opacity:0.2;stroke:#ff0000;stroke-linejoin:miter;stroke-width:2;"/>
   </g>
   <g id="patch_33">
    <path d="M 419.954469 225.252382 
Q 419.954469 214.15358 419.954469 205.176099 
" style="fill:none;opacity:0.5;stroke:#ff0000;stroke-linecap:round;stroke-width:3;"/>
    <path d="M 418.454469 206.676099 
L 419.954469 205.176099 
L 421.454469 206.676099 
" style="fill:none;opacity:0.5;stroke:#ff0000;stroke-linecap:round;stroke-width:3;"/>
   </g>
   <g id="[&quot;g_s&quot;:7,&quot;g_t&quot;:7,&quot;coords&quot;:[[505.0, -612.0],[505.0, -590.0]],&quot;certainty&quot;:11]">
    <path clip-path="url(#pca16ab46d5)" d="M 419.954469 257.687072 
C 421.369627 257.687072 422.727014 257.361594 423.727682 256.78232 
C 424.72835 256.203046 425.290598 255.417271 425.290598 254.598054 
C 425.290598 253.778837 424.72835 252.993062 423.727682 252.413788 
C 422.727014 251.834514 421.369627 251.509036 419.954469 251.509036 
C 418.539311 251.509036 417.181924 251.834514 416.181256 252.413788 
C 415.180589 252.993062 414.61834 253.778837 414.61834 254.598054 
C 414.61834 255.417271 415.180589 256.203046 416.181256 256.78232 
C 417.181924 257.361594 418.539311 257.687072 419.954469 257.687072 
z
" style="fill:#0000ff;opacity:0.2;stroke:#0000ff;stroke-linejoin:miter;stroke-width:2;"/>
   </g>
   <g id="[&quot;g_s&quot;:7,&quot;g_t&quot;:7,&quot;coords&quot;:[[505.0, -590.0],[505.0, -612.0]],&quot;certainty&quot;:11]">
    <path clip-path="url(#pca16ab46d5)" d="M 419.954469 246.360672 
C 421.369627 246.360672 422.727014 246.035194 423.727682 245.45592 
C 424.72835 244.876646 425.290598 244.090872 425.290598 243.271654 
C 425.290598 242.452437 424.72835 241.666663 423.727682 241.087389 
C 422.727014 240.508115 421.369627 240.182636 419.954469 240.182636 
C 418.539311 240.182636 417.181924 240.508115 416.181256 241.087389 
C 415.180589 241.666663 414.61834 242.452437 414.61834 243.271654 
C 414.61834 244.090872 415.180589 244.876646 416.181256 245.45592 
C 417.181924 246.035194 418.539311 246.360672 419.954469 246.360672 
z
" style="fill:#ff0000;opacity:0.2;stroke:#ff0000;stroke-linejoin:miter;stroke-width:2;"/>
   </g>
   <g id="patch_34">
    <path d="M 419.954469 254.598054 
Q 419.954469 249.934486 419.954469 247.392239 
" style="fill:none;opacity:0.5;stroke:#ff0000;stroke-linecap:round;stroke-width:3;"/>
    <path d="M 418.454469 248.892239 
L 419.954469 247.392239 
L 421.454469 248.892239 
" style="fill:none;opacity:0.5;stroke:#ff0000;stroke-linecap:round;stroke-width:3;"/>
   </g>
   <g id="[&quot;g_s&quot;:8,&quot;g_t&quot;:8,&quot;coords&quot;:[[116.0, -428.0],[116.0, -413.0]],&quot;certainty&quot;:11]">
    <path clip-path="url(#pca16ab46d5)" d="M 73.995454 162.957184 
C 75.410612 162.957184 76.767999 162.631706 77.768667 162.052432 
C 78.769334 161.473158 79.331583 160.687383 79.331583 159.868166 
C 79.331583 159.048949 78.769334 158.263175 77.768667 157.683901 
C 76.767999 157.104626 75.410612 156.779148 73.995454 156.779148 
C 72.580296 156.779148 71.222909 157.104626 70.222241 157.683901 
C 69.221573 158.263175 68.659325 159.048949 68.659325 159.868166 
C 68.659325 160.687383 69.221573 161.473158 70.222241 162.052432 
C 71.222909 162.631706 72.580296 162.957184 73.995454 162.957184 
z
" style="fill:#0000ff;opacity:0.2;stroke:#0000ff;stroke-linejoin:miter;stroke-width:2;"/>
   </g>
   <g id="[&quot;g_s&quot;:8,&quot;g_t&quot;:8,&quot;coords&quot;:[[116.0, -413.0],[116.0, -428.0]],&quot;certainty&quot;:11]">
    <path clip-path="url(#pca16ab46d5)" d="M 73.995454 155.234639 
C 75.410612 155.234639 76.767999 154.909161 77.768667 154.329887 
C 78.769334 153.750613 79.331583 152.964838 79.331583 152.145621 
C 79.331583 151.326404 78.769334 150.540629 77.768667 149.961355 
C 76.767999 149.382081 75.410612 149.056603 73.995454 149.056603 
C 72.580296 149.056603 71.222909 149.382081 70.222241 149.961355 
C 69.221573 150.540629 68.659325 151.326404 68.659325 152.145621 
C 68.659325 152.964838 69.221573 153.750613 70.222241 154.329887 
C 71.222909 154.909161 72.580296 155.234639 73.995454 155.234639 
z
" style="fill:#ff0000;opacity:0.2;stroke:#ff0000;stroke-linejoin:miter;stroke-width:2;"/>
   </g>
   <g id="patch_35">
    <path d="M 73.995454 159.868166 
Q 73.995454 157.008034 73.995454 156.269222 
" style="fill:none;opacity:0.5;stroke:#ff0000;stroke-linecap:round;stroke-width:3;"/>
    <path d="M 72.495454 157.769222 
L 73.995454 156.269222 
L 75.495454 157.769222 
" style="fill:none;opacity:0.5;stroke:#ff0000;stroke-linecap:round;stroke-width:3;"/>
   </g>
   <g id="patch_36">
    <path clip-path="url(#pca16ab46d5)" d="M 73.995454 131.809585 
C 75.174752 131.809585 76.305908 131.538353 77.139798 131.055625 
C 77.973688 130.572897 78.442228 129.918084 78.442228 129.235404 
C 78.442228 128.552723 77.973688 127.89791 77.139798 127.415182 
C 76.305908 126.932454 75.174752 126.661222 73.995454 126.661222 
C 72.816156 126.661222 71.685 126.932454 70.85111 127.415182 
C 70.01722 127.89791 69.54868 128.552723 69.54868 129.235404 
C 69.54868 129.918084 70.01722 130.572897 70.85111 131.055625 
C 71.685 131.538353 72.816156 131.809585 73.995454 131.809585 
z
" style="fill:#008000;opacity:0.2;stroke:#008000;stroke-linejoin:miter;stroke-width:2;"/>
   </g>
   <g id="patch_37">
    <path clip-path="url(#pca16ab46d5)" d="M 419.954469 38.366788 
C 421.133767 38.366788 422.264923 38.095556 423.098813 37.612828 
C 423.932703 37.1301 424.401243 36.475288 424.401243 35.792607 
C 424.401243 35.109926 423.932703 34.455114 423.098813 33.972385 
C 422.264923 33.489657 421.133767 33.218425 419.954469 33.218425 
C 418.775171 33.218425 417.644015 33.489657 416.810125 33.972385 
C 415.976235 34.455114 415.507695 35.109926 415.507695 35.792607 
C 415.507695 36.475288 415.976235 37.1301 416.810125 37.612828 
C 417.644015 38.095556 418.775171 38.366788 419.954469 38.366788 
z
" style="fill:#008000;opacity:0.2;stroke:#008000;stroke-linejoin:miter;stroke-width:2;"/>
   </g>
   <g id="patch_38">
    <path clip-path="url(#pca16ab46d5)" d="M 419.954469 74.662751 
C 421.133767 74.662751 422.264923 74.391519 423.098813 73.90879 
C 423.932703 73.426062 424.401243 72.77125 424.401243 72.088569 
C 424.401243 71.405888 423.932703 70.751076 423.098813 70.268348 
C 422.264923 69.785619 421.133767 69.514387 419.954469 69.514387 
C 418.775171 69.514387 417.644015 69.785619 416.810125 70.268348 
C 415.976235 70.751076 415.507695 71.405888 415.507695 72.088569 
C 415.507695 72.77125 415.976235 73.426062 416.810125 73.90879 
C 417.644015 74.391519 418.775171 74.662751 419.954469 74.662751 
z
" style="fill:#008000;opacity:0.2;stroke:#008000;stroke-linejoin:miter;stroke-width:2;"/>
   </g>
   <g id="patch_39">
    <path clip-path="url(#pca16ab46d5)" d="M 419.954469 215.72791 
C 421.133767 215.72791 422.264923 215.456678 423.098813 214.973949 
C 423.932703 214.491221 424.401243 213.836409 424.401243 213.153728 
C 424.401243 212.471047 423.932703 211.816235 423.098813 211.333507 
C 422.264923 210.850778 421.133767 210.579546 419.954469 210.579546 
C 418.775171 210.579546 417.644015 210.850778 416.810125 211.333507 
C 415.976235 211.816235 415.507695 212.471047 415.507695 213.153728 
C 415.507695 213.836409 415.976235 214.491221 416.810125 214.973949 
C 417.644015 215.456678 418.775171 215.72791 419.954469 215.72791 
z
" style="fill:#008000;opacity:0.2;stroke:#008000;stroke-linejoin:miter;stroke-width:2;"/>
   </g>
   <g id="patch_40">
    <path clip-path="url(#pca16ab46d5)" d="M 419.954469 251.509036 
C 421.133767 251.509036 422.264923 251.237804 423.098813 250.755076 
C 423.932703 250.272347 424.401243 249.617535 424.401243 248.934854 
C 424.401243 248.252173 423.932703 247.597361 423.098813 247.114633 
C 422.264923 246.631904 421.133767 246.360672 419.954469 246.360672 
C 418.775171 246.360672 417.644015 246.631904 416.810125 247.114633 
C 415.976235 247.597361 415.507695 248.252173 415.507695 248.934854 
C 415.507695 249.617535 415.976235 250.272347 416.810125 250.755076 
C 417.644015 251.237804 418.775171 251.509036 419.954469 251.509036 
z
" style="fill:#008000;opacity:0.2;stroke:#008000;stroke-linejoin:miter;stroke-width:2;"/>
   </g>
   <g id="patch_41">
    <path clip-path="url(#pca16ab46d5)" d="M 73.995454 158.581075 
C 75.174752 158.581075 76.305908 158.309843 77.139798 157.827115 
C 77.973688 157.344387 78.442228 156.689575 78.442228 156.006894 
C 78.442228 155.324213 77.973688 154.669401 77.139798 154.186672 
C 76.305908 153.703944 75.174752 153.432712 73.995454 153.432712 
C 72.816156 153.432712 71.685 153.703944 70.85111 154.186672 
C 70.01722 154.669401 69.54868 155.324213 69.54868 156.006894 
C 69.54868 156.689575 70.01722 157.344387 70.85111 157.827115 
C 71.685 158.309843 72.816156 158.581075 73.995454 158.581075 
z
" style="fill:#008000;opacity:0.2;stroke:#008000;stroke-linejoin:miter;stroke-width:2;"/>
   </g>
   <g id="patch_42">
    <path clip-path="url(#pca16ab46d5)" d="M 73.995454 132.067003 
C 78.712647 132.067003 83.237271 130.982075 86.57283 129.051162 
C 89.908389 127.120249 91.78255 124.501 91.78255 121.770276 
C 91.78255 119.039553 89.908389 116.420304 86.57283 114.489391 
C 83.237271 112.558478 78.712647 111.47355 73.995454 111.47355 
C 69.278261 111.47355 64.753637 112.558478 61.418078 114.489391 
C 58.082519 116.420304 56.208358 119.039553 56.208358 121.770276 
C 56.208358 124.501 58.082519 127.120249 61.418078 129.051162 
C 64.753637 130.982075 69.278261 132.067003 73.995454 132.067003 
z
" style="fill:none;opacity:0.2;stroke:#ff0000;stroke-linejoin:miter;stroke-width:2;"/>
   </g>
   <g id="patch_43">
    <path clip-path="url(#pca16ab46d5)" d="M 73.995454 146.997257 
C 78.712647 146.997257 83.237271 145.912329 86.57283 143.981416 
C 89.908389 142.050503 91.78255 139.431254 91.78255 136.700531 
C 91.78255 133.969807 89.908389 131.350558 86.57283 129.419645 
C 83.237271 127.488732 78.712647 126.403804 73.995454 126.403804 
C 69.278261 126.403804 64.753637 127.488732 61.418078 129.419645 
C 58.082519 131.350558 56.208358 133.969807 56.208358 136.700531 
C 56.208358 139.431254 58.082519 142.050503 61.418078 143.981416 
C 64.753637 145.912329 69.278261 146.997257 73.995454 146.997257 
z
" style="fill:none;opacity:0.2;stroke:#0000ff;stroke-linejoin:miter;stroke-width:2;"/>
   </g>
   <g id="patch_44">
    <path clip-path="url(#pca16ab46d5)" d="M 73.995454 126.91864 
C 76.35405 126.91864 78.616362 126.376176 80.284142 125.410719 
C 81.951921 124.445262 82.889002 123.135638 82.889002 121.770276 
C 82.889002 120.404915 81.951921 119.09529 80.284142 118.129834 
C 78.616362 117.164377 76.35405 116.621913 73.995454 116.621913 
C 71.636857 116.621913 69.374545 117.164377 67.706766 118.129834 
C 66.038986 119.09529 65.101906 120.404915 65.101906 121.770276 
C 65.101906 123.135638 66.038986 124.445262 67.706766 125.410719 
C 69.374545 126.376176 71.636857 126.91864 73.995454 126.91864 
z
" style="fill:none;opacity:0.2;stroke:#008000;stroke-linejoin:miter;stroke-width:2;"/>
   </g>
   <g id="patch_45">
    <path clip-path="url(#pca16ab46d5)" d="M 73.995454 141.848894 
C 76.35405 141.848894 78.616362 141.30643 80.284142 140.340973 
C 81.951921 139.375517 82.889002 138.065892 82.889002 136.700531 
C 82.889002 135.335169 81.951921 134.025545 80.284142 133.060088 
C 78.616362 132.094631 76.35405 131.552167 73.995454 131.552167 
C 71.636857 131.552167 69.374545 132.094631 67.706766 133.060088 
C 66.038986 134.025545 65.101906 135.335169 65.101906 136.700531 
C 65.101906 138.065892 66.038986 139.375517 67.706766 140.340973 
C 69.374545 141.30643 71.636857 141.848894 73.995454 141.848894 
z
" style="fill:none;opacity:0.2;stroke:#008000;stroke-linejoin:miter;stroke-width:2;"/>
   </g>
   <g id="patch_46">
    <path d="M 73.995454 129.235404 
Q 246.974961 82.514005 419.954469 35.792607 
" style="fill:none;opacity:0.5;stroke:#008000;stroke-linecap:round;stroke-width:2;"/>
   </g>
   <g id="patch_47">
    <path d="M 73.995454 123.18449 
Q 73.995454 128.234829 73.995454 133.285167 
" style="fill:none;opacity:0.5;stroke:#800080;stroke-linecap:round;stroke-width:2;"/>
    <path d="M 72.495454 124.68449 
L 73.995454 123.18449 
L 75.495454 124.68449 
" style="fill:none;opacity:0.5;stroke:#800080;stroke-linecap:round;stroke-width:2;"/>
    <path d="M 75.495454 131.785167 
L 73.995454 133.285167 
L 72.495454 131.785167 
" style="fill:none;opacity:0.5;stroke:#800080;stroke-linecap:round;stroke-width:2;"/>
   </g>
   <g id="patch_48">
    <path d="M 419.954469 35.792607 
Q 419.954469 53.940588 419.954469 72.088569 
" style="fill:none;opacity:0.5;stroke:#008000;stroke-linecap:round;stroke-width:2;"/>
   </g>
   <g id="patch_49">
    <path d="M 419.954469 31.54362 
Q 419.954469 34.792974 419.954469 38.042328 
" style="fill:none;opacity:0.5;stroke:#800080;stroke-linecap:round;stroke-width:2;"/>
    <path d="M 418.454469 33.04362 
L 419.954469 31.54362 
L 421.454469 33.04362 
" style="fill:none;opacity:0.5;stroke:#800080;stroke-linecap:round;stroke-width:2;"/>
    <path d="M 421.454469 36.542328 
L 419.954469 38.042328 
L 418.454469 36.542328 
" style="fill:none;opacity:0.5;stroke:#800080;stroke-linecap:round;stroke-width:2;"/>
   </g>
   <g id="patch_50">
    <path clip-path="url(#pca16ab46d5)" d="M 419.954469 206.203437 
C 422.313066 206.203437 424.575378 205.660973 426.243157 204.695517 
C 427.910937 203.73006 428.848017 202.420436 428.848017 201.055074 
C 428.848017 199.689712 427.910937 198.380088 426.243157 197.414631 
C 424.575378 196.449174 422.313066 195.90671 419.954469 195.90671 
C 417.595873 195.90671 415.333561 196.449174 413.665781 197.414631 
C 411.998001 198.380088 411.060921 199.689712 411.060921 201.055074 
C 411.060921 202.420436 411.998001 203.73006 413.665781 204.695517 
C 415.333561 205.660973 417.595873 206.203437 419.954469 206.203437 
z
" style="fill:none;opacity:0.2;stroke:#008000;stroke-linejoin:miter;stroke-width:2;"/>
   </g>
   <g id="patch_51">
    <path clip-path="url(#pca16ab46d5)" d="M 419.954469 230.400746 
C 422.313066 230.400746 424.575378 229.858282 426.243157 228.892825 
C 427.910937 227.927368 428.848017 226.617744 428.848017 225.252382 
C 428.848017 223.88702 427.910937 222.577396 426.243157 221.611939 
C 424.575378 220.646483 422.313066 220.104019 419.954469 220.104019 
C 417.595873 220.104019 415.333561 220.646483 413.665781 221.611939 
C 411.998001 222.577396 411.060921 223.88702 411.060921 225.252382 
C 411.060921 226.617744 411.998001 227.927368 413.665781 228.892825 
C 415.333561 229.858282 417.595873 230.400746 419.954469 230.400746 
z
" style="fill:none;opacity:0.2;stroke:#008000;stroke-linejoin:miter;stroke-width:2;"/>
   </g>
   <g id="patch_52">
    <path d="M 419.954469 213.153728 
Q 419.954469 231.044291 419.954469 248.934854 
" style="fill:none;opacity:0.5;stroke:#008000;stroke-linecap:round;stroke-width:2;"/>
   </g>
   <g id="patch_53">
    <path d="M 419.954469 202.469287 
Q 419.954469 212.153876 419.954469 221.838464 
" style="fill:none;opacity:0.5;stroke:#800080;stroke-linecap:round;stroke-width:2;"/>
    <path d="M 418.454469 203.969287 
L 419.954469 202.469287 
L 421.454469 203.969287 
" style="fill:none;opacity:0.5;stroke:#800080;stroke-linecap:round;stroke-width:2;"/>
    <path d="M 421.454469 220.338464 
L 419.954469 221.838464 
L 418.454469 220.338464 
" style="fill:none;opacity:0.5;stroke:#800080;stroke-linecap:round;stroke-width:2;"/>
   </g>
   <g id="patch_54">
    <path d="M 419.954469 248.934854 
Q 246.974961 202.470874 73.995454 156.006894 
" style="fill:none;opacity:0.5;stroke:#008000;stroke-linecap:round;stroke-width:2;"/>
   </g>
   <g id="patch_55">
    <path d="M 419.954469 244.685868 
Q 419.954469 247.935222 419.954469 251.184576 
" style="fill:none;opacity:0.5;stroke:#800080;stroke-linecap:round;stroke-width:2;"/>
    <path d="M 418.454469 246.185868 
L 419.954469 244.685868 
L 421.454469 246.185868 
" style="fill:none;opacity:0.5;stroke:#800080;stroke-linecap:round;stroke-width:2;"/>
    <path d="M 421.454469 249.684576 
L 419.954469 251.184576 
L 418.454469 249.684576 
" style="fill:none;opacity:0.5;stroke:#800080;stroke-linecap:round;stroke-width:2;"/>
   </g>
   <g id="patch_56">
    <path d="M 73.995454 156.006894 
Q 73.995454 142.621149 73.995454 129.235404 
" style="fill:none;opacity:0.5;stroke:#008000;stroke-linecap:round;stroke-width:2;"/>
   </g>
   <g id="patch_57">
    <path d="M 73.995454 153.559835 
Q 73.995454 155.005753 73.995454 156.451672 
" style="fill:none;opacity:0.5;stroke:#800080;stroke-linecap:round;stroke-width:2;"/>
    <path d="M 72.495454 155.059835 
L 73.995454 153.559835 
L 75.495454 155.059835 
" style="fill:none;opacity:0.5;stroke:#800080;stroke-linecap:round;stroke-width:2;"/>
    <path d="M 75.495454 154.951672 
L 73.995454 156.451672 
L 72.495454 154.951672 
" style="fill:none;opacity:0.5;stroke:#800080;stroke-linecap:round;stroke-width:2;"/>
   </g>
   <g id="patch_58">
    <path clip-path="url(#pca16ab46d5)" d="M 425.290598 300.933325 
C 425.762317 300.933325 426.21478 300.824832 426.548335 300.631741 
C 426.881891 300.43865 427.069307 300.176725 427.069307 299.903652 
C 427.069307 299.63058 426.881891 299.368655 426.548335 299.175564 
C 426.21478 298.982473 425.762317 298.87398 425.290598 298.87398 
C 424.818879 298.87398 424.366416 298.982473 424.03286 299.175564 
C 423.699304 299.368655 423.511888 299.63058 423.511888 299.903652 
C 423.511888 300.176725 423.699304 300.43865 424.03286 300.631741 
C 424.366416 300.824832 424.818879 300.933325 425.290598 300.933325 
z
" style="fill:#ff0000;opacity:0.2;stroke:#ff0000;stroke-linejoin:miter;stroke-width:2;"/>
   </g>
   <g id="patch_59">
    <path clip-path="url(#pca16ab46d5)" d="M 68.659325 300.933325 
C 69.131044 300.933325 69.583507 300.824832 69.917063 300.631741 
C 70.250619 300.43865 70.438035 300.176725 70.438035 299.903652 
C 70.438035 299.63058 70.250619 299.368655 69.917063 299.175564 
C 69.583507 298.982473 69.131044 298.87398 68.659325 298.87398 
C 68.187606 298.87398 67.735143 298.982473 67.401587 299.175564 
C 67.068032 299.368655 66.880615 299.63058 66.880615 299.903652 
C 66.880615 300.176725 67.068032 300.43865 67.401587 300.631741 
C 67.735143 300.824832 68.187606 300.933325 68.659325 300.933325 
z
" style="fill:#ff0000;opacity:0.2;stroke:#ff0000;stroke-linejoin:miter;stroke-width:2;"/>
   </g>
   <g id="patch_60">
    <path clip-path="url(#pca16ab46d5)" d="M 68.659325 263.865108 
C 69.131044 263.865108 69.583507 263.756615 69.917063 263.563524 
C 70.250619 263.370433 70.438035 263.108508 70.438035 262.835436 
C 70.438035 262.562363 70.250619 262.300438 69.917063 262.107347 
C 69.583507 261.914256 69.131044 261.805763 68.659325 261.805763 
C 68.187606 261.805763 67.735143 261.914256 67.401587 262.107347 
C 67.068032 262.300438 66.880615 262.562363 66.880615 262.835436 
C 66.880615 263.108508 67.068032 263.370433 67.401587 263.563524 
C 67.735143 263.756615 68.187606 263.865108 68.659325 263.865108 
z
" style="fill:#ff0000;opacity:0.2;stroke:#ff0000;stroke-linejoin:miter;stroke-width:2;"/>
   </g>
   <g id="patch_61">
    <path clip-path="url(#pca16ab46d5)" d="M 425.290598 263.865108 
C 425.762317 263.865108 426.21478 263.756615 426.548335 263.563524 
C 426.881891 263.370433 427.069307 263.108508 427.069307 262.835436 
C 427.069307 262.562363 426.881891 262.300438 426.548335 262.107347 
C 426.21478 261.914256 425.762317 261.805763 425.290598 261.805763 
C 424.818879 261.805763 424.366416 261.914256 424.03286 262.107347 
C 423.699304 262.300438 423.511888 262.562363 423.511888 262.835436 
C 423.511888 263.108508 423.699304 263.370433 424.03286 263.563524 
C 424.366416 263.756615 424.818879 263.865108 425.290598 263.865108 
z
" style="fill:#ff0000;opacity:0.2;stroke:#ff0000;stroke-linejoin:miter;stroke-width:2;"/>
   </g>
   <g id="patch_62">
    <path clip-path="url(#pca16ab46d5)" d="M 418.17576 281.626962 
C 418.647479 281.626962 419.099941 281.518469 419.433497 281.325378 
C 419.767053 281.132287 419.954469 280.870362 419.954469 280.597289 
C 419.954469 280.324217 419.767053 280.062292 419.433497 279.869201 
C 419.099941 279.67611 418.647479 279.567617 418.17576 279.567617 
C 417.70404 279.567617 417.251578 279.67611 416.918022 279.869201 
C 416.584466 280.062292 416.39705 280.324217 416.39705 280.597289 
C 416.39705 280.870362 416.584466 281.132287 416.918022 281.325378 
C 417.251578 281.518469 417.70404 281.626962 418.17576 281.626962 
z
" style="fill:#0000ff;opacity:0.2;stroke:#0000ff;stroke-linejoin:miter;stroke-width:2;"/>
   </g>
   <g id="patch_63">
    <path clip-path="url(#pca16ab46d5)" d="M 418.17576 306.853943 
C 418.647479 306.853943 419.099941 306.74545 419.433497 306.552359 
C 419.767053 306.359268 419.954469 306.097343 419.954469 305.82427 
C 419.954469 305.551198 419.767053 305.289273 419.433497 305.096182 
C 419.099941 304.903091 418.647479 304.794598 418.17576 304.794598 
C 417.70404 304.794598 417.251578 304.903091 416.918022 305.096182 
C 416.584466 305.289273 416.39705 305.551198 416.39705 305.82427 
C 416.39705 306.097343 416.584466 306.359268 416.918022 306.552359 
C 417.251578 306.74545 417.70404 306.853943 418.17576 306.853943 
z
" style="fill:#0000ff;opacity:0.2;stroke:#0000ff;stroke-linejoin:miter;stroke-width:2;"/>
   </g>
   <g id="patch_64">
    <path clip-path="url(#pca16ab46d5)" d="M 75.774163 306.853943 
C 76.245883 306.853943 76.698345 306.74545 77.031901 306.552359 
C 77.365457 306.359268 77.552873 306.097343 77.552873 305.82427 
C 77.552873 305.551198 77.365457 305.289273 77.031901 305.096182 
C 76.698345 304.903091 76.245883 304.794598 75.774163 304.794598 
C 75.302444 304.794598 74.849982 304.903091 74.516426 305.096182 
C 74.18287 305.289273 73.995454 305.551198 73.995454 305.82427 
C 73.995454 306.097343 74.18287 306.359268 74.516426 306.552359 
C 74.849982 306.74545 75.302444 306.853943 75.774163 306.853943 
z
" style="fill:#0000ff;opacity:0.2;stroke:#0000ff;stroke-linejoin:miter;stroke-width:2;"/>
   </g>
   <g id="patch_65">
    <path clip-path="url(#pca16ab46d5)" d="M 75.774163 281.626962 
C 76.245883 281.626962 76.698345 281.518469 77.031901 281.325378 
C 77.365457 281.132287 77.552873 280.870362 77.552873 280.597289 
C 77.552873 280.324217 77.365457 280.062292 77.031901 279.869201 
C 76.698345 279.67611 76.245883 279.567617 75.774163 279.567617 
C 75.302444 279.567617 74.849982 279.67611 74.516426 279.869201 
C 74.18287 280.062292 73.995454 280.324217 73.995454 280.597289 
C 73.995454 280.870362 74.18287 281.132287 74.516426 281.325378 
C 74.849982 281.518469 75.302444 281.626962 75.774163 281.626962 
z
" style="fill:#0000ff;opacity:0.2;stroke:#0000ff;stroke-linejoin:miter;stroke-width:2;"/>
   </g>
   <g id="patch_66">
    <path clip-path="url(#pca16ab46d5)" d="M 425.290598 299.903652 
L 68.659325 299.903652 
L 68.659325 262.835436 
L 425.290598 262.835436 
L 425.290598 299.903652 
" style="fill:none;stroke:#ff0000;stroke-linejoin:miter;stroke-width:0.5;"/>
   </g>
   <g id="patch_67">
    <path clip-path="url(#pca16ab46d5)" d="M 418.17576 280.597289 
L 418.17576 305.82427 
L 75.774163 305.82427 
L 75.774163 280.597289 
L 418.17576 280.597289 
" style="fill:none;stroke:#0000ff;stroke-linejoin:miter;stroke-width:0.5;"/>
   </g>
   <g id="[&quot;g_s&quot;:1,&quot;g_t&quot;:2,&quot;coords&quot;:[[511.0, -700.0],[503.0, -711.5]],&quot;certainty&quot;:10]">
    <path clip-path="url(#pca16ab46d5)" d="M 425.290598 302.735252 
C 426.587826 302.735252 427.832098 302.436897 428.749376 301.905896 
C 429.666655 301.374895 430.182049 300.654602 430.182049 299.903652 
C 430.182049 299.152703 429.666655 298.43241 428.749376 297.901409 
C 427.832098 297.370408 426.587826 297.072053 425.290598 297.072053 
C 423.99337 297.072053 422.749098 297.370408 421.831819 297.901409 
C 420.914541 298.43241 420.399146 299.152703 420.399146 299.903652 
C 420.399146 300.654602 420.914541 301.374895 421.831819 301.905896 
C 422.749098 302.436897 423.99337 302.735252 425.290598 302.735252 
z
" style="fill:#0000ff;opacity:0.2;stroke:#0000ff;stroke-linejoin:miter;stroke-width:2;"/>
   </g>
   <g id="[&quot;g_s&quot;:2,&quot;g_t&quot;:1,&quot;coords&quot;:[[503.0, -711.5],[511.0, -700.0]],&quot;certainty&quot;:10]">
    <path clip-path="url(#pca16ab46d5)" d="M 418.17576 308.65587 
C 419.472988 308.65587 420.717259 308.357515 421.634538 307.826514 
C 422.551817 307.295513 423.067211 306.57522 423.067211 305.82427 
C 423.067211 305.073321 422.551817 304.353028 421.634538 303.822027 
C 420.717259 303.291026 419.472988 302.992671 418.17576 302.992671 
C 416.878531 302.992671 415.63426 303.291026 414.716981 303.822027 
C 413.799702 304.353028 413.284308 305.073321 413.284308 305.82427 
C 413.284308 306.57522 413.799702 307.295513 414.716981 307.826514 
C 415.63426 308.357515 416.878531 308.65587 418.17576 308.65587 
z
" style="fill:#ff0000;opacity:0.2;stroke:#ff0000;stroke-linejoin:miter;stroke-width:2;"/>
   </g>
   <g id="patch_68">
    <path d="M 425.290598 299.903652 
Q 422.502679 302.223621 421.209469 303.299767 
" style="fill:none;opacity:0.5;stroke:#0000ff;stroke-linecap:round;stroke-width:2.75;"/>
    <path d="M 423.321943 303.493298 
L 421.209469 303.299767 
L 421.403 301.187293 
" style="fill:none;opacity:0.5;stroke:#0000ff;stroke-linecap:round;stroke-width:2.75;"/>
   </g>
   <g id="[&quot;g_s&quot;:2,&quot;g_t&quot;:3,&quot;coords&quot;:[[110.0, -700.0],[118.0, -711.5]],&quot;certainty&quot;:11]">
    <path clip-path="url(#pca16ab46d5)" d="M 68.659325 302.992671 
C 70.074483 302.992671 71.43187 302.667192 72.432538 302.087918 
C 73.433206 301.508644 73.995454 300.72287 73.995454 299.903652 
C 73.995454 299.084435 73.433206 298.298661 72.432538 297.719387 
C 71.43187 297.140113 70.074483 296.814634 68.659325 296.814634 
C 67.244167 296.814634 65.88678 297.140113 64.886112 297.719387 
C 63.885445 298.298661 63.323196 299.084435 63.323196 299.903652 
C 63.323196 300.72287 63.885445 301.508644 64.886112 302.087918 
C 65.88678 302.667192 67.244167 302.992671 68.659325 302.992671 
z
" style="fill:#0000ff;opacity:0.2;stroke:#0000ff;stroke-linejoin:miter;stroke-width:2;"/>
   </g>
   <g id="[&quot;g_s&quot;:3,&quot;g_t&quot;:2,&quot;coords&quot;:[[118.0, -711.5],[110.0, -700.0]],&quot;certainty&quot;:11]">
    <path clip-path="url(#pca16ab46d5)" d="M 75.774163 308.913289 
C 77.189321 308.913289 78.546709 308.58781 79.547376 308.008536 
C 80.548044 307.429262 81.110292 306.643488 81.110292 305.82427 
C 81.110292 305.005053 80.548044 304.219279 79.547376 303.640005 
C 78.546709 303.060731 77.189321 302.735252 75.774163 302.735252 
C 74.359006 302.735252 73.001618 303.060731 72.000951 303.640005 
C 71.000283 304.219279 70.438035 305.005053 70.438035 305.82427 
C 70.438035 306.643488 71.000283 307.429262 72.000951 308.008536 
C 73.001618 308.58781 74.359006 308.913289 75.774163 308.913289 
z
" style="fill:#ff0000;opacity:0.2;stroke:#ff0000;stroke-linejoin:miter;stroke-width:2;"/>
   </g>
   <g id="patch_69">
    <path d="M 68.659325 299.903652 
Q 71.447244 302.223621 72.604571 303.186692 
" style="fill:none;opacity:0.5;stroke:#0000ff;stroke-linecap:round;stroke-width:3;"/>
    <path d="M 72.411041 301.074218 
L 72.604571 303.186692 
L 70.492097 303.380223 
" style="fill:none;opacity:0.5;stroke:#0000ff;stroke-linecap:round;stroke-width:3;"/>
   </g>
   <g id="[&quot;g_s&quot;:3,&quot;g_t&quot;:4,&quot;coords&quot;:[[110.0, -628.0],[118.0, -662.5]],&quot;certainty&quot;:11]">
    <path clip-path="url(#pca16ab46d5)" d="M 68.659325 265.924454 
C 70.074483 265.924454 71.43187 265.598975 72.432538 265.019701 
C 73.433206 264.440427 73.995454 263.654653 73.995454 262.835436 
C 73.995454 262.016218 73.433206 261.230444 72.432538 260.65117 
C 71.43187 260.071896 70.074483 259.746417 68.659325 259.746417 
C 67.244167 259.746417 65.88678 260.071896 64.886112 260.65117 
C 63.885445 261.230444 63.323196 262.016218 63.323196 262.835436 
C 63.323196 263.654653 63.885445 264.440427 64.886112 265.019701 
C 65.88678 265.598975 67.244167 265.924454 68.659325 265.924454 
z
" style="fill:#0000ff;opacity:0.2;stroke:#0000ff;stroke-linejoin:miter;stroke-width:2;"/>
   </g>
   <g id="[&quot;g_s&quot;:4,&quot;g_t&quot;:3,&quot;coords&quot;:[[118.0, -662.5],[110.0, -628.0]],&quot;certainty&quot;:11]">
    <path clip-path="url(#pca16ab46d5)" d="M 75.774163 283.686308 
C 77.189321 283.686308 78.546709 283.360829 79.547376 282.781555 
C 80.548044 282.202281 81.110292 281.416507 81.110292 280.597289 
C 81.110292 279.778072 80.548044 278.992298 79.547376 278.413024 
C 78.546709 277.83375 77.189321 277.508271 75.774163 277.508271 
C 74.359006 277.508271 73.001618 277.83375 72.000951 278.413024 
C 71.000283 278.992298 70.438035 279.778072 70.438035 280.597289 
C 70.438035 281.416507 71.000283 282.202281 72.000951 282.781555 
C 73.001618 283.360829 74.359006 283.686308 75.774163 283.686308 
z
" style="fill:#ff0000;opacity:0.2;stroke:#ff0000;stroke-linejoin:miter;stroke-width:2;"/>
   </g>
   <g id="patch_70">
    <path d="M 68.659325 262.835436 
Q 71.844153 270.786207 74.240178 276.767768 
" style="fill:none;opacity:0.5;stroke:#0000ff;stroke-linecap:round;stroke-width:3;"/>
    <path d="M 75.074852 274.817558 
L 74.240178 276.767768 
L 72.289968 275.933094 
" style="fill:none;opacity:0.5;stroke:#0000ff;stroke-linecap:round;stroke-width:3;"/>
   </g>
   <g id="[&quot;g_s&quot;:4,&quot;g_t&quot;:1,&quot;coords&quot;:[[511.0, -628.0],[503.0, -662.5]],&quot;certainty&quot;:12]">
    <path clip-path="url(#pca16ab46d5)" d="M 425.290598 266.181872 
C 426.823686 266.181872 428.294188 265.82927 429.378245 265.201723 
C 430.462302 264.574176 431.071404 263.722921 431.071404 262.835436 
C 431.071404 261.94795 430.462302 261.096695 429.378245 260.469148 
C 428.294188 259.841601 426.823686 259.488999 425.290598 259.488999 
C 423.75751 259.488999 422.287007 259.841601 421.202951 260.469148 
C 420.118894 261.096695 419.509792 261.94795 419.509792 262.835436 
C 419.509792 263.722921 420.118894 264.574176 421.202951 265.201723 
C 422.287007 265.82927 423.75751 266.181872 425.290598 266.181872 
z
" style="fill:#0000ff;opacity:0.2;stroke:#0000ff;stroke-linejoin:miter;stroke-width:2;"/>
   </g>
   <g id="[&quot;g_s&quot;:1,&quot;g_t&quot;:4,&quot;coords&quot;:[[503.0, -662.5],[511.0, -628.0]],&quot;certainty&quot;:12]">
    <path clip-path="url(#pca16ab46d5)" d="M 418.17576 283.943726 
C 419.708847 283.943726 421.17935 283.591124 422.263407 282.963577 
C 423.347463 282.33603 423.956566 281.484775 423.956566 280.597289 
C 423.956566 279.709804 423.347463 278.858549 422.263407 278.231002 
C 421.17935 277.603455 419.708847 277.250853 418.17576 277.250853 
C 416.642672 277.250853 415.172169 277.603455 414.088112 278.231002 
C 413.004056 278.858549 412.394953 279.709804 412.394953 280.597289 
C 412.394953 281.484775 413.004056 282.33603 414.088112 282.963577 
C 415.172169 283.591124 416.642672 283.943726 418.17576 283.943726 
z
" style="fill:#ff0000;opacity:0.2;stroke:#ff0000;stroke-linejoin:miter;stroke-width:2;"/>
   </g>
   <g id="patch_71">
    <path d="M 425.290598 262.835436 
Q 422.10577 270.786207 419.775479 276.603667 
" style="fill:none;opacity:0.5;stroke:#0000ff;stroke-linecap:round;stroke-width:3.25;"/>
    <path d="M 421.725689 275.768993 
L 419.775479 276.603667 
L 418.940805 274.653457 
" style="fill:none;opacity:0.5;stroke:#0000ff;stroke-linecap:round;stroke-width:3.25;"/>
   </g>
   <g id="[&quot;g_s&quot;:1,&quot;g_t&quot;:4,&quot;coords&quot;:[[503.0, -662.5],[511.0, -628.0]],&quot;certainty&quot;:10]">
    <path clip-path="url(#pca16ab46d5)" d="M 418.17576 283.428889 
C 419.472988 283.428889 420.717259 283.130534 421.634538 282.599533 
C 422.551817 282.068532 423.067211 281.348239 423.067211 280.597289 
C 423.067211 279.84634 422.551817 279.126047 421.634538 278.595046 
C 420.717259 278.064045 419.472988 277.76569 418.17576 277.76569 
C 416.878531 277.76569 415.63426 278.064045 414.716981 278.595046 
C 413.799702 279.126047 413.284308 279.84634 413.284308 280.597289 
C 413.284308 281.348239 413.799702 282.068532 414.716981 282.599533 
C 415.63426 283.130534 416.878531 283.428889 418.17576 283.428889 
z
" style="fill:#0000ff;opacity:0.2;stroke:#0000ff;stroke-linejoin:miter;stroke-width:2;"/>
   </g>
   <g id="[&quot;g_s&quot;:4,&quot;g_t&quot;:1,&quot;coords&quot;:[[511.0, -628.0],[503.0, -662.5]],&quot;certainty&quot;:10]">
    <path clip-path="url(#pca16ab46d5)" d="M 425.290598 265.667035 
C 426.587826 265.667035 427.832098 265.36868 428.749376 264.837679 
C 429.666655 264.306678 430.182049 263.586385 430.182049 262.835436 
C 430.182049 262.084486 429.666655 261.364193 428.749376 260.833192 
C 427.832098 260.302191 426.587826 260.003836 425.290598 260.003836 
C 423.99337 260.003836 422.749098 260.302191 421.831819 260.833192 
C 420.914541 261.364193 420.399146 262.084486 420.399146 262.835436 
C 420.399146 263.586385 420.914541 264.306678 421.831819 264.837679 
C 422.749098 265.36868 423.99337 265.667035 425.290598 265.667035 
z
" style="fill:#ff0000;opacity:0.2;stroke:#ff0000;stroke-linejoin:miter;stroke-width:2;"/>
   </g>
   <g id="patch_72">
    <path d="M 418.17576 280.597289 
Q 421.360588 272.646518 423.822346 266.500856 
" style="fill:none;opacity:0.5;stroke:#ff0000;stroke-linecap:round;stroke-width:2.75;"/>
    <path d="M 421.872136 267.33553 
L 423.822346 266.500856 
L 424.65702 268.451067 
" style="fill:none;opacity:0.5;stroke:#ff0000;stroke-linecap:round;stroke-width:2.75;"/>
   </g>
   <g id="[&quot;g_s&quot;:2,&quot;g_t&quot;:1,&quot;coords&quot;:[[503.0, -711.5],[511.0, -700.0]],&quot;certainty&quot;:11]">
    <path clip-path="url(#pca16ab46d5)" d="M 418.17576 308.913289 
C 419.590917 308.913289 420.948305 308.58781 421.948972 308.008536 
C 422.94964 307.429262 423.511888 306.643488 423.511888 305.82427 
C 423.511888 305.005053 422.94964 304.219279 421.948972 303.640005 
C 420.948305 303.060731 419.590917 302.735252 418.17576 302.735252 
C 416.760602 302.735252 415.403214 303.060731 414.402547 303.640005 
C 413.401879 304.219279 412.839631 305.005053 412.839631 305.82427 
C 412.839631 306.643488 413.401879 307.429262 414.402547 308.008536 
C 415.403214 308.58781 416.760602 308.913289 418.17576 308.913289 
z
" style="fill:#0000ff;opacity:0.2;stroke:#0000ff;stroke-linejoin:miter;stroke-width:2;"/>
   </g>
   <g id="[&quot;g_s&quot;:1,&quot;g_t&quot;:2,&quot;coords&quot;:[[511.0, -700.0],[503.0, -711.5]],&quot;certainty&quot;:11]">
    <path clip-path="url(#pca16ab46d5)" d="M 425.290598 302.992671 
C 426.705756 302.992671 428.063143 302.667192 429.063811 302.087918 
C 430.064478 301.508644 430.626727 300.72287 430.626727 299.903652 
C 430.626727 299.084435 430.064478 298.298661 429.063811 297.719387 
C 428.063143 297.140113 426.705756 296.814634 425.290598 296.814634 
C 423.87544 296.814634 422.518053 297.140113 421.517385 297.719387 
C 420.516717 298.298661 419.954469 299.084435 419.954469 299.903652 
C 419.954469 300.72287 420.516717 301.508644 421.517385 302.087918 
C 422.518053 302.667192 423.87544 302.992671 425.290598 302.992671 
z
" style="fill:#ff0000;opacity:0.2;stroke:#ff0000;stroke-linejoin:miter;stroke-width:2;"/>
   </g>
   <g id="patch_73">
    <path d="M 418.17576 305.82427 
Q 420.963678 303.504302 422.121006 302.541231 
" style="fill:none;opacity:0.5;stroke:#ff0000;stroke-linecap:round;stroke-width:3;"/>
    <path d="M 420.008532 302.3477 
L 422.121006 302.541231 
L 421.927475 304.653705 
" style="fill:none;opacity:0.5;stroke:#ff0000;stroke-linecap:round;stroke-width:3;"/>
   </g>
   <g id="[&quot;g_s&quot;:3,&quot;g_t&quot;:2,&quot;coords&quot;:[[118.0, -711.5],[110.0, -700.0]],&quot;certainty&quot;:11]">
    <path clip-path="url(#pca16ab46d5)" d="M 75.774163 308.913289 
C 77.189321 308.913289 78.546709 308.58781 79.547376 308.008536 
C 80.548044 307.429262 81.110292 306.643488 81.110292 305.82427 
C 81.110292 305.005053 80.548044 304.219279 79.547376 303.640005 
C 78.546709 303.060731 77.189321 302.735252 75.774163 302.735252 
C 74.359006 302.735252 73.001618 303.060731 72.000951 303.640005 
C 71.000283 304.219279 70.438035 305.005053 70.438035 305.82427 
C 70.438035 306.643488 71.000283 307.429262 72.000951 308.008536 
C 73.001618 308.58781 74.359006 308.913289 75.774163 308.913289 
z
" style="fill:#0000ff;opacity:0.2;stroke:#0000ff;stroke-linejoin:miter;stroke-width:2;"/>
   </g>
   <g id="[&quot;g_s&quot;:2,&quot;g_t&quot;:3,&quot;coords&quot;:[[110.0, -700.0],[118.0, -711.5]],&quot;certainty&quot;:11]">
    <path clip-path="url(#pca16ab46d5)" d="M 68.659325 302.992671 
C 70.074483 302.992671 71.43187 302.667192 72.432538 302.087918 
C 73.433206 301.508644 73.995454 300.72287 73.995454 299.903652 
C 73.995454 299.084435 73.433206 298.298661 72.432538 297.719387 
C 71.43187 297.140113 70.074483 296.814634 68.659325 296.814634 
C 67.244167 296.814634 65.88678 297.140113 64.886112 297.719387 
C 63.885445 298.298661 63.323196 299.084435 63.323196 299.903652 
C 63.323196 300.72287 63.885445 301.508644 64.886112 302.087918 
C 65.88678 302.667192 67.244167 302.992671 68.659325 302.992671 
z
" style="fill:#ff0000;opacity:0.2;stroke:#ff0000;stroke-linejoin:miter;stroke-width:2;"/>
   </g>
   <g id="patch_74">
    <path d="M 75.774163 305.82427 
Q 72.986245 303.504302 71.828917 302.541231 
" style="fill:none;opacity:0.5;stroke:#ff0000;stroke-linecap:round;stroke-width:3;"/>
    <path d="M 72.022448 304.653705 
L 71.828917 302.541231 
L 73.941391 302.3477 
" style="fill:none;opacity:0.5;stroke:#ff0000;stroke-linecap:round;stroke-width:3;"/>
   </g>
   <g id="[&quot;g_s&quot;:4,&quot;g_t&quot;:3,&quot;coords&quot;:[[118.0, -662.5],[110.0, -628.0]],&quot;certainty&quot;:12]">
    <path clip-path="url(#pca16ab46d5)" d="M 75.774163 283.943726 
C 77.307251 283.943726 78.777754 283.591124 79.861811 282.963577 
C 80.945867 282.33603 81.55497 281.484775 81.55497 280.597289 
C 81.55497 279.709804 80.945867 278.858549 79.861811 278.231002 
C 78.777754 277.603455 77.307251 277.250853 75.774163 277.250853 
C 74.241076 277.250853 72.770573 277.603455 71.686516 278.231002 
C 70.602459 278.858549 69.993357 279.709804 69.993357 280.597289 
C 69.993357 281.484775 70.602459 282.33603 71.686516 282.963577 
C 72.770573 283.591124 74.241076 283.943726 75.774163 283.943726 
z
" style="fill:#0000ff;opacity:0.2;stroke:#0000ff;stroke-linejoin:miter;stroke-width:2;"/>
   </g>
   <g id="[&quot;g_s&quot;:3,&quot;g_t&quot;:4,&quot;coords&quot;:[[110.0, -628.0],[118.0, -662.5]],&quot;certainty&quot;:12]">
    <path clip-path="url(#pca16ab46d5)" d="M 68.659325 266.181872 
C 70.192413 266.181872 71.662916 265.82927 72.746972 265.201723 
C 73.831029 264.574176 74.440131 263.722921 74.440131 262.835436 
C 74.440131 261.94795 73.831029 261.096695 72.746972 260.469148 
C 71.662916 259.841601 70.192413 259.488999 68.659325 259.488999 
C 67.126237 259.488999 65.655735 259.841601 64.571678 260.469148 
C 63.487621 261.096695 62.878519 261.94795 62.878519 262.835436 
C 62.878519 263.722921 63.487621 264.574176 64.571678 265.201723 
C 65.655735 265.82927 67.126237 266.181872 68.659325 266.181872 
z
" style="fill:#ff0000;opacity:0.2;stroke:#ff0000;stroke-linejoin:miter;stroke-width:2;"/>
   </g>
   <g id="patch_75">
    <path d="M 75.774163 280.597289 
Q 72.589335 272.646518 70.259044 266.829058 
" style="fill:none;opacity:0.5;stroke:#ff0000;stroke-linecap:round;stroke-width:3.25;"/>
    <path d="M 69.424371 268.779268 
L 70.259044 266.829058 
L 72.209254 267.663732 
" style="fill:none;opacity:0.5;stroke:#ff0000;stroke-linecap:round;stroke-width:3.25;"/>
   </g>
   <g id="patch_76">
    <path clip-path="url(#pca16ab46d5)" d="M 421.733179 305.438143 
C 422.912477 305.438143 424.043633 305.166911 424.877523 304.684183 
C 425.711413 304.201455 426.179953 303.546642 426.179953 302.863961 
C 426.179953 302.181281 425.711413 301.526468 424.877523 301.04374 
C 424.043633 300.561012 422.912477 300.28978 421.733179 300.28978 
C 420.55388 300.28978 419.422724 300.561012 418.588835 301.04374 
C 417.754945 301.526468 417.286405 302.181281 417.286405 302.863961 
C 417.286405 303.546642 417.754945 304.201455 418.588835 304.684183 
C 419.422724 305.166911 420.55388 305.438143 421.733179 305.438143 
z
" style="fill:#008000;opacity:0.2;stroke:#008000;stroke-linejoin:miter;stroke-width:2;"/>
   </g>
   <g id="patch_77">
    <path clip-path="url(#pca16ab46d5)" d="M 72.216744 305.438143 
C 73.396043 305.438143 74.527199 305.166911 75.361088 304.684183 
C 76.194978 304.201455 76.663518 303.546642 76.663518 302.863961 
C 76.663518 302.181281 76.194978 301.526468 75.361088 301.04374 
C 74.527199 300.561012 73.396043 300.28978 72.216744 300.28978 
C 71.037446 300.28978 69.90629 300.561012 69.0724 301.04374 
C 68.23851 301.526468 67.76997 302.181281 67.76997 302.863961 
C 67.76997 303.546642 68.23851 304.201455 69.0724 304.684183 
C 69.90629 305.166911 71.037446 305.438143 72.216744 305.438143 
z
" style="fill:#008000;opacity:0.2;stroke:#008000;stroke-linejoin:miter;stroke-width:2;"/>
   </g>
   <g id="patch_78">
    <path clip-path="url(#pca16ab46d5)" d="M 72.216744 274.290544 
C 73.396043 274.290544 74.527199 274.019312 75.361088 273.536584 
C 76.194978 273.053856 76.663518 272.399043 76.663518 271.716363 
C 76.663518 271.033682 76.194978 270.378869 75.361088 269.896141 
C 74.527199 269.413413 73.396043 269.142181 72.216744 269.142181 
C 71.037446 269.142181 69.90629 269.413413 69.0724 269.896141 
C 68.23851 270.378869 67.76997 271.033682 67.76997 271.716363 
C 67.76997 272.399043 68.23851 273.053856 69.0724 273.536584 
C 69.90629 274.019312 71.037446 274.290544 72.216744 274.290544 
z
" style="fill:#008000;opacity:0.2;stroke:#008000;stroke-linejoin:miter;stroke-width:2;"/>
   </g>
   <g id="patch_79">
    <path clip-path="url(#pca16ab46d5)" d="M 421.733179 274.290544 
C 422.912477 274.290544 424.043633 274.019312 424.877523 273.536584 
C 425.711413 273.053856 426.179953 272.399043 426.179953 271.716363 
C 426.179953 271.033682 425.711413 270.378869 424.877523 269.896141 
C 424.043633 269.413413 422.912477 269.142181 421.733179 269.142181 
C 420.55388 269.142181 419.422724 269.413413 418.588835 269.896141 
C 417.754945 270.378869 417.286405 271.033682 417.286405 271.716363 
C 417.286405 272.399043 417.754945 273.053856 418.588835 273.536584 
C 419.422724 274.019312 420.55388 274.290544 421.733179 274.290544 
z
" style="fill:#008000;opacity:0.2;stroke:#008000;stroke-linejoin:miter;stroke-width:2;"/>
   </g>
   <g id="patch_80">
    <path clip-path="url(#pca16ab46d5)" d="M 425.290598 310.200379 
C 430.007791 310.200379 434.532415 309.115451 437.867974 307.184538 
C 441.203533 305.253625 443.077694 302.634376 443.077694 299.903652 
C 443.077694 297.172929 441.203533 294.55368 437.867974 292.622767 
C 434.532415 290.691854 430.007791 289.606926 425.290598 289.606926 
C 420.573405 289.606926 416.048781 290.691854 412.713222 292.622767 
C 409.377663 294.55368 407.503502 297.172929 407.503502 299.903652 
C 407.503502 302.634376 409.377663 305.253625 412.713222 307.184538 
C 416.048781 309.115451 420.573405 310.200379 425.290598 310.200379 
z
" style="fill:none;opacity:0.2;stroke:#ff0000;stroke-linejoin:miter;stroke-width:2;"/>
   </g>
   <g id="patch_81">
    <path clip-path="url(#pca16ab46d5)" d="M 418.17576 290.894016 
C 422.892952 290.894016 427.417576 289.809088 430.753136 287.878175 
C 434.088695 285.947262 435.962855 283.328013 435.962855 280.597289 
C 435.962855 277.866566 434.088695 275.247317 430.753136 273.316404 
C 427.417576 271.385491 422.892952 270.300563 418.17576 270.300563 
C 413.458567 270.300563 408.933943 271.385491 405.598383 273.316404 
C 402.262824 275.247317 400.388664 277.866566 400.388664 280.597289 
C 400.388664 283.328013 402.262824 285.947262 405.598383 287.878175 
C 408.933943 289.809088 413.458567 290.894016 418.17576 290.894016 
z
" style="fill:none;opacity:0.2;stroke:#0000ff;stroke-linejoin:miter;stroke-width:2;"/>
   </g>
   <g id="patch_82">
    <path clip-path="url(#pca16ab46d5)" d="M 425.290598 305.052016 
C 427.649194 305.052016 429.911506 304.509552 431.579286 303.544095 
C 433.247065 302.578639 434.184146 301.269014 434.184146 299.903652 
C 434.184146 298.538291 433.247065 297.228666 431.579286 296.26321 
C 429.911506 295.297753 427.649194 294.755289 425.290598 294.755289 
C 422.932001 294.755289 420.669689 295.297753 419.00191 296.26321 
C 417.33413 297.228666 416.39705 298.538291 416.39705 299.903652 
C 416.39705 301.269014 417.33413 302.578639 419.00191 303.544095 
C 420.669689 304.509552 422.932001 305.052016 425.290598 305.052016 
z
" style="fill:none;opacity:0.2;stroke:#008000;stroke-linejoin:miter;stroke-width:2;"/>
   </g>
   <g id="patch_83">
    <path clip-path="url(#pca16ab46d5)" d="M 418.17576 310.972634 
C 420.534356 310.972634 422.796668 310.43017 424.464448 309.464713 
C 426.132227 308.499257 427.069307 307.189632 427.069307 305.82427 
C 427.069307 304.458909 426.132227 303.149284 424.464448 302.183828 
C 422.796668 301.218371 420.534356 300.675907 418.17576 300.675907 
C 415.817163 300.675907 413.554851 301.218371 411.887071 302.183828 
C 410.219292 303.149284 409.282212 304.458909 409.282212 305.82427 
C 409.282212 307.189632 410.219292 308.499257 411.887071 309.464713 
C 413.554851 310.43017 415.817163 310.972634 418.17576 310.972634 
z
" style="fill:none;opacity:0.2;stroke:#008000;stroke-linejoin:miter;stroke-width:2;"/>
   </g>
   <g id="patch_84">
    <path d="M 421.733179 302.863961 
Q 246.974961 302.863961 72.216744 302.863961 
" style="fill:none;opacity:0.5;stroke:#008000;stroke-linecap:round;stroke-width:2;"/>
   </g>
   <g id="patch_85">
    <path d="M 424.203537 300.808251 
Q 422.502679 302.223621 420.801821 303.638991 
" style="fill:none;opacity:0.5;stroke:#800080;stroke-linecap:round;stroke-width:2;"/>
    <path d="M 422.091063 300.61472 
L 424.203537 300.808251 
L 424.010006 302.920725 
" style="fill:none;opacity:0.5;stroke:#800080;stroke-linecap:round;stroke-width:2;"/>
    <path d="M 422.914295 303.832522 
L 420.801821 303.638991 
L 420.995352 301.526517 
" style="fill:none;opacity:0.5;stroke:#800080;stroke-linecap:round;stroke-width:2;"/>
   </g>
   <g id="patch_86">
    <path d="M 72.216744 302.863961 
Q 72.216744 287.290162 72.216744 271.716363 
" style="fill:none;opacity:0.5;stroke:#008000;stroke-linecap:round;stroke-width:2;"/>
   </g>
   <g id="patch_87">
    <path d="M 69.746386 300.808251 
Q 71.447244 302.223621 73.148102 303.638991 
" style="fill:none;opacity:0.5;stroke:#800080;stroke-linecap:round;stroke-width:2;"/>
    <path d="M 69.939917 302.920725 
L 69.746386 300.808251 
L 71.85886 300.61472 
" style="fill:none;opacity:0.5;stroke:#800080;stroke-linecap:round;stroke-width:2;"/>
    <path d="M 72.954571 301.526517 
L 73.148102 303.638991 
L 71.035628 303.832522 
" style="fill:none;opacity:0.5;stroke:#800080;stroke-linecap:round;stroke-width:2;"/>
   </g>
   <g id="patch_88">
    <path d="M 72.216744 271.716363 
Q 246.974961 271.716363 421.733179 271.716363 
" style="fill:none;opacity:0.5;stroke:#008000;stroke-linecap:round;stroke-width:2;"/>
   </g>
   <g id="patch_89">
    <path d="M 69.185194 264.148242 
Q 71.844153 270.786207 74.503112 277.424171 
" style="fill:none;opacity:0.5;stroke:#800080;stroke-linecap:round;stroke-width:2;"/>
    <path d="M 68.35052 266.098453 
L 69.185194 264.148242 
L 71.135404 264.982916 
" style="fill:none;opacity:0.5;stroke:#800080;stroke-linecap:round;stroke-width:2;"/>
    <path d="M 75.337786 275.473961 
L 74.503112 277.424171 
L 72.552902 276.589498 
" style="fill:none;opacity:0.5;stroke:#800080;stroke-linecap:round;stroke-width:2;"/>
   </g>
   <g id="patch_90">
    <path d="M 421.733179 271.716363 
Q 421.733179 287.290162 421.733179 302.863961 
" style="fill:none;opacity:0.5;stroke:#008000;stroke-linecap:round;stroke-width:2;"/>
   </g>
   <g id="patch_91">
    <path d="M 424.764729 264.148242 
Q 422.10577 270.786207 419.446811 277.424171 
" style="fill:none;opacity:0.5;stroke:#800080;stroke-linecap:round;stroke-width:2;"/>
    <path d="M 422.814519 264.982916 
L 424.764729 264.148242 
L 425.599402 266.098453 
" style="fill:none;opacity:0.5;stroke:#800080;stroke-linecap:round;stroke-width:2;"/>
    <path d="M 421.397021 276.589498 
L 419.446811 277.424171 
L 418.612137 275.473961 
" style="fill:none;opacity:0.5;stroke:#800080;stroke-linecap:round;stroke-width:2;"/>
   </g>
   <g id="line2d_1">
    <path clip-path="url(#pca16ab46d5)" d="M 73.995454 121.770276 
L 419.954469 30.129407 
L 419.954469 72.860824 
L 165.598998 136.185694 
L 165.598998 137.215367 
L 419.954469 201.055074 
L 419.954469 243.271654 
L 73.995454 152.145621 
" style="fill:none;stroke:#ff0000;stroke-linecap:square;stroke-width:0.2;"/>
   </g>
   <g id="line2d_2">
    <path clip-path="url(#pca16ab46d5)" d="M 73.995454 136.700531 
L 419.954469 41.455806 
L 419.954469 71.316314 
L 138.028999 147.512094 
L 138.028999 148.541767 
L 419.954469 225.252382 
L 419.954469 254.598054 
L 73.995454 159.868166 
" style="fill:none;stroke:#0000ff;stroke-linecap:square;stroke-width:0.2;"/>
   </g>
   <g id="line2d_3">
    <path clip-path="url(#pca16ab46d5)" d="M 425.290598 299.903652 
L 68.659325 299.903652 
L 68.659325 262.835436 
L 425.290598 262.835436 
" style="fill:none;stroke:#ff0000;stroke-linecap:square;stroke-width:0.2;"/>
   </g>
   <g id="line2d_4">
    <path clip-path="url(#pca16ab46d5)" d="M 418.17576 280.597289 
L 418.17576 305.82427 
L 75.774163 305.82427 
L 75.774163 280.597289 
" style="fill:none;stroke:#0000ff;stroke-linecap:square;stroke-width:0.2;"/>
   </g>
  </g>
 </g>
 <defs>
  <clipPath id="pca16ab46d5">
   <rect height="307.51175" width="409.903625" x="37.576375" y="13.32"/>
  </clipPath>
 </defs>
</svg>
