<?xml version="1.0" encoding="utf-8" standalone="no"?>
<!DOCTYPE svg PUBLIC "-//W3C//DTD SVG 1.1//EN"
  "http://www.w3.org/Graphics/SVG/1.1/DTD/svg11.dtd">
<!-- Created with matplotlib (http://matplotlib.org/) -->
<svg height="345.6pt" version="1.1" viewBox="0 0 460.8 345.6" width="460.8pt" xmlns="http://www.w3.org/2000/svg" xmlns:xlink="http://www.w3.org/1999/xlink">
 <defs>
  <style type="text/css">
*{stroke-linecap:butt;stroke-linejoin:round;}
  </style>
 </defs>
 <g id="figure_1">
  <g id="patch_1">
   <path d="M 0 345.6 
L 460.8 345.6 
L 460.8 0 
L 0 0 
z
" style="fill:#ffffff;"/>
  </g>
  <g id="axes_1">
   <g id="patch_2">
    <path clip-path="url(#p9859d65505)" d="M 338.240429 274.413982 
C 338.691685 274.413982 339.12452 274.212918 339.443607 273.855073 
C 339.762694 273.497228 339.94198 273.011818 339.94198 272.505749 
C 339.94198 271.99968 339.762694 271.514269 339.443607 271.156424 
C 339.12452 270.798579 338.691685 270.597516 338.240429 270.597516 
C 337.789172 270.597516 337.356337 270.798579 337.03725 271.156424 
C 336.718164 271.514269 336.538878 271.99968 336.538878 272.505749 
C 336.538878 273.011818 336.718164 273.497228 337.03725 273.855073 
C 337.356337 274.212918 337.789172 274.413982 338.240429 274.413982 
z
" style="fill:#ff0000;opacity:0.2;stroke:#ff0000;stroke-linejoin:miter;stroke-width:2;"/>
   </g>
   <g id="patch_3">
    <path clip-path="url(#p9859d65505)" d="M 338.240429 99.810661 
C 338.691685 99.810661 339.12452 99.609598 339.443607 99.251753 
C 339.762694 98.893908 339.94198 98.408498 339.94198 97.902428 
C 339.94198 97.396359 339.762694 96.910949 339.443607 96.553104 
C 339.12452 96.195259 338.691685 95.994195 338.240429 95.994195 
C 337.789172 95.994195 337.356337 96.195259 337.03725 96.553104 
C 336.718164 96.910949 336.538878 97.396359 336.538878 97.902428 
C 336.538878 98.408498 336.718164 98.893908 337.03725 99.251753 
C 337.356337 99.609598 337.789172 99.810661 338.240429 99.810661 
z
" style="fill:#ff0000;opacity:0.2;stroke:#ff0000;stroke-linejoin:miter;stroke-width:2;"/>
   </g>
   <g id="patch_4">
    <path clip-path="url(#p9859d65505)" d="M 71.947704 99.810661 
C 72.398961 99.810661 72.831796 99.609598 73.150883 99.251753 
C 73.469969 98.893908 73.649255 98.408498 73.649255 97.902428 
C 73.649255 97.396359 73.469969 96.910949 73.150883 96.553104 
C 72.831796 96.195259 72.398961 95.994195 71.947704 95.994195 
C 71.496448 95.994195 71.063613 96.195259 70.744526 96.553104 
C 70.425439 96.910949 70.246153 97.396359 70.246153 97.902428 
C 70.246153 98.408498 70.425439 98.893908 70.744526 99.251753 
C 71.063613 99.609598 71.496448 99.810661 71.947704 99.810661 
z
" style="fill:#ff0000;opacity:0.2;stroke:#ff0000;stroke-linejoin:miter;stroke-width:2;"/>
   </g>
   <g id="patch_5">
    <path clip-path="url(#p9859d65505)" d="M 71.947704 31.114273 
C 72.398961 31.114273 72.831796 30.913209 73.150883 30.555364 
C 73.469969 30.197519 73.649255 29.712109 73.649255 29.20604 
C 73.649255 28.699971 73.469969 28.21456 73.150883 27.856715 
C 72.831796 27.49887 72.398961 27.297807 71.947704 27.297807 
C 71.496448 27.297807 71.063613 27.49887 70.744526 27.856715 
C 70.425439 28.21456 70.246153 28.699971 70.246153 29.20604 
C 70.246153 29.712109 70.425439 30.197519 70.744526 30.555364 
C 71.063613 30.913209 71.496448 31.114273 71.947704 31.114273 
z
" style="fill:#ff0000;opacity:0.2;stroke:#ff0000;stroke-linejoin:miter;stroke-width:2;"/>
   </g>
   <g id="patch_6">
    <path clip-path="url(#p9859d65505)" d="M 413.108671 31.114273 
C 413.559927 31.114273 413.992762 30.913209 414.311849 30.555364 
C 414.630936 30.197519 414.810222 29.712109 414.810222 29.20604 
C 414.810222 28.699971 414.630936 28.21456 414.311849 27.856715 
C 413.992762 27.49887 413.559927 27.297807 413.108671 27.297807 
C 412.657414 27.297807 412.224579 27.49887 411.905492 27.856715 
C 411.586406 28.21456 411.40712 28.699971 411.40712 29.20604 
C 411.40712 29.712109 411.586406 30.197519 411.905492 30.555364 
C 412.224579 30.913209 412.657414 31.114273 413.108671 31.114273 
z
" style="fill:#ff0000;opacity:0.2;stroke:#ff0000;stroke-linejoin:miter;stroke-width:2;"/>
   </g>
   <g id="patch_7">
    <path clip-path="url(#p9859d65505)" d="M 413.108671 274.413982 
C 413.559927 274.413982 413.992762 274.212918 414.311849 273.855073 
C 414.630936 273.497228 414.810222 273.011818 414.810222 272.505749 
C 414.810222 271.99968 414.630936 271.514269 414.311849 271.156424 
C 413.992762 270.798579 413.559927 270.597516 413.108671 270.597516 
C 412.657414 270.597516 412.224579 270.798579 411.905492 271.156424 
C 411.586406 271.514269 411.40712 271.99968 411.40712 272.505749 
C 411.40712 273.011818 411.586406 273.497228 411.905492 273.855073 
C 412.224579 274.212918 412.657414 274.413982 413.108671 274.413982 
z
" style="fill:#ff0000;opacity:0.2;stroke:#ff0000;stroke-linejoin:miter;stroke-width:2;"/>
   </g>
   <g id="patch_8">
    <path clip-path="url(#p9859d65505)" d="M 376.950713 306.853943 
C 377.40197 306.853943 377.834805 306.65288 378.153891 306.295035 
C 378.472978 305.93719 378.652264 305.451779 378.652264 304.94571 
C 378.652264 304.439641 378.472978 303.954231 378.153891 303.596386 
C 377.834805 303.238541 377.40197 303.037477 376.950713 303.037477 
C 376.499456 303.037477 376.066621 303.238541 375.747535 303.596386 
C 375.428448 303.954231 375.249162 304.439641 375.249162 304.94571 
C 375.249162 305.451779 375.428448 305.93719 375.747535 306.295035 
C 376.066621 306.65288 376.499456 306.853943 376.950713 306.853943 
z
" style="fill:#0000ff;opacity:0.2;stroke:#0000ff;stroke-linejoin:miter;stroke-width:2;"/>
   </g>
   <g id="patch_9">
    <path clip-path="url(#p9859d65505)" d="M 376.950713 110.305943 
C 377.40197 110.305943 377.834805 110.104879 378.153891 109.747034 
C 378.472978 109.389189 378.652264 108.903779 378.652264 108.39771 
C 378.652264 107.891641 378.472978 107.40623 378.153891 107.048385 
C 377.834805 106.69054 377.40197 106.489477 376.950713 106.489477 
C 376.499456 106.489477 376.066621 106.69054 375.747535 107.048385 
C 375.428448 107.40623 375.249162 107.891641 375.249162 108.39771 
C 375.249162 108.903779 375.428448 109.389189 375.747535 109.747034 
C 376.066621 110.104879 376.499456 110.305943 376.950713 110.305943 
z
" style="fill:#0000ff;opacity:0.2;stroke:#0000ff;stroke-linejoin:miter;stroke-width:2;"/>
   </g>
   <g id="patch_10">
    <path clip-path="url(#p9859d65505)" d="M 57.909909 110.305943 
C 58.361165 110.305943 58.794001 110.104879 59.113087 109.747034 
C 59.432174 109.389189 59.61146 108.903779 59.61146 108.39771 
C 59.61146 107.891641 59.432174 107.40623 59.113087 107.048385 
C 58.794001 106.69054 58.361165 106.489477 57.909909 106.489477 
C 57.458652 106.489477 57.025817 106.69054 56.706731 107.048385 
C 56.387644 107.40623 56.208358 107.891641 56.208358 108.39771 
C 56.208358 108.903779 56.387644 109.389189 56.706731 109.747034 
C 57.025817 110.104879 57.458652 110.305943 57.909909 110.305943 
z
" style="fill:#0000ff;opacity:0.2;stroke:#0000ff;stroke-linejoin:miter;stroke-width:2;"/>
   </g>
   <g id="patch_11">
    <path clip-path="url(#p9859d65505)" d="M 57.909909 63.554234 
C 58.361165 63.554234 58.794001 63.353171 59.113087 62.995326 
C 59.432174 62.637481 59.61146 62.15207 59.61146 61.646001 
C 59.61146 61.139932 59.432174 60.654522 59.113087 60.296677 
C 58.794001 59.938832 58.361165 59.737768 57.909909 59.737768 
C 57.458652 59.737768 57.025817 59.938832 56.706731 60.296677 
C 56.387644 60.654522 56.208358 61.139932 56.208358 61.646001 
C 56.208358 62.15207 56.387644 62.637481 56.706731 62.995326 
C 57.025817 63.353171 57.458652 63.554234 57.909909 63.554234 
z
" style="fill:#0000ff;opacity:0.2;stroke:#0000ff;stroke-linejoin:miter;stroke-width:2;"/>
   </g>
   <g id="patch_12">
    <path clip-path="url(#p9859d65505)" d="M 427.146466 63.554234 
C 427.597723 63.554234 428.030558 63.353171 428.349644 62.995326 
C 428.668731 62.637481 428.848017 62.15207 428.848017 61.646001 
C 428.848017 61.139932 428.668731 60.654522 428.349644 60.296677 
C 428.030558 59.938832 427.597723 59.737768 427.146466 59.737768 
C 426.69521 59.737768 426.262374 59.938832 425.943288 60.296677 
C 425.624201 60.654522 425.444915 61.139932 425.444915 61.646001 
C 425.444915 62.15207 425.624201 62.637481 425.943288 62.995326 
C 426.262374 63.353171 426.69521 63.554234 427.146466 63.554234 
z
" style="fill:#0000ff;opacity:0.2;stroke:#0000ff;stroke-linejoin:miter;stroke-width:2;"/>
   </g>
   <g id="patch_13">
    <path clip-path="url(#p9859d65505)" d="M 427.146466 306.853943 
C 427.597723 306.853943 428.030558 306.65288 428.349644 306.295035 
C 428.668731 305.93719 428.848017 305.451779 428.848017 304.94571 
C 428.848017 304.439641 428.668731 303.954231 428.349644 303.596386 
C 428.030558 303.238541 427.597723 303.037477 427.146466 303.037477 
C 426.69521 303.037477 426.262374 303.238541 425.943288 303.596386 
C 425.624201 303.954231 425.444915 304.439641 425.444915 304.94571 
C 425.444915 305.451779 425.624201 305.93719 425.943288 306.295035 
C 426.262374 306.65288 426.69521 306.853943 427.146466 306.853943 
z
" style="fill:#0000ff;opacity:0.2;stroke:#0000ff;stroke-linejoin:miter;stroke-width:2;"/>
   </g>
   <g id="patch_14">
    <path clip-path="url(#p9859d65505)" d="M 338.240429 272.505749 
L 338.240429 97.902428 
L 71.947704 97.902428 
L 71.947704 29.20604 
L 413.108671 29.20604 
L 413.108671 272.505749 
L 338.240429 272.505749 
" style="fill:none;stroke:#ff0000;stroke-linejoin:miter;stroke-width:0.5;"/>
   </g>
   <g id="patch_15">
    <path clip-path="url(#p9859d65505)" d="M 376.950713 304.94571 
L 376.950713 108.39771 
L 57.909909 108.39771 
L 57.909909 61.646001 
L 427.146466 61.646001 
L 427.146466 304.94571 
L 376.950713 304.94571 
" style="fill:none;stroke:#0000ff;stroke-linejoin:miter;stroke-width:0.5;"/>
   </g>
   <g id="[&quot;g_s&quot;:1,&quot;g_t&quot;:1,&quot;coords&quot;:[[423.0, -633.0],[468.5, -667.0]],&quot;certainty&quot;:11]">
    <path clip-path="url(#p9859d65505)" d="M 338.240429 278.230448 
C 339.594198 278.230448 340.892704 277.627258 341.849963 276.553722 
C 342.807223 275.480187 343.345082 274.023957 343.345082 272.505749 
C 343.345082 270.987541 342.807223 269.531311 341.849963 268.457775 
C 340.892704 267.38424 339.594198 266.78105 338.240429 266.78105 
C 336.886659 266.78105 335.588154 267.38424 334.630894 268.457775 
C 333.673634 269.531311 333.135776 270.987541 333.135776 272.505749 
C 333.135776 274.023957 333.673634 275.480187 334.630894 276.553722 
C 335.588154 277.627258 336.886659 278.230448 338.240429 278.230448 
z
" style="fill:#0000ff;opacity:0.2;stroke:#0000ff;stroke-linejoin:miter;stroke-width:2;"/>
   </g>
   <g id="[&quot;g_s&quot;:1,&quot;g_t&quot;:1,&quot;coords&quot;:[[468.5, -667.0],[423.0, -633.0]],&quot;certainty&quot;:11]">
    <path clip-path="url(#p9859d65505)" d="M 376.950713 310.670409 
C 378.304483 310.670409 379.602988 310.067219 380.560248 308.993684 
C 381.517507 307.920149 382.055366 306.463918 382.055366 304.94571 
C 382.055366 303.427502 381.517507 301.971272 380.560248 300.897737 
C 379.602988 299.824202 378.304483 299.221011 376.950713 299.221011 
C 375.596943 299.221011 374.298438 299.824202 373.341178 300.897737 
C 372.383918 301.971272 371.84606 303.427502 371.84606 304.94571 
C 371.84606 306.463918 372.383918 307.920149 373.341178 308.993684 
C 374.298438 310.067219 375.596943 310.670409 376.950713 310.670409 
z
" style="fill:#ff0000;opacity:0.2;stroke:#ff0000;stroke-linejoin:miter;stroke-width:2;"/>
   </g>
   <g id="patch_16">
    <path d="M 338.240429 272.505749 
Q 356.828878 288.083227 373.791438 302.298177 
" style="fill:none;opacity:0.5;stroke:#0000ff;stroke-linecap:round;stroke-width:3;"/>
    <path d="M 373.605212 300.185047 
L 373.791438 302.298177 
L 371.678308 302.484403 
" style="fill:none;opacity:0.5;stroke:#0000ff;stroke-linecap:round;stroke-width:3;"/>
   </g>
   <g id="[&quot;g_s&quot;:2,&quot;g_t&quot;:2,&quot;coords&quot;:[[423.0, -450.0],[468.5, -461.0]],&quot;certainty&quot;:11]">
    <path clip-path="url(#p9859d65505)" d="M 338.240429 103.627127 
C 339.594198 103.627127 340.892704 103.023937 341.849963 101.950402 
C 342.807223 100.876867 343.345082 99.420636 343.345082 97.902428 
C 343.345082 96.38422 342.807223 94.92799 341.849963 93.854455 
C 340.892704 92.78092 339.594198 92.177729 338.240429 92.177729 
C 336.886659 92.177729 335.588154 92.78092 334.630894 93.854455 
C 333.673634 94.92799 333.135776 96.38422 333.135776 97.902428 
C 333.135776 99.420636 333.673634 100.876867 334.630894 101.950402 
C 335.588154 103.023937 336.886659 103.627127 338.240429 103.627127 
z
" style="fill:#0000ff;opacity:0.2;stroke:#0000ff;stroke-linejoin:miter;stroke-width:2;"/>
   </g>
   <g id="[&quot;g_s&quot;:2,&quot;g_t&quot;:2,&quot;coords&quot;:[[468.5, -461.0],[423.0, -450.0]],&quot;certainty&quot;:11]">
    <path clip-path="url(#p9859d65505)" d="M 376.950713 114.122409 
C 378.304483 114.122409 379.602988 113.519218 380.560248 112.445683 
C 381.517507 111.372148 382.055366 109.915918 382.055366 108.39771 
C 382.055366 106.879502 381.517507 105.423271 380.560248 104.349736 
C 379.602988 103.276201 378.304483 102.673011 376.950713 102.673011 
C 375.596943 102.673011 374.298438 103.276201 373.341178 104.349736 
C 372.383918 105.423271 371.84606 106.879502 371.84606 108.39771 
C 371.84606 109.915918 372.383918 111.372148 373.341178 112.445683 
C 374.298438 113.519218 375.596943 114.122409 376.950713 114.122409 
z
" style="fill:#ff0000;opacity:0.2;stroke:#ff0000;stroke-linejoin:miter;stroke-width:2;"/>
   </g>
   <g id="patch_17">
    <path d="M 338.240429 97.902428 
Q 356.629231 102.888071 372.97063 107.318614 
" style="fill:none;opacity:0.5;stroke:#0000ff;stroke-linecap:round;stroke-width:3;"/>
    <path d="M 371.915411 105.478366 
L 372.97063 107.318614 
L 371.130381 108.373833 
" style="fill:none;opacity:0.5;stroke:#0000ff;stroke-linecap:round;stroke-width:3;"/>
   </g>
   <g id="[&quot;g_s&quot;:3,&quot;g_t&quot;:3,&quot;coords&quot;:[[110.0, -450.0],[93.5, -461.0]],&quot;certainty&quot;:11]">
    <path clip-path="url(#p9859d65505)" d="M 71.947704 103.627127 
C 73.301474 103.627127 74.599979 103.023937 75.557239 101.950402 
C 76.514499 100.876867 77.052357 99.420636 77.052357 97.902428 
C 77.052357 96.38422 76.514499 94.92799 75.557239 93.854455 
C 74.599979 92.78092 73.301474 92.177729 71.947704 92.177729 
C 70.593935 92.177729 69.295429 92.78092 68.33817 93.854455 
C 67.38091 94.92799 66.843051 96.38422 66.843051 97.902428 
C 66.843051 99.420636 67.38091 100.876867 68.33817 101.950402 
C 69.295429 103.023937 70.593935 103.627127 71.947704 103.627127 
z
" style="fill:#0000ff;opacity:0.2;stroke:#0000ff;stroke-linejoin:miter;stroke-width:2;"/>
   </g>
   <g id="[&quot;g_s&quot;:3,&quot;g_t&quot;:3,&quot;coords&quot;:[[93.5, -461.0],[110.0, -450.0]],&quot;certainty&quot;:11]">
    <path clip-path="url(#p9859d65505)" d="M 57.909909 114.122409 
C 59.263679 114.122409 60.562184 113.519218 61.519444 112.445683 
C 62.476703 111.372148 63.014562 109.915918 63.014562 108.39771 
C 63.014562 106.879502 62.476703 105.423271 61.519444 104.349736 
C 60.562184 103.276201 59.263679 102.673011 57.909909 102.673011 
C 56.556139 102.673011 55.257634 103.276201 54.300374 104.349736 
C 53.343114 105.423271 52.805256 106.879502 52.805256 108.39771 
C 52.805256 109.915918 53.343114 111.372148 54.300374 112.445683 
C 55.257634 113.519218 56.556139 114.122409 57.909909 114.122409 
z
" style="fill:#ff0000;opacity:0.2;stroke:#ff0000;stroke-linejoin:miter;stroke-width:2;"/>
   </g>
   <g id="patch_18">
    <path d="M 71.947704 97.902428 
Q 65.729057 102.551766 61.209385 105.930875 
" style="fill:none;opacity:0.5;stroke:#0000ff;stroke-linecap:round;stroke-width:3;"/>
    <path d="M 63.30893 106.234044 
L 61.209385 105.930875 
L 61.512554 103.83133 
" style="fill:none;opacity:0.5;stroke:#0000ff;stroke-linecap:round;stroke-width:3;"/>
   </g>
   <g id="[&quot;g_s&quot;:4,&quot;g_t&quot;:4,&quot;coords&quot;:[[110.0, -378.0],[93.5, -412.0]],&quot;certainty&quot;:10]">
    <path clip-path="url(#p9859d65505)" d="M 71.947704 34.453681 
C 73.18866 34.453681 74.378956 33.900756 75.256444 32.916682 
C 76.133933 31.932608 76.626969 30.59773 76.626969 29.20604 
C 76.626969 27.814349 76.133933 26.479471 75.256444 25.495397 
C 74.378956 24.511324 73.18866 23.958399 71.947704 23.958399 
C 70.706749 23.958399 69.516452 24.511324 68.638964 25.495397 
C 67.761476 26.479471 67.268439 27.814349 67.268439 29.20604 
C 67.268439 30.59773 67.761476 31.932608 68.638964 32.916682 
C 69.516452 33.900756 70.706749 34.453681 71.947704 34.453681 
z
" style="fill:#0000ff;opacity:0.2;stroke:#0000ff;stroke-linejoin:miter;stroke-width:2;"/>
   </g>
   <g id="[&quot;g_s&quot;:4,&quot;g_t&quot;:4,&quot;coords&quot;:[[93.5, -412.0],[110.0, -378.0]],&quot;certainty&quot;:10]">
    <path clip-path="url(#p9859d65505)" d="M 57.909909 66.893642 
C 59.150865 66.893642 60.341161 66.340717 61.218649 65.356643 
C 62.096137 64.37257 62.589174 63.037692 62.589174 61.646001 
C 62.589174 60.25431 62.096137 58.919433 61.218649 57.935359 
C 60.341161 56.951285 59.150865 56.39836 57.909909 56.39836 
C 56.668953 56.39836 55.478657 56.951285 54.601169 57.935359 
C 53.723681 58.919433 53.230644 60.25431 53.230644 61.646001 
C 53.230644 63.037692 53.723681 64.37257 54.601169 65.356643 
C 55.478657 66.340717 56.668953 66.893642 57.909909 66.893642 
z
" style="fill:#ff0000;opacity:0.2;stroke:#ff0000;stroke-linejoin:miter;stroke-width:2;"/>
   </g>
   <g id="patch_19">
    <path d="M 71.947704 29.20604 
Q 65.325505 44.509291 59.475566 58.027923 
" style="fill:none;opacity:0.5;stroke:#0000ff;stroke-linecap:round;stroke-width:2.75;"/>
    <path d="M 61.447915 57.247001 
L 59.475566 58.027923 
L 58.694644 56.055574 
" style="fill:none;opacity:0.5;stroke:#0000ff;stroke-linecap:round;stroke-width:2.75;"/>
   </g>
   <g id="[&quot;g_s&quot;:5,&quot;g_t&quot;:5,&quot;coords&quot;:[[511.0, -378.0],[527.5, -412.0]],&quot;certainty&quot;:11]">
    <path clip-path="url(#p9859d65505)" d="M 413.108671 34.930739 
C 414.46244 34.930739 415.760946 34.327548 416.718205 33.254013 
C 417.675465 32.180478 418.213324 30.724248 418.213324 29.20604 
C 418.213324 27.687832 417.675465 26.231601 416.718205 25.158066 
C 415.760946 24.084531 414.46244 23.481341 413.108671 23.481341 
C 411.754901 23.481341 410.456396 24.084531 409.499136 25.158066 
C 408.541876 26.231601 408.004018 27.687832 408.004018 29.20604 
C 408.004018 30.724248 408.541876 32.180478 409.499136 33.254013 
C 410.456396 34.327548 411.754901 34.930739 413.108671 34.930739 
z
" style="fill:#0000ff;opacity:0.2;stroke:#0000ff;stroke-linejoin:miter;stroke-width:2;"/>
   </g>
   <g id="[&quot;g_s&quot;:5,&quot;g_t&quot;:5,&quot;coords&quot;:[[527.5, -412.0],[511.0, -378.0]],&quot;certainty&quot;:11]">
    <path clip-path="url(#p9859d65505)" d="M 427.146466 67.3707 
C 428.500236 67.3707 429.798741 66.76751 430.756001 65.693975 
C 431.713261 64.620439 432.251119 63.164209 432.251119 61.646001 
C 432.251119 60.127793 431.713261 58.671563 430.756001 57.598028 
C 429.798741 56.524492 428.500236 55.921302 427.146466 55.921302 
C 425.792696 55.921302 424.494191 56.524492 423.536931 57.598028 
C 422.579672 58.671563 422.041813 60.127793 422.041813 61.646001 
C 422.041813 63.164209 422.579672 64.620439 423.536931 65.693975 
C 424.494191 66.76751 425.792696 67.3707 427.146466 67.3707 
z
" style="fill:#ff0000;opacity:0.2;stroke:#ff0000;stroke-linejoin:miter;stroke-width:2;"/>
   </g>
   <g id="patch_20">
    <path d="M 413.108671 29.20604 
Q 419.73087 44.509291 425.510604 57.865685 
" style="fill:none;opacity:0.5;stroke:#0000ff;stroke-linecap:round;stroke-width:3;"/>
    <path d="M 426.291526 55.893336 
L 425.510604 57.865685 
L 423.538255 57.084763 
" style="fill:none;opacity:0.5;stroke:#0000ff;stroke-linecap:round;stroke-width:3;"/>
   </g>
   <g id="[&quot;g_s&quot;:6,&quot;g_t&quot;:6,&quot;coords&quot;:[[511.0, -633.0],[527.5, -667.0]],&quot;certainty&quot;:12]">
    <path clip-path="url(#p9859d65505)" d="M 413.108671 278.707506 
C 414.575255 278.707506 415.981968 278.05405 417.019 276.891054 
C 418.056031 275.728057 418.638711 274.150474 418.638711 272.505749 
C 418.638711 270.861024 418.056031 269.283441 417.019 268.120444 
C 415.981968 266.957448 414.575255 266.303992 413.108671 266.303992 
C 411.642087 266.303992 410.235373 266.957448 409.198342 268.120444 
C 408.16131 269.283441 407.57863 270.861024 407.57863 272.505749 
C 407.57863 274.150474 408.16131 275.728057 409.198342 276.891054 
C 410.235373 278.05405 411.642087 278.707506 413.108671 278.707506 
z
" style="fill:#0000ff;opacity:0.2;stroke:#0000ff;stroke-linejoin:miter;stroke-width:2;"/>
   </g>
   <g id="[&quot;g_s&quot;:6,&quot;g_t&quot;:6,&quot;coords&quot;:[[527.5, -667.0],[511.0, -633.0]],&quot;certainty&quot;:12]">
    <path clip-path="url(#p9859d65505)" d="M 427.146466 311.147467 
C 428.61305 311.147467 430.019764 310.494011 431.056795 309.331015 
C 432.093827 308.168018 432.676507 306.590435 432.676507 304.94571 
C 432.676507 303.300985 432.093827 301.723402 431.056795 300.560406 
C 430.019764 299.397409 428.61305 298.743953 427.146466 298.743953 
C 425.679882 298.743953 424.273168 299.397409 423.236137 300.560406 
C 422.199105 301.723402 421.616425 303.300985 421.616425 304.94571 
C 421.616425 306.590435 422.199105 308.168018 423.236137 309.331015 
C 424.273168 310.494011 425.679882 311.147467 427.146466 311.147467 
z
" style="fill:#ff0000;opacity:0.2;stroke:#ff0000;stroke-linejoin:miter;stroke-width:2;"/>
   </g>
   <g id="patch_21">
    <path d="M 413.108671 272.505749 
Q 419.73087 287.809 425.440398 301.003156 
" style="fill:none;opacity:0.5;stroke:#0000ff;stroke-linecap:round;stroke-width:3.25;"/>
    <path d="M 426.22132 299.030807 
L 425.440398 301.003156 
L 423.468049 300.222234 
" style="fill:none;opacity:0.5;stroke:#0000ff;stroke-linecap:round;stroke-width:3.25;"/>
   </g>
   <g id="[&quot;g_s&quot;:1,&quot;g_t&quot;:1,&quot;coords&quot;:[[468.5, -667.0],[423.0, -633.0]],&quot;certainty&quot;:11]">
    <path clip-path="url(#p9859d65505)" d="M 376.950713 310.670409 
C 378.304483 310.670409 379.602988 310.067219 380.560248 308.993684 
C 381.517507 307.920149 382.055366 306.463918 382.055366 304.94571 
C 382.055366 303.427502 381.517507 301.971272 380.560248 300.897737 
C 379.602988 299.824202 378.304483 299.221011 376.950713 299.221011 
C 375.596943 299.221011 374.298438 299.824202 373.341178 300.897737 
C 372.383918 301.971272 371.84606 303.427502 371.84606 304.94571 
C 371.84606 306.463918 372.383918 307.920149 373.341178 308.993684 
C 374.298438 310.067219 375.596943 310.670409 376.950713 310.670409 
z
" style="fill:#0000ff;opacity:0.2;stroke:#0000ff;stroke-linejoin:miter;stroke-width:2;"/>
   </g>
   <g id="[&quot;g_s&quot;:1,&quot;g_t&quot;:1,&quot;coords&quot;:[[423.0, -633.0],[468.5, -667.0]],&quot;certainty&quot;:11]">
    <path clip-path="url(#p9859d65505)" d="M 338.240429 278.230448 
C 339.594198 278.230448 340.892704 277.627258 341.849963 276.553722 
C 342.807223 275.480187 343.345082 274.023957 343.345082 272.505749 
C 343.345082 270.987541 342.807223 269.531311 341.849963 268.457775 
C 340.892704 267.38424 339.594198 266.78105 338.240429 266.78105 
C 336.886659 266.78105 335.588154 267.38424 334.630894 268.457775 
C 333.673634 269.531311 333.135776 270.987541 333.135776 272.505749 
C 333.135776 274.023957 333.673634 275.480187 334.630894 276.553722 
C 335.588154 277.627258 336.886659 278.230448 338.240429 278.230448 
z
" style="fill:#ff0000;opacity:0.2;stroke:#ff0000;stroke-linejoin:miter;stroke-width:2;"/>
   </g>
   <g id="patch_22">
    <path d="M 376.950713 304.94571 
Q 358.362263 289.368232 341.399704 275.153282 
" style="fill:none;opacity:0.5;stroke:#ff0000;stroke-linecap:round;stroke-width:3;"/>
    <path d="M 341.585929 277.266412 
L 341.399704 275.153282 
L 343.512834 274.967056 
" style="fill:none;opacity:0.5;stroke:#ff0000;stroke-linecap:round;stroke-width:3;"/>
   </g>
   <g id="[&quot;g_s&quot;:2,&quot;g_t&quot;:2,&quot;coords&quot;:[[468.5, -461.0],[423.0, -450.0]],&quot;certainty&quot;:11]">
    <path clip-path="url(#p9859d65505)" d="M 376.950713 114.122409 
C 378.304483 114.122409 379.602988 113.519218 380.560248 112.445683 
C 381.517507 111.372148 382.055366 109.915918 382.055366 108.39771 
C 382.055366 106.879502 381.517507 105.423271 380.560248 104.349736 
C 379.602988 103.276201 378.304483 102.673011 376.950713 102.673011 
C 375.596943 102.673011 374.298438 103.276201 373.341178 104.349736 
C 372.383918 105.423271 371.84606 106.879502 371.84606 108.39771 
C 371.84606 109.915918 372.383918 111.372148 373.341178 112.445683 
C 374.298438 113.519218 375.596943 114.122409 376.950713 114.122409 
z
" style="fill:#0000ff;opacity:0.2;stroke:#0000ff;stroke-linejoin:miter;stroke-width:2;"/>
   </g>
   <g id="[&quot;g_s&quot;:2,&quot;g_t&quot;:2,&quot;coords&quot;:[[423.0, -450.0],[468.5, -461.0]],&quot;certainty&quot;:11]">
    <path clip-path="url(#p9859d65505)" d="M 338.240429 103.627127 
C 339.594198 103.627127 340.892704 103.023937 341.849963 101.950402 
C 342.807223 100.876867 343.345082 99.420636 343.345082 97.902428 
C 343.345082 96.38422 342.807223 94.92799 341.849963 93.854455 
C 340.892704 92.78092 339.594198 92.177729 338.240429 92.177729 
C 336.886659 92.177729 335.588154 92.78092 334.630894 93.854455 
C 333.673634 94.92799 333.135776 96.38422 333.135776 97.902428 
C 333.135776 99.420636 333.673634 100.876867 334.630894 101.950402 
C 335.588154 103.023937 336.886659 103.627127 338.240429 103.627127 
z
" style="fill:#ff0000;opacity:0.2;stroke:#ff0000;stroke-linejoin:miter;stroke-width:2;"/>
   </g>
   <g id="patch_23">
    <path d="M 376.950713 108.39771 
Q 358.56191 103.412067 342.220512 98.981524 
" style="fill:none;opacity:0.5;stroke:#ff0000;stroke-linecap:round;stroke-width:3;"/>
    <path d="M 343.27573 100.821772 
L 342.220512 98.981524 
L 344.06076 97.926305 
" style="fill:none;opacity:0.5;stroke:#ff0000;stroke-linecap:round;stroke-width:3;"/>
   </g>
   <g id="[&quot;g_s&quot;:3,&quot;g_t&quot;:3,&quot;coords&quot;:[[93.5, -461.0],[110.0, -450.0]],&quot;certainty&quot;:11]">
    <path clip-path="url(#p9859d65505)" d="M 57.909909 114.122409 
C 59.263679 114.122409 60.562184 113.519218 61.519444 112.445683 
C 62.476703 111.372148 63.014562 109.915918 63.014562 108.39771 
C 63.014562 106.879502 62.476703 105.423271 61.519444 104.349736 
C 60.562184 103.276201 59.263679 102.673011 57.909909 102.673011 
C 56.556139 102.673011 55.257634 103.276201 54.300374 104.349736 
C 53.343114 105.423271 52.805256 106.879502 52.805256 108.39771 
C 52.805256 109.915918 53.343114 111.372148 54.300374 112.445683 
C 55.257634 113.519218 56.556139 114.122409 57.909909 114.122409 
z
" style="fill:#0000ff;opacity:0.2;stroke:#0000ff;stroke-linejoin:miter;stroke-width:2;"/>
   </g>
   <g id="[&quot;g_s&quot;:3,&quot;g_t&quot;:3,&quot;coords&quot;:[[110.0, -450.0],[93.5, -461.0]],&quot;certainty&quot;:11]">
    <path clip-path="url(#p9859d65505)" d="M 71.947704 103.627127 
C 73.301474 103.627127 74.599979 103.023937 75.557239 101.950402 
C 76.514499 100.876867 77.052357 99.420636 77.052357 97.902428 
C 77.052357 96.38422 76.514499 94.92799 75.557239 93.854455 
C 74.599979 92.78092 73.301474 92.177729 71.947704 92.177729 
C 70.593935 92.177729 69.295429 92.78092 68.33817 93.854455 
C 67.38091 94.92799 66.843051 96.38422 66.843051 97.902428 
C 66.843051 99.420636 67.38091 100.876867 68.33817 101.950402 
C 69.295429 103.023937 70.593935 103.627127 71.947704 103.627127 
z
" style="fill:#ff0000;opacity:0.2;stroke:#ff0000;stroke-linejoin:miter;stroke-width:2;"/>
   </g>
   <g id="patch_24">
    <path d="M 57.909909 108.39771 
Q 64.128556 103.748372 68.648228 100.369263 
" style="fill:none;opacity:0.5;stroke:#ff0000;stroke-linecap:round;stroke-width:3;"/>
    <path d="M 66.548684 100.066095 
L 68.648228 100.369263 
L 68.34506 102.468808 
" style="fill:none;opacity:0.5;stroke:#ff0000;stroke-linecap:round;stroke-width:3;"/>
   </g>
   <g id="[&quot;g_s&quot;:4,&quot;g_t&quot;:4,&quot;coords&quot;:[[93.5, -412.0],[110.0, -378.0]],&quot;certainty&quot;:10]">
    <path clip-path="url(#p9859d65505)" d="M 57.909909 66.893642 
C 59.150865 66.893642 60.341161 66.340717 61.218649 65.356643 
C 62.096137 64.37257 62.589174 63.037692 62.589174 61.646001 
C 62.589174 60.25431 62.096137 58.919433 61.218649 57.935359 
C 60.341161 56.951285 59.150865 56.39836 57.909909 56.39836 
C 56.668953 56.39836 55.478657 56.951285 54.601169 57.935359 
C 53.723681 58.919433 53.230644 60.25431 53.230644 61.646001 
C 53.230644 63.037692 53.723681 64.37257 54.601169 65.356643 
C 55.478657 66.340717 56.668953 66.893642 57.909909 66.893642 
z
" style="fill:#0000ff;opacity:0.2;stroke:#0000ff;stroke-linejoin:miter;stroke-width:2;"/>
   </g>
   <g id="[&quot;g_s&quot;:4,&quot;g_t&quot;:4,&quot;coords&quot;:[[110.0, -378.0],[93.5, -412.0]],&quot;certainty&quot;:10]">
    <path clip-path="url(#p9859d65505)" d="M 71.947704 34.453681 
C 73.18866 34.453681 74.378956 33.900756 75.256444 32.916682 
C 76.133933 31.932608 76.626969 30.59773 76.626969 29.20604 
C 76.626969 27.814349 76.133933 26.479471 75.256444 25.495397 
C 74.378956 24.511324 73.18866 23.958399 71.947704 23.958399 
C 70.706749 23.958399 69.516452 24.511324 68.638964 25.495397 
C 67.761476 26.479471 67.268439 27.814349 67.268439 29.20604 
C 67.268439 30.59773 67.761476 31.932608 68.638964 32.916682 
C 69.516452 33.900756 70.706749 34.453681 71.947704 34.453681 
z
" style="fill:#ff0000;opacity:0.2;stroke:#ff0000;stroke-linejoin:miter;stroke-width:2;"/>
   </g>
   <g id="patch_25">
    <path d="M 57.909909 61.646001 
Q 64.532109 46.34275 70.382048 32.824118 
" style="fill:none;opacity:0.5;stroke:#ff0000;stroke-linecap:round;stroke-width:2.75;"/>
    <path d="M 68.409698 33.60504 
L 70.382048 32.824118 
L 71.162969 34.796467 
" style="fill:none;opacity:0.5;stroke:#ff0000;stroke-linecap:round;stroke-width:2.75;"/>
   </g>
   <g id="[&quot;g_s&quot;:5,&quot;g_t&quot;:5,&quot;coords&quot;:[[527.5, -412.0],[511.0, -378.0]],&quot;certainty&quot;:11]">
    <path clip-path="url(#p9859d65505)" d="M 427.146466 67.3707 
C 428.500236 67.3707 429.798741 66.76751 430.756001 65.693975 
C 431.713261 64.620439 432.251119 63.164209 432.251119 61.646001 
C 432.251119 60.127793 431.713261 58.671563 430.756001 57.598028 
C 429.798741 56.524492 428.500236 55.921302 427.146466 55.921302 
C 425.792696 55.921302 424.494191 56.524492 423.536931 57.598028 
C 422.579672 58.671563 422.041813 60.127793 422.041813 61.646001 
C 422.041813 63.164209 422.579672 64.620439 423.536931 65.693975 
C 424.494191 66.76751 425.792696 67.3707 427.146466 67.3707 
z
" style="fill:#0000ff;opacity:0.2;stroke:#0000ff;stroke-linejoin:miter;stroke-width:2;"/>
   </g>
   <g id="[&quot;g_s&quot;:5,&quot;g_t&quot;:5,&quot;coords&quot;:[[511.0, -378.0],[527.5, -412.0]],&quot;certainty&quot;:11]">
    <path clip-path="url(#p9859d65505)" d="M 413.108671 34.930739 
C 414.46244 34.930739 415.760946 34.327548 416.718205 33.254013 
C 417.675465 32.180478 418.213324 30.724248 418.213324 29.20604 
C 418.213324 27.687832 417.675465 26.231601 416.718205 25.158066 
C 415.760946 24.084531 414.46244 23.481341 413.108671 23.481341 
C 411.754901 23.481341 410.456396 24.084531 409.499136 25.158066 
C 408.541876 26.231601 408.004018 27.687832 408.004018 29.20604 
C 408.004018 30.724248 408.541876 32.180478 409.499136 33.254013 
C 410.456396 34.327548 411.754901 34.930739 413.108671 34.930739 
z
" style="fill:#ff0000;opacity:0.2;stroke:#ff0000;stroke-linejoin:miter;stroke-width:2;"/>
   </g>
   <g id="patch_26">
    <path d="M 427.146466 61.646001 
Q 420.524266 46.34275 414.744533 32.986356 
" style="fill:none;opacity:0.5;stroke:#ff0000;stroke-linecap:round;stroke-width:3;"/>
    <path d="M 413.963611 34.958705 
L 414.744533 32.986356 
L 416.716882 33.767278 
" style="fill:none;opacity:0.5;stroke:#ff0000;stroke-linecap:round;stroke-width:3;"/>
   </g>
   <g id="[&quot;g_s&quot;:6,&quot;g_t&quot;:6,&quot;coords&quot;:[[527.5, -667.0],[511.0, -633.0]],&quot;certainty&quot;:12]">
    <path clip-path="url(#p9859d65505)" d="M 427.146466 311.147467 
C 428.61305 311.147467 430.019764 310.494011 431.056795 309.331015 
C 432.093827 308.168018 432.676507 306.590435 432.676507 304.94571 
C 432.676507 303.300985 432.093827 301.723402 431.056795 300.560406 
C 430.019764 299.397409 428.61305 298.743953 427.146466 298.743953 
C 425.679882 298.743953 424.273168 299.397409 423.236137 300.560406 
C 422.199105 301.723402 421.616425 303.300985 421.616425 304.94571 
C 421.616425 306.590435 422.199105 308.168018 423.236137 309.331015 
C 424.273168 310.494011 425.679882 311.147467 427.146466 311.147467 
z
" style="fill:#0000ff;opacity:0.2;stroke:#0000ff;stroke-linejoin:miter;stroke-width:2;"/>
   </g>
   <g id="[&quot;g_s&quot;:6,&quot;g_t&quot;:6,&quot;coords&quot;:[[511.0, -633.0],[527.5, -667.0]],&quot;certainty&quot;:12]">
    <path clip-path="url(#p9859d65505)" d="M 413.108671 278.707506 
C 414.575255 278.707506 415.981968 278.05405 417.019 276.891054 
C 418.056031 275.728057 418.638711 274.150474 418.638711 272.505749 
C 418.638711 270.861024 418.056031 269.283441 417.019 268.120444 
C 415.981968 266.957448 414.575255 266.303992 413.108671 266.303992 
C 411.642087 266.303992 410.235373 266.957448 409.198342 268.120444 
C 408.16131 269.283441 407.57863 270.861024 407.57863 272.505749 
C 407.57863 274.150474 408.16131 275.728057 409.198342 276.891054 
C 410.235373 278.05405 411.642087 278.707506 413.108671 278.707506 
z
" style="fill:#ff0000;opacity:0.2;stroke:#ff0000;stroke-linejoin:miter;stroke-width:2;"/>
   </g>
   <g id="patch_27">
    <path d="M 427.146466 304.94571 
Q 420.524266 289.642459 414.814738 276.448303 
" style="fill:none;opacity:0.5;stroke:#ff0000;stroke-linecap:round;stroke-width:3.25;"/>
    <path d="M 414.033817 278.420652 
L 414.814738 276.448303 
L 416.787088 277.229225 
" style="fill:none;opacity:0.5;stroke:#ff0000;stroke-linecap:round;stroke-width:3.25;"/>
   </g>
   <g id="patch_28">
    <path clip-path="url(#p9859d65505)" d="M 357.595571 293.496312 
C 358.723712 293.496312 359.8058 292.993653 360.603516 292.099041 
C 361.401233 291.204428 361.849448 289.990903 361.849448 288.72573 
C 361.849448 287.460556 361.401233 286.247031 360.603516 285.352418 
C 359.8058 284.457806 358.723712 283.955147 357.595571 283.955147 
C 356.467429 283.955147 355.385342 284.457806 354.587625 285.352418 
C 353.789909 286.247031 353.341693 287.460556 353.341693 288.72573 
C 353.341693 289.990903 353.789909 291.204428 354.587625 292.099041 
C 355.385342 292.993653 356.467429 293.496312 357.595571 293.496312 
z
" style="fill:#008000;opacity:0.2;stroke:#008000;stroke-linejoin:miter;stroke-width:2;"/>
   </g>
   <g id="patch_29">
    <path clip-path="url(#p9859d65505)" d="M 357.595571 107.920652 
C 358.723712 107.920652 359.8058 107.417993 360.603516 106.52338 
C 361.401233 105.628768 361.849448 104.415242 361.849448 103.150069 
C 361.849448 101.884896 361.401233 100.67137 360.603516 99.776758 
C 359.8058 98.882145 358.723712 98.379487 357.595571 98.379487 
C 356.467429 98.379487 355.385342 98.882145 354.587625 99.776758 
C 353.789909 100.67137 353.341693 101.884896 353.341693 103.150069 
C 353.341693 104.415242 353.789909 105.628768 354.587625 106.52338 
C 355.385342 107.417993 356.467429 107.920652 357.595571 107.920652 
z
" style="fill:#008000;opacity:0.2;stroke:#008000;stroke-linejoin:miter;stroke-width:2;"/>
   </g>
   <g id="patch_30">
    <path clip-path="url(#p9859d65505)" d="M 64.928807 107.920652 
C 66.056948 107.920652 67.139036 107.417993 67.936752 106.52338 
C 68.734469 105.628768 69.182684 104.415242 69.182684 103.150069 
C 69.182684 101.884896 68.734469 100.67137 67.936752 99.776758 
C 67.139036 98.882145 66.056948 98.379487 64.928807 98.379487 
C 63.800665 98.379487 62.718578 98.882145 61.920861 99.776758 
C 61.123145 100.67137 60.674929 101.884896 60.674929 103.150069 
C 60.674929 104.415242 61.123145 105.628768 61.920861 106.52338 
C 62.718578 107.417993 63.800665 107.920652 64.928807 107.920652 
z
" style="fill:#008000;opacity:0.2;stroke:#008000;stroke-linejoin:miter;stroke-width:2;"/>
   </g>
   <g id="patch_31">
    <path clip-path="url(#p9859d65505)" d="M 64.928807 50.196603 
C 66.056948 50.196603 67.139036 49.693944 67.936752 48.799332 
C 68.734469 47.904719 69.182684 46.691194 69.182684 45.42602 
C 69.182684 44.160847 68.734469 42.947322 67.936752 42.052709 
C 67.139036 41.158097 66.056948 40.655438 64.928807 40.655438 
C 63.800665 40.655438 62.718578 41.158097 61.920861 42.052709 
C 61.123145 42.947322 60.674929 44.160847 60.674929 45.42602 
C 60.674929 46.691194 61.123145 47.904719 61.920861 48.799332 
C 62.718578 49.693944 63.800665 50.196603 64.928807 50.196603 
z
" style="fill:#008000;opacity:0.2;stroke:#008000;stroke-linejoin:miter;stroke-width:2;"/>
   </g>
   <g id="patch_32">
    <path clip-path="url(#p9859d65505)" d="M 420.127568 50.196603 
C 421.25571 50.196603 422.337797 49.693944 423.135514 48.799332 
C 423.93323 47.904719 424.381446 46.691194 424.381446 45.42602 
C 424.381446 44.160847 423.93323 42.947322 423.135514 42.052709 
C 422.337797 41.158097 421.25571 40.655438 420.127568 40.655438 
C 418.999427 40.655438 417.917339 41.158097 417.119623 42.052709 
C 416.321906 42.947322 415.873691 44.160847 415.873691 45.42602 
C 415.873691 46.691194 416.321906 47.904719 417.119623 48.799332 
C 417.917339 49.693944 418.999427 50.196603 420.127568 50.196603 
z
" style="fill:#008000;opacity:0.2;stroke:#008000;stroke-linejoin:miter;stroke-width:2;"/>
   </g>
   <g id="patch_33">
    <path clip-path="url(#p9859d65505)" d="M 420.127568 293.496312 
C 421.25571 293.496312 422.337797 292.993653 423.135514 292.099041 
C 423.93323 291.204428 424.381446 289.990903 424.381446 288.72573 
C 424.381446 287.460556 423.93323 286.247031 423.135514 285.352418 
C 422.337797 284.457806 421.25571 283.955147 420.127568 283.955147 
C 418.999427 283.955147 417.917339 284.457806 417.119623 285.352418 
C 416.321906 286.247031 415.873691 287.460556 415.873691 288.72573 
C 415.873691 289.990903 416.321906 291.204428 417.119623 292.099041 
C 417.917339 292.993653 418.999427 293.496312 420.127568 293.496312 
z
" style="fill:#008000;opacity:0.2;stroke:#008000;stroke-linejoin:miter;stroke-width:2;"/>
   </g>
   <g id="patch_34">
    <path clip-path="url(#p9859d65505)" d="M 338.240429 291.588079 
C 342.752995 291.588079 347.081345 289.577444 350.272211 285.998994 
C 353.463077 282.420544 355.255938 277.566442 355.255938 272.505749 
C 355.255938 267.445056 353.463077 262.590954 350.272211 259.012504 
C 347.081345 255.434054 342.752995 253.423419 338.240429 253.423419 
C 333.727863 253.423419 329.399512 255.434054 326.208647 259.012504 
C 323.017781 262.590954 321.224919 267.445056 321.224919 272.505749 
C 321.224919 277.566442 323.017781 282.420544 326.208647 285.998994 
C 329.399512 289.577444 333.727863 291.588079 338.240429 291.588079 
z
" style="fill:none;opacity:0.2;stroke:#ff0000;stroke-linejoin:miter;stroke-width:2;"/>
   </g>
   <g id="patch_35">
    <path clip-path="url(#p9859d65505)" d="M 376.950713 324.02804 
C 381.463279 324.02804 385.791629 322.017406 388.982495 318.438955 
C 392.173361 314.860505 393.966222 310.006403 393.966222 304.94571 
C 393.966222 299.885017 392.173361 295.030916 388.982495 291.452465 
C 385.791629 287.874015 381.463279 285.86338 376.950713 285.86338 
C 372.438147 285.86338 368.109797 287.874015 364.918931 291.452465 
C 361.728065 295.030916 359.935203 299.885017 359.935203 304.94571 
C 359.935203 310.006403 361.728065 314.860505 364.918931 318.438955 
C 368.109797 322.017406 372.438147 324.02804 376.950713 324.02804 
z
" style="fill:none;opacity:0.2;stroke:#0000ff;stroke-linejoin:miter;stroke-width:2;"/>
   </g>
   <g id="patch_36">
    <path clip-path="url(#p9859d65505)" d="M 338.240429 282.046914 
C 340.496712 282.046914 342.660887 281.041597 344.25632 279.252371 
C 345.851753 277.463146 346.748183 275.036096 346.748183 272.505749 
C 346.748183 269.975402 345.851753 267.548352 344.25632 265.759126 
C 342.660887 263.969901 340.496712 262.964584 338.240429 262.964584 
C 335.984146 262.964584 333.819971 263.969901 332.224538 265.759126 
C 330.629105 267.548352 329.732674 269.975402 329.732674 272.505749 
C 329.732674 275.036096 330.629105 277.463146 332.224538 279.252371 
C 333.819971 281.041597 335.984146 282.046914 338.240429 282.046914 
z
" style="fill:none;opacity:0.2;stroke:#008000;stroke-linejoin:miter;stroke-width:2;"/>
   </g>
   <g id="patch_37">
    <path clip-path="url(#p9859d65505)" d="M 376.950713 314.486875 
C 379.206996 314.486875 381.371171 313.481558 382.966604 311.692333 
C 384.562037 309.903107 385.458468 307.476057 385.458468 304.94571 
C 385.458468 302.415364 384.562037 299.988313 382.966604 298.199088 
C 381.371171 296.409862 379.206996 295.404545 376.950713 295.404545 
C 374.69443 295.404545 372.530255 296.409862 370.934822 298.199088 
C 369.339389 299.988313 368.442958 302.415364 368.442958 304.94571 
C 368.442958 307.476057 369.339389 309.903107 370.934822 311.692333 
C 372.530255 313.481558 374.69443 314.486875 376.950713 314.486875 
z
" style="fill:none;opacity:0.2;stroke:#008000;stroke-linejoin:miter;stroke-width:2;"/>
   </g>
   <g id="patch_38">
    <path d="M 357.595571 288.72573 
Q 357.595571 195.937899 357.595571 103.150069 
" style="fill:none;opacity:0.5;stroke:#008000;stroke-linecap:round;stroke-width:2;"/>
   </g>
   <g id="patch_39">
    <path d="M 339.324356 273.4141 
Q 356.828878 288.083227 374.333401 302.752353 
" style="fill:none;opacity:0.5;stroke:#800080;stroke-linecap:round;stroke-width:2;"/>
    <path d="M 339.510581 275.527231 
L 339.324356 273.4141 
L 341.437486 273.227875 
" style="fill:none;opacity:0.5;stroke:#800080;stroke-linecap:round;stroke-width:2;"/>
    <path d="M 374.147176 300.639222 
L 374.333401 302.752353 
L 372.220271 302.938579 
" style="fill:none;opacity:0.5;stroke:#800080;stroke-linecap:round;stroke-width:2;"/>
   </g>
   <g id="patch_40">
    <path d="M 357.595571 103.150069 
Q 211.262189 103.150069 64.928807 103.150069 
" style="fill:none;opacity:0.5;stroke:#008000;stroke-linecap:round;stroke-width:2;"/>
   </g>
   <g id="patch_41">
    <path d="M 339.605365 98.272495 
Q 356.629231 102.888071 373.653098 107.503648 
" style="fill:none;opacity:0.5;stroke:#800080;stroke-linecap:round;stroke-width:2;"/>
    <path d="M 340.660583 100.112743 
L 339.605365 98.272495 
L 341.445613 97.217277 
" style="fill:none;opacity:0.5;stroke:#800080;stroke-linecap:round;stroke-width:2;"/>
    <path d="M 372.59788 105.663399 
L 373.653098 107.503648 
L 371.812849 108.558866 
" style="fill:none;opacity:0.5;stroke:#800080;stroke-linecap:round;stroke-width:2;"/>
   </g>
   <g id="patch_42">
    <path d="M 64.928807 103.150069 
Q 64.928807 74.288045 64.928807 45.42602 
" style="fill:none;opacity:0.5;stroke:#008000;stroke-linecap:round;stroke-width:2;"/>
   </g>
   <g id="patch_43">
    <path d="M 70.815054 98.749248 
Q 65.729057 102.551766 60.64306 106.354285 
" style="fill:none;opacity:0.5;stroke:#800080;stroke-linecap:round;stroke-width:2;"/>
    <path d="M 68.715509 98.446079 
L 70.815054 98.749248 
L 70.511885 100.848793 
" style="fill:none;opacity:0.5;stroke:#800080;stroke-linecap:round;stroke-width:2;"/>
    <path d="M 62.742605 106.657453 
L 60.64306 106.354285 
L 60.946229 104.25474 
" style="fill:none;opacity:0.5;stroke:#800080;stroke-linecap:round;stroke-width:2;"/>
   </g>
   <g id="patch_44">
    <path d="M 64.928807 45.42602 
Q 242.528188 45.42602 420.127568 45.42602 
" style="fill:none;opacity:0.5;stroke:#008000;stroke-linecap:round;stroke-width:2;"/>
   </g>
   <g id="patch_45">
    <path d="M 71.38606 30.503944 
Q 65.325505 44.509291 59.264949 58.514637 
" style="fill:none;opacity:0.5;stroke:#800080;stroke-linecap:round;stroke-width:2;"/>
    <path d="M 69.413711 31.284866 
L 71.38606 30.503944 
L 72.166982 32.476293 
" style="fill:none;opacity:0.5;stroke:#800080;stroke-linecap:round;stroke-width:2;"/>
    <path d="M 61.237298 57.733715 
L 59.264949 58.514637 
L 58.484027 56.542288 
" style="fill:none;opacity:0.5;stroke:#800080;stroke-linecap:round;stroke-width:2;"/>
   </g>
   <g id="patch_46">
    <path d="M 420.127568 45.42602 
Q 420.127568 167.075875 420.127568 288.72573 
" style="fill:none;opacity:0.5;stroke:#008000;stroke-linecap:round;stroke-width:2;"/>
   </g>
   <g id="patch_47">
    <path d="M 413.670315 30.503944 
Q 419.73087 44.509291 425.791426 58.514637 
" style="fill:none;opacity:0.5;stroke:#800080;stroke-linecap:round;stroke-width:2;"/>
    <path d="M 412.889393 32.476293 
L 413.670315 30.503944 
L 415.642664 31.284866 
" style="fill:none;opacity:0.5;stroke:#800080;stroke-linecap:round;stroke-width:2;"/>
    <path d="M 426.572348 56.542288 
L 425.791426 58.514637 
L 423.819077 57.733715 
" style="fill:none;opacity:0.5;stroke:#800080;stroke-linecap:round;stroke-width:2;"/>
   </g>
   <g id="patch_48">
    <path d="M 420.127568 288.72573 
Q 388.86157 288.72573 357.595571 288.72573 
" style="fill:none;opacity:0.5;stroke:#008000;stroke-linecap:round;stroke-width:2;"/>
   </g>
   <g id="patch_49">
    <path d="M 413.670315 273.803653 
Q 419.73087 287.809 425.791426 301.814346 
" style="fill:none;opacity:0.5;stroke:#800080;stroke-linecap:round;stroke-width:2;"/>
    <path d="M 412.889393 275.776002 
L 413.670315 273.803653 
L 415.642664 274.584575 
" style="fill:none;opacity:0.5;stroke:#800080;stroke-linecap:round;stroke-width:2;"/>
    <path d="M 426.572348 299.841997 
L 425.791426 301.814346 
L 423.819077 301.033424 
" style="fill:none;opacity:0.5;stroke:#800080;stroke-linecap:round;stroke-width:2;"/>
   </g>
   <g id="line2d_1">
    <path clip-path="url(#p9859d65505)" d="M 338.240429 272.505749 
L 338.240429 97.902428 
L 71.947704 97.902428 
L 71.947704 29.20604 
L 413.108671 29.20604 
L 413.108671 272.505749 
" style="fill:none;stroke:#ff0000;stroke-linecap:square;stroke-width:0.2;"/>
   </g>
   <g id="line2d_2">
    <path clip-path="url(#p9859d65505)" d="M 376.950713 304.94571 
L 376.950713 108.39771 
L 57.909909 108.39771 
L 57.909909 61.646001 
L 427.146466 61.646001 
L 427.146466 304.94571 
" style="fill:none;stroke:#0000ff;stroke-linecap:square;stroke-width:0.2;"/>
   </g>
  </g>
 </g>
 <defs>
  <clipPath id="p9859d65505">
   <rect height="307.51175" width="409.903625" x="37.576375" y="13.32"/>
  </clipPath>
 </defs>
</svg>
