<?xml version="1.0" encoding="utf-8" standalone="no"?>
<!DOCTYPE svg PUBLIC "-//W3C//DTD SVG 1.1//EN"
  "http://www.w3.org/Graphics/SVG/1.1/DTD/svg11.dtd">
<!-- Created with matplotlib (http://matplotlib.org/) -->
<svg height="345.6pt" version="1.1" viewBox="0 0 460.8 345.6" width="460.8pt" xmlns="http://www.w3.org/2000/svg" xmlns:xlink="http://www.w3.org/1999/xlink">
 <defs>
  <style type="text/css">
*{stroke-linecap:butt;stroke-linejoin:round;}
  </style>
 </defs>
 <g id="figure_1">
  <g id="patch_1">
   <path d="M 0 345.6 
L 460.8 345.6 
L 460.8 0 
L 0 0 
z
" style="fill:#ffffff;"/>
  </g>
  <g id="axes_1">
   <g id="patch_2">
    <path clip-path="url(#p6b0f0256d8)" d="M 272.72231 300.476237 
C 273.112923 300.476237 273.487591 300.40157 273.763796 300.268683 
C 274.040002 300.135795 274.195194 299.955535 274.195194 299.767603 
C 274.195194 299.579671 274.040002 299.399411 273.763796 299.266523 
C 273.487591 299.133635 273.112923 299.058969 272.72231 299.058969 
C 272.331697 299.058969 271.957029 299.133635 271.680824 299.266523 
C 271.404618 299.399411 271.249426 299.579671 271.249426 299.767603 
C 271.249426 299.955535 271.404618 300.135795 271.680824 300.268683 
C 271.957029 300.40157 272.331697 300.476237 272.72231 300.476237 
z
" style="fill:#ff0000;opacity:0.2;stroke:#ff0000;stroke-linejoin:miter;stroke-width:2;"/>
   </g>
   <g id="patch_3">
    <path clip-path="url(#p6b0f0256d8)" d="M 212.334065 300.476237 
C 212.724678 300.476237 213.099346 300.40157 213.375551 300.268683 
C 213.651757 300.135795 213.806949 299.955535 213.806949 299.767603 
C 213.806949 299.579671 213.651757 299.399411 213.375551 299.266523 
C 213.099346 299.133635 212.724678 299.058969 212.334065 299.058969 
C 211.943452 299.058969 211.568784 299.133635 211.292579 299.266523 
C 211.016373 299.399411 210.861181 299.579671 210.861181 299.767603 
C 210.861181 299.955535 211.016373 300.135795 211.292579 300.268683 
C 211.568784 300.40157 211.943452 300.476237 212.334065 300.476237 
z
" style="fill:#ff0000;opacity:0.2;stroke:#ff0000;stroke-linejoin:miter;stroke-width:2;"/>
   </g>
   <g id="patch_4">
    <path clip-path="url(#p6b0f0256d8)" d="M 60.62701 164.06418 
C 61.017623 164.06418 61.392291 163.989514 61.668496 163.856626 
C 61.944702 163.723738 62.099894 163.543478 62.099894 163.355546 
C 62.099894 163.167614 61.944702 162.987354 61.668496 162.854466 
C 61.392291 162.721578 61.017623 162.646912 60.62701 162.646912 
C 60.236397 162.646912 59.861729 162.721578 59.585524 162.854466 
C 59.309318 162.987354 59.154126 163.167614 59.154126 163.355546 
C 59.154126 163.543478 59.309318 163.723738 59.585524 163.856626 
C 59.861729 163.989514 60.236397 164.06418 60.62701 164.06418 
z
" style="fill:#ff0000;opacity:0.2;stroke:#ff0000;stroke-linejoin:miter;stroke-width:2;"/>
   </g>
   <g id="patch_5">
    <path clip-path="url(#p6b0f0256d8)" d="M 212.334065 31.195294 
C 212.724678 31.195294 213.099346 31.120628 213.375551 30.98774 
C 213.651757 30.854852 213.806949 30.674592 213.806949 30.48666 
C 213.806949 30.298728 213.651757 30.118468 213.375551 29.98558 
C 213.099346 29.852692 212.724678 29.778026 212.334065 29.778026 
C 211.943452 29.778026 211.568784 29.852692 211.292579 29.98558 
C 211.016373 30.118468 210.861181 30.298728 210.861181 30.48666 
C 210.861181 30.674592 211.016373 30.854852 211.292579 30.98774 
C 211.568784 31.120628 211.943452 31.195294 212.334065 31.195294 
z
" style="fill:#ff0000;opacity:0.2;stroke:#ff0000;stroke-linejoin:miter;stroke-width:2;"/>
   </g>
   <g id="patch_6">
    <path clip-path="url(#p6b0f0256d8)" d="M 272.72231 31.195294 
C 273.112923 31.195294 273.487591 31.120628 273.763796 30.98774 
C 274.040002 30.854852 274.195194 30.674592 274.195194 30.48666 
C 274.195194 30.298728 274.040002 30.118468 273.763796 29.98558 
C 273.487591 29.852692 273.112923 29.778026 272.72231 29.778026 
C 272.331697 29.778026 271.957029 29.852692 271.680824 29.98558 
C 271.404618 30.118468 271.249426 30.298728 271.249426 30.48666 
C 271.249426 30.674592 271.404618 30.854852 271.680824 30.98774 
C 271.957029 31.120628 272.331697 31.195294 272.72231 31.195294 
z
" style="fill:#ff0000;opacity:0.2;stroke:#ff0000;stroke-linejoin:miter;stroke-width:2;"/>
   </g>
   <g id="patch_7">
    <path clip-path="url(#p6b0f0256d8)" d="M 424.429365 164.06418 
C 424.819978 164.06418 425.194646 163.989514 425.470851 163.856626 
C 425.747057 163.723738 425.902249 163.543478 425.902249 163.355546 
C 425.902249 163.167614 425.747057 162.987354 425.470851 162.854466 
C 425.194646 162.721578 424.819978 162.646912 424.429365 162.646912 
C 424.038752 162.646912 423.664084 162.721578 423.387879 162.854466 
C 423.111673 162.987354 422.956481 163.167614 422.956481 163.355546 
C 422.956481 163.543478 423.111673 163.723738 423.387879 163.856626 
C 423.664084 163.989514 424.038752 164.06418 424.429365 164.06418 
z
" style="fill:#ff0000;opacity:0.2;stroke:#ff0000;stroke-linejoin:miter;stroke-width:2;"/>
   </g>
   <g id="patch_8">
    <path clip-path="url(#p6b0f0256d8)" d="M 264.621448 297.818859 
C 265.012061 297.818859 265.386729 297.744193 265.662934 297.611305 
C 265.93914 297.478417 266.094332 297.298157 266.094332 297.110225 
C 266.094332 296.922293 265.93914 296.742033 265.662934 296.609145 
C 265.386729 296.476257 265.012061 296.401591 264.621448 296.401591 
C 264.230835 296.401591 263.856167 296.476257 263.579962 296.609145 
C 263.303756 296.742033 263.148564 296.922293 263.148564 297.110225 
C 263.148564 297.298157 263.303756 297.478417 263.579962 297.611305 
C 263.856167 297.744193 264.230835 297.818859 264.621448 297.818859 
z
" style="fill:#0000ff;opacity:0.2;stroke:#0000ff;stroke-linejoin:miter;stroke-width:2;"/>
   </g>
   <g id="patch_9">
    <path clip-path="url(#p6b0f0256d8)" d="M 220.434927 297.818859 
C 220.82554 297.818859 221.200208 297.744193 221.476413 297.611305 
C 221.752619 297.478417 221.907811 297.298157 221.907811 297.110225 
C 221.907811 296.922293 221.752619 296.742033 221.476413 296.609145 
C 221.200208 296.476257 220.82554 296.401591 220.434927 296.401591 
C 220.044314 296.401591 219.669646 296.476257 219.393441 296.609145 
C 219.117235 296.742033 218.962043 296.922293 218.962043 297.110225 
C 218.962043 297.298157 219.117235 297.478417 219.393441 297.611305 
C 219.669646 297.744193 220.044314 297.818859 220.434927 297.818859 
z
" style="fill:#0000ff;opacity:0.2;stroke:#0000ff;stroke-linejoin:miter;stroke-width:2;"/>
   </g>
   <g id="patch_10">
    <path clip-path="url(#p6b0f0256d8)" d="M 77.565176 162.469754 
C 77.95579 162.469754 78.330457 162.395087 78.606663 162.2622 
C 78.882868 162.129312 79.03806 161.949052 79.03806 161.76112 
C 79.03806 161.573188 78.882868 161.392928 78.606663 161.26004 
C 78.330457 161.127152 77.95579 161.052485 77.565176 161.052485 
C 77.174563 161.052485 76.799895 161.127152 76.52369 161.26004 
C 76.247485 161.392928 76.092292 161.573188 76.092292 161.76112 
C 76.092292 161.949052 76.247485 162.129312 76.52369 162.2622 
C 76.799895 162.395087 77.174563 162.469754 77.565176 162.469754 
z
" style="fill:#0000ff;opacity:0.2;stroke:#0000ff;stroke-linejoin:miter;stroke-width:2;"/>
   </g>
   <g id="patch_11">
    <path clip-path="url(#p6b0f0256d8)" d="M 220.434927 30.309502 
C 220.82554 30.309502 221.200208 30.234835 221.476413 30.101947 
C 221.752619 29.96906 221.907811 29.788799 221.907811 29.600868 
C 221.907811 29.412936 221.752619 29.232676 221.476413 29.099788 
C 221.200208 28.9669 220.82554 28.892233 220.434927 28.892233 
C 220.044314 28.892233 219.669646 28.9669 219.393441 29.099788 
C 219.117235 29.232676 218.962043 29.412936 218.962043 29.600868 
C 218.962043 29.788799 219.117235 29.96906 219.393441 30.101947 
C 219.669646 30.234835 220.044314 30.309502 220.434927 30.309502 
z
" style="fill:#0000ff;opacity:0.2;stroke:#0000ff;stroke-linejoin:miter;stroke-width:2;"/>
   </g>
   <g id="patch_12">
    <path clip-path="url(#p6b0f0256d8)" d="M 264.621448 30.309502 
C 265.012061 30.309502 265.386729 30.234835 265.662934 30.101947 
C 265.93914 29.96906 266.094332 29.788799 266.094332 29.600868 
C 266.094332 29.412936 265.93914 29.232676 265.662934 29.099788 
C 265.386729 28.9669 265.012061 28.892233 264.621448 28.892233 
C 264.230835 28.892233 263.856167 28.9669 263.579962 29.099788 
C 263.303756 29.232676 263.148564 29.412936 263.148564 29.600868 
C 263.148564 29.788799 263.303756 29.96906 263.579962 30.101947 
C 263.856167 30.234835 264.230835 30.309502 264.621448 30.309502 
z
" style="fill:#0000ff;opacity:0.2;stroke:#0000ff;stroke-linejoin:miter;stroke-width:2;"/>
   </g>
   <g id="patch_13">
    <path clip-path="url(#p6b0f0256d8)" d="M 407.491199 162.469754 
C 407.881812 162.469754 408.25648 162.395087 408.532685 162.2622 
C 408.80889 162.129312 408.964083 161.949052 408.964083 161.76112 
C 408.964083 161.573188 408.80889 161.392928 408.532685 161.26004 
C 408.25648 161.127152 407.881812 161.052485 407.491199 161.052485 
C 407.100585 161.052485 406.725918 161.127152 406.449712 161.26004 
C 406.173507 161.392928 406.018315 161.573188 406.018315 161.76112 
C 406.018315 161.949052 406.173507 162.129312 406.449712 162.2622 
C 406.725918 162.395087 407.100585 162.469754 407.491199 162.469754 
z
" style="fill:#0000ff;opacity:0.2;stroke:#0000ff;stroke-linejoin:miter;stroke-width:2;"/>
   </g>
   <g id="patch_14">
    <path clip-path="url(#p6b0f0256d8)" d="M 272.72231 299.767603 
L 212.334065 299.767603 
L 60.62701 163.355546 
L 212.334065 30.48666 
L 272.72231 30.48666 
L 424.429365 163.355546 
L 272.72231 299.767603 
" style="fill:none;stroke:#ff0000;stroke-linejoin:miter;stroke-width:0.5;"/>
   </g>
   <g id="patch_15">
    <path clip-path="url(#p6b0f0256d8)" d="M 264.621448 297.110225 
L 220.434927 297.110225 
L 77.565176 161.76112 
L 220.434927 29.600868 
L 264.621448 29.600868 
L 407.491199 161.76112 
L 264.621448 297.110225 
" style="fill:none;stroke:#0000ff;stroke-linejoin:miter;stroke-width:0.5;"/>
   </g>
   <g id="[&quot;g_s&quot;:1,&quot;g_t&quot;:1,&quot;coords&quot;:[[383.0, -745.0],[372.0, -737.5]],&quot;certainty&quot;:10]">
    <path clip-path="url(#p6b0f0256d8)" d="M 272.72231 301.716346 
C 273.796497 301.716346 274.826833 301.511014 275.586397 301.145572 
C 276.345962 300.780131 276.772741 300.284415 276.772741 299.767603 
C 276.772741 299.25079 276.345962 298.755075 275.586397 298.389633 
C 274.826833 298.024191 273.796497 297.818859 272.72231 297.818859 
C 271.648123 297.818859 270.617788 298.024191 269.858223 298.389633 
C 269.098658 298.755075 268.671879 299.25079 268.671879 299.767603 
C 268.671879 300.284415 269.098658 300.780131 269.858223 301.145572 
C 270.617788 301.511014 271.648123 301.716346 272.72231 301.716346 
z
" style="fill:#0000ff;opacity:0.2;stroke:#0000ff;stroke-linejoin:miter;stroke-width:2;"/>
   </g>
   <g id="[&quot;g_s&quot;:1,&quot;g_t&quot;:1,&quot;coords&quot;:[[372.0, -737.5],[383.0, -745.0]],&quot;certainty&quot;:10]">
    <path clip-path="url(#p6b0f0256d8)" d="M 264.621448 299.058969 
C 265.695635 299.058969 266.72597 298.853637 267.485535 298.488195 
C 268.2451 298.122753 268.671879 297.627038 268.671879 297.110225 
C 268.671879 296.593412 268.2451 296.097697 267.485535 295.732255 
C 266.72597 295.366813 265.695635 295.161481 264.621448 295.161481 
C 263.547261 295.161481 262.516925 295.366813 261.757361 295.732255 
C 260.997796 296.097697 260.571017 296.593412 260.571017 297.110225 
C 260.571017 297.627038 260.997796 298.122753 261.757361 298.488195 
C 262.516925 298.853637 263.547261 299.058969 264.621448 299.058969 
z
" style="fill:#ff0000;opacity:0.2;stroke:#ff0000;stroke-linejoin:miter;stroke-width:2;"/>
   </g>
   <g id="patch_16">
    <path d="M 272.72231 299.767603 
Q 269.623177 298.750974 268.371714 298.340449 
" style="fill:none;opacity:0.5;stroke:#0000ff;stroke-linecap:round;stroke-width:2.75;"/>
    <path d="M 269.329446 300.233264 
L 268.371714 298.340449 
L 270.264529 297.382717 
" style="fill:none;opacity:0.5;stroke:#0000ff;stroke-linecap:round;stroke-width:2.75;"/>
   </g>
   <g id="[&quot;g_s&quot;:2,&quot;g_t&quot;:2,&quot;coords&quot;:[[301.0, -745.0],[312.0, -737.5]],&quot;certainty&quot;:11]">
    <path clip-path="url(#p6b0f0256d8)" d="M 212.334065 301.893505 
C 213.505905 301.893505 214.629908 301.669506 215.458524 301.270842 
C 216.28714 300.872179 216.752717 300.331398 216.752717 299.767603 
C 216.752717 299.203807 216.28714 298.663027 215.458524 298.264363 
C 214.629908 297.865699 213.505905 297.6417 212.334065 297.6417 
C 211.162225 297.6417 210.038222 297.865699 209.209606 298.264363 
C 208.38099 298.663027 207.915413 299.203807 207.915413 299.767603 
C 207.915413 300.331398 208.38099 300.872179 209.209606 301.270842 
C 210.038222 301.669506 211.162225 301.893505 212.334065 301.893505 
z
" style="fill:#0000ff;opacity:0.2;stroke:#0000ff;stroke-linejoin:miter;stroke-width:2;"/>
   </g>
   <g id="[&quot;g_s&quot;:2,&quot;g_t&quot;:2,&quot;coords&quot;:[[312.0, -737.5],[301.0, -745.0]],&quot;certainty&quot;:11]">
    <path clip-path="url(#p6b0f0256d8)" d="M 220.434927 299.236127 
C 221.606767 299.236127 222.73077 299.012129 223.559386 298.613465 
C 224.388002 298.214801 224.853579 297.674021 224.853579 297.110225 
C 224.853579 296.546429 224.388002 296.005649 223.559386 295.606985 
C 222.73077 295.208321 221.606767 294.984323 220.434927 294.984323 
C 219.263087 294.984323 218.139084 295.208321 217.310468 295.606985 
C 216.481852 296.005649 216.016275 296.546429 216.016275 297.110225 
C 216.016275 297.674021 216.481852 298.214801 217.310468 298.613465 
C 218.139084 299.012129 219.263087 299.236127 220.434927 299.236127 
z
" style="fill:#ff0000;opacity:0.2;stroke:#ff0000;stroke-linejoin:miter;stroke-width:2;"/>
   </g>
   <g id="patch_17">
    <path d="M 212.334065 299.767603 
Q 215.433198 298.750974 216.516691 298.395549 
" style="fill:none;opacity:0.5;stroke:#0000ff;stroke-linecap:round;stroke-width:3;"/>
    <path d="M 214.623876 297.437817 
L 216.516691 298.395549 
L 215.558959 300.288364 
" style="fill:none;opacity:0.5;stroke:#0000ff;stroke-linecap:round;stroke-width:3;"/>
   </g>
   <g id="[&quot;g_s&quot;:3,&quot;g_t&quot;:3,&quot;coords&quot;:[[95.0, -360.0],[118.0, -355.5]],&quot;certainty&quot;:11]">
    <path clip-path="url(#p6b0f0256d8)" d="M 60.62701 165.481448 
C 61.79885 165.481448 62.922853 165.25745 63.751469 164.858786 
C 64.580085 164.460122 65.045662 163.919342 65.045662 163.355546 
C 65.045662 162.79175 64.580085 162.25097 63.751469 161.852306 
C 62.922853 161.453642 61.79885 161.229644 60.62701 161.229644 
C 59.45517 161.229644 58.331167 161.453642 57.502551 161.852306 
C 56.673935 162.25097 56.208358 162.79175 56.208358 163.355546 
C 56.208358 163.919342 56.673935 164.460122 57.502551 164.858786 
C 58.331167 165.25745 59.45517 165.481448 60.62701 165.481448 
z
" style="fill:#0000ff;opacity:0.2;stroke:#0000ff;stroke-linejoin:miter;stroke-width:2;"/>
   </g>
   <g id="[&quot;g_s&quot;:3,&quot;g_t&quot;:3,&quot;coords&quot;:[[118.0, -355.5],[95.0, -360.0]],&quot;certainty&quot;:11]">
    <path clip-path="url(#p6b0f0256d8)" d="M 77.565176 163.887022 
C 78.737017 163.887022 79.861019 163.663023 80.689635 163.264359 
C 81.518251 162.865696 81.983828 162.324915 81.983828 161.76112 
C 81.983828 161.197324 81.518251 160.656544 80.689635 160.25788 
C 79.861019 159.859216 78.737017 159.635217 77.565176 159.635217 
C 76.393336 159.635217 75.269334 159.859216 74.440718 160.25788 
C 73.612101 160.656544 73.146524 161.197324 73.146524 161.76112 
C 73.146524 162.324915 73.612101 162.865696 74.440718 163.264359 
C 75.269334 163.663023 76.393336 163.887022 77.565176 163.887022 
z
" style="fill:#ff0000;opacity:0.2;stroke:#ff0000;stroke-linejoin:miter;stroke-width:2;"/>
   </g>
   <g id="patch_18">
    <path d="M 60.62701 163.355546 
Q 68.101555 162.651951 73.464116 162.147161 
" style="fill:none;opacity:0.5;stroke:#0000ff;stroke-linecap:round;stroke-width:3;"/>
    <path d="M 71.830141 160.79434 
L 73.464116 162.147161 
L 72.111294 163.781136 
" style="fill:none;opacity:0.5;stroke:#0000ff;stroke-linecap:round;stroke-width:3;"/>
   </g>
   <g id="[&quot;g_s&quot;:4,&quot;g_t&quot;:4,&quot;coords&quot;:[[301.0, 15.0],[312.0, 17.5]],&quot;certainty&quot;:11]">
    <path clip-path="url(#p6b0f0256d8)" d="M 212.334065 32.612562 
C 213.505905 32.612562 214.629908 32.388564 215.458524 31.9899 
C 216.28714 31.591236 216.752717 31.050456 216.752717 30.48666 
C 216.752717 29.922864 216.28714 29.382084 215.458524 28.98342 
C 214.629908 28.584756 213.505905 28.360758 212.334065 28.360758 
C 211.162225 28.360758 210.038222 28.584756 209.209606 28.98342 
C 208.38099 29.382084 207.915413 29.922864 207.915413 30.48666 
C 207.915413 31.050456 208.38099 31.591236 209.209606 31.9899 
C 210.038222 32.388564 211.162225 32.612562 212.334065 32.612562 
z
" style="fill:#0000ff;opacity:0.2;stroke:#0000ff;stroke-linejoin:miter;stroke-width:2;"/>
   </g>
   <g id="[&quot;g_s&quot;:4,&quot;g_t&quot;:4,&quot;coords&quot;:[[312.0, 17.5],[301.0, 15.0]],&quot;certainty&quot;:11]">
    <path clip-path="url(#p6b0f0256d8)" d="M 220.434927 31.72677 
C 221.606767 31.72677 222.73077 31.502771 223.559386 31.104107 
C 224.388002 30.705443 224.853579 30.164663 224.853579 29.600868 
C 224.853579 29.037072 224.388002 28.496292 223.559386 28.097628 
C 222.73077 27.698964 221.606767 27.474965 220.434927 27.474965 
C 219.263087 27.474965 218.139084 27.698964 217.310468 28.097628 
C 216.481852 28.496292 216.016275 29.037072 216.016275 29.600868 
C 216.016275 30.164663 216.481852 30.705443 217.310468 31.104107 
C 218.139084 31.502771 219.263087 31.72677 220.434927 31.72677 
z
" style="fill:#ff0000;opacity:0.2;stroke:#ff0000;stroke-linejoin:miter;stroke-width:2;"/>
   </g>
   <g id="patch_19">
    <path d="M 212.334065 30.48666 
Q 215.389688 30.152542 216.33656 30.049005 
" style="fill:none;opacity:0.5;stroke:#0000ff;stroke-linecap:round;stroke-width:3;"/>
    <path d="M 214.682401 28.720939 
L 216.33656 30.049005 
L 215.008494 31.703164 
" style="fill:none;opacity:0.5;stroke:#0000ff;stroke-linecap:round;stroke-width:3;"/>
   </g>
   <g id="[&quot;g_s&quot;:5,&quot;g_t&quot;:5,&quot;coords&quot;:[[383.0, 15.0],[372.0, 17.5]],&quot;certainty&quot;:12]">
    <path clip-path="url(#p6b0f0256d8)" d="M 272.72231 32.789721 
C 273.991804 32.789721 275.209473 32.547056 276.10714 32.11517 
C 277.004808 31.683284 277.509183 31.097439 277.509183 30.48666 
C 277.509183 29.875881 277.004808 29.290036 276.10714 28.85815 
C 275.209473 28.426264 273.991804 28.183599 272.72231 28.183599 
C 271.452816 28.183599 270.235147 28.426264 269.33748 28.85815 
C 268.439812 29.290036 267.935437 29.875881 267.935437 30.48666 
C 267.935437 31.097439 268.439812 31.683284 269.33748 32.11517 
C 270.235147 32.547056 271.452816 32.789721 272.72231 32.789721 
z
" style="fill:#0000ff;opacity:0.2;stroke:#0000ff;stroke-linejoin:miter;stroke-width:2;"/>
   </g>
   <g id="[&quot;g_s&quot;:5,&quot;g_t&quot;:5,&quot;coords&quot;:[[372.0, 17.5],[383.0, 15.0]],&quot;certainty&quot;:12]">
    <path clip-path="url(#p6b0f0256d8)" d="M 264.621448 31.903928 
C 265.890942 31.903928 267.108611 31.661263 268.006278 31.229377 
C 268.903946 30.797491 269.408321 30.211646 269.408321 29.600868 
C 269.408321 28.990089 268.903946 28.404244 268.006278 27.972358 
C 267.108611 27.540472 265.890942 27.297807 264.621448 27.297807 
C 263.351954 27.297807 262.134285 27.540472 261.236617 27.972358 
C 260.33895 28.404244 259.834575 28.990089 259.834575 29.600868 
C 259.834575 30.211646 260.33895 30.797491 261.236617 31.229377 
C 262.134285 31.661263 263.351954 31.903928 264.621448 31.903928 
z
" style="fill:#ff0000;opacity:0.2;stroke:#ff0000;stroke-linejoin:miter;stroke-width:2;"/>
   </g>
   <g id="patch_20">
    <path d="M 272.72231 30.48666 
Q 269.666687 30.152542 268.895544 30.068221 
" style="fill:none;opacity:0.5;stroke:#0000ff;stroke-linecap:round;stroke-width:3.25;"/>
    <path d="M 270.22361 31.722379 
L 268.895544 30.068221 
L 270.549703 28.740155 
" style="fill:none;opacity:0.5;stroke:#0000ff;stroke-linecap:round;stroke-width:3.25;"/>
   </g>
   <g id="[&quot;g_s&quot;:6,&quot;g_t&quot;:6,&quot;coords&quot;:[[589.0, -360.0],[566.0, -355.5]],&quot;certainty&quot;:11]">
    <path clip-path="url(#p6b0f0256d8)" d="M 424.429365 165.481448 
C 425.601205 165.481448 426.725208 165.25745 427.553824 164.858786 
C 428.38244 164.460122 428.848017 163.919342 428.848017 163.355546 
C 428.848017 162.79175 428.38244 162.25097 427.553824 161.852306 
C 426.725208 161.453642 425.601205 161.229644 424.429365 161.229644 
C 423.257525 161.229644 422.133522 161.453642 421.304906 161.852306 
C 420.47629 162.25097 420.010713 162.79175 420.010713 163.355546 
C 420.010713 163.919342 420.47629 164.460122 421.304906 164.858786 
C 422.133522 165.25745 423.257525 165.481448 424.429365 165.481448 
z
" style="fill:#0000ff;opacity:0.2;stroke:#0000ff;stroke-linejoin:miter;stroke-width:2;"/>
   </g>
   <g id="[&quot;g_s&quot;:6,&quot;g_t&quot;:6,&quot;coords&quot;:[[566.0, -355.5],[589.0, -360.0]],&quot;certainty&quot;:11]">
    <path clip-path="url(#p6b0f0256d8)" d="M 407.491199 163.887022 
C 408.663039 163.887022 409.787041 163.663023 410.615657 163.264359 
C 411.444274 162.865696 411.909851 162.324915 411.909851 161.76112 
C 411.909851 161.197324 411.444274 160.656544 410.615657 160.25788 
C 409.787041 159.859216 408.663039 159.635217 407.491199 159.635217 
C 406.319358 159.635217 405.195356 159.859216 404.36674 160.25788 
C 403.538124 160.656544 403.072547 161.197324 403.072547 161.76112 
C 403.072547 162.324915 403.538124 162.865696 404.36674 163.264359 
C 405.195356 163.663023 406.319358 163.887022 407.491199 163.887022 
z
" style="fill:#ff0000;opacity:0.2;stroke:#ff0000;stroke-linejoin:miter;stroke-width:2;"/>
   </g>
   <g id="patch_21">
    <path d="M 424.429365 163.355546 
Q 416.95482 162.651951 411.592259 162.147161 
" style="fill:none;opacity:0.5;stroke:#0000ff;stroke-linecap:round;stroke-width:3;"/>
    <path d="M 412.945081 163.781136 
L 411.592259 162.147161 
L 413.226234 160.79434 
" style="fill:none;opacity:0.5;stroke:#0000ff;stroke-linecap:round;stroke-width:3;"/>
   </g>
   <g id="[&quot;g_s&quot;:1,&quot;g_t&quot;:1,&quot;coords&quot;:[[372.0, -737.5],[383.0, -745.0]],&quot;certainty&quot;:10]">
    <path clip-path="url(#p6b0f0256d8)" d="M 264.621448 299.058969 
C 265.695635 299.058969 266.72597 298.853637 267.485535 298.488195 
C 268.2451 298.122753 268.671879 297.627038 268.671879 297.110225 
C 268.671879 296.593412 268.2451 296.097697 267.485535 295.732255 
C 266.72597 295.366813 265.695635 295.161481 264.621448 295.161481 
C 263.547261 295.161481 262.516925 295.366813 261.757361 295.732255 
C 260.997796 296.097697 260.571017 296.593412 260.571017 297.110225 
C 260.571017 297.627038 260.997796 298.122753 261.757361 298.488195 
C 262.516925 298.853637 263.547261 299.058969 264.621448 299.058969 
z
" style="fill:#0000ff;opacity:0.2;stroke:#0000ff;stroke-linejoin:miter;stroke-width:2;"/>
   </g>
   <g id="[&quot;g_s&quot;:1,&quot;g_t&quot;:1,&quot;coords&quot;:[[383.0, -745.0],[372.0, -737.5]],&quot;certainty&quot;:10]">
    <path clip-path="url(#p6b0f0256d8)" d="M 272.72231 301.716346 
C 273.796497 301.716346 274.826833 301.511014 275.586397 301.145572 
C 276.345962 300.780131 276.772741 300.284415 276.772741 299.767603 
C 276.772741 299.25079 276.345962 298.755075 275.586397 298.389633 
C 274.826833 298.024191 273.796497 297.818859 272.72231 297.818859 
C 271.648123 297.818859 270.617788 298.024191 269.858223 298.389633 
C 269.098658 298.755075 268.671879 299.25079 268.671879 299.767603 
C 268.671879 300.284415 269.098658 300.780131 269.858223 301.145572 
C 270.617788 301.511014 271.648123 301.716346 272.72231 301.716346 
z
" style="fill:#ff0000;opacity:0.2;stroke:#ff0000;stroke-linejoin:miter;stroke-width:2;"/>
   </g>
   <g id="patch_22">
    <path d="M 264.621448 297.110225 
Q 267.720581 298.126854 268.972044 298.537379 
" style="fill:none;opacity:0.5;stroke:#ff0000;stroke-linecap:round;stroke-width:2.75;"/>
    <path d="M 268.014312 296.644564 
L 268.972044 298.537379 
L 267.079229 299.495111 
" style="fill:none;opacity:0.5;stroke:#ff0000;stroke-linecap:round;stroke-width:2.75;"/>
   </g>
   <g id="[&quot;g_s&quot;:2,&quot;g_t&quot;:2,&quot;coords&quot;:[[312.0, -737.5],[301.0, -745.0]],&quot;certainty&quot;:11]">
    <path clip-path="url(#p6b0f0256d8)" d="M 220.434927 299.236127 
C 221.606767 299.236127 222.73077 299.012129 223.559386 298.613465 
C 224.388002 298.214801 224.853579 297.674021 224.853579 297.110225 
C 224.853579 296.546429 224.388002 296.005649 223.559386 295.606985 
C 222.73077 295.208321 221.606767 294.984323 220.434927 294.984323 
C 219.263087 294.984323 218.139084 295.208321 217.310468 295.606985 
C 216.481852 296.005649 216.016275 296.546429 216.016275 297.110225 
C 216.016275 297.674021 216.481852 298.214801 217.310468 298.613465 
C 218.139084 299.012129 219.263087 299.236127 220.434927 299.236127 
z
" style="fill:#0000ff;opacity:0.2;stroke:#0000ff;stroke-linejoin:miter;stroke-width:2;"/>
   </g>
   <g id="[&quot;g_s&quot;:2,&quot;g_t&quot;:2,&quot;coords&quot;:[[301.0, -745.0],[312.0, -737.5]],&quot;certainty&quot;:11]">
    <path clip-path="url(#p6b0f0256d8)" d="M 212.334065 301.893505 
C 213.505905 301.893505 214.629908 301.669506 215.458524 301.270842 
C 216.28714 300.872179 216.752717 300.331398 216.752717 299.767603 
C 216.752717 299.203807 216.28714 298.663027 215.458524 298.264363 
C 214.629908 297.865699 213.505905 297.6417 212.334065 297.6417 
C 211.162225 297.6417 210.038222 297.865699 209.209606 298.264363 
C 208.38099 298.663027 207.915413 299.203807 207.915413 299.767603 
C 207.915413 300.331398 208.38099 300.872179 209.209606 301.270842 
C 210.038222 301.669506 211.162225 301.893505 212.334065 301.893505 
z
" style="fill:#ff0000;opacity:0.2;stroke:#ff0000;stroke-linejoin:miter;stroke-width:2;"/>
   </g>
   <g id="patch_23">
    <path d="M 220.434927 297.110225 
Q 217.335794 298.126854 216.252301 298.482278 
" style="fill:none;opacity:0.5;stroke:#ff0000;stroke-linecap:round;stroke-width:3;"/>
    <path d="M 218.145116 299.44001 
L 216.252301 298.482278 
L 217.210033 296.589463 
" style="fill:none;opacity:0.5;stroke:#ff0000;stroke-linecap:round;stroke-width:3;"/>
   </g>
   <g id="[&quot;g_s&quot;:3,&quot;g_t&quot;:3,&quot;coords&quot;:[[118.0, -355.5],[95.0, -360.0]],&quot;certainty&quot;:11]">
    <path clip-path="url(#p6b0f0256d8)" d="M 77.565176 163.887022 
C 78.737017 163.887022 79.861019 163.663023 80.689635 163.264359 
C 81.518251 162.865696 81.983828 162.324915 81.983828 161.76112 
C 81.983828 161.197324 81.518251 160.656544 80.689635 160.25788 
C 79.861019 159.859216 78.737017 159.635217 77.565176 159.635217 
C 76.393336 159.635217 75.269334 159.859216 74.440718 160.25788 
C 73.612101 160.656544 73.146524 161.197324 73.146524 161.76112 
C 73.146524 162.324915 73.612101 162.865696 74.440718 163.264359 
C 75.269334 163.663023 76.393336 163.887022 77.565176 163.887022 
z
" style="fill:#0000ff;opacity:0.2;stroke:#0000ff;stroke-linejoin:miter;stroke-width:2;"/>
   </g>
   <g id="[&quot;g_s&quot;:3,&quot;g_t&quot;:3,&quot;coords&quot;:[[95.0, -360.0],[118.0, -355.5]],&quot;certainty&quot;:11]">
    <path clip-path="url(#p6b0f0256d8)" d="M 60.62701 165.481448 
C 61.79885 165.481448 62.922853 165.25745 63.751469 164.858786 
C 64.580085 164.460122 65.045662 163.919342 65.045662 163.355546 
C 65.045662 162.79175 64.580085 162.25097 63.751469 161.852306 
C 62.922853 161.453642 61.79885 161.229644 60.62701 161.229644 
C 59.45517 161.229644 58.331167 161.453642 57.502551 161.852306 
C 56.673935 162.25097 56.208358 162.79175 56.208358 163.355546 
C 56.208358 163.919342 56.673935 164.460122 57.502551 164.858786 
C 58.331167 165.25745 59.45517 165.481448 60.62701 165.481448 
z
" style="fill:#ff0000;opacity:0.2;stroke:#ff0000;stroke-linejoin:miter;stroke-width:2;"/>
   </g>
   <g id="patch_24">
    <path d="M 77.565176 161.76112 
Q 70.090632 162.464715 64.728071 162.969504 
" style="fill:none;opacity:0.5;stroke:#ff0000;stroke-linecap:round;stroke-width:3;"/>
    <path d="M 66.362046 164.322326 
L 64.728071 162.969504 
L 66.080892 161.335529 
" style="fill:none;opacity:0.5;stroke:#ff0000;stroke-linecap:round;stroke-width:3;"/>
   </g>
   <g id="[&quot;g_s&quot;:4,&quot;g_t&quot;:4,&quot;coords&quot;:[[312.0, 17.5],[301.0, 15.0]],&quot;certainty&quot;:11]">
    <path clip-path="url(#p6b0f0256d8)" d="M 220.434927 31.72677 
C 221.606767 31.72677 222.73077 31.502771 223.559386 31.104107 
C 224.388002 30.705443 224.853579 30.164663 224.853579 29.600868 
C 224.853579 29.037072 224.388002 28.496292 223.559386 28.097628 
C 222.73077 27.698964 221.606767 27.474965 220.434927 27.474965 
C 219.263087 27.474965 218.139084 27.698964 217.310468 28.097628 
C 216.481852 28.496292 216.016275 29.037072 216.016275 29.600868 
C 216.016275 30.164663 216.481852 30.705443 217.310468 31.104107 
C 218.139084 31.502771 219.263087 31.72677 220.434927 31.72677 
z
" style="fill:#0000ff;opacity:0.2;stroke:#0000ff;stroke-linejoin:miter;stroke-width:2;"/>
   </g>
   <g id="[&quot;g_s&quot;:4,&quot;g_t&quot;:4,&quot;coords&quot;:[[301.0, 15.0],[312.0, 17.5]],&quot;certainty&quot;:11]">
    <path clip-path="url(#p6b0f0256d8)" d="M 212.334065 32.612562 
C 213.505905 32.612562 214.629908 32.388564 215.458524 31.9899 
C 216.28714 31.591236 216.752717 31.050456 216.752717 30.48666 
C 216.752717 29.922864 216.28714 29.382084 215.458524 28.98342 
C 214.629908 28.584756 213.505905 28.360758 212.334065 28.360758 
C 211.162225 28.360758 210.038222 28.584756 209.209606 28.98342 
C 208.38099 29.382084 207.915413 29.922864 207.915413 30.48666 
C 207.915413 31.050456 208.38099 31.591236 209.209606 31.9899 
C 210.038222 32.388564 211.162225 32.612562 212.334065 32.612562 
z
" style="fill:#ff0000;opacity:0.2;stroke:#ff0000;stroke-linejoin:miter;stroke-width:2;"/>
   </g>
   <g id="patch_25">
    <path d="M 220.434927 29.600868 
Q 217.379304 29.934986 216.432432 30.038522 
" style="fill:none;opacity:0.5;stroke:#ff0000;stroke-linecap:round;stroke-width:3;"/>
    <path d="M 218.086591 31.366588 
L 216.432432 30.038522 
L 217.760498 28.384364 
" style="fill:none;opacity:0.5;stroke:#ff0000;stroke-linecap:round;stroke-width:3;"/>
   </g>
   <g id="[&quot;g_s&quot;:5,&quot;g_t&quot;:5,&quot;coords&quot;:[[372.0, 17.5],[383.0, 15.0]],&quot;certainty&quot;:12]">
    <path clip-path="url(#p6b0f0256d8)" d="M 264.621448 31.903928 
C 265.890942 31.903928 267.108611 31.661263 268.006278 31.229377 
C 268.903946 30.797491 269.408321 30.211646 269.408321 29.600868 
C 269.408321 28.990089 268.903946 28.404244 268.006278 27.972358 
C 267.108611 27.540472 265.890942 27.297807 264.621448 27.297807 
C 263.351954 27.297807 262.134285 27.540472 261.236617 27.972358 
C 260.33895 28.404244 259.834575 28.990089 259.834575 29.600868 
C 259.834575 30.211646 260.33895 30.797491 261.236617 31.229377 
C 262.134285 31.661263 263.351954 31.903928 264.621448 31.903928 
z
" style="fill:#0000ff;opacity:0.2;stroke:#0000ff;stroke-linejoin:miter;stroke-width:2;"/>
   </g>
   <g id="[&quot;g_s&quot;:5,&quot;g_t&quot;:5,&quot;coords&quot;:[[383.0, 15.0],[372.0, 17.5]],&quot;certainty&quot;:12]">
    <path clip-path="url(#p6b0f0256d8)" d="M 272.72231 32.789721 
C 273.991804 32.789721 275.209473 32.547056 276.10714 32.11517 
C 277.004808 31.683284 277.509183 31.097439 277.509183 30.48666 
C 277.509183 29.875881 277.004808 29.290036 276.10714 28.85815 
C 275.209473 28.426264 273.991804 28.183599 272.72231 28.183599 
C 271.452816 28.183599 270.235147 28.426264 269.33748 28.85815 
C 268.439812 29.290036 267.935437 29.875881 267.935437 30.48666 
C 267.935437 31.097439 268.439812 31.683284 269.33748 32.11517 
C 270.235147 32.547056 271.452816 32.789721 272.72231 32.789721 
z
" style="fill:#ff0000;opacity:0.2;stroke:#ff0000;stroke-linejoin:miter;stroke-width:2;"/>
   </g>
   <g id="patch_26">
    <path d="M 264.621448 29.600868 
Q 267.677071 29.934986 268.448214 30.019307 
" style="fill:none;opacity:0.5;stroke:#ff0000;stroke-linecap:round;stroke-width:3.25;"/>
    <path d="M 267.120148 28.365148 
L 268.448214 30.019307 
L 266.794055 31.347373 
" style="fill:none;opacity:0.5;stroke:#ff0000;stroke-linecap:round;stroke-width:3.25;"/>
   </g>
   <g id="[&quot;g_s&quot;:6,&quot;g_t&quot;:6,&quot;coords&quot;:[[566.0, -355.5],[589.0, -360.0]],&quot;certainty&quot;:11]">
    <path clip-path="url(#p6b0f0256d8)" d="M 407.491199 163.887022 
C 408.663039 163.887022 409.787041 163.663023 410.615657 163.264359 
C 411.444274 162.865696 411.909851 162.324915 411.909851 161.76112 
C 411.909851 161.197324 411.444274 160.656544 410.615657 160.25788 
C 409.787041 159.859216 408.663039 159.635217 407.491199 159.635217 
C 406.319358 159.635217 405.195356 159.859216 404.36674 160.25788 
C 403.538124 160.656544 403.072547 161.197324 403.072547 161.76112 
C 403.072547 162.324915 403.538124 162.865696 404.36674 163.264359 
C 405.195356 163.663023 406.319358 163.887022 407.491199 163.887022 
z
" style="fill:#0000ff;opacity:0.2;stroke:#0000ff;stroke-linejoin:miter;stroke-width:2;"/>
   </g>
   <g id="[&quot;g_s&quot;:6,&quot;g_t&quot;:6,&quot;coords&quot;:[[589.0, -360.0],[566.0, -355.5]],&quot;certainty&quot;:11]">
    <path clip-path="url(#p6b0f0256d8)" d="M 424.429365 165.481448 
C 425.601205 165.481448 426.725208 165.25745 427.553824 164.858786 
C 428.38244 164.460122 428.848017 163.919342 428.848017 163.355546 
C 428.848017 162.79175 428.38244 162.25097 427.553824 161.852306 
C 426.725208 161.453642 425.601205 161.229644 424.429365 161.229644 
C 423.257525 161.229644 422.133522 161.453642 421.304906 161.852306 
C 420.47629 162.25097 420.010713 162.79175 420.010713 163.355546 
C 420.010713 163.919342 420.47629 164.460122 421.304906 164.858786 
C 422.133522 165.25745 423.257525 165.481448 424.429365 165.481448 
z
" style="fill:#ff0000;opacity:0.2;stroke:#ff0000;stroke-linejoin:miter;stroke-width:2;"/>
   </g>
   <g id="patch_27">
    <path d="M 407.491199 161.76112 
Q 414.965743 162.464715 420.328304 162.969504 
" style="fill:none;opacity:0.5;stroke:#ff0000;stroke-linecap:round;stroke-width:3;"/>
    <path d="M 418.975483 161.335529 
L 420.328304 162.969504 
L 418.694329 164.322326 
" style="fill:none;opacity:0.5;stroke:#ff0000;stroke-linecap:round;stroke-width:3;"/>
   </g>
   <g id="patch_28">
    <path clip-path="url(#p6b0f0256d8)" d="M 268.671879 300.210499 
C 269.648413 300.210499 270.585081 300.023833 271.275595 299.691614 
C 271.966108 299.359394 272.354089 298.908744 272.354089 298.438914 
C 272.354089 297.969084 271.966108 297.518434 271.275595 297.186214 
C 270.585081 296.853994 269.648413 296.667329 268.671879 296.667329 
C 267.695345 296.667329 266.758677 296.853994 266.068163 297.186214 
C 265.37765 297.518434 264.989669 297.969084 264.989669 298.438914 
C 264.989669 298.908744 265.37765 299.359394 266.068163 299.691614 
C 266.758677 300.023833 267.695345 300.210499 268.671879 300.210499 
z
" style="fill:#008000;opacity:0.2;stroke:#008000;stroke-linejoin:miter;stroke-width:2;"/>
   </g>
   <g id="patch_29">
    <path clip-path="url(#p6b0f0256d8)" d="M 216.384496 300.210499 
C 217.36103 300.210499 218.297698 300.023833 218.988212 299.691614 
C 219.678725 299.359394 220.066706 298.908744 220.066706 298.438914 
C 220.066706 297.969084 219.678725 297.518434 218.988212 297.186214 
C 218.297698 296.853994 217.36103 296.667329 216.384496 296.667329 
C 215.407962 296.667329 214.471294 296.853994 213.78078 297.186214 
C 213.090267 297.518434 212.702286 297.969084 212.702286 298.438914 
C 212.702286 298.908744 213.090267 299.359394 213.78078 299.691614 
C 214.471294 300.023833 215.407962 300.210499 216.384496 300.210499 
z
" style="fill:#008000;opacity:0.2;stroke:#008000;stroke-linejoin:miter;stroke-width:2;"/>
   </g>
   <g id="patch_30">
    <path clip-path="url(#p6b0f0256d8)" d="M 69.096093 164.329918 
C 70.072627 164.329918 71.009295 164.143253 71.699809 163.811033 
C 72.390322 163.478813 72.778303 163.028163 72.778303 162.558333 
C 72.778303 162.088503 72.390322 161.637853 71.699809 161.305633 
C 71.009295 160.973413 70.072627 160.786748 69.096093 160.786748 
C 68.11956 160.786748 67.182891 160.973413 66.492377 161.305633 
C 65.801864 161.637853 65.413883 162.088503 65.413883 162.558333 
C 65.413883 163.028163 65.801864 163.478813 66.492377 163.811033 
C 67.182891 164.143253 68.11956 164.329918 69.096093 164.329918 
z
" style="fill:#008000;opacity:0.2;stroke:#008000;stroke-linejoin:miter;stroke-width:2;"/>
   </g>
   <g id="patch_31">
    <path clip-path="url(#p6b0f0256d8)" d="M 216.384496 31.815349 
C 217.36103 31.815349 218.297698 31.628684 218.988212 31.296464 
C 219.678725 30.964244 220.066706 30.513594 220.066706 30.043764 
C 220.066706 29.573934 219.678725 29.123284 218.988212 28.791064 
C 218.297698 28.458844 217.36103 28.272179 216.384496 28.272179 
C 215.407962 28.272179 214.471294 28.458844 213.78078 28.791064 
C 213.090267 29.123284 212.702286 29.573934 212.702286 30.043764 
C 212.702286 30.513594 213.090267 30.964244 213.78078 31.296464 
C 214.471294 31.628684 215.407962 31.815349 216.384496 31.815349 
z
" style="fill:#008000;opacity:0.2;stroke:#008000;stroke-linejoin:miter;stroke-width:2;"/>
   </g>
   <g id="patch_32">
    <path clip-path="url(#p6b0f0256d8)" d="M 268.671879 31.815349 
C 269.648413 31.815349 270.585081 31.628684 271.275595 31.296464 
C 271.966108 30.964244 272.354089 30.513594 272.354089 30.043764 
C 272.354089 29.573934 271.966108 29.123284 271.275595 28.791064 
C 270.585081 28.458844 269.648413 28.272179 268.671879 28.272179 
C 267.695345 28.272179 266.758677 28.458844 266.068163 28.791064 
C 265.37765 29.123284 264.989669 29.573934 264.989669 30.043764 
C 264.989669 30.513594 265.37765 30.964244 266.068163 31.296464 
C 266.758677 31.628684 267.695345 31.815349 268.671879 31.815349 
z
" style="fill:#008000;opacity:0.2;stroke:#008000;stroke-linejoin:miter;stroke-width:2;"/>
   </g>
   <g id="patch_33">
    <path clip-path="url(#p6b0f0256d8)" d="M 415.960282 164.329918 
C 416.936815 164.329918 417.873484 164.143253 418.563998 163.811033 
C 419.254511 163.478813 419.642492 163.028163 419.642492 162.558333 
C 419.642492 162.088503 419.254511 161.637853 418.563998 161.305633 
C 417.873484 160.973413 416.936815 160.786748 415.960282 160.786748 
C 414.983748 160.786748 414.04708 160.973413 413.356566 161.305633 
C 412.666053 161.637853 412.278072 162.088503 412.278072 162.558333 
C 412.278072 163.028163 412.666053 163.478813 413.356566 163.811033 
C 414.04708 164.143253 414.983748 164.329918 415.960282 164.329918 
z
" style="fill:#008000;opacity:0.2;stroke:#008000;stroke-linejoin:miter;stroke-width:2;"/>
   </g>
   <g id="patch_34">
    <path clip-path="url(#p6b0f0256d8)" d="M 272.72231 306.853943 
C 276.628444 306.853943 280.375119 306.107282 283.137173 304.778402 
C 285.899227 303.449523 287.45115 301.646922 287.45115 299.767603 
C 287.45115 297.888283 285.899227 296.085683 283.137173 294.756803 
C 280.375119 293.427924 276.628444 292.681262 272.72231 292.681262 
C 268.816176 292.681262 265.069501 293.427924 262.307447 294.756803 
C 259.545393 296.085683 257.99347 297.888283 257.99347 299.767603 
C 257.99347 301.646922 259.545393 303.449523 262.307447 304.778402 
C 265.069501 306.107282 268.816176 306.853943 272.72231 306.853943 
z
" style="fill:none;opacity:0.2;stroke:#ff0000;stroke-linejoin:miter;stroke-width:2;"/>
   </g>
   <g id="patch_35">
    <path clip-path="url(#p6b0f0256d8)" d="M 264.621448 304.196565 
C 268.527582 304.196565 272.274257 303.449904 275.036311 302.121024 
C 277.798365 300.792145 279.350288 298.989544 279.350288 297.110225 
C 279.350288 295.230905 277.798365 293.428305 275.036311 292.099425 
C 272.274257 290.770546 268.527582 290.023884 264.621448 290.023884 
C 260.715314 290.023884 256.968639 290.770546 254.206585 292.099425 
C 251.444531 293.428305 249.892608 295.230905 249.892608 297.110225 
C 249.892608 298.989544 251.444531 300.792145 254.206585 302.121024 
C 256.968639 303.449904 260.715314 304.196565 264.621448 304.196565 
z
" style="fill:none;opacity:0.2;stroke:#0000ff;stroke-linejoin:miter;stroke-width:2;"/>
   </g>
   <g id="patch_36">
    <path clip-path="url(#p6b0f0256d8)" d="M 272.72231 303.310773 
C 274.675377 303.310773 276.548715 302.937442 277.929741 302.273002 
C 279.310768 301.608563 280.08673 300.707262 280.08673 299.767603 
C 280.08673 298.827943 279.310768 297.926643 277.929741 297.262203 
C 276.548715 296.597763 274.675377 296.224432 272.72231 296.224432 
C 270.769243 296.224432 268.895906 296.597763 267.514879 297.262203 
C 266.133852 297.926643 265.35789 298.827943 265.35789 299.767603 
C 265.35789 300.707262 266.133852 301.608563 267.514879 302.273002 
C 268.895906 302.937442 270.769243 303.310773 272.72231 303.310773 
z
" style="fill:none;opacity:0.2;stroke:#008000;stroke-linejoin:miter;stroke-width:2;"/>
   </g>
   <g id="patch_37">
    <path clip-path="url(#p6b0f0256d8)" d="M 264.621448 300.653395 
C 266.574515 300.653395 268.447852 300.280064 269.828879 299.615625 
C 271.209906 298.951185 271.985868 298.049885 271.985868 297.110225 
C 271.985868 296.170565 271.209906 295.269265 269.828879 294.604825 
C 268.447852 293.940385 266.574515 293.567055 264.621448 293.567055 
C 262.668381 293.567055 260.795043 293.940385 259.414016 294.604825 
C 258.03299 295.269265 257.257028 296.170565 257.257028 297.110225 
C 257.257028 298.049885 258.03299 298.951185 259.414016 299.615625 
C 260.795043 300.280064 262.668381 300.653395 264.621448 300.653395 
z
" style="fill:none;opacity:0.2;stroke:#008000;stroke-linejoin:miter;stroke-width:2;"/>
   </g>
   <g id="patch_38">
    <path d="M 268.671879 298.438914 
Q 242.528188 298.438914 216.384496 298.438914 
" style="fill:none;opacity:0.5;stroke:#008000;stroke-linecap:round;stroke-width:2;"/>
   </g>
   <g id="patch_39">
    <path d="M 271.378549 299.3268 
Q 269.623177 298.750974 267.867804 298.175148 
" style="fill:none;opacity:0.5;stroke:#800080;stroke-linecap:round;stroke-width:2;"/>
    <path d="M 270.420817 297.433985 
L 271.378549 299.3268 
L 269.485734 300.284532 
" style="fill:none;opacity:0.5;stroke:#800080;stroke-linecap:round;stroke-width:2;"/>
    <path d="M 268.825536 300.067963 
L 267.867804 298.175148 
L 269.760619 297.217416 
" style="fill:none;opacity:0.5;stroke:#800080;stroke-linecap:round;stroke-width:2;"/>
   </g>
   <g id="patch_40">
    <path d="M 216.384496 298.438914 
Q 142.740295 230.498623 69.096093 162.558333 
" style="fill:none;opacity:0.5;stroke:#008000;stroke-linecap:round;stroke-width:2;"/>
   </g>
   <g id="patch_41">
    <path d="M 213.677826 299.3268 
Q 215.433198 298.750974 217.188571 298.175148 
" style="fill:none;opacity:0.5;stroke:#800080;stroke-linecap:round;stroke-width:2;"/>
    <path d="M 215.570641 300.284532 
L 213.677826 299.3268 
L 214.635558 297.433985 
" style="fill:none;opacity:0.5;stroke:#800080;stroke-linecap:round;stroke-width:2;"/>
    <path d="M 215.295756 297.217416 
L 217.188571 298.175148 
L 216.230839 300.067963 
" style="fill:none;opacity:0.5;stroke:#800080;stroke-linecap:round;stroke-width:2;"/>
   </g>
   <g id="patch_42">
    <path d="M 69.096093 162.558333 
Q 142.740295 96.301048 216.384496 30.043764 
" style="fill:none;opacity:0.5;stroke:#008000;stroke-linecap:round;stroke-width:2;"/>
   </g>
   <g id="patch_43">
    <path d="M 62.034999 163.223009 
Q 68.101555 162.651951 74.16811 162.080893 
" style="fill:none;opacity:0.5;stroke:#800080;stroke-linecap:round;stroke-width:2;"/>
    <path d="M 63.668974 164.57583 
L 62.034999 163.223009 
L 63.387821 161.589034 
" style="fill:none;opacity:0.5;stroke:#800080;stroke-linecap:round;stroke-width:2;"/>
    <path d="M 72.534135 160.728071 
L 74.16811 162.080893 
L 72.815289 163.714868 
" style="fill:none;opacity:0.5;stroke:#800080;stroke-linecap:round;stroke-width:2;"/>
   </g>
   <g id="patch_44">
    <path d="M 216.384496 30.043764 
Q 242.528188 30.043764 268.671879 30.043764 
" style="fill:none;opacity:0.5;stroke:#008000;stroke-linecap:round;stroke-width:2;"/>
   </g>
   <g id="patch_45">
    <path d="M 213.739899 30.332938 
Q 215.389688 30.152542 217.039477 29.972145 
" style="fill:none;opacity:0.5;stroke:#800080;stroke-linecap:round;stroke-width:2;"/>
    <path d="M 215.394058 31.661004 
L 213.739899 30.332938 
L 215.067965 28.67878 
" style="fill:none;opacity:0.5;stroke:#800080;stroke-linecap:round;stroke-width:2;"/>
    <path d="M 215.385318 28.644079 
L 217.039477 29.972145 
L 215.711411 31.626303 
" style="fill:none;opacity:0.5;stroke:#800080;stroke-linecap:round;stroke-width:2;"/>
   </g>
   <g id="patch_46">
    <path d="M 268.671879 30.043764 
Q 342.31608 96.301048 415.960282 162.558333 
" style="fill:none;opacity:0.5;stroke:#008000;stroke-linecap:round;stroke-width:2;"/>
   </g>
   <g id="patch_47">
    <path d="M 271.316476 30.332938 
Q 269.666687 30.152542 268.016898 29.972145 
" style="fill:none;opacity:0.5;stroke:#800080;stroke-linecap:round;stroke-width:2;"/>
    <path d="M 269.98841 28.67878 
L 271.316476 30.332938 
L 269.662317 31.661004 
" style="fill:none;opacity:0.5;stroke:#800080;stroke-linecap:round;stroke-width:2;"/>
    <path d="M 269.344964 31.626303 
L 268.016898 29.972145 
L 269.671057 28.644079 
" style="fill:none;opacity:0.5;stroke:#800080;stroke-linecap:round;stroke-width:2;"/>
   </g>
   <g id="patch_48">
    <path d="M 415.960282 162.558333 
Q 342.31608 230.498623 268.671879 298.438914 
" style="fill:none;opacity:0.5;stroke:#008000;stroke-linecap:round;stroke-width:2;"/>
   </g>
   <g id="patch_49">
    <path d="M 423.021376 163.223009 
Q 416.95482 162.651951 410.888265 162.080893 
" style="fill:none;opacity:0.5;stroke:#800080;stroke-linecap:round;stroke-width:2;"/>
    <path d="M 421.668554 161.589034 
L 423.021376 163.223009 
L 421.387401 164.57583 
" style="fill:none;opacity:0.5;stroke:#800080;stroke-linecap:round;stroke-width:2;"/>
    <path d="M 412.241086 163.714868 
L 410.888265 162.080893 
L 412.52224 160.728071 
" style="fill:none;opacity:0.5;stroke:#800080;stroke-linecap:round;stroke-width:2;"/>
   </g>
   <g id="patch_50">
    <path clip-path="url(#p6b0f0256d8)" d="M 356.6767 164.06418 
C 357.067313 164.06418 357.441981 163.989514 357.718186 163.856626 
C 357.994391 163.723738 358.149584 163.543478 358.149584 163.355546 
C 358.149584 163.167614 357.994391 162.987354 357.718186 162.854466 
C 357.441981 162.721578 357.067313 162.646912 356.6767 162.646912 
C 356.286086 162.646912 355.911419 162.721578 355.635213 162.854466 
C 355.359008 162.987354 355.203816 163.167614 355.203816 163.355546 
C 355.203816 163.543478 355.359008 163.723738 355.635213 163.856626 
C 355.911419 163.989514 356.286086 164.06418 356.6767 164.06418 
z
" style="fill:#ff0000;opacity:0.2;stroke:#ff0000;stroke-linejoin:miter;stroke-width:2;"/>
   </g>
   <g id="patch_51">
    <path clip-path="url(#p6b0f0256d8)" d="M 241.791745 268.587704 
C 242.182359 268.587704 242.557026 268.513038 242.833232 268.38015 
C 243.109437 268.247262 243.26463 268.067002 243.26463 267.87907 
C 243.26463 267.691138 243.109437 267.510878 242.833232 267.37799 
C 242.557026 267.245102 242.182359 267.170436 241.791745 267.170436 
C 241.401132 267.170436 241.026465 267.245102 240.750259 267.37799 
C 240.474054 267.510878 240.318861 267.691138 240.318861 267.87907 
C 240.318861 268.067002 240.474054 268.247262 240.750259 268.38015 
C 241.026465 268.513038 241.401132 268.587704 241.791745 268.587704 
z
" style="fill:#ff0000;opacity:0.2;stroke:#ff0000;stroke-linejoin:miter;stroke-width:2;"/>
   </g>
   <g id="patch_52">
    <path clip-path="url(#p6b0f0256d8)" d="M 128.379675 164.06418 
C 128.770289 164.06418 129.144956 163.989514 129.421162 163.856626 
C 129.697367 163.723738 129.852559 163.543478 129.852559 163.355546 
C 129.852559 163.167614 129.697367 162.987354 129.421162 162.854466 
C 129.144956 162.721578 128.770289 162.646912 128.379675 162.646912 
C 127.989062 162.646912 127.614394 162.721578 127.338189 162.854466 
C 127.061984 162.987354 126.906791 163.167614 126.906791 163.355546 
C 126.906791 163.543478 127.061984 163.723738 127.338189 163.856626 
C 127.614394 163.989514 127.989062 164.06418 128.379675 164.06418 
z
" style="fill:#ff0000;opacity:0.2;stroke:#ff0000;stroke-linejoin:miter;stroke-width:2;"/>
   </g>
   <g id="patch_53">
    <path clip-path="url(#p6b0f0256d8)" d="M 241.791745 62.72951 
C 242.182359 62.72951 242.557026 62.654844 242.833232 62.521956 
C 243.109437 62.389068 243.26463 62.208808 243.26463 62.020876 
C 243.26463 61.832944 243.109437 61.652684 242.833232 61.519796 
C 242.557026 61.386908 242.182359 61.312242 241.791745 61.312242 
C 241.401132 61.312242 241.026465 61.386908 240.750259 61.519796 
C 240.474054 61.652684 240.318861 61.832944 240.318861 62.020876 
C 240.318861 62.208808 240.474054 62.389068 240.750259 62.521956 
C 241.026465 62.654844 241.401132 62.72951 241.791745 62.72951 
z
" style="fill:#ff0000;opacity:0.2;stroke:#ff0000;stroke-linejoin:miter;stroke-width:2;"/>
   </g>
   <g id="patch_54">
    <path clip-path="url(#p6b0f0256d8)" d="M 363.304678 162.646912 
C 363.695291 162.646912 364.069959 162.572246 364.346164 162.439358 
C 364.622369 162.30647 364.777562 162.12621 364.777562 161.938278 
C 364.777562 161.750346 364.622369 161.570086 364.346164 161.437198 
C 364.069959 161.30431 363.695291 161.229644 363.304678 161.229644 
C 362.914064 161.229644 362.539397 161.30431 362.263192 161.437198 
C 361.986986 161.570086 361.831794 161.750346 361.831794 161.938278 
C 361.831794 162.12621 361.986986 162.30647 362.263192 162.439358 
C 362.539397 162.572246 362.914064 162.646912 363.304678 162.646912 
z
" style="fill:#0000ff;opacity:0.2;stroke:#0000ff;stroke-linejoin:miter;stroke-width:2;"/>
   </g>
   <g id="patch_55">
    <path clip-path="url(#p6b0f0256d8)" d="M 242.528188 278.862898 
C 242.918801 278.862898 243.293468 278.788232 243.569674 278.655344 
C 243.845879 278.522456 244.001072 278.342196 244.001072 278.154264 
C 244.001072 277.966332 243.845879 277.786072 243.569674 277.653184 
C 243.293468 277.520296 242.918801 277.44563 242.528188 277.44563 
C 242.137574 277.44563 241.762907 277.520296 241.486701 277.653184 
C 241.210496 277.786072 241.055303 277.966332 241.055303 278.154264 
C 241.055303 278.342196 241.210496 278.522456 241.486701 278.655344 
C 241.762907 278.788232 242.137574 278.862898 242.528188 278.862898 
z
" style="fill:#0000ff;opacity:0.2;stroke:#0000ff;stroke-linejoin:miter;stroke-width:2;"/>
   </g>
   <g id="patch_56">
    <path clip-path="url(#p6b0f0256d8)" d="M 121.751697 162.646912 
C 122.142311 162.646912 122.516978 162.572246 122.793183 162.439358 
C 123.069389 162.30647 123.224581 162.12621 123.224581 161.938278 
C 123.224581 161.750346 123.069389 161.570086 122.793183 161.437198 
C 122.516978 161.30431 122.142311 161.229644 121.751697 161.229644 
C 121.361084 161.229644 120.986416 161.30431 120.710211 161.437198 
C 120.434006 161.570086 120.278813 161.750346 120.278813 161.938278 
C 120.278813 162.12621 120.434006 162.30647 120.710211 162.439358 
C 120.986416 162.572246 121.361084 162.646912 121.751697 162.646912 
z
" style="fill:#0000ff;opacity:0.2;stroke:#0000ff;stroke-linejoin:miter;stroke-width:2;"/>
   </g>
   <g id="patch_57">
    <path clip-path="url(#p6b0f0256d8)" d="M 242.528188 49.61978 
C 242.918801 49.61978 243.293468 49.545114 243.569674 49.412226 
C 243.845879 49.279338 244.001072 49.099078 244.001072 48.911146 
C 244.001072 48.723214 243.845879 48.542954 243.569674 48.410066 
C 243.293468 48.277178 242.918801 48.202512 242.528188 48.202512 
C 242.137574 48.202512 241.762907 48.277178 241.486701 48.410066 
C 241.210496 48.542954 241.055303 48.723214 241.055303 48.911146 
C 241.055303 49.099078 241.210496 49.279338 241.486701 49.412226 
C 241.762907 49.545114 242.137574 49.61978 242.528188 49.61978 
z
" style="fill:#0000ff;opacity:0.2;stroke:#0000ff;stroke-linejoin:miter;stroke-width:2;"/>
   </g>
   <g id="patch_58">
    <path clip-path="url(#p6b0f0256d8)" d="M 356.6767 163.355546 
L 241.791745 267.87907 
L 128.379675 163.355546 
L 241.791745 62.020876 
L 356.6767 163.355546 
" style="fill:none;stroke:#ff0000;stroke-linejoin:miter;stroke-width:0.5;"/>
   </g>
   <g id="patch_59">
    <path clip-path="url(#p6b0f0256d8)" d="M 363.304678 161.938278 
L 242.528188 278.154264 
L 121.751697 161.938278 
L 242.528188 48.911146 
L 363.304678 161.938278 
" style="fill:none;stroke:#0000ff;stroke-linejoin:miter;stroke-width:0.5;"/>
   </g>
   <g id="[&quot;g_s&quot;:1,&quot;g_t&quot;:1,&quot;coords&quot;:[[497.0, -360.0],[506.0, -356.0]],&quot;certainty&quot;:11]">
    <path clip-path="url(#p6b0f0256d8)" d="M 356.6767 165.481448 
C 357.84854 165.481448 358.972542 165.25745 359.801159 164.858786 
C 360.629775 164.460122 361.095352 163.919342 361.095352 163.355546 
C 361.095352 162.79175 360.629775 162.25097 359.801159 161.852306 
C 358.972542 161.453642 357.84854 161.229644 356.6767 161.229644 
C 355.504859 161.229644 354.380857 161.453642 353.552241 161.852306 
C 352.723625 162.25097 352.258048 162.79175 352.258048 163.355546 
C 352.258048 163.919342 352.723625 164.460122 353.552241 164.858786 
C 354.380857 165.25745 355.504859 165.481448 356.6767 165.481448 
z
" style="fill:#0000ff;opacity:0.2;stroke:#0000ff;stroke-linejoin:miter;stroke-width:2;"/>
   </g>
   <g id="[&quot;g_s&quot;:1,&quot;g_t&quot;:1,&quot;coords&quot;:[[506.0, -356.0],[497.0, -360.0]],&quot;certainty&quot;:11]">
    <path clip-path="url(#p6b0f0256d8)" d="M 363.304678 164.06418 
C 364.476518 164.06418 365.60052 163.840182 366.429137 163.441518 
C 367.257753 163.042854 367.72333 162.502074 367.72333 161.938278 
C 367.72333 161.374482 367.257753 160.833702 366.429137 160.435038 
C 365.60052 160.036374 364.476518 159.812376 363.304678 159.812376 
C 362.132838 159.812376 361.008835 160.036374 360.180219 160.435038 
C 359.351603 160.833702 358.886026 161.374482 358.886026 161.938278 
C 358.886026 162.502074 359.351603 163.042854 360.180219 163.441518 
C 361.008835 163.840182 362.132838 164.06418 363.304678 164.06418 
z
" style="fill:#ff0000;opacity:0.2;stroke:#ff0000;stroke-linejoin:miter;stroke-width:2;"/>
   </g>
   <g id="patch_60">
    <path d="M 356.6767 163.355546 
Q 359.011703 162.85625 359.272281 162.80053 
" style="fill:none;opacity:0.5;stroke:#0000ff;stroke-linecap:round;stroke-width:3;"/>
    <path d="M 357.491784 161.647346 
L 359.272281 162.80053 
L 358.119097 164.581026 
" style="fill:none;opacity:0.5;stroke:#0000ff;stroke-linecap:round;stroke-width:3;"/>
   </g>
   <g id="[&quot;g_s&quot;:2,&quot;g_t&quot;:2,&quot;coords&quot;:[[341.0, -655.0],[342.0, -684.0]],&quot;certainty&quot;:10]">
    <path clip-path="url(#p6b0f0256d8)" d="M 241.791745 269.827814 
C 242.865932 269.827814 243.896268 269.622482 244.655833 269.25704 
C 245.415398 268.891598 245.842177 268.395883 245.842177 267.87907 
C 245.842177 267.362257 245.415398 266.866542 244.655833 266.5011 
C 243.896268 266.135658 242.865932 265.930326 241.791745 265.930326 
C 240.717559 265.930326 239.687223 266.135658 238.927658 266.5011 
C 238.168093 266.866542 237.741314 267.362257 237.741314 267.87907 
C 237.741314 268.395883 238.168093 268.891598 238.927658 269.25704 
C 239.687223 269.622482 240.717559 269.827814 241.791745 269.827814 
z
" style="fill:#0000ff;opacity:0.2;stroke:#0000ff;stroke-linejoin:miter;stroke-width:2;"/>
   </g>
   <g id="[&quot;g_s&quot;:2,&quot;g_t&quot;:2,&quot;coords&quot;:[[342.0, -684.0],[341.0, -655.0]],&quot;certainty&quot;:10]">
    <path clip-path="url(#p6b0f0256d8)" d="M 242.528188 280.103007 
C 243.602374 280.103007 244.63271 279.897676 245.392275 279.532234 
C 246.15184 279.166792 246.578619 278.671077 246.578619 278.154264 
C 246.578619 277.637451 246.15184 277.141736 245.392275 276.776294 
C 244.63271 276.410852 243.602374 276.20552 242.528188 276.20552 
C 241.454001 276.20552 240.423665 276.410852 239.6641 276.776294 
C 238.904535 277.141736 238.477756 277.637451 238.477756 278.154264 
C 238.477756 278.671077 238.904535 279.166792 239.6641 279.532234 
C 240.423665 279.897676 241.454001 280.103007 242.528188 280.103007 
z
" style="fill:#ff0000;opacity:0.2;stroke:#ff0000;stroke-linejoin:miter;stroke-width:2;"/>
   </g>
   <g id="patch_61">
    <path d="M 241.791745 267.87907 
Q 242.088498 272.019501 242.246238 274.220365 
" style="fill:none;opacity:0.5;stroke:#0000ff;stroke-linecap:round;stroke-width:2.75;"/>
    <path d="M 243.635167 272.61697 
L 242.246238 274.220365 
L 240.642843 272.831435 
" style="fill:none;opacity:0.5;stroke:#0000ff;stroke-linecap:round;stroke-width:2.75;"/>
   </g>
   <g id="[&quot;g_s&quot;:3,&quot;g_t&quot;:3,&quot;coords&quot;:[[187.0, -360.0],[178.0, -356.0]],&quot;certainty&quot;:12]">
    <path clip-path="url(#p6b0f0256d8)" d="M 128.379675 165.658607 
C 129.649169 165.658607 130.866838 165.415942 131.764506 164.984056 
C 132.662173 164.55217 133.166548 163.966325 133.166548 163.355546 
C 133.166548 162.744767 132.662173 162.158922 131.764506 161.727036 
C 130.866838 161.29515 129.649169 161.052485 128.379675 161.052485 
C 127.110182 161.052485 125.892512 161.29515 124.994845 161.727036 
C 124.097177 162.158922 123.592802 162.744767 123.592802 163.355546 
C 123.592802 163.966325 124.097177 164.55217 124.994845 164.984056 
C 125.892512 165.415942 127.110182 165.658607 128.379675 165.658607 
z
" style="fill:#0000ff;opacity:0.2;stroke:#0000ff;stroke-linejoin:miter;stroke-width:2;"/>
   </g>
   <g id="[&quot;g_s&quot;:3,&quot;g_t&quot;:3,&quot;coords&quot;:[[178.0, -356.0],[187.0, -360.0]],&quot;certainty&quot;:12]">
    <path clip-path="url(#p6b0f0256d8)" d="M 121.751697 164.241339 
C 123.021191 164.241339 124.23886 163.998674 125.136528 163.566788 
C 126.034195 163.134902 126.53857 162.549057 126.53857 161.938278 
C 126.53857 161.327499 126.034195 160.741654 125.136528 160.309768 
C 124.23886 159.877882 123.021191 159.635217 121.751697 159.635217 
C 120.482204 159.635217 119.264534 159.877882 118.366867 160.309768 
C 117.469199 160.741654 116.964824 161.327499 116.964824 161.938278 
C 116.964824 162.549057 117.469199 163.134902 118.366867 163.566788 
C 119.264534 163.998674 120.482204 164.241339 121.751697 164.241339 
z
" style="fill:#ff0000;opacity:0.2;stroke:#ff0000;stroke-linejoin:miter;stroke-width:2;"/>
   </g>
   <g id="patch_62">
    <path d="M 128.379675 163.355546 
Q 126.044672 162.85625 125.956963 162.837495 
" style="fill:none;opacity:0.5;stroke:#0000ff;stroke-linecap:round;stroke-width:3.25;"/>
    <path d="M 127.110147 164.617991 
L 125.956963 162.837495 
L 127.737459 161.684311 
" style="fill:none;opacity:0.5;stroke:#0000ff;stroke-linecap:round;stroke-width:3.25;"/>
   </g>
   <g id="[&quot;g_s&quot;:4,&quot;g_t&quot;:4,&quot;coords&quot;:[[341.0, -74.0],[342.0, -37.0]],&quot;certainty&quot;:11]">
    <path clip-path="url(#p6b0f0256d8)" d="M 241.791745 64.146778 
C 242.963586 64.146778 244.087588 63.922779 244.916204 63.524116 
C 245.744821 63.125452 246.210398 62.584672 246.210398 62.020876 
C 246.210398 61.45708 245.744821 60.9163 244.916204 60.517636 
C 244.087588 60.118972 242.963586 59.894974 241.791745 59.894974 
C 240.619905 59.894974 239.495903 60.118972 238.667287 60.517636 
C 237.83867 60.9163 237.373093 61.45708 237.373093 62.020876 
C 237.373093 62.584672 237.83867 63.125452 238.667287 63.524116 
C 239.495903 63.922779 240.619905 64.146778 241.791745 64.146778 
z
" style="fill:#0000ff;opacity:0.2;stroke:#0000ff;stroke-linejoin:miter;stroke-width:2;"/>
   </g>
   <g id="[&quot;g_s&quot;:4,&quot;g_t&quot;:4,&quot;coords&quot;:[[342.0, -37.0],[341.0, -74.0]],&quot;certainty&quot;:11]">
    <path clip-path="url(#p6b0f0256d8)" d="M 242.528188 51.037048 
C 243.700028 51.037048 244.82403 50.813049 245.652646 50.414385 
C 246.481263 50.015722 246.94684 49.474941 246.94684 48.911146 
C 246.94684 48.34735 246.481263 47.80657 245.652646 47.407906 
C 244.82403 47.009242 243.700028 46.785243 242.528188 46.785243 
C 241.356347 46.785243 240.232345 47.009242 239.403729 47.407906 
C 238.575112 47.80657 238.109535 48.34735 238.109535 48.911146 
C 238.109535 49.474941 238.575112 50.015722 239.403729 50.414385 
C 240.232345 50.813049 241.356347 51.037048 242.528188 51.037048 
z
" style="fill:#ff0000;opacity:0.2;stroke:#ff0000;stroke-linejoin:miter;stroke-width:2;"/>
   </g>
   <g id="patch_63">
    <path d="M 241.791745 62.020876 
Q 242.10396 56.463003 242.297197 53.023112 
" style="fill:none;opacity:0.5;stroke:#0000ff;stroke-linecap:round;stroke-width:3;"/>
    <path d="M 240.715428 54.43662 
L 242.297197 53.023112 
L 243.710706 54.604881 
" style="fill:none;opacity:0.5;stroke:#0000ff;stroke-linecap:round;stroke-width:3;"/>
   </g>
   <g id="[&quot;g_s&quot;:1,&quot;g_t&quot;:1,&quot;coords&quot;:[[506.0, -356.0],[497.0, -360.0]],&quot;certainty&quot;:11]">
    <path clip-path="url(#p6b0f0256d8)" d="M 363.304678 164.06418 
C 364.476518 164.06418 365.60052 163.840182 366.429137 163.441518 
C 367.257753 163.042854 367.72333 162.502074 367.72333 161.938278 
C 367.72333 161.374482 367.257753 160.833702 366.429137 160.435038 
C 365.60052 160.036374 364.476518 159.812376 363.304678 159.812376 
C 362.132838 159.812376 361.008835 160.036374 360.180219 160.435038 
C 359.351603 160.833702 358.886026 161.374482 358.886026 161.938278 
C 358.886026 162.502074 359.351603 163.042854 360.180219 163.441518 
C 361.008835 163.840182 362.132838 164.06418 363.304678 164.06418 
z
" style="fill:#0000ff;opacity:0.2;stroke:#0000ff;stroke-linejoin:miter;stroke-width:2;"/>
   </g>
   <g id="[&quot;g_s&quot;:1,&quot;g_t&quot;:1,&quot;coords&quot;:[[497.0, -360.0],[506.0, -356.0]],&quot;certainty&quot;:11]">
    <path clip-path="url(#p6b0f0256d8)" d="M 356.6767 165.481448 
C 357.84854 165.481448 358.972542 165.25745 359.801159 164.858786 
C 360.629775 164.460122 361.095352 163.919342 361.095352 163.355546 
C 361.095352 162.79175 360.629775 162.25097 359.801159 161.852306 
C 358.972542 161.453642 357.84854 161.229644 356.6767 161.229644 
C 355.504859 161.229644 354.380857 161.453642 353.552241 161.852306 
C 352.723625 162.25097 352.258048 162.79175 352.258048 163.355546 
C 352.258048 163.919342 352.723625 164.460122 353.552241 164.858786 
C 354.380857 165.25745 355.504859 165.481448 356.6767 165.481448 
z
" style="fill:#ff0000;opacity:0.2;stroke:#ff0000;stroke-linejoin:miter;stroke-width:2;"/>
   </g>
   <g id="patch_64">
    <path d="M 363.304678 161.938278 
Q 360.969675 162.437574 360.709097 162.493294 
" style="fill:none;opacity:0.5;stroke:#ff0000;stroke-linecap:round;stroke-width:3;"/>
    <path d="M 362.489593 163.646478 
L 360.709097 162.493294 
L 361.862281 160.712798 
" style="fill:none;opacity:0.5;stroke:#ff0000;stroke-linecap:round;stroke-width:3;"/>
   </g>
   <g id="[&quot;g_s&quot;:2,&quot;g_t&quot;:2,&quot;coords&quot;:[[342.0, -684.0],[341.0, -655.0]],&quot;certainty&quot;:10]">
    <path clip-path="url(#p6b0f0256d8)" d="M 242.528188 280.103007 
C 243.602374 280.103007 244.63271 279.897676 245.392275 279.532234 
C 246.15184 279.166792 246.578619 278.671077 246.578619 278.154264 
C 246.578619 277.637451 246.15184 277.141736 245.392275 276.776294 
C 244.63271 276.410852 243.602374 276.20552 242.528188 276.20552 
C 241.454001 276.20552 240.423665 276.410852 239.6641 276.776294 
C 238.904535 277.141736 238.477756 277.637451 238.477756 278.154264 
C 238.477756 278.671077 238.904535 279.166792 239.6641 279.532234 
C 240.423665 279.897676 241.454001 280.103007 242.528188 280.103007 
z
" style="fill:#0000ff;opacity:0.2;stroke:#0000ff;stroke-linejoin:miter;stroke-width:2;"/>
   </g>
   <g id="[&quot;g_s&quot;:2,&quot;g_t&quot;:2,&quot;coords&quot;:[[341.0, -655.0],[342.0, -684.0]],&quot;certainty&quot;:10]">
    <path clip-path="url(#p6b0f0256d8)" d="M 241.791745 269.827814 
C 242.865932 269.827814 243.896268 269.622482 244.655833 269.25704 
C 245.415398 268.891598 245.842177 268.395883 245.842177 267.87907 
C 245.842177 267.362257 245.415398 266.866542 244.655833 266.5011 
C 243.896268 266.135658 242.865932 265.930326 241.791745 265.930326 
C 240.717559 265.930326 239.687223 266.135658 238.927658 266.5011 
C 238.168093 266.866542 237.741314 267.362257 237.741314 267.87907 
C 237.741314 268.395883 238.168093 268.891598 238.927658 269.25704 
C 239.687223 269.622482 240.717559 269.827814 241.791745 269.827814 
z
" style="fill:#ff0000;opacity:0.2;stroke:#ff0000;stroke-linejoin:miter;stroke-width:2;"/>
   </g>
   <g id="patch_65">
    <path d="M 242.528188 278.154264 
Q 242.231435 274.013832 242.073695 271.812969 
" style="fill:none;opacity:0.5;stroke:#ff0000;stroke-linecap:round;stroke-width:2.75;"/>
    <path d="M 240.684766 273.416364 
L 242.073695 271.812969 
L 243.67709 273.201899 
" style="fill:none;opacity:0.5;stroke:#ff0000;stroke-linecap:round;stroke-width:2.75;"/>
   </g>
   <g id="[&quot;g_s&quot;:3,&quot;g_t&quot;:3,&quot;coords&quot;:[[178.0, -356.0],[187.0, -360.0]],&quot;certainty&quot;:12]">
    <path clip-path="url(#p6b0f0256d8)" d="M 121.751697 164.241339 
C 123.021191 164.241339 124.23886 163.998674 125.136528 163.566788 
C 126.034195 163.134902 126.53857 162.549057 126.53857 161.938278 
C 126.53857 161.327499 126.034195 160.741654 125.136528 160.309768 
C 124.23886 159.877882 123.021191 159.635217 121.751697 159.635217 
C 120.482204 159.635217 119.264534 159.877882 118.366867 160.309768 
C 117.469199 160.741654 116.964824 161.327499 116.964824 161.938278 
C 116.964824 162.549057 117.469199 163.134902 118.366867 163.566788 
C 119.264534 163.998674 120.482204 164.241339 121.751697 164.241339 
z
" style="fill:#0000ff;opacity:0.2;stroke:#0000ff;stroke-linejoin:miter;stroke-width:2;"/>
   </g>
   <g id="[&quot;g_s&quot;:3,&quot;g_t&quot;:3,&quot;coords&quot;:[[187.0, -360.0],[178.0, -356.0]],&quot;certainty&quot;:12]">
    <path clip-path="url(#p6b0f0256d8)" d="M 128.379675 165.658607 
C 129.649169 165.658607 130.866838 165.415942 131.764506 164.984056 
C 132.662173 164.55217 133.166548 163.966325 133.166548 163.355546 
C 133.166548 162.744767 132.662173 162.158922 131.764506 161.727036 
C 130.866838 161.29515 129.649169 161.052485 128.379675 161.052485 
C 127.110182 161.052485 125.892512 161.29515 124.994845 161.727036 
C 124.097177 162.158922 123.592802 162.744767 123.592802 163.355546 
C 123.592802 163.966325 124.097177 164.55217 124.994845 164.984056 
C 125.892512 165.415942 127.110182 165.658607 128.379675 165.658607 
z
" style="fill:#ff0000;opacity:0.2;stroke:#ff0000;stroke-linejoin:miter;stroke-width:2;"/>
   </g>
   <g id="patch_66">
    <path d="M 121.751697 161.938278 
Q 124.0867 162.437574 124.174409 162.456329 
" style="fill:none;opacity:0.5;stroke:#ff0000;stroke-linecap:round;stroke-width:3.25;"/>
    <path d="M 123.021225 160.675833 
L 124.174409 162.456329 
L 122.393913 163.609513 
" style="fill:none;opacity:0.5;stroke:#ff0000;stroke-linecap:round;stroke-width:3.25;"/>
   </g>
   <g id="[&quot;g_s&quot;:4,&quot;g_t&quot;:4,&quot;coords&quot;:[[342.0, -37.0],[341.0, -74.0]],&quot;certainty&quot;:11]">
    <path clip-path="url(#p6b0f0256d8)" d="M 242.528188 51.037048 
C 243.700028 51.037048 244.82403 50.813049 245.652646 50.414385 
C 246.481263 50.015722 246.94684 49.474941 246.94684 48.911146 
C 246.94684 48.34735 246.481263 47.80657 245.652646 47.407906 
C 244.82403 47.009242 243.700028 46.785243 242.528188 46.785243 
C 241.356347 46.785243 240.232345 47.009242 239.403729 47.407906 
C 238.575112 47.80657 238.109535 48.34735 238.109535 48.911146 
C 238.109535 49.474941 238.575112 50.015722 239.403729 50.414385 
C 240.232345 50.813049 241.356347 51.037048 242.528188 51.037048 
z
" style="fill:#0000ff;opacity:0.2;stroke:#0000ff;stroke-linejoin:miter;stroke-width:2;"/>
   </g>
   <g id="[&quot;g_s&quot;:4,&quot;g_t&quot;:4,&quot;coords&quot;:[[341.0, -74.0],[342.0, -37.0]],&quot;certainty&quot;:11]">
    <path clip-path="url(#p6b0f0256d8)" d="M 241.791745 64.146778 
C 242.963586 64.146778 244.087588 63.922779 244.916204 63.524116 
C 245.744821 63.125452 246.210398 62.584672 246.210398 62.020876 
C 246.210398 61.45708 245.744821 60.9163 244.916204 60.517636 
C 244.087588 60.118972 242.963586 59.894974 241.791745 59.894974 
C 240.619905 59.894974 239.495903 60.118972 238.667287 60.517636 
C 237.83867 60.9163 237.373093 61.45708 237.373093 62.020876 
C 237.373093 62.584672 237.83867 63.125452 238.667287 63.524116 
C 239.495903 63.922779 240.619905 64.146778 241.791745 64.146778 
z
" style="fill:#ff0000;opacity:0.2;stroke:#ff0000;stroke-linejoin:miter;stroke-width:2;"/>
   </g>
   <g id="patch_67">
    <path d="M 242.528188 48.911146 
Q 242.215973 54.469018 242.022736 57.90891 
" style="fill:none;opacity:0.5;stroke:#ff0000;stroke-linecap:round;stroke-width:3;"/>
    <path d="M 243.604505 56.495401 
L 242.022736 57.90891 
L 240.609227 56.327141 
" style="fill:none;opacity:0.5;stroke:#ff0000;stroke-linecap:round;stroke-width:3;"/>
   </g>
   <g id="patch_68">
    <path clip-path="url(#p6b0f0256d8)" d="M 359.990689 164.418497 
C 360.967222 164.418497 361.903891 164.231832 362.594404 163.899612 
C 363.284918 163.567392 363.672899 163.116742 363.672899 162.646912 
C 363.672899 162.177082 363.284918 161.726432 362.594404 161.394212 
C 361.903891 161.061992 360.967222 160.875327 359.990689 160.875327 
C 359.014155 160.875327 358.077487 161.061992 357.386973 161.394212 
C 356.69646 161.726432 356.308479 162.177082 356.308479 162.646912 
C 356.308479 163.116742 356.69646 163.567392 357.386973 163.899612 
C 358.077487 164.231832 359.014155 164.418497 359.990689 164.418497 
z
" style="fill:#008000;opacity:0.2;stroke:#008000;stroke-linejoin:miter;stroke-width:2;"/>
   </g>
   <g id="patch_69">
    <path clip-path="url(#p6b0f0256d8)" d="M 242.159966 274.788252 
C 243.1365 274.788252 244.073169 274.601587 244.763682 274.269367 
C 245.454196 273.937147 245.842177 273.486497 245.842177 273.016667 
C 245.842177 272.546837 245.454196 272.096187 244.763682 271.763967 
C 244.073169 271.431747 243.1365 271.245082 242.159966 271.245082 
C 241.183433 271.245082 240.246764 271.431747 239.556251 271.763967 
C 238.865737 272.096187 238.477756 272.546837 238.477756 273.016667 
C 238.477756 273.486497 238.865737 273.937147 239.556251 274.269367 
C 240.246764 274.601587 241.183433 274.788252 242.159966 274.788252 
z
" style="fill:#008000;opacity:0.2;stroke:#008000;stroke-linejoin:miter;stroke-width:2;"/>
   </g>
   <g id="patch_70">
    <path clip-path="url(#p6b0f0256d8)" d="M 125.065686 164.418497 
C 126.04222 164.418497 126.978888 164.231832 127.669402 163.899612 
C 128.359915 163.567392 128.747896 163.116742 128.747896 162.646912 
C 128.747896 162.177082 128.359915 161.726432 127.669402 161.394212 
C 126.978888 161.061992 126.04222 160.875327 125.065686 160.875327 
C 124.089153 160.875327 123.152484 161.061992 122.461971 161.394212 
C 121.771457 161.726432 121.383476 162.177082 121.383476 162.646912 
C 121.383476 163.116742 121.771457 163.567392 122.461971 163.899612 
C 123.152484 164.231832 124.089153 164.418497 125.065686 164.418497 
z
" style="fill:#008000;opacity:0.2;stroke:#008000;stroke-linejoin:miter;stroke-width:2;"/>
   </g>
   <g id="patch_71">
    <path clip-path="url(#p6b0f0256d8)" d="M 242.159966 57.237596 
C 243.1365 57.237596 244.073169 57.05093 244.763682 56.718711 
C 245.454196 56.386491 245.842177 55.935841 245.842177 55.466011 
C 245.842177 54.996181 245.454196 54.545531 244.763682 54.213311 
C 244.073169 53.881091 243.1365 53.694426 242.159966 53.694426 
C 241.183433 53.694426 240.246764 53.881091 239.556251 54.213311 
C 238.865737 54.545531 238.477756 54.996181 238.477756 55.466011 
C 238.477756 55.935841 238.865737 56.386491 239.556251 56.718711 
C 240.246764 57.05093 241.183433 57.237596 242.159966 57.237596 
z
" style="fill:#008000;opacity:0.2;stroke:#008000;stroke-linejoin:miter;stroke-width:2;"/>
   </g>
   <g id="patch_72">
    <path clip-path="url(#p6b0f0256d8)" d="M 356.6767 170.441887 
C 360.582834 170.441887 364.329509 169.695225 367.091563 168.366346 
C 369.853616 167.037466 371.40554 165.234866 371.40554 163.355546 
C 371.40554 161.476227 369.853616 159.673626 367.091563 158.344747 
C 364.329509 157.015867 360.582834 156.269206 356.6767 156.269206 
C 352.770566 156.269206 349.023891 157.015867 346.261837 158.344747 
C 343.499783 159.673626 341.947859 161.476227 341.947859 163.355546 
C 341.947859 165.234866 343.499783 167.037466 346.261837 168.366346 
C 349.023891 169.695225 352.770566 170.441887 356.6767 170.441887 
z
" style="fill:none;opacity:0.2;stroke:#ff0000;stroke-linejoin:miter;stroke-width:2;"/>
   </g>
   <g id="patch_73">
    <path clip-path="url(#p6b0f0256d8)" d="M 363.304678 169.024619 
C 367.210812 169.024619 370.957487 168.277957 373.719541 166.949078 
C 376.481595 165.620198 378.033518 163.817598 378.033518 161.938278 
C 378.033518 160.058959 376.481595 158.256358 373.719541 156.927479 
C 370.957487 155.598599 367.210812 154.851937 363.304678 154.851937 
C 359.398544 154.851937 355.651869 155.598599 352.889815 156.927479 
C 350.127761 158.256358 348.575838 160.058959 348.575838 161.938278 
C 348.575838 163.817598 350.127761 165.620198 352.889815 166.949078 
C 355.651869 168.277957 359.398544 169.024619 363.304678 169.024619 
z
" style="fill:none;opacity:0.2;stroke:#0000ff;stroke-linejoin:miter;stroke-width:2;"/>
   </g>
   <g id="patch_74">
    <path clip-path="url(#p6b0f0256d8)" d="M 356.6767 166.898716 
C 358.629767 166.898716 360.503104 166.525386 361.884131 165.860946 
C 363.265158 165.196506 364.04112 164.295206 364.04112 163.355546 
C 364.04112 162.415886 363.265158 161.514586 361.884131 160.850146 
C 360.503104 160.185707 358.629767 159.812376 356.6767 159.812376 
C 354.723633 159.812376 352.850295 160.185707 351.469268 160.850146 
C 350.088241 161.514586 349.31228 162.415886 349.31228 163.355546 
C 349.31228 164.295206 350.088241 165.196506 351.469268 165.860946 
C 352.850295 166.525386 354.723633 166.898716 356.6767 166.898716 
z
" style="fill:none;opacity:0.2;stroke:#008000;stroke-linejoin:miter;stroke-width:2;"/>
   </g>
   <g id="patch_75">
    <path clip-path="url(#p6b0f0256d8)" d="M 363.304678 165.481448 
C 365.257745 165.481448 367.131082 165.108118 368.512109 164.443678 
C 369.893136 163.779238 370.669098 162.877938 370.669098 161.938278 
C 370.669098 160.998618 369.893136 160.097318 368.512109 159.432878 
C 367.131082 158.768439 365.257745 158.395108 363.304678 158.395108 
C 361.351611 158.395108 359.478273 158.768439 358.097246 159.432878 
C 356.716219 160.097318 355.940258 160.998618 355.940258 161.938278 
C 355.940258 162.877938 356.716219 163.779238 358.097246 164.443678 
C 359.478273 165.108118 361.351611 165.481448 363.304678 165.481448 
z
" style="fill:none;opacity:0.2;stroke:#008000;stroke-linejoin:miter;stroke-width:2;"/>
   </g>
   <g id="patch_76">
    <path d="M 359.990689 162.646912 
Q 301.075328 217.831789 242.159966 273.016667 
" style="fill:none;opacity:0.5;stroke:#008000;stroke-linecap:round;stroke-width:2;"/>
   </g>
   <g id="patch_77">
    <path d="M 358.05965 163.059828 
Q 359.011703 162.85625 359.963756 162.652671 
" style="fill:none;opacity:0.5;stroke:#800080;stroke-linecap:round;stroke-width:2;"/>
    <path d="M 359.840146 164.213012 
L 358.05965 163.059828 
L 359.212834 161.279332 
" style="fill:none;opacity:0.5;stroke:#800080;stroke-linecap:round;stroke-width:2;"/>
    <path d="M 358.183259 161.499487 
L 359.963756 162.652671 
L 358.810572 164.433167 
" style="fill:none;opacity:0.5;stroke:#800080;stroke-linecap:round;stroke-width:2;"/>
   </g>
   <g id="patch_78">
    <path d="M 242.159966 273.016667 
Q 183.612826 217.831789 125.065686 162.646912 
" style="fill:none;opacity:0.5;stroke:#008000;stroke-linecap:round;stroke-width:2;"/>
   </g>
   <g id="patch_79">
    <path d="M 241.892845 269.289665 
Q 242.088498 272.019501 242.28415 274.749338 
" style="fill:none;opacity:0.5;stroke:#800080;stroke-linecap:round;stroke-width:2;"/>
    <path d="M 240.503916 270.89306 
L 241.892845 269.289665 
L 243.49624 270.678595 
" style="fill:none;opacity:0.5;stroke:#800080;stroke-linecap:round;stroke-width:2;"/>
    <path d="M 243.67308 273.145943 
L 242.28415 274.749338 
L 240.680755 273.360408 
" style="fill:none;opacity:0.5;stroke:#800080;stroke-linecap:round;stroke-width:2;"/>
   </g>
   <g id="patch_80">
    <path d="M 125.065686 162.646912 
Q 183.612826 109.056461 242.159966 55.466011 
" style="fill:none;opacity:0.5;stroke:#008000;stroke-linecap:round;stroke-width:2;"/>
   </g>
   <g id="patch_81">
    <path d="M 126.996725 163.059828 
Q 126.044672 162.85625 125.092619 162.652671 
" style="fill:none;opacity:0.5;stroke:#800080;stroke-linecap:round;stroke-width:2;"/>
    <path d="M 125.843541 161.279332 
L 126.996725 163.059828 
L 125.216229 164.213012 
" style="fill:none;opacity:0.5;stroke:#800080;stroke-linecap:round;stroke-width:2;"/>
    <path d="M 126.245803 164.433167 
L 125.092619 162.652671 
L 126.873116 161.499487 
" style="fill:none;opacity:0.5;stroke:#800080;stroke-linecap:round;stroke-width:2;"/>
   </g>
   <g id="patch_82">
    <path d="M 242.159966 55.466011 
Q 301.075328 109.056461 359.990689 162.646912 
" style="fill:none;opacity:0.5;stroke:#008000;stroke-linecap:round;stroke-width:2;"/>
   </g>
   <g id="patch_83">
    <path d="M 241.871064 60.608888 
Q 242.10396 56.463003 242.336856 52.317118 
" style="fill:none;opacity:0.5;stroke:#800080;stroke-linecap:round;stroke-width:2;"/>
    <path d="M 243.452833 59.19538 
L 241.871064 60.608888 
L 240.457556 59.027119 
" style="fill:none;opacity:0.5;stroke:#800080;stroke-linecap:round;stroke-width:2;"/>
    <path d="M 240.755087 53.730627 
L 242.336856 52.317118 
L 243.750365 53.898887 
" style="fill:none;opacity:0.5;stroke:#800080;stroke-linecap:round;stroke-width:2;"/>
   </g>
   <g id="line2d_1">
    <path clip-path="url(#p6b0f0256d8)" d="M 272.72231 299.767603 
L 212.334065 299.767603 
L 60.62701 163.355546 
L 212.334065 30.48666 
L 272.72231 30.48666 
L 424.429365 163.355546 
" style="fill:none;stroke:#ff0000;stroke-linecap:square;stroke-width:0.2;"/>
   </g>
   <g id="line2d_2">
    <path clip-path="url(#p6b0f0256d8)" d="M 264.621448 297.110225 
L 220.434927 297.110225 
L 77.565176 161.76112 
L 220.434927 29.600868 
L 264.621448 29.600868 
L 407.491199 161.76112 
" style="fill:none;stroke:#0000ff;stroke-linecap:square;stroke-width:0.2;"/>
   </g>
   <g id="line2d_3">
    <path clip-path="url(#p6b0f0256d8)" d="M 356.6767 163.355546 
L 241.791745 267.87907 
L 128.379675 163.355546 
L 241.791745 62.020876 
" style="fill:none;stroke:#ff0000;stroke-linecap:square;stroke-width:0.2;"/>
   </g>
   <g id="line2d_4">
    <path clip-path="url(#p6b0f0256d8)" d="M 363.304678 161.938278 
L 242.528188 278.154264 
L 121.751697 161.938278 
L 242.528188 48.911146 
" style="fill:none;stroke:#0000ff;stroke-linecap:square;stroke-width:0.2;"/>
   </g>
  </g>
 </g>
 <defs>
  <clipPath id="p6b0f0256d8">
   <rect height="307.51175" width="409.903625" x="37.576375" y="13.32"/>
  </clipPath>
 </defs>
</svg>
