<?xml version="1.0" encoding="utf-8" standalone="no"?>
<!DOCTYPE svg PUBLIC "-//W3C//DTD SVG 1.1//EN"
  "http://www.w3.org/Graphics/SVG/1.1/DTD/svg11.dtd">
<!-- Created with matplotlib (http://matplotlib.org/) -->
<svg height="345.6pt" version="1.1" viewBox="0 0 460.8 345.6" width="460.8pt" xmlns="http://www.w3.org/2000/svg" xmlns:xlink="http://www.w3.org/1999/xlink">
 <defs>
  <style type="text/css">
*{stroke-linecap:butt;stroke-linejoin:round;}
  </style>
 </defs>
 <g id="figure_1">
  <g id="patch_1">
   <path d="M 0 345.6 
L 460.8 345.6 
L 460.8 0 
L 0 0 
z
" style="fill:#ffffff;"/>
  </g>
  <g id="axes_1">
   <g id="patch_2">
    <path clip-path="url(#pbe72d02a92)" d="M 427.007821 294.54644 
C 427.495847 294.54644 427.96395 293.805414 428.309036 292.486564 
C 428.654122 291.167713 428.848017 289.378717 428.848017 287.513582 
C 428.848017 285.648446 428.654122 283.85945 428.309036 282.540599 
C 427.96395 281.221749 427.495847 280.480723 427.007821 280.480723 
C 426.519796 280.480723 426.051692 281.221749 425.706606 282.540599 
C 425.36152 283.85945 425.167625 285.648446 425.167625 287.513582 
C 425.167625 289.378717 425.36152 291.167713 425.706606 292.486564 
C 426.051692 293.805414 426.519796 294.54644 427.007821 294.54644 
z
" style="fill:#ff0000;opacity:0.2;stroke:#ff0000;stroke-linejoin:miter;stroke-width:2;"/>
   </g>
   <g id="patch_3">
    <path clip-path="url(#pbe72d02a92)" d="M 58.048554 294.54644 
C 58.536579 294.54644 59.004683 293.805414 59.349769 292.486564 
C 59.694855 291.167713 59.88875 289.378717 59.88875 287.513582 
C 59.88875 285.648446 59.694855 283.85945 59.349769 282.540599 
C 59.004683 281.221749 58.536579 280.480723 58.048554 280.480723 
C 57.560528 280.480723 57.092425 281.221749 56.747339 282.540599 
C 56.402253 283.85945 56.208358 285.648446 56.208358 287.513582 
C 56.208358 289.378717 56.402253 291.167713 56.747339 292.486564 
C 57.092425 293.805414 57.560528 294.54644 58.048554 294.54644 
z
" style="fill:#ff0000;opacity:0.2;stroke:#ff0000;stroke-linejoin:miter;stroke-width:2;"/>
   </g>
   <g id="patch_4">
    <path clip-path="url(#pbe72d02a92)" d="M 58.048554 41.363524 
C 58.536579 41.363524 59.004683 40.622498 59.349769 39.303648 
C 59.694855 37.984797 59.88875 36.195802 59.88875 34.330666 
C 59.88875 32.46553 59.694855 30.676534 59.349769 29.357683 
C 59.004683 28.038833 58.536579 27.297807 58.048554 27.297807 
C 57.560528 27.297807 57.092425 28.038833 56.747339 29.357683 
C 56.402253 30.676534 56.208358 32.46553 56.208358 34.330666 
C 56.208358 36.195802 56.402253 37.984797 56.747339 39.303648 
C 57.092425 40.622498 57.560528 41.363524 58.048554 41.363524 
z
" style="fill:#ff0000;opacity:0.2;stroke:#ff0000;stroke-linejoin:miter;stroke-width:2;"/>
   </g>
   <g id="patch_5">
    <path clip-path="url(#pbe72d02a92)" d="M 427.007821 41.363524 
C 427.495847 41.363524 427.96395 40.622498 428.309036 39.303648 
C 428.654122 37.984797 428.848017 36.195802 428.848017 34.330666 
C 428.848017 32.46553 428.654122 30.676534 428.309036 29.357683 
C 427.96395 28.038833 427.495847 27.297807 427.007821 27.297807 
C 426.519796 27.297807 426.051692 28.038833 425.706606 29.357683 
C 425.36152 30.676534 425.167625 32.46553 425.167625 34.330666 
C 425.167625 36.195802 425.36152 37.984797 425.706606 39.303648 
C 426.051692 40.622498 426.519796 41.363524 427.007821 41.363524 
z
" style="fill:#ff0000;opacity:0.2;stroke:#ff0000;stroke-linejoin:miter;stroke-width:2;"/>
   </g>
   <g id="patch_6">
    <path clip-path="url(#pbe72d02a92)" d="M 419.647038 134.548903 
C 420.135063 134.548903 420.603167 133.807877 420.948253 132.489027 
C 421.293339 131.170176 421.487234 129.38118 421.487234 127.516044 
C 421.487234 125.650908 421.293339 123.861913 420.948253 122.543062 
C 420.603167 121.224212 420.135063 120.483186 419.647038 120.483186 
C 419.159012 120.483186 418.690909 121.224212 418.345823 122.543062 
C 418.000737 123.861913 417.806842 125.650908 417.806842 127.516044 
C 417.806842 129.38118 418.000737 131.170176 418.345823 132.489027 
C 418.690909 133.807877 419.159012 134.548903 419.647038 134.548903 
z
" style="fill:#0000ff;opacity:0.2;stroke:#0000ff;stroke-linejoin:miter;stroke-width:2;"/>
   </g>
   <g id="patch_7">
    <path clip-path="url(#pbe72d02a92)" d="M 419.647038 306.853943 
C 420.135063 306.853943 420.603167 306.112917 420.948253 304.794067 
C 421.293339 303.475216 421.487234 301.68622 421.487234 299.821084 
C 421.487234 297.955948 421.293339 296.166953 420.948253 294.848102 
C 420.603167 293.529252 420.135063 292.788226 419.647038 292.788226 
C 419.159012 292.788226 418.690909 293.529252 418.345823 294.848102 
C 418.000737 296.166953 417.806842 297.955948 417.806842 299.821084 
C 417.806842 301.68622 418.000737 303.475216 418.345823 304.794067 
C 418.690909 306.112917 419.159012 306.853943 419.647038 306.853943 
z
" style="fill:#0000ff;opacity:0.2;stroke:#0000ff;stroke-linejoin:miter;stroke-width:2;"/>
   </g>
   <g id="patch_8">
    <path clip-path="url(#pbe72d02a92)" d="M 65.409337 306.853943 
C 65.897363 306.853943 66.365466 306.112917 66.710552 304.794067 
C 67.055638 303.475216 67.249533 301.68622 67.249533 299.821084 
C 67.249533 297.955948 67.055638 296.166953 66.710552 294.848102 
C 66.365466 293.529252 65.897363 292.788226 65.409337 292.788226 
C 64.921312 292.788226 64.453208 293.529252 64.108122 294.848102 
C 63.763036 296.166953 63.569141 297.955948 63.569141 299.821084 
C 63.569141 301.68622 63.763036 303.475216 64.108122 304.794067 
C 64.453208 306.112917 64.921312 306.853943 65.409337 306.853943 
z
" style="fill:#0000ff;opacity:0.2;stroke:#0000ff;stroke-linejoin:miter;stroke-width:2;"/>
   </g>
   <g id="patch_9">
    <path clip-path="url(#pbe72d02a92)" d="M 65.409337 134.548903 
C 65.897363 134.548903 66.365466 133.807877 66.710552 132.489027 
C 67.055638 131.170176 67.249533 129.38118 67.249533 127.516044 
C 67.249533 125.650908 67.055638 123.861913 66.710552 122.543062 
C 66.365466 121.224212 65.897363 120.483186 65.409337 120.483186 
C 64.921312 120.483186 64.453208 121.224212 64.108122 122.543062 
C 63.763036 123.861913 63.569141 125.650908 63.569141 127.516044 
C 63.569141 129.38118 63.763036 131.170176 64.108122 132.489027 
C 64.453208 133.807877 64.921312 134.548903 65.409337 134.548903 
z
" style="fill:#0000ff;opacity:0.2;stroke:#0000ff;stroke-linejoin:miter;stroke-width:2;"/>
   </g>
   <g id="patch_10">
    <path clip-path="url(#pbe72d02a92)" d="M 427.007821 287.513582 
L 58.048554 287.513582 
L 58.048554 34.330666 
L 427.007821 34.330666 
L 427.007821 287.513582 
" style="fill:none;stroke:#ff0000;stroke-linejoin:miter;stroke-width:0.5;"/>
   </g>
   <g id="patch_11">
    <path clip-path="url(#pbe72d02a92)" d="M 419.647038 127.516044 
L 419.647038 299.821084 
L 65.409337 299.821084 
L 65.409337 127.516044 
L 419.647038 127.516044 
" style="fill:none;stroke:#0000ff;stroke-linejoin:miter;stroke-width:0.5;"/>
   </g>
   <g id="[&quot;g_s&quot;:1,&quot;g_t&quot;:2,&quot;coords&quot;:[[511.0, -523.0],[503.0, -526.5]],&quot;certainty&quot;:10]">
    <path clip-path="url(#pbe72d02a92)" d="M 427.007821 306.853943 
C 428.349892 306.853943 429.637175 304.816121 430.586162 301.189282 
C 431.53515 297.562444 432.06836 292.642705 432.06836 287.513582 
C 432.06836 282.384458 431.53515 277.464719 430.586162 273.837881 
C 429.637175 270.211042 428.349892 268.17322 427.007821 268.17322 
C 425.665751 268.17322 424.378467 270.211042 423.42948 273.837881 
C 422.480493 277.464719 421.947283 282.384458 421.947283 287.513582 
C 421.947283 292.642705 422.480493 297.562444 423.42948 301.189282 
C 424.378467 304.816121 425.665751 306.853943 427.007821 306.853943 
z
" style="fill:#0000ff;opacity:0.2;stroke:#0000ff;stroke-linejoin:miter;stroke-width:2;"/>
   </g>
   <g id="[&quot;g_s&quot;:2,&quot;g_t&quot;:1,&quot;coords&quot;:[[503.0, -526.5],[511.0, -523.0]],&quot;certainty&quot;:10]">
    <path clip-path="url(#pbe72d02a92)" d="M 419.647038 319.161446 
C 420.989108 319.161446 422.276392 317.123624 423.225379 313.496785 
C 424.174366 309.869947 424.707576 304.950208 424.707576 299.821084 
C 424.707576 294.691961 424.174366 289.772222 423.225379 286.145384 
C 422.276392 282.518545 420.989108 280.480723 419.647038 280.480723 
C 418.304967 280.480723 417.017684 282.518545 416.068697 286.145384 
C 415.119709 289.772222 414.586499 294.691961 414.586499 299.821084 
C 414.586499 304.950208 415.119709 309.869947 416.068697 313.496785 
C 417.017684 317.123624 418.304967 319.161446 419.647038 319.161446 
z
" style="fill:#ff0000;opacity:0.2;stroke:#ff0000;stroke-linejoin:miter;stroke-width:2;"/>
   </g>
   <g id="patch_12">
    <path d="M 427.007821 287.513582 
Q 423.840492 292.809474 421.671256 296.436516 
" style="fill:none;opacity:0.5;stroke:#0000ff;stroke-linecap:round;stroke-width:2.75;"/>
    <path d="M 423.728508 295.919102 
L 421.671256 296.436516 
L 421.153842 294.379265 
" style="fill:none;opacity:0.5;stroke:#0000ff;stroke-linecap:round;stroke-width:2.75;"/>
   </g>
   <g id="[&quot;g_s&quot;:2,&quot;g_t&quot;:3,&quot;coords&quot;:[[110.0, -523.0],[118.0, -526.5]],&quot;certainty&quot;:11]">
    <path clip-path="url(#pbe72d02a92)" d="M 58.048554 308.612158 
C 59.512631 308.612158 60.91694 306.389079 61.952199 302.432528 
C 62.987457 298.475977 63.569141 293.108989 63.569141 287.513582 
C 63.569141 281.918174 62.987457 276.551186 61.952199 272.594635 
C 60.91694 268.638084 59.512631 266.415005 58.048554 266.415005 
C 56.584477 266.415005 55.180168 268.638084 54.144909 272.594635 
C 53.10965 276.551186 52.527966 281.918174 52.527966 287.513582 
C 52.527966 293.108989 53.10965 298.475977 54.144909 302.432528 
C 55.180168 306.389079 56.584477 308.612158 58.048554 308.612158 
z
" style="fill:#0000ff;opacity:0.2;stroke:#0000ff;stroke-linejoin:miter;stroke-width:2;"/>
   </g>
   <g id="[&quot;g_s&quot;:3,&quot;g_t&quot;:2,&quot;coords&quot;:[[118.0, -526.5],[110.0, -523.0]],&quot;certainty&quot;:11]">
    <path clip-path="url(#pbe72d02a92)" d="M 65.409337 320.919661 
C 66.873414 320.919661 68.277723 318.696582 69.312982 314.740031 
C 70.348241 310.78348 70.929925 305.416492 70.929925 299.821084 
C 70.929925 294.225677 70.348241 288.858689 69.312982 284.902138 
C 68.277723 280.945587 66.873414 278.722508 65.409337 278.722508 
C 63.94526 278.722508 62.540951 280.945587 61.505692 284.902138 
C 60.470434 288.858689 59.88875 294.225677 59.88875 299.821084 
C 59.88875 305.416492 60.470434 310.78348 61.505692 314.740031 
C 62.540951 318.696582 63.94526 320.919661 65.409337 320.919661 
z
" style="fill:#ff0000;opacity:0.2;stroke:#ff0000;stroke-linejoin:miter;stroke-width:2;"/>
   </g>
   <g id="patch_13">
    <path d="M 58.048554 287.513582 
Q 61.215883 292.809474 63.294383 296.284802 
" style="fill:none;opacity:0.5;stroke:#0000ff;stroke-linecap:round;stroke-width:3;"/>
    <path d="M 63.811797 294.227551 
L 63.294383 296.284802 
L 61.237132 295.767388 
" style="fill:none;opacity:0.5;stroke:#0000ff;stroke-linecap:round;stroke-width:3;"/>
   </g>
   <g id="[&quot;g_s&quot;:3,&quot;g_t&quot;:4,&quot;coords&quot;:[[110.0, -451.0],[118.0, -477.5]],&quot;certainty&quot;:11]">
    <path clip-path="url(#pbe72d02a92)" d="M 58.048554 55.429242 
C 59.512631 55.429242 60.91694 53.206163 61.952199 49.249612 
C 62.987457 45.293061 63.569141 39.926073 63.569141 34.330666 
C 63.569141 28.735258 62.987457 23.36827 61.952199 19.411719 
C 60.91694 15.455168 59.512631 13.232089 58.048554 13.232089 
C 56.584477 13.232089 55.180168 15.455168 54.144909 19.411719 
C 53.10965 23.36827 52.527966 28.735258 52.527966 34.330666 
C 52.527966 39.926073 53.10965 45.293061 54.144909 49.249612 
C 55.180168 53.206163 56.584477 55.429242 58.048554 55.429242 
z
" style="fill:#0000ff;opacity:0.2;stroke:#0000ff;stroke-linejoin:miter;stroke-width:2;"/>
   </g>
   <g id="[&quot;g_s&quot;:4,&quot;g_t&quot;:3,&quot;coords&quot;:[[118.0, -477.5],[110.0, -451.0]],&quot;certainty&quot;:11]">
    <path clip-path="url(#pbe72d02a92)" d="M 65.409337 148.614621 
C 66.873414 148.614621 68.277723 146.391542 69.312982 142.434991 
C 70.348241 138.47844 70.929925 133.111452 70.929925 127.516044 
C 70.929925 121.920637 70.348241 116.553649 69.312982 112.597098 
C 68.277723 108.640547 66.873414 106.417468 65.409337 106.417468 
C 63.94526 106.417468 62.540951 108.640547 61.505692 112.597098 
C 60.470434 116.553649 59.88875 121.920637 59.88875 127.516044 
C 59.88875 133.111452 60.470434 138.47844 61.505692 142.434991 
C 62.540951 146.391542 63.94526 148.614621 65.409337 148.614621 
z
" style="fill:#ff0000;opacity:0.2;stroke:#ff0000;stroke-linejoin:miter;stroke-width:2;"/>
   </g>
   <g id="patch_14">
    <path d="M 58.048554 34.330666 
Q 61.650212 79.926606 65.084825 123.407813 
" style="fill:none;opacity:0.5;stroke:#0000ff;stroke-linecap:round;stroke-width:3;"/>
    <path d="M 66.462049 121.794353 
L 65.084825 123.407813 
L 63.471365 122.030589 
" style="fill:none;opacity:0.5;stroke:#0000ff;stroke-linecap:round;stroke-width:3;"/>
   </g>
   <g id="[&quot;g_s&quot;:4,&quot;g_t&quot;:1,&quot;coords&quot;:[[511.0, -451.0],[503.0, -477.5]],&quot;certainty&quot;:12]">
    <path clip-path="url(#pbe72d02a92)" d="M 427.007821 57.187457 
C 428.593905 57.187457 430.11524 54.779121 431.23677 50.492858 
C 432.3583 46.206594 432.988458 40.392357 432.988458 34.330666 
C 432.988458 28.268974 432.3583 22.454737 431.23677 18.168474 
C 430.11524 13.88221 428.593905 11.473875 427.007821 11.473875 
C 425.421738 11.473875 423.900403 13.88221 422.778873 18.168474 
C 421.657342 22.454737 421.027185 28.268974 421.027185 34.330666 
C 421.027185 40.392357 421.657342 46.206594 422.778873 50.492858 
C 423.900403 54.779121 425.421738 57.187457 427.007821 57.187457 
z
" style="fill:#0000ff;opacity:0.2;stroke:#0000ff;stroke-linejoin:miter;stroke-width:2;"/>
   </g>
   <g id="[&quot;g_s&quot;:1,&quot;g_t&quot;:4,&quot;coords&quot;:[[503.0, -477.5],[511.0, -451.0]],&quot;certainty&quot;:12]">
    <path clip-path="url(#pbe72d02a92)" d="M 419.647038 150.372835 
C 421.233121 150.372835 422.754456 147.9645 423.875986 143.678236 
C 424.997517 139.391973 425.627674 133.577736 425.627674 127.516044 
C 425.627674 121.454353 424.997517 115.640116 423.875986 111.353852 
C 422.754456 107.067589 421.233121 104.659253 419.647038 104.659253 
C 418.060954 104.659253 416.539619 107.067589 415.418089 111.353852 
C 414.296559 115.640116 413.666401 121.454353 413.666401 127.516044 
C 413.666401 133.577736 414.296559 139.391973 415.418089 143.678236 
C 416.539619 147.9645 418.060954 150.372835 419.647038 150.372835 
z
" style="fill:#ff0000;opacity:0.2;stroke:#ff0000;stroke-linejoin:miter;stroke-width:2;"/>
   </g>
   <g id="patch_15">
    <path d="M 427.007821 34.330666 
Q 423.406163 79.926606 419.98547 123.231585 
" style="fill:none;opacity:0.5;stroke:#0000ff;stroke-linecap:round;stroke-width:3.25;"/>
    <path d="M 421.598931 121.854361 
L 419.98547 123.231585 
L 418.608247 121.618125 
" style="fill:none;opacity:0.5;stroke:#0000ff;stroke-linecap:round;stroke-width:3.25;"/>
   </g>
   <g id="[&quot;g_s&quot;:1,&quot;g_t&quot;:4,&quot;coords&quot;:[[503.0, -477.5],[511.0, -451.0]],&quot;certainty&quot;:10]">
    <path clip-path="url(#pbe72d02a92)" d="M 419.647038 146.856406 
C 420.989108 146.856406 422.276392 144.818584 423.225379 141.191745 
C 424.174366 137.564907 424.707576 132.645168 424.707576 127.516044 
C 424.707576 122.386921 424.174366 117.467182 423.225379 113.840344 
C 422.276392 110.213505 420.989108 108.175683 419.647038 108.175683 
C 418.304967 108.175683 417.017684 110.213505 416.068697 113.840344 
C 415.119709 117.467182 414.586499 122.386921 414.586499 127.516044 
C 414.586499 132.645168 415.119709 137.564907 416.068697 141.191745 
C 417.017684 144.818584 418.304967 146.856406 419.647038 146.856406 
z
" style="fill:#0000ff;opacity:0.2;stroke:#0000ff;stroke-linejoin:miter;stroke-width:2;"/>
   </g>
   <g id="[&quot;g_s&quot;:4,&quot;g_t&quot;:1,&quot;coords&quot;:[[511.0, -451.0],[503.0, -477.5]],&quot;certainty&quot;:10]">
    <path clip-path="url(#pbe72d02a92)" d="M 427.007821 53.671027 
C 428.349892 53.671027 429.637175 51.633205 430.586162 48.006366 
C 431.53515 44.379528 432.06836 39.459789 432.06836 34.330666 
C 432.06836 29.201542 431.53515 24.281803 430.586162 20.654965 
C 429.637175 17.028126 428.349892 14.990304 427.007821 14.990304 
C 425.665751 14.990304 424.378467 17.028126 423.42948 20.654965 
C 422.480493 24.281803 421.947283 29.201542 421.947283 34.330666 
C 421.947283 39.459789 422.480493 44.379528 423.42948 48.006366 
C 424.378467 51.633205 425.665751 53.671027 427.007821 53.671027 
z
" style="fill:#ff0000;opacity:0.2;stroke:#ff0000;stroke-linejoin:miter;stroke-width:2;"/>
   </g>
   <g id="patch_16">
    <path d="M 419.647038 127.516044 
Q 423.248696 81.920104 426.697229 38.262669 
" style="fill:none;opacity:0.5;stroke:#ff0000;stroke-linecap:round;stroke-width:2.75;"/>
    <path d="M 425.083769 39.639893 
L 426.697229 38.262669 
L 428.074453 39.87613 
" style="fill:none;opacity:0.5;stroke:#ff0000;stroke-linecap:round;stroke-width:2.75;"/>
   </g>
   <g id="[&quot;g_s&quot;:2,&quot;g_t&quot;:1,&quot;coords&quot;:[[503.0, -526.5],[511.0, -523.0]],&quot;certainty&quot;:11]">
    <path clip-path="url(#pbe72d02a92)" d="M 419.647038 320.919661 
C 421.111115 320.919661 422.515424 318.696582 423.550683 314.740031 
C 424.585941 310.78348 425.167625 305.416492 425.167625 299.821084 
C 425.167625 294.225677 424.585941 288.858689 423.550683 284.902138 
C 422.515424 280.945587 421.111115 278.722508 419.647038 278.722508 
C 418.182961 278.722508 416.778652 280.945587 415.743393 284.902138 
C 414.708134 288.858689 414.12645 294.225677 414.12645 299.821084 
C 414.12645 305.416492 414.708134 310.78348 415.743393 314.740031 
C 416.778652 318.696582 418.182961 320.919661 419.647038 320.919661 
z
" style="fill:#0000ff;opacity:0.2;stroke:#0000ff;stroke-linejoin:miter;stroke-width:2;"/>
   </g>
   <g id="[&quot;g_s&quot;:1,&quot;g_t&quot;:2,&quot;coords&quot;:[[511.0, -523.0],[503.0, -526.5]],&quot;certainty&quot;:11]">
    <path clip-path="url(#pbe72d02a92)" d="M 427.007821 308.612158 
C 428.471898 308.612158 429.876207 306.389079 430.911466 302.432528 
C 431.946725 298.475977 432.528409 293.108989 432.528409 287.513582 
C 432.528409 281.918174 431.946725 276.551186 430.911466 272.594635 
C 429.876207 268.638084 428.471898 266.415005 427.007821 266.415005 
C 425.543744 266.415005 424.139435 268.638084 423.104176 272.594635 
C 422.068918 276.551186 421.487234 281.918174 421.487234 287.513582 
C 421.487234 293.108989 422.068918 298.475977 423.104176 302.432528 
C 424.139435 306.389079 425.543744 308.612158 427.007821 308.612158 
z
" style="fill:#ff0000;opacity:0.2;stroke:#ff0000;stroke-linejoin:miter;stroke-width:2;"/>
   </g>
   <g id="patch_17">
    <path d="M 419.647038 299.821084 
Q 422.814367 294.525192 424.892867 291.049864 
" style="fill:none;opacity:0.5;stroke:#ff0000;stroke-linecap:round;stroke-width:3;"/>
    <path d="M 422.835616 291.567277 
L 424.892867 291.049864 
L 425.410281 293.107115 
" style="fill:none;opacity:0.5;stroke:#ff0000;stroke-linecap:round;stroke-width:3;"/>
   </g>
   <g id="[&quot;g_s&quot;:3,&quot;g_t&quot;:2,&quot;coords&quot;:[[118.0, -526.5],[110.0, -523.0]],&quot;certainty&quot;:11]">
    <path clip-path="url(#pbe72d02a92)" d="M 65.409337 320.919661 
C 66.873414 320.919661 68.277723 318.696582 69.312982 314.740031 
C 70.348241 310.78348 70.929925 305.416492 70.929925 299.821084 
C 70.929925 294.225677 70.348241 288.858689 69.312982 284.902138 
C 68.277723 280.945587 66.873414 278.722508 65.409337 278.722508 
C 63.94526 278.722508 62.540951 280.945587 61.505692 284.902138 
C 60.470434 288.858689 59.88875 294.225677 59.88875 299.821084 
C 59.88875 305.416492 60.470434 310.78348 61.505692 314.740031 
C 62.540951 318.696582 63.94526 320.919661 65.409337 320.919661 
z
" style="fill:#0000ff;opacity:0.2;stroke:#0000ff;stroke-linejoin:miter;stroke-width:2;"/>
   </g>
   <g id="[&quot;g_s&quot;:2,&quot;g_t&quot;:3,&quot;coords&quot;:[[110.0, -523.0],[118.0, -526.5]],&quot;certainty&quot;:11]">
    <path clip-path="url(#pbe72d02a92)" d="M 58.048554 308.612158 
C 59.512631 308.612158 60.91694 306.389079 61.952199 302.432528 
C 62.987457 298.475977 63.569141 293.108989 63.569141 287.513582 
C 63.569141 281.918174 62.987457 276.551186 61.952199 272.594635 
C 60.91694 268.638084 59.512631 266.415005 58.048554 266.415005 
C 56.584477 266.415005 55.180168 268.638084 54.144909 272.594635 
C 53.10965 276.551186 52.527966 281.918174 52.527966 287.513582 
C 52.527966 293.108989 53.10965 298.475977 54.144909 302.432528 
C 55.180168 306.389079 56.584477 308.612158 58.048554 308.612158 
z
" style="fill:#ff0000;opacity:0.2;stroke:#ff0000;stroke-linejoin:miter;stroke-width:2;"/>
   </g>
   <g id="patch_18">
    <path d="M 65.409337 299.821084 
Q 62.242008 294.525192 60.163508 291.049864 
" style="fill:none;opacity:0.5;stroke:#ff0000;stroke-linecap:round;stroke-width:3;"/>
    <path d="M 59.646094 293.107115 
L 60.163508 291.049864 
L 62.220759 291.567277 
" style="fill:none;opacity:0.5;stroke:#ff0000;stroke-linecap:round;stroke-width:3;"/>
   </g>
   <g id="[&quot;g_s&quot;:4,&quot;g_t&quot;:3,&quot;coords&quot;:[[118.0, -477.5],[110.0, -451.0]],&quot;certainty&quot;:12]">
    <path clip-path="url(#pbe72d02a92)" d="M 65.409337 150.372835 
C 66.995421 150.372835 68.516756 147.9645 69.638286 143.678236 
C 70.759816 139.391973 71.389974 133.577736 71.389974 127.516044 
C 71.389974 121.454353 70.759816 115.640116 69.638286 111.353852 
C 68.516756 107.067589 66.995421 104.659253 65.409337 104.659253 
C 63.823254 104.659253 62.301919 107.067589 61.180389 111.353852 
C 60.058858 115.640116 59.428701 121.454353 59.428701 127.516044 
C 59.428701 133.577736 60.058858 139.391973 61.180389 143.678236 
C 62.301919 147.9645 63.823254 150.372835 65.409337 150.372835 
z
" style="fill:#0000ff;opacity:0.2;stroke:#0000ff;stroke-linejoin:miter;stroke-width:2;"/>
   </g>
   <g id="[&quot;g_s&quot;:3,&quot;g_t&quot;:4,&quot;coords&quot;:[[110.0, -451.0],[118.0, -477.5]],&quot;certainty&quot;:12]">
    <path clip-path="url(#pbe72d02a92)" d="M 58.048554 57.187457 
C 59.634637 57.187457 61.155972 54.779121 62.277502 50.492858 
C 63.399033 46.206594 64.02919 40.392357 64.02919 34.330666 
C 64.02919 28.268974 63.399033 22.454737 62.277502 18.168474 
C 61.155972 13.88221 59.634637 11.473875 58.048554 11.473875 
C 56.46247 11.473875 54.941135 13.88221 53.819605 18.168474 
C 52.698075 22.454737 52.067917 28.268974 52.067917 34.330666 
C 52.067917 40.392357 52.698075 46.206594 53.819605 50.492858 
C 54.941135 54.779121 56.46247 57.187457 58.048554 57.187457 
z
" style="fill:#ff0000;opacity:0.2;stroke:#ff0000;stroke-linejoin:miter;stroke-width:2;"/>
   </g>
   <g id="patch_19">
    <path d="M 65.409337 127.516044 
Q 61.807679 81.920104 58.386986 38.615125 
" style="fill:none;opacity:0.5;stroke:#ff0000;stroke-linecap:round;stroke-width:3.25;"/>
    <path d="M 57.009763 40.228585 
L 58.386986 38.615125 
L 60.000447 39.992349 
" style="fill:none;opacity:0.5;stroke:#ff0000;stroke-linecap:round;stroke-width:3.25;"/>
   </g>
   <g id="patch_20">
    <path clip-path="url(#pbe72d02a92)" d="M 423.32743 311.24948 
C 424.547494 311.24948 425.717751 309.396914 426.580467 306.099788 
C 427.443183 302.802663 427.927919 298.330173 427.927919 293.667333 
C 427.927919 289.004493 427.443183 284.532003 426.580467 281.234878 
C 425.717751 277.937752 424.547494 276.085186 423.32743 276.085186 
C 422.107365 276.085186 420.937108 277.937752 420.074392 281.234878 
C 419.211676 284.532003 418.72694 289.004493 418.72694 293.667333 
C 418.72694 298.330173 419.211676 302.802663 420.074392 306.099788 
C 420.937108 309.396914 422.107365 311.24948 423.32743 311.24948 
z
" style="fill:#008000;opacity:0.2;stroke:#008000;stroke-linejoin:miter;stroke-width:2;"/>
   </g>
   <g id="patch_21">
    <path clip-path="url(#pbe72d02a92)" d="M 61.728945 311.24948 
C 62.94901 311.24948 64.119267 309.396914 64.981983 306.099788 
C 65.844699 302.802663 66.329435 298.330173 66.329435 293.667333 
C 66.329435 289.004493 65.844699 284.532003 64.981983 281.234878 
C 64.119267 277.937752 62.94901 276.085186 61.728945 276.085186 
C 60.508881 276.085186 59.338624 277.937752 58.475908 281.234878 
C 57.613192 284.532003 57.128456 289.004493 57.128456 293.667333 
C 57.128456 298.330173 57.613192 302.802663 58.475908 306.099788 
C 59.338624 309.396914 60.508881 311.24948 61.728945 311.24948 
z
" style="fill:#008000;opacity:0.2;stroke:#008000;stroke-linejoin:miter;stroke-width:2;"/>
   </g>
   <g id="patch_22">
    <path clip-path="url(#pbe72d02a92)" d="M 61.728945 98.505502 
C 62.94901 98.505502 64.119267 96.652936 64.981983 93.35581 
C 65.844699 90.058685 66.329435 85.586195 66.329435 80.923355 
C 66.329435 76.260515 65.844699 71.788025 64.981983 68.4909 
C 64.119267 65.193774 62.94901 63.341208 61.728945 63.341208 
C 60.508881 63.341208 59.338624 65.193774 58.475908 68.4909 
C 57.613192 71.788025 57.128456 76.260515 57.128456 80.923355 
C 57.128456 85.586195 57.613192 90.058685 58.475908 93.35581 
C 59.338624 96.652936 60.508881 98.505502 61.728945 98.505502 
z
" style="fill:#008000;opacity:0.2;stroke:#008000;stroke-linejoin:miter;stroke-width:2;"/>
   </g>
   <g id="patch_23">
    <path clip-path="url(#pbe72d02a92)" d="M 423.32743 98.505502 
C 424.547494 98.505502 425.717751 96.652936 426.580467 93.35581 
C 427.443183 90.058685 427.927919 85.586195 427.927919 80.923355 
C 427.927919 76.260515 427.443183 71.788025 426.580467 68.4909 
C 425.717751 65.193774 424.547494 63.341208 423.32743 63.341208 
C 422.107365 63.341208 420.937108 65.193774 420.074392 68.4909 
C 419.211676 71.788025 418.72694 76.260515 418.72694 80.923355 
C 418.72694 85.586195 419.211676 90.058685 420.074392 93.35581 
C 420.937108 96.652936 422.107365 98.505502 423.32743 98.505502 
z
" style="fill:#008000;opacity:0.2;stroke:#008000;stroke-linejoin:miter;stroke-width:2;"/>
   </g>
   <g id="patch_24">
    <path clip-path="url(#pbe72d02a92)" d="M 427.007821 357.842169 
C 431.888078 357.842169 436.569108 350.431906 440.019971 337.243403 
C 443.470833 324.0549 445.40978 306.164941 445.40978 287.513582 
C 445.40978 268.862222 443.470833 250.972263 440.019971 237.78376 
C 436.569108 224.595257 431.888078 217.184994 427.007821 217.184994 
C 422.127565 217.184994 417.446534 224.595257 413.995672 237.78376 
C 410.544809 250.972263 408.605863 268.862222 408.605863 287.513582 
C 408.605863 306.164941 410.544809 324.0549 413.995672 337.243403 
C 417.446534 350.431906 422.127565 357.842169 427.007821 357.842169 
z
" style="fill:none;opacity:0.2;stroke:#ff0000;stroke-linejoin:miter;stroke-width:2;"/>
   </g>
   <g id="patch_25">
    <path clip-path="url(#pbe72d02a92)" d="M 419.647038 197.844632 
C 424.527294 197.844632 429.208325 190.434368 432.659187 177.245866 
C 436.11005 164.057363 438.048996 146.167404 438.048996 127.516044 
C 438.048996 108.864685 436.11005 90.974726 432.659187 77.786223 
C 429.208325 64.59772 424.527294 57.187457 419.647038 57.187457 
C 414.766781 57.187457 410.085751 64.59772 406.634888 77.786223 
C 403.184026 90.974726 401.245079 108.864685 401.245079 127.516044 
C 401.245079 146.167404 403.184026 164.057363 406.634888 177.245866 
C 410.085751 190.434368 414.766781 197.844632 419.647038 197.844632 
z
" style="fill:none;opacity:0.2;stroke:#0000ff;stroke-linejoin:miter;stroke-width:2;"/>
   </g>
   <g id="patch_26">
    <path clip-path="url(#pbe72d02a92)" d="M 427.007821 322.677875 
C 429.447949 322.677875 431.788465 318.972744 433.513896 312.378492 
C 435.239327 305.784241 436.2088 296.839261 436.2088 287.513582 
C 436.2088 278.187902 435.239327 269.242922 433.513896 262.648671 
C 431.788465 256.054419 429.447949 252.349288 427.007821 252.349288 
C 424.567693 252.349288 422.227178 256.054419 420.501746 262.648671 
C 418.776315 269.242922 417.806842 278.187902 417.806842 287.513582 
C 417.806842 296.839261 418.776315 305.784241 420.501746 312.378492 
C 422.227178 318.972744 424.567693 322.677875 427.007821 322.677875 
z
" style="fill:none;opacity:0.2;stroke:#008000;stroke-linejoin:miter;stroke-width:2;"/>
   </g>
   <g id="patch_27">
    <path clip-path="url(#pbe72d02a92)" d="M 419.647038 334.985378 
C 422.087166 334.985378 424.427681 331.280246 426.153113 324.685995 
C 427.878544 318.091744 428.848017 309.146764 428.848017 299.821084 
C 428.848017 290.495405 427.878544 281.550425 426.153113 274.956174 
C 424.427681 268.361922 422.087166 264.656791 419.647038 264.656791 
C 417.20691 264.656791 414.866394 268.361922 413.140963 274.956174 
C 411.415532 281.550425 410.446059 290.495405 410.446059 299.821084 
C 410.446059 309.146764 411.415532 318.091744 413.140963 324.685995 
C 414.866394 331.280246 417.20691 334.985378 419.647038 334.985378 
z
" style="fill:none;opacity:0.2;stroke:#008000;stroke-linejoin:miter;stroke-width:2;"/>
   </g>
   <g id="patch_28">
    <path d="M 423.32743 293.667333 
Q 242.528188 293.667333 61.728945 293.667333 
" style="fill:none;opacity:0.5;stroke:#008000;stroke-linecap:round;stroke-width:2;"/>
   </g>
   <g id="patch_29">
    <path d="M 426.281935 288.72729 
Q 423.840492 292.809474 421.399049 296.891657 
" style="fill:none;opacity:0.5;stroke:#800080;stroke-linecap:round;stroke-width:2;"/>
    <path d="M 424.224684 289.244704 
L 426.281935 288.72729 
L 426.799349 290.784542 
" style="fill:none;opacity:0.5;stroke:#800080;stroke-linecap:round;stroke-width:2;"/>
    <path d="M 423.4563 296.374243 
L 421.399049 296.891657 
L 420.881635 294.834406 
" style="fill:none;opacity:0.5;stroke:#800080;stroke-linecap:round;stroke-width:2;"/>
   </g>
   <g id="patch_30">
    <path d="M 61.728945 293.667333 
Q 61.728945 187.295344 61.728945 80.923355 
" style="fill:none;opacity:0.5;stroke:#008000;stroke-linecap:round;stroke-width:2;"/>
   </g>
   <g id="patch_31">
    <path d="M 58.77444 288.72729 
Q 61.215883 292.809474 63.657326 296.891657 
" style="fill:none;opacity:0.5;stroke:#800080;stroke-linecap:round;stroke-width:2;"/>
    <path d="M 58.257026 290.784542 
L 58.77444 288.72729 
L 60.831691 289.244704 
" style="fill:none;opacity:0.5;stroke:#800080;stroke-linecap:round;stroke-width:2;"/>
    <path d="M 64.17474 294.834406 
L 63.657326 296.891657 
L 61.600075 296.374243 
" style="fill:none;opacity:0.5;stroke:#800080;stroke-linecap:round;stroke-width:2;"/>
   </g>
   <g id="patch_32">
    <path d="M 61.728945 80.923355 
Q 242.528188 80.923355 423.32743 80.923355 
" style="fill:none;opacity:0.5;stroke:#008000;stroke-linecap:round;stroke-width:2;"/>
   </g>
   <g id="patch_33">
    <path d="M 58.159917 35.740488 
Q 61.650212 79.926606 65.140506 124.112724 
" style="fill:none;opacity:0.5;stroke:#800080;stroke-linecap:round;stroke-width:2;"/>
    <path d="M 56.782693 37.353948 
L 58.159917 35.740488 
L 59.773377 37.117712 
" style="fill:none;opacity:0.5;stroke:#800080;stroke-linecap:round;stroke-width:2;"/>
    <path d="M 66.51773 122.499264 
L 65.140506 124.112724 
L 63.527046 122.7355 
" style="fill:none;opacity:0.5;stroke:#800080;stroke-linecap:round;stroke-width:2;"/>
   </g>
   <g id="patch_34">
    <path d="M 423.32743 80.923355 
Q 423.32743 187.295344 423.32743 293.667333 
" style="fill:none;opacity:0.5;stroke:#008000;stroke-linecap:round;stroke-width:2;"/>
   </g>
   <g id="patch_35">
    <path d="M 426.896458 35.740488 
Q 423.406163 79.926606 419.915869 124.112724 
" style="fill:none;opacity:0.5;stroke:#800080;stroke-linecap:round;stroke-width:2;"/>
    <path d="M 425.282998 37.117712 
L 426.896458 35.740488 
L 428.273682 37.353948 
" style="fill:none;opacity:0.5;stroke:#800080;stroke-linecap:round;stroke-width:2;"/>
    <path d="M 421.529329 122.7355 
L 419.915869 124.112724 
L 418.538645 122.499264 
" style="fill:none;opacity:0.5;stroke:#800080;stroke-linecap:round;stroke-width:2;"/>
   </g>
   <g id="line2d_1">
    <path clip-path="url(#pbe72d02a92)" d="M 427.007821 287.513582 
L 58.048554 287.513582 
L 58.048554 34.330666 
L 427.007821 34.330666 
" style="fill:none;stroke:#ff0000;stroke-linecap:square;stroke-width:0.2;"/>
   </g>
   <g id="line2d_2">
    <path clip-path="url(#pbe72d02a92)" d="M 419.647038 127.516044 
L 419.647038 299.821084 
L 65.409337 299.821084 
L 65.409337 127.516044 
" style="fill:none;stroke:#0000ff;stroke-linecap:square;stroke-width:0.2;"/>
   </g>
  </g>
 </g>
 <defs>
  <clipPath id="pbe72d02a92">
   <rect height="307.51175" width="409.903625" x="37.576375" y="13.32"/>
  </clipPath>
 </defs>
</svg>
