<?xml version="1.0" encoding="utf-8" standalone="no"?>
<!DOCTYPE svg PUBLIC "-//W3C//DTD SVG 1.1//EN"
  "http://www.w3.org/Graphics/SVG/1.1/DTD/svg11.dtd">
<!-- Created with matplotlib (http://matplotlib.org/) -->
<svg height="345.6pt" version="1.1" viewBox="0 0 460.8 345.6" width="460.8pt" xmlns="http://www.w3.org/2000/svg" xmlns:xlink="http://www.w3.org/1999/xlink">
 <defs>
  <style type="text/css">
*{stroke-linecap:butt;stroke-linejoin:round;}
  </style>
 </defs>
 <g id="figure_1">
  <g id="patch_1">
   <path d="M 0 345.6 
L 460.8 345.6 
L 460.8 0 
L 0 0 
z
" style="fill:#ffffff;"/>
  </g>
  <g id="axes_1">
   <g id="patch_2">
    <path clip-path="url(#pade851572f)" d="M 426.980149 66.740133 
C 427.475513 66.740133 427.950656 66.594312 428.300931 66.334786 
C 428.651207 66.07526 428.848017 65.723217 428.848017 65.356192 
C 428.848017 64.989166 428.651207 64.637124 428.300931 64.377597 
C 427.950656 64.118071 427.475513 63.97225 426.980149 63.97225 
C 426.484785 63.97225 426.009642 64.118071 425.659367 64.377597 
C 425.309091 64.637124 425.112281 64.989166 425.112281 65.356192 
C 425.112281 65.723217 425.309091 66.07526 425.659367 66.334786 
C 426.009642 66.594312 426.484785 66.740133 426.980149 66.740133 
z
" style="fill:#ff0000;opacity:0.2;stroke:#ff0000;stroke-linejoin:miter;stroke-width:2;"/>
   </g>
   <g id="patch_3">
    <path clip-path="url(#pade851572f)" d="M 290.625788 168.459816 
C 291.121152 168.459816 291.596294 168.313995 291.94657 168.054469 
C 292.296845 167.794943 292.493656 167.442901 292.493656 167.075875 
C 292.493656 166.708849 292.296845 166.356807 291.94657 166.097281 
C 291.596294 165.837755 291.121152 165.691934 290.625788 165.691934 
C 290.130423 165.691934 289.655281 165.837755 289.305006 166.097281 
C 288.95473 166.356807 288.75792 166.708849 288.75792 167.075875 
C 288.75792 167.442901 288.95473 167.794943 289.305006 168.054469 
C 289.655281 168.313995 290.130423 168.459816 290.625788 168.459816 
z
" style="fill:#ff0000;opacity:0.2;stroke:#ff0000;stroke-linejoin:miter;stroke-width:2;"/>
   </g>
   <g id="patch_4">
    <path clip-path="url(#pade851572f)" d="M 426.980149 269.487529 
C 427.475513 269.487529 427.950656 269.341708 428.300931 269.082182 
C 428.651207 268.822656 428.848017 268.470613 428.848017 268.103588 
C 428.848017 267.736562 428.651207 267.38452 428.300931 267.124993 
C 427.950656 266.865467 427.475513 266.719646 426.980149 266.719646 
C 426.484785 266.719646 426.009642 266.865467 425.659367 267.124993 
C 425.309091 267.38452 425.112281 267.736562 425.112281 268.103588 
C 425.112281 268.470613 425.309091 268.822656 425.659367 269.082182 
C 426.009642 269.341708 426.484785 269.487529 426.980149 269.487529 
z
" style="fill:#ff0000;opacity:0.2;stroke:#ff0000;stroke-linejoin:miter;stroke-width:2;"/>
   </g>
   <g id="patch_5">
    <path clip-path="url(#pade851572f)" d="M 378.415582 306.853943 
C 378.910946 306.853943 379.386089 306.708122 379.736364 306.448596 
C 380.08664 306.18907 380.28345 305.837027 380.28345 305.470002 
C 380.28345 305.102976 380.08664 304.750934 379.736364 304.491408 
C 379.386089 304.231881 378.910946 304.086061 378.415582 304.086061 
C 377.920218 304.086061 377.445075 304.231881 377.0948 304.491408 
C 376.744524 304.750934 376.547714 305.102976 376.547714 305.470002 
C 376.547714 305.837027 376.744524 306.18907 377.0948 306.448596 
C 377.445075 306.708122 377.920218 306.853943 378.415582 306.853943 
z
" style="fill:#ff0000;opacity:0.2;stroke:#ff0000;stroke-linejoin:miter;stroke-width:2;"/>
   </g>
   <g id="patch_6">
    <path clip-path="url(#pade851572f)" d="M 241.127287 205.13426 
C 241.622651 205.13426 242.097793 204.988439 242.448069 204.728913 
C 242.798344 204.469387 242.995154 204.117344 242.995154 203.750319 
C 242.995154 203.383293 242.798344 203.031251 242.448069 202.771724 
C 242.097793 202.512198 241.622651 202.366377 241.127287 202.366377 
C 240.631922 202.366377 240.15678 202.512198 239.806504 202.771724 
C 239.456229 203.031251 239.259419 203.383293 239.259419 203.750319 
C 239.259419 204.117344 239.456229 204.469387 239.806504 204.728913 
C 240.15678 204.988439 240.631922 205.13426 241.127287 205.13426 
z
" style="fill:#ff0000;opacity:0.2;stroke:#ff0000;stroke-linejoin:miter;stroke-width:2;"/>
   </g>
   <g id="patch_7">
    <path clip-path="url(#pade851572f)" d="M 105.706859 306.853943 
C 106.202223 306.853943 106.677366 306.708122 107.027641 306.448596 
C 107.377917 306.18907 107.574727 305.837027 107.574727 305.470002 
C 107.574727 305.102976 107.377917 304.750934 107.027641 304.491408 
C 106.677366 304.231881 106.202223 304.086061 105.706859 304.086061 
C 105.211495 304.086061 104.736352 304.231881 104.386077 304.491408 
C 104.035801 304.750934 103.838991 305.102976 103.838991 305.470002 
C 103.838991 305.837027 104.035801 306.18907 104.386077 306.448596 
C 104.736352 306.708122 105.211495 306.853943 105.706859 306.853943 
z
" style="fill:#ff0000;opacity:0.2;stroke:#ff0000;stroke-linejoin:miter;stroke-width:2;"/>
   </g>
   <g id="patch_8">
    <path clip-path="url(#pade851572f)" d="M 58.076226 269.487529 
C 58.57159 269.487529 59.046733 269.341708 59.397008 269.082182 
C 59.747284 268.822656 59.944094 268.470613 59.944094 268.103588 
C 59.944094 267.736562 59.747284 267.38452 59.397008 267.124993 
C 59.046733 266.865467 58.57159 266.719646 58.076226 266.719646 
C 57.580862 266.719646 57.105719 266.865467 56.755444 267.124993 
C 56.405168 267.38452 56.208358 267.736562 56.208358 268.103588 
C 56.208358 268.470613 56.405168 268.822656 56.755444 269.082182 
C 57.105719 269.341708 57.580862 269.487529 58.076226 269.487529 
z
" style="fill:#ff0000;opacity:0.2;stroke:#ff0000;stroke-linejoin:miter;stroke-width:2;"/>
   </g>
   <g id="patch_9">
    <path clip-path="url(#pade851572f)" d="M 192.562719 169.151787 
C 193.058084 169.151787 193.533226 169.005966 193.883502 168.74644 
C 194.233777 168.486914 194.430587 168.134871 194.430587 167.767846 
C 194.430587 167.40082 194.233777 167.048778 193.883502 166.789251 
C 193.533226 166.529725 193.058084 166.383904 192.562719 166.383904 
C 192.067355 166.383904 191.592213 166.529725 191.241937 166.789251 
C 190.891662 167.048778 190.694851 167.40082 190.694851 167.767846 
C 190.694851 168.134871 190.891662 168.486914 191.241937 168.74644 
C 191.592213 169.005966 192.067355 169.151787 192.562719 169.151787 
z
" style="fill:#ff0000;opacity:0.2;stroke:#ff0000;stroke-linejoin:miter;stroke-width:2;"/>
   </g>
   <g id="patch_10">
    <path clip-path="url(#pade851572f)" d="M 58.076226 68.816045 
C 58.57159 68.816045 59.046733 68.670224 59.397008 68.410698 
C 59.747284 68.151172 59.944094 67.799129 59.944094 67.432104 
C 59.944094 67.065078 59.747284 66.713036 59.397008 66.453509 
C 59.046733 66.193983 58.57159 66.048162 58.076226 66.048162 
C 57.580862 66.048162 57.105719 66.193983 56.755444 66.453509 
C 56.405168 66.713036 56.208358 67.065078 56.208358 67.432104 
C 56.208358 67.799129 56.405168 68.151172 56.755444 68.410698 
C 57.105719 68.670224 57.580862 68.816045 58.076226 68.816045 
z
" style="fill:#ff0000;opacity:0.2;stroke:#ff0000;stroke-linejoin:miter;stroke-width:2;"/>
   </g>
   <g id="patch_11">
    <path clip-path="url(#pade851572f)" d="M 105.706859 31.449631 
C 106.202223 31.449631 106.677366 31.30381 107.027641 31.044284 
C 107.377917 30.784757 107.574727 30.432715 107.574727 30.065689 
C 107.574727 29.698664 107.377917 29.346621 107.027641 29.087095 
C 106.677366 28.827569 106.202223 28.681748 105.706859 28.681748 
C 105.211495 28.681748 104.736352 28.827569 104.386077 29.087095 
C 104.035801 29.346621 103.838991 29.698664 103.838991 30.065689 
C 103.838991 30.432715 104.035801 30.784757 104.386077 31.044284 
C 104.736352 31.30381 105.211495 31.449631 105.706859 31.449631 
z
" style="fill:#ff0000;opacity:0.2;stroke:#ff0000;stroke-linejoin:miter;stroke-width:2;"/>
   </g>
   <g id="patch_12">
    <path clip-path="url(#pade851572f)" d="M 242.061221 132.477343 
C 242.556585 132.477343 243.031727 132.331522 243.382003 132.071996 
C 243.732278 131.81247 243.929088 131.460428 243.929088 131.093402 
C 243.929088 130.726376 243.732278 130.374334 243.382003 130.114808 
C 243.031727 129.855282 242.556585 129.709461 242.061221 129.709461 
C 241.565856 129.709461 241.090714 129.855282 240.740438 130.114808 
C 240.390163 130.374334 240.193353 130.726376 240.193353 131.093402 
C 240.193353 131.460428 240.390163 131.81247 240.740438 132.071996 
C 241.090714 132.331522 241.565856 132.477343 242.061221 132.477343 
z
" style="fill:#ff0000;opacity:0.2;stroke:#ff0000;stroke-linejoin:miter;stroke-width:2;"/>
   </g>
   <g id="patch_13">
    <path clip-path="url(#pade851572f)" d="M 378.415582 30.065689 
C 378.910946 30.065689 379.386089 29.919869 379.736364 29.660342 
C 380.08664 29.400816 380.28345 29.048774 380.28345 28.681748 
C 380.28345 28.314723 380.08664 27.96268 379.736364 27.703154 
C 379.386089 27.443628 378.910946 27.297807 378.415582 27.297807 
C 377.920218 27.297807 377.445075 27.443628 377.0948 27.703154 
C 376.744524 27.96268 376.547714 28.314723 376.547714 28.681748 
C 376.547714 29.048774 376.744524 29.400816 377.0948 29.660342 
C 377.445075 29.919869 377.920218 30.065689 378.415582 30.065689 
z
" style="fill:#ff0000;opacity:0.2;stroke:#ff0000;stroke-linejoin:miter;stroke-width:2;"/>
   </g>
   <g id="patch_14">
    <path clip-path="url(#pade851572f)" d="M 415.772941 71.583927 
C 416.268306 71.583927 416.743448 71.438107 417.093723 71.17858 
C 417.443999 70.919054 417.640809 70.567012 417.640809 70.199986 
C 417.640809 69.832961 417.443999 69.480918 417.093723 69.221392 
C 416.743448 68.961866 416.268306 68.816045 415.772941 68.816045 
C 415.277577 68.816045 414.802435 68.961866 414.452159 69.221392 
C 414.101884 69.480918 413.905073 69.832961 413.905073 70.199986 
C 413.905073 70.567012 414.101884 70.919054 414.452159 71.17858 
C 414.802435 71.438107 415.277577 71.583927 415.772941 71.583927 
z
" style="fill:#0000ff;opacity:0.2;stroke:#0000ff;stroke-linejoin:miter;stroke-width:2;"/>
   </g>
   <g id="patch_15">
    <path clip-path="url(#pade851572f)" d="M 277.550712 175.379523 
C 278.046076 175.379523 278.521218 175.233702 278.871494 174.974176 
C 279.221769 174.714649 279.41858 174.362607 279.41858 173.995581 
C 279.41858 173.628556 279.221769 173.276513 278.871494 173.016987 
C 278.521218 172.757461 278.046076 172.61164 277.550712 172.61164 
C 277.055347 172.61164 276.580205 172.757461 276.22993 173.016987 
C 275.879654 173.276513 275.682844 173.628556 275.682844 173.995581 
C 275.682844 174.362607 275.879654 174.714649 276.22993 174.974176 
C 276.580205 175.233702 277.055347 175.379523 277.550712 175.379523 
z
" style="fill:#0000ff;opacity:0.2;stroke:#0000ff;stroke-linejoin:miter;stroke-width:2;"/>
   </g>
   <g id="patch_16">
    <path clip-path="url(#pade851572f)" d="M 415.772941 278.483147 
C 416.268306 278.483147 416.743448 278.337326 417.093723 278.0778 
C 417.443999 277.818274 417.640809 277.466231 417.640809 277.099206 
C 417.640809 276.73218 417.443999 276.380138 417.093723 276.120612 
C 416.743448 275.861085 416.268306 275.715265 415.772941 275.715265 
C 415.277577 275.715265 414.802435 275.861085 414.452159 276.120612 
C 414.101884 276.380138 413.905073 276.73218 413.905073 277.099206 
C 413.905073 277.466231 414.101884 277.818274 414.452159 278.0778 
C 414.802435 278.337326 415.277577 278.483147 415.772941 278.483147 
z
" style="fill:#0000ff;opacity:0.2;stroke:#0000ff;stroke-linejoin:miter;stroke-width:2;"/>
   </g>
   <g id="patch_17">
    <path clip-path="url(#pade851572f)" d="M 381.217384 305.470002 
C 381.712748 305.470002 382.187891 305.324181 382.538166 305.064655 
C 382.888442 304.805129 383.085252 304.453086 383.085252 304.086061 
C 383.085252 303.719035 382.888442 303.366993 382.538166 303.107466 
C 382.187891 302.84794 381.712748 302.702119 381.217384 302.702119 
C 380.72202 302.702119 380.246877 302.84794 379.896602 303.107466 
C 379.546326 303.366993 379.349516 303.719035 379.349516 304.086061 
C 379.349516 304.453086 379.546326 304.805129 379.896602 305.064655 
C 380.246877 305.324181 380.72202 305.470002 381.217384 305.470002 
z
" style="fill:#0000ff;opacity:0.2;stroke:#0000ff;stroke-linejoin:miter;stroke-width:2;"/>
   </g>
   <g id="patch_18">
    <path clip-path="url(#pade851572f)" d="M 242.061221 201.674407 
C 242.556585 201.674407 243.031727 201.528586 243.382003 201.26906 
C 243.732278 201.009533 243.929088 200.657491 243.929088 200.290465 
C 243.929088 199.92344 243.732278 199.571397 243.382003 199.311871 
C 243.031727 199.052345 242.556585 198.906524 242.061221 198.906524 
C 241.565856 198.906524 241.090714 199.052345 240.740438 199.311871 
C 240.390163 199.571397 240.193353 199.92344 240.193353 200.290465 
C 240.193353 200.657491 240.390163 201.009533 240.740438 201.26906 
C 241.090714 201.528586 241.565856 201.674407 242.061221 201.674407 
z
" style="fill:#0000ff;opacity:0.2;stroke:#0000ff;stroke-linejoin:miter;stroke-width:2;"/>
   </g>
   <g id="patch_19">
    <path clip-path="url(#pade851572f)" d="M 103.838991 305.470002 
C 104.334355 305.470002 104.809498 305.324181 105.159773 305.064655 
C 105.510049 304.805129 105.706859 304.453086 105.706859 304.086061 
C 105.706859 303.719035 105.510049 303.366993 105.159773 303.107466 
C 104.809498 302.84794 104.334355 302.702119 103.838991 302.702119 
C 103.343627 302.702119 102.868484 302.84794 102.518209 303.107466 
C 102.167933 303.366993 101.971123 303.719035 101.971123 304.086061 
C 101.971123 304.453086 102.167933 304.805129 102.518209 305.064655 
C 102.868484 305.324181 103.343627 305.470002 103.838991 305.470002 
z
" style="fill:#0000ff;opacity:0.2;stroke:#0000ff;stroke-linejoin:miter;stroke-width:2;"/>
   </g>
   <g id="patch_20">
    <path clip-path="url(#pade851572f)" d="M 69.283434 278.483147 
C 69.778798 278.483147 70.25394 278.337326 70.604216 278.0778 
C 70.954491 277.818274 71.151302 277.466231 71.151302 277.099206 
C 71.151302 276.73218 70.954491 276.380138 70.604216 276.120612 
C 70.25394 275.861085 69.778798 275.715265 69.283434 275.715265 
C 68.788069 275.715265 68.312927 275.861085 67.962652 276.120612 
C 67.612376 276.380138 67.415566 276.73218 67.415566 277.099206 
C 67.415566 277.466231 67.612376 277.818274 67.962652 278.0778 
C 68.312927 278.337326 68.788069 278.483147 69.283434 278.483147 
z
" style="fill:#0000ff;opacity:0.2;stroke:#0000ff;stroke-linejoin:miter;stroke-width:2;"/>
   </g>
   <g id="patch_21">
    <path clip-path="url(#pade851572f)" d="M 206.571729 175.379523 
C 207.067094 175.379523 207.542236 175.233702 207.892511 174.974176 
C 208.242787 174.714649 208.439597 174.362607 208.439597 173.995581 
C 208.439597 173.628556 208.242787 173.276513 207.892511 173.016987 
C 207.542236 172.757461 207.067094 172.61164 206.571729 172.61164 
C 206.076365 172.61164 205.601223 172.757461 205.250947 173.016987 
C 204.900672 173.276513 204.703861 173.628556 204.703861 173.995581 
C 204.703861 174.362607 204.900672 174.714649 205.250947 174.974176 
C 205.601223 175.233702 206.076365 175.379523 206.571729 175.379523 
z
" style="fill:#0000ff;opacity:0.2;stroke:#0000ff;stroke-linejoin:miter;stroke-width:2;"/>
   </g>
   <g id="patch_22">
    <path clip-path="url(#pade851572f)" d="M 69.283434 73.659839 
C 69.778798 73.659839 70.25394 73.514019 70.604216 73.254492 
C 70.954491 72.994966 71.151302 72.642924 71.151302 72.275898 
C 71.151302 71.908873 70.954491 71.55683 70.604216 71.297304 
C 70.25394 71.037778 69.778798 70.891957 69.283434 70.891957 
C 68.788069 70.891957 68.312927 71.037778 67.962652 71.297304 
C 67.612376 71.55683 67.415566 71.908873 67.415566 72.275898 
C 67.415566 72.642924 67.612376 72.994966 67.962652 73.254492 
C 68.312927 73.514019 68.788069 73.659839 69.283434 73.659839 
z
" style="fill:#0000ff;opacity:0.2;stroke:#0000ff;stroke-linejoin:miter;stroke-width:2;"/>
   </g>
   <g id="patch_23">
    <path clip-path="url(#pade851572f)" d="M 103.838991 46.672985 
C 104.334355 46.672985 104.809498 46.527164 105.159773 46.267638 
C 105.510049 46.008111 105.706859 45.656069 105.706859 45.289043 
C 105.706859 44.922018 105.510049 44.569975 105.159773 44.310449 
C 104.809498 44.050923 104.334355 43.905102 103.838991 43.905102 
C 103.343627 43.905102 102.868484 44.050923 102.518209 44.310449 
C 102.167933 44.569975 101.971123 44.922018 101.971123 45.289043 
C 101.971123 45.656069 102.167933 46.008111 102.518209 46.267638 
C 102.868484 46.527164 103.343627 46.672985 103.838991 46.672985 
z
" style="fill:#0000ff;opacity:0.2;stroke:#0000ff;stroke-linejoin:miter;stroke-width:2;"/>
   </g>
   <g id="patch_24">
    <path clip-path="url(#pade851572f)" d="M 242.061221 149.084639 
C 242.556585 149.084639 243.031727 148.938818 243.382003 148.679291 
C 243.732278 148.419765 243.929088 148.067723 243.929088 147.700697 
C 243.929088 147.333672 243.732278 146.981629 243.382003 146.722103 
C 243.031727 146.462577 242.556585 146.316756 242.061221 146.316756 
C 241.565856 146.316756 241.090714 146.462577 240.740438 146.722103 
C 240.390163 146.981629 240.193353 147.333672 240.193353 147.700697 
C 240.193353 148.067723 240.390163 148.419765 240.740438 148.679291 
C 241.090714 148.938818 241.565856 149.084639 242.061221 149.084639 
z
" style="fill:#0000ff;opacity:0.2;stroke:#0000ff;stroke-linejoin:miter;stroke-width:2;"/>
   </g>
   <g id="patch_25">
    <path clip-path="url(#pade851572f)" d="M 381.217384 45.289043 
C 381.712748 45.289043 382.187891 45.143223 382.538166 44.883696 
C 382.888442 44.62417 383.085252 44.272128 383.085252 43.905102 
C 383.085252 43.538077 382.888442 43.186034 382.538166 42.926508 
C 382.187891 42.666982 381.712748 42.521161 381.217384 42.521161 
C 380.72202 42.521161 380.246877 42.666982 379.896602 42.926508 
C 379.546326 43.186034 379.349516 43.538077 379.349516 43.905102 
C 379.349516 44.272128 379.546326 44.62417 379.896602 44.883696 
C 380.246877 45.143223 380.72202 45.289043 381.217384 45.289043 
z
" style="fill:#0000ff;opacity:0.2;stroke:#0000ff;stroke-linejoin:miter;stroke-width:2;"/>
   </g>
   <g id="patch_26">
    <path clip-path="url(#pade851572f)" d="M 426.980149 65.356192 
L 290.625788 167.075875 
L 426.980149 268.103588 
L 378.415582 305.470002 
L 241.127287 203.750319 
L 105.706859 305.470002 
L 58.076226 268.103588 
L 192.562719 167.767846 
L 58.076226 67.432104 
L 105.706859 30.065689 
L 242.061221 131.093402 
L 378.415582 28.681748 
L 426.980149 65.356192 
" style="fill:none;stroke:#ff0000;stroke-linejoin:miter;stroke-width:0.5;"/>
   </g>
   <g id="patch_27">
    <path clip-path="url(#pade851572f)" d="M 415.772941 70.199986 
L 277.550712 173.995581 
L 415.772941 277.099206 
L 381.217384 304.086061 
L 242.061221 200.290465 
L 103.838991 304.086061 
L 69.283434 277.099206 
L 206.571729 173.995581 
L 69.283434 72.275898 
L 103.838991 45.289043 
L 242.061221 147.700697 
L 381.217384 43.905102 
L 415.772941 70.199986 
" style="fill:none;stroke:#0000ff;stroke-linejoin:miter;stroke-width:0.5;"/>
   </g>
   <g id="[&quot;g_s&quot;:1,&quot;g_t&quot;:1,&quot;coords&quot;:[[508.0, -349.0],[496.0, -356.0]],&quot;certainty&quot;:11]">
    <path clip-path="url(#pade851572f)" d="M 426.980149 69.508016 
C 428.466242 69.508016 429.891669 69.070553 430.942495 68.291974 
C 431.993322 67.513396 432.583753 66.457268 432.583753 65.356192 
C 432.583753 64.255115 431.993322 63.198988 430.942495 62.420409 
C 429.891669 61.64183 428.466242 61.204368 426.980149 61.204368 
C 425.494056 61.204368 424.068629 61.64183 423.017803 62.420409 
C 421.966976 63.198988 421.376545 64.255115 421.376545 65.356192 
C 421.376545 66.457268 421.966976 67.513396 423.017803 68.291974 
C 424.068629 69.070553 425.494056 69.508016 426.980149 69.508016 
z
" style="fill:#0000ff;opacity:0.2;stroke:#0000ff;stroke-linejoin:miter;stroke-width:2;"/>
   </g>
   <g id="[&quot;g_s&quot;:1,&quot;g_t&quot;:1,&quot;coords&quot;:[[496.0, -356.0],[508.0, -349.0]],&quot;certainty&quot;:11]">
    <path clip-path="url(#pade851572f)" d="M 415.772941 74.35181 
C 417.259034 74.35181 418.684461 73.914348 419.735288 73.135769 
C 420.786114 72.35719 421.376545 71.301063 421.376545 70.199986 
C 421.376545 69.09891 420.786114 68.042782 419.735288 67.264203 
C 418.684461 66.485625 417.259034 66.048162 415.772941 66.048162 
C 414.286848 66.048162 412.861421 66.485625 411.810595 67.264203 
C 410.759768 68.042782 410.169337 69.09891 410.169337 70.199986 
C 410.169337 71.301063 410.759768 72.35719 411.810595 73.135769 
C 412.861421 73.914348 414.286848 74.35181 415.772941 74.35181 
z
" style="fill:#ff0000;opacity:0.2;stroke:#ff0000;stroke-linejoin:miter;stroke-width:2;"/>
   </g>
   <g id="patch_28">
    <path d="M 426.980149 65.356192 
Q 422.294518 67.381338 419.556119 68.564884 
" style="fill:none;opacity:0.5;stroke:#0000ff;stroke-linecap:round;stroke-width:3;"/>
    <path d="M 421.52812 69.346683 
L 419.556119 68.564884 
L 420.337918 66.592882 
" style="fill:none;opacity:0.5;stroke:#0000ff;stroke-linecap:round;stroke-width:3;"/>
   </g>
   <g id="[&quot;g_s&quot;:2,&quot;g_t&quot;:2,&quot;coords&quot;:[[362.0, -496.0],[348.0, -506.0]],&quot;certainty&quot;:11]">
    <path clip-path="url(#pade851572f)" d="M 290.625788 171.227699 
C 292.111881 171.227699 293.537307 170.790236 294.588134 170.011658 
C 295.63896 169.233079 296.229392 168.176952 296.229392 167.075875 
C 296.229392 165.974798 295.63896 164.918671 294.588134 164.140092 
C 293.537307 163.361514 292.111881 162.924051 290.625788 162.924051 
C 289.139694 162.924051 287.714268 163.361514 286.663441 164.140092 
C 285.612615 164.918671 285.022184 165.974798 285.022184 167.075875 
C 285.022184 168.176952 285.612615 169.233079 286.663441 170.011658 
C 287.714268 170.790236 289.139694 171.227699 290.625788 171.227699 
z
" style="fill:#0000ff;opacity:0.2;stroke:#0000ff;stroke-linejoin:miter;stroke-width:2;"/>
   </g>
   <g id="[&quot;g_s&quot;:2,&quot;g_t&quot;:2,&quot;coords&quot;:[[348.0, -506.0],[362.0, -496.0]],&quot;certainty&quot;:11]">
    <path clip-path="url(#pade851572f)" d="M 277.550712 178.147405 
C 279.036805 178.147405 280.462232 177.709943 281.513058 176.931364 
C 282.563885 176.152785 283.154316 175.096658 283.154316 173.995581 
C 283.154316 172.894505 282.563885 171.838377 281.513058 171.059799 
C 280.462232 170.28122 279.036805 169.843758 277.550712 169.843758 
C 276.064619 169.843758 274.639192 170.28122 273.588366 171.059799 
C 272.537539 171.838377 271.947108 172.894505 271.947108 173.995581 
C 271.947108 175.096658 272.537539 176.152785 273.588366 176.931364 
C 274.639192 177.709943 276.064619 178.147405 277.550712 178.147405 
z
" style="fill:#ff0000;opacity:0.2;stroke:#ff0000;stroke-linejoin:miter;stroke-width:2;"/>
   </g>
   <g id="patch_29">
    <path d="M 290.625788 167.075875 
Q 284.970881 170.068614 281.190914 172.069082 
" style="fill:none;opacity:0.5;stroke:#0000ff;stroke-linecap:round;stroke-width:3;"/>
    <path d="M 283.218338 172.693222 
L 281.190914 172.069082 
L 281.815054 170.041657 
" style="fill:none;opacity:0.5;stroke:#0000ff;stroke-linecap:round;stroke-width:3;"/>
   </g>
   <g id="[&quot;g_s&quot;:3,&quot;g_t&quot;:3,&quot;coords&quot;:[[508.0, -642.0],[496.0, -655.0]],&quot;certainty&quot;:11]">
    <path clip-path="url(#pade851572f)" d="M 426.980149 272.255411 
C 428.466242 272.255411 429.891669 271.817949 430.942495 271.03937 
C 431.993322 270.260792 432.583753 269.204664 432.583753 268.103588 
C 432.583753 267.002511 431.993322 265.946384 430.942495 265.167805 
C 429.891669 264.389226 428.466242 263.951764 426.980149 263.951764 
C 425.494056 263.951764 424.068629 264.389226 423.017803 265.167805 
C 421.966976 265.946384 421.376545 267.002511 421.376545 268.103588 
C 421.376545 269.204664 421.966976 270.260792 423.017803 271.03937 
C 424.068629 271.817949 425.494056 272.255411 426.980149 272.255411 
z
" style="fill:#0000ff;opacity:0.2;stroke:#0000ff;stroke-linejoin:miter;stroke-width:2;"/>
   </g>
   <g id="[&quot;g_s&quot;:3,&quot;g_t&quot;:3,&quot;coords&quot;:[[496.0, -655.0],[508.0, -642.0]],&quot;certainty&quot;:11]">
    <path clip-path="url(#pade851572f)" d="M 415.772941 281.25103 
C 417.259034 281.25103 418.684461 280.813567 419.735288 280.034989 
C 420.786114 279.25641 421.376545 278.200282 421.376545 277.099206 
C 421.376545 275.998129 420.786114 274.942002 419.735288 274.163423 
C 418.684461 273.384844 417.259034 272.947382 415.772941 272.947382 
C 414.286848 272.947382 412.861421 273.384844 411.810595 274.163423 
C 410.759768 274.942002 410.169337 275.998129 410.169337 277.099206 
C 410.169337 278.200282 410.759768 279.25641 411.810595 280.034989 
C 412.861421 280.813567 414.286848 281.25103 415.772941 281.25103 
z
" style="fill:#ff0000;opacity:0.2;stroke:#ff0000;stroke-linejoin:miter;stroke-width:2;"/>
   </g>
   <g id="patch_30">
    <path d="M 426.980149 268.103588 
Q 422.157712 271.974383 418.989595 274.517315 
" style="fill:none;opacity:0.5;stroke:#0000ff;stroke-linecap:round;stroke-width:3;"/>
    <path d="M 421.098318 274.748155 
L 418.989595 274.517315 
L 419.220436 272.408592 
" style="fill:none;opacity:0.5;stroke:#0000ff;stroke-linecap:round;stroke-width:3;"/>
   </g>
   <g id="[&quot;g_s&quot;:4,&quot;g_t&quot;:4,&quot;coords&quot;:[[456.0, -696.0],[459.0, -694.0]],&quot;certainty&quot;:11]">
    <path clip-path="url(#pade851572f)" d="M 378.415582 309.621826 
C 379.901675 309.621826 381.327102 309.184363 382.377928 308.405785 
C 383.428755 307.627206 384.019186 306.571078 384.019186 305.470002 
C 384.019186 304.368925 383.428755 303.312798 382.377928 302.534219 
C 381.327102 301.75564 379.901675 301.318178 378.415582 301.318178 
C 376.929489 301.318178 375.504062 301.75564 374.453236 302.534219 
C 373.402409 303.312798 372.811978 304.368925 372.811978 305.470002 
C 372.811978 306.571078 373.402409 307.627206 374.453236 308.405785 
C 375.504062 309.184363 376.929489 309.621826 378.415582 309.621826 
z
" style="fill:#0000ff;opacity:0.2;stroke:#0000ff;stroke-linejoin:miter;stroke-width:2;"/>
   </g>
   <g id="[&quot;g_s&quot;:4,&quot;g_t&quot;:4,&quot;coords&quot;:[[459.0, -694.0],[456.0, -696.0]],&quot;certainty&quot;:11]">
    <path clip-path="url(#pade851572f)" d="M 381.217384 308.237884 
C 382.703477 308.237884 384.128904 307.800422 385.17973 307.021843 
C 386.230557 306.243265 386.820988 305.187137 386.820988 304.086061 
C 386.820988 302.984984 386.230557 301.928857 385.17973 301.150278 
C 384.128904 300.371699 382.703477 299.934237 381.217384 299.934237 
C 379.731291 299.934237 378.305864 300.371699 377.255038 301.150278 
C 376.204211 301.928857 375.61378 302.984984 375.61378 304.086061 
C 375.61378 305.187137 376.204211 306.243265 377.255038 307.021843 
C 378.305864 307.800422 379.731291 308.237884 381.217384 308.237884 
z
" style="fill:#ff0000;opacity:0.2;stroke:#ff0000;stroke-linejoin:miter;stroke-width:2;"/>
   </g>
   <g id="patch_31">
    <path d="M 378.415582 305.470002 
Q 378.920399 305.220649 377.523266 305.910758 
" style="fill:none;opacity:0.5;stroke:#0000ff;stroke-linecap:round;stroke-width:3;"/>
    <path d="M 375.514085 305.230177 
L 377.523266 305.910758 
L 376.842685 307.91994 
" style="fill:none;opacity:0.5;stroke:#0000ff;stroke-linecap:round;stroke-width:3;"/>
   </g>
   <g id="[&quot;g_s&quot;:5,&quot;g_t&quot;:5,&quot;coords&quot;:[[309.0, -549.0],[310.0, -544.0]],&quot;certainty&quot;:11]">
    <path clip-path="url(#pade851572f)" d="M 241.127287 207.902142 
C 242.61338 207.902142 244.038806 207.46468 245.089633 206.686101 
C 246.140459 205.907523 246.73089 204.851395 246.73089 203.750319 
C 246.73089 202.649242 246.140459 201.593115 245.089633 200.814536 
C 244.038806 200.035957 242.61338 199.598495 241.127287 199.598495 
C 239.641193 199.598495 238.215767 200.035957 237.16494 200.814536 
C 236.114114 201.593115 235.523683 202.649242 235.523683 203.750319 
C 235.523683 204.851395 236.114114 205.907523 237.16494 206.686101 
C 238.215767 207.46468 239.641193 207.902142 241.127287 207.902142 
z
" style="fill:#0000ff;opacity:0.2;stroke:#0000ff;stroke-linejoin:miter;stroke-width:2;"/>
   </g>
   <g id="[&quot;g_s&quot;:5,&quot;g_t&quot;:5,&quot;coords&quot;:[[310.0, -544.0],[309.0, -549.0]],&quot;certainty&quot;:11]">
    <path clip-path="url(#pade851572f)" d="M 242.061221 204.442289 
C 243.547314 204.442289 244.97274 204.004827 246.023567 203.226248 
C 247.074393 202.44767 247.664824 201.391542 247.664824 200.290465 
C 247.664824 199.189389 247.074393 198.133261 246.023567 197.354683 
C 244.97274 196.576104 243.547314 196.138642 242.061221 196.138642 
C 240.575127 196.138642 239.149701 196.576104 238.098874 197.354683 
C 237.048048 198.133261 236.457617 199.189389 236.457617 200.290465 
C 236.457617 201.391542 237.048048 202.44767 238.098874 203.226248 
C 239.149701 204.004827 240.575127 204.442289 242.061221 204.442289 
z
" style="fill:#ff0000;opacity:0.2;stroke:#ff0000;stroke-linejoin:miter;stroke-width:2;"/>
   </g>
   <g id="patch_32">
    <path d="M 241.127287 203.750319 
Q 241.333865 202.985029 240.987612 204.267757 
" style="fill:none;opacity:0.5;stroke:#0000ff;stroke-linecap:round;stroke-width:3;"/>
    <path d="M 239.148534 205.325014 
L 240.987612 204.267757 
L 242.044869 206.106835 
" style="fill:none;opacity:0.5;stroke:#0000ff;stroke-linecap:round;stroke-width:3;"/>
   </g>
   <g id="[&quot;g_s&quot;:6,&quot;g_t&quot;:6,&quot;coords&quot;:[[164.0, -696.0],[162.0, -694.0]],&quot;certainty&quot;:10]">
    <path clip-path="url(#pade851572f)" d="M 105.706859 309.27584 
C 107.069111 309.27584 108.375752 308.874833 109.33901 308.161136 
C 110.302267 307.447439 110.843496 306.479322 110.843496 305.470002 
C 110.843496 304.460682 110.302267 303.492565 109.33901 302.778868 
C 108.375752 302.065171 107.069111 301.664163 105.706859 301.664163 
C 104.344607 301.664163 103.037966 302.065171 102.074708 302.778868 
C 101.111451 303.492565 100.570222 304.460682 100.570222 305.470002 
C 100.570222 306.479322 101.111451 307.447439 102.074708 308.161136 
C 103.037966 308.874833 104.344607 309.27584 105.706859 309.27584 
z
" style="fill:#0000ff;opacity:0.2;stroke:#0000ff;stroke-linejoin:miter;stroke-width:2;"/>
   </g>
   <g id="[&quot;g_s&quot;:6,&quot;g_t&quot;:6,&quot;coords&quot;:[[162.0, -694.0],[164.0, -696.0]],&quot;certainty&quot;:10]">
    <path clip-path="url(#pade851572f)" d="M 103.838991 307.891899 
C 105.201243 307.891899 106.507884 307.490892 107.471142 306.777195 
C 108.4344 306.063498 108.975628 305.095381 108.975628 304.086061 
C 108.975628 303.07674 108.4344 302.108624 107.471142 301.394926 
C 106.507884 300.681229 105.201243 300.280222 103.838991 300.280222 
C 102.476739 300.280222 101.170098 300.681229 100.20684 301.394926 
C 99.243583 302.108624 98.702354 303.07674 98.702354 304.086061 
C 98.702354 305.095381 99.243583 306.063498 100.20684 306.777195 
C 101.170098 307.490892 102.476739 307.891899 103.838991 307.891899 
z
" style="fill:#ff0000;opacity:0.2;stroke:#ff0000;stroke-linejoin:miter;stroke-width:2;"/>
   </g>
   <g id="patch_33">
    <path d="M 105.706859 305.470002 
Q 105.577349 305.374045 107.010256 306.435715 
" style="fill:none;opacity:0.5;stroke:#0000ff;stroke-linecap:round;stroke-width:2.75;"/>
    <path d="M 107.322507 308.533929 
L 107.010256 306.435715 
L 109.108469 306.123464 
" style="fill:none;opacity:0.5;stroke:#0000ff;stroke-linecap:round;stroke-width:2.75;"/>
   </g>
   <g id="[&quot;g_s&quot;:7,&quot;g_t&quot;:7,&quot;coords&quot;:[[113.0, -642.0],[125.0, -655.0]],&quot;certainty&quot;:11]">
    <path clip-path="url(#pade851572f)" d="M 58.076226 272.255411 
C 59.562319 272.255411 60.987746 271.817949 62.038572 271.03937 
C 63.089399 270.260792 63.67983 269.204664 63.67983 268.103588 
C 63.67983 267.002511 63.089399 265.946384 62.038572 265.167805 
C 60.987746 264.389226 59.562319 263.951764 58.076226 263.951764 
C 56.590133 263.951764 55.164706 264.389226 54.11388 265.167805 
C 53.063053 265.946384 52.472622 267.002511 52.472622 268.103588 
C 52.472622 269.204664 53.063053 270.260792 54.11388 271.03937 
C 55.164706 271.817949 56.590133 272.255411 58.076226 272.255411 
z
" style="fill:#0000ff;opacity:0.2;stroke:#0000ff;stroke-linejoin:miter;stroke-width:2;"/>
   </g>
   <g id="[&quot;g_s&quot;:7,&quot;g_t&quot;:7,&quot;coords&quot;:[[125.0, -655.0],[113.0, -642.0]],&quot;certainty&quot;:11]">
    <path clip-path="url(#pade851572f)" d="M 69.283434 281.25103 
C 70.769527 281.25103 72.194954 280.813567 73.24578 280.034989 
C 74.296607 279.25641 74.887038 278.200282 74.887038 277.099206 
C 74.887038 275.998129 74.296607 274.942002 73.24578 274.163423 
C 72.194954 273.384844 70.769527 272.947382 69.283434 272.947382 
C 67.797341 272.947382 66.371914 273.384844 65.321087 274.163423 
C 64.270261 274.942002 63.67983 275.998129 63.67983 277.099206 
C 63.67983 278.200282 64.270261 279.25641 65.321087 280.034989 
C 66.371914 280.813567 67.797341 281.25103 69.283434 281.25103 
z
" style="fill:#ff0000;opacity:0.2;stroke:#ff0000;stroke-linejoin:miter;stroke-width:2;"/>
   </g>
   <g id="patch_34">
    <path d="M 58.076226 268.103588 
Q 62.898663 271.974383 66.06678 274.517315 
" style="fill:none;opacity:0.5;stroke:#0000ff;stroke-linecap:round;stroke-width:3;"/>
    <path d="M 65.835939 272.408592 
L 66.06678 274.517315 
L 63.958057 274.748155 
" style="fill:none;opacity:0.5;stroke:#0000ff;stroke-linecap:round;stroke-width:3;"/>
   </g>
   <g id="[&quot;g_s&quot;:8,&quot;g_t&quot;:8,&quot;coords&quot;:[[257.0, -497.0],[272.0, -506.0]],&quot;certainty&quot;:11]">
    <path clip-path="url(#pade851572f)" d="M 192.562719 171.919669 
C 194.048813 171.919669 195.474239 171.482207 196.525066 170.703628 
C 197.575892 169.92505 198.166323 168.868922 198.166323 167.767846 
C 198.166323 166.666769 197.575892 165.610642 196.525066 164.832063 
C 195.474239 164.053484 194.048813 163.616022 192.562719 163.616022 
C 191.076626 163.616022 189.6512 164.053484 188.600373 164.832063 
C 187.549547 165.610642 186.959116 166.666769 186.959116 167.767846 
C 186.959116 168.868922 187.549547 169.92505 188.600373 170.703628 
C 189.6512 171.482207 191.076626 171.919669 192.562719 171.919669 
z
" style="fill:#0000ff;opacity:0.2;stroke:#0000ff;stroke-linejoin:miter;stroke-width:2;"/>
   </g>
   <g id="[&quot;g_s&quot;:8,&quot;g_t&quot;:8,&quot;coords&quot;:[[272.0, -506.0],[257.0, -497.0]],&quot;certainty&quot;:11]">
    <path clip-path="url(#pade851572f)" d="M 206.571729 178.147405 
C 208.057822 178.147405 209.483249 177.709943 210.534075 176.931364 
C 211.584902 176.152785 212.175333 175.096658 212.175333 173.995581 
C 212.175333 172.894505 211.584902 171.838377 210.534075 171.059799 
C 209.483249 170.28122 208.057822 169.843758 206.571729 169.843758 
C 205.085636 169.843758 203.660209 170.28122 202.609383 171.059799 
C 201.558556 171.838377 200.968125 172.894505 200.968125 173.995581 
C 200.968125 175.096658 201.558556 176.152785 202.609383 176.931364 
C 203.660209 177.709943 205.085636 178.147405 206.571729 178.147405 
z
" style="fill:#ff0000;opacity:0.2;stroke:#ff0000;stroke-linejoin:miter;stroke-width:2;"/>
   </g>
   <g id="patch_35">
    <path d="M 192.562719 167.767846 
Q 198.652329 170.474995 202.80353 172.32042 
" style="fill:none;opacity:0.5;stroke:#0000ff;stroke-linecap:round;stroke-width:3;"/>
    <path d="M 202.042198 170.340427 
L 202.80353 172.32042 
L 200.823536 173.081752 
" style="fill:none;opacity:0.5;stroke:#0000ff;stroke-linecap:round;stroke-width:3;"/>
   </g>
   <g id="[&quot;g_s&quot;:9,&quot;g_t&quot;:9,&quot;coords&quot;:[[113.0, -352.0],[125.0, -359.0]],&quot;certainty&quot;:11]">
    <path clip-path="url(#pade851572f)" d="M 58.076226 71.583927 
C 59.562319 71.583927 60.987746 71.146465 62.038572 70.367886 
C 63.089399 69.589308 63.67983 68.53318 63.67983 67.432104 
C 63.67983 66.331027 63.089399 65.2749 62.038572 64.496321 
C 60.987746 63.717742 59.562319 63.28028 58.076226 63.28028 
C 56.590133 63.28028 55.164706 63.717742 54.11388 64.496321 
C 53.063053 65.2749 52.472622 66.331027 52.472622 67.432104 
C 52.472622 68.53318 53.063053 69.589308 54.11388 70.367886 
C 55.164706 71.146465 56.590133 71.583927 58.076226 71.583927 
z
" style="fill:#0000ff;opacity:0.2;stroke:#0000ff;stroke-linejoin:miter;stroke-width:2;"/>
   </g>
   <g id="[&quot;g_s&quot;:9,&quot;g_t&quot;:9,&quot;coords&quot;:[[125.0, -359.0],[113.0, -352.0]],&quot;certainty&quot;:11]">
    <path clip-path="url(#pade851572f)" d="M 69.283434 76.427722 
C 70.769527 76.427722 72.194954 75.99026 73.24578 75.211681 
C 74.296607 74.433102 74.887038 73.376975 74.887038 72.275898 
C 74.887038 71.174822 74.296607 70.118694 73.24578 69.340115 
C 72.194954 68.561537 70.769527 68.124074 69.283434 68.124074 
C 67.797341 68.124074 66.371914 68.561537 65.321087 69.340115 
C 64.270261 70.118694 63.67983 71.174822 63.67983 72.275898 
C 63.67983 73.376975 64.270261 74.433102 65.321087 75.211681 
C 66.371914 75.99026 67.797341 76.427722 69.283434 76.427722 
z
" style="fill:#ff0000;opacity:0.2;stroke:#ff0000;stroke-linejoin:miter;stroke-width:2;"/>
   </g>
   <g id="patch_36">
    <path d="M 58.076226 67.432104 
Q 62.761857 69.45725 65.500256 70.640795 
" style="fill:none;opacity:0.5;stroke:#0000ff;stroke-linecap:round;stroke-width:3;"/>
    <path d="M 64.718457 68.668794 
L 65.500256 70.640795 
L 63.528255 71.422595 
" style="fill:none;opacity:0.5;stroke:#0000ff;stroke-linecap:round;stroke-width:3;"/>
   </g>
   <g id="[&quot;g_s&quot;:10,&quot;g_t&quot;:10,&quot;coords&quot;:[[164.0, -298.0],[162.0, -320.0]],&quot;certainty&quot;:11]">
    <path clip-path="url(#pade851572f)" d="M 105.706859 34.217513 
C 107.192952 34.217513 108.618379 33.780051 109.669205 33.001472 
C 110.720032 32.222893 111.310463 31.166766 111.310463 30.065689 
C 111.310463 28.964613 110.720032 27.908485 109.669205 27.129907 
C 108.618379 26.351328 107.192952 25.913866 105.706859 25.913866 
C 104.220766 25.913866 102.795339 26.351328 101.744513 27.129907 
C 100.693686 27.908485 100.103255 28.964613 100.103255 30.065689 
C 100.103255 31.166766 100.693686 32.222893 101.744513 33.001472 
C 102.795339 33.780051 104.220766 34.217513 105.706859 34.217513 
z
" style="fill:#0000ff;opacity:0.2;stroke:#0000ff;stroke-linejoin:miter;stroke-width:2;"/>
   </g>
   <g id="[&quot;g_s&quot;:10,&quot;g_t&quot;:10,&quot;coords&quot;:[[162.0, -320.0],[164.0, -298.0]],&quot;certainty&quot;:11]">
    <path clip-path="url(#pade851572f)" d="M 103.838991 49.440867 
C 105.325084 49.440867 106.750511 49.003405 107.801337 48.224826 
C 108.852164 47.446247 109.442595 46.39012 109.442595 45.289043 
C 109.442595 44.187967 108.852164 43.131839 107.801337 42.353261 
C 106.750511 41.574682 105.325084 41.13722 103.838991 41.13722 
C 102.352898 41.13722 100.927471 41.574682 99.876645 42.353261 
C 98.825818 43.131839 98.235387 44.187967 98.235387 45.289043 
C 98.235387 46.39012 98.825818 47.446247 99.876645 48.224826 
C 100.927471 49.003405 102.352898 49.440867 103.838991 49.440867 
z
" style="fill:#ff0000;opacity:0.2;stroke:#ff0000;stroke-linejoin:miter;stroke-width:2;"/>
   </g>
   <g id="patch_37">
    <path d="M 105.706859 30.065689 
Q 104.894911 36.683165 104.341306 41.195111 
" style="fill:none;opacity:0.5;stroke:#0000ff;stroke-linecap:round;stroke-width:3;"/>
    <path d="M 106.012818 39.888952 
L 104.341306 41.195111 
L 103.035148 39.5236 
" style="fill:none;opacity:0.5;stroke:#0000ff;stroke-linecap:round;stroke-width:3;"/>
   </g>
   <g id="[&quot;g_s&quot;:11,&quot;g_t&quot;:11,&quot;coords&quot;:[[310.0, -444.0],[310.0, -468.0]],&quot;certainty&quot;:11]">
    <path clip-path="url(#pade851572f)" d="M 242.061221 135.245226 
C 243.547314 135.245226 244.97274 134.807763 246.023567 134.029185 
C 247.074393 133.250606 247.664824 132.194479 247.664824 131.093402 
C 247.664824 129.992325 247.074393 128.936198 246.023567 128.157619 
C 244.97274 127.379041 243.547314 126.941578 242.061221 126.941578 
C 240.575127 126.941578 239.149701 127.379041 238.098874 128.157619 
C 237.048048 128.936198 236.457617 129.992325 236.457617 131.093402 
C 236.457617 132.194479 237.048048 133.250606 238.098874 134.029185 
C 239.149701 134.807763 240.575127 135.245226 242.061221 135.245226 
z
" style="fill:#0000ff;opacity:0.2;stroke:#0000ff;stroke-linejoin:miter;stroke-width:2;"/>
   </g>
   <g id="[&quot;g_s&quot;:11,&quot;g_t&quot;:11,&quot;coords&quot;:[[310.0, -468.0],[310.0, -444.0]],&quot;certainty&quot;:11]">
    <path clip-path="url(#pade851572f)" d="M 242.061221 151.852521 
C 243.547314 151.852521 244.97274 151.415059 246.023567 150.63648 
C 247.074393 149.857901 247.664824 148.801774 247.664824 147.700697 
C 247.664824 146.599621 247.074393 145.543493 246.023567 144.764914 
C 244.97274 143.986336 243.547314 143.548873 242.061221 143.548873 
C 240.575127 143.548873 239.149701 143.986336 238.098874 144.764914 
C 237.048048 145.543493 236.457617 146.599621 236.457617 147.700697 
C 236.457617 148.801774 237.048048 149.857901 238.098874 150.63648 
C 239.149701 151.415059 240.575127 151.852521 242.061221 151.852521 
z
" style="fill:#ff0000;opacity:0.2;stroke:#ff0000;stroke-linejoin:miter;stroke-width:2;"/>
   </g>
   <g id="patch_38">
    <path d="M 242.061221 131.093402 
Q 242.061221 138.397612 242.061221 143.580501 
" style="fill:none;opacity:0.5;stroke:#0000ff;stroke-linecap:round;stroke-width:3;"/>
    <path d="M 243.561221 142.080501 
L 242.061221 143.580501 
L 240.561221 142.080501 
" style="fill:none;opacity:0.5;stroke:#0000ff;stroke-linecap:round;stroke-width:3;"/>
   </g>
   <g id="[&quot;g_s&quot;:12,&quot;g_t&quot;:12,&quot;coords&quot;:[[456.0, -296.0],[459.0, -318.0]],&quot;certainty&quot;:12]">
    <path clip-path="url(#pade851572f)" d="M 378.415582 33.179557 
C 380.025516 33.179557 381.569728 32.70564 382.708124 31.862179 
C 383.846519 31.018719 384.486153 29.874581 384.486153 28.681748 
C 384.486153 27.488915 383.846519 26.344777 382.708124 25.501317 
C 381.569728 24.657857 380.025516 24.183939 378.415582 24.183939 
C 376.805648 24.183939 375.261436 24.657857 374.12304 25.501317 
C 372.984645 26.344777 372.345011 27.488915 372.345011 28.681748 
C 372.345011 29.874581 372.984645 31.018719 374.12304 31.862179 
C 375.261436 32.70564 376.805648 33.179557 378.415582 33.179557 
z
" style="fill:#0000ff;opacity:0.2;stroke:#0000ff;stroke-linejoin:miter;stroke-width:2;"/>
   </g>
   <g id="[&quot;g_s&quot;:12,&quot;g_t&quot;:12,&quot;coords&quot;:[[459.0, -318.0],[456.0, -296.0]],&quot;certainty&quot;:12]">
    <path clip-path="url(#pade851572f)" d="M 381.217384 48.402911 
C 382.827318 48.402911 384.37153 47.928994 385.509926 47.085533 
C 386.648321 46.242073 387.287955 45.097935 387.287955 43.905102 
C 387.287955 42.712269 386.648321 41.568131 385.509926 40.724671 
C 384.37153 39.88121 382.827318 39.407293 381.217384 39.407293 
C 379.60745 39.407293 378.063237 39.88121 376.924842 40.724671 
C 375.786447 41.568131 375.146813 42.712269 375.146813 43.905102 
C 375.146813 45.097935 375.786447 46.242073 376.924842 47.085533 
C 378.063237 47.928994 379.60745 48.402911 381.217384 48.402911 
z
" style="fill:#ff0000;opacity:0.2;stroke:#ff0000;stroke-linejoin:miter;stroke-width:2;"/>
   </g>
   <g id="patch_39">
    <path d="M 378.415582 28.681748 
Q 379.635556 35.310374 380.43956 39.678863 
" style="fill:none;opacity:0.5;stroke:#0000ff;stroke-linecap:round;stroke-width:3.25;"/>
    <path d="M 381.643274 37.932131 
L 380.43956 39.678863 
L 378.692828 38.475149 
" style="fill:none;opacity:0.5;stroke:#0000ff;stroke-linecap:round;stroke-width:3.25;"/>
   </g>
   <g id="[&quot;g_s&quot;:1,&quot;g_t&quot;:1,&quot;coords&quot;:[[496.0, -356.0],[508.0, -349.0]],&quot;certainty&quot;:11]">
    <path clip-path="url(#pade851572f)" d="M 415.772941 74.35181 
C 417.259034 74.35181 418.684461 73.914348 419.735288 73.135769 
C 420.786114 72.35719 421.376545 71.301063 421.376545 70.199986 
C 421.376545 69.09891 420.786114 68.042782 419.735288 67.264203 
C 418.684461 66.485625 417.259034 66.048162 415.772941 66.048162 
C 414.286848 66.048162 412.861421 66.485625 411.810595 67.264203 
C 410.759768 68.042782 410.169337 69.09891 410.169337 70.199986 
C 410.169337 71.301063 410.759768 72.35719 411.810595 73.135769 
C 412.861421 73.914348 414.286848 74.35181 415.772941 74.35181 
z
" style="fill:#0000ff;opacity:0.2;stroke:#0000ff;stroke-linejoin:miter;stroke-width:2;"/>
   </g>
   <g id="[&quot;g_s&quot;:1,&quot;g_t&quot;:1,&quot;coords&quot;:[[508.0, -349.0],[496.0, -356.0]],&quot;certainty&quot;:11]">
    <path clip-path="url(#pade851572f)" d="M 426.980149 69.508016 
C 428.466242 69.508016 429.891669 69.070553 430.942495 68.291974 
C 431.993322 67.513396 432.583753 66.457268 432.583753 65.356192 
C 432.583753 64.255115 431.993322 63.198988 430.942495 62.420409 
C 429.891669 61.64183 428.466242 61.204368 426.980149 61.204368 
C 425.494056 61.204368 424.068629 61.64183 423.017803 62.420409 
C 421.966976 63.198988 421.376545 64.255115 421.376545 65.356192 
C 421.376545 66.457268 421.966976 67.513396 423.017803 68.291974 
C 424.068629 69.070553 425.494056 69.508016 426.980149 69.508016 
z
" style="fill:#ff0000;opacity:0.2;stroke:#ff0000;stroke-linejoin:miter;stroke-width:2;"/>
   </g>
   <g id="patch_40">
    <path d="M 415.772941 70.199986 
Q 420.458572 68.17484 423.196972 66.991294 
" style="fill:none;opacity:0.5;stroke:#ff0000;stroke-linecap:round;stroke-width:3;"/>
    <path d="M 421.22497 66.209495 
L 423.196972 66.991294 
L 422.415172 68.963296 
" style="fill:none;opacity:0.5;stroke:#ff0000;stroke-linecap:round;stroke-width:3;"/>
   </g>
   <g id="[&quot;g_s&quot;:2,&quot;g_t&quot;:2,&quot;coords&quot;:[[348.0, -506.0],[362.0, -496.0]],&quot;certainty&quot;:11]">
    <path clip-path="url(#pade851572f)" d="M 277.550712 178.147405 
C 279.036805 178.147405 280.462232 177.709943 281.513058 176.931364 
C 282.563885 176.152785 283.154316 175.096658 283.154316 173.995581 
C 283.154316 172.894505 282.563885 171.838377 281.513058 171.059799 
C 280.462232 170.28122 279.036805 169.843758 277.550712 169.843758 
C 276.064619 169.843758 274.639192 170.28122 273.588366 171.059799 
C 272.537539 171.838377 271.947108 172.894505 271.947108 173.995581 
C 271.947108 175.096658 272.537539 176.152785 273.588366 176.931364 
C 274.639192 177.709943 276.064619 178.147405 277.550712 178.147405 
z
" style="fill:#0000ff;opacity:0.2;stroke:#0000ff;stroke-linejoin:miter;stroke-width:2;"/>
   </g>
   <g id="[&quot;g_s&quot;:2,&quot;g_t&quot;:2,&quot;coords&quot;:[[362.0, -496.0],[348.0, -506.0]],&quot;certainty&quot;:11]">
    <path clip-path="url(#pade851572f)" d="M 290.625788 171.227699 
C 292.111881 171.227699 293.537307 170.790236 294.588134 170.011658 
C 295.63896 169.233079 296.229392 168.176952 296.229392 167.075875 
C 296.229392 165.974798 295.63896 164.918671 294.588134 164.140092 
C 293.537307 163.361514 292.111881 162.924051 290.625788 162.924051 
C 289.139694 162.924051 287.714268 163.361514 286.663441 164.140092 
C 285.612615 164.918671 285.022184 165.974798 285.022184 167.075875 
C 285.022184 168.176952 285.612615 169.233079 286.663441 170.011658 
C 287.714268 170.790236 289.139694 171.227699 290.625788 171.227699 
z
" style="fill:#ff0000;opacity:0.2;stroke:#ff0000;stroke-linejoin:miter;stroke-width:2;"/>
   </g>
   <g id="patch_41">
    <path d="M 277.550712 173.995581 
Q 283.205618 171.002842 286.985586 169.002375 
" style="fill:none;opacity:0.5;stroke:#ff0000;stroke-linecap:round;stroke-width:3;"/>
    <path d="M 284.958161 168.378235 
L 286.985586 169.002375 
L 286.361445 171.029799 
" style="fill:none;opacity:0.5;stroke:#ff0000;stroke-linecap:round;stroke-width:3;"/>
   </g>
   <g id="[&quot;g_s&quot;:3,&quot;g_t&quot;:3,&quot;coords&quot;:[[496.0, -655.0],[508.0, -642.0]],&quot;certainty&quot;:11]">
    <path clip-path="url(#pade851572f)" d="M 415.772941 281.25103 
C 417.259034 281.25103 418.684461 280.813567 419.735288 280.034989 
C 420.786114 279.25641 421.376545 278.200282 421.376545 277.099206 
C 421.376545 275.998129 420.786114 274.942002 419.735288 274.163423 
C 418.684461 273.384844 417.259034 272.947382 415.772941 272.947382 
C 414.286848 272.947382 412.861421 273.384844 411.810595 274.163423 
C 410.759768 274.942002 410.169337 275.998129 410.169337 277.099206 
C 410.169337 278.200282 410.759768 279.25641 411.810595 280.034989 
C 412.861421 280.813567 414.286848 281.25103 415.772941 281.25103 
z
" style="fill:#0000ff;opacity:0.2;stroke:#0000ff;stroke-linejoin:miter;stroke-width:2;"/>
   </g>
   <g id="[&quot;g_s&quot;:3,&quot;g_t&quot;:3,&quot;coords&quot;:[[508.0, -642.0],[496.0, -655.0]],&quot;certainty&quot;:11]">
    <path clip-path="url(#pade851572f)" d="M 426.980149 272.255411 
C 428.466242 272.255411 429.891669 271.817949 430.942495 271.03937 
C 431.993322 270.260792 432.583753 269.204664 432.583753 268.103588 
C 432.583753 267.002511 431.993322 265.946384 430.942495 265.167805 
C 429.891669 264.389226 428.466242 263.951764 426.980149 263.951764 
C 425.494056 263.951764 424.068629 264.389226 423.017803 265.167805 
C 421.966976 265.946384 421.376545 267.002511 421.376545 268.103588 
C 421.376545 269.204664 421.966976 270.260792 423.017803 271.03937 
C 424.068629 271.817949 425.494056 272.255411 426.980149 272.255411 
z
" style="fill:#ff0000;opacity:0.2;stroke:#ff0000;stroke-linejoin:miter;stroke-width:2;"/>
   </g>
   <g id="patch_42">
    <path d="M 415.772941 277.099206 
Q 420.595379 273.228411 423.763495 270.685479 
" style="fill:none;opacity:0.5;stroke:#ff0000;stroke-linecap:round;stroke-width:3;"/>
    <path d="M 421.654772 270.454638 
L 423.763495 270.685479 
L 423.532655 272.794202 
" style="fill:none;opacity:0.5;stroke:#ff0000;stroke-linecap:round;stroke-width:3;"/>
   </g>
   <g id="[&quot;g_s&quot;:4,&quot;g_t&quot;:4,&quot;coords&quot;:[[459.0, -694.0],[456.0, -696.0]],&quot;certainty&quot;:10]">
    <path clip-path="url(#pade851572f)" d="M 381.217384 307.891899 
C 382.579636 307.891899 383.886277 307.490892 384.849535 306.777195 
C 385.812792 306.063498 386.354021 305.095381 386.354021 304.086061 
C 386.354021 303.07674 385.812792 302.108624 384.849535 301.394926 
C 383.886277 300.681229 382.579636 300.280222 381.217384 300.280222 
C 379.855132 300.280222 378.548491 300.681229 377.585233 301.394926 
C 376.621975 302.108624 376.080747 303.07674 376.080747 304.086061 
C 376.080747 305.095381 376.621975 306.063498 377.585233 306.777195 
C 378.548491 307.490892 379.855132 307.891899 381.217384 307.891899 
z
" style="fill:#0000ff;opacity:0.2;stroke:#0000ff;stroke-linejoin:miter;stroke-width:2;"/>
   </g>
   <g id="[&quot;g_s&quot;:4,&quot;g_t&quot;:4,&quot;coords&quot;:[[456.0, -696.0],[459.0, -694.0]],&quot;certainty&quot;:10]">
    <path clip-path="url(#pade851572f)" d="M 378.415582 309.27584 
C 379.777834 309.27584 381.084475 308.874833 382.047733 308.161136 
C 383.01099 307.447439 383.552219 306.479322 383.552219 305.470002 
C 383.552219 304.460682 383.01099 303.492565 382.047733 302.778868 
C 381.084475 302.065171 379.777834 301.664163 378.415582 301.664163 
C 377.05333 301.664163 375.746689 302.065171 374.783431 302.778868 
C 373.820174 303.492565 373.278945 304.460682 373.278945 305.470002 
C 373.278945 306.479322 373.820174 307.447439 374.783431 308.161136 
C 375.746689 308.874833 377.05333 309.27584 378.415582 309.27584 
z
" style="fill:#ff0000;opacity:0.2;stroke:#ff0000;stroke-linejoin:miter;stroke-width:2;"/>
   </g>
   <g id="patch_43">
    <path d="M 381.217384 304.086061 
Q 380.712567 304.335413 381.951204 303.723593 
" style="fill:none;opacity:0.5;stroke:#ff0000;stroke-linecap:round;stroke-width:2.75;"/>
    <path d="M 383.960385 304.404174 
L 381.951204 303.723593 
L 382.631785 301.714411 
" style="fill:none;opacity:0.5;stroke:#ff0000;stroke-linecap:round;stroke-width:2.75;"/>
   </g>
   <g id="[&quot;g_s&quot;:5,&quot;g_t&quot;:5,&quot;coords&quot;:[[310.0, -544.0],[309.0, -549.0]],&quot;certainty&quot;:11]">
    <path clip-path="url(#pade851572f)" d="M 242.061221 204.442289 
C 243.547314 204.442289 244.97274 204.004827 246.023567 203.226248 
C 247.074393 202.44767 247.664824 201.391542 247.664824 200.290465 
C 247.664824 199.189389 247.074393 198.133261 246.023567 197.354683 
C 244.97274 196.576104 243.547314 196.138642 242.061221 196.138642 
C 240.575127 196.138642 239.149701 196.576104 238.098874 197.354683 
C 237.048048 198.133261 236.457617 199.189389 236.457617 200.290465 
C 236.457617 201.391542 237.048048 202.44767 238.098874 203.226248 
C 239.149701 204.004827 240.575127 204.442289 242.061221 204.442289 
z
" style="fill:#0000ff;opacity:0.2;stroke:#0000ff;stroke-linejoin:miter;stroke-width:2;"/>
   </g>
   <g id="[&quot;g_s&quot;:5,&quot;g_t&quot;:5,&quot;coords&quot;:[[309.0, -549.0],[310.0, -544.0]],&quot;certainty&quot;:11]">
    <path clip-path="url(#pade851572f)" d="M 241.127287 207.902142 
C 242.61338 207.902142 244.038806 207.46468 245.089633 206.686101 
C 246.140459 205.907523 246.73089 204.851395 246.73089 203.750319 
C 246.73089 202.649242 246.140459 201.593115 245.089633 200.814536 
C 244.038806 200.035957 242.61338 199.598495 241.127287 199.598495 
C 239.641193 199.598495 238.215767 200.035957 237.16494 200.814536 
C 236.114114 201.593115 235.523683 202.649242 235.523683 203.750319 
C 235.523683 204.851395 236.114114 205.907523 237.16494 206.686101 
C 238.215767 207.46468 239.641193 207.902142 241.127287 207.902142 
z
" style="fill:#ff0000;opacity:0.2;stroke:#ff0000;stroke-linejoin:miter;stroke-width:2;"/>
   </g>
   <g id="patch_44">
    <path d="M 242.061221 200.290465 
Q 241.854642 201.055755 242.200895 199.773027 
" style="fill:none;opacity:0.5;stroke:#ff0000;stroke-linecap:round;stroke-width:3;"/>
    <path d="M 244.039973 198.71577 
L 242.200895 199.773027 
L 241.143638 197.933949 
" style="fill:none;opacity:0.5;stroke:#ff0000;stroke-linecap:round;stroke-width:3;"/>
   </g>
   <g id="[&quot;g_s&quot;:6,&quot;g_t&quot;:6,&quot;coords&quot;:[[162.0, -694.0],[164.0, -696.0]],&quot;certainty&quot;:11]">
    <path clip-path="url(#pade851572f)" d="M 103.838991 308.237884 
C 105.325084 308.237884 106.750511 307.800422 107.801337 307.021843 
C 108.852164 306.243265 109.442595 305.187137 109.442595 304.086061 
C 109.442595 302.984984 108.852164 301.928857 107.801337 301.150278 
C 106.750511 300.371699 105.325084 299.934237 103.838991 299.934237 
C 102.352898 299.934237 100.927471 300.371699 99.876645 301.150278 
C 98.825818 301.928857 98.235387 302.984984 98.235387 304.086061 
C 98.235387 305.187137 98.825818 306.243265 99.876645 307.021843 
C 100.927471 307.800422 102.352898 308.237884 103.838991 308.237884 
z
" style="fill:#0000ff;opacity:0.2;stroke:#0000ff;stroke-linejoin:miter;stroke-width:2;"/>
   </g>
   <g id="[&quot;g_s&quot;:6,&quot;g_t&quot;:6,&quot;coords&quot;:[[164.0, -696.0],[162.0, -694.0]],&quot;certainty&quot;:11]">
    <path clip-path="url(#pade851572f)" d="M 105.706859 309.621826 
C 107.192952 309.621826 108.618379 309.184363 109.669205 308.405785 
C 110.720032 307.627206 111.310463 306.571078 111.310463 305.470002 
C 111.310463 304.368925 110.720032 303.312798 109.669205 302.534219 
C 108.618379 301.75564 107.192952 301.318178 105.706859 301.318178 
C 104.220766 301.318178 102.795339 301.75564 101.744513 302.534219 
C 100.693686 303.312798 100.103255 304.368925 100.103255 305.470002 
C 100.103255 306.571078 100.693686 307.627206 101.744513 308.405785 
C 102.795339 309.184363 104.220766 309.621826 105.706859 309.621826 
z
" style="fill:#ff0000;opacity:0.2;stroke:#ff0000;stroke-linejoin:miter;stroke-width:2;"/>
   </g>
   <g id="patch_45">
    <path d="M 103.838991 304.086061 
Q 103.968501 304.182018 102.393556 303.015108 
" style="fill:none;opacity:0.5;stroke:#ff0000;stroke-linecap:round;stroke-width:3;"/>
    <path d="M 102.081305 300.916895 
L 102.393556 303.015108 
L 100.295343 303.32736 
" style="fill:none;opacity:0.5;stroke:#ff0000;stroke-linecap:round;stroke-width:3;"/>
   </g>
   <g id="[&quot;g_s&quot;:7,&quot;g_t&quot;:7,&quot;coords&quot;:[[125.0, -655.0],[113.0, -642.0]],&quot;certainty&quot;:11]">
    <path clip-path="url(#pade851572f)" d="M 69.283434 281.25103 
C 70.769527 281.25103 72.194954 280.813567 73.24578 280.034989 
C 74.296607 279.25641 74.887038 278.200282 74.887038 277.099206 
C 74.887038 275.998129 74.296607 274.942002 73.24578 274.163423 
C 72.194954 273.384844 70.769527 272.947382 69.283434 272.947382 
C 67.797341 272.947382 66.371914 273.384844 65.321087 274.163423 
C 64.270261 274.942002 63.67983 275.998129 63.67983 277.099206 
C 63.67983 278.200282 64.270261 279.25641 65.321087 280.034989 
C 66.371914 280.813567 67.797341 281.25103 69.283434 281.25103 
z
" style="fill:#0000ff;opacity:0.2;stroke:#0000ff;stroke-linejoin:miter;stroke-width:2;"/>
   </g>
   <g id="[&quot;g_s&quot;:7,&quot;g_t&quot;:7,&quot;coords&quot;:[[113.0, -642.0],[125.0, -655.0]],&quot;certainty&quot;:11]">
    <path clip-path="url(#pade851572f)" d="M 58.076226 272.255411 
C 59.562319 272.255411 60.987746 271.817949 62.038572 271.03937 
C 63.089399 270.260792 63.67983 269.204664 63.67983 268.103588 
C 63.67983 267.002511 63.089399 265.946384 62.038572 265.167805 
C 60.987746 264.389226 59.562319 263.951764 58.076226 263.951764 
C 56.590133 263.951764 55.164706 264.389226 54.11388 265.167805 
C 53.063053 265.946384 52.472622 267.002511 52.472622 268.103588 
C 52.472622 269.204664 53.063053 270.260792 54.11388 271.03937 
C 55.164706 271.817949 56.590133 272.255411 58.076226 272.255411 
z
" style="fill:#ff0000;opacity:0.2;stroke:#ff0000;stroke-linejoin:miter;stroke-width:2;"/>
   </g>
   <g id="patch_46">
    <path d="M 69.283434 277.099206 
Q 64.460996 273.228411 61.29288 270.685479 
" style="fill:none;opacity:0.5;stroke:#ff0000;stroke-linecap:round;stroke-width:3;"/>
    <path d="M 61.52372 272.794202 
L 61.29288 270.685479 
L 63.401603 270.454638 
" style="fill:none;opacity:0.5;stroke:#ff0000;stroke-linecap:round;stroke-width:3;"/>
   </g>
   <g id="[&quot;g_s&quot;:8,&quot;g_t&quot;:8,&quot;coords&quot;:[[272.0, -506.0],[257.0, -497.0]],&quot;certainty&quot;:11]">
    <path clip-path="url(#pade851572f)" d="M 206.571729 178.147405 
C 208.057822 178.147405 209.483249 177.709943 210.534075 176.931364 
C 211.584902 176.152785 212.175333 175.096658 212.175333 173.995581 
C 212.175333 172.894505 211.584902 171.838377 210.534075 171.059799 
C 209.483249 170.28122 208.057822 169.843758 206.571729 169.843758 
C 205.085636 169.843758 203.660209 170.28122 202.609383 171.059799 
C 201.558556 171.838377 200.968125 172.894505 200.968125 173.995581 
C 200.968125 175.096658 201.558556 176.152785 202.609383 176.931364 
C 203.660209 177.709943 205.085636 178.147405 206.571729 178.147405 
z
" style="fill:#0000ff;opacity:0.2;stroke:#0000ff;stroke-linejoin:miter;stroke-width:2;"/>
   </g>
   <g id="[&quot;g_s&quot;:8,&quot;g_t&quot;:8,&quot;coords&quot;:[[257.0, -497.0],[272.0, -506.0]],&quot;certainty&quot;:11]">
    <path clip-path="url(#pade851572f)" d="M 192.562719 171.919669 
C 194.048813 171.919669 195.474239 171.482207 196.525066 170.703628 
C 197.575892 169.92505 198.166323 168.868922 198.166323 167.767846 
C 198.166323 166.666769 197.575892 165.610642 196.525066 164.832063 
C 195.474239 164.053484 194.048813 163.616022 192.562719 163.616022 
C 191.076626 163.616022 189.6512 164.053484 188.600373 164.832063 
C 187.549547 165.610642 186.959116 166.666769 186.959116 167.767846 
C 186.959116 168.868922 187.549547 169.92505 188.600373 170.703628 
C 189.6512 171.482207 191.076626 171.919669 192.562719 171.919669 
z
" style="fill:#ff0000;opacity:0.2;stroke:#ff0000;stroke-linejoin:miter;stroke-width:2;"/>
   </g>
   <g id="patch_47">
    <path d="M 206.571729 173.995581 
Q 200.482119 171.288432 196.330919 169.443007 
" style="fill:none;opacity:0.5;stroke:#ff0000;stroke-linecap:round;stroke-width:3;"/>
    <path d="M 197.092251 171.423 
L 196.330919 169.443007 
L 198.310913 168.681675 
" style="fill:none;opacity:0.5;stroke:#ff0000;stroke-linecap:round;stroke-width:3;"/>
   </g>
   <g id="[&quot;g_s&quot;:9,&quot;g_t&quot;:9,&quot;coords&quot;:[[125.0, -359.0],[113.0, -352.0]],&quot;certainty&quot;:11]">
    <path clip-path="url(#pade851572f)" d="M 69.283434 76.427722 
C 70.769527 76.427722 72.194954 75.99026 73.24578 75.211681 
C 74.296607 74.433102 74.887038 73.376975 74.887038 72.275898 
C 74.887038 71.174822 74.296607 70.118694 73.24578 69.340115 
C 72.194954 68.561537 70.769527 68.124074 69.283434 68.124074 
C 67.797341 68.124074 66.371914 68.561537 65.321087 69.340115 
C 64.270261 70.118694 63.67983 71.174822 63.67983 72.275898 
C 63.67983 73.376975 64.270261 74.433102 65.321087 75.211681 
C 66.371914 75.99026 67.797341 76.427722 69.283434 76.427722 
z
" style="fill:#0000ff;opacity:0.2;stroke:#0000ff;stroke-linejoin:miter;stroke-width:2;"/>
   </g>
   <g id="[&quot;g_s&quot;:9,&quot;g_t&quot;:9,&quot;coords&quot;:[[113.0, -352.0],[125.0, -359.0]],&quot;certainty&quot;:11]">
    <path clip-path="url(#pade851572f)" d="M 58.076226 71.583927 
C 59.562319 71.583927 60.987746 71.146465 62.038572 70.367886 
C 63.089399 69.589308 63.67983 68.53318 63.67983 67.432104 
C 63.67983 66.331027 63.089399 65.2749 62.038572 64.496321 
C 60.987746 63.717742 59.562319 63.28028 58.076226 63.28028 
C 56.590133 63.28028 55.164706 63.717742 54.11388 64.496321 
C 53.063053 65.2749 52.472622 66.331027 52.472622 67.432104 
C 52.472622 68.53318 53.063053 69.589308 54.11388 70.367886 
C 55.164706 71.146465 56.590133 71.583927 58.076226 71.583927 
z
" style="fill:#ff0000;opacity:0.2;stroke:#ff0000;stroke-linejoin:miter;stroke-width:2;"/>
   </g>
   <g id="patch_48">
    <path d="M 69.283434 72.275898 
Q 64.597803 70.250752 61.859403 69.067206 
" style="fill:none;opacity:0.5;stroke:#ff0000;stroke-linecap:round;stroke-width:3;"/>
    <path d="M 62.641203 71.039208 
L 61.859403 69.067206 
L 63.831405 68.285407 
" style="fill:none;opacity:0.5;stroke:#ff0000;stroke-linecap:round;stroke-width:3;"/>
   </g>
   <g id="[&quot;g_s&quot;:10,&quot;g_t&quot;:10,&quot;coords&quot;:[[162.0, -320.0],[164.0, -298.0]],&quot;certainty&quot;:11]">
    <path clip-path="url(#pade851572f)" d="M 103.838991 49.440867 
C 105.325084 49.440867 106.750511 49.003405 107.801337 48.224826 
C 108.852164 47.446247 109.442595 46.39012 109.442595 45.289043 
C 109.442595 44.187967 108.852164 43.131839 107.801337 42.353261 
C 106.750511 41.574682 105.325084 41.13722 103.838991 41.13722 
C 102.352898 41.13722 100.927471 41.574682 99.876645 42.353261 
C 98.825818 43.131839 98.235387 44.187967 98.235387 45.289043 
C 98.235387 46.39012 98.825818 47.446247 99.876645 48.224826 
C 100.927471 49.003405 102.352898 49.440867 103.838991 49.440867 
z
" style="fill:#0000ff;opacity:0.2;stroke:#0000ff;stroke-linejoin:miter;stroke-width:2;"/>
   </g>
   <g id="[&quot;g_s&quot;:10,&quot;g_t&quot;:10,&quot;coords&quot;:[[164.0, -298.0],[162.0, -320.0]],&quot;certainty&quot;:11]">
    <path clip-path="url(#pade851572f)" d="M 105.706859 34.217513 
C 107.192952 34.217513 108.618379 33.780051 109.669205 33.001472 
C 110.720032 32.222893 111.310463 31.166766 111.310463 30.065689 
C 111.310463 28.964613 110.720032 27.908485 109.669205 27.129907 
C 108.618379 26.351328 107.192952 25.913866 105.706859 25.913866 
C 104.220766 25.913866 102.795339 26.351328 101.744513 27.129907 
C 100.693686 27.908485 100.103255 28.964613 100.103255 30.065689 
C 100.103255 31.166766 100.693686 32.222893 101.744513 33.001472 
C 102.795339 33.780051 104.220766 34.217513 105.706859 34.217513 
z
" style="fill:#ff0000;opacity:0.2;stroke:#ff0000;stroke-linejoin:miter;stroke-width:2;"/>
   </g>
   <g id="patch_49">
    <path d="M 103.838991 45.289043 
Q 104.650939 38.671567 105.204544 34.159622 
" style="fill:none;opacity:0.5;stroke:#ff0000;stroke-linecap:round;stroke-width:3;"/>
    <path d="M 103.533032 35.46578 
L 105.204544 34.159622 
L 106.510702 35.831133 
" style="fill:none;opacity:0.5;stroke:#ff0000;stroke-linecap:round;stroke-width:3;"/>
   </g>
   <g id="[&quot;g_s&quot;:11,&quot;g_t&quot;:11,&quot;coords&quot;:[[310.0, -468.0],[310.0, -444.0]],&quot;certainty&quot;:11]">
    <path clip-path="url(#pade851572f)" d="M 242.061221 151.852521 
C 243.547314 151.852521 244.97274 151.415059 246.023567 150.63648 
C 247.074393 149.857901 247.664824 148.801774 247.664824 147.700697 
C 247.664824 146.599621 247.074393 145.543493 246.023567 144.764914 
C 244.97274 143.986336 243.547314 143.548873 242.061221 143.548873 
C 240.575127 143.548873 239.149701 143.986336 238.098874 144.764914 
C 237.048048 145.543493 236.457617 146.599621 236.457617 147.700697 
C 236.457617 148.801774 237.048048 149.857901 238.098874 150.63648 
C 239.149701 151.415059 240.575127 151.852521 242.061221 151.852521 
z
" style="fill:#0000ff;opacity:0.2;stroke:#0000ff;stroke-linejoin:miter;stroke-width:2;"/>
   </g>
   <g id="[&quot;g_s&quot;:11,&quot;g_t&quot;:11,&quot;coords&quot;:[[310.0, -444.0],[310.0, -468.0]],&quot;certainty&quot;:11]">
    <path clip-path="url(#pade851572f)" d="M 242.061221 135.245226 
C 243.547314 135.245226 244.97274 134.807763 246.023567 134.029185 
C 247.074393 133.250606 247.664824 132.194479 247.664824 131.093402 
C 247.664824 129.992325 247.074393 128.936198 246.023567 128.157619 
C 244.97274 127.379041 243.547314 126.941578 242.061221 126.941578 
C 240.575127 126.941578 239.149701 127.379041 238.098874 128.157619 
C 237.048048 128.936198 236.457617 129.992325 236.457617 131.093402 
C 236.457617 132.194479 237.048048 133.250606 238.098874 134.029185 
C 239.149701 134.807763 240.575127 135.245226 242.061221 135.245226 
z
" style="fill:#ff0000;opacity:0.2;stroke:#ff0000;stroke-linejoin:miter;stroke-width:2;"/>
   </g>
   <g id="patch_50">
    <path d="M 242.061221 147.700697 
Q 242.061221 140.396488 242.061221 135.213598 
" style="fill:none;opacity:0.5;stroke:#ff0000;stroke-linecap:round;stroke-width:3;"/>
    <path d="M 240.561221 136.713598 
L 242.061221 135.213598 
L 243.561221 136.713598 
" style="fill:none;opacity:0.5;stroke:#ff0000;stroke-linecap:round;stroke-width:3;"/>
   </g>
   <g id="[&quot;g_s&quot;:12,&quot;g_t&quot;:12,&quot;coords&quot;:[[459.0, -318.0],[456.0, -296.0]],&quot;certainty&quot;:12]">
    <path clip-path="url(#pade851572f)" d="M 381.217384 48.402911 
C 382.827318 48.402911 384.37153 47.928994 385.509926 47.085533 
C 386.648321 46.242073 387.287955 45.097935 387.287955 43.905102 
C 387.287955 42.712269 386.648321 41.568131 385.509926 40.724671 
C 384.37153 39.88121 382.827318 39.407293 381.217384 39.407293 
C 379.60745 39.407293 378.063237 39.88121 376.924842 40.724671 
C 375.786447 41.568131 375.146813 42.712269 375.146813 43.905102 
C 375.146813 45.097935 375.786447 46.242073 376.924842 47.085533 
C 378.063237 47.928994 379.60745 48.402911 381.217384 48.402911 
z
" style="fill:#0000ff;opacity:0.2;stroke:#0000ff;stroke-linejoin:miter;stroke-width:2;"/>
   </g>
   <g id="[&quot;g_s&quot;:12,&quot;g_t&quot;:12,&quot;coords&quot;:[[456.0, -296.0],[459.0, -318.0]],&quot;certainty&quot;:12]">
    <path clip-path="url(#pade851572f)" d="M 378.415582 33.179557 
C 380.025516 33.179557 381.569728 32.70564 382.708124 31.862179 
C 383.846519 31.018719 384.486153 29.874581 384.486153 28.681748 
C 384.486153 27.488915 383.846519 26.344777 382.708124 25.501317 
C 381.569728 24.657857 380.025516 24.183939 378.415582 24.183939 
C 376.805648 24.183939 375.261436 24.657857 374.12304 25.501317 
C 372.984645 26.344777 372.345011 27.488915 372.345011 28.681748 
C 372.345011 29.874581 372.984645 31.018719 374.12304 31.862179 
C 375.261436 32.70564 376.805648 33.179557 378.415582 33.179557 
z
" style="fill:#ff0000;opacity:0.2;stroke:#ff0000;stroke-linejoin:miter;stroke-width:2;"/>
   </g>
   <g id="patch_51">
    <path d="M 381.217384 43.905102 
Q 379.99741 37.276476 379.193406 32.907987 
" style="fill:none;opacity:0.5;stroke:#ff0000;stroke-linecap:round;stroke-width:3.25;"/>
    <path d="M 377.989692 34.654719 
L 379.193406 32.907987 
L 380.940138 34.111701 
" style="fill:none;opacity:0.5;stroke:#ff0000;stroke-linecap:round;stroke-width:3.25;"/>
   </g>
   <g id="patch_52">
    <path clip-path="url(#pade851572f)" d="M 421.376545 71.237942 
C 422.614956 71.237942 423.802812 70.87339 424.6785 70.224575 
C 425.554189 69.575759 426.046215 68.695653 426.046215 67.778089 
C 426.046215 66.860525 425.554189 65.980419 424.6785 65.331603 
C 423.802812 64.682788 422.614956 64.318236 421.376545 64.318236 
C 420.138134 64.318236 418.950279 64.682788 418.07459 65.331603 
C 417.198901 65.980419 416.706875 66.860525 416.706875 67.778089 
C 416.706875 68.695653 417.198901 69.575759 418.07459 70.224575 
C 418.950279 70.87339 420.138134 71.237942 421.376545 71.237942 
z
" style="fill:#008000;opacity:0.2;stroke:#008000;stroke-linejoin:miter;stroke-width:2;"/>
   </g>
   <g id="patch_53">
    <path clip-path="url(#pade851572f)" d="M 284.08825 173.995581 
C 285.326661 173.995581 286.514516 173.631029 287.390205 172.982214 
C 288.265894 172.333398 288.75792 171.453292 288.75792 170.535728 
C 288.75792 169.618164 288.265894 168.738058 287.390205 168.089243 
C 286.514516 167.440427 285.326661 167.075875 284.08825 167.075875 
C 282.849839 167.075875 281.661983 167.440427 280.786294 168.089243 
C 279.910606 168.738058 279.41858 169.618164 279.41858 170.535728 
C 279.41858 171.453292 279.910606 172.333398 280.786294 172.982214 
C 281.661983 173.631029 282.849839 173.995581 284.08825 173.995581 
z
" style="fill:#008000;opacity:0.2;stroke:#008000;stroke-linejoin:miter;stroke-width:2;"/>
   </g>
   <g id="patch_54">
    <path clip-path="url(#pade851572f)" d="M 421.376545 276.06125 
C 422.614956 276.06125 423.802812 275.696698 424.6785 275.047882 
C 425.554189 274.399067 426.046215 273.518961 426.046215 272.601397 
C 426.046215 271.683833 425.554189 270.803727 424.6785 270.154911 
C 423.802812 269.506096 422.614956 269.141544 421.376545 269.141544 
C 420.138134 269.141544 418.950279 269.506096 418.07459 270.154911 
C 417.198901 270.803727 416.706875 271.683833 416.706875 272.601397 
C 416.706875 273.518961 417.198901 274.399067 418.07459 275.047882 
C 418.950279 275.696698 420.138134 276.06125 421.376545 276.06125 
z
" style="fill:#008000;opacity:0.2;stroke:#008000;stroke-linejoin:miter;stroke-width:2;"/>
   </g>
   <g id="patch_55">
    <path clip-path="url(#pade851572f)" d="M 379.816483 308.237884 
C 381.054894 308.237884 382.242749 307.873332 383.118438 307.224517 
C 383.994127 306.575701 384.486153 305.695595 384.486153 304.778031 
C 384.486153 303.860467 383.994127 302.980361 383.118438 302.331546 
C 382.242749 301.68273 381.054894 301.318178 379.816483 301.318178 
C 378.578072 301.318178 377.390216 301.68273 376.514528 302.331546 
C 375.638839 302.980361 375.146813 303.860467 375.146813 304.778031 
C 375.146813 305.695595 375.638839 306.575701 376.514528 307.224517 
C 377.390216 307.873332 378.578072 308.237884 379.816483 308.237884 
z
" style="fill:#008000;opacity:0.2;stroke:#008000;stroke-linejoin:miter;stroke-width:2;"/>
   </g>
   <g id="patch_56">
    <path clip-path="url(#pade851572f)" d="M 241.594254 205.480245 
C 242.832664 205.480245 244.02052 205.115693 244.896209 204.466878 
C 245.771898 203.818062 246.263923 202.937956 246.263923 202.020392 
C 246.263923 201.102828 245.771898 200.222722 244.896209 199.573906 
C 244.02052 198.925091 242.832664 198.560539 241.594254 198.560539 
C 240.355843 198.560539 239.167987 198.925091 238.292298 199.573906 
C 237.416609 200.222722 236.924584 201.102828 236.924584 202.020392 
C 236.924584 202.937956 237.416609 203.818062 238.292298 204.466878 
C 239.167987 205.115693 240.355843 205.480245 241.594254 205.480245 
z
" style="fill:#008000;opacity:0.2;stroke:#008000;stroke-linejoin:miter;stroke-width:2;"/>
   </g>
   <g id="patch_57">
    <path clip-path="url(#pade851572f)" d="M 104.772925 308.237884 
C 106.011336 308.237884 107.199192 307.873332 108.07488 307.224517 
C 108.950569 306.575701 109.442595 305.695595 109.442595 304.778031 
C 109.442595 303.860467 108.950569 302.980361 108.07488 302.331546 
C 107.199192 301.68273 106.011336 301.318178 104.772925 301.318178 
C 103.534514 301.318178 102.346659 301.68273 101.47097 302.331546 
C 100.595281 302.980361 100.103255 303.860467 100.103255 304.778031 
C 100.103255 305.695595 100.595281 306.575701 101.47097 307.224517 
C 102.346659 307.873332 103.534514 308.237884 104.772925 308.237884 
z
" style="fill:#008000;opacity:0.2;stroke:#008000;stroke-linejoin:miter;stroke-width:2;"/>
   </g>
   <g id="patch_58">
    <path clip-path="url(#pade851572f)" d="M 63.67983 276.06125 
C 64.918241 276.06125 66.106096 275.696698 66.981785 275.047882 
C 67.857474 274.399067 68.3495 273.518961 68.3495 272.601397 
C 68.3495 271.683833 67.857474 270.803727 66.981785 270.154911 
C 66.106096 269.506096 64.918241 269.141544 63.67983 269.141544 
C 62.441419 269.141544 61.253563 269.506096 60.377875 270.154911 
C 59.502186 270.803727 59.01016 271.683833 59.01016 272.601397 
C 59.01016 273.518961 59.502186 274.399067 60.377875 275.047882 
C 61.253563 275.696698 62.441419 276.06125 63.67983 276.06125 
z
" style="fill:#008000;opacity:0.2;stroke:#008000;stroke-linejoin:miter;stroke-width:2;"/>
   </g>
   <g id="patch_59">
    <path clip-path="url(#pade851572f)" d="M 199.567224 174.341567 
C 200.805635 174.341567 201.993491 173.977015 202.86918 173.328199 
C 203.744868 172.679384 204.236894 171.799277 204.236894 170.881713 
C 204.236894 169.96415 203.744868 169.084043 202.86918 168.435228 
C 201.993491 167.786412 200.805635 167.42186 199.567224 167.42186 
C 198.328813 167.42186 197.140958 167.786412 196.265269 168.435228 
C 195.38958 169.084043 194.897554 169.96415 194.897554 170.881713 
C 194.897554 171.799277 195.38958 172.679384 196.265269 173.328199 
C 197.140958 173.977015 198.328813 174.341567 199.567224 174.341567 
z
" style="fill:#008000;opacity:0.2;stroke:#008000;stroke-linejoin:miter;stroke-width:2;"/>
   </g>
   <g id="patch_60">
    <path clip-path="url(#pade851572f)" d="M 63.67983 73.313854 
C 64.918241 73.313854 66.106096 72.949302 66.981785 72.300486 
C 67.857474 71.651671 68.3495 70.771565 68.3495 69.854001 
C 68.3495 68.936437 67.857474 68.056331 66.981785 67.407515 
C 66.106096 66.7587 64.918241 66.394148 63.67983 66.394148 
C 62.441419 66.394148 61.253563 66.7587 60.377875 67.407515 
C 59.502186 68.056331 59.01016 68.936437 59.01016 69.854001 
C 59.01016 70.771565 59.502186 71.651671 60.377875 72.300486 
C 61.253563 72.949302 62.441419 73.313854 63.67983 73.313854 
z
" style="fill:#008000;opacity:0.2;stroke:#008000;stroke-linejoin:miter;stroke-width:2;"/>
   </g>
   <g id="patch_61">
    <path clip-path="url(#pade851572f)" d="M 104.772925 41.13722 
C 106.011336 41.13722 107.199192 40.772668 108.07488 40.123852 
C 108.950569 39.475036 109.442595 38.59493 109.442595 37.677366 
C 109.442595 36.759803 108.950569 35.879696 108.07488 35.230881 
C 107.199192 34.582065 106.011336 34.217513 104.772925 34.217513 
C 103.534514 34.217513 102.346659 34.582065 101.47097 35.230881 
C 100.595281 35.879696 100.103255 36.759803 100.103255 37.677366 
C 100.103255 38.59493 100.595281 39.475036 101.47097 40.123852 
C 102.346659 40.772668 103.534514 41.13722 104.772925 41.13722 
z
" style="fill:#008000;opacity:0.2;stroke:#008000;stroke-linejoin:miter;stroke-width:2;"/>
   </g>
   <g id="patch_62">
    <path clip-path="url(#pade851572f)" d="M 242.061221 142.856903 
C 243.299631 142.856903 244.487487 142.492351 245.363176 141.843535 
C 246.238865 141.19472 246.73089 140.314613 246.73089 139.39705 
C 246.73089 138.479486 246.238865 137.59938 245.363176 136.950564 
C 244.487487 136.301748 243.299631 135.937196 242.061221 135.937196 
C 240.82281 135.937196 239.634954 136.301748 238.759265 136.950564 
C 237.883576 137.59938 237.391551 138.479486 237.391551 139.39705 
C 237.391551 140.314613 237.883576 141.19472 238.759265 141.843535 
C 239.634954 142.492351 240.82281 142.856903 242.061221 142.856903 
z
" style="fill:#008000;opacity:0.2;stroke:#008000;stroke-linejoin:miter;stroke-width:2;"/>
   </g>
   <g id="patch_63">
    <path clip-path="url(#pade851572f)" d="M 379.816483 39.753278 
C 381.054894 39.753278 382.242749 39.388726 383.118438 38.739911 
C 383.994127 38.091095 384.486153 37.210989 384.486153 36.293425 
C 384.486153 35.375861 383.994127 34.495755 383.118438 33.846939 
C 382.242749 33.198124 381.054894 32.833572 379.816483 32.833572 
C 378.578072 32.833572 377.390216 33.198124 376.514528 33.846939 
C 375.638839 34.495755 375.146813 35.375861 375.146813 36.293425 
C 375.146813 37.210989 375.638839 38.091095 376.514528 38.739911 
C 377.390216 39.388726 378.578072 39.753278 379.816483 39.753278 
z
" style="fill:#008000;opacity:0.2;stroke:#008000;stroke-linejoin:miter;stroke-width:2;"/>
   </g>
   <g id="patch_64">
    <path clip-path="url(#pade851572f)" d="M 426.980149 79.195604 
C 431.933793 79.195604 436.685215 77.737397 440.18797 75.142134 
C 443.690725 72.546872 445.658829 69.026447 445.658829 65.356192 
C 445.658829 61.685937 443.690725 58.165511 440.18797 55.570249 
C 436.685215 52.974987 431.933793 51.516779 426.980149 51.516779 
C 422.026505 51.516779 417.275083 52.974987 413.772328 55.570249 
C 410.269573 58.165511 408.301469 61.685937 408.301469 65.356192 
C 408.301469 69.026447 410.269573 72.546872 413.772328 75.142134 
C 417.275083 77.737397 422.026505 79.195604 426.980149 79.195604 
z
" style="fill:none;opacity:0.2;stroke:#ff0000;stroke-linejoin:miter;stroke-width:2;"/>
   </g>
   <g id="patch_65">
    <path clip-path="url(#pade851572f)" d="M 415.772941 84.039399 
C 420.726585 84.039399 425.478007 82.581191 428.980762 79.985929 
C 432.483517 77.390666 434.451621 73.870241 434.451621 70.199986 
C 434.451621 66.529731 432.483517 63.009306 428.980762 60.414044 
C 425.478007 57.818781 420.726585 56.360573 415.772941 56.360573 
C 410.819298 56.360573 406.067875 57.818781 402.56512 60.414044 
C 399.062365 63.009306 397.094262 66.529731 397.094262 70.199986 
C 397.094262 73.870241 399.062365 77.390666 402.56512 79.985929 
C 406.067875 82.581191 410.819298 84.039399 415.772941 84.039399 
z
" style="fill:none;opacity:0.2;stroke:#0000ff;stroke-linejoin:miter;stroke-width:2;"/>
   </g>
   <g id="patch_66">
    <path clip-path="url(#pade851572f)" d="M 426.980149 72.275898 
C 429.456971 72.275898 431.832682 71.546794 433.58406 70.249163 
C 435.335437 68.951532 436.319489 67.191319 436.319489 65.356192 
C 436.319489 63.521064 435.335437 61.760852 433.58406 60.46322 
C 431.832682 59.165589 429.456971 58.436485 426.980149 58.436485 
C 424.503327 58.436485 422.127616 59.165589 420.376239 60.46322 
C 418.624861 61.760852 417.640809 63.521064 417.640809 65.356192 
C 417.640809 67.191319 418.624861 68.951532 420.376239 70.249163 
C 422.127616 71.546794 424.503327 72.275898 426.980149 72.275898 
z
" style="fill:none;opacity:0.2;stroke:#008000;stroke-linejoin:miter;stroke-width:2;"/>
   </g>
   <g id="patch_67">
    <path clip-path="url(#pade851572f)" d="M 415.772941 77.119693 
C 418.249763 77.119693 420.625474 76.390589 422.376852 75.092957 
C 424.128229 73.795326 425.112281 72.035114 425.112281 70.199986 
C 425.112281 68.364859 424.128229 66.604646 422.376852 65.307015 
C 420.625474 64.009384 418.249763 63.28028 415.772941 63.28028 
C 413.296119 63.28028 410.920408 64.009384 409.169031 65.307015 
C 407.417653 66.604646 406.433601 68.364859 406.433601 70.199986 
C 406.433601 72.035114 407.417653 73.795326 409.169031 75.092957 
C 410.920408 76.390589 413.296119 77.119693 415.772941 77.119693 
z
" style="fill:none;opacity:0.2;stroke:#008000;stroke-linejoin:miter;stroke-width:2;"/>
   </g>
   <g id="patch_68">
    <path d="M 421.376545 67.778089 
Q 352.732397 119.156909 284.08825 170.535728 
" style="fill:none;opacity:0.5;stroke:#008000;stroke-linecap:round;stroke-width:2;"/>
   </g>
   <g id="patch_69">
    <path d="M 425.681995 65.917258 
Q 422.294518 67.381338 418.907042 68.845417 
" style="fill:none;opacity:0.5;stroke:#800080;stroke-linecap:round;stroke-width:2;"/>
    <path d="M 423.709993 65.135459 
L 425.681995 65.917258 
L 424.900196 67.88926 
" style="fill:none;opacity:0.5;stroke:#800080;stroke-linecap:round;stroke-width:2;"/>
    <path d="M 420.879043 69.627216 
L 418.907042 68.845417 
L 419.688841 66.873415 
" style="fill:none;opacity:0.5;stroke:#800080;stroke-linecap:round;stroke-width:2;"/>
   </g>
   <g id="patch_70">
    <path d="M 284.08825 170.535728 
Q 352.732397 221.568562 421.376545 272.601397 
" style="fill:none;opacity:0.5;stroke:#008000;stroke-linecap:round;stroke-width:2;"/>
   </g>
   <g id="patch_71">
    <path d="M 289.375828 167.737389 
Q 284.970881 170.068614 280.565934 172.399839 
" style="fill:none;opacity:0.5;stroke:#800080;stroke-linecap:round;stroke-width:2;"/>
    <path d="M 287.348404 167.113249 
L 289.375828 167.737389 
L 288.751688 169.764814 
" style="fill:none;opacity:0.5;stroke:#800080;stroke-linecap:round;stroke-width:2;"/>
    <path d="M 282.593358 173.023979 
L 280.565934 172.399839 
L 281.190074 170.372415 
" style="fill:none;opacity:0.5;stroke:#800080;stroke-linecap:round;stroke-width:2;"/>
   </g>
   <g id="patch_72">
    <path d="M 421.376545 272.601397 
Q 400.596514 288.689714 379.816483 304.778031 
" style="fill:none;opacity:0.5;stroke:#008000;stroke-linecap:round;stroke-width:2;"/>
   </g>
   <g id="patch_73">
    <path d="M 425.877268 268.98883 
Q 422.157712 271.974383 418.438155 274.959936 
" style="fill:none;opacity:0.5;stroke:#800080;stroke-linecap:round;stroke-width:2;"/>
    <path d="M 423.768545 268.757989 
L 425.877268 268.98883 
L 425.646428 271.097553 
" style="fill:none;opacity:0.5;stroke:#800080;stroke-linecap:round;stroke-width:2;"/>
    <path d="M 420.546878 275.190776 
L 418.438155 274.959936 
L 418.668995 272.851213 
" style="fill:none;opacity:0.5;stroke:#800080;stroke-linecap:round;stroke-width:2;"/>
   </g>
   <g id="patch_74">
    <path d="M 379.816483 304.778031 
Q 310.705368 253.399212 241.594254 202.020392 
" style="fill:none;opacity:0.5;stroke:#008000;stroke-linecap:round;stroke-width:2;"/>
   </g>
   <g id="patch_75">
    <path d="M 379.683548 304.843694 
Q 378.920399 305.220649 378.157249 305.597604 
" style="fill:none;opacity:0.5;stroke:#800080;stroke-linecap:round;stroke-width:2;"/>
    <path d="M 381.692729 305.524275 
L 379.683548 304.843694 
L 380.36413 302.834513 
" style="fill:none;opacity:0.5;stroke:#800080;stroke-linecap:round;stroke-width:2;"/>
    <path d="M 376.148068 304.917023 
L 378.157249 305.597604 
L 377.476668 307.606786 
" style="fill:none;opacity:0.5;stroke:#800080;stroke-linecap:round;stroke-width:2;"/>
   </g>
   <g id="patch_76">
    <path d="M 241.594254 202.020392 
Q 173.183589 253.399212 104.772925 304.778031 
" style="fill:none;opacity:0.5;stroke:#008000;stroke-linecap:round;stroke-width:2;"/>
   </g>
   <g id="patch_77">
    <path d="M 241.49584 202.384973 
Q 241.333865 202.985029 241.171889 203.585084 
" style="fill:none;opacity:0.5;stroke:#800080;stroke-linecap:round;stroke-width:2;"/>
    <path d="M 243.334918 201.327716 
L 241.49584 202.384973 
L 240.438583 200.545895 
" style="fill:none;opacity:0.5;stroke:#800080;stroke-linecap:round;stroke-width:2;"/>
    <path d="M 239.332811 204.642341 
L 241.171889 203.585084 
L 242.229146 205.424162 
" style="fill:none;opacity:0.5;stroke:#800080;stroke-linecap:round;stroke-width:2;"/>
   </g>
   <g id="patch_78">
    <path d="M 104.772925 304.778031 
Q 84.226377 288.689714 63.67983 272.601397 
" style="fill:none;opacity:0.5;stroke:#008000;stroke-linecap:round;stroke-width:2;"/>
   </g>
   <g id="patch_79">
    <path d="M 104.570555 304.628091 
Q 105.577349 305.374045 106.584142 306.119999 
" style="fill:none;opacity:0.5;stroke:#800080;stroke-linecap:round;stroke-width:2;"/>
    <path d="M 104.258304 302.529878 
L 104.570555 304.628091 
L 102.472342 304.940343 
" style="fill:none;opacity:0.5;stroke:#800080;stroke-linecap:round;stroke-width:2;"/>
    <path d="M 106.896393 308.218212 
L 106.584142 306.119999 
L 108.682356 305.807748 
" style="fill:none;opacity:0.5;stroke:#800080;stroke-linecap:round;stroke-width:2;"/>
   </g>
   <g id="patch_80">
    <path d="M 63.67983 272.601397 
Q 131.623527 221.741555 199.567224 170.881713 
" style="fill:none;opacity:0.5;stroke:#008000;stroke-linecap:round;stroke-width:2;"/>
   </g>
   <g id="patch_81">
    <path d="M 59.179107 268.98883 
Q 62.898663 271.974383 66.61822 274.959936 
" style="fill:none;opacity:0.5;stroke:#800080;stroke-linecap:round;stroke-width:2;"/>
    <path d="M 59.409947 271.097553 
L 59.179107 268.98883 
L 61.28783 268.757989 
" style="fill:none;opacity:0.5;stroke:#800080;stroke-linecap:round;stroke-width:2;"/>
    <path d="M 66.38738 272.851213 
L 66.61822 274.959936 
L 64.509497 275.190776 
" style="fill:none;opacity:0.5;stroke:#800080;stroke-linecap:round;stroke-width:2;"/>
   </g>
   <g id="patch_82">
    <path d="M 199.567224 170.881713 
Q 131.623527 120.367857 63.67983 69.854001 
" style="fill:none;opacity:0.5;stroke:#008000;stroke-linecap:round;stroke-width:2;"/>
   </g>
   <g id="patch_83">
    <path d="M 193.854992 168.342328 
Q 198.652329 170.474995 203.449666 172.607661 
" style="fill:none;opacity:0.5;stroke:#800080;stroke-linecap:round;stroke-width:2;"/>
    <path d="M 194.616324 170.322322 
L 193.854992 168.342328 
L 195.834986 167.580997 
" style="fill:none;opacity:0.5;stroke:#800080;stroke-linecap:round;stroke-width:2;"/>
    <path d="M 202.688335 170.627668 
L 203.449666 172.607661 
L 201.469673 173.368993 
" style="fill:none;opacity:0.5;stroke:#800080;stroke-linecap:round;stroke-width:2;"/>
   </g>
   <g id="patch_84">
    <path d="M 63.67983 69.854001 
Q 84.226377 53.765684 104.772925 37.677366 
" style="fill:none;opacity:0.5;stroke:#008000;stroke-linecap:round;stroke-width:2;"/>
   </g>
   <g id="patch_85">
    <path d="M 59.37438 67.99317 
Q 62.761857 69.45725 66.149333 70.921329 
" style="fill:none;opacity:0.5;stroke:#800080;stroke-linecap:round;stroke-width:2;"/>
    <path d="M 60.156179 69.965172 
L 59.37438 67.99317 
L 61.346382 67.211371 
" style="fill:none;opacity:0.5;stroke:#800080;stroke-linecap:round;stroke-width:2;"/>
    <path d="M 65.367534 68.949327 
L 66.149333 70.921329 
L 64.177332 71.703128 
" style="fill:none;opacity:0.5;stroke:#800080;stroke-linecap:round;stroke-width:2;"/>
   </g>
   <g id="patch_86">
    <path d="M 104.772925 37.677366 
Q 173.417073 88.537208 242.061221 139.39705 
" style="fill:none;opacity:0.5;stroke:#008000;stroke-linecap:round;stroke-width:2;"/>
   </g>
   <g id="patch_87">
    <path d="M 105.53463 31.469376 
Q 104.894911 36.683165 104.255192 41.896954 
" style="fill:none;opacity:0.5;stroke:#800080;stroke-linecap:round;stroke-width:2;"/>
    <path d="M 103.863119 32.775535 
L 105.53463 31.469376 
L 106.840789 33.140888 
" style="fill:none;opacity:0.5;stroke:#800080;stroke-linecap:round;stroke-width:2;"/>
    <path d="M 105.926703 40.590796 
L 104.255192 41.896954 
L 102.949033 40.225443 
" style="fill:none;opacity:0.5;stroke:#800080;stroke-linecap:round;stroke-width:2;"/>
   </g>
   <g id="patch_88">
    <path d="M 242.061221 139.39705 
Q 310.938852 87.845237 379.816483 36.293425 
" style="fill:none;opacity:0.5;stroke:#008000;stroke-linecap:round;stroke-width:2;"/>
   </g>
   <g id="patch_89">
    <path d="M 242.061221 132.507616 
Q 242.061221 138.397612 242.061221 144.287608 
" style="fill:none;opacity:0.5;stroke:#800080;stroke-linecap:round;stroke-width:2;"/>
    <path d="M 240.561221 134.007616 
L 242.061221 132.507616 
L 243.561221 134.007616 
" style="fill:none;opacity:0.5;stroke:#800080;stroke-linecap:round;stroke-width:2;"/>
    <path d="M 243.561221 142.787608 
L 242.061221 144.287608 
L 240.561221 142.787608 
" style="fill:none;opacity:0.5;stroke:#800080;stroke-linecap:round;stroke-width:2;"/>
   </g>
   <g id="patch_90">
    <path d="M 379.816483 36.293425 
Q 400.596514 52.035757 421.376545 67.778089 
" style="fill:none;opacity:0.5;stroke:#008000;stroke-linecap:round;stroke-width:2;"/>
   </g>
   <g id="patch_91">
    <path d="M 378.671563 30.072602 
Q 379.635556 35.310374 380.599549 40.548146 
" style="fill:none;opacity:0.5;stroke:#800080;stroke-linecap:round;stroke-width:2;"/>
    <path d="M 377.46785 31.819334 
L 378.671563 30.072602 
L 380.418296 31.276315 
" style="fill:none;opacity:0.5;stroke:#800080;stroke-linecap:round;stroke-width:2;"/>
    <path d="M 381.803262 38.801414 
L 380.599549 40.548146 
L 378.852816 39.344433 
" style="fill:none;opacity:0.5;stroke:#800080;stroke-linecap:round;stroke-width:2;"/>
   </g>
   <g id="line2d_1">
    <path clip-path="url(#pade851572f)" d="M 426.980149 65.356192 
L 290.625788 167.075875 
L 426.980149 268.103588 
L 378.415582 305.470002 
L 241.127287 203.750319 
L 105.706859 305.470002 
L 58.076226 268.103588 
L 192.562719 167.767846 
L 58.076226 67.432104 
L 105.706859 30.065689 
L 242.061221 131.093402 
L 378.415582 28.681748 
" style="fill:none;stroke:#ff0000;stroke-linecap:square;stroke-width:0.2;"/>
   </g>
   <g id="line2d_2">
    <path clip-path="url(#pade851572f)" d="M 415.772941 70.199986 
L 277.550712 173.995581 
L 415.772941 277.099206 
L 381.217384 304.086061 
L 242.061221 200.290465 
L 103.838991 304.086061 
L 69.283434 277.099206 
L 206.571729 173.995581 
L 69.283434 72.275898 
L 103.838991 45.289043 
L 242.061221 147.700697 
L 381.217384 43.905102 
" style="fill:none;stroke:#0000ff;stroke-linecap:square;stroke-width:0.2;"/>
   </g>
  </g>
 </g>
 <defs>
  <clipPath id="pade851572f">
   <rect height="307.51175" width="409.903625" x="37.576375" y="13.32"/>
  </clipPath>
 </defs>
</svg>
