<?xml version="1.0" encoding="utf-8" standalone="no"?>
<!DOCTYPE svg PUBLIC "-//W3C//DTD SVG 1.1//EN"
  "http://www.w3.org/Graphics/SVG/1.1/DTD/svg11.dtd">
<!-- Created with matplotlib (http://matplotlib.org/) -->
<svg height="345.6pt" version="1.1" viewBox="0 0 460.8 345.6" width="460.8pt" xmlns="http://www.w3.org/2000/svg" xmlns:xlink="http://www.w3.org/1999/xlink">
 <defs>
  <style type="text/css">
*{stroke-linecap:butt;stroke-linejoin:round;}
  </style>
 </defs>
 <g id="figure_1">
  <g id="patch_1">
   <path d="M 0 345.6 
L 460.8 345.6 
L 460.8 0 
L 0 0 
z
" style="fill:#ffffff;"/>
  </g>
  <g id="axes_1">
   <g id="patch_2">
    <path clip-path="url(#p6ed51c4b91)" d="M 189.455266 194.139966 
C 190.054207 194.139966 190.628697 194.005771 191.052212 193.766936 
C 191.475727 193.528101 191.713689 193.204125 191.713689 192.866361 
C 191.713689 192.528598 191.475727 192.204622 191.052212 191.965787 
C 190.628697 191.726952 190.054207 191.592757 189.455266 191.592757 
C 188.856326 191.592757 188.281836 191.726952 187.858321 191.965787 
C 187.434806 192.204622 187.196844 192.528598 187.196844 192.866361 
C 187.196844 193.204125 187.434806 193.528101 187.858321 193.766936 
C 188.281836 194.005771 188.856326 194.139966 189.455266 194.139966 
z
" style="fill:#ff0000;opacity:0.2;stroke:#ff0000;stroke-linejoin:miter;stroke-width:2;"/>
   </g>
   <g id="patch_3">
    <path clip-path="url(#p6ed51c4b91)" d="M 58.46678 124.091731 
C 59.065721 124.091731 59.640211 123.957536 60.063726 123.718701 
C 60.487241 123.479866 60.725202 123.155891 60.725202 122.818127 
C 60.725202 122.480363 60.487241 122.156388 60.063726 121.917553 
C 59.640211 121.678717 59.065721 121.544522 58.46678 121.544522 
C 57.86784 121.544522 57.293349 121.678717 56.869834 121.917553 
C 56.44632 122.156388 56.208358 122.480363 56.208358 122.818127 
C 56.208358 123.155891 56.44632 123.479866 56.869834 123.718701 
C 57.293349 123.957536 57.86784 124.091731 58.46678 124.091731 
z
" style="fill:#ff0000;opacity:0.2;stroke:#ff0000;stroke-linejoin:miter;stroke-width:2;"/>
   </g>
   <g id="patch_4">
    <path clip-path="url(#p6ed51c4b91)" d="M 235.752921 33.029026 
C 236.351862 33.029026 236.926352 32.894831 237.349867 32.655996 
C 237.773382 32.417161 238.011343 32.093186 238.011343 31.755422 
C 238.011343 31.417658 237.773382 31.093683 237.349867 30.854848 
C 236.926352 30.616012 236.351862 30.481817 235.752921 30.481817 
C 235.15398 30.481817 234.57949 30.616012 234.155975 30.854848 
C 233.73246 31.093683 233.494499 31.417658 233.494499 31.755422 
C 233.494499 32.093186 233.73246 32.417161 234.155975 32.655996 
C 234.57949 32.894831 235.15398 33.029026 235.752921 33.029026 
z
" style="fill:#ff0000;opacity:0.2;stroke:#ff0000;stroke-linejoin:miter;stroke-width:2;"/>
   </g>
   <g id="patch_5">
    <path clip-path="url(#p6ed51c4b91)" d="M 426.589595 136.827774 
C 427.188535 136.827774 427.763026 136.693579 428.186541 136.454744 
C 428.610055 136.215909 428.848017 135.891933 428.848017 135.554169 
C 428.848017 135.216406 428.610055 134.89243 428.186541 134.653595 
C 427.763026 134.41476 427.188535 134.280565 426.589595 134.280565 
C 425.990654 134.280565 425.416164 134.41476 424.992649 134.653595 
C 424.569134 134.89243 424.331173 135.216406 424.331173 135.554169 
C 424.331173 135.891933 424.569134 136.215909 424.992649 136.454744 
C 425.416164 136.693579 425.990654 136.827774 426.589595 136.827774 
z
" style="fill:#ff0000;opacity:0.2;stroke:#ff0000;stroke-linejoin:miter;stroke-width:2;"/>
   </g>
   <g id="patch_6">
    <path clip-path="url(#p6ed51c4b91)" d="M 85.567846 306.853943 
C 86.166787 306.853943 86.741277 306.719748 87.164792 306.480913 
C 87.588307 306.242078 87.826268 305.918103 87.826268 305.580339 
C 87.826268 305.242575 87.588307 304.9186 87.164792 304.679765 
C 86.741277 304.44093 86.166787 304.306735 85.567846 304.306735 
C 84.968906 304.306735 84.394416 304.44093 83.970901 304.679765 
C 83.547386 304.9186 83.309424 305.242575 83.309424 305.580339 
C 83.309424 305.918103 83.547386 306.242078 83.970901 306.480913 
C 84.394416 306.719748 84.968906 306.853943 85.567846 306.853943 
z
" style="fill:#ff0000;opacity:0.2;stroke:#ff0000;stroke-linejoin:miter;stroke-width:2;"/>
   </g>
   <g id="patch_7">
    <path clip-path="url(#p6ed51c4b91)" d="M 79.921791 287.113077 
C 80.520731 287.113077 81.095222 286.978882 81.518736 286.740047 
C 81.942251 286.501212 82.180213 286.177237 82.180213 285.839473 
C 82.180213 285.501709 81.942251 285.177734 81.518736 284.938899 
C 81.095222 284.700064 80.520731 284.565869 79.921791 284.565869 
C 79.32285 284.565869 78.74836 284.700064 78.324845 284.938899 
C 77.90133 285.177734 77.663369 285.501709 77.663369 285.839473 
C 77.663369 286.177237 77.90133 286.501212 78.324845 286.740047 
C 78.74836 286.978882 79.32285 287.113077 79.921791 287.113077 
z
" style="fill:#ff0000;opacity:0.2;stroke:#ff0000;stroke-linejoin:miter;stroke-width:2;"/>
   </g>
   <g id="patch_8">
    <path clip-path="url(#p6ed51c4b91)" d="M 293.342686 137.464576 
C 293.941627 137.464576 294.516117 137.330381 294.939632 137.091546 
C 295.363147 136.852711 295.601109 136.528735 295.601109 136.190972 
C 295.601109 135.853208 295.363147 135.529232 294.939632 135.290397 
C 294.516117 135.051562 293.941627 134.917367 293.342686 134.917367 
C 292.743746 134.917367 292.169256 135.051562 291.745741 135.290397 
C 291.322226 135.529232 291.084264 135.853208 291.084264 136.190972 
C 291.084264 136.528735 291.322226 136.852711 291.745741 137.091546 
C 292.169256 137.330381 292.743746 137.464576 293.342686 137.464576 
z
" style="fill:#ff0000;opacity:0.2;stroke:#ff0000;stroke-linejoin:miter;stroke-width:2;"/>
   </g>
   <g id="patch_9">
    <path clip-path="url(#p6ed51c4b91)" d="M 232.365288 54.680299 
C 232.964228 54.680299 233.538718 54.546104 233.962233 54.307268 
C 234.385748 54.068433 234.62371 53.744458 234.62371 53.406694 
C 234.62371 53.06893 234.385748 52.744955 233.962233 52.50612 
C 233.538718 52.267285 232.964228 52.13309 232.365288 52.13309 
C 231.766347 52.13309 231.191857 52.267285 230.768342 52.50612 
C 230.344827 52.744955 230.106866 53.06893 230.106866 53.406694 
C 230.106866 53.744458 230.344827 54.068433 230.768342 54.307268 
C 231.191857 54.546104 231.766347 54.680299 232.365288 54.680299 
z
" style="fill:#ff0000;opacity:0.2;stroke:#ff0000;stroke-linejoin:miter;stroke-width:2;"/>
   </g>
   <g id="patch_10">
    <path clip-path="url(#p6ed51c4b91)" d="M 178.163155 101.803656 
C 178.762096 101.803656 179.336586 101.669461 179.760101 101.430626 
C 180.183616 101.191791 180.421578 100.867816 180.421578 100.530052 
C 180.421578 100.192288 180.183616 99.868313 179.760101 99.629478 
C 179.336586 99.390643 178.762096 99.256448 178.163155 99.256448 
C 177.564215 99.256448 176.989725 99.390643 176.56621 99.629478 
C 176.142695 99.868313 175.904733 100.192288 175.904733 100.530052 
C 175.904733 100.867816 176.142695 101.191791 176.56621 101.430626 
C 176.989725 101.669461 177.564215 101.803656 178.163155 101.803656 
z
" style="fill:#ff0000;opacity:0.2;stroke:#ff0000;stroke-linejoin:miter;stroke-width:2;"/>
   </g>
   <g id="patch_11">
    <path clip-path="url(#p6ed51c4b91)" d="M 242.528188 166.757474 
C 243.127128 166.757474 243.701618 166.623279 244.125133 166.384444 
C 244.548648 166.145609 244.78661 165.821633 244.78661 165.48387 
C 244.78661 165.146106 244.548648 164.822131 244.125133 164.583295 
C 243.701618 164.34446 243.127128 164.210265 242.528188 164.210265 
C 241.929247 164.210265 241.354757 164.34446 240.931242 164.583295 
C 240.507727 164.822131 240.269765 165.146106 240.269765 165.48387 
C 240.269765 165.821633 240.507727 166.145609 240.931242 166.384444 
C 241.354757 166.623279 241.929247 166.757474 242.528188 166.757474 
z
" style="fill:#ff0000;opacity:0.2;stroke:#ff0000;stroke-linejoin:miter;stroke-width:2;"/>
   </g>
   <g id="patch_12">
    <path clip-path="url(#p6ed51c4b91)" d="M 258.337143 166.757474 
C 258.936083 166.757474 259.510573 166.623279 259.934088 166.384444 
C 260.357603 166.145609 260.595565 165.821633 260.595565 165.48387 
C 260.595565 165.146106 260.357603 164.822131 259.934088 164.583295 
C 259.510573 164.34446 258.936083 164.210265 258.337143 164.210265 
C 257.738202 164.210265 257.163712 164.34446 256.740197 164.583295 
C 256.316682 164.822131 256.078721 165.146106 256.078721 165.48387 
C 256.078721 165.821633 256.316682 166.145609 256.740197 166.384444 
C 257.163712 166.623279 257.738202 166.757474 258.337143 166.757474 
z
" style="fill:#ff0000;opacity:0.2;stroke:#ff0000;stroke-linejoin:miter;stroke-width:2;"/>
   </g>
   <g id="patch_13">
    <path clip-path="url(#p6ed51c4b91)" d="M 263.983198 180.130319 
C 264.582139 180.130319 265.156629 179.996124 265.580144 179.757289 
C 266.003659 179.518454 266.24162 179.194478 266.24162 178.856714 
C 266.24162 178.518951 266.003659 178.194975 265.580144 177.95614 
C 265.156629 177.717305 264.582139 177.58311 263.983198 177.58311 
C 263.384258 177.58311 262.809767 177.717305 262.386253 177.95614 
C 261.962738 178.194975 261.724776 178.518951 261.724776 178.856714 
C 261.724776 179.194478 261.962738 179.518454 262.386253 179.757289 
C 262.809767 179.996124 263.384258 180.130319 263.983198 180.130319 
z
" style="fill:#ff0000;opacity:0.2;stroke:#ff0000;stroke-linejoin:miter;stroke-width:2;"/>
   </g>
   <g id="patch_14">
    <path clip-path="url(#p6ed51c4b91)" d="M 210.345671 257.183377 
C 210.944612 257.183377 211.519102 257.049182 211.942617 256.810347 
C 212.366132 256.571512 212.604094 256.247536 212.604094 255.909773 
C 212.604094 255.572009 212.366132 255.248033 211.942617 255.009198 
C 211.519102 254.770363 210.944612 254.636168 210.345671 254.636168 
C 209.746731 254.636168 209.172241 254.770363 208.748726 255.009198 
C 208.325211 255.248033 208.087249 255.572009 208.087249 255.909773 
C 208.087249 256.247536 208.325211 256.571512 208.748726 256.810347 
C 209.172241 257.049182 209.746731 257.183377 210.345671 257.183377 
z
" style="fill:#0000ff;opacity:0.2;stroke:#0000ff;stroke-linejoin:miter;stroke-width:2;"/>
   </g>
   <g id="patch_15">
    <path clip-path="url(#p6ed51c4b91)" d="M 324.395991 126.63894 
C 324.994932 126.63894 325.569422 126.504745 325.992937 126.26591 
C 326.416452 126.027074 326.654414 125.703099 326.654414 125.365335 
C 326.654414 125.027571 326.416452 124.703596 325.992937 124.464761 
C 325.569422 124.225926 324.994932 124.091731 324.395991 124.091731 
C 323.797051 124.091731 323.222561 124.225926 322.799046 124.464761 
C 322.375531 124.703596 322.137569 125.027571 322.137569 125.365335 
C 322.137569 125.703099 322.375531 126.027074 322.799046 126.26591 
C 323.222561 126.504745 323.797051 126.63894 324.395991 126.63894 
z
" style="fill:#0000ff;opacity:0.2;stroke:#0000ff;stroke-linejoin:miter;stroke-width:2;"/>
   </g>
   <g id="patch_16">
    <path clip-path="url(#p6ed51c4b91)" d="M 230.671471 46.401871 
C 231.270412 46.401871 231.844902 46.267676 232.268417 46.028841 
C 232.691932 45.790006 232.929893 45.46603 232.929893 45.128267 
C 232.929893 44.790503 232.691932 44.466527 232.268417 44.227692 
C 231.844902 43.988857 231.270412 43.854662 230.671471 43.854662 
C 230.072531 43.854662 229.49804 43.988857 229.074525 44.227692 
C 228.651011 44.466527 228.413049 44.790503 228.413049 45.128267 
C 228.413049 45.46603 228.651011 45.790006 229.074525 46.028841 
C 229.49804 46.267676 230.072531 46.401871 230.671471 46.401871 
z
" style="fill:#0000ff;opacity:0.2;stroke:#0000ff;stroke-linejoin:miter;stroke-width:2;"/>
   </g>
   <g id="patch_17">
    <path clip-path="url(#p6ed51c4b91)" d="M 150.497484 96.072437 
C 151.096424 96.072437 151.670915 95.938242 152.094429 95.699407 
C 152.517944 95.460572 152.755906 95.136597 152.755906 94.798833 
C 152.755906 94.461069 152.517944 94.137094 152.094429 93.898259 
C 151.670915 93.659424 151.096424 93.525229 150.497484 93.525229 
C 149.898543 93.525229 149.324053 93.659424 148.900538 93.898259 
C 148.477023 94.137094 148.239062 94.461069 148.239062 94.798833 
C 148.239062 95.136597 148.477023 95.460572 148.900538 95.699407 
C 149.324053 95.938242 149.898543 96.072437 150.497484 96.072437 
z
" style="fill:#0000ff;opacity:0.2;stroke:#0000ff;stroke-linejoin:miter;stroke-width:2;"/>
   </g>
   <g id="patch_18">
    <path clip-path="url(#p6ed51c4b91)" d="M 238.575949 155.295036 
C 239.174889 155.295036 239.749379 155.160841 240.172894 154.922005 
C 240.596409 154.68317 240.834371 154.359195 240.834371 154.021431 
C 240.834371 153.683667 240.596409 153.359692 240.172894 153.120857 
C 239.749379 152.882022 239.174889 152.747827 238.575949 152.747827 
C 237.977008 152.747827 237.402518 152.882022 236.979003 153.120857 
C 236.555488 153.359692 236.317527 153.683667 236.317527 154.021431 
C 236.317527 154.359195 236.555488 154.68317 236.979003 154.922005 
C 237.402518 155.160841 237.977008 155.295036 238.575949 155.295036 
z
" style="fill:#0000ff;opacity:0.2;stroke:#0000ff;stroke-linejoin:miter;stroke-width:2;"/>
   </g>
   <g id="patch_19">
    <path clip-path="url(#p6ed51c4b91)" d="M 275.839915 154.021431 
C 276.438855 154.021431 277.013345 153.887236 277.43686 153.648401 
C 277.860375 153.409566 278.098337 153.085591 278.098337 152.747827 
C 278.098337 152.410063 277.860375 152.086088 277.43686 151.847253 
C 277.013345 151.608418 276.438855 151.474223 275.839915 151.474223 
C 275.240974 151.474223 274.666484 151.608418 274.242969 151.847253 
C 273.819454 152.086088 273.581492 152.410063 273.581492 152.747827 
C 273.581492 153.085591 273.819454 153.409566 274.242969 153.648401 
C 274.666484 153.887236 275.240974 154.021431 275.839915 154.021431 
z
" style="fill:#0000ff;opacity:0.2;stroke:#0000ff;stroke-linejoin:miter;stroke-width:2;"/>
   </g>
   <g id="patch_20">
    <path clip-path="url(#p6ed51c4b91)" d="M 278.098337 163.573463 
C 278.697277 163.573463 279.271767 163.439268 279.695282 163.200433 
C 280.118797 162.961598 280.356759 162.637623 280.356759 162.299859 
C 280.356759 161.962095 280.118797 161.63812 279.695282 161.399285 
C 279.271767 161.16045 278.697277 161.026255 278.098337 161.026255 
C 277.499396 161.026255 276.924906 161.16045 276.501391 161.399285 
C 276.077876 161.63812 275.839915 161.962095 275.839915 162.299859 
C 275.839915 162.637623 276.077876 162.961598 276.501391 163.200433 
C 276.924906 163.439268 277.499396 163.573463 278.098337 163.573463 
z
" style="fill:#0000ff;opacity:0.2;stroke:#0000ff;stroke-linejoin:miter;stroke-width:2;"/>
   </g>
   <g id="patch_21">
    <path clip-path="url(#p6ed51c4b91)" d="M 202.441194 178.856714 
C 203.040134 178.856714 203.614625 178.722519 204.03814 178.483684 
C 204.461654 178.244849 204.699616 177.920874 204.699616 177.58311 
C 204.699616 177.245346 204.461654 176.921371 204.03814 176.682536 
C 203.614625 176.443701 203.040134 176.309506 202.441194 176.309506 
C 201.842253 176.309506 201.267763 176.443701 200.844248 176.682536 
C 200.420733 176.921371 200.182772 177.245346 200.182772 177.58311 
C 200.182772 177.920874 200.420733 178.244849 200.844248 178.483684 
C 201.267763 178.722519 201.842253 178.856714 202.441194 178.856714 
z
" style="fill:#0000ff;opacity:0.2;stroke:#0000ff;stroke-linejoin:miter;stroke-width:2;"/>
   </g>
   <g id="patch_22">
    <path clip-path="url(#p6ed51c4b91)" d="M 77.098763 112.629293 
C 77.697704 112.629293 78.272194 112.495098 78.695709 112.256263 
C 79.119224 112.017428 79.357185 111.693452 79.357185 111.355688 
C 79.357185 111.017925 79.119224 110.693949 78.695709 110.455114 
C 78.272194 110.216279 77.697704 110.082084 77.098763 110.082084 
C 76.499823 110.082084 75.925332 110.216279 75.501817 110.455114 
C 75.078303 110.693949 74.840341 111.017925 74.840341 111.355688 
C 74.840341 111.693452 75.078303 112.017428 75.501817 112.256263 
C 75.925332 112.495098 76.499823 112.629293 77.098763 112.629293 
z
" style="fill:#0000ff;opacity:0.2;stroke:#0000ff;stroke-linejoin:miter;stroke-width:2;"/>
   </g>
   <g id="patch_23">
    <path clip-path="url(#p6ed51c4b91)" d="M 246.480426 29.845015 
C 247.079367 29.845015 247.653857 29.71082 248.077372 29.471985 
C 248.500887 29.23315 248.738848 28.909175 248.738848 28.571411 
C 248.738848 28.233647 248.500887 27.909672 248.077372 27.670837 
C 247.653857 27.432002 247.079367 27.297807 246.480426 27.297807 
C 245.881486 27.297807 245.306996 27.432002 244.883481 27.670837 
C 244.459966 27.909672 244.222004 28.233647 244.222004 28.571411 
C 244.222004 28.909175 244.459966 29.23315 244.883481 29.471985 
C 245.306996 29.71082 245.881486 29.845015 246.480426 29.845015 
z
" style="fill:#0000ff;opacity:0.2;stroke:#0000ff;stroke-linejoin:miter;stroke-width:2;"/>
   </g>
   <g id="patch_24">
    <path clip-path="url(#p6ed51c4b91)" d="M 407.957612 134.917367 
C 408.556552 134.917367 409.131043 134.783172 409.554558 134.544337 
C 409.978072 134.305502 410.216034 133.981527 410.216034 133.643763 
C 410.216034 133.305999 409.978072 132.982024 409.554558 132.743189 
C 409.131043 132.504354 408.556552 132.370159 407.957612 132.370159 
C 407.358671 132.370159 406.784181 132.504354 406.360666 132.743189 
C 405.937151 132.982024 405.69919 133.305999 405.69919 133.643763 
C 405.69919 133.981527 405.937151 134.305502 406.360666 134.544337 
C 406.784181 134.783172 407.358671 134.917367 407.957612 134.917367 
z
" style="fill:#0000ff;opacity:0.2;stroke:#0000ff;stroke-linejoin:miter;stroke-width:2;"/>
   </g>
   <g id="patch_25">
    <path clip-path="url(#p6ed51c4b91)" d="M 286.002814 258.456981 
C 286.601755 258.456981 287.176245 258.322786 287.59976 258.083951 
C 288.023275 257.845116 288.261237 257.521141 288.261237 257.183377 
C 288.261237 256.845613 288.023275 256.521638 287.59976 256.282803 
C 287.176245 256.043968 286.601755 255.909773 286.002814 255.909773 
C 285.403874 255.909773 284.829384 256.043968 284.405869 256.282803 
C 283.982354 256.521638 283.744392 256.845613 283.744392 257.183377 
C 283.744392 257.521141 283.982354 257.845116 284.405869 258.083951 
C 284.829384 258.322786 285.403874 258.456981 286.002814 258.456981 
z
" style="fill:#0000ff;opacity:0.2;stroke:#0000ff;stroke-linejoin:miter;stroke-width:2;"/>
   </g>
   <g id="patch_26">
    <path clip-path="url(#p6ed51c4b91)" d="M 97.424563 297.301911 
C 98.023503 297.301911 98.597993 297.167716 99.021508 296.928881 
C 99.445023 296.690046 99.682985 296.366071 99.682985 296.028307 
C 99.682985 295.690543 99.445023 295.366568 99.021508 295.127733 
C 98.597993 294.888898 98.023503 294.754703 97.424563 294.754703 
C 96.825622 294.754703 96.251132 294.888898 95.827617 295.127733 
C 95.404102 295.366568 95.16614 295.690543 95.16614 296.028307 
C 95.16614 296.366071 95.404102 296.690046 95.827617 296.928881 
C 96.251132 297.167716 96.825622 297.301911 97.424563 297.301911 
z
" style="fill:#0000ff;opacity:0.2;stroke:#0000ff;stroke-linejoin:miter;stroke-width:2;"/>
   </g>
   <g id="patch_27">
    <path clip-path="url(#p6ed51c4b91)" d="M 91.778507 284.565869 
C 92.377448 284.565869 92.951938 284.431674 93.375453 284.192838 
C 93.798968 283.954003 94.036929 283.630028 94.036929 283.292264 
C 94.036929 282.9545 93.798968 282.630525 93.375453 282.39169 
C 92.951938 282.152855 92.377448 282.01866 91.778507 282.01866 
C 91.179567 282.01866 90.605077 282.152855 90.181562 282.39169 
C 89.758047 282.630525 89.520085 282.9545 89.520085 283.292264 
C 89.520085 283.630028 89.758047 283.954003 90.181562 284.192838 
C 90.605077 284.431674 91.179567 284.565869 91.778507 284.565869 
z
" style="fill:#0000ff;opacity:0.2;stroke:#0000ff;stroke-linejoin:miter;stroke-width:2;"/>
   </g>
   <g id="patch_28">
    <path clip-path="url(#p6ed51c4b91)" d="M 189.455266 192.866361 
C 114.927335 192.866361 58.46678 166.120672 58.46678 122.818127 
C 58.46678 67.416341 135.253134 31.755422 235.752921 31.755422 
C 364.482985 31.755422 426.589595 77.605175 426.589595 135.554169 
C 426.589595 240.626521 254.949509 298.575515 85.567846 305.580339 
C 73.146524 303.669933 68.62968 289.660286 79.921791 285.839473 
C 221.073177 265.461805 293.342686 208.149613 293.342686 136.190972 
C 293.342686 94.162031 275.275309 53.406694 232.365288 53.406694 
C 197.359744 53.406694 178.163155 73.784363 178.163155 100.530052 
C 178.163155 127.275742 203.005799 161.663057 242.528188 165.48387 
L 258.337143 165.48387 
C 266.24162 167.394276 268.500043 175.035902 263.983198 178.856714 
C 250.432665 184.587934 217.685544 192.866361 189.455266 192.866361 
" style="fill:none;stroke:#ff0000;stroke-linejoin:miter;stroke-width:0.5;"/>
   </g>
   <g id="patch_29">
    <path clip-path="url(#p6ed51c4b91)" d="M 210.345671 255.909773 
C 273.581492 233.621698 324.395991 193.503164 324.395991 125.365335 
C 324.395991 92.251624 299.553347 45.128267 230.671471 45.128267 
C 190.019872 45.128267 150.497484 64.232331 150.497484 94.798833 
C 150.497484 122.818127 180.986183 154.021431 238.575949 154.021431 
C 254.384904 154.021431 265.677015 153.384629 275.839915 152.747827 
C 280.356759 154.658233 281.48597 159.75265 278.098337 162.299859 
C 261.16017 169.941485 235.188315 177.58311 202.441194 177.58311 
C 133.559317 177.58311 77.098763 152.111025 77.098763 111.355688 
C 77.098763 62.958726 151.626695 28.571411 246.480426 28.571411 
C 345.851002 28.571411 411.345245 69.96355 407.957612 133.643763 
C 405.69919 178.856714 370.693646 220.885655 286.002814 257.183377 
C 234.059104 278.834649 155.014328 291.570692 97.424563 296.028307 
C 88.390874 294.754703 86.132452 286.476275 91.778507 283.292264 
C 138.076162 276.287441 179.856972 266.735409 210.345671 255.909773 
" style="fill:none;stroke:#0000ff;stroke-linejoin:miter;stroke-width:0.5;"/>
   </g>
   <g id="[&quot;g_s&quot;:1,&quot;g_t&quot;:8,&quot;coords&quot;:[[201.0, -313.0],[212.5, -289.0]],&quot;certainty&quot;:11]">
    <path clip-path="url(#p6ed51c4b91)" d="M 189.455266 196.687174 
C 191.252088 196.687174 192.975558 196.284589 194.246103 195.568084 
C 195.516648 194.851579 196.230533 193.879653 196.230533 192.866361 
C 196.230533 191.85307 195.516648 190.881144 194.246103 190.164639 
C 192.975558 189.448134 191.252088 189.045549 189.455266 189.045549 
C 187.658445 189.045549 185.934974 189.448134 184.664429 190.164639 
C 183.393885 190.881144 182.68 191.85307 182.68 192.866361 
C 182.68 193.879653 183.393885 194.851579 184.664429 195.568084 
C 185.934974 196.284589 187.658445 196.687174 189.455266 196.687174 
z
" style="fill:#0000ff;opacity:0.2;stroke:#0000ff;stroke-linejoin:miter;stroke-width:2;"/>
   </g>
   <g id="[&quot;g_s&quot;:8,&quot;g_t&quot;:1,&quot;coords&quot;:[[212.5, -289.0],[201.0, -313.0]],&quot;certainty&quot;:11]">
    <path clip-path="url(#p6ed51c4b91)" d="M 202.441194 181.403923 
C 204.238016 181.403923 205.961486 181.001338 207.232031 180.284833 
C 208.502576 179.568328 209.21646 178.596402 209.21646 177.58311 
C 209.21646 176.569819 208.502576 175.597893 207.232031 174.881388 
C 205.961486 174.164882 204.238016 173.762297 202.441194 173.762297 
C 200.644372 173.762297 198.920902 174.164882 197.650357 174.881388 
C 196.379812 175.597893 195.665927 176.569819 195.665927 177.58311 
C 195.665927 178.596402 196.379812 179.568328 197.650357 180.284833 
C 198.920902 181.001338 200.644372 181.403923 202.441194 181.403923 
z
" style="fill:#ff0000;opacity:0.2;stroke:#ff0000;stroke-linejoin:miter;stroke-width:2;"/>
   </g>
   <g id="patch_30">
    <path d="M 189.455266 192.866361 
Q 195.299885 185.987779 199.770931 180.725766 
" style="fill:none;opacity:0.5;stroke:#0000ff;stroke-linecap:round;stroke-width:3;"/>
    <path d="M 197.656581 180.897591 
L 199.770931 180.725766 
L 199.942755 182.840116 
" style="fill:none;opacity:0.5;stroke:#0000ff;stroke-linecap:round;stroke-width:3;"/>
   </g>
   <g id="[&quot;g_s&quot;:2,&quot;g_t&quot;:9,&quot;coords&quot;:[[85.0, -203.0],[101.5, -185.0]],&quot;certainty&quot;:11]">
    <path clip-path="url(#p6ed51c4b91)" d="M 58.46678 126.63894 
C 60.263602 126.63894 61.987072 126.236355 63.257617 125.519849 
C 64.528162 124.803344 65.242047 123.831418 65.242047 122.818127 
C 65.242047 121.804835 64.528162 120.832909 63.257617 120.116404 
C 61.987072 119.399899 60.263602 118.997314 58.46678 118.997314 
C 56.669958 118.997314 54.946488 119.399899 53.675943 120.116404 
C 52.405398 120.832909 51.691514 121.804835 51.691514 122.818127 
C 51.691514 123.831418 52.405398 124.803344 53.675943 125.519849 
C 54.946488 126.236355 56.669958 126.63894 58.46678 126.63894 
z
" style="fill:#0000ff;opacity:0.2;stroke:#0000ff;stroke-linejoin:miter;stroke-width:2;"/>
   </g>
   <g id="[&quot;g_s&quot;:9,&quot;g_t&quot;:2,&quot;coords&quot;:[[101.5, -185.0],[85.0, -203.0]],&quot;certainty&quot;:11]">
    <path clip-path="url(#p6ed51c4b91)" d="M 77.098763 115.176501 
C 78.895585 115.176501 80.619055 114.773916 81.8896 114.057411 
C 83.160145 113.340906 83.87403 112.36898 83.87403 111.355688 
C 83.87403 110.342397 83.160145 109.370471 81.8896 108.653966 
C 80.619055 107.937461 78.895585 107.534876 77.098763 107.534876 
C 75.301941 107.534876 73.578471 107.937461 72.307926 108.653966 
C 71.037381 109.370471 70.323497 110.342397 70.323497 111.355688 
C 70.323497 112.36898 71.037381 113.340906 72.307926 114.057411 
C 73.578471 114.773916 75.301941 115.176501 77.098763 115.176501 
z
" style="fill:#ff0000;opacity:0.2;stroke:#ff0000;stroke-linejoin:miter;stroke-width:2;"/>
   </g>
   <g id="patch_31">
    <path d="M 58.46678 122.818127 
Q 66.931004 117.610917 73.588441 113.515246 
" style="fill:none;opacity:0.5;stroke:#0000ff;stroke-linecap:round;stroke-width:3;"/>
    <path d="M 71.524873 113.023632 
L 73.588441 113.515246 
L 73.096827 115.578815 
" style="fill:none;opacity:0.5;stroke:#0000ff;stroke-linecap:round;stroke-width:3;"/>
   </g>
   <g id="[&quot;g_s&quot;:3,&quot;g_t&quot;:10,&quot;coords&quot;:[[242.0, -60.0],[251.5, -55.0]],&quot;certainty&quot;:11]">
    <path clip-path="url(#p6ed51c4b91)" d="M 235.752921 35.576235 
C 237.549743 35.576235 239.273213 35.17365 240.543758 34.457144 
C 241.814303 33.740639 242.528188 32.768713 242.528188 31.755422 
C 242.528188 30.74213 241.814303 29.770204 240.543758 29.053699 
C 239.273213 28.337194 237.549743 27.934609 235.752921 27.934609 
C 233.956099 27.934609 232.232629 28.337194 230.962084 29.053699 
C 229.691539 29.770204 228.977654 30.74213 228.977654 31.755422 
C 228.977654 32.768713 229.691539 33.740639 230.962084 34.457144 
C 232.232629 35.17365 233.956099 35.576235 235.752921 35.576235 
z
" style="fill:#0000ff;opacity:0.2;stroke:#0000ff;stroke-linejoin:miter;stroke-width:2;"/>
   </g>
   <g id="[&quot;g_s&quot;:10,&quot;g_t&quot;:3,&quot;coords&quot;:[[251.5, -55.0],[242.0, -60.0]],&quot;certainty&quot;:11]">
    <path clip-path="url(#p6ed51c4b91)" d="M 246.480426 32.392224 
C 248.277248 32.392224 250.000718 31.989639 251.271263 31.273134 
C 252.541808 30.556629 253.255693 29.584702 253.255693 28.571411 
C 253.255693 27.55812 252.541808 26.586194 251.271263 25.869688 
C 250.000718 25.153183 248.277248 24.750598 246.480426 24.750598 
C 244.683605 24.750598 242.960134 25.153183 241.689589 25.869688 
C 240.419045 26.586194 239.70516 27.55812 239.70516 28.571411 
C 239.70516 29.584702 240.419045 30.556629 241.689589 31.273134 
C 242.960134 31.989639 244.683605 32.392224 246.480426 32.392224 
z
" style="fill:#ff0000;opacity:0.2;stroke:#ff0000;stroke-linejoin:miter;stroke-width:2;"/>
   </g>
   <g id="patch_32">
    <path d="M 235.752921 31.755422 
Q 240.156803 30.448314 242.527051 29.744805 
" style="fill:none;opacity:0.5;stroke:#0000ff;stroke-linecap:round;stroke-width:3;"/>
    <path d="M 240.662245 28.733618 
L 242.527051 29.744805 
L 241.515863 31.609611 
" style="fill:none;opacity:0.5;stroke:#0000ff;stroke-linecap:round;stroke-width:3;"/>
   </g>
   <g id="[&quot;g_s&quot;:4,&quot;g_t&quot;:11,&quot;coords&quot;:[[411.0, -223.0],[394.5, -220.0]],&quot;certainty&quot;:11]">
    <path clip-path="url(#p6ed51c4b91)" d="M 426.589595 139.374982 
C 428.386417 139.374982 430.109887 138.972397 431.380432 138.255892 
C 432.650977 137.539387 433.364861 136.567461 433.364861 135.554169 
C 433.364861 134.540878 432.650977 133.568952 431.380432 132.852447 
C 430.109887 132.135942 428.386417 131.733357 426.589595 131.733357 
C 424.792773 131.733357 423.069303 132.135942 421.798758 132.852447 
C 420.528213 133.568952 419.814328 134.540878 419.814328 135.554169 
C 419.814328 136.567461 420.528213 137.539387 421.798758 138.255892 
C 423.069303 138.972397 424.792773 139.374982 426.589595 139.374982 
z
" style="fill:#0000ff;opacity:0.2;stroke:#0000ff;stroke-linejoin:miter;stroke-width:2;"/>
   </g>
   <g id="[&quot;g_s&quot;:11,&quot;g_t&quot;:4,&quot;coords&quot;:[[394.5, -220.0],[411.0, -223.0]],&quot;certainty&quot;:11]">
    <path clip-path="url(#p6ed51c4b91)" d="M 407.957612 137.464576 
C 409.754434 137.464576 411.477904 137.061991 412.748449 136.345486 
C 414.018994 135.62898 414.732878 134.657054 414.732878 133.643763 
C 414.732878 132.630472 414.018994 131.658546 412.748449 130.94204 
C 411.477904 130.225535 409.754434 129.82295 407.957612 129.82295 
C 406.16079 129.82295 404.43732 130.225535 403.166775 130.94204 
C 401.89623 131.658546 401.182345 132.630472 401.182345 133.643763 
C 401.182345 134.657054 401.89623 135.62898 403.166775 136.345486 
C 404.43732 137.061991 406.16079 137.464576 407.957612 137.464576 
z
" style="fill:#ff0000;opacity:0.2;stroke:#ff0000;stroke-linejoin:miter;stroke-width:2;"/>
   </g>
   <g id="patch_33">
    <path d="M 426.589595 135.554169 
Q 418.267521 134.700876 412.055705 134.063956 
" style="fill:none;opacity:0.5;stroke:#0000ff;stroke-linecap:round;stroke-width:3;"/>
    <path d="M 413.394883 135.709131 
L 412.055705 134.063956 
L 413.70088 132.724777 
" style="fill:none;opacity:0.5;stroke:#0000ff;stroke-linecap:round;stroke-width:3;"/>
   </g>
   <g id="[&quot;g_s&quot;:5,&quot;g_t&quot;:13,&quot;coords&quot;:[[109.0, -490.0],[119.5, -475.0]],&quot;certainty&quot;:4]">
    <path clip-path="url(#p6ed51c4b91)" d="M 85.567846 307.172344 
C 86.316522 307.172344 87.034635 307.004601 87.564028 306.706057 
C 88.093422 306.407513 88.390874 306.002544 88.390874 305.580339 
C 88.390874 305.158134 88.093422 304.753165 87.564028 304.454621 
C 87.034635 304.156077 86.316522 303.988334 85.567846 303.988334 
C 84.819171 303.988334 84.101058 304.156077 83.571664 304.454621 
C 83.042271 304.753165 82.744819 305.158134 82.744819 305.580339 
C 82.744819 306.002544 83.042271 306.407513 83.571664 306.706057 
C 84.101058 307.004601 84.819171 307.172344 85.567846 307.172344 
z
" style="fill:#0000ff;opacity:0.2;stroke:#0000ff;stroke-linejoin:miter;stroke-width:2;"/>
   </g>
   <g id="[&quot;g_s&quot;:13,&quot;g_t&quot;:5,&quot;coords&quot;:[[119.5, -475.0],[109.0, -490.0]],&quot;certainty&quot;:4]">
    <path clip-path="url(#p6ed51c4b91)" d="M 97.424563 297.620312 
C 98.173238 297.620312 98.891351 297.452569 99.420745 297.154025 
C 99.950138 296.855481 100.24759 296.450512 100.24759 296.028307 
C 100.24759 295.606102 99.950138 295.201133 99.420745 294.902589 
C 98.891351 294.604045 98.173238 294.436302 97.424563 294.436302 
C 96.675887 294.436302 95.957774 294.604045 95.428381 294.902589 
C 94.898987 295.201133 94.601535 295.606102 94.601535 296.028307 
C 94.601535 296.450512 94.898987 296.855481 95.428381 297.154025 
C 95.957774 297.452569 96.675887 297.620312 97.424563 297.620312 
z
" style="fill:#ff0000;opacity:0.2;stroke:#ff0000;stroke-linejoin:miter;stroke-width:2;"/>
   </g>
   <g id="patch_34">
    <path d="M 85.567846 305.580339 
Q 90.716081 301.432807 95.176011 297.83979 
" style="fill:none;opacity:0.5;stroke:#0000ff;stroke-linecap:round;stroke-width:1.25;"/>
    <path d="M 93.066876 297.612738 
L 95.176011 297.83979 
L 94.948959 299.948924 
" style="fill:none;opacity:0.5;stroke:#0000ff;stroke-linecap:round;stroke-width:1.25;"/>
   </g>
   <g id="[&quot;g_s&quot;:6,&quot;g_t&quot;:14,&quot;coords&quot;:[[104.0, -459.0],[114.5, -455.0]],&quot;certainty&quot;:6]">
    <path clip-path="url(#p6ed51c4b91)" d="M 79.921791 288.06828 
C 80.969937 288.06828 81.975295 287.833439 82.716446 287.415478 
C 83.457597 286.997516 83.87403 286.430559 83.87403 285.839473 
C 83.87403 285.248386 83.457597 284.681429 82.716446 284.263468 
C 81.975295 283.845507 80.969937 283.610665 79.921791 283.610665 
C 78.873645 283.610665 77.868287 283.845507 77.127136 284.263468 
C 76.385985 284.681429 75.969552 285.248386 75.969552 285.839473 
C 75.969552 286.430559 76.385985 286.997516 77.127136 287.415478 
C 77.868287 287.833439 78.873645 288.06828 79.921791 288.06828 
z
" style="fill:#0000ff;opacity:0.2;stroke:#0000ff;stroke-linejoin:miter;stroke-width:2;"/>
   </g>
   <g id="[&quot;g_s&quot;:14,&quot;g_t&quot;:6,&quot;coords&quot;:[[114.5, -455.0],[104.0, -459.0]],&quot;certainty&quot;:6]">
    <path clip-path="url(#p6ed51c4b91)" d="M 91.778507 285.521072 
C 92.826653 285.521072 93.832011 285.286231 94.573162 284.868269 
C 95.314313 284.450308 95.730746 283.883351 95.730746 283.292264 
C 95.730746 282.701178 95.314313 282.134221 94.573162 281.716259 
C 93.832011 281.298298 92.826653 281.063457 91.778507 281.063457 
C 90.730361 281.063457 89.725004 281.298298 88.983852 281.716259 
C 88.242701 282.134221 87.826268 282.701178 87.826268 283.292264 
C 87.826268 283.883351 88.242701 284.450308 88.983852 284.868269 
C 89.725004 285.286231 90.730361 285.521072 91.778507 285.521072 
z
" style="fill:#ff0000;opacity:0.2;stroke:#ff0000;stroke-linejoin:miter;stroke-width:2;"/>
   </g>
   <g id="patch_35">
    <path d="M 79.921791 285.839473 
Q 84.873186 284.775752 88.614748 283.971943 
" style="fill:none;opacity:0.5;stroke:#0000ff;stroke-linecap:round;stroke-width:1.75;"/>
    <path d="M 86.833148 282.820464 
L 88.614748 283.971943 
L 87.463269 285.753542 
" style="fill:none;opacity:0.5;stroke:#0000ff;stroke-linecap:round;stroke-width:1.75;"/>
   </g>
   <g id="[&quot;g_s&quot;:7,&quot;g_t&quot;:6,&quot;coords&quot;:[[293.0, -224.0],[277.5, -250.0]],&quot;certainty&quot;:5]">
    <path clip-path="url(#p6ed51c4b91)" d="M 293.342686 138.101378 
C 294.241097 138.101378 295.102833 137.900085 295.738105 137.541833 
C 296.373377 137.18358 296.73032 136.697617 296.73032 136.190972 
C 296.73032 135.684326 296.373377 135.198363 295.738105 134.84011 
C 295.102833 134.481858 294.241097 134.280565 293.342686 134.280565 
C 292.444276 134.280565 291.58254 134.481858 290.947268 134.84011 
C 290.311996 135.198363 289.955053 135.684326 289.955053 136.190972 
C 289.955053 136.697617 290.311996 137.18358 290.947268 137.541833 
C 291.58254 137.900085 292.444276 138.101378 293.342686 138.101378 
z
" style="fill:#0000ff;opacity:0.2;stroke:#0000ff;stroke-linejoin:miter;stroke-width:2;"/>
   </g>
   <g id="[&quot;g_s&quot;:6,&quot;g_t&quot;:7,&quot;coords&quot;:[[277.5, -250.0],[293.0, -224.0]],&quot;certainty&quot;:5]">
    <path clip-path="url(#p6ed51c4b91)" d="M 275.839915 154.658233 
C 276.738325 154.658233 277.600061 154.456941 278.235333 154.098688 
C 278.870605 153.740436 279.227548 153.254473 279.227548 152.747827 
C 279.227548 152.241181 278.870605 151.755218 278.235333 151.396966 
C 277.600061 151.038713 276.738325 150.837421 275.839915 150.837421 
C 274.941504 150.837421 274.079769 151.038713 273.444496 151.396966 
C 272.809224 151.755218 272.452281 152.241181 272.452281 152.747827 
C 272.452281 153.254473 272.809224 153.740436 273.444496 154.098688 
C 274.079769 154.456941 274.941504 154.658233 275.839915 154.658233 
z
" style="fill:#ff0000;opacity:0.2;stroke:#ff0000;stroke-linejoin:miter;stroke-width:2;"/>
   </g>
   <g id="patch_36">
    <path d="M 293.342686 136.190972 
Q 285.318802 143.781215 278.06545 150.642568 
" style="fill:none;opacity:0.5;stroke:#0000ff;stroke-linecap:round;stroke-width:1.5;"/>
    <path d="M 280.185953 150.701459 
L 278.06545 150.642568 
L 278.124342 148.522065 
" style="fill:none;opacity:0.5;stroke:#0000ff;stroke-linecap:round;stroke-width:1.5;"/>
   </g>
   <g id="[&quot;g_s&quot;:8,&quot;g_t&quot;:3,&quot;coords&quot;:[[239.0, -94.0],[237.5, -81.0]],&quot;certainty&quot;:11]">
    <path clip-path="url(#p6ed51c4b91)" d="M 232.365288 57.227507 
C 234.162109 57.227507 235.88558 56.824922 237.156125 56.108417 
C 238.426669 55.391912 239.140554 54.419986 239.140554 53.406694 
C 239.140554 52.393403 238.426669 51.421477 237.156125 50.704972 
C 235.88558 49.988466 234.162109 49.585881 232.365288 49.585881 
C 230.568466 49.585881 228.844996 49.988466 227.574451 50.704972 
C 226.303906 51.421477 225.590021 52.393403 225.590021 53.406694 
C 225.590021 54.419986 226.303906 55.391912 227.574451 56.108417 
C 228.844996 56.824922 230.568466 57.227507 232.365288 57.227507 
z
" style="fill:#0000ff;opacity:0.2;stroke:#0000ff;stroke-linejoin:miter;stroke-width:2;"/>
   </g>
   <g id="[&quot;g_s&quot;:3,&quot;g_t&quot;:8,&quot;coords&quot;:[[237.5, -81.0],[239.0, -94.0]],&quot;certainty&quot;:11]">
    <path clip-path="url(#p6ed51c4b91)" d="M 230.671471 48.949079 
C 232.468293 48.949079 234.191763 48.546494 235.462308 47.829989 
C 236.732853 47.113484 237.446738 46.141558 237.446738 45.128267 
C 237.446738 44.114975 236.732853 43.143049 235.462308 42.426544 
C 234.191763 41.710039 232.468293 41.307454 230.671471 41.307454 
C 228.874649 41.307454 227.151179 41.710039 225.880634 42.426544 
C 224.610089 43.143049 223.896205 44.114975 223.896205 45.128267 
C 223.896205 46.141558 224.610089 47.113484 225.880634 47.829989 
C 227.151179 48.546494 228.874649 48.949079 230.671471 48.949079 
z
" style="fill:#ff0000;opacity:0.2;stroke:#ff0000;stroke-linejoin:miter;stroke-width:2;"/>
   </g>
   <g id="patch_37">
    <path d="M 232.365288 53.406694 
Q 231.718941 50.247714 231.49782 49.166999 
" style="fill:none;opacity:0.5;stroke:#0000ff;stroke-linecap:round;stroke-width:3;"/>
    <path d="M 230.328945 50.937233 
L 231.49782 49.166999 
L 233.268055 50.335874 
" style="fill:none;opacity:0.5;stroke:#0000ff;stroke-linecap:round;stroke-width:3;"/>
   </g>
   <g id="[&quot;g_s&quot;:9,&quot;g_t&quot;:4,&quot;coords&quot;:[[191.0, -168.0],[166.5, -159.0]],&quot;certainty&quot;:11]">
    <path clip-path="url(#p6ed51c4b91)" d="M 178.163155 104.350865 
C 179.959977 104.350865 181.683448 103.94828 182.953992 103.231775 
C 184.224537 102.51527 184.938422 101.543344 184.938422 100.530052 
C 184.938422 99.516761 184.224537 98.544835 182.953992 97.828329 
C 181.683448 97.111824 179.959977 96.709239 178.163155 96.709239 
C 176.366334 96.709239 174.642863 97.111824 173.372319 97.828329 
C 172.101774 98.544835 171.387889 99.516761 171.387889 100.530052 
C 171.387889 101.543344 172.101774 102.51527 173.372319 103.231775 
C 174.642863 103.94828 176.366334 104.350865 178.163155 104.350865 
z
" style="fill:#0000ff;opacity:0.2;stroke:#0000ff;stroke-linejoin:miter;stroke-width:2;"/>
   </g>
   <g id="[&quot;g_s&quot;:4,&quot;g_t&quot;:9,&quot;coords&quot;:[[166.5, -159.0],[191.0, -168.0]],&quot;certainty&quot;:11]">
    <path clip-path="url(#p6ed51c4b91)" d="M 150.497484 98.619646 
C 152.294306 98.619646 154.017776 98.217061 155.288321 97.500556 
C 156.558866 96.78405 157.27275 95.812124 157.27275 94.798833 
C 157.27275 93.785542 156.558866 92.813615 155.288321 92.09711 
C 154.017776 91.380605 152.294306 90.97802 150.497484 90.97802 
C 148.700662 90.97802 146.977192 91.380605 145.706647 92.09711 
C 144.436102 92.813615 143.722217 93.785542 143.722217 94.798833 
C 143.722217 95.812124 144.436102 96.78405 145.706647 97.500556 
C 146.977192 98.217061 148.700662 98.619646 150.497484 98.619646 
z
" style="fill:#ff0000;opacity:0.2;stroke:#ff0000;stroke-linejoin:miter;stroke-width:2;"/>
   </g>
   <g id="patch_38">
    <path d="M 178.163155 100.530052 
Q 165.308007 97.86698 154.530074 95.634224 
" style="fill:none;opacity:0.5;stroke:#0000ff;stroke-linecap:round;stroke-width:3;"/>
    <path d="M 155.694609 97.407317 
L 154.530074 95.634224 
L 156.303167 94.46969 
" style="fill:none;opacity:0.5;stroke:#0000ff;stroke-linecap:round;stroke-width:3;"/>
   </g>
   <g id="[&quot;g_s&quot;:10,&quot;g_t&quot;:5,&quot;coords&quot;:[[248.0, -270.0],[244.5, -252.0]],&quot;certainty&quot;:5]">
    <path clip-path="url(#p6ed51c4b91)" d="M 242.528188 167.394276 
C 243.426598 167.394276 244.288334 167.192984 244.923606 166.834731 
C 245.558878 166.476478 245.915821 165.990515 245.915821 165.48387 
C 245.915821 164.977224 245.558878 164.491261 244.923606 164.133008 
C 244.288334 163.774756 243.426598 163.573463 242.528188 163.573463 
C 241.629777 163.573463 240.768041 163.774756 240.132769 164.133008 
C 239.497497 164.491261 239.140554 164.977224 239.140554 165.48387 
C 239.140554 165.990515 239.497497 166.476478 240.132769 166.834731 
C 240.768041 167.192984 241.629777 167.394276 242.528188 167.394276 
z
" style="fill:#0000ff;opacity:0.2;stroke:#0000ff;stroke-linejoin:miter;stroke-width:2;"/>
   </g>
   <g id="[&quot;g_s&quot;:5,&quot;g_t&quot;:10,&quot;coords&quot;:[[244.5, -252.0],[248.0, -270.0]],&quot;certainty&quot;:5]">
    <path clip-path="url(#p6ed51c4b91)" d="M 238.575949 155.931838 
C 239.47436 155.931838 240.336095 155.730545 240.971367 155.372293 
C 241.60664 155.01404 241.963582 154.528077 241.963582 154.021431 
C 241.963582 153.514786 241.60664 153.028823 240.971367 152.67057 
C 240.336095 152.312317 239.47436 152.111025 238.575949 152.111025 
C 237.677538 152.111025 236.815803 152.312317 236.18053 152.67057 
C 235.545258 153.028823 235.188315 153.514786 235.188315 154.021431 
C 235.188315 154.528077 235.545258 155.01404 236.18053 155.372293 
C 236.815803 155.730545 237.677538 155.931838 238.575949 155.931838 
z
" style="fill:#ff0000;opacity:0.2;stroke:#ff0000;stroke-linejoin:miter;stroke-width:2;"/>
   </g>
   <g id="patch_39">
    <path d="M 242.528188 165.48387 
Q 240.877723 160.697126 239.572997 156.913111 
" style="fill:none;opacity:0.5;stroke:#0000ff;stroke-linecap:round;stroke-width:1.5;"/>
    <path d="M 238.643875 158.820133 
L 239.572997 156.913111 
L 241.480019 157.842233 
" style="fill:none;opacity:0.5;stroke:#0000ff;stroke-linecap:round;stroke-width:1.5;"/>
   </g>
   <g id="[&quot;g_s&quot;:11,&quot;g_t&quot;:6,&quot;coords&quot;:[[262.0, -270.0],[277.5, -250.0]],&quot;certainty&quot;:5]">
    <path clip-path="url(#p6ed51c4b91)" d="M 258.337143 167.394276 
C 259.235554 167.394276 260.097289 167.192984 260.732561 166.834731 
C 261.367834 166.476478 261.724776 165.990515 261.724776 165.48387 
C 261.724776 164.977224 261.367834 164.491261 260.732561 164.133008 
C 260.097289 163.774756 259.235554 163.573463 258.337143 163.573463 
C 257.438732 163.573463 256.576997 163.774756 255.941724 164.133008 
C 255.306452 164.491261 254.949509 164.977224 254.949509 165.48387 
C 254.949509 165.990515 255.306452 166.476478 255.941724 166.834731 
C 256.576997 167.192984 257.438732 167.394276 258.337143 167.394276 
z
" style="fill:#0000ff;opacity:0.2;stroke:#0000ff;stroke-linejoin:miter;stroke-width:2;"/>
   </g>
   <g id="[&quot;g_s&quot;:6,&quot;g_t&quot;:11,&quot;coords&quot;:[[277.5, -250.0],[262.0, -270.0]],&quot;certainty&quot;:5]">
    <path clip-path="url(#p6ed51c4b91)" d="M 275.839915 154.658233 
C 276.738325 154.658233 277.600061 154.456941 278.235333 154.098688 
C 278.870605 153.740436 279.227548 153.254473 279.227548 152.747827 
C 279.227548 152.241181 278.870605 151.755218 278.235333 151.396966 
C 277.600061 151.038713 276.738325 150.837421 275.839915 150.837421 
C 274.941504 150.837421 274.079769 151.038713 273.444496 151.396966 
C 272.809224 151.755218 272.452281 152.241181 272.452281 152.747827 
C 272.452281 153.254473 272.809224 153.740436 273.444496 154.098688 
C 274.079769 154.456941 274.941504 154.658233 275.839915 154.658233 
z
" style="fill:#ff0000;opacity:0.2;stroke:#ff0000;stroke-linejoin:miter;stroke-width:2;"/>
   </g>
   <g id="patch_40">
    <path d="M 258.337143 165.48387 
Q 266.279837 159.7043 273.364895 154.548796 
" style="fill:none;opacity:0.5;stroke:#0000ff;stroke-linecap:round;stroke-width:1.5;"/>
    <path d="M 271.26945 154.218478 
L 273.364895 154.548796 
L 273.034577 156.644241 
" style="fill:none;opacity:0.5;stroke:#0000ff;stroke-linecap:round;stroke-width:1.5;"/>
   </g>
   <g id="[&quot;g_s&quot;:12,&quot;g_t&quot;:7,&quot;coords&quot;:[[267.0, -291.0],[279.5, -265.0]],&quot;certainty&quot;:5]">
    <path clip-path="url(#p6ed51c4b91)" d="M 263.983198 180.767121 
C 264.881609 180.767121 265.743344 180.565828 266.378617 180.207576 
C 267.013889 179.849323 267.370831 179.36336 267.370831 178.856714 
C 267.370831 178.350069 267.013889 177.864106 266.378617 177.505853 
C 265.743344 177.147601 264.881609 176.946308 263.983198 176.946308 
C 263.084787 176.946308 262.223052 177.147601 261.58778 177.505853 
C 260.952507 177.864106 260.595565 178.350069 260.595565 178.856714 
C 260.595565 179.36336 260.952507 179.849323 261.58778 180.207576 
C 262.223052 180.565828 263.084787 180.767121 263.983198 180.767121 
z
" style="fill:#0000ff;opacity:0.2;stroke:#0000ff;stroke-linejoin:miter;stroke-width:2;"/>
   </g>
   <g id="[&quot;g_s&quot;:7,&quot;g_t&quot;:12,&quot;coords&quot;:[[279.5, -265.0],[267.0, -291.0]],&quot;certainty&quot;:5]">
    <path clip-path="url(#p6ed51c4b91)" d="M 278.098337 164.210265 
C 278.996748 164.210265 279.858483 164.008973 280.493755 163.65072 
C 281.129028 163.292468 281.48597 162.806505 281.48597 162.299859 
C 281.48597 161.793213 281.129028 161.30725 280.493755 160.948998 
C 279.858483 160.590745 278.996748 160.389453 278.098337 160.389453 
C 277.199926 160.389453 276.338191 160.590745 275.702918 160.948998 
C 275.067646 161.30725 274.710704 161.793213 274.710704 162.299859 
C 274.710704 162.806505 275.067646 163.292468 275.702918 163.65072 
C 276.338191 164.008973 277.199926 164.210265 278.098337 164.210265 
z
" style="fill:#ff0000;opacity:0.2;stroke:#ff0000;stroke-linejoin:miter;stroke-width:2;"/>
   </g>
   <g id="patch_41">
    <path d="M 263.983198 178.856714 
Q 270.392043 171.339231 276.112771 164.6289 
" style="fill:none;opacity:0.5;stroke:#0000ff;stroke-linecap:round;stroke-width:1.5;"/>
    <path d="M 273.99814 164.79724 
L 276.112771 164.6289 
L 276.281111 166.74353 
" style="fill:none;opacity:0.5;stroke:#0000ff;stroke-linecap:round;stroke-width:1.5;"/>
   </g>
   <g id="[&quot;g_s&quot;:1,&quot;g_t&quot;:12,&quot;coords&quot;:[[219.5, -412.0],[267.0, -291.0]],&quot;certainty&quot;:11]">
    <path clip-path="url(#p6ed51c4b91)" d="M 210.345671 259.730585 
C 212.142493 259.730585 213.865964 259.328 215.136508 258.611495 
C 216.407053 257.89499 217.120938 256.923064 217.120938 255.909773 
C 217.120938 254.896481 216.407053 253.924555 215.136508 253.20805 
C 213.865964 252.491545 212.142493 252.08896 210.345671 252.08896 
C 208.54885 252.08896 206.825379 252.491545 205.554835 253.20805 
C 204.28429 253.924555 203.570405 254.896481 203.570405 255.909773 
C 203.570405 256.923064 204.28429 257.89499 205.554835 258.611495 
C 206.825379 259.328 208.54885 259.730585 210.345671 259.730585 
z
" style="fill:#0000ff;opacity:0.2;stroke:#0000ff;stroke-linejoin:miter;stroke-width:2;"/>
   </g>
   <g id="[&quot;g_s&quot;:12,&quot;g_t&quot;:1,&quot;coords&quot;:[[267.0, -291.0],[219.5, -412.0]],&quot;certainty&quot;:11]">
    <path clip-path="url(#p6ed51c4b91)" d="M 263.983198 182.677527 
C 265.78002 182.677527 267.50349 182.274942 268.774035 181.558437 
C 270.04458 180.841932 270.758465 179.870006 270.758465 178.856714 
C 270.758465 177.843423 270.04458 176.871497 268.774035 176.154992 
C 267.50349 175.438487 265.78002 175.035902 263.983198 175.035902 
C 262.186376 175.035902 260.462906 175.438487 259.192361 176.154992 
C 257.921816 176.871497 257.207932 177.843423 257.207932 178.856714 
C 257.207932 179.870006 257.921816 180.841932 259.192361 181.558437 
C 260.462906 182.274942 262.186376 182.677527 263.983198 182.677527 
z
" style="fill:#ff0000;opacity:0.2;stroke:#ff0000;stroke-linejoin:miter;stroke-width:2;"/>
   </g>
   <g id="patch_42">
    <path d="M 210.345671 255.909773 
Q 236.592343 218.205083 261.627064 182.241422 
" style="fill:none;opacity:0.5;stroke:#ff0000;stroke-linecap:round;stroke-width:3;"/>
    <path d="M 259.538994 182.615537 
L 261.627064 182.241422 
L 262.001179 184.329492 
" style="fill:none;opacity:0.5;stroke:#ff0000;stroke-linecap:round;stroke-width:3;"/>
   </g>
   <g id="[&quot;g_s&quot;:2,&quot;g_t&quot;:7,&quot;coords&quot;:[[320.5, -207.0],[293.0, -224.0]],&quot;certainty&quot;:11]">
    <path clip-path="url(#p6ed51c4b91)" d="M 324.395991 129.186148 
C 326.192813 129.186148 327.916283 128.783563 329.186828 128.067058 
C 330.457373 127.350553 331.171258 126.378627 331.171258 125.365335 
C 331.171258 124.352044 330.457373 123.380118 329.186828 122.663613 
C 327.916283 121.947107 326.192813 121.544522 324.395991 121.544522 
C 322.59917 121.544522 320.875699 121.947107 319.605154 122.663613 
C 318.33461 123.380118 317.620725 124.352044 317.620725 125.365335 
C 317.620725 126.378627 318.33461 127.350553 319.605154 128.067058 
C 320.875699 128.783563 322.59917 129.186148 324.395991 129.186148 
z
" style="fill:#0000ff;opacity:0.2;stroke:#0000ff;stroke-linejoin:miter;stroke-width:2;"/>
   </g>
   <g id="[&quot;g_s&quot;:7,&quot;g_t&quot;:2,&quot;coords&quot;:[[293.0, -224.0],[320.5, -207.0]],&quot;certainty&quot;:11]">
    <path clip-path="url(#p6ed51c4b91)" d="M 293.342686 140.011784 
C 295.139508 140.011784 296.862979 139.609199 298.133523 138.892694 
C 299.404068 138.176189 300.117953 137.204263 300.117953 136.190972 
C 300.117953 135.17768 299.404068 134.205754 298.133523 133.489249 
C 296.862979 132.772744 295.139508 132.370159 293.342686 132.370159 
C 291.545865 132.370159 289.822394 132.772744 288.55185 133.489249 
C 287.281305 134.205754 286.56742 135.17768 286.56742 136.190972 
C 286.56742 137.204263 287.281305 138.176189 288.55185 138.892694 
C 289.822394 139.609199 291.545865 140.011784 293.342686 140.011784 
z
" style="fill:#ff0000;opacity:0.2;stroke:#ff0000;stroke-linejoin:miter;stroke-width:2;"/>
   </g>
   <g id="patch_43">
    <path d="M 324.395991 125.365335 
Q 309.815115 130.448442 297.237329 134.833242 
" style="fill:none;opacity:0.5;stroke:#ff0000;stroke-linecap:round;stroke-width:3;"/>
    <path d="M 299.147504 135.755863 
L 297.237329 134.833242 
L 298.15995 132.923067 
" style="fill:none;opacity:0.5;stroke:#ff0000;stroke-linecap:round;stroke-width:3;"/>
   </g>
   <g id="[&quot;g_s&quot;:3,&quot;g_t&quot;:8,&quot;coords&quot;:[[237.5, -81.0],[239.0, -94.0]],&quot;certainty&quot;:11]">
    <path clip-path="url(#p6ed51c4b91)" d="M 230.671471 48.949079 
C 232.468293 48.949079 234.191763 48.546494 235.462308 47.829989 
C 236.732853 47.113484 237.446738 46.141558 237.446738 45.128267 
C 237.446738 44.114975 236.732853 43.143049 235.462308 42.426544 
C 234.191763 41.710039 232.468293 41.307454 230.671471 41.307454 
C 228.874649 41.307454 227.151179 41.710039 225.880634 42.426544 
C 224.610089 43.143049 223.896205 44.114975 223.896205 45.128267 
C 223.896205 46.141558 224.610089 47.113484 225.880634 47.829989 
C 227.151179 48.546494 228.874649 48.949079 230.671471 48.949079 
z
" style="fill:#0000ff;opacity:0.2;stroke:#0000ff;stroke-linejoin:miter;stroke-width:2;"/>
   </g>
   <g id="[&quot;g_s&quot;:8,&quot;g_t&quot;:3,&quot;coords&quot;:[[239.0, -94.0],[237.5, -81.0]],&quot;certainty&quot;:11]">
    <path clip-path="url(#p6ed51c4b91)" d="M 232.365288 57.227507 
C 234.162109 57.227507 235.88558 56.824922 237.156125 56.108417 
C 238.426669 55.391912 239.140554 54.419986 239.140554 53.406694 
C 239.140554 52.393403 238.426669 51.421477 237.156125 50.704972 
C 235.88558 49.988466 234.162109 49.585881 232.365288 49.585881 
C 230.568466 49.585881 228.844996 49.988466 227.574451 50.704972 
C 226.303906 51.421477 225.590021 52.393403 225.590021 53.406694 
C 225.590021 54.419986 226.303906 55.391912 227.574451 56.108417 
C 228.844996 56.824922 230.568466 57.227507 232.365288 57.227507 
z
" style="fill:#ff0000;opacity:0.2;stroke:#ff0000;stroke-linejoin:miter;stroke-width:2;"/>
   </g>
   <g id="patch_44">
    <path d="M 230.671471 45.128267 
Q 231.317818 48.287247 231.538939 49.367962 
" style="fill:none;opacity:0.5;stroke:#ff0000;stroke-linecap:round;stroke-width:3;"/>
    <path d="M 232.707814 47.597728 
L 231.538939 49.367962 
L 229.768704 48.199087 
" style="fill:none;opacity:0.5;stroke:#ff0000;stroke-linecap:round;stroke-width:3;"/>
   </g>
   <g id="[&quot;g_s&quot;:4,&quot;g_t&quot;:9,&quot;coords&quot;:[[166.5, -159.0],[191.0, -168.0]],&quot;certainty&quot;:11]">
    <path clip-path="url(#p6ed51c4b91)" d="M 150.497484 98.619646 
C 152.294306 98.619646 154.017776 98.217061 155.288321 97.500556 
C 156.558866 96.78405 157.27275 95.812124 157.27275 94.798833 
C 157.27275 93.785542 156.558866 92.813615 155.288321 92.09711 
C 154.017776 91.380605 152.294306 90.97802 150.497484 90.97802 
C 148.700662 90.97802 146.977192 91.380605 145.706647 92.09711 
C 144.436102 92.813615 143.722217 93.785542 143.722217 94.798833 
C 143.722217 95.812124 144.436102 96.78405 145.706647 97.500556 
C 146.977192 98.217061 148.700662 98.619646 150.497484 98.619646 
z
" style="fill:#0000ff;opacity:0.2;stroke:#0000ff;stroke-linejoin:miter;stroke-width:2;"/>
   </g>
   <g id="[&quot;g_s&quot;:9,&quot;g_t&quot;:4,&quot;coords&quot;:[[191.0, -168.0],[166.5, -159.0]],&quot;certainty&quot;:11]">
    <path clip-path="url(#p6ed51c4b91)" d="M 178.163155 104.350865 
C 179.959977 104.350865 181.683448 103.94828 182.953992 103.231775 
C 184.224537 102.51527 184.938422 101.543344 184.938422 100.530052 
C 184.938422 99.516761 184.224537 98.544835 182.953992 97.828329 
C 181.683448 97.111824 179.959977 96.709239 178.163155 96.709239 
C 176.366334 96.709239 174.642863 97.111824 173.372319 97.828329 
C 172.101774 98.544835 171.387889 99.516761 171.387889 100.530052 
C 171.387889 101.543344 172.101774 102.51527 173.372319 103.231775 
C 174.642863 103.94828 176.366334 104.350865 178.163155 104.350865 
z
" style="fill:#ff0000;opacity:0.2;stroke:#ff0000;stroke-linejoin:miter;stroke-width:2;"/>
   </g>
   <g id="patch_45">
    <path d="M 150.497484 94.798833 
Q 163.352633 97.461905 174.130565 99.694661 
" style="fill:none;opacity:0.5;stroke:#ff0000;stroke-linecap:round;stroke-width:3;"/>
    <path d="M 172.966031 97.921568 
L 174.130565 99.694661 
L 172.357472 100.859195 
" style="fill:none;opacity:0.5;stroke:#ff0000;stroke-linecap:round;stroke-width:3;"/>
   </g>
   <g id="[&quot;g_s&quot;:6,&quot;g_t&quot;:11,&quot;coords&quot;:[[277.5, -250.0],[262.0, -270.0]],&quot;certainty&quot;:4]">
    <path clip-path="url(#p6ed51c4b91)" d="M 275.839915 154.339832 
C 276.58859 154.339832 277.306703 154.172089 277.836097 153.873545 
C 278.36549 153.575001 278.662942 153.170032 278.662942 152.747827 
C 278.662942 152.325622 278.36549 151.920653 277.836097 151.622109 
C 277.306703 151.323565 276.58859 151.155822 275.839915 151.155822 
C 275.091239 151.155822 274.373126 151.323565 273.843733 151.622109 
C 273.314339 151.920653 273.016887 152.325622 273.016887 152.747827 
C 273.016887 153.170032 273.314339 153.575001 273.843733 153.873545 
C 274.373126 154.172089 275.091239 154.339832 275.839915 154.339832 
z
" style="fill:#0000ff;opacity:0.2;stroke:#0000ff;stroke-linejoin:miter;stroke-width:2;"/>
   </g>
   <g id="[&quot;g_s&quot;:11,&quot;g_t&quot;:6,&quot;coords&quot;:[[262.0, -270.0],[277.5, -250.0]],&quot;certainty&quot;:4]">
    <path clip-path="url(#p6ed51c4b91)" d="M 258.337143 167.075875 
C 259.085818 167.075875 259.803931 166.908131 260.333325 166.609587 
C 260.862718 166.311044 261.16017 165.906074 261.16017 165.48387 
C 261.16017 165.061665 260.862718 164.656696 260.333325 164.358152 
C 259.803931 164.059608 259.085818 163.891864 258.337143 163.891864 
C 257.588467 163.891864 256.870354 164.059608 256.340961 164.358152 
C 255.811567 164.656696 255.514115 165.061665 255.514115 165.48387 
C 255.514115 165.906074 255.811567 166.311044 256.340961 166.609587 
C 256.870354 166.908131 257.588467 167.075875 258.337143 167.075875 
z
" style="fill:#ff0000;opacity:0.2;stroke:#ff0000;stroke-linejoin:miter;stroke-width:2;"/>
   </g>
   <g id="patch_46">
    <path d="M 275.839915 152.747827 
Q 267.89722 158.527397 260.669223 163.786912 
" style="fill:none;opacity:0.5;stroke:#ff0000;stroke-linecap:round;stroke-width:1.25;"/>
    <path d="M 262.764668 164.117229 
L 260.669223 163.786912 
L 260.99954 161.691467 
" style="fill:none;opacity:0.5;stroke:#ff0000;stroke-linecap:round;stroke-width:1.25;"/>
   </g>
   <g id="[&quot;g_s&quot;:7,&quot;g_t&quot;:11,&quot;coords&quot;:[[279.5, -265.0],[262.0, -270.0]],&quot;certainty&quot;:5]">
    <path clip-path="url(#p6ed51c4b91)" d="M 278.098337 164.210265 
C 278.996748 164.210265 279.858483 164.008973 280.493755 163.65072 
C 281.129028 163.292468 281.48597 162.806505 281.48597 162.299859 
C 281.48597 161.793213 281.129028 161.30725 280.493755 160.948998 
C 279.858483 160.590745 278.996748 160.389453 278.098337 160.389453 
C 277.199926 160.389453 276.338191 160.590745 275.702918 160.948998 
C 275.067646 161.30725 274.710704 161.793213 274.710704 162.299859 
C 274.710704 162.806505 275.067646 163.292468 275.702918 163.65072 
C 276.338191 164.008973 277.199926 164.210265 278.098337 164.210265 
z
" style="fill:#0000ff;opacity:0.2;stroke:#0000ff;stroke-linejoin:miter;stroke-width:2;"/>
   </g>
   <g id="[&quot;g_s&quot;:11,&quot;g_t&quot;:7,&quot;coords&quot;:[[262.0, -270.0],[279.5, -265.0]],&quot;certainty&quot;:5]">
    <path clip-path="url(#p6ed51c4b91)" d="M 258.337143 167.394276 
C 259.235554 167.394276 260.097289 167.192984 260.732561 166.834731 
C 261.367834 166.476478 261.724776 165.990515 261.724776 165.48387 
C 261.724776 164.977224 261.367834 164.491261 260.732561 164.133008 
C 260.097289 163.774756 259.235554 163.573463 258.337143 163.573463 
C 257.438732 163.573463 256.576997 163.774756 255.941724 164.133008 
C 255.306452 164.491261 254.949509 164.977224 254.949509 165.48387 
C 254.949509 165.990515 255.306452 166.476478 255.941724 166.834731 
C 256.576997 167.192984 257.438732 167.394276 258.337143 167.394276 
z
" style="fill:#ff0000;opacity:0.2;stroke:#ff0000;stroke-linejoin:miter;stroke-width:2;"/>
   </g>
   <g id="patch_47">
    <path d="M 278.098337 162.299859 
Q 269.204352 163.732897 261.357522 164.997213 
" style="fill:none;opacity:0.5;stroke:#ff0000;stroke-linecap:round;stroke-width:1.5;"/>
    <path d="M 263.077032 166.239504 
L 261.357522 164.997213 
L 262.599813 163.277703 
" style="fill:none;opacity:0.5;stroke:#ff0000;stroke-linecap:round;stroke-width:1.5;"/>
   </g>
   <g id="[&quot;g_s&quot;:8,&quot;g_t&quot;:1,&quot;coords&quot;:[[212.5, -289.0],[201.0, -313.0]],&quot;certainty&quot;:11]">
    <path clip-path="url(#p6ed51c4b91)" d="M 202.441194 181.403923 
C 204.238016 181.403923 205.961486 181.001338 207.232031 180.284833 
C 208.502576 179.568328 209.21646 178.596402 209.21646 177.58311 
C 209.21646 176.569819 208.502576 175.597893 207.232031 174.881388 
C 205.961486 174.164882 204.238016 173.762297 202.441194 173.762297 
C 200.644372 173.762297 198.920902 174.164882 197.650357 174.881388 
C 196.379812 175.597893 195.665927 176.569819 195.665927 177.58311 
C 195.665927 178.596402 196.379812 179.568328 197.650357 180.284833 
C 198.920902 181.001338 200.644372 181.403923 202.441194 181.403923 
z
" style="fill:#0000ff;opacity:0.2;stroke:#0000ff;stroke-linejoin:miter;stroke-width:2;"/>
   </g>
   <g id="[&quot;g_s&quot;:1,&quot;g_t&quot;:8,&quot;coords&quot;:[[201.0, -313.0],[212.5, -289.0]],&quot;certainty&quot;:11]">
    <path clip-path="url(#p6ed51c4b91)" d="M 189.455266 196.687174 
C 191.252088 196.687174 192.975558 196.284589 194.246103 195.568084 
C 195.516648 194.851579 196.230533 193.879653 196.230533 192.866361 
C 196.230533 191.85307 195.516648 190.881144 194.246103 190.164639 
C 192.975558 189.448134 191.252088 189.045549 189.455266 189.045549 
C 187.658445 189.045549 185.934974 189.448134 184.664429 190.164639 
C 183.393885 190.881144 182.68 191.85307 182.68 192.866361 
C 182.68 193.879653 183.393885 194.851579 184.664429 195.568084 
C 185.934974 196.284589 187.658445 196.687174 189.455266 196.687174 
z
" style="fill:#ff0000;opacity:0.2;stroke:#ff0000;stroke-linejoin:miter;stroke-width:2;"/>
   </g>
   <g id="patch_48">
    <path d="M 202.441194 177.58311 
Q 196.596575 184.461693 192.12553 189.723705 
" style="fill:none;opacity:0.5;stroke:#ff0000;stroke-linecap:round;stroke-width:3;"/>
    <path d="M 194.23988 189.55188 
L 192.12553 189.723705 
L 191.953705 187.609355 
" style="fill:none;opacity:0.5;stroke:#ff0000;stroke-linecap:round;stroke-width:3;"/>
   </g>
   <g id="[&quot;g_s&quot;:9,&quot;g_t&quot;:2,&quot;coords&quot;:[[101.5, -185.0],[85.0, -203.0]],&quot;certainty&quot;:11]">
    <path clip-path="url(#p6ed51c4b91)" d="M 77.098763 115.176501 
C 78.895585 115.176501 80.619055 114.773916 81.8896 114.057411 
C 83.160145 113.340906 83.87403 112.36898 83.87403 111.355688 
C 83.87403 110.342397 83.160145 109.370471 81.8896 108.653966 
C 80.619055 107.937461 78.895585 107.534876 77.098763 107.534876 
C 75.301941 107.534876 73.578471 107.937461 72.307926 108.653966 
C 71.037381 109.370471 70.323497 110.342397 70.323497 111.355688 
C 70.323497 112.36898 71.037381 113.340906 72.307926 114.057411 
C 73.578471 114.773916 75.301941 115.176501 77.098763 115.176501 
z
" style="fill:#0000ff;opacity:0.2;stroke:#0000ff;stroke-linejoin:miter;stroke-width:2;"/>
   </g>
   <g id="[&quot;g_s&quot;:2,&quot;g_t&quot;:9,&quot;coords&quot;:[[85.0, -203.0],[101.5, -185.0]],&quot;certainty&quot;:11]">
    <path clip-path="url(#p6ed51c4b91)" d="M 58.46678 126.63894 
C 60.263602 126.63894 61.987072 126.236355 63.257617 125.519849 
C 64.528162 124.803344 65.242047 123.831418 65.242047 122.818127 
C 65.242047 121.804835 64.528162 120.832909 63.257617 120.116404 
C 61.987072 119.399899 60.263602 118.997314 58.46678 118.997314 
C 56.669958 118.997314 54.946488 119.399899 53.675943 120.116404 
C 52.405398 120.832909 51.691514 121.804835 51.691514 122.818127 
C 51.691514 123.831418 52.405398 124.803344 53.675943 125.519849 
C 54.946488 126.236355 56.669958 126.63894 58.46678 126.63894 
z
" style="fill:#ff0000;opacity:0.2;stroke:#ff0000;stroke-linejoin:miter;stroke-width:2;"/>
   </g>
   <g id="patch_49">
    <path d="M 77.098763 111.355688 
Q 68.634539 116.562898 61.977102 120.658569 
" style="fill:none;opacity:0.5;stroke:#ff0000;stroke-linecap:round;stroke-width:3;"/>
    <path d="M 64.04067 121.150183 
L 61.977102 120.658569 
L 62.468716 118.595 
" style="fill:none;opacity:0.5;stroke:#ff0000;stroke-linecap:round;stroke-width:3;"/>
   </g>
   <g id="[&quot;g_s&quot;:10,&quot;g_t&quot;:3,&quot;coords&quot;:[[251.5, -55.0],[242.0, -60.0]],&quot;certainty&quot;:11]">
    <path clip-path="url(#p6ed51c4b91)" d="M 246.480426 32.392224 
C 248.277248 32.392224 250.000718 31.989639 251.271263 31.273134 
C 252.541808 30.556629 253.255693 29.584702 253.255693 28.571411 
C 253.255693 27.55812 252.541808 26.586194 251.271263 25.869688 
C 250.000718 25.153183 248.277248 24.750598 246.480426 24.750598 
C 244.683605 24.750598 242.960134 25.153183 241.689589 25.869688 
C 240.419045 26.586194 239.70516 27.55812 239.70516 28.571411 
C 239.70516 29.584702 240.419045 30.556629 241.689589 31.273134 
C 242.960134 31.989639 244.683605 32.392224 246.480426 32.392224 
z
" style="fill:#0000ff;opacity:0.2;stroke:#0000ff;stroke-linejoin:miter;stroke-width:2;"/>
   </g>
   <g id="[&quot;g_s&quot;:3,&quot;g_t&quot;:10,&quot;coords&quot;:[[242.0, -60.0],[251.5, -55.0]],&quot;certainty&quot;:11]">
    <path clip-path="url(#p6ed51c4b91)" d="M 235.752921 35.576235 
C 237.549743 35.576235 239.273213 35.17365 240.543758 34.457144 
C 241.814303 33.740639 242.528188 32.768713 242.528188 31.755422 
C 242.528188 30.74213 241.814303 29.770204 240.543758 29.053699 
C 239.273213 28.337194 237.549743 27.934609 235.752921 27.934609 
C 233.956099 27.934609 232.232629 28.337194 230.962084 29.053699 
C 229.691539 29.770204 228.977654 30.74213 228.977654 31.755422 
C 228.977654 32.768713 229.691539 33.740639 230.962084 34.457144 
C 232.232629 35.17365 233.956099 35.576235 235.752921 35.576235 
z
" style="fill:#ff0000;opacity:0.2;stroke:#ff0000;stroke-linejoin:miter;stroke-width:2;"/>
   </g>
   <g id="patch_50">
    <path d="M 246.480426 28.571411 
Q 242.076544 29.878519 239.706297 30.582028 
" style="fill:none;opacity:0.5;stroke:#ff0000;stroke-linecap:round;stroke-width:3;"/>
    <path d="M 241.571102 31.593215 
L 239.706297 30.582028 
L 240.717484 28.717222 
" style="fill:none;opacity:0.5;stroke:#ff0000;stroke-linecap:round;stroke-width:3;"/>
   </g>
   <g id="[&quot;g_s&quot;:11,&quot;g_t&quot;:4,&quot;coords&quot;:[[394.5, -220.0],[411.0, -223.0]],&quot;certainty&quot;:11]">
    <path clip-path="url(#p6ed51c4b91)" d="M 407.957612 137.464576 
C 409.754434 137.464576 411.477904 137.061991 412.748449 136.345486 
C 414.018994 135.62898 414.732878 134.657054 414.732878 133.643763 
C 414.732878 132.630472 414.018994 131.658546 412.748449 130.94204 
C 411.477904 130.225535 409.754434 129.82295 407.957612 129.82295 
C 406.16079 129.82295 404.43732 130.225535 403.166775 130.94204 
C 401.89623 131.658546 401.182345 132.630472 401.182345 133.643763 
C 401.182345 134.657054 401.89623 135.62898 403.166775 136.345486 
C 404.43732 137.061991 406.16079 137.464576 407.957612 137.464576 
z
" style="fill:#0000ff;opacity:0.2;stroke:#0000ff;stroke-linejoin:miter;stroke-width:2;"/>
   </g>
   <g id="[&quot;g_s&quot;:4,&quot;g_t&quot;:11,&quot;coords&quot;:[[411.0, -223.0],[394.5, -220.0]],&quot;certainty&quot;:11]">
    <path clip-path="url(#p6ed51c4b91)" d="M 426.589595 139.374982 
C 428.386417 139.374982 430.109887 138.972397 431.380432 138.255892 
C 432.650977 137.539387 433.364861 136.567461 433.364861 135.554169 
C 433.364861 134.540878 432.650977 133.568952 431.380432 132.852447 
C 430.109887 132.135942 428.386417 131.733357 426.589595 131.733357 
C 424.792773 131.733357 423.069303 132.135942 421.798758 132.852447 
C 420.528213 133.568952 419.814328 134.540878 419.814328 135.554169 
C 419.814328 136.567461 420.528213 137.539387 421.798758 138.255892 
C 423.069303 138.972397 424.792773 139.374982 426.589595 139.374982 
z
" style="fill:#ff0000;opacity:0.2;stroke:#ff0000;stroke-linejoin:miter;stroke-width:2;"/>
   </g>
   <g id="patch_51">
    <path d="M 407.957612 133.643763 
Q 416.279685 134.497056 422.491502 135.133977 
" style="fill:none;opacity:0.5;stroke:#ff0000;stroke-linecap:round;stroke-width:3;"/>
    <path d="M 421.152324 133.488802 
L 422.491502 135.133977 
L 420.846327 136.473155 
" style="fill:none;opacity:0.5;stroke:#ff0000;stroke-linecap:round;stroke-width:3;"/>
   </g>
   <g id="[&quot;g_s&quot;:12,&quot;g_t&quot;:6,&quot;coords&quot;:[[286.5, -414.0],[104.0, -459.0]],&quot;certainty&quot;:6]">
    <path clip-path="url(#p6ed51c4b91)" d="M 286.002814 259.412184 
C 287.05096 259.412184 288.056318 259.177343 288.797469 258.759382 
C 289.53862 258.34142 289.955053 257.774463 289.955053 257.183377 
C 289.955053 256.59229 289.53862 256.025333 288.797469 255.607372 
C 288.056318 255.189411 287.05096 254.954569 286.002814 254.954569 
C 284.954668 254.954569 283.949311 255.189411 283.20816 255.607372 
C 282.467008 256.025333 282.050576 256.59229 282.050576 257.183377 
C 282.050576 257.774463 282.467008 258.34142 283.20816 258.759382 
C 283.949311 259.177343 284.954668 259.412184 286.002814 259.412184 
z
" style="fill:#0000ff;opacity:0.2;stroke:#0000ff;stroke-linejoin:miter;stroke-width:2;"/>
   </g>
   <g id="[&quot;g_s&quot;:6,&quot;g_t&quot;:12,&quot;coords&quot;:[[104.0, -459.0],[286.5, -414.0]],&quot;certainty&quot;:6]">
    <path clip-path="url(#p6ed51c4b91)" d="M 79.921791 288.06828 
C 80.969937 288.06828 81.975295 287.833439 82.716446 287.415478 
C 83.457597 286.997516 83.87403 286.430559 83.87403 285.839473 
C 83.87403 285.248386 83.457597 284.681429 82.716446 284.263468 
C 81.975295 283.845507 80.969937 283.610665 79.921791 283.610665 
C 78.873645 283.610665 77.868287 283.845507 77.127136 284.263468 
C 76.385985 284.681429 75.969552 285.248386 75.969552 285.839473 
C 75.969552 286.430559 76.385985 286.997516 77.127136 287.415478 
C 77.868287 287.833439 78.873645 288.06828 79.921791 288.06828 
z
" style="fill:#ff0000;opacity:0.2;stroke:#ff0000;stroke-linejoin:miter;stroke-width:2;"/>
   </g>
   <g id="patch_52">
    <path d="M 286.002814 257.183377 
Q 183.951263 271.373907 83.125355 285.394009 
" style="fill:none;opacity:0.5;stroke:#ff0000;stroke-linecap:round;stroke-width:1.75;"/>
    <path d="M 84.817651 286.673123 
L 83.125355 285.394009 
L 84.404469 283.701713 
" style="fill:none;opacity:0.5;stroke:#ff0000;stroke-linecap:round;stroke-width:1.75;"/>
   </g>
   <g id="[&quot;g_s&quot;:13,&quot;g_t&quot;:5,&quot;coords&quot;:[[119.5, -475.0],[109.0, -490.0]],&quot;certainty&quot;:5]">
    <path clip-path="url(#p6ed51c4b91)" d="M 97.424563 297.938713 
C 98.322974 297.938713 99.184709 297.737421 99.819981 297.379168 
C 100.455254 297.020916 100.812196 296.534953 100.812196 296.028307 
C 100.812196 295.521661 100.455254 295.035698 99.819981 294.677446 
C 99.184709 294.319193 98.322974 294.117901 97.424563 294.117901 
C 96.526152 294.117901 95.664417 294.319193 95.029144 294.677446 
C 94.393872 295.035698 94.036929 295.521661 94.036929 296.028307 
C 94.036929 296.534953 94.393872 297.020916 95.029144 297.379168 
C 95.664417 297.737421 96.526152 297.938713 97.424563 297.938713 
z
" style="fill:#0000ff;opacity:0.2;stroke:#0000ff;stroke-linejoin:miter;stroke-width:2;"/>
   </g>
   <g id="[&quot;g_s&quot;:5,&quot;g_t&quot;:13,&quot;coords&quot;:[[109.0, -490.0],[119.5, -475.0]],&quot;certainty&quot;:5]">
    <path clip-path="url(#p6ed51c4b91)" d="M 85.567846 307.490745 
C 86.466257 307.490745 87.327992 307.289453 87.963265 306.9312 
C 88.598537 306.572948 88.95548 306.086985 88.95548 305.580339 
C 88.95548 305.073693 88.598537 304.58773 87.963265 304.229478 
C 87.327992 303.871225 86.466257 303.669933 85.567846 303.669933 
C 84.669435 303.669933 83.8077 303.871225 83.172428 304.229478 
C 82.537155 304.58773 82.180213 305.073693 82.180213 305.580339 
C 82.180213 306.086985 82.537155 306.572948 83.172428 306.9312 
C 83.8077 307.289453 84.669435 307.490745 85.567846 307.490745 
z
" style="fill:#ff0000;opacity:0.2;stroke:#ff0000;stroke-linejoin:miter;stroke-width:2;"/>
   </g>
   <g id="patch_53">
    <path d="M 97.424563 296.028307 
Q 92.276328 300.175838 87.954059 303.657953 
" style="fill:none;opacity:0.5;stroke:#ff0000;stroke-linecap:round;stroke-width:1.5;"/>
    <path d="M 90.063194 303.885005 
L 87.954059 303.657953 
L 88.181111 301.548819 
" style="fill:none;opacity:0.5;stroke:#ff0000;stroke-linecap:round;stroke-width:1.5;"/>
   </g>
   <g id="[&quot;g_s&quot;:14,&quot;g_t&quot;:6,&quot;coords&quot;:[[114.5, -455.0],[104.0, -459.0]],&quot;certainty&quot;:6]">
    <path clip-path="url(#p6ed51c4b91)" d="M 91.778507 285.521072 
C 92.826653 285.521072 93.832011 285.286231 94.573162 284.868269 
C 95.314313 284.450308 95.730746 283.883351 95.730746 283.292264 
C 95.730746 282.701178 95.314313 282.134221 94.573162 281.716259 
C 93.832011 281.298298 92.826653 281.063457 91.778507 281.063457 
C 90.730361 281.063457 89.725004 281.298298 88.983852 281.716259 
C 88.242701 282.134221 87.826268 282.701178 87.826268 283.292264 
C 87.826268 283.883351 88.242701 284.450308 88.983852 284.868269 
C 89.725004 285.286231 90.730361 285.521072 91.778507 285.521072 
z
" style="fill:#0000ff;opacity:0.2;stroke:#0000ff;stroke-linejoin:miter;stroke-width:2;"/>
   </g>
   <g id="[&quot;g_s&quot;:6,&quot;g_t&quot;:14,&quot;coords&quot;:[[104.0, -459.0],[114.5, -455.0]],&quot;certainty&quot;:6]">
    <path clip-path="url(#p6ed51c4b91)" d="M 79.921791 288.06828 
C 80.969937 288.06828 81.975295 287.833439 82.716446 287.415478 
C 83.457597 286.997516 83.87403 286.430559 83.87403 285.839473 
C 83.87403 285.248386 83.457597 284.681429 82.716446 284.263468 
C 81.975295 283.845507 80.969937 283.610665 79.921791 283.610665 
C 78.873645 283.610665 77.868287 283.845507 77.127136 284.263468 
C 76.385985 284.681429 75.969552 285.248386 75.969552 285.839473 
C 75.969552 286.430559 76.385985 286.997516 77.127136 287.415478 
C 77.868287 287.833439 78.873645 288.06828 79.921791 288.06828 
z
" style="fill:#ff0000;opacity:0.2;stroke:#ff0000;stroke-linejoin:miter;stroke-width:2;"/>
   </g>
   <g id="patch_54">
    <path d="M 91.778507 283.292264 
Q 86.827112 284.355985 83.085551 285.159794 
" style="fill:none;opacity:0.5;stroke:#ff0000;stroke-linecap:round;stroke-width:1.75;"/>
    <path d="M 84.86715 286.311273 
L 83.085551 285.159794 
L 84.237029 283.378195 
" style="fill:none;opacity:0.5;stroke:#ff0000;stroke-linecap:round;stroke-width:1.75;"/>
   </g>
   <g id="patch_55">
    <path clip-path="url(#p6ed51c4b91)" d="M 195.94823 188.408746 
C 197.445582 188.408746 198.881807 188.073259 199.940594 187.476171 
C 200.999382 186.879084 201.594286 186.069145 201.594286 185.224736 
C 201.594286 184.380326 200.999382 183.570388 199.940594 182.9733 
C 198.881807 182.376213 197.445582 182.040725 195.94823 182.040725 
C 194.450879 182.040725 193.014653 182.376213 191.955866 182.9733 
C 190.897079 183.570388 190.302175 184.380326 190.302175 185.224736 
C 190.302175 186.069145 190.897079 186.879084 191.955866 187.476171 
C 193.014653 188.073259 194.450879 188.408746 195.94823 188.408746 
z
" style="fill:#008000;opacity:0.2;stroke:#008000;stroke-linejoin:miter;stroke-width:2;"/>
   </g>
   <g id="patch_56">
    <path clip-path="url(#p6ed51c4b91)" d="M 67.782772 120.270918 
C 69.280123 120.270918 70.716348 119.935431 71.775136 119.338343 
C 72.833923 118.741255 73.428827 117.931317 73.428827 117.086908 
C 73.428827 116.242498 72.833923 115.43256 71.775136 114.835472 
C 70.716348 114.238384 69.280123 113.902897 67.782772 113.902897 
C 66.28542 113.902897 64.849195 114.238384 63.790408 114.835472 
C 62.73162 115.43256 62.136716 116.242498 62.136716 117.086908 
C 62.136716 117.931317 62.73162 118.741255 63.790408 119.338343 
C 64.849195 119.935431 66.28542 120.270918 67.782772 120.270918 
z
" style="fill:#008000;opacity:0.2;stroke:#008000;stroke-linejoin:miter;stroke-width:2;"/>
   </g>
   <g id="patch_57">
    <path clip-path="url(#p6ed51c4b91)" d="M 241.116674 33.347427 
C 242.614025 33.347427 244.05025 33.01194 245.109038 32.414852 
C 246.167825 31.817764 246.762729 31.007826 246.762729 30.163416 
C 246.762729 29.319007 246.167825 28.509069 245.109038 27.911981 
C 244.05025 27.314893 242.614025 26.979406 241.116674 26.979406 
C 239.619322 26.979406 238.183097 27.314893 237.12431 27.911981 
C 236.065522 28.509069 235.470618 29.319007 235.470618 30.163416 
C 235.470618 31.007826 236.065522 31.817764 237.12431 32.414852 
C 238.183097 33.01194 239.619322 33.347427 241.116674 33.347427 
z
" style="fill:#008000;opacity:0.2;stroke:#008000;stroke-linejoin:miter;stroke-width:2;"/>
   </g>
   <g id="patch_58">
    <path clip-path="url(#p6ed51c4b91)" d="M 417.273603 137.782977 
C 418.770955 137.782977 420.20718 137.447489 421.265967 136.850402 
C 422.324755 136.253314 422.919659 135.443376 422.919659 134.598966 
C 422.919659 133.754557 422.324755 132.944618 421.265967 132.347531 
C 420.20718 131.750443 418.770955 131.414956 417.273603 131.414956 
C 415.776252 131.414956 414.340027 131.750443 413.281239 132.347531 
C 412.222452 132.944618 411.627548 133.754557 411.627548 134.598966 
C 411.627548 135.443376 412.222452 136.253314 413.281239 136.850402 
C 414.340027 137.447489 415.776252 137.782977 417.273603 137.782977 
z
" style="fill:#008000;opacity:0.2;stroke:#008000;stroke-linejoin:miter;stroke-width:2;"/>
   </g>
   <g id="patch_59">
    <path clip-path="url(#p6ed51c4b91)" d="M 91.496204 303.988334 
C 92.993556 303.988334 94.429781 303.652846 95.488569 303.055758 
C 96.547356 302.458671 97.14226 301.648732 97.14226 300.804323 
C 97.14226 299.959913 96.547356 299.149975 95.488569 298.552887 
C 94.429781 297.9558 92.993556 297.620312 91.496204 297.620312 
C 89.998853 297.620312 88.562628 297.9558 87.50384 298.552887 
C 86.445053 299.149975 85.850149 299.959913 85.850149 300.804323 
C 85.850149 301.648732 86.445053 302.458671 87.50384 303.055758 
C 88.562628 303.652846 89.998853 303.988334 91.496204 303.988334 
z
" style="fill:#008000;opacity:0.2;stroke:#008000;stroke-linejoin:miter;stroke-width:2;"/>
   </g>
   <g id="patch_60">
    <path clip-path="url(#p6ed51c4b91)" d="M 85.850149 287.749879 
C 87.3475 287.749879 88.783726 287.414392 89.842513 286.817304 
C 90.9013 286.220216 91.496204 285.410278 91.496204 284.565869 
C 91.496204 283.721459 90.9013 282.911521 89.842513 282.314433 
C 88.783726 281.717345 87.3475 281.381858 85.850149 281.381858 
C 84.352798 281.381858 82.916572 281.717345 81.857785 282.314433 
C 80.798998 282.911521 80.204094 283.721459 80.204094 284.565869 
C 80.204094 285.410278 80.798998 286.220216 81.857785 286.817304 
C 82.916572 287.414392 84.352798 287.749879 85.850149 287.749879 
z
" style="fill:#008000;opacity:0.2;stroke:#008000;stroke-linejoin:miter;stroke-width:2;"/>
   </g>
   <g id="patch_61">
    <path clip-path="url(#p6ed51c4b91)" d="M 231.518379 52.451491 
C 233.015731 52.451491 234.451956 52.116004 235.510743 51.518916 
C 236.569531 50.921828 237.164435 50.11189 237.164435 49.26748 
C 237.164435 48.423071 236.569531 47.613133 235.510743 47.016045 
C 234.451956 46.418957 233.015731 46.08347 231.518379 46.08347 
C 230.021028 46.08347 228.584803 46.418957 227.526015 47.016045 
C 226.467228 47.613133 225.872324 48.423071 225.872324 49.26748 
C 225.872324 50.11189 226.467228 50.921828 227.526015 51.518916 
C 228.584803 52.116004 230.021028 52.451491 231.518379 52.451491 
z
" style="fill:#008000;opacity:0.2;stroke:#008000;stroke-linejoin:miter;stroke-width:2;"/>
   </g>
   <g id="patch_62">
    <path clip-path="url(#p6ed51c4b91)" d="M 164.33032 100.848453 
C 165.827671 100.848453 167.263896 100.512966 168.322684 99.915878 
C 169.381471 99.31879 169.976375 98.508852 169.976375 97.664443 
C 169.976375 96.820033 169.381471 96.010095 168.322684 95.413007 
C 167.263896 94.815919 165.827671 94.480432 164.33032 94.480432 
C 162.832968 94.480432 161.396743 94.815919 160.337956 95.413007 
C 159.279168 96.010095 158.684264 96.820033 158.684264 97.664443 
C 158.684264 98.508852 159.279168 99.31879 160.337956 99.915878 
C 161.396743 100.512966 162.832968 100.848453 164.33032 100.848453 
z
" style="fill:#008000;opacity:0.2;stroke:#008000;stroke-linejoin:miter;stroke-width:2;"/>
   </g>
   <g id="patch_63">
    <path clip-path="url(#p6ed51c4b91)" d="M 267.088529 162.299859 
C 268.58588 162.299859 270.022105 161.964372 271.080893 161.367284 
C 272.13968 160.770196 272.734584 159.960258 272.734584 159.115848 
C 272.734584 158.271439 272.13968 157.4615 271.080893 156.864413 
C 270.022105 156.267325 268.58588 155.931838 267.088529 155.931838 
C 265.591177 155.931838 264.154952 156.267325 263.096165 156.864413 
C 262.037377 157.4615 261.442473 158.271439 261.442473 159.115848 
C 261.442473 159.960258 262.037377 160.770196 263.096165 161.367284 
C 264.154952 161.964372 265.591177 162.299859 267.088529 162.299859 
z
" style="fill:#008000;opacity:0.2;stroke:#008000;stroke-linejoin:miter;stroke-width:2;"/>
   </g>
   <g id="patch_64">
    <path clip-path="url(#p6ed51c4b91)" d="M 189.455266 205.602404 
C 195.444672 205.602404 201.189573 204.260454 205.424723 201.872104 
C 209.659872 199.483753 212.039488 196.243999 212.039488 192.866361 
C 212.039488 189.488723 209.659872 186.24897 205.424723 183.860619 
C 201.189573 181.472269 195.444672 180.130319 189.455266 180.130319 
C 183.465861 180.130319 177.720959 181.472269 173.48581 183.860619 
C 169.250661 186.24897 166.871045 189.488723 166.871045 192.866361 
C 166.871045 196.243999 169.250661 199.483753 173.48581 201.872104 
C 177.720959 204.260454 183.465861 205.602404 189.455266 205.602404 
z
" style="fill:none;opacity:0.2;stroke:#ff0000;stroke-linejoin:miter;stroke-width:2;"/>
   </g>
   <g id="patch_65">
    <path clip-path="url(#p6ed51c4b91)" d="M 210.345671 268.645815 
C 216.335077 268.645815 222.079979 267.303865 226.315128 264.915515 
C 230.550277 262.527164 232.929893 259.287411 232.929893 255.909773 
C 232.929893 252.532135 230.550277 249.292381 226.315128 246.90403 
C 222.079979 244.51568 216.335077 243.17373 210.345671 243.17373 
C 204.356266 243.17373 198.611364 244.51568 194.376215 246.90403 
C 190.141066 249.292381 187.76145 252.532135 187.76145 255.909773 
C 187.76145 259.287411 190.141066 262.527164 194.376215 264.915515 
C 198.611364 267.303865 204.356266 268.645815 210.345671 268.645815 
z
" style="fill:none;opacity:0.2;stroke:#0000ff;stroke-linejoin:miter;stroke-width:2;"/>
   </g>
   <g id="patch_66">
    <path clip-path="url(#p6ed51c4b91)" d="M 189.455266 199.234383 
C 192.449969 199.234383 195.32242 198.563408 197.439995 197.369232 
C 199.557569 196.175057 200.747377 194.55518 200.747377 192.866361 
C 200.747377 191.177542 199.557569 189.557666 197.439995 188.36349 
C 195.32242 187.169315 192.449969 186.49834 189.455266 186.49834 
C 186.460564 186.49834 183.588113 187.169315 181.470538 188.36349 
C 179.352964 189.557666 178.163155 191.177542 178.163155 192.866361 
C 178.163155 194.55518 179.352964 196.175057 181.470538 197.369232 
C 183.588113 198.563408 186.460564 199.234383 189.455266 199.234383 
z
" style="fill:none;opacity:0.2;stroke:#008000;stroke-linejoin:miter;stroke-width:2;"/>
   </g>
   <g id="patch_67">
    <path clip-path="url(#p6ed51c4b91)" d="M 202.441194 183.951132 
C 205.435897 183.951132 208.308347 183.280157 210.425922 182.085981 
C 212.543497 180.891806 213.733305 179.271929 213.733305 177.58311 
C 213.733305 175.894291 212.543497 174.274414 210.425922 173.080239 
C 208.308347 171.886064 205.435897 171.215089 202.441194 171.215089 
C 199.446491 171.215089 196.57404 171.886064 194.456466 173.080239 
C 192.338891 174.274414 191.149083 175.894291 191.149083 177.58311 
C 191.149083 179.271929 192.338891 180.891806 194.456466 182.085981 
C 196.57404 183.280157 199.446491 183.951132 202.441194 183.951132 
z
" style="fill:none;opacity:0.2;stroke:#008000;stroke-linejoin:miter;stroke-width:2;"/>
   </g>
   <g id="patch_68">
    <path d="M 195.94823 185.224736 
Q 131.865501 151.155822 67.782772 117.086908 
" style="fill:none;opacity:0.5;stroke:#008000;stroke-linecap:round;stroke-width:2;"/>
   </g>
   <g id="patch_69">
    <path d="M 190.370982 191.788648 
Q 195.299885 185.987779 200.228788 180.18691 
" style="fill:none;opacity:0.5;stroke:#800080;stroke-linecap:round;stroke-width:2;"/>
    <path d="M 192.485332 191.616823 
L 190.370982 191.788648 
L 190.199157 189.674298 
" style="fill:none;opacity:0.5;stroke:#800080;stroke-linecap:round;stroke-width:2;"/>
    <path d="M 198.114438 180.358735 
L 200.228788 180.18691 
L 200.400613 182.30126 
" style="fill:none;opacity:0.5;stroke:#800080;stroke-linecap:round;stroke-width:2;"/>
   </g>
   <g id="patch_70">
    <path d="M 67.782772 117.086908 
Q 154.449723 73.625162 241.116674 30.163416 
" style="fill:none;opacity:0.5;stroke:#008000;stroke-linecap:round;stroke-width:2;"/>
   </g>
   <g id="patch_71">
    <path d="M 59.671305 122.0771 
Q 66.931004 117.610917 74.190704 113.144733 
" style="fill:none;opacity:0.5;stroke:#800080;stroke-linecap:round;stroke-width:2;"/>
    <path d="M 61.734874 122.568715 
L 59.671305 122.0771 
L 60.162919 120.013532 
" style="fill:none;opacity:0.5;stroke:#800080;stroke-linecap:round;stroke-width:2;"/>
    <path d="M 72.127135 112.653119 
L 74.190704 113.144733 
L 73.699089 115.208302 
" style="fill:none;opacity:0.5;stroke:#800080;stroke-linecap:round;stroke-width:2;"/>
   </g>
   <g id="patch_72">
    <path d="M 241.116674 30.163416 
Q 329.195139 82.381191 417.273603 134.598966 
" style="fill:none;opacity:0.5;stroke:#008000;stroke-linecap:round;stroke-width:2;"/>
   </g>
   <g id="patch_73">
    <path d="M 237.108677 31.353022 
Q 240.156803 30.448314 243.204929 29.543605 
" style="fill:none;opacity:0.5;stroke:#800080;stroke-linecap:round;stroke-width:2;"/>
    <path d="M 238.973483 32.36421 
L 237.108677 31.353022 
L 238.119865 29.488217 
" style="fill:none;opacity:0.5;stroke:#800080;stroke-linecap:round;stroke-width:2;"/>
    <path d="M 241.340123 28.532418 
L 243.204929 29.543605 
L 242.193741 31.408411 
" style="fill:none;opacity:0.5;stroke:#800080;stroke-linecap:round;stroke-width:2;"/>
   </g>
   <g id="patch_74">
    <path d="M 417.273603 134.598966 
Q 254.384904 217.701645 91.496204 300.804323 
" style="fill:none;opacity:0.5;stroke:#008000;stroke-linecap:round;stroke-width:2;"/>
   </g>
   <g id="patch_75">
    <path d="M 425.182757 135.409921 
Q 418.267521 134.700876 411.352286 133.991832 
" style="fill:none;opacity:0.5;stroke:#800080;stroke-linecap:round;stroke-width:2;"/>
    <path d="M 423.843579 133.764746 
L 425.182757 135.409921 
L 423.537582 136.749099 
" style="fill:none;opacity:0.5;stroke:#800080;stroke-linecap:round;stroke-width:2;"/>
    <path d="M 412.691464 135.637007 
L 411.352286 133.991832 
L 412.997461 132.652653 
" style="fill:none;opacity:0.5;stroke:#800080;stroke-linecap:round;stroke-width:2;"/>
   </g>
   <g id="patch_76">
    <path d="M 91.496204 300.804323 
Q 88.673177 292.685096 85.850149 284.565869 
" style="fill:none;opacity:0.5;stroke:#008000;stroke-linecap:round;stroke-width:2;"/>
   </g>
   <g id="patch_77">
    <path d="M 86.669135 304.693117 
Q 90.716081 301.432807 94.763027 298.172498 
" style="fill:none;opacity:0.5;stroke:#800080;stroke-linecap:round;stroke-width:2;"/>
    <path d="M 88.778269 304.920168 
L 86.669135 304.693117 
L 86.896186 302.583982 
" style="fill:none;opacity:0.5;stroke:#800080;stroke-linecap:round;stroke-width:2;"/>
    <path d="M 92.653893 297.945447 
L 94.763027 298.172498 
L 94.535976 300.281633 
" style="fill:none;opacity:0.5;stroke:#800080;stroke-linecap:round;stroke-width:2;"/>
   </g>
   <g id="patch_78">
    <path d="M 85.850149 284.565869 
Q 158.684264 166.916674 231.518379 49.26748 
" style="fill:none;opacity:0.5;stroke:#008000;stroke-linecap:round;stroke-width:2;"/>
   </g>
   <g id="patch_79">
    <path d="M 81.304457 285.542431 
Q 84.873186 284.775752 88.441914 284.009073 
" style="fill:none;opacity:0.5;stroke:#800080;stroke-linecap:round;stroke-width:2;"/>
    <path d="M 83.086057 286.69391 
L 81.304457 285.542431 
L 82.455936 283.760832 
" style="fill:none;opacity:0.5;stroke:#800080;stroke-linecap:round;stroke-width:2;"/>
    <path d="M 86.660315 282.857594 
L 88.441914 284.009073 
L 87.290435 285.790672 
" style="fill:none;opacity:0.5;stroke:#800080;stroke-linecap:round;stroke-width:2;"/>
   </g>
   <g id="patch_80">
    <path d="M 231.518379 49.26748 
Q 197.92435 73.465961 164.33032 97.664443 
" style="fill:none;opacity:0.5;stroke:#008000;stroke-linecap:round;stroke-width:2;"/>
   </g>
   <g id="patch_81">
    <path d="M 232.081804 52.021185 
Q 231.718941 50.247714 231.356078 48.474244 
" style="fill:none;opacity:0.5;stroke:#800080;stroke-linecap:round;stroke-width:2;"/>
    <path d="M 233.250679 50.25095 
L 232.081804 52.021185 
L 230.311569 50.85231 
" style="fill:none;opacity:0.5;stroke:#800080;stroke-linecap:round;stroke-width:2;"/>
    <path d="M 230.187203 50.244478 
L 231.356078 48.474244 
L 233.126313 49.643119 
" style="fill:none;opacity:0.5;stroke:#800080;stroke-linecap:round;stroke-width:2;"/>
   </g>
   <g id="patch_82">
    <path d="M 164.33032 97.664443 
Q 202.441194 128.708546 240.552068 159.75265 
" style="fill:none;opacity:0.5;stroke:#008000;stroke-linecap:round;stroke-width:2;"/>
   </g>
   <g id="patch_83">
    <path d="M 176.778345 100.243175 
Q 165.308007 97.86698 153.837669 95.490785 
" style="fill:none;opacity:0.5;stroke:#800080;stroke-linecap:round;stroke-width:2;"/>
    <path d="M 175.61381 98.470082 
L 176.778345 100.243175 
L 175.005251 101.407709 
" style="fill:none;opacity:0.5;stroke:#800080;stroke-linecap:round;stroke-width:2;"/>
    <path d="M 155.002203 97.263879 
L 153.837669 95.490785 
L 155.610762 94.326251 
" style="fill:none;opacity:0.5;stroke:#800080;stroke-linecap:round;stroke-width:2;"/>
   </g>
   <g id="patch_84">
    <path d="M 240.552068 159.75265 
Q 253.820298 159.434249 267.088529 159.115848 
" style="fill:none;opacity:0.5;stroke:#008000;stroke-linecap:round;stroke-width:2;"/>
   </g>
   <g id="patch_85">
    <path d="M 242.067201 164.146899 
Q 240.877723 160.697126 239.688244 157.247354 
" style="fill:none;opacity:0.5;stroke:#800080;stroke-linecap:round;stroke-width:2;"/>
    <path d="M 242.996323 162.239877 
L 242.067201 164.146899 
L 240.160179 163.217777 
" style="fill:none;opacity:0.5;stroke:#800080;stroke-linecap:round;stroke-width:2;"/>
    <path d="M 238.759122 159.154376 
L 239.688244 157.247354 
L 241.595266 158.176476 
" style="fill:none;opacity:0.5;stroke:#800080;stroke-linecap:round;stroke-width:2;"/>
   </g>
   <g id="line2d_1">
    <path clip-path="url(#p6ed51c4b91)" d="M 189.455266 192.866361 
L 58.46678 122.818127 
L 235.752921 31.755422 
L 426.589595 135.554169 
L 85.567846 305.580339 
L 79.921791 285.839473 
L 293.342686 136.190972 
L 232.365288 53.406694 
L 178.163155 100.530052 
L 242.528188 165.48387 
L 258.337143 165.48387 
L 263.983198 178.856714 
" style="fill:none;stroke:#ff0000;stroke-linecap:square;stroke-width:0.2;"/>
   </g>
   <g id="line2d_2">
    <path clip-path="url(#p6ed51c4b91)" d="M 210.345671 255.909773 
L 324.395991 125.365335 
L 230.671471 45.128267 
L 150.497484 94.798833 
L 238.575949 154.021431 
L 275.839915 152.747827 
L 278.098337 162.299859 
L 202.441194 177.58311 
L 77.098763 111.355688 
L 246.480426 28.571411 
L 407.957612 133.643763 
L 286.002814 257.183377 
L 97.424563 296.028307 
L 91.778507 283.292264 
" style="fill:none;stroke:#0000ff;stroke-linecap:square;stroke-width:0.2;"/>
   </g>
  </g>
 </g>
 <defs>
  <clipPath id="p6ed51c4b91">
   <rect height="307.51175" width="409.903625" x="37.576375" y="13.32"/>
  </clipPath>
 </defs>
</svg>
