<?xml version="1.0" encoding="utf-8" standalone="no"?>
<!DOCTYPE svg PUBLIC "-//W3C//DTD SVG 1.1//EN"
  "http://www.w3.org/Graphics/SVG/1.1/DTD/svg11.dtd">
<!-- Created with matplotlib (http://matplotlib.org/) -->
<svg height="345.6pt" version="1.1" viewBox="0 0 460.8 345.6" width="460.8pt" xmlns="http://www.w3.org/2000/svg" xmlns:xlink="http://www.w3.org/1999/xlink">
 <defs>
  <style type="text/css">
*{stroke-linecap:butt;stroke-linejoin:round;}
  </style>
 </defs>
 <g id="figure_1">
  <g id="patch_1">
   <path d="M 0 345.6 
L 460.8 345.6 
L 460.8 0 
L 0 0 
z
" style="fill:#ffffff;"/>
  </g>
  <g id="axes_1">
   <g id="patch_2">
    <path clip-path="url(#p1d795169ed)" d="M 189.455266 192.841418 
C 190.054207 192.841418 190.628697 192.705677 191.052212 192.46409 
C 191.475727 192.222503 191.713689 191.894795 191.713689 191.55314 
C 191.713689 191.211485 191.475727 190.883778 191.052212 190.642191 
C 190.628697 190.400604 190.054207 190.264863 189.455266 190.264863 
C 188.856326 190.264863 188.281836 190.400604 187.858321 190.642191 
C 187.434806 190.883778 187.196844 191.211485 187.196844 191.55314 
C 187.196844 191.894795 187.434806 192.222503 187.858321 192.46409 
C 188.281836 192.705677 188.856326 192.841418 189.455266 192.841418 
z
" style="fill:#ff0000;opacity:0.2;stroke:#ff0000;stroke-linejoin:miter;stroke-width:2;"/>
   </g>
   <g id="patch_3">
    <path clip-path="url(#p1d795169ed)" d="M 58.46678 121.986176 
C 59.065721 121.986176 59.640211 121.850435 60.063726 121.608848 
C 60.487241 121.367261 60.725202 121.039554 60.725202 120.697898 
C 60.725202 120.356243 60.487241 120.028536 60.063726 119.786949 
C 59.640211 119.545362 59.065721 119.409621 58.46678 119.409621 
C 57.86784 119.409621 57.293349 119.545362 56.869834 119.786949 
C 56.44632 120.028536 56.208358 120.356243 56.208358 120.697898 
C 56.208358 121.039554 56.44632 121.367261 56.869834 121.608848 
C 57.293349 121.850435 57.86784 121.986176 58.46678 121.986176 
z
" style="fill:#ff0000;opacity:0.2;stroke:#ff0000;stroke-linejoin:miter;stroke-width:2;"/>
   </g>
   <g id="patch_4">
    <path clip-path="url(#p1d795169ed)" d="M 235.752921 29.874361 
C 236.351862 29.874361 236.926352 29.73862 237.349867 29.497033 
C 237.773382 29.255447 238.011343 28.927739 238.011343 28.586084 
C 238.011343 28.244429 237.773382 27.916721 237.349867 27.675134 
C 236.926352 27.433548 236.351862 27.297807 235.752921 27.297807 
C 235.15398 27.297807 234.57949 27.433548 234.155975 27.675134 
C 233.73246 27.916721 233.494499 28.244429 233.494499 28.586084 
C 233.494499 28.927739 233.73246 29.255447 234.155975 29.497033 
C 234.57949 29.73862 235.15398 29.874361 235.752921 29.874361 
z
" style="fill:#ff0000;opacity:0.2;stroke:#ff0000;stroke-linejoin:miter;stroke-width:2;"/>
   </g>
   <g id="patch_5">
    <path clip-path="url(#p1d795169ed)" d="M 426.589595 134.868947 
C 427.188535 134.868947 427.763026 134.733206 428.186541 134.491619 
C 428.610055 134.250033 428.848017 133.922325 428.848017 133.58067 
C 428.848017 133.239015 428.610055 132.911307 428.186541 132.66972 
C 427.763026 132.428134 427.188535 132.292393 426.589595 132.292393 
C 425.990654 132.292393 425.416164 132.428134 424.992649 132.66972 
C 424.569134 132.911307 424.331173 133.239015 424.331173 133.58067 
C 424.331173 133.922325 424.569134 134.250033 424.992649 134.491619 
C 425.416164 134.733206 425.990654 134.868947 426.589595 134.868947 
z
" style="fill:#ff0000;opacity:0.2;stroke:#ff0000;stroke-linejoin:miter;stroke-width:2;"/>
   </g>
   <g id="patch_6">
    <path clip-path="url(#p1d795169ed)" d="M 85.567846 306.853943 
C 86.166787 306.853943 86.741277 306.718202 87.164792 306.476616 
C 87.588307 306.235029 87.826268 305.907321 87.826268 305.565666 
C 87.826268 305.224011 87.588307 304.896303 87.164792 304.654717 
C 86.741277 304.41313 86.166787 304.277389 85.567846 304.277389 
C 84.968906 304.277389 84.394416 304.41313 83.970901 304.654717 
C 83.547386 304.896303 83.309424 305.224011 83.309424 305.565666 
C 83.309424 305.907321 83.547386 306.235029 83.970901 306.476616 
C 84.394416 306.718202 84.968906 306.853943 85.567846 306.853943 
z
" style="fill:#ff0000;opacity:0.2;stroke:#ff0000;stroke-linejoin:miter;stroke-width:2;"/>
   </g>
   <g id="patch_7">
    <path clip-path="url(#p1d795169ed)" d="M 79.921791 286.885648 
C 80.520731 286.885648 81.095222 286.749907 81.518736 286.50832 
C 81.942251 286.266733 82.180213 285.939026 82.180213 285.597371 
C 82.180213 285.255716 81.942251 284.928008 81.518736 284.686421 
C 81.095222 284.444834 80.520731 284.309093 79.921791 284.309093 
C 79.32285 284.309093 78.74836 284.444834 78.324845 284.686421 
C 77.90133 284.928008 77.663369 285.255716 77.663369 285.597371 
C 77.663369 285.939026 77.90133 286.266733 78.324845 286.50832 
C 78.74836 286.749907 79.32285 286.885648 79.921791 286.885648 
z
" style="fill:#ff0000;opacity:0.2;stroke:#ff0000;stroke-linejoin:miter;stroke-width:2;"/>
   </g>
   <g id="patch_8">
    <path clip-path="url(#p1d795169ed)" d="M 293.342686 135.513085 
C 293.941627 135.513085 294.516117 135.377344 294.939632 135.135758 
C 295.363147 134.894171 295.601109 134.566463 295.601109 134.224808 
C 295.601109 133.883153 295.363147 133.555445 294.939632 133.313859 
C 294.516117 133.072272 293.941627 132.936531 293.342686 132.936531 
C 292.743746 132.936531 292.169256 133.072272 291.745741 133.313859 
C 291.322226 133.555445 291.084264 133.883153 291.084264 134.224808 
C 291.084264 134.566463 291.322226 134.894171 291.745741 135.135758 
C 292.169256 135.377344 292.743746 135.513085 293.342686 135.513085 
z
" style="fill:#ff0000;opacity:0.2;stroke:#ff0000;stroke-linejoin:miter;stroke-width:2;"/>
   </g>
   <g id="patch_9">
    <path clip-path="url(#p1d795169ed)" d="M 232.365288 51.775072 
C 232.964228 51.775072 233.538718 51.639331 233.962233 51.397745 
C 234.385748 51.156158 234.62371 50.82845 234.62371 50.486795 
C 234.62371 50.14514 234.385748 49.817432 233.962233 49.575846 
C 233.538718 49.334259 232.964228 49.198518 232.365288 49.198518 
C 231.766347 49.198518 231.191857 49.334259 230.768342 49.575846 
C 230.344827 49.817432 230.106866 50.14514 230.106866 50.486795 
C 230.106866 50.82845 230.344827 51.156158 230.768342 51.397745 
C 231.191857 51.639331 231.766347 51.775072 232.365288 51.775072 
z
" style="fill:#ff0000;opacity:0.2;stroke:#ff0000;stroke-linejoin:miter;stroke-width:2;"/>
   </g>
   <g id="patch_10">
    <path clip-path="url(#p1d795169ed)" d="M 178.163155 99.441326 
C 178.762096 99.441326 179.336586 99.305585 179.760101 99.063998 
C 180.183616 98.822412 180.421578 98.494704 180.421578 98.153049 
C 180.421578 97.811394 180.183616 97.483686 179.760101 97.242099 
C 179.336586 97.000513 178.762096 96.864772 178.163155 96.864772 
C 177.564215 96.864772 176.989725 97.000513 176.56621 97.242099 
C 176.142695 97.483686 175.904733 97.811394 175.904733 98.153049 
C 175.904733 98.494704 176.142695 98.822412 176.56621 99.063998 
C 176.989725 99.305585 177.564215 99.441326 178.163155 99.441326 
z
" style="fill:#ff0000;opacity:0.2;stroke:#ff0000;stroke-linejoin:miter;stroke-width:2;"/>
   </g>
   <g id="patch_11">
    <path clip-path="url(#p1d795169ed)" d="M 242.528188 165.143459 
C 243.127128 165.143459 243.701618 165.007718 244.125133 164.766132 
C 244.548648 164.524545 244.78661 164.196837 244.78661 163.855182 
C 244.78661 163.513527 244.548648 163.185819 244.125133 162.944233 
C 243.701618 162.702646 243.127128 162.566905 242.528188 162.566905 
C 241.929247 162.566905 241.354757 162.702646 240.931242 162.944233 
C 240.507727 163.185819 240.269765 163.513527 240.269765 163.855182 
C 240.269765 164.196837 240.507727 164.524545 240.931242 164.766132 
C 241.354757 165.007718 241.929247 165.143459 242.528188 165.143459 
z
" style="fill:#ff0000;opacity:0.2;stroke:#ff0000;stroke-linejoin:miter;stroke-width:2;"/>
   </g>
   <g id="patch_12">
    <path clip-path="url(#p1d795169ed)" d="M 258.337143 165.143459 
C 258.936083 165.143459 259.510573 165.007718 259.934088 164.766132 
C 260.357603 164.524545 260.595565 164.196837 260.595565 163.855182 
C 260.595565 163.513527 260.357603 163.185819 259.934088 162.944233 
C 259.510573 162.702646 258.936083 162.566905 258.337143 162.566905 
C 257.738202 162.566905 257.163712 162.702646 256.740197 162.944233 
C 256.316682 163.185819 256.078721 163.513527 256.078721 163.855182 
C 256.078721 164.196837 256.316682 164.524545 256.740197 164.766132 
C 257.163712 165.007718 257.738202 165.143459 258.337143 165.143459 
z
" style="fill:#ff0000;opacity:0.2;stroke:#ff0000;stroke-linejoin:miter;stroke-width:2;"/>
   </g>
   <g id="patch_13">
    <path clip-path="url(#p1d795169ed)" d="M 263.983198 178.670369 
C 264.582139 178.670369 265.156629 178.534628 265.580144 178.293042 
C 266.003659 178.051455 266.24162 177.723747 266.24162 177.382092 
C 266.24162 177.040437 266.003659 176.712729 265.580144 176.471143 
C 265.156629 176.229556 264.582139 176.093815 263.983198 176.093815 
C 263.384258 176.093815 262.809767 176.229556 262.386253 176.471143 
C 261.962738 176.712729 261.724776 177.040437 261.724776 177.382092 
C 261.724776 177.723747 261.962738 178.051455 262.386253 178.293042 
C 262.809767 178.534628 263.384258 178.670369 263.983198 178.670369 
z
" style="fill:#ff0000;opacity:0.2;stroke:#ff0000;stroke-linejoin:miter;stroke-width:2;"/>
   </g>
   <g id="patch_14">
    <path clip-path="url(#p1d795169ed)" d="M 210.345671 263.052521 
C 210.944612 263.052521 211.519102 262.91678 211.942617 262.675193 
C 212.366132 262.433607 212.604094 262.105899 212.604094 261.764244 
C 212.604094 261.422589 212.366132 261.094881 211.942617 260.853294 
C 211.519102 260.611708 210.944612 260.475967 210.345671 260.475967 
C 209.746731 260.475967 209.172241 260.611708 208.748726 260.853294 
C 208.325211 261.094881 208.087249 261.422589 208.087249 261.764244 
C 208.087249 262.105899 208.325211 262.433607 208.748726 262.675193 
C 209.172241 262.91678 209.746731 263.052521 210.345671 263.052521 
z
" style="fill:#0000ff;opacity:0.2;stroke:#0000ff;stroke-linejoin:miter;stroke-width:2;"/>
   </g>
   <g id="patch_15">
    <path clip-path="url(#p1d795169ed)" d="M 324.395991 131.004115 
C 324.994932 131.004115 325.569422 130.868374 325.992937 130.626788 
C 326.416452 130.385201 326.654414 130.057493 326.654414 129.715838 
C 326.654414 129.374183 326.416452 129.046475 325.992937 128.804889 
C 325.569422 128.563302 324.994932 128.427561 324.395991 128.427561 
C 323.797051 128.427561 323.222561 128.563302 322.799046 128.804889 
C 322.375531 129.046475 322.137569 129.374183 322.137569 129.715838 
C 322.137569 130.057493 322.375531 130.385201 322.799046 130.626788 
C 323.222561 130.868374 323.797051 131.004115 324.395991 131.004115 
z
" style="fill:#0000ff;opacity:0.2;stroke:#0000ff;stroke-linejoin:miter;stroke-width:2;"/>
   </g>
   <g id="patch_16">
    <path clip-path="url(#p1d795169ed)" d="M 230.671471 49.842657 
C 231.270412 49.842657 231.844902 49.706916 232.268417 49.465329 
C 232.691932 49.223742 232.929893 48.896034 232.929893 48.554379 
C 232.929893 48.212724 232.691932 47.885017 232.268417 47.64343 
C 231.844902 47.401843 231.270412 47.266102 230.671471 47.266102 
C 230.072531 47.266102 229.49804 47.401843 229.074525 47.64343 
C 228.651011 47.885017 228.413049 48.212724 228.413049 48.554379 
C 228.413049 48.896034 228.651011 49.223742 229.074525 49.465329 
C 229.49804 49.706916 230.072531 49.842657 230.671471 49.842657 
z
" style="fill:#0000ff;opacity:0.2;stroke:#0000ff;stroke-linejoin:miter;stroke-width:2;"/>
   </g>
   <g id="patch_17">
    <path clip-path="url(#p1d795169ed)" d="M 150.497484 100.085464 
C 151.096424 100.085464 151.670915 99.949723 152.094429 99.708137 
C 152.517944 99.46655 152.755906 99.138842 152.755906 98.797187 
C 152.755906 98.455532 152.517944 98.127824 152.094429 97.886238 
C 151.670915 97.644651 151.096424 97.50891 150.497484 97.50891 
C 149.898543 97.50891 149.324053 97.644651 148.900538 97.886238 
C 148.477023 98.127824 148.239062 98.455532 148.239062 98.797187 
C 148.239062 99.138842 148.477023 99.46655 148.900538 99.708137 
C 149.324053 99.949723 149.898543 100.085464 150.497484 100.085464 
z
" style="fill:#0000ff;opacity:0.2;stroke:#0000ff;stroke-linejoin:miter;stroke-width:2;"/>
   </g>
   <g id="patch_18">
    <path clip-path="url(#p1d795169ed)" d="M 238.575949 159.990351 
C 239.174889 159.990351 239.749379 159.85461 240.172894 159.613023 
C 240.596409 159.371437 240.834371 159.043729 240.834371 158.702074 
C 240.834371 158.360419 240.596409 158.032711 240.172894 157.791124 
C 239.749379 157.549538 239.174889 157.413797 238.575949 157.413797 
C 237.977008 157.413797 237.402518 157.549538 236.979003 157.791124 
C 236.555488 158.032711 236.317527 158.360419 236.317527 158.702074 
C 236.317527 159.043729 236.555488 159.371437 236.979003 159.613023 
C 237.402518 159.85461 237.977008 159.990351 238.575949 159.990351 
z
" style="fill:#0000ff;opacity:0.2;stroke:#0000ff;stroke-linejoin:miter;stroke-width:2;"/>
   </g>
   <g id="patch_19">
    <path clip-path="url(#p1d795169ed)" d="M 275.839915 158.702074 
C 276.438855 158.702074 277.013345 158.566333 277.43686 158.324746 
C 277.860375 158.083159 278.098337 157.755452 278.098337 157.413797 
C 278.098337 157.072141 277.860375 156.744434 277.43686 156.502847 
C 277.013345 156.26126 276.438855 156.125519 275.839915 156.125519 
C 275.240974 156.125519 274.666484 156.26126 274.242969 156.502847 
C 273.819454 156.744434 273.581492 157.072141 273.581492 157.413797 
C 273.581492 157.755452 273.819454 158.083159 274.242969 158.324746 
C 274.666484 158.566333 275.240974 158.702074 275.839915 158.702074 
z
" style="fill:#0000ff;opacity:0.2;stroke:#0000ff;stroke-linejoin:miter;stroke-width:2;"/>
   </g>
   <g id="patch_20">
    <path clip-path="url(#p1d795169ed)" d="M 278.098337 168.364152 
C 278.697277 168.364152 279.271767 168.228411 279.695282 167.986824 
C 280.118797 167.745238 280.356759 167.41753 280.356759 167.075875 
C 280.356759 166.73422 280.118797 166.406512 279.695282 166.164926 
C 279.271767 165.923339 278.697277 165.787598 278.098337 165.787598 
C 277.499396 165.787598 276.924906 165.923339 276.501391 166.164926 
C 276.077876 166.406512 275.839915 166.73422 275.839915 167.075875 
C 275.839915 167.41753 276.077876 167.745238 276.501391 167.986824 
C 276.924906 168.228411 277.499396 168.364152 278.098337 168.364152 
z
" style="fill:#0000ff;opacity:0.2;stroke:#0000ff;stroke-linejoin:miter;stroke-width:2;"/>
   </g>
   <g id="patch_21">
    <path clip-path="url(#p1d795169ed)" d="M 202.441194 183.823478 
C 203.040134 183.823478 203.614625 183.687737 204.03814 183.44615 
C 204.461654 183.204563 204.699616 182.876856 204.699616 182.535201 
C 204.699616 182.193545 204.461654 181.865838 204.03814 181.624251 
C 203.614625 181.382664 203.040134 181.246923 202.441194 181.246923 
C 201.842253 181.246923 201.267763 181.382664 200.844248 181.624251 
C 200.420733 181.865838 200.182772 182.193545 200.182772 182.535201 
C 200.182772 182.876856 200.420733 183.204563 200.844248 183.44615 
C 201.267763 183.687737 201.842253 183.823478 202.441194 183.823478 
z
" style="fill:#0000ff;opacity:0.2;stroke:#0000ff;stroke-linejoin:miter;stroke-width:2;"/>
   </g>
   <g id="patch_22">
    <path clip-path="url(#p1d795169ed)" d="M 77.098763 116.833067 
C 77.697704 116.833067 78.272194 116.697326 78.695709 116.455739 
C 79.119224 116.214153 79.357185 115.886445 79.357185 115.54479 
C 79.357185 115.203135 79.119224 114.875427 78.695709 114.63384 
C 78.272194 114.392254 77.697704 114.256513 77.098763 114.256513 
C 76.499823 114.256513 75.925332 114.392254 75.501817 114.63384 
C 75.078303 114.875427 74.840341 115.203135 74.840341 115.54479 
C 74.840341 115.886445 75.078303 116.214153 75.501817 116.455739 
C 75.925332 116.697326 76.499823 116.833067 77.098763 116.833067 
z
" style="fill:#0000ff;opacity:0.2;stroke:#0000ff;stroke-linejoin:miter;stroke-width:2;"/>
   </g>
   <g id="patch_23">
    <path clip-path="url(#p1d795169ed)" d="M 246.480426 33.095054 
C 247.079367 33.095054 247.653857 32.959313 248.077372 32.717726 
C 248.500887 32.47614 248.738848 32.148432 248.738848 31.806777 
C 248.738848 31.465122 248.500887 31.137414 248.077372 30.895827 
C 247.653857 30.654241 247.079367 30.5185 246.480426 30.5185 
C 245.881486 30.5185 245.306996 30.654241 244.883481 30.895827 
C 244.459966 31.137414 244.222004 31.465122 244.222004 31.806777 
C 244.222004 32.148432 244.459966 32.47614 244.883481 32.717726 
C 245.306996 32.959313 245.881486 33.095054 246.480426 33.095054 
z
" style="fill:#0000ff;opacity:0.2;stroke:#0000ff;stroke-linejoin:miter;stroke-width:2;"/>
   </g>
   <g id="patch_24">
    <path clip-path="url(#p1d795169ed)" d="M 407.957612 139.377917 
C 408.556552 139.377917 409.131043 139.242176 409.554558 139.000589 
C 409.978072 138.759003 410.216034 138.431295 410.216034 138.08964 
C 410.216034 137.747985 409.978072 137.420277 409.554558 137.17869 
C 409.131043 136.937104 408.556552 136.801363 407.957612 136.801363 
C 407.358671 136.801363 406.784181 136.937104 406.360666 137.17869 
C 405.937151 137.420277 405.69919 137.747985 405.69919 138.08964 
C 405.69919 138.431295 405.937151 138.759003 406.360666 139.000589 
C 406.784181 139.242176 407.358671 139.377917 407.957612 139.377917 
z
" style="fill:#0000ff;opacity:0.2;stroke:#0000ff;stroke-linejoin:miter;stroke-width:2;"/>
   </g>
   <g id="patch_25">
    <path clip-path="url(#p1d795169ed)" d="M 286.002814 264.340798 
C 286.601755 264.340798 287.176245 264.205057 287.59976 263.96347 
C 288.023275 263.721884 288.261237 263.394176 288.261237 263.052521 
C 288.261237 262.710866 288.023275 262.383158 287.59976 262.141571 
C 287.176245 261.899985 286.601755 261.764244 286.002814 261.764244 
C 285.403874 261.764244 284.829384 261.899985 284.405869 262.141571 
C 283.982354 262.383158 283.744392 262.710866 283.744392 263.052521 
C 283.744392 263.394176 283.982354 263.721884 284.405869 263.96347 
C 284.829384 264.205057 285.403874 264.340798 286.002814 264.340798 
z
" style="fill:#0000ff;opacity:0.2;stroke:#0000ff;stroke-linejoin:miter;stroke-width:2;"/>
   </g>
   <g id="patch_26">
    <path clip-path="url(#p1d795169ed)" d="M 97.424563 303.63325 
C 98.023503 303.63325 98.597993 303.497509 99.021508 303.255923 
C 99.445023 303.014336 99.682985 302.686628 99.682985 302.344973 
C 99.682985 302.003318 99.445023 301.67561 99.021508 301.434024 
C 98.597993 301.192437 98.023503 301.056696 97.424563 301.056696 
C 96.825622 301.056696 96.251132 301.192437 95.827617 301.434024 
C 95.404102 301.67561 95.16614 302.003318 95.16614 302.344973 
C 95.16614 302.686628 95.404102 303.014336 95.827617 303.255923 
C 96.251132 303.497509 96.825622 303.63325 97.424563 303.63325 
z
" style="fill:#0000ff;opacity:0.2;stroke:#0000ff;stroke-linejoin:miter;stroke-width:2;"/>
   </g>
   <g id="patch_27">
    <path clip-path="url(#p1d795169ed)" d="M 91.778507 290.750479 
C 92.377448 290.750479 92.951938 290.614738 93.375453 290.373151 
C 93.798968 290.131565 94.036929 289.803857 94.036929 289.462202 
C 94.036929 289.120547 93.798968 288.792839 93.375453 288.551252 
C 92.951938 288.309666 92.377448 288.173925 91.778507 288.173925 
C 91.179567 288.173925 90.605077 288.309666 90.181562 288.551252 
C 89.758047 288.792839 89.520085 289.120547 89.520085 289.462202 
C 89.520085 289.803857 89.758047 290.131565 90.181562 290.373151 
C 90.605077 290.614738 91.179567 290.750479 91.778507 290.750479 
z
" style="fill:#0000ff;opacity:0.2;stroke:#0000ff;stroke-linejoin:miter;stroke-width:2;"/>
   </g>
   <g id="patch_28">
    <path clip-path="url(#p1d795169ed)" d="M 189.455266 191.55314 
C 114.927335 191.55314 58.46678 164.499321 58.46678 120.697898 
C 58.46678 64.657843 135.253134 28.586084 235.752921 28.586084 
C 364.482985 28.586084 426.589595 74.96406 426.589595 133.58067 
C 426.589595 239.863533 254.949509 298.480142 85.567846 305.565666 
C 73.146524 303.63325 68.62968 289.462202 79.921791 285.597371 
C 221.073177 264.984937 293.342686 207.012466 293.342686 134.224808 
C 293.342686 91.711663 275.275309 50.486795 232.365288 50.486795 
C 197.359744 50.486795 178.163155 71.099229 178.163155 98.153049 
C 178.163155 125.206868 203.005799 159.990351 242.528188 163.855182 
L 258.337143 163.855182 
C 266.24162 165.787598 268.500043 173.517261 263.983198 177.382092 
C 250.432665 183.179339 217.685544 191.55314 189.455266 191.55314 
" style="fill:none;stroke:#ff0000;stroke-linejoin:miter;stroke-width:0.5;"/>
   </g>
   <g id="patch_29">
    <path clip-path="url(#p1d795169ed)" d="M 210.345671 261.764244 
C 273.581492 239.219394 324.395991 198.638665 324.395991 129.715838 
C 324.395991 96.220633 299.553347 48.554379 230.671471 48.554379 
C 190.019872 48.554379 150.497484 67.878536 150.497484 98.797187 
C 150.497484 127.139284 180.986183 158.702074 238.575949 158.702074 
C 254.384904 158.702074 265.677015 158.057935 275.839915 157.413797 
C 280.356759 159.346212 281.48597 164.499321 278.098337 167.075875 
C 261.16017 174.805538 235.188315 182.535201 202.441194 182.535201 
C 133.559317 182.535201 77.098763 156.769658 77.098763 115.54479 
C 77.098763 66.590259 151.626695 31.806777 246.480426 31.806777 
C 345.851002 31.806777 411.345245 73.675783 407.957612 138.08964 
C 405.69919 183.823478 370.693646 226.336623 286.002814 263.052521 
C 234.059104 284.953232 155.014328 297.836003 97.424563 302.344973 
C 88.390874 301.056696 86.132452 292.682895 91.778507 289.462202 
C 138.076162 282.376678 179.856972 272.714599 210.345671 261.764244 
" style="fill:none;stroke:#0000ff;stroke-linejoin:miter;stroke-width:0.5;"/>
   </g>
   <g id="[&quot;g_s&quot;:1,&quot;g_t&quot;:8,&quot;coords&quot;:[[201.0, -240.0],[212.5, -226.0]],&quot;certainty&quot;:11]">
    <path clip-path="url(#p1d795169ed)" d="M 189.455266 195.417972 
C 191.252088 195.417972 192.975558 195.010749 194.246103 194.285989 
C 195.516648 193.561229 196.230533 192.578106 196.230533 191.55314 
C 196.230533 190.528175 195.516648 189.545052 194.246103 188.820292 
C 192.975558 188.095532 191.252088 187.688309 189.455266 187.688309 
C 187.658445 187.688309 185.934974 188.095532 184.664429 188.820292 
C 183.393885 189.545052 182.68 190.528175 182.68 191.55314 
C 182.68 192.578106 183.393885 193.561229 184.664429 194.285989 
C 185.934974 195.010749 187.658445 195.417972 189.455266 195.417972 
z
" style="fill:#0000ff;opacity:0.2;stroke:#0000ff;stroke-linejoin:miter;stroke-width:2;"/>
   </g>
   <g id="[&quot;g_s&quot;:8,&quot;g_t&quot;:1,&quot;coords&quot;:[[212.5, -226.0],[201.0, -240.0]],&quot;certainty&quot;:11]">
    <path clip-path="url(#p1d795169ed)" d="M 202.441194 186.400032 
C 204.238016 186.400032 205.961486 185.992809 207.232031 185.268049 
C 208.502576 184.543289 209.21646 183.560166 209.21646 182.535201 
C 209.21646 181.510235 208.502576 180.527112 207.232031 179.802352 
C 205.961486 179.077592 204.238016 178.670369 202.441194 178.670369 
C 200.644372 178.670369 198.920902 179.077592 197.650357 179.802352 
C 196.379812 180.527112 195.665927 181.510235 195.665927 182.535201 
C 195.665927 183.560166 196.379812 184.543289 197.650357 185.268049 
C 198.920902 185.992809 200.644372 186.400032 202.441194 186.400032 
z
" style="fill:#ff0000;opacity:0.2;stroke:#ff0000;stroke-linejoin:miter;stroke-width:2;"/>
   </g>
   <g id="patch_30">
    <path d="M 189.455266 191.55314 
Q 195.125513 187.615497 199.053367 184.887841 
" style="fill:none;opacity:0.5;stroke:#0000ff;stroke-linecap:round;stroke-width:3;"/>
    <path d="M 196.96572 184.511373 
L 199.053367 184.887841 
L 198.676899 186.975488 
" style="fill:none;opacity:0.5;stroke:#0000ff;stroke-linecap:round;stroke-width:3;"/>
   </g>
   <g id="[&quot;g_s&quot;:2,&quot;g_t&quot;:9,&quot;coords&quot;:[[85.0, -130.0],[101.5, -122.0]],&quot;certainty&quot;:11]">
    <path clip-path="url(#p1d795169ed)" d="M 58.46678 124.56273 
C 60.263602 124.56273 61.987072 124.155507 63.257617 123.430747 
C 64.528162 122.705987 65.242047 121.722864 65.242047 120.697898 
C 65.242047 119.672933 64.528162 118.68981 63.257617 117.96505 
C 61.987072 117.24029 60.263602 116.833067 58.46678 116.833067 
C 56.669958 116.833067 54.946488 117.24029 53.675943 117.96505 
C 52.405398 118.68981 51.691514 119.672933 51.691514 120.697898 
C 51.691514 121.722864 52.405398 122.705987 53.675943 123.430747 
C 54.946488 124.155507 56.669958 124.56273 58.46678 124.56273 
z
" style="fill:#0000ff;opacity:0.2;stroke:#0000ff;stroke-linejoin:miter;stroke-width:2;"/>
   </g>
   <g id="[&quot;g_s&quot;:9,&quot;g_t&quot;:2,&quot;coords&quot;:[[101.5, -122.0],[85.0, -130.0]],&quot;certainty&quot;:11]">
    <path clip-path="url(#p1d795169ed)" d="M 77.098763 119.409621 
C 78.895585 119.409621 80.619055 119.002398 81.8896 118.277638 
C 83.160145 117.552879 83.87403 116.569755 83.87403 115.54479 
C 83.87403 114.519825 83.160145 113.536701 81.8896 112.811941 
C 80.619055 112.087182 78.895585 111.679959 77.098763 111.679959 
C 75.301941 111.679959 73.578471 112.087182 72.307926 112.811941 
C 71.037381 113.536701 70.323497 114.519825 70.323497 115.54479 
C 70.323497 116.569755 71.037381 117.552879 72.307926 118.277638 
C 73.578471 119.002398 75.301941 119.409621 77.098763 119.409621 
z
" style="fill:#ff0000;opacity:0.2;stroke:#ff0000;stroke-linejoin:miter;stroke-width:2;"/>
   </g>
   <g id="patch_31">
    <path d="M 58.46678 120.697898 
Q 66.820695 118.387429 73.130047 116.642431 
" style="fill:none;opacity:0.5;stroke:#0000ff;stroke-linecap:round;stroke-width:3;"/>
    <path d="M 71.284473 115.596555 
L 73.130047 116.642431 
L 72.08417 118.488005 
" style="fill:none;opacity:0.5;stroke:#0000ff;stroke-linecap:round;stroke-width:3;"/>
   </g>
   <g id="[&quot;g_s&quot;:3,&quot;g_t&quot;:10,&quot;coords&quot;:[[242.0, 13.0],[251.5, 8.0]],&quot;certainty&quot;:11]">
    <path clip-path="url(#p1d795169ed)" d="M 235.752921 32.450915 
C 237.549743 32.450915 239.273213 32.043692 240.543758 31.318932 
C 241.814303 30.594173 242.528188 29.611049 242.528188 28.586084 
C 242.528188 27.561119 241.814303 26.577995 240.543758 25.853235 
C 239.273213 25.128476 237.549743 24.721253 235.752921 24.721253 
C 233.956099 24.721253 232.232629 25.128476 230.962084 25.853235 
C 229.691539 26.577995 228.977654 27.561119 228.977654 28.586084 
C 228.977654 29.611049 229.691539 30.594173 230.962084 31.318932 
C 232.232629 32.043692 233.956099 32.450915 235.752921 32.450915 
z
" style="fill:#0000ff;opacity:0.2;stroke:#0000ff;stroke-linejoin:miter;stroke-width:2;"/>
   </g>
   <g id="[&quot;g_s&quot;:10,&quot;g_t&quot;:3,&quot;coords&quot;:[[251.5, 8.0],[242.0, 13.0]],&quot;certainty&quot;:11]">
    <path clip-path="url(#p1d795169ed)" d="M 246.480426 35.671608 
C 248.277248 35.671608 250.000718 35.264385 251.271263 34.539625 
C 252.541808 33.814865 253.255693 32.831742 253.255693 31.806777 
C 253.255693 30.781811 252.541808 29.798688 251.271263 29.073928 
C 250.000718 28.349168 248.277248 27.941945 246.480426 27.941945 
C 244.683605 27.941945 242.960134 28.349168 241.689589 29.073928 
C 240.419045 29.798688 239.70516 30.781811 239.70516 31.806777 
C 239.70516 32.831742 240.419045 33.814865 241.689589 34.539625 
C 242.960134 35.264385 244.683605 35.671608 246.480426 35.671608 
z
" style="fill:#ff0000;opacity:0.2;stroke:#ff0000;stroke-linejoin:miter;stroke-width:2;"/>
   </g>
   <g id="patch_32">
    <path d="M 235.752921 28.586084 
Q 240.159422 29.909037 242.534194 30.622009 
" style="fill:none;opacity:0.5;stroke:#0000ff;stroke-linecap:round;stroke-width:3;"/>
    <path d="M 241.528866 28.754038 
L 242.534194 30.622009 
L 240.666223 31.627337 
" style="fill:none;opacity:0.5;stroke:#0000ff;stroke-linecap:round;stroke-width:3;"/>
   </g>
   <g id="[&quot;g_s&quot;:4,&quot;g_t&quot;:11,&quot;coords&quot;:[[411.0, -150.0],[394.5, -157.0]],&quot;certainty&quot;:11]">
    <path clip-path="url(#p1d795169ed)" d="M 426.589595 137.445501 
C 428.386417 137.445501 430.109887 137.038278 431.380432 136.313518 
C 432.650977 135.588758 433.364861 134.605635 433.364861 133.58067 
C 433.364861 132.555704 432.650977 131.572581 431.380432 130.847821 
C 430.109887 130.123061 428.386417 129.715838 426.589595 129.715838 
C 424.792773 129.715838 423.069303 130.123061 421.798758 130.847821 
C 420.528213 131.572581 419.814328 132.555704 419.814328 133.58067 
C 419.814328 134.605635 420.528213 135.588758 421.798758 136.313518 
C 423.069303 137.038278 424.792773 137.445501 426.589595 137.445501 
z
" style="fill:#0000ff;opacity:0.2;stroke:#0000ff;stroke-linejoin:miter;stroke-width:2;"/>
   </g>
   <g id="[&quot;g_s&quot;:11,&quot;g_t&quot;:4,&quot;coords&quot;:[[394.5, -157.0],[411.0, -150.0]],&quot;certainty&quot;:11]">
    <path clip-path="url(#p1d795169ed)" d="M 407.957612 141.954471 
C 409.754434 141.954471 411.477904 141.547248 412.748449 140.822488 
C 414.018994 140.097728 414.732878 139.114605 414.732878 138.08964 
C 414.732878 137.064674 414.018994 136.081551 412.748449 135.356791 
C 411.477904 134.632031 409.754434 134.224808 407.957612 134.224808 
C 406.16079 134.224808 404.43732 134.632031 403.166775 135.356791 
C 401.89623 136.081551 401.182345 137.064674 401.182345 138.08964 
C 401.182345 139.114605 401.89623 140.097728 403.166775 140.822488 
C 404.43732 141.547248 406.16079 141.954471 407.957612 141.954471 
z
" style="fill:#ff0000;opacity:0.2;stroke:#ff0000;stroke-linejoin:miter;stroke-width:2;"/>
   </g>
   <g id="patch_33">
    <path d="M 426.589595 133.58067 
Q 418.244777 135.600129 411.961765 137.120628 
" style="fill:none;opacity:0.5;stroke:#0000ff;stroke-linecap:round;stroke-width:3;"/>
    <path d="M 413.772499 138.225726 
L 411.961765 137.120628 
L 413.066863 135.309894 
" style="fill:none;opacity:0.5;stroke:#0000ff;stroke-linecap:round;stroke-width:3;"/>
   </g>
   <g id="[&quot;g_s&quot;:5,&quot;g_t&quot;:13,&quot;coords&quot;:[[109.0, -417.0],[119.5, -412.0]],&quot;certainty&quot;:4]">
    <path clip-path="url(#p1d795169ed)" d="M 85.567846 307.176012 
C 86.316522 307.176012 87.034635 307.006336 87.564028 306.704353 
C 88.093422 306.40237 88.390874 305.992735 88.390874 305.565666 
C 88.390874 305.138597 88.093422 304.728962 87.564028 304.426979 
C 87.034635 304.124996 86.316522 303.95532 85.567846 303.95532 
C 84.819171 303.95532 84.101058 304.124996 83.571664 304.426979 
C 83.042271 304.728962 82.744819 305.138597 82.744819 305.565666 
C 82.744819 305.992735 83.042271 306.40237 83.571664 306.704353 
C 84.101058 307.006336 84.819171 307.176012 85.567846 307.176012 
z
" style="fill:#0000ff;opacity:0.2;stroke:#0000ff;stroke-linejoin:miter;stroke-width:2;"/>
   </g>
   <g id="[&quot;g_s&quot;:13,&quot;g_t&quot;:5,&quot;coords&quot;:[[119.5, -412.0],[109.0, -417.0]],&quot;certainty&quot;:4]">
    <path clip-path="url(#p1d795169ed)" d="M 97.424563 303.95532 
C 98.173238 303.95532 98.891351 303.785643 99.420745 303.48366 
C 99.950138 303.181677 100.24759 302.772042 100.24759 302.344973 
C 100.24759 301.917904 99.950138 301.50827 99.420745 301.206286 
C 98.891351 300.904303 98.173238 300.734627 97.424563 300.734627 
C 96.675887 300.734627 95.957774 300.904303 95.428381 301.206286 
C 94.898987 301.50827 94.601535 301.917904 94.601535 302.344973 
C 94.601535 302.772042 94.898987 303.181677 95.428381 303.48366 
C 95.957774 303.785643 96.675887 303.95532 97.424563 303.95532 
z
" style="fill:#ff0000;opacity:0.2;stroke:#ff0000;stroke-linejoin:miter;stroke-width:2;"/>
   </g>
   <g id="patch_34">
    <path d="M 85.567846 305.565666 
Q 90.53082 304.217551 94.640819 303.101134 
" style="fill:none;opacity:0.5;stroke:#0000ff;stroke-linecap:round;stroke-width:1.25;"/>
    <path d="M 92.800069 302.046791 
L 94.640819 303.101134 
L 93.586476 304.941884 
" style="fill:none;opacity:0.5;stroke:#0000ff;stroke-linecap:round;stroke-width:1.25;"/>
   </g>
   <g id="[&quot;g_s&quot;:6,&quot;g_t&quot;:14,&quot;coords&quot;:[[104.0, -386.0],[114.5, -392.0]],&quot;certainty&quot;:6]">
    <path clip-path="url(#p1d795169ed)" d="M 79.921791 287.851856 
C 80.969937 287.851856 81.975295 287.614309 82.716446 287.191532 
C 83.457597 286.768756 83.87403 286.195267 83.87403 285.597371 
C 83.87403 284.999474 83.457597 284.425986 82.716446 284.003209 
C 81.975295 283.580432 80.969937 283.342886 79.921791 283.342886 
C 78.873645 283.342886 77.868287 283.580432 77.127136 284.003209 
C 76.385985 284.425986 75.969552 284.999474 75.969552 285.597371 
C 75.969552 286.195267 76.385985 286.768756 77.127136 287.191532 
C 77.868287 287.614309 78.873645 287.851856 79.921791 287.851856 
z
" style="fill:#0000ff;opacity:0.2;stroke:#0000ff;stroke-linejoin:miter;stroke-width:2;"/>
   </g>
   <g id="[&quot;g_s&quot;:14,&quot;g_t&quot;:6,&quot;coords&quot;:[[114.5, -392.0],[104.0, -386.0]],&quot;certainty&quot;:6]">
    <path clip-path="url(#p1d795169ed)" d="M 91.778507 291.716687 
C 92.826653 291.716687 93.832011 291.47914 94.573162 291.056364 
C 95.314313 290.633587 95.730746 290.060098 95.730746 289.462202 
C 95.730746 288.864306 95.314313 288.290817 94.573162 287.86804 
C 93.832011 287.445264 92.826653 287.207717 91.778507 287.207717 
C 90.730361 287.207717 89.725004 287.445264 88.983852 287.86804 
C 88.242701 288.290817 87.826268 288.864306 87.826268 289.462202 
C 87.826268 290.060098 88.242701 290.633587 88.983852 291.056364 
C 89.725004 291.47914 90.730361 291.716687 91.778507 291.716687 
z
" style="fill:#ff0000;opacity:0.2;stroke:#ff0000;stroke-linejoin:miter;stroke-width:2;"/>
   </g>
   <g id="patch_35">
    <path d="M 79.921791 285.597371 
Q 84.899238 287.219826 88.700174 288.458784 
" style="fill:none;opacity:0.5;stroke:#0000ff;stroke-linecap:round;stroke-width:1.75;"/>
    <path d="M 87.738895 286.567768 
L 88.700174 288.458784 
L 86.809157 289.420063 
" style="fill:none;opacity:0.5;stroke:#0000ff;stroke-linecap:round;stroke-width:1.75;"/>
   </g>
   <g id="[&quot;g_s&quot;:7,&quot;g_t&quot;:2,&quot;coords&quot;:[[293.0, -151.0],[320.5, -144.0]],&quot;certainty&quot;:11]">
    <path clip-path="url(#p1d795169ed)" d="M 293.342686 138.08964 
C 295.139508 138.08964 296.862979 137.682417 298.133523 136.957657 
C 299.404068 136.232897 300.117953 135.249774 300.117953 134.224808 
C 300.117953 133.199843 299.404068 132.21672 298.133523 131.49196 
C 296.862979 130.7672 295.139508 130.359977 293.342686 130.359977 
C 291.545865 130.359977 289.822394 130.7672 288.55185 131.49196 
C 287.281305 132.21672 286.56742 133.199843 286.56742 134.224808 
C 286.56742 135.249774 287.281305 136.232897 288.55185 136.957657 
C 289.822394 137.682417 291.545865 138.08964 293.342686 138.08964 
z
" style="fill:#0000ff;opacity:0.2;stroke:#0000ff;stroke-linejoin:miter;stroke-width:2;"/>
   </g>
   <g id="[&quot;g_s&quot;:2,&quot;g_t&quot;:7,&quot;coords&quot;:[[320.5, -144.0],[293.0, -151.0]],&quot;certainty&quot;:11]">
    <path clip-path="url(#p1d795169ed)" d="M 324.395991 133.58067 
C 326.192813 133.58067 327.916283 133.173447 329.186828 132.448687 
C 330.457373 131.723927 331.171258 130.740804 331.171258 129.715838 
C 331.171258 128.690873 330.457373 127.70775 329.186828 126.98299 
C 327.916283 126.25823 326.192813 125.851007 324.395991 125.851007 
C 322.59917 125.851007 320.875699 126.25823 319.605154 126.98299 
C 318.33461 127.70775 317.620725 128.690873 317.620725 129.715838 
C 317.620725 130.740804 318.33461 131.723927 319.605154 132.448687 
C 320.875699 133.173447 322.59917 133.58067 324.395991 133.58067 
z
" style="fill:#ff0000;opacity:0.2;stroke:#ff0000;stroke-linejoin:miter;stroke-width:2;"/>
   </g>
   <g id="patch_36">
    <path d="M 293.342686 134.224808 
Q 307.878074 132.114256 320.314157 130.308525 
" style="fill:none;opacity:0.5;stroke:#0000ff;stroke-linecap:round;stroke-width:3;"/>
    <path d="M 318.614182 129.039633 
L 320.314157 130.308525 
L 319.045265 132.008499 
" style="fill:none;opacity:0.5;stroke:#0000ff;stroke-linecap:round;stroke-width:3;"/>
   </g>
   <g id="[&quot;g_s&quot;:8,&quot;g_t&quot;:3,&quot;coords&quot;:[[239.0, -21.0],[237.5, -18.0]],&quot;certainty&quot;:11]">
    <path clip-path="url(#p1d795169ed)" d="M 232.365288 54.351626 
C 234.162109 54.351626 235.88558 53.944403 237.156125 53.219644 
C 238.426669 52.494884 239.140554 51.51176 239.140554 50.486795 
C 239.140554 49.46183 238.426669 48.478706 237.156125 47.753947 
C 235.88558 47.029187 234.162109 46.621964 232.365288 46.621964 
C 230.568466 46.621964 228.844996 47.029187 227.574451 47.753947 
C 226.303906 48.478706 225.590021 49.46183 225.590021 50.486795 
C 225.590021 51.51176 226.303906 52.494884 227.574451 53.219644 
C 228.844996 53.944403 230.568466 54.351626 232.365288 54.351626 
z
" style="fill:#0000ff;opacity:0.2;stroke:#0000ff;stroke-linejoin:miter;stroke-width:2;"/>
   </g>
   <g id="[&quot;g_s&quot;:3,&quot;g_t&quot;:8,&quot;coords&quot;:[[237.5, -18.0],[239.0, -21.0]],&quot;certainty&quot;:11]">
    <path clip-path="url(#p1d795169ed)" d="M 230.671471 52.419211 
C 232.468293 52.419211 234.191763 52.011988 235.462308 51.287228 
C 236.732853 50.562468 237.446738 49.579345 237.446738 48.554379 
C 237.446738 47.529414 236.732853 46.546291 235.462308 45.821531 
C 234.191763 45.096771 232.468293 44.689548 230.671471 44.689548 
C 228.874649 44.689548 227.151179 45.096771 225.880634 45.821531 
C 224.610089 46.546291 223.896205 47.529414 223.896205 48.554379 
C 223.896205 49.579345 224.610089 50.562468 225.880634 51.287228 
C 227.151179 52.011988 228.874649 52.419211 230.671471 52.419211 
z
" style="fill:#ff0000;opacity:0.2;stroke:#ff0000;stroke-linejoin:miter;stroke-width:2;"/>
   </g>
   <g id="patch_37">
    <path d="M 232.365288 50.486795 
Q 232.177545 50.272606 233.388082 51.653665 
" style="fill:none;opacity:0.5;stroke:#0000ff;stroke-linecap:round;stroke-width:3;"/>
    <path d="M 233.248805 53.770409 
L 233.388082 51.653665 
L 235.504825 51.792943 
" style="fill:none;opacity:0.5;stroke:#0000ff;stroke-linecap:round;stroke-width:3;"/>
   </g>
   <g id="[&quot;g_s&quot;:9,&quot;g_t&quot;:4,&quot;coords&quot;:[[191.0, -95.0],[166.5, -96.0]],&quot;certainty&quot;:11]">
    <path clip-path="url(#p1d795169ed)" d="M 178.163155 102.01788 
C 179.959977 102.01788 181.683448 101.610657 182.953992 100.885897 
C 184.224537 100.161137 184.938422 99.178014 184.938422 98.153049 
C 184.938422 97.128083 184.224537 96.14496 182.953992 95.4202 
C 181.683448 94.69544 179.959977 94.288217 178.163155 94.288217 
C 176.366334 94.288217 174.642863 94.69544 173.372319 95.4202 
C 172.101774 96.14496 171.387889 97.128083 171.387889 98.153049 
C 171.387889 99.178014 172.101774 100.161137 173.372319 100.885897 
C 174.642863 101.610657 176.366334 102.01788 178.163155 102.01788 
z
" style="fill:#0000ff;opacity:0.2;stroke:#0000ff;stroke-linejoin:miter;stroke-width:2;"/>
   </g>
   <g id="[&quot;g_s&quot;:4,&quot;g_t&quot;:9,&quot;coords&quot;:[[166.5, -96.0],[191.0, -95.0]],&quot;certainty&quot;:11]">
    <path clip-path="url(#p1d795169ed)" d="M 150.497484 102.662019 
C 152.294306 102.662019 154.017776 102.254796 155.288321 101.530036 
C 156.558866 100.805276 157.27275 99.822153 157.27275 98.797187 
C 157.27275 97.772222 156.558866 96.789099 155.288321 96.064339 
C 154.017776 95.339579 152.294306 94.932356 150.497484 94.932356 
C 148.700662 94.932356 146.977192 95.339579 145.706647 96.064339 
C 144.436102 96.789099 143.722217 97.772222 143.722217 98.797187 
C 143.722217 99.822153 144.436102 100.805276 145.706647 101.530036 
C 146.977192 102.254796 148.700662 102.662019 150.497484 102.662019 
z
" style="fill:#ff0000;opacity:0.2;stroke:#ff0000;stroke-linejoin:miter;stroke-width:2;"/>
   </g>
   <g id="patch_38">
    <path d="M 178.163155 98.153049 
Q 165.331647 98.451804 154.620884 98.701182 
" style="fill:none;opacity:0.5;stroke:#0000ff;stroke-linecap:round;stroke-width:3;"/>
    <path d="M 156.155392 100.165861 
L 154.620884 98.701182 
L 156.085562 97.166674 
" style="fill:none;opacity:0.5;stroke:#0000ff;stroke-linecap:round;stroke-width:3;"/>
   </g>
   <g id="[&quot;g_s&quot;:10,&quot;g_t&quot;:5,&quot;coords&quot;:[[248.0, -197.0],[244.5, -189.0]],&quot;certainty&quot;:5]">
    <path clip-path="url(#p1d795169ed)" d="M 242.528188 165.787598 
C 243.426598 165.787598 244.288334 165.583986 244.923606 165.221606 
C 245.558878 164.859226 245.915821 164.367665 245.915821 163.855182 
C 245.915821 163.3427 245.558878 162.851138 244.923606 162.488758 
C 244.288334 162.126378 243.426598 161.922766 242.528188 161.922766 
C 241.629777 161.922766 240.768041 162.126378 240.132769 162.488758 
C 239.497497 162.851138 239.140554 163.3427 239.140554 163.855182 
C 239.140554 164.367665 239.497497 164.859226 240.132769 165.221606 
C 240.768041 165.583986 241.629777 165.787598 242.528188 165.787598 
z
" style="fill:#0000ff;opacity:0.2;stroke:#0000ff;stroke-linejoin:miter;stroke-width:2;"/>
   </g>
   <g id="[&quot;g_s&quot;:5,&quot;g_t&quot;:10,&quot;coords&quot;:[[244.5, -189.0],[248.0, -197.0]],&quot;certainty&quot;:5]">
    <path clip-path="url(#p1d795169ed)" d="M 238.575949 160.634489 
C 239.47436 160.634489 240.336095 160.430878 240.971367 160.068498 
C 241.60664 159.706118 241.963582 159.214556 241.963582 158.702074 
C 241.963582 158.189591 241.60664 157.698029 240.971367 157.335649 
C 240.336095 156.973269 239.47436 156.769658 238.575949 156.769658 
C 237.677538 156.769658 236.815803 156.973269 236.18053 157.335649 
C 235.545258 157.698029 235.188315 158.189591 235.188315 158.702074 
C 235.188315 159.214556 235.545258 159.706118 236.18053 160.068498 
C 236.815803 160.430878 237.677538 160.634489 238.575949 160.634489 
z
" style="fill:#ff0000;opacity:0.2;stroke:#ff0000;stroke-linejoin:miter;stroke-width:2;"/>
   </g>
   <g id="patch_39">
    <path d="M 242.528188 163.855182 
Q 241.160921 162.072478 240.439151 161.131401 
" style="fill:none;opacity:0.5;stroke:#0000ff;stroke-linecap:round;stroke-width:1.5;"/>
    <path d="M 240.16178 163.23451 
L 240.439151 161.131401 
L 242.542259 161.408772 
" style="fill:none;opacity:0.5;stroke:#0000ff;stroke-linecap:round;stroke-width:1.5;"/>
   </g>
   <g id="[&quot;g_s&quot;:11,&quot;g_t&quot;:6,&quot;coords&quot;:[[262.0, -197.0],[277.5, -187.0]],&quot;certainty&quot;:5]">
    <path clip-path="url(#p1d795169ed)" d="M 258.337143 165.787598 
C 259.235554 165.787598 260.097289 165.583986 260.732561 165.221606 
C 261.367834 164.859226 261.724776 164.367665 261.724776 163.855182 
C 261.724776 163.3427 261.367834 162.851138 260.732561 162.488758 
C 260.097289 162.126378 259.235554 161.922766 258.337143 161.922766 
C 257.438732 161.922766 256.576997 162.126378 255.941724 162.488758 
C 255.306452 162.851138 254.949509 163.3427 254.949509 163.855182 
C 254.949509 164.367665 255.306452 164.859226 255.941724 165.221606 
C 256.576997 165.583986 257.438732 165.787598 258.337143 165.787598 
z
" style="fill:#0000ff;opacity:0.2;stroke:#0000ff;stroke-linejoin:miter;stroke-width:2;"/>
   </g>
   <g id="[&quot;g_s&quot;:6,&quot;g_t&quot;:11,&quot;coords&quot;:[[277.5, -187.0],[262.0, -197.0]],&quot;certainty&quot;:5]">
    <path clip-path="url(#p1d795169ed)" d="M 275.839915 159.346212 
C 276.738325 159.346212 277.600061 159.142601 278.235333 158.780221 
C 278.870605 158.417841 279.227548 157.926279 279.227548 157.413797 
C 279.227548 156.901314 278.870605 156.409752 278.235333 156.047372 
C 277.600061 155.684992 276.738325 155.481381 275.839915 155.481381 
C 274.941504 155.481381 274.079769 155.684992 273.444496 156.047372 
C 272.809224 156.409752 272.452281 156.901314 272.452281 157.413797 
C 272.452281 157.926279 272.809224 158.417841 273.444496 158.780221 
C 274.079769 159.142601 274.941504 159.346212 275.839915 159.346212 
z
" style="fill:#ff0000;opacity:0.2;stroke:#ff0000;stroke-linejoin:miter;stroke-width:2;"/>
   </g>
   <g id="patch_40">
    <path d="M 258.337143 163.855182 
Q 266.150575 160.979676 272.968615 158.470495 
" style="fill:none;opacity:0.5;stroke:#0000ff;stroke-linecap:round;stroke-width:1.5;"/>
    <path d="M 271.042856 157.58086 
L 272.968615 158.470495 
L 272.07898 160.396254 
" style="fill:none;opacity:0.5;stroke:#0000ff;stroke-linecap:round;stroke-width:1.5;"/>
   </g>
   <g id="[&quot;g_s&quot;:12,&quot;g_t&quot;:7,&quot;coords&quot;:[[267.0, -218.0],[279.5, -202.0]],&quot;certainty&quot;:5]">
    <path clip-path="url(#p1d795169ed)" d="M 263.983198 179.314508 
C 264.881609 179.314508 265.743344 179.110896 266.378617 178.748516 
C 267.013889 178.386136 267.370831 177.894575 267.370831 177.382092 
C 267.370831 176.869609 267.013889 176.378048 266.378617 176.015668 
C 265.743344 175.653288 264.881609 175.449676 263.983198 175.449676 
C 263.084787 175.449676 262.223052 175.653288 261.58778 176.015668 
C 260.952507 176.378048 260.595565 176.869609 260.595565 177.382092 
C 260.595565 177.894575 260.952507 178.386136 261.58778 178.748516 
C 262.223052 179.110896 263.084787 179.314508 263.983198 179.314508 
z
" style="fill:#0000ff;opacity:0.2;stroke:#0000ff;stroke-linejoin:miter;stroke-width:2;"/>
   </g>
   <g id="[&quot;g_s&quot;:7,&quot;g_t&quot;:12,&quot;coords&quot;:[[279.5, -202.0],[267.0, -218.0]],&quot;certainty&quot;:5]">
    <path clip-path="url(#p1d795169ed)" d="M 278.098337 169.008291 
C 278.996748 169.008291 279.858483 168.804679 280.493755 168.442299 
C 281.129028 168.079919 281.48597 167.588358 281.48597 167.075875 
C 281.48597 166.563392 281.129028 166.071831 280.493755 165.709451 
C 279.858483 165.347071 278.996748 165.143459 278.098337 165.143459 
C 277.199926 165.143459 276.338191 165.347071 275.702918 165.709451 
C 275.067646 166.071831 274.710704 166.563392 274.710704 167.075875 
C 274.710704 167.588358 275.067646 168.079919 275.702918 168.442299 
C 276.338191 168.804679 277.199926 169.008291 278.098337 169.008291 
z
" style="fill:#ff0000;opacity:0.2;stroke:#ff0000;stroke-linejoin:miter;stroke-width:2;"/>
   </g>
   <g id="patch_41">
    <path d="M 263.983198 177.382092 
Q 270.232662 172.819024 275.625507 168.88142 
" style="fill:none;opacity:0.5;stroke:#0000ff;stroke-linecap:round;stroke-width:1.5;"/>
    <path d="M 273.529527 168.554517 
L 275.625507 168.88142 
L 275.298604 170.977401 
" style="fill:none;opacity:0.5;stroke:#0000ff;stroke-linecap:round;stroke-width:1.5;"/>
   </g>
   <g id="[&quot;g_s&quot;:1,&quot;g_t&quot;:12,&quot;coords&quot;:[[219.5, -349.0],[267.0, -218.0]],&quot;certainty&quot;:11]">
    <path clip-path="url(#p1d795169ed)" d="M 210.345671 265.629075 
C 212.142493 265.629075 213.865964 265.221852 215.136508 264.497092 
C 216.407053 263.772332 217.120938 262.789209 217.120938 261.764244 
C 217.120938 260.739279 216.407053 259.756155 215.136508 259.031395 
C 213.865964 258.306635 212.142493 257.899412 210.345671 257.899412 
C 208.54885 257.899412 206.825379 258.306635 205.554835 259.031395 
C 204.28429 259.756155 203.570405 260.739279 203.570405 261.764244 
C 203.570405 262.789209 204.28429 263.772332 205.554835 264.497092 
C 206.825379 265.221852 208.54885 265.629075 210.345671 265.629075 
z
" style="fill:#0000ff;opacity:0.2;stroke:#0000ff;stroke-linejoin:miter;stroke-width:2;"/>
   </g>
   <g id="[&quot;g_s&quot;:12,&quot;g_t&quot;:1,&quot;coords&quot;:[[267.0, -218.0],[219.5, -349.0]],&quot;certainty&quot;:11]">
    <path clip-path="url(#p1d795169ed)" d="M 263.983198 181.246923 
C 265.78002 181.246923 267.50349 180.8397 268.774035 180.11494 
C 270.04458 179.390181 270.758465 178.407057 270.758465 177.382092 
C 270.758465 176.357127 270.04458 175.374003 268.774035 174.649244 
C 267.50349 173.924484 265.78002 173.517261 263.983198 173.517261 
C 262.186376 173.517261 260.462906 173.924484 259.192361 174.649244 
C 257.921816 175.374003 257.207932 176.357127 257.207932 177.382092 
C 257.207932 178.407057 257.921816 179.390181 259.192361 180.11494 
C 260.462906 180.8397 262.186376 181.246923 263.983198 181.246923 
z
" style="fill:#ff0000;opacity:0.2;stroke:#ff0000;stroke-linejoin:miter;stroke-width:2;"/>
   </g>
   <g id="patch_42">
    <path d="M 210.345671 261.764244 
Q 236.628354 220.416526 261.773061 180.859063 
" style="fill:none;opacity:0.5;stroke:#ff0000;stroke-linecap:round;stroke-width:3;"/>
    <path d="M 259.70249 181.320294 
L 261.773061 180.859063 
L 262.234292 182.929634 
" style="fill:none;opacity:0.5;stroke:#ff0000;stroke-linecap:round;stroke-width:3;"/>
   </g>
   <g id="[&quot;g_s&quot;:2,&quot;g_t&quot;:7,&quot;coords&quot;:[[320.5, -144.0],[293.0, -151.0]],&quot;certainty&quot;:11]">
    <path clip-path="url(#p1d795169ed)" d="M 324.395991 133.58067 
C 326.192813 133.58067 327.916283 133.173447 329.186828 132.448687 
C 330.457373 131.723927 331.171258 130.740804 331.171258 129.715838 
C 331.171258 128.690873 330.457373 127.70775 329.186828 126.98299 
C 327.916283 126.25823 326.192813 125.851007 324.395991 125.851007 
C 322.59917 125.851007 320.875699 126.25823 319.605154 126.98299 
C 318.33461 127.70775 317.620725 128.690873 317.620725 129.715838 
C 317.620725 130.740804 318.33461 131.723927 319.605154 132.448687 
C 320.875699 133.173447 322.59917 133.58067 324.395991 133.58067 
z
" style="fill:#0000ff;opacity:0.2;stroke:#0000ff;stroke-linejoin:miter;stroke-width:2;"/>
   </g>
   <g id="[&quot;g_s&quot;:7,&quot;g_t&quot;:2,&quot;coords&quot;:[[293.0, -151.0],[320.5, -144.0]],&quot;certainty&quot;:11]">
    <path clip-path="url(#p1d795169ed)" d="M 293.342686 138.08964 
C 295.139508 138.08964 296.862979 137.682417 298.133523 136.957657 
C 299.404068 136.232897 300.117953 135.249774 300.117953 134.224808 
C 300.117953 133.199843 299.404068 132.21672 298.133523 131.49196 
C 296.862979 130.7672 295.139508 130.359977 293.342686 130.359977 
C 291.545865 130.359977 289.822394 130.7672 288.55185 131.49196 
C 287.281305 132.21672 286.56742 133.199843 286.56742 134.224808 
C 286.56742 135.249774 287.281305 136.232897 288.55185 136.957657 
C 289.822394 137.682417 291.545865 138.08964 293.342686 138.08964 
z
" style="fill:#ff0000;opacity:0.2;stroke:#ff0000;stroke-linejoin:miter;stroke-width:2;"/>
   </g>
   <g id="patch_43">
    <path d="M 324.395991 129.715838 
Q 309.860603 131.826391 297.424521 133.632122 
" style="fill:none;opacity:0.5;stroke:#ff0000;stroke-linecap:round;stroke-width:3;"/>
    <path d="M 299.124496 134.901014 
L 297.424521 133.632122 
L 298.693413 131.932148 
" style="fill:none;opacity:0.5;stroke:#ff0000;stroke-linecap:round;stroke-width:3;"/>
   </g>
   <g id="[&quot;g_s&quot;:3,&quot;g_t&quot;:8,&quot;coords&quot;:[[237.5, -18.0],[239.0, -21.0]],&quot;certainty&quot;:11]">
    <path clip-path="url(#p1d795169ed)" d="M 230.671471 52.419211 
C 232.468293 52.419211 234.191763 52.011988 235.462308 51.287228 
C 236.732853 50.562468 237.446738 49.579345 237.446738 48.554379 
C 237.446738 47.529414 236.732853 46.546291 235.462308 45.821531 
C 234.191763 45.096771 232.468293 44.689548 230.671471 44.689548 
C 228.874649 44.689548 227.151179 45.096771 225.880634 45.821531 
C 224.610089 46.546291 223.896205 47.529414 223.896205 48.554379 
C 223.896205 49.579345 224.610089 50.562468 225.880634 51.287228 
C 227.151179 52.011988 228.874649 52.419211 230.671471 52.419211 
z
" style="fill:#0000ff;opacity:0.2;stroke:#0000ff;stroke-linejoin:miter;stroke-width:2;"/>
   </g>
   <g id="[&quot;g_s&quot;:8,&quot;g_t&quot;:3,&quot;coords&quot;:[[239.0, -21.0],[237.5, -18.0]],&quot;certainty&quot;:11]">
    <path clip-path="url(#p1d795169ed)" d="M 232.365288 54.351626 
C 234.162109 54.351626 235.88558 53.944403 237.156125 53.219644 
C 238.426669 52.494884 239.140554 51.51176 239.140554 50.486795 
C 239.140554 49.46183 238.426669 48.478706 237.156125 47.753947 
C 235.88558 47.029187 234.162109 46.621964 232.365288 46.621964 
C 230.568466 46.621964 228.844996 47.029187 227.574451 47.753947 
C 226.303906 48.478706 225.590021 49.46183 225.590021 50.486795 
C 225.590021 51.51176 226.303906 52.494884 227.574451 53.219644 
C 228.844996 53.944403 230.568466 54.351626 232.365288 54.351626 
z
" style="fill:#ff0000;opacity:0.2;stroke:#ff0000;stroke-linejoin:miter;stroke-width:2;"/>
   </g>
   <g id="patch_44">
    <path d="M 230.671471 48.554379 
Q 230.859213 48.768568 229.648676 47.387509 
" style="fill:none;opacity:0.5;stroke:#ff0000;stroke-linecap:round;stroke-width:3;"/>
    <path d="M 229.787954 45.270766 
L 229.648676 47.387509 
L 227.531933 47.248232 
" style="fill:none;opacity:0.5;stroke:#ff0000;stroke-linecap:round;stroke-width:3;"/>
   </g>
   <g id="[&quot;g_s&quot;:4,&quot;g_t&quot;:9,&quot;coords&quot;:[[166.5, -96.0],[191.0, -95.0]],&quot;certainty&quot;:11]">
    <path clip-path="url(#p1d795169ed)" d="M 150.497484 102.662019 
C 152.294306 102.662019 154.017776 102.254796 155.288321 101.530036 
C 156.558866 100.805276 157.27275 99.822153 157.27275 98.797187 
C 157.27275 97.772222 156.558866 96.789099 155.288321 96.064339 
C 154.017776 95.339579 152.294306 94.932356 150.497484 94.932356 
C 148.700662 94.932356 146.977192 95.339579 145.706647 96.064339 
C 144.436102 96.789099 143.722217 97.772222 143.722217 98.797187 
C 143.722217 99.822153 144.436102 100.805276 145.706647 101.530036 
C 146.977192 102.254796 148.700662 102.662019 150.497484 102.662019 
z
" style="fill:#0000ff;opacity:0.2;stroke:#0000ff;stroke-linejoin:miter;stroke-width:2;"/>
   </g>
   <g id="[&quot;g_s&quot;:9,&quot;g_t&quot;:4,&quot;coords&quot;:[[191.0, -95.0],[166.5, -96.0]],&quot;certainty&quot;:11]">
    <path clip-path="url(#p1d795169ed)" d="M 178.163155 102.01788 
C 179.959977 102.01788 181.683448 101.610657 182.953992 100.885897 
C 184.224537 100.161137 184.938422 99.178014 184.938422 98.153049 
C 184.938422 97.128083 184.224537 96.14496 182.953992 95.4202 
C 181.683448 94.69544 179.959977 94.288217 178.163155 94.288217 
C 176.366334 94.288217 174.642863 94.69544 173.372319 95.4202 
C 172.101774 96.14496 171.387889 97.128083 171.387889 98.153049 
C 171.387889 99.178014 172.101774 100.161137 173.372319 100.885897 
C 174.642863 101.610657 176.366334 102.01788 178.163155 102.01788 
z
" style="fill:#ff0000;opacity:0.2;stroke:#ff0000;stroke-linejoin:miter;stroke-width:2;"/>
   </g>
   <g id="patch_45">
    <path d="M 150.497484 98.797187 
Q 163.328993 98.498432 174.039756 98.249054 
" style="fill:none;opacity:0.5;stroke:#ff0000;stroke-linecap:round;stroke-width:3;"/>
    <path d="M 172.505247 96.784375 
L 174.039756 98.249054 
L 172.575077 99.783562 
" style="fill:none;opacity:0.5;stroke:#ff0000;stroke-linecap:round;stroke-width:3;"/>
   </g>
   <g id="[&quot;g_s&quot;:6,&quot;g_t&quot;:11,&quot;coords&quot;:[[277.5, -187.0],[262.0, -197.0]],&quot;certainty&quot;:6]">
    <path clip-path="url(#p1d795169ed)" d="M 275.839915 159.668282 
C 276.888061 159.668282 277.893418 159.430735 278.634569 159.007958 
C 279.375721 158.585182 279.792153 158.011693 279.792153 157.413797 
C 279.792153 156.8159 279.375721 156.242412 278.634569 155.819635 
C 277.893418 155.396858 276.888061 155.159312 275.839915 155.159312 
C 274.791769 155.159312 273.786411 155.396858 273.04526 155.819635 
C 272.304109 156.242412 271.887676 156.8159 271.887676 157.413797 
C 271.887676 158.011693 272.304109 158.585182 273.04526 159.007958 
C 273.786411 159.430735 274.791769 159.668282 275.839915 159.668282 
z
" style="fill:#0000ff;opacity:0.2;stroke:#0000ff;stroke-linejoin:miter;stroke-width:2;"/>
   </g>
   <g id="[&quot;g_s&quot;:11,&quot;g_t&quot;:6,&quot;coords&quot;:[[262.0, -197.0],[277.5, -187.0]],&quot;certainty&quot;:6]">
    <path clip-path="url(#p1d795169ed)" d="M 258.337143 166.109667 
C 259.385289 166.109667 260.390646 165.87212 261.131798 165.449344 
C 261.872949 165.026567 262.289382 164.453079 262.289382 163.855182 
C 262.289382 163.257286 261.872949 162.683797 261.131798 162.261021 
C 260.390646 161.838244 259.385289 161.600697 258.337143 161.600697 
C 257.288997 161.600697 256.283639 161.838244 255.542488 162.261021 
C 254.801337 162.683797 254.384904 163.257286 254.384904 163.855182 
C 254.384904 164.453079 254.801337 165.026567 255.542488 165.449344 
C 256.283639 165.87212 257.288997 166.109667 258.337143 166.109667 
z
" style="fill:#ff0000;opacity:0.2;stroke:#ff0000;stroke-linejoin:miter;stroke-width:2;"/>
   </g>
   <g id="patch_46">
    <path d="M 275.839915 157.413797 
Q 268.026482 160.289303 261.374341 162.73743 
" style="fill:none;opacity:0.5;stroke:#ff0000;stroke-linecap:round;stroke-width:1.75;"/>
    <path d="M 263.300101 163.627065 
L 261.374341 162.73743 
L 262.263977 160.81167 
" style="fill:none;opacity:0.5;stroke:#ff0000;stroke-linecap:round;stroke-width:1.75;"/>
   </g>
   <g id="[&quot;g_s&quot;:7,&quot;g_t&quot;:12,&quot;coords&quot;:[[279.5, -202.0],[267.0, -218.0]],&quot;certainty&quot;:5]">
    <path clip-path="url(#p1d795169ed)" d="M 278.098337 169.008291 
C 278.996748 169.008291 279.858483 168.804679 280.493755 168.442299 
C 281.129028 168.079919 281.48597 167.588358 281.48597 167.075875 
C 281.48597 166.563392 281.129028 166.071831 280.493755 165.709451 
C 279.858483 165.347071 278.996748 165.143459 278.098337 165.143459 
C 277.199926 165.143459 276.338191 165.347071 275.702918 165.709451 
C 275.067646 166.071831 274.710704 166.563392 274.710704 167.075875 
C 274.710704 167.588358 275.067646 168.079919 275.702918 168.442299 
C 276.338191 168.804679 277.199926 169.008291 278.098337 169.008291 
z
" style="fill:#0000ff;opacity:0.2;stroke:#0000ff;stroke-linejoin:miter;stroke-width:2;"/>
   </g>
   <g id="[&quot;g_s&quot;:12,&quot;g_t&quot;:7,&quot;coords&quot;:[[267.0, -218.0],[279.5, -202.0]],&quot;certainty&quot;:5]">
    <path clip-path="url(#p1d795169ed)" d="M 263.983198 179.314508 
C 264.881609 179.314508 265.743344 179.110896 266.378617 178.748516 
C 267.013889 178.386136 267.370831 177.894575 267.370831 177.382092 
C 267.370831 176.869609 267.013889 176.378048 266.378617 176.015668 
C 265.743344 175.653288 264.881609 175.449676 263.983198 175.449676 
C 263.084787 175.449676 262.223052 175.653288 261.58778 176.015668 
C 260.952507 176.378048 260.595565 176.869609 260.595565 177.382092 
C 260.595565 177.894575 260.952507 178.386136 261.58778 178.748516 
C 262.223052 179.110896 263.084787 179.314508 263.983198 179.314508 
z
" style="fill:#ff0000;opacity:0.2;stroke:#ff0000;stroke-linejoin:miter;stroke-width:2;"/>
   </g>
   <g id="patch_47">
    <path d="M 278.098337 167.075875 
Q 271.848873 171.638943 266.456028 175.576547 
" style="fill:none;opacity:0.5;stroke:#ff0000;stroke-linecap:round;stroke-width:1.5;"/>
    <path d="M 268.552008 175.90345 
L 266.456028 175.576547 
L 266.782931 173.480566 
" style="fill:none;opacity:0.5;stroke:#ff0000;stroke-linecap:round;stroke-width:1.5;"/>
   </g>
   <g id="[&quot;g_s&quot;:8,&quot;g_t&quot;:1,&quot;coords&quot;:[[212.5, -226.0],[201.0, -240.0]],&quot;certainty&quot;:11]">
    <path clip-path="url(#p1d795169ed)" d="M 202.441194 186.400032 
C 204.238016 186.400032 205.961486 185.992809 207.232031 185.268049 
C 208.502576 184.543289 209.21646 183.560166 209.21646 182.535201 
C 209.21646 181.510235 208.502576 180.527112 207.232031 179.802352 
C 205.961486 179.077592 204.238016 178.670369 202.441194 178.670369 
C 200.644372 178.670369 198.920902 179.077592 197.650357 179.802352 
C 196.379812 180.527112 195.665927 181.510235 195.665927 182.535201 
C 195.665927 183.560166 196.379812 184.543289 197.650357 185.268049 
C 198.920902 185.992809 200.644372 186.400032 202.441194 186.400032 
z
" style="fill:#0000ff;opacity:0.2;stroke:#0000ff;stroke-linejoin:miter;stroke-width:2;"/>
   </g>
   <g id="[&quot;g_s&quot;:1,&quot;g_t&quot;:8,&quot;coords&quot;:[[201.0, -240.0],[212.5, -226.0]],&quot;certainty&quot;:11]">
    <path clip-path="url(#p1d795169ed)" d="M 189.455266 195.417972 
C 191.252088 195.417972 192.975558 195.010749 194.246103 194.285989 
C 195.516648 193.561229 196.230533 192.578106 196.230533 191.55314 
C 196.230533 190.528175 195.516648 189.545052 194.246103 188.820292 
C 192.975558 188.095532 191.252088 187.688309 189.455266 187.688309 
C 187.658445 187.688309 185.934974 188.095532 184.664429 188.820292 
C 183.393885 189.545052 182.68 190.528175 182.68 191.55314 
C 182.68 192.578106 183.393885 193.561229 184.664429 194.285989 
C 185.934974 195.010749 187.658445 195.417972 189.455266 195.417972 
z
" style="fill:#ff0000;opacity:0.2;stroke:#ff0000;stroke-linejoin:miter;stroke-width:2;"/>
   </g>
   <g id="patch_48">
    <path d="M 202.441194 182.535201 
Q 196.770947 186.472843 192.843093 189.2005 
" style="fill:none;opacity:0.5;stroke:#ff0000;stroke-linecap:round;stroke-width:3;"/>
    <path d="M 194.93074 189.576968 
L 192.843093 189.2005 
L 193.219561 187.112853 
" style="fill:none;opacity:0.5;stroke:#ff0000;stroke-linecap:round;stroke-width:3;"/>
   </g>
   <g id="[&quot;g_s&quot;:9,&quot;g_t&quot;:2,&quot;coords&quot;:[[101.5, -122.0],[85.0, -130.0]],&quot;certainty&quot;:11]">
    <path clip-path="url(#p1d795169ed)" d="M 77.098763 119.409621 
C 78.895585 119.409621 80.619055 119.002398 81.8896 118.277638 
C 83.160145 117.552879 83.87403 116.569755 83.87403 115.54479 
C 83.87403 114.519825 83.160145 113.536701 81.8896 112.811941 
C 80.619055 112.087182 78.895585 111.679959 77.098763 111.679959 
C 75.301941 111.679959 73.578471 112.087182 72.307926 112.811941 
C 71.037381 113.536701 70.323497 114.519825 70.323497 115.54479 
C 70.323497 116.569755 71.037381 117.552879 72.307926 118.277638 
C 73.578471 119.002398 75.301941 119.409621 77.098763 119.409621 
z
" style="fill:#0000ff;opacity:0.2;stroke:#0000ff;stroke-linejoin:miter;stroke-width:2;"/>
   </g>
   <g id="[&quot;g_s&quot;:2,&quot;g_t&quot;:9,&quot;coords&quot;:[[85.0, -130.0],[101.5, -122.0]],&quot;certainty&quot;:11]">
    <path clip-path="url(#p1d795169ed)" d="M 58.46678 124.56273 
C 60.263602 124.56273 61.987072 124.155507 63.257617 123.430747 
C 64.528162 122.705987 65.242047 121.722864 65.242047 120.697898 
C 65.242047 119.672933 64.528162 118.68981 63.257617 117.96505 
C 61.987072 117.24029 60.263602 116.833067 58.46678 116.833067 
C 56.669958 116.833067 54.946488 117.24029 53.675943 117.96505 
C 52.405398 118.68981 51.691514 119.672933 51.691514 120.697898 
C 51.691514 121.722864 52.405398 122.705987 53.675943 123.430747 
C 54.946488 124.155507 56.669958 124.56273 58.46678 124.56273 
z
" style="fill:#ff0000;opacity:0.2;stroke:#ff0000;stroke-linejoin:miter;stroke-width:2;"/>
   </g>
   <g id="patch_49">
    <path d="M 77.098763 115.54479 
Q 68.744848 117.85526 62.435497 119.600258 
" style="fill:none;opacity:0.5;stroke:#ff0000;stroke-linecap:round;stroke-width:3;"/>
    <path d="M 64.281071 120.646134 
L 62.435497 119.600258 
L 63.481373 117.754684 
" style="fill:none;opacity:0.5;stroke:#ff0000;stroke-linecap:round;stroke-width:3;"/>
   </g>
   <g id="[&quot;g_s&quot;:10,&quot;g_t&quot;:3,&quot;coords&quot;:[[251.5, 8.0],[242.0, 13.0]],&quot;certainty&quot;:11]">
    <path clip-path="url(#p1d795169ed)" d="M 246.480426 35.671608 
C 248.277248 35.671608 250.000718 35.264385 251.271263 34.539625 
C 252.541808 33.814865 253.255693 32.831742 253.255693 31.806777 
C 253.255693 30.781811 252.541808 29.798688 251.271263 29.073928 
C 250.000718 28.349168 248.277248 27.941945 246.480426 27.941945 
C 244.683605 27.941945 242.960134 28.349168 241.689589 29.073928 
C 240.419045 29.798688 239.70516 30.781811 239.70516 31.806777 
C 239.70516 32.831742 240.419045 33.814865 241.689589 34.539625 
C 242.960134 35.264385 244.683605 35.671608 246.480426 35.671608 
z
" style="fill:#0000ff;opacity:0.2;stroke:#0000ff;stroke-linejoin:miter;stroke-width:2;"/>
   </g>
   <g id="[&quot;g_s&quot;:3,&quot;g_t&quot;:10,&quot;coords&quot;:[[242.0, 13.0],[251.5, 8.0]],&quot;certainty&quot;:11]">
    <path clip-path="url(#p1d795169ed)" d="M 235.752921 32.450915 
C 237.549743 32.450915 239.273213 32.043692 240.543758 31.318932 
C 241.814303 30.594173 242.528188 29.611049 242.528188 28.586084 
C 242.528188 27.561119 241.814303 26.577995 240.543758 25.853235 
C 239.273213 25.128476 237.549743 24.721253 235.752921 24.721253 
C 233.956099 24.721253 232.232629 25.128476 230.962084 25.853235 
C 229.691539 26.577995 228.977654 27.561119 228.977654 28.586084 
C 228.977654 29.611049 229.691539 30.594173 230.962084 31.318932 
C 232.232629 32.043692 233.956099 32.450915 235.752921 32.450915 
z
" style="fill:#ff0000;opacity:0.2;stroke:#ff0000;stroke-linejoin:miter;stroke-width:2;"/>
   </g>
   <g id="patch_50">
    <path d="M 246.480426 31.806777 
Q 242.073925 30.483824 239.699154 29.770852 
" style="fill:none;opacity:0.5;stroke:#ff0000;stroke-linecap:round;stroke-width:3;"/>
    <path d="M 240.704481 31.638823 
L 239.699154 29.770852 
L 241.567125 28.765524 
" style="fill:none;opacity:0.5;stroke:#ff0000;stroke-linecap:round;stroke-width:3;"/>
   </g>
   <g id="[&quot;g_s&quot;:11,&quot;g_t&quot;:4,&quot;coords&quot;:[[394.5, -157.0],[411.0, -150.0]],&quot;certainty&quot;:11]">
    <path clip-path="url(#p1d795169ed)" d="M 407.957612 141.954471 
C 409.754434 141.954471 411.477904 141.547248 412.748449 140.822488 
C 414.018994 140.097728 414.732878 139.114605 414.732878 138.08964 
C 414.732878 137.064674 414.018994 136.081551 412.748449 135.356791 
C 411.477904 134.632031 409.754434 134.224808 407.957612 134.224808 
C 406.16079 134.224808 404.43732 134.632031 403.166775 135.356791 
C 401.89623 136.081551 401.182345 137.064674 401.182345 138.08964 
C 401.182345 139.114605 401.89623 140.097728 403.166775 140.822488 
C 404.43732 141.547248 406.16079 141.954471 407.957612 141.954471 
z
" style="fill:#0000ff;opacity:0.2;stroke:#0000ff;stroke-linejoin:miter;stroke-width:2;"/>
   </g>
   <g id="[&quot;g_s&quot;:4,&quot;g_t&quot;:11,&quot;coords&quot;:[[411.0, -150.0],[394.5, -157.0]],&quot;certainty&quot;:11]">
    <path clip-path="url(#p1d795169ed)" d="M 426.589595 137.445501 
C 428.386417 137.445501 430.109887 137.038278 431.380432 136.313518 
C 432.650977 135.588758 433.364861 134.605635 433.364861 133.58067 
C 433.364861 132.555704 432.650977 131.572581 431.380432 130.847821 
C 430.109887 130.123061 428.386417 129.715838 426.589595 129.715838 
C 424.792773 129.715838 423.069303 130.123061 421.798758 130.847821 
C 420.528213 131.572581 419.814328 132.555704 419.814328 133.58067 
C 419.814328 134.605635 420.528213 135.588758 421.798758 136.313518 
C 423.069303 137.038278 424.792773 137.445501 426.589595 137.445501 
z
" style="fill:#ff0000;opacity:0.2;stroke:#ff0000;stroke-linejoin:miter;stroke-width:2;"/>
   </g>
   <g id="patch_51">
    <path d="M 407.957612 138.08964 
Q 416.302429 136.07018 422.585442 134.549681 
" style="fill:none;opacity:0.5;stroke:#ff0000;stroke-linecap:round;stroke-width:3;"/>
    <path d="M 420.774708 133.444583 
L 422.585442 134.549681 
L 421.480344 136.360415 
" style="fill:none;opacity:0.5;stroke:#ff0000;stroke-linecap:round;stroke-width:3;"/>
   </g>
   <g id="[&quot;g_s&quot;:12,&quot;g_t&quot;:6,&quot;coords&quot;:[[286.5, -351.0],[104.0, -386.0]],&quot;certainty&quot;:6]">
    <path clip-path="url(#p1d795169ed)" d="M 286.002814 265.307006 
C 287.05096 265.307006 288.056318 265.069459 288.797469 264.646683 
C 289.53862 264.223906 289.955053 263.650417 289.955053 263.052521 
C 289.955053 262.454624 289.53862 261.881136 288.797469 261.458359 
C 288.056318 261.035583 287.05096 260.798036 286.002814 260.798036 
C 284.954668 260.798036 283.949311 261.035583 283.20816 261.458359 
C 282.467008 261.881136 282.050576 262.454624 282.050576 263.052521 
C 282.050576 263.650417 282.467008 264.223906 283.20816 264.646683 
C 283.949311 265.069459 284.954668 265.307006 286.002814 265.307006 
z
" style="fill:#0000ff;opacity:0.2;stroke:#0000ff;stroke-linejoin:miter;stroke-width:2;"/>
   </g>
   <g id="[&quot;g_s&quot;:6,&quot;g_t&quot;:12,&quot;coords&quot;:[[104.0, -386.0],[286.5, -351.0]],&quot;certainty&quot;:6]">
    <path clip-path="url(#p1d795169ed)" d="M 79.921791 287.851856 
C 80.969937 287.851856 81.975295 287.614309 82.716446 287.191532 
C 83.457597 286.768756 83.87403 286.195267 83.87403 285.597371 
C 83.87403 284.999474 83.457597 284.425986 82.716446 284.003209 
C 81.975295 283.580432 80.969937 283.342886 79.921791 283.342886 
C 78.873645 283.342886 77.868287 283.580432 77.127136 284.003209 
C 76.385985 284.425986 75.969552 284.999474 75.969552 285.597371 
C 75.969552 286.195267 76.385985 286.768756 77.127136 287.191532 
C 77.868287 287.614309 78.873645 287.851856 79.921791 287.851856 
z
" style="fill:#ff0000;opacity:0.2;stroke:#ff0000;stroke-linejoin:miter;stroke-width:2;"/>
   </g>
   <g id="patch_52">
    <path d="M 286.002814 263.052521 
Q 183.957552 274.216067 83.142387 285.245044 
" style="fill:none;opacity:0.5;stroke:#ff0000;stroke-linecap:round;stroke-width:1.75;"/>
    <path d="M 84.796614 286.573024 
L 83.142387 285.245044 
L 84.470367 283.590816 
" style="fill:none;opacity:0.5;stroke:#ff0000;stroke-linecap:round;stroke-width:1.75;"/>
   </g>
   <g id="[&quot;g_s&quot;:13,&quot;g_t&quot;:5,&quot;coords&quot;:[[119.5, -412.0],[109.0, -417.0]],&quot;certainty&quot;:5]">
    <path clip-path="url(#p1d795169ed)" d="M 97.424563 304.277389 
C 98.322974 304.277389 99.184709 304.073777 99.819981 303.711397 
C 100.455254 303.349018 100.812196 302.857456 100.812196 302.344973 
C 100.812196 301.832491 100.455254 301.340929 99.819981 300.978549 
C 99.184709 300.616169 98.322974 300.412558 97.424563 300.412558 
C 96.526152 300.412558 95.664417 300.616169 95.029144 300.978549 
C 94.393872 301.340929 94.036929 301.832491 94.036929 302.344973 
C 94.036929 302.857456 94.393872 303.349018 95.029144 303.711397 
C 95.664417 304.073777 96.526152 304.277389 97.424563 304.277389 
z
" style="fill:#0000ff;opacity:0.2;stroke:#0000ff;stroke-linejoin:miter;stroke-width:2;"/>
   </g>
   <g id="[&quot;g_s&quot;:5,&quot;g_t&quot;:13,&quot;coords&quot;:[[109.0, -417.0],[119.5, -412.0]],&quot;certainty&quot;:5]">
    <path clip-path="url(#p1d795169ed)" d="M 85.567846 307.498082 
C 86.466257 307.498082 87.327992 307.29447 87.963265 306.93209 
C 88.598537 306.56971 88.95548 306.078149 88.95548 305.565666 
C 88.95548 305.053183 88.598537 304.561622 87.963265 304.199242 
C 87.327992 303.836862 86.466257 303.63325 85.567846 303.63325 
C 84.669435 303.63325 83.8077 303.836862 83.172428 304.199242 
C 82.537155 304.561622 82.180213 305.053183 82.180213 305.565666 
C 82.180213 306.078149 82.537155 306.56971 83.172428 306.93209 
C 83.8077 307.29447 84.669435 307.498082 85.567846 307.498082 
z
" style="fill:#ff0000;opacity:0.2;stroke:#ff0000;stroke-linejoin:miter;stroke-width:2;"/>
   </g>
   <g id="patch_53">
    <path d="M 97.424563 302.344973 
Q 92.461589 303.693088 88.522185 304.763166 
" style="fill:none;opacity:0.5;stroke:#ff0000;stroke-linecap:round;stroke-width:1.5;"/>
    <path d="M 90.362935 305.817509 
L 88.522185 304.763166 
L 89.576528 302.922416 
" style="fill:none;opacity:0.5;stroke:#ff0000;stroke-linecap:round;stroke-width:1.5;"/>
   </g>
   <g id="[&quot;g_s&quot;:14,&quot;g_t&quot;:6,&quot;coords&quot;:[[114.5, -392.0],[104.0, -386.0]],&quot;certainty&quot;:6]">
    <path clip-path="url(#p1d795169ed)" d="M 91.778507 291.716687 
C 92.826653 291.716687 93.832011 291.47914 94.573162 291.056364 
C 95.314313 290.633587 95.730746 290.060098 95.730746 289.462202 
C 95.730746 288.864306 95.314313 288.290817 94.573162 287.86804 
C 93.832011 287.445264 92.826653 287.207717 91.778507 287.207717 
C 90.730361 287.207717 89.725004 287.445264 88.983852 287.86804 
C 88.242701 288.290817 87.826268 288.864306 87.826268 289.462202 
C 87.826268 290.060098 88.242701 290.633587 88.983852 291.056364 
C 89.725004 291.47914 90.730361 291.716687 91.778507 291.716687 
z
" style="fill:#0000ff;opacity:0.2;stroke:#0000ff;stroke-linejoin:miter;stroke-width:2;"/>
   </g>
   <g id="[&quot;g_s&quot;:6,&quot;g_t&quot;:14,&quot;coords&quot;:[[104.0, -386.0],[114.5, -392.0]],&quot;certainty&quot;:6]">
    <path clip-path="url(#p1d795169ed)" d="M 79.921791 287.851856 
C 80.969937 287.851856 81.975295 287.614309 82.716446 287.191532 
C 83.457597 286.768756 83.87403 286.195267 83.87403 285.597371 
C 83.87403 284.999474 83.457597 284.425986 82.716446 284.003209 
C 81.975295 283.580432 80.969937 283.342886 79.921791 283.342886 
C 78.873645 283.342886 77.868287 283.580432 77.127136 284.003209 
C 76.385985 284.425986 75.969552 284.999474 75.969552 285.597371 
C 75.969552 286.195267 76.385985 286.768756 77.127136 287.191532 
C 77.868287 287.614309 78.873645 287.851856 79.921791 287.851856 
z
" style="fill:#ff0000;opacity:0.2;stroke:#ff0000;stroke-linejoin:miter;stroke-width:2;"/>
   </g>
   <g id="patch_54">
    <path d="M 91.778507 289.462202 
Q 86.80106 287.839747 83.000124 286.600788 
" style="fill:none;opacity:0.5;stroke:#ff0000;stroke-linecap:round;stroke-width:1.75;"/>
    <path d="M 83.961403 288.491805 
L 83.000124 286.600788 
L 84.891141 285.63951 
" style="fill:none;opacity:0.5;stroke:#ff0000;stroke-linecap:round;stroke-width:1.75;"/>
   </g>
   <g id="patch_55">
    <path clip-path="url(#p1d795169ed)" d="M 195.94823 190.264863 
C 197.445582 190.264863 198.881807 189.925511 199.940594 189.321544 
C 200.999382 188.717578 201.594286 187.898308 201.594286 187.04417 
C 201.594286 186.190033 200.999382 185.370763 199.940594 184.766797 
C 198.881807 184.16283 197.445582 183.823478 195.94823 183.823478 
C 194.450879 183.823478 193.014653 184.16283 191.955866 184.766797 
C 190.897079 185.370763 190.302175 186.190033 190.302175 187.04417 
C 190.302175 187.898308 190.897079 188.717578 191.955866 189.321544 
C 193.014653 189.925511 194.450879 190.264863 195.94823 190.264863 
z
" style="fill:#008000;opacity:0.2;stroke:#008000;stroke-linejoin:miter;stroke-width:2;"/>
   </g>
   <g id="patch_56">
    <path clip-path="url(#p1d795169ed)" d="M 67.782772 121.342037 
C 69.280123 121.342037 70.716348 121.002685 71.775136 120.398718 
C 72.833923 119.794751 73.428827 118.975482 73.428827 118.121344 
C 73.428827 117.267206 72.833923 116.447937 71.775136 115.84397 
C 70.716348 115.240004 69.280123 114.900651 67.782772 114.900651 
C 66.28542 114.900651 64.849195 115.240004 63.790408 115.84397 
C 62.73162 116.447937 62.136716 117.267206 62.136716 118.121344 
C 62.136716 118.975482 62.73162 119.794751 63.790408 120.398718 
C 64.849195 121.002685 66.28542 121.342037 67.782772 121.342037 
z
" style="fill:#008000;opacity:0.2;stroke:#008000;stroke-linejoin:miter;stroke-width:2;"/>
   </g>
   <g id="patch_57">
    <path clip-path="url(#p1d795169ed)" d="M 241.116674 33.417123 
C 242.614025 33.417123 244.05025 33.077771 245.109038 32.473804 
C 246.167825 31.869838 246.762729 31.050568 246.762729 30.19643 
C 246.762729 29.342293 246.167825 28.523023 245.109038 27.919057 
C 244.05025 27.31509 242.614025 26.975738 241.116674 26.975738 
C 239.619322 26.975738 238.183097 27.31509 237.12431 27.919057 
C 236.065522 28.523023 235.470618 29.342293 235.470618 30.19643 
C 235.470618 31.050568 236.065522 31.869838 237.12431 32.473804 
C 238.183097 33.077771 239.619322 33.417123 241.116674 33.417123 
z
" style="fill:#008000;opacity:0.2;stroke:#008000;stroke-linejoin:miter;stroke-width:2;"/>
   </g>
   <g id="patch_58">
    <path clip-path="url(#p1d795169ed)" d="M 417.273603 139.055848 
C 418.770955 139.055848 420.20718 138.716495 421.265967 138.112528 
C 422.324755 137.508562 422.919659 136.689292 422.919659 135.835155 
C 422.919659 134.981017 422.324755 134.161748 421.265967 133.557781 
C 420.20718 132.953814 418.770955 132.614462 417.273603 132.614462 
C 415.776252 132.614462 414.340027 132.953814 413.281239 133.557781 
C 412.222452 134.161748 411.627548 134.981017 411.627548 135.835155 
C 411.627548 136.689292 412.222452 137.508562 413.281239 138.112528 
C 414.340027 138.716495 415.776252 139.055848 417.273603 139.055848 
z
" style="fill:#008000;opacity:0.2;stroke:#008000;stroke-linejoin:miter;stroke-width:2;"/>
   </g>
   <g id="patch_59">
    <path clip-path="url(#p1d795169ed)" d="M 91.496204 307.176012 
C 92.993556 307.176012 94.429781 306.83666 95.488569 306.232693 
C 96.547356 305.628727 97.14226 304.809457 97.14226 303.95532 
C 97.14226 303.101182 96.547356 302.281912 95.488569 301.677946 
C 94.429781 301.073979 92.993556 300.734627 91.496204 300.734627 
C 89.998853 300.734627 88.562628 301.073979 87.50384 301.677946 
C 86.445053 302.281912 85.850149 303.101182 85.850149 303.95532 
C 85.850149 304.809457 86.445053 305.628727 87.50384 306.232693 
C 88.562628 306.83666 89.998853 307.176012 91.496204 307.176012 
z
" style="fill:#008000;opacity:0.2;stroke:#008000;stroke-linejoin:miter;stroke-width:2;"/>
   </g>
   <g id="patch_60">
    <path clip-path="url(#p1d795169ed)" d="M 85.850149 290.750479 
C 87.3475 290.750479 88.783726 290.411127 89.842513 289.80716 
C 90.9013 289.203193 91.496204 288.383924 91.496204 287.529786 
C 91.496204 286.675649 90.9013 285.856379 89.842513 285.252413 
C 88.783726 284.648446 87.3475 284.309093 85.850149 284.309093 
C 84.352798 284.309093 82.916572 284.648446 81.857785 285.252413 
C 80.798998 285.856379 80.204094 286.675649 80.204094 287.529786 
C 80.204094 288.383924 80.798998 289.203193 81.857785 289.80716 
C 82.916572 290.411127 84.352798 290.750479 85.850149 290.750479 
z
" style="fill:#008000;opacity:0.2;stroke:#008000;stroke-linejoin:miter;stroke-width:2;"/>
   </g>
   <g id="patch_61">
    <path clip-path="url(#p1d795169ed)" d="M 308.869339 135.191016 
C 310.36669 135.191016 311.802916 134.851664 312.861703 134.247697 
C 313.92049 133.64373 314.515394 132.824461 314.515394 131.970323 
C 314.515394 131.116186 313.92049 130.296916 312.861703 129.69295 
C 311.802916 129.088983 310.36669 128.74963 308.869339 128.74963 
C 307.371988 128.74963 305.935762 129.088983 304.876975 129.69295 
C 303.818188 130.296916 303.223283 131.116186 303.223283 131.970323 
C 303.223283 132.824461 303.818188 133.64373 304.876975 134.247697 
C 305.935762 134.851664 307.371988 135.191016 308.869339 135.191016 
z
" style="fill:#008000;opacity:0.2;stroke:#008000;stroke-linejoin:miter;stroke-width:2;"/>
   </g>
   <g id="patch_62">
    <path clip-path="url(#p1d795169ed)" d="M 231.518379 52.74128 
C 233.015731 52.74128 234.451956 52.401928 235.510743 51.797961 
C 236.569531 51.193994 237.164435 50.374725 237.164435 49.520587 
C 237.164435 48.66645 236.569531 47.84718 235.510743 47.243214 
C 234.451956 46.639247 233.015731 46.299894 231.518379 46.299894 
C 230.021028 46.299894 228.584803 46.639247 227.526015 47.243214 
C 226.467228 47.84718 225.872324 48.66645 225.872324 49.520587 
C 225.872324 50.374725 226.467228 51.193994 227.526015 51.797961 
C 228.584803 52.401928 230.021028 52.74128 231.518379 52.74128 
z
" style="fill:#008000;opacity:0.2;stroke:#008000;stroke-linejoin:miter;stroke-width:2;"/>
   </g>
   <g id="patch_63">
    <path clip-path="url(#p1d795169ed)" d="M 164.33032 101.695811 
C 165.827671 101.695811 167.263896 101.356458 168.322684 100.752492 
C 169.381471 100.148525 169.976375 99.329256 169.976375 98.475118 
C 169.976375 97.62098 169.381471 96.801711 168.322684 96.197744 
C 167.263896 95.593778 165.827671 95.254425 164.33032 95.254425 
C 162.832968 95.254425 161.396743 95.593778 160.337956 96.197744 
C 159.279168 96.801711 158.684264 97.62098 158.684264 98.475118 
C 158.684264 99.329256 159.279168 100.148525 160.337956 100.752492 
C 161.396743 101.356458 162.832968 101.695811 164.33032 101.695811 
z
" style="fill:#008000;opacity:0.2;stroke:#008000;stroke-linejoin:miter;stroke-width:2;"/>
   </g>
   <g id="patch_64">
    <path clip-path="url(#p1d795169ed)" d="M 267.088529 163.855182 
C 268.58588 163.855182 270.022105 163.51583 271.080893 162.911863 
C 272.13968 162.307897 272.734584 161.488627 272.734584 160.634489 
C 272.734584 159.780352 272.13968 158.961082 271.080893 158.357116 
C 270.022105 157.753149 268.58588 157.413797 267.088529 157.413797 
C 265.591177 157.413797 264.154952 157.753149 263.096165 158.357116 
C 262.037377 158.961082 261.442473 159.780352 261.442473 160.634489 
C 261.442473 161.488627 262.037377 162.307897 263.096165 162.911863 
C 264.154952 163.51583 265.591177 163.855182 267.088529 163.855182 
z
" style="fill:#008000;opacity:0.2;stroke:#008000;stroke-linejoin:miter;stroke-width:2;"/>
   </g>
   <g id="patch_65">
    <path clip-path="url(#p1d795169ed)" d="M 271.040767 175.449676 
C 272.538119 175.449676 273.974344 175.110324 275.033132 174.506357 
C 276.091919 173.902391 276.686823 173.083121 276.686823 172.228984 
C 276.686823 171.374846 276.091919 170.555576 275.033132 169.95161 
C 273.974344 169.347643 272.538119 169.008291 271.040767 169.008291 
C 269.543416 169.008291 268.107191 169.347643 267.048403 169.95161 
C 265.989616 170.555576 265.394712 171.374846 265.394712 172.228984 
C 265.394712 173.083121 265.989616 173.902391 267.048403 174.506357 
C 268.107191 175.110324 269.543416 175.449676 271.040767 175.449676 
z
" style="fill:#008000;opacity:0.2;stroke:#008000;stroke-linejoin:miter;stroke-width:2;"/>
   </g>
   <g id="patch_66">
    <path clip-path="url(#p1d795169ed)" d="M 189.455266 204.435912 
C 195.444672 204.435912 201.189573 203.078502 205.424723 200.662635 
C 209.659872 198.246769 212.039488 194.969691 212.039488 191.55314 
C 212.039488 188.13659 209.659872 184.859512 205.424723 182.443645 
C 201.189573 180.027779 195.444672 178.670369 189.455266 178.670369 
C 183.465861 178.670369 177.720959 180.027779 173.48581 182.443645 
C 169.250661 184.859512 166.871045 188.13659 166.871045 191.55314 
C 166.871045 194.969691 169.250661 198.246769 173.48581 200.662635 
C 177.720959 203.078502 183.465861 204.435912 189.455266 204.435912 
z
" style="fill:none;opacity:0.2;stroke:#ff0000;stroke-linejoin:miter;stroke-width:2;"/>
   </g>
   <g id="patch_67">
    <path clip-path="url(#p1d795169ed)" d="M 210.345671 274.647015 
C 216.335077 274.647015 222.079979 273.289605 226.315128 270.873739 
C 230.550277 268.457872 232.929893 265.180795 232.929893 261.764244 
C 232.929893 258.347693 230.550277 255.070615 226.315128 252.654749 
C 222.079979 250.238883 216.335077 248.881473 210.345671 248.881473 
C 204.356266 248.881473 198.611364 250.238883 194.376215 252.654749 
C 190.141066 255.070615 187.76145 258.347693 187.76145 261.764244 
C 187.76145 265.180795 190.141066 268.457872 194.376215 270.873739 
C 198.611364 273.289605 204.356266 274.647015 210.345671 274.647015 
z
" style="fill:none;opacity:0.2;stroke:#0000ff;stroke-linejoin:miter;stroke-width:2;"/>
   </g>
   <g id="patch_68">
    <path clip-path="url(#p1d795169ed)" d="M 189.455266 197.994526 
C 192.449969 197.994526 195.32242 197.315821 197.439995 196.107888 
C 199.557569 194.899955 200.747377 193.261416 200.747377 191.55314 
C 200.747377 189.844865 199.557569 188.206326 197.439995 186.998393 
C 195.32242 185.79046 192.449969 185.111755 189.455266 185.111755 
C 186.460564 185.111755 183.588113 185.79046 181.470538 186.998393 
C 179.352964 188.206326 178.163155 189.844865 178.163155 191.55314 
C 178.163155 193.261416 179.352964 194.899955 181.470538 196.107888 
C 183.588113 197.315821 186.460564 197.994526 189.455266 197.994526 
z
" style="fill:none;opacity:0.2;stroke:#008000;stroke-linejoin:miter;stroke-width:2;"/>
   </g>
   <g id="patch_69">
    <path clip-path="url(#p1d795169ed)" d="M 202.441194 188.976586 
C 205.435897 188.976586 208.308347 188.297881 210.425922 187.089948 
C 212.543497 185.882015 213.733305 184.243476 213.733305 182.535201 
C 213.733305 180.826925 212.543497 179.188386 210.425922 177.980453 
C 208.308347 176.77252 205.435897 176.093815 202.441194 176.093815 
C 199.446491 176.093815 196.57404 176.77252 194.456466 177.980453 
C 192.338891 179.188386 191.149083 180.826925 191.149083 182.535201 
C 191.149083 184.243476 192.338891 185.882015 194.456466 187.089948 
C 196.57404 188.297881 199.446491 188.976586 202.441194 188.976586 
z
" style="fill:none;opacity:0.2;stroke:#008000;stroke-linejoin:miter;stroke-width:2;"/>
   </g>
   <g id="patch_70">
    <path d="M 195.94823 187.04417 
Q 131.865501 152.582757 67.782772 118.121344 
" style="fill:none;opacity:0.5;stroke:#008000;stroke-linecap:round;stroke-width:2;"/>
   </g>
   <g id="patch_71">
    <path d="M 190.616862 190.746483 
Q 195.125513 187.615497 199.634165 184.484512 
" style="fill:none;opacity:0.5;stroke:#800080;stroke-linecap:round;stroke-width:2;"/>
    <path d="M 192.704509 191.122951 
L 190.616862 190.746483 
L 190.99333 188.658835 
" style="fill:none;opacity:0.5;stroke:#800080;stroke-linecap:round;stroke-width:2;"/>
    <path d="M 197.546518 184.108044 
L 199.634165 184.484512 
L 199.257697 186.572159 
" style="fill:none;opacity:0.5;stroke:#800080;stroke-linecap:round;stroke-width:2;"/>
   </g>
   <g id="patch_72">
    <path d="M 67.782772 118.121344 
Q 154.449723 74.158887 241.116674 30.19643 
" style="fill:none;opacity:0.5;stroke:#008000;stroke-linecap:round;stroke-width:2;"/>
   </g>
   <g id="patch_73">
    <path d="M 59.829823 120.320917 
Q 66.820695 118.387429 73.811568 116.45394 
" style="fill:none;opacity:0.5;stroke:#800080;stroke-linecap:round;stroke-width:2;"/>
    <path d="M 61.675397 121.366793 
L 59.829823 120.320917 
L 60.875699 118.475343 
" style="fill:none;opacity:0.5;stroke:#800080;stroke-linecap:round;stroke-width:2;"/>
    <path d="M 71.965994 115.408064 
L 73.811568 116.45394 
L 72.765692 118.299514 
" style="fill:none;opacity:0.5;stroke:#800080;stroke-linecap:round;stroke-width:2;"/>
   </g>
   <g id="patch_74">
    <path d="M 241.116674 30.19643 
Q 329.195139 83.015793 417.273603 135.835155 
" style="fill:none;opacity:0.5;stroke:#008000;stroke-linecap:round;stroke-width:2;"/>
   </g>
   <g id="patch_75">
    <path d="M 237.107407 28.992738 
Q 240.159422 29.909037 243.211437 30.825336 
" style="fill:none;opacity:0.5;stroke:#800080;stroke-linecap:round;stroke-width:2;"/>
    <path d="M 238.112735 30.860709 
L 237.107407 28.992738 
L 238.975378 27.98741 
" style="fill:none;opacity:0.5;stroke:#800080;stroke-linecap:round;stroke-width:2;"/>
    <path d="M 242.206109 28.957365 
L 243.211437 30.825336 
L 241.343466 31.830664 
" style="fill:none;opacity:0.5;stroke:#800080;stroke-linecap:round;stroke-width:2;"/>
   </g>
   <g id="patch_76">
    <path d="M 417.273603 135.835155 
Q 254.384904 219.895237 91.496204 303.95532 
" style="fill:none;opacity:0.5;stroke:#008000;stroke-linecap:round;stroke-width:2;"/>
   </g>
   <g id="patch_77">
    <path d="M 425.215058 133.91331 
Q 418.244777 135.600129 411.274496 137.286948 
" style="fill:none;opacity:0.5;stroke:#800080;stroke-linecap:round;stroke-width:2;"/>
    <path d="M 423.404324 132.808212 
L 425.215058 133.91331 
L 424.10996 135.724044 
" style="fill:none;opacity:0.5;stroke:#800080;stroke-linecap:round;stroke-width:2;"/>
    <path d="M 413.08523 138.392046 
L 411.274496 137.286948 
L 412.379594 135.476214 
" style="fill:none;opacity:0.5;stroke:#800080;stroke-linecap:round;stroke-width:2;"/>
   </g>
   <g id="patch_78">
    <path d="M 91.496204 303.95532 
Q 88.673177 295.742553 85.850149 287.529786 
" style="fill:none;opacity:0.5;stroke:#008000;stroke-linecap:round;stroke-width:2;"/>
   </g>
   <g id="patch_79">
    <path d="M 86.932606 305.19495 
Q 90.53082 304.217551 94.129034 303.240152 
" style="fill:none;opacity:0.5;stroke:#800080;stroke-linecap:round;stroke-width:2;"/>
    <path d="M 88.773356 306.249293 
L 86.932606 305.19495 
L 87.986949 303.3542 
" style="fill:none;opacity:0.5;stroke:#800080;stroke-linecap:round;stroke-width:2;"/>
    <path d="M 92.288284 302.185809 
L 94.129034 303.240152 
L 93.074691 305.080903 
" style="fill:none;opacity:0.5;stroke:#800080;stroke-linecap:round;stroke-width:2;"/>
   </g>
   <g id="patch_80">
    <path d="M 85.850149 287.529786 
Q 197.359744 209.750055 308.869339 131.970323 
" style="fill:none;opacity:0.5;stroke:#008000;stroke-linecap:round;stroke-width:2;"/>
   </g>
   <g id="patch_81">
    <path d="M 81.266376 286.035653 
Q 84.899238 287.219826 88.5321 288.403999 
" style="fill:none;opacity:0.5;stroke:#800080;stroke-linecap:round;stroke-width:2;"/>
    <path d="M 82.227654 287.92667 
L 81.266376 286.035653 
L 83.157392 285.074375 
" style="fill:none;opacity:0.5;stroke:#800080;stroke-linecap:round;stroke-width:2;"/>
    <path d="M 87.570822 286.512982 
L 88.5321 288.403999 
L 86.641084 289.365277 
" style="fill:none;opacity:0.5;stroke:#800080;stroke-linecap:round;stroke-width:2;"/>
   </g>
   <g id="patch_82">
    <path d="M 308.869339 131.970323 
Q 270.193859 90.745455 231.518379 49.520587 
" style="fill:none;opacity:0.5;stroke:#008000;stroke-linecap:round;stroke-width:2;"/>
   </g>
   <g id="patch_83">
    <path d="M 294.742224 134.021594 
Q 307.878074 132.114256 321.013925 130.206918 
" style="fill:none;opacity:0.5;stroke:#800080;stroke-linecap:round;stroke-width:2;"/>
    <path d="M 296.442198 135.290486 
L 294.742224 134.021594 
L 296.011116 132.32162 
" style="fill:none;opacity:0.5;stroke:#800080;stroke-linecap:round;stroke-width:2;"/>
    <path d="M 319.313951 128.938026 
L 321.013925 130.206918 
L 319.745033 131.906892 
" style="fill:none;opacity:0.5;stroke:#800080;stroke-linecap:round;stroke-width:2;"/>
   </g>
   <g id="patch_84">
    <path d="M 231.518379 49.520587 
Q 197.92435 73.997853 164.33032 98.475118 
" style="fill:none;opacity:0.5;stroke:#008000;stroke-linecap:round;stroke-width:2;"/>
   </g>
   <g id="patch_85">
    <path d="M 231.433101 49.423297 
Q 232.177545 50.272606 232.921989 51.121916 
" style="fill:none;opacity:0.5;stroke:#800080;stroke-linecap:round;stroke-width:2;"/>
    <path d="M 231.572379 47.306553 
L 231.433101 49.423297 
L 229.316358 49.284019 
" style="fill:none;opacity:0.5;stroke:#800080;stroke-linecap:round;stroke-width:2;"/>
    <path d="M 232.782712 53.238659 
L 232.921989 51.121916 
L 235.038732 51.261194 
" style="fill:none;opacity:0.5;stroke:#800080;stroke-linecap:round;stroke-width:2;"/>
   </g>
   <g id="patch_86">
    <path d="M 164.33032 98.475118 
Q 202.441194 129.876873 240.552068 161.278628 
" style="fill:none;opacity:0.5;stroke:#008000;stroke-linecap:round;stroke-width:2;"/>
   </g>
   <g id="patch_87">
    <path d="M 176.749325 98.185967 
Q 165.331647 98.451804 153.913968 98.717641 
" style="fill:none;opacity:0.5;stroke:#800080;stroke-linecap:round;stroke-width:2;"/>
    <path d="M 175.214817 96.721288 
L 176.749325 98.185967 
L 175.284646 99.720475 
" style="fill:none;opacity:0.5;stroke:#800080;stroke-linecap:round;stroke-width:2;"/>
    <path d="M 155.448477 100.18232 
L 153.913968 98.717641 
L 155.378647 97.183133 
" style="fill:none;opacity:0.5;stroke:#800080;stroke-linecap:round;stroke-width:2;"/>
   </g>
   <g id="patch_88">
    <path d="M 240.552068 161.278628 
Q 253.820298 160.956559 267.088529 160.634489 
" style="fill:none;opacity:0.5;stroke:#008000;stroke-linecap:round;stroke-width:2;"/>
   </g>
   <g id="patch_89">
    <path d="M 241.667527 162.733013 
Q 241.160921 162.072478 240.654316 161.411943 
" style="fill:none;opacity:0.5;stroke:#800080;stroke-linecap:round;stroke-width:2;"/>
    <path d="M 241.944898 160.629905 
L 241.667527 162.733013 
L 239.564418 162.455642 
" style="fill:none;opacity:0.5;stroke:#800080;stroke-linecap:round;stroke-width:2;"/>
    <path d="M 240.376945 163.515052 
L 240.654316 161.411943 
L 242.757424 161.689314 
" style="fill:none;opacity:0.5;stroke:#800080;stroke-linecap:round;stroke-width:2;"/>
   </g>
   <g id="patch_90">
    <path d="M 267.088529 160.634489 
Q 269.064648 166.431736 271.040767 172.228984 
" style="fill:none;opacity:0.5;stroke:#008000;stroke-linecap:round;stroke-width:2;"/>
   </g>
   <g id="patch_91">
    <path d="M 259.664332 163.366749 
Q 266.150575 160.979676 272.636817 158.592603 
" style="fill:none;opacity:0.5;stroke:#800080;stroke-linecap:round;stroke-width:2;"/>
    <path d="M 261.590092 164.256384 
L 259.664332 163.366749 
L 260.553968 161.440989 
" style="fill:none;opacity:0.5;stroke:#800080;stroke-linecap:round;stroke-width:2;"/>
    <path d="M 270.711058 157.702968 
L 272.636817 158.592603 
L 271.747182 160.518363 
" style="fill:none;opacity:0.5;stroke:#800080;stroke-linecap:round;stroke-width:2;"/>
   </g>
   <g id="patch_92">
    <path d="M 271.040767 172.228984 
Q 233.494499 179.636577 195.94823 187.04417 
" style="fill:none;opacity:0.5;stroke:#008000;stroke-linecap:round;stroke-width:2;"/>
   </g>
   <g id="patch_93">
    <path d="M 265.125357 176.548141 
Q 270.232662 172.819024 275.339967 169.089908 
" style="fill:none;opacity:0.5;stroke:#800080;stroke-linecap:round;stroke-width:2;"/>
    <path d="M 267.221337 176.875045 
L 265.125357 176.548141 
L 265.45226 174.452161 
" style="fill:none;opacity:0.5;stroke:#800080;stroke-linecap:round;stroke-width:2;"/>
    <path d="M 273.243987 168.763004 
L 275.339967 169.089908 
L 275.013064 171.185888 
" style="fill:none;opacity:0.5;stroke:#800080;stroke-linecap:round;stroke-width:2;"/>
   </g>
   <g id="line2d_1">
    <path clip-path="url(#p1d795169ed)" d="M 189.455266 191.55314 
L 58.46678 120.697898 
L 235.752921 28.586084 
L 426.589595 133.58067 
L 85.567846 305.565666 
L 79.921791 285.597371 
L 293.342686 134.224808 
L 232.365288 50.486795 
L 178.163155 98.153049 
L 242.528188 163.855182 
L 258.337143 163.855182 
L 263.983198 177.382092 
" style="fill:none;stroke:#ff0000;stroke-linecap:square;stroke-width:0.2;"/>
   </g>
   <g id="line2d_2">
    <path clip-path="url(#p1d795169ed)" d="M 210.345671 261.764244 
L 324.395991 129.715838 
L 230.671471 48.554379 
L 150.497484 98.797187 
L 238.575949 158.702074 
L 275.839915 157.413797 
L 278.098337 167.075875 
L 202.441194 182.535201 
L 77.098763 115.54479 
L 246.480426 31.806777 
L 407.957612 138.08964 
L 286.002814 263.052521 
L 97.424563 302.344973 
L 91.778507 289.462202 
" style="fill:none;stroke:#0000ff;stroke-linecap:square;stroke-width:0.2;"/>
   </g>
  </g>
 </g>
 <defs>
  <clipPath id="p1d795169ed">
   <rect height="307.51175" width="409.903625" x="37.576375" y="13.32"/>
  </clipPath>
 </defs>
</svg>
