<?xml version="1.0" encoding="utf-8" standalone="no"?>
<!DOCTYPE svg PUBLIC "-//W3C//DTD SVG 1.1//EN"
  "http://www.w3.org/Graphics/SVG/1.1/DTD/svg11.dtd">
<!-- Created with matplotlib (http://matplotlib.org/) -->
<svg height="345.6pt" version="1.1" viewBox="0 0 460.8 345.6" width="460.8pt" xmlns="http://www.w3.org/2000/svg" xmlns:xlink="http://www.w3.org/1999/xlink">
 <defs>
  <style type="text/css">
*{stroke-linecap:butt;stroke-linejoin:round;}
  </style>
 </defs>
 <g id="figure_1">
  <g id="patch_1">
   <path d="M 0 345.6 
L 460.8 345.6 
L 460.8 0 
L 0 0 
z
" style="fill:#ffffff;"/>
  </g>
  <g id="axes_1">
   <g id="patch_2">
    <path clip-path="url(#p22cba3ec93)" d="M 243.822075 36.202696 
C 244.09659 36.202696 244.359898 36.122358 244.554009 35.979375 
C 244.74812 35.836392 244.857185 35.642438 244.857185 35.440229 
C 244.857185 35.23802 244.74812 35.044066 244.554009 34.901083 
C 244.359898 34.7581 244.09659 34.677762 243.822075 34.677762 
C 243.547561 34.677762 243.284253 34.7581 243.090142 34.901083 
C 242.896031 35.044066 242.786965 35.23802 242.786965 35.440229 
C 242.786965 35.642438 242.896031 35.836392 243.090142 35.979375 
C 243.284253 36.122358 243.547561 36.202696 243.822075 36.202696 
z
" style="fill:#ff0000;opacity:0.2;stroke:#ff0000;stroke-linejoin:miter;stroke-width:2;"/>
   </g>
   <g id="patch_3">
    <path clip-path="url(#p22cba3ec93)" d="M 425.483909 166.965843 
C 425.758423 166.965843 426.021731 166.885505 426.215842 166.742522 
C 426.409953 166.599539 426.519019 166.405585 426.519019 166.203376 
C 426.519019 166.001167 426.409953 165.807213 426.215842 165.66423 
C 426.021731 165.521247 425.758423 165.440909 425.483909 165.440909 
C 425.209395 165.440909 424.946087 165.521247 424.751976 165.66423 
C 424.557865 165.807213 424.448799 166.001167 424.448799 166.203376 
C 424.448799 166.405585 424.557865 166.599539 424.751976 166.742522 
C 424.946087 166.885505 425.209395 166.965843 425.483909 166.965843 
z
" style="fill:#ff0000;opacity:0.2;stroke:#ff0000;stroke-linejoin:miter;stroke-width:2;"/>
   </g>
   <g id="patch_4">
    <path clip-path="url(#p22cba3ec93)" d="M 238.646524 300.016392 
C 238.921039 300.016392 239.184347 299.936054 239.378458 299.79307 
C 239.572569 299.650087 239.681635 299.456133 239.681635 299.253925 
C 239.681635 299.051716 239.572569 298.857762 239.378458 298.714779 
C 239.184347 298.571796 238.921039 298.491457 238.646524 298.491457 
C 238.37201 298.491457 238.108702 298.571796 237.914591 298.714779 
C 237.72048 298.857762 237.611414 299.051716 237.611414 299.253925 
C 237.611414 299.456133 237.72048 299.650087 237.914591 299.79307 
C 238.108702 299.936054 238.37201 300.016392 238.646524 300.016392 
z
" style="fill:#ff0000;opacity:0.2;stroke:#ff0000;stroke-linejoin:miter;stroke-width:2;"/>
   </g>
   <g id="patch_5">
    <path clip-path="url(#p22cba3ec93)" d="M 59.054911 170.015713 
C 59.329425 170.015713 59.592733 169.935374 59.786844 169.792391 
C 59.980955 169.649408 60.090021 169.455454 60.090021 169.253245 
C 60.090021 169.051036 59.980955 168.857083 59.786844 168.714099 
C 59.592733 168.571116 59.329425 168.490778 59.054911 168.490778 
C 58.780396 168.490778 58.517089 168.571116 58.322977 168.714099 
C 58.128866 168.857083 58.019801 169.051036 58.019801 169.253245 
C 58.019801 169.455454 58.128866 169.649408 58.322977 169.792391 
C 58.517089 169.935374 58.780396 170.015713 59.054911 170.015713 
z
" style="fill:#ff0000;opacity:0.2;stroke:#ff0000;stroke-linejoin:miter;stroke-width:2;"/>
   </g>
   <g id="patch_6">
    <path clip-path="url(#p22cba3ec93)" d="M 244.598408 300.016392 
C 244.872922 300.016392 245.13623 299.936054 245.330341 299.79307 
C 245.524452 299.650087 245.633518 299.456133 245.633518 299.253925 
C 245.633518 299.051716 245.524452 298.857762 245.330341 298.714779 
C 245.13623 298.571796 244.872922 298.491457 244.598408 298.491457 
C 244.323893 298.491457 244.060585 298.571796 243.866474 298.714779 
C 243.672363 298.857762 243.563298 299.051716 243.563298 299.253925 
C 243.563298 299.456133 243.672363 299.650087 243.866474 299.79307 
C 244.060585 299.936054 244.323893 300.016392 244.598408 300.016392 
z
" style="fill:#0000ff;opacity:0.2;stroke:#0000ff;stroke-linejoin:miter;stroke-width:2;"/>
   </g>
   <g id="patch_7">
    <path clip-path="url(#p22cba3ec93)" d="M 60.348799 170.77818 
C 60.623313 170.77818 60.886621 170.697841 61.080732 170.554858 
C 61.274843 170.411875 61.383909 170.217921 61.383909 170.015713 
C 61.383909 169.813504 61.274843 169.61955 61.080732 169.476567 
C 60.886621 169.333584 60.623313 169.253245 60.348799 169.253245 
C 60.074284 169.253245 59.810976 169.333584 59.616865 169.476567 
C 59.422754 169.61955 59.313688 169.813504 59.313688 170.015713 
C 59.313688 170.217921 59.422754 170.411875 59.616865 170.554858 
C 59.810976 170.697841 60.074284 170.77818 60.348799 170.77818 
z
" style="fill:#0000ff;opacity:0.2;stroke:#0000ff;stroke-linejoin:miter;stroke-width:2;"/>
   </g>
   <g id="patch_8">
    <path clip-path="url(#p22cba3ec93)" d="M 244.598408 36.202696 
C 244.872922 36.202696 245.13623 36.122358 245.330341 35.979375 
C 245.524452 35.836392 245.633518 35.642438 245.633518 35.440229 
C 245.633518 35.23802 245.524452 35.044066 245.330341 34.901083 
C 245.13623 34.7581 244.872922 34.677762 244.598408 34.677762 
C 244.323893 34.677762 244.060585 34.7581 243.866474 34.901083 
C 243.672363 35.044066 243.563298 35.23802 243.563298 35.440229 
C 243.563298 35.642438 243.672363 35.836392 243.866474 35.979375 
C 244.060585 36.122358 244.323893 36.202696 244.598408 36.202696 
z
" style="fill:#0000ff;opacity:0.2;stroke:#0000ff;stroke-linejoin:miter;stroke-width:2;"/>
   </g>
   <g id="patch_9">
    <path clip-path="url(#p22cba3ec93)" d="M 424.190021 166.965843 
C 424.464536 166.965843 424.727844 166.885505 424.921955 166.742522 
C 425.116066 166.599539 425.225131 166.405585 425.225131 166.203376 
C 425.225131 166.001167 425.116066 165.807213 424.921955 165.66423 
C 424.727844 165.521247 424.464536 165.440909 424.190021 165.440909 
C 423.915507 165.440909 423.652199 165.521247 423.458088 165.66423 
C 423.263977 165.807213 423.154911 166.001167 423.154911 166.203376 
C 423.154911 166.405585 423.263977 166.599539 423.458088 166.742522 
C 423.652199 166.885505 423.915507 166.965843 424.190021 166.965843 
z
" style="fill:#0000ff;opacity:0.2;stroke:#0000ff;stroke-linejoin:miter;stroke-width:2;"/>
   </g>
   <g id="patch_10">
    <path clip-path="url(#p22cba3ec93)" d="M 243.822075 35.440229 
C 351.473532 35.440229 425.483909 88.812942 425.483909 166.203376 
C 425.483909 249.312315 349.920867 299.253925 238.646524 299.253925 
C 134.617953 299.253925 59.054911 248.931081 59.054911 169.253245 
C 59.054911 93.76898 135.653063 35.440229 243.822075 35.440229 
" style="fill:none;stroke:#ff0000;stroke-linejoin:miter;stroke-width:0.5;"/>
   </g>
   <g id="patch_11">
    <path clip-path="url(#p22cba3ec93)" d="M 244.598408 299.253925 
C 129.70118 299.253925 60.348799 238.637772 60.348799 170.015713 
C 60.348799 93.76898 137.982061 35.440229 244.598408 35.440229 
C 364.153632 35.440229 424.190021 99.106251 424.190021 166.203376 
C 424.190021 243.212576 344.486539 299.253925 244.598408 299.253925 
" style="fill:none;stroke:#0000ff;stroke-linejoin:miter;stroke-width:0.5;"/>
   </g>
   <g id="[&quot;g_s&quot;:1,&quot;g_t&quot;:3,&quot;coords&quot;:[[447.0, -24.0],[448.5, -24.0]],&quot;certainty&quot;:11]">
    <path clip-path="url(#p22cba3ec93)" d="M 243.822075 37.727631 
C 244.645618 37.727631 245.435542 37.486616 246.017875 37.057667 
C 246.600208 36.628717 246.927406 36.046855 246.927406 35.440229 
C 246.927406 34.833603 246.600208 34.251741 246.017875 33.822792 
C 245.435542 33.393842 244.645618 33.152827 243.822075 33.152827 
C 242.998532 33.152827 242.208608 33.393842 241.626275 33.822792 
C 241.043942 34.251741 240.716745 34.833603 240.716745 35.440229 
C 240.716745 36.046855 241.043942 36.628717 241.626275 37.057667 
C 242.208608 37.486616 242.998532 37.727631 243.822075 37.727631 
z
" style="fill:#0000ff;opacity:0.2;stroke:#0000ff;stroke-linejoin:miter;stroke-width:2;"/>
   </g>
   <g id="[&quot;g_s&quot;:3,&quot;g_t&quot;:1,&quot;coords&quot;:[[448.5, -24.0],[447.0, -24.0]],&quot;certainty&quot;:11]">
    <path clip-path="url(#p22cba3ec93)" d="M 244.598408 37.727631 
C 245.421951 37.727631 246.211875 37.486616 246.794208 37.057667 
C 247.376541 36.628717 247.703738 36.046855 247.703738 35.440229 
C 247.703738 34.833603 247.376541 34.251741 246.794208 33.822792 
C 246.211875 33.393842 245.421951 33.152827 244.598408 33.152827 
C 243.774865 33.152827 242.984941 33.393842 242.402608 33.822792 
C 241.820275 34.251741 241.493077 34.833603 241.493077 35.440229 
C 241.493077 36.046855 241.820275 36.628717 242.402608 37.057667 
C 242.984941 37.486616 243.774865 37.727631 244.598408 37.727631 
z
" style="fill:#ff0000;opacity:0.2;stroke:#ff0000;stroke-linejoin:miter;stroke-width:2;"/>
   </g>
   <g id="patch_12">
    <path d="M 243.822075 35.440229 
Q 244.210242 35.440229 242.477087 35.440229 
" style="fill:none;opacity:0.5;stroke:#0000ff;stroke-linecap:round;stroke-width:3;"/>
    <path d="M 240.977087 33.940229 
L 242.477087 35.440229 
L 240.977087 36.940229 
" style="fill:none;opacity:0.5;stroke:#0000ff;stroke-linecap:round;stroke-width:3;"/>
   </g>
   <g id="[&quot;g_s&quot;:2,&quot;g_t&quot;:4,&quot;coords&quot;:[[798.0, -367.0],[795.5, -367.0]],&quot;certainty&quot;:12]">
    <path clip-path="url(#p22cba3ec93)" d="M 425.483909 168.681395 
C 426.376081 168.681395 427.231832 168.420295 427.862693 167.9556 
C 428.493553 167.490905 428.848017 166.860554 428.848017 166.203376 
C 428.848017 165.546198 428.493553 164.915847 427.862693 164.451152 
C 427.231832 163.986457 426.376081 163.725357 425.483909 163.725357 
C 424.591737 163.725357 423.735986 163.986457 423.105125 164.451152 
C 422.474265 164.915847 422.119801 165.546198 422.119801 166.203376 
C 422.119801 166.860554 422.474265 167.490905 423.105125 167.9556 
C 423.735986 168.420295 424.591737 168.681395 425.483909 168.681395 
z
" style="fill:#0000ff;opacity:0.2;stroke:#0000ff;stroke-linejoin:miter;stroke-width:2;"/>
   </g>
   <g id="[&quot;g_s&quot;:4,&quot;g_t&quot;:2,&quot;coords&quot;:[[795.5, -367.0],[798.0, -367.0]],&quot;certainty&quot;:12]">
    <path clip-path="url(#p22cba3ec93)" d="M 424.190021 168.681395 
C 425.082193 168.681395 425.937944 168.420295 426.568805 167.9556 
C 427.199666 167.490905 427.554129 166.860554 427.554129 166.203376 
C 427.554129 165.546198 427.199666 164.915847 426.568805 164.451152 
C 425.937944 163.986457 425.082193 163.725357 424.190021 163.725357 
C 423.297849 163.725357 422.442098 163.986457 421.811238 164.451152 
C 421.180377 164.915847 420.825913 165.546198 420.825913 166.203376 
C 420.825913 166.860554 421.180377 167.490905 421.811238 167.9556 
C 422.442098 168.420295 423.297849 168.681395 424.190021 168.681395 
z
" style="fill:#ff0000;opacity:0.2;stroke:#ff0000;stroke-linejoin:miter;stroke-width:2;"/>
   </g>
   <g id="patch_13">
    <path d="M 425.483909 166.203376 
Q 424.836965 166.203376 426.488118 166.203376 
" style="fill:none;opacity:0.5;stroke:#0000ff;stroke-linecap:round;stroke-width:3.25;"/>
    <path d="M 427.988118 167.703376 
L 426.488118 166.203376 
L 427.988118 164.703376 
" style="fill:none;opacity:0.5;stroke:#0000ff;stroke-linecap:round;stroke-width:3.25;"/>
   </g>
   <g id="[&quot;g_s&quot;:3,&quot;g_t&quot;:1,&quot;coords&quot;:[[437.0, -716.0],[448.5, -716.0]],&quot;certainty&quot;:11]">
    <path clip-path="url(#p22cba3ec93)" d="M 238.646524 301.541327 
C 239.470068 301.541327 240.259992 301.300311 240.842325 300.871362 
C 241.424658 300.442413 241.751855 299.860551 241.751855 299.253925 
C 241.751855 298.647299 241.424658 298.065437 240.842325 297.636487 
C 240.259992 297.207538 239.470068 296.966523 238.646524 296.966523 
C 237.822981 296.966523 237.033057 297.207538 236.450724 297.636487 
C 235.868391 298.065437 235.541194 298.647299 235.541194 299.253925 
C 235.541194 299.860551 235.868391 300.442413 236.450724 300.871362 
C 237.033057 301.300311 237.822981 301.541327 238.646524 301.541327 
z
" style="fill:#0000ff;opacity:0.2;stroke:#0000ff;stroke-linejoin:miter;stroke-width:2;"/>
   </g>
   <g id="[&quot;g_s&quot;:1,&quot;g_t&quot;:3,&quot;coords&quot;:[[448.5, -716.0],[437.0, -716.0]],&quot;certainty&quot;:11]">
    <path clip-path="url(#p22cba3ec93)" d="M 244.598408 301.541327 
C 245.421951 301.541327 246.211875 301.300311 246.794208 300.871362 
C 247.376541 300.442413 247.703738 299.860551 247.703738 299.253925 
C 247.703738 298.647299 247.376541 298.065437 246.794208 297.636487 
C 246.211875 297.207538 245.421951 296.966523 244.598408 296.966523 
C 243.774865 296.966523 242.984941 297.207538 242.402608 297.636487 
C 241.820275 298.065437 241.493077 298.647299 241.493077 299.253925 
C 241.493077 299.860551 241.820275 300.442413 242.402608 300.871362 
C 242.984941 301.300311 243.774865 301.541327 244.598408 301.541327 
z
" style="fill:#ff0000;opacity:0.2;stroke:#ff0000;stroke-linejoin:miter;stroke-width:2;"/>
   </g>
   <g id="patch_14">
    <path d="M 238.646524 299.253925 
Q 240.621283 299.253925 240.47472 299.253925 
" style="fill:none;opacity:0.5;stroke:#0000ff;stroke-linecap:round;stroke-width:3;"/>
    <path d="M 238.97472 297.753925 
L 240.47472 299.253925 
L 238.97472 300.753925 
" style="fill:none;opacity:0.5;stroke:#0000ff;stroke-linecap:round;stroke-width:3;"/>
   </g>
   <g id="[&quot;g_s&quot;:4,&quot;g_t&quot;:2,&quot;coords&quot;:[[90.0, -375.0],[92.5, -377.0]],&quot;certainty&quot;:10]">
    <path clip-path="url(#p22cba3ec93)" d="M 59.054911 171.35003 
C 59.809826 171.35003 60.533923 171.1291 61.067728 170.735896 
C 61.601533 170.342693 61.901464 169.809319 61.901464 169.253245 
C 61.901464 168.697171 61.601533 168.163798 61.067728 167.770594 
C 60.533923 167.377391 59.809826 167.15646 59.054911 167.15646 
C 58.299996 167.15646 57.575899 167.377391 57.042094 167.770594 
C 56.508289 168.163798 56.208358 168.697171 56.208358 169.253245 
C 56.208358 169.809319 56.508289 170.342693 57.042094 170.735896 
C 57.575899 171.1291 58.299996 171.35003 59.054911 171.35003 
z
" style="fill:#0000ff;opacity:0.2;stroke:#0000ff;stroke-linejoin:miter;stroke-width:2;"/>
   </g>
   <g id="[&quot;g_s&quot;:2,&quot;g_t&quot;:4,&quot;coords&quot;:[[92.5, -377.0],[90.0, -375.0]],&quot;certainty&quot;:10]">
    <path clip-path="url(#p22cba3ec93)" d="M 60.348799 172.112498 
C 61.103713 172.112498 61.82781 171.891567 62.361616 171.498364 
C 62.895421 171.10516 63.195352 170.571786 63.195352 170.015713 
C 63.195352 169.459639 62.895421 168.926265 62.361616 168.533062 
C 61.82781 168.139858 61.103713 167.918927 60.348799 167.918927 
C 59.593884 167.918927 58.869787 168.139858 58.335982 168.533062 
C 57.802176 168.926265 57.502246 169.459639 57.502246 170.015713 
C 57.502246 170.571786 57.802176 171.10516 58.335982 171.498364 
C 58.869787 171.891567 59.593884 172.112498 60.348799 172.112498 
z
" style="fill:#ff0000;opacity:0.2;stroke:#ff0000;stroke-linejoin:miter;stroke-width:2;"/>
   </g>
   <g id="patch_15">
    <path d="M 59.054911 169.253245 
Q 59.701855 169.634479 58.673498 169.028485 
" style="fill:none;opacity:0.5;stroke:#0000ff;stroke-linecap:round;stroke-width:2.75;"/>
    <path d="M 58.142726 166.974639 
L 58.673498 169.028485 
L 56.619653 169.559257 
" style="fill:none;opacity:0.5;stroke:#0000ff;stroke-linecap:round;stroke-width:2.75;"/>
   </g>
   <g id="[&quot;g_s&quot;:1,&quot;g_t&quot;:3,&quot;coords&quot;:[[448.5, -716.0],[437.0, -716.0]],&quot;certainty&quot;:11]">
    <path clip-path="url(#p22cba3ec93)" d="M 244.598408 301.541327 
C 245.421951 301.541327 246.211875 301.300311 246.794208 300.871362 
C 247.376541 300.442413 247.703738 299.860551 247.703738 299.253925 
C 247.703738 298.647299 247.376541 298.065437 246.794208 297.636487 
C 246.211875 297.207538 245.421951 296.966523 244.598408 296.966523 
C 243.774865 296.966523 242.984941 297.207538 242.402608 297.636487 
C 241.820275 298.065437 241.493077 298.647299 241.493077 299.253925 
C 241.493077 299.860551 241.820275 300.442413 242.402608 300.871362 
C 242.984941 301.300311 243.774865 301.541327 244.598408 301.541327 
z
" style="fill:#0000ff;opacity:0.2;stroke:#0000ff;stroke-linejoin:miter;stroke-width:2;"/>
   </g>
   <g id="[&quot;g_s&quot;:3,&quot;g_t&quot;:1,&quot;coords&quot;:[[437.0, -716.0],[448.5, -716.0]],&quot;certainty&quot;:11]">
    <path clip-path="url(#p22cba3ec93)" d="M 238.646524 301.541327 
C 239.470068 301.541327 240.259992 301.300311 240.842325 300.871362 
C 241.424658 300.442413 241.751855 299.860551 241.751855 299.253925 
C 241.751855 298.647299 241.424658 298.065437 240.842325 297.636487 
C 240.259992 297.207538 239.470068 296.966523 238.646524 296.966523 
C 237.822981 296.966523 237.033057 297.207538 236.450724 297.636487 
C 235.868391 298.065437 235.541194 298.647299 235.541194 299.253925 
C 235.541194 299.860551 235.868391 300.442413 236.450724 300.871362 
C 237.033057 301.300311 237.822981 301.541327 238.646524 301.541327 
z
" style="fill:#ff0000;opacity:0.2;stroke:#ff0000;stroke-linejoin:miter;stroke-width:2;"/>
   </g>
   <g id="patch_16">
    <path d="M 244.598408 299.253925 
Q 242.62365 299.253925 242.770212 299.253925 
" style="fill:none;opacity:0.5;stroke:#ff0000;stroke-linecap:round;stroke-width:3;"/>
    <path d="M 244.270212 300.753925 
L 242.770212 299.253925 
L 244.270212 297.753925 
" style="fill:none;opacity:0.5;stroke:#ff0000;stroke-linecap:round;stroke-width:3;"/>
   </g>
   <g id="[&quot;g_s&quot;:2,&quot;g_t&quot;:4,&quot;coords&quot;:[[92.5, -377.0],[90.0, -375.0]],&quot;certainty&quot;:10]">
    <path clip-path="url(#p22cba3ec93)" d="M 60.348799 172.112498 
C 61.103713 172.112498 61.82781 171.891567 62.361616 171.498364 
C 62.895421 171.10516 63.195352 170.571786 63.195352 170.015713 
C 63.195352 169.459639 62.895421 168.926265 62.361616 168.533062 
C 61.82781 168.139858 61.103713 167.918927 60.348799 167.918927 
C 59.593884 167.918927 58.869787 168.139858 58.335982 168.533062 
C 57.802176 168.926265 57.502246 169.459639 57.502246 170.015713 
C 57.502246 170.571786 57.802176 171.10516 58.335982 171.498364 
C 58.869787 171.891567 59.593884 172.112498 60.348799 172.112498 
z
" style="fill:#0000ff;opacity:0.2;stroke:#0000ff;stroke-linejoin:miter;stroke-width:2;"/>
   </g>
   <g id="[&quot;g_s&quot;:4,&quot;g_t&quot;:2,&quot;coords&quot;:[[90.0, -375.0],[92.5, -377.0]],&quot;certainty&quot;:10]">
    <path clip-path="url(#p22cba3ec93)" d="M 59.054911 171.35003 
C 59.809826 171.35003 60.533923 171.1291 61.067728 170.735896 
C 61.601533 170.342693 61.901464 169.809319 61.901464 169.253245 
C 61.901464 168.697171 61.601533 168.163798 61.067728 167.770594 
C 60.533923 167.377391 59.809826 167.15646 59.054911 167.15646 
C 58.299996 167.15646 57.575899 167.377391 57.042094 167.770594 
C 56.508289 168.163798 56.208358 168.697171 56.208358 169.253245 
C 56.208358 169.809319 56.508289 170.342693 57.042094 170.735896 
C 57.575899 171.1291 58.299996 171.35003 59.054911 171.35003 
z
" style="fill:#ff0000;opacity:0.2;stroke:#ff0000;stroke-linejoin:miter;stroke-width:2;"/>
   </g>
   <g id="patch_17">
    <path d="M 60.348799 170.015713 
Q 59.701855 169.634479 60.730211 170.240473 
" style="fill:none;opacity:0.5;stroke:#ff0000;stroke-linecap:round;stroke-width:2.75;"/>
    <path d="M 61.260983 172.294318 
L 60.730211 170.240473 
L 62.784057 169.709701 
" style="fill:none;opacity:0.5;stroke:#ff0000;stroke-linecap:round;stroke-width:2.75;"/>
   </g>
   <g id="[&quot;g_s&quot;:3,&quot;g_t&quot;:1,&quot;coords&quot;:[[448.5, -24.0],[447.0, -24.0]],&quot;certainty&quot;:12]">
    <path clip-path="url(#p22cba3ec93)" d="M 244.598408 37.918248 
C 245.49058 37.918248 246.346331 37.657148 246.977191 37.192453 
C 247.608052 36.727758 247.962516 36.097407 247.962516 35.440229 
C 247.962516 34.783051 247.608052 34.1527 246.977191 33.688005 
C 246.346331 33.22331 245.49058 32.96221 244.598408 32.96221 
C 243.706236 32.96221 242.850485 33.22331 242.219624 33.688005 
C 241.588763 34.1527 241.2343 34.783051 241.2343 35.440229 
C 241.2343 36.097407 241.588763 36.727758 242.219624 37.192453 
C 242.850485 37.657148 243.706236 37.918248 244.598408 37.918248 
z
" style="fill:#0000ff;opacity:0.2;stroke:#0000ff;stroke-linejoin:miter;stroke-width:2;"/>
   </g>
   <g id="[&quot;g_s&quot;:1,&quot;g_t&quot;:3,&quot;coords&quot;:[[447.0, -24.0],[448.5, -24.0]],&quot;certainty&quot;:12]">
    <path clip-path="url(#p22cba3ec93)" d="M 243.822075 37.918248 
C 244.714247 37.918248 245.569998 37.657148 246.200859 37.192453 
C 246.83172 36.727758 247.186183 36.097407 247.186183 35.440229 
C 247.186183 34.783051 246.83172 34.1527 246.200859 33.688005 
C 245.569998 33.22331 244.714247 32.96221 243.822075 32.96221 
C 242.929903 32.96221 242.074152 33.22331 241.443292 33.688005 
C 240.812431 34.1527 240.457967 34.783051 240.457967 35.440229 
C 240.457967 36.097407 240.812431 36.727758 241.443292 37.192453 
C 242.074152 37.657148 242.929903 37.918248 243.822075 37.918248 
z
" style="fill:#ff0000;opacity:0.2;stroke:#ff0000;stroke-linejoin:miter;stroke-width:2;"/>
   </g>
   <g id="patch_18">
    <path d="M 244.598408 35.440229 
Q 244.210242 35.440229 246.120172 35.440229 
" style="fill:none;opacity:0.5;stroke:#ff0000;stroke-linecap:round;stroke-width:3.25;"/>
    <path d="M 247.620172 36.940229 
L 246.120172 35.440229 
L 247.620172 33.940229 
" style="fill:none;opacity:0.5;stroke:#ff0000;stroke-linecap:round;stroke-width:3.25;"/>
   </g>
   <g id="[&quot;g_s&quot;:4,&quot;g_t&quot;:2,&quot;coords&quot;:[[795.5, -367.0],[798.0, -367.0]],&quot;certainty&quot;:11]">
    <path clip-path="url(#p22cba3ec93)" d="M 424.190021 168.490778 
C 425.013565 168.490778 425.803489 168.249763 426.385822 167.820813 
C 426.968155 167.391864 427.295352 166.810002 427.295352 166.203376 
C 427.295352 165.59675 426.968155 165.014888 426.385822 164.585938 
C 425.803489 164.156989 425.013565 163.915974 424.190021 163.915974 
C 423.366478 163.915974 422.576554 164.156989 421.994221 164.585938 
C 421.411888 165.014888 421.084691 165.59675 421.084691 166.203376 
C 421.084691 166.810002 421.411888 167.391864 421.994221 167.820813 
C 422.576554 168.249763 423.366478 168.490778 424.190021 168.490778 
z
" style="fill:#0000ff;opacity:0.2;stroke:#0000ff;stroke-linejoin:miter;stroke-width:2;"/>
   </g>
   <g id="[&quot;g_s&quot;:2,&quot;g_t&quot;:4,&quot;coords&quot;:[[798.0, -367.0],[795.5, -367.0]],&quot;certainty&quot;:11]">
    <path clip-path="url(#p22cba3ec93)" d="M 425.483909 168.490778 
C 426.307452 168.490778 427.097376 168.249763 427.679709 167.820813 
C 428.262042 167.391864 428.58924 166.810002 428.58924 166.203376 
C 428.58924 165.59675 428.262042 165.014888 427.679709 164.585938 
C 427.097376 164.156989 426.307452 163.915974 425.483909 163.915974 
C 424.660366 163.915974 423.870442 164.156989 423.288109 164.585938 
C 422.705776 165.014888 422.378579 165.59675 422.378579 166.203376 
C 422.378579 166.810002 422.705776 167.391864 423.288109 167.820813 
C 423.870442 168.249763 424.660366 168.490778 425.483909 168.490778 
z
" style="fill:#ff0000;opacity:0.2;stroke:#ff0000;stroke-linejoin:miter;stroke-width:2;"/>
   </g>
   <g id="patch_19">
    <path d="M 424.190021 166.203376 
Q 424.836965 166.203376 423.362589 166.203376 
" style="fill:none;opacity:0.5;stroke:#ff0000;stroke-linecap:round;stroke-width:3;"/>
    <path d="M 421.862589 164.703376 
L 423.362589 166.203376 
L 421.862589 167.703376 
" style="fill:none;opacity:0.5;stroke:#ff0000;stroke-linecap:round;stroke-width:3;"/>
   </g>
   <g id="patch_20">
    <path clip-path="url(#p22cba3ec93)" d="M 244.210242 37.346397 
C 244.896528 37.346397 245.554798 37.145552 246.040075 36.788094 
C 246.525353 36.430636 246.798017 35.945751 246.798017 35.440229 
C 246.798017 34.934707 246.525353 34.449822 246.040075 34.092365 
C 245.554798 33.734907 244.896528 33.534061 244.210242 33.534061 
C 243.523955 33.534061 242.865686 33.734907 242.380408 34.092365 
C 241.89513 34.449822 241.622466 34.934707 241.622466 35.440229 
C 241.622466 35.945751 241.89513 36.430636 242.380408 36.788094 
C 242.865686 37.145552 243.523955 37.346397 244.210242 37.346397 
z
" style="fill:#008000;opacity:0.2;stroke:#008000;stroke-linejoin:miter;stroke-width:2;"/>
   </g>
   <g id="patch_21">
    <path clip-path="url(#p22cba3ec93)" d="M 424.836965 168.109544 
C 425.523251 168.109544 426.181521 167.908698 426.666799 167.55124 
C 427.152076 167.193783 427.424741 166.708898 427.424741 166.203376 
C 427.424741 165.697854 427.152076 165.212969 426.666799 164.855511 
C 426.181521 164.498053 425.523251 164.297208 424.836965 164.297208 
C 424.150679 164.297208 423.492409 164.498053 423.007132 164.855511 
C 422.521854 165.212969 422.24919 165.697854 422.24919 166.203376 
C 422.24919 166.708898 422.521854 167.193783 423.007132 167.55124 
C 423.492409 167.908698 424.150679 168.109544 424.836965 168.109544 
z
" style="fill:#008000;opacity:0.2;stroke:#008000;stroke-linejoin:miter;stroke-width:2;"/>
   </g>
   <g id="patch_22">
    <path clip-path="url(#p22cba3ec93)" d="M 241.622466 301.160093 
C 242.308752 301.160093 242.967022 300.959247 243.4523 300.601789 
C 243.937577 300.244331 244.210242 299.759446 244.210242 299.253925 
C 244.210242 298.748403 243.937577 298.263518 243.4523 297.90606 
C 242.967022 297.548602 242.308752 297.347756 241.622466 297.347756 
C 240.93618 297.347756 240.27791 297.548602 239.792633 297.90606 
C 239.307355 298.263518 239.034691 298.748403 239.034691 299.253925 
C 239.034691 299.759446 239.307355 300.244331 239.792633 300.601789 
C 240.27791 300.959247 240.93618 301.160093 241.622466 301.160093 
z
" style="fill:#008000;opacity:0.2;stroke:#008000;stroke-linejoin:miter;stroke-width:2;"/>
   </g>
   <g id="patch_23">
    <path clip-path="url(#p22cba3ec93)" d="M 59.701855 171.540647 
C 60.388141 171.540647 61.046411 171.339801 61.531688 170.982343 
C 62.016966 170.624886 62.28963 170.140001 62.28963 169.634479 
C 62.28963 169.128957 62.016966 168.644072 61.531688 168.286614 
C 61.046411 167.929156 60.388141 167.728311 59.701855 167.728311 
C 59.015569 167.728311 58.357299 167.929156 57.872021 168.286614 
C 57.386744 168.644072 57.114079 169.128957 57.114079 169.634479 
C 57.114079 170.140001 57.386744 170.624886 57.872021 170.982343 
C 58.357299 171.339801 59.015569 171.540647 59.701855 171.540647 
z
" style="fill:#008000;opacity:0.2;stroke:#008000;stroke-linejoin:miter;stroke-width:2;"/>
   </g>
   <g id="patch_24">
    <path clip-path="url(#p22cba3ec93)" d="M 243.822075 43.064902 
C 246.567219 43.064902 249.200299 42.261519 251.141409 40.831687 
C 253.082519 39.401856 254.173177 37.462316 254.173177 35.440229 
C 254.173177 33.418142 253.082519 31.478602 251.141409 30.048771 
C 249.200299 28.61894 246.567219 27.815556 243.822075 27.815556 
C 241.076931 27.815556 238.443851 28.61894 236.502741 30.048771 
C 234.561631 31.478602 233.470974 33.418142 233.470974 35.440229 
C 233.470974 37.462316 234.561631 39.401856 236.502741 40.831687 
C 238.443851 42.261519 241.076931 43.064902 243.822075 43.064902 
z
" style="fill:none;opacity:0.2;stroke:#ff0000;stroke-linejoin:miter;stroke-width:2;"/>
   </g>
   <g id="patch_25">
    <path clip-path="url(#p22cba3ec93)" d="M 244.598408 306.878598 
C 247.343552 306.878598 249.976632 306.075214 251.917742 304.645383 
C 253.858852 303.215551 254.949509 301.276012 254.949509 299.253925 
C 254.949509 297.231838 253.858852 295.292298 251.917742 293.862466 
C 249.976632 292.432635 247.343552 291.629251 244.598408 291.629251 
C 241.853264 291.629251 239.220184 292.432635 237.279074 293.862466 
C 235.337964 295.292298 234.247306 297.231838 234.247306 299.253925 
C 234.247306 301.276012 235.337964 303.215551 237.279074 304.645383 
C 239.220184 306.075214 241.853264 306.878598 244.598408 306.878598 
z
" style="fill:none;opacity:0.2;stroke:#0000ff;stroke-linejoin:miter;stroke-width:2;"/>
   </g>
   <g id="patch_26">
    <path clip-path="url(#p22cba3ec93)" d="M 243.822075 39.252566 
C 245.194647 39.252566 246.511187 38.850874 247.481742 38.135958 
C 248.452297 37.421043 248.997626 36.451273 248.997626 35.440229 
C 248.997626 34.429186 248.452297 33.459416 247.481742 32.7445 
C 246.511187 32.029584 245.194647 31.627892 243.822075 31.627892 
C 242.449503 31.627892 241.132963 32.029584 240.162408 32.7445 
C 239.191853 33.459416 238.646524 34.429186 238.646524 35.440229 
C 238.646524 36.451273 239.191853 37.421043 240.162408 38.135958 
C 241.132963 38.850874 242.449503 39.252566 243.822075 39.252566 
z
" style="fill:none;opacity:0.2;stroke:#008000;stroke-linejoin:miter;stroke-width:2;"/>
   </g>
   <g id="patch_27">
    <path clip-path="url(#p22cba3ec93)" d="M 244.598408 39.252566 
C 245.97098 39.252566 247.28752 38.850874 248.258075 38.135958 
C 249.22863 37.421043 249.773959 36.451273 249.773959 35.440229 
C 249.773959 34.429186 249.22863 33.459416 248.258075 32.7445 
C 247.28752 32.029584 245.97098 31.627892 244.598408 31.627892 
C 243.225836 31.627892 241.909296 32.029584 240.938741 32.7445 
C 239.968186 33.459416 239.422857 34.429186 239.422857 35.440229 
C 239.422857 36.451273 239.968186 37.421043 240.938741 38.135958 
C 241.909296 38.850874 243.225836 39.252566 244.598408 39.252566 
z
" style="fill:none;opacity:0.2;stroke:#008000;stroke-linejoin:miter;stroke-width:2;"/>
   </g>
   <g id="patch_28">
    <path d="M 244.210242 35.440229 
Q 334.523603 100.821803 424.836965 166.203376 
" style="fill:none;opacity:0.5;stroke:#008000;stroke-linecap:round;stroke-width:2;"/>
   </g>
   <g id="patch_29">
    <path d="M 245.236289 35.440229 
Q 244.210242 35.440229 243.184194 35.440229 
" style="fill:none;opacity:0.5;stroke:#800080;stroke-linecap:round;stroke-width:2;"/>
    <path d="M 246.736289 36.940229 
L 245.236289 35.440229 
L 246.736289 33.940229 
" style="fill:none;opacity:0.5;stroke:#800080;stroke-linecap:round;stroke-width:2;"/>
    <path d="M 241.684194 33.940229 
L 243.184194 35.440229 
L 241.684194 36.940229 
" style="fill:none;opacity:0.5;stroke:#800080;stroke-linecap:round;stroke-width:2;"/>
   </g>
   <g id="patch_30">
    <path d="M 424.836965 166.203376 
Q 333.229716 232.72865 241.622466 299.253925 
" style="fill:none;opacity:0.5;stroke:#008000;stroke-linecap:round;stroke-width:2;"/>
   </g>
   <g id="patch_31">
    <path d="M 424.069695 166.203376 
Q 424.836965 166.203376 425.604235 166.203376 
" style="fill:none;opacity:0.5;stroke:#800080;stroke-linecap:round;stroke-width:2;"/>
    <path d="M 422.569695 164.703376 
L 424.069695 166.203376 
L 422.569695 167.703376 
" style="fill:none;opacity:0.5;stroke:#800080;stroke-linecap:round;stroke-width:2;"/>
    <path d="M 427.104235 167.703376 
L 425.604235 166.203376 
L 427.104235 164.703376 
" style="fill:none;opacity:0.5;stroke:#800080;stroke-linecap:round;stroke-width:2;"/>
   </g>
   <g id="patch_32">
    <path d="M 241.622466 299.253925 
Q 150.66216 234.444202 59.701855 169.634479 
" style="fill:none;opacity:0.5;stroke:#008000;stroke-linecap:round;stroke-width:2;"/>
   </g>
   <g id="patch_33">
    <path d="M 240.060738 299.253925 
Q 240.621283 299.253925 241.181827 299.253925 
" style="fill:none;opacity:0.5;stroke:#800080;stroke-linecap:round;stroke-width:2;"/>
    <path d="M 241.560738 300.753925 
L 240.060738 299.253925 
L 241.560738 297.753925 
" style="fill:none;opacity:0.5;stroke:#800080;stroke-linecap:round;stroke-width:2;"/>
    <path d="M 239.681827 297.753925 
L 241.181827 299.253925 
L 239.681827 300.753925 
" style="fill:none;opacity:0.5;stroke:#800080;stroke-linecap:round;stroke-width:2;"/>
   </g>
   <g id="patch_34">
    <path d="M 59.701855 169.634479 
Q 151.956048 102.537354 244.210242 35.440229 
" style="fill:none;opacity:0.5;stroke:#008000;stroke-linecap:round;stroke-width:2;"/>
   </g>
   <g id="patch_35">
    <path d="M 60.273311 169.971229 
Q 59.701855 169.634479 59.130398 169.297729 
" style="fill:none;opacity:0.5;stroke:#800080;stroke-linecap:round;stroke-width:2;"/>
    <path d="M 60.804083 172.025074 
L 60.273311 169.971229 
L 62.327157 169.440457 
" style="fill:none;opacity:0.5;stroke:#800080;stroke-linecap:round;stroke-width:2;"/>
    <path d="M 58.599626 167.243883 
L 59.130398 169.297729 
L 57.076553 169.828501 
" style="fill:none;opacity:0.5;stroke:#800080;stroke-linecap:round;stroke-width:2;"/>
   </g>
   <g id="patch_36">
    <path clip-path="url(#p22cba3ec93)" d="M 342.675096 171.921881 
C 342.94961 171.921881 343.212918 171.841542 343.407029 171.698559 
C 343.60114 171.555576 343.710206 171.361622 343.710206 171.159414 
C 343.710206 170.957205 343.60114 170.763251 343.407029 170.620268 
C 343.212918 170.477285 342.94961 170.396946 342.675096 170.396946 
C 342.400581 170.396946 342.137273 170.477285 341.943162 170.620268 
C 341.749051 170.763251 341.639986 170.957205 341.639986 171.159414 
C 341.639986 171.361622 341.749051 171.555576 341.943162 171.698559 
C 342.137273 171.841542 342.400581 171.921881 342.675096 171.921881 
z
" style="fill:#ff0000;opacity:0.2;stroke:#ff0000;stroke-linejoin:miter;stroke-width:2;"/>
   </g>
   <g id="patch_37">
    <path clip-path="url(#p22cba3ec93)" d="M 248.480071 282.479643 
C 248.754585 282.479643 249.017893 282.399305 249.212004 282.256322 
C 249.406115 282.113339 249.515181 281.919385 249.515181 281.717176 
C 249.515181 281.514967 249.406115 281.321013 249.212004 281.17803 
C 249.017893 281.035047 248.754585 280.954709 248.480071 280.954709 
C 248.205557 280.954709 247.942249 281.035047 247.748138 281.17803 
C 247.554027 281.321013 247.444961 281.514967 247.444961 281.717176 
C 247.444961 281.919385 247.554027 282.113339 247.748138 282.256322 
C 247.942249 282.399305 248.205557 282.479643 248.480071 282.479643 
z
" style="fill:#ff0000;opacity:0.2;stroke:#ff0000;stroke-linejoin:miter;stroke-width:2;"/>
   </g>
   <g id="patch_38">
    <path clip-path="url(#p22cba3ec93)" d="M 141.863724 161.247338 
C 142.138238 161.247338 142.401546 161.167 142.595657 161.024017 
C 142.789768 160.881034 142.898834 160.68708 142.898834 160.484871 
C 142.898834 160.282662 142.789768 160.088708 142.595657 159.945725 
C 142.401546 159.802742 142.138238 159.722404 141.863724 159.722404 
C 141.58921 159.722404 141.325902 159.802742 141.131791 159.945725 
C 140.93768 160.088708 140.828614 160.282662 140.828614 160.484871 
C 140.828614 160.68708 140.93768 160.881034 141.131791 161.024017 
C 141.325902 161.167 141.58921 161.247338 141.863724 161.247338 
z
" style="fill:#ff0000;opacity:0.2;stroke:#ff0000;stroke-linejoin:miter;stroke-width:2;"/>
   </g>
   <g id="patch_39">
    <path clip-path="url(#p22cba3ec93)" d="M 239.681635 53.739445 
C 239.956149 53.739445 240.219457 53.659107 240.413568 53.516123 
C 240.607679 53.37314 240.716745 53.179186 240.716745 52.976978 
C 240.716745 52.774769 240.607679 52.580815 240.413568 52.437832 
C 240.219457 52.294849 239.956149 52.21451 239.681635 52.21451 
C 239.40712 52.21451 239.143812 52.294849 238.949701 52.437832 
C 238.75559 52.580815 238.646524 52.774769 238.646524 52.976978 
C 238.646524 53.179186 238.75559 53.37314 238.949701 53.516123 
C 239.143812 53.659107 239.40712 53.739445 239.681635 53.739445 
z
" style="fill:#ff0000;opacity:0.2;stroke:#ff0000;stroke-linejoin:miter;stroke-width:2;"/>
   </g>
   <g id="patch_40">
    <path clip-path="url(#p22cba3ec93)" d="M 251.326624 288.198148 
C 251.601138 288.198148 251.864446 288.11781 252.058557 287.974827 
C 252.252668 287.831844 252.361734 287.63789 252.361734 287.435681 
C 252.361734 287.233472 252.252668 287.039518 252.058557 286.896535 
C 251.864446 286.753552 251.601138 286.673214 251.326624 286.673214 
C 251.052109 286.673214 250.788801 286.753552 250.59469 286.896535 
C 250.400579 287.039518 250.291514 287.233472 250.291514 287.435681 
C 250.291514 287.63789 250.400579 287.831844 250.59469 287.974827 
C 250.788801 288.11781 251.052109 288.198148 251.326624 288.198148 
z
" style="fill:#0000ff;opacity:0.2;stroke:#0000ff;stroke-linejoin:miter;stroke-width:2;"/>
   </g>
   <g id="patch_41">
    <path clip-path="url(#p22cba3ec93)" d="M 112.104307 158.578703 
C 112.378821 158.578703 112.642129 158.498364 112.83624 158.355381 
C 113.030351 158.212398 113.139417 158.018444 113.139417 157.816235 
C 113.139417 157.614027 113.030351 157.420073 112.83624 157.277089 
C 112.642129 157.134106 112.378821 157.053768 112.104307 157.053768 
C 111.829792 157.053768 111.566484 157.134106 111.372373 157.277089 
C 111.178262 157.420073 111.069197 157.614027 111.069197 157.816235 
C 111.069197 158.018444 111.178262 158.212398 111.372373 158.355381 
C 111.566484 158.498364 111.829792 158.578703 112.104307 158.578703 
z
" style="fill:#0000ff;opacity:0.2;stroke:#0000ff;stroke-linejoin:miter;stroke-width:2;"/>
   </g>
   <g id="patch_42">
    <path clip-path="url(#p22cba3ec93)" d="M 235.799971 48.02094 
C 236.074486 48.02094 236.337794 47.940602 236.531905 47.797619 
C 236.726016 47.654635 236.835082 47.460681 236.835082 47.258473 
C 236.835082 47.056264 236.726016 46.86231 236.531905 46.719327 
C 236.337794 46.576344 236.074486 46.496005 235.799971 46.496005 
C 235.525457 46.496005 235.262149 46.576344 235.068038 46.719327 
C 234.873927 46.86231 234.764861 47.056264 234.764861 47.258473 
C 234.764861 47.460681 234.873927 47.654635 235.068038 47.797619 
C 235.262149 47.940602 235.525457 48.02094 235.799971 48.02094 
z
" style="fill:#0000ff;opacity:0.2;stroke:#0000ff;stroke-linejoin:miter;stroke-width:2;"/>
   </g>
   <g id="patch_43">
    <path clip-path="url(#p22cba3ec93)" d="M 372.434513 178.784087 
C 372.709028 178.784087 372.972336 178.703748 373.166447 178.560765 
C 373.360558 178.417782 373.469623 178.223828 373.469623 178.021619 
C 373.469623 177.819411 373.360558 177.625457 373.166447 177.482474 
C 372.972336 177.339491 372.709028 177.259152 372.434513 177.259152 
C 372.159999 177.259152 371.896691 177.339491 371.70258 177.482474 
C 371.508469 177.625457 371.399403 177.819411 371.399403 178.021619 
C 371.399403 178.223828 371.508469 178.417782 371.70258 178.560765 
C 371.896691 178.703748 372.159999 178.784087 372.434513 178.784087 
z
" style="fill:#0000ff;opacity:0.2;stroke:#0000ff;stroke-linejoin:miter;stroke-width:2;"/>
   </g>
   <g id="patch_44">
    <path clip-path="url(#p22cba3ec93)" d="M 342.675096 171.159414 
C 342.675096 232.919267 316.279787 281.717176 248.480071 281.717176 
C 164.118593 281.717176 141.863724 206.995378 141.863724 160.484871 
C 141.863724 96.818849 176.022359 52.976978 239.681635 52.976978 
C 303.858465 52.976978 342.675096 105.968457 342.675096 171.159414 
" style="fill:none;stroke:#ff0000;stroke-linejoin:miter;stroke-width:0.5;"/>
   </g>
   <g id="patch_45">
    <path clip-path="url(#p22cba3ec93)" d="M 251.326624 287.435681 
C 149.368273 287.435681 112.104307 214.238818 112.104307 157.816235 
C 112.104307 74.326063 181.974243 47.258473 235.799971 47.258473 
C 334.652992 47.258473 372.434513 115.118065 372.434513 178.021619 
C 372.434513 253.124651 313.433234 287.435681 251.326624 287.435681 
" style="fill:none;stroke:#0000ff;stroke-linejoin:miter;stroke-width:0.5;"/>
   </g>
   <g id="[&quot;g_s&quot;:1,&quot;g_t&quot;:4,&quot;coords&quot;:[[638.0, -380.0],[695.5, -398.0]],&quot;certainty&quot;:11]">
    <path clip-path="url(#p22cba3ec93)" d="M 342.675096 173.446815 
C 343.498639 173.446815 344.288563 173.2058 344.870896 172.776851 
C 345.453229 172.347902 345.780426 171.76604 345.780426 171.159414 
C 345.780426 170.552787 345.453229 169.970925 344.870896 169.541976 
C 344.288563 169.113027 343.498639 168.872012 342.675096 168.872012 
C 341.851553 168.872012 341.061629 169.113027 340.479296 169.541976 
C 339.896963 169.970925 339.569765 170.552787 339.569765 171.159414 
C 339.569765 171.76604 339.896963 172.347902 340.479296 172.776851 
C 341.061629 173.2058 341.851553 173.446815 342.675096 173.446815 
z
" style="fill:#0000ff;opacity:0.2;stroke:#0000ff;stroke-linejoin:miter;stroke-width:2;"/>
   </g>
   <g id="[&quot;g_s&quot;:4,&quot;g_t&quot;:1,&quot;coords&quot;:[[695.5, -398.0],[638.0, -380.0]],&quot;certainty&quot;:11]">
    <path clip-path="url(#p22cba3ec93)" d="M 372.434513 180.309021 
C 373.258056 180.309021 374.04798 180.068006 374.630313 179.639057 
C 375.212646 179.210107 375.539844 178.628246 375.539844 178.021619 
C 375.539844 177.414993 375.212646 176.833131 374.630313 176.404182 
C 374.04798 175.975233 373.258056 175.734217 372.434513 175.734217 
C 371.61097 175.734217 370.821046 175.975233 370.238713 176.404182 
C 369.65638 176.833131 369.329183 177.414993 369.329183 178.021619 
C 369.329183 178.628246 369.65638 179.210107 370.238713 179.639057 
C 370.821046 180.068006 371.61097 180.309021 372.434513 180.309021 
z
" style="fill:#ff0000;opacity:0.2;stroke:#ff0000;stroke-linejoin:miter;stroke-width:2;"/>
   </g>
   <g id="patch_46">
    <path d="M 342.675096 171.159414 
Q 356.579413 174.365602 368.416654 177.095144 
" style="fill:none;opacity:0.5;stroke:#0000ff;stroke-linecap:round;stroke-width:3;"/>
    <path d="M 367.292049 175.29646 
L 368.416654 177.095144 
L 366.61797 178.219748 
" style="fill:none;opacity:0.5;stroke:#0000ff;stroke-linecap:round;stroke-width:3;"/>
   </g>
   <g id="[&quot;g_s&quot;:2,&quot;g_t&quot;:1,&quot;coords&quot;:[[456.0, -670.0],[461.5, -685.0]],&quot;certainty&quot;:10]">
    <path clip-path="url(#p22cba3ec93)" d="M 248.480071 283.813961 
C 249.234986 283.813961 249.959083 283.593031 250.492888 283.199827 
C 251.026693 282.806623 251.326624 282.27325 251.326624 281.717176 
C 251.326624 281.161102 251.026693 280.627729 250.492888 280.234525 
C 249.959083 279.841321 249.234986 279.620391 248.480071 279.620391 
C 247.725156 279.620391 247.001059 279.841321 246.467254 280.234525 
C 245.933449 280.627729 245.633518 281.161102 245.633518 281.717176 
C 245.633518 282.27325 245.933449 282.806623 246.467254 283.199827 
C 247.001059 283.593031 247.725156 283.813961 248.480071 283.813961 
z
" style="fill:#0000ff;opacity:0.2;stroke:#0000ff;stroke-linejoin:miter;stroke-width:2;"/>
   </g>
   <g id="[&quot;g_s&quot;:1,&quot;g_t&quot;:2,&quot;coords&quot;:[[461.5, -685.0],[456.0, -670.0]],&quot;certainty&quot;:10]">
    <path clip-path="url(#p22cba3ec93)" d="M 251.326624 289.532466 
C 252.081539 289.532466 252.805636 289.311536 253.339441 288.918332 
C 253.873246 288.525128 254.173177 287.991755 254.173177 287.435681 
C 254.173177 286.879607 253.873246 286.346234 253.339441 285.95303 
C 252.805636 285.559826 252.081539 285.338896 251.326624 285.338896 
C 250.571709 285.338896 249.847612 285.559826 249.313807 285.95303 
C 248.780002 286.346234 248.480071 286.879607 248.480071 287.435681 
C 248.480071 287.991755 248.780002 288.525128 249.313807 288.918332 
C 249.847612 289.311536 250.571709 289.532466 251.326624 289.532466 
z
" style="fill:#ff0000;opacity:0.2;stroke:#ff0000;stroke-linejoin:miter;stroke-width:2;"/>
   </g>
   <g id="patch_47">
    <path d="M 248.480071 281.717176 
Q 249.457879 283.681516 249.569154 283.90506 
" style="fill:none;opacity:0.5;stroke:#0000ff;stroke-linecap:round;stroke-width:2.75;"/>
    <path d="M 250.243552 281.893795 
L 249.569154 283.90506 
L 247.557889 283.230662 
" style="fill:none;opacity:0.5;stroke:#0000ff;stroke-linecap:round;stroke-width:2.75;"/>
   </g>
   <g id="[&quot;g_s&quot;:3,&quot;g_t&quot;:2,&quot;coords&quot;:[[250.0, -352.0],[192.5, -345.0]],&quot;certainty&quot;:11]">
    <path clip-path="url(#p22cba3ec93)" d="M 141.863724 162.772273 
C 142.687267 162.772273 143.477191 162.531258 144.059524 162.102308 
C 144.641857 161.673359 144.969055 161.091497 144.969055 160.484871 
C 144.969055 159.878245 144.641857 159.296383 144.059524 158.867433 
C 143.477191 158.438484 142.687267 158.197469 141.863724 158.197469 
C 141.040181 158.197469 140.250257 158.438484 139.667924 158.867433 
C 139.085591 159.296383 138.758394 159.878245 138.758394 160.484871 
C 138.758394 161.091497 139.085591 161.673359 139.667924 162.102308 
C 140.250257 162.531258 141.040181 162.772273 141.863724 162.772273 
z
" style="fill:#0000ff;opacity:0.2;stroke:#0000ff;stroke-linejoin:miter;stroke-width:2;"/>
   </g>
   <g id="[&quot;g_s&quot;:2,&quot;g_t&quot;:3,&quot;coords&quot;:[[192.5, -345.0],[250.0, -352.0]],&quot;certainty&quot;:11]">
    <path clip-path="url(#p22cba3ec93)" d="M 112.104307 160.103637 
C 112.92785 160.103637 113.717774 159.862622 114.300107 159.433673 
C 114.88244 159.004723 115.209637 158.422861 115.209637 157.816235 
C 115.209637 157.209609 114.88244 156.627747 114.300107 156.198798 
C 113.717774 155.769848 112.92785 155.528833 112.104307 155.528833 
C 111.280764 155.528833 110.49084 155.769848 109.908507 156.198798 
C 109.326174 156.627747 108.998976 157.209609 108.998976 157.816235 
C 108.998976 158.422861 109.326174 159.004723 109.908507 159.433673 
C 110.49084 159.862622 111.280764 160.103637 112.104307 160.103637 
z
" style="fill:#ff0000;opacity:0.2;stroke:#ff0000;stroke-linejoin:miter;stroke-width:2;"/>
   </g>
   <g id="patch_48">
    <path d="M 141.863724 160.484871 
Q 127.981203 159.239975 116.211524 158.184544 
" style="fill:none;opacity:0.5;stroke:#0000ff;stroke-linecap:round;stroke-width:3;"/>
    <path d="M 117.571556 159.812522 
L 116.211524 158.184544 
L 117.839502 156.824512 
" style="fill:none;opacity:0.5;stroke:#0000ff;stroke-linecap:round;stroke-width:3;"/>
   </g>
   <g id="[&quot;g_s&quot;:4,&quot;g_t&quot;:3,&quot;coords&quot;:[[439.0, -70.0],[431.5, -55.0]],&quot;certainty&quot;:12]">
    <path clip-path="url(#p22cba3ec93)" d="M 239.681635 55.454996 
C 240.573806 55.454996 241.429557 55.193897 242.060418 54.729202 
C 242.691279 54.264506 243.045743 53.634156 243.045743 52.976978 
C 243.045743 52.319799 242.691279 51.689449 242.060418 51.224754 
C 241.429557 50.760059 240.573806 50.498959 239.681635 50.498959 
C 238.789463 50.498959 237.933712 50.760059 237.302851 51.224754 
C 236.67199 51.689449 236.317527 52.319799 236.317527 52.976978 
C 236.317527 53.634156 236.67199 54.264506 237.302851 54.729202 
C 237.933712 55.193897 238.789463 55.454996 239.681635 55.454996 
z
" style="fill:#0000ff;opacity:0.2;stroke:#0000ff;stroke-linejoin:miter;stroke-width:2;"/>
   </g>
   <g id="[&quot;g_s&quot;:3,&quot;g_t&quot;:4,&quot;coords&quot;:[[431.5, -55.0],[439.0, -70.0]],&quot;certainty&quot;:12]">
    <path clip-path="url(#p22cba3ec93)" d="M 235.799971 49.736492 
C 236.692143 49.736492 237.547894 49.475392 238.178755 49.010697 
C 238.809616 48.546001 239.164079 47.915651 239.164079 47.258473 
C 239.164079 46.601294 238.809616 45.970944 238.178755 45.506249 
C 237.547894 45.041554 236.692143 44.780454 235.799971 44.780454 
C 234.9078 44.780454 234.052049 45.041554 233.421188 45.506249 
C 232.790327 45.970944 232.435863 46.601294 232.435863 47.258473 
C 232.435863 47.915651 232.790327 48.546001 233.421188 49.010697 
C 234.052049 49.475392 234.9078 49.736492 235.799971 49.736492 
z
" style="fill:#ff0000;opacity:0.2;stroke:#ff0000;stroke-linejoin:miter;stroke-width:2;"/>
   </g>
   <g id="patch_49">
    <path d="M 239.681635 52.976978 
Q 238.302772 50.945624 238.214579 50.815697 
" style="fill:none;opacity:0.5;stroke:#0000ff;stroke-linecap:round;stroke-width:3.25;"/>
    <path d="M 237.815929 52.899222 
L 238.214579 50.815697 
L 240.298105 51.214347 
" style="fill:none;opacity:0.5;stroke:#0000ff;stroke-linecap:round;stroke-width:3.25;"/>
   </g>
   <g id="[&quot;g_s&quot;:1,&quot;g_t&quot;:2,&quot;coords&quot;:[[461.5, -685.0],[456.0, -670.0]],&quot;certainty&quot;:10]">
    <path clip-path="url(#p22cba3ec93)" d="M 251.326624 289.532466 
C 252.081539 289.532466 252.805636 289.311536 253.339441 288.918332 
C 253.873246 288.525128 254.173177 287.991755 254.173177 287.435681 
C 254.173177 286.879607 253.873246 286.346234 253.339441 285.95303 
C 252.805636 285.559826 252.081539 285.338896 251.326624 285.338896 
C 250.571709 285.338896 249.847612 285.559826 249.313807 285.95303 
C 248.780002 286.346234 248.480071 286.879607 248.480071 287.435681 
C 248.480071 287.991755 248.780002 288.525128 249.313807 288.918332 
C 249.847612 289.311536 250.571709 289.532466 251.326624 289.532466 
z
" style="fill:#0000ff;opacity:0.2;stroke:#0000ff;stroke-linejoin:miter;stroke-width:2;"/>
   </g>
   <g id="[&quot;g_s&quot;:2,&quot;g_t&quot;:1,&quot;coords&quot;:[[456.0, -670.0],[461.5, -685.0]],&quot;certainty&quot;:10]">
    <path clip-path="url(#p22cba3ec93)" d="M 248.480071 283.813961 
C 249.234986 283.813961 249.959083 283.593031 250.492888 283.199827 
C 251.026693 282.806623 251.326624 282.27325 251.326624 281.717176 
C 251.326624 281.161102 251.026693 280.627729 250.492888 280.234525 
C 249.959083 279.841321 249.234986 279.620391 248.480071 279.620391 
C 247.725156 279.620391 247.001059 279.841321 246.467254 280.234525 
C 245.933449 280.627729 245.633518 281.161102 245.633518 281.717176 
C 245.633518 282.27325 245.933449 282.806623 246.467254 283.199827 
C 247.001059 283.593031 247.725156 283.813961 248.480071 283.813961 
z
" style="fill:#ff0000;opacity:0.2;stroke:#ff0000;stroke-linejoin:miter;stroke-width:2;"/>
   </g>
   <g id="patch_50">
    <path d="M 251.326624 287.435681 
Q 250.348816 285.471341 250.237541 285.247797 
" style="fill:none;opacity:0.5;stroke:#ff0000;stroke-linecap:round;stroke-width:2.75;"/>
    <path d="M 249.563143 287.259063 
L 250.237541 285.247797 
L 252.248806 285.922195 
" style="fill:none;opacity:0.5;stroke:#ff0000;stroke-linecap:round;stroke-width:2.75;"/>
   </g>
   <g id="[&quot;g_s&quot;:2,&quot;g_t&quot;:3,&quot;coords&quot;:[[192.5, -345.0],[250.0, -352.0]],&quot;certainty&quot;:11]">
    <path clip-path="url(#p22cba3ec93)" d="M 112.104307 160.103637 
C 112.92785 160.103637 113.717774 159.862622 114.300107 159.433673 
C 114.88244 159.004723 115.209637 158.422861 115.209637 157.816235 
C 115.209637 157.209609 114.88244 156.627747 114.300107 156.198798 
C 113.717774 155.769848 112.92785 155.528833 112.104307 155.528833 
C 111.280764 155.528833 110.49084 155.769848 109.908507 156.198798 
C 109.326174 156.627747 108.998976 157.209609 108.998976 157.816235 
C 108.998976 158.422861 109.326174 159.004723 109.908507 159.433673 
C 110.49084 159.862622 111.280764 160.103637 112.104307 160.103637 
z
" style="fill:#0000ff;opacity:0.2;stroke:#0000ff;stroke-linejoin:miter;stroke-width:2;"/>
   </g>
   <g id="[&quot;g_s&quot;:3,&quot;g_t&quot;:2,&quot;coords&quot;:[[250.0, -352.0],[192.5, -345.0]],&quot;certainty&quot;:11]">
    <path clip-path="url(#p22cba3ec93)" d="M 141.863724 162.772273 
C 142.687267 162.772273 143.477191 162.531258 144.059524 162.102308 
C 144.641857 161.673359 144.969055 161.091497 144.969055 160.484871 
C 144.969055 159.878245 144.641857 159.296383 144.059524 158.867433 
C 143.477191 158.438484 142.687267 158.197469 141.863724 158.197469 
C 141.040181 158.197469 140.250257 158.438484 139.667924 158.867433 
C 139.085591 159.296383 138.758394 159.878245 138.758394 160.484871 
C 138.758394 161.091497 139.085591 161.673359 139.667924 162.102308 
C 140.250257 162.531258 141.040181 162.772273 141.863724 162.772273 
z
" style="fill:#ff0000;opacity:0.2;stroke:#ff0000;stroke-linejoin:miter;stroke-width:2;"/>
   </g>
   <g id="patch_51">
    <path d="M 112.104307 157.816235 
Q 125.986828 159.061132 137.756507 160.116562 
" style="fill:none;opacity:0.5;stroke:#ff0000;stroke-linecap:round;stroke-width:3;"/>
    <path d="M 136.396475 158.488584 
L 137.756507 160.116562 
L 136.128529 161.476594 
" style="fill:none;opacity:0.5;stroke:#ff0000;stroke-linecap:round;stroke-width:3;"/>
   </g>
   <g id="[&quot;g_s&quot;:3,&quot;g_t&quot;:4,&quot;coords&quot;:[[431.5, -55.0],[439.0, -70.0]],&quot;certainty&quot;:11]">
    <path clip-path="url(#p22cba3ec93)" d="M 235.799971 49.545875 
C 236.623515 49.545875 237.413439 49.30486 237.995772 48.87591 
C 238.578105 48.446961 238.905302 47.865099 238.905302 47.258473 
C 238.905302 46.651847 238.578105 46.069985 237.995772 45.641035 
C 237.413439 45.212086 236.623515 44.971071 235.799971 44.971071 
C 234.976428 44.971071 234.186504 45.212086 233.604171 45.641035 
C 233.021838 46.069985 232.694641 46.651847 232.694641 47.258473 
C 232.694641 47.865099 233.021838 48.446961 233.604171 48.87591 
C 234.186504 49.30486 234.976428 49.545875 235.799971 49.545875 
z
" style="fill:#0000ff;opacity:0.2;stroke:#0000ff;stroke-linejoin:miter;stroke-width:2;"/>
   </g>
   <g id="[&quot;g_s&quot;:4,&quot;g_t&quot;:3,&quot;coords&quot;:[[439.0, -70.0],[431.5, -55.0]],&quot;certainty&quot;:11]">
    <path clip-path="url(#p22cba3ec93)" d="M 239.681635 55.26438 
C 240.505178 55.26438 241.295102 55.023365 241.877435 54.594415 
C 242.459768 54.165466 242.786965 53.583604 242.786965 52.976978 
C 242.786965 52.370352 242.459768 51.78849 241.877435 51.35954 
C 241.295102 50.930591 240.505178 50.689576 239.681635 50.689576 
C 238.858091 50.689576 238.068167 50.930591 237.485834 51.35954 
C 236.903501 51.78849 236.576304 52.370352 236.576304 52.976978 
C 236.576304 53.583604 236.903501 54.165466 237.485834 54.594415 
C 238.068167 55.023365 238.858091 55.26438 239.681635 55.26438 
z
" style="fill:#ff0000;opacity:0.2;stroke:#ff0000;stroke-linejoin:miter;stroke-width:2;"/>
   </g>
   <g id="patch_52">
    <path d="M 235.799971 47.258473 
Q 237.178834 49.289826 237.366309 49.566017 
" style="fill:none;opacity:0.5;stroke:#ff0000;stroke-linecap:round;stroke-width:3;"/>
    <path d="M 237.764959 47.482492 
L 237.366309 49.566017 
L 235.282784 49.167367 
" style="fill:none;opacity:0.5;stroke:#ff0000;stroke-linecap:round;stroke-width:3;"/>
   </g>
   <g id="[&quot;g_s&quot;:4,&quot;g_t&quot;:1,&quot;coords&quot;:[[695.5, -398.0],[638.0, -380.0]],&quot;certainty&quot;:12]">
    <path clip-path="url(#p22cba3ec93)" d="M 372.434513 180.499638 
C 373.326685 180.499638 374.182436 180.238539 374.813297 179.773843 
C 375.444157 179.309148 375.798621 178.678798 375.798621 178.021619 
C 375.798621 177.364441 375.444157 176.734091 374.813297 176.269396 
C 374.182436 175.8047 373.326685 175.543601 372.434513 175.543601 
C 371.542341 175.543601 370.68659 175.8047 370.055729 176.269396 
C 369.424869 176.734091 369.070405 177.364441 369.070405 178.021619 
C 369.070405 178.678798 369.424869 179.309148 370.055729 179.773843 
C 370.68659 180.238539 371.542341 180.499638 372.434513 180.499638 
z
" style="fill:#0000ff;opacity:0.2;stroke:#0000ff;stroke-linejoin:miter;stroke-width:2;"/>
   </g>
   <g id="[&quot;g_s&quot;:1,&quot;g_t&quot;:4,&quot;coords&quot;:[[638.0, -380.0],[695.5, -398.0]],&quot;certainty&quot;:12]">
    <path clip-path="url(#p22cba3ec93)" d="M 342.675096 173.637432 
C 343.567268 173.637432 344.423019 173.376333 345.053879 172.911637 
C 345.68474 172.446942 346.039204 171.816592 346.039204 171.159414 
C 346.039204 170.502235 345.68474 169.871885 345.053879 169.40719 
C 344.423019 168.942494 343.567268 168.681395 342.675096 168.681395 
C 341.782924 168.681395 340.927173 168.942494 340.296312 169.40719 
C 339.665451 169.871885 339.310988 170.502235 339.310988 171.159414 
C 339.310988 171.816592 339.665451 172.446942 340.296312 172.911637 
C 340.927173 173.376333 341.782924 173.637432 342.675096 173.637432 
z
" style="fill:#ff0000;opacity:0.2;stroke:#ff0000;stroke-linejoin:miter;stroke-width:2;"/>
   </g>
   <g id="patch_53">
    <path d="M 372.434513 178.021619 
Q 358.530196 174.815431 346.865212 172.12561 
" style="fill:none;opacity:0.5;stroke:#ff0000;stroke-linecap:round;stroke-width:3.25;"/>
    <path d="M 347.989816 173.924294 
L 346.865212 172.12561 
L 348.663896 171.001005 
" style="fill:none;opacity:0.5;stroke:#ff0000;stroke-linecap:round;stroke-width:3.25;"/>
   </g>
   <g id="patch_54">
    <path clip-path="url(#p22cba3ec93)" d="M 357.554804 176.496685 
C 358.241091 176.496685 358.899361 176.295839 359.384638 175.938381 
C 359.869916 175.580923 360.14258 175.096038 360.14258 174.590516 
C 360.14258 174.084995 359.869916 173.60011 359.384638 173.242652 
C 358.899361 172.885194 358.241091 172.684348 357.554804 172.684348 
C 356.868518 172.684348 356.210248 172.885194 355.724971 173.242652 
C 355.239693 173.60011 354.967029 174.084995 354.967029 174.590516 
C 354.967029 175.096038 355.239693 175.580923 355.724971 175.938381 
C 356.210248 176.295839 356.868518 176.496685 357.554804 176.496685 
z
" style="fill:#008000;opacity:0.2;stroke:#008000;stroke-linejoin:miter;stroke-width:2;"/>
   </g>
   <g id="patch_55">
    <path clip-path="url(#p22cba3ec93)" d="M 249.903347 286.482597 
C 250.589633 286.482597 251.247903 286.281751 251.733181 285.924293 
C 252.218458 285.566835 252.491123 285.08195 252.491123 284.576429 
C 252.491123 284.070907 252.218458 283.586022 251.733181 283.228564 
C 251.247903 282.871106 250.589633 282.67026 249.903347 282.67026 
C 249.217061 282.67026 248.558791 282.871106 248.073514 283.228564 
C 247.588236 283.586022 247.315572 284.070907 247.315572 284.576429 
C 247.315572 285.08195 247.588236 285.566835 248.073514 285.924293 
C 248.558791 286.281751 249.217061 286.482597 249.903347 286.482597 
z
" style="fill:#008000;opacity:0.2;stroke:#008000;stroke-linejoin:miter;stroke-width:2;"/>
   </g>
   <g id="patch_56">
    <path clip-path="url(#p22cba3ec93)" d="M 126.984015 161.056721 
C 127.670301 161.056721 128.328571 160.855875 128.813849 160.498418 
C 129.299126 160.14096 129.571791 159.656075 129.571791 159.150553 
C 129.571791 158.645031 129.299126 158.160146 128.813849 157.802689 
C 128.328571 157.445231 127.670301 157.244385 126.984015 157.244385 
C 126.297729 157.244385 125.639459 157.445231 125.154182 157.802689 
C 124.668904 158.160146 124.39624 158.645031 124.39624 159.150553 
C 124.39624 159.656075 124.668904 160.14096 125.154182 160.498418 
C 125.639459 160.855875 126.297729 161.056721 126.984015 161.056721 
z
" style="fill:#008000;opacity:0.2;stroke:#008000;stroke-linejoin:miter;stroke-width:2;"/>
   </g>
   <g id="patch_57">
    <path clip-path="url(#p22cba3ec93)" d="M 237.740803 52.023894 
C 238.427089 52.023894 239.085359 51.823048 239.570637 51.46559 
C 240.055914 51.108132 240.328578 50.623247 240.328578 50.117725 
C 240.328578 49.612203 240.055914 49.127318 239.570637 48.769861 
C 239.085359 48.412403 238.427089 48.211557 237.740803 48.211557 
C 237.054517 48.211557 236.396247 48.412403 235.910969 48.769861 
C 235.425692 49.127318 235.153028 49.612203 235.153028 50.117725 
C 235.153028 50.623247 235.425692 51.108132 235.910969 51.46559 
C 236.396247 51.823048 237.054517 52.023894 237.740803 52.023894 
z
" style="fill:#008000;opacity:0.2;stroke:#008000;stroke-linejoin:miter;stroke-width:2;"/>
   </g>
   <g id="patch_58">
    <path clip-path="url(#p22cba3ec93)" d="M 342.675096 178.784087 
C 345.42024 178.784087 348.05332 177.980703 349.99443 176.550872 
C 351.93554 175.12104 353.026198 173.181501 353.026198 171.159414 
C 353.026198 169.137327 351.93554 167.197787 349.99443 165.767955 
C 348.05332 164.338124 345.42024 163.53474 342.675096 163.53474 
C 339.929952 163.53474 337.296872 164.338124 335.355762 165.767955 
C 333.414652 167.197787 332.323994 169.137327 332.323994 171.159414 
C 332.323994 173.181501 333.414652 175.12104 335.355762 176.550872 
C 337.296872 177.980703 339.929952 178.784087 342.675096 178.784087 
z
" style="fill:none;opacity:0.2;stroke:#ff0000;stroke-linejoin:miter;stroke-width:2;"/>
   </g>
   <g id="patch_59">
    <path clip-path="url(#p22cba3ec93)" d="M 251.326624 295.060354 
C 254.071768 295.060354 256.704848 294.256971 258.645958 292.827139 
C 260.587068 291.397308 261.677726 289.457768 261.677726 287.435681 
C 261.677726 285.413594 260.587068 283.474054 258.645958 282.044223 
C 256.704848 280.614391 254.071768 279.811008 251.326624 279.811008 
C 248.58148 279.811008 245.9484 280.614391 244.00729 282.044223 
C 242.06618 283.474054 240.975522 285.413594 240.975522 287.435681 
C 240.975522 289.457768 242.06618 291.397308 244.00729 292.827139 
C 245.9484 294.256971 248.58148 295.060354 251.326624 295.060354 
z
" style="fill:none;opacity:0.2;stroke:#0000ff;stroke-linejoin:miter;stroke-width:2;"/>
   </g>
   <g id="patch_60">
    <path clip-path="url(#p22cba3ec93)" d="M 342.675096 174.97175 
C 344.047668 174.97175 345.364208 174.570058 346.334763 173.855143 
C 347.305318 173.140227 347.850647 172.170457 347.850647 171.159414 
C 347.850647 170.14837 347.305318 169.1786 346.334763 168.463684 
C 345.364208 167.748769 344.047668 167.347077 342.675096 167.347077 
C 341.302524 167.347077 339.985984 167.748769 339.015429 168.463684 
C 338.044874 169.1786 337.499545 170.14837 337.499545 171.159414 
C 337.499545 172.170457 338.044874 173.140227 339.015429 173.855143 
C 339.985984 174.570058 341.302524 174.97175 342.675096 174.97175 
z
" style="fill:none;opacity:0.2;stroke:#008000;stroke-linejoin:miter;stroke-width:2;"/>
   </g>
   <g id="patch_61">
    <path clip-path="url(#p22cba3ec93)" d="M 372.434513 181.833956 
C 373.807085 181.833956 375.123625 181.432264 376.09418 180.717349 
C 377.064735 180.002433 377.610064 179.032663 377.610064 178.021619 
C 377.610064 177.010576 377.064735 176.040806 376.09418 175.32589 
C 375.123625 174.610975 373.807085 174.209283 372.434513 174.209283 
C 371.061941 174.209283 369.745401 174.610975 368.774846 175.32589 
C 367.804291 176.040806 367.258962 177.010576 367.258962 178.021619 
C 367.258962 179.032663 367.804291 180.002433 368.774846 180.717349 
C 369.745401 181.432264 371.061941 181.833956 372.434513 181.833956 
z
" style="fill:none;opacity:0.2;stroke:#008000;stroke-linejoin:miter;stroke-width:2;"/>
   </g>
   <g id="patch_62">
    <path d="M 357.554804 174.590516 
Q 303.729076 229.583473 249.903347 284.576429 
" style="fill:none;opacity:0.5;stroke:#008000;stroke-linecap:round;stroke-width:2;"/>
   </g>
   <g id="patch_63">
    <path d="M 344.053147 171.477178 
Q 356.579413 174.365602 369.105679 177.254026 
" style="fill:none;opacity:0.5;stroke:#800080;stroke-linecap:round;stroke-width:2;"/>
    <path d="M 345.177752 173.275862 
L 344.053147 171.477178 
L 345.851831 170.352573 
" style="fill:none;opacity:0.5;stroke:#800080;stroke-linecap:round;stroke-width:2;"/>
    <path d="M 367.981075 175.455342 
L 369.105679 177.254026 
L 367.306995 178.37863 
" style="fill:none;opacity:0.5;stroke:#800080;stroke-linecap:round;stroke-width:2;"/>
   </g>
   <g id="patch_64">
    <path d="M 249.903347 284.576429 
Q 188.443681 221.863491 126.984015 159.150553 
" style="fill:none;opacity:0.5;stroke:#008000;stroke-linecap:round;stroke-width:2;"/>
   </g>
   <g id="patch_65">
    <path d="M 249.110276 282.98321 
Q 249.457879 283.681516 249.805481 284.379822 
" style="fill:none;opacity:0.5;stroke:#800080;stroke-linecap:round;stroke-width:2;"/>
    <path d="M 248.435878 284.994475 
L 249.110276 282.98321 
L 251.121541 283.657608 
" style="fill:none;opacity:0.5;stroke:#800080;stroke-linecap:round;stroke-width:2;"/>
    <path d="M 250.479879 282.368557 
L 249.805481 284.379822 
L 247.794216 283.705424 
" style="fill:none;opacity:0.5;stroke:#800080;stroke-linecap:round;stroke-width:2;"/>
   </g>
   <g id="patch_66">
    <path d="M 126.984015 159.150553 
Q 182.362409 104.634139 237.740803 50.117725 
" style="fill:none;opacity:0.5;stroke:#008000;stroke-linecap:round;stroke-width:2;"/>
   </g>
   <g id="patch_67">
    <path d="M 140.455163 160.35856 
Q 127.981203 159.239975 115.507243 158.121389 
" style="fill:none;opacity:0.5;stroke:#800080;stroke-linecap:round;stroke-width:2;"/>
    <path d="M 139.09513 158.730582 
L 140.455163 160.35856 
L 138.827185 161.718592 
" style="fill:none;opacity:0.5;stroke:#800080;stroke-linecap:round;stroke-width:2;"/>
    <path d="M 116.867276 159.749367 
L 115.507243 158.121389 
L 117.135221 156.761357 
" style="fill:none;opacity:0.5;stroke:#800080;stroke-linecap:round;stroke-width:2;"/>
   </g>
   <g id="patch_68">
    <path d="M 237.740803 50.117725 
Q 297.647804 112.354121 357.554804 174.590516 
" style="fill:none;opacity:0.5;stroke:#008000;stroke-linecap:round;stroke-width:2;"/>
   </g>
   <g id="patch_69">
    <path d="M 238.887377 51.806869 
Q 238.302772 50.945624 237.718168 50.084379 
" style="fill:none;opacity:0.5;stroke:#800080;stroke-linecap:round;stroke-width:2;"/>
    <path d="M 239.286027 49.723344 
L 238.887377 51.806869 
L 236.803851 51.408219 
" style="fill:none;opacity:0.5;stroke:#800080;stroke-linecap:round;stroke-width:2;"/>
    <path d="M 237.319518 52.167904 
L 237.718168 50.084379 
L 239.801693 50.483029 
" style="fill:none;opacity:0.5;stroke:#800080;stroke-linecap:round;stroke-width:2;"/>
   </g>
   <g id="line2d_1">
    <path clip-path="url(#p22cba3ec93)" d="M 243.822075 35.440229 
L 425.483909 166.203376 
L 238.646524 299.253925 
L 59.054911 169.253245 
" style="fill:none;stroke:#ff0000;stroke-linecap:square;stroke-width:0.2;"/>
   </g>
   <g id="line2d_2">
    <path clip-path="url(#p22cba3ec93)" d="M 244.598408 299.253925 
L 60.348799 170.015713 
L 244.598408 35.440229 
L 424.190021 166.203376 
" style="fill:none;stroke:#0000ff;stroke-linecap:square;stroke-width:0.2;"/>
   </g>
   <g id="line2d_3">
    <path clip-path="url(#p22cba3ec93)" d="M 342.675096 171.159414 
L 248.480071 281.717176 
L 141.863724 160.484871 
L 239.681635 52.976978 
" style="fill:none;stroke:#ff0000;stroke-linecap:square;stroke-width:0.2;"/>
   </g>
   <g id="line2d_4">
    <path clip-path="url(#p22cba3ec93)" d="M 251.326624 287.435681 
L 112.104307 157.816235 
L 235.799971 47.258473 
L 372.434513 178.021619 
" style="fill:none;stroke:#0000ff;stroke-linecap:square;stroke-width:0.2;"/>
   </g>
  </g>
 </g>
 <defs>
  <clipPath id="p22cba3ec93">
   <rect height="306.969346" width="409.903625" x="37.576375" y="13.862404"/>
  </clipPath>
 </defs>
</svg>
