<?xml version="1.0" encoding="utf-8" standalone="no"?>
<!DOCTYPE svg PUBLIC "-//W3C//DTD SVG 1.1//EN"
  "http://www.w3.org/Graphics/SVG/1.1/DTD/svg11.dtd">
<!-- Created with matplotlib (http://matplotlib.org/) -->
<svg height="345.6pt" version="1.1" viewBox="0 0 460.8 345.6" width="460.8pt" xmlns="http://www.w3.org/2000/svg" xmlns:xlink="http://www.w3.org/1999/xlink">
 <defs>
  <style type="text/css">
*{stroke-linecap:butt;stroke-linejoin:round;}
  </style>
 </defs>
 <g id="figure_1">
  <g id="patch_1">
   <path d="M 0 345.6 
L 460.8 345.6 
L 460.8 0 
L 0 0 
z
" style="fill:#ffffff;"/>
  </g>
  <g id="axes_1">
   <g id="patch_2">
    <path clip-path="url(#p6056373485)" d="M 60.151635 167.607351 
C 61.197404 167.607351 62.200482 167.495351 62.939953 167.296019 
C 63.679423 167.096687 64.094912 166.826297 64.094912 166.544399 
C 64.094912 166.262502 63.679423 165.992111 62.939953 165.79278 
C 62.200482 165.593448 61.197404 165.481448 60.151635 165.481448 
C 59.105866 165.481448 58.102788 165.593448 57.363317 165.79278 
C 56.623846 165.992111 56.208358 166.262502 56.208358 166.544399 
C 56.208358 166.826297 56.623846 167.096687 57.363317 167.296019 
C 58.102788 167.495351 59.105866 167.607351 60.151635 167.607351 
z
" style="fill:#ff0000;opacity:0.2;stroke:#ff0000;stroke-linejoin:miter;stroke-width:2;"/>
   </g>
   <g id="patch_3">
    <path clip-path="url(#p6056373485)" d="M 395.330164 29.423709 
C 396.375933 29.423709 397.379011 29.31171 398.118482 29.112378 
C 398.857952 28.913046 399.273441 28.642656 399.273441 28.360758 
C 399.273441 28.07886 398.857952 27.80847 398.118482 27.609138 
C 397.379011 27.409806 396.375933 27.297807 395.330164 27.297807 
C 394.284395 27.297807 393.281317 27.409806 392.541846 27.609138 
C 391.802376 27.80847 391.386887 28.07886 391.386887 28.360758 
C 391.386887 28.642656 391.802376 28.913046 392.541846 29.112378 
C 393.281317 29.31171 394.284395 29.423709 395.330164 29.423709 
z
" style="fill:#ff0000;opacity:0.2;stroke:#ff0000;stroke-linejoin:miter;stroke-width:2;"/>
   </g>
   <g id="patch_4">
    <path clip-path="url(#p6056373485)" d="M 422.933102 40.05322 
C 423.978871 40.05322 424.981949 39.941221 425.72142 39.741889 
C 426.46089 39.542557 426.876379 39.272167 426.876379 38.990269 
C 426.876379 38.708371 426.46089 38.437981 425.72142 38.238649 
C 424.981949 38.039317 423.978871 37.927318 422.933102 37.927318 
C 421.887333 37.927318 420.884255 38.039317 420.144784 38.238649 
C 419.405314 38.437981 418.989825 38.708371 418.989825 38.990269 
C 418.989825 39.272167 419.405314 39.542557 420.144784 39.741889 
C 420.884255 39.941221 421.887333 40.05322 422.933102 40.05322 
z
" style="fill:#ff0000;opacity:0.2;stroke:#ff0000;stroke-linejoin:miter;stroke-width:2;"/>
   </g>
   <g id="patch_5">
    <path clip-path="url(#p6056373485)" d="M 251.40056 167.607351 
C 252.44633 167.607351 253.449408 167.495351 254.188878 167.296019 
C 254.928349 167.096687 255.343837 166.826297 255.343837 166.544399 
C 255.343837 166.262502 254.928349 165.992111 254.188878 165.79278 
C 253.449408 165.593448 252.44633 165.481448 251.40056 165.481448 
C 250.354791 165.481448 249.351713 165.593448 248.612243 165.79278 
C 247.872772 165.992111 247.457284 166.262502 247.457284 166.544399 
C 247.457284 166.826297 247.872772 167.096687 248.612243 167.296019 
C 249.351713 167.495351 250.354791 167.607351 251.40056 167.607351 
z
" style="fill:#ff0000;opacity:0.2;stroke:#ff0000;stroke-linejoin:miter;stroke-width:2;"/>
   </g>
   <g id="patch_6">
    <path clip-path="url(#p6056373485)" d="M 422.933102 295.161481 
C 423.978871 295.161481 424.981949 295.049482 425.72142 294.85015 
C 426.46089 294.650818 426.876379 294.380428 426.876379 294.09853 
C 426.876379 293.816632 426.46089 293.546242 425.72142 293.34691 
C 424.981949 293.147578 423.978871 293.035579 422.933102 293.035579 
C 421.887333 293.035579 420.884255 293.147578 420.144784 293.34691 
C 419.405314 293.546242 418.989825 293.816632 418.989825 294.09853 
C 418.989825 294.380428 419.405314 294.650818 420.144784 294.85015 
C 420.884255 295.049482 421.887333 295.161481 422.933102 295.161481 
z
" style="fill:#ff0000;opacity:0.2;stroke:#ff0000;stroke-linejoin:miter;stroke-width:2;"/>
   </g>
   <g id="patch_7">
    <path clip-path="url(#p6056373485)" d="M 395.330164 305.790992 
C 396.375933 305.790992 397.379011 305.678993 398.118482 305.479661 
C 398.857952 305.280329 399.273441 305.009939 399.273441 304.728041 
C 399.273441 304.446143 398.857952 304.175753 398.118482 303.976421 
C 397.379011 303.777089 396.375933 303.66509 395.330164 303.66509 
C 394.284395 303.66509 393.281317 303.777089 392.541846 303.976421 
C 391.802376 304.175753 391.386887 304.446143 391.386887 304.728041 
C 391.386887 305.009939 391.802376 305.280329 392.541846 305.479661 
C 393.281317 305.678993 394.284395 305.790992 395.330164 305.790992 
z
" style="fill:#ff0000;opacity:0.2;stroke:#ff0000;stroke-linejoin:miter;stroke-width:2;"/>
   </g>
   <g id="patch_8">
    <path clip-path="url(#p6056373485)" d="M 204.081239 168.670302 
C 205.127008 168.670302 206.130086 168.558302 206.869556 168.35897 
C 207.609027 168.159639 208.024515 167.889248 208.024515 167.607351 
C 208.024515 167.325453 207.609027 167.055063 206.869556 166.855731 
C 206.130086 166.656399 205.127008 166.544399 204.081239 166.544399 
C 203.035469 166.544399 202.032391 166.656399 201.292921 166.855731 
C 200.55345 167.055063 200.137962 167.325453 200.137962 167.607351 
C 200.137962 167.889248 200.55345 168.159639 201.292921 168.35897 
C 202.032391 168.558302 203.035469 168.670302 204.081239 168.670302 
z
" style="fill:#0000ff;opacity:0.2;stroke:#0000ff;stroke-linejoin:miter;stroke-width:2;"/>
   </g>
   <g id="patch_9">
    <path clip-path="url(#p6056373485)" d="M 409.131633 297.287383 
C 410.177402 297.287383 411.18048 297.175384 411.919951 296.976052 
C 412.659421 296.77672 413.07491 296.50633 413.07491 296.224432 
C 413.07491 295.942534 412.659421 295.672144 411.919951 295.472812 
C 411.18048 295.27348 410.177402 295.161481 409.131633 295.161481 
C 408.085864 295.161481 407.082786 295.27348 406.343315 295.472812 
C 405.603845 295.672144 405.188356 295.942534 405.188356 296.224432 
C 405.188356 296.50633 405.603845 296.77672 406.343315 296.976052 
C 407.082786 297.175384 408.085864 297.287383 409.131633 297.287383 
z
" style="fill:#0000ff;opacity:0.2;stroke:#0000ff;stroke-linejoin:miter;stroke-width:2;"/>
   </g>
   <g id="patch_10">
    <path clip-path="url(#p6056373485)" d="M 389.415249 306.853943 
C 390.461018 306.853943 391.464096 306.741944 392.203567 306.542612 
C 392.943037 306.34328 393.358526 306.07289 393.358526 305.790992 
C 393.358526 305.509094 392.943037 305.238704 392.203567 305.039372 
C 391.464096 304.84004 390.461018 304.728041 389.415249 304.728041 
C 388.36948 304.728041 387.366402 304.84004 386.626931 305.039372 
C 385.887461 305.238704 385.471972 305.509094 385.471972 305.790992 
C 385.471972 306.07289 385.887461 306.34328 386.626931 306.542612 
C 387.366402 306.741944 388.36948 306.853943 389.415249 306.853943 
z
" style="fill:#0000ff;opacity:0.2;stroke:#0000ff;stroke-linejoin:miter;stroke-width:2;"/>
   </g>
   <g id="patch_11">
    <path clip-path="url(#p6056373485)" d="M 73.953104 168.670302 
C 74.998873 168.670302 76.001951 168.558302 76.741421 168.35897 
C 77.480892 168.159639 77.89638 167.889248 77.89638 167.607351 
C 77.89638 167.325453 77.480892 167.055063 76.741421 166.855731 
C 76.001951 166.656399 74.998873 166.544399 73.953104 166.544399 
C 72.907334 166.544399 71.904256 166.656399 71.164786 166.855731 
C 70.425315 167.055063 70.009827 167.325453 70.009827 167.607351 
C 70.009827 167.889248 70.425315 168.159639 71.164786 168.35897 
C 71.904256 168.558302 72.907334 168.670302 73.953104 168.670302 
z
" style="fill:#0000ff;opacity:0.2;stroke:#0000ff;stroke-linejoin:miter;stroke-width:2;"/>
   </g>
   <g id="patch_12">
    <path clip-path="url(#p6056373485)" d="M 389.415249 30.48666 
C 390.461018 30.48666 391.464096 30.374661 392.203567 30.175329 
C 392.943037 29.975997 393.358526 29.705607 393.358526 29.423709 
C 393.358526 29.141811 392.943037 28.871421 392.203567 28.672089 
C 391.464096 28.472757 390.461018 28.360758 389.415249 28.360758 
C 388.36948 28.360758 387.366402 28.472757 386.626931 28.672089 
C 385.887461 28.871421 385.471972 29.141811 385.471972 29.423709 
C 385.471972 29.705607 385.887461 29.975997 386.626931 30.175329 
C 387.366402 30.374661 388.36948 30.48666 389.415249 30.48666 
z
" style="fill:#0000ff;opacity:0.2;stroke:#0000ff;stroke-linejoin:miter;stroke-width:2;"/>
   </g>
   <g id="patch_13">
    <path clip-path="url(#p6056373485)" d="M 409.131633 40.05322 
C 410.177402 40.05322 411.18048 39.941221 411.919951 39.741889 
C 412.659421 39.542557 413.07491 39.272167 413.07491 38.990269 
C 413.07491 38.708371 412.659421 38.437981 411.919951 38.238649 
C 411.18048 38.039317 410.177402 37.927318 409.131633 37.927318 
C 408.085864 37.927318 407.082786 38.039317 406.343315 38.238649 
C 405.603845 38.437981 405.188356 38.708371 405.188356 38.990269 
C 405.188356 39.272167 405.603845 39.542557 406.343315 39.741889 
C 407.082786 39.941221 408.085864 40.05322 409.131633 40.05322 
z
" style="fill:#0000ff;opacity:0.2;stroke:#0000ff;stroke-linejoin:miter;stroke-width:2;"/>
   </g>
   <g id="patch_14">
    <path clip-path="url(#p6056373485)" d="M 60.151635 166.544399 
C 60.151635 106.487663 182.393216 54.40306 395.330164 28.360758 
C 411.103271 28.892233 428.848017 33.675513 422.933102 38.990269 
C 338.15265 65.03257 251.40056 107.550614 251.40056 166.544399 
C 251.40056 225.538185 338.15265 268.056228 422.933102 294.09853 
C 428.848017 299.413286 411.103271 304.196565 395.330164 304.728041 
C 182.393216 278.685739 60.151635 226.601136 60.151635 166.544399 
" style="fill:none;stroke:#ff0000;stroke-linejoin:miter;stroke-width:0.5;"/>
   </g>
   <g id="patch_15">
    <path clip-path="url(#p6056373485)" d="M 204.081239 167.607351 
C 204.081239 226.601136 282.946775 269.11918 409.131633 296.224432 
C 417.018187 301.007712 403.216718 305.259517 389.415249 305.790992 
C 182.393216 279.74869 73.953104 227.664087 73.953104 167.607351 
C 73.953104 107.550614 182.393216 55.466011 389.415249 29.423709 
C 403.216718 29.955185 417.018187 34.206989 409.131633 38.990269 
C 282.946775 66.095522 204.081239 108.613565 204.081239 167.607351 
" style="fill:none;stroke:#0000ff;stroke-linejoin:miter;stroke-width:0.5;"/>
   </g>
   <g id="[&quot;g_s&quot;:1,&quot;g_t&quot;:4,&quot;coords&quot;:[[86.0, -672.0],[93.0, -674.0]],&quot;certainty&quot;:12]">
    <path clip-path="url(#p6056373485)" d="M 60.151635 169.99899 
C 63.550385 169.99899 66.810388 169.634993 69.213668 168.987164 
C 71.616947 168.339335 72.967284 167.460568 72.967284 166.544399 
C 72.967284 165.628231 71.616947 164.749463 69.213668 164.101635 
C 66.810388 163.453806 63.550385 163.089808 60.151635 163.089808 
C 56.752885 163.089808 53.492881 163.453806 51.089602 164.101635 
C 48.686323 164.749463 47.335985 165.628231 47.335985 166.544399 
C 47.335985 167.460568 48.686323 168.339335 51.089602 168.987164 
C 53.492881 169.634993 56.752885 169.99899 60.151635 169.99899 
z
" style="fill:#0000ff;opacity:0.2;stroke:#0000ff;stroke-linejoin:miter;stroke-width:2;"/>
   </g>
   <g id="[&quot;g_s&quot;:4,&quot;g_t&quot;:1,&quot;coords&quot;:[[93.0, -674.0],[86.0, -672.0]],&quot;certainty&quot;:12]">
    <path clip-path="url(#p6056373485)" d="M 73.953104 171.061942 
C 77.351854 171.061942 80.611857 170.697944 83.015136 170.050115 
C 85.418416 169.402287 86.768753 168.523519 86.768753 167.607351 
C 86.768753 166.691182 85.418416 165.812415 83.015136 165.164586 
C 80.611857 164.516757 77.351854 164.15276 73.953104 164.15276 
C 70.554354 164.15276 67.29435 164.516757 64.891071 165.164586 
C 62.487792 165.812415 61.137454 166.691182 61.137454 167.607351 
C 61.137454 168.523519 62.487792 169.402287 64.891071 170.050115 
C 67.29435 170.697944 70.554354 171.061942 73.953104 171.061942 
z
" style="fill:#ff0000;opacity:0.2;stroke:#ff0000;stroke-linejoin:miter;stroke-width:2;"/>
   </g>
   <g id="patch_16">
    <path d="M 60.151635 166.544399 
Q 66.056682 166.99919 69.670418 167.27751 
" style="fill:none;opacity:0.5;stroke:#0000ff;stroke-linecap:round;stroke-width:3.25;"/>
    <path d="M 68.290032 165.666754 
L 69.670418 167.27751 
L 68.059662 168.657896 
" style="fill:none;opacity:0.5;stroke:#0000ff;stroke-linecap:round;stroke-width:3.25;"/>
   </g>
   <g id="[&quot;g_s&quot;:2,&quot;g_t&quot;:5,&quot;coords&quot;:[[256.0, -412.0],[253.0, -414.0]],&quot;certainty&quot;:5]">
    <path clip-path="url(#p6056373485)" d="M 395.330164 29.955185 
C 396.898818 29.955185 398.403435 29.787186 399.512641 29.488188 
C 400.621847 29.18919 401.245079 28.783605 401.245079 28.360758 
C 401.245079 27.937911 400.621847 27.532326 399.512641 27.233328 
C 398.403435 26.93433 396.898818 26.766331 395.330164 26.766331 
C 393.76151 26.766331 392.256893 26.93433 391.147687 27.233328 
C 390.038482 27.532326 389.415249 27.937911 389.415249 28.360758 
C 389.415249 28.783605 390.038482 29.18919 391.147687 29.488188 
C 392.256893 29.787186 393.76151 29.955185 395.330164 29.955185 
z
" style="fill:#0000ff;opacity:0.2;stroke:#0000ff;stroke-linejoin:miter;stroke-width:2;"/>
   </g>
   <g id="[&quot;g_s&quot;:5,&quot;g_t&quot;:2,&quot;coords&quot;:[[253.0, -414.0],[256.0, -412.0]],&quot;certainty&quot;:5]">
    <path clip-path="url(#p6056373485)" d="M 389.415249 31.018136 
C 390.983903 31.018136 392.48852 30.850137 393.597726 30.551139 
C 394.706931 30.252141 395.330164 29.846556 395.330164 29.423709 
C 395.330164 29.000862 394.706931 28.595277 393.597726 28.296279 
C 392.48852 27.997281 390.983903 27.829282 389.415249 27.829282 
C 387.846595 27.829282 386.341978 27.997281 385.232772 28.296279 
C 384.123566 28.595277 383.500334 29.000862 383.500334 29.423709 
C 383.500334 29.846556 384.123566 30.252141 385.232772 30.551139 
C 386.341978 30.850137 387.846595 31.018136 389.415249 31.018136 
z
" style="fill:#ff0000;opacity:0.2;stroke:#ff0000;stroke-linejoin:miter;stroke-width:2;"/>
   </g>
   <g id="patch_17">
    <path d="M 395.330164 28.360758 
Q 393.356119 28.715507 392.426011 28.882654 
" style="fill:none;opacity:0.5;stroke:#0000ff;stroke-linecap:round;stroke-width:1.5;"/>
    <path d="M 394.167672 30.093694 
L 392.426011 28.882654 
L 393.637051 27.140994 
" style="fill:none;opacity:0.5;stroke:#0000ff;stroke-linecap:round;stroke-width:1.5;"/>
   </g>
   <g id="[&quot;g_s&quot;:3,&quot;g_t&quot;:6,&quot;coords&quot;:[[270.0, -432.0],[263.0, -432.0]],&quot;certainty&quot;:6]">
    <path clip-path="url(#p6056373485)" d="M 422.933102 40.850433 
C 424.763198 40.850433 426.518585 40.654435 427.812658 40.305604 
C 429.106731 39.956773 429.833836 39.48359 429.833836 38.990269 
C 429.833836 38.496947 429.106731 38.023765 427.812658 37.674934 
C 426.518585 37.326103 424.763198 37.130104 422.933102 37.130104 
C 421.103006 37.130104 419.347619 37.326103 418.053546 37.674934 
C 416.759472 38.023765 416.032367 38.496947 416.032367 38.990269 
C 416.032367 39.48359 416.759472 39.956773 418.053546 40.305604 
C 419.347619 40.654435 421.103006 40.850433 422.933102 40.850433 
z
" style="fill:#0000ff;opacity:0.2;stroke:#0000ff;stroke-linejoin:miter;stroke-width:2;"/>
   </g>
   <g id="[&quot;g_s&quot;:6,&quot;g_t&quot;:3,&quot;coords&quot;:[[263.0, -432.0],[270.0, -432.0]],&quot;certainty&quot;:6]">
    <path clip-path="url(#p6056373485)" d="M 409.131633 40.850433 
C 410.961729 40.850433 412.717116 40.654435 414.011189 40.305604 
C 415.305262 39.956773 416.032367 39.48359 416.032367 38.990269 
C 416.032367 38.496947 415.305262 38.023765 414.011189 37.674934 
C 412.717116 37.326103 410.961729 37.130104 409.131633 37.130104 
C 407.301537 37.130104 405.54615 37.326103 404.252077 37.674934 
C 402.958003 38.023765 402.230899 38.496947 402.230899 38.990269 
C 402.230899 39.48359 402.958003 39.956773 404.252077 40.305604 
C 405.54615 40.654435 407.301537 40.850433 409.131633 40.850433 
z
" style="fill:#ff0000;opacity:0.2;stroke:#ff0000;stroke-linejoin:miter;stroke-width:2;"/>
   </g>
   <g id="patch_18">
    <path d="M 422.933102 38.990269 
Q 417.031424 38.990269 412.367183 38.990269 
" style="fill:none;opacity:0.5;stroke:#0000ff;stroke-linecap:round;stroke-width:1.75;"/>
    <path d="M 413.867183 40.490269 
L 412.367183 38.990269 
L 413.867183 37.490269 
" style="fill:none;opacity:0.5;stroke:#0000ff;stroke-linecap:round;stroke-width:1.75;"/>
   </g>
   <g id="[&quot;g_s&quot;:4,&quot;g_t&quot;:1,&quot;coords&quot;:[[183.0, -672.0],[159.0, -674.0]],&quot;certainty&quot;:5]">
    <path clip-path="url(#p6056373485)" d="M 251.40056 168.138826 
C 252.969214 168.138826 254.473831 167.970827 255.583037 167.671829 
C 256.692243 167.372831 257.315476 166.967246 257.315476 166.544399 
C 257.315476 166.121553 256.692243 165.715967 255.583037 165.41697 
C 254.473831 165.117972 252.969214 164.949973 251.40056 164.949973 
C 249.831906 164.949973 248.327289 165.117972 247.218084 165.41697 
C 246.108878 165.715967 245.485645 166.121553 245.485645 166.544399 
C 245.485645 166.967246 246.108878 167.372831 247.218084 167.671829 
C 248.327289 167.970827 249.831906 168.138826 251.40056 168.138826 
z
" style="fill:#0000ff;opacity:0.2;stroke:#0000ff;stroke-linejoin:miter;stroke-width:2;"/>
   </g>
   <g id="[&quot;g_s&quot;:1,&quot;g_t&quot;:4,&quot;coords&quot;:[[159.0, -674.0],[183.0, -672.0]],&quot;certainty&quot;:5]">
    <path clip-path="url(#p6056373485)" d="M 204.081239 169.201777 
C 205.649892 169.201777 207.154509 169.033778 208.263715 168.73478 
C 209.372921 168.435783 209.996154 168.030197 209.996154 167.607351 
C 209.996154 167.184504 209.372921 166.778919 208.263715 166.479921 
C 207.154509 166.180923 205.649892 166.012924 204.081239 166.012924 
C 202.512585 166.012924 201.007968 166.180923 199.898762 166.479921 
C 198.789556 166.778919 198.166323 167.184504 198.166323 167.607351 
C 198.166323 168.030197 198.789556 168.435783 199.898762 168.73478 
C 201.007968 169.033778 202.512585 169.201777 204.081239 169.201777 
z
" style="fill:#ff0000;opacity:0.2;stroke:#ff0000;stroke-linejoin:miter;stroke-width:2;"/>
   </g>
   <g id="patch_19">
    <path d="M 251.40056 166.544399 
Q 228.741641 167.053395 207.143114 167.538571 
" style="fill:none;opacity:0.5;stroke:#0000ff;stroke-linecap:round;stroke-width:1.5;"/>
    <path d="M 208.676422 169.004506 
L 207.143114 167.538571 
L 208.609049 166.005262 
" style="fill:none;opacity:0.5;stroke:#0000ff;stroke-linecap:round;stroke-width:1.5;"/>
   </g>
   <g id="[&quot;g_s&quot;:5,&quot;g_t&quot;:2,&quot;coords&quot;:[[270.0, -912.0],[263.0, -916.0]],&quot;certainty&quot;:6]">
    <path clip-path="url(#p6056373485)" d="M 422.933102 295.958695 
C 424.763198 295.958695 426.518585 295.762696 427.812658 295.413865 
C 429.106731 295.065034 429.833836 294.591851 429.833836 294.09853 
C 429.833836 293.605209 429.106731 293.132026 427.812658 292.783195 
C 426.518585 292.434364 424.763198 292.238366 422.933102 292.238366 
C 421.103006 292.238366 419.347619 292.434364 418.053546 292.783195 
C 416.759472 293.132026 416.032367 293.605209 416.032367 294.09853 
C 416.032367 294.591851 416.759472 295.065034 418.053546 295.413865 
C 419.347619 295.762696 421.103006 295.958695 422.933102 295.958695 
z
" style="fill:#0000ff;opacity:0.2;stroke:#0000ff;stroke-linejoin:miter;stroke-width:2;"/>
   </g>
   <g id="[&quot;g_s&quot;:2,&quot;g_t&quot;:5,&quot;coords&quot;:[[263.0, -916.0],[270.0, -912.0]],&quot;certainty&quot;:6]">
    <path clip-path="url(#p6056373485)" d="M 409.131633 298.084597 
C 410.961729 298.084597 412.717116 297.888598 414.011189 297.539767 
C 415.305262 297.190936 416.032367 296.717754 416.032367 296.224432 
C 416.032367 295.731111 415.305262 295.257928 414.011189 294.909097 
C 412.717116 294.560267 410.961729 294.364268 409.131633 294.364268 
C 407.301537 294.364268 405.54615 294.560267 404.252077 294.909097 
C 402.958003 295.257928 402.230899 295.731111 402.230899 296.224432 
C 402.230899 296.717754 402.958003 297.190936 404.252077 297.539767 
C 405.54615 297.888598 407.301537 298.084597 409.131633 298.084597 
z
" style="fill:#ff0000;opacity:0.2;stroke:#ff0000;stroke-linejoin:miter;stroke-width:2;"/>
   </g>
   <g id="patch_20">
    <path d="M 422.933102 294.09853 
Q 417.021315 295.009149 412.332542 295.731382 
" style="fill:none;opacity:0.5;stroke:#0000ff;stroke-linecap:round;stroke-width:1.75;"/>
    <path d="M 414.043416 296.985539 
L 412.332542 295.731382 
L 413.586699 294.020508 
" style="fill:none;opacity:0.5;stroke:#0000ff;stroke-linecap:round;stroke-width:1.75;"/>
   </g>
   <g id="[&quot;g_s&quot;:6,&quot;g_t&quot;:3,&quot;coords&quot;:[[256.0, -932.0],[253.0, -934.0]],&quot;certainty&quot;:11]">
    <path clip-path="url(#p6056373485)" d="M 395.330164 307.916894 
C 398.467472 307.916894 401.476706 307.580897 403.695117 306.982901 
C 405.913529 306.384905 407.159995 305.573735 407.159995 304.728041 
C 407.159995 303.882347 405.913529 303.071177 403.695117 302.473181 
C 401.476706 301.875185 398.467472 301.539188 395.330164 301.539188 
C 392.192856 301.539188 389.183622 301.875185 386.965211 302.473181 
C 384.746799 303.071177 383.500334 303.882347 383.500334 304.728041 
C 383.500334 305.573735 384.746799 306.384905 386.965211 306.982901 
C 389.183622 307.580897 392.192856 307.916894 395.330164 307.916894 
z
" style="fill:#0000ff;opacity:0.2;stroke:#0000ff;stroke-linejoin:miter;stroke-width:2;"/>
   </g>
   <g id="[&quot;g_s&quot;:3,&quot;g_t&quot;:6,&quot;coords&quot;:[[253.0, -934.0],[256.0, -932.0]],&quot;certainty&quot;:11]">
    <path clip-path="url(#p6056373485)" d="M 389.415249 308.979845 
C 392.552557 308.979845 395.561791 308.643848 397.780202 308.045852 
C 399.998614 307.447856 401.245079 306.636686 401.245079 305.790992 
C 401.245079 304.945298 399.998614 304.134128 397.780202 303.536132 
C 395.561791 302.938137 392.552557 302.602139 389.415249 302.602139 
C 386.277941 302.602139 383.268707 302.938137 381.050296 303.536132 
C 378.831884 304.134128 377.585418 304.945298 377.585418 305.790992 
C 377.585418 306.636686 378.831884 307.447856 381.050296 308.045852 
C 383.268707 308.643848 386.277941 308.979845 389.415249 308.979845 
z
" style="fill:#ff0000;opacity:0.2;stroke:#ff0000;stroke-linejoin:miter;stroke-width:2;"/>
   </g>
   <g id="patch_21">
    <path d="M 395.330164 304.728041 
Q 393.356119 305.082791 393.469948 305.062335 
" style="fill:none;opacity:0.5;stroke:#0000ff;stroke-linecap:round;stroke-width:3;"/>
    <path d="M 395.211609 306.273375 
L 393.469948 305.062335 
L 394.680988 303.320674 
" style="fill:none;opacity:0.5;stroke:#0000ff;stroke-linecap:round;stroke-width:3;"/>
   </g>
   <g id="[&quot;g_s&quot;:1,&quot;g_t&quot;:4,&quot;coords&quot;:[[159.0, -674.0],[183.0, -672.0]],&quot;certainty&quot;:12]">
    <path clip-path="url(#p6056373485)" d="M 204.081239 171.061942 
C 207.479989 171.061942 210.739992 170.697944 213.143271 170.050115 
C 215.546551 169.402287 216.896888 168.523519 216.896888 167.607351 
C 216.896888 166.691182 215.546551 165.812415 213.143271 165.164586 
C 210.739992 164.516757 207.479989 164.15276 204.081239 164.15276 
C 200.682489 164.15276 197.422485 164.516757 195.019206 165.164586 
C 192.615927 165.812415 191.265589 166.691182 191.265589 167.607351 
C 191.265589 168.523519 192.615927 169.402287 195.019206 170.050115 
C 197.422485 170.697944 200.682489 171.061942 204.081239 171.061942 
z
" style="fill:#0000ff;opacity:0.2;stroke:#0000ff;stroke-linejoin:miter;stroke-width:2;"/>
   </g>
   <g id="[&quot;g_s&quot;:4,&quot;g_t&quot;:1,&quot;coords&quot;:[[183.0, -672.0],[159.0, -674.0]],&quot;certainty&quot;:12]">
    <path clip-path="url(#p6056373485)" d="M 251.40056 169.99899 
C 254.79931 169.99899 258.059314 169.634993 260.462593 168.987164 
C 262.865872 168.339335 264.21621 167.460568 264.21621 166.544399 
C 264.21621 165.628231 262.865872 164.749463 260.462593 164.101635 
C 258.059314 163.453806 254.79931 163.089808 251.40056 163.089808 
C 248.00181 163.089808 244.741807 163.453806 242.338528 164.101635 
C 239.935248 164.749463 238.584911 165.628231 238.584911 166.544399 
C 238.584911 167.460568 239.935248 168.339335 242.338528 168.987164 
C 244.741807 169.634993 248.00181 169.99899 251.40056 169.99899 
z
" style="fill:#ff0000;opacity:0.2;stroke:#ff0000;stroke-linejoin:miter;stroke-width:2;"/>
   </g>
   <g id="patch_22">
    <path d="M 204.081239 167.607351 
Q 226.740158 167.098355 247.10156 166.640969 
" style="fill:none;opacity:0.5;stroke:#ff0000;stroke-linecap:round;stroke-width:3.25;"/>
    <path d="M 245.568252 165.175034 
L 247.10156 166.640969 
L 245.635625 168.174278 
" style="fill:none;opacity:0.5;stroke:#ff0000;stroke-linecap:round;stroke-width:3.25;"/>
   </g>
   <g id="[&quot;g_s&quot;:2,&quot;g_t&quot;:5,&quot;coords&quot;:[[263.0, -916.0],[270.0, -912.0]],&quot;certainty&quot;:6]">
    <path clip-path="url(#p6056373485)" d="M 409.131633 298.084597 
C 410.961729 298.084597 412.717116 297.888598 414.011189 297.539767 
C 415.305262 297.190936 416.032367 296.717754 416.032367 296.224432 
C 416.032367 295.731111 415.305262 295.257928 414.011189 294.909097 
C 412.717116 294.560267 410.961729 294.364268 409.131633 294.364268 
C 407.301537 294.364268 405.54615 294.560267 404.252077 294.909097 
C 402.958003 295.257928 402.230899 295.731111 402.230899 296.224432 
C 402.230899 296.717754 402.958003 297.190936 404.252077 297.539767 
C 405.54615 297.888598 407.301537 298.084597 409.131633 298.084597 
z
" style="fill:#0000ff;opacity:0.2;stroke:#0000ff;stroke-linejoin:miter;stroke-width:2;"/>
   </g>
   <g id="[&quot;g_s&quot;:5,&quot;g_t&quot;:2,&quot;coords&quot;:[[270.0, -912.0],[263.0, -916.0]],&quot;certainty&quot;:6]">
    <path clip-path="url(#p6056373485)" d="M 422.933102 295.958695 
C 424.763198 295.958695 426.518585 295.762696 427.812658 295.413865 
C 429.106731 295.065034 429.833836 294.591851 429.833836 294.09853 
C 429.833836 293.605209 429.106731 293.132026 427.812658 292.783195 
C 426.518585 292.434364 424.763198 292.238366 422.933102 292.238366 
C 421.103006 292.238366 419.347619 292.434364 418.053546 292.783195 
C 416.759472 293.132026 416.032367 293.605209 416.032367 294.09853 
C 416.032367 294.591851 416.759472 295.065034 418.053546 295.413865 
C 419.347619 295.762696 421.103006 295.958695 422.933102 295.958695 
z
" style="fill:#ff0000;opacity:0.2;stroke:#ff0000;stroke-linejoin:miter;stroke-width:2;"/>
   </g>
   <g id="patch_23">
    <path d="M 409.131633 296.224432 
Q 415.043419 295.313813 419.732193 294.59158 
" style="fill:none;opacity:0.5;stroke:#ff0000;stroke-linecap:round;stroke-width:1.75;"/>
    <path d="M 418.021319 293.337423 
L 419.732193 294.59158 
L 418.478036 296.302455 
" style="fill:none;opacity:0.5;stroke:#ff0000;stroke-linecap:round;stroke-width:1.75;"/>
   </g>
   <g id="[&quot;g_s&quot;:3,&quot;g_t&quot;:6,&quot;coords&quot;:[[253.0, -934.0],[256.0, -932.0]],&quot;certainty&quot;:10]">
    <path clip-path="url(#p6056373485)" d="M 389.415249 308.714108 
C 392.291114 308.714108 395.049579 308.40611 397.083123 307.857947 
C 399.116667 307.309784 400.25926 306.566211 400.25926 305.790992 
C 400.25926 305.015773 399.116667 304.2722 397.083123 303.724037 
C 395.049579 303.175874 392.291114 302.867877 389.415249 302.867877 
C 386.539383 302.867877 383.780919 303.175874 381.747375 303.724037 
C 379.713831 304.2722 378.571238 305.015773 378.571238 305.790992 
C 378.571238 306.566211 379.713831 307.309784 381.747375 307.857947 
C 383.780919 308.40611 386.539383 308.714108 389.415249 308.714108 
z
" style="fill:#0000ff;opacity:0.2;stroke:#0000ff;stroke-linejoin:miter;stroke-width:2;"/>
   </g>
   <g id="[&quot;g_s&quot;:6,&quot;g_t&quot;:3,&quot;coords&quot;:[[256.0, -932.0],[253.0, -934.0]],&quot;certainty&quot;:10]">
    <path clip-path="url(#p6056373485)" d="M 395.330164 307.651156 
C 398.20603 307.651156 400.964494 307.343159 402.998038 306.794996 
C 405.031582 306.246833 406.174175 305.50326 406.174175 304.728041 
C 406.174175 303.952822 405.031582 303.209249 402.998038 302.661086 
C 400.964494 302.112923 398.20603 301.804926 395.330164 301.804926 
C 392.454299 301.804926 389.695834 302.112923 387.66229 302.661086 
C 385.628746 303.209249 384.486153 303.952822 384.486153 304.728041 
C 384.486153 305.50326 385.628746 306.246833 387.66229 306.794996 
C 389.695834 307.343159 392.454299 307.651156 395.330164 307.651156 
z
" style="fill:#ff0000;opacity:0.2;stroke:#ff0000;stroke-linejoin:miter;stroke-width:2;"/>
   </g>
   <g id="patch_24">
    <path d="M 389.415249 305.790992 
Q 391.389294 305.436243 391.449454 305.425431 
" style="fill:none;opacity:0.5;stroke:#ff0000;stroke-linecap:round;stroke-width:2.75;"/>
    <path d="M 389.707793 304.214391 
L 391.449454 305.425431 
L 390.238414 307.167092 
" style="fill:none;opacity:0.5;stroke:#ff0000;stroke-linecap:round;stroke-width:2.75;"/>
   </g>
   <g id="[&quot;g_s&quot;:4,&quot;g_t&quot;:1,&quot;coords&quot;:[[93.0, -674.0],[86.0, -672.0]],&quot;certainty&quot;:10]">
    <path clip-path="url(#p6056373485)" d="M 73.953104 170.530466 
C 76.828969 170.530466 79.587434 170.222468 81.620978 169.674305 
C 83.654521 169.126143 84.797115 168.38257 84.797115 167.607351 
C 84.797115 166.832131 83.654521 166.088559 81.620978 165.540396 
C 79.587434 164.992233 76.828969 164.684235 73.953104 164.684235 
C 71.077238 164.684235 68.318774 164.992233 66.28523 165.540396 
C 64.251686 166.088559 63.109092 166.832131 63.109092 167.607351 
C 63.109092 168.38257 64.251686 169.126143 66.28523 169.674305 
C 68.318774 170.222468 71.077238 170.530466 73.953104 170.530466 
z
" style="fill:#0000ff;opacity:0.2;stroke:#0000ff;stroke-linejoin:miter;stroke-width:2;"/>
   </g>
   <g id="[&quot;g_s&quot;:1,&quot;g_t&quot;:4,&quot;coords&quot;:[[86.0, -672.0],[93.0, -674.0]],&quot;certainty&quot;:10]">
    <path clip-path="url(#p6056373485)" d="M 60.151635 169.467515 
C 63.0275 169.467515 65.785965 169.159517 67.819509 168.611354 
C 69.853053 168.063191 70.995646 167.319619 70.995646 166.544399 
C 70.995646 165.76918 69.853053 165.025607 67.819509 164.477445 
C 65.785965 163.929282 63.0275 163.621284 60.151635 163.621284 
C 57.275769 163.621284 54.517305 163.929282 52.483761 164.477445 
C 50.450217 165.025607 49.307624 165.76918 49.307624 166.544399 
C 49.307624 167.319619 50.450217 168.063191 52.483761 168.611354 
C 54.517305 169.159517 57.275769 169.467515 60.151635 169.467515 
z
" style="fill:#ff0000;opacity:0.2;stroke:#ff0000;stroke-linejoin:miter;stroke-width:2;"/>
   </g>
   <g id="patch_25">
    <path d="M 73.953104 167.607351 
Q 68.048056 167.15256 64.081811 166.847091 
" style="fill:none;opacity:0.5;stroke:#ff0000;stroke-linecap:round;stroke-width:2.75;"/>
    <path d="M 65.462197 168.457846 
L 64.081811 166.847091 
L 65.692567 165.466705 
" style="fill:none;opacity:0.5;stroke:#ff0000;stroke-linecap:round;stroke-width:2.75;"/>
   </g>
   <g id="[&quot;g_s&quot;:5,&quot;g_t&quot;:2,&quot;coords&quot;:[[253.0, -414.0],[256.0, -412.0]],&quot;certainty&quot;:7]">
    <path clip-path="url(#p6056373485)" d="M 389.415249 31.549611 
C 391.506787 31.549611 393.512943 31.325613 394.991884 30.926949 
C 396.470825 30.528285 397.301803 29.987505 397.301803 29.423709 
C 397.301803 28.859913 396.470825 28.319133 394.991884 27.920469 
C 393.512943 27.521805 391.506787 27.297807 389.415249 27.297807 
C 387.32371 27.297807 385.317554 27.521805 383.838613 27.920469 
C 382.359672 28.319133 381.528695 28.859913 381.528695 29.423709 
C 381.528695 29.987505 382.359672 30.528285 383.838613 30.926949 
C 385.317554 31.325613 387.32371 31.549611 389.415249 31.549611 
z
" style="fill:#0000ff;opacity:0.2;stroke:#0000ff;stroke-linejoin:miter;stroke-width:2;"/>
   </g>
   <g id="[&quot;g_s&quot;:2,&quot;g_t&quot;:5,&quot;coords&quot;:[[256.0, -412.0],[253.0, -414.0]],&quot;certainty&quot;:7]">
    <path clip-path="url(#p6056373485)" d="M 395.330164 30.48666 
C 397.421703 30.48666 399.427859 30.262662 400.9068 29.863998 
C 402.385741 29.465334 403.216718 28.924554 403.216718 28.360758 
C 403.216718 27.796962 402.385741 27.256182 400.9068 26.857518 
C 399.427859 26.458854 397.421703 26.234856 395.330164 26.234856 
C 393.238626 26.234856 391.23247 26.458854 389.753529 26.857518 
C 388.274588 27.256182 387.44361 27.796962 387.44361 28.360758 
C 387.44361 28.924554 388.274588 29.465334 389.753529 29.863998 
C 391.23247 30.262662 393.238626 30.48666 395.330164 30.48666 
z
" style="fill:#ff0000;opacity:0.2;stroke:#ff0000;stroke-linejoin:miter;stroke-width:2;"/>
   </g>
   <g id="patch_26">
    <path d="M 389.415249 29.423709 
Q 391.389294 29.068959 391.971423 28.964347 
" style="fill:none;opacity:0.5;stroke:#ff0000;stroke-linecap:round;stroke-width:2;"/>
    <path d="M 390.229762 27.753307 
L 391.971423 28.964347 
L 390.760383 30.706008 
" style="fill:none;opacity:0.5;stroke:#ff0000;stroke-linecap:round;stroke-width:2;"/>
   </g>
   <g id="[&quot;g_s&quot;:6,&quot;g_t&quot;:3,&quot;coords&quot;:[[263.0, -432.0],[270.0, -432.0]],&quot;certainty&quot;:6]">
    <path clip-path="url(#p6056373485)" d="M 409.131633 40.850433 
C 410.961729 40.850433 412.717116 40.654435 414.011189 40.305604 
C 415.305262 39.956773 416.032367 39.48359 416.032367 38.990269 
C 416.032367 38.496947 415.305262 38.023765 414.011189 37.674934 
C 412.717116 37.326103 410.961729 37.130104 409.131633 37.130104 
C 407.301537 37.130104 405.54615 37.326103 404.252077 37.674934 
C 402.958003 38.023765 402.230899 38.496947 402.230899 38.990269 
C 402.230899 39.48359 402.958003 39.956773 404.252077 40.305604 
C 405.54615 40.654435 407.301537 40.850433 409.131633 40.850433 
z
" style="fill:#0000ff;opacity:0.2;stroke:#0000ff;stroke-linejoin:miter;stroke-width:2;"/>
   </g>
   <g id="[&quot;g_s&quot;:3,&quot;g_t&quot;:6,&quot;coords&quot;:[[270.0, -432.0],[263.0, -432.0]],&quot;certainty&quot;:6]">
    <path clip-path="url(#p6056373485)" d="M 422.933102 40.850433 
C 424.763198 40.850433 426.518585 40.654435 427.812658 40.305604 
C 429.106731 39.956773 429.833836 39.48359 429.833836 38.990269 
C 429.833836 38.496947 429.106731 38.023765 427.812658 37.674934 
C 426.518585 37.326103 424.763198 37.130104 422.933102 37.130104 
C 421.103006 37.130104 419.347619 37.326103 418.053546 37.674934 
C 416.759472 38.023765 416.032367 38.496947 416.032367 38.990269 
C 416.032367 39.48359 416.759472 39.956773 418.053546 40.305604 
C 419.347619 40.654435 421.103006 40.850433 422.933102 40.850433 
z
" style="fill:#ff0000;opacity:0.2;stroke:#ff0000;stroke-linejoin:miter;stroke-width:2;"/>
   </g>
   <g id="patch_27">
    <path d="M 409.131633 38.990269 
Q 415.033311 38.990269 419.697552 38.990269 
" style="fill:none;opacity:0.5;stroke:#ff0000;stroke-linecap:round;stroke-width:1.75;"/>
    <path d="M 418.197552 37.490269 
L 419.697552 38.990269 
L 418.197552 40.490269 
" style="fill:none;opacity:0.5;stroke:#ff0000;stroke-linecap:round;stroke-width:1.75;"/>
   </g>
   <g id="patch_28">
    <path clip-path="url(#p6056373485)" d="M 67.052369 169.733253 
C 69.666792 169.733253 72.174487 169.453255 74.023164 168.954925 
C 75.87184 168.456595 76.910561 167.78062 76.910561 167.075875 
C 76.910561 166.37113 75.87184 165.695155 74.023164 165.196825 
C 72.174487 164.698495 69.666792 164.418497 67.052369 164.418497 
C 64.437946 164.418497 61.930251 164.698495 60.081575 165.196825 
C 58.232898 165.695155 57.194177 166.37113 57.194177 167.075875 
C 57.194177 167.78062 58.232898 168.456595 60.081575 168.954925 
C 61.930251 169.453255 64.437946 169.733253 67.052369 169.733253 
z
" style="fill:#008000;opacity:0.2;stroke:#008000;stroke-linejoin:miter;stroke-width:2;"/>
   </g>
   <g id="patch_29">
    <path clip-path="url(#p6056373485)" d="M 392.372706 31.549611 
C 394.98713 31.549611 397.494825 31.269613 399.343501 30.771283 
C 401.192177 30.272953 402.230899 29.596978 402.230899 28.892233 
C 402.230899 28.187489 401.192177 27.511513 399.343501 27.013184 
C 397.494825 26.514854 394.98713 26.234856 392.372706 26.234856 
C 389.758283 26.234856 387.250588 26.514854 385.401912 27.013184 
C 383.553236 27.511513 382.514514 28.187489 382.514514 28.892233 
C 382.514514 29.596978 383.553236 30.272953 385.401912 30.771283 
C 387.250588 31.269613 389.758283 31.549611 392.372706 31.549611 
z
" style="fill:#008000;opacity:0.2;stroke:#008000;stroke-linejoin:miter;stroke-width:2;"/>
   </g>
   <g id="patch_30">
    <path clip-path="url(#p6056373485)" d="M 416.032367 41.647647 
C 418.64679 41.647647 421.154486 41.367648 423.003162 40.869319 
C 424.851838 40.370989 425.890559 39.695014 425.890559 38.990269 
C 425.890559 38.285524 424.851838 37.609549 423.003162 37.111219 
C 421.154486 36.612889 418.64679 36.332891 416.032367 36.332891 
C 413.417944 36.332891 410.910249 36.612889 409.061573 37.111219 
C 407.212897 37.609549 406.174175 38.285524 406.174175 38.990269 
C 406.174175 39.695014 407.212897 40.370989 409.061573 40.869319 
C 410.910249 41.367648 413.417944 41.647647 416.032367 41.647647 
z
" style="fill:#008000;opacity:0.2;stroke:#008000;stroke-linejoin:miter;stroke-width:2;"/>
   </g>
   <g id="patch_31">
    <path clip-path="url(#p6056373485)" d="M 227.740899 169.733253 
C 230.355323 169.733253 232.863018 169.453255 234.711694 168.954925 
C 236.56037 168.456595 237.599091 167.78062 237.599091 167.075875 
C 237.599091 166.37113 236.56037 165.695155 234.711694 165.196825 
C 232.863018 164.698495 230.355323 164.418497 227.740899 164.418497 
C 225.126476 164.418497 222.618781 164.698495 220.770105 165.196825 
C 218.921429 165.695155 217.882707 166.37113 217.882707 167.075875 
C 217.882707 167.78062 218.921429 168.456595 220.770105 168.954925 
C 222.618781 169.453255 225.126476 169.733253 227.740899 169.733253 
z
" style="fill:#008000;opacity:0.2;stroke:#008000;stroke-linejoin:miter;stroke-width:2;"/>
   </g>
   <g id="patch_32">
    <path clip-path="url(#p6056373485)" d="M 416.032367 297.818859 
C 418.64679 297.818859 421.154486 297.538861 423.003162 297.040531 
C 424.851838 296.542201 425.890559 295.866226 425.890559 295.161481 
C 425.890559 294.456736 424.851838 293.780761 423.003162 293.282431 
C 421.154486 292.784102 418.64679 292.504103 416.032367 292.504103 
C 413.417944 292.504103 410.910249 292.784102 409.061573 293.282431 
C 407.212897 293.780761 406.174175 294.456736 406.174175 295.161481 
C 406.174175 295.866226 407.212897 296.542201 409.061573 297.040531 
C 410.910249 297.538861 413.417944 297.818859 416.032367 297.818859 
z
" style="fill:#008000;opacity:0.2;stroke:#008000;stroke-linejoin:miter;stroke-width:2;"/>
   </g>
   <g id="patch_33">
    <path clip-path="url(#p6056373485)" d="M 392.372706 307.916894 
C 394.98713 307.916894 397.494825 307.636896 399.343501 307.138566 
C 401.192177 306.640237 402.230899 305.964261 402.230899 305.259517 
C 402.230899 304.554772 401.192177 303.878797 399.343501 303.380467 
C 397.494825 302.882137 394.98713 302.602139 392.372706 302.602139 
C 389.758283 302.602139 387.250588 302.882137 385.401912 303.380467 
C 383.553236 303.878797 382.514514 304.554772 382.514514 305.259517 
C 382.514514 305.964261 383.553236 306.640237 385.401912 307.138566 
C 387.250588 307.636896 389.758283 307.916894 392.372706 307.916894 
z
" style="fill:#008000;opacity:0.2;stroke:#008000;stroke-linejoin:miter;stroke-width:2;"/>
   </g>
   <g id="patch_34">
    <path clip-path="url(#p6056373485)" d="M 60.151635 177.17391 
C 70.609327 177.17391 80.640107 176.053918 88.034813 174.060599 
C 95.429518 172.067279 99.584403 169.363379 99.584403 166.544399 
C 99.584403 163.72542 95.429518 161.02152 88.034813 159.0282 
C 80.640107 157.034881 70.609327 155.914889 60.151635 155.914889 
C 49.693942 155.914889 39.663162 157.034881 32.268457 159.0282 
C 24.873752 161.02152 20.718867 163.72542 20.718867 166.544399 
C 20.718867 169.363379 24.873752 172.067279 32.268457 174.060599 
C 39.663162 176.053918 49.693942 177.17391 60.151635 177.17391 
z
" style="fill:none;opacity:0.2;stroke:#ff0000;stroke-linejoin:miter;stroke-width:2;"/>
   </g>
   <g id="patch_35">
    <path clip-path="url(#p6056373485)" d="M 204.081239 178.236861 
C 214.538931 178.236861 224.569711 177.116869 231.964416 175.12355 
C 239.359121 173.13023 243.514007 170.42633 243.514007 167.607351 
C 243.514007 164.788371 239.359121 162.084471 231.964416 160.091151 
C 224.569711 158.097832 214.538931 156.97784 204.081239 156.97784 
C 193.623546 156.97784 183.592766 158.097832 176.198061 160.091151 
C 168.803356 162.084471 164.64847 164.788371 164.64847 167.607351 
C 164.64847 170.42633 168.803356 173.13023 176.198061 175.12355 
C 183.592766 177.116869 193.623546 178.236861 204.081239 178.236861 
z
" style="fill:none;opacity:0.2;stroke:#0000ff;stroke-linejoin:miter;stroke-width:2;"/>
   </g>
   <g id="patch_36">
    <path clip-path="url(#p6056373485)" d="M 60.151635 171.859155 
C 65.380481 171.859155 70.395871 171.299159 74.093224 170.302499 
C 77.790576 169.305839 79.868019 167.953889 79.868019 166.544399 
C 79.868019 165.13491 77.790576 163.78296 74.093224 162.7863 
C 70.395871 161.78964 65.380481 161.229644 60.151635 161.229644 
C 54.922789 161.229644 49.907398 161.78964 46.210046 162.7863 
C 42.512693 163.78296 40.435251 165.13491 40.435251 166.544399 
C 40.435251 167.953889 42.512693 169.305839 46.210046 170.302499 
C 49.907398 171.299159 54.922789 171.859155 60.151635 171.859155 
z
" style="fill:none;opacity:0.2;stroke:#008000;stroke-linejoin:miter;stroke-width:2;"/>
   </g>
   <g id="patch_37">
    <path clip-path="url(#p6056373485)" d="M 73.953104 172.922106 
C 79.18195 172.922106 84.19734 172.36211 87.894693 171.36545 
C 91.592045 170.36879 93.669488 169.01684 93.669488 167.607351 
C 93.669488 166.197861 91.592045 164.845911 87.894693 163.849251 
C 84.19734 162.852591 79.18195 162.292595 73.953104 162.292595 
C 68.724257 162.292595 63.708867 162.852591 60.011515 163.849251 
C 56.314162 164.845911 54.23672 166.197861 54.23672 167.607351 
C 54.23672 169.01684 56.314162 170.36879 60.011515 171.36545 
C 63.708867 172.36211 68.724257 172.922106 73.953104 172.922106 
z
" style="fill:none;opacity:0.2;stroke:#008000;stroke-linejoin:miter;stroke-width:2;"/>
   </g>
   <g id="patch_38">
    <path d="M 67.052369 167.075875 
Q 229.712538 97.984054 392.372706 28.892233 
" style="fill:none;opacity:0.5;stroke:#008000;stroke-linecap:round;stroke-width:2;"/>
   </g>
   <g id="patch_39">
    <path d="M 61.561673 166.652997 
Q 66.056682 166.99919 70.551692 167.345383 
" style="fill:none;opacity:0.5;stroke:#800080;stroke-linecap:round;stroke-width:2;"/>
    <path d="M 62.942059 168.263752 
L 61.561673 166.652997 
L 63.172428 165.27261 
" style="fill:none;opacity:0.5;stroke:#800080;stroke-linecap:round;stroke-width:2;"/>
    <path d="M 69.171306 165.734627 
L 70.551692 167.345383 
L 68.940936 168.725769 
" style="fill:none;opacity:0.5;stroke:#800080;stroke-linecap:round;stroke-width:2;"/>
   </g>
   <g id="patch_40">
    <path d="M 392.372706 28.892233 
Q 404.202537 33.941251 416.032367 38.990269 
" style="fill:none;opacity:0.5;stroke:#008000;stroke-linecap:round;stroke-width:2;"/>
   </g>
   <g id="patch_41">
    <path d="M 393.938248 28.610895 
Q 393.356119 28.715507 392.77399 28.82012 
" style="fill:none;opacity:0.5;stroke:#800080;stroke-linecap:round;stroke-width:2;"/>
    <path d="M 392.196587 27.399855 
L 393.938248 28.610895 
L 392.727208 30.352556 
" style="fill:none;opacity:0.5;stroke:#800080;stroke-linecap:round;stroke-width:2;"/>
    <path d="M 394.515651 30.03116 
L 392.77399 28.82012 
L 393.98503 27.078459 
" style="fill:none;opacity:0.5;stroke:#800080;stroke-linecap:round;stroke-width:2;"/>
   </g>
   <g id="patch_42">
    <path d="M 416.032367 38.990269 
Q 321.886633 103.033072 227.740899 167.075875 
" style="fill:none;opacity:0.5;stroke:#008000;stroke-linecap:round;stroke-width:2;"/>
   </g>
   <g id="patch_43">
    <path d="M 421.518888 38.990269 
Q 417.031424 38.990269 412.54396 38.990269 
" style="fill:none;opacity:0.5;stroke:#800080;stroke-linecap:round;stroke-width:2;"/>
    <path d="M 420.018888 37.490269 
L 421.518888 38.990269 
L 420.018888 40.490269 
" style="fill:none;opacity:0.5;stroke:#800080;stroke-linecap:round;stroke-width:2;"/>
    <path d="M 414.04396 40.490269 
L 412.54396 38.990269 
L 414.04396 37.490269 
" style="fill:none;opacity:0.5;stroke:#800080;stroke-linecap:round;stroke-width:2;"/>
   </g>
   <g id="patch_44">
    <path d="M 227.740899 167.075875 
Q 321.886633 231.118678 416.032367 295.161481 
" style="fill:none;opacity:0.5;stroke:#008000;stroke-linecap:round;stroke-width:2;"/>
   </g>
   <g id="patch_45">
    <path d="M 249.986703 166.576159 
Q 228.741641 167.053395 207.496578 167.530631 
" style="fill:none;opacity:0.5;stroke:#800080;stroke-linecap:round;stroke-width:2;"/>
    <path d="M 248.453395 165.110224 
L 249.986703 166.576159 
L 248.520768 168.109468 
" style="fill:none;opacity:0.5;stroke:#800080;stroke-linecap:round;stroke-width:2;"/>
    <path d="M 209.029886 168.996566 
L 207.496578 167.530631 
L 208.962513 165.997322 
" style="fill:none;opacity:0.5;stroke:#800080;stroke-linecap:round;stroke-width:2;"/>
   </g>
   <g id="patch_46">
    <path d="M 416.032367 295.161481 
Q 404.202537 300.210499 392.372706 305.259517 
" style="fill:none;opacity:0.5;stroke:#008000;stroke-linecap:round;stroke-width:2;"/>
   </g>
   <g id="patch_47">
    <path d="M 421.535373 294.313829 
Q 417.021315 295.009149 412.507258 295.70447 
" style="fill:none;opacity:0.5;stroke:#800080;stroke-linecap:round;stroke-width:2;"/>
    <path d="M 419.824499 293.059672 
L 421.535373 294.313829 
L 420.281216 296.024703 
" style="fill:none;opacity:0.5;stroke:#800080;stroke-linecap:round;stroke-width:2;"/>
    <path d="M 414.218132 296.958627 
L 412.507258 295.70447 
L 413.761415 293.993596 
" style="fill:none;opacity:0.5;stroke:#800080;stroke-linecap:round;stroke-width:2;"/>
   </g>
   <g id="patch_48">
    <path d="M 392.372706 305.259517 
Q 229.712538 236.167696 67.052369 167.075875 
" style="fill:none;opacity:0.5;stroke:#008000;stroke-linecap:round;stroke-width:2;"/>
   </g>
   <g id="patch_49">
    <path d="M 393.938248 304.978178 
Q 393.356119 305.082791 392.77399 305.187403 
" style="fill:none;opacity:0.5;stroke:#800080;stroke-linecap:round;stroke-width:2;"/>
    <path d="M 392.196587 303.767138 
L 393.938248 304.978178 
L 392.727208 306.719839 
" style="fill:none;opacity:0.5;stroke:#800080;stroke-linecap:round;stroke-width:2;"/>
    <path d="M 394.515651 306.398443 
L 392.77399 305.187403 
L 393.98503 303.445742 
" style="fill:none;opacity:0.5;stroke:#800080;stroke-linecap:round;stroke-width:2;"/>
   </g>
   <g id="line2d_1">
    <path clip-path="url(#p6056373485)" d="M 60.151635 166.544399 
L 395.330164 28.360758 
L 422.933102 38.990269 
L 251.40056 166.544399 
L 422.933102 294.09853 
L 395.330164 304.728041 
" style="fill:none;stroke:#ff0000;stroke-linecap:square;stroke-width:0.2;"/>
   </g>
   <g id="line2d_2">
    <path clip-path="url(#p6056373485)" d="M 204.081239 167.607351 
L 409.131633 296.224432 
L 389.415249 305.790992 
L 73.953104 167.607351 
L 389.415249 29.423709 
L 409.131633 38.990269 
" style="fill:none;stroke:#0000ff;stroke-linecap:square;stroke-width:0.2;"/>
   </g>
  </g>
 </g>
 <defs>
  <clipPath id="p6056373485">
   <rect height="307.51175" width="409.903625" x="37.576375" y="13.32"/>
  </clipPath>
 </defs>
</svg>
