<?xml version="1.0" encoding="utf-8" standalone="no"?>
<!DOCTYPE svg PUBLIC "-//W3C//DTD SVG 1.1//EN"
  "http://www.w3.org/Graphics/SVG/1.1/DTD/svg11.dtd">
<!-- Created with matplotlib (http://matplotlib.org/) -->
<svg height="345.6pt" version="1.1" viewBox="0 0 460.8 345.6" width="460.8pt" xmlns="http://www.w3.org/2000/svg" xmlns:xlink="http://www.w3.org/1999/xlink">
 <defs>
  <style type="text/css">
*{stroke-linecap:butt;stroke-linejoin:round;}
  </style>
 </defs>
 <g id="figure_1">
  <g id="patch_1">
   <path d="M 0 345.6 
L 460.8 345.6 
L 460.8 0 
L 0 0 
z
" style="fill:#ffffff;"/>
  </g>
  <g id="axes_1">
   <g id="patch_2">
    <path clip-path="url(#pad089ba54c)" d="M 203.773663 167.718533 
C 204.564264 167.718533 205.322591 167.650818 205.881631 167.530303 
C 206.440671 167.409787 206.75478 167.24631 206.75478 167.075875 
C 206.75478 166.90544 206.440671 166.741963 205.881631 166.621447 
C 205.322591 166.500932 204.564264 166.433217 203.773663 166.433217 
C 202.983061 166.433217 202.224734 166.500932 201.665695 166.621447 
C 201.106655 166.741963 200.792546 166.90544 200.792546 167.075875 
C 200.792546 167.24631 201.106655 167.409787 201.665695 167.530303 
C 202.224734 167.650818 202.983061 167.718533 203.773663 167.718533 
z
" style="fill:#ff0000;opacity:0.2;stroke:#ff0000;stroke-linejoin:miter;stroke-width:2;"/>
   </g>
   <g id="patch_3">
    <path clip-path="url(#pad089ba54c)" d="M 425.8669 300.748694 
C 426.657501 300.748694 427.415828 300.68098 427.974868 300.560464 
C 428.533908 300.439948 428.848017 300.276471 428.848017 300.106036 
C 428.848017 299.935602 428.533908 299.772124 427.974868 299.651609 
C 427.415828 299.531093 426.657501 299.463379 425.8669 299.463379 
C 425.076298 299.463379 424.317971 299.531093 423.758932 299.651609 
C 423.199892 299.772124 422.885783 299.935602 422.885783 300.106036 
C 422.885783 300.276471 423.199892 300.439948 423.758932 300.560464 
C 424.317971 300.68098 425.076298 300.748694 425.8669 300.748694 
z
" style="fill:#ff0000;opacity:0.2;stroke:#ff0000;stroke-linejoin:miter;stroke-width:2;"/>
   </g>
   <g id="patch_4">
    <path clip-path="url(#pad089ba54c)" d="M 400.527403 306.853943 
C 401.318004 306.853943 402.076331 306.786229 402.635371 306.665713 
C 403.194411 306.545197 403.50852 306.38172 403.50852 306.211285 
C 403.50852 306.040851 403.194411 305.877373 402.635371 305.756858 
C 402.076331 305.636342 401.318004 305.568628 400.527403 305.568628 
C 399.736801 305.568628 398.978474 305.636342 398.419435 305.756858 
C 397.860395 305.877373 397.546286 306.040851 397.546286 306.211285 
C 397.546286 306.38172 397.860395 306.545197 398.419435 306.665713 
C 398.978474 306.786229 399.736801 306.853943 400.527403 306.853943 
z
" style="fill:#ff0000;opacity:0.2;stroke:#ff0000;stroke-linejoin:miter;stroke-width:2;"/>
   </g>
   <g id="patch_5">
    <path clip-path="url(#pad089ba54c)" d="M 59.189475 167.718533 
C 59.980077 167.718533 60.738404 167.650818 61.297443 167.530303 
C 61.856483 167.409787 62.170593 167.24631 62.170593 167.075875 
C 62.170593 166.90544 61.856483 166.741963 61.297443 166.621447 
C 60.738404 166.500932 59.980077 166.433217 59.189475 166.433217 
C 58.398874 166.433217 57.640547 166.500932 57.081507 166.621447 
C 56.522467 166.741963 56.208358 166.90544 56.208358 167.075875 
C 56.208358 167.24631 56.522467 167.409787 57.081507 167.530303 
C 57.640547 167.650818 58.398874 167.718533 59.189475 167.718533 
z
" style="fill:#ff0000;opacity:0.2;stroke:#ff0000;stroke-linejoin:miter;stroke-width:2;"/>
   </g>
   <g id="patch_6">
    <path clip-path="url(#pad089ba54c)" d="M 400.527403 28.583122 
C 401.318004 28.583122 402.076331 28.515408 402.635371 28.394892 
C 403.194411 28.274377 403.50852 28.110899 403.50852 27.940465 
C 403.50852 27.77003 403.194411 27.606553 402.635371 27.486037 
C 402.076331 27.365521 401.318004 27.297807 400.527403 27.297807 
C 399.736801 27.297807 398.978474 27.365521 398.419435 27.486037 
C 397.860395 27.606553 397.546286 27.77003 397.546286 27.940465 
C 397.546286 28.110899 397.860395 28.274377 398.419435 28.394892 
C 398.978474 28.515408 399.736801 28.583122 400.527403 28.583122 
z
" style="fill:#ff0000;opacity:0.2;stroke:#ff0000;stroke-linejoin:miter;stroke-width:2;"/>
   </g>
   <g id="patch_7">
    <path clip-path="url(#pad089ba54c)" d="M 425.8669 34.688371 
C 426.657501 34.688371 427.415828 34.620657 427.974868 34.500141 
C 428.533908 34.379626 428.848017 34.216148 428.848017 34.045714 
C 428.848017 33.875279 428.533908 33.711802 427.974868 33.591286 
C 427.415828 33.47077 426.657501 33.403056 425.8669 33.403056 
C 425.076298 33.403056 424.317971 33.47077 423.758932 33.591286 
C 423.199892 33.711802 422.885783 33.875279 422.885783 34.045714 
C 422.885783 34.216148 423.199892 34.379626 423.758932 34.500141 
C 424.317971 34.620657 425.076298 34.688371 425.8669 34.688371 
z
" style="fill:#ff0000;opacity:0.2;stroke:#ff0000;stroke-linejoin:miter;stroke-width:2;"/>
   </g>
   <g id="patch_8">
    <path clip-path="url(#pad089ba54c)" d="M 176.943608 167.718533 
C 177.734209 167.718533 178.492536 167.650818 179.051576 167.530303 
C 179.610615 167.409787 179.924725 167.24631 179.924725 167.075875 
C 179.924725 166.90544 179.610615 166.741963 179.051576 166.621447 
C 178.492536 166.500932 177.734209 166.433217 176.943608 166.433217 
C 176.153006 166.433217 175.394679 166.500932 174.835639 166.621447 
C 174.2766 166.741963 173.96249 166.90544 173.96249 167.075875 
C 173.96249 167.24631 174.2766 167.409787 174.835639 167.530303 
C 175.394679 167.650818 176.153006 167.718533 176.943608 167.718533 
z
" style="fill:#0000ff;opacity:0.2;stroke:#0000ff;stroke-linejoin:miter;stroke-width:2;"/>
   </g>
   <g id="patch_9">
    <path clip-path="url(#pad089ba54c)" d="M 406.489638 302.03401 
C 407.280239 302.03401 408.038566 301.966295 408.597606 301.84578 
C 409.156645 301.725264 409.470755 301.561787 409.470755 301.391352 
C 409.470755 301.220917 409.156645 301.05744 408.597606 300.936924 
C 408.038566 300.816409 407.280239 300.748694 406.489638 300.748694 
C 405.699036 300.748694 404.940709 300.816409 404.381669 300.936924 
C 403.82263 301.05744 403.50852 301.220917 403.50852 301.391352 
C 403.50852 301.561787 403.82263 301.725264 404.381669 301.84578 
C 404.940709 301.966295 405.699036 302.03401 406.489638 302.03401 
z
" style="fill:#0000ff;opacity:0.2;stroke:#0000ff;stroke-linejoin:miter;stroke-width:2;"/>
   </g>
   <g id="patch_10">
    <path clip-path="url(#pad089ba54c)" d="M 385.621817 306.853943 
C 386.412418 306.853943 387.170745 306.786229 387.729785 306.665713 
C 388.288825 306.545197 388.602934 306.38172 388.602934 306.211285 
C 388.602934 306.040851 388.288825 305.877373 387.729785 305.756858 
C 387.170745 305.636342 386.412418 305.568628 385.621817 305.568628 
C 384.831215 305.568628 384.072888 305.636342 383.513848 305.756858 
C 382.954809 305.877373 382.640699 306.040851 382.640699 306.211285 
C 382.640699 306.38172 382.954809 306.545197 383.513848 306.665713 
C 384.072888 306.786229 384.831215 306.853943 385.621817 306.853943 
z
" style="fill:#0000ff;opacity:0.2;stroke:#0000ff;stroke-linejoin:miter;stroke-width:2;"/>
   </g>
   <g id="patch_11">
    <path clip-path="url(#pad089ba54c)" d="M 78.566738 167.718533 
C 79.357339 167.718533 80.115666 167.650818 80.674706 167.530303 
C 81.233745 167.409787 81.547855 167.24631 81.547855 167.075875 
C 81.547855 166.90544 81.233745 166.741963 80.674706 166.621447 
C 80.115666 166.500932 79.357339 166.433217 78.566738 166.433217 
C 77.776136 166.433217 77.017809 166.500932 76.458769 166.621447 
C 75.89973 166.741963 75.58562 166.90544 75.58562 167.075875 
C 75.58562 167.24631 75.89973 167.409787 76.458769 167.530303 
C 77.017809 167.650818 77.776136 167.718533 78.566738 167.718533 
z
" style="fill:#0000ff;opacity:0.2;stroke:#0000ff;stroke-linejoin:miter;stroke-width:2;"/>
   </g>
   <g id="patch_12">
    <path clip-path="url(#pad089ba54c)" d="M 385.621817 28.583122 
C 386.412418 28.583122 387.170745 28.515408 387.729785 28.394892 
C 388.288825 28.274377 388.602934 28.110899 388.602934 27.940465 
C 388.602934 27.77003 388.288825 27.606553 387.729785 27.486037 
C 387.170745 27.365521 386.412418 27.297807 385.621817 27.297807 
C 384.831215 27.297807 384.072888 27.365521 383.513848 27.486037 
C 382.954809 27.606553 382.640699 27.77003 382.640699 27.940465 
C 382.640699 28.110899 382.954809 28.274377 383.513848 28.394892 
C 384.072888 28.515408 384.831215 28.583122 385.621817 28.583122 
z
" style="fill:#0000ff;opacity:0.2;stroke:#0000ff;stroke-linejoin:miter;stroke-width:2;"/>
   </g>
   <g id="patch_13">
    <path clip-path="url(#pad089ba54c)" d="M 406.489638 33.403056 
C 407.280239 33.403056 408.038566 33.335341 408.597606 33.214826 
C 409.156645 33.09431 409.470755 32.930833 409.470755 32.760398 
C 409.470755 32.589963 409.156645 32.426486 408.597606 32.30597 
C 408.038566 32.185455 407.280239 32.11774 406.489638 32.11774 
C 405.699036 32.11774 404.940709 32.185455 404.381669 32.30597 
C 403.82263 32.426486 403.50852 32.589963 403.50852 32.760398 
C 403.50852 32.930833 403.82263 33.09431 404.381669 33.214826 
C 404.940709 33.335341 405.699036 33.403056 406.489638 33.403056 
z
" style="fill:#0000ff;opacity:0.2;stroke:#0000ff;stroke-linejoin:miter;stroke-width:2;"/>
   </g>
   <g id="patch_14">
    <path clip-path="url(#pad089ba54c)" d="M 203.773663 167.075875 
C 203.773663 213.668564 264.886567 268.937134 425.8669 300.106036 
C 425.8669 302.997996 418.414107 305.889957 400.527403 306.211285 
C 168.000256 278.89833 59.189475 221.701787 59.189475 167.075875 
C 59.189475 112.449963 168.000256 55.25342 400.527403 27.940465 
C 418.414107 28.261793 425.8669 31.153754 425.8669 34.045714 
C 264.886567 65.214616 203.773663 120.483186 203.773663 167.075875 
" style="fill:none;stroke:#ff0000;stroke-linejoin:miter;stroke-width:0.5;"/>
   </g>
   <g id="patch_15">
    <path clip-path="url(#pad089ba54c)" d="M 176.943608 167.075875 
C 176.943608 224.915076 258.924333 267.973147 406.489638 301.391352 
C 406.489638 304.604641 400.527403 305.889957 385.621817 306.211285 
C 202.283104 280.183645 78.566738 227.164378 78.566738 167.075875 
C 78.566738 106.987372 202.283104 53.968105 385.621817 27.940465 
C 400.527403 28.261793 406.489638 29.547109 406.489638 32.760398 
C 258.924333 66.178603 176.943608 109.236674 176.943608 167.075875 
" style="fill:none;stroke:#0000ff;stroke-linejoin:miter;stroke-width:0.5;"/>
   </g>
   <g id="[&quot;g_s&quot;:1,&quot;g_t&quot;:1,&quot;coords&quot;:[[231.0, -370.0],[213.0, -370.0]],&quot;certainty&quot;:12]">
    <path clip-path="url(#pad089ba54c)" d="M 203.773663 169.164513 
C 206.343118 169.164513 208.807681 168.944441 210.62456 168.552765 
C 212.441439 168.161089 213.462294 167.629788 213.462294 167.075875 
C 213.462294 166.521962 212.441439 165.990661 210.62456 165.598985 
C 208.807681 165.207309 206.343118 164.987237 203.773663 164.987237 
C 201.204208 164.987237 198.739645 165.207309 196.922766 165.598985 
C 195.105887 165.990661 194.085032 166.521962 194.085032 167.075875 
C 194.085032 167.629788 195.105887 168.161089 196.922766 168.552765 
C 198.739645 168.944441 201.204208 169.164513 203.773663 169.164513 
z
" style="fill:#0000ff;opacity:0.2;stroke:#0000ff;stroke-linejoin:miter;stroke-width:2;"/>
   </g>
   <g id="[&quot;g_s&quot;:1,&quot;g_t&quot;:1,&quot;coords&quot;:[[213.0, -370.0],[231.0, -370.0]],&quot;certainty&quot;:12]">
    <path clip-path="url(#pad089ba54c)" d="M 176.943608 169.164513 
C 179.513063 169.164513 181.977625 168.944441 183.794504 168.552765 
C 185.611383 168.161089 186.632239 167.629788 186.632239 167.075875 
C 186.632239 166.521962 185.611383 165.990661 183.794504 165.598985 
C 181.977625 165.207309 179.513063 164.987237 176.943608 164.987237 
C 174.374152 164.987237 171.90959 165.207309 170.092711 165.598985 
C 168.275832 165.990661 167.254976 166.521962 167.254976 167.075875 
C 167.254976 167.629788 168.275832 168.161089 170.092711 168.552765 
C 171.90959 168.944441 174.374152 169.164513 176.943608 169.164513 
z
" style="fill:#ff0000;opacity:0.2;stroke:#ff0000;stroke-linejoin:miter;stroke-width:2;"/>
   </g>
   <g id="patch_16">
    <path d="M 203.773663 167.075875 
Q 191.359195 167.075875 181.242823 167.075875 
" style="fill:none;opacity:0.5;stroke:#0000ff;stroke-linecap:round;stroke-width:3.25;"/>
    <path d="M 182.742823 168.575875 
L 181.242823 167.075875 
L 182.742823 165.575875 
" style="fill:none;opacity:0.5;stroke:#0000ff;stroke-linecap:round;stroke-width:3.25;"/>
   </g>
   <g id="[&quot;g_s&quot;:2,&quot;g_t&quot;:2,&quot;coords&quot;:[[380.0, -784.0],[367.0, -788.0]],&quot;certainty&quot;:6]">
    <path clip-path="url(#pad089ba54c)" d="M 425.8669 301.230688 
C 427.250452 301.230688 428.577525 301.112187 429.555844 300.901285 
C 430.534164 300.690383 431.083855 300.404297 431.083855 300.106036 
C 431.083855 299.807775 430.534164 299.52169 429.555844 299.310788 
C 428.577525 299.099886 427.250452 298.981385 425.8669 298.981385 
C 424.483347 298.981385 423.156275 299.099886 422.177955 299.310788 
C 421.199636 299.52169 420.649945 299.807775 420.649945 300.106036 
C 420.649945 300.404297 421.199636 300.690383 422.177955 300.901285 
C 423.156275 301.112187 424.483347 301.230688 425.8669 301.230688 
z
" style="fill:#0000ff;opacity:0.2;stroke:#0000ff;stroke-linejoin:miter;stroke-width:2;"/>
   </g>
   <g id="[&quot;g_s&quot;:2,&quot;g_t&quot;:2,&quot;coords&quot;:[[367.0, -788.0],[380.0, -784.0]],&quot;certainty&quot;:6]">
    <path clip-path="url(#pad089ba54c)" d="M 406.489638 302.516003 
C 407.87319 302.516003 409.200262 302.397503 410.178582 302.1866 
C 411.156901 301.975698 411.706593 301.689613 411.706593 301.391352 
C 411.706593 301.093091 411.156901 300.807006 410.178582 300.596104 
C 409.200262 300.385201 407.87319 300.266701 406.489638 300.266701 
C 405.106085 300.266701 403.779013 300.385201 402.800693 300.596104 
C 401.822374 300.807006 401.272682 301.093091 401.272682 301.391352 
C 401.272682 301.689613 401.822374 301.975698 402.800693 302.1866 
C 403.779013 302.397503 405.106085 302.516003 406.489638 302.516003 
z
" style="fill:#ff0000;opacity:0.2;stroke:#ff0000;stroke-linejoin:miter;stroke-width:2;"/>
   </g>
   <g id="patch_17">
    <path d="M 425.8669 300.106036 
Q 417.174097 300.68264 409.716018 301.177343 
" style="fill:none;opacity:0.5;stroke:#0000ff;stroke-linecap:round;stroke-width:1.75;"/>
    <path d="M 411.312008 302.574775 
L 409.716018 301.177343 
L 411.113451 299.581353 
" style="fill:none;opacity:0.5;stroke:#0000ff;stroke-linecap:round;stroke-width:1.75;"/>
   </g>
   <g id="[&quot;g_s&quot;:3,&quot;g_t&quot;:3,&quot;coords&quot;:[[363.0, -803.0],[353.0, -803.0]],&quot;certainty&quot;:10]">
    <path clip-path="url(#pad089ba54c)" d="M 400.527403 307.978594 
C 402.701557 307.978594 404.786956 307.792379 406.324316 307.460962 
C 407.861675 307.129544 408.725475 306.679981 408.725475 306.211285 
C 408.725475 305.74259 407.861675 305.293027 406.324316 304.961609 
C 404.786956 304.630191 402.701557 304.443976 400.527403 304.443976 
C 398.353249 304.443976 396.26785 304.630191 394.73049 304.961609 
C 393.193131 305.293027 392.32933 305.74259 392.32933 306.211285 
C 392.32933 306.679981 393.193131 307.129544 394.73049 307.460962 
C 396.26785 307.792379 398.353249 307.978594 400.527403 307.978594 
z
" style="fill:#0000ff;opacity:0.2;stroke:#0000ff;stroke-linejoin:miter;stroke-width:2;"/>
   </g>
   <g id="[&quot;g_s&quot;:3,&quot;g_t&quot;:3,&quot;coords&quot;:[[353.0, -803.0],[363.0, -803.0]],&quot;certainty&quot;:10]">
    <path clip-path="url(#pad089ba54c)" d="M 385.621817 307.978594 
C 387.795971 307.978594 389.88137 307.792379 391.418729 307.460962 
C 392.956088 307.129544 393.819889 306.679981 393.819889 306.211285 
C 393.819889 305.74259 392.956088 305.293027 391.418729 304.961609 
C 389.88137 304.630191 387.795971 304.443976 385.621817 304.443976 
C 383.447662 304.443976 381.362263 304.630191 379.824904 304.961609 
C 378.287545 305.293027 377.423744 305.74259 377.423744 306.211285 
C 377.423744 306.679981 378.287545 307.129544 379.824904 307.460962 
C 381.362263 307.792379 383.447662 307.978594 385.621817 307.978594 
z
" style="fill:#ff0000;opacity:0.2;stroke:#ff0000;stroke-linejoin:miter;stroke-width:2;"/>
   </g>
   <g id="patch_18">
    <path d="M 400.527403 306.211285 
Q 394.073532 306.211285 389.564204 306.211285 
" style="fill:none;opacity:0.5;stroke:#0000ff;stroke-linecap:round;stroke-width:2.75;"/>
    <path d="M 391.064204 307.711285 
L 389.564204 306.211285 
L 391.064204 304.711285 
" style="fill:none;opacity:0.5;stroke:#0000ff;stroke-linecap:round;stroke-width:2.75;"/>
   </g>
   <g id="[&quot;g_s&quot;:4,&quot;g_t&quot;:4,&quot;coords&quot;:[[134.0, -370.0],[147.0, -370.0]],&quot;certainty&quot;:10]">
    <path clip-path="url(#pad089ba54c)" d="M 59.189475 168.843184 
C 61.363629 168.843184 63.449029 168.656969 64.986388 168.325551 
C 66.523747 167.994133 67.387548 167.544571 67.387548 167.075875 
C 67.387548 166.607179 66.523747 166.157617 64.986388 165.826199 
C 63.449029 165.494781 61.363629 165.308566 59.189475 165.308566 
C 57.015321 165.308566 54.929922 165.494781 53.392563 165.826199 
C 51.855203 166.157617 50.991403 166.607179 50.991403 167.075875 
C 50.991403 167.544571 51.855203 167.994133 53.392563 168.325551 
C 54.929922 168.656969 57.015321 168.843184 59.189475 168.843184 
z
" style="fill:#0000ff;opacity:0.2;stroke:#0000ff;stroke-linejoin:miter;stroke-width:2;"/>
   </g>
   <g id="[&quot;g_s&quot;:4,&quot;g_t&quot;:4,&quot;coords&quot;:[[147.0, -370.0],[134.0, -370.0]],&quot;certainty&quot;:10]">
    <path clip-path="url(#pad089ba54c)" d="M 78.566738 168.843184 
C 80.740892 168.843184 82.826291 168.656969 84.36365 168.325551 
C 85.901009 167.994133 86.76481 167.544571 86.76481 167.075875 
C 86.76481 166.607179 85.901009 166.157617 84.36365 165.826199 
C 82.826291 165.494781 80.740892 165.308566 78.566738 165.308566 
C 76.392583 165.308566 74.307184 165.494781 72.769825 165.826199 
C 71.232466 166.157617 70.368665 166.607179 70.368665 167.075875 
C 70.368665 167.544571 71.232466 167.994133 72.769825 168.325551 
C 74.307184 168.656969 76.392583 168.843184 78.566738 168.843184 
z
" style="fill:#ff0000;opacity:0.2;stroke:#ff0000;stroke-linejoin:miter;stroke-width:2;"/>
   </g>
   <g id="patch_19">
    <path d="M 59.189475 167.075875 
Q 67.877547 167.075875 74.621075 167.075875 
" style="fill:none;opacity:0.5;stroke:#0000ff;stroke-linecap:round;stroke-width:2.75;"/>
    <path d="M 73.121075 165.575875 
L 74.621075 167.075875 
L 73.121075 168.575875 
" style="fill:none;opacity:0.5;stroke:#0000ff;stroke-linecap:round;stroke-width:2.75;"/>
   </g>
   <g id="[&quot;g_s&quot;:5,&quot;g_t&quot;:5,&quot;coords&quot;:[[363.0, 63.0],[353.0, 63.0]],&quot;certainty&quot;:7]">
    <path clip-path="url(#pad089ba54c)" d="M 400.527403 29.22578 
C 402.108606 29.22578 403.62526 29.090351 404.743339 28.84932 
C 405.861419 28.608289 406.489638 28.281334 406.489638 27.940465 
C 406.489638 27.599595 405.861419 27.272641 404.743339 27.031609 
C 403.62526 26.790578 402.108606 26.655149 400.527403 26.655149 
C 398.9462 26.655149 397.429546 26.790578 396.311466 27.031609 
C 395.193387 27.272641 394.565168 27.599595 394.565168 27.940465 
C 394.565168 28.281334 395.193387 28.608289 396.311466 28.84932 
C 397.429546 29.090351 398.9462 29.22578 400.527403 29.22578 
z
" style="fill:#0000ff;opacity:0.2;stroke:#0000ff;stroke-linejoin:miter;stroke-width:2;"/>
   </g>
   <g id="[&quot;g_s&quot;:5,&quot;g_t&quot;:5,&quot;coords&quot;:[[353.0, 63.0],[363.0, 63.0]],&quot;certainty&quot;:7]">
    <path clip-path="url(#pad089ba54c)" d="M 385.621817 29.22578 
C 387.20302 29.22578 388.719674 29.090351 389.837753 28.84932 
C 390.955832 28.608289 391.584051 28.281334 391.584051 27.940465 
C 391.584051 27.599595 390.955832 27.272641 389.837753 27.031609 
C 388.719674 26.790578 387.20302 26.655149 385.621817 26.655149 
C 384.040614 26.655149 382.52396 26.790578 381.40588 27.031609 
C 380.287801 27.272641 379.659582 27.599595 379.659582 27.940465 
C 379.659582 28.281334 380.287801 28.608289 381.40588 28.84932 
C 382.52396 29.090351 384.040614 29.22578 385.621817 29.22578 
z
" style="fill:#ff0000;opacity:0.2;stroke:#ff0000;stroke-linejoin:miter;stroke-width:2;"/>
   </g>
   <g id="patch_20">
    <path d="M 400.527403 27.940465 
Q 394.073532 27.940465 389.033874 27.940465 
" style="fill:none;opacity:0.5;stroke:#0000ff;stroke-linecap:round;stroke-width:2;"/>
    <path d="M 390.533874 29.440465 
L 389.033874 27.940465 
L 390.533874 26.440465 
" style="fill:none;opacity:0.5;stroke:#0000ff;stroke-linecap:round;stroke-width:2;"/>
   </g>
   <g id="[&quot;g_s&quot;:6,&quot;g_t&quot;:6,&quot;coords&quot;:[[380.0, 44.0],[367.0, 48.0]],&quot;certainty&quot;:6]">
    <path clip-path="url(#pad089ba54c)" d="M 425.8669 35.170365 
C 427.250452 35.170365 428.577525 35.051864 429.555844 34.840962 
C 430.534164 34.63006 431.083855 34.343975 431.083855 34.045714 
C 431.083855 33.747453 430.534164 33.461367 429.555844 33.250465 
C 428.577525 33.039563 427.250452 32.921062 425.8669 32.921062 
C 424.483347 32.921062 423.156275 33.039563 422.177955 33.250465 
C 421.199636 33.461367 420.649945 33.747453 420.649945 34.045714 
C 420.649945 34.343975 421.199636 34.63006 422.177955 34.840962 
C 423.156275 35.051864 424.483347 35.170365 425.8669 35.170365 
z
" style="fill:#0000ff;opacity:0.2;stroke:#0000ff;stroke-linejoin:miter;stroke-width:2;"/>
   </g>
   <g id="[&quot;g_s&quot;:6,&quot;g_t&quot;:6,&quot;coords&quot;:[[367.0, 48.0],[380.0, 44.0]],&quot;certainty&quot;:6]">
    <path clip-path="url(#pad089ba54c)" d="M 406.489638 33.885049 
C 407.87319 33.885049 409.200262 33.766549 410.178582 33.555646 
C 411.156901 33.344744 411.706593 33.058659 411.706593 32.760398 
C 411.706593 32.462137 411.156901 32.176052 410.178582 31.96515 
C 409.200262 31.754247 407.87319 31.635747 406.489638 31.635747 
C 405.106085 31.635747 403.779013 31.754247 402.800693 31.96515 
C 401.822374 32.176052 401.272682 32.462137 401.272682 32.760398 
C 401.272682 33.058659 401.822374 33.344744 402.800693 33.555646 
C 403.779013 33.766549 405.106085 33.885049 406.489638 33.885049 
z
" style="fill:#ff0000;opacity:0.2;stroke:#ff0000;stroke-linejoin:miter;stroke-width:2;"/>
   </g>
   <g id="patch_21">
    <path d="M 425.8669 34.045714 
Q 417.174097 33.46911 409.716018 32.974407 
" style="fill:none;opacity:0.5;stroke:#0000ff;stroke-linecap:round;stroke-width:1.75;"/>
    <path d="M 411.113451 34.570397 
L 409.716018 32.974407 
L 411.312008 31.576975 
" style="fill:none;opacity:0.5;stroke:#0000ff;stroke-linecap:round;stroke-width:1.75;"/>
   </g>
   <g id="[&quot;g_s&quot;:1,&quot;g_t&quot;:1,&quot;coords&quot;:[[213.0, -370.0],[231.0, -370.0]],&quot;certainty&quot;:12]">
    <path clip-path="url(#pad089ba54c)" d="M 176.943608 169.164513 
C 179.513063 169.164513 181.977625 168.944441 183.794504 168.552765 
C 185.611383 168.161089 186.632239 167.629788 186.632239 167.075875 
C 186.632239 166.521962 185.611383 165.990661 183.794504 165.598985 
C 181.977625 165.207309 179.513063 164.987237 176.943608 164.987237 
C 174.374152 164.987237 171.90959 165.207309 170.092711 165.598985 
C 168.275832 165.990661 167.254976 166.521962 167.254976 167.075875 
C 167.254976 167.629788 168.275832 168.161089 170.092711 168.552765 
C 171.90959 168.944441 174.374152 169.164513 176.943608 169.164513 
z
" style="fill:#0000ff;opacity:0.2;stroke:#0000ff;stroke-linejoin:miter;stroke-width:2;"/>
   </g>
   <g id="[&quot;g_s&quot;:1,&quot;g_t&quot;:1,&quot;coords&quot;:[[231.0, -370.0],[213.0, -370.0]],&quot;certainty&quot;:12]">
    <path clip-path="url(#pad089ba54c)" d="M 203.773663 169.164513 
C 206.343118 169.164513 208.807681 168.944441 210.62456 168.552765 
C 212.441439 168.161089 213.462294 167.629788 213.462294 167.075875 
C 213.462294 166.521962 212.441439 165.990661 210.62456 165.598985 
C 208.807681 165.207309 206.343118 164.987237 203.773663 164.987237 
C 201.204208 164.987237 198.739645 165.207309 196.922766 165.598985 
C 195.105887 165.990661 194.085032 166.521962 194.085032 167.075875 
C 194.085032 167.629788 195.105887 168.161089 196.922766 168.552765 
C 198.739645 168.944441 201.204208 169.164513 203.773663 169.164513 
z
" style="fill:#ff0000;opacity:0.2;stroke:#ff0000;stroke-linejoin:miter;stroke-width:2;"/>
   </g>
   <g id="patch_22">
    <path d="M 176.943608 167.075875 
Q 189.358076 167.075875 199.474447 167.075875 
" style="fill:none;opacity:0.5;stroke:#ff0000;stroke-linecap:round;stroke-width:3.25;"/>
    <path d="M 197.974447 165.575875 
L 199.474447 167.075875 
L 197.974447 168.575875 
" style="fill:none;opacity:0.5;stroke:#ff0000;stroke-linecap:round;stroke-width:3.25;"/>
   </g>
   <g id="[&quot;g_s&quot;:2,&quot;g_t&quot;:2,&quot;coords&quot;:[[367.0, -788.0],[380.0, -784.0]],&quot;certainty&quot;:6]">
    <path clip-path="url(#pad089ba54c)" d="M 406.489638 302.516003 
C 407.87319 302.516003 409.200262 302.397503 410.178582 302.1866 
C 411.156901 301.975698 411.706593 301.689613 411.706593 301.391352 
C 411.706593 301.093091 411.156901 300.807006 410.178582 300.596104 
C 409.200262 300.385201 407.87319 300.266701 406.489638 300.266701 
C 405.106085 300.266701 403.779013 300.385201 402.800693 300.596104 
C 401.822374 300.807006 401.272682 301.093091 401.272682 301.391352 
C 401.272682 301.689613 401.822374 301.975698 402.800693 302.1866 
C 403.779013 302.397503 405.106085 302.516003 406.489638 302.516003 
z
" style="fill:#0000ff;opacity:0.2;stroke:#0000ff;stroke-linejoin:miter;stroke-width:2;"/>
   </g>
   <g id="[&quot;g_s&quot;:2,&quot;g_t&quot;:2,&quot;coords&quot;:[[380.0, -784.0],[367.0, -788.0]],&quot;certainty&quot;:6]">
    <path clip-path="url(#pad089ba54c)" d="M 425.8669 301.230688 
C 427.250452 301.230688 428.577525 301.112187 429.555844 300.901285 
C 430.534164 300.690383 431.083855 300.404297 431.083855 300.106036 
C 431.083855 299.807775 430.534164 299.52169 429.555844 299.310788 
C 428.577525 299.099886 427.250452 298.981385 425.8669 298.981385 
C 424.483347 298.981385 423.156275 299.099886 422.177955 299.310788 
C 421.199636 299.52169 420.649945 299.807775 420.649945 300.106036 
C 420.649945 300.404297 421.199636 300.690383 422.177955 300.901285 
C 423.156275 301.112187 424.483347 301.230688 425.8669 301.230688 
z
" style="fill:#ff0000;opacity:0.2;stroke:#ff0000;stroke-linejoin:miter;stroke-width:2;"/>
   </g>
   <g id="patch_23">
    <path d="M 406.489638 301.391352 
Q 415.18244 300.814749 422.640519 300.320046 
" style="fill:none;opacity:0.5;stroke:#ff0000;stroke-linecap:round;stroke-width:1.75;"/>
    <path d="M 421.04453 298.922613 
L 422.640519 300.320046 
L 421.243087 301.916035 
" style="fill:none;opacity:0.5;stroke:#ff0000;stroke-linecap:round;stroke-width:1.75;"/>
   </g>
   <g id="[&quot;g_s&quot;:3,&quot;g_t&quot;:3,&quot;coords&quot;:[[353.0, -803.0],[363.0, -803.0]],&quot;certainty&quot;:10]">
    <path clip-path="url(#pad089ba54c)" d="M 385.621817 307.978594 
C 387.795971 307.978594 389.88137 307.792379 391.418729 307.460962 
C 392.956088 307.129544 393.819889 306.679981 393.819889 306.211285 
C 393.819889 305.74259 392.956088 305.293027 391.418729 304.961609 
C 389.88137 304.630191 387.795971 304.443976 385.621817 304.443976 
C 383.447662 304.443976 381.362263 304.630191 379.824904 304.961609 
C 378.287545 305.293027 377.423744 305.74259 377.423744 306.211285 
C 377.423744 306.679981 378.287545 307.129544 379.824904 307.460962 
C 381.362263 307.792379 383.447662 307.978594 385.621817 307.978594 
z
" style="fill:#0000ff;opacity:0.2;stroke:#0000ff;stroke-linejoin:miter;stroke-width:2;"/>
   </g>
   <g id="[&quot;g_s&quot;:3,&quot;g_t&quot;:3,&quot;coords&quot;:[[363.0, -803.0],[353.0, -803.0]],&quot;certainty&quot;:10]">
    <path clip-path="url(#pad089ba54c)" d="M 400.527403 307.978594 
C 402.701557 307.978594 404.786956 307.792379 406.324316 307.460962 
C 407.861675 307.129544 408.725475 306.679981 408.725475 306.211285 
C 408.725475 305.74259 407.861675 305.293027 406.324316 304.961609 
C 404.786956 304.630191 402.701557 304.443976 400.527403 304.443976 
C 398.353249 304.443976 396.26785 304.630191 394.73049 304.961609 
C 393.193131 305.293027 392.32933 305.74259 392.32933 306.211285 
C 392.32933 306.679981 393.193131 307.129544 394.73049 307.460962 
C 396.26785 307.792379 398.353249 307.978594 400.527403 307.978594 
z
" style="fill:#ff0000;opacity:0.2;stroke:#ff0000;stroke-linejoin:miter;stroke-width:2;"/>
   </g>
   <g id="patch_24">
    <path d="M 385.621817 306.211285 
Q 392.075688 306.211285 396.585016 306.211285 
" style="fill:none;opacity:0.5;stroke:#ff0000;stroke-linecap:round;stroke-width:2.75;"/>
    <path d="M 395.085016 304.711285 
L 396.585016 306.211285 
L 395.085016 307.711285 
" style="fill:none;opacity:0.5;stroke:#ff0000;stroke-linecap:round;stroke-width:2.75;"/>
   </g>
   <g id="[&quot;g_s&quot;:4,&quot;g_t&quot;:4,&quot;coords&quot;:[[147.0, -370.0],[134.0, -370.0]],&quot;certainty&quot;:10]">
    <path clip-path="url(#pad089ba54c)" d="M 78.566738 168.843184 
C 80.740892 168.843184 82.826291 168.656969 84.36365 168.325551 
C 85.901009 167.994133 86.76481 167.544571 86.76481 167.075875 
C 86.76481 166.607179 85.901009 166.157617 84.36365 165.826199 
C 82.826291 165.494781 80.740892 165.308566 78.566738 165.308566 
C 76.392583 165.308566 74.307184 165.494781 72.769825 165.826199 
C 71.232466 166.157617 70.368665 166.607179 70.368665 167.075875 
C 70.368665 167.544571 71.232466 167.994133 72.769825 168.325551 
C 74.307184 168.656969 76.392583 168.843184 78.566738 168.843184 
z
" style="fill:#0000ff;opacity:0.2;stroke:#0000ff;stroke-linejoin:miter;stroke-width:2;"/>
   </g>
   <g id="[&quot;g_s&quot;:4,&quot;g_t&quot;:4,&quot;coords&quot;:[[134.0, -370.0],[147.0, -370.0]],&quot;certainty&quot;:10]">
    <path clip-path="url(#pad089ba54c)" d="M 59.189475 168.843184 
C 61.363629 168.843184 63.449029 168.656969 64.986388 168.325551 
C 66.523747 167.994133 67.387548 167.544571 67.387548 167.075875 
C 67.387548 166.607179 66.523747 166.157617 64.986388 165.826199 
C 63.449029 165.494781 61.363629 165.308566 59.189475 165.308566 
C 57.015321 165.308566 54.929922 165.494781 53.392563 165.826199 
C 51.855203 166.157617 50.991403 166.607179 50.991403 167.075875 
C 50.991403 167.544571 51.855203 167.994133 53.392563 168.325551 
C 54.929922 168.656969 57.015321 168.843184 59.189475 168.843184 
z
" style="fill:#ff0000;opacity:0.2;stroke:#ff0000;stroke-linejoin:miter;stroke-width:2;"/>
   </g>
   <g id="patch_25">
    <path d="M 78.566738 167.075875 
Q 69.878666 167.075875 63.135138 167.075875 
" style="fill:none;opacity:0.5;stroke:#ff0000;stroke-linecap:round;stroke-width:2.75;"/>
    <path d="M 64.635138 168.575875 
L 63.135138 167.075875 
L 64.635138 165.575875 
" style="fill:none;opacity:0.5;stroke:#ff0000;stroke-linecap:round;stroke-width:2.75;"/>
   </g>
   <g id="[&quot;g_s&quot;:5,&quot;g_t&quot;:5,&quot;coords&quot;:[[353.0, 63.0],[363.0, 63.0]],&quot;certainty&quot;:7]">
    <path clip-path="url(#pad089ba54c)" d="M 385.621817 29.22578 
C 387.20302 29.22578 388.719674 29.090351 389.837753 28.84932 
C 390.955832 28.608289 391.584051 28.281334 391.584051 27.940465 
C 391.584051 27.599595 390.955832 27.272641 389.837753 27.031609 
C 388.719674 26.790578 387.20302 26.655149 385.621817 26.655149 
C 384.040614 26.655149 382.52396 26.790578 381.40588 27.031609 
C 380.287801 27.272641 379.659582 27.599595 379.659582 27.940465 
C 379.659582 28.281334 380.287801 28.608289 381.40588 28.84932 
C 382.52396 29.090351 384.040614 29.22578 385.621817 29.22578 
z
" style="fill:#0000ff;opacity:0.2;stroke:#0000ff;stroke-linejoin:miter;stroke-width:2;"/>
   </g>
   <g id="[&quot;g_s&quot;:5,&quot;g_t&quot;:5,&quot;coords&quot;:[[363.0, 63.0],[353.0, 63.0]],&quot;certainty&quot;:7]">
    <path clip-path="url(#pad089ba54c)" d="M 400.527403 29.22578 
C 402.108606 29.22578 403.62526 29.090351 404.743339 28.84932 
C 405.861419 28.608289 406.489638 28.281334 406.489638 27.940465 
C 406.489638 27.599595 405.861419 27.272641 404.743339 27.031609 
C 403.62526 26.790578 402.108606 26.655149 400.527403 26.655149 
C 398.9462 26.655149 397.429546 26.790578 396.311466 27.031609 
C 395.193387 27.272641 394.565168 27.599595 394.565168 27.940465 
C 394.565168 28.281334 395.193387 28.608289 396.311466 28.84932 
C 397.429546 29.090351 398.9462 29.22578 400.527403 29.22578 
z
" style="fill:#ff0000;opacity:0.2;stroke:#ff0000;stroke-linejoin:miter;stroke-width:2;"/>
   </g>
   <g id="patch_26">
    <path d="M 385.621817 27.940465 
Q 392.075688 27.940465 397.115346 27.940465 
" style="fill:none;opacity:0.5;stroke:#ff0000;stroke-linecap:round;stroke-width:2;"/>
    <path d="M 395.615346 26.440465 
L 397.115346 27.940465 
L 395.615346 29.440465 
" style="fill:none;opacity:0.5;stroke:#ff0000;stroke-linecap:round;stroke-width:2;"/>
   </g>
   <g id="[&quot;g_s&quot;:6,&quot;g_t&quot;:6,&quot;coords&quot;:[[367.0, 48.0],[380.0, 44.0]],&quot;certainty&quot;:6]">
    <path clip-path="url(#pad089ba54c)" d="M 406.489638 33.885049 
C 407.87319 33.885049 409.200262 33.766549 410.178582 33.555646 
C 411.156901 33.344744 411.706593 33.058659 411.706593 32.760398 
C 411.706593 32.462137 411.156901 32.176052 410.178582 31.96515 
C 409.200262 31.754247 407.87319 31.635747 406.489638 31.635747 
C 405.106085 31.635747 403.779013 31.754247 402.800693 31.96515 
C 401.822374 32.176052 401.272682 32.462137 401.272682 32.760398 
C 401.272682 33.058659 401.822374 33.344744 402.800693 33.555646 
C 403.779013 33.766549 405.106085 33.885049 406.489638 33.885049 
z
" style="fill:#0000ff;opacity:0.2;stroke:#0000ff;stroke-linejoin:miter;stroke-width:2;"/>
   </g>
   <g id="[&quot;g_s&quot;:6,&quot;g_t&quot;:6,&quot;coords&quot;:[[380.0, 44.0],[367.0, 48.0]],&quot;certainty&quot;:6]">
    <path clip-path="url(#pad089ba54c)" d="M 425.8669 35.170365 
C 427.250452 35.170365 428.577525 35.051864 429.555844 34.840962 
C 430.534164 34.63006 431.083855 34.343975 431.083855 34.045714 
C 431.083855 33.747453 430.534164 33.461367 429.555844 33.250465 
C 428.577525 33.039563 427.250452 32.921062 425.8669 32.921062 
C 424.483347 32.921062 423.156275 33.039563 422.177955 33.250465 
C 421.199636 33.461367 420.649945 33.747453 420.649945 34.045714 
C 420.649945 34.343975 421.199636 34.63006 422.177955 34.840962 
C 423.156275 35.051864 424.483347 35.170365 425.8669 35.170365 
z
" style="fill:#ff0000;opacity:0.2;stroke:#ff0000;stroke-linejoin:miter;stroke-width:2;"/>
   </g>
   <g id="patch_27">
    <path d="M 406.489638 32.760398 
Q 415.18244 33.337001 422.640519 33.831704 
" style="fill:none;opacity:0.5;stroke:#ff0000;stroke-linecap:round;stroke-width:1.75;"/>
    <path d="M 421.243087 32.235715 
L 422.640519 33.831704 
L 421.04453 35.229137 
" style="fill:none;opacity:0.5;stroke:#ff0000;stroke-linecap:round;stroke-width:1.75;"/>
   </g>
   <g id="patch_28">
    <path clip-path="url(#pad089ba54c)" d="M 190.358635 168.682519 
C 192.335139 168.682519 194.230957 168.513233 195.628556 168.211944 
C 197.026155 167.910655 197.811428 167.501962 197.811428 167.075875 
C 197.811428 166.649788 197.026155 166.241095 195.628556 165.939806 
C 194.230957 165.638517 192.335139 165.469231 190.358635 165.469231 
C 188.382131 165.469231 186.486314 165.638517 185.088715 165.939806 
C 183.691115 166.241095 182.905842 166.649788 182.905842 167.075875 
C 182.905842 167.501962 183.691115 167.910655 185.088715 168.211944 
C 186.486314 168.513233 188.382131 168.682519 190.358635 168.682519 
z
" style="fill:#008000;opacity:0.2;stroke:#008000;stroke-linejoin:miter;stroke-width:2;"/>
   </g>
   <g id="patch_29">
    <path clip-path="url(#pad089ba54c)" d="M 416.178269 302.355339 
C 418.154772 302.355339 420.05059 302.186052 421.448189 301.884763 
C 422.845789 301.583474 423.631062 301.174781 423.631062 300.748694 
C 423.631062 300.322607 422.845789 299.913914 421.448189 299.612625 
C 420.05059 299.311336 418.154772 299.14205 416.178269 299.14205 
C 414.201765 299.14205 412.305947 299.311336 410.908348 299.612625 
C 409.510749 299.913914 408.725475 300.322607 408.725475 300.748694 
C 408.725475 301.174781 409.510749 301.583474 410.908348 301.884763 
C 412.305947 302.186052 414.201765 302.355339 416.178269 302.355339 
z
" style="fill:#008000;opacity:0.2;stroke:#008000;stroke-linejoin:miter;stroke-width:2;"/>
   </g>
   <g id="patch_30">
    <path clip-path="url(#pad089ba54c)" d="M 393.07461 307.81793 
C 395.051114 307.81793 396.946931 307.648644 398.34453 307.347355 
C 399.74213 307.046066 400.527403 306.637372 400.527403 306.211285 
C 400.527403 305.785198 399.74213 305.376505 398.34453 305.075216 
C 396.946931 304.773927 395.051114 304.604641 393.07461 304.604641 
C 391.098106 304.604641 389.202288 304.773927 387.804689 305.075216 
C 386.40709 305.376505 385.621817 305.785198 385.621817 306.211285 
C 385.621817 306.637372 386.40709 307.046066 387.804689 307.347355 
C 389.202288 307.648644 391.098106 307.81793 393.07461 307.81793 
z
" style="fill:#008000;opacity:0.2;stroke:#008000;stroke-linejoin:miter;stroke-width:2;"/>
   </g>
   <g id="patch_31">
    <path clip-path="url(#pad089ba54c)" d="M 68.878106 168.682519 
C 70.85461 168.682519 72.750428 168.513233 74.148027 168.211944 
C 75.545626 167.910655 76.3309 167.501962 76.3309 167.075875 
C 76.3309 166.649788 75.545626 166.241095 74.148027 165.939806 
C 72.750428 165.638517 70.85461 165.469231 68.878106 165.469231 
C 66.901603 165.469231 65.005785 165.638517 63.608186 165.939806 
C 62.210586 166.241095 61.425313 166.649788 61.425313 167.075875 
C 61.425313 167.501962 62.210586 167.910655 63.608186 168.211944 
C 65.005785 168.513233 66.901603 168.682519 68.878106 168.682519 
z
" style="fill:#008000;opacity:0.2;stroke:#008000;stroke-linejoin:miter;stroke-width:2;"/>
   </g>
   <g id="patch_32">
    <path clip-path="url(#pad089ba54c)" d="M 393.07461 29.547109 
C 395.051114 29.547109 396.946931 29.377823 398.34453 29.076534 
C 399.74213 28.775245 400.527403 28.366552 400.527403 27.940465 
C 400.527403 27.514378 399.74213 27.105684 398.34453 26.804395 
C 396.946931 26.503106 395.051114 26.33382 393.07461 26.33382 
C 391.098106 26.33382 389.202288 26.503106 387.804689 26.804395 
C 386.40709 27.105684 385.621817 27.514378 385.621817 27.940465 
C 385.621817 28.366552 386.40709 28.775245 387.804689 29.076534 
C 389.202288 29.377823 391.098106 29.547109 393.07461 29.547109 
z
" style="fill:#008000;opacity:0.2;stroke:#008000;stroke-linejoin:miter;stroke-width:2;"/>
   </g>
   <g id="patch_33">
    <path clip-path="url(#pad089ba54c)" d="M 416.178269 35.0097 
C 418.154772 35.0097 420.05059 34.840414 421.448189 34.539125 
C 422.845789 34.237836 423.631062 33.829143 423.631062 33.403056 
C 423.631062 32.976969 422.845789 32.568276 421.448189 32.266987 
C 420.05059 31.965698 418.154772 31.796411 416.178269 31.796411 
C 414.201765 31.796411 412.305947 31.965698 410.908348 32.266987 
C 409.510749 32.568276 408.725475 32.976969 408.725475 33.403056 
C 408.725475 33.829143 409.510749 34.237836 410.908348 34.539125 
C 412.305947 34.840414 414.201765 35.0097 416.178269 35.0097 
z
" style="fill:#008000;opacity:0.2;stroke:#008000;stroke-linejoin:miter;stroke-width:2;"/>
   </g>
   <g id="patch_34">
    <path clip-path="url(#pad089ba54c)" d="M 203.773663 173.502453 
C 211.679678 173.502453 219.262948 172.825308 224.853345 171.620152 
C 230.443742 170.414995 233.584836 168.780223 233.584836 167.075875 
C 233.584836 165.371527 230.443742 163.736755 224.853345 162.531598 
C 219.262948 161.326442 211.679678 160.649297 203.773663 160.649297 
C 195.867648 160.649297 188.284378 161.326442 182.693981 162.531598 
C 177.103583 163.736755 173.96249 165.371527 173.96249 167.075875 
C 173.96249 168.780223 177.103583 170.414995 182.693981 171.620152 
C 188.284378 172.825308 195.867648 173.502453 203.773663 173.502453 
z
" style="fill:none;opacity:0.2;stroke:#ff0000;stroke-linejoin:miter;stroke-width:2;"/>
   </g>
   <g id="patch_35">
    <path clip-path="url(#pad089ba54c)" d="M 176.943608 173.502453 
C 184.849623 173.502453 192.432893 172.825308 198.02329 171.620152 
C 203.613687 170.414995 206.75478 168.780223 206.75478 167.075875 
C 206.75478 165.371527 203.613687 163.736755 198.02329 162.531598 
C 192.432893 161.326442 184.849623 160.649297 176.943608 160.649297 
C 169.037592 160.649297 161.454322 161.326442 155.863925 162.531598 
C 150.273528 163.736755 147.132435 165.371527 147.132435 167.075875 
C 147.132435 168.780223 150.273528 170.414995 155.863925 171.620152 
C 161.454322 172.825308 169.037592 173.502453 176.943608 173.502453 
z
" style="fill:none;opacity:0.2;stroke:#0000ff;stroke-linejoin:miter;stroke-width:2;"/>
   </g>
   <g id="patch_36">
    <path clip-path="url(#pad089ba54c)" d="M 203.773663 170.289164 
C 207.726671 170.289164 211.518306 169.950592 214.313504 169.348013 
C 217.108703 168.745435 218.679249 167.928049 218.679249 167.075875 
C 218.679249 166.223701 217.108703 165.406315 214.313504 164.803737 
C 211.518306 164.201158 207.726671 163.862586 203.773663 163.862586 
C 199.820655 163.862586 196.02902 164.201158 193.233822 164.803737 
C 190.438623 165.406315 188.868077 166.223701 188.868077 167.075875 
C 188.868077 167.928049 190.438623 168.745435 193.233822 169.348013 
C 196.02902 169.950592 199.820655 170.289164 203.773663 170.289164 
z
" style="fill:none;opacity:0.2;stroke:#008000;stroke-linejoin:miter;stroke-width:2;"/>
   </g>
   <g id="patch_37">
    <path clip-path="url(#pad089ba54c)" d="M 176.943608 170.289164 
C 180.896615 170.289164 184.68825 169.950592 187.483449 169.348013 
C 190.278647 168.745435 191.849194 167.928049 191.849194 167.075875 
C 191.849194 166.223701 190.278647 165.406315 187.483449 164.803737 
C 184.68825 164.201158 180.896615 163.862586 176.943608 163.862586 
C 172.9906 163.862586 169.198965 164.201158 166.403766 164.803737 
C 163.608568 165.406315 162.038021 166.223701 162.038021 167.075875 
C 162.038021 167.928049 163.608568 168.745435 166.403766 169.348013 
C 169.198965 169.950592 172.9906 170.289164 176.943608 170.289164 
z
" style="fill:none;opacity:0.2;stroke:#008000;stroke-linejoin:miter;stroke-width:2;"/>
   </g>
   <g id="patch_38">
    <path d="M 190.358635 167.075875 
Q 303.268452 233.912285 416.178269 300.748694 
" style="fill:none;opacity:0.5;stroke:#008000;stroke-linecap:round;stroke-width:2;"/>
   </g>
   <g id="patch_39">
    <path d="M 202.359449 167.075875 
Q 191.359195 167.075875 180.35894 167.075875 
" style="fill:none;opacity:0.5;stroke:#800080;stroke-linecap:round;stroke-width:2;"/>
    <path d="M 200.859449 165.575875 
L 202.359449 167.075875 
L 200.859449 168.575875 
" style="fill:none;opacity:0.5;stroke:#800080;stroke-linecap:round;stroke-width:2;"/>
    <path d="M 181.85894 168.575875 
L 180.35894 167.075875 
L 181.85894 165.575875 
" style="fill:none;opacity:0.5;stroke:#800080;stroke-linecap:round;stroke-width:2;"/>
   </g>
   <g id="patch_40">
    <path d="M 416.178269 300.748694 
Q 404.626439 303.47999 393.07461 306.211285 
" style="fill:none;opacity:0.5;stroke:#008000;stroke-linecap:round;stroke-width:2;"/>
   </g>
   <g id="patch_41">
    <path d="M 424.455787 300.199637 
Q 417.174097 300.68264 409.892407 301.165642 
" style="fill:none;opacity:0.5;stroke:#800080;stroke-linecap:round;stroke-width:2;"/>
    <path d="M 422.859798 298.802205 
L 424.455787 300.199637 
L 423.058355 301.795627 
" style="fill:none;opacity:0.5;stroke:#800080;stroke-linecap:round;stroke-width:2;"/>
    <path d="M 411.488397 302.563075 
L 409.892407 301.165642 
L 411.28984 299.569653 
" style="fill:none;opacity:0.5;stroke:#800080;stroke-linecap:round;stroke-width:2;"/>
   </g>
   <g id="patch_42">
    <path d="M 393.07461 306.211285 
Q 230.976358 236.64358 68.878106 167.075875 
" style="fill:none;opacity:0.5;stroke:#008000;stroke-linecap:round;stroke-width:2;"/>
   </g>
   <g id="patch_43">
    <path d="M 399.113189 306.211285 
Q 394.073532 306.211285 389.033874 306.211285 
" style="fill:none;opacity:0.5;stroke:#800080;stroke-linecap:round;stroke-width:2;"/>
    <path d="M 397.613189 304.711285 
L 399.113189 306.211285 
L 397.613189 307.711285 
" style="fill:none;opacity:0.5;stroke:#800080;stroke-linecap:round;stroke-width:2;"/>
    <path d="M 390.533874 307.711285 
L 389.033874 306.211285 
L 390.533874 304.711285 
" style="fill:none;opacity:0.5;stroke:#800080;stroke-linecap:round;stroke-width:2;"/>
   </g>
   <g id="patch_44">
    <path d="M 68.878106 167.075875 
Q 230.976358 97.50817 393.07461 27.940465 
" style="fill:none;opacity:0.5;stroke:#008000;stroke-linecap:round;stroke-width:2;"/>
   </g>
   <g id="patch_45">
    <path d="M 60.603689 167.075875 
Q 67.877547 167.075875 75.151405 167.075875 
" style="fill:none;opacity:0.5;stroke:#800080;stroke-linecap:round;stroke-width:2;"/>
    <path d="M 62.103689 168.575875 
L 60.603689 167.075875 
L 62.103689 165.575875 
" style="fill:none;opacity:0.5;stroke:#800080;stroke-linecap:round;stroke-width:2;"/>
    <path d="M 73.651405 165.575875 
L 75.151405 167.075875 
L 73.651405 168.575875 
" style="fill:none;opacity:0.5;stroke:#800080;stroke-linecap:round;stroke-width:2;"/>
   </g>
   <g id="patch_46">
    <path d="M 393.07461 27.940465 
Q 404.626439 30.67176 416.178269 33.403056 
" style="fill:none;opacity:0.5;stroke:#008000;stroke-linecap:round;stroke-width:2;"/>
   </g>
   <g id="patch_47">
    <path d="M 399.113189 27.940465 
Q 394.073532 27.940465 389.033874 27.940465 
" style="fill:none;opacity:0.5;stroke:#800080;stroke-linecap:round;stroke-width:2;"/>
    <path d="M 397.613189 26.440465 
L 399.113189 27.940465 
L 397.613189 29.440465 
" style="fill:none;opacity:0.5;stroke:#800080;stroke-linecap:round;stroke-width:2;"/>
    <path d="M 390.533874 29.440465 
L 389.033874 27.940465 
L 390.533874 26.440465 
" style="fill:none;opacity:0.5;stroke:#800080;stroke-linecap:round;stroke-width:2;"/>
   </g>
   <g id="patch_48">
    <path d="M 416.178269 33.403056 
Q 303.268452 100.239465 190.358635 167.075875 
" style="fill:none;opacity:0.5;stroke:#008000;stroke-linecap:round;stroke-width:2;"/>
   </g>
   <g id="patch_49">
    <path d="M 424.455787 33.952113 
Q 417.174097 33.46911 409.892407 32.986108 
" style="fill:none;opacity:0.5;stroke:#800080;stroke-linecap:round;stroke-width:2;"/>
    <path d="M 423.058355 32.356123 
L 424.455787 33.952113 
L 422.859798 35.349545 
" style="fill:none;opacity:0.5;stroke:#800080;stroke-linecap:round;stroke-width:2;"/>
    <path d="M 411.28984 34.582097 
L 409.892407 32.986108 
L 411.488397 31.588675 
" style="fill:none;opacity:0.5;stroke:#800080;stroke-linecap:round;stroke-width:2;"/>
   </g>
   <g id="line2d_1">
    <path clip-path="url(#pad089ba54c)" d="M 203.773663 167.075875 
L 425.8669 300.106036 
L 400.527403 306.211285 
L 59.189475 167.075875 
L 400.527403 27.940465 
L 425.8669 34.045714 
" style="fill:none;stroke:#ff0000;stroke-linecap:square;stroke-width:0.2;"/>
   </g>
   <g id="line2d_2">
    <path clip-path="url(#pad089ba54c)" d="M 176.943608 167.075875 
L 406.489638 301.391352 
L 385.621817 306.211285 
L 78.566738 167.075875 
L 385.621817 27.940465 
L 406.489638 32.760398 
" style="fill:none;stroke:#0000ff;stroke-linecap:square;stroke-width:0.2;"/>
   </g>
  </g>
 </g>
 <defs>
  <clipPath id="pad089ba54c">
   <rect height="307.51175" width="409.903625" x="37.576375" y="13.32"/>
  </clipPath>
 </defs>
</svg>
