<?xml version="1.0" encoding="utf-8" standalone="no"?>
<!DOCTYPE svg PUBLIC "-//W3C//DTD SVG 1.1//EN"
  "http://www.w3.org/Graphics/SVG/1.1/DTD/svg11.dtd">
<!-- Created with matplotlib (http://matplotlib.org/) -->
<svg height="345.6pt" version="1.1" viewBox="0 0 460.8 345.6" width="460.8pt" xmlns="http://www.w3.org/2000/svg" xmlns:xlink="http://www.w3.org/1999/xlink">
 <defs>
  <style type="text/css">
*{stroke-linecap:butt;stroke-linejoin:round;}
  </style>
 </defs>
 <g id="figure_1">
  <g id="patch_1">
   <path d="M 0 345.6 
L 460.8 345.6 
L 460.8 0 
L 0 0 
z
" style="fill:#ffffff;"/>
  </g>
  <g id="axes_1">
   <g id="patch_2">
    <path clip-path="url(#pb84187b6f1)" d="M 242.528187 270.642008 
C 243.718852 270.642008 244.860911 270.336767 245.702838 269.79351 
C 246.544766 269.250253 247.017822 268.513335 247.017822 267.745054 
C 247.017822 266.976772 246.544766 266.239854 245.702838 265.696597 
C 244.860911 265.15334 243.718852 264.848099 242.528187 264.848099 
C 241.337523 264.848099 240.195464 265.15334 239.353537 265.696597 
C 238.511609 266.239854 238.038553 266.976772 238.038553 267.745054 
C 238.038553 268.513335 238.511609 269.250253 239.353537 269.79351 
C 240.195464 270.336767 241.337523 270.642008 242.528187 270.642008 
z
" style="fill:#ff0000;opacity:0.2;stroke:#ff0000;stroke-linejoin:miter;stroke-width:2;"/>
   </g>
   <g id="patch_3">
    <path clip-path="url(#pb84187b6f1)" d="M 60.697992 153.31534 
C 61.888657 153.31534 63.030716 153.010098 63.872643 152.466841 
C 64.714571 151.923584 65.187627 151.186666 65.187627 150.418385 
C 65.187627 149.650104 64.714571 148.913186 63.872643 148.369929 
C 63.030716 147.826672 61.888657 147.52143 60.697992 147.52143 
C 59.507327 147.52143 58.365269 147.826672 57.523341 148.369929 
C 56.681414 148.913186 56.208358 149.650104 56.208358 150.418385 
C 56.208358 151.186666 56.681414 151.923584 57.523341 152.466841 
C 58.365269 153.010098 59.507327 153.31534 60.697992 153.31534 
z
" style="fill:#ff0000;opacity:0.2;stroke:#ff0000;stroke-linejoin:miter;stroke-width:2;"/>
   </g>
   <g id="patch_4">
    <path clip-path="url(#pb84187b6f1)" d="M 242.528187 33.091716 
C 243.718852 33.091716 244.860911 32.786475 245.702838 32.243218 
C 246.544766 31.699961 247.017822 30.963043 247.017822 30.194762 
C 247.017822 29.42648 246.544766 28.689562 245.702838 28.146305 
C 244.860911 27.603048 243.718852 27.297807 242.528187 27.297807 
C 241.337523 27.297807 240.195464 27.603048 239.353537 28.146305 
C 238.511609 28.689562 238.038553 29.42648 238.038553 30.194762 
C 238.038553 30.963043 238.511609 31.699961 239.353537 32.243218 
C 240.195464 32.786475 241.337523 33.091716 242.528187 33.091716 
z
" style="fill:#ff0000;opacity:0.2;stroke:#ff0000;stroke-linejoin:miter;stroke-width:2;"/>
   </g>
   <g id="patch_5">
    <path clip-path="url(#pb84187b6f1)" d="M 424.358383 153.31534 
C 425.549048 153.31534 426.691106 153.010098 427.533034 152.466841 
C 428.374961 151.923584 428.848017 151.186666 428.848017 150.418385 
C 428.848017 149.650104 428.374961 148.913186 427.533034 148.369929 
C 426.691106 147.826672 425.549048 147.52143 424.358383 147.52143 
C 423.167718 147.52143 422.025659 147.826672 421.183732 148.369929 
C 420.341804 148.913186 419.868748 149.650104 419.868748 150.418385 
C 419.868748 151.186666 420.341804 151.923584 421.183732 152.466841 
C 422.025659 153.010098 423.167718 153.31534 424.358383 153.31534 
z
" style="fill:#ff0000;opacity:0.2;stroke:#ff0000;stroke-linejoin:miter;stroke-width:2;"/>
   </g>
   <g id="patch_6">
    <path clip-path="url(#pb84187b6f1)" d="M 242.528187 306.853943 
C 243.718852 306.853943 244.860911 306.548702 245.702838 306.005445 
C 246.544766 305.462188 247.017822 304.72527 247.017822 303.956988 
C 247.017822 303.188707 246.544766 302.451789 245.702838 301.908532 
C 244.860911 301.365275 243.718852 301.060034 242.528187 301.060034 
C 241.337523 301.060034 240.195464 301.365275 239.353537 301.908532 
C 238.511609 302.451789 238.038553 303.188707 238.038553 303.956988 
C 238.038553 304.72527 238.511609 305.462188 239.353537 306.005445 
C 240.195464 306.548702 241.337523 306.853943 242.528187 306.853943 
z
" style="fill:#0000ff;opacity:0.2;stroke:#0000ff;stroke-linejoin:miter;stroke-width:2;"/>
   </g>
   <g id="patch_7">
    <path clip-path="url(#pb84187b6f1)" d="M 116.818423 227.187687 
C 118.009088 227.187687 119.151147 226.882445 119.993074 226.339188 
C 120.835001 225.795931 121.308057 225.059013 121.308057 224.290732 
C 121.308057 223.522451 120.835001 222.785533 119.993074 222.242276 
C 119.151147 221.699019 118.009088 221.393777 116.818423 221.393777 
C 115.627758 221.393777 114.485699 221.699019 113.643772 222.242276 
C 112.801845 222.785533 112.328789 223.522451 112.328789 224.290732 
C 112.328789 225.059013 112.801845 225.795931 113.643772 226.339188 
C 114.485699 226.882445 115.627758 227.187687 116.818423 227.187687 
z
" style="fill:#0000ff;opacity:0.2;stroke:#0000ff;stroke-linejoin:miter;stroke-width:2;"/>
   </g>
   <g id="patch_8">
    <path clip-path="url(#pb84187b6f1)" d="M 242.528187 141.727521 
C 243.718852 141.727521 244.860911 141.422279 245.702838 140.879022 
C 246.544766 140.335765 247.017822 139.598847 247.017822 138.830566 
C 247.017822 138.062284 246.544766 137.325366 245.702838 136.78211 
C 244.860911 136.238853 243.718852 135.933611 242.528187 135.933611 
C 241.337523 135.933611 240.195464 136.238853 239.353537 136.78211 
C 238.511609 137.325366 238.038553 138.062284 238.038553 138.830566 
C 238.038553 139.598847 238.511609 140.335765 239.353537 140.879022 
C 240.195464 141.422279 241.337523 141.727521 242.528187 141.727521 
z
" style="fill:#0000ff;opacity:0.2;stroke:#0000ff;stroke-linejoin:miter;stroke-width:2;"/>
   </g>
   <g id="patch_9">
    <path clip-path="url(#pb84187b6f1)" d="M 368.237952 227.187687 
C 369.428617 227.187687 370.570676 226.882445 371.412603 226.339188 
C 372.25453 225.795931 372.727586 225.059013 372.727586 224.290732 
C 372.727586 223.522451 372.25453 222.785533 371.412603 222.242276 
C 370.570676 221.699019 369.428617 221.393777 368.237952 221.393777 
C 367.047287 221.393777 365.905228 221.699019 365.063301 222.242276 
C 364.221374 222.785533 363.748318 223.522451 363.748318 224.290732 
C 363.748318 225.059013 364.221374 225.795931 365.063301 226.339188 
C 365.905228 226.882445 367.047287 227.187687 368.237952 227.187687 
z
" style="fill:#0000ff;opacity:0.2;stroke:#0000ff;stroke-linejoin:miter;stroke-width:2;"/>
   </g>
   <g id="patch_10">
    <path clip-path="url(#pb84187b6f1)" d="M 242.528187 267.745054 
C 152.735499 267.745054 60.697992 221.393777 60.697992 150.418385 
C 60.697992 82.339948 141.511412 30.194762 242.528187 30.194762 
C 350.279414 30.194762 424.358383 88.133857 424.358383 150.418385 
C 424.358383 217.048345 350.279414 267.745054 242.528187 267.745054 
" style="fill:none;stroke:#ff0000;stroke-linejoin:miter;stroke-width:0.5;"/>
   </g>
   <g id="patch_11">
    <path clip-path="url(#pb84187b6f1)" d="M 242.528187 303.956988 
C 177.428488 303.956988 116.818423 273.538963 116.818423 224.290732 
C 116.818423 175.042501 170.694036 138.830566 242.528187 138.830566 
C 318.851973 138.830566 368.237952 177.939455 368.237952 224.290732 
C 368.237952 270.642008 318.851973 303.956988 242.528187 303.956988 
" style="fill:none;stroke:#0000ff;stroke-linejoin:miter;stroke-width:0.5;"/>
   </g>
   <g id="[&quot;g_s&quot;:1,&quot;g_t&quot;:1,&quot;coords&quot;:[[180.0, -714.0],[180.0, -739.0]],&quot;certainty&quot;:10]">
    <path clip-path="url(#pb84187b6f1)" d="M 242.528187 275.711679 
C 245.802516 275.711679 248.943178 274.872265 251.258478 273.378309 
C 253.573778 271.884352 254.874682 269.857827 254.874682 267.745054 
C 254.874682 265.63228 253.573778 263.605755 251.258478 262.111799 
C 248.943178 260.617842 245.802516 259.778428 242.528187 259.778428 
C 239.253859 259.778428 236.113197 260.617842 233.797897 262.111799 
C 231.482597 263.605755 230.181693 265.63228 230.181693 267.745054 
C 230.181693 269.857827 231.482597 271.884352 233.797897 273.378309 
C 236.113197 274.872265 239.253859 275.711679 242.528187 275.711679 
z
" style="fill:#0000ff;opacity:0.2;stroke:#0000ff;stroke-linejoin:miter;stroke-width:2;"/>
   </g>
   <g id="[&quot;g_s&quot;:1,&quot;g_t&quot;:1,&quot;coords&quot;:[[180.0, -739.0],[180.0, -714.0]],&quot;certainty&quot;:10]">
    <path clip-path="url(#pb84187b6f1)" d="M 242.528187 311.923614 
C 245.802516 311.923614 248.943178 311.0842 251.258478 309.590243 
C 253.573778 308.096287 254.874682 306.069762 254.874682 303.956988 
C 254.874682 301.844215 253.573778 299.81769 251.258478 298.323733 
C 248.943178 296.829777 245.802516 295.990363 242.528187 295.990363 
C 239.253859 295.990363 236.113197 296.829777 233.797897 298.323733 
C 231.482597 299.81769 230.181693 301.844215 230.181693 303.956988 
C 230.181693 306.069762 231.482597 308.096287 233.797897 309.590243 
C 236.113197 311.0842 239.253859 311.923614 242.528187 311.923614 
z
" style="fill:#ff0000;opacity:0.2;stroke:#ff0000;stroke-linejoin:miter;stroke-width:2;"/>
   </g>
   <g id="patch_12">
    <path d="M 242.528187 267.745054 
Q 242.528187 284.8498 242.528187 300.010003 
" style="fill:none;opacity:0.5;stroke:#0000ff;stroke-linecap:round;stroke-width:2.75;"/>
    <path d="M 244.028187 298.510003 
L 242.528187 300.010003 
L 241.028187 298.510003 
" style="fill:none;opacity:0.5;stroke:#0000ff;stroke-linecap:round;stroke-width:2.75;"/>
   </g>
   <g id="[&quot;g_s&quot;:2,&quot;g_t&quot;:2,&quot;coords&quot;:[[99.0, -633.0],[124.0, -684.0]],&quot;certainty&quot;:12]">
    <path clip-path="url(#pb84187b6f1)" d="M 60.697992 159.833488 
C 64.567654 159.833488 68.279344 158.841453 71.015608 157.075868 
C 73.751872 155.310283 75.289304 152.9153 75.289304 150.418385 
C 75.289304 147.92147 73.751872 145.526487 71.015608 143.760902 
C 68.279344 141.995317 64.567654 141.003282 60.697992 141.003282 
C 56.828331 141.003282 53.11664 141.995317 50.380377 143.760902 
C 47.644113 145.526487 46.10668 147.92147 46.10668 150.418385 
C 46.10668 152.9153 47.644113 155.310283 50.380377 157.075868 
C 53.11664 158.841453 56.828331 159.833488 60.697992 159.833488 
z
" style="fill:#0000ff;opacity:0.2;stroke:#0000ff;stroke-linejoin:miter;stroke-width:2;"/>
   </g>
   <g id="[&quot;g_s&quot;:2,&quot;g_t&quot;:2,&quot;coords&quot;:[[124.0, -684.0],[99.0, -633.0]],&quot;certainty&quot;:12]">
    <path clip-path="url(#pb84187b6f1)" d="M 116.818423 233.705835 
C 120.688084 233.705835 124.399775 232.7138 127.136039 230.948215 
C 129.872302 229.18263 131.409735 226.787646 131.409735 224.290732 
C 131.409735 221.793817 129.872302 219.398834 127.136039 217.633249 
C 124.399775 215.867664 120.688084 214.875629 116.818423 214.875629 
C 112.948762 214.875629 109.237071 215.867664 106.500807 217.633249 
C 103.764544 219.398834 102.227111 221.793817 102.227111 224.290732 
C 102.227111 226.787646 103.764544 229.18263 106.500807 230.948215 
C 109.237071 232.7138 112.948762 233.705835 116.818423 233.705835 
z
" style="fill:#ff0000;opacity:0.2;stroke:#ff0000;stroke-linejoin:miter;stroke-width:2;"/>
   </g>
   <g id="patch_13">
    <path d="M 60.697992 150.418385 
Q 88.152783 186.557626 114.217387 220.86694 
" style="fill:none;opacity:0.5;stroke:#0000ff;stroke-linecap:round;stroke-width:3.25;"/>
    <path d="M 114.504412 218.765128 
L 114.217387 220.86694 
L 112.115574 220.579915 
" style="fill:none;opacity:0.5;stroke:#0000ff;stroke-linecap:round;stroke-width:3.25;"/>
   </g>
   <g id="[&quot;g_s&quot;:3,&quot;g_t&quot;:3,&quot;coords&quot;:[[180.0, -550.0],[180.0, -625.0]],&quot;certainty&quot;:11]">
    <path clip-path="url(#pb84187b6f1)" d="M 242.528187 38.885626 
C 246.100182 38.885626 249.526359 37.969902 252.05214 36.340131 
C 254.577922 34.71036 255.997091 32.499606 255.997091 30.194762 
C 255.997091 27.889917 254.577922 25.679163 252.05214 24.049392 
C 249.526359 22.419622 246.100182 21.503897 242.528187 21.503897 
C 238.956193 21.503897 235.530016 22.419622 233.004235 24.049392 
C 230.478453 25.679163 229.059284 27.889917 229.059284 30.194762 
C 229.059284 32.499606 230.478453 34.71036 233.004235 36.340131 
C 235.530016 37.969902 238.956193 38.885626 242.528187 38.885626 
z
" style="fill:#0000ff;opacity:0.2;stroke:#0000ff;stroke-linejoin:miter;stroke-width:2;"/>
   </g>
   <g id="[&quot;g_s&quot;:3,&quot;g_t&quot;:3,&quot;coords&quot;:[[180.0, -625.0],[180.0, -550.0]],&quot;certainty&quot;:11]">
    <path clip-path="url(#pb84187b6f1)" d="M 242.528187 147.52143 
C 246.100182 147.52143 249.526359 146.605706 252.05214 144.975935 
C 254.577922 143.346164 255.997091 141.13541 255.997091 138.830566 
C 255.997091 136.525722 254.577922 134.314968 252.05214 132.685197 
C 249.526359 131.055426 246.100182 130.139702 242.528187 130.139702 
C 238.956193 130.139702 235.530016 131.055426 233.004235 132.685197 
C 230.478453 134.314968 229.059284 136.525722 229.059284 138.830566 
C 229.059284 141.13541 230.478453 143.346164 233.004235 144.975935 
C 235.530016 146.605706 238.956193 147.52143 242.528187 147.52143 
z
" style="fill:#ff0000;opacity:0.2;stroke:#ff0000;stroke-linejoin:miter;stroke-width:2;"/>
   </g>
   <g id="patch_14">
    <path d="M 242.528187 30.194762 
Q 242.528187 83.5131 242.528187 134.710119 
" style="fill:none;opacity:0.5;stroke:#0000ff;stroke-linecap:round;stroke-width:3;"/>
    <path d="M 244.028187 133.210119 
L 242.528187 134.710119 
L 241.028187 133.210119 
" style="fill:none;opacity:0.5;stroke:#0000ff;stroke-linecap:round;stroke-width:3;"/>
   </g>
   <g id="[&quot;g_s&quot;:4,&quot;g_t&quot;:4,&quot;coords&quot;:[[261.0, -633.0],[236.0, -684.0]],&quot;certainty&quot;:11]">
    <path clip-path="url(#pb84187b6f1)" d="M 424.358383 159.109249 
C 427.930378 159.109249 431.356554 158.193525 433.882335 156.563754 
C 436.408117 154.933983 437.827286 152.723229 437.827286 150.418385 
C 437.827286 148.113541 436.408117 145.902787 433.882335 144.273016 
C 431.356554 142.643245 427.930378 141.727521 424.358383 141.727521 
C 420.786388 141.727521 417.360212 142.643245 414.83443 144.273016 
C 412.308648 145.902787 410.889479 148.113541 410.889479 150.418385 
C 410.889479 152.723229 412.308648 154.933983 414.83443 156.563754 
C 417.360212 158.193525 420.786388 159.109249 424.358383 159.109249 
z
" style="fill:#0000ff;opacity:0.2;stroke:#0000ff;stroke-linejoin:miter;stroke-width:2;"/>
   </g>
   <g id="[&quot;g_s&quot;:4,&quot;g_t&quot;:4,&quot;coords&quot;:[[236.0, -684.0],[261.0, -633.0]],&quot;certainty&quot;:11]">
    <path clip-path="url(#pb84187b6f1)" d="M 368.237952 232.981596 
C 371.809947 232.981596 375.236123 232.065872 377.761905 230.436101 
C 380.287687 228.80633 381.706855 226.595576 381.706855 224.290732 
C 381.706855 221.985888 380.287687 219.775134 377.761905 218.145363 
C 375.236123 216.515592 371.809947 215.599868 368.237952 215.599868 
C 364.665957 215.599868 361.239781 216.515592 358.713999 218.145363 
C 356.188217 219.775134 354.769049 221.985888 354.769049 224.290732 
C 354.769049 226.595576 356.188217 228.80633 358.713999 230.436101 
C 361.239781 232.065872 364.665957 232.981596 368.237952 232.981596 
z
" style="fill:#ff0000;opacity:0.2;stroke:#ff0000;stroke-linejoin:miter;stroke-width:2;"/>
   </g>
   <g id="patch_15">
    <path d="M 424.358383 150.418385 
Q 396.903592 186.557626 370.732051 221.007704 
" style="fill:none;opacity:0.5;stroke:#0000ff;stroke-linecap:round;stroke-width:3;"/>
    <path d="M 372.833864 220.720679 
L 370.732051 221.007704 
L 370.445026 218.905891 
" style="fill:none;opacity:0.5;stroke:#0000ff;stroke-linecap:round;stroke-width:3;"/>
   </g>
   <g id="[&quot;g_s&quot;:1,&quot;g_t&quot;:1,&quot;coords&quot;:[[180.0, -739.0],[180.0, -714.0]],&quot;certainty&quot;:10]">
    <path clip-path="url(#pb84187b6f1)" d="M 242.528187 311.923614 
C 245.802516 311.923614 248.943178 311.0842 251.258478 309.590243 
C 253.573778 308.096287 254.874682 306.069762 254.874682 303.956988 
C 254.874682 301.844215 253.573778 299.81769 251.258478 298.323733 
C 248.943178 296.829777 245.802516 295.990363 242.528187 295.990363 
C 239.253859 295.990363 236.113197 296.829777 233.797897 298.323733 
C 231.482597 299.81769 230.181693 301.844215 230.181693 303.956988 
C 230.181693 306.069762 231.482597 308.096287 233.797897 309.590243 
C 236.113197 311.0842 239.253859 311.923614 242.528187 311.923614 
z
" style="fill:#0000ff;opacity:0.2;stroke:#0000ff;stroke-linejoin:miter;stroke-width:2;"/>
   </g>
   <g id="[&quot;g_s&quot;:1,&quot;g_t&quot;:1,&quot;coords&quot;:[[180.0, -714.0],[180.0, -739.0]],&quot;certainty&quot;:10]">
    <path clip-path="url(#pb84187b6f1)" d="M 242.528187 275.711679 
C 245.802516 275.711679 248.943178 274.872265 251.258478 273.378309 
C 253.573778 271.884352 254.874682 269.857827 254.874682 267.745054 
C 254.874682 265.63228 253.573778 263.605755 251.258478 262.111799 
C 248.943178 260.617842 245.802516 259.778428 242.528187 259.778428 
C 239.253859 259.778428 236.113197 260.617842 233.797897 262.111799 
C 231.482597 263.605755 230.181693 265.63228 230.181693 267.745054 
C 230.181693 269.857827 231.482597 271.884352 233.797897 273.378309 
C 236.113197 274.872265 239.253859 275.711679 242.528187 275.711679 
z
" style="fill:#ff0000;opacity:0.2;stroke:#ff0000;stroke-linejoin:miter;stroke-width:2;"/>
   </g>
   <g id="patch_16">
    <path d="M 242.528187 303.956988 
Q 242.528187 286.852242 242.528187 271.692039 
" style="fill:none;opacity:0.5;stroke:#ff0000;stroke-linecap:round;stroke-width:2.75;"/>
    <path d="M 241.028187 273.192039 
L 242.528187 271.692039 
L 244.028187 273.192039 
" style="fill:none;opacity:0.5;stroke:#ff0000;stroke-linecap:round;stroke-width:2.75;"/>
   </g>
   <g id="[&quot;g_s&quot;:2,&quot;g_t&quot;:2,&quot;coords&quot;:[[124.0, -684.0],[99.0, -633.0]],&quot;certainty&quot;:12]">
    <path clip-path="url(#pb84187b6f1)" d="M 116.818423 233.705835 
C 120.688084 233.705835 124.399775 232.7138 127.136039 230.948215 
C 129.872302 229.18263 131.409735 226.787646 131.409735 224.290732 
C 131.409735 221.793817 129.872302 219.398834 127.136039 217.633249 
C 124.399775 215.867664 120.688084 214.875629 116.818423 214.875629 
C 112.948762 214.875629 109.237071 215.867664 106.500807 217.633249 
C 103.764544 219.398834 102.227111 221.793817 102.227111 224.290732 
C 102.227111 226.787646 103.764544 229.18263 106.500807 230.948215 
C 109.237071 232.7138 112.948762 233.705835 116.818423 233.705835 
z
" style="fill:#0000ff;opacity:0.2;stroke:#0000ff;stroke-linejoin:miter;stroke-width:2;"/>
   </g>
   <g id="[&quot;g_s&quot;:2,&quot;g_t&quot;:2,&quot;coords&quot;:[[99.0, -633.0],[124.0, -684.0]],&quot;certainty&quot;:12]">
    <path clip-path="url(#pb84187b6f1)" d="M 60.697992 159.833488 
C 64.567654 159.833488 68.279344 158.841453 71.015608 157.075868 
C 73.751872 155.310283 75.289304 152.9153 75.289304 150.418385 
C 75.289304 147.92147 73.751872 145.526487 71.015608 143.760902 
C 68.279344 141.995317 64.567654 141.003282 60.697992 141.003282 
C 56.828331 141.003282 53.11664 141.995317 50.380377 143.760902 
C 47.644113 145.526487 46.10668 147.92147 46.10668 150.418385 
C 46.10668 152.9153 47.644113 155.310283 50.380377 157.075868 
C 53.11664 158.841453 56.828331 159.833488 60.697992 159.833488 
z
" style="fill:#ff0000;opacity:0.2;stroke:#ff0000;stroke-linejoin:miter;stroke-width:2;"/>
   </g>
   <g id="patch_17">
    <path d="M 116.818423 224.290732 
Q 89.363633 188.151491 63.299029 153.842177 
" style="fill:none;opacity:0.5;stroke:#ff0000;stroke-linecap:round;stroke-width:3.25;"/>
    <path d="M 63.012003 155.943989 
L 63.299029 153.842177 
L 65.400841 154.129202 
" style="fill:none;opacity:0.5;stroke:#ff0000;stroke-linecap:round;stroke-width:3.25;"/>
   </g>
   <g id="[&quot;g_s&quot;:3,&quot;g_t&quot;:3,&quot;coords&quot;:[[180.0, -625.0],[180.0, -550.0]],&quot;certainty&quot;:11]">
    <path clip-path="url(#pb84187b6f1)" d="M 242.528187 147.52143 
C 246.100182 147.52143 249.526359 146.605706 252.05214 144.975935 
C 254.577922 143.346164 255.997091 141.13541 255.997091 138.830566 
C 255.997091 136.525722 254.577922 134.314968 252.05214 132.685197 
C 249.526359 131.055426 246.100182 130.139702 242.528187 130.139702 
C 238.956193 130.139702 235.530016 131.055426 233.004235 132.685197 
C 230.478453 134.314968 229.059284 136.525722 229.059284 138.830566 
C 229.059284 141.13541 230.478453 143.346164 233.004235 144.975935 
C 235.530016 146.605706 238.956193 147.52143 242.528187 147.52143 
z
" style="fill:#0000ff;opacity:0.2;stroke:#0000ff;stroke-linejoin:miter;stroke-width:2;"/>
   </g>
   <g id="[&quot;g_s&quot;:3,&quot;g_t&quot;:3,&quot;coords&quot;:[[180.0, -550.0],[180.0, -625.0]],&quot;certainty&quot;:11]">
    <path clip-path="url(#pb84187b6f1)" d="M 242.528187 38.885626 
C 246.100182 38.885626 249.526359 37.969902 252.05214 36.340131 
C 254.577922 34.71036 255.997091 32.499606 255.997091 30.194762 
C 255.997091 27.889917 254.577922 25.679163 252.05214 24.049392 
C 249.526359 22.419622 246.100182 21.503897 242.528187 21.503897 
C 238.956193 21.503897 235.530016 22.419622 233.004235 24.049392 
C 230.478453 25.679163 229.059284 27.889917 229.059284 30.194762 
C 229.059284 32.499606 230.478453 34.71036 233.004235 36.340131 
C 235.530016 37.969902 238.956193 38.885626 242.528187 38.885626 
z
" style="fill:#ff0000;opacity:0.2;stroke:#ff0000;stroke-linejoin:miter;stroke-width:2;"/>
   </g>
   <g id="patch_18">
    <path d="M 242.528187 138.830566 
Q 242.528187 85.512227 242.528187 34.315209 
" style="fill:none;opacity:0.5;stroke:#ff0000;stroke-linecap:round;stroke-width:3;"/>
    <path d="M 241.028187 35.815209 
L 242.528187 34.315209 
L 244.028187 35.815209 
" style="fill:none;opacity:0.5;stroke:#ff0000;stroke-linecap:round;stroke-width:3;"/>
   </g>
   <g id="[&quot;g_s&quot;:4,&quot;g_t&quot;:4,&quot;coords&quot;:[[236.0, -684.0],[261.0, -633.0]],&quot;certainty&quot;:11]">
    <path clip-path="url(#pb84187b6f1)" d="M 368.237952 232.981596 
C 371.809947 232.981596 375.236123 232.065872 377.761905 230.436101 
C 380.287687 228.80633 381.706855 226.595576 381.706855 224.290732 
C 381.706855 221.985888 380.287687 219.775134 377.761905 218.145363 
C 375.236123 216.515592 371.809947 215.599868 368.237952 215.599868 
C 364.665957 215.599868 361.239781 216.515592 358.713999 218.145363 
C 356.188217 219.775134 354.769049 221.985888 354.769049 224.290732 
C 354.769049 226.595576 356.188217 228.80633 358.713999 230.436101 
C 361.239781 232.065872 364.665957 232.981596 368.237952 232.981596 
z
" style="fill:#0000ff;opacity:0.2;stroke:#0000ff;stroke-linejoin:miter;stroke-width:2;"/>
   </g>
   <g id="[&quot;g_s&quot;:4,&quot;g_t&quot;:4,&quot;coords&quot;:[[261.0, -633.0],[236.0, -684.0]],&quot;certainty&quot;:11]">
    <path clip-path="url(#pb84187b6f1)" d="M 424.358383 159.109249 
C 427.930378 159.109249 431.356554 158.193525 433.882335 156.563754 
C 436.408117 154.933983 437.827286 152.723229 437.827286 150.418385 
C 437.827286 148.113541 436.408117 145.902787 433.882335 144.273016 
C 431.356554 142.643245 427.930378 141.727521 424.358383 141.727521 
C 420.786388 141.727521 417.360212 142.643245 414.83443 144.273016 
C 412.308648 145.902787 410.889479 148.113541 410.889479 150.418385 
C 410.889479 152.723229 412.308648 154.933983 414.83443 156.563754 
C 417.360212 158.193525 420.786388 159.109249 424.358383 159.109249 
z
" style="fill:#ff0000;opacity:0.2;stroke:#ff0000;stroke-linejoin:miter;stroke-width:2;"/>
   </g>
   <g id="patch_19">
    <path d="M 368.237952 224.290732 
Q 395.692742 188.151491 421.864284 153.701413 
" style="fill:none;opacity:0.5;stroke:#ff0000;stroke-linecap:round;stroke-width:3;"/>
    <path d="M 419.762471 153.988438 
L 421.864284 153.701413 
L 422.151309 155.803226 
" style="fill:none;opacity:0.5;stroke:#ff0000;stroke-linecap:round;stroke-width:3;"/>
   </g>
   <g id="patch_20">
    <path clip-path="url(#pb84187b6f1)" d="M 242.528187 293.093408 
C 245.50485 293.093408 248.359997 292.330304 250.464815 290.972162 
C 252.569633 289.614019 253.752274 287.771724 253.752274 285.851021 
C 253.752274 283.930318 252.569633 282.088023 250.464815 280.72988 
C 248.359997 279.371738 245.50485 278.608634 242.528187 278.608634 
C 239.551525 278.608634 236.696378 279.371738 234.59156 280.72988 
C 232.486742 282.088023 231.304101 283.930318 231.304101 285.851021 
C 231.304101 287.771724 232.486742 289.614019 234.59156 290.972162 
C 236.696378 292.330304 239.551525 293.093408 242.528187 293.093408 
z
" style="fill:#008000;opacity:0.2;stroke:#008000;stroke-linejoin:miter;stroke-width:2;"/>
   </g>
   <g id="patch_21">
    <path clip-path="url(#pb84187b6f1)" d="M 88.758208 194.596945 
C 91.73487 194.596945 94.590017 193.833842 96.694835 192.475699 
C 98.799653 191.117557 99.982294 189.275262 99.982294 187.354558 
C 99.982294 185.433855 98.799653 183.59156 96.694835 182.233418 
C 94.590017 180.875275 91.73487 180.112172 88.758208 180.112172 
C 85.781545 180.112172 82.926398 180.875275 80.82158 182.233418 
C 78.716762 183.59156 77.534122 185.433855 77.534122 187.354558 
C 77.534122 189.275262 78.716762 191.117557 80.82158 192.475699 
C 82.926398 193.833842 85.781545 194.596945 88.758208 194.596945 
z
" style="fill:#008000;opacity:0.2;stroke:#008000;stroke-linejoin:miter;stroke-width:2;"/>
   </g>
   <g id="patch_22">
    <path clip-path="url(#pb84187b6f1)" d="M 242.528187 91.755051 
C 245.50485 91.755051 248.359997 90.991947 250.464815 89.633805 
C 252.569633 88.275662 253.752274 86.433367 253.752274 84.512664 
C 253.752274 82.59196 252.569633 80.749665 250.464815 79.391523 
C 248.359997 78.03338 245.50485 77.270277 242.528187 77.270277 
C 239.551525 77.270277 236.696378 78.03338 234.59156 79.391523 
C 232.486742 80.749665 231.304101 82.59196 231.304101 84.512664 
C 231.304101 86.433367 232.486742 88.275662 234.59156 89.633805 
C 236.696378 90.991947 239.551525 91.755051 242.528187 91.755051 
z
" style="fill:#008000;opacity:0.2;stroke:#008000;stroke-linejoin:miter;stroke-width:2;"/>
   </g>
   <g id="patch_23">
    <path clip-path="url(#pb84187b6f1)" d="M 396.298167 194.596945 
C 399.27483 194.596945 402.129977 193.833842 404.234795 192.475699 
C 406.339613 191.117557 407.522253 189.275262 407.522253 187.354558 
C 407.522253 185.433855 406.339613 183.59156 404.234795 182.233418 
C 402.129977 180.875275 399.27483 180.112172 396.298167 180.112172 
C 393.321505 180.112172 390.466358 180.875275 388.36154 182.233418 
C 386.256722 183.59156 385.074081 185.433855 385.074081 187.354558 
C 385.074081 189.275262 386.256722 191.117557 388.36154 192.475699 
C 390.466358 193.833842 393.321505 194.596945 396.298167 194.596945 
z
" style="fill:#008000;opacity:0.2;stroke:#008000;stroke-linejoin:miter;stroke-width:2;"/>
   </g>
   <g id="patch_24">
    <path clip-path="url(#pb84187b6f1)" d="M 242.528187 296.714601 
C 254.434837 296.714601 265.855424 293.662187 274.274697 288.229617 
C 282.69397 282.797048 287.424532 275.427868 287.424532 267.745054 
C 287.424532 260.06224 282.69397 252.69306 274.274697 247.26049 
C 265.855424 241.82792 254.434837 238.775506 242.528187 238.775506 
C 230.621538 238.775506 219.200951 241.82792 210.781678 247.26049 
C 202.362405 252.69306 197.631843 260.06224 197.631843 267.745054 
C 197.631843 275.427868 202.362405 282.797048 210.781678 288.229617 
C 219.200951 293.662187 230.621538 296.714601 242.528187 296.714601 
z
" style="fill:none;opacity:0.2;stroke:#ff0000;stroke-linejoin:miter;stroke-width:2;"/>
   </g>
   <g id="patch_25">
    <path clip-path="url(#pb84187b6f1)" d="M 242.528187 332.926536 
C 254.434837 332.926536 265.855424 329.874122 274.274697 324.441552 
C 282.69397 319.008982 287.424532 311.639802 287.424532 303.956988 
C 287.424532 296.274175 282.69397 288.904994 274.274697 283.472425 
C 265.855424 278.039855 254.434837 274.987441 242.528187 274.987441 
C 230.621538 274.987441 219.200951 278.039855 210.781678 283.472425 
C 202.362405 288.904994 197.631843 296.274175 197.631843 303.956988 
C 197.631843 311.639802 202.362405 319.008982 210.781678 324.441552 
C 219.200951 329.874122 230.621538 332.926536 242.528187 332.926536 
z
" style="fill:none;opacity:0.2;stroke:#0000ff;stroke-linejoin:miter;stroke-width:2;"/>
   </g>
   <g id="patch_26">
    <path clip-path="url(#pb84187b6f1)" d="M 242.528187 282.229828 
C 248.481512 282.229828 254.191806 280.70362 258.401442 277.987335 
C 262.611079 275.271051 264.97636 271.586461 264.97636 267.745054 
C 264.97636 263.903647 262.611079 260.219057 258.401442 257.502772 
C 254.191806 254.786487 248.481512 253.26028 242.528187 253.26028 
C 236.574863 253.26028 230.864569 254.786487 226.654933 257.502772 
C 222.445296 260.219057 220.080015 263.903647 220.080015 267.745054 
C 220.080015 271.586461 222.445296 275.271051 226.654933 277.987335 
C 230.864569 280.70362 236.574863 282.229828 242.528187 282.229828 
z
" style="fill:none;opacity:0.2;stroke:#008000;stroke-linejoin:miter;stroke-width:2;"/>
   </g>
   <g id="patch_27">
    <path clip-path="url(#pb84187b6f1)" d="M 242.528187 318.441762 
C 248.481512 318.441762 254.191806 316.915555 258.401442 314.19927 
C 262.611079 311.482985 264.97636 307.798395 264.97636 303.956988 
C 264.97636 300.115581 262.611079 296.430991 258.401442 293.714707 
C 254.191806 290.998422 248.481512 289.472214 242.528187 289.472214 
C 236.574863 289.472214 230.864569 290.998422 226.654933 293.714707 
C 222.445296 296.430991 220.080015 300.115581 220.080015 303.956988 
C 220.080015 307.798395 222.445296 311.482985 226.654933 314.19927 
C 230.864569 316.915555 236.574863 318.441762 242.528187 318.441762 
z
" style="fill:none;opacity:0.2;stroke:#008000;stroke-linejoin:miter;stroke-width:2;"/>
   </g>
   <g id="patch_28">
    <path d="M 242.528187 285.851021 
Q 165.643198 236.60279 88.758208 187.354558 
" style="fill:none;opacity:0.5;stroke:#008000;stroke-linecap:round;stroke-width:2;"/>
   </g>
   <g id="patch_29">
    <path d="M 242.528187 269.159267 
Q 242.528187 284.8498 242.528187 300.540333 
" style="fill:none;opacity:0.5;stroke:#800080;stroke-linecap:round;stroke-width:2;"/>
    <path d="M 241.028187 270.659267 
L 242.528187 269.159267 
L 244.028187 270.659267 
" style="fill:none;opacity:0.5;stroke:#800080;stroke-linecap:round;stroke-width:2;"/>
    <path d="M 244.028187 299.040333 
L 242.528187 300.540333 
L 241.028187 299.040333 
" style="fill:none;opacity:0.5;stroke:#800080;stroke-linecap:round;stroke-width:2;"/>
   </g>
   <g id="patch_30">
    <path d="M 88.758208 187.354558 
Q 165.643198 135.933611 242.528187 84.512664 
" style="fill:none;opacity:0.5;stroke:#008000;stroke-linecap:round;stroke-width:2;"/>
   </g>
   <g id="patch_31">
    <path d="M 61.553491 151.544494 
Q 88.152783 186.557626 114.752074 221.570759 
" style="fill:none;opacity:0.5;stroke:#800080;stroke-linecap:round;stroke-width:2;"/>
    <path d="M 61.266466 153.646307 
L 61.553491 151.544494 
L 63.655304 151.831519 
" style="fill:none;opacity:0.5;stroke:#800080;stroke-linecap:round;stroke-width:2;"/>
    <path d="M 115.039099 219.468946 
L 114.752074 221.570759 
L 112.650261 221.283733 
" style="fill:none;opacity:0.5;stroke:#800080;stroke-linecap:round;stroke-width:2;"/>
   </g>
   <g id="patch_32">
    <path d="M 242.528187 84.512664 
Q 319.413177 135.933611 396.298167 187.354558 
" style="fill:none;opacity:0.5;stroke:#008000;stroke-linecap:round;stroke-width:2;"/>
   </g>
   <g id="patch_33">
    <path d="M 242.528187 31.608975 
Q 242.528187 83.5131 242.528187 135.417225 
" style="fill:none;opacity:0.5;stroke:#800080;stroke-linecap:round;stroke-width:2;"/>
    <path d="M 241.028187 33.108975 
L 242.528187 31.608975 
L 244.028187 33.108975 
" style="fill:none;opacity:0.5;stroke:#800080;stroke-linecap:round;stroke-width:2;"/>
    <path d="M 244.028187 133.917225 
L 242.528187 135.417225 
L 241.028187 133.917225 
" style="fill:none;opacity:0.5;stroke:#800080;stroke-linecap:round;stroke-width:2;"/>
   </g>
   <g id="patch_34">
    <path d="M 396.298167 187.354558 
Q 319.413177 236.60279 242.528187 285.851021 
" style="fill:none;opacity:0.5;stroke:#008000;stroke-linecap:round;stroke-width:2;"/>
   </g>
   <g id="patch_35">
    <path d="M 423.502884 151.544494 
Q 396.903592 186.557626 370.304301 221.570759 
" style="fill:none;opacity:0.5;stroke:#800080;stroke-linecap:round;stroke-width:2;"/>
    <path d="M 421.401071 151.831519 
L 423.502884 151.544494 
L 423.789909 153.646307 
" style="fill:none;opacity:0.5;stroke:#800080;stroke-linecap:round;stroke-width:2;"/>
    <path d="M 372.406114 221.283733 
L 370.304301 221.570759 
L 370.017276 219.468946 
" style="fill:none;opacity:0.5;stroke:#800080;stroke-linecap:round;stroke-width:2;"/>
   </g>
   <g id="line2d_1">
    <path clip-path="url(#pb84187b6f1)" d="M 242.528187 267.745054 
L 60.697992 150.418385 
L 242.528187 30.194762 
L 424.358383 150.418385 
" style="fill:none;stroke:#ff0000;stroke-linecap:square;stroke-width:0.2;"/>
   </g>
   <g id="line2d_2">
    <path clip-path="url(#pb84187b6f1)" d="M 242.528187 303.956988 
L 116.818423 224.290732 
L 242.528187 138.830566 
L 368.237952 224.290732 
" style="fill:none;stroke:#0000ff;stroke-linecap:square;stroke-width:0.2;"/>
   </g>
  </g>
 </g>
 <defs>
  <clipPath id="pb84187b6f1">
   <rect height="307.51175" width="409.903625" x="37.576375" y="13.32"/>
  </clipPath>
 </defs>
</svg>
