<?xml version="1.0" encoding="utf-8" standalone="no"?>
<!DOCTYPE svg PUBLIC "-//W3C//DTD SVG 1.1//EN"
  "http://www.w3.org/Graphics/SVG/1.1/DTD/svg11.dtd">
<!-- Created with matplotlib (http://matplotlib.org/) -->
<svg height="345.6pt" version="1.1" viewBox="0 0 460.8 345.6" width="460.8pt" xmlns="http://www.w3.org/2000/svg" xmlns:xlink="http://www.w3.org/1999/xlink">
 <defs>
  <style type="text/css">
*{stroke-linecap:butt;stroke-linejoin:round;}
  </style>
 </defs>
 <g id="figure_1">
  <g id="patch_1">
   <path d="M 0 345.6 
L 460.8 345.6 
L 460.8 0 
L 0 0 
z
" style="fill:#ffffff;"/>
  </g>
  <g id="axes_1">
   <g id="patch_2">
    <path clip-path="url(#p2ad2a1ebb7)" d="M 220.91097 56.453968 
C 222.002961 56.453968 223.050374 56.273258 223.822528 55.951636 
C 224.594682 55.630015 225.028535 55.193741 225.028535 54.7389 
C 225.028535 54.284059 224.594682 53.847785 223.822528 53.526164 
C 223.050374 53.204542 222.002961 53.023832 220.91097 53.023832 
C 219.818979 53.023832 218.771566 53.204542 217.999411 53.526164 
C 217.227257 53.847785 216.793404 54.284059 216.793404 54.7389 
C 216.793404 55.193741 217.227257 55.630015 217.999411 55.951636 
C 218.771566 56.273258 219.818979 56.453968 220.91097 56.453968 
z
" style="fill:#ff0000;opacity:0.2;stroke:#ff0000;stroke-linejoin:miter;stroke-width:2;"/>
   </g>
   <g id="patch_3">
    <path clip-path="url(#p2ad2a1ebb7)" d="M 424.730452 161.073136 
C 425.822443 161.073136 426.869856 160.892425 427.64201 160.570804 
C 428.414164 160.249183 428.848017 159.812909 428.848017 159.358068 
C 428.848017 158.903226 428.414164 158.466953 427.64201 158.145331 
C 426.869856 157.82371 425.822443 157.642999 424.730452 157.642999 
C 423.638461 157.642999 422.591048 157.82371 421.818893 158.145331 
C 421.046739 158.466953 420.612886 158.903226 420.612886 159.358068 
C 420.612886 159.812909 421.046739 160.249183 421.818893 160.570804 
C 422.591048 160.892425 423.638461 161.073136 424.730452 161.073136 
z
" style="fill:#ff0000;opacity:0.2;stroke:#ff0000;stroke-linejoin:miter;stroke-width:2;"/>
   </g>
   <g id="patch_4">
    <path clip-path="url(#p2ad2a1ebb7)" d="M 99.442794 306.853943 
C 100.534785 306.853943 101.582198 306.673233 102.354352 306.351611 
C 103.126506 306.02999 103.560359 305.593716 103.560359 305.138875 
C 103.560359 304.684033 103.126506 304.24776 102.354352 303.926138 
C 101.582198 303.604517 100.534785 303.423807 99.442794 303.423807 
C 98.350802 303.423807 97.303389 303.604517 96.531235 303.926138 
C 95.759081 304.24776 95.325228 304.684033 95.325228 305.138875 
C 95.325228 305.593716 95.759081 306.02999 96.531235 306.351611 
C 97.303389 306.673233 98.350802 306.853943 99.442794 306.853943 
z
" style="fill:#ff0000;opacity:0.2;stroke:#ff0000;stroke-linejoin:miter;stroke-width:2;"/>
   </g>
   <g id="patch_5">
    <path clip-path="url(#p2ad2a1ebb7)" d="M 78.854967 280.270384 
C 79.946958 280.270384 80.994371 280.089674 81.766525 279.768052 
C 82.53868 279.446431 82.972532 279.010157 82.972532 278.555316 
C 82.972532 278.100474 82.53868 277.664201 81.766525 277.342579 
C 80.994371 277.020958 79.946958 276.840248 78.854967 276.840248 
C 77.762976 276.840248 76.715563 277.020958 75.943409 277.342579 
C 75.171254 277.664201 74.737402 278.100474 74.737402 278.555316 
C 74.737402 279.010157 75.171254 279.446431 75.943409 279.768052 
C 76.715563 280.089674 77.762976 280.270384 78.854967 280.270384 
z
" style="fill:#ff0000;opacity:0.2;stroke:#ff0000;stroke-linejoin:miter;stroke-width:2;"/>
   </g>
   <g id="patch_6">
    <path clip-path="url(#p2ad2a1ebb7)" d="M 253.851492 200.519707 
C 254.943483 200.519707 255.990896 200.338997 256.76305 200.017375 
C 257.535205 199.695754 257.969057 199.25948 257.969057 198.804639 
C 257.969057 198.349798 257.535205 197.913524 256.76305 197.591903 
C 255.990896 197.270281 254.943483 197.089571 253.851492 197.089571 
C 252.759501 197.089571 251.712088 197.270281 250.939934 197.591903 
C 250.167779 197.913524 249.733927 198.349798 249.733927 198.804639 
C 249.733927 199.25948 250.167779 199.695754 250.939934 200.017375 
C 251.712088 200.338997 252.759501 200.519707 253.851492 200.519707 
z
" style="fill:#ff0000;opacity:0.2;stroke:#ff0000;stroke-linejoin:miter;stroke-width:2;"/>
   </g>
   <g id="patch_7">
    <path clip-path="url(#p2ad2a1ebb7)" d="M 140.618446 147.352589 
C 141.710438 147.352589 142.757851 147.171879 143.530005 146.850257 
C 144.302159 146.528636 144.736012 146.092362 144.736012 145.637521 
C 144.736012 145.18268 144.302159 144.746406 143.530005 144.424785 
C 142.757851 144.103163 141.710438 143.922453 140.618446 143.922453 
C 139.526455 143.922453 138.479042 144.103163 137.706888 144.424785 
C 136.934734 144.746406 136.500881 145.18268 136.500881 145.637521 
C 136.500881 146.092362 136.934734 146.528636 137.706888 146.850257 
C 138.479042 147.171879 139.526455 147.352589 140.618446 147.352589 
z
" style="fill:#ff0000;opacity:0.2;stroke:#ff0000;stroke-linejoin:miter;stroke-width:2;"/>
   </g>
   <g id="patch_8">
    <path clip-path="url(#p2ad2a1ebb7)" d="M 78.854967 109.621086 
C 79.946958 109.621086 80.994371 109.440376 81.766525 109.118754 
C 82.53868 108.797133 82.972532 108.360859 82.972532 107.906018 
C 82.972532 107.451176 82.53868 107.014903 81.766525 106.693281 
C 80.994371 106.37166 79.946958 106.19095 78.854967 106.19095 
C 77.762976 106.19095 76.715563 106.37166 75.943409 106.693281 
C 75.171254 107.014903 74.737402 107.451176 74.737402 107.906018 
C 74.737402 108.360859 75.171254 108.797133 75.943409 109.118754 
C 76.715563 109.440376 77.762976 109.621086 78.854967 109.621086 
z
" style="fill:#ff0000;opacity:0.2;stroke:#ff0000;stroke-linejoin:miter;stroke-width:2;"/>
   </g>
   <g id="patch_9">
    <path clip-path="url(#p2ad2a1ebb7)" d="M 221.940361 30.727943 
C 223.032352 30.727943 224.079765 30.547233 224.851919 30.225612 
C 225.624074 29.90399 226.057926 29.467717 226.057926 29.012875 
C 226.057926 28.558034 225.624074 28.12176 224.851919 27.800139 
C 224.079765 27.478517 223.032352 27.297807 221.940361 27.297807 
C 220.84837 27.297807 219.800957 27.478517 219.028803 27.800139 
C 218.256648 28.12176 217.822796 28.558034 217.822796 29.012875 
C 217.822796 29.467717 218.256648 29.90399 219.028803 30.225612 
C 219.800957 30.547233 220.84837 30.727943 221.940361 30.727943 
z
" style="fill:#0000ff;opacity:0.2;stroke:#0000ff;stroke-linejoin:miter;stroke-width:2;"/>
   </g>
   <g id="patch_10">
    <path clip-path="url(#p2ad2a1ebb7)" d="M 380.466625 113.051223 
C 381.558616 113.051223 382.606029 112.870512 383.378183 112.548891 
C 384.150337 112.22727 384.58419 111.790996 384.58419 111.336155 
C 384.58419 110.881313 384.150337 110.44504 383.378183 110.123418 
C 382.606029 109.801797 381.558616 109.621086 380.466625 109.621086 
C 379.374634 109.621086 378.327221 109.801797 377.555067 110.123418 
C 376.782912 110.44504 376.34906 110.881313 376.34906 111.336155 
C 376.34906 111.790996 376.782912 112.22727 377.555067 112.548891 
C 378.327221 112.870512 379.374634 113.051223 380.466625 113.051223 
z
" style="fill:#0000ff;opacity:0.2;stroke:#0000ff;stroke-linejoin:miter;stroke-width:2;"/>
   </g>
   <g id="patch_11">
    <path clip-path="url(#p2ad2a1ebb7)" d="M 139.589055 229.675869 
C 140.681046 229.675869 141.728459 229.495158 142.500613 229.173537 
C 143.272768 228.851915 143.70662 228.415642 143.70662 227.9608 
C 143.70662 227.505959 143.272768 227.069685 142.500613 226.748064 
C 141.728459 226.426443 140.681046 226.245732 139.589055 226.245732 
C 138.497064 226.245732 137.449651 226.426443 136.677497 226.748064 
C 135.905343 227.069685 135.47149 227.505959 135.47149 227.9608 
C 135.47149 228.415642 135.905343 228.851915 136.677497 229.173537 
C 137.449651 229.495158 138.497064 229.675869 139.589055 229.675869 
z
" style="fill:#0000ff;opacity:0.2;stroke:#0000ff;stroke-linejoin:miter;stroke-width:2;"/>
   </g>
   <g id="patch_12">
    <path clip-path="url(#p2ad2a1ebb7)" d="M 125.177577 211.667651 
C 126.269568 211.667651 127.316981 211.486941 128.089135 211.165319 
C 128.861289 210.843698 129.295142 210.407424 129.295142 209.952583 
C 129.295142 209.497742 128.861289 209.061468 128.089135 208.739847 
C 127.316981 208.418225 126.269568 208.237515 125.177577 208.237515 
C 124.085586 208.237515 123.038173 208.418225 122.266018 208.739847 
C 121.493864 209.061468 121.060011 209.497742 121.060011 209.952583 
C 121.060011 210.407424 121.493864 210.843698 122.266018 211.165319 
C 123.038173 211.486941 124.085586 211.667651 125.177577 211.667651 
z
" style="fill:#0000ff;opacity:0.2;stroke:#0000ff;stroke-linejoin:miter;stroke-width:2;"/>
   </g>
   <g id="patch_13">
    <path clip-path="url(#p2ad2a1ebb7)" d="M 281.645058 137.919714 
C 282.737049 137.919714 283.784462 137.739003 284.556616 137.417382 
C 285.32877 137.09576 285.762623 136.659487 285.762623 136.204645 
C 285.762623 135.749804 285.32877 135.31353 284.556616 134.991909 
C 283.784462 134.670287 282.737049 134.489577 281.645058 134.489577 
C 280.553067 134.489577 279.505654 134.670287 278.733499 134.991909 
C 277.961345 135.31353 277.527492 135.749804 277.527492 136.204645 
C 277.527492 136.659487 277.961345 137.09576 278.733499 137.417382 
C 279.505654 137.739003 280.553067 137.919714 281.645058 137.919714 
z
" style="fill:#0000ff;opacity:0.2;stroke:#0000ff;stroke-linejoin:miter;stroke-width:2;"/>
   </g>
   <g id="patch_14">
    <path clip-path="url(#p2ad2a1ebb7)" d="M 178.705925 89.897801 
C 179.797917 89.897801 180.845329 89.71709 181.617484 89.395469 
C 182.389638 89.073847 182.823491 88.637574 182.823491 88.182732 
C 182.823491 87.727891 182.389638 87.291617 181.617484 86.969996 
C 180.845329 86.648374 179.797917 86.467664 178.705925 86.467664 
C 177.613934 86.467664 176.566521 86.648374 175.794367 86.969996 
C 175.022213 87.291617 174.58836 87.727891 174.58836 88.182732 
C 174.58836 88.637574 175.022213 89.073847 175.794367 89.395469 
C 176.566521 89.71709 177.613934 89.897801 178.705925 89.897801 
z
" style="fill:#0000ff;opacity:0.2;stroke:#0000ff;stroke-linejoin:miter;stroke-width:2;"/>
   </g>
   <g id="patch_15">
    <path clip-path="url(#p2ad2a1ebb7)" d="M 123.118794 65.886844 
C 124.210785 65.886844 125.258198 65.706134 126.030352 65.384512 
C 126.802507 65.062891 127.236359 64.626617 127.236359 64.171776 
C 127.236359 63.716934 126.802507 63.280661 126.030352 62.959039 
C 125.258198 62.637418 124.210785 62.456707 123.118794 62.456707 
C 122.026803 62.456707 120.97939 62.637418 120.207236 62.959039 
C 119.435081 63.280661 119.001229 63.716934 119.001229 64.171776 
C 119.001229 64.626617 119.435081 65.062891 120.207236 65.384512 
C 120.97939 65.706134 122.026803 65.886844 123.118794 65.886844 
z
" style="fill:#0000ff;opacity:0.2;stroke:#0000ff;stroke-linejoin:miter;stroke-width:2;"/>
   </g>
   <g id="patch_16">
    <path clip-path="url(#p2ad2a1ebb7)" d="M 220.91097 54.7389 
C 305.321058 54.7389 424.730452 84.752596 424.730452 159.358068 
C 424.730452 239.108744 270.321753 288.845726 99.442794 305.138875 
C 64.443489 303.423807 56.208358 284.558055 78.854967 278.555316 
C 152.971142 267.407372 253.851492 239.108744 253.851492 198.804639 
C 253.851492 162.788204 190.02923 150.782726 140.618446 145.637521 
C 105.619141 141.34985 78.854967 127.629304 78.854967 107.906018 
C 78.854967 78.749856 142.677229 54.7389 220.91097 54.7389 
" style="fill:none;stroke:#ff0000;stroke-linejoin:miter;stroke-width:0.5;"/>
   </g>
   <g id="patch_17">
    <path clip-path="url(#p2ad2a1ebb7)" d="M 221.940361 29.012875 
C 306.35045 29.012875 380.466625 66.744378 380.466625 111.336155 
C 380.466625 170.506012 269.292362 211.667651 139.589055 227.9608 
C 123.118794 224.530664 114.883663 215.955322 125.177577 209.952583 
C 201.352535 195.374502 281.645058 171.363546 281.645058 136.204645 
C 281.645058 103.618347 217.822796 89.040266 178.705925 88.182732 
C 149.882968 87.325198 123.118794 80.464925 123.118794 64.171776 
C 123.118794 51.308763 141.647838 29.012875 221.940361 29.012875 
" style="fill:none;stroke:#0000ff;stroke-linejoin:miter;stroke-width:0.5;"/>
   </g>
   <g id="[&quot;g_s&quot;:1,&quot;g_t&quot;:1,&quot;coords&quot;:[[164.0, 0.0],[164.5, 30.0]],&quot;certainty&quot;:11]">
    <path clip-path="url(#p2ad2a1ebb7)" d="M 220.91097 59.884105 
C 224.186943 59.884105 227.329182 59.341974 229.645645 58.377109 
C 231.962108 57.412245 233.263666 56.103424 233.263666 54.7389 
C 233.263666 53.374376 231.962108 52.065555 229.645645 51.100691 
C 227.329182 50.135826 224.186943 49.593695 220.91097 49.593695 
C 217.634996 49.593695 214.492758 50.135826 212.176295 51.100691 
C 209.859832 52.065555 208.558274 53.374376 208.558274 54.7389 
C 208.558274 56.103424 209.859832 57.412245 212.176295 58.377109 
C 214.492758 59.341974 217.634996 59.884105 220.91097 59.884105 
z
" style="fill:#0000ff;opacity:0.2;stroke:#0000ff;stroke-linejoin:miter;stroke-width:2;"/>
   </g>
   <g id="[&quot;g_s&quot;:1,&quot;g_t&quot;:1,&quot;coords&quot;:[[164.5, 30.0],[164.0, 0.0]],&quot;certainty&quot;:11]">
    <path clip-path="url(#p2ad2a1ebb7)" d="M 221.940361 34.15808 
C 225.216334 34.15808 228.358573 33.615949 230.675036 32.651084 
C 232.991499 31.68622 234.293057 30.377399 234.293057 29.012875 
C 234.293057 27.648351 232.991499 26.33953 230.675036 25.374666 
C 228.358573 24.409801 225.216334 23.86767 221.940361 23.86767 
C 218.664388 23.86767 215.522149 24.409801 213.205686 25.374666 
C 210.889223 26.33953 209.587665 27.648351 209.587665 29.012875 
C 209.587665 30.377399 210.889223 31.68622 213.205686 32.651084 
C 215.522149 33.615949 218.664388 34.15808 221.940361 34.15808 
z
" style="fill:#ff0000;opacity:0.2;stroke:#ff0000;stroke-linejoin:miter;stroke-width:2;"/>
   </g>
   <g id="patch_18">
    <path d="M 220.91097 54.7389 
Q 221.385643 42.8761 221.775503 33.132924 
" style="fill:none;opacity:0.5;stroke:#0000ff;stroke-linecap:round;stroke-width:3;"/>
    <path d="M 220.21673 34.571752 
L 221.775503 33.132924 
L 223.214331 34.691697 
" style="fill:none;opacity:0.5;stroke:#0000ff;stroke-linecap:round;stroke-width:3;"/>
   </g>
   <g id="[&quot;g_s&quot;:2,&quot;g_t&quot;:2,&quot;coords&quot;:[[263.0, -122.0],[241.5, -66.0]],&quot;certainty&quot;:11]">
    <path clip-path="url(#p2ad2a1ebb7)" d="M 424.730452 164.503273 
C 428.006425 164.503273 431.148664 163.961141 433.465127 162.996277 
C 435.78159 162.031412 437.083148 160.722592 437.083148 159.358068 
C 437.083148 157.993543 435.78159 156.684723 433.465127 155.719858 
C 431.148664 154.754994 428.006425 154.212863 424.730452 154.212863 
C 421.454479 154.212863 418.31224 154.754994 415.995777 155.719858 
C 413.679314 156.684723 412.377756 157.993543 412.377756 159.358068 
C 412.377756 160.722592 413.679314 162.031412 415.995777 162.996277 
C 418.31224 163.961141 421.454479 164.503273 424.730452 164.503273 
z
" style="fill:#0000ff;opacity:0.2;stroke:#0000ff;stroke-linejoin:miter;stroke-width:2;"/>
   </g>
   <g id="[&quot;g_s&quot;:2,&quot;g_t&quot;:2,&quot;coords&quot;:[[241.5, -66.0],[263.0, -122.0]],&quot;certainty&quot;:11]">
    <path clip-path="url(#p2ad2a1ebb7)" d="M 380.466625 116.48136 
C 383.742598 116.48136 386.884837 115.939228 389.2013 114.974364 
C 391.517763 114.009499 392.819321 112.700679 392.819321 111.336155 
C 392.819321 109.97163 391.517763 108.66281 389.2013 107.697945 
C 386.884837 106.733081 383.742598 106.19095 380.466625 106.19095 
C 377.190652 106.19095 374.048413 106.733081 371.73195 107.697945 
C 369.415487 108.66281 368.113929 109.97163 368.113929 111.336155 
C 368.113929 112.700679 369.415487 114.009499 371.73195 114.974364 
C 374.048413 115.939228 377.190652 116.48136 380.466625 116.48136 
z
" style="fill:#ff0000;opacity:0.2;stroke:#ff0000;stroke-linejoin:miter;stroke-width:2;"/>
   </g>
   <g id="patch_19">
    <path d="M 424.730452 159.358068 
Q 403.275302 136.081333 383.257876 114.364389 
" style="fill:none;opacity:0.5;stroke:#0000ff;stroke-linecap:round;stroke-width:3;"/>
    <path d="M 383.171563 116.483952 
L 383.257876 114.364389 
L 385.37744 114.450702 
" style="fill:none;opacity:0.5;stroke:#0000ff;stroke-linecap:round;stroke-width:3;"/>
   </g>
   <g id="[&quot;g_s&quot;:3,&quot;g_t&quot;:3,&quot;coords&quot;:[[105.0, -292.0],[124.5, -202.0]],&quot;certainty&quot;:10]">
    <path clip-path="url(#p2ad2a1ebb7)" d="M 99.442794 309.855313 
C 102.445769 309.855313 105.326155 309.358359 107.449579 308.4739 
C 109.573003 307.589441 110.766098 306.389689 110.766098 305.138875 
C 110.766098 303.888061 109.573003 302.688309 107.449579 301.80385 
C 105.326155 300.919391 102.445769 300.422437 99.442794 300.422437 
C 96.439818 300.422437 93.559432 300.919391 91.436008 301.80385 
C 89.312584 302.688309 88.119489 303.888061 88.119489 305.138875 
C 88.119489 306.389689 89.312584 307.589441 91.436008 308.4739 
C 93.559432 309.358359 96.439818 309.855313 99.442794 309.855313 
z
" style="fill:#0000ff;opacity:0.2;stroke:#0000ff;stroke-linejoin:miter;stroke-width:2;"/>
   </g>
   <g id="[&quot;g_s&quot;:3,&quot;g_t&quot;:3,&quot;coords&quot;:[[124.5, -202.0],[105.0, -292.0]],&quot;certainty&quot;:10]">
    <path clip-path="url(#p2ad2a1ebb7)" d="M 139.589055 232.677238 
C 142.592031 232.677238 145.472416 232.180285 147.595841 231.295826 
C 149.719265 230.411367 150.91236 229.211614 150.91236 227.9608 
C 150.91236 226.709986 149.719265 225.510234 147.595841 224.625775 
C 145.472416 223.741316 142.592031 223.244363 139.589055 223.244363 
C 136.58608 223.244363 133.705694 223.741316 131.58227 224.625775 
C 129.458845 225.510234 128.265751 226.709986 128.265751 227.9608 
C 128.265751 229.211614 129.458845 230.411367 131.58227 231.295826 
C 133.705694 232.180285 136.58608 232.677238 139.589055 232.677238 
z
" style="fill:#ff0000;opacity:0.2;stroke:#ff0000;stroke-linejoin:miter;stroke-width:2;"/>
   </g>
   <g id="patch_20">
    <path d="M 99.442794 305.138875 
Q 119.054649 267.436604 137.769144 231.459439 
" style="fill:none;opacity:0.5;stroke:#0000ff;stroke-linecap:round;stroke-width:2.75;"/>
    <path d="M 135.7462 232.097953 
L 137.769144 231.459439 
L 138.407658 233.482382 
" style="fill:none;opacity:0.5;stroke:#0000ff;stroke-linecap:round;stroke-width:2.75;"/>
   </g>
   <g id="[&quot;g_s&quot;:4,&quot;g_t&quot;:4,&quot;coords&quot;:[[95.0, -261.0],[117.5, -181.0]],&quot;certainty&quot;:6]">
    <path clip-path="url(#p2ad2a1ebb7)" d="M 78.854967 281.556685 
C 80.765951 281.556685 82.598924 281.240442 83.950194 280.677605 
C 85.301464 280.114767 86.060706 279.351288 86.060706 278.555316 
C 86.060706 277.759343 85.301464 276.995865 83.950194 276.433027 
C 82.598924 275.87019 80.765951 275.553946 78.854967 275.553946 
C 76.943983 275.553946 75.11101 275.87019 73.75974 276.433027 
C 72.40847 276.995865 71.649228 277.759343 71.649228 278.555316 
C 71.649228 279.351288 72.40847 280.114767 73.75974 280.677605 
C 75.11101 281.240442 76.943983 281.556685 78.854967 281.556685 
z
" style="fill:#0000ff;opacity:0.2;stroke:#0000ff;stroke-linejoin:miter;stroke-width:2;"/>
   </g>
   <g id="[&quot;g_s&quot;:4,&quot;g_t&quot;:4,&quot;coords&quot;:[[117.5, -181.0],[95.0, -261.0]],&quot;certainty&quot;:6]">
    <path clip-path="url(#p2ad2a1ebb7)" d="M 125.177577 212.953953 
C 127.088561 212.953953 128.921534 212.637709 130.272804 212.074872 
C 131.624074 211.512034 132.383316 210.748556 132.383316 209.952583 
C 132.383316 209.156611 131.624074 208.393132 130.272804 207.830294 
C 128.921534 207.267457 127.088561 206.951213 125.177577 206.951213 
C 123.266592 206.951213 121.43362 207.267457 120.08235 207.830294 
C 118.73108 208.393132 117.971837 209.156611 117.971837 209.952583 
C 117.971837 210.748556 118.73108 211.512034 120.08235 212.074872 
C 121.43362 212.637709 123.266592 212.953953 125.177577 212.953953 
z
" style="fill:#ff0000;opacity:0.2;stroke:#ff0000;stroke-linejoin:miter;stroke-width:2;"/>
   </g>
   <g id="patch_21">
    <path d="M 78.854967 278.555316 
Q 101.457172 245.081964 123.366902 212.634151 
" style="fill:none;opacity:0.5;stroke:#0000ff;stroke-linecap:round;stroke-width:1.75;"/>
    <path d="M 121.284356 213.037886 
L 123.366902 212.634151 
L 123.770637 214.716697 
" style="fill:none;opacity:0.5;stroke:#0000ff;stroke-linecap:round;stroke-width:1.75;"/>
   </g>
   <g id="[&quot;g_s&quot;:5,&quot;g_t&quot;:5,&quot;coords&quot;:[[180.0, -168.0],[193.5, -95.0]],&quot;certainty&quot;:11]">
    <path clip-path="url(#p2ad2a1ebb7)" d="M 253.851492 203.949844 
C 257.127465 203.949844 260.269704 203.407713 262.586167 202.442848 
C 264.90263 201.477984 266.204188 200.169163 266.204188 198.804639 
C 266.204188 197.440115 264.90263 196.131294 262.586167 195.16643 
C 260.269704 194.201565 257.127465 193.659434 253.851492 193.659434 
C 250.575519 193.659434 247.43328 194.201565 245.116817 195.16643 
C 242.800354 196.131294 241.498796 197.440115 241.498796 198.804639 
C 241.498796 200.169163 242.800354 201.477984 245.116817 202.442848 
C 247.43328 203.407713 250.575519 203.949844 253.851492 203.949844 
z
" style="fill:#0000ff;opacity:0.2;stroke:#0000ff;stroke-linejoin:miter;stroke-width:2;"/>
   </g>
   <g id="[&quot;g_s&quot;:5,&quot;g_t&quot;:5,&quot;coords&quot;:[[193.5, -95.0],[180.0, -168.0]],&quot;certainty&quot;:11]">
    <path clip-path="url(#p2ad2a1ebb7)" d="M 281.645058 141.34985 
C 284.921031 141.34985 288.06327 140.807719 290.379733 139.842855 
C 292.696196 138.87799 293.997754 137.56917 293.997754 136.204645 
C 293.997754 134.840121 292.696196 133.5313 290.379733 132.566436 
C 288.06327 131.601572 284.921031 131.05944 281.645058 131.05944 
C 278.369085 131.05944 275.226846 131.601572 272.910383 132.566436 
C 270.59392 133.5313 269.292362 134.840121 269.292362 136.204645 
C 269.292362 137.56917 270.59392 138.87799 272.910383 139.842855 
C 275.226846 140.807719 278.369085 141.34985 281.645058 141.34985 
z
" style="fill:#ff0000;opacity:0.2;stroke:#ff0000;stroke-linejoin:miter;stroke-width:2;"/>
   </g>
   <g id="patch_22">
    <path d="M 253.851492 198.804639 
Q 267.341991 168.419724 279.971681 139.973625 
" style="fill:none;opacity:0.5;stroke:#0000ff;stroke-linecap:round;stroke-width:3;"/>
    <path d="M 277.992047 140.735891 
L 279.971681 139.973625 
L 280.733947 141.953259 
" style="fill:none;opacity:0.5;stroke:#0000ff;stroke-linecap:round;stroke-width:3;"/>
   </g>
   <g id="[&quot;g_s&quot;:6,&quot;g_t&quot;:6,&quot;coords&quot;:[[125.0, -106.0],[143.5, -39.0]],&quot;certainty&quot;:5]">
    <path clip-path="url(#p2ad2a1ebb7)" d="M 140.618446 148.210123 
C 142.256433 148.210123 143.827553 147.939058 144.985784 147.456626 
C 146.144015 146.974193 146.794794 146.319783 146.794794 145.637521 
C 146.794794 144.955259 146.144015 144.300849 144.985784 143.818416 
C 143.827553 143.335984 142.256433 143.064919 140.618446 143.064919 
C 138.98046 143.064919 137.40934 143.335984 136.251109 143.818416 
C 135.092878 144.300849 134.442099 144.955259 134.442099 145.637521 
C 134.442099 146.319783 135.092878 146.974193 136.251109 147.456626 
C 137.40934 147.939058 138.98046 148.210123 140.618446 148.210123 
z
" style="fill:#0000ff;opacity:0.2;stroke:#0000ff;stroke-linejoin:miter;stroke-width:2;"/>
   </g>
   <g id="[&quot;g_s&quot;:6,&quot;g_t&quot;:6,&quot;coords&quot;:[[143.5, -39.0],[125.0, -106.0]],&quot;certainty&quot;:5]">
    <path clip-path="url(#p2ad2a1ebb7)" d="M 178.705925 90.755335 
C 180.343912 90.755335 181.915032 90.484269 183.073263 90.001837 
C 184.231494 89.519405 184.882273 88.864994 184.882273 88.182732 
C 184.882273 87.50047 184.231494 86.84606 183.073263 86.363628 
C 181.915032 85.881195 180.343912 85.61013 178.705925 85.61013 
C 177.067939 85.61013 175.496819 85.881195 174.338588 86.363628 
C 173.180356 86.84606 172.529578 87.50047 172.529578 88.182732 
C 172.529578 88.864994 173.180356 89.519405 174.338588 90.001837 
C 175.496819 90.484269 177.067939 90.755335 178.705925 90.755335 
z
" style="fill:#ff0000;opacity:0.2;stroke:#ff0000;stroke-linejoin:miter;stroke-width:2;"/>
   </g>
   <g id="patch_23">
    <path d="M 140.618446 145.637521 
Q 159.110076 117.742983 177.015656 90.732496 
" style="fill:none;opacity:0.5;stroke:#0000ff;stroke-linecap:round;stroke-width:1.5;"/>
    <path d="M 174.936621 91.153936 
L 177.015656 90.732496 
L 177.437096 92.811531 
" style="fill:none;opacity:0.5;stroke:#0000ff;stroke-linecap:round;stroke-width:1.5;"/>
   </g>
   <g id="[&quot;g_s&quot;:7,&quot;g_t&quot;:7,&quot;coords&quot;:[[95.0, -62.0],[116.5, -11.0]],&quot;certainty&quot;:11]">
    <path clip-path="url(#p2ad2a1ebb7)" d="M 78.854967 113.051223 
C 82.13094 113.051223 85.273179 112.509092 87.589642 111.544227 
C 89.906105 110.579363 91.207663 109.270542 91.207663 107.906018 
C 91.207663 106.541494 89.906105 105.232673 87.589642 104.267809 
C 85.273179 103.302944 82.13094 102.760813 78.854967 102.760813 
C 75.578994 102.760813 72.436755 103.302944 70.120292 104.267809 
C 67.803829 105.232673 66.502271 106.541494 66.502271 107.906018 
C 66.502271 109.270542 67.803829 110.579363 70.120292 111.544227 
C 72.436755 112.509092 75.578994 113.051223 78.854967 113.051223 
z
" style="fill:#0000ff;opacity:0.2;stroke:#0000ff;stroke-linejoin:miter;stroke-width:2;"/>
   </g>
   <g id="[&quot;g_s&quot;:7,&quot;g_t&quot;:7,&quot;coords&quot;:[[116.5, -11.0],[95.0, -62.0]],&quot;certainty&quot;:11]">
    <path clip-path="url(#p2ad2a1ebb7)" d="M 123.118794 69.316981 
C 126.394767 69.316981 129.537006 68.774849 131.853469 67.809985 
C 134.169932 66.845121 135.47149 65.5363 135.47149 64.171776 
C 135.47149 62.807251 134.169932 61.498431 131.853469 60.533566 
C 129.537006 59.568702 126.394767 59.026571 123.118794 59.026571 
C 119.842821 59.026571 116.700582 59.568702 114.384119 60.533566 
C 112.067656 61.498431 110.766098 62.807251 110.766098 64.171776 
C 110.766098 65.5363 112.067656 66.845121 114.384119 67.809985 
C 116.700582 68.774849 119.842821 69.316981 123.118794 69.316981 
z
" style="fill:#ff0000;opacity:0.2;stroke:#ff0000;stroke-linejoin:miter;stroke-width:2;"/>
   </g>
   <g id="patch_24">
    <path d="M 78.854967 107.906018 
Q 100.274996 86.742264 120.186025 67.069456 
" style="fill:none;opacity:0.5;stroke:#0000ff;stroke-linecap:round;stroke-width:3;"/>
    <path d="M 118.064743 67.05669 
L 120.186025 67.069456 
L 120.173259 69.190738 
" style="fill:none;opacity:0.5;stroke:#0000ff;stroke-linecap:round;stroke-width:3;"/>
   </g>
   <g id="[&quot;g_s&quot;:1,&quot;g_t&quot;:1,&quot;coords&quot;:[[164.5, 30.0],[164.0, 0.0]],&quot;certainty&quot;:11]">
    <path clip-path="url(#p2ad2a1ebb7)" d="M 221.940361 34.15808 
C 225.216334 34.15808 228.358573 33.615949 230.675036 32.651084 
C 232.991499 31.68622 234.293057 30.377399 234.293057 29.012875 
C 234.293057 27.648351 232.991499 26.33953 230.675036 25.374666 
C 228.358573 24.409801 225.216334 23.86767 221.940361 23.86767 
C 218.664388 23.86767 215.522149 24.409801 213.205686 25.374666 
C 210.889223 26.33953 209.587665 27.648351 209.587665 29.012875 
C 209.587665 30.377399 210.889223 31.68622 213.205686 32.651084 
C 215.522149 33.615949 218.664388 34.15808 221.940361 34.15808 
z
" style="fill:#0000ff;opacity:0.2;stroke:#0000ff;stroke-linejoin:miter;stroke-width:2;"/>
   </g>
   <g id="[&quot;g_s&quot;:1,&quot;g_t&quot;:1,&quot;coords&quot;:[[164.0, 0.0],[164.5, 30.0]],&quot;certainty&quot;:11]">
    <path clip-path="url(#p2ad2a1ebb7)" d="M 220.91097 59.884105 
C 224.186943 59.884105 227.329182 59.341974 229.645645 58.377109 
C 231.962108 57.412245 233.263666 56.103424 233.263666 54.7389 
C 233.263666 53.374376 231.962108 52.065555 229.645645 51.100691 
C 227.329182 50.135826 224.186943 49.593695 220.91097 49.593695 
C 217.634996 49.593695 214.492758 50.135826 212.176295 51.100691 
C 209.859832 52.065555 208.558274 53.374376 208.558274 54.7389 
C 208.558274 56.103424 209.859832 57.412245 212.176295 58.377109 
C 214.492758 59.341974 217.634996 59.884105 220.91097 59.884105 
z
" style="fill:#ff0000;opacity:0.2;stroke:#ff0000;stroke-linejoin:miter;stroke-width:2;"/>
   </g>
   <g id="patch_25">
    <path d="M 221.940361 29.012875 
Q 221.465687 40.875675 221.075828 50.618851 
" style="fill:none;opacity:0.5;stroke:#ff0000;stroke-linecap:round;stroke-width:3;"/>
    <path d="M 222.634601 49.180023 
L 221.075828 50.618851 
L 219.637 49.060078 
" style="fill:none;opacity:0.5;stroke:#ff0000;stroke-linecap:round;stroke-width:3;"/>
   </g>
   <g id="[&quot;g_s&quot;:2,&quot;g_t&quot;:2,&quot;coords&quot;:[[241.5, -66.0],[263.0, -122.0]],&quot;certainty&quot;:11]">
    <path clip-path="url(#p2ad2a1ebb7)" d="M 380.466625 116.48136 
C 383.742598 116.48136 386.884837 115.939228 389.2013 114.974364 
C 391.517763 114.009499 392.819321 112.700679 392.819321 111.336155 
C 392.819321 109.97163 391.517763 108.66281 389.2013 107.697945 
C 386.884837 106.733081 383.742598 106.19095 380.466625 106.19095 
C 377.190652 106.19095 374.048413 106.733081 371.73195 107.697945 
C 369.415487 108.66281 368.113929 109.97163 368.113929 111.336155 
C 368.113929 112.700679 369.415487 114.009499 371.73195 114.974364 
C 374.048413 115.939228 377.190652 116.48136 380.466625 116.48136 
z
" style="fill:#0000ff;opacity:0.2;stroke:#0000ff;stroke-linejoin:miter;stroke-width:2;"/>
   </g>
   <g id="[&quot;g_s&quot;:2,&quot;g_t&quot;:2,&quot;coords&quot;:[[263.0, -122.0],[241.5, -66.0]],&quot;certainty&quot;:11]">
    <path clip-path="url(#p2ad2a1ebb7)" d="M 424.730452 164.503273 
C 428.006425 164.503273 431.148664 163.961141 433.465127 162.996277 
C 435.78159 162.031412 437.083148 160.722592 437.083148 159.358068 
C 437.083148 157.993543 435.78159 156.684723 433.465127 155.719858 
C 431.148664 154.754994 428.006425 154.212863 424.730452 154.212863 
C 421.454479 154.212863 418.31224 154.754994 415.995777 155.719858 
C 413.679314 156.684723 412.377756 157.993543 412.377756 159.358068 
C 412.377756 160.722592 413.679314 162.031412 415.995777 162.996277 
C 418.31224 163.961141 421.454479 164.503273 424.730452 164.503273 
z
" style="fill:#ff0000;opacity:0.2;stroke:#ff0000;stroke-linejoin:miter;stroke-width:2;"/>
   </g>
   <g id="patch_26">
    <path d="M 380.466625 111.336155 
Q 401.921775 134.612889 421.9392 156.329833 
" style="fill:none;opacity:0.5;stroke:#ff0000;stroke-linecap:round;stroke-width:3;"/>
    <path d="M 422.025514 154.21027 
L 421.9392 156.329833 
L 419.819637 156.24352 
" style="fill:none;opacity:0.5;stroke:#ff0000;stroke-linecap:round;stroke-width:3;"/>
   </g>
   <g id="[&quot;g_s&quot;:3,&quot;g_t&quot;:3,&quot;coords&quot;:[[124.5, -202.0],[105.0, -292.0]],&quot;certainty&quot;:10]">
    <path clip-path="url(#p2ad2a1ebb7)" d="M 139.589055 232.677238 
C 142.592031 232.677238 145.472416 232.180285 147.595841 231.295826 
C 149.719265 230.411367 150.91236 229.211614 150.91236 227.9608 
C 150.91236 226.709986 149.719265 225.510234 147.595841 224.625775 
C 145.472416 223.741316 142.592031 223.244363 139.589055 223.244363 
C 136.58608 223.244363 133.705694 223.741316 131.58227 224.625775 
C 129.458845 225.510234 128.265751 226.709986 128.265751 227.9608 
C 128.265751 229.211614 129.458845 230.411367 131.58227 231.295826 
C 133.705694 232.180285 136.58608 232.677238 139.589055 232.677238 
z
" style="fill:#0000ff;opacity:0.2;stroke:#0000ff;stroke-linejoin:miter;stroke-width:2;"/>
   </g>
   <g id="[&quot;g_s&quot;:3,&quot;g_t&quot;:3,&quot;coords&quot;:[[105.0, -292.0],[124.5, -202.0]],&quot;certainty&quot;:10]">
    <path clip-path="url(#p2ad2a1ebb7)" d="M 99.442794 309.855313 
C 102.445769 309.855313 105.326155 309.358359 107.449579 308.4739 
C 109.573003 307.589441 110.766098 306.389689 110.766098 305.138875 
C 110.766098 303.888061 109.573003 302.688309 107.449579 301.80385 
C 105.326155 300.919391 102.445769 300.422437 99.442794 300.422437 
C 96.439818 300.422437 93.559432 300.919391 91.436008 301.80385 
C 89.312584 302.688309 88.119489 303.888061 88.119489 305.138875 
C 88.119489 306.389689 89.312584 307.589441 91.436008 308.4739 
C 93.559432 309.358359 96.439818 309.855313 99.442794 309.855313 
z
" style="fill:#ff0000;opacity:0.2;stroke:#ff0000;stroke-linejoin:miter;stroke-width:2;"/>
   </g>
   <g id="patch_27">
    <path d="M 139.589055 227.9608 
Q 119.9772 265.663072 101.262705 301.640236 
" style="fill:none;opacity:0.5;stroke:#ff0000;stroke-linecap:round;stroke-width:2.75;"/>
    <path d="M 103.285648 301.001722 
L 101.262705 301.640236 
L 100.624191 299.617293 
" style="fill:none;opacity:0.5;stroke:#ff0000;stroke-linecap:round;stroke-width:2.75;"/>
   </g>
   <g id="[&quot;g_s&quot;:4,&quot;g_t&quot;:4,&quot;coords&quot;:[[117.5, -181.0],[95.0, -261.0]],&quot;certainty&quot;:6]">
    <path clip-path="url(#p2ad2a1ebb7)" d="M 125.177577 212.953953 
C 127.088561 212.953953 128.921534 212.637709 130.272804 212.074872 
C 131.624074 211.512034 132.383316 210.748556 132.383316 209.952583 
C 132.383316 209.156611 131.624074 208.393132 130.272804 207.830294 
C 128.921534 207.267457 127.088561 206.951213 125.177577 206.951213 
C 123.266592 206.951213 121.43362 207.267457 120.08235 207.830294 
C 118.73108 208.393132 117.971837 209.156611 117.971837 209.952583 
C 117.971837 210.748556 118.73108 211.512034 120.08235 212.074872 
C 121.43362 212.637709 123.266592 212.953953 125.177577 212.953953 
z
" style="fill:#0000ff;opacity:0.2;stroke:#0000ff;stroke-linejoin:miter;stroke-width:2;"/>
   </g>
   <g id="[&quot;g_s&quot;:4,&quot;g_t&quot;:4,&quot;coords&quot;:[[95.0, -261.0],[117.5, -181.0]],&quot;certainty&quot;:6]">
    <path clip-path="url(#p2ad2a1ebb7)" d="M 78.854967 281.556685 
C 80.765951 281.556685 82.598924 281.240442 83.950194 280.677605 
C 85.301464 280.114767 86.060706 279.351288 86.060706 278.555316 
C 86.060706 277.759343 85.301464 276.995865 83.950194 276.433027 
C 82.598924 275.87019 80.765951 275.553946 78.854967 275.553946 
C 76.943983 275.553946 75.11101 275.87019 73.75974 276.433027 
C 72.40847 276.995865 71.649228 277.759343 71.649228 278.555316 
C 71.649228 279.351288 72.40847 280.114767 73.75974 280.677605 
C 75.11101 281.240442 76.943983 281.556685 78.854967 281.556685 
z
" style="fill:#ff0000;opacity:0.2;stroke:#ff0000;stroke-linejoin:miter;stroke-width:2;"/>
   </g>
   <g id="patch_28">
    <path d="M 125.177577 209.952583 
Q 102.575372 243.425935 80.665642 275.873748 
" style="fill:none;opacity:0.5;stroke:#ff0000;stroke-linecap:round;stroke-width:1.75;"/>
    <path d="M 82.748188 275.470013 
L 80.665642 275.873748 
L 80.261907 273.791202 
" style="fill:none;opacity:0.5;stroke:#ff0000;stroke-linecap:round;stroke-width:1.75;"/>
   </g>
   <g id="[&quot;g_s&quot;:5,&quot;g_t&quot;:5,&quot;coords&quot;:[[193.5, -95.0],[180.0, -168.0]],&quot;certainty&quot;:8]">
    <path clip-path="url(#p2ad2a1ebb7)" d="M 281.645058 140.063549 
C 284.102038 140.063549 286.458717 139.656951 288.196064 138.933302 
C 289.933411 138.209654 290.90958 137.228038 290.90958 136.204645 
C 290.90958 135.181252 289.933411 134.199637 288.196064 133.475988 
C 286.458717 132.75234 284.102038 132.345741 281.645058 132.345741 
C 279.188078 132.345741 276.831399 132.75234 275.094052 133.475988 
C 273.356704 134.199637 272.380536 135.181252 272.380536 136.204645 
C 272.380536 137.228038 273.356704 138.209654 275.094052 138.933302 
C 276.831399 139.656951 279.188078 140.063549 281.645058 140.063549 
z
" style="fill:#0000ff;opacity:0.2;stroke:#0000ff;stroke-linejoin:miter;stroke-width:2;"/>
   </g>
   <g id="[&quot;g_s&quot;:5,&quot;g_t&quot;:5,&quot;coords&quot;:[[180.0, -168.0],[193.5, -95.0]],&quot;certainty&quot;:8]">
    <path clip-path="url(#p2ad2a1ebb7)" d="M 253.851492 202.663543 
C 256.308472 202.663543 258.665151 202.256944 260.402498 201.533296 
C 262.139845 200.809648 263.116014 199.828032 263.116014 198.804639 
C 263.116014 197.781246 262.139845 196.79963 260.402498 196.075982 
C 258.665151 195.352334 256.308472 194.945735 253.851492 194.945735 
C 251.394512 194.945735 249.037833 195.352334 247.300486 196.075982 
C 245.563139 196.79963 244.58697 197.781246 244.58697 198.804639 
C 244.58697 199.828032 245.563139 200.809648 247.300486 201.533296 
C 249.037833 202.256944 251.394512 202.663543 253.851492 202.663543 
z
" style="fill:#ff0000;opacity:0.2;stroke:#ff0000;stroke-linejoin:miter;stroke-width:2;"/>
   </g>
   <g id="patch_29">
    <path d="M 281.645058 136.204645 
Q 268.154559 166.58956 255.309667 195.520363 
" style="fill:none;opacity:0.5;stroke:#ff0000;stroke-linecap:round;stroke-width:2.25;"/>
    <path d="M 257.289301 194.758097 
L 255.309667 195.520363 
L 254.5474 193.54073 
" style="fill:none;opacity:0.5;stroke:#ff0000;stroke-linecap:round;stroke-width:2.25;"/>
   </g>
   <g id="[&quot;g_s&quot;:6,&quot;g_t&quot;:6,&quot;coords&quot;:[[143.5, -39.0],[125.0, -106.0]],&quot;certainty&quot;:5]">
    <path clip-path="url(#p2ad2a1ebb7)" d="M 178.705925 90.755335 
C 180.343912 90.755335 181.915032 90.484269 183.073263 90.001837 
C 184.231494 89.519405 184.882273 88.864994 184.882273 88.182732 
C 184.882273 87.50047 184.231494 86.84606 183.073263 86.363628 
C 181.915032 85.881195 180.343912 85.61013 178.705925 85.61013 
C 177.067939 85.61013 175.496819 85.881195 174.338588 86.363628 
C 173.180356 86.84606 172.529578 87.50047 172.529578 88.182732 
C 172.529578 88.864994 173.180356 89.519405 174.338588 90.001837 
C 175.496819 90.484269 177.067939 90.755335 178.705925 90.755335 
z
" style="fill:#0000ff;opacity:0.2;stroke:#0000ff;stroke-linejoin:miter;stroke-width:2;"/>
   </g>
   <g id="[&quot;g_s&quot;:6,&quot;g_t&quot;:6,&quot;coords&quot;:[[125.0, -106.0],[143.5, -39.0]],&quot;certainty&quot;:5]">
    <path clip-path="url(#p2ad2a1ebb7)" d="M 140.618446 148.210123 
C 142.256433 148.210123 143.827553 147.939058 144.985784 147.456626 
C 146.144015 146.974193 146.794794 146.319783 146.794794 145.637521 
C 146.794794 144.955259 146.144015 144.300849 144.985784 143.818416 
C 143.827553 143.335984 142.256433 143.064919 140.618446 143.064919 
C 138.98046 143.064919 137.40934 143.335984 136.251109 143.818416 
C 135.092878 144.300849 134.442099 144.955259 134.442099 145.637521 
C 134.442099 146.319783 135.092878 146.974193 136.251109 147.456626 
C 137.40934 147.939058 138.98046 148.210123 140.618446 148.210123 
z
" style="fill:#ff0000;opacity:0.2;stroke:#ff0000;stroke-linejoin:miter;stroke-width:2;"/>
   </g>
   <g id="patch_30">
    <path d="M 178.705925 88.182732 
Q 160.214296 116.077271 142.308716 143.087757 
" style="fill:none;opacity:0.5;stroke:#ff0000;stroke-linecap:round;stroke-width:1.5;"/>
    <path d="M 144.387751 142.666318 
L 142.308716 143.087757 
L 141.887276 141.008722 
" style="fill:none;opacity:0.5;stroke:#ff0000;stroke-linecap:round;stroke-width:1.5;"/>
   </g>
   <g id="[&quot;g_s&quot;:7,&quot;g_t&quot;:7,&quot;coords&quot;:[[116.5, -11.0],[95.0, -62.0]],&quot;certainty&quot;:11]">
    <path clip-path="url(#p2ad2a1ebb7)" d="M 123.118794 69.316981 
C 126.394767 69.316981 129.537006 68.774849 131.853469 67.809985 
C 134.169932 66.845121 135.47149 65.5363 135.47149 64.171776 
C 135.47149 62.807251 134.169932 61.498431 131.853469 60.533566 
C 129.537006 59.568702 126.394767 59.026571 123.118794 59.026571 
C 119.842821 59.026571 116.700582 59.568702 114.384119 60.533566 
C 112.067656 61.498431 110.766098 62.807251 110.766098 64.171776 
C 110.766098 65.5363 112.067656 66.845121 114.384119 67.809985 
C 116.700582 68.774849 119.842821 69.316981 123.118794 69.316981 
z
" style="fill:#0000ff;opacity:0.2;stroke:#0000ff;stroke-linejoin:miter;stroke-width:2;"/>
   </g>
   <g id="[&quot;g_s&quot;:7,&quot;g_t&quot;:7,&quot;coords&quot;:[[95.0, -62.0],[116.5, -11.0]],&quot;certainty&quot;:11]">
    <path clip-path="url(#p2ad2a1ebb7)" d="M 78.854967 113.051223 
C 82.13094 113.051223 85.273179 112.509092 87.589642 111.544227 
C 89.906105 110.579363 91.207663 109.270542 91.207663 107.906018 
C 91.207663 106.541494 89.906105 105.232673 87.589642 104.267809 
C 85.273179 103.302944 82.13094 102.760813 78.854967 102.760813 
C 75.578994 102.760813 72.436755 103.302944 70.120292 104.267809 
C 67.803829 105.232673 66.502271 106.541494 66.502271 107.906018 
C 66.502271 109.270542 67.803829 110.579363 70.120292 111.544227 
C 72.436755 112.509092 75.578994 113.051223 78.854967 113.051223 
z
" style="fill:#ff0000;opacity:0.2;stroke:#ff0000;stroke-linejoin:miter;stroke-width:2;"/>
   </g>
   <g id="patch_31">
    <path d="M 123.118794 64.171776 
Q 101.698765 85.335529 81.787736 105.008337 
" style="fill:none;opacity:0.5;stroke:#ff0000;stroke-linecap:round;stroke-width:3;"/>
    <path d="M 83.909018 105.021103 
L 81.787736 105.008337 
L 81.800502 102.887055 
" style="fill:none;opacity:0.5;stroke:#ff0000;stroke-linecap:round;stroke-width:3;"/>
   </g>
   <g id="patch_32">
    <path clip-path="url(#p2ad2a1ebb7)" d="M 221.425665 46.163558 
C 224.155643 46.163558 226.774175 45.711782 228.704561 44.907729 
C 230.634947 44.103675 231.719579 43.012991 231.719579 41.875888 
C 231.719579 40.738784 230.634947 39.6481 228.704561 38.844046 
C 226.774175 38.039993 224.155643 37.588217 221.425665 37.588217 
C 218.695688 37.588217 216.077155 38.039993 214.14677 38.844046 
C 212.216384 39.6481 211.131752 40.738784 211.131752 41.875888 
C 211.131752 43.012991 212.216384 44.103675 214.14677 44.907729 
C 216.077155 45.711782 218.695688 46.163558 221.425665 46.163558 
z
" style="fill:#008000;opacity:0.2;stroke:#008000;stroke-linejoin:miter;stroke-width:2;"/>
   </g>
   <g id="patch_33">
    <path clip-path="url(#p2ad2a1ebb7)" d="M 402.598538 139.634782 
C 405.328516 139.634782 407.947048 139.183006 409.877434 138.378952 
C 411.80782 137.574898 412.892452 136.484215 412.892452 135.347111 
C 412.892452 134.210007 411.80782 133.119324 409.877434 132.31527 
C 407.947048 131.511216 405.328516 131.05944 402.598538 131.05944 
C 399.868561 131.05944 397.250028 131.511216 395.319642 132.31527 
C 393.389257 133.119324 392.304625 134.210007 392.304625 135.347111 
C 392.304625 136.484215 393.389257 137.574898 395.319642 138.378952 
C 397.250028 139.183006 399.868561 139.634782 402.598538 139.634782 
z
" style="fill:#008000;opacity:0.2;stroke:#008000;stroke-linejoin:miter;stroke-width:2;"/>
   </g>
   <g id="patch_34">
    <path clip-path="url(#p2ad2a1ebb7)" d="M 119.515924 270.837508 
C 122.245902 270.837508 124.864434 270.385732 126.79482 269.581679 
C 128.725206 268.777625 129.809838 267.686941 129.809838 266.549838 
C 129.809838 265.412734 128.725206 264.32205 126.79482 263.517997 
C 124.864434 262.713943 122.245902 262.262167 119.515924 262.262167 
C 116.785947 262.262167 114.167414 262.713943 112.237028 263.517997 
C 110.306643 264.32205 109.222011 265.412734 109.222011 266.549838 
C 109.222011 267.686941 110.306643 268.777625 112.237028 269.581679 
C 114.167414 270.385732 116.785947 270.837508 119.515924 270.837508 
z
" style="fill:#008000;opacity:0.2;stroke:#008000;stroke-linejoin:miter;stroke-width:2;"/>
   </g>
   <g id="patch_35">
    <path clip-path="url(#p2ad2a1ebb7)" d="M 102.016272 248.54162 
C 104.74625 248.54162 107.364782 248.089844 109.295168 247.285791 
C 111.225553 246.481737 112.310185 245.391053 112.310185 244.253949 
C 112.310185 243.116846 111.225553 242.026162 109.295168 241.222108 
C 107.364782 240.418055 104.74625 239.966279 102.016272 239.966279 
C 99.286294 239.966279 96.667762 240.418055 94.737376 241.222108 
C 92.80699 242.026162 91.722359 243.116846 91.722359 244.253949 
C 91.722359 245.391053 92.80699 246.481737 94.737376 247.285791 
C 96.667762 248.089844 99.286294 248.54162 102.016272 248.54162 
z
" style="fill:#008000;opacity:0.2;stroke:#008000;stroke-linejoin:miter;stroke-width:2;"/>
   </g>
   <g id="patch_36">
    <path clip-path="url(#p2ad2a1ebb7)" d="M 267.748275 171.792313 
C 270.478253 171.792313 273.096785 171.340537 275.027171 170.536483 
C 276.957557 169.73243 278.042188 168.641746 278.042188 167.504642 
C 278.042188 166.367538 276.957557 165.276855 275.027171 164.472801 
C 273.096785 163.668747 270.478253 163.216971 267.748275 163.216971 
C 265.018297 163.216971 262.399765 163.668747 260.469379 164.472801 
C 258.538993 165.276855 257.454362 166.367538 257.454362 167.504642 
C 257.454362 168.641746 258.538993 169.73243 260.469379 170.536483 
C 262.399765 171.340537 265.018297 171.792313 267.748275 171.792313 
z
" style="fill:#008000;opacity:0.2;stroke:#008000;stroke-linejoin:miter;stroke-width:2;"/>
   </g>
   <g id="patch_37">
    <path clip-path="url(#p2ad2a1ebb7)" d="M 159.662186 121.197797 
C 162.392164 121.197797 165.010696 120.746021 166.941082 119.941968 
C 168.871468 119.137914 169.956099 118.04723 169.956099 116.910127 
C 169.956099 115.773023 168.871468 114.682339 166.941082 113.878286 
C 165.010696 113.074232 162.392164 112.622456 159.662186 112.622456 
C 156.932208 112.622456 154.313676 113.074232 152.38329 113.878286 
C 150.452904 114.682339 149.368273 115.773023 149.368273 116.910127 
C 149.368273 118.04723 150.452904 119.137914 152.38329 119.941968 
C 154.313676 120.746021 156.932208 121.197797 159.662186 121.197797 
z
" style="fill:#008000;opacity:0.2;stroke:#008000;stroke-linejoin:miter;stroke-width:2;"/>
   </g>
   <g id="patch_38">
    <path clip-path="url(#p2ad2a1ebb7)" d="M 100.986881 90.326568 
C 103.716858 90.326568 106.335391 89.874792 108.265776 89.070738 
C 110.196162 88.266684 111.280794 87.176 111.280794 86.038897 
C 111.280794 84.901793 110.196162 83.811109 108.265776 83.007056 
C 106.335391 82.203002 103.716858 81.751226 100.986881 81.751226 
C 98.256903 81.751226 95.63837 82.203002 93.707985 83.007056 
C 91.777599 83.811109 90.692967 84.901793 90.692967 86.038897 
C 90.692967 87.176 91.777599 88.266684 93.707985 89.070738 
C 95.63837 89.874792 98.256903 90.326568 100.986881 90.326568 
z
" style="fill:#008000;opacity:0.2;stroke:#008000;stroke-linejoin:miter;stroke-width:2;"/>
   </g>
   <g id="patch_39">
    <path clip-path="url(#p2ad2a1ebb7)" d="M 220.91097 71.889583 
C 231.830881 71.889583 242.30501 70.082479 250.026553 66.866264 
C 257.748096 63.65005 262.086623 59.287314 262.086623 54.7389 
C 262.086623 50.190486 257.748096 45.82775 250.026553 42.611536 
C 242.30501 39.395321 231.830881 37.588217 220.91097 37.588217 
C 209.991059 37.588217 199.516929 39.395321 191.795386 42.611536 
C 184.073843 45.82775 179.735317 50.190486 179.735317 54.7389 
C 179.735317 59.287314 184.073843 63.65005 191.795386 66.866264 
C 199.516929 70.082479 209.991059 71.889583 220.91097 71.889583 
z
" style="fill:none;opacity:0.2;stroke:#ff0000;stroke-linejoin:miter;stroke-width:2;"/>
   </g>
   <g id="patch_40">
    <path clip-path="url(#p2ad2a1ebb7)" d="M 221.940361 46.163558 
C 232.860272 46.163558 243.334401 44.356454 251.055944 41.14024 
C 258.777487 37.924025 263.116014 33.561289 263.116014 29.012875 
C 263.116014 24.464461 258.777487 20.101725 251.055944 16.885511 
C 243.334401 13.669296 232.860272 11.862192 221.940361 11.862192 
C 211.02045 11.862192 200.546321 13.669296 192.824778 16.885511 
C 185.103235 20.101725 180.764708 24.464461 180.764708 29.012875 
C 180.764708 33.561289 185.103235 37.924025 192.824778 41.14024 
C 200.546321 44.356454 211.02045 46.163558 221.940361 46.163558 
z
" style="fill:none;opacity:0.2;stroke:#0000ff;stroke-linejoin:miter;stroke-width:2;"/>
   </g>
   <g id="patch_41">
    <path clip-path="url(#p2ad2a1ebb7)" d="M 220.91097 63.314242 
C 226.370925 63.314242 231.60799 62.410689 235.468761 60.802582 
C 239.329533 59.194475 241.498796 57.013107 241.498796 54.7389 
C 241.498796 52.464693 239.329533 50.283325 235.468761 48.675218 
C 231.60799 47.06711 226.370925 46.163558 220.91097 46.163558 
C 215.451014 46.163558 210.213949 47.06711 206.353178 48.675218 
C 202.492407 50.283325 200.323143 52.464693 200.323143 54.7389 
C 200.323143 57.013107 202.492407 59.194475 206.353178 60.802582 
C 210.213949 62.410689 215.451014 63.314242 220.91097 63.314242 
z
" style="fill:none;opacity:0.2;stroke:#008000;stroke-linejoin:miter;stroke-width:2;"/>
   </g>
   <g id="patch_42">
    <path clip-path="url(#p2ad2a1ebb7)" d="M 221.940361 37.588217 
C 227.400316 37.588217 232.637381 36.684665 236.498153 35.076557 
C 240.358924 33.46845 242.528188 31.287082 242.528188 29.012875 
C 242.528188 26.738668 240.358924 24.5573 236.498153 22.949193 
C 232.637381 21.341086 227.400316 20.437534 221.940361 20.437534 
C 216.480406 20.437534 211.243341 21.341086 207.382569 22.949193 
C 203.521798 24.5573 201.352535 26.738668 201.352535 29.012875 
C 201.352535 31.287082 203.521798 33.46845 207.382569 35.076557 
C 211.243341 36.684665 216.480406 37.588217 221.940361 37.588217 
z
" style="fill:none;opacity:0.2;stroke:#008000;stroke-linejoin:miter;stroke-width:2;"/>
   </g>
   <g id="patch_43">
    <path d="M 221.425665 41.875888 
Q 312.012102 88.611499 402.598538 135.347111 
" style="fill:none;opacity:0.5;stroke:#008000;stroke-linecap:round;stroke-width:2;"/>
   </g>
   <g id="patch_44">
    <path d="M 220.967512 53.325817 
Q 221.385643 42.8761 221.803774 32.426382 
" style="fill:none;opacity:0.5;stroke:#800080;stroke-linecap:round;stroke-width:2;"/>
    <path d="M 222.526285 51.886989 
L 220.967512 53.325817 
L 219.528684 51.767044 
" style="fill:none;opacity:0.5;stroke:#800080;stroke-linecap:round;stroke-width:2;"/>
    <path d="M 220.245001 33.865211 
L 221.803774 32.426382 
L 223.242602 33.985156 
" style="fill:none;opacity:0.5;stroke:#800080;stroke-linecap:round;stroke-width:2;"/>
   </g>
   <g id="patch_45">
    <path d="M 402.598538 135.347111 
Q 261.057231 200.948474 119.515924 266.549838 
" style="fill:none;opacity:0.5;stroke:#008000;stroke-linecap:round;stroke-width:2;"/>
   </g>
   <g id="patch_46">
    <path d="M 423.771968 158.318207 
Q 403.275302 136.081333 382.778635 113.844459 
" style="fill:none;opacity:0.5;stroke:#800080;stroke-linecap:round;stroke-width:2;"/>
    <path d="M 423.858282 156.198643 
L 423.771968 158.318207 
L 421.652405 158.231894 
" style="fill:none;opacity:0.5;stroke:#800080;stroke-linecap:round;stroke-width:2;"/>
    <path d="M 382.692321 115.964022 
L 382.778635 113.844459 
L 384.898198 113.930772 
" style="fill:none;opacity:0.5;stroke:#800080;stroke-linecap:round;stroke-width:2;"/>
   </g>
   <g id="patch_47">
    <path d="M 119.515924 266.549838 
Q 110.766098 255.401894 102.016272 244.253949 
" style="fill:none;opacity:0.5;stroke:#008000;stroke-linecap:round;stroke-width:2;"/>
   </g>
   <g id="patch_48">
    <path d="M 100.09542 303.884252 
Q 119.054649 267.436604 138.013879 230.988955 
" style="fill:none;opacity:0.5;stroke:#800080;stroke-linecap:round;stroke-width:2;"/>
    <path d="M 102.118363 303.245738 
L 100.09542 303.884252 
L 99.456905 301.861308 
" style="fill:none;opacity:0.5;stroke:#800080;stroke-linecap:round;stroke-width:2;"/>
    <path d="M 135.990935 231.62747 
L 138.013879 230.988955 
L 138.652393 233.011899 
" style="fill:none;opacity:0.5;stroke:#800080;stroke-linecap:round;stroke-width:2;"/>
   </g>
   <g id="patch_49">
    <path d="M 102.016272 244.253949 
Q 184.882273 205.879296 267.748275 167.504642 
" style="fill:none;opacity:0.5;stroke:#008000;stroke-linecap:round;stroke-width:2;"/>
   </g>
   <g id="patch_50">
    <path d="M 79.646366 277.383272 
Q 101.457172 245.081964 123.267977 212.780656 
" style="fill:none;opacity:0.5;stroke:#800080;stroke-linecap:round;stroke-width:2;"/>
    <path d="M 81.728912 276.979537 
L 79.646366 277.383272 
L 79.242631 275.300726 
" style="fill:none;opacity:0.5;stroke:#800080;stroke-linecap:round;stroke-width:2;"/>
    <path d="M 121.185431 213.184391 
L 123.267977 212.780656 
L 123.671712 214.863202 
" style="fill:none;opacity:0.5;stroke:#800080;stroke-linecap:round;stroke-width:2;"/>
   </g>
   <g id="patch_51">
    <path d="M 267.748275 167.504642 
Q 213.70523 142.207384 159.662186 116.910127 
" style="fill:none;opacity:0.5;stroke:#008000;stroke-linecap:round;stroke-width:2;"/>
   </g>
   <g id="patch_52">
    <path d="M 254.425364 197.512095 
Q 267.341991 168.419724 280.258617 139.327353 
" style="fill:none;opacity:0.5;stroke:#800080;stroke-linecap:round;stroke-width:2;"/>
    <path d="M 256.404998 196.749828 
L 254.425364 197.512095 
L 253.663098 195.532461 
" style="fill:none;opacity:0.5;stroke:#800080;stroke-linecap:round;stroke-width:2;"/>
    <path d="M 278.278983 140.089619 
L 280.258617 139.327353 
L 281.020884 141.306987 
" style="fill:none;opacity:0.5;stroke:#800080;stroke-linecap:round;stroke-width:2;"/>
   </g>
   <g id="patch_53">
    <path d="M 159.662186 116.910127 
Q 130.324533 101.474512 100.986881 86.038897 
" style="fill:none;opacity:0.5;stroke:#008000;stroke-linecap:round;stroke-width:2;"/>
   </g>
   <g id="patch_54">
    <path d="M 141.399845 144.458786 
Q 159.110076 117.742983 176.820307 91.02718 
" style="fill:none;opacity:0.5;stroke:#800080;stroke-linecap:round;stroke-width:2;"/>
    <path d="M 143.47888 144.037346 
L 141.399845 144.458786 
L 140.978405 142.37975 
" style="fill:none;opacity:0.5;stroke:#800080;stroke-linecap:round;stroke-width:2;"/>
    <path d="M 174.741271 91.448619 
L 176.820307 91.02718 
L 177.241747 93.106215 
" style="fill:none;opacity:0.5;stroke:#800080;stroke-linecap:round;stroke-width:2;"/>
   </g>
   <g id="patch_55">
    <path d="M 100.986881 86.038897 
Q 161.206273 63.957392 221.425665 41.875888 
" style="fill:none;opacity:0.5;stroke:#008000;stroke-linecap:round;stroke-width:2;"/>
   </g>
   <g id="patch_56">
    <path d="M 79.860967 106.912054 
Q 100.274996 86.742264 120.689025 66.572475 
" style="fill:none;opacity:0.5;stroke:#800080;stroke-linecap:round;stroke-width:2;"/>
    <path d="M 81.982249 106.92482 
L 79.860967 106.912054 
L 79.873733 104.790772 
" style="fill:none;opacity:0.5;stroke:#800080;stroke-linecap:round;stroke-width:2;"/>
    <path d="M 118.567743 66.559708 
L 120.689025 66.572475 
L 120.676259 68.693756 
" style="fill:none;opacity:0.5;stroke:#800080;stroke-linecap:round;stroke-width:2;"/>
   </g>
   <g id="line2d_1">
    <path clip-path="url(#p2ad2a1ebb7)" d="M 220.91097 54.7389 
L 424.730452 159.358068 
L 99.442794 305.138875 
L 78.854967 278.555316 
L 253.851492 198.804639 
L 140.618446 145.637521 
L 78.854967 107.906018 
" style="fill:none;stroke:#ff0000;stroke-linecap:square;stroke-width:0.2;"/>
   </g>
   <g id="line2d_2">
    <path clip-path="url(#p2ad2a1ebb7)" d="M 221.940361 29.012875 
L 380.466625 111.336155 
L 139.589055 227.9608 
L 125.177577 209.952583 
L 281.645058 136.204645 
L 178.705925 88.182732 
L 123.118794 64.171776 
" style="fill:none;stroke:#0000ff;stroke-linecap:square;stroke-width:0.2;"/>
   </g>
  </g>
 </g>
 <defs>
  <clipPath id="p2ad2a1ebb7">
   <rect height="307.51175" width="409.903625" x="37.576375" y="13.32"/>
  </clipPath>
 </defs>
</svg>
