<?xml version="1.0" encoding="utf-8" standalone="no"?>
<!DOCTYPE svg PUBLIC "-//W3C//DTD SVG 1.1//EN"
  "http://www.w3.org/Graphics/SVG/1.1/DTD/svg11.dtd">
<!-- Created with matplotlib (http://matplotlib.org/) -->
<svg height="345.6pt" version="1.1" viewBox="0 0 460.8 345.6" width="460.8pt" xmlns="http://www.w3.org/2000/svg" xmlns:xlink="http://www.w3.org/1999/xlink">
 <defs>
  <style type="text/css">
*{stroke-linecap:butt;stroke-linejoin:round;}
  </style>
 </defs>
 <g id="figure_1">
  <g id="patch_1">
   <path d="M 0 345.6 
L 460.8 345.6 
L 460.8 0 
L 0 0 
z
" style="fill:#ffffff;"/>
  </g>
  <g id="axes_1">
   <g id="patch_2">
    <path clip-path="url(#pe14869e0c2)" d="M 71.94854 174.791124 
C 72.336851 174.791124 72.70931 174.732535 72.983888 174.628259 
C 73.258465 174.523984 73.412743 174.382537 73.412743 174.23507 
C 73.412743 174.087603 73.258465 173.946155 72.983888 173.84188 
C 72.70931 173.737605 72.336851 173.679016 71.94854 173.679016 
C 71.560229 173.679016 71.18777 173.737605 70.913192 173.84188 
C 70.638615 173.946155 70.484337 174.087603 70.484337 174.23507 
C 70.484337 174.382537 70.638615 174.523984 70.913192 174.628259 
C 71.18777 174.732535 71.560229 174.791124 71.94854 174.791124 
z
" style="fill:#ff0000;opacity:0.2;stroke:#ff0000;stroke-linejoin:miter;stroke-width:2;"/>
   </g>
   <g id="patch_3">
    <path clip-path="url(#pe14869e0c2)" d="M 58.038612 163.670044 
C 58.426923 163.670044 58.799382 163.611455 59.07396 163.50718 
C 59.348537 163.402905 59.502815 163.261458 59.502815 163.11399 
C 59.502815 162.966523 59.348537 162.825076 59.07396 162.720801 
C 58.799382 162.616526 58.426923 162.557936 58.038612 162.557936 
C 57.650301 162.557936 57.277841 162.616526 57.003264 162.720801 
C 56.728686 162.825076 56.574409 162.966523 56.574409 163.11399 
C 56.574409 163.261458 56.728686 163.402905 57.003264 163.50718 
C 57.277841 163.611455 57.650301 163.670044 58.038612 163.670044 
z
" style="fill:#ff0000;opacity:0.2;stroke:#ff0000;stroke-linejoin:miter;stroke-width:2;"/>
   </g>
   <g id="patch_4">
    <path clip-path="url(#pe14869e0c2)" d="M 183.960068 139.203669 
C 184.348379 139.203669 184.720839 139.14508 184.995416 139.040805 
C 185.269994 138.93653 185.424271 138.795083 185.424271 138.647615 
C 185.424271 138.500148 185.269994 138.358701 184.995416 138.254426 
C 184.720839 138.150151 184.348379 138.091562 183.960068 138.091562 
C 183.571757 138.091562 183.199298 138.150151 182.92472 138.254426 
C 182.650143 138.358701 182.495865 138.500148 182.495865 138.647615 
C 182.495865 138.795083 182.650143 138.93653 182.92472 139.040805 
C 183.199298 139.14508 183.571757 139.203669 183.960068 139.203669 
z
" style="fill:#ff0000;opacity:0.2;stroke:#ff0000;stroke-linejoin:miter;stroke-width:2;"/>
   </g>
   <g id="patch_5">
    <path clip-path="url(#pe14869e0c2)" d="M 307.68522 232.898764 
C 308.073531 232.898764 308.445991 232.840175 308.720568 232.7359 
C 308.995146 232.631625 309.149423 232.490178 309.149423 232.34271 
C 309.149423 232.195243 308.995146 232.053796 308.720568 231.949521 
C 308.445991 231.845246 308.073531 231.786656 307.68522 231.786656 
C 307.296909 231.786656 306.92445 231.845246 306.649872 231.949521 
C 306.375295 232.053796 306.221017 232.195243 306.221017 232.34271 
C 306.221017 232.490178 306.375295 232.631625 306.649872 232.7359 
C 306.92445 232.840175 307.296909 232.898764 307.68522 232.898764 
z
" style="fill:#ff0000;opacity:0.2;stroke:#ff0000;stroke-linejoin:miter;stroke-width:2;"/>
   </g>
   <g id="patch_6">
    <path clip-path="url(#pe14869e0c2)" d="M 387.484283 41.616197 
C 387.872594 41.616197 388.245053 41.557607 388.519631 41.453332 
C 388.794208 41.349057 388.948486 41.20761 388.948486 41.060143 
C 388.948486 40.912675 388.794208 40.771228 388.519631 40.666953 
C 388.245053 40.562678 387.872594 40.504089 387.484283 40.504089 
C 387.095972 40.504089 386.723512 40.562678 386.448935 40.666953 
C 386.174357 40.771228 386.02008 40.912675 386.02008 41.060143 
C 386.02008 41.20761 386.174357 41.349057 386.448935 41.453332 
C 386.723512 41.557607 387.095972 41.616197 387.484283 41.616197 
z
" style="fill:#ff0000;opacity:0.2;stroke:#ff0000;stroke-linejoin:miter;stroke-width:2;"/>
   </g>
   <g id="patch_7">
    <path clip-path="url(#pe14869e0c2)" d="M 427.017763 43.284359 
C 427.406074 43.284359 427.778534 43.225769 428.053111 43.121494 
C 428.327689 43.017219 428.481966 42.875772 428.481966 42.728305 
C 428.481966 42.580837 428.327689 42.43939 428.053111 42.335115 
C 427.778534 42.23084 427.406074 42.172251 427.017763 42.172251 
C 426.629452 42.172251 426.256993 42.23084 425.982415 42.335115 
C 425.707838 42.43939 425.55356 42.580837 425.55356 42.728305 
C 425.55356 42.875772 425.707838 43.017219 425.982415 43.121494 
C 426.256993 43.225769 426.629452 43.284359 427.017763 43.284359 
z
" style="fill:#ff0000;opacity:0.2;stroke:#ff0000;stroke-linejoin:miter;stroke-width:2;"/>
   </g>
   <g id="patch_8">
    <path clip-path="url(#pe14869e0c2)" d="M 315.006235 306.853943 
C 315.394546 306.853943 315.767006 306.795354 316.041583 306.691079 
C 316.31616 306.586804 316.470438 306.445356 316.470438 306.297889 
C 316.470438 306.150422 316.31616 306.008975 316.041583 305.9047 
C 315.767006 305.800425 315.394546 305.741835 315.006235 305.741835 
C 314.617924 305.741835 314.245465 305.800425 313.970887 305.9047 
C 313.69631 306.008975 313.542032 306.150422 313.542032 306.297889 
C 313.542032 306.445356 313.69631 306.586804 313.970887 306.691079 
C 314.245465 306.795354 314.617924 306.853943 315.006235 306.853943 
z
" style="fill:#ff0000;opacity:0.2;stroke:#ff0000;stroke-linejoin:miter;stroke-width:2;"/>
   </g>
   <g id="patch_9">
    <path clip-path="url(#pe14869e0c2)" d="M 127.588253 165.060179 
C 127.976565 165.060179 128.349024 165.00159 128.623601 164.897315 
C 128.898179 164.79304 129.052456 164.651593 129.052456 164.504125 
C 129.052456 164.356658 128.898179 164.215211 128.623601 164.110936 
C 128.349024 164.006661 127.976565 163.948071 127.588253 163.948071 
C 127.199942 163.948071 126.827483 164.006661 126.552906 164.110936 
C 126.278328 164.215211 126.12405 164.356658 126.12405 164.504125 
C 126.12405 164.651593 126.278328 164.79304 126.552906 164.897315 
C 126.827483 165.00159 127.199942 165.060179 127.588253 165.060179 
z
" style="fill:#ff0000;opacity:0.2;stroke:#ff0000;stroke-linejoin:miter;stroke-width:2;"/>
   </g>
   <g id="patch_10">
    <path clip-path="url(#pe14869e0c2)" d="M 69.386185 167.423409 
C 69.774496 167.423409 70.146955 167.364819 70.421533 167.260544 
C 70.69611 167.156269 70.850388 167.014822 70.850388 166.867355 
C 70.850388 166.719888 70.69611 166.57844 70.421533 166.474165 
C 70.146955 166.36989 69.774496 166.311301 69.386185 166.311301 
C 68.997874 166.311301 68.625414 166.36989 68.350837 166.474165 
C 68.076259 166.57844 67.921982 166.719888 67.921982 166.867355 
C 67.921982 167.014822 68.076259 167.156269 68.350837 167.260544 
C 68.625414 167.364819 68.997874 167.423409 69.386185 167.423409 
z
" style="fill:#0000ff;opacity:0.2;stroke:#0000ff;stroke-linejoin:miter;stroke-width:2;"/>
   </g>
   <g id="patch_11">
    <path clip-path="url(#pe14869e0c2)" d="M 57.672561 158.248518 
C 58.060872 158.248518 58.433331 158.189929 58.707909 158.085654 
C 58.982486 157.981379 59.136764 157.839931 59.136764 157.692464 
C 59.136764 157.544997 58.982486 157.40355 58.707909 157.299275 
C 58.433331 157.195 58.060872 157.13641 57.672561 157.13641 
C 57.28425 157.13641 56.911791 157.195 56.637213 157.299275 
C 56.362636 157.40355 56.208358 157.544997 56.208358 157.692464 
C 56.208358 157.839931 56.362636 157.981379 56.637213 158.085654 
C 56.911791 158.189929 57.28425 158.248518 57.672561 158.248518 
z
" style="fill:#0000ff;opacity:0.2;stroke:#0000ff;stroke-linejoin:miter;stroke-width:2;"/>
   </g>
   <g id="patch_12">
    <path clip-path="url(#pe14869e0c2)" d="M 168.219886 137.674521 
C 168.608197 137.674521 168.980657 137.615932 169.255234 137.511657 
C 169.529811 137.407382 169.684089 137.265934 169.684089 137.118467 
C 169.684089 136.971 169.529811 136.829553 169.255234 136.725278 
C 168.980657 136.621002 168.608197 136.562413 168.219886 136.562413 
C 167.831575 136.562413 167.459116 136.621002 167.184538 136.725278 
C 166.909961 136.829553 166.755683 136.971 166.755683 137.118467 
C 166.755683 137.265934 166.909961 137.407382 167.184538 137.511657 
C 167.459116 137.615932 167.831575 137.674521 168.219886 137.674521 
z
" style="fill:#0000ff;opacity:0.2;stroke:#0000ff;stroke-linejoin:miter;stroke-width:2;"/>
   </g>
   <g id="patch_13">
    <path clip-path="url(#pe14869e0c2)" d="M 308.783372 251.665586 
C 309.171684 251.665586 309.544143 251.606997 309.81872 251.502722 
C 310.093298 251.398447 310.247575 251.256999 310.247575 251.109532 
C 310.247575 250.962065 310.093298 250.820618 309.81872 250.716343 
C 309.544143 250.612067 309.171684 250.553478 308.783372 250.553478 
C 308.395061 250.553478 308.022602 250.612067 307.748025 250.716343 
C 307.473447 250.820618 307.319169 250.962065 307.319169 251.109532 
C 307.319169 251.256999 307.473447 251.398447 307.748025 251.502722 
C 308.022602 251.606997 308.395061 251.665586 308.783372 251.665586 
z
" style="fill:#0000ff;opacity:0.2;stroke:#0000ff;stroke-linejoin:miter;stroke-width:2;"/>
   </g>
   <g id="patch_14">
    <path clip-path="url(#pe14869e0c2)" d="M 401.760262 28.409915 
C 402.148573 28.409915 402.521032 28.351325 402.79561 28.24705 
C 403.070187 28.142775 403.224465 28.001328 403.224465 27.853861 
C 403.224465 27.706394 403.070187 27.564946 402.79561 27.460671 
C 402.521032 27.356396 402.148573 27.297807 401.760262 27.297807 
C 401.371951 27.297807 400.999491 27.356396 400.724914 27.460671 
C 400.450337 27.564946 400.296059 27.706394 400.296059 27.853861 
C 400.296059 28.001328 400.450337 28.142775 400.724914 28.24705 
C 400.999491 28.351325 401.371951 28.409915 401.760262 28.409915 
z
" style="fill:#0000ff;opacity:0.2;stroke:#0000ff;stroke-linejoin:miter;stroke-width:2;"/>
   </g>
   <g id="patch_15">
    <path clip-path="url(#pe14869e0c2)" d="M 427.383814 29.80005 
C 427.772125 29.80005 428.144584 29.74146 428.419162 29.637185 
C 428.693739 29.53291 428.848017 29.391463 428.848017 29.243996 
C 428.848017 29.096528 428.693739 28.955081 428.419162 28.850806 
C 428.144584 28.746531 427.772125 28.687942 427.383814 28.687942 
C 426.995503 28.687942 426.623044 28.746531 426.348466 28.850806 
C 426.073889 28.955081 425.919611 29.096528 425.919611 29.243996 
C 425.919611 29.391463 426.073889 29.53291 426.348466 29.637185 
C 426.623044 29.74146 426.995503 29.80005 427.383814 29.80005 
z
" style="fill:#0000ff;opacity:0.2;stroke:#0000ff;stroke-linejoin:miter;stroke-width:2;"/>
   </g>
   <g id="patch_16">
    <path clip-path="url(#pe14869e0c2)" d="M 317.56859 293.925688 
C 317.956902 293.925688 318.329361 293.867099 318.603938 293.762824 
C 318.878516 293.658549 319.032793 293.517102 319.032793 293.369634 
C 319.032793 293.222167 318.878516 293.08072 318.603938 292.976445 
C 318.329361 292.87217 317.956902 292.81358 317.56859 292.81358 
C 317.180279 292.81358 316.80782 292.87217 316.533243 292.976445 
C 316.258665 293.08072 316.104387 293.222167 316.104387 293.369634 
C 316.104387 293.517102 316.258665 293.658549 316.533243 293.762824 
C 316.80782 293.867099 317.180279 293.925688 317.56859 293.925688 
z
" style="fill:#0000ff;opacity:0.2;stroke:#0000ff;stroke-linejoin:miter;stroke-width:2;"/>
   </g>
   <g id="patch_17">
    <path clip-path="url(#pe14869e0c2)" d="M 139.667928 154.35614 
C 140.056239 154.35614 140.428698 154.297551 140.703276 154.193276 
C 140.977853 154.089001 141.132131 153.947554 141.132131 153.800086 
C 141.132131 153.652619 140.977853 153.511172 140.703276 153.406897 
C 140.428698 153.302622 140.056239 153.244032 139.667928 153.244032 
C 139.279617 153.244032 138.907158 153.302622 138.63258 153.406897 
C 138.358003 153.511172 138.203725 153.652619 138.203725 153.800086 
C 138.203725 153.947554 138.358003 154.089001 138.63258 154.193276 
C 138.907158 154.297551 139.279617 154.35614 139.667928 154.35614 
z
" style="fill:#0000ff;opacity:0.2;stroke:#0000ff;stroke-linejoin:miter;stroke-width:2;"/>
   </g>
   <g id="patch_18">
    <path clip-path="url(#pe14869e0c2)" d="M 71.94854 174.23507 
L 58.038612 163.11399 
L 183.960068 138.647615 
L 307.68522 232.34271 
L 387.484283 41.060143 
L 427.017763 42.728305 
L 315.006235 306.297889 
L 127.588253 164.504125 
L 71.94854 174.23507 
" style="fill:none;stroke:#ff0000;stroke-linejoin:miter;stroke-width:0.5;"/>
   </g>
   <g id="patch_19">
    <path clip-path="url(#pe14869e0c2)" d="M 69.386185 166.867355 
L 57.672561 157.692464 
L 168.219886 137.118467 
L 308.783372 251.109532 
L 401.760262 27.853861 
L 427.383814 29.243996 
L 317.56859 293.369634 
L 139.667928 153.800086 
L 69.386185 166.867355 
" style="fill:none;stroke:#0000ff;stroke-linejoin:miter;stroke-width:0.5;"/>
   </g>
   <g id="[&quot;g_s&quot;:1,&quot;g_t&quot;:1,&quot;coords&quot;:[[89.0, -286.0],[85.5, -259.5]],&quot;certainty&quot;:11]">
    <path clip-path="url(#pe14869e0c2)" d="M 71.94854 175.903232 
C 73.113474 175.903232 74.230851 175.727464 75.054584 175.414639 
C 75.878316 175.101813 76.341149 174.677472 76.341149 174.23507 
C 76.341149 173.792668 75.878316 173.368327 75.054584 173.055501 
C 74.230851 172.742676 73.113474 172.566908 71.94854 172.566908 
C 70.783607 172.566908 69.666229 172.742676 68.842496 173.055501 
C 68.018764 173.368327 67.555931 173.792668 67.555931 174.23507 
C 67.555931 174.677472 68.018764 175.101813 68.842496 175.414639 
C 69.666229 175.727464 70.783607 175.903232 71.94854 175.903232 
z
" style="fill:#0000ff;opacity:0.2;stroke:#0000ff;stroke-linejoin:miter;stroke-width:2;"/>
   </g>
   <g id="[&quot;g_s&quot;:1,&quot;g_t&quot;:1,&quot;coords&quot;:[[85.5, -259.5],[89.0, -286.0]],&quot;certainty&quot;:11]">
    <path clip-path="url(#pe14869e0c2)" d="M 69.386185 168.535517 
C 70.551118 168.535517 71.668496 168.359749 72.492228 168.046923 
C 73.315961 167.734098 73.778794 167.309756 73.778794 166.867355 
C 73.778794 166.424953 73.315961 166.000611 72.492228 165.687786 
C 71.668496 165.374961 70.551118 165.199193 69.386185 165.199193 
C 68.221251 165.199193 67.103874 165.374961 66.280141 165.687786 
C 65.456409 166.000611 64.993576 166.424953 64.993576 166.867355 
C 64.993576 167.309756 65.456409 167.734098 66.280141 168.046923 
C 67.103874 168.359749 68.221251 168.535517 69.386185 168.535517 
z
" style="fill:#ff0000;opacity:0.2;stroke:#ff0000;stroke-linejoin:miter;stroke-width:2;"/>
   </g>
   <g id="patch_20">
    <path d="M 71.94854 174.23507 
Q 70.995789 171.495561 70.739856 170.759659 
" style="fill:none;opacity:0.5;stroke:#0000ff;stroke-linecap:round;stroke-width:3;"/>
    <path d="M 69.815816 172.669149 
L 70.739856 170.759659 
L 72.649346 171.683699 
" style="fill:none;opacity:0.5;stroke:#0000ff;stroke-linecap:round;stroke-width:3;"/>
   </g>
   <g id="[&quot;g_s&quot;:2,&quot;g_t&quot;:2,&quot;coords&quot;:[[70.0, -246.0],[69.5, -226.5]],&quot;certainty&quot;:9]">
    <path clip-path="url(#pe14869e0c2)" d="M 58.038612 164.504125 
C 59.00939 164.504125 59.940538 164.357652 60.626981 164.096964 
C 61.313425 163.836277 61.699119 163.482659 61.699119 163.11399 
C 61.699119 162.745322 61.313425 162.391704 60.626981 162.131017 
C 59.940538 161.870329 59.00939 161.723855 58.038612 161.723855 
C 57.067834 161.723855 56.136686 161.870329 55.450242 162.131017 
C 54.763798 162.391704 54.378104 162.745322 54.378104 163.11399 
C 54.378104 163.482659 54.763798 163.836277 55.450242 164.096964 
C 56.136686 164.357652 57.067834 164.504125 58.038612 164.504125 
z
" style="fill:#0000ff;opacity:0.2;stroke:#0000ff;stroke-linejoin:miter;stroke-width:2;"/>
   </g>
   <g id="[&quot;g_s&quot;:2,&quot;g_t&quot;:2,&quot;coords&quot;:[[69.5, -226.5],[70.0, -246.0]],&quot;certainty&quot;:9]">
    <path clip-path="url(#pe14869e0c2)" d="M 57.672561 159.082599 
C 58.643339 159.082599 59.574487 158.936126 60.260931 158.675438 
C 60.947374 158.41475 61.333068 158.061132 61.333068 157.692464 
C 61.333068 157.323796 60.947374 156.970178 60.260931 156.70949 
C 59.574487 156.448803 58.643339 156.302329 57.672561 156.302329 
C 56.701783 156.302329 55.770635 156.448803 55.084191 156.70949 
C 54.397748 156.970178 54.012053 157.323796 54.012053 157.692464 
C 54.012053 158.061132 54.397748 158.41475 55.084191 158.675438 
C 55.770635 158.936126 56.701783 159.082599 57.672561 159.082599 
z
" style="fill:#ff0000;opacity:0.2;stroke:#ff0000;stroke-linejoin:miter;stroke-width:2;"/>
   </g>
   <g id="patch_21">
    <path d="M 58.038612 163.11399 
Q 57.92288 161.399909 57.926234 161.449579 
" style="fill:none;opacity:0.5;stroke:#0000ff;stroke-linecap:round;stroke-width:2.5;"/>
    <path d="M 56.530688 163.047219 
L 57.926234 161.449579 
L 59.523874 162.845125 
" style="fill:none;opacity:0.5;stroke:#0000ff;stroke-linecap:round;stroke-width:2.5;"/>
   </g>
   <g id="[&quot;g_s&quot;:3,&quot;g_t&quot;:3,&quot;coords&quot;:[[242.0, -158.0],[220.5, -152.5]],&quot;certainty&quot;:9]">
    <path clip-path="url(#pe14869e0c2)" d="M 183.960068 140.03775 
C 184.930846 140.03775 185.861994 139.891277 186.548438 139.630589 
C 187.234881 139.369902 187.620576 139.016284 187.620576 138.647615 
C 187.620576 138.278947 187.234881 137.925329 186.548438 137.664642 
C 185.861994 137.403954 184.930846 137.257481 183.960068 137.257481 
C 182.98929 137.257481 182.058142 137.403954 181.371699 137.664642 
C 180.685255 137.925329 180.299561 138.278947 180.299561 138.647615 
C 180.299561 139.016284 180.685255 139.369902 181.371699 139.630589 
C 182.058142 139.891277 182.98929 140.03775 183.960068 140.03775 
z
" style="fill:#0000ff;opacity:0.2;stroke:#0000ff;stroke-linejoin:miter;stroke-width:2;"/>
   </g>
   <g id="[&quot;g_s&quot;:3,&quot;g_t&quot;:3,&quot;coords&quot;:[[220.5, -152.5],[242.0, -158.0]],&quot;certainty&quot;:9]">
    <path clip-path="url(#pe14869e0c2)" d="M 168.219886 138.508602 
C 169.190664 138.508602 170.121812 138.362129 170.808256 138.101441 
C 171.494699 137.840753 171.880394 137.487135 171.880394 137.118467 
C 171.880394 136.749799 171.494699 136.396181 170.808256 136.135493 
C 170.121812 135.874805 169.190664 135.728332 168.219886 135.728332 
C 167.249108 135.728332 166.31796 135.874805 165.631516 136.135493 
C 164.945073 136.396181 164.559379 136.749799 164.559379 137.118467 
C 164.559379 137.487135 164.945073 137.840753 165.631516 138.101441 
C 166.31796 138.362129 167.249108 138.508602 168.219886 138.508602 
z
" style="fill:#ff0000;opacity:0.2;stroke:#ff0000;stroke-linejoin:miter;stroke-width:2;"/>
   </g>
   <g id="patch_22">
    <path d="M 183.960068 138.647615 
Q 177.087188 137.97992 171.973792 137.483157 
" style="fill:none;opacity:0.5;stroke:#0000ff;stroke-linecap:round;stroke-width:2.5;"/>
    <path d="M 173.321722 139.121169 
L 171.973792 137.483157 
L 173.611804 136.135227 
" style="fill:none;opacity:0.5;stroke:#0000ff;stroke-linecap:round;stroke-width:2.5;"/>
   </g>
   <g id="[&quot;g_s&quot;:4,&quot;g_t&quot;:4,&quot;coords&quot;:[[411.0, -495.0],[412.5, -562.5]],&quot;certainty&quot;:11]">
    <path clip-path="url(#pe14869e0c2)" d="M 307.68522 234.010872 
C 308.850154 234.010872 309.967531 233.835104 310.791264 233.522279 
C 311.614996 233.209454 312.077829 232.785112 312.077829 232.34271 
C 312.077829 231.900309 311.614996 231.475967 310.791264 231.163142 
C 309.967531 230.850317 308.850154 230.674548 307.68522 230.674548 
C 306.520287 230.674548 305.402909 230.850317 304.579177 231.163142 
C 303.755444 231.475967 303.292611 231.900309 303.292611 232.34271 
C 303.292611 232.785112 303.755444 233.209454 304.579177 233.522279 
C 305.402909 233.835104 306.520287 234.010872 307.68522 234.010872 
z
" style="fill:#0000ff;opacity:0.2;stroke:#0000ff;stroke-linejoin:miter;stroke-width:2;"/>
   </g>
   <g id="[&quot;g_s&quot;:4,&quot;g_t&quot;:4,&quot;coords&quot;:[[412.5, -562.5],[411.0, -495.0]],&quot;certainty&quot;:11]">
    <path clip-path="url(#pe14869e0c2)" d="M 308.783372 252.777694 
C 309.948306 252.777694 311.065684 252.601926 311.889416 252.289101 
C 312.713148 251.976275 313.175981 251.551934 313.175981 251.109532 
C 313.175981 250.66713 312.713148 250.242789 311.889416 249.929963 
C 311.065684 249.617138 309.948306 249.44137 308.783372 249.44137 
C 307.618439 249.44137 306.501061 249.617138 305.677329 249.929963 
C 304.853597 250.242789 304.390764 250.66713 304.390764 251.109532 
C 304.390764 251.551934 304.853597 251.976275 305.677329 252.289101 
C 306.501061 252.601926 307.618439 252.777694 308.783372 252.777694 
z
" style="fill:#ff0000;opacity:0.2;stroke:#ff0000;stroke-linejoin:miter;stroke-width:2;"/>
   </g>
   <g id="patch_23">
    <path d="M 307.68522 232.34271 
Q 308.175984 240.729592 308.542829 246.998776 
" style="fill:none;opacity:0.5;stroke:#0000ff;stroke-linecap:round;stroke-width:3;"/>
    <path d="M 309.952644 245.413714 
L 308.542829 246.998776 
L 306.957767 245.588961 
" style="fill:none;opacity:0.5;stroke:#0000ff;stroke-linecap:round;stroke-width:3;"/>
   </g>
   <g id="[&quot;g_s&quot;:5,&quot;g_t&quot;:5,&quot;coords&quot;:[[520.0, 193.0],[539.5, 240.5]],&quot;certainty&quot;:8]">
    <path clip-path="url(#pe14869e0c2)" d="M 387.484283 42.311264 
C 388.357983 42.311264 389.196016 42.179438 389.813815 41.944819 
C 390.431615 41.7102 390.778739 41.391944 390.778739 41.060143 
C 390.778739 40.728341 390.431615 40.410085 389.813815 40.175466 
C 389.196016 39.940847 388.357983 39.809021 387.484283 39.809021 
C 386.610583 39.809021 385.772549 39.940847 385.15475 40.175466 
C 384.536951 40.410085 384.189826 40.728341 384.189826 41.060143 
C 384.189826 41.391944 384.536951 41.7102 385.15475 41.944819 
C 385.772549 42.179438 386.610583 42.311264 387.484283 42.311264 
z
" style="fill:#0000ff;opacity:0.2;stroke:#0000ff;stroke-linejoin:miter;stroke-width:2;"/>
   </g>
   <g id="[&quot;g_s&quot;:5,&quot;g_t&quot;:5,&quot;coords&quot;:[[539.5, 240.5],[520.0, 193.0]],&quot;certainty&quot;:8]">
    <path clip-path="url(#pe14869e0c2)" d="M 401.760262 29.104982 
C 402.633962 29.104982 403.471995 28.973156 404.089795 28.738537 
C 404.707594 28.503918 405.054719 28.185662 405.054719 27.853861 
C 405.054719 27.52206 404.707594 27.203803 404.089795 26.969184 
C 403.471995 26.734565 402.633962 26.602739 401.760262 26.602739 
C 400.886562 26.602739 400.048528 26.734565 399.430729 26.969184 
C 398.81293 27.203803 398.465805 27.52206 398.465805 27.853861 
C 398.465805 28.185662 398.81293 28.503918 399.430729 28.738537 
C 400.048528 28.973156 400.886562 29.104982 401.760262 29.104982 
z
" style="fill:#ff0000;opacity:0.2;stroke:#ff0000;stroke-linejoin:miter;stroke-width:2;"/>
   </g>
   <g id="patch_24">
    <path d="M 387.484283 41.060143 
Q 393.888607 35.135694 399.125027 30.291638 
" style="fill:none;opacity:0.5;stroke:#0000ff;stroke-linecap:round;stroke-width:2.25;"/>
    <path d="M 397.005312 30.209132 
L 399.125027 30.291638 
L 399.042521 32.411353 
" style="fill:none;opacity:0.5;stroke:#0000ff;stroke-linecap:round;stroke-width:2.25;"/>
   </g>
   <g id="[&quot;g_s&quot;:8,&quot;g_t&quot;:8,&quot;coords&quot;:[[165.0, -251.0],[181.5, -212.5]],&quot;certainty&quot;:11]">
    <path clip-path="url(#pe14869e0c2)" d="M 127.588253 166.172287 
C 128.753187 166.172287 129.870565 165.996519 130.694297 165.683694 
C 131.518029 165.370869 131.980862 164.946527 131.980862 164.504125 
C 131.980862 164.061724 131.518029 163.637382 130.694297 163.324557 
C 129.870565 163.011731 128.753187 162.835963 127.588253 162.835963 
C 126.42332 162.835963 125.305942 163.011731 124.48221 163.324557 
C 123.658477 163.637382 123.195644 164.061724 123.195644 164.504125 
C 123.195644 164.946527 123.658477 165.370869 124.48221 165.683694 
C 125.305942 165.996519 126.42332 166.172287 127.588253 166.172287 
z
" style="fill:#0000ff;opacity:0.2;stroke:#0000ff;stroke-linejoin:miter;stroke-width:2;"/>
   </g>
   <g id="[&quot;g_s&quot;:8,&quot;g_t&quot;:8,&quot;coords&quot;:[[181.5, -212.5],[165.0, -251.0]],&quot;certainty&quot;:11]">
    <path clip-path="url(#pe14869e0c2)" d="M 139.667928 155.468248 
C 140.832861 155.468248 141.950239 155.29248 142.773972 154.979655 
C 143.597704 154.66683 144.060537 154.242488 144.060537 153.800086 
C 144.060537 153.357685 143.597704 152.933343 142.773972 152.620518 
C 141.950239 152.307692 140.832861 152.131924 139.667928 152.131924 
C 138.502994 152.131924 137.385617 152.307692 136.561884 152.620518 
C 135.738152 152.933343 135.275319 153.357685 135.275319 153.800086 
C 135.275319 154.242488 135.738152 154.66683 136.561884 154.979655 
C 137.385617 155.29248 138.502994 155.468248 139.667928 155.468248 
z
" style="fill:#ff0000;opacity:0.2;stroke:#ff0000;stroke-linejoin:miter;stroke-width:2;"/>
   </g>
   <g id="patch_25">
    <path d="M 127.588253 164.504125 
Q 132.880484 159.814575 136.585039 156.531896 
" style="fill:none;opacity:0.5;stroke:#0000ff;stroke-linecap:round;stroke-width:3;"/>
    <path d="M 134.467574 156.404047 
L 136.585039 156.531896 
L 136.45719 158.64936 
" style="fill:none;opacity:0.5;stroke:#0000ff;stroke-linecap:round;stroke-width:3;"/>
   </g>
   <g id="[&quot;g_s&quot;:1,&quot;g_t&quot;:1,&quot;coords&quot;:[[85.5, -259.5],[89.0, -286.0]],&quot;certainty&quot;:11]">
    <path clip-path="url(#pe14869e0c2)" d="M 69.386185 168.535517 
C 70.551118 168.535517 71.668496 168.359749 72.492228 168.046923 
C 73.315961 167.734098 73.778794 167.309756 73.778794 166.867355 
C 73.778794 166.424953 73.315961 166.000611 72.492228 165.687786 
C 71.668496 165.374961 70.551118 165.199193 69.386185 165.199193 
C 68.221251 165.199193 67.103874 165.374961 66.280141 165.687786 
C 65.456409 166.000611 64.993576 166.424953 64.993576 166.867355 
C 64.993576 167.309756 65.456409 167.734098 66.280141 168.046923 
C 67.103874 168.359749 68.221251 168.535517 69.386185 168.535517 
z
" style="fill:#0000ff;opacity:0.2;stroke:#0000ff;stroke-linejoin:miter;stroke-width:2;"/>
   </g>
   <g id="[&quot;g_s&quot;:1,&quot;g_t&quot;:1,&quot;coords&quot;:[[89.0, -286.0],[85.5, -259.5]],&quot;certainty&quot;:11]">
    <path clip-path="url(#pe14869e0c2)" d="M 71.94854 175.903232 
C 73.113474 175.903232 74.230851 175.727464 75.054584 175.414639 
C 75.878316 175.101813 76.341149 174.677472 76.341149 174.23507 
C 76.341149 173.792668 75.878316 173.368327 75.054584 173.055501 
C 74.230851 172.742676 73.113474 172.566908 71.94854 172.566908 
C 70.783607 172.566908 69.666229 172.742676 68.842496 173.055501 
C 68.018764 173.368327 67.555931 173.792668 67.555931 174.23507 
C 67.555931 174.677472 68.018764 175.101813 68.842496 175.414639 
C 69.666229 175.727464 70.783607 175.903232 71.94854 175.903232 
z
" style="fill:#ff0000;opacity:0.2;stroke:#ff0000;stroke-linejoin:miter;stroke-width:2;"/>
   </g>
   <g id="patch_26">
    <path d="M 69.386185 166.867355 
Q 70.338936 169.606864 70.594868 170.342765 
" style="fill:none;opacity:0.5;stroke:#ff0000;stroke-linecap:round;stroke-width:3;"/>
    <path d="M 71.518909 168.433276 
L 70.594868 170.342765 
L 68.685379 169.418725 
" style="fill:none;opacity:0.5;stroke:#ff0000;stroke-linecap:round;stroke-width:3;"/>
   </g>
   <g id="[&quot;g_s&quot;:2,&quot;g_t&quot;:2,&quot;coords&quot;:[[69.5, -226.5],[70.0, -246.0]],&quot;certainty&quot;:10]">
    <path clip-path="url(#pe14869e0c2)" d="M 57.672561 159.221613 
C 58.740417 159.221613 59.76468 159.060492 60.519768 158.773735 
C 61.274856 158.486979 61.699119 158.097999 61.699119 157.692464 
C 61.699119 157.286929 61.274856 156.897949 60.519768 156.611193 
C 59.76468 156.324436 58.740417 156.163316 57.672561 156.163316 
C 56.604705 156.163316 55.580442 156.324436 54.825354 156.611193 
C 54.070266 156.897949 53.646003 157.286929 53.646003 157.692464 
C 53.646003 158.097999 54.070266 158.486979 54.825354 158.773735 
C 55.580442 159.060492 56.604705 159.221613 57.672561 159.221613 
z
" style="fill:#0000ff;opacity:0.2;stroke:#0000ff;stroke-linejoin:miter;stroke-width:2;"/>
   </g>
   <g id="[&quot;g_s&quot;:2,&quot;g_t&quot;:2,&quot;coords&quot;:[[70.0, -246.0],[69.5, -226.5]],&quot;certainty&quot;:10]">
    <path clip-path="url(#pe14869e0c2)" d="M 58.038612 164.643139 
C 59.106467 164.643139 60.13073 164.482018 60.885818 164.195262 
C 61.640906 163.908505 62.06517 163.519525 62.06517 163.11399 
C 62.06517 162.708456 61.640906 162.319476 60.885818 162.032719 
C 60.13073 161.745963 59.106467 161.584842 58.038612 161.584842 
C 56.970756 161.584842 55.946493 161.745963 55.191405 162.032719 
C 54.436317 162.319476 54.012053 162.708456 54.012053 163.11399 
C 54.012053 163.519525 54.436317 163.908505 55.191405 164.195262 
C 55.946493 164.482018 56.970756 164.643139 58.038612 164.643139 
z
" style="fill:#ff0000;opacity:0.2;stroke:#ff0000;stroke-linejoin:miter;stroke-width:2;"/>
   </g>
   <g id="patch_27">
    <path d="M 57.672561 157.692464 
Q 57.788292 159.406545 57.77303 159.1805 
" style="fill:none;opacity:0.5;stroke:#ff0000;stroke-linecap:round;stroke-width:2.75;"/>
    <path d="M 59.168576 157.58286 
L 57.77303 159.1805 
L 56.175391 157.784954 
" style="fill:none;opacity:0.5;stroke:#ff0000;stroke-linecap:round;stroke-width:2.75;"/>
   </g>
   <g id="[&quot;g_s&quot;:3,&quot;g_t&quot;:3,&quot;coords&quot;:[[220.5, -152.5],[242.0, -158.0]],&quot;certainty&quot;:11]">
    <path clip-path="url(#pe14869e0c2)" d="M 168.219886 138.786629 
C 169.38482 138.786629 170.502197 138.610861 171.32593 138.298036 
C 172.149662 137.98521 172.612495 137.560869 172.612495 137.118467 
C 172.612495 136.676065 172.149662 136.251724 171.32593 135.938898 
C 170.502197 135.626073 169.38482 135.450305 168.219886 135.450305 
C 167.054953 135.450305 165.937575 135.626073 165.113843 135.938898 
C 164.29011 136.251724 163.827277 136.676065 163.827277 137.118467 
C 163.827277 137.560869 164.29011 137.98521 165.113843 138.298036 
C 165.937575 138.610861 167.054953 138.786629 168.219886 138.786629 
z
" style="fill:#0000ff;opacity:0.2;stroke:#0000ff;stroke-linejoin:miter;stroke-width:2;"/>
   </g>
   <g id="[&quot;g_s&quot;:3,&quot;g_t&quot;:3,&quot;coords&quot;:[[242.0, -158.0],[220.5, -152.5]],&quot;certainty&quot;:11]">
    <path clip-path="url(#pe14869e0c2)" d="M 183.960068 140.315777 
C 185.125002 140.315777 186.242379 140.140009 187.066112 139.827184 
C 187.889844 139.514359 188.352677 139.090017 188.352677 138.647615 
C 188.352677 138.205214 187.889844 137.780872 187.066112 137.468047 
C 186.242379 137.155222 185.125002 136.979454 183.960068 136.979454 
C 182.795135 136.979454 181.677757 137.155222 180.854025 137.468047 
C 180.030292 137.780872 179.567459 138.205214 179.567459 138.647615 
C 179.567459 139.090017 180.030292 139.514359 180.854025 139.827184 
C 181.677757 140.140009 182.795135 140.315777 183.960068 140.315777 
z
" style="fill:#ff0000;opacity:0.2;stroke:#ff0000;stroke-linejoin:miter;stroke-width:2;"/>
   </g>
   <g id="patch_28">
    <path d="M 168.219886 137.118467 
Q 175.092766 137.786163 179.854266 138.248739 
" style="fill:none;opacity:0.5;stroke:#ff0000;stroke-linecap:round;stroke-width:3;"/>
    <path d="M 178.506336 136.610727 
L 179.854266 138.248739 
L 178.216253 139.596669 
" style="fill:none;opacity:0.5;stroke:#ff0000;stroke-linecap:round;stroke-width:3;"/>
   </g>
   <g id="[&quot;g_s&quot;:8,&quot;g_t&quot;:8,&quot;coords&quot;:[[181.5, -212.5],[165.0, -251.0]],&quot;certainty&quot;:10]">
    <path clip-path="url(#pe14869e0c2)" d="M 139.667928 155.329235 
C 140.735784 155.329235 141.760047 155.168114 142.515135 154.881358 
C 143.270223 154.594601 143.694486 154.205621 143.694486 153.800086 
C 143.694486 153.394551 143.270223 153.005572 142.515135 152.718815 
C 141.760047 152.432059 140.735784 152.270938 139.667928 152.270938 
C 138.600072 152.270938 137.575809 152.432059 136.820721 152.718815 
C 136.065633 153.005572 135.64137 153.394551 135.64137 153.800086 
C 135.64137 154.205621 136.065633 154.594601 136.820721 154.881358 
C 137.575809 155.168114 138.600072 155.329235 139.667928 155.329235 
z
" style="fill:#0000ff;opacity:0.2;stroke:#0000ff;stroke-linejoin:miter;stroke-width:2;"/>
   </g>
   <g id="[&quot;g_s&quot;:8,&quot;g_t&quot;:8,&quot;coords&quot;:[[165.0, -251.0],[181.5, -212.5]],&quot;certainty&quot;:10]">
    <path clip-path="url(#pe14869e0c2)" d="M 127.588253 166.033274 
C 128.656109 166.033274 129.680372 165.872153 130.43546 165.585397 
C 131.190548 165.29864 131.614812 164.90966 131.614812 164.504125 
C 131.614812 164.09859 131.190548 163.709611 130.43546 163.422854 
C 129.680372 163.136098 128.656109 162.974977 127.588253 162.974977 
C 126.520398 162.974977 125.496135 163.136098 124.741047 163.422854 
C 123.985959 163.709611 123.561695 164.09859 123.561695 164.504125 
C 123.561695 164.90966 123.985959 165.29864 124.741047 165.585397 
C 125.496135 165.872153 126.520398 166.033274 127.588253 166.033274 
z
" style="fill:#ff0000;opacity:0.2;stroke:#ff0000;stroke-linejoin:miter;stroke-width:2;"/>
   </g>
   <g id="patch_29">
    <path d="M 139.667928 153.800086 
Q 134.375697 158.489637 130.538836 161.889555 
" style="fill:none;opacity:0.5;stroke:#ff0000;stroke-linecap:round;stroke-width:2.75;"/>
    <path d="M 132.656301 162.017404 
L 130.538836 161.889555 
L 130.666685 159.772091 
" style="fill:none;opacity:0.5;stroke:#ff0000;stroke-linecap:round;stroke-width:2.75;"/>
   </g>
   <g id="patch_30">
    <path clip-path="url(#pe14869e0c2)" d="M 70.667362 171.941347 
C 71.63814 171.941347 72.569288 171.794874 73.255732 171.534186 
C 73.942176 171.273498 74.32787 170.91988 74.32787 170.551212 
C 74.32787 170.182544 73.942176 169.828926 73.255732 169.568239 
C 72.569288 169.307551 71.63814 169.161077 70.667362 169.161077 
C 69.696584 169.161077 68.765436 169.307551 68.078993 169.568239 
C 67.392549 169.828926 67.006855 170.182544 67.006855 170.551212 
C 67.006855 170.91988 67.392549 171.273498 68.078993 171.534186 
C 68.765436 171.794874 69.696584 171.941347 70.667362 171.941347 
z
" style="fill:#008000;opacity:0.2;stroke:#008000;stroke-linejoin:miter;stroke-width:2;"/>
   </g>
   <g id="patch_31">
    <path clip-path="url(#pe14869e0c2)" d="M 57.855586 161.793362 
C 58.826364 161.793362 59.757512 161.646889 60.443956 161.386201 
C 61.1304 161.125513 61.516094 160.771895 61.516094 160.403227 
C 61.516094 160.034559 61.1304 159.680941 60.443956 159.420253 
C 59.757512 159.159566 58.826364 159.013092 57.855586 159.013092 
C 56.884808 159.013092 55.95366 159.159566 55.267217 159.420253 
C 54.580773 159.680941 54.195079 160.034559 54.195079 160.403227 
C 54.195079 160.771895 54.580773 161.125513 55.267217 161.386201 
C 55.95366 161.646889 56.884808 161.793362 57.855586 161.793362 
z
" style="fill:#008000;opacity:0.2;stroke:#008000;stroke-linejoin:miter;stroke-width:2;"/>
   </g>
   <g id="patch_32">
    <path clip-path="url(#pe14869e0c2)" d="M 176.089977 139.273176 
C 177.060755 139.273176 177.991903 139.126703 178.678347 138.866015 
C 179.36479 138.605327 179.750485 138.251709 179.750485 137.883041 
C 179.750485 137.514373 179.36479 137.160755 178.678347 136.900067 
C 177.991903 136.63938 177.060755 136.492906 176.089977 136.492906 
C 175.119199 136.492906 174.188051 136.63938 173.501608 136.900067 
C 172.815164 137.160755 172.42947 137.514373 172.42947 137.883041 
C 172.42947 138.251709 172.815164 138.605327 173.501608 138.866015 
C 174.188051 139.126703 175.119199 139.273176 176.089977 139.273176 
z
" style="fill:#008000;opacity:0.2;stroke:#008000;stroke-linejoin:miter;stroke-width:2;"/>
   </g>
   <g id="patch_33">
    <path clip-path="url(#pe14869e0c2)" d="M 133.628091 160.542241 
C 134.598869 160.542241 135.530017 160.395767 136.21646 160.13508 
C 136.902904 159.874392 137.288598 159.520774 137.288598 159.152106 
C 137.288598 158.783438 136.902904 158.42982 136.21646 158.169132 
C 135.530017 157.908444 134.598869 157.761971 133.628091 157.761971 
C 132.657313 157.761971 131.726165 157.908444 131.039721 158.169132 
C 130.353277 158.42982 129.967583 158.783438 129.967583 159.152106 
C 129.967583 159.520774 130.353277 159.874392 131.039721 160.13508 
C 131.726165 160.395767 132.657313 160.542241 133.628091 160.542241 
z
" style="fill:#008000;opacity:0.2;stroke:#008000;stroke-linejoin:miter;stroke-width:2;"/>
   </g>
   <g id="patch_34">
    <path clip-path="url(#pe14869e0c2)" d="M 71.94854 179.79561 
C 75.831652 179.79561 79.556244 179.209716 82.302019 178.166965 
C 85.047793 177.124214 86.59057 175.709742 86.59057 174.23507 
C 86.59057 172.760398 85.047793 171.345925 82.302019 170.303175 
C 79.556244 169.260424 75.831652 168.67453 71.94854 168.67453 
C 68.065428 168.67453 64.340836 169.260424 61.595061 170.303175 
C 58.849287 171.345925 57.30651 172.760398 57.30651 174.23507 
C 57.30651 175.709742 58.849287 177.124214 61.595061 178.166965 
C 64.340836 179.209716 68.065428 179.79561 71.94854 179.79561 
z
" style="fill:none;opacity:0.2;stroke:#ff0000;stroke-linejoin:miter;stroke-width:2;"/>
   </g>
   <g id="patch_35">
    <path clip-path="url(#pe14869e0c2)" d="M 69.386185 172.427895 
C 73.269296 172.427895 76.993889 171.842001 79.739663 170.79925 
C 82.485438 169.756499 84.028215 168.342027 84.028215 166.867355 
C 84.028215 165.392682 82.485438 163.97821 79.739663 162.935459 
C 76.993889 161.892709 73.269296 161.306815 69.386185 161.306815 
C 65.503073 161.306815 61.778481 161.892709 59.032706 162.935459 
C 56.286932 163.97821 54.744155 165.392682 54.744155 166.867355 
C 54.744155 168.342027 56.286932 169.756499 59.032706 170.79925 
C 61.778481 171.842001 65.503073 172.427895 69.386185 172.427895 
z
" style="fill:none;opacity:0.2;stroke:#0000ff;stroke-linejoin:miter;stroke-width:2;"/>
   </g>
   <g id="patch_36">
    <path clip-path="url(#pe14869e0c2)" d="M 71.94854 177.01534 
C 73.890096 177.01534 75.752392 176.722393 77.125279 176.201018 
C 78.498167 175.679642 79.269555 174.972406 79.269555 174.23507 
C 79.269555 173.497734 78.498167 172.790498 77.125279 172.269122 
C 75.752392 171.747747 73.890096 171.4548 71.94854 171.4548 
C 70.006984 171.4548 68.144688 171.747747 66.771801 172.269122 
C 65.398913 172.790498 64.627525 173.497734 64.627525 174.23507 
C 64.627525 174.972406 65.398913 175.679642 66.771801 176.201018 
C 68.144688 176.722393 70.006984 177.01534 71.94854 177.01534 
z
" style="fill:none;opacity:0.2;stroke:#008000;stroke-linejoin:miter;stroke-width:2;"/>
   </g>
   <g id="patch_37">
    <path clip-path="url(#pe14869e0c2)" d="M 69.386185 169.647625 
C 71.327741 169.647625 73.190037 169.354678 74.562924 168.833302 
C 75.935811 168.311927 76.7072 167.604691 76.7072 166.867355 
C 76.7072 166.130019 75.935811 165.422782 74.562924 164.901407 
C 73.190037 164.380032 71.327741 164.087085 69.386185 164.087085 
C 67.444629 164.087085 65.582333 164.380032 64.209446 164.901407 
C 62.836558 165.422782 62.06517 166.130019 62.06517 166.867355 
C 62.06517 167.604691 62.836558 168.311927 64.209446 168.833302 
C 65.582333 169.354678 67.444629 169.647625 69.386185 169.647625 
z
" style="fill:none;opacity:0.2;stroke:#008000;stroke-linejoin:miter;stroke-width:2;"/>
   </g>
   <g id="patch_38">
    <path d="M 70.667362 170.551212 
Q 64.261474 165.47722 57.855586 160.403227 
" style="fill:none;opacity:0.5;stroke:#008000;stroke-linecap:round;stroke-width:2;"/>
   </g>
   <g id="patch_39">
    <path d="M 71.483995 172.899331 
Q 70.995789 171.495561 70.507584 170.09179 
" style="fill:none;opacity:0.5;stroke:#800080;stroke-linecap:round;stroke-width:2;"/>
    <path d="M 72.408035 170.989842 
L 71.483995 172.899331 
L 69.574505 171.975291 
" style="fill:none;opacity:0.5;stroke:#800080;stroke-linecap:round;stroke-width:2;"/>
    <path d="M 69.583544 172.001279 
L 70.507584 170.09179 
L 72.417073 171.01583 
" style="fill:none;opacity:0.5;stroke:#800080;stroke-linecap:round;stroke-width:2;"/>
   </g>
   <g id="patch_40">
    <path d="M 57.855586 160.403227 
Q 116.972782 149.143134 176.089977 137.883041 
" style="fill:none;opacity:0.5;stroke:#008000;stroke-linecap:round;stroke-width:2;"/>
   </g>
   <g id="patch_41">
    <path d="M 57.943344 161.702989 
Q 57.92288 161.399909 57.902417 161.096829 
" style="fill:none;opacity:0.5;stroke:#800080;stroke-linecap:round;stroke-width:2;"/>
    <path d="M 59.338889 160.10535 
L 57.943344 161.702989 
L 56.345704 160.307444 
" style="fill:none;opacity:0.5;stroke:#800080;stroke-linecap:round;stroke-width:2;"/>
    <path d="M 56.506871 162.694469 
L 57.902417 161.096829 
L 59.500057 162.492375 
" style="fill:none;opacity:0.5;stroke:#800080;stroke-linecap:round;stroke-width:2;"/>
   </g>
   <g id="patch_42">
    <path clip-path="url(#pe14869e0c2)" d="M 127.588253 167.284395 
C 129.529809 167.284395 131.392105 166.991448 132.764993 166.470073 
C 134.13788 165.948698 134.909268 165.241462 134.909268 164.504125 
C 134.909268 163.766789 134.13788 163.059553 132.764993 162.538178 
C 131.392105 162.016802 129.529809 161.723855 127.588253 161.723855 
C 125.646698 161.723855 123.784401 162.016802 122.411514 162.538178 
C 121.038627 163.059553 120.267238 163.766789 120.267238 164.504125 
C 120.267238 165.241462 121.038627 165.948698 122.411514 166.470073 
C 123.784401 166.991448 125.646698 167.284395 127.588253 167.284395 
z
" style="fill:none;opacity:0.2;stroke:#008000;stroke-linejoin:miter;stroke-width:2;"/>
   </g>
   <g id="patch_43">
    <path clip-path="url(#pe14869e0c2)" d="M 139.667928 156.580356 
C 141.609484 156.580356 143.47178 156.287409 144.844667 155.766034 
C 146.217555 155.244659 146.988943 154.537423 146.988943 153.800086 
C 146.988943 153.06275 146.217555 152.355514 144.844667 151.834139 
C 143.47178 151.312763 141.609484 151.019816 139.667928 151.019816 
C 137.726372 151.019816 135.864076 151.312763 134.491189 151.834139 
C 133.118301 152.355514 132.346913 153.06275 132.346913 153.800086 
C 132.346913 154.537423 133.118301 155.244659 134.491189 155.766034 
C 135.864076 156.287409 137.726372 156.580356 139.667928 156.580356 
z
" style="fill:none;opacity:0.2;stroke:#008000;stroke-linejoin:miter;stroke-width:2;"/>
   </g>
   <g id="patch_44">
    <path d="M 133.628091 159.152106 
Q 102.147727 164.851659 70.667362 170.551212 
" style="fill:none;opacity:0.5;stroke:#008000;stroke-linecap:round;stroke-width:2;"/>
   </g>
   <g id="patch_45">
    <path d="M 128.646704 163.566211 
Q 132.880484 159.814575 137.114264 156.062939 
" style="fill:none;opacity:0.5;stroke:#800080;stroke-linecap:round;stroke-width:2;"/>
    <path d="M 130.764168 163.69406 
L 128.646704 163.566211 
L 128.774552 161.448747 
" style="fill:none;opacity:0.5;stroke:#800080;stroke-linecap:round;stroke-width:2;"/>
    <path d="M 134.9968 155.93509 
L 137.114264 156.062939 
L 136.986416 158.180403 
" style="fill:none;opacity:0.5;stroke:#800080;stroke-linecap:round;stroke-width:2;"/>
   </g>
   <g id="line2d_1">
    <path clip-path="url(#pe14869e0c2)" d="M 71.94854 174.23507 
L 58.038612 163.11399 
L 183.960068 138.647615 
L 307.68522 232.34271 
L 387.484283 41.060143 
L 427.017763 42.728305 
L 315.006235 306.297889 
L 127.588253 164.504125 
" style="fill:none;stroke:#ff0000;stroke-linecap:square;stroke-width:0.2;"/>
   </g>
   <g id="line2d_2">
    <path clip-path="url(#pe14869e0c2)" d="M 69.386185 166.867355 
L 57.672561 157.692464 
L 168.219886 137.118467 
L 308.783372 251.109532 
L 401.760262 27.853861 
L 427.383814 29.243996 
L 317.56859 293.369634 
L 139.667928 153.800086 
" style="fill:none;stroke:#0000ff;stroke-linecap:square;stroke-width:0.2;"/>
   </g>
  </g>
 </g>
 <defs>
  <clipPath id="pe14869e0c2">
   <rect height="307.51175" width="409.903625" x="37.576375" y="13.32"/>
  </clipPath>
 </defs>
</svg>
