<?xml version="1.0" encoding="utf-8" standalone="no"?>
<!DOCTYPE svg PUBLIC "-//W3C//DTD SVG 1.1//EN"
  "http://www.w3.org/Graphics/SVG/1.1/DTD/svg11.dtd">
<!-- Created with matplotlib (http://matplotlib.org/) -->
<svg height="345.6pt" version="1.1" viewBox="0 0 460.8 345.6" width="460.8pt" xmlns="http://www.w3.org/2000/svg" xmlns:xlink="http://www.w3.org/1999/xlink">
 <defs>
  <style type="text/css">
*{stroke-linecap:butt;stroke-linejoin:round;}
  </style>
 </defs>
 <g id="figure_1">
  <g id="patch_1">
   <path d="M 0 345.6 
L 460.8 345.6 
L 460.8 0 
L 0 0 
z
" style="fill:#ffffff;"/>
  </g>
  <g id="axes_1">
   <g id="patch_2">
    <path clip-path="url(#p74f4cfd30b)" d="M 242.528188 284.339355 
C 243.434841 284.339355 244.304482 284.075768 244.945582 283.606647 
C 245.586683 283.137526 245.9469 282.501172 245.9469 281.837734 
C 245.9469 281.174296 245.586683 280.537942 244.945582 280.068821 
C 244.304482 279.5997 243.434841 279.336113 242.528188 279.336113 
C 241.621534 279.336113 240.751893 279.5997 240.110793 280.068821 
C 239.469692 280.537942 239.109475 281.174296 239.109475 281.837734 
C 239.109475 282.501172 239.469692 283.137526 240.110793 283.606647 
C 240.751893 284.075768 241.621534 284.339355 242.528188 284.339355 
z
" style="fill:#ff0000;opacity:0.2;stroke:#ff0000;stroke-linejoin:miter;stroke-width:2;"/>
   </g>
   <g id="patch_3">
    <path clip-path="url(#p74f4cfd30b)" d="M 66.464495 160.50912 
C 67.371149 160.50912 68.24079 160.245534 68.88189 159.776412 
C 69.522991 159.307291 69.883208 158.670937 69.883208 158.007499 
C 69.883208 157.344062 69.522991 156.707707 68.88189 156.238586 
C 68.24079 155.769465 67.371149 155.505878 66.464495 155.505878 
C 65.557842 155.505878 64.688201 155.769465 64.047101 156.238586 
C 63.406 156.707707 63.045783 157.344062 63.045783 158.007499 
C 63.045783 158.670937 63.406 159.307291 64.047101 159.776412 
C 64.688201 160.245534 65.557842 160.50912 66.464495 160.50912 
z
" style="fill:#ff0000;opacity:0.2;stroke:#ff0000;stroke-linejoin:miter;stroke-width:2;"/>
   </g>
   <g id="patch_4">
    <path clip-path="url(#p74f4cfd30b)" d="M 242.528188 37.929696 
C 243.434841 37.929696 244.304482 37.666109 244.945582 37.196988 
C 245.586683 36.727867 245.9469 36.091512 245.9469 35.428075 
C 245.9469 34.764637 245.586683 34.128283 244.945582 33.659162 
C 244.304482 33.19004 243.434841 32.926454 242.528188 32.926454 
C 241.621534 32.926454 240.751893 33.19004 240.110793 33.659162 
C 239.469692 34.128283 239.109475 34.764637 239.109475 35.428075 
C 239.109475 36.091512 239.469692 36.727867 240.110793 37.196988 
C 240.751893 37.666109 241.621534 37.929696 242.528188 37.929696 
z
" style="fill:#ff0000;opacity:0.2;stroke:#ff0000;stroke-linejoin:miter;stroke-width:2;"/>
   </g>
   <g id="patch_5">
    <path clip-path="url(#p74f4cfd30b)" d="M 418.59188 160.50912 
C 419.498533 160.50912 420.368174 160.245534 421.009274 159.776412 
C 421.650375 159.307291 422.010592 158.670937 422.010592 158.007499 
C 422.010592 157.344062 421.650375 156.707707 421.009274 156.238586 
C 420.368174 155.769465 419.498533 155.505878 418.59188 155.505878 
C 417.685226 155.505878 416.815585 155.769465 416.174485 156.238586 
C 415.533384 156.707707 415.173167 157.344062 415.173167 158.007499 
C 415.173167 158.670937 415.533384 159.307291 416.174485 159.776412 
C 416.815585 160.245534 417.685226 160.50912 418.59188 160.50912 
z
" style="fill:#ff0000;opacity:0.2;stroke:#ff0000;stroke-linejoin:miter;stroke-width:2;"/>
   </g>
   <g id="patch_6">
    <path clip-path="url(#p74f4cfd30b)" d="M 242.528188 61.069689 
C 243.434841 61.069689 244.304482 60.806103 244.945582 60.336981 
C 245.586683 59.86786 245.9469 59.231506 245.9469 58.568068 
C 245.9469 57.904631 245.586683 57.268276 244.945582 56.799155 
C 244.304482 56.330034 243.434841 56.066447 242.528188 56.066447 
C 241.621534 56.066447 240.751893 56.330034 240.110793 56.799155 
C 239.469692 57.268276 239.109475 57.904631 239.109475 58.568068 
C 239.109475 59.231506 239.469692 59.86786 240.110793 60.336981 
C 240.751893 60.806103 241.621534 61.069689 242.528188 61.069689 
z
" style="fill:#0000ff;opacity:0.2;stroke:#0000ff;stroke-linejoin:miter;stroke-width:2;"/>
   </g>
   <g id="patch_7">
    <path clip-path="url(#p74f4cfd30b)" d="M 387.823467 162.385336 
C 388.730121 162.385336 389.599762 162.121749 390.240862 161.652628 
C 390.881963 161.183507 391.24218 160.547153 391.24218 159.883715 
C 391.24218 159.220277 390.881963 158.583923 390.240862 158.114802 
C 389.599762 157.645681 388.730121 157.382094 387.823467 157.382094 
C 386.916814 157.382094 386.047173 157.645681 385.406073 158.114802 
C 384.764972 158.583923 384.404755 159.220277 384.404755 159.883715 
C 384.404755 160.547153 384.764972 161.183507 385.406073 161.652628 
C 386.047173 162.121749 386.916814 162.385336 387.823467 162.385336 
z
" style="fill:#0000ff;opacity:0.2;stroke:#0000ff;stroke-linejoin:miter;stroke-width:2;"/>
   </g>
   <g id="patch_8">
    <path clip-path="url(#p74f4cfd30b)" d="M 242.528188 263.700983 
C 243.434841 263.700983 244.304482 263.437396 244.945582 262.968275 
C 245.586683 262.499153 245.9469 261.862799 245.9469 261.199362 
C 245.9469 260.535924 245.586683 259.89957 244.945582 259.430449 
C 244.304482 258.961327 243.434841 258.697741 242.528188 258.697741 
C 241.621534 258.697741 240.751893 258.961327 240.110793 259.430449 
C 239.469692 259.89957 239.109475 260.535924 239.109475 261.199362 
C 239.109475 261.862799 239.469692 262.499153 240.110793 262.968275 
C 240.751893 263.437396 241.621534 263.700983 242.528188 263.700983 
z
" style="fill:#0000ff;opacity:0.2;stroke:#0000ff;stroke-linejoin:miter;stroke-width:2;"/>
   </g>
   <g id="patch_9">
    <path clip-path="url(#p74f4cfd30b)" d="M 97.232908 162.385336 
C 98.139561 162.385336 99.009202 162.121749 99.650302 161.652628 
C 100.291403 161.183507 100.65162 160.547153 100.65162 159.883715 
C 100.65162 159.220277 100.291403 158.583923 99.650302 158.114802 
C 99.009202 157.645681 98.139561 157.382094 97.232908 157.382094 
C 96.326254 157.382094 95.456613 157.645681 94.815513 158.114802 
C 94.174412 158.583923 93.814195 159.220277 93.814195 159.883715 
C 93.814195 160.547153 94.174412 161.183507 94.815513 161.652628 
C 95.456613 162.121749 96.326254 162.385336 97.232908 162.385336 
z
" style="fill:#0000ff;opacity:0.2;stroke:#0000ff;stroke-linejoin:miter;stroke-width:2;"/>
   </g>
   <g id="patch_10">
    <path clip-path="url(#p74f4cfd30b)" d="M 242.528188 281.837734 
C 133.129389 281.837734 66.464495 220.548022 66.464495 158.007499 
C 66.464495 95.466977 133.129389 35.428075 242.528188 35.428075 
C 351.926986 35.428075 418.59188 95.466977 418.59188 158.007499 
C 418.59188 220.548022 351.926986 281.837734 242.528188 281.837734 
" style="fill:none;stroke:#ff0000;stroke-linejoin:miter;stroke-width:0.5;"/>
   </g>
   <g id="patch_11">
    <path clip-path="url(#p74f4cfd30b)" d="M 242.528188 58.568068 
C 327.995999 58.568068 387.823467 107.349676 387.823467 159.883715 
C 387.823467 213.668564 327.995999 261.199362 242.528188 261.199362 
C 157.060376 261.199362 97.232908 213.668564 97.232908 159.883715 
C 97.232908 107.349676 157.060376 58.568068 242.528188 58.568068 
" style="fill:none;stroke:#0000ff;stroke-linejoin:miter;stroke-width:0.5;"/>
   </g>
   <g id="[&quot;g_s&quot;:1,&quot;g_t&quot;:3,&quot;coords&quot;:[[240.0, -11.0],[240.0, 5.5]],&quot;certainty&quot;:11]">
    <path clip-path="url(#p74f4cfd30b)" d="M 242.528188 289.342597 
C 245.248147 289.342597 247.85707 288.551837 249.780372 287.144473 
C 251.703674 285.73711 252.784325 283.828047 252.784325 281.837734 
C 252.784325 279.847421 251.703674 277.938359 249.780372 276.530995 
C 247.85707 275.123631 245.248147 274.332871 242.528188 274.332871 
C 239.808228 274.332871 237.199305 275.123631 235.276003 276.530995 
C 233.352701 277.938359 232.27205 279.847421 232.27205 281.837734 
C 232.27205 283.828047 233.352701 285.73711 235.276003 287.144473 
C 237.199305 288.551837 239.808228 289.342597 242.528188 289.342597 
z
" style="fill:#0000ff;opacity:0.2;stroke:#0000ff;stroke-linejoin:miter;stroke-width:2;"/>
   </g>
   <g id="[&quot;g_s&quot;:3,&quot;g_t&quot;:1,&quot;coords&quot;:[[240.0, 5.5],[240.0, -11.0]],&quot;certainty&quot;:11]">
    <path clip-path="url(#p74f4cfd30b)" d="M 242.528188 268.704224 
C 245.248147 268.704224 247.85707 267.913465 249.780372 266.506101 
C 251.703674 265.098737 252.784325 263.189674 252.784325 261.199362 
C 252.784325 259.209049 251.703674 257.299986 249.780372 255.892622 
C 247.85707 254.485259 245.248147 253.694499 242.528188 253.694499 
C 239.808228 253.694499 237.199305 254.485259 235.276003 255.892622 
C 233.352701 257.299986 232.27205 259.209049 232.27205 261.199362 
C 232.27205 263.189674 233.352701 265.098737 235.276003 266.506101 
C 237.199305 267.913465 239.808228 268.704224 242.528188 268.704224 
z
" style="fill:#ff0000;opacity:0.2;stroke:#ff0000;stroke-linejoin:miter;stroke-width:2;"/>
   </g>
   <g id="patch_12">
    <path d="M 242.528188 281.837734 
Q 242.528188 272.517463 242.528188 265.318513 
" style="fill:none;opacity:0.5;stroke:#0000ff;stroke-linecap:round;stroke-width:3;"/>
    <path d="M 241.028188 266.818513 
L 242.528188 265.318513 
L 244.028188 266.818513 
" style="fill:none;opacity:0.5;stroke:#0000ff;stroke-linecap:round;stroke-width:3;"/>
   </g>
   <g id="[&quot;g_s&quot;:2,&quot;g_t&quot;:4,&quot;coords&quot;:[[137.0, 88.0],[155.0, 86.5]],&quot;certainty&quot;:10]">
    <path clip-path="url(#p74f4cfd30b)" d="M 66.464495 164.886957 
C 68.957792 164.886957 71.349304 164.162094 73.112331 162.87201 
C 74.875358 161.581927 75.865955 159.831953 75.865955 158.007499 
C 75.865955 156.183046 74.875358 154.433072 73.112331 153.142988 
C 71.349304 151.852905 68.957792 151.128042 66.464495 151.128042 
C 63.971199 151.128042 61.579686 151.852905 59.81666 153.142988 
C 58.053633 154.433072 57.063036 156.183046 57.063036 158.007499 
C 57.063036 159.831953 58.053633 161.581927 59.81666 162.87201 
C 61.579686 164.162094 63.971199 164.886957 66.464495 164.886957 
z
" style="fill:#0000ff;opacity:0.2;stroke:#0000ff;stroke-linejoin:miter;stroke-width:2;"/>
   </g>
   <g id="[&quot;g_s&quot;:4,&quot;g_t&quot;:2,&quot;coords&quot;:[[155.0, 86.5],[137.0, 88.0]],&quot;certainty&quot;:10]">
    <path clip-path="url(#p74f4cfd30b)" d="M 97.232908 166.763172 
C 99.726204 166.763172 102.117717 166.038309 103.880743 164.748226 
C 105.64377 163.458143 106.634367 161.708168 106.634367 159.883715 
C 106.634367 158.059261 105.64377 156.309287 103.880743 155.019204 
C 102.117717 153.72912 99.726204 153.004257 97.232908 153.004257 
C 94.739611 153.004257 92.348099 153.72912 90.585072 155.019204 
C 88.822045 156.309287 87.831448 158.059261 87.831448 159.883715 
C 87.831448 161.708168 88.822045 163.458143 90.585072 164.748226 
C 92.348099 166.038309 94.739611 166.763172 97.232908 166.763172 
z
" style="fill:#ff0000;opacity:0.2;stroke:#ff0000;stroke-linejoin:miter;stroke-width:2;"/>
   </g>
   <g id="patch_13">
    <path d="M 66.464495 158.007499 
Q 80.851507 158.8848 93.297581 159.643744 
" style="fill:none;opacity:0.5;stroke:#0000ff;stroke-linecap:round;stroke-width:2.75;"/>
    <path d="M 91.891661 158.055227 
L 93.297581 159.643744 
L 91.709064 161.049665 
" style="fill:none;opacity:0.5;stroke:#0000ff;stroke-linecap:round;stroke-width:2.75;"/>
   </g>
   <g id="[&quot;g_s&quot;:3,&quot;g_t&quot;:1,&quot;coords&quot;:[[240.0, 186.0],[240.0, 167.5]],&quot;certainty&quot;:12]">
    <path clip-path="url(#p74f4cfd30b)" d="M 242.528188 43.558343 
C 245.47481 43.558343 248.301144 42.701686 250.384721 41.177042 
C 252.468297 39.652398 253.639003 37.584247 253.639003 35.428075 
C 253.639003 33.271903 252.468297 31.203751 250.384721 29.679107 
C 248.301144 28.154463 245.47481 27.297807 242.528188 27.297807 
C 239.581565 27.297807 236.755231 28.154463 234.671654 29.679107 
C 232.588078 31.203751 231.417372 33.271903 231.417372 35.428075 
C 231.417372 37.584247 232.588078 39.652398 234.671654 41.177042 
C 236.755231 42.701686 239.581565 43.558343 242.528188 43.558343 
z
" style="fill:#0000ff;opacity:0.2;stroke:#0000ff;stroke-linejoin:miter;stroke-width:2;"/>
   </g>
   <g id="[&quot;g_s&quot;:1,&quot;g_t&quot;:3,&quot;coords&quot;:[[240.0, 167.5],[240.0, 186.0]],&quot;certainty&quot;:12]">
    <path clip-path="url(#p74f4cfd30b)" d="M 242.528188 66.698336 
C 245.47481 66.698336 248.301144 65.84168 250.384721 64.317036 
C 252.468297 62.792392 253.639003 60.72424 253.639003 58.568068 
C 253.639003 56.411896 252.468297 54.343745 250.384721 52.819101 
C 248.301144 51.294457 245.47481 50.4378 242.528188 50.4378 
C 239.581565 50.4378 236.755231 51.294457 234.671654 52.819101 
C 232.588078 54.343745 231.417372 56.411896 231.417372 58.568068 
C 231.417372 60.72424 232.588078 62.792392 234.671654 64.317036 
C 236.755231 65.84168 239.581565 66.698336 242.528188 66.698336 
z
" style="fill:#ff0000;opacity:0.2;stroke:#ff0000;stroke-linejoin:miter;stroke-width:2;"/>
   </g>
   <g id="patch_14">
    <path d="M 242.528188 35.428075 
Q 242.528188 45.996713 242.528188 54.267254 
" style="fill:none;opacity:0.5;stroke:#0000ff;stroke-linecap:round;stroke-width:3.25;"/>
    <path d="M 244.028188 52.767254 
L 242.528188 54.267254 
L 241.028188 52.767254 
" style="fill:none;opacity:0.5;stroke:#0000ff;stroke-linecap:round;stroke-width:3.25;"/>
   </g>
   <g id="[&quot;g_s&quot;:4,&quot;g_t&quot;:2,&quot;coords&quot;:[[343.0, 88.0],[325.0, 86.5]],&quot;certainty&quot;:11]">
    <path clip-path="url(#p74f4cfd30b)" d="M 418.59188 165.512362 
C 421.311839 165.512362 423.920762 164.721602 425.844064 163.314239 
C 427.767366 161.906875 428.848017 159.997812 428.848017 158.007499 
C 428.848017 156.017186 427.767366 154.108124 425.844064 152.70076 
C 423.920762 151.293396 421.311839 150.502636 418.59188 150.502636 
C 415.87192 150.502636 413.262997 151.293396 411.339695 152.70076 
C 409.416394 154.108124 408.335742 156.017186 408.335742 158.007499 
C 408.335742 159.997812 409.416394 161.906875 411.339695 163.314239 
C 413.262997 164.721602 415.87192 165.512362 418.59188 165.512362 
z
" style="fill:#0000ff;opacity:0.2;stroke:#0000ff;stroke-linejoin:miter;stroke-width:2;"/>
   </g>
   <g id="[&quot;g_s&quot;:2,&quot;g_t&quot;:4,&quot;coords&quot;:[[325.0, 86.5],[343.0, 88.0]],&quot;certainty&quot;:11]">
    <path clip-path="url(#p74f4cfd30b)" d="M 387.823467 167.388578 
C 390.543427 167.388578 393.15235 166.597818 395.075652 165.190454 
C 396.998953 163.78309 398.079605 161.874028 398.079605 159.883715 
C 398.079605 157.893402 396.998953 155.984339 395.075652 154.576976 
C 393.15235 153.169612 390.543427 152.378852 387.823467 152.378852 
C 385.103508 152.378852 382.494585 153.169612 380.571283 154.576976 
C 378.647981 155.984339 377.56733 157.893402 377.56733 159.883715 
C 377.56733 161.874028 378.647981 163.78309 380.571283 165.190454 
C 382.494585 166.597818 385.103508 167.388578 387.823467 167.388578 
z
" style="fill:#ff0000;opacity:0.2;stroke:#ff0000;stroke-linejoin:miter;stroke-width:2;"/>
   </g>
   <g id="patch_15">
    <path d="M 418.59188 158.007499 
Q 404.204868 158.8848 391.935243 159.632984 
" style="fill:none;opacity:0.5;stroke:#0000ff;stroke-linecap:round;stroke-width:3;"/>
    <path d="M 393.52376 161.038905 
L 391.935243 159.632984 
L 393.341163 158.044467 
" style="fill:none;opacity:0.5;stroke:#0000ff;stroke-linecap:round;stroke-width:3;"/>
   </g>
   <g id="[&quot;g_s&quot;:1,&quot;g_t&quot;:3,&quot;coords&quot;:[[240.0, 167.5],[240.0, 186.0]],&quot;certainty&quot;:11]">
    <path clip-path="url(#p74f4cfd30b)" d="M 242.528188 66.072931 
C 245.248147 66.072931 247.85707 65.282171 249.780372 63.874807 
C 251.703674 62.467444 252.784325 60.558381 252.784325 58.568068 
C 252.784325 56.577755 251.703674 54.668693 249.780372 53.261329 
C 247.85707 51.853965 245.248147 51.063205 242.528188 51.063205 
C 239.808228 51.063205 237.199305 51.853965 235.276003 53.261329 
C 233.352701 54.668693 232.27205 56.577755 232.27205 58.568068 
C 232.27205 60.558381 233.352701 62.467444 235.276003 63.874807 
C 237.199305 65.282171 239.808228 66.072931 242.528188 66.072931 
z
" style="fill:#0000ff;opacity:0.2;stroke:#0000ff;stroke-linejoin:miter;stroke-width:2;"/>
   </g>
   <g id="[&quot;g_s&quot;:3,&quot;g_t&quot;:1,&quot;coords&quot;:[[240.0, 186.0],[240.0, 167.5]],&quot;certainty&quot;:11]">
    <path clip-path="url(#p74f4cfd30b)" d="M 242.528188 42.932937 
C 245.248147 42.932937 247.85707 42.142178 249.780372 40.734814 
C 251.703674 39.32745 252.784325 37.418388 252.784325 35.428075 
C 252.784325 33.437762 251.703674 31.528699 249.780372 30.121335 
C 247.85707 28.713972 245.248147 27.923212 242.528188 27.923212 
C 239.808228 27.923212 237.199305 28.713972 235.276003 30.121335 
C 233.352701 31.528699 232.27205 33.437762 232.27205 35.428075 
C 232.27205 37.418388 233.352701 39.32745 235.276003 40.734814 
C 237.199305 42.142178 239.808228 42.932937 242.528188 42.932937 
z
" style="fill:#ff0000;opacity:0.2;stroke:#ff0000;stroke-linejoin:miter;stroke-width:2;"/>
   </g>
   <g id="patch_16">
    <path d="M 242.528188 58.568068 
Q 242.528188 47.99943 242.528188 39.552112 
" style="fill:none;opacity:0.5;stroke:#ff0000;stroke-linecap:round;stroke-width:3;"/>
    <path d="M 241.028188 41.052112 
L 242.528188 39.552112 
L 244.028188 41.052112 
" style="fill:none;opacity:0.5;stroke:#ff0000;stroke-linecap:round;stroke-width:3;"/>
   </g>
   <g id="[&quot;g_s&quot;:2,&quot;g_t&quot;:4,&quot;coords&quot;:[[325.0, 86.5],[343.0, 88.0]],&quot;certainty&quot;:10]">
    <path clip-path="url(#p74f4cfd30b)" d="M 387.823467 166.763172 
C 390.316764 166.763172 392.708276 166.038309 394.471303 164.748226 
C 396.23433 163.458143 397.224927 161.708168 397.224927 159.883715 
C 397.224927 158.059261 396.23433 156.309287 394.471303 155.019204 
C 392.708276 153.72912 390.316764 153.004257 387.823467 153.004257 
C 385.330171 153.004257 382.938658 153.72912 381.175632 155.019204 
C 379.412605 156.309287 378.422008 158.059261 378.422008 159.883715 
C 378.422008 161.708168 379.412605 163.458143 381.175632 164.748226 
C 382.938658 166.038309 385.330171 166.763172 387.823467 166.763172 
z
" style="fill:#0000ff;opacity:0.2;stroke:#0000ff;stroke-linejoin:miter;stroke-width:2;"/>
   </g>
   <g id="[&quot;g_s&quot;:4,&quot;g_t&quot;:2,&quot;coords&quot;:[[343.0, 88.0],[325.0, 86.5]],&quot;certainty&quot;:10]">
    <path clip-path="url(#p74f4cfd30b)" d="M 418.59188 164.886957 
C 421.085176 164.886957 423.476689 164.162094 425.239715 162.87201 
C 427.002742 161.581927 427.993339 159.831953 427.993339 158.007499 
C 427.993339 156.183046 427.002742 154.433072 425.239715 153.142988 
C 423.476689 151.852905 421.085176 151.128042 418.59188 151.128042 
C 416.098583 151.128042 413.707071 151.852905 411.944044 153.142988 
C 410.181017 154.433072 409.19042 156.183046 409.19042 158.007499 
C 409.19042 159.831953 410.181017 161.581927 411.944044 162.87201 
C 413.707071 164.162094 416.098583 164.886957 418.59188 164.886957 
z
" style="fill:#ff0000;opacity:0.2;stroke:#ff0000;stroke-linejoin:miter;stroke-width:2;"/>
   </g>
   <g id="patch_17">
    <path d="M 387.823467 159.883715 
Q 402.21048 159.006415 414.656553 158.24747 
" style="fill:none;opacity:0.5;stroke:#ff0000;stroke-linecap:round;stroke-width:2.75;"/>
    <path d="M 413.068036 156.841549 
L 414.656553 158.24747 
L 413.250633 159.835987 
" style="fill:none;opacity:0.5;stroke:#ff0000;stroke-linecap:round;stroke-width:2.75;"/>
   </g>
   <g id="[&quot;g_s&quot;:3,&quot;g_t&quot;:1,&quot;coords&quot;:[[240.0, 5.5],[240.0, -11.0]],&quot;certainty&quot;:12]">
    <path clip-path="url(#p74f4cfd30b)" d="M 242.528188 269.32963 
C 245.47481 269.32963 248.301144 268.472973 250.384721 266.948329 
C 252.468297 265.423685 253.639003 263.355534 253.639003 261.199362 
C 253.639003 259.043189 252.468297 256.975038 250.384721 255.450394 
C 248.301144 253.92575 245.47481 253.069094 242.528188 253.069094 
C 239.581565 253.069094 236.755231 253.92575 234.671654 255.450394 
C 232.588078 256.975038 231.417372 259.043189 231.417372 261.199362 
C 231.417372 263.355534 232.588078 265.423685 234.671654 266.948329 
C 236.755231 268.472973 239.581565 269.32963 242.528188 269.32963 
z
" style="fill:#0000ff;opacity:0.2;stroke:#0000ff;stroke-linejoin:miter;stroke-width:2;"/>
   </g>
   <g id="[&quot;g_s&quot;:1,&quot;g_t&quot;:3,&quot;coords&quot;:[[240.0, -11.0],[240.0, 5.5]],&quot;certainty&quot;:12]">
    <path clip-path="url(#p74f4cfd30b)" d="M 242.528188 289.968002 
C 245.47481 289.968002 248.301144 289.111346 250.384721 287.586702 
C 252.468297 286.062058 253.639003 283.993906 253.639003 281.837734 
C 253.639003 279.681562 252.468297 277.613411 250.384721 276.088767 
C 248.301144 274.564122 245.47481 273.707466 242.528188 273.707466 
C 239.581565 273.707466 236.755231 274.564122 234.671654 276.088767 
C 232.588078 277.613411 231.417372 279.681562 231.417372 281.837734 
C 231.417372 283.993906 232.588078 286.062058 234.671654 287.586702 
C 236.755231 289.111346 239.581565 289.968002 242.528188 289.968002 
z
" style="fill:#ff0000;opacity:0.2;stroke:#ff0000;stroke-linejoin:miter;stroke-width:2;"/>
   </g>
   <g id="patch_18">
    <path d="M 242.528188 261.199362 
Q 242.528188 270.519633 242.528188 277.541806 
" style="fill:none;opacity:0.5;stroke:#ff0000;stroke-linecap:round;stroke-width:3.25;"/>
    <path d="M 244.028188 276.041806 
L 242.528188 277.541806 
L 241.028188 276.041806 
" style="fill:none;opacity:0.5;stroke:#ff0000;stroke-linecap:round;stroke-width:3.25;"/>
   </g>
   <g id="[&quot;g_s&quot;:4,&quot;g_t&quot;:2,&quot;coords&quot;:[[155.0, 86.5],[137.0, 88.0]],&quot;certainty&quot;:11]">
    <path clip-path="url(#p74f4cfd30b)" d="M 97.232908 167.388578 
C 99.952867 167.388578 102.56179 166.597818 104.485092 165.190454 
C 106.408394 163.78309 107.489045 161.874028 107.489045 159.883715 
C 107.489045 157.893402 106.408394 155.984339 104.485092 154.576976 
C 102.56179 153.169612 99.952867 152.378852 97.232908 152.378852 
C 94.512948 152.378852 91.904025 153.169612 89.980723 154.576976 
C 88.057422 155.984339 86.97677 157.893402 86.97677 159.883715 
C 86.97677 161.874028 88.057422 163.78309 89.980723 165.190454 
C 91.904025 166.597818 94.512948 167.388578 97.232908 167.388578 
z
" style="fill:#0000ff;opacity:0.2;stroke:#0000ff;stroke-linejoin:miter;stroke-width:2;"/>
   </g>
   <g id="[&quot;g_s&quot;:2,&quot;g_t&quot;:4,&quot;coords&quot;:[[137.0, 88.0],[155.0, 86.5]],&quot;certainty&quot;:11]">
    <path clip-path="url(#p74f4cfd30b)" d="M 66.464495 165.512362 
C 69.184455 165.512362 71.793378 164.721602 73.71668 163.314239 
C 75.639981 161.906875 76.720633 159.997812 76.720633 158.007499 
C 76.720633 156.017186 75.639981 154.108124 73.71668 152.70076 
C 71.793378 151.293396 69.184455 150.502636 66.464495 150.502636 
C 63.744536 150.502636 61.135613 151.293396 59.212311 152.70076 
C 57.289009 154.108124 56.208358 156.017186 56.208358 158.007499 
C 56.208358 159.997812 57.289009 161.906875 59.212311 163.314239 
C 61.135613 164.721602 63.744536 165.512362 66.464495 165.512362 
z
" style="fill:#ff0000;opacity:0.2;stroke:#ff0000;stroke-linejoin:miter;stroke-width:2;"/>
   </g>
   <g id="patch_19">
    <path d="M 97.232908 159.883715 
Q 82.845895 159.006415 70.576271 158.25823 
" style="fill:none;opacity:0.5;stroke:#ff0000;stroke-linecap:round;stroke-width:3;"/>
    <path d="M 71.982191 159.846747 
L 70.576271 158.25823 
L 72.164788 156.852309 
" style="fill:none;opacity:0.5;stroke:#ff0000;stroke-linecap:round;stroke-width:3;"/>
   </g>
   <g id="patch_20">
    <path clip-path="url(#p74f4cfd30b)" d="M 242.528188 277.7726 
C 244.79482 277.7726 246.968923 277.113634 248.571674 275.940831 
C 250.174426 274.768028 251.074969 273.177142 251.074969 271.518548 
C 251.074969 269.859954 250.174426 268.269068 248.571674 267.096265 
C 246.968923 265.923462 244.79482 265.264496 242.528188 265.264496 
C 240.261555 265.264496 238.087452 265.923462 236.484701 267.096265 
C 234.881949 268.269068 233.981406 269.859954 233.981406 271.518548 
C 233.981406 273.177142 234.881949 274.768028 236.484701 275.940831 
C 238.087452 277.113634 240.261555 277.7726 242.528188 277.7726 
z
" style="fill:#008000;opacity:0.2;stroke:#008000;stroke-linejoin:miter;stroke-width:2;"/>
   </g>
   <g id="patch_21">
    <path clip-path="url(#p74f4cfd30b)" d="M 81.848701 165.199659 
C 84.115334 165.199659 86.289437 164.540693 87.892188 163.36789 
C 89.49494 162.195087 90.395483 160.604201 90.395483 158.945607 
C 90.395483 157.287013 89.49494 155.696127 87.892188 154.523324 
C 86.289437 153.350521 84.115334 152.691555 81.848701 152.691555 
C 79.582069 152.691555 77.407966 153.350521 75.805215 154.523324 
C 74.202463 155.696127 73.30192 157.287013 73.30192 158.945607 
C 73.30192 160.604201 74.202463 162.195087 75.805215 163.36789 
C 77.407966 164.540693 79.582069 165.199659 81.848701 165.199659 
z
" style="fill:#008000;opacity:0.2;stroke:#008000;stroke-linejoin:miter;stroke-width:2;"/>
   </g>
   <g id="patch_22">
    <path clip-path="url(#p74f4cfd30b)" d="M 242.528188 53.252124 
C 244.79482 53.252124 246.968923 52.593157 248.571674 51.420354 
C 250.174426 50.247551 251.074969 48.656666 251.074969 46.998071 
C 251.074969 45.339477 250.174426 43.748592 248.571674 42.575789 
C 246.968923 41.402986 244.79482 40.744019 242.528188 40.744019 
C 240.261555 40.744019 238.087452 41.402986 236.484701 42.575789 
C 234.881949 43.748592 233.981406 45.339477 233.981406 46.998071 
C 233.981406 48.656666 234.881949 50.247551 236.484701 51.420354 
C 238.087452 52.593157 240.261555 53.252124 242.528188 53.252124 
z
" style="fill:#008000;opacity:0.2;stroke:#008000;stroke-linejoin:miter;stroke-width:2;"/>
   </g>
   <g id="patch_23">
    <path clip-path="url(#p74f4cfd30b)" d="M 403.207674 165.199659 
C 405.474306 165.199659 407.648409 164.540693 409.25116 163.36789 
C 410.853912 162.195087 411.754455 160.604201 411.754455 158.945607 
C 411.754455 157.287013 410.853912 155.696127 409.25116 154.523324 
C 407.648409 153.350521 405.474306 152.691555 403.207674 152.691555 
C 400.941041 152.691555 398.766938 153.350521 397.164187 154.523324 
C 395.561435 155.696127 394.660892 157.287013 394.660892 158.945607 
C 394.660892 160.604201 395.561435 162.195087 397.164187 163.36789 
C 398.766938 164.540693 400.941041 165.199659 403.207674 165.199659 
z
" style="fill:#008000;opacity:0.2;stroke:#008000;stroke-linejoin:miter;stroke-width:2;"/>
   </g>
   <g id="patch_24">
    <path clip-path="url(#p74f4cfd30b)" d="M 242.528188 306.853943 
C 251.594719 306.853943 260.291129 304.218078 266.702135 299.526865 
C 273.113141 294.835653 276.715312 288.47211 276.715312 281.837734 
C 276.715312 275.203358 273.113141 268.839815 266.702135 264.148603 
C 260.291129 259.457391 251.594719 256.821525 242.528188 256.821525 
C 233.461656 256.821525 224.765246 259.457391 218.35424 264.148603 
C 211.943234 268.839815 208.341063 275.203358 208.341063 281.837734 
C 208.341063 288.47211 211.943234 294.835653 218.35424 299.526865 
C 224.765246 304.218078 233.461656 306.853943 242.528188 306.853943 
z
" style="fill:none;opacity:0.2;stroke:#ff0000;stroke-linejoin:miter;stroke-width:2;"/>
   </g>
   <g id="patch_25">
    <path clip-path="url(#p74f4cfd30b)" d="M 242.528188 83.584277 
C 251.594719 83.584277 260.291129 80.948412 266.702135 76.257199 
C 273.113141 71.565987 276.715312 65.202444 276.715312 58.568068 
C 276.715312 51.933692 273.113141 45.570149 266.702135 40.878937 
C 260.291129 36.187725 251.594719 33.551859 242.528188 33.551859 
C 233.461656 33.551859 224.765246 36.187725 218.35424 40.878937 
C 211.943234 45.570149 208.341063 51.933692 208.341063 58.568068 
C 208.341063 65.202444 211.943234 71.565987 218.35424 76.257199 
C 224.765246 80.948412 233.461656 83.584277 242.528188 83.584277 
z
" style="fill:none;opacity:0.2;stroke:#0000ff;stroke-linejoin:miter;stroke-width:2;"/>
   </g>
   <g id="patch_26">
    <path clip-path="url(#p74f4cfd30b)" d="M 242.528188 294.345839 
C 247.061453 294.345839 251.409658 293.027906 254.615161 290.6823 
C 257.820664 288.336693 259.62175 285.154922 259.62175 281.837734 
C 259.62175 278.520546 257.820664 275.338775 254.615161 272.993169 
C 251.409658 270.647562 247.061453 269.32963 242.528188 269.32963 
C 237.994922 269.32963 233.646717 270.647562 230.441214 272.993169 
C 227.235711 275.338775 225.434625 278.520546 225.434625 281.837734 
C 225.434625 285.154922 227.235711 288.336693 230.441214 290.6823 
C 233.646717 293.027906 237.994922 294.345839 242.528188 294.345839 
z
" style="fill:none;opacity:0.2;stroke:#008000;stroke-linejoin:miter;stroke-width:2;"/>
   </g>
   <g id="patch_27">
    <path clip-path="url(#p74f4cfd30b)" d="M 242.528188 273.707466 
C 247.061453 273.707466 251.409658 272.389533 254.615161 270.043927 
C 257.820664 267.698321 259.62175 264.51655 259.62175 261.199362 
C 259.62175 257.882174 257.820664 254.700402 254.615161 252.354796 
C 251.409658 250.00919 247.061453 248.691257 242.528188 248.691257 
C 237.994922 248.691257 233.646717 250.00919 230.441214 252.354796 
C 227.235711 254.700402 225.434625 257.882174 225.434625 261.199362 
C 225.434625 264.51655 227.235711 267.698321 230.441214 270.043927 
C 233.646717 272.389533 237.994922 273.707466 242.528188 273.707466 
z
" style="fill:none;opacity:0.2;stroke:#008000;stroke-linejoin:miter;stroke-width:2;"/>
   </g>
   <g id="patch_28">
    <path d="M 242.528188 271.518548 
Q 162.188444 215.232077 81.848701 158.945607 
" style="fill:none;opacity:0.5;stroke:#008000;stroke-linecap:round;stroke-width:2;"/>
   </g>
   <g id="patch_29">
    <path d="M 242.528188 280.423521 
Q 242.528188 272.517463 242.528188 264.611406 
" style="fill:none;opacity:0.5;stroke:#800080;stroke-linecap:round;stroke-width:2;"/>
    <path d="M 244.028188 278.923521 
L 242.528188 280.423521 
L 241.028188 278.923521 
" style="fill:none;opacity:0.5;stroke:#800080;stroke-linecap:round;stroke-width:2;"/>
    <path d="M 241.028188 266.111406 
L 242.528188 264.611406 
L 244.028188 266.111406 
" style="fill:none;opacity:0.5;stroke:#800080;stroke-linecap:round;stroke-width:2;"/>
   </g>
   <g id="patch_30">
    <path d="M 81.848701 158.945607 
Q 162.188444 102.971839 242.528188 46.998071 
" style="fill:none;opacity:0.5;stroke:#008000;stroke-linecap:round;stroke-width:2;"/>
   </g>
   <g id="patch_31">
    <path d="M 67.876087 158.093576 
Q 80.851507 158.8848 93.826928 159.676023 
" style="fill:none;opacity:0.5;stroke:#800080;stroke-linecap:round;stroke-width:2;"/>
    <path d="M 69.282008 159.682093 
L 67.876087 158.093576 
L 69.464604 156.687656 
" style="fill:none;opacity:0.5;stroke:#800080;stroke-linecap:round;stroke-width:2;"/>
    <path d="M 92.421007 158.087506 
L 93.826928 159.676023 
L 92.238411 161.081944 
" style="fill:none;opacity:0.5;stroke:#800080;stroke-linecap:round;stroke-width:2;"/>
   </g>
   <g id="patch_32">
    <path d="M 242.528188 46.998071 
Q 322.867931 102.971839 403.207674 158.945607 
" style="fill:none;opacity:0.5;stroke:#008000;stroke-linecap:round;stroke-width:2;"/>
   </g>
   <g id="patch_33">
    <path d="M 242.528188 36.842288 
Q 242.528188 45.996713 242.528188 55.151138 
" style="fill:none;opacity:0.5;stroke:#800080;stroke-linecap:round;stroke-width:2;"/>
    <path d="M 241.028188 38.342288 
L 242.528188 36.842288 
L 244.028188 38.342288 
" style="fill:none;opacity:0.5;stroke:#800080;stroke-linecap:round;stroke-width:2;"/>
    <path d="M 244.028188 53.651138 
L 242.528188 55.151138 
L 241.028188 53.651138 
" style="fill:none;opacity:0.5;stroke:#800080;stroke-linecap:round;stroke-width:2;"/>
   </g>
   <g id="patch_34">
    <path d="M 403.207674 158.945607 
Q 322.867931 215.232077 242.528188 271.518548 
" style="fill:none;opacity:0.5;stroke:#008000;stroke-linecap:round;stroke-width:2;"/>
   </g>
   <g id="patch_35">
    <path d="M 417.180288 158.093576 
Q 404.204868 158.8848 391.229447 159.676023 
" style="fill:none;opacity:0.5;stroke:#800080;stroke-linecap:round;stroke-width:2;"/>
    <path d="M 415.591771 156.687656 
L 417.180288 158.093576 
L 415.774367 159.682093 
" style="fill:none;opacity:0.5;stroke:#800080;stroke-linecap:round;stroke-width:2;"/>
    <path d="M 392.817964 161.081944 
L 391.229447 159.676023 
L 392.635368 158.087506 
" style="fill:none;opacity:0.5;stroke:#800080;stroke-linecap:round;stroke-width:2;"/>
   </g>
   <g id="patch_36">
    <path clip-path="url(#p74f4cfd30b)" d="M 242.528188 236.808558 
C 243.434841 236.808558 244.304482 236.544971 244.945582 236.07585 
C 245.586683 235.606729 245.9469 234.970374 245.9469 234.306937 
C 245.9469 233.643499 245.586683 233.007145 244.945582 232.538024 
C 244.304482 232.068903 243.434841 231.805316 242.528188 231.805316 
C 241.621534 231.805316 240.751893 232.068903 240.110793 232.538024 
C 239.469692 233.007145 239.109475 233.643499 239.109475 234.306937 
C 239.109475 234.970374 239.469692 235.606729 240.110793 236.07585 
C 240.751893 236.544971 241.621534 236.808558 242.528188 236.808558 
z
" style="fill:#ff0000;opacity:0.2;stroke:#ff0000;stroke-linejoin:miter;stroke-width:2;"/>
   </g>
   <g id="patch_37">
    <path clip-path="url(#p74f4cfd30b)" d="M 165.607157 160.50912 
C 166.51381 160.50912 167.383451 160.245534 168.024552 159.776412 
C 168.665652 159.307291 169.025869 158.670937 169.025869 158.007499 
C 169.025869 157.344062 168.665652 156.707707 168.024552 156.238586 
C 167.383451 155.769465 166.51381 155.505878 165.607157 155.505878 
C 164.700504 155.505878 163.830863 155.769465 163.189762 156.238586 
C 162.548662 156.707707 162.188444 157.344062 162.188444 158.007499 
C 162.188444 158.670937 162.548662 159.307291 163.189762 159.776412 
C 163.830863 160.245534 164.700504 160.50912 165.607157 160.50912 
z
" style="fill:#ff0000;opacity:0.2;stroke:#ff0000;stroke-linejoin:miter;stroke-width:2;"/>
   </g>
   <g id="patch_38">
    <path clip-path="url(#p74f4cfd30b)" d="M 242.528188 81.708062 
C 243.434841 81.708062 244.304482 81.444475 244.945582 80.975354 
C 245.586683 80.506233 245.9469 79.869878 245.9469 79.206441 
C 245.9469 78.543003 245.586683 77.906649 244.945582 77.437528 
C 244.304482 76.968406 243.434841 76.70482 242.528188 76.70482 
C 241.621534 76.70482 240.751893 76.968406 240.110793 77.437528 
C 239.469692 77.906649 239.109475 78.543003 239.109475 79.206441 
C 239.109475 79.869878 239.469692 80.506233 240.110793 80.975354 
C 240.751893 81.444475 241.621534 81.708062 242.528188 81.708062 
z
" style="fill:#ff0000;opacity:0.2;stroke:#ff0000;stroke-linejoin:miter;stroke-width:2;"/>
   </g>
   <g id="patch_39">
    <path clip-path="url(#p74f4cfd30b)" d="M 319.449218 160.50912 
C 320.355871 160.50912 321.225512 160.245534 321.866613 159.776412 
C 322.507713 159.307291 322.867931 158.670937 322.867931 158.007499 
C 322.867931 157.344062 322.507713 156.707707 321.866613 156.238586 
C 321.225512 155.769465 320.355871 155.505878 319.449218 155.505878 
C 318.542565 155.505878 317.672924 155.769465 317.031823 156.238586 
C 316.390723 156.707707 316.030506 157.344062 316.030506 158.007499 
C 316.030506 158.670937 316.390723 159.307291 317.031823 159.776412 
C 317.672924 160.245534 318.542565 160.50912 319.449218 160.50912 
z
" style="fill:#ff0000;opacity:0.2;stroke:#ff0000;stroke-linejoin:miter;stroke-width:2;"/>
   </g>
   <g id="patch_40">
    <path clip-path="url(#p74f4cfd30b)" d="M 165.607157 164.886957 
C 166.51381 164.886957 167.383451 164.62337 168.024552 164.154249 
C 168.665652 163.685128 169.025869 163.048773 169.025869 162.385336 
C 169.025869 161.721898 168.665652 161.085544 168.024552 160.616423 
C 167.383451 160.147301 166.51381 159.883715 165.607157 159.883715 
C 164.700504 159.883715 163.830863 160.147301 163.189762 160.616423 
C 162.548662 161.085544 162.188444 161.721898 162.188444 162.385336 
C 162.188444 163.048773 162.548662 163.685128 163.189762 164.154249 
C 163.830863 164.62337 164.700504 164.886957 165.607157 164.886957 
z
" style="fill:#0000ff;opacity:0.2;stroke:#0000ff;stroke-linejoin:miter;stroke-width:2;"/>
   </g>
   <g id="patch_41">
    <path clip-path="url(#p74f4cfd30b)" d="M 242.528188 99.844813 
C 243.434841 99.844813 244.304482 99.581227 244.945582 99.112105 
C 245.586683 98.642984 245.9469 98.00663 245.9469 97.343192 
C 245.9469 96.679755 245.586683 96.0434 244.945582 95.574279 
C 244.304482 95.105158 243.434841 94.841571 242.528188 94.841571 
C 241.621534 94.841571 240.751893 95.105158 240.110793 95.574279 
C 239.469692 96.0434 239.109475 96.679755 239.109475 97.343192 
C 239.109475 98.00663 239.469692 98.642984 240.110793 99.112105 
C 240.751893 99.581227 241.621534 99.844813 242.528188 99.844813 
z
" style="fill:#0000ff;opacity:0.2;stroke:#0000ff;stroke-linejoin:miter;stroke-width:2;"/>
   </g>
   <g id="patch_42">
    <path clip-path="url(#p74f4cfd30b)" d="M 319.449218 164.886957 
C 320.355871 164.886957 321.225512 164.62337 321.866613 164.154249 
C 322.507713 163.685128 322.867931 163.048773 322.867931 162.385336 
C 322.867931 161.721898 322.507713 161.085544 321.866613 160.616423 
C 321.225512 160.147301 320.355871 159.883715 319.449218 159.883715 
C 318.542565 159.883715 317.672924 160.147301 317.031823 160.616423 
C 316.390723 161.085544 316.030506 161.721898 316.030506 162.385336 
C 316.030506 163.048773 316.390723 163.685128 317.031823 164.154249 
C 317.672924 164.62337 318.542565 164.886957 319.449218 164.886957 
z
" style="fill:#0000ff;opacity:0.2;stroke:#0000ff;stroke-linejoin:miter;stroke-width:2;"/>
   </g>
   <g id="patch_43">
    <path clip-path="url(#p74f4cfd30b)" d="M 242.528188 231.179911 
C 243.434841 231.179911 244.304482 230.916324 244.945582 230.447203 
C 245.586683 229.978082 245.9469 229.341727 245.9469 228.67829 
C 245.9469 228.014852 245.586683 227.378498 244.945582 226.909377 
C 244.304482 226.440255 243.434841 226.176669 242.528188 226.176669 
C 241.621534 226.176669 240.751893 226.440255 240.110793 226.909377 
C 239.469692 227.378498 239.109475 228.014852 239.109475 228.67829 
C 239.109475 229.341727 239.469692 229.978082 240.110793 230.447203 
C 240.751893 230.916324 241.621534 231.179911 242.528188 231.179911 
z
" style="fill:#0000ff;opacity:0.2;stroke:#0000ff;stroke-linejoin:miter;stroke-width:2;"/>
   </g>
   <g id="patch_44">
    <path clip-path="url(#p74f4cfd30b)" d="M 242.528188 234.306937 
C 192.956857 234.306937 165.607157 199.284244 165.607157 158.007499 
C 165.607157 116.730754 192.956857 81.708062 242.528188 79.206441 
C 292.099518 81.708062 319.449218 116.730754 319.449218 158.007499 
C 319.449218 199.284244 292.099518 234.306937 242.528188 234.306937 
" style="fill:none;stroke:#ff0000;stroke-linejoin:miter;stroke-width:0.5;"/>
   </g>
   <g id="patch_45">
    <path clip-path="url(#p74f4cfd30b)" d="M 165.607157 162.385336 
C 165.607157 124.861022 199.794282 97.343192 242.528188 97.343192 
C 286.97145 97.343192 319.449218 124.861022 319.449218 162.385336 
C 319.449218 201.16046 286.97145 228.67829 242.528188 228.67829 
C 199.794282 228.67829 165.607157 201.16046 165.607157 162.385336 
" style="fill:none;stroke:#0000ff;stroke-linejoin:miter;stroke-width:0.5;"/>
   </g>
   <g id="[&quot;g_s&quot;:1,&quot;g_t&quot;:4,&quot;coords&quot;:[[240.0, 27.0],[240.0, 31.5]],&quot;certainty&quot;:10]">
    <path clip-path="url(#p74f4cfd30b)" d="M 242.528188 241.186394 
C 245.021484 241.186394 247.412997 240.461531 249.176023 239.171448 
C 250.93905 237.881365 251.929647 236.13139 251.929647 234.306937 
C 251.929647 232.482483 250.93905 230.732509 249.176023 229.442426 
C 247.412997 228.152342 245.021484 227.427479 242.528188 227.427479 
C 240.034891 227.427479 237.643378 228.152342 235.880352 229.442426 
C 234.117325 230.732509 233.126728 232.482483 233.126728 234.306937 
C 233.126728 236.13139 234.117325 237.881365 235.880352 239.171448 
C 237.643378 240.461531 240.034891 241.186394 242.528188 241.186394 
z
" style="fill:#0000ff;opacity:0.2;stroke:#0000ff;stroke-linejoin:miter;stroke-width:2;"/>
   </g>
   <g id="[&quot;g_s&quot;:4,&quot;g_t&quot;:1,&quot;coords&quot;:[[240.0, 31.5],[240.0, 27.0]],&quot;certainty&quot;:10]">
    <path clip-path="url(#p74f4cfd30b)" d="M 242.528188 235.557747 
C 245.021484 235.557747 247.412997 234.832884 249.176023 233.542801 
C 250.93905 232.252717 251.929647 230.502743 251.929647 228.67829 
C 251.929647 226.853836 250.93905 225.103862 249.176023 223.813779 
C 247.412997 222.523695 245.021484 221.798832 242.528188 221.798832 
C 240.034891 221.798832 237.643378 222.523695 235.880352 223.813779 
C 234.117325 225.103862 233.126728 226.853836 233.126728 228.67829 
C 233.126728 230.502743 234.117325 232.252717 235.880352 233.542801 
C 237.643378 234.832884 240.034891 235.557747 242.528188 235.557747 
z
" style="fill:#ff0000;opacity:0.2;stroke:#ff0000;stroke-linejoin:miter;stroke-width:2;"/>
   </g>
   <g id="patch_46">
    <path d="M 242.528188 234.306937 
Q 242.528188 232.491643 242.528188 232.620893 
" style="fill:none;opacity:0.5;stroke:#0000ff;stroke-linecap:round;stroke-width:2.75;"/>
    <path d="M 241.028188 234.120893 
L 242.528188 232.620893 
L 244.028188 234.120893 
" style="fill:none;opacity:0.5;stroke:#0000ff;stroke-linecap:round;stroke-width:2.75;"/>
   </g>
   <g id="[&quot;g_s&quot;:2,&quot;g_t&quot;:1,&quot;coords&quot;:[[195.0, 88.0],[195.0, 84.5]],&quot;certainty&quot;:12]">
    <path clip-path="url(#p74f4cfd30b)" d="M 165.607157 166.137767 
C 168.55378 166.137767 171.380113 165.281111 173.46369 163.756467 
C 175.547267 162.231823 176.717972 160.163671 176.717972 158.007499 
C 176.717972 155.851327 175.547267 153.783176 173.46369 152.258532 
C 171.380113 150.733888 168.55378 149.877231 165.607157 149.877231 
C 162.660534 149.877231 159.834201 150.733888 157.750624 152.258532 
C 155.667047 153.783176 154.496341 155.851327 154.496341 158.007499 
C 154.496341 160.163671 155.667047 162.231823 157.750624 163.756467 
C 159.834201 165.281111 162.660534 166.137767 165.607157 166.137767 
z
" style="fill:#0000ff;opacity:0.2;stroke:#0000ff;stroke-linejoin:miter;stroke-width:2;"/>
   </g>
   <g id="[&quot;g_s&quot;:1,&quot;g_t&quot;:2,&quot;coords&quot;:[[195.0, 84.5],[195.0, 88.0]],&quot;certainty&quot;:12]">
    <path clip-path="url(#p74f4cfd30b)" d="M 165.607157 170.515604 
C 168.55378 170.515604 171.380113 169.658947 173.46369 168.134303 
C 175.547267 166.609659 176.717972 164.541508 176.717972 162.385336 
C 176.717972 160.229164 175.547267 158.161012 173.46369 156.636368 
C 171.380113 155.111724 168.55378 154.255068 165.607157 154.255068 
C 162.660534 154.255068 159.834201 155.111724 157.750624 156.636368 
C 155.667047 158.161012 154.496341 160.229164 154.496341 162.385336 
C 154.496341 164.541508 155.667047 166.609659 157.750624 168.134303 
C 159.834201 169.658947 162.660534 170.515604 165.607157 170.515604 
z
" style="fill:#ff0000;opacity:0.2;stroke:#ff0000;stroke-linejoin:miter;stroke-width:2;"/>
   </g>
   <g id="patch_47">
    <path d="M 165.607157 158.007499 
Q 165.607157 159.198151 165.607157 158.090706 
" style="fill:none;opacity:0.5;stroke:#0000ff;stroke-linecap:round;stroke-width:3.25;"/>
    <path d="M 167.107157 156.590706 
L 165.607157 158.090706 
L 164.107157 156.590706 
" style="fill:none;opacity:0.5;stroke:#0000ff;stroke-linecap:round;stroke-width:3.25;"/>
   </g>
   <g id="[&quot;g_s&quot;:3,&quot;g_t&quot;:2,&quot;coords&quot;:[[240.0, 151.0],[240.0, 136.5]],&quot;certainty&quot;:11]">
    <path clip-path="url(#p74f4cfd30b)" d="M 242.528188 86.711303 
C 245.248147 86.711303 247.85707 85.920544 249.780372 84.51318 
C 251.703674 83.105816 252.784325 81.196753 252.784325 79.206441 
C 252.784325 77.216128 251.703674 75.307065 249.780372 73.899701 
C 247.85707 72.492338 245.248147 71.701578 242.528188 71.701578 
C 239.808228 71.701578 237.199305 72.492338 235.276003 73.899701 
C 233.352701 75.307065 232.27205 77.216128 232.27205 79.206441 
C 232.27205 81.196753 233.352701 83.105816 235.276003 84.51318 
C 237.199305 85.920544 239.808228 86.711303 242.528188 86.711303 
z
" style="fill:#0000ff;opacity:0.2;stroke:#0000ff;stroke-linejoin:miter;stroke-width:2;"/>
   </g>
   <g id="[&quot;g_s&quot;:2,&quot;g_t&quot;:3,&quot;coords&quot;:[[240.0, 136.5],[240.0, 151.0]],&quot;certainty&quot;:11]">
    <path clip-path="url(#p74f4cfd30b)" d="M 242.528188 104.848055 
C 245.248147 104.848055 247.85707 104.057295 249.780372 102.649932 
C 251.703674 101.242568 252.784325 99.333505 252.784325 97.343192 
C 252.784325 95.352879 251.703674 93.443817 249.780372 92.036453 
C 247.85707 90.629089 245.248147 89.838329 242.528188 89.838329 
C 239.808228 89.838329 237.199305 90.629089 235.276003 92.036453 
C 233.352701 93.443817 232.27205 95.352879 232.27205 97.343192 
C 232.27205 99.333505 233.352701 101.242568 235.276003 102.649932 
C 237.199305 104.057295 239.808228 104.848055 242.528188 104.848055 
z
" style="fill:#ff0000;opacity:0.2;stroke:#ff0000;stroke-linejoin:miter;stroke-width:2;"/>
   </g>
   <g id="patch_48">
    <path d="M 242.528188 79.206441 
Q 242.528188 87.276321 242.528188 93.224881 
" style="fill:none;opacity:0.5;stroke:#0000ff;stroke-linecap:round;stroke-width:3;"/>
    <path d="M 244.028188 91.724881 
L 242.528188 93.224881 
L 241.028188 91.724881 
" style="fill:none;opacity:0.5;stroke:#0000ff;stroke-linecap:round;stroke-width:3;"/>
   </g>
   <g id="[&quot;g_s&quot;:4,&quot;g_t&quot;:3,&quot;coords&quot;:[[285.0, 88.0],[285.0, 84.5]],&quot;certainty&quot;:11]">
    <path clip-path="url(#p74f4cfd30b)" d="M 319.449218 165.512362 
C 322.169177 165.512362 324.778101 164.721602 326.701402 163.314239 
C 328.624704 161.906875 329.705355 159.997812 329.705355 158.007499 
C 329.705355 156.017186 328.624704 154.108124 326.701402 152.70076 
C 324.778101 151.293396 322.169177 150.502636 319.449218 150.502636 
C 316.729259 150.502636 314.120335 151.293396 312.197034 152.70076 
C 310.273732 154.108124 309.193081 156.017186 309.193081 158.007499 
C 309.193081 159.997812 310.273732 161.906875 312.197034 163.314239 
C 314.120335 164.721602 316.729259 165.512362 319.449218 165.512362 
z
" style="fill:#0000ff;opacity:0.2;stroke:#0000ff;stroke-linejoin:miter;stroke-width:2;"/>
   </g>
   <g id="[&quot;g_s&quot;:3,&quot;g_t&quot;:4,&quot;coords&quot;:[[285.0, 84.5],[285.0, 88.0]],&quot;certainty&quot;:11]">
    <path clip-path="url(#p74f4cfd30b)" d="M 319.449218 169.890199 
C 322.169177 169.890199 324.778101 169.099439 326.701402 167.692075 
C 328.624704 166.284711 329.705355 164.375649 329.705355 162.385336 
C 329.705355 160.395023 328.624704 158.48596 326.701402 157.078596 
C 324.778101 155.671233 322.169177 154.880473 319.449218 154.880473 
C 316.729259 154.880473 314.120335 155.671233 312.197034 157.078596 
C 310.273732 158.48596 309.193081 160.395023 309.193081 162.385336 
C 309.193081 164.375649 310.273732 166.284711 312.197034 167.692075 
C 314.120335 169.099439 316.729259 169.890199 319.449218 169.890199 
z
" style="fill:#ff0000;opacity:0.2;stroke:#ff0000;stroke-linejoin:miter;stroke-width:2;"/>
   </g>
   <g id="patch_49">
    <path d="M 319.449218 158.007499 
Q 319.449218 159.198151 319.449218 158.267483 
" style="fill:none;opacity:0.5;stroke:#0000ff;stroke-linecap:round;stroke-width:3;"/>
    <path d="M 320.949218 156.767483 
L 319.449218 158.267483 
L 317.949218 156.767483 
" style="fill:none;opacity:0.5;stroke:#0000ff;stroke-linecap:round;stroke-width:3;"/>
   </g>
   <g id="[&quot;g_s&quot;:1,&quot;g_t&quot;:2,&quot;coords&quot;:[[195.0, 84.5],[195.0, 88.0]],&quot;certainty&quot;:11]">
    <path clip-path="url(#p74f4cfd30b)" d="M 165.607157 169.890199 
C 168.327116 169.890199 170.93604 169.099439 172.859341 167.692075 
C 174.782643 166.284711 175.863294 164.375649 175.863294 162.385336 
C 175.863294 160.395023 174.782643 158.48596 172.859341 157.078596 
C 170.93604 155.671233 168.327116 154.880473 165.607157 154.880473 
C 162.887198 154.880473 160.278274 155.671233 158.354973 157.078596 
C 156.431671 158.48596 155.35102 160.395023 155.35102 162.385336 
C 155.35102 164.375649 156.431671 166.284711 158.354973 167.692075 
C 160.278274 169.099439 162.887198 169.890199 165.607157 169.890199 
z
" style="fill:#0000ff;opacity:0.2;stroke:#0000ff;stroke-linejoin:miter;stroke-width:2;"/>
   </g>
   <g id="[&quot;g_s&quot;:2,&quot;g_t&quot;:1,&quot;coords&quot;:[[195.0, 88.0],[195.0, 84.5]],&quot;certainty&quot;:11]">
    <path clip-path="url(#p74f4cfd30b)" d="M 165.607157 165.512362 
C 168.327116 165.512362 170.93604 164.721602 172.859341 163.314239 
C 174.782643 161.906875 175.863294 159.997812 175.863294 158.007499 
C 175.863294 156.017186 174.782643 154.108124 172.859341 152.70076 
C 170.93604 151.293396 168.327116 150.502636 165.607157 150.502636 
C 162.887198 150.502636 160.278274 151.293396 158.354973 152.70076 
C 156.431671 154.108124 155.35102 156.017186 155.35102 158.007499 
C 155.35102 159.997812 156.431671 161.906875 158.354973 163.314239 
C 160.278274 164.721602 162.887198 165.512362 165.607157 165.512362 
z
" style="fill:#ff0000;opacity:0.2;stroke:#ff0000;stroke-linejoin:miter;stroke-width:2;"/>
   </g>
   <g id="patch_50">
    <path d="M 165.607157 162.385336 
Q 165.607157 161.194684 165.607157 162.125352 
" style="fill:none;opacity:0.5;stroke:#ff0000;stroke-linecap:round;stroke-width:3;"/>
    <path d="M 164.107157 163.625352 
L 165.607157 162.125352 
L 167.107157 163.625352 
" style="fill:none;opacity:0.5;stroke:#ff0000;stroke-linecap:round;stroke-width:3;"/>
   </g>
   <g id="[&quot;g_s&quot;:2,&quot;g_t&quot;:3,&quot;coords&quot;:[[240.0, 136.5],[240.0, 151.0]],&quot;certainty&quot;:10]">
    <path clip-path="url(#p74f4cfd30b)" d="M 242.528188 104.22265 
C 245.021484 104.22265 247.412997 103.497787 249.176023 102.207703 
C 250.93905 100.91762 251.929647 99.167646 251.929647 97.343192 
C 251.929647 95.518739 250.93905 93.768765 249.176023 92.478681 
C 247.412997 91.188598 245.021484 90.463735 242.528188 90.463735 
C 240.034891 90.463735 237.643378 91.188598 235.880352 92.478681 
C 234.117325 93.768765 233.126728 95.518739 233.126728 97.343192 
C 233.126728 99.167646 234.117325 100.91762 235.880352 102.207703 
C 237.643378 103.497787 240.034891 104.22265 242.528188 104.22265 
z
" style="fill:#0000ff;opacity:0.2;stroke:#0000ff;stroke-linejoin:miter;stroke-width:2;"/>
   </g>
   <g id="[&quot;g_s&quot;:3,&quot;g_t&quot;:2,&quot;coords&quot;:[[240.0, 151.0],[240.0, 136.5]],&quot;certainty&quot;:10]">
    <path clip-path="url(#p74f4cfd30b)" d="M 242.528188 86.085898 
C 245.021484 86.085898 247.412997 85.361035 249.176023 84.070952 
C 250.93905 82.780868 251.929647 81.030894 251.929647 79.206441 
C 251.929647 77.381987 250.93905 75.632013 249.176023 74.34193 
C 247.412997 73.051846 245.021484 72.326983 242.528188 72.326983 
C 240.034891 72.326983 237.643378 73.051846 235.880352 74.34193 
C 234.117325 75.632013 233.126728 77.381987 233.126728 79.206441 
C 233.126728 81.030894 234.117325 82.780868 235.880352 84.070952 
C 237.643378 85.361035 240.034891 86.085898 242.528188 86.085898 
z
" style="fill:#ff0000;opacity:0.2;stroke:#ff0000;stroke-linejoin:miter;stroke-width:2;"/>
   </g>
   <g id="patch_51">
    <path d="M 242.528188 97.343192 
Q 242.528188 89.273312 242.528188 83.147975 
" style="fill:none;opacity:0.5;stroke:#ff0000;stroke-linecap:round;stroke-width:2.75;"/>
    <path d="M 241.028188 84.647975 
L 242.528188 83.147975 
L 244.028188 84.647975 
" style="fill:none;opacity:0.5;stroke:#ff0000;stroke-linecap:round;stroke-width:2.75;"/>
   </g>
   <g id="[&quot;g_s&quot;:3,&quot;g_t&quot;:4,&quot;coords&quot;:[[285.0, 84.5],[285.0, 88.0]],&quot;certainty&quot;:12]">
    <path clip-path="url(#p74f4cfd30b)" d="M 319.449218 170.515604 
C 322.395841 170.515604 325.222174 169.658947 327.305751 168.134303 
C 329.389328 166.609659 330.560034 164.541508 330.560034 162.385336 
C 330.560034 160.229164 329.389328 158.161012 327.305751 156.636368 
C 325.222174 155.111724 322.395841 154.255068 319.449218 154.255068 
C 316.502595 154.255068 313.676262 155.111724 311.592685 156.636368 
C 309.509108 158.161012 308.338403 160.229164 308.338403 162.385336 
C 308.338403 164.541508 309.509108 166.609659 311.592685 168.134303 
C 313.676262 169.658947 316.502595 170.515604 319.449218 170.515604 
z
" style="fill:#0000ff;opacity:0.2;stroke:#0000ff;stroke-linejoin:miter;stroke-width:2;"/>
   </g>
   <g id="[&quot;g_s&quot;:4,&quot;g_t&quot;:3,&quot;coords&quot;:[[285.0, 88.0],[285.0, 84.5]],&quot;certainty&quot;:12]">
    <path clip-path="url(#p74f4cfd30b)" d="M 319.449218 166.137767 
C 322.395841 166.137767 325.222174 165.281111 327.305751 163.756467 
C 329.389328 162.231823 330.560034 160.163671 330.560034 158.007499 
C 330.560034 155.851327 329.389328 153.783176 327.305751 152.258532 
C 325.222174 150.733888 322.395841 149.877231 319.449218 149.877231 
C 316.502595 149.877231 313.676262 150.733888 311.592685 152.258532 
C 309.509108 153.783176 308.338403 155.851327 308.338403 158.007499 
C 308.338403 160.163671 309.509108 162.231823 311.592685 163.756467 
C 313.676262 165.281111 316.502595 166.137767 319.449218 166.137767 
z
" style="fill:#ff0000;opacity:0.2;stroke:#ff0000;stroke-linejoin:miter;stroke-width:2;"/>
   </g>
   <g id="patch_52">
    <path d="M 319.449218 162.385336 
Q 319.449218 161.194684 319.449218 162.302129 
" style="fill:none;opacity:0.5;stroke:#ff0000;stroke-linecap:round;stroke-width:3.25;"/>
    <path d="M 317.949218 163.802129 
L 319.449218 162.302129 
L 320.949218 163.802129 
" style="fill:none;opacity:0.5;stroke:#ff0000;stroke-linecap:round;stroke-width:3.25;"/>
   </g>
   <g id="[&quot;g_s&quot;:4,&quot;g_t&quot;:1,&quot;coords&quot;:[[240.0, 31.5],[240.0, 27.0]],&quot;certainty&quot;:11]">
    <path clip-path="url(#p74f4cfd30b)" d="M 242.528188 236.183153 
C 245.248147 236.183153 247.85707 235.392393 249.780372 233.985029 
C 251.703674 232.577665 252.784325 230.668603 252.784325 228.67829 
C 252.784325 226.687977 251.703674 224.778914 249.780372 223.371551 
C 247.85707 221.964187 245.248147 221.173427 242.528188 221.173427 
C 239.808228 221.173427 237.199305 221.964187 235.276003 223.371551 
C 233.352701 224.778914 232.27205 226.687977 232.27205 228.67829 
C 232.27205 230.668603 233.352701 232.577665 235.276003 233.985029 
C 237.199305 235.392393 239.808228 236.183153 242.528188 236.183153 
z
" style="fill:#0000ff;opacity:0.2;stroke:#0000ff;stroke-linejoin:miter;stroke-width:2;"/>
   </g>
   <g id="[&quot;g_s&quot;:1,&quot;g_t&quot;:4,&quot;coords&quot;:[[240.0, 27.0],[240.0, 31.5]],&quot;certainty&quot;:11]">
    <path clip-path="url(#p74f4cfd30b)" d="M 242.528188 241.8118 
C 245.248147 241.8118 247.85707 241.02104 249.780372 239.613676 
C 251.703674 238.206312 252.784325 236.29725 252.784325 234.306937 
C 252.784325 232.316624 251.703674 230.407561 249.780372 229.000198 
C 247.85707 227.592834 245.248147 226.802074 242.528188 226.802074 
C 239.808228 226.802074 237.199305 227.592834 235.276003 229.000198 
C 233.352701 230.407561 232.27205 232.316624 232.27205 234.306937 
C 232.27205 236.29725 233.352701 238.206312 235.276003 239.613676 
C 237.199305 241.02104 239.808228 241.8118 242.528188 241.8118 
z
" style="fill:#ff0000;opacity:0.2;stroke:#ff0000;stroke-linejoin:miter;stroke-width:2;"/>
   </g>
   <g id="patch_53">
    <path d="M 242.528188 228.67829 
Q 242.528188 230.493583 242.528188 230.187557 
" style="fill:none;opacity:0.5;stroke:#ff0000;stroke-linecap:round;stroke-width:3;"/>
    <path d="M 244.028188 228.687557 
L 242.528188 230.187557 
L 241.028188 228.687557 
" style="fill:none;opacity:0.5;stroke:#ff0000;stroke-linecap:round;stroke-width:3;"/>
   </g>
   <g id="patch_54">
    <path clip-path="url(#p74f4cfd30b)" d="M 242.528188 237.746666 
C 244.79482 237.746666 246.968923 237.087699 248.571674 235.914896 
C 250.174426 234.742093 251.074969 233.151207 251.074969 231.492613 
C 251.074969 229.834019 250.174426 228.243134 248.571674 227.070331 
C 246.968923 225.897527 244.79482 225.238561 242.528188 225.238561 
C 240.261555 225.238561 238.087452 225.897527 236.484701 227.070331 
C 234.881949 228.243134 233.981406 229.834019 233.981406 231.492613 
C 233.981406 233.151207 234.881949 234.742093 236.484701 235.914896 
C 238.087452 237.087699 240.261555 237.746666 242.528188 237.746666 
z
" style="fill:#008000;opacity:0.2;stroke:#008000;stroke-linejoin:miter;stroke-width:2;"/>
   </g>
   <g id="patch_55">
    <path clip-path="url(#p74f4cfd30b)" d="M 165.607157 166.45047 
C 167.87379 166.45047 170.047892 165.791503 171.650644 164.6187 
C 173.253395 163.445897 174.153938 161.855012 174.153938 160.196418 
C 174.153938 158.537823 173.253395 156.946938 171.650644 155.774135 
C 170.047892 154.601332 167.87379 153.942365 165.607157 153.942365 
C 163.340524 153.942365 161.166421 154.601332 159.56367 155.774135 
C 157.960919 156.946938 157.060376 158.537823 157.060376 160.196418 
C 157.060376 161.855012 157.960919 163.445897 159.56367 164.6187 
C 161.166421 165.791503 163.340524 166.45047 165.607157 166.45047 
z
" style="fill:#008000;opacity:0.2;stroke:#008000;stroke-linejoin:miter;stroke-width:2;"/>
   </g>
   <g id="patch_56">
    <path clip-path="url(#p74f4cfd30b)" d="M 242.528188 94.528869 
C 244.79482 94.528869 246.968923 93.869902 248.571674 92.697099 
C 250.174426 91.524296 251.074969 89.93341 251.074969 88.274816 
C 251.074969 86.616222 250.174426 85.025337 248.571674 83.852534 
C 246.968923 82.679731 244.79482 82.020764 242.528188 82.020764 
C 240.261555 82.020764 238.087452 82.679731 236.484701 83.852534 
C 234.881949 85.025337 233.981406 86.616222 233.981406 88.274816 
C 233.981406 89.93341 234.881949 91.524296 236.484701 92.697099 
C 238.087452 93.869902 240.261555 94.528869 242.528188 94.528869 
z
" style="fill:#008000;opacity:0.2;stroke:#008000;stroke-linejoin:miter;stroke-width:2;"/>
   </g>
   <g id="patch_57">
    <path clip-path="url(#p74f4cfd30b)" d="M 319.449218 166.45047 
C 321.715851 166.45047 323.889954 165.791503 325.492705 164.6187 
C 327.095456 163.445897 327.995999 161.855012 327.995999 160.196418 
C 327.995999 158.537823 327.095456 156.946938 325.492705 155.774135 
C 323.889954 154.601332 321.715851 153.942365 319.449218 153.942365 
C 317.182585 153.942365 315.008483 154.601332 313.405731 155.774135 
C 311.80298 156.946938 310.902437 158.537823 310.902437 160.196418 
C 310.902437 161.855012 311.80298 163.445897 313.405731 164.6187 
C 315.008483 165.791503 317.182585 166.45047 319.449218 166.45047 
z
" style="fill:#008000;opacity:0.2;stroke:#008000;stroke-linejoin:miter;stroke-width:2;"/>
   </g>
   <g id="patch_58">
    <path clip-path="url(#p74f4cfd30b)" d="M 242.528188 259.323146 
C 251.594719 259.323146 260.291129 256.68728 266.702135 251.996068 
C 273.113141 247.304856 276.715312 240.941313 276.715312 234.306937 
C 276.715312 227.672561 273.113141 221.309018 266.702135 216.617806 
C 260.291129 211.926593 251.594719 209.290728 242.528188 209.290728 
C 233.461656 209.290728 224.765246 211.926593 218.35424 216.617806 
C 211.943234 221.309018 208.341063 227.672561 208.341063 234.306937 
C 208.341063 240.941313 211.943234 247.304856 218.35424 251.996068 
C 224.765246 256.68728 233.461656 259.323146 242.528188 259.323146 
z
" style="fill:none;opacity:0.2;stroke:#ff0000;stroke-linejoin:miter;stroke-width:2;"/>
   </g>
   <g id="patch_59">
    <path clip-path="url(#p74f4cfd30b)" d="M 165.607157 187.401545 
C 174.673688 187.401545 183.370099 184.765679 189.781105 180.074467 
C 196.192111 175.383254 199.794282 169.019712 199.794282 162.385336 
C 199.794282 155.75096 196.192111 149.387417 189.781105 144.696205 
C 183.370099 140.004992 174.673688 137.369127 165.607157 137.369127 
C 156.540626 137.369127 147.844215 140.004992 141.433209 144.696205 
C 135.022203 149.387417 131.420032 155.75096 131.420032 162.385336 
C 131.420032 169.019712 135.022203 175.383254 141.433209 180.074467 
C 147.844215 184.765679 156.540626 187.401545 165.607157 187.401545 
z
" style="fill:none;opacity:0.2;stroke:#0000ff;stroke-linejoin:miter;stroke-width:2;"/>
   </g>
   <g id="patch_60">
    <path clip-path="url(#p74f4cfd30b)" d="M 242.528188 246.815041 
C 247.061453 246.815041 251.409658 245.497109 254.615161 243.151502 
C 257.820664 240.805896 259.62175 237.624125 259.62175 234.306937 
C 259.62175 230.989749 257.820664 227.807978 254.615161 225.462371 
C 251.409658 223.116765 247.061453 221.798832 242.528188 221.798832 
C 237.994922 221.798832 233.646717 223.116765 230.441214 225.462371 
C 227.235711 227.807978 225.434625 230.989749 225.434625 234.306937 
C 225.434625 237.624125 227.235711 240.805896 230.441214 243.151502 
C 233.646717 245.497109 237.994922 246.815041 242.528188 246.815041 
z
" style="fill:none;opacity:0.2;stroke:#008000;stroke-linejoin:miter;stroke-width:2;"/>
   </g>
   <g id="patch_61">
    <path clip-path="url(#p74f4cfd30b)" d="M 242.528188 241.186394 
C 247.061453 241.186394 251.409658 239.868462 254.615161 237.522855 
C 257.820664 235.177249 259.62175 231.995478 259.62175 228.67829 
C 259.62175 225.361102 257.820664 222.17933 254.615161 219.833724 
C 251.409658 217.488118 247.061453 216.170185 242.528188 216.170185 
C 237.994922 216.170185 233.646717 217.488118 230.441214 219.833724 
C 227.235711 222.17933 225.434625 225.361102 225.434625 228.67829 
C 225.434625 231.995478 227.235711 235.177249 230.441214 237.522855 
C 233.646717 239.868462 237.994922 241.186394 242.528188 241.186394 
z
" style="fill:none;opacity:0.2;stroke:#008000;stroke-linejoin:miter;stroke-width:2;"/>
   </g>
   <g id="patch_62">
    <path d="M 242.528188 231.492613 
Q 204.067672 195.844515 165.607157 160.196418 
" style="fill:none;opacity:0.5;stroke:#008000;stroke-linecap:round;stroke-width:2;"/>
   </g>
   <g id="patch_63">
    <path d="M 242.528188 232.892723 
Q 242.528188 232.491643 242.528188 232.090563 
" style="fill:none;opacity:0.5;stroke:#800080;stroke-linecap:round;stroke-width:2;"/>
    <path d="M 244.028188 231.392723 
L 242.528188 232.892723 
L 241.028188 231.392723 
" style="fill:none;opacity:0.5;stroke:#800080;stroke-linecap:round;stroke-width:2;"/>
    <path d="M 241.028188 233.590563 
L 242.528188 232.090563 
L 244.028188 233.590563 
" style="fill:none;opacity:0.5;stroke:#800080;stroke-linecap:round;stroke-width:2;"/>
   </g>
   <g id="patch_64">
    <path d="M 165.607157 160.196418 
Q 204.067672 124.235617 242.528188 88.274816 
" style="fill:none;opacity:0.5;stroke:#008000;stroke-linecap:round;stroke-width:2;"/>
   </g>
   <g id="patch_65">
    <path d="M 165.607157 159.421713 
Q 165.607157 159.198151 165.607157 158.974589 
" style="fill:none;opacity:0.5;stroke:#800080;stroke-linecap:round;stroke-width:2;"/>
    <path d="M 164.107157 160.921713 
L 165.607157 159.421713 
L 167.107157 160.921713 
" style="fill:none;opacity:0.5;stroke:#800080;stroke-linecap:round;stroke-width:2;"/>
    <path d="M 167.107157 157.474589 
L 165.607157 158.974589 
L 164.107157 157.474589 
" style="fill:none;opacity:0.5;stroke:#800080;stroke-linecap:round;stroke-width:2;"/>
   </g>
   <g id="patch_66">
    <path d="M 242.528188 88.274816 
Q 280.988703 124.235617 319.449218 160.196418 
" style="fill:none;opacity:0.5;stroke:#008000;stroke-linecap:round;stroke-width:2;"/>
   </g>
   <g id="patch_67">
    <path d="M 242.528188 80.620654 
Q 242.528188 87.276321 242.528188 93.931988 
" style="fill:none;opacity:0.5;stroke:#800080;stroke-linecap:round;stroke-width:2;"/>
    <path d="M 241.028188 82.120654 
L 242.528188 80.620654 
L 244.028188 82.120654 
" style="fill:none;opacity:0.5;stroke:#800080;stroke-linecap:round;stroke-width:2;"/>
    <path d="M 244.028188 92.431988 
L 242.528188 93.931988 
L 241.028188 92.431988 
" style="fill:none;opacity:0.5;stroke:#800080;stroke-linecap:round;stroke-width:2;"/>
   </g>
   <g id="patch_68">
    <path d="M 319.449218 160.196418 
Q 280.988703 195.844515 242.528188 231.492613 
" style="fill:none;opacity:0.5;stroke:#008000;stroke-linecap:round;stroke-width:2;"/>
   </g>
   <g id="patch_69">
    <path d="M 319.449218 159.421713 
Q 319.449218 159.198151 319.449218 158.974589 
" style="fill:none;opacity:0.5;stroke:#800080;stroke-linecap:round;stroke-width:2;"/>
    <path d="M 317.949218 160.921713 
L 319.449218 159.421713 
L 320.949218 160.921713 
" style="fill:none;opacity:0.5;stroke:#800080;stroke-linecap:round;stroke-width:2;"/>
    <path d="M 320.949218 157.474589 
L 319.449218 158.974589 
L 317.949218 157.474589 
" style="fill:none;opacity:0.5;stroke:#800080;stroke-linecap:round;stroke-width:2;"/>
   </g>
   <g id="line2d_1">
    <path clip-path="url(#p74f4cfd30b)" d="M 242.528188 281.837734 
L 66.464495 158.007499 
L 242.528188 35.428075 
L 418.59188 158.007499 
" style="fill:none;stroke:#ff0000;stroke-linecap:square;stroke-width:0.2;"/>
   </g>
   <g id="line2d_2">
    <path clip-path="url(#p74f4cfd30b)" d="M 242.528188 58.568068 
L 387.823467 159.883715 
L 242.528188 261.199362 
L 97.232908 159.883715 
" style="fill:none;stroke:#0000ff;stroke-linecap:square;stroke-width:0.2;"/>
   </g>
   <g id="line2d_3">
    <path clip-path="url(#p74f4cfd30b)" d="M 242.528188 234.306937 
L 165.607157 158.007499 
L 242.528188 79.206441 
L 319.449218 158.007499 
" style="fill:none;stroke:#ff0000;stroke-linecap:square;stroke-width:0.2;"/>
   </g>
   <g id="line2d_4">
    <path clip-path="url(#p74f4cfd30b)" d="M 165.607157 162.385336 
L 242.528188 97.343192 
L 319.449218 162.385336 
L 242.528188 228.67829 
" style="fill:none;stroke:#0000ff;stroke-linecap:square;stroke-width:0.2;"/>
   </g>
  </g>
 </g>
 <defs>
  <clipPath id="p74f4cfd30b">
   <rect height="307.51175" width="409.903625" x="37.576375" y="13.32"/>
  </clipPath>
 </defs>
</svg>
