<?xml version="1.0" encoding="utf-8" standalone="no"?>
<!DOCTYPE svg PUBLIC "-//W3C//DTD SVG 1.1//EN"
  "http://www.w3.org/Graphics/SVG/1.1/DTD/svg11.dtd">
<!-- Created with matplotlib (http://matplotlib.org/) -->
<svg height="345.6pt" version="1.1" viewBox="0 0 460.8 345.6" width="460.8pt" xmlns="http://www.w3.org/2000/svg" xmlns:xlink="http://www.w3.org/1999/xlink">
 <defs>
  <style type="text/css">
*{stroke-linecap:butt;stroke-linejoin:round;}
  </style>
 </defs>
 <g id="figure_1">
  <g id="patch_1">
   <path d="M 0 345.6 
L 460.8 345.6 
L 460.8 0 
L 0 0 
z
" style="fill:#ffffff;"/>
  </g>
  <g id="axes_1">
   <g id="patch_2">
    <path clip-path="url(#pc9f3497333)" d="M 242.528188 284.439643 
C 243.395075 284.439643 244.226574 284.17723 244.839556 283.710199 
C 245.452538 283.243167 245.796956 282.609647 245.796956 281.949165 
C 245.796956 281.288682 245.452538 280.655163 244.839556 280.188131 
C 244.226574 279.7211 243.395075 279.458687 242.528188 279.458687 
C 241.6613 279.458687 240.829801 279.7211 240.216819 280.188131 
C 239.603837 280.655163 239.259419 281.288682 239.259419 281.949165 
C 239.259419 282.609647 239.603837 283.243167 240.216819 283.710199 
C 240.829801 284.17723 241.6613 284.439643 242.528188 284.439643 
z
" style="fill:#ff0000;opacity:0.2;stroke:#ff0000;stroke-linejoin:miter;stroke-width:2;"/>
   </g>
   <g id="patch_3">
    <path clip-path="url(#pc9f3497333)" d="M 66.014665 161.16099 
C 66.881552 161.16099 67.713051 160.898578 68.326033 160.431546 
C 68.939016 159.964514 69.283434 159.330995 69.283434 158.670512 
C 69.283434 158.01003 68.939016 157.37651 68.326033 156.909479 
C 67.713051 156.442447 66.881552 156.180034 66.014665 156.180034 
C 65.147777 156.180034 64.316278 156.442447 63.703296 156.909479 
C 63.090314 157.37651 62.745896 158.01003 62.745896 158.670512 
C 62.745896 159.330995 63.090314 159.964514 63.703296 160.431546 
C 64.316278 160.898578 65.147777 161.16099 66.014665 161.16099 
z
" style="fill:#ff0000;opacity:0.2;stroke:#ff0000;stroke-linejoin:miter;stroke-width:2;"/>
   </g>
   <g id="patch_4">
    <path clip-path="url(#pc9f3497333)" d="M 242.528188 39.127577 
C 243.395075 39.127577 244.226574 38.865164 244.839556 38.398132 
C 245.452538 37.931101 245.796956 37.297581 245.796956 36.637099 
C 245.796956 35.976616 245.452538 35.343097 244.839556 34.876065 
C 244.226574 34.409033 243.395075 34.146621 242.528188 34.146621 
C 241.6613 34.146621 240.829801 34.409033 240.216819 34.876065 
C 239.603837 35.343097 239.259419 35.976616 239.259419 36.637099 
C 239.259419 37.297581 239.603837 37.931101 240.216819 38.398132 
C 240.829801 38.865164 241.6613 39.127577 242.528188 39.127577 
z
" style="fill:#ff0000;opacity:0.2;stroke:#ff0000;stroke-linejoin:miter;stroke-width:2;"/>
   </g>
   <g id="patch_5">
    <path clip-path="url(#pc9f3497333)" d="M 419.04171 161.16099 
C 419.908598 161.16099 420.740097 160.898578 421.353079 160.431546 
C 421.966061 159.964514 422.310479 159.330995 422.310479 158.670512 
C 422.310479 158.01003 421.966061 157.37651 421.353079 156.909479 
C 420.740097 156.442447 419.908598 156.180034 419.04171 156.180034 
C 418.174823 156.180034 417.343324 156.442447 416.730342 156.909479 
C 416.117359 157.37651 415.772941 158.01003 415.772941 158.670512 
C 415.772941 159.330995 416.117359 159.964514 416.730342 160.431546 
C 417.343324 160.898578 418.174823 161.16099 419.04171 161.16099 
z
" style="fill:#ff0000;opacity:0.2;stroke:#ff0000;stroke-linejoin:miter;stroke-width:2;"/>
   </g>
   <g id="patch_6">
    <path clip-path="url(#pc9f3497333)" d="M 242.528188 54.693063 
C 243.395075 54.693063 244.226574 54.43065 244.839556 53.963619 
C 245.452538 53.496587 245.796956 52.863068 245.796956 52.202585 
C 245.796956 51.542103 245.452538 50.908583 244.839556 50.441551 
C 244.226574 49.97452 243.395075 49.712107 242.528188 49.712107 
C 241.6613 49.712107 240.829801 49.97452 240.216819 50.441551 
C 239.603837 50.908583 239.259419 51.542103 239.259419 52.202585 
C 239.259419 52.863068 239.603837 53.496587 240.216819 53.963619 
C 240.829801 54.43065 241.6613 54.693063 242.528188 54.693063 
z
" style="fill:#0000ff;opacity:0.2;stroke:#0000ff;stroke-linejoin:miter;stroke-width:2;"/>
   </g>
   <g id="patch_7">
    <path clip-path="url(#pc9f3497333)" d="M 381.450867 155.557415 
C 382.317755 155.557415 383.149254 155.295003 383.762236 154.827971 
C 384.375218 154.360939 384.719636 153.72742 384.719636 153.066937 
C 384.719636 152.406455 384.375218 151.772935 383.762236 151.305903 
C 383.149254 150.838872 382.317755 150.576459 381.450867 150.576459 
C 380.58398 150.576459 379.752481 150.838872 379.139499 151.305903 
C 378.526517 151.772935 378.182098 152.406455 378.182098 153.066937 
C 378.182098 153.72742 378.526517 154.360939 379.139499 154.827971 
C 379.752481 155.295003 380.58398 155.557415 381.450867 155.557415 
z
" style="fill:#0000ff;opacity:0.2;stroke:#0000ff;stroke-linejoin:miter;stroke-width:2;"/>
   </g>
   <g id="patch_8">
    <path clip-path="url(#pc9f3497333)" d="M 242.528188 256.421767 
C 243.395075 256.421767 244.226574 256.159355 244.839556 255.692323 
C 245.452538 255.225291 245.796956 254.591772 245.796956 253.931289 
C 245.796956 253.270807 245.452538 252.637287 244.839556 252.170256 
C 244.226574 251.703224 243.395075 251.440811 242.528188 251.440811 
C 241.6613 251.440811 240.829801 251.703224 240.216819 252.170256 
C 239.603837 252.637287 239.259419 253.270807 239.259419 253.931289 
C 239.259419 254.591772 239.603837 255.225291 240.216819 255.692323 
C 240.829801 256.159355 241.6613 256.421767 242.528188 256.421767 
z
" style="fill:#0000ff;opacity:0.2;stroke:#0000ff;stroke-linejoin:miter;stroke-width:2;"/>
   </g>
   <g id="patch_9">
    <path clip-path="url(#pc9f3497333)" d="M 103.605508 155.557415 
C 104.472395 155.557415 105.303894 155.295003 105.916876 154.827971 
C 106.529858 154.360939 106.874277 153.72742 106.874277 153.066937 
C 106.874277 152.406455 106.529858 151.772935 105.916876 151.305903 
C 105.303894 150.838872 104.472395 150.576459 103.605508 150.576459 
C 102.73862 150.576459 101.907121 150.838872 101.294139 151.305903 
C 100.681157 151.772935 100.336739 152.406455 100.336739 153.066937 
C 100.336739 153.72742 100.681157 154.360939 101.294139 154.827971 
C 101.907121 155.295003 102.73862 155.557415 103.605508 155.557415 
z
" style="fill:#0000ff;opacity:0.2;stroke:#0000ff;stroke-linejoin:miter;stroke-width:2;"/>
   </g>
   <g id="patch_10">
    <path clip-path="url(#pc9f3497333)" d="M 242.528188 281.949165 
C 133.024428 281.949165 66.014665 220.932458 66.014665 158.670512 
C 66.014665 96.408567 133.024428 36.637099 242.528188 36.637099 
C 353.666331 36.637099 419.04171 96.408567 419.04171 158.670512 
C 419.04171 220.932458 353.666331 281.949165 242.528188 281.949165 
" style="fill:none;stroke:#ff0000;stroke-linejoin:miter;stroke-width:0.5;"/>
   </g>
   <g id="patch_11">
    <path clip-path="url(#pc9f3497333)" d="M 242.528188 52.202585 
C 324.247411 52.202585 381.450867 100.766903 381.450867 153.066937 
C 381.450867 206.612211 324.247411 253.931289 242.528188 253.931289 
C 160.808964 253.931289 103.605508 206.612211 103.605508 153.066937 
C 103.605508 100.766903 160.808964 52.202585 242.528188 52.202585 
" style="fill:none;stroke:#0000ff;stroke-linejoin:miter;stroke-width:0.5;"/>
   </g>
   <g id="[&quot;g_s&quot;:1,&quot;g_t&quot;:3,&quot;coords&quot;:[[240.0, -241.0],[240.0, -218.5]],&quot;certainty&quot;:11]">
    <path clip-path="url(#pc9f3497333)" d="M 242.528188 289.420598 
C 245.12885 289.420598 247.623347 288.633361 249.462294 287.232266 
C 251.30124 285.831171 252.334494 283.930612 252.334494 281.949165 
C 252.334494 279.967718 251.30124 278.067158 249.462294 276.666064 
C 247.623347 275.264969 245.12885 274.477731 242.528188 274.477731 
C 239.927525 274.477731 237.433028 275.264969 235.594081 276.666064 
C 233.755135 278.067158 232.721881 279.967718 232.721881 281.949165 
C 232.721881 283.930612 233.755135 285.831171 235.594081 287.232266 
C 237.433028 288.633361 239.927525 289.420598 242.528188 289.420598 
z
" style="fill:#0000ff;opacity:0.2;stroke:#0000ff;stroke-linejoin:miter;stroke-width:2;"/>
   </g>
   <g id="[&quot;g_s&quot;:3,&quot;g_t&quot;:1,&quot;coords&quot;:[[240.0, -218.5],[240.0, -241.0]],&quot;certainty&quot;:11]">
    <path clip-path="url(#pc9f3497333)" d="M 242.528188 261.402723 
C 245.12885 261.402723 247.623347 260.615485 249.462294 259.214391 
C 251.30124 257.813296 252.334494 255.912737 252.334494 253.931289 
C 252.334494 251.949842 251.30124 250.049283 249.462294 248.648188 
C 247.623347 247.247093 245.12885 246.459856 242.528188 246.459856 
C 239.927525 246.459856 237.433028 247.247093 235.594081 248.648188 
C 233.755135 250.049283 232.721881 251.949842 232.721881 253.931289 
C 232.721881 255.912737 233.755135 257.813296 235.594081 259.214391 
C 237.433028 260.615485 239.927525 261.402723 242.528188 261.402723 
z
" style="fill:#ff0000;opacity:0.2;stroke:#ff0000;stroke-linejoin:miter;stroke-width:2;"/>
   </g>
   <g id="patch_12">
    <path d="M 242.528188 281.949165 
Q 242.528188 268.940621 242.528188 258.053398 
" style="fill:none;opacity:0.5;stroke:#0000ff;stroke-linecap:round;stroke-width:3;"/>
    <path d="M 241.028188 259.553398 
L 242.528188 258.053398 
L 244.028188 259.553398 
" style="fill:none;opacity:0.5;stroke:#0000ff;stroke-linecap:round;stroke-width:3;"/>
   </g>
   <g id="[&quot;g_s&quot;:2,&quot;g_t&quot;:4,&quot;coords&quot;:[[132.0, -142.0],[155.0, -137.5]],&quot;certainty&quot;:10]">
    <path clip-path="url(#pc9f3497333)" d="M 66.014665 165.519326 
C 68.398606 165.519326 70.685228 164.797692 72.370929 163.513355 
C 74.05663 162.229018 75.003779 160.486839 75.003779 158.670512 
C 75.003779 156.854186 74.05663 155.112006 72.370929 153.827669 
C 70.685228 152.543333 68.398606 151.821698 66.014665 151.821698 
C 63.630724 151.821698 61.344102 152.543333 59.658401 153.827669 
C 57.9727 155.112006 57.02555 156.854186 57.02555 158.670512 
C 57.02555 160.486839 57.9727 162.229018 59.658401 163.513355 
C 61.344102 164.797692 63.630724 165.519326 66.014665 165.519326 
z
" style="fill:#0000ff;opacity:0.2;stroke:#0000ff;stroke-linejoin:miter;stroke-width:2;"/>
   </g>
   <g id="[&quot;g_s&quot;:4,&quot;g_t&quot;:2,&quot;coords&quot;:[[155.0, -137.5],[132.0, -142.0]],&quot;certainty&quot;:10]">
    <path clip-path="url(#pc9f3497333)" d="M 103.605508 159.915751 
C 105.989449 159.915751 108.276071 159.194117 109.961771 157.90978 
C 111.647472 156.625443 112.594622 154.883264 112.594622 153.066937 
C 112.594622 151.25061 111.647472 149.508431 109.961771 148.224094 
C 108.276071 146.939757 105.989449 146.218123 103.605508 146.218123 
C 101.221567 146.218123 98.934945 146.939757 97.249244 148.224094 
C 95.563543 149.508431 94.616393 151.25061 94.616393 153.066937 
C 94.616393 154.883264 95.563543 156.625443 97.249244 157.90978 
C 98.934945 159.194117 101.221567 159.915751 103.605508 159.915751 
z
" style="fill:#ff0000;opacity:0.2;stroke:#ff0000;stroke-linejoin:miter;stroke-width:2;"/>
   </g>
   <g id="patch_13">
    <path d="M 66.014665 158.670512 
Q 83.821216 156.016133 99.704475 153.648455 
" style="fill:none;opacity:0.5;stroke:#0000ff;stroke-linecap:round;stroke-width:2.75;"/>
    <path d="M 97.99971 152.386005 
L 99.704475 153.648455 
L 98.442025 155.353219 
" style="fill:none;opacity:0.5;stroke:#0000ff;stroke-linecap:round;stroke-width:2.75;"/>
   </g>
   <g id="[&quot;g_s&quot;:3,&quot;g_t&quot;:1,&quot;coords&quot;:[[240.0, -44.0],[240.0, -56.5]],&quot;certainty&quot;:12]">
    <path clip-path="url(#pc9f3497333)" d="M 242.528188 44.731152 
C 245.345572 44.731152 248.047944 43.878311 250.040136 42.360458 
C 252.032328 40.842606 253.151687 38.783667 253.151687 36.637099 
C 253.151687 34.490531 252.032328 32.431592 250.040136 30.913739 
C 248.047944 29.395886 245.345572 28.543046 242.528188 28.543046 
C 239.710803 28.543046 237.008431 29.395886 235.016239 30.913739 
C 233.024047 32.431592 231.904688 34.490531 231.904688 36.637099 
C 231.904688 38.783667 233.024047 40.842606 235.016239 42.360458 
C 237.008431 43.878311 239.710803 44.731152 242.528188 44.731152 
z
" style="fill:#0000ff;opacity:0.2;stroke:#0000ff;stroke-linejoin:miter;stroke-width:2;"/>
   </g>
   <g id="[&quot;g_s&quot;:1,&quot;g_t&quot;:3,&quot;coords&quot;:[[240.0, -56.5],[240.0, -44.0]],&quot;certainty&quot;:12]">
    <path clip-path="url(#pc9f3497333)" d="M 242.528188 60.296638 
C 245.345572 60.296638 248.047944 59.443798 250.040136 57.925945 
C 252.032328 56.408092 253.151687 54.349153 253.151687 52.202585 
C 253.151687 50.056017 252.032328 47.997078 250.040136 46.479225 
C 248.047944 44.961373 245.345572 44.108532 242.528188 44.108532 
C 239.710803 44.108532 237.008431 44.961373 235.016239 46.479225 
C 233.024047 47.997078 231.904688 50.056017 231.904688 52.202585 
C 231.904688 54.349153 233.024047 56.408092 235.016239 57.925945 
C 237.008431 59.443798 239.710803 60.296638 242.528188 60.296638 
z
" style="fill:#ff0000;opacity:0.2;stroke:#ff0000;stroke-linejoin:miter;stroke-width:2;"/>
   </g>
   <g id="patch_14">
    <path d="M 242.528188 36.637099 
Q 242.528188 43.418498 242.528188 47.9018 
" style="fill:none;opacity:0.5;stroke:#0000ff;stroke-linecap:round;stroke-width:3.25;"/>
    <path d="M 244.028188 46.4018 
L 242.528188 47.9018 
L 241.028188 46.4018 
" style="fill:none;opacity:0.5;stroke:#0000ff;stroke-linecap:round;stroke-width:3.25;"/>
   </g>
   <g id="[&quot;g_s&quot;:4,&quot;g_t&quot;:2,&quot;coords&quot;:[[348.0, -142.0],[325.0, -137.5]],&quot;certainty&quot;:11]">
    <path clip-path="url(#pc9f3497333)" d="M 419.04171 166.141946 
C 421.642373 166.141946 424.13687 165.354708 425.975816 163.953614 
C 427.814763 162.552519 428.848017 160.65196 428.848017 158.670512 
C 428.848017 156.689065 427.814763 154.788506 425.975816 153.387411 
C 424.13687 151.986316 421.642373 151.199079 419.04171 151.199079 
C 416.441047 151.199079 413.946551 151.986316 412.107604 153.387411 
C 410.268658 154.788506 409.235403 156.689065 409.235403 158.670512 
C 409.235403 160.65196 410.268658 162.552519 412.107604 163.953614 
C 413.946551 165.354708 416.441047 166.141946 419.04171 166.141946 
z
" style="fill:#0000ff;opacity:0.2;stroke:#0000ff;stroke-linejoin:miter;stroke-width:2;"/>
   </g>
   <g id="[&quot;g_s&quot;:2,&quot;g_t&quot;:4,&quot;coords&quot;:[[325.0, -137.5],[348.0, -142.0]],&quot;certainty&quot;:11]">
    <path clip-path="url(#pc9f3497333)" d="M 381.450867 160.538371 
C 384.05153 160.538371 386.546027 159.751133 388.384973 158.350038 
C 390.22392 156.948944 391.257174 155.048385 391.257174 153.066937 
C 391.257174 151.08549 390.22392 149.184931 388.384973 147.783836 
C 386.546027 146.382741 384.05153 145.595504 381.450867 145.595504 
C 378.850204 145.595504 376.355708 146.382741 374.516761 147.783836 
C 372.677815 149.184931 371.644561 151.08549 371.644561 153.066937 
C 371.644561 155.048385 372.677815 156.948944 374.516761 158.350038 
C 376.355708 159.751133 378.850204 160.538371 381.450867 160.538371 
z
" style="fill:#ff0000;opacity:0.2;stroke:#ff0000;stroke-linejoin:miter;stroke-width:2;"/>
   </g>
   <g id="patch_15">
    <path d="M 419.04171 158.670512 
Q 401.235159 156.016133 385.526745 153.674518 
" style="fill:none;opacity:0.5;stroke:#0000ff;stroke-linecap:round;stroke-width:3;"/>
    <path d="M 386.789194 155.379283 
L 385.526745 153.674518 
L 387.23151 152.412069 
" style="fill:none;opacity:0.5;stroke:#0000ff;stroke-linecap:round;stroke-width:3;"/>
   </g>
   <g id="[&quot;g_s&quot;:1,&quot;g_t&quot;:3,&quot;coords&quot;:[[240.0, -56.5],[240.0, -44.0]],&quot;certainty&quot;:11]">
    <path clip-path="url(#pc9f3497333)" d="M 242.528188 59.674019 
C 245.12885 59.674019 247.623347 58.886781 249.462294 57.485686 
C 251.30124 56.084592 252.334494 54.184032 252.334494 52.202585 
C 252.334494 50.221138 251.30124 48.320579 249.462294 46.919484 
C 247.623347 45.518389 245.12885 44.731152 242.528188 44.731152 
C 239.927525 44.731152 237.433028 45.518389 235.594081 46.919484 
C 233.755135 48.320579 232.721881 50.221138 232.721881 52.202585 
C 232.721881 54.184032 233.755135 56.084592 235.594081 57.485686 
C 237.433028 58.886781 239.927525 59.674019 242.528188 59.674019 
z
" style="fill:#0000ff;opacity:0.2;stroke:#0000ff;stroke-linejoin:miter;stroke-width:2;"/>
   </g>
   <g id="[&quot;g_s&quot;:3,&quot;g_t&quot;:1,&quot;coords&quot;:[[240.0, -44.0],[240.0, -56.5]],&quot;certainty&quot;:11]">
    <path clip-path="url(#pc9f3497333)" d="M 242.528188 44.108532 
C 245.12885 44.108532 247.623347 43.321295 249.462294 41.9202 
C 251.30124 40.519105 252.334494 38.618546 252.334494 36.637099 
C 252.334494 34.655651 251.30124 32.755092 249.462294 31.353997 
C 247.623347 29.952903 245.12885 29.165665 242.528188 29.165665 
C 239.927525 29.165665 237.433028 29.952903 235.594081 31.353997 
C 233.755135 32.755092 232.721881 34.655651 232.721881 36.637099 
C 232.721881 38.618546 233.755135 40.519105 235.594081 41.9202 
C 237.433028 43.321295 239.927525 44.108532 242.528188 44.108532 
z
" style="fill:#ff0000;opacity:0.2;stroke:#ff0000;stroke-linejoin:miter;stroke-width:2;"/>
   </g>
   <g id="patch_16">
    <path d="M 242.528188 52.202585 
Q 242.528188 45.421186 242.528188 40.761107 
" style="fill:none;opacity:0.5;stroke:#ff0000;stroke-linecap:round;stroke-width:3;"/>
    <path d="M 241.028188 42.261107 
L 242.528188 40.761107 
L 244.028188 42.261107 
" style="fill:none;opacity:0.5;stroke:#ff0000;stroke-linecap:round;stroke-width:3;"/>
   </g>
   <g id="[&quot;g_s&quot;:2,&quot;g_t&quot;:4,&quot;coords&quot;:[[325.0, -137.5],[348.0, -142.0]],&quot;certainty&quot;:10]">
    <path clip-path="url(#pc9f3497333)" d="M 381.450867 159.915751 
C 383.834808 159.915751 386.12143 159.194117 387.807131 157.90978 
C 389.492832 156.625443 390.439982 154.883264 390.439982 153.066937 
C 390.439982 151.25061 389.492832 149.508431 387.807131 148.224094 
C 386.12143 146.939757 383.834808 146.218123 381.450867 146.218123 
C 379.066926 146.218123 376.780304 146.939757 375.094604 148.224094 
C 373.408903 149.508431 372.461753 151.25061 372.461753 153.066937 
C 372.461753 154.883264 373.408903 156.625443 375.094604 157.90978 
C 376.780304 159.194117 379.066926 159.915751 381.450867 159.915751 
z
" style="fill:#0000ff;opacity:0.2;stroke:#0000ff;stroke-linejoin:miter;stroke-width:2;"/>
   </g>
   <g id="[&quot;g_s&quot;:4,&quot;g_t&quot;:2,&quot;coords&quot;:[[348.0, -142.0],[325.0, -137.5]],&quot;certainty&quot;:10]">
    <path clip-path="url(#pc9f3497333)" d="M 419.04171 165.519326 
C 421.425651 165.519326 423.712273 164.797692 425.397974 163.513355 
C 427.083675 162.229018 428.030825 160.486839 428.030825 158.670512 
C 428.030825 156.854186 427.083675 155.112006 425.397974 153.827669 
C 423.712273 152.543333 421.425651 151.821698 419.04171 151.821698 
C 416.657769 151.821698 414.371147 152.543333 412.685446 153.827669 
C 410.999745 155.112006 410.052596 156.854186 410.052596 158.670512 
C 410.052596 160.486839 410.999745 162.229018 412.685446 163.513355 
C 414.371147 164.797692 416.657769 165.519326 419.04171 165.519326 
z
" style="fill:#ff0000;opacity:0.2;stroke:#ff0000;stroke-linejoin:miter;stroke-width:2;"/>
   </g>
   <g id="patch_17">
    <path d="M 381.450867 153.066937 
Q 399.257418 155.721316 415.140677 158.088995 
" style="fill:none;opacity:0.5;stroke:#ff0000;stroke-linecap:round;stroke-width:2.75;"/>
    <path d="M 413.878228 156.38423 
L 415.140677 158.088995 
L 413.435913 159.351444 
" style="fill:none;opacity:0.5;stroke:#ff0000;stroke-linecap:round;stroke-width:2.75;"/>
   </g>
   <g id="[&quot;g_s&quot;:3,&quot;g_t&quot;:1,&quot;coords&quot;:[[240.0, -218.5],[240.0, -241.0]],&quot;certainty&quot;:12]">
    <path clip-path="url(#pc9f3497333)" d="M 242.528188 262.025342 
C 245.345572 262.025342 248.047944 261.172502 250.040136 259.654649 
C 252.032328 258.136796 253.151687 256.077857 253.151687 253.931289 
C 253.151687 251.784721 252.032328 249.725782 250.040136 248.20793 
C 248.047944 246.690077 245.345572 245.837236 242.528188 245.837236 
C 239.710803 245.837236 237.008431 246.690077 235.016239 248.20793 
C 233.024047 249.725782 231.904688 251.784721 231.904688 253.931289 
C 231.904688 256.077857 233.024047 258.136796 235.016239 259.654649 
C 237.008431 261.172502 239.710803 262.025342 242.528188 262.025342 
z
" style="fill:#0000ff;opacity:0.2;stroke:#0000ff;stroke-linejoin:miter;stroke-width:2;"/>
   </g>
   <g id="[&quot;g_s&quot;:1,&quot;g_t&quot;:3,&quot;coords&quot;:[[240.0, -241.0],[240.0, -218.5]],&quot;certainty&quot;:12]">
    <path clip-path="url(#pc9f3497333)" d="M 242.528188 290.043218 
C 245.345572 290.043218 248.047944 289.190377 250.040136 287.672525 
C 252.032328 286.154672 253.151687 284.095733 253.151687 281.949165 
C 253.151687 279.802597 252.032328 277.743658 250.040136 276.225805 
C 248.047944 274.707952 245.345572 273.855112 242.528188 273.855112 
C 239.710803 273.855112 237.008431 274.707952 235.016239 276.225805 
C 233.024047 277.743658 231.904688 279.802597 231.904688 281.949165 
C 231.904688 284.095733 233.024047 286.154672 235.016239 287.672525 
C 237.008431 289.190377 239.710803 290.043218 242.528188 290.043218 
z
" style="fill:#ff0000;opacity:0.2;stroke:#ff0000;stroke-linejoin:miter;stroke-width:2;"/>
   </g>
   <g id="patch_18">
    <path d="M 242.528188 253.931289 
Q 242.528188 266.939833 242.528188 277.65028 
" style="fill:none;opacity:0.5;stroke:#ff0000;stroke-linecap:round;stroke-width:3.25;"/>
    <path d="M 244.028188 276.15028 
L 242.528188 277.65028 
L 241.028188 276.15028 
" style="fill:none;opacity:0.5;stroke:#ff0000;stroke-linecap:round;stroke-width:3.25;"/>
   </g>
   <g id="[&quot;g_s&quot;:4,&quot;g_t&quot;:2,&quot;coords&quot;:[[155.0, -137.5],[132.0, -142.0]],&quot;certainty&quot;:11]">
    <path clip-path="url(#pc9f3497333)" d="M 103.605508 160.538371 
C 106.206171 160.538371 108.700667 159.751133 110.539614 158.350038 
C 112.37856 156.948944 113.411814 155.048385 113.411814 153.066937 
C 113.411814 151.08549 112.37856 149.184931 110.539614 147.783836 
C 108.700667 146.382741 106.206171 145.595504 103.605508 145.595504 
C 101.004845 145.595504 98.510348 146.382741 96.671402 147.783836 
C 94.832455 149.184931 93.799201 151.08549 93.799201 153.066937 
C 93.799201 155.048385 94.832455 156.948944 96.671402 158.350038 
C 98.510348 159.751133 101.004845 160.538371 103.605508 160.538371 
z
" style="fill:#0000ff;opacity:0.2;stroke:#0000ff;stroke-linejoin:miter;stroke-width:2;"/>
   </g>
   <g id="[&quot;g_s&quot;:2,&quot;g_t&quot;:4,&quot;coords&quot;:[[132.0, -142.0],[155.0, -137.5]],&quot;certainty&quot;:11]">
    <path clip-path="url(#pc9f3497333)" d="M 66.014665 166.141946 
C 68.615328 166.141946 71.109824 165.354708 72.948771 163.953614 
C 74.787717 162.552519 75.820972 160.65196 75.820972 158.670512 
C 75.820972 156.689065 74.787717 154.788506 72.948771 153.387411 
C 71.109824 151.986316 68.615328 151.199079 66.014665 151.199079 
C 63.414002 151.199079 60.919505 151.986316 59.080559 153.387411 
C 57.241612 154.788506 56.208358 156.689065 56.208358 158.670512 
C 56.208358 160.65196 57.241612 162.552519 59.080559 163.953614 
C 60.919505 165.354708 63.414002 166.141946 66.014665 166.141946 
z
" style="fill:#ff0000;opacity:0.2;stroke:#ff0000;stroke-linejoin:miter;stroke-width:2;"/>
   </g>
   <g id="patch_19">
    <path d="M 103.605508 153.066937 
Q 85.798957 155.721316 70.090543 158.062931 
" style="fill:none;opacity:0.5;stroke:#ff0000;stroke-linecap:round;stroke-width:3;"/>
    <path d="M 71.795307 159.32538 
L 70.090543 158.062931 
L 71.352992 156.358167 
" style="fill:none;opacity:0.5;stroke:#ff0000;stroke-linecap:round;stroke-width:3;"/>
   </g>
   <g id="patch_20">
    <path clip-path="url(#pc9f3497333)" d="M 242.528188 274.166422 
C 244.695407 274.166422 246.774154 273.510391 248.306609 272.342811 
C 249.839065 271.175232 250.70011 269.591433 250.70011 267.940227 
C 250.70011 266.289021 249.839065 264.705222 248.306609 263.537643 
C 246.774154 262.370064 244.695407 261.714033 242.528188 261.714033 
C 240.360968 261.714033 238.282221 262.370064 236.749766 263.537643 
C 235.21731 264.705222 234.356265 266.289021 234.356265 267.940227 
C 234.356265 269.591433 235.21731 271.175232 236.749766 272.342811 
C 238.282221 273.510391 240.360968 274.166422 242.528188 274.166422 
z
" style="fill:#008000;opacity:0.2;stroke:#008000;stroke-linejoin:miter;stroke-width:2;"/>
   </g>
   <g id="patch_21">
    <path clip-path="url(#pc9f3497333)" d="M 84.810086 162.094919 
C 86.977305 162.094919 89.056053 161.438888 90.588508 160.271309 
C 92.120963 159.10373 92.982009 157.519931 92.982009 155.868725 
C 92.982009 154.217519 92.120963 152.633719 90.588508 151.46614 
C 89.056053 150.298561 86.977305 149.64253 84.810086 149.64253 
C 82.642867 149.64253 80.56412 150.298561 79.031664 151.46614 
C 77.499209 152.633719 76.638164 154.217519 76.638164 155.868725 
C 76.638164 157.519931 77.499209 159.10373 79.031664 160.271309 
C 80.56412 161.438888 82.642867 162.094919 84.810086 162.094919 
z
" style="fill:#008000;opacity:0.2;stroke:#008000;stroke-linejoin:miter;stroke-width:2;"/>
   </g>
   <g id="patch_22">
    <path clip-path="url(#pc9f3497333)" d="M 242.528188 50.646036 
C 244.695407 50.646036 246.774154 49.990005 248.306609 48.822426 
C 249.839065 47.654847 250.70011 46.071048 250.70011 44.419842 
C 250.70011 42.768636 249.839065 41.184837 248.306609 40.017257 
C 246.774154 38.849678 244.695407 38.193647 242.528188 38.193647 
C 240.360968 38.193647 238.282221 38.849678 236.749766 40.017257 
C 235.21731 41.184837 234.356265 42.768636 234.356265 44.419842 
C 234.356265 46.071048 235.21731 47.654847 236.749766 48.822426 
C 238.282221 49.990005 240.360968 50.646036 242.528188 50.646036 
z
" style="fill:#008000;opacity:0.2;stroke:#008000;stroke-linejoin:miter;stroke-width:2;"/>
   </g>
   <g id="patch_23">
    <path clip-path="url(#pc9f3497333)" d="M 400.246289 162.094919 
C 402.413508 162.094919 404.492255 161.438888 406.024711 160.271309 
C 407.557166 159.10373 408.418211 157.519931 408.418211 155.868725 
C 408.418211 154.217519 407.557166 152.633719 406.024711 151.46614 
C 404.492255 150.298561 402.413508 149.64253 400.246289 149.64253 
C 398.07907 149.64253 396.000322 150.298561 394.467867 151.46614 
C 392.935412 152.633719 392.074366 154.217519 392.074366 155.868725 
C 392.074366 157.519931 392.935412 159.10373 394.467867 160.271309 
C 396.000322 161.438888 398.07907 162.094919 400.246289 162.094919 
z
" style="fill:#008000;opacity:0.2;stroke:#008000;stroke-linejoin:miter;stroke-width:2;"/>
   </g>
   <g id="patch_24">
    <path clip-path="url(#pc9f3497333)" d="M 242.528188 306.853943 
C 251.197064 306.853943 259.512053 304.229819 265.641874 299.559503 
C 271.771696 294.889186 275.215877 288.553989 275.215877 281.949165 
C 275.215877 275.34434 271.771696 269.009143 265.641874 264.338827 
C 259.512053 259.668511 251.197064 257.044387 242.528188 257.044387 
C 233.859311 257.044387 225.544322 259.668511 219.414501 264.338827 
C 213.284679 269.009143 209.840498 275.34434 209.840498 281.949165 
C 209.840498 288.553989 213.284679 294.889186 219.414501 299.559503 
C 225.544322 304.229819 233.859311 306.853943 242.528188 306.853943 
z
" style="fill:none;opacity:0.2;stroke:#ff0000;stroke-linejoin:miter;stroke-width:2;"/>
   </g>
   <g id="patch_25">
    <path clip-path="url(#pc9f3497333)" d="M 242.528188 77.107363 
C 251.197064 77.107363 259.512053 74.483239 265.641874 69.812923 
C 271.771696 65.142607 275.215877 58.80741 275.215877 52.202585 
C 275.215877 45.597761 271.771696 39.262564 265.641874 34.592247 
C 259.512053 29.921931 251.197064 27.297807 242.528188 27.297807 
C 233.859311 27.297807 225.544322 29.921931 219.414501 34.592247 
C 213.284679 39.262564 209.840498 45.597761 209.840498 52.202585 
C 209.840498 58.80741 213.284679 65.142607 219.414501 69.812923 
C 225.544322 74.483239 233.859311 77.107363 242.528188 77.107363 
z
" style="fill:none;opacity:0.2;stroke:#0000ff;stroke-linejoin:miter;stroke-width:2;"/>
   </g>
   <g id="patch_26">
    <path clip-path="url(#pc9f3497333)" d="M 242.528188 294.401554 
C 246.862626 294.401554 251.02012 293.089492 254.085031 290.754334 
C 257.149942 288.419176 258.872032 285.251577 258.872032 281.949165 
C 258.872032 278.646753 257.149942 275.479154 254.085031 273.143996 
C 251.02012 270.808838 246.862626 269.496776 242.528188 269.496776 
C 238.193749 269.496776 234.036255 270.808838 230.971344 273.143996 
C 227.906433 275.479154 226.184343 278.646753 226.184343 281.949165 
C 226.184343 285.251577 227.906433 288.419176 230.971344 290.754334 
C 234.036255 293.089492 238.193749 294.401554 242.528188 294.401554 
z
" style="fill:none;opacity:0.2;stroke:#008000;stroke-linejoin:miter;stroke-width:2;"/>
   </g>
   <g id="patch_27">
    <path clip-path="url(#pc9f3497333)" d="M 242.528188 266.383678 
C 246.862626 266.383678 251.02012 265.071616 254.085031 262.736458 
C 257.149942 260.4013 258.872032 257.233702 258.872032 253.931289 
C 258.872032 250.628877 257.149942 247.461279 254.085031 245.12612 
C 251.02012 242.790962 246.862626 241.4789 242.528188 241.4789 
C 238.193749 241.4789 234.036255 242.790962 230.971344 245.12612 
C 227.906433 247.461279 226.184343 250.628877 226.184343 253.931289 
C 226.184343 257.233702 227.906433 260.4013 230.971344 262.736458 
C 234.036255 265.071616 238.193749 266.383678 242.528188 266.383678 
z
" style="fill:none;opacity:0.2;stroke:#008000;stroke-linejoin:miter;stroke-width:2;"/>
   </g>
   <g id="patch_28">
    <path d="M 242.528188 267.940227 
Q 163.669137 211.904476 84.810086 155.868725 
" style="fill:none;opacity:0.5;stroke:#008000;stroke-linecap:round;stroke-width:2;"/>
   </g>
   <g id="patch_29">
    <path d="M 242.528188 280.534951 
Q 242.528188 268.940621 242.528188 257.346291 
" style="fill:none;opacity:0.5;stroke:#800080;stroke-linecap:round;stroke-width:2;"/>
    <path d="M 244.028188 279.034951 
L 242.528188 280.534951 
L 241.028188 279.034951 
" style="fill:none;opacity:0.5;stroke:#800080;stroke-linecap:round;stroke-width:2;"/>
    <path d="M 241.028188 258.846291 
L 242.528188 257.346291 
L 244.028188 258.846291 
" style="fill:none;opacity:0.5;stroke:#800080;stroke-linecap:round;stroke-width:2;"/>
   </g>
   <g id="patch_30">
    <path d="M 84.810086 155.868725 
Q 163.669137 100.144283 242.528188 44.419842 
" style="fill:none;opacity:0.5;stroke:#008000;stroke-linecap:round;stroke-width:2;"/>
   </g>
   <g id="patch_31">
    <path d="M 67.413423 158.462003 
Q 83.821216 156.016133 100.229009 153.570264 
" style="fill:none;opacity:0.5;stroke:#800080;stroke-linecap:round;stroke-width:2;"/>
    <path d="M 69.118187 159.724452 
L 67.413423 158.462003 
L 68.675872 156.757238 
" style="fill:none;opacity:0.5;stroke:#800080;stroke-linecap:round;stroke-width:2;"/>
    <path d="M 98.524244 152.307814 
L 100.229009 153.570264 
L 98.96656 155.275028 
" style="fill:none;opacity:0.5;stroke:#800080;stroke-linecap:round;stroke-width:2;"/>
   </g>
   <g id="patch_32">
    <path d="M 242.528188 44.419842 
Q 321.387238 100.144283 400.246289 155.868725 
" style="fill:none;opacity:0.5;stroke:#008000;stroke-linecap:round;stroke-width:2;"/>
   </g>
   <g id="patch_33">
    <path d="M 242.528188 38.051312 
Q 242.528188 43.418498 242.528188 48.785683 
" style="fill:none;opacity:0.5;stroke:#800080;stroke-linecap:round;stroke-width:2;"/>
    <path d="M 241.028188 39.551312 
L 242.528188 38.051312 
L 244.028188 39.551312 
" style="fill:none;opacity:0.5;stroke:#800080;stroke-linecap:round;stroke-width:2;"/>
    <path d="M 244.028188 47.285683 
L 242.528188 48.785683 
L 241.028188 47.285683 
" style="fill:none;opacity:0.5;stroke:#800080;stroke-linecap:round;stroke-width:2;"/>
   </g>
   <g id="patch_34">
    <path d="M 400.246289 155.868725 
Q 321.387238 211.904476 242.528188 267.940227 
" style="fill:none;opacity:0.5;stroke:#008000;stroke-linecap:round;stroke-width:2;"/>
   </g>
   <g id="patch_35">
    <path d="M 417.642952 158.462003 
Q 401.235159 156.016133 384.827366 153.570264 
" style="fill:none;opacity:0.5;stroke:#800080;stroke-linecap:round;stroke-width:2;"/>
    <path d="M 416.380503 156.757238 
L 417.642952 158.462003 
L 415.938188 159.724452 
" style="fill:none;opacity:0.5;stroke:#800080;stroke-linecap:round;stroke-width:2;"/>
    <path d="M 386.089815 155.275028 
L 384.827366 153.570264 
L 386.532131 152.307814 
" style="fill:none;opacity:0.5;stroke:#800080;stroke-linecap:round;stroke-width:2;"/>
   </g>
   <g id="patch_36">
    <path clip-path="url(#pc9f3497333)" d="M 242.528188 237.120564 
C 243.395075 237.120564 244.226574 236.858152 244.839556 236.39112 
C 245.452538 235.924088 245.796956 235.290569 245.796956 234.630086 
C 245.796956 233.969604 245.452538 233.336084 244.839556 232.869052 
C 244.226574 232.402021 243.395075 232.139608 242.528188 232.139608 
C 241.6613 232.139608 240.829801 232.402021 240.216819 232.869052 
C 239.603837 233.336084 239.259419 233.969604 239.259419 234.630086 
C 239.259419 235.290569 239.603837 235.924088 240.216819 236.39112 
C 240.829801 236.858152 241.6613 237.120564 242.528188 237.120564 
z
" style="fill:#ff0000;opacity:0.2;stroke:#ff0000;stroke-linejoin:miter;stroke-width:2;"/>
   </g>
   <g id="patch_37">
    <path clip-path="url(#pc9f3497333)" d="M 164.077733 161.16099 
C 164.944621 161.16099 165.776119 160.898578 166.389102 160.431546 
C 167.002084 159.964514 167.346502 159.330995 167.346502 158.670512 
C 167.346502 158.01003 167.002084 157.37651 166.389102 156.909479 
C 165.776119 156.442447 164.944621 156.180034 164.077733 156.180034 
C 163.210845 156.180034 162.379346 156.442447 161.766364 156.909479 
C 161.153382 157.37651 160.808964 158.01003 160.808964 158.670512 
C 160.808964 159.330995 161.153382 159.964514 161.766364 160.431546 
C 162.379346 160.898578 163.210845 161.16099 164.077733 161.16099 
z
" style="fill:#ff0000;opacity:0.2;stroke:#ff0000;stroke-linejoin:miter;stroke-width:2;"/>
   </g>
   <g id="patch_38">
    <path clip-path="url(#pc9f3497333)" d="M 242.528188 82.710939 
C 243.395075 82.710939 244.226574 82.448526 244.839556 81.981494 
C 245.452538 81.514463 245.796956 80.880943 245.796956 80.220461 
C 245.796956 79.559978 245.452538 78.926459 244.839556 78.459427 
C 244.226574 77.992395 243.395075 77.729983 242.528188 77.729983 
C 241.6613 77.729983 240.829801 77.992395 240.216819 78.459427 
C 239.603837 78.926459 239.259419 79.559978 239.259419 80.220461 
C 239.259419 80.880943 239.603837 81.514463 240.216819 81.981494 
C 240.829801 82.448526 241.6613 82.710939 242.528188 82.710939 
z
" style="fill:#ff0000;opacity:0.2;stroke:#ff0000;stroke-linejoin:miter;stroke-width:2;"/>
   </g>
   <g id="patch_39">
    <path clip-path="url(#pc9f3497333)" d="M 320.978642 161.16099 
C 321.84553 161.16099 322.677029 160.898578 323.290011 160.431546 
C 323.902993 159.964514 324.247411 159.330995 324.247411 158.670512 
C 324.247411 158.01003 323.902993 157.37651 323.290011 156.909479 
C 322.677029 156.442447 321.84553 156.180034 320.978642 156.180034 
C 320.111754 156.180034 319.280256 156.442447 318.667273 156.909479 
C 318.054291 157.37651 317.709873 158.01003 317.709873 158.670512 
C 317.709873 159.330995 318.054291 159.964514 318.667273 160.431546 
C 319.280256 160.898578 320.111754 161.16099 320.978642 161.16099 
z
" style="fill:#ff0000;opacity:0.2;stroke:#ff0000;stroke-linejoin:miter;stroke-width:2;"/>
   </g>
   <g id="patch_40">
    <path clip-path="url(#pc9f3497333)" d="M 168.980886 158.047893 
C 169.847774 158.047893 170.679273 157.78548 171.292255 157.318449 
C 171.905237 156.851417 172.249655 156.217897 172.249655 155.557415 
C 172.249655 154.896933 171.905237 154.263413 171.292255 153.796381 
C 170.679273 153.32935 169.847774 153.066937 168.980886 153.066937 
C 168.113999 153.066937 167.2825 153.32935 166.669518 153.796381 
C 166.056536 154.263413 165.712117 154.896933 165.712117 155.557415 
C 165.712117 156.217897 166.056536 156.851417 166.669518 157.318449 
C 167.2825 157.78548 168.113999 158.047893 168.980886 158.047893 
z
" style="fill:#0000ff;opacity:0.2;stroke:#0000ff;stroke-linejoin:miter;stroke-width:2;"/>
   </g>
   <g id="patch_41">
    <path clip-path="url(#pc9f3497333)" d="M 242.528188 93.295469 
C 243.395075 93.295469 244.226574 93.033057 244.839556 92.566025 
C 245.452538 92.098994 245.796956 91.465474 245.796956 90.804991 
C 245.796956 90.144509 245.452538 89.510989 244.839556 89.043958 
C 244.226574 88.576926 243.395075 88.314514 242.528188 88.314514 
C 241.6613 88.314514 240.829801 88.576926 240.216819 89.043958 
C 239.603837 89.510989 239.259419 90.144509 239.259419 90.804991 
C 239.259419 91.465474 239.603837 92.098994 240.216819 92.566025 
C 240.829801 93.033057 241.6613 93.295469 242.528188 93.295469 
z
" style="fill:#0000ff;opacity:0.2;stroke:#0000ff;stroke-linejoin:miter;stroke-width:2;"/>
   </g>
   <g id="patch_42">
    <path clip-path="url(#pc9f3497333)" d="M 316.075489 158.047893 
C 316.942376 158.047893 317.773875 157.78548 318.386857 157.318449 
C 318.999839 156.851417 319.344258 156.217897 319.344258 155.557415 
C 319.344258 154.896933 318.999839 154.263413 318.386857 153.796381 
C 317.773875 153.32935 316.942376 153.066937 316.075489 153.066937 
C 315.208601 153.066937 314.377102 153.32935 313.76412 153.796381 
C 313.151138 154.263413 312.80672 154.896933 312.80672 155.557415 
C 312.80672 156.217897 313.151138 156.851417 313.76412 157.318449 
C 314.377102 157.78548 315.208601 158.047893 316.075489 158.047893 
z
" style="fill:#0000ff;opacity:0.2;stroke:#0000ff;stroke-linejoin:miter;stroke-width:2;"/>
   </g>
   <g id="patch_43">
    <path clip-path="url(#pc9f3497333)" d="M 242.528188 224.045555 
C 243.395075 224.045555 244.226574 223.783143 244.839556 223.316111 
C 245.452538 222.84908 245.796956 222.21556 245.796956 221.555078 
C 245.796956 220.894595 245.452538 220.261075 244.839556 219.794044 
C 244.226574 219.327012 243.395075 219.0646 242.528188 219.0646 
C 241.6613 219.0646 240.829801 219.327012 240.216819 219.794044 
C 239.603837 220.261075 239.259419 220.894595 239.259419 221.555078 
C 239.259419 222.21556 239.603837 222.84908 240.216819 223.316111 
C 240.829801 223.783143 241.6613 224.045555 242.528188 224.045555 
z
" style="fill:#0000ff;opacity:0.2;stroke:#0000ff;stroke-linejoin:miter;stroke-width:2;"/>
   </g>
   <g id="patch_44">
    <path clip-path="url(#pc9f3497333)" d="M 242.528188 234.630086 
C 191.862269 234.630086 164.077733 199.763397 164.077733 158.670512 
C 164.077733 117.577628 191.862269 82.710939 242.528188 80.220461 
C 293.194106 82.710939 320.978642 117.577628 320.978642 158.670512 
C 320.978642 199.763397 293.194106 234.630086 242.528188 234.630086 
" style="fill:none;stroke:#ff0000;stroke-linejoin:miter;stroke-width:0.5;"/>
   </g>
   <g id="patch_45">
    <path clip-path="url(#pc9f3497333)" d="M 168.980886 155.557415 
C 168.980886 118.200248 201.668576 90.804991 242.528188 90.804991 
C 285.022184 90.804991 316.075489 118.200248 316.075489 155.557415 
C 316.075489 194.159821 285.022184 221.555078 242.528188 221.555078 
C 201.668576 221.555078 168.980886 194.159821 168.980886 155.557415 
" style="fill:none;stroke:#0000ff;stroke-linejoin:miter;stroke-width:0.5;"/>
   </g>
   <g id="[&quot;g_s&quot;:1,&quot;g_t&quot;:4,&quot;coords&quot;:[[240.0, -203.0],[240.0, -192.5]],&quot;certainty&quot;:10]">
    <path clip-path="url(#pc9f3497333)" d="M 242.528188 241.4789 
C 244.912129 241.4789 247.19875 240.757266 248.884451 239.472929 
C 250.570152 238.188592 251.517302 236.446413 251.517302 234.630086 
C 251.517302 232.813759 250.570152 231.07158 248.884451 229.787243 
C 247.19875 228.502906 244.912129 227.781272 242.528188 227.781272 
C 240.144246 227.781272 237.857625 228.502906 236.171924 229.787243 
C 234.486223 231.07158 233.539073 232.813759 233.539073 234.630086 
C 233.539073 236.446413 234.486223 238.188592 236.171924 239.472929 
C 237.857625 240.757266 240.144246 241.4789 242.528188 241.4789 
z
" style="fill:#0000ff;opacity:0.2;stroke:#0000ff;stroke-linejoin:miter;stroke-width:2;"/>
   </g>
   <g id="[&quot;g_s&quot;:4,&quot;g_t&quot;:1,&quot;coords&quot;:[[240.0, -192.5],[240.0, -203.0]],&quot;certainty&quot;:10]">
    <path clip-path="url(#pc9f3497333)" d="M 242.528188 228.403892 
C 244.912129 228.403892 247.19875 227.682257 248.884451 226.39792 
C 250.570152 225.113583 251.517302 223.371404 251.517302 221.555078 
C 251.517302 219.738751 250.570152 217.996572 248.884451 216.712235 
C 247.19875 215.427898 244.912129 214.706263 242.528188 214.706263 
C 240.144246 214.706263 237.857625 215.427898 236.171924 216.712235 
C 234.486223 217.996572 233.539073 219.738751 233.539073 221.555078 
C 233.539073 223.371404 234.486223 225.113583 236.171924 226.39792 
C 237.857625 227.682257 240.144246 228.403892 242.528188 228.403892 
z
" style="fill:#ff0000;opacity:0.2;stroke:#ff0000;stroke-linejoin:miter;stroke-width:2;"/>
   </g>
   <g id="patch_46">
    <path d="M 242.528188 234.630086 
Q 242.528188 229.093318 242.528188 225.501093 
" style="fill:none;opacity:0.5;stroke:#0000ff;stroke-linecap:round;stroke-width:2.75;"/>
    <path d="M 241.028188 227.001093 
L 242.528188 225.501093 
L 244.028188 227.001093 
" style="fill:none;opacity:0.5;stroke:#0000ff;stroke-linecap:round;stroke-width:2.75;"/>
   </g>
   <g id="[&quot;g_s&quot;:2,&quot;g_t&quot;:1,&quot;coords&quot;:[[192.0, -142.0],[195.0, -139.5]],&quot;certainty&quot;:12]">
    <path clip-path="url(#pc9f3497333)" d="M 164.077733 166.764565 
C 166.895118 166.764565 169.597489 165.911725 171.589681 164.393872 
C 173.581873 162.876019 174.701232 160.81708 174.701232 158.670512 
C 174.701232 156.523944 173.581873 154.465005 171.589681 152.947153 
C 169.597489 151.4293 166.895118 150.576459 164.077733 150.576459 
C 161.260348 150.576459 158.557977 151.4293 156.565785 152.947153 
C 154.573593 154.465005 153.454234 156.523944 153.454234 158.670512 
C 153.454234 160.81708 154.573593 162.876019 156.565785 164.393872 
C 158.557977 165.911725 161.260348 166.764565 164.077733 166.764565 
z
" style="fill:#0000ff;opacity:0.2;stroke:#0000ff;stroke-linejoin:miter;stroke-width:2;"/>
   </g>
   <g id="[&quot;g_s&quot;:1,&quot;g_t&quot;:2,&quot;coords&quot;:[[195.0, -139.5],[192.0, -142.0]],&quot;certainty&quot;:12]">
    <path clip-path="url(#pc9f3497333)" d="M 168.980886 163.651468 
C 171.798271 163.651468 174.500643 162.798628 176.492835 161.280775 
C 178.485027 159.762922 179.604385 157.703983 179.604385 155.557415 
C 179.604385 153.410847 178.485027 151.351908 176.492835 149.834055 
C 174.500643 148.316203 171.798271 147.463362 168.980886 147.463362 
C 166.163501 147.463362 163.46113 148.316203 161.468938 149.834055 
C 159.476746 151.351908 158.357387 153.410847 158.357387 155.557415 
C 158.357387 157.703983 159.476746 159.762922 161.468938 161.280775 
C 163.46113 162.798628 166.163501 163.651468 168.980886 163.651468 
z
" style="fill:#ff0000;opacity:0.2;stroke:#ff0000;stroke-linejoin:miter;stroke-width:2;"/>
   </g>
   <g id="patch_47">
    <path d="M 164.077733 158.670512 
Q 165.685383 157.649787 165.352947 157.860857 
" style="fill:none;opacity:0.5;stroke:#0000ff;stroke-linecap:round;stroke-width:3.25;"/>
    <path d="M 163.282617 157.398545 
L 165.352947 157.860857 
L 164.890636 159.931187 
" style="fill:none;opacity:0.5;stroke:#0000ff;stroke-linecap:round;stroke-width:3.25;"/>
   </g>
   <g id="[&quot;g_s&quot;:3,&quot;g_t&quot;:2,&quot;coords&quot;:[[240.0, -79.0],[240.0, -87.5]],&quot;certainty&quot;:11]">
    <path clip-path="url(#pc9f3497333)" d="M 242.528188 87.691894 
C 245.12885 87.691894 247.623347 86.904657 249.462294 85.503562 
C 251.30124 84.102467 252.334494 82.201908 252.334494 80.220461 
C 252.334494 78.239013 251.30124 76.338454 249.462294 74.937359 
C 247.623347 73.536265 245.12885 72.749027 242.528188 72.749027 
C 239.927525 72.749027 237.433028 73.536265 235.594081 74.937359 
C 233.755135 76.338454 232.721881 78.239013 232.721881 80.220461 
C 232.721881 82.201908 233.755135 84.102467 235.594081 85.503562 
C 237.433028 86.904657 239.927525 87.691894 242.528188 87.691894 
z
" style="fill:#0000ff;opacity:0.2;stroke:#0000ff;stroke-linejoin:miter;stroke-width:2;"/>
   </g>
   <g id="[&quot;g_s&quot;:2,&quot;g_t&quot;:3,&quot;coords&quot;:[[240.0, -87.5],[240.0, -79.0]],&quot;certainty&quot;:11]">
    <path clip-path="url(#pc9f3497333)" d="M 242.528188 98.276425 
C 245.12885 98.276425 247.623347 97.489188 249.462294 96.088093 
C 251.30124 94.686998 252.334494 92.786439 252.334494 90.804991 
C 252.334494 88.823544 251.30124 86.922985 249.462294 85.52189 
C 247.623347 84.120795 245.12885 83.333558 242.528188 83.333558 
C 239.927525 83.333558 237.433028 84.120795 235.594081 85.52189 
C 233.755135 86.922985 232.721881 88.823544 232.721881 90.804991 
C 232.721881 92.786439 233.755135 94.686998 235.594081 96.088093 
C 237.433028 97.489188 239.927525 98.276425 242.528188 98.276425 
z
" style="fill:#ff0000;opacity:0.2;stroke:#ff0000;stroke-linejoin:miter;stroke-width:2;"/>
   </g>
   <g id="patch_48">
    <path d="M 242.528188 80.220461 
Q 242.528188 84.513966 242.528188 86.686151 
" style="fill:none;opacity:0.5;stroke:#0000ff;stroke-linecap:round;stroke-width:3;"/>
    <path d="M 244.028188 85.186151 
L 242.528188 86.686151 
L 241.028188 85.186151 
" style="fill:none;opacity:0.5;stroke:#0000ff;stroke-linecap:round;stroke-width:3;"/>
   </g>
   <g id="[&quot;g_s&quot;:4,&quot;g_t&quot;:3,&quot;coords&quot;:[[288.0, -142.0],[285.0, -139.5]],&quot;certainty&quot;:11]">
    <path clip-path="url(#pc9f3497333)" d="M 320.978642 166.141946 
C 323.579305 166.141946 326.073802 165.354708 327.912748 163.953614 
C 329.751695 162.552519 330.784949 160.65196 330.784949 158.670512 
C 330.784949 156.689065 329.751695 154.788506 327.912748 153.387411 
C 326.073802 151.986316 323.579305 151.199079 320.978642 151.199079 
C 318.377979 151.199079 315.883482 151.986316 314.044536 153.387411 
C 312.20559 154.788506 311.172335 156.689065 311.172335 158.670512 
C 311.172335 160.65196 312.20559 162.552519 314.044536 163.953614 
C 315.883482 165.354708 318.377979 166.141946 320.978642 166.141946 
z
" style="fill:#0000ff;opacity:0.2;stroke:#0000ff;stroke-linejoin:miter;stroke-width:2;"/>
   </g>
   <g id="[&quot;g_s&quot;:3,&quot;g_t&quot;:4,&quot;coords&quot;:[[285.0, -139.5],[288.0, -142.0]],&quot;certainty&quot;:11]">
    <path clip-path="url(#pc9f3497333)" d="M 316.075489 163.028849 
C 318.676152 163.028849 321.170648 162.241611 323.009595 160.840516 
C 324.848541 159.439421 325.881795 157.538862 325.881795 155.557415 
C 325.881795 153.575968 324.848541 151.675409 323.009595 150.274314 
C 321.170648 148.873219 318.676152 148.085982 316.075489 148.085982 
C 313.474826 148.085982 310.980329 148.873219 309.141383 150.274314 
C 307.302436 151.675409 306.269182 153.575968 306.269182 155.557415 
C 306.269182 157.538862 307.302436 159.439421 309.141383 160.840516 
C 310.980329 162.241611 313.474826 163.028849 316.075489 163.028849 
z
" style="fill:#ff0000;opacity:0.2;stroke:#ff0000;stroke-linejoin:miter;stroke-width:2;"/>
   </g>
   <g id="patch_49">
    <path d="M 320.978642 158.670512 
Q 319.370992 157.649787 319.55419 157.766103 
" style="fill:none;opacity:0.5;stroke:#0000ff;stroke-linecap:round;stroke-width:3;"/>
    <path d="M 320.016502 159.836433 
L 319.55419 157.766103 
L 321.624521 157.303791 
" style="fill:none;opacity:0.5;stroke:#0000ff;stroke-linecap:round;stroke-width:3;"/>
   </g>
   <g id="[&quot;g_s&quot;:1,&quot;g_t&quot;:2,&quot;coords&quot;:[[195.0, -139.5],[192.0, -142.0]],&quot;certainty&quot;:11]">
    <path clip-path="url(#pc9f3497333)" d="M 168.980886 163.028849 
C 171.581549 163.028849 174.076046 162.241611 175.914992 160.840516 
C 177.753939 159.439421 178.787193 157.538862 178.787193 155.557415 
C 178.787193 153.575968 177.753939 151.675409 175.914992 150.274314 
C 174.076046 148.873219 171.581549 148.085982 168.980886 148.085982 
C 166.380223 148.085982 163.885727 148.873219 162.04678 150.274314 
C 160.207834 151.675409 159.17458 153.575968 159.17458 155.557415 
C 159.17458 157.538862 160.207834 159.439421 162.04678 160.840516 
C 163.885727 162.241611 166.380223 163.028849 168.980886 163.028849 
z
" style="fill:#0000ff;opacity:0.2;stroke:#0000ff;stroke-linejoin:miter;stroke-width:2;"/>
   </g>
   <g id="[&quot;g_s&quot;:2,&quot;g_t&quot;:1,&quot;coords&quot;:[[192.0, -142.0],[195.0, -139.5]],&quot;certainty&quot;:11]">
    <path clip-path="url(#pc9f3497333)" d="M 164.077733 166.141946 
C 166.678396 166.141946 169.172893 165.354708 171.011839 163.953614 
C 172.850785 162.552519 173.88404 160.65196 173.88404 158.670512 
C 173.88404 156.689065 172.850785 154.788506 171.011839 153.387411 
C 169.172893 151.986316 166.678396 151.199079 164.077733 151.199079 
C 161.47707 151.199079 158.982573 151.986316 157.143627 153.387411 
C 155.30468 154.788506 154.271426 156.689065 154.271426 158.670512 
C 154.271426 160.65196 155.30468 162.552519 157.143627 163.953614 
C 158.982573 165.354708 161.47707 166.141946 164.077733 166.141946 
z
" style="fill:#ff0000;opacity:0.2;stroke:#ff0000;stroke-linejoin:miter;stroke-width:2;"/>
   </g>
   <g id="patch_50">
    <path d="M 168.980886 155.557415 
Q 167.373236 156.57814 167.556435 156.461824 
" style="fill:none;opacity:0.5;stroke:#ff0000;stroke-linecap:round;stroke-width:3;"/>
    <path d="M 169.626765 156.924136 
L 167.556435 156.461824 
L 168.018746 154.391494 
" style="fill:none;opacity:0.5;stroke:#ff0000;stroke-linecap:round;stroke-width:3;"/>
   </g>
   <g id="[&quot;g_s&quot;:2,&quot;g_t&quot;:3,&quot;coords&quot;:[[240.0, -87.5],[240.0, -79.0]],&quot;certainty&quot;:10]">
    <path clip-path="url(#pc9f3497333)" d="M 242.528188 97.653806 
C 244.912129 97.653806 247.19875 96.932171 248.884451 95.647834 
C 250.570152 94.363497 251.517302 92.621318 251.517302 90.804991 
C 251.517302 88.988665 250.570152 87.246486 248.884451 85.962149 
C 247.19875 84.677812 244.912129 83.956177 242.528188 83.956177 
C 240.144246 83.956177 237.857625 84.677812 236.171924 85.962149 
C 234.486223 87.246486 233.539073 88.988665 233.539073 90.804991 
C 233.539073 92.621318 234.486223 94.363497 236.171924 95.647834 
C 237.857625 96.932171 240.144246 97.653806 242.528188 97.653806 
z
" style="fill:#0000ff;opacity:0.2;stroke:#0000ff;stroke-linejoin:miter;stroke-width:2;"/>
   </g>
   <g id="[&quot;g_s&quot;:3,&quot;g_t&quot;:2,&quot;coords&quot;:[[240.0, -79.0],[240.0, -87.5]],&quot;certainty&quot;:10]">
    <path clip-path="url(#pc9f3497333)" d="M 242.528188 87.069275 
C 244.912129 87.069275 247.19875 86.34764 248.884451 85.063304 
C 250.570152 83.778967 251.517302 82.036787 251.517302 80.220461 
C 251.517302 78.404134 250.570152 76.661955 248.884451 75.377618 
C 247.19875 74.093281 244.912129 73.371647 242.528188 73.371647 
C 240.144246 73.371647 237.857625 74.093281 236.171924 75.377618 
C 234.486223 76.661955 233.539073 78.404134 233.539073 80.220461 
C 233.539073 82.036787 234.486223 83.778967 236.171924 85.063304 
C 237.857625 86.34764 240.144246 87.069275 242.528188 87.069275 
z
" style="fill:#ff0000;opacity:0.2;stroke:#ff0000;stroke-linejoin:miter;stroke-width:2;"/>
   </g>
   <g id="patch_51">
    <path d="M 242.528188 90.804991 
Q 242.528188 86.511486 242.528188 84.162524 
" style="fill:none;opacity:0.5;stroke:#ff0000;stroke-linecap:round;stroke-width:2.75;"/>
    <path d="M 241.028188 85.662524 
L 242.528188 84.162524 
L 244.028188 85.662524 
" style="fill:none;opacity:0.5;stroke:#ff0000;stroke-linecap:round;stroke-width:2.75;"/>
   </g>
   <g id="[&quot;g_s&quot;:3,&quot;g_t&quot;:4,&quot;coords&quot;:[[285.0, -139.5],[288.0, -142.0]],&quot;certainty&quot;:12]">
    <path clip-path="url(#pc9f3497333)" d="M 316.075489 163.651468 
C 318.892874 163.651468 321.595245 162.798628 323.587437 161.280775 
C 325.579629 159.762922 326.698988 157.703983 326.698988 155.557415 
C 326.698988 153.410847 325.579629 151.351908 323.587437 149.834055 
C 321.595245 148.316203 318.892874 147.463362 316.075489 147.463362 
C 313.258104 147.463362 310.555732 148.316203 308.56354 149.834055 
C 306.571348 151.351908 305.45199 153.410847 305.45199 155.557415 
C 305.45199 157.703983 306.571348 159.762922 308.56354 161.280775 
C 310.555732 162.798628 313.258104 163.651468 316.075489 163.651468 
z
" style="fill:#0000ff;opacity:0.2;stroke:#0000ff;stroke-linejoin:miter;stroke-width:2;"/>
   </g>
   <g id="[&quot;g_s&quot;:4,&quot;g_t&quot;:3,&quot;coords&quot;:[[288.0, -142.0],[285.0, -139.5]],&quot;certainty&quot;:12]">
    <path clip-path="url(#pc9f3497333)" d="M 320.978642 166.764565 
C 323.796027 166.764565 326.498398 165.911725 328.49059 164.393872 
C 330.482782 162.876019 331.602141 160.81708 331.602141 158.670512 
C 331.602141 156.523944 330.482782 154.465005 328.49059 152.947153 
C 326.498398 151.4293 323.796027 150.576459 320.978642 150.576459 
C 318.161257 150.576459 315.458886 151.4293 313.466694 152.947153 
C 311.474502 154.465005 310.355143 156.523944 310.355143 158.670512 
C 310.355143 160.81708 311.474502 162.876019 313.466694 164.393872 
C 315.458886 165.911725 318.161257 166.764565 320.978642 166.764565 
z
" style="fill:#ff0000;opacity:0.2;stroke:#ff0000;stroke-linejoin:miter;stroke-width:2;"/>
   </g>
   <g id="patch_52">
    <path d="M 316.075489 155.557415 
Q 317.683139 156.57814 317.350703 156.367071 
" style="fill:none;opacity:0.5;stroke:#ff0000;stroke-linecap:round;stroke-width:3.25;"/>
    <path d="M 316.888391 154.296741 
L 317.350703 156.367071 
L 315.280373 156.829383 
" style="fill:none;opacity:0.5;stroke:#ff0000;stroke-linecap:round;stroke-width:3.25;"/>
   </g>
   <g id="[&quot;g_s&quot;:4,&quot;g_t&quot;:1,&quot;coords&quot;:[[240.0, -192.5],[240.0, -203.0]],&quot;certainty&quot;:11]">
    <path clip-path="url(#pc9f3497333)" d="M 242.528188 229.026511 
C 245.12885 229.026511 247.623347 228.239274 249.462294 226.838179 
C 251.30124 225.437084 252.334494 223.536525 252.334494 221.555078 
C 252.334494 219.57363 251.30124 217.673071 249.462294 216.271976 
C 247.623347 214.870881 245.12885 214.083644 242.528188 214.083644 
C 239.927525 214.083644 237.433028 214.870881 235.594081 216.271976 
C 233.755135 217.673071 232.721881 219.57363 232.721881 221.555078 
C 232.721881 223.536525 233.755135 225.437084 235.594081 226.838179 
C 237.433028 228.239274 239.927525 229.026511 242.528188 229.026511 
z
" style="fill:#0000ff;opacity:0.2;stroke:#0000ff;stroke-linejoin:miter;stroke-width:2;"/>
   </g>
   <g id="[&quot;g_s&quot;:1,&quot;g_t&quot;:4,&quot;coords&quot;:[[240.0, -203.0],[240.0, -192.5]],&quot;certainty&quot;:11]">
    <path clip-path="url(#pc9f3497333)" d="M 242.528188 242.10152 
C 245.12885 242.10152 247.623347 241.314282 249.462294 239.913187 
C 251.30124 238.512093 252.334494 236.611533 252.334494 234.630086 
C 252.334494 232.648639 251.30124 230.74808 249.462294 229.346985 
C 247.623347 227.94589 245.12885 227.158653 242.528188 227.158653 
C 239.927525 227.158653 237.433028 227.94589 235.594081 229.346985 
C 233.755135 230.74808 232.721881 232.648639 232.721881 234.630086 
C 232.721881 236.611533 233.755135 238.512093 235.594081 239.913187 
C 237.433028 241.314282 239.927525 242.10152 242.528188 242.10152 
z
" style="fill:#ff0000;opacity:0.2;stroke:#ff0000;stroke-linejoin:miter;stroke-width:2;"/>
   </g>
   <g id="patch_53">
    <path d="M 242.528188 221.555078 
Q 242.528188 227.091846 242.528188 230.507294 
" style="fill:none;opacity:0.5;stroke:#ff0000;stroke-linecap:round;stroke-width:3;"/>
    <path d="M 244.028188 229.007294 
L 242.528188 230.507294 
L 241.028188 229.007294 
" style="fill:none;opacity:0.5;stroke:#ff0000;stroke-linecap:round;stroke-width:3;"/>
   </g>
   <g id="patch_54">
    <path clip-path="url(#pc9f3497333)" d="M 242.528188 234.318776 
C 244.695407 234.318776 246.774154 233.662745 248.306609 232.495166 
C 249.839065 231.327587 250.70011 229.743788 250.70011 228.092582 
C 250.70011 226.441376 249.839065 224.857576 248.306609 223.689997 
C 246.774154 222.522418 244.695407 221.866387 242.528188 221.866387 
C 240.360968 221.866387 238.282221 222.522418 236.749766 223.689997 
C 235.21731 224.857576 234.356265 226.441376 234.356265 228.092582 
C 234.356265 229.743788 235.21731 231.327587 236.749766 232.495166 
C 238.282221 233.662745 240.360968 234.318776 242.528188 234.318776 
z
" style="fill:#008000;opacity:0.2;stroke:#008000;stroke-linejoin:miter;stroke-width:2;"/>
   </g>
   <g id="patch_55">
    <path clip-path="url(#pc9f3497333)" d="M 166.52931 163.340158 
C 168.696529 163.340158 170.775276 162.684127 172.307731 161.516548 
C 173.840187 160.348969 174.701232 158.76517 174.701232 157.113964 
C 174.701232 155.462758 173.840187 153.878958 172.307731 152.711379 
C 170.775276 151.5438 168.696529 150.887769 166.52931 150.887769 
C 164.362091 150.887769 162.283343 151.5438 160.750888 152.711379 
C 159.218433 153.878958 158.357387 155.462758 158.357387 157.113964 
C 158.357387 158.76517 159.218433 160.348969 160.750888 161.516548 
C 162.283343 162.684127 164.362091 163.340158 166.52931 163.340158 
z
" style="fill:#008000;opacity:0.2;stroke:#008000;stroke-linejoin:miter;stroke-width:2;"/>
   </g>
   <g id="patch_56">
    <path clip-path="url(#pc9f3497333)" d="M 242.528188 91.738921 
C 244.695407 91.738921 246.774154 91.08289 248.306609 89.91531 
C 249.839065 88.747731 250.70011 87.163932 250.70011 85.512726 
C 250.70011 83.86152 249.839065 82.277721 248.306609 81.110142 
C 246.774154 79.942563 244.695407 79.286532 242.528188 79.286532 
C 240.360968 79.286532 238.282221 79.942563 236.749766 81.110142 
C 235.21731 82.277721 234.356265 83.86152 234.356265 85.512726 
C 234.356265 87.163932 235.21731 88.747731 236.749766 89.91531 
C 238.282221 91.08289 240.360968 91.738921 242.528188 91.738921 
z
" style="fill:#008000;opacity:0.2;stroke:#008000;stroke-linejoin:miter;stroke-width:2;"/>
   </g>
   <g id="patch_57">
    <path clip-path="url(#pc9f3497333)" d="M 318.527065 163.340158 
C 320.694284 163.340158 322.773032 162.684127 324.305487 161.516548 
C 325.837942 160.348969 326.698988 158.76517 326.698988 157.113964 
C 326.698988 155.462758 325.837942 153.878958 324.305487 152.711379 
C 322.773032 151.5438 320.694284 150.887769 318.527065 150.887769 
C 316.359846 150.887769 314.281099 151.5438 312.748644 152.711379 
C 311.216188 153.878958 310.355143 155.462758 310.355143 157.113964 
C 310.355143 158.76517 311.216188 160.348969 312.748644 161.516548 
C 314.281099 162.684127 316.359846 163.340158 318.527065 163.340158 
z
" style="fill:#008000;opacity:0.2;stroke:#008000;stroke-linejoin:miter;stroke-width:2;"/>
   </g>
   <g id="patch_58">
    <path clip-path="url(#pc9f3497333)" d="M 242.528188 259.534864 
C 251.197064 259.534864 259.512053 256.91074 265.641874 252.240424 
C 271.771696 247.570108 275.215877 241.234911 275.215877 234.630086 
C 275.215877 228.025262 271.771696 221.690065 265.641874 217.019749 
C 259.512053 212.349432 251.197064 209.725308 242.528188 209.725308 
C 233.859311 209.725308 225.544322 212.349432 219.414501 217.019749 
C 213.284679 221.690065 209.840498 228.025262 209.840498 234.630086 
C 209.840498 241.234911 213.284679 247.570108 219.414501 252.240424 
C 225.544322 256.91074 233.859311 259.534864 242.528188 259.534864 
z
" style="fill:none;opacity:0.2;stroke:#ff0000;stroke-linejoin:miter;stroke-width:2;"/>
   </g>
   <g id="patch_59">
    <path clip-path="url(#pc9f3497333)" d="M 168.980886 180.462193 
C 177.649763 180.462193 185.964752 177.838069 192.094573 173.167753 
C 198.224395 168.497437 201.668576 162.162239 201.668576 155.557415 
C 201.668576 148.952591 198.224395 142.617394 192.094573 137.947077 
C 185.964752 133.276761 177.649763 130.652637 168.980886 130.652637 
C 160.31201 130.652637 151.997021 133.276761 145.8672 137.947077 
C 139.737378 142.617394 136.293197 148.952591 136.293197 155.557415 
C 136.293197 162.162239 139.737378 168.497437 145.8672 173.167753 
C 151.997021 177.838069 160.31201 180.462193 168.980886 180.462193 
z
" style="fill:none;opacity:0.2;stroke:#0000ff;stroke-linejoin:miter;stroke-width:2;"/>
   </g>
   <g id="patch_60">
    <path clip-path="url(#pc9f3497333)" d="M 242.528188 247.082475 
C 246.862626 247.082475 251.02012 245.770413 254.085031 243.435255 
C 257.149942 241.100097 258.872032 237.932498 258.872032 234.630086 
C 258.872032 231.327674 257.149942 228.160075 254.085031 225.824917 
C 251.02012 223.489759 246.862626 222.177697 242.528188 222.177697 
C 238.193749 222.177697 234.036255 223.489759 230.971344 225.824917 
C 227.906433 228.160075 226.184343 231.327674 226.184343 234.630086 
C 226.184343 237.932498 227.906433 241.100097 230.971344 243.435255 
C 234.036255 245.770413 238.193749 247.082475 242.528188 247.082475 
z
" style="fill:none;opacity:0.2;stroke:#008000;stroke-linejoin:miter;stroke-width:2;"/>
   </g>
   <g id="patch_61">
    <path clip-path="url(#pc9f3497333)" d="M 242.528188 234.007467 
C 246.862626 234.007467 251.02012 232.695404 254.085031 230.360246 
C 257.149942 228.025088 258.872032 224.85749 258.872032 221.555078 
C 258.872032 218.252665 257.149942 215.085067 254.085031 212.749909 
C 251.02012 210.414751 246.862626 209.102688 242.528188 209.102688 
C 238.193749 209.102688 234.036255 210.414751 230.971344 212.749909 
C 227.906433 215.085067 226.184343 218.252665 226.184343 221.555078 
C 226.184343 224.85749 227.906433 228.025088 230.971344 230.360246 
C 234.036255 232.695404 238.193749 234.007467 242.528188 234.007467 
z
" style="fill:none;opacity:0.2;stroke:#008000;stroke-linejoin:miter;stroke-width:2;"/>
   </g>
   <g id="patch_62">
    <path d="M 242.528188 228.092582 
Q 204.528749 192.603273 166.52931 157.113964 
" style="fill:none;opacity:0.5;stroke:#008000;stroke-linecap:round;stroke-width:2;"/>
   </g>
   <g id="patch_63">
    <path d="M 242.528188 233.215873 
Q 242.528188 229.093318 242.528188 224.970763 
" style="fill:none;opacity:0.5;stroke:#800080;stroke-linecap:round;stroke-width:2;"/>
    <path d="M 244.028188 231.715873 
L 242.528188 233.215873 
L 241.028188 231.715873 
" style="fill:none;opacity:0.5;stroke:#800080;stroke-linecap:round;stroke-width:2;"/>
    <path d="M 241.028188 226.470763 
L 242.528188 224.970763 
L 244.028188 226.470763 
" style="fill:none;opacity:0.5;stroke:#800080;stroke-linecap:round;stroke-width:2;"/>
   </g>
   <g id="patch_64">
    <path d="M 166.52931 157.113964 
Q 204.528749 121.313345 242.528188 85.512726 
" style="fill:none;opacity:0.5;stroke:#008000;stroke-linecap:round;stroke-width:2;"/>
   </g>
   <g id="patch_65">
    <path d="M 165.271632 157.912485 
Q 165.685383 157.649787 166.099134 157.387089 
" style="fill:none;opacity:0.5;stroke:#800080;stroke-linecap:round;stroke-width:2;"/>
    <path d="M 167.341962 158.374797 
L 165.271632 157.912485 
L 165.733944 155.842155 
" style="fill:none;opacity:0.5;stroke:#800080;stroke-linecap:round;stroke-width:2;"/>
    <path d="M 164.028804 156.924778 
L 166.099134 157.387089 
L 165.636822 159.45742 
" style="fill:none;opacity:0.5;stroke:#800080;stroke-linecap:round;stroke-width:2;"/>
   </g>
   <g id="patch_66">
    <path d="M 242.528188 85.512726 
Q 280.527626 121.313345 318.527065 157.113964 
" style="fill:none;opacity:0.5;stroke:#008000;stroke-linecap:round;stroke-width:2;"/>
   </g>
   <g id="patch_67">
    <path d="M 242.528188 81.634674 
Q 242.528188 84.513966 242.528188 87.393258 
" style="fill:none;opacity:0.5;stroke:#800080;stroke-linecap:round;stroke-width:2;"/>
    <path d="M 241.028188 83.134674 
L 242.528188 81.634674 
L 244.028188 83.134674 
" style="fill:none;opacity:0.5;stroke:#800080;stroke-linecap:round;stroke-width:2;"/>
    <path d="M 244.028188 85.893258 
L 242.528188 87.393258 
L 241.028188 85.893258 
" style="fill:none;opacity:0.5;stroke:#800080;stroke-linecap:round;stroke-width:2;"/>
   </g>
   <g id="patch_68">
    <path d="M 318.527065 157.113964 
Q 280.527626 192.603273 242.528188 228.092582 
" style="fill:none;opacity:0.5;stroke:#008000;stroke-linecap:round;stroke-width:2;"/>
   </g>
   <g id="patch_69">
    <path d="M 319.784743 157.912485 
Q 319.370992 157.649787 318.957241 157.387089 
" style="fill:none;opacity:0.5;stroke:#800080;stroke-linecap:round;stroke-width:2;"/>
    <path d="M 319.322431 155.842155 
L 319.784743 157.912485 
L 317.714413 158.374797 
" style="fill:none;opacity:0.5;stroke:#800080;stroke-linecap:round;stroke-width:2;"/>
    <path d="M 319.419553 159.45742 
L 318.957241 157.387089 
L 321.027571 156.924778 
" style="fill:none;opacity:0.5;stroke:#800080;stroke-linecap:round;stroke-width:2;"/>
   </g>
   <g id="line2d_1">
    <path clip-path="url(#pc9f3497333)" d="M 242.528188 281.949165 
L 66.014665 158.670512 
L 242.528188 36.637099 
L 419.04171 158.670512 
" style="fill:none;stroke:#ff0000;stroke-linecap:square;stroke-width:0.2;"/>
   </g>
   <g id="line2d_2">
    <path clip-path="url(#pc9f3497333)" d="M 242.528188 52.202585 
L 381.450867 153.066937 
L 242.528188 253.931289 
L 103.605508 153.066937 
" style="fill:none;stroke:#0000ff;stroke-linecap:square;stroke-width:0.2;"/>
   </g>
   <g id="line2d_3">
    <path clip-path="url(#pc9f3497333)" d="M 242.528188 234.630086 
L 164.077733 158.670512 
L 242.528188 80.220461 
L 320.978642 158.670512 
" style="fill:none;stroke:#ff0000;stroke-linecap:square;stroke-width:0.2;"/>
   </g>
   <g id="line2d_4">
    <path clip-path="url(#pc9f3497333)" d="M 168.980886 155.557415 
L 242.528188 90.804991 
L 316.075489 155.557415 
L 242.528188 221.555078 
" style="fill:none;stroke:#0000ff;stroke-linecap:square;stroke-width:0.2;"/>
   </g>
  </g>
 </g>
 <defs>
  <clipPath id="pc9f3497333">
   <rect height="307.51175" width="409.903625" x="37.576375" y="13.32"/>
  </clipPath>
 </defs>
</svg>
