<?xml version="1.0" encoding="utf-8" standalone="no"?>
<!DOCTYPE svg PUBLIC "-//W3C//DTD SVG 1.1//EN"
  "http://www.w3.org/Graphics/SVG/1.1/DTD/svg11.dtd">
<!-- Created with matplotlib (http://matplotlib.org/) -->
<svg height="345.6pt" version="1.1" viewBox="0 0 460.8 345.6" width="460.8pt" xmlns="http://www.w3.org/2000/svg" xmlns:xlink="http://www.w3.org/1999/xlink">
 <defs>
  <style type="text/css">
*{stroke-linecap:butt;stroke-linejoin:round;}
  </style>
 </defs>
 <g id="figure_1">
  <g id="patch_1">
   <path d="M 0 345.6 
L 460.8 345.6 
L 460.8 0 
L 0 0 
z
" style="fill:#ffffff;"/>
  </g>
  <g id="axes_1">
   <g id="patch_2">
    <path clip-path="url(#p4b8ef47ae3)" d="M 212.803238 153.917371 
C 213.804762 153.917371 214.765401 153.812733 215.473585 153.626501 
C 216.181769 153.440269 216.579679 153.187648 216.579679 152.924277 
C 216.579679 152.660905 216.181769 152.408285 215.473585 152.222053 
C 214.765401 152.035821 213.804762 151.931182 212.803238 151.931182 
C 211.801714 151.931182 210.841075 152.035821 210.132891 152.222053 
C 209.424707 152.408285 209.026797 152.660905 209.026797 152.924277 
C 209.026797 153.187648 209.424707 153.440269 210.132891 153.626501 
C 210.841075 153.812733 211.801714 153.917371 212.803238 153.917371 
z
" style="fill:#ff0000;opacity:0.2;stroke:#ff0000;stroke-linejoin:miter;stroke-width:2;"/>
   </g>
   <g id="patch_3">
    <path clip-path="url(#p4b8ef47ae3)" d="M 407.28995 217.971974 
C 408.291474 217.971974 409.252113 217.867336 409.960297 217.681104 
C 410.668482 217.494872 411.066391 217.242252 411.066391 216.97888 
C 411.066391 216.715508 410.668482 216.462888 409.960297 216.276656 
C 409.252113 216.090424 408.291474 215.985785 407.28995 215.985785 
C 406.288426 215.985785 405.327788 216.090424 404.619603 216.276656 
C 403.911419 216.462888 403.513509 216.715508 403.513509 216.97888 
C 403.513509 217.242252 403.911419 217.494872 404.619603 217.681104 
C 405.327788 217.867336 406.288426 217.971974 407.28995 217.971974 
z
" style="fill:#ff0000;opacity:0.2;stroke:#ff0000;stroke-linejoin:miter;stroke-width:2;"/>
   </g>
   <g id="patch_4">
    <path clip-path="url(#p4b8ef47ae3)" d="M 97.621787 304.867754 
C 98.623311 304.867754 99.58395 304.763115 100.292134 304.576883 
C 101.000318 304.390651 101.398228 304.138031 101.398228 303.874659 
C 101.398228 303.611288 101.000318 303.358667 100.292134 303.172435 
C 99.58395 302.986203 98.623311 302.881565 97.621787 302.881565 
C 96.620263 302.881565 95.659624 302.986203 94.95144 303.172435 
C 94.243256 303.358667 93.845346 303.611288 93.845346 303.874659 
C 93.845346 304.138031 94.243256 304.390651 94.95144 304.576883 
C 95.659624 304.763115 96.620263 304.867754 97.621787 304.867754 
z
" style="fill:#ff0000;opacity:0.2;stroke:#ff0000;stroke-linejoin:miter;stroke-width:2;"/>
   </g>
   <g id="patch_5">
    <path clip-path="url(#p4b8ef47ae3)" d="M 76.851362 288.97824 
C 77.852885 288.97824 78.813524 288.873601 79.521709 288.687369 
C 80.229893 288.501137 80.627803 288.248517 80.627803 287.985145 
C 80.627803 287.721774 80.229893 287.469153 79.521709 287.282921 
C 78.813524 287.096689 77.852885 286.992051 76.851362 286.992051 
C 75.849838 286.992051 74.889199 287.096689 74.181014 287.282921 
C 73.47283 287.469153 73.074921 287.721774 73.074921 287.985145 
C 73.074921 288.248517 73.47283 288.501137 74.181014 288.687369 
C 74.889199 288.873601 75.849838 288.97824 76.851362 288.97824 
z
" style="fill:#ff0000;opacity:0.2;stroke:#ff0000;stroke-linejoin:miter;stroke-width:2;"/>
   </g>
   <g id="patch_6">
    <path clip-path="url(#p4b8ef47ae3)" d="M 244.902987 240.813151 
C 245.904511 240.813151 246.865149 240.708512 247.573334 240.52228 
C 248.281518 240.336048 248.679428 240.083428 248.679428 239.820056 
C 248.679428 239.556684 248.281518 239.304064 247.573334 239.117832 
C 246.865149 238.9316 245.904511 238.826962 244.902987 238.826962 
C 243.901463 238.826962 242.940824 238.9316 242.23264 239.117832 
C 241.524455 239.304064 241.126546 239.556684 241.126546 239.820056 
C 241.126546 240.083428 241.524455 240.336048 242.23264 240.52228 
C 242.940824 240.708512 243.901463 240.813151 244.902987 240.813151 
z
" style="fill:#ff0000;opacity:0.2;stroke:#ff0000;stroke-linejoin:miter;stroke-width:2;"/>
   </g>
   <g id="patch_7">
    <path clip-path="url(#p4b8ef47ae3)" d="M 135.386197 208.537576 
C 136.387721 208.537576 137.34836 208.432937 138.056544 208.246705 
C 138.764729 208.060473 139.162638 207.807853 139.162638 207.544481 
C 139.162638 207.281109 138.764729 207.028489 138.056544 206.842257 
C 137.34836 206.656025 136.387721 206.551386 135.386197 206.551386 
C 134.384673 206.551386 133.424035 206.656025 132.71585 206.842257 
C 132.007666 207.028489 131.609756 207.281109 131.609756 207.544481 
C 131.609756 207.807853 132.007666 208.060473 132.71585 208.246705 
C 133.424035 208.432937 134.384673 208.537576 135.386197 208.537576 
z
" style="fill:#ff0000;opacity:0.2;stroke:#ff0000;stroke-linejoin:miter;stroke-width:2;"/>
   </g>
   <g id="patch_8">
    <path clip-path="url(#p4b8ef47ae3)" d="M 76.851362 186.192946 
C 77.852885 186.192946 78.813524 186.088308 79.521709 185.902076 
C 80.229893 185.715844 80.627803 185.463224 80.627803 185.199852 
C 80.627803 184.93648 80.229893 184.68386 79.521709 184.497628 
C 78.813524 184.311396 77.852885 184.206757 76.851362 184.206757 
C 75.849838 184.206757 74.889199 184.311396 74.181014 184.497628 
C 73.47283 184.68386 73.074921 184.93648 73.074921 185.199852 
C 73.074921 185.463224 73.47283 185.715844 74.181014 185.902076 
C 74.889199 186.088308 75.849838 186.192946 76.851362 186.192946 
z
" style="fill:#ff0000;opacity:0.2;stroke:#ff0000;stroke-linejoin:miter;stroke-width:2;"/>
   </g>
   <g id="patch_9">
    <path clip-path="url(#p4b8ef47ae3)" d="M 221.30023 184.455031 
C 222.301754 184.455031 223.262393 184.350392 223.970577 184.16416 
C 224.678762 183.977928 225.076671 183.725308 225.076671 183.461936 
C 225.076671 183.198565 224.678762 182.945944 223.970577 182.759712 
C 223.262393 182.57348 222.301754 182.468842 221.30023 182.468842 
C 220.298706 182.468842 219.338068 182.57348 218.629883 182.759712 
C 217.921699 182.945944 217.523789 183.198565 217.523789 183.461936 
C 217.523789 183.725308 217.921699 183.977928 218.629883 184.16416 
C 219.338068 184.350392 220.298706 184.455031 221.30023 184.455031 
z
" style="fill:#0000ff;opacity:0.2;stroke:#0000ff;stroke-linejoin:miter;stroke-width:2;"/>
   </g>
   <g id="patch_10">
    <path clip-path="url(#p4b8ef47ae3)" d="M 370.46965 233.116667 
C 371.471174 233.116667 372.431813 233.012029 373.139997 232.825797 
C 373.848182 232.639565 374.246091 232.386945 374.246091 232.123573 
C 374.246091 231.860201 373.848182 231.607581 373.139997 231.421349 
C 372.431813 231.235117 371.471174 231.130478 370.46965 231.130478 
C 369.468127 231.130478 368.507488 231.235117 367.799303 231.421349 
C 367.091119 231.607581 366.693209 231.860201 366.693209 232.123573 
C 366.693209 232.386945 367.091119 232.639565 367.799303 232.825797 
C 368.507488 233.012029 369.468127 233.116667 370.46965 233.116667 
z
" style="fill:#0000ff;opacity:0.2;stroke:#0000ff;stroke-linejoin:miter;stroke-width:2;"/>
   </g>
   <g id="patch_11">
    <path clip-path="url(#p4b8ef47ae3)" d="M 125.000984 305.116028 
C 126.002508 305.116028 126.963147 305.011389 127.671332 304.825157 
C 128.379516 304.638925 128.777425 304.386305 128.777425 304.122933 
C 128.777425 303.859561 128.379516 303.606941 127.671332 303.420709 
C 126.963147 303.234477 126.002508 303.129838 125.000984 303.129838 
C 123.999461 303.129838 123.038822 303.234477 122.330637 303.420709 
C 121.622453 303.606941 121.224543 303.859561 121.224543 304.122933 
C 121.224543 304.386305 121.622453 304.638925 122.330637 304.825157 
C 123.038822 305.011389 123.999461 305.116028 125.000984 305.116028 
z
" style="fill:#0000ff;opacity:0.2;stroke:#0000ff;stroke-linejoin:miter;stroke-width:2;"/>
   </g>
   <g id="patch_12">
    <path clip-path="url(#p4b8ef47ae3)" d="M 113.671661 293.198892 
C 114.673185 293.198892 115.633824 293.094253 116.342008 292.908021 
C 117.050193 292.721789 117.448102 292.469169 117.448102 292.205797 
C 117.448102 291.942426 117.050193 291.689806 116.342008 291.503574 
C 115.633824 291.317342 114.673185 291.212703 113.671661 291.212703 
C 112.670138 291.212703 111.709499 291.317342 111.001314 291.503574 
C 110.29313 291.689806 109.89522 291.942426 109.89522 292.205797 
C 109.89522 292.469169 110.29313 292.721789 111.001314 292.908021 
C 111.709499 293.094253 112.670138 293.198892 113.671661 293.198892 
z
" style="fill:#0000ff;opacity:0.2;stroke:#0000ff;stroke-linejoin:miter;stroke-width:2;"/>
   </g>
   <g id="patch_13">
    <path clip-path="url(#p4b8ef47ae3)" d="M 268.505743 249.999276 
C 269.507267 249.999276 270.467906 249.894637 271.17609 249.708405 
C 271.884274 249.522173 272.282184 249.269553 272.282184 249.006181 
C 272.282184 248.74281 271.884274 248.490189 271.17609 248.303957 
C 270.467906 248.117725 269.507267 248.013087 268.505743 248.013087 
C 267.504219 248.013087 266.54358 248.117725 265.835396 248.303957 
C 265.127212 248.490189 264.729302 248.74281 264.729302 249.006181 
C 264.729302 249.269553 265.127212 249.522173 265.835396 249.708405 
C 266.54358 249.894637 267.504219 249.999276 268.505743 249.999276 
z
" style="fill:#0000ff;opacity:0.2;stroke:#0000ff;stroke-linejoin:miter;stroke-width:2;"/>
   </g>
   <g id="patch_14">
    <path clip-path="url(#p4b8ef47ae3)" d="M 160.877174 221.199532 
C 161.878698 221.199532 162.839337 221.094893 163.547521 220.908661 
C 164.255705 220.722429 164.653615 220.469809 164.653615 220.206437 
C 164.653615 219.943066 164.255705 219.690445 163.547521 219.504213 
C 162.839337 219.317981 161.878698 219.213343 160.877174 219.213343 
C 159.87565 219.213343 158.915011 219.317981 158.206827 219.504213 
C 157.498643 219.690445 157.100733 219.943066 157.100733 220.206437 
C 157.100733 220.469809 157.498643 220.722429 158.206827 220.908661 
C 158.915011 221.094893 159.87565 221.199532 160.877174 221.199532 
z
" style="fill:#0000ff;opacity:0.2;stroke:#0000ff;stroke-linejoin:miter;stroke-width:2;"/>
   </g>
   <g id="patch_15">
    <path clip-path="url(#p4b8ef47ae3)" d="M 128.777425 206.79966 
C 129.778949 206.79966 130.739588 206.695021 131.447773 206.508789 
C 132.155957 206.322557 132.553867 206.069937 132.553867 205.806565 
C 132.553867 205.543194 132.155957 205.290573 131.447773 205.104341 
C 130.739588 204.918109 129.778949 204.813471 128.777425 204.813471 
C 127.775902 204.813471 126.815263 204.918109 126.107078 205.104341 
C 125.398894 205.290573 125.000984 205.543194 125.000984 205.806565 
C 125.000984 206.069937 125.398894 206.322557 126.107078 206.508789 
C 126.815263 206.695021 127.775902 206.79966 128.777425 206.79966 
z
" style="fill:#0000ff;opacity:0.2;stroke:#0000ff;stroke-linejoin:miter;stroke-width:2;"/>
   </g>
   <g id="patch_16">
    <path clip-path="url(#p4b8ef47ae3)" d="M 212.803238 152.924277 
C 293.99672 152.924277 407.28995 170.79998 407.28995 216.97888 
C 407.28995 266.137064 260.008751 293.943713 97.621787 303.874659 
C 63.633818 302.881565 56.080936 291.460977 76.851362 287.985145 
C 148.603741 281.033483 244.902987 264.150874 244.902987 239.820056 
C 244.902987 217.971974 182.59171 211.020312 135.386197 207.544481 
C 103.286449 205.061744 76.851362 196.62044 76.851362 185.199852 
C 76.851362 167.324149 137.274418 152.924277 212.803238 152.924277 
" style="fill:none;stroke:#ff0000;stroke-linejoin:miter;stroke-width:0.5;"/>
   </g>
   <g id="patch_17">
    <path clip-path="url(#p4b8ef47ae3)" d="M 221.30023 183.461936 
C 287.387948 183.461936 370.46965 199.35145 370.46965 232.123573 
C 370.46965 271.35081 257.17642 293.695439 125.000984 304.122933 
C 108.007 302.633291 102.342338 294.688534 113.671661 292.205797 
C 172.206497 287.240324 268.505743 274.826642 268.505743 249.006181 
C 268.505743 228.151194 177.871159 222.689174 160.877174 220.206437 
C 136.330308 216.730606 128.777425 211.765133 128.777425 205.806565 
C 128.777425 194.385977 160.877174 183.461936 221.30023 183.461936 
" style="fill:none;stroke:#0000ff;stroke-linejoin:miter;stroke-width:0.5;"/>
   </g>
   <g id="[&quot;g_s&quot;:1,&quot;g_t&quot;:1,&quot;coords&quot;:[[166.0, -532.0],[170.5, -593.5]],&quot;certainty&quot;:11]">
    <path clip-path="url(#p4b8ef47ae3)" d="M 212.803238 155.90356 
C 215.80781 155.90356 218.689726 155.589644 220.814279 155.030948 
C 222.938832 154.472253 224.132561 153.714392 224.132561 152.924277 
C 224.132561 152.134161 222.938832 151.376301 220.814279 150.817605 
C 218.689726 150.258909 215.80781 149.944993 212.803238 149.944993 
C 209.798666 149.944993 206.91675 150.258909 204.792197 150.817605 
C 202.667644 151.376301 201.473915 152.134161 201.473915 152.924277 
C 201.473915 153.714392 202.667644 154.472253 204.792197 155.030948 
C 206.91675 155.589644 209.798666 155.90356 212.803238 155.90356 
z
" style="fill:#0000ff;opacity:0.2;stroke:#0000ff;stroke-linejoin:miter;stroke-width:2;"/>
   </g>
   <g id="[&quot;g_s&quot;:1,&quot;g_t&quot;:1,&quot;coords&quot;:[[170.5, -593.5],[166.0, -532.0]],&quot;certainty&quot;:11]">
    <path clip-path="url(#p4b8ef47ae3)" d="M 221.30023 186.44122 
C 224.304802 186.44122 227.186719 186.127304 229.311271 185.568608 
C 231.435824 185.009912 232.629553 184.252052 232.629553 183.461936 
C 232.629553 182.671821 231.435824 181.91396 229.311271 181.355264 
C 227.186719 180.796569 224.304802 180.482652 221.30023 180.482652 
C 218.295659 180.482652 215.413742 180.796569 213.289189 181.355264 
C 211.164636 181.91396 209.970907 182.671821 209.970907 183.461936 
C 209.970907 184.252052 211.164636 185.009912 213.289189 185.568608 
C 215.413742 186.127304 218.295659 186.44122 221.30023 186.44122 
z
" style="fill:#ff0000;opacity:0.2;stroke:#ff0000;stroke-linejoin:miter;stroke-width:2;"/>
   </g>
   <g id="patch_18">
    <path d="M 212.803238 152.924277 
Q 216.78361 167.229485 220.195335 179.491011 
" style="fill:none;opacity:0.5;stroke:#0000ff;stroke-linecap:round;stroke-width:3;"/>
    <path d="M 221.238343 177.643814 
L 220.195335 179.491011 
L 218.348138 178.448003 
" style="fill:none;opacity:0.5;stroke:#0000ff;stroke-linecap:round;stroke-width:3;"/>
   </g>
   <g id="[&quot;g_s&quot;:2,&quot;g_t&quot;:2,&quot;coords&quot;:[[269.0, -661.0],[249.5, -691.5]],&quot;certainty&quot;:11]">
    <path clip-path="url(#p4b8ef47ae3)" d="M 407.28995 219.958164 
C 410.294522 219.958164 413.176439 219.644248 415.300991 219.085552 
C 417.425544 218.526856 418.619273 217.768995 418.619273 216.97888 
C 418.619273 216.188764 417.425544 215.430904 415.300991 214.872208 
C 413.176439 214.313512 410.294522 213.999596 407.28995 213.999596 
C 404.285379 213.999596 401.403462 214.313512 399.278909 214.872208 
C 397.154356 215.430904 395.960627 216.188764 395.960627 216.97888 
C 395.960627 217.768995 397.154356 218.526856 399.278909 219.085552 
C 401.403462 219.644248 404.285379 219.958164 407.28995 219.958164 
z
" style="fill:#0000ff;opacity:0.2;stroke:#0000ff;stroke-linejoin:miter;stroke-width:2;"/>
   </g>
   <g id="[&quot;g_s&quot;:2,&quot;g_t&quot;:2,&quot;coords&quot;:[[249.5, -691.5],[269.0, -661.0]],&quot;certainty&quot;:11]">
    <path clip-path="url(#p4b8ef47ae3)" d="M 370.46965 235.102857 
C 373.474222 235.102857 376.356139 234.788941 378.480692 234.230245 
C 380.605245 233.671549 381.798973 232.913688 381.798973 232.123573 
C 381.798973 231.333457 380.605245 230.575597 378.480692 230.016901 
C 376.356139 229.458205 373.474222 229.144289 370.46965 229.144289 
C 367.465079 229.144289 364.583162 229.458205 362.458609 230.016901 
C 360.334056 230.575597 359.140327 231.333457 359.140327 232.123573 
C 359.140327 232.913688 360.334056 233.671549 362.458609 234.230245 
C 364.583162 234.788941 367.465079 235.102857 370.46965 235.102857 
z
" style="fill:#ff0000;opacity:0.2;stroke:#ff0000;stroke-linejoin:miter;stroke-width:2;"/>
   </g>
   <g id="patch_19">
    <path d="M 407.28995 216.97888 
Q 389.803454 224.171315 374.278808 230.556814 
" style="fill:none;opacity:0.5;stroke:#0000ff;stroke-linecap:round;stroke-width:3;"/>
    <path d="M 376.236635 231.373462 
L 374.278808 230.556814 
L 375.095455 228.598987 
" style="fill:none;opacity:0.5;stroke:#0000ff;stroke-linecap:round;stroke-width:3;"/>
   </g>
   <g id="[&quot;g_s&quot;:3,&quot;g_t&quot;:3,&quot;coords&quot;:[[105.0, -836.0],[119.5, -836.5]],&quot;certainty&quot;:10]">
    <path clip-path="url(#p4b8ef47ae3)" d="M 97.621787 306.60567 
C 100.375978 306.60567 103.017735 306.317913 104.965242 305.805775 
C 106.912748 305.293637 108.007 304.598932 108.007 303.874659 
C 108.007 303.150387 106.912748 302.455681 104.965242 301.943543 
C 103.017735 301.431406 100.375978 301.143649 97.621787 301.143649 
C 94.867597 301.143649 92.22584 301.431406 90.278333 301.943543 
C 88.330826 302.455681 87.236574 303.150387 87.236574 303.874659 
C 87.236574 304.598932 88.330826 305.293637 90.278333 305.805775 
C 92.22584 306.317913 94.867597 306.60567 97.621787 306.60567 
z
" style="fill:#0000ff;opacity:0.2;stroke:#0000ff;stroke-linejoin:miter;stroke-width:2;"/>
   </g>
   <g id="[&quot;g_s&quot;:3,&quot;g_t&quot;:3,&quot;coords&quot;:[[119.5, -836.5],[105.0, -836.0]],&quot;certainty&quot;:10]">
    <path clip-path="url(#p4b8ef47ae3)" d="M 125.000984 306.853943 
C 127.755175 306.853943 130.396932 306.566187 132.344439 306.054049 
C 134.291946 305.541911 135.386197 304.847205 135.386197 304.122933 
C 135.386197 303.398661 134.291946 302.703955 132.344439 302.191817 
C 130.396932 301.679679 127.755175 301.391923 125.000984 301.391923 
C 122.246794 301.391923 119.605037 301.679679 117.65753 302.191817 
C 115.710023 302.703955 114.615772 303.398661 114.615772 304.122933 
C 114.615772 304.847205 115.710023 305.541911 117.65753 306.054049 
C 119.605037 306.566187 122.246794 306.853943 125.000984 306.853943 
z
" style="fill:#ff0000;opacity:0.2;stroke:#ff0000;stroke-linejoin:miter;stroke-width:2;"/>
   </g>
   <g id="patch_20">
    <path d="M 97.621787 303.874659 
Q 110.310401 303.989719 121.054551 304.087147 
" style="fill:none;opacity:0.5;stroke:#0000ff;stroke-linecap:round;stroke-width:2.75;"/>
    <path d="M 119.568214 302.573607 
L 121.054551 304.087147 
L 119.541011 305.573484 
" style="fill:none;opacity:0.5;stroke:#0000ff;stroke-linecap:round;stroke-width:2.75;"/>
   </g>
   <g id="[&quot;g_s&quot;:4,&quot;g_t&quot;:4,&quot;coords&quot;:[[94.0, -804.0],[113.5, -812.5]],&quot;certainty&quot;:6]">
    <path clip-path="url(#p4b8ef47ae3)" d="M 76.851362 289.723061 
C 78.604028 289.723061 80.285146 289.539943 81.524469 289.214037 
C 82.763791 288.888131 83.460133 288.446046 83.460133 287.985145 
C 83.460133 287.524245 82.763791 287.082159 81.524469 286.756253 
C 80.285146 286.430348 78.604028 286.24723 76.851362 286.24723 
C 75.098695 286.24723 73.417577 286.430348 72.178254 286.756253 
C 70.938932 287.082159 70.24259 287.524245 70.24259 287.985145 
C 70.24259 288.446046 70.938932 288.888131 72.178254 289.214037 
C 73.417577 289.539943 75.098695 289.723061 76.851362 289.723061 
z
" style="fill:#0000ff;opacity:0.2;stroke:#0000ff;stroke-linejoin:miter;stroke-width:2;"/>
   </g>
   <g id="[&quot;g_s&quot;:4,&quot;g_t&quot;:4,&quot;coords&quot;:[[113.5, -812.5],[94.0, -804.0]],&quot;certainty&quot;:6]">
    <path clip-path="url(#p4b8ef47ae3)" d="M 113.671661 293.943713 
C 115.424328 293.943713 117.105446 293.760595 118.344769 293.434689 
C 119.584091 293.108783 120.280433 292.666698 120.280433 292.205797 
C 120.280433 291.744897 119.584091 291.302812 118.344769 290.976906 
C 117.105446 290.651 115.424328 290.467882 113.671661 290.467882 
C 111.918995 290.467882 110.237877 290.651 108.998554 290.976906 
C 107.759232 291.302812 107.06289 291.744897 107.06289 292.205797 
C 107.06289 292.666698 107.759232 293.108783 108.998554 293.434689 
C 110.237877 293.760595 111.918995 293.943713 113.671661 293.943713 
z
" style="fill:#ff0000;opacity:0.2;stroke:#ff0000;stroke-linejoin:miter;stroke-width:2;"/>
   </g>
   <g id="patch_21">
    <path d="M 76.851362 287.985145 
Q 94.265943 289.981351 110.451138 291.836634 
" style="fill:none;opacity:0.5;stroke:#0000ff;stroke-linecap:round;stroke-width:1.75;"/>
    <path d="M 109.131721 290.175569 
L 110.451138 291.836634 
L 108.790073 293.156051 
" style="fill:none;opacity:0.5;stroke:#0000ff;stroke-linecap:round;stroke-width:1.75;"/>
   </g>
   <g id="[&quot;g_s&quot;:5,&quot;g_t&quot;:5,&quot;coords&quot;:[[183.0, -707.0],[195.5, -725.5]],&quot;certainty&quot;:11]">
    <path clip-path="url(#p4b8ef47ae3)" d="M 244.902987 242.79934 
C 247.907558 242.79934 250.789475 242.485424 252.914028 241.926728 
C 255.038581 241.368032 256.23231 240.610171 256.23231 239.820056 
C 256.23231 239.029941 255.038581 238.27208 252.914028 237.713384 
C 250.789475 237.154688 247.907558 236.840772 244.902987 236.840772 
C 241.898415 236.840772 239.016498 237.154688 236.891946 237.713384 
C 234.767393 238.27208 233.573664 239.029941 233.573664 239.820056 
C 233.573664 240.610171 234.767393 241.368032 236.891946 241.926728 
C 239.016498 242.485424 241.898415 242.79934 244.902987 242.79934 
z
" style="fill:#0000ff;opacity:0.2;stroke:#0000ff;stroke-linejoin:miter;stroke-width:2;"/>
   </g>
   <g id="[&quot;g_s&quot;:5,&quot;g_t&quot;:5,&quot;coords&quot;:[[195.5, -725.5],[183.0, -707.0]],&quot;certainty&quot;:11]">
    <path clip-path="url(#p4b8ef47ae3)" d="M 268.505743 251.985465 
C 271.510315 251.985465 274.392231 251.671549 276.516784 251.112853 
C 278.641337 250.554157 279.835066 249.796297 279.835066 249.006181 
C 279.835066 248.216066 278.641337 247.458205 276.516784 246.89951 
C 274.392231 246.340814 271.510315 246.026898 268.505743 246.026898 
C 265.501171 246.026898 262.619255 246.340814 260.494702 246.89951 
C 258.370149 247.458205 257.17642 248.216066 257.17642 249.006181 
C 257.17642 249.796297 258.370149 250.554157 260.494702 251.112853 
C 262.619255 251.671549 265.501171 251.985465 268.505743 251.985465 
z
" style="fill:#ff0000;opacity:0.2;stroke:#ff0000;stroke-linejoin:miter;stroke-width:2;"/>
   </g>
   <g id="patch_22">
    <path d="M 244.902987 239.820056 
Q 255.772298 244.050361 264.664735 247.511272 
" style="fill:none;opacity:0.5;stroke:#0000ff;stroke-linecap:round;stroke-width:3;"/>
    <path d="M 263.810917 245.569367 
L 264.664735 247.511272 
L 262.72283 248.36509 
" style="fill:none;opacity:0.5;stroke:#0000ff;stroke-linecap:round;stroke-width:3;"/>
   </g>
   <g id="[&quot;g_s&quot;:6,&quot;g_t&quot;:6,&quot;coords&quot;:[[125.0, -642.0],[138.5, -667.5]],&quot;certainty&quot;:5]">
    <path clip-path="url(#p4b8ef47ae3)" d="M 135.386197 209.034123 
C 136.888483 209.034123 138.329441 208.877165 139.391718 208.597817 
C 140.453994 208.318469 141.050859 207.939539 141.050859 207.544481 
C 141.050859 207.149423 140.453994 206.770493 139.391718 206.491145 
C 138.329441 206.211797 136.888483 206.054839 135.386197 206.054839 
C 133.883911 206.054839 132.442953 206.211797 131.380677 206.491145 
C 130.3184 206.770493 129.721536 207.149423 129.721536 207.544481 
C 129.721536 207.939539 130.3184 208.318469 131.380677 208.597817 
C 132.442953 208.877165 133.883911 209.034123 135.386197 209.034123 
z
" style="fill:#0000ff;opacity:0.2;stroke:#0000ff;stroke-linejoin:miter;stroke-width:2;"/>
   </g>
   <g id="[&quot;g_s&quot;:6,&quot;g_t&quot;:6,&quot;coords&quot;:[[138.5, -667.5],[125.0, -642.0]],&quot;certainty&quot;:5]">
    <path clip-path="url(#p4b8ef47ae3)" d="M 160.877174 221.696079 
C 162.37946 221.696079 163.820418 221.539121 164.882695 221.259773 
C 165.944971 220.980425 166.541836 220.601495 166.541836 220.206437 
C 166.541836 219.81138 165.944971 219.432449 164.882695 219.153101 
C 163.820418 218.873753 162.37946 218.716795 160.877174 218.716795 
C 159.374888 218.716795 157.93393 218.873753 156.871654 219.153101 
C 155.809377 219.432449 155.212513 219.81138 155.212513 220.206437 
C 155.212513 220.601495 155.809377 220.980425 156.871654 221.259773 
C 157.93393 221.539121 159.374888 221.696079 160.877174 221.696079 
z
" style="fill:#ff0000;opacity:0.2;stroke:#ff0000;stroke-linejoin:miter;stroke-width:2;"/>
   </g>
   <g id="patch_23">
    <path d="M 135.386197 207.544481 
Q 147.237074 213.431085 158.138026 218.845839 
" style="fill:none;opacity:0.5;stroke:#0000ff;stroke-linecap:round;stroke-width:1.5;"/>
    <path d="M 157.461926 216.835146 
L 158.138026 218.845839 
L 156.127333 219.52194 
" style="fill:none;opacity:0.5;stroke:#0000ff;stroke-linecap:round;stroke-width:1.5;"/>
   </g>
   <g id="[&quot;g_s&quot;:7,&quot;g_t&quot;:7,&quot;coords&quot;:[[94.0, -597.0],[121.5, -638.5]],&quot;certainty&quot;:11]">
    <path clip-path="url(#p4b8ef47ae3)" d="M 76.851362 188.179136 
C 79.855933 188.179136 82.73785 187.86522 84.862403 187.306524 
C 86.986956 186.747828 88.180685 185.989967 88.180685 185.199852 
C 88.180685 184.409737 86.986956 183.651876 84.862403 183.09318 
C 82.73785 182.534484 79.855933 182.220568 76.851362 182.220568 
C 73.84679 182.220568 70.964873 182.534484 68.84032 183.09318 
C 66.715767 183.651876 65.522039 184.409737 65.522039 185.199852 
C 65.522039 185.989967 66.715767 186.747828 68.84032 187.306524 
C 70.964873 187.86522 73.84679 188.179136 76.851362 188.179136 
z
" style="fill:#0000ff;opacity:0.2;stroke:#0000ff;stroke-linejoin:miter;stroke-width:2;"/>
   </g>
   <g id="[&quot;g_s&quot;:7,&quot;g_t&quot;:7,&quot;coords&quot;:[[121.5, -638.5],[94.0, -597.0]],&quot;certainty&quot;:11]">
    <path clip-path="url(#p4b8ef47ae3)" d="M 128.777425 208.785849 
C 131.781997 208.785849 134.663914 208.471933 136.788467 207.913237 
C 138.91302 207.354541 140.106749 206.596681 140.106749 205.806565 
C 140.106749 205.01645 138.91302 204.258589 136.788467 203.699893 
C 134.663914 203.141198 131.781997 202.827281 128.777425 202.827281 
C 125.772854 202.827281 122.890937 203.141198 120.766384 203.699893 
C 118.641831 204.258589 117.448102 205.01645 117.448102 205.806565 
C 117.448102 206.596681 118.641831 207.354541 120.766384 207.913237 
C 122.890937 208.471933 125.772854 208.785849 128.777425 208.785849 
z
" style="fill:#ff0000;opacity:0.2;stroke:#ff0000;stroke-linejoin:miter;stroke-width:2;"/>
   </g>
   <g id="patch_24">
    <path d="M 76.851362 185.199852 
Q 101.884199 195.134064 124.945305 204.285799 
" style="fill:none;opacity:0.5;stroke:#0000ff;stroke-linecap:round;stroke-width:3;"/>
    <path d="M 124.104373 202.338279 
L 124.945305 204.285799 
L 122.997784 205.12673 
" style="fill:none;opacity:0.5;stroke:#0000ff;stroke-linecap:round;stroke-width:3;"/>
   </g>
   <g id="[&quot;g_s&quot;:1,&quot;g_t&quot;:7,&quot;coords&quot;:[[170.5, -593.5],[94.0, -597.0]],&quot;certainty&quot;:3]">
    <path clip-path="url(#p4b8ef47ae3)" d="M 221.30023 184.455031 
C 222.301754 184.455031 223.262393 184.350392 223.970577 184.16416 
C 224.678762 183.977928 225.076671 183.725308 225.076671 183.461936 
C 225.076671 183.198565 224.678762 182.945944 223.970577 182.759712 
C 223.262393 182.57348 222.301754 182.468842 221.30023 182.468842 
C 220.298706 182.468842 219.338068 182.57348 218.629883 182.759712 
C 217.921699 182.945944 217.523789 183.198565 217.523789 183.461936 
C 217.523789 183.725308 217.921699 183.977928 218.629883 184.16416 
C 219.338068 184.350392 220.298706 184.455031 221.30023 184.455031 
z
" style="fill:#0000ff;opacity:0.2;stroke:#0000ff;stroke-linejoin:miter;stroke-width:2;"/>
   </g>
   <g id="[&quot;g_s&quot;:7,&quot;g_t&quot;:1,&quot;coords&quot;:[[94.0, -597.0],[170.5, -593.5]],&quot;certainty&quot;:3]">
    <path clip-path="url(#p4b8ef47ae3)" d="M 76.851362 186.192946 
C 77.852885 186.192946 78.813524 186.088308 79.521709 185.902076 
C 80.229893 185.715844 80.627803 185.463224 80.627803 185.199852 
C 80.627803 184.93648 80.229893 184.68386 79.521709 184.497628 
C 78.813524 184.311396 77.852885 184.206757 76.851362 184.206757 
C 75.849838 184.206757 74.889199 184.311396 74.181014 184.497628 
C 73.47283 184.68386 73.074921 184.93648 73.074921 185.199852 
C 73.074921 185.463224 73.47283 185.715844 74.181014 185.902076 
C 74.889199 186.088308 75.849838 186.192946 76.851362 186.192946 
z
" style="fill:#ff0000;opacity:0.2;stroke:#ff0000;stroke-linejoin:miter;stroke-width:2;"/>
   </g>
   <g id="patch_25">
    <path d="M 221.30023 183.461936 
Q 150.07426 184.318881 79.555345 185.167319 
" style="fill:none;opacity:0.5;stroke:#ff0000;stroke-linecap:round;"/>
    <path d="M 81.073282 186.649165 
L 79.555345 185.167319 
L 81.037191 183.649382 
" style="fill:none;opacity:0.5;stroke:#ff0000;stroke-linecap:round;"/>
   </g>
   <g id="[&quot;g_s&quot;:2,&quot;g_t&quot;:2,&quot;coords&quot;:[[249.5, -691.5],[269.0, -661.0]],&quot;certainty&quot;:8]">
    <path clip-path="url(#p4b8ef47ae3)" d="M 370.46965 234.358036 
C 372.723079 234.358036 374.884517 234.122599 376.477931 233.703577 
C 378.071346 233.284555 378.966643 232.716159 378.966643 232.123573 
C 378.966643 231.530986 378.071346 230.962591 376.477931 230.543569 
C 374.884517 230.124547 372.723079 229.88911 370.46965 229.88911 
C 368.216222 229.88911 366.054784 230.124547 364.46137 230.543569 
C 362.867955 230.962591 361.972658 231.530986 361.972658 232.123573 
C 361.972658 232.716159 362.867955 233.284555 364.46137 233.703577 
C 366.054784 234.122599 368.216222 234.358036 370.46965 234.358036 
z
" style="fill:#0000ff;opacity:0.2;stroke:#0000ff;stroke-linejoin:miter;stroke-width:2;"/>
   </g>
   <g id="[&quot;g_s&quot;:2,&quot;g_t&quot;:2,&quot;coords&quot;:[[269.0, -661.0],[249.5, -691.5]],&quot;certainty&quot;:8]">
    <path clip-path="url(#p4b8ef47ae3)" d="M 407.28995 219.213343 
C 409.543379 219.213343 411.704816 218.977906 413.298231 218.558884 
C 414.891646 218.139862 415.786943 217.571466 415.786943 216.97888 
C 415.786943 216.386293 414.891646 215.817898 413.298231 215.398876 
C 411.704816 214.979854 409.543379 214.744417 407.28995 214.744417 
C 405.036522 214.744417 402.875084 214.979854 401.281669 215.398876 
C 399.688255 215.817898 398.792958 216.386293 398.792958 216.97888 
C 398.792958 217.571466 399.688255 218.139862 401.281669 218.558884 
C 402.875084 218.977906 405.036522 219.213343 407.28995 219.213343 
z
" style="fill:#ff0000;opacity:0.2;stroke:#ff0000;stroke-linejoin:miter;stroke-width:2;"/>
   </g>
   <g id="patch_26">
    <path d="M 370.46965 232.123573 
Q 387.956147 224.931138 403.971255 218.343904 
" style="fill:none;opacity:0.5;stroke:#ff0000;stroke-linecap:round;stroke-width:2.25;"/>
    <path d="M 402.013428 217.527257 
L 403.971255 218.343904 
L 403.154608 220.301731 
" style="fill:none;opacity:0.5;stroke:#ff0000;stroke-linecap:round;stroke-width:2.25;"/>
   </g>
   <g id="[&quot;g_s&quot;:3,&quot;g_t&quot;:3,&quot;coords&quot;:[[119.5, -836.5],[105.0, -836.0]],&quot;certainty&quot;:5]">
    <path clip-path="url(#p4b8ef47ae3)" d="M 125.000984 305.612575 
C 126.50327 305.612575 127.944229 305.455617 129.006505 305.176269 
C 130.068782 304.896921 130.665646 304.517991 130.665646 304.122933 
C 130.665646 303.727875 130.068782 303.348945 129.006505 303.069597 
C 127.944229 302.790249 126.50327 302.633291 125.000984 302.633291 
C 123.498699 302.633291 122.05774 302.790249 120.995464 303.069597 
C 119.933187 303.348945 119.336323 303.727875 119.336323 304.122933 
C 119.336323 304.517991 119.933187 304.896921 120.995464 305.176269 
C 122.05774 305.455617 123.498699 305.612575 125.000984 305.612575 
z
" style="fill:#0000ff;opacity:0.2;stroke:#0000ff;stroke-linejoin:miter;stroke-width:2;"/>
   </g>
   <g id="[&quot;g_s&quot;:3,&quot;g_t&quot;:3,&quot;coords&quot;:[[105.0, -836.0],[119.5, -836.5]],&quot;certainty&quot;:5]">
    <path clip-path="url(#p4b8ef47ae3)" d="M 97.621787 305.364301 
C 99.124073 305.364301 100.565031 305.207343 101.627308 304.927995 
C 102.689584 304.648647 103.286449 304.269717 103.286449 303.874659 
C 103.286449 303.479602 102.689584 303.100671 101.627308 302.821323 
C 100.565031 302.541975 99.124073 302.385017 97.621787 302.385017 
C 96.119501 302.385017 94.678543 302.541975 93.616267 302.821323 
C 92.55399 303.100671 91.957126 303.479602 91.957126 303.874659 
C 91.957126 304.269717 92.55399 304.648647 93.616267 304.927995 
C 94.678543 305.207343 96.119501 305.364301 97.621787 305.364301 
z
" style="fill:#ff0000;opacity:0.2;stroke:#ff0000;stroke-linejoin:miter;stroke-width:2;"/>
   </g>
   <g id="patch_27">
    <path d="M 125.000984 304.122933 
Q 112.312371 304.007873 100.684374 303.902431 
" style="fill:none;opacity:0.5;stroke:#ff0000;stroke-linecap:round;stroke-width:1.5;"/>
    <path d="M 102.170711 305.41597 
L 100.684374 303.902431 
L 102.197914 302.416094 
" style="fill:none;opacity:0.5;stroke:#ff0000;stroke-linecap:round;stroke-width:1.5;"/>
   </g>
   <g id="[&quot;g_s&quot;:4,&quot;g_t&quot;:4,&quot;coords&quot;:[[113.5, -812.5],[94.0, -804.0]],&quot;certainty&quot;:6]">
    <path clip-path="url(#p4b8ef47ae3)" d="M 113.671661 293.943713 
C 115.424328 293.943713 117.105446 293.760595 118.344769 293.434689 
C 119.584091 293.108783 120.280433 292.666698 120.280433 292.205797 
C 120.280433 291.744897 119.584091 291.302812 118.344769 290.976906 
C 117.105446 290.651 115.424328 290.467882 113.671661 290.467882 
C 111.918995 290.467882 110.237877 290.651 108.998554 290.976906 
C 107.759232 291.302812 107.06289 291.744897 107.06289 292.205797 
C 107.06289 292.666698 107.759232 293.108783 108.998554 293.434689 
C 110.237877 293.760595 111.918995 293.943713 113.671661 293.943713 
z
" style="fill:#0000ff;opacity:0.2;stroke:#0000ff;stroke-linejoin:miter;stroke-width:2;"/>
   </g>
   <g id="[&quot;g_s&quot;:4,&quot;g_t&quot;:4,&quot;coords&quot;:[[94.0, -804.0],[113.5, -812.5]],&quot;certainty&quot;:6]">
    <path clip-path="url(#p4b8ef47ae3)" d="M 76.851362 289.723061 
C 78.604028 289.723061 80.285146 289.539943 81.524469 289.214037 
C 82.763791 288.888131 83.460133 288.446046 83.460133 287.985145 
C 83.460133 287.524245 82.763791 287.082159 81.524469 286.756253 
C 80.285146 286.430348 78.604028 286.24723 76.851362 286.24723 
C 75.098695 286.24723 73.417577 286.430348 72.178254 286.756253 
C 70.938932 287.082159 70.24259 287.524245 70.24259 287.985145 
C 70.24259 288.446046 70.938932 288.888131 72.178254 289.214037 
C 73.417577 289.539943 75.098695 289.723061 76.851362 289.723061 
z
" style="fill:#ff0000;opacity:0.2;stroke:#ff0000;stroke-linejoin:miter;stroke-width:2;"/>
   </g>
   <g id="patch_28">
    <path d="M 113.671661 292.205797 
Q 96.25708 290.209592 80.071885 288.354309 
" style="fill:none;opacity:0.5;stroke:#ff0000;stroke-linecap:round;stroke-width:1.75;"/>
    <path d="M 81.391302 290.015374 
L 80.071885 288.354309 
L 81.73295 287.034891 
" style="fill:none;opacity:0.5;stroke:#ff0000;stroke-linecap:round;stroke-width:1.75;"/>
   </g>
   <g id="[&quot;g_s&quot;:5,&quot;g_t&quot;:5,&quot;coords&quot;:[[195.5, -725.5],[183.0, -707.0]],&quot;certainty&quot;:11]">
    <path clip-path="url(#p4b8ef47ae3)" d="M 268.505743 251.985465 
C 271.510315 251.985465 274.392231 251.671549 276.516784 251.112853 
C 278.641337 250.554157 279.835066 249.796297 279.835066 249.006181 
C 279.835066 248.216066 278.641337 247.458205 276.516784 246.89951 
C 274.392231 246.340814 271.510315 246.026898 268.505743 246.026898 
C 265.501171 246.026898 262.619255 246.340814 260.494702 246.89951 
C 258.370149 247.458205 257.17642 248.216066 257.17642 249.006181 
C 257.17642 249.796297 258.370149 250.554157 260.494702 251.112853 
C 262.619255 251.671549 265.501171 251.985465 268.505743 251.985465 
z
" style="fill:#0000ff;opacity:0.2;stroke:#0000ff;stroke-linejoin:miter;stroke-width:2;"/>
   </g>
   <g id="[&quot;g_s&quot;:5,&quot;g_t&quot;:5,&quot;coords&quot;:[[183.0, -707.0],[195.5, -725.5]],&quot;certainty&quot;:11]">
    <path clip-path="url(#p4b8ef47ae3)" d="M 244.902987 242.79934 
C 247.907558 242.79934 250.789475 242.485424 252.914028 241.926728 
C 255.038581 241.368032 256.23231 240.610171 256.23231 239.820056 
C 256.23231 239.029941 255.038581 238.27208 252.914028 237.713384 
C 250.789475 237.154688 247.907558 236.840772 244.902987 236.840772 
C 241.898415 236.840772 239.016498 237.154688 236.891946 237.713384 
C 234.767393 238.27208 233.573664 239.029941 233.573664 239.820056 
C 233.573664 240.610171 234.767393 241.368032 236.891946 241.926728 
C 239.016498 242.485424 241.898415 242.79934 244.902987 242.79934 
z
" style="fill:#ff0000;opacity:0.2;stroke:#ff0000;stroke-linejoin:miter;stroke-width:2;"/>
   </g>
   <g id="patch_29">
    <path d="M 268.505743 249.006181 
Q 257.636432 244.775877 248.743995 241.314966 
" style="fill:none;opacity:0.5;stroke:#ff0000;stroke-linecap:round;stroke-width:3;"/>
    <path d="M 249.597813 243.256871 
L 248.743995 241.314966 
L 250.6859 240.461148 
" style="fill:none;opacity:0.5;stroke:#ff0000;stroke-linecap:round;stroke-width:3;"/>
   </g>
   <g id="[&quot;g_s&quot;:6,&quot;g_t&quot;:6,&quot;coords&quot;:[[138.5, -667.5],[125.0, -642.0]],&quot;certainty&quot;:4]">
    <path clip-path="url(#p4b8ef47ae3)" d="M 160.877174 221.447806 
C 162.129079 221.447806 163.329878 221.317007 164.215108 221.084217 
C 165.100338 220.851427 165.597725 220.535652 165.597725 220.206437 
C 165.597725 219.877223 165.100338 219.561447 164.215108 219.328657 
C 163.329878 219.095867 162.129079 218.965069 160.877174 218.965069 
C 159.625269 218.965069 158.424471 219.095867 157.53924 219.328657 
C 156.65401 219.561447 156.156623 219.877223 156.156623 220.206437 
C 156.156623 220.535652 156.65401 220.851427 157.53924 221.084217 
C 158.424471 221.317007 159.625269 221.447806 160.877174 221.447806 
z
" style="fill:#0000ff;opacity:0.2;stroke:#0000ff;stroke-linejoin:miter;stroke-width:2;"/>
   </g>
   <g id="[&quot;g_s&quot;:6,&quot;g_t&quot;:6,&quot;coords&quot;:[[125.0, -642.0],[138.5, -667.5]],&quot;certainty&quot;:4]">
    <path clip-path="url(#p4b8ef47ae3)" d="M 135.386197 208.785849 
C 136.638102 208.785849 137.838901 208.655051 138.724131 208.422261 
C 139.609361 208.189471 140.106749 207.873696 140.106749 207.544481 
C 140.106749 207.215266 139.609361 206.899491 138.724131 206.666701 
C 137.838901 206.433911 136.638102 206.303113 135.386197 206.303113 
C 134.134292 206.303113 132.933494 206.433911 132.048263 206.666701 
C 131.163033 206.899491 130.665646 207.215266 130.665646 207.544481 
C 130.665646 207.873696 131.163033 208.189471 132.048263 208.422261 
C 132.933494 208.655051 134.134292 208.785849 135.386197 208.785849 
z
" style="fill:#ff0000;opacity:0.2;stroke:#ff0000;stroke-linejoin:miter;stroke-width:2;"/>
   </g>
   <g id="patch_30">
    <path d="M 160.877174 220.206437 
Q 149.026297 214.319833 137.967024 208.826437 
" style="fill:none;opacity:0.5;stroke:#ff0000;stroke-linecap:round;stroke-width:1.25;"/>
    <path d="M 138.643125 210.837131 
L 137.967024 208.826437 
L 139.977718 208.150336 
" style="fill:none;opacity:0.5;stroke:#ff0000;stroke-linecap:round;stroke-width:1.25;"/>
   </g>
   <g id="[&quot;g_s&quot;:7,&quot;g_t&quot;:7,&quot;coords&quot;:[[121.5, -638.5],[94.0, -597.0]],&quot;certainty&quot;:11]">
    <path clip-path="url(#p4b8ef47ae3)" d="M 128.777425 208.785849 
C 131.781997 208.785849 134.663914 208.471933 136.788467 207.913237 
C 138.91302 207.354541 140.106749 206.596681 140.106749 205.806565 
C 140.106749 205.01645 138.91302 204.258589 136.788467 203.699893 
C 134.663914 203.141198 131.781997 202.827281 128.777425 202.827281 
C 125.772854 202.827281 122.890937 203.141198 120.766384 203.699893 
C 118.641831 204.258589 117.448102 205.01645 117.448102 205.806565 
C 117.448102 206.596681 118.641831 207.354541 120.766384 207.913237 
C 122.890937 208.471933 125.772854 208.785849 128.777425 208.785849 
z
" style="fill:#0000ff;opacity:0.2;stroke:#0000ff;stroke-linejoin:miter;stroke-width:2;"/>
   </g>
   <g id="[&quot;g_s&quot;:7,&quot;g_t&quot;:7,&quot;coords&quot;:[[94.0, -597.0],[121.5, -638.5]],&quot;certainty&quot;:11]">
    <path clip-path="url(#p4b8ef47ae3)" d="M 76.851362 188.179136 
C 79.855933 188.179136 82.73785 187.86522 84.862403 187.306524 
C 86.986956 186.747828 88.180685 185.989967 88.180685 185.199852 
C 88.180685 184.409737 86.986956 183.651876 84.862403 183.09318 
C 82.73785 182.534484 79.855933 182.220568 76.851362 182.220568 
C 73.84679 182.220568 70.964873 182.534484 68.84032 183.09318 
C 66.715767 183.651876 65.522039 184.409737 65.522039 185.199852 
C 65.522039 185.989967 66.715767 186.747828 68.84032 187.306524 
C 70.964873 187.86522 73.84679 188.179136 76.851362 188.179136 
z
" style="fill:#ff0000;opacity:0.2;stroke:#ff0000;stroke-linejoin:miter;stroke-width:2;"/>
   </g>
   <g id="patch_31">
    <path d="M 128.777425 205.806565 
Q 103.744588 195.872354 80.683483 186.720618 
" style="fill:none;opacity:0.5;stroke:#ff0000;stroke-linecap:round;stroke-width:3;"/>
    <path d="M 81.524414 188.668139 
L 80.683483 186.720618 
L 82.631003 185.879687 
" style="fill:none;opacity:0.5;stroke:#ff0000;stroke-linecap:round;stroke-width:3;"/>
   </g>
   <g id="patch_32">
    <path clip-path="url(#p4b8ef47ae3)" d="M 388.8798 227.033963 
C 391.38361 227.033963 393.785207 226.772366 395.555668 226.306786 
C 397.326129 225.841206 398.320903 225.209656 398.320903 224.551226 
C 398.320903 223.892797 397.326129 223.261246 395.555668 222.795666 
C 393.785207 222.330087 391.38361 222.06849 388.8798 222.06849 
C 386.375991 222.06849 383.974394 222.330087 382.203933 222.795666 
C 380.433472 223.261246 379.438698 223.892797 379.438698 224.551226 
C 379.438698 225.209656 380.433472 225.841206 382.203933 226.306786 
C 383.974394 226.772366 386.375991 227.033963 388.8798 227.033963 
z
" style="fill:#008000;opacity:0.2;stroke:#008000;stroke-linejoin:miter;stroke-width:2;"/>
   </g>
   <g id="patch_33">
    <path clip-path="url(#p4b8ef47ae3)" d="M 111.311386 306.481533 
C 113.815195 306.481533 116.216793 306.219936 117.987253 305.754356 
C 119.757714 305.288776 120.752488 304.657226 120.752488 303.998796 
C 120.752488 303.340367 119.757714 302.708816 117.987253 302.243236 
C 116.216793 301.777656 113.815195 301.51606 111.311386 301.51606 
C 108.807576 301.51606 106.405979 301.777656 104.635518 302.243236 
C 102.865057 302.708816 101.870283 303.340367 101.870283 303.998796 
C 101.870283 304.657226 102.865057 305.288776 104.635518 305.754356 
C 106.405979 306.219936 108.807576 306.481533 111.311386 306.481533 
z
" style="fill:#008000;opacity:0.2;stroke:#008000;stroke-linejoin:miter;stroke-width:2;"/>
   </g>
   <g id="patch_34">
    <path clip-path="url(#p4b8ef47ae3)" d="M 95.261511 292.578208 
C 97.765321 292.578208 100.166918 292.316611 101.937379 291.851031 
C 103.70784 291.385451 104.702614 290.753901 104.702614 290.095471 
C 104.702614 289.437042 103.70784 288.805491 101.937379 288.339912 
C 100.166918 287.874332 97.765321 287.612735 95.261511 287.612735 
C 92.757702 287.612735 90.356105 287.874332 88.585644 288.339912 
C 86.815183 288.805491 85.820409 289.437042 85.820409 290.095471 
C 85.820409 290.753901 86.815183 291.385451 88.585644 291.851031 
C 90.356105 292.316611 92.757702 292.578208 95.261511 292.578208 
z
" style="fill:#008000;opacity:0.2;stroke:#008000;stroke-linejoin:miter;stroke-width:2;"/>
   </g>
   <g id="patch_35">
    <path clip-path="url(#p4b8ef47ae3)" d="M 256.704365 246.895855 
C 259.208175 246.895855 261.609772 246.634259 263.380232 246.168679 
C 265.150693 245.703099 266.145467 245.071548 266.145467 244.413119 
C 266.145467 243.754689 265.150693 243.123139 263.380232 242.657559 
C 261.609772 242.191979 259.208175 241.930382 256.704365 241.930382 
C 254.200555 241.930382 251.798958 242.191979 250.028497 242.657559 
C 248.258036 243.123139 247.263262 243.754689 247.263262 244.413119 
C 247.263262 245.071548 248.258036 245.703099 250.028497 246.168679 
C 251.798958 246.634259 254.200555 246.895855 256.704365 246.895855 
z
" style="fill:#008000;opacity:0.2;stroke:#008000;stroke-linejoin:miter;stroke-width:2;"/>
   </g>
   <g id="patch_36">
    <path clip-path="url(#p4b8ef47ae3)" d="M 148.131686 216.358196 
C 150.635495 216.358196 153.037093 216.096599 154.807553 215.631019 
C 156.578014 215.165439 157.572788 214.533889 157.572788 213.875459 
C 157.572788 213.21703 156.578014 212.585479 154.807553 212.119899 
C 153.037093 211.654319 150.635495 211.392723 148.131686 211.392723 
C 145.627876 211.392723 143.226279 211.654319 141.455818 212.119899 
C 139.685357 212.585479 138.690583 213.21703 138.690583 213.875459 
C 138.690583 214.533889 139.685357 215.165439 141.455818 215.631019 
C 143.226279 216.096599 145.627876 216.358196 148.131686 216.358196 
z
" style="fill:#008000;opacity:0.2;stroke:#008000;stroke-linejoin:miter;stroke-width:2;"/>
   </g>
   <g id="patch_37">
    <path clip-path="url(#p4b8ef47ae3)" d="M 102.814394 197.985945 
C 105.318203 197.985945 107.7198 197.724348 109.490261 197.258768 
C 111.260722 196.793189 112.255496 196.161638 112.255496 195.503209 
C 112.255496 194.844779 111.260722 194.213229 109.490261 193.747649 
C 107.7198 193.282069 105.318203 193.020472 102.814394 193.020472 
C 100.310584 193.020472 97.908987 193.282069 96.138526 193.747649 
C 94.368065 194.213229 93.373291 194.844779 93.373291 195.503209 
C 93.373291 196.161638 94.368065 196.793189 96.138526 197.258768 
C 97.908987 197.724348 100.310584 197.985945 102.814394 197.985945 
z
" style="fill:#008000;opacity:0.2;stroke:#008000;stroke-linejoin:miter;stroke-width:2;"/>
   </g>
   <g id="patch_38">
    <path clip-path="url(#p4b8ef47ae3)" d="M 212.803238 162.855223 
C 222.818477 162.855223 232.424865 161.808836 239.506709 159.946516 
C 246.588552 158.084196 250.567648 155.557994 250.567648 152.924277 
C 250.567648 150.290559 246.588552 147.764357 239.506709 145.902037 
C 232.424865 144.039718 222.818477 142.99333 212.803238 142.99333 
C 202.787999 142.99333 193.181611 144.039718 186.099768 145.902037 
C 179.017924 147.764357 175.038828 150.290559 175.038828 152.924277 
C 175.038828 155.557994 179.017924 158.084196 186.099768 159.946516 
C 193.181611 161.808836 202.787999 162.855223 212.803238 162.855223 
z
" style="fill:none;opacity:0.2;stroke:#ff0000;stroke-linejoin:miter;stroke-width:2;"/>
   </g>
   <g id="patch_39">
    <path clip-path="url(#p4b8ef47ae3)" d="M 221.30023 193.392883 
C 231.315469 193.392883 240.921858 192.346495 248.003701 190.484176 
C 255.085544 188.621856 259.06464 186.095654 259.06464 183.461936 
C 259.06464 180.828219 255.085544 178.302017 248.003701 176.439697 
C 240.921858 174.577377 231.315469 173.53099 221.30023 173.53099 
C 211.284992 173.53099 201.678603 174.577377 194.59676 176.439697 
C 187.514917 178.302017 183.53582 180.828219 183.53582 183.461936 
C 183.53582 186.095654 187.514917 188.621856 194.59676 190.484176 
C 201.678603 192.346495 211.284992 193.392883 221.30023 193.392883 
z
" style="fill:none;opacity:0.2;stroke:#0000ff;stroke-linejoin:miter;stroke-width:2;"/>
   </g>
   <g id="patch_40">
    <path clip-path="url(#p4b8ef47ae3)" d="M 407.28995 221.944353 
C 412.29757 221.944353 417.100764 221.421159 420.641686 220.49 
C 424.182607 219.55884 426.172155 218.295739 426.172155 216.97888 
C 426.172155 215.662021 424.182607 214.39892 420.641686 213.46776 
C 417.100764 212.5366 412.29757 212.013407 407.28995 212.013407 
C 402.282331 212.013407 397.479137 212.5366 393.938215 213.46776 
C 390.397293 214.39892 388.407745 215.662021 388.407745 216.97888 
C 388.407745 218.295739 390.397293 219.55884 393.938215 220.49 
C 397.479137 221.421159 402.282331 221.944353 407.28995 221.944353 
z
" style="fill:none;opacity:0.2;stroke:#008000;stroke-linejoin:miter;stroke-width:2;"/>
   </g>
   <g id="patch_41">
    <path clip-path="url(#p4b8ef47ae3)" d="M 370.46965 237.089046 
C 375.47727 237.089046 380.280464 236.565852 383.821386 235.634693 
C 387.362307 234.703533 389.351855 233.440432 389.351855 232.123573 
C 389.351855 230.806714 387.362307 229.543613 383.821386 228.612453 
C 380.280464 227.681293 375.47727 227.1581 370.46965 227.1581 
C 365.462031 227.1581 360.658837 227.681293 357.117915 228.612453 
C 353.576994 229.543613 351.587445 230.806714 351.587445 232.123573 
C 351.587445 233.440432 353.576994 234.703533 357.117915 235.634693 
C 360.658837 236.565852 365.462031 237.089046 370.46965 237.089046 
z
" style="fill:none;opacity:0.2;stroke:#008000;stroke-linejoin:miter;stroke-width:2;"/>
   </g>
   <g id="patch_42">
    <path d="M 388.8798 224.551226 
Q 250.095593 264.275011 111.311386 303.998796 
" style="fill:none;opacity:0.5;stroke:#008000;stroke-linecap:round;stroke-width:2;"/>
   </g>
   <g id="patch_43">
    <path d="M 405.98205 217.516837 
Q 389.803454 224.171315 373.624858 230.825793 
" style="fill:none;opacity:0.5;stroke:#800080;stroke-linecap:round;stroke-width:2;"/>
    <path d="M 404.024223 216.700189 
L 405.98205 217.516837 
L 405.165403 219.474664 
" style="fill:none;opacity:0.5;stroke:#800080;stroke-linecap:round;stroke-width:2;"/>
    <path d="M 375.582685 231.64244 
L 373.624858 230.825793 
L 374.441505 228.867966 
" style="fill:none;opacity:0.5;stroke:#800080;stroke-linecap:round;stroke-width:2;"/>
   </g>
   <g id="patch_44">
    <path d="M 111.311386 303.998796 
Q 103.286449 297.047134 95.261511 290.095471 
" style="fill:none;opacity:0.5;stroke:#008000;stroke-linecap:round;stroke-width:2;"/>
   </g>
   <g id="patch_45">
    <path d="M 99.035943 303.887483 
Q 110.310401 303.989719 121.584859 304.091956 
" style="fill:none;opacity:0.5;stroke:#800080;stroke-linecap:round;stroke-width:2;"/>
    <path d="M 100.522279 305.401023 
L 99.035943 303.887483 
L 100.549482 302.401146 
" style="fill:none;opacity:0.5;stroke:#800080;stroke-linecap:round;stroke-width:2;"/>
    <path d="M 120.098522 302.578416 
L 121.584859 304.091956 
L 120.071319 305.578293 
" style="fill:none;opacity:0.5;stroke:#800080;stroke-linecap:round;stroke-width:2;"/>
   </g>
   <g id="patch_46">
    <path d="M 95.261511 290.095471 
Q 175.982938 267.254295 256.704365 244.413119 
" style="fill:none;opacity:0.5;stroke:#008000;stroke-linecap:round;stroke-width:2;"/>
   </g>
   <g id="patch_47">
    <path d="M 78.256375 288.1462 
Q 94.265943 289.981351 110.275512 291.816502 
" style="fill:none;opacity:0.5;stroke:#800080;stroke-linecap:round;stroke-width:2;"/>
    <path d="M 79.575792 289.807265 
L 78.256375 288.1462 
L 79.91744 286.826782 
" style="fill:none;opacity:0.5;stroke:#800080;stroke-linecap:round;stroke-width:2;"/>
    <path d="M 108.956094 290.155437 
L 110.275512 291.816502 
L 108.614446 293.13592 
" style="fill:none;opacity:0.5;stroke:#800080;stroke-linecap:round;stroke-width:2;"/>
   </g>
   <g id="patch_48">
    <path d="M 256.704365 244.413119 
Q 202.418025 229.144289 148.131686 213.875459 
" style="fill:none;opacity:0.5;stroke:#008000;stroke-linecap:round;stroke-width:2;"/>
   </g>
   <g id="patch_49">
    <path d="M 246.220903 240.332985 
Q 255.772298 244.050361 265.323693 247.767737 
" style="fill:none;opacity:0.5;stroke:#800080;stroke-linecap:round;stroke-width:2;"/>
    <path d="M 247.074721 242.27489 
L 246.220903 240.332985 
L 248.162808 239.479168 
" style="fill:none;opacity:0.5;stroke:#800080;stroke-linecap:round;stroke-width:2;"/>
    <path d="M 264.469875 245.825832 
L 265.323693 247.767737 
L 263.381788 248.621554 
" style="fill:none;opacity:0.5;stroke:#800080;stroke-linecap:round;stroke-width:2;"/>
   </g>
   <g id="patch_50">
    <path d="M 148.131686 213.875459 
Q 125.47304 204.689334 102.814394 195.503209 
" style="fill:none;opacity:0.5;stroke:#008000;stroke-linecap:round;stroke-width:2;"/>
   </g>
   <g id="patch_51">
    <path d="M 136.652764 208.173614 
Q 147.237074 213.431085 157.821385 218.688556 
" style="fill:none;opacity:0.5;stroke:#800080;stroke-linecap:round;stroke-width:2;"/>
    <path d="M 137.328865 210.184307 
L 136.652764 208.173614 
L 138.663458 207.497513 
" style="fill:none;opacity:0.5;stroke:#800080;stroke-linecap:round;stroke-width:2;"/>
    <path d="M 157.145284 216.677863 
L 157.821385 218.688556 
L 155.810691 219.364657 
" style="fill:none;opacity:0.5;stroke:#800080;stroke-linecap:round;stroke-width:2;"/>
   </g>
   <g id="patch_52">
    <path clip-path="url(#p4b8ef47ae3)" d="M 239.238325 123.131438 
C 240.239849 123.131438 241.200488 123.026799 241.908672 122.840567 
C 242.616857 122.654335 243.014766 122.401715 243.014766 122.138343 
C 243.014766 121.874972 242.616857 121.622351 241.908672 121.436119 
C 241.200488 121.249887 240.239849 121.145249 239.238325 121.145249 
C 238.236801 121.145249 237.276162 121.249887 236.567978 121.436119 
C 235.859794 121.622351 235.461884 121.874972 235.461884 122.138343 
C 235.461884 122.401715 235.859794 122.654335 236.567978 122.840567 
C 237.276162 123.026799 238.236801 123.131438 239.238325 123.131438 
z
" style="fill:#ff0000;opacity:0.2;stroke:#ff0000;stroke-linejoin:miter;stroke-width:2;"/>
   </g>
   <g id="patch_53">
    <path clip-path="url(#p4b8ef47ae3)" d="M 86.292464 84.400748 
C 87.293988 84.400748 88.254627 84.296109 88.962811 84.109877 
C 89.670995 83.923645 90.068905 83.671025 90.068905 83.407653 
C 90.068905 83.144281 89.670995 82.891661 88.962811 82.705429 
C 88.254627 82.519197 87.293988 82.414558 86.292464 82.414558 
C 85.29094 82.414558 84.330301 82.519197 83.622117 82.705429 
C 82.913933 82.891661 82.516023 83.144281 82.516023 83.407653 
C 82.516023 83.671025 82.913933 83.923645 83.622117 84.109877 
C 84.330301 84.296109 85.29094 84.400748 86.292464 84.400748 
z
" style="fill:#ff0000;opacity:0.2;stroke:#ff0000;stroke-linejoin:miter;stroke-width:2;"/>
   </g>
   <g id="patch_54">
    <path clip-path="url(#p4b8ef47ae3)" d="M 239.238325 41.697679 
C 240.239849 41.697679 241.200488 41.59304 241.908672 41.406808 
C 242.616857 41.220576 243.014766 40.967956 243.014766 40.704584 
C 243.014766 40.441212 242.616857 40.188592 241.908672 40.00236 
C 241.200488 39.816128 240.239849 39.71149 239.238325 39.71149 
C 238.236801 39.71149 237.276162 39.816128 236.567978 40.00236 
C 235.859794 40.188592 235.461884 40.441212 235.461884 40.704584 
C 235.461884 40.967956 235.859794 41.220576 236.567978 41.406808 
C 237.276162 41.59304 238.236801 41.697679 239.238325 41.697679 
z
" style="fill:#ff0000;opacity:0.2;stroke:#ff0000;stroke-linejoin:miter;stroke-width:2;"/>
   </g>
   <g id="patch_55">
    <path clip-path="url(#p4b8ef47ae3)" d="M 392.184186 84.400748 
C 393.18571 84.400748 394.146349 84.296109 394.854533 84.109877 
C 395.562718 83.923645 395.960627 83.671025 395.960627 83.407653 
C 395.960627 83.144281 395.562718 82.891661 394.854533 82.705429 
C 394.146349 82.519197 393.18571 82.414558 392.184186 82.414558 
C 391.182662 82.414558 390.222024 82.519197 389.513839 82.705429 
C 388.805655 82.891661 388.407745 83.144281 388.407745 83.407653 
C 388.407745 83.671025 388.805655 83.923645 389.513839 84.109877 
C 390.222024 84.296109 391.182662 84.400748 392.184186 84.400748 
z
" style="fill:#ff0000;opacity:0.2;stroke:#ff0000;stroke-linejoin:miter;stroke-width:2;"/>
   </g>
   <g id="patch_56">
    <path clip-path="url(#p4b8ef47ae3)" d="M 239.238325 85.89039 
C 240.239849 85.89039 241.200488 85.785751 241.908672 85.599519 
C 242.616857 85.413287 243.014766 85.160667 243.014766 84.897295 
C 243.014766 84.633923 242.616857 84.381303 241.908672 84.195071 
C 241.200488 84.008839 240.239849 83.9042 239.238325 83.9042 
C 238.236801 83.9042 237.276162 84.008839 236.567978 84.195071 
C 235.859794 84.381303 235.461884 84.633923 235.461884 84.897295 
C 235.461884 85.160667 235.859794 85.413287 236.567978 85.599519 
C 237.276162 85.785751 238.236801 85.89039 239.238325 85.89039 
z
" style="fill:#0000ff;opacity:0.2;stroke:#0000ff;stroke-linejoin:miter;stroke-width:2;"/>
   </g>
   <g id="patch_57">
    <path clip-path="url(#p4b8ef47ae3)" d="M 133.497977 58.580287 
C 134.499501 58.580287 135.460139 58.475649 136.168324 58.289417 
C 136.876508 58.103185 137.274418 57.850565 137.274418 57.587193 
C 137.274418 57.323821 136.876508 57.071201 136.168324 56.884969 
C 135.460139 56.698737 134.499501 56.594098 133.497977 56.594098 
C 132.496453 56.594098 131.535814 56.698737 130.82763 56.884969 
C 130.119445 57.071201 129.721536 57.323821 129.721536 57.587193 
C 129.721536 57.850565 130.119445 58.103185 130.82763 58.289417 
C 131.535814 58.475649 132.496453 58.580287 133.497977 58.580287 
z
" style="fill:#0000ff;opacity:0.2;stroke:#0000ff;stroke-linejoin:miter;stroke-width:2;"/>
   </g>
   <g id="patch_58">
    <path clip-path="url(#p4b8ef47ae3)" d="M 239.238325 29.283996 
C 240.239849 29.283996 241.200488 29.179357 241.908672 28.993125 
C 242.616857 28.806893 243.014766 28.554273 243.014766 28.290901 
C 243.014766 28.02753 242.616857 27.774909 241.908672 27.588677 
C 241.200488 27.402446 240.239849 27.297807 239.238325 27.297807 
C 238.236801 27.297807 237.276162 27.402446 236.567978 27.588677 
C 235.859794 27.774909 235.461884 28.02753 235.461884 28.290901 
C 235.461884 28.554273 235.859794 28.806893 236.567978 28.993125 
C 237.276162 29.179357 238.236801 29.283996 239.238325 29.283996 
z
" style="fill:#0000ff;opacity:0.2;stroke:#0000ff;stroke-linejoin:miter;stroke-width:2;"/>
   </g>
   <g id="patch_59">
    <path clip-path="url(#p4b8ef47ae3)" d="M 344.978674 58.580287 
C 345.980197 58.580287 346.940836 58.475649 347.649021 58.289417 
C 348.357205 58.103185 348.755115 57.850565 348.755115 57.587193 
C 348.755115 57.323821 348.357205 57.071201 347.649021 56.884969 
C 346.940836 56.698737 345.980197 56.594098 344.978674 56.594098 
C 343.97715 56.594098 343.016511 56.698737 342.308327 56.884969 
C 341.600142 57.071201 341.202233 57.323821 341.202233 57.587193 
C 341.202233 57.850565 341.600142 58.103185 342.308327 58.289417 
C 343.016511 58.475649 343.97715 58.580287 344.978674 58.580287 
z
" style="fill:#0000ff;opacity:0.2;stroke:#0000ff;stroke-linejoin:miter;stroke-width:2;"/>
   </g>
   <g id="patch_60">
    <path clip-path="url(#p4b8ef47ae3)" d="M 239.238325 122.138343 
C 163.709505 122.138343 86.292464 107.241924 86.292464 83.407653 
C 86.292464 59.076835 154.268402 40.704584 239.238325 40.704584 
C 329.87291 40.704584 392.184186 60.566477 392.184186 83.407653 
C 392.184186 105.752282 329.87291 122.138343 239.238325 122.138343 
" style="fill:none;stroke:#ff0000;stroke-linejoin:miter;stroke-width:0.5;"/>
   </g>
   <g id="patch_61">
    <path clip-path="url(#p4b8ef47ae3)" d="M 239.238325 84.897295 
C 184.47993 84.897295 133.497977 74.469801 133.497977 57.587193 
C 133.497977 40.704584 178.815269 28.290901 239.238325 28.290901 
C 303.437822 28.290901 344.978674 41.697679 344.978674 57.587193 
C 344.978674 73.476707 303.437822 84.897295 239.238325 84.897295 
" style="fill:none;stroke:#0000ff;stroke-linejoin:miter;stroke-width:0.5;"/>
   </g>
   <g id="[&quot;g_s&quot;:1,&quot;g_t&quot;:2,&quot;coords&quot;:[[180.0, -470.0],[124.0, -340.0]],&quot;certainty&quot;:10]">
    <path clip-path="url(#p4b8ef47ae3)" d="M 239.238325 124.869354 
C 241.992516 124.869354 244.634273 124.581597 246.58178 124.069459 
C 248.529286 123.557321 249.623538 122.862616 249.623538 122.138343 
C 249.623538 121.414071 248.529286 120.719365 246.58178 120.207227 
C 244.634273 119.69509 241.992516 119.407333 239.238325 119.407333 
C 236.484135 119.407333 233.842378 119.69509 231.894871 120.207227 
C 229.947364 120.719365 228.853112 121.414071 228.853112 122.138343 
C 228.853112 122.862616 229.947364 123.557321 231.894871 124.069459 
C 233.842378 124.581597 236.484135 124.869354 239.238325 124.869354 
z
" style="fill:#0000ff;opacity:0.2;stroke:#0000ff;stroke-linejoin:miter;stroke-width:2;"/>
   </g>
   <g id="[&quot;g_s&quot;:2,&quot;g_t&quot;:1,&quot;coords&quot;:[[124.0, -340.0],[180.0, -470.0]],&quot;certainty&quot;:10]">
    <path clip-path="url(#p4b8ef47ae3)" d="M 133.497977 60.318203 
C 136.252167 60.318203 138.893924 60.030447 140.841431 59.518309 
C 142.788938 59.006171 143.88319 58.311465 143.88319 57.587193 
C 143.88319 56.86292 142.788938 56.168215 140.841431 55.656077 
C 138.893924 55.143939 136.252167 54.856183 133.497977 54.856183 
C 130.743786 54.856183 128.102029 55.143939 126.154522 55.656077 
C 124.207016 56.168215 123.112764 56.86292 123.112764 57.587193 
C 123.112764 58.311465 124.207016 59.006171 126.154522 59.518309 
C 128.102029 60.030447 130.743786 60.318203 133.497977 60.318203 
z
" style="fill:#ff0000;opacity:0.2;stroke:#ff0000;stroke-linejoin:miter;stroke-width:2;"/>
   </g>
   <g id="patch_62">
    <path d="M 239.238325 122.138343 
Q 187.221676 90.383818 136.864746 59.642499 
" style="fill:none;opacity:0.5;stroke:#0000ff;stroke-linecap:round;stroke-width:2.75;"/>
    <path d="M 137.363459 61.704364 
L 136.864746 59.642499 
L 138.92661 59.143786 
" style="fill:none;opacity:0.5;stroke:#0000ff;stroke-linecap:round;stroke-width:2.75;"/>
   </g>
   <g id="[&quot;g_s&quot;:2,&quot;g_t&quot;:1,&quot;coords&quot;:[[99.0, -392.0],[180.0, -395.0]],&quot;certainty&quot;:12]">
    <path clip-path="url(#p4b8ef47ae3)" d="M 86.292464 86.635211 
C 89.547417 86.635211 92.669493 86.295135 94.971092 85.689881 
C 97.272691 85.084627 98.565897 84.263611 98.565897 83.407653 
C 98.565897 82.551695 97.272691 81.730679 94.971092 81.125425 
C 92.669493 80.520171 89.547417 80.180095 86.292464 80.180095 
C 83.037512 80.180095 79.915435 80.520171 77.613836 81.125425 
C 75.312237 81.730679 74.019031 82.551695 74.019031 83.407653 
C 74.019031 84.263611 75.312237 85.084627 77.613836 85.689881 
C 79.915435 86.295135 83.037512 86.635211 86.292464 86.635211 
z
" style="fill:#0000ff;opacity:0.2;stroke:#0000ff;stroke-linejoin:miter;stroke-width:2;"/>
   </g>
   <g id="[&quot;g_s&quot;:1,&quot;g_t&quot;:2,&quot;coords&quot;:[[180.0, -395.0],[99.0, -392.0]],&quot;certainty&quot;:12]">
    <path clip-path="url(#p4b8ef47ae3)" d="M 239.238325 88.124852 
C 242.493278 88.124852 245.615354 87.784777 247.916953 87.179523 
C 250.218552 86.574269 251.511758 85.753253 251.511758 84.897295 
C 251.511758 84.041337 250.218552 83.220321 247.916953 82.615067 
C 245.615354 82.009813 242.493278 81.669737 239.238325 81.669737 
C 235.983373 81.669737 232.861296 82.009813 230.559697 82.615067 
C 228.258098 83.220321 226.964892 84.041337 226.964892 84.897295 
C 226.964892 85.753253 228.258098 86.574269 230.559697 87.179523 
C 232.861296 87.784777 235.983373 88.124852 239.238325 88.124852 
z
" style="fill:#ff0000;opacity:0.2;stroke:#ff0000;stroke-linejoin:miter;stroke-width:2;"/>
   </g>
   <g id="patch_63">
    <path d="M 86.292464 83.407653 
Q 161.764208 84.142723 234.937964 84.855411 
" style="fill:none;opacity:0.5;stroke:#0000ff;stroke-linecap:round;stroke-width:3.25;"/>
    <path d="M 233.452644 83.340873 
L 234.937964 84.855411 
L 233.423426 86.340731 
" style="fill:none;opacity:0.5;stroke:#0000ff;stroke-linecap:round;stroke-width:3.25;"/>
   </g>
   <g id="[&quot;g_s&quot;:3,&quot;g_t&quot;:3,&quot;coords&quot;:[[180.0, -306.0],[180.0, -281.0]],&quot;certainty&quot;:11]">
    <path clip-path="url(#p4b8ef47ae3)" d="M 239.238325 43.683868 
C 242.242897 43.683868 245.124813 43.369952 247.249366 42.811256 
C 249.373919 42.25256 250.567648 41.4947 250.567648 40.704584 
C 250.567648 39.914469 249.373919 39.156608 247.249366 38.597912 
C 245.124813 38.039217 242.242897 37.7253 239.238325 37.7253 
C 236.233754 37.7253 233.351837 38.039217 231.227284 38.597912 
C 229.102731 39.156608 227.909002 39.914469 227.909002 40.704584 
C 227.909002 41.4947 229.102731 42.25256 231.227284 42.811256 
C 233.351837 43.369952 236.233754 43.683868 239.238325 43.683868 
z
" style="fill:#0000ff;opacity:0.2;stroke:#0000ff;stroke-linejoin:miter;stroke-width:2;"/>
   </g>
   <g id="[&quot;g_s&quot;:3,&quot;g_t&quot;:3,&quot;coords&quot;:[[180.0, -281.0],[180.0, -306.0]],&quot;certainty&quot;:11]">
    <path clip-path="url(#p4b8ef47ae3)" d="M 239.238325 31.270185 
C 242.242897 31.270185 245.124813 30.956269 247.249366 30.397573 
C 249.373919 29.838877 250.567648 29.081017 250.567648 28.290901 
C 250.567648 27.500786 249.373919 26.742926 247.249366 26.18423 
C 245.124813 25.625534 242.242897 25.311618 239.238325 25.311618 
C 236.233754 25.311618 233.351837 25.625534 231.227284 26.18423 
C 229.102731 26.742926 227.909002 27.500786 227.909002 28.290901 
C 227.909002 29.081017 229.102731 29.838877 231.227284 30.397573 
C 233.351837 30.956269 236.233754 31.270185 239.238325 31.270185 
z
" style="fill:#ff0000;opacity:0.2;stroke:#ff0000;stroke-linejoin:miter;stroke-width:2;"/>
   </g>
   <g id="patch_64">
    <path d="M 239.238325 40.704584 
Q 239.238325 35.496353 239.238325 32.409443 
" style="fill:none;opacity:0.5;stroke:#0000ff;stroke-linecap:round;stroke-width:3;"/>
    <path d="M 237.738325 33.909443 
L 239.238325 32.409443 
L 240.738325 33.909443 
" style="fill:none;opacity:0.5;stroke:#0000ff;stroke-linecap:round;stroke-width:3;"/>
   </g>
   <g id="[&quot;g_s&quot;:4,&quot;g_t&quot;:4,&quot;coords&quot;:[[261.0, -392.0],[236.0, -340.0]],&quot;certainty&quot;:11]">
    <path clip-path="url(#p4b8ef47ae3)" d="M 392.184186 86.386937 
C 395.188758 86.386937 398.070674 86.073021 400.195227 85.514325 
C 402.31978 84.955629 403.513509 84.197768 403.513509 83.407653 
C 403.513509 82.617538 402.31978 81.859677 400.195227 81.300981 
C 398.070674 80.742285 395.188758 80.428369 392.184186 80.428369 
C 389.179615 80.428369 386.297698 80.742285 384.173145 81.300981 
C 382.048592 81.859677 380.854863 82.617538 380.854863 83.407653 
C 380.854863 84.197768 382.048592 84.955629 384.173145 85.514325 
C 386.297698 86.073021 389.179615 86.386937 392.184186 86.386937 
z
" style="fill:#0000ff;opacity:0.2;stroke:#0000ff;stroke-linejoin:miter;stroke-width:2;"/>
   </g>
   <g id="[&quot;g_s&quot;:4,&quot;g_t&quot;:4,&quot;coords&quot;:[[236.0, -340.0],[261.0, -392.0]],&quot;certainty&quot;:11]">
    <path clip-path="url(#p4b8ef47ae3)" d="M 344.978674 60.566477 
C 347.983245 60.566477 350.865162 60.252561 352.989715 59.693865 
C 355.114268 59.135169 356.307997 58.377308 356.307997 57.587193 
C 356.307997 56.797078 355.114268 56.039217 352.989715 55.480521 
C 350.865162 54.921825 347.983245 54.607909 344.978674 54.607909 
C 341.974102 54.607909 339.092185 54.921825 336.967632 55.480521 
C 334.843079 56.039217 333.649351 56.797078 333.649351 57.587193 
C 333.649351 58.377308 334.843079 59.135169 336.967632 59.693865 
C 339.092185 60.252561 341.974102 60.566477 344.978674 60.566477 
z
" style="fill:#ff0000;opacity:0.2;stroke:#ff0000;stroke-linejoin:miter;stroke-width:2;"/>
   </g>
   <g id="patch_65">
    <path d="M 392.184186 83.407653 
Q 369.458754 70.977301 348.594425 59.564936 
" style="fill:none;opacity:0.5;stroke:#0000ff;stroke-linecap:round;stroke-width:3;"/>
    <path d="M 349.190599 61.600759 
L 348.594425 59.564936 
L 350.630248 58.968762 
" style="fill:none;opacity:0.5;stroke:#0000ff;stroke-linecap:round;stroke-width:3;"/>
   </g>
   <g id="[&quot;g_s&quot;:1,&quot;g_t&quot;:1,&quot;coords&quot;:[[180.0, -395.0],[180.0, -470.0]],&quot;certainty&quot;:10]">
    <path clip-path="url(#p4b8ef47ae3)" d="M 239.238325 87.628305 
C 241.992516 87.628305 244.634273 87.340549 246.58178 86.828411 
C 248.529286 86.316273 249.623538 85.621567 249.623538 84.897295 
C 249.623538 84.173023 248.529286 83.478317 246.58178 82.966179 
C 244.634273 82.454041 241.992516 82.166285 239.238325 82.166285 
C 236.484135 82.166285 233.842378 82.454041 231.894871 82.966179 
C 229.947364 83.478317 228.853112 84.173023 228.853112 84.897295 
C 228.853112 85.621567 229.947364 86.316273 231.894871 86.828411 
C 233.842378 87.340549 236.484135 87.628305 239.238325 87.628305 
z
" style="fill:#0000ff;opacity:0.2;stroke:#0000ff;stroke-linejoin:miter;stroke-width:2;"/>
   </g>
   <g id="[&quot;g_s&quot;:1,&quot;g_t&quot;:1,&quot;coords&quot;:[[180.0, -470.0],[180.0, -395.0]],&quot;certainty&quot;:10]">
    <path clip-path="url(#p4b8ef47ae3)" d="M 239.238325 124.869354 
C 241.992516 124.869354 244.634273 124.581597 246.58178 124.069459 
C 248.529286 123.557321 249.623538 122.862616 249.623538 122.138343 
C 249.623538 121.414071 248.529286 120.719365 246.58178 120.207227 
C 244.634273 119.69509 241.992516 119.407333 239.238325 119.407333 
C 236.484135 119.407333 233.842378 119.69509 231.894871 120.207227 
C 229.947364 120.719365 228.853112 121.414071 228.853112 122.138343 
C 228.853112 122.862616 229.947364 123.557321 231.894871 124.069459 
C 233.842378 124.581597 236.484135 124.869354 239.238325 124.869354 
z
" style="fill:#ff0000;opacity:0.2;stroke:#ff0000;stroke-linejoin:miter;stroke-width:2;"/>
   </g>
   <g id="patch_66">
    <path d="M 239.238325 84.897295 
Q 239.238325 102.519966 239.238325 118.198094 
" style="fill:none;opacity:0.5;stroke:#ff0000;stroke-linecap:round;stroke-width:2.75;"/>
    <path d="M 240.738325 116.698094 
L 239.238325 118.198094 
L 237.738325 116.698094 
" style="fill:none;opacity:0.5;stroke:#ff0000;stroke-linecap:round;stroke-width:2.75;"/>
   </g>
   <g id="[&quot;g_s&quot;:2,&quot;g_t&quot;:2,&quot;coords&quot;:[[124.0, -340.0],[99.0, -392.0]],&quot;certainty&quot;:12]">
    <path clip-path="url(#p4b8ef47ae3)" d="M 133.497977 60.81475 
C 136.752929 60.81475 139.875006 60.474675 142.176605 59.869421 
C 144.478204 59.264167 145.77141 58.443151 145.77141 57.587193 
C 145.77141 56.731235 144.478204 55.910219 142.176605 55.304965 
C 139.875006 54.699711 136.752929 54.359635 133.497977 54.359635 
C 130.243024 54.359635 127.120948 54.699711 124.819349 55.304965 
C 122.51775 55.910219 121.224543 56.731235 121.224543 57.587193 
C 121.224543 58.443151 122.51775 59.264167 124.819349 59.869421 
C 127.120948 60.474675 130.243024 60.81475 133.497977 60.81475 
z
" style="fill:#0000ff;opacity:0.2;stroke:#0000ff;stroke-linejoin:miter;stroke-width:2;"/>
   </g>
   <g id="[&quot;g_s&quot;:2,&quot;g_t&quot;:2,&quot;coords&quot;:[[99.0, -392.0],[124.0, -340.0]],&quot;certainty&quot;:12]">
    <path clip-path="url(#p4b8ef47ae3)" d="M 86.292464 86.635211 
C 89.547417 86.635211 92.669493 86.295135 94.971092 85.689881 
C 97.272691 85.084627 98.565897 84.263611 98.565897 83.407653 
C 98.565897 82.551695 97.272691 81.730679 94.971092 81.125425 
C 92.669493 80.520171 89.547417 80.180095 86.292464 80.180095 
C 83.037512 80.180095 79.915435 80.520171 77.613836 81.125425 
C 75.312237 81.730679 74.019031 82.551695 74.019031 83.407653 
C 74.019031 84.263611 75.312237 85.084627 77.613836 85.689881 
C 79.915435 86.295135 83.037512 86.635211 86.292464 86.635211 
z
" style="fill:#ff0000;opacity:0.2;stroke:#ff0000;stroke-linejoin:miter;stroke-width:2;"/>
   </g>
   <g id="patch_67">
    <path d="M 133.497977 57.587193 
Q 110.772545 70.017544 90.063307 81.345078 
" style="fill:none;opacity:0.5;stroke:#ff0000;stroke-linecap:round;stroke-width:3.25;"/>
    <path d="M 92.099131 81.941252 
L 90.063307 81.345078 
L 90.659481 79.309255 
" style="fill:none;opacity:0.5;stroke:#ff0000;stroke-linecap:round;stroke-width:3.25;"/>
   </g>
   <g id="[&quot;g_s&quot;:3,&quot;g_t&quot;:3,&quot;coords&quot;:[[180.0, -281.0],[180.0, -306.0]],&quot;certainty&quot;:11]">
    <path clip-path="url(#p4b8ef47ae3)" d="M 239.238325 31.270185 
C 242.242897 31.270185 245.124813 30.956269 247.249366 30.397573 
C 249.373919 29.838877 250.567648 29.081017 250.567648 28.290901 
C 250.567648 27.500786 249.373919 26.742926 247.249366 26.18423 
C 245.124813 25.625534 242.242897 25.311618 239.238325 25.311618 
C 236.233754 25.311618 233.351837 25.625534 231.227284 26.18423 
C 229.102731 26.742926 227.909002 27.500786 227.909002 28.290901 
C 227.909002 29.081017 229.102731 29.838877 231.227284 30.397573 
C 233.351837 30.956269 236.233754 31.270185 239.238325 31.270185 
z
" style="fill:#0000ff;opacity:0.2;stroke:#0000ff;stroke-linejoin:miter;stroke-width:2;"/>
   </g>
   <g id="[&quot;g_s&quot;:3,&quot;g_t&quot;:3,&quot;coords&quot;:[[180.0, -306.0],[180.0, -281.0]],&quot;certainty&quot;:11]">
    <path clip-path="url(#p4b8ef47ae3)" d="M 239.238325 43.683868 
C 242.242897 43.683868 245.124813 43.369952 247.249366 42.811256 
C 249.373919 42.25256 250.567648 41.4947 250.567648 40.704584 
C 250.567648 39.914469 249.373919 39.156608 247.249366 38.597912 
C 245.124813 38.039217 242.242897 37.7253 239.238325 37.7253 
C 236.233754 37.7253 233.351837 38.039217 231.227284 38.597912 
C 229.102731 39.156608 227.909002 39.914469 227.909002 40.704584 
C 227.909002 41.4947 229.102731 42.25256 231.227284 42.811256 
C 233.351837 43.369952 236.233754 43.683868 239.238325 43.683868 
z
" style="fill:#ff0000;opacity:0.2;stroke:#ff0000;stroke-linejoin:miter;stroke-width:2;"/>
   </g>
   <g id="patch_68">
    <path d="M 239.238325 28.290901 
Q 239.238325 33.499132 239.238325 36.586043 
" style="fill:none;opacity:0.5;stroke:#ff0000;stroke-linecap:round;stroke-width:3;"/>
    <path d="M 240.738325 35.086043 
L 239.238325 36.586043 
L 237.738325 35.086043 
" style="fill:none;opacity:0.5;stroke:#ff0000;stroke-linecap:round;stroke-width:3;"/>
   </g>
   <g id="[&quot;g_s&quot;:4,&quot;g_t&quot;:4,&quot;coords&quot;:[[236.0, -340.0],[261.0, -392.0]],&quot;certainty&quot;:11]">
    <path clip-path="url(#p4b8ef47ae3)" d="M 344.978674 60.566477 
C 347.983245 60.566477 350.865162 60.252561 352.989715 59.693865 
C 355.114268 59.135169 356.307997 58.377308 356.307997 57.587193 
C 356.307997 56.797078 355.114268 56.039217 352.989715 55.480521 
C 350.865162 54.921825 347.983245 54.607909 344.978674 54.607909 
C 341.974102 54.607909 339.092185 54.921825 336.967632 55.480521 
C 334.843079 56.039217 333.649351 56.797078 333.649351 57.587193 
C 333.649351 58.377308 334.843079 59.135169 336.967632 59.693865 
C 339.092185 60.252561 341.974102 60.566477 344.978674 60.566477 
z
" style="fill:#0000ff;opacity:0.2;stroke:#0000ff;stroke-linejoin:miter;stroke-width:2;"/>
   </g>
   <g id="[&quot;g_s&quot;:4,&quot;g_t&quot;:4,&quot;coords&quot;:[[261.0, -392.0],[236.0, -340.0]],&quot;certainty&quot;:11]">
    <path clip-path="url(#p4b8ef47ae3)" d="M 392.184186 86.386937 
C 395.188758 86.386937 398.070674 86.073021 400.195227 85.514325 
C 402.31978 84.955629 403.513509 84.197768 403.513509 83.407653 
C 403.513509 82.617538 402.31978 81.859677 400.195227 81.300981 
C 398.070674 80.742285 395.188758 80.428369 392.184186 80.428369 
C 389.179615 80.428369 386.297698 80.742285 384.173145 81.300981 
C 382.048592 81.859677 380.854863 82.617538 380.854863 83.407653 
C 380.854863 84.197768 382.048592 84.955629 384.173145 85.514325 
C 386.297698 86.073021 389.179615 86.386937 392.184186 86.386937 
z
" style="fill:#ff0000;opacity:0.2;stroke:#ff0000;stroke-linejoin:miter;stroke-width:2;"/>
   </g>
   <g id="patch_69">
    <path d="M 344.978674 57.587193 
Q 367.704106 70.017544 388.568435 81.42991 
" style="fill:none;opacity:0.5;stroke:#ff0000;stroke-linecap:round;stroke-width:3;"/>
    <path d="M 387.972261 79.394087 
L 388.568435 81.42991 
L 386.532612 82.026084 
" style="fill:none;opacity:0.5;stroke:#ff0000;stroke-linecap:round;stroke-width:3;"/>
   </g>
   <g id="patch_70">
    <path clip-path="url(#p4b8ef47ae3)" d="M 239.238325 36.980479 
C 241.742135 36.980479 244.143732 36.718883 245.914193 36.253303 
C 247.684654 35.787723 248.679428 35.156172 248.679428 34.497743 
C 248.679428 33.839313 247.684654 33.207763 245.914193 32.742183 
C 244.143732 32.276603 241.742135 32.015006 239.238325 32.015006 
C 236.734516 32.015006 234.332918 32.276603 232.562458 32.742183 
C 230.791997 33.207763 229.797223 33.839313 229.797223 34.497743 
C 229.797223 35.156172 230.791997 35.787723 232.562458 36.253303 
C 234.332918 36.718883 236.734516 36.980479 239.238325 36.980479 
z
" style="fill:#008000;opacity:0.2;stroke:#008000;stroke-linejoin:miter;stroke-width:2;"/>
   </g>
   <g id="patch_71">
    <path clip-path="url(#p4b8ef47ae3)" d="M 368.58143 72.980159 
C 371.08524 72.980159 373.486837 72.718563 375.257298 72.252983 
C 377.027758 71.787403 378.022532 71.155852 378.022532 70.497423 
C 378.022532 69.838993 377.027758 69.207443 375.257298 68.741863 
C 373.486837 68.276283 371.08524 68.014686 368.58143 68.014686 
C 366.07762 68.014686 363.676023 68.276283 361.905562 68.741863 
C 360.135101 69.207443 359.140327 69.838993 359.140327 70.497423 
C 359.140327 71.155852 360.135101 71.787403 361.905562 72.252983 
C 363.676023 72.718563 366.07762 72.980159 368.58143 72.980159 
z
" style="fill:#008000;opacity:0.2;stroke:#008000;stroke-linejoin:miter;stroke-width:2;"/>
   </g>
   <g id="patch_72">
    <path clip-path="url(#p4b8ef47ae3)" d="M 239.238325 132.06929 
C 249.253564 132.06929 258.859953 131.022902 265.941796 129.160583 
C 273.023639 127.298263 277.002735 124.772061 277.002735 122.138343 
C 277.002735 119.504626 273.023639 116.978424 265.941796 115.116104 
C 258.859953 113.253784 249.253564 112.207397 239.238325 112.207397 
C 229.223087 112.207397 219.616698 113.253784 212.534855 115.116104 
C 205.453012 116.978424 201.473915 119.504626 201.473915 122.138343 
C 201.473915 124.772061 205.453012 127.298263 212.534855 129.160583 
C 219.616698 131.022902 229.223087 132.06929 239.238325 132.06929 
z
" style="fill:none;opacity:0.2;stroke:#ff0000;stroke-linejoin:miter;stroke-width:2;"/>
   </g>
   <g id="patch_73">
    <path clip-path="url(#p4b8ef47ae3)" d="M 239.238325 94.828241 
C 249.253564 94.828241 258.859953 93.781854 265.941796 91.919534 
C 273.023639 90.057215 277.002735 87.531013 277.002735 84.897295 
C 277.002735 82.263577 273.023639 79.737375 265.941796 77.875056 
C 258.859953 76.012736 249.253564 74.966349 239.238325 74.966349 
C 229.223087 74.966349 219.616698 76.012736 212.534855 77.875056 
C 205.453012 79.737375 201.473915 82.263577 201.473915 84.897295 
C 201.473915 87.531013 205.453012 90.057215 212.534855 91.919534 
C 219.616698 93.781854 229.223087 94.828241 239.238325 94.828241 
z
" style="fill:none;opacity:0.2;stroke:#0000ff;stroke-linejoin:miter;stroke-width:2;"/>
   </g>
   <g id="patch_74">
    <path clip-path="url(#p4b8ef47ae3)" d="M 239.238325 45.670057 
C 244.245944 45.670057 249.049139 45.146864 252.59006 44.215704 
C 256.130982 43.284544 258.12053 42.021443 258.12053 40.704584 
C 258.12053 39.387725 256.130982 38.124624 252.59006 37.193465 
C 249.049139 36.262305 244.245944 35.739111 239.238325 35.739111 
C 234.230706 35.739111 229.427511 36.262305 225.88659 37.193465 
C 222.345668 38.124624 220.35612 39.387725 220.35612 40.704584 
C 220.35612 42.021443 222.345668 43.284544 225.88659 44.215704 
C 229.427511 45.146864 234.230706 45.670057 239.238325 45.670057 
z
" style="fill:none;opacity:0.2;stroke:#008000;stroke-linejoin:miter;stroke-width:2;"/>
   </g>
   <g id="patch_75">
    <path clip-path="url(#p4b8ef47ae3)" d="M 239.238325 33.256375 
C 244.245944 33.256375 249.049139 32.733181 252.59006 31.802021 
C 256.130982 30.870861 258.12053 29.60776 258.12053 28.290901 
C 258.12053 26.974043 256.130982 25.710942 252.59006 24.779782 
C 249.049139 23.848622 244.245944 23.325428 239.238325 23.325428 
C 234.230706 23.325428 229.427511 23.848622 225.88659 24.779782 
C 222.345668 25.710942 220.35612 26.974043 220.35612 28.290901 
C 220.35612 29.60776 222.345668 30.870861 225.88659 31.802021 
C 229.427511 32.733181 234.230706 33.256375 239.238325 33.256375 
z
" style="fill:none;opacity:0.2;stroke:#008000;stroke-linejoin:miter;stroke-width:2;"/>
   </g>
   <g id="patch_76">
    <path d="M 239.238325 34.497743 
Q 303.909878 52.497583 368.58143 70.497423 
" style="fill:none;opacity:0.5;stroke:#008000;stroke-linecap:round;stroke-width:2;"/>
   </g>
   <g id="patch_77">
    <path d="M 239.238325 39.290371 
Q 239.238325 35.496353 239.238325 31.702336 
" style="fill:none;opacity:0.5;stroke:#800080;stroke-linecap:round;stroke-width:2;"/>
    <path d="M 240.738325 37.790371 
L 239.238325 39.290371 
L 237.738325 37.790371 
" style="fill:none;opacity:0.5;stroke:#800080;stroke-linecap:round;stroke-width:2;"/>
    <path d="M 237.738325 33.202336 
L 239.238325 31.702336 
L 240.738325 33.202336 
" style="fill:none;opacity:0.5;stroke:#800080;stroke-linecap:round;stroke-width:2;"/>
   </g>
   <g id="line2d_1">
    <path clip-path="url(#p4b8ef47ae3)" d="M 212.803238 152.924277 
L 407.28995 216.97888 
L 97.621787 303.874659 
L 76.851362 287.985145 
L 244.902987 239.820056 
L 135.386197 207.544481 
L 76.851362 185.199852 
" style="fill:none;stroke:#ff0000;stroke-linecap:square;stroke-width:0.2;"/>
   </g>
   <g id="line2d_2">
    <path clip-path="url(#p4b8ef47ae3)" d="M 221.30023 183.461936 
L 370.46965 232.123573 
L 125.000984 304.122933 
L 113.671661 292.205797 
L 268.505743 249.006181 
L 160.877174 220.206437 
L 128.777425 205.806565 
" style="fill:none;stroke:#0000ff;stroke-linecap:square;stroke-width:0.2;"/>
   </g>
   <g id="line2d_3">
    <path clip-path="url(#p4b8ef47ae3)" d="M 239.238325 122.138343 
L 86.292464 83.407653 
L 239.238325 40.704584 
L 392.184186 83.407653 
" style="fill:none;stroke:#ff0000;stroke-linecap:square;stroke-width:0.2;"/>
   </g>
   <g id="line2d_4">
    <path clip-path="url(#p4b8ef47ae3)" d="M 239.238325 84.897295 
L 133.497977 57.587193 
L 239.238325 28.290901 
L 344.978674 57.587193 
" style="fill:none;stroke:#0000ff;stroke-linecap:square;stroke-width:0.2;"/>
   </g>
  </g>
 </g>
 <defs>
  <clipPath id="p4b8ef47ae3">
   <rect height="307.51175" width="407.100341" x="37.576375" y="13.32"/>
  </clipPath>
 </defs>
</svg>
