<?xml version="1.0" encoding="utf-8" standalone="no"?>
<!DOCTYPE svg PUBLIC "-//W3C//DTD SVG 1.1//EN"
  "http://www.w3.org/Graphics/SVG/1.1/DTD/svg11.dtd">
<!-- Created with matplotlib (http://matplotlib.org/) -->
<svg height="345.6pt" version="1.1" viewBox="0 0 460.8 345.6" width="460.8pt" xmlns="http://www.w3.org/2000/svg" xmlns:xlink="http://www.w3.org/1999/xlink">
 <defs>
  <style type="text/css">
*{stroke-linecap:butt;stroke-linejoin:round;}
  </style>
 </defs>
 <g id="figure_1">
  <g id="patch_1">
   <path d="M 0 345.6 
L 460.8 345.6 
L 460.8 0 
L 0 0 
z
" style="fill:#ffffff;"/>
  </g>
  <g id="axes_1">
   <g id="patch_2">
    <path clip-path="url(#pa00ae2a5d2)" d="M 181.152244 31.869987 
C 181.733568 31.869987 182.291162 31.732343 182.70222 31.487369 
C 183.113279 31.242396 183.344242 30.910094 183.344242 30.56365 
C 183.344242 30.217205 183.113279 29.884903 182.70222 29.63993 
C 182.291162 29.394956 181.733568 29.257312 181.152244 29.257312 
C 180.570919 29.257312 180.013326 29.394956 179.602267 29.63993 
C 179.191208 29.884903 178.960246 30.217205 178.960246 30.56365 
C 178.960246 30.910094 179.191208 31.242396 179.602267 31.487369 
C 180.013326 31.732343 180.570919 31.869987 181.152244 31.869987 
z
" style="fill:#ff0000;opacity:0.2;stroke:#ff0000;stroke-linejoin:miter;stroke-width:2;"/>
   </g>
   <g id="patch_3">
    <path clip-path="url(#pa00ae2a5d2)" d="M 317.056119 31.869987 
C 317.637444 31.869987 318.195037 31.732343 318.606096 31.487369 
C 319.017155 31.242396 319.248117 30.910094 319.248117 30.56365 
C 319.248117 30.217205 319.017155 29.884903 318.606096 29.63993 
C 318.195037 29.394956 317.637444 29.257312 317.056119 29.257312 
C 316.474795 29.257312 315.917201 29.394956 315.506143 29.63993 
C 315.095084 29.884903 314.864121 30.217205 314.864121 30.56365 
C 314.864121 30.910094 315.095084 31.242396 315.506143 31.487369 
C 315.917201 31.732343 316.474795 31.869987 317.056119 31.869987 
z
" style="fill:#ff0000;opacity:0.2;stroke:#ff0000;stroke-linejoin:miter;stroke-width:2;"/>
   </g>
   <g id="patch_4">
    <path clip-path="url(#pa00ae2a5d2)" d="M 421.176024 30.56365 
C 421.757349 30.56365 422.314942 30.426006 422.726001 30.181032 
C 423.137059 29.936059 423.368022 29.603757 423.368022 29.257312 
C 423.368022 28.910868 423.137059 28.578566 422.726001 28.333593 
C 422.314942 28.088619 421.757349 27.950975 421.176024 27.950975 
C 420.594699 27.950975 420.037106 28.088619 419.626047 28.333593 
C 419.214989 28.578566 418.984026 28.910868 418.984026 29.257312 
C 418.984026 29.603757 419.214989 29.936059 419.626047 30.181032 
C 420.037106 30.426006 420.594699 30.56365 421.176024 30.56365 
z
" style="fill:#ff0000;opacity:0.2;stroke:#ff0000;stroke-linejoin:miter;stroke-width:2;"/>
   </g>
   <g id="patch_5">
    <path clip-path="url(#pa00ae2a5d2)" d="M 426.656019 37.748504 
C 427.237344 37.748504 427.794937 37.61086 428.205996 37.365886 
C 428.617054 37.120913 428.848017 36.788611 428.848017 36.442166 
C 428.848017 36.095722 428.617054 35.76342 428.205996 35.518447 
C 427.794937 35.273473 427.237344 35.135829 426.656019 35.135829 
C 426.074694 35.135829 425.517101 35.273473 425.106042 35.518447 
C 424.694984 35.76342 424.464021 36.095722 424.464021 36.442166 
C 424.464021 36.788611 424.694984 37.120913 425.106042 37.365886 
C 425.517101 37.61086 426.074694 37.748504 426.656019 37.748504 
z
" style="fill:#ff0000;opacity:0.2;stroke:#ff0000;stroke-linejoin:miter;stroke-width:2;"/>
   </g>
   <g id="patch_6">
    <path clip-path="url(#pa00ae2a5d2)" d="M 357.608082 102.412189 
C 358.189407 102.412189 358.747 102.274545 359.158059 102.029572 
C 359.569117 101.784599 359.80008 101.452297 359.80008 101.105852 
C 359.80008 100.759408 359.569117 100.427106 359.158059 100.182132 
C 358.747 99.937159 358.189407 99.799515 357.608082 99.799515 
C 357.026758 99.799515 356.469164 99.937159 356.058106 100.182132 
C 355.647047 100.427106 355.416084 100.759408 355.416084 101.105852 
C 355.416084 101.452297 355.647047 101.784599 356.058106 102.029572 
C 356.469164 102.274545 357.026758 102.412189 357.608082 102.412189 
z
" style="fill:#ff0000;opacity:0.2;stroke:#ff0000;stroke-linejoin:miter;stroke-width:2;"/>
   </g>
   <g id="patch_7">
    <path clip-path="url(#pa00ae2a5d2)" d="M 151.560271 304.894438 
C 152.141595 304.894438 152.699189 304.756794 153.110247 304.51182 
C 153.521306 304.266847 153.752269 303.934545 153.752269 303.5881 
C 153.752269 303.241656 153.521306 302.909354 153.110247 302.664381 
C 152.699189 302.419407 152.141595 302.281763 151.560271 302.281763 
C 150.978946 302.281763 150.421353 302.419407 150.010294 302.664381 
C 149.599235 302.909354 149.368273 303.241656 149.368273 303.5881 
C 149.368273 303.934545 149.599235 304.266847 150.010294 304.51182 
C 150.421353 304.756794 150.978946 304.894438 151.560271 304.894438 
z
" style="fill:#ff0000;opacity:0.2;stroke:#ff0000;stroke-linejoin:miter;stroke-width:2;"/>
   </g>
   <g id="patch_8">
    <path clip-path="url(#pa00ae2a5d2)" d="M 106.624312 288.565224 
C 107.205636 288.565224 107.76323 288.42758 108.174288 288.182607 
C 108.585347 287.937633 108.81631 287.605332 108.81631 287.258887 
C 108.81631 286.912442 108.585347 286.58014 108.174288 286.335167 
C 107.76323 286.090194 107.205636 285.95255 106.624312 285.95255 
C 106.042987 285.95255 105.485394 286.090194 105.074335 286.335167 
C 104.663277 286.58014 104.432314 286.912442 104.432314 287.258887 
C 104.432314 287.605332 104.663277 287.937633 105.074335 288.182607 
C 105.485394 288.42758 106.042987 288.565224 106.624312 288.565224 
z
" style="fill:#ff0000;opacity:0.2;stroke:#ff0000;stroke-linejoin:miter;stroke-width:2;"/>
   </g>
   <g id="patch_9">
    <path clip-path="url(#pa00ae2a5d2)" d="M 281.984151 121.354077 
C 282.565476 121.354077 283.123069 121.216433 283.534128 120.97146 
C 283.945187 120.726486 284.176149 120.394185 284.176149 120.04774 
C 284.176149 119.701295 283.945187 119.368993 283.534128 119.12402 
C 283.123069 118.879047 282.565476 118.741403 281.984151 118.741403 
C 281.402827 118.741403 280.845233 118.879047 280.434175 119.12402 
C 280.023116 119.368993 279.792153 119.701295 279.792153 120.04774 
C 279.792153 120.394185 280.023116 120.726486 280.434175 120.97146 
C 280.845233 121.216433 281.402827 121.354077 281.984151 121.354077 
z
" style="fill:#ff0000;opacity:0.2;stroke:#ff0000;stroke-linejoin:miter;stroke-width:2;"/>
   </g>
   <g id="patch_10">
    <path clip-path="url(#pa00ae2a5d2)" d="M 302.808132 91.308324 
C 303.389457 91.308324 303.94705 91.17068 304.358109 90.925707 
C 304.769168 90.680733 305.00013 90.348432 305.00013 90.001987 
C 305.00013 89.655542 304.769168 89.32324 304.358109 89.078267 
C 303.94705 88.833294 303.389457 88.69565 302.808132 88.69565 
C 302.226808 88.69565 301.669214 88.833294 301.258156 89.078267 
C 300.847097 89.32324 300.616134 89.655542 300.616134 90.001987 
C 300.616134 90.348432 300.847097 90.680733 301.258156 90.925707 
C 301.669214 91.17068 302.226808 91.308324 302.808132 91.308324 
z
" style="fill:#ff0000;opacity:0.2;stroke:#ff0000;stroke-linejoin:miter;stroke-width:2;"/>
   </g>
   <g id="patch_11">
    <path clip-path="url(#pa00ae2a5d2)" d="M 281.984151 85.429807 
C 282.565476 85.429807 283.123069 85.292163 283.534128 85.04719 
C 283.945187 84.802217 284.176149 84.469915 284.176149 84.12347 
C 284.176149 83.777025 283.945187 83.444724 283.534128 83.19975 
C 283.123069 82.954777 282.565476 82.817133 281.984151 82.817133 
C 281.402827 82.817133 280.845233 82.954777 280.434175 83.19975 
C 280.023116 83.444724 279.792153 83.777025 279.792153 84.12347 
C 279.792153 84.469915 280.023116 84.802217 280.434175 85.04719 
C 280.845233 85.292163 281.402827 85.429807 281.984151 85.429807 
z
" style="fill:#ff0000;opacity:0.2;stroke:#ff0000;stroke-linejoin:miter;stroke-width:2;"/>
   </g>
   <g id="patch_12">
    <path clip-path="url(#pa00ae2a5d2)" d="M 163.61626 85.429807 
C 164.197584 85.429807 164.755178 85.292163 165.166236 85.04719 
C 165.577295 84.802217 165.808258 84.469915 165.808258 84.12347 
C 165.808258 83.777025 165.577295 83.444724 165.166236 83.19975 
C 164.755178 82.954777 164.197584 82.817133 163.61626 82.817133 
C 163.034935 82.817133 162.477342 82.954777 162.066283 83.19975 
C 161.655224 83.444724 161.424262 83.777025 161.424262 84.12347 
C 161.424262 84.469915 161.655224 84.802217 162.066283 85.04719 
C 162.477342 85.292163 163.034935 85.429807 163.61626 85.429807 
z
" style="fill:#ff0000;opacity:0.2;stroke:#ff0000;stroke-linejoin:miter;stroke-width:2;"/>
   </g>
   <g id="patch_13">
    <path clip-path="url(#pa00ae2a5d2)" d="M 91.280326 110.250212 
C 91.861651 110.250212 92.419244 110.112568 92.830303 109.867594 
C 93.241361 109.622621 93.472324 109.290319 93.472324 108.943875 
C 93.472324 108.59743 93.241361 108.265128 92.830303 108.020155 
C 92.419244 107.775182 91.861651 107.637538 91.280326 107.637538 
C 90.699001 107.637538 90.141408 107.775182 89.730349 108.020155 
C 89.319291 108.265128 89.088328 108.59743 89.088328 108.943875 
C 89.088328 109.290319 89.319291 109.622621 89.730349 109.867594 
C 90.141408 110.112568 90.699001 110.250212 91.280326 110.250212 
z
" style="fill:#ff0000;opacity:0.2;stroke:#ff0000;stroke-linejoin:miter;stroke-width:2;"/>
   </g>
   <g id="patch_14">
    <path clip-path="url(#pa00ae2a5d2)" d="M 58.400356 106.331201 
C 58.981681 106.331201 59.539274 106.193557 59.950333 105.948583 
C 60.361391 105.70361 60.592354 105.371308 60.592354 105.024863 
C 60.592354 104.678419 60.361391 104.346117 59.950333 104.101144 
C 59.539274 103.85617 58.981681 103.718526 58.400356 103.718526 
C 57.819031 103.718526 57.261438 103.85617 56.850379 104.101144 
C 56.439321 104.346117 56.208358 104.678419 56.208358 105.024863 
C 56.208358 105.371308 56.439321 105.70361 56.850379 105.948583 
C 57.261438 106.193557 57.819031 106.331201 58.400356 106.331201 
z
" style="fill:#ff0000;opacity:0.2;stroke:#ff0000;stroke-linejoin:miter;stroke-width:2;"/>
   </g>
   <g id="patch_15">
    <path clip-path="url(#pa00ae2a5d2)" d="M 93.472324 30.56365 
C 94.053649 30.56365 94.611242 30.426006 95.022301 30.181032 
C 95.433359 29.936059 95.664322 29.603757 95.664322 29.257312 
C 95.664322 28.910868 95.433359 28.578566 95.022301 28.333593 
C 94.611242 28.088619 94.053649 27.950975 93.472324 27.950975 
C 92.890999 27.950975 92.333406 28.088619 91.922347 28.333593 
C 91.511289 28.578566 91.280326 28.910868 91.280326 29.257312 
C 91.280326 29.603757 91.511289 29.936059 91.922347 30.181032 
C 92.333406 30.426006 92.890999 30.56365 93.472324 30.56365 
z
" style="fill:#ff0000;opacity:0.2;stroke:#ff0000;stroke-linejoin:miter;stroke-width:2;"/>
   </g>
   <g id="patch_16">
    <path clip-path="url(#pa00ae2a5d2)" d="M 305.54813 64.528414 
C 306.129455 64.528414 306.687048 64.39077 307.098106 64.145796 
C 307.509165 63.900823 307.740128 63.568521 307.740128 63.222077 
C 307.740128 62.875632 307.509165 62.54333 307.098106 62.298357 
C 306.687048 62.053384 306.129455 61.91574 305.54813 61.91574 
C 304.966805 61.91574 304.409212 62.053384 303.998153 62.298357 
C 303.587095 62.54333 303.356132 62.875632 303.356132 63.222077 
C 303.356132 63.568521 303.587095 63.900823 303.998153 64.145796 
C 304.409212 64.39077 304.966805 64.528414 305.54813 64.528414 
z
" style="fill:#0000ff;opacity:0.2;stroke:#0000ff;stroke-linejoin:miter;stroke-width:2;"/>
   </g>
   <g id="patch_17">
    <path clip-path="url(#pa00ae2a5d2)" d="M 170.740253 64.528414 
C 171.321578 64.528414 171.879171 64.39077 172.29023 64.145796 
C 172.701288 63.900823 172.932251 63.568521 172.932251 63.222077 
C 172.932251 62.875632 172.701288 62.54333 172.29023 62.298357 
C 171.879171 62.053384 171.321578 61.91574 170.740253 61.91574 
C 170.158929 61.91574 169.601335 62.053384 169.190277 62.298357 
C 168.779218 62.54333 168.548255 62.875632 168.548255 63.222077 
C 168.548255 63.568521 168.779218 63.900823 169.190277 64.145796 
C 169.601335 64.39077 170.158929 64.528414 170.740253 64.528414 
z
" style="fill:#0000ff;opacity:0.2;stroke:#0000ff;stroke-linejoin:miter;stroke-width:2;"/>
   </g>
   <g id="patch_18">
    <path clip-path="url(#pa00ae2a5d2)" d="M 94.020323 85.429807 
C 94.601648 85.429807 95.159241 85.292163 95.5703 85.04719 
C 95.981359 84.802217 96.212321 84.469915 96.212321 84.12347 
C 96.212321 83.777025 95.981359 83.444724 95.5703 83.19975 
C 95.159241 82.954777 94.601648 82.817133 94.020323 82.817133 
C 93.438999 82.817133 92.881405 82.954777 92.470347 83.19975 
C 92.059288 83.444724 91.828325 83.777025 91.828325 84.12347 
C 91.828325 84.469915 92.059288 84.802217 92.470347 85.04719 
C 92.881405 85.292163 93.438999 85.429807 94.020323 85.429807 
z
" style="fill:#0000ff;opacity:0.2;stroke:#0000ff;stroke-linejoin:miter;stroke-width:2;"/>
   </g>
   <g id="patch_19">
    <path clip-path="url(#pa00ae2a5d2)" d="M 73.196342 80.857627 
C 73.777667 80.857627 74.33526 80.719983 74.746319 80.47501 
C 75.157378 80.230037 75.38834 79.897735 75.38834 79.55129 
C 75.38834 79.204846 75.157378 78.872544 74.746319 78.62757 
C 74.33526 78.382597 73.777667 78.244953 73.196342 78.244953 
C 72.615018 78.244953 72.057424 78.382597 71.646366 78.62757 
C 71.235307 78.872544 71.004344 79.204846 71.004344 79.55129 
C 71.004344 79.897735 71.235307 80.230037 71.646366 80.47501 
C 72.057424 80.719983 72.615018 80.857627 73.196342 80.857627 
z
" style="fill:#0000ff;opacity:0.2;stroke:#0000ff;stroke-linejoin:miter;stroke-width:2;"/>
   </g>
   <g id="patch_20">
    <path clip-path="url(#pa00ae2a5d2)" d="M 100.596317 29.910481 
C 101.177642 29.910481 101.735235 29.772837 102.146294 29.527864 
C 102.557353 29.28289 102.788315 28.950589 102.788315 28.604144 
C 102.788315 28.257699 102.557353 27.925397 102.146294 27.680424 
C 101.735235 27.435451 101.177642 27.297807 100.596317 27.297807 
C 100.014993 27.297807 99.457399 27.435451 99.046341 27.680424 
C 98.635282 27.925397 98.404319 28.257699 98.404319 28.604144 
C 98.404319 28.950589 98.635282 29.28289 99.046341 29.527864 
C 99.457399 29.772837 100.014993 29.910481 100.596317 29.910481 
z
" style="fill:#0000ff;opacity:0.2;stroke:#0000ff;stroke-linejoin:miter;stroke-width:2;"/>
   </g>
   <g id="patch_21">
    <path clip-path="url(#pa00ae2a5d2)" d="M 179.508245 31.216818 
C 180.08957 31.216818 180.647163 31.079174 181.058222 30.834201 
C 181.46928 30.589227 181.700243 30.256926 181.700243 29.910481 
C 181.700243 29.564036 181.46928 29.231735 181.058222 28.986761 
C 180.647163 28.741788 180.08957 28.604144 179.508245 28.604144 
C 178.92692 28.604144 178.369327 28.741788 177.958269 28.986761 
C 177.54721 29.231735 177.316247 29.564036 177.316247 29.910481 
C 177.316247 30.256926 177.54721 30.589227 177.958269 30.834201 
C 178.369327 31.079174 178.92692 31.216818 179.508245 31.216818 
z
" style="fill:#0000ff;opacity:0.2;stroke:#0000ff;stroke-linejoin:miter;stroke-width:2;"/>
   </g>
   <g id="patch_22">
    <path clip-path="url(#pa00ae2a5d2)" d="M 305.54813 31.216818 
C 306.129455 31.216818 306.687048 31.079174 307.098106 30.834201 
C 307.509165 30.589227 307.740128 30.256926 307.740128 29.910481 
C 307.740128 29.564036 307.509165 29.231735 307.098106 28.986761 
C 306.687048 28.741788 306.129455 28.604144 305.54813 28.604144 
C 304.966805 28.604144 304.409212 28.741788 303.998153 28.986761 
C 303.587095 29.231735 303.356132 29.564036 303.356132 29.910481 
C 303.356132 30.256926 303.587095 30.589227 303.998153 30.834201 
C 304.409212 31.079174 304.966805 31.216818 305.54813 31.216818 
z
" style="fill:#0000ff;opacity:0.2;stroke:#0000ff;stroke-linejoin:miter;stroke-width:2;"/>
   </g>
   <g id="patch_23">
    <path clip-path="url(#pa00ae2a5d2)" d="M 407.476037 29.910481 
C 408.057361 29.910481 408.614955 29.772837 409.026013 29.527864 
C 409.437072 29.28289 409.668035 28.950589 409.668035 28.604144 
C 409.668035 28.257699 409.437072 27.925397 409.026013 27.680424 
C 408.614955 27.435451 408.057361 27.297807 407.476037 27.297807 
C 406.894712 27.297807 406.337119 27.435451 405.92606 27.680424 
C 405.515001 27.925397 405.284039 28.257699 405.284039 28.604144 
C 405.284039 28.950589 405.515001 29.28289 405.92606 29.527864 
C 406.337119 29.772837 406.894712 29.910481 407.476037 29.910481 
z
" style="fill:#0000ff;opacity:0.2;stroke:#0000ff;stroke-linejoin:miter;stroke-width:2;"/>
   </g>
   <g id="patch_24">
    <path clip-path="url(#pa00ae2a5d2)" d="M 411.860033 34.482661 
C 412.441357 34.482661 412.998951 34.345017 413.410009 34.100044 
C 413.821068 33.85507 414.052031 33.522768 414.052031 33.176324 
C 414.052031 32.829879 413.821068 32.497577 413.410009 32.252604 
C 412.998951 32.007631 412.441357 31.869987 411.860033 31.869987 
C 411.278708 31.869987 410.721115 32.007631 410.310056 32.252604 
C 409.898997 32.497577 409.668035 32.829879 409.668035 33.176324 
C 409.668035 33.522768 409.898997 33.85507 410.310056 34.100044 
C 410.721115 34.345017 411.278708 34.482661 411.860033 34.482661 
z
" style="fill:#0000ff;opacity:0.2;stroke:#0000ff;stroke-linejoin:miter;stroke-width:2;"/>
   </g>
   <g id="patch_25">
    <path clip-path="url(#pa00ae2a5d2)" d="M 341.716097 99.799515 
C 342.297421 99.799515 342.855015 99.661871 343.266073 99.416898 
C 343.677132 99.171924 343.908095 98.839623 343.908095 98.493178 
C 343.908095 98.146733 343.677132 97.814432 343.266073 97.569458 
C 342.855015 97.324485 342.297421 97.186841 341.716097 97.186841 
C 341.134772 97.186841 340.577179 97.324485 340.16612 97.569458 
C 339.755062 97.814432 339.524099 98.146733 339.524099 98.493178 
C 339.524099 98.839623 339.755062 99.171924 340.16612 99.416898 
C 340.577179 99.661871 341.134772 99.799515 341.716097 99.799515 
z
" style="fill:#0000ff;opacity:0.2;stroke:#0000ff;stroke-linejoin:miter;stroke-width:2;"/>
   </g>
   <g id="patch_26">
    <path clip-path="url(#pa00ae2a5d2)" d="M 153.204269 302.934932 
C 153.785594 302.934932 154.343187 302.797288 154.754246 302.552315 
C 155.165304 302.307341 155.396267 301.975039 155.396267 301.628595 
C 155.396267 301.28215 155.165304 300.949848 154.754246 300.704875 
C 154.343187 300.459902 153.785594 300.322258 153.204269 300.322258 
C 152.622945 300.322258 152.065351 300.459902 151.654293 300.704875 
C 151.243234 300.949848 151.012271 301.28215 151.012271 301.628595 
C 151.012271 301.975039 151.243234 302.307341 151.654293 302.552315 
C 152.065351 302.797288 152.622945 302.934932 153.204269 302.934932 
z
" style="fill:#0000ff;opacity:0.2;stroke:#0000ff;stroke-linejoin:miter;stroke-width:2;"/>
   </g>
   <g id="patch_27">
    <path clip-path="url(#pa00ae2a5d2)" d="M 122.516297 293.790572 
C 123.097622 293.790572 123.655215 293.652928 124.066274 293.407955 
C 124.477333 293.162982 124.708295 292.83068 124.708295 292.484235 
C 124.708295 292.137791 124.477333 291.805489 124.066274 291.560515 
C 123.655215 291.315542 123.097622 291.177898 122.516297 291.177898 
C 121.934973 291.177898 121.377379 291.315542 120.966321 291.560515 
C 120.555262 291.805489 120.324299 292.137791 120.324299 292.484235 
C 120.324299 292.83068 120.555262 293.162982 120.966321 293.407955 
C 121.377379 293.652928 121.934973 293.790572 122.516297 293.790572 
z
" style="fill:#0000ff;opacity:0.2;stroke:#0000ff;stroke-linejoin:miter;stroke-width:2;"/>
   </g>
   <g id="patch_28">
    <path clip-path="url(#pa00ae2a5d2)" d="M 306.644129 95.880504 
C 307.225454 95.880504 307.783047 95.74286 308.194105 95.497887 
C 308.605164 95.252913 308.836127 94.920611 308.836127 94.574167 
C 308.836127 94.227722 308.605164 93.89542 308.194105 93.650447 
C 307.783047 93.405474 307.225454 93.26783 306.644129 93.26783 
C 306.062804 93.26783 305.505211 93.405474 305.094152 93.650447 
C 304.683094 93.89542 304.452131 94.227722 304.452131 94.574167 
C 304.452131 94.920611 304.683094 95.252913 305.094152 95.497887 
C 305.505211 95.74286 306.062804 95.880504 306.644129 95.880504 
z
" style="fill:#0000ff;opacity:0.2;stroke:#0000ff;stroke-linejoin:miter;stroke-width:2;"/>
   </g>
   <g id="patch_29">
    <path clip-path="url(#pa00ae2a5d2)" d="M 181.152244 30.56365 
L 317.056119 30.56365 
C 361.992078 30.56365 402.544041 30.56365 421.176024 29.257312 
C 425.56002 29.910481 426.656019 32.523155 426.656019 36.442166 
C 410.216034 54.077717 388.296054 71.060099 357.608082 101.105852 
L 151.560271 303.5881 
C 132.928288 306.853943 114.296305 299.669089 106.624312 287.258887 
L 281.984151 120.04774 
C 296.232138 106.331201 302.808132 97.840009 302.808132 90.001987 
C 302.808132 86.082976 295.136139 84.12347 281.984151 84.12347 
L 163.61626 84.12347 
C 127.448293 84.12347 105.528313 88.69565 91.280326 108.943875 
C 85.800331 114.822392 61.688353 110.250212 58.400356 105.024863 
C 78.128338 75.632279 89.088328 44.280189 93.472324 29.257312 
C 114.296305 29.910481 141.69628 30.56365 181.152244 30.56365 
" style="fill:none;stroke:#ff0000;stroke-linejoin:miter;stroke-width:0.5;"/>
   </g>
   <g id="patch_30">
    <path clip-path="url(#pa00ae2a5d2)" d="M 305.54813 63.222077 
L 170.740253 63.222077 
C 125.804294 63.222077 112.652306 63.875245 94.020323 84.12347 
C 85.252331 86.736144 75.38834 84.12347 73.196342 79.55129 
C 85.252331 60.609403 95.116322 43.62702 100.596317 28.604144 
C 123.612296 29.257312 138.956282 29.910481 179.508245 29.910481 
L 305.54813 29.910481 
C 346.100093 29.910481 396.516047 29.910481 407.476037 28.604144 
C 410.764034 29.257312 411.860033 31.216818 411.860033 33.176324 
C 388.844054 50.158706 368.020073 69.753762 341.716097 98.493178 
L 153.204269 301.628595 
C 141.14828 303.5881 122.516297 299.669089 122.516297 292.484235 
L 306.644129 94.574167 
C 319.796117 80.204459 341.716097 63.222077 305.54813 63.222077 
" style="fill:none;stroke:#0000ff;stroke-linejoin:miter;stroke-width:0.5;"/>
   </g>
   <g id="[&quot;g_s&quot;:1,&quot;g_t&quot;:6,&quot;coords&quot;:[[194.0, -314.0],[192.5, -313.0]],&quot;certainty&quot;:6]">
    <path clip-path="url(#pa00ae2a5d2)" d="M 181.152244 32.849739 
C 182.169562 32.849739 183.14535 32.608863 183.864703 32.180159 
C 184.584055 31.751456 184.98824 31.169928 184.98824 30.56365 
C 184.98824 29.957371 184.584055 29.375843 183.864703 28.94714 
C 183.14535 28.518436 182.169562 28.27756 181.152244 28.27756 
C 180.134925 28.27756 179.159137 28.518436 178.439785 28.94714 
C 177.720432 29.375843 177.316247 29.957371 177.316247 30.56365 
C 177.316247 31.169928 177.720432 31.751456 178.439785 32.180159 
C 179.159137 32.608863 180.134925 32.849739 181.152244 32.849739 
z
" style="fill:#0000ff;opacity:0.2;stroke:#0000ff;stroke-linejoin:miter;stroke-width:2;"/>
   </g>
   <g id="[&quot;g_s&quot;:6,&quot;g_t&quot;:1,&quot;coords&quot;:[[192.5, -313.0],[194.0, -314.0]],&quot;certainty&quot;:6]">
    <path clip-path="url(#pa00ae2a5d2)" d="M 179.508245 32.196571 
C 180.525563 32.196571 181.501352 31.955694 182.220704 31.526991 
C 182.940057 31.098287 183.344242 30.516759 183.344242 29.910481 
C 183.344242 29.304203 182.940057 28.722675 182.220704 28.293971 
C 181.501352 27.865268 180.525563 27.624391 179.508245 27.624391 
C 178.490927 27.624391 177.515139 27.865268 176.795786 28.293971 
C 176.076433 28.722675 175.672249 29.304203 175.672249 29.910481 
C 175.672249 30.516759 176.076433 31.098287 176.795786 31.526991 
C 177.515139 31.955694 178.490927 32.196571 179.508245 32.196571 
z
" style="fill:#ff0000;opacity:0.2;stroke:#ff0000;stroke-linejoin:miter;stroke-width:2;"/>
   </g>
   <g id="patch_31">
    <path d="M 181.152244 30.56365 
Q 180.330244 30.237065 180.658242 30.36738 
" style="fill:none;opacity:0.5;stroke:#0000ff;stroke-linecap:round;stroke-width:1.75;"/>
    <path d="M 181.498403 32.315233 
L 180.658242 30.36738 
L 182.606095 29.527219 
" style="fill:none;opacity:0.5;stroke:#0000ff;stroke-linecap:round;stroke-width:1.75;"/>
   </g>
   <g id="[&quot;g_s&quot;:2,&quot;g_t&quot;:7,&quot;coords&quot;:[[318.0, -314.0],[307.5, -313.0]],&quot;certainty&quot;:3]">
    <path clip-path="url(#pa00ae2a5d2)" d="M 317.056119 31.869987 
C 317.637444 31.869987 318.195037 31.732343 318.606096 31.487369 
C 319.017155 31.242396 319.248117 30.910094 319.248117 30.56365 
C 319.248117 30.217205 319.017155 29.884903 318.606096 29.63993 
C 318.195037 29.394956 317.637444 29.257312 317.056119 29.257312 
C 316.474795 29.257312 315.917201 29.394956 315.506143 29.63993 
C 315.095084 29.884903 314.864121 30.217205 314.864121 30.56365 
C 314.864121 30.910094 315.095084 31.242396 315.506143 31.487369 
C 315.917201 31.732343 316.474795 31.869987 317.056119 31.869987 
z
" style="fill:#0000ff;opacity:0.2;stroke:#0000ff;stroke-linejoin:miter;stroke-width:2;"/>
   </g>
   <g id="[&quot;g_s&quot;:7,&quot;g_t&quot;:2,&quot;coords&quot;:[[307.5, -313.0],[318.0, -314.0]],&quot;certainty&quot;:3]">
    <path clip-path="url(#pa00ae2a5d2)" d="M 305.54813 31.216818 
C 306.129455 31.216818 306.687048 31.079174 307.098106 30.834201 
C 307.509165 30.589227 307.740128 30.256926 307.740128 29.910481 
C 307.740128 29.564036 307.509165 29.231735 307.098106 28.986761 
C 306.687048 28.741788 306.129455 28.604144 305.54813 28.604144 
C 304.966805 28.604144 304.409212 28.741788 303.998153 28.986761 
C 303.587095 29.231735 303.356132 29.564036 303.356132 29.910481 
C 303.356132 30.256926 303.587095 30.589227 303.998153 30.834201 
C 304.409212 31.079174 304.966805 31.216818 305.54813 31.216818 
z
" style="fill:#ff0000;opacity:0.2;stroke:#ff0000;stroke-linejoin:miter;stroke-width:2;"/>
   </g>
   <g id="patch_32">
    <path d="M 317.056119 30.56365 
Q 312.300926 30.293755 308.251703 30.06393 
" style="fill:none;opacity:0.5;stroke:#0000ff;stroke-linecap:round;"/>
    <path d="M 309.664293 31.64652 
L 308.251703 30.06393 
L 309.834293 28.65134 
" style="fill:none;opacity:0.5;stroke:#0000ff;stroke-linecap:round;"/>
   </g>
   <g id="[&quot;g_s&quot;:3,&quot;g_t&quot;:8,&quot;coords&quot;:[[413.0, -312.0],[400.5, -311.0]],&quot;certainty&quot;:2]">
    <path clip-path="url(#pa00ae2a5d2)" d="M 421.176024 30.237065 
C 421.612018 30.237065 422.030213 30.133832 422.338507 29.950102 
C 422.646801 29.766372 422.820023 29.517146 422.820023 29.257312 
C 422.820023 28.997479 422.646801 28.748253 422.338507 28.564523 
C 422.030213 28.380793 421.612018 28.27756 421.176024 28.27756 
C 420.740031 28.27756 420.321836 28.380793 420.013542 28.564523 
C 419.705248 28.748253 419.532026 28.997479 419.532026 29.257312 
C 419.532026 29.517146 419.705248 29.766372 420.013542 29.950102 
C 420.321836 30.133832 420.740031 30.237065 421.176024 30.237065 
z
" style="fill:#0000ff;opacity:0.2;stroke:#0000ff;stroke-linejoin:miter;stroke-width:2;"/>
   </g>
   <g id="[&quot;g_s&quot;:8,&quot;g_t&quot;:3,&quot;coords&quot;:[[400.5, -311.0],[413.0, -312.0]],&quot;certainty&quot;:2]">
    <path clip-path="url(#pa00ae2a5d2)" d="M 407.476037 29.583897 
C 407.91203 29.583897 408.330225 29.480664 408.638519 29.296934 
C 408.946813 29.113204 409.120035 28.863977 409.120035 28.604144 
C 409.120035 28.34431 408.946813 28.095084 408.638519 27.911354 
C 408.330225 27.727624 407.91203 27.624391 407.476037 27.624391 
C 407.040043 27.624391 406.621848 27.727624 406.313554 27.911354 
C 406.00526 28.095084 405.832038 28.34431 405.832038 28.604144 
C 405.832038 28.863977 406.00526 29.113204 406.313554 29.296934 
C 406.621848 29.480664 407.040043 29.583897 407.476037 29.583897 
z
" style="fill:#ff0000;opacity:0.2;stroke:#ff0000;stroke-linejoin:miter;stroke-width:2;"/>
   </g>
   <g id="patch_33">
    <path d="M 421.176024 29.257312 
Q 415.32443 28.978328 410.002565 28.7246 
" style="fill:none;opacity:0.5;stroke:#0000ff;stroke-linecap:round;stroke-width:0.75;"/>
    <path d="M 411.429429 30.294332 
L 410.002565 28.7246 
L 411.572297 27.297736 
" style="fill:none;opacity:0.5;stroke:#0000ff;stroke-linecap:round;stroke-width:0.75;"/>
   </g>
   <g id="[&quot;g_s&quot;:4,&quot;g_t&quot;:9,&quot;coords&quot;:[[418.0, -323.0],[404.5, -318.0]],&quot;certainty&quot;:11]">
    <path clip-path="url(#pa00ae2a5d2)" d="M 426.656019 40.361178 
C 428.399993 40.361178 430.072773 39.948246 431.305949 39.213326 
C 432.539125 38.478406 433.232013 37.4815 433.232013 36.442166 
C 433.232013 35.402832 432.539125 34.405927 431.305949 33.671007 
C 430.072773 32.936087 428.399993 32.523155 426.656019 32.523155 
C 424.912045 32.523155 423.239265 32.936087 422.006089 33.671007 
C 420.772913 34.405927 420.080025 35.402832 420.080025 36.442166 
C 420.080025 37.4815 420.772913 38.478406 422.006089 39.213326 
C 423.239265 39.948246 424.912045 40.361178 426.656019 40.361178 
z
" style="fill:#0000ff;opacity:0.2;stroke:#0000ff;stroke-linejoin:miter;stroke-width:2;"/>
   </g>
   <g id="[&quot;g_s&quot;:9,&quot;g_t&quot;:4,&quot;coords&quot;:[[404.5, -318.0],[418.0, -323.0]],&quot;certainty&quot;:11]">
    <path clip-path="url(#pa00ae2a5d2)" d="M 411.860033 37.095335 
C 413.604007 37.095335 415.276787 36.682403 416.509963 35.947483 
C 417.743138 35.212563 418.436027 34.215658 418.436027 33.176324 
C 418.436027 32.13699 417.743138 31.140084 416.509963 30.405164 
C 415.276787 29.670244 413.604007 29.257312 411.860033 29.257312 
C 410.116059 29.257312 408.443278 29.670244 407.210103 30.405164 
C 405.976927 31.140084 405.284039 32.13699 405.284039 33.176324 
C 405.284039 34.215658 405.976927 35.212563 407.210103 35.947483 
C 408.443278 36.682403 410.116059 37.095335 411.860033 37.095335 
z
" style="fill:#ff0000;opacity:0.2;stroke:#ff0000;stroke-linejoin:miter;stroke-width:2;"/>
   </g>
   <g id="patch_34">
    <path d="M 426.656019 36.442166 
Q 420.235153 35.024921 415.885748 34.064899 
" style="fill:none;opacity:0.5;stroke:#0000ff;stroke-linecap:round;stroke-width:3;"/>
    <path d="M 417.027186 35.852948 
L 415.885748 34.064899 
L 417.673797 32.923461 
" style="fill:none;opacity:0.5;stroke:#0000ff;stroke-linecap:round;stroke-width:3;"/>
   </g>
   <g id="[&quot;g_s&quot;:5,&quot;g_t&quot;:10,&quot;coords&quot;:[[355.0, -422.0],[340.5, -418.0]],&quot;certainty&quot;:11]">
    <path clip-path="url(#pa00ae2a5d2)" d="M 357.608082 105.024863 
C 359.352056 105.024863 361.024836 104.611932 362.258012 103.877012 
C 363.491188 103.142092 364.184076 102.145186 364.184076 101.105852 
C 364.184076 100.066518 363.491188 99.069613 362.258012 98.334693 
C 361.024836 97.599773 359.352056 97.186841 357.608082 97.186841 
C 355.864108 97.186841 354.191328 97.599773 352.958152 98.334693 
C 351.724976 99.069613 351.032088 100.066518 351.032088 101.105852 
C 351.032088 102.145186 351.724976 103.142092 352.958152 103.877012 
C 354.191328 104.611932 355.864108 105.024863 357.608082 105.024863 
z
" style="fill:#0000ff;opacity:0.2;stroke:#0000ff;stroke-linejoin:miter;stroke-width:2;"/>
   </g>
   <g id="[&quot;g_s&quot;:10,&quot;g_t&quot;:5,&quot;coords&quot;:[[340.5, -418.0],[355.0, -422.0]],&quot;certainty&quot;:11]">
    <path clip-path="url(#pa00ae2a5d2)" d="M 341.716097 102.412189 
C 343.460071 102.412189 345.132851 101.999258 346.366027 101.264337 
C 347.599203 100.529417 348.292091 99.532512 348.292091 98.493178 
C 348.292091 97.453844 347.599203 96.456939 346.366027 95.722019 
C 345.132851 94.987098 343.460071 94.574167 341.716097 94.574167 
C 339.972123 94.574167 338.299343 94.987098 337.066167 95.722019 
C 335.832991 96.456939 335.140103 97.453844 335.140103 98.493178 
C 335.140103 99.532512 335.832991 100.529417 337.066167 101.264337 
C 338.299343 101.999258 339.972123 102.412189 341.716097 102.412189 
z
" style="fill:#ff0000;opacity:0.2;stroke:#ff0000;stroke-linejoin:miter;stroke-width:2;"/>
   </g>
   <g id="patch_35">
    <path d="M 357.608082 101.105852 
Q 350.649519 99.96185 345.784176 99.161978 
" style="fill:none;opacity:0.5;stroke:#0000ff;stroke-linecap:round;stroke-width:3;"/>
    <path d="M 347.020971 100.885446 
L 345.784176 99.161978 
L 347.507644 97.925184 
" style="fill:none;opacity:0.5;stroke:#0000ff;stroke-linecap:round;stroke-width:3;"/>
   </g>
   <g id="[&quot;g_s&quot;:6,&quot;g_t&quot;:11,&quot;coords&quot;:[[167.0, -732.0],[168.5, -729.0]],&quot;certainty&quot;:13]">
    <path clip-path="url(#pa00ae2a5d2)" d="M 151.560271 308.16028 
C 153.594907 308.16028 155.546484 307.678527 156.985189 306.82112 
C 158.423894 305.963713 159.232264 304.800657 159.232264 303.5881 
C 159.232264 302.375544 158.423894 301.212488 156.985189 300.355081 
C 155.546484 299.497674 153.594907 299.015921 151.560271 299.015921 
C 149.525634 299.015921 147.574058 299.497674 146.135352 300.355081 
C 144.696647 301.212488 143.888278 302.375544 143.888278 303.5881 
C 143.888278 304.800657 144.696647 305.963713 146.135352 306.82112 
C 147.574058 307.678527 149.525634 308.16028 151.560271 308.16028 
z
" style="fill:#0000ff;opacity:0.2;stroke:#0000ff;stroke-linejoin:miter;stroke-width:2;"/>
   </g>
   <g id="[&quot;g_s&quot;:11,&quot;g_t&quot;:6,&quot;coords&quot;:[[168.5, -729.0],[167.0, -732.0]],&quot;certainty&quot;:13]">
    <path clip-path="url(#pa00ae2a5d2)" d="M 153.204269 306.200775 
C 155.238906 306.200775 157.190482 305.719021 158.629187 304.861614 
C 160.067893 304.004207 160.876262 302.841151 160.876262 301.628595 
C 160.876262 300.416039 160.067893 299.252982 158.629187 298.395575 
C 157.190482 297.538169 155.238906 297.056415 153.204269 297.056415 
C 151.169633 297.056415 149.218056 297.538169 147.779351 298.395575 
C 146.340646 299.252982 145.532276 300.416039 145.532276 301.628595 
C 145.532276 302.841151 146.340646 304.004207 147.779351 304.861614 
C 149.218056 305.719021 151.169633 306.200775 153.204269 306.200775 
z
" style="fill:#ff0000;opacity:0.2;stroke:#ff0000;stroke-linejoin:miter;stroke-width:2;"/>
   </g>
   <g id="patch_36">
    <path d="M 151.560271 303.5881 
Q 151.738478 303.375693 150.325992 305.059255 
" style="fill:none;opacity:0.5;stroke:#0000ff;stroke-linecap:round;stroke-width:3.5;"/>
    <path d="M 148.212757 305.244281 
L 150.325992 305.059255 
L 150.511018 307.172491 
" style="fill:none;opacity:0.5;stroke:#0000ff;stroke-linecap:round;stroke-width:3.5;"/>
   </g>
   <g id="[&quot;g_s&quot;:7,&quot;g_t&quot;:12,&quot;coords&quot;:[[126.0, -707.0],[140.5, -715.0]],&quot;certainty&quot;:7]">
    <path clip-path="url(#pa00ae2a5d2)" d="M 106.624312 289.871561 
C 107.786961 289.871561 108.902148 289.596273 109.724265 289.106327 
C 110.546382 288.61638 111.008308 287.951776 111.008308 287.258887 
C 111.008308 286.565998 110.546382 285.901394 109.724265 285.411447 
C 108.902148 284.921501 107.786961 284.646213 106.624312 284.646213 
C 105.461663 284.646213 104.346476 284.921501 103.524359 285.411447 
C 102.702241 285.901394 102.240316 286.565998 102.240316 287.258887 
C 102.240316 287.951776 102.702241 288.61638 103.524359 289.106327 
C 104.346476 289.596273 105.461663 289.871561 106.624312 289.871561 
z
" style="fill:#0000ff;opacity:0.2;stroke:#0000ff;stroke-linejoin:miter;stroke-width:2;"/>
   </g>
   <g id="[&quot;g_s&quot;:12,&quot;g_t&quot;:7,&quot;coords&quot;:[[140.5, -715.0],[126.0, -707.0]],&quot;certainty&quot;:7]">
    <path clip-path="url(#pa00ae2a5d2)" d="M 122.516297 295.096909 
C 123.678947 295.096909 124.794133 294.821622 125.616251 294.331675 
C 126.438368 293.841728 126.900293 293.177125 126.900293 292.484235 
C 126.900293 291.791346 126.438368 291.126742 125.616251 290.636796 
C 124.794133 290.146849 123.678947 289.871561 122.516297 289.871561 
C 121.353648 289.871561 120.238461 290.146849 119.416344 290.636796 
C 118.594227 291.126742 118.132301 291.791346 118.132301 292.484235 
C 118.132301 293.177125 118.594227 293.841728 119.416344 294.331675 
C 120.238461 294.821622 121.353648 295.096909 122.516297 295.096909 
z
" style="fill:#ff0000;opacity:0.2;stroke:#ff0000;stroke-linejoin:miter;stroke-width:2;"/>
   </g>
   <g id="patch_37">
    <path d="M 106.624312 287.258887 
Q 113.621674 289.559648 119.275581 291.418675 
" style="fill:none;opacity:0.5;stroke:#0000ff;stroke-linecap:round;stroke-width:2;"/>
    <path d="M 118.319161 289.525197 
L 119.275581 291.418675 
L 117.382103 292.375095 
" style="fill:none;opacity:0.5;stroke:#0000ff;stroke-linecap:round;stroke-width:2;"/>
   </g>
   <g id="[&quot;g_s&quot;:8,&quot;g_t&quot;:10,&quot;coords&quot;:[[286.0, -451.0],[340.5, -418.0]],&quot;certainty&quot;:7]">
    <path clip-path="url(#pa00ae2a5d2)" d="M 281.984151 122.660414 
C 283.146801 122.660414 284.261987 122.385126 285.084105 121.89518 
C 285.906222 121.405233 286.368147 120.740629 286.368147 120.04774 
C 286.368147 119.354851 285.906222 118.690247 285.084105 118.2003 
C 284.261987 117.710354 283.146801 117.435066 281.984151 117.435066 
C 280.821502 117.435066 279.706315 117.710354 278.884198 118.2003 
C 278.062081 118.690247 277.600155 119.354851 277.600155 120.04774 
C 277.600155 120.740629 278.062081 121.405233 278.884198 121.89518 
C 279.706315 122.385126 280.821502 122.660414 281.984151 122.660414 
z
" style="fill:#0000ff;opacity:0.2;stroke:#0000ff;stroke-linejoin:miter;stroke-width:2;"/>
   </g>
   <g id="[&quot;g_s&quot;:10,&quot;g_t&quot;:8,&quot;coords&quot;:[[340.5, -418.0],[286.0, -451.0]],&quot;certainty&quot;:7]">
    <path clip-path="url(#pa00ae2a5d2)" d="M 341.716097 101.105852 
C 342.878746 101.105852 343.993933 100.830564 344.81605 100.340618 
C 345.638167 99.850671 346.100093 99.186067 346.100093 98.493178 
C 346.100093 97.800289 345.638167 97.135685 344.81605 96.645738 
C 343.993933 96.155792 342.878746 95.880504 341.716097 95.880504 
C 340.553447 95.880504 339.438261 96.155792 338.616143 96.645738 
C 337.794026 97.135685 337.332101 97.800289 337.332101 98.493178 
C 337.332101 99.186067 337.794026 99.850671 338.616143 100.340618 
C 339.438261 100.830564 340.553447 101.105852 341.716097 101.105852 
z
" style="fill:#ff0000;opacity:0.2;stroke:#ff0000;stroke-linejoin:miter;stroke-width:2;"/>
   </g>
   <g id="patch_38">
    <path d="M 281.984151 120.04774 
Q 310.907698 109.610538 338.500992 99.653364 
" style="fill:none;opacity:0.5;stroke:#0000ff;stroke-linecap:round;stroke-width:2;"/>
    <path d="M 336.580899 98.751565 
L 338.500992 99.653364 
L 337.599192 101.573457 
" style="fill:none;opacity:0.5;stroke:#0000ff;stroke-linecap:round;stroke-width:2;"/>
   </g>
   <g id="[&quot;g_s&quot;:9,&quot;g_t&quot;:10,&quot;coords&quot;:[[305.0, -405.0],[340.5, -418.0]],&quot;certainty&quot;:7]">
    <path clip-path="url(#pa00ae2a5d2)" d="M 302.808132 92.614661 
C 303.970782 92.614661 305.085968 92.339373 305.908086 91.849427 
C 306.730203 91.35948 307.192128 90.694876 307.192128 90.001987 
C 307.192128 89.309098 306.730203 88.644494 305.908086 88.154547 
C 305.085968 87.664601 303.970782 87.389313 302.808132 87.389313 
C 301.645483 87.389313 300.530296 87.664601 299.708179 88.154547 
C 298.886062 88.644494 298.424136 89.309098 298.424136 90.001987 
C 298.424136 90.694876 298.886062 91.35948 299.708179 91.849427 
C 300.530296 92.339373 301.645483 92.614661 302.808132 92.614661 
z
" style="fill:#0000ff;opacity:0.2;stroke:#0000ff;stroke-linejoin:miter;stroke-width:2;"/>
   </g>
   <g id="[&quot;g_s&quot;:10,&quot;g_t&quot;:9,&quot;coords&quot;:[[340.5, -418.0],[305.0, -405.0]],&quot;certainty&quot;:7]">
    <path clip-path="url(#pa00ae2a5d2)" d="M 341.716097 101.105852 
C 342.878746 101.105852 343.993933 100.830564 344.81605 100.340618 
C 345.638167 99.850671 346.100093 99.186067 346.100093 98.493178 
C 346.100093 97.800289 345.638167 97.135685 344.81605 96.645738 
C 343.993933 96.155792 342.878746 95.880504 341.716097 95.880504 
C 340.553447 95.880504 339.438261 96.155792 338.616143 96.645738 
C 337.794026 97.135685 337.332101 97.800289 337.332101 98.493178 
C 337.332101 99.186067 337.794026 99.850671 338.616143 100.340618 
C 339.438261 100.830564 340.553447 101.105852 341.716097 101.105852 
z
" style="fill:#ff0000;opacity:0.2;stroke:#ff0000;stroke-linejoin:miter;stroke-width:2;"/>
   </g>
   <g id="patch_39">
    <path d="M 302.808132 90.001987 
Q 321.286091 94.034577 338.382356 97.76563 
" style="fill:none;opacity:0.5;stroke:#0000ff;stroke-linecap:round;stroke-width:2;"/>
    <path d="M 337.236679 95.980294 
L 338.382356 97.76563 
L 336.597021 98.911307 
" style="fill:none;opacity:0.5;stroke:#0000ff;stroke-linecap:round;stroke-width:2;"/>
   </g>
   <g id="[&quot;g_s&quot;:10,&quot;g_t&quot;:1,&quot;coords&quot;:[[286.0, -396.0],[307.5, -364.0]],&quot;certainty&quot;:6]">
    <path clip-path="url(#pa00ae2a5d2)" d="M 281.984151 86.40956 
C 283.00147 86.40956 283.977258 86.168683 284.696611 85.73998 
C 285.415963 85.311276 285.820148 84.729748 285.820148 84.12347 
C 285.820148 83.517192 285.415963 82.935664 284.696611 82.50696 
C 283.977258 82.078257 283.00147 81.83738 281.984151 81.83738 
C 280.966833 81.83738 279.991045 82.078257 279.271692 82.50696 
C 278.55234 82.935664 278.148155 83.517192 278.148155 84.12347 
C 278.148155 84.729748 278.55234 85.311276 279.271692 85.73998 
C 279.991045 86.168683 280.966833 86.40956 281.984151 86.40956 
z
" style="fill:#0000ff;opacity:0.2;stroke:#0000ff;stroke-linejoin:miter;stroke-width:2;"/>
   </g>
   <g id="[&quot;g_s&quot;:1,&quot;g_t&quot;:10,&quot;coords&quot;:[[307.5, -364.0],[286.0, -396.0]],&quot;certainty&quot;:6]">
    <path clip-path="url(#pa00ae2a5d2)" d="M 305.54813 65.508167 
C 306.565448 65.508167 307.541236 65.26729 308.260589 64.838586 
C 308.979942 64.409883 309.384126 63.828355 309.384126 63.222077 
C 309.384126 62.615799 308.979942 62.03427 308.260589 61.605567 
C 307.541236 61.176864 306.565448 60.935987 305.54813 60.935987 
C 304.530812 60.935987 303.555023 61.176864 302.835671 61.605567 
C 302.116318 62.03427 301.712133 62.615799 301.712133 63.222077 
C 301.712133 63.828355 302.116318 64.409883 302.835671 64.838586 
C 303.555023 65.26729 304.530812 65.508167 305.54813 65.508167 
z
" style="fill:#ff0000;opacity:0.2;stroke:#ff0000;stroke-linejoin:miter;stroke-width:2;"/>
   </g>
   <g id="patch_40">
    <path d="M 281.984151 84.12347 
Q 293.016822 74.337423 303.123756 65.372511 
" style="fill:none;opacity:0.5;stroke:#0000ff;stroke-linecap:round;stroke-width:1.75;"/>
    <path d="M 301.006229 65.245713 
L 303.123756 65.372511 
L 302.996959 67.490038 
" style="fill:none;opacity:0.5;stroke:#0000ff;stroke-linecap:round;stroke-width:1.75;"/>
   </g>
   <g id="[&quot;g_s&quot;:11,&quot;g_t&quot;:2,&quot;coords&quot;:[[178.0, -396.0],[184.5, -364.0]],&quot;certainty&quot;:6]">
    <path clip-path="url(#pa00ae2a5d2)" d="M 163.61626 86.40956 
C 164.633578 86.40956 165.609366 86.168683 166.328719 85.73998 
C 167.048071 85.311276 167.452256 84.729748 167.452256 84.12347 
C 167.452256 83.517192 167.048071 82.935664 166.328719 82.50696 
C 165.609366 82.078257 164.633578 81.83738 163.61626 81.83738 
C 162.598942 81.83738 161.623153 82.078257 160.903801 82.50696 
C 160.184448 82.935664 159.780263 83.517192 159.780263 84.12347 
C 159.780263 84.729748 160.184448 85.311276 160.903801 85.73998 
C 161.623153 86.168683 162.598942 86.40956 163.61626 86.40956 
z
" style="fill:#0000ff;opacity:0.2;stroke:#0000ff;stroke-linejoin:miter;stroke-width:2;"/>
   </g>
   <g id="[&quot;g_s&quot;:2,&quot;g_t&quot;:11,&quot;coords&quot;:[[184.5, -364.0],[178.0, -396.0]],&quot;certainty&quot;:6]">
    <path clip-path="url(#pa00ae2a5d2)" d="M 170.740253 65.508167 
C 171.757571 65.508167 172.73336 65.26729 173.452712 64.838586 
C 174.172065 64.409883 174.57625 63.828355 174.57625 63.222077 
C 174.57625 62.615799 174.172065 62.03427 173.452712 61.605567 
C 172.73336 61.176864 171.757571 60.935987 170.740253 60.935987 
C 169.722935 60.935987 168.747147 61.176864 168.027794 61.605567 
C 167.308441 62.03427 166.904257 62.615799 166.904257 63.222077 
C 166.904257 63.828355 167.308441 64.409883 168.027794 64.838586 
C 168.747147 65.26729 169.722935 65.508167 170.740253 65.508167 
z
" style="fill:#ff0000;opacity:0.2;stroke:#ff0000;stroke-linejoin:miter;stroke-width:2;"/>
   </g>
   <g id="patch_41">
    <path d="M 163.61626 84.12347 
Q 166.856059 74.618082 169.696645 66.283965 
" style="fill:none;opacity:0.5;stroke:#0000ff;stroke-linecap:round;stroke-width:1.75;"/>
    <path d="M 167.792928 67.219841 
L 169.696645 66.283965 
L 170.63252 68.187682 
" style="fill:none;opacity:0.5;stroke:#0000ff;stroke-linecap:round;stroke-width:1.75;"/>
   </g>
   <g id="[&quot;g_s&quot;:12,&quot;g_t&quot;:3,&quot;coords&quot;:[[112.0, -434.0],[114.5, -396.0]],&quot;certainty&quot;:7]">
    <path clip-path="url(#pa00ae2a5d2)" d="M 91.280326 111.556549 
C 92.442975 111.556549 93.558162 111.281261 94.380279 110.791314 
C 95.202396 110.301368 95.664322 109.636764 95.664322 108.943875 
C 95.664322 108.250985 95.202396 107.586382 94.380279 107.096435 
C 93.558162 106.606488 92.442975 106.331201 91.280326 106.331201 
C 90.117677 106.331201 89.00249 106.606488 88.180373 107.096435 
C 87.358255 107.586382 86.89633 108.250985 86.89633 108.943875 
C 86.89633 109.636764 87.358255 110.301368 88.180373 110.791314 
C 89.00249 111.281261 90.117677 111.556549 91.280326 111.556549 
z
" style="fill:#0000ff;opacity:0.2;stroke:#0000ff;stroke-linejoin:miter;stroke-width:2;"/>
   </g>
   <g id="[&quot;g_s&quot;:3,&quot;g_t&quot;:12,&quot;coords&quot;:[[114.5, -396.0],[112.0, -434.0]],&quot;certainty&quot;:7]">
    <path clip-path="url(#pa00ae2a5d2)" d="M 94.020323 86.736144 
C 95.182973 86.736144 96.298159 86.460856 97.120277 85.97091 
C 97.942394 85.480963 98.404319 84.816359 98.404319 84.12347 
C 98.404319 83.430581 97.942394 82.765977 97.120277 82.27603 
C 96.298159 81.786084 95.182973 81.510796 94.020323 81.510796 
C 92.857674 81.510796 91.742487 81.786084 90.92037 82.27603 
C 90.098253 82.765977 89.636327 83.430581 89.636327 84.12347 
C 89.636327 84.816359 90.098253 85.480963 90.92037 85.97091 
C 91.742487 86.460856 92.857674 86.736144 94.020323 86.736144 
z
" style="fill:#ff0000;opacity:0.2;stroke:#ff0000;stroke-linejoin:miter;stroke-width:2;"/>
   </g>
   <g id="patch_42">
    <path d="M 91.280326 108.943875 
Q 92.54045 97.528973 93.645399 87.519746 
" style="fill:none;opacity:0.5;stroke:#0000ff;stroke-linecap:round;stroke-width:2;"/>
    <path d="M 91.989866 88.846099 
L 93.645399 87.519746 
L 94.971752 89.175278 
" style="fill:none;opacity:0.5;stroke:#0000ff;stroke-linecap:round;stroke-width:2;"/>
   </g>
   <g id="[&quot;g_s&quot;:13,&quot;g_t&quot;:4,&quot;coords&quot;:[[82.0, -428.0],[95.5, -389.0]],&quot;certainty&quot;:11]">
    <path clip-path="url(#pa00ae2a5d2)" d="M 58.400356 108.943875 
C 60.14433 108.943875 61.81711 108.530943 63.050286 107.796023 
C 64.283462 107.061103 64.97635 106.064197 64.97635 105.024863 
C 64.97635 103.985529 64.283462 102.988624 63.050286 102.253704 
C 61.81711 101.518784 60.14433 101.105852 58.400356 101.105852 
C 56.656382 101.105852 54.983602 101.518784 53.750426 102.253704 
C 52.51725 102.988624 51.824362 103.985529 51.824362 105.024863 
C 51.824362 106.064197 52.51725 107.061103 53.750426 107.796023 
C 54.983602 108.530943 56.656382 108.943875 58.400356 108.943875 
z
" style="fill:#0000ff;opacity:0.2;stroke:#0000ff;stroke-linejoin:miter;stroke-width:2;"/>
   </g>
   <g id="[&quot;g_s&quot;:4,&quot;g_t&quot;:13,&quot;coords&quot;:[[95.5, -389.0],[82.0, -428.0]],&quot;certainty&quot;:11]">
    <path clip-path="url(#pa00ae2a5d2)" d="M 73.196342 83.470302 
C 74.940316 83.470302 76.613097 83.05737 77.846272 82.32245 
C 79.079448 81.58753 79.772336 80.590624 79.772336 79.55129 
C 79.772336 78.511956 79.079448 77.515051 77.846272 76.780131 
C 76.613097 76.045211 74.940316 75.632279 73.196342 75.632279 
C 71.452368 75.632279 69.779588 76.045211 68.546412 76.780131 
C 67.313237 77.515051 66.620348 78.511956 66.620348 79.55129 
C 66.620348 80.590624 67.313237 81.58753 68.546412 82.32245 
C 69.779588 83.05737 71.452368 83.470302 73.196342 83.470302 
z
" style="fill:#ff0000;opacity:0.2;stroke:#ff0000;stroke-linejoin:miter;stroke-width:2;"/>
   </g>
   <g id="patch_43">
    <path d="M 58.400356 105.024863 
Q 65.295336 93.154091 71.124863 83.117661 
" style="fill:none;opacity:0.5;stroke:#0000ff;stroke-linecap:round;stroke-width:3;"/>
    <path d="M 69.074399 83.661347 
L 71.124863 83.117661 
L 71.66855 85.168125 
" style="fill:none;opacity:0.5;stroke:#0000ff;stroke-linecap:round;stroke-width:3;"/>
   </g>
   <g id="[&quot;g_s&quot;:14,&quot;g_t&quot;:5,&quot;coords&quot;:[[114.0, -312.0],[120.5, -311.0]],&quot;certainty&quot;:10]">
    <path clip-path="url(#pa00ae2a5d2)" d="M 93.472324 32.849739 
C 95.070967 32.849739 96.604348 32.471219 97.73476 31.797542 
C 98.865171 31.123865 99.500318 30.210035 99.500318 29.257312 
C 99.500318 28.30459 98.865171 27.39076 97.73476 26.717083 
C 96.604348 26.043406 95.070967 25.664885 93.472324 25.664885 
C 91.873681 25.664885 90.340299 26.043406 89.209888 26.717083 
C 88.079477 27.39076 87.444329 28.30459 87.444329 29.257312 
C 87.444329 30.210035 88.079477 31.123865 89.209888 31.797542 
C 90.340299 32.471219 91.873681 32.849739 93.472324 32.849739 
z
" style="fill:#0000ff;opacity:0.2;stroke:#0000ff;stroke-linejoin:miter;stroke-width:2;"/>
   </g>
   <g id="[&quot;g_s&quot;:5,&quot;g_t&quot;:14,&quot;coords&quot;:[[120.5, -311.0],[114.0, -312.0]],&quot;certainty&quot;:10]">
    <path clip-path="url(#pa00ae2a5d2)" d="M 100.596317 32.196571 
C 102.19496 32.196571 103.728342 31.81805 104.858753 31.144373 
C 105.989164 30.470697 106.624312 29.556867 106.624312 28.604144 
C 106.624312 27.651421 105.989164 26.737591 104.858753 26.063914 
C 103.728342 25.390238 102.19496 25.011717 100.596317 25.011717 
C 98.997675 25.011717 97.464293 25.390238 96.333882 26.063914 
C 95.20347 26.737591 94.568323 27.651421 94.568323 28.604144 
C 94.568323 29.556867 95.20347 30.470697 96.333882 31.144373 
C 97.464293 31.81805 98.997675 32.196571 100.596317 32.196571 
z
" style="fill:#ff0000;opacity:0.2;stroke:#ff0000;stroke-linejoin:miter;stroke-width:2;"/>
   </g>
   <g id="patch_44">
    <path d="M 93.472324 29.257312 
Q 96.037727 29.022102 96.666708 28.964433 
" style="fill:none;opacity:0.5;stroke:#0000ff;stroke-linecap:round;stroke-width:2.75;"/>
    <path d="M 95.036019 27.607652 
L 96.666708 28.964433 
L 95.309927 30.595122 
" style="fill:none;opacity:0.5;stroke:#0000ff;stroke-linecap:round;stroke-width:2.75;"/>
   </g>
   <g id="[&quot;g_s&quot;:1,&quot;g_t&quot;:10,&quot;coords&quot;:[[307.5, -364.0],[286.0, -396.0]],&quot;certainty&quot;:5]">
    <path clip-path="url(#pa00ae2a5d2)" d="M 305.54813 65.181582 
C 306.420117 65.181582 307.256507 64.975116 307.873095 64.607656 
C 308.489683 64.240196 308.836127 63.741744 308.836127 63.222077 
C 308.836127 62.70241 308.489683 62.203957 307.873095 61.836497 
C 307.256507 61.469037 306.420117 61.262571 305.54813 61.262571 
C 304.676143 61.262571 303.839753 61.469037 303.223165 61.836497 
C 302.606577 62.203957 302.260133 62.70241 302.260133 63.222077 
C 302.260133 63.741744 302.606577 64.240196 303.223165 64.607656 
C 303.839753 64.975116 304.676143 65.181582 305.54813 65.181582 
z
" style="fill:#0000ff;opacity:0.2;stroke:#0000ff;stroke-linejoin:miter;stroke-width:2;"/>
   </g>
   <g id="[&quot;g_s&quot;:10,&quot;g_t&quot;:1,&quot;coords&quot;:[[286.0, -396.0],[307.5, -364.0]],&quot;certainty&quot;:5]">
    <path clip-path="url(#pa00ae2a5d2)" d="M 281.984151 86.082976 
C 282.856138 86.082976 283.692528 85.87651 284.309116 85.50905 
C 284.925704 85.14159 285.272148 84.643137 285.272148 84.12347 
C 285.272148 83.603803 284.925704 83.10535 284.309116 82.73789 
C 283.692528 82.37043 282.856138 82.163964 281.984151 82.163964 
C 281.112164 82.163964 280.275774 82.37043 279.659186 82.73789 
C 279.042599 83.10535 278.696154 83.603803 278.696154 84.12347 
C 278.696154 84.643137 279.042599 85.14159 279.659186 85.50905 
C 280.275774 85.87651 281.112164 86.082976 281.984151 86.082976 
z
" style="fill:#ff0000;opacity:0.2;stroke:#ff0000;stroke-linejoin:miter;stroke-width:2;"/>
   </g>
   <g id="patch_45">
    <path d="M 305.54813 63.222077 
Q 294.515459 73.008123 284.276277 82.090341 
" style="fill:none;opacity:0.5;stroke:#ff0000;stroke-linecap:round;stroke-width:1.5;"/>
    <path d="M 286.393804 82.217138 
L 284.276277 82.090341 
L 284.403074 79.972813 
" style="fill:none;opacity:0.5;stroke:#ff0000;stroke-linecap:round;stroke-width:1.5;"/>
   </g>
   <g id="[&quot;g_s&quot;:2,&quot;g_t&quot;:11,&quot;coords&quot;:[[184.5, -364.0],[178.0, -396.0]],&quot;certainty&quot;:8]">
    <path clip-path="url(#pa00ae2a5d2)" d="M 170.740253 66.161335 
C 172.048234 66.161335 173.302819 65.851636 174.227701 65.300446 
C 175.152583 64.749256 175.672249 64.001577 175.672249 63.222077 
C 175.672249 62.442576 175.152583 61.694897 174.227701 61.143707 
C 173.302819 60.592517 172.048234 60.282818 170.740253 60.282818 
C 169.432273 60.282818 168.177688 60.592517 167.252806 61.143707 
C 166.327924 61.694897 165.808258 62.442576 165.808258 63.222077 
C 165.808258 64.001577 166.327924 64.749256 167.252806 65.300446 
C 168.177688 65.851636 169.432273 66.161335 170.740253 66.161335 
z
" style="fill:#0000ff;opacity:0.2;stroke:#0000ff;stroke-linejoin:miter;stroke-width:2;"/>
   </g>
   <g id="[&quot;g_s&quot;:11,&quot;g_t&quot;:2,&quot;coords&quot;:[[178.0, -396.0],[184.5, -364.0]],&quot;certainty&quot;:8]">
    <path clip-path="url(#pa00ae2a5d2)" d="M 163.61626 87.062728 
C 164.92424 87.062728 166.178825 86.75303 167.103707 86.20184 
C 168.028589 85.65065 168.548255 84.902971 168.548255 84.12347 
C 168.548255 83.34397 168.028589 82.596291 167.103707 82.0451 
C 166.178825 81.49391 164.92424 81.184212 163.61626 81.184212 
C 162.308279 81.184212 161.053694 81.49391 160.128812 82.0451 
C 159.20393 82.596291 158.684264 83.34397 158.684264 84.12347 
C 158.684264 84.902971 159.20393 85.65065 160.128812 86.20184 
C 161.053694 86.75303 162.308279 87.062728 163.61626 87.062728 
z
" style="fill:#ff0000;opacity:0.2;stroke:#ff0000;stroke-linejoin:miter;stroke-width:2;"/>
   </g>
   <g id="patch_46">
    <path d="M 170.740253 63.222077 
Q 167.500454 72.727465 164.77393 80.726932 
" style="fill:none;opacity:0.5;stroke:#ff0000;stroke-linecap:round;stroke-width:2.25;"/>
    <path d="M 166.677646 79.791057 
L 164.77393 80.726932 
L 163.838054 78.823215 
" style="fill:none;opacity:0.5;stroke:#ff0000;stroke-linecap:round;stroke-width:2.25;"/>
   </g>
   <g id="[&quot;g_s&quot;:3,&quot;g_t&quot;:12,&quot;coords&quot;:[[114.5, -396.0],[112.0, -434.0]],&quot;certainty&quot;:5]">
    <path clip-path="url(#pa00ae2a5d2)" d="M 94.020323 86.082976 
C 94.89231 86.082976 95.7287 85.87651 96.345288 85.50905 
C 96.961876 85.14159 97.30832 84.643137 97.30832 84.12347 
C 97.30832 83.603803 96.961876 83.10535 96.345288 82.73789 
C 95.7287 82.37043 94.89231 82.163964 94.020323 82.163964 
C 93.148336 82.163964 92.311946 82.37043 91.695358 82.73789 
C 91.07877 83.10535 90.732326 83.603803 90.732326 84.12347 
C 90.732326 84.643137 91.07877 85.14159 91.695358 85.50905 
C 92.311946 85.87651 93.148336 86.082976 94.020323 86.082976 
z
" style="fill:#0000ff;opacity:0.2;stroke:#0000ff;stroke-linejoin:miter;stroke-width:2;"/>
   </g>
   <g id="[&quot;g_s&quot;:12,&quot;g_t&quot;:3,&quot;coords&quot;:[[112.0, -434.0],[114.5, -396.0]],&quot;certainty&quot;:5]">
    <path clip-path="url(#pa00ae2a5d2)" d="M 91.280326 110.90338 
C 92.152313 110.90338 92.988703 110.696914 93.605291 110.329454 
C 94.221879 109.961994 94.568323 109.463542 94.568323 108.943875 
C 94.568323 108.424208 94.221879 107.925755 93.605291 107.558295 
C 92.988703 107.190835 92.152313 106.984369 91.280326 106.984369 
C 90.408339 106.984369 89.571949 107.190835 88.955361 107.558295 
C 88.338773 107.925755 87.992329 108.424208 87.992329 108.943875 
C 87.992329 109.463542 88.338773 109.961994 88.955361 110.329454 
C 89.571949 110.696914 90.408339 110.90338 91.280326 110.90338 
z
" style="fill:#ff0000;opacity:0.2;stroke:#ff0000;stroke-linejoin:miter;stroke-width:2;"/>
   </g>
   <g id="patch_47">
    <path d="M 94.020323 84.12347 
Q 92.760199 95.538372 91.616457 105.899018 
" style="fill:none;opacity:0.5;stroke:#ff0000;stroke-linecap:round;stroke-width:1.5;"/>
    <path d="M 93.271989 104.572664 
L 91.616457 105.899018 
L 90.290103 104.243485 
" style="fill:none;opacity:0.5;stroke:#ff0000;stroke-linecap:round;stroke-width:1.5;"/>
   </g>
   <g id="[&quot;g_s&quot;:4,&quot;g_t&quot;:13,&quot;coords&quot;:[[95.5, -389.0],[82.0, -428.0]],&quot;certainty&quot;:9]">
    <path clip-path="url(#pa00ae2a5d2)" d="M 73.196342 82.817133 
C 74.649654 82.817133 76.043638 82.473023 77.071284 81.86059 
C 78.098931 81.248156 78.676337 80.417402 78.676337 79.55129 
C 78.676337 78.685179 78.098931 77.854424 77.071284 77.241991 
C 76.043638 76.629557 74.649654 76.285448 73.196342 76.285448 
C 71.743031 76.285448 70.349047 76.629557 69.321401 77.241991 
C 68.293754 77.854424 67.716347 78.685179 67.716347 79.55129 
C 67.716347 80.417402 68.293754 81.248156 69.321401 81.86059 
C 70.349047 82.473023 71.743031 82.817133 73.196342 82.817133 
z
" style="fill:#0000ff;opacity:0.2;stroke:#0000ff;stroke-linejoin:miter;stroke-width:2;"/>
   </g>
   <g id="[&quot;g_s&quot;:13,&quot;g_t&quot;:4,&quot;coords&quot;:[[82.0, -428.0],[95.5, -389.0]],&quot;certainty&quot;:9]">
    <path clip-path="url(#pa00ae2a5d2)" d="M 58.400356 108.290706 
C 59.853668 108.290706 61.247651 107.946596 62.275298 107.334163 
C 63.302944 106.72173 63.880351 105.890975 63.880351 105.024863 
C 63.880351 104.158752 63.302944 103.327997 62.275298 102.715564 
C 61.247651 102.103131 59.853668 101.759021 58.400356 101.759021 
C 56.947044 101.759021 55.553061 102.103131 54.525414 102.715564 
C 53.497768 103.327997 52.920361 104.158752 52.920361 105.024863 
C 52.920361 105.890975 53.497768 106.72173 54.525414 107.334163 
C 55.553061 107.946596 56.947044 108.290706 58.400356 108.290706 
z
" style="fill:#ff0000;opacity:0.2;stroke:#ff0000;stroke-linejoin:miter;stroke-width:2;"/>
   </g>
   <g id="patch_48">
    <path d="M 73.196342 79.55129 
Q 66.301362 91.422062 60.294259 101.764216 
" style="fill:none;opacity:0.5;stroke:#ff0000;stroke-linecap:round;stroke-width:2.5;"/>
    <path d="M 62.344724 101.22053 
L 60.294259 101.764216 
L 59.750573 99.713752 
" style="fill:none;opacity:0.5;stroke:#ff0000;stroke-linecap:round;stroke-width:2.5;"/>
   </g>
   <g id="[&quot;g_s&quot;:5,&quot;g_t&quot;:14,&quot;coords&quot;:[[120.5, -311.0],[114.0, -312.0]],&quot;certainty&quot;:11]">
    <path clip-path="url(#pa00ae2a5d2)" d="M 100.596317 32.523155 
C 102.340291 32.523155 104.013071 32.110223 105.246247 31.375303 
C 106.479423 30.640383 107.172311 29.643478 107.172311 28.604144 
C 107.172311 27.56481 106.479423 26.567905 105.246247 25.832984 
C 104.013071 25.098064 102.340291 24.685133 100.596317 24.685133 
C 98.852343 24.685133 97.179563 25.098064 95.946387 25.832984 
C 94.713212 26.567905 94.020323 27.56481 94.020323 28.604144 
C 94.020323 29.643478 94.713212 30.640383 95.946387 31.375303 
C 97.179563 32.110223 98.852343 32.523155 100.596317 32.523155 
z
" style="fill:#0000ff;opacity:0.2;stroke:#0000ff;stroke-linejoin:miter;stroke-width:2;"/>
   </g>
   <g id="[&quot;g_s&quot;:14,&quot;g_t&quot;:5,&quot;coords&quot;:[[114.0, -312.0],[120.5, -311.0]],&quot;certainty&quot;:11]">
    <path clip-path="url(#pa00ae2a5d2)" d="M 93.472324 33.176324 
C 95.216298 33.176324 96.889078 32.763392 98.122254 32.028472 
C 99.35543 31.293552 100.048318 30.296646 100.048318 29.257312 
C 100.048318 28.217979 99.35543 27.221073 98.122254 26.486153 
C 96.889078 25.751233 95.216298 25.338301 93.472324 25.338301 
C 91.72835 25.338301 90.05557 25.751233 88.822394 26.486153 
C 87.589218 27.221073 86.89633 28.217979 86.89633 29.257312 
C 86.89633 30.296646 87.589218 31.293552 88.822394 32.028472 
C 90.05557 32.763392 91.72835 33.176324 93.472324 33.176324 
z
" style="fill:#ff0000;opacity:0.2;stroke:#ff0000;stroke-linejoin:miter;stroke-width:2;"/>
   </g>
   <g id="patch_49">
    <path d="M 100.596317 28.604144 
Q 98.030914 28.839355 97.577971 28.880883 
" style="fill:none;opacity:0.5;stroke:#ff0000;stroke-linecap:round;stroke-width:3;"/>
    <path d="M 99.20866 30.237664 
L 97.577971 28.880883 
L 98.934752 27.250194 
" style="fill:none;opacity:0.5;stroke:#ff0000;stroke-linecap:round;stroke-width:3;"/>
   </g>
   <g id="[&quot;g_s&quot;:6,&quot;g_t&quot;:1,&quot;coords&quot;:[[192.5, -313.0],[194.0, -314.0]],&quot;certainty&quot;:7]">
    <path clip-path="url(#pa00ae2a5d2)" d="M 179.508245 32.523155 
C 180.670894 32.523155 181.786081 32.247867 182.608198 31.757921 
C 183.430316 31.267974 183.892241 30.60337 183.892241 29.910481 
C 183.892241 29.217592 183.430316 28.552988 182.608198 28.063041 
C 181.786081 27.573095 180.670894 27.297807 179.508245 27.297807 
C 178.345596 27.297807 177.230409 27.573095 176.408292 28.063041 
C 175.586175 28.552988 175.124249 29.217592 175.124249 29.910481 
C 175.124249 30.60337 175.586175 31.267974 176.408292 31.757921 
C 177.230409 32.247867 178.345596 32.523155 179.508245 32.523155 
z
" style="fill:#0000ff;opacity:0.2;stroke:#0000ff;stroke-linejoin:miter;stroke-width:2;"/>
   </g>
   <g id="[&quot;g_s&quot;:1,&quot;g_t&quot;:6,&quot;coords&quot;:[[194.0, -314.0],[192.5, -313.0]],&quot;certainty&quot;:7]">
    <path clip-path="url(#pa00ae2a5d2)" d="M 181.152244 33.176324 
C 182.314893 33.176324 183.43008 32.901036 184.252197 32.411089 
C 185.074314 31.921142 185.53624 31.256539 185.53624 30.56365 
C 185.53624 29.87076 185.074314 29.206157 184.252197 28.71621 
C 183.43008 28.226263 182.314893 27.950975 181.152244 27.950975 
C 179.989594 27.950975 178.874408 28.226263 178.05229 28.71621 
C 177.230173 29.206157 176.768248 29.87076 176.768248 30.56365 
C 176.768248 31.256539 177.230173 31.921142 178.05229 32.411089 
C 178.874408 32.901036 179.989594 33.176324 181.152244 33.176324 
z
" style="fill:#ff0000;opacity:0.2;stroke:#ff0000;stroke-linejoin:miter;stroke-width:2;"/>
   </g>
   <g id="patch_50">
    <path d="M 179.508245 29.910481 
Q 180.330244 30.237065 179.837961 30.041479 
" style="fill:none;opacity:0.5;stroke:#ff0000;stroke-linecap:round;stroke-width:2;"/>
    <path d="M 178.9978 28.093626 
L 179.837961 30.041479 
L 177.890109 30.88164 
" style="fill:none;opacity:0.5;stroke:#ff0000;stroke-linecap:round;stroke-width:2;"/>
   </g>
   <g id="[&quot;g_s&quot;:7,&quot;g_t&quot;:2,&quot;coords&quot;:[[307.5, -313.0],[318.0, -314.0]],&quot;certainty&quot;:3]">
    <path clip-path="url(#pa00ae2a5d2)" d="M 305.54813 31.216818 
C 306.129455 31.216818 306.687048 31.079174 307.098106 30.834201 
C 307.509165 30.589227 307.740128 30.256926 307.740128 29.910481 
C 307.740128 29.564036 307.509165 29.231735 307.098106 28.986761 
C 306.687048 28.741788 306.129455 28.604144 305.54813 28.604144 
C 304.966805 28.604144 304.409212 28.741788 303.998153 28.986761 
C 303.587095 29.231735 303.356132 29.564036 303.356132 29.910481 
C 303.356132 30.256926 303.587095 30.589227 303.998153 30.834201 
C 304.409212 31.079174 304.966805 31.216818 305.54813 31.216818 
z
" style="fill:#0000ff;opacity:0.2;stroke:#0000ff;stroke-linejoin:miter;stroke-width:2;"/>
   </g>
   <g id="[&quot;g_s&quot;:2,&quot;g_t&quot;:7,&quot;coords&quot;:[[318.0, -314.0],[307.5, -313.0]],&quot;certainty&quot;:3]">
    <path clip-path="url(#pa00ae2a5d2)" d="M 317.056119 31.869987 
C 317.637444 31.869987 318.195037 31.732343 318.606096 31.487369 
C 319.017155 31.242396 319.248117 30.910094 319.248117 30.56365 
C 319.248117 30.217205 319.017155 29.884903 318.606096 29.63993 
C 318.195037 29.394956 317.637444 29.257312 317.056119 29.257312 
C 316.474795 29.257312 315.917201 29.394956 315.506143 29.63993 
C 315.095084 29.884903 314.864121 30.217205 314.864121 30.56365 
C 314.864121 30.910094 315.095084 31.242396 315.506143 31.487369 
C 315.917201 31.732343 316.474795 31.869987 317.056119 31.869987 
z
" style="fill:#ff0000;opacity:0.2;stroke:#ff0000;stroke-linejoin:miter;stroke-width:2;"/>
   </g>
   <g id="patch_51">
    <path d="M 305.54813 29.910481 
Q 310.303323 30.180375 314.352546 30.410201 
" style="fill:none;opacity:0.5;stroke:#ff0000;stroke-linecap:round;"/>
    <path d="M 312.939956 28.827611 
L 314.352546 30.410201 
L 312.769956 31.82279 
" style="fill:none;opacity:0.5;stroke:#ff0000;stroke-linecap:round;"/>
   </g>
   <g id="[&quot;g_s&quot;:8,&quot;g_t&quot;:3,&quot;coords&quot;:[[400.5, -311.0],[413.0, -312.0]],&quot;certainty&quot;:3]">
    <path clip-path="url(#pa00ae2a5d2)" d="M 407.476037 29.910481 
C 408.057361 29.910481 408.614955 29.772837 409.026013 29.527864 
C 409.437072 29.28289 409.668035 28.950589 409.668035 28.604144 
C 409.668035 28.257699 409.437072 27.925397 409.026013 27.680424 
C 408.614955 27.435451 408.057361 27.297807 407.476037 27.297807 
C 406.894712 27.297807 406.337119 27.435451 405.92606 27.680424 
C 405.515001 27.925397 405.284039 28.257699 405.284039 28.604144 
C 405.284039 28.950589 405.515001 29.28289 405.92606 29.527864 
C 406.337119 29.772837 406.894712 29.910481 407.476037 29.910481 
z
" style="fill:#0000ff;opacity:0.2;stroke:#0000ff;stroke-linejoin:miter;stroke-width:2;"/>
   </g>
   <g id="[&quot;g_s&quot;:3,&quot;g_t&quot;:8,&quot;coords&quot;:[[413.0, -312.0],[400.5, -311.0]],&quot;certainty&quot;:3]">
    <path clip-path="url(#pa00ae2a5d2)" d="M 421.176024 30.56365 
C 421.757349 30.56365 422.314942 30.426006 422.726001 30.181032 
C 423.137059 29.936059 423.368022 29.603757 423.368022 29.257312 
C 423.368022 28.910868 423.137059 28.578566 422.726001 28.333593 
C 422.314942 28.088619 421.757349 27.950975 421.176024 27.950975 
C 420.594699 27.950975 420.037106 28.088619 419.626047 28.333593 
C 419.214989 28.578566 418.984026 28.910868 418.984026 29.257312 
C 418.984026 29.603757 419.214989 29.936059 419.626047 30.181032 
C 420.037106 30.426006 420.594699 30.56365 421.176024 30.56365 
z
" style="fill:#ff0000;opacity:0.2;stroke:#ff0000;stroke-linejoin:miter;stroke-width:2;"/>
   </g>
   <g id="patch_52">
    <path d="M 407.476037 28.604144 
Q 413.32763 28.883128 418.47292 29.128438 
" style="fill:none;opacity:0.5;stroke:#ff0000;stroke-linecap:round;"/>
    <path d="M 417.046055 27.558706 
L 418.47292 29.128438 
L 416.903188 30.555302 
" style="fill:none;opacity:0.5;stroke:#ff0000;stroke-linecap:round;"/>
   </g>
   <g id="[&quot;g_s&quot;:9,&quot;g_t&quot;:4,&quot;coords&quot;:[[404.5, -318.0],[418.0, -323.0]],&quot;certainty&quot;:9]">
    <path clip-path="url(#pa00ae2a5d2)" d="M 411.860033 36.442166 
C 413.313344 36.442166 414.707328 36.098057 415.734974 35.485623 
C 416.762621 34.87319 417.340028 34.042435 417.340028 33.176324 
C 417.340028 32.310212 416.762621 31.479458 415.734974 30.867024 
C 414.707328 30.254591 413.313344 29.910481 411.860033 29.910481 
C 410.406721 29.910481 409.012737 30.254591 407.985091 30.867024 
C 406.957444 31.479458 406.380038 32.310212 406.380038 33.176324 
C 406.380038 34.042435 406.957444 34.87319 407.985091 35.485623 
C 409.012737 36.098057 410.406721 36.442166 411.860033 36.442166 
z
" style="fill:#0000ff;opacity:0.2;stroke:#0000ff;stroke-linejoin:miter;stroke-width:2;"/>
   </g>
   <g id="[&quot;g_s&quot;:4,&quot;g_t&quot;:9,&quot;coords&quot;:[[418.0, -323.0],[404.5, -318.0]],&quot;certainty&quot;:9]">
    <path clip-path="url(#pa00ae2a5d2)" d="M 426.656019 39.708009 
C 428.109331 39.708009 429.503314 39.363899 430.530961 38.751466 
C 431.558607 38.139033 432.136014 37.308278 432.136014 36.442166 
C 432.136014 35.576055 431.558607 34.7453 430.530961 34.132867 
C 429.503314 33.520433 428.109331 33.176324 426.656019 33.176324 
C 425.202707 33.176324 423.808724 33.520433 422.781077 34.132867 
C 421.753431 34.7453 421.176024 35.576055 421.176024 36.442166 
C 421.176024 37.308278 421.753431 38.139033 422.781077 38.751466 
C 423.808724 39.363899 425.202707 39.708009 426.656019 39.708009 
z
" style="fill:#ff0000;opacity:0.2;stroke:#ff0000;stroke-linejoin:miter;stroke-width:2;"/>
   </g>
   <g id="patch_53">
    <path d="M 411.860033 33.176324 
Q 418.280898 34.593569 422.975547 35.629795 
" style="fill:none;opacity:0.5;stroke:#ff0000;stroke-linecap:round;stroke-width:2.5;"/>
    <path d="M 421.834109 33.841746 
L 422.975547 35.629795 
L 421.187498 36.771233 
" style="fill:none;opacity:0.5;stroke:#ff0000;stroke-linecap:round;stroke-width:2.5;"/>
   </g>
   <g id="[&quot;g_s&quot;:10,&quot;g_t&quot;:5,&quot;coords&quot;:[[340.5, -418.0],[355.0, -422.0]],&quot;certainty&quot;:12]">
    <path clip-path="url(#pa00ae2a5d2)" d="M 341.716097 102.738774 
C 343.605402 102.738774 345.41758 102.291431 346.753521 101.495267 
C 348.089461 100.699104 348.84009 99.619123 348.84009 98.493178 
C 348.84009 97.367233 348.089461 96.287252 346.753521 95.491089 
C 345.41758 94.694925 343.605402 94.247582 341.716097 94.247582 
C 339.826792 94.247582 338.014613 94.694925 336.678673 95.491089 
C 335.342732 96.287252 334.592103 97.367233 334.592103 98.493178 
C 334.592103 99.619123 335.342732 100.699104 336.678673 101.495267 
C 338.014613 102.291431 339.826792 102.738774 341.716097 102.738774 
z
" style="fill:#0000ff;opacity:0.2;stroke:#0000ff;stroke-linejoin:miter;stroke-width:2;"/>
   </g>
   <g id="[&quot;g_s&quot;:5,&quot;g_t&quot;:10,&quot;coords&quot;:[[355.0, -422.0],[340.5, -418.0]],&quot;certainty&quot;:12]">
    <path clip-path="url(#pa00ae2a5d2)" d="M 357.608082 105.351448 
C 359.497387 105.351448 361.309566 104.904105 362.645506 104.107942 
C 363.981447 103.311778 364.732076 102.231797 364.732076 101.105852 
C 364.732076 99.979907 363.981447 98.899926 362.645506 98.103763 
C 361.309566 97.307599 359.497387 96.860257 357.608082 96.860257 
C 355.718777 96.860257 353.906599 97.307599 352.570658 98.103763 
C 351.234718 98.899926 350.484089 99.979907 350.484089 101.105852 
C 350.484089 102.231797 351.234718 103.311778 352.570658 104.107942 
C 353.906599 104.904105 355.718777 105.351448 357.608082 105.351448 
z
" style="fill:#ff0000;opacity:0.2;stroke:#ff0000;stroke-linejoin:miter;stroke-width:2;"/>
   </g>
   <g id="patch_54">
    <path d="M 341.716097 98.493178 
Q 348.67466 99.63718 353.365567 100.408374 
" style="fill:none;opacity:0.5;stroke:#ff0000;stroke-linecap:round;stroke-width:3.25;"/>
    <path d="M 352.128773 98.684907 
L 353.365567 100.408374 
L 351.6421 101.645169 
" style="fill:none;opacity:0.5;stroke:#ff0000;stroke-linecap:round;stroke-width:3.25;"/>
   </g>
   <g id="[&quot;g_s&quot;:11,&quot;g_t&quot;:6,&quot;coords&quot;:[[168.5, -729.0],[167.0, -732.0]],&quot;certainty&quot;:11]">
    <path clip-path="url(#pa00ae2a5d2)" d="M 153.204269 305.547606 
C 154.948243 305.547606 156.621023 305.134674 157.854199 304.399754 
C 159.087375 303.664834 159.780263 302.667929 159.780263 301.628595 
C 159.780263 300.589261 159.087375 299.592355 157.854199 298.857435 
C 156.621023 298.122515 154.948243 297.709584 153.204269 297.709584 
C 151.460295 297.709584 149.787515 298.122515 148.554339 298.857435 
C 147.321163 299.592355 146.628275 300.589261 146.628275 301.628595 
C 146.628275 302.667929 147.321163 303.664834 148.554339 304.399754 
C 149.787515 305.134674 151.460295 305.547606 153.204269 305.547606 
z
" style="fill:#0000ff;opacity:0.2;stroke:#0000ff;stroke-linejoin:miter;stroke-width:2;"/>
   </g>
   <g id="[&quot;g_s&quot;:6,&quot;g_t&quot;:11,&quot;coords&quot;:[[167.0, -732.0],[168.5, -729.0]],&quot;certainty&quot;:11]">
    <path clip-path="url(#pa00ae2a5d2)" d="M 151.560271 307.507112 
C 153.304245 307.507112 154.977025 307.09418 156.210201 306.35926 
C 157.443376 305.62434 158.136265 304.627434 158.136265 303.5881 
C 158.136265 302.548767 157.443376 301.551861 156.210201 300.816941 
C 154.977025 300.082021 153.304245 299.669089 151.560271 299.669089 
C 149.816297 299.669089 148.143517 300.082021 146.910341 300.816941 
C 145.677165 301.551861 144.984277 302.548767 144.984277 303.5881 
C 144.984277 304.627434 145.677165 305.62434 146.910341 306.35926 
C 148.143517 307.09418 149.816297 307.507112 151.560271 307.507112 
z
" style="fill:#ff0000;opacity:0.2;stroke:#ff0000;stroke-linejoin:miter;stroke-width:2;"/>
   </g>
   <g id="patch_55">
    <path d="M 153.204269 301.628595 
Q 153.026062 301.841002 154.211306 300.428293 
" style="fill:none;opacity:0.5;stroke:#ff0000;stroke-linecap:round;stroke-width:3;"/>
    <path d="M 156.324542 300.243268 
L 154.211306 300.428293 
L 154.02628 298.315057 
" style="fill:none;opacity:0.5;stroke:#ff0000;stroke-linecap:round;stroke-width:3;"/>
   </g>
   <g id="[&quot;g_s&quot;:12,&quot;g_t&quot;:7,&quot;coords&quot;:[[140.5, -715.0],[126.0, -707.0]],&quot;certainty&quot;:8]">
    <path clip-path="url(#pa00ae2a5d2)" d="M 122.516297 295.423494 
C 123.824278 295.423494 125.078863 295.113795 126.003745 294.562605 
C 126.928627 294.011415 127.448293 293.263736 127.448293 292.484235 
C 127.448293 291.704735 126.928627 290.957056 126.003745 290.405866 
C 125.078863 289.854676 123.824278 289.544977 122.516297 289.544977 
C 121.208317 289.544977 119.953732 289.854676 119.02885 290.405866 
C 118.103968 290.957056 117.584302 291.704735 117.584302 292.484235 
C 117.584302 293.263736 118.103968 294.011415 119.02885 294.562605 
C 119.953732 295.113795 121.208317 295.423494 122.516297 295.423494 
z
" style="fill:#0000ff;opacity:0.2;stroke:#0000ff;stroke-linejoin:miter;stroke-width:2;"/>
   </g>
   <g id="[&quot;g_s&quot;:7,&quot;g_t&quot;:12,&quot;coords&quot;:[[126.0, -707.0],[140.5, -715.0]],&quot;certainty&quot;:8]">
    <path clip-path="url(#pa00ae2a5d2)" d="M 106.624312 290.198145 
C 107.932292 290.198145 109.186877 289.888447 110.111759 289.337256 
C 111.036641 288.786066 111.556307 288.038387 111.556307 287.258887 
C 111.556307 286.479386 111.036641 285.731707 110.111759 285.180517 
C 109.186877 284.629327 107.932292 284.319628 106.624312 284.319628 
C 105.316331 284.319628 104.061746 284.629327 103.136864 285.180517 
C 102.211983 285.731707 101.692316 286.479386 101.692316 287.258887 
C 101.692316 288.038387 102.211983 288.786066 103.136864 289.337256 
C 104.061746 289.888447 105.316331 290.198145 106.624312 290.198145 
z
" style="fill:#ff0000;opacity:0.2;stroke:#ff0000;stroke-linejoin:miter;stroke-width:2;"/>
   </g>
   <g id="patch_56">
    <path d="M 122.516297 292.484235 
Q 115.518935 290.183475 110.03296 288.379664 
" style="fill:none;opacity:0.5;stroke:#ff0000;stroke-linecap:round;stroke-width:2.25;"/>
    <path d="M 110.98938 290.273142 
L 110.03296 288.379664 
L 111.926438 287.423244 
" style="fill:none;opacity:0.5;stroke:#ff0000;stroke-linecap:round;stroke-width:2.25;"/>
   </g>
   <g id="[&quot;g_s&quot;:13,&quot;g_t&quot;:9,&quot;coords&quot;:[[308.5, -412.0],[305.0, -405.0]],&quot;certainty&quot;:4]">
    <path clip-path="url(#pa00ae2a5d2)" d="M 306.644129 96.207088 
C 307.370785 96.207088 308.067776 96.035033 308.5816 95.728817 
C 309.095423 95.4226 309.384126 95.007223 309.384126 94.574167 
C 309.384126 94.141111 309.095423 93.725734 308.5816 93.419517 
C 308.067776 93.1133 307.370785 92.941245 306.644129 92.941245 
C 305.917473 92.941245 305.220481 93.1133 304.706658 93.419517 
C 304.192835 93.725734 303.904131 94.141111 303.904131 94.574167 
C 303.904131 95.007223 304.192835 95.4226 304.706658 95.728817 
C 305.220481 96.035033 305.917473 96.207088 306.644129 96.207088 
z
" style="fill:#0000ff;opacity:0.2;stroke:#0000ff;stroke-linejoin:miter;stroke-width:2;"/>
   </g>
   <g id="[&quot;g_s&quot;:9,&quot;g_t&quot;:13,&quot;coords&quot;:[[305.0, -405.0],[308.5, -412.0]],&quot;certainty&quot;:4]">
    <path clip-path="url(#pa00ae2a5d2)" d="M 302.808132 91.634908 
C 303.534788 91.634908 304.23178 91.462853 304.745603 91.156637 
C 305.259426 90.85042 305.54813 90.435043 305.54813 90.001987 
C 305.54813 89.568931 305.259426 89.153554 304.745603 88.847337 
C 304.23178 88.54112 303.534788 88.369066 302.808132 88.369066 
C 302.081477 88.369066 301.384485 88.54112 300.870662 88.847337 
C 300.356838 89.153554 300.068135 89.568931 300.068135 90.001987 
C 300.068135 90.435043 300.356838 90.85042 300.870662 91.156637 
C 301.384485 91.462853 302.081477 91.634908 302.808132 91.634908 
z
" style="fill:#ff0000;opacity:0.2;stroke:#ff0000;stroke-linejoin:miter;stroke-width:2;"/>
   </g>
   <g id="patch_57">
    <path d="M 306.644129 94.574167 
Q 305.369522 93.054944 304.663019 92.212853 
" style="fill:none;opacity:0.5;stroke:#ff0000;stroke-linecap:round;stroke-width:1.25;"/>
    <path d="M 304.477993 94.326089 
L 304.663019 92.212853 
L 306.776255 92.397879 
" style="fill:none;opacity:0.5;stroke:#ff0000;stroke-linecap:round;stroke-width:1.25;"/>
   </g>
   <g id="patch_58">
    <path clip-path="url(#pa00ae2a5d2)" d="M 180.330244 33.502908 
C 181.783556 33.502908 183.177539 33.158798 184.205186 32.546365 
C 185.232833 31.933931 185.810239 31.103177 185.810239 30.237065 
C 185.810239 29.370954 185.232833 28.540199 184.205186 27.927766 
C 183.177539 27.315332 181.783556 26.971223 180.330244 26.971223 
C 178.876933 26.971223 177.482949 27.315332 176.455303 27.927766 
C 175.427656 28.540199 174.850249 29.370954 174.850249 30.237065 
C 174.850249 31.103177 175.427656 31.933931 176.455303 32.546365 
C 177.482949 33.158798 178.876933 33.502908 180.330244 33.502908 
z
" style="fill:#008000;opacity:0.2;stroke:#008000;stroke-linejoin:miter;stroke-width:2;"/>
   </g>
   <g id="patch_59">
    <path clip-path="url(#pa00ae2a5d2)" d="M 311.302125 33.502908 
C 312.755436 33.502908 314.14942 33.158798 315.177066 32.546365 
C 316.204713 31.933931 316.78212 31.103177 316.78212 30.237065 
C 316.78212 29.370954 316.204713 28.540199 315.177066 27.927766 
C 314.14942 27.315332 312.755436 26.971223 311.302125 26.971223 
C 309.848813 26.971223 308.454829 27.315332 307.427183 27.927766 
C 306.399536 28.540199 305.82213 29.370954 305.82213 30.237065 
C 305.82213 31.103177 306.399536 31.933931 307.427183 32.546365 
C 308.454829 33.158798 309.848813 33.502908 311.302125 33.502908 
z
" style="fill:#008000;opacity:0.2;stroke:#008000;stroke-linejoin:miter;stroke-width:2;"/>
   </g>
   <g id="patch_60">
    <path clip-path="url(#pa00ae2a5d2)" d="M 414.32603 32.196571 
C 415.779342 32.196571 417.173325 31.852461 418.200972 31.240028 
C 419.228618 30.627594 419.806025 29.79684 419.806025 28.930728 
C 419.806025 28.064617 419.228618 27.233862 418.200972 26.621429 
C 417.173325 26.008995 415.779342 25.664885 414.32603 25.664885 
C 412.872719 25.664885 411.478735 26.008995 410.451089 26.621429 
C 409.423442 27.233862 408.846035 28.064617 408.846035 28.930728 
C 408.846035 29.79684 409.423442 30.627594 410.451089 31.240028 
C 411.478735 31.852461 412.872719 32.196571 414.32603 32.196571 
z
" style="fill:#008000;opacity:0.2;stroke:#008000;stroke-linejoin:miter;stroke-width:2;"/>
   </g>
   <g id="patch_61">
    <path clip-path="url(#pa00ae2a5d2)" d="M 419.258026 38.075088 
C 420.711337 38.075088 422.105321 37.730978 423.132967 37.118545 
C 424.160614 36.506111 424.738021 35.675357 424.738021 34.809245 
C 424.738021 33.943133 424.160614 33.112379 423.132967 32.499946 
C 422.105321 31.887512 420.711337 31.543402 419.258026 31.543402 
C 417.804714 31.543402 416.410731 31.887512 415.383084 32.499946 
C 414.355438 33.112379 413.778031 33.943133 413.778031 34.809245 
C 413.778031 35.675357 414.355438 36.506111 415.383084 37.118545 
C 416.410731 37.730978 417.804714 38.075088 419.258026 38.075088 
z
" style="fill:#008000;opacity:0.2;stroke:#008000;stroke-linejoin:miter;stroke-width:2;"/>
   </g>
   <g id="patch_62">
    <path clip-path="url(#pa00ae2a5d2)" d="M 349.662089 103.065358 
C 351.115401 103.065358 352.509385 102.721248 353.537031 102.108815 
C 354.564678 101.496381 355.142084 100.665627 355.142084 99.799515 
C 355.142084 98.933403 354.564678 98.102649 353.537031 97.490216 
C 352.509385 96.877782 351.115401 96.533672 349.662089 96.533672 
C 348.208778 96.533672 346.814794 96.877782 345.787148 97.490216 
C 344.759501 98.102649 344.182095 98.933403 344.182095 99.799515 
C 344.182095 100.665627 344.759501 101.496381 345.787148 102.108815 
C 346.814794 102.721248 348.208778 103.065358 349.662089 103.065358 
z
" style="fill:#008000;opacity:0.2;stroke:#008000;stroke-linejoin:miter;stroke-width:2;"/>
   </g>
   <g id="patch_63">
    <path clip-path="url(#pa00ae2a5d2)" d="M 152.38227 305.87419 
C 153.835582 305.87419 155.229565 305.530081 156.257212 304.917647 
C 157.284858 304.305214 157.862265 303.474459 157.862265 302.608348 
C 157.862265 301.742236 157.284858 300.911482 156.257212 300.299048 
C 155.229565 299.686615 153.835582 299.342505 152.38227 299.342505 
C 150.928958 299.342505 149.534975 299.686615 148.507328 300.299048 
C 147.479682 300.911482 146.902275 301.742236 146.902275 302.608348 
C 146.902275 303.474459 147.479682 304.305214 148.507328 304.917647 
C 149.534975 305.530081 150.928958 305.87419 152.38227 305.87419 
z
" style="fill:#008000;opacity:0.2;stroke:#008000;stroke-linejoin:miter;stroke-width:2;"/>
   </g>
   <g id="patch_64">
    <path clip-path="url(#pa00ae2a5d2)" d="M 114.570305 293.137404 
C 116.023616 293.137404 117.4176 292.793294 118.445246 292.180861 
C 119.472893 291.568427 120.0503 290.737673 120.0503 289.871561 
C 120.0503 289.005449 119.472893 288.174695 118.445246 287.562262 
C 117.4176 286.949828 116.023616 286.605718 114.570305 286.605718 
C 113.116993 286.605718 111.723009 286.949828 110.695363 287.562262 
C 109.667716 288.174695 109.09031 289.005449 109.09031 289.871561 
C 109.09031 290.737673 109.667716 291.568427 110.695363 292.180861 
C 111.723009 292.793294 113.116993 293.137404 114.570305 293.137404 
z
" style="fill:#008000;opacity:0.2;stroke:#008000;stroke-linejoin:miter;stroke-width:2;"/>
   </g>
   <g id="patch_65">
    <path clip-path="url(#pa00ae2a5d2)" d="M 293.766141 76.938616 
C 295.219452 76.938616 296.613436 76.594506 297.641082 75.982073 
C 298.668729 75.36964 299.246136 74.538885 299.246136 73.672773 
C 299.246136 72.806662 298.668729 71.975907 297.641082 71.363474 
C 296.613436 70.75104 295.219452 70.406931 293.766141 70.406931 
C 292.312829 70.406931 290.918846 70.75104 289.891199 71.363474 
C 288.863552 71.975907 288.286146 72.806662 288.286146 73.672773 
C 288.286146 74.538885 288.863552 75.36964 289.891199 75.982073 
C 290.918846 76.594506 292.312829 76.938616 293.766141 76.938616 
z
" style="fill:#008000;opacity:0.2;stroke:#008000;stroke-linejoin:miter;stroke-width:2;"/>
   </g>
   <g id="patch_66">
    <path clip-path="url(#pa00ae2a5d2)" d="M 167.178256 76.938616 
C 168.631568 76.938616 170.025552 76.594506 171.053198 75.982073 
C 172.080845 75.36964 172.658251 74.538885 172.658251 73.672773 
C 172.658251 72.806662 172.080845 71.975907 171.053198 71.363474 
C 170.025552 70.75104 168.631568 70.406931 167.178256 70.406931 
C 165.724945 70.406931 164.330961 70.75104 163.303315 71.363474 
C 162.275668 71.975907 161.698261 72.806662 161.698261 73.672773 
C 161.698261 74.538885 162.275668 75.36964 163.303315 75.982073 
C 164.330961 76.594506 165.724945 76.938616 167.178256 76.938616 
z
" style="fill:#008000;opacity:0.2;stroke:#008000;stroke-linejoin:miter;stroke-width:2;"/>
   </g>
   <g id="patch_67">
    <path clip-path="url(#pa00ae2a5d2)" d="M 92.650325 99.799515 
C 94.103636 99.799515 95.49762 99.455405 96.525266 98.842972 
C 97.552913 98.230539 98.13032 97.399784 98.13032 96.533672 
C 98.13032 95.667561 97.552913 94.836806 96.525266 94.224373 
C 95.49762 93.611939 94.103636 93.26783 92.650325 93.26783 
C 91.197013 93.26783 89.80303 93.611939 88.775383 94.224373 
C 87.747736 94.836806 87.17033 95.667561 87.17033 96.533672 
C 87.17033 97.399784 87.747736 98.230539 88.775383 98.842972 
C 89.80303 99.455405 91.197013 99.799515 92.650325 99.799515 
z
" style="fill:#008000;opacity:0.2;stroke:#008000;stroke-linejoin:miter;stroke-width:2;"/>
   </g>
   <g id="patch_68">
    <path clip-path="url(#pa00ae2a5d2)" d="M 65.798349 95.55392 
C 67.251661 95.55392 68.645644 95.20981 69.673291 94.597376 
C 70.700937 93.984943 71.278344 93.154188 71.278344 92.288077 
C 71.278344 91.421965 70.700937 90.591211 69.673291 89.978777 
C 68.645644 89.366344 67.251661 89.022234 65.798349 89.022234 
C 64.345038 89.022234 62.951054 89.366344 61.923408 89.978777 
C 60.895761 90.591211 60.318354 91.421965 60.318354 92.288077 
C 60.318354 93.154188 60.895761 93.984943 61.923408 94.597376 
C 62.951054 95.20981 64.345038 95.55392 65.798349 95.55392 
z
" style="fill:#008000;opacity:0.2;stroke:#008000;stroke-linejoin:miter;stroke-width:2;"/>
   </g>
   <g id="patch_69">
    <path clip-path="url(#pa00ae2a5d2)" d="M 97.034321 32.196571 
C 98.487632 32.196571 99.881616 31.852461 100.909262 31.240028 
C 101.936909 30.627594 102.514316 29.79684 102.514316 28.930728 
C 102.514316 28.064617 101.936909 27.233862 100.909262 26.621429 
C 99.881616 26.008995 98.487632 25.664885 97.034321 25.664885 
C 95.581009 25.664885 94.187026 26.008995 93.159379 26.621429 
C 92.131732 27.233862 91.554326 28.064617 91.554326 28.930728 
C 91.554326 29.79684 92.131732 30.627594 93.159379 31.240028 
C 94.187026 31.852461 95.581009 32.196571 97.034321 32.196571 
z
" style="fill:#008000;opacity:0.2;stroke:#008000;stroke-linejoin:miter;stroke-width:2;"/>
   </g>
   <g id="patch_70">
    <path clip-path="url(#pa00ae2a5d2)" d="M 181.152244 43.62702 
C 186.96549 43.62702 192.541424 42.250581 196.65201 39.800848 
C 200.762596 37.351114 203.072224 34.028096 203.072224 30.56365 
C 203.072224 27.099203 200.762596 23.776185 196.65201 21.326451 
C 192.541424 18.876718 186.96549 17.500279 181.152244 17.500279 
C 175.338997 17.500279 169.763063 18.876718 165.652477 21.326451 
C 161.541891 23.776185 159.232264 27.099203 159.232264 30.56365 
C 159.232264 34.028096 161.541891 37.351114 165.652477 39.800848 
C 169.763063 42.250581 175.338997 43.62702 181.152244 43.62702 
z
" style="fill:none;opacity:0.2;stroke:#ff0000;stroke-linejoin:miter;stroke-width:2;"/>
   </g>
   <g id="patch_71">
    <path clip-path="url(#pa00ae2a5d2)" d="M 305.54813 76.285448 
C 311.361376 76.285448 316.93731 74.909008 321.047896 72.459275 
C 325.158482 70.009541 327.46811 66.686523 327.46811 63.222077 
C 327.46811 59.75763 325.158482 56.434612 321.047896 53.984879 
C 316.93731 51.535145 311.361376 50.158706 305.54813 50.158706 
C 299.734883 50.158706 294.158949 51.535145 290.048363 53.984879 
C 285.937777 56.434612 283.62815 59.75763 283.62815 63.222077 
C 283.62815 66.686523 285.937777 70.009541 290.048363 72.459275 
C 294.158949 74.909008 299.734883 76.285448 305.54813 76.285448 
z
" style="fill:none;opacity:0.2;stroke:#0000ff;stroke-linejoin:miter;stroke-width:2;"/>
   </g>
   <g id="patch_72">
    <path clip-path="url(#pa00ae2a5d2)" d="M 181.152244 37.095335 
C 184.058867 37.095335 186.846834 36.407115 188.902127 35.182249 
C 190.95742 33.957382 192.112234 32.295873 192.112234 30.56365 
C 192.112234 28.831426 190.95742 27.169917 188.902127 25.94505 
C 186.846834 24.720184 184.058867 24.031964 181.152244 24.031964 
C 178.24562 24.031964 175.457653 24.720184 173.40236 25.94505 
C 171.347067 27.169917 170.192254 28.831426 170.192254 30.56365 
C 170.192254 32.295873 171.347067 33.957382 173.40236 35.182249 
C 175.457653 36.407115 178.24562 37.095335 181.152244 37.095335 
z
" style="fill:none;opacity:0.2;stroke:#008000;stroke-linejoin:miter;stroke-width:2;"/>
   </g>
   <g id="patch_73">
    <path clip-path="url(#pa00ae2a5d2)" d="M 179.508245 36.442166 
C 182.414868 36.442166 185.202835 35.753947 187.258128 34.52908 
C 189.313421 33.304213 190.468235 31.642704 190.468235 29.910481 
C 190.468235 28.178258 189.313421 26.516749 187.258128 25.291882 
C 185.202835 24.067015 182.414868 23.378796 179.508245 23.378796 
C 176.601622 23.378796 173.813655 24.067015 171.758362 25.291882 
C 169.703069 26.516749 168.548255 28.178258 168.548255 29.910481 
C 168.548255 31.642704 169.703069 33.304213 171.758362 34.52908 
C 173.813655 35.753947 176.601622 36.442166 179.508245 36.442166 
z
" style="fill:none;opacity:0.2;stroke:#008000;stroke-linejoin:miter;stroke-width:2;"/>
   </g>
   <g id="patch_74">
    <path d="M 180.330244 30.237065 
Q 245.816184 30.237065 311.302125 30.237065 
" style="fill:none;opacity:0.5;stroke:#008000;stroke-linecap:round;stroke-width:2;"/>
   </g>
   <g id="patch_75">
    <path d="M 179.837961 30.041479 
Q 180.330244 30.237065 180.822527 30.432652 
" style="fill:none;opacity:0.5;stroke:#800080;stroke-linecap:round;stroke-width:2;"/>
    <path d="M 178.9978 28.093626 
L 179.837961 30.041479 
L 177.890109 30.88164 
" style="fill:none;opacity:0.5;stroke:#800080;stroke-linecap:round;stroke-width:2;"/>
    <path d="M 181.662689 32.380504 
L 180.822527 30.432652 
L 182.77038 29.59249 
" style="fill:none;opacity:0.5;stroke:#800080;stroke-linecap:round;stroke-width:2;"/>
   </g>
   <g id="patch_76">
    <path d="M 311.302125 30.237065 
Q 362.814077 29.583897 414.32603 28.930728 
" style="fill:none;opacity:0.5;stroke:#008000;stroke-linecap:round;stroke-width:2;"/>
   </g>
   <g id="patch_77">
    <path d="M 315.644178 30.483511 
Q 312.300926 30.293755 308.957674 30.103999 
" style="fill:none;opacity:0.5;stroke:#800080;stroke-linecap:round;stroke-width:2;"/>
    <path d="M 314.231588 28.900921 
L 315.644178 30.483511 
L 314.061588 31.896101 
" style="fill:none;opacity:0.5;stroke:#800080;stroke-linecap:round;stroke-width:2;"/>
    <path d="M 310.370263 31.686589 
L 308.957674 30.103999 
L 310.540263 28.69141 
" style="fill:none;opacity:0.5;stroke:#800080;stroke-linecap:round;stroke-width:2;"/>
   </g>
   <g id="patch_78">
    <path d="M 414.32603 28.930728 
Q 416.792028 31.869987 419.258026 34.809245 
" style="fill:none;opacity:0.5;stroke:#008000;stroke-linecap:round;stroke-width:2;"/>
   </g>
   <g id="patch_79">
    <path d="M 419.763415 29.189964 
Q 415.32443 28.978328 410.885446 28.766693 
" style="fill:none;opacity:0.5;stroke:#800080;stroke-linecap:round;stroke-width:2;"/>
    <path d="M 418.336551 27.620232 
L 419.763415 29.189964 
L 418.193683 30.616828 
" style="fill:none;opacity:0.5;stroke:#800080;stroke-linecap:round;stroke-width:2;"/>
    <path d="M 412.31231 30.336425 
L 410.885446 28.766693 
L 412.455177 27.339828 
" style="fill:none;opacity:0.5;stroke:#800080;stroke-linecap:round;stroke-width:2;"/>
   </g>
   <g id="patch_80">
    <path d="M 419.258026 34.809245 
Q 384.460058 67.30438 349.662089 99.799515 
" style="fill:none;opacity:0.5;stroke:#008000;stroke-linecap:round;stroke-width:2;"/>
   </g>
   <g id="patch_81">
    <path d="M 425.275046 36.137351 
Q 420.235153 35.024921 415.195261 33.912492 
" style="fill:none;opacity:0.5;stroke:#800080;stroke-linecap:round;stroke-width:2;"/>
    <path d="M 424.133607 34.349302 
L 425.275046 36.137351 
L 423.486997 37.278789 
" style="fill:none;opacity:0.5;stroke:#800080;stroke-linecap:round;stroke-width:2;"/>
    <path d="M 416.336699 35.700541 
L 415.195261 33.912492 
L 416.98331 32.771054 
" style="fill:none;opacity:0.5;stroke:#800080;stroke-linecap:round;stroke-width:2;"/>
   </g>
   <g id="patch_82">
    <path d="M 349.662089 99.799515 
Q 251.02218 201.203931 152.38227 302.608348 
" style="fill:none;opacity:0.5;stroke:#008000;stroke-linecap:round;stroke-width:2;"/>
   </g>
   <g id="patch_83">
    <path d="M 356.212601 100.876432 
Q 350.649519 99.96185 345.086436 99.047269 
" style="fill:none;opacity:0.5;stroke:#800080;stroke-linecap:round;stroke-width:2;"/>
    <path d="M 354.975807 99.152965 
L 356.212601 100.876432 
L 354.489134 102.113227 
" style="fill:none;opacity:0.5;stroke:#800080;stroke-linecap:round;stroke-width:2;"/>
    <path d="M 346.32323 100.770736 
L 345.086436 99.047269 
L 346.809903 97.810474 
" style="fill:none;opacity:0.5;stroke:#800080;stroke-linecap:round;stroke-width:2;"/>
   </g>
   <g id="patch_84">
    <path d="M 152.38227 302.608348 
Q 133.476287 296.239954 114.570305 289.871561 
" style="fill:none;opacity:0.5;stroke:#008000;stroke-linecap:round;stroke-width:2;"/>
   </g>
   <g id="patch_85">
    <path d="M 152.469238 302.50469 
Q 151.738478 303.375693 151.007718 304.246697 
" style="fill:none;opacity:0.5;stroke:#800080;stroke-linecap:round;stroke-width:2;"/>
    <path d="M 154.582473 302.319664 
L 152.469238 302.50469 
L 152.284212 300.391454 
" style="fill:none;opacity:0.5;stroke:#800080;stroke-linecap:round;stroke-width:2;"/>
    <path d="M 148.894482 304.431722 
L 151.007718 304.246697 
L 151.192743 306.359932 
" style="fill:none;opacity:0.5;stroke:#800080;stroke-linecap:round;stroke-width:2;"/>
   </g>
   <g id="patch_86">
    <path clip-path="url(#pa00ae2a5d2)" d="M 281.984151 90.655155 
C 284.890775 90.655155 287.678742 89.966936 289.734035 88.742069 
C 291.789328 87.517202 292.944141 85.855693 292.944141 84.12347 
C 292.944141 82.391247 291.789328 80.729738 289.734035 79.504871 
C 287.678742 78.280004 284.890775 77.591785 281.984151 77.591785 
C 279.077528 77.591785 276.289561 78.280004 274.234268 79.504871 
C 272.178975 80.729738 271.024161 82.391247 271.024161 84.12347 
C 271.024161 85.855693 272.178975 87.517202 274.234268 88.742069 
C 276.289561 89.966936 279.077528 90.655155 281.984151 90.655155 
z
" style="fill:none;opacity:0.2;stroke:#008000;stroke-linejoin:miter;stroke-width:2;"/>
   </g>
   <g id="patch_87">
    <path clip-path="url(#pa00ae2a5d2)" d="M 305.54813 69.753762 
C 308.454753 69.753762 311.24272 69.065543 313.298013 67.840676 
C 315.353306 66.615809 316.50812 64.9543 316.50812 63.222077 
C 316.50812 61.489853 315.353306 59.828344 313.298013 58.603478 
C 311.24272 57.378611 308.454753 56.690391 305.54813 56.690391 
C 302.641507 56.690391 299.85354 57.378611 297.798247 58.603478 
C 295.742954 59.828344 294.58814 61.489853 294.58814 63.222077 
C 294.58814 64.9543 295.742954 66.615809 297.798247 67.840676 
C 299.85354 69.065543 302.641507 69.753762 305.54813 69.753762 
z
" style="fill:none;opacity:0.2;stroke:#008000;stroke-linejoin:miter;stroke-width:2;"/>
   </g>
   <g id="patch_88">
    <path d="M 293.766141 73.672773 
Q 230.472199 73.672773 167.178256 73.672773 
" style="fill:none;opacity:0.5;stroke:#008000;stroke-linecap:round;stroke-width:2;"/>
   </g>
   <g id="patch_89">
    <path d="M 283.042136 83.185031 
Q 293.016822 74.337423 302.991508 65.489816 
" style="fill:none;opacity:0.5;stroke:#800080;stroke-linecap:round;stroke-width:2;"/>
    <path d="M 285.159664 83.311828 
L 283.042136 83.185031 
L 283.168934 81.067504 
" style="fill:none;opacity:0.5;stroke:#800080;stroke-linecap:round;stroke-width:2;"/>
    <path d="M 300.873981 65.363018 
L 302.991508 65.489816 
L 302.864711 67.607343 
" style="fill:none;opacity:0.5;stroke:#800080;stroke-linecap:round;stroke-width:2;"/>
   </g>
   <g id="patch_90">
    <path d="M 167.178256 73.672773 
Q 129.914291 85.103223 92.650325 96.533672 
" style="fill:none;opacity:0.5;stroke:#008000;stroke-linecap:round;stroke-width:2;"/>
   </g>
   <g id="patch_91">
    <path d="M 164.072505 82.784874 
Q 166.856059 74.618082 169.639614 66.45129 
" style="fill:none;opacity:0.5;stroke:#800080;stroke-linecap:round;stroke-width:2;"/>
    <path d="M 165.976221 81.848998 
L 164.072505 82.784874 
L 163.136629 80.881157 
" style="fill:none;opacity:0.5;stroke:#800080;stroke-linecap:round;stroke-width:2;"/>
    <path d="M 167.735897 67.387165 
L 169.639614 66.45129 
L 170.575489 68.355007 
" style="fill:none;opacity:0.5;stroke:#800080;stroke-linecap:round;stroke-width:2;"/>
   </g>
   <g id="patch_92">
    <path d="M 92.650325 96.533672 
Q 79.224337 94.410875 65.798349 92.288077 
" style="fill:none;opacity:0.5;stroke:#008000;stroke-linecap:round;stroke-width:2;"/>
   </g>
   <g id="patch_93">
    <path d="M 91.435502 107.5382 
Q 92.54045 97.528973 93.645399 87.519746 
" style="fill:none;opacity:0.5;stroke:#800080;stroke-linecap:round;stroke-width:2;"/>
    <path d="M 93.091035 106.211847 
L 91.435502 107.5382 
L 90.109149 105.882668 
" style="fill:none;opacity:0.5;stroke:#800080;stroke-linecap:round;stroke-width:2;"/>
    <path d="M 91.989866 88.846099 
L 93.645399 87.519746 
L 94.971752 89.175278 
" style="fill:none;opacity:0.5;stroke:#800080;stroke-linecap:round;stroke-width:2;"/>
   </g>
   <g id="patch_94">
    <path d="M 65.798349 92.288077 
Q 81.416335 60.609403 97.034321 28.930728 
" style="fill:none;opacity:0.5;stroke:#008000;stroke-linecap:round;stroke-width:2;"/>
   </g>
   <g id="patch_95">
    <path d="M 59.110658 103.801969 
Q 65.295336 93.154091 71.480014 82.506214 
" style="fill:none;opacity:0.5;stroke:#800080;stroke-linecap:round;stroke-width:2;"/>
    <path d="M 61.161123 103.258282 
L 59.110658 103.801969 
L 58.566972 101.751504 
" style="fill:none;opacity:0.5;stroke:#800080;stroke-linecap:round;stroke-width:2;"/>
    <path d="M 69.42955 83.0499 
L 71.480014 82.506214 
L 72.023701 84.556678 
" style="fill:none;opacity:0.5;stroke:#800080;stroke-linecap:round;stroke-width:2;"/>
   </g>
   <g id="patch_96">
    <path d="M 97.034321 28.930728 
Q 138.682283 29.583897 180.330244 30.237065 
" style="fill:none;opacity:0.5;stroke:#008000;stroke-linecap:round;stroke-width:2;"/>
   </g>
   <g id="patch_97">
    <path d="M 94.880631 29.128191 
Q 96.037727 29.022102 97.194823 28.916012 
" style="fill:none;opacity:0.5;stroke:#800080;stroke-linecap:round;stroke-width:2;"/>
    <path d="M 96.511319 30.484971 
L 94.880631 29.128191 
L 96.237411 27.497502 
" style="fill:none;opacity:0.5;stroke:#800080;stroke-linecap:round;stroke-width:2;"/>
    <path d="M 95.564134 27.559232 
L 97.194823 28.916012 
L 95.838042 30.546701 
" style="fill:none;opacity:0.5;stroke:#800080;stroke-linecap:round;stroke-width:2;"/>
   </g>
   <g id="line2d_1">
    <path clip-path="url(#pa00ae2a5d2)" d="M 181.152244 30.56365 
L 317.056119 30.56365 
L 421.176024 29.257312 
L 426.656019 36.442166 
L 357.608082 101.105852 
L 151.560271 303.5881 
L 106.624312 287.258887 
L 281.984151 120.04774 
L 302.808132 90.001987 
L 281.984151 84.12347 
L 163.61626 84.12347 
L 91.280326 108.943875 
L 58.400356 105.024863 
L 93.472324 29.257312 
" style="fill:none;stroke:#ff0000;stroke-linecap:square;stroke-width:0.2;"/>
   </g>
   <g id="line2d_2">
    <path clip-path="url(#pa00ae2a5d2)" d="M 305.54813 63.222077 
L 170.740253 63.222077 
L 94.020323 84.12347 
L 73.196342 79.55129 
L 100.596317 28.604144 
L 179.508245 29.910481 
L 305.54813 29.910481 
L 407.476037 28.604144 
L 411.860033 33.176324 
L 341.716097 98.493178 
L 153.204269 301.628595 
L 122.516297 292.484235 
L 306.644129 94.574167 
" style="fill:none;stroke:#0000ff;stroke-linecap:square;stroke-width:0.2;"/>
   </g>
  </g>
 </g>
 <defs>
  <clipPath id="pa00ae2a5d2">
   <rect height="307.51175" width="409.903625" x="37.576375" y="13.32"/>
  </clipPath>
 </defs>
</svg>
