<?xml version="1.0" encoding="utf-8" standalone="no"?>
<!DOCTYPE svg PUBLIC "-//W3C//DTD SVG 1.1//EN"
  "http://www.w3.org/Graphics/SVG/1.1/DTD/svg11.dtd">
<!-- Created with matplotlib (http://matplotlib.org/) -->
<svg height="345.6pt" version="1.1" viewBox="0 0 460.8 345.6" width="460.8pt" xmlns="http://www.w3.org/2000/svg" xmlns:xlink="http://www.w3.org/1999/xlink">
 <defs>
  <style type="text/css">
*{stroke-linecap:butt;stroke-linejoin:round;}
  </style>
 </defs>
 <g id="figure_1">
  <g id="patch_1">
   <path d="M 0 345.6 
L 460.8 345.6 
L 460.8 0 
L 0 0 
z
" style="fill:#ffffff;"/>
  </g>
  <g id="axes_1">
   <g id="patch_2">
    <path clip-path="url(#pe6e0926f32)" d="M 407.486508 38.480052 
C 407.906148 38.480052 408.308657 38.395893 408.605387 38.246109 
C 408.902117 38.096325 409.068842 37.893147 409.068842 37.68132 
C 409.068842 37.469494 408.902117 37.266315 408.605387 37.116532 
C 408.308657 36.966748 407.906148 36.882589 407.486508 36.882589 
C 407.066868 36.882589 406.664359 36.966748 406.367629 37.116532 
C 406.070899 37.266315 405.904174 37.469494 405.904174 37.68132 
C 405.904174 37.893147 406.070899 38.096325 406.367629 38.246109 
C 406.664359 38.395893 407.066868 38.480052 407.486508 38.480052 
z
" style="fill:#ff0000;opacity:0.2;stroke:#ff0000;stroke-linejoin:miter;stroke-width:2;"/>
   </g>
   <g id="patch_3">
    <path clip-path="url(#pe6e0926f32)" d="M 114.754716 306.055211 
C 115.174356 306.055211 115.576865 305.971052 115.873595 305.821268 
C 116.170326 305.671485 116.33705 305.468306 116.33705 305.25648 
C 116.33705 305.044653 116.170326 304.841475 115.873595 304.691691 
C 115.576865 304.541907 115.174356 304.457748 114.754716 304.457748 
C 114.335076 304.457748 113.932567 304.541907 113.635837 304.691691 
C 113.339107 304.841475 113.172382 305.044653 113.172382 305.25648 
C 113.172382 305.468306 113.339107 305.671485 113.635837 305.821268 
C 113.932567 305.971052 114.335076 306.055211 114.754716 306.055211 
z
" style="fill:#ff0000;opacity:0.2;stroke:#ff0000;stroke-linejoin:miter;stroke-width:2;"/>
   </g>
   <g id="patch_4">
    <path clip-path="url(#pe6e0926f32)" d="M 77.569867 296.47043 
C 77.989507 296.47043 78.392016 296.38627 78.688746 296.236486 
C 78.985476 296.086703 79.152201 295.883524 79.152201 295.671698 
C 79.152201 295.459872 78.985476 295.256693 78.688746 295.106909 
C 78.392016 294.957125 77.989507 294.872966 77.569867 294.872966 
C 77.150227 294.872966 76.747718 294.957125 76.450988 295.106909 
C 76.154258 295.256693 75.987533 295.459872 75.987533 295.671698 
C 75.987533 295.883524 76.154258 296.086703 76.450988 296.236486 
C 76.747718 296.38627 77.150227 296.47043 77.569867 296.47043 
z
" style="fill:#ff0000;opacity:0.2;stroke:#ff0000;stroke-linejoin:miter;stroke-width:2;"/>
   </g>
   <g id="patch_5">
    <path clip-path="url(#pe6e0926f32)" d="M 370.301659 28.89527 
C 370.721299 28.89527 371.123808 28.811111 371.420538 28.661327 
C 371.717268 28.511544 371.883993 28.308365 371.883993 28.096539 
C 371.883993 27.884712 371.717268 27.681534 371.420538 27.53175 
C 371.123808 27.381966 370.721299 27.297807 370.301659 27.297807 
C 369.882019 27.297807 369.47951 27.381966 369.18278 27.53175 
C 368.886049 27.681534 368.719325 27.884712 368.719325 28.096539 
C 368.719325 28.308365 368.886049 28.511544 369.18278 28.661327 
C 369.47951 28.811111 369.882019 28.89527 370.301659 28.89527 
z
" style="fill:#ff0000;opacity:0.2;stroke:#ff0000;stroke-linejoin:miter;stroke-width:2;"/>
   </g>
   <g id="patch_6">
    <path clip-path="url(#pe6e0926f32)" d="M 57.790692 295.671698 
C 58.210332 295.671698 58.612841 295.587538 58.909571 295.437755 
C 59.206301 295.287971 59.373026 295.084792 59.373026 294.872966 
C 59.373026 294.66114 59.206301 294.457961 58.909571 294.308177 
C 58.612841 294.158394 58.210332 294.074234 57.790692 294.074234 
C 57.371052 294.074234 56.968543 294.158394 56.671813 294.308177 
C 56.375083 294.457961 56.208358 294.66114 56.208358 294.872966 
C 56.208358 295.084792 56.375083 295.287971 56.671813 295.437755 
C 56.968543 295.587538 57.371052 295.671698 57.790692 295.671698 
z
" style="fill:#0000ff;opacity:0.2;stroke:#0000ff;stroke-linejoin:miter;stroke-width:2;"/>
   </g>
   <g id="patch_7">
    <path clip-path="url(#pe6e0926f32)" d="M 402.739506 28.89527 
C 403.159146 28.89527 403.561655 28.811111 403.858385 28.661327 
C 404.155115 28.511544 404.32184 28.308365 404.32184 28.096539 
C 404.32184 27.884712 404.155115 27.681534 403.858385 27.53175 
C 403.561655 27.381966 403.159146 27.297807 402.739506 27.297807 
C 402.319866 27.297807 401.917357 27.381966 401.620627 27.53175 
C 401.323897 27.681534 401.157172 27.884712 401.157172 28.096539 
C 401.157172 28.308365 401.323897 28.511544 401.620627 28.661327 
C 401.917357 28.811111 402.319866 28.89527 402.739506 28.89527 
z
" style="fill:#0000ff;opacity:0.2;stroke:#0000ff;stroke-linejoin:miter;stroke-width:2;"/>
   </g>
   <g id="patch_8">
    <path clip-path="url(#pe6e0926f32)" d="M 427.265683 38.080686 
C 427.685323 38.080686 428.087832 37.996527 428.384562 37.846743 
C 428.681292 37.69696 428.848017 37.493781 428.848017 37.281955 
C 428.848017 37.070128 428.681292 36.86695 428.384562 36.717166 
C 428.087832 36.567382 427.685323 36.483223 427.265683 36.483223 
C 426.846043 36.483223 426.443534 36.567382 426.146804 36.717166 
C 425.850074 36.86695 425.683349 37.070128 425.683349 37.281955 
C 425.683349 37.493781 425.850074 37.69696 426.146804 37.846743 
C 426.443534 37.996527 426.846043 38.080686 427.265683 38.080686 
z
" style="fill:#0000ff;opacity:0.2;stroke:#0000ff;stroke-linejoin:miter;stroke-width:2;"/>
   </g>
   <g id="patch_9">
    <path clip-path="url(#pe6e0926f32)" d="M 79.152201 306.055211 
C 79.571841 306.055211 79.97435 305.971052 80.27108 305.821268 
C 80.56781 305.671485 80.734535 305.468306 80.734535 305.25648 
C 80.734535 305.044653 80.56781 304.841475 80.27108 304.691691 
C 79.97435 304.541907 79.571841 304.457748 79.152201 304.457748 
C 78.732561 304.457748 78.330052 304.541907 78.033322 304.691691 
C 77.736592 304.841475 77.569867 305.044653 77.569867 305.25648 
C 77.569867 305.468306 77.736592 305.671485 78.033322 305.821268 
C 78.330052 305.971052 78.732561 306.055211 79.152201 306.055211 
z
" style="fill:#0000ff;opacity:0.2;stroke:#0000ff;stroke-linejoin:miter;stroke-width:2;"/>
   </g>
   <g id="patch_10">
    <path clip-path="url(#pe6e0926f32)" d="M 407.486508 37.68132 
L 114.754716 305.25648 
C 100.51371 306.853943 83.108036 302.460918 77.569867 295.671698 
L 370.301659 28.096539 
C 382.169164 27.297807 403.530673 30.8921 407.486508 37.68132 
" style="fill:none;stroke:#ff0000;stroke-linejoin:miter;stroke-width:0.5;"/>
   </g>
   <g id="patch_11">
    <path clip-path="url(#pe6e0926f32)" d="M 57.790692 294.872966 
C 174.092242 205.814368 289.602624 117.155136 402.739506 28.096539 
C 412.23351 28.096539 421.727514 30.8921 427.265683 37.281955 
C 309.381799 126.739918 193.871417 215.798516 79.152201 305.25648 
C 65.702362 305.25648 58.581859 300.863455 57.790692 294.872966 
" style="fill:none;stroke:#0000ff;stroke-linejoin:miter;stroke-width:0.5;"/>
   </g>
   <g id="[&quot;g_s&quot;:1,&quot;g_t&quot;:3,&quot;coords&quot;:[[309.0, -70.0],[334.0, -69.0]],&quot;certainty&quot;:7]">
    <path clip-path="url(#pe6e0926f32)" d="M 407.486508 39.278784 
C 408.325788 39.278784 409.130806 39.110465 409.724266 38.810898 
C 410.317727 38.51133 410.651176 38.104973 410.651176 37.68132 
C 410.651176 37.257668 410.317727 36.851311 409.724266 36.551743 
C 409.130806 36.252176 408.325788 36.083857 407.486508 36.083857 
C 406.647228 36.083857 405.84221 36.252176 405.24875 36.551743 
C 404.655289 36.851311 404.32184 37.257668 404.32184 37.68132 
C 404.32184 38.104973 404.655289 38.51133 405.24875 38.810898 
C 405.84221 39.110465 406.647228 39.278784 407.486508 39.278784 
z
" style="fill:#0000ff;opacity:0.2;stroke:#0000ff;stroke-linejoin:miter;stroke-width:2;"/>
   </g>
   <g id="[&quot;g_s&quot;:3,&quot;g_t&quot;:1,&quot;coords&quot;:[[334.0, -69.0],[309.0, -70.0]],&quot;certainty&quot;:7]">
    <path clip-path="url(#pe6e0926f32)" d="M 427.265683 38.879418 
C 428.104963 38.879418 428.909981 38.711099 429.503441 38.411532 
C 430.096902 38.111964 430.430351 37.705607 430.430351 37.281955 
C 430.430351 36.858302 430.096902 36.451945 429.503441 36.152377 
C 428.909981 35.85281 428.104963 35.684491 427.265683 35.684491 
C 426.426403 35.684491 425.621385 35.85281 425.027925 36.152377 
C 424.434464 36.451945 424.101015 36.858302 424.101015 37.281955 
C 424.101015 37.705607 424.434464 38.111964 425.027925 38.411532 
C 425.621385 38.711099 426.426403 38.879418 427.265683 38.879418 
z
" style="fill:#ff0000;opacity:0.2;stroke:#ff0000;stroke-linejoin:miter;stroke-width:2;"/>
   </g>
   <g id="patch_12">
    <path d="M 407.486508 37.68132 
Q 416.374099 37.501869 423.847764 37.350967 
" style="fill:none;opacity:0.5;stroke:#0000ff;stroke-linecap:round;stroke-width:2;"/>
    <path d="M 422.317789 35.881553 
L 423.847764 37.350967 
L 422.37835 38.880942 
" style="fill:none;opacity:0.5;stroke:#0000ff;stroke-linecap:round;stroke-width:2;"/>
   </g>
   <g id="[&quot;g_s&quot;:2,&quot;g_t&quot;:4,&quot;coords&quot;:[[-61.0, -740.0],[-106.0, -740.0]],&quot;certainty&quot;:12]">
    <path clip-path="url(#pe6e0926f32)" d="M 114.754716 307.852358 
C 116.118546 307.852358 117.4267 307.57884 118.391073 307.092043 
C 119.355447 306.605246 119.897302 305.944915 119.897302 305.25648 
C 119.897302 304.568045 119.355447 303.907713 118.391073 303.420916 
C 117.4267 302.934119 116.118546 302.660601 114.754716 302.660601 
C 113.390887 302.660601 112.082732 302.934119 111.118359 303.420916 
C 110.153986 303.907713 109.612131 304.568045 109.612131 305.25648 
C 109.612131 305.944915 110.153986 306.605246 111.118359 307.092043 
C 112.082732 307.57884 113.390887 307.852358 114.754716 307.852358 
z
" style="fill:#0000ff;opacity:0.2;stroke:#0000ff;stroke-linejoin:miter;stroke-width:2;"/>
   </g>
   <g id="[&quot;g_s&quot;:4,&quot;g_t&quot;:2,&quot;coords&quot;:[[-106.0, -740.0],[-61.0, -740.0]],&quot;certainty&quot;:12]">
    <path clip-path="url(#pe6e0926f32)" d="M 79.152201 307.852358 
C 80.516031 307.852358 81.824185 307.57884 82.788558 307.092043 
C 83.752931 306.605246 84.294787 305.944915 84.294787 305.25648 
C 84.294787 304.568045 83.752931 303.907713 82.788558 303.420916 
C 81.824185 302.934119 80.516031 302.660601 79.152201 302.660601 
C 77.788371 302.660601 76.480217 302.934119 75.515844 303.420916 
C 74.551471 303.907713 74.009616 304.568045 74.009616 305.25648 
C 74.009616 305.944915 74.551471 306.605246 75.515844 307.092043 
C 76.480217 307.57884 77.788371 307.852358 79.152201 307.852358 
z
" style="fill:#ff0000;opacity:0.2;stroke:#ff0000;stroke-linejoin:miter;stroke-width:2;"/>
   </g>
   <g id="patch_13">
    <path d="M 114.754716 305.25648 
Q 97.955214 305.25648 83.453809 305.25648 
" style="fill:none;opacity:0.5;stroke:#0000ff;stroke-linecap:round;stroke-width:3.25;"/>
    <path d="M 84.953809 306.75648 
L 83.453809 305.25648 
L 84.953809 303.75648 
" style="fill:none;opacity:0.5;stroke:#0000ff;stroke-linecap:round;stroke-width:3.25;"/>
   </g>
   <g id="[&quot;g_s&quot;:3,&quot;g_t&quot;:1,&quot;coords&quot;:[[-108.0, -716.0],[-133.0, -714.0]],&quot;certainty&quot;:11]">
    <path clip-path="url(#pe6e0926f32)" d="M 77.569867 298.067893 
C 78.828787 298.067893 80.036314 297.815415 80.926504 297.366064 
C 81.816695 296.916713 82.316869 296.307176 82.316869 295.671698 
C 82.316869 295.036219 81.816695 294.426683 80.926504 293.977332 
C 80.036314 293.527981 78.828787 293.275502 77.569867 293.275502 
C 76.310947 293.275502 75.10342 293.527981 74.21323 293.977332 
C 73.323039 294.426683 72.822865 295.036219 72.822865 295.671698 
C 72.822865 296.307176 73.323039 296.916713 74.21323 297.366064 
C 75.10342 297.815415 76.310947 298.067893 77.569867 298.067893 
z
" style="fill:#0000ff;opacity:0.2;stroke:#0000ff;stroke-linejoin:miter;stroke-width:2;"/>
   </g>
   <g id="[&quot;g_s&quot;:1,&quot;g_t&quot;:3,&quot;coords&quot;:[[-133.0, -714.0],[-108.0, -716.0]],&quot;certainty&quot;:11]">
    <path clip-path="url(#pe6e0926f32)" d="M 57.790692 297.269161 
C 59.049612 297.269161 60.257139 297.016683 61.147329 296.567332 
C 62.03752 296.117981 62.537694 295.508444 62.537694 294.872966 
C 62.537694 294.237487 62.03752 293.627951 61.147329 293.1786 
C 60.257139 292.729249 59.049612 292.47677 57.790692 292.47677 
C 56.531772 292.47677 55.324245 292.729249 54.434055 293.1786 
C 53.543864 293.627951 53.04369 294.237487 53.04369 294.872966 
C 53.04369 295.508444 53.543864 296.117981 54.434055 296.567332 
C 55.324245 297.016683 56.531772 297.269161 57.790692 297.269161 
z
" style="fill:#ff0000;opacity:0.2;stroke:#ff0000;stroke-linejoin:miter;stroke-width:2;"/>
   </g>
   <g id="patch_14">
    <path d="M 77.569867 295.671698 
Q 68.677447 295.3126 61.904621 295.039096 
" style="fill:none;opacity:0.5;stroke:#0000ff;stroke-linecap:round;stroke-width:3;"/>
    <path d="M 63.342875 296.598399 
L 61.904621 295.039096 
L 63.463923 293.600842 
" style="fill:none;opacity:0.5;stroke:#0000ff;stroke-linecap:round;stroke-width:3;"/>
   </g>
   <g id="[&quot;g_s&quot;:4,&quot;g_t&quot;:2,&quot;coords&quot;:[[262.0, -46.0],[303.0, -46.0]],&quot;certainty&quot;:8]">
    <path clip-path="url(#pe6e0926f32)" d="M 370.301659 29.893685 
C 371.245848 29.893685 372.151494 29.704327 372.819137 29.367313 
C 373.48678 29.0303 373.86191 28.573147 373.86191 28.096539 
C 373.86191 27.61993 373.48678 27.162777 372.819137 26.825764 
C 372.151494 26.488751 371.245848 26.299392 370.301659 26.299392 
C 369.357469 26.299392 368.451824 26.488751 367.784181 26.825764 
C 367.116538 27.162777 366.741407 27.61993 366.741407 28.096539 
C 366.741407 28.573147 367.116538 29.0303 367.784181 29.367313 
C 368.451824 29.704327 369.357469 29.893685 370.301659 29.893685 
z
" style="fill:#0000ff;opacity:0.2;stroke:#0000ff;stroke-linejoin:miter;stroke-width:2;"/>
   </g>
   <g id="[&quot;g_s&quot;:2,&quot;g_t&quot;:4,&quot;coords&quot;:[[303.0, -46.0],[262.0, -46.0]],&quot;certainty&quot;:8]">
    <path clip-path="url(#pe6e0926f32)" d="M 402.739506 29.893685 
C 403.683696 29.893685 404.589341 29.704327 405.256984 29.367313 
C 405.924627 29.0303 406.299757 28.573147 406.299757 28.096539 
C 406.299757 27.61993 405.924627 27.162777 405.256984 26.825764 
C 404.589341 26.488751 403.683696 26.299392 402.739506 26.299392 
C 401.795316 26.299392 400.889671 26.488751 400.222028 26.825764 
C 399.554385 27.162777 399.179254 27.61993 399.179254 28.096539 
C 399.179254 28.573147 399.554385 29.0303 400.222028 29.367313 
C 400.889671 29.704327 401.795316 29.893685 402.739506 29.893685 
z
" style="fill:#ff0000;opacity:0.2;stroke:#ff0000;stroke-linejoin:miter;stroke-width:2;"/>
   </g>
   <g id="patch_15">
    <path d="M 370.301659 28.096539 
Q 385.520759 28.096539 399.148868 28.096539 
" style="fill:none;opacity:0.5;stroke:#0000ff;stroke-linecap:round;stroke-width:2.25;"/>
    <path d="M 397.648868 26.596539 
L 399.148868 28.096539 
L 397.648868 29.596539 
" style="fill:none;opacity:0.5;stroke:#0000ff;stroke-linecap:round;stroke-width:2.25;"/>
   </g>
   <g id="[&quot;g_s&quot;:1,&quot;g_t&quot;:3,&quot;coords&quot;:[[-133.0, -714.0],[-108.0, -716.0]],&quot;certainty&quot;:11]">
    <path clip-path="url(#pe6e0926f32)" d="M 57.790692 297.269161 
C 59.049612 297.269161 60.257139 297.016683 61.147329 296.567332 
C 62.03752 296.117981 62.537694 295.508444 62.537694 294.872966 
C 62.537694 294.237487 62.03752 293.627951 61.147329 293.1786 
C 60.257139 292.729249 59.049612 292.47677 57.790692 292.47677 
C 56.531772 292.47677 55.324245 292.729249 54.434055 293.1786 
C 53.543864 293.627951 53.04369 294.237487 53.04369 294.872966 
C 53.04369 295.508444 53.543864 296.117981 54.434055 296.567332 
C 55.324245 297.016683 56.531772 297.269161 57.790692 297.269161 
z
" style="fill:#0000ff;opacity:0.2;stroke:#0000ff;stroke-linejoin:miter;stroke-width:2;"/>
   </g>
   <g id="[&quot;g_s&quot;:3,&quot;g_t&quot;:1,&quot;coords&quot;:[[-108.0, -716.0],[-133.0, -714.0]],&quot;certainty&quot;:11]">
    <path clip-path="url(#pe6e0926f32)" d="M 77.569867 298.067893 
C 78.828787 298.067893 80.036314 297.815415 80.926504 297.366064 
C 81.816695 296.916713 82.316869 296.307176 82.316869 295.671698 
C 82.316869 295.036219 81.816695 294.426683 80.926504 293.977332 
C 80.036314 293.527981 78.828787 293.275502 77.569867 293.275502 
C 76.310947 293.275502 75.10342 293.527981 74.21323 293.977332 
C 73.323039 294.426683 72.822865 295.036219 72.822865 295.671698 
C 72.822865 296.307176 73.323039 296.916713 74.21323 297.366064 
C 75.10342 297.815415 76.310947 298.067893 77.569867 298.067893 
z
" style="fill:#ff0000;opacity:0.2;stroke:#ff0000;stroke-linejoin:miter;stroke-width:2;"/>
   </g>
   <g id="patch_16">
    <path d="M 57.790692 294.872966 
Q 66.683112 295.232064 73.455939 295.505567 
" style="fill:none;opacity:0.5;stroke:#ff0000;stroke-linecap:round;stroke-width:3;"/>
    <path d="M 72.017684 293.946264 
L 73.455939 295.505567 
L 71.896636 296.943821 
" style="fill:none;opacity:0.5;stroke:#ff0000;stroke-linecap:round;stroke-width:3;"/>
   </g>
   <g id="[&quot;g_s&quot;:2,&quot;g_t&quot;:4,&quot;coords&quot;:[[303.0, -46.0],[262.0, -46.0]],&quot;certainty&quot;:10]">
    <path clip-path="url(#pe6e0926f32)" d="M 402.739506 30.293051 
C 403.893516 30.293051 405.000415 30.061613 405.816423 29.649708 
C 406.632432 29.237802 407.090924 28.679061 407.090924 28.096539 
C 407.090924 27.514017 406.632432 26.955275 405.816423 26.54337 
C 405.000415 26.131465 403.893516 25.900026 402.739506 25.900026 
C 401.585496 25.900026 400.478596 26.131465 399.662588 26.54337 
C 398.84658 26.955275 398.388087 27.514017 398.388087 28.096539 
C 398.388087 28.679061 398.84658 29.237802 399.662588 29.649708 
C 400.478596 30.061613 401.585496 30.293051 402.739506 30.293051 
z
" style="fill:#0000ff;opacity:0.2;stroke:#0000ff;stroke-linejoin:miter;stroke-width:2;"/>
   </g>
   <g id="[&quot;g_s&quot;:4,&quot;g_t&quot;:2,&quot;coords&quot;:[[262.0, -46.0],[303.0, -46.0]],&quot;certainty&quot;:10]">
    <path clip-path="url(#pe6e0926f32)" d="M 370.301659 30.293051 
C 371.455668 30.293051 372.562568 30.061613 373.378576 29.649708 
C 374.194584 29.237802 374.653077 28.679061 374.653077 28.096539 
C 374.653077 27.514017 374.194584 26.955275 373.378576 26.54337 
C 372.562568 26.131465 371.455668 25.900026 370.301659 25.900026 
C 369.147649 25.900026 368.040749 26.131465 367.224741 26.54337 
C 366.408733 26.955275 365.95024 27.514017 365.95024 28.096539 
C 365.95024 28.679061 366.408733 29.237802 367.224741 29.649708 
C 368.040749 30.061613 369.147649 30.293051 370.301659 30.293051 
z
" style="fill:#ff0000;opacity:0.2;stroke:#ff0000;stroke-linejoin:miter;stroke-width:2;"/>
   </g>
   <g id="patch_17">
    <path d="M 402.739506 28.096539 
Q 387.520406 28.096539 374.24585 28.096539 
" style="fill:none;opacity:0.5;stroke:#ff0000;stroke-linecap:round;stroke-width:2.75;"/>
    <path d="M 375.74585 29.596539 
L 374.24585 28.096539 
L 375.74585 26.596539 
" style="fill:none;opacity:0.5;stroke:#ff0000;stroke-linecap:round;stroke-width:2.75;"/>
   </g>
   <g id="patch_18">
    <path clip-path="url(#pe6e0926f32)" d="M 67.68028 297.269161 
C 68.729379 297.269161 69.735652 297.058763 70.477477 296.684304 
C 71.219303 296.309844 71.636115 295.801897 71.636115 295.272332 
C 71.636115 294.742766 71.219303 294.234819 70.477477 293.86036 
C 69.735652 293.485901 68.729379 293.275502 67.68028 293.275502 
C 66.63118 293.275502 65.624907 293.485901 64.883082 293.86036 
C 64.141256 294.234819 63.724444 294.742766 63.724444 295.272332 
C 63.724444 295.801897 64.141256 296.309844 64.883082 296.684304 
C 65.624907 297.058763 66.63118 297.269161 67.68028 297.269161 
z
" style="fill:#008000;opacity:0.2;stroke:#008000;stroke-linejoin:miter;stroke-width:2;"/>
   </g>
   <g id="patch_19">
    <path clip-path="url(#pe6e0926f32)" d="M 386.520582 30.093368 
C 387.569682 30.093368 388.575955 29.88297 389.31778 29.50851 
C 390.059606 29.134051 390.476417 28.626104 390.476417 28.096539 
C 390.476417 27.566973 390.059606 27.059026 389.31778 26.684567 
C 388.575955 26.310108 387.569682 26.099709 386.520582 26.099709 
C 385.471483 26.099709 384.46521 26.310108 383.723385 26.684567 
C 382.981559 27.059026 382.564747 27.566973 382.564747 28.096539 
C 382.564747 28.626104 382.981559 29.134051 383.723385 29.50851 
C 384.46521 29.88297 385.471483 30.093368 386.520582 30.093368 
z
" style="fill:#008000;opacity:0.2;stroke:#008000;stroke-linejoin:miter;stroke-width:2;"/>
   </g>
   <g id="patch_20">
    <path clip-path="url(#pe6e0926f32)" d="M 407.486508 45.668639 
C 411.682907 45.668639 415.707997 44.827044 418.675299 43.329207 
C 421.642601 41.83137 423.309848 39.799582 423.309848 37.68132 
C 423.309848 35.563059 421.642601 33.531271 418.675299 32.033434 
C 415.707997 30.535597 411.682907 29.694002 407.486508 29.694002 
C 403.290109 29.694002 399.265019 30.535597 396.297717 32.033434 
C 393.330415 33.531271 391.663168 35.563059 391.663168 37.68132 
C 391.663168 39.799582 393.330415 41.83137 396.297717 43.329207 
C 399.265019 44.827044 403.290109 45.668639 407.486508 45.668639 
z
" style="fill:none;opacity:0.2;stroke:#ff0000;stroke-linejoin:miter;stroke-width:2;"/>
   </g>
   <g id="patch_21">
    <path clip-path="url(#pe6e0926f32)" d="M 57.790692 302.860284 
C 61.987091 302.860284 66.012181 302.01869 68.979483 300.520853 
C 71.946785 299.023016 73.614032 296.991227 73.614032 294.872966 
C 73.614032 292.754704 71.946785 290.722916 68.979483 289.225079 
C 66.012181 287.727242 61.987091 286.885648 57.790692 286.885648 
C 53.594293 286.885648 49.569203 287.727242 46.601901 289.225079 
C 43.634599 290.722916 41.967352 292.754704 41.967352 294.872966 
C 41.967352 296.991227 43.634599 299.023016 46.601901 300.520853 
C 49.569203 302.01869 53.594293 302.860284 57.790692 302.860284 
z
" style="fill:none;opacity:0.2;stroke:#0000ff;stroke-linejoin:miter;stroke-width:2;"/>
   </g>
   <g id="patch_22">
    <path clip-path="url(#pe6e0926f32)" d="M 77.569867 299.665357 
C 79.668066 299.665357 81.680612 299.24456 83.164263 298.495641 
C 84.647914 297.746723 85.481537 296.730828 85.481537 295.671698 
C 85.481537 294.612567 84.647914 293.596673 83.164263 292.847754 
C 81.680612 292.098836 79.668066 291.678039 77.569867 291.678039 
C 75.471668 291.678039 73.459123 292.098836 71.975472 292.847754 
C 70.49182 293.596673 69.658197 294.612567 69.658197 295.671698 
C 69.658197 296.730828 70.49182 297.746723 71.975472 298.495641 
C 73.459123 299.24456 75.471668 299.665357 77.569867 299.665357 
z
" style="fill:none;opacity:0.2;stroke:#008000;stroke-linejoin:miter;stroke-width:2;"/>
   </g>
   <g id="patch_23">
    <path clip-path="url(#pe6e0926f32)" d="M 57.790692 298.866625 
C 59.888891 298.866625 61.901436 298.445828 63.385088 297.696909 
C 64.868739 296.947991 65.702362 295.932097 65.702362 294.872966 
C 65.702362 293.813835 64.868739 292.797941 63.385088 292.049022 
C 61.901436 291.300104 59.888891 290.879307 57.790692 290.879307 
C 55.692493 290.879307 53.679947 291.300104 52.196296 292.049022 
C 50.712645 292.797941 49.879022 293.813835 49.879022 294.872966 
C 49.879022 295.932097 50.712645 296.947991 52.196296 297.696909 
C 53.679947 298.445828 55.692493 298.866625 57.790692 298.866625 
z
" style="fill:none;opacity:0.2;stroke:#008000;stroke-linejoin:miter;stroke-width:2;"/>
   </g>
   <g id="patch_24">
    <path d="M 67.68028 295.272332 
Q 227.100431 161.684435 386.520582 28.096539 
" style="fill:none;opacity:0.5;stroke:#008000;stroke-linecap:round;stroke-width:2;"/>
   </g>
   <g id="patch_25">
    <path d="M 76.156805 295.614635 
Q 68.677447 295.3126 61.19809 295.010565 
" style="fill:none;opacity:0.5;stroke:#800080;stroke-linecap:round;stroke-width:2;"/>
    <path d="M 74.718551 294.055332 
L 76.156805 295.614635 
L 74.597502 297.052889 
" style="fill:none;opacity:0.5;stroke:#800080;stroke-linecap:round;stroke-width:2;"/>
    <path d="M 62.636344 296.569868 
L 61.19809 295.010565 
L 62.757392 293.572311 
" style="fill:none;opacity:0.5;stroke:#800080;stroke-linecap:round;stroke-width:2;"/>
   </g>
   <g id="line2d_1">
    <path clip-path="url(#pe6e0926f32)" d="M 407.486508 37.68132 
L 114.754716 305.25648 
L 77.569867 295.671698 
L 370.301659 28.096539 
" style="fill:none;stroke:#ff0000;stroke-linecap:square;stroke-width:0.2;"/>
   </g>
   <g id="line2d_2">
    <path clip-path="url(#pe6e0926f32)" d="M 57.790692 294.872966 
L 402.739506 28.096539 
L 427.265683 37.281955 
L 79.152201 305.25648 
" style="fill:none;stroke:#0000ff;stroke-linecap:square;stroke-width:0.2;"/>
   </g>
  </g>
 </g>
 <defs>
  <clipPath id="pe6e0926f32">
   <rect height="307.51175" width="409.903625" x="37.576375" y="13.32"/>
  </clipPath>
 </defs>
</svg>
