<?xml version="1.0" encoding="utf-8" standalone="no"?>
<!DOCTYPE svg PUBLIC "-//W3C//DTD SVG 1.1//EN"
  "http://www.w3.org/Graphics/SVG/1.1/DTD/svg11.dtd">
<!-- Created with matplotlib (http://matplotlib.org/) -->
<svg height="345.6pt" version="1.1" viewBox="0 0 460.8 345.6" width="460.8pt" xmlns="http://www.w3.org/2000/svg" xmlns:xlink="http://www.w3.org/1999/xlink">
 <defs>
  <style type="text/css">
*{stroke-linecap:butt;stroke-linejoin:round;}
  </style>
 </defs>
 <g id="figure_1">
  <g id="patch_1">
   <path d="M 0 345.6 
L 460.8 345.6 
L 460.8 0 
L 0 0 
z
" style="fill:#ffffff;"/>
  </g>
  <g id="axes_1">
   <g id="patch_2">
    <path clip-path="url(#pa76dfe2143)" d="M 241.714564 42.973852 
C 242.289965 42.973852 242.841877 42.836208 243.248747 42.591235 
C 243.655618 42.346261 243.884227 42.013959 243.884227 41.667515 
C 243.884227 41.32107 243.655618 40.988768 243.248747 40.743795 
C 242.841877 40.498822 242.289965 40.361178 241.714564 40.361178 
C 241.139162 40.361178 240.58725 40.498822 240.18038 40.743795 
C 239.77351 40.988768 239.544901 41.32107 239.544901 41.667515 
C 239.544901 42.013959 239.77351 42.346261 240.18038 42.591235 
C 240.58725 42.836208 241.139162 42.973852 241.714564 42.973852 
z
" style="fill:#ff0000;opacity:0.2;stroke:#ff0000;stroke-linejoin:miter;stroke-width:2;"/>
   </g>
   <g id="patch_3">
    <path clip-path="url(#pa76dfe2143)" d="M 421.796612 173.60756 
C 422.372013 173.60756 422.923925 173.469917 423.330795 173.224943 
C 423.737665 172.97997 423.966275 172.647668 423.966275 172.301223 
C 423.966275 171.954779 423.737665 171.622477 423.330795 171.377504 
C 422.923925 171.13253 422.372013 170.994886 421.796612 170.994886 
C 421.22121 170.994886 420.669298 171.13253 420.262428 171.377504 
C 419.855558 171.622477 419.626948 171.954779 419.626948 172.301223 
C 419.626948 172.647668 419.855558 172.97997 420.262428 173.224943 
C 420.669298 173.469917 421.22121 173.60756 421.796612 173.60756 
z
" style="fill:#ff0000;opacity:0.2;stroke:#ff0000;stroke-linejoin:miter;stroke-width:2;"/>
   </g>
   <g id="patch_4">
    <path clip-path="url(#pa76dfe2143)" d="M 241.714564 304.241269 
C 242.289965 304.241269 242.841877 304.103625 243.248747 303.858652 
C 243.655618 303.613678 243.884227 303.281377 243.884227 302.934932 
C 243.884227 302.588487 243.655618 302.256185 243.248747 302.011212 
C 242.841877 301.766239 242.289965 301.628595 241.714564 301.628595 
C 241.139162 301.628595 240.58725 301.766239 240.18038 302.011212 
C 239.77351 302.256185 239.544901 302.588487 239.544901 302.934932 
C 239.544901 303.281377 239.77351 303.613678 240.18038 303.858652 
C 240.58725 304.103625 241.139162 304.241269 241.714564 304.241269 
z
" style="fill:#ff0000;opacity:0.2;stroke:#ff0000;stroke-linejoin:miter;stroke-width:2;"/>
   </g>
   <g id="patch_5">
    <path clip-path="url(#pa76dfe2143)" d="M 62.717348 173.60756 
C 63.292749 173.60756 63.844661 173.469917 64.251531 173.224943 
C 64.658401 172.97997 64.887011 172.647668 64.887011 172.301223 
C 64.887011 171.954779 64.658401 171.622477 64.251531 171.377504 
C 63.844661 171.13253 63.292749 170.994886 62.717348 170.994886 
C 62.141946 170.994886 61.590034 171.13253 61.183164 171.377504 
C 60.776294 171.622477 60.547684 171.954779 60.547684 172.301223 
C 60.547684 172.647668 60.776294 172.97997 61.183164 173.224943 
C 61.590034 173.469917 62.141946 173.60756 62.717348 173.60756 
z
" style="fill:#ff0000;opacity:0.2;stroke:#ff0000;stroke-linejoin:miter;stroke-width:2;"/>
   </g>
   <g id="patch_6">
    <path clip-path="url(#pa76dfe2143)" d="M 242.799395 41.667515 
C 243.374797 41.667515 243.926709 41.529871 244.333579 41.284897 
C 244.740449 41.039924 244.969059 40.707622 244.969059 40.361178 
C 244.969059 40.014733 244.740449 39.682431 244.333579 39.437458 
C 243.926709 39.192485 243.374797 39.054841 242.799395 39.054841 
C 242.223994 39.054841 241.672082 39.192485 241.265212 39.437458 
C 240.858342 39.682431 240.629732 40.014733 240.629732 40.361178 
C 240.629732 40.707622 240.858342 41.039924 241.265212 41.284897 
C 241.672082 41.529871 242.223994 41.667515 242.799395 41.667515 
z
" style="fill:#0000ff;opacity:0.2;stroke:#0000ff;stroke-linejoin:miter;stroke-width:2;"/>
   </g>
   <g id="patch_7">
    <path clip-path="url(#pa76dfe2143)" d="M 403.354474 172.301223 
C 403.929876 172.301223 404.481787 172.163579 404.888658 171.918606 
C 405.295528 171.673633 405.524137 171.341331 405.524137 170.994886 
C 405.524137 170.648442 405.295528 170.31614 404.888658 170.071166 
C 404.481787 169.826193 403.929876 169.688549 403.354474 169.688549 
C 402.779073 169.688549 402.227161 169.826193 401.820291 170.071166 
C 401.41342 170.31614 401.184811 170.648442 401.184811 170.994886 
C 401.184811 171.341331 401.41342 171.673633 401.820291 171.918606 
C 402.227161 172.163579 402.779073 172.301223 403.354474 172.301223 
z
" style="fill:#0000ff;opacity:0.2;stroke:#0000ff;stroke-linejoin:miter;stroke-width:2;"/>
   </g>
   <g id="patch_8">
    <path clip-path="url(#pa76dfe2143)" d="M 242.799395 302.934932 
C 243.374797 302.934932 243.926709 302.797288 244.333579 302.552315 
C 244.740449 302.307341 244.969059 301.975039 244.969059 301.628595 
C 244.969059 301.28215 244.740449 300.949848 244.333579 300.704875 
C 243.926709 300.459902 243.374797 300.322258 242.799395 300.322258 
C 242.223994 300.322258 241.672082 300.459902 241.265212 300.704875 
C 240.858342 300.949848 240.629732 301.28215 240.629732 301.628595 
C 240.629732 301.975039 240.858342 302.307341 241.265212 302.552315 
C 241.672082 302.797288 242.223994 302.934932 242.799395 302.934932 
z
" style="fill:#0000ff;opacity:0.2;stroke:#0000ff;stroke-linejoin:miter;stroke-width:2;"/>
   </g>
   <g id="patch_9">
    <path clip-path="url(#pa76dfe2143)" d="M 81.159485 172.301223 
C 81.734886 172.301223 82.286798 172.163579 82.693669 171.918606 
C 83.100539 171.673633 83.329148 171.341331 83.329148 170.994886 
C 83.329148 170.648442 83.100539 170.31614 82.693669 170.071166 
C 82.286798 169.826193 81.734886 169.688549 81.159485 169.688549 
C 80.584084 169.688549 80.032172 169.826193 79.625301 170.071166 
C 79.218431 170.31614 78.989822 170.648442 78.989822 170.994886 
C 78.989822 171.341331 79.218431 171.673633 79.625301 171.918606 
C 80.032172 172.163579 80.584084 172.301223 81.159485 172.301223 
z
" style="fill:#0000ff;opacity:0.2;stroke:#0000ff;stroke-linejoin:miter;stroke-width:2;"/>
   </g>
   <g id="patch_10">
    <path clip-path="url(#pa76dfe2143)" d="M 241.714564 41.667515 
C 367.555031 41.667515 421.796612 110.250212 421.796612 172.301223 
C 421.796612 235.658572 367.555031 302.934932 241.714564 302.934932 
C 116.958928 302.934932 62.717348 236.311741 62.717348 172.301223 
C 62.717348 110.250212 116.958928 41.667515 241.714564 41.667515 
" style="fill:none;stroke:#ff0000;stroke-linejoin:miter;stroke-width:0.5;"/>
   </g>
   <g id="patch_11">
    <path clip-path="url(#pa76dfe2143)" d="M 242.799395 40.361178 
C 354.537052 40.361178 403.354474 110.250212 403.354474 170.994886 
C 403.354474 234.352235 354.537052 301.628595 242.799395 301.628595 
C 129.976908 301.628595 81.159485 234.352235 81.159485 170.994886 
C 81.159485 110.250212 129.976908 40.361178 242.799395 40.361178 
" style="fill:none;stroke:#0000ff;stroke-linejoin:miter;stroke-width:0.5;"/>
   </g>
   <g id="[&quot;g_s&quot;:1,&quot;g_t&quot;:1,&quot;coords&quot;:[[250.0, -472.0],[251.0, -470.0]],&quot;certainty&quot;:10]">
    <path clip-path="url(#pa76dfe2143)" d="M 241.714564 45.259942 
C 243.296918 45.259942 244.814675 44.881421 245.933569 44.207744 
C 247.052462 43.534068 247.681138 42.620238 247.681138 41.667515 
C 247.681138 40.714792 247.052462 39.800962 245.933569 39.127285 
C 244.814675 38.453609 243.296918 38.075088 241.714564 38.075088 
C 240.13221 38.075088 238.614452 38.453609 237.495559 39.127285 
C 236.376666 39.800962 235.74799 40.714792 235.74799 41.667515 
C 235.74799 42.620238 236.376666 43.534068 237.495559 44.207744 
C 238.614452 44.881421 240.13221 45.259942 241.714564 45.259942 
z
" style="fill:#0000ff;opacity:0.2;stroke:#0000ff;stroke-linejoin:miter;stroke-width:2;"/>
   </g>
   <g id="[&quot;g_s&quot;:1,&quot;g_t&quot;:1,&quot;coords&quot;:[[251.0, -470.0],[250.0, -472.0]],&quot;certainty&quot;:10]">
    <path clip-path="url(#pa76dfe2143)" d="M 242.799395 43.953605 
C 244.381749 43.953605 245.899507 43.575084 247.0184 42.901407 
C 248.137293 42.22773 248.765969 41.3139 248.765969 40.361178 
C 248.765969 39.408455 248.137293 38.494625 247.0184 37.820948 
C 245.899507 37.147271 244.381749 36.768751 242.799395 36.768751 
C 241.217042 36.768751 239.699284 37.147271 238.580391 37.820948 
C 237.461497 38.494625 236.832822 39.408455 236.832822 40.361178 
C 236.832822 41.3139 237.461497 42.22773 238.580391 42.901407 
C 239.699284 43.575084 241.217042 43.953605 242.799395 43.953605 
z
" style="fill:#ff0000;opacity:0.2;stroke:#ff0000;stroke-linejoin:miter;stroke-width:2;"/>
   </g>
   <g id="patch_12">
    <path d="M 241.714564 41.667515 
Q 242.25698 41.014346 241.557087 41.857146 
" style="fill:none;opacity:0.5;stroke:#0000ff;stroke-linecap:round;stroke-width:2.75;"/>
    <path d="M 239.44481 42.052816 
L 241.557087 41.857146 
L 241.752758 43.969422 
" style="fill:none;opacity:0.5;stroke:#0000ff;stroke-linecap:round;stroke-width:2.75;"/>
   </g>
   <g id="[&quot;g_s&quot;:2,&quot;g_t&quot;:2,&quot;coords&quot;:[[416.0, -672.0],[399.0, -670.0]],&quot;certainty&quot;:12]">
    <path clip-path="url(#pa76dfe2143)" d="M 421.796612 176.546819 
C 423.666666 176.546819 425.46038 176.099476 426.782708 175.303313 
C 428.105036 174.507149 428.848017 173.427168 428.848017 172.301223 
C 428.848017 171.175278 428.105036 170.095297 426.782708 169.299134 
C 425.46038 168.502971 423.666666 168.055628 421.796612 168.055628 
C 419.926557 168.055628 418.132843 168.502971 416.810515 169.299134 
C 415.488187 170.095297 414.745206 171.175278 414.745206 172.301223 
C 414.745206 173.427168 415.488187 174.507149 416.810515 175.303313 
C 418.132843 176.099476 419.926557 176.546819 421.796612 176.546819 
z
" style="fill:#0000ff;opacity:0.2;stroke:#0000ff;stroke-linejoin:miter;stroke-width:2;"/>
   </g>
   <g id="[&quot;g_s&quot;:2,&quot;g_t&quot;:2,&quot;coords&quot;:[[399.0, -670.0],[416.0, -672.0]],&quot;certainty&quot;:12]">
    <path clip-path="url(#pa76dfe2143)" d="M 403.354474 175.240482 
C 405.224529 175.240482 407.018242 174.793139 408.340571 173.996976 
C 409.662899 173.200812 410.40588 172.120831 410.40588 170.994886 
C 410.40588 169.868941 409.662899 168.78896 408.340571 167.992797 
C 407.018242 167.196633 405.224529 166.749291 403.354474 166.749291 
C 401.48442 166.749291 399.690706 167.196633 398.368378 167.992797 
C 397.046049 168.78896 396.303069 169.868941 396.303069 170.994886 
C 396.303069 172.120831 397.046049 173.200812 398.368378 173.996976 
C 399.690706 174.793139 401.48442 175.240482 403.354474 175.240482 
z
" style="fill:#ff0000;opacity:0.2;stroke:#ff0000;stroke-linejoin:miter;stroke-width:2;"/>
   </g>
   <g id="patch_13">
    <path d="M 421.796612 172.301223 
Q 413.572841 171.718698 407.641424 171.29855 
" style="fill:none;opacity:0.5;stroke:#0000ff;stroke-linecap:round;stroke-width:3.25;"/>
    <path d="M 409.031689 172.900787 
L 407.641424 171.29855 
L 409.243661 169.908285 
" style="fill:none;opacity:0.5;stroke:#0000ff;stroke-linecap:round;stroke-width:3.25;"/>
   </g>
   <g id="[&quot;g_s&quot;:3,&quot;g_t&quot;:3,&quot;coords&quot;:[[250.0, -872.0],[251.0, -870.0]],&quot;certainty&quot;:11]">
    <path clip-path="url(#pa76dfe2143)" d="M 241.714564 306.853943 
C 243.440768 306.853943 245.096504 306.441011 246.317115 305.706091 
C 247.537725 304.971171 248.223553 303.974266 248.223553 302.934932 
C 248.223553 301.895598 247.537725 300.898693 246.317115 300.163772 
C 245.096504 299.428852 243.440768 299.015921 241.714564 299.015921 
C 239.98836 299.015921 238.332624 299.428852 237.112013 300.163772 
C 235.891402 300.898693 235.205574 301.895598 235.205574 302.934932 
C 235.205574 303.974266 235.891402 304.971171 237.112013 305.706091 
C 238.332624 306.441011 239.98836 306.853943 241.714564 306.853943 
z
" style="fill:#0000ff;opacity:0.2;stroke:#0000ff;stroke-linejoin:miter;stroke-width:2;"/>
   </g>
   <g id="[&quot;g_s&quot;:3,&quot;g_t&quot;:3,&quot;coords&quot;:[[251.0, -870.0],[250.0, -872.0]],&quot;certainty&quot;:11]">
    <path clip-path="url(#pa76dfe2143)" d="M 242.799395 305.547606 
C 244.5256 305.547606 246.181335 305.134674 247.401946 304.399754 
C 248.622557 303.664834 249.308385 302.667929 249.308385 301.628595 
C 249.308385 300.589261 248.622557 299.592355 247.401946 298.857435 
C 246.181335 298.122515 244.5256 297.709584 242.799395 297.709584 
C 241.073191 297.709584 239.417455 298.122515 238.196845 298.857435 
C 236.976234 299.592355 236.290406 300.589261 236.290406 301.628595 
C 236.290406 302.667929 236.976234 303.664834 238.196845 304.399754 
C 239.417455 305.134674 241.073191 305.547606 242.799395 305.547606 
z
" style="fill:#ff0000;opacity:0.2;stroke:#ff0000;stroke-linejoin:miter;stroke-width:2;"/>
   </g>
   <g id="patch_14">
    <path d="M 241.714564 302.934932 
Q 242.25698 302.281763 241.44415 303.26056 
" style="fill:none;opacity:0.5;stroke:#0000ff;stroke-linecap:round;stroke-width:3;"/>
    <path d="M 239.331873 303.45623 
L 241.44415 303.26056 
L 241.63982 305.372837 
" style="fill:none;opacity:0.5;stroke:#0000ff;stroke-linecap:round;stroke-width:3;"/>
   </g>
   <g id="[&quot;g_s&quot;:4,&quot;g_t&quot;:4,&quot;coords&quot;:[[85.0, -672.0],[102.0, -670.0]],&quot;certainty&quot;:11]">
    <path clip-path="url(#pa76dfe2143)" d="M 62.717348 176.220235 
C 64.443552 176.220235 66.099288 175.807303 67.319898 175.072383 
C 68.540509 174.337463 69.226337 173.340557 69.226337 172.301223 
C 69.226337 171.261889 68.540509 170.264984 67.319898 169.530064 
C 66.099288 168.795144 64.443552 168.382212 62.717348 168.382212 
C 60.991143 168.382212 59.335408 168.795144 58.114797 169.530064 
C 56.894186 170.264984 56.208358 171.261889 56.208358 172.301223 
C 56.208358 173.340557 56.894186 174.337463 58.114797 175.072383 
C 59.335408 175.807303 60.991143 176.220235 62.717348 176.220235 
z
" style="fill:#0000ff;opacity:0.2;stroke:#0000ff;stroke-linejoin:miter;stroke-width:2;"/>
   </g>
   <g id="[&quot;g_s&quot;:4,&quot;g_t&quot;:4,&quot;coords&quot;:[[102.0, -670.0],[85.0, -672.0]],&quot;certainty&quot;:11]">
    <path clip-path="url(#pa76dfe2143)" d="M 81.159485 174.913898 
C 82.885689 174.913898 84.541425 174.500966 85.762036 173.766046 
C 86.982647 173.031126 87.668475 172.03422 87.668475 170.994886 
C 87.668475 169.955552 86.982647 168.958647 85.762036 168.223727 
C 84.541425 167.488807 82.885689 167.075875 81.159485 167.075875 
C 79.433281 167.075875 77.777545 167.488807 76.556934 168.223727 
C 75.336324 168.958647 74.650495 169.955552 74.650495 170.994886 
C 74.650495 172.03422 75.336324 173.031126 76.556934 173.766046 
C 77.777545 174.500966 79.433281 174.913898 81.159485 174.913898 
z
" style="fill:#ff0000;opacity:0.2;stroke:#ff0000;stroke-linejoin:miter;stroke-width:2;"/>
   </g>
   <g id="patch_15">
    <path d="M 62.717348 172.301223 
Q 70.941118 171.718698 77.04887 171.286059 
" style="fill:none;opacity:0.5;stroke:#0000ff;stroke-linecap:round;stroke-width:3;"/>
    <path d="M 75.446633 169.895794 
L 77.04887 171.286059 
L 75.658605 172.888296 
" style="fill:none;opacity:0.5;stroke:#0000ff;stroke-linecap:round;stroke-width:3;"/>
   </g>
   <g id="[&quot;g_s&quot;:1,&quot;g_t&quot;:1,&quot;coords&quot;:[[251.0, -470.0],[250.0, -472.0]],&quot;certainty&quot;:10]">
    <path clip-path="url(#pa76dfe2143)" d="M 242.799395 43.953605 
C 244.381749 43.953605 245.899507 43.575084 247.0184 42.901407 
C 248.137293 42.22773 248.765969 41.3139 248.765969 40.361178 
C 248.765969 39.408455 248.137293 38.494625 247.0184 37.820948 
C 245.899507 37.147271 244.381749 36.768751 242.799395 36.768751 
C 241.217042 36.768751 239.699284 37.147271 238.580391 37.820948 
C 237.461497 38.494625 236.832822 39.408455 236.832822 40.361178 
C 236.832822 41.3139 237.461497 42.22773 238.580391 42.901407 
C 239.699284 43.575084 241.217042 43.953605 242.799395 43.953605 
z
" style="fill:#0000ff;opacity:0.2;stroke:#0000ff;stroke-linejoin:miter;stroke-width:2;"/>
   </g>
   <g id="[&quot;g_s&quot;:1,&quot;g_t&quot;:1,&quot;coords&quot;:[[250.0, -472.0],[251.0, -470.0]],&quot;certainty&quot;:10]">
    <path clip-path="url(#pa76dfe2143)" d="M 241.714564 45.259942 
C 243.296918 45.259942 244.814675 44.881421 245.933569 44.207744 
C 247.052462 43.534068 247.681138 42.620238 247.681138 41.667515 
C 247.681138 40.714792 247.052462 39.800962 245.933569 39.127285 
C 244.814675 38.453609 243.296918 38.075088 241.714564 38.075088 
C 240.13221 38.075088 238.614452 38.453609 237.495559 39.127285 
C 236.376666 39.800962 235.74799 40.714792 235.74799 41.667515 
C 235.74799 42.620238 236.376666 43.534068 237.495559 44.207744 
C 238.614452 44.881421 240.13221 45.259942 241.714564 45.259942 
z
" style="fill:#ff0000;opacity:0.2;stroke:#ff0000;stroke-linejoin:miter;stroke-width:2;"/>
   </g>
   <g id="patch_16">
    <path d="M 242.799395 40.361178 
Q 242.25698 41.014346 242.956872 40.171547 
" style="fill:none;opacity:0.5;stroke:#ff0000;stroke-linecap:round;stroke-width:2.75;"/>
    <path d="M 245.069149 39.975876 
L 242.956872 40.171547 
L 242.761202 38.05927 
" style="fill:none;opacity:0.5;stroke:#ff0000;stroke-linecap:round;stroke-width:2.75;"/>
   </g>
   <g id="[&quot;g_s&quot;:2,&quot;g_t&quot;:2,&quot;coords&quot;:[[399.0, -670.0],[416.0, -672.0]],&quot;certainty&quot;:12]">
    <path clip-path="url(#pa76dfe2143)" d="M 403.354474 175.240482 
C 405.224529 175.240482 407.018242 174.793139 408.340571 173.996976 
C 409.662899 173.200812 410.40588 172.120831 410.40588 170.994886 
C 410.40588 169.868941 409.662899 168.78896 408.340571 167.992797 
C 407.018242 167.196633 405.224529 166.749291 403.354474 166.749291 
C 401.48442 166.749291 399.690706 167.196633 398.368378 167.992797 
C 397.046049 168.78896 396.303069 169.868941 396.303069 170.994886 
C 396.303069 172.120831 397.046049 173.200812 398.368378 173.996976 
C 399.690706 174.793139 401.48442 175.240482 403.354474 175.240482 
z
" style="fill:#0000ff;opacity:0.2;stroke:#0000ff;stroke-linejoin:miter;stroke-width:2;"/>
   </g>
   <g id="[&quot;g_s&quot;:2,&quot;g_t&quot;:2,&quot;coords&quot;:[[416.0, -672.0],[399.0, -670.0]],&quot;certainty&quot;:12]">
    <path clip-path="url(#pa76dfe2143)" d="M 421.796612 176.546819 
C 423.666666 176.546819 425.46038 176.099476 426.782708 175.303313 
C 428.105036 174.507149 428.848017 173.427168 428.848017 172.301223 
C 428.848017 171.175278 428.105036 170.095297 426.782708 169.299134 
C 425.46038 168.502971 423.666666 168.055628 421.796612 168.055628 
C 419.926557 168.055628 418.132843 168.502971 416.810515 169.299134 
C 415.488187 170.095297 414.745206 171.175278 414.745206 172.301223 
C 414.745206 173.427168 415.488187 174.507149 416.810515 175.303313 
C 418.132843 176.099476 419.926557 176.546819 421.796612 176.546819 
z
" style="fill:#ff0000;opacity:0.2;stroke:#ff0000;stroke-linejoin:miter;stroke-width:2;"/>
   </g>
   <g id="patch_17">
    <path d="M 403.354474 170.994886 
Q 411.578245 171.577412 417.509662 171.99756 
" style="fill:none;opacity:0.5;stroke:#ff0000;stroke-linecap:round;stroke-width:3.25;"/>
    <path d="M 416.119397 170.395323 
L 417.509662 171.99756 
L 415.907425 173.387825 
" style="fill:none;opacity:0.5;stroke:#ff0000;stroke-linecap:round;stroke-width:3.25;"/>
   </g>
   <g id="[&quot;g_s&quot;:3,&quot;g_t&quot;:3,&quot;coords&quot;:[[251.0, -870.0],[250.0, -872.0]],&quot;certainty&quot;:11]">
    <path clip-path="url(#pa76dfe2143)" d="M 242.799395 305.547606 
C 244.5256 305.547606 246.181335 305.134674 247.401946 304.399754 
C 248.622557 303.664834 249.308385 302.667929 249.308385 301.628595 
C 249.308385 300.589261 248.622557 299.592355 247.401946 298.857435 
C 246.181335 298.122515 244.5256 297.709584 242.799395 297.709584 
C 241.073191 297.709584 239.417455 298.122515 238.196845 298.857435 
C 236.976234 299.592355 236.290406 300.589261 236.290406 301.628595 
C 236.290406 302.667929 236.976234 303.664834 238.196845 304.399754 
C 239.417455 305.134674 241.073191 305.547606 242.799395 305.547606 
z
" style="fill:#0000ff;opacity:0.2;stroke:#0000ff;stroke-linejoin:miter;stroke-width:2;"/>
   </g>
   <g id="[&quot;g_s&quot;:3,&quot;g_t&quot;:3,&quot;coords&quot;:[[250.0, -872.0],[251.0, -870.0]],&quot;certainty&quot;:11]">
    <path clip-path="url(#pa76dfe2143)" d="M 241.714564 306.853943 
C 243.440768 306.853943 245.096504 306.441011 246.317115 305.706091 
C 247.537725 304.971171 248.223553 303.974266 248.223553 302.934932 
C 248.223553 301.895598 247.537725 300.898693 246.317115 300.163772 
C 245.096504 299.428852 243.440768 299.015921 241.714564 299.015921 
C 239.98836 299.015921 238.332624 299.428852 237.112013 300.163772 
C 235.891402 300.898693 235.205574 301.895598 235.205574 302.934932 
C 235.205574 303.974266 235.891402 304.971171 237.112013 305.706091 
C 238.332624 306.441011 239.98836 306.853943 241.714564 306.853943 
z
" style="fill:#ff0000;opacity:0.2;stroke:#ff0000;stroke-linejoin:miter;stroke-width:2;"/>
   </g>
   <g id="patch_18">
    <path d="M 242.799395 301.628595 
Q 242.25698 302.281763 243.069809 301.302967 
" style="fill:none;opacity:0.5;stroke:#ff0000;stroke-linecap:round;stroke-width:3;"/>
    <path d="M 245.182086 301.107296 
L 243.069809 301.302967 
L 242.874139 299.19069 
" style="fill:none;opacity:0.5;stroke:#ff0000;stroke-linecap:round;stroke-width:3;"/>
   </g>
   <g id="[&quot;g_s&quot;:4,&quot;g_t&quot;:4,&quot;coords&quot;:[[102.0, -670.0],[85.0, -672.0]],&quot;certainty&quot;:11]">
    <path clip-path="url(#pa76dfe2143)" d="M 81.159485 174.913898 
C 82.885689 174.913898 84.541425 174.500966 85.762036 173.766046 
C 86.982647 173.031126 87.668475 172.03422 87.668475 170.994886 
C 87.668475 169.955552 86.982647 168.958647 85.762036 168.223727 
C 84.541425 167.488807 82.885689 167.075875 81.159485 167.075875 
C 79.433281 167.075875 77.777545 167.488807 76.556934 168.223727 
C 75.336324 168.958647 74.650495 169.955552 74.650495 170.994886 
C 74.650495 172.03422 75.336324 173.031126 76.556934 173.766046 
C 77.777545 174.500966 79.433281 174.913898 81.159485 174.913898 
z
" style="fill:#0000ff;opacity:0.2;stroke:#0000ff;stroke-linejoin:miter;stroke-width:2;"/>
   </g>
   <g id="[&quot;g_s&quot;:4,&quot;g_t&quot;:4,&quot;coords&quot;:[[85.0, -672.0],[102.0, -670.0]],&quot;certainty&quot;:11]">
    <path clip-path="url(#pa76dfe2143)" d="M 62.717348 176.220235 
C 64.443552 176.220235 66.099288 175.807303 67.319898 175.072383 
C 68.540509 174.337463 69.226337 173.340557 69.226337 172.301223 
C 69.226337 171.261889 68.540509 170.264984 67.319898 169.530064 
C 66.099288 168.795144 64.443552 168.382212 62.717348 168.382212 
C 60.991143 168.382212 59.335408 168.795144 58.114797 169.530064 
C 56.894186 170.264984 56.208358 171.261889 56.208358 172.301223 
C 56.208358 173.340557 56.894186 174.337463 58.114797 175.072383 
C 59.335408 175.807303 60.991143 176.220235 62.717348 176.220235 
z
" style="fill:#ff0000;opacity:0.2;stroke:#ff0000;stroke-linejoin:miter;stroke-width:2;"/>
   </g>
   <g id="patch_19">
    <path d="M 81.159485 170.994886 
Q 72.935715 171.577412 66.827962 172.010051 
" style="fill:none;opacity:0.5;stroke:#ff0000;stroke-linecap:round;stroke-width:3;"/>
    <path d="M 68.430199 173.400316 
L 66.827962 172.010051 
L 68.218227 170.407814 
" style="fill:none;opacity:0.5;stroke:#ff0000;stroke-linecap:round;stroke-width:3;"/>
   </g>
   <g id="patch_20">
    <path clip-path="url(#pa76dfe2143)" d="M 242.25698 44.280189 
C 243.695483 44.280189 245.075263 43.936079 246.092439 43.323646 
C 247.109614 42.711212 247.681138 41.880458 247.681138 41.014346 
C 247.681138 40.148235 247.109614 39.31748 246.092439 38.705047 
C 245.075263 38.092613 243.695483 37.748504 242.25698 37.748504 
C 240.818476 37.748504 239.438696 38.092613 238.421521 38.705047 
C 237.404345 39.31748 236.832822 40.148235 236.832822 41.014346 
C 236.832822 41.880458 237.404345 42.711212 238.421521 43.323646 
C 239.438696 43.936079 240.818476 44.280189 242.25698 44.280189 
z
" style="fill:#008000;opacity:0.2;stroke:#008000;stroke-linejoin:miter;stroke-width:2;"/>
   </g>
   <g id="patch_21">
    <path clip-path="url(#pa76dfe2143)" d="M 412.575543 174.913898 
C 414.014046 174.913898 415.393826 174.569788 416.411002 173.957354 
C 417.428177 173.344921 417.999701 172.514166 417.999701 171.648055 
C 417.999701 170.781943 417.428177 169.951189 416.411002 169.338755 
C 415.393826 168.726322 414.014046 168.382212 412.575543 168.382212 
C 411.137039 168.382212 409.75726 168.726322 408.740084 169.338755 
C 407.722908 169.951189 407.151385 170.781943 407.151385 171.648055 
C 407.151385 172.514166 407.722908 173.344921 408.740084 173.957354 
C 409.75726 174.569788 411.137039 174.913898 412.575543 174.913898 
z
" style="fill:#008000;opacity:0.2;stroke:#008000;stroke-linejoin:miter;stroke-width:2;"/>
   </g>
   <g id="patch_22">
    <path clip-path="url(#pa76dfe2143)" d="M 242.25698 305.547606 
C 243.695483 305.547606 245.075263 305.203496 246.092439 304.591063 
C 247.109614 303.97863 247.681138 303.147875 247.681138 302.281763 
C 247.681138 301.415652 247.109614 300.584897 246.092439 299.972464 
C 245.075263 299.36003 243.695483 299.015921 242.25698 299.015921 
C 240.818476 299.015921 239.438696 299.36003 238.421521 299.972464 
C 237.404345 300.584897 236.832822 301.415652 236.832822 302.281763 
C 236.832822 303.147875 237.404345 303.97863 238.421521 304.591063 
C 239.438696 305.203496 240.818476 305.547606 242.25698 305.547606 
z
" style="fill:#008000;opacity:0.2;stroke:#008000;stroke-linejoin:miter;stroke-width:2;"/>
   </g>
   <g id="patch_23">
    <path clip-path="url(#pa76dfe2143)" d="M 71.938416 174.913898 
C 73.37692 174.913898 74.7567 174.569788 75.773875 173.957354 
C 76.791051 173.344921 77.362574 172.514166 77.362574 171.648055 
C 77.362574 170.781943 76.791051 169.951189 75.773875 169.338755 
C 74.7567 168.726322 73.37692 168.382212 71.938416 168.382212 
C 70.499913 168.382212 69.120133 168.726322 68.102957 169.338755 
C 67.085782 169.951189 66.514258 170.781943 66.514258 171.648055 
C 66.514258 172.514166 67.085782 173.344921 68.102957 173.957354 
C 69.120133 174.569788 70.499913 174.913898 71.938416 174.913898 
z
" style="fill:#008000;opacity:0.2;stroke:#008000;stroke-linejoin:miter;stroke-width:2;"/>
   </g>
   <g id="patch_24">
    <path clip-path="url(#pa76dfe2143)" d="M 241.714564 54.730886 
C 247.468578 54.730886 252.987697 53.354446 257.0564 50.904713 
C 261.125102 48.454979 263.411196 45.131961 263.411196 41.667515 
C 263.411196 38.203068 261.125102 34.88005 257.0564 32.430317 
C 252.987697 29.980583 247.468578 28.604144 241.714564 28.604144 
C 235.96055 28.604144 230.44143 29.980583 226.372728 32.430317 
C 222.304026 34.88005 220.017932 38.203068 220.017932 41.667515 
C 220.017932 45.131961 222.304026 48.454979 226.372728 50.904713 
C 230.44143 53.354446 235.96055 54.730886 241.714564 54.730886 
z
" style="fill:none;opacity:0.2;stroke:#ff0000;stroke-linejoin:miter;stroke-width:2;"/>
   </g>
   <g id="patch_25">
    <path clip-path="url(#pa76dfe2143)" d="M 242.799395 53.424549 
C 248.55341 53.424549 254.072529 52.048109 258.141231 49.598376 
C 262.209934 47.148642 264.496028 43.825624 264.496028 40.361178 
C 264.496028 36.896731 262.209934 33.573713 258.141231 31.12398 
C 254.072529 28.674246 248.55341 27.297807 242.799395 27.297807 
C 237.045381 27.297807 231.526262 28.674246 227.45756 31.12398 
C 223.388857 33.573713 221.102763 36.896731 221.102763 40.361178 
C 221.102763 43.825624 223.388857 47.148642 227.45756 49.598376 
C 231.526262 52.048109 237.045381 53.424549 242.799395 53.424549 
z
" style="fill:none;opacity:0.2;stroke:#0000ff;stroke-linejoin:miter;stroke-width:2;"/>
   </g>
   <g id="patch_26">
    <path clip-path="url(#pa76dfe2143)" d="M 241.714564 48.1992 
C 244.591571 48.1992 247.35113 47.510981 249.385482 46.286114 
C 251.419833 45.061247 252.56288 43.399738 252.56288 41.667515 
C 252.56288 39.935292 251.419833 38.273782 249.385482 37.048916 
C 247.35113 35.824049 244.591571 35.135829 241.714564 35.135829 
C 238.837557 35.135829 236.077997 35.824049 234.043646 37.048916 
C 232.009295 38.273782 230.866248 39.935292 230.866248 41.667515 
C 230.866248 43.399738 232.009295 45.061247 234.043646 46.286114 
C 236.077997 47.510981 238.837557 48.1992 241.714564 48.1992 
z
" style="fill:none;opacity:0.2;stroke:#008000;stroke-linejoin:miter;stroke-width:2;"/>
   </g>
   <g id="patch_27">
    <path clip-path="url(#pa76dfe2143)" d="M 242.799395 46.892863 
C 245.676402 46.892863 248.435962 46.204644 250.470313 44.979777 
C 252.504665 43.75491 253.647712 42.093401 253.647712 40.361178 
C 253.647712 38.628954 252.504665 36.967445 250.470313 35.742579 
C 248.435962 34.517712 245.676402 33.829492 242.799395 33.829492 
C 239.922388 33.829492 237.162829 34.517712 235.128478 35.742579 
C 233.094126 36.967445 231.951079 38.628954 231.951079 40.361178 
C 231.951079 42.093401 233.094126 43.75491 235.128478 44.979777 
C 237.162829 46.204644 239.922388 46.892863 242.799395 46.892863 
z
" style="fill:none;opacity:0.2;stroke:#008000;stroke-linejoin:miter;stroke-width:2;"/>
   </g>
   <g id="patch_28">
    <path d="M 242.25698 41.014346 
Q 327.416261 106.331201 412.575543 171.648055 
" style="fill:none;opacity:0.5;stroke:#008000;stroke-linecap:round;stroke-width:2;"/>
   </g>
   <g id="patch_29">
    <path d="M 242.618061 40.579538 
Q 242.25698 41.014346 241.895898 41.449154 
" style="fill:none;opacity:0.5;stroke:#800080;stroke-linecap:round;stroke-width:2;"/>
    <path d="M 244.730337 40.383868 
L 242.618061 40.579538 
L 242.42239 38.467261 
" style="fill:none;opacity:0.5;stroke:#800080;stroke-linecap:round;stroke-width:2;"/>
    <path d="M 239.783622 41.644825 
L 241.895898 41.449154 
L 242.091569 43.561431 
" style="fill:none;opacity:0.5;stroke:#800080;stroke-linecap:round;stroke-width:2;"/>
   </g>
   <g id="patch_30">
    <path d="M 412.575543 171.648055 
Q 327.416261 236.964909 242.25698 302.281763 
" style="fill:none;opacity:0.5;stroke:#008000;stroke-linecap:round;stroke-width:2;"/>
   </g>
   <g id="patch_31">
    <path d="M 420.385933 172.201299 
Q 413.572841 171.718698 406.759749 171.236097 
" style="fill:none;opacity:0.5;stroke:#800080;stroke-linecap:round;stroke-width:2;"/>
    <path d="M 418.995668 170.599062 
L 420.385933 172.201299 
L 418.783696 173.591564 
" style="fill:none;opacity:0.5;stroke:#800080;stroke-linecap:round;stroke-width:2;"/>
    <path d="M 408.150014 172.838334 
L 406.759749 171.236097 
L 408.361986 169.845832 
" style="fill:none;opacity:0.5;stroke:#800080;stroke-linecap:round;stroke-width:2;"/>
   </g>
   <g id="patch_32">
    <path d="M 242.25698 302.281763 
Q 157.097698 236.964909 71.938416 171.648055 
" style="fill:none;opacity:0.5;stroke:#008000;stroke-linecap:round;stroke-width:2;"/>
   </g>
   <g id="patch_33">
    <path d="M 242.618061 301.846955 
Q 242.25698 302.281763 241.895898 302.716572 
" style="fill:none;opacity:0.5;stroke:#800080;stroke-linecap:round;stroke-width:2;"/>
    <path d="M 244.730337 301.651285 
L 242.618061 301.846955 
L 242.42239 299.734678 
" style="fill:none;opacity:0.5;stroke:#800080;stroke-linecap:round;stroke-width:2;"/>
    <path d="M 239.783622 302.912242 
L 241.895898 302.716572 
L 242.091569 304.828848 
" style="fill:none;opacity:0.5;stroke:#800080;stroke-linecap:round;stroke-width:2;"/>
   </g>
   <g id="patch_34">
    <path d="M 71.938416 171.648055 
Q 157.097698 106.331201 242.25698 41.014346 
" style="fill:none;opacity:0.5;stroke:#008000;stroke-linecap:round;stroke-width:2;"/>
   </g>
   <g id="patch_35">
    <path d="M 64.128027 172.201299 
Q 70.941118 171.718698 77.75421 171.236097 
" style="fill:none;opacity:0.5;stroke:#800080;stroke-linecap:round;stroke-width:2;"/>
    <path d="M 65.730264 173.591564 
L 64.128027 172.201299 
L 65.518292 170.599062 
" style="fill:none;opacity:0.5;stroke:#800080;stroke-linecap:round;stroke-width:2;"/>
    <path d="M 76.151973 169.845832 
L 77.75421 171.236097 
L 76.363945 172.838334 
" style="fill:none;opacity:0.5;stroke:#800080;stroke-linecap:round;stroke-width:2;"/>
   </g>
   <g id="patch_36">
    <path clip-path="url(#pa76dfe2143)" d="M 241.714564 65.181582 
C 242.289965 65.181582 242.841877 65.043938 243.248747 64.798965 
C 243.655618 64.553992 243.884227 64.22169 243.884227 63.875245 
C 243.884227 63.528801 243.655618 63.196499 243.248747 62.951525 
C 242.841877 62.706552 242.289965 62.568908 241.714564 62.568908 
C 241.139162 62.568908 240.58725 62.706552 240.18038 62.951525 
C 239.77351 63.196499 239.544901 63.528801 239.544901 63.875245 
C 239.544901 64.22169 239.77351 64.553992 240.18038 64.798965 
C 240.58725 65.043938 241.139162 65.181582 241.714564 65.181582 
z
" style="fill:#ff0000;opacity:0.2;stroke:#ff0000;stroke-linejoin:miter;stroke-width:2;"/>
   </g>
   <g id="patch_37">
    <path clip-path="url(#pa76dfe2143)" d="M 299.210639 173.60756 
C 299.786041 173.60756 300.337953 173.469917 300.744823 173.224943 
C 301.151693 172.97997 301.380303 172.647668 301.380303 172.301223 
C 301.380303 171.954779 301.151693 171.622477 300.744823 171.377504 
C 300.337953 171.13253 299.786041 170.994886 299.210639 170.994886 
C 298.635238 170.994886 298.083326 171.13253 297.676456 171.377504 
C 297.269585 171.622477 297.040976 171.954779 297.040976 172.301223 
C 297.040976 172.647668 297.269585 172.97997 297.676456 173.224943 
C 298.083326 173.469917 298.635238 173.60756 299.210639 173.60756 
z
" style="fill:#ff0000;opacity:0.2;stroke:#ff0000;stroke-linejoin:miter;stroke-width:2;"/>
   </g>
   <g id="patch_38">
    <path clip-path="url(#pa76dfe2143)" d="M 241.714564 282.033539 
C 242.289965 282.033539 242.841877 281.895895 243.248747 281.650921 
C 243.655618 281.405948 243.884227 281.073646 243.884227 280.727201 
C 243.884227 280.380757 243.655618 280.048455 243.248747 279.803482 
C 242.841877 279.558508 242.289965 279.420864 241.714564 279.420864 
C 241.139162 279.420864 240.58725 279.558508 240.18038 279.803482 
C 239.77351 280.048455 239.544901 280.380757 239.544901 280.727201 
C 239.544901 281.073646 239.77351 281.405948 240.18038 281.650921 
C 240.58725 281.895895 241.139162 282.033539 241.714564 282.033539 
z
" style="fill:#ff0000;opacity:0.2;stroke:#ff0000;stroke-linejoin:miter;stroke-width:2;"/>
   </g>
   <g id="patch_39">
    <path clip-path="url(#pa76dfe2143)" d="M 185.30332 173.60756 
C 185.878721 173.60756 186.430633 173.469917 186.837503 173.224943 
C 187.244374 172.97997 187.472983 172.647668 187.472983 172.301223 
C 187.472983 171.954779 187.244374 171.622477 186.837503 171.377504 
C 186.430633 171.13253 185.878721 170.994886 185.30332 170.994886 
C 184.727918 170.994886 184.176007 171.13253 183.769136 171.377504 
C 183.362266 171.622477 183.133657 171.954779 183.133657 172.301223 
C 183.133657 172.647668 183.362266 172.97997 183.769136 173.224943 
C 184.176007 173.469917 184.727918 173.60756 185.30332 173.60756 
z
" style="fill:#ff0000;opacity:0.2;stroke:#ff0000;stroke-linejoin:miter;stroke-width:2;"/>
   </g>
   <g id="patch_40">
    <path clip-path="url(#pa76dfe2143)" d="M 242.799395 58.649897 
C 243.374797 58.649897 243.926709 58.512253 244.333579 58.26728 
C 244.740449 58.022306 244.969059 57.690004 244.969059 57.34356 
C 244.969059 56.997115 244.740449 56.664813 244.333579 56.41984 
C 243.926709 56.174867 243.374797 56.037223 242.799395 56.037223 
C 242.223994 56.037223 241.672082 56.174867 241.265212 56.41984 
C 240.858342 56.664813 240.629732 56.997115 240.629732 57.34356 
C 240.629732 57.690004 240.858342 58.022306 241.265212 58.26728 
C 241.672082 58.512253 242.223994 58.649897 242.799395 58.649897 
z
" style="fill:#0000ff;opacity:0.2;stroke:#0000ff;stroke-linejoin:miter;stroke-width:2;"/>
   </g>
   <g id="patch_41">
    <path clip-path="url(#pa76dfe2143)" d="M 321.992103 173.60756 
C 322.567505 173.60756 323.119416 173.469917 323.526287 173.224943 
C 323.933157 172.97997 324.161766 172.647668 324.161766 172.301223 
C 324.161766 171.954779 323.933157 171.622477 323.526287 171.377504 
C 323.119416 171.13253 322.567505 170.994886 321.992103 170.994886 
C 321.416702 170.994886 320.86479 171.13253 320.45792 171.377504 
C 320.051049 171.622477 319.82244 171.954779 319.82244 172.301223 
C 319.82244 172.647668 320.051049 172.97997 320.45792 173.224943 
C 320.86479 173.469917 321.416702 173.60756 321.992103 173.60756 
z
" style="fill:#0000ff;opacity:0.2;stroke:#0000ff;stroke-linejoin:miter;stroke-width:2;"/>
   </g>
   <g id="patch_42">
    <path clip-path="url(#pa76dfe2143)" d="M 242.799395 285.95255 
C 243.374797 285.95255 243.926709 285.814906 244.333579 285.569933 
C 244.740449 285.324959 244.969059 284.992657 244.969059 284.646213 
C 244.969059 284.299768 244.740449 283.967466 244.333579 283.722493 
C 243.926709 283.47752 243.374797 283.339876 242.799395 283.339876 
C 242.223994 283.339876 241.672082 283.47752 241.265212 283.722493 
C 240.858342 283.967466 240.629732 284.299768 240.629732 284.646213 
C 240.629732 284.992657 240.858342 285.324959 241.265212 285.569933 
C 241.672082 285.814906 242.223994 285.95255 242.799395 285.95255 
z
" style="fill:#0000ff;opacity:0.2;stroke:#0000ff;stroke-linejoin:miter;stroke-width:2;"/>
   </g>
   <g id="patch_43">
    <path clip-path="url(#pa76dfe2143)" d="M 162.521856 173.60756 
C 163.097257 173.60756 163.649169 173.469917 164.05604 173.224943 
C 164.46291 172.97997 164.691519 172.647668 164.691519 172.301223 
C 164.691519 171.954779 164.46291 171.622477 164.05604 171.377504 
C 163.649169 171.13253 163.097257 170.994886 162.521856 170.994886 
C 161.946455 170.994886 161.394543 171.13253 160.987672 171.377504 
C 160.580802 171.622477 160.352193 171.954779 160.352193 172.301223 
C 160.352193 172.647668 160.580802 172.97997 160.987672 173.224943 
C 161.394543 173.469917 161.946455 173.60756 162.521856 173.60756 
z
" style="fill:#0000ff;opacity:0.2;stroke:#0000ff;stroke-linejoin:miter;stroke-width:2;"/>
   </g>
   <g id="patch_44">
    <path clip-path="url(#pa76dfe2143)" d="M 241.714564 63.875245 
C 290.531986 63.875245 299.210639 136.376953 299.210639 172.301223 
C 299.210639 206.919156 290.531986 280.727201 241.714564 280.727201 
C 193.981973 280.727201 185.30332 206.919156 185.30332 172.301223 
C 185.30332 136.376953 193.981973 63.875245 241.714564 63.875245 
" style="fill:none;stroke:#ff0000;stroke-linejoin:miter;stroke-width:0.5;"/>
   </g>
   <g id="patch_45">
    <path clip-path="url(#pa76dfe2143)" d="M 242.799395 57.34356 
C 312.228619 57.34356 321.992103 138.989628 321.992103 172.301223 
C 321.992103 205.612819 316.567945 284.646213 242.799395 284.646213 
C 167.946014 284.646213 162.521856 205.612819 162.521856 172.301223 
C 162.521856 138.989628 163.606688 57.34356 242.799395 57.34356 
" style="fill:none;stroke:#0000ff;stroke-linejoin:miter;stroke-width:0.5;"/>
   </g>
   <g id="[&quot;g_s&quot;:1,&quot;g_t&quot;:1,&quot;coords&quot;:[[250.0, -506.0],[251.0, -496.0]],&quot;certainty&quot;:10]">
    <path clip-path="url(#pa76dfe2143)" d="M 241.714564 67.467672 
C 243.296918 67.467672 244.814675 67.089151 245.933569 66.415475 
C 247.052462 65.741798 247.681138 64.827968 247.681138 63.875245 
C 247.681138 62.922522 247.052462 62.008692 245.933569 61.335016 
C 244.814675 60.661339 243.296918 60.282818 241.714564 60.282818 
C 240.13221 60.282818 238.614452 60.661339 237.495559 61.335016 
C 236.376666 62.008692 235.74799 62.922522 235.74799 63.875245 
C 235.74799 64.827968 236.376666 65.741798 237.495559 66.415475 
C 238.614452 67.089151 240.13221 67.467672 241.714564 67.467672 
z
" style="fill:#0000ff;opacity:0.2;stroke:#0000ff;stroke-linejoin:miter;stroke-width:2;"/>
   </g>
   <g id="[&quot;g_s&quot;:1,&quot;g_t&quot;:1,&quot;coords&quot;:[[251.0, -496.0],[250.0, -506.0]],&quot;certainty&quot;:10]">
    <path clip-path="url(#pa76dfe2143)" d="M 242.799395 60.935987 
C 244.381749 60.935987 245.899507 60.557466 247.0184 59.883789 
C 248.137293 59.210113 248.765969 58.296283 248.765969 57.34356 
C 248.765969 56.390837 248.137293 55.477007 247.0184 54.80333 
C 245.899507 54.129654 244.381749 53.751133 242.799395 53.751133 
C 241.217042 53.751133 239.699284 54.129654 238.580391 54.80333 
C 237.461497 55.477007 236.832822 56.390837 236.832822 57.34356 
C 236.832822 58.296283 237.461497 59.210113 238.580391 59.883789 
C 239.699284 60.557466 241.217042 60.935987 242.799395 60.935987 
z
" style="fill:#ff0000;opacity:0.2;stroke:#ff0000;stroke-linejoin:miter;stroke-width:2;"/>
   </g>
   <g id="patch_46">
    <path d="M 241.714564 63.875245 
Q 242.093037 61.596491 242.152909 61.236002 
" style="fill:none;opacity:0.5;stroke:#0000ff;stroke-linecap:round;stroke-width:2.75;"/>
    <path d="M 240.427415 62.469967 
L 242.152909 61.236002 
L 243.386874 62.961496 
" style="fill:none;opacity:0.5;stroke:#0000ff;stroke-linecap:round;stroke-width:2.75;"/>
   </g>
   <g id="[&quot;g_s&quot;:2,&quot;g_t&quot;:2,&quot;coords&quot;:[[303.0, -672.0],[324.0, -672.0]],&quot;certainty&quot;:12]">
    <path clip-path="url(#pa76dfe2143)" d="M 299.210639 176.546819 
C 301.080694 176.546819 302.874408 176.099476 304.196736 175.303313 
C 305.519064 174.507149 306.262045 173.427168 306.262045 172.301223 
C 306.262045 171.175278 305.519064 170.095297 304.196736 169.299134 
C 302.874408 168.502971 301.080694 168.055628 299.210639 168.055628 
C 297.340585 168.055628 295.546871 168.502971 294.224543 169.299134 
C 292.902214 170.095297 292.159234 171.175278 292.159234 172.301223 
C 292.159234 173.427168 292.902214 174.507149 294.224543 175.303313 
C 295.546871 176.099476 297.340585 176.546819 299.210639 176.546819 
z
" style="fill:#0000ff;opacity:0.2;stroke:#0000ff;stroke-linejoin:miter;stroke-width:2;"/>
   </g>
   <g id="[&quot;g_s&quot;:2,&quot;g_t&quot;:2,&quot;coords&quot;:[[324.0, -672.0],[303.0, -672.0]],&quot;certainty&quot;:12]">
    <path clip-path="url(#pa76dfe2143)" d="M 321.992103 176.546819 
C 323.862158 176.546819 325.655872 176.099476 326.9782 175.303313 
C 328.300528 174.507149 329.043509 173.427168 329.043509 172.301223 
C 329.043509 171.175278 328.300528 170.095297 326.9782 169.299134 
C 325.655872 168.502971 323.862158 168.055628 321.992103 168.055628 
C 320.122049 168.055628 318.328335 168.502971 317.006007 169.299134 
C 315.683678 170.095297 314.940698 171.175278 314.940698 172.301223 
C 314.940698 173.427168 315.683678 174.507149 317.006007 175.303313 
C 318.328335 176.099476 320.122049 176.546819 321.992103 176.546819 
z
" style="fill:#ff0000;opacity:0.2;stroke:#ff0000;stroke-linejoin:miter;stroke-width:2;"/>
   </g>
   <g id="patch_47">
    <path d="M 299.210639 172.301223 
Q 309.601623 172.301223 317.69451 172.301223 
" style="fill:none;opacity:0.5;stroke:#0000ff;stroke-linecap:round;stroke-width:3.25;"/>
    <path d="M 316.19451 170.801223 
L 317.69451 172.301223 
L 316.19451 173.801223 
" style="fill:none;opacity:0.5;stroke:#0000ff;stroke-linecap:round;stroke-width:3.25;"/>
   </g>
   <g id="[&quot;g_s&quot;:3,&quot;g_t&quot;:3,&quot;coords&quot;:[[250.0, -838.0],[251.0, -844.0]],&quot;certainty&quot;:11]">
    <path clip-path="url(#pa76dfe2143)" d="M 241.714564 284.646213 
C 243.440768 284.646213 245.096504 284.233281 246.317115 283.498361 
C 247.537725 282.763441 248.223553 281.766535 248.223553 280.727201 
C 248.223553 279.687868 247.537725 278.690962 246.317115 277.956042 
C 245.096504 277.221122 243.440768 276.80819 241.714564 276.80819 
C 239.98836 276.80819 238.332624 277.221122 237.112013 277.956042 
C 235.891402 278.690962 235.205574 279.687868 235.205574 280.727201 
C 235.205574 281.766535 235.891402 282.763441 237.112013 283.498361 
C 238.332624 284.233281 239.98836 284.646213 241.714564 284.646213 
z
" style="fill:#0000ff;opacity:0.2;stroke:#0000ff;stroke-linejoin:miter;stroke-width:2;"/>
   </g>
   <g id="[&quot;g_s&quot;:3,&quot;g_t&quot;:3,&quot;coords&quot;:[[251.0, -844.0],[250.0, -838.0]],&quot;certainty&quot;:11]">
    <path clip-path="url(#pa76dfe2143)" d="M 242.799395 288.565224 
C 244.5256 288.565224 246.181335 288.152292 247.401946 287.417372 
C 248.622557 286.682452 249.308385 285.685547 249.308385 284.646213 
C 249.308385 283.606879 248.622557 282.609973 247.401946 281.875053 
C 246.181335 281.140133 244.5256 280.727201 242.799395 280.727201 
C 241.073191 280.727201 239.417455 281.140133 238.196845 281.875053 
C 236.976234 282.609973 236.290406 283.606879 236.290406 284.646213 
C 236.290406 285.685547 236.976234 286.682452 238.196845 287.417372 
C 239.417455 288.152292 241.073191 288.565224 242.799395 288.565224 
z
" style="fill:#ff0000;opacity:0.2;stroke:#ff0000;stroke-linejoin:miter;stroke-width:2;"/>
   </g>
   <g id="patch_48">
    <path d="M 241.714564 280.727201 
Q 241.990539 281.724176 241.700588 280.676713 
" style="fill:none;opacity:0.5;stroke:#0000ff;stroke-linecap:round;stroke-width:3;"/>
    <path d="M 242.746054 278.830907 
L 241.700588 280.676713 
L 239.854782 279.631247 
" style="fill:none;opacity:0.5;stroke:#0000ff;stroke-linecap:round;stroke-width:3;"/>
   </g>
   <g id="[&quot;g_s&quot;:4,&quot;g_t&quot;:4,&quot;coords&quot;:[[198.0, -672.0],[177.0, -672.0]],&quot;certainty&quot;:11]">
    <path clip-path="url(#pa76dfe2143)" d="M 185.30332 176.220235 
C 187.029524 176.220235 188.68526 175.807303 189.905871 175.072383 
C 191.126481 174.337463 191.81231 173.340557 191.81231 172.301223 
C 191.81231 171.261889 191.126481 170.264984 189.905871 169.530064 
C 188.68526 168.795144 187.029524 168.382212 185.30332 168.382212 
C 183.577116 168.382212 181.92138 168.795144 180.700769 169.530064 
C 179.480158 170.264984 178.79433 171.261889 178.79433 172.301223 
C 178.79433 173.340557 179.480158 174.337463 180.700769 175.072383 
C 181.92138 175.807303 183.577116 176.220235 185.30332 176.220235 
z
" style="fill:#0000ff;opacity:0.2;stroke:#0000ff;stroke-linejoin:miter;stroke-width:2;"/>
   </g>
   <g id="[&quot;g_s&quot;:4,&quot;g_t&quot;:4,&quot;coords&quot;:[[177.0, -672.0],[198.0, -672.0]],&quot;certainty&quot;:11]">
    <path clip-path="url(#pa76dfe2143)" d="M 162.521856 176.220235 
C 164.24806 176.220235 165.903796 175.807303 167.124407 175.072383 
C 168.345018 174.337463 169.030846 173.340557 169.030846 172.301223 
C 169.030846 171.261889 168.345018 170.264984 167.124407 169.530064 
C 165.903796 168.795144 164.24806 168.382212 162.521856 168.382212 
C 160.795652 168.382212 159.139916 168.795144 157.919305 169.530064 
C 156.698695 170.264984 156.012866 171.261889 156.012866 172.301223 
C 156.012866 173.340557 156.698695 174.337463 157.919305 175.072383 
C 159.139916 175.807303 160.795652 176.220235 162.521856 176.220235 
z
" style="fill:#ff0000;opacity:0.2;stroke:#ff0000;stroke-linejoin:miter;stroke-width:2;"/>
   </g>
   <g id="patch_49">
    <path d="M 185.30332 172.301223 
Q 174.912336 172.301223 166.642673 172.301223 
" style="fill:none;opacity:0.5;stroke:#0000ff;stroke-linecap:round;stroke-width:3;"/>
    <path d="M 168.142673 173.801223 
L 166.642673 172.301223 
L 168.142673 170.801223 
" style="fill:none;opacity:0.5;stroke:#0000ff;stroke-linecap:round;stroke-width:3;"/>
   </g>
   <g id="[&quot;g_s&quot;:1,&quot;g_t&quot;:1,&quot;coords&quot;:[[251.0, -496.0],[250.0, -506.0]],&quot;certainty&quot;:10]">
    <path clip-path="url(#pa76dfe2143)" d="M 242.799395 60.935987 
C 244.381749 60.935987 245.899507 60.557466 247.0184 59.883789 
C 248.137293 59.210113 248.765969 58.296283 248.765969 57.34356 
C 248.765969 56.390837 248.137293 55.477007 247.0184 54.80333 
C 245.899507 54.129654 244.381749 53.751133 242.799395 53.751133 
C 241.217042 53.751133 239.699284 54.129654 238.580391 54.80333 
C 237.461497 55.477007 236.832822 56.390837 236.832822 57.34356 
C 236.832822 58.296283 237.461497 59.210113 238.580391 59.883789 
C 239.699284 60.557466 241.217042 60.935987 242.799395 60.935987 
z
" style="fill:#0000ff;opacity:0.2;stroke:#0000ff;stroke-linejoin:miter;stroke-width:2;"/>
   </g>
   <g id="[&quot;g_s&quot;:1,&quot;g_t&quot;:1,&quot;coords&quot;:[[250.0, -506.0],[251.0, -496.0]],&quot;certainty&quot;:10]">
    <path clip-path="url(#pa76dfe2143)" d="M 241.714564 67.467672 
C 243.296918 67.467672 244.814675 67.089151 245.933569 66.415475 
C 247.052462 65.741798 247.681138 64.827968 247.681138 63.875245 
C 247.681138 62.922522 247.052462 62.008692 245.933569 61.335016 
C 244.814675 60.661339 243.296918 60.282818 241.714564 60.282818 
C 240.13221 60.282818 238.614452 60.661339 237.495559 61.335016 
C 236.376666 62.008692 235.74799 62.922522 235.74799 63.875245 
C 235.74799 64.827968 236.376666 65.741798 237.495559 66.415475 
C 238.614452 67.089151 240.13221 67.467672 241.714564 67.467672 
z
" style="fill:#ff0000;opacity:0.2;stroke:#ff0000;stroke-linejoin:miter;stroke-width:2;"/>
   </g>
   <g id="patch_50">
    <path d="M 242.799395 57.34356 
Q 242.420923 59.622314 242.36105 59.982803 
" style="fill:none;opacity:0.5;stroke:#ff0000;stroke-linecap:round;stroke-width:2.75;"/>
    <path d="M 244.086544 58.748838 
L 242.36105 59.982803 
L 241.127085 58.257309 
" style="fill:none;opacity:0.5;stroke:#ff0000;stroke-linecap:round;stroke-width:2.75;"/>
   </g>
   <g id="[&quot;g_s&quot;:2,&quot;g_t&quot;:2,&quot;coords&quot;:[[324.0, -672.0],[303.0, -672.0]],&quot;certainty&quot;:12]">
    <path clip-path="url(#pa76dfe2143)" d="M 321.992103 176.546819 
C 323.862158 176.546819 325.655872 176.099476 326.9782 175.303313 
C 328.300528 174.507149 329.043509 173.427168 329.043509 172.301223 
C 329.043509 171.175278 328.300528 170.095297 326.9782 169.299134 
C 325.655872 168.502971 323.862158 168.055628 321.992103 168.055628 
C 320.122049 168.055628 318.328335 168.502971 317.006007 169.299134 
C 315.683678 170.095297 314.940698 171.175278 314.940698 172.301223 
C 314.940698 173.427168 315.683678 174.507149 317.006007 175.303313 
C 318.328335 176.099476 320.122049 176.546819 321.992103 176.546819 
z
" style="fill:#0000ff;opacity:0.2;stroke:#0000ff;stroke-linejoin:miter;stroke-width:2;"/>
   </g>
   <g id="[&quot;g_s&quot;:2,&quot;g_t&quot;:2,&quot;coords&quot;:[[303.0, -672.0],[324.0, -672.0]],&quot;certainty&quot;:12]">
    <path clip-path="url(#pa76dfe2143)" d="M 299.210639 176.546819 
C 301.080694 176.546819 302.874408 176.099476 304.196736 175.303313 
C 305.519064 174.507149 306.262045 173.427168 306.262045 172.301223 
C 306.262045 171.175278 305.519064 170.095297 304.196736 169.299134 
C 302.874408 168.502971 301.080694 168.055628 299.210639 168.055628 
C 297.340585 168.055628 295.546871 168.502971 294.224543 169.299134 
C 292.902214 170.095297 292.159234 171.175278 292.159234 172.301223 
C 292.159234 173.427168 292.902214 174.507149 294.224543 175.303313 
C 295.546871 176.099476 297.340585 176.546819 299.210639 176.546819 
z
" style="fill:#ff0000;opacity:0.2;stroke:#ff0000;stroke-linejoin:miter;stroke-width:2;"/>
   </g>
   <g id="patch_51">
    <path d="M 321.992103 172.301223 
Q 311.601119 172.301223 303.508232 172.301223 
" style="fill:none;opacity:0.5;stroke:#ff0000;stroke-linecap:round;stroke-width:3.25;"/>
    <path d="M 305.008232 173.801223 
L 303.508232 172.301223 
L 305.008232 170.801223 
" style="fill:none;opacity:0.5;stroke:#ff0000;stroke-linecap:round;stroke-width:3.25;"/>
   </g>
   <g id="[&quot;g_s&quot;:3,&quot;g_t&quot;:3,&quot;coords&quot;:[[251.0, -844.0],[250.0, -838.0]],&quot;certainty&quot;:11]">
    <path clip-path="url(#pa76dfe2143)" d="M 242.799395 288.565224 
C 244.5256 288.565224 246.181335 288.152292 247.401946 287.417372 
C 248.622557 286.682452 249.308385 285.685547 249.308385 284.646213 
C 249.308385 283.606879 248.622557 282.609973 247.401946 281.875053 
C 246.181335 281.140133 244.5256 280.727201 242.799395 280.727201 
C 241.073191 280.727201 239.417455 281.140133 238.196845 281.875053 
C 236.976234 282.609973 236.290406 283.606879 236.290406 284.646213 
C 236.290406 285.685547 236.976234 286.682452 238.196845 287.417372 
C 239.417455 288.152292 241.073191 288.565224 242.799395 288.565224 
z
" style="fill:#0000ff;opacity:0.2;stroke:#0000ff;stroke-linejoin:miter;stroke-width:2;"/>
   </g>
   <g id="[&quot;g_s&quot;:3,&quot;g_t&quot;:3,&quot;coords&quot;:[[250.0, -838.0],[251.0, -844.0]],&quot;certainty&quot;:11]">
    <path clip-path="url(#pa76dfe2143)" d="M 241.714564 284.646213 
C 243.440768 284.646213 245.096504 284.233281 246.317115 283.498361 
C 247.537725 282.763441 248.223553 281.766535 248.223553 280.727201 
C 248.223553 279.687868 247.537725 278.690962 246.317115 277.956042 
C 245.096504 277.221122 243.440768 276.80819 241.714564 276.80819 
C 239.98836 276.80819 238.332624 277.221122 237.112013 277.956042 
C 235.891402 278.690962 235.205574 279.687868 235.205574 280.727201 
C 235.205574 281.766535 235.891402 282.763441 237.112013 283.498361 
C 238.332624 284.233281 239.98836 284.646213 241.714564 284.646213 
z
" style="fill:#ff0000;opacity:0.2;stroke:#ff0000;stroke-linejoin:miter;stroke-width:2;"/>
   </g>
   <g id="patch_52">
    <path d="M 242.799395 284.646213 
Q 242.52342 283.649238 242.813371 284.696701 
" style="fill:none;opacity:0.5;stroke:#ff0000;stroke-linecap:round;stroke-width:3;"/>
    <path d="M 241.767905 286.542507 
L 242.813371 284.696701 
L 244.659178 285.742167 
" style="fill:none;opacity:0.5;stroke:#ff0000;stroke-linecap:round;stroke-width:3;"/>
   </g>
   <g id="[&quot;g_s&quot;:4,&quot;g_t&quot;:4,&quot;coords&quot;:[[177.0, -672.0],[198.0, -672.0]],&quot;certainty&quot;:11]">
    <path clip-path="url(#pa76dfe2143)" d="M 162.521856 176.220235 
C 164.24806 176.220235 165.903796 175.807303 167.124407 175.072383 
C 168.345018 174.337463 169.030846 173.340557 169.030846 172.301223 
C 169.030846 171.261889 168.345018 170.264984 167.124407 169.530064 
C 165.903796 168.795144 164.24806 168.382212 162.521856 168.382212 
C 160.795652 168.382212 159.139916 168.795144 157.919305 169.530064 
C 156.698695 170.264984 156.012866 171.261889 156.012866 172.301223 
C 156.012866 173.340557 156.698695 174.337463 157.919305 175.072383 
C 159.139916 175.807303 160.795652 176.220235 162.521856 176.220235 
z
" style="fill:#0000ff;opacity:0.2;stroke:#0000ff;stroke-linejoin:miter;stroke-width:2;"/>
   </g>
   <g id="[&quot;g_s&quot;:4,&quot;g_t&quot;:4,&quot;coords&quot;:[[198.0, -672.0],[177.0, -672.0]],&quot;certainty&quot;:11]">
    <path clip-path="url(#pa76dfe2143)" d="M 185.30332 176.220235 
C 187.029524 176.220235 188.68526 175.807303 189.905871 175.072383 
C 191.126481 174.337463 191.81231 173.340557 191.81231 172.301223 
C 191.81231 171.261889 191.126481 170.264984 189.905871 169.530064 
C 188.68526 168.795144 187.029524 168.382212 185.30332 168.382212 
C 183.577116 168.382212 181.92138 168.795144 180.700769 169.530064 
C 179.480158 170.264984 178.79433 171.261889 178.79433 172.301223 
C 178.79433 173.340557 179.480158 174.337463 180.700769 175.072383 
C 181.92138 175.807303 183.577116 176.220235 185.30332 176.220235 
z
" style="fill:#ff0000;opacity:0.2;stroke:#ff0000;stroke-linejoin:miter;stroke-width:2;"/>
   </g>
   <g id="patch_53">
    <path d="M 162.521856 172.301223 
Q 172.91284 172.301223 181.182503 172.301223 
" style="fill:none;opacity:0.5;stroke:#ff0000;stroke-linecap:round;stroke-width:3;"/>
    <path d="M 179.682503 170.801223 
L 181.182503 172.301223 
L 179.682503 173.801223 
" style="fill:none;opacity:0.5;stroke:#ff0000;stroke-linecap:round;stroke-width:3;"/>
   </g>
   <g id="patch_54">
    <path clip-path="url(#pa76dfe2143)" d="M 242.25698 63.875245 
C 243.695483 63.875245 245.075263 63.531135 246.092439 62.918702 
C 247.109614 62.306269 247.681138 61.475514 247.681138 60.609403 
C 247.681138 59.743291 247.109614 58.912536 246.092439 58.300103 
C 245.075263 57.68767 243.695483 57.34356 242.25698 57.34356 
C 240.818476 57.34356 239.438696 57.68767 238.421521 58.300103 
C 237.404345 58.912536 236.832822 59.743291 236.832822 60.609403 
C 236.832822 61.475514 237.404345 62.306269 238.421521 62.918702 
C 239.438696 63.531135 240.818476 63.875245 242.25698 63.875245 
z
" style="fill:#008000;opacity:0.2;stroke:#008000;stroke-linejoin:miter;stroke-width:2;"/>
   </g>
   <g id="patch_55">
    <path clip-path="url(#pa76dfe2143)" d="M 310.601371 175.567066 
C 312.039875 175.567066 313.419655 175.222956 314.43683 174.610523 
C 315.454006 173.998089 316.025529 173.167335 316.025529 172.301223 
C 316.025529 171.435112 315.454006 170.604357 314.43683 169.991924 
C 313.419655 169.37949 312.039875 169.035381 310.601371 169.035381 
C 309.162868 169.035381 307.783088 169.37949 306.765912 169.991924 
C 305.748737 170.604357 305.177213 171.435112 305.177213 172.301223 
C 305.177213 173.167335 305.748737 173.998089 306.765912 174.610523 
C 307.783088 175.222956 309.162868 175.567066 310.601371 175.567066 
z
" style="fill:#008000;opacity:0.2;stroke:#008000;stroke-linejoin:miter;stroke-width:2;"/>
   </g>
   <g id="patch_56">
    <path clip-path="url(#pa76dfe2143)" d="M 242.25698 285.95255 
C 243.695483 285.95255 245.075263 285.60844 246.092439 284.996007 
C 247.109614 284.383573 247.681138 283.552819 247.681138 282.686707 
C 247.681138 281.820595 247.109614 280.989841 246.092439 280.377408 
C 245.075263 279.764974 243.695483 279.420864 242.25698 279.420864 
C 240.818476 279.420864 239.438696 279.764974 238.421521 280.377408 
C 237.404345 280.989841 236.832822 281.820595 236.832822 282.686707 
C 236.832822 283.552819 237.404345 284.383573 238.421521 284.996007 
C 239.438696 285.60844 240.818476 285.95255 242.25698 285.95255 
z
" style="fill:#008000;opacity:0.2;stroke:#008000;stroke-linejoin:miter;stroke-width:2;"/>
   </g>
   <g id="patch_57">
    <path clip-path="url(#pa76dfe2143)" d="M 173.912588 175.567066 
C 175.351092 175.567066 176.730871 175.222956 177.748047 174.610523 
C 178.765223 173.998089 179.336746 173.167335 179.336746 172.301223 
C 179.336746 171.435112 178.765223 170.604357 177.748047 169.991924 
C 176.730871 169.37949 175.351092 169.035381 173.912588 169.035381 
C 172.474084 169.035381 171.094305 169.37949 170.077129 169.991924 
C 169.059953 170.604357 168.48843 171.435112 168.48843 172.301223 
C 168.48843 173.167335 169.059953 173.998089 170.077129 174.610523 
C 171.094305 175.222956 172.474084 175.567066 173.912588 175.567066 
z
" style="fill:#008000;opacity:0.2;stroke:#008000;stroke-linejoin:miter;stroke-width:2;"/>
   </g>
   <g id="patch_58">
    <path clip-path="url(#pa76dfe2143)" d="M 241.714564 76.938616 
C 247.468578 76.938616 252.987697 75.562177 257.0564 73.112443 
C 261.125102 70.66271 263.411196 67.339692 263.411196 63.875245 
C 263.411196 60.410799 261.125102 57.087781 257.0564 54.638047 
C 252.987697 52.188314 247.468578 50.811874 241.714564 50.811874 
C 235.96055 50.811874 230.44143 52.188314 226.372728 54.638047 
C 222.304026 57.087781 220.017932 60.410799 220.017932 63.875245 
C 220.017932 67.339692 222.304026 70.66271 226.372728 73.112443 
C 230.44143 75.562177 235.96055 76.938616 241.714564 76.938616 
z
" style="fill:none;opacity:0.2;stroke:#ff0000;stroke-linejoin:miter;stroke-width:2;"/>
   </g>
   <g id="patch_59">
    <path clip-path="url(#pa76dfe2143)" d="M 242.799395 70.406931 
C 248.55341 70.406931 254.072529 69.030491 258.141231 66.580758 
C 262.209934 64.131024 264.496028 60.808006 264.496028 57.34356 
C 264.496028 53.879113 262.209934 50.556095 258.141231 48.106362 
C 254.072529 45.656628 248.55341 44.280189 242.799395 44.280189 
C 237.045381 44.280189 231.526262 45.656628 227.45756 48.106362 
C 223.388857 50.556095 221.102763 53.879113 221.102763 57.34356 
C 221.102763 60.808006 223.388857 64.131024 227.45756 66.580758 
C 231.526262 69.030491 237.045381 70.406931 242.799395 70.406931 
z
" style="fill:none;opacity:0.2;stroke:#0000ff;stroke-linejoin:miter;stroke-width:2;"/>
   </g>
   <g id="patch_60">
    <path clip-path="url(#pa76dfe2143)" d="M 241.714564 70.406931 
C 244.591571 70.406931 247.35113 69.718711 249.385482 68.493844 
C 251.419833 67.268977 252.56288 65.607468 252.56288 63.875245 
C 252.56288 62.143022 251.419833 60.481513 249.385482 59.256646 
C 247.35113 58.031779 244.591571 57.34356 241.714564 57.34356 
C 238.837557 57.34356 236.077997 58.031779 234.043646 59.256646 
C 232.009295 60.481513 230.866248 62.143022 230.866248 63.875245 
C 230.866248 65.607468 232.009295 67.268977 234.043646 68.493844 
C 236.077997 69.718711 238.837557 70.406931 241.714564 70.406931 
z
" style="fill:none;opacity:0.2;stroke:#008000;stroke-linejoin:miter;stroke-width:2;"/>
   </g>
   <g id="patch_61">
    <path clip-path="url(#pa76dfe2143)" d="M 242.799395 63.875245 
C 245.676402 63.875245 248.435962 63.187026 250.470313 61.962159 
C 252.504665 60.737292 253.647712 59.075783 253.647712 57.34356 
C 253.647712 55.611337 252.504665 53.949828 250.470313 52.724961 
C 248.435962 51.500094 245.676402 50.811874 242.799395 50.811874 
C 239.922388 50.811874 237.162829 51.500094 235.128478 52.724961 
C 233.094126 53.949828 231.951079 55.611337 231.951079 57.34356 
C 231.951079 59.075783 233.094126 60.737292 235.128478 61.962159 
C 237.162829 63.187026 239.922388 63.875245 242.799395 63.875245 
z
" style="fill:none;opacity:0.2;stroke:#008000;stroke-linejoin:miter;stroke-width:2;"/>
   </g>
   <g id="patch_62">
    <path d="M 242.25698 60.609403 
Q 276.429175 116.455313 310.601371 172.301223 
" style="fill:none;opacity:0.5;stroke:#008000;stroke-linecap:round;stroke-width:2;"/>
   </g>
   <g id="patch_63">
    <path d="M 241.946273 62.480143 
Q 242.093037 61.596491 242.2398 60.712839 
" style="fill:none;opacity:0.5;stroke:#800080;stroke-linecap:round;stroke-width:2;"/>
    <path d="M 243.671767 61.246178 
L 241.946273 62.480143 
L 240.712308 60.754648 
" style="fill:none;opacity:0.5;stroke:#800080;stroke-linecap:round;stroke-width:2;"/>
    <path d="M 240.514306 61.946804 
L 242.2398 60.712839 
L 243.473765 62.438333 
" style="fill:none;opacity:0.5;stroke:#800080;stroke-linecap:round;stroke-width:2;"/>
   </g>
   <g id="patch_64">
    <path d="M 310.601371 172.301223 
Q 276.429175 227.493965 242.25698 282.686707 
" style="fill:none;opacity:0.5;stroke:#008000;stroke-linecap:round;stroke-width:2;"/>
   </g>
   <g id="patch_65">
    <path d="M 300.624853 172.301223 
Q 309.601623 172.301223 318.578393 172.301223 
" style="fill:none;opacity:0.5;stroke:#800080;stroke-linecap:round;stroke-width:2;"/>
    <path d="M 302.124853 173.801223 
L 300.624853 172.301223 
L 302.124853 170.801223 
" style="fill:none;opacity:0.5;stroke:#800080;stroke-linecap:round;stroke-width:2;"/>
    <path d="M 317.078393 170.801223 
L 318.578393 172.301223 
L 317.078393 173.801223 
" style="fill:none;opacity:0.5;stroke:#800080;stroke-linecap:round;stroke-width:2;"/>
   </g>
   <g id="patch_66">
    <path d="M 242.25698 282.686707 
Q 208.084784 227.493965 173.912588 172.301223 
" style="fill:none;opacity:0.5;stroke:#008000;stroke-linecap:round;stroke-width:2;"/>
   </g>
   <g id="patch_67">
    <path d="M 242.091848 282.09016 
Q 241.990539 281.724176 241.88923 281.358193 
" style="fill:none;opacity:0.5;stroke:#800080;stroke-linecap:round;stroke-width:2;"/>
    <path d="M 241.046382 283.935967 
L 242.091848 282.09016 
L 243.937654 283.135626 
" style="fill:none;opacity:0.5;stroke:#800080;stroke-linecap:round;stroke-width:2;"/>
    <path d="M 242.934696 279.512386 
L 241.88923 281.358193 
L 240.043424 280.312727 
" style="fill:none;opacity:0.5;stroke:#800080;stroke-linecap:round;stroke-width:2;"/>
   </g>
   <g id="patch_68">
    <path d="M 173.912588 172.301223 
Q 208.084784 116.455313 242.25698 60.609403 
" style="fill:none;opacity:0.5;stroke:#008000;stroke-linecap:round;stroke-width:2;"/>
   </g>
   <g id="patch_69">
    <path d="M 183.889106 172.301223 
Q 174.912336 172.301223 165.935566 172.301223 
" style="fill:none;opacity:0.5;stroke:#800080;stroke-linecap:round;stroke-width:2;"/>
    <path d="M 182.389106 170.801223 
L 183.889106 172.301223 
L 182.389106 173.801223 
" style="fill:none;opacity:0.5;stroke:#800080;stroke-linecap:round;stroke-width:2;"/>
    <path d="M 167.435566 173.801223 
L 165.935566 172.301223 
L 167.435566 170.801223 
" style="fill:none;opacity:0.5;stroke:#800080;stroke-linecap:round;stroke-width:2;"/>
   </g>
   <g id="line2d_1">
    <path clip-path="url(#pa76dfe2143)" d="M 241.714564 41.667515 
L 421.796612 172.301223 
L 241.714564 302.934932 
L 62.717348 172.301223 
" style="fill:none;stroke:#ff0000;stroke-linecap:square;stroke-width:0.2;"/>
   </g>
   <g id="line2d_2">
    <path clip-path="url(#pa76dfe2143)" d="M 242.799395 40.361178 
L 403.354474 170.994886 
L 242.799395 301.628595 
L 81.159485 170.994886 
" style="fill:none;stroke:#0000ff;stroke-linecap:square;stroke-width:0.2;"/>
   </g>
   <g id="line2d_3">
    <path clip-path="url(#pa76dfe2143)" d="M 241.714564 63.875245 
L 299.210639 172.301223 
L 241.714564 280.727201 
L 185.30332 172.301223 
" style="fill:none;stroke:#ff0000;stroke-linecap:square;stroke-width:0.2;"/>
   </g>
   <g id="line2d_4">
    <path clip-path="url(#pa76dfe2143)" d="M 242.799395 57.34356 
L 321.992103 172.301223 
L 242.799395 284.646213 
L 162.521856 172.301223 
" style="fill:none;stroke:#0000ff;stroke-linecap:square;stroke-width:0.2;"/>
   </g>
  </g>
 </g>
 <defs>
  <clipPath id="pa76dfe2143">
   <rect height="307.51175" width="409.903625" x="37.576375" y="13.32"/>
  </clipPath>
 </defs>
</svg>
