<?xml version="1.0" encoding="utf-8" standalone="no"?>
<!DOCTYPE svg PUBLIC "-//W3C//DTD SVG 1.1//EN"
  "http://www.w3.org/Graphics/SVG/1.1/DTD/svg11.dtd">
<!-- Created with matplotlib (http://matplotlib.org/) -->
<svg height="345.6pt" version="1.1" viewBox="0 0 460.8 345.6" width="460.8pt" xmlns="http://www.w3.org/2000/svg" xmlns:xlink="http://www.w3.org/1999/xlink">
 <defs>
  <style type="text/css">
*{stroke-linecap:butt;stroke-linejoin:round;}
  </style>
 </defs>
 <g id="figure_1">
  <g id="patch_1">
   <path d="M 0 345.6 
L 460.8 345.6 
L 460.8 0 
L 0 0 
z
" style="fill:#ffffff;"/>
  </g>
  <g id="axes_1">
   <g id="patch_2">
    <path clip-path="url(#pfe209a496f)" d="M 241.714564 41.40385 
C 242.289965 41.40385 242.841877 41.268732 243.248747 41.028254 
C 243.655618 40.787775 243.884227 40.461571 243.884227 40.121483 
C 243.884227 39.781395 243.655618 39.45519 243.248747 39.214712 
C 242.841877 38.974234 242.289965 38.839115 241.714564 38.839115 
C 241.139162 38.839115 240.58725 38.974234 240.18038 39.214712 
C 239.77351 39.45519 239.544901 39.781395 239.544901 40.121483 
C 239.544901 40.461571 239.77351 40.787775 240.18038 41.028254 
C 240.58725 41.268732 241.139162 41.40385 241.714564 41.40385 
z
" style="fill:#ff0000;opacity:0.2;stroke:#ff0000;stroke-linejoin:miter;stroke-width:2;"/>
   </g>
   <g id="patch_3">
    <path clip-path="url(#pfe209a496f)" d="M 421.796612 169.64061 
C 422.372013 169.64061 422.923925 169.505492 423.330795 169.265013 
C 423.737665 169.024535 423.966275 168.69833 423.966275 168.358243 
C 423.966275 168.018155 423.737665 167.69195 423.330795 167.451472 
C 422.923925 167.210993 422.372013 167.075875 421.796612 167.075875 
C 421.22121 167.075875 420.669298 167.210993 420.262428 167.451472 
C 419.855558 167.69195 419.626948 168.018155 419.626948 168.358243 
C 419.626948 168.69833 419.855558 169.024535 420.262428 169.265013 
C 420.669298 169.505492 421.22121 169.64061 421.796612 169.64061 
z
" style="fill:#ff0000;opacity:0.2;stroke:#ff0000;stroke-linejoin:miter;stroke-width:2;"/>
   </g>
   <g id="patch_4">
    <path clip-path="url(#pfe209a496f)" d="M 241.714564 297.87737 
C 242.289965 297.87737 242.841877 297.742252 243.248747 297.501773 
C 243.655618 297.261295 243.884227 296.93509 243.884227 296.595002 
C 243.884227 296.254915 243.655618 295.92871 243.248747 295.688232 
C 242.841877 295.447753 242.289965 295.312635 241.714564 295.312635 
C 241.139162 295.312635 240.58725 295.447753 240.18038 295.688232 
C 239.77351 295.92871 239.544901 296.254915 239.544901 296.595002 
C 239.544901 296.93509 239.77351 297.261295 240.18038 297.501773 
C 240.58725 297.742252 241.139162 297.87737 241.714564 297.87737 
z
" style="fill:#ff0000;opacity:0.2;stroke:#ff0000;stroke-linejoin:miter;stroke-width:2;"/>
   </g>
   <g id="patch_5">
    <path clip-path="url(#pfe209a496f)" d="M 62.717348 169.64061 
C 63.292749 169.64061 63.844661 169.505492 64.251531 169.265013 
C 64.658401 169.024535 64.887011 168.69833 64.887011 168.358243 
C 64.887011 168.018155 64.658401 167.69195 64.251531 167.451472 
C 63.844661 167.210993 63.292749 167.075875 62.717348 167.075875 
C 62.141946 167.075875 61.590034 167.210993 61.183164 167.451472 
C 60.776294 167.69195 60.547684 168.018155 60.547684 168.358243 
C 60.547684 168.69833 60.776294 169.024535 61.183164 169.265013 
C 61.590034 169.505492 62.141946 169.64061 62.717348 169.64061 
z
" style="fill:#ff0000;opacity:0.2;stroke:#ff0000;stroke-linejoin:miter;stroke-width:2;"/>
   </g>
   <g id="patch_6">
    <path clip-path="url(#pfe209a496f)" d="M 242.799395 47.815688 
C 243.374797 47.815688 243.926709 47.68057 244.333579 47.440092 
C 244.740449 47.199613 244.969059 46.873409 244.969059 46.533321 
C 244.969059 46.193233 244.740449 45.867028 244.333579 45.62655 
C 243.926709 45.386072 243.374797 45.250953 242.799395 45.250953 
C 242.223994 45.250953 241.672082 45.386072 241.265212 45.62655 
C 240.858342 45.867028 240.629732 46.193233 240.629732 46.533321 
C 240.629732 46.873409 240.858342 47.199613 241.265212 47.440092 
C 241.672082 47.68057 242.223994 47.815688 242.799395 47.815688 
z
" style="fill:#0000ff;opacity:0.2;stroke:#0000ff;stroke-linejoin:miter;stroke-width:2;"/>
   </g>
   <g id="patch_7">
    <path clip-path="url(#pfe209a496f)" d="M 403.354474 176.052448 
C 403.929876 176.052448 404.481787 175.91733 404.888658 175.676851 
C 405.295528 175.436373 405.524137 175.110168 405.524137 174.770081 
C 405.524137 174.429993 405.295528 174.103788 404.888658 173.86331 
C 404.481787 173.622831 403.929876 173.487713 403.354474 173.487713 
C 402.779073 173.487713 402.227161 173.622831 401.820291 173.86331 
C 401.41342 174.103788 401.184811 174.429993 401.184811 174.770081 
C 401.184811 175.110168 401.41342 175.436373 401.820291 175.676851 
C 402.227161 175.91733 402.779073 176.052448 403.354474 176.052448 
z
" style="fill:#0000ff;opacity:0.2;stroke:#0000ff;stroke-linejoin:miter;stroke-width:2;"/>
   </g>
   <g id="patch_8">
    <path clip-path="url(#pfe209a496f)" d="M 242.799395 304.289208 
C 243.374797 304.289208 243.926709 304.15409 244.333579 303.913611 
C 244.740449 303.673133 244.969059 303.346928 244.969059 303.00684 
C 244.969059 302.666753 244.740449 302.340548 244.333579 302.10007 
C 243.926709 301.859591 243.374797 301.724473 242.799395 301.724473 
C 242.223994 301.724473 241.672082 301.859591 241.265212 302.10007 
C 240.858342 302.340548 240.629732 302.666753 240.629732 303.00684 
C 240.629732 303.346928 240.858342 303.673133 241.265212 303.913611 
C 241.672082 304.15409 242.223994 304.289208 242.799395 304.289208 
z
" style="fill:#0000ff;opacity:0.2;stroke:#0000ff;stroke-linejoin:miter;stroke-width:2;"/>
   </g>
   <g id="patch_9">
    <path clip-path="url(#pfe209a496f)" d="M 81.159485 176.052448 
C 81.734886 176.052448 82.286798 175.91733 82.693669 175.676851 
C 83.100539 175.436373 83.329148 175.110168 83.329148 174.770081 
C 83.329148 174.429993 83.100539 174.103788 82.693669 173.86331 
C 82.286798 173.622831 81.734886 173.487713 81.159485 173.487713 
C 80.584084 173.487713 80.032172 173.622831 79.625301 173.86331 
C 79.218431 174.103788 78.989822 174.429993 78.989822 174.770081 
C 78.989822 175.110168 79.218431 175.436373 79.625301 175.676851 
C 80.032172 175.91733 80.584084 176.052448 81.159485 176.052448 
z
" style="fill:#0000ff;opacity:0.2;stroke:#0000ff;stroke-linejoin:miter;stroke-width:2;"/>
   </g>
   <g id="patch_10">
    <path clip-path="url(#pfe209a496f)" d="M 241.714564 40.121483 
C 367.555031 40.121483 421.796612 107.445782 421.796612 168.358243 
C 421.796612 230.553071 367.555031 296.595002 241.714564 296.595002 
C 116.958928 296.595002 62.717348 231.194255 62.717348 168.358243 
C 62.717348 107.445782 116.958928 40.121483 241.714564 40.121483 
" style="fill:none;stroke:#ff0000;stroke-linejoin:miter;stroke-width:0.5;"/>
   </g>
   <g id="patch_11">
    <path clip-path="url(#pfe209a496f)" d="M 242.799395 46.533321 
C 354.537052 46.533321 403.354474 115.139987 403.354474 174.770081 
C 403.354474 236.964909 354.537052 303.00684 242.799395 303.00684 
C 129.976908 303.00684 81.159485 236.964909 81.159485 174.770081 
C 81.159485 115.139987 129.976908 46.533321 242.799395 46.533321 
" style="fill:none;stroke:#0000ff;stroke-linejoin:miter;stroke-width:0.5;"/>
   </g>
   <g id="[&quot;g_s&quot;:1,&quot;g_t&quot;:1,&quot;coords&quot;:[[250.0, 13.0],[251.0, 3.0]],&quot;certainty&quot;:10]">
    <path clip-path="url(#pfe209a496f)" d="M 241.714564 43.647994 
C 243.296918 43.647994 244.814675 43.276418 245.933569 42.615103 
C 247.052462 41.953787 247.681138 41.056724 247.681138 40.121483 
C 247.681138 39.186241 247.052462 38.289179 245.933569 37.627863 
C 244.814675 36.966547 243.296918 36.594972 241.714564 36.594972 
C 240.13221 36.594972 238.614452 36.966547 237.495559 37.627863 
C 236.376666 38.289179 235.74799 39.186241 235.74799 40.121483 
C 235.74799 41.056724 236.376666 41.953787 237.495559 42.615103 
C 238.614452 43.276418 240.13221 43.647994 241.714564 43.647994 
z
" style="fill:#0000ff;opacity:0.2;stroke:#0000ff;stroke-linejoin:miter;stroke-width:2;"/>
   </g>
   <g id="[&quot;g_s&quot;:1,&quot;g_t&quot;:1,&quot;coords&quot;:[[251.0, 3.0],[250.0, 13.0]],&quot;certainty&quot;:10]">
    <path clip-path="url(#pfe209a496f)" d="M 242.799395 50.059832 
C 244.381749 50.059832 245.899507 49.688256 247.0184 49.026941 
C 248.137293 48.365625 248.765969 47.468562 248.765969 46.533321 
C 248.765969 45.598079 248.137293 44.701017 247.0184 44.039701 
C 245.899507 43.378385 244.381749 43.00681 242.799395 43.00681 
C 241.217042 43.00681 239.699284 43.378385 238.580391 44.039701 
C 237.461497 44.701017 236.832822 45.598079 236.832822 46.533321 
C 236.832822 47.468562 237.461497 48.365625 238.580391 49.026941 
C 239.699284 49.688256 241.217042 50.059832 242.799395 50.059832 
z
" style="fill:#ff0000;opacity:0.2;stroke:#ff0000;stroke-linejoin:miter;stroke-width:2;"/>
   </g>
   <g id="patch_12">
    <path d="M 241.714564 40.121483 
Q 242.090388 42.342771 242.141821 42.646765 
" style="fill:none;opacity:0.5;stroke:#0000ff;stroke-linecap:round;stroke-width:2.75;"/>
    <path d="M 243.37057 40.917552 
L 242.141821 42.646765 
L 240.412609 41.418016 
" style="fill:none;opacity:0.5;stroke:#0000ff;stroke-linecap:round;stroke-width:2.75;"/>
   </g>
   <g id="[&quot;g_s&quot;:2,&quot;g_t&quot;:2,&quot;coords&quot;:[[416.0, -187.0],[399.0, -197.0]],&quot;certainty&quot;:12]">
    <path clip-path="url(#pfe209a496f)" d="M 421.796612 172.525937 
C 423.666666 172.525937 425.46038 172.086803 426.782708 171.305248 
C 428.105036 170.523693 428.848017 169.463528 428.848017 168.358243 
C 428.848017 167.252957 428.105036 166.192792 426.782708 165.411237 
C 425.46038 164.629683 423.666666 164.190548 421.796612 164.190548 
C 419.926557 164.190548 418.132843 164.629683 416.810515 165.411237 
C 415.488187 166.192792 414.745206 167.252957 414.745206 168.358243 
C 414.745206 169.463528 415.488187 170.523693 416.810515 171.305248 
C 418.132843 172.086803 419.926557 172.525937 421.796612 172.525937 
z
" style="fill:#0000ff;opacity:0.2;stroke:#0000ff;stroke-linejoin:miter;stroke-width:2;"/>
   </g>
   <g id="[&quot;g_s&quot;:2,&quot;g_t&quot;:2,&quot;coords&quot;:[[399.0, -197.0],[416.0, -187.0]],&quot;certainty&quot;:12]">
    <path clip-path="url(#pfe209a496f)" d="M 403.354474 178.937775 
C 405.224529 178.937775 407.018242 178.498641 408.340571 177.717086 
C 409.662899 176.935531 410.40588 175.875366 410.40588 174.770081 
C 410.40588 173.664795 409.662899 172.60463 408.340571 171.823075 
C 407.018242 171.04152 405.224529 170.602386 403.354474 170.602386 
C 401.48442 170.602386 399.690706 171.04152 398.368378 171.823075 
C 397.046049 172.60463 396.303069 173.664795 396.303069 174.770081 
C 396.303069 175.875366 397.046049 176.935531 398.368378 177.717086 
C 399.690706 178.498641 401.48442 178.937775 403.354474 178.937775 
z
" style="fill:#ff0000;opacity:0.2;stroke:#ff0000;stroke-linejoin:miter;stroke-width:2;"/>
   </g>
   <g id="patch_13">
    <path d="M 421.796612 168.358243 
Q 413.518811 171.236212 407.411659 173.359506 
" style="fill:none;opacity:0.5;stroke:#0000ff;stroke-linecap:round;stroke-width:3.25;"/>
    <path d="M 409.321059 174.28373 
L 407.411659 173.359506 
L 408.335884 171.450106 
" style="fill:none;opacity:0.5;stroke:#0000ff;stroke-linecap:round;stroke-width:3.25;"/>
   </g>
   <g id="[&quot;g_s&quot;:3,&quot;g_t&quot;:3,&quot;coords&quot;:[[250.0, -387.0],[251.0, -397.0]],&quot;certainty&quot;:11]">
    <path clip-path="url(#pfe209a496f)" d="M 241.714564 300.442105 
C 243.440768 300.442105 245.096504 300.03675 246.317115 299.315315 
C 247.537725 298.59388 248.223553 297.615266 248.223553 296.595002 
C 248.223553 295.574739 247.537725 294.596125 246.317115 293.87469 
C 245.096504 293.153255 243.440768 292.7479 241.714564 292.7479 
C 239.98836 292.7479 238.332624 293.153255 237.112013 293.87469 
C 235.891402 294.596125 235.205574 295.574739 235.205574 296.595002 
C 235.205574 297.615266 235.891402 298.59388 237.112013 299.315315 
C 238.332624 300.03675 239.98836 300.442105 241.714564 300.442105 
z
" style="fill:#0000ff;opacity:0.2;stroke:#0000ff;stroke-linejoin:miter;stroke-width:2;"/>
   </g>
   <g id="[&quot;g_s&quot;:3,&quot;g_t&quot;:3,&quot;coords&quot;:[[251.0, -397.0],[250.0, -387.0]],&quot;certainty&quot;:11]">
    <path clip-path="url(#pfe209a496f)" d="M 242.799395 306.853943 
C 244.5256 306.853943 246.181335 306.448588 247.401946 305.727153 
C 248.622557 305.005718 249.308385 304.027104 249.308385 303.00684 
C 249.308385 301.986577 248.622557 301.007963 247.401946 300.286528 
C 246.181335 299.565093 244.5256 299.159738 242.799395 299.159738 
C 241.073191 299.159738 239.417455 299.565093 238.196845 300.286528 
C 236.976234 301.007963 236.290406 301.986577 236.290406 303.00684 
C 236.290406 304.027104 236.976234 305.005718 238.196845 305.727153 
C 239.417455 306.448588 241.073191 306.853943 242.799395 306.853943 
z
" style="fill:#ff0000;opacity:0.2;stroke:#ff0000;stroke-linejoin:miter;stroke-width:2;"/>
   </g>
   <g id="patch_14">
    <path d="M 241.714564 296.595002 
Q 242.090388 298.816291 242.112331 298.945985 
" style="fill:none;opacity:0.5;stroke:#0000ff;stroke-linecap:round;stroke-width:3;"/>
    <path d="M 243.34108 297.216772 
L 242.112331 298.945985 
L 240.383119 297.717236 
" style="fill:none;opacity:0.5;stroke:#0000ff;stroke-linecap:round;stroke-width:3;"/>
   </g>
   <g id="[&quot;g_s&quot;:4,&quot;g_t&quot;:4,&quot;coords&quot;:[[85.0, -187.0],[102.0, -197.0]],&quot;certainty&quot;:11]">
    <path clip-path="url(#pfe209a496f)" d="M 62.717348 172.205345 
C 64.443552 172.205345 66.099288 171.79999 67.319898 171.078555 
C 68.540509 170.35712 69.226337 169.378506 69.226337 168.358243 
C 69.226337 167.337979 68.540509 166.359365 67.319898 165.63793 
C 66.099288 164.916495 64.443552 164.51114 62.717348 164.51114 
C 60.991143 164.51114 59.335408 164.916495 58.114797 165.63793 
C 56.894186 166.359365 56.208358 167.337979 56.208358 168.358243 
C 56.208358 169.378506 56.894186 170.35712 58.114797 171.078555 
C 59.335408 171.79999 60.991143 172.205345 62.717348 172.205345 
z
" style="fill:#0000ff;opacity:0.2;stroke:#0000ff;stroke-linejoin:miter;stroke-width:2;"/>
   </g>
   <g id="[&quot;g_s&quot;:4,&quot;g_t&quot;:4,&quot;coords&quot;:[[102.0, -197.0],[85.0, -187.0]],&quot;certainty&quot;:11]">
    <path clip-path="url(#pfe209a496f)" d="M 81.159485 178.617183 
C 82.885689 178.617183 84.541425 178.211828 85.762036 177.490393 
C 86.982647 176.768958 87.668475 175.790344 87.668475 174.770081 
C 87.668475 173.749817 86.982647 172.771203 85.762036 172.049768 
C 84.541425 171.328333 82.885689 170.922978 81.159485 170.922978 
C 79.433281 170.922978 77.777545 171.328333 76.556934 172.049768 
C 75.336324 172.771203 74.650495 173.749817 74.650495 174.770081 
C 74.650495 175.790344 75.336324 176.768958 76.556934 177.490393 
C 77.777545 178.211828 79.433281 178.617183 81.159485 178.617183 
z
" style="fill:#ff0000;opacity:0.2;stroke:#ff0000;stroke-linejoin:miter;stroke-width:2;"/>
   </g>
   <g id="patch_15">
    <path d="M 62.717348 168.358243 
Q 70.995148 171.236212 77.269273 173.417558 
" style="fill:none;opacity:0.5;stroke:#0000ff;stroke-linecap:round;stroke-width:3;"/>
    <path d="M 76.345048 171.508158 
L 77.269273 173.417558 
L 75.359873 174.341782 
" style="fill:none;opacity:0.5;stroke:#0000ff;stroke-linecap:round;stroke-width:3;"/>
   </g>
   <g id="[&quot;g_s&quot;:1,&quot;g_t&quot;:1,&quot;coords&quot;:[[251.0, 3.0],[250.0, 13.0]],&quot;certainty&quot;:10]">
    <path clip-path="url(#pfe209a496f)" d="M 242.799395 50.059832 
C 244.381749 50.059832 245.899507 49.688256 247.0184 49.026941 
C 248.137293 48.365625 248.765969 47.468562 248.765969 46.533321 
C 248.765969 45.598079 248.137293 44.701017 247.0184 44.039701 
C 245.899507 43.378385 244.381749 43.00681 242.799395 43.00681 
C 241.217042 43.00681 239.699284 43.378385 238.580391 44.039701 
C 237.461497 44.701017 236.832822 45.598079 236.832822 46.533321 
C 236.832822 47.468562 237.461497 48.365625 238.580391 49.026941 
C 239.699284 49.688256 241.217042 50.059832 242.799395 50.059832 
z
" style="fill:#0000ff;opacity:0.2;stroke:#0000ff;stroke-linejoin:miter;stroke-width:2;"/>
   </g>
   <g id="[&quot;g_s&quot;:1,&quot;g_t&quot;:1,&quot;coords&quot;:[[250.0, 13.0],[251.0, 3.0]],&quot;certainty&quot;:10]">
    <path clip-path="url(#pfe209a496f)" d="M 241.714564 43.647994 
C 243.296918 43.647994 244.814675 43.276418 245.933569 42.615103 
C 247.052462 41.953787 247.681138 41.056724 247.681138 40.121483 
C 247.681138 39.186241 247.052462 38.289179 245.933569 37.627863 
C 244.814675 36.966547 243.296918 36.594972 241.714564 36.594972 
C 240.13221 36.594972 238.614452 36.966547 237.495559 37.627863 
C 236.376666 38.289179 235.74799 39.186241 235.74799 40.121483 
C 235.74799 41.056724 236.376666 41.953787 237.495559 42.615103 
C 238.614452 43.276418 240.13221 43.647994 241.714564 43.647994 
z
" style="fill:#ff0000;opacity:0.2;stroke:#ff0000;stroke-linejoin:miter;stroke-width:2;"/>
   </g>
   <g id="patch_16">
    <path d="M 242.799395 46.533321 
Q 242.423571 44.312032 242.372138 44.008039 
" style="fill:none;opacity:0.5;stroke:#ff0000;stroke-linecap:round;stroke-width:2.75;"/>
    <path d="M 241.143389 45.737251 
L 242.372138 44.008039 
L 244.10135 45.236788 
" style="fill:none;opacity:0.5;stroke:#ff0000;stroke-linecap:round;stroke-width:2.75;"/>
   </g>
   <g id="[&quot;g_s&quot;:2,&quot;g_t&quot;:2,&quot;coords&quot;:[[399.0, -197.0],[416.0, -187.0]],&quot;certainty&quot;:12]">
    <path clip-path="url(#pfe209a496f)" d="M 403.354474 178.937775 
C 405.224529 178.937775 407.018242 178.498641 408.340571 177.717086 
C 409.662899 176.935531 410.40588 175.875366 410.40588 174.770081 
C 410.40588 173.664795 409.662899 172.60463 408.340571 171.823075 
C 407.018242 171.04152 405.224529 170.602386 403.354474 170.602386 
C 401.48442 170.602386 399.690706 171.04152 398.368378 171.823075 
C 397.046049 172.60463 396.303069 173.664795 396.303069 174.770081 
C 396.303069 175.875366 397.046049 176.935531 398.368378 177.717086 
C 399.690706 178.498641 401.48442 178.937775 403.354474 178.937775 
z
" style="fill:#0000ff;opacity:0.2;stroke:#0000ff;stroke-linejoin:miter;stroke-width:2;"/>
   </g>
   <g id="[&quot;g_s&quot;:2,&quot;g_t&quot;:2,&quot;coords&quot;:[[416.0, -187.0],[399.0, -197.0]],&quot;certainty&quot;:12]">
    <path clip-path="url(#pfe209a496f)" d="M 421.796612 172.525937 
C 423.666666 172.525937 425.46038 172.086803 426.782708 171.305248 
C 428.105036 170.523693 428.848017 169.463528 428.848017 168.358243 
C 428.848017 167.252957 428.105036 166.192792 426.782708 165.411237 
C 425.46038 164.629683 423.666666 164.190548 421.796612 164.190548 
C 419.926557 164.190548 418.132843 164.629683 416.810515 165.411237 
C 415.488187 166.192792 414.745206 167.252957 414.745206 168.358243 
C 414.745206 169.463528 415.488187 170.523693 416.810515 171.305248 
C 418.132843 172.086803 419.926557 172.525937 421.796612 172.525937 
z
" style="fill:#ff0000;opacity:0.2;stroke:#ff0000;stroke-linejoin:miter;stroke-width:2;"/>
   </g>
   <g id="patch_17">
    <path d="M 403.354474 174.770081 
Q 411.632274 171.892111 417.739426 169.768817 
" style="fill:none;opacity:0.5;stroke:#ff0000;stroke-linecap:round;stroke-width:3.25;"/>
    <path d="M 415.830026 168.844593 
L 417.739426 169.768817 
L 416.815202 171.678218 
" style="fill:none;opacity:0.5;stroke:#ff0000;stroke-linecap:round;stroke-width:3.25;"/>
   </g>
   <g id="[&quot;g_s&quot;:3,&quot;g_t&quot;:3,&quot;coords&quot;:[[251.0, -397.0],[250.0, -387.0]],&quot;certainty&quot;:11]">
    <path clip-path="url(#pfe209a496f)" d="M 242.799395 306.853943 
C 244.5256 306.853943 246.181335 306.448588 247.401946 305.727153 
C 248.622557 305.005718 249.308385 304.027104 249.308385 303.00684 
C 249.308385 301.986577 248.622557 301.007963 247.401946 300.286528 
C 246.181335 299.565093 244.5256 299.159738 242.799395 299.159738 
C 241.073191 299.159738 239.417455 299.565093 238.196845 300.286528 
C 236.976234 301.007963 236.290406 301.986577 236.290406 303.00684 
C 236.290406 304.027104 236.976234 305.005718 238.196845 305.727153 
C 239.417455 306.448588 241.073191 306.853943 242.799395 306.853943 
z
" style="fill:#0000ff;opacity:0.2;stroke:#0000ff;stroke-linejoin:miter;stroke-width:2;"/>
   </g>
   <g id="[&quot;g_s&quot;:3,&quot;g_t&quot;:3,&quot;coords&quot;:[[250.0, -387.0],[251.0, -397.0]],&quot;certainty&quot;:11]">
    <path clip-path="url(#pfe209a496f)" d="M 241.714564 300.442105 
C 243.440768 300.442105 245.096504 300.03675 246.317115 299.315315 
C 247.537725 298.59388 248.223553 297.615266 248.223553 296.595002 
C 248.223553 295.574739 247.537725 294.596125 246.317115 293.87469 
C 245.096504 293.153255 243.440768 292.7479 241.714564 292.7479 
C 239.98836 292.7479 238.332624 293.153255 237.112013 293.87469 
C 235.891402 294.596125 235.205574 295.574739 235.205574 296.595002 
C 235.205574 297.615266 235.891402 298.59388 237.112013 299.315315 
C 238.332624 300.03675 239.98836 300.442105 241.714564 300.442105 
z
" style="fill:#ff0000;opacity:0.2;stroke:#ff0000;stroke-linejoin:miter;stroke-width:2;"/>
   </g>
   <g id="patch_18">
    <path d="M 242.799395 303.00684 
Q 242.423571 300.785552 242.401628 300.655858 
" style="fill:none;opacity:0.5;stroke:#ff0000;stroke-linecap:round;stroke-width:3;"/>
    <path d="M 241.172879 302.38507 
L 242.401628 300.655858 
L 244.13084 301.884607 
" style="fill:none;opacity:0.5;stroke:#ff0000;stroke-linecap:round;stroke-width:3;"/>
   </g>
   <g id="[&quot;g_s&quot;:4,&quot;g_t&quot;:4,&quot;coords&quot;:[[102.0, -197.0],[85.0, -187.0]],&quot;certainty&quot;:11]">
    <path clip-path="url(#pfe209a496f)" d="M 81.159485 178.617183 
C 82.885689 178.617183 84.541425 178.211828 85.762036 177.490393 
C 86.982647 176.768958 87.668475 175.790344 87.668475 174.770081 
C 87.668475 173.749817 86.982647 172.771203 85.762036 172.049768 
C 84.541425 171.328333 82.885689 170.922978 81.159485 170.922978 
C 79.433281 170.922978 77.777545 171.328333 76.556934 172.049768 
C 75.336324 172.771203 74.650495 173.749817 74.650495 174.770081 
C 74.650495 175.790344 75.336324 176.768958 76.556934 177.490393 
C 77.777545 178.211828 79.433281 178.617183 81.159485 178.617183 
z
" style="fill:#0000ff;opacity:0.2;stroke:#0000ff;stroke-linejoin:miter;stroke-width:2;"/>
   </g>
   <g id="[&quot;g_s&quot;:4,&quot;g_t&quot;:4,&quot;coords&quot;:[[85.0, -187.0],[102.0, -197.0]],&quot;certainty&quot;:11]">
    <path clip-path="url(#pfe209a496f)" d="M 62.717348 172.205345 
C 64.443552 172.205345 66.099288 171.79999 67.319898 171.078555 
C 68.540509 170.35712 69.226337 169.378506 69.226337 168.358243 
C 69.226337 167.337979 68.540509 166.359365 67.319898 165.63793 
C 66.099288 164.916495 64.443552 164.51114 62.717348 164.51114 
C 60.991143 164.51114 59.335408 164.916495 58.114797 165.63793 
C 56.894186 166.359365 56.208358 167.337979 56.208358 168.358243 
C 56.208358 169.378506 56.894186 170.35712 58.114797 171.078555 
C 59.335408 171.79999 60.991143 172.205345 62.717348 172.205345 
z
" style="fill:#ff0000;opacity:0.2;stroke:#ff0000;stroke-linejoin:miter;stroke-width:2;"/>
   </g>
   <g id="patch_19">
    <path d="M 81.159485 174.770081 
Q 72.881685 171.892111 66.60756 169.710765 
" style="fill:none;opacity:0.5;stroke:#ff0000;stroke-linecap:round;stroke-width:3;"/>
    <path d="M 67.531785 171.620166 
L 66.60756 169.710765 
L 68.51696 168.786541 
" style="fill:none;opacity:0.5;stroke:#ff0000;stroke-linecap:round;stroke-width:3;"/>
   </g>
   <g id="patch_20">
    <path clip-path="url(#pfe209a496f)" d="M 242.25698 46.533321 
C 243.695483 46.533321 245.075263 46.195525 246.092439 45.594329 
C 247.109614 44.993133 247.681138 44.177621 247.681138 43.327402 
C 247.681138 42.477182 247.109614 41.661671 246.092439 41.060475 
C 245.075263 40.459279 243.695483 40.121483 242.25698 40.121483 
C 240.818476 40.121483 239.438696 40.459279 238.421521 41.060475 
C 237.404345 41.661671 236.832822 42.477182 236.832822 43.327402 
C 236.832822 44.177621 237.404345 44.993133 238.421521 45.594329 
C 239.438696 46.195525 240.818476 46.533321 242.25698 46.533321 
z
" style="fill:#008000;opacity:0.2;stroke:#008000;stroke-linejoin:miter;stroke-width:2;"/>
   </g>
   <g id="patch_21">
    <path clip-path="url(#pfe209a496f)" d="M 412.575543 174.770081 
C 414.014046 174.770081 415.393826 174.432285 416.411002 173.831089 
C 417.428177 173.229893 417.999701 172.414381 417.999701 171.564162 
C 417.999701 170.713942 417.428177 169.898431 416.411002 169.297235 
C 415.393826 168.696038 414.014046 168.358243 412.575543 168.358243 
C 411.137039 168.358243 409.75726 168.696038 408.740084 169.297235 
C 407.722908 169.898431 407.151385 170.713942 407.151385 171.564162 
C 407.151385 172.414381 407.722908 173.229893 408.740084 173.831089 
C 409.75726 174.432285 411.137039 174.770081 412.575543 174.770081 
z
" style="fill:#008000;opacity:0.2;stroke:#008000;stroke-linejoin:miter;stroke-width:2;"/>
   </g>
   <g id="patch_22">
    <path clip-path="url(#pfe209a496f)" d="M 242.25698 303.00684 
C 243.695483 303.00684 245.075263 302.669045 246.092439 302.067848 
C 247.109614 301.466652 247.681138 300.651141 247.681138 299.800921 
C 247.681138 298.950702 247.109614 298.13519 246.092439 297.533994 
C 245.075263 296.932798 243.695483 296.595002 242.25698 296.595002 
C 240.818476 296.595002 239.438696 296.932798 238.421521 297.533994 
C 237.404345 298.13519 236.832822 298.950702 236.832822 299.800921 
C 236.832822 300.651141 237.404345 301.466652 238.421521 302.067848 
C 239.438696 302.669045 240.818476 303.00684 242.25698 303.00684 
z
" style="fill:#008000;opacity:0.2;stroke:#008000;stroke-linejoin:miter;stroke-width:2;"/>
   </g>
   <g id="patch_23">
    <path clip-path="url(#pfe209a496f)" d="M 71.938416 174.770081 
C 73.37692 174.770081 74.7567 174.432285 75.773875 173.831089 
C 76.791051 173.229893 77.362574 172.414381 77.362574 171.564162 
C 77.362574 170.713942 76.791051 169.898431 75.773875 169.297235 
C 74.7567 168.696038 73.37692 168.358243 71.938416 168.358243 
C 70.499913 168.358243 69.120133 168.696038 68.102957 169.297235 
C 67.085782 169.898431 66.514258 170.713942 66.514258 171.564162 
C 66.514258 172.414381 67.085782 173.229893 68.102957 173.831089 
C 69.120133 174.432285 70.499913 174.770081 71.938416 174.770081 
z
" style="fill:#008000;opacity:0.2;stroke:#008000;stroke-linejoin:miter;stroke-width:2;"/>
   </g>
   <g id="patch_24">
    <path clip-path="url(#pfe209a496f)" d="M 241.714564 52.945159 
C 247.468578 52.945159 252.987697 51.593975 257.0564 49.189191 
C 261.125102 46.784407 263.411196 43.522361 263.411196 40.121483 
C 263.411196 36.720604 261.125102 33.458559 257.0564 31.053775 
C 252.987697 28.64899 247.468578 27.297807 241.714564 27.297807 
C 235.96055 27.297807 230.44143 28.64899 226.372728 31.053775 
C 222.304026 33.458559 220.017932 36.720604 220.017932 40.121483 
C 220.017932 43.522361 222.304026 46.784407 226.372728 49.189191 
C 230.44143 51.593975 235.96055 52.945159 241.714564 52.945159 
z
" style="fill:none;opacity:0.2;stroke:#ff0000;stroke-linejoin:miter;stroke-width:2;"/>
   </g>
   <g id="patch_25">
    <path clip-path="url(#pfe209a496f)" d="M 242.799395 59.356997 
C 248.55341 59.356997 254.072529 58.005813 258.141231 55.601029 
C 262.209934 53.196245 264.496028 49.934199 264.496028 46.533321 
C 264.496028 43.132442 262.209934 39.870397 258.141231 37.465613 
C 254.072529 35.060828 248.55341 33.709645 242.799395 33.709645 
C 237.045381 33.709645 231.526262 35.060828 227.45756 37.465613 
C 223.388857 39.870397 221.102763 43.132442 221.102763 46.533321 
C 221.102763 49.934199 223.388857 53.196245 227.45756 55.601029 
C 231.526262 58.005813 237.045381 59.356997 242.799395 59.356997 
z
" style="fill:none;opacity:0.2;stroke:#0000ff;stroke-linejoin:miter;stroke-width:2;"/>
   </g>
   <g id="patch_26">
    <path clip-path="url(#pfe209a496f)" d="M 241.714564 46.533321 
C 244.591571 46.533321 247.35113 45.857729 249.385482 44.655337 
C 251.419833 43.452945 252.56288 41.821922 252.56288 40.121483 
C 252.56288 38.421043 251.419833 36.790021 249.385482 35.587629 
C 247.35113 34.385237 244.591571 33.709645 241.714564 33.709645 
C 238.837557 33.709645 236.077997 34.385237 234.043646 35.587629 
C 232.009295 36.790021 230.866248 38.421043 230.866248 40.121483 
C 230.866248 41.821922 232.009295 43.452945 234.043646 44.655337 
C 236.077997 45.857729 238.837557 46.533321 241.714564 46.533321 
z
" style="fill:none;opacity:0.2;stroke:#008000;stroke-linejoin:miter;stroke-width:2;"/>
   </g>
   <g id="patch_27">
    <path clip-path="url(#pfe209a496f)" d="M 242.799395 52.945159 
C 245.676402 52.945159 248.435962 52.269567 250.470313 51.067175 
C 252.504665 49.864783 253.647712 48.23376 253.647712 46.533321 
C 253.647712 44.832881 252.504665 43.201859 250.470313 41.999467 
C 248.435962 40.797074 245.676402 40.121483 242.799395 40.121483 
C 239.922388 40.121483 237.162829 40.797074 235.128478 41.999467 
C 233.094126 43.201859 231.951079 44.832881 231.951079 46.533321 
C 231.951079 48.23376 233.094126 49.864783 235.128478 51.067175 
C 237.162829 52.269567 239.922388 52.945159 242.799395 52.945159 
z
" style="fill:none;opacity:0.2;stroke:#008000;stroke-linejoin:miter;stroke-width:2;"/>
   </g>
   <g id="patch_28">
    <path d="M 242.25698 43.327402 
Q 327.416261 107.445782 412.575543 171.564162 
" style="fill:none;opacity:0.5;stroke:#008000;stroke-linecap:round;stroke-width:2;"/>
   </g>
   <g id="patch_29">
    <path d="M 241.950484 41.515879 
Q 242.090388 42.342771 242.230292 43.169664 
" style="fill:none;opacity:0.5;stroke:#800080;stroke-linecap:round;stroke-width:2;"/>
    <path d="M 240.721735 43.245092 
L 241.950484 41.515879 
L 243.679697 42.744628 
" style="fill:none;opacity:0.5;stroke:#800080;stroke-linecap:round;stroke-width:2;"/>
    <path d="M 243.459041 41.440451 
L 242.230292 43.169664 
L 240.501079 41.940914 
" style="fill:none;opacity:0.5;stroke:#800080;stroke-linecap:round;stroke-width:2;"/>
   </g>
   <g id="patch_30">
    <path d="M 412.575543 171.564162 
Q 327.416261 235.682541 242.25698 299.800921 
" style="fill:none;opacity:0.5;stroke:#008000;stroke-linecap:round;stroke-width:2;"/>
   </g>
   <g id="patch_31">
    <path d="M 420.460828 168.822659 
Q 413.518811 171.236212 406.576795 173.649766 
" style="fill:none;opacity:0.5;stroke:#800080;stroke-linecap:round;stroke-width:2;"/>
    <path d="M 418.551428 167.898434 
L 420.460828 168.822659 
L 419.536603 170.732059 
" style="fill:none;opacity:0.5;stroke:#800080;stroke-linecap:round;stroke-width:2;"/>
    <path d="M 408.486195 174.573991 
L 406.576795 173.649766 
L 407.501019 171.740366 
" style="fill:none;opacity:0.5;stroke:#800080;stroke-linecap:round;stroke-width:2;"/>
   </g>
   <g id="patch_32">
    <path d="M 242.25698 299.800921 
Q 157.097698 235.682541 71.938416 171.564162 
" style="fill:none;opacity:0.5;stroke:#008000;stroke-linecap:round;stroke-width:2;"/>
   </g>
   <g id="patch_33">
    <path d="M 241.950484 297.989399 
Q 242.090388 298.816291 242.230292 299.643183 
" style="fill:none;opacity:0.5;stroke:#800080;stroke-linecap:round;stroke-width:2;"/>
    <path d="M 240.721735 299.718611 
L 241.950484 297.989399 
L 243.679697 299.218148 
" style="fill:none;opacity:0.5;stroke:#800080;stroke-linecap:round;stroke-width:2;"/>
    <path d="M 243.459041 297.913971 
L 242.230292 299.643183 
L 240.501079 298.414434 
" style="fill:none;opacity:0.5;stroke:#800080;stroke-linecap:round;stroke-width:2;"/>
   </g>
   <g id="patch_34">
    <path d="M 71.938416 171.564162 
Q 157.097698 107.445782 242.25698 43.327402 
" style="fill:none;opacity:0.5;stroke:#008000;stroke-linecap:round;stroke-width:2;"/>
   </g>
   <g id="patch_35">
    <path d="M 64.053131 168.822659 
Q 70.995148 171.236212 77.937165 173.649766 
" style="fill:none;opacity:0.5;stroke:#800080;stroke-linecap:round;stroke-width:2;"/>
    <path d="M 64.977356 170.732059 
L 64.053131 168.822659 
L 65.962531 167.898434 
" style="fill:none;opacity:0.5;stroke:#800080;stroke-linecap:round;stroke-width:2;"/>
    <path d="M 77.01294 171.740366 
L 77.937165 173.649766 
L 76.027764 174.573991 
" style="fill:none;opacity:0.5;stroke:#800080;stroke-linecap:round;stroke-width:2;"/>
   </g>
   <g id="patch_36">
    <path clip-path="url(#pfe209a496f)" d="M 241.714564 63.2041 
C 242.289965 63.2041 242.841877 63.068981 243.248747 62.828503 
C 243.655618 62.588024 243.884227 62.26182 243.884227 61.921732 
C 243.884227 61.581644 243.655618 61.25544 243.248747 61.014961 
C 242.841877 60.774483 242.289965 60.639364 241.714564 60.639364 
C 241.139162 60.639364 240.58725 60.774483 240.18038 61.014961 
C 239.77351 61.25544 239.544901 61.581644 239.544901 61.921732 
C 239.544901 62.26182 239.77351 62.588024 240.18038 62.828503 
C 240.58725 63.068981 241.139162 63.2041 241.714564 63.2041 
z
" style="fill:#ff0000;opacity:0.2;stroke:#ff0000;stroke-linejoin:miter;stroke-width:2;"/>
   </g>
   <g id="patch_37">
    <path clip-path="url(#pfe209a496f)" d="M 299.210639 169.64061 
C 299.786041 169.64061 300.337953 169.505492 300.744823 169.265013 
C 301.151693 169.024535 301.380303 168.69833 301.380303 168.358243 
C 301.380303 168.018155 301.151693 167.69195 300.744823 167.451472 
C 300.337953 167.210993 299.786041 167.075875 299.210639 167.075875 
C 298.635238 167.075875 298.083326 167.210993 297.676456 167.451472 
C 297.269585 167.69195 297.040976 168.018155 297.040976 168.358243 
C 297.040976 168.69833 297.269585 169.024535 297.676456 169.265013 
C 298.083326 169.505492 298.635238 169.64061 299.210639 169.64061 
z
" style="fill:#ff0000;opacity:0.2;stroke:#ff0000;stroke-linejoin:miter;stroke-width:2;"/>
   </g>
   <g id="patch_38">
    <path clip-path="url(#pfe209a496f)" d="M 241.714564 276.077121 
C 242.289965 276.077121 242.841877 275.942002 243.248747 275.701524 
C 243.655618 275.461046 243.884227 275.134841 243.884227 274.794753 
C 243.884227 274.454665 243.655618 274.128461 243.248747 273.887982 
C 242.841877 273.647504 242.289965 273.512386 241.714564 273.512386 
C 241.139162 273.512386 240.58725 273.647504 240.18038 273.887982 
C 239.77351 274.128461 239.544901 274.454665 239.544901 274.794753 
C 239.544901 275.134841 239.77351 275.461046 240.18038 275.701524 
C 240.58725 275.942002 241.139162 276.077121 241.714564 276.077121 
z
" style="fill:#ff0000;opacity:0.2;stroke:#ff0000;stroke-linejoin:miter;stroke-width:2;"/>
   </g>
   <g id="patch_39">
    <path clip-path="url(#pfe209a496f)" d="M 185.30332 169.64061 
C 185.878721 169.64061 186.430633 169.505492 186.837503 169.265013 
C 187.244374 169.024535 187.472983 168.69833 187.472983 168.358243 
C 187.472983 168.018155 187.244374 167.69195 186.837503 167.451472 
C 186.430633 167.210993 185.878721 167.075875 185.30332 167.075875 
C 184.727918 167.075875 184.176007 167.210993 183.769136 167.451472 
C 183.362266 167.69195 183.133657 168.018155 183.133657 168.358243 
C 183.133657 168.69833 183.362266 169.024535 183.769136 169.265013 
C 184.176007 169.505492 184.727918 169.64061 185.30332 169.64061 
z
" style="fill:#ff0000;opacity:0.2;stroke:#ff0000;stroke-linejoin:miter;stroke-width:2;"/>
   </g>
   <g id="patch_40">
    <path clip-path="url(#pfe209a496f)" d="M 242.799395 64.486467 
C 243.374797 64.486467 243.926709 64.351349 244.333579 64.11087 
C 244.740449 63.870392 244.969059 63.544187 244.969059 63.2041 
C 244.969059 62.864012 244.740449 62.537807 244.333579 62.297329 
C 243.926709 62.05685 243.374797 61.921732 242.799395 61.921732 
C 242.223994 61.921732 241.672082 62.05685 241.265212 62.297329 
C 240.858342 62.537807 240.629732 62.864012 240.629732 63.2041 
C 240.629732 63.544187 240.858342 63.870392 241.265212 64.11087 
C 241.672082 64.351349 242.223994 64.486467 242.799395 64.486467 
z
" style="fill:#0000ff;opacity:0.2;stroke:#0000ff;stroke-linejoin:miter;stroke-width:2;"/>
   </g>
   <g id="patch_41">
    <path clip-path="url(#pfe209a496f)" d="M 321.992103 177.334816 
C 322.567505 177.334816 323.119416 177.199697 323.526287 176.959219 
C 323.933157 176.718741 324.161766 176.392536 324.161766 176.052448 
C 324.161766 175.71236 323.933157 175.386156 323.526287 175.145677 
C 323.119416 174.905199 322.567505 174.770081 321.992103 174.770081 
C 321.416702 174.770081 320.86479 174.905199 320.45792 175.145677 
C 320.051049 175.386156 319.82244 175.71236 319.82244 176.052448 
C 319.82244 176.392536 320.051049 176.718741 320.45792 176.959219 
C 320.86479 177.199697 321.416702 177.334816 321.992103 177.334816 
z
" style="fill:#0000ff;opacity:0.2;stroke:#0000ff;stroke-linejoin:miter;stroke-width:2;"/>
   </g>
   <g id="patch_42">
    <path clip-path="url(#pfe209a496f)" d="M 242.799395 287.618429 
C 243.374797 287.618429 243.926709 287.483311 244.333579 287.242832 
C 244.740449 287.002354 244.969059 286.676149 244.969059 286.336062 
C 244.969059 285.995974 244.740449 285.669769 244.333579 285.429291 
C 243.926709 285.188812 243.374797 285.053694 242.799395 285.053694 
C 242.223994 285.053694 241.672082 285.188812 241.265212 285.429291 
C 240.858342 285.669769 240.629732 285.995974 240.629732 286.336062 
C 240.629732 286.676149 240.858342 287.002354 241.265212 287.242832 
C 241.672082 287.483311 242.223994 287.618429 242.799395 287.618429 
z
" style="fill:#0000ff;opacity:0.2;stroke:#0000ff;stroke-linejoin:miter;stroke-width:2;"/>
   </g>
   <g id="patch_43">
    <path clip-path="url(#pfe209a496f)" d="M 162.521856 177.334816 
C 163.097257 177.334816 163.649169 177.199697 164.05604 176.959219 
C 164.46291 176.718741 164.691519 176.392536 164.691519 176.052448 
C 164.691519 175.71236 164.46291 175.386156 164.05604 175.145677 
C 163.649169 174.905199 163.097257 174.770081 162.521856 174.770081 
C 161.946455 174.770081 161.394543 174.905199 160.987672 175.145677 
C 160.580802 175.386156 160.352193 175.71236 160.352193 176.052448 
C 160.352193 176.392536 160.580802 176.718741 160.987672 176.959219 
C 161.394543 177.199697 161.946455 177.334816 162.521856 177.334816 
z
" style="fill:#0000ff;opacity:0.2;stroke:#0000ff;stroke-linejoin:miter;stroke-width:2;"/>
   </g>
   <g id="patch_44">
    <path clip-path="url(#pfe209a496f)" d="M 241.714564 61.921732 
C 290.531986 61.921732 299.210639 133.093134 299.210639 168.358243 
C 299.210639 202.340984 290.531986 274.794753 241.714564 274.794753 
C 193.981973 274.794753 185.30332 202.340984 185.30332 168.358243 
C 185.30332 133.093134 193.981973 61.921732 241.714564 61.921732 
" style="fill:none;stroke:#ff0000;stroke-linejoin:miter;stroke-width:0.5;"/>
   </g>
   <g id="patch_45">
    <path clip-path="url(#pfe209a496f)" d="M 242.799395 63.2041 
C 312.228619 63.2041 321.992103 143.352074 321.992103 176.052448 
C 321.992103 208.752822 316.567945 286.336062 242.799395 286.336062 
C 167.946014 286.336062 162.521856 208.752822 162.521856 176.052448 
C 162.521856 143.352074 163.606688 63.2041 242.799395 63.2041 
" style="fill:none;stroke:#0000ff;stroke-linejoin:miter;stroke-width:0.5;"/>
   </g>
   <g id="[&quot;g_s&quot;:1,&quot;g_t&quot;:1,&quot;coords&quot;:[[250.0, -21.0],[251.0, -23.0]],&quot;certainty&quot;:10]">
    <path clip-path="url(#pfe209a496f)" d="M 241.714564 65.448243 
C 243.296918 65.448243 244.814675 65.076667 245.933569 64.415352 
C 247.052462 63.754036 247.681138 62.856974 247.681138 61.921732 
C 247.681138 60.98649 247.052462 60.089428 245.933569 59.428112 
C 244.814675 58.766797 243.296918 58.395221 241.714564 58.395221 
C 240.13221 58.395221 238.614452 58.766797 237.495559 59.428112 
C 236.376666 60.089428 235.74799 60.98649 235.74799 61.921732 
C 235.74799 62.856974 236.376666 63.754036 237.495559 64.415352 
C 238.614452 65.076667 240.13221 65.448243 241.714564 65.448243 
z
" style="fill:#0000ff;opacity:0.2;stroke:#0000ff;stroke-linejoin:miter;stroke-width:2;"/>
   </g>
   <g id="[&quot;g_s&quot;:1,&quot;g_t&quot;:1,&quot;coords&quot;:[[251.0, -23.0],[250.0, -21.0]],&quot;certainty&quot;:10]">
    <path clip-path="url(#pfe209a496f)" d="M 242.799395 66.73061 
C 244.381749 66.73061 245.899507 66.359035 247.0184 65.697719 
C 248.137293 65.036404 248.765969 64.139341 248.765969 63.2041 
C 248.765969 62.268858 248.137293 61.371795 247.0184 60.71048 
C 245.899507 60.049164 244.381749 59.677589 242.799395 59.677589 
C 241.217042 59.677589 239.699284 60.049164 238.580391 60.71048 
C 237.461497 61.371795 236.832822 62.268858 236.832822 63.2041 
C 236.832822 64.139341 237.461497 65.036404 238.580391 65.697719 
C 239.699284 66.359035 241.217042 66.73061 242.799395 66.73061 
z
" style="fill:#ff0000;opacity:0.2;stroke:#ff0000;stroke-linejoin:miter;stroke-width:2;"/>
   </g>
   <g id="patch_46">
    <path d="M 241.714564 61.921732 
Q 242.25698 62.562916 241.5435 61.71952 
" style="fill:none;opacity:0.5;stroke:#0000ff;stroke-linecap:round;stroke-width:2.75;"/>
    <path d="M 241.719905 59.605547 
L 241.5435 61.71952 
L 239.429527 61.543115 
" style="fill:none;opacity:0.5;stroke:#0000ff;stroke-linecap:round;stroke-width:2.75;"/>
   </g>
   <g id="[&quot;g_s&quot;:2,&quot;g_t&quot;:2,&quot;coords&quot;:[[303.0, -187.0],[324.0, -199.0]],&quot;certainty&quot;:12]">
    <path clip-path="url(#pfe209a496f)" d="M 299.210639 172.525937 
C 301.080694 172.525937 302.874408 172.086803 304.196736 171.305248 
C 305.519064 170.523693 306.262045 169.463528 306.262045 168.358243 
C 306.262045 167.252957 305.519064 166.192792 304.196736 165.411237 
C 302.874408 164.629683 301.080694 164.190548 299.210639 164.190548 
C 297.340585 164.190548 295.546871 164.629683 294.224543 165.411237 
C 292.902214 166.192792 292.159234 167.252957 292.159234 168.358243 
C 292.159234 169.463528 292.902214 170.523693 294.224543 171.305248 
C 295.546871 172.086803 297.340585 172.525937 299.210639 172.525937 
z
" style="fill:#0000ff;opacity:0.2;stroke:#0000ff;stroke-linejoin:miter;stroke-width:2;"/>
   </g>
   <g id="[&quot;g_s&quot;:2,&quot;g_t&quot;:2,&quot;coords&quot;:[[324.0, -199.0],[303.0, -187.0]],&quot;certainty&quot;:12]">
    <path clip-path="url(#pfe209a496f)" d="M 321.992103 180.220143 
C 323.862158 180.220143 325.655872 179.781008 326.9782 178.999453 
C 328.300528 178.217898 329.043509 177.157734 329.043509 176.052448 
C 329.043509 174.947163 328.300528 173.886998 326.9782 173.105443 
C 325.655872 172.323888 323.862158 171.884753 321.992103 171.884753 
C 320.122049 171.884753 318.328335 172.323888 317.006007 173.105443 
C 315.683678 173.886998 314.940698 174.947163 314.940698 176.052448 
C 314.940698 177.157734 315.683678 178.217898 317.006007 178.999453 
C 318.328335 179.781008 320.122049 180.220143 321.992103 180.220143 
z
" style="fill:#ff0000;opacity:0.2;stroke:#ff0000;stroke-linejoin:miter;stroke-width:2;"/>
   </g>
   <g id="patch_47">
    <path d="M 299.210639 168.358243 
Q 309.654461 171.885536 317.921012 174.677479 
" style="fill:none;opacity:0.5;stroke:#0000ff;stroke-linecap:round;stroke-width:3.25;"/>
    <path d="M 316.97985 172.77637 
L 317.921012 174.677479 
L 316.019903 175.61864 
" style="fill:none;opacity:0.5;stroke:#0000ff;stroke-linecap:round;stroke-width:3.25;"/>
   </g>
   <g id="[&quot;g_s&quot;:3,&quot;g_t&quot;:3,&quot;coords&quot;:[[250.0, -353.0],[251.0, -371.0]],&quot;certainty&quot;:11]">
    <path clip-path="url(#pfe209a496f)" d="M 241.714564 278.641856 
C 243.440768 278.641856 245.096504 278.236501 246.317115 277.515066 
C 247.537725 276.79363 248.223553 275.815017 248.223553 274.794753 
C 248.223553 273.77449 247.537725 272.795876 246.317115 272.074441 
C 245.096504 271.353005 243.440768 270.94765 241.714564 270.94765 
C 239.98836 270.94765 238.332624 271.353005 237.112013 272.074441 
C 235.891402 272.795876 235.205574 273.77449 235.205574 274.794753 
C 235.205574 275.815017 235.891402 276.79363 237.112013 277.515066 
C 238.332624 278.236501 239.98836 278.641856 241.714564 278.641856 
z
" style="fill:#0000ff;opacity:0.2;stroke:#0000ff;stroke-linejoin:miter;stroke-width:2;"/>
   </g>
   <g id="[&quot;g_s&quot;:3,&quot;g_t&quot;:3,&quot;coords&quot;:[[251.0, -371.0],[250.0, -353.0]],&quot;certainty&quot;:11]">
    <path clip-path="url(#pfe209a496f)" d="M 242.799395 290.183164 
C 244.5256 290.183164 246.181335 289.777809 247.401946 289.056374 
C 248.622557 288.334939 249.308385 287.356325 249.308385 286.336062 
C 249.308385 285.315798 248.622557 284.337184 247.401946 283.615749 
C 246.181335 282.894314 244.5256 282.488959 242.799395 282.488959 
C 241.073191 282.488959 239.417455 282.894314 238.196845 283.615749 
C 236.976234 284.337184 236.290406 285.315798 236.290406 286.336062 
C 236.290406 287.356325 236.976234 288.334939 238.196845 289.056374 
C 239.417455 289.777809 241.073191 290.183164 242.799395 290.183164 
z
" style="fill:#ff0000;opacity:0.2;stroke:#ff0000;stroke-linejoin:miter;stroke-width:2;"/>
   </g>
   <g id="patch_48">
    <path d="M 241.714564 274.794753 
Q 242.163355 279.56935 242.413626 282.231935 
" style="fill:none;opacity:0.5;stroke:#0000ff;stroke-linecap:round;stroke-width:3;"/>
    <path d="M 243.766668 280.598143 
L 242.413626 282.231935 
L 240.779834 280.878893 
" style="fill:none;opacity:0.5;stroke:#0000ff;stroke-linecap:round;stroke-width:3;"/>
   </g>
   <g id="[&quot;g_s&quot;:4,&quot;g_t&quot;:4,&quot;coords&quot;:[[198.0, -187.0],[177.0, -199.0]],&quot;certainty&quot;:11]">
    <path clip-path="url(#pfe209a496f)" d="M 185.30332 172.205345 
C 187.029524 172.205345 188.68526 171.79999 189.905871 171.078555 
C 191.126481 170.35712 191.81231 169.378506 191.81231 168.358243 
C 191.81231 167.337979 191.126481 166.359365 189.905871 165.63793 
C 188.68526 164.916495 187.029524 164.51114 185.30332 164.51114 
C 183.577116 164.51114 181.92138 164.916495 180.700769 165.63793 
C 179.480158 166.359365 178.79433 167.337979 178.79433 168.358243 
C 178.79433 169.378506 179.480158 170.35712 180.700769 171.078555 
C 181.92138 171.79999 183.577116 172.205345 185.30332 172.205345 
z
" style="fill:#0000ff;opacity:0.2;stroke:#0000ff;stroke-linejoin:miter;stroke-width:2;"/>
   </g>
   <g id="[&quot;g_s&quot;:4,&quot;g_t&quot;:4,&quot;coords&quot;:[[177.0, -199.0],[198.0, -187.0]],&quot;certainty&quot;:11]">
    <path clip-path="url(#pfe209a496f)" d="M 162.521856 179.899551 
C 164.24806 179.899551 165.903796 179.494196 167.124407 178.772761 
C 168.345018 178.051325 169.030846 177.072712 169.030846 176.052448 
C 169.030846 175.032185 168.345018 174.053571 167.124407 173.332136 
C 165.903796 172.6107 164.24806 172.205345 162.521856 172.205345 
C 160.795652 172.205345 159.139916 172.6107 157.919305 173.332136 
C 156.698695 174.053571 156.012866 175.032185 156.012866 176.052448 
C 156.012866 177.072712 156.698695 178.051325 157.919305 178.772761 
C 159.139916 179.494196 160.795652 179.899551 162.521856 179.899551 
z
" style="fill:#ff0000;opacity:0.2;stroke:#ff0000;stroke-linejoin:miter;stroke-width:2;"/>
   </g>
   <g id="patch_49">
    <path d="M 185.30332 168.358243 
Q 174.859498 171.885536 166.425465 174.734044 
" style="fill:none;opacity:0.5;stroke:#0000ff;stroke-linecap:round;stroke-width:3;"/>
    <path d="M 168.326574 175.675206 
L 166.425465 174.734044 
L 167.366626 172.832935 
" style="fill:none;opacity:0.5;stroke:#0000ff;stroke-linecap:round;stroke-width:3;"/>
   </g>
   <g id="[&quot;g_s&quot;:1,&quot;g_t&quot;:1,&quot;coords&quot;:[[251.0, -23.0],[250.0, -21.0]],&quot;certainty&quot;:10]">
    <path clip-path="url(#pfe209a496f)" d="M 242.799395 66.73061 
C 244.381749 66.73061 245.899507 66.359035 247.0184 65.697719 
C 248.137293 65.036404 248.765969 64.139341 248.765969 63.2041 
C 248.765969 62.268858 248.137293 61.371795 247.0184 60.71048 
C 245.899507 60.049164 244.381749 59.677589 242.799395 59.677589 
C 241.217042 59.677589 239.699284 60.049164 238.580391 60.71048 
C 237.461497 61.371795 236.832822 62.268858 236.832822 63.2041 
C 236.832822 64.139341 237.461497 65.036404 238.580391 65.697719 
C 239.699284 66.359035 241.217042 66.73061 242.799395 66.73061 
z
" style="fill:#0000ff;opacity:0.2;stroke:#0000ff;stroke-linejoin:miter;stroke-width:2;"/>
   </g>
   <g id="[&quot;g_s&quot;:1,&quot;g_t&quot;:1,&quot;coords&quot;:[[250.0, -21.0],[251.0, -23.0]],&quot;certainty&quot;:10]">
    <path clip-path="url(#pfe209a496f)" d="M 241.714564 65.448243 
C 243.296918 65.448243 244.814675 65.076667 245.933569 64.415352 
C 247.052462 63.754036 247.681138 62.856974 247.681138 61.921732 
C 247.681138 60.98649 247.052462 60.089428 245.933569 59.428112 
C 244.814675 58.766797 243.296918 58.395221 241.714564 58.395221 
C 240.13221 58.395221 238.614452 58.766797 237.495559 59.428112 
C 236.376666 60.089428 235.74799 60.98649 235.74799 61.921732 
C 235.74799 62.856974 236.376666 63.754036 237.495559 64.415352 
C 238.614452 65.076667 240.13221 65.448243 241.714564 65.448243 
z
" style="fill:#ff0000;opacity:0.2;stroke:#ff0000;stroke-linejoin:miter;stroke-width:2;"/>
   </g>
   <g id="patch_50">
    <path d="M 242.799395 63.2041 
Q 242.25698 62.562916 242.970459 63.406312 
" style="fill:none;opacity:0.5;stroke:#ff0000;stroke-linecap:round;stroke-width:2.75;"/>
    <path d="M 242.794054 65.520285 
L 242.970459 63.406312 
L 245.084432 63.582717 
" style="fill:none;opacity:0.5;stroke:#ff0000;stroke-linecap:round;stroke-width:2.75;"/>
   </g>
   <g id="[&quot;g_s&quot;:2,&quot;g_t&quot;:2,&quot;coords&quot;:[[324.0, -199.0],[303.0, -187.0]],&quot;certainty&quot;:12]">
    <path clip-path="url(#pfe209a496f)" d="M 321.992103 180.220143 
C 323.862158 180.220143 325.655872 179.781008 326.9782 178.999453 
C 328.300528 178.217898 329.043509 177.157734 329.043509 176.052448 
C 329.043509 174.947163 328.300528 173.886998 326.9782 173.105443 
C 325.655872 172.323888 323.862158 171.884753 321.992103 171.884753 
C 320.122049 171.884753 318.328335 172.323888 317.006007 173.105443 
C 315.683678 173.886998 314.940698 174.947163 314.940698 176.052448 
C 314.940698 177.157734 315.683678 178.217898 317.006007 178.999453 
C 318.328335 179.781008 320.122049 180.220143 321.992103 180.220143 
z
" style="fill:#0000ff;opacity:0.2;stroke:#0000ff;stroke-linejoin:miter;stroke-width:2;"/>
   </g>
   <g id="[&quot;g_s&quot;:2,&quot;g_t&quot;:2,&quot;coords&quot;:[[303.0, -187.0],[324.0, -199.0]],&quot;certainty&quot;:12]">
    <path clip-path="url(#pfe209a496f)" d="M 299.210639 172.525937 
C 301.080694 172.525937 302.874408 172.086803 304.196736 171.305248 
C 305.519064 170.523693 306.262045 169.463528 306.262045 168.358243 
C 306.262045 167.252957 305.519064 166.192792 304.196736 165.411237 
C 302.874408 164.629683 301.080694 164.190548 299.210639 164.190548 
C 297.340585 164.190548 295.546871 164.629683 294.224543 165.411237 
C 292.902214 166.192792 292.159234 167.252957 292.159234 168.358243 
C 292.159234 169.463528 292.902214 170.523693 294.224543 171.305248 
C 295.546871 172.086803 297.340585 172.525937 299.210639 172.525937 
z
" style="fill:#ff0000;opacity:0.2;stroke:#ff0000;stroke-linejoin:miter;stroke-width:2;"/>
   </g>
   <g id="patch_51">
    <path d="M 321.992103 176.052448 
Q 311.548281 172.525155 303.281731 169.733212 
" style="fill:none;opacity:0.5;stroke:#ff0000;stroke-linecap:round;stroke-width:3.25;"/>
    <path d="M 304.222892 171.634321 
L 303.281731 169.733212 
L 305.18284 168.792051 
" style="fill:none;opacity:0.5;stroke:#ff0000;stroke-linecap:round;stroke-width:3.25;"/>
   </g>
   <g id="[&quot;g_s&quot;:3,&quot;g_t&quot;:3,&quot;coords&quot;:[[251.0, -371.0],[250.0, -353.0]],&quot;certainty&quot;:11]">
    <path clip-path="url(#pfe209a496f)" d="M 242.799395 290.183164 
C 244.5256 290.183164 246.181335 289.777809 247.401946 289.056374 
C 248.622557 288.334939 249.308385 287.356325 249.308385 286.336062 
C 249.308385 285.315798 248.622557 284.337184 247.401946 283.615749 
C 246.181335 282.894314 244.5256 282.488959 242.799395 282.488959 
C 241.073191 282.488959 239.417455 282.894314 238.196845 283.615749 
C 236.976234 284.337184 236.290406 285.315798 236.290406 286.336062 
C 236.290406 287.356325 236.976234 288.334939 238.196845 289.056374 
C 239.417455 289.777809 241.073191 290.183164 242.799395 290.183164 
z
" style="fill:#0000ff;opacity:0.2;stroke:#0000ff;stroke-linejoin:miter;stroke-width:2;"/>
   </g>
   <g id="[&quot;g_s&quot;:3,&quot;g_t&quot;:3,&quot;coords&quot;:[[250.0, -353.0],[251.0, -371.0]],&quot;certainty&quot;:11]">
    <path clip-path="url(#pfe209a496f)" d="M 241.714564 278.641856 
C 243.440768 278.641856 245.096504 278.236501 246.317115 277.515066 
C 247.537725 276.79363 248.223553 275.815017 248.223553 274.794753 
C 248.223553 273.77449 247.537725 272.795876 246.317115 272.074441 
C 245.096504 271.353005 243.440768 270.94765 241.714564 270.94765 
C 239.98836 270.94765 238.332624 271.353005 237.112013 272.074441 
C 235.891402 272.795876 235.205574 273.77449 235.205574 274.794753 
C 235.205574 275.815017 235.891402 276.79363 237.112013 277.515066 
C 238.332624 278.236501 239.98836 278.641856 241.714564 278.641856 
z
" style="fill:#ff0000;opacity:0.2;stroke:#ff0000;stroke-linejoin:miter;stroke-width:2;"/>
   </g>
   <g id="patch_52">
    <path d="M 242.799395 286.336062 
Q 242.350605 281.561465 242.100333 278.89888 
" style="fill:none;opacity:0.5;stroke:#ff0000;stroke-linecap:round;stroke-width:3;"/>
    <path d="M 240.747291 280.532671 
L 242.100333 278.89888 
L 243.734125 280.251922 
" style="fill:none;opacity:0.5;stroke:#ff0000;stroke-linecap:round;stroke-width:3;"/>
   </g>
   <g id="[&quot;g_s&quot;:4,&quot;g_t&quot;:4,&quot;coords&quot;:[[177.0, -199.0],[198.0, -187.0]],&quot;certainty&quot;:11]">
    <path clip-path="url(#pfe209a496f)" d="M 162.521856 179.899551 
C 164.24806 179.899551 165.903796 179.494196 167.124407 178.772761 
C 168.345018 178.051325 169.030846 177.072712 169.030846 176.052448 
C 169.030846 175.032185 168.345018 174.053571 167.124407 173.332136 
C 165.903796 172.6107 164.24806 172.205345 162.521856 172.205345 
C 160.795652 172.205345 159.139916 172.6107 157.919305 173.332136 
C 156.698695 174.053571 156.012866 175.032185 156.012866 176.052448 
C 156.012866 177.072712 156.698695 178.051325 157.919305 178.772761 
C 159.139916 179.494196 160.795652 179.899551 162.521856 179.899551 
z
" style="fill:#0000ff;opacity:0.2;stroke:#0000ff;stroke-linejoin:miter;stroke-width:2;"/>
   </g>
   <g id="[&quot;g_s&quot;:4,&quot;g_t&quot;:4,&quot;coords&quot;:[[198.0, -187.0],[177.0, -199.0]],&quot;certainty&quot;:11]">
    <path clip-path="url(#pfe209a496f)" d="M 185.30332 172.205345 
C 187.029524 172.205345 188.68526 171.79999 189.905871 171.078555 
C 191.126481 170.35712 191.81231 169.378506 191.81231 168.358243 
C 191.81231 167.337979 191.126481 166.359365 189.905871 165.63793 
C 188.68526 164.916495 187.029524 164.51114 185.30332 164.51114 
C 183.577116 164.51114 181.92138 164.916495 180.700769 165.63793 
C 179.480158 166.359365 178.79433 167.337979 178.79433 168.358243 
C 178.79433 169.378506 179.480158 170.35712 180.700769 171.078555 
C 181.92138 171.79999 183.577116 172.205345 185.30332 172.205345 
z
" style="fill:#ff0000;opacity:0.2;stroke:#ff0000;stroke-linejoin:miter;stroke-width:2;"/>
   </g>
   <g id="patch_53">
    <path d="M 162.521856 176.052448 
Q 172.965678 172.525155 181.399711 169.676646 
" style="fill:none;opacity:0.5;stroke:#ff0000;stroke-linecap:round;stroke-width:3;"/>
    <path d="M 179.498602 168.735485 
L 181.399711 169.676646 
L 180.45855 171.577755 
" style="fill:none;opacity:0.5;stroke:#ff0000;stroke-linecap:round;stroke-width:3;"/>
   </g>
   <g id="patch_54">
    <path clip-path="url(#pfe209a496f)" d="M 242.25698 65.768835 
C 243.695483 65.768835 245.075263 65.431039 246.092439 64.829843 
C 247.109614 64.228647 247.681138 63.413135 247.681138 62.562916 
C 247.681138 61.712696 247.109614 60.897185 246.092439 60.295989 
C 245.075263 59.694793 243.695483 59.356997 242.25698 59.356997 
C 240.818476 59.356997 239.438696 59.694793 238.421521 60.295989 
C 237.404345 60.897185 236.832822 61.712696 236.832822 62.562916 
C 236.832822 63.413135 237.404345 64.228647 238.421521 64.829843 
C 239.438696 65.431039 240.818476 65.768835 242.25698 65.768835 
z
" style="fill:#008000;opacity:0.2;stroke:#008000;stroke-linejoin:miter;stroke-width:2;"/>
   </g>
   <g id="patch_55">
    <path clip-path="url(#pfe209a496f)" d="M 310.601371 175.411264 
C 312.039875 175.411264 313.419655 175.073469 314.43683 174.472272 
C 315.454006 173.871076 316.025529 173.055565 316.025529 172.205345 
C 316.025529 171.355126 315.454006 170.539614 314.43683 169.938418 
C 313.419655 169.337222 312.039875 168.999426 310.601371 168.999426 
C 309.162868 168.999426 307.783088 169.337222 306.765912 169.938418 
C 305.748737 170.539614 305.177213 171.355126 305.177213 172.205345 
C 305.177213 173.055565 305.748737 173.871076 306.765912 174.472272 
C 307.783088 175.073469 309.162868 175.411264 310.601371 175.411264 
z
" style="fill:#008000;opacity:0.2;stroke:#008000;stroke-linejoin:miter;stroke-width:2;"/>
   </g>
   <g id="patch_56">
    <path clip-path="url(#pfe209a496f)" d="M 242.25698 283.771326 
C 243.695483 283.771326 245.075263 283.433531 246.092439 282.832334 
C 247.109614 282.231138 247.681138 281.415627 247.681138 280.565407 
C 247.681138 279.715188 247.109614 278.899676 246.092439 278.29848 
C 245.075263 277.697284 243.695483 277.359488 242.25698 277.359488 
C 240.818476 277.359488 239.438696 277.697284 238.421521 278.29848 
C 237.404345 278.899676 236.832822 279.715188 236.832822 280.565407 
C 236.832822 281.415627 237.404345 282.231138 238.421521 282.832334 
C 239.438696 283.433531 240.818476 283.771326 242.25698 283.771326 
z
" style="fill:#008000;opacity:0.2;stroke:#008000;stroke-linejoin:miter;stroke-width:2;"/>
   </g>
   <g id="patch_57">
    <path clip-path="url(#pfe209a496f)" d="M 173.912588 175.411264 
C 175.351092 175.411264 176.730871 175.073469 177.748047 174.472272 
C 178.765223 173.871076 179.336746 173.055565 179.336746 172.205345 
C 179.336746 171.355126 178.765223 170.539614 177.748047 169.938418 
C 176.730871 169.337222 175.351092 168.999426 173.912588 168.999426 
C 172.474084 168.999426 171.094305 169.337222 170.077129 169.938418 
C 169.059953 170.539614 168.48843 171.355126 168.48843 172.205345 
C 168.48843 173.055565 169.059953 173.871076 170.077129 174.472272 
C 171.094305 175.073469 172.474084 175.411264 173.912588 175.411264 
z
" style="fill:#008000;opacity:0.2;stroke:#008000;stroke-linejoin:miter;stroke-width:2;"/>
   </g>
   <g id="patch_58">
    <path clip-path="url(#pfe209a496f)" d="M 241.714564 74.745408 
C 247.468578 74.745408 252.987697 73.394225 257.0564 70.98944 
C 261.125102 68.584656 263.411196 65.322611 263.411196 61.921732 
C 263.411196 58.520853 261.125102 55.258808 257.0564 52.854024 
C 252.987697 50.449239 247.468578 49.098056 241.714564 49.098056 
C 235.96055 49.098056 230.44143 50.449239 226.372728 52.854024 
C 222.304026 55.258808 220.017932 58.520853 220.017932 61.921732 
C 220.017932 65.322611 222.304026 68.584656 226.372728 70.98944 
C 230.44143 73.394225 235.96055 74.745408 241.714564 74.745408 
z
" style="fill:none;opacity:0.2;stroke:#ff0000;stroke-linejoin:miter;stroke-width:2;"/>
   </g>
   <g id="patch_59">
    <path clip-path="url(#pfe209a496f)" d="M 242.799395 76.027776 
C 248.55341 76.027776 254.072529 74.676592 258.141231 72.271808 
C 262.209934 69.867023 264.496028 66.604978 264.496028 63.2041 
C 264.496028 59.803221 262.209934 56.541176 258.141231 54.136391 
C 254.072529 51.731607 248.55341 50.380424 242.799395 50.380424 
C 237.045381 50.380424 231.526262 51.731607 227.45756 54.136391 
C 223.388857 56.541176 221.102763 59.803221 221.102763 63.2041 
C 221.102763 66.604978 223.388857 69.867023 227.45756 72.271808 
C 231.526262 74.676592 237.045381 76.027776 242.799395 76.027776 
z
" style="fill:none;opacity:0.2;stroke:#0000ff;stroke-linejoin:miter;stroke-width:2;"/>
   </g>
   <g id="patch_60">
    <path clip-path="url(#pfe209a496f)" d="M 241.714564 68.33357 
C 244.591571 68.33357 247.35113 67.657978 249.385482 66.455586 
C 251.419833 65.253194 252.56288 63.622171 252.56288 61.921732 
C 252.56288 60.221293 251.419833 58.59027 249.385482 57.387878 
C 247.35113 56.185486 244.591571 55.509894 241.714564 55.509894 
C 238.837557 55.509894 236.077997 56.185486 234.043646 57.387878 
C 232.009295 58.59027 230.866248 60.221293 230.866248 61.921732 
C 230.866248 63.622171 232.009295 65.253194 234.043646 66.455586 
C 236.077997 67.657978 238.837557 68.33357 241.714564 68.33357 
z
" style="fill:none;opacity:0.2;stroke:#008000;stroke-linejoin:miter;stroke-width:2;"/>
   </g>
   <g id="patch_61">
    <path clip-path="url(#pfe209a496f)" d="M 242.799395 69.615938 
C 245.676402 69.615938 248.435962 68.940346 250.470313 67.737954 
C 252.504665 66.535562 253.647712 64.904539 253.647712 63.2041 
C 253.647712 61.50366 252.504665 59.872638 250.470313 58.670245 
C 248.435962 57.467853 245.676402 56.792262 242.799395 56.792262 
C 239.922388 56.792262 237.162829 57.467853 235.128478 58.670245 
C 233.094126 59.872638 231.951079 61.50366 231.951079 63.2041 
C 231.951079 64.904539 233.094126 66.535562 235.128478 67.737954 
C 237.162829 68.940346 239.922388 69.615938 242.799395 69.615938 
z
" style="fill:none;opacity:0.2;stroke:#008000;stroke-linejoin:miter;stroke-width:2;"/>
   </g>
   <g id="patch_62">
    <path d="M 242.25698 62.562916 
Q 276.429175 117.384131 310.601371 172.205345 
" style="fill:none;opacity:0.5;stroke:#008000;stroke-linecap:round;stroke-width:2;"/>
   </g>
   <g id="patch_63">
    <path d="M 242.627942 63.001426 
Q 242.25698 62.562916 241.886017 62.124405 
" style="fill:none;opacity:0.5;stroke:#800080;stroke-linecap:round;stroke-width:2;"/>
    <path d="M 242.451537 65.115399 
L 242.627942 63.001426 
L 244.741915 63.177831 
" style="fill:none;opacity:0.5;stroke:#800080;stroke-linecap:round;stroke-width:2;"/>
    <path d="M 242.062422 60.010432 
L 241.886017 62.124405 
L 239.772044 61.948 
" style="fill:none;opacity:0.5;stroke:#800080;stroke-linecap:round;stroke-width:2;"/>
   </g>
   <g id="patch_64">
    <path d="M 310.601371 172.205345 
Q 276.429175 226.385376 242.25698 280.565407 
" style="fill:none;opacity:0.5;stroke:#008000;stroke-linecap:round;stroke-width:2;"/>
   </g>
   <g id="patch_65">
    <path d="M 300.550498 168.810766 
Q 309.654461 171.885536 318.758424 174.960306 
" style="fill:none;opacity:0.5;stroke:#800080;stroke-linecap:round;stroke-width:2;"/>
    <path d="M 301.49166 170.711875 
L 300.550498 168.810766 
L 302.451607 167.869605 
" style="fill:none;opacity:0.5;stroke:#800080;stroke-linecap:round;stroke-width:2;"/>
    <path d="M 317.817262 173.059197 
L 318.758424 174.960306 
L 316.857315 175.901467 
" style="fill:none;opacity:0.5;stroke:#800080;stroke-linecap:round;stroke-width:2;"/>
   </g>
   <g id="patch_66">
    <path d="M 242.25698 280.565407 
Q 208.084784 226.385376 173.912588 172.205345 
" style="fill:none;opacity:0.5;stroke:#008000;stroke-linecap:round;stroke-width:2;"/>
   </g>
   <g id="patch_67">
    <path d="M 241.84691 276.20276 
Q 242.163355 279.56935 242.479799 282.935939 
" style="fill:none;opacity:0.5;stroke:#800080;stroke-linecap:round;stroke-width:2;"/>
    <path d="M 240.493868 277.836552 
L 241.84691 276.20276 
L 243.480702 277.555803 
" style="fill:none;opacity:0.5;stroke:#800080;stroke-linecap:round;stroke-width:2;"/>
    <path d="M 243.832842 281.302147 
L 242.479799 282.935939 
L 240.846007 281.582896 
" style="fill:none;opacity:0.5;stroke:#800080;stroke-linecap:round;stroke-width:2;"/>
   </g>
   <g id="patch_68">
    <path d="M 173.912588 172.205345 
Q 208.084784 117.384131 242.25698 62.562916 
" style="fill:none;opacity:0.5;stroke:#008000;stroke-linecap:round;stroke-width:2;"/>
   </g>
   <g id="patch_69">
    <path d="M 183.963461 168.810766 
Q 174.859498 171.885536 165.755536 174.960306 
" style="fill:none;opacity:0.5;stroke:#800080;stroke-linecap:round;stroke-width:2;"/>
    <path d="M 182.062352 167.869605 
L 183.963461 168.810766 
L 183.022299 170.711875 
" style="fill:none;opacity:0.5;stroke:#800080;stroke-linecap:round;stroke-width:2;"/>
    <path d="M 167.656645 175.901467 
L 165.755536 174.960306 
L 166.696697 173.059197 
" style="fill:none;opacity:0.5;stroke:#800080;stroke-linecap:round;stroke-width:2;"/>
   </g>
   <g id="line2d_1">
    <path clip-path="url(#pfe209a496f)" d="M 241.714564 40.121483 
L 421.796612 168.358243 
L 241.714564 296.595002 
L 62.717348 168.358243 
" style="fill:none;stroke:#ff0000;stroke-linecap:square;stroke-width:0.2;"/>
   </g>
   <g id="line2d_2">
    <path clip-path="url(#pfe209a496f)" d="M 242.799395 46.533321 
L 403.354474 174.770081 
L 242.799395 303.00684 
L 81.159485 174.770081 
" style="fill:none;stroke:#0000ff;stroke-linecap:square;stroke-width:0.2;"/>
   </g>
   <g id="line2d_3">
    <path clip-path="url(#pfe209a496f)" d="M 241.714564 61.921732 
L 299.210639 168.358243 
L 241.714564 274.794753 
L 185.30332 168.358243 
" style="fill:none;stroke:#ff0000;stroke-linecap:square;stroke-width:0.2;"/>
   </g>
   <g id="line2d_4">
    <path clip-path="url(#pfe209a496f)" d="M 242.799395 63.2041 
L 321.992103 176.052448 
L 242.799395 286.336062 
L 162.521856 176.052448 
" style="fill:none;stroke:#0000ff;stroke-linecap:square;stroke-width:0.2;"/>
   </g>
  </g>
 </g>
 <defs>
  <clipPath id="pfe209a496f">
   <rect height="307.51175" width="409.903625" x="37.576375" y="13.32"/>
  </clipPath>
 </defs>
</svg>
