<?xml version="1.0" encoding="utf-8" standalone="no"?>
<!DOCTYPE svg PUBLIC "-//W3C//DTD SVG 1.1//EN"
  "http://www.w3.org/Graphics/SVG/1.1/DTD/svg11.dtd">
<!-- Created with matplotlib (http://matplotlib.org/) -->
<svg height="345.6pt" version="1.1" viewBox="0 0 460.8 345.6" width="460.8pt" xmlns="http://www.w3.org/2000/svg" xmlns:xlink="http://www.w3.org/1999/xlink">
 <defs>
  <style type="text/css">
*{stroke-linecap:butt;stroke-linejoin:round;}
  </style>
 </defs>
 <g id="figure_1">
  <g id="patch_1">
   <path d="M 0 345.6 
L 460.8 345.6 
L 460.8 0 
L 0 0 
z
" style="fill:#ffffff;"/>
  </g>
  <g id="axes_1">
   <g id="patch_2">
    <path clip-path="url(#p8f4b850203)" d="M 58.824393 169.485842 
C 59.13274 169.485842 59.428499 169.401199 59.646534 169.250554 
C 59.864568 169.09991 59.987075 168.895563 59.987075 168.682519 
C 59.987075 168.469476 59.864568 168.265129 59.646534 168.114485 
C 59.428499 167.96384 59.13274 167.879197 58.824393 167.879197 
C 58.516046 167.879197 58.220287 167.96384 58.002253 168.114485 
C 57.784218 168.265129 57.661711 168.469476 57.661711 168.682519 
C 57.661711 168.895563 57.784218 169.09991 58.002253 169.250554 
C 58.220287 169.401199 58.516046 169.485842 58.824393 169.485842 
z
" style="fill:#ff0000;opacity:0.2;stroke:#ff0000;stroke-linejoin:miter;"/>
   </g>
   <g id="patch_3">
    <path clip-path="url(#p8f4b850203)" d="M 132.073374 63.045646 
C 132.381721 63.045646 132.677481 62.961003 132.895515 62.810358 
C 133.113549 62.659714 133.236057 62.455367 133.236057 62.242324 
C 133.236057 62.02928 133.113549 61.824934 132.895515 61.674289 
C 132.677481 61.523645 132.381721 61.439002 132.073374 61.439002 
C 131.765027 61.439002 131.469268 61.523645 131.251234 61.674289 
C 131.0332 61.824934 130.910692 62.02928 130.910692 62.242324 
C 130.910692 62.455367 131.0332 62.659714 131.251234 62.810358 
C 131.469268 62.961003 131.765027 63.045646 132.073374 63.045646 
z
" style="fill:#ff0000;opacity:0.2;stroke:#ff0000;stroke-linejoin:miter;"/>
   </g>
   <g id="patch_4">
    <path clip-path="url(#p8f4b850203)" d="M 289.035477 28.904451 
C 289.343824 28.904451 289.639584 28.819808 289.857618 28.669164 
C 290.075652 28.518519 290.198159 28.314173 290.198159 28.101129 
C 290.198159 27.888086 290.075652 27.683739 289.857618 27.533094 
C 289.639584 27.38245 289.343824 27.297807 289.035477 27.297807 
C 288.72713 27.297807 288.431371 27.38245 288.213337 27.533094 
C 287.995303 27.683739 287.872795 27.888086 287.872795 28.101129 
C 287.872795 28.314173 287.995303 28.518519 288.213337 28.669164 
C 288.431371 28.819808 288.72713 28.904451 289.035477 28.904451 
z
" style="fill:#ff0000;opacity:0.2;stroke:#ff0000;stroke-linejoin:miter;"/>
   </g>
   <g id="patch_5">
    <path clip-path="url(#p8f4b850203)" d="M 391.932856 38.544318 
C 392.241203 38.544318 392.536962 38.459675 392.754996 38.30903 
C 392.973031 38.158386 393.095538 37.954039 393.095538 37.740996 
C 393.095538 37.527952 392.973031 37.323606 392.754996 37.172961 
C 392.536962 37.022317 392.241203 36.937674 391.932856 36.937674 
C 391.624509 36.937674 391.32875 37.022317 391.110715 37.172961 
C 390.892681 37.323606 390.770174 37.527952 390.770174 37.740996 
C 390.770174 37.954039 390.892681 38.158386 391.110715 38.30903 
C 391.32875 38.459675 391.624509 38.544318 391.932856 38.544318 
z
" style="fill:#ff0000;opacity:0.2;stroke:#ff0000;stroke-linejoin:miter;"/>
   </g>
   <g id="patch_6">
    <path clip-path="url(#p8f4b850203)" d="M 408.210407 40.150963 
C 408.518754 40.150963 408.814514 40.066319 409.032548 39.915675 
C 409.250582 39.76503 409.373089 39.560684 409.373089 39.34764 
C 409.373089 39.134597 409.250582 38.93025 409.032548 38.779606 
C 408.814514 38.628961 408.518754 38.544318 408.210407 38.544318 
C 407.90206 38.544318 407.606301 38.628961 407.388267 38.779606 
C 407.170233 38.93025 407.047725 39.134597 407.047725 39.34764 
C 407.047725 39.560684 407.170233 39.76503 407.388267 39.915675 
C 407.606301 40.066319 407.90206 40.150963 408.210407 40.150963 
z
" style="fill:#ff0000;opacity:0.2;stroke:#ff0000;stroke-linejoin:miter;"/>
   </g>
   <g id="patch_7">
    <path clip-path="url(#p8f4b850203)" d="M 416.349183 99.195146 
C 416.65753 99.195146 416.953289 99.110503 417.171323 98.959859 
C 417.389358 98.809214 417.511865 98.604868 417.511865 98.391824 
C 417.511865 98.178781 417.389358 97.974434 417.171323 97.82379 
C 416.953289 97.673145 416.65753 97.588502 416.349183 97.588502 
C 416.040836 97.588502 415.745077 97.673145 415.527042 97.82379 
C 415.309008 97.974434 415.186501 98.178781 415.186501 98.391824 
C 415.186501 98.604868 415.309008 98.809214 415.527042 98.959859 
C 415.745077 99.110503 416.040836 99.195146 416.349183 99.195146 
z
" style="fill:#ff0000;opacity:0.2;stroke:#ff0000;stroke-linejoin:miter;"/>
   </g>
   <g id="patch_8">
    <path clip-path="url(#p8f4b850203)" d="M 400.652973 99.998469 
C 400.96132 99.998469 401.257079 99.913826 401.475113 99.763181 
C 401.693147 99.612537 401.815655 99.40819 401.815655 99.195146 
C 401.815655 98.982103 401.693147 98.777756 401.475113 98.627112 
C 401.257079 98.476467 400.96132 98.391824 400.652973 98.391824 
C 400.344626 98.391824 400.048866 98.476467 399.830832 98.627112 
C 399.612798 98.777756 399.49029 98.982103 399.49029 99.195146 
C 399.49029 99.40819 399.612798 99.612537 399.830832 99.763181 
C 400.048866 99.913826 400.344626 99.998469 400.652973 99.998469 
z
" style="fill:#ff0000;opacity:0.2;stroke:#ff0000;stroke-linejoin:miter;"/>
   </g>
   <g id="patch_9">
    <path clip-path="url(#p8f4b850203)" d="M 281.478043 41.355946 
C 281.78639 41.355946 282.082149 41.271303 282.300183 41.120658 
C 282.518217 40.970014 282.640725 40.765667 282.640725 40.552624 
C 282.640725 40.33958 282.518217 40.135234 282.300183 39.984589 
C 282.082149 39.833944 281.78639 39.749301 281.478043 39.749301 
C 281.169696 39.749301 280.873936 39.833944 280.655902 39.984589 
C 280.437868 40.135234 280.31536 40.33958 280.31536 40.552624 
C 280.31536 40.765667 280.437868 40.970014 280.655902 41.120658 
C 280.873936 41.271303 281.169696 41.355946 281.478043 41.355946 
z
" style="fill:#ff0000;opacity:0.2;stroke:#ff0000;stroke-linejoin:miter;"/>
   </g>
   <g id="patch_10">
    <path clip-path="url(#p8f4b850203)" d="M 116.958505 163.460925 
C 117.266852 163.460925 117.562611 163.376282 117.780646 163.225637 
C 117.99868 163.074993 118.121187 162.870646 118.121187 162.657603 
C 118.121187 162.444559 117.99868 162.240213 117.780646 162.089568 
C 117.562611 161.938924 117.266852 161.85428 116.958505 161.85428 
C 116.650158 161.85428 116.354399 161.938924 116.136365 162.089568 
C 115.91833 162.240213 115.795823 162.444559 115.795823 162.657603 
C 115.795823 162.870646 115.91833 163.074993 116.136365 163.225637 
C 116.354399 163.376282 116.650158 163.460925 116.958505 163.460925 
z
" style="fill:#ff0000;opacity:0.2;stroke:#ff0000;stroke-linejoin:miter;"/>
   </g>
   <g id="patch_11">
    <path clip-path="url(#p8f4b850203)" d="M 289.616818 294.402449 
C 289.925165 294.402449 290.220925 294.317806 290.438959 294.167161 
C 290.656993 294.016516 290.779501 293.81217 290.779501 293.599126 
C 290.779501 293.386083 290.656993 293.181736 290.438959 293.031092 
C 290.220925 292.880447 289.925165 292.795804 289.616818 292.795804 
C 289.308471 292.795804 289.012712 292.880447 288.794678 293.031092 
C 288.576644 293.181736 288.454136 293.386083 288.454136 293.599126 
C 288.454136 293.81217 288.576644 294.016516 288.794678 294.167161 
C 289.012712 294.317806 289.308471 294.402449 289.616818 294.402449 
z
" style="fill:#ff0000;opacity:0.2;stroke:#ff0000;stroke-linejoin:miter;"/>
   </g>
   <g id="patch_12">
    <path clip-path="url(#p8f4b850203)" d="M 411.117113 236.964909 
C 411.42546 236.964909 411.721219 236.880266 411.939253 236.729621 
C 412.157288 236.578977 412.279795 236.37463 412.279795 236.161587 
C 412.279795 235.948543 412.157288 235.744197 411.939253 235.593552 
C 411.721219 235.442908 411.42546 235.358265 411.117113 235.358265 
C 410.808766 235.358265 410.513007 235.442908 410.294972 235.593552 
C 410.076938 235.744197 409.954431 235.948543 409.954431 236.161587 
C 409.954431 236.37463 410.076938 236.578977 410.294972 236.729621 
C 410.513007 236.880266 410.808766 236.964909 411.117113 236.964909 
z
" style="fill:#ff0000;opacity:0.2;stroke:#ff0000;stroke-linejoin:miter;"/>
   </g>
   <g id="patch_13">
    <path clip-path="url(#p8f4b850203)" d="M 426.231982 238.571554 
C 426.540329 238.571554 426.836088 238.48691 427.054122 238.336266 
C 427.272157 238.185621 427.394664 237.981275 427.394664 237.768231 
C 427.394664 237.555188 427.272157 237.350841 427.054122 237.200197 
C 426.836088 237.049552 426.540329 236.964909 426.231982 236.964909 
C 425.923635 236.964909 425.627876 237.049552 425.409841 237.200197 
C 425.191807 237.350841 425.0693 237.555188 425.0693 237.768231 
C 425.0693 237.981275 425.191807 238.185621 425.409841 238.336266 
C 425.627876 238.48691 425.923635 238.571554 426.231982 238.571554 
z
" style="fill:#ff0000;opacity:0.2;stroke:#ff0000;stroke-linejoin:miter;"/>
   </g>
   <g id="patch_14">
    <path clip-path="url(#p8f4b850203)" d="M 398.327608 293.599126 
C 398.635955 293.599126 398.931714 293.514483 399.149749 293.363839 
C 399.367783 293.213194 399.49029 293.008848 399.49029 292.795804 
C 399.49029 292.582761 399.367783 292.378414 399.149749 292.22777 
C 398.931714 292.077125 398.635955 291.992482 398.327608 291.992482 
C 398.019261 291.992482 397.723502 292.077125 397.505468 292.22777 
C 397.287433 292.378414 397.164926 292.582761 397.164926 292.795804 
C 397.164926 293.008848 397.287433 293.213194 397.505468 293.363839 
C 397.723502 293.514483 398.019261 293.599126 398.327608 293.599126 
z
" style="fill:#ff0000;opacity:0.2;stroke:#ff0000;stroke-linejoin:miter;"/>
   </g>
   <g id="patch_15">
    <path clip-path="url(#p8f4b850203)" d="M 377.980669 297.615738 
C 378.289016 297.615738 378.584775 297.531094 378.802809 297.38045 
C 379.020844 297.229805 379.143351 297.025459 379.143351 296.812415 
C 379.143351 296.599372 379.020844 296.395025 378.802809 296.244381 
C 378.584775 296.093736 378.289016 296.009093 377.980669 296.009093 
C 377.672322 296.009093 377.376563 296.093736 377.158528 296.244381 
C 376.940494 296.395025 376.817987 296.599372 376.817987 296.812415 
C 376.817987 297.025459 376.940494 297.229805 377.158528 297.38045 
C 377.376563 297.531094 377.672322 297.615738 377.980669 297.615738 
z
" style="fill:#ff0000;opacity:0.2;stroke:#ff0000;stroke-linejoin:miter;"/>
   </g>
   <g id="patch_16">
    <path clip-path="url(#p8f4b850203)" d="M 286.128772 306.853943 
C 286.437119 306.853943 286.732878 306.7693 286.950912 306.618656 
C 287.168946 306.468011 287.291454 306.263664 287.291454 306.050621 
C 287.291454 305.837577 287.168946 305.633231 286.950912 305.482586 
C 286.732878 305.331942 286.437119 305.247299 286.128772 305.247299 
C 285.820425 305.247299 285.524665 305.331942 285.306631 305.482586 
C 285.088597 305.633231 284.966089 305.837577 284.966089 306.050621 
C 284.966089 306.263664 285.088597 306.468011 285.306631 306.618656 
C 285.524665 306.7693 285.820425 306.853943 286.128772 306.853943 
z
" style="fill:#ff0000;opacity:0.2;stroke:#ff0000;stroke-linejoin:miter;"/>
   </g>
   <g id="patch_17">
    <path clip-path="url(#p8f4b850203)" d="M 141.374832 279.942648 
C 141.683179 279.942648 141.978939 279.858005 142.196973 279.707361 
C 142.415007 279.556716 142.537515 279.35237 142.537515 279.139326 
C 142.537515 278.926283 142.415007 278.721936 142.196973 278.571292 
C 141.978939 278.420647 141.683179 278.336004 141.374832 278.336004 
C 141.066485 278.336004 140.770726 278.420647 140.552692 278.571292 
C 140.334658 278.721936 140.21215 278.926283 140.21215 279.139326 
C 140.21215 279.35237 140.334658 279.556716 140.552692 279.707361 
C 140.770726 279.858005 141.066485 279.942648 141.374832 279.942648 
z
" style="fill:#ff0000;opacity:0.2;stroke:#ff0000;stroke-linejoin:miter;"/>
   </g>
   <g id="patch_18">
    <path clip-path="url(#p8f4b850203)" d="M 288.744807 28.904451 
C 289.053154 28.904451 289.348913 28.819808 289.566947 28.669164 
C 289.784981 28.518519 289.907489 28.314173 289.907489 28.101129 
C 289.907489 27.888086 289.784981 27.683739 289.566947 27.533094 
C 289.348913 27.38245 289.053154 27.297807 288.744807 27.297807 
C 288.43646 27.297807 288.1407 27.38245 287.922666 27.533094 
C 287.704632 27.683739 287.582124 27.888086 287.582124 28.101129 
C 287.582124 28.314173 287.704632 28.518519 287.922666 28.669164 
C 288.1407 28.819808 288.43646 28.904451 288.744807 28.904451 
z
" style="fill:#0000ff;opacity:0.2;stroke:#0000ff;stroke-linejoin:miter;"/>
   </g>
   <g id="patch_19">
    <path clip-path="url(#p8f4b850203)" d="M 408.501078 39.34764 
C 408.809425 39.34764 409.105184 39.262997 409.323218 39.112353 
C 409.541252 38.961708 409.66376 38.757362 409.66376 38.544318 
C 409.66376 38.331275 409.541252 38.126928 409.323218 37.976283 
C 409.105184 37.825639 408.809425 37.740996 408.501078 37.740996 
C 408.192731 37.740996 407.896971 37.825639 407.678937 37.976283 
C 407.460903 38.126928 407.338396 38.331275 407.338396 38.544318 
C 407.338396 38.757362 407.460903 38.961708 407.678937 39.112353 
C 407.896971 39.262997 408.192731 39.34764 408.501078 39.34764 
z
" style="fill:#0000ff;opacity:0.2;stroke:#0000ff;stroke-linejoin:miter;"/>
   </g>
   <g id="patch_20">
    <path clip-path="url(#p8f4b850203)" d="M 415.477171 102.006774 
C 415.785518 102.006774 416.081278 101.922131 416.299312 101.771487 
C 416.517346 101.620842 416.639853 101.416496 416.639853 101.203452 
C 416.639853 100.990409 416.517346 100.786062 416.299312 100.635417 
C 416.081278 100.484773 415.785518 100.40013 415.477171 100.40013 
C 415.168824 100.40013 414.873065 100.484773 414.655031 100.635417 
C 414.436997 100.786062 414.314489 100.990409 414.314489 101.203452 
C 414.314489 101.416496 414.436997 101.620842 414.655031 101.771487 
C 414.873065 101.922131 415.168824 102.006774 415.477171 102.006774 
z
" style="fill:#0000ff;opacity:0.2;stroke:#0000ff;stroke-linejoin:miter;"/>
   </g>
   <g id="patch_21">
    <path clip-path="url(#p8f4b850203)" d="M 393.386209 104.818402 
C 393.694556 104.818402 393.990315 104.733759 394.208349 104.583114 
C 394.426383 104.43247 394.548891 104.228123 394.548891 104.01508 
C 394.548891 103.802036 394.426383 103.59769 394.208349 103.447045 
C 393.990315 103.296401 393.694556 103.211758 393.386209 103.211758 
C 393.077862 103.211758 392.782102 103.296401 392.564068 103.447045 
C 392.346034 103.59769 392.223526 103.802036 392.223526 104.01508 
C 392.223526 104.228123 392.346034 104.43247 392.564068 104.583114 
C 392.782102 104.733759 393.077862 104.818402 393.386209 104.818402 
z
" style="fill:#0000ff;opacity:0.2;stroke:#0000ff;stroke-linejoin:miter;"/>
   </g>
   <g id="patch_22">
    <path clip-path="url(#p8f4b850203)" d="M 284.094078 47.380863 
C 284.402425 47.380863 284.698184 47.296219 284.916218 47.145575 
C 285.134252 46.99493 285.25676 46.790584 285.25676 46.57754 
C 285.25676 46.364497 285.134252 46.16015 284.916218 46.009506 
C 284.698184 45.858861 284.402425 45.774218 284.094078 45.774218 
C 283.785731 45.774218 283.489971 45.858861 283.271937 46.009506 
C 283.053903 46.16015 282.931395 46.364497 282.931395 46.57754 
C 282.931395 46.790584 283.053903 46.99493 283.271937 47.145575 
C 283.489971 47.296219 283.785731 47.380863 284.094078 47.380863 
z
" style="fill:#0000ff;opacity:0.2;stroke:#0000ff;stroke-linejoin:miter;"/>
   </g>
   <g id="patch_23">
    <path clip-path="url(#p8f4b850203)" d="M 150.38562 165.469231 
C 150.693967 165.469231 150.989726 165.384587 151.20776 165.233943 
C 151.425794 165.083298 151.548302 164.878952 151.548302 164.665908 
C 151.548302 164.452865 151.425794 164.248518 151.20776 164.097874 
C 150.989726 163.947229 150.693967 163.862586 150.38562 163.862586 
C 150.077273 163.862586 149.781513 163.947229 149.563479 164.097874 
C 149.345445 164.248518 149.222937 164.452865 149.222937 164.665908 
C 149.222937 164.878952 149.345445 165.083298 149.563479 165.233943 
C 149.781513 165.384587 150.077273 165.469231 150.38562 165.469231 
z
" style="fill:#0000ff;opacity:0.2;stroke:#0000ff;stroke-linejoin:miter;"/>
   </g>
   <g id="patch_24">
    <path clip-path="url(#p8f4b850203)" d="M 287.000783 288.377532 
C 287.30913 288.377532 287.60489 288.292889 287.822924 288.142244 
C 288.040958 287.9916 288.163466 287.787253 288.163466 287.57421 
C 288.163466 287.361166 288.040958 287.15682 287.822924 287.006175 
C 287.60489 286.855531 287.30913 286.770887 287.000783 286.770887 
C 286.692436 286.770887 286.396677 286.855531 286.178643 287.006175 
C 285.960609 287.15682 285.838101 287.361166 285.838101 287.57421 
C 285.838101 287.787253 285.960609 287.9916 286.178643 288.142244 
C 286.396677 288.292889 286.692436 288.377532 287.000783 288.377532 
z
" style="fill:#0000ff;opacity:0.2;stroke:#0000ff;stroke-linejoin:miter;"/>
   </g>
   <g id="patch_25">
    <path clip-path="url(#p8f4b850203)" d="M 405.594372 226.120059 
C 405.902719 226.120059 406.198478 226.035416 406.416513 225.884771 
C 406.634547 225.734127 406.757054 225.52978 406.757054 225.316737 
C 406.757054 225.103693 406.634547 224.899347 406.416513 224.748702 
C 406.198478 224.598058 405.902719 224.513415 405.594372 224.513415 
C 405.286025 224.513415 404.990266 224.598058 404.772232 224.748702 
C 404.554197 224.899347 404.43169 225.103693 404.43169 225.316737 
C 404.43169 225.52978 404.554197 225.734127 404.772232 225.884771 
C 404.990266 226.035416 405.286025 226.120059 405.594372 226.120059 
z
" style="fill:#0000ff;opacity:0.2;stroke:#0000ff;stroke-linejoin:miter;"/>
   </g>
   <g id="patch_26">
    <path clip-path="url(#p8f4b850203)" d="M 427.685335 228.931687 
C 427.993682 228.931687 428.289441 228.847044 428.507475 228.696399 
C 428.72551 228.545755 428.848017 228.341408 428.848017 228.128365 
C 428.848017 227.915321 428.72551 227.710974 428.507475 227.56033 
C 428.289441 227.409685 427.993682 227.325042 427.685335 227.325042 
C 427.376988 227.325042 427.081229 227.409685 426.863194 227.56033 
C 426.64516 227.710974 426.522653 227.915321 426.522653 228.128365 
C 426.522653 228.341408 426.64516 228.545755 426.863194 228.696399 
C 427.081229 228.847044 427.376988 228.931687 427.685335 228.931687 
z
" style="fill:#0000ff;opacity:0.2;stroke:#0000ff;stroke-linejoin:miter;"/>
   </g>
   <g id="patch_27">
    <path clip-path="url(#p8f4b850203)" d="M 405.594372 291.992482 
C 405.902719 291.992482 406.198478 291.907839 406.416513 291.757194 
C 406.634547 291.60655 406.757054 291.402203 406.757054 291.18916 
C 406.757054 290.976116 406.634547 290.77177 406.416513 290.621125 
C 406.198478 290.470481 405.902719 290.385837 405.594372 290.385837 
C 405.286025 290.385837 404.990266 290.470481 404.772232 290.621125 
C 404.554197 290.77177 404.43169 290.976116 404.43169 291.18916 
C 404.43169 291.402203 404.554197 291.60655 404.772232 291.757194 
C 404.990266 291.907839 405.286025 291.992482 405.594372 291.992482 
z
" style="fill:#0000ff;opacity:0.2;stroke:#0000ff;stroke-linejoin:miter;"/>
   </g>
   <g id="patch_28">
    <path clip-path="url(#p8f4b850203)" d="M 287.582124 306.853943 
C 287.890471 306.853943 288.186231 306.7693 288.404265 306.618656 
C 288.622299 306.468011 288.744807 306.263664 288.744807 306.050621 
C 288.744807 305.837577 288.622299 305.633231 288.404265 305.482586 
C 288.186231 305.331942 287.890471 305.247299 287.582124 305.247299 
C 287.273778 305.247299 286.978018 305.331942 286.759984 305.482586 
C 286.54195 305.633231 286.419442 305.837577 286.419442 306.050621 
C 286.419442 306.263664 286.54195 306.468011 286.759984 306.618656 
C 286.978018 306.7693 287.273778 306.853943 287.582124 306.853943 
z
" style="fill:#0000ff;opacity:0.2;stroke:#0000ff;stroke-linejoin:miter;"/>
   </g>
   <g id="patch_29">
    <path clip-path="url(#p8f4b850203)" d="M 131.201363 276.327698 
C 131.50971 276.327698 131.805469 276.243055 132.023503 276.092411 
C 132.241537 275.941766 132.364045 275.73742 132.364045 275.524376 
C 132.364045 275.311333 132.241537 275.106986 132.023503 274.956342 
C 131.805469 274.805697 131.50971 274.721054 131.201363 274.721054 
C 130.893016 274.721054 130.597256 274.805697 130.379222 274.956342 
C 130.161188 275.106986 130.03868 275.311333 130.03868 275.524376 
C 130.03868 275.73742 130.161188 275.941766 130.379222 276.092411 
C 130.597256 276.243055 130.893016 276.327698 131.201363 276.327698 
z
" style="fill:#0000ff;opacity:0.2;stroke:#0000ff;stroke-linejoin:miter;"/>
   </g>
   <g id="patch_30">
    <path clip-path="url(#p8f4b850203)" d="M 57.37104 171.092486 
C 57.679387 171.092486 57.975146 171.007843 58.193181 170.857199 
C 58.411215 170.706554 58.533722 170.502207 58.533722 170.289164 
C 58.533722 170.07612 58.411215 169.871774 58.193181 169.721129 
C 57.975146 169.570485 57.679387 169.485842 57.37104 169.485842 
C 57.062693 169.485842 56.766934 169.570485 56.5489 169.721129 
C 56.330865 169.871774 56.208358 170.07612 56.208358 170.289164 
C 56.208358 170.502207 56.330865 170.706554 56.5489 170.857199 
C 56.766934 171.007843 57.062693 171.092486 57.37104 171.092486 
z
" style="fill:#0000ff;opacity:0.2;stroke:#0000ff;stroke-linejoin:miter;"/>
   </g>
   <g id="patch_31">
    <path clip-path="url(#p8f4b850203)" d="M 127.713316 64.652291 
C 128.021663 64.652291 128.317422 64.567647 128.535456 64.417003 
C 128.753491 64.266358 128.875998 64.062012 128.875998 63.848968 
C 128.875998 63.635925 128.753491 63.431578 128.535456 63.280934 
C 128.317422 63.130289 128.021663 63.045646 127.713316 63.045646 
C 127.404969 63.045646 127.10921 63.130289 126.891175 63.280934 
C 126.673141 63.431578 126.550634 63.635925 126.550634 63.848968 
C 126.550634 64.062012 126.673141 64.266358 126.891175 64.417003 
C 127.10921 64.567647 127.404969 64.652291 127.713316 64.652291 
z
" style="fill:#0000ff;opacity:0.2;stroke:#0000ff;stroke-linejoin:miter;"/>
   </g>
   <g id="patch_32">
    <path clip-path="url(#p8f4b850203)" d="M 58.824393 168.682519 
C 58.824393 124.098136 87.891449 85.94033 132.073374 62.242324 
C 174.511276 39.34764 228.576001 28.101129 289.035477 28.101129 
C 320.427898 28.101129 364.609823 32.519401 391.932856 37.740996 
C 398.908949 38.945979 402.978337 39.749301 408.210407 39.34764 
C 408.791748 48.585846 411.698454 73.890496 416.349183 98.391824 
C 413.442477 101.203452 404.72236 101.605113 400.652973 99.195146 
C 391.932856 71.882191 365.772505 40.552624 281.478043 40.552624 
C 192.532851 40.552624 116.958505 79.513752 116.958505 162.657603 
C 116.958505 247.006437 194.276874 293.599126 289.616818 293.599126 
C 364.609823 293.599126 397.746267 259.859593 411.117113 236.161587 
C 415.186501 234.153281 423.906618 234.956604 426.231982 237.768231 
C 422.162594 258.654609 407.047725 285.164243 398.327608 292.795804 
C 391.351515 293.599126 384.375421 295.205771 377.980669 296.812415 
C 365.191164 300.025704 323.334603 306.050621 286.128772 306.050621 
C 233.808071 306.050621 183.812734 298.820721 141.374832 279.139326 
C 94.867543 257.047965 58.824393 220.496803 58.824393 168.682519 
" style="fill:none;stroke:#ff0000;stroke-linejoin:miter;stroke-width:0.5;"/>
   </g>
   <g id="patch_33">
    <path clip-path="url(#p8f4b850203)" d="M 288.744807 28.101129 
C 348.041601 28.101129 391.060844 37.740996 408.501078 38.544318 
C 408.501078 45.774218 410.245101 77.907107 415.477171 101.203452 
C 413.151807 106.023385 397.455596 107.63003 393.386209 104.01508 
C 377.689998 66.660596 340.484167 46.57754 284.094078 46.57754 
C 219.565213 46.57754 150.38562 84.735346 150.38562 164.665908 
C 150.38562 244.59647 217.239849 287.57421 287.000783 287.57421 
C 357.343059 287.57421 389.898162 252.629693 405.594372 225.316737 
C 410.245101 222.103448 424.197288 223.308431 427.685335 228.128365 
C 423.615947 257.851287 413.733148 281.950954 405.594372 291.18916 
C 374.201952 297.214076 332.926732 306.050621 287.582124 306.050621 
C 230.610695 306.050621 172.476582 296.812415 131.201363 275.524376 
C 89.344802 253.433015 57.37104 220.095142 57.37104 170.289164 
C 57.37104 121.286508 87.600779 86.743652 127.713316 63.848968 
C 168.988536 40.150963 228.28533 28.101129 288.744807 28.101129 
" style="fill:none;stroke:#0000ff;stroke-linejoin:miter;stroke-width:0.5;"/>
   </g>
   <g id="patch_34">
    <path clip-path="url(#p8f4b850203)" d="M 58.824393 171.092486 
C 59.749434 171.092486 60.636712 170.838557 61.290814 170.386623 
C 61.944917 169.93469 62.31244 169.32165 62.31244 168.682519 
C 62.31244 168.043389 61.944917 167.430349 61.290814 166.978416 
C 60.636712 166.526482 59.749434 166.272553 58.824393 166.272553 
C 57.899352 166.272553 57.012074 166.526482 56.357972 166.978416 
C 55.703869 167.430349 55.336346 168.043389 55.336346 168.682519 
C 55.336346 169.32165 55.703869 169.93469 56.357972 170.386623 
C 57.012074 170.838557 57.899352 171.092486 58.824393 171.092486 
z
" style="fill:#0000ff;opacity:0.2;stroke:#0000ff;stroke-linejoin:miter;"/>
   </g>
   <g id="patch_35">
    <path clip-path="url(#p8f4b850203)" d="M 57.37104 172.699131 
C 58.296081 172.699131 59.183359 172.445201 59.837462 171.993268 
C 60.491564 171.541334 60.859087 170.928295 60.859087 170.289164 
C 60.859087 169.650033 60.491564 169.036994 59.837462 168.58506 
C 59.183359 168.133127 58.296081 167.879197 57.37104 167.879197 
C 56.445999 167.879197 55.558721 168.133127 54.904619 168.58506 
C 54.250516 169.036994 53.882993 169.650033 53.882993 170.289164 
C 53.882993 170.928295 54.250516 171.541334 54.904619 171.993268 
C 55.558721 172.445201 56.445999 172.699131 57.37104 172.699131 
z
" style="fill:#ff0000;opacity:0.2;stroke:#ff0000;stroke-linejoin:miter;"/>
   </g>
   <g id="patch_36">
    <path d="M 58.824393 168.682519 
Q 58.769041 168.74371 60.136761 167.23173 
" style="fill:none;opacity:0.5;stroke:#0000ff;stroke-linecap:round;stroke-width:3;"/>
    <path d="M 62.255424 167.125595 
L 60.136761 167.23173 
L 60.030626 165.113067 
" style="fill:none;opacity:0.5;stroke:#0000ff;stroke-linecap:round;stroke-width:3;"/>
   </g>
   <g id="patch_37">
    <path clip-path="url(#p8f4b850203)" d="M 132.073374 64.652291 
C 132.998415 64.652291 133.885693 64.398361 134.539796 63.946428 
C 135.193898 63.494494 135.561421 62.881455 135.561421 62.242324 
C 135.561421 61.603193 135.193898 60.990154 134.539796 60.53822 
C 133.885693 60.086286 132.998415 59.832357 132.073374 59.832357 
C 131.148334 59.832357 130.261055 60.086286 129.606953 60.53822 
C 128.95285 60.990154 128.585328 61.603193 128.585328 62.242324 
C 128.585328 62.881455 128.95285 63.494494 129.606953 63.946428 
C 130.261055 64.398361 131.148334 64.652291 132.073374 64.652291 
z
" style="fill:#0000ff;opacity:0.2;stroke:#0000ff;stroke-linejoin:miter;"/>
   </g>
   <g id="patch_38">
    <path clip-path="url(#p8f4b850203)" d="M 127.713316 66.258935 
C 128.638357 66.258935 129.525635 66.005006 130.179737 65.553072 
C 130.83384 65.101139 131.201363 64.488099 131.201363 63.848968 
C 131.201363 63.209838 130.83384 62.596798 130.179737 62.144865 
C 129.525635 61.692931 128.638357 61.439002 127.713316 61.439002 
C 126.788275 61.439002 125.900997 61.692931 125.246894 62.144865 
C 124.592792 62.596798 124.225269 63.209838 124.225269 63.848968 
C 124.225269 64.488099 124.592792 65.101139 125.246894 65.553072 
C 125.900997 66.005006 126.788275 66.258935 127.713316 66.258935 
z
" style="fill:#ff0000;opacity:0.2;stroke:#ff0000;stroke-linejoin:miter;"/>
   </g>
   <g id="patch_39">
    <path d="M 132.073374 62.242324 
Q 130.832205 62.699684 131.581517 62.423569 
" style="fill:none;opacity:0.5;stroke:#0000ff;stroke-linecap:round;stroke-width:3;"/>
    <path d="M 133.507645 63.312406 
L 131.581517 62.423569 
L 132.470354 60.497441 
" style="fill:none;opacity:0.5;stroke:#0000ff;stroke-linecap:round;stroke-width:3;"/>
   </g>
   <g id="patch_40">
    <path clip-path="url(#p8f4b850203)" d="M 289.035477 30.310265 
C 289.883431 30.310265 290.69677 30.077497 291.296364 29.663224 
C 291.895958 29.248952 292.232853 28.686999 292.232853 28.101129 
C 292.232853 27.515259 291.895958 26.953306 291.296364 26.539034 
C 290.69677 26.124761 289.883431 25.891993 289.035477 25.891993 
C 288.187523 25.891993 287.374185 26.124761 286.774591 26.539034 
C 286.174997 26.953306 285.838101 27.515259 285.838101 28.101129 
C 285.838101 28.686999 286.174997 29.248952 286.774591 29.663224 
C 287.374185 30.077497 288.187523 30.310265 289.035477 30.310265 
z
" style="fill:#0000ff;opacity:0.2;stroke:#0000ff;stroke-linejoin:miter;"/>
   </g>
   <g id="patch_41">
    <path clip-path="url(#p8f4b850203)" d="M 288.744807 30.310265 
C 289.592761 30.310265 290.406099 30.077497 291.005693 29.663224 
C 291.605287 29.248952 291.942183 28.686999 291.942183 28.101129 
C 291.942183 27.515259 291.605287 26.953306 291.005693 26.539034 
C 290.406099 26.124761 289.592761 25.891993 288.744807 25.891993 
C 287.896853 25.891993 287.083514 26.124761 286.48392 26.539034 
C 285.884326 26.953306 285.547431 27.515259 285.547431 28.101129 
C 285.547431 28.686999 285.884326 29.248952 286.48392 29.663224 
C 287.083514 30.077497 287.896853 30.310265 288.744807 30.310265 
z
" style="fill:#ff0000;opacity:0.2;stroke:#ff0000;stroke-linejoin:miter;"/>
   </g>
   <g id="patch_42">
    <path d="M 289.035477 28.101129 
Q 288.890142 28.101129 290.68935 28.101129 
" style="fill:none;opacity:0.5;stroke:#0000ff;stroke-linecap:round;stroke-width:2.75;"/>
    <path d="M 292.18935 29.601129 
L 290.68935 28.101129 
L 292.18935 26.601129 
" style="fill:none;opacity:0.5;stroke:#0000ff;stroke-linecap:round;stroke-width:2.75;"/>
   </g>
   <g id="patch_43">
    <path clip-path="url(#p8f4b850203)" d="M 391.932856 39.14681 
C 392.472463 39.14681 392.990042 38.998684 393.371602 38.735056 
C 393.753162 38.471428 393.96755 38.113822 393.96755 37.740996 
C 393.96755 37.36817 393.753162 37.010563 393.371602 36.746935 
C 392.990042 36.483307 392.472463 36.335182 391.932856 36.335182 
C 391.393249 36.335182 390.87567 36.483307 390.49411 36.746935 
C 390.11255 37.010563 389.898162 37.36817 389.898162 37.740996 
C 389.898162 38.113822 390.11255 38.471428 390.49411 38.735056 
C 390.87567 38.998684 391.393249 39.14681 391.932856 39.14681 
z
" style="fill:#0000ff;opacity:0.2;stroke:#0000ff;stroke-linejoin:miter;"/>
   </g>
   <g id="patch_44">
    <path clip-path="url(#p8f4b850203)" d="M 415.477171 102.609266 
C 416.016778 102.609266 416.534357 102.461141 416.915917 102.197513 
C 417.297477 101.933885 417.511865 101.576278 417.511865 101.203452 
C 417.511865 100.830626 417.297477 100.473019 416.915917 100.209392 
C 416.534357 99.945764 416.016778 99.797638 415.477171 99.797638 
C 414.937564 99.797638 414.419985 99.945764 414.038425 100.209392 
C 413.656866 100.473019 413.442477 100.830626 413.442477 101.203452 
C 413.442477 101.576278 413.656866 101.933885 414.038425 102.197513 
C 414.419985 102.461141 414.937564 102.609266 415.477171 102.609266 
z
" style="fill:#ff0000;opacity:0.2;stroke:#ff0000;stroke-linejoin:miter;"/>
   </g>
   <g id="patch_45">
    <path d="M 391.932856 37.740996 
Q 403.356534 68.532915 414.349793 98.164665 
" style="fill:none;opacity:0.5;stroke:#0000ff;stroke-linecap:round;stroke-width:1.75;"/>
    <path d="M 415.234385 96.236583 
L 414.349793 98.164665 
L 412.421712 97.280074 
" style="fill:none;opacity:0.5;stroke:#0000ff;stroke-linecap:round;stroke-width:1.75;"/>
   </g>
   <g id="patch_46">
    <path clip-path="url(#p8f4b850203)" d="M 408.210407 41.556776 
C 409.058361 41.556776 409.8717 41.324008 410.471294 40.909735 
C 411.070888 40.495463 411.407783 39.93351 411.407783 39.34764 
C 411.407783 38.761771 411.070888 38.199818 410.471294 37.785545 
C 409.8717 37.371273 409.058361 37.138504 408.210407 37.138504 
C 407.362453 37.138504 406.549115 37.371273 405.949521 37.785545 
C 405.349927 38.199818 405.013031 38.761771 405.013031 39.34764 
C 405.013031 39.93351 405.349927 40.495463 405.949521 40.909735 
C 406.549115 41.324008 407.362453 41.556776 408.210407 41.556776 
z
" style="fill:#0000ff;opacity:0.2;stroke:#0000ff;stroke-linejoin:miter;"/>
   </g>
   <g id="patch_47">
    <path clip-path="url(#p8f4b850203)" d="M 408.501078 40.753454 
C 409.349032 40.753454 410.16237 40.520686 410.761964 40.106413 
C 411.361558 39.692141 411.698454 39.130188 411.698454 38.544318 
C 411.698454 37.958448 411.361558 37.396495 410.761964 36.982223 
C 410.16237 36.56795 409.349032 36.335182 408.501078 36.335182 
C 407.653124 36.335182 406.839785 36.56795 406.240191 36.982223 
C 405.640597 37.396495 405.303702 37.958448 405.303702 38.544318 
C 405.303702 39.130188 405.640597 39.692141 406.240191 40.106413 
C 406.839785 40.520686 407.653124 40.753454 408.501078 40.753454 
z
" style="fill:#ff0000;opacity:0.2;stroke:#ff0000;stroke-linejoin:miter;"/>
   </g>
   <g id="patch_48">
    <path d="M 408.210407 39.34764 
Q 408.355743 38.945979 407.839453 40.372843 
" style="fill:none;opacity:0.5;stroke:#0000ff;stroke-linecap:round;stroke-width:2.75;"/>
    <path d="M 405.918578 41.272976 
L 407.839453 40.372843 
L 408.739586 42.293717 
" style="fill:none;opacity:0.5;stroke:#0000ff;stroke-linecap:round;stroke-width:2.75;"/>
   </g>
   <g id="patch_49">
    <path clip-path="url(#p8f4b850203)" d="M 416.349183 100.801791 
C 417.274224 100.801791 418.161502 100.547862 418.815604 100.095928 
C 419.469707 99.643994 419.83723 99.030955 419.83723 98.391824 
C 419.83723 97.752694 419.469707 97.139654 418.815604 96.68772 
C 418.161502 96.235787 417.274224 95.981858 416.349183 95.981858 
C 415.424142 95.981858 414.536864 96.235787 413.882761 96.68772 
C 413.228659 97.139654 412.861136 97.752694 412.861136 98.391824 
C 412.861136 99.030955 413.228659 99.643994 413.882761 100.095928 
C 414.536864 100.547862 415.424142 100.801791 416.349183 100.801791 
z
" style="fill:#0000ff;opacity:0.2;stroke:#0000ff;stroke-linejoin:miter;"/>
   </g>
   <g id="patch_50">
    <path clip-path="url(#p8f4b850203)" d="M 415.477171 103.613419 
C 416.402212 103.613419 417.28949 103.359489 417.943593 102.907556 
C 418.597695 102.455622 418.965218 101.842583 418.965218 101.203452 
C 418.965218 100.564321 418.597695 99.951282 417.943593 99.499348 
C 417.28949 99.047415 416.402212 98.793485 415.477171 98.793485 
C 414.55213 98.793485 413.664852 99.047415 413.01075 99.499348 
C 412.356647 99.951282 411.989125 100.564321 411.989125 101.203452 
C 411.989125 101.842583 412.356647 102.455622 413.01075 102.907556 
C 413.664852 103.359489 414.55213 103.613419 415.477171 103.613419 
z
" style="fill:#ff0000;opacity:0.2;stroke:#ff0000;stroke-linejoin:miter;"/>
   </g>
   <g id="patch_51">
    <path d="M 416.349183 98.391824 
Q 416.209099 98.843497 416.697403 97.269058 
" style="fill:none;opacity:0.5;stroke:#0000ff;stroke-linecap:round;stroke-width:3;"/>
    <path d="M 418.574418 96.280718 
L 416.697403 97.269058 
L 415.709063 95.392043 
" style="fill:none;opacity:0.5;stroke:#0000ff;stroke-linecap:round;stroke-width:3;"/>
   </g>
   <g id="patch_52">
    <path clip-path="url(#p8f4b850203)" d="M 400.652973 100.60096 
C 401.19258 100.60096 401.710159 100.452835 402.091719 100.189207 
C 402.473278 99.925579 402.687667 99.567973 402.687667 99.195146 
C 402.687667 98.82232 402.473278 98.464714 402.091719 98.201086 
C 401.710159 97.937458 401.19258 97.789333 400.652973 97.789333 
C 400.113366 97.789333 399.595787 97.937458 399.214227 98.201086 
C 398.832667 98.464714 398.618279 98.82232 398.618279 99.195146 
C 398.618279 99.567973 398.832667 99.925579 399.214227 100.189207 
C 399.595787 100.452835 400.113366 100.60096 400.652973 100.60096 
z
" style="fill:#0000ff;opacity:0.2;stroke:#0000ff;stroke-linejoin:miter;"/>
   </g>
   <g id="patch_53">
    <path clip-path="url(#p8f4b850203)" d="M 393.386209 105.420894 
C 393.925816 105.420894 394.443395 105.272768 394.824954 105.00914 
C 395.206514 104.745512 395.420903 104.387906 395.420903 104.01508 
C 395.420903 103.642254 395.206514 103.284647 394.824954 103.021019 
C 394.443395 102.757391 393.925816 102.609266 393.386209 102.609266 
C 392.846601 102.609266 392.329023 102.757391 391.947463 103.021019 
C 391.565903 103.284647 391.351515 103.642254 391.351515 104.01508 
C 391.351515 104.387906 391.565903 104.745512 391.947463 105.00914 
C 392.329023 105.272768 392.846601 105.420894 393.386209 105.420894 
z
" style="fill:#ff0000;opacity:0.2;stroke:#ff0000;stroke-linejoin:miter;"/>
   </g>
   <g id="patch_54">
    <path d="M 400.652973 99.195146 
Q 397.851649 101.053221 396.081542 102.227306 
" style="fill:none;opacity:0.5;stroke:#0000ff;stroke-linecap:round;stroke-width:1.75;"/>
    <path d="M 398.160687 102.648208 
L 396.081542 102.227306 
L 396.502444 100.148162 
" style="fill:none;opacity:0.5;stroke:#0000ff;stroke-linecap:round;stroke-width:1.75;"/>
   </g>
   <g id="patch_55">
    <path clip-path="url(#p8f4b850203)" d="M 281.478043 42.96259 
C 282.403083 42.96259 283.290362 42.708661 283.944464 42.256727 
C 284.598567 41.804794 284.966089 41.191754 284.966089 40.552624 
C 284.966089 39.913493 284.598567 39.300453 283.944464 38.84852 
C 283.290362 38.396586 282.403083 38.142657 281.478043 38.142657 
C 280.553002 38.142657 279.665724 38.396586 279.011621 38.84852 
C 278.357519 39.300453 277.989996 39.913493 277.989996 40.552624 
C 277.989996 41.191754 278.357519 41.804794 279.011621 42.256727 
C 279.665724 42.708661 280.553002 42.96259 281.478043 42.96259 
z
" style="fill:#0000ff;opacity:0.2;stroke:#0000ff;stroke-linejoin:miter;"/>
   </g>
   <g id="patch_56">
    <path clip-path="url(#p8f4b850203)" d="M 284.094078 48.987507 
C 285.019119 48.987507 285.906397 48.733578 286.560499 48.281644 
C 287.214602 47.829711 287.582124 47.216671 287.582124 46.57754 
C 287.582124 45.93841 287.214602 45.32537 286.560499 44.873437 
C 285.906397 44.421503 285.019119 44.167574 284.094078 44.167574 
C 283.169037 44.167574 282.281759 44.421503 281.627656 44.873437 
C 280.973554 45.32537 280.606031 45.93841 280.606031 46.57754 
C 280.606031 47.216671 280.973554 47.829711 281.627656 48.281644 
C 282.281759 48.733578 283.169037 48.987507 284.094078 48.987507 
z
" style="fill:#ff0000;opacity:0.2;stroke:#ff0000;stroke-linejoin:miter;"/>
   </g>
   <g id="patch_57">
    <path d="M 281.478043 40.552624 
Q 282.388162 42.648695 282.453405 42.798954 
" style="fill:none;opacity:0.5;stroke:#0000ff;stroke-linecap:round;stroke-width:3;"/>
    <path d="M 283.231884 40.825639 
L 282.453405 42.798954 
L 280.48009 42.020475 
" style="fill:none;opacity:0.5;stroke:#0000ff;stroke-linecap:round;stroke-width:3;"/>
   </g>
   <g id="patch_58">
    <path clip-path="url(#p8f4b850203)" d="M 116.958505 163.661756 
C 117.343939 163.661756 117.713638 163.555952 117.986181 163.367646 
C 118.258724 163.17934 118.411858 162.923907 118.411858 162.657603 
C 118.411858 162.391298 118.258724 162.135865 117.986181 161.947559 
C 117.713638 161.759254 117.343939 161.65345 116.958505 161.65345 
C 116.573072 161.65345 116.203372 161.759254 115.93083 161.947559 
C 115.658287 162.135865 115.505152 162.391298 115.505152 162.657603 
C 115.505152 162.923907 115.658287 163.17934 115.93083 163.367646 
C 116.203372 163.555952 116.573072 163.661756 116.958505 163.661756 
z
" style="fill:#0000ff;opacity:0.2;stroke:#0000ff;stroke-linejoin:miter;"/>
   </g>
   <g id="patch_59">
    <path clip-path="url(#p8f4b850203)" d="M 150.38562 165.670061 
C 150.771053 165.670061 151.140753 165.564257 151.413295 165.375952 
C 151.685838 165.187646 151.838972 164.932213 151.838972 164.665908 
C 151.838972 164.399604 151.685838 164.144171 151.413295 163.955865 
C 151.140753 163.767559 150.771053 163.661756 150.38562 163.661756 
C 150.000186 163.661756 149.630487 163.767559 149.357944 163.955865 
C 149.085401 164.144171 148.932267 164.399604 148.932267 164.665908 
C 148.932267 164.932213 149.085401 165.187646 149.357944 165.375952 
C 149.630487 165.564257 150.000186 165.670061 150.38562 165.670061 
z
" style="fill:#ff0000;opacity:0.2;stroke:#ff0000;stroke-linejoin:miter;"/>
   </g>
   <g id="patch_60">
    <path d="M 116.958505 162.657603 
Q 132.67439 163.601815 147.507983 164.49302 
" style="fill:none;opacity:0.5;stroke:#0000ff;stroke-linecap:round;stroke-width:1.25;"/>
    <path d="M 146.100641 162.905761 
L 147.507983 164.49302 
L 145.920725 165.900362 
" style="fill:none;opacity:0.5;stroke:#0000ff;stroke-linecap:round;stroke-width:1.25;"/>
   </g>
   <g id="patch_61">
    <path clip-path="url(#p8f4b850203)" d="M 289.616818 296.009093 
C 290.541859 296.009093 291.429137 295.755164 292.08324 295.30323 
C 292.737342 294.851297 293.104865 294.238257 293.104865 293.599126 
C 293.104865 292.959996 292.737342 292.346956 292.08324 291.895023 
C 291.429137 291.443089 290.541859 291.18916 289.616818 291.18916 
C 288.691778 291.18916 287.804499 291.443089 287.150397 291.895023 
C 286.496294 292.346956 286.128772 292.959996 286.128772 293.599126 
C 286.128772 294.238257 286.496294 294.851297 287.150397 295.30323 
C 287.804499 295.755164 288.691778 296.009093 289.616818 296.009093 
z
" style="fill:#0000ff;opacity:0.2;stroke:#0000ff;stroke-linejoin:miter;"/>
   </g>
   <g id="patch_62">
    <path clip-path="url(#p8f4b850203)" d="M 287.000783 289.984176 
C 287.925824 289.984176 288.813102 289.730247 289.467205 289.278313 
C 290.121307 288.82638 290.48883 288.21334 290.48883 287.57421 
C 290.48883 286.935079 290.121307 286.322039 289.467205 285.870106 
C 288.813102 285.418172 287.925824 285.164243 287.000783 285.164243 
C 286.075743 285.164243 285.188464 285.418172 284.534362 285.870106 
C 283.880259 286.322039 283.512737 286.935079 283.512737 287.57421 
C 283.512737 288.21334 283.880259 288.82638 284.534362 289.278313 
C 285.188464 289.730247 286.075743 289.984176 287.000783 289.984176 
z
" style="fill:#ff0000;opacity:0.2;stroke:#ff0000;stroke-linejoin:miter;"/>
   </g>
   <g id="patch_63">
    <path d="M 289.616818 293.599126 
Q 288.706699 291.503055 288.641456 291.352796 
" style="fill:none;opacity:0.5;stroke:#0000ff;stroke-linecap:round;stroke-width:3;"/>
    <path d="M 287.862977 293.326111 
L 288.641456 291.352796 
L 290.614771 292.131275 
" style="fill:none;opacity:0.5;stroke:#0000ff;stroke-linecap:round;stroke-width:3;"/>
   </g>
   <g id="patch_64">
    <path clip-path="url(#p8f4b850203)" d="M 411.117113 237.567401 
C 411.65672 237.567401 412.174299 237.419275 412.555859 237.155647 
C 412.937419 236.892019 413.151807 236.534413 413.151807 236.161587 
C 413.151807 235.788761 412.937419 235.431154 412.555859 235.167526 
C 412.174299 234.903898 411.65672 234.755773 411.117113 234.755773 
C 410.577506 234.755773 410.059927 234.903898 409.678367 235.167526 
C 409.296807 235.431154 409.082419 235.788761 409.082419 236.161587 
C 409.082419 236.534413 409.296807 236.892019 409.678367 237.155647 
C 410.059927 237.419275 410.577506 237.567401 411.117113 237.567401 
z
" style="fill:#0000ff;opacity:0.2;stroke:#0000ff;stroke-linejoin:miter;"/>
   </g>
   <g id="patch_65">
    <path clip-path="url(#p8f4b850203)" d="M 405.594372 226.722551 
C 406.133979 226.722551 406.651558 226.574425 407.033118 226.310797 
C 407.414678 226.047169 407.629066 225.689563 407.629066 225.316737 
C 407.629066 224.943911 407.414678 224.586304 407.033118 224.322676 
C 406.651558 224.059048 406.133979 223.910923 405.594372 223.910923 
C 405.054765 223.910923 404.537186 224.059048 404.155626 224.322676 
C 403.774066 224.586304 403.559678 224.943911 403.559678 225.316737 
C 403.559678 225.689563 403.774066 226.047169 404.155626 226.310797 
C 404.537186 226.574425 405.054765 226.722551 405.594372 226.722551 
z
" style="fill:#ff0000;opacity:0.2;stroke:#ff0000;stroke-linejoin:miter;"/>
   </g>
   <g id="patch_66">
    <path d="M 411.117113 236.161587 
Q 408.809454 231.630102 407.063339 228.201305 
" style="fill:none;opacity:0.5;stroke:#0000ff;stroke-linecap:round;stroke-width:1.75;"/>
    <path d="M 406.407373 230.218657 
L 407.063339 228.201305 
L 409.080691 228.85727 
" style="fill:none;opacity:0.5;stroke:#0000ff;stroke-linecap:round;stroke-width:1.75;"/>
   </g>
   <g id="patch_67">
    <path clip-path="url(#p8f4b850203)" d="M 426.231982 240.178198 
C 427.157023 240.178198 428.044301 239.924269 428.698403 239.472335 
C 429.352506 239.020402 429.720029 238.407362 429.720029 237.768231 
C 429.720029 237.129101 429.352506 236.516061 428.698403 236.064128 
C 428.044301 235.612194 427.157023 235.358265 426.231982 235.358265 
C 425.306941 235.358265 424.419663 235.612194 423.765561 236.064128 
C 423.111458 236.516061 422.743935 237.129101 422.743935 237.768231 
C 422.743935 238.407362 423.111458 239.020402 423.765561 239.472335 
C 424.419663 239.924269 425.306941 240.178198 426.231982 240.178198 
z
" style="fill:#0000ff;opacity:0.2;stroke:#0000ff;stroke-linejoin:miter;"/>
   </g>
   <g id="patch_68">
    <path clip-path="url(#p8f4b850203)" d="M 427.685335 230.538331 
C 428.610376 230.538331 429.497654 230.284402 430.151756 229.832468 
C 430.805859 229.380535 431.173382 228.767495 431.173382 228.128365 
C 431.173382 227.489234 430.805859 226.876194 430.151756 226.424261 
C 429.497654 225.972327 428.610376 225.718398 427.685335 225.718398 
C 426.760294 225.718398 425.873016 225.972327 425.218913 226.424261 
C 424.564811 226.876194 424.197288 227.489234 424.197288 228.128365 
C 424.197288 228.767495 424.564811 229.380535 425.218913 229.832468 
C 425.873016 230.284402 426.760294 230.538331 427.685335 230.538331 
z
" style="fill:#ff0000;opacity:0.2;stroke:#ff0000;stroke-linejoin:miter;"/>
   </g>
   <g id="patch_69">
    <path d="M 426.231982 237.768231 
Q 426.809278 233.939114 427.070328 232.207612 
" style="fill:none;opacity:0.5;stroke:#0000ff;stroke-linecap:round;stroke-width:3;"/>
    <path d="M 425.36347 233.46723 
L 427.070328 232.207612 
L 428.329945 233.91447 
" style="fill:none;opacity:0.5;stroke:#0000ff;stroke-linecap:round;stroke-width:3;"/>
   </g>
   <g id="patch_70">
    <path clip-path="url(#p8f4b850203)" d="M 398.327608 294.402449 
C 398.944302 294.402449 399.535821 294.233162 399.971889 293.931873 
C 400.407958 293.630584 400.652973 293.221891 400.652973 292.795804 
C 400.652973 292.369717 400.407958 291.961024 399.971889 291.659735 
C 399.535821 291.358446 398.944302 291.18916 398.327608 291.18916 
C 397.710914 291.18916 397.119396 291.358446 396.683327 291.659735 
C 396.247259 291.961024 396.002244 292.369717 396.002244 292.795804 
C 396.002244 293.221891 396.247259 293.630584 396.683327 293.931873 
C 397.119396 294.233162 397.710914 294.402449 398.327608 294.402449 
z
" style="fill:#0000ff;opacity:0.2;stroke:#0000ff;stroke-linejoin:miter;"/>
   </g>
   <g id="patch_71">
    <path clip-path="url(#p8f4b850203)" d="M 405.594372 292.795804 
C 406.211066 292.795804 406.802585 292.626518 407.238653 292.325229 
C 407.674722 292.02394 407.919737 291.615247 407.919737 291.18916 
C 407.919737 290.763073 407.674722 290.35438 407.238653 290.05309 
C 406.802585 289.751801 406.211066 289.582515 405.594372 289.582515 
C 404.977678 289.582515 404.38616 289.751801 403.950091 290.05309 
C 403.514023 290.35438 403.269008 290.763073 403.269008 291.18916 
C 403.269008 291.615247 403.514023 292.02394 403.950091 292.325229 
C 404.38616 292.626518 404.977678 292.795804 405.594372 292.795804 
z
" style="fill:#ff0000;opacity:0.2;stroke:#ff0000;stroke-linejoin:miter;"/>
   </g>
   <g id="patch_72">
    <path d="M 398.327608 292.795804 
Q 400.983454 292.20861 402.258435 291.926718 
" style="fill:none;opacity:0.5;stroke:#0000ff;stroke-linecap:round;stroke-width:2;"/>
    <path d="M 400.469983 290.785911 
L 402.258435 291.926718 
L 401.117627 293.71517 
" style="fill:none;opacity:0.5;stroke:#0000ff;stroke-linecap:round;stroke-width:2;"/>
   </g>
   <g id="patch_73">
    <path clip-path="url(#p8f4b850203)" d="M 377.980669 298.218229 
C 378.520276 298.218229 379.037855 298.070104 379.419415 297.806476 
C 379.800975 297.542848 380.015363 297.185242 380.015363 296.812415 
C 380.015363 296.439589 379.800975 296.081983 379.419415 295.818355 
C 379.037855 295.554727 378.520276 295.406601 377.980669 295.406601 
C 377.441062 295.406601 376.923483 295.554727 376.541923 295.818355 
C 376.160363 296.081983 375.945975 296.439589 375.945975 296.812415 
C 375.945975 297.185242 376.160363 297.542848 376.541923 297.806476 
C 376.923483 298.070104 377.441062 298.218229 377.980669 298.218229 
z
" style="fill:#0000ff;opacity:0.2;stroke:#0000ff;stroke-linejoin:miter;"/>
   </g>
   <g id="patch_74">
    <path clip-path="url(#p8f4b850203)" d="M 405.594372 226.722551 
C 406.133979 226.722551 406.651558 226.574425 407.033118 226.310797 
C 407.414678 226.047169 407.629066 225.689563 407.629066 225.316737 
C 407.629066 224.943911 407.414678 224.586304 407.033118 224.322676 
C 406.651558 224.059048 406.133979 223.910923 405.594372 223.910923 
C 405.054765 223.910923 404.537186 224.059048 404.155626 224.322676 
C 403.774066 224.586304 403.559678 224.943911 403.559678 225.316737 
C 403.559678 225.689563 403.774066 226.047169 404.155626 226.310797 
C 404.537186 226.574425 405.054765 226.722551 405.594372 226.722551 
z
" style="fill:#ff0000;opacity:0.2;stroke:#ff0000;stroke-linejoin:miter;"/>
   </g>
   <g id="patch_75">
    <path d="M 377.980669 296.812415 
Q 391.427686 261.996237 404.428867 228.334389 
" style="fill:none;opacity:0.5;stroke:#0000ff;stroke-linecap:round;stroke-width:1.75;"/>
    <path d="M 402.489172 229.193215 
L 404.428867 228.334389 
L 405.287693 230.274085 
" style="fill:none;opacity:0.5;stroke:#0000ff;stroke-linecap:round;stroke-width:1.75;"/>
   </g>
   <g id="patch_76">
    <path clip-path="url(#p8f4b850203)" d="M 286.128772 308.661418 
C 287.130899 308.661418 288.092117 308.386328 288.800728 307.896733 
C 289.509339 307.407139 289.907489 306.743012 289.907489 306.050621 
C 289.907489 305.358229 289.509339 304.694103 288.800728 304.204509 
C 288.092117 303.714914 287.130899 303.439824 286.128772 303.439824 
C 285.126644 303.439824 284.165426 303.714914 283.456815 304.204509 
C 282.748204 304.694103 282.350054 305.358229 282.350054 306.050621 
C 282.350054 306.743012 282.748204 307.407139 283.456815 307.896733 
C 284.165426 308.386328 285.126644 308.661418 286.128772 308.661418 
z
" style="fill:#0000ff;opacity:0.2;stroke:#0000ff;stroke-linejoin:miter;"/>
   </g>
   <g id="patch_77">
    <path clip-path="url(#p8f4b850203)" d="M 287.582124 308.661418 
C 288.584252 308.661418 289.54547 308.386328 290.254081 307.896733 
C 290.962692 307.407139 291.360842 306.743012 291.360842 306.050621 
C 291.360842 305.358229 290.962692 304.694103 290.254081 304.204509 
C 289.54547 303.714914 288.584252 303.439824 287.582124 303.439824 
C 286.579997 303.439824 285.618779 303.714914 284.910168 304.204509 
C 284.201557 304.694103 283.803407 305.358229 283.803407 306.050621 
C 283.803407 306.743012 284.201557 307.407139 284.910168 307.896733 
C 285.618779 308.386328 286.579997 308.661418 287.582124 308.661418 
z
" style="fill:#ff0000;opacity:0.2;stroke:#ff0000;stroke-linejoin:miter;"/>
   </g>
   <g id="patch_78">
    <path d="M 286.128772 306.050621 
Q 286.855448 306.050621 285.284027 306.050621 
" style="fill:none;opacity:0.5;stroke:#0000ff;stroke-linecap:round;stroke-width:3.25;"/>
    <path d="M 283.784027 304.550621 
L 285.284027 306.050621 
L 283.784027 307.550621 
" style="fill:none;opacity:0.5;stroke:#0000ff;stroke-linecap:round;stroke-width:3.25;"/>
   </g>
   <g id="patch_79">
    <path clip-path="url(#p8f4b850203)" d="M 141.374832 281.750123 
C 142.37696 281.750123 143.338178 281.475033 144.046789 280.985439 
C 144.7554 280.495844 145.15355 279.831718 145.15355 279.139326 
C 145.15355 278.446935 144.7554 277.782809 144.046789 277.293214 
C 143.338178 276.803619 142.37696 276.528529 141.374832 276.528529 
C 140.372705 276.528529 139.411487 276.803619 138.702876 277.293214 
C 137.994265 277.782809 137.596115 278.446935 137.596115 279.139326 
C 137.596115 279.831718 137.994265 280.495844 138.702876 280.985439 
C 139.411487 281.475033 140.372705 281.750123 141.374832 281.750123 
z
" style="fill:#0000ff;opacity:0.2;stroke:#0000ff;stroke-linejoin:miter;"/>
   </g>
   <g id="patch_80">
    <path clip-path="url(#p8f4b850203)" d="M 131.201363 278.135173 
C 132.20349 278.135173 133.164708 277.860083 133.873319 277.370489 
C 134.58193 276.880894 134.98008 276.216768 134.98008 275.524376 
C 134.98008 274.831985 134.58193 274.167858 133.873319 273.678264 
C 133.164708 273.188669 132.20349 272.913579 131.201363 272.913579 
C 130.199235 272.913579 129.238017 273.188669 128.529406 273.678264 
C 127.820795 274.167858 127.422645 274.831985 127.422645 275.524376 
C 127.422645 276.216768 127.820795 276.880894 128.529406 277.370489 
C 129.238017 277.860083 130.199235 278.135173 131.201363 278.135173 
z
" style="fill:#ff0000;opacity:0.2;stroke:#ff0000;stroke-linejoin:miter;"/>
   </g>
   <g id="patch_81">
    <path d="M 141.374832 279.139326 
Q 137.230683 277.666781 135.251989 276.963689 
" style="fill:none;opacity:0.5;stroke:#0000ff;stroke-linecap:round;stroke-width:3.25;"/>
    <path d="M 136.163178 278.879344 
L 135.251989 276.963689 
L 137.167644 276.0525 
" style="fill:none;opacity:0.5;stroke:#0000ff;stroke-linecap:round;stroke-width:3.25;"/>
   </g>
   <g id="patch_82">
    <path clip-path="url(#p8f4b850203)" d="M 288.744807 30.511096 
C 289.669847 30.511096 290.557126 30.257166 291.211228 29.805233 
C 291.865331 29.353299 292.232853 28.74026 292.232853 28.101129 
C 292.232853 27.461998 291.865331 26.848959 291.211228 26.397025 
C 290.557126 25.945092 289.669847 25.691162 288.744807 25.691162 
C 287.819766 25.691162 286.932488 25.945092 286.278385 26.397025 
C 285.624283 26.848959 285.25676 27.461998 285.25676 28.101129 
C 285.25676 28.74026 285.624283 29.353299 286.278385 29.805233 
C 286.932488 30.257166 287.819766 30.511096 288.744807 30.511096 
z
" style="fill:#0000ff;opacity:0.2;stroke:#0000ff;stroke-linejoin:miter;"/>
   </g>
   <g id="patch_83">
    <path clip-path="url(#p8f4b850203)" d="M 289.035477 30.511096 
C 289.960518 30.511096 290.847796 30.257166 291.501899 29.805233 
C 292.156001 29.353299 292.523524 28.74026 292.523524 28.101129 
C 292.523524 27.461998 292.156001 26.848959 291.501899 26.397025 
C 290.847796 25.945092 289.960518 25.691162 289.035477 25.691162 
C 288.110436 25.691162 287.223158 25.945092 286.569056 26.397025 
C 285.914953 26.848959 285.547431 27.461998 285.547431 28.101129 
C 285.547431 28.74026 285.914953 29.353299 286.569056 29.805233 
C 287.223158 30.257166 288.110436 30.511096 289.035477 30.511096 
z
" style="fill:#ff0000;opacity:0.2;stroke:#ff0000;stroke-linejoin:miter;"/>
   </g>
   <g id="patch_84">
    <path d="M 288.744807 28.101129 
Q 288.890142 28.101129 286.914157 28.101129 
" style="fill:none;opacity:0.5;stroke:#ff0000;stroke-linecap:round;stroke-width:3;"/>
    <path d="M 285.414157 26.601129 
L 286.914157 28.101129 
L 285.414157 29.601129 
" style="fill:none;opacity:0.5;stroke:#ff0000;stroke-linecap:round;stroke-width:3;"/>
   </g>
   <g id="patch_85">
    <path clip-path="url(#p8f4b850203)" d="M 408.501078 40.753454 
C 409.349032 40.753454 410.16237 40.520686 410.761964 40.106413 
C 411.361558 39.692141 411.698454 39.130188 411.698454 38.544318 
C 411.698454 37.958448 411.361558 37.396495 410.761964 36.982223 
C 410.16237 36.56795 409.349032 36.335182 408.501078 36.335182 
C 407.653124 36.335182 406.839785 36.56795 406.240191 36.982223 
C 405.640597 37.396495 405.303702 37.958448 405.303702 38.544318 
C 405.303702 39.130188 405.640597 39.692141 406.240191 40.106413 
C 406.839785 40.520686 407.653124 40.753454 408.501078 40.753454 
z
" style="fill:#0000ff;opacity:0.2;stroke:#0000ff;stroke-linejoin:miter;"/>
   </g>
   <g id="patch_86">
    <path clip-path="url(#p8f4b850203)" d="M 408.210407 41.556776 
C 409.058361 41.556776 409.8717 41.324008 410.471294 40.909735 
C 411.070888 40.495463 411.407783 39.93351 411.407783 39.34764 
C 411.407783 38.761771 411.070888 38.199818 410.471294 37.785545 
C 409.8717 37.371273 409.058361 37.138504 408.210407 37.138504 
C 407.362453 37.138504 406.549115 37.371273 405.949521 37.785545 
C 405.349927 38.199818 405.013031 38.761771 405.013031 39.34764 
C 405.013031 39.93351 405.349927 40.495463 405.949521 40.909735 
C 406.549115 41.324008 407.362453 41.556776 408.210407 41.556776 
z
" style="fill:#ff0000;opacity:0.2;stroke:#ff0000;stroke-linejoin:miter;"/>
   </g>
   <g id="patch_87">
    <path d="M 408.501078 38.544318 
Q 408.355743 38.945979 408.872032 37.519116 
" style="fill:none;opacity:0.5;stroke:#ff0000;stroke-linecap:round;stroke-width:2.75;"/>
    <path d="M 410.792907 36.618982 
L 408.872032 37.519116 
L 407.971899 35.598241 
" style="fill:none;opacity:0.5;stroke:#ff0000;stroke-linecap:round;stroke-width:2.75;"/>
   </g>
   <g id="patch_88">
    <path clip-path="url(#p8f4b850203)" d="M 415.477171 103.613419 
C 416.402212 103.613419 417.28949 103.359489 417.943593 102.907556 
C 418.597695 102.455622 418.965218 101.842583 418.965218 101.203452 
C 418.965218 100.564321 418.597695 99.951282 417.943593 99.499348 
C 417.28949 99.047415 416.402212 98.793485 415.477171 98.793485 
C 414.55213 98.793485 413.664852 99.047415 413.01075 99.499348 
C 412.356647 99.951282 411.989125 100.564321 411.989125 101.203452 
C 411.989125 101.842583 412.356647 102.455622 413.01075 102.907556 
C 413.664852 103.359489 414.55213 103.613419 415.477171 103.613419 
z
" style="fill:#0000ff;opacity:0.2;stroke:#0000ff;stroke-linejoin:miter;"/>
   </g>
   <g id="patch_89">
    <path clip-path="url(#p8f4b850203)" d="M 416.349183 100.801791 
C 417.274224 100.801791 418.161502 100.547862 418.815604 100.095928 
C 419.469707 99.643994 419.83723 99.030955 419.83723 98.391824 
C 419.83723 97.752694 419.469707 97.139654 418.815604 96.68772 
C 418.161502 96.235787 417.274224 95.981858 416.349183 95.981858 
C 415.424142 95.981858 414.536864 96.235787 413.882761 96.68772 
C 413.228659 97.139654 412.861136 97.752694 412.861136 98.391824 
C 412.861136 99.030955 413.228659 99.643994 413.882761 100.095928 
C 414.536864 100.547862 415.424142 100.801791 416.349183 100.801791 
z
" style="fill:#ff0000;opacity:0.2;stroke:#ff0000;stroke-linejoin:miter;"/>
   </g>
   <g id="patch_90">
    <path d="M 415.477171 101.203452 
Q 415.617255 100.751779 415.128951 102.326218 
" style="fill:none;opacity:0.5;stroke:#ff0000;stroke-linecap:round;stroke-width:3;"/>
    <path d="M 413.251936 103.314558 
L 415.128951 102.326218 
L 416.117291 104.203233 
" style="fill:none;opacity:0.5;stroke:#ff0000;stroke-linecap:round;stroke-width:3;"/>
   </g>
   <g id="patch_91">
    <path clip-path="url(#p8f4b850203)" d="M 393.386209 105.220063 
C 393.848729 105.220063 394.292368 105.093099 394.619419 104.867132 
C 394.946471 104.641165 395.130232 104.334645 395.130232 104.01508 
C 395.130232 103.695515 394.946471 103.388995 394.619419 103.163028 
C 394.292368 102.937061 393.848729 102.810097 393.386209 102.810097 
C 392.923688 102.810097 392.480049 102.937061 392.152998 103.163028 
C 391.825947 103.388995 391.642185 103.695515 391.642185 104.01508 
C 391.642185 104.334645 391.825947 104.641165 392.152998 104.867132 
C 392.480049 105.093099 392.923688 105.220063 393.386209 105.220063 
z
" style="fill:#0000ff;opacity:0.2;stroke:#0000ff;stroke-linejoin:miter;"/>
   </g>
   <g id="patch_92">
    <path clip-path="url(#p8f4b850203)" d="M 400.652973 100.40013 
C 401.115493 100.40013 401.559132 100.273165 401.886183 100.047198 
C 402.213235 99.821232 402.396996 99.514712 402.396996 99.195146 
C 402.396996 98.875581 402.213235 98.569061 401.886183 98.343095 
C 401.559132 98.117128 401.115493 97.990163 400.652973 97.990163 
C 400.190452 97.990163 399.746813 98.117128 399.419762 98.343095 
C 399.092711 98.569061 398.908949 98.875581 398.908949 99.195146 
C 398.908949 99.514712 399.092711 99.821232 399.419762 100.047198 
C 399.746813 100.273165 400.190452 100.40013 400.652973 100.40013 
z
" style="fill:#ff0000;opacity:0.2;stroke:#ff0000;stroke-linejoin:miter;"/>
   </g>
   <g id="patch_93">
    <path d="M 393.386209 104.01508 
Q 396.187532 102.157005 398.104955 100.885207 
" style="fill:none;opacity:0.5;stroke:#ff0000;stroke-linecap:round;stroke-width:1.5;"/>
    <path d="M 396.025811 100.464305 
L 398.104955 100.885207 
L 397.684053 102.964352 
" style="fill:none;opacity:0.5;stroke:#ff0000;stroke-linecap:round;stroke-width:1.5;"/>
   </g>
   <g id="patch_94">
    <path clip-path="url(#p8f4b850203)" d="M 284.094078 48.987507 
C 285.019119 48.987507 285.906397 48.733578 286.560499 48.281644 
C 287.214602 47.829711 287.582124 47.216671 287.582124 46.57754 
C 287.582124 45.93841 287.214602 45.32537 286.560499 44.873437 
C 285.906397 44.421503 285.019119 44.167574 284.094078 44.167574 
C 283.169037 44.167574 282.281759 44.421503 281.627656 44.873437 
C 280.973554 45.32537 280.606031 45.93841 280.606031 46.57754 
C 280.606031 47.216671 280.973554 47.829711 281.627656 48.281644 
C 282.281759 48.733578 283.169037 48.987507 284.094078 48.987507 
z
" style="fill:#0000ff;opacity:0.2;stroke:#0000ff;stroke-linejoin:miter;"/>
   </g>
   <g id="patch_95">
    <path clip-path="url(#p8f4b850203)" d="M 281.478043 42.96259 
C 282.403083 42.96259 283.290362 42.708661 283.944464 42.256727 
C 284.598567 41.804794 284.966089 41.191754 284.966089 40.552624 
C 284.966089 39.913493 284.598567 39.300453 283.944464 38.84852 
C 283.290362 38.396586 282.403083 38.142657 281.478043 38.142657 
C 280.553002 38.142657 279.665724 38.396586 279.011621 38.84852 
C 278.357519 39.300453 277.989996 39.913493 277.989996 40.552624 
C 277.989996 41.191754 278.357519 41.804794 279.011621 42.256727 
C 279.665724 42.708661 280.553002 42.96259 281.478043 42.96259 
z
" style="fill:#ff0000;opacity:0.2;stroke:#ff0000;stroke-linejoin:miter;"/>
   </g>
   <g id="patch_96">
    <path d="M 284.094078 46.57754 
Q 283.183958 44.481469 283.118715 44.33121 
" style="fill:none;opacity:0.5;stroke:#ff0000;stroke-linecap:round;stroke-width:3;"/>
    <path d="M 282.340237 46.304525 
L 283.118715 44.33121 
L 285.09203 45.109689 
" style="fill:none;opacity:0.5;stroke:#ff0000;stroke-linecap:round;stroke-width:3;"/>
   </g>
   <g id="patch_97">
    <path clip-path="url(#p8f4b850203)" d="M 150.38562 167.075875 
C 151.31066 167.075875 152.197939 166.821946 152.852041 166.370012 
C 153.506144 165.918078 153.873666 165.305039 153.873666 164.665908 
C 153.873666 164.026778 153.506144 163.413738 152.852041 162.961805 
C 152.197939 162.509871 151.31066 162.255942 150.38562 162.255942 
C 149.460579 162.255942 148.573301 162.509871 147.919198 162.961805 
C 147.265096 163.413738 146.897573 164.026778 146.897573 164.665908 
C 146.897573 165.305039 147.265096 165.918078 147.919198 166.370012 
C 148.573301 166.821946 149.460579 167.075875 150.38562 167.075875 
z
" style="fill:#0000ff;opacity:0.2;stroke:#0000ff;stroke-linejoin:miter;"/>
   </g>
   <g id="patch_98">
    <path clip-path="url(#p8f4b850203)" d="M 116.958505 165.067569 
C 117.883546 165.067569 118.770824 164.81364 119.424927 164.361707 
C 120.079029 163.909773 120.446552 163.296733 120.446552 162.657603 
C 120.446552 162.018472 120.079029 161.405433 119.424927 160.953499 
C 118.770824 160.501565 117.883546 160.247636 116.958505 160.247636 
C 116.033464 160.247636 115.146186 160.501565 114.492084 160.953499 
C 113.837981 161.405433 113.470458 162.018472 113.470458 162.657603 
C 113.470458 163.296733 113.837981 163.909773 114.492084 164.361707 
C 115.146186 164.81364 116.033464 165.067569 116.958505 165.067569 
z
" style="fill:#ff0000;opacity:0.2;stroke:#ff0000;stroke-linejoin:miter;"/>
   </g>
   <g id="patch_99">
    <path d="M 150.38562 164.665908 
Q 134.669734 163.721696 121.071351 162.904703 
" style="fill:none;opacity:0.5;stroke:#ff0000;stroke-linecap:round;stroke-width:3;"/>
    <path d="M 122.478693 164.491961 
L 121.071351 162.904703 
L 122.658609 161.497361 
" style="fill:none;opacity:0.5;stroke:#ff0000;stroke-linecap:round;stroke-width:3;"/>
   </g>
   <g id="patch_100">
    <path clip-path="url(#p8f4b850203)" d="M 287.000783 289.984176 
C 287.925824 289.984176 288.813102 289.730247 289.467205 289.278313 
C 290.121307 288.82638 290.48883 288.21334 290.48883 287.57421 
C 290.48883 286.935079 290.121307 286.322039 289.467205 285.870106 
C 288.813102 285.418172 287.925824 285.164243 287.000783 285.164243 
C 286.075743 285.164243 285.188464 285.418172 284.534362 285.870106 
C 283.880259 286.322039 283.512737 286.935079 283.512737 287.57421 
C 283.512737 288.21334 283.880259 288.82638 284.534362 289.278313 
C 285.188464 289.730247 286.075743 289.984176 287.000783 289.984176 
z
" style="fill:#0000ff;opacity:0.2;stroke:#0000ff;stroke-linejoin:miter;"/>
   </g>
   <g id="patch_101">
    <path clip-path="url(#p8f4b850203)" d="M 289.616818 296.009093 
C 290.541859 296.009093 291.429137 295.755164 292.08324 295.30323 
C 292.737342 294.851297 293.104865 294.238257 293.104865 293.599126 
C 293.104865 292.959996 292.737342 292.346956 292.08324 291.895023 
C 291.429137 291.443089 290.541859 291.18916 289.616818 291.18916 
C 288.691778 291.18916 287.804499 291.443089 287.150397 291.895023 
C 286.496294 292.346956 286.128772 292.959996 286.128772 293.599126 
C 286.128772 294.238257 286.496294 294.851297 287.150397 295.30323 
C 287.804499 295.755164 288.691778 296.009093 289.616818 296.009093 
z
" style="fill:#ff0000;opacity:0.2;stroke:#ff0000;stroke-linejoin:miter;"/>
   </g>
   <g id="patch_102">
    <path d="M 287.000783 287.57421 
Q 287.910903 289.670281 287.976146 289.82054 
" style="fill:none;opacity:0.5;stroke:#ff0000;stroke-linecap:round;stroke-width:3;"/>
    <path d="M 288.754624 287.847225 
L 287.976146 289.82054 
L 286.002831 289.042061 
" style="fill:none;opacity:0.5;stroke:#ff0000;stroke-linecap:round;stroke-width:3;"/>
   </g>
   <g id="patch_103">
    <path clip-path="url(#p8f4b850203)" d="M 405.594372 226.52172 
C 406.056893 226.52172 406.500532 226.394755 406.827583 226.168789 
C 407.154634 225.942822 407.338396 225.636302 407.338396 225.316737 
C 407.338396 224.997171 407.154634 224.690652 406.827583 224.464685 
C 406.500532 224.238718 406.056893 224.111753 405.594372 224.111753 
C 405.131852 224.111753 404.688213 224.238718 404.361161 224.464685 
C 404.03411 224.690652 403.850349 224.997171 403.850349 225.316737 
C 403.850349 225.636302 404.03411 225.942822 404.361161 226.168789 
C 404.688213 226.394755 405.131852 226.52172 405.594372 226.52172 
z
" style="fill:#0000ff;opacity:0.2;stroke:#0000ff;stroke-linejoin:miter;"/>
   </g>
   <g id="patch_104">
    <path clip-path="url(#p8f4b850203)" d="M 411.117113 237.36657 
C 411.579633 237.36657 412.023272 237.239606 412.350324 237.013639 
C 412.677375 236.787672 412.861136 236.481152 412.861136 236.161587 
C 412.861136 235.842022 412.677375 235.535502 412.350324 235.309535 
C 412.023272 235.083568 411.579633 234.956604 411.117113 234.956604 
C 410.654592 234.956604 410.210953 235.083568 409.883902 235.309535 
C 409.556851 235.535502 409.373089 235.842022 409.373089 236.161587 
C 409.373089 236.481152 409.556851 236.787672 409.883902 237.013639 
C 410.210953 237.239606 410.654592 237.36657 411.117113 237.36657 
z
" style="fill:#ff0000;opacity:0.2;stroke:#ff0000;stroke-linejoin:miter;"/>
   </g>
   <g id="patch_105">
    <path d="M 405.594372 225.316737 
Q 407.902031 229.848221 409.728367 233.434546 
" style="fill:none;opacity:0.5;stroke:#ff0000;stroke-linecap:round;stroke-width:1.5;"/>
    <path d="M 410.384332 231.417193 
L 409.728367 233.434546 
L 407.711015 232.77858 
" style="fill:none;opacity:0.5;stroke:#ff0000;stroke-linecap:round;stroke-width:1.5;"/>
   </g>
   <g id="patch_106">
    <path clip-path="url(#p8f4b850203)" d="M 427.685335 230.538331 
C 428.610376 230.538331 429.497654 230.284402 430.151756 229.832468 
C 430.805859 229.380535 431.173382 228.767495 431.173382 228.128365 
C 431.173382 227.489234 430.805859 226.876194 430.151756 226.424261 
C 429.497654 225.972327 428.610376 225.718398 427.685335 225.718398 
C 426.760294 225.718398 425.873016 225.972327 425.218913 226.424261 
C 424.564811 226.876194 424.197288 227.489234 424.197288 228.128365 
C 424.197288 228.767495 424.564811 229.380535 425.218913 229.832468 
C 425.873016 230.284402 426.760294 230.538331 427.685335 230.538331 
z
" style="fill:#0000ff;opacity:0.2;stroke:#0000ff;stroke-linejoin:miter;"/>
   </g>
   <g id="patch_107">
    <path clip-path="url(#p8f4b850203)" d="M 426.231982 240.178198 
C 427.157023 240.178198 428.044301 239.924269 428.698403 239.472335 
C 429.352506 239.020402 429.720029 238.407362 429.720029 237.768231 
C 429.720029 237.129101 429.352506 236.516061 428.698403 236.064128 
C 428.044301 235.612194 427.157023 235.358265 426.231982 235.358265 
C 425.306941 235.358265 424.419663 235.612194 423.765561 236.064128 
C 423.111458 236.516061 422.743935 237.129101 422.743935 237.768231 
C 422.743935 238.407362 423.111458 239.020402 423.765561 239.472335 
C 424.419663 239.924269 425.306941 240.178198 426.231982 240.178198 
z
" style="fill:#ff0000;opacity:0.2;stroke:#ff0000;stroke-linejoin:miter;"/>
   </g>
   <g id="patch_108">
    <path d="M 427.685335 228.128365 
Q 427.108039 231.957482 426.846989 233.688984 
" style="fill:none;opacity:0.5;stroke:#ff0000;stroke-linecap:round;stroke-width:3;"/>
    <path d="M 428.553847 232.429366 
L 426.846989 233.688984 
L 425.587371 231.982126 
" style="fill:none;opacity:0.5;stroke:#ff0000;stroke-linecap:round;stroke-width:3;"/>
   </g>
   <g id="patch_109">
    <path clip-path="url(#p8f4b850203)" d="M 405.594372 292.594974 
C 406.133979 292.594974 406.651558 292.446848 407.033118 292.18322 
C 407.414678 291.919592 407.629066 291.561986 407.629066 291.18916 
C 407.629066 290.816333 407.414678 290.458727 407.033118 290.195099 
C 406.651558 289.931471 406.133979 289.783346 405.594372 289.783346 
C 405.054765 289.783346 404.537186 289.931471 404.155626 290.195099 
C 403.774066 290.458727 403.559678 290.816333 403.559678 291.18916 
C 403.559678 291.561986 403.774066 291.919592 404.155626 292.18322 
C 404.537186 292.446848 405.054765 292.594974 405.594372 292.594974 
z
" style="fill:#0000ff;opacity:0.2;stroke:#0000ff;stroke-linejoin:miter;"/>
   </g>
   <g id="patch_110">
    <path clip-path="url(#p8f4b850203)" d="M 398.327608 294.201618 
C 398.867215 294.201618 399.384794 294.053493 399.766354 293.789865 
C 400.147914 293.526237 400.362302 293.16863 400.362302 292.795804 
C 400.362302 292.422978 400.147914 292.065372 399.766354 291.801744 
C 399.384794 291.538116 398.867215 291.38999 398.327608 291.38999 
C 397.788001 291.38999 397.270422 291.538116 396.888862 291.801744 
C 396.507302 292.065372 396.292914 292.422978 396.292914 292.795804 
C 396.292914 293.16863 396.507302 293.526237 396.888862 293.789865 
C 397.270422 294.053493 397.788001 294.201618 398.327608 294.201618 
z
" style="fill:#ff0000;opacity:0.2;stroke:#ff0000;stroke-linejoin:miter;"/>
   </g>
   <g id="patch_111">
    <path d="M 405.594372 291.18916 
Q 402.938526 291.776354 401.490938 292.096408 
" style="fill:none;opacity:0.5;stroke:#ff0000;stroke-linecap:round;stroke-width:1.75;"/>
    <path d="M 403.279389 293.237215 
L 401.490938 292.096408 
L 402.631745 290.307957 
" style="fill:none;opacity:0.5;stroke:#ff0000;stroke-linecap:round;stroke-width:1.75;"/>
   </g>
   <g id="patch_112">
    <path clip-path="url(#p8f4b850203)" d="M 287.582124 308.460588 
C 288.507165 308.460588 289.394443 308.206658 290.048546 307.754725 
C 290.702649 307.302791 291.070171 306.689752 291.070171 306.050621 
C 291.070171 305.41149 290.702649 304.798451 290.048546 304.346517 
C 289.394443 303.894584 288.507165 303.640654 287.582124 303.640654 
C 286.657084 303.640654 285.769806 303.894584 285.115703 304.346517 
C 284.4616 304.798451 284.094078 305.41149 284.094078 306.050621 
C 284.094078 306.689752 284.4616 307.302791 285.115703 307.754725 
C 285.769806 308.206658 286.657084 308.460588 287.582124 308.460588 
z
" style="fill:#0000ff;opacity:0.2;stroke:#0000ff;stroke-linejoin:miter;"/>
   </g>
   <g id="patch_113">
    <path clip-path="url(#p8f4b850203)" d="M 286.128772 308.460588 
C 287.053812 308.460588 287.941091 308.206658 288.595193 307.754725 
C 289.249296 307.302791 289.616818 306.689752 289.616818 306.050621 
C 289.616818 305.41149 289.249296 304.798451 288.595193 304.346517 
C 287.941091 303.894584 287.053812 303.640654 286.128772 303.640654 
C 285.203731 303.640654 284.316453 303.894584 283.66235 304.346517 
C 283.008248 304.798451 282.640725 305.41149 282.640725 306.050621 
C 282.640725 306.689752 283.008248 307.302791 283.66235 307.754725 
C 284.316453 308.206658 285.203731 308.460588 286.128772 308.460588 
z
" style="fill:#ff0000;opacity:0.2;stroke:#ff0000;stroke-linejoin:miter;"/>
   </g>
   <g id="patch_114">
    <path d="M 287.582124 306.050621 
Q 286.855448 306.050621 288.250092 306.050621 
" style="fill:none;opacity:0.5;stroke:#ff0000;stroke-linecap:round;stroke-width:3;"/>
    <path d="M 289.750092 307.550621 
L 288.250092 306.050621 
L 289.750092 304.550621 
" style="fill:none;opacity:0.5;stroke:#ff0000;stroke-linecap:round;stroke-width:3;"/>
   </g>
   <g id="patch_115">
    <path clip-path="url(#p8f4b850203)" d="M 131.201363 278.135173 
C 132.20349 278.135173 133.164708 277.860083 133.873319 277.370489 
C 134.58193 276.880894 134.98008 276.216768 134.98008 275.524376 
C 134.98008 274.831985 134.58193 274.167858 133.873319 273.678264 
C 133.164708 273.188669 132.20349 272.913579 131.201363 272.913579 
C 130.199235 272.913579 129.238017 273.188669 128.529406 273.678264 
C 127.820795 274.167858 127.422645 274.831985 127.422645 275.524376 
C 127.422645 276.216768 127.820795 276.880894 128.529406 277.370489 
C 129.238017 277.860083 130.199235 278.135173 131.201363 278.135173 
z
" style="fill:#0000ff;opacity:0.2;stroke:#0000ff;stroke-linejoin:miter;"/>
   </g>
   <g id="patch_116">
    <path clip-path="url(#p8f4b850203)" d="M 141.374832 281.750123 
C 142.37696 281.750123 143.338178 281.475033 144.046789 280.985439 
C 144.7554 280.495844 145.15355 279.831718 145.15355 279.139326 
C 145.15355 278.446935 144.7554 277.782809 144.046789 277.293214 
C 143.338178 276.803619 142.37696 276.528529 141.374832 276.528529 
C 140.372705 276.528529 139.411487 276.803619 138.702876 277.293214 
C 137.994265 277.782809 137.596115 278.446935 137.596115 279.139326 
C 137.596115 279.831718 137.994265 280.495844 138.702876 280.985439 
C 139.411487 281.475033 140.372705 281.750123 141.374832 281.750123 
z
" style="fill:#ff0000;opacity:0.2;stroke:#ff0000;stroke-linejoin:miter;"/>
   </g>
   <g id="patch_117">
    <path d="M 131.201363 275.524376 
Q 135.345512 276.996921 137.324206 277.700013 
" style="fill:none;opacity:0.5;stroke:#ff0000;stroke-linecap:round;stroke-width:3.25;"/>
    <path d="M 136.413017 275.784358 
L 137.324206 277.700013 
L 135.408551 278.611202 
" style="fill:none;opacity:0.5;stroke:#ff0000;stroke-linecap:round;stroke-width:3.25;"/>
   </g>
   <g id="patch_118">
    <path clip-path="url(#p8f4b850203)" d="M 57.37104 172.699131 
C 58.296081 172.699131 59.183359 172.445201 59.837462 171.993268 
C 60.491564 171.541334 60.859087 170.928295 60.859087 170.289164 
C 60.859087 169.650033 60.491564 169.036994 59.837462 168.58506 
C 59.183359 168.133127 58.296081 167.879197 57.37104 167.879197 
C 56.445999 167.879197 55.558721 168.133127 54.904619 168.58506 
C 54.250516 169.036994 53.882993 169.650033 53.882993 170.289164 
C 53.882993 170.928295 54.250516 171.541334 54.904619 171.993268 
C 55.558721 172.445201 56.445999 172.699131 57.37104 172.699131 
z
" style="fill:#0000ff;opacity:0.2;stroke:#0000ff;stroke-linejoin:miter;"/>
   </g>
   <g id="patch_119">
    <path clip-path="url(#p8f4b850203)" d="M 58.824393 171.092486 
C 59.749434 171.092486 60.636712 170.838557 61.290814 170.386623 
C 61.944917 169.93469 62.31244 169.32165 62.31244 168.682519 
C 62.31244 168.043389 61.944917 167.430349 61.290814 166.978416 
C 60.636712 166.526482 59.749434 166.272553 58.824393 166.272553 
C 57.899352 166.272553 57.012074 166.526482 56.357972 166.978416 
C 55.703869 167.430349 55.336346 168.043389 55.336346 168.682519 
C 55.336346 169.32165 55.703869 169.93469 56.357972 170.386623 
C 57.012074 170.838557 57.899352 171.092486 58.824393 171.092486 
z
" style="fill:#ff0000;opacity:0.2;stroke:#ff0000;stroke-linejoin:miter;"/>
   </g>
   <g id="patch_120">
    <path d="M 57.37104 170.289164 
Q 57.426393 170.227973 56.058672 171.739953 
" style="fill:none;opacity:0.5;stroke:#ff0000;stroke-linecap:round;stroke-width:3;"/>
    <path d="M 53.940009 171.846088 
L 56.058672 171.739953 
L 56.164808 173.858617 
" style="fill:none;opacity:0.5;stroke:#ff0000;stroke-linecap:round;stroke-width:3;"/>
   </g>
   <g id="patch_121">
    <path clip-path="url(#p8f4b850203)" d="M 127.713316 66.258935 
C 128.638357 66.258935 129.525635 66.005006 130.179737 65.553072 
C 130.83384 65.101139 131.201363 64.488099 131.201363 63.848968 
C 131.201363 63.209838 130.83384 62.596798 130.179737 62.144865 
C 129.525635 61.692931 128.638357 61.439002 127.713316 61.439002 
C 126.788275 61.439002 125.900997 61.692931 125.246894 62.144865 
C 124.592792 62.596798 124.225269 63.209838 124.225269 63.848968 
C 124.225269 64.488099 124.592792 65.101139 125.246894 65.553072 
C 125.900997 66.005006 126.788275 66.258935 127.713316 66.258935 
z
" style="fill:#0000ff;opacity:0.2;stroke:#0000ff;stroke-linejoin:miter;"/>
   </g>
   <g id="patch_122">
    <path clip-path="url(#p8f4b850203)" d="M 132.073374 64.652291 
C 132.998415 64.652291 133.885693 64.398361 134.539796 63.946428 
C 135.193898 63.494494 135.561421 62.881455 135.561421 62.242324 
C 135.561421 61.603193 135.193898 60.990154 134.539796 60.53822 
C 133.885693 60.086286 132.998415 59.832357 132.073374 59.832357 
C 131.148334 59.832357 130.261055 60.086286 129.606953 60.53822 
C 128.95285 60.990154 128.585328 61.603193 128.585328 62.242324 
C 128.585328 62.881455 128.95285 63.494494 129.606953 63.946428 
C 130.261055 64.398361 131.148334 64.652291 132.073374 64.652291 
z
" style="fill:#ff0000;opacity:0.2;stroke:#ff0000;stroke-linejoin:miter;"/>
   </g>
   <g id="patch_123">
    <path d="M 127.713316 63.848968 
Q 128.954485 63.391608 128.205173 63.667723 
" style="fill:none;opacity:0.5;stroke:#ff0000;stroke-linecap:round;stroke-width:3;"/>
    <path d="M 126.279045 62.778886 
L 128.205173 63.667723 
L 127.316336 65.593851 
" style="fill:none;opacity:0.5;stroke:#ff0000;stroke-linecap:round;stroke-width:3;"/>
   </g>
   <g id="patch_124">
    <path clip-path="url(#p8f4b850203)" d="M 58.097717 171.494147 
C 58.868584 171.494147 59.607982 171.28254 60.153068 170.905928 
C 60.698153 170.529317 61.004422 170.018451 61.004422 169.485842 
C 61.004422 168.953233 60.698153 168.442367 60.153068 168.065755 
C 59.607982 167.689144 58.868584 167.477536 58.097717 167.477536 
C 57.326849 167.477536 56.587451 167.689144 56.042365 168.065755 
C 55.49728 168.442367 55.191011 168.953233 55.191011 169.485842 
C 55.191011 170.018451 55.49728 170.529317 56.042365 170.905928 
C 56.587451 171.28254 57.326849 171.494147 58.097717 171.494147 
z
" style="fill:#008000;opacity:0.2;stroke:#008000;stroke-linejoin:miter;"/>
   </g>
   <g id="patch_125">
    <path clip-path="url(#p8f4b850203)" d="M 129.893345 65.053952 
C 130.664212 65.053952 131.403611 64.842344 131.948696 64.465733 
C 132.493782 64.089121 132.800051 63.578255 132.800051 63.045646 
C 132.800051 62.513037 132.493782 62.002171 131.948696 61.62556 
C 131.403611 61.248948 130.664212 61.037341 129.893345 61.037341 
C 129.122478 61.037341 128.383079 61.248948 127.837994 61.62556 
C 127.292908 62.002171 126.98664 62.513037 126.98664 63.045646 
C 126.98664 63.578255 127.292908 64.089121 127.837994 64.465733 
C 128.383079 64.842344 129.122478 65.053952 129.893345 65.053952 
z
" style="fill:#008000;opacity:0.2;stroke:#008000;stroke-linejoin:miter;"/>
   </g>
   <g id="patch_126">
    <path clip-path="url(#p8f4b850203)" d="M 288.890142 30.109435 
C 289.661009 30.109435 290.400408 29.897827 290.945493 29.521216 
C 291.490579 29.144604 291.796848 28.633738 291.796848 28.101129 
C 291.796848 27.56852 291.490579 27.057654 290.945493 26.681043 
C 290.400408 26.304431 289.661009 26.092823 288.890142 26.092823 
C 288.119275 26.092823 287.379876 26.304431 286.834791 26.681043 
C 286.289705 27.057654 285.983436 27.56852 285.983436 28.101129 
C 285.983436 28.633738 286.289705 29.144604 286.834791 29.521216 
C 287.379876 29.897827 288.119275 30.109435 288.890142 30.109435 
z
" style="fill:#008000;opacity:0.2;stroke:#008000;stroke-linejoin:miter;"/>
   </g>
   <g id="patch_127">
    <path clip-path="url(#p8f4b850203)" d="M 408.355743 40.954285 
C 409.12661 40.954285 409.866008 40.742677 410.411094 40.366066 
C 410.956179 39.989454 411.262448 39.478588 411.262448 38.945979 
C 411.262448 38.41337 410.956179 37.902504 410.411094 37.525893 
C 409.866008 37.149281 409.12661 36.937674 408.355743 36.937674 
C 407.584875 36.937674 406.845477 37.149281 406.300391 37.525893 
C 405.755306 37.902504 405.449037 38.41337 405.449037 38.945979 
C 405.449037 39.478588 405.755306 39.989454 406.300391 40.366066 
C 406.845477 40.742677 407.584875 40.954285 408.355743 40.954285 
z
" style="fill:#008000;opacity:0.2;stroke:#008000;stroke-linejoin:miter;"/>
   </g>
   <g id="patch_128">
    <path clip-path="url(#p8f4b850203)" d="M 415.913177 101.805944 
C 416.684044 101.805944 417.423443 101.594336 417.968528 101.217725 
C 418.513614 100.841113 418.819883 100.330247 418.819883 99.797638 
C 418.819883 99.265029 418.513614 98.754163 417.968528 98.377552 
C 417.423443 98.00094 416.684044 97.789333 415.913177 97.789333 
C 415.14231 97.789333 414.402911 98.00094 413.857826 98.377552 
C 413.31274 98.754163 413.006471 99.265029 413.006471 99.797638 
C 413.006471 100.330247 413.31274 100.841113 413.857826 101.217725 
C 414.402911 101.594336 415.14231 101.805944 415.913177 101.805944 
z
" style="fill:#008000;opacity:0.2;stroke:#008000;stroke-linejoin:miter;"/>
   </g>
   <g id="patch_129">
    <path clip-path="url(#p8f4b850203)" d="M 397.019591 103.613419 
C 397.790458 103.613419 398.529856 103.401811 399.074942 103.0252 
C 399.620027 102.648588 399.926296 102.137722 399.926296 101.605113 
C 399.926296 101.072504 399.620027 100.561638 399.074942 100.185027 
C 398.529856 99.808415 397.790458 99.596808 397.019591 99.596808 
C 396.248723 99.596808 395.509325 99.808415 394.964239 100.185027 
C 394.419154 100.561638 394.112885 101.072504 394.112885 101.605113 
C 394.112885 102.137722 394.419154 102.648588 394.964239 103.0252 
C 395.509325 103.401811 396.248723 103.613419 397.019591 103.613419 
z
" style="fill:#008000;opacity:0.2;stroke:#008000;stroke-linejoin:miter;"/>
   </g>
   <g id="patch_130">
    <path clip-path="url(#p8f4b850203)" d="M 282.78606 45.573388 
C 283.556928 45.573388 284.296326 45.36178 284.841411 44.985168 
C 285.386497 44.608557 285.692766 44.097691 285.692766 43.565082 
C 285.692766 43.032473 285.386497 42.521607 284.841411 42.144996 
C 284.296326 41.768384 283.556928 41.556776 282.78606 41.556776 
C 282.015193 41.556776 281.275794 41.768384 280.730709 42.144996 
C 280.185623 42.521607 279.879355 43.032473 279.879355 43.565082 
C 279.879355 44.097691 280.185623 44.608557 280.730709 44.985168 
C 281.275794 45.36178 282.015193 45.573388 282.78606 45.573388 
z
" style="fill:#008000;opacity:0.2;stroke:#008000;stroke-linejoin:miter;"/>
   </g>
   <g id="patch_131">
    <path clip-path="url(#p8f4b850203)" d="M 133.672062 165.670061 
C 134.44293 165.670061 135.182328 165.458453 135.727414 165.081842 
C 136.272499 164.705231 136.578768 164.194364 136.578768 163.661756 
C 136.578768 163.129147 136.272499 162.61828 135.727414 162.241669 
C 135.182328 161.865058 134.44293 161.65345 133.672062 161.65345 
C 132.901195 161.65345 132.161797 161.865058 131.616711 162.241669 
C 131.071626 162.61828 130.765357 163.129147 130.765357 163.661756 
C 130.765357 164.194364 131.071626 164.705231 131.616711 165.081842 
C 132.161797 165.458453 132.901195 165.670061 133.672062 165.670061 
z
" style="fill:#008000;opacity:0.2;stroke:#008000;stroke-linejoin:miter;"/>
   </g>
   <g id="patch_132">
    <path clip-path="url(#p8f4b850203)" d="M 288.308801 292.594974 
C 289.079668 292.594974 289.819067 292.383366 290.364152 292.006754 
C 290.909238 291.630143 291.215506 291.119277 291.215506 290.586668 
C 291.215506 290.054059 290.909238 289.543193 290.364152 289.166582 
C 289.819067 288.78997 289.079668 288.578362 288.308801 288.578362 
C 287.537934 288.578362 286.798535 288.78997 286.25345 289.166582 
C 285.708364 289.543193 285.402095 290.054059 285.402095 290.586668 
C 285.402095 291.119277 285.708364 291.630143 286.25345 292.006754 
C 286.798535 292.383366 287.537934 292.594974 288.308801 292.594974 
z
" style="fill:#008000;opacity:0.2;stroke:#008000;stroke-linejoin:miter;"/>
   </g>
   <g id="patch_133">
    <path clip-path="url(#p8f4b850203)" d="M 408.355743 232.747467 
C 409.12661 232.747467 409.866008 232.53586 410.411094 232.159248 
C 410.956179 231.782637 411.262448 231.271771 411.262448 230.739162 
C 411.262448 230.206553 410.956179 229.695687 410.411094 229.319075 
C 409.866008 228.942464 409.12661 228.730856 408.355743 228.730856 
C 407.584875 228.730856 406.845477 228.942464 406.300391 229.319075 
C 405.755306 229.695687 405.449037 230.206553 405.449037 230.739162 
C 405.449037 231.271771 405.755306 231.782637 406.300391 232.159248 
C 406.845477 232.53586 407.584875 232.747467 408.355743 232.747467 
z
" style="fill:#008000;opacity:0.2;stroke:#008000;stroke-linejoin:miter;"/>
   </g>
   <g id="patch_134">
    <path clip-path="url(#p8f4b850203)" d="M 426.958658 234.956604 
C 427.729526 234.956604 428.468924 234.744996 429.01401 234.368384 
C 429.559095 233.991773 429.865364 233.480907 429.865364 232.948298 
C 429.865364 232.415689 429.559095 231.904823 429.01401 231.528211 
C 428.468924 231.1516 427.729526 230.939992 426.958658 230.939992 
C 426.187791 230.939992 425.448393 231.1516 424.903307 231.528211 
C 424.358222 231.904823 424.051953 232.415689 424.051953 232.948298 
C 424.051953 233.480907 424.358222 233.991773 424.903307 234.368384 
C 425.448393 234.744996 426.187791 234.956604 426.958658 234.956604 
z
" style="fill:#008000;opacity:0.2;stroke:#008000;stroke-linejoin:miter;"/>
   </g>
   <g id="patch_135">
    <path clip-path="url(#p8f4b850203)" d="M 401.96099 294.000787 
C 402.731857 294.000787 403.471256 293.78918 404.016341 293.412568 
C 404.561427 293.035957 404.867696 292.525091 404.867696 291.992482 
C 404.867696 291.459873 404.561427 290.949007 404.016341 290.572395 
C 403.471256 290.195784 402.731857 289.984176 401.96099 289.984176 
C 401.190123 289.984176 400.450724 290.195784 399.905639 290.572395 
C 399.360553 290.949007 399.054285 291.459873 399.054285 291.992482 
C 399.054285 292.525091 399.360553 293.035957 399.905639 293.412568 
C 400.450724 293.78918 401.190123 294.000787 401.96099 294.000787 
z
" style="fill:#008000;opacity:0.2;stroke:#008000;stroke-linejoin:miter;"/>
   </g>
   <g id="patch_136">
    <path clip-path="url(#p8f4b850203)" d="M 286.855448 308.058927 
C 287.626315 308.058927 288.365714 307.847319 288.910799 307.470707 
C 289.455885 307.094096 289.762154 306.58323 289.762154 306.050621 
C 289.762154 305.518012 289.455885 305.007146 288.910799 304.630534 
C 288.365714 304.253923 287.626315 304.042315 286.855448 304.042315 
C 286.084581 304.042315 285.345182 304.253923 284.800097 304.630534 
C 284.255011 305.007146 283.948742 305.518012 283.948742 306.050621 
C 283.948742 306.58323 284.255011 307.094096 284.800097 307.470707 
C 285.345182 307.847319 286.084581 308.058927 286.855448 308.058927 
z
" style="fill:#008000;opacity:0.2;stroke:#008000;stroke-linejoin:miter;"/>
   </g>
   <g id="patch_137">
    <path clip-path="url(#p8f4b850203)" d="M 136.288097 279.340157 
C 137.058965 279.340157 137.798363 279.128549 138.343449 278.751938 
C 138.888534 278.375326 139.194803 277.86446 139.194803 277.331851 
C 139.194803 276.799242 138.888534 276.288376 138.343449 275.911765 
C 137.798363 275.535153 137.058965 275.323546 136.288097 275.323546 
C 135.51723 275.323546 134.777832 275.535153 134.232746 275.911765 
C 133.687661 276.288376 133.381392 276.799242 133.381392 277.331851 
C 133.381392 277.86446 133.687661 278.375326 134.232746 278.751938 
C 134.777832 279.128549 135.51723 279.340157 136.288097 279.340157 
z
" style="fill:#008000;opacity:0.2;stroke:#008000;stroke-linejoin:miter;"/>
   </g>
   <g id="patch_138">
    <path d="M 58.097717 169.485842 
Q 93.995531 116.265744 129.893345 63.045646 
" style="fill:none;opacity:0.5;stroke:#008000;stroke-linecap:round;stroke-width:2;"/>
   </g>
   <g id="patch_139">
    <path d="M 57.875678 169.7313 
Q 58.769041 168.74371 59.662403 167.75612 
" style="fill:none;opacity:0.5;stroke:#800080;stroke-linecap:round;stroke-width:2;"/>
    <path d="M 55.757014 169.837435 
L 57.875678 169.7313 
L 57.981813 171.849963 
" style="fill:none;opacity:0.5;stroke:#800080;stroke-linecap:round;stroke-width:2;"/>
    <path d="M 61.781067 167.649985 
L 59.662403 167.75612 
L 59.556268 165.637457 
" style="fill:none;opacity:0.5;stroke:#800080;stroke-linecap:round;stroke-width:2;"/>
   </g>
   <g id="patch_140">
    <path d="M 129.893345 63.045646 
Q 209.391744 45.573388 288.890142 28.101129 
" style="fill:none;opacity:0.5;stroke:#008000;stroke-linecap:round;stroke-width:2;"/>
   </g>
   <g id="patch_141">
    <path d="M 130.746387 62.731307 
Q 130.832205 62.699684 130.918024 62.668061 
" style="fill:none;opacity:0.5;stroke:#800080;stroke-linecap:round;stroke-width:2;"/>
    <path d="M 128.820259 61.84247 
L 130.746387 62.731307 
L 129.85755 64.657435 
" style="fill:none;opacity:0.5;stroke:#800080;stroke-linecap:round;stroke-width:2;"/>
    <path d="M 132.844151 63.556898 
L 130.918024 62.668061 
L 131.806861 60.741933 
" style="fill:none;opacity:0.5;stroke:#800080;stroke-linecap:round;stroke-width:2;"/>
   </g>
   <g id="patch_142">
    <path d="M 288.890142 28.101129 
Q 348.622942 33.523554 408.355743 38.945979 
" style="fill:none;opacity:0.5;stroke:#008000;stroke-linecap:round;stroke-width:2;"/>
   </g>
   <g id="patch_143">
    <path d="M 287.621264 28.101129 
Q 288.890142 28.101129 290.15902 28.101129 
" style="fill:none;opacity:0.5;stroke:#800080;stroke-linecap:round;stroke-width:2;"/>
    <path d="M 286.121264 26.601129 
L 287.621264 28.101129 
L 286.121264 29.601129 
" style="fill:none;opacity:0.5;stroke:#800080;stroke-linecap:round;stroke-width:2;"/>
    <path d="M 291.65902 29.601129 
L 290.15902 28.101129 
L 291.65902 26.601129 
" style="fill:none;opacity:0.5;stroke:#800080;stroke-linecap:round;stroke-width:2;"/>
   </g>
   <g id="patch_144">
    <path d="M 408.355743 38.945979 
Q 412.13446 69.371809 415.913177 99.797638 
" style="fill:none;opacity:0.5;stroke:#008000;stroke-linecap:round;stroke-width:2;"/>
   </g>
   <g id="patch_145">
    <path d="M 408.691589 38.017804 
Q 408.355743 38.945979 408.019896 39.874154 
" style="fill:none;opacity:0.5;stroke:#800080;stroke-linecap:round;stroke-width:2;"/>
    <path d="M 410.612464 37.117671 
L 408.691589 38.017804 
L 407.791456 36.09693 
" style="fill:none;opacity:0.5;stroke:#800080;stroke-linecap:round;stroke-width:2;"/>
    <path d="M 406.099021 40.774288 
L 408.019896 39.874154 
L 408.920029 41.795029 
" style="fill:none;opacity:0.5;stroke:#800080;stroke-linecap:round;stroke-width:2;"/>
   </g>
   <g id="patch_146">
    <path d="M 415.913177 99.797638 
Q 406.466384 100.701376 397.019591 101.605113 
" style="fill:none;opacity:0.5;stroke:#008000;stroke-linecap:round;stroke-width:2;"/>
   </g>
   <g id="patch_147">
    <path d="M 415.930258 99.742565 
Q 416.209099 98.843497 416.48794 97.944428 
" style="fill:none;opacity:0.5;stroke:#800080;stroke-linecap:round;stroke-width:2;"/>
    <path d="M 414.053243 100.730905 
L 415.930258 99.742565 
L 416.918598 101.61958 
" style="fill:none;opacity:0.5;stroke:#800080;stroke-linecap:round;stroke-width:2;"/>
    <path d="M 418.364955 96.956088 
L 416.48794 97.944428 
L 415.4996 96.067414 
" style="fill:none;opacity:0.5;stroke:#800080;stroke-linecap:round;stroke-width:2;"/>
   </g>
   <g id="patch_148">
    <path d="M 397.019591 101.605113 
Q 339.902825 72.585098 282.78606 43.565082 
" style="fill:none;opacity:0.5;stroke:#008000;stroke-linecap:round;stroke-width:2;"/>
   </g>
   <g id="patch_149">
    <path d="M 399.474439 99.976849 
Q 397.851649 101.053221 396.228859 102.129593 
" style="fill:none;opacity:0.5;stroke:#800080;stroke-linecap:round;stroke-width:2;"/>
    <path d="M 397.395295 99.555948 
L 399.474439 99.976849 
L 399.053538 102.055994 
" style="fill:none;opacity:0.5;stroke:#800080;stroke-linecap:round;stroke-width:2;"/>
    <path d="M 398.308004 102.550495 
L 396.228859 102.129593 
L 396.649761 100.050449 
" style="fill:none;opacity:0.5;stroke:#800080;stroke-linecap:round;stroke-width:2;"/>
   </g>
   <g id="patch_150">
    <path d="M 282.78606 43.565082 
Q 208.229061 103.613419 133.672062 163.661756 
" style="fill:none;opacity:0.5;stroke:#008000;stroke-linecap:round;stroke-width:2;"/>
   </g>
   <g id="patch_151">
    <path d="M 282.041294 41.849831 
Q 282.388162 42.648695 282.735031 43.447558 
" style="fill:none;opacity:0.5;stroke:#800080;stroke-linecap:round;stroke-width:2;"/>
    <path d="M 281.262815 43.823146 
L 282.041294 41.849831 
L 284.014609 42.62831 
" style="fill:none;opacity:0.5;stroke:#800080;stroke-linecap:round;stroke-width:2;"/>
    <path d="M 283.513509 41.474243 
L 282.735031 43.447558 
L 280.761716 42.669079 
" style="fill:none;opacity:0.5;stroke:#800080;stroke-linecap:round;stroke-width:2;"/>
   </g>
   <g id="patch_152">
    <path d="M 133.672062 163.661756 
Q 210.990432 227.124212 288.308801 290.586668 
" style="fill:none;opacity:0.5;stroke:#008000;stroke-linecap:round;stroke-width:2;"/>
   </g>
   <g id="patch_153">
    <path d="M 118.370173 162.742416 
Q 132.67439 163.601815 146.978608 164.461215 
" style="fill:none;opacity:0.5;stroke:#800080;stroke-linecap:round;stroke-width:2;"/>
    <path d="M 119.777515 164.329674 
L 118.370173 162.742416 
L 119.957431 161.335074 
" style="fill:none;opacity:0.5;stroke:#800080;stroke-linecap:round;stroke-width:2;"/>
    <path d="M 145.571265 162.873956 
L 146.978608 164.461215 
L 145.391349 165.868557 
" style="fill:none;opacity:0.5;stroke:#800080;stroke-linecap:round;stroke-width:2;"/>
   </g>
   <g id="patch_154">
    <path d="M 288.308801 290.586668 
Q 348.332272 260.662915 408.355743 230.739162 
" style="fill:none;opacity:0.5;stroke:#008000;stroke-linecap:round;stroke-width:2;"/>
   </g>
   <g id="patch_155">
    <path d="M 289.053567 292.301919 
Q 288.706699 291.503055 288.35983 290.704192 
" style="fill:none;opacity:0.5;stroke:#800080;stroke-linecap:round;stroke-width:2;"/>
    <path d="M 289.832046 290.328604 
L 289.053567 292.301919 
L 287.080253 291.52344 
" style="fill:none;opacity:0.5;stroke:#800080;stroke-linecap:round;stroke-width:2;"/>
    <path d="M 287.581352 292.677507 
L 288.35983 290.704192 
L 290.333145 291.482671 
" style="fill:none;opacity:0.5;stroke:#800080;stroke-linecap:round;stroke-width:2;"/>
   </g>
   <g id="patch_156">
    <path d="M 408.355743 230.739162 
Q 417.6572 231.84373 426.958658 232.948298 
" style="fill:none;opacity:0.5;stroke:#008000;stroke-linecap:round;stroke-width:2;"/>
   </g>
   <g id="patch_157">
    <path d="M 410.475349 234.901373 
Q 408.809454 231.630102 407.143559 228.358831 
" style="fill:none;opacity:0.5;stroke:#800080;stroke-linecap:round;stroke-width:2;"/>
    <path d="M 411.131314 232.884021 
L 410.475349 234.901373 
L 408.457997 234.245408 
" style="fill:none;opacity:0.5;stroke:#800080;stroke-linecap:round;stroke-width:2;"/>
    <path d="M 406.487594 230.376184 
L 407.143559 228.358831 
L 409.160911 229.014797 
" style="fill:none;opacity:0.5;stroke:#800080;stroke-linecap:round;stroke-width:2;"/>
   </g>
   <g id="patch_158">
    <path d="M 426.958658 232.948298 
Q 414.459824 262.47039 401.96099 291.992482 
" style="fill:none;opacity:0.5;stroke:#008000;stroke-linecap:round;stroke-width:2;"/>
   </g>
   <g id="patch_159">
    <path d="M 426.442813 236.369821 
Q 426.809278 233.939114 427.175743 231.508407 
" style="fill:none;opacity:0.5;stroke:#800080;stroke-linecap:round;stroke-width:2;"/>
    <path d="M 428.149671 235.110204 
L 426.442813 236.369821 
L 425.183195 234.662964 
" style="fill:none;opacity:0.5;stroke:#800080;stroke-linecap:round;stroke-width:2;"/>
    <path d="M 425.468886 232.768025 
L 427.175743 231.508407 
L 428.435361 233.215265 
" style="fill:none;opacity:0.5;stroke:#800080;stroke-linecap:round;stroke-width:2;"/>
   </g>
   <g id="patch_160">
    <path d="M 286.855448 306.050621 
Q 211.571773 291.691236 136.288097 277.331851 
" style="fill:none;opacity:0.5;stroke:#008000;stroke-linecap:round;stroke-width:2;"/>
   </g>
   <g id="patch_161">
    <path d="M 287.542985 306.050621 
Q 286.855448 306.050621 286.167911 306.050621 
" style="fill:none;opacity:0.5;stroke:#800080;stroke-linecap:round;stroke-width:2;"/>
    <path d="M 289.042985 307.550621 
L 287.542985 306.050621 
L 289.042985 304.550621 
" style="fill:none;opacity:0.5;stroke:#800080;stroke-linecap:round;stroke-width:2;"/>
    <path d="M 284.667911 304.550621 
L 286.167911 306.050621 
L 284.667911 307.550621 
" style="fill:none;opacity:0.5;stroke:#800080;stroke-linecap:round;stroke-width:2;"/>
   </g>
   <g id="patch_162">
    <path d="M 136.288097 277.331851 
Q 97.192907 223.408846 58.097717 169.485842 
" style="fill:none;opacity:0.5;stroke:#008000;stroke-linecap:round;stroke-width:2;"/>
   </g>
   <g id="patch_163">
    <path d="M 140.042245 278.665817 
Q 137.230683 277.666781 134.419122 276.667746 
" style="fill:none;opacity:0.5;stroke:#800080;stroke-linecap:round;stroke-width:2;"/>
    <path d="M 139.131056 276.750162 
L 140.042245 278.665817 
L 138.12659 279.577006 
" style="fill:none;opacity:0.5;stroke:#800080;stroke-linecap:round;stroke-width:2;"/>
    <path d="M 135.330311 278.583401 
L 134.419122 276.667746 
L 136.334777 275.756557 
" style="fill:none;opacity:0.5;stroke:#800080;stroke-linecap:round;stroke-width:2;"/>
   </g>
   <g id="line2d_1">
    <path clip-path="url(#p8f4b850203)" d="M 58.824393 168.682519 
L 132.073374 62.242324 
L 289.035477 28.101129 
L 391.932856 37.740996 
L 408.210407 39.34764 
L 416.349183 98.391824 
L 400.652973 99.195146 
L 281.478043 40.552624 
L 116.958505 162.657603 
L 289.616818 293.599126 
L 411.117113 236.161587 
L 426.231982 237.768231 
L 398.327608 292.795804 
L 377.980669 296.812415 
L 286.128772 306.050621 
L 141.374832 279.139326 
" style="fill:none;stroke:#ff0000;stroke-linecap:square;stroke-width:0.2;"/>
   </g>
   <g id="line2d_2">
    <path clip-path="url(#p8f4b850203)" d="M 288.744807 28.101129 
L 408.501078 38.544318 
L 415.477171 101.203452 
L 393.386209 104.01508 
L 284.094078 46.57754 
L 150.38562 164.665908 
L 287.000783 287.57421 
L 405.594372 225.316737 
L 427.685335 228.128365 
L 405.594372 291.18916 
L 287.582124 306.050621 
L 131.201363 275.524376 
L 57.37104 170.289164 
L 127.713316 63.848968 
" style="fill:none;stroke:#0000ff;stroke-linecap:square;stroke-width:0.2;"/>
   </g>
  </g>
 </g>
 <defs>
  <clipPath id="p8f4b850203">
   <rect height="307.51175" width="409.903625" x="37.576375" y="13.32"/>
  </clipPath>
 </defs>
</svg>
