<?xml version="1.0" encoding="utf-8" standalone="no"?>
<!DOCTYPE svg PUBLIC "-//W3C//DTD SVG 1.1//EN"
  "http://www.w3.org/Graphics/SVG/1.1/DTD/svg11.dtd">
<!-- Created with matplotlib (http://matplotlib.org/) -->
<svg height="345.6pt" version="1.1" viewBox="0 0 460.8 345.6" width="460.8pt" xmlns="http://www.w3.org/2000/svg" xmlns:xlink="http://www.w3.org/1999/xlink">
 <defs>
  <style type="text/css">
*{stroke-linecap:butt;stroke-linejoin:round;}
  </style>
 </defs>
 <g id="figure_1">
  <g id="patch_1">
   <path d="M 0 345.6 
L 460.8 345.6 
L 460.8 0 
L 0 0 
z
" style="fill:#ffffff;"/>
  </g>
  <g id="axes_1">
   <g id="patch_2">
    <path clip-path="url(#p8e8412b47a)" d="M 263.116014 230.925116 
C 264.208005 230.925116 265.255418 230.74329 266.027572 230.419683 
C 266.799727 230.096077 267.233579 229.65711 267.233579 229.199461 
C 267.233579 228.741812 266.799727 228.302845 266.027572 227.979238 
C 265.255418 227.655632 264.208005 227.473806 263.116014 227.473806 
C 262.024023 227.473806 260.97661 227.655632 260.204456 227.979238 
C 259.432301 228.302845 258.998449 228.741812 258.998449 229.199461 
C 258.998449 229.65711 259.432301 230.096077 260.204456 230.419683 
C 260.97661 230.74329 262.024023 230.925116 263.116014 230.925116 
z
" style="fill:#ff0000;opacity:0.2;stroke:#ff0000;stroke-linejoin:miter;"/>
   </g>
   <g id="patch_3">
    <path clip-path="url(#p8e8412b47a)" d="M 104.58975 148.093668 
C 105.681741 148.093668 106.729154 147.911842 107.501308 147.588236 
C 108.273463 147.264629 108.707315 146.825662 108.707315 146.368013 
C 108.707315 145.910364 108.273463 145.471397 107.501308 145.147791 
C 106.729154 144.824184 105.681741 144.642358 104.58975 144.642358 
C 103.497759 144.642358 102.450346 144.824184 101.678192 145.147791 
C 100.906038 145.471397 100.472185 145.910364 100.472185 146.368013 
C 100.472185 146.825662 100.906038 147.264629 101.678192 147.588236 
C 102.450346 147.911842 103.497759 148.093668 104.58975 148.093668 
z
" style="fill:#ff0000;opacity:0.2;stroke:#ff0000;stroke-linejoin:miter;"/>
   </g>
   <g id="patch_4">
    <path clip-path="url(#p8e8412b47a)" d="M 345.46732 30.749117 
C 346.559311 30.749117 347.606724 30.567291 348.378878 30.243684 
C 349.151032 29.920078 349.584885 29.481111 349.584885 29.023462 
C 349.584885 28.565813 349.151032 28.126846 348.378878 27.80324 
C 347.606724 27.479633 346.559311 27.297807 345.46732 27.297807 
C 344.375329 27.297807 343.327916 27.479633 342.555762 27.80324 
C 341.783607 28.126846 341.349755 28.565813 341.349755 29.023462 
C 341.349755 29.481111 341.783607 29.920078 342.555762 30.243684 
C 343.327916 30.567291 344.375329 30.749117 345.46732 30.749117 
z
" style="fill:#ff0000;opacity:0.2;stroke:#ff0000;stroke-linejoin:miter;"/>
   </g>
   <g id="patch_5">
    <path clip-path="url(#p8e8412b47a)" d="M 359.878798 48.868496 
C 360.970789 48.868496 362.018202 48.68667 362.790357 48.363064 
C 363.562511 48.039457 363.996364 47.60049 363.996364 47.142841 
C 363.996364 46.685192 363.562511 46.246226 362.790357 45.922619 
C 362.018202 45.599012 360.970789 45.417186 359.878798 45.417186 
C 358.786807 45.417186 357.739394 45.599012 356.96724 45.922619 
C 356.195086 46.246226 355.761233 46.685192 355.761233 47.142841 
C 355.761233 47.60049 356.195086 48.039457 356.96724 48.363064 
C 357.739394 48.68667 358.786807 48.868496 359.878798 48.868496 
z
" style="fill:#ff0000;opacity:0.2;stroke:#ff0000;stroke-linejoin:miter;"/>
   </g>
   <g id="patch_6">
    <path clip-path="url(#p8e8412b47a)" d="M 203.411317 123.071668 
C 204.503308 123.071668 205.550721 122.889842 206.322876 122.566236 
C 207.09503 122.242629 207.528883 121.803662 207.528883 121.346013 
C 207.528883 120.888364 207.09503 120.449398 206.322876 120.125791 
C 205.550721 119.802184 204.503308 119.620358 203.411317 119.620358 
C 202.319326 119.620358 201.271913 119.802184 200.499759 120.125791 
C 199.727605 120.449398 199.293752 120.888364 199.293752 121.346013 
C 199.293752 121.803662 199.727605 122.242629 200.499759 122.566236 
C 201.271913 122.889842 202.319326 123.071668 203.411317 123.071668 
z
" style="fill:#ff0000;opacity:0.2;stroke:#ff0000;stroke-linejoin:miter;"/>
   </g>
   <g id="patch_7">
    <path clip-path="url(#p8e8412b47a)" d="M 306.35045 171.390013 
C 307.442441 171.390013 308.489854 171.208187 309.262008 170.88458 
C 310.034162 170.560973 310.468015 170.122007 310.468015 169.664358 
C 310.468015 169.206709 310.034162 168.767742 309.262008 168.444135 
C 308.489854 168.120528 307.442441 167.938703 306.35045 167.938703 
C 305.258458 167.938703 304.211046 168.120528 303.438891 168.444135 
C 302.666737 168.767742 302.232884 169.206709 302.232884 169.664358 
C 302.232884 170.122007 302.666737 170.560973 303.438891 170.88458 
C 304.211046 171.208187 305.258458 171.390013 306.35045 171.390013 
z
" style="fill:#ff0000;opacity:0.2;stroke:#ff0000;stroke-linejoin:miter;"/>
   </g>
   <g id="patch_8">
    <path clip-path="url(#p8e8412b47a)" d="M 361.937581 195.549185 
C 363.029572 195.549185 364.076985 195.367359 364.849139 195.043752 
C 365.621294 194.720146 366.055146 194.281179 366.055146 193.82353 
C 366.055146 193.365881 365.621294 192.926914 364.849139 192.603308 
C 364.076985 192.279701 363.029572 192.097875 361.937581 192.097875 
C 360.84559 192.097875 359.798177 192.279701 359.026023 192.603308 
C 358.253868 192.926914 357.820016 193.365881 357.820016 193.82353 
C 357.820016 194.281179 358.253868 194.720146 359.026023 195.043752 
C 359.798177 195.367359 360.84559 195.549185 361.937581 195.549185 
z
" style="fill:#ff0000;opacity:0.2;stroke:#ff0000;stroke-linejoin:miter;"/>
   </g>
   <g id="patch_9">
    <path clip-path="url(#p8e8412b47a)" d="M 264.145405 306.853943 
C 265.237396 306.853943 266.284809 306.672117 267.056964 306.34851 
C 267.829118 306.024904 268.262971 305.585937 268.262971 305.128288 
C 268.262971 304.670639 267.829118 304.231672 267.056964 303.908066 
C 266.284809 303.584459 265.237396 303.402633 264.145405 303.402633 
C 263.053414 303.402633 262.006001 303.584459 261.233847 303.908066 
C 260.461693 304.231672 260.02784 304.670639 260.02784 305.128288 
C 260.02784 305.585937 260.461693 306.024904 261.233847 306.34851 
C 262.006001 306.672117 263.053414 306.853943 264.145405 306.853943 
z
" style="fill:#0000ff;opacity:0.2;stroke:#0000ff;stroke-linejoin:miter;"/>
   </g>
   <g id="patch_10">
    <path clip-path="url(#p8e8412b47a)" d="M 60.325923 201.588978 
C 61.417914 201.588978 62.465327 201.407152 63.237482 201.083546 
C 64.009636 200.759939 64.443489 200.320972 64.443489 199.863323 
C 64.443489 199.405674 64.009636 198.966707 63.237482 198.643101 
C 62.465327 198.319494 61.417914 198.137668 60.325923 198.137668 
C 59.233932 198.137668 58.186519 198.319494 57.414365 198.643101 
C 56.642211 198.966707 56.208358 199.405674 56.208358 199.863323 
C 56.208358 200.320972 56.642211 200.759939 57.414365 201.083546 
C 58.186519 201.407152 59.233932 201.588978 60.325923 201.588978 
z
" style="fill:#0000ff;opacity:0.2;stroke:#0000ff;stroke-linejoin:miter;"/>
   </g>
   <g id="patch_11">
    <path clip-path="url(#p8e8412b47a)" d="M 385.613581 54.908289 
C 386.705573 54.908289 387.752986 54.726464 388.52514 54.402857 
C 389.297294 54.07925 389.731147 53.640283 389.731147 53.182634 
C 389.731147 52.724985 389.297294 52.286019 388.52514 51.962412 
C 387.752986 51.638805 386.705573 51.456979 385.613581 51.456979 
C 384.52159 51.456979 383.474177 51.638805 382.702023 51.962412 
C 381.929869 52.286019 381.496016 52.724985 381.496016 53.182634 
C 381.496016 53.640283 381.929869 54.07925 382.702023 54.402857 
C 383.474177 54.726464 384.52159 54.908289 385.613581 54.908289 
z
" style="fill:#0000ff;opacity:0.2;stroke:#0000ff;stroke-linejoin:miter;"/>
   </g>
   <g id="patch_12">
    <path clip-path="url(#p8e8412b47a)" d="M 406.201408 81.655944 
C 407.293399 81.655944 408.340812 81.474119 409.112966 81.150512 
C 409.885121 80.826905 410.318973 80.387938 410.318973 79.930289 
C 410.318973 79.47264 409.885121 79.033674 409.112966 78.710067 
C 408.340812 78.38646 407.293399 78.204634 406.201408 78.204634 
C 405.109417 78.204634 404.062004 78.38646 403.28985 78.710067 
C 402.517695 79.033674 402.083843 79.47264 402.083843 79.930289 
C 402.083843 80.387938 402.517695 80.826905 403.28985 81.150512 
C 404.062004 81.474119 405.109417 81.655944 406.201408 81.655944 
z
" style="fill:#0000ff;opacity:0.2;stroke:#0000ff;stroke-linejoin:miter;"/>
   </g>
   <g id="patch_13">
    <path clip-path="url(#p8e8412b47a)" d="M 231.204883 161.89891 
C 232.296874 161.89891 233.344287 161.717084 234.116441 161.393477 
C 234.888596 161.06987 235.322448 160.630903 235.322448 160.173254 
C 235.322448 159.715605 234.888596 159.276639 234.116441 158.953032 
C 233.344287 158.629425 232.296874 158.447599 231.204883 158.447599 
C 230.112892 158.447599 229.065479 158.629425 228.293325 158.953032 
C 227.52117 159.276639 227.087318 159.715605 227.087318 160.173254 
C 227.087318 160.630903 227.52117 161.06987 228.293325 161.393477 
C 229.065479 161.717084 230.112892 161.89891 231.204883 161.89891 
z
" style="fill:#0000ff;opacity:0.2;stroke:#0000ff;stroke-linejoin:miter;"/>
   </g>
   <g id="patch_14">
    <path clip-path="url(#p8e8412b47a)" d="M 344.437929 215.39422 
C 345.52992 215.39422 346.577333 215.212394 347.349487 214.888787 
C 348.121641 214.56518 348.555494 214.126213 348.555494 213.668564 
C 348.555494 213.210915 348.121641 212.771949 347.349487 212.448342 
C 346.577333 212.124735 345.52992 211.942909 344.437929 211.942909 
C 343.345937 211.942909 342.298524 212.124735 341.52637 212.448342 
C 340.754216 212.771949 340.320363 213.210915 340.320363 213.668564 
C 340.320363 214.126213 340.754216 214.56518 341.52637 214.888787 
C 342.298524 215.212394 343.345937 215.39422 344.437929 215.39422 
z
" style="fill:#0000ff;opacity:0.2;stroke:#0000ff;stroke-linejoin:miter;"/>
   </g>
   <g id="patch_15">
    <path clip-path="url(#p8e8412b47a)" d="M 406.201408 253.358633 
C 407.293399 253.358633 408.340812 253.176807 409.112966 252.8532 
C 409.885121 252.529594 410.318973 252.090627 410.318973 251.632978 
C 410.318973 251.175329 409.885121 250.736362 409.112966 250.412756 
C 408.340812 250.089149 407.293399 249.907323 406.201408 249.907323 
C 405.109417 249.907323 404.062004 250.089149 403.28985 250.412756 
C 402.517695 250.736362 402.083843 251.175329 402.083843 251.632978 
C 402.083843 252.090627 402.517695 252.529594 403.28985 252.8532 
C 404.062004 253.176807 405.109417 253.358633 406.201408 253.358633 
z
" style="fill:#0000ff;opacity:0.2;stroke:#0000ff;stroke-linejoin:miter;"/>
   </g>
   <g id="patch_16">
    <path clip-path="url(#p8e8412b47a)" d="M 263.116014 229.199461 
C 178.705925 229.199461 104.58975 191.235047 104.58975 146.368013 
C 104.58975 86.83291 215.764013 45.417186 345.46732 29.023462 
C 361.937581 32.474772 370.172712 41.103048 359.878798 47.142841 
C 283.70384 61.81091 203.411317 85.970082 203.411317 121.346013 
C 203.411317 154.133461 267.233579 168.80153 306.35045 169.664358 
C 335.173407 170.527185 361.937581 177.429806 361.937581 193.82353 
C 361.937581 206.765944 343.408537 229.199461 263.116014 229.199461 
" style="fill:none;stroke:#ff0000;stroke-linejoin:miter;stroke-width:0.5;"/>
   </g>
   <g id="patch_17">
    <path clip-path="url(#p8e8412b47a)" d="M 264.145405 305.128288 
C 179.735317 305.128288 60.325923 274.929323 60.325923 199.863323 
C 60.325923 119.620358 214.734622 69.576358 385.613581 53.182634 
C 420.612886 54.908289 428.848017 73.890496 406.201408 79.930289 
C 332.085233 91.147048 231.204883 119.620358 231.204883 160.173254 
C 231.204883 196.412013 295.027145 208.491599 344.437929 213.668564 
C 379.437234 217.982702 406.201408 231.787944 406.201408 251.632978 
C 406.201408 280.969116 342.379146 305.128288 264.145405 305.128288 
" style="fill:none;stroke:#0000ff;stroke-linejoin:miter;stroke-width:0.5;"/>
   </g>
   <g id="patch_18">
    <path clip-path="url(#p8e8412b47a)" d="M 263.116014 234.376426 
C 266.391987 234.376426 269.534226 233.830949 271.850689 232.860128 
C 274.167152 231.889308 275.46871 230.572408 275.46871 229.199461 
C 275.46871 227.826514 274.167152 226.509614 271.850689 225.538793 
C 269.534226 224.567973 266.391987 224.022495 263.116014 224.022495 
C 259.840041 224.022495 256.697802 224.567973 254.381339 225.538793 
C 252.064876 226.509614 250.763318 227.826514 250.763318 229.199461 
C 250.763318 230.572408 252.064876 231.889308 254.381339 232.860128 
C 256.697802 233.830949 259.840041 234.376426 263.116014 234.376426 
z
" style="fill:#0000ff;opacity:0.2;stroke:#0000ff;stroke-linejoin:miter;"/>
   </g>
   <g id="patch_19">
    <path clip-path="url(#p8e8412b47a)" d="M 264.145405 310.305254 
C 267.421379 310.305254 270.563617 309.759776 272.88008 308.788955 
C 275.196543 307.818135 276.498101 306.501235 276.498101 305.128288 
C 276.498101 303.755341 275.196543 302.438441 272.88008 301.467621 
C 270.563617 300.4968 267.421379 299.951323 264.145405 299.951323 
C 260.869432 299.951323 257.727193 300.4968 255.41073 301.467621 
C 253.094267 302.438441 251.792709 303.755341 251.792709 305.128288 
C 251.792709 306.501235 253.094267 307.818135 255.41073 308.788955 
C 257.727193 309.759776 260.869432 310.305254 264.145405 310.305254 
z
" style="fill:#ff0000;opacity:0.2;stroke:#ff0000;stroke-linejoin:miter;"/>
   </g>
   <g id="patch_20">
    <path d="M 263.116014 229.199461 
Q 263.61717 266.165177 264.089569 301.009767 
" style="fill:none;opacity:0.5;stroke:#0000ff;stroke-linecap:round;stroke-width:3;"/>
    <path d="M 265.569097 299.489571 
L 264.089569 301.009767 
L 262.569373 299.530239 
" style="fill:none;opacity:0.5;stroke:#0000ff;stroke-linecap:round;stroke-width:3;"/>
   </g>
   <g id="patch_21">
    <path clip-path="url(#p8e8412b47a)" d="M 104.58975 151.544979 
C 107.865723 151.544979 111.007962 150.999501 113.324425 150.02868 
C 115.640888 149.05786 116.942446 147.74096 116.942446 146.368013 
C 116.942446 144.995066 115.640888 143.678166 113.324425 142.707346 
C 111.007962 141.736525 107.865723 141.191048 104.58975 141.191048 
C 101.313777 141.191048 98.171538 141.736525 95.855075 142.707346 
C 93.538612 143.678166 92.237054 144.995066 92.237054 146.368013 
C 92.237054 147.74096 93.538612 149.05786 95.855075 150.02868 
C 98.171538 150.999501 101.313777 151.544979 104.58975 151.544979 
z
" style="fill:#0000ff;opacity:0.2;stroke:#0000ff;stroke-linejoin:miter;"/>
   </g>
   <g id="patch_22">
    <path clip-path="url(#p8e8412b47a)" d="M 231.204883 165.35022 
C 234.480856 165.35022 237.623095 164.804742 239.939558 163.833922 
C 242.256021 162.863101 243.557579 161.546202 243.557579 160.173254 
C 243.557579 158.800307 242.256021 157.483407 239.939558 156.512587 
C 237.623095 155.541767 234.480856 154.996289 231.204883 154.996289 
C 227.92891 154.996289 224.786671 155.541767 222.470208 156.512587 
C 220.153745 157.483407 218.852187 158.800307 218.852187 160.173254 
C 218.852187 161.546202 220.153745 162.863101 222.470208 163.833922 
C 224.786671 164.804742 227.92891 165.35022 231.204883 165.35022 
z
" style="fill:#ff0000;opacity:0.2;stroke:#ff0000;stroke-linejoin:miter;"/>
   </g>
   <g id="patch_23">
    <path d="M 104.58975 146.368013 
Q 166.90234 153.162148 227.106107 159.726352 
" style="fill:none;opacity:0.5;stroke:#0000ff;stroke-linecap:round;stroke-width:3;"/>
    <path d="M 225.777531 158.072603 
L 227.106107 159.726352 
L 225.452359 161.054929 
" style="fill:none;opacity:0.5;stroke:#0000ff;stroke-linecap:round;stroke-width:3;"/>
   </g>
   <g id="patch_24">
    <path clip-path="url(#p8e8412b47a)" d="M 345.46732 33.769014 
C 348.470295 33.769014 351.350681 33.268992 353.474105 32.379074 
C 355.59753 31.489155 356.790624 30.281997 356.790624 29.023462 
C 356.790624 27.764927 355.59753 26.557769 353.474105 25.66785 
C 351.350681 24.777932 348.470295 24.27791 345.46732 24.27791 
C 342.464344 24.27791 339.583959 24.777932 337.460534 25.66785 
C 335.33711 26.557769 334.144015 27.764927 334.144015 29.023462 
C 334.144015 30.281997 335.33711 31.489155 337.460534 32.379074 
C 339.583959 33.268992 342.464344 33.769014 345.46732 33.769014 
z
" style="fill:#0000ff;opacity:0.2;stroke:#0000ff;stroke-linejoin:miter;"/>
   </g>
   <g id="patch_25">
    <path clip-path="url(#p8e8412b47a)" d="M 385.613581 57.928186 
C 388.616557 57.928186 391.496943 57.428165 393.620367 56.538246 
C 395.743791 55.648327 396.936886 54.441169 396.936886 53.182634 
C 396.936886 51.924099 395.743791 50.716941 393.620367 49.827022 
C 391.496943 48.937104 388.616557 48.437083 385.613581 48.437083 
C 382.610606 48.437083 379.73022 48.937104 377.606796 49.827022 
C 375.483372 50.716941 374.290277 51.924099 374.290277 53.182634 
C 374.290277 54.441169 375.483372 55.648327 377.606796 56.538246 
C 379.73022 57.428165 382.610606 57.928186 385.613581 57.928186 
z
" style="fill:#ff0000;opacity:0.2;stroke:#ff0000;stroke-linejoin:miter;"/>
   </g>
   <g id="patch_26">
    <path d="M 345.46732 29.023462 
Q 364.684059 40.58769 382.234675 51.14928 
" style="fill:none;opacity:0.5;stroke:#0000ff;stroke-linecap:round;stroke-width:2.75;"/>
    <path d="M 381.722869 49.090626 
L 382.234675 51.14928 
L 380.176021 51.661085 
" style="fill:none;opacity:0.5;stroke:#0000ff;stroke-linecap:round;stroke-width:2.75;"/>
   </g>
   <g id="patch_27">
    <path clip-path="url(#p8e8412b47a)" d="M 359.878798 50.162738 
C 361.789783 50.162738 363.622755 49.844542 364.974025 49.278231 
C 366.325295 48.711919 367.084538 47.943727 367.084538 47.142841 
C 367.084538 46.341955 366.325295 45.573764 364.974025 45.007452 
C 363.622755 44.44114 361.789783 44.122945 359.878798 44.122945 
C 357.967814 44.122945 356.134841 44.44114 354.783571 45.007452 
C 353.432301 45.573764 352.673059 46.341955 352.673059 47.142841 
C 352.673059 47.943727 353.432301 48.711919 354.783571 49.278231 
C 356.134841 49.844542 357.967814 50.162738 359.878798 50.162738 
z
" style="fill:#0000ff;opacity:0.2;stroke:#0000ff;stroke-linejoin:miter;"/>
   </g>
   <g id="patch_28">
    <path clip-path="url(#p8e8412b47a)" d="M 406.201408 82.950186 
C 408.112392 82.950186 409.945365 82.63199 411.296635 82.065679 
C 412.647905 81.499367 413.407147 80.731175 413.407147 79.930289 
C 413.407147 79.129403 412.647905 78.361212 411.296635 77.7949 
C 409.945365 77.228588 408.112392 76.910393 406.201408 76.910393 
C 404.290424 76.910393 402.457451 77.228588 401.106181 77.7949 
C 399.754911 78.361212 398.995669 79.129403 398.995669 79.930289 
C 398.995669 80.731175 399.754911 81.499367 401.106181 82.065679 
C 402.457451 82.63199 404.290424 82.950186 406.201408 82.950186 
z
" style="fill:#ff0000;opacity:0.2;stroke:#ff0000;stroke-linejoin:miter;"/>
   </g>
   <g id="patch_29">
    <path d="M 359.878798 47.142841 
Q 382.224425 62.959223 403.560022 78.060699 
" style="fill:none;opacity:0.5;stroke:#0000ff;stroke-linecap:round;stroke-width:1.75;"/>
    <path d="M 403.202277 75.969761 
L 403.560022 78.060699 
L 401.469084 78.418443 
" style="fill:none;opacity:0.5;stroke:#0000ff;stroke-linecap:round;stroke-width:1.75;"/>
   </g>
   <g id="patch_30">
    <path clip-path="url(#p8e8412b47a)" d="M 203.411317 126.522979 
C 206.68729 126.522979 209.829529 125.977501 212.145992 125.006681 
C 214.462455 124.03586 215.764013 122.71896 215.764013 121.346013 
C 215.764013 119.973066 214.462455 118.656166 212.145992 117.685346 
C 209.829529 116.714525 206.68729 116.169048 203.411317 116.169048 
C 200.135344 116.169048 196.993105 116.714525 194.676642 117.685346 
C 192.360179 118.656166 191.058621 119.973066 191.058621 121.346013 
C 191.058621 122.71896 192.360179 124.03586 194.676642 125.006681 
C 196.993105 125.977501 200.135344 126.522979 203.411317 126.522979 
z
" style="fill:#0000ff;opacity:0.2;stroke:#0000ff;stroke-linejoin:miter;"/>
   </g>
   <g id="patch_31">
    <path clip-path="url(#p8e8412b47a)" d="M 231.204883 165.35022 
C 234.480856 165.35022 237.623095 164.804742 239.939558 163.833922 
C 242.256021 162.863101 243.557579 161.546202 243.557579 160.173254 
C 243.557579 158.800307 242.256021 157.483407 239.939558 156.512587 
C 237.623095 155.541767 234.480856 154.996289 231.204883 154.996289 
C 227.92891 154.996289 224.786671 155.541767 222.470208 156.512587 
C 220.153745 157.483407 218.852187 158.800307 218.852187 160.173254 
C 218.852187 161.546202 220.153745 162.863101 222.470208 163.833922 
C 224.786671 164.804742 227.92891 165.35022 231.204883 165.35022 
z
" style="fill:#ff0000;opacity:0.2;stroke:#ff0000;stroke-linejoin:miter;"/>
   </g>
   <g id="patch_32">
    <path d="M 203.411317 121.346013 
Q 216.725392 139.945598 228.804715 156.820252 
" style="fill:none;opacity:0.5;stroke:#0000ff;stroke-linecap:round;stroke-width:3;"/>
    <path d="M 229.151325 154.72744 
L 228.804715 156.820252 
L 226.711903 156.473642 
" style="fill:none;opacity:0.5;stroke:#0000ff;stroke-linecap:round;stroke-width:3;"/>
   </g>
   <g id="patch_33">
    <path clip-path="url(#p8e8412b47a)" d="M 306.35045 172.25284 
C 307.988436 172.25284 309.559556 171.980102 310.717787 171.494691 
C 311.876019 171.009281 312.526797 170.350831 312.526797 169.664358 
C 312.526797 168.977884 311.876019 168.319434 310.717787 167.834024 
C 309.559556 167.348614 307.988436 167.075875 306.35045 167.075875 
C 304.712463 167.075875 303.141343 167.348614 301.983112 167.834024 
C 300.824881 168.319434 300.174102 168.977884 300.174102 169.664358 
C 300.174102 170.350831 300.824881 171.009281 301.983112 171.494691 
C 303.141343 171.980102 304.712463 172.25284 306.35045 172.25284 
z
" style="fill:#0000ff;opacity:0.2;stroke:#0000ff;stroke-linejoin:miter;"/>
   </g>
   <g id="patch_34">
    <path clip-path="url(#p8e8412b47a)" d="M 344.437929 216.257047 
C 346.075915 216.257047 347.647035 215.984308 348.805266 215.498898 
C 349.963497 215.013488 350.614276 214.355038 350.614276 213.668564 
C 350.614276 212.982091 349.963497 212.323641 348.805266 211.838231 
C 347.647035 211.352821 346.075915 211.080082 344.437929 211.080082 
C 342.799942 211.080082 341.228822 211.352821 340.070591 211.838231 
C 338.91236 212.323641 338.261581 212.982091 338.261581 213.668564 
C 338.261581 214.355038 338.91236 215.013488 340.070591 215.498898 
C 341.228822 215.984308 342.799942 216.257047 344.437929 216.257047 
z
" style="fill:#ff0000;opacity:0.2;stroke:#ff0000;stroke-linejoin:miter;"/>
   </g>
   <g id="patch_35">
    <path d="M 306.35045 169.664358 
Q 324.739793 190.910407 342.434993 211.354481 
" style="fill:none;opacity:0.5;stroke:#0000ff;stroke-linecap:round;stroke-width:1.5;"/>
    <path d="M 342.587491 209.238649 
L 342.434993 211.354481 
L 340.319161 211.201984 
" style="fill:none;opacity:0.5;stroke:#0000ff;stroke-linecap:round;stroke-width:1.5;"/>
   </g>
   <g id="patch_36">
    <path clip-path="url(#p8e8412b47a)" d="M 361.937581 199.000496 
C 365.213554 199.000496 368.355793 198.455018 370.672256 197.484197 
C 372.988719 196.513377 374.290277 195.196477 374.290277 193.82353 
C 374.290277 192.450583 372.988719 191.133683 370.672256 190.162863 
C 368.355793 189.192042 365.213554 188.646565 361.937581 188.646565 
C 358.661608 188.646565 355.519369 189.192042 353.202906 190.162863 
C 350.886443 191.133683 349.584885 192.450583 349.584885 193.82353 
C 349.584885 195.196477 350.886443 196.513377 353.202906 197.484197 
C 355.519369 198.455018 358.661608 199.000496 361.937581 199.000496 
z
" style="fill:#0000ff;opacity:0.2;stroke:#0000ff;stroke-linejoin:miter;"/>
   </g>
   <g id="patch_37">
    <path clip-path="url(#p8e8412b47a)" d="M 406.201408 256.809943 
C 409.477381 256.809943 412.61962 256.264466 414.936083 255.293645 
C 417.252546 254.322825 418.554104 253.005925 418.554104 251.632978 
C 418.554104 250.260031 417.252546 248.943131 414.936083 247.972311 
C 412.61962 247.00149 409.477381 246.456012 406.201408 246.456012 
C 402.925435 246.456012 399.783196 247.00149 397.466733 247.972311 
C 395.15027 248.943131 393.848712 250.260031 393.848712 251.632978 
C 393.848712 253.005925 395.15027 254.322825 397.466733 255.293645 
C 399.783196 256.264466 402.925435 256.809943 406.201408 256.809943 
z
" style="fill:#ff0000;opacity:0.2;stroke:#ff0000;stroke-linejoin:miter;"/>
   </g>
   <g id="patch_38">
    <path d="M 361.937581 193.82353 
Q 383.460272 221.932598 403.693327 248.357374 
" style="fill:none;opacity:0.5;stroke:#0000ff;stroke-linecap:round;stroke-width:3;"/>
    <path d="M 403.97239 246.25449 
L 403.693327 248.357374 
L 401.590443 248.078311 
" style="fill:none;opacity:0.5;stroke:#0000ff;stroke-linecap:round;stroke-width:3;"/>
   </g>
   <g id="patch_39">
    <path clip-path="url(#p8e8412b47a)" d="M 264.145405 310.305254 
C 267.421379 310.305254 270.563617 309.759776 272.88008 308.788955 
C 275.196543 307.818135 276.498101 306.501235 276.498101 305.128288 
C 276.498101 303.755341 275.196543 302.438441 272.88008 301.467621 
C 270.563617 300.4968 267.421379 299.951323 264.145405 299.951323 
C 260.869432 299.951323 257.727193 300.4968 255.41073 301.467621 
C 253.094267 302.438441 251.792709 303.755341 251.792709 305.128288 
C 251.792709 306.501235 253.094267 307.818135 255.41073 308.788955 
C 257.727193 309.759776 260.869432 310.305254 264.145405 310.305254 
z
" style="fill:#0000ff;opacity:0.2;stroke:#0000ff;stroke-linejoin:miter;"/>
   </g>
   <g id="patch_40">
    <path clip-path="url(#p8e8412b47a)" d="M 263.116014 234.376426 
C 266.391987 234.376426 269.534226 233.830949 271.850689 232.860128 
C 274.167152 231.889308 275.46871 230.572408 275.46871 229.199461 
C 275.46871 227.826514 274.167152 226.509614 271.850689 225.538793 
C 269.534226 224.567973 266.391987 224.022495 263.116014 224.022495 
C 259.840041 224.022495 256.697802 224.567973 254.381339 225.538793 
C 252.064876 226.509614 250.763318 227.826514 250.763318 229.199461 
C 250.763318 230.572408 252.064876 231.889308 254.381339 232.860128 
C 256.697802 233.830949 259.840041 234.376426 263.116014 234.376426 
z
" style="fill:#ff0000;opacity:0.2;stroke:#ff0000;stroke-linejoin:miter;"/>
   </g>
   <g id="patch_41">
    <path d="M 264.145405 305.128288 
Q 263.644249 268.162572 263.17185 233.317982 
" style="fill:none;opacity:0.5;stroke:#ff0000;stroke-linecap:round;stroke-width:3;"/>
    <path d="M 261.692322 234.838178 
L 263.17185 233.317982 
L 264.692046 234.79751 
" style="fill:none;opacity:0.5;stroke:#ff0000;stroke-linecap:round;stroke-width:3;"/>
   </g>
   <g id="patch_42">
    <path clip-path="url(#p8e8412b47a)" d="M 60.325923 205.040289 
C 63.601896 205.040289 66.744135 204.494811 69.060598 203.52399 
C 71.377061 202.55317 72.678619 201.23627 72.678619 199.863323 
C 72.678619 198.490376 71.377061 197.173476 69.060598 196.202656 
C 66.744135 195.231835 63.601896 194.686358 60.325923 194.686358 
C 57.04995 194.686358 53.907711 195.231835 51.591248 196.202656 
C 49.274785 197.173476 47.973227 198.490376 47.973227 199.863323 
C 47.973227 201.23627 49.274785 202.55317 51.591248 203.52399 
C 53.907711 204.494811 57.04995 205.040289 60.325923 205.040289 
z
" style="fill:#0000ff;opacity:0.2;stroke:#0000ff;stroke-linejoin:miter;"/>
   </g>
   <g id="patch_43">
    <path clip-path="url(#p8e8412b47a)" d="M 104.58975 151.544979 
C 107.865723 151.544979 111.007962 150.999501 113.324425 150.02868 
C 115.640888 149.05786 116.942446 147.74096 116.942446 146.368013 
C 116.942446 144.995066 115.640888 143.678166 113.324425 142.707346 
C 111.007962 141.736525 107.865723 141.191048 104.58975 141.191048 
C 101.313777 141.191048 98.171538 141.736525 95.855075 142.707346 
C 93.538612 143.678166 92.237054 144.995066 92.237054 146.368013 
C 92.237054 147.74096 93.538612 149.05786 95.855075 150.02868 
C 98.171538 150.999501 101.313777 151.544979 104.58975 151.544979 
z
" style="fill:#ff0000;opacity:0.2;stroke:#ff0000;stroke-linejoin:miter;"/>
   </g>
   <g id="patch_44">
    <path d="M 60.325923 199.863323 
Q 81.821598 173.884598 101.964936 149.540248 
" style="fill:none;opacity:0.5;stroke:#ff0000;stroke-linecap:round;stroke-width:3;"/>
    <path d="M 99.853011 149.739679 
L 101.964936 149.540248 
L 102.164367 151.652173 
" style="fill:none;opacity:0.5;stroke:#ff0000;stroke-linecap:round;stroke-width:3;"/>
   </g>
   <g id="patch_45">
    <path clip-path="url(#p8e8412b47a)" d="M 385.613581 57.928186 
C 388.616557 57.928186 391.496943 57.428165 393.620367 56.538246 
C 395.743791 55.648327 396.936886 54.441169 396.936886 53.182634 
C 396.936886 51.924099 395.743791 50.716941 393.620367 49.827022 
C 391.496943 48.937104 388.616557 48.437083 385.613581 48.437083 
C 382.610606 48.437083 379.73022 48.937104 377.606796 49.827022 
C 375.483372 50.716941 374.290277 51.924099 374.290277 53.182634 
C 374.290277 54.441169 375.483372 55.648327 377.606796 56.538246 
C 379.73022 57.428165 382.610606 57.928186 385.613581 57.928186 
z
" style="fill:#0000ff;opacity:0.2;stroke:#0000ff;stroke-linejoin:miter;"/>
   </g>
   <g id="patch_46">
    <path clip-path="url(#p8e8412b47a)" d="M 345.46732 33.769014 
C 348.470295 33.769014 351.350681 33.268992 353.474105 32.379074 
C 355.59753 31.489155 356.790624 30.281997 356.790624 29.023462 
C 356.790624 27.764927 355.59753 26.557769 353.474105 25.66785 
C 351.350681 24.777932 348.470295 24.27791 345.46732 24.27791 
C 342.464344 24.27791 339.583959 24.777932 337.460534 25.66785 
C 335.33711 26.557769 334.144015 27.764927 334.144015 29.023462 
C 334.144015 30.281997 335.33711 31.489155 337.460534 32.379074 
C 339.583959 33.268992 342.464344 33.769014 345.46732 33.769014 
z
" style="fill:#ff0000;opacity:0.2;stroke:#ff0000;stroke-linejoin:miter;"/>
   </g>
   <g id="patch_47">
    <path d="M 385.613581 53.182634 
Q 366.396842 41.618406 348.846226 31.056817 
" style="fill:none;opacity:0.5;stroke:#ff0000;stroke-linecap:round;stroke-width:2.75;"/>
    <path d="M 349.358032 33.11547 
L 348.846226 31.056817 
L 350.90488 30.545011 
" style="fill:none;opacity:0.5;stroke:#ff0000;stroke-linecap:round;stroke-width:2.75;"/>
   </g>
   <g id="patch_48">
    <path clip-path="url(#p8e8412b47a)" d="M 406.201408 82.950186 
C 408.112392 82.950186 409.945365 82.63199 411.296635 82.065679 
C 412.647905 81.499367 413.407147 80.731175 413.407147 79.930289 
C 413.407147 79.129403 412.647905 78.361212 411.296635 77.7949 
C 409.945365 77.228588 408.112392 76.910393 406.201408 76.910393 
C 404.290424 76.910393 402.457451 77.228588 401.106181 77.7949 
C 399.754911 78.361212 398.995669 79.129403 398.995669 79.930289 
C 398.995669 80.731175 399.754911 81.499367 401.106181 82.065679 
C 402.457451 82.63199 404.290424 82.950186 406.201408 82.950186 
z
" style="fill:#0000ff;opacity:0.2;stroke:#0000ff;stroke-linejoin:miter;"/>
   </g>
   <g id="patch_49">
    <path clip-path="url(#p8e8412b47a)" d="M 359.878798 50.162738 
C 361.789783 50.162738 363.622755 49.844542 364.974025 49.278231 
C 366.325295 48.711919 367.084538 47.943727 367.084538 47.142841 
C 367.084538 46.341955 366.325295 45.573764 364.974025 45.007452 
C 363.622755 44.44114 361.789783 44.122945 359.878798 44.122945 
C 357.967814 44.122945 356.134841 44.44114 354.783571 45.007452 
C 353.432301 45.573764 352.673059 46.341955 352.673059 47.142841 
C 352.673059 47.943727 353.432301 48.711919 354.783571 49.278231 
C 356.134841 49.844542 357.967814 50.162738 359.878798 50.162738 
z
" style="fill:#ff0000;opacity:0.2;stroke:#ff0000;stroke-linejoin:miter;"/>
   </g>
   <g id="patch_50">
    <path d="M 406.201408 79.930289 
Q 383.855781 64.113908 362.520185 49.012432 
" style="fill:none;opacity:0.5;stroke:#ff0000;stroke-linecap:round;stroke-width:1.75;"/>
    <path d="M 362.877929 51.103369 
L 362.520185 49.012432 
L 364.611122 48.654687 
" style="fill:none;opacity:0.5;stroke:#ff0000;stroke-linecap:round;stroke-width:1.75;"/>
   </g>
   <g id="patch_51">
    <path clip-path="url(#p8e8412b47a)" d="M 231.204883 165.35022 
C 234.480856 165.35022 237.623095 164.804742 239.939558 163.833922 
C 242.256021 162.863101 243.557579 161.546202 243.557579 160.173254 
C 243.557579 158.800307 242.256021 157.483407 239.939558 156.512587 
C 237.623095 155.541767 234.480856 154.996289 231.204883 154.996289 
C 227.92891 154.996289 224.786671 155.541767 222.470208 156.512587 
C 220.153745 157.483407 218.852187 158.800307 218.852187 160.173254 
C 218.852187 161.546202 220.153745 162.863101 222.470208 163.833922 
C 224.786671 164.804742 227.92891 165.35022 231.204883 165.35022 
z
" style="fill:#0000ff;opacity:0.2;stroke:#0000ff;stroke-linejoin:miter;"/>
   </g>
   <g id="patch_52">
    <path clip-path="url(#p8e8412b47a)" d="M 203.411317 126.522979 
C 206.68729 126.522979 209.829529 125.977501 212.145992 125.006681 
C 214.462455 124.03586 215.764013 122.71896 215.764013 121.346013 
C 215.764013 119.973066 214.462455 118.656166 212.145992 117.685346 
C 209.829529 116.714525 206.68729 116.169048 203.411317 116.169048 
C 200.135344 116.169048 196.993105 116.714525 194.676642 117.685346 
C 192.360179 118.656166 191.058621 119.973066 191.058621 121.346013 
C 191.058621 122.71896 192.360179 124.03586 194.676642 125.006681 
C 196.993105 125.977501 200.135344 126.522979 203.411317 126.522979 
z
" style="fill:#ff0000;opacity:0.2;stroke:#ff0000;stroke-linejoin:miter;"/>
   </g>
   <g id="patch_53">
    <path d="M 231.204883 160.173254 
Q 217.890808 141.573669 205.811485 124.699016 
" style="fill:none;opacity:0.5;stroke:#ff0000;stroke-linecap:round;stroke-width:3;"/>
    <path d="M 205.464875 126.791828 
L 205.811485 124.699016 
L 207.904297 125.045625 
" style="fill:none;opacity:0.5;stroke:#ff0000;stroke-linecap:round;stroke-width:3;"/>
   </g>
   <g id="patch_54">
    <path clip-path="url(#p8e8412b47a)" d="M 344.437929 216.257047 
C 346.075915 216.257047 347.647035 215.984308 348.805266 215.498898 
C 349.963497 215.013488 350.614276 214.355038 350.614276 213.668564 
C 350.614276 212.982091 349.963497 212.323641 348.805266 211.838231 
C 347.647035 211.352821 346.075915 211.080082 344.437929 211.080082 
C 342.799942 211.080082 341.228822 211.352821 340.070591 211.838231 
C 338.91236 212.323641 338.261581 212.982091 338.261581 213.668564 
C 338.261581 214.355038 338.91236 215.013488 340.070591 215.498898 
C 341.228822 215.984308 342.799942 216.257047 344.437929 216.257047 
z
" style="fill:#0000ff;opacity:0.2;stroke:#0000ff;stroke-linejoin:miter;"/>
   </g>
   <g id="patch_55">
    <path clip-path="url(#p8e8412b47a)" d="M 306.35045 172.25284 
C 307.988436 172.25284 309.559556 171.980102 310.717787 171.494691 
C 311.876019 171.009281 312.526797 170.350831 312.526797 169.664358 
C 312.526797 168.977884 311.876019 168.319434 310.717787 167.834024 
C 309.559556 167.348614 307.988436 167.075875 306.35045 167.075875 
C 304.712463 167.075875 303.141343 167.348614 301.983112 167.834024 
C 300.824881 168.319434 300.174102 168.977884 300.174102 169.664358 
C 300.174102 170.350831 300.824881 171.009281 301.983112 171.494691 
C 303.141343 171.980102 304.712463 172.25284 306.35045 172.25284 
z
" style="fill:#ff0000;opacity:0.2;stroke:#ff0000;stroke-linejoin:miter;"/>
   </g>
   <g id="patch_56">
    <path d="M 344.437929 213.668564 
Q 326.048585 192.422515 308.353385 171.978441 
" style="fill:none;opacity:0.5;stroke:#ff0000;stroke-linecap:round;stroke-width:1.5;"/>
    <path d="M 308.200887 174.094273 
L 308.353385 171.978441 
L 310.469217 172.130939 
" style="fill:none;opacity:0.5;stroke:#ff0000;stroke-linecap:round;stroke-width:1.5;"/>
   </g>
   <g id="patch_57">
    <path clip-path="url(#p8e8412b47a)" d="M 406.201408 256.809943 
C 409.477381 256.809943 412.61962 256.264466 414.936083 255.293645 
C 417.252546 254.322825 418.554104 253.005925 418.554104 251.632978 
C 418.554104 250.260031 417.252546 248.943131 414.936083 247.972311 
C 412.61962 247.00149 409.477381 246.456012 406.201408 246.456012 
C 402.925435 246.456012 399.783196 247.00149 397.466733 247.972311 
C 395.15027 248.943131 393.848712 250.260031 393.848712 251.632978 
C 393.848712 253.005925 395.15027 254.322825 397.466733 255.293645 
C 399.783196 256.264466 402.925435 256.809943 406.201408 256.809943 
z
" style="fill:#0000ff;opacity:0.2;stroke:#0000ff;stroke-linejoin:miter;"/>
   </g>
   <g id="patch_58">
    <path clip-path="url(#p8e8412b47a)" d="M 361.937581 199.000496 
C 365.213554 199.000496 368.355793 198.455018 370.672256 197.484197 
C 372.988719 196.513377 374.290277 195.196477 374.290277 193.82353 
C 374.290277 192.450583 372.988719 191.133683 370.672256 190.162863 
C 368.355793 189.192042 365.213554 188.646565 361.937581 188.646565 
C 358.661608 188.646565 355.519369 189.192042 353.202906 190.162863 
C 350.886443 191.133683 349.584885 192.450583 349.584885 193.82353 
C 349.584885 195.196477 350.886443 196.513377 353.202906 197.484197 
C 355.519369 198.455018 358.661608 199.000496 361.937581 199.000496 
z
" style="fill:#ff0000;opacity:0.2;stroke:#ff0000;stroke-linejoin:miter;"/>
   </g>
   <g id="patch_59">
    <path d="M 406.201408 251.632978 
Q 384.678716 223.52391 364.445662 197.099134 
" style="fill:none;opacity:0.5;stroke:#ff0000;stroke-linecap:round;stroke-width:3;"/>
    <path d="M 364.166599 199.202018 
L 364.445662 197.099134 
L 366.548546 197.378197 
" style="fill:none;opacity:0.5;stroke:#ff0000;stroke-linecap:round;stroke-width:3;"/>
   </g>
   <g id="patch_60">
    <path clip-path="url(#p8e8412b47a)" d="M 263.63071 271.478012 
C 266.360687 271.478012 268.97922 271.023448 270.909605 270.214431 
C 272.839991 269.405414 273.924623 268.307997 273.924623 267.163874 
C 273.924623 266.019752 272.839991 264.922335 270.909605 264.113318 
C 268.97922 263.304301 266.360687 262.849737 263.63071 262.849737 
C 260.900732 262.849737 258.2822 263.304301 256.351814 264.113318 
C 254.421428 264.922335 253.336796 266.019752 253.336796 267.163874 
C 253.336796 268.307997 254.421428 269.405414 256.351814 270.214431 
C 258.2822 271.023448 260.900732 271.478012 263.63071 271.478012 
z
" style="fill:#008000;opacity:0.2;stroke:#008000;stroke-linejoin:miter;"/>
   </g>
   <g id="patch_61">
    <path clip-path="url(#p8e8412b47a)" d="M 365.540451 45.417186 
C 368.270428 45.417186 370.888961 44.962621 372.819347 44.153604 
C 374.749732 43.344587 375.834364 42.247171 375.834364 41.103048 
C 375.834364 39.958925 374.749732 38.861509 372.819347 38.052492 
C 370.888961 37.243475 368.270428 36.78891 365.540451 36.78891 
C 362.810473 36.78891 360.191941 37.243475 358.261555 38.052492 
C 356.331169 38.861509 355.246537 39.958925 355.246537 41.103048 
C 355.246537 42.247171 356.331169 43.344587 358.261555 44.153604 
C 360.191941 44.962621 362.810473 45.417186 365.540451 45.417186 
z
" style="fill:#008000;opacity:0.2;stroke:#008000;stroke-linejoin:miter;"/>
   </g>
   <g id="patch_62">
    <path clip-path="url(#p8e8412b47a)" d="M 383.040103 67.850703 
C 385.770081 67.850703 388.388613 67.396138 390.318999 66.587121 
C 392.249385 65.778104 393.334016 64.680688 393.334016 63.536565 
C 393.334016 62.392442 392.249385 61.295026 390.318999 60.486009 
C 388.388613 59.676992 385.770081 59.222427 383.040103 59.222427 
C 380.310125 59.222427 377.691593 59.676992 375.761207 60.486009 
C 373.830822 61.295026 372.74619 62.392442 372.74619 63.536565 
C 372.74619 64.680688 373.830822 65.778104 375.761207 66.587121 
C 377.691593 67.396138 380.310125 67.850703 383.040103 67.850703 
z
" style="fill:#008000;opacity:0.2;stroke:#008000;stroke-linejoin:miter;"/>
   </g>
   <g id="patch_63">
    <path clip-path="url(#p8e8412b47a)" d="M 217.3081 145.073772 
C 220.038078 145.073772 222.65661 144.619207 224.586996 143.81019 
C 226.517382 143.001173 227.602013 141.903757 227.602013 140.759634 
C 227.602013 139.615511 226.517382 138.518095 224.586996 137.709078 
C 222.65661 136.900061 220.038078 136.445496 217.3081 136.445496 
C 214.578122 136.445496 211.95959 136.900061 210.029204 137.709078 
C 208.098818 138.518095 207.014187 139.615511 207.014187 140.759634 
C 207.014187 141.903757 208.098818 143.001173 210.029204 143.81019 
C 211.95959 144.619207 214.578122 145.073772 217.3081 145.073772 
z
" style="fill:#008000;opacity:0.2;stroke:#008000;stroke-linejoin:miter;"/>
   </g>
   <g id="patch_64">
    <path clip-path="url(#p8e8412b47a)" d="M 325.394189 195.980599 
C 328.124167 195.980599 330.742699 195.526034 332.673085 194.717017 
C 334.603471 193.908 335.688102 192.810584 335.688102 191.666461 
C 335.688102 190.522338 334.603471 189.424922 332.673085 188.615905 
C 330.742699 187.806888 328.124167 187.352323 325.394189 187.352323 
C 322.664211 187.352323 320.045679 187.806888 318.115293 188.615905 
C 316.184907 189.424922 315.100276 190.522338 315.100276 191.666461 
C 315.100276 192.810584 316.184907 193.908 318.115293 194.717017 
C 320.045679 195.526034 322.664211 195.980599 325.394189 195.980599 
z
" style="fill:#008000;opacity:0.2;stroke:#008000;stroke-linejoin:miter;"/>
   </g>
   <g id="patch_65">
    <path clip-path="url(#p8e8412b47a)" d="M 384.069494 227.042392 
C 386.799472 227.042392 389.418005 226.587827 391.34839 225.77881 
C 393.278776 224.969793 394.363408 223.872377 394.363408 222.728254 
C 394.363408 221.584131 393.278776 220.486715 391.34839 219.677698 
C 389.418005 218.868681 386.799472 218.414116 384.069494 218.414116 
C 381.339517 218.414116 378.720984 218.868681 376.790599 219.677698 
C 374.860213 220.486715 373.775581 221.584131 373.775581 222.728254 
C 373.775581 223.872377 374.860213 224.969793 376.790599 225.77881 
C 378.720984 226.587827 381.339517 227.042392 384.069494 227.042392 
z
" style="fill:#008000;opacity:0.2;stroke:#008000;stroke-linejoin:miter;"/>
   </g>
   <g id="patch_66">
    <path d="M 263.63071 267.163874 
Q 173.044273 220.139771 82.457837 173.115668 
" style="fill:none;opacity:0.5;stroke:#008000;stroke-linecap:round;stroke-width:2;"/>
   </g>
   <g id="patch_67">
    <path d="M 263.135185 230.613544 
Q 263.61717 266.165177 264.099155 301.716809 
" style="fill:none;opacity:0.5;stroke:#800080;stroke-linecap:round;stroke-width:2;"/>
    <path d="M 261.655657 232.133741 
L 263.135185 230.613544 
L 264.655381 232.093073 
" style="fill:none;opacity:0.5;stroke:#800080;stroke-linecap:round;stroke-width:2;"/>
    <path d="M 265.578683 300.196613 
L 264.099155 301.716809 
L 262.578959 300.237281 
" style="fill:none;opacity:0.5;stroke:#800080;stroke-linecap:round;stroke-width:2;"/>
   </g>
   <g id="patch_68">
    <path d="M 82.457837 173.115668 
Q 223.999144 107.109358 365.540451 41.103048 
" style="fill:none;opacity:0.5;stroke:#008000;stroke-linecap:round;stroke-width:2;"/>
   </g>
   <g id="patch_69">
    <path d="M 103.688192 147.457597 
Q 83.094075 172.346738 62.499959 197.23588 
" style="fill:none;opacity:0.5;stroke:#800080;stroke-linecap:round;stroke-width:2;"/>
    <path d="M 101.576267 147.657028 
L 103.688192 147.457597 
L 103.887623 149.569522 
" style="fill:none;opacity:0.5;stroke:#800080;stroke-linecap:round;stroke-width:2;"/>
    <path d="M 64.611884 197.036449 
L 62.499959 197.23588 
L 62.300528 195.123955 
" style="fill:none;opacity:0.5;stroke:#800080;stroke-linecap:round;stroke-width:2;"/>
   </g>
   <g id="patch_70">
    <path d="M 365.540451 41.103048 
Q 374.290277 52.319807 383.040103 63.536565 
" style="fill:none;opacity:0.5;stroke:#008000;stroke-linecap:round;stroke-width:2;"/>
   </g>
   <g id="patch_71">
    <path d="M 346.679046 29.752653 
Q 364.684059 40.58769 382.689072 51.422726 
" style="fill:none;opacity:0.5;stroke:#800080;stroke-linecap:round;stroke-width:2;"/>
    <path d="M 347.190852 31.811307 
L 346.679046 29.752653 
L 348.7377 29.240848 
" style="fill:none;opacity:0.5;stroke:#800080;stroke-linecap:round;stroke-width:2;"/>
    <path d="M 382.177267 49.364073 
L 382.689072 51.422726 
L 380.630419 51.934532 
" style="fill:none;opacity:0.5;stroke:#800080;stroke-linecap:round;stroke-width:2;"/>
   </g>
   <g id="patch_72">
    <path d="M 383.040103 63.536565 
Q 300.174102 102.1481 217.3081 140.759634 
" style="fill:none;opacity:0.5;stroke:#008000;stroke-linecap:round;stroke-width:2;"/>
   </g>
   <g id="patch_73">
    <path d="M 361.033118 47.959876 
Q 382.224425 62.959223 403.415732 77.958569 
" style="fill:none;opacity:0.5;stroke:#800080;stroke-linecap:round;stroke-width:2;"/>
    <path d="M 361.390862 50.050814 
L 361.033118 47.959876 
L 363.124055 47.602132 
" style="fill:none;opacity:0.5;stroke:#800080;stroke-linecap:round;stroke-width:2;"/>
    <path d="M 403.057987 75.867632 
L 403.415732 77.958569 
L 401.324794 78.316314 
" style="fill:none;opacity:0.5;stroke:#800080;stroke-linecap:round;stroke-width:2;"/>
   </g>
   <g id="patch_74">
    <path d="M 217.3081 140.759634 
Q 271.351145 166.213047 325.394189 191.666461 
" style="fill:none;opacity:0.5;stroke:#008000;stroke-linecap:round;stroke-width:2;"/>
   </g>
   <g id="patch_75">
    <path d="M 204.234485 122.495968 
Q 216.725392 139.945598 229.216299 157.395229 
" style="fill:none;opacity:0.5;stroke:#800080;stroke-linecap:round;stroke-width:2;"/>
    <path d="M 203.887875 124.588779 
L 204.234485 122.495968 
L 206.327297 122.842577 
" style="fill:none;opacity:0.5;stroke:#800080;stroke-linecap:round;stroke-width:2;"/>
    <path d="M 229.562909 155.302417 
L 229.216299 157.395229 
L 227.123487 157.04862 
" style="fill:none;opacity:0.5;stroke:#800080;stroke-linecap:round;stroke-width:2;"/>
   </g>
   <g id="patch_76">
    <path d="M 325.394189 191.666461 
Q 354.731842 207.197358 384.069494 222.728254 
" style="fill:none;opacity:0.5;stroke:#008000;stroke-linecap:round;stroke-width:2;"/>
   </g>
   <g id="patch_77">
    <path d="M 307.275974 170.733659 
Q 324.739793 190.910407 342.203612 211.087156 
" style="fill:none;opacity:0.5;stroke:#800080;stroke-linecap:round;stroke-width:2;"/>
    <path d="M 307.123476 172.84949 
L 307.275974 170.733659 
L 309.391806 170.886156 
" style="fill:none;opacity:0.5;stroke:#800080;stroke-linecap:round;stroke-width:2;"/>
    <path d="M 342.35611 208.971324 
L 342.203612 211.087156 
L 340.08778 210.934658 
" style="fill:none;opacity:0.5;stroke:#800080;stroke-linecap:round;stroke-width:2;"/>
   </g>
   <g id="patch_78">
    <path d="M 384.069494 222.728254 
Q 323.850102 244.946064 263.63071 267.163874 
" style="fill:none;opacity:0.5;stroke:#008000;stroke-linecap:round;stroke-width:2;"/>
   </g>
   <g id="patch_79">
    <path d="M 362.797339 194.946391 
Q 383.460272 221.932598 404.123206 248.918805 
" style="fill:none;opacity:0.5;stroke:#800080;stroke-linecap:round;stroke-width:2;"/>
    <path d="M 362.518276 197.049276 
L 362.797339 194.946391 
L 364.900223 195.225454 
" style="fill:none;opacity:0.5;stroke:#800080;stroke-linecap:round;stroke-width:2;"/>
    <path d="M 404.402269 246.81592 
L 404.123206 248.918805 
L 402.020322 248.639742 
" style="fill:none;opacity:0.5;stroke:#800080;stroke-linecap:round;stroke-width:2;"/>
   </g>
   <g id="line2d_1">
    <path clip-path="url(#p8e8412b47a)" d="M 263.116014 229.199461 
L 104.58975 146.368013 
L 345.46732 29.023462 
L 359.878798 47.142841 
L 203.411317 121.346013 
L 306.35045 169.664358 
L 361.937581 193.82353 
" style="fill:none;stroke:#ff0000;stroke-linecap:square;stroke-width:0.2;"/>
   </g>
   <g id="line2d_2">
    <path clip-path="url(#p8e8412b47a)" d="M 264.145405 305.128288 
L 60.325923 199.863323 
L 385.613581 53.182634 
L 406.201408 79.930289 
L 231.204883 160.173254 
L 344.437929 213.668564 
L 406.201408 251.632978 
" style="fill:none;stroke:#0000ff;stroke-linecap:square;stroke-width:0.2;"/>
   </g>
  </g>
 </g>
 <defs>
  <clipPath id="p8e8412b47a">
   <rect height="307.51175" width="409.903625" x="37.576375" y="13.32"/>
  </clipPath>
 </defs>
</svg>
