<?xml version="1.0" encoding="utf-8" standalone="no"?>
<!DOCTYPE svg PUBLIC "-//W3C//DTD SVG 1.1//EN"
  "http://www.w3.org/Graphics/SVG/1.1/DTD/svg11.dtd">
<!-- Created with matplotlib (http://matplotlib.org/) -->
<svg height="345.6pt" version="1.1" viewBox="0 0 460.8 345.6" width="460.8pt" xmlns="http://www.w3.org/2000/svg" xmlns:xlink="http://www.w3.org/1999/xlink">
 <defs>
  <style type="text/css">
*{stroke-linecap:butt;stroke-linejoin:round;}
  </style>
 </defs>
 <g id="figure_1">
  <g id="patch_1">
   <path d="M 0 345.6 
L 460.8 345.6 
L 460.8 0 
L 0 0 
z
" style="fill:#ffffff;"/>
  </g>
  <g id="axes_1">
   <g id="patch_2">
    <path clip-path="url(#p3f4cac77ee)" d="M 427.369288 48.005669 
C 427.761452 48.005669 428.137606 46.914713 428.414907 44.973073 
C 428.692209 43.031432 428.848017 40.397632 428.848017 37.651738 
C 428.848017 34.905843 428.692209 32.272044 428.414907 30.330403 
C 428.137606 28.388762 427.761452 27.297807 427.369288 27.297807 
C 426.977125 27.297807 426.600971 28.388762 426.323669 30.330403 
C 426.046368 32.272044 425.890559 34.905843 425.890559 37.651738 
C 425.890559 40.397632 426.046368 43.031432 426.323669 44.973073 
C 426.600971 46.914713 426.977125 48.005669 427.369288 48.005669 
z
" style="fill:#ff0000;opacity:0.2;stroke:#ff0000;stroke-linejoin:miter;"/>
   </g>
   <g id="patch_3">
    <path clip-path="url(#p3f4cac77ee)" d="M 427.369288 306.853943 
C 427.761452 306.853943 428.137606 305.762988 428.414907 303.821347 
C 428.692209 301.879706 428.848017 299.245907 428.848017 296.500012 
C 428.848017 293.754118 428.692209 291.120318 428.414907 289.178677 
C 428.137606 287.237037 427.761452 286.146081 427.369288 286.146081 
C 426.977125 286.146081 426.600971 287.237037 426.323669 289.178677 
C 426.046368 291.120318 425.890559 293.754118 425.890559 296.500012 
C 425.890559 299.245907 426.046368 301.879706 426.323669 303.821347 
C 426.600971 305.762988 426.977125 306.853943 427.369288 306.853943 
z
" style="fill:#ff0000;opacity:0.2;stroke:#ff0000;stroke-linejoin:miter;"/>
   </g>
   <g id="patch_4">
    <path clip-path="url(#p3f4cac77ee)" d="M 57.687087 306.853943 
C 58.07925 306.853943 58.455404 305.762988 58.732706 303.821347 
C 59.010007 301.879706 59.165816 299.245907 59.165816 296.500012 
C 59.165816 293.754118 59.010007 291.120318 58.732706 289.178677 
C 58.455404 287.237037 58.07925 286.146081 57.687087 286.146081 
C 57.294923 286.146081 56.918769 287.237037 56.641468 289.178677 
C 56.364166 291.120318 56.208358 293.754118 56.208358 296.500012 
C 56.208358 299.245907 56.364166 301.879706 56.641468 303.821347 
C 56.918769 305.762988 57.294923 306.853943 57.687087 306.853943 
z
" style="fill:#ff0000;opacity:0.2;stroke:#ff0000;stroke-linejoin:miter;"/>
   </g>
   <g id="patch_5">
    <path clip-path="url(#p3f4cac77ee)" d="M 57.687087 48.005669 
C 58.07925 48.005669 58.455404 46.914713 58.732706 44.973073 
C 59.010007 43.031432 59.165816 40.397632 59.165816 37.651738 
C 59.165816 34.905843 59.010007 32.272044 58.732706 30.330403 
C 58.455404 28.388762 58.07925 27.297807 57.687087 27.297807 
C 57.294923 27.297807 56.918769 28.388762 56.641468 30.330403 
C 56.364166 32.272044 56.208358 34.905843 56.208358 37.651738 
C 56.208358 40.397632 56.364166 43.031432 56.641468 44.973073 
C 56.918769 46.914713 57.294923 48.005669 57.687087 48.005669 
z
" style="fill:#ff0000;opacity:0.2;stroke:#ff0000;stroke-linejoin:miter;"/>
   </g>
   <g id="patch_6">
    <path clip-path="url(#p3f4cac77ee)" d="M 427.369288 48.005669 
C 427.761452 48.005669 428.137606 46.914713 428.414907 44.973073 
C 428.692209 43.031432 428.848017 40.397632 428.848017 37.651738 
C 428.848017 34.905843 428.692209 32.272044 428.414907 30.330403 
C 428.137606 28.388762 427.761452 27.297807 427.369288 27.297807 
C 426.977125 27.297807 426.600971 28.388762 426.323669 30.330403 
C 426.046368 32.272044 425.890559 34.905843 425.890559 37.651738 
C 425.890559 40.397632 426.046368 43.031432 426.323669 44.973073 
C 426.600971 46.914713 426.977125 48.005669 427.369288 48.005669 
z
" style="fill:#0000ff;opacity:0.2;stroke:#0000ff;stroke-linejoin:miter;"/>
   </g>
   <g id="patch_7">
    <path clip-path="url(#p3f4cac77ee)" d="M 427.369288 306.853943 
C 427.761452 306.853943 428.137606 305.762988 428.414907 303.821347 
C 428.692209 301.879706 428.848017 299.245907 428.848017 296.500012 
C 428.848017 293.754118 428.692209 291.120318 428.414907 289.178677 
C 428.137606 287.237037 427.761452 286.146081 427.369288 286.146081 
C 426.977125 286.146081 426.600971 287.237037 426.323669 289.178677 
C 426.046368 291.120318 425.890559 293.754118 425.890559 296.500012 
C 425.890559 299.245907 426.046368 301.879706 426.323669 303.821347 
C 426.600971 305.762988 426.977125 306.853943 427.369288 306.853943 
z
" style="fill:#0000ff;opacity:0.2;stroke:#0000ff;stroke-linejoin:miter;"/>
   </g>
   <g id="patch_8">
    <path clip-path="url(#p3f4cac77ee)" d="M 57.687087 306.853943 
C 58.07925 306.853943 58.455404 305.762988 58.732706 303.821347 
C 59.010007 301.879706 59.165816 299.245907 59.165816 296.500012 
C 59.165816 293.754118 59.010007 291.120318 58.732706 289.178677 
C 58.455404 287.237037 58.07925 286.146081 57.687087 286.146081 
C 57.294923 286.146081 56.918769 287.237037 56.641468 289.178677 
C 56.364166 291.120318 56.208358 293.754118 56.208358 296.500012 
C 56.208358 299.245907 56.364166 301.879706 56.641468 303.821347 
C 56.918769 305.762988 57.294923 306.853943 57.687087 306.853943 
z
" style="fill:#0000ff;opacity:0.2;stroke:#0000ff;stroke-linejoin:miter;"/>
   </g>
   <g id="patch_9">
    <path clip-path="url(#p3f4cac77ee)" d="M 57.687087 48.005669 
C 58.07925 48.005669 58.455404 46.914713 58.732706 44.973073 
C 59.010007 43.031432 59.165816 40.397632 59.165816 37.651738 
C 59.165816 34.905843 59.010007 32.272044 58.732706 30.330403 
C 58.455404 28.388762 58.07925 27.297807 57.687087 27.297807 
C 57.294923 27.297807 56.918769 28.388762 56.641468 30.330403 
C 56.364166 32.272044 56.208358 34.905843 56.208358 37.651738 
C 56.208358 40.397632 56.364166 43.031432 56.641468 44.973073 
C 56.918769 46.914713 57.294923 48.005669 57.687087 48.005669 
z
" style="fill:#0000ff;opacity:0.2;stroke:#0000ff;stroke-linejoin:miter;"/>
   </g>
   <g id="patch_10">
    <path clip-path="url(#p3f4cac77ee)" d="M 427.369288 37.651738 
L 427.369288 296.500012 
L 57.687087 296.500012 
L 57.687087 37.651738 
L 427.369288 37.651738 
" style="fill:none;stroke:#ff0000;stroke-linejoin:miter;stroke-width:0.5;"/>
   </g>
   <g id="patch_11">
    <path clip-path="url(#p3f4cac77ee)" d="M 427.369288 37.651738 
L 427.369288 296.500012 
L 57.687087 296.500012 
L 57.687087 37.651738 
L 427.369288 37.651738 
" style="fill:none;stroke:#0000ff;stroke-linejoin:miter;stroke-width:0.5;"/>
   </g>
   <g id="patch_12">
    <path clip-path="url(#p3f4cac77ee)" d="M 427.369288 66.125048 
C 428.447738 66.125048 429.482162 63.12492 430.244741 57.785409 
C 431.00732 52.445897 431.435792 45.202948 431.435792 37.651738 
C 431.435792 30.100528 431.00732 22.857579 430.244741 17.518067 
C 429.482162 12.178555 428.447738 9.178428 427.369288 9.178428 
C 426.290839 9.178428 425.256415 12.178555 424.493836 17.518067 
C 423.731257 22.857579 423.302784 30.100528 423.302784 37.651738 
C 423.302784 45.202948 423.731257 52.445897 424.493836 57.785409 
C 425.256415 63.12492 426.290839 66.125048 427.369288 66.125048 
z
" style="fill:#0000ff;opacity:0.2;stroke:#0000ff;stroke-linejoin:miter;"/>
   </g>
   <g id="patch_13">
    <path clip-path="url(#p3f4cac77ee)" d="M 427.369288 66.125048 
C 428.447738 66.125048 429.482162 63.12492 430.244741 57.785409 
C 431.00732 52.445897 431.435792 45.202948 431.435792 37.651738 
C 431.435792 30.100528 431.00732 22.857579 430.244741 17.518067 
C 429.482162 12.178555 428.447738 9.178428 427.369288 9.178428 
C 426.290839 9.178428 425.256415 12.178555 424.493836 17.518067 
C 423.731257 22.857579 423.302784 30.100528 423.302784 37.651738 
C 423.302784 45.202948 423.731257 52.445897 424.493836 57.785409 
C 425.256415 63.12492 426.290839 66.125048 427.369288 66.125048 
z
" style="fill:#ff0000;opacity:0.2;stroke:#ff0000;stroke-linejoin:miter;"/>
   </g>
   <g id="patch_14">
    <path d="M 427.369288 37.651738 
Q 427.369288 37.651738 427.369288 37.651738 
" style="fill:none;opacity:0.5;stroke:#0000ff;stroke-linecap:round;stroke-width:2.75;"/>
   </g>
   <g id="patch_15">
    <path clip-path="url(#p3f4cac77ee)" d="M 427.369288 327.561805 
C 428.545779 327.561805 429.674241 324.288939 430.506146 318.464017 
C 431.33805 312.639095 431.805475 304.737696 431.805475 296.500012 
C 431.805475 288.262328 431.33805 280.36093 430.506146 274.536008 
C 429.674241 268.711086 428.545779 265.438219 427.369288 265.438219 
C 426.192798 265.438219 425.064335 268.711086 424.232431 274.536008 
C 423.400526 280.36093 422.933102 288.262328 422.933102 296.500012 
C 422.933102 304.737696 423.400526 312.639095 424.232431 318.464017 
C 425.064335 324.288939 426.192798 327.561805 427.369288 327.561805 
z
" style="fill:#0000ff;opacity:0.2;stroke:#0000ff;stroke-linejoin:miter;"/>
   </g>
   <g id="patch_16">
    <path clip-path="url(#p3f4cac77ee)" d="M 427.369288 327.561805 
C 428.545779 327.561805 429.674241 324.288939 430.506146 318.464017 
C 431.33805 312.639095 431.805475 304.737696 431.805475 296.500012 
C 431.805475 288.262328 431.33805 280.36093 430.506146 274.536008 
C 429.674241 268.711086 428.545779 265.438219 427.369288 265.438219 
C 426.192798 265.438219 425.064335 268.711086 424.232431 274.536008 
C 423.400526 280.36093 422.933102 288.262328 422.933102 296.500012 
C 422.933102 304.737696 423.400526 312.639095 424.232431 318.464017 
C 425.064335 324.288939 426.192798 327.561805 427.369288 327.561805 
z
" style="fill:#ff0000;opacity:0.2;stroke:#ff0000;stroke-linejoin:miter;"/>
   </g>
   <g id="patch_17">
    <path d="M 427.369288 296.500012 
Q 427.369288 296.500012 427.369288 296.500012 
" style="fill:none;opacity:0.5;stroke:#0000ff;stroke-linecap:round;stroke-width:3;"/>
   </g>
   <g id="patch_18">
    <path clip-path="url(#p3f4cac77ee)" d="M 57.687087 327.561805 
C 58.863577 327.561805 59.99204 324.288939 60.823944 318.464017 
C 61.655849 312.639095 62.123273 304.737696 62.123273 296.500012 
C 62.123273 288.262328 61.655849 280.36093 60.823944 274.536008 
C 59.99204 268.711086 58.863577 265.438219 57.687087 265.438219 
C 56.510596 265.438219 55.382134 268.711086 54.550229 274.536008 
C 53.718325 280.36093 53.2509 288.262328 53.2509 296.500012 
C 53.2509 304.737696 53.718325 312.639095 54.550229 318.464017 
C 55.382134 324.288939 56.510596 327.561805 57.687087 327.561805 
z
" style="fill:#0000ff;opacity:0.2;stroke:#0000ff;stroke-linejoin:miter;"/>
   </g>
   <g id="patch_19">
    <path clip-path="url(#p3f4cac77ee)" d="M 57.687087 327.561805 
C 58.863577 327.561805 59.99204 324.288939 60.823944 318.464017 
C 61.655849 312.639095 62.123273 304.737696 62.123273 296.500012 
C 62.123273 288.262328 61.655849 280.36093 60.823944 274.536008 
C 59.99204 268.711086 58.863577 265.438219 57.687087 265.438219 
C 56.510596 265.438219 55.382134 268.711086 54.550229 274.536008 
C 53.718325 280.36093 53.2509 288.262328 53.2509 296.500012 
C 53.2509 304.737696 53.718325 312.639095 54.550229 318.464017 
C 55.382134 324.288939 56.510596 327.561805 57.687087 327.561805 
z
" style="fill:#ff0000;opacity:0.2;stroke:#ff0000;stroke-linejoin:miter;"/>
   </g>
   <g id="patch_20">
    <path d="M 57.687087 296.500012 
Q 57.687087 296.500012 57.687087 296.500012 
" style="fill:none;opacity:0.5;stroke:#0000ff;stroke-linecap:round;stroke-width:3;"/>
   </g>
   <g id="patch_21">
    <path clip-path="url(#p3f4cac77ee)" d="M 57.687087 71.302013 
C 58.961618 71.302013 60.184119 67.756408 61.085349 61.446076 
C 61.986579 55.135744 62.492955 46.575895 62.492955 37.651738 
C 62.492955 28.72758 61.986579 20.167732 61.085349 13.8574 
C 60.184119 7.547067 58.961618 4.001462 57.687087 4.001462 
C 56.412556 4.001462 55.190054 7.547067 54.288824 13.8574 
C 53.387595 20.167732 52.881218 28.72758 52.881218 37.651738 
C 52.881218 46.575895 53.387595 55.135744 54.288824 61.446076 
C 55.190054 67.756408 56.412556 71.302013 57.687087 71.302013 
z
" style="fill:#0000ff;opacity:0.2;stroke:#0000ff;stroke-linejoin:miter;"/>
   </g>
   <g id="patch_22">
    <path clip-path="url(#p3f4cac77ee)" d="M 57.687087 71.302013 
C 58.961618 71.302013 60.184119 67.756408 61.085349 61.446076 
C 61.986579 55.135744 62.492955 46.575895 62.492955 37.651738 
C 62.492955 28.72758 61.986579 20.167732 61.085349 13.8574 
C 60.184119 7.547067 58.961618 4.001462 57.687087 4.001462 
C 56.412556 4.001462 55.190054 7.547067 54.288824 13.8574 
C 53.387595 20.167732 52.881218 28.72758 52.881218 37.651738 
C 52.881218 46.575895 53.387595 55.135744 54.288824 61.446076 
C 55.190054 67.756408 56.412556 71.302013 57.687087 71.302013 
z
" style="fill:#ff0000;opacity:0.2;stroke:#ff0000;stroke-linejoin:miter;"/>
   </g>
   <g id="patch_23">
    <path d="M 57.687087 37.651738 
Q 57.687087 37.651738 57.687087 37.651738 
" style="fill:none;opacity:0.5;stroke:#0000ff;stroke-linecap:round;stroke-width:3.25;"/>
   </g>
   <g id="patch_24">
    <path clip-path="url(#p3f4cac77ee)" d="M 427.369288 66.125048 
C 428.447738 66.125048 429.482162 63.12492 430.244741 57.785409 
C 431.00732 52.445897 431.435792 45.202948 431.435792 37.651738 
C 431.435792 30.100528 431.00732 22.857579 430.244741 17.518067 
C 429.482162 12.178555 428.447738 9.178428 427.369288 9.178428 
C 426.290839 9.178428 425.256415 12.178555 424.493836 17.518067 
C 423.731257 22.857579 423.302784 30.100528 423.302784 37.651738 
C 423.302784 45.202948 423.731257 52.445897 424.493836 57.785409 
C 425.256415 63.12492 426.290839 66.125048 427.369288 66.125048 
z
" style="fill:#0000ff;opacity:0.2;stroke:#0000ff;stroke-linejoin:miter;"/>
   </g>
   <g id="patch_25">
    <path clip-path="url(#p3f4cac77ee)" d="M 427.369288 66.125048 
C 428.447738 66.125048 429.482162 63.12492 430.244741 57.785409 
C 431.00732 52.445897 431.435792 45.202948 431.435792 37.651738 
C 431.435792 30.100528 431.00732 22.857579 430.244741 17.518067 
C 429.482162 12.178555 428.447738 9.178428 427.369288 9.178428 
C 426.290839 9.178428 425.256415 12.178555 424.493836 17.518067 
C 423.731257 22.857579 423.302784 30.100528 423.302784 37.651738 
C 423.302784 45.202948 423.731257 52.445897 424.493836 57.785409 
C 425.256415 63.12492 426.290839 66.125048 427.369288 66.125048 
z
" style="fill:#ff0000;opacity:0.2;stroke:#ff0000;stroke-linejoin:miter;"/>
   </g>
   <g id="patch_26">
    <path d="M 427.369288 37.651738 
Q 427.369288 37.651738 427.369288 37.651738 
" style="fill:none;opacity:0.5;stroke:#ff0000;stroke-linecap:round;stroke-width:2.75;"/>
   </g>
   <g id="patch_27">
    <path clip-path="url(#p3f4cac77ee)" d="M 427.369288 327.561805 
C 428.545779 327.561805 429.674241 324.288939 430.506146 318.464017 
C 431.33805 312.639095 431.805475 304.737696 431.805475 296.500012 
C 431.805475 288.262328 431.33805 280.36093 430.506146 274.536008 
C 429.674241 268.711086 428.545779 265.438219 427.369288 265.438219 
C 426.192798 265.438219 425.064335 268.711086 424.232431 274.536008 
C 423.400526 280.36093 422.933102 288.262328 422.933102 296.500012 
C 422.933102 304.737696 423.400526 312.639095 424.232431 318.464017 
C 425.064335 324.288939 426.192798 327.561805 427.369288 327.561805 
z
" style="fill:#0000ff;opacity:0.2;stroke:#0000ff;stroke-linejoin:miter;"/>
   </g>
   <g id="patch_28">
    <path clip-path="url(#p3f4cac77ee)" d="M 427.369288 327.561805 
C 428.545779 327.561805 429.674241 324.288939 430.506146 318.464017 
C 431.33805 312.639095 431.805475 304.737696 431.805475 296.500012 
C 431.805475 288.262328 431.33805 280.36093 430.506146 274.536008 
C 429.674241 268.711086 428.545779 265.438219 427.369288 265.438219 
C 426.192798 265.438219 425.064335 268.711086 424.232431 274.536008 
C 423.400526 280.36093 422.933102 288.262328 422.933102 296.500012 
C 422.933102 304.737696 423.400526 312.639095 424.232431 318.464017 
C 425.064335 324.288939 426.192798 327.561805 427.369288 327.561805 
z
" style="fill:#ff0000;opacity:0.2;stroke:#ff0000;stroke-linejoin:miter;"/>
   </g>
   <g id="patch_29">
    <path d="M 427.369288 296.500012 
Q 427.369288 296.500012 427.369288 296.500012 
" style="fill:none;opacity:0.5;stroke:#ff0000;stroke-linecap:round;stroke-width:3;"/>
   </g>
   <g id="patch_30">
    <path clip-path="url(#p3f4cac77ee)" d="M 57.687087 327.561805 
C 58.863577 327.561805 59.99204 324.288939 60.823944 318.464017 
C 61.655849 312.639095 62.123273 304.737696 62.123273 296.500012 
C 62.123273 288.262328 61.655849 280.36093 60.823944 274.536008 
C 59.99204 268.711086 58.863577 265.438219 57.687087 265.438219 
C 56.510596 265.438219 55.382134 268.711086 54.550229 274.536008 
C 53.718325 280.36093 53.2509 288.262328 53.2509 296.500012 
C 53.2509 304.737696 53.718325 312.639095 54.550229 318.464017 
C 55.382134 324.288939 56.510596 327.561805 57.687087 327.561805 
z
" style="fill:#0000ff;opacity:0.2;stroke:#0000ff;stroke-linejoin:miter;"/>
   </g>
   <g id="patch_31">
    <path clip-path="url(#p3f4cac77ee)" d="M 57.687087 327.561805 
C 58.863577 327.561805 59.99204 324.288939 60.823944 318.464017 
C 61.655849 312.639095 62.123273 304.737696 62.123273 296.500012 
C 62.123273 288.262328 61.655849 280.36093 60.823944 274.536008 
C 59.99204 268.711086 58.863577 265.438219 57.687087 265.438219 
C 56.510596 265.438219 55.382134 268.711086 54.550229 274.536008 
C 53.718325 280.36093 53.2509 288.262328 53.2509 296.500012 
C 53.2509 304.737696 53.718325 312.639095 54.550229 318.464017 
C 55.382134 324.288939 56.510596 327.561805 57.687087 327.561805 
z
" style="fill:#ff0000;opacity:0.2;stroke:#ff0000;stroke-linejoin:miter;"/>
   </g>
   <g id="patch_32">
    <path d="M 57.687087 296.500012 
Q 57.687087 296.500012 57.687087 296.500012 
" style="fill:none;opacity:0.5;stroke:#ff0000;stroke-linecap:round;stroke-width:3;"/>
   </g>
   <g id="patch_33">
    <path clip-path="url(#p3f4cac77ee)" d="M 57.687087 71.302013 
C 58.961618 71.302013 60.184119 67.756408 61.085349 61.446076 
C 61.986579 55.135744 62.492955 46.575895 62.492955 37.651738 
C 62.492955 28.72758 61.986579 20.167732 61.085349 13.8574 
C 60.184119 7.547067 58.961618 4.001462 57.687087 4.001462 
C 56.412556 4.001462 55.190054 7.547067 54.288824 13.8574 
C 53.387595 20.167732 52.881218 28.72758 52.881218 37.651738 
C 52.881218 46.575895 53.387595 55.135744 54.288824 61.446076 
C 55.190054 67.756408 56.412556 71.302013 57.687087 71.302013 
z
" style="fill:#0000ff;opacity:0.2;stroke:#0000ff;stroke-linejoin:miter;"/>
   </g>
   <g id="patch_34">
    <path clip-path="url(#p3f4cac77ee)" d="M 57.687087 71.302013 
C 58.961618 71.302013 60.184119 67.756408 61.085349 61.446076 
C 61.986579 55.135744 62.492955 46.575895 62.492955 37.651738 
C 62.492955 28.72758 61.986579 20.167732 61.085349 13.8574 
C 60.184119 7.547067 58.961618 4.001462 57.687087 4.001462 
C 56.412556 4.001462 55.190054 7.547067 54.288824 13.8574 
C 53.387595 20.167732 52.881218 28.72758 52.881218 37.651738 
C 52.881218 46.575895 53.387595 55.135744 54.288824 61.446076 
C 55.190054 67.756408 56.412556 71.302013 57.687087 71.302013 
z
" style="fill:#ff0000;opacity:0.2;stroke:#ff0000;stroke-linejoin:miter;"/>
   </g>
   <g id="patch_35">
    <path d="M 57.687087 37.651738 
Q 57.687087 37.651738 57.687087 37.651738 
" style="fill:none;opacity:0.5;stroke:#ff0000;stroke-linecap:round;stroke-width:3.25;"/>
   </g>
   <g id="patch_36">
    <path clip-path="url(#p3f4cac77ee)" d="M 427.369288 63.536565 
C 428.349697 63.536565 429.290083 60.809177 429.983336 55.955075 
C 430.67659 51.100973 431.06611 44.516474 431.06611 37.651738 
C 431.06611 30.787001 430.67659 24.202502 429.983336 19.348401 
C 429.290083 14.494299 428.349697 11.76691 427.369288 11.76691 
C 426.38888 11.76691 425.448494 14.494299 424.75524 19.348401 
C 424.061987 24.202502 423.672466 30.787001 423.672466 37.651738 
C 423.672466 44.516474 424.061987 51.100973 424.75524 55.955075 
C 425.448494 60.809177 426.38888 63.536565 427.369288 63.536565 
z
" style="fill:#008000;opacity:0.2;stroke:#008000;stroke-linejoin:miter;"/>
   </g>
   <g id="patch_37">
    <path clip-path="url(#p3f4cac77ee)" d="M 427.369288 322.38484 
C 428.349697 322.38484 429.290083 319.657451 429.983336 314.803349 
C 430.67659 309.949248 431.06611 303.364749 431.06611 296.500012 
C 431.06611 289.635276 430.67659 283.050777 429.983336 278.196675 
C 429.290083 273.342573 428.349697 270.615185 427.369288 270.615185 
C 426.38888 270.615185 425.448494 273.342573 424.75524 278.196675 
C 424.061987 283.050777 423.672466 289.635276 423.672466 296.500012 
C 423.672466 303.364749 424.061987 309.949248 424.75524 314.803349 
C 425.448494 319.657451 426.38888 322.38484 427.369288 322.38484 
z
" style="fill:#008000;opacity:0.2;stroke:#008000;stroke-linejoin:miter;"/>
   </g>
   <g id="patch_38">
    <path clip-path="url(#p3f4cac77ee)" d="M 57.687087 322.38484 
C 58.667495 322.38484 59.607881 319.657451 60.301135 314.803349 
C 60.994388 309.949248 61.383909 303.364749 61.383909 296.500012 
C 61.383909 289.635276 60.994388 283.050777 60.301135 278.196675 
C 59.607881 273.342573 58.667495 270.615185 57.687087 270.615185 
C 56.706678 270.615185 55.766292 273.342573 55.073039 278.196675 
C 54.379785 283.050777 53.990265 289.635276 53.990265 296.500012 
C 53.990265 303.364749 54.379785 309.949248 55.073039 314.803349 
C 55.766292 319.657451 56.706678 322.38484 57.687087 322.38484 
z
" style="fill:#008000;opacity:0.2;stroke:#008000;stroke-linejoin:miter;"/>
   </g>
   <g id="patch_39">
    <path clip-path="url(#p3f4cac77ee)" d="M 57.687087 63.536565 
C 58.667495 63.536565 59.607881 60.809177 60.301135 55.955075 
C 60.994388 51.100973 61.383909 44.516474 61.383909 37.651738 
C 61.383909 30.787001 60.994388 24.202502 60.301135 19.348401 
C 59.607881 14.494299 58.667495 11.76691 57.687087 11.76691 
C 56.706678 11.76691 55.766292 14.494299 55.073039 19.348401 
C 54.379785 24.202502 53.990265 30.787001 53.990265 37.651738 
C 53.990265 44.516474 54.379785 51.100973 55.073039 55.955075 
C 55.766292 60.809177 56.706678 63.536565 57.687087 63.536565 
z
" style="fill:#008000;opacity:0.2;stroke:#008000;stroke-linejoin:miter;"/>
   </g>
   <g id="patch_40">
    <path d="M 427.369288 37.651738 
Q 427.369288 167.075875 427.369288 296.500012 
" style="fill:none;opacity:0.5;stroke:#008000;stroke-linecap:round;stroke-width:2;"/>
   </g>
   <g id="patch_41">
    <path d="M 427.369288 37.651738 
Q 427.369288 37.651738 427.369288 37.651738 
" style="fill:none;opacity:0.5;stroke:#800080;stroke-linecap:round;stroke-width:2;"/>
   </g>
   <g id="patch_42">
    <path d="M 427.369288 296.500012 
Q 242.528188 296.500012 57.687087 296.500012 
" style="fill:none;opacity:0.5;stroke:#008000;stroke-linecap:round;stroke-width:2;"/>
   </g>
   <g id="patch_43">
    <path d="M 427.369288 296.500012 
Q 427.369288 296.500012 427.369288 296.500012 
" style="fill:none;opacity:0.5;stroke:#800080;stroke-linecap:round;stroke-width:2;"/>
   </g>
   <g id="patch_44">
    <path d="M 57.687087 296.500012 
Q 57.687087 167.075875 57.687087 37.651738 
" style="fill:none;opacity:0.5;stroke:#008000;stroke-linecap:round;stroke-width:2;"/>
   </g>
   <g id="patch_45">
    <path d="M 57.687087 296.500012 
Q 57.687087 296.500012 57.687087 296.500012 
" style="fill:none;opacity:0.5;stroke:#800080;stroke-linecap:round;stroke-width:2;"/>
   </g>
   <g id="patch_46">
    <path d="M 57.687087 37.651738 
Q 242.528188 37.651738 427.369288 37.651738 
" style="fill:none;opacity:0.5;stroke:#008000;stroke-linecap:round;stroke-width:2;"/>
   </g>
   <g id="patch_47">
    <path d="M 57.687087 37.651738 
Q 57.687087 37.651738 57.687087 37.651738 
" style="fill:none;opacity:0.5;stroke:#800080;stroke-linecap:round;stroke-width:2;"/>
   </g>
   <g id="line2d_1">
    <path clip-path="url(#p3f4cac77ee)" d="M 427.369288 37.651738 
L 427.369288 296.500012 
L 57.687087 296.500012 
L 57.687087 37.651738 
" style="fill:none;stroke:#ff0000;stroke-linecap:square;stroke-width:0.2;"/>
   </g>
   <g id="line2d_2">
    <path clip-path="url(#p3f4cac77ee)" d="M 427.369288 37.651738 
L 427.369288 296.500012 
L 57.687087 296.500012 
L 57.687087 37.651738 
" style="fill:none;stroke:#0000ff;stroke-linecap:square;stroke-width:0.2;"/>
   </g>
  </g>
 </g>
 <defs>
  <clipPath id="p3f4cac77ee">
   <rect height="307.51175" width="409.903625" x="37.576375" y="13.32"/>
  </clipPath>
 </defs>
</svg>
