<?xml version="1.0" encoding="utf-8" standalone="no"?>
<!DOCTYPE svg PUBLIC "-//W3C//DTD SVG 1.1//EN"
  "http://www.w3.org/Graphics/SVG/1.1/DTD/svg11.dtd">
<!-- Created with matplotlib (http://matplotlib.org/) -->
<svg height="345.6pt" version="1.1" viewBox="0 0 460.8 345.6" width="460.8pt" xmlns="http://www.w3.org/2000/svg" xmlns:xlink="http://www.w3.org/1999/xlink">
 <defs>
  <style type="text/css">
*{stroke-linecap:butt;stroke-linejoin:round;}
  </style>
 </defs>
 <g id="figure_1">
  <g id="patch_1">
   <path d="M 0 345.6 
L 460.8 345.6 
L 460.8 0 
L 0 0 
z
" style="fill:#ffffff;"/>
  </g>
  <g id="axes_1">
   <g id="patch_2">
    <path clip-path="url(#pea3b078dbb)" d="M 307.649681 211.186167 
C 308.129415 211.186167 308.589565 210.944726 308.928788 210.515019 
C 309.268011 210.085311 309.458612 209.502421 309.458612 208.894723 
C 309.458612 208.287025 309.268011 207.704135 308.928788 207.274428 
C 308.589565 206.84472 308.129415 206.60328 307.649681 206.60328 
C 307.169947 206.60328 306.709798 206.84472 306.370574 207.274428 
C 306.031351 207.704135 305.840751 208.287025 305.840751 208.894723 
C 305.840751 209.502421 306.031351 210.085311 306.370574 210.515019 
C 306.709798 210.944726 307.169947 211.186167 307.649681 211.186167 
z
" style="fill:#ff0000;opacity:0.2;stroke:#ff0000;stroke-linejoin:miter;"/>
   </g>
   <g id="patch_3">
    <path clip-path="url(#pea3b078dbb)" d="M 195.495998 211.186167 
C 195.975731 211.186167 196.435881 210.944726 196.775104 210.515019 
C 197.114328 210.085311 197.304928 209.502421 197.304928 208.894723 
C 197.304928 208.287025 197.114328 207.704135 196.775104 207.274428 
C 196.435881 206.84472 195.975731 206.60328 195.495998 206.60328 
C 195.016264 206.60328 194.556114 206.84472 194.216891 207.274428 
C 193.877667 207.704135 193.687067 208.287025 193.687067 208.894723 
C 193.687067 209.502421 193.877667 210.085311 194.216891 210.515019 
C 194.556114 210.944726 195.016264 211.186167 195.495998 211.186167 
z
" style="fill:#ff0000;opacity:0.2;stroke:#ff0000;stroke-linejoin:miter;"/>
   </g>
   <g id="patch_4">
    <path clip-path="url(#pea3b078dbb)" d="M 114.998595 285.658089 
C 115.478329 285.658089 115.938479 285.416648 116.277702 284.98694 
C 116.616925 284.557233 116.807526 283.974343 116.807526 283.366645 
C 116.807526 282.758947 116.616925 282.176057 116.277702 281.746349 
C 115.938479 281.316642 115.478329 281.075201 114.998595 281.075201 
C 114.518861 281.075201 114.058712 281.316642 113.719488 281.746349 
C 113.380265 282.176057 113.189665 282.758947 113.189665 283.366645 
C 113.189665 283.974343 113.380265 284.557233 113.719488 284.98694 
C 114.058712 285.416648 114.518861 285.658089 114.998595 285.658089 
z
" style="fill:#ff0000;opacity:0.2;stroke:#ff0000;stroke-linejoin:miter;"/>
   </g>
   <g id="patch_5">
    <path clip-path="url(#pea3b078dbb)" d="M 85.151244 269.617982 
C 85.630978 269.617982 86.091128 269.376541 86.430351 268.946834 
C 86.769574 268.517127 86.960174 267.934237 86.960174 267.326539 
C 86.960174 266.718841 86.769574 266.135951 86.430351 265.706243 
C 86.091128 265.276536 85.630978 265.035095 85.151244 265.035095 
C 84.67151 265.035095 84.21136 265.276536 83.872137 265.706243 
C 83.532914 266.135951 83.342314 266.718841 83.342314 267.326539 
C 83.342314 267.934237 83.532914 268.517127 83.872137 268.946834 
C 84.21136 269.376541 84.67151 269.617982 85.151244 269.617982 
z
" style="fill:#ff0000;opacity:0.2;stroke:#ff0000;stroke-linejoin:miter;"/>
   </g>
   <g id="patch_6">
    <path clip-path="url(#pea3b078dbb)" d="M 125.852178 177.960233 
C 126.331912 177.960233 126.792062 177.718792 127.131285 177.289084 
C 127.470508 176.859377 127.661108 176.276487 127.661108 175.668789 
C 127.661108 175.061091 127.470508 174.478201 127.131285 174.048494 
C 126.792062 173.618786 126.331912 173.377345 125.852178 173.377345 
C 125.372444 173.377345 124.912294 173.618786 124.573071 174.048494 
C 124.233848 174.478201 124.043247 175.061091 124.043247 175.668789 
C 124.043247 176.276487 124.233848 176.859377 124.573071 177.289084 
C 124.912294 177.718792 125.372444 177.960233 125.852178 177.960233 
z
" style="fill:#ff0000;opacity:0.2;stroke:#ff0000;stroke-linejoin:miter;"/>
   </g>
   <g id="patch_7">
    <path clip-path="url(#pea3b078dbb)" d="M 177.406694 153.900073 
C 177.886428 153.900073 178.346577 153.658633 178.685801 153.228925 
C 179.025024 152.799218 179.215624 152.216328 179.215624 151.60863 
C 179.215624 151.000932 179.025024 150.418042 178.685801 149.988334 
C 178.346577 149.558627 177.886428 149.317186 177.406694 149.317186 
C 176.92696 149.317186 176.46681 149.558627 176.127587 149.988334 
C 175.788364 150.418042 175.597763 151.000932 175.597763 151.60863 
C 175.597763 152.216328 175.788364 152.799218 176.127587 153.228925 
C 176.46681 153.658633 176.92696 153.900073 177.406694 153.900073 
z
" style="fill:#ff0000;opacity:0.2;stroke:#ff0000;stroke-linejoin:miter;"/>
   </g>
   <g id="patch_8">
    <path clip-path="url(#pea3b078dbb)" d="M 289.560377 153.900073 
C 290.040111 153.900073 290.500261 153.658633 290.839484 153.228925 
C 291.178708 152.799218 291.369308 152.216328 291.369308 151.60863 
C 291.369308 151.000932 291.178708 150.418042 290.839484 149.988334 
C 290.500261 149.558627 290.040111 149.317186 289.560377 149.317186 
C 289.080644 149.317186 288.620494 149.558627 288.281271 149.988334 
C 287.942047 150.418042 287.751447 151.000932 287.751447 151.60863 
C 287.751447 152.216328 287.942047 152.799218 288.281271 153.228925 
C 288.620494 153.658633 289.080644 153.900073 289.560377 153.900073 
z
" style="fill:#ff0000;opacity:0.2;stroke:#ff0000;stroke-linejoin:miter;"/>
   </g>
   <g id="patch_9">
    <path clip-path="url(#pea3b078dbb)" d="M 370.05778 79.428152 
C 370.537514 79.428152 370.997663 79.186711 371.336887 78.757004 
C 371.67611 78.327296 371.86671 77.744406 371.86671 77.136708 
C 371.86671 76.52901 371.67611 75.94612 371.336887 75.516413 
C 370.997663 75.086705 370.537514 74.845264 370.05778 74.845264 
C 369.578046 74.845264 369.117896 75.086705 368.778673 75.516413 
C 368.43945 75.94612 368.248849 76.52901 368.248849 77.136708 
C 368.248849 77.744406 368.43945 78.327296 368.778673 78.757004 
C 369.117896 79.186711 369.578046 79.428152 370.05778 79.428152 
z
" style="fill:#ff0000;opacity:0.2;stroke:#ff0000;stroke-linejoin:miter;"/>
   </g>
   <g id="patch_10">
    <path clip-path="url(#pea3b078dbb)" d="M 399.905131 95.468258 
C 400.384865 95.468258 400.845015 95.226817 401.184238 94.79711 
C 401.523461 94.367402 401.714061 93.784512 401.714061 93.176814 
C 401.714061 92.569116 401.523461 91.986226 401.184238 91.556519 
C 400.845015 91.126812 400.384865 90.885371 399.905131 90.885371 
C 399.425397 90.885371 398.965247 91.126812 398.626024 91.556519 
C 398.286801 91.986226 398.096201 92.569116 398.096201 93.176814 
C 398.096201 93.784512 398.286801 94.367402 398.626024 94.79711 
C 398.965247 95.226817 399.425397 95.468258 399.905131 95.468258 
z
" style="fill:#ff0000;opacity:0.2;stroke:#ff0000;stroke-linejoin:miter;"/>
   </g>
   <g id="patch_11">
    <path clip-path="url(#pea3b078dbb)" d="M 358.299732 189.417451 
C 358.779466 189.417451 359.239616 189.176011 359.578839 188.746303 
C 359.918062 188.316596 360.108662 187.733706 360.108662 187.126008 
C 360.108662 186.51831 359.918062 185.93542 359.578839 185.505712 
C 359.239616 185.076005 358.779466 184.834564 358.299732 184.834564 
C 357.819998 184.834564 357.359848 185.076005 357.020625 185.505712 
C 356.681402 185.93542 356.490802 186.51831 356.490802 187.126008 
C 356.490802 187.733706 356.681402 188.316596 357.020625 188.746303 
C 357.359848 189.176011 357.819998 189.417451 358.299732 189.417451 
z
" style="fill:#ff0000;opacity:0.2;stroke:#ff0000;stroke-linejoin:miter;"/>
   </g>
   <g id="patch_12">
    <path clip-path="url(#pea3b078dbb)" d="M 184.642415 125.829888 
C 185.122149 125.829888 185.582299 125.588447 185.921522 125.158739 
C 186.260745 124.729032 186.451346 124.146142 186.451346 123.538444 
C 186.451346 122.930746 186.260745 122.347856 185.921522 121.918149 
C 185.582299 121.488441 185.122149 121.247 184.642415 121.247 
C 184.162681 121.247 183.702531 121.488441 183.363308 121.918149 
C 183.024085 122.347856 182.833485 122.930746 182.833485 123.538444 
C 182.833485 124.146142 183.024085 124.729032 183.363308 125.158739 
C 183.702531 125.588447 184.162681 125.829888 184.642415 125.829888 
z
" style="fill:#0000ff;opacity:0.2;stroke:#0000ff;stroke-linejoin:miter;"/>
   </g>
   <g id="patch_13">
    <path clip-path="url(#pea3b078dbb)" d="M 299.509495 125.829888 
C 299.989229 125.829888 300.449378 125.588447 300.788602 125.158739 
C 301.127825 124.729032 301.318425 124.146142 301.318425 123.538444 
C 301.318425 122.930746 301.127825 122.347856 300.788602 121.918149 
C 300.449378 121.488441 299.989229 121.247 299.509495 121.247 
C 299.029761 121.247 298.569611 121.488441 298.230388 121.918149 
C 297.891165 122.347856 297.700564 122.930746 297.700564 123.538444 
C 297.700564 124.146142 297.891165 124.729032 298.230388 125.158739 
C 298.569611 125.588447 299.029761 125.829888 299.509495 125.829888 
z
" style="fill:#0000ff;opacity:0.2;stroke:#0000ff;stroke-linejoin:miter;"/>
   </g>
   <g id="patch_14">
    <path clip-path="url(#pea3b078dbb)" d="M 376.389036 41.046469 
C 376.86877 41.046469 377.32892 40.805028 377.668143 40.375321 
C 378.007366 39.945614 378.197966 39.362724 378.197966 38.755026 
C 378.197966 38.147328 378.007366 37.564437 377.668143 37.13473 
C 377.32892 36.705023 376.86877 36.463582 376.389036 36.463582 
C 375.909302 36.463582 375.449152 36.705023 375.109929 37.13473 
C 374.770706 37.564437 374.580106 38.147328 374.580106 38.755026 
C 374.580106 39.362724 374.770706 39.945614 375.109929 40.375321 
C 375.449152 40.805028 375.909302 41.046469 376.389036 41.046469 
z
" style="fill:#0000ff;opacity:0.2;stroke:#0000ff;stroke-linejoin:miter;"/>
   </g>
   <g id="patch_15">
    <path clip-path="url(#pea3b078dbb)" d="M 427.039087 58.232297 
C 427.518821 58.232297 427.97897 57.990856 428.318194 57.561149 
C 428.657417 57.131442 428.848017 56.548552 428.848017 55.940854 
C 428.848017 55.333156 428.657417 54.750266 428.318194 54.320558 
C 427.97897 53.890851 427.518821 53.64941 427.039087 53.64941 
C 426.559353 53.64941 426.099203 53.890851 425.75998 54.320558 
C 425.420757 54.750266 425.230156 55.333156 425.230156 55.940854 
C 425.230156 56.548552 425.420757 57.131442 425.75998 57.561149 
C 426.099203 57.990856 426.559353 58.232297 427.039087 58.232297 
z
" style="fill:#0000ff;opacity:0.2;stroke:#0000ff;stroke-linejoin:miter;"/>
   </g>
   <g id="patch_16">
    <path clip-path="url(#pea3b078dbb)" d="M 377.293501 178.533094 
C 377.773235 178.533094 378.233385 178.291653 378.572608 177.861945 
C 378.911831 177.432238 379.102431 176.849348 379.102431 176.24165 
C 379.102431 175.633952 378.911831 175.051062 378.572608 174.621355 
C 378.233385 174.191647 377.773235 173.950206 377.293501 173.950206 
C 376.813767 173.950206 376.353617 174.191647 376.014394 174.621355 
C 375.675171 175.051062 375.484571 175.633952 375.484571 176.24165 
C 375.484571 176.849348 375.675171 177.432238 376.014394 177.861945 
C 376.353617 178.291653 376.813767 178.533094 377.293501 178.533094 
z
" style="fill:#0000ff;opacity:0.2;stroke:#0000ff;stroke-linejoin:miter;"/>
   </g>
   <g id="patch_17">
    <path clip-path="url(#pea3b078dbb)" d="M 308.554147 208.321862 
C 309.03388 208.321862 309.49403 208.080421 309.833253 207.650714 
C 310.172477 207.221007 310.363077 206.638117 310.363077 206.030419 
C 310.363077 205.422721 310.172477 204.839831 309.833253 204.410123 
C 309.49403 203.980416 309.03388 203.738975 308.554147 203.738975 
C 308.074413 203.738975 307.614263 203.980416 307.27504 204.410123 
C 306.935816 204.839831 306.745216 205.422721 306.745216 206.030419 
C 306.745216 206.638117 306.935816 207.221007 307.27504 207.650714 
C 307.614263 208.080421 308.074413 208.321862 308.554147 208.321862 
z
" style="fill:#0000ff;opacity:0.2;stroke:#0000ff;stroke-linejoin:miter;"/>
   </g>
   <g id="patch_18">
    <path clip-path="url(#pea3b078dbb)" d="M 183.73795 208.321862 
C 184.217684 208.321862 184.677834 208.080421 185.017057 207.650714 
C 185.35628 207.221007 185.54688 206.638117 185.54688 206.030419 
C 185.54688 205.422721 185.35628 204.839831 185.017057 204.410123 
C 184.677834 203.980416 184.217684 203.738975 183.73795 203.738975 
C 183.258216 203.738975 182.798066 203.980416 182.458843 204.410123 
C 182.11962 204.839831 181.92902 205.422721 181.92902 206.030419 
C 181.92902 206.638117 182.11962 207.221007 182.458843 207.650714 
C 182.798066 208.080421 183.258216 208.321862 183.73795 208.321862 
z
" style="fill:#0000ff;opacity:0.2;stroke:#0000ff;stroke-linejoin:miter;"/>
   </g>
   <g id="patch_19">
    <path clip-path="url(#pea3b078dbb)" d="M 106.858409 298.83389 
C 107.338143 298.83389 107.798293 298.592449 108.137516 298.162742 
C 108.476739 297.733034 108.667339 297.150144 108.667339 296.542446 
C 108.667339 295.934748 108.476739 295.351858 108.137516 294.922151 
C 107.798293 294.492444 107.338143 294.251003 106.858409 294.251003 
C 106.378675 294.251003 105.918525 294.492444 105.579302 294.922151 
C 105.240079 295.351858 105.049478 295.934748 105.049478 296.542446 
C 105.049478 297.150144 105.240079 297.733034 105.579302 298.162742 
C 105.918525 298.592449 106.378675 298.83389 106.858409 298.83389 
z
" style="fill:#0000ff;opacity:0.2;stroke:#0000ff;stroke-linejoin:miter;"/>
   </g>
   <g id="patch_20">
    <path clip-path="url(#pea3b078dbb)" d="M 58.017288 283.939506 
C 58.497022 283.939506 58.957172 283.698065 59.296395 283.268357 
C 59.635618 282.83865 59.826219 282.25576 59.826219 281.648062 
C 59.826219 281.040364 59.635618 280.457474 59.296395 280.027767 
C 58.957172 279.598059 58.497022 279.356618 58.017288 279.356618 
C 57.537554 279.356618 57.077405 279.598059 56.738181 280.027767 
C 56.398958 280.457474 56.208358 281.040364 56.208358 281.648062 
C 56.208358 282.25576 56.398958 282.83865 56.738181 283.268357 
C 57.077405 283.698065 57.537554 283.939506 58.017288 283.939506 
z
" style="fill:#0000ff;opacity:0.2;stroke:#0000ff;stroke-linejoin:miter;"/>
   </g>
   <g id="patch_21">
    <path clip-path="url(#pea3b078dbb)" d="M 103.240548 160.201544 
C 103.720282 160.201544 104.180432 159.960103 104.519655 159.530395 
C 104.858878 159.100688 105.049478 158.517798 105.049478 157.9101 
C 105.049478 157.302402 104.858878 156.719512 104.519655 156.289805 
C 104.180432 155.860097 103.720282 155.618656 103.240548 155.618656 
C 102.760814 155.618656 102.300664 155.860097 101.961441 156.289805 
C 101.622218 156.719512 101.431618 157.302402 101.431618 157.9101 
C 101.431618 158.517798 101.622218 159.100688 101.961441 159.530395 
C 102.300664 159.960103 102.760814 160.201544 103.240548 160.201544 
z
" style="fill:#0000ff;opacity:0.2;stroke:#0000ff;stroke-linejoin:miter;"/>
   </g>
   <g id="patch_22">
    <path clip-path="url(#pea3b078dbb)" d="M 307.649681 208.894723 
L 195.495998 208.894723 
C 148.463808 208.894723 137.610225 226.080551 114.998595 283.366645 
C 103.240548 289.095254 88.769105 284.512367 85.151244 267.326539 
C 90.578035 250.140711 108.667339 198.583226 125.852178 175.668789 
C 141.228086 156.191517 159.31739 151.60863 177.406694 151.60863 
L 289.560377 151.60863 
C 336.592567 151.60863 347.44615 134.422802 370.05778 77.136708 
C 381.815827 71.408099 396.28727 75.990986 399.905131 93.176814 
C 394.47834 110.362642 378.197966 164.21157 358.299732 187.126008 
C 342.923824 204.311836 327.547916 208.894723 307.649681 208.894723 
" style="fill:none;stroke:#ff0000;stroke-linejoin:miter;stroke-width:0.5;"/>
   </g>
   <g id="patch_23">
    <path clip-path="url(#pea3b078dbb)" d="M 184.642415 123.538444 
L 299.509495 123.538444 
C 342.923824 123.538444 359.204197 97.186841 376.389036 38.755026 
C 390.860479 27.297807 417.08997 34.172138 427.039087 55.940854 
C 417.994435 98.332563 397.191735 148.744325 377.293501 176.24165 
C 360.108662 201.447531 340.210428 206.030419 308.554147 206.030419 
L 183.73795 206.030419 
C 144.845947 206.030419 124.947713 240.402075 106.858409 296.542446 
C 93.291431 306.853943 63.444079 302.271056 58.017288 281.648062 
C 60.730684 254.150737 81.533383 192.281756 103.240548 157.9101 
C 124.043247 126.97561 148.463808 123.538444 184.642415 123.538444 
" style="fill:none;stroke:#0000ff;stroke-linejoin:miter;stroke-width:0.5;"/>
   </g>
   <g id="patch_24">
    <path clip-path="url(#pea3b078dbb)" d="M 307.649681 211.759028 
C 308.249349 211.759028 308.824536 211.457227 309.248565 210.920093 
C 309.672594 210.382958 309.910844 209.654346 309.910844 208.894723 
C 309.910844 208.135101 309.672594 207.406488 309.248565 206.869354 
C 308.824536 206.33222 308.249349 206.030419 307.649681 206.030419 
C 307.050014 206.030419 306.474827 206.33222 306.050798 206.869354 
C 305.626769 207.406488 305.388518 208.135101 305.388518 208.894723 
C 305.388518 209.654346 305.626769 210.382958 306.050798 210.920093 
C 306.474827 211.457227 307.050014 211.759028 307.649681 211.759028 
z
" style="fill:#0000ff;opacity:0.2;stroke:#0000ff;stroke-linejoin:miter;"/>
   </g>
   <g id="patch_25">
    <path clip-path="url(#pea3b078dbb)" d="M 308.554147 208.894723 
C 309.153814 208.894723 309.729001 208.592922 310.15303 208.055788 
C 310.577059 207.518654 310.815309 206.790041 310.815309 206.030419 
C 310.815309 205.270796 310.577059 204.542184 310.15303 204.005049 
C 309.729001 203.467915 309.153814 203.166114 308.554147 203.166114 
C 307.954479 203.166114 307.379292 203.467915 306.955263 204.005049 
C 306.531234 204.542184 306.292984 205.270796 306.292984 206.030419 
C 306.292984 206.790041 306.531234 207.518654 306.955263 208.055788 
C 307.379292 208.592922 307.954479 208.894723 308.554147 208.894723 
z
" style="fill:#ff0000;opacity:0.2;stroke:#ff0000;stroke-linejoin:miter;"/>
   </g>
   <g id="patch_26">
    <path d="M 307.649681 208.894723 
Q 307.801162 208.415008 307.686491 208.778153 
" style="fill:none;opacity:0.5;stroke:#0000ff;stroke-linecap:round;stroke-width:1.25;"/>
    <path d="M 305.804436 209.756862 
L 307.686491 208.778153 
L 308.665199 210.660208 
" style="fill:none;opacity:0.5;stroke:#0000ff;stroke-linecap:round;stroke-width:1.25;"/>
   </g>
   <g id="patch_27">
    <path clip-path="url(#pea3b078dbb)" d="M 195.495998 213.477611 
C 196.455465 213.477611 197.375765 212.994729 198.054211 212.135314 
C 198.732658 211.275899 199.113858 210.110119 199.113858 208.894723 
C 199.113858 207.679327 198.732658 206.513547 198.054211 205.654132 
C 197.375765 204.794718 196.455465 204.311836 195.495998 204.311836 
C 194.53653 204.311836 193.61623 204.794718 192.937784 205.654132 
C 192.259337 206.513547 191.878137 207.679327 191.878137 208.894723 
C 191.878137 210.110119 192.259337 211.275899 192.937784 212.135314 
C 193.61623 212.994729 194.53653 213.477611 195.495998 213.477611 
z
" style="fill:#0000ff;opacity:0.2;stroke:#0000ff;stroke-linejoin:miter;"/>
   </g>
   <g id="patch_28">
    <path clip-path="url(#pea3b078dbb)" d="M 183.73795 210.613306 
C 184.697418 210.613306 185.617718 210.130424 186.296164 209.271009 
C 186.97461 208.411595 187.355811 207.245815 187.355811 206.030419 
C 187.355811 204.815023 186.97461 203.649243 186.296164 202.789828 
C 185.617718 201.930413 184.697418 201.447531 183.73795 201.447531 
C 182.778482 201.447531 181.858182 201.930413 181.179736 202.789828 
C 180.50129 203.649243 180.120089 204.815023 180.120089 206.030419 
C 180.120089 207.245815 180.50129 208.411595 181.179736 209.271009 
C 181.858182 210.130424 182.778482 210.613306 183.73795 210.613306 
z
" style="fill:#ff0000;opacity:0.2;stroke:#ff0000;stroke-linejoin:miter;"/>
   </g>
   <g id="patch_29">
    <path d="M 195.495998 208.894723 
Q 190.588678 207.699282 187.055389 206.838559 
" style="fill:none;opacity:0.5;stroke:#0000ff;stroke-linecap:round;stroke-width:2;"/>
    <path d="M 188.157747 208.650963 
L 187.055389 206.838559 
L 188.867794 205.736202 
" style="fill:none;opacity:0.5;stroke:#0000ff;stroke-linecap:round;stroke-width:2;"/>
   </g>
   <g id="patch_30">
    <path clip-path="url(#pea3b078dbb)" d="M 114.998595 287.376671 
C 115.83813 287.376671 116.643392 286.95415 117.237033 286.202162 
C 117.830673 285.450174 118.164224 284.430116 118.164224 283.366645 
C 118.164224 282.303173 117.830673 281.283116 117.237033 280.531128 
C 116.643392 279.77914 115.83813 279.356618 114.998595 279.356618 
C 114.159061 279.356618 113.353799 279.77914 112.760158 280.531128 
C 112.166518 281.283116 111.832967 282.303173 111.832967 283.366645 
C 111.832967 284.430116 112.166518 285.450174 112.760158 286.202162 
C 113.353799 286.95415 114.159061 287.376671 114.998595 287.376671 
z
" style="fill:#0000ff;opacity:0.2;stroke:#0000ff;stroke-linejoin:miter;"/>
   </g>
   <g id="patch_31">
    <path clip-path="url(#pea3b078dbb)" d="M 106.858409 300.552473 
C 107.697943 300.552473 108.503205 300.129951 109.096846 299.377963 
C 109.690486 298.625975 110.024037 297.605918 110.024037 296.542446 
C 110.024037 295.478975 109.690486 294.458917 109.096846 293.706929 
C 108.503205 292.954941 107.697943 292.53242 106.858409 292.53242 
C 106.018874 292.53242 105.213612 292.954941 104.619972 293.706929 
C 104.026331 294.458917 103.692781 295.478975 103.692781 296.542446 
C 103.692781 297.605918 104.026331 298.625975 104.619972 299.377963 
C 105.213612 300.129951 106.018874 300.552473 106.858409 300.552473 
z
" style="fill:#ff0000;opacity:0.2;stroke:#ff0000;stroke-linejoin:miter;"/>
   </g>
   <g id="patch_32">
    <path d="M 114.998595 283.366645 
Q 111.454156 289.103716 108.560108 293.788056 
" style="fill:none;opacity:0.5;stroke:#0000ff;stroke-linecap:round;stroke-width:1.75;"/>
    <path d="M 110.624603 293.300347 
L 108.560108 293.788056 
L 108.072399 291.723561 
" style="fill:none;opacity:0.5;stroke:#0000ff;stroke-linecap:round;stroke-width:1.75;"/>
   </g>
   <g id="patch_33">
    <path clip-path="url(#pea3b078dbb)" d="M 85.151244 270.763704 
C 85.870845 270.763704 86.56107 270.401543 87.069905 269.756982 
C 87.578739 269.112421 87.86464 268.238086 87.86464 267.326539 
C 87.86464 266.414992 87.578739 265.540657 87.069905 264.896096 
C 86.56107 264.251534 85.870845 263.889373 85.151244 263.889373 
C 84.431643 263.889373 83.741418 264.251534 83.232584 264.896096 
C 82.723749 265.540657 82.437849 266.414992 82.437849 267.326539 
C 82.437849 268.238086 82.723749 269.112421 83.232584 269.756982 
C 83.741418 270.401543 84.431643 270.763704 85.151244 270.763704 
z
" style="fill:#0000ff;opacity:0.2;stroke:#0000ff;stroke-linejoin:miter;"/>
   </g>
   <g id="patch_34">
    <path clip-path="url(#pea3b078dbb)" d="M 58.017288 285.085228 
C 58.736889 285.085228 59.427114 284.723066 59.935949 284.078505 
C 60.444783 283.433944 60.730684 282.559609 60.730684 281.648062 
C 60.730684 280.736515 60.444783 279.86218 59.935949 279.217619 
C 59.427114 278.573058 58.736889 278.210896 58.017288 278.210896 
C 57.297687 278.210896 56.607463 278.573058 56.098628 279.217619 
C 55.589793 279.86218 55.303893 280.736515 55.303893 281.648062 
C 55.303893 282.559609 55.589793 283.433944 56.098628 284.078505 
C 56.607463 284.723066 57.297687 285.085228 58.017288 285.085228 
z
" style="fill:#ff0000;opacity:0.2;stroke:#ff0000;stroke-linejoin:miter;"/>
   </g>
   <g id="patch_35">
    <path d="M 85.151244 267.326539 
Q 72.470293 274.019648 60.727362 280.217663 
" style="fill:none;opacity:0.5;stroke:#0000ff;stroke-linecap:round;stroke-width:1.5;"/>
    <path d="M 62.754092 280.844054 
L 60.727362 280.217663 
L 61.353753 278.190933 
" style="fill:none;opacity:0.5;stroke:#0000ff;stroke-linecap:round;stroke-width:1.5;"/>
   </g>
   <g id="patch_36">
    <path clip-path="url(#pea3b078dbb)" d="M 125.852178 180.824537 
C 126.931579 180.824537 127.966916 180.281295 128.730168 179.314454 
C 129.49342 178.347612 129.922271 177.036109 129.922271 175.668789 
C 129.922271 174.301469 129.49342 172.989966 128.730168 172.023124 
C 127.966916 171.056283 126.931579 170.513041 125.852178 170.513041 
C 124.772776 170.513041 123.737439 171.056283 122.974187 172.023124 
C 122.210935 172.989966 121.782084 174.301469 121.782084 175.668789 
C 121.782084 177.036109 122.210935 178.347612 122.974187 179.314454 
C 123.737439 180.281295 124.772776 180.824537 125.852178 180.824537 
z
" style="fill:#0000ff;opacity:0.2;stroke:#0000ff;stroke-linejoin:miter;"/>
   </g>
   <g id="patch_37">
    <path clip-path="url(#pea3b078dbb)" d="M 103.240548 163.065848 
C 104.319949 163.065848 105.355287 162.522606 106.118539 161.555765 
C 106.881791 160.588923 107.310641 159.277421 107.310641 157.9101 
C 107.310641 156.54278 106.881791 155.231277 106.118539 154.264435 
C 105.355287 153.297594 104.319949 152.754352 103.240548 152.754352 
C 102.161147 152.754352 101.125809 153.297594 100.362557 154.264435 
C 99.599305 155.231277 99.170455 156.54278 99.170455 157.9101 
C 99.170455 159.277421 99.599305 160.588923 100.362557 161.555765 
C 101.125809 162.522606 102.161147 163.065848 103.240548 163.065848 
z
" style="fill:#ff0000;opacity:0.2;stroke:#ff0000;stroke-linejoin:miter;"/>
   </g>
   <g id="patch_38">
    <path d="M 125.852178 175.668789 
Q 115.331642 167.406186 106.062336 160.126272 
" style="fill:none;opacity:0.5;stroke:#0000ff;stroke-linecap:round;stroke-width:2.25;"/>
    <path d="M 106.315518 162.232429 
L 106.062336 160.126272 
L 108.168493 159.873089 
" style="fill:none;opacity:0.5;stroke:#0000ff;stroke-linecap:round;stroke-width:2.25;"/>
   </g>
   <g id="patch_39">
    <path clip-path="url(#pea3b078dbb)" d="M 177.406694 156.191517 
C 178.366162 156.191517 179.286461 155.708635 179.964908 154.849221 
C 180.643354 153.989806 181.024554 152.824026 181.024554 151.60863 
C 181.024554 150.393234 180.643354 149.227454 179.964908 148.368039 
C 179.286461 147.508624 178.366162 147.025742 177.406694 147.025742 
C 176.447226 147.025742 175.526926 147.508624 174.84848 148.368039 
C 174.170034 149.227454 173.788833 150.393234 173.788833 151.60863 
C 173.788833 152.824026 174.170034 153.989806 174.84848 154.849221 
C 175.526926 155.708635 176.447226 156.191517 177.406694 156.191517 
z
" style="fill:#0000ff;opacity:0.2;stroke:#0000ff;stroke-linejoin:miter;"/>
   </g>
   <g id="patch_40">
    <path clip-path="url(#pea3b078dbb)" d="M 184.642415 128.121331 
C 185.601883 128.121331 186.522183 127.638449 187.200629 126.779035 
C 187.879075 125.91962 188.260276 124.75384 188.260276 123.538444 
C 188.260276 122.323048 187.879075 121.157268 187.200629 120.297853 
C 186.522183 119.438438 185.601883 118.955556 184.642415 118.955556 
C 183.682947 118.955556 182.762648 119.438438 182.084201 120.297853 
C 181.405755 121.157268 181.024554 122.323048 181.024554 123.538444 
C 181.024554 124.75384 181.405755 125.91962 182.084201 126.779035 
C 182.762648 127.638449 183.682947 128.121331 184.642415 128.121331 
z
" style="fill:#ff0000;opacity:0.2;stroke:#ff0000;stroke-linejoin:miter;"/>
   </g>
   <g id="patch_41">
    <path d="M 177.406694 151.60863 
Q 180.775032 138.541533 183.790364 126.843885 
" style="fill:none;opacity:0.5;stroke:#0000ff;stroke-linecap:round;stroke-width:2;"/>
    <path d="M 181.963426 127.921984 
L 183.790364 126.843885 
L 184.868463 128.670822 
" style="fill:none;opacity:0.5;stroke:#0000ff;stroke-linecap:round;stroke-width:2;"/>
   </g>
   <g id="patch_42">
    <path clip-path="url(#pea3b078dbb)" d="M 289.560377 157.337239 
C 290.759712 157.337239 291.910087 156.733637 292.758145 155.659368 
C 293.606203 154.5851 294.082703 153.127875 294.082703 151.60863 
C 294.082703 150.089385 293.606203 148.63216 292.758145 147.557891 
C 291.910087 146.483623 290.759712 145.88002 289.560377 145.88002 
C 288.361043 145.88002 287.210668 146.483623 286.36261 147.557891 
C 285.514552 148.63216 285.038052 150.089385 285.038052 151.60863 
C 285.038052 153.127875 285.514552 154.5851 286.36261 155.659368 
C 287.210668 156.733637 288.361043 157.337239 289.560377 157.337239 
z
" style="fill:#0000ff;opacity:0.2;stroke:#0000ff;stroke-linejoin:miter;"/>
   </g>
   <g id="patch_43">
    <path clip-path="url(#pea3b078dbb)" d="M 299.509495 129.267053 
C 300.708829 129.267053 301.859204 128.663451 302.707262 127.589182 
C 303.55532 126.514914 304.031821 125.057689 304.031821 123.538444 
C 304.031821 122.019199 303.55532 120.561974 302.707262 119.487705 
C 301.859204 118.413437 300.708829 117.809835 299.509495 117.809835 
C 298.31016 117.809835 297.159785 118.413437 296.311727 119.487705 
C 295.463669 120.561974 294.987169 122.019199 294.987169 123.538444 
C 294.987169 125.057689 295.463669 126.514914 296.311727 127.589182 
C 297.159785 128.663451 298.31016 129.267053 299.509495 129.267053 
z
" style="fill:#ff0000;opacity:0.2;stroke:#ff0000;stroke-linejoin:miter;"/>
   </g>
   <g id="patch_44">
    <path d="M 289.560377 151.60863 
Q 294.200344 138.517548 298.249745 127.092669 
" style="fill:none;opacity:0.5;stroke:#0000ff;stroke-linecap:round;stroke-width:2.5;"/>
    <path d="M 296.334814 128.005379 
L 298.249745 127.092669 
L 299.162455 129.0076 
" style="fill:none;opacity:0.5;stroke:#0000ff;stroke-linecap:round;stroke-width:2.5;"/>
   </g>
   <g id="patch_45">
    <path clip-path="url(#pea3b078dbb)" d="M 370.05778 81.719596 
C 371.017247 81.719596 371.937547 81.236714 372.615993 80.377299 
C 373.29444 79.517884 373.67564 78.352104 373.67564 77.136708 
C 373.67564 75.921312 373.29444 74.755532 372.615993 73.896117 
C 371.937547 73.036703 371.017247 72.553821 370.05778 72.553821 
C 369.098312 72.553821 368.178012 73.036703 367.499566 73.896117 
C 366.821119 74.755532 366.439919 75.921312 366.439919 77.136708 
C 366.439919 78.352104 366.821119 79.517884 367.499566 80.377299 
C 368.178012 81.236714 369.098312 81.719596 370.05778 81.719596 
z
" style="fill:#0000ff;opacity:0.2;stroke:#0000ff;stroke-linejoin:miter;"/>
   </g>
   <g id="patch_46">
    <path clip-path="url(#pea3b078dbb)" d="M 376.389036 43.337913 
C 377.348504 43.337913 378.268804 42.855031 378.94725 41.995616 
C 379.625696 41.136202 380.006897 39.970421 380.006897 38.755026 
C 380.006897 37.53963 379.625696 36.373849 378.94725 35.514435 
C 378.268804 34.65502 377.348504 34.172138 376.389036 34.172138 
C 375.429568 34.172138 374.509268 34.65502 373.830822 35.514435 
C 373.152376 36.373849 372.771175 37.53963 372.771175 38.755026 
C 372.771175 39.970421 373.152376 41.136202 373.830822 41.995616 
C 374.509268 42.855031 375.429568 43.337913 376.389036 43.337913 
z
" style="fill:#ff0000;opacity:0.2;stroke:#ff0000;stroke-linejoin:miter;"/>
   </g>
   <g id="patch_47">
    <path d="M 370.05778 77.136708 
Q 373.060721 58.932115 375.833491 42.122879 
" style="fill:none;opacity:0.5;stroke:#0000ff;stroke-linecap:round;stroke-width:2;"/>
    <path d="M 374.109358 43.358745 
L 375.833491 42.122879 
L 377.069357 43.847012 
" style="fill:none;opacity:0.5;stroke:#0000ff;stroke-linecap:round;stroke-width:2;"/>
   </g>
   <g id="patch_48">
    <path clip-path="url(#pea3b078dbb)" d="M 399.905131 98.905424 
C 401.104466 98.905424 402.25484 98.301821 403.102898 97.227553 
C 403.950956 96.153284 404.427457 94.696059 404.427457 93.176814 
C 404.427457 91.657569 403.950956 90.200344 403.102898 89.126076 
C 402.25484 88.051807 401.104466 87.448205 399.905131 87.448205 
C 398.705796 87.448205 397.555421 88.051807 396.707364 89.126076 
C 395.859306 90.200344 395.382805 91.657569 395.382805 93.176814 
C 395.382805 94.696059 395.859306 96.153284 396.707364 97.227553 
C 397.555421 98.301821 398.705796 98.905424 399.905131 98.905424 
z
" style="fill:#0000ff;opacity:0.2;stroke:#0000ff;stroke-linejoin:miter;"/>
   </g>
   <g id="patch_49">
    <path clip-path="url(#pea3b078dbb)" d="M 427.039087 61.669463 
C 428.238422 61.669463 429.388796 61.065861 430.236854 59.991592 
C 431.084912 58.917324 431.561413 57.460099 431.561413 55.940854 
C 431.561413 54.421609 431.084912 52.964383 430.236854 51.890115 
C 429.388796 50.815847 428.238422 50.212244 427.039087 50.212244 
C 425.839752 50.212244 424.689377 50.815847 423.841319 51.890115 
C 422.993261 52.964383 422.516761 54.421609 422.516761 55.940854 
C 422.516761 57.460099 422.993261 58.917324 423.841319 59.991592 
C 424.689377 61.065861 425.839752 61.669463 427.039087 61.669463 
z
" style="fill:#ff0000;opacity:0.2;stroke:#ff0000;stroke-linejoin:miter;"/>
   </g>
   <g id="patch_50">
    <path d="M 399.905131 93.176814 
Q 412.883356 75.36678 424.820495 58.985429 
" style="fill:none;opacity:0.5;stroke:#0000ff;stroke-linecap:round;stroke-width:2.5;"/>
    <path d="M 422.724825 59.314317 
L 424.820495 58.985429 
L 425.149383 61.0811 
" style="fill:none;opacity:0.5;stroke:#0000ff;stroke-linecap:round;stroke-width:2.5;"/>
   </g>
   <g id="patch_51">
    <path clip-path="url(#pea3b078dbb)" d="M 358.299732 194.5732 
C 359.858867 194.5732 361.354354 193.788517 362.45683 192.391968 
C 363.559305 190.995419 364.178756 189.101026 364.178756 187.126008 
C 364.178756 185.150989 363.559305 183.256597 362.45683 181.860048 
C 361.354354 180.463499 359.858867 179.678816 358.299732 179.678816 
C 356.740597 179.678816 355.24511 180.463499 354.142635 181.860048 
C 353.040159 183.256597 352.420708 185.150989 352.420708 187.126008 
C 352.420708 189.101026 353.040159 190.995419 354.142635 192.391968 
C 355.24511 193.788517 356.740597 194.5732 358.299732 194.5732 
z
" style="fill:#0000ff;opacity:0.2;stroke:#0000ff;stroke-linejoin:miter;"/>
   </g>
   <g id="patch_52">
    <path clip-path="url(#pea3b078dbb)" d="M 377.293501 183.688842 
C 378.852636 183.688842 380.348124 182.904159 381.450599 181.50761 
C 382.553074 180.111061 383.172525 178.216668 383.172525 176.24165 
C 383.172525 174.266632 382.553074 172.372239 381.450599 170.97569 
C 380.348124 169.579141 378.852636 168.794458 377.293501 168.794458 
C 375.734366 168.794458 374.238879 169.579141 373.136404 170.97569 
C 372.033928 172.372239 371.414477 174.266632 371.414477 176.24165 
C 371.414477 178.216668 372.033928 180.111061 373.136404 181.50761 
C 374.238879 182.904159 375.734366 183.688842 377.293501 183.688842 
z
" style="fill:#ff0000;opacity:0.2;stroke:#ff0000;stroke-linejoin:miter;"/>
   </g>
   <g id="patch_53">
    <path d="M 358.299732 187.126008 
Q 366.92831 182.181411 373.562974 178.379424 
" style="fill:none;opacity:0.5;stroke:#0000ff;stroke-linecap:round;stroke-width:3.25;"/>
    <path d="M 371.515721 177.823766 
L 373.562974 178.379424 
L 373.007317 180.426677 
" style="fill:none;opacity:0.5;stroke:#0000ff;stroke-linecap:round;stroke-width:3.25;"/>
   </g>
   <g id="patch_54">
    <path clip-path="url(#pea3b078dbb)" d="M 184.642415 127.54847 
C 185.48195 127.54847 186.287212 127.125949 186.880852 126.373961 
C 187.474493 125.621973 187.808043 124.601915 187.808043 123.538444 
C 187.808043 122.474972 187.474493 121.454915 186.880852 120.702927 
C 186.287212 119.950939 185.48195 119.528417 184.642415 119.528417 
C 183.802881 119.528417 182.997619 119.950939 182.403978 120.702927 
C 181.810338 121.454915 181.476787 122.474972 181.476787 123.538444 
C 181.476787 124.601915 181.810338 125.621973 182.403978 126.373961 
C 182.997619 127.125949 183.802881 127.54847 184.642415 127.54847 
z
" style="fill:#0000ff;opacity:0.2;stroke:#0000ff;stroke-linejoin:miter;"/>
   </g>
   <g id="patch_55">
    <path clip-path="url(#pea3b078dbb)" d="M 177.406694 155.618656 
C 178.246228 155.618656 179.05149 155.196135 179.645131 154.444147 
C 180.238771 153.692159 180.572322 152.672101 180.572322 151.60863 
C 180.572322 150.545158 180.238771 149.525101 179.645131 148.773113 
C 179.05149 148.021125 178.246228 147.598603 177.406694 147.598603 
C 176.567159 147.598603 175.761897 148.021125 175.168257 148.773113 
C 174.574616 149.525101 174.241066 150.545158 174.241066 151.60863 
C 174.241066 152.672101 174.574616 153.692159 175.168257 154.444147 
C 175.761897 155.196135 176.567159 155.618656 177.406694 155.618656 
z
" style="fill:#ff0000;opacity:0.2;stroke:#ff0000;stroke-linejoin:miter;"/>
   </g>
   <g id="patch_56">
    <path d="M 184.642415 123.538444 
Q 181.274077 136.60554 178.21462 148.47437 
" style="fill:none;opacity:0.5;stroke:#ff0000;stroke-linecap:round;stroke-width:1.75;"/>
    <path d="M 180.041557 147.396271 
L 178.21462 148.47437 
L 177.13652 146.647432 
" style="fill:none;opacity:0.5;stroke:#ff0000;stroke-linecap:round;stroke-width:1.75;"/>
   </g>
   <g id="patch_57">
    <path clip-path="url(#pea3b078dbb)" d="M 299.509495 129.267053 
C 300.708829 129.267053 301.859204 128.663451 302.707262 127.589182 
C 303.55532 126.514914 304.031821 125.057689 304.031821 123.538444 
C 304.031821 122.019199 303.55532 120.561974 302.707262 119.487705 
C 301.859204 118.413437 300.708829 117.809835 299.509495 117.809835 
C 298.31016 117.809835 297.159785 118.413437 296.311727 119.487705 
C 295.463669 120.561974 294.987169 122.019199 294.987169 123.538444 
C 294.987169 125.057689 295.463669 126.514914 296.311727 127.589182 
C 297.159785 128.663451 298.31016 129.267053 299.509495 129.267053 
z
" style="fill:#0000ff;opacity:0.2;stroke:#0000ff;stroke-linejoin:miter;"/>
   </g>
   <g id="patch_58">
    <path clip-path="url(#pea3b078dbb)" d="M 289.560377 157.337239 
C 290.759712 157.337239 291.910087 156.733637 292.758145 155.659368 
C 293.606203 154.5851 294.082703 153.127875 294.082703 151.60863 
C 294.082703 150.089385 293.606203 148.63216 292.758145 147.557891 
C 291.910087 146.483623 290.759712 145.88002 289.560377 145.88002 
C 288.361043 145.88002 287.210668 146.483623 286.36261 147.557891 
C 285.514552 148.63216 285.038052 150.089385 285.038052 151.60863 
C 285.038052 153.127875 285.514552 154.5851 286.36261 155.659368 
C 287.210668 156.733637 288.361043 157.337239 289.560377 157.337239 
z
" style="fill:#ff0000;opacity:0.2;stroke:#ff0000;stroke-linejoin:miter;"/>
   </g>
   <g id="patch_59">
    <path d="M 299.509495 123.538444 
Q 294.869529 136.629526 290.820127 148.054405 
" style="fill:none;opacity:0.5;stroke:#ff0000;stroke-linecap:round;stroke-width:2.5;"/>
    <path d="M 292.735058 147.141695 
L 290.820127 148.054405 
L 289.907417 146.139474 
" style="fill:none;opacity:0.5;stroke:#ff0000;stroke-linecap:round;stroke-width:2.5;"/>
   </g>
   <g id="patch_60">
    <path clip-path="url(#pea3b078dbb)" d="M 376.389036 44.483635 
C 377.588371 44.483635 378.738745 43.880032 379.586803 42.805764 
C 380.434861 41.731496 380.911362 40.27427 380.911362 38.755026 
C 380.911362 37.235781 380.434861 35.778555 379.586803 34.704287 
C 378.738745 33.630019 377.588371 33.026416 376.389036 33.026416 
C 375.189701 33.026416 374.039326 33.630019 373.191269 34.704287 
C 372.343211 35.778555 371.86671 37.235781 371.86671 38.755026 
C 371.86671 40.27427 372.343211 41.731496 373.191269 42.805764 
C 374.039326 43.880032 375.189701 44.483635 376.389036 44.483635 
z
" style="fill:#0000ff;opacity:0.2;stroke:#0000ff;stroke-linejoin:miter;"/>
   </g>
   <g id="patch_61">
    <path clip-path="url(#pea3b078dbb)" d="M 370.05778 82.865318 
C 371.257114 82.865318 372.407489 82.261715 373.255547 81.187447 
C 374.103605 80.113178 374.580106 78.655953 374.580106 77.136708 
C 374.580106 75.617463 374.103605 74.160238 373.255547 73.08597 
C 372.407489 72.011701 371.257114 71.408099 370.05778 71.408099 
C 368.858445 71.408099 367.70807 72.011701 366.860012 73.08597 
C 366.011954 74.160238 365.535454 75.617463 365.535454 77.136708 
C 365.535454 78.655953 366.011954 80.113178 366.860012 81.187447 
C 367.70807 82.261715 368.858445 82.865318 370.05778 82.865318 
z
" style="fill:#ff0000;opacity:0.2;stroke:#ff0000;stroke-linejoin:miter;"/>
   </g>
   <g id="patch_62">
    <path d="M 376.389036 38.755026 
Q 373.386094 56.959619 370.670867 73.420016 
" style="fill:none;opacity:0.5;stroke:#ff0000;stroke-linecap:round;stroke-width:2.5;"/>
    <path d="M 372.395 72.18415 
L 370.670867 73.420016 
L 369.435001 71.695883 
" style="fill:none;opacity:0.5;stroke:#ff0000;stroke-linecap:round;stroke-width:2.5;"/>
   </g>
   <g id="patch_63">
    <path clip-path="url(#pea3b078dbb)" d="M 427.039087 61.669463 
C 428.238422 61.669463 429.388796 61.065861 430.236854 59.991592 
C 431.084912 58.917324 431.561413 57.460099 431.561413 55.940854 
C 431.561413 54.421609 431.084912 52.964383 430.236854 51.890115 
C 429.388796 50.815847 428.238422 50.212244 427.039087 50.212244 
C 425.839752 50.212244 424.689377 50.815847 423.841319 51.890115 
C 422.993261 52.964383 422.516761 54.421609 422.516761 55.940854 
C 422.516761 57.460099 422.993261 58.917324 423.841319 59.991592 
C 424.689377 61.065861 425.839752 61.669463 427.039087 61.669463 
z
" style="fill:#0000ff;opacity:0.2;stroke:#0000ff;stroke-linejoin:miter;"/>
   </g>
   <g id="patch_64">
    <path clip-path="url(#pea3b078dbb)" d="M 399.905131 98.905424 
C 401.104466 98.905424 402.25484 98.301821 403.102898 97.227553 
C 403.950956 96.153284 404.427457 94.696059 404.427457 93.176814 
C 404.427457 91.657569 403.950956 90.200344 403.102898 89.126076 
C 402.25484 88.051807 401.104466 87.448205 399.905131 87.448205 
C 398.705796 87.448205 397.555421 88.051807 396.707364 89.126076 
C 395.859306 90.200344 395.382805 91.657569 395.382805 93.176814 
C 395.382805 94.696059 395.859306 96.153284 396.707364 97.227553 
C 397.555421 98.301821 398.705796 98.905424 399.905131 98.905424 
z
" style="fill:#ff0000;opacity:0.2;stroke:#ff0000;stroke-linejoin:miter;"/>
   </g>
   <g id="patch_65">
    <path d="M 427.039087 55.940854 
Q 414.060861 73.750888 402.123722 90.132238 
" style="fill:none;opacity:0.5;stroke:#ff0000;stroke-linecap:round;stroke-width:2.5;"/>
    <path d="M 404.219393 89.803351 
L 402.123722 90.132238 
L 401.794835 88.036568 
" style="fill:none;opacity:0.5;stroke:#ff0000;stroke-linecap:round;stroke-width:2.5;"/>
   </g>
   <g id="patch_66">
    <path clip-path="url(#pea3b078dbb)" d="M 377.293501 183.115981 
C 378.732703 183.115981 380.113153 182.391658 381.130822 181.102536 
C 382.148491 179.813414 382.720292 178.064744 382.720292 176.24165 
C 382.720292 174.418556 382.148491 172.669886 381.130822 171.380764 
C 380.113153 170.091642 378.732703 169.367319 377.293501 169.367319 
C 375.854299 169.367319 374.47385 170.091642 373.45618 171.380764 
C 372.438511 172.669886 371.86671 174.418556 371.86671 176.24165 
C 371.86671 178.064744 372.438511 179.813414 373.45618 181.102536 
C 374.47385 182.391658 375.854299 183.115981 377.293501 183.115981 
z
" style="fill:#0000ff;opacity:0.2;stroke:#0000ff;stroke-linejoin:miter;"/>
   </g>
   <g id="patch_67">
    <path clip-path="url(#pea3b078dbb)" d="M 358.299732 194.000339 
C 359.738934 194.000339 361.119384 193.276016 362.137053 191.986894 
C 363.154722 190.697772 363.726523 188.949102 363.726523 187.126008 
C 363.726523 185.302914 363.154722 183.554244 362.137053 182.265122 
C 361.119384 180.975999 359.738934 180.251677 358.299732 180.251677 
C 356.86053 180.251677 355.480081 180.975999 354.462411 182.265122 
C 353.444742 183.554244 352.872941 185.302914 352.872941 187.126008 
C 352.872941 188.949102 353.444742 190.697772 354.462411 191.986894 
C 355.480081 193.276016 356.86053 194.000339 358.299732 194.000339 
z
" style="fill:#ff0000;opacity:0.2;stroke:#ff0000;stroke-linejoin:miter;"/>
   </g>
   <g id="patch_68">
    <path d="M 377.293501 176.24165 
Q 368.664923 181.186247 361.876881 185.076127 
" style="fill:none;opacity:0.5;stroke:#ff0000;stroke-linecap:round;stroke-width:3;"/>
    <path d="M 363.924134 185.631785 
L 361.876881 185.076127 
L 362.432539 183.028874 
" style="fill:none;opacity:0.5;stroke:#ff0000;stroke-linecap:round;stroke-width:3;"/>
   </g>
   <g id="patch_69">
    <path clip-path="url(#pea3b078dbb)" d="M 308.554147 210.040445 
C 309.393681 210.040445 310.198943 209.617923 310.792584 208.865936 
C 311.386224 208.113948 311.719775 207.09389 311.719775 206.030419 
C 311.719775 204.966947 311.386224 203.94689 310.792584 203.194902 
C 310.198943 202.442914 309.393681 202.020392 308.554147 202.020392 
C 307.714612 202.020392 306.90935 202.442914 306.315709 203.194902 
C 305.722069 203.94689 305.388518 204.966947 305.388518 206.030419 
C 305.388518 207.09389 305.722069 208.113948 306.315709 208.865936 
C 306.90935 209.617923 307.714612 210.040445 308.554147 210.040445 
z
" style="fill:#0000ff;opacity:0.2;stroke:#0000ff;stroke-linejoin:miter;"/>
   </g>
   <g id="patch_70">
    <path clip-path="url(#pea3b078dbb)" d="M 307.649681 212.90475 
C 308.489216 212.90475 309.294478 212.482228 309.888118 211.73024 
C 310.481759 210.978252 310.815309 209.958195 310.815309 208.894723 
C 310.815309 207.831252 310.481759 206.811194 309.888118 206.059206 
C 309.294478 205.307218 308.489216 204.884697 307.649681 204.884697 
C 306.810147 204.884697 306.004885 205.307218 305.411244 206.059206 
C 304.817604 206.811194 304.484053 207.831252 304.484053 208.894723 
C 304.484053 209.958195 304.817604 210.978252 305.411244 211.73024 
C 306.004885 212.482228 306.810147 212.90475 307.649681 212.90475 
z
" style="fill:#ff0000;opacity:0.2;stroke:#ff0000;stroke-linejoin:miter;"/>
   </g>
   <g id="patch_71">
    <path d="M 308.554147 206.030419 
Q 308.402666 206.510134 308.623798 205.809844 
" style="fill:none;opacity:0.5;stroke:#ff0000;stroke-linecap:round;stroke-width:1.75;"/>
    <path d="M 310.505852 204.831136 
L 308.623798 205.809844 
L 307.645089 203.927789 
" style="fill:none;opacity:0.5;stroke:#ff0000;stroke-linecap:round;stroke-width:1.75;"/>
   </g>
   <g id="patch_72">
    <path clip-path="url(#pea3b078dbb)" d="M 183.73795 210.040445 
C 184.577484 210.040445 185.382747 209.617923 185.976387 208.865936 
C 186.570028 208.113948 186.903578 207.09389 186.903578 206.030419 
C 186.903578 204.966947 186.570028 203.94689 185.976387 203.194902 
C 185.382747 202.442914 184.577484 202.020392 183.73795 202.020392 
C 182.898416 202.020392 182.093153 202.442914 181.499513 203.194902 
C 180.905872 203.94689 180.572322 204.966947 180.572322 206.030419 
C 180.572322 207.09389 180.905872 208.113948 181.499513 208.865936 
C 182.093153 209.617923 182.898416 210.040445 183.73795 210.040445 
z
" style="fill:#0000ff;opacity:0.2;stroke:#0000ff;stroke-linejoin:miter;"/>
   </g>
   <g id="patch_73">
    <path clip-path="url(#pea3b078dbb)" d="M 195.495998 212.90475 
C 196.335532 212.90475 197.140794 212.482228 197.734435 211.73024 
C 198.328075 210.978252 198.661626 209.958195 198.661626 208.894723 
C 198.661626 207.831252 198.328075 206.811194 197.734435 206.059206 
C 197.140794 205.307218 196.335532 204.884697 195.495998 204.884697 
C 194.656463 204.884697 193.851201 205.307218 193.25756 206.059206 
C 192.66392 206.811194 192.330369 207.831252 192.330369 208.894723 
C 192.330369 209.958195 192.66392 210.978252 193.25756 211.73024 
C 193.851201 212.482228 194.656463 212.90475 195.495998 212.90475 
z
" style="fill:#ff0000;opacity:0.2;stroke:#ff0000;stroke-linejoin:miter;"/>
   </g>
   <g id="patch_74">
    <path d="M 183.73795 206.030419 
Q 188.64527 207.22586 192.350312 208.128422 
" style="fill:none;opacity:0.5;stroke:#ff0000;stroke-linecap:round;stroke-width:1.75;"/>
    <path d="M 191.247955 206.316018 
L 192.350312 208.128422 
L 190.537908 209.23078 
" style="fill:none;opacity:0.5;stroke:#ff0000;stroke-linecap:round;stroke-width:1.75;"/>
   </g>
   <g id="patch_75">
    <path clip-path="url(#pea3b078dbb)" d="M 106.858409 299.406751 
C 107.458076 299.406751 108.033263 299.10495 108.457292 298.567816 
C 108.881321 298.030681 109.119572 297.302069 109.119572 296.542446 
C 109.119572 295.782824 108.881321 295.054211 108.457292 294.517077 
C 108.033263 293.979943 107.458076 293.678142 106.858409 293.678142 
C 106.258741 293.678142 105.683554 293.979943 105.259525 294.517077 
C 104.835496 295.054211 104.597246 295.782824 104.597246 296.542446 
C 104.597246 297.302069 104.835496 298.030681 105.259525 298.567816 
C 105.683554 299.10495 106.258741 299.406751 106.858409 299.406751 
z
" style="fill:#0000ff;opacity:0.2;stroke:#0000ff;stroke-linejoin:miter;"/>
   </g>
   <g id="patch_76">
    <path clip-path="url(#pea3b078dbb)" d="M 114.998595 286.23095 
C 115.598263 286.23095 116.17345 285.929148 116.597479 285.392014 
C 117.021508 284.85488 117.259758 284.126267 117.259758 283.366645 
C 117.259758 282.607022 117.021508 281.87841 116.597479 281.341276 
C 116.17345 280.804141 115.598263 280.50234 114.998595 280.50234 
C 114.398928 280.50234 113.823741 280.804141 113.399712 281.341276 
C 112.975683 281.87841 112.737432 282.607022 112.737432 283.366645 
C 112.737432 284.126267 112.975683 284.85488 113.399712 285.392014 
C 113.823741 285.929148 114.398928 286.23095 114.998595 286.23095 
z
" style="fill:#ff0000;opacity:0.2;stroke:#ff0000;stroke-linejoin:miter;"/>
   </g>
   <g id="patch_77">
    <path d="M 106.858409 296.542446 
Q 110.402848 290.805376 113.482722 285.820255 
" style="fill:none;opacity:0.5;stroke:#ff0000;stroke-linecap:round;stroke-width:1.25;"/>
    <path d="M 111.418227 286.307964 
L 113.482722 285.820255 
L 113.970431 287.88475 
" style="fill:none;opacity:0.5;stroke:#ff0000;stroke-linecap:round;stroke-width:1.25;"/>
   </g>
   <g id="patch_78">
    <path clip-path="url(#pea3b078dbb)" d="M 58.017288 287.949532 
C 59.336557 287.949532 60.601969 287.28557 61.534832 286.103874 
C 62.467696 284.922179 62.991847 283.319231 62.991847 281.648062 
C 62.991847 279.976893 62.467696 278.373945 61.534832 277.19225 
C 60.601969 276.010554 59.336557 275.346592 58.017288 275.346592 
C 56.69802 275.346592 55.432608 276.010554 54.499744 277.19225 
C 53.566881 278.373945 53.04273 279.976893 53.04273 281.648062 
C 53.04273 283.319231 53.566881 284.922179 54.499744 286.103874 
C 55.432608 287.28557 56.69802 287.949532 58.017288 287.949532 
z
" style="fill:#0000ff;opacity:0.2;stroke:#0000ff;stroke-linejoin:miter;"/>
   </g>
   <g id="patch_79">
    <path clip-path="url(#pea3b078dbb)" d="M 85.151244 273.628009 
C 86.470512 273.628009 87.735925 272.964046 88.668788 271.782351 
C 89.601652 270.600656 90.125803 268.997708 90.125803 267.326539 
C 90.125803 265.655369 89.601652 264.052422 88.668788 262.870726 
C 87.735925 261.689031 86.470512 261.025068 85.151244 261.025068 
C 83.831976 261.025068 82.566564 261.689031 81.6337 262.870726 
C 80.700836 264.052422 80.176686 265.655369 80.176686 267.326539 
C 80.176686 268.997708 80.700836 270.600656 81.6337 271.782351 
C 82.566564 272.964046 83.831976 273.628009 85.151244 273.628009 
z
" style="fill:#ff0000;opacity:0.2;stroke:#ff0000;stroke-linejoin:miter;"/>
   </g>
   <g id="patch_80">
    <path d="M 58.017288 281.648062 
Q 70.698239 274.954953 81.659487 269.169517 
" style="fill:none;opacity:0.5;stroke:#ff0000;stroke-linecap:round;stroke-width:2.75;"/>
    <path d="M 79.632757 268.543126 
L 81.659487 269.169517 
L 81.033096 271.196247 
" style="fill:none;opacity:0.5;stroke:#ff0000;stroke-linecap:round;stroke-width:2.75;"/>
   </g>
   <g id="patch_81">
    <path clip-path="url(#pea3b078dbb)" d="M 103.240548 164.784431 
C 104.67975 164.784431 106.060199 164.060108 107.077869 162.770986 
C 108.095538 161.481864 108.667339 159.733194 108.667339 157.9101 
C 108.667339 156.087006 108.095538 154.338336 107.077869 153.049214 
C 106.060199 151.760092 104.67975 151.035769 103.240548 151.035769 
C 101.801346 151.035769 100.420896 151.760092 99.403227 153.049214 
C 98.385558 154.338336 97.813757 156.087006 97.813757 157.9101 
C 97.813757 159.733194 98.385558 161.481864 99.403227 162.770986 
C 100.420896 164.060108 101.801346 164.784431 103.240548 164.784431 
z
" style="fill:#0000ff;opacity:0.2;stroke:#0000ff;stroke-linejoin:miter;"/>
   </g>
   <g id="patch_82">
    <path clip-path="url(#pea3b078dbb)" d="M 125.852178 182.54312 
C 127.29138 182.54312 128.671829 181.818797 129.689499 180.529675 
C 130.707168 179.240553 131.278969 177.491883 131.278969 175.668789 
C 131.278969 173.845695 130.707168 172.097025 129.689499 170.807903 
C 128.671829 169.518781 127.29138 168.794458 125.852178 168.794458 
C 124.412976 168.794458 123.032526 169.518781 122.014857 170.807903 
C 120.997188 172.097025 120.425387 173.845695 120.425387 175.668789 
C 120.425387 177.491883 120.997188 179.240553 122.014857 180.529675 
C 123.032526 181.818797 124.412976 182.54312 125.852178 182.54312 
z
" style="fill:#ff0000;opacity:0.2;stroke:#ff0000;stroke-linejoin:miter;"/>
   </g>
   <g id="patch_83">
    <path d="M 103.240548 157.9101 
Q 113.761083 166.172703 122.613314 173.125055 
" style="fill:none;opacity:0.5;stroke:#ff0000;stroke-linecap:round;stroke-width:3;"/>
    <path d="M 122.360131 171.018897 
L 122.613314 173.125055 
L 120.507157 173.378237 
" style="fill:none;opacity:0.5;stroke:#ff0000;stroke-linecap:round;stroke-width:3;"/>
   </g>
   <g id="patch_84">
    <path clip-path="url(#pea3b078dbb)" d="M 308.101914 213.19118 
C 309.301249 213.19118 310.451623 212.587578 311.299681 211.513309 
C 312.147739 210.439041 312.62424 208.981816 312.62424 207.462571 
C 312.62424 205.943326 312.147739 204.486101 311.299681 203.411832 
C 310.451623 202.337564 309.301249 201.733962 308.101914 201.733962 
C 306.902579 201.733962 305.752204 202.337564 304.904147 203.411832 
C 304.056089 204.486101 303.579588 205.943326 303.579588 207.462571 
C 303.579588 208.981816 304.056089 210.439041 304.904147 211.513309 
C 305.752204 212.587578 306.902579 213.19118 308.101914 213.19118 
z
" style="fill:#008000;opacity:0.2;stroke:#008000;stroke-linejoin:miter;"/>
   </g>
   <g id="patch_85">
    <path clip-path="url(#pea3b078dbb)" d="M 189.616974 213.19118 
C 190.816309 213.19118 191.966683 212.587578 192.814741 211.513309 
C 193.662799 210.439041 194.1393 208.981816 194.1393 207.462571 
C 194.1393 205.943326 193.662799 204.486101 192.814741 203.411832 
C 191.966683 202.337564 190.816309 201.733962 189.616974 201.733962 
C 188.417639 201.733962 187.267264 202.337564 186.419206 203.411832 
C 185.571149 204.486101 185.094648 205.943326 185.094648 207.462571 
C 185.094648 208.981816 185.571149 210.439041 186.419206 211.513309 
C 187.267264 212.587578 188.417639 213.19118 189.616974 213.19118 
z
" style="fill:#008000;opacity:0.2;stroke:#008000;stroke-linejoin:miter;"/>
   </g>
   <g id="patch_86">
    <path clip-path="url(#pea3b078dbb)" d="M 110.928502 295.683155 
C 112.127837 295.683155 113.278212 295.079553 114.126269 294.005284 
C 114.974327 292.931016 115.450828 291.473791 115.450828 289.954546 
C 115.450828 288.435301 114.974327 286.978075 114.126269 285.903807 
C 113.278212 284.829539 112.127837 284.225936 110.928502 284.225936 
C 109.729167 284.225936 108.578793 284.829539 107.730735 285.903807 
C 106.882677 286.978075 106.406176 288.435301 106.406176 289.954546 
C 106.406176 291.473791 106.882677 292.931016 107.730735 294.005284 
C 108.578793 295.079553 109.729167 295.683155 110.928502 295.683155 
z
" style="fill:#008000;opacity:0.2;stroke:#008000;stroke-linejoin:miter;"/>
   </g>
   <g id="patch_87">
    <path clip-path="url(#pea3b078dbb)" d="M 71.584266 280.21591 
C 72.783601 280.21591 73.933976 279.612307 74.782034 278.538039 
C 75.630091 277.46377 76.106592 276.006545 76.106592 274.4873 
C 76.106592 272.968055 75.630091 271.51083 74.782034 270.436562 
C 73.933976 269.362293 72.783601 268.758691 71.584266 268.758691 
C 70.384931 268.758691 69.234557 269.362293 68.386499 270.436562 
C 67.538441 271.51083 67.06194 272.968055 67.06194 274.4873 
C 67.06194 276.006545 67.538441 277.46377 68.386499 278.538039 
C 69.234557 279.612307 70.384931 280.21591 71.584266 280.21591 
z
" style="fill:#008000;opacity:0.2;stroke:#008000;stroke-linejoin:miter;"/>
   </g>
   <g id="patch_88">
    <path clip-path="url(#pea3b078dbb)" d="M 114.546363 172.518054 
C 115.745698 172.518054 116.896072 171.914451 117.74413 170.840183 
C 118.592188 169.765915 119.068689 168.308689 119.068689 166.789445 
C 119.068689 165.2702 118.592188 163.812974 117.74413 162.738706 
C 116.896072 161.664438 115.745698 161.060835 114.546363 161.060835 
C 113.347028 161.060835 112.196653 161.664438 111.348595 162.738706 
C 110.500538 163.812974 110.024037 165.2702 110.024037 166.789445 
C 110.024037 168.308689 110.500538 169.765915 111.348595 170.840183 
C 112.196653 171.914451 113.347028 172.518054 114.546363 172.518054 
z
" style="fill:#008000;opacity:0.2;stroke:#008000;stroke-linejoin:miter;"/>
   </g>
   <g id="patch_89">
    <path clip-path="url(#pea3b078dbb)" d="M 181.024554 143.302146 
C 182.223889 143.302146 183.374264 142.698544 184.222322 141.624275 
C 185.07038 140.550007 185.54688 139.092782 185.54688 137.573537 
C 185.54688 136.054292 185.07038 134.597067 184.222322 133.522798 
C 183.374264 132.44853 182.223889 131.844927 181.024554 131.844927 
C 179.82522 131.844927 178.674845 132.44853 177.826787 133.522798 
C 176.978729 134.597067 176.502228 136.054292 176.502228 137.573537 
C 176.502228 139.092782 176.978729 140.550007 177.826787 141.624275 
C 178.674845 142.698544 179.82522 143.302146 181.024554 143.302146 
z
" style="fill:#008000;opacity:0.2;stroke:#008000;stroke-linejoin:miter;"/>
   </g>
   <g id="patch_90">
    <path clip-path="url(#pea3b078dbb)" d="M 294.534936 143.302146 
C 295.734271 143.302146 296.884646 142.698544 297.732703 141.624275 
C 298.580761 140.550007 299.057262 139.092782 299.057262 137.573537 
C 299.057262 136.054292 298.580761 134.597067 297.732703 133.522798 
C 296.884646 132.44853 295.734271 131.844927 294.534936 131.844927 
C 293.335601 131.844927 292.185227 132.44853 291.337169 133.522798 
C 290.489111 134.597067 290.01261 136.054292 290.01261 137.573537 
C 290.01261 139.092782 290.489111 140.550007 291.337169 141.624275 
C 292.185227 142.698544 293.335601 143.302146 294.534936 143.302146 
z
" style="fill:#008000;opacity:0.2;stroke:#008000;stroke-linejoin:miter;"/>
   </g>
   <g id="patch_91">
    <path clip-path="url(#pea3b078dbb)" d="M 373.223408 63.674476 
C 374.422743 63.674476 375.573117 63.070874 376.421175 61.996605 
C 377.269233 60.922337 377.745734 59.465112 377.745734 57.945867 
C 377.745734 56.426622 377.269233 54.969397 376.421175 53.895128 
C 375.573117 52.82086 374.422743 52.217257 373.223408 52.217257 
C 372.024073 52.217257 370.873698 52.82086 370.02564 53.895128 
C 369.177583 54.969397 368.701082 56.426622 368.701082 57.945867 
C 368.701082 59.465112 369.177583 60.922337 370.02564 61.996605 
C 370.873698 63.070874 372.024073 63.674476 373.223408 63.674476 
z
" style="fill:#008000;opacity:0.2;stroke:#008000;stroke-linejoin:miter;"/>
   </g>
   <g id="patch_92">
    <path clip-path="url(#pea3b078dbb)" d="M 413.472109 80.287443 
C 414.671444 80.287443 415.821818 79.683841 416.669876 78.609572 
C 417.517934 77.535304 417.994435 76.078079 417.994435 74.558834 
C 417.994435 73.039589 417.517934 71.582364 416.669876 70.508095 
C 415.821818 69.433827 414.671444 68.830225 413.472109 68.830225 
C 412.272774 68.830225 411.122399 69.433827 410.274341 70.508095 
C 409.426284 71.582364 408.949783 73.039589 408.949783 74.558834 
C 408.949783 76.078079 409.426284 77.535304 410.274341 78.609572 
C 411.122399 79.683841 412.272774 80.287443 413.472109 80.287443 
z
" style="fill:#008000;opacity:0.2;stroke:#008000;stroke-linejoin:miter;"/>
   </g>
   <g id="patch_93">
    <path clip-path="url(#pea3b078dbb)" d="M 367.796617 187.412438 
C 368.995951 187.412438 370.146326 186.808836 370.994384 185.734567 
C 371.842442 184.660299 372.318943 183.203074 372.318943 181.683829 
C 372.318943 180.164584 371.842442 178.707359 370.994384 177.63309 
C 370.146326 176.558822 368.995951 175.955219 367.796617 175.955219 
C 366.597282 175.955219 365.446907 176.558822 364.598849 177.63309 
C 363.750791 178.707359 363.274291 180.164584 363.274291 181.683829 
C 363.274291 183.203074 363.750791 184.660299 364.598849 185.734567 
C 365.446907 186.808836 366.597282 187.412438 367.796617 187.412438 
z
" style="fill:#008000;opacity:0.2;stroke:#008000;stroke-linejoin:miter;"/>
   </g>
   <g id="patch_94">
    <path d="M 308.101914 207.462571 
Q 248.859444 207.462571 189.616974 207.462571 
" style="fill:none;opacity:0.5;stroke:#008000;stroke-linecap:round;stroke-width:2;"/>
   </g>
   <g id="patch_95">
    <path d="M 308.075523 207.546147 
Q 307.801162 208.415008 307.5268 209.28387 
" style="fill:none;opacity:0.5;stroke:#800080;stroke-linecap:round;stroke-width:2;"/>
    <path d="M 309.957578 206.567439 
L 308.075523 207.546147 
L 307.096815 205.664092 
" style="fill:none;opacity:0.5;stroke:#800080;stroke-linecap:round;stroke-width:2;"/>
    <path d="M 305.644745 210.262578 
L 307.5268 209.28387 
L 308.505508 211.165925 
" style="fill:none;opacity:0.5;stroke:#800080;stroke-linecap:round;stroke-width:2;"/>
   </g>
   <g id="patch_96">
    <path d="M 189.616974 207.462571 
Q 150.272738 248.708558 110.928502 289.954546 
" style="fill:none;opacity:0.5;stroke:#008000;stroke-linecap:round;stroke-width:2;"/>
   </g>
   <g id="patch_97">
    <path d="M 194.121966 208.560004 
Q 190.588678 207.699282 187.055389 206.838559 
" style="fill:none;opacity:0.5;stroke:#800080;stroke-linecap:round;stroke-width:2;"/>
    <path d="M 193.019609 206.7476 
L 194.121966 208.560004 
L 192.309562 209.662361 
" style="fill:none;opacity:0.5;stroke:#800080;stroke-linecap:round;stroke-width:2;"/>
    <path d="M 188.157747 208.650963 
L 187.055389 206.838559 
L 188.867794 205.736202 
" style="fill:none;opacity:0.5;stroke:#800080;stroke-linecap:round;stroke-width:2;"/>
   </g>
   <g id="patch_98">
    <path d="M 110.928502 289.954546 
Q 91.256384 282.220923 71.584266 274.4873 
" style="fill:none;opacity:0.5;stroke:#008000;stroke-linecap:round;stroke-width:2;"/>
   </g>
   <g id="patch_99">
    <path d="M 114.255291 284.569765 
Q 111.454156 289.103716 108.653021 293.637666 
" style="fill:none;opacity:0.5;stroke:#800080;stroke-linecap:round;stroke-width:2;"/>
    <path d="M 112.190796 285.057475 
L 114.255291 284.569765 
L 114.743001 286.63426 
" style="fill:none;opacity:0.5;stroke:#800080;stroke-linecap:round;stroke-width:2;"/>
    <path d="M 110.717516 293.149957 
L 108.653021 293.637666 
L 108.165312 291.573171 
" style="fill:none;opacity:0.5;stroke:#800080;stroke-linecap:round;stroke-width:2;"/>
   </g>
   <g id="patch_100">
    <path d="M 71.584266 274.4873 
Q 93.065315 220.638372 114.546363 166.789445 
" style="fill:none;opacity:0.5;stroke:#008000;stroke-linecap:round;stroke-width:2;"/>
   </g>
   <g id="patch_101">
    <path d="M 83.900551 267.986665 
Q 72.470293 274.019648 61.040036 280.052631 
" style="fill:none;opacity:0.5;stroke:#800080;stroke-linecap:round;stroke-width:2;"/>
    <path d="M 81.873821 267.360274 
L 83.900551 267.986665 
L 83.27416 270.013395 
" style="fill:none;opacity:0.5;stroke:#800080;stroke-linecap:round;stroke-width:2;"/>
    <path d="M 63.066766 280.679022 
L 61.040036 280.052631 
L 61.666427 278.025901 
" style="fill:none;opacity:0.5;stroke:#800080;stroke-linecap:round;stroke-width:2;"/>
   </g>
   <g id="patch_102">
    <path d="M 114.546363 166.789445 
Q 147.785459 152.181491 181.024554 137.573537 
" style="fill:none;opacity:0.5;stroke:#008000;stroke-linecap:round;stroke-width:2;"/>
   </g>
   <g id="patch_103">
    <path d="M 124.739974 174.795288 
Q 115.331642 167.406186 105.92331 160.017084 
" style="fill:none;opacity:0.5;stroke:#800080;stroke-linecap:round;stroke-width:2;"/>
    <path d="M 124.486792 172.689131 
L 124.739974 174.795288 
L 122.633817 175.048471 
" style="fill:none;opacity:0.5;stroke:#800080;stroke-linecap:round;stroke-width:2;"/>
    <path d="M 106.176493 162.123241 
L 105.92331 160.017084 
L 108.029467 159.763901 
" style="fill:none;opacity:0.5;stroke:#800080;stroke-linecap:round;stroke-width:2;"/>
   </g>
   <g id="patch_104">
    <path d="M 181.024554 137.573537 
Q 237.779745 137.573537 294.534936 137.573537 
" style="fill:none;opacity:0.5;stroke:#008000;stroke-linecap:round;stroke-width:2;"/>
   </g>
   <g id="patch_105">
    <path d="M 177.7597 150.239182 
Q 180.775032 138.541533 183.790364 126.843885 
" style="fill:none;opacity:0.5;stroke:#800080;stroke-linecap:round;stroke-width:2;"/>
    <path d="M 179.586637 149.161083 
L 177.7597 150.239182 
L 176.6816 148.412244 
" style="fill:none;opacity:0.5;stroke:#800080;stroke-linecap:round;stroke-width:2;"/>
    <path d="M 181.963426 127.921984 
L 183.790364 126.843885 
L 184.868463 128.670822 
" style="fill:none;opacity:0.5;stroke:#800080;stroke-linecap:round;stroke-width:2;"/>
   </g>
   <g id="patch_106">
    <path d="M 294.534936 137.573537 
Q 333.879172 97.759702 373.223408 57.945867 
" style="fill:none;opacity:0.5;stroke:#008000;stroke-linecap:round;stroke-width:2;"/>
   </g>
   <g id="patch_107">
    <path d="M 290.032829 150.275667 
Q 294.200344 138.517548 298.367858 126.759428 
" style="fill:none;opacity:0.5;stroke:#800080;stroke-linecap:round;stroke-width:2;"/>
    <path d="M 291.94776 149.362957 
L 290.032829 150.275667 
L 289.120119 148.360736 
" style="fill:none;opacity:0.5;stroke:#800080;stroke-linecap:round;stroke-width:2;"/>
    <path d="M 296.452927 127.672138 
L 298.367858 126.759428 
L 299.280568 128.674359 
" style="fill:none;opacity:0.5;stroke:#800080;stroke-linecap:round;stroke-width:2;"/>
   </g>
   <g id="patch_108">
    <path d="M 373.223408 57.945867 
Q 393.347758 66.25235 413.472109 74.558834 
" style="fill:none;opacity:0.5;stroke:#008000;stroke-linecap:round;stroke-width:2;"/>
   </g>
   <g id="patch_109">
    <path d="M 370.287951 75.741351 
Q 373.060721 58.932115 375.833491 42.122879 
" style="fill:none;opacity:0.5;stroke:#800080;stroke-linecap:round;stroke-width:2;"/>
    <path d="M 372.012084 74.505485 
L 370.287951 75.741351 
L 369.052085 74.017218 
" style="fill:none;opacity:0.5;stroke:#800080;stroke-linecap:round;stroke-width:2;"/>
    <path d="M 374.109358 43.358745 
L 375.833491 42.122879 
L 377.069357 43.847012 
" style="fill:none;opacity:0.5;stroke:#800080;stroke-linecap:round;stroke-width:2;"/>
   </g>
   <g id="patch_110">
    <path d="M 413.472109 74.558834 
Q 390.634363 128.121331 367.796617 181.683829 
" style="fill:none;opacity:0.5;stroke:#008000;stroke-linecap:round;stroke-width:2;"/>
   </g>
   <g id="patch_111">
    <path d="M 400.738 92.033867 
Q 412.883356 75.36678 425.028712 58.699693 
" style="fill:none;opacity:0.5;stroke:#800080;stroke-linecap:round;stroke-width:2;"/>
    <path d="M 402.83367 91.704979 
L 400.738 92.033867 
L 400.409112 89.938197 
" style="fill:none;opacity:0.5;stroke:#800080;stroke-linecap:round;stroke-width:2;"/>
    <path d="M 422.933042 59.02858 
L 425.028712 58.699693 
L 425.3576 60.795363 
" style="fill:none;opacity:0.5;stroke:#800080;stroke-linecap:round;stroke-width:2;"/>
   </g>
   <g id="patch_112">
    <path d="M 367.796617 181.683829 
Q 337.949265 194.5732 308.101914 207.462571 
" style="fill:none;opacity:0.5;stroke:#008000;stroke-linecap:round;stroke-width:2;"/>
   </g>
   <g id="patch_113">
    <path d="M 359.526756 186.422863 
Q 366.92831 182.181411 374.329864 177.939959 
" style="fill:none;opacity:0.5;stroke:#800080;stroke-linecap:round;stroke-width:2;"/>
    <path d="M 361.574009 186.978521 
L 359.526756 186.422863 
L 360.082414 184.37561 
" style="fill:none;opacity:0.5;stroke:#800080;stroke-linecap:round;stroke-width:2;"/>
    <path d="M 372.282611 177.384301 
L 374.329864 177.939959 
L 373.774206 179.987212 
" style="fill:none;opacity:0.5;stroke:#800080;stroke-linecap:round;stroke-width:2;"/>
   </g>
   <g id="line2d_1">
    <path clip-path="url(#pea3b078dbb)" d="M 307.649681 208.894723 
L 195.495998 208.894723 
L 114.998595 283.366645 
L 85.151244 267.326539 
L 125.852178 175.668789 
L 177.406694 151.60863 
L 289.560377 151.60863 
L 370.05778 77.136708 
L 399.905131 93.176814 
L 358.299732 187.126008 
" style="fill:none;stroke:#ff0000;stroke-linecap:square;stroke-width:0.2;"/>
   </g>
   <g id="line2d_2">
    <path clip-path="url(#pea3b078dbb)" d="M 184.642415 123.538444 
L 299.509495 123.538444 
L 376.389036 38.755026 
L 427.039087 55.940854 
L 377.293501 176.24165 
L 308.554147 206.030419 
L 183.73795 206.030419 
L 106.858409 296.542446 
L 58.017288 281.648062 
L 103.240548 157.9101 
" style="fill:none;stroke:#0000ff;stroke-linecap:square;stroke-width:0.2;"/>
   </g>
  </g>
 </g>
 <defs>
  <clipPath id="pea3b078dbb">
   <rect height="307.51175" width="409.903625" x="37.576375" y="13.32"/>
  </clipPath>
 </defs>
</svg>
