<?xml version="1.0" encoding="utf-8" standalone="no"?>
<!DOCTYPE svg PUBLIC "-//W3C//DTD SVG 1.1//EN"
  "http://www.w3.org/Graphics/SVG/1.1/DTD/svg11.dtd">
<!-- Created with matplotlib (http://matplotlib.org/) -->
<svg height="345.6pt" version="1.1" viewBox="0 0 460.8 345.6" width="460.8pt" xmlns="http://www.w3.org/2000/svg" xmlns:xlink="http://www.w3.org/1999/xlink">
 <defs>
  <style type="text/css">
*{stroke-linecap:butt;stroke-linejoin:round;}
  </style>
 </defs>
 <g id="figure_1">
  <g id="patch_1">
   <path d="M 0 345.6 
L 460.8 345.6 
L 460.8 0 
L 0 0 
z
" style="fill:#ffffff;"/>
  </g>
  <g id="axes_1">
   <g id="patch_2">
    <path clip-path="url(#pfd26dc4f32)" d="M 416.614897 29.610919 
C 417.613131 29.610919 418.570615 29.541284 419.276473 29.417349 
C 419.982331 29.293415 420.378934 29.1253 420.378934 28.95003 
C 420.378934 28.77476 419.982331 28.606645 419.276473 28.482711 
C 418.570615 28.358776 417.613131 28.289141 416.614897 28.289141 
C 415.616663 28.289141 414.659179 28.358776 413.953321 28.482711 
C 413.247463 28.606645 412.85086 28.77476 412.85086 28.95003 
C 412.85086 29.1253 413.247463 29.293415 413.953321 29.417349 
C 414.659179 29.541284 415.616663 29.610919 416.614897 29.610919 
z
" style="fill:#ff0000;opacity:0.2;stroke:#ff0000;stroke-linejoin:miter;"/>
   </g>
   <g id="patch_3">
    <path clip-path="url(#pfd26dc4f32)" d="M 416.614897 305.862609 
C 417.613131 305.862609 418.570615 305.792974 419.276473 305.669039 
C 419.982331 305.545105 420.378934 305.37699 420.378934 305.20172 
C 420.378934 305.02645 419.982331 304.858335 419.276473 304.734401 
C 418.570615 304.610466 417.613131 304.540831 416.614897 304.540831 
C 415.616663 304.540831 414.659179 304.610466 413.953321 304.734401 
C 413.247463 304.858335 412.85086 305.02645 412.85086 305.20172 
C 412.85086 305.37699 413.247463 305.545105 413.953321 305.669039 
C 414.659179 305.792974 415.616663 305.862609 416.614897 305.862609 
z
" style="fill:#ff0000;opacity:0.2;stroke:#ff0000;stroke-linejoin:miter;"/>
   </g>
   <g id="patch_4">
    <path clip-path="url(#pfd26dc4f32)" d="M 286.755622 305.862609 
C 287.753856 305.862609 288.71134 305.792974 289.417198 305.669039 
C 290.123056 305.545105 290.519659 305.37699 290.519659 305.20172 
C 290.519659 305.02645 290.123056 304.858335 289.417198 304.734401 
C 288.71134 304.610466 287.753856 304.540831 286.755622 304.540831 
C 285.757388 304.540831 284.799904 304.610466 284.094046 304.734401 
C 283.388188 304.858335 282.991585 305.02645 282.991585 305.20172 
C 282.991585 305.37699 283.388188 305.545105 284.094046 305.669039 
C 284.799904 305.792974 285.757388 305.862609 286.755622 305.862609 
z
" style="fill:#ff0000;opacity:0.2;stroke:#ff0000;stroke-linejoin:miter;"/>
   </g>
   <g id="patch_5">
    <path clip-path="url(#pfd26dc4f32)" d="M 79.733589 304.871276 
C 80.731823 304.871276 81.689307 304.80164 82.395165 304.677706 
C 83.101023 304.553771 83.497626 304.385656 83.497626 304.210386 
C 83.497626 304.035116 83.101023 303.867002 82.395165 303.743067 
C 81.689307 303.619133 80.731823 303.549497 79.733589 303.549497 
C 78.735355 303.549497 77.777871 303.619133 77.072013 303.743067 
C 76.366155 303.867002 75.969552 304.035116 75.969552 304.210386 
C 75.969552 304.385656 76.366155 304.553771 77.072013 304.677706 
C 77.777871 304.80164 78.735355 304.871276 79.733589 304.871276 
z
" style="fill:#ff0000;opacity:0.2;stroke:#ff0000;stroke-linejoin:miter;"/>
   </g>
   <g id="patch_6">
    <path clip-path="url(#pfd26dc4f32)" d="M 77.85157 297.601494 
C 78.849805 297.601494 79.807288 297.531859 80.513147 297.407924 
C 81.219005 297.28399 81.615607 297.115875 81.615607 296.940605 
C 81.615607 296.765335 81.219005 296.59722 80.513147 296.473286 
C 79.807288 296.349351 78.849805 296.279716 77.85157 296.279716 
C 76.853336 296.279716 75.895853 296.349351 75.189994 296.473286 
C 74.484136 296.59722 74.087534 296.765335 74.087534 296.940605 
C 74.087534 297.115875 74.484136 297.28399 75.189994 297.407924 
C 75.895853 297.531859 76.853336 297.601494 77.85157 297.601494 
z
" style="fill:#ff0000;opacity:0.2;stroke:#ff0000;stroke-linejoin:miter;"/>
   </g>
   <g id="patch_7">
    <path clip-path="url(#pfd26dc4f32)" d="M 245.351215 294.297048 
C 246.349449 294.297048 247.306933 294.227413 248.012791 294.103478 
C 248.71865 293.979544 249.115252 293.811429 249.115252 293.636159 
C 249.115252 293.460889 248.71865 293.292774 248.012791 293.16884 
C 247.306933 293.044905 246.349449 292.97527 245.351215 292.97527 
C 244.352981 292.97527 243.395497 293.044905 242.689639 293.16884 
C 241.983781 293.292774 241.587178 293.460889 241.587178 293.636159 
C 241.587178 293.811429 241.983781 293.979544 242.689639 294.103478 
C 243.395497 294.227413 244.352981 294.297048 245.351215 294.297048 
z
" style="fill:#ff0000;opacity:0.2;stroke:#ff0000;stroke-linejoin:miter;"/>
   </g>
   <g id="patch_8">
    <path clip-path="url(#pfd26dc4f32)" d="M 292.401677 290.992602 
C 293.399911 290.992602 294.357395 290.922967 295.063253 290.799032 
C 295.769112 290.675098 296.165714 290.506983 296.165714 290.331713 
C 296.165714 290.156443 295.769112 289.988328 295.063253 289.864394 
C 294.357395 289.740459 293.399911 289.670824 292.401677 289.670824 
C 291.403443 289.670824 290.445959 289.740459 289.740101 289.864394 
C 289.034243 289.988328 288.63764 290.156443 288.63764 290.331713 
C 288.63764 290.506983 289.034243 290.675098 289.740101 290.799032 
C 290.445959 290.922967 291.403443 290.992602 292.401677 290.992602 
z
" style="fill:#ff0000;opacity:0.2;stroke:#ff0000;stroke-linejoin:miter;"/>
   </g>
   <g id="patch_9">
    <path clip-path="url(#pfd26dc4f32)" d="M 316.867917 239.443244 
C 317.866152 239.443244 318.823635 239.373608 319.529494 239.249674 
C 320.235352 239.125739 320.631954 238.957624 320.631954 238.782354 
C 320.631954 238.607085 320.235352 238.43897 319.529494 238.315035 
C 318.823635 238.191101 317.866152 238.121465 316.867917 238.121465 
C 315.869683 238.121465 314.9122 238.191101 314.206341 238.315035 
C 313.500483 238.43897 313.103881 238.607085 313.103881 238.782354 
C 313.103881 238.957624 313.500483 239.125739 314.206341 239.249674 
C 314.9122 239.373608 315.869683 239.443244 316.867917 239.443244 
z
" style="fill:#ff0000;opacity:0.2;stroke:#ff0000;stroke-linejoin:miter;"/>
   </g>
   <g id="patch_10">
    <path clip-path="url(#pfd26dc4f32)" d="M 316.867917 96.030285 
C 317.866152 96.030285 318.823635 95.960649 319.529494 95.836715 
C 320.235352 95.71278 320.631954 95.544665 320.631954 95.369396 
C 320.631954 95.194126 320.235352 95.026011 319.529494 94.902076 
C 318.823635 94.778142 317.866152 94.708506 316.867917 94.708506 
C 315.869683 94.708506 314.9122 94.778142 314.206341 94.902076 
C 313.500483 95.026011 313.103881 95.194126 313.103881 95.369396 
C 313.103881 95.544665 313.500483 95.71278 314.206341 95.836715 
C 314.9122 95.960649 315.869683 96.030285 316.867917 96.030285 
z
" style="fill:#ff0000;opacity:0.2;stroke:#ff0000;stroke-linejoin:miter;"/>
   </g>
   <g id="patch_11">
    <path clip-path="url(#pfd26dc4f32)" d="M 292.401677 44.480926 
C 293.399911 44.480926 294.357395 44.411291 295.063253 44.287356 
C 295.769112 44.163422 296.165714 43.995307 296.165714 43.820037 
C 296.165714 43.644767 295.769112 43.476652 295.063253 43.352718 
C 294.357395 43.228783 293.399911 43.159148 292.401677 43.159148 
C 291.403443 43.159148 290.445959 43.228783 289.740101 43.352718 
C 289.034243 43.476652 288.63764 43.644767 288.63764 43.820037 
C 288.63764 43.995307 289.034243 44.163422 289.740101 44.287356 
C 290.445959 44.411291 291.403443 44.480926 292.401677 44.480926 
z
" style="fill:#ff0000;opacity:0.2;stroke:#ff0000;stroke-linejoin:miter;"/>
   </g>
   <g id="patch_12">
    <path clip-path="url(#pfd26dc4f32)" d="M 245.351215 41.17648 
C 246.349449 41.17648 247.306933 41.106845 248.012791 40.98291 
C 248.71865 40.858976 249.115252 40.690861 249.115252 40.515591 
C 249.115252 40.340321 248.71865 40.172206 248.012791 40.048272 
C 247.306933 39.924337 246.349449 39.854702 245.351215 39.854702 
C 244.352981 39.854702 243.395497 39.924337 242.689639 40.048272 
C 241.983781 40.172206 241.587178 40.340321 241.587178 40.515591 
C 241.587178 40.690861 241.983781 40.858976 242.689639 40.98291 
C 243.395497 41.106845 244.352981 41.17648 245.351215 41.17648 
z
" style="fill:#ff0000;opacity:0.2;stroke:#ff0000;stroke-linejoin:miter;"/>
   </g>
   <g id="patch_13">
    <path clip-path="url(#pfd26dc4f32)" d="M 77.85157 37.872034 
C 78.849805 37.872034 79.807288 37.802399 80.513147 37.678464 
C 81.219005 37.55453 81.615607 37.386415 81.615607 37.211145 
C 81.615607 37.035875 81.219005 36.86776 80.513147 36.743826 
C 79.807288 36.619891 78.849805 36.550256 77.85157 36.550256 
C 76.853336 36.550256 75.895853 36.619891 75.189994 36.743826 
C 74.484136 36.86776 74.087534 37.035875 74.087534 37.211145 
C 74.087534 37.386415 74.484136 37.55453 75.189994 37.678464 
C 75.895853 37.802399 76.853336 37.872034 77.85157 37.872034 
z
" style="fill:#ff0000;opacity:0.2;stroke:#ff0000;stroke-linejoin:miter;"/>
   </g>
   <g id="patch_14">
    <path clip-path="url(#pfd26dc4f32)" d="M 79.733589 30.602253 
C 80.731823 30.602253 81.689307 30.532617 82.395165 30.408683 
C 83.101023 30.284748 83.497626 30.116634 83.497626 29.941364 
C 83.497626 29.766094 83.101023 29.597979 82.395165 29.474044 
C 81.689307 29.35011 80.731823 29.280474 79.733589 29.280474 
C 78.735355 29.280474 77.777871 29.35011 77.072013 29.474044 
C 76.366155 29.597979 75.969552 29.766094 75.969552 29.941364 
C 75.969552 30.116634 76.366155 30.284748 77.072013 30.408683 
C 77.777871 30.532617 78.735355 30.602253 79.733589 30.602253 
z
" style="fill:#ff0000;opacity:0.2;stroke:#ff0000;stroke-linejoin:miter;"/>
   </g>
   <g id="patch_15">
    <path clip-path="url(#pfd26dc4f32)" d="M 286.755622 29.610919 
C 287.753856 29.610919 288.71134 29.541284 289.417198 29.417349 
C 290.123056 29.293415 290.519659 29.1253 290.519659 28.95003 
C 290.519659 28.77476 290.123056 28.606645 289.417198 28.482711 
C 288.71134 28.358776 287.753856 28.289141 286.755622 28.289141 
C 285.757388 28.289141 284.799904 28.358776 284.094046 28.482711 
C 283.388188 28.606645 282.991585 28.77476 282.991585 28.95003 
C 282.991585 29.1253 283.388188 29.293415 284.094046 29.417349 
C 284.799904 29.541284 285.757388 29.610919 286.755622 29.610919 
z
" style="fill:#ff0000;opacity:0.2;stroke:#ff0000;stroke-linejoin:miter;"/>
   </g>
   <g id="patch_16">
    <path clip-path="url(#pfd26dc4f32)" d="M 425.08398 28.95003 
C 426.082214 28.95003 427.039698 28.880394 427.745556 28.75646 
C 428.451414 28.632525 428.848017 28.464411 428.848017 28.289141 
C 428.848017 28.113871 428.451414 27.945756 427.745556 27.821821 
C 427.039698 27.697887 426.082214 27.628251 425.08398 27.628251 
C 424.085746 27.628251 423.128262 27.697887 422.422404 27.821821 
C 421.716546 27.945756 421.319943 28.113871 421.319943 28.289141 
C 421.319943 28.464411 421.716546 28.632525 422.422404 28.75646 
C 423.128262 28.880394 424.085746 28.95003 425.08398 28.95003 
z
" style="fill:#0000ff;opacity:0.2;stroke:#0000ff;stroke-linejoin:miter;"/>
   </g>
   <g id="patch_17">
    <path clip-path="url(#pfd26dc4f32)" d="M 425.08398 306.523499 
C 426.082214 306.523499 427.039698 306.453863 427.745556 306.329929 
C 428.451414 306.205994 428.848017 306.037879 428.848017 305.862609 
C 428.848017 305.687339 428.451414 305.519225 427.745556 305.39529 
C 427.039698 305.271356 426.082214 305.20172 425.08398 305.20172 
C 424.085746 305.20172 423.128262 305.271356 422.422404 305.39529 
C 421.716546 305.519225 421.319943 305.687339 421.319943 305.862609 
C 421.319943 306.037879 421.716546 306.205994 422.422404 306.329929 
C 423.128262 306.453863 424.085746 306.523499 425.08398 306.523499 
z
" style="fill:#0000ff;opacity:0.2;stroke:#0000ff;stroke-linejoin:miter;"/>
   </g>
   <g id="patch_18">
    <path clip-path="url(#pfd26dc4f32)" d="M 278.286539 306.853943 
C 279.284773 306.853943 280.242256 306.784308 280.948115 306.660373 
C 281.653973 306.536439 282.050576 306.368324 282.050576 306.193054 
C 282.050576 306.017784 281.653973 305.849669 280.948115 305.725735 
C 280.242256 305.6018 279.284773 305.532165 278.286539 305.532165 
C 277.288304 305.532165 276.330821 305.6018 275.624963 305.725735 
C 274.919104 305.849669 274.522502 306.017784 274.522502 306.193054 
C 274.522502 306.368324 274.919104 306.536439 275.624963 306.660373 
C 276.330821 306.784308 277.288304 306.853943 278.286539 306.853943 
z
" style="fill:#0000ff;opacity:0.2;stroke:#0000ff;stroke-linejoin:miter;"/>
   </g>
   <g id="patch_19">
    <path clip-path="url(#pfd26dc4f32)" d="M 71.264506 305.532165 
C 72.26274 305.532165 73.220224 305.462529 73.926082 305.338595 
C 74.63194 305.21466 75.028543 305.046545 75.028543 304.871276 
C 75.028543 304.696006 74.63194 304.527891 73.926082 304.403956 
C 73.220224 304.280022 72.26274 304.210386 71.264506 304.210386 
C 70.266272 304.210386 69.308788 304.280022 68.60293 304.403956 
C 67.897072 304.527891 67.500469 304.696006 67.500469 304.871276 
C 67.500469 305.046545 67.897072 305.21466 68.60293 305.338595 
C 69.308788 305.462529 70.266272 305.532165 71.264506 305.532165 
z
" style="fill:#0000ff;opacity:0.2;stroke:#0000ff;stroke-linejoin:miter;"/>
   </g>
   <g id="patch_20">
    <path clip-path="url(#pfd26dc4f32)" d="M 69.382487 295.288382 
C 70.380722 295.288382 71.338205 295.218747 72.044063 295.094812 
C 72.749922 294.970878 73.146524 294.802763 73.146524 294.627493 
C 73.146524 294.452223 72.749922 294.284108 72.044063 294.160174 
C 71.338205 294.036239 70.380722 293.966604 69.382487 293.966604 
C 68.384253 293.966604 67.426769 294.036239 66.720911 294.160174 
C 66.015053 294.284108 65.61845 294.452223 65.61845 294.627493 
C 65.61845 294.802763 66.015053 294.970878 66.720911 295.094812 
C 67.426769 295.218747 68.384253 295.288382 69.382487 295.288382 
z
" style="fill:#0000ff;opacity:0.2;stroke:#0000ff;stroke-linejoin:miter;"/>
   </g>
   <g id="patch_21">
    <path clip-path="url(#pfd26dc4f32)" d="M 199.241762 291.653491 
C 200.239997 291.653491 201.19748 291.583856 201.903339 291.459921 
C 202.609197 291.335987 203.005799 291.167872 203.005799 290.992602 
C 203.005799 290.817332 202.609197 290.649217 201.903339 290.525283 
C 201.19748 290.401348 200.239997 290.331713 199.241762 290.331713 
C 198.243528 290.331713 197.286045 290.401348 196.580186 290.525283 
C 195.874328 290.649217 195.477725 290.817332 195.477725 290.992602 
C 195.477725 291.167872 195.874328 291.335987 196.580186 291.459921 
C 197.286045 291.583856 198.243528 291.653491 199.241762 291.653491 
z
" style="fill:#0000ff;opacity:0.2;stroke:#0000ff;stroke-linejoin:miter;"/>
   </g>
   <g id="patch_22">
    <path clip-path="url(#pfd26dc4f32)" d="M 270.758465 238.782354 
C 271.756699 238.782354 272.714183 238.712719 273.420041 238.588784 
C 274.125899 238.46485 274.522502 238.296735 274.522502 238.121465 
C 274.522502 237.946195 274.125899 237.77808 273.420041 237.654146 
C 272.714183 237.530211 271.756699 237.460576 270.758465 237.460576 
C 269.76023 237.460576 268.802747 237.530211 268.096889 237.654146 
C 267.39103 237.77808 266.994428 237.946195 266.994428 238.121465 
C 266.994428 238.296735 267.39103 238.46485 268.096889 238.588784 
C 268.802747 238.712719 269.76023 238.782354 270.758465 238.782354 
z
" style="fill:#0000ff;opacity:0.2;stroke:#0000ff;stroke-linejoin:miter;"/>
   </g>
   <g id="patch_23">
    <path clip-path="url(#pfd26dc4f32)" d="M 270.758465 96.691174 
C 271.756699 96.691174 272.714183 96.621539 273.420041 96.497604 
C 274.125899 96.37367 274.522502 96.205555 274.522502 96.030285 
C 274.522502 95.855015 274.125899 95.6869 273.420041 95.562966 
C 272.714183 95.439031 271.756699 95.369396 270.758465 95.369396 
C 269.76023 95.369396 268.802747 95.439031 268.096889 95.562966 
C 267.39103 95.6869 266.994428 95.855015 266.994428 96.030285 
C 266.994428 96.205555 267.39103 96.37367 268.096889 96.497604 
C 268.802747 96.621539 269.76023 96.691174 270.758465 96.691174 
z
" style="fill:#0000ff;opacity:0.2;stroke:#0000ff;stroke-linejoin:miter;"/>
   </g>
   <g id="patch_24">
    <path clip-path="url(#pfd26dc4f32)" d="M 199.241762 43.820037 
C 200.239997 43.820037 201.19748 43.750402 201.903339 43.626467 
C 202.609197 43.502533 203.005799 43.334418 203.005799 43.159148 
C 203.005799 42.983878 202.609197 42.815763 201.903339 42.691829 
C 201.19748 42.567894 200.239997 42.498259 199.241762 42.498259 
C 198.243528 42.498259 197.286045 42.567894 196.580186 42.691829 
C 195.874328 42.815763 195.477725 42.983878 195.477725 43.159148 
C 195.477725 43.334418 195.874328 43.502533 196.580186 43.626467 
C 197.286045 43.750402 198.243528 43.820037 199.241762 43.820037 
z
" style="fill:#0000ff;opacity:0.2;stroke:#0000ff;stroke-linejoin:miter;"/>
   </g>
   <g id="patch_25">
    <path clip-path="url(#pfd26dc4f32)" d="M 69.382487 40.185146 
C 70.380722 40.185146 71.338205 40.115511 72.044063 39.991576 
C 72.749922 39.867642 73.146524 39.699527 73.146524 39.524257 
C 73.146524 39.348987 72.749922 39.180872 72.044063 39.056938 
C 71.338205 38.933003 70.380722 38.863368 69.382487 38.863368 
C 68.384253 38.863368 67.426769 38.933003 66.720911 39.056938 
C 66.015053 39.180872 65.61845 39.348987 65.61845 39.524257 
C 65.61845 39.699527 66.015053 39.867642 66.720911 39.991576 
C 67.426769 40.115511 68.384253 40.185146 69.382487 40.185146 
z
" style="fill:#0000ff;opacity:0.2;stroke:#0000ff;stroke-linejoin:miter;"/>
   </g>
   <g id="patch_26">
    <path clip-path="url(#pfd26dc4f32)" d="M 71.264506 29.941364 
C 72.26274 29.941364 73.220224 29.871728 73.926082 29.747794 
C 74.63194 29.623859 75.028543 29.455744 75.028543 29.280474 
C 75.028543 29.105205 74.63194 28.93709 73.926082 28.813155 
C 73.220224 28.689221 72.26274 28.619585 71.264506 28.619585 
C 70.266272 28.619585 69.308788 28.689221 68.60293 28.813155 
C 67.897072 28.93709 67.500469 29.105205 67.500469 29.280474 
C 67.500469 29.455744 67.897072 29.623859 68.60293 29.747794 
C 69.308788 29.871728 70.266272 29.941364 71.264506 29.941364 
z
" style="fill:#0000ff;opacity:0.2;stroke:#0000ff;stroke-linejoin:miter;"/>
   </g>
   <g id="patch_27">
    <path clip-path="url(#pfd26dc4f32)" d="M 278.286539 28.619585 
C 279.284773 28.619585 280.242256 28.54995 280.948115 28.426015 
C 281.653973 28.302081 282.050576 28.133966 282.050576 27.958696 
C 282.050576 27.783426 281.653973 27.615311 280.948115 27.491377 
C 280.242256 27.367442 279.284773 27.297807 278.286539 27.297807 
C 277.288304 27.297807 276.330821 27.367442 275.624963 27.491377 
C 274.919104 27.615311 274.522502 27.783426 274.522502 27.958696 
C 274.522502 28.133966 274.919104 28.302081 275.624963 28.426015 
C 276.330821 28.54995 277.288304 28.619585 278.286539 28.619585 
z
" style="fill:#0000ff;opacity:0.2;stroke:#0000ff;stroke-linejoin:miter;"/>
   </g>
   <g id="patch_28">
    <path clip-path="url(#pfd26dc4f32)" d="M 416.614897 28.95003 
L 416.614897 305.20172 
L 286.755622 305.20172 
C 217.120938 305.20172 149.368273 304.540831 79.733589 304.210386 
C 66.55946 302.888608 66.55946 299.253717 77.85157 296.940605 
L 245.351215 293.636159 
C 269.817455 293.305714 281.109566 292.314381 292.401677 290.331713 
C 313.103881 286.696822 316.867917 263.235255 316.867917 238.782354 
L 316.867917 95.369396 
C 316.867917 70.916495 313.103881 47.454928 292.401677 43.820037 
C 281.109566 41.837369 269.817455 40.846036 245.351215 40.515591 
L 77.85157 37.211145 
C 66.55946 34.898033 66.55946 31.263142 79.733589 29.941364 
C 149.368273 29.610919 217.120938 28.95003 286.755622 28.95003 
L 416.614897 28.95003 
" style="fill:none;stroke:#ff0000;stroke-linejoin:miter;stroke-width:0.5;"/>
   </g>
   <g id="patch_29">
    <path clip-path="url(#pfd26dc4f32)" d="M 425.08398 28.289141 
L 425.08398 305.862609 
C 381.797555 306.193054 340.393148 306.193054 278.286539 306.193054 
C 174.775522 306.193054 99.494783 305.532165 71.264506 304.871276 
C 56.208358 303.549497 56.208358 295.949271 69.382487 294.627493 
L 199.241762 290.992602 
C 259.466354 289.340379 270.758465 284.38371 270.758465 238.121465 
L 270.758465 96.030285 
C 270.758465 49.76804 259.466354 44.811371 199.241762 43.159148 
L 69.382487 39.524257 
C 56.208358 38.202479 56.208358 30.602253 71.264506 29.280474 
C 99.494783 28.619585 174.775522 27.958696 278.286539 27.958696 
C 340.393148 27.958696 381.797555 27.958696 425.08398 28.289141 
" style="fill:none;stroke:#0000ff;stroke-linejoin:miter;stroke-width:0.5;"/>
   </g>
   <g id="patch_30">
    <path clip-path="url(#pfd26dc4f32)" d="M 286.755622 306.027832 
C 288.003415 306.027832 289.200269 305.940787 290.082592 305.785869 
C 290.964915 305.630951 291.460668 305.420807 291.460668 305.20172 
C 291.460668 304.982633 290.964915 304.772489 290.082592 304.617571 
C 289.200269 304.462653 288.003415 304.375609 286.755622 304.375609 
C 285.507829 304.375609 284.310974 304.462653 283.428652 304.617571 
C 282.546329 304.772489 282.050576 304.982633 282.050576 305.20172 
C 282.050576 305.420807 282.546329 305.630951 283.428652 305.785869 
C 284.310974 305.940787 285.507829 306.027832 286.755622 306.027832 
z
" style="fill:#0000ff;opacity:0.2;stroke:#0000ff;stroke-linejoin:miter;"/>
   </g>
   <g id="patch_31">
    <path clip-path="url(#pfd26dc4f32)" d="M 278.286539 307.019165 
C 279.534331 307.019165 280.731186 306.932121 281.613509 306.777203 
C 282.495831 306.622285 282.991585 306.412141 282.991585 306.193054 
C 282.991585 305.973967 282.495831 305.763823 281.613509 305.608905 
C 280.731186 305.453987 279.534331 305.366942 278.286539 305.366942 
C 277.038746 305.366942 275.841891 305.453987 274.959569 305.608905 
C 274.077246 305.763823 273.581492 305.973967 273.581492 306.193054 
C 273.581492 306.412141 274.077246 306.622285 274.959569 306.777203 
C 275.841891 306.932121 277.038746 307.019165 278.286539 307.019165 
z
" style="fill:#ff0000;opacity:0.2;stroke:#ff0000;stroke-linejoin:miter;"/>
   </g>
   <g id="patch_32">
    <path d="M 286.755622 305.20172 
Q 283.515619 305.580973 281.153505 305.857466 
" style="fill:none;opacity:0.5;stroke:#0000ff;stroke-linecap:round;stroke-width:1.25;"/>
    <path d="M 282.817723 307.172905 
L 281.153505 305.857466 
L 282.468944 304.193249 
" style="fill:none;opacity:0.5;stroke:#0000ff;stroke-linecap:round;stroke-width:1.25;"/>
   </g>
   <g id="patch_33">
    <path clip-path="url(#pfd26dc4f32)" d="M 79.733589 306.193054 
C 82.728292 306.193054 85.600742 305.984148 87.718317 305.612344 
C 89.835892 305.240541 91.0257 304.736196 91.0257 304.210386 
C 91.0257 303.684577 89.835892 303.180232 87.718317 302.808429 
C 85.600742 302.436625 82.728292 302.227719 79.733589 302.227719 
C 76.738886 302.227719 73.866435 302.436625 71.748861 302.808429 
C 69.631286 303.180232 68.441478 303.684577 68.441478 304.210386 
C 68.441478 304.736196 69.631286 305.240541 71.748861 305.612344 
C 73.866435 305.984148 76.738886 306.193054 79.733589 306.193054 
z
" style="fill:#0000ff;opacity:0.2;stroke:#0000ff;stroke-linejoin:miter;"/>
   </g>
   <g id="patch_34">
    <path clip-path="url(#pfd26dc4f32)" d="M 71.264506 306.853943 
C 74.259209 306.853943 77.131659 306.645037 79.249234 306.273233 
C 81.366809 305.90143 82.556617 305.397085 82.556617 304.871276 
C 82.556617 304.345466 81.366809 303.841121 79.249234 303.469318 
C 77.131659 303.097514 74.259209 302.888608 71.264506 302.888608 
C 68.269803 302.888608 65.397352 303.097514 63.279778 303.469318 
C 61.162203 303.841121 59.972395 304.345466 59.972395 304.871276 
C 59.972395 305.397085 61.162203 305.90143 63.279778 306.273233 
C 65.397352 306.645037 68.269803 306.853943 71.264506 306.853943 
z
" style="fill:#ff0000;opacity:0.2;stroke:#ff0000;stroke-linejoin:miter;"/>
   </g>
   <g id="patch_35">
    <path d="M 79.733589 304.210386 
Q 76.497721 304.462899 75.376744 304.550375 
" style="fill:none;opacity:0.5;stroke:#0000ff;stroke-linecap:round;stroke-width:3;"/>
    <path d="M 76.988896 305.92913 
L 75.376744 304.550375 
L 76.755499 302.938223 
" style="fill:none;opacity:0.5;stroke:#0000ff;stroke-linecap:round;stroke-width:3;"/>
   </g>
   <g id="patch_36">
    <path clip-path="url(#pfd26dc4f32)" d="M 77.85157 298.097161 
C 79.59848 298.097161 81.274077 297.975299 82.509329 297.758414 
C 83.74458 297.541528 84.438635 297.247327 84.438635 296.940605 
C 84.438635 296.633883 83.74458 296.339682 82.509329 296.122796 
C 81.274077 295.905911 79.59848 295.784049 77.85157 295.784049 
C 76.104661 295.784049 74.429064 295.905911 73.193812 296.122796 
C 71.95856 296.339682 71.264506 296.633883 71.264506 296.940605 
C 71.264506 297.247327 71.95856 297.541528 73.193812 297.758414 
C 74.429064 297.975299 76.104661 298.097161 77.85157 298.097161 
z
" style="fill:#0000ff;opacity:0.2;stroke:#0000ff;stroke-linejoin:miter;"/>
   </g>
   <g id="patch_37">
    <path clip-path="url(#pfd26dc4f32)" d="M 69.382487 295.784049 
C 71.129397 295.784049 72.804994 295.662187 74.040245 295.445301 
C 75.275497 295.228416 75.969552 294.934215 75.969552 294.627493 
C 75.969552 294.320771 75.275497 294.026569 74.040245 293.809684 
C 72.804994 293.592799 71.129397 293.470937 69.382487 293.470937 
C 67.635577 293.470937 65.959981 293.592799 64.724729 293.809684 
C 63.489477 294.026569 62.795423 294.320771 62.795423 294.627493 
C 62.795423 294.934215 63.489477 295.228416 64.724729 295.445301 
C 65.959981 295.662187 67.635577 295.784049 69.382487 295.784049 
z
" style="fill:#ff0000;opacity:0.2;stroke:#ff0000;stroke-linejoin:miter;"/>
   </g>
   <g id="patch_38">
    <path d="M 77.85157 296.940605 
Q 74.58262 296.047775 72.507384 295.480978 
" style="fill:none;opacity:0.5;stroke:#0000ff;stroke-linecap:round;stroke-width:1.75;"/>
    <path d="M 73.559173 297.323188 
L 72.507384 295.480978 
L 74.349594 294.429189 
" style="fill:none;opacity:0.5;stroke:#0000ff;stroke-linecap:round;stroke-width:1.75;"/>
   </g>
   <g id="patch_39">
    <path clip-path="url(#pfd26dc4f32)" d="M 245.351215 294.627493 
C 246.848567 294.627493 248.284792 294.52304 249.343579 294.337138 
C 250.402367 294.151236 250.997271 293.899064 250.997271 293.636159 
C 250.997271 293.373254 250.402367 293.121082 249.343579 292.93518 
C 248.284792 292.749278 246.848567 292.644825 245.351215 292.644825 
C 243.853864 292.644825 242.417638 292.749278 241.358851 292.93518 
C 240.300064 293.121082 239.70516 293.373254 239.70516 293.636159 
C 239.70516 293.899064 240.300064 294.151236 241.358851 294.337138 
C 242.417638 294.52304 243.853864 294.627493 245.351215 294.627493 
z
" style="fill:#0000ff;opacity:0.2;stroke:#0000ff;stroke-linejoin:miter;"/>
   </g>
   <g id="patch_40">
    <path clip-path="url(#pfd26dc4f32)" d="M 199.241762 291.983936 
C 200.739114 291.983936 202.175339 291.879483 203.234127 291.693581 
C 204.292914 291.507679 204.887818 291.255507 204.887818 290.992602 
C 204.887818 290.729697 204.292914 290.477525 203.234127 290.291623 
C 202.175339 290.105721 200.739114 290.001268 199.241762 290.001268 
C 197.744411 290.001268 196.308186 290.105721 195.249398 290.291623 
C 194.190611 290.477525 193.595707 290.729697 193.595707 290.992602 
C 193.595707 291.255507 194.190611 291.507679 195.249398 291.693581 
C 196.308186 291.879483 197.744411 291.983936 199.241762 291.983936 
z
" style="fill:#ff0000;opacity:0.2;stroke:#ff0000;stroke-linejoin:miter;"/>
   </g>
   <g id="patch_41">
    <path d="M 245.351215 293.636159 
Q 223.294157 292.371579 202.296021 291.167709 
" style="fill:none;opacity:0.5;stroke:#0000ff;stroke-linecap:round;stroke-width:1.5;"/>
    <path d="M 203.707704 292.751108 
L 202.296021 291.167709 
L 203.879419 289.756026 
" style="fill:none;opacity:0.5;stroke:#0000ff;stroke-linecap:round;stroke-width:1.5;"/>
   </g>
   <g id="patch_42">
    <path clip-path="url(#pfd26dc4f32)" d="M 292.401677 290.82738 
C 293.150353 290.82738 293.868466 290.775153 294.397859 290.682202 
C 294.927253 290.589251 295.224705 290.463165 295.224705 290.331713 
C 295.224705 290.20026 294.927253 290.074174 294.397859 289.981223 
C 293.868466 289.888273 293.150353 289.836046 292.401677 289.836046 
C 291.653002 289.836046 290.934889 289.888273 290.405495 289.981223 
C 289.876102 290.074174 289.57865 290.20026 289.57865 290.331713 
C 289.57865 290.463165 289.876102 290.589251 290.405495 290.682202 
C 290.934889 290.775153 291.653002 290.82738 292.401677 290.82738 
z
" style="fill:#0000ff;opacity:0.2;stroke:#0000ff;stroke-linejoin:miter;"/>
   </g>
   <g id="patch_43">
    <path clip-path="url(#pfd26dc4f32)" d="M 278.286539 306.688721 
C 279.035214 306.688721 279.753327 306.636494 280.282721 306.543543 
C 280.812114 306.450593 281.109566 306.324506 281.109566 306.193054 
C 281.109566 306.061602 280.812114 305.935515 280.282721 305.842565 
C 279.753327 305.749614 279.035214 305.697387 278.286539 305.697387 
C 277.537863 305.697387 276.81975 305.749614 276.290357 305.842565 
C 275.760963 305.935515 275.463511 306.061602 275.463511 306.193054 
C 275.463511 306.324506 275.760963 306.450593 276.290357 306.543543 
C 276.81975 306.636494 277.537863 306.688721 278.286539 306.688721 
z
" style="fill:#ff0000;opacity:0.2;stroke:#ff0000;stroke-linejoin:miter;"/>
   </g>
   <g id="patch_44">
    <path d="M 292.401677 290.331713 
Q 286.00834 297.515979 279.96756 304.304072 
" style="fill:none;opacity:0.5;stroke:#0000ff;stroke-linecap:round;stroke-width:0.75;"/>
    <path d="M 282.08529 304.180709 
L 279.96756 304.304072 
L 279.844197 302.186341 
" style="fill:none;opacity:0.5;stroke:#0000ff;stroke-linecap:round;stroke-width:0.75;"/>
   </g>
   <g id="patch_45">
    <path clip-path="url(#pfd26dc4f32)" d="M 316.867917 240.765022 
C 319.86262 240.765022 322.735071 240.556116 324.852646 240.184312 
C 326.97022 239.812509 328.160028 239.308164 328.160028 238.782354 
C 328.160028 238.256545 326.97022 237.7522 324.852646 237.380397 
C 322.735071 237.008593 319.86262 236.799687 316.867917 236.799687 
C 313.873215 236.799687 311.000764 237.008593 308.883189 237.380397 
C 306.765615 237.7522 305.575807 238.256545 305.575807 238.782354 
C 305.575807 239.308164 306.765615 239.812509 308.883189 240.184312 
C 311.000764 240.556116 313.873215 240.765022 316.867917 240.765022 
z
" style="fill:#0000ff;opacity:0.2;stroke:#0000ff;stroke-linejoin:miter;"/>
   </g>
   <g id="patch_46">
    <path clip-path="url(#pfd26dc4f32)" d="M 270.758465 240.104133 
C 273.753168 240.104133 276.625618 239.895226 278.743193 239.523423 
C 280.860768 239.151619 282.050576 238.647275 282.050576 238.121465 
C 282.050576 237.595656 280.860768 237.091311 278.743193 236.719507 
C 276.625618 236.347704 273.753168 236.138798 270.758465 236.138798 
C 267.763762 236.138798 264.891311 236.347704 262.773737 236.719507 
C 260.656162 237.091311 259.466354 237.595656 259.466354 238.121465 
C 259.466354 238.647275 260.656162 239.151619 262.773737 239.523423 
C 264.891311 239.895226 267.763762 240.104133 270.758465 240.104133 
z
" style="fill:#ff0000;opacity:0.2;stroke:#ff0000;stroke-linejoin:miter;"/>
   </g>
   <g id="patch_47">
    <path d="M 316.867917 238.782354 
Q 294.813674 238.46625 274.880533 238.180547 
" style="fill:none;opacity:0.5;stroke:#0000ff;stroke-linecap:round;stroke-width:3;"/>
    <path d="M 276.358881 239.70189 
L 274.880533 238.180547 
L 276.401876 236.702198 
" style="fill:none;opacity:0.5;stroke:#0000ff;stroke-linecap:round;stroke-width:3;"/>
   </g>
   <g id="patch_48">
    <path clip-path="url(#pfd26dc4f32)" d="M 316.867917 96.195507 
C 318.11571 96.195507 319.312565 96.108463 320.194888 95.953545 
C 321.07721 95.798626 321.572964 95.588483 321.572964 95.369396 
C 321.572964 95.150308 321.07721 94.940165 320.194888 94.785247 
C 319.312565 94.630328 318.11571 94.543284 316.867917 94.543284 
C 315.620125 94.543284 314.42327 94.630328 313.540947 94.785247 
C 312.658625 94.940165 312.162871 95.150308 312.162871 95.369396 
C 312.162871 95.588483 312.658625 95.798626 313.540947 95.953545 
C 314.42327 96.108463 315.620125 96.195507 316.867917 96.195507 
z
" style="fill:#0000ff;opacity:0.2;stroke:#0000ff;stroke-linejoin:miter;"/>
   </g>
   <g id="patch_49">
    <path clip-path="url(#pfd26dc4f32)" d="M 270.758465 96.856396 
C 272.006258 96.856396 273.203112 96.769352 274.085435 96.614434 
C 274.967758 96.459516 275.463511 96.249372 275.463511 96.030285 
C 275.463511 95.811197 274.967758 95.601054 274.085435 95.446136 
C 273.203112 95.291218 272.006258 95.204173 270.758465 95.204173 
C 269.510672 95.204173 268.313817 95.291218 267.431495 95.446136 
C 266.549172 95.601054 266.053419 95.811197 266.053419 96.030285 
C 266.053419 96.249372 266.549172 96.459516 267.431495 96.614434 
C 268.313817 96.769352 269.510672 96.856396 270.758465 96.856396 
z
" style="fill:#ff0000;opacity:0.2;stroke:#ff0000;stroke-linejoin:miter;"/>
   </g>
   <g id="patch_50">
    <path d="M 316.867917 95.369396 
Q 294.813674 95.6855 273.643223 95.988937 
" style="fill:none;opacity:0.5;stroke:#0000ff;stroke-linecap:round;stroke-width:1.25;"/>
    <path d="M 275.164566 97.467286 
L 273.643223 95.988937 
L 275.121572 94.467594 
" style="fill:none;opacity:0.5;stroke:#0000ff;stroke-linecap:round;stroke-width:1.25;"/>
   </g>
   <g id="patch_51">
    <path clip-path="url(#pfd26dc4f32)" d="M 292.401677 44.811371 
C 293.899029 44.811371 295.335254 44.706918 296.394041 44.521016 
C 297.452829 44.335114 298.047733 44.082942 298.047733 43.820037 
C 298.047733 43.557132 297.452829 43.30496 296.394041 43.119058 
C 295.335254 42.933156 293.899029 42.828703 292.401677 42.828703 
C 290.904326 42.828703 289.4681 42.933156 288.409313 43.119058 
C 287.350526 43.30496 286.755622 43.557132 286.755622 43.820037 
C 286.755622 44.082942 287.350526 44.335114 288.409313 44.521016 
C 289.4681 44.706918 290.904326 44.811371 292.401677 44.811371 
z
" style="fill:#0000ff;opacity:0.2;stroke:#0000ff;stroke-linejoin:miter;"/>
   </g>
   <g id="patch_52">
    <path clip-path="url(#pfd26dc4f32)" d="M 278.286539 28.95003 
C 279.78389 28.95003 281.220115 28.845577 282.278903 28.659675 
C 283.33769 28.473773 283.932594 28.221601 283.932594 27.958696 
C 283.932594 27.695791 283.33769 27.443619 282.278903 27.257717 
C 281.220115 27.071815 279.78389 26.967362 278.286539 26.967362 
C 276.789187 26.967362 275.352962 27.071815 274.294175 27.257717 
C 273.235387 27.443619 272.640483 27.695791 272.640483 27.958696 
C 272.640483 28.221601 273.235387 28.473773 274.294175 28.659675 
C 275.352962 28.845577 276.789187 28.95003 278.286539 28.95003 
z
" style="fill:#ff0000;opacity:0.2;stroke:#ff0000;stroke-linejoin:miter;"/>
   </g>
   <g id="patch_53">
    <path d="M 292.401677 43.820037 
Q 286.00834 36.635771 280.320117 30.243851 
" style="fill:none;opacity:0.5;stroke:#0000ff;stroke-linecap:round;stroke-width:1.5;"/>
    <path d="M 280.196754 32.361582 
L 280.320117 30.243851 
L 282.437848 30.367214 
" style="fill:none;opacity:0.5;stroke:#0000ff;stroke-linecap:round;stroke-width:1.5;"/>
   </g>
   <g id="patch_54">
    <path clip-path="url(#pfd26dc4f32)" d="M 245.351215 41.672147 
C 247.098125 41.672147 248.773721 41.550285 250.008973 41.3334 
C 251.244225 41.116514 251.93828 40.822313 251.93828 40.515591 
C 251.93828 40.208869 251.244225 39.914668 250.008973 39.697782 
C 248.773721 39.480897 247.098125 39.359035 245.351215 39.359035 
C 243.604305 39.359035 241.928709 39.480897 240.693457 39.697782 
C 239.458205 39.914668 238.764151 40.208869 238.764151 40.515591 
C 238.764151 40.822313 239.458205 41.116514 240.693457 41.3334 
C 241.928709 41.550285 243.604305 41.672147 245.351215 41.672147 
z
" style="fill:#0000ff;opacity:0.2;stroke:#0000ff;stroke-linejoin:miter;"/>
   </g>
   <g id="patch_55">
    <path clip-path="url(#pfd26dc4f32)" d="M 199.241762 44.315704 
C 200.988672 44.315704 202.664269 44.193842 203.899521 43.976957 
C 205.134772 43.760071 205.828827 43.46587 205.828827 43.159148 
C 205.828827 42.852426 205.134772 42.558225 203.899521 42.341339 
C 202.664269 42.124454 200.988672 42.002592 199.241762 42.002592 
C 197.494852 42.002592 195.819256 42.124454 194.584004 42.341339 
C 193.348752 42.558225 192.654698 42.852426 192.654698 43.159148 
C 192.654698 43.46587 193.348752 43.760071 194.584004 43.976957 
C 195.819256 44.193842 197.494852 44.315704 199.241762 44.315704 
z
" style="fill:#ff0000;opacity:0.2;stroke:#ff0000;stroke-linejoin:miter;"/>
   </g>
   <g id="patch_56">
    <path d="M 245.351215 40.515591 
Q 223.294157 41.780171 202.472508 42.973922 
" style="fill:none;opacity:0.5;stroke:#0000ff;stroke-linecap:round;stroke-width:1.75;"/>
    <path d="M 204.055906 44.385606 
L 202.472508 42.973922 
L 203.884191 41.390524 
" style="fill:none;opacity:0.5;stroke:#0000ff;stroke-linecap:round;stroke-width:1.75;"/>
   </g>
   <g id="patch_57">
    <path clip-path="url(#pfd26dc4f32)" d="M 77.85157 38.367701 
C 79.59848 38.367701 81.274077 38.245839 82.509329 38.028954 
C 83.74458 37.812068 84.438635 37.517867 84.438635 37.211145 
C 84.438635 36.904423 83.74458 36.610222 82.509329 36.393336 
C 81.274077 36.176451 79.59848 36.054589 77.85157 36.054589 
C 76.104661 36.054589 74.429064 36.176451 73.193812 36.393336 
C 71.95856 36.610222 71.264506 36.904423 71.264506 37.211145 
C 71.264506 37.517867 71.95856 37.812068 73.193812 38.028954 
C 74.429064 38.245839 76.104661 38.367701 77.85157 38.367701 
z
" style="fill:#0000ff;opacity:0.2;stroke:#0000ff;stroke-linejoin:miter;"/>
   </g>
   <g id="patch_58">
    <path clip-path="url(#pfd26dc4f32)" d="M 69.382487 40.680813 
C 71.129397 40.680813 72.804994 40.558951 74.040245 40.342066 
C 75.275497 40.125181 75.969552 39.830979 75.969552 39.524257 
C 75.969552 39.217535 75.275497 38.923334 74.040245 38.706449 
C 72.804994 38.489563 71.129397 38.367701 69.382487 38.367701 
C 67.635577 38.367701 65.959981 38.489563 64.724729 38.706449 
C 63.489477 38.923334 62.795423 39.217535 62.795423 39.524257 
C 62.795423 39.830979 63.489477 40.125181 64.724729 40.342066 
C 65.959981 40.558951 67.635577 40.680813 69.382487 40.680813 
z
" style="fill:#ff0000;opacity:0.2;stroke:#ff0000;stroke-linejoin:miter;"/>
   </g>
   <g id="patch_59">
    <path d="M 77.85157 37.211145 
Q 74.58262 38.103975 72.507384 38.670772 
" style="fill:none;opacity:0.5;stroke:#0000ff;stroke-linecap:round;stroke-width:1.75;"/>
    <path d="M 74.349594 39.722561 
L 72.507384 38.670772 
L 73.559173 36.828562 
" style="fill:none;opacity:0.5;stroke:#0000ff;stroke-linecap:round;stroke-width:1.75;"/>
   </g>
   <g id="patch_60">
    <path clip-path="url(#pfd26dc4f32)" d="M 79.733589 31.924031 
C 82.728292 31.924031 85.600742 31.715125 87.718317 31.343321 
C 89.835892 30.971518 91.0257 30.467173 91.0257 29.941364 
C 91.0257 29.415554 89.835892 28.911209 87.718317 28.539406 
C 85.600742 28.167602 82.728292 27.958696 79.733589 27.958696 
C 76.738886 27.958696 73.866435 28.167602 71.748861 28.539406 
C 69.631286 28.911209 68.441478 29.415554 68.441478 29.941364 
C 68.441478 30.467173 69.631286 30.971518 71.748861 31.343321 
C 73.866435 31.715125 76.738886 31.924031 79.733589 31.924031 
z
" style="fill:#0000ff;opacity:0.2;stroke:#0000ff;stroke-linejoin:miter;"/>
   </g>
   <g id="patch_61">
    <path clip-path="url(#pfd26dc4f32)" d="M 71.264506 31.263142 
C 74.259209 31.263142 77.131659 31.054236 79.249234 30.682432 
C 81.366809 30.310629 82.556617 29.806284 82.556617 29.280474 
C 82.556617 28.754665 81.366809 28.25032 79.249234 27.878517 
C 77.131659 27.506713 74.259209 27.297807 71.264506 27.297807 
C 68.269803 27.297807 65.397352 27.506713 63.279778 27.878517 
C 61.162203 28.25032 59.972395 28.754665 59.972395 29.280474 
C 59.972395 29.806284 61.162203 30.310629 63.279778 30.682432 
C 65.397352 31.054236 68.269803 31.263142 71.264506 31.263142 
z
" style="fill:#ff0000;opacity:0.2;stroke:#ff0000;stroke-linejoin:miter;"/>
   </g>
   <g id="patch_62">
    <path d="M 79.733589 29.941364 
Q 76.497721 29.688851 75.376744 29.601375 
" style="fill:none;opacity:0.5;stroke:#0000ff;stroke-linecap:round;stroke-width:3;"/>
    <path d="M 76.755499 31.213527 
L 75.376744 29.601375 
L 76.988896 28.22262 
" style="fill:none;opacity:0.5;stroke:#0000ff;stroke-linecap:round;stroke-width:3;"/>
   </g>
   <g id="patch_63">
    <path clip-path="url(#pfd26dc4f32)" d="M 286.755622 30.932697 
C 289.750325 30.932697 292.622775 30.723791 294.74035 30.351988 
C 296.857925 29.980184 298.047733 29.475839 298.047733 28.95003 
C 298.047733 28.42422 296.857925 27.919876 294.74035 27.548072 
C 292.622775 27.176269 289.750325 26.967362 286.755622 26.967362 
C 283.760919 26.967362 280.888468 27.176269 278.770894 27.548072 
C 276.653319 27.919876 275.463511 28.42422 275.463511 28.95003 
C 275.463511 29.475839 276.653319 29.980184 278.770894 30.351988 
C 280.888468 30.723791 283.760919 30.932697 286.755622 30.932697 
z
" style="fill:#0000ff;opacity:0.2;stroke:#0000ff;stroke-linejoin:miter;"/>
   </g>
   <g id="patch_64">
    <path clip-path="url(#pfd26dc4f32)" d="M 278.286539 29.941364 
C 281.281241 29.941364 284.153692 29.732457 286.271267 29.360654 
C 288.388841 28.98885 289.57865 28.484506 289.57865 27.958696 
C 289.57865 27.432886 288.388841 26.928542 286.271267 26.556738 
C 284.153692 26.184935 281.281241 25.976028 278.286539 25.976028 
C 275.291836 25.976028 272.419385 26.184935 270.30181 26.556738 
C 268.184236 26.928542 266.994428 27.432886 266.994428 27.958696 
C 266.994428 28.484506 268.184236 28.98885 270.30181 29.360654 
C 272.419385 29.732457 275.291836 29.941364 278.286539 29.941364 
z
" style="fill:#ff0000;opacity:0.2;stroke:#ff0000;stroke-linejoin:miter;"/>
   </g>
   <g id="patch_65">
    <path d="M 286.755622 28.95003 
Q 283.515619 28.570777 282.382551 28.438148 
" style="fill:none;opacity:0.5;stroke:#0000ff;stroke-linecap:round;stroke-width:3;"/>
    <path d="M 283.69799 30.102365 
L 282.382551 28.438148 
L 284.046768 27.122709 
" style="fill:none;opacity:0.5;stroke:#0000ff;stroke-linecap:round;stroke-width:3;"/>
   </g>
   <g id="patch_66">
    <path clip-path="url(#pfd26dc4f32)" d="M 278.286539 307.019165 
C 279.534331 307.019165 280.731186 306.932121 281.613509 306.777203 
C 282.495831 306.622285 282.991585 306.412141 282.991585 306.193054 
C 282.991585 305.973967 282.495831 305.763823 281.613509 305.608905 
C 280.731186 305.453987 279.534331 305.366942 278.286539 305.366942 
C 277.038746 305.366942 275.841891 305.453987 274.959569 305.608905 
C 274.077246 305.763823 273.581492 305.973967 273.581492 306.193054 
C 273.581492 306.412141 274.077246 306.622285 274.959569 306.777203 
C 275.841891 306.932121 277.038746 307.019165 278.286539 307.019165 
z
" style="fill:#0000ff;opacity:0.2;stroke:#0000ff;stroke-linejoin:miter;"/>
   </g>
   <g id="patch_67">
    <path clip-path="url(#pfd26dc4f32)" d="M 286.755622 306.027832 
C 288.003415 306.027832 289.200269 305.940787 290.082592 305.785869 
C 290.964915 305.630951 291.460668 305.420807 291.460668 305.20172 
C 291.460668 304.982633 290.964915 304.772489 290.082592 304.617571 
C 289.200269 304.462653 288.003415 304.375609 286.755622 304.375609 
C 285.507829 304.375609 284.310974 304.462653 283.428652 304.617571 
C 282.546329 304.772489 282.050576 304.982633 282.050576 305.20172 
C 282.050576 305.420807 282.546329 305.630951 283.428652 305.785869 
C 284.310974 305.940787 285.507829 306.027832 286.755622 306.027832 
z
" style="fill:#ff0000;opacity:0.2;stroke:#ff0000;stroke-linejoin:miter;"/>
   </g>
   <g id="patch_68">
    <path d="M 278.286539 306.193054 
Q 281.526542 305.813801 283.888655 305.537308 
" style="fill:none;opacity:0.5;stroke:#ff0000;stroke-linecap:round;stroke-width:1.25;"/>
    <path d="M 282.224438 304.221869 
L 283.888655 305.537308 
L 282.573216 307.201525 
" style="fill:none;opacity:0.5;stroke:#ff0000;stroke-linecap:round;stroke-width:1.25;"/>
   </g>
   <g id="patch_69">
    <path clip-path="url(#pfd26dc4f32)" d="M 71.264506 306.853943 
C 74.259209 306.853943 77.131659 306.645037 79.249234 306.273233 
C 81.366809 305.90143 82.556617 305.397085 82.556617 304.871276 
C 82.556617 304.345466 81.366809 303.841121 79.249234 303.469318 
C 77.131659 303.097514 74.259209 302.888608 71.264506 302.888608 
C 68.269803 302.888608 65.397352 303.097514 63.279778 303.469318 
C 61.162203 303.841121 59.972395 304.345466 59.972395 304.871276 
C 59.972395 305.397085 61.162203 305.90143 63.279778 306.273233 
C 65.397352 306.645037 68.269803 306.853943 71.264506 306.853943 
z
" style="fill:#0000ff;opacity:0.2;stroke:#0000ff;stroke-linejoin:miter;"/>
   </g>
   <g id="patch_70">
    <path clip-path="url(#pfd26dc4f32)" d="M 79.733589 306.193054 
C 82.728292 306.193054 85.600742 305.984148 87.718317 305.612344 
C 89.835892 305.240541 91.0257 304.736196 91.0257 304.210386 
C 91.0257 303.684577 89.835892 303.180232 87.718317 302.808429 
C 85.600742 302.436625 82.728292 302.227719 79.733589 302.227719 
C 76.738886 302.227719 73.866435 302.436625 71.748861 302.808429 
C 69.631286 303.180232 68.441478 303.684577 68.441478 304.210386 
C 68.441478 304.736196 69.631286 305.240541 71.748861 305.612344 
C 73.866435 305.984148 76.738886 306.193054 79.733589 306.193054 
z
" style="fill:#ff0000;opacity:0.2;stroke:#ff0000;stroke-linejoin:miter;"/>
   </g>
   <g id="patch_71">
    <path d="M 71.264506 304.871276 
Q 74.500374 304.618763 75.621351 304.531287 
" style="fill:none;opacity:0.5;stroke:#ff0000;stroke-linecap:round;stroke-width:3;"/>
    <path d="M 74.009199 303.152532 
L 75.621351 304.531287 
L 74.242596 306.143439 
" style="fill:none;opacity:0.5;stroke:#ff0000;stroke-linecap:round;stroke-width:3;"/>
   </g>
   <g id="patch_72">
    <path clip-path="url(#pfd26dc4f32)" d="M 69.382487 295.618827 
C 70.879839 295.618827 72.316064 295.514373 73.374851 295.328472 
C 74.433639 295.14257 75.028543 294.890398 75.028543 294.627493 
C 75.028543 294.364588 74.433639 294.112416 73.374851 293.926514 
C 72.316064 293.740612 70.879839 293.636159 69.382487 293.636159 
C 67.885136 293.636159 66.448911 293.740612 65.390123 293.926514 
C 64.331336 294.112416 63.736432 294.364588 63.736432 294.627493 
C 63.736432 294.890398 64.331336 295.14257 65.390123 295.328472 
C 66.448911 295.514373 67.885136 295.618827 69.382487 295.618827 
z
" style="fill:#0000ff;opacity:0.2;stroke:#0000ff;stroke-linejoin:miter;"/>
   </g>
   <g id="patch_73">
    <path clip-path="url(#pfd26dc4f32)" d="M 77.85157 297.931939 
C 79.348922 297.931939 80.785147 297.827486 81.843935 297.641584 
C 82.902722 297.455682 83.497626 297.20351 83.497626 296.940605 
C 83.497626 296.6777 82.902722 296.425528 81.843935 296.239626 
C 80.785147 296.053724 79.348922 295.949271 77.85157 295.949271 
C 76.354219 295.949271 74.917994 296.053724 73.859206 296.239626 
C 72.800419 296.425528 72.205515 296.6777 72.205515 296.940605 
C 72.205515 297.20351 72.800419 297.455682 73.859206 297.641584 
C 74.917994 297.827486 76.354219 297.931939 77.85157 297.931939 
z
" style="fill:#ff0000;opacity:0.2;stroke:#ff0000;stroke-linejoin:miter;"/>
   </g>
   <g id="patch_74">
    <path d="M 69.382487 294.627493 
Q 72.651438 295.520322 74.897205 296.133696 
" style="fill:none;opacity:0.5;stroke:#ff0000;stroke-linecap:round;stroke-width:1.5;"/>
    <path d="M 73.845416 294.291485 
L 74.897205 296.133696 
L 73.054994 297.185485 
" style="fill:none;opacity:0.5;stroke:#ff0000;stroke-linecap:round;stroke-width:1.5;"/>
   </g>
   <g id="patch_75">
    <path clip-path="url(#pfd26dc4f32)" d="M 199.241762 291.983936 
C 200.739114 291.983936 202.175339 291.879483 203.234127 291.693581 
C 204.292914 291.507679 204.887818 291.255507 204.887818 290.992602 
C 204.887818 290.729697 204.292914 290.477525 203.234127 290.291623 
C 202.175339 290.105721 200.739114 290.001268 199.241762 290.001268 
C 197.744411 290.001268 196.308186 290.105721 195.249398 290.291623 
C 194.190611 290.477525 193.595707 290.729697 193.595707 290.992602 
C 193.595707 291.255507 194.190611 291.507679 195.249398 291.693581 
C 196.308186 291.879483 197.744411 291.983936 199.241762 291.983936 
z
" style="fill:#0000ff;opacity:0.2;stroke:#0000ff;stroke-linejoin:miter;"/>
   </g>
   <g id="patch_76">
    <path clip-path="url(#pfd26dc4f32)" d="M 245.351215 294.627493 
C 246.848567 294.627493 248.284792 294.52304 249.343579 294.337138 
C 250.402367 294.151236 250.997271 293.899064 250.997271 293.636159 
C 250.997271 293.373254 250.402367 293.121082 249.343579 292.93518 
C 248.284792 292.749278 246.848567 292.644825 245.351215 292.644825 
C 243.853864 292.644825 242.417638 292.749278 241.358851 292.93518 
C 240.300064 293.121082 239.70516 293.373254 239.70516 293.636159 
C 239.70516 293.899064 240.300064 294.151236 241.358851 294.337138 
C 242.417638 294.52304 243.853864 294.627493 245.351215 294.627493 
z
" style="fill:#ff0000;opacity:0.2;stroke:#ff0000;stroke-linejoin:miter;"/>
   </g>
   <g id="patch_77">
    <path d="M 199.241762 290.992602 
Q 221.29882 292.257182 242.296957 293.461052 
" style="fill:none;opacity:0.5;stroke:#ff0000;stroke-linecap:round;stroke-width:1.5;"/>
    <path d="M 240.885273 291.877653 
L 242.296957 293.461052 
L 240.713559 294.872735 
" style="fill:none;opacity:0.5;stroke:#ff0000;stroke-linecap:round;stroke-width:1.5;"/>
   </g>
   <g id="patch_78">
    <path clip-path="url(#pfd26dc4f32)" d="M 270.758465 240.104133 
C 273.753168 240.104133 276.625618 239.895226 278.743193 239.523423 
C 280.860768 239.151619 282.050576 238.647275 282.050576 238.121465 
C 282.050576 237.595656 280.860768 237.091311 278.743193 236.719507 
C 276.625618 236.347704 273.753168 236.138798 270.758465 236.138798 
C 267.763762 236.138798 264.891311 236.347704 262.773737 236.719507 
C 260.656162 237.091311 259.466354 237.595656 259.466354 238.121465 
C 259.466354 238.647275 260.656162 239.151619 262.773737 239.523423 
C 264.891311 239.895226 267.763762 240.104133 270.758465 240.104133 
z
" style="fill:#0000ff;opacity:0.2;stroke:#0000ff;stroke-linejoin:miter;"/>
   </g>
   <g id="patch_79">
    <path clip-path="url(#pfd26dc4f32)" d="M 316.867917 240.765022 
C 319.86262 240.765022 322.735071 240.556116 324.852646 240.184312 
C 326.97022 239.812509 328.160028 239.308164 328.160028 238.782354 
C 328.160028 238.256545 326.97022 237.7522 324.852646 237.380397 
C 322.735071 237.008593 319.86262 236.799687 316.867917 236.799687 
C 313.873215 236.799687 311.000764 237.008593 308.883189 237.380397 
C 306.765615 237.7522 305.575807 238.256545 305.575807 238.782354 
C 305.575807 239.308164 306.765615 239.812509 308.883189 240.184312 
C 311.000764 240.556116 313.873215 240.765022 316.867917 240.765022 
z
" style="fill:#ff0000;opacity:0.2;stroke:#ff0000;stroke-linejoin:miter;"/>
   </g>
   <g id="patch_80">
    <path d="M 270.758465 238.121465 
Q 292.812708 238.43757 312.745849 238.723273 
" style="fill:none;opacity:0.5;stroke:#ff0000;stroke-linecap:round;stroke-width:3;"/>
    <path d="M 311.267501 237.201929 
L 312.745849 238.723273 
L 311.224506 240.201621 
" style="fill:none;opacity:0.5;stroke:#ff0000;stroke-linecap:round;stroke-width:3;"/>
   </g>
   <g id="patch_81">
    <path clip-path="url(#pfd26dc4f32)" d="M 270.758465 97.84773 
C 273.503609 97.84773 276.136689 97.656233 278.077799 97.315413 
C 280.018909 96.974593 281.109566 96.512277 281.109566 96.030285 
C 281.109566 95.548293 280.018909 95.085977 278.077799 94.745157 
C 276.136689 94.404337 273.503609 94.212839 270.758465 94.212839 
C 268.01332 94.212839 265.380241 94.404337 263.439131 94.745157 
C 261.49802 95.085977 260.407363 95.548293 260.407363 96.030285 
C 260.407363 96.512277 261.49802 96.974593 263.439131 97.315413 
C 265.380241 97.656233 268.01332 97.84773 270.758465 97.84773 
z
" style="fill:#0000ff;opacity:0.2;stroke:#0000ff;stroke-linejoin:miter;"/>
   </g>
   <g id="patch_82">
    <path clip-path="url(#pfd26dc4f32)" d="M 316.867917 97.186841 
C 319.613062 97.186841 322.246142 96.995343 324.187252 96.654523 
C 326.128362 96.313704 327.219019 95.851388 327.219019 95.369396 
C 327.219019 94.887403 326.128362 94.425088 324.187252 94.084268 
C 322.246142 93.743448 319.613062 93.55195 316.867917 93.55195 
C 314.122773 93.55195 311.489693 93.743448 309.548583 94.084268 
C 307.607473 94.425088 306.516816 94.887403 306.516816 95.369396 
C 306.516816 95.851388 307.607473 96.313704 309.548583 96.654523 
C 311.489693 96.995343 314.122773 97.186841 316.867917 97.186841 
z
" style="fill:#ff0000;opacity:0.2;stroke:#ff0000;stroke-linejoin:miter;"/>
   </g>
   <g id="patch_83">
    <path d="M 270.758465 96.030285 
Q 292.812708 95.71418 312.922608 95.425944 
" style="fill:none;opacity:0.5;stroke:#ff0000;stroke-linecap:round;stroke-width:2.75;"/>
    <path d="M 311.401265 93.947595 
L 312.922608 95.425944 
L 311.444259 96.947287 
" style="fill:none;opacity:0.5;stroke:#ff0000;stroke-linecap:round;stroke-width:2.75;"/>
   </g>
   <g id="patch_84">
    <path clip-path="url(#pfd26dc4f32)" d="M 199.241762 43.985259 
C 200.489555 43.985259 201.68641 43.898215 202.568733 43.743297 
C 203.451055 43.588379 203.946809 43.378235 203.946809 43.159148 
C 203.946809 42.940061 203.451055 42.729917 202.568733 42.574999 
C 201.68641 42.420081 200.489555 42.333036 199.241762 42.333036 
C 197.99397 42.333036 196.797115 42.420081 195.914792 42.574999 
C 195.03247 42.729917 194.536716 42.940061 194.536716 43.159148 
C 194.536716 43.378235 195.03247 43.588379 195.914792 43.743297 
C 196.797115 43.898215 197.99397 43.985259 199.241762 43.985259 
z
" style="fill:#0000ff;opacity:0.2;stroke:#0000ff;stroke-linejoin:miter;"/>
   </g>
   <g id="patch_85">
    <path clip-path="url(#pfd26dc4f32)" d="M 245.351215 41.341703 
C 246.599008 41.341703 247.795863 41.254658 248.678185 41.09974 
C 249.560508 40.944822 250.056261 40.734678 250.056261 40.515591 
C 250.056261 40.296504 249.560508 40.08636 248.678185 39.931442 
C 247.795863 39.776524 246.599008 39.68948 245.351215 39.68948 
C 244.103422 39.68948 242.906568 39.776524 242.024245 39.931442 
C 241.141922 40.08636 240.646169 40.296504 240.646169 40.515591 
C 240.646169 40.734678 241.141922 40.944822 242.024245 41.09974 
C 242.906568 41.254658 244.103422 41.341703 245.351215 41.341703 
z
" style="fill:#ff0000;opacity:0.2;stroke:#ff0000;stroke-linejoin:miter;"/>
   </g>
   <g id="patch_86">
    <path d="M 199.241762 43.159148 
Q 221.29882 41.894568 242.473444 40.68058 
" style="fill:none;opacity:0.5;stroke:#ff0000;stroke-linecap:round;stroke-width:1.25;"/>
    <path d="M 240.890046 39.268897 
L 242.473444 40.68058 
L 241.06176 42.263978 
" style="fill:none;opacity:0.5;stroke:#ff0000;stroke-linecap:round;stroke-width:1.25;"/>
   </g>
   <g id="patch_87">
    <path clip-path="url(#pfd26dc4f32)" d="M 69.382487 40.515591 
C 70.879839 40.515591 72.316064 40.411138 73.374851 40.225236 
C 74.433639 40.039334 75.028543 39.787162 75.028543 39.524257 
C 75.028543 39.261352 74.433639 39.00918 73.374851 38.823278 
C 72.316064 38.637377 70.879839 38.532923 69.382487 38.532923 
C 67.885136 38.532923 66.448911 38.637377 65.390123 38.823278 
C 64.331336 39.00918 63.736432 39.261352 63.736432 39.524257 
C 63.736432 39.787162 64.331336 40.039334 65.390123 40.225236 
C 66.448911 40.411138 67.885136 40.515591 69.382487 40.515591 
z
" style="fill:#0000ff;opacity:0.2;stroke:#0000ff;stroke-linejoin:miter;"/>
   </g>
   <g id="patch_88">
    <path clip-path="url(#pfd26dc4f32)" d="M 77.85157 38.202479 
C 79.348922 38.202479 80.785147 38.098026 81.843935 37.912124 
C 82.902722 37.726222 83.497626 37.47405 83.497626 37.211145 
C 83.497626 36.94824 82.902722 36.696068 81.843935 36.510166 
C 80.785147 36.324264 79.348922 36.219811 77.85157 36.219811 
C 76.354219 36.219811 74.917994 36.324264 73.859206 36.510166 
C 72.800419 36.696068 72.205515 36.94824 72.205515 37.211145 
C 72.205515 37.47405 72.800419 37.726222 73.859206 37.912124 
C 74.917994 38.098026 76.354219 38.202479 77.85157 38.202479 
z
" style="fill:#ff0000;opacity:0.2;stroke:#ff0000;stroke-linejoin:miter;"/>
   </g>
   <g id="patch_89">
    <path d="M 69.382487 39.524257 
Q 72.651438 38.631428 74.897205 38.018054 
" style="fill:none;opacity:0.5;stroke:#ff0000;stroke-linecap:round;stroke-width:1.5;"/>
    <path d="M 73.054994 36.966265 
L 74.897205 38.018054 
L 73.845416 39.860265 
" style="fill:none;opacity:0.5;stroke:#ff0000;stroke-linecap:round;stroke-width:1.5;"/>
   </g>
   <g id="patch_90">
    <path clip-path="url(#pfd26dc4f32)" d="M 71.264506 31.263142 
C 74.259209 31.263142 77.131659 31.054236 79.249234 30.682432 
C 81.366809 30.310629 82.556617 29.806284 82.556617 29.280474 
C 82.556617 28.754665 81.366809 28.25032 79.249234 27.878517 
C 77.131659 27.506713 74.259209 27.297807 71.264506 27.297807 
C 68.269803 27.297807 65.397352 27.506713 63.279778 27.878517 
C 61.162203 28.25032 59.972395 28.754665 59.972395 29.280474 
C 59.972395 29.806284 61.162203 30.310629 63.279778 30.682432 
C 65.397352 31.054236 68.269803 31.263142 71.264506 31.263142 
z
" style="fill:#0000ff;opacity:0.2;stroke:#0000ff;stroke-linejoin:miter;"/>
   </g>
   <g id="patch_91">
    <path clip-path="url(#pfd26dc4f32)" d="M 79.733589 31.924031 
C 82.728292 31.924031 85.600742 31.715125 87.718317 31.343321 
C 89.835892 30.971518 91.0257 30.467173 91.0257 29.941364 
C 91.0257 29.415554 89.835892 28.911209 87.718317 28.539406 
C 85.600742 28.167602 82.728292 27.958696 79.733589 27.958696 
C 76.738886 27.958696 73.866435 28.167602 71.748861 28.539406 
C 69.631286 28.911209 68.441478 29.415554 68.441478 29.941364 
C 68.441478 30.467173 69.631286 30.971518 71.748861 31.343321 
C 73.866435 31.715125 76.738886 31.924031 79.733589 31.924031 
z
" style="fill:#ff0000;opacity:0.2;stroke:#ff0000;stroke-linejoin:miter;"/>
   </g>
   <g id="patch_92">
    <path d="M 71.264506 29.280474 
Q 74.500374 29.532987 75.621351 29.620463 
" style="fill:none;opacity:0.5;stroke:#ff0000;stroke-linecap:round;stroke-width:3;"/>
    <path d="M 74.242596 28.008311 
L 75.621351 29.620463 
L 74.009199 30.999218 
" style="fill:none;opacity:0.5;stroke:#ff0000;stroke-linecap:round;stroke-width:3;"/>
   </g>
   <g id="patch_93">
    <path clip-path="url(#pfd26dc4f32)" d="M 278.286539 29.941364 
C 281.281241 29.941364 284.153692 29.732457 286.271267 29.360654 
C 288.388841 28.98885 289.57865 28.484506 289.57865 27.958696 
C 289.57865 27.432886 288.388841 26.928542 286.271267 26.556738 
C 284.153692 26.184935 281.281241 25.976028 278.286539 25.976028 
C 275.291836 25.976028 272.419385 26.184935 270.30181 26.556738 
C 268.184236 26.928542 266.994428 27.432886 266.994428 27.958696 
C 266.994428 28.484506 268.184236 28.98885 270.30181 29.360654 
C 272.419385 29.732457 275.291836 29.941364 278.286539 29.941364 
z
" style="fill:#0000ff;opacity:0.2;stroke:#0000ff;stroke-linejoin:miter;"/>
   </g>
   <g id="patch_94">
    <path clip-path="url(#pfd26dc4f32)" d="M 286.755622 30.932697 
C 289.750325 30.932697 292.622775 30.723791 294.74035 30.351988 
C 296.857925 29.980184 298.047733 29.475839 298.047733 28.95003 
C 298.047733 28.42422 296.857925 27.919876 294.74035 27.548072 
C 292.622775 27.176269 289.750325 26.967362 286.755622 26.967362 
C 283.760919 26.967362 280.888468 27.176269 278.770894 27.548072 
C 276.653319 27.919876 275.463511 28.42422 275.463511 28.95003 
C 275.463511 29.475839 276.653319 29.980184 278.770894 30.351988 
C 280.888468 30.723791 283.760919 30.932697 286.755622 30.932697 
z
" style="fill:#ff0000;opacity:0.2;stroke:#ff0000;stroke-linejoin:miter;"/>
   </g>
   <g id="patch_95">
    <path d="M 278.286539 27.958696 
Q 281.526542 28.337949 282.65961 28.470578 
" style="fill:none;opacity:0.5;stroke:#ff0000;stroke-linecap:round;stroke-width:3;"/>
    <path d="M 281.344171 26.806361 
L 282.65961 28.470578 
L 280.995392 29.786017 
" style="fill:none;opacity:0.5;stroke:#ff0000;stroke-linecap:round;stroke-width:3;"/>
   </g>
   <g id="patch_96">
    <path clip-path="url(#pfd26dc4f32)" d="M 282.52108 307.34961 
C 285.016666 307.34961 287.410375 307.175521 289.17502 306.865685 
C 290.939666 306.555849 291.931173 306.135562 291.931173 305.697387 
C 291.931173 305.259212 290.939666 304.838925 289.17502 304.529089 
C 287.410375 304.219253 285.016666 304.045164 282.52108 304.045164 
C 280.025495 304.045164 277.631786 304.219253 275.86714 304.529089 
C 274.102495 304.838925 273.110988 305.259212 273.110988 305.697387 
C 273.110988 306.135562 274.102495 306.555849 275.86714 306.865685 
C 277.631786 307.175521 280.025495 307.34961 282.52108 307.34961 
z
" style="fill:#008000;opacity:0.2;stroke:#008000;stroke-linejoin:miter;"/>
   </g>
   <g id="patch_97">
    <path clip-path="url(#pfd26dc4f32)" d="M 75.499047 306.193054 
C 77.994633 306.193054 80.388342 306.018965 82.152988 305.709129 
C 83.917633 305.399293 84.90914 304.979006 84.90914 304.540831 
C 84.90914 304.102656 83.917633 303.682369 82.152988 303.372533 
C 80.388342 303.062697 77.994633 302.888608 75.499047 302.888608 
C 73.003462 302.888608 70.609753 303.062697 68.845107 303.372533 
C 67.080462 303.682369 66.088955 304.102656 66.088955 304.540831 
C 66.088955 304.979006 67.080462 305.399293 68.845107 305.709129 
C 70.609753 306.018965 73.003462 306.193054 75.499047 306.193054 
z
" style="fill:#008000;opacity:0.2;stroke:#008000;stroke-linejoin:miter;"/>
   </g>
   <g id="patch_98">
    <path clip-path="url(#pfd26dc4f32)" d="M 73.617029 297.436272 
C 76.112615 297.436272 78.506323 297.262183 80.270969 296.952347 
C 82.035615 296.642511 83.027121 296.222224 83.027121 295.784049 
C 83.027121 295.345874 82.035615 294.925587 80.270969 294.615751 
C 78.506323 294.305915 76.112615 294.131826 73.617029 294.131826 
C 71.121443 294.131826 68.727734 294.305915 66.963089 294.615751 
C 65.198443 294.925587 64.206936 295.345874 64.206936 295.784049 
C 64.206936 296.222224 65.198443 296.642511 66.963089 296.952347 
C 68.727734 297.262183 71.121443 297.436272 73.617029 297.436272 
z
" style="fill:#008000;opacity:0.2;stroke:#008000;stroke-linejoin:miter;"/>
   </g>
   <g id="patch_99">
    <path clip-path="url(#pfd26dc4f32)" d="M 222.296489 293.966604 
C 224.792075 293.966604 227.185783 293.792515 228.950429 293.482679 
C 230.715075 293.172842 231.706581 292.752555 231.706581 292.314381 
C 231.706581 291.876206 230.715075 291.455919 228.950429 291.146082 
C 227.185783 290.836246 224.792075 290.662158 222.296489 290.662158 
C 219.800903 290.662158 217.407194 290.836246 215.642549 291.146082 
C 213.877903 291.455919 212.886396 291.876206 212.886396 292.314381 
C 212.886396 292.752555 213.877903 293.172842 215.642549 293.482679 
C 217.407194 293.792515 219.800903 293.966604 222.296489 293.966604 
z
" style="fill:#008000;opacity:0.2;stroke:#008000;stroke-linejoin:miter;"/>
   </g>
   <g id="patch_100">
    <path clip-path="url(#pfd26dc4f32)" d="M 293.813191 240.104133 
C 296.308777 240.104133 298.702486 239.930044 300.467131 239.620208 
C 302.231777 239.310372 303.223283 238.890084 303.223283 238.45191 
C 303.223283 238.013735 302.231777 237.593448 300.467131 237.283612 
C 298.702486 236.973775 296.308777 236.799687 293.813191 236.799687 
C 291.317605 236.799687 288.923896 236.973775 287.159251 237.283612 
C 285.394605 237.593448 284.403099 238.013735 284.403099 238.45191 
C 284.403099 238.890084 285.394605 239.310372 287.159251 239.620208 
C 288.923896 239.930044 291.317605 240.104133 293.813191 240.104133 
z
" style="fill:#008000;opacity:0.2;stroke:#008000;stroke-linejoin:miter;"/>
   </g>
   <g id="patch_101">
    <path clip-path="url(#pfd26dc4f32)" d="M 293.813191 97.352063 
C 296.308777 97.352063 298.702486 97.177975 300.467131 96.868138 
C 302.231777 96.558302 303.223283 96.138015 303.223283 95.69984 
C 303.223283 95.261666 302.231777 94.841378 300.467131 94.531542 
C 298.702486 94.221706 296.308777 94.047617 293.813191 94.047617 
C 291.317605 94.047617 288.923896 94.221706 287.159251 94.531542 
C 285.394605 94.841378 284.403099 95.261666 284.403099 95.69984 
C 284.403099 96.138015 285.394605 96.558302 287.159251 96.868138 
C 288.923896 97.177975 291.317605 97.352063 293.813191 97.352063 
z
" style="fill:#008000;opacity:0.2;stroke:#008000;stroke-linejoin:miter;"/>
   </g>
   <g id="patch_102">
    <path clip-path="url(#pfd26dc4f32)" d="M 222.296489 43.489592 
C 224.792075 43.489592 227.185783 43.315504 228.950429 43.005668 
C 230.715075 42.695831 231.706581 42.275544 231.706581 41.837369 
C 231.706581 41.399195 230.715075 40.978908 228.950429 40.669071 
C 227.185783 40.359235 224.792075 40.185146 222.296489 40.185146 
C 219.800903 40.185146 217.407194 40.359235 215.642549 40.669071 
C 213.877903 40.978908 212.886396 41.399195 212.886396 41.837369 
C 212.886396 42.275544 213.877903 42.695831 215.642549 43.005668 
C 217.407194 43.315504 219.800903 43.489592 222.296489 43.489592 
z
" style="fill:#008000;opacity:0.2;stroke:#008000;stroke-linejoin:miter;"/>
   </g>
   <g id="patch_103">
    <path clip-path="url(#pfd26dc4f32)" d="M 73.617029 40.019924 
C 76.112615 40.019924 78.506323 39.845835 80.270969 39.535999 
C 82.035615 39.226163 83.027121 38.805876 83.027121 38.367701 
C 83.027121 37.929526 82.035615 37.509239 80.270969 37.199403 
C 78.506323 36.889567 76.112615 36.715478 73.617029 36.715478 
C 71.121443 36.715478 68.727734 36.889567 66.963089 37.199403 
C 65.198443 37.509239 64.206936 37.929526 64.206936 38.367701 
C 64.206936 38.805876 65.198443 39.226163 66.963089 39.535999 
C 68.727734 39.845835 71.121443 40.019924 73.617029 40.019924 
z
" style="fill:#008000;opacity:0.2;stroke:#008000;stroke-linejoin:miter;"/>
   </g>
   <g id="patch_104">
    <path clip-path="url(#pfd26dc4f32)" d="M 75.499047 31.263142 
C 77.994633 31.263142 80.388342 31.089053 82.152988 30.779217 
C 83.917633 30.469381 84.90914 30.049094 84.90914 29.610919 
C 84.90914 29.172744 83.917633 28.752457 82.152988 28.442621 
C 80.388342 28.132785 77.994633 27.958696 75.499047 27.958696 
C 73.003462 27.958696 70.609753 28.132785 68.845107 28.442621 
C 67.080462 28.752457 66.088955 29.172744 66.088955 29.610919 
C 66.088955 30.049094 67.080462 30.469381 68.845107 30.779217 
C 70.609753 31.089053 73.003462 31.263142 75.499047 31.263142 
z
" style="fill:#008000;opacity:0.2;stroke:#008000;stroke-linejoin:miter;"/>
   </g>
   <g id="patch_105">
    <path clip-path="url(#pfd26dc4f32)" d="M 282.52108 30.106586 
C 285.016666 30.106586 287.410375 29.932497 289.17502 29.622661 
C 290.939666 29.312825 291.931173 28.892538 291.931173 28.454363 
C 291.931173 28.016188 290.939666 27.595901 289.17502 27.286065 
C 287.410375 26.976229 285.016666 26.80214 282.52108 26.80214 
C 280.025495 26.80214 277.631786 26.976229 275.86714 27.286065 
C 274.102495 27.595901 273.110988 28.016188 273.110988 28.454363 
C 273.110988 28.892538 274.102495 29.312825 275.86714 29.622661 
C 277.631786 29.932497 280.025495 30.106586 282.52108 30.106586 
z
" style="fill:#008000;opacity:0.2;stroke:#008000;stroke-linejoin:miter;"/>
   </g>
   <g id="patch_106">
    <path d="M 282.52108 305.697387 
Q 179.010064 305.119109 75.499047 304.540831 
" style="fill:none;opacity:0.5;stroke:#008000;stroke-linecap:round;stroke-width:2;"/>
   </g>
   <g id="patch_107">
    <path d="M 285.350998 305.366136 
Q 283.515619 305.580973 281.680239 305.79581 
" style="fill:none;opacity:0.5;stroke:#800080;stroke-linecap:round;stroke-width:2;"/>
    <path d="M 283.686781 304.050697 
L 285.350998 305.366136 
L 284.035559 307.030354 
" style="fill:none;opacity:0.5;stroke:#800080;stroke-linecap:round;stroke-width:2;"/>
    <path d="M 283.344456 307.111249 
L 281.680239 305.79581 
L 282.995678 304.131593 
" style="fill:none;opacity:0.5;stroke:#800080;stroke-linecap:round;stroke-width:2;"/>
   </g>
   <g id="patch_108">
    <path d="M 75.499047 304.540831 
Q 74.558038 300.16244 73.617029 295.784049 
" style="fill:none;opacity:0.5;stroke:#008000;stroke-linecap:round;stroke-width:2;"/>
   </g>
   <g id="patch_109">
    <path d="M 78.323662 304.320411 
Q 76.497721 304.462899 74.67178 304.605387 
" style="fill:none;opacity:0.5;stroke:#800080;stroke-linecap:round;stroke-width:2;"/>
    <path d="M 76.71151 302.941656 
L 78.323662 304.320411 
L 76.944907 305.932563 
" style="fill:none;opacity:0.5;stroke:#800080;stroke-linecap:round;stroke-width:2;"/>
    <path d="M 76.283932 305.984142 
L 74.67178 304.605387 
L 76.050535 302.993235 
" style="fill:none;opacity:0.5;stroke:#800080;stroke-linecap:round;stroke-width:2;"/>
   </g>
   <g id="patch_110">
    <path d="M 73.617029 295.784049 
Q 147.956759 294.049215 222.296489 292.314381 
" style="fill:none;opacity:0.5;stroke:#008000;stroke-linecap:round;stroke-width:2;"/>
   </g>
   <g id="patch_111">
    <path d="M 76.487326 296.567997 
Q 74.58262 296.047775 72.677914 295.527554 
" style="fill:none;opacity:0.5;stroke:#800080;stroke-linecap:round;stroke-width:2;"/>
    <path d="M 75.435537 294.725786 
L 76.487326 296.567997 
L 74.645115 297.619786 
" style="fill:none;opacity:0.5;stroke:#800080;stroke-linecap:round;stroke-width:2;"/>
    <path d="M 73.729703 297.369764 
L 72.677914 295.527554 
L 74.520125 294.475765 
" style="fill:none;opacity:0.5;stroke:#800080;stroke-linecap:round;stroke-width:2;"/>
   </g>
   <g id="patch_112">
    <path d="M 222.296489 292.314381 
Q 258.05484 265.383145 293.813191 238.45191 
" style="fill:none;opacity:0.5;stroke:#008000;stroke-linecap:round;stroke-width:2;"/>
   </g>
   <g id="patch_113">
    <path d="M 243.93932 293.555212 
Q 223.294157 292.371579 202.648995 291.187946 
" style="fill:none;opacity:0.5;stroke:#800080;stroke-linecap:round;stroke-width:2;"/>
    <path d="M 242.527637 291.971814 
L 243.93932 293.555212 
L 242.355922 294.966895 
" style="fill:none;opacity:0.5;stroke:#800080;stroke-linecap:round;stroke-width:2;"/>
    <path d="M 204.060678 292.771344 
L 202.648995 291.187946 
L 204.232393 289.776263 
" style="fill:none;opacity:0.5;stroke:#800080;stroke-linecap:round;stroke-width:2;"/>
   </g>
   <g id="patch_114">
    <path d="M 293.813191 238.45191 
Q 293.813191 167.075875 293.813191 95.69984 
" style="fill:none;opacity:0.5;stroke:#008000;stroke-linecap:round;stroke-width:2;"/>
   </g>
   <g id="patch_115">
    <path d="M 315.453849 238.762087 
Q 294.813674 238.46625 274.173499 238.170413 
" style="fill:none;opacity:0.5;stroke:#800080;stroke-linecap:round;stroke-width:2;"/>
    <path d="M 313.975501 237.240743 
L 315.453849 238.762087 
L 313.932506 240.240435 
" style="fill:none;opacity:0.5;stroke:#800080;stroke-linecap:round;stroke-width:2;"/>
    <path d="M 275.651847 239.691756 
L 274.173499 238.170413 
L 275.694842 236.692064 
" style="fill:none;opacity:0.5;stroke:#800080;stroke-linecap:round;stroke-width:2;"/>
   </g>
   <g id="patch_116">
    <path d="M 222.296489 41.837369 
Q 147.956759 40.102535 73.617029 38.367701 
" style="fill:none;opacity:0.5;stroke:#008000;stroke-linecap:round;stroke-width:2;"/>
   </g>
   <g id="patch_117">
    <path d="M 243.93932 40.596538 
Q 223.294157 41.780171 202.648995 42.963804 
" style="fill:none;opacity:0.5;stroke:#800080;stroke-linecap:round;stroke-width:2;"/>
    <path d="M 242.355922 39.184855 
L 243.93932 40.596538 
L 242.527637 42.179936 
" style="fill:none;opacity:0.5;stroke:#800080;stroke-linecap:round;stroke-width:2;"/>
    <path d="M 204.232393 44.375487 
L 202.648995 42.963804 
L 204.060678 41.380406 
" style="fill:none;opacity:0.5;stroke:#800080;stroke-linecap:round;stroke-width:2;"/>
   </g>
   <g id="patch_118">
    <path d="M 73.617029 38.367701 
Q 74.558038 33.98931 75.499047 29.610919 
" style="fill:none;opacity:0.5;stroke:#008000;stroke-linecap:round;stroke-width:2;"/>
   </g>
   <g id="patch_119">
    <path d="M 76.487326 37.583753 
Q 74.58262 38.103975 72.677914 38.624196 
" style="fill:none;opacity:0.5;stroke:#800080;stroke-linecap:round;stroke-width:2;"/>
    <path d="M 74.645115 36.531964 
L 76.487326 37.583753 
L 75.435537 39.425964 
" style="fill:none;opacity:0.5;stroke:#800080;stroke-linecap:round;stroke-width:2;"/>
    <path d="M 74.520125 39.675985 
L 72.677914 38.624196 
L 73.729703 36.781986 
" style="fill:none;opacity:0.5;stroke:#800080;stroke-linecap:round;stroke-width:2;"/>
   </g>
   <g id="patch_120">
    <path d="M 75.499047 29.610919 
Q 179.010064 29.032641 282.52108 28.454363 
" style="fill:none;opacity:0.5;stroke:#008000;stroke-linecap:round;stroke-width:2;"/>
   </g>
   <g id="patch_121">
    <path d="M 78.323662 29.831339 
Q 76.497721 29.688851 74.67178 29.546363 
" style="fill:none;opacity:0.5;stroke:#800080;stroke-linecap:round;stroke-width:2;"/>
    <path d="M 76.944907 28.219187 
L 78.323662 29.831339 
L 76.71151 31.210094 
" style="fill:none;opacity:0.5;stroke:#800080;stroke-linecap:round;stroke-width:2;"/>
    <path d="M 76.050535 31.158515 
L 74.67178 29.546363 
L 76.283932 28.167608 
" style="fill:none;opacity:0.5;stroke:#800080;stroke-linecap:round;stroke-width:2;"/>
   </g>
   <g id="line2d_1">
    <path clip-path="url(#pfd26dc4f32)" d="M 416.614897 28.95003 
L 416.614897 305.20172 
L 286.755622 305.20172 
L 79.733589 304.210386 
L 77.85157 296.940605 
L 245.351215 293.636159 
L 292.401677 290.331713 
L 316.867917 238.782354 
L 316.867917 95.369396 
L 292.401677 43.820037 
L 245.351215 40.515591 
L 77.85157 37.211145 
L 79.733589 29.941364 
L 286.755622 28.95003 
" style="fill:none;stroke:#ff0000;stroke-linecap:square;stroke-width:0.2;"/>
   </g>
   <g id="line2d_2">
    <path clip-path="url(#pfd26dc4f32)" d="M 425.08398 28.289141 
L 425.08398 305.862609 
L 278.286539 306.193054 
L 71.264506 304.871276 
L 69.382487 294.627493 
L 199.241762 290.992602 
L 270.758465 238.121465 
L 270.758465 96.030285 
L 199.241762 43.159148 
L 69.382487 39.524257 
L 71.264506 29.280474 
L 278.286539 27.958696 
" style="fill:none;stroke:#0000ff;stroke-linecap:square;stroke-width:0.2;"/>
   </g>
  </g>
 </g>
 <defs>
  <clipPath id="pfd26dc4f32">
   <rect height="307.51175" width="409.903625" x="37.576375" y="13.32"/>
  </clipPath>
 </defs>
</svg>
