<?xml version="1.0" encoding="utf-8" standalone="no"?>
<!DOCTYPE svg PUBLIC "-//W3C//DTD SVG 1.1//EN"
  "http://www.w3.org/Graphics/SVG/1.1/DTD/svg11.dtd">
<!-- Created with matplotlib (http://matplotlib.org/) -->
<svg height="345.6pt" version="1.1" viewBox="0 0 460.8 345.6" width="460.8pt" xmlns="http://www.w3.org/2000/svg" xmlns:xlink="http://www.w3.org/1999/xlink">
 <defs>
  <style type="text/css">
*{stroke-linecap:butt;stroke-linejoin:round;}
  </style>
 </defs>
 <g id="figure_1">
  <g id="patch_1">
   <path d="M 0 345.6 
L 460.8 345.6 
L 460.8 0 
L 0 0 
z
" style="fill:#ffffff;"/>
  </g>
  <g id="axes_1">
   <g id="patch_2">
    <path clip-path="url(#p18ec0252f4)" d="M 415.796628 122.551973 
C 416.274044 122.551973 416.731971 122.438244 417.069556 122.235834 
C 417.40714 122.033423 417.59682 121.758857 417.59682 121.472606 
C 417.59682 121.186354 417.40714 120.911788 417.069556 120.709378 
C 416.731971 120.506967 416.274044 120.393238 415.796628 120.393238 
C 415.319212 120.393238 414.861285 120.506967 414.5237 120.709378 
C 414.186116 120.911788 413.996436 121.186354 413.996436 121.472606 
C 413.996436 121.758857 414.186116 122.033423 414.5237 122.235834 
C 414.861285 122.438244 415.319212 122.551973 415.796628 122.551973 
z
" style="fill:#ff0000;opacity:0.2;stroke:#ff0000;stroke-linejoin:miter;"/>
   </g>
   <g id="patch_3">
    <path clip-path="url(#p18ec0252f4)" d="M 415.796628 148.996472 
C 416.274044 148.996472 416.731971 148.882743 417.069556 148.680333 
C 417.40714 148.477923 417.59682 148.203357 417.59682 147.917105 
C 417.59682 147.630853 417.40714 147.356288 417.069556 147.153877 
C 416.731971 146.951467 416.274044 146.837738 415.796628 146.837738 
C 415.319212 146.837738 414.861285 146.951467 414.5237 147.153877 
C 414.186116 147.356288 413.996436 147.630853 413.996436 147.917105 
C 413.996436 148.203357 414.186116 148.477923 414.5237 148.680333 
C 414.861285 148.882743 415.319212 148.996472 415.796628 148.996472 
z
" style="fill:#ff0000;opacity:0.2;stroke:#ff0000;stroke-linejoin:miter;"/>
   </g>
   <g id="patch_4">
    <path clip-path="url(#p18ec0252f4)" d="M 69.259747 148.996472 
C 69.737163 148.996472 70.19509 148.882743 70.532675 148.680333 
C 70.870259 148.477923 71.059939 148.203357 71.059939 147.917105 
C 71.059939 147.630853 70.870259 147.356288 70.532675 147.153877 
C 70.19509 146.951467 69.737163 146.837738 69.259747 146.837738 
C 68.782331 146.837738 68.324404 146.951467 67.986819 147.153877 
C 67.649235 147.356288 67.459555 147.630853 67.459555 147.917105 
C 67.459555 148.203357 67.649235 148.477923 67.986819 148.680333 
C 68.324404 148.882743 68.782331 148.996472 69.259747 148.996472 
z
" style="fill:#ff0000;opacity:0.2;stroke:#ff0000;stroke-linejoin:miter;"/>
   </g>
   <g id="patch_5">
    <path clip-path="url(#p18ec0252f4)" d="M 69.259747 122.551973 
C 69.737163 122.551973 70.19509 122.438244 70.532675 122.235834 
C 70.870259 122.033423 71.059939 121.758857 71.059939 121.472606 
C 71.059939 121.186354 70.870259 120.911788 70.532675 120.709378 
C 70.19509 120.506967 69.737163 120.393238 69.259747 120.393238 
C 68.782331 120.393238 68.324404 120.506967 67.986819 120.709378 
C 67.649235 120.911788 67.459555 121.186354 67.459555 121.472606 
C 67.459555 121.758857 67.649235 122.033423 67.986819 122.235834 
C 68.324404 122.438244 68.782331 122.551973 69.259747 122.551973 
z
" style="fill:#ff0000;opacity:0.2;stroke:#ff0000;stroke-linejoin:miter;"/>
   </g>
   <g id="patch_6">
    <path clip-path="url(#p18ec0252f4)" d="M 422.997394 304.695209 
C 423.474811 304.695209 423.932738 304.58148 424.270322 304.379069 
C 424.607906 304.176659 424.797586 303.902093 424.797586 303.615841 
C 424.797586 303.32959 424.607906 303.055024 424.270322 302.852613 
C 423.932738 302.650203 423.474811 302.536474 422.997394 302.536474 
C 422.519978 302.536474 422.062051 302.650203 421.724467 302.852613 
C 421.386882 303.055024 421.197203 303.32959 421.197203 303.615841 
C 421.197203 303.902093 421.386882 304.176659 421.724467 304.379069 
C 422.062051 304.58148 422.519978 304.695209 422.997394 304.695209 
z
" style="fill:#0000ff;opacity:0.2;stroke:#0000ff;stroke-linejoin:miter;"/>
   </g>
   <g id="patch_7">
    <path clip-path="url(#p18ec0252f4)" d="M 62.058981 304.695209 
C 62.536397 304.695209 62.994324 304.58148 63.331908 304.379069 
C 63.669493 304.176659 63.859172 303.902093 63.859172 303.615841 
C 63.859172 303.32959 63.669493 303.055024 63.331908 302.852613 
C 62.994324 302.650203 62.536397 302.536474 62.058981 302.536474 
C 61.581564 302.536474 61.123637 302.650203 60.786053 302.852613 
C 60.448469 303.055024 60.258789 303.32959 60.258789 303.615841 
C 60.258789 303.902093 60.448469 304.176659 60.786053 304.379069 
C 61.123637 304.58148 61.581564 304.695209 62.058981 304.695209 
z
" style="fill:#0000ff;opacity:0.2;stroke:#0000ff;stroke-linejoin:miter;"/>
   </g>
   <g id="patch_8">
    <path clip-path="url(#p18ec0252f4)" d="M 62.058981 265.837985 
C 62.536397 265.837985 62.994324 265.724256 63.331908 265.521846 
C 63.669493 265.319435 63.859172 265.044869 63.859172 264.758618 
C 63.859172 264.472366 63.669493 264.1978 63.331908 263.99539 
C 62.994324 263.792979 62.536397 263.67925 62.058981 263.67925 
C 61.581564 263.67925 61.123637 263.792979 60.786053 263.99539 
C 60.448469 264.1978 60.258789 264.472366 60.258789 264.758618 
C 60.258789 265.044869 60.448469 265.319435 60.786053 265.521846 
C 61.123637 265.724256 61.581564 265.837985 62.058981 265.837985 
z
" style="fill:#0000ff;opacity:0.2;stroke:#0000ff;stroke-linejoin:miter;"/>
   </g>
   <g id="patch_9">
    <path clip-path="url(#p18ec0252f4)" d="M 422.997394 265.837985 
C 423.474811 265.837985 423.932738 265.724256 424.270322 265.521846 
C 424.607906 265.319435 424.797586 265.044869 424.797586 264.758618 
C 424.797586 264.472366 424.607906 264.1978 424.270322 263.99539 
C 423.932738 263.792979 423.474811 263.67925 422.997394 263.67925 
C 422.519978 263.67925 422.062051 263.792979 421.724467 263.99539 
C 421.386882 264.1978 421.197203 264.472366 421.197203 264.758618 
C 421.197203 265.044869 421.386882 265.319435 421.724467 265.521846 
C 422.062051 265.724256 422.519978 265.837985 422.997394 265.837985 
z
" style="fill:#0000ff;opacity:0.2;stroke:#0000ff;stroke-linejoin:miter;"/>
   </g>
   <g id="patch_10">
    <path clip-path="url(#p18ec0252f4)" d="M 415.796628 121.472606 
L 415.796628 147.917105 
L 69.259747 147.917105 
L 69.259747 121.472606 
L 415.796628 121.472606 
" style="fill:none;stroke:#ff0000;stroke-linejoin:miter;stroke-width:0.5;"/>
   </g>
   <g id="patch_11">
    <path clip-path="url(#p18ec0252f4)" d="M 422.997394 303.615841 
L 62.058981 303.615841 
L 62.058981 264.758618 
L 422.997394 264.758618 
L 422.997394 303.615841 
" style="fill:none;stroke:#0000ff;stroke-linejoin:miter;stroke-width:0.5;"/>
   </g>
   <g id="patch_12">
    <path clip-path="url(#p18ec0252f4)" d="M 415.796628 124.440866 
C 417.109523 124.440866 418.368822 124.128111 419.297179 123.571483 
C 420.225536 123.014854 420.747155 122.259797 420.747155 121.472606 
C 420.747155 120.685414 420.225536 119.930357 419.297179 119.373729 
C 418.368822 118.8171 417.109523 118.504346 415.796628 118.504346 
C 414.483733 118.504346 413.224434 118.8171 412.296077 119.373729 
C 411.36772 119.930357 410.846101 120.685414 410.846101 121.472606 
C 410.846101 122.259797 411.36772 123.014854 412.296077 123.571483 
C 413.224434 124.128111 414.483733 124.440866 415.796628 124.440866 
z
" style="fill:#0000ff;opacity:0.2;stroke:#0000ff;stroke-linejoin:miter;"/>
   </g>
   <g id="patch_13">
    <path clip-path="url(#p18ec0252f4)" d="M 422.997394 267.726878 
C 424.310289 267.726878 425.569588 267.414123 426.497946 266.857494 
C 427.426303 266.300866 427.947921 265.545809 427.947921 264.758618 
C 427.947921 263.971426 427.426303 263.216369 426.497946 262.659741 
C 425.569588 262.103112 424.310289 261.790357 422.997394 261.790357 
C 421.684499 261.790357 420.4252 262.103112 419.496843 262.659741 
C 418.568486 263.216369 418.046868 263.971426 418.046868 264.758618 
C 418.046868 265.545809 418.568486 266.300866 419.496843 266.857494 
C 420.4252 267.414123 421.684499 267.726878 422.997394 267.726878 
z
" style="fill:#ff0000;opacity:0.2;stroke:#ff0000;stroke-linejoin:miter;"/>
   </g>
   <g id="patch_14">
    <path d="M 415.796628 121.472606 
Q 419.346798 192.11644 422.79937 260.818182 
" style="fill:none;opacity:0.5;stroke:#0000ff;stroke-linecap:round;stroke-width:2.75;"/>
    <path d="M 424.222192 259.244786 
L 422.79937 260.818182 
L 421.225974 259.395359 
" style="fill:none;opacity:0.5;stroke:#0000ff;stroke-linecap:round;stroke-width:2.75;"/>
   </g>
   <g id="patch_15">
    <path clip-path="url(#p18ec0252f4)" d="M 415.796628 151.155207 
C 417.228877 151.155207 418.602658 150.81402 419.615411 150.206789 
C 420.628164 149.599558 421.197203 148.77586 421.197203 147.917105 
C 421.197203 147.05835 420.628164 146.234652 419.615411 145.627421 
C 418.602658 145.02019 417.228877 144.679003 415.796628 144.679003 
C 414.364379 144.679003 412.990598 145.02019 411.977845 145.627421 
C 410.965092 146.234652 410.396053 147.05835 410.396053 147.917105 
C 410.396053 148.77586 410.965092 149.599558 411.977845 150.206789 
C 412.990598 150.81402 414.364379 151.155207 415.796628 151.155207 
z
" style="fill:#0000ff;opacity:0.2;stroke:#0000ff;stroke-linejoin:miter;"/>
   </g>
   <g id="patch_16">
    <path clip-path="url(#p18ec0252f4)" d="M 422.997394 306.853943 
C 424.429644 306.853943 425.803424 306.512756 426.816177 305.905525 
C 427.828931 305.298294 428.397969 304.474596 428.397969 303.615841 
C 428.397969 302.757087 427.828931 301.933389 426.816177 301.326157 
C 425.803424 300.718926 424.429644 300.377739 422.997394 300.377739 
C 421.565145 300.377739 420.191364 300.718926 419.178611 301.326157 
C 418.165858 301.933389 417.59682 302.757087 417.59682 303.615841 
C 417.59682 304.474596 418.165858 305.298294 419.178611 305.905525 
C 420.191364 306.512756 421.565145 306.853943 422.997394 306.853943 
z
" style="fill:#ff0000;opacity:0.2;stroke:#ff0000;stroke-linejoin:miter;"/>
   </g>
   <g id="patch_17">
    <path d="M 415.796628 147.917105 
Q 419.350754 224.766272 422.806877 299.496384 
" style="fill:none;opacity:0.5;stroke:#0000ff;stroke-linecap:round;stroke-width:3;"/>
    <path d="M 424.235978 297.928688 
L 422.806877 299.496384 
L 421.239181 298.067284 
" style="fill:none;opacity:0.5;stroke:#0000ff;stroke-linecap:round;stroke-width:3;"/>
   </g>
   <g id="patch_18">
    <path clip-path="url(#p18ec0252f4)" d="M 69.259747 151.155207 
C 70.691996 151.155207 72.065777 150.81402 73.07853 150.206789 
C 74.091283 149.599558 74.660322 148.77586 74.660322 147.917105 
C 74.660322 147.05835 74.091283 146.234652 73.07853 145.627421 
C 72.065777 145.02019 70.691996 144.679003 69.259747 144.679003 
C 67.827498 144.679003 66.453717 145.02019 65.440964 145.627421 
C 64.428211 146.234652 63.859172 147.05835 63.859172 147.917105 
C 63.859172 148.77586 64.428211 149.599558 65.440964 150.206789 
C 66.453717 150.81402 67.827498 151.155207 69.259747 151.155207 
z
" style="fill:#0000ff;opacity:0.2;stroke:#0000ff;stroke-linejoin:miter;"/>
   </g>
   <g id="patch_19">
    <path clip-path="url(#p18ec0252f4)" d="M 62.058981 306.853943 
C 63.49123 306.853943 64.865011 306.512756 65.877764 305.905525 
C 66.890517 305.298294 67.459555 304.474596 67.459555 303.615841 
C 67.459555 302.757087 66.890517 301.933389 65.877764 301.326157 
C 64.865011 300.718926 63.49123 300.377739 62.058981 300.377739 
C 60.626731 300.377739 59.252951 300.718926 58.240198 301.326157 
C 57.227444 301.933389 56.658406 302.757087 56.658406 303.615841 
C 56.658406 304.474596 57.227444 305.298294 58.240198 305.905525 
C 59.252951 306.512756 60.626731 306.853943 62.058981 306.853943 
z
" style="fill:#ff0000;opacity:0.2;stroke:#ff0000;stroke-linejoin:miter;"/>
   </g>
   <g id="patch_20">
    <path d="M 69.259747 147.917105 
Q 65.705621 224.766272 62.249498 299.496384 
" style="fill:none;opacity:0.5;stroke:#0000ff;stroke-linecap:round;stroke-width:3;"/>
    <path d="M 63.817194 298.067284 
L 62.249498 299.496384 
L 60.820397 297.928688 
" style="fill:none;opacity:0.5;stroke:#0000ff;stroke-linecap:round;stroke-width:3;"/>
   </g>
   <g id="patch_21">
    <path clip-path="url(#p18ec0252f4)" d="M 69.259747 124.980549 
C 70.81135 124.980549 72.299613 124.61093 73.396762 123.953096 
C 74.493911 123.295263 75.11037 122.402923 75.11037 121.472606 
C 75.11037 120.542288 74.493911 119.649949 73.396762 118.992115 
C 72.299613 118.334281 70.81135 117.964662 69.259747 117.964662 
C 67.708144 117.964662 66.219881 118.334281 65.122732 118.992115 
C 64.025583 119.649949 63.409124 120.542288 63.409124 121.472606 
C 63.409124 122.402923 64.025583 123.295263 65.122732 123.953096 
C 66.219881 124.61093 67.708144 124.980549 69.259747 124.980549 
z
" style="fill:#0000ff;opacity:0.2;stroke:#0000ff;stroke-linejoin:miter;"/>
   </g>
   <g id="patch_22">
    <path clip-path="url(#p18ec0252f4)" d="M 62.058981 268.266561 
C 63.610584 268.266561 65.098846 267.896942 66.195996 267.239108 
C 67.293145 266.581275 67.909603 265.688935 67.909603 264.758618 
C 67.909603 263.8283 67.293145 262.935961 66.195996 262.278127 
C 65.098846 261.620293 63.610584 261.250674 62.058981 261.250674 
C 60.507377 261.250674 59.019115 261.620293 57.921966 262.278127 
C 56.824816 262.935961 56.208358 263.8283 56.208358 264.758618 
C 56.208358 265.688935 56.824816 266.581275 57.921966 267.239108 
C 59.019115 267.896942 60.507377 268.266561 62.058981 268.266561 
z
" style="fill:#ff0000;opacity:0.2;stroke:#ff0000;stroke-linejoin:miter;"/>
   </g>
   <g id="patch_23">
    <path d="M 69.259747 121.472606 
Q 65.709577 192.11644 62.27475 260.465074 
" style="fill:none;opacity:0.5;stroke:#0000ff;stroke-linecap:round;stroke-width:3.25;"/>
    <path d="M 63.848147 259.042251 
L 62.27475 260.465074 
L 60.851928 258.891678 
" style="fill:none;opacity:0.5;stroke:#0000ff;stroke-linecap:round;stroke-width:3.25;"/>
   </g>
   <g id="patch_24">
    <path clip-path="url(#p18ec0252f4)" d="M 422.997394 306.584101 
C 424.310289 306.584101 425.569588 306.271347 426.497946 305.714718 
C 427.426303 305.158089 427.947921 304.403033 427.947921 303.615841 
C 427.947921 302.828649 427.426303 302.073593 426.497946 301.516964 
C 425.569588 300.960336 424.310289 300.647581 422.997394 300.647581 
C 421.684499 300.647581 420.4252 300.960336 419.496843 301.516964 
C 418.568486 302.073593 418.046868 302.828649 418.046868 303.615841 
C 418.046868 304.403033 418.568486 305.158089 419.496843 305.714718 
C 420.4252 306.271347 421.684499 306.584101 422.997394 306.584101 
z
" style="fill:#0000ff;opacity:0.2;stroke:#0000ff;stroke-linejoin:miter;"/>
   </g>
   <g id="patch_25">
    <path clip-path="url(#p18ec0252f4)" d="M 415.796628 150.885365 
C 417.109523 150.885365 418.368822 150.572611 419.297179 150.015982 
C 420.225536 149.459353 420.747155 148.704297 420.747155 147.917105 
C 420.747155 147.129913 420.225536 146.374857 419.297179 145.818228 
C 418.368822 145.2616 417.109523 144.948845 415.796628 144.948845 
C 414.483733 144.948845 413.224434 145.2616 412.296077 145.818228 
C 411.36772 146.374857 410.846101 147.129913 410.846101 147.917105 
C 410.846101 148.704297 411.36772 149.459353 412.296077 150.015982 
C 413.224434 150.572611 414.483733 150.885365 415.796628 150.885365 
z
" style="fill:#ff0000;opacity:0.2;stroke:#ff0000;stroke-linejoin:miter;"/>
   </g>
   <g id="patch_26">
    <path d="M 422.997394 303.615841 
Q 419.443269 226.766674 415.978978 151.859974 
" style="fill:none;opacity:0.5;stroke:#ff0000;stroke-linecap:round;stroke-width:2.75;"/>
    <path d="M 414.549878 153.427671 
L 415.978978 151.859974 
L 417.546675 153.289075 
" style="fill:none;opacity:0.5;stroke:#ff0000;stroke-linecap:round;stroke-width:2.75;"/>
   </g>
   <g id="patch_27">
    <path clip-path="url(#p18ec0252f4)" d="M 62.058981 306.853943 
C 63.49123 306.853943 64.865011 306.512756 65.877764 305.905525 
C 66.890517 305.298294 67.459555 304.474596 67.459555 303.615841 
C 67.459555 302.757087 66.890517 301.933389 65.877764 301.326157 
C 64.865011 300.718926 63.49123 300.377739 62.058981 300.377739 
C 60.626731 300.377739 59.252951 300.718926 58.240198 301.326157 
C 57.227444 301.933389 56.658406 302.757087 56.658406 303.615841 
C 56.658406 304.474596 57.227444 305.298294 58.240198 305.905525 
C 59.252951 306.512756 60.626731 306.853943 62.058981 306.853943 
z
" style="fill:#0000ff;opacity:0.2;stroke:#0000ff;stroke-linejoin:miter;"/>
   </g>
   <g id="patch_28">
    <path clip-path="url(#p18ec0252f4)" d="M 69.259747 151.155207 
C 70.691996 151.155207 72.065777 150.81402 73.07853 150.206789 
C 74.091283 149.599558 74.660322 148.77586 74.660322 147.917105 
C 74.660322 147.05835 74.091283 146.234652 73.07853 145.627421 
C 72.065777 145.02019 70.691996 144.679003 69.259747 144.679003 
C 67.827498 144.679003 66.453717 145.02019 65.440964 145.627421 
C 64.428211 146.234652 63.859172 147.05835 63.859172 147.917105 
C 63.859172 148.77586 64.428211 149.599558 65.440964 150.206789 
C 66.453717 150.81402 67.827498 151.155207 69.259747 151.155207 
z
" style="fill:#ff0000;opacity:0.2;stroke:#ff0000;stroke-linejoin:miter;"/>
   </g>
   <g id="patch_29">
    <path d="M 62.058981 303.615841 
Q 65.613106 226.766674 69.06923 152.036562 
" style="fill:none;opacity:0.5;stroke:#ff0000;stroke-linecap:round;stroke-width:3;"/>
    <path d="M 67.501534 153.465663 
L 69.06923 152.036562 
L 70.49833 153.604259 
" style="fill:none;opacity:0.5;stroke:#ff0000;stroke-linecap:round;stroke-width:3;"/>
   </g>
   <g id="patch_30">
    <path clip-path="url(#p18ec0252f4)" d="M 62.058981 267.99672 
C 63.49123 267.99672 64.865011 267.655533 65.877764 267.048301 
C 66.890517 266.44107 67.459555 265.617372 67.459555 264.758618 
C 67.459555 263.899863 66.890517 263.076165 65.877764 262.468934 
C 64.865011 261.861703 63.49123 261.520516 62.058981 261.520516 
C 60.626731 261.520516 59.252951 261.861703 58.240198 262.468934 
C 57.227444 263.076165 56.658406 263.899863 56.658406 264.758618 
C 56.658406 265.617372 57.227444 266.44107 58.240198 267.048301 
C 59.252951 267.655533 60.626731 267.99672 62.058981 267.99672 
z
" style="fill:#0000ff;opacity:0.2;stroke:#0000ff;stroke-linejoin:miter;"/>
   </g>
   <g id="patch_31">
    <path clip-path="url(#p18ec0252f4)" d="M 69.259747 124.710708 
C 70.691996 124.710708 72.065777 124.369521 73.07853 123.76229 
C 74.091283 123.155058 74.660322 122.33136 74.660322 121.472606 
C 74.660322 120.613851 74.091283 119.790153 73.07853 119.182922 
C 72.065777 118.575691 70.691996 118.234504 69.259747 118.234504 
C 67.827498 118.234504 66.453717 118.575691 65.440964 119.182922 
C 64.428211 119.790153 63.859172 120.613851 63.859172 121.472606 
C 63.859172 122.33136 64.428211 123.155058 65.440964 123.76229 
C 66.453717 124.369521 67.827498 124.710708 69.259747 124.710708 
z
" style="fill:#ff0000;opacity:0.2;stroke:#ff0000;stroke-linejoin:miter;"/>
   </g>
   <g id="patch_32">
    <path d="M 62.058981 264.758618 
Q 65.609151 194.114783 69.05285 125.589595 
" style="fill:none;opacity:0.5;stroke:#ff0000;stroke-linecap:round;stroke-width:3;"/>
    <path d="M 67.479454 127.012418 
L 69.05285 125.589595 
L 70.475672 127.162992 
" style="fill:none;opacity:0.5;stroke:#ff0000;stroke-linecap:round;stroke-width:3;"/>
   </g>
   <g id="patch_33">
    <path clip-path="url(#p18ec0252f4)" d="M 422.997394 268.266561 
C 424.548998 268.266561 426.03726 267.896942 427.134409 267.239108 
C 428.231559 266.581275 428.848017 265.688935 428.848017 264.758618 
C 428.848017 263.8283 428.231559 262.935961 427.134409 262.278127 
C 426.03726 261.620293 424.548998 261.250674 422.997394 261.250674 
C 421.445791 261.250674 419.957529 261.620293 418.860379 262.278127 
C 417.76323 262.935961 417.146772 263.8283 417.146772 264.758618 
C 417.146772 265.688935 417.76323 266.581275 418.860379 267.239108 
C 419.957529 267.896942 421.445791 268.266561 422.997394 268.266561 
z
" style="fill:#0000ff;opacity:0.2;stroke:#0000ff;stroke-linejoin:miter;"/>
   </g>
   <g id="patch_34">
    <path clip-path="url(#p18ec0252f4)" d="M 415.796628 124.980549 
C 417.348231 124.980549 418.836494 124.61093 419.933643 123.953096 
C 421.030792 123.295263 421.647251 122.402923 421.647251 121.472606 
C 421.647251 120.542288 421.030792 119.649949 419.933643 118.992115 
C 418.836494 118.334281 417.348231 117.964662 415.796628 117.964662 
C 414.245025 117.964662 412.756762 118.334281 411.659613 118.992115 
C 410.562464 119.649949 409.946005 120.542288 409.946005 121.472606 
C 409.946005 122.402923 410.562464 123.295263 411.659613 123.953096 
C 412.756762 124.61093 414.245025 124.980549 415.796628 124.980549 
z
" style="fill:#ff0000;opacity:0.2;stroke:#ff0000;stroke-linejoin:miter;"/>
   </g>
   <g id="patch_35">
    <path d="M 422.997394 264.758618 
Q 419.447224 194.114783 416.012398 125.766149 
" style="fill:none;opacity:0.5;stroke:#ff0000;stroke-linecap:round;stroke-width:3.25;"/>
    <path d="M 414.589575 127.339546 
L 416.012398 125.766149 
L 417.585794 127.188972 
" style="fill:none;opacity:0.5;stroke:#ff0000;stroke-linecap:round;stroke-width:3.25;"/>
   </g>
   <g id="patch_36">
    <path clip-path="url(#p18ec0252f4)" d="M 419.397011 195.81403 
C 420.590552 195.81403 421.735369 195.529708 422.57933 195.023682 
C 423.423291 194.517655 423.89749 193.831241 423.89749 193.115612 
C 423.89749 192.399983 423.423291 191.713568 422.57933 191.207542 
C 421.735369 190.701516 420.590552 190.417193 419.397011 190.417193 
C 418.20347 190.417193 417.058653 190.701516 416.214692 191.207542 
C 415.370731 191.713568 414.896532 192.399983 414.896532 193.115612 
C 414.896532 193.831241 415.370731 194.517655 416.214692 195.023682 
C 417.058653 195.529708 418.20347 195.81403 419.397011 195.81403 
z
" style="fill:#008000;opacity:0.2;stroke:#008000;stroke-linejoin:miter;"/>
   </g>
   <g id="patch_37">
    <path clip-path="url(#p18ec0252f4)" d="M 419.397011 228.464891 
C 420.590552 228.464891 421.735369 228.180569 422.57933 227.674543 
C 423.423291 227.168517 423.89749 226.482102 423.89749 225.766473 
C 423.89749 225.050844 423.423291 224.364429 422.57933 223.858403 
C 421.735369 223.352377 420.590552 223.068055 419.397011 223.068055 
C 418.20347 223.068055 417.058653 223.352377 416.214692 223.858403 
C 415.370731 224.364429 414.896532 225.050844 414.896532 225.766473 
C 414.896532 226.482102 415.370731 227.168517 416.214692 227.674543 
C 417.058653 228.180569 418.20347 228.464891 419.397011 228.464891 
z
" style="fill:#008000;opacity:0.2;stroke:#008000;stroke-linejoin:miter;"/>
   </g>
   <g id="patch_38">
    <path clip-path="url(#p18ec0252f4)" d="M 65.659364 228.464891 
C 66.852905 228.464891 67.997722 228.180569 68.841683 227.674543 
C 69.685644 227.168517 70.159843 226.482102 70.159843 225.766473 
C 70.159843 225.050844 69.685644 224.364429 68.841683 223.858403 
C 67.997722 223.352377 66.852905 223.068055 65.659364 223.068055 
C 64.465823 223.068055 63.321006 223.352377 62.477045 223.858403 
C 61.633084 224.364429 61.158885 225.050844 61.158885 225.766473 
C 61.158885 226.482102 61.633084 227.168517 62.477045 227.674543 
C 63.321006 228.180569 64.465823 228.464891 65.659364 228.464891 
z
" style="fill:#008000;opacity:0.2;stroke:#008000;stroke-linejoin:miter;"/>
   </g>
   <g id="patch_39">
    <path clip-path="url(#p18ec0252f4)" d="M 65.659364 195.81403 
C 66.852905 195.81403 67.997722 195.529708 68.841683 195.023682 
C 69.685644 194.517655 70.159843 193.831241 70.159843 193.115612 
C 70.159843 192.399983 69.685644 191.713568 68.841683 191.207542 
C 67.997722 190.701516 66.852905 190.417193 65.659364 190.417193 
C 64.465823 190.417193 63.321006 190.701516 62.477045 191.207542 
C 61.633084 191.713568 61.158885 192.399983 61.158885 193.115612 
C 61.158885 193.831241 61.633084 194.517655 62.477045 195.023682 
C 63.321006 195.529708 64.465823 195.81403 65.659364 195.81403 
z
" style="fill:#008000;opacity:0.2;stroke:#008000;stroke-linejoin:miter;"/>
   </g>
   <g id="patch_40">
    <path d="M 419.397011 193.115612 
Q 419.397011 209.441042 419.397011 225.766473 
" style="fill:none;opacity:0.5;stroke:#008000;stroke-linecap:round;stroke-width:2;"/>
   </g>
   <g id="patch_41">
    <path d="M 415.867609 122.885037 
Q 419.346798 192.11644 422.825988 261.347843 
" style="fill:none;opacity:0.5;stroke:#800080;stroke-linecap:round;stroke-width:2;"/>
    <path d="M 414.444786 124.458433 
L 415.867609 122.885037 
L 417.441005 124.307859 
" style="fill:none;opacity:0.5;stroke:#800080;stroke-linecap:round;stroke-width:2;"/>
    <path d="M 424.24881 259.774447 
L 422.825988 261.347843 
L 421.252591 259.925021 
" style="fill:none;opacity:0.5;stroke:#800080;stroke-linecap:round;stroke-width:2;"/>
   </g>
   <g id="patch_42">
    <path d="M 419.397011 225.766473 
Q 242.528188 225.766473 65.659364 225.766473 
" style="fill:none;opacity:0.5;stroke:#008000;stroke-linecap:round;stroke-width:2;"/>
   </g>
   <g id="patch_43">
    <path d="M 415.861963 149.329809 
Q 419.350754 224.766272 422.839545 300.202736 
" style="fill:none;opacity:0.5;stroke:#800080;stroke-linecap:round;stroke-width:2;"/>
    <path d="M 414.432862 150.897505 
L 415.861963 149.329809 
L 417.429659 150.758909 
" style="fill:none;opacity:0.5;stroke:#800080;stroke-linecap:round;stroke-width:2;"/>
    <path d="M 424.268645 298.635039 
L 422.839545 300.202736 
L 421.271848 298.773635 
" style="fill:none;opacity:0.5;stroke:#800080;stroke-linecap:round;stroke-width:2;"/>
   </g>
   <g id="patch_44">
    <path d="M 65.659364 225.766473 
Q 65.659364 209.441042 65.659364 193.115612 
" style="fill:none;opacity:0.5;stroke:#008000;stroke-linecap:round;stroke-width:2;"/>
   </g>
   <g id="patch_45">
    <path d="M 69.194412 149.329809 
Q 65.705621 224.766272 62.21683 300.202736 
" style="fill:none;opacity:0.5;stroke:#800080;stroke-linecap:round;stroke-width:2;"/>
    <path d="M 67.626716 150.758909 
L 69.194412 149.329809 
L 70.623513 150.897505 
" style="fill:none;opacity:0.5;stroke:#800080;stroke-linecap:round;stroke-width:2;"/>
    <path d="M 63.784527 298.773635 
L 62.21683 300.202736 
L 60.78773 298.635039 
" style="fill:none;opacity:0.5;stroke:#800080;stroke-linecap:round;stroke-width:2;"/>
   </g>
   <g id="patch_46">
    <path d="M 65.659364 193.115612 
Q 242.528188 193.115612 419.397011 193.115612 
" style="fill:none;opacity:0.5;stroke:#008000;stroke-linecap:round;stroke-width:2;"/>
   </g>
   <g id="patch_47">
    <path d="M 69.188766 122.885037 
Q 65.709577 192.11644 62.230387 261.347843 
" style="fill:none;opacity:0.5;stroke:#800080;stroke-linecap:round;stroke-width:2;"/>
    <path d="M 67.61537 124.307859 
L 69.188766 122.885037 
L 70.611589 124.458433 
" style="fill:none;opacity:0.5;stroke:#800080;stroke-linecap:round;stroke-width:2;"/>
    <path d="M 63.803784 259.925021 
L 62.230387 261.347843 
L 60.807565 259.774447 
" style="fill:none;opacity:0.5;stroke:#800080;stroke-linecap:round;stroke-width:2;"/>
   </g>
   <g id="patch_48">
    <path clip-path="url(#p18ec0252f4)" d="M 415.796628 203.504522 
C 416.274044 203.504522 416.731971 203.390793 417.069556 203.188383 
C 417.40714 202.985972 417.59682 202.711406 417.59682 202.425155 
C 417.59682 202.138903 417.40714 201.864337 417.069556 201.661927 
C 416.731971 201.459516 416.274044 201.345787 415.796628 201.345787 
C 415.319212 201.345787 414.861285 201.459516 414.5237 201.661927 
C 414.186116 201.864337 413.996436 202.138903 413.996436 202.425155 
C 413.996436 202.711406 414.186116 202.985972 414.5237 203.188383 
C 414.861285 203.390793 415.319212 203.504522 415.796628 203.504522 
z
" style="fill:#ff0000;opacity:0.2;stroke:#ff0000;stroke-linejoin:miter;"/>
   </g>
   <g id="patch_49">
    <path clip-path="url(#p18ec0252f4)" d="M 415.796628 229.949021 
C 416.274044 229.949021 416.731971 229.835293 417.069556 229.632882 
C 417.40714 229.430472 417.59682 229.155906 417.59682 228.869654 
C 417.59682 228.583403 417.40714 228.308837 417.069556 228.106426 
C 416.731971 227.904016 416.274044 227.790287 415.796628 227.790287 
C 415.319212 227.790287 414.861285 227.904016 414.5237 228.106426 
C 414.186116 228.308837 413.996436 228.583403 413.996436 228.869654 
C 413.996436 229.155906 414.186116 229.430472 414.5237 229.632882 
C 414.861285 229.835293 415.319212 229.949021 415.796628 229.949021 
z
" style="fill:#ff0000;opacity:0.2;stroke:#ff0000;stroke-linejoin:miter;"/>
   </g>
   <g id="patch_50">
    <path clip-path="url(#p18ec0252f4)" d="M 69.259747 229.949021 
C 69.737163 229.949021 70.19509 229.835293 70.532675 229.632882 
C 70.870259 229.430472 71.059939 229.155906 71.059939 228.869654 
C 71.059939 228.583403 70.870259 228.308837 70.532675 228.106426 
C 70.19509 227.904016 69.737163 227.790287 69.259747 227.790287 
C 68.782331 227.790287 68.324404 227.904016 67.986819 228.106426 
C 67.649235 228.308837 67.459555 228.583403 67.459555 228.869654 
C 67.459555 229.155906 67.649235 229.430472 67.986819 229.632882 
C 68.324404 229.835293 68.782331 229.949021 69.259747 229.949021 
z
" style="fill:#ff0000;opacity:0.2;stroke:#ff0000;stroke-linejoin:miter;"/>
   </g>
   <g id="patch_51">
    <path clip-path="url(#p18ec0252f4)" d="M 69.259747 203.504522 
C 69.737163 203.504522 70.19509 203.390793 70.532675 203.188383 
C 70.870259 202.985972 71.059939 202.711406 71.059939 202.425155 
C 71.059939 202.138903 70.870259 201.864337 70.532675 201.661927 
C 70.19509 201.459516 69.737163 201.345787 69.259747 201.345787 
C 68.782331 201.345787 68.324404 201.459516 67.986819 201.661927 
C 67.649235 201.864337 67.459555 202.138903 67.459555 202.425155 
C 67.459555 202.711406 67.649235 202.985972 67.986819 203.188383 
C 68.324404 203.390793 68.782331 203.504522 69.259747 203.504522 
z
" style="fill:#ff0000;opacity:0.2;stroke:#ff0000;stroke-linejoin:miter;"/>
   </g>
   <g id="patch_52">
    <path clip-path="url(#p18ec0252f4)" d="M 422.997394 68.313765 
C 423.474811 68.313765 423.932738 68.200036 424.270322 67.997626 
C 424.607906 67.795215 424.797586 67.520649 424.797586 67.234398 
C 424.797586 66.948146 424.607906 66.67358 424.270322 66.47117 
C 423.932738 66.268759 423.474811 66.15503 422.997394 66.15503 
C 422.519978 66.15503 422.062051 66.268759 421.724467 66.47117 
C 421.386882 66.67358 421.197203 66.948146 421.197203 67.234398 
C 421.197203 67.520649 421.386882 67.795215 421.724467 67.997626 
C 422.062051 68.200036 422.519978 68.313765 422.997394 68.313765 
z
" style="fill:#0000ff;opacity:0.2;stroke:#0000ff;stroke-linejoin:miter;"/>
   </g>
   <g id="patch_53">
    <path clip-path="url(#p18ec0252f4)" d="M 62.058981 68.313765 
C 62.536397 68.313765 62.994324 68.200036 63.331908 67.997626 
C 63.669493 67.795215 63.859172 67.520649 63.859172 67.234398 
C 63.859172 66.948146 63.669493 66.67358 63.331908 66.47117 
C 62.994324 66.268759 62.536397 66.15503 62.058981 66.15503 
C 61.581564 66.15503 61.123637 66.268759 60.786053 66.47117 
C 60.448469 66.67358 60.258789 66.948146 60.258789 67.234398 
C 60.258789 67.520649 60.448469 67.795215 60.786053 67.997626 
C 61.123637 68.200036 61.581564 68.313765 62.058981 68.313765 
z
" style="fill:#0000ff;opacity:0.2;stroke:#0000ff;stroke-linejoin:miter;"/>
   </g>
   <g id="patch_54">
    <path clip-path="url(#p18ec0252f4)" d="M 62.058981 29.456541 
C 62.536397 29.456541 62.994324 29.342813 63.331908 29.140402 
C 63.669493 28.937992 63.859172 28.663426 63.859172 28.377174 
C 63.859172 28.090923 63.669493 27.816357 63.331908 27.613946 
C 62.994324 27.411536 62.536397 27.297807 62.058981 27.297807 
C 61.581564 27.297807 61.123637 27.411536 60.786053 27.613946 
C 60.448469 27.816357 60.258789 28.090923 60.258789 28.377174 
C 60.258789 28.663426 60.448469 28.937992 60.786053 29.140402 
C 61.123637 29.342813 61.581564 29.456541 62.058981 29.456541 
z
" style="fill:#0000ff;opacity:0.2;stroke:#0000ff;stroke-linejoin:miter;"/>
   </g>
   <g id="patch_55">
    <path clip-path="url(#p18ec0252f4)" d="M 422.997394 29.456541 
C 423.474811 29.456541 423.932738 29.342813 424.270322 29.140402 
C 424.607906 28.937992 424.797586 28.663426 424.797586 28.377174 
C 424.797586 28.090923 424.607906 27.816357 424.270322 27.613946 
C 423.932738 27.411536 423.474811 27.297807 422.997394 27.297807 
C 422.519978 27.297807 422.062051 27.411536 421.724467 27.613946 
C 421.386882 27.816357 421.197203 28.090923 421.197203 28.377174 
C 421.197203 28.663426 421.386882 28.937992 421.724467 29.140402 
C 422.062051 29.342813 422.519978 29.456541 422.997394 29.456541 
z
" style="fill:#0000ff;opacity:0.2;stroke:#0000ff;stroke-linejoin:miter;"/>
   </g>
   <g id="patch_56">
    <path clip-path="url(#p18ec0252f4)" d="M 415.796628 202.425155 
L 415.796628 228.869654 
L 69.259747 228.869654 
L 69.259747 202.425155 
L 415.796628 202.425155 
" style="fill:none;stroke:#ff0000;stroke-linejoin:miter;stroke-width:0.5;"/>
   </g>
   <g id="patch_57">
    <path clip-path="url(#p18ec0252f4)" d="M 422.997394 67.234398 
L 62.058981 67.234398 
L 62.058981 28.377174 
L 422.997394 28.377174 
L 422.997394 67.234398 
" style="fill:none;stroke:#0000ff;stroke-linejoin:miter;stroke-width:0.5;"/>
   </g>
   <g id="patch_58">
    <path clip-path="url(#p18ec0252f4)" d="M 415.796628 205.393415 
C 417.109523 205.393415 418.368822 205.08066 419.297179 204.524032 
C 420.225536 203.967403 420.747155 203.212347 420.747155 202.425155 
C 420.747155 201.637963 420.225536 200.882907 419.297179 200.326278 
C 418.368822 199.769649 417.109523 199.456895 415.796628 199.456895 
C 414.483733 199.456895 413.224434 199.769649 412.296077 200.326278 
C 411.36772 200.882907 410.846101 201.637963 410.846101 202.425155 
C 410.846101 203.212347 411.36772 203.967403 412.296077 204.524032 
C 413.224434 205.08066 414.483733 205.393415 415.796628 205.393415 
z
" style="fill:#0000ff;opacity:0.2;stroke:#0000ff;stroke-linejoin:miter;"/>
   </g>
   <g id="patch_59">
    <path clip-path="url(#p18ec0252f4)" d="M 422.997394 31.345434 
C 424.310289 31.345434 425.569588 31.03268 426.497946 30.476051 
C 427.426303 29.919422 427.947921 29.164366 427.947921 28.377174 
C 427.947921 27.589982 427.426303 26.834926 426.497946 26.278297 
C 425.569588 25.721669 424.310289 25.408914 422.997394 25.408914 
C 421.684499 25.408914 420.4252 25.721669 419.496843 26.278297 
C 418.568486 26.834926 418.046868 27.589982 418.046868 28.377174 
C 418.046868 29.164366 418.568486 29.919422 419.496843 30.476051 
C 420.4252 31.03268 421.684499 31.345434 422.997394 31.345434 
z
" style="fill:#ff0000;opacity:0.2;stroke:#ff0000;stroke-linejoin:miter;"/>
   </g>
   <g id="patch_60">
    <path d="M 415.796628 202.425155 
Q 419.355643 116.401059 422.834277 32.319844 
" style="fill:none;opacity:0.5;stroke:#0000ff;stroke-linecap:round;stroke-width:2.75;"/>
    <path d="M 421.273554 33.756557 
L 422.834277 32.319844 
L 424.27099 33.880567 
" style="fill:none;opacity:0.5;stroke:#0000ff;stroke-linecap:round;stroke-width:2.75;"/>
   </g>
   <g id="patch_61">
    <path clip-path="url(#p18ec0252f4)" d="M 415.796628 232.107756 
C 417.228877 232.107756 418.602658 231.766569 419.615411 231.159338 
C 420.628164 230.552107 421.197203 229.728409 421.197203 228.869654 
C 421.197203 228.010899 420.628164 227.187202 419.615411 226.57997 
C 418.602658 225.972739 417.228877 225.631552 415.796628 225.631552 
C 414.364379 225.631552 412.990598 225.972739 411.977845 226.57997 
C 410.965092 227.187202 410.396053 228.010899 410.396053 228.869654 
C 410.396053 229.728409 410.965092 230.552107 411.977845 231.159338 
C 412.990598 231.766569 414.364379 232.107756 415.796628 232.107756 
z
" style="fill:#0000ff;opacity:0.2;stroke:#0000ff;stroke-linejoin:miter;"/>
   </g>
   <g id="patch_62">
    <path clip-path="url(#p18ec0252f4)" d="M 422.997394 70.4725 
C 424.429644 70.4725 425.803424 70.131313 426.816177 69.524082 
C 427.828931 68.91685 428.397969 68.093152 428.397969 67.234398 
C 428.397969 66.375643 427.828931 65.551945 426.816177 64.944714 
C 425.803424 64.337483 424.429644 63.996296 422.997394 63.996296 
C 421.565145 63.996296 420.191364 64.337483 419.178611 64.944714 
C 418.165858 65.551945 417.59682 66.375643 417.59682 67.234398 
C 417.59682 68.093152 418.165858 68.91685 419.178611 69.524082 
C 420.191364 70.131313 421.565145 70.4725 422.997394 70.4725 
z
" style="fill:#ff0000;opacity:0.2;stroke:#ff0000;stroke-linejoin:miter;"/>
   </g>
   <g id="patch_63">
    <path d="M 415.796628 228.869654 
Q 419.352512 149.050901 422.813986 71.351366 
" style="fill:none;opacity:0.5;stroke:#0000ff;stroke-linecap:round;stroke-width:3;"/>
    <path d="M 421.248714 72.783122 
L 422.813986 71.351366 
L 424.245741 72.916638 
" style="fill:none;opacity:0.5;stroke:#0000ff;stroke-linecap:round;stroke-width:3;"/>
   </g>
   <g id="patch_64">
    <path clip-path="url(#p18ec0252f4)" d="M 69.259747 232.107756 
C 70.691996 232.107756 72.065777 231.766569 73.07853 231.159338 
C 74.091283 230.552107 74.660322 229.728409 74.660322 228.869654 
C 74.660322 228.010899 74.091283 227.187202 73.07853 226.57997 
C 72.065777 225.972739 70.691996 225.631552 69.259747 225.631552 
C 67.827498 225.631552 66.453717 225.972739 65.440964 226.57997 
C 64.428211 227.187202 63.859172 228.010899 63.859172 228.869654 
C 63.859172 229.728409 64.428211 230.552107 65.440964 231.159338 
C 66.453717 231.766569 67.827498 232.107756 69.259747 232.107756 
z
" style="fill:#0000ff;opacity:0.2;stroke:#0000ff;stroke-linejoin:miter;"/>
   </g>
   <g id="patch_65">
    <path clip-path="url(#p18ec0252f4)" d="M 62.058981 70.4725 
C 63.49123 70.4725 64.865011 70.131313 65.877764 69.524082 
C 66.890517 68.91685 67.459555 68.093152 67.459555 67.234398 
C 67.459555 66.375643 66.890517 65.551945 65.877764 64.944714 
C 64.865011 64.337483 63.49123 63.996296 62.058981 63.996296 
C 60.626731 63.996296 59.252951 64.337483 58.240198 64.944714 
C 57.227444 65.551945 56.658406 66.375643 56.658406 67.234398 
C 56.658406 68.093152 57.227444 68.91685 58.240198 69.524082 
C 59.252951 70.131313 60.626731 70.4725 62.058981 70.4725 
z
" style="fill:#ff0000;opacity:0.2;stroke:#ff0000;stroke-linejoin:miter;"/>
   </g>
   <g id="patch_66">
    <path d="M 69.259747 228.869654 
Q 65.703863 149.050901 62.242389 71.351366 
" style="fill:none;opacity:0.5;stroke:#0000ff;stroke-linecap:round;stroke-width:3;"/>
    <path d="M 60.810634 72.916638 
L 62.242389 71.351366 
L 63.807661 72.783122 
" style="fill:none;opacity:0.5;stroke:#0000ff;stroke-linecap:round;stroke-width:3;"/>
   </g>
   <g id="patch_67">
    <path clip-path="url(#p18ec0252f4)" d="M 69.259747 205.933099 
C 70.81135 205.933099 72.299613 205.563479 73.396762 204.905646 
C 74.493911 204.247812 75.11037 203.355472 75.11037 202.425155 
C 75.11037 201.494837 74.493911 200.602498 73.396762 199.944664 
C 72.299613 199.28683 70.81135 198.917211 69.259747 198.917211 
C 67.708144 198.917211 66.219881 199.28683 65.122732 199.944664 
C 64.025583 200.602498 63.409124 201.494837 63.409124 202.425155 
C 63.409124 203.355472 64.025583 204.247812 65.122732 204.905646 
C 66.219881 205.563479 67.708144 205.933099 69.259747 205.933099 
z
" style="fill:#0000ff;opacity:0.2;stroke:#0000ff;stroke-linejoin:miter;"/>
   </g>
   <g id="patch_68">
    <path clip-path="url(#p18ec0252f4)" d="M 62.058981 31.885118 
C 63.610584 31.885118 65.098846 31.515499 66.195996 30.857665 
C 67.293145 30.199831 67.909603 29.307492 67.909603 28.377174 
C 67.909603 27.446857 67.293145 26.554517 66.195996 25.896683 
C 65.098846 25.238849 63.610584 24.86923 62.058981 24.86923 
C 60.507377 24.86923 59.019115 25.238849 57.921966 25.896683 
C 56.824816 26.554517 56.208358 27.446857 56.208358 28.377174 
C 56.208358 29.307492 56.824816 30.199831 57.921966 30.857665 
C 59.019115 31.515499 60.507377 31.885118 62.058981 31.885118 
z
" style="fill:#ff0000;opacity:0.2;stroke:#ff0000;stroke-linejoin:miter;"/>
   </g>
   <g id="patch_69">
    <path d="M 69.259747 202.425155 
Q 65.700732 116.401059 62.236713 32.673095 
" style="fill:none;opacity:0.5;stroke:#0000ff;stroke-linecap:round;stroke-width:3.25;"/>
    <path d="M 60.8 34.233819 
L 62.236713 32.673095 
L 63.797436 34.109808 
" style="fill:none;opacity:0.5;stroke:#0000ff;stroke-linecap:round;stroke-width:3.25;"/>
   </g>
   <g id="patch_70">
    <path clip-path="url(#p18ec0252f4)" d="M 422.997394 70.202658 
C 424.310289 70.202658 425.569588 69.889903 426.497946 69.333275 
C 427.426303 68.776646 427.947921 68.02159 427.947921 67.234398 
C 427.947921 66.447206 427.426303 65.69215 426.497946 65.135521 
C 425.569588 64.578892 424.310289 64.266138 422.997394 64.266138 
C 421.684499 64.266138 420.4252 64.578892 419.496843 65.135521 
C 418.568486 65.69215 418.046868 66.447206 418.046868 67.234398 
C 418.046868 68.02159 418.568486 68.776646 419.496843 69.333275 
C 420.4252 69.889903 421.684499 70.202658 422.997394 70.202658 
z
" style="fill:#0000ff;opacity:0.2;stroke:#0000ff;stroke-linejoin:miter;"/>
   </g>
   <g id="patch_71">
    <path clip-path="url(#p18ec0252f4)" d="M 415.796628 231.837914 
C 417.109523 231.837914 418.368822 231.52516 419.297179 230.968531 
C 420.225536 230.411902 420.747155 229.656846 420.747155 228.869654 
C 420.747155 228.082462 420.225536 227.327406 419.297179 226.770777 
C 418.368822 226.214149 417.109523 225.901394 415.796628 225.901394 
C 414.483733 225.901394 413.224434 226.214149 412.296077 226.770777 
C 411.36772 227.327406 410.846101 228.082462 410.846101 228.869654 
C 410.846101 229.656846 411.36772 230.411902 412.296077 230.968531 
C 413.224434 231.52516 414.483733 231.837914 415.796628 231.837914 
z
" style="fill:#ff0000;opacity:0.2;stroke:#ff0000;stroke-linejoin:miter;"/>
   </g>
   <g id="patch_72">
    <path d="M 422.997394 67.234398 
Q 419.441511 147.053151 415.972169 224.929287 
" style="fill:none;opacity:0.5;stroke:#ff0000;stroke-linecap:round;stroke-width:2.75;"/>
    <path d="M 417.537441 223.497531 
L 415.972169 224.929287 
L 414.540414 223.364015 
" style="fill:none;opacity:0.5;stroke:#ff0000;stroke-linecap:round;stroke-width:2.75;"/>
   </g>
   <g id="patch_73">
    <path clip-path="url(#p18ec0252f4)" d="M 62.058981 70.4725 
C 63.49123 70.4725 64.865011 70.131313 65.877764 69.524082 
C 66.890517 68.91685 67.459555 68.093152 67.459555 67.234398 
C 67.459555 66.375643 66.890517 65.551945 65.877764 64.944714 
C 64.865011 64.337483 63.49123 63.996296 62.058981 63.996296 
C 60.626731 63.996296 59.252951 64.337483 58.240198 64.944714 
C 57.227444 65.551945 56.658406 66.375643 56.658406 67.234398 
C 56.658406 68.093152 57.227444 68.91685 58.240198 69.524082 
C 59.252951 70.131313 60.626731 70.4725 62.058981 70.4725 
z
" style="fill:#0000ff;opacity:0.2;stroke:#0000ff;stroke-linejoin:miter;"/>
   </g>
   <g id="patch_74">
    <path clip-path="url(#p18ec0252f4)" d="M 69.259747 232.107756 
C 70.691996 232.107756 72.065777 231.766569 73.07853 231.159338 
C 74.091283 230.552107 74.660322 229.728409 74.660322 228.869654 
C 74.660322 228.010899 74.091283 227.187202 73.07853 226.57997 
C 72.065777 225.972739 70.691996 225.631552 69.259747 225.631552 
C 67.827498 225.631552 66.453717 225.972739 65.440964 226.57997 
C 64.428211 227.187202 63.859172 228.010899 63.859172 228.869654 
C 63.859172 229.728409 64.428211 230.552107 65.440964 231.159338 
C 66.453717 231.766569 67.827498 232.107756 69.259747 232.107756 
z
" style="fill:#ff0000;opacity:0.2;stroke:#ff0000;stroke-linejoin:miter;"/>
   </g>
   <g id="patch_75">
    <path d="M 62.058981 67.234398 
Q 65.614864 147.053151 69.076338 224.752686 
" style="fill:none;opacity:0.5;stroke:#ff0000;stroke-linecap:round;stroke-width:3;"/>
    <path d="M 70.508094 223.187414 
L 69.076338 224.752686 
L 67.511066 223.32093 
" style="fill:none;opacity:0.5;stroke:#ff0000;stroke-linecap:round;stroke-width:3;"/>
   </g>
   <g id="patch_76">
    <path clip-path="url(#p18ec0252f4)" d="M 62.058981 31.615276 
C 63.49123 31.615276 64.865011 31.274089 65.877764 30.666858 
C 66.890517 30.059627 67.459555 29.235929 67.459555 28.377174 
C 67.459555 27.518419 66.890517 26.694722 65.877764 26.08749 
C 64.865011 25.480259 63.49123 25.139072 62.058981 25.139072 
C 60.626731 25.139072 59.252951 25.480259 58.240198 26.08749 
C 57.227444 26.694722 56.658406 27.518419 56.658406 28.377174 
C 56.658406 29.235929 57.227444 30.059627 58.240198 30.666858 
C 59.252951 31.274089 60.626731 31.615276 62.058981 31.615276 
z
" style="fill:#0000ff;opacity:0.2;stroke:#0000ff;stroke-linejoin:miter;"/>
   </g>
   <g id="patch_77">
    <path clip-path="url(#p18ec0252f4)" d="M 69.259747 205.663257 
C 70.691996 205.663257 72.065777 205.32207 73.07853 204.714839 
C 74.091283 204.107607 74.660322 203.283909 74.660322 202.425155 
C 74.660322 201.5664 74.091283 200.742702 73.07853 200.135471 
C 72.065777 199.52824 70.691996 199.187053 69.259747 199.187053 
C 67.827498 199.187053 66.453717 199.52824 65.440964 200.135471 
C 64.428211 200.742702 63.859172 201.5664 63.859172 202.425155 
C 63.859172 203.283909 64.428211 204.107607 65.440964 204.714839 
C 66.453717 205.32207 67.827498 205.663257 69.259747 205.663257 
z
" style="fill:#ff0000;opacity:0.2;stroke:#ff0000;stroke-linejoin:miter;"/>
   </g>
   <g id="patch_78">
    <path d="M 62.058981 28.377174 
Q 65.617996 114.40127 69.089322 198.305859 
" style="fill:none;opacity:0.5;stroke:#ff0000;stroke-linecap:round;stroke-width:3;"/>
    <path d="M 70.526035 196.745136 
L 69.089322 198.305859 
L 67.528599 196.869147 
" style="fill:none;opacity:0.5;stroke:#ff0000;stroke-linecap:round;stroke-width:3;"/>
   </g>
   <g id="patch_79">
    <path clip-path="url(#p18ec0252f4)" d="M 422.997394 31.885118 
C 424.548998 31.885118 426.03726 31.515499 427.134409 30.857665 
C 428.231559 30.199831 428.848017 29.307492 428.848017 28.377174 
C 428.848017 27.446857 428.231559 26.554517 427.134409 25.896683 
C 426.03726 25.238849 424.548998 24.86923 422.997394 24.86923 
C 421.445791 24.86923 419.957529 25.238849 418.860379 25.896683 
C 417.76323 26.554517 417.146772 27.446857 417.146772 28.377174 
C 417.146772 29.307492 417.76323 30.199831 418.860379 30.857665 
C 419.957529 31.515499 421.445791 31.885118 422.997394 31.885118 
z
" style="fill:#0000ff;opacity:0.2;stroke:#0000ff;stroke-linejoin:miter;"/>
   </g>
   <g id="patch_80">
    <path clip-path="url(#p18ec0252f4)" d="M 415.796628 205.933099 
C 417.348231 205.933099 418.836494 205.563479 419.933643 204.905646 
C 421.030792 204.247812 421.647251 203.355472 421.647251 202.425155 
C 421.647251 201.494837 421.030792 200.602498 419.933643 199.944664 
C 418.836494 199.28683 417.348231 198.917211 415.796628 198.917211 
C 414.245025 198.917211 412.756762 199.28683 411.659613 199.944664 
C 410.562464 200.602498 409.946005 201.494837 409.946005 202.425155 
C 409.946005 203.355472 410.562464 204.247812 411.659613 204.905646 
C 412.756762 205.563479 414.245025 205.933099 415.796628 205.933099 
z
" style="fill:#ff0000;opacity:0.2;stroke:#ff0000;stroke-linejoin:miter;"/>
   </g>
   <g id="patch_81">
    <path d="M 422.997394 28.377174 
Q 419.438379 114.40127 415.97436 198.129234 
" style="fill:none;opacity:0.5;stroke:#ff0000;stroke-linecap:round;stroke-width:3.25;"/>
    <path d="M 417.535083 196.692521 
L 415.97436 198.129234 
L 414.537648 196.56851 
" style="fill:none;opacity:0.5;stroke:#ff0000;stroke-linecap:round;stroke-width:3.25;"/>
   </g>
   <g id="patch_82">
    <path clip-path="url(#p18ec0252f4)" d="M 419.397011 118.099583 
C 420.590552 118.099583 421.735369 117.81526 422.57933 117.309234 
C 423.423291 116.803208 423.89749 116.116793 423.89749 115.401164 
C 423.89749 114.685536 423.423291 113.999121 422.57933 113.493095 
C 421.735369 112.987069 420.590552 112.702746 419.397011 112.702746 
C 418.20347 112.702746 417.058653 112.987069 416.214692 113.493095 
C 415.370731 113.999121 414.896532 114.685536 414.896532 115.401164 
C 414.896532 116.116793 415.370731 116.803208 416.214692 117.309234 
C 417.058653 117.81526 418.20347 118.099583 419.397011 118.099583 
z
" style="fill:#008000;opacity:0.2;stroke:#008000;stroke-linejoin:miter;"/>
   </g>
   <g id="patch_83">
    <path clip-path="url(#p18ec0252f4)" d="M 419.397011 150.750444 
C 420.590552 150.750444 421.735369 150.466122 422.57933 149.960096 
C 423.423291 149.45407 423.89749 148.767655 423.89749 148.052026 
C 423.89749 147.336397 423.423291 146.649982 422.57933 146.143956 
C 421.735369 145.63793 420.590552 145.353608 419.397011 145.353608 
C 418.20347 145.353608 417.058653 145.63793 416.214692 146.143956 
C 415.370731 146.649982 414.896532 147.336397 414.896532 148.052026 
C 414.896532 148.767655 415.370731 149.45407 416.214692 149.960096 
C 417.058653 150.466122 418.20347 150.750444 419.397011 150.750444 
z
" style="fill:#008000;opacity:0.2;stroke:#008000;stroke-linejoin:miter;"/>
   </g>
   <g id="patch_84">
    <path clip-path="url(#p18ec0252f4)" d="M 65.659364 150.750444 
C 66.852905 150.750444 67.997722 150.466122 68.841683 149.960096 
C 69.685644 149.45407 70.159843 148.767655 70.159843 148.052026 
C 70.159843 147.336397 69.685644 146.649982 68.841683 146.143956 
C 67.997722 145.63793 66.852905 145.353608 65.659364 145.353608 
C 64.465823 145.353608 63.321006 145.63793 62.477045 146.143956 
C 61.633084 146.649982 61.158885 147.336397 61.158885 148.052026 
C 61.158885 148.767655 61.633084 149.45407 62.477045 149.960096 
C 63.321006 150.466122 64.465823 150.750444 65.659364 150.750444 
z
" style="fill:#008000;opacity:0.2;stroke:#008000;stroke-linejoin:miter;"/>
   </g>
   <g id="patch_85">
    <path clip-path="url(#p18ec0252f4)" d="M 65.659364 118.099583 
C 66.852905 118.099583 67.997722 117.81526 68.841683 117.309234 
C 69.685644 116.803208 70.159843 116.116793 70.159843 115.401164 
C 70.159843 114.685536 69.685644 113.999121 68.841683 113.493095 
C 67.997722 112.987069 66.852905 112.702746 65.659364 112.702746 
C 64.465823 112.702746 63.321006 112.987069 62.477045 113.493095 
C 61.633084 113.999121 61.158885 114.685536 61.158885 115.401164 
C 61.158885 116.116793 61.633084 116.803208 62.477045 117.309234 
C 63.321006 117.81526 64.465823 118.099583 65.659364 118.099583 
z
" style="fill:#008000;opacity:0.2;stroke:#008000;stroke-linejoin:miter;"/>
   </g>
   <g id="patch_86">
    <path d="M 419.397011 115.401164 
Q 419.397011 131.726595 419.397011 148.052026 
" style="fill:none;opacity:0.5;stroke:#008000;stroke-linecap:round;stroke-width:2;"/>
   </g>
   <g id="patch_87">
    <path d="M 415.855087 201.01215 
Q 419.355643 116.401059 422.856199 31.789967 
" style="fill:none;opacity:0.5;stroke:#800080;stroke-linecap:round;stroke-width:2;"/>
    <path d="M 417.415811 199.575438 
L 415.855087 201.01215 
L 414.418375 199.451427 
" style="fill:none;opacity:0.5;stroke:#800080;stroke-linecap:round;stroke-width:2;"/>
    <path d="M 421.295476 33.22668 
L 422.856199 31.789967 
L 424.292912 33.350691 
" style="fill:none;opacity:0.5;stroke:#800080;stroke-linecap:round;stroke-width:2;"/>
   </g>
   <g id="patch_88">
    <path d="M 419.397011 148.052026 
Q 242.528188 148.052026 65.659364 148.052026 
" style="fill:none;opacity:0.5;stroke:#008000;stroke-linecap:round;stroke-width:2;"/>
   </g>
   <g id="patch_89">
    <path d="M 415.859568 227.456842 
Q 419.352512 149.050901 422.845456 70.64496 
" style="fill:none;opacity:0.5;stroke:#800080;stroke-linecap:round;stroke-width:2;"/>
    <path d="M 417.42484 226.025086 
L 415.859568 227.456842 
L 414.427812 225.89157 
" style="fill:none;opacity:0.5;stroke:#800080;stroke-linecap:round;stroke-width:2;"/>
    <path d="M 421.280184 72.076716 
L 422.845456 70.64496 
L 424.277211 72.210232 
" style="fill:none;opacity:0.5;stroke:#800080;stroke-linecap:round;stroke-width:2;"/>
   </g>
   <g id="patch_90">
    <path d="M 65.659364 148.052026 
Q 65.659364 131.726595 65.659364 115.401164 
" style="fill:none;opacity:0.5;stroke:#008000;stroke-linecap:round;stroke-width:2;"/>
   </g>
   <g id="patch_91">
    <path d="M 69.196807 227.456842 
Q 65.703863 149.050901 62.210919 70.64496 
" style="fill:none;opacity:0.5;stroke:#800080;stroke-linecap:round;stroke-width:2;"/>
    <path d="M 70.628563 225.89157 
L 69.196807 227.456842 
L 67.631535 226.025086 
" style="fill:none;opacity:0.5;stroke:#800080;stroke-linecap:round;stroke-width:2;"/>
    <path d="M 60.779164 72.210232 
L 62.210919 70.64496 
L 63.776191 72.076716 
" style="fill:none;opacity:0.5;stroke:#800080;stroke-linecap:round;stroke-width:2;"/>
   </g>
   <g id="patch_92">
    <path d="M 65.659364 115.401164 
Q 242.528188 115.401164 419.397011 115.401164 
" style="fill:none;opacity:0.5;stroke:#008000;stroke-linecap:round;stroke-width:2;"/>
   </g>
   <g id="patch_93">
    <path d="M 69.201288 201.01215 
Q 65.700732 116.401059 62.200176 31.789967 
" style="fill:none;opacity:0.5;stroke:#800080;stroke-linecap:round;stroke-width:2;"/>
    <path d="M 70.638 199.451427 
L 69.201288 201.01215 
L 67.640564 199.575438 
" style="fill:none;opacity:0.5;stroke:#800080;stroke-linecap:round;stroke-width:2;"/>
    <path d="M 60.763463 33.350691 
L 62.200176 31.789967 
L 63.760899 33.22668 
" style="fill:none;opacity:0.5;stroke:#800080;stroke-linecap:round;stroke-width:2;"/>
   </g>
   <g id="line2d_1">
    <path clip-path="url(#p18ec0252f4)" d="M 415.796628 121.472606 
L 415.796628 147.917105 
L 69.259747 147.917105 
L 69.259747 121.472606 
" style="fill:none;stroke:#ff0000;stroke-linecap:square;stroke-width:0.2;"/>
   </g>
   <g id="line2d_2">
    <path clip-path="url(#p18ec0252f4)" d="M 422.997394 303.615841 
L 62.058981 303.615841 
L 62.058981 264.758618 
L 422.997394 264.758618 
" style="fill:none;stroke:#0000ff;stroke-linecap:square;stroke-width:0.2;"/>
   </g>
   <g id="line2d_3">
    <path clip-path="url(#p18ec0252f4)" d="M 415.796628 202.425155 
L 415.796628 228.869654 
L 69.259747 228.869654 
L 69.259747 202.425155 
" style="fill:none;stroke:#ff0000;stroke-linecap:square;stroke-width:0.2;"/>
   </g>
   <g id="line2d_4">
    <path clip-path="url(#p18ec0252f4)" d="M 422.997394 67.234398 
L 62.058981 67.234398 
L 62.058981 28.377174 
L 422.997394 28.377174 
" style="fill:none;stroke:#0000ff;stroke-linecap:square;stroke-width:0.2;"/>
   </g>
  </g>
 </g>
 <defs>
  <clipPath id="p18ec0252f4">
   <rect height="307.51175" width="409.903625" x="37.576375" y="13.32"/>
  </clipPath>
 </defs>
</svg>
