<?xml version="1.0" encoding="utf-8" standalone="no"?>
<!DOCTYPE svg PUBLIC "-//W3C//DTD SVG 1.1//EN"
  "http://www.w3.org/Graphics/SVG/1.1/DTD/svg11.dtd">
<!-- Created with matplotlib (http://matplotlib.org/) -->
<svg height="345.6pt" version="1.1" viewBox="0 0 460.8 345.6" width="460.8pt" xmlns="http://www.w3.org/2000/svg" xmlns:xlink="http://www.w3.org/1999/xlink">
 <defs>
  <style type="text/css">
*{stroke-linecap:butt;stroke-linejoin:round;}
  </style>
 </defs>
 <g id="figure_1">
  <g id="patch_1">
   <path d="M 0 345.6 
L 460.8 345.6 
L 460.8 0 
L 0 0 
z
" style="fill:#ffffff;"/>
  </g>
  <g id="axes_1">
   <g id="patch_2">
    <path clip-path="url(#p4a76ccddf6)" d="M 58.090933 154.429288 
C 58.593522 154.429288 59.075594 154.289022 59.430978 154.039383 
C 59.786362 153.789743 59.986042 153.451112 59.986042 153.098068 
C 59.986042 152.745025 59.786362 152.406393 59.430978 152.156754 
C 59.075594 151.907114 58.593522 151.766848 58.090933 151.766848 
C 57.588344 151.766848 57.106272 151.907114 56.750888 152.156754 
C 56.395504 152.406393 56.195824 152.745025 56.195824 153.098068 
C 56.195824 153.451112 56.395504 153.789743 56.750888 154.039383 
C 57.106272 154.289022 57.588344 154.429288 58.090933 154.429288 
z
" style="fill:#ff0000;opacity:0.2;stroke:#ff0000;stroke-linejoin:miter;"/>
   </g>
   <g id="patch_3">
    <path clip-path="url(#p4a76ccddf6)" d="M 426.689688 31.291466 
C 427.192277 31.291466 427.674349 31.1512 428.029733 30.901561 
C 428.385117 30.651921 428.584798 30.31329 428.584798 29.960246 
C 428.584798 29.607203 428.385117 29.268571 428.029733 29.018932 
C 427.674349 28.769292 427.192277 28.629027 426.689688 28.629027 
C 426.187099 28.629027 425.705028 28.769292 425.349644 29.018932 
C 424.99426 29.268571 424.794579 29.607203 424.794579 29.960246 
C 424.794579 30.31329 424.99426 30.651921 425.349644 30.901561 
C 425.705028 31.1512 426.187099 31.291466 426.689688 31.291466 
z
" style="fill:#ff0000;opacity:0.2;stroke:#ff0000;stroke-linejoin:miter;"/>
   </g>
   <g id="patch_4">
    <path clip-path="url(#p4a76ccddf6)" d="M 426.689688 69.896837 
C 427.192277 69.896837 427.674349 69.756571 428.029733 69.506932 
C 428.385117 69.257292 428.584798 68.918661 428.584798 68.565617 
C 428.584798 68.212574 428.385117 67.873942 428.029733 67.624303 
C 427.674349 67.374663 427.192277 67.234398 426.689688 67.234398 
C 426.187099 67.234398 425.705028 67.374663 425.349644 67.624303 
C 424.99426 67.873942 424.794579 68.212574 424.794579 68.565617 
C 424.794579 68.918661 424.99426 69.257292 425.349644 69.506932 
C 425.705028 69.756571 426.187099 69.896837 426.689688 69.896837 
z
" style="fill:#ff0000;opacity:0.2;stroke:#ff0000;stroke-linejoin:miter;"/>
   </g>
   <g id="patch_5">
    <path clip-path="url(#p4a76ccddf6)" d="M 126.314867 168.407095 
C 126.817456 168.407095 127.299528 168.266829 127.654912 168.017189 
C 128.010296 167.76755 128.209976 167.428919 128.209976 167.075875 
C 128.209976 166.722831 128.010296 166.3842 127.654912 166.134561 
C 127.299528 165.884921 126.817456 165.744655 126.314867 165.744655 
C 125.812278 165.744655 125.330206 165.884921 124.974822 166.134561 
C 124.619439 166.3842 124.419758 166.722831 124.419758 167.075875 
C 124.419758 167.428919 124.619439 167.76755 124.974822 168.017189 
C 125.330206 168.266829 125.812278 168.407095 126.314867 168.407095 
z
" style="fill:#ff0000;opacity:0.2;stroke:#ff0000;stroke-linejoin:miter;"/>
   </g>
   <g id="patch_6">
    <path clip-path="url(#p4a76ccddf6)" d="M 126.314867 169.738314 
C 126.817456 169.738314 127.299528 169.598049 127.654912 169.348409 
C 128.010296 169.09877 128.209976 168.760138 128.209976 168.407095 
C 128.209976 168.054051 128.010296 167.71542 127.654912 167.46578 
C 127.299528 167.216141 126.817456 167.075875 126.314867 167.075875 
C 125.812278 167.075875 125.330206 167.216141 124.974822 167.46578 
C 124.619439 167.71542 124.419758 168.054051 124.419758 168.407095 
C 124.419758 168.760138 124.619439 169.09877 124.974822 169.348409 
C 125.330206 169.598049 125.812278 169.738314 126.314867 169.738314 
z
" style="fill:#ff0000;opacity:0.2;stroke:#ff0000;stroke-linejoin:miter;"/>
   </g>
   <g id="patch_7">
    <path clip-path="url(#p4a76ccddf6)" d="M 426.689688 268.914182 
C 427.192277 268.914182 427.674349 268.773916 428.029733 268.524277 
C 428.385117 268.274637 428.584798 267.936006 428.584798 267.582962 
C 428.584798 267.229919 428.385117 266.891287 428.029733 266.641648 
C 427.674349 266.392008 427.192277 266.251742 426.689688 266.251742 
C 426.187099 266.251742 425.705028 266.392008 425.349644 266.641648 
C 424.99426 266.891287 424.794579 267.229919 424.794579 267.582962 
C 424.794579 267.936006 424.99426 268.274637 425.349644 268.524277 
C 425.705028 268.773916 426.187099 268.914182 426.689688 268.914182 
z
" style="fill:#ff0000;opacity:0.2;stroke:#ff0000;stroke-linejoin:miter;"/>
   </g>
   <g id="patch_8">
    <path clip-path="url(#p4a76ccddf6)" d="M 426.689688 306.853943 
C 427.192277 306.853943 427.674349 306.713677 428.029733 306.464038 
C 428.385117 306.214398 428.584798 305.875767 428.584798 305.522723 
C 428.584798 305.16968 428.385117 304.831049 428.029733 304.581409 
C 427.674349 304.331769 427.192277 304.191504 426.689688 304.191504 
C 426.187099 304.191504 425.705028 304.331769 425.349644 304.581409 
C 424.99426 304.831049 424.794579 305.16968 424.794579 305.522723 
C 424.794579 305.875767 424.99426 306.214398 425.349644 306.464038 
C 425.705028 306.713677 426.187099 306.853943 426.689688 306.853943 
z
" style="fill:#ff0000;opacity:0.2;stroke:#ff0000;stroke-linejoin:miter;"/>
   </g>
   <g id="patch_9">
    <path clip-path="url(#p4a76ccddf6)" d="M 58.090933 184.381731 
C 58.593522 184.381731 59.075594 184.241465 59.430978 183.991826 
C 59.786362 183.742186 59.986042 183.403555 59.986042 183.050511 
C 59.986042 182.697468 59.786362 182.358836 59.430978 182.109197 
C 59.075594 181.859557 58.593522 181.719292 58.090933 181.719292 
C 57.588344 181.719292 57.106272 181.859557 56.750888 182.109197 
C 56.395504 182.358836 56.195824 182.697468 56.195824 183.050511 
C 56.195824 183.403555 56.395504 183.742186 56.750888 183.991826 
C 57.106272 184.241465 57.588344 184.381731 58.090933 184.381731 
z
" style="fill:#ff0000;opacity:0.2;stroke:#ff0000;stroke-linejoin:miter;"/>
   </g>
   <g id="patch_10">
    <path clip-path="url(#p4a76ccddf6)" d="M 58.090933 148.438799 
C 58.593522 148.438799 59.075594 148.298534 59.430978 148.048894 
C 59.786362 147.799255 59.986042 147.460623 59.986042 147.10758 
C 59.986042 146.754536 59.786362 146.415905 59.430978 146.166265 
C 59.075594 145.916626 58.593522 145.77636 58.090933 145.77636 
C 57.588344 145.77636 57.106272 145.916626 56.750888 146.166265 
C 56.395504 146.415905 56.195824 146.754536 56.195824 147.10758 
C 56.195824 147.460623 56.395504 147.799255 56.750888 148.048894 
C 57.106272 148.298534 57.588344 148.438799 58.090933 148.438799 
z
" style="fill:#0000ff;opacity:0.2;stroke:#0000ff;stroke-linejoin:miter;"/>
   </g>
   <g id="patch_11">
    <path clip-path="url(#p4a76ccddf6)" d="M 426.689688 29.960246 
C 427.192277 29.960246 427.674349 29.819981 428.029733 29.570341 
C 428.385117 29.320701 428.584798 28.98207 428.584798 28.629027 
C 428.584798 28.275983 428.385117 27.937352 428.029733 27.687712 
C 427.674349 27.438073 427.192277 27.297807 426.689688 27.297807 
C 426.187099 27.297807 425.705028 27.438073 425.349644 27.687712 
C 424.99426 27.937352 424.794579 28.275983 424.794579 28.629027 
C 424.794579 28.98207 424.99426 29.320701 425.349644 29.570341 
C 425.705028 29.819981 426.187099 29.960246 426.689688 29.960246 
z
" style="fill:#0000ff;opacity:0.2;stroke:#0000ff;stroke-linejoin:miter;"/>
   </g>
   <g id="patch_12">
    <path clip-path="url(#p4a76ccddf6)" d="M 426.689688 85.205864 
C 427.192277 85.205864 427.674349 85.065598 428.029733 84.815958 
C 428.385117 84.566319 428.584798 84.227688 428.584798 83.874644 
C 428.584798 83.5216 428.385117 83.182969 428.029733 82.933329 
C 427.674349 82.68369 427.192277 82.543424 426.689688 82.543424 
C 426.187099 82.543424 425.705028 82.68369 425.349644 82.933329 
C 424.99426 83.182969 424.794579 83.5216 424.794579 83.874644 
C 424.794579 84.227688 424.99426 84.566319 425.349644 84.815958 
C 425.705028 85.065598 426.187099 85.205864 426.689688 85.205864 
z
" style="fill:#0000ff;opacity:0.2;stroke:#0000ff;stroke-linejoin:miter;"/>
   </g>
   <g id="patch_13">
    <path clip-path="url(#p4a76ccddf6)" d="M 155.689061 167.075875 
C 156.19165 167.075875 156.673722 166.935609 157.029106 166.68597 
C 157.38449 166.43633 157.58417 166.097699 157.58417 165.744655 
C 157.58417 165.391612 157.38449 165.05298 157.029106 164.803341 
C 156.673722 164.553701 156.19165 164.413436 155.689061 164.413436 
C 155.186472 164.413436 154.7044 164.553701 154.349016 164.803341 
C 153.993632 165.05298 153.793952 165.391612 153.793952 165.744655 
C 153.793952 166.097699 153.993632 166.43633 154.349016 166.68597 
C 154.7044 166.935609 155.186472 167.075875 155.689061 167.075875 
z
" style="fill:#0000ff;opacity:0.2;stroke:#0000ff;stroke-linejoin:miter;"/>
   </g>
   <g id="patch_14">
    <path clip-path="url(#p4a76ccddf6)" d="M 155.689061 168.407095 
C 156.19165 168.407095 156.673722 168.266829 157.029106 168.017189 
C 157.38449 167.76755 157.58417 167.428919 157.58417 167.075875 
C 157.58417 166.722831 157.38449 166.3842 157.029106 166.134561 
C 156.673722 165.884921 156.19165 165.744655 155.689061 165.744655 
C 155.186472 165.744655 154.7044 165.884921 154.349016 166.134561 
C 153.993632 166.3842 153.793952 166.722831 153.793952 167.075875 
C 153.793952 167.428919 153.993632 167.76755 154.349016 168.017189 
C 154.7044 168.266829 155.186472 168.407095 155.689061 168.407095 
z
" style="fill:#0000ff;opacity:0.2;stroke:#0000ff;stroke-linejoin:miter;"/>
   </g>
   <g id="patch_15">
    <path clip-path="url(#p4a76ccddf6)" d="M 426.689688 250.942716 
C 427.192277 250.942716 427.674349 250.80245 428.029733 250.552811 
C 428.385117 250.303171 428.584798 249.96454 428.584798 249.611496 
C 428.584798 249.258453 428.385117 248.919821 428.029733 248.670182 
C 427.674349 248.420542 427.192277 248.280277 426.689688 248.280277 
C 426.187099 248.280277 425.705028 248.420542 425.349644 248.670182 
C 424.99426 248.919821 424.794579 249.258453 424.794579 249.611496 
C 424.794579 249.96454 424.99426 250.303171 425.349644 250.552811 
C 425.705028 250.80245 426.187099 250.942716 426.689688 250.942716 
z
" style="fill:#0000ff;opacity:0.2;stroke:#0000ff;stroke-linejoin:miter;"/>
   </g>
   <g id="patch_16">
    <path clip-path="url(#p4a76ccddf6)" d="M 426.689688 305.522723 
C 427.192277 305.522723 427.674349 305.382458 428.029733 305.132818 
C 428.385117 304.883179 428.584798 304.544547 428.584798 304.191504 
C 428.584798 303.83846 428.385117 303.499829 428.029733 303.250189 
C 427.674349 303.00055 427.192277 302.860284 426.689688 302.860284 
C 426.187099 302.860284 425.705028 303.00055 425.349644 303.250189 
C 424.99426 303.499829 424.794579 303.83846 424.794579 304.191504 
C 424.794579 304.544547 424.99426 304.883179 425.349644 305.132818 
C 425.705028 305.382458 426.187099 305.522723 426.689688 305.522723 
z
" style="fill:#0000ff;opacity:0.2;stroke:#0000ff;stroke-linejoin:miter;"/>
   </g>
   <g id="patch_17">
    <path clip-path="url(#p4a76ccddf6)" d="M 58.090933 187.70978 
C 58.593522 187.70978 59.075594 187.569515 59.430978 187.319875 
C 59.786362 187.070236 59.986042 186.731604 59.986042 186.378561 
C 59.986042 186.025517 59.786362 185.686886 59.430978 185.437246 
C 59.075594 185.187607 58.593522 185.047341 58.090933 185.047341 
C 57.588344 185.047341 57.106272 185.187607 56.750888 185.437246 
C 56.395504 185.686886 56.195824 186.025517 56.195824 186.378561 
C 56.195824 186.731604 56.395504 187.070236 56.750888 187.319875 
C 57.106272 187.569515 57.588344 187.70978 58.090933 187.70978 
z
" style="fill:#0000ff;opacity:0.2;stroke:#0000ff;stroke-linejoin:miter;"/>
   </g>
   <g id="patch_18">
    <path clip-path="url(#p4a76ccddf6)" d="M 58.090933 153.098068 
L 426.689688 29.960246 
L 426.689688 68.565617 
L 126.314867 167.075875 
L 126.314867 168.407095 
L 426.689688 267.582962 
L 426.689688 305.522723 
L 58.090933 183.050511 
L 58.090933 153.098068 
" style="fill:none;stroke:#ff0000;stroke-linejoin:miter;stroke-width:0.5;"/>
   </g>
   <g id="patch_19">
    <path clip-path="url(#p4a76ccddf6)" d="M 58.090933 147.10758 
L 426.689688 28.629027 
L 426.689688 83.874644 
L 155.689061 165.744655 
L 155.689061 167.075875 
L 426.689688 249.611496 
L 426.689688 304.191504 
L 58.090933 186.378561 
L 58.090933 147.10758 
" style="fill:none;stroke:#0000ff;stroke-linejoin:miter;stroke-width:0.5;"/>
   </g>
   <g id="patch_20">
    <path clip-path="url(#p4a76ccddf6)" d="M 58.090933 157.424532 
C 59.724347 157.424532 61.29108 156.968669 62.446078 156.15734 
C 63.601076 155.346012 64.250038 154.24546 64.250038 153.098068 
C 64.250038 151.950677 63.601076 150.850125 62.446078 150.038796 
C 61.29108 149.227468 59.724347 148.771604 58.090933 148.771604 
C 56.457519 148.771604 54.890786 149.227468 53.735788 150.038796 
C 52.58079 150.850125 51.931828 151.950677 51.931828 153.098068 
C 51.931828 154.24546 52.58079 155.346012 53.735788 156.15734 
C 54.890786 156.968669 56.457519 157.424532 58.090933 157.424532 
z
" style="fill:#0000ff;opacity:0.2;stroke:#0000ff;stroke-linejoin:miter;"/>
   </g>
   <g id="patch_21">
    <path clip-path="url(#p4a76ccddf6)" d="M 58.090933 151.434044 
C 59.724347 151.434044 61.29108 150.97818 62.446078 150.166852 
C 63.601076 149.355523 64.250038 148.254971 64.250038 147.10758 
C 64.250038 145.960188 63.601076 144.859636 62.446078 144.048308 
C 61.29108 143.236979 59.724347 142.781116 58.090933 142.781116 
C 56.457519 142.781116 54.890786 143.236979 53.735788 144.048308 
C 52.58079 144.859636 51.931828 145.960188 51.931828 147.10758 
C 51.931828 148.254971 52.58079 149.355523 53.735788 150.166852 
C 54.890786 150.97818 56.457519 151.434044 58.090933 151.434044 
z
" style="fill:#ff0000;opacity:0.2;stroke:#ff0000;stroke-linejoin:miter;"/>
   </g>
   <g id="patch_22">
    <path d="M 58.090933 153.098068 
Q 58.090933 151.101726 58.090933 151.403481 
" style="fill:none;opacity:0.5;stroke:#0000ff;stroke-linecap:round;stroke-width:3.25;"/>
    <path d="M 56.590933 152.903481 
L 58.090933 151.403481 
L 59.590933 152.903481 
" style="fill:none;opacity:0.5;stroke:#0000ff;stroke-linecap:round;stroke-width:3.25;"/>
   </g>
   <g id="patch_23">
    <path clip-path="url(#p4a76ccddf6)" d="M 426.689688 33.6211 
C 428.071808 33.6211 429.397505 33.23537 430.374811 32.548861 
C 431.352117 31.862352 431.901239 30.931116 431.901239 29.960246 
C 431.901239 28.989376 431.352117 28.05814 430.374811 27.371631 
C 429.397505 26.685123 428.071808 26.299392 426.689688 26.299392 
C 425.307569 26.299392 423.981872 26.685123 423.004566 27.371631 
C 422.02726 28.05814 421.478138 28.989376 421.478138 29.960246 
C 421.478138 30.931116 422.02726 31.862352 423.004566 32.548861 
C 423.981872 33.23537 425.307569 33.6211 426.689688 33.6211 
z
" style="fill:#0000ff;opacity:0.2;stroke:#0000ff;stroke-linejoin:miter;"/>
   </g>
   <g id="patch_24">
    <path clip-path="url(#p4a76ccddf6)" d="M 426.689688 32.289881 
C 428.071808 32.289881 429.397505 31.90415 430.374811 31.217641 
C 431.352117 30.531133 431.901239 29.599896 431.901239 28.629027 
C 431.901239 27.658157 431.352117 26.72692 430.374811 26.040412 
C 429.397505 25.353903 428.071808 24.968172 426.689688 24.968172 
C 425.307569 24.968172 423.981872 25.353903 423.004566 26.040412 
C 422.02726 26.72692 421.478138 27.658157 421.478138 28.629027 
C 421.478138 29.599896 422.02726 30.531133 423.004566 31.217641 
C 423.981872 31.90415 425.307569 32.289881 426.689688 32.289881 
z
" style="fill:#ff0000;opacity:0.2;stroke:#ff0000;stroke-linejoin:miter;"/>
   </g>
   <g id="patch_25">
    <path d="M 426.689688 29.960246 
Q 426.689688 29.294636 426.689688 30.57357 
" style="fill:none;opacity:0.5;stroke:#0000ff;stroke-linecap:round;stroke-width:2.75;"/>
    <path d="M 425.189688 32.07357 
L 426.689688 30.57357 
L 428.189688 32.07357 
" style="fill:none;opacity:0.5;stroke:#0000ff;stroke-linecap:round;stroke-width:2.75;"/>
   </g>
   <g id="patch_26">
    <path clip-path="url(#p4a76ccddf6)" d="M 426.689688 72.559277 
C 428.197455 72.559277 429.64367 72.138479 430.709822 71.389561 
C 431.775974 70.640642 432.375016 69.624748 432.375016 68.565617 
C 432.375016 67.506487 431.775974 66.490593 430.709822 65.741674 
C 429.64367 64.992755 428.197455 64.571958 426.689688 64.571958 
C 425.181922 64.571958 423.735706 64.992755 422.669554 65.741674 
C 421.603402 66.490593 421.00436 67.506487 421.00436 68.565617 
C 421.00436 69.624748 421.603402 70.640642 422.669554 71.389561 
C 423.735706 72.138479 425.181922 72.559277 426.689688 72.559277 
z
" style="fill:#0000ff;opacity:0.2;stroke:#0000ff;stroke-linejoin:miter;"/>
   </g>
   <g id="patch_27">
    <path clip-path="url(#p4a76ccddf6)" d="M 426.689688 87.868303 
C 428.197455 87.868303 429.64367 87.447506 430.709822 86.698587 
C 431.775974 85.949669 432.375016 84.933775 432.375016 83.874644 
C 432.375016 82.815513 431.775974 81.799619 430.709822 81.050701 
C 429.64367 80.301782 428.197455 79.880985 426.689688 79.880985 
C 425.181922 79.880985 423.735706 80.301782 422.669554 81.050701 
C 421.603402 81.799619 421.00436 82.815513 421.00436 83.874644 
C 421.00436 84.933775 421.603402 85.949669 422.669554 86.698587 
C 423.735706 87.447506 425.181922 87.868303 426.689688 87.868303 
z
" style="fill:#ff0000;opacity:0.2;stroke:#ff0000;stroke-linejoin:miter;"/>
   </g>
   <g id="patch_28">
    <path d="M 426.689688 68.565617 
Q 426.689688 75.220335 426.689688 79.753732 
" style="fill:none;opacity:0.5;stroke:#0000ff;stroke-linecap:round;stroke-width:3;"/>
    <path d="M 428.189688 78.253732 
L 426.689688 79.753732 
L 425.189688 78.253732 
" style="fill:none;opacity:0.5;stroke:#0000ff;stroke-linecap:round;stroke-width:3;"/>
   </g>
   <g id="patch_29">
    <path clip-path="url(#p4a76ccddf6)" d="M 126.314867 171.069534 
C 127.822634 171.069534 129.268849 170.648737 130.335001 169.899818 
C 131.401153 169.1509 132.000195 168.135006 132.000195 167.075875 
C 132.000195 166.016744 131.401153 165.00085 130.335001 164.251932 
C 129.268849 163.503013 127.822634 163.082216 126.314867 163.082216 
C 124.807101 163.082216 123.360885 163.503013 122.294733 164.251932 
C 121.228581 165.00085 120.629539 166.016744 120.629539 167.075875 
C 120.629539 168.135006 121.228581 169.1509 122.294733 169.899818 
C 123.360885 170.648737 124.807101 171.069534 126.314867 171.069534 
z
" style="fill:#0000ff;opacity:0.2;stroke:#0000ff;stroke-linejoin:miter;"/>
   </g>
   <g id="patch_30">
    <path clip-path="url(#p4a76ccddf6)" d="M 155.689061 169.738314 
C 157.196828 169.738314 158.643043 169.317517 159.709195 168.568599 
C 160.775347 167.81968 161.374389 166.803786 161.374389 165.744655 
C 161.374389 164.685525 160.775347 163.66963 159.709195 162.920712 
C 158.643043 162.171793 157.196828 161.750996 155.689061 161.750996 
C 154.181294 161.750996 152.735079 162.171793 151.668927 162.920712 
C 150.602775 163.66963 150.003733 164.685525 150.003733 165.744655 
C 150.003733 166.803786 150.602775 167.81968 151.668927 168.568599 
C 152.735079 169.317517 154.181294 169.738314 155.689061 169.738314 
z
" style="fill:#ff0000;opacity:0.2;stroke:#ff0000;stroke-linejoin:miter;"/>
   </g>
   <g id="patch_31">
    <path d="M 126.314867 167.075875 
Q 140.003342 166.455522 151.572671 165.931207 
" style="fill:none;opacity:0.5;stroke:#0000ff;stroke-linecap:round;stroke-width:3;"/>
    <path d="M 150.0063 164.500655 
L 151.572671 165.931207 
L 150.142119 167.497579 
" style="fill:none;opacity:0.5;stroke:#0000ff;stroke-linecap:round;stroke-width:3;"/>
   </g>
   <g id="patch_32">
    <path clip-path="url(#p4a76ccddf6)" d="M 126.314867 169.072705 
C 126.566162 169.072705 126.807197 169.002572 126.984889 168.877752 
C 127.162581 168.752932 127.262422 168.583616 127.262422 168.407095 
C 127.262422 168.230573 127.162581 168.061257 126.984889 167.936437 
C 126.807197 167.811618 126.566162 167.741485 126.314867 167.741485 
C 126.063573 167.741485 125.822537 167.811618 125.644845 167.936437 
C 125.467153 168.061257 125.367312 168.230573 125.367312 168.407095 
C 125.367312 168.583616 125.467153 168.752932 125.644845 168.877752 
C 125.822537 169.002572 126.063573 169.072705 126.314867 169.072705 
z
" style="fill:#0000ff;opacity:0.2;stroke:#0000ff;stroke-linejoin:miter;"/>
   </g>
   <g id="patch_33">
    <path clip-path="url(#p4a76ccddf6)" d="M 155.689061 167.741485 
C 155.940355 167.741485 156.181391 167.671352 156.359083 167.546532 
C 156.536775 167.421712 156.636616 167.252397 156.636616 167.075875 
C 156.636616 166.899353 156.536775 166.730038 156.359083 166.605218 
C 156.181391 166.480398 155.940355 166.410265 155.689061 166.410265 
C 155.437767 166.410265 155.196731 166.480398 155.019039 166.605218 
C 154.841347 166.730038 154.741506 166.899353 154.741506 167.075875 
C 154.741506 167.252397 154.841347 167.421712 155.019039 167.546532 
C 155.196731 167.671352 155.437767 167.741485 155.689061 167.741485 
z
" style="fill:#ff0000;opacity:0.2;stroke:#ff0000;stroke-linejoin:miter;"/>
   </g>
   <g id="patch_34">
    <path d="M 126.314867 168.407095 
Q 140.003342 167.786742 153.338626 167.182395 
" style="fill:none;opacity:0.5;stroke:#0000ff;stroke-linecap:round;stroke-width:0.5;"/>
    <path d="M 151.772254 165.751843 
L 153.338626 167.182395 
L 151.908073 168.748767 
" style="fill:none;opacity:0.5;stroke:#0000ff;stroke-linecap:round;stroke-width:0.5;"/>
   </g>
   <g id="patch_35">
    <path clip-path="url(#p4a76ccddf6)" d="M 426.689688 271.576621 
C 428.197455 271.576621 429.64367 271.155824 430.709822 270.406906 
C 431.775974 269.657987 432.375016 268.642093 432.375016 267.582962 
C 432.375016 266.523831 431.775974 265.507937 430.709822 264.759019 
C 429.64367 264.0101 428.197455 263.589303 426.689688 263.589303 
C 425.181922 263.589303 423.735706 264.0101 422.669554 264.759019 
C 421.603402 265.507937 421.00436 266.523831 421.00436 267.582962 
C 421.00436 268.642093 421.603402 269.657987 422.669554 270.406906 
C 423.735706 271.155824 425.181922 271.576621 426.689688 271.576621 
z
" style="fill:#0000ff;opacity:0.2;stroke:#0000ff;stroke-linejoin:miter;"/>
   </g>
   <g id="patch_36">
    <path clip-path="url(#p4a76ccddf6)" d="M 426.689688 253.605155 
C 428.197455 253.605155 429.64367 253.184358 430.709822 252.43544 
C 431.775974 251.686521 432.375016 250.670627 432.375016 249.611496 
C 432.375016 248.552365 431.775974 247.536471 430.709822 246.787553 
C 429.64367 246.038634 428.197455 245.617837 426.689688 245.617837 
C 425.181922 245.617837 423.735706 246.038634 422.669554 246.787553 
C 421.603402 247.536471 421.00436 248.552365 421.00436 249.611496 
C 421.00436 250.670627 421.603402 251.686521 422.669554 252.43544 
C 423.735706 253.184358 425.181922 253.605155 426.689688 253.605155 
z
" style="fill:#ff0000;opacity:0.2;stroke:#ff0000;stroke-linejoin:miter;"/>
   </g>
   <g id="patch_37">
    <path d="M 426.689688 267.582962 
Q 426.689688 259.5954 426.689688 253.729159 
" style="fill:none;opacity:0.5;stroke:#0000ff;stroke-linecap:round;stroke-width:3;"/>
    <path d="M 425.189688 255.229159 
L 426.689688 253.729159 
L 428.189688 255.229159 
" style="fill:none;opacity:0.5;stroke:#0000ff;stroke-linecap:round;stroke-width:3;"/>
   </g>
   <g id="patch_38">
    <path clip-path="url(#p4a76ccddf6)" d="M 426.689688 309.516383 
C 428.197455 309.516383 429.64367 309.095585 430.709822 308.346667 
C 431.775974 307.597748 432.375016 306.581854 432.375016 305.522723 
C 432.375016 304.463593 431.775974 303.447699 430.709822 302.69878 
C 429.64367 301.949862 428.197455 301.529064 426.689688 301.529064 
C 425.181922 301.529064 423.735706 301.949862 422.669554 302.69878 
C 421.603402 303.447699 421.00436 304.463593 421.00436 305.522723 
C 421.00436 306.581854 421.603402 307.597748 422.669554 308.346667 
C 423.735706 309.095585 425.181922 309.516383 426.689688 309.516383 
z
" style="fill:#0000ff;opacity:0.2;stroke:#0000ff;stroke-linejoin:miter;"/>
   </g>
   <g id="patch_39">
    <path clip-path="url(#p4a76ccddf6)" d="M 426.689688 308.185163 
C 428.197455 308.185163 429.64367 307.764366 430.709822 307.015447 
C 431.775974 306.266529 432.375016 305.250635 432.375016 304.191504 
C 432.375016 303.132373 431.775974 302.116479 430.709822 301.36756 
C 429.64367 300.618642 428.197455 300.197845 426.689688 300.197845 
C 425.181922 300.197845 423.735706 300.618642 422.669554 301.36756 
C 421.603402 302.116479 421.00436 303.132373 421.00436 304.191504 
C 421.00436 305.250635 421.603402 306.266529 422.669554 307.015447 
C 423.735706 307.764366 425.181922 308.185163 426.689688 308.185163 
z
" style="fill:#ff0000;opacity:0.2;stroke:#ff0000;stroke-linejoin:miter;"/>
   </g>
   <g id="patch_40">
    <path d="M 426.689688 305.522723 
Q 426.689688 304.857114 426.689688 306.312824 
" style="fill:none;opacity:0.5;stroke:#0000ff;stroke-linecap:round;stroke-width:3;"/>
    <path d="M 425.189688 307.812824 
L 426.689688 306.312824 
L 428.189688 307.812824 
" style="fill:none;opacity:0.5;stroke:#0000ff;stroke-linecap:round;stroke-width:3;"/>
   </g>
   <g id="patch_41">
    <path clip-path="url(#p4a76ccddf6)" d="M 58.090933 187.04417 
C 59.5987 187.04417 61.044915 186.623373 62.111067 185.874455 
C 63.177219 185.125536 63.776261 184.109642 63.776261 183.050511 
C 63.776261 181.991381 63.177219 180.975486 62.111067 180.226568 
C 61.044915 179.477649 59.5987 179.056852 58.090933 179.056852 
C 56.583166 179.056852 55.136951 179.477649 54.070799 180.226568 
C 53.004647 180.975486 52.405605 181.991381 52.405605 183.050511 
C 52.405605 184.109642 53.004647 185.125536 54.070799 185.874455 
C 55.136951 186.623373 56.583166 187.04417 58.090933 187.04417 
z
" style="fill:#0000ff;opacity:0.2;stroke:#0000ff;stroke-linejoin:miter;"/>
   </g>
   <g id="patch_42">
    <path clip-path="url(#p4a76ccddf6)" d="M 58.090933 190.37222 
C 59.5987 190.37222 61.044915 189.951423 62.111067 189.202504 
C 63.177219 188.453585 63.776261 187.437691 63.776261 186.378561 
C 63.776261 185.31943 63.177219 184.303536 62.111067 183.554617 
C 61.044915 182.805699 59.5987 182.384902 58.090933 182.384902 
C 56.583166 182.384902 55.136951 182.805699 54.070799 183.554617 
C 53.004647 184.303536 52.405605 185.31943 52.405605 186.378561 
C 52.405605 187.437691 53.004647 188.453585 54.070799 189.202504 
C 55.136951 189.951423 56.583166 190.37222 58.090933 190.37222 
z
" style="fill:#ff0000;opacity:0.2;stroke:#ff0000;stroke-linejoin:miter;"/>
   </g>
   <g id="patch_43">
    <path d="M 58.090933 183.050511 
Q 58.090933 183.715146 58.090933 182.258461 
" style="fill:none;opacity:0.5;stroke:#0000ff;stroke-linecap:round;stroke-width:3;"/>
    <path d="M 59.590933 180.758461 
L 58.090933 182.258461 
L 56.590933 180.758461 
" style="fill:none;opacity:0.5;stroke:#0000ff;stroke-linecap:round;stroke-width:3;"/>
   </g>
   <g id="patch_44">
    <path clip-path="url(#p4a76ccddf6)" d="M 58.090933 151.434044 
C 59.724347 151.434044 61.29108 150.97818 62.446078 150.166852 
C 63.601076 149.355523 64.250038 148.254971 64.250038 147.10758 
C 64.250038 145.960188 63.601076 144.859636 62.446078 144.048308 
C 61.29108 143.236979 59.724347 142.781116 58.090933 142.781116 
C 56.457519 142.781116 54.890786 143.236979 53.735788 144.048308 
C 52.58079 144.859636 51.931828 145.960188 51.931828 147.10758 
C 51.931828 148.254971 52.58079 149.355523 53.735788 150.166852 
C 54.890786 150.97818 56.457519 151.434044 58.090933 151.434044 
z
" style="fill:#0000ff;opacity:0.2;stroke:#0000ff;stroke-linejoin:miter;"/>
   </g>
   <g id="patch_45">
    <path clip-path="url(#p4a76ccddf6)" d="M 58.090933 157.424532 
C 59.724347 157.424532 61.29108 156.968669 62.446078 156.15734 
C 63.601076 155.346012 64.250038 154.24546 64.250038 153.098068 
C 64.250038 151.950677 63.601076 150.850125 62.446078 150.038796 
C 61.29108 149.227468 59.724347 148.771604 58.090933 148.771604 
C 56.457519 148.771604 54.890786 149.227468 53.735788 150.038796 
C 52.58079 150.850125 51.931828 151.950677 51.931828 153.098068 
C 51.931828 154.24546 52.58079 155.346012 53.735788 156.15734 
C 54.890786 156.968669 56.457519 157.424532 58.090933 157.424532 
z
" style="fill:#ff0000;opacity:0.2;stroke:#ff0000;stroke-linejoin:miter;"/>
   </g>
   <g id="patch_46">
    <path d="M 58.090933 147.10758 
Q 58.090933 149.103922 58.090933 148.802167 
" style="fill:none;opacity:0.5;stroke:#ff0000;stroke-linecap:round;stroke-width:3.25;"/>
    <path d="M 59.590933 147.302167 
L 58.090933 148.802167 
L 56.590933 147.302167 
" style="fill:none;opacity:0.5;stroke:#ff0000;stroke-linecap:round;stroke-width:3.25;"/>
   </g>
   <g id="patch_47">
    <path clip-path="url(#p4a76ccddf6)" d="M 426.689688 32.289881 
C 428.071808 32.289881 429.397505 31.90415 430.374811 31.217641 
C 431.352117 30.531133 431.901239 29.599896 431.901239 28.629027 
C 431.901239 27.658157 431.352117 26.72692 430.374811 26.040412 
C 429.397505 25.353903 428.071808 24.968172 426.689688 24.968172 
C 425.307569 24.968172 423.981872 25.353903 423.004566 26.040412 
C 422.02726 26.72692 421.478138 27.658157 421.478138 28.629027 
C 421.478138 29.599896 422.02726 30.531133 423.004566 31.217641 
C 423.981872 31.90415 425.307569 32.289881 426.689688 32.289881 
z
" style="fill:#0000ff;opacity:0.2;stroke:#0000ff;stroke-linejoin:miter;"/>
   </g>
   <g id="patch_48">
    <path clip-path="url(#p4a76ccddf6)" d="M 426.689688 33.6211 
C 428.071808 33.6211 429.397505 33.23537 430.374811 32.548861 
C 431.352117 31.862352 431.901239 30.931116 431.901239 29.960246 
C 431.901239 28.989376 431.352117 28.05814 430.374811 27.371631 
C 429.397505 26.685123 428.071808 26.299392 426.689688 26.299392 
C 425.307569 26.299392 423.981872 26.685123 423.004566 27.371631 
C 422.02726 28.05814 421.478138 28.989376 421.478138 29.960246 
C 421.478138 30.931116 422.02726 31.862352 423.004566 32.548861 
C 423.981872 33.23537 425.307569 33.6211 426.689688 33.6211 
z
" style="fill:#ff0000;opacity:0.2;stroke:#ff0000;stroke-linejoin:miter;"/>
   </g>
   <g id="patch_49">
    <path d="M 426.689688 28.629027 
Q 426.689688 29.294636 426.689688 28.015703 
" style="fill:none;opacity:0.5;stroke:#ff0000;stroke-linecap:round;stroke-width:2.75;"/>
    <path d="M 428.189688 26.515703 
L 426.689688 28.015703 
L 425.189688 26.515703 
" style="fill:none;opacity:0.5;stroke:#ff0000;stroke-linecap:round;stroke-width:2.75;"/>
   </g>
   <g id="patch_50">
    <path clip-path="url(#p4a76ccddf6)" d="M 426.689688 87.868303 
C 428.197455 87.868303 429.64367 87.447506 430.709822 86.698587 
C 431.775974 85.949669 432.375016 84.933775 432.375016 83.874644 
C 432.375016 82.815513 431.775974 81.799619 430.709822 81.050701 
C 429.64367 80.301782 428.197455 79.880985 426.689688 79.880985 
C 425.181922 79.880985 423.735706 80.301782 422.669554 81.050701 
C 421.603402 81.799619 421.00436 82.815513 421.00436 83.874644 
C 421.00436 84.933775 421.603402 85.949669 422.669554 86.698587 
C 423.735706 87.447506 425.181922 87.868303 426.689688 87.868303 
z
" style="fill:#0000ff;opacity:0.2;stroke:#0000ff;stroke-linejoin:miter;"/>
   </g>
   <g id="patch_51">
    <path clip-path="url(#p4a76ccddf6)" d="M 426.689688 72.559277 
C 428.197455 72.559277 429.64367 72.138479 430.709822 71.389561 
C 431.775974 70.640642 432.375016 69.624748 432.375016 68.565617 
C 432.375016 67.506487 431.775974 66.490593 430.709822 65.741674 
C 429.64367 64.992755 428.197455 64.571958 426.689688 64.571958 
C 425.181922 64.571958 423.735706 64.992755 422.669554 65.741674 
C 421.603402 66.490593 421.00436 67.506487 421.00436 68.565617 
C 421.00436 69.624748 421.603402 70.640642 422.669554 71.389561 
C 423.735706 72.138479 425.181922 72.559277 426.689688 72.559277 
z
" style="fill:#ff0000;opacity:0.2;stroke:#ff0000;stroke-linejoin:miter;"/>
   </g>
   <g id="patch_52">
    <path d="M 426.689688 83.874644 
Q 426.689688 77.219927 426.689688 72.68653 
" style="fill:none;opacity:0.5;stroke:#ff0000;stroke-linecap:round;stroke-width:3;"/>
    <path d="M 425.189688 74.18653 
L 426.689688 72.68653 
L 428.189688 74.18653 
" style="fill:none;opacity:0.5;stroke:#ff0000;stroke-linecap:round;stroke-width:3;"/>
   </g>
   <g id="patch_53">
    <path clip-path="url(#p4a76ccddf6)" d="M 155.689061 169.738314 
C 157.196828 169.738314 158.643043 169.317517 159.709195 168.568599 
C 160.775347 167.81968 161.374389 166.803786 161.374389 165.744655 
C 161.374389 164.685525 160.775347 163.66963 159.709195 162.920712 
C 158.643043 162.171793 157.196828 161.750996 155.689061 161.750996 
C 154.181294 161.750996 152.735079 162.171793 151.668927 162.920712 
C 150.602775 163.66963 150.003733 164.685525 150.003733 165.744655 
C 150.003733 166.803786 150.602775 167.81968 151.668927 168.568599 
C 152.735079 169.317517 154.181294 169.738314 155.689061 169.738314 
z
" style="fill:#0000ff;opacity:0.2;stroke:#0000ff;stroke-linejoin:miter;"/>
   </g>
   <g id="patch_54">
    <path clip-path="url(#p4a76ccddf6)" d="M 126.314867 171.069534 
C 127.822634 171.069534 129.268849 170.648737 130.335001 169.899818 
C 131.401153 169.1509 132.000195 168.135006 132.000195 167.075875 
C 132.000195 166.016744 131.401153 165.00085 130.335001 164.251932 
C 129.268849 163.503013 127.822634 163.082216 126.314867 163.082216 
C 124.807101 163.082216 123.360885 163.503013 122.294733 164.251932 
C 121.228581 165.00085 120.629539 166.016744 120.629539 167.075875 
C 120.629539 168.135006 121.228581 169.1509 122.294733 169.899818 
C 123.360885 170.648737 124.807101 171.069534 126.314867 171.069534 
z
" style="fill:#ff0000;opacity:0.2;stroke:#ff0000;stroke-linejoin:miter;"/>
   </g>
   <g id="patch_55">
    <path d="M 155.689061 165.744655 
Q 142.000586 166.365008 130.431257 166.889323 
" style="fill:none;opacity:0.5;stroke:#ff0000;stroke-linecap:round;stroke-width:3;"/>
    <path d="M 131.997628 168.319875 
L 130.431257 166.889323 
L 131.861809 165.322952 
" style="fill:none;opacity:0.5;stroke:#ff0000;stroke-linecap:round;stroke-width:3;"/>
   </g>
   <g id="patch_56">
    <path clip-path="url(#p4a76ccddf6)" d="M 155.689061 167.741485 
C 155.940355 167.741485 156.181391 167.671352 156.359083 167.546532 
C 156.536775 167.421712 156.636616 167.252397 156.636616 167.075875 
C 156.636616 166.899353 156.536775 166.730038 156.359083 166.605218 
C 156.181391 166.480398 155.940355 166.410265 155.689061 166.410265 
C 155.437767 166.410265 155.196731 166.480398 155.019039 166.605218 
C 154.841347 166.730038 154.741506 166.899353 154.741506 167.075875 
C 154.741506 167.252397 154.841347 167.421712 155.019039 167.546532 
C 155.196731 167.671352 155.437767 167.741485 155.689061 167.741485 
z
" style="fill:#0000ff;opacity:0.2;stroke:#0000ff;stroke-linejoin:miter;"/>
   </g>
   <g id="patch_57">
    <path clip-path="url(#p4a76ccddf6)" d="M 126.314867 169.072705 
C 126.566162 169.072705 126.807197 169.002572 126.984889 168.877752 
C 127.162581 168.752932 127.262422 168.583616 127.262422 168.407095 
C 127.262422 168.230573 127.162581 168.061257 126.984889 167.936437 
C 126.807197 167.811618 126.566162 167.741485 126.314867 167.741485 
C 126.063573 167.741485 125.822537 167.811618 125.644845 167.936437 
C 125.467153 168.061257 125.367312 168.230573 125.367312 168.407095 
C 125.367312 168.583616 125.467153 168.752932 125.644845 168.877752 
C 125.822537 169.002572 126.063573 169.072705 126.314867 169.072705 
z
" style="fill:#ff0000;opacity:0.2;stroke:#ff0000;stroke-linejoin:miter;"/>
   </g>
   <g id="patch_58">
    <path d="M 155.689061 167.075875 
Q 142.000586 167.696228 128.665302 168.300574 
" style="fill:none;opacity:0.5;stroke:#ff0000;stroke-linecap:round;stroke-width:0.5;"/>
    <path d="M 130.231674 169.731127 
L 128.665302 168.300574 
L 130.095855 166.734203 
" style="fill:none;opacity:0.5;stroke:#ff0000;stroke-linecap:round;stroke-width:0.5;"/>
   </g>
   <g id="patch_59">
    <path clip-path="url(#p4a76ccddf6)" d="M 426.689688 253.605155 
C 428.197455 253.605155 429.64367 253.184358 430.709822 252.43544 
C 431.775974 251.686521 432.375016 250.670627 432.375016 249.611496 
C 432.375016 248.552365 431.775974 247.536471 430.709822 246.787553 
C 429.64367 246.038634 428.197455 245.617837 426.689688 245.617837 
C 425.181922 245.617837 423.735706 246.038634 422.669554 246.787553 
C 421.603402 247.536471 421.00436 248.552365 421.00436 249.611496 
C 421.00436 250.670627 421.603402 251.686521 422.669554 252.43544 
C 423.735706 253.184358 425.181922 253.605155 426.689688 253.605155 
z
" style="fill:#0000ff;opacity:0.2;stroke:#0000ff;stroke-linejoin:miter;"/>
   </g>
   <g id="patch_60">
    <path clip-path="url(#p4a76ccddf6)" d="M 426.689688 271.576621 
C 428.197455 271.576621 429.64367 271.155824 430.709822 270.406906 
C 431.775974 269.657987 432.375016 268.642093 432.375016 267.582962 
C 432.375016 266.523831 431.775974 265.507937 430.709822 264.759019 
C 429.64367 264.0101 428.197455 263.589303 426.689688 263.589303 
C 425.181922 263.589303 423.735706 264.0101 422.669554 264.759019 
C 421.603402 265.507937 421.00436 266.523831 421.00436 267.582962 
C 421.00436 268.642093 421.603402 269.657987 422.669554 270.406906 
C 423.735706 271.155824 425.181922 271.576621 426.689688 271.576621 
z
" style="fill:#ff0000;opacity:0.2;stroke:#ff0000;stroke-linejoin:miter;"/>
   </g>
   <g id="patch_61">
    <path d="M 426.689688 249.611496 
Q 426.689688 257.599058 426.689688 263.4653 
" style="fill:none;opacity:0.5;stroke:#ff0000;stroke-linecap:round;stroke-width:3;"/>
    <path d="M 428.189688 261.9653 
L 426.689688 263.4653 
L 425.189688 261.9653 
" style="fill:none;opacity:0.5;stroke:#ff0000;stroke-linecap:round;stroke-width:3;"/>
   </g>
   <g id="patch_62">
    <path clip-path="url(#p4a76ccddf6)" d="M 426.689688 308.185163 
C 428.197455 308.185163 429.64367 307.764366 430.709822 307.015447 
C 431.775974 306.266529 432.375016 305.250635 432.375016 304.191504 
C 432.375016 303.132373 431.775974 302.116479 430.709822 301.36756 
C 429.64367 300.618642 428.197455 300.197845 426.689688 300.197845 
C 425.181922 300.197845 423.735706 300.618642 422.669554 301.36756 
C 421.603402 302.116479 421.00436 303.132373 421.00436 304.191504 
C 421.00436 305.250635 421.603402 306.266529 422.669554 307.015447 
C 423.735706 307.764366 425.181922 308.185163 426.689688 308.185163 
z
" style="fill:#0000ff;opacity:0.2;stroke:#0000ff;stroke-linejoin:miter;"/>
   </g>
   <g id="patch_63">
    <path clip-path="url(#p4a76ccddf6)" d="M 426.689688 309.516383 
C 428.197455 309.516383 429.64367 309.095585 430.709822 308.346667 
C 431.775974 307.597748 432.375016 306.581854 432.375016 305.522723 
C 432.375016 304.463593 431.775974 303.447699 430.709822 302.69878 
C 429.64367 301.949862 428.197455 301.529064 426.689688 301.529064 
C 425.181922 301.529064 423.735706 301.949862 422.669554 302.69878 
C 421.603402 303.447699 421.00436 304.463593 421.00436 305.522723 
C 421.00436 306.581854 421.603402 307.597748 422.669554 308.346667 
C 423.735706 309.095585 425.181922 309.516383 426.689688 309.516383 
z
" style="fill:#ff0000;opacity:0.2;stroke:#ff0000;stroke-linejoin:miter;"/>
   </g>
   <g id="patch_64">
    <path d="M 426.689688 304.191504 
Q 426.689688 304.857114 426.689688 303.401403 
" style="fill:none;opacity:0.5;stroke:#ff0000;stroke-linecap:round;stroke-width:3;"/>
    <path d="M 428.189688 301.901403 
L 426.689688 303.401403 
L 425.189688 301.901403 
" style="fill:none;opacity:0.5;stroke:#ff0000;stroke-linecap:round;stroke-width:3;"/>
   </g>
   <g id="patch_65">
    <path clip-path="url(#p4a76ccddf6)" d="M 58.090933 190.37222 
C 59.5987 190.37222 61.044915 189.951423 62.111067 189.202504 
C 63.177219 188.453585 63.776261 187.437691 63.776261 186.378561 
C 63.776261 185.31943 63.177219 184.303536 62.111067 183.554617 
C 61.044915 182.805699 59.5987 182.384902 58.090933 182.384902 
C 56.583166 182.384902 55.136951 182.805699 54.070799 183.554617 
C 53.004647 184.303536 52.405605 185.31943 52.405605 186.378561 
C 52.405605 187.437691 53.004647 188.453585 54.070799 189.202504 
C 55.136951 189.951423 56.583166 190.37222 58.090933 190.37222 
z
" style="fill:#0000ff;opacity:0.2;stroke:#0000ff;stroke-linejoin:miter;"/>
   </g>
   <g id="patch_66">
    <path clip-path="url(#p4a76ccddf6)" d="M 58.090933 187.04417 
C 59.5987 187.04417 61.044915 186.623373 62.111067 185.874455 
C 63.177219 185.125536 63.776261 184.109642 63.776261 183.050511 
C 63.776261 181.991381 63.177219 180.975486 62.111067 180.226568 
C 61.044915 179.477649 59.5987 179.056852 58.090933 179.056852 
C 56.583166 179.056852 55.136951 179.477649 54.070799 180.226568 
C 53.004647 180.975486 52.405605 181.991381 52.405605 183.050511 
C 52.405605 184.109642 53.004647 185.125536 54.070799 185.874455 
C 55.136951 186.623373 56.583166 187.04417 58.090933 187.04417 
z
" style="fill:#ff0000;opacity:0.2;stroke:#ff0000;stroke-linejoin:miter;"/>
   </g>
   <g id="patch_67">
    <path d="M 58.090933 186.378561 
Q 58.090933 185.713926 58.090933 187.170611 
" style="fill:none;opacity:0.5;stroke:#ff0000;stroke-linecap:round;stroke-width:3;"/>
    <path d="M 56.590933 188.670611 
L 58.090933 187.170611 
L 59.590933 188.670611 
" style="fill:none;opacity:0.5;stroke:#ff0000;stroke-linecap:round;stroke-width:3;"/>
   </g>
   <g id="patch_68">
    <path clip-path="url(#p4a76ccddf6)" d="M 58.090933 153.430873 
C 59.347405 153.430873 60.552585 153.080209 61.441045 152.45611 
C 62.329505 151.832011 62.828706 150.985433 62.828706 150.102824 
C 62.828706 149.220215 62.329505 148.373636 61.441045 147.749538 
C 60.552585 147.125439 59.347405 146.774775 58.090933 146.774775 
C 56.834461 146.774775 55.629281 147.125439 54.740821 147.749538 
C 53.852361 148.373636 53.35316 149.220215 53.35316 150.102824 
C 53.35316 150.985433 53.852361 151.832011 54.740821 152.45611 
C 55.629281 153.080209 56.834461 153.430873 58.090933 153.430873 
z
" style="fill:#008000;opacity:0.2;stroke:#008000;stroke-linejoin:miter;"/>
   </g>
   <g id="patch_69">
    <path clip-path="url(#p4a76ccddf6)" d="M 426.689688 32.622686 
C 427.94616 32.622686 429.15134 32.272021 430.0398 31.647923 
C 430.92826 31.023824 431.427461 30.177245 431.427461 29.294636 
C 431.427461 28.412027 430.92826 27.565449 430.0398 26.94135 
C 429.15134 26.317251 427.94616 25.966587 426.689688 25.966587 
C 425.433216 25.966587 424.228037 26.317251 423.339577 26.94135 
C 422.451117 27.565449 421.951915 28.412027 421.951915 29.294636 
C 421.951915 30.177245 422.451117 31.023824 423.339577 31.647923 
C 424.228037 32.272021 425.433216 32.622686 426.689688 32.622686 
z
" style="fill:#008000;opacity:0.2;stroke:#008000;stroke-linejoin:miter;"/>
   </g>
   <g id="patch_70">
    <path clip-path="url(#p4a76ccddf6)" d="M 426.689688 79.54818 
C 427.94616 79.54818 429.15134 79.197516 430.0398 78.573417 
C 430.92826 77.949318 431.427461 77.10274 431.427461 76.220131 
C 431.427461 75.337522 430.92826 74.490943 430.0398 73.866844 
C 429.15134 73.242746 427.94616 72.892081 426.689688 72.892081 
C 425.433216 72.892081 424.228037 73.242746 423.339577 73.866844 
C 422.451117 74.490943 421.951915 75.337522 421.951915 76.220131 
C 421.951915 77.10274 422.451117 77.949318 423.339577 78.573417 
C 424.228037 79.197516 425.433216 79.54818 426.689688 79.54818 
z
" style="fill:#008000;opacity:0.2;stroke:#008000;stroke-linejoin:miter;"/>
   </g>
   <g id="patch_71">
    <path clip-path="url(#p4a76ccddf6)" d="M 141.001964 169.738314 
C 142.258436 169.738314 143.463616 169.38765 144.352076 168.763551 
C 145.240536 168.139453 145.739737 167.292874 145.739737 166.410265 
C 145.739737 165.527656 145.240536 164.681078 144.352076 164.056979 
C 143.463616 163.43288 142.258436 163.082216 141.001964 163.082216 
C 139.745492 163.082216 138.540312 163.43288 137.651852 164.056979 
C 136.763393 164.681078 136.264191 165.527656 136.264191 166.410265 
C 136.264191 167.292874 136.763393 168.139453 137.651852 168.763551 
C 138.540312 169.38765 139.745492 169.738314 141.001964 169.738314 
z
" style="fill:#008000;opacity:0.2;stroke:#008000;stroke-linejoin:miter;"/>
   </g>
   <g id="patch_72">
    <path clip-path="url(#p4a76ccddf6)" d="M 141.001964 171.069534 
C 142.258436 171.069534 143.463616 170.71887 144.352076 170.094771 
C 145.240536 169.470672 145.739737 168.624094 145.739737 167.741485 
C 145.739737 166.858876 145.240536 166.012297 144.352076 165.388199 
C 143.463616 164.7641 142.258436 164.413436 141.001964 164.413436 
C 139.745492 164.413436 138.540312 164.7641 137.651852 165.388199 
C 136.763393 166.012297 136.264191 166.858876 136.264191 167.741485 
C 136.264191 168.624094 136.763393 169.470672 137.651852 170.094771 
C 138.540312 170.71887 139.745492 171.069534 141.001964 171.069534 
z
" style="fill:#008000;opacity:0.2;stroke:#008000;stroke-linejoin:miter;"/>
   </g>
   <g id="patch_73">
    <path clip-path="url(#p4a76ccddf6)" d="M 426.689688 261.925278 
C 427.94616 261.925278 429.15134 261.574614 430.0398 260.950515 
C 430.92826 260.326417 431.427461 259.479838 431.427461 258.597229 
C 431.427461 257.71462 430.92826 256.868042 430.0398 256.243943 
C 429.15134 255.619844 427.94616 255.26918 426.689688 255.26918 
C 425.433216 255.26918 424.228037 255.619844 423.339577 256.243943 
C 422.451117 256.868042 421.951915 257.71462 421.951915 258.597229 
C 421.951915 259.479838 422.451117 260.326417 423.339577 260.950515 
C 424.228037 261.574614 425.433216 261.925278 426.689688 261.925278 
z
" style="fill:#008000;opacity:0.2;stroke:#008000;stroke-linejoin:miter;"/>
   </g>
   <g id="patch_74">
    <path clip-path="url(#p4a76ccddf6)" d="M 426.689688 308.185163 
C 427.94616 308.185163 429.15134 307.834499 430.0398 307.2104 
C 430.92826 306.586301 431.427461 305.739723 431.427461 304.857114 
C 431.427461 303.974505 430.92826 303.127926 430.0398 302.503827 
C 429.15134 301.879729 427.94616 301.529064 426.689688 301.529064 
C 425.433216 301.529064 424.228037 301.879729 423.339577 302.503827 
C 422.451117 303.127926 421.951915 303.974505 421.951915 304.857114 
C 421.951915 305.739723 422.451117 306.586301 423.339577 307.2104 
C 424.228037 307.834499 425.433216 308.185163 426.689688 308.185163 
z
" style="fill:#008000;opacity:0.2;stroke:#008000;stroke-linejoin:miter;"/>
   </g>
   <g id="patch_75">
    <path clip-path="url(#p4a76ccddf6)" d="M 58.090933 188.042585 
C 59.347405 188.042585 60.552585 187.691921 61.441045 187.067822 
C 62.329505 186.443723 62.828706 185.597145 62.828706 184.714536 
C 62.828706 183.831927 62.329505 182.985349 61.441045 182.36125 
C 60.552585 181.737151 59.347405 181.386487 58.090933 181.386487 
C 56.834461 181.386487 55.629281 181.737151 54.740821 182.36125 
C 53.852361 182.985349 53.35316 183.831927 53.35316 184.714536 
C 53.35316 185.597145 53.852361 186.443723 54.740821 187.067822 
C 55.629281 187.691921 56.834461 188.042585 58.090933 188.042585 
z
" style="fill:#008000;opacity:0.2;stroke:#008000;stroke-linejoin:miter;"/>
   </g>
   <g id="patch_76">
    <path d="M 58.090933 150.102824 
Q 242.390311 89.69873 426.689688 29.294636 
" style="fill:none;opacity:0.5;stroke:#008000;stroke-linecap:round;stroke-width:2;"/>
   </g>
   <g id="patch_77">
    <path d="M 58.090933 151.683855 
Q 58.090933 151.101726 58.090933 150.519598 
" style="fill:none;opacity:0.5;stroke:#800080;stroke-linecap:round;stroke-width:2;"/>
    <path d="M 59.590933 150.183855 
L 58.090933 151.683855 
L 56.590933 150.183855 
" style="fill:none;opacity:0.5;stroke:#800080;stroke-linecap:round;stroke-width:2;"/>
    <path d="M 56.590933 152.019598 
L 58.090933 150.519598 
L 59.590933 152.019598 
" style="fill:none;opacity:0.5;stroke:#800080;stroke-linecap:round;stroke-width:2;"/>
   </g>
   <g id="patch_78">
    <path d="M 426.689688 29.294636 
Q 426.689688 52.757384 426.689688 76.220131 
" style="fill:none;opacity:0.5;stroke:#008000;stroke-linecap:round;stroke-width:2;"/>
   </g>
   <g id="patch_79">
    <path d="M 426.689688 28.546033 
Q 426.689688 29.294636 426.689688 30.04324 
" style="fill:none;opacity:0.5;stroke:#800080;stroke-linecap:round;stroke-width:2;"/>
    <path d="M 428.189688 27.046033 
L 426.689688 28.546033 
L 425.189688 27.046033 
" style="fill:none;opacity:0.5;stroke:#800080;stroke-linecap:round;stroke-width:2;"/>
    <path d="M 425.189688 31.54324 
L 426.689688 30.04324 
L 428.189688 31.54324 
" style="fill:none;opacity:0.5;stroke:#800080;stroke-linecap:round;stroke-width:2;"/>
   </g>
   <g id="patch_80">
    <path d="M 426.689688 76.220131 
Q 283.845826 121.315198 141.001964 166.410265 
" style="fill:none;opacity:0.5;stroke:#008000;stroke-linecap:round;stroke-width:2;"/>
   </g>
   <g id="patch_81">
    <path d="M 426.689688 69.979831 
Q 426.689688 75.220335 426.689688 80.460838 
" style="fill:none;opacity:0.5;stroke:#800080;stroke-linecap:round;stroke-width:2;"/>
    <path d="M 425.189688 71.479831 
L 426.689688 69.979831 
L 428.189688 71.479831 
" style="fill:none;opacity:0.5;stroke:#800080;stroke-linecap:round;stroke-width:2;"/>
    <path d="M 428.189688 78.960838 
L 426.689688 80.460838 
L 425.189688 78.960838 
" style="fill:none;opacity:0.5;stroke:#800080;stroke-linecap:round;stroke-width:2;"/>
   </g>
   <g id="patch_82">
    <path d="M 141.001964 166.410265 
Q 141.001964 167.075875 141.001964 167.741485 
" style="fill:none;opacity:0.5;stroke:#008000;stroke-linecap:round;stroke-width:2;"/>
   </g>
   <g id="patch_83">
    <path d="M 127.727631 167.011849 
Q 140.003342 166.455522 152.279053 165.899195 
" style="fill:none;opacity:0.5;stroke:#800080;stroke-linecap:round;stroke-width:2;"/>
    <path d="M 129.294002 168.442402 
L 127.727631 167.011849 
L 129.158183 165.445478 
" style="fill:none;opacity:0.5;stroke:#800080;stroke-linecap:round;stroke-width:2;"/>
    <path d="M 150.712682 164.468642 
L 152.279053 165.899195 
L 150.8485 167.465566 
" style="fill:none;opacity:0.5;stroke:#800080;stroke-linecap:round;stroke-width:2;"/>
   </g>
   <g id="patch_84">
    <path d="M 141.001964 167.741485 
Q 141.001964 167.741485 141.001964 167.741485 
" style="fill:none;opacity:0.5;stroke:#008000;stroke-linecap:round;stroke-width:2;"/>
   </g>
   <g id="patch_85">
    <path d="M 127.727631 168.343069 
Q 140.003342 167.786742 152.279053 167.230414 
" style="fill:none;opacity:0.5;stroke:#800080;stroke-linecap:round;stroke-width:2;"/>
    <path d="M 129.294002 169.773622 
L 127.727631 168.343069 
L 129.158183 166.776698 
" style="fill:none;opacity:0.5;stroke:#800080;stroke-linecap:round;stroke-width:2;"/>
    <path d="M 150.712682 165.799862 
L 152.279053 167.230414 
L 150.8485 168.796786 
" style="fill:none;opacity:0.5;stroke:#800080;stroke-linecap:round;stroke-width:2;"/>
   </g>
   <g id="patch_86">
    <path d="M 141.001964 167.741485 
Q 283.845826 213.169357 426.689688 258.597229 
" style="fill:none;opacity:0.5;stroke:#008000;stroke-linecap:round;stroke-width:2;"/>
   </g>
   <g id="patch_87">
    <path d="M 127.727631 168.343069 
Q 140.003342 167.786742 152.279053 167.230414 
" style="fill:none;opacity:0.5;stroke:#800080;stroke-linecap:round;stroke-width:2;"/>
    <path d="M 129.294002 169.773622 
L 127.727631 168.343069 
L 129.158183 166.776698 
" style="fill:none;opacity:0.5;stroke:#800080;stroke-linecap:round;stroke-width:2;"/>
    <path d="M 150.712682 165.799862 
L 152.279053 167.230414 
L 150.8485 168.796786 
" style="fill:none;opacity:0.5;stroke:#800080;stroke-linecap:round;stroke-width:2;"/>
   </g>
   <g id="patch_88">
    <path d="M 426.689688 258.597229 
Q 426.689688 281.727171 426.689688 304.857114 
" style="fill:none;opacity:0.5;stroke:#008000;stroke-linecap:round;stroke-width:2;"/>
   </g>
   <g id="patch_89">
    <path d="M 426.689688 266.168749 
Q 426.689688 259.5954 426.689688 253.022052 
" style="fill:none;opacity:0.5;stroke:#800080;stroke-linecap:round;stroke-width:2;"/>
    <path d="M 428.189688 264.668749 
L 426.689688 266.168749 
L 425.189688 264.668749 
" style="fill:none;opacity:0.5;stroke:#800080;stroke-linecap:round;stroke-width:2;"/>
    <path d="M 425.189688 254.522052 
L 426.689688 253.022052 
L 428.189688 254.522052 
" style="fill:none;opacity:0.5;stroke:#800080;stroke-linecap:round;stroke-width:2;"/>
   </g>
   <g id="patch_90">
    <path d="M 426.689688 304.857114 
Q 242.390311 244.785825 58.090933 184.714536 
" style="fill:none;opacity:0.5;stroke:#008000;stroke-linecap:round;stroke-width:2;"/>
   </g>
   <g id="patch_91">
    <path d="M 426.689688 304.10851 
Q 426.689688 304.857114 426.689688 305.605717 
" style="fill:none;opacity:0.5;stroke:#800080;stroke-linecap:round;stroke-width:2;"/>
    <path d="M 428.189688 302.60851 
L 426.689688 304.10851 
L 425.189688 302.60851 
" style="fill:none;opacity:0.5;stroke:#800080;stroke-linecap:round;stroke-width:2;"/>
    <path d="M 425.189688 307.105717 
L 426.689688 305.605717 
L 428.189688 307.105717 
" style="fill:none;opacity:0.5;stroke:#800080;stroke-linecap:round;stroke-width:2;"/>
   </g>
   <g id="patch_92">
    <path d="M 58.090933 184.714536 
Q 58.090933 167.40868 58.090933 150.102824 
" style="fill:none;opacity:0.5;stroke:#008000;stroke-linecap:round;stroke-width:2;"/>
   </g>
   <g id="patch_93">
    <path d="M 58.090933 184.464725 
Q 58.090933 183.715146 58.090933 182.965567 
" style="fill:none;opacity:0.5;stroke:#800080;stroke-linecap:round;stroke-width:2;"/>
    <path d="M 56.590933 185.964725 
L 58.090933 184.464725 
L 59.590933 185.964725 
" style="fill:none;opacity:0.5;stroke:#800080;stroke-linecap:round;stroke-width:2;"/>
    <path d="M 59.590933 181.465567 
L 58.090933 182.965567 
L 56.590933 181.465567 
" style="fill:none;opacity:0.5;stroke:#800080;stroke-linecap:round;stroke-width:2;"/>
   </g>
   <g id="line2d_1">
    <path clip-path="url(#p4a76ccddf6)" d="M 58.090933 153.098068 
L 426.689688 29.960246 
L 426.689688 68.565617 
L 126.314867 167.075875 
L 126.314867 168.407095 
L 426.689688 267.582962 
L 426.689688 305.522723 
L 58.090933 183.050511 
" style="fill:none;stroke:#ff0000;stroke-linecap:square;stroke-width:0.2;"/>
   </g>
   <g id="line2d_2">
    <path clip-path="url(#p4a76ccddf6)" d="M 58.090933 147.10758 
L 426.689688 28.629027 
L 426.689688 83.874644 
L 155.689061 165.744655 
L 155.689061 167.075875 
L 426.689688 249.611496 
L 426.689688 304.191504 
L 58.090933 186.378561 
" style="fill:none;stroke:#0000ff;stroke-linecap:square;stroke-width:0.2;"/>
   </g>
  </g>
 </g>
 <defs>
  <clipPath id="p4a76ccddf6">
   <rect height="307.51175" width="409.627871" x="37.576375" y="13.32"/>
  </clipPath>
 </defs>
</svg>
