<?xml version="1.0" encoding="utf-8" standalone="no"?>
<!DOCTYPE svg PUBLIC "-//W3C//DTD SVG 1.1//EN"
  "http://www.w3.org/Graphics/SVG/1.1/DTD/svg11.dtd">
<!-- Created with matplotlib (http://matplotlib.org/) -->
<svg height="345.6pt" version="1.1" viewBox="0 0 460.8 345.6" width="460.8pt" xmlns="http://www.w3.org/2000/svg" xmlns:xlink="http://www.w3.org/1999/xlink">
 <defs>
  <style type="text/css">
*{stroke-linecap:butt;stroke-linejoin:round;}
  </style>
 </defs>
 <g id="figure_1">
  <g id="patch_1">
   <path d="M 0 345.6 
L 460.8 345.6 
L 460.8 0 
L 0 0 
z
" style="fill:#ffffff;"/>
  </g>
  <g id="axes_1">
   <g id="patch_2">
    <path clip-path="url(#pbe405c738d)" d="M 246.721881 38.32877 
C 247.145569 38.32877 247.551961 38.195937 247.851554 37.959525 
C 248.151146 37.723114 248.319479 37.402426 248.319479 37.068089 
C 248.319479 36.733752 248.151146 36.413064 247.851554 36.176652 
C 247.551961 35.940241 247.145569 35.807407 246.721881 35.807407 
C 246.298194 35.807407 245.891802 35.940241 245.592209 36.176652 
C 245.292617 36.413064 245.124284 36.733752 245.124284 37.068089 
C 245.124284 37.402426 245.292617 37.723114 245.592209 37.959525 
C 245.891802 38.195937 246.298194 38.32877 246.721881 38.32877 
z
" style="fill:#ff0000;opacity:0.2;stroke:#ff0000;stroke-linejoin:miter;"/>
   </g>
   <g id="patch_3">
    <path clip-path="url(#pbe405c738d)" d="M 408.878046 168.809312 
C 409.301734 168.809312 409.708126 168.676479 410.007718 168.440067 
C 410.307311 168.203655 410.475644 167.882967 410.475644 167.548631 
C 410.475644 167.214294 410.307311 166.893606 410.007718 166.657194 
C 409.708126 166.420782 409.301734 166.287949 408.878046 166.287949 
C 408.454358 166.287949 408.047966 166.420782 407.748374 166.657194 
C 407.448781 166.893606 407.280448 167.214294 407.280448 167.548631 
C 407.280448 167.882967 407.448781 168.203655 407.748374 168.440067 
C 408.047966 168.676479 408.454358 168.809312 408.878046 168.809312 
z
" style="fill:#ff0000;opacity:0.2;stroke:#ff0000;stroke-linejoin:miter;"/>
   </g>
   <g id="patch_4">
    <path clip-path="url(#pbe405c738d)" d="M 240.331491 304.33258 
C 240.755179 304.33258 241.16157 304.199747 241.461163 303.963335 
C 241.760755 303.726923 241.929088 303.406235 241.929088 303.071898 
C 241.929088 302.737562 241.760755 302.416874 241.461163 302.180462 
C 241.16157 301.94405 240.755179 301.811217 240.331491 301.811217 
C 239.907803 301.811217 239.501411 301.94405 239.201819 302.180462 
C 238.902226 302.416874 238.733893 302.737562 238.733893 303.071898 
C 238.733893 303.406235 238.902226 303.726923 239.201819 303.963335 
C 239.501411 304.199747 239.907803 304.33258 240.331491 304.33258 
z
" style="fill:#ff0000;opacity:0.2;stroke:#ff0000;stroke-linejoin:miter;"/>
   </g>
   <g id="patch_5">
    <path clip-path="url(#pbe405c738d)" d="M 76.577728 174.482379 
C 77.001416 174.482379 77.407808 174.349546 77.707401 174.113134 
C 78.006993 173.876722 78.175326 173.556034 78.175326 173.221698 
C 78.175326 172.887361 78.006993 172.566673 77.707401 172.330261 
C 77.407808 172.093849 77.001416 171.961016 76.577728 171.961016 
C 76.154041 171.961016 75.747649 172.093849 75.448056 172.330261 
C 75.148464 172.566673 74.980131 172.887361 74.980131 173.221698 
C 74.980131 173.556034 75.148464 173.876722 75.448056 174.113134 
C 75.747649 174.349546 76.154041 174.482379 76.577728 174.482379 
z
" style="fill:#ff0000;opacity:0.2;stroke:#ff0000;stroke-linejoin:miter;"/>
   </g>
   <g id="patch_6">
    <path clip-path="url(#pbe405c738d)" d="M 240.331491 302.441558 
C 240.755179 302.441558 241.16157 302.308724 241.461163 302.072313 
C 241.760755 301.835901 241.929088 301.515213 241.929088 301.180876 
C 241.929088 300.846539 241.760755 300.525851 241.461163 300.28944 
C 241.16157 300.053028 240.755179 299.920195 240.331491 299.920195 
C 239.907803 299.920195 239.501411 300.053028 239.201819 300.28944 
C 238.902226 300.525851 238.733893 300.846539 238.733893 301.180876 
C 238.733893 301.515213 238.902226 301.835901 239.201819 302.072313 
C 239.501411 302.308724 239.907803 302.441558 240.331491 302.441558 
z
" style="fill:#0000ff;opacity:0.2;stroke:#0000ff;stroke-linejoin:miter;"/>
   </g>
   <g id="patch_7">
    <path clip-path="url(#pbe405c738d)" d="M 61.40055 172.591357 
C 61.824238 172.591357 62.23063 172.458523 62.530223 172.222112 
C 62.829815 171.9857 62.998148 171.665012 62.998148 171.330675 
C 62.998148 170.996339 62.829815 170.675651 62.530223 170.439239 
C 62.23063 170.202827 61.824238 170.069994 61.40055 170.069994 
C 60.976863 170.069994 60.570471 170.202827 60.270878 170.439239 
C 59.971286 170.675651 59.802953 170.996339 59.802953 171.330675 
C 59.802953 171.665012 59.971286 171.9857 60.270878 172.222112 
C 60.570471 172.458523 60.976863 172.591357 61.40055 172.591357 
z
" style="fill:#0000ff;opacity:0.2;stroke:#0000ff;stroke-linejoin:miter;"/>
   </g>
   <g id="patch_8">
    <path clip-path="url(#pbe405c738d)" d="M 245.124284 32.655703 
C 245.547972 32.655703 245.954363 32.52287 246.253956 32.286458 
C 246.553548 32.050047 246.721881 31.729359 246.721881 31.395022 
C 246.721881 31.060685 246.553548 30.739997 246.253956 30.503585 
C 245.954363 30.267174 245.547972 30.13434 245.124284 30.13434 
C 244.700596 30.13434 244.294204 30.267174 243.994612 30.503585 
C 243.695019 30.739997 243.526686 31.060685 243.526686 31.395022 
C 243.526686 31.729359 243.695019 32.050047 243.994612 32.286458 
C 244.294204 32.52287 244.700596 32.655703 245.124284 32.655703 
z
" style="fill:#0000ff;opacity:0.2;stroke:#0000ff;stroke-linejoin:miter;"/>
   </g>
   <g id="patch_9">
    <path clip-path="url(#pbe405c738d)" d="M 424.055224 166.91829 
C 424.478912 166.91829 424.885304 166.785456 425.184896 166.549045 
C 425.484489 166.312633 425.652822 165.991945 425.652822 165.657608 
C 425.652822 165.323272 425.484489 165.002583 425.184896 164.766172 
C 424.885304 164.52976 424.478912 164.396927 424.055224 164.396927 
C 423.631536 164.396927 423.225144 164.52976 422.925552 164.766172 
C 422.625959 165.002583 422.457626 165.323272 422.457626 165.657608 
C 422.457626 165.991945 422.625959 166.312633 422.925552 166.549045 
C 423.225144 166.785456 423.631536 166.91829 424.055224 166.91829 
z
" style="fill:#0000ff;opacity:0.2;stroke:#0000ff;stroke-linejoin:miter;"/>
   </g>
   <g id="patch_10">
    <path clip-path="url(#pbe405c738d)" d="M 246.721881 37.068089 
C 336.187352 37.068089 408.878046 90.016715 408.878046 167.548631 
C 408.878046 246.341228 340.181346 303.071898 240.331491 303.071898 
C 148.469624 303.071898 76.577728 252.014295 76.577728 173.221698 
C 76.577728 93.798759 152.463618 37.068089 246.721881 37.068089 
" style="fill:none;stroke:#ff0000;stroke-linejoin:miter;stroke-width:0.5;"/>
   </g>
   <g id="patch_11">
    <path clip-path="url(#pbe405c738d)" d="M 240.331491 301.180876 
C 145.274429 301.180876 62.199349 258.317703 61.40055 171.330675 
C 60.601752 81.191944 150.866021 31.395022 245.124284 31.395022 
C 339.382547 31.395022 424.055224 76.779558 424.055224 165.657608 
C 424.055224 257.687362 338.583748 301.180876 240.331491 301.180876 
" style="fill:none;stroke:#0000ff;stroke-linejoin:miter;stroke-width:0.5;"/>
   </g>
   <g id="patch_12">
    <path clip-path="url(#pbe405c738d)" d="M 246.721881 40.534963 
C 247.887023 40.534963 249.0046 40.169671 249.82848 39.519539 
C 250.652359 38.869407 251.115275 37.987515 251.115275 37.068089 
C 251.115275 36.148663 250.652359 35.266771 249.82848 34.616639 
C 249.0046 33.966506 247.887023 33.601215 246.721881 33.601215 
C 245.55674 33.601215 244.439163 33.966506 243.615283 34.616639 
C 242.791403 35.266771 242.328488 36.148663 242.328488 37.068089 
C 242.328488 37.987515 242.791403 38.869407 243.615283 39.519539 
C 244.439163 40.169671 245.55674 40.534963 246.721881 40.534963 
z
" style="fill:#0000ff;opacity:0.2;stroke:#0000ff;stroke-linejoin:miter;"/>
   </g>
   <g id="patch_13">
    <path clip-path="url(#pbe405c738d)" d="M 245.124284 34.861896 
C 246.289425 34.861896 247.407003 34.496604 248.230882 33.846472 
C 249.054762 33.19634 249.517677 32.314448 249.517677 31.395022 
C 249.517677 30.475596 249.054762 29.593704 248.230882 28.943572 
C 247.407003 28.293439 246.289425 27.928148 245.124284 27.928148 
C 243.959142 27.928148 242.841565 28.293439 242.017685 28.943572 
C 241.193806 29.593704 240.73089 30.475596 240.73089 31.395022 
C 240.73089 32.314448 241.193806 33.19634 242.017685 33.846472 
C 242.841565 34.496604 243.959142 34.861896 245.124284 34.861896 
z
" style="fill:#ff0000;opacity:0.2;stroke:#ff0000;stroke-linejoin:miter;"/>
   </g>
   <g id="patch_14">
    <path d="M 246.721881 37.068089 
Q 246.194159 35.194149 246.19354 35.191949 
" style="fill:none;opacity:0.5;stroke:#0000ff;stroke-linecap:round;stroke-width:2.75;"/>
    <path d="M 245.156301 37.042391 
L 246.19354 35.191949 
L 248.043982 36.229188 
" style="fill:none;opacity:0.5;stroke:#0000ff;stroke-linecap:round;stroke-width:2.75;"/>
   </g>
   <g id="patch_15">
    <path clip-path="url(#pbe405c738d)" d="M 408.878046 171.330675 
C 410.14911 171.330675 411.368285 170.932175 412.267062 170.22294 
C 413.16584 169.513705 413.670839 168.551641 413.670839 167.548631 
C 413.670839 166.545621 413.16584 165.583556 412.267062 164.874321 
C 411.368285 164.165086 410.14911 163.766586 408.878046 163.766586 
C 407.606982 163.766586 406.387807 164.165086 405.48903 164.874321 
C 404.590252 165.583556 404.085253 166.545621 404.085253 167.548631 
C 404.085253 168.551641 404.590252 169.513705 405.48903 170.22294 
C 406.387807 170.932175 407.606982 171.330675 408.878046 171.330675 
z
" style="fill:#0000ff;opacity:0.2;stroke:#0000ff;stroke-linejoin:miter;"/>
   </g>
   <g id="patch_16">
    <path clip-path="url(#pbe405c738d)" d="M 424.055224 169.439653 
C 425.326288 169.439653 426.545463 169.041153 427.44424 168.331918 
C 428.343018 167.622683 428.848017 166.660618 428.848017 165.657608 
C 428.848017 164.654598 428.343018 163.692534 427.44424 162.983299 
C 426.545463 162.274064 425.326288 161.875564 424.055224 161.875564 
C 422.78416 161.875564 421.564985 162.274064 420.666208 162.983299 
C 419.76743 163.692534 419.262431 164.654598 419.262431 165.657608 
C 419.262431 166.660618 419.76743 167.622683 420.666208 168.331918 
C 421.564985 169.041153 422.78416 169.439653 424.055224 169.439653 
z
" style="fill:#ff0000;opacity:0.2;stroke:#ff0000;stroke-linejoin:miter;"/>
   </g>
   <g id="patch_17">
    <path d="M 408.878046 167.548631 
Q 415.47545 166.726618 419.96781 166.166886 
" style="fill:none;opacity:0.5;stroke:#0000ff;stroke-linecap:round;stroke-width:3;"/>
    <path d="M 418.293858 164.863856 
L 419.96781 166.166886 
L 418.66478 167.840837 
" style="fill:none;opacity:0.5;stroke:#0000ff;stroke-linecap:round;stroke-width:3;"/>
   </g>
   <g id="patch_18">
    <path clip-path="url(#pbe405c738d)" d="M 240.331491 306.853943 
C 241.602554 306.853943 242.821729 306.455443 243.720507 305.746208 
C 244.619285 305.036973 245.124284 304.074908 245.124284 303.071898 
C 245.124284 302.068889 244.619285 301.106824 243.720507 300.397589 
C 242.821729 299.688354 241.602554 299.289854 240.331491 299.289854 
C 239.060427 299.289854 237.841252 299.688354 236.942474 300.397589 
C 236.043697 301.106824 235.538698 302.068889 235.538698 303.071898 
C 235.538698 304.074908 236.043697 305.036973 236.942474 305.746208 
C 237.841252 306.455443 239.060427 306.853943 240.331491 306.853943 
z
" style="fill:#0000ff;opacity:0.2;stroke:#0000ff;stroke-linejoin:miter;"/>
   </g>
   <g id="patch_19">
    <path clip-path="url(#pbe405c738d)" d="M 240.331491 304.962921 
C 241.602554 304.962921 242.821729 304.564421 243.720507 303.855186 
C 244.619285 303.14595 245.124284 302.183886 245.124284 301.180876 
C 245.124284 300.177866 244.619285 299.215802 243.720507 298.506567 
C 242.821729 297.797332 241.602554 297.398831 240.331491 297.398831 
C 239.060427 297.398831 237.841252 297.797332 236.942474 298.506567 
C 236.043697 299.215802 235.538698 300.177866 235.538698 301.180876 
C 235.538698 302.183886 236.043697 303.14595 236.942474 303.855186 
C 237.841252 304.564421 239.060427 304.962921 240.331491 304.962921 
z
" style="fill:#ff0000;opacity:0.2;stroke:#ff0000;stroke-linejoin:miter;"/>
   </g>
   <g id="patch_20">
    <path d="M 240.331491 303.071898 
Q 240.331491 302.126387 240.331491 303.302196 
" style="fill:none;opacity:0.5;stroke:#0000ff;stroke-linecap:round;stroke-width:3;"/>
    <path d="M 238.831491 304.802196 
L 240.331491 303.302196 
L 241.831491 304.802196 
" style="fill:none;opacity:0.5;stroke:#0000ff;stroke-linecap:round;stroke-width:3;"/>
   </g>
   <g id="patch_21">
    <path clip-path="url(#pbe405c738d)" d="M 76.577728 177.318913 
C 77.954714 177.318913 79.275487 176.887204 80.249163 176.118866 
C 81.222839 175.350528 81.769921 174.308292 81.769921 173.221698 
C 81.769921 172.135103 81.222839 171.092867 80.249163 170.324529 
C 79.275487 169.556191 77.954714 169.124483 76.577728 169.124483 
C 75.200743 169.124483 73.87997 169.556191 72.906294 170.324529 
C 71.932618 171.092867 71.385536 172.135103 71.385536 173.221698 
C 71.385536 174.308292 71.932618 175.350528 72.906294 176.118866 
C 73.87997 176.887204 75.200743 177.318913 76.577728 177.318913 
z
" style="fill:#0000ff;opacity:0.2;stroke:#0000ff;stroke-linejoin:miter;"/>
   </g>
   <g id="patch_22">
    <path clip-path="url(#pbe405c738d)" d="M 61.40055 175.42789 
C 62.777536 175.42789 64.098309 174.996182 65.071985 174.227844 
C 66.045661 173.459506 66.592743 172.417269 66.592743 171.330675 
C 66.592743 170.244081 66.045661 169.201845 65.071985 168.433507 
C 64.098309 167.665169 62.777536 167.23346 61.40055 167.23346 
C 60.023565 167.23346 58.702792 167.665169 57.729116 168.433507 
C 56.75544 169.201845 56.208358 170.244081 56.208358 171.330675 
C 56.208358 172.417269 56.75544 173.459506 57.729116 174.227844 
C 58.702792 174.996182 60.023565 175.42789 61.40055 175.42789 
z
" style="fill:#ff0000;opacity:0.2;stroke:#ff0000;stroke-linejoin:miter;"/>
   </g>
   <g id="patch_23">
    <path d="M 76.577728 173.221698 
Q 69.980325 172.399685 65.663385 171.861809 
" style="fill:none;opacity:0.5;stroke:#0000ff;stroke-linecap:round;stroke-width:3.25;"/>
    <path d="M 66.966415 173.535761 
L 65.663385 171.861809 
L 67.337336 170.558779 
" style="fill:none;opacity:0.5;stroke:#0000ff;stroke-linecap:round;stroke-width:3.25;"/>
   </g>
   <g id="patch_24">
    <path clip-path="url(#pbe405c738d)" d="M 240.331491 304.962921 
C 241.602554 304.962921 242.821729 304.564421 243.720507 303.855186 
C 244.619285 303.14595 245.124284 302.183886 245.124284 301.180876 
C 245.124284 300.177866 244.619285 299.215802 243.720507 298.506567 
C 242.821729 297.797332 241.602554 297.398831 240.331491 297.398831 
C 239.060427 297.398831 237.841252 297.797332 236.942474 298.506567 
C 236.043697 299.215802 235.538698 300.177866 235.538698 301.180876 
C 235.538698 302.183886 236.043697 303.14595 236.942474 303.855186 
C 237.841252 304.564421 239.060427 304.962921 240.331491 304.962921 
z
" style="fill:#0000ff;opacity:0.2;stroke:#0000ff;stroke-linejoin:miter;"/>
   </g>
   <g id="patch_25">
    <path clip-path="url(#pbe405c738d)" d="M 240.331491 306.853943 
C 241.602554 306.853943 242.821729 306.455443 243.720507 305.746208 
C 244.619285 305.036973 245.124284 304.074908 245.124284 303.071898 
C 245.124284 302.068889 244.619285 301.106824 243.720507 300.397589 
C 242.821729 299.688354 241.602554 299.289854 240.331491 299.289854 
C 239.060427 299.289854 237.841252 299.688354 236.942474 300.397589 
C 236.043697 301.106824 235.538698 302.068889 235.538698 303.071898 
C 235.538698 304.074908 236.043697 305.036973 236.942474 305.746208 
C 237.841252 306.455443 239.060427 306.853943 240.331491 306.853943 
z
" style="fill:#ff0000;opacity:0.2;stroke:#ff0000;stroke-linejoin:miter;"/>
   </g>
   <g id="patch_26">
    <path d="M 240.331491 301.180876 
Q 240.331491 302.126387 240.331491 300.950578 
" style="fill:none;opacity:0.5;stroke:#ff0000;stroke-linecap:round;stroke-width:3;"/>
    <path d="M 241.831491 299.450578 
L 240.331491 300.950578 
L 238.831491 299.450578 
" style="fill:none;opacity:0.5;stroke:#ff0000;stroke-linecap:round;stroke-width:3;"/>
   </g>
   <g id="patch_27">
    <path clip-path="url(#pbe405c738d)" d="M 61.40055 174.79755 
C 62.565692 174.79755 63.683269 174.432258 64.507149 173.782126 
C 65.331028 173.131993 65.793944 172.250101 65.793944 171.330675 
C 65.793944 170.411249 65.331028 169.529357 64.507149 168.879225 
C 63.683269 168.229093 62.565692 167.863801 61.40055 167.863801 
C 60.235409 167.863801 59.117832 168.229093 58.293952 168.879225 
C 57.470072 169.529357 57.007157 170.411249 57.007157 171.330675 
C 57.007157 172.250101 57.470072 173.131993 58.293952 173.782126 
C 59.117832 174.432258 60.235409 174.79755 61.40055 174.79755 
z
" style="fill:#0000ff;opacity:0.2;stroke:#0000ff;stroke-linejoin:miter;"/>
   </g>
   <g id="patch_28">
    <path clip-path="url(#pbe405c738d)" d="M 76.577728 176.688572 
C 77.74287 176.688572 78.860447 176.32328 79.684327 175.673148 
C 80.508206 175.023016 80.971122 174.141123 80.971122 173.221698 
C 80.971122 172.302272 80.508206 171.42038 79.684327 170.770247 
C 78.860447 170.120115 77.74287 169.754823 76.577728 169.754823 
C 75.412587 169.754823 74.295009 170.120115 73.47113 170.770247 
C 72.64725 171.42038 72.184335 172.302272 72.184335 173.221698 
C 72.184335 174.141123 72.64725 175.023016 73.47113 175.673148 
C 74.295009 176.32328 75.412587 176.688572 76.577728 176.688572 
z
" style="fill:#ff0000;opacity:0.2;stroke:#ff0000;stroke-linejoin:miter;"/>
   </g>
   <g id="patch_29">
    <path d="M 61.40055 171.330675 
Q 67.997954 172.152688 72.665734 172.734277 
" style="fill:none;opacity:0.5;stroke:#ff0000;stroke-linecap:round;stroke-width:2.75;"/>
    <path d="M 71.362704 171.060326 
L 72.665734 172.734277 
L 70.991783 174.037307 
" style="fill:none;opacity:0.5;stroke:#ff0000;stroke-linecap:round;stroke-width:2.75;"/>
   </g>
   <g id="patch_30">
    <path clip-path="url(#pbe405c738d)" d="M 245.124284 35.492237 
C 246.501269 35.492237 247.822042 35.060529 248.795718 34.29219 
C 249.769394 33.523852 250.316476 32.481616 250.316476 31.395022 
C 250.316476 30.308428 249.769394 29.266191 248.795718 28.497853 
C 247.822042 27.729515 246.501269 27.297807 245.124284 27.297807 
C 243.747298 27.297807 242.426525 27.729515 241.452849 28.497853 
C 240.479173 29.266191 239.932091 30.308428 239.932091 31.395022 
C 239.932091 32.481616 240.479173 33.523852 241.452849 34.29219 
C 242.426525 35.060529 243.747298 35.492237 245.124284 35.492237 
z
" style="fill:#0000ff;opacity:0.2;stroke:#0000ff;stroke-linejoin:miter;"/>
   </g>
   <g id="patch_31">
    <path clip-path="url(#pbe405c738d)" d="M 246.721881 41.165304 
C 248.098867 41.165304 249.41964 40.733596 250.393316 39.965257 
C 251.366992 39.196919 251.914074 38.154683 251.914074 37.068089 
C 251.914074 35.981495 251.366992 34.939258 250.393316 34.17092 
C 249.41964 33.402582 248.098867 32.970874 246.721881 32.970874 
C 245.344896 32.970874 244.024123 33.402582 243.050447 34.17092 
C 242.076771 34.939258 241.529689 35.981495 241.529689 37.068089 
C 241.529689 38.154683 242.076771 39.196919 243.050447 39.965257 
C 244.024123 40.733596 245.344896 41.165304 246.721881 41.165304 
z
" style="fill:#ff0000;opacity:0.2;stroke:#ff0000;stroke-linejoin:miter;"/>
   </g>
   <g id="patch_32">
    <path d="M 245.124284 31.395022 
Q 245.652006 33.268962 245.556788 32.930846 
" style="fill:none;opacity:0.5;stroke:#ff0000;stroke-linecap:round;stroke-width:3.25;"/>
    <path d="M 246.594028 31.080404 
L 245.556788 32.930846 
L 243.706347 31.893606 
" style="fill:none;opacity:0.5;stroke:#ff0000;stroke-linecap:round;stroke-width:3.25;"/>
   </g>
   <g id="patch_33">
    <path clip-path="url(#pbe405c738d)" d="M 424.055224 169.439653 
C 425.326288 169.439653 426.545463 169.041153 427.44424 168.331918 
C 428.343018 167.622683 428.848017 166.660618 428.848017 165.657608 
C 428.848017 164.654598 428.343018 163.692534 427.44424 162.983299 
C 426.545463 162.274064 425.326288 161.875564 424.055224 161.875564 
C 422.78416 161.875564 421.564985 162.274064 420.666208 162.983299 
C 419.76743 163.692534 419.262431 164.654598 419.262431 165.657608 
C 419.262431 166.660618 419.76743 167.622683 420.666208 168.331918 
C 421.564985 169.041153 422.78416 169.439653 424.055224 169.439653 
z
" style="fill:#0000ff;opacity:0.2;stroke:#0000ff;stroke-linejoin:miter;"/>
   </g>
   <g id="patch_34">
    <path clip-path="url(#pbe405c738d)" d="M 408.878046 171.330675 
C 410.14911 171.330675 411.368285 170.932175 412.267062 170.22294 
C 413.16584 169.513705 413.670839 168.551641 413.670839 167.548631 
C 413.670839 166.545621 413.16584 165.583556 412.267062 164.874321 
C 411.368285 164.165086 410.14911 163.766586 408.878046 163.766586 
C 407.606982 163.766586 406.387807 164.165086 405.48903 164.874321 
C 404.590252 165.583556 404.085253 166.545621 404.085253 167.548631 
C 404.085253 168.551641 404.590252 169.513705 405.48903 170.22294 
C 406.387807 170.932175 407.606982 171.330675 408.878046 171.330675 
z
" style="fill:#ff0000;opacity:0.2;stroke:#ff0000;stroke-linejoin:miter;"/>
   </g>
   <g id="patch_35">
    <path d="M 424.055224 165.657608 
Q 417.45782 166.479621 412.96546 167.039353 
" style="fill:none;opacity:0.5;stroke:#ff0000;stroke-linecap:round;stroke-width:3;"/>
    <path d="M 414.639412 168.342383 
L 412.96546 167.039353 
L 414.26849 165.365402 
" style="fill:none;opacity:0.5;stroke:#ff0000;stroke-linecap:round;stroke-width:3;"/>
   </g>
   <g id="patch_36">
    <path clip-path="url(#pbe405c738d)" d="M 245.923083 37.383259 
C 246.982302 37.383259 247.998282 37.051176 248.747263 36.460147 
C 249.496244 35.869117 249.917077 35.067397 249.917077 34.231555 
C 249.917077 33.395714 249.496244 32.593994 248.747263 32.002964 
C 247.998282 31.411935 246.982302 31.079852 245.923083 31.079852 
C 244.863863 31.079852 243.847884 31.411935 243.098902 32.002964 
C 242.349921 32.593994 241.929088 33.395714 241.929088 34.231555 
C 241.929088 35.067397 242.349921 35.869117 243.098902 36.460147 
C 243.847884 37.051176 244.863863 37.383259 245.923083 37.383259 
z
" style="fill:#008000;opacity:0.2;stroke:#008000;stroke-linejoin:miter;"/>
   </g>
   <g id="patch_37">
    <path clip-path="url(#pbe405c738d)" d="M 416.466635 169.754823 
C 417.525855 169.754823 418.541834 169.42274 419.290815 168.831711 
C 420.039797 168.240681 420.460629 167.438961 420.460629 166.603119 
C 420.460629 165.767278 420.039797 164.965558 419.290815 164.374528 
C 418.541834 163.783499 417.525855 163.451416 416.466635 163.451416 
C 415.407415 163.451416 414.391436 163.783499 413.642455 164.374528 
C 412.893473 164.965558 412.472641 165.767278 412.472641 166.603119 
C 412.472641 167.438961 412.893473 168.240681 413.642455 168.831711 
C 414.391436 169.42274 415.407415 169.754823 416.466635 169.754823 
z
" style="fill:#008000;opacity:0.2;stroke:#008000;stroke-linejoin:miter;"/>
   </g>
   <g id="patch_38">
    <path clip-path="url(#pbe405c738d)" d="M 240.331491 305.278091 
C 241.39071 305.278091 242.40669 304.946008 243.155671 304.354979 
C 243.904652 303.763949 244.325485 302.962229 244.325485 302.126387 
C 244.325485 301.290546 243.904652 300.488825 243.155671 299.897796 
C 242.40669 299.306767 241.39071 298.974683 240.331491 298.974683 
C 239.272271 298.974683 238.256292 299.306767 237.50731 299.897796 
C 236.758329 300.488825 236.337496 301.290546 236.337496 302.126387 
C 236.337496 302.962229 236.758329 303.763949 237.50731 304.354979 
C 238.256292 304.946008 239.272271 305.278091 240.331491 305.278091 
z
" style="fill:#008000;opacity:0.2;stroke:#008000;stroke-linejoin:miter;"/>
   </g>
   <g id="patch_39">
    <path clip-path="url(#pbe405c738d)" d="M 68.989139 175.42789 
C 70.048359 175.42789 71.064338 175.095807 71.81332 174.504778 
C 72.562301 173.913748 72.983134 173.112028 72.983134 172.276186 
C 72.983134 171.440345 72.562301 170.638625 71.81332 170.047595 
C 71.064338 169.456566 70.048359 169.124483 68.989139 169.124483 
C 67.92992 169.124483 66.91394 169.456566 66.164959 170.047595 
C 65.415978 170.638625 64.995145 171.440345 64.995145 172.276186 
C 64.995145 173.112028 65.415978 173.913748 66.164959 174.504778 
C 66.91394 175.095807 67.92992 175.42789 68.989139 175.42789 
z
" style="fill:#008000;opacity:0.2;stroke:#008000;stroke-linejoin:miter;"/>
   </g>
   <g id="patch_40">
    <path d="M 245.923083 34.231555 
Q 331.194859 100.417337 416.466635 166.603119 
" style="fill:none;opacity:0.5;stroke:#008000;stroke-linecap:round;stroke-width:2;"/>
   </g>
   <g id="patch_41">
    <path d="M 246.338534 35.706823 
Q 246.194159 35.194149 246.049785 34.681474 
" style="fill:none;opacity:0.5;stroke:#800080;stroke-linecap:round;stroke-width:2;"/>
    <path d="M 247.375773 33.856381 
L 246.338534 35.706823 
L 244.488092 34.669584 
" style="fill:none;opacity:0.5;stroke:#800080;stroke-linecap:round;stroke-width:2;"/>
    <path d="M 245.012545 36.531916 
L 246.049785 34.681474 
L 247.900226 35.718713 
" style="fill:none;opacity:0.5;stroke:#800080;stroke-linecap:round;stroke-width:2;"/>
   </g>
   <g id="patch_42">
    <path d="M 416.466635 166.603119 
Q 328.399063 234.364753 240.331491 302.126387 
" style="fill:none;opacity:0.5;stroke:#008000;stroke-linecap:round;stroke-width:2;"/>
   </g>
   <g id="patch_43">
    <path d="M 410.281408 167.373777 
Q 415.47545 166.726618 420.669491 166.079459 
" style="fill:none;opacity:0.5;stroke:#800080;stroke-linecap:round;stroke-width:2;"/>
    <path d="M 411.95536 168.676807 
L 410.281408 167.373777 
L 411.584438 165.699825 
" style="fill:none;opacity:0.5;stroke:#800080;stroke-linecap:round;stroke-width:2;"/>
    <path d="M 418.99554 164.776429 
L 420.669491 166.079459 
L 419.366461 167.75341 
" style="fill:none;opacity:0.5;stroke:#800080;stroke-linecap:round;stroke-width:2;"/>
   </g>
   <g id="patch_44">
    <path d="M 240.331491 302.126387 
Q 154.660315 237.201287 68.989139 172.276186 
" style="fill:none;opacity:0.5;stroke:#008000;stroke-linecap:round;stroke-width:2;"/>
   </g>
   <g id="patch_45">
    <path d="M 240.331491 301.657685 
Q 240.331491 302.126387 240.331491 302.59509 
" style="fill:none;opacity:0.5;stroke:#800080;stroke-linecap:round;stroke-width:2;"/>
    <path d="M 241.831491 300.157685 
L 240.331491 301.657685 
L 238.831491 300.157685 
" style="fill:none;opacity:0.5;stroke:#800080;stroke-linecap:round;stroke-width:2;"/>
    <path d="M 238.831491 304.09509 
L 240.331491 302.59509 
L 241.831491 304.09509 
" style="fill:none;opacity:0.5;stroke:#800080;stroke-linecap:round;stroke-width:2;"/>
   </g>
   <g id="patch_46">
    <path d="M 68.989139 172.276186 
Q 157.456111 103.253871 245.923083 34.231555 
" style="fill:none;opacity:0.5;stroke:#008000;stroke-linecap:round;stroke-width:2;"/>
   </g>
   <g id="patch_47">
    <path d="M 75.174366 173.046844 
Q 69.980325 172.399685 64.786283 171.752526 
" style="fill:none;opacity:0.5;stroke:#800080;stroke-linecap:round;stroke-width:2;"/>
    <path d="M 73.871336 171.372892 
L 75.174366 173.046844 
L 73.500415 174.349874 
" style="fill:none;opacity:0.5;stroke:#800080;stroke-linecap:round;stroke-width:2;"/>
    <path d="M 66.089313 173.426477 
L 64.786283 171.752526 
L 66.460235 170.449496 
" style="fill:none;opacity:0.5;stroke:#800080;stroke-linecap:round;stroke-width:2;"/>
   </g>
   <g id="patch_48">
    <path clip-path="url(#pbe405c738d)" d="M 340.181346 178.894765 
C 340.605034 178.894765 341.011425 178.761931 341.311018 178.52552 
C 341.61061 178.289108 341.778943 177.96842 341.778943 177.634083 
C 341.778943 177.299746 341.61061 176.979058 341.311018 176.742647 
C 341.011425 176.506235 340.605034 176.373402 340.181346 176.373402 
C 339.757658 176.373402 339.351266 176.506235 339.051674 176.742647 
C 338.752081 176.979058 338.583748 177.299746 338.583748 177.634083 
C 338.583748 177.96842 338.752081 178.289108 339.051674 178.52552 
C 339.351266 178.761931 339.757658 178.894765 340.181346 178.894765 
z
" style="fill:#ff0000;opacity:0.2;stroke:#ff0000;stroke-linejoin:miter;"/>
   </g>
   <g id="patch_49">
    <path clip-path="url(#pbe405c738d)" d="M 248.319479 285.422357 
C 248.743167 285.422357 249.149559 285.289523 249.449151 285.053112 
C 249.748744 284.8167 249.917077 284.496012 249.917077 284.161675 
C 249.917077 283.827338 249.748744 283.50665 249.449151 283.270239 
C 249.149559 283.033827 248.743167 282.900994 248.319479 282.900994 
C 247.895791 282.900994 247.489399 283.033827 247.189807 283.270239 
C 246.890214 283.50665 246.721881 283.827338 246.721881 284.161675 
C 246.721881 284.496012 246.890214 284.8167 247.189807 285.053112 
C 247.489399 285.289523 247.895791 285.422357 248.319479 285.422357 
z
" style="fill:#ff0000;opacity:0.2;stroke:#ff0000;stroke-linejoin:miter;"/>
   </g>
   <g id="patch_50">
    <path clip-path="url(#pbe405c738d)" d="M 145.274429 166.287949 
C 145.698117 166.287949 146.104508 166.155116 146.404101 165.918704 
C 146.703693 165.682292 146.872026 165.361604 146.872026 165.027267 
C 146.872026 164.692931 146.703693 164.372243 146.404101 164.135831 
C 146.104508 163.899419 145.698117 163.766586 145.274429 163.766586 
C 144.850741 163.766586 144.444349 163.899419 144.144757 164.135831 
C 143.845164 164.372243 143.676831 164.692931 143.676831 165.027267 
C 143.676831 165.361604 143.845164 165.682292 144.144757 165.918704 
C 144.444349 166.155116 144.850741 166.287949 145.274429 166.287949 
z
" style="fill:#ff0000;opacity:0.2;stroke:#ff0000;stroke-linejoin:miter;"/>
   </g>
   <g id="patch_51">
    <path clip-path="url(#pbe405c738d)" d="M 237.136295 57.238994 
C 237.559983 57.238994 237.966375 57.106161 238.265967 56.869749 
C 238.56556 56.633337 238.733893 56.312649 238.733893 55.978312 
C 238.733893 55.643976 238.56556 55.323288 238.265967 55.086876 
C 237.966375 54.850464 237.559983 54.717631 237.136295 54.717631 
C 236.712607 54.717631 236.306216 54.850464 236.006623 55.086876 
C 235.707031 55.323288 235.538698 55.643976 235.538698 55.978312 
C 235.538698 56.312649 235.707031 56.633337 236.006623 56.869749 
C 236.306216 57.106161 236.712607 57.238994 237.136295 57.238994 
z
" style="fill:#ff0000;opacity:0.2;stroke:#ff0000;stroke-linejoin:miter;"/>
   </g>
   <g id="patch_52">
    <path clip-path="url(#pbe405c738d)" d="M 240.331491 61.651379 
C 240.755179 61.651379 241.16157 61.518546 241.461163 61.282134 
C 241.760755 61.045723 241.929088 60.725034 241.929088 60.390698 
C 241.929088 60.056361 241.760755 59.735673 241.461163 59.499261 
C 241.16157 59.26285 240.755179 59.130016 240.331491 59.130016 
C 239.907803 59.130016 239.501411 59.26285 239.201819 59.499261 
C 238.902226 59.735673 238.733893 60.056361 238.733893 60.390698 
C 238.733893 60.725034 238.902226 61.045723 239.201819 61.282134 
C 239.501411 61.518546 239.907803 61.651379 240.331491 61.651379 
z
" style="fill:#0000ff;opacity:0.2;stroke:#0000ff;stroke-linejoin:miter;"/>
   </g>
   <g id="patch_53">
    <path clip-path="url(#pbe405c738d)" d="M 309.028191 175.743061 
C 309.451879 175.743061 309.858271 175.610227 310.157863 175.373816 
C 310.457456 175.137404 310.625789 174.816716 310.625789 174.482379 
C 310.625789 174.148043 310.457456 173.827354 310.157863 173.590943 
C 309.858271 173.354531 309.451879 173.221698 309.028191 173.221698 
C 308.604503 173.221698 308.198111 173.354531 307.898519 173.590943 
C 307.598926 173.827354 307.430593 174.148043 307.430593 174.482379 
C 307.430593 174.816716 307.598926 175.137404 307.898519 175.373816 
C 308.198111 175.610227 308.604503 175.743061 309.028191 175.743061 
z
" style="fill:#0000ff;opacity:0.2;stroke:#0000ff;stroke-linejoin:miter;"/>
   </g>
   <g id="patch_54">
    <path clip-path="url(#pbe405c738d)" d="M 249.118278 273.445882 
C 249.541966 273.445882 249.948358 273.313048 250.24795 273.076637 
C 250.547543 272.840225 250.715876 272.519537 250.715876 272.1852 
C 250.715876 271.850864 250.547543 271.530175 250.24795 271.293764 
C 249.948358 271.057352 249.541966 270.924519 249.118278 270.924519 
C 248.69459 270.924519 248.288198 271.057352 247.988606 271.293764 
C 247.689013 271.530175 247.52068 271.850864 247.52068 272.1852 
C 247.52068 272.519537 247.689013 272.840225 247.988606 273.076637 
C 248.288198 273.313048 248.69459 273.445882 249.118278 273.445882 
z
" style="fill:#0000ff;opacity:0.2;stroke:#0000ff;stroke-linejoin:miter;"/>
   </g>
   <g id="patch_55">
    <path clip-path="url(#pbe405c738d)" d="M 176.427583 158.72386 
C 176.851271 158.72386 177.257663 158.591026 177.557256 158.354615 
C 177.856848 158.118203 178.025181 157.797515 178.025181 157.463178 
C 178.025181 157.128841 177.856848 156.808153 177.557256 156.571742 
C 177.257663 156.33533 176.851271 156.202497 176.427583 156.202497 
C 176.003896 156.202497 175.597504 156.33533 175.297911 156.571742 
C 174.998319 156.808153 174.829986 157.128841 174.829986 157.463178 
C 174.829986 157.797515 174.998319 158.118203 175.297911 158.354615 
C 175.597504 158.591026 176.003896 158.72386 176.427583 158.72386 
z
" style="fill:#0000ff;opacity:0.2;stroke:#0000ff;stroke-linejoin:miter;"/>
   </g>
   <g id="patch_56">
    <path clip-path="url(#pbe405c738d)" d="M 340.181346 177.634083 
C 340.181346 226.170323 318.613777 284.161675 248.319479 284.161675 
C 178.025181 284.161675 145.274429 222.388279 145.274429 165.027267 
C 145.274429 95.689782 184.415572 55.978312 237.136295 55.978312 
C 313.022185 55.978312 340.181346 124.055117 340.181346 177.634083 
" style="fill:none;stroke:#ff0000;stroke-linejoin:miter;stroke-width:0.5;"/>
   </g>
   <g id="patch_57">
    <path clip-path="url(#pbe405c738d)" d="M 240.331491 60.390698 
C 285.863025 60.390698 308.229392 113.339323 309.028191 174.482379 
C 309.82699 231.213049 294.649812 272.1852 249.118278 272.1852 
C 202.787945 272.1852 176.427583 223.64896 176.427583 157.463178 
C 176.427583 88.756033 205.184342 60.390698 240.331491 60.390698 
" style="fill:none;stroke:#0000ff;stroke-linejoin:miter;stroke-width:0.5;"/>
   </g>
   <g id="patch_58">
    <path clip-path="url(#pbe405c738d)" d="M 340.181346 181.416128 
C 341.452409 181.416128 342.671585 181.017628 343.570362 180.308393 
C 344.46914 179.599157 344.974139 178.637093 344.974139 177.634083 
C 344.974139 176.631073 344.46914 175.669009 343.570362 174.959774 
C 342.671585 174.250538 341.452409 173.852038 340.181346 173.852038 
C 338.910282 173.852038 337.691107 174.250538 336.792329 174.959774 
C 335.893552 175.669009 335.388553 176.631073 335.388553 177.634083 
C 335.388553 178.637093 335.893552 179.599157 336.792329 180.308393 
C 337.691107 181.017628 338.910282 181.416128 340.181346 181.416128 
z
" style="fill:#0000ff;opacity:0.2;stroke:#0000ff;stroke-linejoin:miter;"/>
   </g>
   <g id="patch_59">
    <path clip-path="url(#pbe405c738d)" d="M 309.028191 178.264424 
C 310.299255 178.264424 311.51843 177.865924 312.417207 177.156689 
C 313.315985 176.447453 313.820984 175.485389 313.820984 174.482379 
C 313.820984 173.479369 313.315985 172.517305 312.417207 171.80807 
C 311.51843 171.098835 310.299255 170.700334 309.028191 170.700334 
C 307.757127 170.700334 306.537952 171.098835 305.639175 171.80807 
C 304.740397 172.517305 304.235398 173.479369 304.235398 174.482379 
C 304.235398 175.485389 304.740397 176.447453 305.639175 177.156689 
C 306.537952 177.865924 307.757127 178.264424 309.028191 178.264424 
z
" style="fill:#ff0000;opacity:0.2;stroke:#ff0000;stroke-linejoin:miter;"/>
   </g>
   <g id="patch_60">
    <path d="M 340.181346 177.634083 
Q 325.59922 176.158838 313.127642 174.897113 
" style="fill:none;opacity:0.5;stroke:#0000ff;stroke-linecap:round;stroke-width:3;"/>
    <path d="M 314.469043 176.540476 
L 313.127642 174.897113 
L 314.771006 173.555712 
" style="fill:none;opacity:0.5;stroke:#0000ff;stroke-linecap:round;stroke-width:3;"/>
   </g>
   <g id="patch_61">
    <path clip-path="url(#pbe405c738d)" d="M 248.319479 287.628549 
C 249.484621 287.628549 250.602198 287.263258 251.426078 286.613125 
C 252.249957 285.962993 252.712873 285.081101 252.712873 284.161675 
C 252.712873 283.242249 252.249957 282.360357 251.426078 281.710225 
C 250.602198 281.060093 249.484621 280.694801 248.319479 280.694801 
C 247.154337 280.694801 246.03676 281.060093 245.212881 281.710225 
C 244.389001 282.360357 243.926085 283.242249 243.926085 284.161675 
C 243.926085 285.081101 244.389001 285.962993 245.212881 286.613125 
C 246.03676 287.263258 247.154337 287.628549 248.319479 287.628549 
z
" style="fill:#0000ff;opacity:0.2;stroke:#0000ff;stroke-linejoin:miter;"/>
   </g>
   <g id="patch_62">
    <path clip-path="url(#pbe405c738d)" d="M 249.118278 275.652075 
C 250.28342 275.652075 251.400997 275.286783 252.224876 274.636651 
C 253.048756 273.986518 253.511672 273.104626 253.511672 272.1852 
C 253.511672 271.265774 253.048756 270.383882 252.224876 269.73375 
C 251.400997 269.083618 250.28342 268.718326 249.118278 268.718326 
C 247.953136 268.718326 246.835559 269.083618 246.01168 269.73375 
C 245.1878 270.383882 244.724884 271.265774 244.724884 272.1852 
C 244.724884 273.104626 245.1878 273.986518 246.01168 274.636651 
C 246.835559 275.286783 247.953136 275.652075 249.118278 275.652075 
z
" style="fill:#ff0000;opacity:0.2;stroke:#ff0000;stroke-linejoin:miter;"/>
   </g>
   <g id="patch_63">
    <path d="M 248.319479 284.161675 
Q 248.652279 279.171965 248.855671 276.122487 
" style="fill:none;opacity:0.5;stroke:#0000ff;stroke-linecap:round;stroke-width:2.75;"/>
    <path d="M 247.259173 277.519337 
L 248.855671 276.122487 
L 250.252522 277.718986 
" style="fill:none;opacity:0.5;stroke:#0000ff;stroke-linecap:round;stroke-width:2.75;"/>
   </g>
   <g id="patch_64">
    <path clip-path="url(#pbe405c738d)" d="M 145.274429 169.124483 
C 146.651414 169.124483 147.972187 168.692774 148.945863 167.924436 
C 149.919539 167.156098 150.466621 166.113862 150.466621 165.027267 
C 150.466621 163.940673 149.919539 162.898437 148.945863 162.130099 
C 147.972187 161.361761 146.651414 160.930052 145.274429 160.930052 
C 143.897443 160.930052 142.57667 161.361761 141.602994 162.130099 
C 140.629318 162.898437 140.082236 163.940673 140.082236 165.027267 
C 140.082236 166.113862 140.629318 167.156098 141.602994 167.924436 
C 142.57667 168.692774 143.897443 169.124483 145.274429 169.124483 
z
" style="fill:#0000ff;opacity:0.2;stroke:#0000ff;stroke-linejoin:miter;"/>
   </g>
   <g id="patch_65">
    <path clip-path="url(#pbe405c738d)" d="M 176.427583 161.560393 
C 177.804569 161.560393 179.125342 161.128685 180.099018 160.360347 
C 181.072694 159.592009 181.619776 158.549772 181.619776 157.463178 
C 181.619776 156.376584 181.072694 155.334348 180.099018 154.56601 
C 179.125342 153.797671 177.804569 153.365963 176.427583 153.365963 
C 175.050598 153.365963 173.729825 153.797671 172.756149 154.56601 
C 171.782473 155.334348 171.235391 156.376584 171.235391 157.463178 
C 171.235391 158.549772 171.782473 159.592009 172.756149 160.360347 
C 173.729825 161.128685 175.050598 161.560393 176.427583 161.560393 
z
" style="fill:#ff0000;opacity:0.2;stroke:#ff0000;stroke-linejoin:miter;"/>
   </g>
   <g id="patch_66">
    <path d="M 145.274429 165.027267 
Q 159.879371 161.481139 172.251102 158.477242 
" style="fill:none;opacity:0.5;stroke:#0000ff;stroke-linecap:round;stroke-width:3.25;"/>
    <path d="M 170.439532 157.373515 
L 172.251102 158.477242 
L 171.147376 160.288812 
" style="fill:none;opacity:0.5;stroke:#0000ff;stroke-linecap:round;stroke-width:3.25;"/>
   </g>
   <g id="patch_67">
    <path clip-path="url(#pbe405c738d)" d="M 237.136295 59.760357 
C 238.407359 59.760357 239.626534 59.361857 240.525312 58.652622 
C 241.424089 57.943387 241.929088 56.981322 241.929088 55.978312 
C 241.929088 54.975302 241.424089 54.013238 240.525312 53.304003 
C 239.626534 52.594768 238.407359 52.196268 237.136295 52.196268 
C 235.865232 52.196268 234.646057 52.594768 233.747279 53.304003 
C 232.848501 54.013238 232.343502 54.975302 232.343502 55.978312 
C 232.343502 56.981322 232.848501 57.943387 233.747279 58.652622 
C 234.646057 59.361857 235.865232 59.760357 237.136295 59.760357 
z
" style="fill:#0000ff;opacity:0.2;stroke:#0000ff;stroke-linejoin:miter;"/>
   </g>
   <g id="patch_68">
    <path clip-path="url(#pbe405c738d)" d="M 240.331491 64.172743 
C 241.602554 64.172743 242.821729 63.774242 243.720507 63.065007 
C 244.619285 62.355772 245.124284 61.393708 245.124284 60.390698 
C 245.124284 59.387688 244.619285 58.425624 243.720507 57.716388 
C 242.821729 57.007153 241.602554 56.608653 240.331491 56.608653 
C 239.060427 56.608653 237.841252 57.007153 236.942474 57.716388 
C 236.043697 58.425624 235.538698 59.387688 235.538698 60.390698 
C 235.538698 61.393708 236.043697 62.355772 236.942474 63.065007 
C 237.841252 63.774242 239.060427 64.172743 240.331491 64.172743 
z
" style="fill:#ff0000;opacity:0.2;stroke:#ff0000;stroke-linejoin:miter;"/>
   </g>
   <g id="patch_69">
    <path d="M 237.136295 55.978312 
Q 238.148055 57.375496 237.915635 57.054536 
" style="fill:none;opacity:0.5;stroke:#0000ff;stroke-linecap:round;stroke-width:3;"/>
    <path d="M 238.250777 54.959858 
L 237.915635 57.054536 
L 235.820956 56.719394 
" style="fill:none;opacity:0.5;stroke:#0000ff;stroke-linecap:round;stroke-width:3;"/>
   </g>
   <g id="patch_70">
    <path clip-path="url(#pbe405c738d)" d="M 240.331491 64.172743 
C 241.602554 64.172743 242.821729 63.774242 243.720507 63.065007 
C 244.619285 62.355772 245.124284 61.393708 245.124284 60.390698 
C 245.124284 59.387688 244.619285 58.425624 243.720507 57.716388 
C 242.821729 57.007153 241.602554 56.608653 240.331491 56.608653 
C 239.060427 56.608653 237.841252 57.007153 236.942474 57.716388 
C 236.043697 58.425624 235.538698 59.387688 235.538698 60.390698 
C 235.538698 61.393708 236.043697 62.355772 236.942474 63.065007 
C 237.841252 63.774242 239.060427 64.172743 240.331491 64.172743 
z
" style="fill:#0000ff;opacity:0.2;stroke:#0000ff;stroke-linejoin:miter;"/>
   </g>
   <g id="patch_71">
    <path clip-path="url(#pbe405c738d)" d="M 237.136295 59.760357 
C 238.407359 59.760357 239.626534 59.361857 240.525312 58.652622 
C 241.424089 57.943387 241.929088 56.981322 241.929088 55.978312 
C 241.929088 54.975302 241.424089 54.013238 240.525312 53.304003 
C 239.626534 52.594768 238.407359 52.196268 237.136295 52.196268 
C 235.865232 52.196268 234.646057 52.594768 233.747279 53.304003 
C 232.848501 54.013238 232.343502 54.975302 232.343502 55.978312 
C 232.343502 56.981322 232.848501 57.943387 233.747279 58.652622 
C 234.646057 59.361857 235.865232 59.760357 237.136295 59.760357 
z
" style="fill:#ff0000;opacity:0.2;stroke:#ff0000;stroke-linejoin:miter;"/>
   </g>
   <g id="patch_72">
    <path d="M 240.331491 60.390698 
Q 239.319731 58.993514 239.552151 59.314474 
" style="fill:none;opacity:0.5;stroke:#ff0000;stroke-linecap:round;stroke-width:3;"/>
    <path d="M 239.217009 61.409153 
L 239.552151 59.314474 
L 241.64683 59.649616 
" style="fill:none;opacity:0.5;stroke:#ff0000;stroke-linecap:round;stroke-width:3;"/>
   </g>
   <g id="patch_73">
    <path clip-path="url(#pbe405c738d)" d="M 309.028191 178.264424 
C 310.299255 178.264424 311.51843 177.865924 312.417207 177.156689 
C 313.315985 176.447453 313.820984 175.485389 313.820984 174.482379 
C 313.820984 173.479369 313.315985 172.517305 312.417207 171.80807 
C 311.51843 171.098835 310.299255 170.700334 309.028191 170.700334 
C 307.757127 170.700334 306.537952 171.098835 305.639175 171.80807 
C 304.740397 172.517305 304.235398 173.479369 304.235398 174.482379 
C 304.235398 175.485389 304.740397 176.447453 305.639175 177.156689 
C 306.537952 177.865924 307.757127 178.264424 309.028191 178.264424 
z
" style="fill:#0000ff;opacity:0.2;stroke:#0000ff;stroke-linejoin:miter;"/>
   </g>
   <g id="patch_74">
    <path clip-path="url(#pbe405c738d)" d="M 340.181346 181.416128 
C 341.452409 181.416128 342.671585 181.017628 343.570362 180.308393 
C 344.46914 179.599157 344.974139 178.637093 344.974139 177.634083 
C 344.974139 176.631073 344.46914 175.669009 343.570362 174.959774 
C 342.671585 174.250538 341.452409 173.852038 340.181346 173.852038 
C 338.910282 173.852038 337.691107 174.250538 336.792329 174.959774 
C 335.893552 175.669009 335.388553 176.631073 335.388553 177.634083 
C 335.388553 178.637093 335.893552 179.599157 336.792329 180.308393 
C 337.691107 181.017628 338.910282 181.416128 340.181346 181.416128 
z
" style="fill:#ff0000;opacity:0.2;stroke:#ff0000;stroke-linejoin:miter;"/>
   </g>
   <g id="patch_75">
    <path d="M 309.028191 174.482379 
Q 323.610316 175.957624 336.081895 177.21935 
" style="fill:none;opacity:0.5;stroke:#ff0000;stroke-linecap:round;stroke-width:3;"/>
    <path d="M 334.740494 175.575986 
L 336.081895 177.21935 
L 334.438531 178.56075 
" style="fill:none;opacity:0.5;stroke:#ff0000;stroke-linecap:round;stroke-width:3;"/>
   </g>
   <g id="patch_76">
    <path clip-path="url(#pbe405c738d)" d="M 249.118278 275.652075 
C 250.28342 275.652075 251.400997 275.286783 252.224876 274.636651 
C 253.048756 273.986518 253.511672 273.104626 253.511672 272.1852 
C 253.511672 271.265774 253.048756 270.383882 252.224876 269.73375 
C 251.400997 269.083618 250.28342 268.718326 249.118278 268.718326 
C 247.953136 268.718326 246.835559 269.083618 246.01168 269.73375 
C 245.1878 270.383882 244.724884 271.265774 244.724884 272.1852 
C 244.724884 273.104626 245.1878 273.986518 246.01168 274.636651 
C 246.835559 275.286783 247.953136 275.652075 249.118278 275.652075 
z
" style="fill:#0000ff;opacity:0.2;stroke:#0000ff;stroke-linejoin:miter;"/>
   </g>
   <g id="patch_77">
    <path clip-path="url(#pbe405c738d)" d="M 248.319479 287.628549 
C 249.484621 287.628549 250.602198 287.263258 251.426078 286.613125 
C 252.249957 285.962993 252.712873 285.081101 252.712873 284.161675 
C 252.712873 283.242249 252.249957 282.360357 251.426078 281.710225 
C 250.602198 281.060093 249.484621 280.694801 248.319479 280.694801 
C 247.154337 280.694801 246.03676 281.060093 245.212881 281.710225 
C 244.389001 282.360357 243.926085 283.242249 243.926085 284.161675 
C 243.926085 285.081101 244.389001 285.962993 245.212881 286.613125 
C 246.03676 287.263258 247.154337 287.628549 248.319479 287.628549 
z
" style="fill:#ff0000;opacity:0.2;stroke:#ff0000;stroke-linejoin:miter;"/>
   </g>
   <g id="patch_78">
    <path d="M 249.118278 272.1852 
Q 248.785478 277.174911 248.582086 280.224388 
" style="fill:none;opacity:0.5;stroke:#ff0000;stroke-linecap:round;stroke-width:2.75;"/>
    <path d="M 250.178584 278.827538 
L 248.582086 280.224388 
L 247.185235 278.62789 
" style="fill:none;opacity:0.5;stroke:#ff0000;stroke-linecap:round;stroke-width:2.75;"/>
   </g>
   <g id="patch_79">
    <path clip-path="url(#pbe405c738d)" d="M 176.427583 161.560393 
C 177.804569 161.560393 179.125342 161.128685 180.099018 160.360347 
C 181.072694 159.592009 181.619776 158.549772 181.619776 157.463178 
C 181.619776 156.376584 181.072694 155.334348 180.099018 154.56601 
C 179.125342 153.797671 177.804569 153.365963 176.427583 153.365963 
C 175.050598 153.365963 173.729825 153.797671 172.756149 154.56601 
C 171.782473 155.334348 171.235391 156.376584 171.235391 157.463178 
C 171.235391 158.549772 171.782473 159.592009 172.756149 160.360347 
C 173.729825 161.128685 175.050598 161.560393 176.427583 161.560393 
z
" style="fill:#0000ff;opacity:0.2;stroke:#0000ff;stroke-linejoin:miter;"/>
   </g>
   <g id="patch_80">
    <path clip-path="url(#pbe405c738d)" d="M 145.274429 169.124483 
C 146.651414 169.124483 147.972187 168.692774 148.945863 167.924436 
C 149.919539 167.156098 150.466621 166.113862 150.466621 165.027267 
C 150.466621 163.940673 149.919539 162.898437 148.945863 162.130099 
C 147.972187 161.361761 146.651414 160.930052 145.274429 160.930052 
C 143.897443 160.930052 142.57667 161.361761 141.602994 162.130099 
C 140.629318 162.898437 140.082236 163.940673 140.082236 165.027267 
C 140.082236 166.113862 140.629318 167.156098 141.602994 167.924436 
C 142.57667 168.692774 143.897443 169.124483 145.274429 169.124483 
z
" style="fill:#ff0000;opacity:0.2;stroke:#ff0000;stroke-linejoin:miter;"/>
   </g>
   <g id="patch_81">
    <path d="M 176.427583 157.463178 
Q 161.822641 161.009307 149.45091 164.013204 
" style="fill:none;opacity:0.5;stroke:#ff0000;stroke-linecap:round;stroke-width:3.25;"/>
    <path d="M 151.26248 165.116931 
L 149.45091 164.013204 
L 150.554636 162.201634 
" style="fill:none;opacity:0.5;stroke:#ff0000;stroke-linecap:round;stroke-width:3.25;"/>
   </g>
   <g id="patch_82">
    <path clip-path="url(#pbe405c738d)" d="M 324.604768 179.209935 
C 325.663988 179.209935 326.679967 178.877852 327.428949 178.286822 
C 328.17793 177.695793 328.598763 176.894073 328.598763 176.058231 
C 328.598763 175.222389 328.17793 174.420669 327.428949 173.82964 
C 326.679967 173.238611 325.663988 172.906527 324.604768 172.906527 
C 323.545549 172.906527 322.529569 173.238611 321.780588 173.82964 
C 321.031607 174.420669 320.610774 175.222389 320.610774 176.058231 
C 320.610774 176.894073 321.031607 177.695793 321.780588 178.286822 
C 322.529569 178.877852 323.545549 179.209935 324.604768 179.209935 
z
" style="fill:#008000;opacity:0.2;stroke:#008000;stroke-linejoin:miter;"/>
   </g>
   <g id="patch_83">
    <path clip-path="url(#pbe405c738d)" d="M 248.718879 281.325142 
C 249.778098 281.325142 250.794078 280.993058 251.543059 280.402029 
C 252.29204 279.811 252.712873 279.009279 252.712873 278.173438 
C 252.712873 277.337596 252.29204 276.535876 251.543059 275.944846 
C 250.794078 275.353817 249.778098 275.021734 248.718879 275.021734 
C 247.659659 275.021734 246.64368 275.353817 245.894698 275.944846 
C 245.145717 276.535876 244.724884 277.337596 244.724884 278.173438 
C 244.724884 279.009279 245.145717 279.811 245.894698 280.402029 
C 246.64368 280.993058 247.659659 281.325142 248.718879 281.325142 
z
" style="fill:#008000;opacity:0.2;stroke:#008000;stroke-linejoin:miter;"/>
   </g>
   <g id="patch_84">
    <path clip-path="url(#pbe405c738d)" d="M 160.851006 164.396927 
C 161.910226 164.396927 162.926205 164.064843 163.675186 163.473814 
C 164.424168 162.882785 164.845 162.081064 164.845 161.245223 
C 164.845 160.409381 164.424168 159.607661 163.675186 159.016632 
C 162.926205 158.425602 161.910226 158.093519 160.851006 158.093519 
C 159.791786 158.093519 158.775807 158.425602 158.026826 159.016632 
C 157.277844 159.607661 156.857012 160.409381 156.857012 161.245223 
C 156.857012 162.081064 157.277844 162.882785 158.026826 163.473814 
C 158.775807 164.064843 159.791786 164.396927 160.851006 164.396927 
z
" style="fill:#008000;opacity:0.2;stroke:#008000;stroke-linejoin:miter;"/>
   </g>
   <g id="patch_85">
    <path clip-path="url(#pbe405c738d)" d="M 238.733893 61.336209 
C 239.793113 61.336209 240.809092 61.004126 241.558073 60.413096 
C 242.307055 59.822067 242.727887 59.020347 242.727887 58.184505 
C 242.727887 57.348663 242.307055 56.546943 241.558073 55.955914 
C 240.809092 55.364885 239.793113 55.032801 238.733893 55.032801 
C 237.674673 55.032801 236.658694 55.364885 235.909713 55.955914 
C 235.160731 56.546943 234.739899 57.348663 234.739899 58.184505 
C 234.739899 59.020347 235.160731 59.822067 235.909713 60.413096 
C 236.658694 61.004126 237.674673 61.336209 238.733893 61.336209 
z
" style="fill:#008000;opacity:0.2;stroke:#008000;stroke-linejoin:miter;"/>
   </g>
   <g id="patch_86">
    <path d="M 324.604768 176.058231 
Q 286.661823 227.115834 248.718879 278.173438 
" style="fill:none;opacity:0.5;stroke:#008000;stroke-linecap:round;stroke-width:2;"/>
   </g>
   <g id="patch_87">
    <path d="M 338.774314 177.491736 
Q 325.59922 176.158838 312.424126 174.825939 
" style="fill:none;opacity:0.5;stroke:#800080;stroke-linecap:round;stroke-width:2;"/>
    <path d="M 337.432914 175.848373 
L 338.774314 177.491736 
L 337.130951 178.833137 
" style="fill:none;opacity:0.5;stroke:#800080;stroke-linecap:round;stroke-width:2;"/>
    <path d="M 313.765527 176.469303 
L 312.424126 174.825939 
L 314.06749 173.484539 
" style="fill:none;opacity:0.5;stroke:#800080;stroke-linecap:round;stroke-width:2;"/>
   </g>
   <g id="patch_88">
    <path d="M 248.718879 278.173438 
Q 204.784942 219.70933 160.851006 161.245223 
" style="fill:none;opacity:0.5;stroke:#008000;stroke-linecap:round;stroke-width:2;"/>
   </g>
   <g id="patch_89">
    <path d="M 248.413594 282.750597 
Q 248.652279 279.171965 248.890965 275.593332 
" style="fill:none;opacity:0.5;stroke:#800080;stroke-linecap:round;stroke-width:2;"/>
    <path d="M 250.010093 281.353746 
L 248.413594 282.750597 
L 247.016744 281.154098 
" style="fill:none;opacity:0.5;stroke:#800080;stroke-linecap:round;stroke-width:2;"/>
    <path d="M 247.294466 276.990183 
L 248.890965 275.593332 
L 250.287815 277.189831 
" style="fill:none;opacity:0.5;stroke:#800080;stroke-linecap:round;stroke-width:2;"/>
   </g>
   <g id="patch_90">
    <path d="M 160.851006 161.245223 
Q 199.79245 109.714864 238.733893 58.184505 
" style="fill:none;opacity:0.5;stroke:#008000;stroke-linecap:round;stroke-width:2;"/>
   </g>
   <g id="patch_91">
    <path d="M 146.648713 164.693587 
Q 159.879371 161.481139 173.11003 158.268691 
" style="fill:none;opacity:0.5;stroke:#800080;stroke-linecap:round;stroke-width:2;"/>
    <path d="M 148.460283 165.797313 
L 146.648713 164.693587 
L 147.75244 162.882016 
" style="fill:none;opacity:0.5;stroke:#800080;stroke-linecap:round;stroke-width:2;"/>
    <path d="M 171.298459 157.164964 
L 173.11003 158.268691 
L 172.006303 160.080262 
" style="fill:none;opacity:0.5;stroke:#800080;stroke-linecap:round;stroke-width:2;"/>
   </g>
   <g id="patch_92">
    <path d="M 238.733893 58.184505 
Q 281.669331 117.121368 324.604768 176.058231 
" style="fill:none;opacity:0.5;stroke:#008000;stroke-linecap:round;stroke-width:2;"/>
   </g>
   <g id="patch_93">
    <path d="M 237.965749 57.123741 
Q 238.148055 57.375496 238.330362 57.627251 
" style="fill:none;opacity:0.5;stroke:#800080;stroke-linecap:round;stroke-width:2;"/>
    <path d="M 237.630606 59.21842 
L 237.965749 57.123741 
L 240.060428 57.458883 
" style="fill:none;opacity:0.5;stroke:#800080;stroke-linecap:round;stroke-width:2;"/>
    <path d="M 238.665504 55.532572 
L 238.330362 57.627251 
L 236.235683 57.292108 
" style="fill:none;opacity:0.5;stroke:#800080;stroke-linecap:round;stroke-width:2;"/>
   </g>
   <g id="line2d_1">
    <path clip-path="url(#pbe405c738d)" d="M 246.721881 37.068089 
L 408.878046 167.548631 
L 240.331491 303.071898 
L 76.577728 173.221698 
" style="fill:none;stroke:#ff0000;stroke-linecap:square;stroke-width:0.2;"/>
   </g>
   <g id="line2d_2">
    <path clip-path="url(#pbe405c738d)" d="M 240.331491 301.180876 
L 61.40055 171.330675 
L 245.124284 31.395022 
L 424.055224 165.657608 
" style="fill:none;stroke:#0000ff;stroke-linecap:square;stroke-width:0.2;"/>
   </g>
   <g id="line2d_3">
    <path clip-path="url(#pbe405c738d)" d="M 340.181346 177.634083 
L 248.319479 284.161675 
L 145.274429 165.027267 
L 237.136295 55.978312 
" style="fill:none;stroke:#ff0000;stroke-linecap:square;stroke-width:0.2;"/>
   </g>
   <g id="line2d_4">
    <path clip-path="url(#pbe405c738d)" d="M 240.331491 60.390698 
L 309.028191 174.482379 
L 249.118278 272.1852 
L 176.427583 157.463178 
" style="fill:none;stroke:#0000ff;stroke-linecap:square;stroke-width:0.2;"/>
   </g>
  </g>
 </g>
 <defs>
  <clipPath id="pbe405c738d">
   <rect height="307.51175" width="409.903625" x="37.576375" y="13.32"/>
  </clipPath>
 </defs>
</svg>
