<?xml version="1.0" encoding="utf-8" standalone="no"?>
<!DOCTYPE svg PUBLIC "-//W3C//DTD SVG 1.1//EN"
  "http://www.w3.org/Graphics/SVG/1.1/DTD/svg11.dtd">
<!-- Created with matplotlib (http://matplotlib.org/) -->
<svg height="345.6pt" version="1.1" viewBox="0 0 460.8 345.6" width="460.8pt" xmlns="http://www.w3.org/2000/svg" xmlns:xlink="http://www.w3.org/1999/xlink">
 <defs>
  <style type="text/css">
*{stroke-linecap:butt;stroke-linejoin:round;}
  </style>
 </defs>
 <g id="figure_1">
  <g id="patch_1">
   <path d="M 0 345.6 
L 460.8 345.6 
L 460.8 0 
L 0 0 
z
" style="fill:#ffffff;"/>
  </g>
  <g id="axes_1">
   <g id="patch_2">
    <path clip-path="url(#p390f18c66b)" d="M 242.528187 275.237475 
C 243.718852 275.237475 244.860911 274.886811 245.702838 274.262712 
C 246.544766 273.638614 247.017822 272.792035 247.017822 271.909426 
C 247.017822 271.026817 246.544766 270.180239 245.702838 269.55614 
C 244.860911 268.932041 243.718852 268.581377 242.528187 268.581377 
C 241.337523 268.581377 240.195464 268.932041 239.353537 269.55614 
C 238.511609 270.180239 238.038553 271.026817 238.038553 271.909426 
C 238.038553 272.792035 238.511609 273.638614 239.353537 274.262712 
C 240.195464 274.886811 241.337523 275.237475 242.528187 275.237475 
z
" style="fill:#ff0000;opacity:0.2;stroke:#ff0000;stroke-linejoin:miter;"/>
   </g>
   <g id="patch_3">
    <path clip-path="url(#p390f18c66b)" d="M 116.818423 183.716121 
C 118.009088 183.716121 119.151147 183.365457 119.993074 182.741358 
C 120.835001 182.117259 121.308057 181.270681 121.308057 180.388072 
C 121.308057 179.505463 120.835001 178.658885 119.993074 178.034786 
C 119.151147 177.410687 118.009088 177.060023 116.818423 177.060023 
C 115.627758 177.060023 114.485699 177.410687 113.643772 178.034786 
C 112.801845 178.658885 112.328789 179.505463 112.328789 180.388072 
C 112.328789 181.270681 112.801845 182.117259 113.643772 182.741358 
C 114.485699 183.365457 115.627758 183.716121 116.818423 183.716121 
z
" style="fill:#ff0000;opacity:0.2;stroke:#ff0000;stroke-linejoin:miter;"/>
   </g>
   <g id="patch_4">
    <path clip-path="url(#p390f18c66b)" d="M 242.528187 85.538669 
C 243.718852 85.538669 244.860911 85.188004 245.702838 84.563906 
C 246.544766 83.939807 247.017822 83.093228 247.017822 82.210619 
C 247.017822 81.32801 246.544766 80.481432 245.702838 79.857333 
C 244.860911 79.233234 243.718852 78.88257 242.528187 78.88257 
C 241.337523 78.88257 240.195464 79.233234 239.353537 79.857333 
C 238.511609 80.481432 238.038553 81.32801 238.038553 82.210619 
C 238.038553 83.093228 238.511609 83.939807 239.353537 84.563906 
C 240.195464 85.188004 241.337523 85.538669 242.528187 85.538669 
z
" style="fill:#ff0000;opacity:0.2;stroke:#ff0000;stroke-linejoin:miter;"/>
   </g>
   <g id="patch_5">
    <path clip-path="url(#p390f18c66b)" d="M 368.237952 183.716121 
C 369.428617 183.716121 370.570676 183.365457 371.412603 182.741358 
C 372.25453 182.117259 372.727586 181.270681 372.727586 180.388072 
C 372.727586 179.505463 372.25453 178.658885 371.412603 178.034786 
C 370.570676 177.410687 369.428617 177.060023 368.237952 177.060023 
C 367.047287 177.060023 365.905228 177.410687 365.063301 178.034786 
C 364.221374 178.658885 363.748318 179.505463 363.748318 180.388072 
C 363.748318 181.270681 364.221374 182.117259 365.063301 182.741358 
C 365.905228 183.365457 367.047287 183.716121 368.237952 183.716121 
z
" style="fill:#ff0000;opacity:0.2;stroke:#ff0000;stroke-linejoin:miter;"/>
   </g>
   <g id="patch_6">
    <path clip-path="url(#p390f18c66b)" d="M 242.528187 306.853943 
C 243.718852 306.853943 244.860911 306.503279 245.702838 305.87918 
C 246.544766 305.255081 247.017822 304.408503 247.017822 303.525894 
C 247.017822 302.643285 246.544766 301.796707 245.702838 301.172608 
C 244.860911 300.548509 243.718852 300.197845 242.528187 300.197845 
C 241.337523 300.197845 240.195464 300.548509 239.353537 301.172608 
C 238.511609 301.796707 238.038553 302.643285 238.038553 303.525894 
C 238.038553 304.408503 238.511609 305.255081 239.353537 305.87918 
C 240.195464 306.503279 241.337523 306.853943 242.528187 306.853943 
z
" style="fill:#0000ff;opacity:0.2;stroke:#0000ff;stroke-linejoin:miter;"/>
   </g>
   <g id="patch_7">
    <path clip-path="url(#p390f18c66b)" d="M 60.697992 172.067949 
C 61.888657 172.067949 63.030716 171.717285 63.872643 171.093186 
C 64.714571 170.469087 65.187627 169.622509 65.187627 168.7399 
C 65.187627 167.857291 64.714571 167.010712 63.872643 166.386613 
C 63.030716 165.762515 61.888657 165.41185 60.697992 165.41185 
C 59.507327 165.41185 58.365269 165.762515 57.523341 166.386613 
C 56.681414 167.010712 56.208358 167.857291 56.208358 168.7399 
C 56.208358 169.622509 56.681414 170.469087 57.523341 171.093186 
C 58.365269 171.717285 59.507327 172.067949 60.697992 172.067949 
z
" style="fill:#0000ff;opacity:0.2;stroke:#0000ff;stroke-linejoin:miter;"/>
   </g>
   <g id="patch_8">
    <path clip-path="url(#p390f18c66b)" d="M 242.528187 33.953905 
C 243.718852 33.953905 244.860911 33.603241 245.702838 32.979142 
C 246.544766 32.355043 247.017822 31.508465 247.017822 30.625856 
C 247.017822 29.743247 246.544766 28.896669 245.702838 28.27257 
C 244.860911 27.648471 243.718852 27.297807 242.528187 27.297807 
C 241.337523 27.297807 240.195464 27.648471 239.353537 28.27257 
C 238.511609 28.896669 238.038553 29.743247 238.038553 30.625856 
C 238.038553 31.508465 238.511609 32.355043 239.353537 32.979142 
C 240.195464 33.603241 241.337523 33.953905 242.528187 33.953905 
z
" style="fill:#0000ff;opacity:0.2;stroke:#0000ff;stroke-linejoin:miter;"/>
   </g>
   <g id="patch_9">
    <path clip-path="url(#p390f18c66b)" d="M 424.358383 172.067949 
C 425.549048 172.067949 426.691106 171.717285 427.533034 171.093186 
C 428.374961 170.469087 428.848017 169.622509 428.848017 168.7399 
C 428.848017 167.857291 428.374961 167.010712 427.533034 166.386613 
C 426.691106 165.762515 425.549048 165.41185 424.358383 165.41185 
C 423.167718 165.41185 422.025659 165.762515 421.183732 166.386613 
C 420.341804 167.010712 419.868748 167.857291 419.868748 168.7399 
C 419.868748 169.622509 420.341804 170.469087 421.183732 171.093186 
C 422.025659 171.717285 423.167718 172.067949 424.358383 172.067949 
z
" style="fill:#0000ff;opacity:0.2;stroke:#0000ff;stroke-linejoin:miter;"/>
   </g>
   <g id="patch_10">
    <path clip-path="url(#p390f18c66b)" d="M 242.528187 271.909426 
C 177.428488 271.909426 116.818423 236.964909 116.818423 180.388072 
C 116.818423 123.811235 170.694036 82.210619 242.528187 82.210619 
C 318.851973 82.210619 368.237952 127.139284 368.237952 180.388072 
C 368.237952 233.63686 318.851973 271.909426 242.528187 271.909426 
" style="fill:none;stroke:#ff0000;stroke-linejoin:miter;stroke-width:0.5;"/>
   </g>
   <g id="patch_11">
    <path clip-path="url(#p390f18c66b)" d="M 242.528187 303.525894 
C 152.735499 303.525894 60.697992 250.277106 60.697992 168.7399 
C 60.697992 90.530742 141.511412 30.625856 242.528187 30.625856 
C 350.279414 30.625856 424.358383 97.186841 424.358383 168.7399 
C 424.358383 245.285032 350.279414 303.525894 242.528187 303.525894 
" style="fill:none;stroke:#0000ff;stroke-linejoin:miter;stroke-width:0.5;"/>
   </g>
   <g id="patch_12">
    <path clip-path="url(#p390f18c66b)" d="M 242.528187 281.061562 
C 245.802516 281.061562 248.943178 280.097235 251.258478 278.380963 
C 253.573778 276.664691 254.874682 274.336601 254.874682 271.909426 
C 254.874682 269.482251 253.573778 267.154161 251.258478 265.437889 
C 248.943178 263.721617 245.802516 262.757291 242.528187 262.757291 
C 239.253859 262.757291 236.113197 263.721617 233.797897 265.437889 
C 231.482597 267.154161 230.181693 269.482251 230.181693 271.909426 
C 230.181693 274.336601 231.482597 276.664691 233.797897 278.380963 
C 236.113197 280.097235 239.253859 281.061562 242.528187 281.061562 
z
" style="fill:#0000ff;opacity:0.2;stroke:#0000ff;stroke-linejoin:miter;"/>
   </g>
   <g id="patch_13">
    <path clip-path="url(#p390f18c66b)" d="M 242.528187 312.678029 
C 245.802516 312.678029 248.943178 311.713703 251.258478 309.997431 
C 253.573778 308.281159 254.874682 305.953069 254.874682 303.525894 
C 254.874682 301.098719 253.573778 298.770629 251.258478 297.054357 
C 248.943178 295.338085 245.802516 294.373759 242.528187 294.373759 
C 239.253859 294.373759 236.113197 295.338085 233.797897 297.054357 
C 231.482597 298.770629 230.181693 301.098719 230.181693 303.525894 
C 230.181693 305.953069 231.482597 308.281159 233.797897 309.997431 
C 236.113197 311.713703 239.253859 312.678029 242.528187 312.678029 
z
" style="fill:#ff0000;opacity:0.2;stroke:#ff0000;stroke-linejoin:miter;"/>
   </g>
   <g id="patch_14">
    <path d="M 242.528187 271.909426 
Q 242.528187 286.716137 242.528187 299.578305 
" style="fill:none;opacity:0.5;stroke:#0000ff;stroke-linecap:round;stroke-width:2.75;"/>
    <path d="M 244.028187 298.078305 
L 242.528187 299.578305 
L 241.028187 298.078305 
" style="fill:none;opacity:0.5;stroke:#0000ff;stroke-linecap:round;stroke-width:2.75;"/>
   </g>
   <g id="patch_15">
    <path clip-path="url(#p390f18c66b)" d="M 116.818423 191.204232 
C 120.688084 191.204232 124.399775 190.064573 127.136039 188.036252 
C 129.872302 186.007931 131.409735 183.256551 131.409735 180.388072 
C 131.409735 177.519593 129.872302 174.768213 127.136039 172.739892 
C 124.399775 170.711571 120.688084 169.571912 116.818423 169.571912 
C 112.948762 169.571912 109.237071 170.711571 106.500807 172.739892 
C 103.764544 174.768213 102.227111 177.519593 102.227111 180.388072 
C 102.227111 183.256551 103.764544 186.007931 106.500807 188.036252 
C 109.237071 190.064573 112.948762 191.204232 116.818423 191.204232 
z
" style="fill:#0000ff;opacity:0.2;stroke:#0000ff;stroke-linejoin:miter;"/>
   </g>
   <g id="patch_16">
    <path clip-path="url(#p390f18c66b)" d="M 60.697992 179.55606 
C 64.567654 179.55606 68.279344 178.416401 71.015608 176.38808 
C 73.751872 174.359759 75.289304 171.608379 75.289304 168.7399 
C 75.289304 165.87142 73.751872 163.120041 71.015608 161.09172 
C 68.279344 159.063398 64.567654 157.92374 60.697992 157.92374 
C 56.828331 157.92374 53.11664 159.063398 50.380377 161.09172 
C 47.644113 163.120041 46.10668 165.87142 46.10668 168.7399 
C 46.10668 171.608379 47.644113 174.359759 50.380377 176.38808 
C 53.11664 178.416401 56.828331 179.55606 60.697992 179.55606 
z
" style="fill:#ff0000;opacity:0.2;stroke:#ff0000;stroke-linejoin:miter;"/>
   </g>
   <g id="patch_17">
    <path d="M 116.818423 180.388072 
Q 89.736136 174.766961 64.90399 169.612883 
" style="fill:none;opacity:0.5;stroke:#0000ff;stroke-linecap:round;stroke-width:3.25;"/>
    <path d="M 66.06785 171.386419 
L 64.90399 169.612883 
L 66.677526 168.449023 
" style="fill:none;opacity:0.5;stroke:#0000ff;stroke-linecap:round;stroke-width:3.25;"/>
   </g>
   <g id="patch_18">
    <path clip-path="url(#p390f18c66b)" d="M 242.528187 92.194767 
C 246.100182 92.194767 249.526359 91.142774 252.05214 89.270478 
C 254.577922 87.398182 255.997091 84.858446 255.997091 82.210619 
C 255.997091 79.562792 254.577922 77.023057 252.05214 75.150761 
C 249.526359 73.278464 246.100182 72.226472 242.528187 72.226472 
C 238.956193 72.226472 235.530016 73.278464 233.004235 75.150761 
C 230.478453 77.023057 229.059284 79.562792 229.059284 82.210619 
C 229.059284 84.858446 230.478453 87.398182 233.004235 89.270478 
C 235.530016 91.142774 238.956193 92.194767 242.528187 92.194767 
z
" style="fill:#0000ff;opacity:0.2;stroke:#0000ff;stroke-linejoin:miter;"/>
   </g>
   <g id="patch_19">
    <path clip-path="url(#p390f18c66b)" d="M 242.528187 40.610004 
C 246.100182 40.610004 249.526359 39.558011 252.05214 37.685715 
C 254.577922 35.813418 255.997091 33.273683 255.997091 30.625856 
C 255.997091 27.978029 254.577922 25.438294 252.05214 23.565997 
C 249.526359 21.693701 246.100182 20.641708 242.528187 20.641708 
C 238.956193 20.641708 235.530016 21.693701 233.004235 23.565997 
C 230.478453 25.438294 229.059284 27.978029 229.059284 30.625856 
C 229.059284 33.273683 230.478453 35.813418 233.004235 37.685715 
C 235.530016 39.558011 238.956193 40.610004 242.528187 40.610004 
z
" style="fill:#ff0000;opacity:0.2;stroke:#ff0000;stroke-linejoin:miter;"/>
   </g>
   <g id="patch_20">
    <path d="M 242.528187 82.210619 
Q 242.528187 57.417881 242.528187 34.746464 
" style="fill:none;opacity:0.5;stroke:#0000ff;stroke-linecap:round;stroke-width:3;"/>
    <path d="M 241.028187 36.246464 
L 242.528187 34.746464 
L 244.028187 36.246464 
" style="fill:none;opacity:0.5;stroke:#0000ff;stroke-linecap:round;stroke-width:3;"/>
   </g>
   <g id="patch_21">
    <path clip-path="url(#p390f18c66b)" d="M 368.237952 190.37222 
C 371.809947 190.37222 375.236123 189.320227 377.761905 187.447931 
C 380.287687 185.575634 381.706855 183.035899 381.706855 180.388072 
C 381.706855 177.740245 380.287687 175.20051 377.761905 173.328213 
C 375.236123 171.455917 371.809947 170.403924 368.237952 170.403924 
C 364.665957 170.403924 361.239781 171.455917 358.713999 173.328213 
C 356.188217 175.20051 354.769049 177.740245 354.769049 180.388072 
C 354.769049 183.035899 356.188217 185.575634 358.713999 187.447931 
C 361.239781 189.320227 364.665957 190.37222 368.237952 190.37222 
z
" style="fill:#0000ff;opacity:0.2;stroke:#0000ff;stroke-linejoin:miter;"/>
   </g>
   <g id="patch_22">
    <path clip-path="url(#p390f18c66b)" d="M 424.358383 178.724047 
C 427.930378 178.724047 431.356554 177.672055 433.882335 175.799758 
C 436.408117 173.927462 437.827286 171.387727 437.827286 168.7399 
C 437.827286 166.092073 436.408117 163.552337 433.882335 161.680041 
C 431.356554 159.807745 427.930378 158.755752 424.358383 158.755752 
C 420.786388 158.755752 417.360212 159.807745 414.83443 161.680041 
C 412.308648 163.552337 410.889479 166.092073 410.889479 168.7399 
C 410.889479 171.387727 412.308648 173.927462 414.83443 175.799758 
C 417.360212 177.672055 420.786388 178.724047 424.358383 178.724047 
z
" style="fill:#ff0000;opacity:0.2;stroke:#ff0000;stroke-linejoin:miter;"/>
   </g>
   <g id="patch_23">
    <path d="M 368.237952 180.388072 
Q 395.320239 174.766961 420.325473 169.576957 
" style="fill:none;opacity:0.5;stroke:#0000ff;stroke-linecap:round;stroke-width:3;"/>
    <path d="M 418.551937 168.413097 
L 420.325473 169.576957 
L 419.161613 171.350493 
" style="fill:none;opacity:0.5;stroke:#0000ff;stroke-linecap:round;stroke-width:3;"/>
   </g>
   <g id="patch_24">
    <path clip-path="url(#p390f18c66b)" d="M 242.528187 312.678029 
C 245.802516 312.678029 248.943178 311.713703 251.258478 309.997431 
C 253.573778 308.281159 254.874682 305.953069 254.874682 303.525894 
C 254.874682 301.098719 253.573778 298.770629 251.258478 297.054357 
C 248.943178 295.338085 245.802516 294.373759 242.528187 294.373759 
C 239.253859 294.373759 236.113197 295.338085 233.797897 297.054357 
C 231.482597 298.770629 230.181693 301.098719 230.181693 303.525894 
C 230.181693 305.953069 231.482597 308.281159 233.797897 309.997431 
C 236.113197 311.713703 239.253859 312.678029 242.528187 312.678029 
z
" style="fill:#0000ff;opacity:0.2;stroke:#0000ff;stroke-linejoin:miter;"/>
   </g>
   <g id="patch_25">
    <path clip-path="url(#p390f18c66b)" d="M 242.528187 281.061562 
C 245.802516 281.061562 248.943178 280.097235 251.258478 278.380963 
C 253.573778 276.664691 254.874682 274.336601 254.874682 271.909426 
C 254.874682 269.482251 253.573778 267.154161 251.258478 265.437889 
C 248.943178 263.721617 245.802516 262.757291 242.528187 262.757291 
C 239.253859 262.757291 236.113197 263.721617 233.797897 265.437889 
C 231.482597 267.154161 230.181693 269.482251 230.181693 271.909426 
C 230.181693 274.336601 231.482597 276.664691 233.797897 278.380963 
C 236.113197 280.097235 239.253859 281.061562 242.528187 281.061562 
z
" style="fill:#ff0000;opacity:0.2;stroke:#ff0000;stroke-linejoin:miter;"/>
   </g>
   <g id="patch_26">
    <path d="M 242.528187 303.525894 
Q 242.528187 288.719183 242.528187 275.857015 
" style="fill:none;opacity:0.5;stroke:#ff0000;stroke-linecap:round;stroke-width:2.75;"/>
    <path d="M 241.028187 277.357015 
L 242.528187 275.857015 
L 244.028187 277.357015 
" style="fill:none;opacity:0.5;stroke:#ff0000;stroke-linecap:round;stroke-width:2.75;"/>
   </g>
   <g id="patch_27">
    <path clip-path="url(#p390f18c66b)" d="M 60.697992 179.55606 
C 64.567654 179.55606 68.279344 178.416401 71.015608 176.38808 
C 73.751872 174.359759 75.289304 171.608379 75.289304 168.7399 
C 75.289304 165.87142 73.751872 163.120041 71.015608 161.09172 
C 68.279344 159.063398 64.567654 157.92374 60.697992 157.92374 
C 56.828331 157.92374 53.11664 159.063398 50.380377 161.09172 
C 47.644113 163.120041 46.10668 165.87142 46.10668 168.7399 
C 46.10668 171.608379 47.644113 174.359759 50.380377 176.38808 
C 53.11664 178.416401 56.828331 179.55606 60.697992 179.55606 
z
" style="fill:#0000ff;opacity:0.2;stroke:#0000ff;stroke-linejoin:miter;"/>
   </g>
   <g id="patch_28">
    <path clip-path="url(#p390f18c66b)" d="M 116.818423 191.204232 
C 120.688084 191.204232 124.399775 190.064573 127.136039 188.036252 
C 129.872302 186.007931 131.409735 183.256551 131.409735 180.388072 
C 131.409735 177.519593 129.872302 174.768213 127.136039 172.739892 
C 124.399775 170.711571 120.688084 169.571912 116.818423 169.571912 
C 112.948762 169.571912 109.237071 170.711571 106.500807 172.739892 
C 103.764544 174.768213 102.227111 177.519593 102.227111 180.388072 
C 102.227111 183.256551 103.764544 186.007931 106.500807 188.036252 
C 109.237071 190.064573 112.948762 191.204232 116.818423 191.204232 
z
" style="fill:#ff0000;opacity:0.2;stroke:#ff0000;stroke-linejoin:miter;"/>
   </g>
   <g id="patch_29">
    <path d="M 60.697992 168.7399 
Q 87.780279 174.36101 112.612425 179.515089 
" style="fill:none;opacity:0.5;stroke:#ff0000;stroke-linecap:round;stroke-width:3.25;"/>
    <path d="M 111.448566 177.741553 
L 112.612425 179.515089 
L 110.838889 180.678949 
" style="fill:none;opacity:0.5;stroke:#ff0000;stroke-linecap:round;stroke-width:3.25;"/>
   </g>
   <g id="patch_30">
    <path clip-path="url(#p390f18c66b)" d="M 242.528187 40.610004 
C 246.100182 40.610004 249.526359 39.558011 252.05214 37.685715 
C 254.577922 35.813418 255.997091 33.273683 255.997091 30.625856 
C 255.997091 27.978029 254.577922 25.438294 252.05214 23.565997 
C 249.526359 21.693701 246.100182 20.641708 242.528187 20.641708 
C 238.956193 20.641708 235.530016 21.693701 233.004235 23.565997 
C 230.478453 25.438294 229.059284 27.978029 229.059284 30.625856 
C 229.059284 33.273683 230.478453 35.813418 233.004235 37.685715 
C 235.530016 39.558011 238.956193 40.610004 242.528187 40.610004 
z
" style="fill:#0000ff;opacity:0.2;stroke:#0000ff;stroke-linejoin:miter;"/>
   </g>
   <g id="patch_31">
    <path clip-path="url(#p390f18c66b)" d="M 242.528187 92.194767 
C 246.100182 92.194767 249.526359 91.142774 252.05214 89.270478 
C 254.577922 87.398182 255.997091 84.858446 255.997091 82.210619 
C 255.997091 79.562792 254.577922 77.023057 252.05214 75.150761 
C 249.526359 73.278464 246.100182 72.226472 242.528187 72.226472 
C 238.956193 72.226472 235.530016 73.278464 233.004235 75.150761 
C 230.478453 77.023057 229.059284 79.562792 229.059284 82.210619 
C 229.059284 84.858446 230.478453 87.398182 233.004235 89.270478 
C 235.530016 91.142774 238.956193 92.194767 242.528187 92.194767 
z
" style="fill:#ff0000;opacity:0.2;stroke:#ff0000;stroke-linejoin:miter;"/>
   </g>
   <g id="patch_32">
    <path d="M 242.528187 30.625856 
Q 242.528187 55.418594 242.528187 78.090012 
" style="fill:none;opacity:0.5;stroke:#ff0000;stroke-linecap:round;stroke-width:3;"/>
    <path d="M 244.028187 76.590012 
L 242.528187 78.090012 
L 241.028187 76.590012 
" style="fill:none;opacity:0.5;stroke:#ff0000;stroke-linecap:round;stroke-width:3;"/>
   </g>
   <g id="patch_33">
    <path clip-path="url(#p390f18c66b)" d="M 424.358383 178.724047 
C 427.930378 178.724047 431.356554 177.672055 433.882335 175.799758 
C 436.408117 173.927462 437.827286 171.387727 437.827286 168.7399 
C 437.827286 166.092073 436.408117 163.552337 433.882335 161.680041 
C 431.356554 159.807745 427.930378 158.755752 424.358383 158.755752 
C 420.786388 158.755752 417.360212 159.807745 414.83443 161.680041 
C 412.308648 163.552337 410.889479 166.092073 410.889479 168.7399 
C 410.889479 171.387727 412.308648 173.927462 414.83443 175.799758 
C 417.360212 177.672055 420.786388 178.724047 424.358383 178.724047 
z
" style="fill:#0000ff;opacity:0.2;stroke:#0000ff;stroke-linejoin:miter;"/>
   </g>
   <g id="patch_34">
    <path clip-path="url(#p390f18c66b)" d="M 368.237952 190.37222 
C 371.809947 190.37222 375.236123 189.320227 377.761905 187.447931 
C 380.287687 185.575634 381.706855 183.035899 381.706855 180.388072 
C 381.706855 177.740245 380.287687 175.20051 377.761905 173.328213 
C 375.236123 171.455917 371.809947 170.403924 368.237952 170.403924 
C 364.665957 170.403924 361.239781 171.455917 358.713999 173.328213 
C 356.188217 175.20051 354.769049 177.740245 354.769049 180.388072 
C 354.769049 183.035899 356.188217 185.575634 358.713999 187.447931 
C 361.239781 189.320227 364.665957 190.37222 368.237952 190.37222 
z
" style="fill:#ff0000;opacity:0.2;stroke:#ff0000;stroke-linejoin:miter;"/>
   </g>
   <g id="patch_35">
    <path d="M 424.358383 168.7399 
Q 397.276096 174.36101 372.270862 179.551014 
" style="fill:none;opacity:0.5;stroke:#ff0000;stroke-linecap:round;stroke-width:3;"/>
    <path d="M 374.044398 180.714874 
L 372.270862 179.551014 
L 373.434722 177.777478 
" style="fill:none;opacity:0.5;stroke:#ff0000;stroke-linecap:round;stroke-width:3;"/>
   </g>
   <g id="patch_36">
    <path clip-path="url(#p390f18c66b)" d="M 242.528187 296.037783 
C 245.50485 296.037783 248.359997 295.161122 250.464815 293.600876 
C 252.569633 292.040629 253.752274 289.924182 253.752274 287.71766 
C 253.752274 285.511138 252.569633 283.394692 250.464815 281.834445 
C 248.359997 280.274198 245.50485 279.397537 242.528187 279.397537 
C 239.551525 279.397537 236.696378 280.274198 234.59156 281.834445 
C 232.486742 283.394692 231.304101 285.511138 231.304101 287.71766 
C 231.304101 289.924182 232.486742 292.040629 234.59156 293.600876 
C 236.696378 295.161122 239.551525 296.037783 242.528187 296.037783 
z
" style="fill:#008000;opacity:0.2;stroke:#008000;stroke-linejoin:miter;"/>
   </g>
   <g id="patch_37">
    <path clip-path="url(#p390f18c66b)" d="M 88.758208 182.884109 
C 91.73487 182.884109 94.590017 182.007448 96.694835 180.447201 
C 98.799653 178.886954 99.982294 176.770508 99.982294 174.563986 
C 99.982294 172.357463 98.799653 170.241017 96.694835 168.68077 
C 94.590017 167.120523 91.73487 166.243863 88.758208 166.243863 
C 85.781545 166.243863 82.926398 167.120523 80.82158 168.68077 
C 78.716762 170.241017 77.534122 172.357463 77.534122 174.563986 
C 77.534122 176.770508 78.716762 178.886954 80.82158 180.447201 
C 82.926398 182.007448 85.781545 182.884109 88.758208 182.884109 
z
" style="fill:#008000;opacity:0.2;stroke:#008000;stroke-linejoin:miter;"/>
   </g>
   <g id="patch_38">
    <path clip-path="url(#p390f18c66b)" d="M 242.528187 64.738361 
C 245.50485 64.738361 248.359997 63.8617 250.464815 62.301453 
C 252.569633 60.741206 253.752274 58.62476 253.752274 56.418238 
C 253.752274 54.211715 252.569633 52.095269 250.464815 50.535022 
C 248.359997 48.974775 245.50485 48.098115 242.528187 48.098115 
C 239.551525 48.098115 236.696378 48.974775 234.59156 50.535022 
C 232.486742 52.095269 231.304101 54.211715 231.304101 56.418238 
C 231.304101 58.62476 232.486742 60.741206 234.59156 62.301453 
C 236.696378 63.8617 239.551525 64.738361 242.528187 64.738361 
z
" style="fill:#008000;opacity:0.2;stroke:#008000;stroke-linejoin:miter;"/>
   </g>
   <g id="patch_39">
    <path clip-path="url(#p390f18c66b)" d="M 396.298167 182.884109 
C 399.27483 182.884109 402.129977 182.007448 404.234795 180.447201 
C 406.339613 178.886954 407.522253 176.770508 407.522253 174.563986 
C 407.522253 172.357463 406.339613 170.241017 404.234795 168.68077 
C 402.129977 167.120523 399.27483 166.243863 396.298167 166.243863 
C 393.321505 166.243863 390.466358 167.120523 388.36154 168.68077 
C 386.256722 170.241017 385.074081 172.357463 385.074081 174.563986 
C 385.074081 176.770508 386.256722 178.886954 388.36154 180.447201 
C 390.466358 182.007448 393.321505 182.884109 396.298167 182.884109 
z
" style="fill:#008000;opacity:0.2;stroke:#008000;stroke-linejoin:miter;"/>
   </g>
   <g id="patch_40">
    <path d="M 242.528187 287.71766 
Q 165.643198 231.140823 88.758208 174.563986 
" style="fill:none;opacity:0.5;stroke:#008000;stroke-linecap:round;stroke-width:2;"/>
   </g>
   <g id="patch_41">
    <path d="M 242.528187 273.32364 
Q 242.528187 286.716137 242.528187 300.108635 
" style="fill:none;opacity:0.5;stroke:#800080;stroke-linecap:round;stroke-width:2;"/>
    <path d="M 241.028187 274.82364 
L 242.528187 273.32364 
L 244.028187 274.82364 
" style="fill:none;opacity:0.5;stroke:#800080;stroke-linecap:round;stroke-width:2;"/>
    <path d="M 244.028187 298.608635 
L 242.528187 300.108635 
L 241.028187 298.608635 
" style="fill:none;opacity:0.5;stroke:#800080;stroke-linecap:round;stroke-width:2;"/>
   </g>
   <g id="patch_42">
    <path d="M 88.758208 174.563986 
Q 165.643198 115.491112 242.528187 56.418238 
" style="fill:none;opacity:0.5;stroke:#008000;stroke-linecap:round;stroke-width:2;"/>
   </g>
   <g id="patch_43">
    <path d="M 115.433721 180.100668 
Q 89.736136 174.766961 64.038551 169.433255 
" style="fill:none;opacity:0.5;stroke:#800080;stroke-linecap:round;stroke-width:2;"/>
    <path d="M 114.269861 178.327132 
L 115.433721 180.100668 
L 113.660185 181.264528 
" style="fill:none;opacity:0.5;stroke:#800080;stroke-linecap:round;stroke-width:2;"/>
    <path d="M 65.202411 171.206791 
L 64.038551 169.433255 
L 65.812088 168.269395 
" style="fill:none;opacity:0.5;stroke:#800080;stroke-linecap:round;stroke-width:2;"/>
   </g>
   <g id="patch_44">
    <path d="M 242.528187 56.418238 
Q 319.413177 115.491112 396.298167 174.563986 
" style="fill:none;opacity:0.5;stroke:#008000;stroke-linecap:round;stroke-width:2;"/>
   </g>
   <g id="patch_45">
    <path d="M 242.528187 80.796406 
Q 242.528187 57.417881 242.528187 34.039357 
" style="fill:none;opacity:0.5;stroke:#800080;stroke-linecap:round;stroke-width:2;"/>
    <path d="M 244.028187 79.296406 
L 242.528187 80.796406 
L 241.028187 79.296406 
" style="fill:none;opacity:0.5;stroke:#800080;stroke-linecap:round;stroke-width:2;"/>
    <path d="M 241.028187 35.539357 
L 242.528187 34.039357 
L 244.028187 35.539357 
" style="fill:none;opacity:0.5;stroke:#800080;stroke-linecap:round;stroke-width:2;"/>
   </g>
   <g id="patch_46">
    <path d="M 396.298167 174.563986 
Q 319.413177 231.140823 242.528187 287.71766 
" style="fill:none;opacity:0.5;stroke:#008000;stroke-linecap:round;stroke-width:2;"/>
   </g>
   <g id="patch_47">
    <path d="M 369.622654 180.100668 
Q 395.320239 174.766961 421.017824 169.433255 
" style="fill:none;opacity:0.5;stroke:#800080;stroke-linecap:round;stroke-width:2;"/>
    <path d="M 371.39619 181.264528 
L 369.622654 180.100668 
L 370.786514 178.327132 
" style="fill:none;opacity:0.5;stroke:#800080;stroke-linecap:round;stroke-width:2;"/>
    <path d="M 419.244287 168.269395 
L 421.017824 169.433255 
L 419.853964 171.206791 
" style="fill:none;opacity:0.5;stroke:#800080;stroke-linecap:round;stroke-width:2;"/>
   </g>
   <g id="line2d_1">
    <path clip-path="url(#p390f18c66b)" d="M 242.528187 271.909426 
L 116.818423 180.388072 
L 242.528187 82.210619 
L 368.237952 180.388072 
" style="fill:none;stroke:#ff0000;stroke-linecap:square;stroke-width:0.2;"/>
   </g>
   <g id="line2d_2">
    <path clip-path="url(#p390f18c66b)" d="M 242.528187 303.525894 
L 60.697992 168.7399 
L 242.528187 30.625856 
L 424.358383 168.7399 
" style="fill:none;stroke:#0000ff;stroke-linecap:square;stroke-width:0.2;"/>
   </g>
  </g>
 </g>
 <defs>
  <clipPath id="p390f18c66b">
   <rect height="307.51175" width="409.903625" x="37.576375" y="13.32"/>
  </clipPath>
 </defs>
</svg>
