<?xml version="1.0" encoding="utf-8" standalone="no"?>
<!DOCTYPE svg PUBLIC "-//W3C//DTD SVG 1.1//EN"
  "http://www.w3.org/Graphics/SVG/1.1/DTD/svg11.dtd">
<!-- Created with matplotlib (http://matplotlib.org/) -->
<svg height="345.6pt" version="1.1" viewBox="0 0 460.8 345.6" width="460.8pt" xmlns="http://www.w3.org/2000/svg" xmlns:xlink="http://www.w3.org/1999/xlink">
 <defs>
  <style type="text/css">
*{stroke-linecap:butt;stroke-linejoin:round;}
  </style>
 </defs>
 <g id="figure_1">
  <g id="patch_1">
   <path d="M 0 345.6 
L 460.8 345.6 
L 460.8 0 
L 0 0 
z
" style="fill:#ffffff;"/>
  </g>
  <g id="axes_1">
   <g id="patch_2">
    <path clip-path="url(#pe4786bf674)" d="M 235.988949 56.294371 
C 236.351855 56.294371 236.699946 56.217766 236.956559 56.081428 
C 237.213172 55.94509 237.357356 55.76015 237.357356 55.567339 
C 237.357356 55.374528 237.213172 55.189587 236.956559 55.053249 
C 236.699946 54.916911 236.351855 54.840307 235.988949 54.840307 
C 235.626043 54.840307 235.277952 54.916911 235.021339 55.053249 
C 234.764726 55.189587 234.620542 55.374528 234.620542 55.567339 
C 234.620542 55.76015 234.764726 55.94509 235.021339 56.081428 
C 235.277952 56.217766 235.626043 56.294371 235.988949 56.294371 
z
" style="fill:#ff0000;opacity:0.2;stroke:#ff0000;stroke-linejoin:miter;"/>
   </g>
   <g id="patch_3">
    <path clip-path="url(#pe4786bf674)" d="M 377.619067 175.164153 
C 377.981973 175.164153 378.330064 175.087549 378.586677 174.95121 
C 378.84329 174.814872 378.987474 174.629932 378.987474 174.437121 
C 378.987474 174.24431 378.84329 174.05937 378.586677 173.923031 
C 378.330064 173.786693 377.981973 173.710089 377.619067 173.710089 
C 377.256161 173.710089 376.90807 173.786693 376.651457 173.923031 
C 376.394844 174.05937 376.25066 174.24431 376.25066 174.437121 
C 376.25066 174.629932 376.394844 174.814872 376.651457 174.95121 
C 376.90807 175.087549 377.256161 175.164153 377.619067 175.164153 
z
" style="fill:#ff0000;opacity:0.2;stroke:#ff0000;stroke-linejoin:miter;"/>
   </g>
   <g id="patch_4">
    <path clip-path="url(#pe4786bf674)" d="M 235.988949 294.033935 
C 236.351855 294.033935 236.699946 293.957331 236.956559 293.820993 
C 237.213172 293.684654 237.357356 293.499714 237.357356 293.306903 
C 237.357356 293.114092 237.213172 292.929152 236.956559 292.792814 
C 236.699946 292.656475 236.351855 292.579871 235.988949 292.579871 
C 235.626043 292.579871 235.277952 292.656475 235.021339 292.792814 
C 234.764726 292.929152 234.620542 293.114092 234.620542 293.306903 
C 234.620542 293.499714 234.764726 293.684654 235.021339 293.820993 
C 235.277952 293.957331 235.626043 294.033935 235.988949 294.033935 
z
" style="fill:#ff0000;opacity:0.2;stroke:#ff0000;stroke-linejoin:miter;"/>
   </g>
   <g id="patch_5">
    <path clip-path="url(#pe4786bf674)" d="M 94.358831 175.164153 
C 94.721737 175.164153 95.069828 175.087549 95.326441 174.95121 
C 95.583054 174.814872 95.727238 174.629932 95.727238 174.437121 
C 95.727238 174.24431 95.583054 174.05937 95.326441 173.923031 
C 95.069828 173.786693 94.721737 173.710089 94.358831 173.710089 
C 93.995926 173.710089 93.647835 173.786693 93.391221 173.923031 
C 93.134608 174.05937 92.990424 174.24431 92.990424 174.437121 
C 92.990424 174.629932 93.134608 174.814872 93.391221 174.95121 
C 93.647835 175.087549 93.995926 175.164153 94.358831 175.164153 
z
" style="fill:#ff0000;opacity:0.2;stroke:#ff0000;stroke-linejoin:miter;"/>
   </g>
   <g id="patch_6">
    <path clip-path="url(#pe4786bf674)" d="M 235.988949 56.294371 
C 236.351855 56.294371 236.699946 56.217766 236.956559 56.081428 
C 237.213172 55.94509 237.357356 55.76015 237.357356 55.567339 
C 237.357356 55.374528 237.213172 55.189587 236.956559 55.053249 
C 236.699946 54.916911 236.351855 54.840307 235.988949 54.840307 
C 235.626043 54.840307 235.277952 54.916911 235.021339 55.053249 
C 234.764726 55.189587 234.620542 55.374528 234.620542 55.567339 
C 234.620542 55.76015 234.764726 55.94509 235.021339 56.081428 
C 235.277952 56.217766 235.626043 56.294371 235.988949 56.294371 
z
" style="fill:#0000ff;opacity:0.2;stroke:#0000ff;stroke-linejoin:miter;"/>
   </g>
   <g id="patch_7">
    <path clip-path="url(#pe4786bf674)" d="M 394.03995 175.164153 
C 394.402856 175.164153 394.750947 175.087549 395.00756 174.95121 
C 395.264173 174.814872 395.408357 174.629932 395.408357 174.437121 
C 395.408357 174.24431 395.264173 174.05937 395.00756 173.923031 
C 394.750947 173.786693 394.402856 173.710089 394.03995 173.710089 
C 393.677044 173.710089 393.328953 173.786693 393.07234 173.923031 
C 392.815727 174.05937 392.671543 174.24431 392.671543 174.437121 
C 392.671543 174.629932 392.815727 174.814872 393.07234 174.95121 
C 393.328953 175.087549 393.677044 175.164153 394.03995 175.164153 
z
" style="fill:#0000ff;opacity:0.2;stroke:#0000ff;stroke-linejoin:miter;"/>
   </g>
   <g id="patch_8">
    <path clip-path="url(#pe4786bf674)" d="M 235.988949 294.033935 
C 236.351855 294.033935 236.699946 293.957331 236.956559 293.820993 
C 237.213172 293.684654 237.357356 293.499714 237.357356 293.306903 
C 237.357356 293.114092 237.213172 292.929152 236.956559 292.792814 
C 236.699946 292.656475 236.351855 292.579871 235.988949 292.579871 
C 235.626043 292.579871 235.277952 292.656475 235.021339 292.792814 
C 234.764726 292.929152 234.620542 293.114092 234.620542 293.306903 
C 234.620542 293.499714 234.764726 293.684654 235.021339 293.820993 
C 235.277952 293.957331 235.626043 294.033935 235.988949 294.033935 
z
" style="fill:#0000ff;opacity:0.2;stroke:#0000ff;stroke-linejoin:miter;"/>
   </g>
   <g id="patch_9">
    <path clip-path="url(#pe4786bf674)" d="M 77.937948 175.164153 
C 78.300854 175.164153 78.648945 175.087549 78.905558 174.95121 
C 79.162171 174.814872 79.306355 174.629932 79.306355 174.437121 
C 79.306355 174.24431 79.162171 174.05937 78.905558 173.923031 
C 78.648945 173.786693 78.300854 173.710089 77.937948 173.710089 
C 77.575042 173.710089 77.226951 173.786693 76.970338 173.923031 
C 76.713725 174.05937 76.569541 174.24431 76.569541 174.437121 
C 76.569541 174.629932 76.713725 174.814872 76.970338 174.95121 
C 77.226951 175.087549 77.575042 175.164153 77.937948 175.164153 
z
" style="fill:#0000ff;opacity:0.2;stroke:#0000ff;stroke-linejoin:miter;"/>
   </g>
   <g id="patch_10">
    <path clip-path="url(#pe4786bf674)" d="M 235.988949 55.567339 
C 335.882655 55.567339 377.619067 119.546182 377.619067 174.437121 
C 377.619067 231.509157 335.882655 293.306903 235.988949 293.306903 
C 136.095243 293.306903 94.358831 231.509157 94.358831 174.437121 
C 94.358831 119.546182 136.095243 55.567339 235.988949 55.567339 
" style="fill:none;stroke:#ff0000;stroke-linejoin:miter;stroke-width:0.5;"/>
   </g>
   <g id="patch_11">
    <path clip-path="url(#pe4786bf674)" d="M 235.988949 55.567339 
C 346.829911 55.567339 394.03995 118.092117 394.03995 174.437121 
C 394.03995 232.963222 346.829911 293.306903 235.988949 293.306903 
C 125.147987 293.306903 77.937948 232.963222 77.937948 174.437121 
C 77.937948 118.092117 125.147987 55.567339 235.988949 55.567339 
" style="fill:none;stroke:#0000ff;stroke-linejoin:miter;stroke-width:0.5;"/>
   </g>
   <g id="patch_12">
    <path clip-path="url(#pe4786bf674)" d="M 235.988949 57.566678 
C 236.98694 57.566678 237.94419 57.356015 238.649876 56.981085 
C 239.355562 56.606155 239.752068 56.09757 239.752068 55.567339 
C 239.752068 55.037108 239.355562 54.528523 238.649876 54.153593 
C 237.94419 53.778663 236.98694 53.568 235.988949 53.568 
C 234.990958 53.568 234.033708 53.778663 233.328022 54.153593 
C 232.622336 54.528523 232.22583 55.037108 232.22583 55.567339 
C 232.22583 56.09757 232.622336 56.606155 233.328022 56.981085 
C 234.033708 57.356015 234.990958 57.566678 235.988949 57.566678 
z
" style="fill:#0000ff;opacity:0.2;stroke:#0000ff;stroke-linejoin:miter;"/>
   </g>
   <g id="patch_13">
    <path clip-path="url(#pe4786bf674)" d="M 235.988949 57.566678 
C 236.98694 57.566678 237.94419 57.356015 238.649876 56.981085 
C 239.355562 56.606155 239.752068 56.09757 239.752068 55.567339 
C 239.752068 55.037108 239.355562 54.528523 238.649876 54.153593 
C 237.94419 53.778663 236.98694 53.568 235.988949 53.568 
C 234.990958 53.568 234.033708 53.778663 233.328022 54.153593 
C 232.622336 54.528523 232.22583 55.037108 232.22583 55.567339 
C 232.22583 56.09757 232.622336 56.606155 233.328022 56.981085 
C 234.033708 57.356015 234.990958 57.566678 235.988949 57.566678 
z
" style="fill:#ff0000;opacity:0.2;stroke:#ff0000;stroke-linejoin:miter;"/>
   </g>
   <g id="patch_14">
    <path d="M 235.988949 55.567339 
Q 235.988949 55.567339 235.988949 55.567339 
" style="fill:none;opacity:0.5;stroke:#0000ff;stroke-linecap:round;stroke-width:2.75;"/>
   </g>
   <g id="patch_15">
    <path clip-path="url(#pe4786bf674)" d="M 377.619067 176.799976 
C 378.798511 176.799976 379.929806 176.551011 380.763799 176.107912 
C 381.597792 175.664813 382.06639 175.063757 382.06639 174.437121 
C 382.06639 173.810484 381.597792 173.209429 380.763799 172.76633 
C 379.929806 172.323231 378.798511 172.074266 377.619067 172.074266 
C 376.439623 172.074266 375.308328 172.323231 374.474335 172.76633 
C 373.640342 173.209429 373.171744 173.810484 373.171744 174.437121 
C 373.171744 175.063757 373.640342 175.664813 374.474335 176.107912 
C 375.308328 176.551011 376.439623 176.799976 377.619067 176.799976 
z
" style="fill:#0000ff;opacity:0.2;stroke:#0000ff;stroke-linejoin:miter;"/>
   </g>
   <g id="patch_16">
    <path clip-path="url(#pe4786bf674)" d="M 394.03995 176.799976 
C 395.219394 176.799976 396.350689 176.551011 397.184682 176.107912 
C 398.018675 175.664813 398.487273 175.063757 398.487273 174.437121 
C 398.487273 173.810484 398.018675 173.209429 397.184682 172.76633 
C 396.350689 172.323231 395.219394 172.074266 394.03995 172.074266 
C 392.860506 172.074266 391.729211 172.323231 390.895218 172.76633 
C 390.061226 173.209429 389.592628 173.810484 389.592628 174.437121 
C 389.592628 175.063757 390.061226 175.664813 390.895218 176.107912 
C 391.729211 176.551011 392.860506 176.799976 394.03995 176.799976 
z
" style="fill:#ff0000;opacity:0.2;stroke:#ff0000;stroke-linejoin:miter;"/>
   </g>
   <g id="patch_17">
    <path d="M 377.619067 174.437121 
Q 384.829262 174.437121 389.74136 174.437121 
" style="fill:none;opacity:0.5;stroke:#0000ff;stroke-linecap:round;stroke-width:3.25;"/>
    <path d="M 388.24136 172.937121 
L 389.74136 174.437121 
L 388.24136 175.937121 
" style="fill:none;opacity:0.5;stroke:#0000ff;stroke-linecap:round;stroke-width:3.25;"/>
   </g>
   <g id="patch_18">
    <path clip-path="url(#pe4786bf674)" d="M 235.988949 295.488 
C 237.077666 295.488 238.121939 295.258186 238.891779 294.849172 
C 239.661618 294.440157 240.09417 293.885337 240.09417 293.306903 
C 240.09417 292.728469 239.661618 292.173649 238.891779 291.764635 
C 238.121939 291.35562 237.077666 291.125806 235.988949 291.125806 
C 234.900232 291.125806 233.855959 291.35562 233.08612 291.764635 
C 232.31628 292.173649 231.883728 292.728469 231.883728 293.306903 
C 231.883728 293.885337 232.31628 294.440157 233.08612 294.849172 
C 233.855959 295.258186 234.900232 295.488 235.988949 295.488 
z
" style="fill:#0000ff;opacity:0.2;stroke:#0000ff;stroke-linejoin:miter;"/>
   </g>
   <g id="patch_19">
    <path clip-path="url(#pe4786bf674)" d="M 235.988949 295.488 
C 237.077666 295.488 238.121939 295.258186 238.891779 294.849172 
C 239.661618 294.440157 240.09417 293.885337 240.09417 293.306903 
C 240.09417 292.728469 239.661618 292.173649 238.891779 291.764635 
C 238.121939 291.35562 237.077666 291.125806 235.988949 291.125806 
C 234.900232 291.125806 233.855959 291.35562 233.08612 291.764635 
C 232.31628 292.173649 231.883728 292.728469 231.883728 293.306903 
C 231.883728 293.885337 232.31628 294.440157 233.08612 294.849172 
C 233.855959 295.258186 234.900232 295.488 235.988949 295.488 
z
" style="fill:#ff0000;opacity:0.2;stroke:#ff0000;stroke-linejoin:miter;"/>
   </g>
   <g id="patch_20">
    <path d="M 235.988949 293.306903 
Q 235.988949 293.306903 235.988949 293.306903 
" style="fill:none;opacity:0.5;stroke:#0000ff;stroke-linecap:round;stroke-width:3;"/>
   </g>
   <g id="patch_21">
    <path clip-path="url(#pe4786bf674)" d="M 94.358831 176.618218 
C 95.447549 176.618218 96.491821 176.388404 97.261661 175.979389 
C 98.0315 175.570375 98.464052 175.015555 98.464052 174.437121 
C 98.464052 173.858687 98.0315 173.303867 97.261661 172.894853 
C 96.491821 172.485838 95.447549 172.256024 94.358831 172.256024 
C 93.270114 172.256024 92.225841 172.485838 91.456002 172.894853 
C 90.686162 173.303867 90.25361 173.858687 90.25361 174.437121 
C 90.25361 175.015555 90.686162 175.570375 91.456002 175.979389 
C 92.225841 176.388404 93.270114 176.618218 94.358831 176.618218 
z
" style="fill:#0000ff;opacity:0.2;stroke:#0000ff;stroke-linejoin:miter;"/>
   </g>
   <g id="patch_22">
    <path clip-path="url(#pe4786bf674)" d="M 77.937948 176.618218 
C 79.026665 176.618218 80.070938 176.388404 80.840778 175.979389 
C 81.610617 175.570375 82.043169 175.015555 82.043169 174.437121 
C 82.043169 173.858687 81.610617 173.303867 80.840778 172.894853 
C 80.070938 172.485838 79.026665 172.256024 77.937948 172.256024 
C 76.849231 172.256024 75.804958 172.485838 75.035119 172.894853 
C 74.265279 173.303867 73.832727 173.858687 73.832727 174.437121 
C 73.832727 175.015555 74.265279 175.570375 75.035119 175.979389 
C 75.804958 176.388404 76.849231 176.618218 77.937948 176.618218 
z
" style="fill:#ff0000;opacity:0.2;stroke:#ff0000;stroke-linejoin:miter;"/>
   </g>
   <g id="patch_23">
    <path d="M 94.358831 174.437121 
Q 87.148636 174.437121 82.059762 174.437121 
" style="fill:none;opacity:0.5;stroke:#0000ff;stroke-linecap:round;stroke-width:3;"/>
    <path d="M 83.559762 175.937121 
L 82.059762 174.437121 
L 83.559762 172.937121 
" style="fill:none;opacity:0.5;stroke:#0000ff;stroke-linecap:round;stroke-width:3;"/>
   </g>
   <g id="patch_24">
    <path clip-path="url(#pe4786bf674)" d="M 235.988949 57.566678 
C 236.98694 57.566678 237.94419 57.356015 238.649876 56.981085 
C 239.355562 56.606155 239.752068 56.09757 239.752068 55.567339 
C 239.752068 55.037108 239.355562 54.528523 238.649876 54.153593 
C 237.94419 53.778663 236.98694 53.568 235.988949 53.568 
C 234.990958 53.568 234.033708 53.778663 233.328022 54.153593 
C 232.622336 54.528523 232.22583 55.037108 232.22583 55.567339 
C 232.22583 56.09757 232.622336 56.606155 233.328022 56.981085 
C 234.033708 57.356015 234.990958 57.566678 235.988949 57.566678 
z
" style="fill:#0000ff;opacity:0.2;stroke:#0000ff;stroke-linejoin:miter;"/>
   </g>
   <g id="patch_25">
    <path clip-path="url(#pe4786bf674)" d="M 235.988949 57.566678 
C 236.98694 57.566678 237.94419 57.356015 238.649876 56.981085 
C 239.355562 56.606155 239.752068 56.09757 239.752068 55.567339 
C 239.752068 55.037108 239.355562 54.528523 238.649876 54.153593 
C 237.94419 53.778663 236.98694 53.568 235.988949 53.568 
C 234.990958 53.568 234.033708 53.778663 233.328022 54.153593 
C 232.622336 54.528523 232.22583 55.037108 232.22583 55.567339 
C 232.22583 56.09757 232.622336 56.606155 233.328022 56.981085 
C 234.033708 57.356015 234.990958 57.566678 235.988949 57.566678 
z
" style="fill:#ff0000;opacity:0.2;stroke:#ff0000;stroke-linejoin:miter;"/>
   </g>
   <g id="patch_26">
    <path d="M 235.988949 55.567339 
Q 235.988949 55.567339 235.988949 55.567339 
" style="fill:none;opacity:0.5;stroke:#ff0000;stroke-linecap:round;stroke-width:2.75;"/>
   </g>
   <g id="patch_27">
    <path clip-path="url(#pe4786bf674)" d="M 394.03995 176.799976 
C 395.219394 176.799976 396.350689 176.551011 397.184682 176.107912 
C 398.018675 175.664813 398.487273 175.063757 398.487273 174.437121 
C 398.487273 173.810484 398.018675 173.209429 397.184682 172.76633 
C 396.350689 172.323231 395.219394 172.074266 394.03995 172.074266 
C 392.860506 172.074266 391.729211 172.323231 390.895218 172.76633 
C 390.061226 173.209429 389.592628 173.810484 389.592628 174.437121 
C 389.592628 175.063757 390.061226 175.664813 390.895218 176.107912 
C 391.729211 176.551011 392.860506 176.799976 394.03995 176.799976 
z
" style="fill:#0000ff;opacity:0.2;stroke:#0000ff;stroke-linejoin:miter;"/>
   </g>
   <g id="patch_28">
    <path clip-path="url(#pe4786bf674)" d="M 377.619067 176.799976 
C 378.798511 176.799976 379.929806 176.551011 380.763799 176.107912 
C 381.597792 175.664813 382.06639 175.063757 382.06639 174.437121 
C 382.06639 173.810484 381.597792 173.209429 380.763799 172.76633 
C 379.929806 172.323231 378.798511 172.074266 377.619067 172.074266 
C 376.439623 172.074266 375.308328 172.323231 374.474335 172.76633 
C 373.640342 173.209429 373.171744 173.810484 373.171744 174.437121 
C 373.171744 175.063757 373.640342 175.664813 374.474335 176.107912 
C 375.308328 176.551011 376.439623 176.799976 377.619067 176.799976 
z
" style="fill:#ff0000;opacity:0.2;stroke:#ff0000;stroke-linejoin:miter;"/>
   </g>
   <g id="patch_29">
    <path d="M 394.03995 174.437121 
Q 386.829755 174.437121 381.917657 174.437121 
" style="fill:none;opacity:0.5;stroke:#ff0000;stroke-linecap:round;stroke-width:3.25;"/>
    <path d="M 383.417657 175.937121 
L 381.917657 174.437121 
L 383.417657 172.937121 
" style="fill:none;opacity:0.5;stroke:#ff0000;stroke-linecap:round;stroke-width:3.25;"/>
   </g>
   <g id="patch_30">
    <path clip-path="url(#pe4786bf674)" d="M 235.988949 295.488 
C 237.077666 295.488 238.121939 295.258186 238.891779 294.849172 
C 239.661618 294.440157 240.09417 293.885337 240.09417 293.306903 
C 240.09417 292.728469 239.661618 292.173649 238.891779 291.764635 
C 238.121939 291.35562 237.077666 291.125806 235.988949 291.125806 
C 234.900232 291.125806 233.855959 291.35562 233.08612 291.764635 
C 232.31628 292.173649 231.883728 292.728469 231.883728 293.306903 
C 231.883728 293.885337 232.31628 294.440157 233.08612 294.849172 
C 233.855959 295.258186 234.900232 295.488 235.988949 295.488 
z
" style="fill:#0000ff;opacity:0.2;stroke:#0000ff;stroke-linejoin:miter;"/>
   </g>
   <g id="patch_31">
    <path clip-path="url(#pe4786bf674)" d="M 235.988949 295.488 
C 237.077666 295.488 238.121939 295.258186 238.891779 294.849172 
C 239.661618 294.440157 240.09417 293.885337 240.09417 293.306903 
C 240.09417 292.728469 239.661618 292.173649 238.891779 291.764635 
C 238.121939 291.35562 237.077666 291.125806 235.988949 291.125806 
C 234.900232 291.125806 233.855959 291.35562 233.08612 291.764635 
C 232.31628 292.173649 231.883728 292.728469 231.883728 293.306903 
C 231.883728 293.885337 232.31628 294.440157 233.08612 294.849172 
C 233.855959 295.258186 234.900232 295.488 235.988949 295.488 
z
" style="fill:#ff0000;opacity:0.2;stroke:#ff0000;stroke-linejoin:miter;"/>
   </g>
   <g id="patch_32">
    <path d="M 235.988949 293.306903 
Q 235.988949 293.306903 235.988949 293.306903 
" style="fill:none;opacity:0.5;stroke:#ff0000;stroke-linecap:round;stroke-width:3;"/>
   </g>
   <g id="patch_33">
    <path clip-path="url(#pe4786bf674)" d="M 77.937948 176.618218 
C 79.026665 176.618218 80.070938 176.388404 80.840778 175.979389 
C 81.610617 175.570375 82.043169 175.015555 82.043169 174.437121 
C 82.043169 173.858687 81.610617 173.303867 80.840778 172.894853 
C 80.070938 172.485838 79.026665 172.256024 77.937948 172.256024 
C 76.849231 172.256024 75.804958 172.485838 75.035119 172.894853 
C 74.265279 173.303867 73.832727 173.858687 73.832727 174.437121 
C 73.832727 175.015555 74.265279 175.570375 75.035119 175.979389 
C 75.804958 176.388404 76.849231 176.618218 77.937948 176.618218 
z
" style="fill:#0000ff;opacity:0.2;stroke:#0000ff;stroke-linejoin:miter;"/>
   </g>
   <g id="patch_34">
    <path clip-path="url(#pe4786bf674)" d="M 94.358831 176.618218 
C 95.447549 176.618218 96.491821 176.388404 97.261661 175.979389 
C 98.0315 175.570375 98.464052 175.015555 98.464052 174.437121 
C 98.464052 173.858687 98.0315 173.303867 97.261661 172.894853 
C 96.491821 172.485838 95.447549 172.256024 94.358831 172.256024 
C 93.270114 172.256024 92.225841 172.485838 91.456002 172.894853 
C 90.686162 173.303867 90.25361 173.858687 90.25361 174.437121 
C 90.25361 175.015555 90.686162 175.570375 91.456002 175.979389 
C 92.225841 176.388404 93.270114 176.618218 94.358831 176.618218 
z
" style="fill:#ff0000;opacity:0.2;stroke:#ff0000;stroke-linejoin:miter;"/>
   </g>
   <g id="patch_35">
    <path d="M 77.937948 174.437121 
Q 85.148143 174.437121 90.237018 174.437121 
" style="fill:none;opacity:0.5;stroke:#ff0000;stroke-linecap:round;stroke-width:3;"/>
    <path d="M 88.737018 172.937121 
L 90.237018 174.437121 
L 88.737018 175.937121 
" style="fill:none;opacity:0.5;stroke:#ff0000;stroke-linecap:round;stroke-width:3;"/>
   </g>
   <g id="patch_36">
    <path clip-path="url(#pe4786bf674)" d="M 235.988949 57.38492 
C 236.896214 57.38492 237.766441 57.193408 238.407974 56.852563 
C 239.049507 56.511717 239.409966 56.049367 239.409966 55.567339 
C 239.409966 55.085311 239.049507 54.62296 238.407974 54.282115 
C 237.766441 53.94127 236.896214 53.749758 235.988949 53.749758 
C 235.081685 53.749758 234.211457 53.94127 233.569925 54.282115 
C 232.928392 54.62296 232.567932 55.085311 232.567932 55.567339 
C 232.567932 56.049367 232.928392 56.511717 233.569925 56.852563 
C 234.211457 57.193408 235.081685 57.38492 235.988949 57.38492 
z
" style="fill:#008000;opacity:0.2;stroke:#008000;stroke-linejoin:miter;"/>
   </g>
   <g id="patch_37">
    <path clip-path="url(#pe4786bf674)" d="M 385.829509 176.254702 
C 386.736773 176.254702 387.607 176.06319 388.248533 175.722345 
C 388.890066 175.381499 389.250526 174.919149 389.250526 174.437121 
C 389.250526 173.955093 388.890066 173.492743 388.248533 173.151897 
C 387.607 172.811052 386.736773 172.61954 385.829509 172.61954 
C 384.922244 172.61954 384.052017 172.811052 383.410484 173.151897 
C 382.768951 173.492743 382.408491 173.955093 382.408491 174.437121 
C 382.408491 174.919149 382.768951 175.381499 383.410484 175.722345 
C 384.052017 176.06319 384.922244 176.254702 385.829509 176.254702 
z
" style="fill:#008000;opacity:0.2;stroke:#008000;stroke-linejoin:miter;"/>
   </g>
   <g id="patch_38">
    <path clip-path="url(#pe4786bf674)" d="M 235.988949 295.124484 
C 236.896214 295.124484 237.766441 294.932972 238.407974 294.592127 
C 239.049507 294.251281 239.409966 293.788931 239.409966 293.306903 
C 239.409966 292.824875 239.049507 292.362525 238.407974 292.021679 
C 237.766441 291.680834 236.896214 291.489322 235.988949 291.489322 
C 235.081685 291.489322 234.211457 291.680834 233.569925 292.021679 
C 232.928392 292.362525 232.567932 292.824875 232.567932 293.306903 
C 232.567932 293.788931 232.928392 294.251281 233.569925 294.592127 
C 234.211457 294.932972 235.081685 295.124484 235.988949 295.124484 
z
" style="fill:#008000;opacity:0.2;stroke:#008000;stroke-linejoin:miter;"/>
   </g>
   <g id="patch_39">
    <path clip-path="url(#pe4786bf674)" d="M 86.14839 176.254702 
C 87.055654 176.254702 87.925881 176.06319 88.567414 175.722345 
C 89.208947 175.381499 89.569407 174.919149 89.569407 174.437121 
C 89.569407 173.955093 89.208947 173.492743 88.567414 173.151897 
C 87.925881 172.811052 87.055654 172.61954 86.14839 172.61954 
C 85.241125 172.61954 84.370898 172.811052 83.729365 173.151897 
C 83.087832 173.492743 82.727372 173.955093 82.727372 174.437121 
C 82.727372 174.919149 83.087832 175.381499 83.729365 175.722345 
C 84.370898 176.06319 85.241125 176.254702 86.14839 176.254702 
z
" style="fill:#008000;opacity:0.2;stroke:#008000;stroke-linejoin:miter;"/>
   </g>
   <g id="patch_40">
    <path d="M 235.988949 55.567339 
Q 310.909229 115.00223 385.829509 174.437121 
" style="fill:none;opacity:0.5;stroke:#008000;stroke-linecap:round;stroke-width:2;"/>
   </g>
   <g id="patch_41">
    <path d="M 235.988949 55.567339 
Q 235.988949 55.567339 235.988949 55.567339 
" style="fill:none;opacity:0.5;stroke:#800080;stroke-linecap:round;stroke-width:2;"/>
   </g>
   <g id="patch_42">
    <path d="M 385.829509 174.437121 
Q 310.909229 233.872012 235.988949 293.306903 
" style="fill:none;opacity:0.5;stroke:#008000;stroke-linecap:round;stroke-width:2;"/>
   </g>
   <g id="patch_43">
    <path d="M 379.033281 174.437121 
Q 384.829262 174.437121 390.625243 174.437121 
" style="fill:none;opacity:0.5;stroke:#800080;stroke-linecap:round;stroke-width:2;"/>
    <path d="M 380.533281 175.937121 
L 379.033281 174.437121 
L 380.533281 172.937121 
" style="fill:none;opacity:0.5;stroke:#800080;stroke-linecap:round;stroke-width:2;"/>
    <path d="M 389.125243 172.937121 
L 390.625243 174.437121 
L 389.125243 175.937121 
" style="fill:none;opacity:0.5;stroke:#800080;stroke-linecap:round;stroke-width:2;"/>
   </g>
   <g id="patch_44">
    <path d="M 235.988949 293.306903 
Q 161.068669 233.872012 86.14839 174.437121 
" style="fill:none;opacity:0.5;stroke:#008000;stroke-linecap:round;stroke-width:2;"/>
   </g>
   <g id="patch_45">
    <path d="M 235.988949 293.306903 
Q 235.988949 293.306903 235.988949 293.306903 
" style="fill:none;opacity:0.5;stroke:#800080;stroke-linecap:round;stroke-width:2;"/>
   </g>
   <g id="patch_46">
    <path d="M 86.14839 174.437121 
Q 161.068669 115.00223 235.988949 55.567339 
" style="fill:none;opacity:0.5;stroke:#008000;stroke-linecap:round;stroke-width:2;"/>
   </g>
   <g id="patch_47">
    <path d="M 92.944618 174.437121 
Q 87.148636 174.437121 81.352655 174.437121 
" style="fill:none;opacity:0.5;stroke:#800080;stroke-linecap:round;stroke-width:2;"/>
    <path d="M 91.444618 172.937121 
L 92.944618 174.437121 
L 91.444618 175.937121 
" style="fill:none;opacity:0.5;stroke:#800080;stroke-linecap:round;stroke-width:2;"/>
    <path d="M 82.852655 175.937121 
L 81.352655 174.437121 
L 82.852655 172.937121 
" style="fill:none;opacity:0.5;stroke:#800080;stroke-linecap:round;stroke-width:2;"/>
   </g>
   <g id="patch_48">
    <path clip-path="url(#pe4786bf674)" d="M 235.988949 67.199856 
C 236.351855 67.199856 236.699946 67.123251 236.956559 66.986913 
C 237.213172 66.850575 237.357356 66.665635 237.357356 66.472823 
C 237.357356 66.280012 237.213172 66.095072 236.956559 65.958734 
C 236.699946 65.822396 236.351855 65.745791 235.988949 65.745791 
C 235.626043 65.745791 235.277952 65.822396 235.021339 65.958734 
C 234.764726 66.095072 234.620542 66.280012 234.620542 66.472823 
C 234.620542 66.665635 234.764726 66.850575 235.021339 66.986913 
C 235.277952 67.123251 235.626043 67.199856 235.988949 67.199856 
z
" style="fill:#ff0000;opacity:0.2;stroke:#ff0000;stroke-linejoin:miter;"/>
   </g>
   <g id="patch_49">
    <path clip-path="url(#pe4786bf674)" d="M 316.724958 175.164153 
C 317.087864 175.164153 317.435955 175.087549 317.692568 174.95121 
C 317.949181 174.814872 318.093365 174.629932 318.093365 174.437121 
C 318.093365 174.24431 317.949181 174.05937 317.692568 173.923031 
C 317.435955 173.786693 317.087864 173.710089 316.724958 173.710089 
C 316.362053 173.710089 316.013962 173.786693 315.757349 173.923031 
C 315.500735 174.05937 315.356551 174.24431 315.356551 174.437121 
C 315.356551 174.629932 315.500735 174.814872 315.757349 174.95121 
C 316.013962 175.087549 316.362053 175.164153 316.724958 175.164153 
z
" style="fill:#ff0000;opacity:0.2;stroke:#ff0000;stroke-linejoin:miter;"/>
   </g>
   <g id="patch_50">
    <path clip-path="url(#pe4786bf674)" d="M 235.988949 283.128451 
C 236.351855 283.128451 236.699946 283.051846 236.956559 282.915508 
C 237.213172 282.77917 237.357356 282.59423 237.357356 282.401418 
C 237.357356 282.208607 237.213172 282.023667 236.956559 281.887329 
C 236.699946 281.750991 236.351855 281.674386 235.988949 281.674386 
C 235.626043 281.674386 235.277952 281.750991 235.021339 281.887329 
C 234.764726 282.023667 234.620542 282.208607 234.620542 282.401418 
C 234.620542 282.59423 234.764726 282.77917 235.021339 282.915508 
C 235.277952 283.051846 235.626043 283.128451 235.988949 283.128451 
z
" style="fill:#ff0000;opacity:0.2;stroke:#ff0000;stroke-linejoin:miter;"/>
   </g>
   <g id="patch_51">
    <path clip-path="url(#pe4786bf674)" d="M 155.25294 175.164153 
C 155.615846 175.164153 155.963937 175.087549 156.22055 174.95121 
C 156.477163 174.814872 156.621347 174.629932 156.621347 174.437121 
C 156.621347 174.24431 156.477163 174.05937 156.22055 173.923031 
C 155.963937 173.786693 155.615846 173.710089 155.25294 173.710089 
C 154.890034 173.710089 154.541943 173.786693 154.28533 173.923031 
C 154.028717 174.05937 153.884533 174.24431 153.884533 174.437121 
C 153.884533 174.629932 154.028717 174.814872 154.28533 174.95121 
C 154.541943 175.087549 154.890034 175.164153 155.25294 175.164153 
z
" style="fill:#ff0000;opacity:0.2;stroke:#ff0000;stroke-linejoin:miter;"/>
   </g>
   <g id="patch_52">
    <path clip-path="url(#pe4786bf674)" d="M 177.831654 175.164153 
C 178.19456 175.164153 178.542651 175.087549 178.799264 174.95121 
C 179.055877 174.814872 179.200061 174.629932 179.200061 174.437121 
C 179.200061 174.24431 179.055877 174.05937 178.799264 173.923031 
C 178.542651 173.786693 178.19456 173.710089 177.831654 173.710089 
C 177.468749 173.710089 177.120658 173.786693 176.864045 173.923031 
C 176.607431 174.05937 176.463247 174.24431 176.463247 174.437121 
C 176.463247 174.629932 176.607431 174.814872 176.864045 174.95121 
C 177.120658 175.087549 177.468749 175.164153 177.831654 175.164153 
z
" style="fill:#0000ff;opacity:0.2;stroke:#0000ff;stroke-linejoin:miter;"/>
   </g>
   <g id="patch_53">
    <path clip-path="url(#pe4786bf674)" d="M 235.988949 73.016114 
C 236.351855 73.016114 236.699946 72.939509 236.956559 72.803171 
C 237.213172 72.666833 237.357356 72.481893 237.357356 72.289082 
C 237.357356 72.096271 237.213172 71.911331 236.956559 71.774992 
C 236.699946 71.638654 236.351855 71.56205 235.988949 71.56205 
C 235.626043 71.56205 235.277952 71.638654 235.021339 71.774992 
C 234.764726 71.911331 234.620542 72.096271 234.620542 72.289082 
C 234.620542 72.481893 234.764726 72.666833 235.021339 72.803171 
C 235.277952 72.939509 235.626043 73.016114 235.988949 73.016114 
z
" style="fill:#0000ff;opacity:0.2;stroke:#0000ff;stroke-linejoin:miter;"/>
   </g>
   <g id="patch_54">
    <path clip-path="url(#pe4786bf674)" d="M 294.146244 175.164153 
C 294.50915 175.164153 294.857241 175.087549 295.113854 174.95121 
C 295.370467 174.814872 295.514651 174.629932 295.514651 174.437121 
C 295.514651 174.24431 295.370467 174.05937 295.113854 173.923031 
C 294.857241 173.786693 294.50915 173.710089 294.146244 173.710089 
C 293.783338 173.710089 293.435247 173.786693 293.178634 173.923031 
C 292.922021 174.05937 292.777837 174.24431 292.777837 174.437121 
C 292.777837 174.629932 292.922021 174.814872 293.178634 174.95121 
C 293.435247 175.087549 293.783338 175.164153 294.146244 175.164153 
z
" style="fill:#0000ff;opacity:0.2;stroke:#0000ff;stroke-linejoin:miter;"/>
   </g>
   <g id="patch_55">
    <path clip-path="url(#pe4786bf674)" d="M 235.988949 277.312192 
C 236.351855 277.312192 236.699946 277.235588 236.956559 277.09925 
C 237.213172 276.962911 237.357356 276.777971 237.357356 276.58516 
C 237.357356 276.392349 237.213172 276.207409 236.956559 276.071071 
C 236.699946 275.934732 236.351855 275.858128 235.988949 275.858128 
C 235.626043 275.858128 235.277952 275.934732 235.021339 276.071071 
C 234.764726 276.207409 234.620542 276.392349 234.620542 276.58516 
C 234.620542 276.777971 234.764726 276.962911 235.021339 277.09925 
C 235.277952 277.235588 235.626043 277.312192 235.988949 277.312192 
z
" style="fill:#0000ff;opacity:0.2;stroke:#0000ff;stroke-linejoin:miter;"/>
   </g>
   <g id="patch_56">
    <path clip-path="url(#pe4786bf674)" d="M 235.988949 66.472823 
C 311.251331 66.472823 316.724958 140.266603 316.724958 174.437121 
C 316.724958 208.607639 311.251331 282.401418 235.988949 282.401418 
C 160.726568 282.401418 155.25294 208.607639 155.25294 174.437121 
C 155.25294 140.266603 160.726568 66.472823 235.988949 66.472823 
" style="fill:none;stroke:#ff0000;stroke-linejoin:miter;stroke-width:0.5;"/>
   </g>
   <g id="patch_57">
    <path clip-path="url(#pe4786bf674)" d="M 177.831654 174.437121 
C 177.831654 142.084183 183.989486 72.289082 235.988949 72.289082 
C 287.988413 72.289082 294.146244 142.084183 294.146244 174.437121 
C 294.146244 206.790059 287.988413 276.58516 235.988949 276.58516 
C 183.989486 276.58516 177.831654 206.790059 177.831654 174.437121 
" style="fill:none;stroke:#0000ff;stroke-linejoin:miter;stroke-width:0.5;"/>
   </g>
   <g id="patch_58">
    <path clip-path="url(#pe4786bf674)" d="M 235.988949 68.472162 
C 236.98694 68.472162 237.94419 68.261499 238.649876 67.886569 
C 239.355562 67.51164 239.752068 67.003054 239.752068 66.472823 
C 239.752068 65.942593 239.355562 65.434007 238.649876 65.059077 
C 237.94419 64.684148 236.98694 64.473485 235.988949 64.473485 
C 234.990958 64.473485 234.033708 64.684148 233.328022 65.059077 
C 232.622336 65.434007 232.22583 65.942593 232.22583 66.472823 
C 232.22583 67.003054 232.622336 67.51164 233.328022 67.886569 
C 234.033708 68.261499 234.990958 68.472162 235.988949 68.472162 
z
" style="fill:#0000ff;opacity:0.2;stroke:#0000ff;stroke-linejoin:miter;"/>
   </g>
   <g id="patch_59">
    <path clip-path="url(#pe4786bf674)" d="M 235.988949 74.288421 
C 236.98694 74.288421 237.94419 74.077758 238.649876 73.702828 
C 239.355562 73.327898 239.752068 72.819313 239.752068 72.289082 
C 239.752068 71.758851 239.355562 71.250266 238.649876 70.875336 
C 237.94419 70.500406 236.98694 70.289743 235.988949 70.289743 
C 234.990958 70.289743 234.033708 70.500406 233.328022 70.875336 
C 232.622336 71.250266 232.22583 71.758851 232.22583 72.289082 
C 232.22583 72.819313 232.622336 73.327898 233.328022 73.702828 
C 234.033708 74.077758 234.990958 74.288421 235.988949 74.288421 
z
" style="fill:#ff0000;opacity:0.2;stroke:#ff0000;stroke-linejoin:miter;"/>
   </g>
   <g id="patch_60">
    <path d="M 235.988949 66.472823 
Q 235.988949 68.379863 235.988949 68.342359 
" style="fill:none;opacity:0.5;stroke:#0000ff;stroke-linecap:round;stroke-width:2.75;"/>
    <path d="M 237.488949 66.842359 
L 235.988949 68.342359 
L 234.488949 66.842359 
" style="fill:none;opacity:0.5;stroke:#0000ff;stroke-linecap:round;stroke-width:2.75;"/>
   </g>
   <g id="patch_61">
    <path clip-path="url(#pe4786bf674)" d="M 316.724958 176.799976 
C 317.904402 176.799976 319.035698 176.551011 319.86969 176.107912 
C 320.703683 175.664813 321.172281 175.063757 321.172281 174.437121 
C 321.172281 173.810484 320.703683 173.209429 319.86969 172.76633 
C 319.035698 172.323231 317.904402 172.074266 316.724958 172.074266 
C 315.545515 172.074266 314.414219 172.323231 313.580226 172.76633 
C 312.746234 173.209429 312.277636 173.810484 312.277636 174.437121 
C 312.277636 175.063757 312.746234 175.664813 313.580226 176.107912 
C 314.414219 176.551011 315.545515 176.799976 316.724958 176.799976 
z
" style="fill:#0000ff;opacity:0.2;stroke:#0000ff;stroke-linejoin:miter;"/>
   </g>
   <g id="patch_62">
    <path clip-path="url(#pe4786bf674)" d="M 294.146244 176.799976 
C 295.325688 176.799976 296.456983 176.551011 297.290976 176.107912 
C 298.124968 175.664813 298.593566 175.063757 298.593566 174.437121 
C 298.593566 173.810484 298.124968 173.209429 297.290976 172.76633 
C 296.456983 172.323231 295.325688 172.074266 294.146244 172.074266 
C 292.9668 172.074266 291.835505 172.323231 291.001512 172.76633 
C 290.167519 173.209429 289.698921 173.810484 289.698921 174.437121 
C 289.698921 175.063757 290.167519 175.664813 291.001512 176.107912 
C 291.835505 176.551011 292.9668 176.799976 294.146244 176.799976 
z
" style="fill:#ff0000;opacity:0.2;stroke:#ff0000;stroke-linejoin:miter;"/>
   </g>
   <g id="patch_63">
    <path d="M 316.724958 174.437121 
Q 306.43472 174.437121 298.442579 174.437121 
" style="fill:none;opacity:0.5;stroke:#0000ff;stroke-linecap:round;stroke-width:3.25;"/>
    <path d="M 299.942579 175.937121 
L 298.442579 174.437121 
L 299.942579 172.937121 
" style="fill:none;opacity:0.5;stroke:#0000ff;stroke-linecap:round;stroke-width:3.25;"/>
   </g>
   <g id="patch_64">
    <path clip-path="url(#pe4786bf674)" d="M 235.988949 284.582515 
C 237.077666 284.582515 238.121939 284.352701 238.891779 283.943687 
C 239.661618 283.534673 240.09417 282.979852 240.09417 282.401418 
C 240.09417 281.822985 239.661618 281.268164 238.891779 280.85915 
C 238.121939 280.450136 237.077666 280.220322 235.988949 280.220322 
C 234.900232 280.220322 233.855959 280.450136 233.08612 280.85915 
C 232.31628 281.268164 231.883728 281.822985 231.883728 282.401418 
C 231.883728 282.979852 232.31628 283.534673 233.08612 283.943687 
C 233.855959 284.352701 234.900232 284.582515 235.988949 284.582515 
z
" style="fill:#0000ff;opacity:0.2;stroke:#0000ff;stroke-linejoin:miter;"/>
   </g>
   <g id="patch_65">
    <path clip-path="url(#pe4786bf674)" d="M 235.988949 278.766257 
C 237.077666 278.766257 238.121939 278.536443 238.891779 278.127428 
C 239.661618 277.718414 240.09417 277.163594 240.09417 276.58516 
C 240.09417 276.006726 239.661618 275.451906 238.891779 275.042892 
C 238.121939 274.633877 237.077666 274.404063 235.988949 274.404063 
C 234.900232 274.404063 233.855959 274.633877 233.08612 275.042892 
C 232.31628 275.451906 231.883728 276.006726 231.883728 276.58516 
C 231.883728 277.163594 232.31628 277.718414 233.08612 278.127428 
C 233.855959 278.536443 234.900232 278.766257 235.988949 278.766257 
z
" style="fill:#ff0000;opacity:0.2;stroke:#ff0000;stroke-linejoin:miter;"/>
   </g>
   <g id="patch_66">
    <path d="M 235.988949 282.401418 
Q 235.988949 280.494379 235.988949 280.708659 
" style="fill:none;opacity:0.5;stroke:#0000ff;stroke-linecap:round;stroke-width:3;"/>
    <path d="M 234.488949 282.208659 
L 235.988949 280.708659 
L 237.488949 282.208659 
" style="fill:none;opacity:0.5;stroke:#0000ff;stroke-linecap:round;stroke-width:3;"/>
   </g>
   <g id="patch_67">
    <path clip-path="url(#pe4786bf674)" d="M 155.25294 176.618218 
C 156.341657 176.618218 157.38593 176.388404 158.155769 175.979389 
C 158.925609 175.570375 159.358161 175.015555 159.358161 174.437121 
C 159.358161 173.858687 158.925609 173.303867 158.155769 172.894853 
C 157.38593 172.485838 156.341657 172.256024 155.25294 172.256024 
C 154.164223 172.256024 153.11995 172.485838 152.35011 172.894853 
C 151.580271 173.303867 151.147719 173.858687 151.147719 174.437121 
C 151.147719 175.015555 151.580271 175.570375 152.35011 175.979389 
C 153.11995 176.388404 154.164223 176.618218 155.25294 176.618218 
z
" style="fill:#0000ff;opacity:0.2;stroke:#0000ff;stroke-linejoin:miter;"/>
   </g>
   <g id="patch_68">
    <path clip-path="url(#pe4786bf674)" d="M 177.831654 176.618218 
C 178.920372 176.618218 179.964644 176.388404 180.734484 175.979389 
C 181.504323 175.570375 181.936875 175.015555 181.936875 174.437121 
C 181.936875 173.858687 181.504323 173.303867 180.734484 172.894853 
C 179.964644 172.485838 178.920372 172.256024 177.831654 172.256024 
C 176.742937 172.256024 175.698664 172.485838 174.928825 172.894853 
C 174.158986 173.303867 173.726434 173.858687 173.726434 174.437121 
C 173.726434 175.015555 174.158986 175.570375 174.928825 175.979389 
C 175.698664 176.388404 176.742937 176.618218 177.831654 176.618218 
z
" style="fill:#ff0000;opacity:0.2;stroke:#ff0000;stroke-linejoin:miter;"/>
   </g>
   <g id="patch_69">
    <path d="M 155.25294 174.437121 
Q 165.543178 174.437121 173.712096 174.437121 
" style="fill:none;opacity:0.5;stroke:#0000ff;stroke-linecap:round;stroke-width:3;"/>
    <path d="M 172.212096 172.937121 
L 173.712096 174.437121 
L 172.212096 175.937121 
" style="fill:none;opacity:0.5;stroke:#0000ff;stroke-linecap:round;stroke-width:3;"/>
   </g>
   <g id="patch_70">
    <path clip-path="url(#pe4786bf674)" d="M 177.831654 176.618218 
C 178.920372 176.618218 179.964644 176.388404 180.734484 175.979389 
C 181.504323 175.570375 181.936875 175.015555 181.936875 174.437121 
C 181.936875 173.858687 181.504323 173.303867 180.734484 172.894853 
C 179.964644 172.485838 178.920372 172.256024 177.831654 172.256024 
C 176.742937 172.256024 175.698664 172.485838 174.928825 172.894853 
C 174.158986 173.303867 173.726434 173.858687 173.726434 174.437121 
C 173.726434 175.015555 174.158986 175.570375 174.928825 175.979389 
C 175.698664 176.388404 176.742937 176.618218 177.831654 176.618218 
z
" style="fill:#0000ff;opacity:0.2;stroke:#0000ff;stroke-linejoin:miter;"/>
   </g>
   <g id="patch_71">
    <path clip-path="url(#pe4786bf674)" d="M 155.25294 176.618218 
C 156.341657 176.618218 157.38593 176.388404 158.155769 175.979389 
C 158.925609 175.570375 159.358161 175.015555 159.358161 174.437121 
C 159.358161 173.858687 158.925609 173.303867 158.155769 172.894853 
C 157.38593 172.485838 156.341657 172.256024 155.25294 172.256024 
C 154.164223 172.256024 153.11995 172.485838 152.35011 172.894853 
C 151.580271 173.303867 151.147719 173.858687 151.147719 174.437121 
C 151.147719 175.015555 151.580271 175.570375 152.35011 175.979389 
C 153.11995 176.388404 154.164223 176.618218 155.25294 176.618218 
z
" style="fill:#ff0000;opacity:0.2;stroke:#ff0000;stroke-linejoin:miter;"/>
   </g>
   <g id="patch_72">
    <path d="M 177.831654 174.437121 
Q 167.541416 174.437121 159.372499 174.437121 
" style="fill:none;opacity:0.5;stroke:#ff0000;stroke-linecap:round;stroke-width:3;"/>
    <path d="M 160.872499 175.937121 
L 159.372499 174.437121 
L 160.872499 172.937121 
" style="fill:none;opacity:0.5;stroke:#ff0000;stroke-linecap:round;stroke-width:3;"/>
   </g>
   <g id="patch_73">
    <path clip-path="url(#pe4786bf674)" d="M 235.988949 74.288421 
C 236.98694 74.288421 237.94419 74.077758 238.649876 73.702828 
C 239.355562 73.327898 239.752068 72.819313 239.752068 72.289082 
C 239.752068 71.758851 239.355562 71.250266 238.649876 70.875336 
C 237.94419 70.500406 236.98694 70.289743 235.988949 70.289743 
C 234.990958 70.289743 234.033708 70.500406 233.328022 70.875336 
C 232.622336 71.250266 232.22583 71.758851 232.22583 72.289082 
C 232.22583 72.819313 232.622336 73.327898 233.328022 73.702828 
C 234.033708 74.077758 234.990958 74.288421 235.988949 74.288421 
z
" style="fill:#0000ff;opacity:0.2;stroke:#0000ff;stroke-linejoin:miter;"/>
   </g>
   <g id="patch_74">
    <path clip-path="url(#pe4786bf674)" d="M 235.988949 68.472162 
C 236.98694 68.472162 237.94419 68.261499 238.649876 67.886569 
C 239.355562 67.51164 239.752068 67.003054 239.752068 66.472823 
C 239.752068 65.942593 239.355562 65.434007 238.649876 65.059077 
C 237.94419 64.684148 236.98694 64.473485 235.988949 64.473485 
C 234.990958 64.473485 234.033708 64.684148 233.328022 65.059077 
C 232.622336 65.434007 232.22583 65.942593 232.22583 66.472823 
C 232.22583 67.003054 232.622336 67.51164 233.328022 67.886569 
C 234.033708 68.261499 234.990958 68.472162 235.988949 68.472162 
z
" style="fill:#ff0000;opacity:0.2;stroke:#ff0000;stroke-linejoin:miter;"/>
   </g>
   <g id="patch_75">
    <path d="M 235.988949 72.289082 
Q 235.988949 70.382042 235.988949 70.419546 
" style="fill:none;opacity:0.5;stroke:#ff0000;stroke-linecap:round;stroke-width:2.75;"/>
    <path d="M 234.488949 71.919546 
L 235.988949 70.419546 
L 237.488949 71.919546 
" style="fill:none;opacity:0.5;stroke:#ff0000;stroke-linecap:round;stroke-width:2.75;"/>
   </g>
   <g id="patch_76">
    <path clip-path="url(#pe4786bf674)" d="M 294.146244 176.799976 
C 295.325688 176.799976 296.456983 176.551011 297.290976 176.107912 
C 298.124968 175.664813 298.593566 175.063757 298.593566 174.437121 
C 298.593566 173.810484 298.124968 173.209429 297.290976 172.76633 
C 296.456983 172.323231 295.325688 172.074266 294.146244 172.074266 
C 292.9668 172.074266 291.835505 172.323231 291.001512 172.76633 
C 290.167519 173.209429 289.698921 173.810484 289.698921 174.437121 
C 289.698921 175.063757 290.167519 175.664813 291.001512 176.107912 
C 291.835505 176.551011 292.9668 176.799976 294.146244 176.799976 
z
" style="fill:#0000ff;opacity:0.2;stroke:#0000ff;stroke-linejoin:miter;"/>
   </g>
   <g id="patch_77">
    <path clip-path="url(#pe4786bf674)" d="M 316.724958 176.799976 
C 317.904402 176.799976 319.035698 176.551011 319.86969 176.107912 
C 320.703683 175.664813 321.172281 175.063757 321.172281 174.437121 
C 321.172281 173.810484 320.703683 173.209429 319.86969 172.76633 
C 319.035698 172.323231 317.904402 172.074266 316.724958 172.074266 
C 315.545515 172.074266 314.414219 172.323231 313.580226 172.76633 
C 312.746234 173.209429 312.277636 173.810484 312.277636 174.437121 
C 312.277636 175.063757 312.746234 175.664813 313.580226 176.107912 
C 314.414219 176.551011 315.545515 176.799976 316.724958 176.799976 
z
" style="fill:#ff0000;opacity:0.2;stroke:#ff0000;stroke-linejoin:miter;"/>
   </g>
   <g id="patch_78">
    <path d="M 294.146244 174.437121 
Q 304.436482 174.437121 312.428623 174.437121 
" style="fill:none;opacity:0.5;stroke:#ff0000;stroke-linecap:round;stroke-width:3.25;"/>
    <path d="M 310.928623 172.937121 
L 312.428623 174.437121 
L 310.928623 175.937121 
" style="fill:none;opacity:0.5;stroke:#ff0000;stroke-linecap:round;stroke-width:3.25;"/>
   </g>
   <g id="patch_79">
    <path clip-path="url(#pe4786bf674)" d="M 235.988949 278.766257 
C 237.077666 278.766257 238.121939 278.536443 238.891779 278.127428 
C 239.661618 277.718414 240.09417 277.163594 240.09417 276.58516 
C 240.09417 276.006726 239.661618 275.451906 238.891779 275.042892 
C 238.121939 274.633877 237.077666 274.404063 235.988949 274.404063 
C 234.900232 274.404063 233.855959 274.633877 233.08612 275.042892 
C 232.31628 275.451906 231.883728 276.006726 231.883728 276.58516 
C 231.883728 277.163594 232.31628 277.718414 233.08612 278.127428 
C 233.855959 278.536443 234.900232 278.766257 235.988949 278.766257 
z
" style="fill:#0000ff;opacity:0.2;stroke:#0000ff;stroke-linejoin:miter;"/>
   </g>
   <g id="patch_80">
    <path clip-path="url(#pe4786bf674)" d="M 235.988949 284.582515 
C 237.077666 284.582515 238.121939 284.352701 238.891779 283.943687 
C 239.661618 283.534673 240.09417 282.979852 240.09417 282.401418 
C 240.09417 281.822985 239.661618 281.268164 238.891779 280.85915 
C 238.121939 280.450136 237.077666 280.220322 235.988949 280.220322 
C 234.900232 280.220322 233.855959 280.450136 233.08612 280.85915 
C 232.31628 281.268164 231.883728 281.822985 231.883728 282.401418 
C 231.883728 282.979852 232.31628 283.534673 233.08612 283.943687 
C 233.855959 284.352701 234.900232 284.582515 235.988949 284.582515 
z
" style="fill:#ff0000;opacity:0.2;stroke:#ff0000;stroke-linejoin:miter;"/>
   </g>
   <g id="patch_81">
    <path d="M 235.988949 276.58516 
Q 235.988949 278.4922 235.988949 278.277919 
" style="fill:none;opacity:0.5;stroke:#ff0000;stroke-linecap:round;stroke-width:3;"/>
    <path d="M 237.488949 276.777919 
L 235.988949 278.277919 
L 234.488949 276.777919 
" style="fill:none;opacity:0.5;stroke:#ff0000;stroke-linecap:round;stroke-width:3;"/>
   </g>
   <g id="patch_82">
    <path clip-path="url(#pe4786bf674)" d="M 235.988949 71.198533 
C 236.896214 71.198533 237.766441 71.007022 238.407974 70.666176 
C 239.049507 70.325331 239.409966 69.862981 239.409966 69.380953 
C 239.409966 68.898925 239.049507 68.436574 238.407974 68.095729 
C 237.766441 67.754884 236.896214 67.563372 235.988949 67.563372 
C 235.081685 67.563372 234.211457 67.754884 233.569925 68.095729 
C 232.928392 68.436574 232.567932 68.898925 232.567932 69.380953 
C 232.567932 69.862981 232.928392 70.325331 233.569925 70.666176 
C 234.211457 71.007022 235.081685 71.198533 235.988949 71.198533 
z
" style="fill:#008000;opacity:0.2;stroke:#008000;stroke-linejoin:miter;"/>
   </g>
   <g id="patch_83">
    <path clip-path="url(#pe4786bf674)" d="M 305.435601 176.254702 
C 306.342866 176.254702 307.213093 176.06319 307.854626 175.722345 
C 308.496158 175.381499 308.856618 174.919149 308.856618 174.437121 
C 308.856618 173.955093 308.496158 173.492743 307.854626 173.151897 
C 307.213093 172.811052 306.342866 172.61954 305.435601 172.61954 
C 304.528337 172.61954 303.658109 172.811052 303.016577 173.151897 
C 302.375044 173.492743 302.014584 173.955093 302.014584 174.437121 
C 302.014584 174.919149 302.375044 175.381499 303.016577 175.722345 
C 303.658109 176.06319 304.528337 176.254702 305.435601 176.254702 
z
" style="fill:#008000;opacity:0.2;stroke:#008000;stroke-linejoin:miter;"/>
   </g>
   <g id="patch_84">
    <path clip-path="url(#pe4786bf674)" d="M 235.988949 281.31087 
C 236.896214 281.31087 237.766441 281.119358 238.407974 280.778513 
C 239.049507 280.437668 239.409966 279.975317 239.409966 279.493289 
C 239.409966 279.011261 239.049507 278.548911 238.407974 278.208066 
C 237.766441 277.86722 236.896214 277.675708 235.988949 277.675708 
C 235.081685 277.675708 234.211457 277.86722 233.569925 278.208066 
C 232.928392 278.548911 232.567932 279.011261 232.567932 279.493289 
C 232.567932 279.975317 232.928392 280.437668 233.569925 280.778513 
C 234.211457 281.119358 235.081685 281.31087 235.988949 281.31087 
z
" style="fill:#008000;opacity:0.2;stroke:#008000;stroke-linejoin:miter;"/>
   </g>
   <g id="patch_85">
    <path clip-path="url(#pe4786bf674)" d="M 166.542297 176.254702 
C 167.449562 176.254702 168.319789 176.06319 168.961322 175.722345 
C 169.602855 175.381499 169.963314 174.919149 169.963314 174.437121 
C 169.963314 173.955093 169.602855 173.492743 168.961322 173.151897 
C 168.319789 172.811052 167.449562 172.61954 166.542297 172.61954 
C 165.635033 172.61954 164.764805 172.811052 164.123273 173.151897 
C 163.48174 173.492743 163.12128 173.955093 163.12128 174.437121 
C 163.12128 174.919149 163.48174 175.381499 164.123273 175.722345 
C 164.764805 176.06319 165.635033 176.254702 166.542297 176.254702 
z
" style="fill:#008000;opacity:0.2;stroke:#008000;stroke-linejoin:miter;"/>
   </g>
   <g id="patch_86">
    <path d="M 235.988949 69.380953 
Q 270.712275 121.909037 305.435601 174.437121 
" style="fill:none;opacity:0.5;stroke:#008000;stroke-linecap:round;stroke-width:2;"/>
   </g>
   <g id="patch_87">
    <path d="M 235.988949 67.887037 
Q 235.988949 68.379863 235.988949 68.87269 
" style="fill:none;opacity:0.5;stroke:#800080;stroke-linecap:round;stroke-width:2;"/>
    <path d="M 234.488949 69.387037 
L 235.988949 67.887037 
L 237.488949 69.387037 
" style="fill:none;opacity:0.5;stroke:#800080;stroke-linecap:round;stroke-width:2;"/>
    <path d="M 237.488949 67.37269 
L 235.988949 68.87269 
L 234.488949 67.37269 
" style="fill:none;opacity:0.5;stroke:#800080;stroke-linecap:round;stroke-width:2;"/>
   </g>
   <g id="patch_88">
    <path d="M 305.435601 174.437121 
Q 270.712275 226.965205 235.988949 279.493289 
" style="fill:none;opacity:0.5;stroke:#008000;stroke-linecap:round;stroke-width:2;"/>
   </g>
   <g id="patch_89">
    <path d="M 315.310745 174.437121 
Q 306.43472 174.437121 297.558696 174.437121 
" style="fill:none;opacity:0.5;stroke:#800080;stroke-linecap:round;stroke-width:2;"/>
    <path d="M 313.810745 172.937121 
L 315.310745 174.437121 
L 313.810745 175.937121 
" style="fill:none;opacity:0.5;stroke:#800080;stroke-linecap:round;stroke-width:2;"/>
    <path d="M 299.058696 175.937121 
L 297.558696 174.437121 
L 299.058696 172.937121 
" style="fill:none;opacity:0.5;stroke:#800080;stroke-linecap:round;stroke-width:2;"/>
   </g>
   <g id="patch_90">
    <path d="M 235.988949 279.493289 
Q 201.265623 226.965205 166.542297 174.437121 
" style="fill:none;opacity:0.5;stroke:#008000;stroke-linecap:round;stroke-width:2;"/>
   </g>
   <g id="patch_91">
    <path d="M 235.988949 280.987205 
Q 235.988949 280.494379 235.988949 280.001552 
" style="fill:none;opacity:0.5;stroke:#800080;stroke-linecap:round;stroke-width:2;"/>
    <path d="M 237.488949 279.487205 
L 235.988949 280.987205 
L 234.488949 279.487205 
" style="fill:none;opacity:0.5;stroke:#800080;stroke-linecap:round;stroke-width:2;"/>
    <path d="M 234.488949 281.501552 
L 235.988949 280.001552 
L 237.488949 281.501552 
" style="fill:none;opacity:0.5;stroke:#800080;stroke-linecap:round;stroke-width:2;"/>
   </g>
   <g id="patch_92">
    <path d="M 166.542297 174.437121 
Q 201.265623 121.909037 235.988949 69.380953 
" style="fill:none;opacity:0.5;stroke:#008000;stroke-linecap:round;stroke-width:2;"/>
   </g>
   <g id="patch_93">
    <path d="M 156.667153 174.437121 
Q 165.543178 174.437121 174.419203 174.437121 
" style="fill:none;opacity:0.5;stroke:#800080;stroke-linecap:round;stroke-width:2;"/>
    <path d="M 158.167153 175.937121 
L 156.667153 174.437121 
L 158.167153 172.937121 
" style="fill:none;opacity:0.5;stroke:#800080;stroke-linecap:round;stroke-width:2;"/>
    <path d="M 172.919203 172.937121 
L 174.419203 174.437121 
L 172.919203 175.937121 
" style="fill:none;opacity:0.5;stroke:#800080;stroke-linecap:round;stroke-width:2;"/>
   </g>
   <g id="line2d_1">
    <path clip-path="url(#pe4786bf674)" d="M 235.988949 55.567339 
L 377.619067 174.437121 
L 235.988949 293.306903 
L 94.358831 174.437121 
" style="fill:none;stroke:#ff0000;stroke-linecap:square;stroke-width:0.2;"/>
   </g>
   <g id="line2d_2">
    <path clip-path="url(#pe4786bf674)" d="M 235.988949 55.567339 
L 394.03995 174.437121 
L 235.988949 293.306903 
L 77.937948 174.437121 
" style="fill:none;stroke:#0000ff;stroke-linecap:square;stroke-width:0.2;"/>
   </g>
   <g id="line2d_3">
    <path clip-path="url(#pe4786bf674)" d="M 235.988949 66.472823 
L 316.724958 174.437121 
L 235.988949 282.401418 
L 155.25294 174.437121 
" style="fill:none;stroke:#ff0000;stroke-linecap:square;stroke-width:0.2;"/>
   </g>
   <g id="line2d_4">
    <path clip-path="url(#pe4786bf674)" d="M 177.831654 174.437121 
L 235.988949 72.289082 
L 294.146244 174.437121 
L 235.988949 276.58516 
" style="fill:none;stroke:#0000ff;stroke-linecap:square;stroke-width:0.2;"/>
   </g>
  </g>
 </g>
 <defs>
  <clipPath id="pe4786bf674">
   <rect height="266.112" width="357.12" x="57.6" y="41.472"/>
  </clipPath>
 </defs>
</svg>
