<?xml version="1.0" encoding="utf-8"?>
<!-- Generator: Adobe Illustrator 19.0.0, SVG Export Plug-In . SVG Version: 6.00 Build 0)  -->
<svg version="1.1" id="Layer_1" xmlns="http://www.w3.org/2000/svg" xmlns:xlink="http://www.w3.org/1999/xlink" x="0px" y="0px"
	 width="661px" height="516.9px" viewBox="-265 163 661 516.9" style="enable-background:new -265 163 661 516.9;"
	 xml:space="preserve">
<style type="text/css">
	.st0{fill:none;stroke:#008000;stroke-width:1.6859;stroke-miterlimit:10;}
	.st1{fill:none;stroke:#AFAFAF;stroke-width:1.6859;stroke-miterlimit:10;}
	.st2{opacity:0.2;fill:#008000;enable-background:new    ;}
	.st3{opacity:0.5;fill:#FF0000;stroke:#FF0000;stroke-width:1.4176;enable-background:new    ;}
	.st4{fill:#FFFFFF;}
	.st5{fill:none;stroke:#0000FF;stroke-width:2.8351;stroke-linecap:round;stroke-linejoin:round;}
	.st6{fill:#0000FF;stroke:#0000FF;stroke-width:2.8351;stroke-linejoin:round;}
	.st7{font-family:monospace;}
	.st8{font-size:27.0724px;}
	.st9{fill:#0000FF;}
	.st10{font-size:32.4706px;}
	.st11{fill:none;stroke:#FF0000;stroke-width:2.8351;stroke-linecap:round;stroke-linejoin:round;}
	.st12{fill:#FF0000;stroke:#FF0000;stroke-width:2.8351;stroke-linejoin:round;}
	.st13{fill:#FFFFFF;stroke:#FF0000;stroke-width:2.8351;stroke-linejoin:round;}
	.st14{fill:#FF0000;}
	.st15{font-size:22.451px;}
</style>
<g id="New_Symbol_3">
	<g id="New_Symbol_4">
		<g id="XMLID_94_">
			<g id="XMLID_97_">
				<line id="XMLID_103_" class="st0" x1="-15.3" y1="270.7" x2="-109.8" y2="336.5"/>
				<line id="XMLID_102_" class="st1" x1="-15.3" y1="270.7" x2="32.8" y2="602.5"/>
				<line id="XMLID_101_" class="st1" x1="-15.3" y1="270.7" x2="110.3" y2="584.2"/>
				<path id="XMLID_98_" class="st2" d="M-1.2,300.9c-4.3,2-9.1,3.1-14.1,3.1c-11.3,0-21.3-5.6-27.3-14.3l27.3-19L-1.2,300.9z"/>
			</g>
			<path id="XMLID_96_" class="st2" d="M-9.5,311.1c4-0.6,7.9-1.7,11.4-3.4l-17.3-37L-9.5,311.1z"/>
			<path id="XMLID_95_" class="st2" d="M3.5,317.6c0.9-0.4,1.7-0.7,2.6-1.1l-21.4-45.8L3.5,317.6z"/>
		</g>
		<g id="XMLID_84_">
			<g id="XMLID_87_">
				<line id="XMLID_93_" class="st0" x1="226.8" y1="497.4" x2="180.7" y2="560.1"/>
				<line id="XMLID_92_" class="st1" x1="226.8" y1="497.4" x2="110.3" y2="584.2"/>
				<line id="XMLID_91_" class="st1" x1="226.8" y1="497.4" x2="32.8" y2="602.5"/>
				<path id="XMLID_90_" class="st2" d="M208.9,521.8c-5.3-3.9-9.3-9.6-11.2-16.1l29.2-8.3L208.9,521.8z"/>
				<path id="XMLID_89_" class="st2" d="M190.3,507.7c1.3,4.5,3.4,8.7,6.1,12.3l30.5-22.7L190.3,507.7z"/>
				<path id="XMLID_88_" class="st2" d="M183,509.8c0.9,3.2,2.2,6.3,3.8,9.2l40-21.7L183,509.8z"/>
			</g>
		</g>
		<g id="XMLID_73_">
			<line id="XMLID_83_" class="st1" x1="105.8" y1="530" x2="180.7" y2="560.1"/>
			<line id="XMLID_82_" class="st1" x1="105.8" y1="530" x2="110.3" y2="584.2"/>
			<line id="XMLID_81_" class="st0" x1="105.8" y1="530" x2="32.8" y2="602.5"/>
			<line id="XMLID_80_" class="st1" x1="105.8" y1="530" x2="-109.8" y2="336.5"/>
			<g id="XMLID_74_">
				<path id="XMLID_79_" class="st2" d="M77.6,558.1c-7.1-7.2-11.6-17.1-11.6-28c0-15.9,9.4-29.7,22.9-36l16.7,36.3L77.6,558.1z"/>
				<path id="XMLID_78_" class="st2" d="M93.3,503.6c-9.9,4.7-16.8,14.7-16.8,26.4c0,16.1,13.1,29.2,29.2,29.2
					c12.3,0,22.8-7.6,27.1-18.3l-26.3-10.6L93.3,503.6z"/>
				<path id="XMLID_77_" class="st2" d="M109.1,564.2c-1.1,0.1-2.2,0.2-3.3,0.2c-19,0-34.4-15.4-34.4-34.4
					c0-13.8,8.1-25.7,19.8-31.1l14.5,32.4L109.1,564.2z"/>
				<path id="XMLID_76_" class="st2" d="M72,499.5c4.1-4.5,9-8.2,14.5-10.7l19.2,41.6L72,499.5z"/>
			</g>
		</g>
		<g id="XMLID_26_">
			<g id="figure_1_2_">
				<g id="axes_1_2_">
					<g id="patch_3_1_">
						<g id="XMLID_71_">
							<path id="XMLID_72_" class="st3" d="M105.6,544.4c4.1,0,8-1.6,11-4.5c2.9-2.9,4.5-6.8,4.5-10.8s-1.6-7.9-4.5-10.8
								c-2.9-2.9-6.8-4.5-11-4.5c-4.1,0-8,1.6-11,4.5c-2.9,2.9-4.5,6.8-4.5,10.8s1.6,7.9,4.5,10.8
								C97.6,542.8,101.5,544.4,105.6,544.4z"/>
						</g>
						<g id="text_30_2_">
							<g id="XMLID_67_">
								<g id="XMLID_68_">
									<g id="XMLID_69_" transform="translate(334.422399 358.608064)scale(0.06 -0.06)">
										<g id="XMLID_70_">
											<path id="DejaVuSansMono-Bold-37_3_" class="st4" d="M-3903.9-2719h180.4v-39.9l-96.7-245.4h-57.5l92.9,235.6h-119v49.7
												H-3903.9z"/>
										</g>
									</g>
								</g>
							</g>
						</g>
					</g>
					<g id="patch_10_3_">
						<path id="XMLID_66_" class="st5" d="M110.3,584.2c-19.5,4.6-38,9-55.7,13.2"/>
						<path id="XMLID_65_" class="st5" d="M61.6,601.7l-7.1-4.4l4.4-7.1"/>
					</g>
					<g id="patch_11_1_">
						<path id="XMLID_64_" class="st5" d="M32.8,602.5c-44.4-82.9-88.4-165-132-246.3"/>
						<path id="XMLID_63_" class="st5" d="M-101.5,364.1l2.4-7.9l7.9,2.4"/>
					</g>
					<g id="PathCollection_1_2_">
						<g id="XMLID_61_">
							<path id="XMLID_62_" class="st6" d="M110.3,600.5c4.3,0,8.5-1.7,11.6-4.8s4.8-7.2,4.8-11.6c0-4.3-1.7-8.5-4.8-11.6
								c-3.1-3.1-7.2-4.8-11.6-4.8c-4.3,0-8.5,1.7-11.6,4.8s-4.8,7.2-4.8,11.6c0,4.3,1.7,8.5,4.8,11.6S106,600.5,110.3,600.5z"/>
						</g>
						<g id="XMLID_59_">
							<path id="XMLID_60_" class="st6" d="M32.8,618.9c4.3,0,8.5-1.7,11.6-4.8s4.8-7.2,4.8-11.6c0-4.3-1.7-8.5-4.8-11.6
								s-7.2-4.8-11.6-4.8c-4.3,0-8.5,1.7-11.6,4.8s-4.8,7.2-4.8,11.6c0,4.3,1.7,8.5,4.8,11.6S28.5,618.9,32.8,618.9z"/>
						</g>
						<g id="XMLID_57_">
							<path id="XMLID_58_" class="st6" d="M-109.7,352.9c4.3,0,8.5-1.7,11.6-4.8c3.1-3.1,4.8-7.2,4.8-11.6c0-4.3-1.7-8.5-4.8-11.6
								c-3.1-3.1-7.2-4.8-11.6-4.8c-4.3,0-8.5,1.7-11.6,4.8c-3.1,3.1-4.8,7.2-4.8,11.6c0,4.3,1.7,8.5,4.8,11.6
								C-118.2,351.1-114,352.9-109.7,352.9z"/>
						</g>
					</g>
					<g id="text_28_1_">
						<g id="XMLID_51_">
							<g id="XMLID_52_">
								<g id="XMLID_53_" transform="translate(352.988963 369.616889)scale(0.06 -0.06)">
									<g id="XMLID_54_">
										<path id="DejaVuSansMono-Bold-34_1_" class="st4" d="M-4030.9-3461.2l-72-112.7h72V-3461.2z M-4035.8-3398.6h59V-3574
											h31.4v-48.4h-31.4v-61.5h-54.1v61.5H-4144v54.7L-4035.8-3398.6z"/>
									</g>
								</g>
							</g>
						</g>
					</g>
					<g id="text_31_1_">
						<g id="XMLID_47_">
							<g id="XMLID_48_">
								<g id="XMLID_49_" transform="translate(333.197412 374.305224)scale(0.06 -0.06)">
									<g id="XMLID_50_">
										<path id="DejaVuSansMono-Bold-37_2_" class="st4" d="M-5098.6-3626.2h180.4v-39.9l-96.7-245.4h-57.5l92.9,235.6h-119v49.7
											H-5098.6z"/>
									</g>
								</g>
							</g>
						</g>
					</g>
					<g id="text_42_1_">
						<g id="XMLID_39_">
							<g id="XMLID_40_">
								<g id="XMLID_41_" transform="translate(294.974863 306.324362)scale(0.06 -0.06)">
									<g id="XMLID_46_">
										<path id="DejaVuSansMono-Bold-31_1_" class="st4" d="M-6944.3-561.1h63V-376l-58.7-14.6v50.8l59.1,14.2h54.5v-235.6h63
											v-49.7h-180.9V-561.1L-6944.3-561.1z"/>
									</g>
									<g id="XMLID_42_">
										<path id="DejaVuSansMono-Bold-38_1_" class="st4" d="M-6626.9-483.6c-12.6,0-22.8-4-30.6-11.9
											c-7.8-7.9-11.7-18.5-11.7-31.6s3.9-23.7,11.7-31.7c7.8-8,18-12,30.6-12s22.8,4.1,30.6,12.2c7.9,8.2,11.8,18.7,11.8,31.5
											c0,13.1-3.9,23.7-11.7,31.6C-6603.9-487.6-6614.2-483.6-6626.9-483.6z M-6668.8-459.7c-14.4,5-25.4,12.8-32.9,23.4
											c-7.5,10.6-11.3,23.7-11.3,39.1c0,23.7,7.7,42.4,23.1,56.1c15.4,13.8,36.4,20.7,62.9,20.7c26.6,0,47.6-6.9,63-20.7
											c15.4-13.7,23.1-32.4,23.1-56.1c0-15.3-3.7-28.2-11.1-38.9c-7.4-10.7-18.1-18.5-32.3-23.6c15.8-4.9,28.2-13.5,37.1-26
											c8.9-12.5,13.4-27.4,13.4-44.9c0-27.4-8.1-48.5-24.3-63.5c-16.2-14.9-39.2-22.4-69-22.4c-29.7,0-52.6,7.5-68.8,22.4
											c-16.2,14.9-24.3,36.1-24.3,63.5c0,17.6,4.5,32.6,13.6,45.1C-6697.4-473-6684.8-464.4-6668.8-459.7z M-6662.8-401.8
											c0-11.2,3.2-20.1,9.6-26.7c6.4-6.6,15.2-9.8,26.3-9.8c11.2,0,20,3.3,26.5,9.8s9.7,15.4,9.7,26.7c0,11.1-3.2,19.8-9.7,26.2
											c-6.4,6.4-15.3,9.7-26.5,9.7c-11,0-19.7-3.2-26.2-9.7C-6659.6-382.1-6662.8-390.8-6662.8-401.8z"/>
									</g>
								</g>
							</g>
						</g>
					</g>
				</g>
			</g>
			<g id="patch_10_2_">
				<path id="XMLID_38_" class="st5" d="M180.7,560.1l-47.4,19.6"/>
				<path id="XMLID_37_" class="st5" d="M141,582.9l-7.7-3.2l3.2-7.7"/>
			</g>
			<g id="XMLID_33_">
				<g id="XMLID_35_">
					<path id="XMLID_36_" class="st6" d="M181,577.2c4.3,0,8.5-1.7,11.6-4.8s4.8-7.2,4.8-11.6c0-4.3-1.7-8.5-4.8-11.6
						c-3.1-3.1-7.2-4.8-11.6-4.8c-4.3,0-8.5,1.7-11.6,4.8s-4.8,7.2-4.8,11.6c0,4.3,1.7,8.5,4.8,11.6
						C172.5,575.4,176.6,577.2,181,577.2z"/>
				</g>
				<text id="XMLID_34_" transform="matrix(1 0 0 1 173.508 568.2295)" class="st4 st7 st8">2</text>
			</g>
			<g id="XMLID_31_">
				<text transform="matrix(1 0 0 1 163.0991 608.998)" class="st9 st7 st10">MP</text>
			</g>
			<g id="XMLID_29_">
				<text transform="matrix(1 0 0 1 -127.6545 304.6217)" class="st9 st7 st10">MA</text>
			</g>
			<g id="XMLID_27_">
				<text transform="matrix(1 0 0 1 83.4786 647.4375)" class="st9 st7 st10">MSC</text>
			</g>
		</g>
		<g id="XMLID_1_">
			<g id="figure_1_1_">
				<g id="axes_1_1_">
					<g id="patch_30_1_">
						<path id="XMLID_25_" class="st11" d="M105.8,530C68.2,449.5,31,369.8-5.8,291"/>
						<path id="XMLID_24_" class="st11" d="M-8.7,298.8l2.8-7.8l7.8,2.8"/>
					</g>
					<g id="PathCollection_1_1_">
						<g id="XMLID_22_">
							<path id="XMLID_23_" class="st12" d="M105.8,546.4c4.3,0,8.5-1.7,11.6-4.8s4.8-7.2,4.8-11.6c0-4.3-1.7-8.5-4.8-11.6
								c-3.1-3.1-7.2-4.8-11.6-4.8c-4.3,0-8.5,1.7-11.6,4.8s-4.8,7.2-4.8,11.6c0,4.3,1.7,8.5,4.8,11.6
								C97.3,544.6,101.4,546.4,105.8,546.4z"/>
						</g>
						<g id="XMLID_20_">
							<path id="XMLID_21_" class="st13" d="M-15.3,287.1c4.3,0,8.5-1.7,11.6-4.8c3.1-3.1,4.8-7.2,4.8-11.6c0-4.3-1.7-8.5-4.8-11.6
								s-7.2-4.8-11.6-4.8c-4.3,0-8.5,1.7-11.6,4.8c-3.1,3.1-4.8,7.2-4.8,11.6c0,4.3,1.7,8.5,4.8,11.6
								C-23.8,285.4-19.7,287.1-15.3,287.1z"/>
						</g>
					</g>
					<g id="text_30_1_">
						<g id="XMLID_16_">
							<g id="XMLID_17_">
								<g id="XMLID_18_" transform="translate(334.422399 358.608064)scale(0.06 -0.06)">
									<g id="XMLID_19_">
										<path id="DejaVuSansMono-Bold-37_1_" class="st4" d="M-3903.9-2679h180.4v-39.9l-96.7-245.4h-57.5l92.9,235.6h-119v49.7
											H-3903.9z"/>
									</g>
								</g>
							</g>
						</g>
					</g>
				</g>
			</g>
			<g id="patch_10_1_">
				<path id="XMLID_15_" class="st11" d="M226.8,497.4l-97,27.5"/>
				<path id="XMLID_14_" class="st11" d="M137.3,528.6l-7.4-3.7l3.7-7.4"/>
			</g>
			<g id="XMLID_9_">
				<g id="XMLID_12_">
					<path id="XMLID_13_" class="st13" d="M227.1,514.4c4.3,0,8.5-1.7,11.6-4.8c3.1-3.1,4.8-7.2,4.8-11.6c0-4.3-1.7-8.5-4.8-11.6
						c-3.1-3.1-7.2-4.8-11.6-4.8c-4.3,0-8.5,1.7-11.6,4.8c-3.1,3.1-4.8,7.2-4.8,11.6c0,4.3,1.7,8.5,4.8,11.6
						C218.6,512.7,222.8,514.4,227.1,514.4z"/>
				</g>
				<g id="XMLID_10_">
					<text transform="matrix(1 0 0 1 220.8939 505.4842)" class="st14 st7 st15">1</text>
				</g>
			</g>
			<text id="XMLID_8_" transform="matrix(1 0 0 1 -27.7065 277.7186)" class="st14 st7 st15">17</text>
			<g id="XMLID_6_">
				<text transform="matrix(1 0 0 1 46.5657 543.5861)" class="st14 st7 st10">SC</text>
			</g>
			<g id="XMLID_4_">
				<text transform="matrix(1 0 0 1 217.8742 543.5861)" class="st14 st7 st10">P</text>
			</g>
			<g id="XMLID_2_">
				<text transform="matrix(1 0 0 1 -24.2881 238.9716)" class="st14 st7 st10">A</text>
			</g>
		</g>
	</g>
</g>
</svg>
