<?xml version="1.0" encoding="utf-8"?>
<!-- Generator: Adobe Illustrator 19.0.0, SVG Export Plug-In . SVG Version: 6.00 Build 0)  -->
<svg version="1.1" id="Layer_1" xmlns="http://www.w3.org/2000/svg" xmlns:xlink="http://www.w3.org/1999/xlink" x="0px" y="0px"
	 width="1068px" height="479.5px" viewBox="54 157.5 1068 479.5" style="enable-background:new 54 157.5 1068 479.5;"
	 xml:space="preserve">
<style type="text/css">
	.st0{fill:#231F20;}
	.st1{font-family:'monospace';}
	.st2{font-size:12px;}
	.st3{fill:#0049FF;}
	.st4{fill:#FF000D;}
	.st5{font-size:10.7254px;}
	.st6{fill:none;stroke:#0049FF;}
	.st7{fill:none;stroke:#FF000D;stroke-miterlimit:10;}
	.st8{fill:none;stroke:#FF000D;}
	.st9{fill:none;stroke:#0049FF;stroke-width:0.4;stroke-dasharray:2.0165,2.0165;}
	.st10{fill:none;stroke:#FF000D;stroke-width:0.4;stroke-dasharray:2.0165,2.0165;}
	.st11{fill:none;stroke:#00A651;stroke-width:0.4;stroke-dasharray:2.0165,2.0165;}
</style>
<text id="XMLID_174_" transform="matrix(1 0 0 1 129.055 258.8493)"><tspan x="0" y="0" class="st0 st1 st2">Overlay on 0</tspan><tspan x="0" y="14.4" class="st0 st1 st2">Radius Match</tspan><tspan x="16.5" y="28.8" class="st0 st1 st2">Closest</tspan></text>
<text id="XMLID_243_" transform="matrix(1 0 0 1 381.0945 529.5159)"><tspan x="0" y="0" class="st3 st1 st2">Blue</tspan><tspan x="26.4" y="0" class="st0 st1 st2"> over </tspan><tspan x="66" y="0" class="st4 st1 st2">Red</tspan><tspan x="85.8" y="0" class="st0 st1 st2">, </tspan><tspan x="0" y="14.4" class="st0 st1 st2">Radius Matching</tspan></text>
<text id="XMLID_244_" transform="matrix(1 0 0 1 631.7043 258.8491)"><tspan x="0" y="0" class="st4 st1 st2">Red</tspan><tspan x="19.8" y="0" class="st0 st1 st2"> over </tspan><tspan x="59.4" y="0" class="st3 st1 st2">Blue</tspan><tspan x="85.8" y="0" class="st0 st1 st2">, RM</tspan><tspan x="0" y="14.4" class="st0 st1 st2">Point </tspan><tspan x="39.6" y="14.4" class="st4 st1 st2">4</tspan><tspan x="46.2" y="14.4" class="st0 st1 st2"> gets ignored</tspan><tspan x="0" y="28.8" class="st0 st1 st2">as there are better matches</tspan><tspan x="0" y="43.2" class="st0 st1 st2">in the Blue instance, and</tspan><tspan x="0" y="57.6" class="st0 st1 st2">cross instance for </tspan><tspan x="125.4" y="57.6" class="st3 st1 st2">1</tspan><tspan x="132" y="57.6" class="st0 st1 st2"> and </tspan><tspan x="164.9" y="57.6" class="st3 st1 st2">7</tspan></text>
<text id="XMLID_181_" transform="matrix(1 0 0 1 718.3281 479.358)" class="st4 st1 st5">4</text>
<text id="XMLID_182_" transform="matrix(1 0 0 1 757.9869 447.0446)" class="st4 st1 st5">2</text>
<text id="XMLID_241_" transform="matrix(1 0 0 1 738.0728 417.5446)" class="st3 st1 st5">1</text>
<text id="XMLID_242_" transform="matrix(1 0 0 1 635.0729 453.1476)" class="st3 st1 st5">7</text>
<text id="XMLID_193_" transform="matrix(1 0 0 1 658.3739 492.082)" class="st4 st1 st5">7</text>
<g id="XMLID_175_">
	<g id="XMLID_126_">
		<circle id="XMLID_130_" class="st3" cx="486.8" cy="479.4" r="4.7"/>
		<circle id="XMLID_129_" class="st3" cx="458.5" cy="424.1" r="2.3"/>
		<circle id="XMLID_128_" class="st3" cx="366.6" cy="452.8" r="2.3"/>
		<circle id="XMLID_127_" class="st3" cx="258.7" cy="246.4" r="2.3"/>
	</g>
	<g id="XMLID_101_">
		<line id="XMLID_125_" class="st6" x1="258.9" y1="246.4" x2="366.9" y2="453.1"/>
		<line id="XMLID_124_" class="st6" x1="366.9" y1="453.1" x2="458.1" y2="424.4"/>
		<line id="XMLID_104_" class="st6" x1="458.1" y1="424.4" x2="486.8" y2="479.4"/>
	</g>
</g>
<g id="XMLID_11_">
	<g id="XMLID_168_">
		<circle id="XMLID_173_" class="st4" cx="469.9" cy="447" r="2.3"/>
		<circle id="XMLID_172_" class="st7" cx="438.7" cy="465" r="2.3"/>
		<circle id="XMLID_171_" class="st4" cx="486.8" cy="479.4" r="2.3"/>
		<circle id="XMLID_170_" class="st4" cx="378.8" cy="479.4" r="2.3"/>
		<circle id="XMLID_169_" class="st4" cx="268.3" cy="270.4" r="2.3"/>
	</g>
	<g id="XMLID_163_">
		<line id="XMLID_167_" class="st8" x1="268.5" y1="270.4" x2="379.1" y2="479.4"/>
		<line id="XMLID_166_" class="st8" x1="379.1" y1="479.4" x2="439.1" y2="465"/>
		<line id="XMLID_165_" class="st8" x1="439.1" y1="465" x2="469.9" y2="447"/>
		<line id="XMLID_164_" class="st8" x1="469.9" y1="447" x2="486.8" y2="479.4"/>
	</g>
</g>
<circle id="XMLID_14_" class="st9" cx="486.8" cy="479.4" r="12.7"/>
<circle id="XMLID_131_" class="st9" cx="458.1" cy="424.1" r="26.2"/>
<circle id="XMLID_177_" class="st9" cx="366.6" cy="452.8" r="29.2"/>
<circle id="XMLID_179_" class="st9" cx="258.7" cy="246.4" r="26.4"/>
<line id="XMLID_3_" class="st10" x1="721.6" y1="465" x2="740.7" y2="424.4"/>
<line id="XMLID_4_" class="st10" x1="721.6" y1="465" x2="649.5" y2="453.1"/>
<g id="XMLID_7_">
	<line id="XMLID_5_" class="st8" x1="728.2" y1="445.7" x2="734.1" y2="443.7"/>
	<line id="XMLID_6_" class="st8" x1="730.1" y1="441.8" x2="732.2" y2="447.6"/>
</g>
<g id="XMLID_12_">
	<line id="XMLID_15_" class="st8" x1="686.8" y1="461.4" x2="692" y2="458"/>
	<line id="XMLID_13_" class="st8" x1="687.7" y1="457.1" x2="691.1" y2="462.3"/>
</g>
<g id="XMLID_197_">
	<circle id="XMLID_240_" class="st4" cx="769.4" cy="479.4" r="4.7"/>
	<g id="XMLID_205_">
		<circle id="XMLID_230_" class="st4" cx="752.5" cy="447" r="2.3"/>
		<circle id="XMLID_229_" class="st7" cx="721.3" cy="465" r="2.3"/>
		<circle id="XMLID_209_" class="st4" cx="661.3" cy="479.4" r="2.3"/>
		<circle id="XMLID_208_" class="st4" cx="550.9" cy="270.4" r="2.3"/>
	</g>
	<g id="XMLID_198_">
		<line id="XMLID_203_" class="st8" x1="551.1" y1="270.4" x2="661.7" y2="479.4"/>
		<line id="XMLID_201_" class="st8" x1="661.7" y1="479.4" x2="721.6" y2="465"/>
		<line id="XMLID_200_" class="st8" x1="721.6" y1="465" x2="752.5" y2="447"/>
		<line id="XMLID_199_" class="st8" x1="752.5" y1="447" x2="769.4" y2="479.4"/>
	</g>
</g>
<g id="XMLID_231_">
	<g id="XMLID_236_">
		<circle id="XMLID_239_" class="st3" cx="741" cy="424.1" r="2.3"/>
		<circle id="XMLID_238_" class="st3" cx="649.1" cy="452.8" r="2.3"/>
		<circle id="XMLID_237_" class="st3" cx="541.2" cy="246.4" r="2.3"/>
		<circle id="XMLID_210_" class="st3" cx="769.4" cy="479.4" r="2.3"/>
	</g>
	<g id="XMLID_232_">
		<line id="XMLID_235_" class="st6" x1="541.4" y1="246.4" x2="649.5" y2="453.1"/>
		<line id="XMLID_234_" class="st6" x1="649.5" y1="453.1" x2="740.7" y2="424.4"/>
		<line id="XMLID_233_" class="st6" x1="740.7" y1="424.4" x2="769.4" y2="479.4"/>
	</g>
</g>
<circle id="XMLID_196_" class="st10" cx="769.4" cy="479.4" r="12.7"/>
<circle id="XMLID_1_" class="st10" cx="752.5" cy="447" r="25.8"/>
<circle id="XMLID_2_" class="st11" cx="721.6" cy="465" r="73.6"/>
<circle id="XMLID_10_" class="st11" cx="721.6" cy="465" r="45.4"/>
<circle id="XMLID_8_" class="st10" cx="661.7" cy="479.4" r="30"/>
<circle id="XMLID_9_" class="st10" cx="551.1" cy="270.4" r="26.3"/>
</svg>
