<?xml version="1.0" encoding="utf-8"?>
<!-- Generator: Adobe Illustrator 19.0.0, SVG Export Plug-In . SVG Version: 6.00 Build 0)  -->
<svg version="1.1" id="Layer_1" xmlns="http://www.w3.org/2000/svg" xmlns:xlink="http://www.w3.org/1999/xlink" x="0px" y="0px"
	 width="1068px" height="479.5px" viewBox="228 157.5 1068 479.5" style="enable-background:new 228 157.5 1068 479.5;"
	 xml:space="preserve">
<style type="text/css">
	.st0{fill:none;stroke:#0000FF;stroke-width:0.4;}
	.st1{fill:#0000FF;}
	.st2{fill:none;stroke:#FF0000;stroke-width:0.4;}
	.st3{fill:#FF0000;}
	.st4{font-family:'monospace';}
	.st5{font-size:7.7053px;}
	.st6{fill:none;stroke:#0000FF;stroke-width:0.4;stroke-dasharray:2.0165,2.0165;}
	.st7{fill:none;stroke:#0000FF;stroke-width:0.4;stroke-dasharray:2.0038,2.0038;}
	.st8{fill:none;stroke:#0000FF;stroke-width:0.4;stroke-dasharray:1.9678,1.9678;}
	.st9{fill:none;stroke:#00A651;stroke-linecap:round;}
	.st10{fill:none;stroke:#0000FF;stroke-width:0.4;stroke-dasharray:2;}
	.st11{font-family:'monospace';}
	.st12{font-size:18.4549px;}
</style>
<g>
	<g id="XMLID_3_">
		<path id="XMLID_4_" class="st0" d="M509.1,425.1c-2.7,45.5,16.7,57.6,30.1,57.6c8,0,14.7-2,25.4-8c6,1.3,10,9.4,8,15.4
			c-8,10.7-39.5,36.1-77.6,36.1c-23.4,0-38.1-8-56.2-23.4c-4.7-4-7.4-5.4-10.7-5.4s-7.4,2.7-14.1,7.4c-12,8.7-32.1,21.4-56.9,21.4
			c-38.8,0-75-23.4-75-70.3c0-34.1,20.7-54.9,69.6-69.6c25.4-8,44.2-13.4,62.9-18.7c12-3.3,15.4-8,16.1-13.4
			c0.7-7.4,1.3-14.7,1.3-22.8c0-25.4-10-57.6-38.8-57.6c-16.1,0-30.1,9.4-34.8,38.1c-1.3,10.7-5.4,16.7-11.4,21.4
			c-10,7.4-36.1,15.4-48.2,15.4c-11.4,0-15.4-7.4-15.4-16.7c0-17.4,16.1-38.8,32.1-51.5c22.8-18.1,64.9-40.8,112.4-40.8
			c56.2,0,89,28.1,85.7,97L509.1,425.1z M428.8,407.7c0.7-10.7,0-12.7-4.7-12c-30.1,4-56.2,15.4-56.2,46.8
			c0,21.4,15.4,40.2,34.1,40.2c20.7,0,24.8-12,25.4-32.8L428.8,407.7z"/>
	</g>
	<circle class="st1" cx="572.7" cy="490" r="2.6"/>
	<circle class="st1" cx="564.7" cy="474.6" r="2.6"/>
	<circle class="st1" cx="539.1" cy="482.6" r="2.6"/>
</g>
<g>
	<g id="XMLID_13_">
		<path id="XMLID_14_" class="st0" d="M832.8,425.1c-2.7,45.5,16.7,57.6,30.1,57.6c8,0,14.7-2,25.4-8c6,1.3,10,9.4,8,15.4
			c-8,10.7-39.5,36.1-77.6,36.1c-23.4,0-38.1-8-56.2-23.4c-4.7-4-7.4-5.4-10.7-5.4s-7.4,2.7-14.1,7.4c-12,8.7-32.1,21.4-56.9,21.4
			c-38.8,0-75-23.4-75-70.3c0-34.1,20.7-54.9,69.6-69.6c25.4-8,44.2-13.4,62.9-18.7c12-3.3,15.4-8,16.1-13.4
			c0.7-7.4,1.3-14.7,1.3-22.8c0-25.4-10-57.6-38.8-57.6c-16.1,0-30.1,9.4-34.8,38.1c-1.3,10.7-5.4,16.7-11.4,21.4
			c-10,7.4-36.1,15.4-48.2,15.4c-11.4,0-15.4-7.4-15.4-16.7c0-17.4,16.1-38.8,32.1-51.5c22.8-18.1,64.9-40.8,112.4-40.8
			c56.2,0,89,28.1,85.7,97L832.8,425.1z M752.5,407.7c0.7-10.7,0-12.7-4.7-12c-30.1,4-56.2,15.4-56.2,46.8
			c0,21.4,15.4,40.2,34.1,40.2c20.7,0,24.8-12,25.4-32.8L752.5,407.7z"/>
	</g>
	<circle class="st1" cx="896.4" cy="490" r="2.6"/>
	<circle class="st1" cx="888.5" cy="474.6" r="2.6"/>
	<circle class="st1" cx="862.9" cy="482.6" r="2.6"/>
</g>
<g>
	<g>
		<g id="XMLID_1_">
			<path id="XMLID_2_" class="st2" d="M762.3,378.3c11.5-3.3,13-9.4,13-19.4l0.8-30.8c0.8-24.8-8.4-58.2-55.8-58.2
				c-21.4,0-47.4,9.4-48.9,30.1c-0.8,10.7-1.5,18.7-7.6,22.8c-11.5,8-32.1,12.7-43.6,12.7c-6.9,0-10.7-3.3-10.7-9.4
				c0-34.8,86.3-82.3,142.1-82.3c55,0,81.8,28.1,79.5,78.3l-4.6,116.4c-1.5,30.8,5.3,58.2,35.1,58.2c7.6,0,14.5-2,19.1-4
				c3.8-2,7.6-4.7,9.9-4.7c3.1,0,5.3,4,5.3,8.7c0,3.3-26.7,29.4-64.2,29.4c-18.3,0-36.7-6-49.7-20.7c-3.1-4-7.6-9.4-12.2-9.4
				c-5.3,0-14.5,6-29.8,13.4c-16.8,8-33.6,16.7-55,16.7c-22.2,0-40.5-5.4-53.5-15.4c-14.5-11.4-23.7-28.1-23.7-46.8
				c0-26.1,14.5-41.5,63.4-56.9L762.3,378.3z M715,496.1c15.3,0,39-10,46.6-16.7c9.2-8,9.2-17.4,9.9-31.5l1.5-39.5
				c0-7.4-3.1-8.7-7.6-8.7c-4.6,0-17.6,2.7-31.3,6.7c-45.1,13.4-67.2,23.4-67.2,49.5C666.8,467.3,676,496.1,715,496.1z"/>
		</g>
	</g>
	<circle class="st3" cx="890.7" cy="487.7" r="2.6"/>
	<circle class="st3" cx="880.8" cy="492.7" r="2.6"/>
	<circle class="st3" cx="896" cy="496.7" r="2.6"/>
	<circle class="st3" cx="861.7" cy="496.7" r="2.6"/>
</g>
<polyline class="st2" points="536.6,506.4 536.6,537.1 284.3,537.1 284.3,506.4 "/>
<polyline class="st0" points="572.7,544.4 572.7,575.1 282.3,575.1 282.3,544.4 "/>
<polyline class="st2" points="896,506.4 896,537.1 608,537.1 608,506.4 "/>
<polyline class="st0" points="896.9,544.4 896.9,575.1 606,575.1 606,544.4 "/>
<text transform="matrix(1 0 0 1 541.6774 506.4003)" class="st3 st4 st5">0</text>
<text transform="matrix(1 0 0 1 900.5178 499.27)" class="st3 st4 st5">0</text>
<text transform="matrix(1 0 0 1 890.7875 485.1361)" class="st3 st4 st5">2</text>
<text transform="matrix(1 0 0 1 878.1313 501.3515)" class="st3 st4 st5">4</text>
<text transform="matrix(1 0 0 1 861.6099 506.4006)" class="st3 st4 st5">7</text>
<text transform="matrix(1 0 0 1 1206.7939 499.27)" class="st3 st4 st5">0</text>
<text transform="matrix(1 0 0 1 1199.0636 485.1361)" class="st3 st4 st5">2</text>
<text transform="matrix(1 0 0 1 1186.4075 501.3515)" class="st3 st4 st5">4</text>
<text transform="matrix(1 0 0 1 1169.886 506.4006)" class="st3 st4 st5">7</text>
<g>
	<text transform="matrix(1 0 0 1 578.0107 492.1089)" class="st1 st4 st5">0</text>
</g>
<g>
	<text transform="matrix(1 0 0 1 567.2802 471.9585)" class="st1 st4 st5">1</text>
</g>
<g>
	<text transform="matrix(1 0 0 1 541.6775 477.9749)" class="st1 st4 st5">7</text>
</g>
<text transform="matrix(1 0 0 1 529.2371 482.6358)" class="st3 st4 st5">2</text>
<g>
	<text transform="matrix(1 0 0 1 901.5179 491.1089)" class="st1 st4 st5">0</text>
</g>
<g>
	<text transform="matrix(1 0 0 1 890.7875 471.9585)" class="st1 st4 st5">1</text>
</g>
<g>
	<text transform="matrix(1 0 0 1 865.1846 477.9749)" class="st1 st4 st5">7</text>
</g>
<g>
	<text transform="matrix(1 0 0 1 1226.673 491.1089)" class="st1 st4 st5">0</text>
</g>
<g>
	<text transform="matrix(1 0 0 1 1215.9425 471.9585)" class="st1 st4 st5">1</text>
</g>
<g>
	<text transform="matrix(1 0 0 1 1190.3398 477.9749)" class="st1 st4 st5">7</text>
</g>
<text transform="matrix(1 0 0 1 520.5522 487.7169)" class="st3 st4 st5">4</text>
<text transform="matrix(1 0 0 1 503.8086 491.306)" class="st3 st4 st5">7</text>
<g>
	<circle class="st6" cx="572.7" cy="490" r="36.6"/>
</g>
<g>
	<circle class="st7" cx="564.7" cy="474.6" r="35.1"/>
</g>
<g>
	<circle class="st8" cx="539.1" cy="482.6" r="18.8"/>
</g>
<g>
	<g id="XMLID_7_">
		<path id="XMLID_8_" class="st2" d="M419.5,378.3c10-3.3,11.4-9.4,11.4-19.4l0.7-30.8c0.7-24.8-7.4-58.2-48.9-58.2
			c-18.7,0-41.5,9.4-42.8,30.1c-0.7,10.7-1.3,18.7-6.7,22.8c-10,8-28.1,12.7-38.1,12.7c-6,0-9.4-3.3-9.4-9.4
			c0-34.8,75.6-82.3,124.5-82.3c48.2,0,71.6,28.1,69.6,78.3l-4,116.4c-1.3,30.8,4.7,58.2,30.8,58.2c6.7,0,12.7-2,16.7-4
			c3.3-2,6.7-4.7,8.7-4.7c2.7,0,4.7,4,4.7,8.7c0,3.3-23.4,29.4-56.2,29.4c-16.1,0-32.1-6-43.5-20.7c-2.7-4-6.7-9.4-10.7-9.4
			c-4.7,0-12.7,6-26.1,13.4c-14.7,8-29.4,16.7-48.2,16.7c-19.4,0-35.5-5.4-46.8-15.4c-12.7-11.4-20.7-28.1-20.7-46.8
			c0-26.1,12.7-41.5,55.5-56.9L419.5,378.3z M378,496.1c13.4,0,34.1-10,40.8-16.7c8-8,8-17.4,8.7-31.5l1.3-39.5
			c0-7.4-2.7-8.7-6.7-8.7s-15.4,2.7-27.4,6.7c-39.5,13.4-58.9,23.4-58.9,49.5C335.8,467.3,343.8,496.1,378,496.1z"/>
	</g>
	<circle class="st3" cx="531.9" cy="487.7" r="2.6"/>
	<circle class="st3" cx="523.2" cy="492.7" r="2.6"/>
	<circle class="st3" cx="536.6" cy="496.7" r="2.6"/>
	<circle class="st3" cx="506.5" cy="496.7" r="2.6"/>
</g>
<g>
	<g id="XMLID_21_">
		<path id="XMLID_22_" class="st0" d="M1158.3,425.1c-2.7,45.5,16.7,57.6,30.1,57.6c8,0,14.7-2,25.4-8c6,1.3,10,9.4,8,15.4
			c-8,10.7-39.5,36.1-77.6,36.1c-23.4,0-38.1-8-56.2-23.4c-4.7-4-7.4-5.4-10.7-5.4c-3.3,0-7.4,2.7-14.1,7.4
			c-12,8.7-32.1,21.4-56.9,21.4c-38.8,0-75-23.4-75-70.3c0-34.1,20.7-54.9,69.6-69.6c25.4-8,44.2-13.4,62.9-18.7
			c12-3.3,15.4-8,16.1-13.4c0.7-7.4,1.3-14.7,1.3-22.8c0-25.4-10-57.6-38.8-57.6c-16.1,0-30.1,9.4-34.8,38.1
			c-1.3,10.7-5.4,16.7-11.4,21.4c-10,7.4-36.1,15.4-48.2,15.4c-11.4,0-15.4-7.4-15.4-16.7c0-17.4,16.1-38.8,32.1-51.5
			c22.8-18.1,64.9-40.8,112.4-40.8c56.2,0,89,28.1,85.7,97L1158.3,425.1z M1078,407.7c0.7-10.7,0-12.7-4.7-12
			c-30.1,4-56.2,15.4-56.2,46.8c0,21.4,15.4,40.2,34.1,40.2c20.7,0,24.8-12,25.4-32.8L1078,407.7z"/>
	</g>
	<circle class="st1" cx="1221.8" cy="490" r="2.6"/>
	<circle class="st1" cx="1213.9" cy="474.6" r="2.6"/>
	<circle class="st1" cx="1188.3" cy="482.6" r="2.6"/>
</g>
<polyline class="st0" points="1221.8,544.4 1221.8,575.1 931.4,575.1 931.4,544.4 "/>
<g>
	<polyline class="st2" points="1202.8,504.4 1202.8,535.1 950.5,535.1 950.5,504.4 	"/>
	<g>
		<g id="XMLID_17_">
			<path id="XMLID_18_" class="st2" d="M1085.7,376.3c10-3.3,11.4-9.4,11.4-19.4l0.7-30.8c0.7-24.8-7.4-58.2-48.9-58.2
				c-18.7,0-41.5,9.4-42.8,30.1c-0.7,10.7-1.3,18.7-6.7,22.8c-10,8-28.1,12.7-38.1,12.7c-6,0-9.4-3.3-9.4-9.4
				c0-34.8,75.6-82.3,124.5-82.3c48.2,0,71.6,28.1,69.6,78.3l-4,116.4c-1.3,30.8,4.7,58.2,30.8,58.2c6.7,0,12.7-2,16.7-4
				c3.3-2,6.7-4.7,8.7-4.7c2.7,0,4.7,4,4.7,8.7c0,3.3-23.4,29.4-56.2,29.4c-16.1,0-32.1-6-43.5-20.7c-2.7-4-6.7-9.4-10.7-9.4
				c-4.7,0-12.7,6-26.1,13.4c-14.7,8-29.4,16.7-48.2,16.7c-19.4,0-35.5-5.4-46.8-15.4c-12.7-11.4-20.7-28.1-20.7-46.8
				c0-26.1,12.7-41.5,55.5-56.9L1085.7,376.3z M1044.2,494.1c13.4,0,34.1-10,40.8-16.7c8-8,8-17.4,8.7-31.5l1.3-39.5
				c0-7.4-2.7-8.7-6.7-8.7s-15.4,2.7-27.4,6.7c-39.5,13.4-58.9,23.4-58.9,49.5C1002,465.3,1010,494.1,1044.2,494.1z"/>
		</g>
		<circle class="st3" cx="1198.1" cy="485.7" r="2.6"/>
		<circle class="st3" cx="1189.4" cy="490.7" r="2.6"/>
		<circle class="st3" cx="1202.8" cy="494.7" r="2.6"/>
		<circle class="st3" cx="1172.7" cy="494.7" r="2.6"/>
	</g>
</g>
<line class="st9" x1="572.7" y1="490" x2="536.6" y2="496.7"/>
<line class="st9" x1="564.7" y1="474.6" x2="531.9" y2="488"/>
<line class="st9" x1="539.2" y1="482.7" x2="523.2" y2="492.7"/>
<circle class="st10" cx="896.4" cy="490" r="6.4"/>
<circle class="st10" cx="888.5" cy="474.6" r="23.4"/>
<circle class="st10" cx="862.9" cy="482.7" r="14"/>
<line class="st9" x1="896.4" y1="490" x2="890.7" y2="488"/>
<line class="st9" x1="888.4" y1="474.6" x2="890.7" y2="488"/>
<line class="st9" x1="862.9" y1="482.7" x2="861.7" y2="496.7"/>
<circle class="st10" cx="1221.8" cy="490" r="20.2"/>
<line class="st9" x1="1202.8" y1="494.7" x2="1221.8" y2="490"/>
<circle class="st10" cx="1213.8" cy="474.6" r="19.2"/>
<line class="st9" x1="1213.8" y1="474.6" x2="1198.1" y2="485.7"/>
<circle class="st10" cx="1188.4" cy="482.7" r="8.6"/>
<line class="st9" x1="1188.4" y1="482.7" x2="1189.4" y2="490.7"/>
<text transform="matrix(1 0 0 1 282.0502 605.4001)" class="st11 st12">left side aligned</text>
<text transform="matrix(1 0 0 1 605.9252 605.4001)" class="st11 st12">same width</text>
<text transform="matrix(1 0 0 1 931.3616 605.4001)" class="st11 st12">centered</text>
</svg>
