<?xml version="1.0" encoding="utf-8"?>
<!-- Generator: Adobe Illustrator 19.0.0, SVG Export Plug-In . SVG Version: 6.00 Build 0)  -->
<svg version="1.1" id="Layer_1" xmlns="http://www.w3.org/2000/svg" xmlns:xlink="http://www.w3.org/1999/xlink" x="0px" y="0px"
	 width="661px" height="516.9px" viewBox="-61 181.4 661 516.9" style="enable-background:new -61 181.4 661 516.9;"
	 xml:space="preserve">
<style type="text/css">
	.st0{fill:none;stroke:#0000FF;stroke-width:0.9477;stroke-linecap:round;stroke-linejoin:round;stroke-dasharray:1.8031;}
	.st1{fill:none;stroke:#0000FF;stroke-width:0.9477;stroke-linecap:round;stroke-linejoin:round;}
	.st2{fill:none;stroke:#0000FF;stroke-width:0.3606;stroke-linecap:round;stroke-linejoin:round;}
	.st3{fill:none;stroke:#FF0000;stroke-width:0.9477;stroke-linecap:round;stroke-linejoin:round;stroke-dasharray:1.8031;}
	.st4{fill:none;stroke:#FF0000;stroke-width:0.9477;stroke-linecap:round;stroke-linejoin:round;}
	.st5{fill:none;stroke:#FF0000;stroke-width:0.3606;stroke-linecap:round;stroke-linejoin:round;}
	.st6{fill:#0000FF;stroke:#0000FF;stroke-width:0.9477;stroke-linejoin:round;}
	.st7{fill:#FFFFFF;}
	.st8{fill:#FFFFFF;stroke:#FF0000;stroke-width:1.5161;stroke-linejoin:round;}
	.st9{fill:#FF0000;}
	.st10{font-family:monospace;}
	.st11{font-size:10.8185px;}
	.st12{font-size:17.3641px;}
	.st13{fill:#FF0000;stroke:#FF0000;stroke-width:0.9477;stroke-linejoin:round;}
	.st14{fill:none;stroke:#0000FF;stroke-width:1.5161;stroke-linecap:round;stroke-linejoin:round;}
	.st15{fill:#0000FF;stroke:#0000FF;stroke-width:1.5161;stroke-linejoin:round;}
	.st16{font-size:14.4773px;}
	.st17{fill:#0000FF;}
	.st18{fill:none;stroke:#FF0000;stroke-width:1.5161;stroke-linecap:round;stroke-linejoin:round;}
	.st19{fill:#FF0000;stroke:#FF0000;stroke-width:1.5161;stroke-linejoin:round;}
	.st20{font-size:12.006px;}
</style>
<g id="New_Symbol_6">
	<g id="New_Symbol_4">
		<line id="XMLID_173_" class="st0" x1="552.9" y1="460.8" x2="471" y2="577.4"/>
		<line id="XMLID_172_" class="st1" x1="521.3" y1="505.7" x2="505.8" y2="494.8"/>
		<line id="XMLID_171_" class="st1" x1="570.5" y1="477.5" x2="550.9" y2="463.7"/>
		<line id="XMLID_170_" class="st0" x1="516.1" y1="471.8" x2="417.1" y2="596"/>
		<line id="XMLID_169_" class="st0" x1="426.5" y1="326.5" x2="354.5" y2="456.4"/>
		<line id="XMLID_168_" class="st1" x1="441.3" y1="355.6" x2="417.6" y2="342.5"/>
		<line id="XMLID_167_" class="st0" x1="578.7" y1="458.2" x2="512.9" y2="563.9"/>
		<line id="XMLID_166_" class="st2" x1="54" y1="205" x2="466.7" y2="533.7"/>
		<line id="XMLID_165_" class="st2" x1="54" y1="205" x2="508.1" y2="523.9"/>
		<line id="XMLID_164_" class="st2" x1="54" y1="205" x2="390.5" y2="391.4"/>
		<line id="XMLID_163_" class="st2" x1="54" y1="205" x2="545.8" y2="511"/>
		<g id="XMLID_155_">
			<line id="XMLID_162_" class="st3" x1="178.2" y1="608" x2="9.8" y2="624.4"/>
			<line id="XMLID_161_" class="st3" x1="184.3" y1="654.8" x2="-50.6" y2="619.1"/>
			<line id="XMLID_160_" class="st4" x1="-0.8" y1="645.5" x2="2" y2="627.1"/>
			<line id="XMLID_159_" class="st3" x1="122" y1="593.6" x2="-24.7" y2="591.6"/>
			<line id="XMLID_158_" class="st4" x1="117.1" y1="593.6" x2="117.2" y2="585.6"/>
			<line id="XMLID_157_" class="st4" x1="165.6" y1="627.5" x2="163.8" y2="609.2"/>
			<line id="XMLID_156_" class="st4" x1="161.7" y1="651.3" x2="165.4" y2="627"/>
		</g>
		<line id="XMLID_154_" class="st5" x1="54" y1="205" x2="50.1" y2="593.4"/>
		<line id="XMLID_153_" class="st5" x1="54" y1="205" x2="-11.4" y2="625"/>
		<line id="XMLID_152_" class="st5" x1="54" y1="205" x2="94" y2="616.2"/>
		<g id="XMLID_83_">
			<g id="XMLID_122_">
				<path id="XMLID_151_" class="st1" d="M-1.2,645.5c33.7-17.1,73.3-37,105.4-53.3"/>
				<path id="XMLID_150_" class="st1" d="M100.4,590.9l3.9,1.3l-1.3,3.9"/>
				<path id="XMLID_149_" class="st1" d="M117.1,585.6c11.3,9.9,29.9,25.3,39.8,34"/>
				<path id="XMLID_148_" class="st1" d="M156.6,615.6l0.3,4.1l-4.1,0.3"/>
				<g id="XMLID_123_">
					<g id="XMLID_146_">
						<path id="XMLID_147_" class="st6" d="M-1.2,653.5c2.1,0,4.2-0.8,5.7-2.3c1.5-1.5,2.3-3.5,2.3-5.7c0-2.1-0.8-4.2-2.3-5.7
							c-1.5-1.5-3.5-2.3-5.7-2.3s-4.2,0.8-5.7,2.3c-1.5,1.5-2.3,3.5-2.3,5.7c0,2.1,0.8,4.2,2.3,5.7C-5.3,652.7-3.3,653.5-1.2,653.5z
							"/>
					</g>
					<g id="XMLID_144_">
						<path id="XMLID_145_" class="st6" d="M117.1,591.4c1.5,0,3-0.6,4.1-1.7s1.7-2.6,1.7-4.1c0-1.5-0.6-3-1.7-4.1
							c-1.1-1.1-2.6-1.7-4.1-1.7s-3,0.6-4.1,1.7c-1.1,1.1-1.7,2.6-1.7,4.1c0,1.5,0.6,3,1.7,4.1S115.6,591.4,117.1,591.4z"/>
					</g>
					<g id="XMLID_142_">
						<path id="XMLID_143_" class="st6" d="M165.6,635.5c2.1,0,4.2-0.8,5.7-2.3c1.5-1.5,2.3-3.5,2.3-5.7c0-2.1-0.8-4.2-2.3-5.7
							c-1.5-1.5-3.5-2.3-5.7-2.3c-2.1,0-4.2,0.8-5.7,2.3c-1.5,1.5-2.3,3.5-2.3,5.7c0,2.1,0.8,4.2,2.3,5.7
							C161.4,634.7,163.5,635.5,165.6,635.5z"/>
					</g>
					<g id="text_35_2_">
						<g id="XMLID_137_">
							<g id="XMLID_138_">
								<g id="XMLID_139_" transform="translate(205.517051 389.15162)scale(0.06 -0.06)">
									<g id="XMLID_141_">
										<path id="DejaVuSansMono-Bold-31_11_" class="st7" d="M-3542.5-4300.7h30.9v90.6l-28.7-7.1v24.9l28.9,6.9h26.7v-115.3
											h30.9v-24.3h-88.5V-4300.7z"/>
									</g>
									<g id="XMLID_140_">
										<path id="DejaVuSansMono-Bold-31_10_" class="st7" d="M-3427.2-4300.7h30.9v90.6l-28.7-7.1v24.9l28.9,6.9h26.7v-115.3
											h30.9v-24.3h-88.5V-4300.7z"/>
									</g>
								</g>
							</g>
						</g>
					</g>
					<g id="text_36_1_">
						<g id="XMLID_131_">
							<g id="XMLID_132_">
								<g id="XMLID_133_" transform="translate(249.058464 384.463284)scale(0.06 -0.06)">
									<g id="XMLID_136_">
										<path id="DejaVuSansMono-Bold-31_9_" class="st7" d="M-1488.6-4079.6h30.9v90.6l-28.7-7.1v24.9l28.9,6.9h26.7v-115.3h30.9
											v-24.3h-88.5V-4079.6z"/>
									</g>
									<g id="XMLID_135_">
										<path id="DejaVuSansMono-Bold-32_2_" class="st7" d="M-1350.3-4079.6h58.8v-24.3h-88.7v23.6l15,15.9
											c17.8,18.9,28.6,30.5,32.4,34.9c4.7,5.4,8,10.1,10.1,14.3s3.1,8.2,3.1,12.3c0,6.2-1.9,11-5.7,14.4
											c-3.8,3.4-9.1,5.1-16,5.1c-4.9,0-10.5-1-16.6-3c-6.1-2-12.5-4.8-19.2-8.5v25.7c6.7,2.4,13.2,4.3,19.6,5.6
											c6.4,1.3,12.5,1.9,18.4,1.9c14.8,0,26.4-3.5,34.8-10.4c8.5-6.9,12.7-16.3,12.7-28.2c0-5.5-0.9-10.6-2.8-15.4
											c-1.8-4.8-5-10.1-9.5-16c-3.3-4.2-12.4-13.8-27.2-28.6C-1339.1-4068.4-1345.5-4074.8-1350.3-4079.6z"/>
									</g>
								</g>
							</g>
						</g>
					</g>
					<g id="text_38_1_">
						<g id="XMLID_124_">
							<g id="XMLID_125_">
								<g id="XMLID_126_" transform="translate(236.391871 373.523835)scale(0.06 -0.06)">
									<g id="XMLID_130_">
										<path id="DejaVuSansMono-Bold-31_5_" class="st7" d="M-2066.1-3572.9h24.8v69.5l-23.1-5.5v19.1l23.3,5.3h21.4v-88.5h24.8
											v-18.7h-71.2V-3572.9z"/>
									</g>
									<g id="XMLID_127_">
										<path id="DejaVuSansMono-Bold-34_2_" class="st7" d="M-1935.3-3508l-28.4-42.3h28.4V-3508z M-1937.2-3484.4h23.2v-65.9
											h12.3v-18.2h-12.3v-23.1h-21.3v23.1h-44.5v20.5L-1937.2-3484.4z"/>
									</g>
								</g>
							</g>
						</g>
					</g>
				</g>
			</g>
			<g id="XMLID_84_">
				<g id="XMLID_119_">
					<path id="XMLID_121_" class="st4" d="M94,616.2c0,0,24.7,18.9,31.2,24.1"/>
					<path id="XMLID_120_" class="st4" d="M124.8,636.2l0.4,4.1l-4.3,0.3"/>
				</g>
				<g id="XMLID_117_">
					<path id="XMLID_118_" class="st8" d="M132.1,652.6c1.6,0,3.1-0.6,4.2-1.8c1.1-1.2,1.8-2.7,1.8-4.4c0-1.6-0.6-3.2-1.8-4.4
						c-1.1-1.2-2.6-1.8-4.2-1.8s-3.1,0.6-4.2,1.8c-1.1,1.2-1.8,2.7-1.8,4.4c0,1.6,0.6,3.2,1.8,4.4C129,652,130.6,652.6,132.1,652.6z
						"/>
				</g>
				<g id="XMLID_115_">
					<text transform="matrix(1 0 0 1 129.1677 648.9888)" class="st9 st10 st11">x</text>
				</g>
				<g id="XMLID_112_">
					<path id="XMLID_114_" class="st8" d="M94,624.2c2.1,0,4-0.8,5.5-2.3c1.5-1.5,2.3-3.5,2.3-5.7c0-2.1-0.8-4.2-2.3-5.7
						c-1.5-1.5-3.4-2.3-5.5-2.3c-2.1,0-4,0.8-5.5,2.3c-1.5,1.5-2.3,3.5-2.3,5.7c0,2.1,0.8,4.2,2.3,5.7C90,623.4,92,624.2,94,624.2z"
						/>
				</g>
				<g id="XMLID_109_">
					<text transform="matrix(1 0 0 1 39.0852 580.4194)" class="st9 st10 st12">SC</text>
				</g>
				<g id="XMLID_106_">
					<text transform="matrix(1 0 0 1 -13.9559 611.8785)" class="st9 st10 st12">P</text>
				</g>
				<g id="XMLID_104_">
					<text transform="matrix(1 0 0 1 89.2665 640.2791)" class="st9 st10 st12">A</text>
				</g>
				<g id="XMLID_87_">
					<g id="XMLID_88_">
						<path id="XMLID_103_" class="st4" d="M-11,625.1c13.9-7.6,36.6-19.7,48.9-26.4"/>
						<path id="XMLID_102_" class="st4" d="M48.6,592.6c9.1,4.7,27.3,14.1,34.8,17.9"/>
						<g id="XMLID_100_">
							<path id="XMLID_101_" class="st8" d="M-11,633.1c2.1,0,4-0.8,5.5-2.3c1.5-1.5,2.3-3.5,2.3-5.7s-0.8-4.2-2.3-5.7
								c-1.5-1.5-3.4-2.3-5.5-2.3s-4,0.8-5.5,2.3c-1.5,1.5-2.3,3.5-2.3,5.7s0.8,4.2,2.3,5.7C-15,632.2-13,633.1-11,633.1z"/>
						</g>
						<g id="XMLID_98_">
							<text transform="matrix(1 0 0 1 -16.9076 628.4134)" class="st9 st10 st11">10</text>
						</g>
						<g id="XMLID_96_">
							<path id="XMLID_97_" class="st13" d="M48.6,600.6c2.1,0,4-0.8,5.5-2.3c1.5-1.5,2.3-3.5,2.3-5.7c0-2.1-0.8-4.2-2.3-5.7
								c-1.5-1.5-3.4-2.3-5.5-2.3c-2.1,0-4,0.8-5.5,2.3c-1.5,1.5-2.3,3.5-2.3,5.7c0,2.1,0.8,4.2,2.3,5.7
								C44.6,599.8,46.6,600.6,48.6,600.6z"/>
						</g>
						<path id="XMLID_95_" class="st4" d="M33.7,597.7l4.2,1l-1.1,3.9"/>
						<path id="XMLID_94_" class="st4" d="M82.2,606.6l1.2,3.9l-4.2,1.1"/>
						<g id="text_35_1_">
							<g id="XMLID_89_">
								<g id="XMLID_90_">
									<g id="XMLID_91_" transform="translate(218.475408 375.557638)scale(0.06 -0.06)">
										<g id="XMLID_93_">
											<path id="DejaVuSansMono-Bold-31_2_" class="st7" d="M-2925.4-3646.2h29.9v90.6l-27.9-7.1v24.9l28,6.9h25.9v-115.3h29.9
												v-24.3h-85.9V-3646.2z"/>
										</g>
										<g id="XMLID_92_">
											<path id="DejaVuSansMono-Bold-32_1_" class="st7" d="M-2791.3-3646.2h57.1v-24.3h-86v23.6l14.5,15.9
												c17.2,18.9,27.7,30.5,31.4,34.9c4.5,5.4,7.8,10.1,9.8,14.3s3,8.2,3,12.3c0,6.2-1.8,11-5.5,14.4
												c-3.7,3.4-8.8,5.1-15.6,5.1c-4.8,0-10.1-1-16.1-3c-5.9-2-12.1-4.8-18.6-8.5v25.7c6.5,2.4,12.8,4.3,19,5.6
												c6.2,1.3,12.1,1.9,17.8,1.9c14.3,0,25.6-3.5,33.8-10.4c8.2-6.9,12.3-16.3,12.3-28.2c0-5.5-0.9-10.6-2.7-15.4
												c-1.8-4.8-4.8-10.1-9.2-16c-3.2-4.2-12-13.8-26.4-28.6C-2780.5-3635-2786.7-3641.4-2791.3-3646.2z"/>
										</g>
									</g>
								</g>
							</g>
						</g>
					</g>
				</g>
				<g id="XMLID_85_">
					<text transform="matrix(1 0 0 1 88.0911 619.7879)" class="st9 st10 st11">11</text>
				</g>
			</g>
		</g>
		<g id="XMLID_42_">
			<g id="figure_1_2_">
				<g id="axes_1_2_">
					<g id="patch_10_3_">
						<path id="XMLID_82_" class="st14" d="M508.1,523.9c-10.4,2.5-20.3,4.8-29.8,7.1"/>
						<path id="XMLID_81_" class="st14" d="M482.1,533.3l-3.8-2.3l2.3-3.8"/>
					</g>
					<g id="patch_11_1_">
						<path id="XMLID_80_" class="st14" d="M466.7,533.7c-23.8-44.3-47.3-88.3-70.6-131.7"/>
						<path id="XMLID_79_" class="st14" d="M394.9,406.2l1.3-4.2l4.2,1.3"/>
					</g>
					<g id="PathCollection_1_2_">
						<g id="XMLID_77_">
							<path id="XMLID_78_" class="st15" d="M508.1,532.6c2.3,0,4.5-0.9,6.2-2.6c1.6-1.6,2.6-3.9,2.6-6.2c0-2.3-0.9-4.5-2.6-6.2
								c-1.6-1.6-3.9-2.6-6.2-2.6c-2.3,0-4.5,0.9-6.2,2.6c-1.6,1.6-2.6,3.9-2.6,6.2c0,2.3,0.9,4.5,2.6,6.2
								C503.6,531.7,505.8,532.6,508.1,532.6z"/>
						</g>
						<g id="XMLID_75_">
							<path id="XMLID_76_" class="st15" d="M466.7,542.5c2.3,0,4.5-0.9,6.2-2.6c1.6-1.6,2.6-3.9,2.6-6.2c0-2.3-0.9-4.5-2.6-6.2
								c-1.6-1.6-3.9-2.6-6.2-2.6c-2.3,0-4.5,0.9-6.2,2.6c-1.6,1.6-2.6,3.9-2.6,6.2c0,2.3,0.9,4.5,2.6,6.2
								C462.2,541.5,464.4,542.5,466.7,542.5z"/>
						</g>
						<g id="XMLID_73_">
							<path id="XMLID_74_" class="st15" d="M390.5,400.2c2.3,0,4.5-0.9,6.2-2.6c1.6-1.6,2.6-3.9,2.6-6.2c0-2.3-0.9-4.5-2.6-6.2
								c-1.6-1.6-3.9-2.6-6.2-2.6c-2.3,0-4.5,0.9-6.2,2.6c-1.6,1.6-2.6,3.9-2.6,6.2c0,2.3,0.9,4.5,2.6,6.2
								C386,399.3,388.2,400.2,390.5,400.2z"/>
						</g>
					</g>
					<g id="text_28_1_">
						<g id="XMLID_67_">
							<g id="XMLID_68_">
								<g id="XMLID_69_" transform="translate(352.988963 369.616889)scale(0.06 -0.06)">
									<g id="XMLID_70_">
										<path id="DejaVuSansMono-Bold-34_1_" class="st7" d="M2593.9-2510l-38.5-60.3h38.5V-2510z M2591.2-2476.5h31.6v-93.8h16.8
											v-25.9h-16.8v-32.9h-28.9v32.9h-60.5v29.2L2591.2-2476.5z"/>
									</g>
								</g>
							</g>
						</g>
					</g>
					<g id="text_31_1_">
						<g id="XMLID_63_">
							<g id="XMLID_64_">
								<g id="XMLID_65_" transform="translate(333.197412 374.305224)scale(0.06 -0.06)">
									<g id="XMLID_66_">
										<path id="DejaVuSansMono-Bold-37_2_" class="st7" d="M2176.4-2561.8h96.5v-21.4l-51.7-131.2h-30.8l49.7,126h-63.7V-2561.8
											z"/>
									</g>
								</g>
							</g>
						</g>
					</g>
					<g id="text_42_1_">
						<g id="XMLID_55_">
							<g id="XMLID_56_">
								<g id="XMLID_57_" transform="translate(294.974863 306.324362)scale(0.06 -0.06)">
									<g id="XMLID_62_">
										<path id="DejaVuSansMono-Bold-31_1_" class="st7" d="M1485.7-1449.9h33.7v99l-31.4-7.8v27.2l31.6,7.6h29.1v-126h33.7
											v-26.6h-96.8V-1449.9z"/>
									</g>
									<g id="XMLID_58_">
										<path id="DejaVuSansMono-Bold-38_1_" class="st7" d="M1655.4-1408.4c-6.7,0-12.2-2.1-16.3-6.4c-4.2-4.3-6.2-9.9-6.2-16.9
											c0-7,2.1-12.7,6.2-17c4.2-4.3,9.6-6.4,16.3-6.4c6.7,0,12.2,2.2,16.4,6.5c4.2,4.4,6.3,10,6.3,16.9c0,7-2.1,12.7-6.2,16.9
											C1667.8-1410.5,1662.3-1408.4,1655.4-1408.4z M1633.1-1395.6c-7.7,2.7-13.6,6.8-17.6,12.5c-4,5.7-6,12.7-6,20.9
											c0,12.7,4.1,22.7,12.4,30c8.2,7.4,19.4,11.1,33.6,11.1c14.2,0,25.5-3.7,33.7-11.1c8.2-7.3,12.4-17.4,12.4-30
											c0-8.2-2-15.1-5.9-20.8c-3.9-5.7-9.7-9.9-17.3-12.6c8.5-2.6,15.1-7.2,19.8-13.9c4.8-6.7,7.2-14.7,7.2-24
											c0-14.6-4.3-26-13-33.9c-8.7-8-20.9-12-36.9-12c-15.9,0-28.1,4-36.8,12c-8.7,8-13,19.3-13,33.9c0,9.4,2.4,17.4,7.3,24.1
											C1617.8-1402.7,1624.5-1398.2,1633.1-1395.6z M1636.3-1364.7c0-6,1.7-10.7,5.1-14.3c3.4-3.5,8.1-5.3,14.1-5.3
											c6,0,10.7,1.8,14.2,5.3c3.4,3.5,5.2,8.3,5.2,14.3c0,5.9-1.7,10.6-5.2,14c-3.4,3.4-8.2,5.2-14.2,5.2
											c-5.9,0-10.5-1.7-14-5.2C1638-1354.1,1636.3-1358.8,1636.3-1364.7z"/>
									</g>
								</g>
							</g>
						</g>
					</g>
				</g>
			</g>
			<g id="patch_10_2_">
				<path id="XMLID_54_" class="st14" d="M545.8,511l-25.3,10.5"/>
				<path id="XMLID_53_" class="st14" d="M524.6,523.2l-4.1-1.7l1.7-4.1"/>
			</g>
			<g id="XMLID_49_">
				<g id="XMLID_51_">
					<path id="XMLID_52_" class="st15" d="M545.9,520.1c2.3,0,4.5-0.9,6.2-2.6c1.6-1.6,2.6-3.9,2.6-6.2c0-2.3-0.9-4.5-2.6-6.2
						c-1.6-1.6-3.9-2.6-6.2-2.6s-4.5,0.9-6.2,2.6c-1.6,1.6-2.6,3.9-2.6,6.2c0,2.3,0.9,4.5,2.6,6.2
						C541.4,519.2,543.6,520.1,545.9,520.1z"/>
				</g>
				<text id="XMLID_50_" transform="matrix(1 0 0 1 541.9749 515.3663)" class="st7 st10 st16">2</text>
			</g>
			<g id="XMLID_47_">
				<text transform="matrix(1 0 0 1 541.1753 537.1688)" class="st17 st10 st12">P</text>
			</g>
			<g id="XMLID_45_">
				<text transform="matrix(1 0 0 1 385.695 374.398)" class="st17 st10 st12">A</text>
			</g>
			<g id="XMLID_43_">
				<text transform="matrix(1 0 0 1 498.5993 557.7242)" class="st17 st10 st12">SC</text>
			</g>
		</g>
		<line id="XMLID_41_" class="st1" x1="505.6" y1="495.1" x2="500.6" y2="491.2"/>
		<g id="XMLID_18_">
			<g id="figure_1_1_">
				<g id="axes_1_1_">
					<g id="patch_30_1_">
						<path id="XMLID_40_" class="st18" d="M505.7,494.9c-20.1-43.1-40-85.7-59.7-127.8"/>
						<path id="XMLID_39_" class="st18" d="M444.5,371.3l1.5-4.2l4.2,1.5"/>
					</g>
					<g id="PathCollection_1_1_">
						<g id="XMLID_37_">
							<path id="XMLID_38_" class="st19" d="M505.7,499.1c1.1,0,2.2-0.4,2.9-1.2c0.8-0.8,1.2-1.8,1.2-2.9s-0.4-2.2-1.2-2.9
								c-0.8-0.8-1.8-1.2-2.9-1.2c-1.1,0-2.2,0.4-2.9,1.2c-0.8,0.8-1.2,1.8-1.2,2.9s0.4,2.2,1.2,2.9
								C503.6,498.7,504.6,499.1,505.7,499.1z"/>
						</g>
						<g id="XMLID_35_">
							<path id="XMLID_36_" class="st8" d="M441,365c2.3,0,4.5-0.9,6.2-2.6s2.6-3.9,2.6-6.2c0-2.3-0.9-4.5-2.6-6.2s-3.9-2.6-6.2-2.6
								c-2.3,0-4.5,0.9-6.2,2.6s-2.6,3.9-2.6,6.2c0,2.3,0.9,4.5,2.6,6.2S438.6,365,441,365z"/>
						</g>
					</g>
					<g id="text_30_1_">
						<g id="XMLID_31_">
							<g id="XMLID_32_">
								<g id="XMLID_33_" transform="translate(334.422399 358.608064)scale(0.06 -0.06)">
									<g id="XMLID_34_">
										<path id="DejaVuSansMono-Bold-37_1_" class="st7" d="M2831.5-2226.7h46v-10.2l-24.6-62.5h-14.7l23.7,60h-30.3V-2226.7z"/>
									</g>
								</g>
							</g>
						</g>
					</g>
				</g>
			</g>
			<g id="patch_10_1_">
				<path id="XMLID_30_" class="st18" d="M570.5,477.5l-51.9,14.7"/>
				<path id="XMLID_29_" class="st18" d="M522.6,494.2l-4-2l2-4"/>
			</g>
			<g id="XMLID_26_">
				<g id="XMLID_27_">
					<path id="XMLID_28_" class="st8" d="M570.6,486.6c2.3,0,4.5-0.9,6.2-2.6c1.6-1.6,2.6-3.9,2.6-6.2c0-2.3-0.9-4.5-2.6-6.2
						c-1.6-1.6-3.9-2.6-6.2-2.6s-4.5,0.9-6.2,2.6c-1.6,1.6-2.6,3.9-2.6,6.2c0,2.3,0.9,4.5,2.6,6.2
						C566.1,485.7,568.3,486.6,570.6,486.6z"/>
				</g>
			</g>
			<text id="XMLID_25_" transform="matrix(1 0 0 1 434.3685 360.0167)" class="st9 st10 st20">17</text>
			<g id="XMLID_23_">
				<text transform="matrix(1 0 0 1 469.3111 502.1883)" class="st9 st10 st12">MSC</text>
			</g>
			<g id="XMLID_21_">
				<text transform="matrix(1 0 0 1 560.9189 502.1883)" class="st9 st10 st12">MP</text>
			</g>
			<g id="XMLID_19_">
				<text transform="matrix(1 0 0 1 431.4211 339.2927)" class="st9 st10 st12">MA</text>
			</g>
		</g>
		<path id="XMLID_17_" class="st17" d="M499,488l0.4,2.3l-2.3,0.4"/>
		<path id="XMLID_16_" class="st17" d="M523.5,509.2l-0.4-2.3l2.3-0.4"/>
		<path id="XMLID_15_" class="st17" d="M549.3,460.7l0.4,2.3l-2.3,0.4"/>
		<path id="XMLID_14_" class="st17" d="M566,472.5l0.4,2.3l-2.3,0.4"/>
		<path id="XMLID_13_" class="st17" d="M415.2,339.6l0.7,2.2l-2.2,0.7"/>
		<path id="XMLID_11_" class="st9" d="M3.9,624.6L2.1,626l-1.4-1.8"/>
		<path id="XMLID_9_" class="st9" d="M115.5,596.6l1.7-1.6l1.6,1.7"/>
		<path id="XMLID_7_" class="st9" d="M159.6,654.9l1.8-1.4l1.4,1.8"/>
		<path id="XMLID_5_" class="st9" d="M165.1,606l-1.4,1.8l-1.8-1.4"/>
		<line id="XMLID_4_" class="st0" x1="570.5" y1="471.3" x2="565" y2="480.2"/>
		<g id="XMLID_2_">
			<text transform="matrix(1 0 0 1 567.3134 481.8175)" class="st9 st10 st20">1</text>
		</g>
		<line id="XMLID_1_" class="st1" x1="570.9" y1="477.7" x2="567.8" y2="475.8"/>
	</g>
</g>
</svg>
