<?xml version="1.0" encoding="utf-8"?>
<!-- Generator: Adobe Illustrator 19.0.0, SVG Export Plug-In . SVG Version: 6.00 Build 0)  -->
<svg version="1.1" id="Layer_1" xmlns="http://www.w3.org/2000/svg" xmlns:xlink="http://www.w3.org/1999/xlink" x="0px" y="0px"
	 width="1068px" height="479.5px" viewBox="228 157.5 1068 479.5" style="enable-background:new 228 157.5 1068 479.5;"
	 xml:space="preserve">
<style type="text/css">
	.st0{fill:#FF0000;stroke:#FF0000;stroke-width:0.2628;stroke-linejoin:round;}
	.st1{fill:none;stroke:#FF0000;stroke-linecap:round;stroke-linejoin:round;}
	.st2{fill:#FFFFFF;}
	.st3{fill:#FFFFFF;fill-opacity:0.3;stroke:#FFFFFF;stroke-width:0.2628;stroke-opacity:0.3;}
	.st4{font-family:'monospace';}
	.st5{font-size:10.2929px;}
	.st6{fill:none;stroke:#0000FF;stroke-linecap:round;stroke-linejoin:round;}
	.st7{fill:#0000FF;stroke:#0000FF;stroke-width:0.2628;stroke-linejoin:round;}
	.st8{fill:none;stroke:#00A651;stroke-width:5.059154e-002;stroke-dasharray:0.255,0.255;}
</style>
<g id="XMLID_4424_">
	<g id="XMLID_4490_">
		<path id="XMLID_4491_" class="st0" d="M723,578.4c1.7,0,3.3-0.7,4.5-1.9c1.2-1.2,1.9-2.9,1.9-4.6s-0.7-3.4-1.9-4.6
			c-1.2-1.2-2.8-1.9-4.5-1.9s-3.3,0.7-4.5,1.9c-1.2,1.2-1.9,2.9-1.9,4.6s0.7,3.4,1.9,4.6C719.7,577.7,721.3,578.4,723,578.4z"/>
	</g>
	<g id="XMLID_4488_">
		<path id="XMLID_4489_" class="st0" d="M920.2,501.2c1.7,0,3.3-0.7,4.5-1.9c1.2-1.2,1.9-2.9,1.9-4.6s-0.7-3.4-1.9-4.6
			s-2.8-1.9-4.5-1.9s-3.3,0.7-4.5,1.9s-1.9,2.9-1.9,4.6s0.7,3.4,1.9,4.6C916.9,500.5,918.5,501.2,920.2,501.2z"/>
	</g>
	<g id="XMLID_4486_">
		<path id="XMLID_4487_" class="st0" d="M968.9,474.7c1.7,0,3.3-0.7,4.5-1.9c1.2-1.2,1.9-2.9,1.9-4.6c0-1.7-0.7-3.4-1.9-4.6
			c-1.2-1.2-2.8-1.9-4.5-1.9c-1.7,0-3.3,0.7-4.5,1.9c-1.2,1.2-1.9,2.9-1.9,4.6c0,1.7,0.7,3.4,1.9,4.6
			C965.6,474,967.2,474.7,968.9,474.7z"/>
	</g>
	<g id="XMLID_4484_">
		<path id="XMLID_4485_" class="st0" d="M1006,494c1.7,0,3.3-0.7,4.5-1.9c1.2-1.2,1.9-2.9,1.9-4.6c0-1.7-0.7-3.4-1.9-4.6
			c-1.2-1.2-2.8-1.9-4.5-1.9c-1.7,0-3.3,0.7-4.5,1.9c-1.2,1.2-1.9,2.9-1.9,4.6c0,1.7,0.7,3.4,1.9,4.6
			C1002.7,493.3,1004.3,494,1006,494z"/>
	</g>
	<g id="XMLID_4477_">
		<g id="patch_24_1_">
			<path id="XMLID_4483_" class="st1" d="M723,571.9c60.5-23.7,127-50,186.1-73.1"/>
			<path id="XMLID_4482_" class="st1" d="M902.4,496.2l6.6,2.5l-2.7,6.2"/>
		</g>
		<g id="patch_25_1_">
			<path id="XMLID_4481_" class="st1" d="M920.2,494.7c11.4-6.2,29.9-16.1,40-21.6"/>
			<path id="XMLID_4480_" class="st1" d="M953.2,471.4l6.9,1.7l-1.8,6.4"/>
		</g>
		<g id="patch_26_1_">
			<path id="XMLID_4479_" class="st1" d="M968.9,468.1c7.5,3.9,22.3,11.5,28.4,14.7"/>
			<path id="XMLID_4478_" class="st1" d="M995.3,476.4l1.9,6.4l-6.9,1.8"/>
		</g>
	</g>
	<g id="text_26_1_">
		<g id="XMLID_4473_">
			<g id="XMLID_4474_">
				<g id="XMLID_4475_" transform="translate(147.396351 408.68635)scale(0.06 -0.06)">
					<g id="XMLID_4476_">
						<path id="DejaVuSansMono-Bold-33_1_" class="st2" d="M9588.3-2711.5h-11.7v19.9h11.7c5.4,0,9.6,1.1,12.6,3.3
							c3,2.2,4.5,5.3,4.5,9.4c0,4.2-1.5,7.5-4.5,9.9c-3,2.4-7.2,3.6-12.6,3.6c-4.2,0-8.6-0.5-13.4-1.6c-4.7-1.1-9.7-2.6-14.8-4.6
							v20.5c5.1,1.6,10.1,2.8,15,3.6c4.9,0.8,9.7,1.3,14.3,1.3c11.7,0,20.7-2.6,27.3-7.9c6.5-5.3,9.8-12.5,9.8-21.7
							c0-6.8-1.9-12.3-5.6-16.6c-3.7-4.3-9.1-7.1-16.1-8.4c7.9-1.4,13.9-4.7,18.1-9.8c4.2-5.1,6.2-11.7,6.2-20
							c0-11.1-3.4-19.5-10.3-25.3c-6.9-5.8-16.8-8.7-29.9-8.7c-5.6,0-11.1,0.5-16.5,1.5c-5.4,1-10.6,2.4-15.5,4.2v20.9
							c4.6-2.4,9.6-4.2,15-5.5c5.4-1.2,11.1-1.9,17-1.9c5.9,0,10.6,1.4,14.1,4.2c3.5,2.8,5.2,6.7,5.2,11.4c0,5.9-1.7,10.4-5.2,13.6
							C9599.6-2713.1,9594.7-2711.5,9588.3-2711.5z"/>
					</g>
				</g>
			</g>
		</g>
	</g>
	<g id="text_33_1_">
		<g id="XMLID_4465_">
			<g id="XMLID_4466_">
				<g id="XMLID_4467_" transform="translate(204.035897 384.032425)scale(0.06 -0.06)">
					<g id="XMLID_4472_">
						<path id="DejaVuSansMono-Bold-31_9_" class="st2" d="M11858-1867.2h24.5v74.1l-22.8-5.8v20.3l22.9,5.7h21.1v-94.2h24.5v-19.9
							h-70.2V-1867.2z"/>
					</g>
					<g id="XMLID_4468_">
						<path id="DejaVuSansMono-Bold-30_1_" class="st2" d="M11971.9-1830.1c0,2.7,0.9,5,2.7,6.8c1.8,1.8,4,2.8,6.5,2.8
							c2.6,0,4.8-0.9,6.6-2.8c1.8-1.8,2.7-4.1,2.7-6.8c0-2.6-0.9-4.9-2.7-6.7c-1.8-1.8-4-2.7-6.6-2.7c-2.6,0-4.7,0.9-6.5,2.7
							C11972.8-1835.1,11971.9-1832.8,11971.9-1830.1z M11981.1-1790c-5,0-8.7-3.2-11.1-9.6c-2.3-6.4-3.5-16.6-3.5-30.6
							c0-14,1.2-24.1,3.5-30.5c2.3-6.4,6-9.5,11.1-9.5c5.1,0,8.8,3.2,11.1,9.5c2.3,6.4,3.5,16.5,3.5,30.5c0,14-1.2,24.2-3.5,30.6
							C11989.9-1793.2,11986.2-1790,11981.1-1790z M11944.5-1830.1c0,19.8,3,34.6,9.1,44.4c6.1,9.9,15.2,14.8,27.4,14.8
							c12.3,0,21.4-4.9,27.5-14.7c6.1-9.8,9.1-24.7,9.1-44.5c0-19.8-3-34.6-9.1-44.4c-6.1-9.8-15.2-14.7-27.5-14.7
							c-12.2,0-21.4,4.9-27.4,14.8C11947.6-1864.6,11944.5-1849.8,11944.5-1830.1z"/>
					</g>
				</g>
			</g>
		</g>
	</g>
	<g id="text_34_1_">
		<g id="XMLID_4460_">
			<g id="XMLID_4461_">
				<g id="XMLID_4462_" transform="translate(229.47694 381.721119)scale(0.06 -0.06)">
					<g id="XMLID_4464_">
						<path id="DejaVuSansMono-Bold-31_8_" class="st2" d="M12864.4-1785.1h24.5v74.1l-22.8-5.8v20.3l22.9,5.7h21.1v-94.2h24.5
							v-19.9h-70.2V-1785.1z"/>
					</g>
					<g id="XMLID_4463_">
						<path id="DejaVuSansMono-Bold-31_7_" class="st2" d="M12955.8-1785.1h24.5v74.1l-22.8-5.8v20.3l22.9,5.7h21.1v-94.2h24.5
							v-19.9h-70.2V-1785.1z"/>
					</g>
				</g>
			</g>
		</g>
	</g>
	<g id="text_35_2_">
		<g id="XMLID_4455_">
			<g id="XMLID_4456_">
				<g id="XMLID_4457_" transform="translate(218.475408 375.557638)scale(0.06 -0.06)">
					<g id="XMLID_4459_">
						<path id="DejaVuSansMono-Bold-31_6_" class="st2" d="M12429.2-1566.2h24.5v74.1l-22.8-5.8v20.3l22.9,5.7h21.1v-94.2h24.5
							v-19.9h-70.2V-1566.2z"/>
					</g>
					<g id="XMLID_4458_">
						<path id="DejaVuSansMono-Bold-32_2_" class="st2" d="M12538.8-1566.2h46.6v-19.9h-70.3v19.3l11.9,13
							c14.1,15.4,22.6,24.9,25.7,28.5c3.7,4.4,6.4,8.3,8,11.7c1.6,3.4,2.4,6.7,2.4,10.1c0,5.1-1.5,9-4.5,11.8
							c-3,2.8-7.2,4.2-12.7,4.2c-3.9,0-8.3-0.8-13.2-2.4c-4.9-1.6-9.9-3.9-15.2-7v21c5.3,2,10.5,3.5,15.5,4.5s9.9,1.6,14.6,1.6
							c11.7,0,20.9-2.8,27.6-8.5c6.7-5.6,10.1-13.3,10.1-23c0-4.5-0.7-8.7-2.2-12.6c-1.5-3.9-4-8.3-7.5-13.1
							c-2.6-3.5-9.8-11.3-21.6-23.4C12547.6-1557.1,12542.5-1562.3,12538.8-1566.2z"/>
					</g>
				</g>
			</g>
		</g>
	</g>
	<g id="XMLID_4425_">
		<g id="text_46_1_">
			<g id="patch_49_1_">
				<path id="XMLID_4450_" class="st3" d="M797.9,531.3l22.8-8.1c1.9-0.7,2.5-1.9,1.7-3.6l-3.5-8.5c-0.7-1.8-2-2.3-3.9-1.6
					l-22.8,8.1c-1.9,0.7-2.5,1.9-1.7,3.6l3.5,8.5C794.7,531.4,796,532,797.9,531.3z"/>
			</g>
			<text id="XMLID_4362_" transform="matrix(0.9408 -0.339 0.339 0.9408 796.5356 526.5424)" class="st4 st5">-159</text>
		</g>
		<g id="text_47_1_">
			<g id="patch_50_1_">
				<path id="XMLID_4439_" class="st3" d="M922.3,482.4l21.5-10.6c1.8-0.9,2.2-2.2,1.3-3.8l-4.6-8.1c-1-1.7-2.3-2-4.1-1.2
					l-21.5,10.6c-1.8,0.9-2.2,2.2-1.3,3.8l4.6,8.1C919.2,482.9,920.5,483.2,922.3,482.4z"/>
			</g>
			<text id="XMLID_4363_" transform="matrix(0.8816 -0.4721 0.4721 0.8816 920.303 478.0079)" class="st4 st5">-152</text>
		</g>
		<g id="text_48_2_">
			<g id="patch_51_1_">
				<path id="XMLID_4430_" class="st3" d="M983.3,466.8l16.3,7.7c1.8,0.9,3.2,0.4,4.1-1.2l4.5-8.1c0.9-1.7,0.5-2.9-1.3-3.8
					l-16.3-7.7c-1.8-0.9-3.2-0.4-4.1,1.2l-4.5,8.1C981,464.7,981.5,465.9,983.3,466.8z"/>
			</g>
			<text id="XMLID_4364_" transform="matrix(0.8902 0.4555 -0.4555 0.8902 985.9186 462.2517)" class="st4 st5">153</text>
		</g>
	</g>
</g>
<g id="XMLID_4365_">
	<g id="patch_5_1_">
		<path id="XMLID_4423_" class="st6" d="M458.6,239.6c23.5,52.3,49.4,110.2,72.2,161.1"/>
		<path id="XMLID_4422_" class="st6" d="M533.2,394.6l-2.4,6.2l-6.2-2.4"/>
	</g>
	<g id="patch_6_1_">
		<path id="XMLID_4421_" class="st6" d="M535.4,410.9c52.9,17.1,111.4,36.6,162.9,53.2"/>
		<path id="XMLID_4420_" class="st6" d="M695.3,458.2l3,5.9l-5.9,3"/>
	</g>
	<g id="patch_7_1_">
		<path id="XMLID_4419_" class="st6" d="M708.9,467.1c54.6-18.7,115.2-39.3,168.4-57.5"/>
		<path id="XMLID_4418_" class="st6" d="M871.3,406.7l6,2.9l-2.9,6"/>
	</g>
	<g id="patch_8_1_">
		<path id="XMLID_4417_" class="st6" d="M887.4,406c27.6-14,59.9-30.3,86.2-43.5"/>
		<path id="XMLID_4416_" class="st6" d="M967.2,360.4l6.3,2.1l-2.1,6.3"/>
	</g>
	<g id="patch_9_1_">
		<path id="XMLID_4415_" class="st6" d="M984,357.1c9.3,8,24.6,20.5,32.8,27.5"/>
		<path id="XMLID_4414_" class="st6" d="M1016.3,377.9l0.5,6.6l-6.6,0.5"/>
	</g>
</g>
<g id="XMLID_502_">
	<g id="XMLID_4359_">
		<path id="XMLID_4360_" class="st7" d="M535.4,417.4c1.7,0,3.4-0.7,4.6-1.9c1.2-1.2,1.9-2.9,1.9-4.6c0-1.7-0.7-3.4-1.9-4.6
			s-2.9-1.9-4.6-1.9c-1.7,0-3.4,0.7-4.6,1.9c-1.2,1.2-1.9,2.9-1.9,4.6c0,1.7,0.7,3.4,1.9,4.6C532,416.7,533.7,417.4,535.4,417.4z"/>
	</g>
	<g id="text_25_1_">
		<g id="XMLID_4355_">
			<g id="XMLID_4356_">
				<g id="XMLID_4357_" transform="translate(94.907132 390.714398)scale(0.06 -0.06)">
					<g id="XMLID_4358_">
						<path id="DejaVuSansMono-Bold-31_5_" class="st2" d="M7308.9-359.3h25.2v74.1l-23.5-5.8v20.3l23.6,5.7h21.8v-94.2h25.2v-19.9
							h-72.4V-359.3z"/>
					</g>
				</g>
			</g>
		</g>
	</g>
	<g id="XMLID_4353_">
		<path id="XMLID_4354_" class="st7" d="M458.6,246.2c1.7,0,3.4-0.7,4.6-1.9c1.2-1.2,1.9-2.9,1.9-4.6c0-1.7-0.7-3.4-1.9-4.6
			c-1.2-1.2-2.9-1.9-4.6-1.9c-1.7,0-3.4,0.7-4.6,1.9c-1.2,1.2-1.9,2.9-1.9,4.6c0,1.7,0.7,3.4,1.9,4.6
			C455.2,245.5,456.8,246.2,458.6,246.2z"/>
	</g>
	<g id="XMLID_4351_">
		<path id="XMLID_4352_" class="st7" d="M708.9,473.7c1.7,0,3.4-0.7,4.6-1.9c1.2-1.2,1.9-2.9,1.9-4.6c0-1.7-0.7-3.4-1.9-4.6
			s-2.9-1.9-4.6-1.9c-1.7,0-3.4,0.7-4.6,1.9s-1.9,2.9-1.9,4.6c0,1.7,0.7,3.4,1.9,4.6C705.5,473,707.2,473.7,708.9,473.7z"/>
	</g>
	<g id="XMLID_4349_">
		<path id="XMLID_4350_" class="st7" d="M887.4,412.5c1.7,0,3.4-0.7,4.6-1.9s1.9-2.9,1.9-4.6c0-1.7-0.7-3.4-1.9-4.6
			s-2.9-1.9-4.6-1.9c-1.7,0-3.4,0.7-4.6,1.9c-1.2,1.2-1.9,2.9-1.9,4.6c0,1.7,0.7,3.4,1.9,4.6C884,411.8,885.6,412.5,887.4,412.5z"/>
	</g>
	<g id="XMLID_4347_">
		<path id="XMLID_4348_" class="st7" d="M984,363.6c1.7,0,3.4-0.7,4.6-1.9c1.2-1.2,1.9-2.9,1.9-4.6c0-1.7-0.7-3.4-1.9-4.6
			c-1.2-1.2-2.9-1.9-4.6-1.9s-3.4,0.7-4.6,1.9s-1.9,2.9-1.9,4.6c0,1.7,0.7,3.4,1.9,4.6C980.6,362.9,982.3,363.6,984,363.6z"/>
	</g>
	<g id="XMLID_4345_">
		<path id="XMLID_4346_" class="st7" d="M1023.7,397.8c1.7,0,3.4-0.7,4.6-1.9c1.2-1.2,1.9-2.9,1.9-4.6c0-1.7-0.7-3.4-1.9-4.6
			c-1.2-1.2-2.9-1.9-4.6-1.9s-3.4,0.7-4.6,1.9c-1.2,1.2-1.9,2.9-1.9,4.6c0,1.7,0.7,3.4,1.9,4.6
			C1020.3,397.2,1021.9,397.8,1023.7,397.8z"/>
	</g>
	<g id="text_29_1_">
		<g id="XMLID_4151_">
			<g id="XMLID_4328_">
				<g id="XMLID_4329_" transform="translate(150.323476 408.68635)scale(0.06 -0.06)">
					<g id="XMLID_4331_">
						<path id="DejaVuSansMono-Bold-35_1_" class="st2" d="M9277.2-903.2h62v-19.9h-43.7v-21.2c1.8,0.7,3.8,1.2,5.9,1.5
							c2.1,0.3,4.3,0.5,6.7,0.5c11.3,0,20.5-3.6,27.5-10.7c7-7.1,10.6-16.4,10.6-27.8c0-12-3.8-21.4-11.4-28.4
							c-7.6-7-18-10.4-31.1-10.4c-4.9,0-9.8,0.4-14.8,1.2s-10.1,2-15.3,3.7v20.4c4.2-2.1,8.6-3.7,13-4.7c4.5-1,8.9-1.6,13.4-1.6
							c8,0,14,1.7,18.1,5.1c4.1,3.4,6.2,8.3,6.2,14.8c0,6-2.1,10.7-6.2,14.3c-4.1,3.6-9.6,5.4-16.4,5.4c-4,0-8.1-0.5-12.1-1.5
							c-4-1-8.1-2.5-12.3-4.5V-903.2z"/>
					</g>
				</g>
			</g>
		</g>
	</g>
	<g id="text_30_1_">
		<g id="XMLID_3876_">
			<g id="XMLID_4029_">
				<g id="XMLID_4034_" transform="translate(70.365608 336.017153)scale(0.06 -0.06)">
					<g id="XMLID_4035_">
						<path id="DejaVuSansMono-Bold-36_1_" class="st2" d="M6472.1,1620.5c-4.9,0-8.6-1.8-11.2-5.3c-2.6-3.5-3.8-8.7-3.8-15.4
							c0-6.7,1.3-11.8,3.8-15.3c2.6-3.5,6.3-5.3,11.2-5.3c4.9,0,8.7,1.8,11.3,5.3c2.6,3.5,3.9,8.7,3.9,15.3c0,6.7-1.3,11.8-3.9,15.4
							C6480.7,1618.7,6477,1620.5,6472.1,1620.5z M6501.7,1674.8v-20.5c-4,2.3-7.9,4-11.6,5.1c-3.7,1.2-7.2,1.7-10.7,1.7
							c-8.2,0-14.4-2.7-18.6-8.2c-4.2-5.5-6.5-13.6-6.7-24.3c2.4,3.3,5.5,5.8,9.2,7.4c3.7,1.7,8.1,2.5,13.2,2.5
							c10.3,0,18.2-3.3,23.8-9.8c5.6-6.5,8.4-15.7,8.4-27.6c0-12.8-3.1-22.7-9.4-29.7c-6.3-7-15.1-10.5-26.6-10.5
							c-13.9,0-24,4.7-30.3,14c-6.3,9.3-9.4,24.4-9.4,45.2c0,19.8,3.8,34.6,11.5,44.4c7.7,9.9,19.2,14.8,34.6,14.8
							c3.6,0,7.2-0.4,11-1.1C6494,1677.4,6497.8,1676.3,6501.7,1674.8z"/>
					</g>
				</g>
			</g>
		</g>
	</g>
	<g id="text_35_1_">
		<g id="XMLID_1721_">
			<g id="XMLID_1722_">
				<g id="XMLID_1723_" transform="translate(205.517051 389.15162)scale(0.06 -0.06)">
					<g id="XMLID_1730_">
						<path id="DejaVuSansMono-Bold-31_4_" class="st2" d="M11284.1-303.8h25.2v74.1l-23.5-5.8v20.3l23.6,5.7h21.8v-94.2h25.2v-19.9
							h-72.4V-303.8z"/>
					</g>
					<g id="XMLID_1728_">
						<path id="DejaVuSansMono-Bold-31_3_" class="st2" d="M11378.3-303.8h25.2v74.1l-23.5-5.8v20.3l23.6,5.7h21.8v-94.2h25.2v-19.9
							h-72.4V-303.8z"/>
					</g>
				</g>
			</g>
		</g>
	</g>
	<g id="text_36_1_">
		<g id="XMLID_556_">
			<g id="XMLID_601_">
				<g id="XMLID_604_" transform="translate(249.058464 384.463284)scale(0.06 -0.06)">
					<g id="XMLID_1720_">
						<path id="DejaVuSansMono-Bold-31_2_" class="st2" d="M12830.3-137.3h25.2v74.1l-23.5-5.8v20.3l23.6,5.7h21.8v-94.2h25.2v-19.9
							h-72.4V-137.3z"/>
					</g>
					<g id="XMLID_1151_">
						<path id="DejaVuSansMono-Bold-32_1_" class="st2" d="M12943.4-137.3h48.1v-19.9h-72.5v19.3l12.2,13
							c14.5,15.4,23.4,24.9,26.5,28.5c3.8,4.4,6.6,8.3,8.2,11.7c1.7,3.4,2.5,6.7,2.5,10.1c0,5.1-1.5,9-4.6,11.8
							c-3.1,2.8-7.5,4.2-13.1,4.2c-4,0-8.6-0.8-13.6-2.4c-5-1.6-10.2-3.9-15.7-7v21c5.5,2,10.8,3.5,16,4.5s10.2,1.6,15,1.6
							c12.1,0,21.6-2.8,28.5-8.5c6.9-5.6,10.4-13.3,10.4-23c0-4.5-0.8-8.7-2.3-12.6c-1.5-3.9-4.1-8.3-7.8-13.1
							c-2.7-3.5-10.1-11.3-22.2-23.4C12952.5-128.1,12947.3-133.3,12943.4-137.3z"/>
					</g>
				</g>
			</g>
		</g>
	</g>
	<g id="text_38_1_">
		<g id="XMLID_504_">
			<g id="XMLID_508_">
				<g id="XMLID_509_" transform="translate(236.391871 373.523835)scale(0.06 -0.06)">
					<g id="XMLID_553_">
						<path id="DejaVuSansMono-Bold-31_1_" class="st2" d="M12380.5,251.2h25.2v74.1l-23.5-5.8v20.3l23.6,5.7h21.8v-94.2h25.2v-19.9
							h-72.4V251.2z"/>
					</g>
					<g id="XMLID_536_">
						<path id="DejaVuSansMono-Bold-34_1_" class="st2" d="M12513.4,320.4l-28.8-45.1h28.8V320.4z M12511.5,345.5h23.6v-70.2h12.5
							V256h-12.5v-24.6h-21.6V256h-45.3v21.9L12511.5,345.5z"/>
					</g>
				</g>
			</g>
		</g>
	</g>
</g>
<g id="XMLID_4361_">
	<g id="text_48_1_">
		<g id="patch_40_1_">
			<path id="XMLID_4410_" class="st3" d="M502.1,317.5l6.6,15.6c0.7,1.7,2,2.2,3.7,1.5l8.4-3.6c1.7-0.7,2.2-2,1.5-3.7l-6.6-15.6
				c-0.7-1.7-2-2.2-3.7-1.5l-8.4,3.6C501.8,314.6,501.3,315.8,502.1,317.5z"/>
		</g>
		<text id="XMLID_375_" transform="matrix(0.4093 0.9124 -0.9124 0.4093 506.5556 316.3554)" class="st4 st5">113</text>
	</g>
	<g id="text_49_1_">
		<g id="patch_41_1_">
			<path id="XMLID_4402_" class="st3" d="M619.3,435.4l16,5.5c1.8,0.6,3,0,3.6-1.7l3-8.6c0.6-1.8,0-3-1.7-3.6l-16-5.5
				c-1.8-0.6-3,0-3.6,1.7l-3,8.6C617,433.6,617.5,434.8,619.3,435.4z"/>
		</g>
		<text id="XMLID_378_" transform="matrix(0.9462 0.3236 -0.3236 0.9462 621.0254 430.8845)" class="st4 st5">161</text>
	</g>
	<g id="text_50_1_">
		<g id="patch_42_1_">
			<path id="XMLID_4392_" class="st3" d="M782.4,434.1l21.3-7.7c1.8-0.6,2.3-1.8,1.7-3.6l-3.1-8.6c-0.6-1.8-1.8-2.3-3.6-1.7
				l-21.3,7.7c-1.8,0.6-2.3,1.8-1.7,3.6l3.1,8.6C779.5,434.2,780.7,434.8,782.4,434.1z"/>
		</g>
		<text id="XMLID_4371_" transform="matrix(0.9401 -0.3409 0.3409 0.9401 781.181 429.5775)" class="st4 st5">-160</text>
	</g>
	<g id="text_51_1_">
		<g id="patch_43_1_">
			<path id="XMLID_4378_" class="st3" d="M921.6,382.5l20-10.6c1.7-0.9,2-2.2,1.2-3.8l-4.3-8.1c-0.9-1.7-2.2-2-3.8-1.2l-20,10.6
				c-1.7,0.9-2,2.2-1.2,3.8l4.3,8.1C918.6,383,919.9,383.4,921.6,382.5z"/>
		</g>
		<text id="XMLID_4372_" transform="matrix(0.8924 -0.4512 0.4512 0.8924 919.3911 378.0515)" class="st4 st5">-152</text>
	</g>
	<g id="text_52_1_">
		<g id="patch_44_1_">
			<path id="XMLID_4369_" class="st3" d="M1000.2,362.6l12.6,11.4c1.4,1.3,2.7,1.2,4-0.2l6.1-6.8c1.3-1.4,1.2-2.7-0.2-4l-12.6-11.4
				c-1.4-1.3-2.7-1.2-4,0.2l-6.1,6.8C998.7,360,998.8,361.3,1000.2,362.6z"/>
		</g>
		<text id="XMLID_4370_" transform="matrix(0.753 0.658 -0.658 0.753 1003.569 359.5022)" class="st4 st5">138</text>
	</g>
</g>
<line id="XMLID_4366_" class="st8" x1="805.6" y1="498.7" x2="796.5" y2="453.2"/>
<line id="XMLID_4368_" class="st8" x1="940.1" y1="449.9" x2="938.6" y2="398.5"/>
<line id="XMLID_4367_" class="st8" x1="990.4" y1="449.9" x2="998.3" y2="379.4"/>
</svg>
