<?xml version="1.0" encoding="utf-8" standalone="no"?>
<!DOCTYPE svg PUBLIC "-//W3C//DTD SVG 1.1//EN"
  "http://www.w3.org/Graphics/SVG/1.1/DTD/svg11.dtd">
<!-- Created with matplotlib (http://matplotlib.org/) -->
<svg height="388.8pt" version="1.1" viewBox="0 0 315.36 388.8" width="315.36pt" xmlns="http://www.w3.org/2000/svg" xmlns:xlink="http://www.w3.org/1999/xlink">
 <defs>
  <style type="text/css">
*{stroke-linecap:butt;stroke-linejoin:round;}
  </style>
 </defs>
 <g id="figure_1">
  <g id="patch_1">
   <path d="M 0 388.8 
L 315.36 388.8 
L 315.36 0 
L 0 0 
z
" style="fill:#ffffff;"/>
  </g>
  <g id="axes_1">
   <g id="LineCollection_1">
    <path clip-path="url(#pc5dd69735b)" d="M 161.622 196.344 
L 161.622 196.344 
" style="fill:none;stroke:#0000ff;"/>
    <path clip-path="url(#pc5dd69735b)" d="M 161.622 196.344 
L 270.690957 323.500497 
" style="fill:none;stroke:#0000ff;"/>
    <path clip-path="url(#pc5dd69735b)" d="M 161.622 196.344 
L 182.302607 329.117852 
" style="fill:none;stroke:#0000ff;"/>
    <path clip-path="url(#pc5dd69735b)" d="M 161.622 196.344 
L 87.681746 309.201774 
" style="fill:none;stroke:#0000ff;"/>
    <path clip-path="url(#pc5dd69735b)" d="M 161.622 196.344 
L 52.553043 237.197493 
" style="fill:none;stroke:#0000ff;"/>
    <path clip-path="url(#pc5dd69735b)" d="M 161.622 196.344 
L 52.553043 194.811994 
" style="fill:none;stroke:#0000ff;"/>
    <path clip-path="url(#pc5dd69735b)" d="M 161.622 196.344 
L 91.64789 126.893062 
" style="fill:none;stroke:#0000ff;"/>
    <path clip-path="url(#pc5dd69735b)" d="M 161.622 196.344 
L 139.241617 118.211695 
" style="fill:none;stroke:#0000ff;"/>
    <path clip-path="url(#pc5dd69735b)" d="M 161.622 196.344 
L 238.961806 146.80914 
" style="fill:none;stroke:#0000ff;"/>
    <path clip-path="url(#pc5dd69735b)" d="M 161.622 196.344 
L 220.830862 101.870298 
" style="fill:none;stroke:#0000ff;"/>
    <path clip-path="url(#pc5dd69735b)" d="M 161.622 196.344 
L 191.368079 89.103581 
" style="fill:none;stroke:#0000ff;"/>
    <path clip-path="url(#pc5dd69735b)" d="M 161.622 196.344 
L 151.140048 85.5289 
" style="fill:none;stroke:#0000ff;"/>
    <path clip-path="url(#pc5dd69735b)" d="M 161.622 196.344 
L 152.839824 63.570148 
" style="fill:none;stroke:#0000ff;"/>
    <path clip-path="url(#pc5dd69735b)" d="M 161.622 196.344 
L 198.733775 67.144829 
" style="fill:none;stroke:#0000ff;"/>
    <path clip-path="url(#pc5dd69735b)" d="M 161.622 196.344 
L 233.295886 78.890208 
" style="fill:none;stroke:#0000ff;"/>
    <path clip-path="url(#pc5dd69735b)" d="M 161.622 196.344 
L 265.025037 116.16902 
" style="fill:none;stroke:#0000ff;"/>
    <path clip-path="url(#pc5dd69735b)" d="M 161.622 196.344 
L 270.690957 171.321236 
" style="fill:none;stroke:#0000ff;"/>
    <path clip-path="url(#pc5dd69735b)" d="M 161.622 196.344 
L 270.690957 211.153391 
" style="fill:none;stroke:#0000ff;"/>
    <path clip-path="url(#pc5dd69735b)" d="M 161.622 196.344 
L 270.690957 259.156245 
" style="fill:none;stroke:#0000ff;"/>
   </g>
   <g id="patch_2">
    <path clip-path="url(#pc5dd69735b)" d="M 270.690957 323.500497 
C 229.896334 327.075177 200.433551 329.117852 182.302607 329.117852 
C 142.641169 329.117852 110.912017 322.479159 87.681746 309.201774 
C 64.451475 295.924389 52.553043 271.922962 52.553043 237.197493 
L 52.553043 194.811994 
C 52.553043 161.107862 65.584659 138.638441 91.64789 126.893062 
C 104.112914 121.275707 119.977489 118.211695 139.241617 118.211695 
C 174.936912 118.211695 214.031759 129.957074 238.961806 146.80914 
C 238.961806 127.914399 232.729294 113.105008 220.830862 101.870298 
C 214.598351 96.252942 204.399695 91.656924 191.368079 89.103581 
C 180.602831 86.550238 167.004624 85.5289 151.140048 85.5289 
L 152.839824 63.570148 
C 170.404176 63.570148 185.702159 64.591485 198.733775 67.144829 
C 212.898575 69.698172 224.230414 73.783521 233.295886 78.890208 
C 250.293646 89.61425 261.058893 101.870298 265.025037 116.16902 
C 268.991181 130.467743 270.690957 148.851814 270.690957 171.321236 
L 270.690957 211.153391 
L 270.690957 259.156245 
L 270.690957 323.500497 
" style="fill:none;stroke:#0000ff;stroke-linejoin:miter;stroke-width:0.4;"/>
   </g>
   <g id="patch_3">
    <path clip-path="url(#pc5dd69735b)" d="M 270.690957 411.846175 
C 296.686275 411.846175 321.620391 402.537517 340.001856 385.970325 
C 358.383321 369.403133 368.711371 346.930044 368.711371 323.500497 
C 368.711371 300.070949 358.383321 277.597861 340.001856 261.030668 
C 321.620391 244.463476 296.686275 235.154818 270.690957 235.154818 
C 244.69564 235.154818 219.761523 244.463476 201.380058 261.030668 
C 182.998593 277.597861 172.670544 300.070949 172.670544 323.500497 
C 172.670544 346.930044 182.998593 369.403133 201.380058 385.970325 
C 219.761523 402.537517 244.69564 411.846175 270.690957 411.846175 
z
" style="fill:none;opacity:0.5;stroke:#0000ff;stroke-dasharray:1,2;stroke-dashoffset:0;stroke-linejoin:miter;stroke-width:0.5;"/>
   </g>
   <g id="patch_4">
    <path clip-path="url(#pc5dd69735b)" d="M 182.302607 385.802073 
C 198.981684 385.802073 214.979874 379.829466 226.773762 369.199649 
C 238.56765 358.569832 245.194318 344.150683 245.194318 329.117852 
C 245.194318 314.085021 238.56765 299.665872 226.773762 289.036055 
C 214.979874 278.406238 198.981684 272.433631 182.302607 272.433631 
C 165.623531 272.433631 149.625341 278.406238 137.831453 289.036055 
C 126.037564 299.665872 119.410897 314.085021 119.410897 329.117852 
C 119.410897 344.150683 126.037564 358.569832 137.831453 369.199649 
C 149.625341 379.829466 165.623531 385.802073 182.302607 385.802073 
z
" style="fill:none;opacity:0.5;stroke:#0000ff;stroke-dasharray:1,2;stroke-dashoffset:0;stroke-linejoin:miter;stroke-width:0.5;"/>
   </g>
   <g id="patch_5">
    <path clip-path="url(#pc5dd69735b)" d="M 87.681746 408.271494 
C 116.832564 408.271494 144.793365 397.832884 165.406107 379.254645 
C 186.018848 360.676407 197.600591 335.475371 197.600591 309.201774 
C 197.600591 282.928177 186.018848 257.727142 165.406107 239.148903 
C 144.793365 220.570665 116.832564 210.132054 87.681746 210.132054 
C 58.530927 210.132054 30.570127 220.570665 9.957385 239.148903 
C -10.655356 257.727142 -22.237099 282.928177 -22.237099 309.201774 
C -22.237099 335.475371 -10.655356 360.676407 9.957385 379.254645 
C 30.570127 397.832884 58.530927 408.271494 87.681746 408.271494 
z
" style="fill:none;opacity:0.5;stroke:#0000ff;stroke-dasharray:1,2;stroke-dashoffset:0;stroke-linejoin:miter;stroke-width:0.5;"/>
   </g>
   <g id="patch_6">
    <path clip-path="url(#pc5dd69735b)" d="M 270.690957 332.692533 
C 292.328678 332.692533 313.083087 324.944285 328.383266 311.154253 
C 343.683445 297.36422 352.280203 278.658297 352.280203 259.156245 
C 352.280203 239.654194 343.683445 220.948271 328.383266 207.158238 
C 313.083087 193.368205 292.328678 185.619958 270.690957 185.619958 
C 249.053236 185.619958 228.298827 193.368205 212.998648 207.158238 
C 197.698469 220.948271 189.101711 239.654194 189.101711 259.156245 
C 189.101711 278.658297 197.698469 297.36422 212.998648 311.154253 
C 228.298827 324.944285 249.053236 332.692533 270.690957 332.692533 
z
" style="fill:none;opacity:0.5;stroke:#0000ff;stroke-dasharray:1,2;stroke-dashoffset:0;stroke-linejoin:miter;stroke-width:0.5;"/>
   </g>
   <g id="patch_7">
    <path clip-path="url(#pc5dd69735b)" d="M 270.690957 305.627094 
C 298.489418 305.627094 325.153068 295.672748 344.809549 277.956387 
C 364.466029 260.240025 375.510474 236.20811 375.510474 211.153391 
C 375.510474 186.098672 364.466029 162.066757 344.809549 144.350396 
C 325.153068 126.634034 298.489418 116.679689 270.690957 116.679689 
C 242.892496 116.679689 216.228846 126.634034 196.572366 144.350396 
C 176.915885 162.066757 165.87144 186.098672 165.87144 211.153391 
C 165.87144 236.20811 176.915885 260.240025 196.572366 277.956387 
C 216.228846 295.672748 242.892496 305.627094 270.690957 305.627094 
z
" style="fill:none;opacity:0.5;stroke:#0000ff;stroke-dasharray:1,2;stroke-dashoffset:0;stroke-linejoin:miter;stroke-width:0.5;"/>
   </g>
   <g id="patch_8">
    <path d="M 270.690957 323.500497 
Q 230.462926 297.967064 190.234895 272.433631 
" style="fill:none;stroke:#0000ff;stroke-dasharray:1,2;stroke-dashoffset:0;stroke-linecap:round;stroke-width:0.5;"/>
   </g>
   <g id="patch_9">
    <path d="M 182.302607 329.117852 
Q 186.268751 300.775741 190.234895 272.433631 
" style="fill:none;stroke:#0000ff;stroke-dasharray:1,2;stroke-dashoffset:0;stroke-linecap:round;stroke-width:0.5;"/>
   </g>
   <g id="patch_10">
    <path d="M 87.681746 309.201774 
Q 138.958321 290.817702 190.234895 272.433631 
" style="fill:none;stroke:#0000ff;stroke-dasharray:1,2;stroke-dashoffset:0;stroke-linecap:round;stroke-width:0.5;"/>
   </g>
   <g id="patch_11">
    <path d="M 270.690957 259.156245 
Q 230.462926 265.794938 190.234895 272.433631 
" style="fill:none;stroke:#0000ff;stroke-dasharray:1,2;stroke-dashoffset:0;stroke-linecap:round;stroke-width:0.5;"/>
   </g>
   <g id="patch_12">
    <path d="M 270.690957 211.153391 
Q 230.462926 241.793511 190.234895 272.433631 
" style="fill:none;stroke:#0000ff;stroke-dasharray:1,2;stroke-dashoffset:0;stroke-linecap:round;stroke-width:0.5;"/>
   </g>
   <g id="text_1">
    <g id="patch_13">
     <path clip-path="url(#pc5dd69735b)" d="M 202.658892 257.099616 
L 223.283728 271.727096 
Q 224.996665 272.94194 226.211509 271.229002 
L 230.152159 265.672662 
Q 231.367003 263.959725 229.654065 262.744881 
L 209.029229 248.117401 
Q 207.316292 246.902557 206.101448 248.615494 
L 202.160798 254.171835 
Q 200.945954 255.884772 202.658892 257.099616 
z
" style="fill:#ffffff;stroke:#ffffff;stroke-linejoin:miter;"/>
    </g>
    <g clip-path="url(#pc5dd69735b)">
     <!-- 314.73 -->
     <defs>
      <path d="M 37.890625 39.015625 
Q 45.0625 37.109375 48.875 32.25 
Q 52.6875 27.390625 52.6875 20.125 
Q 52.6875 10.0625 45.921875 4.3125 
Q 39.15625 -1.421875 27.203125 -1.421875 
Q 22.171875 -1.421875 16.9375 -0.484375 
Q 11.71875 0.4375 6.6875 2.203125 
L 6.6875 12.015625 
Q 11.671875 9.421875 16.5 8.15625 
Q 21.34375 6.890625 26.125 6.890625 
Q 34.234375 6.890625 38.578125 10.546875 
Q 42.921875 14.203125 42.921875 21.09375 
Q 42.921875 27.4375 38.578125 31.171875 
Q 34.234375 34.90625 26.8125 34.90625 
L 19.28125 34.90625 
L 19.28125 43.015625 
L 26.8125 43.015625 
Q 33.59375 43.015625 37.40625 45.984375 
Q 41.21875 48.96875 41.21875 54.296875 
Q 41.21875 59.90625 37.671875 62.90625 
Q 34.125 65.921875 27.59375 65.921875 
Q 23.25 65.921875 18.609375 64.9375 
Q 13.96875 63.96875 8.890625 62.015625 
L 8.890625 71.09375 
Q 14.796875 72.65625 19.40625 73.4375 
Q 24.03125 74.21875 27.59375 74.21875 
Q 38.234375 74.21875 44.609375 68.875 
Q 50.984375 63.53125 50.984375 54.6875 
Q 50.984375 48.6875 47.625 44.671875 
Q 44.28125 40.671875 37.890625 39.015625 
z
" id="DejaVuSansMono-33"/>
      <path d="M 13.1875 8.296875 
L 28.515625 8.296875 
L 28.515625 64.015625 
L 12.015625 60.296875 
L 12.015625 69.28125 
L 28.421875 72.90625 
L 38.28125 72.90625 
L 38.28125 8.296875 
L 53.421875 8.296875 
L 53.421875 0 
L 13.1875 0 
z
" id="DejaVuSansMono-31"/>
      <path d="M 35.890625 63.921875 
L 12.890625 25.390625 
L 35.890625 25.390625 
z
M 34.28125 72.90625 
L 45.703125 72.90625 
L 45.703125 25.390625 
L 55.421875 25.390625 
L 55.421875 17.390625 
L 45.703125 17.390625 
L 45.703125 0 
L 35.890625 0 
L 35.890625 17.390625 
L 4.984375 17.390625 
L 4.984375 26.703125 
z
" id="DejaVuSansMono-34"/>
      <path d="M 23.875 14.890625 
L 36.1875 14.890625 
L 36.1875 0 
L 23.875 0 
z
" id="DejaVuSansMono-2e"/>
      <path d="M 6.78125 72.90625 
L 52.6875 72.90625 
L 52.6875 68.703125 
L 26.609375 0 
L 16.3125 0 
L 41.703125 64.59375 
L 6.78125 64.59375 
z
" id="DejaVuSansMono-37"/>
     </defs>
     <g transform="translate(204.715901 254.19922)rotate(-324.655094)scale(0.07 -0.07)">
      <use xlink:href="#DejaVuSansMono-33"/>
      <use x="60.205078" xlink:href="#DejaVuSansMono-31"/>
      <use x="120.410156" xlink:href="#DejaVuSansMono-34"/>
      <use x="180.615234" xlink:href="#DejaVuSansMono-2e"/>
      <use x="240.820312" xlink:href="#DejaVuSansMono-37"/>
      <use x="301.025391" xlink:href="#DejaVuSansMono-33"/>
     </g>
    </g>
   </g>
   <g id="text_2">
    <g id="patch_14">
     <path clip-path="url(#pc5dd69735b)" d="M 163.492549 251.849044 
L 169.764305 276.344188 
Q 170.285188 278.378563 172.319563 277.85768 
L 178.918566 276.168066 
Q 180.952941 275.647183 180.432058 273.612808 
L 174.160302 249.117664 
Q 173.639419 247.083289 171.605045 247.604172 
L 165.006041 249.293786 
Q 162.971666 249.814669 163.492549 251.849044 
z
" style="fill:#ffffff;stroke:#ffffff;stroke-linejoin:miter;"/>
    </g>
    <g clip-path="url(#pc5dd69735b)">
     <!-- 262.55 -->
     <defs>
      <path d="M 18.21875 8.296875 
L 51.703125 8.296875 
L 51.703125 0 
L 7.421875 0 
L 7.421875 8.296875 
Q 16.546875 17.921875 23.375 25.296875 
Q 30.21875 32.671875 32.8125 35.6875 
Q 37.703125 41.65625 39.40625 45.34375 
Q 41.109375 49.03125 41.109375 52.875 
Q 41.109375 58.984375 37.515625 62.453125 
Q 33.9375 65.921875 27.6875 65.921875 
Q 23.25 65.921875 18.359375 64.3125 
Q 13.484375 62.703125 8.015625 59.421875 
L 8.015625 69.390625 
Q 13.03125 71.78125 17.890625 73 
Q 22.75 74.21875 27.484375 74.21875 
Q 38.1875 74.21875 44.703125 68.53125 
Q 51.21875 62.84375 51.21875 53.609375 
Q 51.21875 48.921875 49.046875 44.234375 
Q 46.875 39.546875 42 33.890625 
Q 39.265625 30.71875 34.0625 25.09375 
Q 28.859375 19.484375 18.21875 8.296875 
z
" id="DejaVuSansMono-32"/>
      <path d="M 48.390625 71.296875 
L 48.390625 62.203125 
Q 45.3125 64.015625 41.84375 64.96875 
Q 38.375 65.921875 34.625 65.921875 
Q 25.25 65.921875 20.40625 58.859375 
Q 15.578125 51.8125 15.578125 38.09375 
Q 17.921875 42.96875 22.0625 45.578125 
Q 26.21875 48.1875 31.59375 48.1875 
Q 42.140625 48.1875 47.921875 41.71875 
Q 53.71875 35.25 53.71875 23.390625 
Q 53.71875 11.578125 47.75 5.078125 
Q 41.796875 -1.421875 31 -1.421875 
Q 18.3125 -1.421875 12.40625 7.6875 
Q 6.5 16.796875 6.5 36.375 
Q 6.5 54.828125 13.59375 64.515625 
Q 20.703125 74.21875 34.1875 74.21875 
Q 37.796875 74.21875 41.40625 73.453125 
Q 45.015625 72.703125 48.390625 71.296875 
z
M 30.8125 40.484375 
Q 24.515625 40.484375 20.890625 35.9375 
Q 17.28125 31.390625 17.28125 23.390625 
Q 17.28125 15.375 20.890625 10.828125 
Q 24.515625 6.296875 30.8125 6.296875 
Q 37.359375 6.296875 40.671875 10.609375 
Q 44 14.9375 44 23.390625 
Q 44 31.890625 40.671875 36.1875 
Q 37.359375 40.484375 30.8125 40.484375 
z
" id="DejaVuSansMono-36"/>
      <path d="M 10.109375 72.90625 
L 47.015625 72.90625 
L 47.015625 64.59375 
L 19.09375 64.59375 
L 19.09375 46.6875 
Q 21.1875 47.46875 23.3125 47.828125 
Q 25.4375 48.1875 27.59375 48.1875 
Q 38.921875 48.1875 45.5625 41.5 
Q 52.203125 34.8125 52.203125 23.390625 
Q 52.203125 11.859375 45.234375 5.21875 
Q 38.28125 -1.421875 26.21875 -1.421875 
Q 20.40625 -1.421875 15.59375 -0.640625 
Q 10.796875 0.140625 6.984375 1.703125 
L 6.984375 11.71875 
Q 11.46875 9.28125 16.015625 8.078125 
Q 20.5625 6.890625 25.296875 6.890625 
Q 33.453125 6.890625 37.859375 11.1875 
Q 42.28125 15.484375 42.28125 23.390625 
Q 42.28125 31.203125 37.71875 35.546875 
Q 33.15625 39.890625 25 39.890625 
Q 21.046875 39.890625 17.28125 38.984375 
Q 13.53125 38.09375 10.109375 36.28125 
z
" id="DejaVuSansMono-35"/>
     </defs>
     <g transform="translate(166.937212 250.967069)rotate(-284.361529)scale(0.07 -0.07)">
      <use xlink:href="#DejaVuSansMono-32"/>
      <use x="60.205078" xlink:href="#DejaVuSansMono-36"/>
      <use x="120.410156" xlink:href="#DejaVuSansMono-32"/>
      <use x="180.615234" xlink:href="#DejaVuSansMono-2e"/>
      <use x="240.820312" xlink:href="#DejaVuSansMono-35"/>
      <use x="301.025391" xlink:href="#DejaVuSansMono-35"/>
     </g>
    </g>
   </g>
   <g id="text_3">
    <g id="patch_15">
     <path clip-path="url(#pc5dd69735b)" d="M 192.392548 150.442225 
L 210.299778 132.590667 
Q 211.787012 131.108057 210.304402 129.620822 
L 205.495183 124.796606 
Q 204.012573 123.309372 202.525339 124.791982 
L 184.618108 142.643541 
Q 183.130874 144.126151 184.613485 145.613386 
L 189.422703 150.437602 
Q 190.905313 151.924836 192.392548 150.442225 
z
" style="fill:#ffffff;stroke:#ffffff;stroke-linejoin:miter;"/>
    </g>
    <g clip-path="url(#pc5dd69735b)">
     <!-- 262.49 -->
     <defs>
      <path d="M 29.109375 32.328125 
Q 35.40625 32.328125 38.984375 36.859375 
Q 42.578125 41.40625 42.578125 49.421875 
Q 42.578125 57.421875 38.984375 61.953125 
Q 35.40625 66.5 29.109375 66.5 
Q 22.5625 66.5 19.234375 62.171875 
Q 15.921875 57.859375 15.921875 49.421875 
Q 15.921875 40.921875 19.21875 36.625 
Q 22.515625 32.328125 29.109375 32.328125 
z
M 11.53125 1.515625 
L 11.53125 10.59375 
Q 14.59375 8.796875 18.0625 7.84375 
Q 21.53125 6.890625 25.296875 6.890625 
Q 34.671875 6.890625 39.46875 13.9375 
Q 44.28125 21 44.28125 34.71875 
Q 42 29.828125 37.84375 27.21875 
Q 33.6875 24.609375 28.328125 24.609375 
Q 17.78125 24.609375 11.984375 31.09375 
Q 6.203125 37.59375 6.203125 49.515625 
Q 6.203125 61.28125 12.125 67.75 
Q 18.0625 74.21875 28.90625 74.21875 
Q 41.609375 74.21875 47.515625 65.078125 
Q 53.421875 55.953125 53.421875 36.375 
Q 53.421875 17.96875 46.3125 8.265625 
Q 39.203125 -1.421875 25.6875 -1.421875 
Q 22.125 -1.421875 18.5 -0.65625 
Q 14.890625 0.09375 11.53125 1.515625 
z
" id="DejaVuSansMono-39"/>
     </defs>
     <g transform="translate(189.882148 147.923997)rotate(-44.910797)scale(0.07 -0.07)">
      <use xlink:href="#DejaVuSansMono-32"/>
      <use x="60.205078" xlink:href="#DejaVuSansMono-36"/>
      <use x="120.410156" xlink:href="#DejaVuSansMono-32"/>
      <use x="180.615234" xlink:href="#DejaVuSansMono-2e"/>
      <use x="240.820312" xlink:href="#DejaVuSansMono-34"/>
      <use x="301.025391" xlink:href="#DejaVuSansMono-39"/>
     </g>
    </g>
   </g>
   <g id="text_4">
    <g id="patch_16">
     <path clip-path="url(#pc5dd69735b)" d="M 179.758572 145.527603 
L 190.554827 122.663047 
Q 191.451479 120.764096 189.552528 119.867444 
L 183.392806 116.958928 
Q 181.493856 116.062275 180.597203 117.961226 
L 169.800948 140.825782 
Q 168.904296 142.724733 170.803247 143.621385 
L 176.962969 146.529901 
Q 178.861919 147.426554 179.758572 145.527603 
z
" style="fill:#ffffff;stroke:#ffffff;stroke-linejoin:miter;"/>
    </g>
    <g clip-path="url(#pc5dd69735b)">
     <!-- 261.34 -->
     <g transform="translate(176.543213 144.009365)rotate(-64.724114)scale(0.07 -0.07)">
      <use xlink:href="#DejaVuSansMono-32"/>
      <use x="60.205078" xlink:href="#DejaVuSansMono-36"/>
      <use x="120.410156" xlink:href="#DejaVuSansMono-31"/>
      <use x="180.615234" xlink:href="#DejaVuSansMono-2e"/>
      <use x="240.820312" xlink:href="#DejaVuSansMono-33"/>
      <use x="301.025391" xlink:href="#DejaVuSansMono-34"/>
     </g>
    </g>
   </g>
   <g id="text_5">
    <g id="patch_17">
     <path clip-path="url(#pc5dd69735b)" d="M 150.390658 117.983644 
L 153.123812 143.120806 
Q 153.350806 145.208501 155.438502 144.981507 
L 162.210465 144.245194 
Q 164.298161 144.0182 164.071167 141.930504 
L 161.338012 116.793342 
Q 161.111018 114.705647 159.023322 114.932641 
L 152.251359 115.668954 
Q 150.163663 115.895948 150.390658 117.983644 
z
" style="fill:#ffffff;stroke:#ffffff;stroke-linejoin:miter;"/>
    </g>
    <g clip-path="url(#pc5dd69735b)">
     <!-- 260.46 -->
     <defs>
      <path d="M 23.578125 36.625 
Q 23.578125 39.3125 25.453125 41.265625 
Q 27.34375 43.21875 29.984375 43.21875 
Q 32.71875 43.21875 34.671875 41.265625 
Q 36.625 39.3125 36.625 36.625 
Q 36.625 33.890625 34.6875 31.984375 
Q 32.765625 30.078125 29.984375 30.078125 
Q 27.25 30.078125 25.40625 31.9375 
Q 23.578125 33.796875 23.578125 36.625 
z
M 30.078125 66.40625 
Q 23.1875 66.40625 19.796875 58.984375 
Q 16.40625 51.5625 16.40625 36.375 
Q 16.40625 21.234375 19.796875 13.8125 
Q 23.1875 6.390625 30.078125 6.390625 
Q 37.015625 6.390625 40.40625 13.8125 
Q 43.796875 21.234375 43.796875 36.375 
Q 43.796875 51.5625 40.40625 58.984375 
Q 37.015625 66.40625 30.078125 66.40625 
z
M 30.078125 74.21875 
Q 41.75 74.21875 47.734375 64.640625 
Q 53.71875 55.078125 53.71875 36.375 
Q 53.71875 17.71875 47.734375 8.140625 
Q 41.75 -1.421875 30.078125 -1.421875 
Q 18.40625 -1.421875 12.453125 8.140625 
Q 6.5 17.71875 6.5 36.375 
Q 6.5 55.078125 12.453125 64.640625 
Q 18.40625 74.21875 30.078125 74.21875 
z
" id="DejaVuSansMono-30"/>
     </defs>
     <g transform="translate(153.925605 117.599291)rotate(-276.205372)scale(0.07 -0.07)">
      <use xlink:href="#DejaVuSansMono-32"/>
      <use x="60.205078" xlink:href="#DejaVuSansMono-36"/>
      <use x="120.410156" xlink:href="#DejaVuSansMono-30"/>
      <use x="180.615234" xlink:href="#DejaVuSansMono-2e"/>
      <use x="240.820312" xlink:href="#DejaVuSansMono-34"/>
      <use x="301.025391" xlink:href="#DejaVuSansMono-36"/>
     </g>
    </g>
   </g>
   <g id="text_6">
    <g id="patch_18">
     <path clip-path="url(#pc5dd69735b)" d="M 119.133602 265.410165 
L 137.662972 248.205239 
Q 139.201876 246.776333 137.77297 245.237428 
L 133.137955 240.245607 
Q 131.709048 238.706703 130.170144 240.135609 
L 111.640774 257.340535 
Q 110.10187 258.769442 111.530776 260.308346 
L 116.165791 265.300167 
Q 117.594698 266.839071 119.133602 265.410165 
z
" style="fill:#ffffff;stroke:#ffffff;stroke-linejoin:miter;"/>
    </g>
    <g clip-path="url(#pc5dd69735b)">
     <!-- 256.65 -->
     <g transform="translate(116.714136 262.804447)rotate(-42.87738)scale(0.07 -0.07)">
      <use xlink:href="#DejaVuSansMono-32"/>
      <use x="60.205078" xlink:href="#DejaVuSansMono-35"/>
      <use x="120.410156" xlink:href="#DejaVuSansMono-36"/>
      <use x="180.615234" xlink:href="#DejaVuSansMono-2e"/>
      <use x="240.820312" xlink:href="#DejaVuSansMono-36"/>
      <use x="301.025391" xlink:href="#DejaVuSansMono-35"/>
     </g>
    </g>
   </g>
   <g id="text_7">
    <g id="patch_19">
     <path clip-path="url(#pc5dd69735b)" d="M 204.23788 166.62971 
L 227.106878 155.842868 
Q 229.006198 154.946998 228.110328 153.047678 
L 225.204347 146.886759 
Q 224.308477 144.987439 222.409157 145.88331 
L 199.540159 156.670152 
Q 197.640839 157.566022 198.53671 159.465342 
L 201.44269 165.626261 
Q 202.33856 167.525581 204.23788 166.62971 
z
" style="fill:#ffffff;stroke:#ffffff;stroke-linejoin:miter;"/>
    </g>
    <g clip-path="url(#pc5dd69735b)">
     <!-- 240.74 -->
     <g transform="translate(202.720966 163.413726)rotate(-25.2523)scale(0.07 -0.07)">
      <use xlink:href="#DejaVuSansMono-32"/>
      <use x="60.205078" xlink:href="#DejaVuSansMono-34"/>
      <use x="120.410156" xlink:href="#DejaVuSansMono-30"/>
      <use x="180.615234" xlink:href="#DejaVuSansMono-2e"/>
      <use x="240.820312" xlink:href="#DejaVuSansMono-37"/>
      <use x="301.025391" xlink:href="#DejaVuSansMono-34"/>
     </g>
    </g>
   </g>
   <g id="text_8">
    <g id="patch_20">
     <path clip-path="url(#pc5dd69735b)" d="M 202.404408 228.766325 
L 226.267661 237.126481 
Q 228.249555 237.82081 228.943885 235.838916 
L 231.196115 229.410144 
Q 231.890444 227.428249 229.908549 226.73392 
L 206.045296 218.373764 
Q 204.063402 217.679435 203.369073 219.66133 
L 201.116843 226.090101 
Q 200.422513 228.071996 202.404408 228.766325 
z
" style="fill:#ffffff;stroke:#ffffff;stroke-linejoin:miter;"/>
    </g>
    <g clip-path="url(#pc5dd69735b)">
     <!-- 228.44 -->
     <defs>
      <path d="M 30.078125 34.625 
Q 23.484375 34.625 19.890625 30.9375 
Q 16.3125 27.25 16.3125 20.515625 
Q 16.3125 13.765625 19.9375 10.03125 
Q 23.578125 6.296875 30.078125 6.296875 
Q 36.71875 6.296875 40.296875 9.984375 
Q 43.890625 13.671875 43.890625 20.515625 
Q 43.890625 27.203125 40.25 30.90625 
Q 36.625 34.625 30.078125 34.625 
z
M 21.484375 38.71875 
Q 15.1875 40.328125 11.640625 44.71875 
Q 8.109375 49.125 8.109375 55.328125 
Q 8.109375 64.015625 14.015625 69.109375 
Q 19.921875 74.21875 30.078125 74.21875 
Q 40.28125 74.21875 46.1875 69.109375 
Q 52.09375 64.015625 52.09375 55.328125 
Q 52.09375 49.125 48.546875 44.71875 
Q 45.015625 40.328125 38.71875 38.71875 
Q 46.046875 37.109375 49.921875 32.21875 
Q 53.8125 27.34375 53.8125 19.578125 
Q 53.8125 9.71875 47.515625 4.140625 
Q 41.21875 -1.421875 30.078125 -1.421875 
Q 18.953125 -1.421875 12.671875 4.125 
Q 6.390625 9.671875 6.390625 19.484375 
Q 6.390625 27.296875 10.265625 32.203125 
Q 14.15625 37.109375 21.484375 38.71875 
z
M 17.921875 54.390625 
Q 17.921875 48.53125 21.046875 45.453125 
Q 24.171875 42.390625 30.078125 42.390625 
Q 36.03125 42.390625 39.15625 45.453125 
Q 42.28125 48.53125 42.28125 54.390625 
Q 42.28125 60.359375 39.171875 63.484375 
Q 36.078125 66.609375 30.078125 66.609375 
Q 24.171875 66.609375 21.046875 63.453125 
Q 17.921875 60.296875 17.921875 54.390625 
z
" id="DejaVuSansMono-38"/>
     </defs>
     <g transform="translate(203.580067 225.410523)rotate(-340.692805)scale(0.07 -0.07)">
      <use xlink:href="#DejaVuSansMono-32"/>
      <use x="60.205078" xlink:href="#DejaVuSansMono-32"/>
      <use x="120.410156" xlink:href="#DejaVuSansMono-38"/>
      <use x="180.615234" xlink:href="#DejaVuSansMono-2e"/>
      <use x="240.820312" xlink:href="#DejaVuSansMono-34"/>
      <use x="301.025391" xlink:href="#DejaVuSansMono-34"/>
     </g>
    </g>
   </g>
   <g id="text_9">
    <g id="patch_21">
     <path clip-path="url(#pc5dd69735b)" d="M 148.998001 129.28986 
L 152.882924 154.274943 
Q 153.205575 156.350009 155.28064 156.027357 
L 162.011633 154.980757 
Q 164.086699 154.658106 163.764047 152.583041 
L 159.879125 127.597957 
Q 159.556473 125.522892 157.481408 125.845543 
L 150.750415 126.892143 
Q 148.67535 127.214794 148.998001 129.28986 
z
" style="fill:#ffffff;stroke:#ffffff;stroke-linejoin:miter;"/>
    </g>
    <g clip-path="url(#pc5dd69735b)">
     <!-- 217.79 -->
     <g transform="translate(152.511562 128.743537)rotate(-278.83813)scale(0.07 -0.07)">
      <use xlink:href="#DejaVuSansMono-32"/>
      <use x="60.205078" xlink:href="#DejaVuSansMono-31"/>
      <use x="120.410156" xlink:href="#DejaVuSansMono-37"/>
      <use x="180.615234" xlink:href="#DejaVuSansMono-2e"/>
      <use x="240.820312" xlink:href="#DejaVuSansMono-37"/>
      <use x="301.025391" xlink:href="#DejaVuSansMono-39"/>
     </g>
    </g>
   </g>
   <g id="text_10">
    <g id="patch_22">
     <path clip-path="url(#pc5dd69735b)" d="M 176.259703 156.511347 
L 186.749861 133.504748 
Q 187.621091 131.594 185.710343 130.72277 
L 179.512355 127.896716 
Q 177.601607 127.025486 176.730376 128.936234 
L 166.240218 151.942833 
Q 165.368988 153.853581 167.279736 154.724811 
L 173.477724 157.550865 
Q 175.388472 158.422095 176.259703 156.511347 
z
" style="fill:#ffffff;stroke:#ffffff;stroke-linejoin:miter;"/>
    </g>
    <g clip-path="url(#pc5dd69735b)">
     <!-- 216.46 -->
     <g transform="translate(173.024369 155.036155)rotate(-65.488769)scale(0.07 -0.07)">
      <use xlink:href="#DejaVuSansMono-32"/>
      <use x="60.205078" xlink:href="#DejaVuSansMono-31"/>
      <use x="120.410156" xlink:href="#DejaVuSansMono-36"/>
      <use x="180.615234" xlink:href="#DejaVuSansMono-2e"/>
      <use x="240.820312" xlink:href="#DejaVuSansMono-34"/>
      <use x="301.025391" xlink:href="#DejaVuSansMono-36"/>
     </g>
    </g>
   </g>
   <g id="text_11">
    <g id="patch_23">
     <path clip-path="url(#pc5dd69735b)" d="M 185.989507 161.863588 
L 204.133135 144.252347 
Q 205.640003 142.789695 204.177351 141.282828 
L 199.432874 136.394926 
Q 197.970223 134.888058 196.463355 136.35071 
L 178.319727 153.961951 
Q 176.81286 155.424603 178.275512 156.93147 
L 183.019988 161.819372 
Q 184.48264 163.326239 185.989507 161.863588 
z
" style="fill:#ffffff;stroke:#ffffff;stroke-linejoin:miter;"/>
    </g>
    <g clip-path="url(#pc5dd69735b)">
     <!-- 212.47 -->
     <g transform="translate(183.512903 159.312116)rotate(-44.146934)scale(0.07 -0.07)">
      <use xlink:href="#DejaVuSansMono-32"/>
      <use x="60.205078" xlink:href="#DejaVuSansMono-31"/>
      <use x="120.410156" xlink:href="#DejaVuSansMono-32"/>
      <use x="180.615234" xlink:href="#DejaVuSansMono-2e"/>
      <use x="240.820312" xlink:href="#DejaVuSansMono-34"/>
      <use x="301.025391" xlink:href="#DejaVuSansMono-37"/>
     </g>
    </g>
   </g>
   <g id="text_12">
    <g id="patch_24">
     <path clip-path="url(#pc5dd69735b)" d="M 95.984054 224.947856 
L 120.637456 219.330312 
Q 122.684975 218.863763 122.218425 216.816244 
L 120.705056 210.174606 
Q 120.238507 208.127088 118.190989 208.593637 
L 93.537587 214.211181 
Q 91.490068 214.67773 91.956618 216.725249 
L 93.469987 223.366887 
Q 93.936536 225.414405 95.984054 224.947856 
z
" style="fill:#ffffff;stroke:#ffffff;stroke-linejoin:miter;"/>
    </g>
    <g clip-path="url(#pc5dd69735b)">
     <!-- 208.46 -->
     <g transform="translate(95.19408 221.480938)rotate(-12.836302)scale(0.07 -0.07)">
      <use xlink:href="#DejaVuSansMono-32"/>
      <use x="60.205078" xlink:href="#DejaVuSansMono-30"/>
      <use x="120.410156" xlink:href="#DejaVuSansMono-38"/>
      <use x="180.615234" xlink:href="#DejaVuSansMono-2e"/>
      <use x="240.820312" xlink:href="#DejaVuSansMono-34"/>
      <use x="301.025391" xlink:href="#DejaVuSansMono-36"/>
     </g>
    </g>
   </g>
   <g id="text_13">
    <g id="patch_25">
     <path clip-path="url(#pc5dd69735b)" d="M 204.39624 191.033235 
L 229.438834 187.538171 
Q 231.518676 187.247899 231.228404 185.168057 
L 230.286832 178.42157 
Q 229.996559 176.341728 227.916718 176.632001 
L 202.874123 180.127064 
Q 200.794281 180.417337 201.084553 182.497179 
L 202.026125 189.243666 
Q 202.316398 191.323507 204.39624 191.033235 
z
" style="fill:#ffffff;stroke:#ffffff;stroke-linejoin:miter;"/>
    </g>
    <g clip-path="url(#pc5dd69735b)">
     <!-- 198.64 -->
     <g transform="translate(203.904742 187.511586)rotate(-7.945151)scale(0.07 -0.07)">
      <use xlink:href="#DejaVuSansMono-31"/>
      <use x="60.205078" xlink:href="#DejaVuSansMono-39"/>
      <use x="120.410156" xlink:href="#DejaVuSansMono-38"/>
      <use x="180.615234" xlink:href="#DejaVuSansMono-2e"/>
      <use x="240.820312" xlink:href="#DejaVuSansMono-36"/>
      <use x="301.025391" xlink:href="#DejaVuSansMono-34"/>
     </g>
    </g>
   </g>
   <g id="text_14">
    <g id="patch_26">
     <path clip-path="url(#pc5dd69735b)" d="M 203.103487 208.195213 
L 228.302981 210.276679 
Q 230.395854 210.44955 230.568724 208.356677 
L 231.129473 201.567921 
Q 231.302343 199.475049 229.20947 199.302179 
L 204.009976 197.220712 
Q 201.917103 197.047841 201.744233 199.140714 
L 201.183485 205.92947 
Q 201.010614 208.022342 203.103487 208.195213 
z
" style="fill:#ffffff;stroke:#ffffff;stroke-linejoin:miter;"/>
    </g>
    <g clip-path="url(#pc5dd69735b)">
     <!-- 194.67 -->
     <g transform="translate(203.396196 204.6515)rotate(-355.278114)scale(0.07 -0.07)">
      <use xlink:href="#DejaVuSansMono-31"/>
      <use x="60.205078" xlink:href="#DejaVuSansMono-39"/>
      <use x="120.410156" xlink:href="#DejaVuSansMono-34"/>
      <use x="180.615234" xlink:href="#DejaVuSansMono-2e"/>
      <use x="240.820312" xlink:href="#DejaVuSansMono-36"/>
      <use x="301.025391" xlink:href="#DejaVuSansMono-37"/>
     </g>
    </g>
   </g>
   <g id="text_15">
    <g id="patch_27">
     <path clip-path="url(#pc5dd69735b)" d="M 94.398281 200.975709 
L 119.682671 201.191758 
Q 121.782594 201.209702 121.800538 199.109778 
L 121.858741 192.298152 
Q 121.876685 190.198229 119.776762 190.180285 
L 94.492372 189.964236 
Q 92.392449 189.946292 92.374505 192.046216 
L 92.316301 198.857842 
Q 92.298358 200.957765 94.398281 200.975709 
z
" style="fill:#ffffff;stroke:#ffffff;stroke-linejoin:miter;"/>
    </g>
    <g clip-path="url(#pc5dd69735b)">
     <!-- 192.52 -->
     <g transform="translate(94.428664 197.420057)rotate(-359.510432)scale(0.07 -0.07)">
      <use xlink:href="#DejaVuSansMono-31"/>
      <use x="60.205078" xlink:href="#DejaVuSansMono-39"/>
      <use x="120.410156" xlink:href="#DejaVuSansMono-32"/>
      <use x="180.615234" xlink:href="#DejaVuSansMono-2e"/>
      <use x="240.820312" xlink:href="#DejaVuSansMono-35"/>
      <use x="301.025391" xlink:href="#DejaVuSansMono-32"/>
     </g>
    </g>
   </g>
   <g id="text_16">
    <g id="patch_28">
     <path clip-path="url(#pc5dd69735b)" d="M 112.966183 159.797255 
L 134.61193 172.866634 
Q 136.409656 173.952074 137.495097 172.154348 
L 141.015993 166.322973 
Q 142.101433 164.525247 140.303707 163.439807 
L 118.65796 150.370428 
Q 116.860234 149.284988 115.774793 151.082714 
L 112.253897 156.914089 
Q 111.168457 158.711815 112.966183 159.797255 
z
" style="fill:#ffffff;stroke:#ffffff;stroke-linejoin:miter;"/>
    </g>
    <g clip-path="url(#pc5dd69735b)">
     <!-- 183.71 -->
     <g transform="translate(114.804082 156.753293)rotate(-328.877049)scale(0.07 -0.07)">
      <use xlink:href="#DejaVuSansMono-31"/>
      <use x="60.205078" xlink:href="#DejaVuSansMono-38"/>
      <use x="120.410156" xlink:href="#DejaVuSansMono-33"/>
      <use x="180.615234" xlink:href="#DejaVuSansMono-2e"/>
      <use x="240.820312" xlink:href="#DejaVuSansMono-37"/>
      <use x="301.025391" xlink:href="#DejaVuSansMono-31"/>
     </g>
    </g>
   </g>
   <g id="text_17">
    <g id="patch_29">
     <path clip-path="url(#pc5dd69735b)" d="M 190.510726 181.296688 
L 214.070874 172.117009 
Q 216.027595 171.354617 215.265203 169.397896 
L 212.792193 163.050781 
Q 212.029801 161.09406 210.07308 161.856452 
L 186.512932 171.036131 
Q 184.556211 171.798523 185.318603 173.755244 
L 187.791613 180.102359 
Q 188.554005 182.05908 190.510726 181.296688 
z
" style="fill:#ffffff;stroke:#ffffff;stroke-linejoin:miter;"/>
    </g>
    <g clip-path="url(#pc5dd69735b)">
     <!-- 167.46 -->
     <g transform="translate(189.219822 177.98351)rotate(-21.28725)scale(0.07 -0.07)">
      <use xlink:href="#DejaVuSansMono-31"/>
      <use x="60.205078" xlink:href="#DejaVuSansMono-36"/>
      <use x="120.410156" xlink:href="#DejaVuSansMono-37"/>
      <use x="180.615234" xlink:href="#DejaVuSansMono-2e"/>
      <use x="240.820312" xlink:href="#DejaVuSansMono-34"/>
      <use x="301.025391" xlink:href="#DejaVuSansMono-36"/>
     </g>
    </g>
   </g>
   <g id="text_18">
    <g id="patch_30">
     <path clip-path="url(#pc5dd69735b)" d="M 140.064676 148.185285 
L 150.836248 171.06148 
Q 151.73085 172.961398 153.630767 172.066795 
L 159.793625 169.164929 
Q 161.693542 168.270327 160.79894 166.370409 
L 150.027369 143.494215 
Q 149.132767 141.594297 147.232849 142.488899 
L 141.069992 145.390766 
Q 139.170074 146.285368 140.064676 148.185285 
z
" style="fill:#ffffff;stroke:#ffffff;stroke-linejoin:miter;"/>
    </g>
    <g clip-path="url(#pc5dd69735b)">
     <!-- 158.02 -->
     <g transform="translate(143.281672 146.670519)rotate(-295.214047)scale(0.07 -0.07)">
      <use xlink:href="#DejaVuSansMono-31"/>
      <use x="60.205078" xlink:href="#DejaVuSansMono-35"/>
      <use x="120.410156" xlink:href="#DejaVuSansMono-38"/>
      <use x="180.615234" xlink:href="#DejaVuSansMono-2e"/>
      <use x="240.820312" xlink:href="#DejaVuSansMono-30"/>
      <use x="301.025391" xlink:href="#DejaVuSansMono-32"/>
     </g>
    </g>
   </g>
   <g id="PathCollection_1">
    <defs>
     <path d="M 0 4.1833 
C 1.109424 4.1833 2.173559 3.742521 2.95804 2.95804 
C 3.742521 2.173559 4.1833 1.109424 4.1833 0 
C 4.1833 -1.109424 3.742521 -2.173559 2.95804 -2.95804 
C 2.173559 -3.742521 1.109424 -4.1833 0 -4.1833 
C -1.109424 -4.1833 -2.173559 -3.742521 -2.95804 -2.95804 
C -3.742521 -2.173559 -4.1833 -1.109424 -4.1833 0 
C -4.1833 1.109424 -3.742521 2.173559 -2.95804 2.95804 
C -2.173559 3.742521 -1.109424 4.1833 0 4.1833 
z
" id="C0_0_cd10dce80c"/>
     <path d="M 0 4.1833 
C 1.109424 4.1833 2.173559 3.742521 2.95804 2.95804 
C 3.742521 2.173559 4.1833 1.109424 4.1833 0 
C 4.1833 -1.109424 3.742521 -2.173559 2.95804 -2.95804 
C 2.173559 -3.742521 1.109424 -4.1833 0 -4.1833 
C -1.109424 -4.1833 -2.173559 -3.742521 -2.95804 -2.95804 
C -3.742521 -2.173559 -4.1833 -1.109424 -4.1833 0 
C -4.1833 1.109424 -3.742521 2.173559 -2.95804 2.95804 
C -2.173559 3.742521 -1.109424 4.1833 0 4.1833 
z
" id="C0_1_4a6d38b93b"/>
     <path d="M 0 4.1833 
C 1.109424 4.1833 2.173559 3.742521 2.95804 2.95804 
C 3.742521 2.173559 4.1833 1.109424 4.1833 0 
C 4.1833 -1.109424 3.742521 -2.173559 2.95804 -2.95804 
C 2.173559 -3.742521 1.109424 -4.1833 0 -4.1833 
C -1.109424 -4.1833 -2.173559 -3.742521 -2.95804 -2.95804 
C -3.742521 -2.173559 -4.1833 -1.109424 -4.1833 0 
C -4.1833 1.109424 -3.742521 2.173559 -2.95804 2.95804 
C -2.173559 3.742521 -1.109424 4.1833 0 4.1833 
z
" id="C0_2_53456aa197"/>
     <path d="M 0 4.1833 
C 1.109424 4.1833 2.173559 3.742521 2.95804 2.95804 
C 3.742521 2.173559 4.1833 1.109424 4.1833 0 
C 4.1833 -1.109424 3.742521 -2.173559 2.95804 -2.95804 
C 2.173559 -3.742521 1.109424 -4.1833 0 -4.1833 
C -1.109424 -4.1833 -2.173559 -3.742521 -2.95804 -2.95804 
C -3.742521 -2.173559 -4.1833 -1.109424 -4.1833 0 
C -4.1833 1.109424 -3.742521 2.173559 -2.95804 2.95804 
C -2.173559 3.742521 -1.109424 4.1833 0 4.1833 
z
" id="C0_3_8102635d89"/>
     <path d="M 0 4.1833 
C 1.109424 4.1833 2.173559 3.742521 2.95804 2.95804 
C 3.742521 2.173559 4.1833 1.109424 4.1833 0 
C 4.1833 -1.109424 3.742521 -2.173559 2.95804 -2.95804 
C 2.173559 -3.742521 1.109424 -4.1833 0 -4.1833 
C -1.109424 -4.1833 -2.173559 -3.742521 -2.95804 -2.95804 
C -3.742521 -2.173559 -4.1833 -1.109424 -4.1833 0 
C -4.1833 1.109424 -3.742521 2.173559 -2.95804 2.95804 
C -2.173559 3.742521 -1.109424 4.1833 0 4.1833 
z
" id="C0_4_5c11a15bd6"/>
     <path d="M 0 4.1833 
C 1.109424 4.1833 2.173559 3.742521 2.95804 2.95804 
C 3.742521 2.173559 4.1833 1.109424 4.1833 0 
C 4.1833 -1.109424 3.742521 -2.173559 2.95804 -2.95804 
C 2.173559 -3.742521 1.109424 -4.1833 0 -4.1833 
C -1.109424 -4.1833 -2.173559 -3.742521 -2.95804 -2.95804 
C -3.742521 -2.173559 -4.1833 -1.109424 -4.1833 0 
C -4.1833 1.109424 -3.742521 2.173559 -2.95804 2.95804 
C -2.173559 3.742521 -1.109424 4.1833 0 4.1833 
z
" id="C0_5_e471903ee2"/>
     <path d="M 0 4.1833 
C 1.109424 4.1833 2.173559 3.742521 2.95804 2.95804 
C 3.742521 2.173559 4.1833 1.109424 4.1833 0 
C 4.1833 -1.109424 3.742521 -2.173559 2.95804 -2.95804 
C 2.173559 -3.742521 1.109424 -4.1833 0 -4.1833 
C -1.109424 -4.1833 -2.173559 -3.742521 -2.95804 -2.95804 
C -3.742521 -2.173559 -4.1833 -1.109424 -4.1833 0 
C -4.1833 1.109424 -3.742521 2.173559 -2.95804 2.95804 
C -2.173559 3.742521 -1.109424 4.1833 0 4.1833 
z
" id="C0_6_22b1445832"/>
     <path d="M 0 4.1833 
C 1.109424 4.1833 2.173559 3.742521 2.95804 2.95804 
C 3.742521 2.173559 4.1833 1.109424 4.1833 0 
C 4.1833 -1.109424 3.742521 -2.173559 2.95804 -2.95804 
C 2.173559 -3.742521 1.109424 -4.1833 0 -4.1833 
C -1.109424 -4.1833 -2.173559 -3.742521 -2.95804 -2.95804 
C -3.742521 -2.173559 -4.1833 -1.109424 -4.1833 0 
C -4.1833 1.109424 -3.742521 2.173559 -2.95804 2.95804 
C -2.173559 3.742521 -1.109424 4.1833 0 4.1833 
z
" id="C0_7_c0c595d3f4"/>
     <path d="M 0 4.1833 
C 1.109424 4.1833 2.173559 3.742521 2.95804 2.95804 
C 3.742521 2.173559 4.1833 1.109424 4.1833 0 
C 4.1833 -1.109424 3.742521 -2.173559 2.95804 -2.95804 
C 2.173559 -3.742521 1.109424 -4.1833 0 -4.1833 
C -1.109424 -4.1833 -2.173559 -3.742521 -2.95804 -2.95804 
C -3.742521 -2.173559 -4.1833 -1.109424 -4.1833 0 
C -4.1833 1.109424 -3.742521 2.173559 -2.95804 2.95804 
C -2.173559 3.742521 -1.109424 4.1833 0 4.1833 
z
" id="C0_8_ed7916b11c"/>
     <path d="M 0 4.1833 
C 1.109424 4.1833 2.173559 3.742521 2.95804 2.95804 
C 3.742521 2.173559 4.1833 1.109424 4.1833 0 
C 4.1833 -1.109424 3.742521 -2.173559 2.95804 -2.95804 
C 2.173559 -3.742521 1.109424 -4.1833 0 -4.1833 
C -1.109424 -4.1833 -2.173559 -3.742521 -2.95804 -2.95804 
C -3.742521 -2.173559 -4.1833 -1.109424 -4.1833 0 
C -4.1833 1.109424 -3.742521 2.173559 -2.95804 2.95804 
C -2.173559 3.742521 -1.109424 4.1833 0 4.1833 
z
" id="C0_9_517a766ad8"/>
     <path d="M 0 4.1833 
C 1.109424 4.1833 2.173559 3.742521 2.95804 2.95804 
C 3.742521 2.173559 4.1833 1.109424 4.1833 0 
C 4.1833 -1.109424 3.742521 -2.173559 2.95804 -2.95804 
C 2.173559 -3.742521 1.109424 -4.1833 0 -4.1833 
C -1.109424 -4.1833 -2.173559 -3.742521 -2.95804 -2.95804 
C -3.742521 -2.173559 -4.1833 -1.109424 -4.1833 0 
C -4.1833 1.109424 -3.742521 2.173559 -2.95804 2.95804 
C -2.173559 3.742521 -1.109424 4.1833 0 4.1833 
z
" id="C0_a_90f67931a9"/>
     <path d="M 0 4.1833 
C 1.109424 4.1833 2.173559 3.742521 2.95804 2.95804 
C 3.742521 2.173559 4.1833 1.109424 4.1833 0 
C 4.1833 -1.109424 3.742521 -2.173559 2.95804 -2.95804 
C 2.173559 -3.742521 1.109424 -4.1833 0 -4.1833 
C -1.109424 -4.1833 -2.173559 -3.742521 -2.95804 -2.95804 
C -3.742521 -2.173559 -4.1833 -1.109424 -4.1833 0 
C -4.1833 1.109424 -3.742521 2.173559 -2.95804 2.95804 
C -2.173559 3.742521 -1.109424 4.1833 0 4.1833 
z
" id="C0_b_4b7f4af609"/>
     <path d="M 0 4.1833 
C 1.109424 4.1833 2.173559 3.742521 2.95804 2.95804 
C 3.742521 2.173559 4.1833 1.109424 4.1833 0 
C 4.1833 -1.109424 3.742521 -2.173559 2.95804 -2.95804 
C 2.173559 -3.742521 1.109424 -4.1833 0 -4.1833 
C -1.109424 -4.1833 -2.173559 -3.742521 -2.95804 -2.95804 
C -3.742521 -2.173559 -4.1833 -1.109424 -4.1833 0 
C -4.1833 1.109424 -3.742521 2.173559 -2.95804 2.95804 
C -2.173559 3.742521 -1.109424 4.1833 0 4.1833 
z
" id="C0_c_c2228ff247"/>
     <path d="M 0 4.1833 
C 1.109424 4.1833 2.173559 3.742521 2.95804 2.95804 
C 3.742521 2.173559 4.1833 1.109424 4.1833 0 
C 4.1833 -1.109424 3.742521 -2.173559 2.95804 -2.95804 
C 2.173559 -3.742521 1.109424 -4.1833 0 -4.1833 
C -1.109424 -4.1833 -2.173559 -3.742521 -2.95804 -2.95804 
C -3.742521 -2.173559 -4.1833 -1.109424 -4.1833 0 
C -4.1833 1.109424 -3.742521 2.173559 -2.95804 2.95804 
C -2.173559 3.742521 -1.109424 4.1833 0 4.1833 
z
" id="C0_d_548550dd18"/>
     <path d="M 0 4.1833 
C 1.109424 4.1833 2.173559 3.742521 2.95804 2.95804 
C 3.742521 2.173559 4.1833 1.109424 4.1833 0 
C 4.1833 -1.109424 3.742521 -2.173559 2.95804 -2.95804 
C 2.173559 -3.742521 1.109424 -4.1833 0 -4.1833 
C -1.109424 -4.1833 -2.173559 -3.742521 -2.95804 -2.95804 
C -3.742521 -2.173559 -4.1833 -1.109424 -4.1833 0 
C -4.1833 1.109424 -3.742521 2.173559 -2.95804 2.95804 
C -2.173559 3.742521 -1.109424 4.1833 0 4.1833 
z
" id="C0_e_722e619b8f"/>
     <path d="M 0 4.1833 
C 1.109424 4.1833 2.173559 3.742521 2.95804 2.95804 
C 3.742521 2.173559 4.1833 1.109424 4.1833 0 
C 4.1833 -1.109424 3.742521 -2.173559 2.95804 -2.95804 
C 2.173559 -3.742521 1.109424 -4.1833 0 -4.1833 
C -1.109424 -4.1833 -2.173559 -3.742521 -2.95804 -2.95804 
C -3.742521 -2.173559 -4.1833 -1.109424 -4.1833 0 
C -4.1833 1.109424 -3.742521 2.173559 -2.95804 2.95804 
C -2.173559 3.742521 -1.109424 4.1833 0 4.1833 
z
" id="C0_f_734804e367"/>
     <path d="M 0 4.1833 
C 1.109424 4.1833 2.173559 3.742521 2.95804 2.95804 
C 3.742521 2.173559 4.1833 1.109424 4.1833 0 
C 4.1833 -1.109424 3.742521 -2.173559 2.95804 -2.95804 
C 2.173559 -3.742521 1.109424 -4.1833 0 -4.1833 
C -1.109424 -4.1833 -2.173559 -3.742521 -2.95804 -2.95804 
C -3.742521 -2.173559 -4.1833 -1.109424 -4.1833 0 
C -4.1833 1.109424 -3.742521 2.173559 -2.95804 2.95804 
C -2.173559 3.742521 -1.109424 4.1833 0 4.1833 
z
" id="C0_10_7634ba6838"/>
     <path d="M 0 4.1833 
C 1.109424 4.1833 2.173559 3.742521 2.95804 2.95804 
C 3.742521 2.173559 4.1833 1.109424 4.1833 0 
C 4.1833 -1.109424 3.742521 -2.173559 2.95804 -2.95804 
C 2.173559 -3.742521 1.109424 -4.1833 0 -4.1833 
C -1.109424 -4.1833 -2.173559 -3.742521 -2.95804 -2.95804 
C -3.742521 -2.173559 -4.1833 -1.109424 -4.1833 0 
C -4.1833 1.109424 -3.742521 2.173559 -2.95804 2.95804 
C -2.173559 3.742521 -1.109424 4.1833 0 4.1833 
z
" id="C0_11_11e3abdd6e"/>
     <path d="M 0 4.1833 
C 1.109424 4.1833 2.173559 3.742521 2.95804 2.95804 
C 3.742521 2.173559 4.1833 1.109424 4.1833 0 
C 4.1833 -1.109424 3.742521 -2.173559 2.95804 -2.95804 
C 2.173559 -3.742521 1.109424 -4.1833 0 -4.1833 
C -1.109424 -4.1833 -2.173559 -3.742521 -2.95804 -2.95804 
C -3.742521 -2.173559 -4.1833 -1.109424 -4.1833 0 
C -4.1833 1.109424 -3.742521 2.173559 -2.95804 2.95804 
C -2.173559 3.742521 -1.109424 4.1833 0 4.1833 
z
" id="C0_12_0fd7ceb290"/>
    </defs>
    <g clip-path="url(#pc5dd69735b)">
     <use style="fill:#0000ff;stroke:#0000ff;" x="161.622" xlink:href="#C0_0_cd10dce80c" y="196.344"/>
    </g>
    <g clip-path="url(#pc5dd69735b)">
     <use style="fill:#0000ff;stroke:#0000ff;" x="270.690957" xlink:href="#C0_1_4a6d38b93b" y="323.500497"/>
    </g>
    <g clip-path="url(#pc5dd69735b)">
     <use style="fill:#0000ff;stroke:#0000ff;" x="182.302607" xlink:href="#C0_2_53456aa197" y="329.117852"/>
    </g>
    <g clip-path="url(#pc5dd69735b)">
     <use style="fill:#0000ff;stroke:#0000ff;" x="87.681746" xlink:href="#C0_3_8102635d89" y="309.201774"/>
    </g>
    <g clip-path="url(#pc5dd69735b)">
     <use style="fill:#0000ff;stroke:#0000ff;" x="52.553043" xlink:href="#C0_4_5c11a15bd6" y="237.197493"/>
    </g>
    <g clip-path="url(#pc5dd69735b)">
     <use style="fill:#0000ff;stroke:#0000ff;" x="52.553043" xlink:href="#C0_5_e471903ee2" y="194.811994"/>
    </g>
    <g clip-path="url(#pc5dd69735b)">
     <use style="fill:#0000ff;stroke:#0000ff;" x="91.64789" xlink:href="#C0_6_22b1445832" y="126.893062"/>
    </g>
    <g clip-path="url(#pc5dd69735b)">
     <use style="fill:#0000ff;stroke:#0000ff;" x="139.241617" xlink:href="#C0_7_c0c595d3f4" y="118.211695"/>
    </g>
    <g clip-path="url(#pc5dd69735b)">
     <use style="fill:#0000ff;stroke:#0000ff;" x="238.961806" xlink:href="#C0_8_ed7916b11c" y="146.80914"/>
    </g>
    <g clip-path="url(#pc5dd69735b)">
     <use style="fill:#0000ff;stroke:#0000ff;" x="220.830862" xlink:href="#C0_9_517a766ad8" y="101.870298"/>
    </g>
    <g clip-path="url(#pc5dd69735b)">
     <use style="fill:#0000ff;stroke:#0000ff;" x="191.368079" xlink:href="#C0_a_90f67931a9" y="89.103581"/>
    </g>
    <g clip-path="url(#pc5dd69735b)">
     <use style="fill:#0000ff;stroke:#0000ff;" x="151.140048" xlink:href="#C0_b_4b7f4af609" y="85.5289"/>
    </g>
    <g clip-path="url(#pc5dd69735b)">
     <use style="fill:#0000ff;stroke:#0000ff;" x="152.839824" xlink:href="#C0_c_c2228ff247" y="63.570148"/>
    </g>
    <g clip-path="url(#pc5dd69735b)">
     <use style="fill:#0000ff;stroke:#0000ff;" x="198.733775" xlink:href="#C0_d_548550dd18" y="67.144829"/>
    </g>
    <g clip-path="url(#pc5dd69735b)">
     <use style="fill:#0000ff;stroke:#0000ff;" x="233.295886" xlink:href="#C0_e_722e619b8f" y="78.890208"/>
    </g>
    <g clip-path="url(#pc5dd69735b)">
     <use style="fill:#0000ff;stroke:#0000ff;" x="265.025037" xlink:href="#C0_f_734804e367" y="116.16902"/>
    </g>
    <g clip-path="url(#pc5dd69735b)">
     <use style="fill:#0000ff;stroke:#0000ff;" x="270.690957" xlink:href="#C0_10_7634ba6838" y="171.321236"/>
    </g>
    <g clip-path="url(#pc5dd69735b)">
     <use style="fill:#0000ff;stroke:#0000ff;" x="270.690957" xlink:href="#C0_11_11e3abdd6e" y="211.153391"/>
    </g>
    <g clip-path="url(#pc5dd69735b)">
     <use style="fill:#0000ff;stroke:#0000ff;" x="270.690957" xlink:href="#C0_12_0fd7ceb290" y="259.156245"/>
    </g>
    <g clip-path="url(#pc5dd69735b)">
     <use style="fill:#008000;stroke:#008000;" x="190.234895" xlink:href="#C0_0_cd10dce80c" y="272.433631"/>
    </g>
   </g>
   <g id="line2d_1">
    <path clip-path="url(#pc5dd69735b)" d="M 270.690957 323.500497 
L 182.302607 329.117852 
L 87.681746 309.201774 
L 52.553043 237.197493 
L 52.553043 194.811994 
L 91.64789 126.893062 
L 139.241617 118.211695 
L 238.961806 146.80914 
L 220.830862 101.870298 
L 191.368079 89.103581 
L 151.140048 85.5289 
L 152.839824 63.570148 
L 198.733775 67.144829 
L 233.295886 78.890208 
L 265.025037 116.16902 
L 270.690957 171.321236 
L 270.690957 211.153391 
L 270.690957 259.156245 
" style="fill:none;stroke:#0000ff;stroke-linecap:square;stroke-width:0.2;"/>
   </g>
   <g id="text_19">
    <g clip-path="url(#pc5dd69735b)">
     <!-- 0 -->
     <defs>
      <path d="M 24.03125 36.375 
Q 24.03125 38.96875 25.78125 40.71875 
Q 27.546875 42.484375 30.078125 42.484375 
Q 32.671875 42.484375 34.421875 40.71875 
Q 36.1875 38.96875 36.1875 36.375 
Q 36.1875 33.84375 34.421875 32.078125 
Q 32.671875 30.328125 30.078125 30.328125 
Q 27.546875 30.328125 25.78125 32.0625 
Q 24.03125 33.796875 24.03125 36.375 
z
M 30.078125 62.015625 
Q 25.09375 62.015625 22.796875 55.90625 
Q 20.515625 49.8125 20.515625 36.375 
Q 20.515625 23 22.796875 16.890625 
Q 25.09375 10.796875 30.078125 10.796875 
Q 35.109375 10.796875 37.40625 16.890625 
Q 39.703125 23 39.703125 36.375 
Q 39.703125 49.8125 37.40625 55.90625 
Q 35.109375 62.015625 30.078125 62.015625 
z
M 6 36.375 
Q 6 55.328125 12 64.765625 
Q 18.015625 74.21875 30.078125 74.21875 
Q 42.1875 74.21875 48.1875 64.796875 
Q 54.203125 55.375 54.203125 36.375 
Q 54.203125 17.4375 48.1875 8 
Q 42.1875 -1.421875 30.078125 -1.421875 
Q 18.015625 -1.421875 12 8.03125 
Q 6 17.484375 6 36.375 
z
" id="DejaVuSansMono-Bold-30"/>
     </defs>
     <g style="fill:#ffffff;" transform="translate(268.884863 325.156122)scale(0.06 -0.06)">
      <use xlink:href="#DejaVuSansMono-Bold-30"/>
     </g>
    </g>
   </g>
   <g id="text_20">
    <g clip-path="url(#pc5dd69735b)">
     <!-- 1 -->
     <defs>
      <path d="M 9.1875 12.703125 
L 25.296875 12.703125 
L 25.296875 60.015625 
L 10.296875 56.296875 
L 10.296875 69.28125 
L 25.390625 72.90625 
L 39.3125 72.90625 
L 39.3125 12.703125 
L 55.421875 12.703125 
L 55.421875 0 
L 9.1875 0 
z
" id="DejaVuSansMono-Bold-31"/>
     </defs>
     <g style="fill:#ffffff;" transform="translate(180.496514 330.773477)scale(0.06 -0.06)">
      <use xlink:href="#DejaVuSansMono-Bold-31"/>
     </g>
    </g>
   </g>
   <g id="text_21">
    <g clip-path="url(#pc5dd69735b)">
     <!-- 2 -->
     <defs>
      <path d="M 21.1875 12.703125 
L 51.90625 12.703125 
L 51.90625 0 
L 5.609375 0 
L 5.609375 12.3125 
L 13.421875 20.609375 
Q 27.34375 35.40625 30.328125 38.8125 
Q 33.984375 43.015625 35.59375 46.265625 
Q 37.203125 49.515625 37.203125 52.6875 
Q 37.203125 57.5625 34.25 60.21875 
Q 31.296875 62.890625 25.875 62.890625 
Q 22.015625 62.890625 17.203125 61.34375 
Q 12.40625 59.8125 7.171875 56.890625 
L 7.171875 70.3125 
Q 12.40625 72.21875 17.40625 73.21875 
Q 22.40625 74.21875 27 74.21875 
Q 38.578125 74.21875 45.1875 68.8125 
Q 51.8125 63.421875 51.8125 54.109375 
Q 51.8125 49.8125 50.359375 46.046875 
Q 48.921875 42.28125 45.40625 37.703125 
Q 42.828125 34.375 31.203125 22.75 
Q 24.90625 16.453125 21.1875 12.703125 
z
" id="DejaVuSansMono-Bold-32"/>
     </defs>
     <g style="fill:#ffffff;" transform="translate(231.489792 80.545833)scale(0.06 -0.06)">
      <use xlink:href="#DejaVuSansMono-Bold-32"/>
     </g>
    </g>
   </g>
   <g id="text_22">
    <g clip-path="url(#pc5dd69735b)">
     <!-- 3 -->
     <defs>
      <path d="M 26.8125 32.625 
L 19.09375 32.625 
L 19.09375 45.3125 
L 26.8125 45.3125 
Q 32.171875 45.3125 35.125 47.4375 
Q 38.09375 49.5625 38.09375 53.421875 
Q 38.09375 57.46875 35.125 59.734375 
Q 32.171875 62.015625 26.8125 62.015625 
Q 22.703125 62.015625 18.015625 60.984375 
Q 13.328125 59.96875 8.296875 58.015625 
L 8.296875 71.09375 
Q 13.328125 72.609375 18.203125 73.40625 
Q 23.09375 74.21875 27.59375 74.21875 
Q 39.109375 74.21875 45.546875 69.1875 
Q 52 64.15625 52 55.328125 
Q 52 48.828125 48.28125 44.703125 
Q 44.578125 40.578125 37.703125 39.3125 
Q 45.515625 37.9375 49.609375 33.078125 
Q 53.71875 28.21875 53.71875 20.3125 
Q 53.71875 9.71875 46.921875 4.140625 
Q 40.140625 -1.421875 27.203125 -1.421875 
Q 21.6875 -1.421875 16.328125 -0.484375 
Q 10.984375 0.4375 6.109375 2.203125 
L 6.109375 15.578125 
Q 10.6875 13.28125 16.015625 12.078125 
Q 21.34375 10.890625 27.203125 10.890625 
Q 33.0625 10.890625 36.46875 13.59375 
Q 39.890625 16.3125 39.890625 20.90625 
Q 39.890625 26.515625 36.46875 29.5625 
Q 33.0625 32.625 26.8125 32.625 
z
" id="DejaVuSansMono-Bold-33"/>
     </defs>
     <g style="fill:#ffffff;" transform="translate(196.927681 68.800454)scale(0.06 -0.06)">
      <use xlink:href="#DejaVuSansMono-Bold-33"/>
     </g>
    </g>
   </g>
   <g id="text_23">
    <g clip-path="url(#pc5dd69735b)">
     <!-- 4 -->
     <defs>
      <path d="M 33.890625 56.890625 
L 15.484375 28.078125 
L 33.890625 28.078125 
z
M 32.625 72.90625 
L 47.703125 72.90625 
L 47.703125 28.078125 
L 55.71875 28.078125 
L 55.71875 15.71875 
L 47.703125 15.71875 
L 47.703125 0 
L 33.890625 0 
L 33.890625 15.71875 
L 4.984375 15.71875 
L 4.984375 29.6875 
z
" id="DejaVuSansMono-Bold-34"/>
     </defs>
     <g style="fill:#ffffff;" transform="translate(151.03373 65.225773)scale(0.06 -0.06)">
      <use xlink:href="#DejaVuSansMono-Bold-34"/>
     </g>
    </g>
   </g>
   <g id="text_24">
    <g clip-path="url(#pc5dd69735b)">
     <!-- 5 -->
     <defs>
      <path d="M 9.421875 72.90625 
L 49.03125 72.90625 
L 49.03125 60.203125 
L 21.09375 60.203125 
L 21.09375 46.6875 
Q 22.859375 47.359375 24.859375 47.671875 
Q 26.859375 48 29.109375 48 
Q 39.9375 48 46.671875 41.15625 
Q 53.421875 34.328125 53.421875 23.390625 
Q 53.421875 11.921875 46.109375 5.25 
Q 38.8125 -1.421875 26.21875 -1.421875 
Q 21.53125 -1.421875 16.75 -0.640625 
Q 11.96875 0.140625 6.984375 1.703125 
L 6.984375 14.703125 
Q 11.03125 12.703125 15.296875 11.6875 
Q 19.578125 10.6875 23.875 10.6875 
Q 31.5 10.6875 35.453125 13.9375 
Q 39.40625 17.1875 39.40625 23.390625 
Q 39.40625 29.109375 35.46875 32.546875 
Q 31.546875 35.984375 25 35.984375 
Q 21.140625 35.984375 17.25 35.03125 
Q 13.375 34.078125 9.421875 32.171875 
z
" id="DejaVuSansMono-Bold-35"/>
     </defs>
     <g style="fill:#ffffff;" transform="translate(85.875652 310.857399)scale(0.06 -0.06)">
      <use xlink:href="#DejaVuSansMono-Bold-35"/>
     </g>
    </g>
   </g>
   <g id="text_25">
    <g clip-path="url(#pc5dd69735b)">
     <!-- 6 -->
     <defs>
      <path d="M 31.390625 36.53125 
Q 26.703125 36.53125 24.234375 33.125 
Q 21.78125 29.734375 21.78125 23.296875 
Q 21.78125 16.890625 24.234375 13.5 
Q 26.703125 10.109375 31.390625 10.109375 
Q 36.078125 10.109375 38.59375 13.5 
Q 41.109375 16.890625 41.109375 23.296875 
Q 41.109375 29.6875 38.59375 33.109375 
Q 36.078125 36.53125 31.390625 36.53125 
z
M 50.296875 71.1875 
L 50.296875 58.109375 
Q 46.4375 60.296875 42.890625 61.390625 
Q 39.359375 62.5 36.078125 62.5 
Q 28.265625 62.5 24.1875 57.25 
Q 20.125 52 19.921875 41.75 
Q 22.21875 44.921875 25.78125 46.5 
Q 29.34375 48.09375 34.1875 48.09375 
Q 44.046875 48.09375 49.40625 41.859375 
Q 54.78125 35.640625 54.78125 24.21875 
Q 54.78125 11.96875 48.75 5.21875 
Q 42.71875 -1.515625 31.78125 -1.515625 
Q 18.453125 -1.515625 12.421875 7.421875 
Q 6.390625 16.359375 6.390625 36.28125 
Q 6.390625 55.21875 13.765625 64.671875 
Q 21.140625 74.125 35.890625 74.125 
Q 39.3125 74.125 42.9375 73.390625 
Q 46.578125 72.65625 50.296875 71.1875 
z
" id="DejaVuSansMono-Bold-36"/>
     </defs>
     <g style="fill:#ffffff;" transform="translate(263.218944 117.824645)scale(0.06 -0.06)">
      <use xlink:href="#DejaVuSansMono-Bold-36"/>
     </g>
    </g>
   </g>
   <g id="text_26">
    <g clip-path="url(#pc5dd69735b)">
     <!-- 7 -->
     <defs>
      <path d="M 6.59375 72.90625 
L 52.6875 72.90625 
L 52.6875 62.703125 
L 27.984375 0 
L 13.28125 0 
L 37.015625 60.203125 
L 6.59375 60.203125 
z
" id="DejaVuSansMono-Bold-37"/>
     </defs>
     <g style="fill:#ffffff;" transform="translate(268.884863 260.81187)scale(0.06 -0.06)">
      <use xlink:href="#DejaVuSansMono-Bold-37"/>
     </g>
    </g>
   </g>
   <g id="text_27">
    <g clip-path="url(#pc5dd69735b)">
     <!-- 8 -->
     <defs>
      <path d="M 30.078125 32.515625 
Q 25.25 32.515625 22.265625 29.46875 
Q 19.28125 26.421875 19.28125 21.390625 
Q 19.28125 16.359375 22.265625 13.28125 
Q 25.25 10.203125 30.078125 10.203125 
Q 34.90625 10.203125 37.90625 13.328125 
Q 40.921875 16.453125 40.921875 21.390625 
Q 40.921875 26.421875 37.9375 29.46875 
Q 34.96875 32.515625 30.078125 32.515625 
z
M 19.390625 38.625 
Q 13.875 40.53125 10.984375 44.609375 
Q 8.109375 48.6875 8.109375 54.59375 
Q 8.109375 63.671875 14.015625 68.9375 
Q 19.921875 74.21875 30.078125 74.21875 
Q 40.28125 74.21875 46.1875 68.9375 
Q 52.09375 63.671875 52.09375 54.59375 
Q 52.09375 48.734375 49.265625 44.65625 
Q 46.4375 40.578125 41.015625 38.625 
Q 47.078125 36.765625 50.484375 31.984375 
Q 53.90625 27.203125 53.90625 20.515625 
Q 53.90625 10.015625 47.703125 4.296875 
Q 41.5 -1.421875 30.078125 -1.421875 
Q 18.703125 -1.421875 12.5 4.296875 
Q 6.296875 10.015625 6.296875 20.515625 
Q 6.296875 27.25 9.765625 32.03125 
Q 13.234375 36.8125 19.390625 38.625 
z
M 20.90625 53.421875 
Q 20.90625 49.125 23.359375 46.609375 
Q 25.828125 44.09375 30.078125 44.09375 
Q 34.375 44.09375 36.84375 46.609375 
Q 39.3125 49.125 39.3125 53.421875 
Q 39.3125 57.671875 36.84375 60.125 
Q 34.375 62.59375 30.078125 62.59375 
Q 25.875 62.59375 23.390625 60.109375 
Q 20.90625 57.625 20.90625 53.421875 
z
" id="DejaVuSansMono-Bold-38"/>
     </defs>
     <g style="fill:#ffffff;" transform="translate(149.333955 87.184525)scale(0.06 -0.06)">
      <use xlink:href="#DejaVuSansMono-Bold-38"/>
     </g>
    </g>
   </g>
   <g id="text_28">
    <g clip-path="url(#pc5dd69735b)">
     <!-- 9 -->
     <defs>
      <path d="M 9.90625 0.984375 
L 9.90625 14.109375 
Q 13.765625 11.859375 17.296875 10.78125 
Q 20.84375 9.71875 24.125 9.71875 
Q 31.890625 9.71875 35.96875 14.921875 
Q 40.046875 20.125 40.28125 30.46875 
Q 37.984375 27.296875 34.421875 25.703125 
Q 30.859375 24.125 25.984375 24.125 
Q 16.15625 24.125 10.78125 30.34375 
Q 5.421875 36.578125 5.421875 48 
Q 5.421875 60.203125 11.421875 66.890625 
Q 17.4375 73.578125 28.421875 73.578125 
Q 41.75 73.578125 47.78125 64.671875 
Q 53.8125 55.765625 53.8125 35.890625 
Q 53.8125 17 46.4375 7.546875 
Q 39.0625 -1.90625 24.3125 -1.90625 
Q 20.90625 -1.90625 17.265625 -1.171875 
Q 13.625 -0.4375 9.90625 0.984375 
z
M 28.8125 36.1875 
Q 33.453125 36.1875 35.90625 39.578125 
Q 38.375 42.96875 38.375 49.421875 
Q 38.375 55.8125 35.90625 59.203125 
Q 33.453125 62.59375 28.8125 62.59375 
Q 24.125 62.59375 21.609375 59.203125 
Q 19.09375 55.8125 19.09375 49.421875 
Q 19.09375 43.015625 21.609375 39.59375 
Q 24.125 36.1875 28.8125 36.1875 
z
" id="DejaVuSansMono-Bold-39"/>
     </defs>
     <g style="fill:#ffffff;" transform="translate(189.561985 90.759206)scale(0.06 -0.06)">
      <use xlink:href="#DejaVuSansMono-Bold-39"/>
     </g>
    </g>
   </g>
   <g id="text_29">
    <g clip-path="url(#pc5dd69735b)">
     <!-- 10 -->
     <g style="fill:#ffffff;" transform="translate(217.218675 103.525923)scale(0.06 -0.06)">
      <use xlink:href="#DejaVuSansMono-Bold-31"/>
      <use x="60.205078" xlink:href="#DejaVuSansMono-Bold-30"/>
     </g>
    </g>
   </g>
   <g id="text_30">
    <g clip-path="url(#pc5dd69735b)">
     <!-- 11 -->
     <g style="fill:#ffffff;" transform="translate(48.940855 238.853118)scale(0.06 -0.06)">
      <use xlink:href="#DejaVuSansMono-Bold-31"/>
      <use x="60.205078" xlink:href="#DejaVuSansMono-Bold-31"/>
     </g>
    </g>
   </g>
   <g id="text_31">
    <g clip-path="url(#pc5dd69735b)">
     <!-- 12 -->
     <g style="fill:#ffffff;" transform="translate(267.07877 172.976861)scale(0.06 -0.06)">
      <use xlink:href="#DejaVuSansMono-Bold-31"/>
      <use x="60.205078" xlink:href="#DejaVuSansMono-Bold-32"/>
     </g>
    </g>
   </g>
   <g id="text_32">
    <g clip-path="url(#pc5dd69735b)">
     <!-- 13 -->
     <g style="fill:#ffffff;" transform="translate(267.07877 212.809016)scale(0.06 -0.06)">
      <use xlink:href="#DejaVuSansMono-Bold-31"/>
      <use x="60.205078" xlink:href="#DejaVuSansMono-Bold-33"/>
     </g>
    </g>
   </g>
   <g id="text_33">
    <g clip-path="url(#pc5dd69735b)">
     <!-- 14 -->
     <g style="fill:#ffffff;" transform="translate(48.940855 196.467619)scale(0.06 -0.06)">
      <use xlink:href="#DejaVuSansMono-Bold-31"/>
      <use x="60.205078" xlink:href="#DejaVuSansMono-Bold-34"/>
     </g>
    </g>
   </g>
   <g id="text_34">
    <g clip-path="url(#pc5dd69735b)">
     <!-- 15 -->
     <g style="fill:#ffffff;" transform="translate(88.035702 128.548687)scale(0.06 -0.06)">
      <use xlink:href="#DejaVuSansMono-Bold-31"/>
      <use x="60.205078" xlink:href="#DejaVuSansMono-Bold-35"/>
     </g>
    </g>
   </g>
   <g id="text_35">
    <g clip-path="url(#pc5dd69735b)">
     <!-- 16 -->
     <g style="fill:#ffffff;" transform="translate(235.349618 148.464765)scale(0.06 -0.06)">
      <use xlink:href="#DejaVuSansMono-Bold-31"/>
      <use x="60.205078" xlink:href="#DejaVuSansMono-Bold-36"/>
     </g>
    </g>
   </g>
   <g id="text_36">
    <g clip-path="url(#pc5dd69735b)">
     <!-- 17 -->
     <g style="fill:#ffffff;" transform="translate(135.629429 119.86732)scale(0.06 -0.06)">
      <use xlink:href="#DejaVuSansMono-Bold-31"/>
      <use x="60.205078" xlink:href="#DejaVuSansMono-Bold-37"/>
     </g>
    </g>
   </g>
   <g id="text_37">
    <g clip-path="url(#pc5dd69735b)">
     <!-- c -->
     <defs>
      <path d="M 51.8125 2.78125 
Q 48.1875 0.6875 44.03125 -0.359375 
Q 39.890625 -1.421875 35.109375 -1.421875 
Q 22.46875 -1.421875 15.328125 6.1875 
Q 8.203125 13.8125 8.203125 27.296875 
Q 8.203125 40.828125 15.375 48.46875 
Q 22.5625 56.109375 35.203125 56.109375 
Q 39.59375 56.109375 43.671875 55.078125 
Q 47.75 54.046875 51.8125 51.90625 
L 51.8125 38.8125 
Q 48.6875 41.5 44.953125 42.9375 
Q 41.21875 44.390625 37.203125 44.390625 
Q 30.21875 44.390625 26.453125 39.9375 
Q 22.703125 35.5 22.703125 27.296875 
Q 22.703125 19.09375 26.453125 14.6875 
Q 30.21875 10.296875 37.203125 10.296875 
Q 41.359375 10.296875 44.96875 11.6875 
Q 48.578125 13.09375 51.8125 15.921875 
z
" id="DejaVuSansMono-Bold-63"/>
     </defs>
     <g style="fill:#ffffff;" transform="translate(159.815906 197.999625)scale(0.06 -0.06)">
      <use xlink:href="#DejaVuSansMono-Bold-63"/>
     </g>
    </g>
   </g>
  </g>
 </g>
 <defs>
  <clipPath id="pc5dd69735b">
   <rect height="299.376" width="244.404" x="39.42" y="46.656"/>
  </clipPath>
 </defs>
</svg>
