<?xml version="1.0" encoding="iso-8859-1"?>
<!-- Generator: Adobe Illustrator 19.0.0, SVG Export Plug-In . SVG Version: 6.00 Build 0)  -->
<svg version="1.1" id="Layer_1" xmlns="http://www.w3.org/2000/svg" xmlns:xlink="http://www.w3.org/1999/xlink" x="0px" y="0px"
	 width="460.997px" height="262.825px" viewBox="0 0 460.997 262.825" style="enable-background:new 0 0 460.997 262.825;"
	 xml:space="preserve">
<g id="XMLID_1112_">
	<polygon id="XMLID_1096_" style="fill:none;stroke:#2200C6;stroke-width:0.25;stroke-miterlimit:10;" points="343.458,69.123 
		306.86,141.335 325.813,188.651 376.427,206.95 438.09,185.191 	"/>
	<path id="XMLID_1086_" style="fill:none;stroke:#2200C6;stroke-width:0.5;stroke-miterlimit:10;" d="M306.86,141.335
		c0,9.672,1.645,18.522,4.944,26.541c3.298,8.027,7.965,14.954,14.009,20.775c6.043,5.828,13.355,10.334,21.928,13.517
		c8.573,3.191,18.138,4.782,28.686,4.782c11.648,0,22.697-1.753,33.138-5.274c10.441-3.514,19.952-9.011,28.525-16.485
		L343.458,69.123c-10.995,9.234-19.844,19.514-26.541,30.832C310.205,111.28,306.86,125.073,306.86,141.335z"/>
	<circle id="XMLID_1082_" style="fill:#2200C6;" cx="343.47" cy="69.123" r="1.723"/>
	<circle id="XMLID_1106_" style="fill:#2200C6;" cx="306.86" cy="141.099" r="1.723"/>
	<circle id="XMLID_1107_" style="fill:#2200C6;" cx="325.465" cy="188.705" r="1.723"/>
	<circle id="XMLID_1109_" style="fill:#2200C6;" cx="376.617" cy="206.95" r="1.723"/>
	<circle id="XMLID_1110_" style="fill:#2200C6;" cx="438.09" cy="185.26" r="1.723"/>
</g>
<g id="XMLID_1022_">
	<polygon id="XMLID_1099_" style="fill:none;stroke:#E000E2;stroke-width:0.25;stroke-miterlimit:10;" points="36.346,141.335 
		87.452,56.929 192.303,188.159 117.123,219.813 57.935,198.216 	"/>
	<path id="XMLID_1095_" style="fill:none;stroke:#E000E2;stroke-width:0.5;stroke-miterlimit:10;" d="M36.345,141.335
		c0,11.656,1.861,22.313,5.605,31.985c3.729,9.672,9.065,17.968,15.985,24.896c6.927,6.92,15.385,12.256,25.396,15.992
		c9.995,3.737,21.267,5.605,33.792,5.605c28.579,0,53.636-10.557,75.18-31.654L87.452,56.929
		c-7.481,5.059-14.347,10.441-20.613,16.154c-6.259,5.72-11.648,11.979-16.154,18.791c-4.506,6.82-8.027,14.293-10.549,22.42
		C37.606,122.436,36.345,131.44,36.345,141.335z"/>
	<circle id="XMLID_1032_" style="fill:#E000E2;" cx="87.455" cy="56.928" r="1.723"/>
	<circle id="XMLID_1100_" style="fill:#E000E2;" cx="36.345" cy="141.28" r="1.723"/>
	<circle id="XMLID_1102_" style="fill:#E000E2;" cx="57.961" cy="198.23" r="1.723"/>
	<circle id="XMLID_1103_" style="fill:#E000E2;" cx="117.436" cy="219.813" r="1.723"/>
	<circle id="XMLID_1104_" style="fill:#E000E2;" cx="192.303" cy="188.455" r="1.723"/>
</g>
</svg>
