<?xml version="1.0" encoding="utf-8" standalone="no"?>
<!DOCTYPE svg PUBLIC "-//W3C//DTD SVG 1.1//EN"
  "http://www.w3.org/Graphics/SVG/1.1/DTD/svg11.dtd">
<!-- Created with matplotlib (http://matplotlib.org/) -->
<svg height="345.6pt" version="1.1" viewBox="0 0 299.52 345.6" width="299.52pt" xmlns="http://www.w3.org/2000/svg" xmlns:xlink="http://www.w3.org/1999/xlink">
 <defs>
  <style type="text/css">
*{stroke-linecap:butt;stroke-linejoin:round;}
  </style>
 </defs>
 <g id="figure_1">
  <g id="patch_1">
   <path d="M 0 345.6 
L 299.52 345.6 
L 299.52 0 
L 0 0 
z
" style="fill:#ffffff;"/>
  </g>
  <g id="axes_1">
   <g id="LineCollection_1">
    <path clip-path="url(#p80cde70d6b)" d="M 153.504 174.528 
L 153.504 174.528 
" style="fill:none;stroke:#0000ff;"/>
    <path clip-path="url(#p80cde70d6b)" d="M 153.504 174.528 
L 257.094608 287.555997 
" style="fill:none;stroke:#0000ff;"/>
    <path clip-path="url(#p80cde70d6b)" d="M 153.504 174.528 
L 173.145855 292.549202 
" style="fill:none;stroke:#0000ff;"/>
    <path clip-path="url(#p80cde70d6b)" d="M 153.504 174.528 
L 83.27764 274.846021 
" style="fill:none;stroke:#0000ff;"/>
    <path clip-path="url(#p80cde70d6b)" d="M 153.504 174.528 
L 49.913392 210.842216 
" style="fill:none;stroke:#0000ff;"/>
    <path clip-path="url(#p80cde70d6b)" d="M 153.504 174.528 
L 49.913392 173.166217 
" style="fill:none;stroke:#0000ff;"/>
    <path clip-path="url(#p80cde70d6b)" d="M 153.504 174.528 
L 87.044571 112.793833 
" style="fill:none;stroke:#0000ff;"/>
    <path clip-path="url(#p80cde70d6b)" d="M 153.504 174.528 
L 132.247745 105.077062 
" style="fill:none;stroke:#0000ff;"/>
    <path clip-path="url(#p80cde70d6b)" d="M 153.504 174.528 
L 226.959158 130.497013 
" style="fill:none;stroke:#0000ff;"/>
    <path clip-path="url(#p80cde70d6b)" d="M 153.504 174.528 
L 209.738901 90.551376 
" style="fill:none;stroke:#0000ff;"/>
    <path clip-path="url(#p80cde70d6b)" d="M 153.504 174.528 
L 181.755984 79.203183 
" style="fill:none;stroke:#0000ff;"/>
    <path clip-path="url(#p80cde70d6b)" d="M 153.504 174.528 
L 143.548539 76.025689 
" style="fill:none;stroke:#0000ff;"/>
    <path clip-path="url(#p80cde70d6b)" d="M 153.504 174.528 
L 145.162938 56.506798 
" style="fill:none;stroke:#0000ff;"/>
    <path clip-path="url(#p80cde70d6b)" d="M 153.504 174.528 
L 188.751713 59.684292 
" style="fill:none;stroke:#0000ff;"/>
    <path clip-path="url(#p80cde70d6b)" d="M 153.504 174.528 
L 221.577828 70.124629 
" style="fill:none;stroke:#0000ff;"/>
    <path clip-path="url(#p80cde70d6b)" d="M 153.504 174.528 
L 251.713277 103.261351 
" style="fill:none;stroke:#0000ff;"/>
    <path clip-path="url(#p80cde70d6b)" d="M 153.504 174.528 
L 257.094608 152.285543 
" style="fill:none;stroke:#0000ff;"/>
    <path clip-path="url(#p80cde70d6b)" d="M 153.504 174.528 
L 257.094608 187.691903 
" style="fill:none;stroke:#0000ff;"/>
    <path clip-path="url(#p80cde70d6b)" d="M 153.504 174.528 
L 257.094608 230.361107 
" style="fill:none;stroke:#0000ff;"/>
   </g>
   <g id="patch_2">
    <path clip-path="url(#p80cde70d6b)" d="M 257.094608 287.555997 
C 218.34903 290.733491 190.366112 292.549202 173.145855 292.549202 
C 135.476544 292.549202 105.341094 286.648142 83.27764 274.846021 
C 61.214186 263.043901 49.913392 241.709299 49.913392 210.842216 
L 49.913392 173.166217 
C 49.913392 143.206989 62.290452 123.23417 87.044571 112.793833 
C 98.883498 107.800628 113.951223 105.077062 132.247745 105.077062 
C 166.150126 105.077062 203.281305 115.517399 226.959158 130.497013 
C 226.959158 113.701688 221.039695 100.537785 209.738901 90.551376 
C 203.819438 85.558171 194.133044 81.472822 181.755984 79.203183 
C 171.531456 76.933545 158.616264 76.025689 143.548539 76.025689 
L 145.162938 56.506798 
C 161.845062 56.506798 176.374654 57.414654 188.751713 59.684292 
C 202.205039 61.953931 212.967699 65.585352 221.577828 70.124629 
C 237.721819 79.657111 247.946346 90.551376 251.713277 103.261351 
C 255.480209 115.971327 257.094608 132.312724 257.094608 152.285543 
L 257.094608 187.691903 
L 257.094608 230.361107 
L 257.094608 287.555997 
" style="fill:none;stroke:#0000ff;stroke-linejoin:miter;stroke-width:0.4;"/>
   </g>
   <g id="text_1">
    <g id="patch_3">
     <path clip-path="url(#p80cde70d6b)" d="M 191.801717 228.219366 
L 212.426553 242.846846 
Q 214.13949 244.06169 215.354334 242.348753 
L 219.294984 236.792412 
Q 220.509828 235.079475 218.796891 233.864631 
L 198.172055 219.237151 
Q 196.459117 218.022307 195.244273 219.735244 
L 191.303624 225.291585 
Q 190.08878 227.004522 191.801717 228.219366 
z
" style="fill:#ffffff;stroke:#ffffff;stroke-linejoin:miter;"/>
    </g>
    <g clip-path="url(#p80cde70d6b)">
     <!-- 314.73 -->
     <defs>
      <path d="M 37.890625 39.015625 
Q 45.0625 37.109375 48.875 32.25 
Q 52.6875 27.390625 52.6875 20.125 
Q 52.6875 10.0625 45.921875 4.3125 
Q 39.15625 -1.421875 27.203125 -1.421875 
Q 22.171875 -1.421875 16.9375 -0.484375 
Q 11.71875 0.4375 6.6875 2.203125 
L 6.6875 12.015625 
Q 11.671875 9.421875 16.5 8.15625 
Q 21.34375 6.890625 26.125 6.890625 
Q 34.234375 6.890625 38.578125 10.546875 
Q 42.921875 14.203125 42.921875 21.09375 
Q 42.921875 27.4375 38.578125 31.171875 
Q 34.234375 34.90625 26.8125 34.90625 
L 19.28125 34.90625 
L 19.28125 43.015625 
L 26.8125 43.015625 
Q 33.59375 43.015625 37.40625 45.984375 
Q 41.21875 48.96875 41.21875 54.296875 
Q 41.21875 59.90625 37.671875 62.90625 
Q 34.125 65.921875 27.59375 65.921875 
Q 23.25 65.921875 18.609375 64.9375 
Q 13.96875 63.96875 8.890625 62.015625 
L 8.890625 71.09375 
Q 14.796875 72.65625 19.40625 73.4375 
Q 24.03125 74.21875 27.59375 74.21875 
Q 38.234375 74.21875 44.609375 68.875 
Q 50.984375 63.53125 50.984375 54.6875 
Q 50.984375 48.6875 47.625 44.671875 
Q 44.28125 40.671875 37.890625 39.015625 
z
" id="DejaVuSansMono-33"/>
      <path d="M 13.1875 8.296875 
L 28.515625 8.296875 
L 28.515625 64.015625 
L 12.015625 60.296875 
L 12.015625 69.28125 
L 28.421875 72.90625 
L 38.28125 72.90625 
L 38.28125 8.296875 
L 53.421875 8.296875 
L 53.421875 0 
L 13.1875 0 
z
" id="DejaVuSansMono-31"/>
      <path d="M 35.890625 63.921875 
L 12.890625 25.390625 
L 35.890625 25.390625 
z
M 34.28125 72.90625 
L 45.703125 72.90625 
L 45.703125 25.390625 
L 55.421875 25.390625 
L 55.421875 17.390625 
L 45.703125 17.390625 
L 45.703125 0 
L 35.890625 0 
L 35.890625 17.390625 
L 4.984375 17.390625 
L 4.984375 26.703125 
z
" id="DejaVuSansMono-34"/>
      <path d="M 23.875 14.890625 
L 36.1875 14.890625 
L 36.1875 0 
L 23.875 0 
z
" id="DejaVuSansMono-2e"/>
      <path d="M 6.78125 72.90625 
L 52.6875 72.90625 
L 52.6875 68.703125 
L 26.609375 0 
L 16.3125 0 
L 41.703125 64.59375 
L 6.78125 64.59375 
z
" id="DejaVuSansMono-37"/>
     </defs>
     <g transform="translate(193.858726 225.318971)rotate(-324.655094)scale(0.07 -0.07)">
      <use xlink:href="#DejaVuSansMono-33"/>
      <use x="60.205078" xlink:href="#DejaVuSansMono-31"/>
      <use x="120.410156" xlink:href="#DejaVuSansMono-34"/>
      <use x="180.615234" xlink:href="#DejaVuSansMono-2e"/>
      <use x="240.820312" xlink:href="#DejaVuSansMono-37"/>
      <use x="301.025391" xlink:href="#DejaVuSansMono-33"/>
     </g>
    </g>
   </g>
   <g id="text_2">
    <g id="patch_4">
     <path clip-path="url(#p80cde70d6b)" d="M 154.855173 222.656718 
L 161.126929 247.151863 
Q 161.647812 249.186238 163.682187 248.665355 
L 170.28119 246.975741 
Q 172.315565 246.454858 171.794682 244.420483 
L 165.522926 219.925339 
Q 165.002043 217.890964 162.967669 218.411847 
L 156.368665 220.101461 
Q 154.33429 220.622344 154.855173 222.656718 
z
" style="fill:#ffffff;stroke:#ffffff;stroke-linejoin:miter;"/>
    </g>
    <g clip-path="url(#p80cde70d6b)">
     <!-- 262.55 -->
     <defs>
      <path d="M 18.21875 8.296875 
L 51.703125 8.296875 
L 51.703125 0 
L 7.421875 0 
L 7.421875 8.296875 
Q 16.546875 17.921875 23.375 25.296875 
Q 30.21875 32.671875 32.8125 35.6875 
Q 37.703125 41.65625 39.40625 45.34375 
Q 41.109375 49.03125 41.109375 52.875 
Q 41.109375 58.984375 37.515625 62.453125 
Q 33.9375 65.921875 27.6875 65.921875 
Q 23.25 65.921875 18.359375 64.3125 
Q 13.484375 62.703125 8.015625 59.421875 
L 8.015625 69.390625 
Q 13.03125 71.78125 17.890625 73 
Q 22.75 74.21875 27.484375 74.21875 
Q 38.1875 74.21875 44.703125 68.53125 
Q 51.21875 62.84375 51.21875 53.609375 
Q 51.21875 48.921875 49.046875 44.234375 
Q 46.875 39.546875 42 33.890625 
Q 39.265625 30.71875 34.0625 25.09375 
Q 28.859375 19.484375 18.21875 8.296875 
z
" id="DejaVuSansMono-32"/>
      <path d="M 48.390625 71.296875 
L 48.390625 62.203125 
Q 45.3125 64.015625 41.84375 64.96875 
Q 38.375 65.921875 34.625 65.921875 
Q 25.25 65.921875 20.40625 58.859375 
Q 15.578125 51.8125 15.578125 38.09375 
Q 17.921875 42.96875 22.0625 45.578125 
Q 26.21875 48.1875 31.59375 48.1875 
Q 42.140625 48.1875 47.921875 41.71875 
Q 53.71875 35.25 53.71875 23.390625 
Q 53.71875 11.578125 47.75 5.078125 
Q 41.796875 -1.421875 31 -1.421875 
Q 18.3125 -1.421875 12.40625 7.6875 
Q 6.5 16.796875 6.5 36.375 
Q 6.5 54.828125 13.59375 64.515625 
Q 20.703125 74.21875 34.1875 74.21875 
Q 37.796875 74.21875 41.40625 73.453125 
Q 45.015625 72.703125 48.390625 71.296875 
z
M 30.8125 40.484375 
Q 24.515625 40.484375 20.890625 35.9375 
Q 17.28125 31.390625 17.28125 23.390625 
Q 17.28125 15.375 20.890625 10.828125 
Q 24.515625 6.296875 30.8125 6.296875 
Q 37.359375 6.296875 40.671875 10.609375 
Q 44 14.9375 44 23.390625 
Q 44 31.890625 40.671875 36.1875 
Q 37.359375 40.484375 30.8125 40.484375 
z
" id="DejaVuSansMono-36"/>
      <path d="M 10.109375 72.90625 
L 47.015625 72.90625 
L 47.015625 64.59375 
L 19.09375 64.59375 
L 19.09375 46.6875 
Q 21.1875 47.46875 23.3125 47.828125 
Q 25.4375 48.1875 27.59375 48.1875 
Q 38.921875 48.1875 45.5625 41.5 
Q 52.203125 34.8125 52.203125 23.390625 
Q 52.203125 11.859375 45.234375 5.21875 
Q 38.28125 -1.421875 26.21875 -1.421875 
Q 20.40625 -1.421875 15.59375 -0.640625 
Q 10.796875 0.140625 6.984375 1.703125 
L 6.984375 11.71875 
Q 11.46875 9.28125 16.015625 8.078125 
Q 20.5625 6.890625 25.296875 6.890625 
Q 33.453125 6.890625 37.859375 11.1875 
Q 42.28125 15.484375 42.28125 23.390625 
Q 42.28125 31.203125 37.71875 35.546875 
Q 33.15625 39.890625 25 39.890625 
Q 21.046875 39.890625 17.28125 38.984375 
Q 13.53125 38.09375 10.109375 36.28125 
z
" id="DejaVuSansMono-35"/>
     </defs>
     <g transform="translate(158.299836 221.774744)rotate(-284.361529)scale(0.07 -0.07)">
      <use xlink:href="#DejaVuSansMono-32"/>
      <use x="60.205078" xlink:href="#DejaVuSansMono-36"/>
      <use x="120.410156" xlink:href="#DejaVuSansMono-32"/>
      <use x="180.615234" xlink:href="#DejaVuSansMono-2e"/>
      <use x="240.820312" xlink:href="#DejaVuSansMono-35"/>
      <use x="301.025391" xlink:href="#DejaVuSansMono-35"/>
     </g>
    </g>
   </g>
   <g id="text_3">
    <g id="patch_5">
     <path clip-path="url(#p80cde70d6b)" d="M 182.474518 135.151436 
L 200.381749 117.299878 
Q 201.868983 115.817267 200.386372 114.330033 
L 195.577154 109.505817 
Q 194.094544 108.018583 192.607309 109.501193 
L 174.700079 127.352751 
Q 173.212845 128.835362 174.695455 130.322596 
L 179.504674 135.146812 
Q 180.987284 136.634047 182.474518 135.151436 
z
" style="fill:#ffffff;stroke:#ffffff;stroke-linejoin:miter;"/>
    </g>
    <g clip-path="url(#p80cde70d6b)">
     <!-- 262.49 -->
     <defs>
      <path d="M 29.109375 32.328125 
Q 35.40625 32.328125 38.984375 36.859375 
Q 42.578125 41.40625 42.578125 49.421875 
Q 42.578125 57.421875 38.984375 61.953125 
Q 35.40625 66.5 29.109375 66.5 
Q 22.5625 66.5 19.234375 62.171875 
Q 15.921875 57.859375 15.921875 49.421875 
Q 15.921875 40.921875 19.21875 36.625 
Q 22.515625 32.328125 29.109375 32.328125 
z
M 11.53125 1.515625 
L 11.53125 10.59375 
Q 14.59375 8.796875 18.0625 7.84375 
Q 21.53125 6.890625 25.296875 6.890625 
Q 34.671875 6.890625 39.46875 13.9375 
Q 44.28125 21 44.28125 34.71875 
Q 42 29.828125 37.84375 27.21875 
Q 33.6875 24.609375 28.328125 24.609375 
Q 17.78125 24.609375 11.984375 31.09375 
Q 6.203125 37.59375 6.203125 49.515625 
Q 6.203125 61.28125 12.125 67.75 
Q 18.0625 74.21875 28.90625 74.21875 
Q 41.609375 74.21875 47.515625 65.078125 
Q 53.421875 55.953125 53.421875 36.375 
Q 53.421875 17.96875 46.3125 8.265625 
Q 39.203125 -1.421875 25.6875 -1.421875 
Q 22.125 -1.421875 18.5 -0.65625 
Q 14.890625 0.09375 11.53125 1.515625 
z
" id="DejaVuSansMono-39"/>
     </defs>
     <g transform="translate(179.964119 132.633208)rotate(-44.910797)scale(0.07 -0.07)">
      <use xlink:href="#DejaVuSansMono-32"/>
      <use x="60.205078" xlink:href="#DejaVuSansMono-36"/>
      <use x="120.410156" xlink:href="#DejaVuSansMono-32"/>
      <use x="180.615234" xlink:href="#DejaVuSansMono-2e"/>
      <use x="240.820312" xlink:href="#DejaVuSansMono-34"/>
      <use x="301.025391" xlink:href="#DejaVuSansMono-39"/>
     </g>
    </g>
   </g>
   <g id="text_4">
    <g id="patch_6">
     <path clip-path="url(#p80cde70d6b)" d="M 170.708541 130.889334 
L 181.504796 108.024779 
Q 182.401448 106.125828 180.502498 105.229175 
L 174.342776 102.320659 
Q 172.443825 101.424007 171.547172 103.322958 
L 160.750917 126.187513 
Q 159.854265 128.086464 161.753216 128.983117 
L 167.912938 131.891633 
Q 169.811889 132.788285 170.708541 130.889334 
z
" style="fill:#ffffff;stroke:#ffffff;stroke-linejoin:miter;"/>
    </g>
    <g clip-path="url(#p80cde70d6b)">
     <!-- 261.34 -->
     <g transform="translate(167.493182 129.371096)rotate(-64.724114)scale(0.07 -0.07)">
      <use xlink:href="#DejaVuSansMono-32"/>
      <use x="60.205078" xlink:href="#DejaVuSansMono-36"/>
      <use x="120.410156" xlink:href="#DejaVuSansMono-31"/>
      <use x="180.615234" xlink:href="#DejaVuSansMono-2e"/>
      <use x="240.820312" xlink:href="#DejaVuSansMono-33"/>
      <use x="301.025391" xlink:href="#DejaVuSansMono-34"/>
     </g>
    </g>
   </g>
   <g id="text_5">
    <g id="patch_7">
     <path clip-path="url(#p80cde70d6b)" d="M 142.493215 103.543969 
L 145.226369 128.681131 
Q 145.453363 130.768827 147.541059 130.541832 
L 154.313022 129.805519 
Q 156.400718 129.578525 156.173723 127.490829 
L 153.440569 102.353667 
Q 153.213575 100.265972 151.125879 100.492966 
L 144.353916 101.229279 
Q 142.26622 101.456273 142.493215 103.543969 
z
" style="fill:#ffffff;stroke:#ffffff;stroke-linejoin:miter;"/>
    </g>
    <g clip-path="url(#p80cde70d6b)">
     <!-- 260.46 -->
     <defs>
      <path d="M 23.578125 36.625 
Q 23.578125 39.3125 25.453125 41.265625 
Q 27.34375 43.21875 29.984375 43.21875 
Q 32.71875 43.21875 34.671875 41.265625 
Q 36.625 39.3125 36.625 36.625 
Q 36.625 33.890625 34.6875 31.984375 
Q 32.765625 30.078125 29.984375 30.078125 
Q 27.25 30.078125 25.40625 31.9375 
Q 23.578125 33.796875 23.578125 36.625 
z
M 30.078125 66.40625 
Q 23.1875 66.40625 19.796875 58.984375 
Q 16.40625 51.5625 16.40625 36.375 
Q 16.40625 21.234375 19.796875 13.8125 
Q 23.1875 6.390625 30.078125 6.390625 
Q 37.015625 6.390625 40.40625 13.8125 
Q 43.796875 21.234375 43.796875 36.375 
Q 43.796875 51.5625 40.40625 58.984375 
Q 37.015625 66.40625 30.078125 66.40625 
z
M 30.078125 74.21875 
Q 41.75 74.21875 47.734375 64.640625 
Q 53.71875 55.078125 53.71875 36.375 
Q 53.71875 17.71875 47.734375 8.140625 
Q 41.75 -1.421875 30.078125 -1.421875 
Q 18.40625 -1.421875 12.453125 8.140625 
Q 6.5 17.71875 6.5 36.375 
Q 6.5 55.078125 12.453125 64.640625 
Q 18.40625 74.21875 30.078125 74.21875 
z
" id="DejaVuSansMono-30"/>
     </defs>
     <g transform="translate(146.028162 103.159616)rotate(-276.205372)scale(0.07 -0.07)">
      <use xlink:href="#DejaVuSansMono-32"/>
      <use x="60.205078" xlink:href="#DejaVuSansMono-36"/>
      <use x="120.410156" xlink:href="#DejaVuSansMono-30"/>
      <use x="180.615234" xlink:href="#DejaVuSansMono-2e"/>
      <use x="240.820312" xlink:href="#DejaVuSansMono-34"/>
      <use x="301.025391" xlink:href="#DejaVuSansMono-36"/>
     </g>
    </g>
   </g>
   <g id="text_6">
    <g id="patch_8">
     <path clip-path="url(#p80cde70d6b)" d="M 112.872549 237.324289 
L 131.401919 220.119363 
Q 132.940823 218.690456 131.511917 217.151552 
L 126.876902 212.159731 
Q 125.447995 210.620827 123.909091 212.049733 
L 105.379721 229.254659 
Q 103.840817 230.683565 105.269723 232.22247 
L 109.904738 237.214291 
Q 111.333645 238.753195 112.872549 237.324289 
z
" style="fill:#ffffff;stroke:#ffffff;stroke-linejoin:miter;"/>
    </g>
    <g clip-path="url(#p80cde70d6b)">
     <!-- 256.65 -->
     <g transform="translate(110.453083 234.718571)rotate(-42.87738)scale(0.07 -0.07)">
      <use xlink:href="#DejaVuSansMono-32"/>
      <use x="60.205078" xlink:href="#DejaVuSansMono-35"/>
      <use x="120.410156" xlink:href="#DejaVuSansMono-36"/>
      <use x="180.615234" xlink:href="#DejaVuSansMono-2e"/>
      <use x="240.820312" xlink:href="#DejaVuSansMono-36"/>
      <use x="301.025391" xlink:href="#DejaVuSansMono-35"/>
     </g>
    </g>
   </g>
   <g id="text_7">
    <g id="patch_9">
     <path clip-path="url(#p80cde70d6b)" d="M 193.523 149.267876 
L 216.391998 138.481034 
Q 218.291318 137.585163 217.395448 135.685843 
L 214.489467 129.524925 
Q 213.593597 127.625605 211.694277 128.521475 
L 188.825279 139.308317 
Q 186.925959 140.204188 187.82183 142.103508 
L 190.72781 148.264427 
Q 191.623681 150.163746 193.523 149.267876 
z
" style="fill:#ffffff;stroke:#ffffff;stroke-linejoin:miter;"/>
    </g>
    <g clip-path="url(#p80cde70d6b)">
     <!-- 240.74 -->
     <g transform="translate(192.006086 146.051892)rotate(-25.2523)scale(0.07 -0.07)">
      <use xlink:href="#DejaVuSansMono-32"/>
      <use x="60.205078" xlink:href="#DejaVuSansMono-34"/>
      <use x="120.410156" xlink:href="#DejaVuSansMono-30"/>
      <use x="180.615234" xlink:href="#DejaVuSansMono-2e"/>
      <use x="240.820312" xlink:href="#DejaVuSansMono-37"/>
      <use x="301.025391" xlink:href="#DejaVuSansMono-34"/>
     </g>
    </g>
   </g>
   <g id="text_8">
    <g id="patch_10">
     <path clip-path="url(#p80cde70d6b)" d="M 191.547234 203.460756 
L 215.410486 211.820912 
Q 217.392381 212.515241 218.08671 210.533346 
L 220.33894 204.104575 
Q 221.033269 202.12268 219.051374 201.428351 
L 195.188122 193.068195 
Q 193.206227 192.373866 192.511898 194.355761 
L 190.259668 200.784532 
Q 189.565339 202.766427 191.547234 203.460756 
z
" style="fill:#ffffff;stroke:#ffffff;stroke-linejoin:miter;"/>
    </g>
    <g clip-path="url(#p80cde70d6b)">
     <!-- 228.44 -->
     <defs>
      <path d="M 30.078125 34.625 
Q 23.484375 34.625 19.890625 30.9375 
Q 16.3125 27.25 16.3125 20.515625 
Q 16.3125 13.765625 19.9375 10.03125 
Q 23.578125 6.296875 30.078125 6.296875 
Q 36.71875 6.296875 40.296875 9.984375 
Q 43.890625 13.671875 43.890625 20.515625 
Q 43.890625 27.203125 40.25 30.90625 
Q 36.625 34.625 30.078125 34.625 
z
M 21.484375 38.71875 
Q 15.1875 40.328125 11.640625 44.71875 
Q 8.109375 49.125 8.109375 55.328125 
Q 8.109375 64.015625 14.015625 69.109375 
Q 19.921875 74.21875 30.078125 74.21875 
Q 40.28125 74.21875 46.1875 69.109375 
Q 52.09375 64.015625 52.09375 55.328125 
Q 52.09375 49.125 48.546875 44.71875 
Q 45.015625 40.328125 38.71875 38.71875 
Q 46.046875 37.109375 49.921875 32.21875 
Q 53.8125 27.34375 53.8125 19.578125 
Q 53.8125 9.71875 47.515625 4.140625 
Q 41.21875 -1.421875 30.078125 -1.421875 
Q 18.953125 -1.421875 12.671875 4.125 
Q 6.390625 9.671875 6.390625 19.484375 
Q 6.390625 27.296875 10.265625 32.203125 
Q 14.15625 37.109375 21.484375 38.71875 
z
M 17.921875 54.390625 
Q 17.921875 48.53125 21.046875 45.453125 
Q 24.171875 42.390625 30.078125 42.390625 
Q 36.03125 42.390625 39.15625 45.453125 
Q 42.28125 48.53125 42.28125 54.390625 
Q 42.28125 60.359375 39.171875 63.484375 
Q 36.078125 66.609375 30.078125 66.609375 
Q 24.171875 66.609375 21.046875 63.453125 
Q 17.921875 60.296875 17.921875 54.390625 
z
" id="DejaVuSansMono-38"/>
     </defs>
     <g transform="translate(192.722892 200.104954)rotate(-340.692805)scale(0.07 -0.07)">
      <use xlink:href="#DejaVuSansMono-32"/>
      <use x="60.205078" xlink:href="#DejaVuSansMono-32"/>
      <use x="120.410156" xlink:href="#DejaVuSansMono-38"/>
      <use x="180.615234" xlink:href="#DejaVuSansMono-2e"/>
      <use x="240.820312" xlink:href="#DejaVuSansMono-34"/>
      <use x="301.025391" xlink:href="#DejaVuSansMono-34"/>
     </g>
    </g>
   </g>
   <g id="text_9">
    <g id="patch_11">
     <path clip-path="url(#p80cde70d6b)" d="M 141.143246 113.630254 
L 145.028169 138.615338 
Q 145.35082 140.690403 147.425886 140.367752 
L 154.156879 139.321152 
Q 156.231944 138.998501 155.909293 136.923435 
L 152.02437 111.938352 
Q 151.701719 109.863286 149.626653 110.185938 
L 142.89566 111.232538 
Q 140.820595 111.555189 141.143246 113.630254 
z
" style="fill:#ffffff;stroke:#ffffff;stroke-linejoin:miter;"/>
    </g>
    <g clip-path="url(#p80cde70d6b)">
     <!-- 217.79 -->
     <g transform="translate(144.656807 113.083932)rotate(-278.83813)scale(0.07 -0.07)">
      <use xlink:href="#DejaVuSansMono-32"/>
      <use x="60.205078" xlink:href="#DejaVuSansMono-31"/>
      <use x="120.410156" xlink:href="#DejaVuSansMono-37"/>
      <use x="180.615234" xlink:href="#DejaVuSansMono-2e"/>
      <use x="240.820312" xlink:href="#DejaVuSansMono-37"/>
      <use x="301.025391" xlink:href="#DejaVuSansMono-39"/>
     </g>
    </g>
   </g>
   <g id="text_10">
    <g id="patch_12">
     <path clip-path="url(#p80cde70d6b)" d="M 167.394655 140.653148 
L 177.884813 117.646549 
Q 178.756044 115.735801 176.845296 114.864571 
L 170.647307 112.038517 
Q 168.736559 111.167287 167.865329 113.078035 
L 157.375171 136.084634 
Q 156.50394 137.995382 158.414688 138.866612 
L 164.612677 141.692666 
Q 166.523425 142.563896 167.394655 140.653148 
z
" style="fill:#ffffff;stroke:#ffffff;stroke-linejoin:miter;"/>
    </g>
    <g clip-path="url(#p80cde70d6b)">
     <!-- 216.46 -->
     <g transform="translate(164.159321 139.177956)rotate(-65.488769)scale(0.07 -0.07)">
      <use xlink:href="#DejaVuSansMono-32"/>
      <use x="60.205078" xlink:href="#DejaVuSansMono-31"/>
      <use x="120.410156" xlink:href="#DejaVuSansMono-36"/>
      <use x="180.615234" xlink:href="#DejaVuSansMono-2e"/>
      <use x="240.820312" xlink:href="#DejaVuSansMono-34"/>
      <use x="301.025391" xlink:href="#DejaVuSansMono-36"/>
     </g>
    </g>
   </g>
   <g id="text_11">
    <g id="patch_13">
     <path clip-path="url(#p80cde70d6b)" d="M 176.384527 145.296127 
L 194.528154 127.684886 
Q 196.035022 126.222234 194.57237 124.715367 
L 189.827894 119.827465 
Q 188.365242 118.320597 186.858374 119.783249 
L 168.714747 137.39449 
Q 167.207879 138.857142 168.670531 140.364009 
L 173.415008 145.251911 
Q 174.877659 146.758778 176.384527 145.296127 
z
" style="fill:#ffffff;stroke:#ffffff;stroke-linejoin:miter;"/>
    </g>
    <g clip-path="url(#p80cde70d6b)">
     <!-- 212.47 -->
     <g transform="translate(173.907922 142.744655)rotate(-44.146934)scale(0.07 -0.07)">
      <use xlink:href="#DejaVuSansMono-32"/>
      <use x="60.205078" xlink:href="#DejaVuSansMono-31"/>
      <use x="120.410156" xlink:href="#DejaVuSansMono-32"/>
      <use x="180.615234" xlink:href="#DejaVuSansMono-2e"/>
      <use x="240.820312" xlink:href="#DejaVuSansMono-34"/>
      <use x="301.025391" xlink:href="#DejaVuSansMono-37"/>
     </g>
    </g>
   </g>
   <g id="text_12">
    <g id="patch_14">
     <path clip-path="url(#p80cde70d6b)" d="M 90.605229 200.862218 
L 115.258631 195.244673 
Q 117.306149 194.778124 116.8396 192.730606 
L 115.326231 186.088968 
Q 114.859682 184.041449 112.812163 184.507998 
L 88.158761 190.125543 
Q 86.111243 190.592092 86.577792 192.63961 
L 88.091161 199.281248 
Q 88.557711 201.328767 90.605229 200.862218 
z
" style="fill:#ffffff;stroke:#ffffff;stroke-linejoin:miter;"/>
    </g>
    <g clip-path="url(#p80cde70d6b)">
     <!-- 208.46 -->
     <g transform="translate(89.815254 197.3953)rotate(-12.836302)scale(0.07 -0.07)">
      <use xlink:href="#DejaVuSansMono-32"/>
      <use x="60.205078" xlink:href="#DejaVuSansMono-30"/>
      <use x="120.410156" xlink:href="#DejaVuSansMono-38"/>
      <use x="180.615234" xlink:href="#DejaVuSansMono-2e"/>
      <use x="240.820312" xlink:href="#DejaVuSansMono-34"/>
      <use x="301.025391" xlink:href="#DejaVuSansMono-36"/>
     </g>
    </g>
   </g>
   <g id="text_13">
    <g id="patch_15">
     <path clip-path="url(#p80cde70d6b)" d="M 193.539065 170.607388 
L 218.58166 167.112325 
Q 220.661502 166.822052 220.371229 164.74221 
L 219.429657 157.995724 
Q 219.139385 155.915882 217.059543 156.206154 
L 192.016948 159.701218 
Q 189.937106 159.991491 190.227379 162.071332 
L 191.16895 168.817819 
Q 191.459223 170.897661 193.539065 170.607388 
z
" style="fill:#ffffff;stroke:#ffffff;stroke-linejoin:miter;"/>
    </g>
    <g clip-path="url(#p80cde70d6b)">
     <!-- 198.64 -->
     <g transform="translate(193.047567 167.08574)rotate(-7.945151)scale(0.07 -0.07)">
      <use xlink:href="#DejaVuSansMono-31"/>
      <use x="60.205078" xlink:href="#DejaVuSansMono-39"/>
      <use x="120.410156" xlink:href="#DejaVuSansMono-38"/>
      <use x="180.615234" xlink:href="#DejaVuSansMono-2e"/>
      <use x="240.820312" xlink:href="#DejaVuSansMono-36"/>
      <use x="301.025391" xlink:href="#DejaVuSansMono-34"/>
     </g>
    </g>
   </g>
   <g id="text_14">
    <g id="patch_16">
     <path clip-path="url(#p80cde70d6b)" d="M 192.246312 185.556469 
L 217.445807 187.637935 
Q 219.538679 187.810806 219.71155 185.717933 
L 220.272298 178.929178 
Q 220.445168 176.836305 218.352295 176.663435 
L 193.152801 174.581968 
Q 191.059928 174.409098 190.887058 176.50197 
L 190.32631 183.290726 
Q 190.15344 185.383598 192.246312 185.556469 
z
" style="fill:#ffffff;stroke:#ffffff;stroke-linejoin:miter;"/>
    </g>
    <g clip-path="url(#p80cde70d6b)">
     <!-- 194.67 -->
     <g transform="translate(192.539021 182.012756)rotate(-355.278114)scale(0.07 -0.07)">
      <use xlink:href="#DejaVuSansMono-31"/>
      <use x="60.205078" xlink:href="#DejaVuSansMono-39"/>
      <use x="120.410156" xlink:href="#DejaVuSansMono-34"/>
      <use x="180.615234" xlink:href="#DejaVuSansMono-2e"/>
      <use x="240.820312" xlink:href="#DejaVuSansMono-36"/>
      <use x="301.025391" xlink:href="#DejaVuSansMono-37"/>
     </g>
    </g>
   </g>
   <g id="text_15">
    <g id="patch_17">
     <path clip-path="url(#p80cde70d6b)" d="M 89.019456 179.24482 
L 114.303846 179.46087 
Q 116.403769 179.478813 116.421712 177.37889 
L 116.479916 170.567264 
Q 116.49786 168.46734 114.397936 168.449397 
L 89.113547 168.233347 
Q 87.013623 168.215404 86.99568 170.315327 
L 86.937476 177.126953 
Q 86.919533 179.226877 89.019456 179.24482 
z
" style="fill:#ffffff;stroke:#ffffff;stroke-linejoin:miter;"/>
    </g>
    <g clip-path="url(#p80cde70d6b)">
     <!-- 192.52 -->
     <g transform="translate(89.049838 175.689169)rotate(-359.510432)scale(0.07 -0.07)">
      <use xlink:href="#DejaVuSansMono-31"/>
      <use x="60.205078" xlink:href="#DejaVuSansMono-39"/>
      <use x="120.410156" xlink:href="#DejaVuSansMono-32"/>
      <use x="180.615234" xlink:href="#DejaVuSansMono-2e"/>
      <use x="240.820312" xlink:href="#DejaVuSansMono-35"/>
      <use x="301.025391" xlink:href="#DejaVuSansMono-32"/>
     </g>
    </g>
   </g>
   <g id="text_16">
    <g id="patch_18">
     <path clip-path="url(#p80cde70d6b)" d="M 106.605523 141.839641 
L 128.251271 154.909019 
Q 130.048997 155.994459 131.134437 154.196733 
L 134.655334 148.365359 
Q 135.740774 146.567632 133.943048 145.482192 
L 112.2973 132.412814 
Q 110.499574 131.327374 109.414134 133.1251 
L 105.893237 138.956474 
Q 104.807797 140.754201 106.605523 141.839641 
z
" style="fill:#ffffff;stroke:#ffffff;stroke-linejoin:miter;"/>
    </g>
    <g clip-path="url(#p80cde70d6b)">
     <!-- 183.71 -->
     <g transform="translate(108.443422 138.795678)rotate(-328.877049)scale(0.07 -0.07)">
      <use xlink:href="#DejaVuSansMono-31"/>
      <use x="60.205078" xlink:href="#DejaVuSansMono-38"/>
      <use x="120.410156" xlink:href="#DejaVuSansMono-33"/>
      <use x="180.615234" xlink:href="#DejaVuSansMono-2e"/>
      <use x="240.820312" xlink:href="#DejaVuSansMono-37"/>
      <use x="301.025391" xlink:href="#DejaVuSansMono-31"/>
     </g>
    </g>
   </g>
   <g id="text_17">
    <g id="patch_19">
     <path clip-path="url(#p80cde70d6b)" d="M 180.450403 162.232624 
L 204.01055 153.052946 
Q 205.967271 152.290554 205.204879 150.333832 
L 202.731869 143.986718 
Q 201.969477 142.029997 200.012756 142.792389 
L 176.452609 151.972067 
Q 174.495887 152.734459 175.258279 154.691181 
L 177.731289 161.038295 
Q 178.493681 162.995017 180.450403 162.232624 
z
" style="fill:#ffffff;stroke:#ffffff;stroke-linejoin:miter;"/>
    </g>
    <g clip-path="url(#p80cde70d6b)">
     <!-- 167.46 -->
     <g transform="translate(179.159498 158.919447)rotate(-21.28725)scale(0.07 -0.07)">
      <use xlink:href="#DejaVuSansMono-31"/>
      <use x="60.205078" xlink:href="#DejaVuSansMono-36"/>
      <use x="120.410156" xlink:href="#DejaVuSansMono-37"/>
      <use x="180.615234" xlink:href="#DejaVuSansMono-2e"/>
      <use x="240.820312" xlink:href="#DejaVuSansMono-34"/>
      <use x="301.025391" xlink:href="#DejaVuSansMono-36"/>
     </g>
    </g>
   </g>
   <g id="text_18">
    <g id="patch_20">
     <path clip-path="url(#p80cde70d6b)" d="M 132.508741 130.709969 
L 143.280312 153.586164 
Q 144.174914 155.486081 146.074832 154.591479 
L 152.237689 151.689613 
Q 154.137607 150.79501 153.243005 148.895093 
L 142.471434 126.018898 
Q 141.576831 124.118981 139.676914 125.013583 
L 133.514056 127.915449 
Q 131.614139 128.810052 132.508741 130.709969 
z
" style="fill:#ffffff;stroke:#ffffff;stroke-linejoin:miter;"/>
    </g>
    <g clip-path="url(#p80cde70d6b)">
     <!-- 158.02 -->
     <g transform="translate(135.725737 129.195202)rotate(-295.214047)scale(0.07 -0.07)">
      <use xlink:href="#DejaVuSansMono-31"/>
      <use x="60.205078" xlink:href="#DejaVuSansMono-35"/>
      <use x="120.410156" xlink:href="#DejaVuSansMono-38"/>
      <use x="180.615234" xlink:href="#DejaVuSansMono-2e"/>
      <use x="240.820312" xlink:href="#DejaVuSansMono-30"/>
      <use x="301.025391" xlink:href="#DejaVuSansMono-32"/>
     </g>
    </g>
   </g>
   <g id="PathCollection_1">
    <path clip-path="url(#p80cde70d6b)" d="M 153.504 178.7113 
C 154.613424 178.7113 155.677559 178.270521 156.46204 177.48604 
C 157.246521 176.701559 157.6873 175.637424 157.6873 174.528 
C 157.6873 173.418576 157.246521 172.354441 156.46204 171.56996 
C 155.677559 170.785479 154.613424 170.3447 153.504 170.3447 
C 152.394576 170.3447 151.330441 170.785479 150.54596 171.56996 
C 149.761479 172.354441 149.3207 173.418576 149.3207 174.528 
C 149.3207 175.637424 149.761479 176.701559 150.54596 177.48604 
C 151.330441 178.270521 152.394576 178.7113 153.504 178.7113 
z
" style="fill:#0000ff;stroke:#0000ff;"/>
    <path clip-path="url(#p80cde70d6b)" d="M 257.094608 291.739297 
C 258.204032 291.739297 259.268166 291.298518 260.052648 290.514037 
C 260.837129 289.729556 261.277908 288.665421 261.277908 287.555997 
C 261.277908 286.446573 260.837129 285.382439 260.052648 284.597957 
C 259.268166 283.813476 258.204032 283.372697 257.094608 283.372697 
C 255.985184 283.372697 254.921049 283.813476 254.136568 284.597957 
C 253.352086 285.382439 252.911308 286.446573 252.911308 287.555997 
C 252.911308 288.665421 253.352086 289.729556 254.136568 290.514037 
C 254.921049 291.298518 255.985184 291.739297 257.094608 291.739297 
z
" style="fill:#0000ff;stroke:#0000ff;"/>
    <path clip-path="url(#p80cde70d6b)" d="M 173.145855 296.732502 
C 174.25528 296.732502 175.319414 296.291723 176.103895 295.507242 
C 176.888377 294.72276 177.329156 293.658626 177.329156 292.549202 
C 177.329156 291.439778 176.888377 290.375643 176.103895 289.591162 
C 175.319414 288.80668 174.25528 288.365902 173.145855 288.365902 
C 172.036431 288.365902 170.972297 288.80668 170.187816 289.591162 
C 169.403334 290.375643 168.962555 291.439778 168.962555 292.549202 
C 168.962555 293.658626 169.403334 294.72276 170.187816 295.507242 
C 170.972297 296.291723 172.036431 296.732502 173.145855 296.732502 
z
" style="fill:#0000ff;stroke:#0000ff;"/>
    <path clip-path="url(#p80cde70d6b)" d="M 83.27764 279.029322 
C 84.387064 279.029322 85.451199 278.588543 86.23568 277.804061 
C 87.020161 277.01958 87.46094 275.955446 87.46094 274.846021 
C 87.46094 273.736597 87.020161 272.672463 86.23568 271.887982 
C 85.451199 271.1035 84.387064 270.662721 83.27764 270.662721 
C 82.168216 270.662721 81.104081 271.1035 80.3196 271.887982 
C 79.535119 272.672463 79.09434 273.736597 79.09434 274.846021 
C 79.09434 275.955446 79.535119 277.01958 80.3196 277.804061 
C 81.104081 278.588543 82.168216 279.029322 83.27764 279.029322 
z
" style="fill:#0000ff;stroke:#0000ff;"/>
    <path clip-path="url(#p80cde70d6b)" d="M 49.913392 215.025516 
C 51.022816 215.025516 52.086951 214.584737 52.871432 213.800256 
C 53.655914 213.015774 54.096692 211.95164 54.096692 210.842216 
C 54.096692 209.732792 53.655914 208.668657 52.871432 207.884176 
C 52.086951 207.099695 51.022816 206.658916 49.913392 206.658916 
C 48.803968 206.658916 47.739834 207.099695 46.955352 207.884176 
C 46.170871 208.668657 45.730092 209.732792 45.730092 210.842216 
C 45.730092 211.95164 46.170871 213.015774 46.955352 213.800256 
C 47.739834 214.584737 48.803968 215.025516 49.913392 215.025516 
z
" style="fill:#0000ff;stroke:#0000ff;"/>
    <path clip-path="url(#p80cde70d6b)" d="M 49.913392 177.349517 
C 51.022816 177.349517 52.086951 176.908738 52.871432 176.124257 
C 53.655914 175.339775 54.096692 174.275641 54.096692 173.166217 
C 54.096692 172.056793 53.655914 170.992658 52.871432 170.208177 
C 52.086951 169.423696 51.022816 168.982917 49.913392 168.982917 
C 48.803968 168.982917 47.739834 169.423696 46.955352 170.208177 
C 46.170871 170.992658 45.730092 172.056793 45.730092 173.166217 
C 45.730092 174.275641 46.170871 175.339775 46.955352 176.124257 
C 47.739834 176.908738 48.803968 177.349517 49.913392 177.349517 
z
" style="fill:#0000ff;stroke:#0000ff;"/>
    <path clip-path="url(#p80cde70d6b)" d="M 87.044571 116.977133 
C 88.153995 116.977133 89.21813 116.536354 90.002611 115.751873 
C 90.787092 114.967391 91.227871 113.903257 91.227871 112.793833 
C 91.227871 111.684409 90.787092 110.620274 90.002611 109.835793 
C 89.21813 109.051312 88.153995 108.610533 87.044571 108.610533 
C 85.935147 108.610533 84.871013 109.051312 84.086531 109.835793 
C 83.30205 110.620274 82.861271 111.684409 82.861271 112.793833 
C 82.861271 113.903257 83.30205 114.967391 84.086531 115.751873 
C 84.871013 116.536354 85.935147 116.977133 87.044571 116.977133 
z
" style="fill:#0000ff;stroke:#0000ff;"/>
    <path clip-path="url(#p80cde70d6b)" d="M 132.247745 109.260362 
C 133.35717 109.260362 134.421304 108.819583 135.205785 108.035102 
C 135.990267 107.250621 136.431046 106.186486 136.431046 105.077062 
C 136.431046 103.967638 135.990267 102.903504 135.205785 102.119022 
C 134.421304 101.334541 133.35717 100.893762 132.247745 100.893762 
C 131.138321 100.893762 130.074187 101.334541 129.289706 102.119022 
C 128.505224 102.903504 128.064445 103.967638 128.064445 105.077062 
C 128.064445 106.186486 128.505224 107.250621 129.289706 108.035102 
C 130.074187 108.819583 131.138321 109.260362 132.247745 109.260362 
z
" style="fill:#0000ff;stroke:#0000ff;"/>
    <path clip-path="url(#p80cde70d6b)" d="M 226.959158 134.680313 
C 228.068582 134.680313 229.132717 134.239534 229.917198 133.455053 
C 230.701679 132.670572 231.142458 131.606437 231.142458 130.497013 
C 231.142458 129.387589 230.701679 128.323455 229.917198 127.538973 
C 229.132717 126.754492 228.068582 126.313713 226.959158 126.313713 
C 225.849734 126.313713 224.7856 126.754492 224.001118 127.538973 
C 223.216637 128.323455 222.775858 129.387589 222.775858 130.497013 
C 222.775858 131.606437 223.216637 132.670572 224.001118 133.455053 
C 224.7856 134.239534 225.849734 134.680313 226.959158 134.680313 
z
" style="fill:#0000ff;stroke:#0000ff;"/>
    <path clip-path="url(#p80cde70d6b)" d="M 209.738901 94.734676 
C 210.848325 94.734676 211.91246 94.293897 212.696941 93.509416 
C 213.481423 92.724934 213.922201 91.6608 213.922201 90.551376 
C 213.922201 89.441952 213.481423 88.377817 212.696941 87.593336 
C 211.91246 86.808854 210.848325 86.368076 209.738901 86.368076 
C 208.629477 86.368076 207.565343 86.808854 206.780861 87.593336 
C 205.99638 88.377817 205.555601 89.441952 205.555601 90.551376 
C 205.555601 91.6608 205.99638 92.724934 206.780861 93.509416 
C 207.565343 94.293897 208.629477 94.734676 209.738901 94.734676 
z
" style="fill:#0000ff;stroke:#0000ff;"/>
    <path clip-path="url(#p80cde70d6b)" d="M 181.755984 83.386483 
C 182.865408 83.386483 183.929542 82.945704 184.714024 82.161223 
C 185.498505 81.376742 185.939284 80.312607 185.939284 79.203183 
C 185.939284 78.093759 185.498505 77.029625 184.714024 76.245143 
C 183.929542 75.460662 182.865408 75.019883 181.755984 75.019883 
C 180.64656 75.019883 179.582425 75.460662 178.797944 76.245143 
C 178.013463 77.029625 177.572684 78.093759 177.572684 79.203183 
C 177.572684 80.312607 178.013463 81.376742 178.797944 82.161223 
C 179.582425 82.945704 180.64656 83.386483 181.755984 83.386483 
z
" style="fill:#0000ff;stroke:#0000ff;"/>
    <path clip-path="url(#p80cde70d6b)" d="M 143.548539 80.208989 
C 144.657963 80.208989 145.722098 79.768211 146.506579 78.983729 
C 147.29106 78.199248 147.731839 77.135113 147.731839 76.025689 
C 147.731839 74.916265 147.29106 73.852131 146.506579 73.067649 
C 145.722098 72.283168 144.657963 71.842389 143.548539 71.842389 
C 142.439115 71.842389 141.37498 72.283168 140.590499 73.067649 
C 139.806018 73.852131 139.365239 74.916265 139.365239 76.025689 
C 139.365239 77.135113 139.806018 78.199248 140.590499 78.983729 
C 141.37498 79.768211 142.439115 80.208989 143.548539 80.208989 
z
" style="fill:#0000ff;stroke:#0000ff;"/>
    <path clip-path="url(#p80cde70d6b)" d="M 145.162938 60.690098 
C 146.272362 60.690098 147.336497 60.24932 148.120978 59.464838 
C 148.905459 58.680357 149.346238 57.616222 149.346238 56.506798 
C 149.346238 55.397374 148.905459 54.33324 148.120978 53.548758 
C 147.336497 52.764277 146.272362 52.323498 145.162938 52.323498 
C 144.053514 52.323498 142.98938 52.764277 142.204898 53.548758 
C 141.420417 54.33324 140.979638 55.397374 140.979638 56.506798 
C 140.979638 57.616222 141.420417 58.680357 142.204898 59.464838 
C 142.98938 60.24932 144.053514 60.690098 145.162938 60.690098 
z
" style="fill:#0000ff;stroke:#0000ff;"/>
    <path clip-path="url(#p80cde70d6b)" d="M 188.751713 63.867592 
C 189.861137 63.867592 190.925272 63.426813 191.709753 62.642332 
C 192.494234 61.857851 192.935013 60.793716 192.935013 59.684292 
C 192.935013 58.574868 192.494234 57.510734 191.709753 56.726252 
C 190.925272 55.941771 189.861137 55.500992 188.751713 55.500992 
C 187.642289 55.500992 186.578155 55.941771 185.793673 56.726252 
C 185.009192 57.510734 184.568413 58.574868 184.568413 59.684292 
C 184.568413 60.793716 185.009192 61.857851 185.793673 62.642332 
C 186.578155 63.426813 187.642289 63.867592 188.751713 63.867592 
z
" style="fill:#0000ff;stroke:#0000ff;"/>
    <path clip-path="url(#p80cde70d6b)" d="M 221.577828 74.307929 
C 222.687252 74.307929 223.751386 73.86715 224.535868 73.082669 
C 225.320349 72.298188 225.761128 71.234053 225.761128 70.124629 
C 225.761128 69.015205 225.320349 67.951071 224.535868 67.166589 
C 223.751386 66.382108 222.687252 65.941329 221.577828 65.941329 
C 220.468404 65.941329 219.404269 66.382108 218.619788 67.166589 
C 217.835307 67.951071 217.394528 69.015205 217.394528 70.124629 
C 217.394528 71.234053 217.835307 72.298188 218.619788 73.082669 
C 219.404269 73.86715 220.468404 74.307929 221.577828 74.307929 
z
" style="fill:#0000ff;stroke:#0000ff;"/>
    <path clip-path="url(#p80cde70d6b)" d="M 251.713277 107.444651 
C 252.822702 107.444651 253.886836 107.003873 254.671317 106.219391 
C 255.455799 105.43491 255.896578 104.370775 255.896578 103.261351 
C 255.896578 102.151927 255.455799 101.087793 254.671317 100.303311 
C 253.886836 99.51883 252.822702 99.078051 251.713277 99.078051 
C 250.603853 99.078051 249.539719 99.51883 248.755238 100.303311 
C 247.970756 101.087793 247.529977 102.151927 247.529977 103.261351 
C 247.529977 104.370775 247.970756 105.43491 248.755238 106.219391 
C 249.539719 107.003873 250.603853 107.444651 251.713277 107.444651 
z
" style="fill:#0000ff;stroke:#0000ff;"/>
    <path clip-path="url(#p80cde70d6b)" d="M 257.094608 156.468843 
C 258.204032 156.468843 259.268166 156.028064 260.052648 155.243583 
C 260.837129 154.459101 261.277908 153.394967 261.277908 152.285543 
C 261.277908 151.176119 260.837129 150.111984 260.052648 149.327503 
C 259.268166 148.543022 258.204032 148.102243 257.094608 148.102243 
C 255.985184 148.102243 254.921049 148.543022 254.136568 149.327503 
C 253.352086 150.111984 252.911308 151.176119 252.911308 152.285543 
C 252.911308 153.394967 253.352086 154.459101 254.136568 155.243583 
C 254.921049 156.028064 255.985184 156.468843 257.094608 156.468843 
z
" style="fill:#0000ff;stroke:#0000ff;"/>
    <path clip-path="url(#p80cde70d6b)" d="M 257.094608 191.875203 
C 258.204032 191.875203 259.268166 191.434425 260.052648 190.649943 
C 260.837129 189.865462 261.277908 188.801327 261.277908 187.691903 
C 261.277908 186.582479 260.837129 185.518345 260.052648 184.733863 
C 259.268166 183.949382 258.204032 183.508603 257.094608 183.508603 
C 255.985184 183.508603 254.921049 183.949382 254.136568 184.733863 
C 253.352086 185.518345 252.911308 186.582479 252.911308 187.691903 
C 252.911308 188.801327 253.352086 189.865462 254.136568 190.649943 
C 254.921049 191.434425 255.985184 191.875203 257.094608 191.875203 
z
" style="fill:#0000ff;stroke:#0000ff;"/>
    <path clip-path="url(#p80cde70d6b)" d="M 257.094608 234.544407 
C 258.204032 234.544407 259.268166 234.103628 260.052648 233.319147 
C 260.837129 232.534666 261.277908 231.470531 261.277908 230.361107 
C 261.277908 229.251683 260.837129 228.187548 260.052648 227.403067 
C 259.268166 226.618586 258.204032 226.177807 257.094608 226.177807 
C 255.985184 226.177807 254.921049 226.618586 254.136568 227.403067 
C 253.352086 228.187548 252.911308 229.251683 252.911308 230.361107 
C 252.911308 231.470531 253.352086 232.534666 254.136568 233.319147 
C 254.921049 234.103628 255.985184 234.544407 257.094608 234.544407 
z
" style="fill:#0000ff;stroke:#0000ff;"/>
   </g>
   <g id="line2d_1">
    <path clip-path="url(#p80cde70d6b)" d="M 257.094608 287.555997 
L 173.145855 292.549202 
L 83.27764 274.846021 
L 49.913392 210.842216 
L 49.913392 173.166217 
L 87.044571 112.793833 
L 132.247745 105.077062 
L 226.959158 130.497013 
L 209.738901 90.551376 
L 181.755984 79.203183 
L 143.548539 76.025689 
L 145.162938 56.506798 
L 188.751713 59.684292 
L 221.577828 70.124629 
L 251.713277 103.261351 
L 257.094608 152.285543 
L 257.094608 187.691903 
L 257.094608 230.361107 
" style="fill:none;stroke:#0000ff;stroke-linecap:square;stroke-width:0.2;"/>
   </g>
   <g id="text_19">
    <g clip-path="url(#p80cde70d6b)">
     <!-- C -->
     <defs>
      <path d="M 52.78125 2.09375 
Q 49.359375 0.34375 45.59375 -0.53125 
Q 41.84375 -1.421875 37.703125 -1.421875 
Q 22.953125 -1.421875 15.1875 8.296875 
Q 7.421875 18.015625 7.421875 36.375 
Q 7.421875 54.78125 15.1875 64.5 
Q 22.953125 74.21875 37.703125 74.21875 
Q 41.84375 74.21875 45.65625 73.34375 
Q 49.46875 72.46875 52.78125 70.703125 
L 52.78125 54.6875 
Q 49.078125 58.109375 45.578125 59.6875 
Q 42.09375 61.28125 38.375 61.28125 
Q 30.46875 61.28125 26.4375 55 
Q 22.40625 48.734375 22.40625 36.375 
Q 22.40625 24.078125 26.4375 17.796875 
Q 30.46875 11.53125 38.375 11.53125 
Q 42.09375 11.53125 45.578125 13.109375 
Q 49.078125 14.703125 52.78125 18.109375 
z
" id="DejaVuSansMono-Bold-43"/>
     </defs>
     <g style="fill:#ffffff;" transform="translate(151.697906 176.183625)scale(0.06 -0.06)">
      <use xlink:href="#DejaVuSansMono-Bold-43"/>
     </g>
    </g>
   </g>
   <g id="text_20">
    <g clip-path="url(#p80cde70d6b)">
     <!-- 0 -->
     <defs>
      <path d="M 24.03125 36.375 
Q 24.03125 38.96875 25.78125 40.71875 
Q 27.546875 42.484375 30.078125 42.484375 
Q 32.671875 42.484375 34.421875 40.71875 
Q 36.1875 38.96875 36.1875 36.375 
Q 36.1875 33.84375 34.421875 32.078125 
Q 32.671875 30.328125 30.078125 30.328125 
Q 27.546875 30.328125 25.78125 32.0625 
Q 24.03125 33.796875 24.03125 36.375 
z
M 30.078125 62.015625 
Q 25.09375 62.015625 22.796875 55.90625 
Q 20.515625 49.8125 20.515625 36.375 
Q 20.515625 23 22.796875 16.890625 
Q 25.09375 10.796875 30.078125 10.796875 
Q 35.109375 10.796875 37.40625 16.890625 
Q 39.703125 23 39.703125 36.375 
Q 39.703125 49.8125 37.40625 55.90625 
Q 35.109375 62.015625 30.078125 62.015625 
z
M 6 36.375 
Q 6 55.328125 12 64.765625 
Q 18.015625 74.21875 30.078125 74.21875 
Q 42.1875 74.21875 48.1875 64.796875 
Q 54.203125 55.375 54.203125 36.375 
Q 54.203125 17.4375 48.1875 8 
Q 42.1875 -1.421875 30.078125 -1.421875 
Q 18.015625 -1.421875 12 8.03125 
Q 6 17.484375 6 36.375 
z
" id="DejaVuSansMono-Bold-30"/>
     </defs>
     <g style="fill:#ffffff;" transform="translate(255.288514 289.211622)scale(0.06 -0.06)">
      <use xlink:href="#DejaVuSansMono-Bold-30"/>
     </g>
    </g>
   </g>
   <g id="text_21">
    <g clip-path="url(#p80cde70d6b)">
     <!-- 1 -->
     <defs>
      <path d="M 9.1875 12.703125 
L 25.296875 12.703125 
L 25.296875 60.015625 
L 10.296875 56.296875 
L 10.296875 69.28125 
L 25.390625 72.90625 
L 39.3125 72.90625 
L 39.3125 12.703125 
L 55.421875 12.703125 
L 55.421875 0 
L 9.1875 0 
z
" id="DejaVuSansMono-Bold-31"/>
     </defs>
     <g style="fill:#ffffff;" transform="translate(171.339762 294.204827)scale(0.06 -0.06)">
      <use xlink:href="#DejaVuSansMono-Bold-31"/>
     </g>
    </g>
   </g>
   <g id="text_22">
    <g clip-path="url(#p80cde70d6b)">
     <!-- 2 -->
     <defs>
      <path d="M 21.1875 12.703125 
L 51.90625 12.703125 
L 51.90625 0 
L 5.609375 0 
L 5.609375 12.3125 
L 13.421875 20.609375 
Q 27.34375 35.40625 30.328125 38.8125 
Q 33.984375 43.015625 35.59375 46.265625 
Q 37.203125 49.515625 37.203125 52.6875 
Q 37.203125 57.5625 34.25 60.21875 
Q 31.296875 62.890625 25.875 62.890625 
Q 22.015625 62.890625 17.203125 61.34375 
Q 12.40625 59.8125 7.171875 56.890625 
L 7.171875 70.3125 
Q 12.40625 72.21875 17.40625 73.21875 
Q 22.40625 74.21875 27 74.21875 
Q 38.578125 74.21875 45.1875 68.8125 
Q 51.8125 63.421875 51.8125 54.109375 
Q 51.8125 49.8125 50.359375 46.046875 
Q 48.921875 42.28125 45.40625 37.703125 
Q 42.828125 34.375 31.203125 22.75 
Q 24.90625 16.453125 21.1875 12.703125 
z
" id="DejaVuSansMono-Bold-32"/>
     </defs>
     <g style="fill:#ffffff;" transform="translate(81.471546 276.501646)scale(0.06 -0.06)">
      <use xlink:href="#DejaVuSansMono-Bold-32"/>
     </g>
    </g>
   </g>
   <g id="text_23">
    <g clip-path="url(#p80cde70d6b)">
     <!-- 3 -->
     <defs>
      <path d="M 26.8125 32.625 
L 19.09375 32.625 
L 19.09375 45.3125 
L 26.8125 45.3125 
Q 32.171875 45.3125 35.125 47.4375 
Q 38.09375 49.5625 38.09375 53.421875 
Q 38.09375 57.46875 35.125 59.734375 
Q 32.171875 62.015625 26.8125 62.015625 
Q 22.703125 62.015625 18.015625 60.984375 
Q 13.328125 59.96875 8.296875 58.015625 
L 8.296875 71.09375 
Q 13.328125 72.609375 18.203125 73.40625 
Q 23.09375 74.21875 27.59375 74.21875 
Q 39.109375 74.21875 45.546875 69.1875 
Q 52 64.15625 52 55.328125 
Q 52 48.828125 48.28125 44.703125 
Q 44.578125 40.578125 37.703125 39.3125 
Q 45.515625 37.9375 49.609375 33.078125 
Q 53.71875 28.21875 53.71875 20.3125 
Q 53.71875 9.71875 46.921875 4.140625 
Q 40.140625 -1.421875 27.203125 -1.421875 
Q 21.6875 -1.421875 16.328125 -0.484375 
Q 10.984375 0.4375 6.109375 2.203125 
L 6.109375 15.578125 
Q 10.6875 13.28125 16.015625 12.078125 
Q 21.34375 10.890625 27.203125 10.890625 
Q 33.0625 10.890625 36.46875 13.59375 
Q 39.890625 16.3125 39.890625 20.90625 
Q 39.890625 26.515625 36.46875 29.5625 
Q 33.0625 32.625 26.8125 32.625 
z
" id="DejaVuSansMono-Bold-33"/>
     </defs>
     <g style="fill:#ffffff;" transform="translate(48.107299 212.497841)scale(0.06 -0.06)">
      <use xlink:href="#DejaVuSansMono-Bold-33"/>
     </g>
    </g>
   </g>
   <g id="text_24">
    <g clip-path="url(#p80cde70d6b)">
     <!-- 4 -->
     <defs>
      <path d="M 33.890625 56.890625 
L 15.484375 28.078125 
L 33.890625 28.078125 
z
M 32.625 72.90625 
L 47.703125 72.90625 
L 47.703125 28.078125 
L 55.71875 28.078125 
L 55.71875 15.71875 
L 47.703125 15.71875 
L 47.703125 0 
L 33.890625 0 
L 33.890625 15.71875 
L 4.984375 15.71875 
L 4.984375 29.6875 
z
" id="DejaVuSansMono-Bold-34"/>
     </defs>
     <g style="fill:#ffffff;" transform="translate(48.107299 174.821842)scale(0.06 -0.06)">
      <use xlink:href="#DejaVuSansMono-Bold-34"/>
     </g>
    </g>
   </g>
   <g id="text_25">
    <g clip-path="url(#p80cde70d6b)">
     <!-- 5 -->
     <defs>
      <path d="M 9.421875 72.90625 
L 49.03125 72.90625 
L 49.03125 60.203125 
L 21.09375 60.203125 
L 21.09375 46.6875 
Q 22.859375 47.359375 24.859375 47.671875 
Q 26.859375 48 29.109375 48 
Q 39.9375 48 46.671875 41.15625 
Q 53.421875 34.328125 53.421875 23.390625 
Q 53.421875 11.921875 46.109375 5.25 
Q 38.8125 -1.421875 26.21875 -1.421875 
Q 21.53125 -1.421875 16.75 -0.640625 
Q 11.96875 0.140625 6.984375 1.703125 
L 6.984375 14.703125 
Q 11.03125 12.703125 15.296875 11.6875 
Q 19.578125 10.6875 23.875 10.6875 
Q 31.5 10.6875 35.453125 13.9375 
Q 39.40625 17.1875 39.40625 23.390625 
Q 39.40625 29.109375 35.46875 32.546875 
Q 31.546875 35.984375 25 35.984375 
Q 21.140625 35.984375 17.25 35.03125 
Q 13.375 34.078125 9.421875 32.171875 
z
" id="DejaVuSansMono-Bold-35"/>
     </defs>
     <g style="fill:#ffffff;" transform="translate(85.238477 114.449458)scale(0.06 -0.06)">
      <use xlink:href="#DejaVuSansMono-Bold-35"/>
     </g>
    </g>
   </g>
   <g id="text_26">
    <g clip-path="url(#p80cde70d6b)">
     <!-- 6 -->
     <defs>
      <path d="M 31.390625 36.53125 
Q 26.703125 36.53125 24.234375 33.125 
Q 21.78125 29.734375 21.78125 23.296875 
Q 21.78125 16.890625 24.234375 13.5 
Q 26.703125 10.109375 31.390625 10.109375 
Q 36.078125 10.109375 38.59375 13.5 
Q 41.109375 16.890625 41.109375 23.296875 
Q 41.109375 29.6875 38.59375 33.109375 
Q 36.078125 36.53125 31.390625 36.53125 
z
M 50.296875 71.1875 
L 50.296875 58.109375 
Q 46.4375 60.296875 42.890625 61.390625 
Q 39.359375 62.5 36.078125 62.5 
Q 28.265625 62.5 24.1875 57.25 
Q 20.125 52 19.921875 41.75 
Q 22.21875 44.921875 25.78125 46.5 
Q 29.34375 48.09375 34.1875 48.09375 
Q 44.046875 48.09375 49.40625 41.859375 
Q 54.78125 35.640625 54.78125 24.21875 
Q 54.78125 11.96875 48.75 5.21875 
Q 42.71875 -1.515625 31.78125 -1.515625 
Q 18.453125 -1.515625 12.421875 7.421875 
Q 6.390625 16.359375 6.390625 36.28125 
Q 6.390625 55.21875 13.765625 64.671875 
Q 21.140625 74.125 35.890625 74.125 
Q 39.3125 74.125 42.9375 73.390625 
Q 46.578125 72.65625 50.296875 71.1875 
z
" id="DejaVuSansMono-Bold-36"/>
     </defs>
     <g style="fill:#ffffff;" transform="translate(130.441652 106.732687)scale(0.06 -0.06)">
      <use xlink:href="#DejaVuSansMono-Bold-36"/>
     </g>
    </g>
   </g>
   <g id="text_27">
    <g clip-path="url(#p80cde70d6b)">
     <!-- 7 -->
     <defs>
      <path d="M 6.59375 72.90625 
L 52.6875 72.90625 
L 52.6875 62.703125 
L 27.984375 0 
L 13.28125 0 
L 37.015625 60.203125 
L 6.59375 60.203125 
z
" id="DejaVuSansMono-Bold-37"/>
     </defs>
     <g style="fill:#ffffff;" transform="translate(225.153064 132.152638)scale(0.06 -0.06)">
      <use xlink:href="#DejaVuSansMono-Bold-37"/>
     </g>
    </g>
   </g>
   <g id="text_28">
    <g clip-path="url(#p80cde70d6b)">
     <!-- 8 -->
     <defs>
      <path d="M 30.078125 32.515625 
Q 25.25 32.515625 22.265625 29.46875 
Q 19.28125 26.421875 19.28125 21.390625 
Q 19.28125 16.359375 22.265625 13.28125 
Q 25.25 10.203125 30.078125 10.203125 
Q 34.90625 10.203125 37.90625 13.328125 
Q 40.921875 16.453125 40.921875 21.390625 
Q 40.921875 26.421875 37.9375 29.46875 
Q 34.96875 32.515625 30.078125 32.515625 
z
M 19.390625 38.625 
Q 13.875 40.53125 10.984375 44.609375 
Q 8.109375 48.6875 8.109375 54.59375 
Q 8.109375 63.671875 14.015625 68.9375 
Q 19.921875 74.21875 30.078125 74.21875 
Q 40.28125 74.21875 46.1875 68.9375 
Q 52.09375 63.671875 52.09375 54.59375 
Q 52.09375 48.734375 49.265625 44.65625 
Q 46.4375 40.578125 41.015625 38.625 
Q 47.078125 36.765625 50.484375 31.984375 
Q 53.90625 27.203125 53.90625 20.515625 
Q 53.90625 10.015625 47.703125 4.296875 
Q 41.5 -1.421875 30.078125 -1.421875 
Q 18.703125 -1.421875 12.5 4.296875 
Q 6.296875 10.015625 6.296875 20.515625 
Q 6.296875 27.25 9.765625 32.03125 
Q 13.234375 36.8125 19.390625 38.625 
z
M 20.90625 53.421875 
Q 20.90625 49.125 23.359375 46.609375 
Q 25.828125 44.09375 30.078125 44.09375 
Q 34.375 44.09375 36.84375 46.609375 
Q 39.3125 49.125 39.3125 53.421875 
Q 39.3125 57.671875 36.84375 60.125 
Q 34.375 62.59375 30.078125 62.59375 
Q 25.875 62.59375 23.390625 60.109375 
Q 20.90625 57.625 20.90625 53.421875 
z
" id="DejaVuSansMono-Bold-38"/>
     </defs>
     <g style="fill:#ffffff;" transform="translate(207.932808 92.207001)scale(0.06 -0.06)">
      <use xlink:href="#DejaVuSansMono-Bold-38"/>
     </g>
    </g>
   </g>
   <g id="text_29">
    <g clip-path="url(#p80cde70d6b)">
     <!-- 9 -->
     <defs>
      <path d="M 9.90625 0.984375 
L 9.90625 14.109375 
Q 13.765625 11.859375 17.296875 10.78125 
Q 20.84375 9.71875 24.125 9.71875 
Q 31.890625 9.71875 35.96875 14.921875 
Q 40.046875 20.125 40.28125 30.46875 
Q 37.984375 27.296875 34.421875 25.703125 
Q 30.859375 24.125 25.984375 24.125 
Q 16.15625 24.125 10.78125 30.34375 
Q 5.421875 36.578125 5.421875 48 
Q 5.421875 60.203125 11.421875 66.890625 
Q 17.4375 73.578125 28.421875 73.578125 
Q 41.75 73.578125 47.78125 64.671875 
Q 53.8125 55.765625 53.8125 35.890625 
Q 53.8125 17 46.4375 7.546875 
Q 39.0625 -1.90625 24.3125 -1.90625 
Q 20.90625 -1.90625 17.265625 -1.171875 
Q 13.625 -0.4375 9.90625 0.984375 
z
M 28.8125 36.1875 
Q 33.453125 36.1875 35.90625 39.578125 
Q 38.375 42.96875 38.375 49.421875 
Q 38.375 55.8125 35.90625 59.203125 
Q 33.453125 62.59375 28.8125 62.59375 
Q 24.125 62.59375 21.609375 59.203125 
Q 19.09375 55.8125 19.09375 49.421875 
Q 19.09375 43.015625 21.609375 39.59375 
Q 24.125 36.1875 28.8125 36.1875 
z
" id="DejaVuSansMono-Bold-39"/>
     </defs>
     <g style="fill:#ffffff;" transform="translate(179.94989 80.858808)scale(0.06 -0.06)">
      <use xlink:href="#DejaVuSansMono-Bold-39"/>
     </g>
    </g>
   </g>
   <g id="text_30">
    <g clip-path="url(#p80cde70d6b)">
     <!-- 10 -->
     <g style="fill:#ffffff;" transform="translate(139.936352 77.681314)scale(0.06 -0.06)">
      <use xlink:href="#DejaVuSansMono-Bold-31"/>
      <use x="60.205078" xlink:href="#DejaVuSansMono-Bold-30"/>
     </g>
    </g>
   </g>
   <g id="text_31">
    <g clip-path="url(#p80cde70d6b)">
     <!-- 11 -->
     <g style="fill:#ffffff;" transform="translate(141.550751 58.162423)scale(0.06 -0.06)">
      <use xlink:href="#DejaVuSansMono-Bold-31"/>
      <use x="60.205078" xlink:href="#DejaVuSansMono-Bold-31"/>
     </g>
    </g>
   </g>
   <g id="text_32">
    <g clip-path="url(#p80cde70d6b)">
     <!-- 12 -->
     <g style="fill:#ffffff;" transform="translate(185.139526 61.339917)scale(0.06 -0.06)">
      <use xlink:href="#DejaVuSansMono-Bold-31"/>
      <use x="60.205078" xlink:href="#DejaVuSansMono-Bold-32"/>
     </g>
    </g>
   </g>
   <g id="text_33">
    <g clip-path="url(#p80cde70d6b)">
     <!-- 13 -->
     <g style="fill:#ffffff;" transform="translate(217.96564 71.780254)scale(0.06 -0.06)">
      <use xlink:href="#DejaVuSansMono-Bold-31"/>
      <use x="60.205078" xlink:href="#DejaVuSansMono-Bold-33"/>
     </g>
    </g>
   </g>
   <g id="text_34">
    <g clip-path="url(#p80cde70d6b)">
     <!-- 14 -->
     <g style="fill:#ffffff;" transform="translate(248.10109 104.916976)scale(0.06 -0.06)">
      <use xlink:href="#DejaVuSansMono-Bold-31"/>
      <use x="60.205078" xlink:href="#DejaVuSansMono-Bold-34"/>
     </g>
    </g>
   </g>
   <g id="text_35">
    <g clip-path="url(#p80cde70d6b)">
     <!-- 15 -->
     <g style="fill:#ffffff;" transform="translate(253.48242 153.941168)scale(0.06 -0.06)">
      <use xlink:href="#DejaVuSansMono-Bold-31"/>
      <use x="60.205078" xlink:href="#DejaVuSansMono-Bold-35"/>
     </g>
    </g>
   </g>
   <g id="text_36">
    <g clip-path="url(#p80cde70d6b)">
     <!-- 16 -->
     <g style="fill:#ffffff;" transform="translate(253.48242 189.347528)scale(0.06 -0.06)">
      <use xlink:href="#DejaVuSansMono-Bold-31"/>
      <use x="60.205078" xlink:href="#DejaVuSansMono-Bold-36"/>
     </g>
    </g>
   </g>
   <g id="text_37">
    <g clip-path="url(#p80cde70d6b)">
     <!-- 17 -->
     <g style="fill:#ffffff;" transform="translate(253.48242 232.016732)scale(0.06 -0.06)">
      <use xlink:href="#DejaVuSansMono-Bold-31"/>
      <use x="60.205078" xlink:href="#DejaVuSansMono-Bold-37"/>
     </g>
    </g>
   </g>
  </g>
 </g>
 <defs>
  <clipPath id="p80cde70d6b">
   <rect height="266.112" width="232.128" x="37.44" y="41.472"/>
  </clipPath>
 </defs>
</svg>
