<?xml version="1.0" encoding="utf-8"?>
<!-- Generator: Adobe Illustrator 19.0.0, SVG Export Plug-In . SVG Version: 6.00 Build 0)  -->
<svg version="1.1" id="Layer_1" xmlns="http://www.w3.org/2000/svg" xmlns:xlink="http://www.w3.org/1999/xlink" x="0px" y="0px"
	 width="661px" height="516.9px" viewBox="-61 181.4 661 516.9" style="enable-background:new -61 181.4 661 516.9;"
	 xml:space="preserve">
<style type="text/css">
	.st0{opacity:0.5;fill:none;stroke:#008000;stroke-width:0.8774;stroke-dasharray:2.0869;enable-background:new    ;}
	.st1{opacity:0.5;enable-background:new    ;}
	.st2{opacity:0.5;fill:#008000;stroke:#008000;stroke-width:0.8774;enable-background:new    ;}
	.st3{fill:none;stroke:#FF0000;stroke-width:1.0435;stroke-dasharray:2.0869;}
	.st4{fill:none;stroke:#0000FF;stroke-width:1.0435;stroke-dasharray:2.0869;}
	.st5{opacity:0.5;fill:none;stroke:#008000;stroke-width:0.8774;enable-background:new    ;}
	.st6{fill:none;stroke:#0000FF;stroke-width:1.0969;stroke-linecap:round;stroke-linejoin:round;}
	.st7{fill:none;stroke:#FF0000;stroke-width:1.0969;stroke-linecap:round;stroke-linejoin:round;}
	.st8{fill:#FF0000;}
	.st9{font-family:monospace;}
	.st10{font-size:20.0975px;}
	.st11{fill:#0000FF;}
	.st12{fill:#FFFFFF;stroke:#FF0000;stroke-width:1.7548;stroke-linejoin:round;}
	.st13{font-size:13.8959px;}
	.st14{fill:#FF0000;stroke:#FF0000;stroke-width:1.7548;stroke-linejoin:round;}
	.st15{fill:#FF0000;stroke:#FF0000;stroke-width:0.8774;}
	.st16{fill:#FFFFFF;}
	.st17{fill:#0000FF;stroke:#0000FF;stroke-width:4.1738;stroke-linejoin:round;}
	.st18{opacity:0.5;}
	.st19{fill:none;stroke:#FF0000;stroke-width:0.8774;}
	.st20{fill:none;stroke:#FF9100;stroke-width:0.8774;}
	.st21{opacity:0.5;fill:#008000;enable-background:new    ;}
	.st22{fill:#FF9100;}
	.st23{font-size:12.5215px;}
	.st24{fill:#FFFFFF;stroke:#008000;stroke-width:0.8774;enable-background:new    ;}
	.st25{font-size:15.2287px;}
</style>
<g id="New_Symbol_2">
	<g id="XMLID_1_">
		<path id="XMLID_99_" class="st0" d="M312.3,309c68,47.6-294.2,181.8-133.9,264"/>
		<g id="patch_18_1_" class="st1">
			<g id="XMLID_97_">
				<path id="XMLID_98_" class="st2" d="M294.1,553.9c9.2,0,17.9-3.6,24.4-10c6.5-6.4,10.1-15.1,10.1-24.1s-3.6-17.7-10.1-24.1
					c-6.5-6.4-15.3-10-24.4-10c-9.2,0-17.9,3.6-24.4,10c-6.5,6.4-10.1,15.1-10.1,24.1s3.6,17.7,10.1,24.1
					C276.2,550.3,284.9,553.9,294.1,553.9z"/>
			</g>
		</g>
		<path id="XMLID_96_" class="st3" d="M312.3,309c-91,0-171.8,45.3-215.3,81.3c-30.8,25.3-60.3,74.4-60.3,109"/>
		<path id="XMLID_95_" class="st4" d="M442.9,400.5c-104,0-265,99.9-265,173"/>
		<line id="XMLID_94_" class="st5" x1="182.8" y1="447.9" x2="294.1" y2="519.8"/>
		<line id="XMLID_93_" class="st5" x1="98" y1="393.1" x2="162.2" y2="434.6"/>
		<line id="XMLID_92_" class="st5" x1="312.3" y1="309" x2="442.9" y2="400.5"/>
		<line id="XMLID_91_" class="st5" x1="36.7" y1="499.3" x2="178.9" y2="574.7"/>
		<line id="XMLID_90_" class="st6" x1="375.4" y1="465.1" x2="294.9" y2="521.1"/>
		<line id="XMLID_89_" class="st7" x1="98" y1="393.1" x2="43.4" y2="488.2"/>
		<line id="XMLID_88_" class="st7" x1="312.3" y1="309" x2="111.7" y2="387.6"/>
		<path id="XMLID_87_" class="st7" d="M116.2,389.2l-4.5-1.5l1.8-4.7"/>
		<path id="XMLID_86_" class="st7" d="M47.9,486.8l-4.5,1.5l-1.4-4.9"/>
		<g id="XMLID_77_">
			<g id="XMLID_84_">
				<text transform="matrix(1 0 0 1 6.511 506.7715)" class="st8 st9 st10">A</text>
			</g>
			<g id="XMLID_82_">
				<text transform="matrix(1 0 0 1 306.8159 287.7605)" class="st8 st9 st10">P</text>
			</g>
			<g id="XMLID_80_">
				<text transform="matrix(1 0 0 1 434.3657 383.0008)" class="st11 st9 st10">MP</text>
			</g>
			<g id="XMLID_78_">
				<text transform="matrix(1 0 0 1 167.8488 608.0906)" class="st11 st9 st10">MA</text>
			</g>
		</g>
		<g id="XMLID_73_">
			<path id="XMLID_76_" class="st12" d="M312.2,316.5c2.1,0,4-0.7,5.5-2.1c1.4-1.4,2.2-3.2,2.2-5.4c0-2-0.9-3.9-2.2-5.4
				c-1.4-1.4-3.4-2.1-5.5-2.1s-4,0.7-5.5,2.1c-1.4,1.4-2.2,3.2-2.2,5.4c0,2,0.9,3.9,2.2,5.4C308.3,315.6,310.2,316.5,312.2,316.5z"
				/>
			<g id="XMLID_74_">
				<text transform="matrix(1 0 0 1 308.4297 313.6518)" class="st8 st9 st13">8</text>
			</g>
		</g>
		<g id="XMLID_71_">
			<path id="XMLID_72_" class="st14" d="M98,400.6c2.1,0,4-0.7,5.5-2.1c1.4-1.4,2.2-3.2,2.2-5.4s-0.9-3.9-2.2-5.4
				c-1.4-1.4-3.4-2.1-5.5-2.1s-4,0.7-5.5,2.1c-1.4,1.4-2.2,3.2-2.2,5.4s0.9,3.9,2.2,5.4C93.9,399.7,96,400.6,98,400.6z"/>
		</g>
		<g id="XMLID_69_" class="st1">
			<path id="XMLID_70_" class="st15" d="M215.2,473c2.1,0,4-0.7,5.6-2.1c1.4-1.4,2.3-3.2,2.3-5.4c0-2.1-0.9-3.9-2.3-5.4
				c-1.4-1.4-3.5-2.1-5.6-2.1c-2.1,0-4,0.7-5.6,2.1c-1.4,1.4-2.3,3.2-2.3,5.4c0,2.1,0.9,3.9,2.3,5.4C211,472.1,213.1,473,215.2,473z
				"/>
		</g>
		<g id="XMLID_67_">
			<path id="XMLID_68_" class="st12" d="M36.7,506.8c2.1,0,4-0.7,5.5-2.1c1.4-1.4,2.2-3.2,2.2-5.4c0-2-0.9-3.9-2.2-5.4
				c-1.4-1.4-3.4-2.1-5.5-2.1c-2.1,0-4,0.7-5.5,2.1c-1.5,1.4-2.2,3.2-2.2,5.4c0,2,0.9,3.9,2.2,5.4C32.6,506.1,34.7,506.8,36.7,506.8
				z"/>
		</g>
		<g id="text_29_1_">
			<g id="XMLID_61_">
				<g id="XMLID_62_">
					<g id="XMLID_63_" transform="translate(104.765414 125.936645)scale(0.06 -0.06)">
						<g id="XMLID_64_">
							<path id="DejaVuSansMono-Bold-36_1_" class="st16" d="M-110.9-4436.6c-5.9,0-10.2-2-13.3-6.1c-3.1-4.1-4.5-9.8-4.5-17.5
								s1.5-13.4,4.5-17.5c3.1-4.1,7.4-6.1,13.3-6.1c5.9,0,10.3,2,13.4,6.1c3.1,4.1,4.6,9.8,4.6,17.5s-1.5,13.4-4.6,17.5
								C-100.5-4438.6-105.2-4436.6-110.9-4436.6z M-75.9-4374.5v-23.4c-4.8,2.7-9.3,4.7-13.8,5.9c-4.3,1.3-8.6,2-12.6,2
								c-9.6,0-17-3.2-22-9.5s-7.7-15.6-7.9-27.7c2.8,3.8,6.5,6.6,10.8,8.6c4.5,2,9.6,2.9,15.7,2.9c12.2,0,21.5-3.8,28.2-11.1
								c6.7-7.3,10-17.9,10-31.5c0-14.7-3.8-26-11.2-34s-17.9-12-31.5-12c-16.5,0-28.4,5.4-36,15.9s-11.2,27.9-11.2,51.7
								c0,22.6,4.5,39.6,13.6,50.8s22.7,17,41,17c4.3,0,8.6-0.4,13.1-1.3C-85-4371.4-80.4-4372.7-75.9-4374.5z"/>
						</g>
					</g>
				</g>
			</g>
		</g>
		<g id="XMLID_59_">
			<path id="XMLID_60_" class="st17" d="M442.8,409.7c2,0,3.9-0.7,5.4-2.1s2.1-3.2,2.1-5.4s-0.7-3.9-2.1-5.4
				c-1.4-1.4-3.2-2.1-5.4-2.1c-2,0-3.9,0.7-5.4,2.1c-1.4,1.4-2.1,3.2-2.1,5.4s0.7,3.9,2.1,5.4S440.9,409.7,442.8,409.7z"/>
		</g>
		<g id="XMLID_57_">
			<path id="XMLID_58_" class="st17" d="M179.4,581.7c2,0,3.9-0.7,5.4-2.1c1.4-1.4,2.1-3.2,2.1-5.4c0-2-0.7-3.9-2.1-5.4
				s-3.2-2.1-5.4-2.1c-2,0-3.9,0.7-5.4,2.1c-1.4,1.4-2.1,3.2-2.1,5.4c0,2,0.7,3.9,2.1,5.4C175.4,581,177.4,581.7,179.4,581.7z"/>
		</g>
		<g id="XMLID_55_">
			<path id="XMLID_56_" class="st17" d="M294.1,527.3c2,0,3.9-0.7,5.4-2.1s2.1-3.2,2.1-5.4c0-2.1-0.7-3.9-2.1-5.4
				c-1.4-1.4-3.2-2.1-5.4-2.1c-2,0-3.9,0.7-5.4,2.1c-1.4,1.4-2.1,3.2-2.1,5.4c0,2.1,0.7,3.9,2.1,5.4S292.1,527.3,294.1,527.3z"/>
		</g>
		<g id="XMLID_53_">
			<path id="XMLID_54_" class="st17" d="M384.8,464.3c2,0,3.9-0.7,5.4-2.1c1.4-1.4,2.1-3.2,2.1-5.4c0-2.1-0.7-3.9-2.1-5.4
				c-1.4-1.4-3.2-2.1-5.4-2.1c-2,0-3.9,0.7-5.4,2.1s-2.1,3.2-2.1,5.4c0,2.1,0.7,3.9,2.1,5.4S382.9,464.3,384.8,464.3z"/>
		</g>
		<g id="text_32_1_">
			<g id="XMLID_46_">
				<g id="XMLID_47_">
					<g id="XMLID_48_" transform="translate(219.198075 78.9401)scale(0.06 -0.06)">
						<g id="XMLID_49_">
							<path id="DejaVuSansMono-Bold-38_1_" class="st16" d="M3727.7-5380.2c-5.7,0-10.4-1.8-14-5.4c-3.6-3.6-5.4-8.4-5.4-14.5
								s1.8-10.9,5.4-14.5c3.6-3.8,8.2-5.5,14-5.5s10.4,1.8,14,5.5c3.6,3.8,5.4,8.6,5.4,14.5c0,6.1-1.8,10.7-5.4,14.5
								C3738.3-5382.2,3733.6-5380.2,3727.7-5380.2z M3708.6-5369.3c-6.6,2.3-11.6,5.9-15,10.7c-3.4,4.8-5.2,10.7-5.2,17.9
								c0,10.9,3.6,19.3,10.6,25.6s16.6,9.5,28.8,9.5c12.2,0,21.8-3.2,28.8-9.5c7-6.3,10.6-14.9,10.6-25.6c0-7-1.6-12.9-5-17.7
								c-3.4-4.8-8.2-8.4-14.9-10.7c7.2-2.1,12.9-6.3,17-11.8c4.1-5.7,6.1-12.5,6.1-20.6c0-12.5-3.8-22.2-11.1-29
								c-7.3-6.8-17.9-10.2-31.5-10.2s-24,3.4-31.5,10.2c-7.3,6.8-11.1,16.5-11.1,29c0,8.1,2.1,14.9,6.3,20.6
								C3695.5-5375.2,3701.2-5371.5,3708.6-5369.3z M3711.2-5342.8c0-5.2,1.4-9.1,4.5-12.2c2.9-3,7-4.5,12-4.5
								c5.2,0,9.1,1.4,12.2,4.5c2.9,3,4.5,7,4.5,12.2c0,5-1.4,9.1-4.5,12c-2.9,2.9-7,4.5-12.2,4.5c-5,0-8.9-1.4-12-4.5
								C3712.7-5333.9,3711.2-5337.8,3711.2-5342.8z"/>
						</g>
					</g>
				</g>
			</g>
		</g>
		<g id="text_33_1_">
			<g id="XMLID_40_">
				<g id="XMLID_41_">
					<g id="XMLID_42_" transform="translate(71.948932 175.050974)scale(0.06 -0.06)">
						<g id="XMLID_43_">
							<path id="DejaVuSansMono-Bold-39_1_" class="st16" d="M1753.4-6701.8v23.4c4.7-2.7,8.9-4.7,13.2-5.9c4.3-1.3,8.2-2,12.2-2
								c9.3,0,16.3,3,21.1,9.3c4.8,6.3,7.5,15.6,7.7,27.7c-2.7-3.8-6.3-6.6-10.6-8.6s-9.3-2.9-15-2.9c-11.8,0-20.8,3.8-27.2,11.1
								c-6.4,7.5-9.7,17.9-9.7,31.7c0,14.5,3.6,25.8,10.7,33.8c7.2,8.1,17.4,12,30.4,12c15.9,0,27.4-5.4,34.7-15.9
								c7.2-10.6,10.7-27.7,10.7-51.5c0-22.6-4.5-39.4-13.2-50.6s-22-17-39.6-17c-4.1,0-8.2,0.4-12.5,1.3
								C1762.4-6704.7,1757.9-6703.4,1753.4-6701.8z M1787.3-6638.8c5.5,0,9.8,2,12.7,6.1c2.9,4.1,4.5,9.8,4.5,17.5
								s-1.4,13.4-4.5,17.5c-2.9,4.1-7.2,6.1-12.7,6.1s-9.8-2-12.9-6.1c-3-4.1-4.5-9.8-4.5-17.5s1.4-13.4,4.5-17.5
								C1777.4-6636.7,1781.7-6638.8,1787.3-6638.8z"/>
						</g>
					</g>
				</g>
			</g>
		</g>
		<g id="text_37_1_">
			<g id="XMLID_35_">
				<g id="XMLID_36_">
					<g id="XMLID_37_" transform="translate(184.933837 109.41428)scale(0.06 -0.06)">
						<g id="XMLID_39_">
							<path id="DejaVuSansMono-Bold-31_2_" class="st16" d="M3239.3-5817h28.8v84.7l-26.8-6.6v23.3l27,6.4h24.9V-5817h28.8v-22.7
								h-82.7L3239.3-5817L3239.3-5817z"/>
						</g>
						<g id="XMLID_38_">
							<path id="DejaVuSansMono-Bold-33_1_" class="st16" d="M3378.5-5781.2h-13.8v22.7h13.8c6.4,0,11.3,1.3,14.9,3.8
								c3.6,2.5,5.4,6.1,5.4,10.7c0,4.8-1.8,8.6-5.4,11.3c-3.6,2.7-8.4,4.1-14.9,4.1c-4.8,0-10.2-0.5-15.7-1.8
								c-5.5-1.3-11.5-3-17.4-5.4v23.4c6.1,1.8,12,3.2,17.7,4.1c5.9,0.9,11.5,1.4,16.8,1.4c13.8,0,24.5-3,32.2-8.9
								c7.7-6.1,11.6-14.3,11.6-24.9c0-7.7-2.1-14.1-6.6-19c-4.5-5-10.7-8.1-19-9.7c9.3-1.6,16.5-5.4,21.3-11.1
								c4.8-5.7,7.3-13.4,7.3-22.9c0-12.7-4.1-22.4-12.2-29c-8.1-6.6-19.9-10-35.3-10c-6.6,0-13.1,0.5-19.5,1.6
								c-6.4,1.1-12.5,2.7-18.3,4.8v24c5.5-2.7,11.5-4.8,17.7-6.3c6.4-1.4,13.1-2.1,20-2.1s12.5,1.6,16.6,4.8
								c4.1,3.2,6.1,7.7,6.1,13.1c0,6.6-2,11.8-6.1,15.6C3391.8-5783.1,3386.1-5781.2,3378.5-5781.2z"/>
						</g>
					</g>
				</g>
			</g>
		</g>
		<g id="text_39_1_">
			<g id="XMLID_30_">
				<g id="XMLID_31_">
					<g id="XMLID_32_" transform="translate(134.267465 144.576794)scale(0.06 -0.06)">
						<g id="XMLID_34_">
							<path id="DejaVuSansMono-Bold-31_1_" class="st16" d="M2572.4-6279.8h28.8v84.7l-26.8-6.6v23.3l27,6.4h24.9v-107.7h28.8
								v-22.7h-82.7L2572.4-6279.8L2572.4-6279.8z"/>
						</g>
						<g id="XMLID_33_">
							<path id="DejaVuSansMono-Bold-35_1_" class="st16" d="M2680.7-6172h70.9v-22.7h-49.9v-24.2c2.1,0.7,4.3,1.4,6.8,1.8
								c2.3,0.4,5,0.5,7.7,0.5c12.9,0,23.4-4.1,31.5-12.2c8.1-8.2,12.2-18.8,12.2-31.9c0-13.6-4.3-24.5-13.1-32.4
								c-8.8-7.9-20.6-12-35.6-12c-5.5,0-11.3,0.5-17,1.4s-11.5,2.3-17.5,4.1v23.3c4.8-2.3,9.8-4.1,14.9-5.4
								c5.2-1.3,10.2-1.8,15.4-1.8c9.1,0,15.9,2,20.8,5.9c4.7,3.9,7.2,9.5,7.2,17c0,6.8-2.3,12.3-7,16.5c-4.7,4.1-10.9,6.1-18.8,6.1
								c-4.7,0-9.3-0.5-14-1.8c-4.7-1.1-9.3-2.9-14-5.2v72.8H2680.7z"/>
						</g>
					</g>
				</g>
			</g>
		</g>
		<g id="XMLID_28_">
			<text transform="matrix(1 0 0 1 211.3811 469.7115)" class="st16 st9 st13">6</text>
		</g>
		<path id="XMLID_27_" class="st6" d="M370.7,464.5l4.7,0.6l-0.8,5"/>
		<g id="XMLID_25_">
			<text transform="matrix(1 0 0 1 32.9129 503.5154)" class="st8 st9 st13">5</text>
		</g>
		<g id="XMLID_20_">
			<g id="XMLID_23_" class="st18">
				<path id="XMLID_24_" class="st19" d="M98,409.8c-6.7,0-13-4-15.5-10.6c-3.4-8.6,0.9-18.3,9.4-21.6l214.3-84.1
					c8.6-3.4,18.3,0.9,21.6,9.4c3.4,8.6-0.9,18.3-9.4,21.6l-214.3,84.1C102.1,409.5,100.1,409.8,98,409.8z"/>
			</g>
			<g id="XMLID_21_" class="st18">
				<path id="XMLID_22_" class="st19" d="M36.7,516c-2.8,0-5.7-0.7-8.3-2.2c-8-4.6-10.7-14.8-6.1-22.8l61.3-106.1
					c4.6-8,14.8-10.7,22.8-6.1c8,4.6,10.7,14.8,6.1,22.8L51.2,507.6C48.1,513,42.5,516,36.7,516z"/>
			</g>
		</g>
		<g id="XMLID_18_">
			<path id="XMLID_19_" class="st20" d="M36.7,536.8c-6.9,0-13.9-1.9-20.2-5.9c-17.2-10.9-21.8-34-11.6-51.6l60.6-104.9
				c4.3-7.4,10.9-13.1,18.8-16.2L298.6,274c20.1-7.9,42.8,2.7,49.5,23.6c6.1,19.1-4.6,39.5-23.3,46.8l-195,76.5
				c-3.8,1.5-7,4.2-9,7.8L69.3,518C62.3,530.1,49.7,536.8,36.7,536.8z"/>
		</g>
		<text id="XMLID_17_" transform="matrix(1 0 0 1 165.5172 446.1856)" class="st21 st9 st10">?</text>
		<g id="XMLID_15_">
			<text transform="matrix(1 0 0 1 139.3036 301.4895)" class="st22 st9 st23">Col(P,A)</text>
		</g>
		<g id="XMLID_13_">
			<text transform="matrix(1 0 0 1 477.9471 376.427)" class="st22 st9 st23">Col(MP,MA)</text>
		</g>
		<g id="XMLID_11_">
			<path id="XMLID_12_" class="st20" d="M177.9,611.1c-20.7,0-37.6-16.8-37.6-37.6c0-64.9,69.4-119,110.8-145.5
				c63.5-40.7,135.2-65,191.8-65c20.7,0,37.6,16.8,37.6,37.6c0,20.7-16.8,37.6-37.6,37.6c-95.3,0-227.4,94-227.4,135.4
				C215.5,594.2,198.6,611.1,177.9,611.1z"/>
		</g>
		<path id="XMLID_10_" class="st0" d="M61.3,512.3c60.9,31.5,261.4-191.2,381.6-111.8"/>
		<g id="XMLID_7_">
			<path id="XMLID_9_" class="st24" d="M119.6,505H74.5c-1.5,0-2.6,1.2-2.6,2.6v16.7c0,1.5,1.2,2.6,2.6,2.6h45.1
				c1.5,0,2.6-1.2,2.6-2.6l0-16.7C122.2,506.2,121.1,505,119.6,505z"/>
			<text id="XMLID_8_" transform="matrix(1 0 0 1 84.4902 520.6901)" class="st9 st25">pMA</text>
		</g>
		<g id="XMLID_4_">
			<path id="XMLID_6_" class="st24" d="M349.2,326.5h-42.8c-1.5,0-2.6,1.2-2.6,2.6v16.7c0,1.5,1.2,2.6,2.6,2.6h42.8
				c1.5,0,2.6-1.2,2.6-2.6v-16.7C351.9,327.7,350.7,326.5,349.2,326.5z"/>
			<text id="XMLID_5_" transform="matrix(1 0 0 1 315.2801 342.2248)" class="st9 st25">fMP</text>
		</g>
		<g id="XMLID_2_">
			<text transform="matrix(1 0 0 1 278.5203 571.9656)" class="st11 st9 st10">MSC</text>
		</g>
	</g>
</g>
</svg>
