<?xml version="1.0" encoding="utf-8"?>
<!-- Generator: Adobe Illustrator 19.0.0, SVG Export Plug-In . SVG Version: 6.00 Build 0)  -->
<svg version="1.1" id="Layer_1" xmlns="http://www.w3.org/2000/svg" xmlns:xlink="http://www.w3.org/1999/xlink" x="0px" y="0px"
	 width="1068px" height="479.5px" viewBox="228 157.5 1068 479.5" style="enable-background:new 228 157.5 1068 479.5;"
	 xml:space="preserve">
<style type="text/css">
	.st0{opacity:0.2;fill:#00A651;enable-background:new    ;}
	.st1{fill:#0000FF;}
	.st2{font-family:'monospace';}
	.st3{font-size:7.7053px;}
	.st4{fill:none;stroke:#0000FF;stroke-width:0.4;}
	.st5{fill:none;stroke:#FF0000;stroke-width:0.4;}
	.st6{fill:#00A651;}
	.st7{fill:none;stroke:#0000FF;stroke-width:0.4;stroke-dasharray:2;}
	.st8{fill:#FF0000;}
	.st9{font-family:'monospace';}
	.st10{font-size:18.4549px;}
</style>
<circle class="st0" cx="1120.7" cy="466.3" r="96"/>
<g>
	<text transform="matrix(1 0 0 1 1125.6062 467.3622)" class="st1 st2 st3">0</text>
</g>
<g>
	<g id="XMLID_21_">
		<path id="XMLID_22_" class="st4" d="M1057.2,401.3c-2.7,45.5,16.7,57.6,30.1,57.6c8,0,14.7-2,25.4-8c6,1.3,10,9.4,8,15.4
			c-8,10.7-39.5,36.1-77.6,36.1c-23.4,0-38.1-8-56.2-23.4c-4.7-4-7.4-5.4-10.7-5.4s-7.4,2.7-14.1,7.4c-12,8.7-32.1,21.4-56.9,21.4
			c-38.8,0-75-23.4-75-70.3c0-34.1,20.7-54.9,69.6-69.6c25.4-8,44.2-13.4,62.9-18.7c12-3.3,15.4-8,16.1-13.4
			c0.7-7.4,1.3-14.7,1.3-22.8c0-25.4-10-57.6-38.8-57.6c-16.1,0-30.1,9.4-34.8,38.1c-1.3,10.7-5.4,16.7-11.4,21.4
			c-10,7.4-36.1,15.4-48.2,15.4c-11.4,0-15.4-7.4-15.4-16.7c0-17.4,16.1-38.8,32.1-51.5c22.8-18.1,64.9-40.8,112.4-40.8
			c56.2,0,89,28.1,85.7,97L1057.2,401.3z M976.9,383.9c0.7-10.7,0-12.7-4.7-12c-30.1,4-56.2,15.4-56.2,46.8
			c0,21.4,15.4,40.2,34.1,40.2c20.7,0,24.8-12,25.4-32.8L976.9,383.9z"/>
	</g>
	<circle class="st1" cx="1120.7" cy="466.2" r="2.6"/>
	<circle class="st1" cx="1043.1" cy="502.3" r="2.6"/>
	<circle class="st1" cx="1112.8" cy="450.8" r="2.6"/>
	<circle class="st1" cx="1087.2" cy="458.8" r="2.6"/>
	<circle class="st1" cx="1057.1" cy="401.3" r="2.6"/>
</g>
<g>
	<g>
		<g id="XMLID_17_">
			<path id="XMLID_18_" class="st5" d="M984.6,352.5c10-3.3,11.4-9.4,11.4-19.4l0.7-30.8c0.7-24.8-7.4-58.2-48.9-58.2
				c-18.7,0-41.5,9.4-42.8,30.1c-0.7,10.7-1.3,18.7-6.7,22.8c-10,8-28.1,12.7-38.1,12.7c-6,0-9.4-3.3-9.4-9.4
				c0-34.8,75.6-82.3,124.5-82.3c48.2,0,71.6,28.1,69.6,78.3l-4,116.4c-1.3,30.8,4.7,58.2,30.8,58.2c6.7,0,12.7-2,16.7-4
				c3.3-2,6.7-4.7,8.7-4.7c2.7,0,4.7,4,4.7,8.7c0,3.3-23.4,29.4-56.2,29.4c-16.1,0-32.1-6-43.5-20.7c-2.7-4-6.7-9.4-10.7-9.4
				c-4.7,0-12.7,6-26.1,13.4c-14.7,8-29.4,16.7-48.2,16.7c-19.4,0-35.5-5.4-46.8-15.4c-12.7-11.4-20.7-28.1-20.7-46.8
				c0-26.1,12.7-41.5,55.5-56.9L984.6,352.5z M943.1,470.3c13.4,0,34.1-10,40.8-16.7c8-8,8-17.4,8.7-31.5l1.3-39.5
				c0-7.4-2.7-8.7-6.7-8.7s-15.4,2.7-27.4,6.7c-39.5,13.4-58.9,23.4-58.9,49.5C900.9,441.5,908.9,470.3,943.1,470.3z"/>
		</g>
		<circle class="st6" cx="1040.8" cy="412.7" r="2.6"/>
	</g>
</g>
<g>
	<text transform="matrix(1 0 0 1 656.8898 467.2091)" class="st1 st2 st3">0</text>
</g>
<g>
	<g>
		<g id="XMLID_3_">
			<path id="XMLID_4_" class="st4" d="M588.5,401.2c-2.7,45.5,16.7,57.6,30.1,57.6c8,0,14.7-2,25.4-8c6,1.3,10,9.4,8,15.4
				c-8,10.7-39.5,36.1-77.6,36.1c-23.4,0-38.1-8-56.2-23.4c-4.7-4-7.4-5.4-10.7-5.4s-7.4,2.7-14.1,7.4c-12,8.7-32.1,21.4-56.9,21.4
				c-38.8,0-75-23.4-75-70.3c0-34.1,20.7-54.9,69.6-69.6c25.4-8,44.2-13.4,62.9-18.7c12-3.3,15.4-8,16.1-13.4
				c0.7-7.4,1.3-14.7,1.3-22.8c0-25.4-10-57.6-38.8-57.6c-16.1,0-30.1,9.4-34.8,38.1c-1.3,10.7-5.4,16.7-11.4,21.4
				c-10,7.4-36.1,15.4-48.2,15.4c-11.4,0-15.4-7.4-15.4-16.7c0-17.4,16.1-38.8,32.1-51.5c22.8-18.1,64.9-40.8,112.4-40.8
				c56.2,0,89,28.1,85.7,97L588.5,401.2z M508.2,383.8c0.7-10.7,0-12.7-4.7-12c-30.1,4-56.2,15.4-56.2,46.8
				c0,21.4,15.4,40.2,34.1,40.2c20.7,0,24.8-12,25.4-32.8L508.2,383.8z"/>
		</g>
	</g>
	<circle class="st1" cx="652" cy="466.2" r="2.6"/>
</g>
<g>
	<circle class="st7" cx="652" cy="466.2" r="19.6"/>
	<circle class="st7" cx="652" cy="466.2" r="24.3"/>
	<circle class="st7" cx="652" cy="466.2" r="32.9"/>
	<circle class="st7" cx="652" cy="466.2" r="49.6"/>
	<circle class="st7" cx="652" cy="466.2" r="96"/>
	<circle class="st7" cx="652" cy="466.2" r="82.6"/>
</g>
<g>
	<g>
		<g id="XMLID_1_">
			<path id="XMLID_2_" class="st5" d="M515.9,352.4c10-3.3,11.4-9.4,11.4-19.4l0.7-30.8c0.7-24.8-7.4-58.2-48.9-58.2
				c-18.7,0-41.5,9.4-42.8,30.1c-0.7,10.7-1.3,18.7-6.7,22.8c-10,8-28.1,12.7-38.1,12.7c-6,0-9.4-3.3-9.4-9.4
				c0-34.8,75.6-82.3,124.5-82.3c48.2,0,71.6,28.1,69.6,78.3l-4,116.4c-1.3,30.8,4.7,58.2,30.8,58.2c6.7,0,12.7-2,16.7-4
				c3.3-2,6.7-4.7,8.7-4.7c2.7,0,4.7,4,4.7,8.7c0,3.3-23.4,29.4-56.2,29.4c-16.1,0-32.1-6-43.5-20.7c-2.7-4-6.7-9.4-10.7-9.4
				c-4.7,0-12.7,6-26.1,13.4c-14.7,8-29.4,16.7-48.2,16.7c-19.4,0-35.5-5.4-46.8-15.4c-12.7-11.4-20.7-28.1-20.7-46.8
				c0-26.1,12.7-41.5,55.5-56.9L515.9,352.4z M474.4,470.2c13.4,0,34.1-10,40.8-16.7c8-8,8-17.4,8.7-31.5l1.3-39.5
				c0-7.4-2.7-8.7-6.7-8.7s-15.4,2.7-27.4,6.7c-39.5,13.4-58.9,23.4-58.9,49.5C432.2,441.4,440.2,470.2,474.4,470.2z"/>
		</g>
		<circle class="st8" cx="628.3" cy="461.8" r="2.6"/>
		<circle class="st8" cx="619.6" cy="466.8" r="2.6"/>
		<circle class="st8" cx="633" cy="470.8" r="2.6"/>
		<circle class="st8" cx="602.9" cy="470.8" r="2.6"/>
		<circle class="st8" cx="576.7" cy="500.2" r="2.6"/>
		<circle class="st8" cx="572.1" cy="412.6" r="2.6"/>
	</g>
</g>
<g>
	<text transform="matrix(1 0 0 1 354.8832 556.6002)" class="st9 st10">Radius Match </text>
	<text transform="matrix(1 0 0 1 354.8832 578.7002)" class="st9 st10">for point 0</text>
</g>
<g>
	<text transform="matrix(1 0 0 1 830.1833 556.6002)" class="st9 st10">Point 0 instance</text>
	<text transform="matrix(1 0 0 1 830.1833 578.7002)" class="st9 st10">in most distant radius</text>
</g>
</svg>
