<?xml version="1.0" encoding="iso-8859-1"?>
<!-- Generator: Adobe Illustrator 19.0.0, SVG Export Plug-In . SVG Version: 6.00 Build 0)  -->
<svg version="1.1" id="Layer_1" xmlns="http://www.w3.org/2000/svg" xmlns:xlink="http://www.w3.org/1999/xlink" x="0px" y="0px"
	 width="460.997px" height="262.825px" viewBox="0 0 460.997 262.825" style="enable-background:new 0 0 460.997 262.825;"
	 xml:space="preserve">
<polygon id="XMLID_1071_" style="fill:none;stroke:#E000E2;stroke-width:0.5;stroke-miterlimit:10;" points="36.623,141.669 
	87.729,57.263 192.58,188.493 117.4,220.147 58.212,198.55 "/>
<polygon id="XMLID_1072_" style="fill:none;stroke:#2200C6;stroke-width:0.5;stroke-miterlimit:10;" points="343.735,69.457 
	307.137,141.669 326.09,188.985 376.704,207.284 438.367,185.525 "/>
<path id="XMLID_1036_" style="fill:none;stroke:#E000E2;stroke-width:0.25;stroke-miterlimit:10;" d="M36.623,141.669
	c0,11.656,1.861,22.313,5.605,31.985c3.729,9.672,9.065,17.968,15.985,24.896c6.927,6.92,15.385,12.256,25.396,15.992
	c9.995,3.737,21.267,5.605,33.792,5.605c28.579,0,53.636-10.557,75.18-31.654L87.729,57.263
	c-7.481,5.059-14.347,10.441-20.613,16.154c-6.259,5.72-11.648,11.979-16.154,18.791c-4.506,6.82-8.027,14.293-10.549,22.42
	C37.884,122.77,36.623,131.774,36.623,141.669z"/>
<path id="XMLID_1024_" style="fill:none;stroke:#2200C6;stroke-width:0.25;stroke-miterlimit:10;" d="M307.137,141.669
	c0,9.672,1.645,18.522,4.944,26.541c3.298,8.027,7.965,14.954,14.009,20.775c6.043,5.828,13.355,10.334,21.928,13.517
	c8.573,3.191,18.138,4.782,28.686,4.782c11.648,0,22.697-1.753,33.138-5.274c10.441-3.514,19.952-9.011,28.525-16.485
	L343.735,69.457c-10.995,9.234-19.844,19.514-26.541,30.832C310.482,111.614,307.137,125.407,307.137,141.669z"/>
<line id="XMLID_1068_" style="fill:none;stroke:#231F20;stroke-width:0.25;stroke-miterlimit:10;stroke-dasharray:2;" x1="36.623" y1="141.669" x2="307.137" y2="141.669"/>
<line id="XMLID_1075_" style="fill:none;stroke:#231F20;stroke-width:0.25;stroke-miterlimit:10;stroke-dasharray:2;" x1="87.729" y1="57.263" x2="343.735" y2="69.457"/>
<line id="XMLID_1076_" style="fill:none;stroke:#231F20;stroke-width:0.25;stroke-miterlimit:10;stroke-dasharray:2;" x1="58.212" y1="198.55" x2="326.09" y2="188.985"/>
<line id="XMLID_1077_" style="fill:none;stroke:#231F20;stroke-width:0.25;stroke-miterlimit:10;stroke-dasharray:2;" x1="117.4" y1="220.147" x2="376.704" y2="207.284"/>
<line id="XMLID_1078_" style="fill:none;stroke:#231F20;stroke-width:0.25;stroke-miterlimit:10;stroke-dasharray:2;" x1="192.58" y1="188.493" x2="438.367" y2="185.525"/>
<circle id="XMLID_1084_" style="fill:#E000E2;" cx="67.116" cy="73.417" r="1.723"/>
<circle id="XMLID_1087_" style="fill:#2200C6;" cx="317.196" cy="100.289" r="1.723"/>
<circle id="XMLID_1092_" style="fill:#2200C6;" cx="312.257" cy="168.21" r="1.723"/>
<circle id="XMLID_1093_" style="fill:#2200C6;" cx="347.032" cy="202.01" r="1.723"/>
<circle id="XMLID_1094_" style="fill:#2200C6;" cx="409.768" cy="202.01" r="1.723"/>
<circle id="XMLID_1088_" style="fill:#E000E2;" cx="51.028" cy="92.208" r="1.723"/>
<circle id="XMLID_1090_" style="fill:#E000E2;" cx="42.27" cy="173.654" r="1.723"/>
<circle id="XMLID_1091_" style="fill:#E000E2;" cx="83.294" cy="214.542" r="1.723"/>
<circle id="XMLID_1089_" style="fill:#E000E2;" cx="40.547" cy="114.628" r="1.723"/>
</svg>
