<?xml version="1.0" encoding="utf-8"?>
<!-- Generator: Adobe Illustrator 19.0.0, SVG Export Plug-In . SVG Version: 6.00 Build 0)  -->
<svg version="1.1" id="Layer_1" xmlns="http://www.w3.org/2000/svg" xmlns:xlink="http://www.w3.org/1999/xlink" x="0px" y="0px"
	 width="522.1px" height="657px" viewBox="-61 181.4 522.1 657" style="enable-background:new -61 181.4 522.1 657;"
	 xml:space="preserve">
<style type="text/css">
	.st0{opacity:0.5;fill:none;stroke:#008000;stroke-width:0.8774;enable-background:new    ;}
	.st1{opacity:0.5;fill:none;stroke:#008000;stroke-width:0.8774;stroke-dasharray:2.0869;enable-background:new    ;}
	.st2{opacity:0.5;fill:#008000;enable-background:new    ;}
	.st3{font-family:monospace;}
	.st4{font-size:20.0975px;}
	.st5{fill:none;stroke:#FF0000;stroke-width:1.7548;stroke-linecap:round;stroke-linejoin:round;}
	.st6{fill:#FF0000;stroke:#FF0000;stroke-width:1.7548;stroke-linejoin:round;}
	.st7{fill:#FFFFFF;stroke:#FF0000;stroke-width:1.7548;stroke-linejoin:round;}
	.st8{fill:#FFFFFF;}
	.st9{opacity:0.5;}
	.st10{opacity:0.5;fill:#008000;stroke:#008000;stroke-width:0.8774;enable-background:new    ;}
	.st11{opacity:0.5;fill:#FF0000;stroke:#FF0000;stroke-width:0.8774;enable-background:new    ;}
	.st12{fill:none;stroke:#0000FF;stroke-width:1.7548;stroke-linecap:round;stroke-linejoin:round;}
	.st13{fill:#0000FF;stroke:#0000FF;stroke-width:1.7548;stroke-linejoin:round;}
	.st14{font-size:16.7563px;}
	.st15{fill:#FF0000;}
	.st16{font-size:13.8959px;}
	.st17{fill:#0000FF;}
	.st18{opacity:0.5;enable-background:new    ;}
	.st19{fill:none;stroke:#FF0000;stroke-width:0.8774;}
	.st20{opacity:0.5;fill:none;stroke:#FF9100;stroke-width:0.8774;enable-background:new    ;}
	.st21{opacity:0.5;fill:none;stroke:#0000FF;stroke-width:0.8774;enable-background:new    ;}
	.st22{opacity:0.5;fill:none;stroke:#0000FF;stroke-width:0.8774;stroke-dasharray:2.0869;enable-background:new    ;}
	.st23{fill:#FFFFFF;stroke:#008000;stroke-width:0.8774;enable-background:new    ;}
	.st24{font-size:15.2287px;}
</style>
<g id="New_Symbol">
	<line id="XMLID_100_" class="st0" x1="214.7" y1="551.8" x2="258.3" y2="461.6"/>
	<line id="XMLID_99_" class="st0" x1="149.3" y1="686.8" x2="202.3" y2="577.3"/>
	<path id="XMLID_98_" class="st1" d="M85,500.8c39-95.1,119.3,65.4,173.3-39.1"/>
	<path id="XMLID_97_" class="st1" d="M244.8,628.8c46.3-85.2-0.6-86.9,62-178.6"/>
	<line id="XMLID_96_" class="st0" x1="224.2" y1="666.6" x2="349.9" y2="435.4"/>
	<line id="XMLID_95_" class="st0" x1="170.1" y1="297" x2="74.4" y2="526.3"/>
	<text id="XMLID_94_" transform="matrix(1 0 0 1 205.1731 568.9095)" class="st2 st3 st4">?</text>
	<g id="figure_1_2_">
		<g id="axes_1_2_">
			<g id="patch_30_1_">
				<path id="XMLID_93_" class="st5" d="M149.3,686.8C126,637,103,587.7,80.2,538.9"/>
				<path id="XMLID_92_" class="st5" d="M78.4,543.7l1.8-4.8l4.8,1.8"/>
			</g>
			<g id="PathCollection_1_2_">
				<g id="XMLID_90_">
					<path id="XMLID_91_" class="st6" d="M149.3,696.9c2.7,0,5.3-1.1,7.2-3c1.9-1.9,3-4.5,3-7.2c0-2.7-1.1-5.3-3-7.2
						c-1.9-1.9-4.5-3-7.2-3c-2.7,0-5.3,1.1-7.2,3c-1.9,1.9-3,4.5-3,7.2c0,2.7,1.1,5.3,3,7.2C144,695.9,146.6,696.9,149.3,696.9z"/>
				</g>
				<g id="XMLID_88_">
					<path id="XMLID_89_" class="st7" d="M74.4,536.5c2.7,0,5.3-1.1,7.2-3c1.9-1.9,3-4.5,3-7.2s-1.1-5.3-3-7.2c-1.9-1.9-4.5-3-7.2-3
						c-2.7,0-5.3,1.1-7.2,3c-1.9,1.9-3,4.5-3,7.2s1.1,5.3,3,7.2C69.1,535.4,71.7,536.5,74.4,536.5z"/>
				</g>
			</g>
			<g id="text_30_2_">
				<g id="XMLID_84_">
					<g id="XMLID_85_">
						<g id="XMLID_86_" transform="translate(334.422399 358.608064)scale(0.06 -0.06)">
							<g id="XMLID_87_">
								<path id="DejaVuSansMono-Bold-37_3_" class="st8" d="M-3142.4-5360.4h111.6v-24.7l-59.8-151.9h-35.6l57.5,145.8h-73.7
									V-5360.4z"/>
							</g>
						</g>
					</g>
				</g>
			</g>
		</g>
	</g>
	<g id="figure_1_1_">
		<g id="axes_1_1_">
			<g id="patch_20_1_" class="st9">
				<g id="XMLID_82_">
					<path id="XMLID_83_" class="st10" d="M306.3,484.3c9.2,0,17.9-3.6,24.4-10c6.5-6.4,10.1-15.1,10.1-24.1c0-9-3.6-17.7-10.1-24.1
						c-6.5-6.4-15.3-10-24.4-10c-9.2,0-17.9,3.6-24.4,10c-6.5,6.4-10.1,15.1-10.1,24.1c0,9,3.6,17.7,10.1,24.1
						C288.3,480.8,297.1,484.3,306.3,484.3z"/>
				</g>
			</g>
			<g id="patch_3_1_">
				<g id="XMLID_80_">
					<path id="XMLID_81_" class="st11" d="M303.4,425.7c2.5,0,5-1,6.8-2.8c1.8-1.8,2.8-4.2,2.8-6.7s-1-4.9-2.8-6.7
						c-1.8-1.8-4.2-2.8-6.8-2.8c-2.5,0-5,1-6.8,2.8c-1.8,1.8-2.8,4.2-2.8,6.7s1,4.9,2.8,6.7C298.4,424.7,300.9,425.7,303.4,425.7z"
						/>
				</g>
				<g id="text_30_1_">
					<g id="XMLID_76_">
						<g id="XMLID_77_">
							<g id="XMLID_78_" transform="translate(334.422399 358.608064)scale(0.06 -0.06)">
								<g id="XMLID_79_">
									<path id="DejaVuSansMono-Bold-37_2_" class="st8" d="M-572.8-883.8h111.6v-24.7l-59.8-151.9h-35.6l57.5,145.8h-73.7V-883.8
										z"/>
								</g>
							</g>
						</g>
					</g>
				</g>
			</g>
			<g id="patch_10_3_">
				<path id="XMLID_75_" class="st12" d="M306.3,450.3c-12.1,2.9-23.5,5.6-34.5,8.2"/>
				<path id="XMLID_74_" class="st12" d="M276.2,461.1l-4.4-2.7l2.7-4.4"/>
			</g>
			<g id="patch_11_1_">
				<path id="XMLID_73_" class="st12" d="M258.3,461.6c-27.5-51.3-54.7-102.1-81.7-152.5"/>
				<path id="XMLID_72_" class="st12" d="M175.2,314.1l1.5-4.9l4.9,1.5"/>
			</g>
			<g id="patch_18_2_">
				<g id="XMLID_70_">
					<path id="XMLID_71_" class="st0" d="M258.3,499.5c10.2,0,19.9-4,27.1-11.1c7.2-7.1,11.2-16.7,11.2-26.8c0-10-4-19.7-11.2-26.8
						c-7.2-7.1-16.9-11.1-27.1-11.1c-10.2,0-19.9,4-27.1,11.1C224,442,220,451.6,220,461.6c0,10,4,19.7,11.2,26.8
						C238.4,495.5,248.2,499.5,258.3,499.5z"/>
				</g>
			</g>
			<g id="PathCollection_1_1_">
				<g id="XMLID_68_">
					<path id="XMLID_69_" class="st13" d="M306.3,460.4c2.7,0,5.3-1.1,7.2-3c1.9-1.9,3-4.5,3-7.2c0-2.7-1.1-5.3-3-7.2
						c-1.9-1.9-4.5-3-7.2-3c-2.7,0-5.3,1.1-7.2,3s-3,4.5-3,7.2c0,2.7,1.1,5.3,3,7.2S303.6,460.4,306.3,460.4z"/>
				</g>
				<g id="XMLID_66_">
					<path id="XMLID_67_" class="st13" d="M258.3,471.8c2.7,0,5.3-1.1,7.2-3s3-4.5,3-7.2c0-2.7-1.1-5.3-3-7.2s-4.5-3-7.2-3
						c-2.7,0-5.3,1.1-7.2,3c-1.9,1.9-3,4.5-3,7.2c0,2.7,1.1,5.3,3,7.2C253.1,470.7,255.7,471.8,258.3,471.8z"/>
				</g>
				<g id="XMLID_64_">
					<path id="XMLID_65_" class="st13" d="M170.1,307.1c2.7,0,5.3-1.1,7.2-3c1.9-1.9,3-4.5,3-7.2c0-2.7-1.1-5.3-3-7.2
						c-1.9-1.9-4.5-3-7.2-3c-2.7,0-5.3,1.1-7.2,3c-1.9,1.9-3,4.5-3,7.2c0,2.7,1.1,5.3,3,7.2C164.9,306,167.5,307.1,170.1,307.1z"/>
				</g>
			</g>
			<g id="text_28_1_">
				<g id="XMLID_58_">
					<g id="XMLID_59_">
						<g id="XMLID_60_" transform="translate(352.988963 369.616889)scale(0.06 -0.06)">
							<g id="XMLID_61_">
								<path id="DejaVuSansMono-Bold-34_1_" class="st8" d="M-769.3-1273.3l-44.6-69.8h44.6V-1273.3z M-772.4-1234.5h36.5v-108.6
									h19.4v-29.9h-19.4v-38.1h-33.5v38.1h-70v33.8L-772.4-1234.5z"/>
							</g>
						</g>
					</g>
				</g>
			</g>
			<g id="text_31_1_">
				<g id="XMLID_54_">
					<g id="XMLID_55_">
						<g id="XMLID_56_" transform="translate(333.197412 374.305224)scale(0.06 -0.06)">
							<g id="XMLID_57_">
								<path id="DejaVuSansMono-Bold-37_1_" class="st8" d="M-1304.5-1345.7h111.6v-24.7l-59.8-151.9h-35.6l57.5,145.8h-73.7
									V-1345.7z"/>
							</g>
						</g>
					</g>
				</g>
			</g>
			<g id="text_42_1_">
				<g id="XMLID_46_">
					<g id="XMLID_47_">
						<g id="XMLID_48_" transform="translate(294.974863 306.324362)scale(0.06 -0.06)">
							<g id="XMLID_53_">
								<path id="DejaVuSansMono-Bold-31_1_" class="st8" d="M-2204.1,119.7h39v114.6l-36.3-9v31.4l36.6,8.8h33.7V119.7h39V89h-112
									V119.7z"/>
							</g>
							<g id="XMLID_49_">
								<path id="DejaVuSansMono-Bold-38_1_" class="st8" d="M-2007.7,167.7c-7.8,0-14.1-2.5-18.9-7.4c-4.8-4.9-7.2-11.4-7.2-19.6
									c0-8.1,2.4-14.7,7.2-19.6s11.1-7.5,18.9-7.5c7.8,0,14.1,2.5,19,7.6c4.9,5,7.3,11.6,7.3,19.5c0,8.1-2.4,14.6-7.2,19.6
									C-1993.5,165.2-1999.8,167.7-2007.7,167.7z M-2033.6,182.5c-8.9,3.1-15.7,7.9-20.4,14.5c-4.6,6.6-7,14.6-7,24.2
									c0,14.7,4.8,26.2,14.3,34.7c9.5,8.5,22.5,12.8,38.9,12.8c16.5,0,29.5-4.3,39-12.8c9.5-8.5,14.3-20.1,14.3-34.7
									c0-9.5-2.3-17.5-6.8-24.1c-4.6-6.6-11.2-11.5-20-14.6c9.8-3,17.4-8.4,22.9-16.1c5.5-7.7,8.3-17,8.3-27.8c0-17-5-30-15-39.3
									s-24.2-13.9-42.7-13.9c-18.4,0-32.6,4.6-42.6,13.9s-15,22.3-15,39.3c0,10.9,2.8,20.2,8.4,27.9
									C-2051.3,174.3-2043.5,179.6-2033.6,182.5z M-2029.9,218.3c0-6.9,2-12.4,5.9-16.5c4-4.1,9.4-6.1,16.3-6.1
									c6.9,0,12.4,2,16.4,6.1c4,4.1,6,9.6,6,16.5c0,6.9-2,12.3-6,16.2c-4,4-9.4,6-16.4,6c-6.8,0-12.2-2-16.2-6
									C-2027.9,230.5-2029.9,225.1-2029.9,218.3z"/>
							</g>
						</g>
					</g>
				</g>
			</g>
		</g>
	</g>
	<g id="patch_10_2_">
		<path id="XMLID_45_" class="st12" d="M349.9,435.4l-29.3,12.1"/>
		<path id="XMLID_44_" class="st12" d="M325.3,449.5l-4.7-2l2-4.7"/>
	</g>
	<g id="XMLID_40_">
		<g id="XMLID_42_">
			<path id="XMLID_43_" class="st13" d="M350,445.9c2.7,0,5.3-1.1,7.2-3c1.9-1.9,3-4.5,3-7.2c0-2.7-1.1-5.3-3-7.2
				c-1.9-1.9-4.5-3-7.2-3c-2.7,0-5.3,1.1-7.2,3s-3,4.5-3,7.2c0,2.7,1.1,5.3,3,7.2C344.8,444.9,347.3,445.9,350,445.9z"/>
		</g>
		<text id="XMLID_41_" transform="matrix(1 0 0 1 345.4268 440.4026)" class="st8 st3 st14">2</text>
	</g>
	<g id="patch_10_1_">
		<path id="XMLID_39_" class="st5" d="M224.2,666.6l-60,17"/>
		<path id="XMLID_38_" class="st5" d="M168.8,686l-4.6-2.3l2.3-4.6"/>
	</g>
	<g id="XMLID_33_">
		<g id="XMLID_36_">
			<path id="XMLID_37_" class="st7" d="M224.4,677.2c2.7,0,5.3-1.1,7.2-3c1.9-1.9,3-4.5,3-7.2c0-2.7-1.1-5.3-3-7.2
				c-1.9-1.9-4.5-3-7.2-3c-2.7,0-5.3,1.1-7.2,3c-1.9,1.9-3,4.5-3,7.2c0,2.7,1.1,5.3,3,7.2C219.1,676.1,221.7,677.2,224.4,677.2z"/>
		</g>
		<g id="XMLID_34_">
			<text transform="matrix(1 0 0 1 220.5799 671.6489)" class="st15 st3 st16">1</text>
		</g>
	</g>
	<g id="patch_18_1_">
		<g id="XMLID_31_">
			<path id="XMLID_32_" class="st0" d="M149.3,717.1c8.1,0,15.9-3.2,21.7-8.9c5.7-5.7,9-13.4,9-21.4s-3.2-15.7-9-21.4
				c-5.7-5.7-13.5-8.9-21.7-8.9c-8.1,0-15.9,3.2-21.7,8.9c-5.7,5.7-9,13.4-9,21.4s3.2,15.7,9,21.4
				C133.4,713.9,141.2,717.1,149.3,717.1z"/>
		</g>
	</g>
	<text id="XMLID_30_" transform="matrix(1 0 0 1 66.7164 530.6763)" class="st15 st3 st16">17</text>
	<g id="XMLID_28_">
		<text transform="matrix(1 0 0 1 138.2411 745.1399)" class="st15 st3 st4">SC</text>
	</g>
	<g id="XMLID_26_">
		<text transform="matrix(1 0 0 1 218.7109 703.578)" class="st15 st3 st4">P</text>
	</g>
	<g id="XMLID_24_">
		<text transform="matrix(1 0 0 1 68.8285 506.6942)" class="st15 st3 st4">A</text>
	</g>
	<g id="XMLID_22_">
		<text transform="matrix(1 0 0 1 338.9893 416.7115)" class="st17 st3 st4">MP</text>
	</g>
	<g id="XMLID_20_">
		<text transform="matrix(1 0 0 1 159.0276 277.2468)" class="st17 st3 st4">MA</text>
	</g>
	<g id="XMLID_15_">
		<g id="XMLID_18_" class="st18">
			<path id="XMLID_19_" class="st19" d="M149.3,703.5c-6.3,0-12.3-3.5-15.1-9.6L58.6,533.5c-3.9-8.3-0.4-18.3,8-22.2
				c8.3-3.9,18.3-0.4,22.2,8l75.6,160.5c3.9,8.3,0.4,18.3-8,22.2C154.1,703,151.7,703.5,149.3,703.5z"/>
		</g>
		<g id="XMLID_16_" class="st18">
			<path id="XMLID_17_" class="st19" d="M149.3,703.5c-7.4,0-14.1-4.9-16.1-12.4c-2.4-8.9,2.9-18.1,11.8-20.5l74.9-20.2
				c8.9-2.4,18.1,2.9,20.5,11.8c2.4,8.9-2.9,18.1-11.8,20.5l-74.9,20.2C152.2,703.3,150.7,703.5,149.3,703.5z"/>
		</g>
	</g>
	<path id="XMLID_14_" class="st20" d="M149.3,724.3c-14.2,0-27.6-8.1-33.9-21.5L39.8,542.3c-8.8-18.7-0.8-41,17.9-49.8
		c18.7-8.8,41-0.8,49.8,17.9l60.2,127.7c1.2,2.5,4.1,3.9,6.8,3.1l38.4-10.4c19.8-5.3,41.2,5.3,47.1,24.9c6.1,20.3-5.7,41.5-26.1,47
		L159.1,723C155.8,723.8,152.5,724.3,149.3,724.3z"/>
	<path id="XMLID_13_" class="st21" d="M258.4,478.3c-6,0-11.7-3.2-14.7-8.8l-87.3-163.6c-4.3-8.1-1.3-18.2,6.9-22.6
		c8.1-4.3,18.3-1.3,22.6,6.9l87.3,163.6c4.3,8.1,1.3,18.2-6.9,22.6C263.7,477.7,261,478.3,258.4,478.3z"/>
	<path id="XMLID_12_" class="st22" d="M258.3,478.3c-7.7,0-14.6-5.3-16.3-13.1c-2-9,3.7-17.9,12.8-19.9l48.1-10.5
		c9-2,17.9,3.7,19.9,12.8s-3.7,17.9-12.8,19.9l-48.1,10.5C260.7,478.2,259.5,478.3,258.3,478.3z"/>
	<path id="XMLID_11_" class="st21" d="M306.5,467.8c-7,0-13.5-4.4-15.8-11.4c-2.9-8.7,1.8-18.2,10.5-21.1l43.7-14.7
		c8.7-2.9,18.2,1.8,21.1,10.5c2.9,8.7-1.8,18.2-10.5,21.1L311.8,467C310,467.5,308.2,467.8,306.5,467.8z"/>
	<path id="XMLID_10_" class="st20" d="M258.3,499.1c-13.6,0-26.4-7.4-33-19.8L138,315.6c-9.7-18.3-2.8-40.9,15.4-50.7
		c18.3-9.7,40.9-2.8,50.7,15.4L276,415.2c1.2,2.3,3.8,3.4,6.3,2.9l14.2-3.1l41.8-14c20-6.7,41.6,4.4,47.8,24.7
		c5.9,19.6-6,40.3-25.4,46.8l-42.3,14.2c-1.3,0.4-2.6,0.7-3.9,1.1l-48.1,10.5C263.7,498.8,261,499.1,258.3,499.1z"/>
	<g id="XMLID_7_">
		<path id="XMLID_9_" class="st23" d="M296.4,553.8h-42.8c-1.5,0-2.6,1.2-2.6,2.6l0,16.7c0,1.5,1.2,2.6,2.6,2.6h42.8
			c1.5,0,2.6-1.2,2.6-2.6v-16.7C299.1,555,297.9,553.8,296.4,553.8z"/>
		<text id="XMLID_8_" transform="matrix(1 0 0 1 262.4819 569.508)" class="st3 st24">fMP</text>
	</g>
	<g id="XMLID_4_">
		<path id="XMLID_6_" class="st23" d="M134.1,450.7H88.9c-1.5,0-2.6,1.2-2.6,2.6V470c0,1.5,1.2,2.6,2.6,2.6h45.1
			c1.5,0,2.6-1.2,2.6-2.6v-16.7C136.7,451.8,135.5,450.7,134.1,450.7z"/>
		<text id="XMLID_5_" transform="matrix(1 0 0 1 98.9269 466.3719)" class="st3 st24">pMA</text>
	</g>
	<g id="XMLID_2_">
		<text transform="matrix(1 0 0 1 289.7056 397.6079)" class="st17 st3 st4">MSC</text>
	</g>
</g>
</svg>
