<?xml version="1.0" encoding="utf-8"?>
<!-- Generator: Adobe Illustrator 19.0.0, SVG Export Plug-In . SVG Version: 6.00 Build 0)  -->
<svg version="1.1" id="Layer_1" xmlns="http://www.w3.org/2000/svg" xmlns:xlink="http://www.w3.org/1999/xlink" x="0px" y="0px"
	 width="1068px" height="479.5px" viewBox="54 157.5 1068 479.5" style="enable-background:new 54 157.5 1068 479.5;"
	 xml:space="preserve">
<style type="text/css">
	.st0{font-family:'monospace';}
	.st1{font-size:18.4549px;}
	.st2{fill:#0000FF;}
	.st3{fill:#FF0000;}
	.st4{fill:none;stroke:#FF0000;}
	.st5{fill:none;stroke:#0000FF;}
	.st6{font-size:10.4549px;}
</style>
<g>
	<text transform="matrix(1 0 0 1 164.6665 568.5)" class="st0 st1">Red Cluster</text>
</g>
<g>
	<text transform="matrix(1 0 0 1 488.9582 568.5)" class="st0 st1">Blue Cluster</text>
</g>
<g>
	<circle class="st2" cx="643.1" cy="405.1" r="5.2"/>
	<circle class="st2" cx="489" cy="476.8" r="2.6"/>
	<circle class="st2" cx="627.4" cy="374.5" r="2.6"/>
	<circle class="st2" cx="576.6" cy="390.4" r="2.6"/>
	<circle class="st2" cx="516.9" cy="276.2" r="2.6"/>
</g>
<g>
	<circle class="st3" cx="287.5" cy="391.5" r="2.6"/>
	<circle class="st3" cx="270.2" cy="401.4" r="2.6"/>
	<circle class="st3" cx="296.8" cy="409.4" r="2.6"/>
	<circle class="st3" cx="237" cy="409.4" r="2.6"/>
	<circle class="st3" cx="185.2" cy="467.8" r="2.6"/>
	<circle class="st3" cx="175.9" cy="293.8" r="2.6"/>
</g>
<g>
	<line class="st4" x1="176" y1="293.8" x2="237.2" y2="409.4"/>
	<line class="st4" x1="237.2" y1="409.4" x2="270.4" y2="401.4"/>
	<line class="st4" x1="270.4" y1="401.4" x2="287.7" y2="392.1"/>
	<line class="st4" x1="287.7" y1="392.1" x2="297" y2="409.4"/>
	<line class="st4" x1="297" y1="409.4" x2="185.4" y2="467.8"/>
</g>
<g>
	<line class="st5" x1="517" y1="276.1" x2="576.8" y2="390.6"/>
	<line class="st5" x1="576.8" y1="390.6" x2="627.2" y2="374.7"/>
	<line class="st5" x1="627.2" y1="374.7" x2="643.1" y2="405.3"/>
	<line class="st5" x1="643.1" y1="405.3" x2="489" y2="477"/>
</g>
<text transform="matrix(1 0 0 1 653.6355 408.5)" class="st0 st6">0</text>
<text transform="matrix(1 0 0 1 488.958 490)" class="st0 st6">4</text>
<text transform="matrix(1 0 0 1 635.1912 374.693)" class="st0 st6">1</text>
<text transform="matrix(1 0 0 1 579.1614 382.6405)" class="st0 st6">7</text>
<text transform="matrix(1 0 0 1 516.9724 269.6405)" class="st0 st6">17</text>
<text transform="matrix(1 0 0 1 175.9043 285.6405)" class="st0 st6">18</text>
<text transform="matrix(1 0 0 1 237.2226 401.4417)" class="st0 st6">7</text>
<text transform="matrix(1 0 0 1 270.2047 392.9723)" class="st0 st6">4</text>
<text transform="matrix(1 0 0 1 294.2457 392.1038)" class="st0 st6">2</text>
<text transform="matrix(1 0 0 1 302.7457 411.9724)" class="st0 st6">0</text>
<text transform="matrix(1 0 0 1 185.1666 479.4003)" class="st0 st6">3</text>
</svg>
