<?xml version="1.0" encoding="utf-8"?>
<!-- Generator: Adobe Illustrator 19.0.0, SVG Export Plug-In . SVG Version: 6.00 Build 0)  -->
<svg version="1.1" id="Layer_1" xmlns="http://www.w3.org/2000/svg" xmlns:xlink="http://www.w3.org/1999/xlink" x="0px" y="0px"
	 width="580.3px" height="262.8px" viewBox="-75 265.2 580.3 262.8" style="enable-background:new -75 265.2 580.3 262.8;"
	 xml:space="preserve">
<style type="text/css">
	.st0{fill:none;stroke:#E000E2;stroke-width:0.25;stroke-miterlimit:10;}
	.st1{fill:none;stroke:#000000;stroke-linejoin:round;}
	.st2{fill:none;stroke:#E000E2;stroke-width:0.5;stroke-miterlimit:10;}
	.st3{fill:#E000E2;}
	.st4{fill:none;stroke:#2200C6;stroke-width:0.5;stroke-miterlimit:10;}
	.st5{fill:#2200C6;}
	.st6{fill:#00A651;}
	.st7{fill:none;stroke:#2200C6;stroke-width:0.25;stroke-miterlimit:10;}
	.st8{fill:none;stroke:#00A651;stroke-width:2;stroke-linecap:round;stroke-miterlimit:10;}
</style>
<g id="XMLID_707_">
	<path id="XMLID_708_" class="st0" d="M106.8,376.6v118.9c-27.7,2.7-49.7,4-66.2,4c-7.4,0-13.7-0.3-18.7-0.8
		c-43.6-4.8-66.5-26.5-68.6-65c0-1.9,0-3.7,0-5.6V395c0-26.3,9.2-44,27.5-53c7.7-4.2,16.5-6.4,26.3-6.4c1.6,0,3.1,0.1,4.4,0.4
		c11.7,0.5,21.8,1.9,30.3,4.2c8.5,2.3,15.6,5,21.1,8.2c0-17-14.2-25.5-42.7-25.5l3.6-30.3c10.1,0,19.2,0.6,27.3,1.8
		c8.1,1.2,15,3.2,20.5,6c5.6,2.8,10.5,5.7,14.8,8.6s7.6,6.8,10,11.6c2.4,4.8,4.4,9,6,12.6c1.6,3.6,2.7,8.4,3.2,14.6
		c0.5,6.1,0.9,10.9,1,14.4C106.8,365.3,106.8,370.2,106.8,376.6z"/>
</g>
<g id="figure_1">
	<g id="axes_1">
		<g id="LineCollection_1">
			<g id="XMLID_704_">
				<path id="XMLID_705_" class="st1" d="M30,395.2L30,395.2"/>
			</g>
			<g id="XMLID_693_">
				<path id="XMLID_703_" class="st2" d="M30,395.2L62.3,349"/>
			</g>
			<g id="XMLID_691_">
				<path id="XMLID_692_" class="st2" d="M30,395.2l-9.3-73.3"/>
			</g>
			<g id="XMLID_685_">
				<path id="XMLID_690_" class="st2" d="M30,395.2l-5.8-101.2"/>
			</g>
			<g id="XMLID_439_">
				<path id="XMLID_484_" class="st2" d="M30,395.2l76.2-23.7"/>
			</g>
			<g id="XMLID_402_">
				<path id="XMLID_405_" class="st2" d="M30,395.2l76.2,99.6"/>
			</g>
			<g id="XMLID_399_">
				<path id="XMLID_400_" class="st2" d="M30,395.2l5.1,103.5"/>
			</g>
			<g id="XMLID_393_">
				<path id="XMLID_395_" class="st2" d="M30,395.2l-76.2,38.6"/>
			</g>
			<g id="XMLID_387_">
				<path id="XMLID_390_" class="st2" d="M30,395.2l-76.2-1.4"/>
			</g>
			<g id="XMLID_380_">
				<path id="XMLID_386_" class="st2" d="M30,395.2L7.9,336.1"/>
			</g>
		</g>
		<g id="PathCollection_1">
			<g id="XMLID_60_">
				<g id="XMLID_61_">
					<g id="XMLID_162_">
						<path id="ma8dfbbfd49" class="st3" d="M30,400.1c1.3,0,2.6-0.5,3.5-1.5s1.5-2.2,1.5-3.5c0-1.3-0.5-2.6-1.5-3.5
							s-2.2-1.5-3.5-1.5s-2.6,0.5-3.5,1.5s-1.5,2.2-1.5,3.5c0,1.3,0.5,2.6,1.5,3.5S28.7,400.1,30,400.1z"/>
					</g>
					<g id="XMLID_160_">
						<path id="ma8dfbbfd49_1_" class="st3" d="M62.3,351.5c0.7,0,1.3-0.3,1.8-0.7c0.5-0.5,0.7-1.1,0.7-1.8s-0.3-1.3-0.7-1.8
							c-0.5-0.5-1.1-0.7-1.8-0.7c-0.7,0-1.3,0.3-1.8,0.7s-0.7,1.1-0.7,1.8s0.3,1.3,0.7,1.8S61.7,351.5,62.3,351.5z"/>
					</g>
					<g id="XMLID_158_">
						<path id="ma8dfbbfd49_2_" class="st3" d="M20.7,324.4c0.7,0,1.3-0.3,1.8-0.7c0.5-0.5,0.7-1.1,0.7-1.8c0-0.7-0.3-1.3-0.7-1.8
							c-0.5-0.5-1.1-0.7-1.8-0.7c-0.7,0-1.3,0.3-1.8,0.7s-0.7,1.1-0.7,1.8c0,0.7,0.3,1.3,0.7,1.8S20.1,324.4,20.7,324.4z"/>
					</g>
					<g id="XMLID_141_">
						<path id="ma8dfbbfd49_3_" class="st3" d="M24.2,296.4c0.7,0,1.3-0.3,1.8-0.7c0.5-0.5,0.7-1.1,0.7-1.8c0-0.7-0.3-1.3-0.7-1.8
							c-0.5-0.5-1.1-0.7-1.8-0.7c-0.7,0-1.3,0.3-1.8,0.7c-0.5,0.5-0.7,1.1-0.7,1.8c0,0.7,0.3,1.3,0.7,1.8
							C22.9,296.2,23.6,296.4,24.2,296.4z"/>
					</g>
					<g id="XMLID_130_">
						<path id="ma8dfbbfd49_4_" class="st3" d="M106.3,373.9c0.7,0,1.3-0.3,1.8-0.7c0.5-0.5,0.7-1.1,0.7-1.8s-0.3-1.3-0.7-1.8
							c-0.5-0.5-1.1-0.7-1.8-0.7s-1.3,0.3-1.8,0.7c-0.5,0.5-0.7,1.1-0.7,1.8s0.3,1.3,0.7,1.8C105,373.7,105.6,373.9,106.3,373.9z"/>
					</g>
					<g id="XMLID_128_">
						<path id="ma8dfbbfd49_5_" class="st3" d="M106.3,497.2c0.7,0,1.3-0.3,1.8-0.7s0.7-1.1,0.7-1.8c0-0.7-0.3-1.3-0.7-1.8
							s-1.1-0.7-1.8-0.7s-1.3,0.3-1.8,0.7s-0.7,1.1-0.7,1.8c0,0.7,0.3,1.3,0.7,1.8S105.6,497.2,106.3,497.2z"/>
					</g>
					<g id="XMLID_71_">
						<path id="ma8dfbbfd49_6_" class="st3" d="M35.1,501.2c0.7,0,1.3-0.3,1.8-0.7c0.5-0.5,0.7-1.1,0.7-1.8c0-0.7-0.3-1.3-0.7-1.8
							c-0.5-0.5-1.1-0.7-1.8-0.7c-0.7,0-1.3,0.3-1.8,0.7c-0.5,0.5-0.7,1.1-0.7,1.8c0,0.7,0.3,1.3,0.7,1.8
							C33.8,500.9,34.4,501.2,35.1,501.2z"/>
					</g>
					<g id="XMLID_69_">
						<path id="ma8dfbbfd49_7_" class="st3" d="M-46.2,436.3c0.7,0,1.3-0.3,1.8-0.7s0.7-1.1,0.7-1.8c0-0.7-0.3-1.3-0.7-1.8
							s-1.1-0.7-1.8-0.7s-1.3,0.3-1.8,0.7s-0.7,1.1-0.7,1.8c0,0.7,0.3,1.3,0.7,1.8S-46.8,436.3-46.2,436.3z"/>
					</g>
					<g id="XMLID_63_">
						<path id="ma8dfbbfd49_8_" class="st3" d="M-46.2,396.2c0.7,0,1.3-0.3,1.8-0.7c0.5-0.5,0.7-1.1,0.7-1.8s-0.3-1.3-0.7-1.8
							c-0.5-0.5-1.1-0.7-1.8-0.7s-1.3,0.3-1.8,0.7c-0.5,0.5-0.7,1.1-0.7,1.8s0.3,1.3,0.7,1.8C-47.5,395.9-46.8,396.2-46.2,396.2z"/>
					</g>
					<g id="XMLID_62_">
						<path id="ma8dfbbfd49_9_" class="st3" d="M7.9,338.5c0.7,0,1.3-0.3,1.8-0.7s0.7-1.1,0.7-1.8s-0.3-1.3-0.7-1.8
							s-1.1-0.7-1.8-0.7s-1.3,0.3-1.8,0.7c-0.5,0.5-0.7,1.1-0.7,1.8s0.3,1.3,0.7,1.8C6.6,338.3,7.2,338.5,7.9,338.5z"/>
					</g>
				</g>
			</g>
		</g>
	</g>
</g>
<g id="figure_1_1_">
	<g id="axes_1_1_">
		<g id="LineCollection_1_1_">
			<g id="XMLID_744_">
				<path id="XMLID_745_" class="st1" d="M216.4,395.2L216.4,395.2"/>
			</g>
			<g id="XMLID_742_">
				<path id="XMLID_743_" class="st4" d="M216.4,395.2l58.7-38.2"/>
			</g>
			<g id="XMLID_740_">
				<path id="XMLID_741_" class="st4" d="M216.4,395.2l-7-89.4"/>
			</g>
			<g id="XMLID_738_">
				<path id="XMLID_739_" class="st4" d="M216.4,395.2l-5.8-101.2"/>
			</g>
			<g id="XMLID_736_">
				<path id="XMLID_737_" class="st4" d="M216.4,395.2l76.2-23.7"/>
			</g>
			<g id="XMLID_734_">
				<path id="XMLID_735_" class="st4" d="M216.4,395.2l76.2,99.6"/>
			</g>
			<g id="XMLID_732_">
				<path id="XMLID_733_" class="st4" d="M216.4,395.2l5.1,103.5"/>
			</g>
			<g id="XMLID_730_">
				<path id="XMLID_731_" class="st4" d="M216.4,395.2l-76.2,38.6"/>
			</g>
			<g id="XMLID_728_">
				<path id="XMLID_729_" class="st4" d="M216.4,395.2l-76.2-1.4"/>
			</g>
			<g id="XMLID_726_">
				<path id="XMLID_727_" class="st4" d="M216.4,395.2l-22.2-59.1"/>
			</g>
		</g>
		<g id="PathCollection_1_1_">
			<g id="XMLID_714_">
				<g id="XMLID_715_">
					<g id="XMLID_725_">
						<path id="ma8dfbbfd49_19_" class="st5" d="M216.4,400.1c1.3,0,2.6-0.5,3.5-1.5c0.9-0.9,1.5-2.2,1.5-3.5c0-1.3-0.5-2.6-1.5-3.5
							c-0.9-0.9-2.2-1.5-3.5-1.5c-1.3,0-2.6,0.5-3.5,1.5c-0.9,0.9-1.5,2.2-1.5,3.5c0,1.3,0.5,2.6,1.5,3.5
							C213.9,399.6,215.1,400.1,216.4,400.1z"/>
					</g>
					<g id="XMLID_724_">
						<path id="ma8dfbbfd49_18_" class="st5" d="M275.1,359.5c0.7,0,1.3-0.3,1.8-0.7s0.7-1.1,0.7-1.8c0-0.7-0.3-1.3-0.7-1.8
							s-1.1-0.7-1.8-0.7c-0.7,0-1.3,0.3-1.8,0.7s-0.7,1.1-0.7,1.8c0,0.7,0.3,1.3,0.7,1.8S274.5,359.5,275.1,359.5z"/>
					</g>
					<g id="XMLID_723_">
						<path id="ma8dfbbfd49_17_" class="st5" d="M209.4,308.3c0.7,0,1.3-0.3,1.8-0.7s0.7-1.1,0.7-1.8c0-0.7-0.3-1.3-0.7-1.8
							s-1.1-0.7-1.8-0.7c-0.7,0-1.3,0.3-1.8,0.7s-0.7,1.1-0.7,1.8c0,0.7,0.3,1.3,0.7,1.8S208.7,308.3,209.4,308.3z"/>
					</g>
					<g id="XMLID_722_">
						<path id="ma8dfbbfd49_16_" class="st5" d="M210.6,296.4c0.7,0,1.3-0.3,1.8-0.7s0.7-1.1,0.7-1.8c0-0.7-0.3-1.3-0.7-1.8
							s-1.1-0.7-1.8-0.7c-0.7,0-1.3,0.3-1.8,0.7s-0.7,1.1-0.7,1.8c0,0.7,0.3,1.3,0.7,1.8S209.9,296.4,210.6,296.4z"/>
					</g>
					<g id="XMLID_721_">
						<path id="ma8dfbbfd49_15_" class="st5" d="M292.7,373.9c0.7,0,1.3-0.3,1.8-0.7c0.5-0.5,0.7-1.1,0.7-1.8s-0.3-1.3-0.7-1.8
							c-0.5-0.5-1.1-0.7-1.8-0.7s-1.3,0.3-1.8,0.7c-0.5,0.5-0.7,1.1-0.7,1.8s0.3,1.3,0.7,1.8C291.4,373.7,292,373.9,292.7,373.9z"/>
					</g>
					<g id="XMLID_720_">
						<path id="ma8dfbbfd49_14_" class="st5" d="M292.7,497.2c0.7,0,1.3-0.3,1.8-0.7s0.7-1.1,0.7-1.8c0-0.7-0.3-1.3-0.7-1.8
							s-1.1-0.7-1.8-0.7s-1.3,0.3-1.8,0.7s-0.7,1.1-0.7,1.8c0,0.7,0.3,1.3,0.7,1.8S292,497.2,292.7,497.2z"/>
					</g>
					<g id="XMLID_719_">
						<path id="ma8dfbbfd49_13_" class="st5" d="M221.5,501.2c0.7,0,1.3-0.3,1.8-0.7s0.7-1.1,0.7-1.8c0-0.7-0.3-1.3-0.7-1.8
							s-1.1-0.7-1.8-0.7c-0.7,0-1.3,0.3-1.8,0.7s-0.7,1.1-0.7,1.8c0,0.7,0.3,1.3,0.7,1.8S220.8,501.2,221.5,501.2z"/>
					</g>
					<g id="XMLID_718_">
						<path id="ma8dfbbfd49_12_" class="st5" d="M140.2,436.3c0.7,0,1.3-0.3,1.8-0.7c0.5-0.5,0.7-1.1,0.7-1.8c0-0.7-0.3-1.3-0.7-1.8
							c-0.5-0.5-1.1-0.7-1.8-0.7c-0.7,0-1.3,0.3-1.8,0.7c-0.5,0.5-0.7,1.1-0.7,1.8c0,0.7,0.3,1.3,0.7,1.8
							C138.9,436,139.6,436.3,140.2,436.3z"/>
					</g>
					<g id="XMLID_717_">
						<path id="ma8dfbbfd49_11_" class="st5" d="M140.2,396.2c0.7,0,1.3-0.3,1.8-0.7c0.5-0.5,0.7-1.1,0.7-1.8s-0.3-1.3-0.7-1.8
							c-0.5-0.5-1.1-0.7-1.8-0.7c-0.7,0-1.3,0.3-1.8,0.7c-0.5,0.5-0.7,1.1-0.7,1.8s0.3,1.3,0.7,1.8
							C138.9,395.9,139.6,396.2,140.2,396.2z"/>
					</g>
					<g id="XMLID_716_">
						<path id="ma8dfbbfd49_10_" class="st5" d="M194.3,338.5c0.7,0,1.3-0.3,1.8-0.7s0.7-1.1,0.7-1.8s-0.3-1.3-0.7-1.8
							s-1.1-0.7-1.8-0.7c-0.7,0-1.3,0.3-1.8,0.7s-0.7,1.1-0.7,1.8s0.3,1.3,0.7,1.8S193.6,338.5,194.3,338.5z"/>
					</g>
				</g>
			</g>
		</g>
	</g>
</g>
<g id="figure_1_3_">
	<g id="axes_1_3_">
		<g id="LineCollection_1_3_">
			<g id="XMLID_1121_">
				<path id="XMLID_1122_" class="st1" d="M401.4,395.2L401.4,395.2"/>
			</g>
			<g id="XMLID_1119_">
				<path id="XMLID_59_" class="st2" d="M401.4,395.2l32.3-46.2"/>
			</g>
			<g id="XMLID_1116_">
				<path id="XMLID_1118_" class="st2" d="M401.4,395.2l-9.3-73.3"/>
			</g>
			<g id="XMLID_1114_">
				<path id="XMLID_1115_" class="st2" d="M401.4,395.2l-5.8-101.2"/>
			</g>
			<g id="XMLID_1108_">
				<path id="XMLID_1113_" class="st2" d="M401.4,395.2l76.2-23.7"/>
			</g>
			<g id="XMLID_1101_">
				<path id="XMLID_1105_" class="st2" d="M401.4,395.2l76.2,99.6"/>
			</g>
			<g id="XMLID_1085_">
				<path id="XMLID_1098_" class="st2" d="M401.4,395.2l5.1,103.5"/>
			</g>
			<g id="XMLID_1074_">
				<path id="XMLID_1081_" class="st2" d="M401.4,395.2l-76.2,38.6"/>
			</g>
			<g id="XMLID_1040_">
				<path id="XMLID_1045_" class="st2" d="M401.4,395.2l-76.2-1.4"/>
			</g>
			<g id="XMLID_1038_">
				<path id="XMLID_1039_" class="st2" d="M401.4,395.2l-22.2-59.1"/>
			</g>
		</g>
		<g id="PathCollection_1_3_">
			<g id="XMLID_835_">
				<g id="XMLID_836_">
					<g id="XMLID_1037_">
						<path id="ma8dfbbfd49_39_" class="st3" d="M401.4,400.1c1.3,0,2.6-0.5,3.5-1.5s1.5-2.2,1.5-3.5c0-1.3-0.5-2.6-1.5-3.5
							s-2.2-1.5-3.5-1.5c-1.3,0-2.6,0.5-3.5,1.5s-1.5,2.2-1.5,3.5c0,1.3,0.5,2.6,1.5,3.5S400,400.1,401.4,400.1z"/>
					</g>
					<g id="XMLID_1033_">
						<g id="ma8dfbbfd49_38_">
							<path class="st3" d="M433.7,352c-0.8,0-1.5-0.3-2.1-0.9s-0.9-1.3-0.9-2.1s0.3-1.5,0.9-2.1s1.3-0.9,2.1-0.9s1.5,0.3,2.1,0.9
								s0.9,1.3,0.9,2.1s-0.3,1.5-0.9,2.1S434.5,352,433.7,352z"/>
							<path class="st6" d="M433.7,346.5c0.7,0,1.3,0.3,1.8,0.7c0.5,0.5,0.7,1.1,0.7,1.8s-0.3,1.3-0.7,1.8c-0.5,0.5-1.1,0.7-1.8,0.7
								s-1.3-0.3-1.8-0.7c-0.5-0.5-0.7-1.1-0.7-1.8s0.3-1.3,0.7-1.8C432.4,346.8,433,346.5,433.7,346.5 M433.7,345.5
								c-0.9,0-1.8,0.4-2.5,1c-0.7,0.7-1,1.5-1,2.5s0.4,1.8,1,2.5c0.7,0.7,1.5,1,2.5,1c0.9,0,1.8-0.4,2.5-1c0.7-0.7,1-1.5,1-2.5
								s-0.4-1.8-1-2.5C435.5,345.9,434.6,345.5,433.7,345.5L433.7,345.5z"/>
						</g>
					</g>
					<g id="XMLID_1026_">
						<g id="ma8dfbbfd49_37_">
							<path class="st3" d="M392,324.9c-0.8,0-1.5-0.3-2.1-0.9s-0.9-1.3-0.9-2.1s0.3-1.5,0.9-2.1s1.3-0.9,2.1-0.9s1.5,0.3,2.1,0.9
								s0.9,1.3,0.9,2.1s-0.3,1.5-0.9,2.1S392.8,324.9,392,324.9z"/>
							<path class="st6" d="M392,319.4c0.7,0,1.3,0.3,1.8,0.7s0.7,1.1,0.7,1.8c0,0.7-0.3,1.3-0.7,1.8s-1.1,0.7-1.8,0.7
								s-1.3-0.3-1.8-0.7s-0.7-1.1-0.7-1.8c0-0.7,0.3-1.3,0.7-1.8S391.4,319.4,392,319.4 M392,318.4c-0.9,0-1.8,0.4-2.5,1
								s-1,1.5-1,2.5s0.4,1.8,1,2.5s1.5,1,2.5,1c0.9,0,1.8-0.4,2.5-1c0.7-0.7,1-1.5,1-2.5c0-0.9-0.4-1.8-1-2.5
								C393.8,318.7,393,318.4,392,318.4L392,318.4z"/>
						</g>
					</g>
					<g id="XMLID_1025_">
						<path id="ma8dfbbfd49_36_" class="st3" d="M395.5,296.4c0.7,0,1.3-0.3,1.8-0.7s0.7-1.1,0.7-1.8c0-0.7-0.3-1.3-0.7-1.8
							s-1.1-0.7-1.8-0.7s-1.3,0.3-1.8,0.7s-0.7,1.1-0.7,1.8c0,0.7,0.3,1.3,0.7,1.8S394.9,296.4,395.5,296.4z"/>
					</g>
					<g id="XMLID_1023_">
						<path id="ma8dfbbfd49_35_" class="st3" d="M477.6,373.9c0.7,0,1.3-0.3,1.8-0.7c0.5-0.5,0.7-1.1,0.7-1.8s-0.3-1.3-0.7-1.8
							c-0.5-0.5-1.1-0.7-1.8-0.7c-0.7,0-1.3,0.3-1.8,0.7c-0.5,0.5-0.7,1.1-0.7,1.8s0.3,1.3,0.7,1.8
							C476.3,373.7,476.9,373.9,477.6,373.9z"/>
					</g>
					<g id="XMLID_843_">
						<path id="ma8dfbbfd49_34_" class="st3" d="M477.6,497.2c0.7,0,1.3-0.3,1.8-0.7s0.7-1.1,0.7-1.8c0-0.7-0.3-1.3-0.7-1.8
							s-1.1-0.7-1.8-0.7c-0.7,0-1.3,0.3-1.8,0.7s-0.7,1.1-0.7,1.8c0,0.7,0.3,1.3,0.7,1.8S476.9,497.2,477.6,497.2z"/>
					</g>
					<g id="XMLID_841_">
						<path id="ma8dfbbfd49_33_" class="st3" d="M406.4,501.2c0.7,0,1.3-0.3,1.8-0.7s0.7-1.1,0.7-1.8c0-0.7-0.3-1.3-0.7-1.8
							s-1.1-0.7-1.8-0.7c-0.7,0-1.3,0.3-1.8,0.7s-0.7,1.1-0.7,1.8c0,0.7,0.3,1.3,0.7,1.8S405.8,501.2,406.4,501.2z"/>
					</g>
					<g id="XMLID_839_">
						<path id="ma8dfbbfd49_32_" class="st3" d="M325.1,436.3c0.7,0,1.3-0.3,1.8-0.7s0.7-1.1,0.7-1.8c0-0.7-0.3-1.3-0.7-1.8
							s-1.1-0.7-1.8-0.7c-0.7,0-1.3,0.3-1.8,0.7s-0.7,1.1-0.7,1.8c0,0.7,0.3,1.3,0.7,1.8S324.5,436.3,325.1,436.3z"/>
					</g>
					<g id="XMLID_838_">
						<path id="ma8dfbbfd49_31_" class="st3" d="M325.1,396.2c0.7,0,1.3-0.3,1.8-0.7c0.5-0.5,0.7-1.1,0.7-1.8s-0.3-1.3-0.7-1.8
							c-0.5-0.5-1.1-0.7-1.8-0.7c-0.7,0-1.3,0.3-1.8,0.7c-0.5,0.5-0.7,1.1-0.7,1.8s0.3,1.3,0.7,1.8
							C323.9,395.9,324.5,396.2,325.1,396.2z"/>
					</g>
					<g id="XMLID_837_">
						<path id="ma8dfbbfd49_30_" class="st3" d="M379.2,338.5c0.7,0,1.3-0.3,1.8-0.7s0.7-1.1,0.7-1.8s-0.3-1.3-0.7-1.8
							s-1.1-0.7-1.8-0.7c-0.7,0-1.3,0.3-1.8,0.7s-0.7,1.1-0.7,1.8s0.3,1.3,0.7,1.8S378.5,338.5,379.2,338.5z"/>
					</g>
				</g>
			</g>
		</g>
	</g>
</g>
<g id="figure_1_2_">
	<g id="axes_1_2_">
		<g id="LineCollection_1_2_">
			<g id="XMLID_832_">
				<path id="XMLID_834_" class="st1" d="M401.4,395.2L401.4,395.2"/>
			</g>
			<g id="XMLID_795_">
				<path id="XMLID_831_" class="st4" d="M401.4,395.2L460,357"/>
			</g>
			<g id="XMLID_792_">
				<path id="XMLID_794_" class="st4" d="M401.4,395.2l-7-89.4"/>
			</g>
			<g id="XMLID_789_">
				<path id="XMLID_791_" class="st4" d="M401.4,395.2l-5.8-101.2"/>
			</g>
			<g id="XMLID_786_">
				<path id="XMLID_788_" class="st4" d="M401.4,395.2l76.2-23.7"/>
			</g>
			<g id="XMLID_783_">
				<path id="XMLID_785_" class="st4" d="M401.4,395.2l76.2,99.6"/>
			</g>
			<g id="XMLID_764_">
				<path id="XMLID_782_" class="st4" d="M401.4,395.2l5.1,103.5"/>
			</g>
			<g id="XMLID_762_">
				<path id="XMLID_763_" class="st4" d="M401.4,395.2l-76.2,38.6"/>
			</g>
			<g id="XMLID_760_">
				<path id="XMLID_761_" class="st4" d="M401.4,395.2l-76.2-1.4"/>
			</g>
			<g id="XMLID_758_">
				<path id="XMLID_759_" class="st4" d="M401.4,395.2l-22.2-59.1"/>
			</g>
		</g>
		<g id="PathCollection_1_2_">
			<g id="XMLID_746_">
				<g id="XMLID_747_">
					<g id="XMLID_757_">
						<path id="ma8dfbbfd49_29_" class="st5" d="M401.4,400.1c1.3,0,2.6-0.5,3.5-1.5s1.5-2.2,1.5-3.5c0-1.3-0.5-2.6-1.5-3.5
							s-2.2-1.5-3.5-1.5c-1.3,0-2.6,0.5-3.5,1.5s-1.5,2.2-1.5,3.5c0,1.3,0.5,2.6,1.5,3.5S400,400.1,401.4,400.1z"/>
					</g>
					<g id="XMLID_756_">
						<g id="ma8dfbbfd49_28_">
							<path class="st5" d="M460,360c-0.8,0-1.5-0.3-2.1-0.9s-0.9-1.3-0.9-2.1c0-0.8,0.3-1.6,0.9-2.1c0.6-0.6,1.3-0.9,2.1-0.9
								s1.5,0.3,2.1,0.9c0.6,0.6,0.9,1.3,0.9,2.1c0,0.8-0.3,1.5-0.9,2.1C461.6,359.7,460.8,360,460,360z"/>
							<path class="st6" d="M460,354.5c0.7,0,1.3,0.3,1.8,0.7c0.5,0.5,0.7,1.1,0.7,1.8s-0.3,1.3-0.7,1.8c-0.5,0.5-1.1,0.7-1.8,0.7
								c-0.7,0-1.3-0.3-1.8-0.7c-0.5-0.5-0.7-1.1-0.7-1.8s0.3-1.3,0.7-1.8C458.7,354.8,459.4,354.5,460,354.5 M460,353.5
								c-0.9,0-1.8,0.4-2.5,1c-0.7,0.7-1,1.5-1,2.5c0,0.9,0.4,1.8,1,2.5c0.7,0.7,1.5,1,2.5,1c0.9,0,1.8-0.4,2.5-1
								c0.7-0.7,1-1.5,1-2.5c0-0.9-0.4-1.8-1-2.5C461.8,353.9,461,353.5,460,353.5L460,353.5z"/>
						</g>
					</g>
					<g id="XMLID_755_">
						<g id="ma8dfbbfd49_27_">
							<path class="st5" d="M394.3,308.8c-0.8,0-1.6-0.3-2.1-0.9c-0.6-0.6-0.9-1.3-0.9-2.1s0.3-1.5,0.9-2.1c0.6-0.6,1.3-0.9,2.1-0.9
								c0.8,0,1.5,0.3,2.1,0.9s0.9,1.3,0.9,2.1s-0.3,1.5-0.9,2.1S395.1,308.8,394.3,308.8z"/>
							<path class="st6" d="M394.3,303.3c0.7,0,1.3,0.3,1.8,0.7s0.7,1.1,0.7,1.8c0,0.7-0.3,1.3-0.7,1.8s-1.1,0.7-1.8,0.7
								c-0.7,0-1.3-0.3-1.8-0.7s-0.7-1.1-0.7-1.8c0-0.7,0.3-1.3,0.7-1.8S393.7,303.3,394.3,303.3 M394.3,302.3c-0.9,0-1.8,0.4-2.5,1
								c-0.7,0.7-1,1.5-1,2.5s0.4,1.8,1,2.5c0.7,0.7,1.5,1,2.5,1c0.9,0,1.8-0.4,2.5-1c0.7-0.7,1-1.5,1-2.5s-0.4-1.8-1-2.5
								C396.1,302.7,395.3,302.3,394.3,302.3L394.3,302.3z"/>
						</g>
					</g>
					<g id="XMLID_754_">
						<path id="ma8dfbbfd49_26_" class="st5" d="M395.5,296.4c0.7,0,1.3-0.3,1.8-0.7s0.7-1.1,0.7-1.8c0-0.7-0.3-1.3-0.7-1.8
							s-1.1-0.7-1.8-0.7c-0.7,0-1.3,0.3-1.8,0.7s-0.7,1.1-0.7,1.8c0,0.7,0.3,1.3,0.7,1.8S394.9,296.4,395.5,296.4z"/>
					</g>
					<g id="XMLID_753_">
						<path id="ma8dfbbfd49_25_" class="st5" d="M477.6,373.9c0.7,0,1.3-0.3,1.8-0.7c0.5-0.5,0.7-1.1,0.7-1.8s-0.3-1.3-0.7-1.8
							c-0.5-0.5-1.1-0.7-1.8-0.7s-1.3,0.3-1.8,0.7c-0.5,0.5-0.7,1.1-0.7,1.8s0.3,1.3,0.7,1.8C476.3,373.7,476.9,373.9,477.6,373.9z"
							/>
					</g>
					<g id="XMLID_752_">
						<path id="ma8dfbbfd49_24_" class="st5" d="M477.6,497.2c0.7,0,1.3-0.3,1.8-0.7c0.5-0.5,0.7-1.1,0.7-1.8c0-0.7-0.3-1.3-0.7-1.8
							c-0.5-0.5-1.1-0.7-1.8-0.7s-1.3,0.3-1.8,0.7c-0.5,0.5-0.7,1.1-0.7,1.8c0,0.7,0.3,1.3,0.7,1.8
							C476.3,497,476.9,497.2,477.6,497.2z"/>
					</g>
					<g id="XMLID_751_">
						<path id="ma8dfbbfd49_23_" class="st5" d="M406.4,501.2c0.7,0,1.3-0.3,1.8-0.7s0.7-1.1,0.7-1.8c0-0.7-0.3-1.3-0.7-1.8
							s-1.1-0.7-1.8-0.7s-1.3,0.3-1.8,0.7s-0.7,1.1-0.7,1.8c0,0.7,0.3,1.3,0.7,1.8S405.8,501.2,406.4,501.2z"/>
					</g>
					<g id="XMLID_750_">
						<path id="ma8dfbbfd49_22_" class="st5" d="M325.1,436.3c0.7,0,1.3-0.3,1.8-0.7s0.7-1.1,0.7-1.8c0-0.7-0.3-1.3-0.7-1.8
							s-1.1-0.7-1.8-0.7s-1.3,0.3-1.8,0.7s-0.7,1.1-0.7,1.8c0,0.7,0.3,1.3,0.7,1.8S324.5,436.3,325.1,436.3z"/>
					</g>
					<g id="XMLID_749_">
						<path id="ma8dfbbfd49_21_" class="st5" d="M325.1,396.2c0.7,0,1.3-0.3,1.8-0.7c0.5-0.5,0.7-1.1,0.7-1.8s-0.3-1.3-0.7-1.8
							c-0.5-0.5-1.1-0.7-1.8-0.7s-1.3,0.3-1.8,0.7c-0.5,0.5-0.7,1.1-0.7,1.8s0.3,1.3,0.7,1.8C323.9,395.9,324.5,396.2,325.1,396.2z"
							/>
					</g>
					<g id="XMLID_748_">
						<path id="ma8dfbbfd49_20_" class="st5" d="M379.2,338.5c0.7,0,1.3-0.3,1.8-0.7s0.7-1.1,0.7-1.8s-0.3-1.3-0.7-1.8
							s-1.1-0.7-1.8-0.7s-1.3,0.3-1.8,0.7s-0.7,1.1-0.7,1.8s0.3,1.3,0.7,1.8S378.5,338.5,379.2,338.5z"/>
					</g>
				</g>
			</g>
		</g>
	</g>
</g>
<g id="XMLID_706_">
	<path id="XMLID_711_" class="st7" d="M227.2,499.5c-58.2,0-87.4-23.8-87.4-71.4V395c0-26.3,9.3-44,27.9-53
		c9.6-4.5,19.3-6.8,29.1-6.8c32.4,0,58.6,7.4,78.6,22.3c0-15.2-4.6-27.4-13.8-36.7c-9.2-9.3-26-14-50.5-14c-0.5,0-1.2,0-2,0
		l1.2-14.4c21.5,0,37.5,2.5,47.9,7.6c5.6,2.9,10.5,5.9,14.8,8.8c4.3,2.9,7.6,6.8,10,11.6c2.4,4.8,4.4,9,6,12.6
		c1.6,3.6,2.7,8.4,3.2,14.6c0.8,9.3,1.2,19,1.2,29.1v118.9C265.8,498.2,243.7,499.5,227.2,499.5z"/>
</g>
<line id="XMLID_1123_" class="st8" x1="433.7" y1="349" x2="460" y2="357"/>
<line id="XMLID_1120_" class="st8" x1="392" y1="321.9" x2="394.3" y2="305.8"/>
</svg>
