<?xml version="1.0" encoding="utf-8"?>
<!-- Generator: Adobe Illustrator 19.0.0, SVG Export Plug-In . SVG Version: 6.00 Build 0)  -->
<svg version="1.1" id="Layer_1" xmlns="http://www.w3.org/2000/svg" xmlns:xlink="http://www.w3.org/1999/xlink" x="0px" y="0px"
	 width="1201px" height="657px" viewBox="-61 181.4 1201 657" style="enable-background:new -61 181.4 1201 657;"
	 xml:space="preserve">
<style type="text/css">
	.st0{fill:none;stroke:#848484;stroke-width:1.0969;stroke-linecap:round;stroke-linejoin:round;}
	.st1{fill:#FFFFFF;stroke:#848484;stroke-width:1.0969;stroke-linecap:round;stroke-linejoin:round;}
	.st2{fill:#FFFFFF;}
	.st3{fill:#848484;}
	.st4{font-family:monospace;}
	.st5{font-size:13.8959px;}
	.st6{opacity:0.5;fill:#008000;enable-background:new    ;}
	.st7{font-size:20.0975px;}
	.st8{opacity:0.5;fill:none;stroke:#008000;stroke-width:0.8774;enable-background:new    ;}
	.st9{fill:#FF0000;}
	.st10{fill:#0000FF;}
	.st11{opacity:0.5;fill:none;stroke:#008000;stroke-width:0.8774;stroke-dasharray:2.0869;enable-background:new    ;}
	.st12{fill:#FFFFFF;stroke:#008000;stroke-width:0.8774;enable-background:new    ;}
	.st13{font-size:15.2287px;}
	.st14{opacity:0.5;enable-background:new    ;}
	.st15{opacity:0.5;fill:#008000;stroke:#008000;stroke-width:0.8774;enable-background:new    ;}
	.st16{fill:none;stroke:#0000FF;stroke-width:1.0969;stroke-linecap:round;stroke-linejoin:round;}
	.st17{fill:#0000FF;stroke:#0000FF;stroke-width:1.0969;stroke-linejoin:round;}
	.st18{fill:none;stroke:#FF0000;stroke-width:1.0969;stroke-linecap:round;stroke-linejoin:round;}
	.st19{fill:#FFFFFF;stroke:#FF0000;stroke-width:1.0969;stroke-linejoin:round;}
	.st20{fill:#FF0000;stroke:#FF0000;stroke-width:1.0969;stroke-linejoin:round;}
	.st21{fill:#FF0000;stroke:#FF0000;stroke-width:0.8774;}
	.st22{opacity:0.5;}
	.st23{fill:none;stroke:#FF0000;stroke-width:0.8774;}
	.st24{opacity:0.5;fill:none;stroke:#0000FF;stroke-width:0.8774;enable-background:new    ;}
	.st25{fill:none;stroke:#FF9100;stroke-width:0.8774;}
	.st26{font-family:monospace;}
	.st27{font-size:14.2068px;}
	.st28{fill:none;stroke:#0000FF;stroke-width:0.8774;}
	.st29{fill:none;stroke:#008000;stroke-width:0.8774;stroke-dasharray:2.0869;}
</style>
<g id="New_Symbol_1">
	<g id="XMLID_105_">
		<g id="XMLID_204_">
			<line id="XMLID_322_" class="st0" x1="820.5" y1="420" x2="1036.3" y2="523.1"/>
			<path id="XMLID_321_" class="st0" d="M1034.7,518.7l1.5,4.4l-4.4,1.5"/>
			<g id="XMLID_311_">
				<g id="XMLID_312_">
					<g id="XMLID_319_">
						<path id="XMLID_320_" class="st1" d="M1049.5,538.8c2.5,0,4.8-1,6.6-2.7c1.7-1.7,2.7-4.1,2.7-6.6c0-2.5-1-4.8-2.7-6.6
							c-1.7-1.7-4.1-2.7-6.6-2.7c-2.5,0-4.8,1-6.6,2.7c-1.7,1.7-2.7,4.1-2.7,6.6c0,2.5,1,4.8,2.7,6.6
							C1044.6,537.8,1047,538.8,1049.5,538.8z"/>
					</g>
					<g id="text_36_3_">
						<g id="XMLID_315_">
							<g id="XMLID_316_">
								<g id="XMLID_317_" transform="translate(249.058464 384.463284)scale(0.06 -0.06)">
									<g id="XMLID_318_">
										<path id="DejaVuSansMono-Bold-32_4_" class="st2" d="M9570.3-628.2h68.1v-28.2h-102.6v27.3l17.3,18.4
											c20.6,21.9,33.1,35.3,37.5,40.3c5.4,6.2,9.3,11.7,11.7,16.5c2.4,4.8,3.6,9.5,3.6,14.2c0,7.2-2.2,12.8-6.5,16.7
											c-4.4,3.9-10.6,5.9-18.6,5.9c-5.7,0-12.1-1.1-19.2-3.4c-7.1-2.3-14.5-5.6-22.2-9.9v29.8c7.7,2.8,15.3,5,22.7,6.4
											c7.4,1.5,14.5,2.2,21.3,2.2c17.1,0,30.5-4,40.3-12c9.8-8,14.7-18.8,14.7-32.6c0-6.3-1.1-12.3-3.2-17.9
											c-2.1-5.6-5.8-11.7-11-18.5c-3.8-4.9-14.3-16-31.5-33.1C9583.2-615.2,9575.8-622.6,9570.3-628.2z"/>
									</g>
								</g>
							</g>
						</g>
					</g>
					<g id="XMLID_313_">
						<text transform="matrix(1 0 0 1 1045.0912 533.9374)" class="st3 st4 st5">3</text>
					</g>
				</g>
			</g>
			<g id="XMLID_205_">
				<path id="XMLID_310_" class="st0" d="M735.6,583.3l266.4,116.5"/>
				<path id="XMLID_309_" class="st0" d="M1000.1,695.5l1.9,4.3l-4.7,1.9"/>
				<g id="XMLID_208_">
					<path id="XMLID_308_" class="st1" d="M1014.8,714.1c2.5,0,4.8-1,6.6-2.7c1.7-1.7,2.7-4.1,2.7-6.6c0-2.5-1-4.8-2.7-6.6
						c-1.7-1.7-4.1-2.7-6.6-2.7c-2.5,0-4.8,1-6.6,2.7c-1.7,1.7-2.7,4.1-2.7,6.6c0,2.5,1,4.8,2.7,6.6
						C1010,713.1,1012.4,714.1,1014.8,714.1z"/>
				</g>
				<g id="XMLID_206_">
					<text transform="matrix(1 0 0 1 1010.4518 709.2152)" class="st3 st4 st5">3</text>
				</g>
			</g>
		</g>
		<g id="XMLID_108_">
			<text id="XMLID_203_" transform="matrix(1 0 0 1 709.2988 485.774)" class="st6 st4 st7">?</text>
			<line id="XMLID_202_" class="st8" x1="721.7" y1="467.7" x2="764.3" y2="371.7"/>
			<line id="XMLID_201_" class="st8" x1="682.3" y1="556.3" x2="711.4" y2="490.7"/>
			<g id="XMLID_123_">
				<line id="XMLID_200_" class="st8" x1="613.3" y1="593.9" x2="627.4" y2="441"/>
				<line id="XMLID_199_" class="st8" x1="764.3" y1="371.7" x2="734.9" y2="583.7"/>
				<g id="patch_18_4_">
					<g id="XMLID_197_">
						<path id="XMLID_198_" class="st8" d="M682.3,586.6c8.1,0,15.9-3.2,21.7-8.9c5.7-5.7,9-13.4,9-21.4s-3.2-15.7-9-21.4
							c-5.7-5.7-13.5-8.9-21.7-8.9c-8.1,0-15.9,3.2-21.7,8.9c-5.7,5.7-9,13.4-9,21.4s3.2,15.7,9,21.4
							C666.4,583.4,674.2,586.6,682.3,586.6z"/>
					</g>
				</g>
				<g id="XMLID_195_">
					<text transform="matrix(1 0 0 1 607.7997 626.902)" class="st9 st4 st7">P</text>
				</g>
				<g id="XMLID_193_">
					<text transform="matrix(1 0 0 1 671.9729 603.1902)" class="st9 st4 st7">SC</text>
				</g>
				<g id="XMLID_191_">
					<text transform="matrix(1 0 0 1 729.3317 617.0093)" class="st9 st4 st7">A</text>
				</g>
				<g id="XMLID_189_">
					<text transform="matrix(1 0 0 1 617.5971 425.6605)" class="st10 st4 st7">MA</text>
				</g>
				<g id="XMLID_187_">
					<text transform="matrix(1 0 0 1 810.1591 402.5452)" class="st10 st4 st7">MP</text>
				</g>
				<path id="XMLID_186_" class="st11" d="M616.1,563.8c6.2-102.6,130.8-75.8,148.2-192.1"/>
				<path id="XMLID_185_" class="st11" d="M739.5,550.1c9.5-59-117.2-56.2-112.1-109.2"/>
				<g id="XMLID_182_">
					<path id="XMLID_184_" class="st12" d="M653.1,497.7h-42.8c-1.5,0-2.6,1.2-2.6,2.6V517c0,1.5,1.2,2.6,2.6,2.6h42.8
						c1.5,0,2.6-1.2,2.6-2.6v-16.7C655.8,498.9,654.6,497.7,653.1,497.7z"/>
					<text id="XMLID_183_" transform="matrix(1 0 0 1 619.1656 513.3897)" class="st4 st13">fMP</text>
				</g>
				<g id="XMLID_179_">
					<path id="XMLID_181_" class="st12" d="M762.6,503.9h-45.1c-1.5,0-2.6,1.2-2.6,2.6v16.7c0,1.5,1.2,2.6,2.6,2.6h45.1
						c1.5,0,2.6-1.2,2.6-2.6v-16.7C765.2,505.1,764,503.9,762.6,503.9z"/>
					<text id="XMLID_180_" transform="matrix(1 0 0 1 727.4598 519.6186)" class="st4 st13">pMA</text>
				</g>
				<g id="patch_18_3_" class="st14">
					<g id="XMLID_177_">
						<path id="XMLID_178_" class="st15" d="M764.3,405.5c9.2,0,17.9-3.6,24.4-10c6.5-6.4,10.1-15.1,10.1-24.1
							c0-9-3.6-17.7-10.1-24.1c-6.5-6.4-15.3-10-24.4-10s-17.9,3.6-24.4,10c-6.5,6.4-10.1,15.1-10.1,24.1c0,9,3.6,17.7,10.1,24.1
							C746.4,401.9,755.2,405.5,764.3,405.5z"/>
					</g>
				</g>
				<g id="XMLID_148_">
					<path id="XMLID_176_" class="st16" d="M627.4,441c39-19.8,84.9-42.8,122-61.7"/>
					<path id="XMLID_175_" class="st16" d="M745,377.8l4.5,1.5l-1.5,4.5"/>
					<path id="XMLID_174_" class="st16" d="M764.3,371.7c13.1,11.3,34.8,29,46.4,39"/>
					<path id="XMLID_173_" class="st16" d="M810.4,406l0.3,4.7L806,411"/>
					<g id="XMLID_149_">
						<g id="XMLID_171_">
							<path id="XMLID_172_" class="st17" d="M627.4,450.2c2.5,0,4.8-1,6.6-2.7c1.7-1.7,2.7-4.1,2.7-6.6c0-2.5-1-4.8-2.7-6.6
								c-1.7-1.7-4.1-2.7-6.6-2.7c-2.5,0-4.8,1-6.6,2.7c-1.7,1.7-2.7,4.1-2.7,6.6c0,2.5,1,4.8,2.7,6.6
								C622.6,449.3,625,450.2,627.4,450.2z"/>
						</g>
						<g id="XMLID_169_">
							<path id="XMLID_170_" class="st17" d="M764.3,380.9c2.5,0,4.8-1,6.6-2.7c1.7-1.7,2.7-4.1,2.7-6.6c0-2.5-1-4.8-2.7-6.6
								c-1.7-1.7-4.1-2.7-6.6-2.7s-4.8,1-6.6,2.7c-1.7,1.7-2.7,4.1-2.7,6.6c0,2.5,1,4.8,2.7,6.6C759.5,380,761.8,380.9,764.3,380.9z
								"/>
						</g>
						<g id="XMLID_167_">
							<path id="XMLID_168_" class="st17" d="M820.5,429.4c2.5,0,4.8-1,6.6-2.7c1.7-1.7,2.7-4.1,2.7-6.6c0-2.5-1-4.8-2.7-6.6
								c-1.7-1.7-4.1-2.7-6.6-2.7c-2.5,0-4.8,1-6.6,2.7c-1.7,1.7-2.7,4.1-2.7,6.6c0,2.5,1,4.8,2.7,6.6
								C815.6,428.5,818,429.4,820.5,429.4z"/>
						</g>
						<g id="text_35_2_">
							<g id="XMLID_162_">
								<g id="XMLID_163_">
									<g id="XMLID_164_" transform="translate(205.517051 389.15162)scale(0.06 -0.06)">
										<g id="XMLID_166_">
											<path id="DejaVuSansMono-Bold-31_8_" class="st2" d="M6918.8-896.4h35.7v104.9l-33.2-8.2v28.8l33.5,8h30.9v-133.4h35.7
												v-28.2h-102.5V-896.4z"/>
										</g>
										<g id="XMLID_165_">
											<path id="DejaVuSansMono-Bold-31_7_" class="st2" d="M7052.2-896.4h35.7v104.9l-33.2-8.2v28.8l33.5,8h30.9v-133.4h35.7
												v-28.2h-102.5V-896.4z"/>
										</g>
									</g>
								</g>
							</g>
						</g>
						<g id="text_36_2_">
							<g id="XMLID_157_">
								<g id="XMLID_158_">
									<g id="XMLID_159_" transform="translate(249.058464 384.463284)scale(0.06 -0.06)">
										<g id="XMLID_161_">
											<path id="DejaVuSansMono-Bold-31_6_" class="st2" d="M9410.2-628.2h35.7v104.9l-33.3-8.2v28.8l33.5,8h30.9v-133.4h35.7
												v-28.2h-102.5V-628.2z"/>
										</g>
										<g id="XMLID_160_">
											<path id="DejaVuSansMono-Bold-32_3_" class="st2" d="M9570.3-628.2h68.1v-28.2h-102.6v27.3l17.3,18.4
												c20.6,21.9,33.1,35.3,37.5,40.3c5.4,6.2,9.3,11.7,11.7,16.5c2.4,4.8,3.6,9.5,3.6,14.2c0,7.2-2.2,12.8-6.5,16.7
												c-4.4,3.9-10.6,5.9-18.6,5.9c-5.7,0-12.1-1.1-19.2-3.4c-7.1-2.3-14.5-5.6-22.2-9.9v29.8c7.7,2.8,15.3,5,22.7,6.4
												c7.4,1.5,14.5,2.2,21.3,2.2c17.1,0,30.5-4,40.3-12c9.8-8,14.7-18.8,14.7-32.6c0-6.3-1.1-12.3-3.2-17.9
												c-2.1-5.6-5.8-11.7-11-18.5c-3.8-4.9-14.3-16-31.5-33.1C9583.2-615.2,9575.8-622.6,9570.3-628.2z"/>
										</g>
									</g>
								</g>
							</g>
						</g>
						<g id="text_38_2_">
							<g id="XMLID_150_">
								<g id="XMLID_151_">
									<g id="XMLID_152_" transform="translate(236.391871 373.523835)scale(0.06 -0.06)">
										<g id="XMLID_156_">
											<path id="DejaVuSansMono-Bold-31_5_" class="st2" d="M8685.4-2.2h35.7v104.9l-33.3-8.2v28.8l33.5,8h30.9V-2.2h35.7v-28.2
												h-102.5V-2.2z"/>
										</g>
										<g id="XMLID_153_">
											<path id="DejaVuSansMono-Bold-34_2_" class="st2" d="M8873.7,95.8l-40.8-63.9h40.8V95.8z M8870.9,131.3h33.4V31.9h17.8
												V4.5h-17.8v-34.8h-30.6V4.5h-64.1v31L8870.9,131.3z"/>
										</g>
									</g>
								</g>
							</g>
						</g>
					</g>
				</g>
				<g id="XMLID_124_">
					<path id="XMLID_147_" class="st18" d="M613.3,593.9c16.1-8.8,42.4-22.8,56.6-30.6"/>
					<path id="XMLID_146_" class="st18" d="M682.3,556.3c10.6,5.5,31.6,16.3,40.2,20.8"/>
					<g id="XMLID_144_">
						<path id="XMLID_145_" class="st19" d="M613.3,603.2c2.4,0,4.7-1,6.4-2.7c1.7-1.7,2.6-4.1,2.6-6.6s-0.9-4.8-2.6-6.6
							s-4-2.7-6.4-2.7c-2.4,0-4.7,1-6.4,2.7s-2.6,4.1-2.6,6.6s0.9,4.8,2.6,6.6C608.6,602.2,610.9,603.2,613.3,603.2z"/>
					</g>
					<g id="XMLID_142_">
						<text transform="matrix(1 0 0 1 605.6795 597.7722)" class="st9 st4 st5">10</text>
					</g>
					<g id="XMLID_140_">
						<path id="XMLID_141_" class="st20" d="M682.3,565.6c2.4,0,4.7-1,6.4-2.7s2.6-4.1,2.6-6.6c0-2.5-0.9-4.8-2.6-6.6
							c-1.7-1.7-4-2.7-6.4-2.7c-2.4,0-4.7,1-6.4,2.7c-1.7,1.7-2.6,4.1-2.6,6.6c0,2.5,0.9,4.8,2.6,6.6
							C677.6,564.6,679.9,565.6,682.3,565.6z"/>
					</g>
					<g id="XMLID_138_">
						<path id="XMLID_139_" class="st19" d="M734.9,592.9c2.4,0,4.7-1,6.4-2.7s2.6-4.1,2.6-6.6c0-2.5-0.9-4.8-2.6-6.6
							c-1.7-1.7-4-2.7-6.4-2.7s-4.7,1-6.4,2.7c-1.7,1.7-2.6,4.1-2.6,6.6c0,2.5,0.9,4.8,2.6,6.6S732.5,592.9,734.9,592.9z"/>
					</g>
					<g id="XMLID_136_">
						<text transform="matrix(1 0 0 1 727.2078 587.7914)" class="st9 st4 st5">11</text>
					</g>
					<g id="XMLID_134_" class="st14">
						<path id="XMLID_135_" class="st21" d="M681.7,388.6c2.4,0,4.7-1,6.4-2.7c1.7-1.7,2.6-4.1,2.6-6.6c0-2.5-0.9-4.8-2.6-6.6
							c-1.7-1.7-4-2.7-6.4-2.7c-2.4,0-4.7,1-6.4,2.7c-1.7,1.7-2.6,4.1-2.6,6.6c0,2.5,0.9,4.8,2.6,6.6
							C677,387.6,679.3,388.6,681.7,388.6z"/>
					</g>
					<g id="XMLID_132_">
						<text transform="matrix(1 0 0 1 674.0356 383.7657)" class="st2 st4 st5">12</text>
					</g>
					<path id="XMLID_131_" class="st18" d="M665,562.2l4.9,1.2l-1.3,4.6"/>
					<path id="XMLID_130_" class="st18" d="M721.1,572.6l1.4,4.5l-4.9,1.3"/>
					<g id="text_35_1_">
						<g id="XMLID_125_">
							<g id="XMLID_126_">
								<g id="XMLID_127_" transform="translate(218.475408 375.557638)scale(0.06 -0.06)">
									<g id="XMLID_129_">
										<path id="DejaVuSansMono-Bold-31_4_" class="st2" d="M7620.7-3046.2h34.6v104.9l-32.2-8.2v28.8l32.4,8h29.9v-133.4h34.6
											v-28.2h-99.4V-3046.2z"/>
									</g>
									<g id="XMLID_128_">
										<path id="DejaVuSansMono-Bold-32_2_" class="st2" d="M7775.9-3046.2h66v-28.2h-99.5v27.3l16.8,18.4
											c20,21.9,32.1,35.3,36.3,40.3c5.2,6.2,9,11.7,11.3,16.5c2.3,4.8,3.5,9.5,3.5,14.2c0,7.2-2.1,12.8-6.3,16.7
											c-4.2,3.9-10.2,5.9-18,5.9c-5.5,0-11.7-1.1-18.6-3.4c-6.9-2.3-14.1-5.6-21.6-9.9v29.8c7.5,2.8,14.8,5,22,6.4
											s14,2.2,20.6,2.2c16.6,0,29.6-4,39.1-12c9.5-8,14.2-18.8,14.2-32.6c0-6.3-1-12.3-3.1-17.9c-2.1-5.6-5.6-11.7-10.6-18.5
											c-3.7-4.9-13.9-16-30.5-33.1C7788.4-3033.2,7781.2-3040.6,7775.9-3046.2z"/>
									</g>
								</g>
							</g>
						</g>
					</g>
				</g>
			</g>
			<g id="XMLID_114_">
				<g id="XMLID_121_" class="st22">
					<path id="XMLID_122_" class="st23" d="M734.8,600.4c-2.6,0-5.2-0.6-7.7-1.9l-52.6-27.3c-8.2-4.3-11.4-14.3-7.1-22.5
						c4.3-8.2,14.3-11.4,22.5-7.1l52.6,27.3c8.2,4.3,11.4,14.3,7.1,22.5C746.7,597.1,740.9,600.4,734.8,600.4z"/>
				</g>
				<g id="XMLID_119_" class="st22">
					<path id="XMLID_120_" class="st23" d="M613.3,610.6c-5.9,0-11.6-3.2-14.7-8.7c-4.4-8.1-1.4-18.2,6.7-22.6l69-37.6
						c8.1-4.4,18.2-1.4,22.6,6.7c4.4,8.1,1.4,18.2-6.7,22.6l-69,37.6C618.8,610,616,610.6,613.3,610.6z"/>
				</g>
				<g id="XMLID_117_" class="st22">
					<path id="XMLID_118_" class="st24" d="M820.4,436.9c-3.9,0-7.8-1.4-11-4.2l-55.5-48.8c-6.9-6.1-7.6-16.6-1.5-23.6
						c6.1-6.9,16.6-7.6,23.6-1.5l55.5,48.8c6.9,6.1,7.6,16.6,1.5,23.6C829.7,434.9,825.1,436.9,820.4,436.9z"/>
				</g>
				<g id="XMLID_115_" class="st22">
					<path id="XMLID_116_" class="st24" d="M627.4,457.7c-6.1,0-12-3.4-14.9-9.2c-4.2-8.2-0.9-18.3,7.4-22.4l137.5-69.6
						c8.2-4.2,18.3-0.9,22.4,7.4c4.2,8.2,0.9,18.3-7.4,22.4L635,455.9C632.5,457.1,630,457.7,627.4,457.7z"/>
				</g>
			</g>
			<g id="XMLID_112_" class="st14">
				<path id="XMLID_113_" class="st25" d="M613.4,631.5c-14.1,0-27.7-7.9-34.1-21.8c-8.4-18.1-0.4-39.7,17.2-49.3l67.9-37
					c11-6,24.2-6.1,35.3-0.3l51.4,26.7c17.8,9.2,26.3,30.7,18.2,49c-8.8,20.1-32.6,28.2-51.7,18.2L687,601.1
					c-2.7-1.4-5.9-1.4-8.6,0.1l-47.1,25.7C625.6,630,619.4,631.5,613.4,631.5z"/>
			</g>
			<g id="XMLID_109_" class="st14">
				<path id="XMLID_111_" class="st25" d="M627.5,478.5c-14.3,0-28.1-8.2-34.4-22.4c-8.2-18.5,0.5-40.2,18.5-49.3l136.4-69
					c13.7-6.9,30.2-4.8,41.8,5.3l54.5,47.9c15,13.2,18.2,36.1,6,51.9c-13.4,17.4-38.4,19.6-54.6,5.4l-31.7-27.9
					c-2.8-2.5-6.8-3-10.2-1.3l-109.3,55.3C638.9,477.2,633.2,478.5,627.5,478.5z"/>
			</g>
		</g>
		<g id="XMLID_106_">
			<text transform="matrix(1 0 0 1 747.7319 321.6501)" class="st10 st4 st7">MSC</text>
		</g>
	</g>
	<g id="XMLID_101_">
		<text id="XMLID_104_" transform="matrix(1 0 0 1 178.1961 512.0564)" class="st6 st4 st7">?</text>
		<line id="XMLID_103_" class="st8" x1="191.1" y1="495.6" x2="230.6" y2="420"/>
		<line id="XMLID_102_" class="st8" x1="145" y1="583.7" x2="178.7" y2="519.3"/>
	</g>
	<g id="XMLID_5_">
		<path id="XMLID_100_" class="st11" d="M102.1,534.6c15.9-35.7,90.7-18.4,128.5-114.7"/>
		<line id="XMLID_99_" class="st8" x1="424.4" y1="704.8" x2="459.6" y2="529.5"/>
		<g id="XMLID_18_">
			<line id="XMLID_98_" class="st8" x1="92.4" y1="556.3" x2="174.4" y2="371.7"/>
			<g id="patch_18_2_">
				<g id="XMLID_96_">
					<path id="XMLID_97_" class="st8" d="M145,613.9c8.1,0,15.9-3.2,21.7-8.9c5.7-5.7,9-13.4,9-21.4s-3.2-15.7-9-21.4
						c-5.7-5.7-13.5-8.9-21.7-8.9s-15.9,3.2-21.7,8.9c-5.7,5.7-9,13.4-9,21.4s3.2,15.7,9,21.4C129.1,610.7,136.9,613.9,145,613.9z"
						/>
				</g>
			</g>
			<g id="XMLID_94_">
				<text transform="matrix(1 0 0 1 86.9195 534.6204)" class="st9 st4 st7">P</text>
			</g>
			<g id="XMLID_92_">
				<text transform="matrix(1 0 0 1 133.9519 644.2928)" class="st9 st4 st7">SC</text>
			</g>
			<g id="XMLID_90_">
				<text transform="matrix(1 0 0 1 419.4488 738.1962)" class="st9 st4 st7">A</text>
			</g>
			<g id="XMLID_88_">
				<text transform="matrix(1 0 0 1 163.4049 304.7868)" class="st10 st4 st7">MA</text>
			</g>
			<g id="XMLID_86_">
				<text transform="matrix(1 0 0 1 220.3006 402.5452)" class="st10 st4 st7">MP</text>
			</g>
			<g id="XMLID_83_">
				<path id="XMLID_85_" class="st12" d="M143,490.1h-42.8c-1.5,0-2.6,1.2-2.6,2.6v16.7c0,1.5,1.2,2.6,2.6,2.6H143
					c1.5,0,2.6-1.2,2.6-2.6v-16.7C145.6,491.3,144.4,490.1,143,490.1z"/>
				<text id="XMLID_84_" transform="matrix(1 0 0 1 109.0341 505.8202)" class="st4 st13">fMP</text>
			</g>
			<g id="patch_18_1_" class="st14">
				<g id="XMLID_81_">
					<path id="XMLID_82_" class="st15" d="M174.4,405.5c9.2,0,17.9-3.6,24.4-10c6.5-6.4,10.1-15.1,10.1-24.1c0-9-3.6-17.7-10.1-24.1
						c-6.5-6.4-15.3-10-24.4-10c-9.2,0-17.9,3.6-24.4,10c-6.5,6.4-10.1,15.1-10.1,24.1c0,9,3.6,17.7,10.1,24.1
						C156.5,401.9,165.3,405.5,174.4,405.5z"/>
				</g>
			</g>
			<line id="XMLID_80_" class="st16" x1="230.6" y1="420" x2="446.4" y2="523.1"/>
			<path id="XMLID_79_" class="st11" d="M230.6,420C194.2,559.3,440.2,626,429.6,679.2"/>
			<path id="XMLID_78_" class="st16" d="M444.9,518.7l1.5,4.4l-4.4,1.5"/>
			<g id="XMLID_50_">
				<path id="XMLID_77_" class="st0" d="M37.6,441c39-19.8,84.9-42.8,122-61.7"/>
				<path id="XMLID_76_" class="st0" d="M155.1,377.8l4.5,1.5l-1.5,4.5"/>
				<path id="XMLID_75_" class="st16" d="M174.4,371.7c13.1,11.3,34.8,29,46.4,39"/>
				<path id="XMLID_74_" class="st16" d="M220.5,406l0.3,4.7l-4.7,0.3"/>
				<g id="XMLID_51_">
					<g id="XMLID_72_">
						<path id="XMLID_73_" class="st1" d="M37.6,450.2c2.5,0,4.8-1,6.6-2.7c1.7-1.7,2.7-4.1,2.7-6.6c0-2.5-1-4.8-2.7-6.6
							c-1.7-1.7-4.1-2.7-6.6-2.7s-4.8,1-6.6,2.7c-1.7,1.7-2.7,4.1-2.7,6.6c0,2.5,1,4.8,2.7,6.6C32.8,449.3,35.1,450.2,37.6,450.2z"
							/>
					</g>
					<g id="XMLID_70_">
						<path id="XMLID_71_" class="st17" d="M174.4,380.9c2.5,0,4.8-1,6.6-2.7c1.7-1.7,2.7-4.1,2.7-6.6c0-2.5-1-4.8-2.7-6.6
							c-1.7-1.7-4.1-2.7-6.6-2.7c-2.5,0-4.8,1-6.6,2.7c-1.7,1.7-2.7,4.1-2.7,6.6c0,2.5,1,4.8,2.7,6.6
							C169.6,380,172,380.9,174.4,380.9z"/>
					</g>
					<g id="XMLID_68_">
						<path id="XMLID_69_" class="st17" d="M230.6,429.4c2.5,0,4.8-1,6.6-2.7c1.7-1.7,2.7-4.1,2.7-6.6c0-2.5-1-4.8-2.7-6.6
							c-1.7-1.7-4.1-2.7-6.6-2.7c-2.5,0-4.8,1-6.6,2.7c-1.7,1.7-2.7,4.1-2.7,6.6c0,2.5,1,4.8,2.7,6.6
							C225.8,428.5,228.1,429.4,230.6,429.4z"/>
					</g>
					<g id="XMLID_66_">
						<path id="XMLID_67_" class="st17" d="M459.6,538.8c2.5,0,4.8-1,6.6-2.7c1.7-1.7,2.7-4.1,2.7-6.6c0-2.5-1-4.8-2.7-6.6
							c-1.7-1.7-4.1-2.7-6.6-2.7c-2.5,0-4.8,1-6.6,2.7c-1.7,1.7-2.7,4.1-2.7,6.6c0,2.5,1,4.8,2.7,6.6
							C454.8,537.8,457.1,538.8,459.6,538.8z"/>
					</g>
					<g id="text_36_1_">
						<g id="XMLID_61_">
							<g id="XMLID_62_">
								<g id="XMLID_63_" transform="translate(249.058464 384.463284)scale(0.06 -0.06)">
									<g id="XMLID_65_">
										<path id="DejaVuSansMono-Bold-31_2_" class="st2" d="M-420.7-628.2h35.7v104.9l-33.2-8.2v28.8l33.5,8h30.9v-133.4h35.7
											v-28.2h-102.5V-628.2z"/>
									</g>
									<g id="XMLID_64_">
										<path id="DejaVuSansMono-Bold-32_1_" class="st2" d="M-260.6-628.2h68.1v-28.2h-102.6v27.3l17.3,18.4
											c20.6,21.9,33.1,35.3,37.5,40.3c5.4,6.2,9.3,11.7,11.7,16.5c2.4,4.8,3.6,9.5,3.6,14.2c0,7.2-2.2,12.8-6.5,16.7
											c-4.4,3.9-10.6,5.9-18.6,5.9c-5.7,0-12.1-1.1-19.2-3.4c-7.1-2.3-14.5-5.6-22.2-9.9v29.8c7.7,2.8,15.3,5,22.7,6.4
											s14.5,2.2,21.3,2.2c17.1,0,30.5-4,40.3-12c9.8-8,14.7-18.8,14.7-32.6c0-6.3-1.1-12.3-3.2-17.9c-2.1-5.6-5.8-11.7-11-18.5
											c-3.8-4.9-14.3-16-31.5-33.1C-247.7-615.2-255.1-622.6-260.6-628.2z"/>
									</g>
								</g>
							</g>
						</g>
					</g>
					<g id="text_38_1_">
						<g id="XMLID_54_">
							<g id="XMLID_55_">
								<g id="XMLID_56_" transform="translate(236.391871 373.523835)scale(0.06 -0.06)">
									<g id="XMLID_60_">
										<path id="DejaVuSansMono-Bold-31_1_" class="st2" d="M-1145.5-2.2h35.7v104.9l-33.2-8.2v28.8l33.5,8h30.9V-2.2h35.7v-28.2
											h-102.5V-2.2z"/>
									</g>
									<g id="XMLID_57_">
										<path id="DejaVuSansMono-Bold-34_1_" class="st2" d="M-957.2,95.8L-998,31.9h40.8V95.8z M-960.1,131.3h33.4V31.9h17.8V4.5
											h-17.8v-34.8h-30.6V4.5h-64.1v31L-960.1,131.3z"/>
									</g>
								</g>
							</g>
						</g>
					</g>
					<text id="XMLID_53_" transform="matrix(1 0 0 1 455.1442 533.9374)" class="st2 st26 st27">3</text>
					<text id="XMLID_52_" transform="matrix(1 0 0 1 29.9286 444.6254)" class="st3 st4 st5">11</text>
				</g>
			</g>
			<g id="XMLID_27_">
				<path id="XMLID_49_" class="st18" d="M145.8,583.3l266.4,116.5"/>
				<path id="XMLID_48_" class="st18" d="M410.3,695.5l1.9,4.3l-4.7,1.9"/>
				<path id="XMLID_47_" class="st0" d="M23.5,593.9c16.1-8.8,42.4-22.8,56.6-30.6"/>
				<path id="XMLID_46_" class="st18" d="M92.4,556.3c10.6,5.5,31.6,16.3,40.2,20.8"/>
				<g id="XMLID_44_">
					<path id="XMLID_45_" class="st1" d="M23.5,603.2c2.4,0,4.7-1,6.4-2.7c1.7-1.7,2.6-4.1,2.6-6.6s-0.9-4.8-2.6-6.6
						c-1.7-1.7-4-2.7-6.4-2.7s-4.7,1-6.4,2.7s-2.6,4.1-2.6,6.6s0.9,4.8,2.6,6.6C18.8,602.2,21.1,603.2,23.5,603.2z"/>
				</g>
				<text id="XMLID_43_" transform="matrix(1 0 0 1 15.8246 597.7722)" class="st3 st4 st5">10</text>
				<g id="XMLID_41_">
					<path id="XMLID_42_" class="st19" d="M92.4,565.6c2.4,0,4.7-1,6.4-2.7c1.7-1.7,2.6-4.1,2.6-6.6c0-2.5-0.9-4.8-2.6-6.6
						c-1.7-1.7-4-2.7-6.4-2.7c-2.4,0-4.7,1-6.4,2.7c-1.7,1.7-2.6,4.1-2.6,6.6c0,2.5,0.9,4.8,2.6,6.6
						C87.8,564.6,90.1,565.6,92.4,565.6z"/>
				</g>
				<g id="XMLID_39_">
					<path id="XMLID_40_" class="st20" d="M145,592.9c2.4,0,4.7-1,6.4-2.7s2.6-4.1,2.6-6.6c0-2.5-0.9-4.8-2.6-6.6
						c-1.7-1.7-4-2.7-6.4-2.7c-2.4,0-4.7,1-6.4,2.7c-1.7,1.7-2.6,4.1-2.6,6.6c0,2.5,0.9,4.8,2.6,6.6S142.6,592.9,145,592.9z"/>
				</g>
				<path id="XMLID_38_" class="st0" d="M75.1,562.2l4.9,1.2l-1.3,4.6"/>
				<path id="XMLID_37_" class="st18" d="M131.3,572.6l1.4,4.5l-4.9,1.3"/>
				<g id="XMLID_35_">
					<text transform="matrix(1 0 0 1 137.3566 587.7914)" class="st2 st4 st5">11</text>
				</g>
				<g id="XMLID_32_">
					<path id="XMLID_33_" class="st19" d="M425,714.1c2.5,0,4.8-1,6.6-2.7c1.7-1.7,2.7-4.1,2.7-6.6c0-2.5-1-4.8-2.7-6.6
						c-1.7-1.7-4.1-2.7-6.6-2.7c-2.5,0-4.8,1-6.6,2.7c-1.7,1.7-2.7,4.1-2.7,6.6c0,2.5,1,4.8,2.7,6.6
						C420.2,713.1,422.5,714.1,425,714.1z"/>
				</g>
				<g id="XMLID_30_">
					<text transform="matrix(1 0 0 1 420.5977 709.2152)" class="st9 st4 st5">3</text>
				</g>
				<g id="XMLID_28_">
					<text transform="matrix(1 0 0 1 84.8032 560.5229)" class="st9 st4 st5">12</text>
				</g>
			</g>
			<g id="XMLID_22_">
				<g id="XMLID_25_" class="st22">
					<path id="XMLID_26_" class="st23" d="M145,600.4c-2.6,0-5.2-0.6-7.7-1.9l-52.6-27.3c-8.2-4.3-11.4-14.3-7.1-22.5
						c4.3-8.2,14.3-11.4,22.5-7.1l52.6,27.3c8.2,4.3,11.4,14.3,7.1,22.5C156.8,597.1,151,600.4,145,600.4z"/>
				</g>
				<g id="XMLID_23_" class="st22">
					<path id="XMLID_24_" class="st24" d="M230.6,436.9c-3.9,0-7.8-1.4-11-4.2l-55.5-48.8c-6.9-6.1-7.6-16.6-1.5-23.6
						c6.1-6.9,16.6-7.6,23.6-1.5l55.5,48.8c6.9,6.1,7.6,16.6,1.5,23.6C239.8,434.9,235.2,436.9,230.6,436.9z"/>
				</g>
			</g>
			<g id="XMLID_19_">
				<path id="XMLID_21_" class="st12" d="M447,624.4h-45.1c-1.5,0-2.6,1.2-2.6,2.6v16.7c0,1.5,1.2,2.6,2.6,2.6H447
					c1.5,0,2.6-1.2,2.6-2.6V627C449.6,625.6,448.4,624.4,447,624.4z"/>
				<text id="XMLID_20_" transform="matrix(1 0 0 1 411.8627 640.093)" class="st4 st13">pMA</text>
			</g>
		</g>
		<g id="XMLID_13_">
			<g id="XMLID_16_" class="st14">
				<path id="XMLID_17_" class="st28" d="M459,546.2c-2.4,0-4.9-0.5-7.2-1.6L223.4,435c-8.3-4-11.8-14-7.8-22.3
					c4-8.3,14-11.8,22.3-7.8l228.5,109.6c8.3,4,11.8,14,7.8,22.3C471.2,542.7,465.3,546.2,459,546.2z"/>
			</g>
			<g id="XMLID_14_" class="st14">
				<path id="XMLID_15_" class="st23" d="M425,721.5c-2.2,0-4.5-0.4-6.7-1.4L139.1,598.6c-8.5-3.7-12.3-13.5-8.6-22
					c3.7-8.5,13.5-12.3,22-8.6l279.2,121.5c8.5,3.7,12.3,13.5,8.6,22C437.5,717.7,431.4,721.5,425,721.5z"/>
			</g>
		</g>
		<g id="XMLID_11_">
			<path id="XMLID_12_" class="st25" d="M459,567.1c-5.4,0-11-1.2-16.2-3.7L214.4,453.8c-3-1.4-5.7-3.2-8.2-5.4L150,400.2
				c-15.7-13.5-17.5-37.2-4-53c13.5-15.7,37.2-17.5,53-4l52.4,45l224,107.4c18.7,9,26.6,31.4,17.6,50.1
				C486.5,559.2,473,567.1,459,567.1z"/>
		</g>
		<g id="XMLID_9_">
			<path id="XMLID_10_" class="st25" d="M425,742.4c-5,0-10.1-1-15-3.1L130.8,617.8c-0.7-0.3-1.3-0.6-2-0.9l-53.3-27
				c-18.5-9.4-25.9-32-16.6-50.5c9.4-18.5,32-25.9,50.5-16.6l52.4,26.5l278.2,121c19,8.3,27.7,30.4,19.5,49.4
				C453.3,733.9,439.5,742.4,425,742.4z"/>
		</g>
		<g id="XMLID_7_">
			<text transform="matrix(1 0 0 1 157.2432 325.9119)" class="st10 st4 st7">MSC</text>
		</g>
		<path id="XMLID_6_" class="st29" d="M102.1,534.6"/>
	</g>
	<g id="XMLID_3_" class="st14">
		<path id="XMLID_4_" class="st21" d="M157,405.1c2.4,0,4.7-1,6.4-2.7c1.7-1.7,2.6-4.1,2.6-6.6c0-2.5-0.9-4.8-2.6-6.6
			c-1.7-1.7-4-2.7-6.4-2.7c-2.4,0-4.7,1-6.4,2.7c-1.7,1.7-2.6,4.1-2.6,6.6c0,2.5,0.9,4.8,2.6,6.6C152.3,404.1,154.6,405.1,157,405.1
			z"/>
	</g>
	<g id="XMLID_1_">
		<text transform="matrix(1 0 0 1 149.3156 400.2491)" class="st2 st4 st5">11</text>
	</g>
</g>
</svg>
