<?xml version="1.0" encoding="iso-8859-1"?>
<!-- Generator: Adobe Illustrator 19.0.0, SVG Export Plug-In . SVG Version: 6.00 Build 0)  -->
<svg version="1.1" id="Layer_1" xmlns="http://www.w3.org/2000/svg" xmlns:xlink="http://www.w3.org/1999/xlink" x="0px" y="0px"
	 width="882.144px" height="262.825px" viewBox="0 0 882.144 262.825" style="enable-background:new 0 0 882.144 262.825;"
	 xml:space="preserve">
<g id="XMLID_75_">
	<polygon id="XMLID_1034_" style="fill:none;stroke:#2200C6;stroke-width:0.5;stroke-miterlimit:10;" points="30.26,192.353 
		32.796,205.964 39.979,216.618 51.225,223.549 65.936,226.002 82.93,223.297 97.558,214.843 49.028,155.321 35.418,171.132 
		30.26,192.353 	"/>
	<polygon id="XMLID_1021_" style="fill:none;stroke:#2200C6;stroke-width:0.5;stroke-miterlimit:10;" points="103.431,192.353 
		105.966,205.964 113.15,216.618 124.395,223.549 139.106,226.002 156.1,223.297 170.728,214.843 122.199,155.321 108.588,171.132 
		103.431,192.353 103.431,192.353 	"/>
	<polygon id="XMLID_1020_" style="fill:none;stroke:#2200C6;stroke-width:0.5;stroke-miterlimit:10;" points="176.601,192.353 
		179.137,205.964 186.321,216.618 197.566,223.549 229.271,223.297 243.899,214.843 195.37,155.321 181.759,171.132 
		176.601,192.353 176.601,192.353 	"/>
	<polygon id="XMLID_1019_" style="fill:none;stroke:#2200C6;stroke-width:0.5;stroke-miterlimit:10;" points="249.772,192.353 
		259.491,216.618 285.448,226.002 317.07,214.843 268.54,155.321 249.772,192.353 249.772,192.353 	"/>
	<polygon id="XMLID_1018_" style="fill:none;stroke:#2200C6;stroke-width:0.5;stroke-miterlimit:10;" points="322.943,192.353 
		332.662,216.618 390.24,214.843 341.711,155.321 322.943,192.353 322.943,192.353 	"/>
	<polygon id="XMLID_1017_" style="fill:none;stroke:#2200C6;stroke-width:0.5;stroke-miterlimit:10;" points="396.113,192.353 
		431.789,226.002 463.411,214.843 414.882,155.321 396.113,192.353 396.113,192.353 	"/>
	<polygon id="XMLID_1016_" style="fill:none;stroke:#2200C6;stroke-width:0.5;stroke-miterlimit:10;" points="469.284,192.353 
		504.959,226.002 536.582,214.843 488.052,155.321 469.284,192.353 469.284,192.353 	"/>
	<polygon id="XMLID_1015_" style="fill:none;stroke:#2200C6;stroke-width:0.5;stroke-miterlimit:10;" points="542.455,192.353 
		609.752,214.843 561.223,155.321 542.455,192.353 542.455,192.353 	"/>
	<polygon id="XMLID_1012_" style="fill:none;stroke:#2200C6;stroke-width:0.5;stroke-miterlimit:10;" points="615.625,192.353 
		682.923,214.843 634.393,155.321 615.625,192.353 615.625,192.353 	"/>
	<polygon id="XMLID_1011_" style="fill:none;stroke:#2200C6;stroke-width:0.5;stroke-miterlimit:10;" points="688.796,192.353 
		756.093,214.843 707.564,155.321 688.796,192.353 688.796,192.353 	"/>
	<polygon id="XMLID_905_" style="fill:none;stroke:#2200C6;stroke-width:0.5;stroke-miterlimit:10;" points="761.966,192.353 
		829.264,214.843 780.735,155.321 761.966,192.353 761.966,192.353 	"/>
	<g id="XMLID_1061_">
		<polygon id="XMLID_1062_" style="fill:none;stroke:#E000E2;stroke-width:0.5;stroke-miterlimit:10;" points="30.26,72.871 
			33.135,89.274 41.332,102.041 54.355,110.242 71.684,113.117 110.238,96.884 56.469,29.586 45.898,37.87 37.614,47.507 
			32.204,59.004 30.26,72.871 		"/>
	</g>
	<g id="XMLID_1059_">
		<polygon id="XMLID_1060_" style="fill:none;stroke:#E000E2;stroke-width:0.5;stroke-miterlimit:10;" points="103.431,72.871 
			106.305,89.274 114.502,102.041 127.526,110.242 144.855,113.117 183.409,96.884 129.639,29.586 119.068,37.87 110.784,47.507 
			105.375,59.004 103.431,72.871 103.431,72.871 103.431,72.871 		"/>
	</g>
	<g id="XMLID_1057_">
		<polygon id="XMLID_1058_" style="fill:none;stroke:#E000E2;stroke-width:0.5;stroke-miterlimit:10;" points="176.601,72.871 
			179.476,89.274 187.673,102.041 200.696,110.242 218.025,113.117 256.579,96.884 202.81,29.586 183.955,47.507 176.601,72.871 
			176.601,72.871 176.601,72.871 		"/>
	</g>
	<g id="XMLID_1055_">
		<polygon id="XMLID_1056_" style="fill:none;stroke:#E000E2;stroke-width:0.5;stroke-miterlimit:10;" points="249.772,72.871 
			260.843,102.041 291.196,113.117 329.75,96.884 275.98,29.586 257.125,47.507 249.772,72.871 249.772,72.871 		"/>
	</g>
	<g id="XMLID_1053_">
		<polygon id="XMLID_1054_" style="fill:none;stroke:#E000E2;stroke-width:0.5;stroke-miterlimit:10;" points="322.943,72.871 
			334.015,102.041 364.367,113.117 402.921,96.884 349.152,29.586 322.943,72.871 322.943,72.871 		"/>
	</g>
	<g id="XMLID_1051_">
		<polygon id="XMLID_1052_" style="fill:none;stroke:#E000E2;stroke-width:0.5;stroke-miterlimit:10;" points="396.114,72.871 
			437.538,113.117 476.092,96.884 422.322,29.586 396.114,72.871 396.114,72.871 		"/>
	</g>
	<g id="XMLID_1049_">
		<polygon id="XMLID_1050_" style="fill:none;stroke:#E000E2;stroke-width:0.5;stroke-miterlimit:10;" points="469.284,72.871 
			510.708,113.117 549.262,96.884 495.493,29.586 469.284,72.871 469.284,72.871 		"/>
	</g>
	<g id="XMLID_1047_">
		<polygon id="XMLID_1048_" style="fill:none;stroke:#E000E2;stroke-width:0.5;stroke-miterlimit:10;" points="542.455,72.871 
			622.433,96.884 568.663,29.586 542.455,72.871 542.455,72.871 		"/>
	</g>
	<g id="XMLID_1044_">
		<polygon id="XMLID_1046_" style="fill:none;stroke:#E000E2;stroke-width:0.5;stroke-miterlimit:10;" points="615.626,72.871 
			695.604,96.884 641.835,29.586 615.626,72.871 615.626,72.871 		"/>
	</g>
	<g id="XMLID_1042_">
		<polygon id="XMLID_1043_" style="fill:none;stroke:#E000E2;stroke-width:0.5;stroke-miterlimit:10;" points="688.797,72.871 
			768.774,96.884 704.434,37.87 688.797,72.871 688.797,72.871 		"/>
	</g>
	<g id="XMLID_1035_">
		<polygon id="XMLID_1041_" style="fill:none;stroke:#E000E2;stroke-width:0.5;stroke-miterlimit:10;" points="761.967,72.871 
			841.945,96.884 763.911,59.004 761.967,72.871 		"/>
	</g>
	
		<line id="XMLID_902_" style="fill:#FFFFFF;stroke:#231F20;stroke-miterlimit:10;" x1="274.891" y1="194.826" x2="356.592" y2="74.378"/>
	
		<line id="XMLID_1063_" style="fill:none;stroke:#231F20;stroke-miterlimit:10;" x1="427.475" y1="194.826" x2="429.762" y2="74.378"/>
	
		<line id="XMLID_1064_" style="fill:none;stroke:#231F20;stroke-miterlimit:10;" x1="500.646" y1="194.826" x2="500.646" y2="74.378"/>
	
		<line id="XMLID_1065_" style="fill:none;stroke:#231F20;stroke-miterlimit:10;" x1="565.152" y1="185.969" x2="576.103" y2="65.772"/>
	
		<line id="XMLID_1066_" style="fill:none;stroke:#231F20;stroke-miterlimit:10;" x1="645.635" y1="63.235" x2="641.135" y2="187.935"/>
	
		<line id="XMLID_1067_" style="fill:none;stroke:#231F20;stroke-miterlimit:10;" x1="714.721" y1="64.735" x2="714.721" y2="184.935"/>
</g>
</svg>
