<?xml version="1.0" encoding="utf-8"?>
<!-- Generator: Adobe Illustrator 19.0.0, SVG Export Plug-In . SVG Version: 6.00 Build 0)  -->
<svg version="1.1" id="Layer_1" xmlns="http://www.w3.org/2000/svg" xmlns:xlink="http://www.w3.org/1999/xlink" x="0px" y="0px"
	 width="661px" height="516.9px" viewBox="-61 181.4 661 516.9" style="enable-background:new -61 181.4 661 516.9;"
	 xml:space="preserve">
<style type="text/css">
	.st0{fill:none;stroke:#AFAFAF;stroke-width:2.471;stroke-miterlimit:10;}
	.st1{opacity:0.2;fill:#008000;}
	.st2{opacity:0.5;fill:#008000;stroke:#008000;stroke-width:2.0777;enable-background:new    ;}
	.st3{fill:none;stroke:#008000;stroke-width:2.0777;}
	.st4{fill:none;stroke:#FF0000;stroke-width:2.5975;stroke-linecap:round;stroke-linejoin:round;}
	.st5{fill:none;stroke:#0000FF;stroke-width:2.5975;stroke-linecap:round;stroke-linejoin:round;}
	.st6{fill:#0000FF;stroke:#0000FF;stroke-width:2.5975;stroke-linejoin:round;}
	.st7{fill:#FFFFFF;}
	.st8{fill:#FFFFFF;stroke:#FF0000;stroke-width:4.1554;stroke-linejoin:round;}
	.st9{fill:#FF0000;}
	.st10{font-family:monospace;}
	.st11{font-size:29.6516px;}
	.st12{fill:none;stroke:#FF0000;stroke-width:2.5975;stroke-linejoin:round;}
	.st13{font-size:47.592px;}
	.st14{fill:#FF0000;stroke:#FF0000;stroke-width:2.5975;stroke-linejoin:round;}
</style>
<g id="New_Symbol_5">
	<g id="New_Symbol_4">
		<g id="XMLID_1_">
			<g id="XMLID_80_">
				<g id="XMLID_82_">
					<line id="XMLID_88_" class="st0" x1="327.1" y1="445.1" x2="66.1" y2="525.3"/>
					<line id="XMLID_87_" class="st0" x1="327.1" y1="445.1" x2="390.3" y2="361.2"/>
					<g id="XMLID_83_">
						<path id="XMLID_86_" class="st1" d="M351.8,464.1c4-5.2,6.4-11.8,6.4-19c0-10.1-4.8-19.2-12.4-24.8l-18.8,24.8L351.8,464.1z"
							/>
						<path id="XMLID_85_" class="st2" d="M357.9,468.7c3.9-5,6.5-11,7.5-17.6l-38.3-6L357.9,468.7z"/>
						<path id="XMLID_84_" class="st1" d="M283.3,458.5c5.7,18.8,23.2,32.4,43.8,32.4c14.8,0,27.9-7,36.3-17.9l-36.3-28L283.3,458.5
							z"/>
					</g>
				</g>
				<line id="XMLID_81_" class="st3" x1="327.1" y1="445.1" x2="523.2" y2="476.1"/>
			</g>
			<g id="XMLID_73_">
				<line id="XMLID_79_" class="st3" x1="202.6" y1="380.4" x2="390.3" y2="361.2"/>
				<line id="XMLID_78_" class="st0" x1="202.6" y1="380.4" x2="523.2" y2="476.1"/>
				<line id="XMLID_77_" class="st0" x1="202.6" y1="380.4" x2="66.1" y2="525.3"/>
				<path id="XMLID_76_" class="st1" d="M182.8,401.5c5.2,4.9,12.2,7.9,19.9,7.9c11.2,0,20.9-6.4,25.8-15.7l-25.8-13.3L182.8,401.5z
					"/>
				<path id="XMLID_75_" class="st2" d="M233.8,396.5c2.5-4.8,3.9-10.3,3.9-16.1c0-1.2-0.1-2.4-0.2-3.6l-34.9,3.6L233.8,396.5z"/>
				<path id="XMLID_74_" class="st1" d="M243.1,401.3c1.3-2.5,2.4-5.1,3.2-7.9l-43.7-13L243.1,401.3z"/>
			</g>
			<g id="XMLID_65_">
				<line id="XMLID_72_" class="st3" x1="39.3" y1="469.6" x2="66.1" y2="525.3"/>
				<line id="XMLID_71_" class="st0" x1="39.3" y1="469.4" x2="523.2" y2="476.1"/>
				<line id="XMLID_70_" class="st0" x1="39.3" y1="469.4" x2="390.3" y2="361.2"/>
				<g id="XMLID_66_">
					<path id="XMLID_69_" class="st2" d="M53.1,498.3c10.8-5.2,18.2-16.2,18.2-28.9c0-5.5-1.4-10.7-3.9-15.3l-28.2,15.3L53.1,498.3z
						"/>
					<path id="XMLID_68_" class="st1" d="M79.4,469.4c0-6.9-1.8-13.4-4.8-19.1l-35.2,19.1H79.4z"/>
					<path id="XMLID_67_" class="st1" d="M84.6,455.4c-0.9-3-2.1-5.9-3.6-8.6l-41.6,22.6L84.6,455.4z"/>
				</g>
			</g>
			<g id="XMLID_62_">
				<path id="XMLID_64_" class="st4" d="M327.1,445.1c0,0,67.6,51.8,85.6,66"/>
				<path id="XMLID_63_" class="st4" d="M411.5,500l1.2,11.1l-11.9,0.8"/>
			</g>
			<g id="XMLID_33_">
				<path id="XMLID_61_" class="st5" d="M66.1,525.3c92.4-46.8,201-101.4,289-146"/>
				<path id="XMLID_60_" class="st5" d="M344.5,375.8l10.6,3.5l-3.5,10.6"/>
				<path id="XMLID_59_" class="st5" d="M390.3,361.2c30.8,27.1,81.9,69.4,109,93.3"/>
				<path id="XMLID_58_" class="st5" d="M498.6,443.4l0.7,11.1l-11.1,0.7"/>
				<g id="XMLID_34_">
					<g id="XMLID_56_">
						<path id="XMLID_57_" class="st6" d="M66.1,547.2c5.8,0,11.4-2.3,15.5-6.4s6.4-9.7,6.4-15.5c0-5.8-2.3-11.4-6.4-15.5
							s-9.7-6.4-15.5-6.4s-11.4,2.3-15.5,6.4c-4.1,4.1-6.4,9.7-6.4,15.5c0,5.8,2.3,11.4,6.4,15.5C54.7,544.9,60.3,547.2,66.1,547.2z
							"/>
					</g>
					<g id="XMLID_54_">
						<path id="XMLID_55_" class="st6" d="M390.3,383.2c5.8,0,11.4-2.3,15.5-6.4c4.1-4.1,6.4-9.7,6.4-15.5c0-5.8-2.3-11.4-6.4-15.5
							c-4.1-4.1-9.7-6.4-15.5-6.4s-11.4,2.3-15.5,6.4c-4.1,4.1-6.4,9.7-6.4,15.5c0,5.8,2.3,11.4,6.4,15.5
							C378.9,380.9,384.4,383.2,390.3,383.2z"/>
					</g>
					<g id="XMLID_52_">
						<path id="XMLID_53_" class="st6" d="M523.2,498c5.8,0,11.4-2.3,15.5-6.4c4.1-4.1,6.4-9.7,6.4-15.5c0-5.8-2.3-11.4-6.4-15.5
							c-4.1-4.1-9.7-6.4-15.5-6.4c-5.8,0-11.4,2.3-15.5,6.4c-4.1,4.1-6.4,9.7-6.4,15.5c0,5.8,2.3,11.4,6.4,15.5
							C511.8,495.7,517.4,498,523.2,498z"/>
					</g>
					<g id="text_35_2_">
						<g id="XMLID_47_">
							<g id="XMLID_48_">
								<g id="XMLID_49_" transform="translate(205.517051 389.15162)scale(0.06 -0.06)">
									<g id="XMLID_51_">
										<path id="DejaVuSansMono-Bold-31_10_" class="st7" d="M-2590.9-2347.1h84.6v248.3l-78.7-19.5v68.2l79.2,19h73.1v-316h84.6
											v-66.7h-242.7V-2347.1z"/>
									</g>
									<g id="XMLID_50_">
										<path id="DejaVuSansMono-Bold-31_9_" class="st7" d="M-2274.9-2347.1h84.6v248.3l-78.7-19.5v68.2l79.2,19h73.1v-316h84.6
											v-66.7h-242.7V-2347.1z"/>
									</g>
								</g>
							</g>
						</g>
					</g>
					<g id="text_36_1_">
						<g id="XMLID_42_">
							<g id="XMLID_43_">
								<g id="XMLID_44_" transform="translate(249.058464 384.463284)scale(0.06 -0.06)">
									<g id="XMLID_46_">
										<path id="DejaVuSansMono-Bold-31_5_" class="st7" d="M4301.8-1604.9h84.6v248.3l-78.7-19.5v68.2l79.2,19h73.1v-316h84.6
											v-66.7h-242.7V-1604.9z"/>
									</g>
									<g id="XMLID_45_">
										<path id="DejaVuSansMono-Bold-32_2_" class="st7" d="M4680.9-1604.9h161.2v-66.7h-243v64.6l41,43.6
											c48.7,51.8,78.3,83.6,88.7,95.5c12.8,14.7,22,27.7,27.6,39.1s8.4,22.6,8.4,33.7c0,17.1-5.2,30.2-15.5,39.5
											c-10.3,9.3-25,14-44,14c-13.5,0-28.7-2.7-45.5-8.1c-16.8-5.4-34.3-13.2-52.7-23.4v70.5c18.3,6.7,36.2,11.8,53.7,15.3
											c17.5,3.5,34.3,5.2,50.4,5.2c40.5,0,72.3-9.5,95.5-28.4c23.2-18.9,34.8-44.6,34.8-77.2c0-15-2.5-29.1-7.6-42.3
											c-5-13.2-13.7-27.8-26-43.8c-9-11.6-33.9-37.8-74.6-78.5C4711.4-1574.2,4693.9-1591.8,4680.9-1604.9z"/>
									</g>
								</g>
							</g>
						</g>
					</g>
					<g id="text_38_1_">
						<g id="XMLID_35_">
							<g id="XMLID_36_">
								<g id="XMLID_37_" transform="translate(236.391871 373.523835)scale(0.06 -0.06)">
									<g id="XMLID_41_">
										<path id="DejaVuSansMono-Bold-31_2_" class="st7" d="M2296.7,126.8h84.6v248.3l-78.7-19.5v68.2l79.2,19h73.1v-316h84.6
											V60.1h-242.7V126.8z"/>
									</g>
									<g id="XMLID_38_">
										<path id="DejaVuSansMono-Bold-34_1_" class="st7" d="M2742.4,358.7l-96.6-151.2h96.6V358.7z M2735.7,442.8h79.1V207.5
											h42.1v-64.9h-42.1V60.1h-72.5v82.5h-151.7V216L2735.7,442.8z"/>
									</g>
								</g>
							</g>
						</g>
					</g>
				</g>
			</g>
			<g id="XMLID_31_">
				<path id="XMLID_32_" class="st8" d="M327.1,467.1c5.6,0,11.1-2.3,15.1-6.4s6.2-9.7,6.2-15.5c0-5.8-2.2-11.4-6.2-15.5
					s-9.4-6.4-15.1-6.4s-11.1,2.3-15.1,6.4s-6.2,9.7-6.2,15.5c0,5.8,2.2,11.4,6.2,15.5S321.4,467.1,327.1,467.1z"/>
			</g>
			<g id="XMLID_29_">
				<text transform="matrix(1 0 0 1 310.7915 454.8456)" class="st9 st10 st11">11</text>
			</g>
			<g id="XMLID_27_">
				<path id="XMLID_28_" class="st12" d="M431.5,544.9c4.3,0,8.5-1.8,11.6-4.9c3.1-3.2,4.8-7.5,4.8-11.9c0-4.5-1.7-8.8-4.8-11.9
					c-3.1-3.2-7.2-4.9-11.6-4.9c-4.3,0-8.5,1.8-11.6,4.9c-3.1,3.2-4.8,7.5-4.8,11.9c0,4.5,1.7,8.8,4.8,11.9
					C423,543.1,427.2,544.9,431.5,544.9z"/>
			</g>
			<g id="XMLID_25_">
				<text transform="matrix(1 0 0 1 423.367 534.8875)" class="st9 st10 st11">x</text>
			</g>
			<g id="XMLID_23_">
				<text transform="matrix(1 0 0 1 176.4672 346.9545)" class="st9 st10 st13">SC</text>
			</g>
			<g id="XMLID_21_">
				<text transform="matrix(1 0 0 1 31.0894 433.1843)" class="st9 st10 st13">P</text>
			</g>
			<g id="XMLID_19_">
				<text transform="matrix(1 0 0 1 314.009 511.0158)" class="st9 st10 st13">A</text>
			</g>
			<g id="XMLID_2_">
				<g id="XMLID_3_">
					<path id="XMLID_18_" class="st4" d="M39.3,469.4c38.2-20.8,100.4-54.1,134-72.4"/>
					<path id="XMLID_17_" class="st4" d="M202.6,380.4c25,13,74.9,38.6,95.3,49.1"/>
					<g id="XMLID_15_">
						<path id="XMLID_16_" class="st8" d="M39.3,491.3c5.6,0,11.1-2.3,15.1-6.4s6.2-9.7,6.2-15.5c0-5.8-2.2-11.4-6.2-15.5
							s-9.4-6.4-15.1-6.4s-11.1,2.3-15.1,6.4s-6.2,9.7-6.2,15.5c0,5.8,2.2,11.4,6.2,15.5S33.7,491.3,39.3,491.3z"/>
					</g>
					<g id="XMLID_13_">
						<text transform="matrix(1 0 0 1 22.9962 478.4945)" class="st9 st10 st11">10</text>
					</g>
					<g id="XMLID_11_">
						<path id="XMLID_12_" class="st14" d="M202.6,402.4c5.6,0,11.1-2.3,15.1-6.4s6.2-9.7,6.2-15.5c0-5.8-2.2-11.4-6.2-15.5
							s-9.4-6.4-15.1-6.4c-5.6,0-11.1,2.3-15.1,6.4c-4,4.1-6.2,9.7-6.2,15.5c0,5.8,2.2,11.4,6.2,15.5
							C191.6,400,197,402.4,202.6,402.4z"/>
					</g>
					<path id="XMLID_10_" class="st4" d="M161.7,394.2l11.6,2.8l-3,10.8"/>
					<path id="XMLID_9_" class="st4" d="M294.6,418.8l3.3,10.7l-11.5,3"/>
					<g id="text_35_1_">
						<g id="XMLID_4_">
							<g id="XMLID_5_">
								<g id="XMLID_6_" transform="translate(218.475408 375.557638)scale(0.06 -0.06)">
									<g id="XMLID_8_">
										<path id="DejaVuSansMono-Bold-31_1_" class="st7" d="M-523.7-158.8h82V89.6L-518,70.1v68.2l76.8,19h70.9v-316h82v-66.7
											h-235.4V-158.8z"/>
									</g>
									<g id="XMLID_7_">
										<path id="DejaVuSansMono-Bold-32_1_" class="st7" d="M-156.1-158.8H0.3v-66.7h-235.7v64.6l39.8,43.6
											c47.2,51.8,75.9,83.6,86.1,95.5C-97.2-7-88.2,6-82.8,17.4c5.5,11.4,8.2,22.6,8.2,33.7c0,17.1-5,30.2-15,39.5
											c-10,9.3-24.2,14-42.6,14c-13.1,0-27.8-2.7-44.1-8.1c-16.3-5.4-33.3-13.2-51.1-23.4v70.5c17.8,6.7,35.1,11.8,52.1,15.3
											c17,3.5,33.2,5.2,48.8,5.2c39.3,0,70.2-9.5,92.6-28.4c22.5-18.9,33.7-44.6,33.7-77.2c0-15-2.5-29.1-7.4-42.3
											c-4.9-13.2-13.3-27.8-25.2-43.8c-8.7-11.6-32.8-37.8-72.3-78.5C-126.5-128.1-143.5-145.6-156.1-158.8z"/>
									</g>
								</g>
							</g>
						</g>
					</g>
				</g>
			</g>
		</g>
	</g>
</g>
</svg>
