<?xml version="1.0" encoding="utf-8"?>
<!-- Generator: Adobe Illustrator 19.0.0, SVG Export Plug-In . SVG Version: 6.00 Build 0)  -->
<svg version="1.1" id="Layer_1" xmlns="http://www.w3.org/2000/svg" xmlns:xlink="http://www.w3.org/1999/xlink" x="0px" y="0px"
	 width="1068px" height="479.5px" viewBox="54 157.5 1068 479.5" style="enable-background:new 54 157.5 1068 479.5;"
	 xml:space="preserve">
<style type="text/css">
	.st0{fill:#0049FF;}
	.st1{fill:#FF000D;}
	.st2{fill:none;stroke:#FF000D;}
	.st3{fill:none;stroke:#0049FF;}
	.st4{font-family:'monospace';}
	.st5{font-size:10.4549px;}
	.st6{fill:#231F20;}
	.st7{font-size:12px;}
</style>
<g id="XMLID_61_">
	<circle id="XMLID_66_" class="st0" cx="751.1" cy="426.8" r="5.2"/>
	<circle id="XMLID_65_" class="st0" cx="596.9" cy="498.6" r="2.6"/>
	<circle id="XMLID_64_" class="st0" cx="735.4" cy="396.2" r="2.6"/>
	<circle id="XMLID_63_" class="st0" cx="684.6" cy="412.1" r="2.6"/>
	<circle id="XMLID_62_" class="st0" cx="624.9" cy="297.9" r="2.6"/>
</g>
<g id="XMLID_54_">
	<circle id="XMLID_60_" class="st1" cx="255.5" cy="413.3" r="2.6"/>
	<circle id="XMLID_59_" class="st1" cx="238.2" cy="423.2" r="2.6"/>
	<circle id="XMLID_58_" class="st1" cx="264.9" cy="431.1" r="2.6"/>
	<circle id="XMLID_57_" class="st1" cx="205.1" cy="431.1" r="2.6"/>
	<circle id="XMLID_56_" class="st1" cx="153.2" cy="489.5" r="2.6"/>
	<circle id="XMLID_55_" class="st1" cx="143.9" cy="315.5" r="2.6"/>
</g>
<g id="XMLID_48_">
	<line id="XMLID_53_" class="st2" x1="144.1" y1="315.5" x2="205.3" y2="431.1"/>
	<line id="XMLID_52_" class="st2" x1="205.3" y1="431.1" x2="238.4" y2="423.2"/>
	<line id="XMLID_51_" class="st2" x1="238.4" y1="423.2" x2="255.5" y2="413.3"/>
	<line id="XMLID_50_" class="st2" x1="255.5" y1="413.3" x2="265.1" y2="431.1"/>
	<line id="XMLID_49_" class="st2" x1="265.1" y1="431.1" x2="153.4" y2="489.5"/>
</g>
<g id="XMLID_43_">
	<line id="XMLID_47_" class="st3" x1="625" y1="297.9" x2="684.8" y2="412.3"/>
	<line id="XMLID_46_" class="st3" x1="684.8" y1="412.3" x2="735.2" y2="396.4"/>
	<line id="XMLID_45_" class="st3" x1="735.2" y1="396.4" x2="751.1" y2="427"/>
	<line id="XMLID_44_" class="st3" x1="751.1" y1="427" x2="596.9" y2="498.8"/>
</g>
<text id="XMLID_42_" transform="matrix(1 0 0 1 761.6179 430.2443)" class="st4 st5">0</text>
<text id="XMLID_41_" transform="matrix(1 0 0 1 596.9404 511.7443)" class="st4 st5">4</text>
<text id="XMLID_40_" transform="matrix(1 0 0 1 743.1736 396.4373)" class="st4 st5">1</text>
<text id="XMLID_39_" transform="matrix(1 0 0 1 687.1439 404.3848)" class="st4 st5">7</text>
<text id="XMLID_38_" transform="matrix(1 0 0 1 624.9548 291.3848)" class="st4 st5">17</text>
<text id="XMLID_37_" transform="matrix(1 0 0 1 143.9481 307.3848)" class="st4 st5">18</text>
<text id="XMLID_36_" transform="matrix(1 0 0 1 205.2664 423.186)" class="st4 st5">7</text>
<text id="XMLID_35_" transform="matrix(1 0 0 1 238.2484 414.7166)" class="st4 st5">4</text>
<text id="XMLID_34_" transform="matrix(1 0 0 1 262.2894 413.8481)" class="st4 st5">2</text>
<text id="XMLID_33_" transform="matrix(1 0 0 1 270.7894 433.7167)" class="st4 st5">0</text>
<text id="XMLID_32_" transform="matrix(1 0 0 1 153.2104 501.1446)" class="st4 st5">3</text>
<g id="XMLID_83_">
	<circle id="XMLID_89_" class="st1" cx="513.8" cy="413.3" r="2.6"/>
	<circle id="XMLID_88_" class="st1" cx="496.5" cy="423.2" r="2.6"/>
	<circle id="XMLID_87_" class="st1" cx="523.2" cy="431.1" r="2.6"/>
	<circle id="XMLID_86_" class="st1" cx="463.4" cy="431.1" r="2.6"/>
	<circle id="XMLID_84_" class="st1" cx="402.2" cy="315.5" r="2.6"/>
</g>
<g id="XMLID_77_">
	<line id="XMLID_82_" class="st2" x1="402.4" y1="315.5" x2="463.6" y2="431.1"/>
	<line id="XMLID_81_" class="st2" x1="463.6" y1="431.1" x2="496.7" y2="423.2"/>
	<line id="XMLID_80_" class="st2" x1="496.7" y1="423.2" x2="513.8" y2="413.3"/>
	<line id="XMLID_79_" class="st2" x1="513.8" y1="413.3" x2="523.4" y2="431.1"/>
</g>
<text id="XMLID_76_" transform="matrix(1 0 0 1 402.2386 307.3848)" class="st4 st5">18</text>
<text id="XMLID_75_" transform="matrix(1 0 0 1 463.5569 423.186)" class="st4 st5">7</text>
<text id="XMLID_74_" transform="matrix(1 0 0 1 496.539 414.7166)" class="st4 st5">4</text>
<text id="XMLID_73_" transform="matrix(1 0 0 1 520.58 413.8481)" class="st4 st5">2</text>
<text id="XMLID_72_" transform="matrix(1 0 0 1 529.08 433.7167)" class="st4 st5">0</text>
<text id="XMLID_67_" transform="matrix(1 0 0 1 301.0856 348.3848)" class="st6 st4 st7">Direction</text>
<text id="XMLID_69_" transform="matrix(1 0 0 1 291.1896 375.7181)" class="st6 st4 st7">[3,0,4,7,18]</text>
<text id="XMLID_71_" transform="matrix(1 0 0 1 297.7872 404.3848)" class="st6 st4 st7">[0,4,7,18]</text>
<polyline id="XMLID_70_" class="st6" points="325,383.5 330.8,389.3 336.6,383.5 "/>
<text id="XMLID_93_" transform="matrix(1 0 0 1 807.5513 348.3848)" class="st6 st4 st7">Direction</text>
<text id="XMLID_92_" transform="matrix(1 0 0 1 797.6553 375.7181)" class="st6 st4 st7">[4,0,1,7,17]</text>
<text id="XMLID_91_" transform="matrix(1 0 0 1 804.253 404.3848)" class="st6 st4 st7">[0,1,7,17]</text>
<polyline id="XMLID_90_" class="st6" points="831.5,383.5 837.2,389.3 843,383.5 "/>
<polyline id="XMLID_68_" class="st1" points="522.7,421.8 517.6,420 515.8,425 "/>
<polyline id="XMLID_78_" class="st1" points="264.5,422.5 259.5,420.7 257.7,425.7 "/>
<polyline id="XMLID_85_" class="st1" points="211.6,454.8 210.2,460 215.4,461.3 "/>
<polyline id="XMLID_31_" class="st0" points="746.9,411 741.8,409.2 740,414.3 "/>
<polyline id="XMLID_95_" class="st0" points="675.9,457.8 674,462.9 679.1,464.7 "/>
<g id="XMLID_108_">
	<circle id="XMLID_113_" class="st0" cx="1040.7" cy="426.8" r="5.2"/>
	<circle id="XMLID_111_" class="st0" cx="1025" cy="396.2" r="2.6"/>
	<circle id="XMLID_110_" class="st0" cx="974.2" cy="412.1" r="2.6"/>
	<circle id="XMLID_109_" class="st0" cx="914.5" cy="297.9" r="2.6"/>
</g>
<g id="XMLID_103_">
	<line id="XMLID_107_" class="st3" x1="914.6" y1="297.9" x2="974.4" y2="412.3"/>
	<line id="XMLID_106_" class="st3" x1="974.4" y1="412.3" x2="1024.8" y2="396.4"/>
	<line id="XMLID_105_" class="st3" x1="1024.8" y1="396.4" x2="1040.7" y2="427"/>
</g>
<text id="XMLID_102_" transform="matrix(1 0 0 1 1051.2332 430.2443)" class="st4 st5">0</text>
<text id="XMLID_100_" transform="matrix(1 0 0 1 1032.7888 396.4373)" class="st4 st5">1</text>
<text id="XMLID_99_" transform="matrix(1 0 0 1 976.759 404.3848)" class="st4 st5">7</text>
<text id="XMLID_98_" transform="matrix(1 0 0 1 914.57 291.3848)" class="st4 st5">17</text>
<polyline id="XMLID_97_" class="st0" points="1036.5,411 1031.4,409.2 1029.6,414.3 "/>
</svg>
