<?xml version="1.0" encoding="utf-8"?>
<!-- Generator: Adobe Illustrator 19.0.0, SVG Export Plug-In . SVG Version: 6.00 Build 0)  -->
<svg version="1.1" id="Layer_1" xmlns="http://www.w3.org/2000/svg" xmlns:xlink="http://www.w3.org/1999/xlink" x="0px" y="0px"
	 width="522.1px" height="657px" viewBox="-61 181.4 522.1 657" style="enable-background:new -61 181.4 522.1 657;"
	 xml:space="preserve">
<style type="text/css">
	.st0{opacity:0.5;fill:none;stroke:#008000;stroke-width:0.5;enable-background:new    ;}
	.st1{opacity:0.5;fill:#008000;enable-background:new    ;}
	.st2{font-family:monospace;}
	.st3{font-size:20.0975px;}
	.st4{opacity:0.5;enable-background:new    ;}
	.st5{opacity:0.5;fill:#008000;stroke:#008000;stroke-width:0.2102;enable-background:new    ;}
	.st6{fill:none;stroke:#FF0000;stroke-width:0.4204;stroke-linecap:round;stroke-linejoin:round;}
	.st7{fill:#FF0000;stroke:#FF0000;stroke-width:0.4204;stroke-linejoin:round;}
	.st8{fill:#FFFFFF;}
	.st9{fill:#FFFFFF;stroke:#FF0000;stroke-width:0.4204;stroke-linejoin:round;}
	.st10{fill:#FF0000;}
	.st11{fill:none;stroke:#0000FF;stroke-width:0.4204;stroke-linecap:round;stroke-linejoin:round;}
	.st12{fill:#0000FF;stroke:#0000FF;stroke-width:0.4204;stroke-linejoin:round;}
	.st13{font-size:16.2807px;}
	.st14{fill:#FFFFFF;stroke:#0000FF;stroke-width:0.4204;stroke-linejoin:round;}
	.st15{fill:#0000FF;}
	.st16{fill:none;stroke:#008000;stroke-width:0.5;}
	.st17{fill:none;stroke:#008000;stroke-width:0.5;stroke-dasharray:0.5004,0.5004;}
	.st18{fill:#FFFFFF;stroke:#008000;stroke-width:0.2102;enable-background:new    ;}
	.st19{font-size:15.2287px;}
	.st20{opacity:0.5;fill:none;stroke:#FF9100;stroke-width:0.5;enable-background:new    ;}
	.st21{opacity:0.5;fill:none;stroke:#FF0000;stroke-width:0.5;enable-background:new    ;}
	.st22{fill:#FF9100;}
	.st23{font-size:12.5215px;}
	.st24{opacity:0.5;fill:none;stroke:#0000FF;stroke-width:0.5;enable-background:new    ;}
	.st25{fill:none;stroke:#0000FF;stroke-width:0.5;}
	.st26{fill:none;stroke:#0000FF;stroke-width:0.5;stroke-dasharray:0.4981,0.4981;}
	.st27{font-family:monospace;}
</style>
<g id="XMLID_5631_">
	<g id="XMLID_5640_">
		<g id="XMLID_5612_">
			<line id="XMLID_5619_" class="st0" x1="202.4" y1="451.2" x2="202.4" y2="538.9"/>
			<polyline id="XMLID_5625_" class="st0" points="199.4,535.9 202.4,538.9 205.4,535.9 			"/>
		</g>
		<text id="XMLID_5624_" transform="matrix(1 0 0 1 196.8947 559.0911)" class="st1 st2 st3">?</text>
		<line id="XMLID_5629_" class="st0" x1="202.4" y1="566.3" x2="202.4" y2="683.2"/>
		<polyline id="XMLID_5628_" class="st0" points="199.4,680.2 202.4,683.2 205.4,680.2 		"/>
	</g>
	<g id="patch_18_10_" class="st4">
		<g id="XMLID_5611_">
			<path id="XMLID_5618_" class="st5" d="M202.4,673.4c8.8,0,17.3,3.5,23.5,9.6c6.2,6.2,9.7,14.5,9.7,23.2c0,8.7-3.5,17-9.7,23.2
				c-6.2,6.2-14.7,9.6-23.5,9.6c-8.8,0-17.3-3.5-23.5-9.6c-6.2-6.2-9.7-14.5-9.7-23.2c0-8.7,3.5-17,9.7-23.2
				C185.2,676.9,193.6,673.4,202.4,673.4z"/>
		</g>
	</g>
	<line id="XMLID_5609_" class="st0" x1="74.2" y1="341.9" x2="74.2" y2="557.5"/>
	<line id="XMLID_5607_" class="st0" x1="330.6" y1="341.9" x2="330.6" y2="557.5"/>
	<g id="patch_18_9_">
		<g id="XMLID_5602_">
			<path id="XMLID_5603_" class="st0" d="M202.4,418.7c9.1,0,17.8,3.6,24.3,9.9c6.4,6.4,10.1,15,10.1,24c0,9-3.6,17.6-10.1,24
				c-6.4,6.4-15.2,9.9-24.3,9.9c-9.1,0-17.8-3.6-24.3-9.9c-6.4-6.4-10.1-15-10.1-24c0-9,3.6-17.6,10.1-24
				C184.6,422.3,193.3,418.7,202.4,418.7z"/>
		</g>
	</g>
	<line id="XMLID_5600_" class="st6" x1="313.7" y1="341.3" x2="202.4" y2="452.6"/>
	<g id="patch_10_16_">
		<path id="XMLID_5595_" class="st6" d="M313.4,345l0.2-3.7l-3.7-0.2"/>
	</g>
	<line id="XMLID_5596_" class="st6" x1="185.5" y1="435.7" x2="74.2" y2="324.4"/>
	<g id="XMLID_5586_">
		<circle id="XMLID_629_" class="st7" cx="202.4" cy="452.6" r="17.5"/>
		<g id="XMLID_4441_">
			<text transform="matrix(1 0 0 1 191.3698 458.4639)" class="st8 st2 st3">SC</text>
		</g>
	</g>
	<g id="XMLID_5588_">
		<circle id="XMLID_5592_" class="st9" cx="74.2" cy="324.4" r="17.5"/>
		<g id="XMLID_5589_">
			<text transform="matrix(1 0 0 1 68.7028 330.2719)" class="st10 st2 st3">P</text>
		</g>
	</g>
	<g id="XMLID_5591_">
		<circle id="XMLID_5599_" class="st9" cx="330.6" cy="324.4" r="17.5"/>
		<g id="XMLID_5593_">
			<text transform="matrix(1 0 0 1 325.0873 330.2719)" class="st10 st2 st3">A</text>
		</g>
	</g>
	<g id="patch_10_15_">
		<path id="XMLID_5590_" class="st6" d="M181.8,435.4l3.7,0.2l0.2-3.7"/>
	</g>
	<line id="XMLID_5623_" class="st11" x1="313.7" y1="594.9" x2="202.4" y2="706.2"/>
	<g id="patch_10_18_">
		<path id="XMLID_5622_" class="st11" d="M313.4,598.6l0.2-3.7l-3.7-0.2"/>
	</g>
	<line id="XMLID_5621_" class="st11" x1="185.5" y1="689.3" x2="74.2" y2="578"/>
	<g id="XMLID_5613_">
		<circle id="XMLID_5620_" class="st12" cx="202.4" cy="706.2" r="17.5"/>
		<g id="XMLID_5617_">
			<text transform="matrix(1 0 0 1 188.9973 712.0723)" class="st8 st2 st13">MSC</text>
		</g>
	</g>
	<g id="XMLID_5605_">
		<circle id="XMLID_5610_" class="st14" cx="74.2" cy="578" r="17.5"/>
		<g id="XMLID_5606_">
			<text transform="matrix(1 0 0 1 63.1779 583.8809)" class="st15 st2 st3">MP</text>
		</g>
	</g>
	<g id="XMLID_5598_">
		<circle id="XMLID_5604_" class="st14" cx="330.6" cy="578" r="17.5"/>
		<g id="XMLID_5601_">
			<text transform="matrix(1 0 0 1 319.562 583.8809)" class="st15 st2 st3">MA</text>
		</g>
	</g>
	<g id="patch_10_17_">
		<path id="XMLID_5587_" class="st11" d="M181.8,689l3.7,0.2l0.2-3.7"/>
	</g>
	<g id="XMLID_5636_">
		<polyline id="XMLID_5637_" class="st0" points="203.6,665.4 206.6,668.4 209.6,665.4 		"/>
		<polyline id="XMLID_5638_" class="st0" points="195.3,665.4 198.2,668.4 201.2,665.4 		"/>
		<path id="XMLID_5614_" class="st0" d="M74.2,402.1c0,116.7,124,130.5,124,241.2v25"/>
		<g id="XMLID_5661_">
			<polyline id="XMLID_5627_" class="st0" points="126.9,618.9 129.9,621.9 132.9,618.9 			"/>
			<g id="XMLID_4443_" class="st4">
				<g>
					<path class="st16" d="M74.2,402.1c0,0.1,0,0.2,0,0.3"/>
					<path class="st17" d="M74.2,402.8c0.3,97.5,55.6,105.1,55.6,198v20.6"/>
					<line class="st16" x1="129.9" y1="621.7" x2="129.9" y2="621.9"/>
				</g>
			</g>
		</g>
		<g id="XMLID_5670_">
			<polyline id="XMLID_5696_" class="st0" points="278,618.9 275,621.9 272,618.9 			"/>
			<g id="XMLID_5671_" class="st4">
				<g>
					<path class="st16" d="M330.6,402.1c0,0.1,0,0.2,0,0.3"/>
					<path class="st17" d="M330.6,402.8c-0.3,97.5-55.6,105.1-55.6,198v20.6"/>
					<line class="st16" x1="275" y1="621.7" x2="275" y2="621.9"/>
				</g>
			</g>
		</g>
		<path id="XMLID_5616_" class="st0" d="M330.6,402.1c0,110.7-124,124.5-124,241.2v25"/>
		<g id="XMLID_5647_">
			<path id="XMLID_5646_" class="st18" d="M301.6,506.4h-45.1c-1.5,0-2.6,1.2-2.6,2.6v16.7c0,1.5,1.2,2.6,2.6,2.6h45.1
				c1.5,0,2.6-1.2,2.6-2.6V509C304.2,507.6,303.1,506.4,301.6,506.4z"/>
			<text id="XMLID_5626_" transform="matrix(1 0 0 1 266.4731 522.0973)" class="st2 st19">pMA</text>
		</g>
		<g id="XMLID_5649_">
			<path id="XMLID_5651_" class="st18" d="M142.9,506.4h-42.8c-1.5,0-2.6,1.2-2.6,2.6v16.7c0,1.5,1.2,2.6,2.6,2.6h42.8
				c1.5,0,2.6-1.2,2.6-2.6V509C145.5,507.6,144.4,506.4,142.9,506.4z"/>
			<text id="XMLID_5650_" transform="matrix(1 0 0 1 108.9525 522.0973)" class="st2 st19">fMP</text>
		</g>
	</g>
	<polyline id="XMLID_5660_" class="st0" points="327.6,554.5 330.6,557.5 333.6,554.5 	"/>
	<polyline id="XMLID_5662_" class="st0" points="71.2,554.5 74.2,557.5 77.2,554.5 	"/>
	<path id="XMLID_5663_" class="st20" d="M86.9,275.9c8.3,2.2,16.2,6.5,22.8,13.1l88.7,88.7c2.2,2.2,5.9,2.2,8.1,0l87.5-87.5
		c19.5-19.5,51.5-21,71.3-1.8c20.2,19.5,20.4,51.7,0.7,71.5L237.8,488c-9.8,9.8-22.6,14.7-35.4,14.7s-25.6-4.9-35.4-14.7L40,361
		c-19.5-19.5-20.7-52.5-1.2-72c8.4-8.5,19.1-13.3,30.2-14.4c2.8-0.3,4.9-2.6,5-5.4l0.3-11"/>
	<path id="XMLID_5664_" class="st20" d="M74.2,773.1l0-118.1c0-3.9-1.6-7.7-4.4-10.5L40,614.6c-19.5-19.5-21-51.5-1.8-71.3
		c19.5-20.2,51.7-20.5,71.5-0.7l88.7,88.7c2.2,2.2,5.9,2.2,8.1,0l87.5-87.5c19.5-19.5,51.5-21,71.3-1.8
		c20.2,19.5,20.4,51.7,0.7,71.5L237.8,741.6c-9.8,9.8-22.6,14.7-35.4,14.7s-25.6-4.9-35.4-14.7l-84-84"/>
	<path id="XMLID_5633_" class="st21" d="M148.1,258.1v74.6c0,3.4-4.1,5.1-6.5,2.7l-39.1-39.1c-16.1-16.1-42.6-15.5-57.9,1.9
		c-13.9,15.9-12.2,40.2,2.8,55.1l127.2,127.2c7.7,7.7,17.9,11.6,28,11.6c10,0,20-3.8,27.7-11.3c15.8-15.4,15-41.8-0.6-57.4l-74-74"
		/>
	<g id="XMLID_5642_">
		<text transform="matrix(1 0 0 1 19.1525 253.7294)" class="st22 st2 st23">Col(P,A)</text>
	</g>
	<g id="XMLID_5635_">
		<text transform="matrix(1 0 0 1 86.2794 253.7294)" class="st10 st2 st23">Col(P,SC)</text>
	</g>
	<g id="XMLID_5657_">
		<text transform="matrix(1 0 0 1 171.0195 253.7294)" class="st10 st2 st23">Col(A,SC)</text>
	</g>
	<g id="XMLID_5645_">
		<text transform="matrix(1 0 0 1 5.384 784.4509)" class="st22 st2 st23">Col(MP,MA)</text>
	</g>
	<g id="XMLID_5665_">
		<text transform="matrix(1 0 0 1 99.2706 784.4509)" class="st15 st2 st23">Col(MP,fMP)</text>
	</g>
	<g id="XMLID_5667_">
		<text transform="matrix(1 0 0 1 271.8971 784.4509)" class="st15 st2 st23">Col(MA,pMA)</text>
	</g>
	<path id="XMLID_5641_" class="st21" d="M241.3,253.7v97.8c0,3.7-1.5,7.3-4.1,10l-62.6,63.1c-15.5,15.5-15.5,40.6,0,56.1
		c7.7,7.7,17.9,11.6,28,11.6c10.1,0,20.3-3.9,28-11.6l127.2-127.2c14.9-14.9,16.7-39.2,2.8-55.1c-15.3-17.4-41.8-18-57.9-1.9
		l-53.2,53.2"/>
	<path id="XMLID_5654_" class="st24" d="M99.3,773.1l0-107.5c0-4.2-1.7-8.3-4.7-11.3L47.3,607c-14.9-14.9-16.7-39.2-2.8-55.1
		c15.3-17.4,41.8-18,57.9-1.9l127.2,127.2c15.6,15.6,16.4,42,0.6,57.4c-7.7,7.5-17.7,11.3-27.7,11.3c-10.1,0-20.3-3.9-28-11.6
		l-65.9-65.9"/>
	<path id="XMLID_5666_" class="st24" d="M271.9,773.1l0-73.8c0-2.3-2.8-3.5-4.4-1.8l-36.8,36.8c-7.7,7.7-17.9,11.6-28,11.6
		c-10,0-20-3.8-27.7-11.3c-15.8-15.4-15-41.8,0.6-57.4L302.8,550c16.1-16.1,42.6-15.5,57.9,1.9c13.9,15.9,12.2,40.2-2.8,55.1
		l-80.4,80.4"/>
	<circle id="XMLID_5659_" class="st14" cx="129.9" cy="633.6" r="8.9"/>
	<circle id="XMLID_5668_" class="st14" cx="275.4" cy="633.6" r="8.9"/>
	<g id="XMLID_5672_" class="st4">
		<g>
			<path class="st25" d="M303.4,661.3c-0.1,0.1-0.1,0.1-0.2,0.2"/>
			<path class="st26" d="M302.9,661.8c-7.7,7.4-17.6,11.1-27.5,11.1c-10.1,0-20.3-3.9-28-11.6c-15.4-15.4-15.5-40.2-0.4-55.7"/>
			<path class="st25" d="M247.2,605.4c0.1-0.1,0.1-0.1,0.2-0.2"/>
		</g>
	</g>
	<g id="XMLID_5673_" class="st4">
		<g>
			<path class="st25" d="M157.7,605.2c0.1,0.1,0.1,0.1,0.2,0.2"/>
			<path class="st26" d="M158.2,605.7c15,15.5,14.8,40.2-0.5,55.5c-7.7,7.7-17.9,11.6-28,11.6c-10,0-20-3.8-27.7-11.3"/>
			<path class="st25" d="M101.8,661.4c-0.1-0.1-0.1-0.1-0.2-0.2"/>
		</g>
	</g>
	<g id="XMLID_5669_">
		<text transform="matrix(1 0 0 1 126.4163 636.6224)" class="st15 st27 st23">x</text>
	</g>
	<g id="XMLID_5682_">
		<text transform="matrix(1 0 0 1 271.9637 636.6224)" class="st15 st27 st23">x</text>
	</g>
</g>
</svg>
