<?xml version="1.0" encoding="iso-8859-1"?>
<!-- Generator: Adobe Illustrator 19.0.0, SVG Export Plug-In . SVG Version: 6.00 Build 0)  -->
<svg version="1.1" id="Layer_1" xmlns="http://www.w3.org/2000/svg" xmlns:xlink="http://www.w3.org/1999/xlink" x="0px" y="0px"
	 width="183.505px" height="211.34px" viewBox="0 0 183.505 211.34" style="enable-background:new 0 0 183.505 211.34;"
	 xml:space="preserve">
<g id="XMLID_427_">
	<polygon id="XMLID_322_" style="fill:none;stroke:#E000E2;stroke-width:0.25;stroke-miterlimit:10;" points="23.781,135.758 
		25.698,146.693 31.162,155.205 39.845,160.672 51.397,162.589 77.1,151.767 41.254,106.902 34.206,112.424 28.684,118.849 
		25.077,126.514 23.781,135.758 	"/>
	<polygon id="XMLID_321_" style="fill:none;stroke:#2200C6;stroke-width:0.25;stroke-miterlimit:10;" points="116.265,75.814 
		117.955,84.888 122.744,91.99 130.241,96.611 140.049,98.246 151.378,96.443 161.13,90.807 128.777,51.126 119.703,61.667 
		116.265,75.814 	"/>
	<circle id="XMLID_320_" cx="41.254" cy="106.902" r="1.134"/>
	<circle id="XMLID_377_" cx="128.752" cy="51.24" r="1.134"/>
	<circle id="XMLID_382_" cx="119.752" cy="61.74" r="1.134"/>
	<circle id="XMLID_388_" cx="116.252" cy="75.906" r="1.134"/>
	<circle id="XMLID_391_" cx="118.086" cy="84.906" r="1.134"/>
	<circle id="XMLID_392_" cx="122.752" cy="91.906" r="1.134"/>
	<circle id="XMLID_394_" cx="130.252" cy="96.573" r="1.134"/>
	<circle id="XMLID_397_" cx="140.252" cy="98.24" r="1.134"/>
	<circle id="XMLID_398_" cx="151.252" cy="96.573" r="1.134"/>
	<circle id="XMLID_401_" cx="161.086" cy="90.906" r="1.134"/>
	<circle id="XMLID_328_" cx="34.294" cy="112.205" r="1.134"/>
	<circle id="XMLID_329_" cx="28.794" cy="118.892" r="1.134"/>
	<circle id="XMLID_360_" cx="24.915" cy="126.383" r="1.134"/>
	<circle id="XMLID_365_" cx="23.781" cy="135.765" r="1.134"/>
	<circle id="XMLID_366_" cx="25.544" cy="146.767" r="1.134"/>
	<circle id="XMLID_367_" cx="31.169" cy="155.142" r="1.134"/>
	<circle id="XMLID_368_" cx="39.919" cy="160.767" r="1.134"/>
	<circle id="XMLID_369_" cx="51.419" cy="162.642" r="1.134"/>
	<circle id="XMLID_370_" cx="77.044" cy="151.767" r="1.134"/>
	
		<line id="XMLID_327_" style="fill:none;stroke:#00FF00;stroke-width:0.5;stroke-linecap:round;stroke-miterlimit:10;" x1="41.254" y1="106.902" x2="128.777" y2="51.126"/>
	
		<line id="XMLID_406_" style="fill:none;stroke:#00FF00;stroke-width:0.5;stroke-linecap:round;stroke-miterlimit:10;" x1="34.206" y1="112.424" x2="119.752" y2="61.74"/>
	
		<line id="XMLID_407_" style="fill:none;stroke:#EC1E24;stroke-width:0.5;stroke-linecap:round;stroke-miterlimit:10;" x1="28.684" y1="118.849" x2="116.252" y2="75.906"/>
	
		<line id="XMLID_408_" style="fill:none;stroke:#EC1E24;stroke-width:0.5;stroke-linecap:round;stroke-miterlimit:10;" x1="24.915" y1="126.383" x2="118.086" y2="84.906"/>
	
		<line id="XMLID_409_" style="fill:none;stroke:#EC1E24;stroke-width:0.5;stroke-linecap:round;stroke-miterlimit:10;" x1="23.781" y1="135.758" x2="122.752" y2="91.906"/>
	
		<line id="XMLID_410_" style="fill:none;stroke:#EC1E24;stroke-width:0.5;stroke-linecap:round;stroke-miterlimit:10;" x1="25.698" y1="146.693" x2="130.252" y2="96.573"/>
	
		<line id="XMLID_411_" style="fill:none;stroke:#EC1E24;stroke-width:0.5;stroke-linecap:round;stroke-miterlimit:10;" x1="31.162" y1="155.205" x2="140.252" y2="98.24"/>
	
		<line id="XMLID_412_" style="fill:none;stroke:#EC1E24;stroke-width:0.5;stroke-linecap:round;stroke-miterlimit:10;" x1="39.845" y1="160.672" x2="151.252" y2="96.573"/>
	
		<line id="XMLID_413_" style="fill:none;stroke:#EC1E24;stroke-width:0.5;stroke-linecap:round;stroke-miterlimit:10;" x1="51.397" y1="162.589" x2="161.086" y2="90.906"/>
</g>
</svg>
