<?xml version="1.0" encoding="utf-8" standalone="no"?>
<!DOCTYPE svg PUBLIC "-//W3C//DTD SVG 1.1//EN"
  "http://www.w3.org/Graphics/SVG/1.1/DTD/svg11.dtd">
<!-- Created with matplotlib (http://matplotlib.org/) -->
<svg height="345.6pt" version="1.1" viewBox="0 0 460.8 345.6" width="460.8pt" xmlns="http://www.w3.org/2000/svg" xmlns:xlink="http://www.w3.org/1999/xlink">
 <defs>
  <style type="text/css">
*{stroke-linecap:butt;stroke-linejoin:round;}
  </style>
 </defs>
 <g id="figure_1">
  <g id="patch_1">
   <path d="M 0 345.6 
L 460.8 345.6 
L 460.8 0 
L 0 0 
z
" style="fill:#ffffff;"/>
  </g>
  <g id="axes_1">
   <g id="patch_2">
    <path clip-path="url(#p899e1458e4)" d="M 242.528188 44.935418 
C 243.155649 44.935418 243.757496 44.749577 244.201178 44.418824 
C 244.64486 44.088072 244.894154 43.639412 244.894154 43.171657 
C 244.894154 42.703902 244.64486 42.255242 244.201178 41.924489 
C 243.757496 41.593737 243.155649 41.407896 242.528188 41.407896 
C 241.900726 41.407896 241.298879 41.593737 240.855197 41.924489 
C 240.411515 42.255242 240.162221 42.703902 240.162221 43.171657 
C 240.162221 43.639412 240.411515 44.088072 240.855197 44.418824 
C 241.298879 44.749577 241.900726 44.935418 242.528188 44.935418 
z
" style="fill:#ff0000;opacity:0.2;stroke:#ff0000;stroke-linejoin:miter;"/>
   </g>
   <g id="patch_3">
    <path clip-path="url(#p899e1458e4)" d="M 406.962831 167.516815 
C 407.590292 167.516815 408.192139 167.330974 408.635821 167.000222 
C 409.079504 166.669469 409.328797 166.220809 409.328797 165.753054 
C 409.328797 165.285299 409.079504 164.836639 408.635821 164.505887 
C 408.192139 164.175134 407.590292 163.989293 406.962831 163.989293 
C 406.335369 163.989293 405.733522 164.175134 405.28984 164.505887 
C 404.846158 164.836639 404.596865 165.285299 404.596865 165.753054 
C 404.596865 166.220809 404.846158 166.669469 405.28984 167.000222 
C 405.733522 167.330974 406.335369 167.516815 406.962831 167.516815 
z
" style="fill:#ff0000;opacity:0.2;stroke:#ff0000;stroke-linejoin:miter;"/>
   </g>
   <g id="patch_4">
    <path clip-path="url(#p899e1458e4)" d="M 242.528188 289.216332 
C 243.155649 289.216332 243.757496 289.030491 244.201178 288.699738 
C 244.64486 288.368986 244.894154 287.920326 244.894154 287.452571 
C 244.894154 286.984816 244.64486 286.536156 244.201178 286.205403 
C 243.757496 285.874651 243.155649 285.68881 242.528188 285.68881 
C 241.900726 285.68881 241.298879 285.874651 240.855197 286.205403 
C 240.411515 286.536156 240.162221 286.984816 240.162221 287.452571 
C 240.162221 287.920326 240.411515 288.368986 240.855197 288.699738 
C 241.298879 289.030491 241.900726 289.216332 242.528188 289.216332 
z
" style="fill:#ff0000;opacity:0.2;stroke:#ff0000;stroke-linejoin:miter;"/>
   </g>
   <g id="patch_5">
    <path clip-path="url(#p899e1458e4)" d="M 78.093544 167.516815 
C 78.721006 167.516815 79.322853 167.330974 79.766535 167.000222 
C 80.210217 166.669469 80.45951 166.220809 80.45951 165.753054 
C 80.45951 165.285299 80.210217 164.836639 79.766535 164.505887 
C 79.322853 164.175134 78.721006 163.989293 78.093544 163.989293 
C 77.466083 163.989293 76.864236 164.175134 76.420554 164.505887 
C 75.976871 164.836639 75.727578 165.285299 75.727578 165.753054 
C 75.727578 166.220809 75.976871 166.669469 76.420554 167.000222 
C 76.864236 167.330974 77.466083 167.516815 78.093544 167.516815 
z
" style="fill:#ff0000;opacity:0.2;stroke:#ff0000;stroke-linejoin:miter;"/>
   </g>
   <g id="patch_6">
    <path clip-path="url(#p899e1458e4)" d="M 241.936696 30.825329 
C 242.564158 30.825329 243.166004 30.639488 243.609687 30.308735 
C 244.053369 29.977983 244.302662 29.529323 244.302662 29.061568 
C 244.302662 28.593813 244.053369 28.145153 243.609687 27.8144 
C 243.166004 27.483648 242.564158 27.297807 241.936696 27.297807 
C 241.309234 27.297807 240.707388 27.483648 240.263705 27.8144 
C 239.820023 28.145153 239.57073 28.593813 239.57073 29.061568 
C 239.57073 29.529323 239.820023 29.977983 240.263705 30.308735 
C 240.707388 30.639488 241.309234 30.825329 241.936696 30.825329 
z
" style="fill:#0000ff;opacity:0.2;stroke:#0000ff;stroke-linejoin:miter;"/>
   </g>
   <g id="patch_7">
    <path clip-path="url(#p899e1458e4)" d="M 426.482051 168.398696 
C 427.109512 168.398696 427.711359 168.212855 428.155042 167.882102 
C 428.598724 167.551349 428.848017 167.10269 428.848017 166.634935 
C 428.848017 166.16718 428.598724 165.71852 428.155042 165.387767 
C 427.711359 165.057015 427.109512 164.871174 426.482051 164.871174 
C 425.854589 164.871174 425.252743 165.057015 424.80906 165.387767 
C 424.365378 165.71852 424.116085 166.16718 424.116085 166.634935 
C 424.116085 167.10269 424.365378 167.551349 424.80906 167.882102 
C 425.252743 168.212855 425.854589 168.398696 426.482051 168.398696 
z
" style="fill:#0000ff;opacity:0.2;stroke:#0000ff;stroke-linejoin:miter;"/>
   </g>
   <g id="patch_8">
    <path clip-path="url(#p899e1458e4)" d="M 241.936696 306.853943 
C 242.564158 306.853943 243.166004 306.668102 243.609687 306.33735 
C 244.053369 306.006597 244.302662 305.557937 244.302662 305.090182 
C 244.302662 304.622427 244.053369 304.173767 243.609687 303.843015 
C 243.166004 303.512262 242.564158 303.326421 241.936696 303.326421 
C 241.309234 303.326421 240.707388 303.512262 240.263705 303.843015 
C 239.820023 304.173767 239.57073 304.622427 239.57073 305.090182 
C 239.57073 305.557937 239.820023 306.006597 240.263705 306.33735 
C 240.707388 306.668102 241.309234 306.853943 241.936696 306.853943 
z
" style="fill:#0000ff;opacity:0.2;stroke:#0000ff;stroke-linejoin:miter;"/>
   </g>
   <g id="patch_9">
    <path clip-path="url(#p899e1458e4)" d="M 58.574324 168.398696 
C 59.201786 168.398696 59.803632 168.212855 60.247315 167.882102 
C 60.690997 167.551349 60.94029 167.10269 60.94029 166.634935 
C 60.94029 166.16718 60.690997 165.71852 60.247315 165.387767 
C 59.803632 165.057015 59.201786 164.871174 58.574324 164.871174 
C 57.946863 164.871174 57.345016 165.057015 56.901333 165.387767 
C 56.457651 165.71852 56.208358 166.16718 56.208358 166.634935 
C 56.208358 167.10269 56.457651 167.551349 56.901333 167.882102 
C 57.345016 168.212855 57.946863 168.398696 58.574324 168.398696 
z
" style="fill:#0000ff;opacity:0.2;stroke:#0000ff;stroke-linejoin:miter;"/>
   </g>
   <g id="patch_10">
    <path clip-path="url(#p899e1458e4)" d="M 242.528188 43.171657 
C 333.617882 43.171657 406.962831 96.966371 406.962831 165.753054 
C 406.962831 234.539738 333.617882 287.452571 242.528188 287.452571 
C 151.438493 287.452571 78.093544 234.539738 78.093544 165.753054 
C 78.093544 96.966371 151.438493 43.171657 242.528188 43.171657 
" style="fill:none;stroke:#ff0000;stroke-linejoin:miter;stroke-width:0.5;"/>
   </g>
   <g id="patch_11">
    <path clip-path="url(#p899e1458e4)" d="M 241.936696 29.061568 
C 343.673238 29.061568 426.482051 89.911326 426.482051 166.634935 
C 426.482051 244.240424 343.673238 305.090182 241.936696 305.090182 
C 141.383137 305.090182 58.574324 245.122304 58.574324 166.634935 
C 58.574324 89.911326 139.017171 29.061568 241.936696 29.061568 
" style="fill:none;stroke:#0000ff;stroke-linejoin:miter;stroke-width:0.5;"/>
   </g>
   <g id="patch_12">
    <path clip-path="url(#p899e1458e4)" d="M 242.528188 48.46294 
C 244.410572 48.46294 246.216113 47.905417 247.547159 46.913159 
C 248.878206 45.920901 249.626086 44.574922 249.626086 43.171657 
C 249.626086 41.768392 248.878206 40.422413 247.547159 39.430155 
C 246.216113 38.437896 244.410572 37.880373 242.528188 37.880373 
C 240.645803 37.880373 238.840262 38.437896 237.509216 39.430155 
C 236.178169 40.422413 235.430289 41.768392 235.430289 43.171657 
C 235.430289 44.574922 236.178169 45.920901 237.509216 46.913159 
C 238.840262 47.905417 240.645803 48.46294 242.528188 48.46294 
z
" style="fill:#0000ff;opacity:0.2;stroke:#0000ff;stroke-linejoin:miter;"/>
   </g>
   <g id="patch_13">
    <path clip-path="url(#p899e1458e4)" d="M 241.936696 34.352851 
C 243.819081 34.352851 245.624621 33.795328 246.955668 32.80307 
C 248.286715 31.810812 249.034594 30.464833 249.034594 29.061568 
C 249.034594 27.658303 248.286715 26.312324 246.955668 25.320066 
C 245.624621 24.327808 243.819081 23.770285 241.936696 23.770285 
C 240.054311 23.770285 238.248771 24.327808 236.917724 25.320066 
C 235.586677 26.312324 234.838798 27.658303 234.838798 29.061568 
C 234.838798 30.464833 235.586677 31.810812 236.917724 32.80307 
C 238.248771 33.795328 240.054311 34.352851 241.936696 34.352851 
z
" style="fill:#ff0000;opacity:0.2;stroke:#ff0000;stroke-linejoin:miter;"/>
   </g>
   <g id="patch_14">
    <path d="M 242.528188 43.171657 
Q 242.274392 37.11734 242.109444 33.182482 
" style="fill:none;opacity:0.5;stroke:#0000ff;stroke-linecap:round;stroke-width:3;"/>
    <path d="M 240.673584 34.743991 
L 242.109444 33.182482 
L 243.670952 34.618342 
" style="fill:none;opacity:0.5;stroke:#0000ff;stroke-linecap:round;stroke-width:3;"/>
   </g>
   <g id="patch_15">
    <path clip-path="url(#p899e1458e4)" d="M 406.962831 170.603397 
C 408.68835 170.603397 410.343429 170.092334 411.563555 169.182765 
C 412.783681 168.273195 413.469237 167.03938 413.469237 165.753054 
C 413.469237 164.466728 412.783681 163.232914 411.563555 162.323344 
C 410.343429 161.413774 408.68835 160.902711 406.962831 160.902711 
C 405.237311 160.902711 403.582233 161.413774 402.362106 162.323344 
C 401.14198 163.232914 400.456424 164.466728 400.456424 165.753054 
C 400.456424 167.03938 401.14198 168.273195 402.362106 169.182765 
C 403.582233 170.092334 405.237311 170.603397 406.962831 170.603397 
z
" style="fill:#0000ff;opacity:0.2;stroke:#0000ff;stroke-linejoin:miter;"/>
   </g>
   <g id="patch_16">
    <path clip-path="url(#p899e1458e4)" d="M 426.482051 171.485278 
C 428.20757 171.485278 429.862649 170.974215 431.082775 170.064645 
C 432.302902 169.155075 432.988458 167.921261 432.988458 166.634935 
C 432.988458 165.348609 432.302902 164.114794 431.082775 163.205224 
C 429.862649 162.295654 428.20757 161.784592 426.482051 161.784592 
C 424.756532 161.784592 423.101453 162.295654 421.881327 163.205224 
C 420.6612 164.114794 419.975644 165.348609 419.975644 166.634935 
C 419.975644 167.921261 420.6612 169.155075 421.881327 170.064645 
C 423.101453 170.974215 424.756532 171.485278 426.482051 171.485278 
z
" style="fill:#ff0000;opacity:0.2;stroke:#ff0000;stroke-linejoin:miter;"/>
   </g>
   <g id="patch_17">
    <path d="M 406.962831 165.753054 
Q 415.724082 166.148888 422.542772 166.456958 
" style="fill:none;opacity:0.5;stroke:#0000ff;stroke-linecap:round;stroke-width:2.75;"/>
    <path d="M 421.112002 164.890785 
L 422.542772 166.456958 
L 420.976599 167.887728 
" style="fill:none;opacity:0.5;stroke:#0000ff;stroke-linecap:round;stroke-width:2.75;"/>
   </g>
   <g id="patch_18">
    <path clip-path="url(#p899e1458e4)" d="M 242.528188 293.184795 
C 244.567438 293.184795 246.52344 292.580811 247.965407 291.505865 
C 249.407375 290.430919 250.217577 288.972774 250.217577 287.452571 
C 250.217577 285.932367 249.407375 284.474223 247.965407 283.399277 
C 246.52344 282.324331 244.567438 281.720347 242.528188 281.720347 
C 240.488937 281.720347 238.532935 282.324331 237.090968 283.399277 
C 235.649 284.474223 234.838798 285.932367 234.838798 287.452571 
C 234.838798 288.972774 235.649 290.430919 237.090968 291.505865 
C 238.532935 292.580811 240.488937 293.184795 242.528188 293.184795 
z
" style="fill:#0000ff;opacity:0.2;stroke:#0000ff;stroke-linejoin:miter;"/>
   </g>
   <g id="patch_19">
    <path clip-path="url(#p899e1458e4)" d="M 241.936696 310.822406 
C 243.975946 310.822406 245.931948 310.218422 247.373916 309.143476 
C 248.815883 308.06853 249.626086 306.610386 249.626086 305.090182 
C 249.626086 303.569979 248.815883 302.111834 247.373916 301.036888 
C 245.931948 299.961942 243.975946 299.357958 241.936696 299.357958 
C 239.897446 299.357958 237.941444 299.961942 236.499476 301.036888 
C 235.057509 302.111834 234.247306 303.569979 234.247306 305.090182 
C 234.247306 306.610386 235.057509 308.06853 236.499476 309.143476 
C 237.941444 310.218422 239.897446 310.822406 241.936696 310.822406 
z
" style="fill:#ff0000;opacity:0.2;stroke:#ff0000;stroke-linejoin:miter;"/>
   </g>
   <g id="patch_20">
    <path d="M 242.528188 287.452571 
Q 242.266016 295.270218 242.080871 300.79106 
" style="fill:none;opacity:0.5;stroke:#0000ff;stroke-linecap:round;stroke-width:3.25;"/>
    <path d="M 243.630303 299.342178 
L 242.080871 300.79106 
L 240.631989 299.241627 
" style="fill:none;opacity:0.5;stroke:#0000ff;stroke-linecap:round;stroke-width:3.25;"/>
   </g>
   <g id="patch_21">
    <path clip-path="url(#p899e1458e4)" d="M 78.093544 171.044338 
C 79.975929 171.044338 81.781469 170.486815 83.112516 169.494556 
C 84.443563 168.502298 85.191443 167.156319 85.191443 165.753054 
C 85.191443 164.349789 84.443563 163.00381 83.112516 162.011552 
C 81.781469 161.019294 79.975929 160.461771 78.093544 160.461771 
C 76.21116 160.461771 74.405619 161.019294 73.074572 162.011552 
C 71.743525 163.00381 70.995646 164.349789 70.995646 165.753054 
C 70.995646 167.156319 71.743525 168.502298 73.074572 169.494556 
C 74.405619 170.486815 76.21116 171.044338 78.093544 171.044338 
z
" style="fill:#0000ff;opacity:0.2;stroke:#0000ff;stroke-linejoin:miter;"/>
   </g>
   <g id="patch_22">
    <path clip-path="url(#p899e1458e4)" d="M 58.574324 171.926218 
C 60.456709 171.926218 62.262249 171.368695 63.593296 170.376437 
C 64.924343 169.384179 65.672222 168.038199 65.672222 166.634935 
C 65.672222 165.23167 64.924343 163.88569 63.593296 162.893432 
C 62.262249 161.901174 60.456709 161.343651 58.574324 161.343651 
C 56.691939 161.343651 54.886399 161.901174 53.555352 162.893432 
C 52.224305 163.88569 51.476426 165.23167 51.476426 166.634935 
C 51.476426 168.038199 52.224305 169.384179 53.555352 170.376437 
C 54.886399 171.368695 56.691939 171.926218 58.574324 171.926218 
z
" style="fill:#ff0000;opacity:0.2;stroke:#ff0000;stroke-linejoin:miter;"/>
   </g>
   <g id="patch_23">
    <path d="M 78.093544 165.753054 
Q 69.332293 166.148888 62.6902 166.448979 
" style="fill:none;opacity:0.5;stroke:#0000ff;stroke-linecap:round;stroke-width:3;"/>
    <path d="M 64.256372 167.879749 
L 62.6902 166.448979 
L 64.12097 164.882806 
" style="fill:none;opacity:0.5;stroke:#0000ff;stroke-linecap:round;stroke-width:3;"/>
   </g>
   <g id="patch_24">
    <path clip-path="url(#p899e1458e4)" d="M 241.936696 33.911911 
C 243.662215 33.911911 245.317294 33.400848 246.53742 32.491278 
C 247.757547 31.581709 248.443103 30.347894 248.443103 29.061568 
C 248.443103 27.775242 247.757547 26.541427 246.53742 25.631857 
C 245.317294 24.722288 243.662215 24.211225 241.936696 24.211225 
C 240.211177 24.211225 238.556098 24.722288 237.335972 25.631857 
C 236.115845 26.541427 235.430289 27.775242 235.430289 29.061568 
C 235.430289 30.347894 236.115845 31.581709 237.335972 32.491278 
C 238.556098 33.400848 240.211177 33.911911 241.936696 33.911911 
z
" style="fill:#0000ff;opacity:0.2;stroke:#0000ff;stroke-linejoin:miter;"/>
   </g>
   <g id="patch_25">
    <path clip-path="url(#p899e1458e4)" d="M 242.528188 48.022 
C 244.253707 48.022 245.908785 47.510937 247.128912 46.601367 
C 248.349038 45.691797 249.034594 44.457983 249.034594 43.171657 
C 249.034594 41.885331 248.349038 40.651516 247.128912 39.741946 
C 245.908785 38.832377 244.253707 38.321314 242.528188 38.321314 
C 240.802668 38.321314 239.14759 38.832377 237.927463 39.741946 
C 236.707337 40.651516 236.021781 41.885331 236.021781 43.171657 
C 236.021781 44.457983 236.707337 45.691797 237.927463 46.601367 
C 239.14759 47.510937 240.802668 48.022 242.528188 48.022 
z
" style="fill:#ff0000;opacity:0.2;stroke:#ff0000;stroke-linejoin:miter;"/>
   </g>
   <g id="patch_26">
    <path d="M 241.936696 29.061568 
Q 242.190491 35.115885 242.362844 39.227364 
" style="fill:none;opacity:0.5;stroke:#ff0000;stroke-linecap:round;stroke-width:2.75;"/>
    <path d="M 243.798703 37.665856 
L 242.362844 39.227364 
L 240.801335 37.791505 
" style="fill:none;opacity:0.5;stroke:#ff0000;stroke-linecap:round;stroke-width:2.75;"/>
   </g>
   <g id="patch_27">
    <path clip-path="url(#p899e1458e4)" d="M 426.482051 172.367158 
C 428.521301 172.367158 430.477303 171.763175 431.919271 170.688229 
C 433.361238 169.613283 434.171441 168.155138 434.171441 166.634935 
C 434.171441 165.114731 433.361238 163.656587 431.919271 162.581641 
C 430.477303 161.506694 428.521301 160.902711 426.482051 160.902711 
C 424.442801 160.902711 422.486799 161.506694 421.044831 162.581641 
C 419.602864 163.656587 418.792661 165.114731 418.792661 166.634935 
C 418.792661 168.155138 419.602864 169.613283 421.044831 170.688229 
C 422.486799 171.763175 424.442801 172.367158 426.482051 172.367158 
z
" style="fill:#0000ff;opacity:0.2;stroke:#0000ff;stroke-linejoin:miter;"/>
   </g>
   <g id="patch_28">
    <path clip-path="url(#p899e1458e4)" d="M 406.962831 171.485278 
C 409.002081 171.485278 410.958083 170.881295 412.40005 169.806348 
C 413.842018 168.731402 414.652221 167.273258 414.652221 165.753054 
C 414.652221 164.232851 413.842018 162.774706 412.40005 161.69976 
C 410.958083 160.624814 409.002081 160.020831 406.962831 160.020831 
C 404.923581 160.020831 402.967579 160.624814 401.525611 161.69976 
C 400.083644 162.774706 399.273441 164.232851 399.273441 165.753054 
C 399.273441 167.273258 400.083644 168.731402 401.525611 169.806348 
C 402.967579 170.881295 404.923581 171.485278 406.962831 171.485278 
z
" style="fill:#ff0000;opacity:0.2;stroke:#ff0000;stroke-linejoin:miter;"/>
   </g>
   <g id="patch_29">
    <path d="M 426.482051 166.634935 
Q 417.720799 166.2391 411.255303 165.946989 
" style="fill:none;opacity:0.5;stroke:#ff0000;stroke-linecap:round;stroke-width:3.25;"/>
    <path d="M 412.686073 167.513161 
L 411.255303 165.946989 
L 412.821475 164.516218 
" style="fill:none;opacity:0.5;stroke:#ff0000;stroke-linecap:round;stroke-width:3.25;"/>
   </g>
   <g id="patch_30">
    <path clip-path="url(#p899e1458e4)" d="M 241.936696 310.381465 
C 243.819081 310.381465 245.624621 309.823942 246.955668 308.831684 
C 248.286715 307.839426 249.034594 306.493447 249.034594 305.090182 
C 249.034594 303.686917 248.286715 302.340938 246.955668 301.34868 
C 245.624621 300.356422 243.819081 299.798899 241.936696 299.798899 
C 240.054311 299.798899 238.248771 300.356422 236.917724 301.34868 
C 235.586677 302.340938 234.838798 303.686917 234.838798 305.090182 
C 234.838798 306.493447 235.586677 307.839426 236.917724 308.831684 
C 238.248771 309.823942 240.054311 310.381465 241.936696 310.381465 
z
" style="fill:#0000ff;opacity:0.2;stroke:#0000ff;stroke-linejoin:miter;"/>
   </g>
   <g id="patch_31">
    <path clip-path="url(#p899e1458e4)" d="M 242.528188 292.743854 
C 244.410572 292.743854 246.216113 292.186331 247.547159 291.194073 
C 248.878206 290.201815 249.626086 288.855836 249.626086 287.452571 
C 249.626086 286.049306 248.878206 284.703327 247.547159 283.711069 
C 246.216113 282.718811 244.410572 282.161288 242.528188 282.161288 
C 240.645803 282.161288 238.840262 282.718811 237.509216 283.711069 
C 236.178169 284.703327 235.430289 286.049306 235.430289 287.452571 
C 235.430289 288.855836 236.178169 290.201815 237.509216 291.194073 
C 238.840262 292.186331 240.645803 292.743854 242.528188 292.743854 
z
" style="fill:#ff0000;opacity:0.2;stroke:#ff0000;stroke-linejoin:miter;"/>
   </g>
   <g id="patch_32">
    <path d="M 241.936696 305.090182 
Q 242.198867 297.272535 242.389938 291.575016 
" style="fill:none;opacity:0.5;stroke:#ff0000;stroke-linecap:round;stroke-width:3;"/>
    <path d="M 240.840505 293.023898 
L 242.389938 291.575016 
L 243.83882 293.124449 
" style="fill:none;opacity:0.5;stroke:#ff0000;stroke-linecap:round;stroke-width:3;"/>
   </g>
   <g id="patch_33">
    <path clip-path="url(#p899e1458e4)" d="M 58.574324 171.926218 
C 60.456709 171.926218 62.262249 171.368695 63.593296 170.376437 
C 64.924343 169.384179 65.672222 168.038199 65.672222 166.634935 
C 65.672222 165.23167 64.924343 163.88569 63.593296 162.893432 
C 62.262249 161.901174 60.456709 161.343651 58.574324 161.343651 
C 56.691939 161.343651 54.886399 161.901174 53.555352 162.893432 
C 52.224305 163.88569 51.476426 165.23167 51.476426 166.634935 
C 51.476426 168.038199 52.224305 169.384179 53.555352 170.376437 
C 54.886399 171.368695 56.691939 171.926218 58.574324 171.926218 
z
" style="fill:#0000ff;opacity:0.2;stroke:#0000ff;stroke-linejoin:miter;"/>
   </g>
   <g id="patch_34">
    <path clip-path="url(#p899e1458e4)" d="M 78.093544 171.044338 
C 79.975929 171.044338 81.781469 170.486815 83.112516 169.494556 
C 84.443563 168.502298 85.191443 167.156319 85.191443 165.753054 
C 85.191443 164.349789 84.443563 163.00381 83.112516 162.011552 
C 81.781469 161.019294 79.975929 160.461771 78.093544 160.461771 
C 76.21116 160.461771 74.405619 161.019294 73.074572 162.011552 
C 71.743525 163.00381 70.995646 164.349789 70.995646 165.753054 
C 70.995646 167.156319 71.743525 168.502298 73.074572 169.494556 
C 74.405619 170.486815 76.21116 171.044338 78.093544 171.044338 
z
" style="fill:#ff0000;opacity:0.2;stroke:#ff0000;stroke-linejoin:miter;"/>
   </g>
   <g id="patch_35">
    <path d="M 58.574324 166.634935 
Q 67.335576 166.2391 73.977669 165.93901 
" style="fill:none;opacity:0.5;stroke:#ff0000;stroke-linecap:round;stroke-width:3;"/>
    <path d="M 72.411496 164.50824 
L 73.977669 165.93901 
L 72.546898 167.505182 
" style="fill:none;opacity:0.5;stroke:#ff0000;stroke-linecap:round;stroke-width:3;"/>
   </g>
   <g id="patch_36">
    <path clip-path="url(#p899e1458e4)" d="M 242.232442 40.526015 
C 243.801096 40.526015 245.305713 40.061413 246.414918 39.234531 
C 247.524124 38.407649 248.147357 37.286 248.147357 36.116612 
C 248.147357 34.947225 247.524124 33.825575 246.414918 32.998694 
C 245.305713 32.171812 243.801096 31.70721 242.232442 31.70721 
C 240.663788 31.70721 239.159171 32.171812 238.049965 32.998694 
C 236.940759 33.825575 236.317527 34.947225 236.317527 36.116612 
C 236.317527 37.286 236.940759 38.407649 238.049965 39.234531 
C 239.159171 40.061413 240.663788 40.526015 242.232442 40.526015 
z
" style="fill:#008000;opacity:0.2;stroke:#008000;stroke-linejoin:miter;"/>
   </g>
   <g id="patch_37">
    <path clip-path="url(#p899e1458e4)" d="M 416.722441 170.603397 
C 418.291095 170.603397 419.795712 170.138795 420.904918 169.311913 
C 422.014123 168.485031 422.637356 167.363382 422.637356 166.193994 
C 422.637356 165.024607 422.014123 163.902958 420.904918 163.076076 
C 419.795712 162.249194 418.291095 161.784592 416.722441 161.784592 
C 415.153787 161.784592 413.64917 162.249194 412.539964 163.076076 
C 411.430758 163.902958 410.807526 165.024607 410.807526 166.193994 
C 410.807526 167.363382 411.430758 168.485031 412.539964 169.311913 
C 413.64917 170.138795 415.153787 170.603397 416.722441 170.603397 
z
" style="fill:#008000;opacity:0.2;stroke:#008000;stroke-linejoin:miter;"/>
   </g>
   <g id="patch_38">
    <path clip-path="url(#p899e1458e4)" d="M 242.232442 300.680779 
C 243.801096 300.680779 245.305713 300.216177 246.414918 299.389295 
C 247.524124 298.562413 248.147357 297.440764 248.147357 296.271377 
C 248.147357 295.101989 247.524124 293.98034 246.414918 293.153458 
C 245.305713 292.326576 243.801096 291.861974 242.232442 291.861974 
C 240.663788 291.861974 239.159171 292.326576 238.049965 293.153458 
C 236.940759 293.98034 236.317527 295.101989 236.317527 296.271377 
C 236.317527 297.440764 236.940759 298.562413 238.049965 299.389295 
C 239.159171 300.216177 240.663788 300.680779 242.232442 300.680779 
z
" style="fill:#008000;opacity:0.2;stroke:#008000;stroke-linejoin:miter;"/>
   </g>
   <g id="patch_39">
    <path clip-path="url(#p899e1458e4)" d="M 68.333934 170.603397 
C 69.902588 170.603397 71.407205 170.138795 72.516411 169.311913 
C 73.625617 168.485031 74.248849 167.363382 74.248849 166.193994 
C 74.248849 165.024607 73.625617 163.902958 72.516411 163.076076 
C 71.407205 162.249194 69.902588 161.784592 68.333934 161.784592 
C 66.76528 161.784592 65.260663 162.249194 64.151457 163.076076 
C 63.042252 163.902958 62.419019 165.024607 62.419019 166.193994 
C 62.419019 167.363382 63.042252 168.485031 64.151457 169.311913 
C 65.260663 170.138795 66.76528 170.603397 68.333934 170.603397 
z
" style="fill:#008000;opacity:0.2;stroke:#008000;stroke-linejoin:miter;"/>
   </g>
   <g id="patch_40">
    <path d="M 242.232442 36.116612 
Q 329.477441 101.155303 416.722441 166.193994 
" style="fill:none;opacity:0.5;stroke:#008000;stroke-linecap:round;stroke-width:2;"/>
   </g>
   <g id="patch_41">
    <path d="M 242.468956 41.758684 
Q 242.274392 37.11734 242.079828 32.475996 
" style="fill:none;opacity:0.5;stroke:#800080;stroke-linecap:round;stroke-width:2;"/>
    <path d="M 243.904815 40.197176 
L 242.468956 41.758684 
L 240.907448 40.322825 
" style="fill:none;opacity:0.5;stroke:#800080;stroke-linecap:round;stroke-width:2;"/>
    <path d="M 240.643969 34.037504 
L 242.079828 32.475996 
L 243.641336 33.911855 
" style="fill:none;opacity:0.5;stroke:#800080;stroke-linecap:round;stroke-width:2;"/>
   </g>
   <g id="patch_42">
    <path d="M 416.722441 166.193994 
Q 329.477441 231.232685 242.232442 296.271377 
" style="fill:none;opacity:0.5;stroke:#008000;stroke-linecap:round;stroke-width:2;"/>
   </g>
   <g id="patch_43">
    <path d="M 408.375603 165.816883 
Q 415.724082 166.148888 423.072561 166.480894 
" style="fill:none;opacity:0.5;stroke:#800080;stroke-linecap:round;stroke-width:2;"/>
    <path d="M 409.806373 167.383056 
L 408.375603 165.816883 
L 409.941776 164.386113 
" style="fill:none;opacity:0.5;stroke:#800080;stroke-linecap:round;stroke-width:2;"/>
    <path d="M 421.641791 164.914721 
L 423.072561 166.480894 
L 421.506389 167.911664 
" style="fill:none;opacity:0.5;stroke:#800080;stroke-linecap:round;stroke-width:2;"/>
   </g>
   <g id="patch_44">
    <path d="M 242.232442 296.271377 
Q 155.283188 231.232685 68.333934 166.193994 
" style="fill:none;opacity:0.5;stroke:#008000;stroke-linecap:round;stroke-width:2;"/>
   </g>
   <g id="patch_45">
    <path d="M 242.480787 288.86599 
Q 242.266016 295.270218 242.051245 301.674446 
" style="fill:none;opacity:0.5;stroke:#800080;stroke-linecap:round;stroke-width:2;"/>
    <path d="M 240.931355 290.314872 
L 242.480787 288.86599 
L 243.929669 290.415423 
" style="fill:none;opacity:0.5;stroke:#800080;stroke-linecap:round;stroke-width:2;"/>
    <path d="M 243.600678 300.225565 
L 242.051245 301.674446 
L 240.602364 300.125014 
" style="fill:none;opacity:0.5;stroke:#800080;stroke-linecap:round;stroke-width:2;"/>
   </g>
   <g id="patch_46">
    <path d="M 68.333934 166.193994 
Q 155.283188 101.155303 242.232442 36.116612 
" style="fill:none;opacity:0.5;stroke:#008000;stroke-linecap:round;stroke-width:2;"/>
   </g>
   <g id="patch_47">
    <path d="M 76.680772 165.816883 
Q 69.332293 166.148888 61.983814 166.480894 
" style="fill:none;opacity:0.5;stroke:#800080;stroke-linecap:round;stroke-width:2;"/>
    <path d="M 75.114599 164.386113 
L 76.680772 165.816883 
L 75.250002 167.383056 
" style="fill:none;opacity:0.5;stroke:#800080;stroke-linecap:round;stroke-width:2;"/>
    <path d="M 63.549986 167.911664 
L 61.983814 166.480894 
L 63.414584 164.914721 
" style="fill:none;opacity:0.5;stroke:#800080;stroke-linecap:round;stroke-width:2;"/>
   </g>
   <g id="line2d_1">
    <path clip-path="url(#p899e1458e4)" d="M 242.528188 43.171657 
L 406.962831 165.753054 
L 242.528188 287.452571 
L 78.093544 165.753054 
" style="fill:none;stroke:#ff0000;stroke-linecap:square;stroke-width:0.2;"/>
   </g>
   <g id="line2d_2">
    <path clip-path="url(#p899e1458e4)" d="M 241.936696 29.061568 
L 426.482051 166.634935 
L 241.936696 305.090182 
L 58.574324 166.634935 
" style="fill:none;stroke:#0000ff;stroke-linecap:square;stroke-width:0.2;"/>
   </g>
  </g>
 </g>
 <defs>
  <clipPath id="p899e1458e4">
   <rect height="307.51175" width="409.903625" x="37.576375" y="13.32"/>
  </clipPath>
 </defs>
</svg>
