<?xml version="1.0" encoding="utf-8" standalone="no"?>
<!DOCTYPE svg PUBLIC "-//W3C//DTD SVG 1.1//EN"
  "http://www.w3.org/Graphics/SVG/1.1/DTD/svg11.dtd">
<!-- Created with matplotlib (http://matplotlib.org/) -->
<svg height="345.6pt" version="1.1" viewBox="0 0 460.8 345.6" width="460.8pt" xmlns="http://www.w3.org/2000/svg" xmlns:xlink="http://www.w3.org/1999/xlink">
 <defs>
  <style type="text/css">
*{stroke-linecap:butt;stroke-linejoin:round;}
  </style>
 </defs>
 <g id="figure_1">
  <g id="patch_1">
   <path d="M 0 345.6 
L 460.8 345.6 
L 460.8 0 
L 0 0 
z
" style="fill:#ffffff;"/>
  </g>
  <g id="axes_1">
   <g id="patch_2">
    <path clip-path="url(#p7777977be9)" d="M 300.367931 35.652358 
C 300.870858 35.652358 301.353255 35.516929 301.708878 35.275898 
C 302.064501 35.034867 302.264316 34.707912 302.264316 34.367042 
C 302.264316 34.026173 302.064501 33.699218 301.708878 33.458187 
C 301.353255 33.217156 300.870858 33.081727 300.367931 33.081727 
C 299.865004 33.081727 299.382608 33.217156 299.026984 33.458187 
C 298.671361 33.699218 298.471546 34.026173 298.471546 34.367042 
C 298.471546 34.707912 298.671361 35.034867 299.026984 35.275898 
C 299.382608 35.516929 299.865004 35.652358 300.367931 35.652358 
z
" style="fill:#ff0000;opacity:0.2;stroke:#ff0000;stroke-linejoin:miter;"/>
   </g>
   <g id="patch_3">
    <path clip-path="url(#p7777977be9)" d="M 384.757065 46.57754 
C 385.259992 46.57754 385.742389 46.442111 386.098012 46.20108 
C 386.453635 45.960049 386.65345 45.633094 386.65345 45.292225 
C 386.65345 44.951355 386.453635 44.624401 386.098012 44.383369 
C 385.742389 44.142338 385.259992 44.006909 384.757065 44.006909 
C 384.254138 44.006909 383.771742 44.142338 383.416118 44.383369 
C 383.060495 44.624401 382.86068 44.951355 382.86068 45.292225 
C 382.86068 45.633094 383.060495 45.960049 383.416118 46.20108 
C 383.771742 46.442111 384.254138 46.57754 384.757065 46.57754 
z
" style="fill:#ff0000;opacity:0.2;stroke:#ff0000;stroke-linejoin:miter;"/>
   </g>
   <g id="patch_4">
    <path clip-path="url(#p7777977be9)" d="M 398.979953 72.283852 
C 399.48288 72.283852 399.965276 72.148423 400.320899 71.907392 
C 400.676523 71.66636 400.876338 71.339406 400.876338 70.998536 
C 400.876338 70.657667 400.676523 70.330712 400.320899 70.089681 
C 399.965276 69.84865 399.48288 69.713221 398.979953 69.713221 
C 398.477026 69.713221 397.994629 69.84865 397.639006 70.089681 
C 397.283383 70.330712 397.083568 70.657667 397.083568 70.998536 
C 397.083568 71.339406 397.283383 71.66636 397.639006 71.907392 
C 397.994629 72.148423 398.477026 72.283852 398.979953 72.283852 
z
" style="fill:#ff0000;opacity:0.2;stroke:#ff0000;stroke-linejoin:miter;"/>
   </g>
   <g id="patch_5">
    <path clip-path="url(#p7777977be9)" d="M 378.119717 96.06219 
C 378.622645 96.06219 379.105041 95.926761 379.460664 95.68573 
C 379.816287 95.444698 380.016102 95.117744 380.016102 94.776874 
C 380.016102 94.436005 379.816287 94.10905 379.460664 93.868019 
C 379.105041 93.626988 378.622645 93.491559 378.119717 93.491559 
C 377.61679 93.491559 377.134394 93.626988 376.778771 93.868019 
C 376.423147 94.10905 376.223332 94.436005 376.223332 94.776874 
C 376.223332 95.117744 376.423147 95.444698 376.778771 95.68573 
C 377.134394 95.926761 377.61679 96.06219 378.119717 96.06219 
z
" style="fill:#ff0000;opacity:0.2;stroke:#ff0000;stroke-linejoin:miter;"/>
   </g>
   <g id="patch_6">
    <path clip-path="url(#p7777977be9)" d="M 364.845022 91.563585 
C 365.347949 91.563585 365.830346 91.428156 366.185969 91.187125 
C 366.541592 90.946094 366.741407 90.619139 366.741407 90.27827 
C 366.741407 89.9374 366.541592 89.610446 366.185969 89.369414 
C 365.830346 89.128383 365.347949 88.992954 364.845022 88.992954 
C 364.342095 88.992954 363.859699 89.128383 363.504075 89.369414 
C 363.148452 89.610446 362.948637 89.9374 362.948637 90.27827 
C 362.948637 90.619139 363.148452 90.946094 363.504075 91.187125 
C 363.859699 91.428156 364.342095 91.563585 364.845022 91.563585 
z
" style="fill:#ff0000;opacity:0.2;stroke:#ff0000;stroke-linejoin:miter;"/>
   </g>
   <g id="patch_7">
    <path clip-path="url(#p7777977be9)" d="M 270.02577 57.502723 
C 270.528698 57.502723 271.011094 57.367294 271.366717 57.126262 
C 271.72234 56.885231 271.922156 56.558277 271.922156 56.217407 
C 271.922156 55.876537 271.72234 55.549583 271.366717 55.308552 
C 271.011094 55.067521 270.528698 54.932092 270.02577 54.932092 
C 269.522843 54.932092 269.040447 55.067521 268.684824 55.308552 
C 268.329201 55.549583 268.129385 55.876537 268.129385 56.217407 
C 268.129385 56.558277 268.329201 56.885231 268.684824 57.126262 
C 269.040447 57.367294 269.522843 57.502723 270.02577 57.502723 
z
" style="fill:#ff0000;opacity:0.2;stroke:#ff0000;stroke-linejoin:miter;"/>
   </g>
   <g id="patch_8">
    <path clip-path="url(#p7777977be9)" d="M 139.175203 160.970626 
C 139.67813 160.970626 140.160527 160.835197 140.51615 160.594166 
C 140.871773 160.353135 141.071588 160.02618 141.071588 159.68531 
C 141.071588 159.344441 140.871773 159.017486 140.51615 158.776455 
C 140.160527 158.535424 139.67813 158.399995 139.175203 158.399995 
C 138.672276 158.399995 138.18988 158.535424 137.834256 158.776455 
C 137.478633 159.017486 137.278818 159.344441 137.278818 159.68531 
C 137.278818 160.02618 137.478633 160.353135 137.834256 160.594166 
C 138.18988 160.835197 138.672276 160.970626 139.175203 160.970626 
z
" style="fill:#ff0000;opacity:0.2;stroke:#ff0000;stroke-linejoin:miter;"/>
   </g>
   <g id="patch_9">
    <path clip-path="url(#p7777977be9)" d="M 291.834198 270.865107 
C 292.337126 270.865107 292.819522 270.729678 293.175145 270.488647 
C 293.530768 270.247616 293.730583 269.920661 293.730583 269.579792 
C 293.730583 269.238922 293.530768 268.911968 293.175145 268.670936 
C 292.819522 268.429905 292.337126 268.294476 291.834198 268.294476 
C 291.331271 268.294476 290.848875 268.429905 290.493252 268.670936 
C 290.137628 268.911968 289.937813 269.238922 289.937813 269.579792 
C 289.937813 269.920661 290.137628 270.247616 290.493252 270.488647 
C 290.848875 270.729678 291.331271 270.865107 291.834198 270.865107 
z
" style="fill:#ff0000;opacity:0.2;stroke:#ff0000;stroke-linejoin:miter;"/>
   </g>
   <g id="patch_10">
    <path clip-path="url(#p7777977be9)" d="M 397.083568 232.30564 
C 397.586495 232.30564 398.068891 232.170211 398.424514 231.92918 
C 398.780138 231.688149 398.979953 231.361194 398.979953 231.020325 
C 398.979953 230.679455 398.780138 230.3525 398.424514 230.111469 
C 398.068891 229.870438 397.586495 229.735009 397.083568 229.735009 
C 396.580641 229.735009 396.098244 229.870438 395.742621 230.111469 
C 395.386998 230.3525 395.187183 230.679455 395.187183 231.020325 
C 395.187183 231.361194 395.386998 231.688149 395.742621 231.92918 
C 396.098244 232.170211 396.580641 232.30564 397.083568 232.30564 
z
" style="fill:#ff0000;opacity:0.2;stroke:#ff0000;stroke-linejoin:miter;"/>
   </g>
   <g id="patch_11">
    <path clip-path="url(#p7777977be9)" d="M 414.151033 241.302849 
C 414.65396 241.302849 415.136357 241.16742 415.49198 240.926389 
C 415.847603 240.685358 416.047418 240.358403 416.047418 240.017534 
C 416.047418 239.676664 415.847603 239.349709 415.49198 239.108678 
C 415.136357 238.867647 414.65396 238.732218 414.151033 238.732218 
C 413.648106 238.732218 413.16571 238.867647 412.810086 239.108678 
C 412.454463 239.349709 412.254648 239.676664 412.254648 240.017534 
C 412.254648 240.358403 412.454463 240.685358 412.810086 240.926389 
C 413.16571 241.16742 413.648106 241.302849 414.151033 241.302849 
z
" style="fill:#ff0000;opacity:0.2;stroke:#ff0000;stroke-linejoin:miter;"/>
   </g>
   <g id="patch_12">
    <path clip-path="url(#p7777977be9)" d="M 255.802883 306.853943 
C 256.30581 306.853943 256.788206 306.718514 257.143829 306.477483 
C 257.499453 306.236452 257.699268 305.909497 257.699268 305.568628 
C 257.699268 305.227758 257.499453 304.900804 257.143829 304.659772 
C 256.788206 304.418741 256.30581 304.283312 255.802883 304.283312 
C 255.299956 304.283312 254.817559 304.418741 254.461936 304.659772 
C 254.106313 304.900804 253.906498 305.227758 253.906498 305.568628 
C 253.906498 305.909497 254.106313 306.236452 254.461936 306.477483 
C 254.817559 306.718514 255.299956 306.853943 255.802883 306.853943 
z
" style="fill:#ff0000;opacity:0.2;stroke:#ff0000;stroke-linejoin:miter;"/>
   </g>
   <g id="patch_13">
    <path clip-path="url(#p7777977be9)" d="M 125.900508 274.078396 
C 126.403435 274.078396 126.885831 273.942967 127.241455 273.701936 
C 127.597078 273.460905 127.796893 273.13395 127.796893 272.793081 
C 127.796893 272.452211 127.597078 272.125256 127.241455 271.884225 
C 126.885831 271.643194 126.403435 271.507765 125.900508 271.507765 
C 125.397581 271.507765 124.915184 271.643194 124.559561 271.884225 
C 124.203938 272.125256 124.004123 272.452211 124.004123 272.793081 
C 124.004123 273.13395 124.203938 273.460905 124.559561 273.701936 
C 124.915184 273.942967 125.397581 274.078396 125.900508 274.078396 
z
" style="fill:#ff0000;opacity:0.2;stroke:#ff0000;stroke-linejoin:miter;"/>
   </g>
   <g id="patch_14">
    <path clip-path="url(#p7777977be9)" d="M 70.905342 178.965044 
C 71.408269 178.965044 71.890665 178.829615 72.246289 178.588584 
C 72.601912 178.347553 72.801727 178.020598 72.801727 177.679728 
C 72.801727 177.338859 72.601912 177.011904 72.246289 176.770873 
C 71.890665 176.529842 71.408269 176.394413 70.905342 176.394413 
C 70.402415 176.394413 69.920018 176.529842 69.564395 176.770873 
C 69.208772 177.011904 69.008957 177.338859 69.008957 177.679728 
C 69.008957 178.020598 69.208772 178.347553 69.564395 178.588584 
C 69.920018 178.829615 70.402415 178.965044 70.905342 178.965044 
z
" style="fill:#ff0000;opacity:0.2;stroke:#ff0000;stroke-linejoin:miter;"/>
   </g>
   <g id="patch_15">
    <path clip-path="url(#p7777977be9)" d="M 295.152872 29.868438 
C 295.655799 29.868438 296.138196 29.733009 296.493819 29.491978 
C 296.849442 29.250946 297.049257 28.923992 297.049257 28.583122 
C 297.049257 28.242253 296.849442 27.915298 296.493819 27.674267 
C 296.138196 27.433236 295.655799 27.297807 295.152872 27.297807 
C 294.649945 27.297807 294.167549 27.433236 293.811925 27.674267 
C 293.456302 27.915298 293.256487 28.242253 293.256487 28.583122 
C 293.256487 28.923992 293.456302 29.250946 293.811925 29.491978 
C 294.167549 29.733009 294.649945 29.868438 295.152872 29.868438 
z
" style="fill:#0000ff;opacity:0.2;stroke:#0000ff;stroke-linejoin:miter;"/>
   </g>
   <g id="patch_16">
    <path clip-path="url(#p7777977be9)" d="M 394.713086 40.79362 
C 395.216014 40.79362 395.69841 40.658191 396.054033 40.41716 
C 396.409656 40.176129 396.609471 39.849174 396.609471 39.508305 
C 396.609471 39.167435 396.409656 38.840481 396.054033 38.599449 
C 395.69841 38.358418 395.216014 38.222989 394.713086 38.222989 
C 394.210159 38.222989 393.727763 38.358418 393.37214 38.599449 
C 393.016516 38.840481 392.816701 39.167435 392.816701 39.508305 
C 392.816701 39.849174 393.016516 40.176129 393.37214 40.41716 
C 393.727763 40.658191 394.210159 40.79362 394.713086 40.79362 
z
" style="fill:#0000ff;opacity:0.2;stroke:#0000ff;stroke-linejoin:miter;"/>
   </g>
   <g id="patch_17">
    <path clip-path="url(#p7777977be9)" d="M 414.625129 74.211825 
C 415.128056 74.211825 415.610453 74.076396 415.966076 73.835365 
C 416.321699 73.594334 416.521514 73.267379 416.521514 72.92651 
C 416.521514 72.58564 416.321699 72.258685 415.966076 72.017654 
C 415.610453 71.776623 415.128056 71.641194 414.625129 71.641194 
C 414.122202 71.641194 413.639806 71.776623 413.284183 72.017654 
C 412.928559 72.258685 412.728744 72.58564 412.728744 72.92651 
C 412.728744 73.267379 412.928559 73.594334 413.284183 73.835365 
C 413.639806 74.076396 414.122202 74.211825 414.625129 74.211825 
z
" style="fill:#0000ff;opacity:0.2;stroke:#0000ff;stroke-linejoin:miter;"/>
   </g>
   <g id="patch_18">
    <path clip-path="url(#p7777977be9)" d="M 389.972124 110.843319 
C 390.475051 110.843319 390.957447 110.70789 391.313071 110.466859 
C 391.668694 110.225827 391.868509 109.898873 391.868509 109.558003 
C 391.868509 109.217134 391.668694 108.890179 391.313071 108.649148 
C 390.957447 108.408117 390.475051 108.272688 389.972124 108.272688 
C 389.469197 108.272688 388.9868 108.408117 388.631177 108.649148 
C 388.275554 108.890179 388.075739 109.217134 388.075739 109.558003 
C 388.075739 109.898873 388.275554 110.225827 388.631177 110.466859 
C 388.9868 110.70789 389.469197 110.843319 389.972124 110.843319 
z
" style="fill:#0000ff;opacity:0.2;stroke:#0000ff;stroke-linejoin:miter;"/>
   </g>
   <g id="patch_19">
    <path clip-path="url(#p7777977be9)" d="M 374.801044 107.63003 
C 375.303971 107.63003 375.786367 107.494601 376.14199 107.25357 
C 376.497614 107.012538 376.697429 106.685584 376.697429 106.344714 
C 376.697429 106.003845 376.497614 105.67689 376.14199 105.435859 
C 375.786367 105.194828 375.303971 105.059399 374.801044 105.059399 
C 374.298116 105.059399 373.81572 105.194828 373.460097 105.435859 
C 373.104474 105.67689 372.904659 106.003845 372.904659 106.344714 
C 372.904659 106.685584 373.104474 107.012538 373.460097 107.25357 
C 373.81572 107.494601 374.298116 107.63003 374.801044 107.63003 
z
" style="fill:#0000ff;opacity:0.2;stroke:#0000ff;stroke-linejoin:miter;"/>
   </g>
   <g id="patch_20">
    <path clip-path="url(#p7777977be9)" d="M 277.137214 59.430696 
C 277.640142 59.430696 278.122538 59.295267 278.478161 59.054236 
C 278.833784 58.813205 279.033599 58.48625 279.033599 58.14538 
C 279.033599 57.804511 278.833784 57.477556 278.478161 57.236525 
C 278.122538 56.995494 277.640142 56.860065 277.137214 56.860065 
C 276.634287 56.860065 276.151891 56.995494 275.796268 57.236525 
C 275.440644 57.477556 275.240829 57.804511 275.240829 58.14538 
C 275.240829 58.48625 275.440644 58.813205 275.796268 59.054236 
C 276.151891 59.295267 276.634287 59.430696 277.137214 59.430696 
z
" style="fill:#0000ff;opacity:0.2;stroke:#0000ff;stroke-linejoin:miter;"/>
   </g>
   <g id="patch_21">
    <path clip-path="url(#p7777977be9)" d="M 182.317963 151.330759 
C 182.82089 151.330759 183.303286 151.19533 183.658909 150.954299 
C 184.014533 150.713268 184.214348 150.386313 184.214348 150.045444 
C 184.214348 149.704574 184.014533 149.37762 183.658909 149.136588 
C 183.303286 148.895557 182.82089 148.760128 182.317963 148.760128 
C 181.815035 148.760128 181.332639 148.895557 180.977016 149.136588 
C 180.621393 149.37762 180.421578 149.704574 180.421578 150.045444 
C 180.421578 150.386313 180.621393 150.713268 180.977016 150.954299 
C 181.332639 151.19533 181.815035 151.330759 182.317963 151.330759 
z
" style="fill:#0000ff;opacity:0.2;stroke:#0000ff;stroke-linejoin:miter;"/>
   </g>
   <g id="patch_22">
    <path clip-path="url(#p7777977be9)" d="M 317.909493 253.513347 
C 318.41242 253.513347 318.894816 253.377918 319.250439 253.136887 
C 319.606063 252.895856 319.805878 252.568901 319.805878 252.228031 
C 319.805878 251.887162 319.606063 251.560207 319.250439 251.319176 
C 318.894816 251.078145 318.41242 250.942716 317.909493 250.942716 
C 317.406565 250.942716 316.924169 251.078145 316.568546 251.319176 
C 316.212923 251.560207 316.013108 251.887162 316.013108 252.228031 
C 316.013108 252.568901 316.212923 252.895856 316.568546 253.136887 
C 316.924169 253.377918 317.406565 253.513347 317.909493 253.513347 
z
" style="fill:#0000ff;opacity:0.2;stroke:#0000ff;stroke-linejoin:miter;"/>
   </g>
   <g id="patch_23">
    <path clip-path="url(#p7777977be9)" d="M 402.298627 222.023116 
C 402.801554 222.023116 403.28395 221.887687 403.639573 221.646655 
C 403.995197 221.405624 404.195012 221.07867 404.195012 220.7378 
C 404.195012 220.39693 403.995197 220.069976 403.639573 219.828945 
C 403.28395 219.587913 402.801554 219.452484 402.298627 219.452484 
C 401.795699 219.452484 401.313303 219.587913 400.95768 219.828945 
C 400.602057 220.069976 400.402242 220.39693 400.402242 220.7378 
C 400.402242 221.07867 400.602057 221.405624 400.95768 221.646655 
C 401.313303 221.887687 401.795699 222.023116 402.298627 222.023116 
z
" style="fill:#0000ff;opacity:0.2;stroke:#0000ff;stroke-linejoin:miter;"/>
   </g>
   <g id="patch_24">
    <path clip-path="url(#p7777977be9)" d="M 426.951632 236.161587 
C 427.454559 236.161587 427.936956 236.026158 428.292579 235.785127 
C 428.648202 235.544095 428.848017 235.217141 428.848017 234.876271 
C 428.848017 234.535402 428.648202 234.208447 428.292579 233.967416 
C 427.936956 233.726385 427.454559 233.590956 426.951632 233.590956 
C 426.448705 233.590956 425.966309 233.726385 425.610685 233.967416 
C 425.255062 234.208447 425.055247 234.535402 425.055247 234.876271 
C 425.055247 235.217141 425.255062 235.544095 425.610685 235.785127 
C 425.966309 236.026158 426.448705 236.161587 426.951632 236.161587 
z
" style="fill:#0000ff;opacity:0.2;stroke:#0000ff;stroke-linejoin:miter;"/>
   </g>
   <g id="patch_25">
    <path clip-path="url(#p7777977be9)" d="M 259.121557 304.92597 
C 259.624484 304.92597 260.10688 304.790541 260.462503 304.54951 
C 260.818126 304.308478 261.017942 303.981524 261.017942 303.640654 
C 261.017942 303.299785 260.818126 302.97283 260.462503 302.731799 
C 260.10688 302.490768 259.624484 302.355339 259.121557 302.355339 
C 258.618629 302.355339 258.136233 302.490768 257.78061 302.731799 
C 257.424987 302.97283 257.225172 303.299785 257.225172 303.640654 
C 257.225172 303.981524 257.424987 304.308478 257.78061 304.54951 
C 258.136233 304.790541 258.618629 304.92597 259.121557 304.92597 
z
" style="fill:#0000ff;opacity:0.2;stroke:#0000ff;stroke-linejoin:miter;"/>
   </g>
   <g id="patch_26">
    <path clip-path="url(#p7777977be9)" d="M 58.104743 175.109097 
C 58.60767 175.109097 59.090066 174.973668 59.44569 174.732637 
C 59.801313 174.491606 60.001128 174.164651 60.001128 173.823782 
C 60.001128 173.482912 59.801313 173.155958 59.44569 172.914926 
C 59.090066 172.673895 58.60767 172.538466 58.104743 172.538466 
C 57.601816 172.538466 57.119419 172.673895 56.763796 172.914926 
C 56.408173 173.155958 56.208358 173.482912 56.208358 173.823782 
C 56.208358 174.164651 56.408173 174.491606 56.763796 174.732637 
C 57.119419 174.973668 57.601816 175.109097 58.104743 175.109097 
z
" style="fill:#0000ff;opacity:0.2;stroke:#0000ff;stroke-linejoin:miter;"/>
   </g>
   <g id="patch_27">
    <path clip-path="url(#p7777977be9)" d="M 300.367931 34.367042 
C 322.176359 34.367042 359.155867 37.580331 384.757065 45.292225 
C 392.342605 49.790829 398.979953 60.073354 398.979953 70.998536 
C 398.979953 82.566376 389.498028 94.776874 378.119717 94.776874 
C 373.378755 94.776874 368.637792 93.491559 364.845022 90.27827 
C 343.984787 72.92651 308.901664 56.217407 270.02577 56.217407 
C 203.652294 56.217407 139.175203 91.563585 139.175203 159.68531 
C 139.175203 209.812618 190.377599 269.579792 291.834198 269.579792 
C 346.829364 269.579792 375.27514 252.870689 397.083568 231.020325 
C 404.669108 229.735009 413.202841 234.233614 414.151033 240.017534 
C 381.912487 287.57421 310.798049 305.568628 255.802883 305.568628 
C 205.548679 305.568628 159.087246 294.643445 125.900508 272.793081 
C 92.71377 250.942716 70.905342 219.452484 70.905342 177.679728 
C 70.905342 108.272688 142.967973 34.367042 300.367931 34.367042 
" style="fill:none;stroke:#ff0000;stroke-linejoin:miter;stroke-width:0.5;"/>
   </g>
   <g id="patch_28">
    <path clip-path="url(#p7777977be9)" d="M 295.152872 28.583122 
C 327.391418 28.583122 369.111888 33.081727 394.713086 39.508305 
C 407.039589 46.57754 414.625129 55.574749 414.625129 72.92651 
C 414.625129 92.206243 401.350434 109.558003 389.972124 109.558003 
C 385.231161 109.558003 376.697429 108.272688 374.801044 106.344714 
C 348.251653 80.638403 311.272145 58.14538 277.137214 58.14538 
C 215.504701 58.14538 182.317963 105.702057 182.317963 150.045444 
C 182.317963 200.815409 230.675781 252.228031 317.909493 252.228031 
C 352.992616 252.228031 381.438391 244.516138 402.298627 220.7378 
C 413.676937 220.095142 426.951632 224.593747 426.951632 234.876271 
C 406.091397 267.009161 349.199846 303.640654 259.121557 303.640654 
C 139.649299 303.640654 58.104743 249.6574 58.104743 173.823782 
C 58.104743 82.566376 167.146882 28.583122 295.152872 28.583122 
" style="fill:none;stroke:#0000ff;stroke-linejoin:miter;stroke-width:0.5;"/>
   </g>
   <g id="patch_29">
    <path clip-path="url(#p7777977be9)" d="M 300.367931 38.222989 
C 301.876713 38.222989 303.323901 37.816702 304.390771 37.093609 
C 305.457641 36.370515 306.057086 35.389651 306.057086 34.367042 
C 306.057086 33.344433 305.457641 32.36357 304.390771 31.640476 
C 303.323901 30.917383 301.876713 30.511096 300.367931 30.511096 
C 298.859149 30.511096 297.411961 30.917383 296.345091 31.640476 
C 295.278221 32.36357 294.678776 33.344433 294.678776 34.367042 
C 294.678776 35.389651 295.278221 36.370515 296.345091 37.093609 
C 297.411961 37.816702 298.859149 38.222989 300.367931 38.222989 
z
" style="fill:#0000ff;opacity:0.2;stroke:#0000ff;stroke-linejoin:miter;"/>
   </g>
   <g id="patch_30">
    <path clip-path="url(#p7777977be9)" d="M 295.152872 32.439069 
C 296.661654 32.439069 298.108843 32.032782 299.175712 31.309688 
C 300.242582 30.586595 300.842027 29.605731 300.842027 28.583122 
C 300.842027 27.560513 300.242582 26.57965 299.175712 25.856556 
C 298.108843 25.133463 296.661654 24.727176 295.152872 24.727176 
C 293.644091 24.727176 292.196902 25.133463 291.130032 25.856556 
C 290.063162 26.57965 289.463717 27.560513 289.463717 28.583122 
C 289.463717 29.605731 290.063162 30.586595 291.130032 31.309688 
C 292.196902 32.032782 293.644091 32.439069 295.152872 32.439069 
z
" style="fill:#ff0000;opacity:0.2;stroke:#ff0000;stroke-linejoin:miter;"/>
   </g>
   <g id="patch_31">
    <path d="M 300.367931 34.367042 
Q 298.428836 32.21643 297.910262 31.64129 
" style="fill:none;opacity:0.5;stroke:#0000ff;stroke-linecap:round;stroke-width:3;"/>
    <path d="M 297.800695 33.759779 
L 297.910262 31.64129 
L 300.028751 31.750857 
" style="fill:none;opacity:0.5;stroke:#0000ff;stroke-linecap:round;stroke-width:3;"/>
   </g>
   <g id="patch_32">
    <path clip-path="url(#p7777977be9)" d="M 384.757065 47.541527 
C 385.637188 47.541527 386.481381 47.304526 387.103722 46.882722 
C 387.726062 46.460917 388.075739 45.888747 388.075739 45.292225 
C 388.075739 44.695703 387.726062 44.123533 387.103722 43.701728 
C 386.481381 43.279923 385.637188 43.042923 384.757065 43.042923 
C 383.876942 43.042923 383.032749 43.279923 382.410408 43.701728 
C 381.788068 44.123533 381.438391 44.695703 381.438391 45.292225 
C 381.438391 45.888747 381.788068 46.460917 382.410408 46.882722 
C 383.032749 47.304526 383.876942 47.541527 384.757065 47.541527 
z
" style="fill:#0000ff;opacity:0.2;stroke:#0000ff;stroke-linejoin:miter;"/>
   </g>
   <g id="patch_33">
    <path clip-path="url(#p7777977be9)" d="M 394.713086 41.757607 
C 395.593209 41.757607 396.437403 41.520606 397.059743 41.098802 
C 397.682084 40.676997 398.03176 40.104827 398.03176 39.508305 
C 398.03176 38.911783 397.682084 38.339613 397.059743 37.917808 
C 396.437403 37.496003 395.593209 37.259002 394.713086 37.259002 
C 393.832964 37.259002 392.98877 37.496003 392.36643 37.917808 
C 391.744089 38.339613 391.394413 38.911783 391.394413 39.508305 
C 391.394413 40.104827 391.744089 40.676997 392.36643 41.098802 
C 392.98877 41.520606 393.832964 41.757607 394.713086 41.757607 
z
" style="fill:#ff0000;opacity:0.2;stroke:#ff0000;stroke-linejoin:miter;"/>
   </g>
   <g id="patch_34">
    <path d="M 384.757065 45.292225 
Q 388.870973 42.902263 391.914899 41.133903 
" style="fill:none;opacity:0.5;stroke:#0000ff;stroke-linecap:round;stroke-width:1.75;"/>
    <path d="M 389.86439 40.590386 
L 391.914899 41.133903 
L 391.371382 43.184412 
" style="fill:none;opacity:0.5;stroke:#0000ff;stroke-linecap:round;stroke-width:1.75;"/>
   </g>
   <g id="patch_35">
    <path clip-path="url(#p7777977be9)" d="M 398.979953 72.92651 
C 399.734344 72.92651 400.457938 72.723366 400.991373 72.361819 
C 401.524808 72.000272 401.82453 71.509841 401.82453 70.998536 
C 401.82453 70.487232 401.524808 69.9968 400.991373 69.635253 
C 400.457938 69.273706 399.734344 69.070563 398.979953 69.070563 
C 398.225562 69.070563 397.501968 69.273706 396.968533 69.635253 
C 396.435098 69.9968 396.135375 70.487232 396.135375 70.998536 
C 396.135375 71.509841 396.435098 72.000272 396.968533 72.361819 
C 397.501968 72.723366 398.225562 72.92651 398.979953 72.92651 
z
" style="fill:#0000ff;opacity:0.2;stroke:#0000ff;stroke-linejoin:miter;"/>
   </g>
   <g id="patch_36">
    <path clip-path="url(#p7777977be9)" d="M 414.625129 74.854483 
C 415.37952 74.854483 416.103115 74.651339 416.636549 74.289793 
C 417.169984 73.928246 417.469707 73.437814 417.469707 72.92651 
C 417.469707 72.415205 417.169984 71.924773 416.636549 71.563227 
C 416.103115 71.20168 415.37952 70.998536 414.625129 70.998536 
C 413.870739 70.998536 413.147144 71.20168 412.613709 71.563227 
C 412.080274 71.924773 411.780552 72.415205 411.780552 72.92651 
C 411.780552 73.437814 412.080274 73.928246 412.613709 74.289793 
C 413.147144 74.651339 413.870739 74.854483 414.625129 74.854483 
z
" style="fill:#ff0000;opacity:0.2;stroke:#ff0000;stroke-linejoin:miter;"/>
   </g>
   <g id="patch_37">
    <path d="M 398.979953 70.998536 
Q 405.811349 71.840377 411.590048 72.552493 
" style="fill:none;opacity:0.5;stroke:#0000ff;stroke-linecap:round;stroke-width:1.5;"/>
    <path d="M 410.284768 70.880295 
L 411.590048 72.552493 
L 409.91785 73.857773 
" style="fill:none;opacity:0.5;stroke:#0000ff;stroke-linecap:round;stroke-width:1.5;"/>
   </g>
   <g id="patch_38">
    <path clip-path="url(#p7777977be9)" d="M 378.119717 98.632821 
C 379.628499 98.632821 381.075688 98.226534 382.142558 97.50344 
C 383.209427 96.780347 383.808872 95.799483 383.808872 94.776874 
C 383.808872 93.754265 383.209427 92.773402 382.142558 92.050308 
C 381.075688 91.327214 379.628499 90.920928 378.119717 90.920928 
C 376.610936 90.920928 375.163747 91.327214 374.096877 92.050308 
C 373.030008 92.773402 372.430562 93.754265 372.430562 94.776874 
C 372.430562 95.799483 373.030008 96.780347 374.096877 97.50344 
C 375.163747 98.226534 376.610936 98.632821 378.119717 98.632821 
z
" style="fill:#0000ff;opacity:0.2;stroke:#0000ff;stroke-linejoin:miter;"/>
   </g>
   <g id="patch_39">
    <path clip-path="url(#p7777977be9)" d="M 389.972124 113.41395 
C 391.480905 113.41395 392.928094 113.007663 393.994964 112.284569 
C 395.061834 111.561476 395.661279 110.580612 395.661279 109.558003 
C 395.661279 108.535394 395.061834 107.554531 393.994964 106.831437 
C 392.928094 106.108343 391.480905 105.702057 389.972124 105.702057 
C 388.463342 105.702057 387.016153 106.108343 385.949284 106.831437 
C 384.882414 107.554531 384.282969 108.535394 384.282969 109.558003 
C 384.282969 110.580612 384.882414 111.561476 385.949284 112.284569 
C 387.016153 113.007663 388.463342 113.41395 389.972124 113.41395 
z
" style="fill:#ff0000;opacity:0.2;stroke:#ff0000;stroke-linejoin:miter;"/>
   </g>
   <g id="patch_40">
    <path d="M 378.119717 94.776874 
Q 383.419445 101.386161 387.392117 106.340478 
" style="fill:none;opacity:0.5;stroke:#0000ff;stroke-linecap:round;stroke-width:3;"/>
    <path d="M 387.623987 104.231868 
L 387.392117 106.340478 
L 385.283507 106.108607 
" style="fill:none;opacity:0.5;stroke:#0000ff;stroke-linecap:round;stroke-width:3;"/>
   </g>
   <g id="patch_41">
    <path clip-path="url(#p7777977be9)" d="M 364.845022 92.206243 
C 365.599413 92.206243 366.323007 92.0031 366.856442 91.641553 
C 367.389877 91.280006 367.6896 90.789574 367.6896 90.27827 
C 367.6896 89.766965 367.389877 89.276534 366.856442 88.914987 
C 366.323007 88.55344 365.599413 88.350296 364.845022 88.350296 
C 364.090631 88.350296 363.367037 88.55344 362.833602 88.914987 
C 362.300167 89.276534 362.000445 89.766965 362.000445 90.27827 
C 362.000445 90.789574 362.300167 91.280006 362.833602 91.641553 
C 363.367037 92.0031 364.090631 92.206243 364.845022 92.206243 
z
" style="fill:#0000ff;opacity:0.2;stroke:#0000ff;stroke-linejoin:miter;"/>
   </g>
   <g id="patch_42">
    <path clip-path="url(#p7777977be9)" d="M 374.801044 108.272688 
C 375.555434 108.272688 376.279029 108.069544 376.812464 107.707997 
C 377.345899 107.34645 377.645621 106.856019 377.645621 106.344714 
C 377.645621 105.83341 377.345899 105.342978 376.812464 104.981431 
C 376.279029 104.619884 375.555434 104.416741 374.801044 104.416741 
C 374.046653 104.416741 373.323058 104.619884 372.789624 104.981431 
C 372.256189 105.342978 371.956466 105.83341 371.956466 106.344714 
C 371.956466 106.856019 372.256189 107.34645 372.789624 107.707997 
C 373.323058 108.069544 374.046653 108.272688 374.801044 108.272688 
z
" style="fill:#ff0000;opacity:0.2;stroke:#ff0000;stroke-linejoin:miter;"/>
   </g>
   <g id="patch_43">
    <path d="M 364.845022 90.27827 
Q 369.296793 97.462277 373.18987 103.744696 
" style="fill:none;opacity:0.5;stroke:#0000ff;stroke-linecap:round;stroke-width:1.5;"/>
    <path d="M 373.674795 101.679545 
L 373.18987 103.744696 
L 371.124719 103.259771 
" style="fill:none;opacity:0.5;stroke:#0000ff;stroke-linecap:round;stroke-width:1.5;"/>
   </g>
   <g id="patch_44">
    <path clip-path="url(#p7777977be9)" d="M 270.02577 60.073354 
C 271.534552 60.073354 272.981741 59.667067 274.048611 58.943973 
C 275.11548 58.220879 275.714926 57.240016 275.714926 56.217407 
C 275.714926 55.194798 275.11548 54.213935 274.048611 53.490841 
C 272.981741 52.767747 271.534552 52.36146 270.02577 52.36146 
C 268.516989 52.36146 267.0698 52.767747 266.00293 53.490841 
C 264.936061 54.213935 264.336615 55.194798 264.336615 56.217407 
C 264.336615 57.240016 264.936061 58.220879 266.00293 58.943973 
C 267.0698 59.667067 268.516989 60.073354 270.02577 60.073354 
z
" style="fill:#0000ff;opacity:0.2;stroke:#0000ff;stroke-linejoin:miter;"/>
   </g>
   <g id="patch_45">
    <path clip-path="url(#p7777977be9)" d="M 277.137214 62.001327 
C 278.645996 62.001327 280.093185 61.59504 281.160055 60.871947 
C 282.226924 60.148853 282.826369 59.16799 282.826369 58.14538 
C 282.826369 57.122771 282.226924 56.141908 281.160055 55.418814 
C 280.093185 54.695721 278.645996 54.289434 277.137214 54.289434 
C 275.628433 54.289434 274.181244 54.695721 273.114374 55.418814 
C 272.047505 56.141908 271.448059 57.122771 271.448059 58.14538 
C 271.448059 59.16799 272.047505 60.148853 273.114374 60.871947 
C 274.181244 61.59504 275.628433 62.001327 277.137214 62.001327 
z
" style="fill:#ff0000;opacity:0.2;stroke:#ff0000;stroke-linejoin:miter;"/>
   </g>
   <g id="patch_46">
    <path d="M 270.02577 56.217407 
Q 272.617906 56.920157 273.162629 57.067836 
" style="fill:none;opacity:0.5;stroke:#0000ff;stroke-linecap:round;stroke-width:3;"/>
    <path d="M 272.107384 55.227603 
L 273.162629 57.067836 
L 271.322395 58.123081 
" style="fill:none;opacity:0.5;stroke:#0000ff;stroke-linecap:round;stroke-width:3;"/>
   </g>
   <g id="patch_47">
    <path clip-path="url(#p7777977be9)" d="M 139.175203 163.541257 
C 140.683985 163.541257 142.131174 163.13497 143.198043 162.411877 
C 144.264913 161.688783 144.864358 160.707919 144.864358 159.68531 
C 144.864358 158.662701 144.264913 157.681838 143.198043 156.958744 
C 142.131174 156.235651 140.683985 155.829364 139.175203 155.829364 
C 137.666422 155.829364 136.219233 156.235651 135.152363 156.958744 
C 134.085493 157.681838 133.486048 158.662701 133.486048 159.68531 
C 133.486048 160.707919 134.085493 161.688783 135.152363 162.411877 
C 136.219233 163.13497 137.666422 163.541257 139.175203 163.541257 
z
" style="fill:#0000ff;opacity:0.2;stroke:#0000ff;stroke-linejoin:miter;"/>
   </g>
   <g id="patch_48">
    <path clip-path="url(#p7777977be9)" d="M 182.317963 153.90139 
C 183.826744 153.90139 185.273933 153.495104 186.340803 152.77201 
C 187.407673 152.048916 188.007118 151.068053 188.007118 150.045444 
C 188.007118 149.022835 187.407673 148.041971 186.340803 147.318878 
C 185.273933 146.595784 183.826744 146.189497 182.317963 146.189497 
C 180.809181 146.189497 179.361992 146.595784 178.295123 147.318878 
C 177.228253 148.041971 176.628808 149.022835 176.628808 150.045444 
C 176.628808 151.068053 177.228253 152.048916 178.295123 152.77201 
C 179.361992 153.495104 180.809181 153.90139 182.317963 153.90139 
z
" style="fill:#ff0000;opacity:0.2;stroke:#ff0000;stroke-linejoin:miter;"/>
   </g>
   <g id="patch_49">
    <path d="M 139.175203 159.68531 
Q 159.770973 155.083368 178.296473 150.94401 
" style="fill:none;opacity:0.5;stroke:#0000ff;stroke-linecap:round;stroke-width:3;"/>
    <path d="M 176.505476 149.807204 
L 178.296473 150.94401 
L 177.159667 152.735007 
" style="fill:none;opacity:0.5;stroke:#0000ff;stroke-linecap:round;stroke-width:3;"/>
   </g>
   <g id="patch_50">
    <path clip-path="url(#p7777977be9)" d="M 291.834198 273.435738 
C 293.34298 273.435738 294.790169 273.029452 295.857039 272.306358 
C 296.923908 271.583264 297.523353 270.602401 297.523353 269.579792 
C 297.523353 268.557183 296.923908 267.576319 295.857039 266.853226 
C 294.790169 266.130132 293.34298 265.723845 291.834198 265.723845 
C 290.325417 265.723845 288.878228 266.130132 287.811358 266.853226 
C 286.744489 267.576319 286.145043 268.557183 286.145043 269.579792 
C 286.145043 270.602401 286.744489 271.583264 287.811358 272.306358 
C 288.878228 273.029452 290.325417 273.435738 291.834198 273.435738 
z
" style="fill:#0000ff;opacity:0.2;stroke:#0000ff;stroke-linejoin:miter;"/>
   </g>
   <g id="patch_51">
    <path clip-path="url(#p7777977be9)" d="M 317.909493 256.083978 
C 319.418274 256.083978 320.865463 255.677691 321.932333 254.954598 
C 322.999202 254.231504 323.598648 253.25064 323.598648 252.228031 
C 323.598648 251.205422 322.999202 250.224559 321.932333 249.501465 
C 320.865463 248.778372 319.418274 248.372085 317.909493 248.372085 
C 316.400711 248.372085 314.953522 248.778372 313.886652 249.501465 
C 312.819783 250.224559 312.220337 251.205422 312.220337 252.228031 
C 312.220337 253.25064 312.819783 254.231504 313.886652 254.954598 
C 314.953522 255.677691 316.400711 256.083978 317.909493 256.083978 
z
" style="fill:#ff0000;opacity:0.2;stroke:#ff0000;stroke-linejoin:miter;"/>
   </g>
   <g id="patch_52">
    <path d="M 291.834198 269.579792 
Q 304.039486 261.457804 314.478736 254.511023 
" style="fill:none;opacity:0.5;stroke:#0000ff;stroke-linecap:round;stroke-width:3;"/>
    <path d="M 312.398962 254.093242 
L 314.478736 254.511023 
L 314.060955 256.590797 
" style="fill:none;opacity:0.5;stroke:#0000ff;stroke-linecap:round;stroke-width:3;"/>
   </g>
   <g id="patch_53">
    <path clip-path="url(#p7777977be9)" d="M 397.083568 233.269627 
C 397.96369 233.269627 398.807884 233.032626 399.430224 232.610821 
C 400.052565 232.189017 400.402242 231.616847 400.402242 231.020325 
C 400.402242 230.423803 400.052565 229.851632 399.430224 229.429828 
C 398.807884 229.008023 397.96369 228.771022 397.083568 228.771022 
C 396.203445 228.771022 395.359252 229.008023 394.736911 229.429828 
C 394.11457 229.851632 393.764894 230.423803 393.764894 231.020325 
C 393.764894 231.616847 394.11457 232.189017 394.736911 232.610821 
C 395.359252 233.032626 396.203445 233.269627 397.083568 233.269627 
z
" style="fill:#0000ff;opacity:0.2;stroke:#0000ff;stroke-linejoin:miter;"/>
   </g>
   <g id="patch_54">
    <path clip-path="url(#p7777977be9)" d="M 402.298627 222.987102 
C 403.178749 222.987102 404.022943 222.750102 404.645283 222.328297 
C 405.267624 221.906492 405.6173 221.334322 405.6173 220.7378 
C 405.6173 220.141278 405.267624 219.569108 404.645283 219.147303 
C 404.022943 218.725498 403.178749 218.488498 402.298627 218.488498 
C 401.418504 218.488498 400.57431 218.725498 399.95197 219.147303 
C 399.329629 219.569108 398.979953 220.141278 398.979953 220.7378 
C 398.979953 221.334322 399.329629 221.906492 399.95197 222.328297 
C 400.57431 222.750102 401.418504 222.987102 402.298627 222.987102 
z
" style="fill:#ff0000;opacity:0.2;stroke:#ff0000;stroke-linejoin:miter;"/>
   </g>
   <g id="patch_55">
    <path d="M 397.083568 231.020325 
Q 399.238472 226.771503 400.83365 223.626292 
" style="fill:none;opacity:0.5;stroke:#0000ff;stroke-linecap:round;stroke-width:1.75;"/>
    <path d="M 398.817381 224.285581 
L 400.83365 223.626292 
L 401.492938 225.642561 
" style="fill:none;opacity:0.5;stroke:#0000ff;stroke-linecap:round;stroke-width:1.75;"/>
   </g>
   <g id="patch_56">
    <path clip-path="url(#p7777977be9)" d="M 414.151033 243.87348 
C 415.659815 243.87348 417.107004 243.467193 418.173873 242.7441 
C 419.240743 242.021006 419.840188 241.040143 419.840188 240.017534 
C 419.840188 238.994925 419.240743 238.014061 418.173873 237.290968 
C 417.107004 236.567874 415.659815 236.161587 414.151033 236.161587 
C 412.642251 236.161587 411.195063 236.567874 410.128193 237.290968 
C 409.061323 238.014061 408.461878 238.994925 408.461878 240.017534 
C 408.461878 241.040143 409.061323 242.021006 410.128193 242.7441 
C 411.195063 243.467193 412.642251 243.87348 414.151033 243.87348 
z
" style="fill:#0000ff;opacity:0.2;stroke:#0000ff;stroke-linejoin:miter;"/>
   </g>
   <g id="patch_57">
    <path clip-path="url(#p7777977be9)" d="M 426.951632 238.732218 
C 428.460414 238.732218 429.907602 238.325931 430.974472 237.602837 
C 432.041342 236.879744 432.640787 235.89888 432.640787 234.876271 
C 432.640787 233.853662 432.041342 232.872799 430.974472 232.149705 
C 429.907602 231.426611 428.460414 231.020325 426.951632 231.020325 
C 425.44285 231.020325 423.995662 231.426611 422.928792 232.149705 
C 421.861922 232.872799 421.262477 233.853662 421.262477 234.876271 
C 421.262477 235.89888 421.861922 236.879744 422.928792 237.602837 
C 423.995662 238.325931 425.44285 238.732218 426.951632 238.732218 
z
" style="fill:#ff0000;opacity:0.2;stroke:#ff0000;stroke-linejoin:miter;"/>
   </g>
   <g id="patch_58">
    <path d="M 414.151033 240.017534 
Q 419.624727 237.819067 423.129941 236.411224 
" style="fill:none;opacity:0.5;stroke:#0000ff;stroke-linecap:round;stroke-width:3;"/>
    <path d="M 421.178959 235.578355 
L 423.129941 236.411224 
L 422.297071 238.362206 
" style="fill:none;opacity:0.5;stroke:#0000ff;stroke-linecap:round;stroke-width:3;"/>
   </g>
   <g id="patch_59">
    <path clip-path="url(#p7777977be9)" d="M 255.802883 309.745903 
C 257.437396 309.745903 259.005184 309.305759 260.16096 308.522408 
C 261.316735 307.739056 261.966134 306.676454 261.966134 305.568628 
C 261.966134 304.460801 261.316735 303.398199 260.16096 302.614848 
C 259.005184 301.831496 257.437396 301.391352 255.802883 301.391352 
C 254.168369 301.391352 252.600581 301.831496 251.444806 302.614848 
C 250.28903 303.398199 249.639631 304.460801 249.639631 305.568628 
C 249.639631 306.676454 250.28903 307.739056 251.444806 308.522408 
C 252.600581 309.305759 254.168369 309.745903 255.802883 309.745903 
z
" style="fill:#0000ff;opacity:0.2;stroke:#0000ff;stroke-linejoin:miter;"/>
   </g>
   <g id="patch_60">
    <path clip-path="url(#p7777977be9)" d="M 259.121557 307.81793 
C 260.75607 307.81793 262.323858 307.377786 263.479633 306.594434 
C 264.635409 305.811083 265.284808 304.748481 265.284808 303.640654 
C 265.284808 302.532828 264.635409 301.470226 263.479633 300.686874 
C 262.323858 299.903523 260.75607 299.463379 259.121557 299.463379 
C 257.487043 299.463379 255.919255 299.903523 254.76348 300.686874 
C 253.607704 301.470226 252.958305 302.532828 252.958305 303.640654 
C 252.958305 304.748481 253.607704 305.811083 254.76348 306.594434 
C 255.919255 307.377786 257.487043 307.81793 259.121557 307.81793 
z
" style="fill:#ff0000;opacity:0.2;stroke:#ff0000;stroke-linejoin:miter;"/>
   </g>
   <g id="patch_61">
    <path d="M 255.802883 305.568628 
Q 256.598522 305.106404 255.407052 305.798584 
" style="fill:none;opacity:0.5;stroke:#0000ff;stroke-linecap:round;stroke-width:3.25;"/>
    <path d="M 253.356543 305.255067 
L 255.407052 305.798584 
L 254.863535 307.849093 
" style="fill:none;opacity:0.5;stroke:#0000ff;stroke-linecap:round;stroke-width:3.25;"/>
   </g>
   <g id="patch_62">
    <path clip-path="url(#p7777977be9)" d="M 125.900508 276.649027 
C 127.40929 276.649027 128.856478 276.24274 129.923348 275.519647 
C 130.990218 274.796553 131.589663 273.81569 131.589663 272.793081 
C 131.589663 271.770472 130.990218 270.789608 129.923348 270.066515 
C 128.856478 269.343421 127.40929 268.937134 125.900508 268.937134 
C 124.391726 268.937134 122.944537 269.343421 121.877668 270.066515 
C 120.810798 270.789608 120.211353 271.770472 120.211353 272.793081 
C 120.211353 273.81569 120.810798 274.796553 121.877668 275.519647 
C 122.944537 276.24274 124.391726 276.649027 125.900508 276.649027 
z
" style="fill:#0000ff;opacity:0.2;stroke:#0000ff;stroke-linejoin:miter;"/>
   </g>
   <g id="patch_63">
    <path clip-path="url(#p7777977be9)" d="M 259.121557 307.496601 
C 260.630338 307.496601 262.077527 307.090314 263.144397 306.36722 
C 264.211266 305.644127 264.810712 304.663263 264.810712 303.640654 
C 264.810712 302.618045 264.211266 301.637182 263.144397 300.914088 
C 262.077527 300.190994 260.630338 299.784708 259.121557 299.784708 
C 257.612775 299.784708 256.165586 300.190994 255.098716 300.914088 
C 254.031847 301.637182 253.432401 302.618045 253.432401 303.640654 
C 253.432401 304.663263 254.031847 305.644127 255.098716 306.36722 
C 256.165586 307.090314 257.612775 307.496601 259.121557 307.496601 
z
" style="fill:#ff0000;opacity:0.2;stroke:#ff0000;stroke-linejoin:miter;"/>
   </g>
   <g id="patch_64">
    <path d="M 125.900508 272.793081 
Q 191.537325 287.991404 255.107501 302.711192 
" style="fill:none;opacity:0.5;stroke:#0000ff;stroke-linecap:round;stroke-width:3;"/>
    <path d="M 253.98454 300.911482 
L 255.107501 302.711192 
L 253.30779 303.834153 
" style="fill:none;opacity:0.5;stroke:#0000ff;stroke-linecap:round;stroke-width:3;"/>
   </g>
   <g id="patch_65">
    <path clip-path="url(#p7777977be9)" d="M 70.905342 181.535675 
C 72.414124 181.535675 73.861312 181.129388 74.928182 180.406295 
C 75.995052 179.683201 76.594497 178.702337 76.594497 177.679728 
C 76.594497 176.657119 75.995052 175.676256 74.928182 174.953162 
C 73.861312 174.230069 72.414124 173.823782 70.905342 173.823782 
C 69.39656 173.823782 67.949371 174.230069 66.882502 174.953162 
C 65.815632 175.676256 65.216187 176.657119 65.216187 177.679728 
C 65.216187 178.702337 65.815632 179.683201 66.882502 180.406295 
C 67.949371 181.129388 69.39656 181.535675 70.905342 181.535675 
z
" style="fill:#0000ff;opacity:0.2;stroke:#0000ff;stroke-linejoin:miter;"/>
   </g>
   <g id="patch_66">
    <path clip-path="url(#p7777977be9)" d="M 58.104743 177.679728 
C 59.613525 177.679728 61.060713 177.273442 62.127583 176.550348 
C 63.194453 175.827254 63.793898 174.846391 63.793898 173.823782 
C 63.793898 172.801173 63.194453 171.820309 62.127583 171.097216 
C 61.060713 170.374122 59.613525 169.967835 58.104743 169.967835 
C 56.595961 169.967835 55.148773 170.374122 54.081903 171.097216 
C 53.015033 171.820309 52.415588 172.801173 52.415588 173.823782 
C 52.415588 174.846391 53.015033 175.827254 54.081903 176.550348 
C 55.148773 177.273442 56.595961 177.679728 58.104743 177.679728 
z
" style="fill:#ff0000;opacity:0.2;stroke:#ff0000;stroke-linejoin:miter;"/>
   </g>
   <g id="patch_67">
    <path d="M 70.905342 177.679728 
Q 65.4629 176.040292 62.051624 175.012708 
" style="fill:none;opacity:0.5;stroke:#0000ff;stroke-linecap:round;stroke-width:3;"/>
    <path d="M 63.055231 176.881604 
L 62.051624 175.012708 
L 63.92052 174.009101 
" style="fill:none;opacity:0.5;stroke:#0000ff;stroke-linecap:round;stroke-width:3;"/>
   </g>
   <g id="patch_68">
    <path clip-path="url(#p7777977be9)" d="M 295.152872 32.439069 
C 296.661654 32.439069 298.108843 32.032782 299.175712 31.309688 
C 300.242582 30.586595 300.842027 29.605731 300.842027 28.583122 
C 300.842027 27.560513 300.242582 26.57965 299.175712 25.856556 
C 298.108843 25.133463 296.661654 24.727176 295.152872 24.727176 
C 293.644091 24.727176 292.196902 25.133463 291.130032 25.856556 
C 290.063162 26.57965 289.463717 27.560513 289.463717 28.583122 
C 289.463717 29.605731 290.063162 30.586595 291.130032 31.309688 
C 292.196902 32.032782 293.644091 32.439069 295.152872 32.439069 
z
" style="fill:#0000ff;opacity:0.2;stroke:#0000ff;stroke-linejoin:miter;"/>
   </g>
   <g id="patch_69">
    <path clip-path="url(#p7777977be9)" d="M 300.367931 38.222989 
C 301.876713 38.222989 303.323901 37.816702 304.390771 37.093609 
C 305.457641 36.370515 306.057086 35.389651 306.057086 34.367042 
C 306.057086 33.344433 305.457641 32.36357 304.390771 31.640476 
C 303.323901 30.917383 301.876713 30.511096 300.367931 30.511096 
C 298.859149 30.511096 297.411961 30.917383 296.345091 31.640476 
C 295.278221 32.36357 294.678776 33.344433 294.678776 34.367042 
C 294.678776 35.389651 295.278221 36.370515 296.345091 37.093609 
C 297.411961 37.816702 298.859149 38.222989 300.367931 38.222989 
z
" style="fill:#ff0000;opacity:0.2;stroke:#ff0000;stroke-linejoin:miter;"/>
   </g>
   <g id="patch_70">
    <path d="M 295.152872 28.583122 
Q 297.091968 30.733735 297.610541 31.308875 
" style="fill:none;opacity:0.5;stroke:#ff0000;stroke-linecap:round;stroke-width:3;"/>
    <path d="M 297.720108 29.190386 
L 297.610541 31.308875 
L 295.492052 31.199308 
" style="fill:none;opacity:0.5;stroke:#ff0000;stroke-linecap:round;stroke-width:3;"/>
   </g>
   <g id="patch_71">
    <path clip-path="url(#p7777977be9)" d="M 394.713086 41.436278 
C 395.467477 41.436278 396.191072 41.233135 396.724507 40.871588 
C 397.257941 40.510041 397.557664 40.019609 397.557664 39.508305 
C 397.557664 38.997 397.257941 38.506569 396.724507 38.145022 
C 396.191072 37.783475 395.467477 37.580331 394.713086 37.580331 
C 393.958696 37.580331 393.235101 37.783475 392.701666 38.145022 
C 392.168232 38.506569 391.868509 38.997 391.868509 39.508305 
C 391.868509 40.019609 392.168232 40.510041 392.701666 40.871588 
C 393.235101 41.233135 393.958696 41.436278 394.713086 41.436278 
z
" style="fill:#0000ff;opacity:0.2;stroke:#0000ff;stroke-linejoin:miter;"/>
   </g>
   <g id="patch_72">
    <path clip-path="url(#p7777977be9)" d="M 384.757065 47.220198 
C 385.511456 47.220198 386.23505 47.017055 386.768485 46.655508 
C 387.30192 46.293961 387.601643 45.803529 387.601643 45.292225 
C 387.601643 44.78092 387.30192 44.290489 386.768485 43.928942 
C 386.23505 43.567395 385.511456 43.364251 384.757065 43.364251 
C 384.002674 43.364251 383.27908 43.567395 382.745645 43.928942 
C 382.21221 44.290489 381.912487 44.78092 381.912487 45.292225 
C 381.912487 45.803529 382.21221 46.293961 382.745645 46.655508 
C 383.27908 47.017055 384.002674 47.220198 384.757065 47.220198 
z
" style="fill:#ff0000;opacity:0.2;stroke:#ff0000;stroke-linejoin:miter;"/>
   </g>
   <g id="patch_73">
    <path d="M 394.713086 39.508305 
Q 390.599179 41.898267 387.402398 43.755427 
" style="fill:none;opacity:0.5;stroke:#ff0000;stroke-linecap:round;stroke-width:1.5;"/>
    <path d="M 389.452907 44.298944 
L 387.402398 43.755427 
L 387.945915 41.704917 
" style="fill:none;opacity:0.5;stroke:#ff0000;stroke-linecap:round;stroke-width:1.5;"/>
   </g>
   <g id="patch_74">
    <path clip-path="url(#p7777977be9)" d="M 414.625129 75.175812 
C 415.505252 75.175812 416.349445 74.938811 416.971786 74.517006 
C 417.594127 74.095202 417.943803 73.523031 417.943803 72.92651 
C 417.943803 72.329988 417.594127 71.757817 416.971786 71.336013 
C 416.349445 70.914208 415.505252 70.677207 414.625129 70.677207 
C 413.745007 70.677207 412.900813 70.914208 412.278473 71.336013 
C 411.656132 71.757817 411.306455 72.329988 411.306455 72.92651 
C 411.306455 73.523031 411.656132 74.095202 412.278473 74.517006 
C 412.900813 74.938811 413.745007 75.175812 414.625129 75.175812 
z
" style="fill:#0000ff;opacity:0.2;stroke:#0000ff;stroke-linejoin:miter;"/>
   </g>
   <g id="patch_75">
    <path clip-path="url(#p7777977be9)" d="M 398.979953 73.247838 
C 399.860075 73.247838 400.704269 73.010838 401.32661 72.589033 
C 401.94895 72.167228 402.298627 71.595058 402.298627 70.998536 
C 402.298627 70.402014 401.94895 69.829844 401.32661 69.408039 
C 400.704269 68.986235 399.860075 68.749234 398.979953 68.749234 
C 398.09983 68.749234 397.255637 68.986235 396.633296 69.408039 
C 396.010955 69.829844 395.661279 70.402014 395.661279 70.998536 
C 395.661279 71.595058 396.010955 72.167228 396.633296 72.589033 
C 397.255637 73.010838 398.09983 73.247838 398.979953 73.247838 
z
" style="fill:#ff0000;opacity:0.2;stroke:#ff0000;stroke-linejoin:miter;"/>
   </g>
   <g id="patch_76">
    <path d="M 414.625129 72.92651 
Q 407.793733 72.084669 402.190484 71.394174 
" style="fill:none;opacity:0.5;stroke:#ff0000;stroke-linecap:round;stroke-width:1.75;"/>
    <path d="M 403.495764 73.066371 
L 402.190484 71.394174 
L 403.862682 70.088894 
" style="fill:none;opacity:0.5;stroke:#ff0000;stroke-linecap:round;stroke-width:1.75;"/>
   </g>
   <g id="patch_77">
    <path clip-path="url(#p7777977be9)" d="M 389.972124 113.092621 
C 391.355174 113.092621 392.681763 112.720191 393.659727 112.057355 
C 394.637691 111.39452 395.187183 110.495395 395.187183 109.558003 
C 395.187183 108.620612 394.637691 107.721487 393.659727 107.058651 
C 392.681763 106.395815 391.355174 106.023385 389.972124 106.023385 
C 388.589074 106.023385 387.262484 106.395815 386.28452 107.058651 
C 385.306557 107.721487 384.757065 108.620612 384.757065 109.558003 
C 384.757065 110.495395 385.306557 111.39452 386.28452 112.057355 
C 387.262484 112.720191 388.589074 113.092621 389.972124 113.092621 
z
" style="fill:#0000ff;opacity:0.2;stroke:#0000ff;stroke-linejoin:miter;"/>
   </g>
   <g id="patch_78">
    <path clip-path="url(#p7777977be9)" d="M 378.119717 98.311492 
C 379.502767 98.311492 380.829357 97.939062 381.807321 97.276226 
C 382.785285 96.61339 383.334776 95.714266 383.334776 94.776874 
C 383.334776 93.839483 382.785285 92.940358 381.807321 92.277522 
C 380.829357 91.614686 379.502767 91.242256 378.119717 91.242256 
C 376.736668 91.242256 375.410078 91.614686 374.432114 92.277522 
C 373.45415 92.940358 372.904659 93.839483 372.904659 94.776874 
C 372.904659 95.714266 373.45415 96.61339 374.432114 97.276226 
C 375.410078 97.939062 376.736668 98.311492 378.119717 98.311492 
z
" style="fill:#ff0000;opacity:0.2;stroke:#ff0000;stroke-linejoin:miter;"/>
   </g>
   <g id="patch_79">
    <path d="M 389.972124 109.558003 
Q 384.672397 102.948717 380.589137 97.856486 
" style="fill:none;opacity:0.5;stroke:#ff0000;stroke-linecap:round;stroke-width:2.75;"/>
    <path d="M 380.357266 99.965096 
L 380.589137 97.856486 
L 382.697747 98.088356 
" style="fill:none;opacity:0.5;stroke:#ff0000;stroke-linecap:round;stroke-width:2.75;"/>
   </g>
   <g id="patch_80">
    <path clip-path="url(#p7777977be9)" d="M 374.801044 108.272688 
C 375.555434 108.272688 376.279029 108.069544 376.812464 107.707997 
C 377.345899 107.34645 377.645621 106.856019 377.645621 106.344714 
C 377.645621 105.83341 377.345899 105.342978 376.812464 104.981431 
C 376.279029 104.619884 375.555434 104.416741 374.801044 104.416741 
C 374.046653 104.416741 373.323058 104.619884 372.789624 104.981431 
C 372.256189 105.342978 371.956466 105.83341 371.956466 106.344714 
C 371.956466 106.856019 372.256189 107.34645 372.789624 107.707997 
C 373.323058 108.069544 374.046653 108.272688 374.801044 108.272688 
z
" style="fill:#0000ff;opacity:0.2;stroke:#0000ff;stroke-linejoin:miter;"/>
   </g>
   <g id="patch_81">
    <path clip-path="url(#p7777977be9)" d="M 364.845022 92.206243 
C 365.599413 92.206243 366.323007 92.0031 366.856442 91.641553 
C 367.389877 91.280006 367.6896 90.789574 367.6896 90.27827 
C 367.6896 89.766965 367.389877 89.276534 366.856442 88.914987 
C 366.323007 88.55344 365.599413 88.350296 364.845022 88.350296 
C 364.090631 88.350296 363.367037 88.55344 362.833602 88.914987 
C 362.300167 89.276534 362.000445 89.766965 362.000445 90.27827 
C 362.000445 90.789574 362.300167 91.280006 362.833602 91.641553 
C 363.367037 92.0031 364.090631 92.206243 364.845022 92.206243 
z
" style="fill:#ff0000;opacity:0.2;stroke:#ff0000;stroke-linejoin:miter;"/>
   </g>
   <g id="patch_82">
    <path d="M 374.801044 106.344714 
Q 370.349273 99.160707 366.456196 92.878288 
" style="fill:none;opacity:0.5;stroke:#ff0000;stroke-linecap:round;stroke-width:1.5;"/>
    <path d="M 365.971271 94.943439 
L 366.456196 92.878288 
L 368.521347 93.363213 
" style="fill:none;opacity:0.5;stroke:#ff0000;stroke-linecap:round;stroke-width:1.5;"/>
   </g>
   <g id="patch_83">
    <path clip-path="url(#p7777977be9)" d="M 277.137214 62.001327 
C 278.645996 62.001327 280.093185 61.59504 281.160055 60.871947 
C 282.226924 60.148853 282.826369 59.16799 282.826369 58.14538 
C 282.826369 57.122771 282.226924 56.141908 281.160055 55.418814 
C 280.093185 54.695721 278.645996 54.289434 277.137214 54.289434 
C 275.628433 54.289434 274.181244 54.695721 273.114374 55.418814 
C 272.047505 56.141908 271.448059 57.122771 271.448059 58.14538 
C 271.448059 59.16799 272.047505 60.148853 273.114374 60.871947 
C 274.181244 61.59504 275.628433 62.001327 277.137214 62.001327 
z
" style="fill:#0000ff;opacity:0.2;stroke:#0000ff;stroke-linejoin:miter;"/>
   </g>
   <g id="patch_84">
    <path clip-path="url(#p7777977be9)" d="M 270.02577 60.073354 
C 271.534552 60.073354 272.981741 59.667067 274.048611 58.943973 
C 275.11548 58.220879 275.714926 57.240016 275.714926 56.217407 
C 275.714926 55.194798 275.11548 54.213935 274.048611 53.490841 
C 272.981741 52.767747 271.534552 52.36146 270.02577 52.36146 
C 268.516989 52.36146 267.0698 52.767747 266.00293 53.490841 
C 264.936061 54.213935 264.336615 55.194798 264.336615 56.217407 
C 264.336615 57.240016 264.936061 58.220879 266.00293 58.943973 
C 267.0698 59.667067 268.516989 60.073354 270.02577 60.073354 
z
" style="fill:#ff0000;opacity:0.2;stroke:#ff0000;stroke-linejoin:miter;"/>
   </g>
   <g id="patch_85">
    <path d="M 277.137214 58.14538 
Q 274.545079 57.44263 274.000356 57.294951 
" style="fill:none;opacity:0.5;stroke:#ff0000;stroke-linecap:round;stroke-width:3;"/>
    <path d="M 275.055601 59.135185 
L 274.000356 57.294951 
L 275.840589 56.239707 
" style="fill:none;opacity:0.5;stroke:#ff0000;stroke-linecap:round;stroke-width:3;"/>
   </g>
   <g id="patch_86">
    <path clip-path="url(#p7777977be9)" d="M 182.317963 153.90139 
C 183.826744 153.90139 185.273933 153.495104 186.340803 152.77201 
C 187.407673 152.048916 188.007118 151.068053 188.007118 150.045444 
C 188.007118 149.022835 187.407673 148.041971 186.340803 147.318878 
C 185.273933 146.595784 183.826744 146.189497 182.317963 146.189497 
C 180.809181 146.189497 179.361992 146.595784 178.295123 147.318878 
C 177.228253 148.041971 176.628808 149.022835 176.628808 150.045444 
C 176.628808 151.068053 177.228253 152.048916 178.295123 152.77201 
C 179.361992 153.495104 180.809181 153.90139 182.317963 153.90139 
z
" style="fill:#0000ff;opacity:0.2;stroke:#0000ff;stroke-linejoin:miter;"/>
   </g>
   <g id="patch_87">
    <path clip-path="url(#p7777977be9)" d="M 139.175203 163.541257 
C 140.683985 163.541257 142.131174 163.13497 143.198043 162.411877 
C 144.264913 161.688783 144.864358 160.707919 144.864358 159.68531 
C 144.864358 158.662701 144.264913 157.681838 143.198043 156.958744 
C 142.131174 156.235651 140.683985 155.829364 139.175203 155.829364 
C 137.666422 155.829364 136.219233 156.235651 135.152363 156.958744 
C 134.085493 157.681838 133.486048 158.662701 133.486048 159.68531 
C 133.486048 160.707919 134.085493 161.688783 135.152363 162.411877 
C 136.219233 163.13497 137.666422 163.541257 139.175203 163.541257 
z
" style="fill:#ff0000;opacity:0.2;stroke:#ff0000;stroke-linejoin:miter;"/>
   </g>
   <g id="patch_88">
    <path d="M 182.317963 150.045444 
Q 161.722193 154.647386 143.196693 158.786744 
" style="fill:none;opacity:0.5;stroke:#ff0000;stroke-linecap:round;stroke-width:3;"/>
    <path d="M 144.98769 159.92355 
L 143.196693 158.786744 
L 144.333499 156.995747 
" style="fill:none;opacity:0.5;stroke:#ff0000;stroke-linecap:round;stroke-width:3;"/>
   </g>
   <g id="patch_89">
    <path clip-path="url(#p7777977be9)" d="M 317.909493 256.083978 
C 319.418274 256.083978 320.865463 255.677691 321.932333 254.954598 
C 322.999202 254.231504 323.598648 253.25064 323.598648 252.228031 
C 323.598648 251.205422 322.999202 250.224559 321.932333 249.501465 
C 320.865463 248.778372 319.418274 248.372085 317.909493 248.372085 
C 316.400711 248.372085 314.953522 248.778372 313.886652 249.501465 
C 312.819783 250.224559 312.220337 251.205422 312.220337 252.228031 
C 312.220337 253.25064 312.819783 254.231504 313.886652 254.954598 
C 314.953522 255.677691 316.400711 256.083978 317.909493 256.083978 
z
" style="fill:#0000ff;opacity:0.2;stroke:#0000ff;stroke-linejoin:miter;"/>
   </g>
   <g id="patch_90">
    <path clip-path="url(#p7777977be9)" d="M 291.834198 273.435738 
C 293.34298 273.435738 294.790169 273.029452 295.857039 272.306358 
C 296.923908 271.583264 297.523353 270.602401 297.523353 269.579792 
C 297.523353 268.557183 296.923908 267.576319 295.857039 266.853226 
C 294.790169 266.130132 293.34298 265.723845 291.834198 265.723845 
C 290.325417 265.723845 288.878228 266.130132 287.811358 266.853226 
C 286.744489 267.576319 286.145043 268.557183 286.145043 269.579792 
C 286.145043 270.602401 286.744489 271.583264 287.811358 272.306358 
C 288.878228 273.029452 290.325417 273.435738 291.834198 273.435738 
z
" style="fill:#ff0000;opacity:0.2;stroke:#ff0000;stroke-linejoin:miter;"/>
   </g>
   <g id="patch_91">
    <path d="M 317.909493 252.228031 
Q 305.704205 260.350019 295.264955 267.2968 
" style="fill:none;opacity:0.5;stroke:#ff0000;stroke-linecap:round;stroke-width:3;"/>
    <path d="M 297.344729 267.714581 
L 295.264955 267.2968 
L 295.682736 265.217027 
" style="fill:none;opacity:0.5;stroke:#ff0000;stroke-linecap:round;stroke-width:3;"/>
   </g>
   <g id="patch_92">
    <path clip-path="url(#p7777977be9)" d="M 402.298627 222.665773 
C 403.053017 222.665773 403.776612 222.46263 404.310047 222.101083 
C 404.843481 221.739536 405.143204 221.249105 405.143204 220.7378 
C 405.143204 220.226496 404.843481 219.736064 404.310047 219.374517 
C 403.776612 219.01297 403.053017 218.809827 402.298627 218.809827 
C 401.544236 218.809827 400.820641 219.01297 400.287207 219.374517 
C 399.753772 219.736064 399.454049 220.226496 399.454049 220.7378 
C 399.454049 221.249105 399.753772 221.739536 400.287207 222.101083 
C 400.820641 222.46263 401.544236 222.665773 402.298627 222.665773 
z
" style="fill:#0000ff;opacity:0.2;stroke:#0000ff;stroke-linejoin:miter;"/>
   </g>
   <g id="patch_93">
    <path clip-path="url(#p7777977be9)" d="M 397.083568 232.948298 
C 397.837959 232.948298 398.561553 232.745155 399.094988 232.383608 
C 399.628423 232.022061 399.928145 231.531629 399.928145 231.020325 
C 399.928145 230.50902 399.628423 230.018588 399.094988 229.657042 
C 398.561553 229.295495 397.837959 229.092351 397.083568 229.092351 
C 396.329177 229.092351 395.605582 229.295495 395.072148 229.657042 
C 394.538713 230.018588 394.23899 230.50902 394.23899 231.020325 
C 394.23899 231.531629 394.538713 232.022061 395.072148 232.383608 
C 395.605582 232.745155 396.329177 232.948298 397.083568 232.948298 
z
" style="fill:#ff0000;opacity:0.2;stroke:#ff0000;stroke-linejoin:miter;"/>
   </g>
   <g id="patch_94">
    <path d="M 402.298627 220.7378 
Q 400.143723 224.986622 398.468583 228.289491 
" style="fill:none;opacity:0.5;stroke:#ff0000;stroke-linecap:round;stroke-width:1.5;"/>
    <path d="M 400.484852 227.630203 
L 398.468583 228.289491 
L 397.809295 226.273222 
" style="fill:none;opacity:0.5;stroke:#ff0000;stroke-linecap:round;stroke-width:1.5;"/>
   </g>
   <g id="patch_95">
    <path clip-path="url(#p7777977be9)" d="M 426.951632 238.732218 
C 428.460414 238.732218 429.907602 238.325931 430.974472 237.602837 
C 432.041342 236.879744 432.640787 235.89888 432.640787 234.876271 
C 432.640787 233.853662 432.041342 232.872799 430.974472 232.149705 
C 429.907602 231.426611 428.460414 231.020325 426.951632 231.020325 
C 425.44285 231.020325 423.995662 231.426611 422.928792 232.149705 
C 421.861922 232.872799 421.262477 233.853662 421.262477 234.876271 
C 421.262477 235.89888 421.861922 236.879744 422.928792 237.602837 
C 423.995662 238.325931 425.44285 238.732218 426.951632 238.732218 
z
" style="fill:#0000ff;opacity:0.2;stroke:#0000ff;stroke-linejoin:miter;"/>
   </g>
   <g id="patch_96">
    <path clip-path="url(#p7777977be9)" d="M 414.151033 243.87348 
C 415.659815 243.87348 417.107004 243.467193 418.173873 242.7441 
C 419.240743 242.021006 419.840188 241.040143 419.840188 240.017534 
C 419.840188 238.994925 419.240743 238.014061 418.173873 237.290968 
C 417.107004 236.567874 415.659815 236.161587 414.151033 236.161587 
C 412.642251 236.161587 411.195063 236.567874 410.128193 237.290968 
C 409.061323 238.014061 408.461878 238.994925 408.461878 240.017534 
C 408.461878 241.040143 409.061323 242.021006 410.128193 242.7441 
C 411.195063 243.467193 412.642251 243.87348 414.151033 243.87348 
z
" style="fill:#ff0000;opacity:0.2;stroke:#ff0000;stroke-linejoin:miter;"/>
   </g>
   <g id="patch_97">
    <path d="M 426.951632 234.876271 
Q 421.477938 237.074738 417.972724 238.482581 
" style="fill:none;opacity:0.5;stroke:#ff0000;stroke-linecap:round;stroke-width:3;"/>
    <path d="M 419.923706 239.31545 
L 417.972724 238.482581 
L 418.805594 236.531599 
" style="fill:none;opacity:0.5;stroke:#ff0000;stroke-linecap:round;stroke-width:3;"/>
   </g>
   <g id="patch_98">
    <path clip-path="url(#p7777977be9)" d="M 259.121557 307.496601 
C 260.630338 307.496601 262.077527 307.090314 263.144397 306.36722 
C 264.211266 305.644127 264.810712 304.663263 264.810712 303.640654 
C 264.810712 302.618045 264.211266 301.637182 263.144397 300.914088 
C 262.077527 300.190994 260.630338 299.784708 259.121557 299.784708 
C 257.612775 299.784708 256.165586 300.190994 255.098716 300.914088 
C 254.031847 301.637182 253.432401 302.618045 253.432401 303.640654 
C 253.432401 304.663263 254.031847 305.644127 255.098716 306.36722 
C 256.165586 307.090314 257.612775 307.496601 259.121557 307.496601 
z
" style="fill:#0000ff;opacity:0.2;stroke:#0000ff;stroke-linejoin:miter;"/>
   </g>
   <g id="patch_99">
    <path clip-path="url(#p7777977be9)" d="M 255.802883 309.424574 
C 257.311664 309.424574 258.758853 309.018287 259.825723 308.295194 
C 260.892593 307.5721 261.492038 306.591237 261.492038 305.568628 
C 261.492038 304.546019 260.892593 303.565155 259.825723 302.842062 
C 258.758853 302.118968 257.311664 301.712681 255.802883 301.712681 
C 254.294101 301.712681 252.846912 302.118968 251.780043 302.842062 
C 250.713173 303.565155 250.113728 304.546019 250.113728 305.568628 
C 250.113728 306.591237 250.713173 307.5721 251.780043 308.295194 
C 252.846912 309.018287 254.294101 309.424574 255.802883 309.424574 
z
" style="fill:#ff0000;opacity:0.2;stroke:#ff0000;stroke-linejoin:miter;"/>
   </g>
   <g id="patch_100">
    <path d="M 259.121557 303.640654 
Q 258.325917 304.102878 259.364532 303.499498 
" style="fill:none;opacity:0.5;stroke:#ff0000;stroke-linecap:round;stroke-width:3;"/>
    <path d="M 261.415042 304.043016 
L 259.364532 303.499498 
L 259.90805 301.448989 
" style="fill:none;opacity:0.5;stroke:#ff0000;stroke-linecap:round;stroke-width:3;"/>
   </g>
   <g id="patch_101">
    <path clip-path="url(#p7777977be9)" d="M 58.104743 177.679728 
C 59.613525 177.679728 61.060713 177.273442 62.127583 176.550348 
C 63.194453 175.827254 63.793898 174.846391 63.793898 173.823782 
C 63.793898 172.801173 63.194453 171.820309 62.127583 171.097216 
C 61.060713 170.374122 59.613525 169.967835 58.104743 169.967835 
C 56.595961 169.967835 55.148773 170.374122 54.081903 171.097216 
C 53.015033 171.820309 52.415588 172.801173 52.415588 173.823782 
C 52.415588 174.846391 53.015033 175.827254 54.081903 176.550348 
C 55.148773 177.273442 56.595961 177.679728 58.104743 177.679728 
z
" style="fill:#0000ff;opacity:0.2;stroke:#0000ff;stroke-linejoin:miter;"/>
   </g>
   <g id="patch_102">
    <path clip-path="url(#p7777977be9)" d="M 70.905342 181.535675 
C 72.414124 181.535675 73.861312 181.129388 74.928182 180.406295 
C 75.995052 179.683201 76.594497 178.702337 76.594497 177.679728 
C 76.594497 176.657119 75.995052 175.676256 74.928182 174.953162 
C 73.861312 174.230069 72.414124 173.823782 70.905342 173.823782 
C 69.39656 173.823782 67.949371 174.230069 66.882502 174.953162 
C 65.815632 175.676256 65.216187 176.657119 65.216187 177.679728 
C 65.216187 178.702337 65.815632 179.683201 66.882502 180.406295 
C 67.949371 181.129388 69.39656 181.535675 70.905342 181.535675 
z
" style="fill:#ff0000;opacity:0.2;stroke:#ff0000;stroke-linejoin:miter;"/>
   </g>
   <g id="patch_103">
    <path d="M 58.104743 173.823782 
Q 63.547185 175.463218 66.958461 176.490803 
" style="fill:none;opacity:0.5;stroke:#ff0000;stroke-linecap:round;stroke-width:3;"/>
    <path d="M 65.954854 174.621906 
L 66.958461 176.490803 
L 65.089565 177.49441 
" style="fill:none;opacity:0.5;stroke:#ff0000;stroke-linecap:round;stroke-width:3;"/>
   </g>
   <g id="patch_104">
    <path clip-path="url(#p7777977be9)" d="M 297.760402 34.688371 
C 299.01772 34.688371 300.22371 34.349799 301.112768 33.747221 
C 302.001826 33.144643 302.501364 32.327257 302.501364 31.475082 
C 302.501364 30.622908 302.001826 29.805522 301.112768 29.202944 
C 300.22371 28.600366 299.01772 28.261793 297.760402 28.261793 
C 296.503084 28.261793 295.297093 28.600366 294.408035 29.202944 
C 293.518977 29.805522 293.019439 30.622908 293.019439 31.475082 
C 293.019439 32.327257 293.518977 33.144643 294.408035 33.747221 
C 295.297093 34.349799 296.503084 34.688371 297.760402 34.688371 
z
" style="fill:#008000;opacity:0.2;stroke:#008000;stroke-linejoin:miter;"/>
   </g>
   <g id="patch_105">
    <path clip-path="url(#p7777977be9)" d="M 389.735076 45.613554 
C 390.992394 45.613554 392.198384 45.274981 393.087443 44.672403 
C 393.976501 44.069825 394.476038 43.252439 394.476038 42.400265 
C 394.476038 41.548091 393.976501 40.730705 393.087443 40.128126 
C 392.198384 39.525548 390.992394 39.186976 389.735076 39.186976 
C 388.477758 39.186976 387.271767 39.525548 386.382709 40.128126 
C 385.493651 40.730705 384.994113 41.548091 384.994113 42.400265 
C 384.994113 43.252439 385.493651 44.069825 386.382709 44.672403 
C 387.271767 45.274981 388.477758 45.613554 389.735076 45.613554 
z
" style="fill:#008000;opacity:0.2;stroke:#008000;stroke-linejoin:miter;"/>
   </g>
   <g id="patch_106">
    <path clip-path="url(#p7777977be9)" d="M 406.802541 75.175812 
C 408.059859 75.175812 409.26585 74.837239 410.154908 74.234661 
C 411.043966 73.632083 411.543504 72.814697 411.543504 71.962523 
C 411.543504 71.110349 411.043966 70.292963 410.154908 69.690384 
C 409.26585 69.087806 408.059859 68.749234 406.802541 68.749234 
C 405.545223 68.749234 404.339232 69.087806 403.450174 69.690384 
C 402.561116 70.292963 402.061578 71.110349 402.061578 71.962523 
C 402.061578 72.814697 402.561116 73.632083 403.450174 74.234661 
C 404.339232 74.837239 405.545223 75.175812 406.802541 75.175812 
z
" style="fill:#008000;opacity:0.2;stroke:#008000;stroke-linejoin:miter;"/>
   </g>
   <g id="patch_107">
    <path clip-path="url(#p7777977be9)" d="M 384.045921 105.380728 
C 385.303239 105.380728 386.509229 105.042155 387.398287 104.439577 
C 388.287345 103.836999 388.786883 103.019613 388.786883 102.167439 
C 388.786883 101.315265 388.287345 100.497878 387.398287 99.8953 
C 386.509229 99.292722 385.303239 98.95415 384.045921 98.95415 
C 382.788603 98.95415 381.582612 99.292722 380.693554 99.8953 
C 379.804496 100.497878 379.304958 101.315265 379.304958 102.167439 
C 379.304958 103.019613 379.804496 103.836999 380.693554 104.439577 
C 381.582612 105.042155 382.788603 105.380728 384.045921 105.380728 
z
" style="fill:#008000;opacity:0.2;stroke:#008000;stroke-linejoin:miter;"/>
   </g>
   <g id="patch_108">
    <path clip-path="url(#p7777977be9)" d="M 369.823033 101.524781 
C 371.080351 101.524781 372.286342 101.186209 373.1754 100.58363 
C 374.064458 99.981052 374.563995 99.163666 374.563995 98.311492 
C 374.563995 97.459318 374.064458 96.641932 373.1754 96.039354 
C 372.286342 95.436776 371.080351 95.098203 369.823033 95.098203 
C 368.565715 95.098203 367.359724 95.436776 366.470666 96.039354 
C 365.581608 96.641932 365.08207 97.459318 365.08207 98.311492 
C 365.08207 99.163666 365.581608 99.981052 366.470666 100.58363 
C 367.359724 101.186209 368.565715 101.524781 369.823033 101.524781 
z
" style="fill:#008000;opacity:0.2;stroke:#008000;stroke-linejoin:miter;"/>
   </g>
   <g id="patch_109">
    <path clip-path="url(#p7777977be9)" d="M 273.581492 60.394683 
C 274.83881 60.394683 276.044801 60.05611 276.933859 59.453532 
C 277.822917 58.850954 278.322455 58.033568 278.322455 57.181394 
C 278.322455 56.32922 277.822917 55.511834 276.933859 54.909255 
C 276.044801 54.306677 274.83881 53.968105 273.581492 53.968105 
C 272.324174 53.968105 271.118184 54.306677 270.229126 54.909255 
C 269.340068 55.511834 268.84053 56.32922 268.84053 57.181394 
C 268.84053 58.033568 269.340068 58.850954 270.229126 59.453532 
C 271.118184 60.05611 272.324174 60.394683 273.581492 60.394683 
z
" style="fill:#008000;opacity:0.2;stroke:#008000;stroke-linejoin:miter;"/>
   </g>
   <g id="patch_110">
    <path clip-path="url(#p7777977be9)" d="M 160.746583 158.078666 
C 162.003901 158.078666 163.209892 157.740094 164.09895 157.137515 
C 164.988008 156.534937 165.487546 155.717551 165.487546 154.865377 
C 165.487546 154.013203 164.988008 153.195817 164.09895 152.593239 
C 163.209892 151.990661 162.003901 151.652088 160.746583 151.652088 
C 159.489265 151.652088 158.283274 151.990661 157.394216 152.593239 
C 156.505158 153.195817 156.00562 154.013203 156.00562 154.865377 
C 156.00562 155.717551 156.505158 156.534937 157.394216 157.137515 
C 158.283274 157.740094 159.489265 158.078666 160.746583 158.078666 
z
" style="fill:#008000;opacity:0.2;stroke:#008000;stroke-linejoin:miter;"/>
   </g>
   <g id="patch_111">
    <path clip-path="url(#p7777977be9)" d="M 304.871845 264.1172 
C 306.129163 264.1172 307.335154 263.778628 308.224212 263.17605 
C 309.11327 262.573472 309.612808 261.756086 309.612808 260.903912 
C 309.612808 260.051737 309.11327 259.234351 308.224212 258.631773 
C 307.335154 258.029195 306.129163 257.690623 304.871845 257.690623 
C 303.614528 257.690623 302.408537 258.029195 301.519479 258.631773 
C 300.630421 259.234351 300.130883 260.051737 300.130883 260.903912 
C 300.130883 261.756086 300.630421 262.573472 301.519479 263.17605 
C 302.408537 263.778628 303.614528 264.1172 304.871845 264.1172 
z
" style="fill:#008000;opacity:0.2;stroke:#008000;stroke-linejoin:miter;"/>
   </g>
   <g id="patch_112">
    <path clip-path="url(#p7777977be9)" d="M 399.691097 229.092351 
C 400.948415 229.092351 402.154406 228.753779 403.043464 228.151201 
C 403.932522 227.548623 404.43206 226.731236 404.43206 225.879062 
C 404.43206 225.026888 403.932522 224.209502 403.043464 223.606924 
C 402.154406 223.004346 400.948415 222.665773 399.691097 222.665773 
C 398.433779 222.665773 397.227788 223.004346 396.33873 223.606924 
C 395.449672 224.209502 394.950135 225.026888 394.950135 225.879062 
C 394.950135 226.731236 395.449672 227.548623 396.33873 228.151201 
C 397.227788 228.753779 398.433779 229.092351 399.691097 229.092351 
z
" style="fill:#008000;opacity:0.2;stroke:#008000;stroke-linejoin:miter;"/>
   </g>
   <g id="patch_113">
    <path clip-path="url(#p7777977be9)" d="M 420.551333 240.660191 
C 421.80865 240.660191 423.014641 240.321619 423.903699 239.719041 
C 424.792757 239.116463 425.292295 238.299077 425.292295 237.446902 
C 425.292295 236.594728 424.792757 235.777342 423.903699 235.174764 
C 423.014641 234.572186 421.80865 234.233614 420.551333 234.233614 
C 419.294015 234.233614 418.088024 234.572186 417.198966 235.174764 
C 416.309908 235.777342 415.81037 236.594728 415.81037 237.446902 
C 415.81037 238.299077 416.309908 239.116463 417.198966 239.719041 
C 418.088024 240.321619 419.294015 240.660191 420.551333 240.660191 
z
" style="fill:#008000;opacity:0.2;stroke:#008000;stroke-linejoin:miter;"/>
   </g>
   <g id="patch_114">
    <path clip-path="url(#p7777977be9)" d="M 257.46222 307.81793 
C 258.719538 307.81793 259.925528 307.479357 260.814586 306.876779 
C 261.703644 306.274201 262.203182 305.456815 262.203182 304.604641 
C 262.203182 303.752467 261.703644 302.935081 260.814586 302.332503 
C 259.925528 301.729924 258.719538 301.391352 257.46222 301.391352 
C 256.204902 301.391352 254.998911 301.729924 254.109853 302.332503 
C 253.220795 302.935081 252.721257 303.752467 252.721257 304.604641 
C 252.721257 305.456815 253.220795 306.274201 254.109853 306.876779 
C 254.998911 307.479357 256.204902 307.81793 257.46222 307.81793 
z
" style="fill:#008000;opacity:0.2;stroke:#008000;stroke-linejoin:miter;"/>
   </g>
   <g id="patch_115">
    <path clip-path="url(#p7777977be9)" d="M 64.505042 178.965044 
C 65.76236 178.965044 66.968351 178.626472 67.857409 178.023893 
C 68.746467 177.421315 69.246005 176.603929 69.246005 175.751755 
C 69.246005 174.899581 68.746467 174.082195 67.857409 173.479617 
C 66.968351 172.877039 65.76236 172.538466 64.505042 172.538466 
C 63.247725 172.538466 62.041734 172.877039 61.152676 173.479617 
C 60.263618 174.082195 59.76408 174.899581 59.76408 175.751755 
C 59.76408 176.603929 60.263618 177.421315 61.152676 178.023893 
C 62.041734 178.626472 63.247725 178.965044 64.505042 178.965044 
z
" style="fill:#008000;opacity:0.2;stroke:#008000;stroke-linejoin:miter;"/>
   </g>
   <g id="patch_116">
    <path d="M 297.760402 31.475082 
Q 343.747739 36.937674 389.735076 42.400265 
" style="fill:none;opacity:0.5;stroke:#008000;stroke-linecap:round;stroke-width:2;"/>
   </g>
   <g id="patch_117">
    <path d="M 299.420916 33.316727 
Q 298.428836 32.21643 297.436755 31.116132 
" style="fill:none;opacity:0.5;stroke:#800080;stroke-linecap:round;stroke-width:2;"/>
    <path d="M 299.530483 31.198238 
L 299.420916 33.316727 
L 297.302427 33.20716 
" style="fill:none;opacity:0.5;stroke:#800080;stroke-linecap:round;stroke-width:2;"/>
    <path d="M 297.327188 33.234621 
L 297.436755 31.116132 
L 299.555244 31.225699 
" style="fill:none;opacity:0.5;stroke:#800080;stroke-linecap:round;stroke-width:2;"/>
   </g>
   <g id="patch_118">
    <path d="M 389.735076 42.400265 
Q 398.268808 57.181394 406.802541 71.962523 
" style="fill:none;opacity:0.5;stroke:#008000;stroke-linecap:round;stroke-width:2;"/>
   </g>
   <g id="patch_119">
    <path d="M 385.979901 44.581822 
Q 388.870973 42.902263 391.762045 41.222703 
" style="fill:none;opacity:0.5;stroke:#800080;stroke-linecap:round;stroke-width:2;"/>
    <path d="M 388.03041 45.125339 
L 385.979901 44.581822 
L 386.523418 42.531313 
" style="fill:none;opacity:0.5;stroke:#800080;stroke-linecap:round;stroke-width:2;"/>
    <path d="M 389.711535 40.679186 
L 391.762045 41.222703 
L 391.218527 43.273213 
" style="fill:none;opacity:0.5;stroke:#800080;stroke-linecap:round;stroke-width:2;"/>
   </g>
   <g id="patch_120">
    <path d="M 406.802541 71.962523 
Q 395.424231 87.064981 384.045921 102.167439 
" style="fill:none;opacity:0.5;stroke:#008000;stroke-linecap:round;stroke-width:2;"/>
   </g>
   <g id="patch_121">
    <path d="M 400.383549 71.171503 
Q 405.811349 71.840377 411.239149 72.509251 
" style="fill:none;opacity:0.5;stroke:#800080;stroke-linecap:round;stroke-width:2;"/>
    <path d="M 401.688829 72.843701 
L 400.383549 71.171503 
L 402.055747 69.866223 
" style="fill:none;opacity:0.5;stroke:#800080;stroke-linecap:round;stroke-width:2;"/>
    <path d="M 409.933869 70.837054 
L 411.239149 72.509251 
L 409.566951 73.814531 
" style="fill:none;opacity:0.5;stroke:#800080;stroke-linecap:round;stroke-width:2;"/>
   </g>
   <g id="patch_122">
    <path d="M 384.045921 102.167439 
Q 376.934477 100.239465 369.823033 98.311492 
" style="fill:none;opacity:0.5;stroke:#008000;stroke-linecap:round;stroke-width:2;"/>
   </g>
   <g id="patch_123">
    <path d="M 379.004421 95.880187 
Q 383.419445 101.386161 387.834468 106.892134 
" style="fill:none;opacity:0.5;stroke:#800080;stroke-linecap:round;stroke-width:2;"/>
    <path d="M 378.77255 97.988797 
L 379.004421 95.880187 
L 381.113031 96.112058 
" style="fill:none;opacity:0.5;stroke:#800080;stroke-linecap:round;stroke-width:2;"/>
    <path d="M 388.066339 104.783524 
L 387.834468 106.892134 
L 385.725858 106.660264 
" style="fill:none;opacity:0.5;stroke:#800080;stroke-linecap:round;stroke-width:2;"/>
   </g>
   <g id="patch_124">
    <path d="M 369.823033 98.311492 
Q 321.702263 77.746443 273.581492 57.181394 
" style="fill:none;opacity:0.5;stroke:#008000;stroke-linecap:round;stroke-width:2;"/>
   </g>
   <g id="patch_125">
    <path d="M 365.589948 91.480387 
Q 369.296793 97.462277 373.003638 103.444167 
" style="fill:none;opacity:0.5;stroke:#800080;stroke-linecap:round;stroke-width:2;"/>
    <path d="M 365.105023 93.545538 
L 365.589948 91.480387 
L 367.655098 91.965312 
" style="fill:none;opacity:0.5;stroke:#800080;stroke-linecap:round;stroke-width:2;"/>
    <path d="M 373.488563 101.379016 
L 373.003638 103.444167 
L 370.938487 102.959242 
" style="fill:none;opacity:0.5;stroke:#800080;stroke-linecap:round;stroke-width:2;"/>
   </g>
   <g id="patch_126">
    <path d="M 273.581492 57.181394 
Q 217.164038 106.023385 160.746583 154.865377 
" style="fill:none;opacity:0.5;stroke:#008000;stroke-linecap:round;stroke-width:2;"/>
   </g>
   <g id="patch_127">
    <path d="M 271.390712 56.587454 
Q 272.617906 56.920157 273.845099 57.25286 
" style="fill:none;opacity:0.5;stroke:#800080;stroke-linecap:round;stroke-width:2;"/>
    <path d="M 272.445956 58.427688 
L 271.390712 56.587454 
L 273.230945 55.53221 
" style="fill:none;opacity:0.5;stroke:#800080;stroke-linecap:round;stroke-width:2;"/>
    <path d="M 272.789855 55.412627 
L 273.845099 57.25286 
L 272.004866 58.308104 
" style="fill:none;opacity:0.5;stroke:#800080;stroke-linecap:round;stroke-width:2;"/>
   </g>
   <g id="patch_128">
    <path d="M 160.746583 154.865377 
Q 232.809214 207.884644 304.871845 260.903912 
" style="fill:none;opacity:0.5;stroke:#008000;stroke-linecap:round;stroke-width:2;"/>
   </g>
   <g id="patch_129">
    <path d="M 140.555383 159.376922 
Q 159.770973 155.083368 178.986563 150.789815 
" style="fill:none;opacity:0.5;stroke:#800080;stroke-linecap:round;stroke-width:2;"/>
    <path d="M 142.346381 160.513727 
L 140.555383 159.376922 
L 141.692189 157.585924 
" style="fill:none;opacity:0.5;stroke:#800080;stroke-linecap:round;stroke-width:2;"/>
    <path d="M 177.195566 149.653009 
L 178.986563 150.789815 
L 177.849757 152.580813 
" style="fill:none;opacity:0.5;stroke:#800080;stroke-linecap:round;stroke-width:2;"/>
   </g>
   <g id="patch_130">
    <path d="M 304.871845 260.903912 
Q 352.281471 243.391487 399.691097 225.879062 
" style="fill:none;opacity:0.5;stroke:#008000;stroke-linecap:round;stroke-width:2;"/>
   </g>
   <g id="patch_131">
    <path d="M 293.011557 268.79632 
Q 304.039486 261.457804 315.067415 254.119287 
" style="fill:none;opacity:0.5;stroke:#800080;stroke-linecap:round;stroke-width:2;"/>
    <path d="M 295.091331 269.214101 
L 293.011557 268.79632 
L 293.429337 266.716547 
" style="fill:none;opacity:0.5;stroke:#800080;stroke-linecap:round;stroke-width:2;"/>
    <path d="M 312.987641 253.701507 
L 315.067415 254.119287 
L 314.649634 256.199061 
" style="fill:none;opacity:0.5;stroke:#800080;stroke-linecap:round;stroke-width:2;"/>
   </g>
   <g id="patch_132">
    <path d="M 399.691097 225.879062 
Q 410.121215 231.662982 420.551333 237.446902 
" style="fill:none;opacity:0.5;stroke:#008000;stroke-linecap:round;stroke-width:2;"/>
   </g>
   <g id="patch_133">
    <path d="M 397.723254 229.759055 
Q 399.238472 226.771503 400.753689 223.783951 
" style="fill:none;opacity:0.5;stroke:#800080;stroke-linecap:round;stroke-width:2;"/>
    <path d="M 399.739523 229.099767 
L 397.723254 229.759055 
L 397.063966 227.742786 
" style="fill:none;opacity:0.5;stroke:#800080;stroke-linecap:round;stroke-width:2;"/>
    <path d="M 398.73742 224.443239 
L 400.753689 223.783951 
L 401.412977 225.80022 
" style="fill:none;opacity:0.5;stroke:#800080;stroke-linecap:round;stroke-width:2;"/>
   </g>
   <g id="patch_134">
    <path d="M 420.551333 237.446902 
Q 339.006776 271.025772 257.46222 304.604641 
" style="fill:none;opacity:0.5;stroke:#008000;stroke-linecap:round;stroke-width:2;"/>
   </g>
   <g id="patch_135">
    <path d="M 415.463353 239.49045 
Q 419.624727 237.819067 423.7861 236.147683 
" style="fill:none;opacity:0.5;stroke:#800080;stroke-linecap:round;stroke-width:2;"/>
    <path d="M 417.414334 240.32332 
L 415.463353 239.49045 
L 416.296222 237.539469 
" style="fill:none;opacity:0.5;stroke:#800080;stroke-linecap:round;stroke-width:2;"/>
    <path d="M 421.835119 235.314813 
L 423.7861 236.147683 
L 422.953231 238.098664 
" style="fill:none;opacity:0.5;stroke:#800080;stroke-linecap:round;stroke-width:2;"/>
   </g>
   <g id="patch_136">
    <path d="M 257.46222 304.604641 
Q 160.983631 240.178198 64.505042 175.751755 
" style="fill:none;opacity:0.5;stroke:#008000;stroke-linecap:round;stroke-width:2;"/>
   </g>
   <g id="patch_137">
    <path d="M 257.025719 304.858225 
Q 256.598522 305.106404 256.171325 305.354582 
" style="fill:none;opacity:0.5;stroke:#800080;stroke-linecap:round;stroke-width:2;"/>
    <path d="M 259.076228 305.401742 
L 257.025719 304.858225 
L 257.569236 302.807715 
" style="fill:none;opacity:0.5;stroke:#800080;stroke-linecap:round;stroke-width:2;"/>
    <path d="M 254.120816 304.811065 
L 256.171325 305.354582 
L 255.627807 307.405092 
" style="fill:none;opacity:0.5;stroke:#800080;stroke-linecap:round;stroke-width:2;"/>
   </g>
   <g id="patch_138">
    <path d="M 64.505042 175.751755 
Q 181.132722 103.613419 297.760402 31.475082 
" style="fill:none;opacity:0.5;stroke:#008000;stroke-linecap:round;stroke-width:2;"/>
   </g>
   <g id="patch_139">
    <path d="M 69.551231 177.271827 
Q 65.4629 176.040292 61.374569 174.808757 
" style="fill:none;opacity:0.5;stroke:#800080;stroke-linecap:round;stroke-width:2;"/>
    <path d="M 68.547624 175.402931 
L 69.551231 177.271827 
L 67.682335 178.275434 
" style="fill:none;opacity:0.5;stroke:#800080;stroke-linecap:round;stroke-width:2;"/>
    <path d="M 62.378176 176.677653 
L 61.374569 174.808757 
L 63.243465 173.80515 
" style="fill:none;opacity:0.5;stroke:#800080;stroke-linecap:round;stroke-width:2;"/>
   </g>
   <g id="line2d_1">
    <path clip-path="url(#p7777977be9)" d="M 300.367931 34.367042 
L 384.757065 45.292225 
L 398.979953 70.998536 
L 378.119717 94.776874 
L 364.845022 90.27827 
L 270.02577 56.217407 
L 139.175203 159.68531 
L 291.834198 269.579792 
L 397.083568 231.020325 
L 414.151033 240.017534 
L 255.802883 305.568628 
L 125.900508 272.793081 
L 70.905342 177.679728 
" style="fill:none;stroke:#ff0000;stroke-linecap:square;stroke-width:0.2;"/>
   </g>
   <g id="line2d_2">
    <path clip-path="url(#p7777977be9)" d="M 295.152872 28.583122 
L 394.713086 39.508305 
L 414.625129 72.92651 
L 389.972124 109.558003 
L 374.801044 106.344714 
L 277.137214 58.14538 
L 182.317963 150.045444 
L 317.909493 252.228031 
L 402.298627 220.7378 
L 426.951632 234.876271 
L 259.121557 303.640654 
L 58.104743 173.823782 
" style="fill:none;stroke:#0000ff;stroke-linecap:square;stroke-width:0.2;"/>
   </g>
  </g>
 </g>
 <defs>
  <clipPath id="p7777977be9">
   <rect height="307.51175" width="409.903625" x="37.576375" y="13.32"/>
  </clipPath>
 </defs>
</svg>
