<?xml version="1.0" encoding="utf-8" standalone="no"?>
<!DOCTYPE svg PUBLIC "-//W3C//DTD SVG 1.1//EN"
  "http://www.w3.org/Graphics/SVG/1.1/DTD/svg11.dtd">
<!-- Created with matplotlib (http://matplotlib.org/) -->
<svg height="345.6pt" version="1.1" viewBox="0 0 460.8 345.6" width="460.8pt" xmlns="http://www.w3.org/2000/svg" xmlns:xlink="http://www.w3.org/1999/xlink">
 <defs>
  <style type="text/css">
*{stroke-linecap:butt;stroke-linejoin:round;}
  </style>
 </defs>
 <g id="figure_1">
  <g id="patch_1">
   <path d="M 0 345.6 
L 460.8 345.6 
L 460.8 0 
L 0 0 
z
" style="fill:#ffffff;"/>
  </g>
  <g id="axes_1">
   <g id="patch_2">
    <path clip-path="url(#p4e4de9791d)" d="M 241.444933 305.179954 
C 242.594063 305.179954 243.696282 305.091763 244.50884 304.934804 
C 245.321398 304.777845 245.777952 304.564933 245.777952 304.34296 
C 245.777952 304.120986 245.321398 303.908074 244.50884 303.751115 
C 243.696282 303.594157 242.594063 303.505966 241.444933 303.505966 
C 240.295803 303.505966 239.193583 303.594157 238.381025 303.751115 
C 237.568468 303.908074 237.111913 304.120986 237.111913 304.34296 
C 237.111913 304.564933 237.568468 304.777845 238.381025 304.934804 
C 239.193583 305.091763 240.295803 305.179954 241.444933 305.179954 
z
" style="fill:#ff0000;opacity:0.2;stroke:#ff0000;stroke-linejoin:miter;"/>
   </g>
   <g id="patch_3">
    <path clip-path="url(#p4e4de9791d)" d="M 135.28596 293.043535 
C 136.43509 293.043535 137.53731 292.955344 138.349867 292.798385 
C 139.162425 292.641426 139.618979 292.428514 139.618979 292.206541 
C 139.618979 291.984567 139.162425 291.771655 138.349867 291.614696 
C 137.53731 291.457737 136.43509 291.369546 135.28596 291.369546 
C 134.13683 291.369546 133.03461 291.457737 132.222053 291.614696 
C 131.409495 291.771655 130.952941 291.984567 130.952941 292.206541 
C 130.952941 292.428514 131.409495 292.641426 132.222053 292.798385 
C 133.03461 292.955344 134.13683 293.043535 135.28596 293.043535 
z
" style="fill:#ff0000;opacity:0.2;stroke:#ff0000;stroke-linejoin:miter;"/>
   </g>
   <g id="patch_4">
    <path clip-path="url(#p4e4de9791d)" d="M 150.451528 255.797284 
C 151.600658 255.797284 152.702877 255.709093 153.515435 255.552134 
C 154.327993 255.395175 154.784547 255.182263 154.784547 254.960289 
C 154.784547 254.738316 154.327993 254.525404 153.515435 254.368445 
C 152.702877 254.211486 151.600658 254.123295 150.451528 254.123295 
C 149.302397 254.123295 148.200178 254.211486 147.38762 254.368445 
C 146.575063 254.525404 146.118508 254.738316 146.118508 254.960289 
C 146.118508 255.182263 146.575063 255.395175 147.38762 255.552134 
C 148.200178 255.709093 149.302397 255.797284 150.451528 255.797284 
z
" style="fill:#ff0000;opacity:0.2;stroke:#ff0000;stroke-linejoin:miter;"/>
   </g>
   <g id="patch_5">
    <path clip-path="url(#p4e4de9791d)" d="M 213.280307 120.622685 
C 214.429437 120.622685 215.531657 120.534494 216.344215 120.377535 
C 217.156772 120.220576 217.613327 120.007664 217.613327 119.78569 
C 217.613327 119.563717 217.156772 119.350805 216.344215 119.193846 
C 215.531657 119.036887 214.429437 118.948696 213.280307 118.948696 
C 212.131177 118.948696 211.028958 119.036887 210.2164 119.193846 
C 209.403842 119.350805 208.947288 119.563717 208.947288 119.78569 
C 208.947288 120.007664 209.403842 120.220576 210.2164 120.377535 
C 211.028958 120.534494 212.131177 120.622685 213.280307 120.622685 
z
" style="fill:#ff0000;opacity:0.2;stroke:#ff0000;stroke-linejoin:miter;"/>
   </g>
   <g id="patch_6">
    <path clip-path="url(#p4e4de9791d)" d="M 269.609558 120.622685 
C 270.758688 120.622685 271.860908 120.534494 272.673465 120.377535 
C 273.486023 120.220576 273.942577 120.007664 273.942577 119.78569 
C 273.942577 119.563717 273.486023 119.350805 272.673465 119.193846 
C 271.860908 119.036887 270.758688 118.948696 269.609558 118.948696 
C 268.460428 118.948696 267.358208 119.036887 266.545651 119.193846 
C 265.733093 119.350805 265.276539 119.563717 265.276539 119.78569 
C 265.276539 120.007664 265.733093 120.220576 266.545651 120.377535 
C 267.358208 120.534494 268.460428 120.622685 269.609558 120.622685 
z
" style="fill:#ff0000;opacity:0.2;stroke:#ff0000;stroke-linejoin:miter;"/>
   </g>
   <g id="patch_7">
    <path clip-path="url(#p4e4de9791d)" d="M 332.438338 255.797284 
C 333.587468 255.797284 334.689687 255.709093 335.502245 255.552134 
C 336.314803 255.395175 336.771357 255.182263 336.771357 254.960289 
C 336.771357 254.738316 336.314803 254.525404 335.502245 254.368445 
C 334.689687 254.211486 333.587468 254.123295 332.438338 254.123295 
C 331.289208 254.123295 330.186988 254.211486 329.37443 254.368445 
C 328.561873 254.525404 328.105319 254.738316 328.105319 254.960289 
C 328.105319 255.182263 328.561873 255.395175 329.37443 255.552134 
C 330.186988 255.709093 331.289208 255.797284 332.438338 255.797284 
z
" style="fill:#ff0000;opacity:0.2;stroke:#ff0000;stroke-linejoin:miter;"/>
   </g>
   <g id="patch_8">
    <path clip-path="url(#p4e4de9791d)" d="M 347.603905 293.043535 
C 348.753035 293.043535 349.855255 292.955344 350.667813 292.798385 
C 351.48037 292.641426 351.936925 292.428514 351.936925 292.206541 
C 351.936925 291.984567 351.48037 291.771655 350.667813 291.614696 
C 349.855255 291.457737 348.753035 291.369546 347.603905 291.369546 
C 346.454775 291.369546 345.352556 291.457737 344.539998 291.614696 
C 343.72744 291.771655 343.270886 291.984567 343.270886 292.206541 
C 343.270886 292.428514 343.72744 292.641426 344.539998 292.798385 
C 345.352556 292.955344 346.454775 293.043535 347.603905 293.043535 
z
" style="fill:#ff0000;opacity:0.2;stroke:#ff0000;stroke-linejoin:miter;"/>
   </g>
   <g id="patch_9">
    <path clip-path="url(#p4e4de9791d)" d="M 241.444933 305.179954 
C 242.594063 305.179954 243.696282 305.091763 244.50884 304.934804 
C 245.321398 304.777845 245.777952 304.564933 245.777952 304.34296 
C 245.777952 304.120986 245.321398 303.908074 244.50884 303.751115 
C 243.696282 303.594157 242.594063 303.505966 241.444933 303.505966 
C 240.295803 303.505966 239.193583 303.594157 238.381025 303.751115 
C 237.568468 303.908074 237.111913 304.120986 237.111913 304.34296 
C 237.111913 304.564933 237.568468 304.777845 238.381025 304.934804 
C 239.193583 305.091763 240.295803 305.179954 241.444933 305.179954 
z
" style="fill:#0000ff;opacity:0.2;stroke:#0000ff;stroke-linejoin:miter;"/>
   </g>
   <g id="patch_10">
    <path clip-path="url(#p4e4de9791d)" d="M 68.124161 287.184574 
C 69.273291 287.184574 70.375511 287.096383 71.188068 286.939424 
C 72.000626 286.782465 72.45718 286.569553 72.45718 286.34758 
C 72.45718 286.125606 72.000626 285.912694 71.188068 285.755735 
C 70.375511 285.598776 69.273291 285.510585 68.124161 285.510585 
C 66.975031 285.510585 65.872811 285.598776 65.060254 285.755735 
C 64.247696 285.912694 63.791142 286.125606 63.791142 286.34758 
C 63.791142 286.569553 64.247696 286.782465 65.060254 286.939424 
C 65.872811 287.096383 66.975031 287.184574 68.124161 287.184574 
z
" style="fill:#0000ff;opacity:0.2;stroke:#0000ff;stroke-linejoin:miter;"/>
   </g>
   <g id="patch_11">
    <path clip-path="url(#p4e4de9791d)" d="M 102.788315 238.220401 
C 103.937445 238.220401 105.039665 238.13221 105.852223 237.975251 
C 106.66478 237.818292 107.121335 237.60538 107.121335 237.383406 
C 107.121335 237.161433 106.66478 236.948521 105.852223 236.791562 
C 105.039665 236.634603 103.937445 236.546412 102.788315 236.546412 
C 101.639185 236.546412 100.536966 236.634603 99.724408 236.791562 
C 98.91185 236.948521 98.455296 237.161433 98.455296 237.383406 
C 98.455296 237.60538 98.91185 237.818292 99.724408 237.975251 
C 100.536966 238.13221 101.639185 238.220401 102.788315 238.220401 
z
" style="fill:#0000ff;opacity:0.2;stroke:#0000ff;stroke-linejoin:miter;"/>
   </g>
   <g id="patch_12">
    <path clip-path="url(#p4e4de9791d)" d="M 193.78172 120.622685 
C 194.930851 120.622685 196.03307 120.534494 196.845628 120.377535 
C 197.658186 120.220576 198.11474 120.007664 198.11474 119.78569 
C 198.11474 119.563717 197.658186 119.350805 196.845628 119.193846 
C 196.03307 119.036887 194.930851 118.948696 193.78172 118.948696 
C 192.63259 118.948696 191.530371 119.036887 190.717813 119.193846 
C 189.905255 119.350805 189.448701 119.563717 189.448701 119.78569 
C 189.448701 120.007664 189.905255 120.220576 190.717813 120.377535 
C 191.530371 120.534494 192.63259 120.622685 193.78172 120.622685 
z
" style="fill:#0000ff;opacity:0.2;stroke:#0000ff;stroke-linejoin:miter;"/>
   </g>
   <g id="patch_13">
    <path clip-path="url(#p4e4de9791d)" d="M 289.108145 120.622685 
C 290.257275 120.622685 291.359494 120.534494 292.172052 120.377535 
C 292.98461 120.220576 293.441164 120.007664 293.441164 119.78569 
C 293.441164 119.563717 292.98461 119.350805 292.172052 119.193846 
C 291.359494 119.036887 290.257275 118.948696 289.108145 118.948696 
C 287.959015 118.948696 286.856795 119.036887 286.044238 119.193846 
C 285.23168 119.350805 284.775126 119.563717 284.775126 119.78569 
C 284.775126 120.007664 285.23168 120.220576 286.044238 120.377535 
C 286.856795 120.534494 287.959015 120.622685 289.108145 120.622685 
z
" style="fill:#0000ff;opacity:0.2;stroke:#0000ff;stroke-linejoin:miter;"/>
   </g>
   <g id="patch_14">
    <path clip-path="url(#p4e4de9791d)" d="M 380.10155 238.220401 
C 381.25068 238.220401 382.3529 238.13221 383.165457 237.975251 
C 383.978015 237.818292 384.434569 237.60538 384.434569 237.383406 
C 384.434569 237.161433 383.978015 236.948521 383.165457 236.791562 
C 382.3529 236.634603 381.25068 236.546412 380.10155 236.546412 
C 378.95242 236.546412 377.8502 236.634603 377.037643 236.791562 
C 376.225085 236.948521 375.768531 237.161433 375.768531 237.383406 
C 375.768531 237.60538 376.225085 237.818292 377.037643 237.975251 
C 377.8502 238.13221 378.95242 238.220401 380.10155 238.220401 
z
" style="fill:#0000ff;opacity:0.2;stroke:#0000ff;stroke-linejoin:miter;"/>
   </g>
   <g id="patch_15">
    <path clip-path="url(#p4e4de9791d)" d="M 414.765704 287.184574 
C 415.914834 287.184574 417.017054 287.096383 417.829612 286.939424 
C 418.642169 286.782465 419.098724 286.569553 419.098724 286.34758 
C 419.098724 286.125606 418.642169 285.912694 417.829612 285.755735 
C 417.017054 285.598776 415.914834 285.510585 414.765704 285.510585 
C 413.616574 285.510585 412.514355 285.598776 411.701797 285.755735 
C 410.889239 285.912694 410.432685 286.125606 410.432685 286.34758 
C 410.432685 286.569553 410.889239 286.782465 411.701797 286.939424 
C 412.514355 287.096383 413.616574 287.184574 414.765704 287.184574 
z
" style="fill:#0000ff;opacity:0.2;stroke:#0000ff;stroke-linejoin:miter;"/>
   </g>
   <g id="patch_16">
    <path clip-path="url(#p4e4de9791d)" d="M 241.444933 304.34296 
C 172.116624 304.34296 135.28596 302.668971 135.28596 292.206541 
C 135.28596 285.929083 139.618979 277.140641 150.451528 254.960289 
L 213.280307 119.78569 
C 226.279365 117.274707 258.77701 117.274707 269.609558 119.78569 
L 332.438338 254.960289 
C 343.270886 277.140641 347.603905 285.929083 347.603905 292.206541 
C 347.603905 302.668971 310.773241 304.34296 241.444933 304.34296 
" style="fill:none;stroke:#ff0000;stroke-linejoin:miter;stroke-width:0.5;"/>
   </g>
   <g id="patch_17">
    <path clip-path="url(#p4e4de9791d)" d="M 241.444933 304.34296 
C 128.786431 304.34296 68.124161 300.576485 68.124161 286.34758 
C 68.124161 279.651625 81.123219 266.678211 102.788315 237.383406 
L 193.78172 119.78569 
C 219.779836 116.437713 263.110029 116.437713 289.108145 119.78569 
L 380.10155 237.383406 
C 401.766646 266.678211 414.765704 279.651625 414.765704 286.34758 
C 414.765704 300.576485 354.103434 304.34296 241.444933 304.34296 
" style="fill:none;stroke:#0000ff;stroke-linejoin:miter;stroke-width:0.5;"/>
   </g>
   <g id="patch_18">
    <path clip-path="url(#p4e4de9791d)" d="M 241.444933 306.853943 
C 244.892323 306.853943 248.198981 306.58937 250.636655 306.118493 
C 253.074328 305.647616 254.443991 305.00888 254.443991 304.34296 
C 254.443991 303.677039 253.074328 303.038304 250.636655 302.567427 
C 248.198981 302.09655 244.892323 301.831977 241.444933 301.831977 
C 237.997542 301.831977 234.690884 302.09655 232.253211 302.567427 
C 229.815538 303.038304 228.445875 303.677039 228.445875 304.34296 
C 228.445875 305.00888 229.815538 305.647616 232.253211 306.118493 
C 234.690884 306.58937 237.997542 306.853943 241.444933 306.853943 
z
" style="fill:#0000ff;opacity:0.2;stroke:#0000ff;stroke-linejoin:miter;"/>
   </g>
   <g id="patch_19">
    <path clip-path="url(#p4e4de9791d)" d="M 241.444933 306.853943 
C 244.892323 306.853943 248.198981 306.58937 250.636655 306.118493 
C 253.074328 305.647616 254.443991 305.00888 254.443991 304.34296 
C 254.443991 303.677039 253.074328 303.038304 250.636655 302.567427 
C 248.198981 302.09655 244.892323 301.831977 241.444933 301.831977 
C 237.997542 301.831977 234.690884 302.09655 232.253211 302.567427 
C 229.815538 303.038304 228.445875 303.677039 228.445875 304.34296 
C 228.445875 305.00888 229.815538 305.647616 232.253211 306.118493 
C 234.690884 306.58937 237.997542 306.853943 241.444933 306.853943 
z
" style="fill:#ff0000;opacity:0.2;stroke:#ff0000;stroke-linejoin:miter;"/>
   </g>
   <g id="patch_20">
    <path d="M 241.444933 304.34296 
Q 241.444933 304.34296 241.444933 304.34296 
" style="fill:none;opacity:0.5;stroke:#0000ff;stroke-linecap:round;stroke-width:3;"/>
   </g>
   <g id="patch_21">
    <path clip-path="url(#p4e4de9791d)" d="M 135.28596 294.089778 
C 137.871503 294.089778 140.351497 293.891348 142.179752 293.538191 
C 144.008006 293.185033 145.035253 292.705981 145.035253 292.206541 
C 145.035253 291.7071 144.008006 291.228049 142.179752 290.874891 
C 140.351497 290.521733 137.871503 290.323303 135.28596 290.323303 
C 132.700417 290.323303 130.220423 290.521733 128.392169 290.874891 
C 126.563914 291.228049 125.536667 291.7071 125.536667 292.206541 
C 125.536667 292.705981 126.563914 293.185033 128.392169 293.538191 
C 130.220423 293.891348 132.700417 294.089778 135.28596 294.089778 
z
" style="fill:#0000ff;opacity:0.2;stroke:#0000ff;stroke-linejoin:miter;"/>
   </g>
   <g id="patch_22">
    <path clip-path="url(#p4e4de9791d)" d="M 68.124161 288.230817 
C 70.709704 288.230817 73.189698 288.032388 75.017952 287.67923 
C 76.846207 287.326072 77.873454 286.84702 77.873454 286.34758 
C 77.873454 285.848139 76.846207 285.369088 75.017952 285.01593 
C 73.189698 284.662772 70.709704 284.464342 68.124161 284.464342 
C 65.538618 284.464342 63.058624 284.662772 61.23037 285.01593 
C 59.402115 285.369088 58.374868 285.848139 58.374868 286.34758 
C 58.374868 286.84702 59.402115 287.326072 61.23037 287.67923 
C 63.058624 288.032388 65.538618 288.230817 68.124161 288.230817 
z
" style="fill:#ff0000;opacity:0.2;stroke:#ff0000;stroke-linejoin:miter;"/>
   </g>
   <g id="patch_23">
    <path d="M 135.28596 292.206541 
Q 102.703223 289.364137 71.705457 286.66 
" style="fill:none;opacity:0.5;stroke:#0000ff;stroke-linecap:round;stroke-width:2.25;"/>
    <path d="M 73.069422 288.284684 
L 71.705457 286.66 
L 73.330142 285.296035 
" style="fill:none;opacity:0.5;stroke:#0000ff;stroke-linecap:round;stroke-width:2.25;"/>
   </g>
   <g id="patch_24">
    <path clip-path="url(#p4e4de9791d)" d="M 150.451528 256.634278 
C 152.749788 256.634278 154.954227 256.457896 156.579342 256.143978 
C 158.204458 255.83006 159.117566 255.404236 159.117566 254.960289 
C 159.117566 254.516342 158.204458 254.090518 156.579342 253.7766 
C 154.954227 253.462682 152.749788 253.2863 150.451528 253.2863 
C 148.153267 253.2863 145.948828 253.462682 144.323713 253.7766 
C 142.698597 254.090518 141.785489 254.516342 141.785489 254.960289 
C 141.785489 255.404236 142.698597 255.83006 144.323713 256.143978 
C 145.948828 256.457896 148.153267 256.634278 150.451528 256.634278 
z
" style="fill:#0000ff;opacity:0.2;stroke:#0000ff;stroke-linejoin:miter;"/>
   </g>
   <g id="patch_25">
    <path clip-path="url(#p4e4de9791d)" d="M 102.788315 239.057395 
C 105.086576 239.057395 107.291015 238.881013 108.91613 238.567095 
C 110.541245 238.253177 111.454354 237.827353 111.454354 237.383406 
C 111.454354 236.939459 110.541245 236.513635 108.91613 236.199717 
C 107.291015 235.885799 105.086576 235.709417 102.788315 235.709417 
C 100.490055 235.709417 98.285616 235.885799 96.660501 236.199717 
C 95.035385 236.513635 94.122277 236.939459 94.122277 237.383406 
C 94.122277 237.827353 95.035385 238.253177 96.660501 238.567095 
C 98.285616 238.881013 100.490055 239.057395 102.788315 239.057395 
z
" style="fill:#ff0000;opacity:0.2;stroke:#ff0000;stroke-linejoin:miter;"/>
   </g>
   <g id="patch_26">
    <path d="M 150.451528 254.960289 
Q 127.558116 246.517828 105.991571 238.564679 
" style="fill:none;opacity:0.5;stroke:#0000ff;stroke-linecap:round;stroke-width:2;"/>
    <path d="M 106.879932 240.491027 
L 105.991571 238.564679 
L 107.917919 237.676319 
" style="fill:none;opacity:0.5;stroke:#0000ff;stroke-linecap:round;stroke-width:2;"/>
   </g>
   <g id="patch_27">
    <path clip-path="url(#p4e4de9791d)" d="M 213.280307 122.087425 
C 216.440415 122.087425 219.471519 121.8449 221.706052 121.413262 
C 223.940586 120.981625 225.19611 120.396117 225.19611 119.78569 
C 225.19611 119.175263 223.940586 118.589755 221.706052 118.158118 
C 219.471519 117.726481 216.440415 117.483956 213.280307 117.483956 
C 210.120199 117.483956 207.089096 117.726481 204.854562 118.158118 
C 202.620028 118.589755 201.364504 119.175263 201.364504 119.78569 
C 201.364504 120.396117 202.620028 120.981625 204.854562 121.413262 
C 207.089096 121.8449 210.120199 122.087425 213.280307 122.087425 
z
" style="fill:#0000ff;opacity:0.2;stroke:#0000ff;stroke-linejoin:miter;"/>
   </g>
   <g id="patch_28">
    <path clip-path="url(#p4e4de9791d)" d="M 193.78172 122.087425 
C 196.941828 122.087425 199.972932 121.8449 202.207466 121.413262 
C 204.441999 120.981625 205.697524 120.396117 205.697524 119.78569 
C 205.697524 119.175263 204.441999 118.589755 202.207466 118.158118 
C 199.972932 117.726481 196.941828 117.483956 193.78172 117.483956 
C 190.621613 117.483956 187.590509 117.726481 185.355975 118.158118 
C 183.121442 118.589755 181.865917 119.175263 181.865917 119.78569 
C 181.865917 120.396117 183.121442 120.981625 185.355975 121.413262 
C 187.590509 121.8449 190.621613 122.087425 193.78172 122.087425 
z
" style="fill:#ff0000;opacity:0.2;stroke:#ff0000;stroke-linejoin:miter;"/>
   </g>
   <g id="patch_29">
    <path d="M 213.280307 119.78569 
Q 204.533077 119.78569 197.730391 119.78569 
" style="fill:none;opacity:0.5;stroke:#0000ff;stroke-linecap:round;stroke-width:2.75;"/>
    <path d="M 199.230391 121.28569 
L 197.730391 119.78569 
L 199.230391 118.28569 
" style="fill:none;opacity:0.5;stroke:#0000ff;stroke-linecap:round;stroke-width:2.75;"/>
   </g>
   <g id="patch_30">
    <path clip-path="url(#p4e4de9791d)" d="M 269.609558 121.25043 
C 271.620536 121.25043 273.54942 121.096096 274.971396 120.821418 
C 276.393372 120.54674 277.192342 120.174144 277.192342 119.78569 
C 277.192342 119.397237 276.393372 119.024641 274.971396 118.749963 
C 273.54942 118.475284 271.620536 118.32095 269.609558 118.32095 
C 267.59858 118.32095 265.669696 118.475284 264.24772 118.749963 
C 262.825744 119.024641 262.026774 119.397237 262.026774 119.78569 
C 262.026774 120.174144 262.825744 120.54674 264.24772 120.821418 
C 265.669696 121.096096 267.59858 121.25043 269.609558 121.25043 
z
" style="fill:#0000ff;opacity:0.2;stroke:#0000ff;stroke-linejoin:miter;"/>
   </g>
   <g id="patch_31">
    <path clip-path="url(#p4e4de9791d)" d="M 289.108145 121.25043 
C 291.119123 121.25043 293.048007 121.096096 294.469983 120.821418 
C 295.891959 120.54674 296.690929 120.174144 296.690929 119.78569 
C 296.690929 119.397237 295.891959 119.024641 294.469983 118.749963 
C 293.048007 118.475284 291.119123 118.32095 289.108145 118.32095 
C 287.097167 118.32095 285.168283 118.475284 283.746307 118.749963 
C 282.324331 119.024641 281.525361 119.397237 281.525361 119.78569 
C 281.525361 120.174144 282.324331 120.54674 283.746307 120.821418 
C 285.168283 121.096096 287.097167 121.25043 289.108145 121.25043 
z
" style="fill:#ff0000;opacity:0.2;stroke:#ff0000;stroke-linejoin:miter;"/>
   </g>
   <g id="patch_32">
    <path d="M 269.609558 119.78569 
Q 278.356788 119.78569 285.866581 119.78569 
" style="fill:none;opacity:0.5;stroke:#0000ff;stroke-linecap:round;stroke-width:1.75;"/>
    <path d="M 284.366581 118.28569 
L 285.866581 119.78569 
L 284.366581 121.28569 
" style="fill:none;opacity:0.5;stroke:#0000ff;stroke-linecap:round;stroke-width:1.75;"/>
   </g>
   <g id="patch_33">
    <path clip-path="url(#p4e4de9791d)" d="M 332.438338 257.88977 
C 336.460293 257.88977 340.318061 257.581101 343.162013 257.031745 
C 346.005965 256.482388 347.603905 255.737196 347.603905 254.960289 
C 347.603905 254.183382 346.005965 253.43819 343.162013 252.888834 
C 340.318061 252.339477 336.460293 252.030809 332.438338 252.030809 
C 328.416382 252.030809 324.558614 252.339477 321.714662 252.888834 
C 318.87071 253.43819 317.27277 254.183382 317.27277 254.960289 
C 317.27277 255.737196 318.87071 256.482388 321.714662 257.031745 
C 324.558614 257.581101 328.416382 257.88977 332.438338 257.88977 
z
" style="fill:#0000ff;opacity:0.2;stroke:#0000ff;stroke-linejoin:miter;"/>
   </g>
   <g id="patch_34">
    <path clip-path="url(#p4e4de9791d)" d="M 380.10155 240.312887 
C 384.123506 240.312887 387.981274 240.004218 390.825226 239.454862 
C 393.669178 238.905505 395.267118 238.160314 395.267118 237.383406 
C 395.267118 236.606499 393.669178 235.861307 390.825226 235.311951 
C 387.981274 234.762594 384.123506 234.453926 380.10155 234.453926 
C 376.079594 234.453926 372.221826 234.762594 369.377874 235.311951 
C 366.533922 235.861307 364.935982 236.606499 364.935982 237.383406 
C 364.935982 238.160314 366.533922 238.905505 369.377874 239.454862 
C 372.221826 240.004218 376.079594 240.312887 380.10155 240.312887 
z
" style="fill:#ff0000;opacity:0.2;stroke:#ff0000;stroke-linejoin:miter;"/>
   </g>
   <g id="patch_35">
    <path d="M 332.438338 254.960289 
Q 355.331749 246.517828 375.903144 238.931663 
" style="fill:none;opacity:0.5;stroke:#0000ff;stroke-linecap:round;stroke-width:3.5;"/>
    <path d="M 373.976797 238.043302 
L 375.903144 238.931663 
L 375.014784 240.858011 
" style="fill:none;opacity:0.5;stroke:#0000ff;stroke-linecap:round;stroke-width:3.5;"/>
   </g>
   <g id="patch_36">
    <path clip-path="url(#p4e4de9791d)" d="M 347.603905 294.508275 
C 350.764013 294.508275 353.795117 294.26575 356.02965 293.834113 
C 358.264184 293.402476 359.519708 292.816968 359.519708 292.206541 
C 359.519708 291.596114 358.264184 291.010606 356.02965 290.578969 
C 353.795117 290.147331 350.764013 289.904806 347.603905 289.904806 
C 344.443797 289.904806 341.412694 290.147331 339.17816 290.578969 
C 336.943626 291.010606 335.688102 291.596114 335.688102 292.206541 
C 335.688102 292.816968 336.943626 293.402476 339.17816 293.834113 
C 341.412694 294.26575 344.443797 294.508275 347.603905 294.508275 
z
" style="fill:#0000ff;opacity:0.2;stroke:#0000ff;stroke-linejoin:miter;"/>
   </g>
   <g id="patch_37">
    <path clip-path="url(#p4e4de9791d)" d="M 414.765704 288.649315 
C 417.925812 288.649315 420.956916 288.406789 423.191449 287.975152 
C 425.425983 287.543515 426.681507 286.958007 426.681507 286.34758 
C 426.681507 285.737153 425.425983 285.151645 423.191449 284.720008 
C 420.956916 284.288371 417.925812 284.045845 414.765704 284.045845 
C 411.605596 284.045845 408.574493 284.288371 406.339959 284.720008 
C 404.105425 285.151645 402.849901 285.737153 402.849901 286.34758 
C 402.849901 286.958007 404.105425 287.543515 406.339959 287.975152 
C 408.574493 288.406789 411.605596 288.649315 414.765704 288.649315 
z
" style="fill:#ff0000;opacity:0.2;stroke:#ff0000;stroke-linejoin:miter;"/>
   </g>
   <g id="patch_38">
    <path d="M 347.603905 292.206541 
Q 380.186642 289.364137 410.832192 286.690726 
" style="fill:none;opacity:0.5;stroke:#0000ff;stroke-linecap:round;stroke-width:2.75;"/>
    <path d="M 409.207508 285.326761 
L 410.832192 286.690726 
L 409.468227 288.31541 
" style="fill:none;opacity:0.5;stroke:#0000ff;stroke-linecap:round;stroke-width:2.75;"/>
   </g>
   <g id="patch_39">
    <path clip-path="url(#p4e4de9791d)" d="M 241.444933 306.853943 
C 244.892323 306.853943 248.198981 306.58937 250.636655 306.118493 
C 253.074328 305.647616 254.443991 305.00888 254.443991 304.34296 
C 254.443991 303.677039 253.074328 303.038304 250.636655 302.567427 
C 248.198981 302.09655 244.892323 301.831977 241.444933 301.831977 
C 237.997542 301.831977 234.690884 302.09655 232.253211 302.567427 
C 229.815538 303.038304 228.445875 303.677039 228.445875 304.34296 
C 228.445875 305.00888 229.815538 305.647616 232.253211 306.118493 
C 234.690884 306.58937 237.997542 306.853943 241.444933 306.853943 
z
" style="fill:#0000ff;opacity:0.2;stroke:#0000ff;stroke-linejoin:miter;"/>
   </g>
   <g id="patch_40">
    <path clip-path="url(#p4e4de9791d)" d="M 241.444933 306.853943 
C 244.892323 306.853943 248.198981 306.58937 250.636655 306.118493 
C 253.074328 305.647616 254.443991 305.00888 254.443991 304.34296 
C 254.443991 303.677039 253.074328 303.038304 250.636655 302.567427 
C 248.198981 302.09655 244.892323 301.831977 241.444933 301.831977 
C 237.997542 301.831977 234.690884 302.09655 232.253211 302.567427 
C 229.815538 303.038304 228.445875 303.677039 228.445875 304.34296 
C 228.445875 305.00888 229.815538 305.647616 232.253211 306.118493 
C 234.690884 306.58937 237.997542 306.853943 241.444933 306.853943 
z
" style="fill:#ff0000;opacity:0.2;stroke:#ff0000;stroke-linejoin:miter;"/>
   </g>
   <g id="patch_41">
    <path d="M 241.444933 304.34296 
Q 241.444933 304.34296 241.444933 304.34296 
" style="fill:none;opacity:0.5;stroke:#ff0000;stroke-linecap:round;stroke-width:3;"/>
   </g>
   <g id="patch_42">
    <path clip-path="url(#p4e4de9791d)" d="M 68.124161 288.649315 
C 71.284269 288.649315 74.315372 288.406789 76.549906 287.975152 
C 78.78444 287.543515 80.039964 286.958007 80.039964 286.34758 
C 80.039964 285.737153 78.78444 285.151645 76.549906 284.720008 
C 74.315372 284.288371 71.284269 284.045845 68.124161 284.045845 
C 64.964053 284.045845 61.93295 284.288371 59.698416 284.720008 
C 57.463882 285.151645 56.208358 285.737153 56.208358 286.34758 
C 56.208358 286.958007 57.463882 287.543515 59.698416 287.975152 
C 61.93295 288.406789 64.964053 288.649315 68.124161 288.649315 
z
" style="fill:#0000ff;opacity:0.2;stroke:#0000ff;stroke-linejoin:miter;"/>
   </g>
   <g id="patch_43">
    <path clip-path="url(#p4e4de9791d)" d="M 135.28596 294.508275 
C 138.446068 294.508275 141.477171 294.26575 143.711705 293.834113 
C 145.946239 293.402476 147.201763 292.816968 147.201763 292.206541 
C 147.201763 291.596114 145.946239 291.010606 143.711705 290.578969 
C 141.477171 290.147331 138.446068 289.904806 135.28596 289.904806 
C 132.125852 289.904806 129.094749 290.147331 126.860215 290.578969 
C 124.625681 291.010606 123.370157 291.596114 123.370157 292.206541 
C 123.370157 292.816968 124.625681 293.402476 126.860215 293.834113 
C 129.094749 294.26575 132.125852 294.508275 135.28596 294.508275 
z
" style="fill:#ff0000;opacity:0.2;stroke:#ff0000;stroke-linejoin:miter;"/>
   </g>
   <g id="patch_44">
    <path d="M 68.124161 286.34758 
Q 100.706898 289.189984 131.352448 291.863395 
" style="fill:none;opacity:0.5;stroke:#ff0000;stroke-linecap:round;stroke-width:2.75;"/>
    <path d="M 129.988483 290.238711 
L 131.352448 291.863395 
L 129.727764 293.22736 
" style="fill:none;opacity:0.5;stroke:#ff0000;stroke-linecap:round;stroke-width:2.75;"/>
   </g>
   <g id="patch_45">
    <path clip-path="url(#p4e4de9791d)" d="M 102.788315 239.266644 
C 105.373858 239.266644 107.853852 239.068214 109.682107 238.715056 
C 111.510362 238.361899 112.537609 237.882847 112.537609 237.383406 
C 112.537609 236.883966 111.510362 236.404914 109.682107 236.051756 
C 107.853852 235.698599 105.373858 235.500169 102.788315 235.500169 
C 100.202773 235.500169 97.722779 235.698599 95.894524 236.051756 
C 94.066269 236.404914 93.039022 236.883966 93.039022 237.383406 
C 93.039022 237.882847 94.066269 238.361899 95.894524 238.715056 
C 97.722779 239.068214 100.202773 239.266644 102.788315 239.266644 
z
" style="fill:#0000ff;opacity:0.2;stroke:#0000ff;stroke-linejoin:miter;"/>
   </g>
   <g id="patch_46">
    <path clip-path="url(#p4e4de9791d)" d="M 150.451528 256.843527 
C 153.03707 256.843527 155.517064 256.645097 157.345319 256.291939 
C 159.173574 255.938781 160.200821 255.45973 160.200821 254.960289 
C 160.200821 254.460849 159.173574 253.981797 157.345319 253.628639 
C 155.517064 253.275481 153.03707 253.077052 150.451528 253.077052 
C 147.865985 253.077052 145.385991 253.275481 143.557736 253.628639 
C 141.729481 253.981797 140.702234 254.460849 140.702234 254.960289 
C 140.702234 255.45973 141.729481 255.938781 143.557736 256.291939 
C 145.385991 256.645097 147.865985 256.843527 150.451528 256.843527 
z
" style="fill:#ff0000;opacity:0.2;stroke:#ff0000;stroke-linejoin:miter;"/>
   </g>
   <g id="patch_47">
    <path d="M 102.788315 237.383406 
Q 125.681727 245.825867 147.082413 253.717852 
" style="fill:none;opacity:0.5;stroke:#ff0000;stroke-linecap:round;stroke-width:2.25;"/>
    <path d="M 146.194053 251.791505 
L 147.082413 253.717852 
L 145.156065 254.606213 
" style="fill:none;opacity:0.5;stroke:#ff0000;stroke-linecap:round;stroke-width:2.25;"/>
   </g>
   <g id="patch_48">
    <path clip-path="url(#p4e4de9791d)" d="M 193.78172 122.087425 
C 196.941828 122.087425 199.972932 121.8449 202.207466 121.413262 
C 204.441999 120.981625 205.697524 120.396117 205.697524 119.78569 
C 205.697524 119.175263 204.441999 118.589755 202.207466 118.158118 
C 199.972932 117.726481 196.941828 117.483956 193.78172 117.483956 
C 190.621613 117.483956 187.590509 117.726481 185.355975 118.158118 
C 183.121442 118.589755 181.865917 119.175263 181.865917 119.78569 
C 181.865917 120.396117 183.121442 120.981625 185.355975 121.413262 
C 187.590509 121.8449 190.621613 122.087425 193.78172 122.087425 
z
" style="fill:#0000ff;opacity:0.2;stroke:#0000ff;stroke-linejoin:miter;"/>
   </g>
   <g id="patch_49">
    <path clip-path="url(#p4e4de9791d)" d="M 213.280307 122.087425 
C 216.440415 122.087425 219.471519 121.8449 221.706052 121.413262 
C 223.940586 120.981625 225.19611 120.396117 225.19611 119.78569 
C 225.19611 119.175263 223.940586 118.589755 221.706052 118.158118 
C 219.471519 117.726481 216.440415 117.483956 213.280307 117.483956 
C 210.120199 117.483956 207.089096 117.726481 204.854562 118.158118 
C 202.620028 118.589755 201.364504 119.175263 201.364504 119.78569 
C 201.364504 120.396117 202.620028 120.981625 204.854562 121.413262 
C 207.089096 121.8449 210.120199 122.087425 213.280307 122.087425 
z
" style="fill:#ff0000;opacity:0.2;stroke:#ff0000;stroke-linejoin:miter;"/>
   </g>
   <g id="patch_50">
    <path d="M 193.78172 119.78569 
Q 202.52895 119.78569 209.331636 119.78569 
" style="fill:none;opacity:0.5;stroke:#ff0000;stroke-linecap:round;stroke-width:2.75;"/>
    <path d="M 207.831636 118.28569 
L 209.331636 119.78569 
L 207.831636 121.28569 
" style="fill:none;opacity:0.5;stroke:#ff0000;stroke-linecap:round;stroke-width:2.75;"/>
   </g>
   <g id="patch_51">
    <path clip-path="url(#p4e4de9791d)" d="M 289.108145 121.041182 
C 290.83184 121.041182 292.485169 120.908895 293.704006 120.673457 
C 294.922842 120.438018 295.607674 120.118651 295.607674 119.78569 
C 295.607674 119.45273 294.922842 119.133362 293.704006 118.897924 
C 292.485169 118.662485 290.83184 118.530199 289.108145 118.530199 
C 287.38445 118.530199 285.73112 118.662485 284.512284 118.897924 
C 283.293447 119.133362 282.608616 119.45273 282.608616 119.78569 
C 282.608616 120.118651 283.293447 120.438018 284.512284 120.673457 
C 285.73112 120.908895 287.38445 121.041182 289.108145 121.041182 
z
" style="fill:#0000ff;opacity:0.2;stroke:#0000ff;stroke-linejoin:miter;"/>
   </g>
   <g id="patch_52">
    <path clip-path="url(#p4e4de9791d)" d="M 269.609558 121.041182 
C 271.333253 121.041182 272.986582 120.908895 274.205419 120.673457 
C 275.424256 120.438018 276.109087 120.118651 276.109087 119.78569 
C 276.109087 119.45273 275.424256 119.133362 274.205419 118.897924 
C 272.986582 118.662485 271.333253 118.530199 269.609558 118.530199 
C 267.885863 118.530199 266.232534 118.662485 265.013697 118.897924 
C 263.794861 119.133362 263.110029 119.45273 263.110029 119.78569 
C 263.110029 120.118651 263.794861 120.438018 265.013697 120.673457 
C 266.232534 120.908895 267.885863 121.041182 269.609558 121.041182 
z
" style="fill:#ff0000;opacity:0.2;stroke:#ff0000;stroke-linejoin:miter;"/>
   </g>
   <g id="patch_53">
    <path d="M 289.108145 119.78569 
Q 280.360915 119.78569 272.674345 119.78569 
" style="fill:none;opacity:0.5;stroke:#ff0000;stroke-linecap:round;stroke-width:1.5;"/>
    <path d="M 274.174345 121.28569 
L 272.674345 119.78569 
L 274.174345 118.28569 
" style="fill:none;opacity:0.5;stroke:#ff0000;stroke-linecap:round;stroke-width:1.5;"/>
   </g>
   <g id="patch_54">
    <path clip-path="url(#p4e4de9791d)" d="M 380.10155 240.103638 
C 383.836223 240.103638 387.418436 239.817017 390.059249 239.306901 
C 392.700061 238.796784 394.183863 238.10482 394.183863 237.383406 
C 394.183863 236.661992 392.700061 235.970029 390.059249 235.459912 
C 387.418436 234.949795 383.836223 234.663174 380.10155 234.663174 
C 376.366877 234.663174 372.784664 234.949795 370.143851 235.459912 
C 367.503039 235.970029 366.019237 236.661992 366.019237 237.383406 
C 366.019237 238.10482 367.503039 238.796784 370.143851 239.306901 
C 372.784664 239.817017 376.366877 240.103638 380.10155 240.103638 
z
" style="fill:#0000ff;opacity:0.2;stroke:#0000ff;stroke-linejoin:miter;"/>
   </g>
   <g id="patch_55">
    <path clip-path="url(#p4e4de9791d)" d="M 332.438338 257.680521 
C 336.173011 257.680521 339.755224 257.3939 342.396037 256.883784 
C 345.036849 256.373667 346.520651 255.681703 346.520651 254.960289 
C 346.520651 254.238875 345.036849 253.546911 342.396037 253.036795 
C 339.755224 252.526678 336.173011 252.240057 332.438338 252.240057 
C 328.703665 252.240057 325.121452 252.526678 322.480639 253.036795 
C 319.839826 253.546911 318.356025 254.238875 318.356025 254.960289 
C 318.356025 255.681703 319.839826 256.373667 322.480639 256.883784 
C 325.121452 257.3939 328.703665 257.680521 332.438338 257.680521 
z
" style="fill:#ff0000;opacity:0.2;stroke:#ff0000;stroke-linejoin:miter;"/>
   </g>
   <g id="patch_56">
    <path d="M 380.10155 237.383406 
Q 357.208139 245.825867 336.470885 253.473196 
" style="fill:none;opacity:0.5;stroke:#ff0000;stroke-linecap:round;stroke-width:3.25;"/>
    <path d="M 338.397233 254.361557 
L 336.470885 253.473196 
L 337.359246 251.546849 
" style="fill:none;opacity:0.5;stroke:#ff0000;stroke-linecap:round;stroke-width:3.25;"/>
   </g>
   <g id="patch_57">
    <path clip-path="url(#p4e4de9791d)" d="M 414.765704 289.067812 
C 418.500377 289.067812 422.082591 288.781191 424.723403 288.271074 
C 427.364216 287.760958 428.848017 287.068994 428.848017 286.34758 
C 428.848017 285.626166 427.364216 284.934202 424.723403 284.424085 
C 422.082591 283.913969 418.500377 283.627348 414.765704 283.627348 
C 411.031031 283.627348 407.448818 283.913969 404.808006 284.424085 
C 402.167193 284.934202 400.683392 285.626166 400.683392 286.34758 
C 400.683392 287.068994 402.167193 287.760958 404.808006 288.271074 
C 407.448818 288.781191 411.031031 289.067812 414.765704 289.067812 
z
" style="fill:#0000ff;opacity:0.2;stroke:#0000ff;stroke-linejoin:miter;"/>
   </g>
   <g id="patch_58">
    <path clip-path="url(#p4e4de9791d)" d="M 347.603905 294.926773 
C 351.338578 294.926773 354.920792 294.640152 357.561604 294.130035 
C 360.202417 293.619919 361.686218 292.927955 361.686218 292.206541 
C 361.686218 291.485127 360.202417 290.793163 357.561604 290.283046 
C 354.920792 289.77293 351.338578 289.486309 347.603905 289.486309 
C 343.869232 289.486309 340.287019 289.77293 337.646207 290.283046 
C 335.005394 290.793163 333.521593 291.485127 333.521593 292.206541 
C 333.521593 292.927955 335.005394 293.619919 337.646207 294.130035 
C 340.287019 294.640152 343.869232 294.926773 347.603905 294.926773 
z
" style="fill:#ff0000;opacity:0.2;stroke:#ff0000;stroke-linejoin:miter;"/>
   </g>
   <g id="patch_59">
    <path d="M 414.765704 286.34758 
Q 382.182968 289.189984 351.889633 291.832669 
" style="fill:none;opacity:0.5;stroke:#ff0000;stroke-linecap:round;stroke-width:3.25;"/>
    <path d="M 353.514317 293.196634 
L 351.889633 291.832669 
L 353.253598 290.207985 
" style="fill:none;opacity:0.5;stroke:#ff0000;stroke-linecap:round;stroke-width:3.25;"/>
   </g>
   <g id="patch_60">
    <path clip-path="url(#p4e4de9791d)" d="M 241.444933 306.435446 
C 244.317758 306.435446 247.073307 306.214968 249.104701 305.822571 
C 251.136095 305.430174 252.277481 304.897894 252.277481 304.34296 
C 252.277481 303.788026 251.136095 303.255746 249.104701 302.863349 
C 247.073307 302.470951 244.317758 302.250474 241.444933 302.250474 
C 238.572107 302.250474 235.816559 302.470951 233.785164 302.863349 
C 231.75377 303.255746 230.612384 303.788026 230.612384 304.34296 
C 230.612384 304.897894 231.75377 305.430174 233.785164 305.822571 
C 235.816559 306.214968 238.572107 306.435446 241.444933 306.435446 
z
" style="fill:#008000;opacity:0.2;stroke:#008000;stroke-linejoin:miter;"/>
   </g>
   <g id="patch_61">
    <path clip-path="url(#p4e4de9791d)" d="M 101.705061 291.369546 
C 104.577886 291.369546 107.333435 291.149069 109.364829 290.756671 
C 111.396223 290.364274 112.537609 289.831994 112.537609 289.27706 
C 112.537609 288.722127 111.396223 288.189847 109.364829 287.797449 
C 107.333435 287.405052 104.577886 287.184574 101.705061 287.184574 
C 98.832235 287.184574 96.076687 287.405052 94.045292 287.797449 
C 92.013898 288.189847 90.872512 288.722127 90.872512 289.27706 
C 90.872512 289.831994 92.013898 290.364274 94.045292 290.756671 
C 96.076687 291.149069 98.832235 291.369546 101.705061 291.369546 
z
" style="fill:#008000;opacity:0.2;stroke:#008000;stroke-linejoin:miter;"/>
   </g>
   <g id="patch_62">
    <path clip-path="url(#p4e4de9791d)" d="M 126.619921 248.264334 
C 129.492747 248.264334 132.248295 248.043856 134.27969 247.651459 
C 136.311084 247.259061 137.45247 246.726782 137.45247 246.171848 
C 137.45247 245.616914 136.311084 245.084634 134.27969 244.692237 
C 132.248295 244.299839 129.492747 244.079362 126.619921 244.079362 
C 123.747096 244.079362 120.991547 244.299839 118.960153 244.692237 
C 116.928759 245.084634 115.787373 245.616914 115.787373 246.171848 
C 115.787373 246.726782 116.928759 247.259061 118.960153 247.651459 
C 120.991547 248.043856 123.747096 248.264334 126.619921 248.264334 
z
" style="fill:#008000;opacity:0.2;stroke:#008000;stroke-linejoin:miter;"/>
   </g>
   <g id="patch_63">
    <path clip-path="url(#p4e4de9791d)" d="M 203.531014 121.878176 
C 206.403839 121.878176 209.159388 121.657699 211.190782 121.265301 
C 213.222176 120.872904 214.363562 120.340624 214.363562 119.78569 
C 214.363562 119.230756 213.222176 118.698477 211.190782 118.306079 
C 209.159388 117.913682 206.403839 117.693204 203.531014 117.693204 
C 200.658189 117.693204 197.90264 117.913682 195.871246 118.306079 
C 193.839851 118.698477 192.698466 119.230756 192.698466 119.78569 
C 192.698466 120.340624 193.839851 120.872904 195.871246 121.265301 
C 197.90264 121.657699 200.658189 121.878176 203.531014 121.878176 
z
" style="fill:#008000;opacity:0.2;stroke:#008000;stroke-linejoin:miter;"/>
   </g>
   <g id="patch_64">
    <path clip-path="url(#p4e4de9791d)" d="M 279.358851 121.878176 
C 282.231677 121.878176 284.987225 121.657699 287.01862 121.265301 
C 289.050014 120.872904 290.1914 120.340624 290.1914 119.78569 
C 290.1914 119.230756 289.050014 118.698477 287.01862 118.306079 
C 284.987225 117.913682 282.231677 117.693204 279.358851 117.693204 
C 276.486026 117.693204 273.730477 117.913682 271.699083 118.306079 
C 269.667689 118.698477 268.526303 119.230756 268.526303 119.78569 
C 268.526303 120.340624 269.667689 120.872904 271.699083 121.265301 
C 273.730477 121.657699 276.486026 121.878176 279.358851 121.878176 
z
" style="fill:#008000;opacity:0.2;stroke:#008000;stroke-linejoin:miter;"/>
   </g>
   <g id="patch_65">
    <path clip-path="url(#p4e4de9791d)" d="M 356.269944 248.264334 
C 359.142769 248.264334 361.898318 248.043856 363.929712 247.651459 
C 365.961107 247.259061 367.102492 246.726782 367.102492 246.171848 
C 367.102492 245.616914 365.961107 245.084634 363.929712 244.692237 
C 361.898318 244.299839 359.142769 244.079362 356.269944 244.079362 
C 353.397119 244.079362 350.64157 244.299839 348.610176 244.692237 
C 346.578781 245.084634 345.437396 245.616914 345.437396 246.171848 
C 345.437396 246.726782 346.578781 247.259061 348.610176 247.651459 
C 350.64157 248.043856 353.397119 248.264334 356.269944 248.264334 
z
" style="fill:#008000;opacity:0.2;stroke:#008000;stroke-linejoin:miter;"/>
   </g>
   <g id="patch_66">
    <path clip-path="url(#p4e4de9791d)" d="M 381.184805 291.369546 
C 384.05763 291.369546 386.813179 291.149069 388.844573 290.756671 
C 390.875967 290.364274 392.017353 289.831994 392.017353 289.27706 
C 392.017353 288.722127 390.875967 288.189847 388.844573 287.797449 
C 386.813179 287.405052 384.05763 287.184574 381.184805 287.184574 
C 378.311979 287.184574 375.556431 287.405052 373.525037 287.797449 
C 371.493642 288.189847 370.352257 288.722127 370.352257 289.27706 
C 370.352257 289.831994 371.493642 290.364274 373.525037 290.756671 
C 375.556431 291.149069 378.311979 291.369546 381.184805 291.369546 
z
" style="fill:#008000;opacity:0.2;stroke:#008000;stroke-linejoin:miter;"/>
   </g>
   <g id="patch_67">
    <path d="M 241.444933 304.34296 
Q 171.574997 296.81001 101.705061 289.27706 
" style="fill:none;opacity:0.5;stroke:#008000;stroke-linecap:round;stroke-width:2;"/>
   </g>
   <g id="patch_68">
    <path d="M 241.444933 304.34296 
Q 241.444933 304.34296 241.444933 304.34296 
" style="fill:none;opacity:0.5;stroke:#800080;stroke-linecap:round;stroke-width:2;"/>
   </g>
   <g id="patch_69">
    <path d="M 101.705061 289.27706 
Q 114.162491 267.724454 126.619921 246.171848 
" style="fill:none;opacity:0.5;stroke:#008000;stroke-linecap:round;stroke-width:2;"/>
   </g>
   <g id="patch_70">
    <path d="M 133.877097 292.083637 
Q 102.703223 289.364137 71.529349 286.644637 
" style="fill:none;opacity:0.5;stroke:#800080;stroke-linecap:round;stroke-width:2;"/>
    <path d="M 132.513132 290.458952 
L 133.877097 292.083637 
L 132.252413 293.447602 
" style="fill:none;opacity:0.5;stroke:#800080;stroke-linecap:round;stroke-width:2;"/>
    <path d="M 72.893314 288.269321 
L 71.529349 286.644637 
L 73.154034 285.280672 
" style="fill:none;opacity:0.5;stroke:#800080;stroke-linecap:round;stroke-width:2;"/>
   </g>
   <g id="patch_71">
    <path d="M 126.619921 246.171848 
Q 165.075468 182.978769 203.531014 119.78569 
" style="fill:none;opacity:0.5;stroke:#008000;stroke-linecap:round;stroke-width:2;"/>
   </g>
   <g id="patch_72">
    <path d="M 149.124661 254.470977 
Q 127.558116 246.517828 105.991571 238.564679 
" style="fill:none;opacity:0.5;stroke:#800080;stroke-linecap:round;stroke-width:2;"/>
    <path d="M 148.236301 252.54463 
L 149.124661 254.470977 
L 147.198314 255.359338 
" style="fill:none;opacity:0.5;stroke:#800080;stroke-linecap:round;stroke-width:2;"/>
    <path d="M 106.879932 240.491027 
L 105.991571 238.564679 
L 107.917919 237.676319 
" style="fill:none;opacity:0.5;stroke:#800080;stroke-linecap:round;stroke-width:2;"/>
   </g>
   <g id="patch_73">
    <path d="M 203.531014 119.78569 
Q 241.444933 119.78569 279.358851 119.78569 
" style="fill:none;opacity:0.5;stroke:#008000;stroke-linecap:round;stroke-width:2;"/>
   </g>
   <g id="patch_74">
    <path d="M 211.866094 119.78569 
Q 204.533077 119.78569 197.200061 119.78569 
" style="fill:none;opacity:0.5;stroke:#800080;stroke-linecap:round;stroke-width:2;"/>
    <path d="M 210.366094 118.28569 
L 211.866094 119.78569 
L 210.366094 121.28569 
" style="fill:none;opacity:0.5;stroke:#800080;stroke-linecap:round;stroke-width:2;"/>
    <path d="M 198.700061 121.28569 
L 197.200061 119.78569 
L 198.700061 118.28569 
" style="fill:none;opacity:0.5;stroke:#800080;stroke-linecap:round;stroke-width:2;"/>
   </g>
   <g id="patch_75">
    <path d="M 279.358851 119.78569 
Q 317.814398 182.978769 356.269944 246.171848 
" style="fill:none;opacity:0.5;stroke:#008000;stroke-linecap:round;stroke-width:2;"/>
   </g>
   <g id="patch_76">
    <path d="M 271.023772 119.78569 
Q 278.356788 119.78569 285.689804 119.78569 
" style="fill:none;opacity:0.5;stroke:#800080;stroke-linecap:round;stroke-width:2;"/>
    <path d="M 272.523772 121.28569 
L 271.023772 119.78569 
L 272.523772 118.28569 
" style="fill:none;opacity:0.5;stroke:#800080;stroke-linecap:round;stroke-width:2;"/>
    <path d="M 284.189804 118.28569 
L 285.689804 119.78569 
L 284.189804 121.28569 
" style="fill:none;opacity:0.5;stroke:#800080;stroke-linecap:round;stroke-width:2;"/>
   </g>
   <g id="patch_77">
    <path d="M 356.269944 246.171848 
Q 368.727374 267.724454 381.184805 289.27706 
" style="fill:none;opacity:0.5;stroke:#008000;stroke-linecap:round;stroke-width:2;"/>
   </g>
   <g id="patch_78">
    <path d="M 333.765204 254.470977 
Q 355.331749 246.517828 376.898294 238.564679 
" style="fill:none;opacity:0.5;stroke:#800080;stroke-linecap:round;stroke-width:2;"/>
    <path d="M 335.691552 255.359338 
L 333.765204 254.470977 
L 334.653565 252.54463 
" style="fill:none;opacity:0.5;stroke:#800080;stroke-linecap:round;stroke-width:2;"/>
    <path d="M 374.971946 237.676319 
L 376.898294 238.564679 
L 376.009933 240.491027 
" style="fill:none;opacity:0.5;stroke:#800080;stroke-linecap:round;stroke-width:2;"/>
   </g>
   <g id="patch_79">
    <path d="M 381.184805 289.27706 
Q 311.314869 296.81001 241.444933 304.34296 
" style="fill:none;opacity:0.5;stroke:#008000;stroke-linecap:round;stroke-width:2;"/>
   </g>
   <g id="patch_80">
    <path d="M 349.012768 292.083637 
Q 380.186642 289.364137 411.360516 286.644637 
" style="fill:none;opacity:0.5;stroke:#800080;stroke-linecap:round;stroke-width:2;"/>
    <path d="M 350.637453 293.447602 
L 349.012768 292.083637 
L 350.376733 290.458952 
" style="fill:none;opacity:0.5;stroke:#800080;stroke-linecap:round;stroke-width:2;"/>
    <path d="M 409.735832 285.280672 
L 411.360516 286.644637 
L 409.996551 288.269321 
" style="fill:none;opacity:0.5;stroke:#800080;stroke-linecap:round;stroke-width:2;"/>
   </g>
   <g id="patch_81">
    <path clip-path="url(#p4e4de9791d)" d="M 241.444933 76.680478 
C 242.594063 76.680478 243.696282 76.592287 244.50884 76.435328 
C 245.321398 76.278369 245.777952 76.065457 245.777952 75.843483 
C 245.777952 75.62151 245.321398 75.408598 244.50884 75.251639 
C 243.696282 75.09468 242.594063 75.006489 241.444933 75.006489 
C 240.295803 75.006489 239.193583 75.09468 238.381025 75.251639 
C 237.568468 75.408598 237.111913 75.62151 237.111913 75.843483 
C 237.111913 76.065457 237.568468 76.278369 238.381025 76.435328 
C 239.193583 76.592287 240.295803 76.680478 241.444933 76.680478 
z
" style="fill:#ff0000;opacity:0.2;stroke:#ff0000;stroke-linejoin:miter;"/>
   </g>
   <g id="patch_82">
    <path clip-path="url(#p4e4de9791d)" d="M 120.120393 53.663131 
C 121.269523 53.663131 122.371742 53.57494 123.1843 53.417981 
C 123.996858 53.261022 124.453412 53.04811 124.453412 52.826137 
C 124.453412 52.604163 123.996858 52.391251 123.1843 52.234292 
C 122.371742 52.077333 121.269523 51.989142 120.120393 51.989142 
C 118.971262 51.989142 117.869043 52.077333 117.056485 52.234292 
C 116.243927 52.391251 115.787373 52.604163 115.787373 52.826137 
C 115.787373 53.04811 116.243927 53.261022 117.056485 53.417981 
C 117.869043 53.57494 118.971262 53.663131 120.120393 53.663131 
z
" style="fill:#ff0000;opacity:0.2;stroke:#ff0000;stroke-linejoin:miter;"/>
   </g>
   <g id="patch_83">
    <path clip-path="url(#p4e4de9791d)" d="M 241.444933 28.971796 
C 242.594063 28.971796 243.696282 28.883605 244.50884 28.726646 
C 245.321398 28.569687 245.777952 28.356775 245.777952 28.134801 
C 245.777952 27.912828 245.321398 27.699916 244.50884 27.542957 
C 243.696282 27.385998 242.594063 27.297807 241.444933 27.297807 
C 240.295803 27.297807 239.193583 27.385998 238.381025 27.542957 
C 237.568468 27.699916 237.111913 27.912828 237.111913 28.134801 
C 237.111913 28.356775 237.568468 28.569687 238.381025 28.726646 
C 239.193583 28.883605 240.295803 28.971796 241.444933 28.971796 
z
" style="fill:#ff0000;opacity:0.2;stroke:#ff0000;stroke-linejoin:miter;"/>
   </g>
   <g id="patch_84">
    <path clip-path="url(#p4e4de9791d)" d="M 362.769473 53.663131 
C 363.918603 53.663131 365.020822 53.57494 365.83338 53.417981 
C 366.645938 53.261022 367.102492 53.04811 367.102492 52.826137 
C 367.102492 52.604163 366.645938 52.391251 365.83338 52.234292 
C 365.020822 52.077333 363.918603 51.989142 362.769473 51.989142 
C 361.620343 51.989142 360.518123 52.077333 359.705566 52.234292 
C 358.893008 52.391251 358.436454 52.604163 358.436454 52.826137 
C 358.436454 53.04811 358.893008 53.261022 359.705566 53.417981 
C 360.518123 53.57494 361.620343 53.663131 362.769473 53.663131 
z
" style="fill:#ff0000;opacity:0.2;stroke:#ff0000;stroke-linejoin:miter;"/>
   </g>
   <g id="patch_85">
    <path clip-path="url(#p4e4de9791d)" d="M 241.444933 39.434226 
C 242.594063 39.434226 243.696282 39.346035 244.50884 39.189076 
C 245.321398 39.032117 245.777952 38.819205 245.777952 38.597231 
C 245.777952 38.375258 245.321398 38.162346 244.50884 38.005387 
C 243.696282 37.848428 242.594063 37.760237 241.444933 37.760237 
C 240.295803 37.760237 239.193583 37.848428 238.381025 38.005387 
C 237.568468 38.162346 237.111913 38.375258 237.111913 38.597231 
C 237.111913 38.819205 237.568468 39.032117 238.381025 39.189076 
C 239.193583 39.346035 240.295803 39.434226 241.444933 39.434226 
z
" style="fill:#0000ff;opacity:0.2;stroke:#0000ff;stroke-linejoin:miter;"/>
   </g>
   <g id="patch_86">
    <path clip-path="url(#p4e4de9791d)" d="M 416.932214 73.3325 
C 418.081344 73.3325 419.183564 73.244309 419.996121 73.08735 
C 420.808679 72.930391 421.265233 72.717479 421.265233 72.495506 
C 421.265233 72.273532 420.808679 72.06062 419.996121 71.903661 
C 419.183564 71.746702 418.081344 71.658511 416.932214 71.658511 
C 415.783084 71.658511 414.680864 71.746702 413.868307 71.903661 
C 413.055749 72.06062 412.599195 72.273532 412.599195 72.495506 
C 412.599195 72.717479 413.055749 72.930391 413.868307 73.08735 
C 414.680864 73.244309 415.783084 73.3325 416.932214 73.3325 
z
" style="fill:#0000ff;opacity:0.2;stroke:#0000ff;stroke-linejoin:miter;"/>
   </g>
   <g id="patch_87">
    <path clip-path="url(#p4e4de9791d)" d="M 241.444933 108.067768 
C 242.594063 108.067768 243.696282 107.979577 244.50884 107.822618 
C 245.321398 107.665659 245.777952 107.452747 245.777952 107.230774 
C 245.777952 107.0088 245.321398 106.795888 244.50884 106.63893 
C 243.696282 106.481971 242.594063 106.39378 241.444933 106.39378 
C 240.295803 106.39378 239.193583 106.481971 238.381025 106.63893 
C 237.568468 106.795888 237.111913 107.0088 237.111913 107.230774 
C 237.111913 107.452747 237.568468 107.665659 238.381025 107.822618 
C 239.193583 107.979577 240.295803 108.067768 241.444933 108.067768 
z
" style="fill:#0000ff;opacity:0.2;stroke:#0000ff;stroke-linejoin:miter;"/>
   </g>
   <g id="patch_88">
    <path clip-path="url(#p4e4de9791d)" d="M 65.957651 73.3325 
C 67.106782 73.3325 68.209001 73.244309 69.021559 73.08735 
C 69.834116 72.930391 70.290671 72.717479 70.290671 72.495506 
C 70.290671 72.273532 69.834116 72.06062 69.021559 71.903661 
C 68.209001 71.746702 67.106782 71.658511 65.957651 71.658511 
C 64.808521 71.658511 63.706302 71.746702 62.893744 71.903661 
C 62.081186 72.06062 61.624632 72.273532 61.624632 72.495506 
C 61.624632 72.717479 62.081186 72.930391 62.893744 73.08735 
C 63.706302 73.244309 64.808521 73.3325 65.957651 73.3325 
z
" style="fill:#0000ff;opacity:0.2;stroke:#0000ff;stroke-linejoin:miter;"/>
   </g>
   <g id="patch_89">
    <path clip-path="url(#p4e4de9791d)" d="M 241.444933 75.843483 
C 178.616153 75.843483 120.120393 67.055042 120.120393 52.826137 
C 120.120393 38.597231 172.116624 28.134801 241.444933 28.134801 
C 315.106261 28.134801 362.769473 39.434226 362.769473 52.826137 
C 362.769473 66.218047 315.106261 75.843483 241.444933 75.843483 
" style="fill:none;stroke:#ff0000;stroke-linejoin:miter;stroke-width:0.5;"/>
   </g>
   <g id="patch_90">
    <path clip-path="url(#p4e4de9791d)" d="M 241.444933 38.597231 
C 345.437396 38.597231 416.932214 53.244634 416.932214 72.495506 
C 416.932214 90.490886 345.437396 107.230774 241.444933 107.230774 
C 143.951999 107.230774 65.957651 92.164874 65.957651 72.495506 
C 65.957651 51.989142 154.784547 38.597231 241.444933 38.597231 
" style="fill:none;stroke:#0000ff;stroke-linejoin:miter;stroke-width:0.5;"/>
   </g>
   <g id="patch_91">
    <path clip-path="url(#p4e4de9791d)" d="M 241.444933 78.145218 
C 244.605041 78.145218 247.636144 77.902693 249.870678 77.471055 
C 252.105212 77.039418 253.360736 76.45391 253.360736 75.843483 
C 253.360736 75.233056 252.105212 74.647548 249.870678 74.215911 
C 247.636144 73.784274 244.605041 73.541749 241.444933 73.541749 
C 238.284825 73.541749 235.253721 73.784274 233.019188 74.215911 
C 230.784654 74.647548 229.52913 75.233056 229.52913 75.843483 
C 229.52913 76.45391 230.784654 77.039418 233.019188 77.471055 
C 235.253721 77.902693 238.284825 78.145218 241.444933 78.145218 
z
" style="fill:#0000ff;opacity:0.2;stroke:#0000ff;stroke-linejoin:miter;"/>
   </g>
   <g id="patch_92">
    <path clip-path="url(#p4e4de9791d)" d="M 241.444933 109.532509 
C 244.605041 109.532509 247.636144 109.289983 249.870678 108.858346 
C 252.105212 108.426709 253.360736 107.841201 253.360736 107.230774 
C 253.360736 106.620347 252.105212 106.034839 249.870678 105.603202 
C 247.636144 105.171565 244.605041 104.929039 241.444933 104.929039 
C 238.284825 104.929039 235.253721 105.171565 233.019188 105.603202 
C 230.784654 106.034839 229.52913 106.620347 229.52913 107.230774 
C 229.52913 107.841201 230.784654 108.426709 233.019188 108.858346 
C 235.253721 109.289983 238.284825 109.532509 241.444933 109.532509 
z
" style="fill:#ff0000;opacity:0.2;stroke:#ff0000;stroke-linejoin:miter;"/>
   </g>
   <g id="patch_93">
    <path d="M 241.444933 75.843483 
Q 241.444933 90.539034 241.444933 103.290042 
" style="fill:none;opacity:0.5;stroke:#0000ff;stroke-linecap:round;stroke-width:2.75;"/>
    <path d="M 242.944933 101.790042 
L 241.444933 103.290042 
L 239.944933 101.790042 
" style="fill:none;opacity:0.5;stroke:#0000ff;stroke-linecap:round;stroke-width:2.75;"/>
   </g>
   <g id="patch_94">
    <path clip-path="url(#p4e4de9791d)" d="M 120.120393 55.546369 
C 123.855065 55.546369 127.437279 55.259748 130.078091 54.749631 
C 132.718904 54.239514 134.202705 53.547551 134.202705 52.826137 
C 134.202705 52.104723 132.718904 51.412759 130.078091 50.902642 
C 127.437279 50.392526 123.855065 50.105905 120.120393 50.105905 
C 116.38572 50.105905 112.803506 50.392526 110.162694 50.902642 
C 107.521881 51.412759 106.03808 52.104723 106.03808 52.826137 
C 106.03808 53.547551 107.521881 54.239514 110.162694 54.749631 
C 112.803506 55.259748 116.38572 55.546369 120.120393 55.546369 
z
" style="fill:#0000ff;opacity:0.2;stroke:#0000ff;stroke-linejoin:miter;"/>
   </g>
   <g id="patch_95">
    <path clip-path="url(#p4e4de9791d)" d="M 65.957651 75.215737 
C 69.692324 75.215737 73.274538 74.929117 75.91535 74.419 
C 78.556163 73.908883 80.039964 73.216919 80.039964 72.495506 
C 80.039964 71.774092 78.556163 71.082128 75.91535 70.572011 
C 73.274538 70.061894 69.692324 69.775274 65.957651 69.775274 
C 62.222978 69.775274 58.640765 70.061894 55.999953 70.572011 
C 53.35914 71.082128 51.875339 71.774092 51.875339 72.495506 
C 51.875339 73.216919 53.35914 73.908883 55.999953 74.419 
C 58.640765 74.929117 62.222978 75.215737 65.957651 75.215737 
z
" style="fill:#ff0000;opacity:0.2;stroke:#ff0000;stroke-linejoin:miter;"/>
   </g>
   <g id="patch_96">
    <path d="M 120.120393 52.826137 
Q 93.979531 62.319272 69.998741 71.027971 
" style="fill:none;opacity:0.5;stroke:#0000ff;stroke-linecap:round;stroke-width:3.25;"/>
    <path d="M 71.920663 71.925867 
L 69.998741 71.027971 
L 70.896637 69.10605 
" style="fill:none;opacity:0.5;stroke:#0000ff;stroke-linecap:round;stroke-width:3.25;"/>
   </g>
   <g id="patch_97">
    <path clip-path="url(#p4e4de9791d)" d="M 241.444933 30.645784 
C 244.892323 30.645784 248.198981 30.381211 250.636655 29.910335 
C 253.074328 29.439458 254.443991 28.800722 254.443991 28.134801 
C 254.443991 27.468881 253.074328 26.830145 250.636655 26.359268 
C 248.198981 25.888391 244.892323 25.623818 241.444933 25.623818 
C 237.997542 25.623818 234.690884 25.888391 232.253211 26.359268 
C 229.815538 26.830145 228.445875 27.468881 228.445875 28.134801 
C 228.445875 28.800722 229.815538 29.439458 232.253211 29.910335 
C 234.690884 30.381211 237.997542 30.645784 241.444933 30.645784 
z
" style="fill:#0000ff;opacity:0.2;stroke:#0000ff;stroke-linejoin:miter;"/>
   </g>
   <g id="patch_98">
    <path clip-path="url(#p4e4de9791d)" d="M 241.444933 41.108215 
C 244.892323 41.108215 248.198981 40.843642 250.636655 40.372765 
C 253.074328 39.901888 254.443991 39.263152 254.443991 38.597231 
C 254.443991 37.931311 253.074328 37.292575 250.636655 36.821698 
C 248.198981 36.350821 244.892323 36.086248 241.444933 36.086248 
C 237.997542 36.086248 234.690884 36.350821 232.253211 36.821698 
C 229.815538 37.292575 228.445875 37.931311 228.445875 38.597231 
C 228.445875 39.263152 229.815538 39.901888 232.253211 40.372765 
C 234.690884 40.843642 237.997542 41.108215 241.444933 41.108215 
z
" style="fill:#ff0000;opacity:0.2;stroke:#ff0000;stroke-linejoin:miter;"/>
   </g>
   <g id="patch_99">
    <path d="M 241.444933 28.134801 
Q 241.444933 32.366006 241.444933 34.475891 
" style="fill:none;opacity:0.5;stroke:#0000ff;stroke-linecap:round;stroke-width:3;"/>
    <path d="M 242.944933 32.975891 
L 241.444933 34.475891 
L 239.944933 32.975891 
" style="fill:none;opacity:0.5;stroke:#0000ff;stroke-linecap:round;stroke-width:3;"/>
   </g>
   <g id="patch_100">
    <path clip-path="url(#p4e4de9791d)" d="M 362.769473 55.33712 
C 366.216863 55.33712 369.523522 55.072547 371.961195 54.60167 
C 374.398868 54.130793 375.768531 53.492057 375.768531 52.826137 
C 375.768531 52.160216 374.398868 51.52148 371.961195 51.050603 
C 369.523522 50.579726 366.216863 50.315153 362.769473 50.315153 
C 359.322082 50.315153 356.015424 50.579726 353.577751 51.050603 
C 351.140078 51.52148 349.770415 52.160216 349.770415 52.826137 
C 349.770415 53.492057 351.140078 54.130793 353.577751 54.60167 
C 356.015424 55.072547 359.322082 55.33712 362.769473 55.33712 
z
" style="fill:#0000ff;opacity:0.2;stroke:#0000ff;stroke-linejoin:miter;"/>
   </g>
   <g id="patch_101">
    <path clip-path="url(#p4e4de9791d)" d="M 416.932214 75.006489 
C 420.379604 75.006489 423.686263 74.741916 426.123936 74.271039 
C 428.561609 73.800162 429.931272 73.161426 429.931272 72.495506 
C 429.931272 71.829585 428.561609 71.190849 426.123936 70.719972 
C 423.686263 70.249095 420.379604 69.984522 416.932214 69.984522 
C 413.484824 69.984522 410.178165 70.249095 407.740492 70.719972 
C 405.302819 71.190849 403.933156 71.829585 403.933156 72.495506 
C 403.933156 73.161426 405.302819 73.800162 407.740492 74.271039 
C 410.178165 74.741916 413.484824 75.006489 416.932214 75.006489 
z
" style="fill:#ff0000;opacity:0.2;stroke:#ff0000;stroke-linejoin:miter;"/>
   </g>
   <g id="patch_102">
    <path d="M 362.769473 52.826137 
Q 388.910334 62.319272 413.057284 71.088312 
" style="fill:none;opacity:0.5;stroke:#0000ff;stroke-linecap:round;stroke-width:3;"/>
    <path d="M 412.159388 69.166391 
L 413.057284 71.088312 
L 411.135362 71.986209 
" style="fill:none;opacity:0.5;stroke:#0000ff;stroke-linecap:round;stroke-width:3;"/>
   </g>
   <g id="patch_103">
    <path clip-path="url(#p4e4de9791d)" d="M 241.444933 40.898966 
C 244.605041 40.898966 247.636144 40.656441 249.870678 40.224804 
C 252.105212 39.793166 253.360736 39.207659 253.360736 38.597231 
C 253.360736 37.986804 252.105212 37.401296 249.870678 36.969659 
C 247.636144 36.538022 244.605041 36.295497 241.444933 36.295497 
C 238.284825 36.295497 235.253721 36.538022 233.019188 36.969659 
C 230.784654 37.401296 229.52913 37.986804 229.52913 38.597231 
C 229.52913 39.207659 230.784654 39.793166 233.019188 40.224804 
C 235.253721 40.656441 238.284825 40.898966 241.444933 40.898966 
z
" style="fill:#0000ff;opacity:0.2;stroke:#0000ff;stroke-linejoin:miter;"/>
   </g>
   <g id="patch_104">
    <path clip-path="url(#p4e4de9791d)" d="M 241.444933 30.436536 
C 244.605041 30.436536 247.636144 30.194011 249.870678 29.762373 
C 252.105212 29.330736 253.360736 28.745228 253.360736 28.134801 
C 253.360736 27.524374 252.105212 26.938866 249.870678 26.507229 
C 247.636144 26.075592 244.605041 25.833067 241.444933 25.833067 
C 238.284825 25.833067 235.253721 26.075592 233.019188 26.507229 
C 230.784654 26.938866 229.52913 27.524374 229.52913 28.134801 
C 229.52913 28.745228 230.784654 29.330736 233.019188 29.762373 
C 235.253721 30.194011 238.284825 30.436536 241.444933 30.436536 
z
" style="fill:#ff0000;opacity:0.2;stroke:#ff0000;stroke-linejoin:miter;"/>
   </g>
   <g id="patch_105">
    <path d="M 241.444933 38.597231 
Q 241.444933 34.366026 241.444933 32.079365 
" style="fill:none;opacity:0.5;stroke:#ff0000;stroke-linecap:round;stroke-width:2.75;"/>
    <path d="M 239.944933 33.579365 
L 241.444933 32.079365 
L 242.944933 33.579365 
" style="fill:none;opacity:0.5;stroke:#ff0000;stroke-linecap:round;stroke-width:2.75;"/>
   </g>
   <g id="patch_106">
    <path clip-path="url(#p4e4de9791d)" d="M 416.932214 75.215737 
C 420.666887 75.215737 424.2491 74.929117 426.889913 74.419 
C 429.530725 73.908883 431.014527 73.216919 431.014527 72.495506 
C 431.014527 71.774092 429.530725 71.082128 426.889913 70.572011 
C 424.2491 70.061894 420.666887 69.775274 416.932214 69.775274 
C 413.197541 69.775274 409.615328 70.061894 406.974515 70.572011 
C 404.333703 71.082128 402.849901 71.774092 402.849901 72.495506 
C 402.849901 73.216919 404.333703 73.908883 406.974515 74.419 
C 409.615328 74.929117 413.197541 75.215737 416.932214 75.215737 
z
" style="fill:#0000ff;opacity:0.2;stroke:#0000ff;stroke-linejoin:miter;"/>
   </g>
   <g id="patch_107">
    <path clip-path="url(#p4e4de9791d)" d="M 362.769473 55.546369 
C 366.504146 55.546369 370.086359 55.259748 372.727172 54.749631 
C 375.367984 54.239514 376.851786 53.547551 376.851786 52.826137 
C 376.851786 52.104723 375.367984 51.412759 372.727172 50.902642 
C 370.086359 50.392526 366.504146 50.105905 362.769473 50.105905 
C 359.0348 50.105905 355.452587 50.392526 352.811774 50.902642 
C 350.170961 51.412759 348.68716 52.104723 348.68716 52.826137 
C 348.68716 53.547551 350.170961 54.239514 352.811774 54.749631 
C 355.452587 55.259748 359.0348 55.546369 362.769473 55.546369 
z
" style="fill:#ff0000;opacity:0.2;stroke:#ff0000;stroke-linejoin:miter;"/>
   </g>
   <g id="patch_108">
    <path d="M 416.932214 72.495506 
Q 390.791352 63.00237 366.810562 54.293671 
" style="fill:none;opacity:0.5;stroke:#ff0000;stroke-linecap:round;stroke-width:3.25;"/>
    <path d="M 367.708458 56.215593 
L 366.810562 54.293671 
L 368.732484 53.395775 
" style="fill:none;opacity:0.5;stroke:#ff0000;stroke-linecap:round;stroke-width:3.25;"/>
   </g>
   <g id="patch_109">
    <path clip-path="url(#p4e4de9791d)" d="M 241.444933 109.741757 
C 244.892323 109.741757 248.198981 109.477184 250.636655 109.006307 
C 253.074328 108.53543 254.443991 107.896694 254.443991 107.230774 
C 254.443991 106.564853 253.074328 105.926118 250.636655 105.455241 
C 248.198981 104.984364 244.892323 104.719791 241.444933 104.719791 
C 237.997542 104.719791 234.690884 104.984364 232.253211 105.455241 
C 229.815538 105.926118 228.445875 106.564853 228.445875 107.230774 
C 228.445875 107.896694 229.815538 108.53543 232.253211 109.006307 
C 234.690884 109.477184 237.997542 109.741757 241.444933 109.741757 
z
" style="fill:#0000ff;opacity:0.2;stroke:#0000ff;stroke-linejoin:miter;"/>
   </g>
   <g id="patch_110">
    <path clip-path="url(#p4e4de9791d)" d="M 120.120393 55.33712 
C 123.567783 55.33712 126.874441 55.072547 129.312114 54.60167 
C 131.749788 54.130793 133.11945 53.492057 133.11945 52.826137 
C 133.11945 52.160216 131.749788 51.52148 129.312114 51.050603 
C 126.874441 50.579726 123.567783 50.315153 120.120393 50.315153 
C 116.673002 50.315153 113.366344 50.579726 110.928671 51.050603 
C 108.490997 51.52148 107.121335 52.160216 107.121335 52.826137 
C 107.121335 53.492057 108.490997 54.130793 110.928671 54.60167 
C 113.366344 55.072547 116.673002 55.33712 120.120393 55.33712 
z
" style="fill:#ff0000;opacity:0.2;stroke:#ff0000;stroke-linejoin:miter;"/>
   </g>
   <g id="patch_111">
    <path d="M 241.444933 107.230774 
Q 181.695337 80.437719 123.881359 54.512638 
" style="fill:none;opacity:0.5;stroke:#ff0000;stroke-linecap:round;stroke-width:3;"/>
    <path d="M 124.636297 56.495078 
L 123.881359 54.512638 
L 125.863799 53.7577 
" style="fill:none;opacity:0.5;stroke:#ff0000;stroke-linecap:round;stroke-width:3;"/>
   </g>
   <g id="patch_112">
    <path clip-path="url(#p4e4de9791d)" d="M 65.957651 75.006489 
C 69.405042 75.006489 72.7117 74.741916 75.149373 74.271039 
C 77.587046 73.800162 78.956709 73.161426 78.956709 72.495506 
C 78.956709 71.829585 77.587046 71.190849 75.149373 70.719972 
C 72.7117 70.249095 69.405042 69.984522 65.957651 69.984522 
C 62.510261 69.984522 59.203603 70.249095 56.765929 70.719972 
C 54.328256 71.190849 52.958593 71.829585 52.958593 72.495506 
C 52.958593 73.161426 54.328256 73.800162 56.765929 74.271039 
C 59.203603 74.741916 62.510261 75.006489 65.957651 75.006489 
z
" style="fill:#0000ff;opacity:0.2;stroke:#0000ff;stroke-linejoin:miter;"/>
   </g>
   <g id="patch_113">
    <path clip-path="url(#p4e4de9791d)" d="M 120.120393 55.33712 
C 123.567783 55.33712 126.874441 55.072547 129.312114 54.60167 
C 131.749788 54.130793 133.11945 53.492057 133.11945 52.826137 
C 133.11945 52.160216 131.749788 51.52148 129.312114 51.050603 
C 126.874441 50.579726 123.567783 50.315153 120.120393 50.315153 
C 116.673002 50.315153 113.366344 50.579726 110.928671 51.050603 
C 108.490997 51.52148 107.121335 52.160216 107.121335 52.826137 
C 107.121335 53.492057 108.490997 54.130793 110.928671 54.60167 
C 113.366344 55.072547 116.673002 55.33712 120.120393 55.33712 
z
" style="fill:#ff0000;opacity:0.2;stroke:#ff0000;stroke-linejoin:miter;"/>
   </g>
   <g id="patch_114">
    <path d="M 65.957651 72.495506 
Q 92.098513 63.00237 116.245462 54.23333 
" style="fill:none;opacity:0.5;stroke:#ff0000;stroke-linecap:round;stroke-width:3;"/>
    <path d="M 114.323541 53.335434 
L 116.245462 54.23333 
L 115.347566 56.155251 
" style="fill:none;opacity:0.5;stroke:#ff0000;stroke-linecap:round;stroke-width:3;"/>
   </g>
   <g id="patch_115">
    <path clip-path="url(#p4e4de9791d)" d="M 93.039022 64.753307 
C 95.911847 64.753307 98.667396 64.53283 100.69879 64.140432 
C 102.730185 63.748035 103.87157 63.215755 103.87157 62.660821 
C 103.87157 62.105887 102.730185 61.573607 100.69879 61.18121 
C 98.667396 60.788813 95.911847 60.568335 93.039022 60.568335 
C 90.166197 60.568335 87.410648 60.788813 85.379254 61.18121 
C 83.347859 61.573607 82.206474 62.105887 82.206474 62.660821 
C 82.206474 63.215755 83.347859 63.748035 85.379254 64.140432 
C 87.410648 64.53283 90.166197 64.753307 93.039022 64.753307 
z
" style="fill:#008000;opacity:0.2;stroke:#008000;stroke-linejoin:miter;"/>
   </g>
   <g id="patch_116">
    <path clip-path="url(#p4e4de9791d)" d="M 241.444933 35.458502 
C 244.317758 35.458502 247.073307 35.238025 249.104701 34.845627 
C 251.136095 34.45323 252.277481 33.92095 252.277481 33.366016 
C 252.277481 32.811083 251.136095 32.278803 249.104701 31.886405 
C 247.073307 31.494008 244.317758 31.27353 241.444933 31.27353 
C 238.572107 31.27353 235.816559 31.494008 233.785164 31.886405 
C 231.75377 32.278803 230.612384 32.811083 230.612384 33.366016 
C 230.612384 33.92095 231.75377 34.45323 233.785164 34.845627 
C 235.816559 35.238025 238.572107 35.458502 241.444933 35.458502 
z
" style="fill:#008000;opacity:0.2;stroke:#008000;stroke-linejoin:miter;"/>
   </g>
   <g id="patch_117">
    <path clip-path="url(#p4e4de9791d)" d="M 389.850843 64.753307 
C 392.723669 64.753307 395.479217 64.53283 397.510612 64.140432 
C 399.542006 63.748035 400.683392 63.215755 400.683392 62.660821 
C 400.683392 62.105887 399.542006 61.573607 397.510612 61.18121 
C 395.479217 60.788813 392.723669 60.568335 389.850843 60.568335 
C 386.978018 60.568335 384.222469 60.788813 382.191075 61.18121 
C 380.159681 61.573607 379.018295 62.105887 379.018295 62.660821 
C 379.018295 63.215755 380.159681 63.748035 382.191075 64.140432 
C 384.222469 64.53283 386.978018 64.753307 389.850843 64.753307 
z
" style="fill:#008000;opacity:0.2;stroke:#008000;stroke-linejoin:miter;"/>
   </g>
   <g id="patch_118">
    <path d="M 93.039022 62.660821 
Q 167.241977 48.013419 241.444933 33.366016 
" style="fill:none;opacity:0.5;stroke:#008000;stroke-linecap:round;stroke-width:2;"/>
   </g>
   <g id="patch_119">
    <path d="M 118.791118 53.308867 
Q 93.979531 62.319272 69.167944 71.329678 
" style="fill:none;opacity:0.5;stroke:#800080;stroke-linecap:round;stroke-width:2;"/>
    <path d="M 116.869196 52.410971 
L 118.791118 53.308867 
L 117.893222 55.230789 
" style="fill:none;opacity:0.5;stroke:#800080;stroke-linecap:round;stroke-width:2;"/>
    <path d="M 71.089866 72.227574 
L 69.167944 71.329678 
L 70.06584 69.407756 
" style="fill:none;opacity:0.5;stroke:#800080;stroke-linecap:round;stroke-width:2;"/>
   </g>
   <g id="patch_120">
    <path d="M 241.444933 33.366016 
Q 315.647888 48.013419 389.850843 62.660821 
" style="fill:none;opacity:0.5;stroke:#008000;stroke-linecap:round;stroke-width:2;"/>
   </g>
   <g id="patch_121">
    <path d="M 241.444933 29.549015 
Q 241.444933 32.366006 241.444933 35.182998 
" style="fill:none;opacity:0.5;stroke:#800080;stroke-linecap:round;stroke-width:2;"/>
    <path d="M 239.944933 31.049015 
L 241.444933 29.549015 
L 242.944933 31.049015 
" style="fill:none;opacity:0.5;stroke:#800080;stroke-linecap:round;stroke-width:2;"/>
    <path d="M 242.944933 33.682998 
L 241.444933 35.182998 
L 239.944933 33.682998 
" style="fill:none;opacity:0.5;stroke:#800080;stroke-linecap:round;stroke-width:2;"/>
   </g>
   <g id="line2d_1">
    <path clip-path="url(#p4e4de9791d)" d="M 241.444933 304.34296 
L 135.28596 292.206541 
L 150.451528 254.960289 
L 213.280307 119.78569 
L 269.609558 119.78569 
L 332.438338 254.960289 
L 347.603905 292.206541 
" style="fill:none;stroke:#ff0000;stroke-linecap:square;stroke-width:0.2;"/>
   </g>
   <g id="line2d_2">
    <path clip-path="url(#p4e4de9791d)" d="M 241.444933 304.34296 
L 68.124161 286.34758 
L 102.788315 237.383406 
L 193.78172 119.78569 
L 289.108145 119.78569 
L 380.10155 237.383406 
L 414.765704 286.34758 
" style="fill:none;stroke:#0000ff;stroke-linecap:square;stroke-width:0.2;"/>
   </g>
   <g id="line2d_3">
    <path clip-path="url(#p4e4de9791d)" d="M 241.444933 75.843483 
L 120.120393 52.826137 
L 241.444933 28.134801 
L 362.769473 52.826137 
" style="fill:none;stroke:#ff0000;stroke-linecap:square;stroke-width:0.2;"/>
   </g>
   <g id="line2d_4">
    <path clip-path="url(#p4e4de9791d)" d="M 241.444933 38.597231 
L 416.932214 72.495506 
L 241.444933 107.230774 
L 65.957651 72.495506 
" style="fill:none;stroke:#0000ff;stroke-linecap:square;stroke-width:0.2;"/>
   </g>
  </g>
 </g>
 <defs>
  <clipPath id="p4e4de9791d">
   <rect height="307.51175" width="409.903625" x="37.576375" y="13.32"/>
  </clipPath>
 </defs>
</svg>
