<?xml version="1.0" encoding="utf-8" standalone="no"?>
<!DOCTYPE svg PUBLIC "-//W3C//DTD SVG 1.1//EN"
  "http://www.w3.org/Graphics/SVG/1.1/DTD/svg11.dtd">
<!-- Created with matplotlib (http://matplotlib.org/) -->
<svg height="345.6pt" version="1.1" viewBox="0 0 460.8 345.6" width="460.8pt" xmlns="http://www.w3.org/2000/svg" xmlns:xlink="http://www.w3.org/1999/xlink">
 <defs>
  <style type="text/css">
*{stroke-linecap:butt;stroke-linejoin:round;}
  </style>
 </defs>
 <g id="figure_1">
  <g id="patch_1">
   <path d="M 0 345.6 
L 460.8 345.6 
L 460.8 0 
L 0 0 
z
" style="fill:#ffffff;"/>
  </g>
  <g id="axes_1">
   <g id="patch_2">
    <path clip-path="url(#pd967120531)" d="M 244.598408 305.273458 
C 244.872922 305.273458 245.13623 305.189873 245.330341 305.04111 
C 245.524452 304.892348 245.633518 304.690555 245.633518 304.480174 
C 245.633518 304.269792 245.524452 304.067999 245.330341 303.919237 
C 245.13623 303.770475 244.872922 303.686889 244.598408 303.686889 
C 244.323893 303.686889 244.060585 303.770475 243.866474 303.919237 
C 243.672363 304.067999 243.563298 304.269792 243.563298 304.480174 
C 243.563298 304.690555 243.672363 304.892348 243.866474 305.04111 
C 244.060585 305.189873 244.323893 305.273458 244.598408 305.273458 
z
" style="fill:#ff0000;opacity:0.2;stroke:#ff0000;stroke-linejoin:miter;"/>
   </g>
   <g id="patch_3">
    <path clip-path="url(#pd967120531)" d="M 60.348799 170.811739 
C 60.623313 170.811739 60.886621 170.728153 61.080732 170.579391 
C 61.274843 170.430629 61.383909 170.228836 61.383909 170.018454 
C 61.383909 169.808073 61.274843 169.606279 61.080732 169.457517 
C 60.886621 169.308755 60.623313 169.22517 60.348799 169.22517 
C 60.074284 169.22517 59.810976 169.308755 59.616865 169.457517 
C 59.422754 169.606279 59.313688 169.808073 59.313688 170.018454 
C 59.313688 170.228836 59.422754 170.430629 59.616865 170.579391 
C 59.810976 170.728153 60.074284 170.811739 60.348799 170.811739 
z
" style="fill:#ff0000;opacity:0.2;stroke:#ff0000;stroke-linejoin:miter;"/>
   </g>
   <g id="patch_4">
    <path clip-path="url(#pd967120531)" d="M 244.598408 30.797028 
C 244.872922 30.797028 245.13623 30.713442 245.330341 30.56468 
C 245.524452 30.415918 245.633518 30.214125 245.633518 30.003743 
C 245.633518 29.793362 245.524452 29.591569 245.330341 29.442806 
C 245.13623 29.294044 244.872922 29.210459 244.598408 29.210459 
C 244.323893 29.210459 244.060585 29.294044 243.866474 29.442806 
C 243.672363 29.591569 243.563298 29.793362 243.563298 30.003743 
C 243.563298 30.214125 243.672363 30.415918 243.866474 30.56468 
C 244.060585 30.713442 244.323893 30.797028 244.598408 30.797028 
z
" style="fill:#ff0000;opacity:0.2;stroke:#ff0000;stroke-linejoin:miter;"/>
   </g>
   <g id="patch_5">
    <path clip-path="url(#pd967120531)" d="M 424.190021 166.845316 
C 424.464536 166.845316 424.727844 166.761731 424.921955 166.612969 
C 425.116066 166.464206 425.225131 166.262413 425.225131 166.052032 
C 425.225131 165.84165 425.116066 165.639857 424.921955 165.491095 
C 424.727844 165.342333 424.464536 165.258747 424.190021 165.258747 
C 423.915507 165.258747 423.652199 165.342333 423.458088 165.491095 
C 423.263977 165.639857 423.154911 165.84165 423.154911 166.052032 
C 423.154911 166.262413 423.263977 166.464206 423.458088 166.612969 
C 423.652199 166.761731 423.915507 166.845316 424.190021 166.845316 
z
" style="fill:#ff0000;opacity:0.2;stroke:#ff0000;stroke-linejoin:miter;"/>
   </g>
   <g id="patch_6">
    <path clip-path="url(#pd967120531)" d="M 243.822075 30.797028 
C 244.09659 30.797028 244.359898 30.713442 244.554009 30.56468 
C 244.74812 30.415918 244.857185 30.214125 244.857185 30.003743 
C 244.857185 29.793362 244.74812 29.591569 244.554009 29.442806 
C 244.359898 29.294044 244.09659 29.210459 243.822075 29.210459 
C 243.547561 29.210459 243.284253 29.294044 243.090142 29.442806 
C 242.896031 29.591569 242.786965 29.793362 242.786965 30.003743 
C 242.786965 30.214125 242.896031 30.415918 243.090142 30.56468 
C 243.284253 30.713442 243.547561 30.797028 243.822075 30.797028 
z
" style="fill:#0000ff;opacity:0.2;stroke:#0000ff;stroke-linejoin:miter;"/>
   </g>
   <g id="patch_7">
    <path clip-path="url(#pd967120531)" d="M 425.483909 166.845316 
C 425.758423 166.845316 426.021731 166.761731 426.215842 166.612969 
C 426.409953 166.464206 426.519019 166.262413 426.519019 166.052032 
C 426.519019 165.84165 426.409953 165.639857 426.215842 165.491095 
C 426.021731 165.342333 425.758423 165.258747 425.483909 165.258747 
C 425.209395 165.258747 424.946087 165.342333 424.751976 165.491095 
C 424.557865 165.639857 424.448799 165.84165 424.448799 166.052032 
C 424.448799 166.262413 424.557865 166.464206 424.751976 166.612969 
C 424.946087 166.761731 425.209395 166.845316 425.483909 166.845316 
z
" style="fill:#0000ff;opacity:0.2;stroke:#0000ff;stroke-linejoin:miter;"/>
   </g>
   <g id="patch_8">
    <path clip-path="url(#pd967120531)" d="M 238.646524 305.273458 
C 238.921039 305.273458 239.184347 305.189873 239.378458 305.04111 
C 239.572569 304.892348 239.681635 304.690555 239.681635 304.480174 
C 239.681635 304.269792 239.572569 304.067999 239.378458 303.919237 
C 239.184347 303.770475 238.921039 303.686889 238.646524 303.686889 
C 238.37201 303.686889 238.108702 303.770475 237.914591 303.919237 
C 237.72048 304.067999 237.611414 304.269792 237.611414 304.480174 
C 237.611414 304.690555 237.72048 304.892348 237.914591 305.04111 
C 238.108702 305.189873 238.37201 305.273458 238.646524 305.273458 
z
" style="fill:#0000ff;opacity:0.2;stroke:#0000ff;stroke-linejoin:miter;"/>
   </g>
   <g id="patch_9">
    <path clip-path="url(#pd967120531)" d="M 59.054911 170.018454 
C 59.329425 170.018454 59.592733 169.934869 59.786844 169.786106 
C 59.980955 169.637344 60.090021 169.435551 60.090021 169.22517 
C 60.090021 169.014788 59.980955 168.812995 59.786844 168.664233 
C 59.592733 168.515471 59.329425 168.431885 59.054911 168.431885 
C 58.780396 168.431885 58.517089 168.515471 58.322977 168.664233 
C 58.128866 168.812995 58.019801 169.014788 58.019801 169.22517 
C 58.019801 169.435551 58.128866 169.637344 58.322977 169.786106 
C 58.517089 169.934869 58.780396 170.018454 59.054911 170.018454 
z
" style="fill:#0000ff;opacity:0.2;stroke:#0000ff;stroke-linejoin:miter;"/>
   </g>
   <g id="patch_10">
    <path clip-path="url(#pd967120531)" d="M 244.598408 304.480174 
C 129.70118 304.480174 60.348799 241.414057 60.348799 170.018454 
C 60.348799 90.690006 137.982061 30.003743 244.598408 30.003743 
C 364.153632 30.003743 424.190021 96.242997 424.190021 166.052032 
C 424.190021 246.173764 344.486539 304.480174 244.598408 304.480174 
" style="fill:none;stroke:#ff0000;stroke-linejoin:miter;stroke-width:0.5;"/>
   </g>
   <g id="patch_11">
    <path clip-path="url(#pd967120531)" d="M 243.822075 30.003743 
C 351.473532 30.003743 425.483909 85.533657 425.483909 166.052032 
C 425.483909 252.52004 349.920867 304.480174 238.646524 304.480174 
C 134.617953 304.480174 59.054911 252.123398 59.054911 169.22517 
C 59.054911 90.690006 135.653063 30.003743 243.822075 30.003743 
" style="fill:none;stroke:#0000ff;stroke-linejoin:miter;stroke-width:0.5;"/>
   </g>
   <g id="patch_12">
    <path clip-path="url(#pd967120531)" d="M 244.598408 306.860027 
C 245.421951 306.860027 246.211875 306.609271 246.794208 306.162984 
C 247.376541 305.716698 247.703738 305.111318 247.703738 304.480174 
C 247.703738 303.849029 247.376541 303.24365 246.794208 302.797363 
C 246.211875 302.351077 245.421951 302.10032 244.598408 302.10032 
C 243.774865 302.10032 242.984941 302.351077 242.402608 302.797363 
C 241.820275 303.24365 241.493077 303.849029 241.493077 304.480174 
C 241.493077 305.111318 241.820275 305.716698 242.402608 306.162984 
C 242.984941 306.609271 243.774865 306.860027 244.598408 306.860027 
z
" style="fill:#0000ff;opacity:0.2;stroke:#0000ff;stroke-linejoin:miter;"/>
   </g>
   <g id="patch_13">
    <path clip-path="url(#pd967120531)" d="M 238.646524 306.860027 
C 239.470068 306.860027 240.259992 306.609271 240.842325 306.162984 
C 241.424658 305.716698 241.751855 305.111318 241.751855 304.480174 
C 241.751855 303.849029 241.424658 303.24365 240.842325 302.797363 
C 240.259992 302.351077 239.470068 302.10032 238.646524 302.10032 
C 237.822981 302.10032 237.033057 302.351077 236.450724 302.797363 
C 235.868391 303.24365 235.541194 303.849029 235.541194 304.480174 
C 235.541194 305.111318 235.868391 305.716698 236.450724 306.162984 
C 237.033057 306.609271 237.822981 306.860027 238.646524 306.860027 
z
" style="fill:#ff0000;opacity:0.2;stroke:#ff0000;stroke-linejoin:miter;"/>
   </g>
   <g id="patch_14">
    <path d="M 244.598408 304.480174 
Q 242.62365 304.480174 242.770212 304.480174 
" style="fill:none;opacity:0.5;stroke:#0000ff;stroke-linecap:round;stroke-width:3;"/>
    <path d="M 244.270212 305.980174 
L 242.770212 304.480174 
L 244.270212 302.980174 
" style="fill:none;opacity:0.5;stroke:#0000ff;stroke-linecap:round;stroke-width:3;"/>
   </g>
   <g id="patch_15">
    <path clip-path="url(#pd967120531)" d="M 60.348799 172.199986 
C 61.103713 172.199986 61.82781 171.970126 62.361616 171.56103 
C 62.895421 171.151934 63.195352 170.597003 63.195352 170.018454 
C 63.195352 169.439905 62.895421 168.884974 62.361616 168.475878 
C 61.82781 168.066782 61.103713 167.836922 60.348799 167.836922 
C 59.593884 167.836922 58.869787 168.066782 58.335982 168.475878 
C 57.802176 168.884974 57.502246 169.439905 57.502246 170.018454 
C 57.502246 170.597003 57.802176 171.151934 58.335982 171.56103 
C 58.869787 171.970126 59.593884 172.199986 60.348799 172.199986 
z
" style="fill:#0000ff;opacity:0.2;stroke:#0000ff;stroke-linejoin:miter;"/>
   </g>
   <g id="patch_16">
    <path clip-path="url(#pd967120531)" d="M 59.054911 171.406702 
C 59.809826 171.406702 60.533923 171.176842 61.067728 170.767746 
C 61.601533 170.35865 61.901464 169.803719 61.901464 169.22517 
C 61.901464 168.64662 61.601533 168.091689 61.067728 167.682593 
C 60.533923 167.273497 59.809826 167.043637 59.054911 167.043637 
C 58.299996 167.043637 57.575899 167.273497 57.042094 167.682593 
C 56.508289 168.091689 56.208358 168.64662 56.208358 169.22517 
C 56.208358 169.803719 56.508289 170.35865 57.042094 170.767746 
C 57.575899 171.176842 58.299996 171.406702 59.054911 171.406702 
z
" style="fill:#ff0000;opacity:0.2;stroke:#ff0000;stroke-linejoin:miter;"/>
   </g>
   <g id="patch_17">
    <path d="M 60.348799 170.018454 
Q 59.701855 169.621812 60.712685 170.241553 
" style="fill:none;opacity:0.5;stroke:#0000ff;stroke-linecap:round;stroke-width:2.75;"/>
    <path d="M 61.207446 172.30437 
L 60.712685 170.241553 
L 62.775501 169.746792 
" style="fill:none;opacity:0.5;stroke:#0000ff;stroke-linecap:round;stroke-width:2.75;"/>
   </g>
   <g id="patch_18">
    <path clip-path="url(#pd967120531)" d="M 244.598408 32.581918 
C 245.49058 32.581918 246.346331 32.310265 246.977191 31.826788 
C 247.608052 31.343311 247.962516 30.687483 247.962516 30.003743 
C 247.962516 29.320003 247.608052 28.664176 246.977191 28.180698 
C 246.346331 27.697221 245.49058 27.425569 244.598408 27.425569 
C 243.706236 27.425569 242.850485 27.697221 242.219624 28.180698 
C 241.588763 28.664176 241.2343 29.320003 241.2343 30.003743 
C 241.2343 30.687483 241.588763 31.343311 242.219624 31.826788 
C 242.850485 32.310265 243.706236 32.581918 244.598408 32.581918 
z
" style="fill:#0000ff;opacity:0.2;stroke:#0000ff;stroke-linejoin:miter;"/>
   </g>
   <g id="patch_19">
    <path clip-path="url(#pd967120531)" d="M 243.822075 32.581918 
C 244.714247 32.581918 245.569998 32.310265 246.200859 31.826788 
C 246.83172 31.343311 247.186183 30.687483 247.186183 30.003743 
C 247.186183 29.320003 246.83172 28.664176 246.200859 28.180698 
C 245.569998 27.697221 244.714247 27.425569 243.822075 27.425569 
C 242.929903 27.425569 242.074152 27.697221 241.443292 28.180698 
C 240.812431 28.664176 240.457967 29.320003 240.457967 30.003743 
C 240.457967 30.687483 240.812431 31.343311 241.443292 31.826788 
C 242.074152 32.310265 242.929903 32.581918 243.822075 32.581918 
z
" style="fill:#ff0000;opacity:0.2;stroke:#ff0000;stroke-linejoin:miter;"/>
   </g>
   <g id="patch_20">
    <path d="M 244.598408 30.003743 
Q 244.210242 30.003743 246.120172 30.003743 
" style="fill:none;opacity:0.5;stroke:#0000ff;stroke-linecap:round;stroke-width:3.25;"/>
    <path d="M 247.620172 31.503743 
L 246.120172 30.003743 
L 247.620172 28.503743 
" style="fill:none;opacity:0.5;stroke:#0000ff;stroke-linecap:round;stroke-width:3.25;"/>
   </g>
   <g id="patch_21">
    <path clip-path="url(#pd967120531)" d="M 424.190021 168.431885 
C 425.013565 168.431885 425.803489 168.181129 426.385822 167.734842 
C 426.968155 167.288556 427.295352 166.683176 427.295352 166.052032 
C 427.295352 165.420887 426.968155 164.815508 426.385822 164.369221 
C 425.803489 163.922935 425.013565 163.672178 424.190021 163.672178 
C 423.366478 163.672178 422.576554 163.922935 421.994221 164.369221 
C 421.411888 164.815508 421.084691 165.420887 421.084691 166.052032 
C 421.084691 166.683176 421.411888 167.288556 421.994221 167.734842 
C 422.576554 168.181129 423.366478 168.431885 424.190021 168.431885 
z
" style="fill:#0000ff;opacity:0.2;stroke:#0000ff;stroke-linejoin:miter;"/>
   </g>
   <g id="patch_22">
    <path clip-path="url(#pd967120531)" d="M 425.483909 168.431885 
C 426.307452 168.431885 427.097376 168.181129 427.679709 167.734842 
C 428.262042 167.288556 428.58924 166.683176 428.58924 166.052032 
C 428.58924 165.420887 428.262042 164.815508 427.679709 164.369221 
C 427.097376 163.922935 426.307452 163.672178 425.483909 163.672178 
C 424.660366 163.672178 423.870442 163.922935 423.288109 164.369221 
C 422.705776 164.815508 422.378579 165.420887 422.378579 166.052032 
C 422.378579 166.683176 422.705776 167.288556 423.288109 167.734842 
C 423.870442 168.181129 424.660366 168.431885 425.483909 168.431885 
z
" style="fill:#ff0000;opacity:0.2;stroke:#ff0000;stroke-linejoin:miter;"/>
   </g>
   <g id="patch_23">
    <path d="M 424.190021 166.052032 
Q 424.836965 166.052032 423.362589 166.052032 
" style="fill:none;opacity:0.5;stroke:#0000ff;stroke-linecap:round;stroke-width:3;"/>
    <path d="M 421.862589 164.552032 
L 423.362589 166.052032 
L 421.862589 167.552032 
" style="fill:none;opacity:0.5;stroke:#0000ff;stroke-linecap:round;stroke-width:3;"/>
   </g>
   <g id="patch_24">
    <path clip-path="url(#pd967120531)" d="M 243.822075 32.383597 
C 244.645618 32.383597 245.435542 32.13284 246.017875 31.686554 
C 246.600208 31.240267 246.927406 30.634888 246.927406 30.003743 
C 246.927406 29.372599 246.600208 28.767219 246.017875 28.320933 
C 245.435542 27.874646 244.645618 27.62389 243.822075 27.62389 
C 242.998532 27.62389 242.208608 27.874646 241.626275 28.320933 
C 241.043942 28.767219 240.716745 29.372599 240.716745 30.003743 
C 240.716745 30.634888 241.043942 31.240267 241.626275 31.686554 
C 242.208608 32.13284 242.998532 32.383597 243.822075 32.383597 
z
" style="fill:#0000ff;opacity:0.2;stroke:#0000ff;stroke-linejoin:miter;"/>
   </g>
   <g id="patch_25">
    <path clip-path="url(#pd967120531)" d="M 244.598408 32.383597 
C 245.421951 32.383597 246.211875 32.13284 246.794208 31.686554 
C 247.376541 31.240267 247.703738 30.634888 247.703738 30.003743 
C 247.703738 29.372599 247.376541 28.767219 246.794208 28.320933 
C 246.211875 27.874646 245.421951 27.62389 244.598408 27.62389 
C 243.774865 27.62389 242.984941 27.874646 242.402608 28.320933 
C 241.820275 28.767219 241.493077 29.372599 241.493077 30.003743 
C 241.493077 30.634888 241.820275 31.240267 242.402608 31.686554 
C 242.984941 32.13284 243.774865 32.383597 244.598408 32.383597 
z
" style="fill:#ff0000;opacity:0.2;stroke:#ff0000;stroke-linejoin:miter;"/>
   </g>
   <g id="patch_26">
    <path d="M 243.822075 30.003743 
Q 244.210242 30.003743 242.477087 30.003743 
" style="fill:none;opacity:0.5;stroke:#ff0000;stroke-linecap:round;stroke-width:3;"/>
    <path d="M 240.977087 28.503743 
L 242.477087 30.003743 
L 240.977087 31.503743 
" style="fill:none;opacity:0.5;stroke:#ff0000;stroke-linecap:round;stroke-width:3;"/>
   </g>
   <g id="patch_27">
    <path clip-path="url(#pd967120531)" d="M 425.483909 168.630206 
C 426.376081 168.630206 427.231832 168.358554 427.862693 167.875076 
C 428.493553 167.391599 428.848017 166.735772 428.848017 166.052032 
C 428.848017 165.368292 428.493553 164.712464 427.862693 164.228987 
C 427.231832 163.74551 426.376081 163.473857 425.483909 163.473857 
C 424.591737 163.473857 423.735986 163.74551 423.105125 164.228987 
C 422.474265 164.712464 422.119801 165.368292 422.119801 166.052032 
C 422.119801 166.735772 422.474265 167.391599 423.105125 167.875076 
C 423.735986 168.358554 424.591737 168.630206 425.483909 168.630206 
z
" style="fill:#0000ff;opacity:0.2;stroke:#0000ff;stroke-linejoin:miter;"/>
   </g>
   <g id="patch_28">
    <path clip-path="url(#pd967120531)" d="M 424.190021 168.630206 
C 425.082193 168.630206 425.937944 168.358554 426.568805 167.875076 
C 427.199666 167.391599 427.554129 166.735772 427.554129 166.052032 
C 427.554129 165.368292 427.199666 164.712464 426.568805 164.228987 
C 425.937944 163.74551 425.082193 163.473857 424.190021 163.473857 
C 423.297849 163.473857 422.442098 163.74551 421.811238 164.228987 
C 421.180377 164.712464 420.825913 165.368292 420.825913 166.052032 
C 420.825913 166.735772 421.180377 167.391599 421.811238 167.875076 
C 422.442098 168.358554 423.297849 168.630206 424.190021 168.630206 
z
" style="fill:#ff0000;opacity:0.2;stroke:#ff0000;stroke-linejoin:miter;"/>
   </g>
   <g id="patch_29">
    <path d="M 425.483909 166.052032 
Q 424.836965 166.052032 426.488118 166.052032 
" style="fill:none;opacity:0.5;stroke:#ff0000;stroke-linecap:round;stroke-width:3.25;"/>
    <path d="M 427.988118 167.552032 
L 426.488118 166.052032 
L 427.988118 164.552032 
" style="fill:none;opacity:0.5;stroke:#ff0000;stroke-linecap:round;stroke-width:3.25;"/>
   </g>
   <g id="patch_30">
    <path clip-path="url(#pd967120531)" d="M 238.646524 306.860027 
C 239.470068 306.860027 240.259992 306.609271 240.842325 306.162984 
C 241.424658 305.716698 241.751855 305.111318 241.751855 304.480174 
C 241.751855 303.849029 241.424658 303.24365 240.842325 302.797363 
C 240.259992 302.351077 239.470068 302.10032 238.646524 302.10032 
C 237.822981 302.10032 237.033057 302.351077 236.450724 302.797363 
C 235.868391 303.24365 235.541194 303.849029 235.541194 304.480174 
C 235.541194 305.111318 235.868391 305.716698 236.450724 306.162984 
C 237.033057 306.609271 237.822981 306.860027 238.646524 306.860027 
z
" style="fill:#0000ff;opacity:0.2;stroke:#0000ff;stroke-linejoin:miter;"/>
   </g>
   <g id="patch_31">
    <path clip-path="url(#pd967120531)" d="M 244.598408 306.860027 
C 245.421951 306.860027 246.211875 306.609271 246.794208 306.162984 
C 247.376541 305.716698 247.703738 305.111318 247.703738 304.480174 
C 247.703738 303.849029 247.376541 303.24365 246.794208 302.797363 
C 246.211875 302.351077 245.421951 302.10032 244.598408 302.10032 
C 243.774865 302.10032 242.984941 302.351077 242.402608 302.797363 
C 241.820275 303.24365 241.493077 303.849029 241.493077 304.480174 
C 241.493077 305.111318 241.820275 305.716698 242.402608 306.162984 
C 242.984941 306.609271 243.774865 306.860027 244.598408 306.860027 
z
" style="fill:#ff0000;opacity:0.2;stroke:#ff0000;stroke-linejoin:miter;"/>
   </g>
   <g id="patch_32">
    <path d="M 238.646524 304.480174 
Q 240.621283 304.480174 240.47472 304.480174 
" style="fill:none;opacity:0.5;stroke:#ff0000;stroke-linecap:round;stroke-width:3;"/>
    <path d="M 238.97472 302.980174 
L 240.47472 304.480174 
L 238.97472 305.980174 
" style="fill:none;opacity:0.5;stroke:#ff0000;stroke-linecap:round;stroke-width:3;"/>
   </g>
   <g id="patch_33">
    <path clip-path="url(#pd967120531)" d="M 59.054911 171.406702 
C 59.809826 171.406702 60.533923 171.176842 61.067728 170.767746 
C 61.601533 170.35865 61.901464 169.803719 61.901464 169.22517 
C 61.901464 168.64662 61.601533 168.091689 61.067728 167.682593 
C 60.533923 167.273497 59.809826 167.043637 59.054911 167.043637 
C 58.299996 167.043637 57.575899 167.273497 57.042094 167.682593 
C 56.508289 168.091689 56.208358 168.64662 56.208358 169.22517 
C 56.208358 169.803719 56.508289 170.35865 57.042094 170.767746 
C 57.575899 171.176842 58.299996 171.406702 59.054911 171.406702 
z
" style="fill:#0000ff;opacity:0.2;stroke:#0000ff;stroke-linejoin:miter;"/>
   </g>
   <g id="patch_34">
    <path clip-path="url(#pd967120531)" d="M 60.348799 172.199986 
C 61.103713 172.199986 61.82781 171.970126 62.361616 171.56103 
C 62.895421 171.151934 63.195352 170.597003 63.195352 170.018454 
C 63.195352 169.439905 62.895421 168.884974 62.361616 168.475878 
C 61.82781 168.066782 61.103713 167.836922 60.348799 167.836922 
C 59.593884 167.836922 58.869787 168.066782 58.335982 168.475878 
C 57.802176 168.884974 57.502246 169.439905 57.502246 170.018454 
C 57.502246 170.597003 57.802176 171.151934 58.335982 171.56103 
C 58.869787 171.970126 59.593884 172.199986 60.348799 172.199986 
z
" style="fill:#ff0000;opacity:0.2;stroke:#ff0000;stroke-linejoin:miter;"/>
   </g>
   <g id="patch_35">
    <path d="M 59.054911 169.22517 
Q 59.701855 169.621812 58.691025 169.00207 
" style="fill:none;opacity:0.5;stroke:#ff0000;stroke-linecap:round;stroke-width:2.75;"/>
    <path d="M 58.196263 166.939254 
L 58.691025 169.00207 
L 56.628208 169.496832 
" style="fill:none;opacity:0.5;stroke:#ff0000;stroke-linecap:round;stroke-width:2.75;"/>
   </g>
   <g id="patch_36">
    <path clip-path="url(#pd967120531)" d="M 241.622466 306.463385 
C 242.308752 306.463385 242.967022 306.254421 243.4523 305.882516 
C 243.937577 305.51061 244.210242 305.006127 244.210242 304.480174 
C 244.210242 303.95422 243.937577 303.449737 243.4523 303.077832 
C 242.967022 302.705926 242.308752 302.496962 241.622466 302.496962 
C 240.93618 302.496962 240.27791 302.705926 239.792633 303.077832 
C 239.307355 303.449737 239.034691 303.95422 239.034691 304.480174 
C 239.034691 305.006127 239.307355 305.51061 239.792633 305.882516 
C 240.27791 306.254421 240.93618 306.463385 241.622466 306.463385 
z
" style="fill:#008000;opacity:0.2;stroke:#008000;stroke-linejoin:miter;"/>
   </g>
   <g id="patch_37">
    <path clip-path="url(#pd967120531)" d="M 59.701855 171.605023 
C 60.388141 171.605023 61.046411 171.396059 61.531688 171.024154 
C 62.016966 170.652248 62.28963 170.147766 62.28963 169.621812 
C 62.28963 169.095858 62.016966 168.591375 61.531688 168.21947 
C 61.046411 167.847564 60.388141 167.638601 59.701855 167.638601 
C 59.015569 167.638601 58.357299 167.847564 57.872021 168.21947 
C 57.386744 168.591375 57.114079 169.095858 57.114079 169.621812 
C 57.114079 170.147766 57.386744 170.652248 57.872021 171.024154 
C 58.357299 171.396059 59.015569 171.605023 59.701855 171.605023 
z
" style="fill:#008000;opacity:0.2;stroke:#008000;stroke-linejoin:miter;"/>
   </g>
   <g id="patch_38">
    <path clip-path="url(#pd967120531)" d="M 244.210242 31.986954 
C 244.896528 31.986954 245.554798 31.777991 246.040075 31.406085 
C 246.525353 31.03418 246.798017 30.529697 246.798017 30.003743 
C 246.798017 29.477789 246.525353 28.973307 246.040075 28.601401 
C 245.554798 28.229496 244.896528 28.020532 244.210242 28.020532 
C 243.523955 28.020532 242.865686 28.229496 242.380408 28.601401 
C 241.89513 28.973307 241.622466 29.477789 241.622466 30.003743 
C 241.622466 30.529697 241.89513 31.03418 242.380408 31.406085 
C 242.865686 31.777991 243.523955 31.986954 244.210242 31.986954 
z
" style="fill:#008000;opacity:0.2;stroke:#008000;stroke-linejoin:miter;"/>
   </g>
   <g id="patch_39">
    <path clip-path="url(#pd967120531)" d="M 424.836965 168.035243 
C 425.523251 168.035243 426.181521 167.826279 426.666799 167.454374 
C 427.152076 167.082468 427.424741 166.577985 427.424741 166.052032 
C 427.424741 165.526078 427.152076 165.021595 426.666799 164.64969 
C 426.181521 164.277784 425.523251 164.06882 424.836965 164.06882 
C 424.150679 164.06882 423.492409 164.277784 423.007132 164.64969 
C 422.521854 165.021595 422.24919 165.526078 422.24919 166.052032 
C 422.24919 166.577985 422.521854 167.082468 423.007132 167.454374 
C 423.492409 167.826279 424.150679 168.035243 424.836965 168.035243 
z
" style="fill:#008000;opacity:0.2;stroke:#008000;stroke-linejoin:miter;"/>
   </g>
   <g id="patch_40">
    <path d="M 241.622466 304.480174 
Q 150.66216 237.050993 59.701855 169.621812 
" style="fill:none;opacity:0.5;stroke:#008000;stroke-linecap:round;stroke-width:2;"/>
   </g>
   <g id="patch_41">
    <path d="M 243.184194 304.480174 
Q 242.62365 304.480174 242.063105 304.480174 
" style="fill:none;opacity:0.5;stroke:#800080;stroke-linecap:round;stroke-width:2;"/>
    <path d="M 241.684194 302.980174 
L 243.184194 304.480174 
L 241.684194 305.980174 
" style="fill:none;opacity:0.5;stroke:#800080;stroke-linecap:round;stroke-width:2;"/>
    <path d="M 243.563105 305.980174 
L 242.063105 304.480174 
L 243.563105 302.980174 
" style="fill:none;opacity:0.5;stroke:#800080;stroke-linecap:round;stroke-width:2;"/>
   </g>
   <g id="patch_42">
    <path d="M 59.701855 169.621812 
Q 151.956048 99.812778 244.210242 30.003743 
" style="fill:none;opacity:0.5;stroke:#008000;stroke-linecap:round;stroke-width:2;"/>
   </g>
   <g id="patch_43">
    <path d="M 59.143145 169.279266 
Q 59.701855 169.621812 60.260565 169.964358 
" style="fill:none;opacity:0.5;stroke:#800080;stroke-linecap:round;stroke-width:2;"/>
    <path d="M 58.648383 167.21645 
L 59.143145 169.279266 
L 57.080329 169.774028 
" style="fill:none;opacity:0.5;stroke:#800080;stroke-linecap:round;stroke-width:2;"/>
    <path d="M 60.755326 172.027174 
L 60.260565 169.964358 
L 62.323381 169.469596 
" style="fill:none;opacity:0.5;stroke:#800080;stroke-linecap:round;stroke-width:2;"/>
   </g>
   <g id="patch_44">
    <path d="M 244.210242 30.003743 
Q 334.523603 98.027887 424.836965 166.052032 
" style="fill:none;opacity:0.5;stroke:#008000;stroke-linecap:round;stroke-width:2;"/>
   </g>
   <g id="patch_45">
    <path d="M 243.184194 30.003743 
Q 244.210242 30.003743 245.236289 30.003743 
" style="fill:none;opacity:0.5;stroke:#800080;stroke-linecap:round;stroke-width:2;"/>
    <path d="M 241.684194 28.503743 
L 243.184194 30.003743 
L 241.684194 31.503743 
" style="fill:none;opacity:0.5;stroke:#800080;stroke-linecap:round;stroke-width:2;"/>
    <path d="M 246.736289 31.503743 
L 245.236289 30.003743 
L 246.736289 28.503743 
" style="fill:none;opacity:0.5;stroke:#800080;stroke-linecap:round;stroke-width:2;"/>
   </g>
   <g id="patch_46">
    <path d="M 424.836965 166.052032 
Q 333.229716 235.266103 241.622466 304.480174 
" style="fill:none;opacity:0.5;stroke:#008000;stroke-linecap:round;stroke-width:2;"/>
   </g>
   <g id="patch_47">
    <path d="M 425.604235 166.052032 
Q 424.836965 166.052032 424.069695 166.052032 
" style="fill:none;opacity:0.5;stroke:#800080;stroke-linecap:round;stroke-width:2;"/>
    <path d="M 427.104235 167.552032 
L 425.604235 166.052032 
L 427.104235 164.552032 
" style="fill:none;opacity:0.5;stroke:#800080;stroke-linecap:round;stroke-width:2;"/>
    <path d="M 422.569695 164.552032 
L 424.069695 166.052032 
L 422.569695 167.552032 
" style="fill:none;opacity:0.5;stroke:#800080;stroke-linecap:round;stroke-width:2;"/>
   </g>
   <g id="patch_48">
    <path clip-path="url(#pd967120531)" d="M 251.326624 292.977549 
C 251.601138 292.977549 251.864446 292.893963 252.058557 292.745201 
C 252.252668 292.596439 252.361734 292.394646 252.361734 292.184264 
C 252.361734 291.973883 252.252668 291.77209 252.058557 291.623327 
C 251.864446 291.474565 251.601138 291.39098 251.326624 291.39098 
C 251.052109 291.39098 250.788801 291.474565 250.59469 291.623327 
C 250.400579 291.77209 250.291514 291.973883 250.291514 292.184264 
C 250.291514 292.394646 250.400579 292.596439 250.59469 292.745201 
C 250.788801 292.893963 251.052109 292.977549 251.326624 292.977549 
z
" style="fill:#ff0000;opacity:0.2;stroke:#ff0000;stroke-linejoin:miter;"/>
   </g>
   <g id="patch_49">
    <path clip-path="url(#pd967120531)" d="M 112.104307 158.119187 
C 112.378821 158.119187 112.642129 158.035601 112.83624 157.886839 
C 113.030351 157.738077 113.139417 157.536284 113.139417 157.325902 
C 113.139417 157.115521 113.030351 156.913728 112.83624 156.764966 
C 112.642129 156.616203 112.378821 156.532618 112.104307 156.532618 
C 111.829792 156.532618 111.566484 156.616203 111.372373 156.764966 
C 111.178262 156.913728 111.069197 157.115521 111.069197 157.325902 
C 111.069197 157.536284 111.178262 157.738077 111.372373 157.886839 
C 111.566484 158.035601 111.829792 158.119187 112.104307 158.119187 
z
" style="fill:#ff0000;opacity:0.2;stroke:#ff0000;stroke-linejoin:miter;"/>
   </g>
   <g id="patch_50">
    <path clip-path="url(#pd967120531)" d="M 235.799971 43.092937 
C 236.074486 43.092937 236.337794 43.009352 236.531905 42.860589 
C 236.726016 42.711827 236.835082 42.510034 236.835082 42.299653 
C 236.835082 42.089271 236.726016 41.887478 236.531905 41.738716 
C 236.337794 41.589954 236.074486 41.506368 235.799971 41.506368 
C 235.525457 41.506368 235.262149 41.589954 235.068038 41.738716 
C 234.873927 41.887478 234.764861 42.089271 234.764861 42.299653 
C 234.764861 42.510034 234.873927 42.711827 235.068038 42.860589 
C 235.262149 43.009352 235.525457 43.092937 235.799971 43.092937 
z
" style="fill:#ff0000;opacity:0.2;stroke:#ff0000;stroke-linejoin:miter;"/>
   </g>
   <g id="patch_51">
    <path clip-path="url(#pd967120531)" d="M 372.434513 179.141226 
C 372.709028 179.141226 372.972336 179.05764 373.166447 178.908878 
C 373.360558 178.760116 373.469623 178.558323 373.469623 178.347941 
C 373.469623 178.13756 373.360558 177.935766 373.166447 177.787004 
C 372.972336 177.638242 372.709028 177.554657 372.434513 177.554657 
C 372.159999 177.554657 371.896691 177.638242 371.70258 177.787004 
C 371.508469 177.935766 371.399403 178.13756 371.399403 178.347941 
C 371.399403 178.558323 371.508469 178.760116 371.70258 178.908878 
C 371.896691 179.05764 372.159999 179.141226 372.434513 179.141226 
z
" style="fill:#ff0000;opacity:0.2;stroke:#ff0000;stroke-linejoin:miter;"/>
   </g>
   <g id="patch_52">
    <path clip-path="url(#pd967120531)" d="M 342.675096 172.001665 
C 342.94961 172.001665 343.212918 171.91808 343.407029 171.769318 
C 343.60114 171.620555 343.710206 171.418762 343.710206 171.208381 
C 343.710206 170.997999 343.60114 170.796206 343.407029 170.647444 
C 343.212918 170.498682 342.94961 170.415096 342.675096 170.415096 
C 342.400581 170.415096 342.137273 170.498682 341.943162 170.647444 
C 341.749051 170.796206 341.639986 170.997999 341.639986 171.208381 
C 341.639986 171.418762 341.749051 171.620555 341.943162 171.769318 
C 342.137273 171.91808 342.400581 172.001665 342.675096 172.001665 
z
" style="fill:#0000ff;opacity:0.2;stroke:#0000ff;stroke-linejoin:miter;"/>
   </g>
   <g id="patch_53">
    <path clip-path="url(#pd967120531)" d="M 248.480071 287.027915 
C 248.754585 287.027915 249.017893 286.94433 249.212004 286.795567 
C 249.406115 286.646805 249.515181 286.445012 249.515181 286.234631 
C 249.515181 286.024249 249.406115 285.822456 249.212004 285.673694 
C 249.017893 285.524932 248.754585 285.441346 248.480071 285.441346 
C 248.205557 285.441346 247.942249 285.524932 247.748138 285.673694 
C 247.554027 285.822456 247.444961 286.024249 247.444961 286.234631 
C 247.444961 286.445012 247.554027 286.646805 247.748138 286.795567 
C 247.942249 286.94433 248.205557 287.027915 248.480071 287.027915 
z
" style="fill:#0000ff;opacity:0.2;stroke:#0000ff;stroke-linejoin:miter;"/>
   </g>
   <g id="patch_54">
    <path clip-path="url(#pd967120531)" d="M 141.863724 160.895683 
C 142.138238 160.895683 142.401546 160.812097 142.595657 160.663335 
C 142.789768 160.514573 142.898834 160.31278 142.898834 160.102398 
C 142.898834 159.892017 142.789768 159.690223 142.595657 159.541461 
C 142.401546 159.392699 142.138238 159.309114 141.863724 159.309114 
C 141.58921 159.309114 141.325902 159.392699 141.131791 159.541461 
C 140.93768 159.690223 140.828614 159.892017 140.828614 160.102398 
C 140.828614 160.31278 140.93768 160.514573 141.131791 160.663335 
C 141.325902 160.812097 141.58921 160.895683 141.863724 160.895683 
z
" style="fill:#0000ff;opacity:0.2;stroke:#0000ff;stroke-linejoin:miter;"/>
   </g>
   <g id="patch_55">
    <path clip-path="url(#pd967120531)" d="M 239.681635 49.042571 
C 239.956149 49.042571 240.219457 48.958985 240.413568 48.810223 
C 240.607679 48.661461 240.716745 48.459668 240.716745 48.249286 
C 240.716745 48.038905 240.607679 47.837112 240.413568 47.688349 
C 240.219457 47.539587 239.956149 47.456002 239.681635 47.456002 
C 239.40712 47.456002 239.143812 47.539587 238.949701 47.688349 
C 238.75559 47.837112 238.646524 48.038905 238.646524 48.249286 
C 238.646524 48.459668 238.75559 48.661461 238.949701 48.810223 
C 239.143812 48.958985 239.40712 49.042571 239.681635 49.042571 
z
" style="fill:#0000ff;opacity:0.2;stroke:#0000ff;stroke-linejoin:miter;"/>
   </g>
   <g id="patch_56">
    <path clip-path="url(#pd967120531)" d="M 251.326624 292.184264 
C 149.368273 292.184264 112.104307 216.028954 112.104307 157.325902 
C 112.104307 70.461252 181.974243 42.299653 235.799971 42.299653 
C 334.652992 42.299653 372.434513 112.901971 372.434513 178.347941 
C 372.434513 256.486463 313.433234 292.184264 251.326624 292.184264 
" style="fill:none;stroke:#ff0000;stroke-linejoin:miter;stroke-width:0.5;"/>
   </g>
   <g id="patch_57">
    <path clip-path="url(#pd967120531)" d="M 342.675096 171.208381 
C 342.675096 235.464424 316.279787 286.234631 248.480071 286.234631 
C 164.118593 286.234631 141.863724 208.492751 141.863724 160.102398 
C 141.863724 93.863144 176.022359 48.249286 239.681635 48.249286 
C 303.858465 48.249286 342.675096 103.382558 342.675096 171.208381 
" style="fill:none;stroke:#0000ff;stroke-linejoin:miter;stroke-width:0.5;"/>
   </g>
   <g id="patch_58">
    <path clip-path="url(#pd967120531)" d="M 251.326624 294.365796 
C 252.081539 294.365796 252.805636 294.135936 253.339441 293.72684 
C 253.873246 293.317744 254.173177 292.762813 254.173177 292.184264 
C 254.173177 291.605715 253.873246 291.050784 253.339441 290.641688 
C 252.805636 290.232592 252.081539 290.002732 251.326624 290.002732 
C 250.571709 290.002732 249.847612 290.232592 249.313807 290.641688 
C 248.780002 291.050784 248.480071 291.605715 248.480071 292.184264 
C 248.480071 292.762813 248.780002 293.317744 249.313807 293.72684 
C 249.847612 294.135936 250.571709 294.365796 251.326624 294.365796 
z
" style="fill:#0000ff;opacity:0.2;stroke:#0000ff;stroke-linejoin:miter;"/>
   </g>
   <g id="patch_59">
    <path clip-path="url(#pd967120531)" d="M 248.480071 288.416163 
C 249.234986 288.416163 249.959083 288.186303 250.492888 287.777207 
C 251.026693 287.368111 251.326624 286.81318 251.326624 286.234631 
C 251.326624 285.656081 251.026693 285.10115 250.492888 284.692054 
C 249.959083 284.282958 249.234986 284.053098 248.480071 284.053098 
C 247.725156 284.053098 247.001059 284.282958 246.467254 284.692054 
C 245.933449 285.10115 245.633518 285.656081 245.633518 286.234631 
C 245.633518 286.81318 245.933449 287.368111 246.467254 287.777207 
C 247.001059 288.186303 247.725156 288.416163 248.480071 288.416163 
z
" style="fill:#ff0000;opacity:0.2;stroke:#ff0000;stroke-linejoin:miter;"/>
   </g>
   <g id="patch_60">
    <path d="M 251.326624 292.184264 
Q 250.334917 290.111479 250.182453 289.79281 
" style="fill:none;opacity:0.5;stroke:#0000ff;stroke-linecap:round;stroke-width:2.75;"/>
    <path d="M 249.476729 291.793299 
L 250.182453 289.79281 
L 252.182941 290.498534 
" style="fill:none;opacity:0.5;stroke:#0000ff;stroke-linecap:round;stroke-width:2.75;"/>
   </g>
   <g id="patch_61">
    <path clip-path="url(#pd967120531)" d="M 112.104307 159.705756 
C 112.92785 159.705756 113.717774 159.454999 114.300107 159.008713 
C 114.88244 158.562426 115.209637 157.957047 115.209637 157.325902 
C 115.209637 156.694758 114.88244 156.089378 114.300107 155.643092 
C 113.717774 155.196805 112.92785 154.946049 112.104307 154.946049 
C 111.280764 154.946049 110.49084 155.196805 109.908507 155.643092 
C 109.326174 156.089378 108.998976 156.694758 108.998976 157.325902 
C 108.998976 157.957047 109.326174 158.562426 109.908507 159.008713 
C 110.49084 159.454999 111.280764 159.705756 112.104307 159.705756 
z
" style="fill:#0000ff;opacity:0.2;stroke:#0000ff;stroke-linejoin:miter;"/>
   </g>
   <g id="patch_62">
    <path clip-path="url(#pd967120531)" d="M 141.863724 162.482252 
C 142.687267 162.482252 143.477191 162.231495 144.059524 161.785209 
C 144.641857 161.338922 144.969055 160.733543 144.969055 160.102398 
C 144.969055 159.471254 144.641857 158.865874 144.059524 158.419588 
C 143.477191 157.973301 142.687267 157.722545 141.863724 157.722545 
C 141.040181 157.722545 140.250257 157.973301 139.667924 158.419588 
C 139.085591 158.865874 138.758394 159.471254 138.758394 160.102398 
C 138.758394 160.733543 139.085591 161.338922 139.667924 161.785209 
C 140.250257 162.231495 141.040181 162.482252 141.863724 162.482252 
z
" style="fill:#ff0000;opacity:0.2;stroke:#ff0000;stroke-linejoin:miter;"/>
   </g>
   <g id="patch_63">
    <path d="M 112.104307 157.325902 
Q 125.986828 158.621115 137.757201 159.719268 
" style="fill:none;opacity:0.5;stroke:#0000ff;stroke-linecap:round;stroke-width:3;"/>
    <path d="M 136.403029 158.086412 
L 137.757201 159.719268 
L 136.124346 161.073439 
" style="fill:none;opacity:0.5;stroke:#0000ff;stroke-linecap:round;stroke-width:3;"/>
   </g>
   <g id="patch_64">
    <path clip-path="url(#pd967120531)" d="M 235.799971 44.679506 
C 236.623515 44.679506 237.413439 44.42875 237.995772 43.982463 
C 238.578105 43.536177 238.905302 42.930797 238.905302 42.299653 
C 238.905302 41.668508 238.578105 41.063129 237.995772 40.616842 
C 237.413439 40.170556 236.623515 39.919799 235.799971 39.919799 
C 234.976428 39.919799 234.186504 40.170556 233.604171 40.616842 
C 233.021838 41.063129 232.694641 41.668508 232.694641 42.299653 
C 232.694641 42.930797 233.021838 43.536177 233.604171 43.982463 
C 234.186504 44.42875 234.976428 44.679506 235.799971 44.679506 
z
" style="fill:#0000ff;opacity:0.2;stroke:#0000ff;stroke-linejoin:miter;"/>
   </g>
   <g id="patch_65">
    <path clip-path="url(#pd967120531)" d="M 239.681635 50.62914 
C 240.505178 50.62914 241.295102 50.378383 241.877435 49.932097 
C 242.459768 49.48581 242.786965 48.880431 242.786965 48.249286 
C 242.786965 47.618142 242.459768 47.012762 241.877435 46.566476 
C 241.295102 46.120189 240.505178 45.869433 239.681635 45.869433 
C 238.858091 45.869433 238.068167 46.120189 237.485834 46.566476 
C 236.903501 47.012762 236.576304 47.618142 236.576304 48.249286 
C 236.576304 48.880431 236.903501 49.48581 237.485834 49.932097 
C 238.068167 50.378383 238.858091 50.62914 239.681635 50.62914 
z
" style="fill:#ff0000;opacity:0.2;stroke:#ff0000;stroke-linejoin:miter;"/>
   </g>
   <g id="patch_66">
    <path d="M 235.799971 42.299653 
Q 237.193996 44.43635 237.428905 44.796407 
" style="fill:none;opacity:0.5;stroke:#0000ff;stroke-linecap:round;stroke-width:3;"/>
    <path d="M 237.86556 42.720514 
L 237.428905 44.796407 
L 235.353012 44.359752 
" style="fill:none;opacity:0.5;stroke:#0000ff;stroke-linecap:round;stroke-width:3;"/>
   </g>
   <g id="patch_67">
    <path clip-path="url(#pd967120531)" d="M 372.434513 180.926116 
C 373.326685 180.926116 374.182436 180.654463 374.813297 180.170986 
C 375.444157 179.687509 375.798621 179.031681 375.798621 178.347941 
C 375.798621 177.664201 375.444157 177.008374 374.813297 176.524896 
C 374.182436 176.041419 373.326685 175.769767 372.434513 175.769767 
C 371.542341 175.769767 370.68659 176.041419 370.055729 176.524896 
C 369.424869 177.008374 369.070405 177.664201 369.070405 178.347941 
C 369.070405 179.031681 369.424869 179.687509 370.055729 180.170986 
C 370.68659 180.654463 371.542341 180.926116 372.434513 180.926116 
z
" style="fill:#0000ff;opacity:0.2;stroke:#0000ff;stroke-linejoin:miter;"/>
   </g>
   <g id="patch_68">
    <path clip-path="url(#pd967120531)" d="M 342.675096 173.786555 
C 343.567268 173.786555 344.423019 173.514903 345.053879 173.031426 
C 345.68474 172.547948 346.039204 171.892121 346.039204 171.208381 
C 346.039204 170.524641 345.68474 169.868813 345.053879 169.385336 
C 344.423019 168.901859 343.567268 168.630206 342.675096 168.630206 
C 341.782924 168.630206 340.927173 168.901859 340.296312 169.385336 
C 339.665451 169.868813 339.310988 170.524641 339.310988 171.208381 
C 339.310988 171.892121 339.665451 172.547948 340.296312 173.031426 
C 340.927173 173.514903 341.782924 173.786555 342.675096 173.786555 
z
" style="fill:#ff0000;opacity:0.2;stroke:#ff0000;stroke-linejoin:miter;"/>
   </g>
   <g id="patch_69">
    <path d="M 372.434513 178.347941 
Q 358.526563 175.011295 346.853299 172.21077 
" style="fill:none;opacity:0.5;stroke:#0000ff;stroke-linecap:round;stroke-width:3.25;"/>
    <path d="M 347.961976 174.019316 
L 346.853299 172.21077 
L 348.661844 171.102094 
" style="fill:none;opacity:0.5;stroke:#0000ff;stroke-linecap:round;stroke-width:3.25;"/>
   </g>
   <g id="patch_70">
    <path clip-path="url(#pd967120531)" d="M 342.675096 173.588234 
C 343.498639 173.588234 344.288563 173.337478 344.870896 172.891191 
C 345.453229 172.444905 345.780426 171.839525 345.780426 171.208381 
C 345.780426 170.577236 345.453229 169.971857 344.870896 169.52557 
C 344.288563 169.079284 343.498639 168.828527 342.675096 168.828527 
C 341.851553 168.828527 341.061629 169.079284 340.479296 169.52557 
C 339.896963 169.971857 339.569765 170.577236 339.569765 171.208381 
C 339.569765 171.839525 339.896963 172.444905 340.479296 172.891191 
C 341.061629 173.337478 341.851553 173.588234 342.675096 173.588234 
z
" style="fill:#0000ff;opacity:0.2;stroke:#0000ff;stroke-linejoin:miter;"/>
   </g>
   <g id="patch_71">
    <path clip-path="url(#pd967120531)" d="M 372.434513 180.727795 
C 373.258056 180.727795 374.04798 180.477038 374.630313 180.030752 
C 375.212646 179.584465 375.539844 178.979086 375.539844 178.347941 
C 375.539844 177.716797 375.212646 177.111417 374.630313 176.665131 
C 374.04798 176.218844 373.258056 175.968088 372.434513 175.968088 
C 371.61097 175.968088 370.821046 176.218844 370.238713 176.665131 
C 369.65638 177.111417 369.329183 177.716797 369.329183 178.347941 
C 369.329183 178.979086 369.65638 179.584465 370.238713 180.030752 
C 370.821046 180.477038 371.61097 180.727795 372.434513 180.727795 
z
" style="fill:#ff0000;opacity:0.2;stroke:#ff0000;stroke-linejoin:miter;"/>
   </g>
   <g id="patch_72">
    <path d="M 342.675096 171.208381 
Q 356.583046 174.545027 368.428209 177.386792 
" style="fill:none;opacity:0.5;stroke:#ff0000;stroke-linecap:round;stroke-width:3;"/>
    <path d="M 367.319532 175.578246 
L 368.428209 177.386792 
L 366.619664 178.495468 
" style="fill:none;opacity:0.5;stroke:#ff0000;stroke-linecap:round;stroke-width:3;"/>
   </g>
   <g id="patch_73">
    <path clip-path="url(#pd967120531)" d="M 248.480071 288.416163 
C 249.234986 288.416163 249.959083 288.186303 250.492888 287.777207 
C 251.026693 287.368111 251.326624 286.81318 251.326624 286.234631 
C 251.326624 285.656081 251.026693 285.10115 250.492888 284.692054 
C 249.959083 284.282958 249.234986 284.053098 248.480071 284.053098 
C 247.725156 284.053098 247.001059 284.282958 246.467254 284.692054 
C 245.933449 285.10115 245.633518 285.656081 245.633518 286.234631 
C 245.633518 286.81318 245.933449 287.368111 246.467254 287.777207 
C 247.001059 288.186303 247.725156 288.416163 248.480071 288.416163 
z
" style="fill:#0000ff;opacity:0.2;stroke:#0000ff;stroke-linejoin:miter;"/>
   </g>
   <g id="patch_74">
    <path clip-path="url(#pd967120531)" d="M 251.326624 294.365796 
C 252.081539 294.365796 252.805636 294.135936 253.339441 293.72684 
C 253.873246 293.317744 254.173177 292.762813 254.173177 292.184264 
C 254.173177 291.605715 253.873246 291.050784 253.339441 290.641688 
C 252.805636 290.232592 252.081539 290.002732 251.326624 290.002732 
C 250.571709 290.002732 249.847612 290.232592 249.313807 290.641688 
C 248.780002 291.050784 248.480071 291.605715 248.480071 292.184264 
C 248.480071 292.762813 248.780002 293.317744 249.313807 293.72684 
C 249.847612 294.135936 250.571709 294.365796 251.326624 294.365796 
z
" style="fill:#ff0000;opacity:0.2;stroke:#ff0000;stroke-linejoin:miter;"/>
   </g>
   <g id="patch_75">
    <path d="M 248.480071 286.234631 
Q 249.471778 288.307416 249.624242 288.626085 
" style="fill:none;opacity:0.5;stroke:#ff0000;stroke-linecap:round;stroke-width:2.75;"/>
    <path d="M 250.329966 286.625596 
L 249.624242 288.626085 
L 247.623754 287.920361 
" style="fill:none;opacity:0.5;stroke:#ff0000;stroke-linecap:round;stroke-width:2.75;"/>
   </g>
   <g id="patch_76">
    <path clip-path="url(#pd967120531)" d="M 141.863724 162.482252 
C 142.687267 162.482252 143.477191 162.231495 144.059524 161.785209 
C 144.641857 161.338922 144.969055 160.733543 144.969055 160.102398 
C 144.969055 159.471254 144.641857 158.865874 144.059524 158.419588 
C 143.477191 157.973301 142.687267 157.722545 141.863724 157.722545 
C 141.040181 157.722545 140.250257 157.973301 139.667924 158.419588 
C 139.085591 158.865874 138.758394 159.471254 138.758394 160.102398 
C 138.758394 160.733543 139.085591 161.338922 139.667924 161.785209 
C 140.250257 162.231495 141.040181 162.482252 141.863724 162.482252 
z
" style="fill:#0000ff;opacity:0.2;stroke:#0000ff;stroke-linejoin:miter;"/>
   </g>
   <g id="patch_77">
    <path clip-path="url(#pd967120531)" d="M 112.104307 159.705756 
C 112.92785 159.705756 113.717774 159.454999 114.300107 159.008713 
C 114.88244 158.562426 115.209637 157.957047 115.209637 157.325902 
C 115.209637 156.694758 114.88244 156.089378 114.300107 155.643092 
C 113.717774 155.196805 112.92785 154.946049 112.104307 154.946049 
C 111.280764 154.946049 110.49084 155.196805 109.908507 155.643092 
C 109.326174 156.089378 108.998976 156.694758 108.998976 157.325902 
C 108.998976 157.957047 109.326174 158.562426 109.908507 159.008713 
C 110.49084 159.454999 111.280764 159.705756 112.104307 159.705756 
z
" style="fill:#ff0000;opacity:0.2;stroke:#ff0000;stroke-linejoin:miter;"/>
   </g>
   <g id="patch_78">
    <path d="M 141.863724 160.102398 
Q 127.981203 158.807186 116.210829 157.709033 
" style="fill:none;opacity:0.5;stroke:#ff0000;stroke-linecap:round;stroke-width:3;"/>
    <path d="M 117.565001 159.341889 
L 116.210829 157.709033 
L 117.843685 156.354861 
" style="fill:none;opacity:0.5;stroke:#ff0000;stroke-linecap:round;stroke-width:3;"/>
   </g>
   <g id="patch_79">
    <path clip-path="url(#pd967120531)" d="M 239.681635 50.827461 
C 240.573806 50.827461 241.429557 50.555808 242.060418 50.072331 
C 242.691279 49.588854 243.045743 48.933026 243.045743 48.249286 
C 243.045743 47.565546 242.691279 46.909719 242.060418 46.426242 
C 241.429557 45.942764 240.573806 45.671112 239.681635 45.671112 
C 238.789463 45.671112 237.933712 45.942764 237.302851 46.426242 
C 236.67199 46.909719 236.317527 47.565546 236.317527 48.249286 
C 236.317527 48.933026 236.67199 49.588854 237.302851 50.072331 
C 237.933712 50.555808 238.789463 50.827461 239.681635 50.827461 
z
" style="fill:#0000ff;opacity:0.2;stroke:#0000ff;stroke-linejoin:miter;"/>
   </g>
   <g id="patch_80">
    <path clip-path="url(#pd967120531)" d="M 235.799971 44.877827 
C 236.692143 44.877827 237.547894 44.606174 238.178755 44.122697 
C 238.809616 43.63922 239.164079 42.983393 239.164079 42.299653 
C 239.164079 41.615913 238.809616 40.960085 238.178755 40.476608 
C 237.547894 39.993131 236.692143 39.721478 235.799971 39.721478 
C 234.9078 39.721478 234.052049 39.993131 233.421188 40.476608 
C 232.790327 40.960085 232.435863 41.615913 232.435863 42.299653 
C 232.435863 42.983393 232.790327 43.63922 233.421188 44.122697 
C 234.052049 44.606174 234.9078 44.877827 235.799971 44.877827 
z
" style="fill:#ff0000;opacity:0.2;stroke:#ff0000;stroke-linejoin:miter;"/>
   </g>
   <g id="patch_81">
    <path d="M 239.681635 48.249286 
Q 238.28761 46.112589 238.149294 45.900585 
" style="fill:none;opacity:0.5;stroke:#ff0000;stroke-linecap:round;stroke-width:3.25;"/>
    <path d="M 237.712639 47.976479 
L 238.149294 45.900585 
L 240.225187 46.33724 
" style="fill:none;opacity:0.5;stroke:#ff0000;stroke-linecap:round;stroke-width:3.25;"/>
   </g>
   <g id="patch_82">
    <path clip-path="url(#pd967120531)" d="M 249.903347 291.192659 
C 250.589633 291.192659 251.247903 290.983695 251.733181 290.611789 
C 252.218458 290.239884 252.491123 289.735401 252.491123 289.209447 
C 252.491123 288.683494 252.218458 288.179011 251.733181 287.807105 
C 251.247903 287.4352 250.589633 287.226236 249.903347 287.226236 
C 249.217061 287.226236 248.558791 287.4352 248.073514 287.807105 
C 247.588236 288.179011 247.315572 288.683494 247.315572 289.209447 
C 247.315572 289.735401 247.588236 290.239884 248.073514 290.611789 
C 248.558791 290.983695 249.217061 291.192659 249.903347 291.192659 
z
" style="fill:#008000;opacity:0.2;stroke:#008000;stroke-linejoin:miter;"/>
   </g>
   <g id="patch_83">
    <path clip-path="url(#pd967120531)" d="M 126.984015 160.697361 
C 127.670301 160.697361 128.328571 160.488398 128.813849 160.116492 
C 129.299126 159.744587 129.571791 159.240104 129.571791 158.71415 
C 129.571791 158.188196 129.299126 157.683714 128.813849 157.311808 
C 128.328571 156.939903 127.670301 156.730939 126.984015 156.730939 
C 126.297729 156.730939 125.639459 156.939903 125.154182 157.311808 
C 124.668904 157.683714 124.39624 158.188196 124.39624 158.71415 
C 124.39624 159.240104 124.668904 159.744587 125.154182 160.116492 
C 125.639459 160.488398 126.297729 160.697361 126.984015 160.697361 
z
" style="fill:#008000;opacity:0.2;stroke:#008000;stroke-linejoin:miter;"/>
   </g>
   <g id="patch_84">
    <path clip-path="url(#pd967120531)" d="M 237.740803 47.257681 
C 238.427089 47.257681 239.085359 47.048717 239.570637 46.676812 
C 240.055914 46.304906 240.328578 45.800423 240.328578 45.274469 
C 240.328578 44.748516 240.055914 44.244033 239.570637 43.872127 
C 239.085359 43.500222 238.427089 43.291258 237.740803 43.291258 
C 237.054517 43.291258 236.396247 43.500222 235.910969 43.872127 
C 235.425692 44.244033 235.153028 44.748516 235.153028 45.274469 
C 235.153028 45.800423 235.425692 46.304906 235.910969 46.676812 
C 236.396247 47.048717 237.054517 47.257681 237.740803 47.257681 
z
" style="fill:#008000;opacity:0.2;stroke:#008000;stroke-linejoin:miter;"/>
   </g>
   <g id="patch_85">
    <path clip-path="url(#pd967120531)" d="M 357.554804 176.761372 
C 358.241091 176.761372 358.899361 176.552409 359.384638 176.180503 
C 359.869916 175.808598 360.14258 175.304115 360.14258 174.778161 
C 360.14258 174.252207 359.869916 173.747724 359.384638 173.375819 
C 358.899361 173.003913 358.241091 172.79495 357.554804 172.79495 
C 356.868518 172.79495 356.210248 173.003913 355.724971 173.375819 
C 355.239693 173.747724 354.967029 174.252207 354.967029 174.778161 
C 354.967029 175.304115 355.239693 175.808598 355.724971 176.180503 
C 356.210248 176.552409 356.868518 176.761372 357.554804 176.761372 
z
" style="fill:#008000;opacity:0.2;stroke:#008000;stroke-linejoin:miter;"/>
   </g>
   <g id="patch_86">
    <path d="M 249.903347 289.209447 
Q 188.443681 223.961799 126.984015 158.71415 
" style="fill:none;opacity:0.5;stroke:#008000;stroke-linecap:round;stroke-width:2;"/>
   </g>
   <g id="patch_87">
    <path d="M 250.716266 290.908544 
Q 250.334917 290.111479 249.953568 289.314415 
" style="fill:none;opacity:0.5;stroke:#800080;stroke-linecap:round;stroke-width:2;"/>
    <path d="M 251.42199 288.908055 
L 250.716266 290.908544 
L 248.715777 290.20282 
" style="fill:none;opacity:0.5;stroke:#800080;stroke-linecap:round;stroke-width:2;"/>
    <path d="M 249.247845 291.314903 
L 249.953568 289.314415 
L 251.954057 290.020139 
" style="fill:none;opacity:0.5;stroke:#800080;stroke-linecap:round;stroke-width:2;"/>
   </g>
   <g id="patch_88">
    <path d="M 126.984015 158.71415 
Q 182.362409 101.99431 237.740803 45.274469 
" style="fill:none;opacity:0.5;stroke:#008000;stroke-linecap:round;stroke-width:2;"/>
   </g>
   <g id="patch_89">
    <path d="M 113.512405 157.457275 
Q 125.986828 158.621115 138.461251 159.784954 
" style="fill:none;opacity:0.5;stroke:#800080;stroke-linecap:round;stroke-width:2;"/>
    <path d="M 114.866577 159.090131 
L 113.512405 157.457275 
L 115.145261 156.103103 
" style="fill:none;opacity:0.5;stroke:#800080;stroke-linecap:round;stroke-width:2;"/>
    <path d="M 137.107079 158.152098 
L 138.461251 159.784954 
L 136.828395 161.139126 
" style="fill:none;opacity:0.5;stroke:#800080;stroke-linecap:round;stroke-width:2;"/>
   </g>
   <g id="patch_90">
    <path d="M 237.740803 45.274469 
Q 297.647804 110.026315 357.554804 174.778161 
" style="fill:none;opacity:0.5;stroke:#008000;stroke-linecap:round;stroke-width:2;"/>
   </g>
   <g id="patch_91">
    <path d="M 236.572716 43.484079 
Q 237.193996 44.43635 237.815277 45.38862 
" style="fill:none;opacity:0.5;stroke:#800080;stroke-linecap:round;stroke-width:2;"/>
    <path d="M 236.136061 45.559972 
L 236.572716 43.484079 
L 238.648609 43.920734 
" style="fill:none;opacity:0.5;stroke:#800080;stroke-linecap:round;stroke-width:2;"/>
    <path d="M 238.251932 43.312727 
L 237.815277 45.38862 
L 235.739384 44.951965 
" style="fill:none;opacity:0.5;stroke:#800080;stroke-linecap:round;stroke-width:2;"/>
   </g>
   <g id="patch_92">
    <path d="M 357.554804 174.778161 
Q 303.729076 231.993804 249.903347 289.209447 
" style="fill:none;opacity:0.5;stroke:#008000;stroke-linecap:round;stroke-width:2;"/>
   </g>
   <g id="patch_93">
    <path d="M 371.059321 178.01802 
Q 358.526563 175.011295 345.993804 172.00457 
" style="fill:none;opacity:0.5;stroke:#800080;stroke-linecap:round;stroke-width:2;"/>
    <path d="M 369.950645 176.209475 
L 371.059321 178.01802 
L 369.250776 179.126697 
" style="fill:none;opacity:0.5;stroke:#800080;stroke-linecap:round;stroke-width:2;"/>
    <path d="M 347.102481 173.813115 
L 345.993804 172.00457 
L 347.802349 170.895893 
" style="fill:none;opacity:0.5;stroke:#800080;stroke-linecap:round;stroke-width:2;"/>
   </g>
   <g id="line2d_1">
    <path clip-path="url(#pd967120531)" d="M 244.598408 304.480174 
L 60.348799 170.018454 
L 244.598408 30.003743 
L 424.190021 166.052032 
" style="fill:none;stroke:#ff0000;stroke-linecap:square;stroke-width:0.2;"/>
   </g>
   <g id="line2d_2">
    <path clip-path="url(#pd967120531)" d="M 243.822075 30.003743 
L 425.483909 166.052032 
L 238.646524 304.480174 
L 59.054911 169.22517 
" style="fill:none;stroke:#0000ff;stroke-linecap:square;stroke-width:0.2;"/>
   </g>
   <g id="line2d_3">
    <path clip-path="url(#pd967120531)" d="M 251.326624 292.184264 
L 112.104307 157.325902 
L 235.799971 42.299653 
L 372.434513 178.347941 
" style="fill:none;stroke:#ff0000;stroke-linecap:square;stroke-width:0.2;"/>
   </g>
   <g id="line2d_4">
    <path clip-path="url(#pd967120531)" d="M 342.675096 171.208381 
L 248.480071 286.234631 
L 141.863724 160.102398 
L 239.681635 48.249286 
" style="fill:none;stroke:#0000ff;stroke-linecap:square;stroke-width:0.2;"/>
   </g>
  </g>
 </g>
 <defs>
  <clipPath id="pd967120531">
   <rect height="307.377904" width="409.903625" x="37.576375" y="13.453846"/>
  </clipPath>
 </defs>
</svg>
