<?xml version="1.0" encoding="utf-8" standalone="no"?>
<!DOCTYPE svg PUBLIC "-//W3C//DTD SVG 1.1//EN"
  "http://www.w3.org/Graphics/SVG/1.1/DTD/svg11.dtd">
<!-- Created with matplotlib (http://matplotlib.org/) -->
<svg height="345.6pt" version="1.1" viewBox="0 0 460.8 345.6" width="460.8pt" xmlns="http://www.w3.org/2000/svg" xmlns:xlink="http://www.w3.org/1999/xlink">
 <defs>
  <style type="text/css">
*{stroke-linecap:butt;stroke-linejoin:round;}
  </style>
 </defs>
 <g id="figure_1">
  <g id="patch_1">
   <path d="M 0 345.6 
L 460.8 345.6 
L 460.8 0 
L 0 0 
z
" style="fill:#ffffff;"/>
  </g>
  <g id="axes_1">
   <g id="patch_2">
    <path clip-path="url(#p17fc242e4d)" d="M 60.090021 287.57421 
C 61.11945 287.57421 62.106855 287.32028 62.834771 286.868347 
C 63.562688 286.416413 63.971684 285.803374 63.971684 285.164243 
C 63.971684 284.525112 63.562688 283.912073 62.834771 283.460139 
C 62.106855 283.008206 61.11945 282.754276 60.090021 282.754276 
C 59.060592 282.754276 58.073187 283.008206 57.345271 283.460139 
C 56.617354 283.912073 56.208358 284.525112 56.208358 285.164243 
C 56.208358 285.803374 56.617354 286.416413 57.345271 286.868347 
C 58.073187 287.32028 59.060592 287.57421 60.090021 287.57421 
z
" style="fill:#ff0000;opacity:0.2;stroke:#ff0000;stroke-linejoin:miter;stroke-width:2;"/>
   </g>
   <g id="patch_3">
    <path clip-path="url(#p17fc242e4d)" d="M 236.705693 68.267241 
C 237.735122 68.267241 238.722527 68.013311 239.450443 67.561378 
C 240.178359 67.109444 240.587356 66.496405 240.587356 65.857274 
C 240.587356 65.218143 240.178359 64.605104 239.450443 64.15317 
C 238.722527 63.701237 237.735122 63.447307 236.705693 63.447307 
C 235.676264 63.447307 234.688859 63.701237 233.960943 64.15317 
C 233.233026 64.605104 232.82403 65.218143 232.82403 65.857274 
C 232.82403 66.496405 233.233026 67.109444 233.960943 67.561378 
C 234.688859 68.013311 235.676264 68.267241 236.705693 68.267241 
z
" style="fill:#ff0000;opacity:0.2;stroke:#ff0000;stroke-linejoin:miter;stroke-width:2;"/>
   </g>
   <g id="patch_4">
    <path clip-path="url(#p17fc242e4d)" d="M 296.871471 32.11774 
C 297.9009 32.11774 298.888305 31.863811 299.616221 31.411877 
C 300.344138 30.959944 300.753134 30.346904 300.753134 29.707774 
C 300.753134 29.068643 300.344138 28.455603 299.616221 28.00367 
C 298.888305 27.551736 297.9009 27.297807 296.871471 27.297807 
C 295.842042 27.297807 294.854637 27.551736 294.126721 28.00367 
C 293.398805 28.455603 292.989808 29.068643 292.989808 29.707774 
C 292.989808 30.346904 293.398805 30.959944 294.126721 31.411877 
C 294.854637 31.863811 295.842042 32.11774 296.871471 32.11774 
z
" style="fill:#ff0000;opacity:0.2;stroke:#ff0000;stroke-linejoin:miter;stroke-width:2;"/>
   </g>
   <g id="patch_5">
    <path clip-path="url(#p17fc242e4d)" d="M 372.563902 51.397474 
C 373.593331 51.397474 374.580736 51.143544 375.308652 50.691611 
C 376.036568 50.239677 376.445565 49.626638 376.445565 48.987507 
C 376.445565 48.348376 376.036568 47.735337 375.308652 47.283403 
C 374.580736 46.83147 373.593331 46.57754 372.563902 46.57754 
C 371.534473 46.57754 370.547068 46.83147 369.819152 47.283403 
C 369.091235 47.735337 368.682239 48.348376 368.682239 48.987507 
C 368.682239 49.626638 369.091235 50.239677 369.819152 50.691611 
C 370.547068 51.143544 371.534473 51.397474 372.563902 51.397474 
z
" style="fill:#ff0000;opacity:0.2;stroke:#ff0000;stroke-linejoin:miter;stroke-width:2;"/>
   </g>
   <g id="patch_6">
    <path clip-path="url(#p17fc242e4d)" d="M 424.966354 94.776874 
C 425.995783 94.776874 426.983188 94.522945 427.711104 94.071011 
C 428.439021 93.619078 428.848017 93.006038 428.848017 92.366908 
C 428.848017 91.727777 428.439021 91.114737 427.711104 90.662804 
C 426.983188 90.21087 425.995783 89.956941 424.966354 89.956941 
C 423.936925 89.956941 422.94952 90.21087 422.221604 90.662804 
C 421.493687 91.114737 421.084691 91.727777 421.084691 92.366908 
C 421.084691 93.006038 421.493687 93.619078 422.221604 94.071011 
C 422.94952 94.522945 423.936925 94.776874 424.966354 94.776874 
z
" style="fill:#ff0000;opacity:0.2;stroke:#ff0000;stroke-linejoin:miter;stroke-width:2;"/>
   </g>
   <g id="patch_7">
    <path clip-path="url(#p17fc242e4d)" d="M 382.26806 139.361258 
C 383.297489 139.361258 384.284894 139.107329 385.01281 138.655395 
C 385.740726 138.203462 386.149723 137.590422 386.149723 136.951291 
C 386.149723 136.312161 385.740726 135.699121 385.01281 135.247188 
C 384.284894 134.795254 383.297489 134.541325 382.26806 134.541325 
C 381.238631 134.541325 380.251226 134.795254 379.523309 135.247188 
C 378.795393 135.699121 378.386397 136.312161 378.386397 136.951291 
C 378.386397 137.590422 378.795393 138.203462 379.523309 138.655395 
C 380.251226 139.107329 381.238631 139.361258 382.26806 139.361258 
z
" style="fill:#ff0000;opacity:0.2;stroke:#ff0000;stroke-linejoin:miter;stroke-width:2;"/>
   </g>
   <g id="patch_8">
    <path clip-path="url(#p17fc242e4d)" d="M 108.61081 306.853943 
C 109.640239 306.853943 110.627644 306.600014 111.35556 306.14808 
C 112.083477 305.696147 112.492473 305.083107 112.492473 304.443976 
C 112.492473 303.804846 112.083477 303.191806 111.35556 302.739873 
C 110.627644 302.287939 109.640239 302.03401 108.61081 302.03401 
C 107.581381 302.03401 106.593976 302.287939 105.86606 302.739873 
C 105.138143 303.191806 104.729147 303.804846 104.729147 304.443976 
C 104.729147 305.083107 105.138143 305.696147 105.86606 306.14808 
C 106.593976 306.600014 107.581381 306.853943 108.61081 306.853943 
z
" style="fill:#ff0000;opacity:0.2;stroke:#ff0000;stroke-linejoin:miter;stroke-width:2;"/>
   </g>
   <g id="patch_9">
    <path clip-path="url(#p17fc242e4d)" d="M 364.800576 146.591158 
C 365.830005 146.591158 366.81741 146.337229 367.545326 145.885295 
C 368.273242 145.433362 368.682239 144.820322 368.682239 144.181191 
C 368.682239 143.542061 368.273242 142.929021 367.545326 142.477088 
C 366.81741 142.025154 365.830005 141.771225 364.800576 141.771225 
C 363.771147 141.771225 362.783742 142.025154 362.055825 142.477088 
C 361.327909 142.929021 360.918913 143.542061 360.918913 144.181191 
C 360.918913 144.820322 361.327909 145.433362 362.055825 145.885295 
C 362.783742 146.337229 363.771147 146.591158 364.800576 146.591158 
z
" style="fill:#0000ff;opacity:0.2;stroke:#0000ff;stroke-linejoin:miter;stroke-width:2;"/>
   </g>
   <g id="patch_10">
    <path clip-path="url(#p17fc242e4d)" d="M 122.196631 303.238993 
C 123.22606 303.238993 124.213465 302.985064 124.941381 302.53313 
C 125.669298 302.081197 126.078294 301.468157 126.078294 300.829026 
C 126.078294 300.189896 125.669298 299.576856 124.941381 299.124923 
C 124.213465 298.672989 123.22606 298.41906 122.196631 298.41906 
C 121.167202 298.41906 120.179797 298.672989 119.451881 299.124923 
C 118.723964 299.576856 118.314968 300.189896 118.314968 300.829026 
C 118.314968 301.468157 118.723964 302.081197 119.451881 302.53313 
C 120.179797 302.985064 121.167202 303.238993 122.196631 303.238993 
z
" style="fill:#0000ff;opacity:0.2;stroke:#0000ff;stroke-linejoin:miter;stroke-width:2;"/>
   </g>
   <g id="patch_11">
    <path clip-path="url(#p17fc242e4d)" d="M 89.202494 289.984176 
C 90.231924 289.984176 91.219328 289.730247 91.947245 289.278313 
C 92.675161 288.82638 93.084158 288.21334 93.084158 287.57421 
C 93.084158 286.935079 92.675161 286.322039 91.947245 285.870106 
C 91.219328 285.418172 90.231924 285.164243 89.202494 285.164243 
C 88.173065 285.164243 87.18566 285.418172 86.457744 285.870106 
C 85.729828 286.322039 85.320831 286.935079 85.320831 287.57421 
C 85.320831 288.21334 85.729828 288.82638 86.457744 289.278313 
C 87.18566 289.730247 88.173065 289.984176 89.202494 289.984176 
z
" style="fill:#0000ff;opacity:0.2;stroke:#0000ff;stroke-linejoin:miter;stroke-width:2;"/>
   </g>
   <g id="patch_12">
    <path clip-path="url(#p17fc242e4d)" d="M 256.114008 93.571891 
C 257.143437 93.571891 258.130842 93.317962 258.858759 92.866028 
C 259.586675 92.414094 259.995672 91.801055 259.995672 91.161924 
C 259.995672 90.522794 259.586675 89.909754 258.858759 89.45782 
C 258.130842 89.005887 257.143437 88.751957 256.114008 88.751957 
C 255.084579 88.751957 254.097174 89.005887 253.369258 89.45782 
C 252.641342 89.909754 252.232345 90.522794 252.232345 91.161924 
C 252.232345 91.801055 252.641342 92.414094 253.369258 92.866028 
C 254.097174 93.317962 255.084579 93.571891 256.114008 93.571891 
z
" style="fill:#0000ff;opacity:0.2;stroke:#0000ff;stroke-linejoin:miter;stroke-width:2;"/>
   </g>
   <g id="patch_13">
    <path clip-path="url(#p17fc242e4d)" d="M 302.693966 64.652291 
C 303.723395 64.652291 304.7108 64.398361 305.438716 63.946428 
C 306.166632 63.494494 306.575629 62.881455 306.575629 62.242324 
C 306.575629 61.603193 306.166632 60.990154 305.438716 60.53822 
C 304.7108 60.086286 303.723395 59.832357 302.693966 59.832357 
C 301.664537 59.832357 300.677132 60.086286 299.949215 60.53822 
C 299.221299 60.990154 298.812303 61.603193 298.812303 62.242324 
C 298.812303 62.881455 299.221299 63.494494 299.949215 63.946428 
C 300.677132 64.398361 301.664537 64.652291 302.693966 64.652291 
z
" style="fill:#0000ff;opacity:0.2;stroke:#0000ff;stroke-linejoin:miter;stroke-width:2;"/>
   </g>
   <g id="patch_14">
    <path clip-path="url(#p17fc242e4d)" d="M 362.859744 82.727041 
C 363.889173 82.727041 364.876578 82.473111 365.604494 82.021178 
C 366.332411 81.569244 366.741407 80.956205 366.741407 80.317074 
C 366.741407 79.677943 366.332411 79.064904 365.604494 78.61297 
C 364.876578 78.161037 363.889173 77.907107 362.859744 77.907107 
C 361.830315 77.907107 360.84291 78.161037 360.114994 78.61297 
C 359.387077 79.064904 358.978081 79.677943 358.978081 80.317074 
C 358.978081 80.956205 359.387077 81.569244 360.114994 82.021178 
C 360.84291 82.473111 361.830315 82.727041 362.859744 82.727041 
z
" style="fill:#0000ff;opacity:0.2;stroke:#0000ff;stroke-linejoin:miter;stroke-width:2;"/>
   </g>
   <g id="patch_15">
    <path clip-path="url(#p17fc242e4d)" d="M 395.853881 114.056608 
C 396.88331 114.056608 397.870715 113.802678 398.598631 113.350745 
C 399.326547 112.898811 399.735544 112.285772 399.735544 111.646641 
C 399.735544 111.00751 399.326547 110.394471 398.598631 109.942537 
C 397.870715 109.490604 396.88331 109.236674 395.853881 109.236674 
C 394.824451 109.236674 393.837047 109.490604 393.10913 109.942537 
C 392.381214 110.394471 391.972217 111.00751 391.972217 111.646641 
C 391.972217 112.285772 392.381214 112.898811 393.10913 113.350745 
C 393.837047 113.802678 394.824451 114.056608 395.853881 114.056608 
z
" style="fill:#0000ff;opacity:0.2;stroke:#0000ff;stroke-linejoin:miter;stroke-width:2;"/>
   </g>
   <g id="patch_16">
    <path clip-path="url(#p17fc242e4d)" d="M 60.090021 285.164243 
L 236.705693 65.857274 
C 258.05484 38.142657 277.463156 29.707774 296.871471 29.707774 
C 318.220618 29.707774 339.569765 34.527707 372.563902 48.987507 
C 407.49887 65.857274 424.966354 79.112091 424.966354 92.366908 
C 424.966354 105.621724 407.49887 121.286508 382.26806 136.951291 
L 108.61081 304.443976 
C 81.439168 306.853943 63.971684 299.624043 60.090021 285.164243 
" style="fill:none;stroke:#ff0000;stroke-linejoin:miter;stroke-width:0.5;"/>
   </g>
   <g id="patch_17">
    <path clip-path="url(#p17fc242e4d)" d="M 364.800576 144.181191 
L 122.196631 300.829026 
C 108.61081 302.03401 91.143326 296.009093 89.202494 287.57421 
L 256.114008 91.161924 
C 267.758998 77.907107 283.28565 62.242324 302.693966 62.242324 
C 316.279787 62.242324 339.569765 68.267241 362.859744 80.317074 
C 382.26806 89.956941 395.853881 102.006774 395.853881 111.646641 
C 395.853881 118.876541 384.208891 132.131358 364.800576 144.181191 
" style="fill:none;stroke:#0000ff;stroke-linejoin:miter;stroke-width:0.5;"/>
   </g>
   <g id="[&quot;g_s&quot;:1,&quot;g_t&quot;:3,&quot;coords&quot;:[[146.0, -227.0],[161.0, -229.0]],&quot;certainty&quot;:10]">
    <path clip-path="url(#p17fc242e4d)" d="M 60.090021 291.791651 
C 62.920951 291.791651 65.636315 291.093346 67.638084 289.850528 
C 69.639854 288.607711 70.764595 286.921852 70.764595 285.164243 
C 70.764595 283.406634 69.639854 281.720775 67.638084 280.477958 
C 65.636315 279.23514 62.920951 278.536835 60.090021 278.536835 
C 57.259091 278.536835 54.543728 279.23514 52.541958 280.477958 
C 50.540188 281.720775 49.415448 283.406634 49.415448 285.164243 
C 49.415448 286.921852 50.540188 288.607711 52.541958 289.850528 
C 54.543728 291.093346 57.259091 291.791651 60.090021 291.791651 
z
" style="fill:#0000ff;opacity:0.2;stroke:#0000ff;stroke-linejoin:miter;stroke-width:2;"/>
   </g>
   <g id="[&quot;g_s&quot;:3,&quot;g_t&quot;:1,&quot;coords&quot;:[[161.0, -229.0],[146.0, -227.0]],&quot;certainty&quot;:10]">
    <path clip-path="url(#p17fc242e4d)" d="M 89.202494 294.201618 
C 92.033424 294.201618 94.748788 293.503312 96.750558 292.260495 
C 98.752328 291.017678 99.877068 289.331819 99.877068 287.57421 
C 99.877068 285.8166 98.752328 284.130742 96.750558 282.887924 
C 94.748788 281.645107 92.033424 280.946801 89.202494 280.946801 
C 86.371564 280.946801 83.656201 281.645107 81.654431 282.887924 
C 79.652661 284.130742 78.527921 285.8166 78.527921 287.57421 
C 78.527921 289.331819 79.652661 291.017678 81.654431 292.260495 
C 83.656201 293.503312 86.371564 294.201618 89.202494 294.201618 
z
" style="fill:#ff0000;opacity:0.2;stroke:#ff0000;stroke-linejoin:miter;stroke-width:2;"/>
   </g>
   <g id="patch_18">
    <path d="M 60.090021 285.164243 
Q 73.649426 286.286707 85.270915 287.248749 
" style="fill:none;opacity:0.5;stroke:#0000ff;stroke-linecap:round;stroke-width:2.75;"/>
    <path d="M 83.899777 285.630113 
L 85.270915 287.248749 
L 83.65228 288.619887 
" style="fill:none;opacity:0.5;stroke:#0000ff;stroke-linecap:round;stroke-width:2.75;"/>
   </g>
   <g id="[&quot;g_s&quot;:2,&quot;g_t&quot;:4,&quot;coords&quot;:[[237.0, -45.0],[247.0, -66.0]],&quot;certainty&quot;:5]">
    <path clip-path="url(#p17fc242e4d)" d="M 236.705693 69.472224 
C 238.249836 69.472224 239.730944 69.09133 240.822818 68.41343 
C 241.914693 67.735529 242.528188 66.81597 242.528188 65.857274 
C 242.528188 64.898578 241.914693 63.979019 240.822818 63.301118 
C 239.730944 62.623218 238.249836 62.242324 236.705693 62.242324 
C 235.161549 62.242324 233.680442 62.623218 232.588567 63.301118 
C 231.496693 63.979019 230.883198 64.898578 230.883198 65.857274 
C 230.883198 66.81597 231.496693 67.735529 232.588567 68.41343 
C 233.680442 69.09133 235.161549 69.472224 236.705693 69.472224 
z
" style="fill:#0000ff;opacity:0.2;stroke:#0000ff;stroke-linejoin:miter;stroke-width:2;"/>
   </g>
   <g id="[&quot;g_s&quot;:4,&quot;g_t&quot;:2,&quot;coords&quot;:[[247.0, -66.0],[237.0, -45.0]],&quot;certainty&quot;:5]">
    <path clip-path="url(#p17fc242e4d)" d="M 256.114008 94.776874 
C 257.658152 94.776874 259.139259 94.39598 260.231134 93.71808 
C 261.323008 93.040179 261.936503 92.12062 261.936503 91.161924 
C 261.936503 90.203228 261.323008 89.283669 260.231134 88.605768 
C 259.139259 87.927868 257.658152 87.546974 256.114008 87.546974 
C 254.569865 87.546974 253.088757 87.927868 251.996883 88.605768 
C 250.905009 89.283669 250.291514 90.203228 250.291514 91.161924 
C 250.291514 92.12062 250.905009 93.040179 251.996883 93.71808 
C 253.088757 94.39598 254.569865 94.776874 256.114008 94.776874 
z
" style="fill:#ff0000;opacity:0.2;stroke:#ff0000;stroke-linejoin:miter;stroke-width:2;"/>
   </g>
   <g id="patch_19">
    <path d="M 236.705693 65.857274 
Q 245.802156 77.717284 254.253111 88.735678 
" style="fill:none;opacity:0.5;stroke:#0000ff;stroke-linecap:round;stroke-width:1.5;"/>
    <path d="M 254.53045 86.632565 
L 254.253111 88.735678 
L 252.149998 88.458339 
" style="fill:none;opacity:0.5;stroke:#0000ff;stroke-linecap:round;stroke-width:1.5;"/>
   </g>
   <g id="[&quot;g_s&quot;:3,&quot;g_t&quot;:5,&quot;coords&quot;:[[268.0, -15.0],[271.0, -42.0]],&quot;certainty&quot;:6]">
    <path clip-path="url(#p17fc242e4d)" d="M 296.871471 33.925215 
C 298.672972 33.925215 300.400931 33.480839 301.674784 32.689955 
C 302.948638 31.899071 303.664382 30.826252 303.664382 29.707774 
C 303.664382 28.589295 302.948638 27.516476 301.674784 26.725592 
C 300.400931 25.934708 298.672972 25.490332 296.871471 25.490332 
C 295.06997 25.490332 293.342012 25.934708 292.068158 26.725592 
C 290.794305 27.516476 290.078561 28.589295 290.078561 29.707774 
C 290.078561 30.826252 290.794305 31.899071 292.068158 32.689955 
C 293.342012 33.480839 295.06997 33.925215 296.871471 33.925215 
z
" style="fill:#0000ff;opacity:0.2;stroke:#0000ff;stroke-linejoin:miter;stroke-width:2;"/>
   </g>
   <g id="[&quot;g_s&quot;:5,&quot;g_t&quot;:3,&quot;coords&quot;:[[271.0, -42.0],[268.0, -15.0]],&quot;certainty&quot;:6]">
    <path clip-path="url(#p17fc242e4d)" d="M 302.693966 66.459766 
C 304.495467 66.459766 306.223425 66.015389 307.497279 65.224505 
C 308.771132 64.433622 309.486876 63.360802 309.486876 62.242324 
C 309.486876 61.123845 308.771132 60.051026 307.497279 59.260142 
C 306.223425 58.469258 304.495467 58.024882 302.693966 58.024882 
C 300.892465 58.024882 299.164506 58.469258 297.890653 59.260142 
C 296.616799 60.051026 295.901055 61.123845 295.901055 62.242324 
C 295.901055 63.360802 296.616799 64.433622 297.890653 65.224505 
C 299.164506 66.015389 300.892465 66.459766 302.693966 66.459766 
z
" style="fill:#ff0000;opacity:0.2;stroke:#ff0000;stroke-linejoin:miter;stroke-width:2;"/>
   </g>
   <g id="patch_20">
    <path d="M 296.871471 29.707774 
Q 299.606807 44.992102 302.12415 59.058346 
" style="fill:none;opacity:0.5;stroke:#0000ff;stroke-linecap:round;stroke-width:1.75;"/>
    <path d="M 303.336444 57.317558 
L 302.12415 59.058346 
L 300.383362 57.846052 
" style="fill:none;opacity:0.5;stroke:#0000ff;stroke-linecap:round;stroke-width:1.75;"/>
   </g>
   <g id="[&quot;g_s&quot;:4,&quot;g_t&quot;:6,&quot;coords&quot;:[[307.0, -31.0],[302.0, -57.0]],&quot;certainty&quot;:3]">
    <path clip-path="url(#p17fc242e4d)" d="M 372.563902 51.397474 
C 373.593331 51.397474 374.580736 51.143544 375.308652 50.691611 
C 376.036568 50.239677 376.445565 49.626638 376.445565 48.987507 
C 376.445565 48.348376 376.036568 47.735337 375.308652 47.283403 
C 374.580736 46.83147 373.593331 46.57754 372.563902 46.57754 
C 371.534473 46.57754 370.547068 46.83147 369.819152 47.283403 
C 369.091235 47.735337 368.682239 48.348376 368.682239 48.987507 
C 368.682239 49.626638 369.091235 50.239677 369.819152 50.691611 
C 370.547068 51.143544 371.534473 51.397474 372.563902 51.397474 
z
" style="fill:#0000ff;opacity:0.2;stroke:#0000ff;stroke-linejoin:miter;stroke-width:2;"/>
   </g>
   <g id="[&quot;g_s&quot;:6,&quot;g_t&quot;:4,&quot;coords&quot;:[[302.0, -57.0],[307.0, -31.0]],&quot;certainty&quot;:3]">
    <path clip-path="url(#p17fc242e4d)" d="M 362.859744 82.727041 
C 363.889173 82.727041 364.876578 82.473111 365.604494 82.021178 
C 366.332411 81.569244 366.741407 80.956205 366.741407 80.317074 
C 366.741407 79.677943 366.332411 79.064904 365.604494 78.61297 
C 364.876578 78.161037 363.889173 77.907107 362.859744 77.907107 
C 361.830315 77.907107 360.84291 78.161037 360.114994 78.61297 
C 359.387077 79.064904 358.978081 79.677943 358.978081 80.317074 
C 358.978081 80.956205 359.387077 81.569244 360.114994 82.021178 
C 360.84291 82.473111 361.830315 82.727041 362.859744 82.727041 
z
" style="fill:#ff0000;opacity:0.2;stroke:#ff0000;stroke-linejoin:miter;stroke-width:2;"/>
   </g>
   <g id="patch_21">
    <path d="M 372.563902 48.987507 
Q 368.007378 63.6981 363.66007 77.733246 
" style="fill:none;opacity:0.5;stroke:#0000ff;stroke-linecap:round;"/>
    <path d="M 365.536724 76.744221 
L 363.66007 77.733246 
L 362.671045 75.856593 
" style="fill:none;opacity:0.5;stroke:#0000ff;stroke-linecap:round;"/>
   </g>
   <g id="[&quot;g_s&quot;:5,&quot;g_t&quot;:7,&quot;coords&quot;:[[334.0, -67.0],[319.0, -83.0]],&quot;certainty&quot;:6]">
    <path clip-path="url(#p17fc242e4d)" d="M 424.966354 96.584349 
C 426.767855 96.584349 428.495813 96.139973 429.769667 95.349089 
C 431.04352 94.558205 431.759264 93.485386 431.759264 92.366908 
C 431.759264 91.248429 431.04352 90.17561 429.769667 89.384726 
C 428.495813 88.593842 426.767855 88.149466 424.966354 88.149466 
C 423.164853 88.149466 421.436894 88.593842 420.163041 89.384726 
C 418.889187 90.17561 418.173443 91.248429 418.173443 92.366908 
C 418.173443 93.485386 418.889187 94.558205 420.163041 95.349089 
C 421.436894 96.139973 423.164853 96.584349 424.966354 96.584349 
z
" style="fill:#0000ff;opacity:0.2;stroke:#0000ff;stroke-linejoin:miter;stroke-width:2;"/>
   </g>
   <g id="[&quot;g_s&quot;:7,&quot;g_t&quot;:5,&quot;coords&quot;:[[319.0, -83.0],[334.0, -67.0]],&quot;certainty&quot;:6]">
    <path clip-path="url(#p17fc242e4d)" d="M 395.853881 115.864083 
C 397.655381 115.864083 399.38334 115.419707 400.657194 114.628823 
C 401.931047 113.837939 402.646791 112.76512 402.646791 111.646641 
C 402.646791 110.528162 401.931047 109.455343 400.657194 108.664459 
C 399.38334 107.873576 397.655381 107.429199 395.853881 107.429199 
C 394.05238 107.429199 392.324421 107.873576 391.050568 108.664459 
C 389.776714 109.455343 389.06097 110.528162 389.06097 111.646641 
C 389.06097 112.76512 389.776714 113.837939 391.050568 114.628823 
C 392.324421 115.419707 394.05238 115.864083 395.853881 115.864083 
z
" style="fill:#ff0000;opacity:0.2;stroke:#ff0000;stroke-linejoin:miter;stroke-width:2;"/>
   </g>
   <g id="patch_22">
    <path d="M 424.966354 92.366908 
Q 411.243476 101.454883 398.552306 109.859609 
" style="fill:none;opacity:0.5;stroke:#0000ff;stroke-linecap:round;stroke-width:1.75;"/>
    <path d="M 400.631147 110.282006 
L 398.552306 109.859609 
L 398.974703 107.780768 
" style="fill:none;opacity:0.5;stroke:#0000ff;stroke-linecap:round;stroke-width:1.75;"/>
   </g>
   <g id="[&quot;g_s&quot;:6,&quot;g_t&quot;:1,&quot;coords&quot;:[[312.0, -104.0],[303.0, -110.0]],&quot;certainty&quot;:12]">
    <path clip-path="url(#p17fc242e4d)" d="M 382.26806 144.783683 
C 385.613704 144.783683 388.82277 143.958413 391.188498 142.489629 
C 393.554226 141.020844 394.883465 139.028466 394.883465 136.951291 
C 394.883465 134.874117 393.554226 132.881738 391.188498 131.412954 
C 388.82277 129.94417 385.613704 129.1189 382.26806 129.1189 
C 378.922415 129.1189 375.713349 129.94417 373.347621 131.412954 
C 370.981893 132.881738 369.652655 134.874117 369.652655 136.951291 
C 369.652655 139.028466 370.981893 141.020844 373.347621 142.489629 
C 375.713349 143.958413 378.922415 144.783683 382.26806 144.783683 
z
" style="fill:#0000ff;opacity:0.2;stroke:#0000ff;stroke-linejoin:miter;stroke-width:2;"/>
   </g>
   <g id="[&quot;g_s&quot;:1,&quot;g_t&quot;:6,&quot;coords&quot;:[[303.0, -110.0],[312.0, -104.0]],&quot;certainty&quot;:12]">
    <path clip-path="url(#p17fc242e4d)" d="M 364.800576 152.013583 
C 368.14622 152.013583 371.355286 151.188313 373.721014 149.719529 
C 376.086742 148.250745 377.415981 146.258366 377.415981 144.181191 
C 377.415981 142.104017 376.086742 140.111638 373.721014 138.642854 
C 371.355286 137.17407 368.14622 136.3488 364.800576 136.3488 
C 361.454931 136.3488 358.245865 137.17407 355.880137 138.642854 
C 353.514409 140.111638 352.185171 142.104017 352.185171 144.181191 
C 352.185171 146.258366 353.514409 148.250745 355.880137 149.719529 
C 358.245865 151.188313 361.454931 152.013583 364.800576 152.013583 
z
" style="fill:#ff0000;opacity:0.2;stroke:#ff0000;stroke-linejoin:miter;stroke-width:2;"/>
   </g>
   <g id="patch_23">
    <path d="M 382.26806 136.951291 
Q 374.457587 140.184095 368.770509 142.538011 
" style="fill:none;opacity:0.5;stroke:#0000ff;stroke-linecap:round;stroke-width:3.25;"/>
    <path d="M 370.730141 143.35032 
L 368.770509 142.538011 
L 369.582818 140.57838 
" style="fill:none;opacity:0.5;stroke:#0000ff;stroke-linecap:round;stroke-width:3.25;"/>
   </g>
   <g id="[&quot;g_s&quot;:7,&quot;g_t&quot;:2,&quot;coords&quot;:[[171.0, -243.0],[178.0, -240.0]],&quot;certainty&quot;:5]">
    <path clip-path="url(#p17fc242e4d)" d="M 108.61081 308.058927 
C 110.154954 308.058927 111.636061 307.678033 112.727935 307.000132 
C 113.81981 306.322232 114.433305 305.402672 114.433305 304.443976 
C 114.433305 303.485281 113.81981 302.565721 112.727935 301.887821 
C 111.636061 301.20992 110.154954 300.829026 108.61081 300.829026 
C 107.066666 300.829026 105.585559 301.20992 104.493685 301.887821 
C 103.40181 302.565721 102.788315 303.485281 102.788315 304.443976 
C 102.788315 305.402672 103.40181 306.322232 104.493685 307.000132 
C 105.585559 307.678033 107.066666 308.058927 108.61081 308.058927 
z
" style="fill:#0000ff;opacity:0.2;stroke:#0000ff;stroke-linejoin:miter;stroke-width:2;"/>
   </g>
   <g id="[&quot;g_s&quot;:2,&quot;g_t&quot;:7,&quot;coords&quot;:[[178.0, -240.0],[171.0, -243.0]],&quot;certainty&quot;:5]">
    <path clip-path="url(#p17fc242e4d)" d="M 122.196631 304.443976 
C 123.740775 304.443976 125.221882 304.063083 126.313756 303.385182 
C 127.405631 302.707282 128.019126 301.787722 128.019126 300.829026 
C 128.019126 299.87033 127.405631 298.950771 126.313756 298.272871 
C 125.221882 297.59497 123.740775 297.214076 122.196631 297.214076 
C 120.652487 297.214076 119.17138 297.59497 118.079505 298.272871 
C 116.987631 298.950771 116.374136 299.87033 116.374136 300.829026 
C 116.374136 301.787722 116.987631 302.707282 118.079505 303.385182 
C 119.17138 304.063083 120.652487 304.443976 122.196631 304.443976 
z
" style="fill:#ff0000;opacity:0.2;stroke:#ff0000;stroke-linejoin:miter;stroke-width:2;"/>
   </g>
   <g id="patch_24">
    <path d="M 108.61081 304.443976 
Q 114.436858 302.893767 119.237911 301.61629 
" style="fill:none;opacity:0.5;stroke:#0000ff;stroke-linecap:round;stroke-width:1.5;"/>
    <path d="M 117.402645 300.552431 
L 119.237911 301.61629 
L 118.174052 303.451557 
" style="fill:none;opacity:0.5;stroke:#0000ff;stroke-linecap:round;stroke-width:1.5;"/>
   </g>
   <g id="[&quot;g_s&quot;:1,&quot;g_t&quot;:6,&quot;coords&quot;:[[303.0, -110.0],[312.0, -104.0]],&quot;certainty&quot;:12]">
    <path clip-path="url(#p17fc242e4d)" d="M 364.800576 152.013583 
C 368.14622 152.013583 371.355286 151.188313 373.721014 149.719529 
C 376.086742 148.250745 377.415981 146.258366 377.415981 144.181191 
C 377.415981 142.104017 376.086742 140.111638 373.721014 138.642854 
C 371.355286 137.17407 368.14622 136.3488 364.800576 136.3488 
C 361.454931 136.3488 358.245865 137.17407 355.880137 138.642854 
C 353.514409 140.111638 352.185171 142.104017 352.185171 144.181191 
C 352.185171 146.258366 353.514409 148.250745 355.880137 149.719529 
C 358.245865 151.188313 361.454931 152.013583 364.800576 152.013583 
z
" style="fill:#0000ff;opacity:0.2;stroke:#0000ff;stroke-linejoin:miter;stroke-width:2;"/>
   </g>
   <g id="[&quot;g_s&quot;:6,&quot;g_t&quot;:1,&quot;coords&quot;:[[312.0, -104.0],[303.0, -110.0]],&quot;certainty&quot;:12]">
    <path clip-path="url(#p17fc242e4d)" d="M 382.26806 144.783683 
C 385.613704 144.783683 388.82277 143.958413 391.188498 142.489629 
C 393.554226 141.020844 394.883465 139.028466 394.883465 136.951291 
C 394.883465 134.874117 393.554226 132.881738 391.188498 131.412954 
C 388.82277 129.94417 385.613704 129.1189 382.26806 129.1189 
C 378.922415 129.1189 375.713349 129.94417 373.347621 131.412954 
C 370.981893 132.881738 369.652655 134.874117 369.652655 136.951291 
C 369.652655 139.028466 370.981893 141.020844 373.347621 142.489629 
C 375.713349 143.958413 378.922415 144.783683 382.26806 144.783683 
z
" style="fill:#ff0000;opacity:0.2;stroke:#ff0000;stroke-linejoin:miter;stroke-width:2;"/>
   </g>
   <g id="patch_25">
    <path d="M 364.800576 144.181191 
Q 372.611049 140.948388 378.298126 138.594472 
" style="fill:none;opacity:0.5;stroke:#ff0000;stroke-linecap:round;stroke-width:3.25;"/>
    <path d="M 376.338495 137.782163 
L 378.298126 138.594472 
L 377.485818 140.554103 
" style="fill:none;opacity:0.5;stroke:#ff0000;stroke-linecap:round;stroke-width:3.25;"/>
   </g>
   <g id="[&quot;g_s&quot;:2,&quot;g_t&quot;:7,&quot;coords&quot;:[[178.0, -240.0],[171.0, -243.0]],&quot;certainty&quot;:7]">
    <path clip-path="url(#p17fc242e4d)" d="M 122.196631 305.64896 
C 124.255489 305.64896 126.230299 305.141101 127.686132 304.237234 
C 129.141964 303.333367 129.959957 302.107288 129.959957 300.829026 
C 129.959957 299.550765 129.141964 298.324686 127.686132 297.420819 
C 126.230299 296.516952 124.255489 296.009093 122.196631 296.009093 
C 120.137773 296.009093 118.162963 296.516952 116.70713 297.420819 
C 115.251298 298.324686 114.433305 299.550765 114.433305 300.829026 
C 114.433305 302.107288 115.251298 303.333367 116.70713 304.237234 
C 118.162963 305.141101 120.137773 305.64896 122.196631 305.64896 
z
" style="fill:#0000ff;opacity:0.2;stroke:#0000ff;stroke-linejoin:miter;stroke-width:2;"/>
   </g>
   <g id="[&quot;g_s&quot;:7,&quot;g_t&quot;:2,&quot;coords&quot;:[[171.0, -243.0],[178.0, -240.0]],&quot;certainty&quot;:7]">
    <path clip-path="url(#p17fc242e4d)" d="M 108.61081 309.26391 
C 110.669668 309.26391 112.644478 308.756051 114.100311 307.852184 
C 115.556143 306.948317 116.374136 305.722238 116.374136 304.443976 
C 116.374136 303.165715 115.556143 301.939636 114.100311 301.035769 
C 112.644478 300.131902 110.669668 299.624043 108.61081 299.624043 
C 106.551952 299.624043 104.577142 300.131902 103.121309 301.035769 
C 101.665477 301.939636 100.847484 303.165715 100.847484 304.443976 
C 100.847484 305.722238 101.665477 306.948317 103.121309 307.852184 
C 104.577142 308.756051 106.551952 309.26391 108.61081 309.26391 
z
" style="fill:#ff0000;opacity:0.2;stroke:#ff0000;stroke-linejoin:miter;stroke-width:2;"/>
   </g>
   <g id="patch_26">
    <path d="M 122.196631 300.829026 
Q 116.370582 302.379236 111.911195 303.565802 
" style="fill:none;opacity:0.5;stroke:#ff0000;stroke-linecap:round;stroke-width:2;"/>
    <path d="M 113.746462 304.629661 
L 111.911195 303.565802 
L 112.975055 301.730535 
" style="fill:none;opacity:0.5;stroke:#ff0000;stroke-linecap:round;stroke-width:2;"/>
   </g>
   <g id="[&quot;g_s&quot;:3,&quot;g_t&quot;:1,&quot;coords&quot;:[[161.0, -229.0],[146.0, -227.0]],&quot;certainty&quot;:5]">
    <path clip-path="url(#p17fc242e4d)" d="M 89.202494 291.18916 
C 90.746638 291.18916 92.227745 290.808266 93.31962 290.130365 
C 94.411494 289.452465 95.024989 288.532906 95.024989 287.57421 
C 95.024989 286.615514 94.411494 285.695954 93.31962 285.018054 
C 92.227745 284.340154 90.746638 283.95926 89.202494 283.95926 
C 87.658351 283.95926 86.177243 284.340154 85.085369 285.018054 
C 83.993495 285.695954 83.38 286.615514 83.38 287.57421 
C 83.38 288.532906 83.993495 289.452465 85.085369 290.130365 
C 86.177243 290.808266 87.658351 291.18916 89.202494 291.18916 
z
" style="fill:#0000ff;opacity:0.2;stroke:#0000ff;stroke-linejoin:miter;stroke-width:2;"/>
   </g>
   <g id="[&quot;g_s&quot;:1,&quot;g_t&quot;:3,&quot;coords&quot;:[[146.0, -227.0],[161.0, -229.0]],&quot;certainty&quot;:5]">
    <path clip-path="url(#p17fc242e4d)" d="M 60.090021 288.779193 
C 61.634165 288.779193 63.115272 288.398299 64.207147 287.720399 
C 65.299021 287.042498 65.912516 286.122939 65.912516 285.164243 
C 65.912516 284.205547 65.299021 283.285988 64.207147 282.608087 
C 63.115272 281.930187 61.634165 281.549293 60.090021 281.549293 
C 58.545877 281.549293 57.06477 281.930187 55.972896 282.608087 
C 54.881021 283.285988 54.267526 284.205547 54.267526 285.164243 
C 54.267526 286.122939 54.881021 287.042498 55.972896 287.720399 
C 57.06477 288.398299 58.545877 288.779193 60.090021 288.779193 
z
" style="fill:#ff0000;opacity:0.2;stroke:#ff0000;stroke-linejoin:miter;stroke-width:2;"/>
   </g>
   <g id="patch_27">
    <path d="M 89.202494 287.57421 
Q 75.64309 286.451745 63.14073 285.416784 
" style="fill:none;opacity:0.5;stroke:#ff0000;stroke-linecap:round;stroke-width:1.5;"/>
    <path d="M 64.511868 287.03542 
L 63.14073 285.416784 
L 64.759365 284.045646 
" style="fill:none;opacity:0.5;stroke:#ff0000;stroke-linecap:round;stroke-width:1.5;"/>
   </g>
   <g id="[&quot;g_s&quot;:4,&quot;g_t&quot;:2,&quot;coords&quot;:[[247.0, -66.0],[237.0, -45.0]],&quot;certainty&quot;:6]">
    <path clip-path="url(#p17fc242e4d)" d="M 256.114008 95.379366 
C 257.915509 95.379366 259.643468 94.93499 260.917321 94.144106 
C 262.191175 93.353222 262.906919 92.280403 262.906919 91.161924 
C 262.906919 90.043446 262.191175 88.970626 260.917321 88.179743 
C 259.643468 87.388859 257.915509 86.944482 256.114008 86.944482 
C 254.312507 86.944482 252.584549 87.388859 251.310695 88.179743 
C 250.036842 88.970626 249.321098 90.043446 249.321098 91.161924 
C 249.321098 92.280403 250.036842 93.353222 251.310695 94.144106 
C 252.584549 94.93499 254.312507 95.379366 256.114008 95.379366 
z
" style="fill:#0000ff;opacity:0.2;stroke:#0000ff;stroke-linejoin:miter;stroke-width:2;"/>
   </g>
   <g id="[&quot;g_s&quot;:2,&quot;g_t&quot;:4,&quot;coords&quot;:[[237.0, -45.0],[247.0, -66.0]],&quot;certainty&quot;:6]">
    <path clip-path="url(#p17fc242e4d)" d="M 236.705693 70.074716 
C 238.507194 70.074716 240.235152 69.630339 241.509006 68.839456 
C 242.782859 68.048572 243.498603 66.975753 243.498603 65.857274 
C 243.498603 64.738795 242.782859 63.665976 241.509006 62.875092 
C 240.235152 62.084208 238.507194 61.639832 236.705693 61.639832 
C 234.904192 61.639832 233.176233 62.084208 231.90238 62.875092 
C 230.628526 63.665976 229.912782 64.738795 229.912782 65.857274 
C 229.912782 66.975753 230.628526 68.048572 231.90238 68.839456 
C 233.176233 69.630339 234.904192 70.074716 236.705693 70.074716 
z
" style="fill:#ff0000;opacity:0.2;stroke:#ff0000;stroke-linejoin:miter;stroke-width:2;"/>
   </g>
   <g id="patch_28">
    <path d="M 256.114008 91.161924 
Q 247.017545 79.301914 238.674175 68.42379 
" style="fill:none;opacity:0.5;stroke:#ff0000;stroke-linecap:round;stroke-width:1.75;"/>
    <path d="M 238.396836 70.526902 
L 238.674175 68.42379 
L 240.777288 68.701129 
" style="fill:none;opacity:0.5;stroke:#ff0000;stroke-linecap:round;stroke-width:1.75;"/>
   </g>
   <g id="[&quot;g_s&quot;:5,&quot;g_t&quot;:3,&quot;coords&quot;:[[271.0, -42.0],[268.0, -15.0]],&quot;certainty&quot;:5]">
    <path clip-path="url(#p17fc242e4d)" d="M 302.693966 65.857274 
C 304.238109 65.857274 305.719217 65.47638 306.811091 64.79848 
C 307.902966 64.120579 308.51646 63.20102 308.51646 62.242324 
C 308.51646 61.283628 307.902966 60.364069 306.811091 59.686168 
C 305.719217 59.008268 304.238109 58.627374 302.693966 58.627374 
C 301.149822 58.627374 299.668715 59.008268 298.57684 59.686168 
C 297.484966 60.364069 296.871471 61.283628 296.871471 62.242324 
C 296.871471 63.20102 297.484966 64.120579 298.57684 64.79848 
C 299.668715 65.47638 301.149822 65.857274 302.693966 65.857274 
z
" style="fill:#0000ff;opacity:0.2;stroke:#0000ff;stroke-linejoin:miter;stroke-width:2;"/>
   </g>
   <g id="[&quot;g_s&quot;:3,&quot;g_t&quot;:5,&quot;coords&quot;:[[268.0, -15.0],[271.0, -42.0]],&quot;certainty&quot;:5]">
    <path clip-path="url(#p17fc242e4d)" d="M 296.871471 33.322724 
C 298.415615 33.322724 299.896722 32.94183 300.988597 32.263929 
C 302.080471 31.586029 302.693966 30.666469 302.693966 29.707774 
C 302.693966 28.749078 302.080471 27.829518 300.988597 27.151618 
C 299.896722 26.473717 298.415615 26.092823 296.871471 26.092823 
C 295.327327 26.092823 293.84622 26.473717 292.754346 27.151618 
C 291.662471 27.829518 291.048976 28.749078 291.048976 29.707774 
C 291.048976 30.666469 291.662471 31.586029 292.754346 32.263929 
C 293.84622 32.94183 295.327327 33.322724 296.871471 33.322724 
z
" style="fill:#ff0000;opacity:0.2;stroke:#ff0000;stroke-linejoin:miter;stroke-width:2;"/>
   </g>
   <g id="patch_29">
    <path d="M 302.693966 62.242324 
Q 299.95863 46.957996 297.410145 32.71774 
" style="fill:none;opacity:0.5;stroke:#ff0000;stroke-linecap:round;stroke-width:1.5;"/>
    <path d="M 296.197851 34.458528 
L 297.410145 32.71774 
L 299.150933 33.930034 
" style="fill:none;opacity:0.5;stroke:#ff0000;stroke-linecap:round;stroke-width:1.5;"/>
   </g>
   <g id="[&quot;g_s&quot;:6,&quot;g_t&quot;:4,&quot;coords&quot;:[[302.0, -57.0],[307.0, -31.0]],&quot;certainty&quot;:4]">
    <path clip-path="url(#p17fc242e4d)" d="M 362.859744 83.329532 
C 364.14653 83.329532 365.380787 83.012121 366.290682 82.447204 
C 367.200577 81.882287 367.711823 81.115987 367.711823 80.317074 
C 367.711823 79.518161 367.200577 78.751861 366.290682 78.186944 
C 365.380787 77.622027 364.14653 77.304616 362.859744 77.304616 
C 361.572958 77.304616 360.338702 77.622027 359.428806 78.186944 
C 358.518911 78.751861 358.007665 79.518161 358.007665 80.317074 
C 358.007665 81.115987 358.518911 81.882287 359.428806 82.447204 
C 360.338702 83.012121 361.572958 83.329532 362.859744 83.329532 
z
" style="fill:#0000ff;opacity:0.2;stroke:#0000ff;stroke-linejoin:miter;stroke-width:2;"/>
   </g>
   <g id="[&quot;g_s&quot;:4,&quot;g_t&quot;:6,&quot;coords&quot;:[[307.0, -31.0],[302.0, -57.0]],&quot;certainty&quot;:4]">
    <path clip-path="url(#p17fc242e4d)" d="M 372.563902 51.999965 
C 373.850688 51.999965 375.084944 51.682554 375.99484 51.117637 
C 376.904735 50.55272 377.415981 49.78642 377.415981 48.987507 
C 377.415981 48.188594 376.904735 47.422294 375.99484 46.857377 
C 375.084944 46.29246 373.850688 45.975049 372.563902 45.975049 
C 371.277116 45.975049 370.042859 46.29246 369.132964 46.857377 
C 368.223069 47.422294 367.711823 48.188594 367.711823 48.987507 
C 367.711823 49.78642 368.223069 50.55272 369.132964 51.117637 
C 370.042859 51.682554 371.277116 51.999965 372.563902 51.999965 
z
" style="fill:#ff0000;opacity:0.2;stroke:#ff0000;stroke-linejoin:miter;stroke-width:2;"/>
   </g>
   <g id="patch_30">
    <path d="M 362.859744 80.317074 
Q 367.416268 65.606481 371.711272 51.740196 
" style="fill:none;opacity:0.5;stroke:#ff0000;stroke-linecap:round;stroke-width:1.25;"/>
    <path d="M 369.834618 52.729222 
L 371.711272 51.740196 
L 372.700297 53.61685 
" style="fill:none;opacity:0.5;stroke:#ff0000;stroke-linecap:round;stroke-width:1.25;"/>
   </g>
   <g id="[&quot;g_s&quot;:7,&quot;g_t&quot;:5,&quot;coords&quot;:[[319.0, -83.0],[334.0, -67.0]],&quot;certainty&quot;:5]">
    <path clip-path="url(#p17fc242e4d)" d="M 395.853881 115.261591 
C 397.398024 115.261591 398.879132 114.880697 399.971006 114.202797 
C 401.06288 113.524896 401.676375 112.605337 401.676375 111.646641 
C 401.676375 110.687945 401.06288 109.768386 399.971006 109.090485 
C 398.879132 108.412585 397.398024 108.031691 395.853881 108.031691 
C 394.309737 108.031691 392.82863 108.412585 391.736755 109.090485 
C 390.644881 109.768386 390.031386 110.687945 390.031386 111.646641 
C 390.031386 112.605337 390.644881 113.524896 391.736755 114.202797 
C 392.82863 114.880697 394.309737 115.261591 395.853881 115.261591 
z
" style="fill:#0000ff;opacity:0.2;stroke:#0000ff;stroke-linejoin:miter;stroke-width:2;"/>
   </g>
   <g id="[&quot;g_s&quot;:5,&quot;g_t&quot;:7,&quot;coords&quot;:[[334.0, -67.0],[319.0, -83.0]],&quot;certainty&quot;:5]">
    <path clip-path="url(#p17fc242e4d)" d="M 424.966354 95.981858 
C 426.510498 95.981858 427.991605 95.600964 429.083479 94.923063 
C 430.175354 94.245163 430.788849 93.325603 430.788849 92.366908 
C 430.788849 91.408212 430.175354 90.488652 429.083479 89.810752 
C 427.991605 89.132851 426.510498 88.751957 424.966354 88.751957 
C 423.42221 88.751957 421.941103 89.132851 420.849228 89.810752 
C 419.757354 90.488652 419.143859 91.408212 419.143859 92.366908 
C 419.143859 93.325603 419.757354 94.245163 420.849228 94.923063 
C 421.941103 95.600964 423.42221 95.981858 424.966354 95.981858 
z
" style="fill:#ff0000;opacity:0.2;stroke:#ff0000;stroke-linejoin:miter;stroke-width:2;"/>
   </g>
   <g id="patch_31">
    <path d="M 395.853881 111.646641 
Q 409.576758 102.558666 422.415315 94.056333 
" style="fill:none;opacity:0.5;stroke:#ff0000;stroke-linecap:round;stroke-width:1.5;"/>
    <path d="M 420.336474 93.633936 
L 422.415315 94.056333 
L 421.992919 96.135174 
" style="fill:none;opacity:0.5;stroke:#ff0000;stroke-linecap:round;stroke-width:1.5;"/>
   </g>
   <g id="patch_32">
    <path clip-path="url(#p17fc242e4d)" d="M 74.646258 292.394143 
C 77.21983 292.394143 79.688343 291.75932 81.508134 290.629486 
C 83.327924 289.499652 84.350416 287.967053 84.350416 286.369226 
C 84.350416 284.7714 83.327924 283.238801 81.508134 282.108967 
C 79.688343 280.979133 77.21983 280.34431 74.646258 280.34431 
C 72.072685 280.34431 69.604173 280.979133 67.784382 282.108967 
C 65.964591 283.238801 64.9421 284.7714 64.9421 286.369226 
C 64.9421 287.967053 65.964591 289.499652 67.784382 290.629486 
C 69.604173 291.75932 72.072685 292.394143 74.646258 292.394143 
z
" style="fill:#008000;opacity:0.2;stroke:#008000;stroke-linejoin:miter;stroke-width:2;"/>
   </g>
   <g id="patch_33">
    <path clip-path="url(#p17fc242e4d)" d="M 246.409851 84.534516 
C 248.983423 84.534516 251.451936 83.899693 253.271726 82.769859 
C 255.091517 81.640024 256.114008 80.107426 256.114008 78.509599 
C 256.114008 76.911772 255.091517 75.379174 253.271726 74.24934 
C 251.451936 73.119506 248.983423 72.484682 246.409851 72.484682 
C 243.836278 72.484682 241.367766 73.119506 239.547975 74.24934 
C 237.728184 75.379174 236.705693 76.911772 236.705693 78.509599 
C 236.705693 80.107426 237.728184 81.640024 239.547975 82.769859 
C 241.367766 83.899693 243.836278 84.534516 246.409851 84.534516 
z
" style="fill:#008000;opacity:0.2;stroke:#008000;stroke-linejoin:miter;stroke-width:2;"/>
   </g>
   <g id="patch_34">
    <path clip-path="url(#p17fc242e4d)" d="M 299.782718 51.999965 
C 302.356291 51.999965 304.824804 51.365142 306.644594 50.235308 
C 308.464385 49.105474 309.486876 47.572875 309.486876 45.975049 
C 309.486876 44.377222 308.464385 42.844623 306.644594 41.714789 
C 304.824804 40.584955 302.356291 39.950132 299.782718 39.950132 
C 297.209146 39.950132 294.740633 40.584955 292.920843 41.714789 
C 291.101052 42.844623 290.078561 44.377222 290.078561 45.975049 
C 290.078561 47.572875 291.101052 49.105474 292.920843 50.235308 
C 294.740633 51.365142 297.209146 51.999965 299.782718 51.999965 
z
" style="fill:#008000;opacity:0.2;stroke:#008000;stroke-linejoin:miter;stroke-width:2;"/>
   </g>
   <g id="patch_35">
    <path clip-path="url(#p17fc242e4d)" d="M 367.711823 70.677207 
C 370.285396 70.677207 372.753908 70.042384 374.573699 68.91255 
C 376.393489 67.782716 377.415981 66.250117 377.415981 64.652291 
C 377.415981 63.054464 376.393489 61.521865 374.573699 60.392031 
C 372.753908 59.262197 370.285396 58.627374 367.711823 58.627374 
C 365.13825 58.627374 362.669738 59.262197 360.849947 60.392031 
C 359.030156 61.521865 358.007665 63.054464 358.007665 64.652291 
C 358.007665 66.250117 359.030156 67.782716 360.849947 68.91255 
C 362.669738 70.042384 365.13825 70.677207 367.711823 70.677207 
z
" style="fill:#008000;opacity:0.2;stroke:#008000;stroke-linejoin:miter;stroke-width:2;"/>
   </g>
   <g id="patch_36">
    <path clip-path="url(#p17fc242e4d)" d="M 410.410117 108.031691 
C 412.98369 108.031691 415.452202 107.396868 417.271993 106.267034 
C 419.091784 105.1372 420.114275 103.604601 420.114275 102.006774 
C 420.114275 100.408948 419.091784 98.876349 417.271993 97.746515 
C 415.452202 96.616681 412.98369 95.981858 410.410117 95.981858 
C 407.836545 95.981858 405.368032 96.616681 403.548241 97.746515 
C 401.728451 98.876349 400.705959 100.408948 400.705959 102.006774 
C 400.705959 103.604601 401.728451 105.1372 403.548241 106.267034 
C 405.368032 107.396868 407.836545 108.031691 410.410117 108.031691 
z
" style="fill:#008000;opacity:0.2;stroke:#008000;stroke-linejoin:miter;stroke-width:2;"/>
   </g>
   <g id="patch_37">
    <path clip-path="url(#p17fc242e4d)" d="M 373.534318 146.591158 
C 376.10789 146.591158 378.576403 145.956335 380.396193 144.826501 
C 382.215984 143.696667 383.238475 142.164068 383.238475 140.566241 
C 383.238475 138.968415 382.215984 137.435816 380.396193 136.305982 
C 378.576403 135.176148 376.10789 134.541325 373.534318 134.541325 
C 370.960745 134.541325 368.492233 135.176148 366.672442 136.305982 
C 364.852651 137.435816 363.83016 138.968415 363.83016 140.566241 
C 363.83016 142.164068 364.852651 143.696667 366.672442 144.826501 
C 368.492233 145.956335 370.960745 146.591158 373.534318 146.591158 
z
" style="fill:#008000;opacity:0.2;stroke:#008000;stroke-linejoin:miter;stroke-width:2;"/>
   </g>
   <g id="patch_38">
    <path clip-path="url(#p17fc242e4d)" d="M 115.40372 308.661418 
C 117.977293 308.661418 120.445806 308.026595 122.265596 306.896761 
C 124.085387 305.766927 125.107878 304.234328 125.107878 302.636501 
C 125.107878 301.038675 124.085387 299.506076 122.265596 298.376242 
C 120.445806 297.246408 117.977293 296.611585 115.40372 296.611585 
C 112.830148 296.611585 110.361635 297.246408 108.541845 298.376242 
C 106.722054 299.506076 105.699563 301.038675 105.699563 302.636501 
C 105.699563 304.234328 106.722054 305.766927 108.541845 306.896761 
C 110.361635 308.026595 112.830148 308.661418 115.40372 308.661418 
z
" style="fill:#008000;opacity:0.2;stroke:#008000;stroke-linejoin:miter;stroke-width:2;"/>
   </g>
   <g id="patch_39">
    <path clip-path="url(#p17fc242e4d)" d="M 60.090021 309.26391 
C 70.384312 309.26391 80.258361 306.724617 87.537524 302.205281 
C 94.816687 297.685945 98.906652 291.555549 98.906652 285.164243 
C 98.906652 278.772937 94.816687 272.642541 87.537524 268.123205 
C 80.258361 263.603869 70.384312 261.064576 60.090021 261.064576 
C 49.79573 261.064576 39.921681 263.603869 32.642518 268.123205 
C 25.363355 272.642541 21.27339 278.772937 21.27339 285.164243 
C 21.27339 291.555549 25.363355 297.685945 32.642518 302.205281 
C 39.921681 306.724617 49.79573 309.26391 60.090021 309.26391 
z
" style="fill:none;opacity:0.2;stroke:#ff0000;stroke-linejoin:miter;stroke-width:2;"/>
   </g>
   <g id="patch_40">
    <path clip-path="url(#p17fc242e4d)" d="M 364.800576 168.280858 
C 375.094867 168.280858 384.968916 165.741565 392.248079 161.222229 
C 399.527242 156.702893 403.617207 150.572498 403.617207 144.181191 
C 403.617207 137.789885 399.527242 131.65949 392.248079 127.140154 
C 384.968916 122.620817 375.094867 120.081524 364.800576 120.081524 
C 354.506285 120.081524 344.632235 122.620817 337.353073 127.140154 
C 330.07391 131.65949 325.983944 137.789885 325.983944 144.181191 
C 325.983944 150.572498 330.07391 156.702893 337.353073 161.222229 
C 344.632235 165.741565 354.506285 168.280858 364.800576 168.280858 
z
" style="fill:none;opacity:0.2;stroke:#0000ff;stroke-linejoin:miter;stroke-width:2;"/>
   </g>
   <g id="patch_41">
    <path clip-path="url(#p17fc242e4d)" d="M 60.090021 297.214076 
C 65.237167 297.214076 70.174191 295.94443 73.813773 293.684762 
C 77.453354 291.425094 79.498337 288.359896 79.498337 285.164243 
C 79.498337 281.96859 77.453354 278.903392 73.813773 276.643724 
C 70.174191 274.384056 65.237167 273.114409 60.090021 273.114409 
C 54.942876 273.114409 50.005851 274.384056 46.36627 276.643724 
C 42.726688 278.903392 40.681705 281.96859 40.681705 285.164243 
C 40.681705 288.359896 42.726688 291.425094 46.36627 293.684762 
C 50.005851 295.94443 54.942876 297.214076 60.090021 297.214076 
z
" style="fill:none;opacity:0.2;stroke:#008000;stroke-linejoin:miter;stroke-width:2;"/>
   </g>
   <g id="patch_42">
    <path clip-path="url(#p17fc242e4d)" d="M 89.202494 299.624043 
C 94.34964 299.624043 99.286665 298.354397 102.926246 296.094729 
C 106.565827 293.835061 108.61081 290.769863 108.61081 287.57421 
C 108.61081 284.378556 106.565827 281.313359 102.926246 279.053691 
C 99.286665 276.794023 94.34964 275.524376 89.202494 275.524376 
C 84.055349 275.524376 79.118324 276.794023 75.478743 279.053691 
C 71.839161 281.313359 69.794179 284.378556 69.794179 287.57421 
C 69.794179 290.769863 71.839161 293.835061 75.478743 296.094729 
C 79.118324 298.354397 84.055349 299.624043 89.202494 299.624043 
z
" style="fill:none;opacity:0.2;stroke:#008000;stroke-linejoin:miter;stroke-width:2;"/>
   </g>
   <g id="patch_43">
    <path d="M 74.646258 286.369226 
Q 160.528054 182.439413 246.409851 78.509599 
" style="fill:none;opacity:0.5;stroke:#008000;stroke-linecap:round;stroke-width:2;"/>
   </g>
   <g id="patch_44">
    <path d="M 61.499414 285.280914 
Q 73.649426 286.286707 85.799437 287.2925 
" style="fill:none;opacity:0.5;stroke:#800080;stroke-linecap:round;stroke-width:2;"/>
    <path d="M 62.870552 286.89955 
L 61.499414 285.280914 
L 63.118049 283.909776 
" style="fill:none;opacity:0.5;stroke:#800080;stroke-linecap:round;stroke-width:2;"/>
    <path d="M 84.428299 285.673865 
L 85.799437 287.2925 
L 84.180802 288.663638 
" style="fill:none;opacity:0.5;stroke:#800080;stroke-linecap:round;stroke-width:2;"/>
   </g>
   <g id="patch_45">
    <path d="M 246.409851 78.509599 
Q 273.096285 62.242324 299.782718 45.975049 
" style="fill:none;opacity:0.5;stroke:#008000;stroke-linecap:round;stroke-width:2;"/>
   </g>
   <g id="patch_46">
    <path d="M 237.566371 66.97943 
Q 245.802156 77.717284 254.037942 88.455139 
" style="fill:none;opacity:0.5;stroke:#800080;stroke-linecap:round;stroke-width:2;"/>
    <path d="M 237.289032 69.082542 
L 237.566371 66.97943 
L 239.669483 67.256769 
" style="fill:none;opacity:0.5;stroke:#800080;stroke-linecap:round;stroke-width:2;"/>
    <path d="M 254.315281 86.352026 
L 254.037942 88.455139 
L 251.934829 88.1778 
" style="fill:none;opacity:0.5;stroke:#800080;stroke-linecap:round;stroke-width:2;"/>
   </g>
   <g id="patch_47">
    <path d="M 299.782718 45.975049 
Q 333.747271 55.31367 367.711823 64.652291 
" style="fill:none;opacity:0.5;stroke:#008000;stroke-linecap:round;stroke-width:2;"/>
   </g>
   <g id="patch_48">
    <path d="M 297.120605 31.09987 
Q 299.606807 44.992102 302.093008 58.884334 
" style="fill:none;opacity:0.5;stroke:#800080;stroke-linecap:round;stroke-width:2;"/>
    <path d="M 295.908311 32.840658 
L 297.120605 31.09987 
L 298.861393 32.312164 
" style="fill:none;opacity:0.5;stroke:#800080;stroke-linecap:round;stroke-width:2;"/>
    <path d="M 303.305303 57.143546 
L 302.093008 58.884334 
L 300.35222 57.672039 
" style="fill:none;opacity:0.5;stroke:#800080;stroke-linecap:round;stroke-width:2;"/>
   </g>
   <g id="patch_49">
    <path d="M 367.711823 64.652291 
Q 367.711823 64.652291 367.711823 64.652291 
" style="fill:none;opacity:0.5;stroke:#008000;stroke-linecap:round;stroke-width:2;"/>
   </g>
   <g id="patch_50">
    <path d="M 372.14547 50.338401 
Q 368.007378 63.6981 363.869286 77.057799 
" style="fill:none;opacity:0.5;stroke:#800080;stroke-linecap:round;stroke-width:2;"/>
    <path d="M 370.268816 51.327427 
L 372.14547 50.338401 
L 373.134496 52.215055 
" style="fill:none;opacity:0.5;stroke:#800080;stroke-linecap:round;stroke-width:2;"/>
    <path d="M 365.74594 76.068774 
L 363.869286 77.057799 
L 362.880261 75.181146 
" style="fill:none;opacity:0.5;stroke:#800080;stroke-linecap:round;stroke-width:2;"/>
   </g>
   <g id="patch_51">
    <path d="M 367.711823 64.652291 
Q 389.06097 83.329532 410.410117 102.006774 
" style="fill:none;opacity:0.5;stroke:#008000;stroke-linecap:round;stroke-width:2;"/>
   </g>
   <g id="patch_52">
    <path d="M 372.14547 50.338401 
Q 368.007378 63.6981 363.869286 77.057799 
" style="fill:none;opacity:0.5;stroke:#800080;stroke-linecap:round;stroke-width:2;"/>
    <path d="M 370.268816 51.327427 
L 372.14547 50.338401 
L 373.134496 52.215055 
" style="fill:none;opacity:0.5;stroke:#800080;stroke-linecap:round;stroke-width:2;"/>
    <path d="M 365.74594 76.068774 
L 363.869286 77.057799 
L 362.880261 75.181146 
" style="fill:none;opacity:0.5;stroke:#800080;stroke-linecap:round;stroke-width:2;"/>
   </g>
   <g id="patch_53">
    <path d="M 410.410117 102.006774 
Q 391.972217 121.286508 373.534318 140.566241 
" style="fill:none;opacity:0.5;stroke:#008000;stroke-linecap:round;stroke-width:2;"/>
   </g>
   <g id="patch_54">
    <path d="M 423.787259 93.147763 
Q 411.243476 101.454883 398.699693 109.762002 
" style="fill:none;opacity:0.5;stroke:#800080;stroke-linecap:round;stroke-width:2;"/>
    <path d="M 421.708418 92.725366 
L 423.787259 93.147763 
L 423.364862 95.226604 
" style="fill:none;opacity:0.5;stroke:#800080;stroke-linecap:round;stroke-width:2;"/>
    <path d="M 400.778534 110.184399 
L 398.699693 109.762002 
L 399.12209 107.683161 
" style="fill:none;opacity:0.5;stroke:#800080;stroke-linecap:round;stroke-width:2;"/>
   </g>
   <g id="patch_55">
    <path d="M 373.534318 140.566241 
Q 244.469019 221.601371 115.40372 302.636501 
" style="fill:none;opacity:0.5;stroke:#008000;stroke-linecap:round;stroke-width:2;"/>
   </g>
   <g id="patch_56">
    <path d="M 380.961355 137.492145 
Q 374.457587 140.184095 367.953819 142.876045 
" style="fill:none;opacity:0.5;stroke:#800080;stroke-linecap:round;stroke-width:2;"/>
    <path d="M 379.001723 136.679836 
L 380.961355 137.492145 
L 380.149046 139.451776 
" style="fill:none;opacity:0.5;stroke:#800080;stroke-linecap:round;stroke-width:2;"/>
    <path d="M 369.91345 143.688353 
L 367.953819 142.876045 
L 368.766127 140.916413 
" style="fill:none;opacity:0.5;stroke:#800080;stroke-linecap:round;stroke-width:2;"/>
   </g>
   <g id="patch_57">
    <path d="M 115.40372 302.636501 
Q 95.024989 294.502864 74.646258 286.369226 
" style="fill:none;opacity:0.5;stroke:#008000;stroke-linecap:round;stroke-width:2;"/>
   </g>
   <g id="patch_58">
    <path d="M 109.977471 304.080332 
Q 114.436858 302.893767 118.896246 301.707201 
" style="fill:none;opacity:0.5;stroke:#800080;stroke-linecap:round;stroke-width:2;"/>
    <path d="M 111.812738 305.144191 
L 109.977471 304.080332 
L 111.041331 302.245065 
" style="fill:none;opacity:0.5;stroke:#800080;stroke-linecap:round;stroke-width:2;"/>
    <path d="M 117.060979 300.643342 
L 118.896246 301.707201 
L 117.832386 303.542468 
" style="fill:none;opacity:0.5;stroke:#800080;stroke-linecap:round;stroke-width:2;"/>
   </g>
   <g id="line2d_1">
    <path clip-path="url(#p17fc242e4d)" d="M 60.090021 285.164243 
L 236.705693 65.857274 
L 296.871471 29.707774 
L 372.563902 48.987507 
L 424.966354 92.366908 
L 382.26806 136.951291 
L 108.61081 304.443976 
" style="fill:none;stroke:#ff0000;stroke-linecap:square;stroke-width:0.2;"/>
   </g>
   <g id="line2d_2">
    <path clip-path="url(#p17fc242e4d)" d="M 364.800576 144.181191 
L 122.196631 300.829026 
L 89.202494 287.57421 
L 256.114008 91.161924 
L 302.693966 62.242324 
L 362.859744 80.317074 
L 395.853881 111.646641 
" style="fill:none;stroke:#0000ff;stroke-linecap:square;stroke-width:0.2;"/>
   </g>
  </g>
 </g>
 <defs>
  <clipPath id="p17fc242e4d">
   <rect height="307.51175" width="409.903625" x="37.576375" y="13.32"/>
  </clipPath>
 </defs>
</svg>
