<?xml version="1.0" encoding="utf-8" standalone="no"?>
<!DOCTYPE svg PUBLIC "-//W3C//DTD SVG 1.1//EN"
  "http://www.w3.org/Graphics/SVG/1.1/DTD/svg11.dtd">
<!-- Created with matplotlib (http://matplotlib.org/) -->
<svg height="345.6pt" version="1.1" viewBox="0 0 460.8 345.6" width="460.8pt" xmlns="http://www.w3.org/2000/svg" xmlns:xlink="http://www.w3.org/1999/xlink">
 <defs>
  <style type="text/css">
*{stroke-linecap:butt;stroke-linejoin:round;}
  </style>
 </defs>
 <g id="figure_1">
  <g id="patch_1">
   <path d="M 0 345.6 
L 460.8 345.6 
L 460.8 0 
L 0 0 
z
" style="fill:#ffffff;"/>
  </g>
  <g id="axes_1">
   <g id="patch_2">
    <path clip-path="url(#pf0303d2f4f)" d="M 60.754592 256.098795 
C 61.5634 256.098795 62.339189 255.759246 62.911102 255.154932 
C 63.483015 254.550617 63.804358 253.730875 63.804358 252.876245 
C 63.804358 252.021615 63.483015 251.201874 62.911102 250.597559 
C 62.339189 249.993244 61.5634 249.653696 60.754592 249.653696 
C 59.945785 249.653696 59.169996 249.993244 58.598082 250.597559 
C 58.026169 251.201874 57.704827 252.021615 57.704827 252.876245 
C 57.704827 253.730875 58.026169 254.550617 58.598082 255.154932 
C 59.169996 255.759246 59.945785 256.098795 60.754592 256.098795 
z
" style="fill:#ff0000;opacity:0.2;stroke:#ff0000;stroke-linejoin:miter;stroke-width:2;"/>
   </g>
   <g id="patch_3">
    <path clip-path="url(#pf0303d2f4f)" d="M 307.785593 61.134573 
C 308.5944 61.134573 309.370189 60.795024 309.942103 60.19071 
C 310.514016 59.586395 310.835358 58.766653 310.835358 57.912023 
C 310.835358 57.057393 310.514016 56.237652 309.942103 55.633337 
C 309.370189 55.029022 308.5944 54.689474 307.785593 54.689474 
C 306.976785 54.689474 306.200996 55.029022 305.629083 55.633337 
C 305.05717 56.237652 304.735827 57.057393 304.735827 57.912023 
C 304.735827 58.766653 305.05717 59.586395 305.629083 60.19071 
C 306.200996 60.795024 306.976785 61.134573 307.785593 61.134573 
z
" style="fill:#ff0000;opacity:0.2;stroke:#ff0000;stroke-linejoin:miter;stroke-width:2;"/>
   </g>
   <g id="patch_4">
    <path clip-path="url(#pf0303d2f4f)" d="M 358.106722 33.742905 
C 358.91553 33.742905 359.691319 33.403357 360.263232 32.799042 
C 360.835145 32.194728 361.156488 31.374986 361.156488 30.520356 
C 361.156488 29.665726 360.835145 28.845984 360.263232 28.24167 
C 359.691319 27.637355 358.91553 27.297807 358.106722 27.297807 
C 357.297915 27.297807 356.522126 27.637355 355.950213 28.24167 
C 355.378299 28.845984 355.056957 29.665726 355.056957 30.520356 
C 355.056957 31.374986 355.378299 32.194728 355.950213 32.799042 
C 356.522126 33.403357 357.297915 33.742905 358.106722 33.742905 
z
" style="fill:#ff0000;opacity:0.2;stroke:#ff0000;stroke-linejoin:miter;stroke-width:2;"/>
   </g>
   <g id="patch_5">
    <path clip-path="url(#pf0303d2f4f)" d="M 409.952735 83.692416 
C 410.761542 83.692416 411.537332 83.352868 412.109245 82.748554 
C 412.681158 82.144239 413.0025 81.324497 413.0025 80.469867 
C 413.0025 79.615237 412.681158 78.795496 412.109245 78.191181 
C 411.537332 77.586866 410.761542 77.247318 409.952735 77.247318 
C 409.143928 77.247318 408.368138 77.586866 407.796225 78.191181 
C 407.224312 78.795496 406.902969 79.615237 406.902969 80.469867 
C 406.902969 81.324497 407.224312 82.144239 407.796225 82.748554 
C 408.368138 83.352868 409.143928 83.692416 409.952735 83.692416 
z
" style="fill:#ff0000;opacity:0.2;stroke:#ff0000;stroke-linejoin:miter;stroke-width:2;"/>
   </g>
   <g id="patch_6">
    <path clip-path="url(#pf0303d2f4f)" d="M 425.201562 152.977223 
C 426.010369 152.977223 426.786159 152.637674 427.358072 152.03336 
C 427.929985 151.429045 428.251327 150.609303 428.251327 149.754673 
C 428.251327 148.900043 427.929985 148.080302 427.358072 147.475987 
C 426.786159 146.871672 426.010369 146.532124 425.201562 146.532124 
C 424.392755 146.532124 423.616965 146.871672 423.045052 147.475987 
C 422.473139 148.080302 422.151797 148.900043 422.151797 149.754673 
C 422.151797 150.609303 422.473139 151.429045 423.045052 152.03336 
C 423.616965 152.637674 424.392755 152.977223 425.201562 152.977223 
z
" style="fill:#ff0000;opacity:0.2;stroke:#ff0000;stroke-linejoin:miter;stroke-width:2;"/>
   </g>
   <g id="patch_7">
    <path clip-path="url(#pf0303d2f4f)" d="M 376.405315 193.259087 
C 377.214122 193.259087 377.989912 192.919539 378.561825 192.315224 
C 379.133738 191.710909 379.45508 190.891168 379.45508 190.036537 
C 379.45508 189.181907 379.133738 188.362166 378.561825 187.757851 
C 377.989912 187.153536 377.214122 186.813988 376.405315 186.813988 
C 375.596508 186.813988 374.820718 187.153536 374.248805 187.757851 
C 373.676892 188.362166 373.35555 189.181907 373.35555 190.036537 
C 373.35555 190.891168 373.676892 191.710909 374.248805 192.315224 
C 374.820718 192.919539 375.596508 193.259087 376.405315 193.259087 
z
" style="fill:#ff0000;opacity:0.2;stroke:#ff0000;stroke-linejoin:miter;stroke-width:2;"/>
   </g>
   <g id="patch_8">
    <path clip-path="url(#pf0303d2f4f)" d="M 77.528302 296.380659 
C 78.337109 296.380659 79.112899 296.04111 79.684812 295.436796 
C 80.256725 294.832481 80.578068 294.012739 80.578068 293.158109 
C 80.578068 292.303479 80.256725 291.483738 79.684812 290.879423 
C 79.112899 290.275108 78.337109 289.93556 77.528302 289.93556 
C 76.719495 289.93556 75.943705 290.275108 75.371792 290.879423 
C 74.799879 291.483738 74.478537 292.303479 74.478537 293.158109 
C 74.478537 294.012739 74.799879 294.832481 75.371792 295.436796 
C 75.943705 296.04111 76.719495 296.380659 77.528302 296.380659 
z
" style="fill:#ff0000;opacity:0.2;stroke:#ff0000;stroke-linejoin:miter;stroke-width:2;"/>
   </g>
   <g id="patch_9">
    <path clip-path="url(#pf0303d2f4f)" d="M 358.106722 192.453449 
C 358.91553 192.453449 359.691319 192.113901 360.263232 191.509587 
C 360.835145 190.905272 361.156488 190.08553 361.156488 189.2309 
C 361.156488 188.37627 360.835145 187.556529 360.263232 186.952214 
C 359.691319 186.347899 358.91553 186.008351 358.106722 186.008351 
C 357.297915 186.008351 356.522126 186.347899 355.950213 186.952214 
C 355.378299 187.556529 355.056957 188.37627 355.056957 189.2309 
C 355.056957 190.08553 355.378299 190.905272 355.950213 191.509587 
C 356.522126 192.113901 357.297915 192.453449 358.106722 192.453449 
z
" style="fill:#0000ff;opacity:0.2;stroke:#0000ff;stroke-linejoin:miter;stroke-width:2;"/>
   </g>
   <g id="patch_10">
    <path clip-path="url(#pf0303d2f4f)" d="M 104.976191 306.853943 
C 105.784998 306.853943 106.560788 306.514395 107.132701 305.91008 
C 107.704614 305.305766 108.025957 304.486024 108.025957 303.631394 
C 108.025957 302.776764 107.704614 301.957022 107.132701 301.352708 
C 106.560788 300.748393 105.784998 300.408845 104.976191 300.408845 
C 104.167384 300.408845 103.391594 300.748393 102.819681 301.352708 
C 102.247768 301.957022 101.926426 302.776764 101.926426 303.631394 
C 101.926426 304.486024 102.247768 305.305766 102.819681 305.91008 
C 103.391594 306.514395 104.167384 306.853943 104.976191 306.853943 
z
" style="fill:#0000ff;opacity:0.2;stroke:#0000ff;stroke-linejoin:miter;stroke-width:2;"/>
   </g>
   <g id="patch_11">
    <path clip-path="url(#pf0303d2f4f)" d="M 89.727364 268.183354 
C 90.536171 268.183354 91.311961 267.843806 91.883874 267.239491 
C 92.455787 266.635176 92.777129 265.815435 92.777129 264.960805 
C 92.777129 264.106175 92.455787 263.286433 91.883874 262.682118 
C 91.311961 262.077804 90.536171 261.738255 89.727364 261.738255 
C 88.918557 261.738255 88.142767 262.077804 87.570854 262.682118 
C 86.998941 263.286433 86.677599 264.106175 86.677599 264.960805 
C 86.677599 265.815435 86.998941 266.635176 87.570854 267.239491 
C 88.142767 267.843806 88.918557 268.183354 89.727364 268.183354 
z
" style="fill:#0000ff;opacity:0.2;stroke:#0000ff;stroke-linejoin:miter;stroke-width:2;"/>
   </g>
   <g id="patch_12">
    <path clip-path="url(#pf0303d2f4f)" d="M 303.210945 86.109328 
C 304.019752 86.109328 304.795541 85.76978 305.367454 85.165466 
C 305.939367 84.561151 306.26071 83.741409 306.26071 82.886779 
C 306.26071 82.032149 305.939367 81.212408 305.367454 80.608093 
C 304.795541 80.003778 304.019752 79.66423 303.210945 79.66423 
C 302.402137 79.66423 301.626348 80.003778 301.054435 80.608093 
C 300.482522 81.212408 300.161179 82.032149 300.161179 82.886779 
C 300.161179 83.741409 300.482522 84.561151 301.054435 85.165466 
C 301.626348 85.76978 302.402137 86.109328 303.210945 86.109328 
z
" style="fill:#0000ff;opacity:0.2;stroke:#0000ff;stroke-linejoin:miter;stroke-width:2;"/>
   </g>
   <g id="patch_13">
    <path clip-path="url(#pf0303d2f4f)" d="M 344.382778 65.162759 
C 345.191585 65.162759 345.967375 64.823211 346.539288 64.218896 
C 347.111201 63.614582 347.432543 62.79484 347.432543 61.94021 
C 347.432543 61.08558 347.111201 60.265838 346.539288 59.661524 
C 345.967375 59.057209 345.191585 58.717661 344.382778 58.717661 
C 343.573971 58.717661 342.798181 59.057209 342.226268 59.661524 
C 341.654355 60.265838 341.333012 61.08558 341.333012 61.94021 
C 341.333012 62.79484 341.654355 63.614582 342.226268 64.218896 
C 342.798181 64.823211 343.573971 65.162759 344.382778 65.162759 
z
" style="fill:#0000ff;opacity:0.2;stroke:#0000ff;stroke-linejoin:miter;stroke-width:2;"/>
   </g>
   <g id="patch_14">
    <path clip-path="url(#pf0303d2f4f)" d="M 385.554611 100.610799 
C 386.363419 100.610799 387.139208 100.271251 387.711121 99.666937 
C 388.283034 99.062622 388.604377 98.24288 388.604377 97.38825 
C 388.604377 96.53362 388.283034 95.713879 387.711121 95.109564 
C 387.139208 94.505249 386.363419 94.165701 385.554611 94.165701 
C 384.745804 94.165701 383.970015 94.505249 383.398101 95.109564 
C 382.826188 95.713879 382.504846 96.53362 382.504846 97.38825 
C 382.504846 98.24288 382.826188 99.062622 383.398101 99.666937 
C 383.970015 100.271251 384.745804 100.610799 385.554611 100.610799 
z
" style="fill:#0000ff;opacity:0.2;stroke:#0000ff;stroke-linejoin:miter;stroke-width:2;"/>
   </g>
   <g id="patch_15">
    <path clip-path="url(#pf0303d2f4f)" d="M 396.22879 166.673056 
C 397.037598 166.673056 397.813387 166.333508 398.3853 165.729194 
C 398.957213 165.124879 399.278556 164.305137 399.278556 163.450507 
C 399.278556 162.595877 398.957213 161.776136 398.3853 161.171821 
C 397.813387 160.567506 397.037598 160.227958 396.22879 160.227958 
C 395.419983 160.227958 394.644194 160.567506 394.072281 161.171821 
C 393.500367 161.776136 393.179025 162.595877 393.179025 163.450507 
C 393.179025 164.305137 393.500367 165.124879 394.072281 165.729194 
C 394.644194 166.333508 395.419983 166.673056 396.22879 166.673056 
z
" style="fill:#0000ff;opacity:0.2;stroke:#0000ff;stroke-linejoin:miter;stroke-width:2;"/>
   </g>
   <g id="patch_16">
    <path clip-path="url(#pf0303d2f4f)" d="M 60.754592 252.876245 
L 307.785593 57.912023 
C 332.183716 38.576729 347.432543 30.520356 358.106722 30.520356 
C 373.35555 30.520356 391.654142 43.410552 409.952735 80.469867 
C 428.251327 114.306633 428.251327 138.475752 425.201562 149.754673 
C 422.151797 162.64487 406.902969 180.36889 376.405315 190.036537 
L 77.528302 293.158109 
C 65.32924 288.324286 56.179944 270.600266 60.754592 252.876245 
" style="fill:none;stroke:#ff0000;stroke-linejoin:miter;stroke-width:0.5;"/>
   </g>
   <g id="patch_17">
    <path clip-path="url(#pf0303d2f4f)" d="M 358.106722 189.2309 
L 104.976191 303.631394 
C 94.302012 300.408845 85.152716 282.684825 89.727364 264.960805 
L 303.210945 82.886779 
C 321.509537 68.385308 333.708599 61.94021 344.382778 61.94021 
C 355.056957 61.94021 373.35555 71.607857 385.554611 97.38825 
C 399.278556 128.002467 400.803438 150.560311 396.22879 163.450507 
C 390.129259 171.50688 379.45508 179.563253 358.106722 189.2309 
" style="fill:none;stroke:#0000ff;stroke-linejoin:miter;stroke-width:0.5;"/>
   </g>
   <g id="[&quot;g_s&quot;:1,&quot;g_t&quot;:3,&quot;coords&quot;:[[167.0, 31.0],[186.0, 23.5]],&quot;certainty&quot;:11]">
    <path clip-path="url(#pf0303d2f4f)" d="M 60.754592 262.543893 
C 63.181014 262.543893 65.508383 261.525248 67.224122 259.712304 
C 68.939861 257.89936 69.903889 255.440135 69.903889 252.876245 
C 69.903889 250.312355 68.939861 247.85313 67.224122 246.040186 
C 65.508383 244.227242 63.181014 243.208598 60.754592 243.208598 
C 58.328171 243.208598 56.000802 244.227242 54.285063 246.040186 
C 52.569324 247.85313 51.605296 250.312355 51.605296 252.876245 
C 51.605296 255.440135 52.569324 257.89936 54.285063 259.712304 
C 56.000802 261.525248 58.328171 262.543893 60.754592 262.543893 
z
" style="fill:#0000ff;opacity:0.2;stroke:#0000ff;stroke-linejoin:miter;stroke-width:2;"/>
   </g>
   <g id="[&quot;g_s&quot;:3,&quot;g_t&quot;:1,&quot;coords&quot;:[[186.0, 23.5],[167.0, 31.0]],&quot;certainty&quot;:11]">
    <path clip-path="url(#pf0303d2f4f)" d="M 89.727364 274.628452 
C 92.153786 274.628452 94.481154 273.609808 96.196893 271.796864 
C 97.912633 269.98392 98.87666 267.524695 98.87666 264.960805 
C 98.87666 262.396915 97.912633 259.93769 96.196893 258.124746 
C 94.481154 256.311802 92.153786 255.293157 89.727364 255.293157 
C 87.300942 255.293157 84.973574 256.311802 83.257835 258.124746 
C 81.542095 259.93769 80.578068 262.396915 80.578068 264.960805 
C 80.578068 267.524695 81.542095 269.98392 83.257835 271.796864 
C 84.973574 273.609808 87.300942 274.628452 89.727364 274.628452 
z
" style="fill:#ff0000;opacity:0.2;stroke:#ff0000;stroke-linejoin:miter;stroke-width:2;"/>
   </g>
   <g id="patch_18">
    <path d="M 60.754592 252.876245 
Q 74.319664 258.534244 85.926895 263.375627 
" style="fill:none;opacity:0.5;stroke:#0000ff;stroke-linecap:round;stroke-width:3;"/>
    <path d="M 85.119928 261.41379 
L 85.926895 263.375627 
L 83.965058 264.182594 
" style="fill:none;opacity:0.5;stroke:#0000ff;stroke-linecap:round;stroke-width:3;"/>
   </g>
   <g id="[&quot;g_s&quot;:2,&quot;g_t&quot;:4,&quot;coords&quot;:[[329.0, 152.0],[326.0, 136.5]],&quot;certainty&quot;:6]">
    <path clip-path="url(#pf0303d2f4f)" d="M 307.785593 63.551484 
C 309.201005 63.551484 310.558637 62.957275 311.559485 61.899725 
C 312.560333 60.842174 313.122682 59.407626 313.122682 57.912023 
C 313.122682 56.416421 312.560333 54.981873 311.559485 53.924322 
C 310.558637 52.866772 309.201005 52.272563 307.785593 52.272563 
C 306.37018 52.272563 305.012548 52.866772 304.0117 53.924322 
C 303.010853 54.981873 302.448503 56.416421 302.448503 57.912023 
C 302.448503 59.407626 303.010853 60.842174 304.0117 61.899725 
C 305.012548 62.957275 306.37018 63.551484 307.785593 63.551484 
z
" style="fill:#0000ff;opacity:0.2;stroke:#0000ff;stroke-linejoin:miter;stroke-width:2;"/>
   </g>
   <g id="[&quot;g_s&quot;:4,&quot;g_t&quot;:2,&quot;coords&quot;:[[326.0, 136.5],[329.0, 152.0]],&quot;certainty&quot;:6]">
    <path clip-path="url(#pf0303d2f4f)" d="M 303.210945 88.52624 
C 304.626357 88.52624 305.983989 87.932031 306.984837 86.87448 
C 307.985685 85.81693 308.548034 84.382382 308.548034 82.886779 
C 308.548034 81.391177 307.985685 79.956629 306.984837 78.899078 
C 305.983989 77.841527 304.626357 77.247318 303.210945 77.247318 
C 301.795532 77.247318 300.4379 77.841527 299.437052 78.899078 
C 298.436204 79.956629 297.873855 81.391177 297.873855 82.886779 
C 297.873855 84.382382 298.436204 85.81693 299.437052 86.87448 
C 300.4379 87.932031 301.795532 88.52624 303.210945 88.52624 
z
" style="fill:#ff0000;opacity:0.2;stroke:#ff0000;stroke-linejoin:miter;stroke-width:2;"/>
   </g>
   <g id="patch_19">
    <path d="M 307.785593 57.912023 
Q 305.678362 69.416203 303.794084 79.703197 
" style="fill:none;opacity:0.5;stroke:#0000ff;stroke-linecap:round;stroke-width:1.75;"/>
    <path d="M 305.539796 78.498005 
L 303.794084 79.703197 
L 302.588892 77.957485 
" style="fill:none;opacity:0.5;stroke:#0000ff;stroke-linecap:round;stroke-width:1.75;"/>
   </g>
   <g id="[&quot;g_s&quot;:3,&quot;g_t&quot;:5,&quot;coords&quot;:[[362.0, 169.0],[353.0, 149.5]],&quot;certainty&quot;:10]">
    <path clip-path="url(#pf0303d2f4f)" d="M 358.106722 39.382366 
C 360.330942 39.382366 362.464363 38.448609 364.037124 36.786743 
C 365.609885 35.124878 366.493577 32.870588 366.493577 30.520356 
C 366.493577 28.170123 365.609885 25.915834 364.037124 24.253969 
C 362.464363 22.592103 360.330942 21.658346 358.106722 21.658346 
C 355.882502 21.658346 353.749081 22.592103 352.17632 24.253969 
C 350.603559 25.915834 349.719867 28.170123 349.719867 30.520356 
C 349.719867 32.870588 350.603559 35.124878 352.17632 36.786743 
C 353.749081 38.448609 355.882502 39.382366 358.106722 39.382366 
z
" style="fill:#0000ff;opacity:0.2;stroke:#0000ff;stroke-linejoin:miter;stroke-width:2;"/>
   </g>
   <g id="[&quot;g_s&quot;:5,&quot;g_t&quot;:3,&quot;coords&quot;:[[353.0, 149.5],[362.0, 169.0]],&quot;certainty&quot;:10]">
    <path clip-path="url(#pf0303d2f4f)" d="M 344.382778 70.80222 
C 346.606998 70.80222 348.740419 69.868463 350.31318 68.206597 
C 351.885941 66.544732 352.769633 64.290442 352.769633 61.94021 
C 352.769633 59.589977 351.885941 57.335688 350.31318 55.673822 
C 348.740419 54.011957 346.606998 53.0782 344.382778 53.0782 
C 342.158558 53.0782 340.025137 54.011957 338.452376 55.673822 
C 336.879615 57.335688 335.995923 59.589977 335.995923 61.94021 
C 335.995923 64.290442 336.879615 66.544732 338.452376 68.206597 
C 340.025137 69.868463 342.158558 70.80222 344.382778 70.80222 
z
" style="fill:#ff0000;opacity:0.2;stroke:#ff0000;stroke-linejoin:miter;stroke-width:2;"/>
   </g>
   <g id="patch_20">
    <path d="M 358.106722 30.520356 
Q 351.644306 45.315533 345.96024 58.328738 
" style="fill:none;opacity:0.5;stroke:#0000ff;stroke-linecap:round;stroke-width:2.75;"/>
    <path d="M 347.935245 57.554557 
L 345.96024 58.328738 
L 345.186059 56.353734 
" style="fill:none;opacity:0.5;stroke:#0000ff;stroke-linecap:round;stroke-width:2.75;"/>
   </g>
   <g id="[&quot;g_s&quot;:4,&quot;g_t&quot;:6,&quot;coords&quot;:[[396.0, 138.0],[380.0, 127.5]],&quot;certainty&quot;:6]">
    <path clip-path="url(#pf0303d2f4f)" d="M 409.952735 86.109328 
C 411.368147 86.109328 412.725779 85.515119 413.726627 84.457568 
C 414.727475 83.400018 415.289824 81.96547 415.289824 80.469867 
C 415.289824 78.974265 414.727475 77.539717 413.726627 76.482166 
C 412.725779 75.424616 411.368147 74.830406 409.952735 74.830406 
C 408.537322 74.830406 407.179691 75.424616 406.178843 76.482166 
C 405.177995 77.539717 404.615645 78.974265 404.615645 80.469867 
C 404.615645 81.96547 405.177995 83.400018 406.178843 84.457568 
C 407.179691 85.515119 408.537322 86.109328 409.952735 86.109328 
z
" style="fill:#0000ff;opacity:0.2;stroke:#0000ff;stroke-linejoin:miter;stroke-width:2;"/>
   </g>
   <g id="[&quot;g_s&quot;:6,&quot;g_t&quot;:4,&quot;coords&quot;:[[380.0, 127.5],[396.0, 138.0]],&quot;certainty&quot;:6]">
    <path clip-path="url(#pf0303d2f4f)" d="M 385.554611 103.027711 
C 386.970024 103.027711 388.327656 102.433502 389.328504 101.375951 
C 390.329351 100.318401 390.891701 98.883853 390.891701 97.38825 
C 390.891701 95.892648 390.329351 94.4581 389.328504 93.400549 
C 388.327656 92.342998 386.970024 91.748789 385.554611 91.748789 
C 384.139199 91.748789 382.781567 92.342998 381.780719 93.400549 
C 380.779871 94.4581 380.217522 95.892648 380.217522 97.38825 
C 380.217522 98.883853 380.779871 100.318401 381.780719 101.375951 
C 382.781567 102.433502 384.139199 103.027711 385.554611 103.027711 
z
" style="fill:#ff0000;opacity:0.2;stroke:#ff0000;stroke-linejoin:miter;stroke-width:2;"/>
   </g>
   <g id="patch_21">
    <path d="M 409.952735 80.469867 
Q 398.574191 88.360087 388.212524 95.545175 
" style="fill:none;opacity:0.5;stroke:#0000ff;stroke-linecap:round;stroke-width:1.75;"/>
    <path d="M 390.299914 95.923066 
L 388.212524 95.545175 
L 388.590415 93.457784 
" style="fill:none;opacity:0.5;stroke:#0000ff;stroke-linecap:round;stroke-width:1.75;"/>
   </g>
   <g id="[&quot;g_s&quot;:5,&quot;g_t&quot;:7,&quot;coords&quot;:[[406.0, 95.0],[387.0, 86.5]],&quot;certainty&quot;:6]">
    <path clip-path="url(#pf0303d2f4f)" d="M 425.201562 155.394134 
C 426.616975 155.394134 427.974606 154.799925 428.975454 153.742375 
C 429.976302 152.684824 430.538652 151.250276 430.538652 149.754673 
C 430.538652 148.259071 429.976302 146.824523 428.975454 145.766972 
C 427.974606 144.709422 426.616975 144.115213 425.201562 144.115213 
C 423.786149 144.115213 422.428518 144.709422 421.42767 145.766972 
C 420.426822 146.824523 419.864472 148.259071 419.864472 149.754673 
C 419.864472 151.250276 420.426822 152.684824 421.42767 153.742375 
C 422.428518 154.799925 423.786149 155.394134 425.201562 155.394134 
z
" style="fill:#0000ff;opacity:0.2;stroke:#0000ff;stroke-linejoin:miter;stroke-width:2;"/>
   </g>
   <g id="[&quot;g_s&quot;:7,&quot;g_t&quot;:5,&quot;coords&quot;:[[387.0, 86.5],[406.0, 95.0]],&quot;certainty&quot;:6]">
    <path clip-path="url(#pf0303d2f4f)" d="M 396.22879 169.089968 
C 397.644203 169.089968 399.001835 168.495759 400.002683 167.438208 
C 401.00353 166.380658 401.56588 164.94611 401.56588 163.450507 
C 401.56588 161.954905 401.00353 160.520357 400.002683 159.462806 
C 399.001835 158.405255 397.644203 157.811046 396.22879 157.811046 
C 394.813378 157.811046 393.455746 158.405255 392.454898 159.462806 
C 391.45405 160.520357 390.891701 161.954905 390.891701 163.450507 
C 390.891701 164.94611 391.45405 166.380658 392.454898 167.438208 
C 393.455746 168.495759 394.813378 169.089968 396.22879 169.089968 
z
" style="fill:#ff0000;opacity:0.2;stroke:#ff0000;stroke-linejoin:miter;stroke-width:2;"/>
   </g>
   <g id="patch_22">
    <path d="M 425.201562 149.754673 
Q 411.618807 156.175431 399.15479 162.067346 
" style="fill:none;opacity:0.5;stroke:#0000ff;stroke-linecap:round;stroke-width:1.75;"/>
    <path d="M 401.15196 162.782407 
L 399.15479 162.067346 
L 399.869851 160.070176 
" style="fill:none;opacity:0.5;stroke:#0000ff;stroke-linecap:round;stroke-width:1.75;"/>
   </g>
   <g id="[&quot;g_s&quot;:6,&quot;g_t&quot;:1,&quot;coords&quot;:[[374.0, 70.0],[362.0, 70.5]],&quot;certainty&quot;:11]">
    <path clip-path="url(#pf0303d2f4f)" d="M 376.405315 199.704185 
C 378.831737 199.704185 381.159105 198.685541 382.874844 196.872597 
C 384.590584 195.059652 385.554611 192.600428 385.554611 190.036537 
C 385.554611 187.472647 384.590584 185.013423 382.874844 183.200478 
C 381.159105 181.387534 378.831737 180.36889 376.405315 180.36889 
C 373.978893 180.36889 371.651525 181.387534 369.935786 183.200478 
C 368.220046 185.013423 367.256019 187.472647 367.256019 190.036537 
C 367.256019 192.600428 368.220046 195.059652 369.935786 196.872597 
C 371.651525 198.685541 373.978893 199.704185 376.405315 199.704185 
z
" style="fill:#0000ff;opacity:0.2;stroke:#0000ff;stroke-linejoin:miter;stroke-width:2;"/>
   </g>
   <g id="[&quot;g_s&quot;:1,&quot;g_t&quot;:6,&quot;coords&quot;:[[362.0, 70.5],[374.0, 70.0]],&quot;certainty&quot;:11]">
    <path clip-path="url(#pf0303d2f4f)" d="M 358.106722 198.898548 
C 360.533144 198.898548 362.860513 197.879903 364.576252 196.066959 
C 366.291991 194.254015 367.256019 191.79479 367.256019 189.2309 
C 367.256019 186.66701 366.291991 184.207785 364.576252 182.394841 
C 362.860513 180.581897 360.533144 179.563253 358.106722 179.563253 
C 355.680301 179.563253 353.352932 180.581897 351.637193 182.394841 
C 349.921454 184.207785 348.957426 186.66701 348.957426 189.2309 
C 348.957426 191.79479 349.921454 194.254015 351.637193 196.066959 
C 353.352932 197.879903 355.680301 198.898548 358.106722 198.898548 
z
" style="fill:#ff0000;opacity:0.2;stroke:#ff0000;stroke-linejoin:miter;stroke-width:2;"/>
   </g>
   <g id="patch_23">
    <path d="M 376.405315 190.036537 
Q 368.254489 189.677679 362.222931 189.412126 
" style="fill:none;opacity:0.5;stroke:#0000ff;stroke-linecap:round;stroke-width:3;"/>
    <path d="M 363.655502 190.976651 
L 362.222931 189.412126 
L 363.787456 187.979554 
" style="fill:none;opacity:0.5;stroke:#0000ff;stroke-linecap:round;stroke-width:3;"/>
   </g>
   <g id="[&quot;g_s&quot;:7,&quot;g_t&quot;:2,&quot;coords&quot;:[[178.0, 6.0],[196.0, -0.5]],&quot;certainty&quot;:4]">
    <path clip-path="url(#pf0303d2f4f)" d="M 77.528302 297.186296 
C 78.539311 297.186296 79.509048 296.761861 80.223939 296.006467 
C 80.938831 295.251074 81.340509 294.226397 81.340509 293.158109 
C 81.340509 292.089822 80.938831 291.065145 80.223939 290.309751 
C 79.509048 289.554358 78.539311 289.129923 77.528302 289.129923 
C 76.517293 289.129923 75.547556 289.554358 74.832665 290.309751 
C 74.117774 291.065145 73.716095 292.089822 73.716095 293.158109 
C 73.716095 294.226397 74.117774 295.251074 74.832665 296.006467 
C 75.547556 296.761861 76.517293 297.186296 77.528302 297.186296 
z
" style="fill:#0000ff;opacity:0.2;stroke:#0000ff;stroke-linejoin:miter;stroke-width:2;"/>
   </g>
   <g id="[&quot;g_s&quot;:2,&quot;g_t&quot;:7,&quot;coords&quot;:[[196.0, -0.5],[178.0, 6.0]],&quot;certainty&quot;:4]">
    <path clip-path="url(#pf0303d2f4f)" d="M 104.976191 307.65958 
C 105.9872 307.65958 106.956937 307.235145 107.671828 306.479752 
C 108.38672 305.724359 108.788398 304.699682 108.788398 303.631394 
C 108.788398 302.563107 108.38672 301.538429 107.671828 300.783036 
C 106.956937 300.027643 105.9872 299.603208 104.976191 299.603208 
C 103.965182 299.603208 102.995445 300.027643 102.280554 300.783036 
C 101.565663 301.538429 101.163984 302.563107 101.163984 303.631394 
C 101.163984 304.699682 101.565663 305.724359 102.280554 306.479752 
C 102.995445 307.235145 103.965182 307.65958 104.976191 307.65958 
z
" style="fill:#ff0000;opacity:0.2;stroke:#ff0000;stroke-linejoin:miter;stroke-width:2;"/>
   </g>
   <g id="patch_24">
    <path d="M 77.528302 293.158109 
Q 90.319112 298.038696 102.284114 302.604179 
" style="fill:none;opacity:0.5;stroke:#0000ff;stroke-linecap:round;stroke-width:1.25;"/>
    <path d="M 101.417419 300.667987 
L 102.284114 302.604179 
L 100.347922 303.470874 
" style="fill:none;opacity:0.5;stroke:#0000ff;stroke-linecap:round;stroke-width:1.25;"/>
   </g>
   <g id="[&quot;g_s&quot;:1,&quot;g_t&quot;:6,&quot;coords&quot;:[[362.0, 70.5],[374.0, 70.0]],&quot;certainty&quot;:11]">
    <path clip-path="url(#pf0303d2f4f)" d="M 358.106722 198.898548 
C 360.533144 198.898548 362.860513 197.879903 364.576252 196.066959 
C 366.291991 194.254015 367.256019 191.79479 367.256019 189.2309 
C 367.256019 186.66701 366.291991 184.207785 364.576252 182.394841 
C 362.860513 180.581897 360.533144 179.563253 358.106722 179.563253 
C 355.680301 179.563253 353.352932 180.581897 351.637193 182.394841 
C 349.921454 184.207785 348.957426 186.66701 348.957426 189.2309 
C 348.957426 191.79479 349.921454 194.254015 351.637193 196.066959 
C 353.352932 197.879903 355.680301 198.898548 358.106722 198.898548 
z
" style="fill:#0000ff;opacity:0.2;stroke:#0000ff;stroke-linejoin:miter;stroke-width:2;"/>
   </g>
   <g id="[&quot;g_s&quot;:6,&quot;g_t&quot;:1,&quot;coords&quot;:[[374.0, 70.0],[362.0, 70.5]],&quot;certainty&quot;:11]">
    <path clip-path="url(#pf0303d2f4f)" d="M 376.405315 199.704185 
C 378.831737 199.704185 381.159105 198.685541 382.874844 196.872597 
C 384.590584 195.059652 385.554611 192.600428 385.554611 190.036537 
C 385.554611 187.472647 384.590584 185.013423 382.874844 183.200478 
C 381.159105 181.387534 378.831737 180.36889 376.405315 180.36889 
C 373.978893 180.36889 371.651525 181.387534 369.935786 183.200478 
C 368.220046 185.013423 367.256019 187.472647 367.256019 190.036537 
C 367.256019 192.600428 368.220046 195.059652 369.935786 196.872597 
C 371.651525 198.685541 373.978893 199.704185 376.405315 199.704185 
z
" style="fill:#ff0000;opacity:0.2;stroke:#ff0000;stroke-linejoin:miter;stroke-width:2;"/>
   </g>
   <g id="patch_25">
    <path d="M 358.106722 189.2309 
Q 366.257548 189.589759 372.289107 189.855312 
" style="fill:none;opacity:0.5;stroke:#ff0000;stroke-linecap:round;stroke-width:3;"/>
    <path d="M 370.856535 188.290787 
L 372.289107 189.855312 
L 370.724581 191.287883 
" style="fill:none;opacity:0.5;stroke:#ff0000;stroke-linecap:round;stroke-width:3;"/>
   </g>
   <g id="[&quot;g_s&quot;:2,&quot;g_t&quot;:7,&quot;coords&quot;:[[196.0, -0.5],[178.0, 6.0]],&quot;certainty&quot;:5]">
    <path clip-path="url(#pf0303d2f4f)" d="M 104.976191 308.465218 
C 106.189402 308.465218 107.353086 307.955896 108.210956 307.049424 
C 109.068826 306.142952 109.550839 304.913339 109.550839 303.631394 
C 109.550839 302.349449 109.068826 301.119837 108.210956 300.213365 
C 107.353086 299.306893 106.189402 298.79757 104.976191 298.79757 
C 103.76298 298.79757 102.599296 299.306893 101.741426 300.213365 
C 100.883557 301.119837 100.401543 302.349449 100.401543 303.631394 
C 100.401543 304.913339 100.883557 306.142952 101.741426 307.049424 
C 102.599296 307.955896 103.76298 308.465218 104.976191 308.465218 
z
" style="fill:#0000ff;opacity:0.2;stroke:#0000ff;stroke-linejoin:miter;stroke-width:2;"/>
   </g>
   <g id="[&quot;g_s&quot;:7,&quot;g_t&quot;:2,&quot;coords&quot;:[[178.0, 6.0],[196.0, -0.5]],&quot;certainty&quot;:5]">
    <path clip-path="url(#pf0303d2f4f)" d="M 77.528302 297.991933 
C 78.741513 297.991933 79.905197 297.482611 80.763067 296.576139 
C 81.620937 295.669667 82.10295 294.440054 82.10295 293.158109 
C 82.10295 291.876164 81.620937 290.646552 80.763067 289.74008 
C 79.905197 288.833608 78.741513 288.324286 77.528302 288.324286 
C 76.315091 288.324286 75.151407 288.833608 74.293537 289.74008 
C 73.435668 290.646552 72.953654 291.876164 72.953654 293.158109 
C 72.953654 294.440054 73.435668 295.669667 74.293537 296.576139 
C 75.151407 297.482611 76.315091 297.991933 77.528302 297.991933 
z
" style="fill:#ff0000;opacity:0.2;stroke:#ff0000;stroke-linejoin:miter;stroke-width:2;"/>
   </g>
   <g id="patch_26">
    <path d="M 104.976191 303.631394 
Q 92.185381 298.750808 80.385541 294.248345 
" style="fill:none;opacity:0.5;stroke:#ff0000;stroke-linecap:round;stroke-width:1.5;"/>
    <path d="M 81.252236 296.184538 
L 80.385541 294.248345 
L 82.321733 293.38165 
" style="fill:none;opacity:0.5;stroke:#ff0000;stroke-linecap:round;stroke-width:1.5;"/>
   </g>
   <g id="[&quot;g_s&quot;:3,&quot;g_t&quot;:1,&quot;coords&quot;:[[186.0, 23.5],[167.0, 31.0]],&quot;certainty&quot;:6]">
    <path clip-path="url(#pf0303d2f4f)" d="M 89.727364 270.600266 
C 91.142777 270.600266 92.500408 270.006056 93.501256 268.948506 
C 94.502104 267.890955 95.064453 266.456407 95.064453 264.960805 
C 95.064453 263.465202 94.502104 262.030654 93.501256 260.973104 
C 92.500408 259.915553 91.142777 259.321344 89.727364 259.321344 
C 88.311951 259.321344 86.95432 259.915553 85.953472 260.973104 
C 84.952624 262.030654 84.390274 263.465202 84.390274 264.960805 
C 84.390274 266.456407 84.952624 267.890955 85.953472 268.948506 
C 86.95432 270.006056 88.311951 270.600266 89.727364 270.600266 
z
" style="fill:#0000ff;opacity:0.2;stroke:#0000ff;stroke-linejoin:miter;stroke-width:2;"/>
   </g>
   <g id="[&quot;g_s&quot;:1,&quot;g_t&quot;:3,&quot;coords&quot;:[[167.0, 31.0],[186.0, 23.5]],&quot;certainty&quot;:6]">
    <path clip-path="url(#pf0303d2f4f)" d="M 60.754592 258.515706 
C 62.170005 258.515706 63.527637 257.921497 64.528485 256.863946 
C 65.529332 255.806396 66.091682 254.371848 66.091682 252.876245 
C 66.091682 251.380643 65.529332 249.946095 64.528485 248.888544 
C 63.527637 247.830994 62.170005 247.236784 60.754592 247.236784 
C 59.33918 247.236784 57.981548 247.830994 56.9807 248.888544 
C 55.979852 249.946095 55.417503 251.380643 55.417503 252.876245 
C 55.417503 254.371848 55.979852 255.806396 56.9807 256.863946 
C 57.981548 257.921497 59.33918 258.515706 60.754592 258.515706 
z
" style="fill:#ff0000;opacity:0.2;stroke:#ff0000;stroke-linejoin:miter;stroke-width:2;"/>
   </g>
   <g id="patch_27">
    <path d="M 89.727364 264.960805 
Q 76.162292 259.302806 63.739294 254.121166 
" style="fill:none;opacity:0.5;stroke:#ff0000;stroke-linecap:round;stroke-width:1.75;"/>
    <path d="M 64.546262 256.083003 
L 63.739294 254.121166 
L 65.701131 253.314199 
" style="fill:none;opacity:0.5;stroke:#ff0000;stroke-linecap:round;stroke-width:1.75;"/>
   </g>
   <g id="[&quot;g_s&quot;:4,&quot;g_t&quot;:2,&quot;coords&quot;:[[326.0, 136.5],[329.0, 152.0]],&quot;certainty&quot;:6]">
    <path clip-path="url(#pf0303d2f4f)" d="M 303.210945 88.52624 
C 304.626357 88.52624 305.983989 87.932031 306.984837 86.87448 
C 307.985685 85.81693 308.548034 84.382382 308.548034 82.886779 
C 308.548034 81.391177 307.985685 79.956629 306.984837 78.899078 
C 305.983989 77.841527 304.626357 77.247318 303.210945 77.247318 
C 301.795532 77.247318 300.4379 77.841527 299.437052 78.899078 
C 298.436204 79.956629 297.873855 81.391177 297.873855 82.886779 
C 297.873855 84.382382 298.436204 85.81693 299.437052 86.87448 
C 300.4379 87.932031 301.795532 88.52624 303.210945 88.52624 
z
" style="fill:#0000ff;opacity:0.2;stroke:#0000ff;stroke-linejoin:miter;stroke-width:2;"/>
   </g>
   <g id="[&quot;g_s&quot;:2,&quot;g_t&quot;:4,&quot;coords&quot;:[[329.0, 152.0],[326.0, 136.5]],&quot;certainty&quot;:6]">
    <path clip-path="url(#pf0303d2f4f)" d="M 307.785593 63.551484 
C 309.201005 63.551484 310.558637 62.957275 311.559485 61.899725 
C 312.560333 60.842174 313.122682 59.407626 313.122682 57.912023 
C 313.122682 56.416421 312.560333 54.981873 311.559485 53.924322 
C 310.558637 52.866772 309.201005 52.272563 307.785593 52.272563 
C 306.37018 52.272563 305.012548 52.866772 304.0117 53.924322 
C 303.010853 54.981873 302.448503 56.416421 302.448503 57.912023 
C 302.448503 59.407626 303.010853 60.842174 304.0117 61.899725 
C 305.012548 62.957275 306.37018 63.551484 307.785593 63.551484 
z
" style="fill:#ff0000;opacity:0.2;stroke:#ff0000;stroke-linejoin:miter;stroke-width:2;"/>
   </g>
   <g id="patch_28">
    <path d="M 303.210945 82.886779 
Q 305.318175 71.382599 307.202453 61.095606 
" style="fill:none;opacity:0.5;stroke:#ff0000;stroke-linecap:round;stroke-width:1.75;"/>
    <path d="M 305.456741 62.300798 
L 307.202453 61.095606 
L 308.407646 62.841318 
" style="fill:none;opacity:0.5;stroke:#ff0000;stroke-linecap:round;stroke-width:1.75;"/>
   </g>
   <g id="[&quot;g_s&quot;:5,&quot;g_t&quot;:3,&quot;coords&quot;:[[353.0, 149.5],[362.0, 169.0]],&quot;certainty&quot;:11]">
    <path clip-path="url(#pf0303d2f4f)" d="M 344.382778 71.607857 
C 346.8092 71.607857 349.136568 70.589213 350.852307 68.776269 
C 352.568047 66.963325 353.532074 64.5041 353.532074 61.94021 
C 353.532074 59.37632 352.568047 56.917095 350.852307 55.104151 
C 349.136568 53.291207 346.8092 52.272563 344.382778 52.272563 
C 341.956356 52.272563 339.628988 53.291207 337.913248 55.104151 
C 336.197509 56.917095 335.233482 59.37632 335.233482 61.94021 
C 335.233482 64.5041 336.197509 66.963325 337.913248 68.776269 
C 339.628988 70.589213 341.956356 71.607857 344.382778 71.607857 
z
" style="fill:#0000ff;opacity:0.2;stroke:#0000ff;stroke-linejoin:miter;stroke-width:2;"/>
   </g>
   <g id="[&quot;g_s&quot;:3,&quot;g_t&quot;:5,&quot;coords&quot;:[[362.0, 169.0],[353.0, 149.5]],&quot;certainty&quot;:11]">
    <path clip-path="url(#pf0303d2f4f)" d="M 358.106722 40.188003 
C 360.533144 40.188003 362.860513 39.169359 364.576252 37.356415 
C 366.291991 35.543471 367.256019 33.084246 367.256019 30.520356 
C 367.256019 27.956466 366.291991 25.497241 364.576252 23.684297 
C 362.860513 21.871353 360.533144 20.852709 358.106722 20.852709 
C 355.680301 20.852709 353.352932 21.871353 351.637193 23.684297 
C 349.921454 25.497241 348.957426 27.956466 348.957426 30.520356 
C 348.957426 33.084246 349.921454 35.543471 351.637193 37.356415 
C 353.352932 39.169359 355.680301 40.188003 358.106722 40.188003 
z
" style="fill:#ff0000;opacity:0.2;stroke:#ff0000;stroke-linejoin:miter;stroke-width:2;"/>
   </g>
   <g id="patch_29">
    <path d="M 344.382778 61.94021 
Q 350.845194 47.145033 356.458501 34.293825 
" style="fill:none;opacity:0.5;stroke:#ff0000;stroke-linecap:round;stroke-width:3;"/>
    <path d="M 354.483496 35.068007 
L 356.458501 34.293825 
L 357.232683 36.268829 
" style="fill:none;opacity:0.5;stroke:#ff0000;stroke-linecap:round;stroke-width:3;"/>
   </g>
   <g id="[&quot;g_s&quot;:6,&quot;g_t&quot;:4,&quot;coords&quot;:[[380.0, 127.5],[396.0, 138.0]],&quot;certainty&quot;:6]">
    <path clip-path="url(#pf0303d2f4f)" d="M 385.554611 103.027711 
C 386.970024 103.027711 388.327656 102.433502 389.328504 101.375951 
C 390.329351 100.318401 390.891701 98.883853 390.891701 97.38825 
C 390.891701 95.892648 390.329351 94.4581 389.328504 93.400549 
C 388.327656 92.342998 386.970024 91.748789 385.554611 91.748789 
C 384.139199 91.748789 382.781567 92.342998 381.780719 93.400549 
C 380.779871 94.4581 380.217522 95.892648 380.217522 97.38825 
C 380.217522 98.883853 380.779871 100.318401 381.780719 101.375951 
C 382.781567 102.433502 384.139199 103.027711 385.554611 103.027711 
z
" style="fill:#0000ff;opacity:0.2;stroke:#0000ff;stroke-linejoin:miter;stroke-width:2;"/>
   </g>
   <g id="[&quot;g_s&quot;:4,&quot;g_t&quot;:6,&quot;coords&quot;:[[396.0, 138.0],[380.0, 127.5]],&quot;certainty&quot;:6]">
    <path clip-path="url(#pf0303d2f4f)" d="M 409.952735 86.109328 
C 411.368147 86.109328 412.725779 85.515119 413.726627 84.457568 
C 414.727475 83.400018 415.289824 81.96547 415.289824 80.469867 
C 415.289824 78.974265 414.727475 77.539717 413.726627 76.482166 
C 412.725779 75.424616 411.368147 74.830406 409.952735 74.830406 
C 408.537322 74.830406 407.179691 75.424616 406.178843 76.482166 
C 405.177995 77.539717 404.615645 78.974265 404.615645 80.469867 
C 404.615645 81.96547 405.177995 83.400018 406.178843 84.457568 
C 407.179691 85.515119 408.537322 86.109328 409.952735 86.109328 
z
" style="fill:#ff0000;opacity:0.2;stroke:#ff0000;stroke-linejoin:miter;stroke-width:2;"/>
   </g>
   <g id="patch_30">
    <path d="M 385.554611 97.38825 
Q 396.933155 89.49803 407.294822 82.312943 
" style="fill:none;opacity:0.5;stroke:#ff0000;stroke-linecap:round;stroke-width:1.75;"/>
    <path d="M 405.207432 81.935052 
L 407.294822 82.312943 
L 406.916931 84.400333 
" style="fill:none;opacity:0.5;stroke:#ff0000;stroke-linecap:round;stroke-width:1.75;"/>
   </g>
   <g id="[&quot;g_s&quot;:7,&quot;g_t&quot;:5,&quot;coords&quot;:[[387.0, 86.5],[406.0, 95.0]],&quot;certainty&quot;:4]">
    <path clip-path="url(#pf0303d2f4f)" d="M 396.22879 167.478694 
C 397.239799 167.478694 398.209536 167.054259 398.924428 166.298865 
C 399.639319 165.543472 400.040997 164.518795 400.040997 163.450507 
C 400.040997 162.38222 399.639319 161.357543 398.924428 160.602149 
C 398.209536 159.846756 397.239799 159.422321 396.22879 159.422321 
C 395.217781 159.422321 394.248044 159.846756 393.533153 160.602149 
C 392.818262 161.357543 392.416584 162.38222 392.416584 163.450507 
C 392.416584 164.518795 392.818262 165.543472 393.533153 166.298865 
C 394.248044 167.054259 395.217781 167.478694 396.22879 167.478694 
z
" style="fill:#0000ff;opacity:0.2;stroke:#0000ff;stroke-linejoin:miter;stroke-width:2;"/>
   </g>
   <g id="[&quot;g_s&quot;:5,&quot;g_t&quot;:7,&quot;coords&quot;:[[406.0, 95.0],[387.0, 86.5]],&quot;certainty&quot;:4]">
    <path clip-path="url(#pf0303d2f4f)" d="M 425.201562 153.78286 
C 426.212571 153.78286 427.182308 153.358425 427.897199 152.603031 
C 428.612091 151.847638 429.013769 150.822961 429.013769 149.754673 
C 429.013769 148.686386 428.612091 147.661709 427.897199 146.906316 
C 427.182308 146.150922 426.212571 145.726487 425.201562 145.726487 
C 424.190553 145.726487 423.220816 146.150922 422.505925 146.906316 
C 421.791033 147.661709 421.389355 148.686386 421.389355 149.754673 
C 421.389355 150.822961 421.791033 151.847638 422.505925 152.603031 
C 423.220816 153.358425 424.190553 153.78286 425.201562 153.78286 
z
" style="fill:#ff0000;opacity:0.2;stroke:#ff0000;stroke-linejoin:miter;stroke-width:2;"/>
   </g>
   <g id="patch_31">
    <path d="M 396.22879 163.450507 
Q 409.811545 157.029749 422.595202 150.986736 
" style="fill:none;opacity:0.5;stroke:#ff0000;stroke-linecap:round;stroke-width:1.25;"/>
    <path d="M 420.598032 150.271676 
L 422.595202 150.986736 
L 421.880141 152.983906 
" style="fill:none;opacity:0.5;stroke:#ff0000;stroke-linecap:round;stroke-width:1.25;"/>
   </g>
   <g id="patch_32">
    <path clip-path="url(#pf0303d2f4f)" d="M 75.240978 266.974898 
C 77.262996 266.974898 79.20247 266.126028 80.632253 264.615241 
C 82.062035 263.104454 82.865392 261.0551 82.865392 258.918525 
C 82.865392 256.78195 82.062035 254.732596 80.632253 253.221809 
C 79.20247 251.711022 77.262996 250.862152 75.240978 250.862152 
C 73.21896 250.862152 71.279486 251.711022 69.849704 253.221809 
C 68.419921 254.732596 67.616565 256.78195 67.616565 258.918525 
C 67.616565 261.0551 68.419921 263.104454 69.849704 264.615241 
C 71.279486 266.126028 73.21896 266.974898 75.240978 266.974898 
z
" style="fill:#008000;opacity:0.2;stroke:#008000;stroke-linejoin:miter;stroke-width:2;"/>
   </g>
   <g id="patch_33">
    <path clip-path="url(#pf0303d2f4f)" d="M 305.498269 78.455774 
C 307.520287 78.455774 309.45976 77.606904 310.889543 76.096117 
C 312.319326 74.58533 313.122682 72.535976 313.122682 70.399401 
C 313.122682 68.262826 312.319326 66.213472 310.889543 64.702685 
C 309.45976 63.191899 307.520287 62.343029 305.498269 62.343029 
C 303.47625 62.343029 301.536777 63.191899 300.106994 64.702685 
C 298.677211 66.213472 297.873855 68.262826 297.873855 70.399401 
C 297.873855 72.535976 298.677211 74.58533 300.106994 76.096117 
C 301.536777 77.606904 303.47625 78.455774 305.498269 78.455774 
z
" style="fill:#008000;opacity:0.2;stroke:#008000;stroke-linejoin:miter;stroke-width:2;"/>
   </g>
   <g id="patch_34">
    <path clip-path="url(#pf0303d2f4f)" d="M 351.24475 54.286656 
C 353.266768 54.286656 355.206242 53.437785 356.636025 51.926999 
C 358.065807 50.416212 358.869164 48.366858 358.869164 46.230283 
C 358.869164 44.093708 358.065807 42.044354 356.636025 40.533567 
C 355.206242 39.02278 353.266768 38.17391 351.24475 38.17391 
C 349.222732 38.17391 347.283258 39.02278 345.853476 40.533567 
C 344.423693 42.044354 343.620337 44.093708 343.620337 46.230283 
C 343.620337 48.366858 344.423693 50.416212 345.853476 51.926999 
C 347.283258 53.437785 349.222732 54.286656 351.24475 54.286656 
z
" style="fill:#008000;opacity:0.2;stroke:#008000;stroke-linejoin:miter;stroke-width:2;"/>
   </g>
   <g id="patch_35">
    <path clip-path="url(#pf0303d2f4f)" d="M 397.753673 96.985432 
C 399.775691 96.985432 401.715165 96.136561 403.144948 94.625775 
C 404.57473 93.114988 405.378087 91.065634 405.378087 88.929059 
C 405.378087 86.792484 404.57473 84.74313 403.144948 83.232343 
C 401.715165 81.721556 399.775691 80.872686 397.753673 80.872686 
C 395.731655 80.872686 393.792181 81.721556 392.362399 83.232343 
C 390.932616 84.74313 390.129259 86.792484 390.129259 88.929059 
C 390.129259 91.065634 390.932616 93.114988 392.362399 94.625775 
C 393.792181 96.136561 395.731655 96.985432 397.753673 96.985432 
z
" style="fill:#008000;opacity:0.2;stroke:#008000;stroke-linejoin:miter;stroke-width:2;"/>
   </g>
   <g id="patch_36">
    <path clip-path="url(#pf0303d2f4f)" d="M 410.715176 164.658963 
C 412.737194 164.658963 414.676668 163.810093 416.106451 162.299306 
C 417.536233 160.788519 418.33959 158.739165 418.33959 156.60259 
C 418.33959 154.466015 417.536233 152.416661 416.106451 150.905875 
C 414.676668 149.395088 412.737194 148.546218 410.715176 148.546218 
C 408.693158 148.546218 406.753684 149.395088 405.323902 150.905875 
C 403.894119 152.416661 403.090763 154.466015 403.090763 156.60259 
C 403.090763 158.739165 403.894119 160.788519 405.323902 162.299306 
C 406.753684 163.810093 408.693158 164.658963 410.715176 164.658963 
z
" style="fill:#008000;opacity:0.2;stroke:#008000;stroke-linejoin:miter;stroke-width:2;"/>
   </g>
   <g id="patch_37">
    <path clip-path="url(#pf0303d2f4f)" d="M 367.256019 197.690092 
C 369.278037 197.690092 371.217511 196.841221 372.647293 195.330435 
C 374.077076 193.819648 374.880432 191.770294 374.880432 189.633719 
C 374.880432 187.497144 374.077076 185.44779 372.647293 183.937003 
C 371.217511 182.426216 369.278037 181.577346 367.256019 181.577346 
C 365.234001 181.577346 363.294527 182.426216 361.864744 183.937003 
C 360.434961 185.44779 359.631605 187.497144 359.631605 189.633719 
C 359.631605 191.770294 360.434961 193.819648 361.864744 195.330435 
C 363.294527 196.841221 365.234001 197.690092 367.256019 197.690092 
z
" style="fill:#008000;opacity:0.2;stroke:#008000;stroke-linejoin:miter;stroke-width:2;"/>
   </g>
   <g id="patch_38">
    <path clip-path="url(#pf0303d2f4f)" d="M 91.252247 306.451125 
C 93.274265 306.451125 95.213739 305.602254 96.643521 304.091468 
C 98.073304 302.580681 98.87666 300.531327 98.87666 298.394752 
C 98.87666 296.258177 98.073304 294.208823 96.643521 292.698036 
C 95.213739 291.187249 93.274265 290.338379 91.252247 290.338379 
C 89.230229 290.338379 87.290755 291.187249 85.860972 292.698036 
C 84.431189 294.208823 83.627833 296.258177 83.627833 298.394752 
C 83.627833 300.531327 84.431189 302.580681 85.860972 304.091468 
C 87.290755 305.602254 89.230229 306.451125 91.252247 306.451125 
z
" style="fill:#008000;opacity:0.2;stroke:#008000;stroke-linejoin:miter;stroke-width:2;"/>
   </g>
   <g id="patch_39">
    <path clip-path="url(#pf0303d2f4f)" d="M 60.754592 285.101737 
C 68.842665 285.101737 76.60056 281.706256 82.319691 275.663109 
C 88.038821 269.619962 91.252247 261.422546 91.252247 252.876245 
C 91.252247 244.329945 88.038821 236.132529 82.319691 230.089382 
C 76.60056 224.046235 68.842665 220.650754 60.754592 220.650754 
C 52.66652 220.650754 44.908625 224.046235 39.189494 230.089382 
C 33.470363 236.132529 30.256938 244.329945 30.256938 252.876245 
C 30.256938 261.422546 33.470363 269.619962 39.189494 275.663109 
C 44.908625 281.706256 52.66652 285.101737 60.754592 285.101737 
z
" style="fill:none;opacity:0.2;stroke:#ff0000;stroke-linejoin:miter;stroke-width:2;"/>
   </g>
   <g id="patch_40">
    <path clip-path="url(#pf0303d2f4f)" d="M 358.106722 221.456391 
C 366.194795 221.456391 373.95269 218.06091 379.671821 212.017764 
C 385.390951 205.974617 388.604377 197.7772 388.604377 189.2309 
C 388.604377 180.6846 385.390951 172.487184 379.671821 166.444037 
C 373.95269 160.40089 366.194795 157.005409 358.106722 157.005409 
C 350.01865 157.005409 342.260755 160.40089 336.541624 166.444037 
C 330.822493 172.487184 327.609068 180.6846 327.609068 189.2309 
C 327.609068 197.7772 330.822493 205.974617 336.541624 212.017764 
C 342.260755 218.06091 350.01865 221.456391 358.106722 221.456391 
z
" style="fill:none;opacity:0.2;stroke:#0000ff;stroke-linejoin:miter;stroke-width:2;"/>
   </g>
   <g id="patch_41">
    <path clip-path="url(#pf0303d2f4f)" d="M 60.754592 268.988991 
C 64.798629 268.988991 68.677576 267.29125 71.537141 264.269677 
C 74.396707 261.248104 76.00342 257.149395 76.00342 252.876245 
C 76.00342 248.603095 74.396707 244.504387 71.537141 241.482814 
C 68.677576 238.46124 64.798629 236.7635 60.754592 236.7635 
C 56.710556 236.7635 52.831609 238.46124 49.972043 241.482814 
C 47.112478 244.504387 45.505765 248.603095 45.505765 252.876245 
C 45.505765 257.149395 47.112478 261.248104 49.972043 264.269677 
C 52.831609 267.29125 56.710556 268.988991 60.754592 268.988991 
z
" style="fill:none;opacity:0.2;stroke:#008000;stroke-linejoin:miter;stroke-width:2;"/>
   </g>
   <g id="patch_42">
    <path clip-path="url(#pf0303d2f4f)" d="M 89.727364 281.07355 
C 93.7714 281.07355 97.650348 279.37581 100.509913 276.354236 
C 103.369479 273.332663 104.976191 269.233955 104.976191 264.960805 
C 104.976191 260.687655 103.369479 256.588946 100.509913 253.567373 
C 97.650348 250.5458 93.7714 248.848059 89.727364 248.848059 
C 85.683328 248.848059 81.80438 250.5458 78.944815 253.567373 
C 76.085249 256.588946 74.478537 260.687655 74.478537 264.960805 
C 74.478537 269.233955 76.085249 273.332663 78.944815 276.354236 
C 81.80438 279.37581 85.683328 281.07355 89.727364 281.07355 
z
" style="fill:none;opacity:0.2;stroke:#008000;stroke-linejoin:miter;stroke-width:2;"/>
   </g>
   <g id="patch_43">
    <path d="M 75.240978 258.918525 
Q 190.369623 164.658963 305.498269 70.399401 
" style="fill:none;opacity:0.5;stroke:#008000;stroke-linecap:round;stroke-width:2;"/>
   </g>
   <g id="patch_44">
    <path d="M 62.059819 253.420656 
Q 74.319664 258.534244 86.579509 263.647832 
" style="fill:none;opacity:0.5;stroke:#800080;stroke-linecap:round;stroke-width:2;"/>
    <path d="M 62.866786 255.382493 
L 62.059819 253.420656 
L 64.021656 252.613689 
" style="fill:none;opacity:0.5;stroke:#800080;stroke-linecap:round;stroke-width:2;"/>
    <path d="M 85.772541 261.685995 
L 86.579509 263.647832 
L 84.617672 264.4548 
" style="fill:none;opacity:0.5;stroke:#800080;stroke-linecap:round;stroke-width:2;"/>
   </g>
   <g id="patch_45">
    <path d="M 305.498269 70.399401 
Q 328.371509 58.314842 351.24475 46.230283 
" style="fill:none;opacity:0.5;stroke:#008000;stroke-linecap:round;stroke-width:2;"/>
   </g>
   <g id="patch_46">
    <path d="M 307.530789 59.303093 
Q 305.678362 69.416203 303.825935 79.529313 
" style="fill:none;opacity:0.5;stroke:#800080;stroke-linecap:round;stroke-width:2;"/>
    <path d="M 305.785077 60.508286 
L 307.530789 59.303093 
L 308.735982 61.048806 
" style="fill:none;opacity:0.5;stroke:#800080;stroke-linecap:round;stroke-width:2;"/>
    <path d="M 305.571647 78.324121 
L 303.825935 79.529313 
L 302.620742 77.783601 
" style="fill:none;opacity:0.5;stroke:#800080;stroke-linecap:round;stroke-width:2;"/>
   </g>
   <g id="patch_47">
    <path d="M 351.24475 46.230283 
Q 374.499212 67.579671 397.753673 88.929059 
" style="fill:none;opacity:0.5;stroke:#008000;stroke-linecap:round;stroke-width:2;"/>
   </g>
   <g id="patch_48">
    <path d="M 357.540649 31.816335 
Q 351.644306 45.315533 345.747963 58.81473 
" style="fill:none;opacity:0.5;stroke:#800080;stroke-linecap:round;stroke-width:2;"/>
    <path d="M 355.565645 32.590516 
L 357.540649 31.816335 
L 358.314831 33.791339 
" style="fill:none;opacity:0.5;stroke:#800080;stroke-linecap:round;stroke-width:2;"/>
    <path d="M 347.722967 58.040549 
L 345.747963 58.81473 
L 344.973781 56.839726 
" style="fill:none;opacity:0.5;stroke:#800080;stroke-linecap:round;stroke-width:2;"/>
   </g>
   <g id="patch_49">
    <path d="M 397.753673 88.929059 
Q 404.234425 122.765825 410.715176 156.60259 
" style="fill:none;opacity:0.5;stroke:#008000;stroke-linecap:round;stroke-width:2;"/>
   </g>
   <g id="patch_50">
    <path d="M 408.79059 81.275733 
Q 398.574191 88.360087 388.357792 95.444442 
" style="fill:none;opacity:0.5;stroke:#800080;stroke-linecap:round;stroke-width:2;"/>
    <path d="M 406.7032 80.897842 
L 408.79059 81.275733 
L 408.412699 83.363123 
" style="fill:none;opacity:0.5;stroke:#800080;stroke-linecap:round;stroke-width:2;"/>
    <path d="M 390.445182 95.822333 
L 388.357792 95.444442 
L 388.735683 93.357051 
" style="fill:none;opacity:0.5;stroke:#800080;stroke-linecap:round;stroke-width:2;"/>
   </g>
   <g id="patch_51">
    <path d="M 410.715176 156.60259 
Q 388.985597 173.118155 367.256019 189.633719 
" style="fill:none;opacity:0.5;stroke:#008000;stroke-linecap:round;stroke-width:2;"/>
   </g>
   <g id="patch_52">
    <path d="M 423.923004 150.359066 
Q 411.618807 156.175431 399.31461 161.991797 
" style="fill:none;opacity:0.5;stroke:#800080;stroke-linecap:round;stroke-width:2;"/>
    <path d="M 421.925834 149.644005 
L 423.923004 150.359066 
L 423.207943 152.356236 
" style="fill:none;opacity:0.5;stroke:#800080;stroke-linecap:round;stroke-width:2;"/>
    <path d="M 401.31178 162.706858 
L 399.31461 161.991797 
L 400.02967 159.994627 
" style="fill:none;opacity:0.5;stroke:#800080;stroke-linecap:round;stroke-width:2;"/>
   </g>
   <g id="patch_53">
    <path d="M 367.256019 189.633719 
Q 229.254133 244.014235 91.252247 298.394752 
" style="fill:none;opacity:0.5;stroke:#008000;stroke-linecap:round;stroke-width:2;"/>
   </g>
   <g id="patch_54">
    <path d="M 374.99247 189.974334 
Q 368.254489 189.677679 361.516508 189.381024 
" style="fill:none;opacity:0.5;stroke:#800080;stroke-linecap:round;stroke-width:2;"/>
    <path d="M 373.559899 188.409808 
L 374.99247 189.974334 
L 373.427945 191.406905 
" style="fill:none;opacity:0.5;stroke:#800080;stroke-linecap:round;stroke-width:2;"/>
    <path d="M 362.94908 190.945549 
L 361.516508 189.381024 
L 363.081034 187.948453 
" style="fill:none;opacity:0.5;stroke:#800080;stroke-linecap:round;stroke-width:2;"/>
   </g>
   <g id="patch_55">
    <path d="M 91.252247 298.394752 
Q 83.246612 278.656638 75.240978 258.918525 
" style="fill:none;opacity:0.5;stroke:#008000;stroke-linecap:round;stroke-width:2;"/>
   </g>
   <g id="patch_56">
    <path d="M 78.849596 293.662275 
Q 90.319112 298.038696 101.788629 302.415117 
" style="fill:none;opacity:0.5;stroke:#800080;stroke-linecap:round;stroke-width:2;"/>
    <path d="M 79.716291 295.598467 
L 78.849596 293.662275 
L 80.785788 292.79558 
" style="fill:none;opacity:0.5;stroke:#800080;stroke-linecap:round;stroke-width:2;"/>
    <path d="M 100.921934 300.478925 
L 101.788629 302.415117 
L 99.852437 303.281812 
" style="fill:none;opacity:0.5;stroke:#800080;stroke-linecap:round;stroke-width:2;"/>
   </g>
   <g id="line2d_1">
    <path clip-path="url(#pf0303d2f4f)" d="M 60.754592 252.876245 
L 307.785593 57.912023 
L 358.106722 30.520356 
L 409.952735 80.469867 
L 425.201562 149.754673 
L 376.405315 190.036537 
L 77.528302 293.158109 
" style="fill:none;stroke:#ff0000;stroke-linecap:square;stroke-width:0.2;"/>
   </g>
   <g id="line2d_2">
    <path clip-path="url(#pf0303d2f4f)" d="M 358.106722 189.2309 
L 104.976191 303.631394 
L 89.727364 264.960805 
L 303.210945 82.886779 
L 344.382778 61.94021 
L 385.554611 97.38825 
L 396.22879 163.450507 
" style="fill:none;stroke:#0000ff;stroke-linecap:square;stroke-width:0.2;"/>
   </g>
  </g>
 </g>
 <defs>
  <clipPath id="pf0303d2f4f">
   <rect height="307.51175" width="409.278522" x="37.576375" y="13.32"/>
  </clipPath>
 </defs>
</svg>
