<?xml version="1.0" encoding="utf-8" standalone="no"?>
<!DOCTYPE svg PUBLIC "-//W3C//DTD SVG 1.1//EN"
  "http://www.w3.org/Graphics/SVG/1.1/DTD/svg11.dtd">
<!-- Created with matplotlib (http://matplotlib.org/) -->
<svg height="345.6pt" version="1.1" viewBox="0 0 460.8 345.6" width="460.8pt" xmlns="http://www.w3.org/2000/svg" xmlns:xlink="http://www.w3.org/1999/xlink">
 <defs>
  <style type="text/css">
*{stroke-linecap:butt;stroke-linejoin:round;}
  </style>
 </defs>
 <g id="figure_1">
  <g id="patch_1">
   <path d="M 0 345.6 
L 460.8 345.6 
L 460.8 0 
L 0 0 
z
" style="fill:#ffffff;"/>
  </g>
  <g id="axes_1">
   <g id="patch_2">
    <path clip-path="url(#pba7b9a789e)" d="M 176.23617 34.768365 
C 176.928368 34.768365 177.592308 34.685507 178.081766 34.538041 
C 178.571224 34.390574 178.846237 34.190539 178.846237 33.98199 
C 178.846237 33.773441 178.571224 33.573406 178.081766 33.425939 
C 177.592308 33.278473 176.928368 33.195616 176.23617 33.195616 
C 175.543972 33.195616 174.880032 33.278473 174.390574 33.425939 
C 173.901116 33.573406 173.626103 33.773441 173.626103 33.98199 
C 173.626103 34.190539 173.901116 34.390574 174.390574 34.538041 
C 174.880032 34.685507 175.543972 34.768365 176.23617 34.768365 
z
" style="fill:#ff0000;opacity:0.2;stroke:#ff0000;stroke-linejoin:miter;stroke-width:2;"/>
   </g>
   <g id="patch_3">
    <path clip-path="url(#pba7b9a789e)" d="M 425.497543 306.853943 
C 426.189741 306.853943 426.853681 306.771086 427.343139 306.623619 
C 427.832597 306.476153 428.10761 306.276118 428.10761 306.067569 
C 428.10761 305.85902 427.832597 305.658984 427.343139 305.511518 
C 426.853681 305.364052 426.189741 305.281194 425.497543 305.281194 
C 424.805345 305.281194 424.141405 305.364052 423.651947 305.511518 
C 423.162489 305.658984 422.887476 305.85902 422.887476 306.067569 
C 422.887476 306.276118 423.162489 306.476153 423.651947 306.623619 
C 424.141405 306.771086 424.805345 306.853943 425.497543 306.853943 
z
" style="fill:#ff0000;opacity:0.2;stroke:#ff0000;stroke-linejoin:miter;stroke-width:2;"/>
   </g>
   <g id="patch_4">
    <path clip-path="url(#pba7b9a789e)" d="M 308.04454 306.853943 
C 308.736738 306.853943 309.400678 306.771086 309.890136 306.623619 
C 310.379594 306.476153 310.654607 306.276118 310.654607 306.067569 
C 310.654607 305.85902 310.379594 305.658984 309.890136 305.511518 
C 309.400678 305.364052 308.736738 305.281194 308.04454 305.281194 
C 307.352342 305.281194 306.688402 305.364052 306.198944 305.511518 
C 305.709486 305.658984 305.434473 305.85902 305.434473 306.067569 
C 305.434473 306.276118 305.709486 306.476153 306.198944 306.623619 
C 306.688402 306.771086 307.352342 306.853943 308.04454 306.853943 
z
" style="fill:#ff0000;opacity:0.2;stroke:#ff0000;stroke-linejoin:miter;stroke-width:2;"/>
   </g>
   <g id="patch_5">
    <path clip-path="url(#pba7b9a789e)" d="M 58.783167 34.768365 
C 59.475365 34.768365 60.139305 34.685507 60.628763 34.538041 
C 61.118221 34.390574 61.393234 34.190539 61.393234 33.98199 
C 61.393234 33.773441 61.118221 33.573406 60.628763 33.425939 
C 60.139305 33.278473 59.475365 33.195616 58.783167 33.195616 
C 58.090969 33.195616 57.427029 33.278473 56.937571 33.425939 
C 56.448114 33.573406 56.1731 33.773441 56.1731 33.98199 
C 56.1731 34.190539 56.448114 34.390574 56.937571 34.538041 
C 57.427029 34.685507 58.090969 34.768365 58.783167 34.768365 
z
" style="fill:#ff0000;opacity:0.2;stroke:#ff0000;stroke-linejoin:miter;stroke-width:2;"/>
   </g>
   <g id="patch_6">
    <path clip-path="url(#pba7b9a789e)" d="M 155.355636 28.870556 
C 156.047834 28.870556 156.711774 28.787698 157.201232 28.640232 
C 157.69069 28.492766 157.965703 28.29273 157.965703 28.084181 
C 157.965703 27.875632 157.69069 27.675597 157.201232 27.528131 
C 156.711774 27.380664 156.047834 27.297807 155.355636 27.297807 
C 154.663438 27.297807 153.999498 27.380664 153.51004 27.528131 
C 153.020583 27.675597 152.74557 27.875632 152.74557 28.084181 
C 152.74557 28.29273 153.020583 28.492766 153.51004 28.640232 
C 153.999498 28.787698 154.663438 28.870556 155.355636 28.870556 
z
" style="fill:#0000ff;opacity:0.2;stroke:#0000ff;stroke-linejoin:miter;stroke-width:2;"/>
   </g>
   <g id="patch_7">
    <path clip-path="url(#pba7b9a789e)" d="M 404.617009 304.888007 
C 405.309207 304.888007 405.973147 304.80515 406.462605 304.657683 
C 406.952063 304.510217 407.227076 304.310181 407.227076 304.101632 
C 407.227076 303.893083 406.952063 303.693048 406.462605 303.545582 
C 405.973147 303.398115 405.309207 303.315258 404.617009 303.315258 
C 403.924811 303.315258 403.260871 303.398115 402.771413 303.545582 
C 402.281955 303.693048 402.006942 303.893083 402.006942 304.101632 
C 402.006942 304.310181 402.281955 304.510217 402.771413 304.657683 
C 403.260871 304.80515 403.924811 304.888007 404.617009 304.888007 
z
" style="fill:#0000ff;opacity:0.2;stroke:#0000ff;stroke-linejoin:miter;stroke-width:2;"/>
   </g>
   <g id="patch_8">
    <path clip-path="url(#pba7b9a789e)" d="M 328.925074 304.888007 
C 329.617272 304.888007 330.281212 304.80515 330.77067 304.657683 
C 331.260128 304.510217 331.535141 304.310181 331.535141 304.101632 
C 331.535141 303.893083 331.260128 303.693048 330.77067 303.545582 
C 330.281212 303.398115 329.617272 303.315258 328.925074 303.315258 
C 328.232876 303.315258 327.568936 303.398115 327.079478 303.545582 
C 326.59002 303.693048 326.315007 303.893083 326.315007 304.101632 
C 326.315007 304.310181 326.59002 304.510217 327.079478 304.657683 
C 327.568936 304.80515 328.232876 304.888007 328.925074 304.888007 
z
" style="fill:#0000ff;opacity:0.2;stroke:#0000ff;stroke-linejoin:miter;stroke-width:2;"/>
   </g>
   <g id="patch_9">
    <path clip-path="url(#pba7b9a789e)" d="M 79.663701 28.870556 
C 80.355899 28.870556 81.019839 28.787698 81.509297 28.640232 
C 81.998755 28.492766 82.273768 28.29273 82.273768 28.084181 
C 82.273768 27.875632 81.998755 27.675597 81.509297 27.528131 
C 81.019839 27.380664 80.355899 27.297807 79.663701 27.297807 
C 78.971503 27.297807 78.307563 27.380664 77.818105 27.528131 
C 77.328647 27.675597 77.053634 27.875632 77.053634 28.084181 
C 77.053634 28.29273 77.328647 28.492766 77.818105 28.640232 
C 78.307563 28.787698 78.971503 28.870556 79.663701 28.870556 
z
" style="fill:#0000ff;opacity:0.2;stroke:#0000ff;stroke-linejoin:miter;stroke-width:2;"/>
   </g>
   <g id="patch_10">
    <path clip-path="url(#pba7b9a789e)" d="M 176.23617 33.98199 
L 425.497543 306.067569 
L 308.04454 306.067569 
L 58.783167 33.98199 
L 176.23617 33.98199 
" style="fill:none;stroke:#ff0000;stroke-linejoin:miter;stroke-width:0.5;"/>
   </g>
   <g id="patch_11">
    <path clip-path="url(#pba7b9a789e)" d="M 155.355636 28.084181 
L 404.617009 304.101632 
L 328.925074 304.101632 
L 79.663701 28.084181 
L 155.355636 28.084181 
" style="fill:none;stroke:#0000ff;stroke-linejoin:miter;stroke-width:0.5;"/>
   </g>
   <g id="[&quot;g_s&quot;:1,&quot;g_t&quot;:1,&quot;coords&quot;:[[160.0, -24.0],[144.0, -9.0]],&quot;certainty&quot;:11]">
    <path clip-path="url(#pba7b9a789e)" d="M 176.23617 36.341114 
C 178.312763 36.341114 180.304584 36.092541 181.772958 35.650142 
C 183.241331 35.207743 184.06637 34.607637 184.06637 33.98199 
C 184.06637 33.356343 183.241331 32.756237 181.772958 32.313838 
C 180.304584 31.871439 178.312763 31.622867 176.23617 31.622867 
C 174.159577 31.622867 172.167756 31.871439 170.699382 32.313838 
C 169.231009 32.756237 168.40597 33.356343 168.40597 33.98199 
C 168.40597 34.607637 169.231009 35.207743 170.699382 35.650142 
C 172.167756 36.092541 174.159577 36.341114 176.23617 36.341114 
z
" style="fill:#0000ff;opacity:0.2;stroke:#0000ff;stroke-linejoin:miter;stroke-width:2;"/>
   </g>
   <g id="[&quot;g_s&quot;:1,&quot;g_t&quot;:1,&quot;coords&quot;:[[144.0, -9.0],[160.0, -24.0]],&quot;certainty&quot;:11]">
    <path clip-path="url(#pba7b9a789e)" d="M 155.355636 30.443305 
C 157.43223 30.443305 159.424051 30.194733 160.892424 29.752334 
C 162.360797 29.309934 163.185836 28.709828 163.185836 28.084181 
C 163.185836 27.458534 162.360797 26.858428 160.892424 26.416029 
C 159.424051 25.97363 157.43223 25.725058 155.355636 25.725058 
C 153.279043 25.725058 151.287222 25.97363 149.818849 26.416029 
C 148.350475 26.858428 147.525436 27.458534 147.525436 28.084181 
C 147.525436 28.709828 148.350475 29.309934 149.818849 29.752334 
C 151.287222 30.194733 153.279043 30.443305 155.355636 30.443305 
z
" style="fill:#ff0000;opacity:0.2;stroke:#ff0000;stroke-linejoin:miter;stroke-width:2;"/>
   </g>
   <g id="patch_12">
    <path d="M 176.23617 33.98199 
Q 166.75811 31.304866 159.321499 29.204359 
" style="fill:none;opacity:0.5;stroke:#0000ff;stroke-linecap:round;stroke-width:3;"/>
    <path d="M 160.357292 31.055611 
L 159.321499 29.204359 
L 161.172751 28.168566 
" style="fill:none;opacity:0.5;stroke:#0000ff;stroke-linecap:round;stroke-width:3;"/>
   </g>
   <g id="[&quot;g_s&quot;:2,&quot;g_t&quot;:2,&quot;coords&quot;:[[351.0, -716.0],[335.0, -711.0]],&quot;certainty&quot;:10]">
    <path clip-path="url(#pba7b9a789e)" d="M 425.497543 308.230099 
C 427.401087 308.230099 429.226923 308.002241 430.572932 307.596708 
C 431.91894 307.191176 432.675226 306.641078 432.675226 306.067569 
C 432.675226 305.494059 431.91894 304.943962 430.572932 304.538429 
C 429.226923 304.132897 427.401087 303.905039 425.497543 303.905039 
C 423.593999 303.905039 421.768163 304.132897 420.422154 304.538429 
C 419.076145 304.943962 418.319859 305.494059 418.319859 306.067569 
C 418.319859 306.641078 419.076145 307.191176 420.422154 307.596708 
C 421.768163 308.002241 423.593999 308.230099 425.497543 308.230099 
z
" style="fill:#0000ff;opacity:0.2;stroke:#0000ff;stroke-linejoin:miter;stroke-width:2;"/>
   </g>
   <g id="[&quot;g_s&quot;:2,&quot;g_t&quot;:2,&quot;coords&quot;:[[335.0, -711.0],[351.0, -716.0]],&quot;certainty&quot;:10]">
    <path clip-path="url(#pba7b9a789e)" d="M 404.617009 306.264162 
C 406.520553 306.264162 408.346389 306.036305 409.692398 305.630772 
C 411.038407 305.225239 411.794693 304.675142 411.794693 304.101632 
C 411.794693 303.528123 411.038407 302.978025 409.692398 302.572493 
C 408.346389 302.16696 406.520553 301.939103 404.617009 301.939103 
C 402.713465 301.939103 400.887629 302.16696 399.54162 302.572493 
C 398.195612 302.978025 397.439326 303.528123 397.439326 304.101632 
C 397.439326 304.675142 398.195612 305.225239 399.54162 305.630772 
C 400.887629 306.036305 402.713465 306.264162 404.617009 306.264162 
z
" style="fill:#ff0000;opacity:0.2;stroke:#ff0000;stroke-linejoin:miter;stroke-width:2;"/>
   </g>
   <g id="patch_13">
    <path d="M 425.497543 306.067569 
Q 416.052619 305.178314 408.543677 304.471335 
" style="fill:none;opacity:0.5;stroke:#0000ff;stroke-linecap:round;stroke-width:2.75;"/>
    <path d="M 409.896466 306.105336 
L 408.543677 304.471335 
L 410.177678 303.118545 
" style="fill:none;opacity:0.5;stroke:#0000ff;stroke-linecap:round;stroke-width:2.75;"/>
   </g>
   <g id="[&quot;g_s&quot;:3,&quot;g_t&quot;:3,&quot;coords&quot;:[[261.0, -716.0],[277.0, -711.0]],&quot;certainty&quot;:12]">
    <path clip-path="url(#pba7b9a789e)" d="M 308.04454 308.623286 
C 310.294183 308.623286 312.451989 308.353999 314.042727 307.874734 
C 315.633464 307.395468 316.527257 306.745353 316.527257 306.067569 
C 316.527257 305.389785 315.633464 304.739669 314.042727 304.260404 
C 312.451989 303.781138 310.294183 303.511852 308.04454 303.511852 
C 305.794897 303.511852 303.637091 303.781138 302.046353 304.260404 
C 300.455616 304.739669 299.561823 305.389785 299.561823 306.067569 
C 299.561823 306.745353 300.455616 307.395468 302.046353 307.874734 
C 303.637091 308.353999 305.794897 308.623286 308.04454 308.623286 
z
" style="fill:#0000ff;opacity:0.2;stroke:#0000ff;stroke-linejoin:miter;stroke-width:2;"/>
   </g>
   <g id="[&quot;g_s&quot;:3,&quot;g_t&quot;:3,&quot;coords&quot;:[[277.0, -711.0],[261.0, -716.0]],&quot;certainty&quot;:12]">
    <path clip-path="url(#pba7b9a789e)" d="M 328.925074 306.65735 
C 331.174717 306.65735 333.332523 306.388063 334.92326 305.908797 
C 336.513998 305.429532 337.407791 304.779417 337.407791 304.101632 
C 337.407791 303.423848 336.513998 302.773733 334.92326 302.294467 
C 333.332523 301.815202 331.174717 301.545915 328.925074 301.545915 
C 326.675431 301.545915 324.517625 301.815202 322.926887 302.294467 
C 321.33615 302.773733 320.442357 303.423848 320.442357 304.101632 
C 320.442357 304.779417 321.33615 305.429532 322.926887 305.908797 
C 324.517625 306.388063 326.675431 306.65735 328.925074 306.65735 
z
" style="fill:#ff0000;opacity:0.2;stroke:#ff0000;stroke-linejoin:miter;stroke-width:2;"/>
   </g>
   <g id="patch_14">
    <path d="M 308.04454 306.067569 
Q 317.489464 305.178314 324.64641 304.504476 
" style="fill:none;opacity:0.5;stroke:#0000ff;stroke-linecap:round;stroke-width:3.25;"/>
    <path d="M 323.012409 303.151686 
L 324.64641 304.504476 
L 323.29362 306.138477 
" style="fill:none;opacity:0.5;stroke:#0000ff;stroke-linecap:round;stroke-width:3.25;"/>
   </g>
   <g id="[&quot;g_s&quot;:4,&quot;g_t&quot;:4,&quot;coords&quot;:[[70.0, -24.0],[86.0, -9.0]],&quot;certainty&quot;:11]">
    <path clip-path="url(#pba7b9a789e)" d="M 58.783167 36.341114 
C 60.859761 36.341114 62.851582 36.092541 64.319955 35.650142 
C 65.788328 35.207743 66.613367 34.607637 66.613367 33.98199 
C 66.613367 33.356343 65.788328 32.756237 64.319955 32.313838 
C 62.851582 31.871439 60.859761 31.622867 58.783167 31.622867 
C 56.706574 31.622867 54.714753 31.871439 53.24638 32.313838 
C 51.778006 32.756237 50.952967 33.356343 50.952967 33.98199 
C 50.952967 34.607637 51.778006 35.207743 53.24638 35.650142 
C 54.714753 36.092541 56.706574 36.341114 58.783167 36.341114 
z
" style="fill:#0000ff;opacity:0.2;stroke:#0000ff;stroke-linejoin:miter;stroke-width:2;"/>
   </g>
   <g id="[&quot;g_s&quot;:4,&quot;g_t&quot;:4,&quot;coords&quot;:[[86.0, -9.0],[70.0, -24.0]],&quot;certainty&quot;:11]">
    <path clip-path="url(#pba7b9a789e)" d="M 79.663701 30.443305 
C 81.740294 30.443305 83.732115 30.194733 85.200489 29.752334 
C 86.668862 29.309934 87.493901 28.709828 87.493901 28.084181 
C 87.493901 27.458534 86.668862 26.858428 85.200489 26.416029 
C 83.732115 25.97363 81.740294 25.725058 79.663701 25.725058 
C 77.587108 25.725058 75.595287 25.97363 74.126913 26.416029 
C 72.65854 26.858428 71.833501 27.458534 71.833501 28.084181 
C 71.833501 28.709828 72.65854 29.309934 74.126913 29.752334 
C 75.595287 30.194733 77.587108 30.443305 79.663701 30.443305 
z
" style="fill:#ff0000;opacity:0.2;stroke:#ff0000;stroke-linejoin:miter;stroke-width:2;"/>
   </g>
   <g id="patch_15">
    <path d="M 58.783167 33.98199 
Q 68.261227 31.304866 75.697838 29.204359 
" style="fill:none;opacity:0.5;stroke:#0000ff;stroke-linecap:round;stroke-width:3;"/>
    <path d="M 73.846586 28.168566 
L 75.697838 29.204359 
L 74.662046 31.055611 
" style="fill:none;opacity:0.5;stroke:#0000ff;stroke-linecap:round;stroke-width:3;"/>
   </g>
   <g id="[&quot;g_s&quot;:1,&quot;g_t&quot;:1,&quot;coords&quot;:[[144.0, -9.0],[160.0, -24.0]],&quot;certainty&quot;:11]">
    <path clip-path="url(#pba7b9a789e)" d="M 155.355636 30.443305 
C 157.43223 30.443305 159.424051 30.194733 160.892424 29.752334 
C 162.360797 29.309934 163.185836 28.709828 163.185836 28.084181 
C 163.185836 27.458534 162.360797 26.858428 160.892424 26.416029 
C 159.424051 25.97363 157.43223 25.725058 155.355636 25.725058 
C 153.279043 25.725058 151.287222 25.97363 149.818849 26.416029 
C 148.350475 26.858428 147.525436 27.458534 147.525436 28.084181 
C 147.525436 28.709828 148.350475 29.309934 149.818849 29.752334 
C 151.287222 30.194733 153.279043 30.443305 155.355636 30.443305 
z
" style="fill:#0000ff;opacity:0.2;stroke:#0000ff;stroke-linejoin:miter;stroke-width:2;"/>
   </g>
   <g id="[&quot;g_s&quot;:1,&quot;g_t&quot;:1,&quot;coords&quot;:[[160.0, -24.0],[144.0, -9.0]],&quot;certainty&quot;:11]">
    <path clip-path="url(#pba7b9a789e)" d="M 176.23617 36.341114 
C 178.312763 36.341114 180.304584 36.092541 181.772958 35.650142 
C 183.241331 35.207743 184.06637 34.607637 184.06637 33.98199 
C 184.06637 33.356343 183.241331 32.756237 181.772958 32.313838 
C 180.304584 31.871439 178.312763 31.622867 176.23617 31.622867 
C 174.159577 31.622867 172.167756 31.871439 170.699382 32.313838 
C 169.231009 32.756237 168.40597 33.356343 168.40597 33.98199 
C 168.40597 34.607637 169.231009 35.207743 170.699382 35.650142 
C 172.167756 36.092541 174.159577 36.341114 176.23617 36.341114 
z
" style="fill:#ff0000;opacity:0.2;stroke:#ff0000;stroke-linejoin:miter;stroke-width:2;"/>
   </g>
   <g id="patch_16">
    <path d="M 155.355636 28.084181 
Q 164.833696 30.761306 172.270307 32.861813 
" style="fill:none;opacity:0.5;stroke:#ff0000;stroke-linecap:round;stroke-width:3;"/>
    <path d="M 171.234515 31.010561 
L 172.270307 32.861813 
L 170.419055 33.897605 
" style="fill:none;opacity:0.5;stroke:#ff0000;stroke-linecap:round;stroke-width:3;"/>
   </g>
   <g id="[&quot;g_s&quot;:2,&quot;g_t&quot;:2,&quot;coords&quot;:[[335.0, -711.0],[351.0, -716.0]],&quot;certainty&quot;:10]">
    <path clip-path="url(#pba7b9a789e)" d="M 404.617009 306.264162 
C 406.520553 306.264162 408.346389 306.036305 409.692398 305.630772 
C 411.038407 305.225239 411.794693 304.675142 411.794693 304.101632 
C 411.794693 303.528123 411.038407 302.978025 409.692398 302.572493 
C 408.346389 302.16696 406.520553 301.939103 404.617009 301.939103 
C 402.713465 301.939103 400.887629 302.16696 399.54162 302.572493 
C 398.195612 302.978025 397.439326 303.528123 397.439326 304.101632 
C 397.439326 304.675142 398.195612 305.225239 399.54162 305.630772 
C 400.887629 306.036305 402.713465 306.264162 404.617009 306.264162 
z
" style="fill:#0000ff;opacity:0.2;stroke:#0000ff;stroke-linejoin:miter;stroke-width:2;"/>
   </g>
   <g id="[&quot;g_s&quot;:2,&quot;g_t&quot;:2,&quot;coords&quot;:[[351.0, -716.0],[335.0, -711.0]],&quot;certainty&quot;:10]">
    <path clip-path="url(#pba7b9a789e)" d="M 425.497543 308.230099 
C 427.401087 308.230099 429.226923 308.002241 430.572932 307.596708 
C 431.91894 307.191176 432.675226 306.641078 432.675226 306.067569 
C 432.675226 305.494059 431.91894 304.943962 430.572932 304.538429 
C 429.226923 304.132897 427.401087 303.905039 425.497543 303.905039 
C 423.593999 303.905039 421.768163 304.132897 420.422154 304.538429 
C 419.076145 304.943962 418.319859 305.494059 418.319859 306.067569 
C 418.319859 306.641078 419.076145 307.191176 420.422154 307.596708 
C 421.768163 308.002241 423.593999 308.230099 425.497543 308.230099 
z
" style="fill:#ff0000;opacity:0.2;stroke:#ff0000;stroke-linejoin:miter;stroke-width:2;"/>
   </g>
   <g id="patch_17">
    <path d="M 404.617009 304.101632 
Q 414.061933 304.990887 421.570875 305.697867 
" style="fill:none;opacity:0.5;stroke:#ff0000;stroke-linecap:round;stroke-width:2.75;"/>
    <path d="M 420.218086 304.063865 
L 421.570875 305.697867 
L 419.936874 307.050656 
" style="fill:none;opacity:0.5;stroke:#ff0000;stroke-linecap:round;stroke-width:2.75;"/>
   </g>
   <g id="[&quot;g_s&quot;:3,&quot;g_t&quot;:3,&quot;coords&quot;:[[277.0, -711.0],[261.0, -716.0]],&quot;certainty&quot;:12]">
    <path clip-path="url(#pba7b9a789e)" d="M 328.925074 306.65735 
C 331.174717 306.65735 333.332523 306.388063 334.92326 305.908797 
C 336.513998 305.429532 337.407791 304.779417 337.407791 304.101632 
C 337.407791 303.423848 336.513998 302.773733 334.92326 302.294467 
C 333.332523 301.815202 331.174717 301.545915 328.925074 301.545915 
C 326.675431 301.545915 324.517625 301.815202 322.926887 302.294467 
C 321.33615 302.773733 320.442357 303.423848 320.442357 304.101632 
C 320.442357 304.779417 321.33615 305.429532 322.926887 305.908797 
C 324.517625 306.388063 326.675431 306.65735 328.925074 306.65735 
z
" style="fill:#0000ff;opacity:0.2;stroke:#0000ff;stroke-linejoin:miter;stroke-width:2;"/>
   </g>
   <g id="[&quot;g_s&quot;:3,&quot;g_t&quot;:3,&quot;coords&quot;:[[261.0, -716.0],[277.0, -711.0]],&quot;certainty&quot;:12]">
    <path clip-path="url(#pba7b9a789e)" d="M 308.04454 308.623286 
C 310.294183 308.623286 312.451989 308.353999 314.042727 307.874734 
C 315.633464 307.395468 316.527257 306.745353 316.527257 306.067569 
C 316.527257 305.389785 315.633464 304.739669 314.042727 304.260404 
C 312.451989 303.781138 310.294183 303.511852 308.04454 303.511852 
C 305.794897 303.511852 303.637091 303.781138 302.046353 304.260404 
C 300.455616 304.739669 299.561823 305.389785 299.561823 306.067569 
C 299.561823 306.745353 300.455616 307.395468 302.046353 307.874734 
C 303.637091 308.353999 305.794897 308.623286 308.04454 308.623286 
z
" style="fill:#ff0000;opacity:0.2;stroke:#ff0000;stroke-linejoin:miter;stroke-width:2;"/>
   </g>
   <g id="patch_18">
    <path d="M 328.925074 304.101632 
Q 319.48015 304.990887 312.323204 305.664725 
" style="fill:none;opacity:0.5;stroke:#ff0000;stroke-linecap:round;stroke-width:3.25;"/>
    <path d="M 313.957205 307.017515 
L 312.323204 305.664725 
L 313.675994 304.030724 
" style="fill:none;opacity:0.5;stroke:#ff0000;stroke-linecap:round;stroke-width:3.25;"/>
   </g>
   <g id="[&quot;g_s&quot;:4,&quot;g_t&quot;:4,&quot;coords&quot;:[[86.0, -9.0],[70.0, -24.0]],&quot;certainty&quot;:11]">
    <path clip-path="url(#pba7b9a789e)" d="M 79.663701 30.443305 
C 81.740294 30.443305 83.732115 30.194733 85.200489 29.752334 
C 86.668862 29.309934 87.493901 28.709828 87.493901 28.084181 
C 87.493901 27.458534 86.668862 26.858428 85.200489 26.416029 
C 83.732115 25.97363 81.740294 25.725058 79.663701 25.725058 
C 77.587108 25.725058 75.595287 25.97363 74.126913 26.416029 
C 72.65854 26.858428 71.833501 27.458534 71.833501 28.084181 
C 71.833501 28.709828 72.65854 29.309934 74.126913 29.752334 
C 75.595287 30.194733 77.587108 30.443305 79.663701 30.443305 
z
" style="fill:#0000ff;opacity:0.2;stroke:#0000ff;stroke-linejoin:miter;stroke-width:2;"/>
   </g>
   <g id="[&quot;g_s&quot;:4,&quot;g_t&quot;:4,&quot;coords&quot;:[[70.0, -24.0],[86.0, -9.0]],&quot;certainty&quot;:11]">
    <path clip-path="url(#pba7b9a789e)" d="M 58.783167 36.341114 
C 60.859761 36.341114 62.851582 36.092541 64.319955 35.650142 
C 65.788328 35.207743 66.613367 34.607637 66.613367 33.98199 
C 66.613367 33.356343 65.788328 32.756237 64.319955 32.313838 
C 62.851582 31.871439 60.859761 31.622867 58.783167 31.622867 
C 56.706574 31.622867 54.714753 31.871439 53.24638 32.313838 
C 51.778006 32.756237 50.952967 33.356343 50.952967 33.98199 
C 50.952967 34.607637 51.778006 35.207743 53.24638 35.650142 
C 54.714753 36.092541 56.706574 36.341114 58.783167 36.341114 
z
" style="fill:#ff0000;opacity:0.2;stroke:#ff0000;stroke-linejoin:miter;stroke-width:2;"/>
   </g>
   <g id="patch_19">
    <path d="M 79.663701 28.084181 
Q 70.185641 30.761306 62.74903 32.861813 
" style="fill:none;opacity:0.5;stroke:#ff0000;stroke-linecap:round;stroke-width:3;"/>
    <path d="M 64.600282 33.897605 
L 62.74903 32.861813 
L 63.784823 31.010561 
" style="fill:none;opacity:0.5;stroke:#ff0000;stroke-linecap:round;stroke-width:3;"/>
   </g>
   <g id="patch_20">
    <path clip-path="url(#pba7b9a789e)" d="M 165.795903 32.999022 
C 167.526398 32.999022 169.186249 32.791879 170.409893 32.423213 
C 171.633537 32.054547 172.32107 31.554458 172.32107 31.033086 
C 172.32107 30.511713 171.633537 30.011625 170.409893 29.642959 
C 169.186249 29.274293 167.526398 29.067149 165.795903 29.067149 
C 164.065409 29.067149 162.405558 29.274293 161.181913 29.642959 
C 159.958269 30.011625 159.270736 30.511713 159.270736 31.033086 
C 159.270736 31.554458 159.958269 32.054547 161.181913 32.423213 
C 162.405558 32.791879 164.065409 32.999022 165.795903 32.999022 
z
" style="fill:#008000;opacity:0.2;stroke:#008000;stroke-linejoin:miter;stroke-width:2;"/>
   </g>
   <g id="patch_21">
    <path clip-path="url(#pba7b9a789e)" d="M 415.057276 307.050537 
C 416.78777 307.050537 418.447621 306.843393 419.671266 306.474727 
C 420.89491 306.106061 421.582443 305.605973 421.582443 305.084601 
C 421.582443 304.563228 420.89491 304.06314 419.671266 303.694474 
C 418.447621 303.325808 416.78777 303.118664 415.057276 303.118664 
C 413.326782 303.118664 411.666931 303.325808 410.443286 303.694474 
C 409.219642 304.06314 408.532109 304.563228 408.532109 305.084601 
C 408.532109 305.605973 409.219642 306.106061 410.443286 306.474727 
C 411.666931 306.843393 413.326782 307.050537 415.057276 307.050537 
z
" style="fill:#008000;opacity:0.2;stroke:#008000;stroke-linejoin:miter;stroke-width:2;"/>
   </g>
   <g id="patch_22">
    <path clip-path="url(#pba7b9a789e)" d="M 318.484807 307.050537 
C 320.215301 307.050537 321.875152 306.843393 323.098797 306.474727 
C 324.322441 306.106061 325.009974 305.605973 325.009974 305.084601 
C 325.009974 304.563228 324.322441 304.06314 323.098797 303.694474 
C 321.875152 303.325808 320.215301 303.118664 318.484807 303.118664 
C 316.754312 303.118664 315.094462 303.325808 313.870817 303.694474 
C 312.647173 304.06314 311.95964 304.563228 311.95964 305.084601 
C 311.95964 305.605973 312.647173 306.106061 313.870817 306.474727 
C 315.094462 306.843393 316.754312 307.050537 318.484807 307.050537 
z
" style="fill:#008000;opacity:0.2;stroke:#008000;stroke-linejoin:miter;stroke-width:2;"/>
   </g>
   <g id="patch_23">
    <path clip-path="url(#pba7b9a789e)" d="M 69.223434 32.999022 
C 70.953929 32.999022 72.613779 32.791879 73.837424 32.423213 
C 75.061068 32.054547 75.748601 31.554458 75.748601 31.033086 
C 75.748601 30.511713 75.061068 30.011625 73.837424 29.642959 
C 72.613779 29.274293 70.953929 29.067149 69.223434 29.067149 
C 67.49294 29.067149 65.833089 29.274293 64.609444 29.642959 
C 63.3858 30.011625 62.698267 30.511713 62.698267 31.033086 
C 62.698267 31.554458 63.3858 32.054547 64.609444 32.423213 
C 65.833089 32.791879 67.49294 32.999022 69.223434 32.999022 
z
" style="fill:#008000;opacity:0.2;stroke:#008000;stroke-linejoin:miter;stroke-width:2;"/>
   </g>
   <g id="patch_24">
    <path clip-path="url(#pba7b9a789e)" d="M 176.23617 41.845735 
C 183.158148 41.845735 189.797551 41.017161 194.692129 39.542498 
C 199.586706 38.067834 202.336837 36.06748 202.336837 33.98199 
C 202.336837 31.896501 199.586706 29.896146 194.692129 28.421483 
C 189.797551 26.946819 183.158148 26.118245 176.23617 26.118245 
C 169.314192 26.118245 162.674789 26.946819 157.780211 28.421483 
C 152.885634 29.896146 150.135503 31.896501 150.135503 33.98199 
C 150.135503 36.06748 152.885634 38.067834 157.780211 39.542498 
C 162.674789 41.017161 169.314192 41.845735 176.23617 41.845735 
z
" style="fill:none;opacity:0.2;stroke:#ff0000;stroke-linejoin:miter;stroke-width:2;"/>
   </g>
   <g id="patch_25">
    <path clip-path="url(#pba7b9a789e)" d="M 155.355636 35.947926 
C 162.277614 35.947926 168.917018 35.119353 173.811595 33.644689 
C 178.706173 32.170025 181.456304 30.169671 181.456304 28.084181 
C 181.456304 25.998692 178.706173 23.998338 173.811595 22.523674 
C 168.917018 21.04901 162.277614 20.220436 155.355636 20.220436 
C 148.433658 20.220436 141.794255 21.04901 136.899677 22.523674 
C 132.0051 23.998338 129.254969 25.998692 129.254969 28.084181 
C 129.254969 30.169671 132.0051 32.170025 136.899677 33.644689 
C 141.794255 35.119353 148.433658 35.947926 155.355636 35.947926 
z
" style="fill:none;opacity:0.2;stroke:#0000ff;stroke-linejoin:miter;stroke-width:2;"/>
   </g>
   <g id="patch_26">
    <path clip-path="url(#pba7b9a789e)" d="M 176.23617 37.913863 
C 179.697159 37.913863 183.016861 37.499576 185.46415 36.762244 
C 187.911438 36.024912 189.286504 35.024735 189.286504 33.98199 
C 189.286504 32.939245 187.911438 31.939068 185.46415 31.201736 
C 183.016861 30.464404 179.697159 30.050118 176.23617 30.050118 
C 172.775181 30.050118 169.455479 30.464404 167.008191 31.201736 
C 164.560902 31.939068 163.185836 32.939245 163.185836 33.98199 
C 163.185836 35.024735 164.560902 36.024912 167.008191 36.762244 
C 169.455479 37.499576 172.775181 37.913863 176.23617 37.913863 
z
" style="fill:none;opacity:0.2;stroke:#008000;stroke-linejoin:miter;stroke-width:2;"/>
   </g>
   <g id="patch_27">
    <path clip-path="url(#pba7b9a789e)" d="M 155.355636 32.016054 
C 158.816625 32.016054 162.136327 31.601767 164.583616 30.864435 
C 167.030904 30.127103 168.40597 29.126926 168.40597 28.084181 
C 168.40597 27.041437 167.030904 26.04126 164.583616 25.303928 
C 162.136327 24.566596 158.816625 24.152309 155.355636 24.152309 
C 151.894647 24.152309 148.574946 24.566596 146.127657 25.303928 
C 143.680368 26.04126 142.305303 27.041437 142.305303 28.084181 
C 142.305303 29.126926 143.680368 30.127103 146.127657 30.864435 
C 148.574946 31.601767 151.894647 32.016054 155.355636 32.016054 
z
" style="fill:none;opacity:0.2;stroke:#008000;stroke-linejoin:miter;stroke-width:2;"/>
   </g>
   <g id="patch_28">
    <path d="M 165.795903 31.033086 
Q 290.42659 168.058843 415.057276 305.084601 
" style="fill:none;opacity:0.5;stroke:#008000;stroke-linecap:round;stroke-width:2;"/>
   </g>
   <g id="patch_29">
    <path d="M 174.875204 33.597579 
Q 166.75811 31.304866 158.641016 29.012153 
" style="fill:none;opacity:0.5;stroke:#800080;stroke-linecap:round;stroke-width:2;"/>
    <path d="M 173.839412 31.746327 
L 174.875204 33.597579 
L 173.023952 34.633371 
" style="fill:none;opacity:0.5;stroke:#800080;stroke-linecap:round;stroke-width:2;"/>
    <path d="M 159.676809 30.863405 
L 158.641016 29.012153 
L 160.492269 27.976361 
" style="fill:none;opacity:0.5;stroke:#800080;stroke-linecap:round;stroke-width:2;"/>
   </g>
   <g id="patch_30">
    <path d="M 415.057276 305.084601 
Q 366.771041 305.084601 318.484807 305.084601 
" style="fill:none;opacity:0.5;stroke:#008000;stroke-linecap:round;stroke-width:2;"/>
   </g>
   <g id="patch_31">
    <path d="M 424.089556 305.935004 
Q 416.052619 305.178314 408.015681 304.421623 
" style="fill:none;opacity:0.5;stroke:#800080;stroke-linecap:round;stroke-width:2;"/>
    <path d="M 422.736766 304.301003 
L 424.089556 305.935004 
L 422.455555 307.287794 
" style="fill:none;opacity:0.5;stroke:#800080;stroke-linecap:round;stroke-width:2;"/>
    <path d="M 409.368471 306.055624 
L 408.015681 304.421623 
L 409.649683 303.068833 
" style="fill:none;opacity:0.5;stroke:#800080;stroke-linecap:round;stroke-width:2;"/>
   </g>
   <g id="patch_32">
    <path d="M 318.484807 305.084601 
Q 193.854121 168.058843 69.223434 31.033086 
" style="fill:none;opacity:0.5;stroke:#008000;stroke-linecap:round;stroke-width:2;"/>
   </g>
   <g id="patch_33">
    <path d="M 309.452527 305.935004 
Q 317.489464 305.178314 325.526401 304.421623 
" style="fill:none;opacity:0.5;stroke:#800080;stroke-linecap:round;stroke-width:2;"/>
    <path d="M 311.086528 307.287794 
L 309.452527 305.935004 
L 310.805317 304.301003 
" style="fill:none;opacity:0.5;stroke:#800080;stroke-linecap:round;stroke-width:2;"/>
    <path d="M 323.8924 303.068833 
L 325.526401 304.421623 
L 324.173612 306.055624 
" style="fill:none;opacity:0.5;stroke:#800080;stroke-linecap:round;stroke-width:2;"/>
   </g>
   <g id="patch_34">
    <path d="M 69.223434 31.033086 
Q 117.509669 31.033086 165.795903 31.033086 
" style="fill:none;opacity:0.5;stroke:#008000;stroke-linecap:round;stroke-width:2;"/>
   </g>
   <g id="patch_35">
    <path d="M 60.144133 33.597579 
Q 68.261227 31.304866 76.378321 29.012153 
" style="fill:none;opacity:0.5;stroke:#800080;stroke-linecap:round;stroke-width:2;"/>
    <path d="M 61.995385 34.633371 
L 60.144133 33.597579 
L 61.179925 31.746327 
" style="fill:none;opacity:0.5;stroke:#800080;stroke-linecap:round;stroke-width:2;"/>
    <path d="M 74.527069 27.976361 
L 76.378321 29.012153 
L 75.342529 30.863405 
" style="fill:none;opacity:0.5;stroke:#800080;stroke-linecap:round;stroke-width:2;"/>
   </g>
   <g id="line2d_1">
    <path clip-path="url(#pba7b9a789e)" d="M 176.23617 33.98199 
L 425.497543 306.067569 
L 308.04454 306.067569 
L 58.783167 33.98199 
" style="fill:none;stroke:#ff0000;stroke-linecap:square;stroke-width:0.2;"/>
   </g>
   <g id="line2d_2">
    <path clip-path="url(#pba7b9a789e)" d="M 155.355636 28.084181 
L 404.617009 304.101632 
L 328.925074 304.101632 
L 79.663701 28.084181 
" style="fill:none;stroke:#0000ff;stroke-linecap:square;stroke-width:0.2;"/>
   </g>
  </g>
 </g>
 <defs>
  <clipPath id="pba7b9a789e">
   <rect height="307.51175" width="409.12796" x="37.576375" y="13.32"/>
  </clipPath>
 </defs>
</svg>
