<?xml version="1.0" encoding="utf-8" standalone="no"?>
<!DOCTYPE svg PUBLIC "-//W3C//DTD SVG 1.1//EN"
  "http://www.w3.org/Graphics/SVG/1.1/DTD/svg11.dtd">
<!-- Created with matplotlib (http://matplotlib.org/) -->
<svg height="345.6pt" version="1.1" viewBox="0 0 460.8 345.6" width="460.8pt" xmlns="http://www.w3.org/2000/svg" xmlns:xlink="http://www.w3.org/1999/xlink">
 <defs>
  <style type="text/css">
*{stroke-linecap:butt;stroke-linejoin:round;}
  </style>
 </defs>
 <g id="figure_1">
  <g id="patch_1">
   <path d="M 0 345.6 
L 460.8 345.6 
L 460.8 0 
L 0 0 
z
" style="fill:#ffffff;"/>
  </g>
  <g id="axes_1">
   <g id="patch_2">
    <path clip-path="url(#pfa5ba2d715)" d="M 424.350695 28.95003 
C 425.347041 28.95003 426.302712 28.880394 427.007235 28.75646 
C 427.711757 28.632525 428.10761 28.464411 428.10761 28.289141 
C 428.10761 28.113871 427.711757 27.945756 427.007235 27.821821 
C 426.302712 27.697887 425.347041 27.628251 424.350695 27.628251 
C 423.35435 27.628251 422.398678 27.697887 421.694156 27.821821 
C 420.989633 27.945756 420.593781 28.113871 420.593781 28.289141 
C 420.593781 28.464411 420.989633 28.632525 421.694156 28.75646 
C 422.398678 28.880394 423.35435 28.95003 424.350695 28.95003 
z
" style="fill:#ff0000;opacity:0.2;stroke:#ff0000;stroke-linejoin:miter;stroke-width:2;"/>
   </g>
   <g id="patch_3">
    <path clip-path="url(#pfa5ba2d715)" d="M 424.350695 306.523499 
C 425.347041 306.523499 426.302712 306.453863 427.007235 306.329929 
C 427.711757 306.205994 428.10761 306.037879 428.10761 305.862609 
C 428.10761 305.687339 427.711757 305.519225 427.007235 305.39529 
C 426.302712 305.271356 425.347041 305.20172 424.350695 305.20172 
C 423.35435 305.20172 422.398678 305.271356 421.694156 305.39529 
C 420.989633 305.519225 420.593781 305.687339 420.593781 305.862609 
C 420.593781 306.037879 420.989633 306.205994 421.694156 306.329929 
C 422.398678 306.453863 423.35435 306.523499 424.350695 306.523499 
z
" style="fill:#ff0000;opacity:0.2;stroke:#ff0000;stroke-linejoin:miter;stroke-width:2;"/>
   </g>
   <g id="patch_4">
    <path clip-path="url(#pfa5ba2d715)" d="M 277.83104 306.853943 
C 278.827386 306.853943 279.783057 306.784308 280.48758 306.660373 
C 281.192102 306.536439 281.587955 306.368324 281.587955 306.193054 
C 281.587955 306.017784 281.192102 305.849669 280.48758 305.725735 
C 279.783057 305.6018 278.827386 305.532165 277.83104 305.532165 
C 276.834695 305.532165 275.879023 305.6018 275.174501 305.725735 
C 274.469978 305.849669 274.074126 306.017784 274.074126 306.193054 
C 274.074126 306.368324 274.469978 306.536439 275.174501 306.660373 
C 275.879023 306.784308 276.834695 306.853943 277.83104 306.853943 
z
" style="fill:#ff0000;opacity:0.2;stroke:#ff0000;stroke-linejoin:miter;stroke-width:2;"/>
   </g>
   <g id="patch_5">
    <path clip-path="url(#pfa5ba2d715)" d="M 71.200757 305.532165 
C 72.197103 305.532165 73.152774 305.462529 73.857297 305.338595 
C 74.561819 305.21466 74.957672 305.046545 74.957672 304.871276 
C 74.957672 304.696006 74.561819 304.527891 73.857297 304.403956 
C 73.152774 304.280022 72.197103 304.210386 71.200757 304.210386 
C 70.204412 304.210386 69.24874 304.280022 68.544218 304.403956 
C 67.839695 304.527891 67.443843 304.696006 67.443843 304.871276 
C 67.443843 305.046545 67.839695 305.21466 68.544218 305.338595 
C 69.24874 305.462529 70.204412 305.532165 71.200757 305.532165 
z
" style="fill:#ff0000;opacity:0.2;stroke:#ff0000;stroke-linejoin:miter;stroke-width:2;"/>
   </g>
   <g id="patch_6">
    <path clip-path="url(#pfa5ba2d715)" d="M 69.3223 295.288382 
C 70.318646 295.288382 71.274317 295.218747 71.97884 295.094812 
C 72.683362 294.970878 73.079215 294.802763 73.079215 294.627493 
C 73.079215 294.452223 72.683362 294.284108 71.97884 294.160174 
C 71.274317 294.036239 70.318646 293.966604 69.3223 293.966604 
C 68.325955 293.966604 67.370283 294.036239 66.665761 294.160174 
C 65.961238 294.284108 65.565386 294.452223 65.565386 294.627493 
C 65.565386 294.802763 65.961238 294.970878 66.665761 295.094812 
C 67.370283 295.218747 68.325955 295.288382 69.3223 295.288382 
z
" style="fill:#ff0000;opacity:0.2;stroke:#ff0000;stroke-linejoin:miter;stroke-width:2;"/>
   </g>
   <g id="patch_7">
    <path clip-path="url(#pfa5ba2d715)" d="M 198.935841 291.653491 
C 199.932187 291.653491 200.887858 291.583856 201.592381 291.459921 
C 202.296903 291.335987 202.692756 291.167872 202.692756 290.992602 
C 202.692756 290.817332 202.296903 290.649217 201.592381 290.525283 
C 200.887858 290.401348 199.932187 290.331713 198.935841 290.331713 
C 197.939496 290.331713 196.983824 290.401348 196.279302 290.525283 
C 195.574779 290.649217 195.178927 290.817332 195.178927 290.992602 
C 195.178927 291.167872 195.574779 291.335987 196.279302 291.459921 
C 196.983824 291.583856 197.939496 291.653491 198.935841 291.653491 
z
" style="fill:#ff0000;opacity:0.2;stroke:#ff0000;stroke-linejoin:miter;stroke-width:2;"/>
   </g>
   <g id="patch_8">
    <path clip-path="url(#pfa5ba2d715)" d="M 270.317212 238.782354 
C 271.313557 238.782354 272.269229 238.712719 272.973751 238.588784 
C 273.678274 238.46485 274.074126 238.296735 274.074126 238.121465 
C 274.074126 237.946195 273.678274 237.77808 272.973751 237.654146 
C 272.269229 237.530211 271.313557 237.460576 270.317212 237.460576 
C 269.320867 237.460576 268.365195 237.530211 267.660672 237.654146 
C 266.95615 237.77808 266.560298 237.946195 266.560298 238.121465 
C 266.560298 238.296735 266.95615 238.46485 267.660672 238.588784 
C 268.365195 238.712719 269.320867 238.782354 270.317212 238.782354 
z
" style="fill:#ff0000;opacity:0.2;stroke:#ff0000;stroke-linejoin:miter;stroke-width:2;"/>
   </g>
   <g id="patch_9">
    <path clip-path="url(#pfa5ba2d715)" d="M 270.317212 96.691174 
C 271.313557 96.691174 272.269229 96.621539 272.973751 96.497604 
C 273.678274 96.37367 274.074126 96.205555 274.074126 96.030285 
C 274.074126 95.855015 273.678274 95.6869 272.973751 95.562966 
C 272.269229 95.439031 271.313557 95.369396 270.317212 95.369396 
C 269.320867 95.369396 268.365195 95.439031 267.660672 95.562966 
C 266.95615 95.6869 266.560298 95.855015 266.560298 96.030285 
C 266.560298 96.205555 266.95615 96.37367 267.660672 96.497604 
C 268.365195 96.621539 269.320867 96.691174 270.317212 96.691174 
z
" style="fill:#ff0000;opacity:0.2;stroke:#ff0000;stroke-linejoin:miter;stroke-width:2;"/>
   </g>
   <g id="patch_10">
    <path clip-path="url(#pfa5ba2d715)" d="M 198.935841 43.820037 
C 199.932187 43.820037 200.887858 43.750402 201.592381 43.626467 
C 202.296903 43.502533 202.692756 43.334418 202.692756 43.159148 
C 202.692756 42.983878 202.296903 42.815763 201.592381 42.691829 
C 200.887858 42.567894 199.932187 42.498259 198.935841 42.498259 
C 197.939496 42.498259 196.983824 42.567894 196.279302 42.691829 
C 195.574779 42.815763 195.178927 42.983878 195.178927 43.159148 
C 195.178927 43.334418 195.574779 43.502533 196.279302 43.626467 
C 196.983824 43.750402 197.939496 43.820037 198.935841 43.820037 
z
" style="fill:#ff0000;opacity:0.2;stroke:#ff0000;stroke-linejoin:miter;stroke-width:2;"/>
   </g>
   <g id="patch_11">
    <path clip-path="url(#pfa5ba2d715)" d="M 69.3223 40.185146 
C 70.318646 40.185146 71.274317 40.115511 71.97884 39.991576 
C 72.683362 39.867642 73.079215 39.699527 73.079215 39.524257 
C 73.079215 39.348987 72.683362 39.180872 71.97884 39.056938 
C 71.274317 38.933003 70.318646 38.863368 69.3223 38.863368 
C 68.325955 38.863368 67.370283 38.933003 66.665761 39.056938 
C 65.961238 39.180872 65.565386 39.348987 65.565386 39.524257 
C 65.565386 39.699527 65.961238 39.867642 66.665761 39.991576 
C 67.370283 40.115511 68.325955 40.185146 69.3223 40.185146 
z
" style="fill:#ff0000;opacity:0.2;stroke:#ff0000;stroke-linejoin:miter;stroke-width:2;"/>
   </g>
   <g id="patch_12">
    <path clip-path="url(#pfa5ba2d715)" d="M 71.200757 29.941364 
C 72.197103 29.941364 73.152774 29.871728 73.857297 29.747794 
C 74.561819 29.623859 74.957672 29.455744 74.957672 29.280474 
C 74.957672 29.105205 74.561819 28.93709 73.857297 28.813155 
C 73.152774 28.689221 72.197103 28.619585 71.200757 28.619585 
C 70.204412 28.619585 69.24874 28.689221 68.544218 28.813155 
C 67.839695 28.93709 67.443843 29.105205 67.443843 29.280474 
C 67.443843 29.455744 67.839695 29.623859 68.544218 29.747794 
C 69.24874 29.871728 70.204412 29.941364 71.200757 29.941364 
z
" style="fill:#ff0000;opacity:0.2;stroke:#ff0000;stroke-linejoin:miter;stroke-width:2;"/>
   </g>
   <g id="patch_13">
    <path clip-path="url(#pfa5ba2d715)" d="M 277.83104 28.619585 
C 278.827386 28.619585 279.783057 28.54995 280.48758 28.426015 
C 281.192102 28.302081 281.587955 28.133966 281.587955 27.958696 
C 281.587955 27.783426 281.192102 27.615311 280.48758 27.491377 
C 279.783057 27.367442 278.827386 27.297807 277.83104 27.297807 
C 276.834695 27.297807 275.879023 27.367442 275.174501 27.491377 
C 274.469978 27.615311 274.074126 27.783426 274.074126 27.958696 
C 274.074126 28.133966 274.469978 28.302081 275.174501 28.426015 
C 275.879023 28.54995 276.834695 28.619585 277.83104 28.619585 
z
" style="fill:#ff0000;opacity:0.2;stroke:#ff0000;stroke-linejoin:miter;stroke-width:2;"/>
   </g>
   <g id="patch_14">
    <path clip-path="url(#pfa5ba2d715)" d="M 415.897638 29.610919 
C 416.893984 29.610919 417.849655 29.541284 418.554178 29.417349 
C 419.2587 29.293415 419.654553 29.1253 419.654553 28.95003 
C 419.654553 28.77476 419.2587 28.606645 418.554178 28.482711 
C 417.849655 28.358776 416.893984 28.289141 415.897638 28.289141 
C 414.901293 28.289141 413.945621 28.358776 413.241099 28.482711 
C 412.536576 28.606645 412.140724 28.77476 412.140724 28.95003 
C 412.140724 29.1253 412.536576 29.293415 413.241099 29.417349 
C 413.945621 29.541284 414.901293 29.610919 415.897638 29.610919 
z
" style="fill:#0000ff;opacity:0.2;stroke:#0000ff;stroke-linejoin:miter;stroke-width:2;"/>
   </g>
   <g id="patch_15">
    <path clip-path="url(#pfa5ba2d715)" d="M 415.897638 305.862609 
C 416.893984 305.862609 417.849655 305.792974 418.554178 305.669039 
C 419.2587 305.545105 419.654553 305.37699 419.654553 305.20172 
C 419.654553 305.02645 419.2587 304.858335 418.554178 304.734401 
C 417.849655 304.610466 416.893984 304.540831 415.897638 304.540831 
C 414.901293 304.540831 413.945621 304.610466 413.241099 304.734401 
C 412.536576 304.858335 412.140724 305.02645 412.140724 305.20172 
C 412.140724 305.37699 412.536576 305.545105 413.241099 305.669039 
C 413.945621 305.792974 414.901293 305.862609 415.897638 305.862609 
z
" style="fill:#0000ff;opacity:0.2;stroke:#0000ff;stroke-linejoin:miter;stroke-width:2;"/>
   </g>
   <g id="patch_16">
    <path clip-path="url(#pfa5ba2d715)" d="M 286.284097 305.862609 
C 287.280443 305.862609 288.236114 305.792974 288.940637 305.669039 
C 289.645159 305.545105 290.041012 305.37699 290.041012 305.20172 
C 290.041012 305.02645 289.645159 304.858335 288.940637 304.734401 
C 288.236114 304.610466 287.280443 304.540831 286.284097 304.540831 
C 285.287752 304.540831 284.33208 304.610466 283.627558 304.734401 
C 282.923035 304.858335 282.527183 305.02645 282.527183 305.20172 
C 282.527183 305.37699 282.923035 305.545105 283.627558 305.669039 
C 284.33208 305.792974 285.287752 305.862609 286.284097 305.862609 
z
" style="fill:#0000ff;opacity:0.2;stroke:#0000ff;stroke-linejoin:miter;stroke-width:2;"/>
   </g>
   <g id="patch_17">
    <path clip-path="url(#pfa5ba2d715)" d="M 79.653814 304.871276 
C 80.65016 304.871276 81.605831 304.80164 82.310354 304.677706 
C 83.014876 304.553771 83.410729 304.385656 83.410729 304.210386 
C 83.410729 304.035116 83.014876 303.867002 82.310354 303.743067 
C 81.605831 303.619133 80.65016 303.549497 79.653814 303.549497 
C 78.657469 303.549497 77.701797 303.619133 76.997275 303.743067 
C 76.292752 303.867002 75.8969 304.035116 75.8969 304.210386 
C 75.8969 304.385656 76.292752 304.553771 76.997275 304.677706 
C 77.701797 304.80164 78.657469 304.871276 79.653814 304.871276 
z
" style="fill:#0000ff;opacity:0.2;stroke:#0000ff;stroke-linejoin:miter;stroke-width:2;"/>
   </g>
   <g id="patch_18">
    <path clip-path="url(#pfa5ba2d715)" d="M 77.775357 297.601494 
C 78.771703 297.601494 79.727374 297.531859 80.431897 297.407924 
C 81.136419 297.28399 81.532272 297.115875 81.532272 296.940605 
C 81.532272 296.765335 81.136419 296.59722 80.431897 296.473286 
C 79.727374 296.349351 78.771703 296.279716 77.775357 296.279716 
C 76.779012 296.279716 75.82334 296.349351 75.118818 296.473286 
C 74.414295 296.59722 74.018443 296.765335 74.018443 296.940605 
C 74.018443 297.115875 74.414295 297.28399 75.118818 297.407924 
C 75.82334 297.531859 76.779012 297.601494 77.775357 297.601494 
z
" style="fill:#0000ff;opacity:0.2;stroke:#0000ff;stroke-linejoin:miter;stroke-width:2;"/>
   </g>
   <g id="patch_19">
    <path clip-path="url(#pfa5ba2d715)" d="M 244.958041 294.297048 
C 245.954386 294.297048 246.910058 294.227413 247.61458 294.103478 
C 248.319103 293.979544 248.714955 293.811429 248.714955 293.636159 
C 248.714955 293.460889 248.319103 293.292774 247.61458 293.16884 
C 246.910058 293.044905 245.954386 292.97527 244.958041 292.97527 
C 243.961695 292.97527 243.006024 293.044905 242.301501 293.16884 
C 241.596979 293.292774 241.201126 293.460889 241.201126 293.636159 
C 241.201126 293.811429 241.596979 293.979544 242.301501 294.103478 
C 243.006024 294.227413 243.961695 294.297048 244.958041 294.297048 
z
" style="fill:#0000ff;opacity:0.2;stroke:#0000ff;stroke-linejoin:miter;stroke-width:2;"/>
   </g>
   <g id="patch_20">
    <path clip-path="url(#pfa5ba2d715)" d="M 291.919469 290.992602 
C 292.915814 290.992602 293.871486 290.922967 294.576008 290.799032 
C 295.280531 290.675098 295.676383 290.506983 295.676383 290.331713 
C 295.676383 290.156443 295.280531 289.988328 294.576008 289.864394 
C 293.871486 289.740459 292.915814 289.670824 291.919469 289.670824 
C 290.923123 289.670824 289.967452 289.740459 289.262929 289.864394 
C 288.558407 289.988328 288.162554 290.156443 288.162554 290.331713 
C 288.162554 290.506983 288.558407 290.675098 289.262929 290.799032 
C 289.967452 290.922967 290.923123 290.992602 291.919469 290.992602 
z
" style="fill:#0000ff;opacity:0.2;stroke:#0000ff;stroke-linejoin:miter;stroke-width:2;"/>
   </g>
   <g id="patch_21">
    <path clip-path="url(#pfa5ba2d715)" d="M 316.339411 239.443244 
C 317.335756 239.443244 318.291428 239.373608 318.995951 239.249674 
C 319.700473 239.125739 320.096325 238.957624 320.096325 238.782354 
C 320.096325 238.607085 319.700473 238.43897 318.995951 238.315035 
C 318.291428 238.191101 317.335756 238.121465 316.339411 238.121465 
C 315.343066 238.121465 314.387394 238.191101 313.682872 238.315035 
C 312.978349 238.43897 312.582497 238.607085 312.582497 238.782354 
C 312.582497 238.957624 312.978349 239.125739 313.682872 239.249674 
C 314.387394 239.373608 315.343066 239.443244 316.339411 239.443244 
z
" style="fill:#0000ff;opacity:0.2;stroke:#0000ff;stroke-linejoin:miter;stroke-width:2;"/>
   </g>
   <g id="patch_22">
    <path clip-path="url(#pfa5ba2d715)" d="M 316.339411 96.030285 
C 317.335756 96.030285 318.291428 95.960649 318.995951 95.836715 
C 319.700473 95.71278 320.096325 95.544665 320.096325 95.369396 
C 320.096325 95.194126 319.700473 95.026011 318.995951 94.902076 
C 318.291428 94.778142 317.335756 94.708506 316.339411 94.708506 
C 315.343066 94.708506 314.387394 94.778142 313.682872 94.902076 
C 312.978349 95.026011 312.582497 95.194126 312.582497 95.369396 
C 312.582497 95.544665 312.978349 95.71278 313.682872 95.836715 
C 314.387394 95.960649 315.343066 96.030285 316.339411 96.030285 
z
" style="fill:#0000ff;opacity:0.2;stroke:#0000ff;stroke-linejoin:miter;stroke-width:2;"/>
   </g>
   <g id="patch_23">
    <path clip-path="url(#pfa5ba2d715)" d="M 291.919469 44.480926 
C 292.915814 44.480926 293.871486 44.411291 294.576008 44.287356 
C 295.280531 44.163422 295.676383 43.995307 295.676383 43.820037 
C 295.676383 43.644767 295.280531 43.476652 294.576008 43.352718 
C 293.871486 43.228783 292.915814 43.159148 291.919469 43.159148 
C 290.923123 43.159148 289.967452 43.228783 289.262929 43.352718 
C 288.558407 43.476652 288.162554 43.644767 288.162554 43.820037 
C 288.162554 43.995307 288.558407 44.163422 289.262929 44.287356 
C 289.967452 44.411291 290.923123 44.480926 291.919469 44.480926 
z
" style="fill:#0000ff;opacity:0.2;stroke:#0000ff;stroke-linejoin:miter;stroke-width:2;"/>
   </g>
   <g id="patch_24">
    <path clip-path="url(#pfa5ba2d715)" d="M 244.958041 41.17648 
C 245.954386 41.17648 246.910058 41.106845 247.61458 40.98291 
C 248.319103 40.858976 248.714955 40.690861 248.714955 40.515591 
C 248.714955 40.340321 248.319103 40.172206 247.61458 40.048272 
C 246.910058 39.924337 245.954386 39.854702 244.958041 39.854702 
C 243.961695 39.854702 243.006024 39.924337 242.301501 40.048272 
C 241.596979 40.172206 241.201126 40.340321 241.201126 40.515591 
C 241.201126 40.690861 241.596979 40.858976 242.301501 40.98291 
C 243.006024 41.106845 243.961695 41.17648 244.958041 41.17648 
z
" style="fill:#0000ff;opacity:0.2;stroke:#0000ff;stroke-linejoin:miter;stroke-width:2;"/>
   </g>
   <g id="patch_25">
    <path clip-path="url(#pfa5ba2d715)" d="M 77.775357 37.872034 
C 78.771703 37.872034 79.727374 37.802399 80.431897 37.678464 
C 81.136419 37.55453 81.532272 37.386415 81.532272 37.211145 
C 81.532272 37.035875 81.136419 36.86776 80.431897 36.743826 
C 79.727374 36.619891 78.771703 36.550256 77.775357 36.550256 
C 76.779012 36.550256 75.82334 36.619891 75.118818 36.743826 
C 74.414295 36.86776 74.018443 37.035875 74.018443 37.211145 
C 74.018443 37.386415 74.414295 37.55453 75.118818 37.678464 
C 75.82334 37.802399 76.779012 37.872034 77.775357 37.872034 
z
" style="fill:#0000ff;opacity:0.2;stroke:#0000ff;stroke-linejoin:miter;stroke-width:2;"/>
   </g>
   <g id="patch_26">
    <path clip-path="url(#pfa5ba2d715)" d="M 79.653814 30.602253 
C 80.65016 30.602253 81.605831 30.532617 82.310354 30.408683 
C 83.014876 30.284748 83.410729 30.116634 83.410729 29.941364 
C 83.410729 29.766094 83.014876 29.597979 82.310354 29.474044 
C 81.605831 29.35011 80.65016 29.280474 79.653814 29.280474 
C 78.657469 29.280474 77.701797 29.35011 76.997275 29.474044 
C 76.292752 29.597979 75.8969 29.766094 75.8969 29.941364 
C 75.8969 30.116634 76.292752 30.284748 76.997275 30.408683 
C 77.701797 30.532617 78.657469 30.602253 79.653814 30.602253 
z
" style="fill:#0000ff;opacity:0.2;stroke:#0000ff;stroke-linejoin:miter;stroke-width:2;"/>
   </g>
   <g id="patch_27">
    <path clip-path="url(#pfa5ba2d715)" d="M 286.284097 29.610919 
C 287.280443 29.610919 288.236114 29.541284 288.940637 29.417349 
C 289.645159 29.293415 290.041012 29.1253 290.041012 28.95003 
C 290.041012 28.77476 289.645159 28.606645 288.940637 28.482711 
C 288.236114 28.358776 287.280443 28.289141 286.284097 28.289141 
C 285.287752 28.289141 284.33208 28.358776 283.627558 28.482711 
C 282.923035 28.606645 282.527183 28.77476 282.527183 28.95003 
C 282.527183 29.1253 282.923035 29.293415 283.627558 29.417349 
C 284.33208 29.541284 285.287752 29.610919 286.284097 29.610919 
z
" style="fill:#0000ff;opacity:0.2;stroke:#0000ff;stroke-linejoin:miter;stroke-width:2;"/>
   </g>
   <g id="patch_28">
    <path clip-path="url(#pfa5ba2d715)" d="M 424.350695 28.289141 
L 424.350695 305.862609 
C 381.146182 306.193054 339.820125 306.193054 277.83104 306.193054 
C 174.515899 306.193054 99.377614 305.532165 71.200757 304.871276 
C 56.1731 303.549497 56.1731 295.949271 69.3223 294.627493 
L 198.935841 290.992602 
C 259.046469 289.340379 270.317212 284.38371 270.317212 238.121465 
L 270.317212 96.030285 
C 270.317212 49.76804 259.046469 44.811371 198.935841 43.159148 
L 69.3223 39.524257 
C 56.1731 38.202479 56.1731 30.602253 71.200757 29.280474 
C 99.377614 28.619585 174.515899 27.958696 277.83104 27.958696 
C 339.820125 27.958696 381.146182 27.958696 424.350695 28.289141 
" style="fill:none;stroke:#ff0000;stroke-linejoin:miter;stroke-width:0.5;"/>
   </g>
   <g id="patch_29">
    <path clip-path="url(#pfa5ba2d715)" d="M 415.897638 28.95003 
L 415.897638 305.20172 
L 286.284097 305.20172 
C 216.781184 305.20172 149.156728 304.540831 79.653814 304.210386 
C 66.504615 302.888608 66.504615 299.253717 77.775357 296.940605 
L 244.958041 293.636159 
C 269.377983 293.305714 280.648726 292.314381 291.919469 290.331713 
C 312.582497 286.696822 316.339411 263.235255 316.339411 238.782354 
L 316.339411 95.369396 
C 316.339411 70.916495 312.582497 47.454928 291.919469 43.820037 
C 280.648726 41.837369 269.377983 40.846036 244.958041 40.515591 
L 77.775357 37.211145 
C 66.504615 34.898033 66.504615 31.263142 79.653814 29.941364 
C 149.156728 29.610919 216.781184 28.95003 286.284097 28.95003 
L 415.897638 28.95003 
" style="fill:none;stroke:#0000ff;stroke-linejoin:miter;stroke-width:0.5;"/>
   </g>
   <g id="[&quot;g_s&quot;:3,&quot;g_t&quot;:3,&quot;coords&quot;:[[191.0, -793.0],[195.5, -790.0]],&quot;certainty&quot;:4]">
    <path clip-path="url(#pfa5ba2d715)" d="M 277.83104 307.019165 
C 279.076472 307.019165 280.271062 306.932121 281.151715 306.777203 
C 282.032368 306.622285 282.527183 306.412141 282.527183 306.193054 
C 282.527183 305.973967 282.032368 305.763823 281.151715 305.608905 
C 280.271062 305.453987 279.076472 305.366942 277.83104 305.366942 
C 276.585609 305.366942 275.391019 305.453987 274.510366 305.608905 
C 273.629713 305.763823 273.134897 305.973967 273.134897 306.193054 
C 273.134897 306.412141 273.629713 306.622285 274.510366 306.777203 
C 275.391019 306.932121 276.585609 307.019165 277.83104 307.019165 
z
" style="fill:#0000ff;opacity:0.2;stroke:#0000ff;stroke-linejoin:miter;stroke-width:2;"/>
   </g>
   <g id="[&quot;g_s&quot;:3,&quot;g_t&quot;:3,&quot;coords&quot;:[[195.5, -790.0],[191.0, -793.0]],&quot;certainty&quot;:4]">
    <path clip-path="url(#pfa5ba2d715)" d="M 286.284097 306.027832 
C 287.529529 306.027832 288.724119 305.940787 289.604772 305.785869 
C 290.485425 305.630951 290.98024 305.420807 290.98024 305.20172 
C 290.98024 304.982633 290.485425 304.772489 289.604772 304.617571 
C 288.724119 304.462653 287.529529 304.375609 286.284097 304.375609 
C 285.038666 304.375609 283.844076 304.462653 282.963423 304.617571 
C 282.08277 304.772489 281.587955 304.982633 281.587955 305.20172 
C 281.587955 305.420807 282.08277 305.630951 282.963423 305.785869 
C 283.844076 305.940787 285.038666 306.027832 286.284097 306.027832 
z
" style="fill:#ff0000;opacity:0.2;stroke:#ff0000;stroke-linejoin:miter;stroke-width:2;"/>
   </g>
   <g id="patch_30">
    <path d="M 277.83104 306.193054 
Q 281.064912 305.813801 283.420917 305.5375 
" style="fill:none;opacity:0.5;stroke:#0000ff;stroke-linecap:round;stroke-width:1.25;"/>
    <path d="M 281.756412 304.222425 
L 283.420917 305.5375 
L 282.105843 307.202006 
" style="fill:none;opacity:0.5;stroke:#0000ff;stroke-linecap:round;stroke-width:1.25;"/>
   </g>
   <g id="[&quot;g_s&quot;:4,&quot;g_t&quot;:4,&quot;coords&quot;:[[81.0, -789.0],[85.5, -787.0]],&quot;certainty&quot;:11]">
    <path clip-path="url(#pfa5ba2d715)" d="M 71.200757 306.853943 
C 74.189793 306.853943 77.056808 306.645037 79.170376 306.273233 
C 81.283944 305.90143 82.4715 305.397085 82.4715 304.871276 
C 82.4715 304.345466 81.283944 303.841121 79.170376 303.469318 
C 77.056808 303.097514 74.189793 302.888608 71.200757 302.888608 
C 68.211721 302.888608 65.344706 303.097514 63.231139 303.469318 
C 61.117571 303.841121 59.930015 304.345466 59.930015 304.871276 
C 59.930015 305.397085 61.117571 305.90143 63.231139 306.273233 
C 65.344706 306.645037 68.211721 306.853943 71.200757 306.853943 
z
" style="fill:#0000ff;opacity:0.2;stroke:#0000ff;stroke-linejoin:miter;stroke-width:2;"/>
   </g>
   <g id="[&quot;g_s&quot;:4,&quot;g_t&quot;:4,&quot;coords&quot;:[[85.5, -787.0],[81.0, -789.0]],&quot;certainty&quot;:11]">
    <path clip-path="url(#pfa5ba2d715)" d="M 79.653814 306.193054 
C 82.64285 306.193054 85.509865 305.984148 87.623433 305.612344 
C 89.737001 305.240541 90.924557 304.736196 90.924557 304.210386 
C 90.924557 303.684577 89.737001 303.180232 87.623433 302.808429 
C 85.509865 302.436625 82.64285 302.227719 79.653814 302.227719 
C 76.664779 302.227719 73.797763 302.436625 71.684196 302.808429 
C 69.570628 303.180232 68.383072 303.684577 68.383072 304.210386 
C 68.383072 304.736196 69.570628 305.240541 71.684196 305.612344 
C 73.797763 305.984148 76.664779 306.193054 79.653814 306.193054 
z
" style="fill:#ff0000;opacity:0.2;stroke:#ff0000;stroke-linejoin:miter;stroke-width:2;"/>
   </g>
   <g id="patch_31">
    <path d="M 71.200757 304.871276 
Q 74.430502 304.618763 75.54538 304.531598 
" style="fill:none;opacity:0.5;stroke:#0000ff;stroke-linecap:round;stroke-width:3;"/>
    <path d="M 73.933025 303.15308 
L 75.54538 304.531598 
L 74.166862 306.143953 
" style="fill:none;opacity:0.5;stroke:#0000ff;stroke-linecap:round;stroke-width:3;"/>
   </g>
   <g id="[&quot;g_s&quot;:5,&quot;g_t&quot;:5,&quot;coords&quot;:[[80.0, -758.0],[84.5, -765.0]],&quot;certainty&quot;:5]">
    <path clip-path="url(#pfa5ba2d715)" d="M 69.3223 295.618827 
C 70.816818 295.618827 72.250326 295.514373 73.30711 295.328472 
C 74.363893 295.14257 74.957672 294.890398 74.957672 294.627493 
C 74.957672 294.364588 74.363893 294.112416 73.30711 293.926514 
C 72.250326 293.740612 70.816818 293.636159 69.3223 293.636159 
C 67.827782 293.636159 66.394275 293.740612 65.337491 293.926514 
C 64.280707 294.112416 63.686929 294.364588 63.686929 294.627493 
C 63.686929 294.890398 64.280707 295.14257 65.337491 295.328472 
C 66.394275 295.514373 67.827782 295.618827 69.3223 295.618827 
z
" style="fill:#0000ff;opacity:0.2;stroke:#0000ff;stroke-linejoin:miter;stroke-width:2;"/>
   </g>
   <g id="[&quot;g_s&quot;:5,&quot;g_t&quot;:5,&quot;coords&quot;:[[84.5, -765.0],[80.0, -758.0]],&quot;certainty&quot;:5]">
    <path clip-path="url(#pfa5ba2d715)" d="M 77.775357 297.931939 
C 79.269875 297.931939 80.703383 297.827486 81.760167 297.641584 
C 82.81695 297.455682 83.410729 297.20351 83.410729 296.940605 
C 83.410729 296.6777 82.81695 296.425528 81.760167 296.239626 
C 80.703383 296.053724 79.269875 295.949271 77.775357 295.949271 
C 76.280839 295.949271 74.847332 296.053724 73.790548 296.239626 
C 72.733764 296.425528 72.139986 296.6777 72.139986 296.940605 
C 72.139986 297.20351 72.733764 297.455682 73.790548 297.641584 
C 74.847332 297.827486 76.280839 297.931939 77.775357 297.931939 
z
" style="fill:#ff0000;opacity:0.2;stroke:#ff0000;stroke-linejoin:miter;stroke-width:2;"/>
   </g>
   <g id="patch_32">
    <path d="M 69.3223 294.627493 
Q 72.585065 295.520322 74.824781 296.133203 
" style="fill:none;opacity:0.5;stroke:#0000ff;stroke-linecap:round;stroke-width:1.5;"/>
    <path d="M 73.773879 294.290486 
L 74.824781 296.133203 
L 72.982063 297.184104 
" style="fill:none;opacity:0.5;stroke:#0000ff;stroke-linecap:round;stroke-width:1.5;"/>
   </g>
   <g id="[&quot;g_s&quot;:6,&quot;g_t&quot;:6,&quot;coords&quot;:[[149.0, -747.0],[173.5, -755.0]],&quot;certainty&quot;:5]">
    <path clip-path="url(#pfa5ba2d715)" d="M 198.935841 291.983936 
C 200.430359 291.983936 201.863867 291.879483 202.920651 291.693581 
C 203.977434 291.507679 204.571213 291.255507 204.571213 290.992602 
C 204.571213 290.729697 203.977434 290.477525 202.920651 290.291623 
C 201.863867 290.105721 200.430359 290.001268 198.935841 290.001268 
C 197.441323 290.001268 196.007816 290.105721 194.951032 290.291623 
C 193.894248 290.477525 193.30047 290.729697 193.30047 290.992602 
C 193.30047 291.255507 193.894248 291.507679 194.951032 291.693581 
C 196.007816 291.879483 197.441323 291.983936 198.935841 291.983936 
z
" style="fill:#0000ff;opacity:0.2;stroke:#0000ff;stroke-linejoin:miter;stroke-width:2;"/>
   </g>
   <g id="[&quot;g_s&quot;:6,&quot;g_t&quot;:6,&quot;coords&quot;:[[173.5, -755.0],[149.0, -747.0]],&quot;certainty&quot;:5]">
    <path clip-path="url(#pfa5ba2d715)" d="M 244.958041 294.627493 
C 246.452559 294.627493 247.886066 294.52304 248.94285 294.337138 
C 249.999634 294.151236 250.593412 293.899064 250.593412 293.636159 
C 250.593412 293.373254 249.999634 293.121082 248.94285 292.93518 
C 247.886066 292.749278 246.452559 292.644825 244.958041 292.644825 
C 243.463523 292.644825 242.030015 292.749278 240.973231 292.93518 
C 239.916448 293.121082 239.322669 293.373254 239.322669 293.636159 
C 239.322669 293.899064 239.916448 294.151236 240.973231 294.337138 
C 242.030015 294.52304 243.463523 294.627493 244.958041 294.627493 
z
" style="fill:#ff0000;opacity:0.2;stroke:#ff0000;stroke-linejoin:miter;stroke-width:2;"/>
   </g>
   <g id="patch_33">
    <path d="M 198.935841 290.992602 
Q 220.948351 292.257021 241.901947 293.460614 
" style="fill:none;opacity:0.5;stroke:#0000ff;stroke-linecap:round;stroke-width:1.5;"/>
    <path d="M 240.490435 291.877063 
L 241.901947 293.460614 
L 240.318396 294.872126 
" style="fill:none;opacity:0.5;stroke:#0000ff;stroke-linecap:round;stroke-width:1.5;"/>
   </g>
   <g id="[&quot;g_s&quot;:7,&quot;g_t&quot;:8,&quot;coords&quot;:[[187.0, -587.0],[211.5, -589.0]],&quot;certainty&quot;:11]">
    <path clip-path="url(#pfa5ba2d715)" d="M 270.317212 240.104133 
C 273.306248 240.104133 276.173263 239.895226 278.28683 239.523423 
C 280.400398 239.151619 281.587955 238.647275 281.587955 238.121465 
C 281.587955 237.595656 280.400398 237.091311 278.28683 236.719507 
C 276.173263 236.347704 273.306248 236.138798 270.317212 236.138798 
C 267.328176 236.138798 264.461161 236.347704 262.347593 236.719507 
C 260.234026 237.091311 259.046469 237.595656 259.046469 238.121465 
C 259.046469 238.647275 260.234026 239.151619 262.347593 239.523423 
C 264.461161 239.895226 267.328176 240.104133 270.317212 240.104133 
z
" style="fill:#0000ff;opacity:0.2;stroke:#0000ff;stroke-linejoin:miter;stroke-width:2;"/>
   </g>
   <g id="[&quot;g_s&quot;:8,&quot;g_t&quot;:7,&quot;coords&quot;:[[211.5, -589.0],[187.0, -587.0]],&quot;certainty&quot;:11]">
    <path clip-path="url(#pfa5ba2d715)" d="M 316.339411 240.765022 
C 319.328447 240.765022 322.195462 240.556116 324.30903 240.184312 
C 326.422597 239.812509 327.610154 239.308164 327.610154 238.782354 
C 327.610154 238.256545 326.422597 237.7522 324.30903 237.380397 
C 322.195462 237.008593 319.328447 236.799687 316.339411 236.799687 
C 313.350375 236.799687 310.48336 237.008593 308.369793 237.380397 
C 306.256225 237.7522 305.068668 238.256545 305.068668 238.782354 
C 305.068668 239.308164 306.256225 239.812509 308.369793 240.184312 
C 310.48336 240.556116 313.350375 240.765022 316.339411 240.765022 
z
" style="fill:#ff0000;opacity:0.2;stroke:#ff0000;stroke-linejoin:miter;stroke-width:2;"/>
   </g>
   <g id="patch_34">
    <path d="M 270.317212 238.121465 
Q 292.329722 238.43757 312.22113 238.723215 
" style="fill:none;opacity:0.5;stroke:#0000ff;stroke-linecap:round;stroke-width:3;"/>
    <path d="M 310.742823 237.201831 
L 312.22113 238.723215 
L 310.699747 240.201522 
" style="fill:none;opacity:0.5;stroke:#0000ff;stroke-linecap:round;stroke-width:3;"/>
   </g>
   <g id="[&quot;g_s&quot;:8,&quot;g_t&quot;:9,&quot;coords&quot;:[[187.0, -157.0],[211.5, -155.0]],&quot;certainty&quot;:10]">
    <path clip-path="url(#pfa5ba2d715)" d="M 270.317212 97.84773 
C 273.057161 97.84773 275.685259 97.656233 277.622696 97.315413 
C 279.560132 96.974593 280.648726 96.512277 280.648726 96.030285 
C 280.648726 95.548293 279.560132 95.085977 277.622696 94.745157 
C 275.685259 94.404337 273.057161 94.212839 270.317212 94.212839 
C 267.577262 94.212839 264.949165 94.404337 263.011728 94.745157 
C 261.074291 95.085977 259.985698 95.548293 259.985698 96.030285 
C 259.985698 96.512277 261.074291 96.974593 263.011728 97.315413 
C 264.949165 97.656233 267.577262 97.84773 270.317212 97.84773 
z
" style="fill:#0000ff;opacity:0.2;stroke:#0000ff;stroke-linejoin:miter;stroke-width:2;"/>
   </g>
   <g id="[&quot;g_s&quot;:9,&quot;g_t&quot;:8,&quot;coords&quot;:[[211.5, -155.0],[187.0, -157.0]],&quot;certainty&quot;:10]">
    <path clip-path="url(#pfa5ba2d715)" d="M 316.339411 97.186841 
C 319.079361 97.186841 321.707458 96.995343 323.644895 96.654523 
C 325.582332 96.313704 326.670925 95.851388 326.670925 95.369396 
C 326.670925 94.887403 325.582332 94.425088 323.644895 94.084268 
C 321.707458 93.743448 319.079361 93.55195 316.339411 93.55195 
C 313.599462 93.55195 310.971364 93.743448 309.033927 94.084268 
C 307.096491 94.425088 306.007897 94.887403 306.007897 95.369396 
C 306.007897 95.851388 307.096491 96.313704 309.033927 96.654523 
C 310.971364 96.995343 313.599462 97.186841 316.339411 97.186841 
z
" style="fill:#ff0000;opacity:0.2;stroke:#ff0000;stroke-linejoin:miter;stroke-width:2;"/>
   </g>
   <g id="patch_35">
    <path d="M 270.317212 96.030285 
Q 292.329722 95.71418 312.397889 95.425997 
" style="fill:none;opacity:0.5;stroke:#0000ff;stroke-linecap:round;stroke-width:2.75;"/>
    <path d="M 310.876505 93.947689 
L 312.397889 95.425997 
L 310.919582 96.94738 
" style="fill:none;opacity:0.5;stroke:#0000ff;stroke-linecap:round;stroke-width:2.75;"/>
   </g>
   <g id="[&quot;g_s&quot;:9,&quot;g_t&quot;:11,&quot;coords&quot;:[[149.0, 3.0],[173.5, 11.0]],&quot;certainty&quot;:4]">
    <path clip-path="url(#pfa5ba2d715)" d="M 198.935841 43.985259 
C 200.181273 43.985259 201.375863 43.898215 202.256516 43.743297 
C 203.137169 43.588379 203.631984 43.378235 203.631984 43.159148 
C 203.631984 42.940061 203.137169 42.729917 202.256516 42.574999 
C 201.375863 42.420081 200.181273 42.333036 198.935841 42.333036 
C 197.69041 42.333036 196.49582 42.420081 195.615167 42.574999 
C 194.734514 42.729917 194.239699 42.940061 194.239699 43.159148 
C 194.239699 43.378235 194.734514 43.588379 195.615167 43.743297 
C 196.49582 43.898215 197.69041 43.985259 198.935841 43.985259 
z
" style="fill:#0000ff;opacity:0.2;stroke:#0000ff;stroke-linejoin:miter;stroke-width:2;"/>
   </g>
   <g id="[&quot;g_s&quot;:11,&quot;g_t&quot;:9,&quot;coords&quot;:[[173.5, 11.0],[149.0, 3.0]],&quot;certainty&quot;:4]">
    <path clip-path="url(#pfa5ba2d715)" d="M 244.958041 41.341703 
C 246.203472 41.341703 247.398062 41.254658 248.278715 41.09974 
C 249.159368 40.944822 249.654184 40.734678 249.654184 40.515591 
C 249.654184 40.296504 249.159368 40.08636 248.278715 39.931442 
C 247.398062 39.776524 246.203472 39.68948 244.958041 39.68948 
C 243.712609 39.68948 242.518019 39.776524 241.637366 39.931442 
C 240.756713 40.08636 240.261898 40.296504 240.261898 40.515591 
C 240.261898 40.734678 240.756713 40.944822 241.637366 41.09974 
C 242.518019 41.254658 243.712609 41.341703 244.958041 41.341703 
z
" style="fill:#ff0000;opacity:0.2;stroke:#ff0000;stroke-linejoin:miter;stroke-width:2;"/>
   </g>
   <g id="patch_36">
    <path d="M 198.935841 43.159148 
Q 220.948351 41.894729 242.078433 40.680998 
" style="fill:none;opacity:0.5;stroke:#0000ff;stroke-linecap:round;stroke-width:1.25;"/>
    <path d="M 240.494882 39.269486 
L 242.078433 40.680998 
L 240.666921 42.264549 
" style="fill:none;opacity:0.5;stroke:#0000ff;stroke-linecap:round;stroke-width:1.25;"/>
   </g>
   <g id="[&quot;g_s&quot;:10,&quot;g_t&quot;:12,&quot;coords&quot;:[[80.0, 14.0],[84.5, 21.0]],&quot;certainty&quot;:5]">
    <path clip-path="url(#pfa5ba2d715)" d="M 69.3223 40.515591 
C 70.816818 40.515591 72.250326 40.411138 73.30711 40.225236 
C 74.363893 40.039334 74.957672 39.787162 74.957672 39.524257 
C 74.957672 39.261352 74.363893 39.00918 73.30711 38.823278 
C 72.250326 38.637377 70.816818 38.532923 69.3223 38.532923 
C 67.827782 38.532923 66.394275 38.637377 65.337491 38.823278 
C 64.280707 39.00918 63.686929 39.261352 63.686929 39.524257 
C 63.686929 39.787162 64.280707 40.039334 65.337491 40.225236 
C 66.394275 40.411138 67.827782 40.515591 69.3223 40.515591 
z
" style="fill:#0000ff;opacity:0.2;stroke:#0000ff;stroke-linejoin:miter;stroke-width:2;"/>
   </g>
   <g id="[&quot;g_s&quot;:12,&quot;g_t&quot;:10,&quot;coords&quot;:[[84.5, 21.0],[80.0, 14.0]],&quot;certainty&quot;:5]">
    <path clip-path="url(#pfa5ba2d715)" d="M 77.775357 38.202479 
C 79.269875 38.202479 80.703383 38.098026 81.760167 37.912124 
C 82.81695 37.726222 83.410729 37.47405 83.410729 37.211145 
C 83.410729 36.94824 82.81695 36.696068 81.760167 36.510166 
C 80.703383 36.324264 79.269875 36.219811 77.775357 36.219811 
C 76.280839 36.219811 74.847332 36.324264 73.790548 36.510166 
C 72.733764 36.696068 72.139986 36.94824 72.139986 37.211145 
C 72.139986 37.47405 72.733764 37.726222 73.790548 37.912124 
C 74.847332 38.098026 76.280839 38.202479 77.775357 38.202479 
z
" style="fill:#ff0000;opacity:0.2;stroke:#ff0000;stroke-linejoin:miter;stroke-width:2;"/>
   </g>
   <g id="patch_37">
    <path d="M 69.3223 39.524257 
Q 72.585065 38.631428 74.824781 38.018547 
" style="fill:none;opacity:0.5;stroke:#0000ff;stroke-linecap:round;stroke-width:1.5;"/>
    <path d="M 72.982063 36.967646 
L 74.824781 38.018547 
L 73.773879 39.861264 
" style="fill:none;opacity:0.5;stroke:#0000ff;stroke-linecap:round;stroke-width:1.5;"/>
   </g>
   <g id="[&quot;g_s&quot;:11,&quot;g_t&quot;:13,&quot;coords&quot;:[[81.0, 45.0],[85.5, 43.0]],&quot;certainty&quot;:11]">
    <path clip-path="url(#pfa5ba2d715)" d="M 71.200757 31.263142 
C 74.189793 31.263142 77.056808 31.054236 79.170376 30.682432 
C 81.283944 30.310629 82.4715 29.806284 82.4715 29.280474 
C 82.4715 28.754665 81.283944 28.25032 79.170376 27.878517 
C 77.056808 27.506713 74.189793 27.297807 71.200757 27.297807 
C 68.211721 27.297807 65.344706 27.506713 63.231139 27.878517 
C 61.117571 28.25032 59.930015 28.754665 59.930015 29.280474 
C 59.930015 29.806284 61.117571 30.310629 63.231139 30.682432 
C 65.344706 31.054236 68.211721 31.263142 71.200757 31.263142 
z
" style="fill:#0000ff;opacity:0.2;stroke:#0000ff;stroke-linejoin:miter;stroke-width:2;"/>
   </g>
   <g id="[&quot;g_s&quot;:13,&quot;g_t&quot;:11,&quot;coords&quot;:[[85.5, 43.0],[81.0, 45.0]],&quot;certainty&quot;:11]">
    <path clip-path="url(#pfa5ba2d715)" d="M 79.653814 31.924031 
C 82.64285 31.924031 85.509865 31.715125 87.623433 31.343321 
C 89.737001 30.971518 90.924557 30.467173 90.924557 29.941364 
C 90.924557 29.415554 89.737001 28.911209 87.623433 28.539406 
C 85.509865 28.167602 82.64285 27.958696 79.653814 27.958696 
C 76.664779 27.958696 73.797763 28.167602 71.684196 28.539406 
C 69.570628 28.911209 68.383072 29.415554 68.383072 29.941364 
C 68.383072 30.467173 69.570628 30.971518 71.684196 31.343321 
C 73.797763 31.715125 76.664779 31.924031 79.653814 31.924031 
z
" style="fill:#ff0000;opacity:0.2;stroke:#ff0000;stroke-linejoin:miter;stroke-width:2;"/>
   </g>
   <g id="patch_38">
    <path d="M 71.200757 29.280474 
Q 74.430502 29.532987 75.54538 29.620152 
" style="fill:none;opacity:0.5;stroke:#0000ff;stroke-linecap:round;stroke-width:3;"/>
    <path d="M 74.166862 28.007797 
L 75.54538 29.620152 
L 73.933025 30.99867 
" style="fill:none;opacity:0.5;stroke:#0000ff;stroke-linecap:round;stroke-width:3;"/>
   </g>
   <g id="[&quot;g_s&quot;:12,&quot;g_t&quot;:14,&quot;coords&quot;:[[191.0, 49.0],[195.5, 46.0]],&quot;certainty&quot;:11]">
    <path clip-path="url(#pfa5ba2d715)" d="M 277.83104 29.941364 
C 280.820076 29.941364 283.687091 29.732457 285.800659 29.360654 
C 287.914226 28.98885 289.101783 28.484506 289.101783 27.958696 
C 289.101783 27.432886 287.914226 26.928542 285.800659 26.556738 
C 283.687091 26.184935 280.820076 25.976028 277.83104 25.976028 
C 274.842004 25.976028 271.974989 26.184935 269.861422 26.556738 
C 267.747854 26.928542 266.560298 27.432886 266.560298 27.958696 
C 266.560298 28.484506 267.747854 28.98885 269.861422 29.360654 
C 271.974989 29.732457 274.842004 29.941364 277.83104 29.941364 
z
" style="fill:#0000ff;opacity:0.2;stroke:#0000ff;stroke-linejoin:miter;stroke-width:2;"/>
   </g>
   <g id="[&quot;g_s&quot;:14,&quot;g_t&quot;:12,&quot;coords&quot;:[[195.5, 46.0],[191.0, 49.0]],&quot;certainty&quot;:11]">
    <path clip-path="url(#pfa5ba2d715)" d="M 286.284097 30.932697 
C 289.273133 30.932697 292.140148 30.723791 294.253716 30.351988 
C 296.367283 29.980184 297.55484 29.475839 297.55484 28.95003 
C 297.55484 28.42422 296.367283 27.919876 294.253716 27.548072 
C 292.140148 27.176269 289.273133 26.967362 286.284097 26.967362 
C 283.295061 26.967362 280.428046 27.176269 278.314479 27.548072 
C 276.200911 27.919876 275.013355 28.42422 275.013355 28.95003 
C 275.013355 29.475839 276.200911 29.980184 278.314479 30.351988 
C 280.428046 30.723791 283.295061 30.932697 286.284097 30.932697 
z
" style="fill:#ff0000;opacity:0.2;stroke:#ff0000;stroke-linejoin:miter;stroke-width:2;"/>
   </g>
   <g id="patch_39">
    <path d="M 277.83104 27.958696 
Q 281.064912 28.337949 282.191903 28.470117 
" style="fill:none;opacity:0.5;stroke:#0000ff;stroke-linecap:round;stroke-width:3;"/>
    <path d="M 280.876829 26.805612 
L 282.191903 28.470117 
L 280.527398 29.785192 
" style="fill:none;opacity:0.5;stroke:#0000ff;stroke-linecap:round;stroke-width:3;"/>
   </g>
   <g id="[&quot;g_s&quot;:3,&quot;g_t&quot;:3,&quot;coords&quot;:[[195.5, -790.0],[191.0, -793.0]],&quot;certainty&quot;:4]">
    <path clip-path="url(#pfa5ba2d715)" d="M 286.284097 306.027832 
C 287.529529 306.027832 288.724119 305.940787 289.604772 305.785869 
C 290.485425 305.630951 290.98024 305.420807 290.98024 305.20172 
C 290.98024 304.982633 290.485425 304.772489 289.604772 304.617571 
C 288.724119 304.462653 287.529529 304.375609 286.284097 304.375609 
C 285.038666 304.375609 283.844076 304.462653 282.963423 304.617571 
C 282.08277 304.772489 281.587955 304.982633 281.587955 305.20172 
C 281.587955 305.420807 282.08277 305.630951 282.963423 305.785869 
C 283.844076 305.940787 285.038666 306.027832 286.284097 306.027832 
z
" style="fill:#0000ff;opacity:0.2;stroke:#0000ff;stroke-linejoin:miter;stroke-width:2;"/>
   </g>
   <g id="[&quot;g_s&quot;:3,&quot;g_t&quot;:3,&quot;coords&quot;:[[191.0, -793.0],[195.5, -790.0]],&quot;certainty&quot;:4]">
    <path clip-path="url(#pfa5ba2d715)" d="M 277.83104 307.019165 
C 279.076472 307.019165 280.271062 306.932121 281.151715 306.777203 
C 282.032368 306.622285 282.527183 306.412141 282.527183 306.193054 
C 282.527183 305.973967 282.032368 305.763823 281.151715 305.608905 
C 280.271062 305.453987 279.076472 305.366942 277.83104 305.366942 
C 276.585609 305.366942 275.391019 305.453987 274.510366 305.608905 
C 273.629713 305.763823 273.134897 305.973967 273.134897 306.193054 
C 273.134897 306.412141 273.629713 306.622285 274.510366 306.777203 
C 275.391019 306.932121 276.585609 307.019165 277.83104 307.019165 
z
" style="fill:#ff0000;opacity:0.2;stroke:#ff0000;stroke-linejoin:miter;stroke-width:2;"/>
   </g>
   <g id="patch_40">
    <path d="M 286.284097 305.20172 
Q 283.050225 305.580973 280.69422 305.857274 
" style="fill:none;opacity:0.5;stroke:#ff0000;stroke-linecap:round;stroke-width:1.25;"/>
    <path d="M 282.358726 307.172349 
L 280.69422 305.857274 
L 282.009295 304.192769 
" style="fill:none;opacity:0.5;stroke:#ff0000;stroke-linecap:round;stroke-width:1.25;"/>
   </g>
   <g id="[&quot;g_s&quot;:4,&quot;g_t&quot;:4,&quot;coords&quot;:[[85.5, -787.0],[81.0, -789.0]],&quot;certainty&quot;:11]">
    <path clip-path="url(#pfa5ba2d715)" d="M 79.653814 306.193054 
C 82.64285 306.193054 85.509865 305.984148 87.623433 305.612344 
C 89.737001 305.240541 90.924557 304.736196 90.924557 304.210386 
C 90.924557 303.684577 89.737001 303.180232 87.623433 302.808429 
C 85.509865 302.436625 82.64285 302.227719 79.653814 302.227719 
C 76.664779 302.227719 73.797763 302.436625 71.684196 302.808429 
C 69.570628 303.180232 68.383072 303.684577 68.383072 304.210386 
C 68.383072 304.736196 69.570628 305.240541 71.684196 305.612344 
C 73.797763 305.984148 76.664779 306.193054 79.653814 306.193054 
z
" style="fill:#0000ff;opacity:0.2;stroke:#0000ff;stroke-linejoin:miter;stroke-width:2;"/>
   </g>
   <g id="[&quot;g_s&quot;:4,&quot;g_t&quot;:4,&quot;coords&quot;:[[81.0, -789.0],[85.5, -787.0]],&quot;certainty&quot;:11]">
    <path clip-path="url(#pfa5ba2d715)" d="M 71.200757 306.853943 
C 74.189793 306.853943 77.056808 306.645037 79.170376 306.273233 
C 81.283944 305.90143 82.4715 305.397085 82.4715 304.871276 
C 82.4715 304.345466 81.283944 303.841121 79.170376 303.469318 
C 77.056808 303.097514 74.189793 302.888608 71.200757 302.888608 
C 68.211721 302.888608 65.344706 303.097514 63.231139 303.469318 
C 61.117571 303.841121 59.930015 304.345466 59.930015 304.871276 
C 59.930015 305.397085 61.117571 305.90143 63.231139 306.273233 
C 65.344706 306.645037 68.211721 306.853943 71.200757 306.853943 
z
" style="fill:#ff0000;opacity:0.2;stroke:#ff0000;stroke-linejoin:miter;stroke-width:2;"/>
   </g>
   <g id="patch_41">
    <path d="M 79.653814 304.210386 
Q 76.42407 304.462899 75.309192 304.550064 
" style="fill:none;opacity:0.5;stroke:#ff0000;stroke-linecap:round;stroke-width:3;"/>
    <path d="M 76.921546 305.928582 
L 75.309192 304.550064 
L 76.68771 302.937709 
" style="fill:none;opacity:0.5;stroke:#ff0000;stroke-linecap:round;stroke-width:3;"/>
   </g>
   <g id="[&quot;g_s&quot;:5,&quot;g_t&quot;:5,&quot;coords&quot;:[[84.5, -765.0],[80.0, -758.0]],&quot;certainty&quot;:6]">
    <path clip-path="url(#pfa5ba2d715)" d="M 77.775357 298.097161 
C 79.518962 298.097161 81.191387 297.975299 82.424301 297.758414 
C 83.657216 297.541528 84.349957 297.247327 84.349957 296.940605 
C 84.349957 296.633883 83.657216 296.339682 82.424301 296.122796 
C 81.191387 295.905911 79.518962 295.784049 77.775357 295.784049 
C 76.031753 295.784049 74.359328 295.905911 73.126413 296.122796 
C 71.893499 296.339682 71.200757 296.633883 71.200757 296.940605 
C 71.200757 297.247327 71.893499 297.541528 73.126413 297.758414 
C 74.359328 297.975299 76.031753 298.097161 77.775357 298.097161 
z
" style="fill:#0000ff;opacity:0.2;stroke:#0000ff;stroke-linejoin:miter;stroke-width:2;"/>
   </g>
   <g id="[&quot;g_s&quot;:5,&quot;g_t&quot;:5,&quot;coords&quot;:[[80.0, -758.0],[84.5, -765.0]],&quot;certainty&quot;:6]">
    <path clip-path="url(#pfa5ba2d715)" d="M 69.3223 295.784049 
C 71.065905 295.784049 72.73833 295.662187 73.971244 295.445301 
C 75.204159 295.228416 75.8969 294.934215 75.8969 294.627493 
C 75.8969 294.320771 75.204159 294.026569 73.971244 293.809684 
C 72.73833 293.592799 71.065905 293.470937 69.3223 293.470937 
C 67.578696 293.470937 65.906271 293.592799 64.673356 293.809684 
C 63.440442 294.026569 62.7477 294.320771 62.7477 294.627493 
C 62.7477 294.934215 63.440442 295.228416 64.673356 295.445301 
C 65.906271 295.662187 67.578696 295.784049 69.3223 295.784049 
z
" style="fill:#ff0000;opacity:0.2;stroke:#ff0000;stroke-linejoin:miter;stroke-width:2;"/>
   </g>
   <g id="patch_42">
    <path d="M 77.775357 296.940605 
Q 74.512593 296.047775 72.443385 295.481553 
" style="fill:none;opacity:0.5;stroke:#ff0000;stroke-linecap:round;stroke-width:1.75;"/>
    <path d="M 73.494286 297.32427 
L 72.443385 295.481553 
L 74.286102 294.430652 
" style="fill:none;opacity:0.5;stroke:#ff0000;stroke-linecap:round;stroke-width:1.75;"/>
   </g>
   <g id="[&quot;g_s&quot;:6,&quot;g_t&quot;:6,&quot;coords&quot;:[[173.5, -755.0],[149.0, -747.0]],&quot;certainty&quot;:5]">
    <path clip-path="url(#pfa5ba2d715)" d="M 244.958041 294.627493 
C 246.452559 294.627493 247.886066 294.52304 248.94285 294.337138 
C 249.999634 294.151236 250.593412 293.899064 250.593412 293.636159 
C 250.593412 293.373254 249.999634 293.121082 248.94285 292.93518 
C 247.886066 292.749278 246.452559 292.644825 244.958041 292.644825 
C 243.463523 292.644825 242.030015 292.749278 240.973231 292.93518 
C 239.916448 293.121082 239.322669 293.373254 239.322669 293.636159 
C 239.322669 293.899064 239.916448 294.151236 240.973231 294.337138 
C 242.030015 294.52304 243.463523 294.627493 244.958041 294.627493 
z
" style="fill:#0000ff;opacity:0.2;stroke:#0000ff;stroke-linejoin:miter;stroke-width:2;"/>
   </g>
   <g id="[&quot;g_s&quot;:6,&quot;g_t&quot;:6,&quot;coords&quot;:[[149.0, -747.0],[173.5, -755.0]],&quot;certainty&quot;:5]">
    <path clip-path="url(#pfa5ba2d715)" d="M 198.935841 291.983936 
C 200.430359 291.983936 201.863867 291.879483 202.920651 291.693581 
C 203.977434 291.507679 204.571213 291.255507 204.571213 290.992602 
C 204.571213 290.729697 203.977434 290.477525 202.920651 290.291623 
C 201.863867 290.105721 200.430359 290.001268 198.935841 290.001268 
C 197.441323 290.001268 196.007816 290.105721 194.951032 290.291623 
C 193.894248 290.477525 193.30047 290.729697 193.30047 290.992602 
C 193.30047 291.255507 193.894248 291.507679 194.951032 291.693581 
C 196.007816 291.879483 197.441323 291.983936 198.935841 291.983936 
z
" style="fill:#ff0000;opacity:0.2;stroke:#ff0000;stroke-linejoin:miter;stroke-width:2;"/>
   </g>
   <g id="patch_43">
    <path d="M 244.958041 293.636159 
Q 222.945531 292.37174 201.991935 291.168147 
" style="fill:none;opacity:0.5;stroke:#ff0000;stroke-linecap:round;stroke-width:1.5;"/>
    <path d="M 203.403447 292.751698 
L 201.991935 291.168147 
L 203.575486 289.756635 
" style="fill:none;opacity:0.5;stroke:#ff0000;stroke-linecap:round;stroke-width:1.5;"/>
   </g>
   <g id="[&quot;g_s&quot;:7,&quot;g_t&quot;:3,&quot;coords&quot;:[[198.5, -745.0],[191.0, -793.0]],&quot;certainty&quot;:2]">
    <path clip-path="url(#pfa5ba2d715)" d="M 291.919469 290.82738 
C 292.666728 290.82738 293.383481 290.775153 293.911873 290.682202 
C 294.440265 290.589251 294.737154 290.463165 294.737154 290.331713 
C 294.737154 290.20026 294.440265 290.074174 293.911873 289.981223 
C 293.383481 289.888273 292.666728 289.836046 291.919469 289.836046 
C 291.17221 289.836046 290.455456 289.888273 289.927064 289.981223 
C 289.398672 290.074174 289.101783 290.20026 289.101783 290.331713 
C 289.101783 290.463165 289.398672 290.589251 289.927064 290.682202 
C 290.455456 290.775153 291.17221 290.82738 291.919469 290.82738 
z
" style="fill:#0000ff;opacity:0.2;stroke:#0000ff;stroke-linejoin:miter;stroke-width:2;"/>
   </g>
   <g id="[&quot;g_s&quot;:3,&quot;g_t&quot;:7,&quot;coords&quot;:[[191.0, -793.0],[198.5, -745.0]],&quot;certainty&quot;:2]">
    <path clip-path="url(#pfa5ba2d715)" d="M 277.83104 306.688721 
C 278.578299 306.688721 279.295053 306.636494 279.823445 306.543543 
C 280.351837 306.450593 280.648726 306.324506 280.648726 306.193054 
C 280.648726 306.061602 280.351837 305.935515 279.823445 305.842565 
C 279.295053 305.749614 278.578299 305.697387 277.83104 305.697387 
C 277.083781 305.697387 276.367028 305.749614 275.838636 305.842565 
C 275.310244 305.935515 275.013355 306.061602 275.013355 306.193054 
C 275.013355 306.324506 275.310244 306.450593 275.838636 306.543543 
C 276.367028 306.636494 277.083781 306.688721 277.83104 306.688721 
z
" style="fill:#ff0000;opacity:0.2;stroke:#ff0000;stroke-linejoin:miter;stroke-width:2;"/>
   </g>
   <g id="patch_44">
    <path d="M 291.919469 290.331713 
Q 285.539949 297.514043 279.512614 304.299868 
" style="fill:none;opacity:0.5;stroke:#ff0000;stroke-linecap:round;stroke-width:0.75;"/>
    <path d="M 281.630228 304.174513 
L 279.512614 304.299868 
L 279.38726 302.182254 
" style="fill:none;opacity:0.5;stroke:#ff0000;stroke-linecap:round;stroke-width:0.75;"/>
   </g>
   <g id="[&quot;g_s&quot;:8,&quot;g_t&quot;:7,&quot;coords&quot;:[[211.5, -589.0],[187.0, -587.0]],&quot;certainty&quot;:11]">
    <path clip-path="url(#pfa5ba2d715)" d="M 316.339411 240.765022 
C 319.328447 240.765022 322.195462 240.556116 324.30903 240.184312 
C 326.422597 239.812509 327.610154 239.308164 327.610154 238.782354 
C 327.610154 238.256545 326.422597 237.7522 324.30903 237.380397 
C 322.195462 237.008593 319.328447 236.799687 316.339411 236.799687 
C 313.350375 236.799687 310.48336 237.008593 308.369793 237.380397 
C 306.256225 237.7522 305.068668 238.256545 305.068668 238.782354 
C 305.068668 239.308164 306.256225 239.812509 308.369793 240.184312 
C 310.48336 240.556116 313.350375 240.765022 316.339411 240.765022 
z
" style="fill:#0000ff;opacity:0.2;stroke:#0000ff;stroke-linejoin:miter;stroke-width:2;"/>
   </g>
   <g id="[&quot;g_s&quot;:7,&quot;g_t&quot;:8,&quot;coords&quot;:[[187.0, -587.0],[211.5, -589.0]],&quot;certainty&quot;:11]">
    <path clip-path="url(#pfa5ba2d715)" d="M 270.317212 240.104133 
C 273.306248 240.104133 276.173263 239.895226 278.28683 239.523423 
C 280.400398 239.151619 281.587955 238.647275 281.587955 238.121465 
C 281.587955 237.595656 280.400398 237.091311 278.28683 236.719507 
C 276.173263 236.347704 273.306248 236.138798 270.317212 236.138798 
C 267.328176 236.138798 264.461161 236.347704 262.347593 236.719507 
C 260.234026 237.091311 259.046469 237.595656 259.046469 238.121465 
C 259.046469 238.647275 260.234026 239.151619 262.347593 239.523423 
C 264.461161 239.895226 267.328176 240.104133 270.317212 240.104133 
z
" style="fill:#ff0000;opacity:0.2;stroke:#ff0000;stroke-linejoin:miter;stroke-width:2;"/>
   </g>
   <g id="patch_45">
    <path d="M 316.339411 238.782354 
Q 294.326901 238.46625 274.435493 238.180605 
" style="fill:none;opacity:0.5;stroke:#ff0000;stroke-linecap:round;stroke-width:3;"/>
    <path d="M 275.9138 239.701988 
L 274.435493 238.180605 
L 275.956876 236.702297 
" style="fill:none;opacity:0.5;stroke:#ff0000;stroke-linecap:round;stroke-width:3;"/>
   </g>
   <g id="[&quot;g_s&quot;:9,&quot;g_t&quot;:8,&quot;coords&quot;:[[211.5, -155.0],[187.0, -157.0]],&quot;certainty&quot;:4]">
    <path clip-path="url(#pfa5ba2d715)" d="M 316.339411 96.195507 
C 317.584843 96.195507 318.779432 96.108463 319.660086 95.953545 
C 320.540739 95.798626 321.035554 95.588483 321.035554 95.369396 
C 321.035554 95.150308 320.540739 94.940165 319.660086 94.785247 
C 318.779432 94.630328 317.584843 94.543284 316.339411 94.543284 
C 315.09398 94.543284 313.89939 94.630328 313.018737 94.785247 
C 312.138084 94.940165 311.643268 95.150308 311.643268 95.369396 
C 311.643268 95.588483 312.138084 95.798626 313.018737 95.953545 
C 313.89939 96.108463 315.09398 96.195507 316.339411 96.195507 
z
" style="fill:#0000ff;opacity:0.2;stroke:#0000ff;stroke-linejoin:miter;stroke-width:2;"/>
   </g>
   <g id="[&quot;g_s&quot;:8,&quot;g_t&quot;:9,&quot;coords&quot;:[[187.0, -157.0],[211.5, -155.0]],&quot;certainty&quot;:4]">
    <path clip-path="url(#pfa5ba2d715)" d="M 270.317212 96.856396 
C 271.562643 96.856396 272.757233 96.769352 273.637886 96.614434 
C 274.518539 96.459516 275.013355 96.249372 275.013355 96.030285 
C 275.013355 95.811197 274.518539 95.601054 273.637886 95.446136 
C 272.757233 95.291218 271.562643 95.204173 270.317212 95.204173 
C 269.07178 95.204173 267.877191 95.291218 266.996537 95.446136 
C 266.115884 95.601054 265.621069 95.811197 265.621069 96.030285 
C 265.621069 96.249372 266.115884 96.459516 266.996537 96.614434 
C 267.877191 96.769352 269.07178 96.856396 270.317212 96.856396 
z
" style="fill:#ff0000;opacity:0.2;stroke:#ff0000;stroke-linejoin:miter;stroke-width:2;"/>
   </g>
   <g id="patch_46">
    <path d="M 316.339411 95.369396 
Q 294.326901 95.6855 273.198183 95.988913 
" style="fill:none;opacity:0.5;stroke:#ff0000;stroke-linecap:round;stroke-width:1.25;"/>
    <path d="M 274.719567 97.467221 
L 273.198183 95.988913 
L 274.676491 94.46753 
" style="fill:none;opacity:0.5;stroke:#ff0000;stroke-linecap:round;stroke-width:1.25;"/>
   </g>
   <g id="[&quot;g_s&quot;:10,&quot;g_t&quot;:12,&quot;coords&quot;:[[198.5, 1.0],[191.0, 49.0]],&quot;certainty&quot;:5]">
    <path clip-path="url(#pfa5ba2d715)" d="M 291.919469 44.811371 
C 293.413987 44.811371 294.847494 44.706918 295.904278 44.521016 
C 296.961062 44.335114 297.55484 44.082942 297.55484 43.820037 
C 297.55484 43.557132 296.961062 43.30496 295.904278 43.119058 
C 294.847494 42.933156 293.413987 42.828703 291.919469 42.828703 
C 290.424951 42.828703 288.991443 42.933156 287.934659 43.119058 
C 286.877876 43.30496 286.284097 43.557132 286.284097 43.820037 
C 286.284097 44.082942 286.877876 44.335114 287.934659 44.521016 
C 288.991443 44.706918 290.424951 44.811371 291.919469 44.811371 
z
" style="fill:#0000ff;opacity:0.2;stroke:#0000ff;stroke-linejoin:miter;stroke-width:2;"/>
   </g>
   <g id="[&quot;g_s&quot;:12,&quot;g_t&quot;:10,&quot;coords&quot;:[[191.0, 49.0],[198.5, 1.0]],&quot;certainty&quot;:5]">
    <path clip-path="url(#pfa5ba2d715)" d="M 277.83104 28.95003 
C 279.325558 28.95003 280.759066 28.845577 281.81585 28.659675 
C 282.872633 28.473773 283.466412 28.221601 283.466412 27.958696 
C 283.466412 27.695791 282.872633 27.443619 281.81585 27.257717 
C 280.759066 27.071815 279.325558 26.967362 277.83104 26.967362 
C 276.336522 26.967362 274.903015 27.071815 273.846231 27.257717 
C 272.789447 27.443619 272.195669 27.695791 272.195669 27.958696 
C 272.195669 28.221601 272.789447 28.473773 273.846231 28.659675 
C 274.903015 28.845577 276.336522 28.95003 277.83104 28.95003 
z
" style="fill:#ff0000;opacity:0.2;stroke:#ff0000;stroke-linejoin:miter;stroke-width:2;"/>
   </g>
   <g id="patch_47">
    <path d="M 291.919469 43.820037 
Q 285.539949 36.637707 279.864799 30.248387 
" style="fill:none;opacity:0.5;stroke:#ff0000;stroke-linecap:round;stroke-width:1.5;"/>
    <path d="M 279.739444 32.366 
L 279.864799 30.248387 
L 281.982412 30.373741 
" style="fill:none;opacity:0.5;stroke:#ff0000;stroke-linecap:round;stroke-width:1.5;"/>
   </g>
   <g id="[&quot;g_s&quot;:11,&quot;g_t&quot;:9,&quot;coords&quot;:[[173.5, 11.0],[149.0, 3.0]],&quot;certainty&quot;:6]">
    <path clip-path="url(#pfa5ba2d715)" d="M 244.958041 41.672147 
C 246.701645 41.672147 248.374071 41.550285 249.606985 41.3334 
C 250.839899 41.116514 251.532641 40.822313 251.532641 40.515591 
C 251.532641 40.208869 250.839899 39.914668 249.606985 39.697782 
C 248.374071 39.480897 246.701645 39.359035 244.958041 39.359035 
C 243.214436 39.359035 241.542011 39.480897 240.309097 39.697782 
C 239.076182 39.914668 238.383441 40.208869 238.383441 40.515591 
C 238.383441 40.822313 239.076182 41.116514 240.309097 41.3334 
C 241.542011 41.550285 243.214436 41.672147 244.958041 41.672147 
z
" style="fill:#0000ff;opacity:0.2;stroke:#0000ff;stroke-linejoin:miter;stroke-width:2;"/>
   </g>
   <g id="[&quot;g_s&quot;:9,&quot;g_t&quot;:11,&quot;coords&quot;:[[149.0, 3.0],[173.5, 11.0]],&quot;certainty&quot;:6]">
    <path clip-path="url(#pfa5ba2d715)" d="M 198.935841 44.315704 
C 200.679446 44.315704 202.351871 44.193842 203.584786 43.976957 
C 204.8177 43.760071 205.510441 43.46587 205.510441 43.159148 
C 205.510441 42.852426 204.8177 42.558225 203.584786 42.341339 
C 202.351871 42.124454 200.679446 42.002592 198.935841 42.002592 
C 197.192237 42.002592 195.519812 42.124454 194.286897 42.341339 
C 193.053983 42.558225 192.361241 42.852426 192.361241 43.159148 
C 192.361241 43.46587 193.053983 43.760071 194.286897 43.976957 
C 195.519812 44.193842 197.192237 44.315704 198.935841 44.315704 
z
" style="fill:#ff0000;opacity:0.2;stroke:#ff0000;stroke-linejoin:miter;stroke-width:2;"/>
   </g>
   <g id="patch_48">
    <path d="M 244.958041 40.515591 
Q 222.945531 41.78001 202.168421 42.973466 
" style="fill:none;opacity:0.5;stroke:#ff0000;stroke-linecap:round;stroke-width:1.75;"/>
    <path d="M 203.751972 44.384978 
L 202.168421 42.973466 
L 203.579933 41.389915 
" style="fill:none;opacity:0.5;stroke:#ff0000;stroke-linecap:round;stroke-width:1.75;"/>
   </g>
   <g id="[&quot;g_s&quot;:12,&quot;g_t&quot;:10,&quot;coords&quot;:[[84.5, 21.0],[80.0, 14.0]],&quot;certainty&quot;:6]">
    <path clip-path="url(#pfa5ba2d715)" d="M 77.775357 38.367701 
C 79.518962 38.367701 81.191387 38.245839 82.424301 38.028954 
C 83.657216 37.812068 84.349957 37.517867 84.349957 37.211145 
C 84.349957 36.904423 83.657216 36.610222 82.424301 36.393336 
C 81.191387 36.176451 79.518962 36.054589 77.775357 36.054589 
C 76.031753 36.054589 74.359328 36.176451 73.126413 36.393336 
C 71.893499 36.610222 71.200757 36.904423 71.200757 37.211145 
C 71.200757 37.517867 71.893499 37.812068 73.126413 38.028954 
C 74.359328 38.245839 76.031753 38.367701 77.775357 38.367701 
z
" style="fill:#0000ff;opacity:0.2;stroke:#0000ff;stroke-linejoin:miter;stroke-width:2;"/>
   </g>
   <g id="[&quot;g_s&quot;:10,&quot;g_t&quot;:12,&quot;coords&quot;:[[80.0, 14.0],[84.5, 21.0]],&quot;certainty&quot;:6]">
    <path clip-path="url(#pfa5ba2d715)" d="M 69.3223 40.680813 
C 71.065905 40.680813 72.73833 40.558951 73.971244 40.342066 
C 75.204159 40.125181 75.8969 39.830979 75.8969 39.524257 
C 75.8969 39.217535 75.204159 38.923334 73.971244 38.706449 
C 72.73833 38.489563 71.065905 38.367701 69.3223 38.367701 
C 67.578696 38.367701 65.906271 38.489563 64.673356 38.706449 
C 63.440442 38.923334 62.7477 39.217535 62.7477 39.524257 
C 62.7477 39.830979 63.440442 40.125181 64.673356 40.342066 
C 65.906271 40.558951 67.578696 40.680813 69.3223 40.680813 
z
" style="fill:#ff0000;opacity:0.2;stroke:#ff0000;stroke-linejoin:miter;stroke-width:2;"/>
   </g>
   <g id="patch_49">
    <path d="M 77.775357 37.211145 
Q 74.512593 38.103975 72.443385 38.670197 
" style="fill:none;opacity:0.5;stroke:#ff0000;stroke-linecap:round;stroke-width:1.75;"/>
    <path d="M 74.286102 39.721098 
L 72.443385 38.670197 
L 73.494286 36.82748 
" style="fill:none;opacity:0.5;stroke:#ff0000;stroke-linecap:round;stroke-width:1.75;"/>
   </g>
   <g id="[&quot;g_s&quot;:13,&quot;g_t&quot;:11,&quot;coords&quot;:[[85.5, 43.0],[81.0, 45.0]],&quot;certainty&quot;:11]">
    <path clip-path="url(#pfa5ba2d715)" d="M 79.653814 31.924031 
C 82.64285 31.924031 85.509865 31.715125 87.623433 31.343321 
C 89.737001 30.971518 90.924557 30.467173 90.924557 29.941364 
C 90.924557 29.415554 89.737001 28.911209 87.623433 28.539406 
C 85.509865 28.167602 82.64285 27.958696 79.653814 27.958696 
C 76.664779 27.958696 73.797763 28.167602 71.684196 28.539406 
C 69.570628 28.911209 68.383072 29.415554 68.383072 29.941364 
C 68.383072 30.467173 69.570628 30.971518 71.684196 31.343321 
C 73.797763 31.715125 76.664779 31.924031 79.653814 31.924031 
z
" style="fill:#0000ff;opacity:0.2;stroke:#0000ff;stroke-linejoin:miter;stroke-width:2;"/>
   </g>
   <g id="[&quot;g_s&quot;:11,&quot;g_t&quot;:13,&quot;coords&quot;:[[81.0, 45.0],[85.5, 43.0]],&quot;certainty&quot;:11]">
    <path clip-path="url(#pfa5ba2d715)" d="M 71.200757 31.263142 
C 74.189793 31.263142 77.056808 31.054236 79.170376 30.682432 
C 81.283944 30.310629 82.4715 29.806284 82.4715 29.280474 
C 82.4715 28.754665 81.283944 28.25032 79.170376 27.878517 
C 77.056808 27.506713 74.189793 27.297807 71.200757 27.297807 
C 68.211721 27.297807 65.344706 27.506713 63.231139 27.878517 
C 61.117571 28.25032 59.930015 28.754665 59.930015 29.280474 
C 59.930015 29.806284 61.117571 30.310629 63.231139 30.682432 
C 65.344706 31.054236 68.211721 31.263142 71.200757 31.263142 
z
" style="fill:#ff0000;opacity:0.2;stroke:#ff0000;stroke-linejoin:miter;stroke-width:2;"/>
   </g>
   <g id="patch_50">
    <path d="M 79.653814 29.941364 
Q 76.42407 29.688851 75.309192 29.601686 
" style="fill:none;opacity:0.5;stroke:#ff0000;stroke-linecap:round;stroke-width:3;"/>
    <path d="M 76.68771 31.214041 
L 75.309192 29.601686 
L 76.921546 28.223168 
" style="fill:none;opacity:0.5;stroke:#ff0000;stroke-linecap:round;stroke-width:3;"/>
   </g>
   <g id="[&quot;g_s&quot;:14,&quot;g_t&quot;:12,&quot;coords&quot;:[[195.5, 46.0],[191.0, 49.0]],&quot;certainty&quot;:11]">
    <path clip-path="url(#pfa5ba2d715)" d="M 286.284097 30.932697 
C 289.273133 30.932697 292.140148 30.723791 294.253716 30.351988 
C 296.367283 29.980184 297.55484 29.475839 297.55484 28.95003 
C 297.55484 28.42422 296.367283 27.919876 294.253716 27.548072 
C 292.140148 27.176269 289.273133 26.967362 286.284097 26.967362 
C 283.295061 26.967362 280.428046 27.176269 278.314479 27.548072 
C 276.200911 27.919876 275.013355 28.42422 275.013355 28.95003 
C 275.013355 29.475839 276.200911 29.980184 278.314479 30.351988 
C 280.428046 30.723791 283.295061 30.932697 286.284097 30.932697 
z
" style="fill:#0000ff;opacity:0.2;stroke:#0000ff;stroke-linejoin:miter;stroke-width:2;"/>
   </g>
   <g id="[&quot;g_s&quot;:12,&quot;g_t&quot;:14,&quot;coords&quot;:[[191.0, 49.0],[195.5, 46.0]],&quot;certainty&quot;:11]">
    <path clip-path="url(#pfa5ba2d715)" d="M 277.83104 29.941364 
C 280.820076 29.941364 283.687091 29.732457 285.800659 29.360654 
C 287.914226 28.98885 289.101783 28.484506 289.101783 27.958696 
C 289.101783 27.432886 287.914226 26.928542 285.800659 26.556738 
C 283.687091 26.184935 280.820076 25.976028 277.83104 25.976028 
C 274.842004 25.976028 271.974989 26.184935 269.861422 26.556738 
C 267.747854 26.928542 266.560298 27.432886 266.560298 27.958696 
C 266.560298 28.484506 267.747854 28.98885 269.861422 29.360654 
C 271.974989 29.732457 274.842004 29.941364 277.83104 29.941364 
z
" style="fill:#ff0000;opacity:0.2;stroke:#ff0000;stroke-linejoin:miter;stroke-width:2;"/>
   </g>
   <g id="patch_51">
    <path d="M 286.284097 28.95003 
Q 283.050225 28.570777 281.923234 28.438609 
" style="fill:none;opacity:0.5;stroke:#ff0000;stroke-linecap:round;stroke-width:3;"/>
    <path d="M 283.238309 30.103114 
L 281.923234 28.438609 
L 283.58774 27.123534 
" style="fill:none;opacity:0.5;stroke:#ff0000;stroke-linecap:round;stroke-width:3;"/>
   </g>
   <g id="patch_52">
    <path clip-path="url(#pfa5ba2d715)" d="M 282.057569 307.34961 
C 284.548432 307.34961 286.937611 307.175521 288.698918 306.865685 
C 290.460224 306.555849 291.449854 306.135562 291.449854 305.697387 
C 291.449854 305.259212 290.460224 304.838925 288.698918 304.529089 
C 286.937611 304.219253 284.548432 304.045164 282.057569 304.045164 
C 279.566706 304.045164 277.177526 304.219253 275.41622 304.529089 
C 273.654914 304.838925 272.665283 305.259212 272.665283 305.697387 
C 272.665283 306.135562 273.654914 306.555849 275.41622 306.865685 
C 277.177526 307.175521 279.566706 307.34961 282.057569 307.34961 
z
" style="fill:#008000;opacity:0.2;stroke:#008000;stroke-linejoin:miter;stroke-width:2;"/>
   </g>
   <g id="patch_53">
    <path clip-path="url(#pfa5ba2d715)" d="M 75.427286 306.193054 
C 77.918149 306.193054 80.307328 306.018965 82.068635 305.709129 
C 83.829941 305.399293 84.819571 304.979006 84.819571 304.540831 
C 84.819571 304.102656 83.829941 303.682369 82.068635 303.372533 
C 80.307328 303.062697 77.918149 302.888608 75.427286 302.888608 
C 72.936423 302.888608 70.547243 303.062697 68.785937 303.372533 
C 67.024631 303.682369 66.035 304.102656 66.035 304.540831 
C 66.035 304.979006 67.024631 305.399293 68.785937 305.709129 
C 70.547243 306.018965 72.936423 306.193054 75.427286 306.193054 
z
" style="fill:#008000;opacity:0.2;stroke:#008000;stroke-linejoin:miter;stroke-width:2;"/>
   </g>
   <g id="patch_54">
    <path clip-path="url(#pfa5ba2d715)" d="M 73.548829 297.436272 
C 76.039692 297.436272 78.428871 297.262183 80.190178 296.952347 
C 81.951484 296.642511 82.941114 296.222224 82.941114 295.784049 
C 82.941114 295.345874 81.951484 294.925587 80.190178 294.615751 
C 78.428871 294.305915 76.039692 294.131826 73.548829 294.131826 
C 71.057966 294.131826 68.668786 294.305915 66.90748 294.615751 
C 65.146174 294.925587 64.156543 295.345874 64.156543 295.784049 
C 64.156543 296.222224 65.146174 296.642511 66.90748 296.952347 
C 68.668786 297.262183 71.057966 297.436272 73.548829 297.436272 
z
" style="fill:#008000;opacity:0.2;stroke:#008000;stroke-linejoin:miter;stroke-width:2;"/>
   </g>
   <g id="patch_55">
    <path clip-path="url(#pfa5ba2d715)" d="M 221.946941 293.966604 
C 224.437804 293.966604 226.826984 293.792515 228.58829 293.482679 
C 230.349596 293.172842 231.339227 292.752555 231.339227 292.314381 
C 231.339227 291.876206 230.349596 291.455919 228.58829 291.146082 
C 226.826984 290.836246 224.437804 290.662158 221.946941 290.662158 
C 219.456078 290.662158 217.066899 290.836246 215.305592 291.146082 
C 213.544286 291.455919 212.554655 291.876206 212.554655 292.314381 
C 212.554655 292.752555 213.544286 293.172842 215.305592 293.482679 
C 217.066899 293.792515 219.456078 293.966604 221.946941 293.966604 
z
" style="fill:#008000;opacity:0.2;stroke:#008000;stroke-linejoin:miter;stroke-width:2;"/>
   </g>
   <g id="patch_56">
    <path clip-path="url(#pfa5ba2d715)" d="M 293.328311 240.104133 
C 295.819175 240.104133 298.208354 239.930044 299.96966 239.620208 
C 301.730967 239.310372 302.720597 238.890084 302.720597 238.45191 
C 302.720597 238.013735 301.730967 237.593448 299.96966 237.283612 
C 298.208354 236.973775 295.819175 236.799687 293.328311 236.799687 
C 290.837448 236.799687 288.448269 236.973775 286.686963 237.283612 
C 284.925656 237.593448 283.936026 238.013735 283.936026 238.45191 
C 283.936026 238.890084 284.925656 239.310372 286.686963 239.620208 
C 288.448269 239.930044 290.837448 240.104133 293.328311 240.104133 
z
" style="fill:#008000;opacity:0.2;stroke:#008000;stroke-linejoin:miter;stroke-width:2;"/>
   </g>
   <g id="patch_57">
    <path clip-path="url(#pfa5ba2d715)" d="M 293.328311 97.352063 
C 295.819175 97.352063 298.208354 97.177975 299.96966 96.868138 
C 301.730967 96.558302 302.720597 96.138015 302.720597 95.69984 
C 302.720597 95.261666 301.730967 94.841378 299.96966 94.531542 
C 298.208354 94.221706 295.819175 94.047617 293.328311 94.047617 
C 290.837448 94.047617 288.448269 94.221706 286.686963 94.531542 
C 284.925656 94.841378 283.936026 95.261666 283.936026 95.69984 
C 283.936026 96.138015 284.925656 96.558302 286.686963 96.868138 
C 288.448269 97.177975 290.837448 97.352063 293.328311 97.352063 
z
" style="fill:#008000;opacity:0.2;stroke:#008000;stroke-linejoin:miter;stroke-width:2;"/>
   </g>
   <g id="patch_58">
    <path clip-path="url(#pfa5ba2d715)" d="M 221.946941 43.489592 
C 224.437804 43.489592 226.826984 43.315504 228.58829 43.005668 
C 230.349596 42.695831 231.339227 42.275544 231.339227 41.837369 
C 231.339227 41.399195 230.349596 40.978908 228.58829 40.669071 
C 226.826984 40.359235 224.437804 40.185146 221.946941 40.185146 
C 219.456078 40.185146 217.066899 40.359235 215.305592 40.669071 
C 213.544286 40.978908 212.554655 41.399195 212.554655 41.837369 
C 212.554655 42.275544 213.544286 42.695831 215.305592 43.005668 
C 217.066899 43.315504 219.456078 43.489592 221.946941 43.489592 
z
" style="fill:#008000;opacity:0.2;stroke:#008000;stroke-linejoin:miter;stroke-width:2;"/>
   </g>
   <g id="patch_59">
    <path clip-path="url(#pfa5ba2d715)" d="M 73.548829 40.019924 
C 76.039692 40.019924 78.428871 39.845835 80.190178 39.535999 
C 81.951484 39.226163 82.941114 38.805876 82.941114 38.367701 
C 82.941114 37.929526 81.951484 37.509239 80.190178 37.199403 
C 78.428871 36.889567 76.039692 36.715478 73.548829 36.715478 
C 71.057966 36.715478 68.668786 36.889567 66.90748 37.199403 
C 65.146174 37.509239 64.156543 37.929526 64.156543 38.367701 
C 64.156543 38.805876 65.146174 39.226163 66.90748 39.535999 
C 68.668786 39.845835 71.057966 40.019924 73.548829 40.019924 
z
" style="fill:#008000;opacity:0.2;stroke:#008000;stroke-linejoin:miter;stroke-width:2;"/>
   </g>
   <g id="patch_60">
    <path clip-path="url(#pfa5ba2d715)" d="M 75.427286 31.263142 
C 77.918149 31.263142 80.307328 31.089053 82.068635 30.779217 
C 83.829941 30.469381 84.819571 30.049094 84.819571 29.610919 
C 84.819571 29.172744 83.829941 28.752457 82.068635 28.442621 
C 80.307328 28.132785 77.918149 27.958696 75.427286 27.958696 
C 72.936423 27.958696 70.547243 28.132785 68.785937 28.442621 
C 67.024631 28.752457 66.035 29.172744 66.035 29.610919 
C 66.035 30.049094 67.024631 30.469381 68.785937 30.779217 
C 70.547243 31.089053 72.936423 31.263142 75.427286 31.263142 
z
" style="fill:#008000;opacity:0.2;stroke:#008000;stroke-linejoin:miter;stroke-width:2;"/>
   </g>
   <g id="patch_61">
    <path clip-path="url(#pfa5ba2d715)" d="M 282.057569 30.106586 
C 284.548432 30.106586 286.937611 29.932497 288.698918 29.622661 
C 290.460224 29.312825 291.449854 28.892538 291.449854 28.454363 
C 291.449854 28.016188 290.460224 27.595901 288.698918 27.286065 
C 286.937611 26.976229 284.548432 26.80214 282.057569 26.80214 
C 279.566706 26.80214 277.177526 26.976229 275.41622 27.286065 
C 273.654914 27.595901 272.665283 28.016188 272.665283 28.454363 
C 272.665283 28.892538 273.654914 29.312825 275.41622 29.622661 
C 277.177526 29.932497 279.566706 30.106586 282.057569 30.106586 
z
" style="fill:#008000;opacity:0.2;stroke:#008000;stroke-linejoin:miter;stroke-width:2;"/>
   </g>
   <g id="patch_62">
    <path clip-path="url(#pfa5ba2d715)" d="M 424.350695 34.898033 
C 434.314148 34.898033 443.870866 34.201678 450.916091 32.962333 
C 457.961316 31.722988 461.919838 30.041839 461.919838 28.289141 
C 461.919838 26.536442 457.961316 24.855293 450.916091 23.615948 
C 443.870866 22.376603 434.314148 21.680249 424.350695 21.680249 
C 414.387242 21.680249 404.830525 22.376603 397.7853 23.615948 
C 390.740075 24.855293 386.781553 26.536442 386.781553 28.289141 
C 386.781553 30.041839 390.740075 31.722988 397.7853 32.962333 
C 404.830525 34.201678 414.387242 34.898033 424.350695 34.898033 
z
" style="fill:none;opacity:0.2;stroke:#ff0000;stroke-linejoin:miter;stroke-width:2;"/>
   </g>
   <g id="patch_63">
    <path clip-path="url(#pfa5ba2d715)" d="M 415.897638 35.558922 
C 425.861091 35.558922 435.417809 34.862567 442.463034 33.623222 
C 449.508259 32.383877 453.466781 30.702729 453.466781 28.95003 
C 453.466781 27.197331 449.508259 25.516183 442.463034 24.276837 
C 435.417809 23.037492 425.861091 22.341138 415.897638 22.341138 
C 405.934185 22.341138 396.377468 23.037492 389.332243 24.276837 
C 382.287018 25.516183 378.328496 27.197331 378.328496 28.95003 
C 378.328496 30.702729 382.287018 32.383877 389.332243 33.623222 
C 396.377468 34.862567 405.934185 35.558922 415.897638 35.558922 
z
" style="fill:none;opacity:0.2;stroke:#0000ff;stroke-linejoin:miter;stroke-width:2;"/>
   </g>
   <g id="patch_64">
    <path clip-path="url(#pfa5ba2d715)" d="M 277.83104 309.4975 
C 282.812767 309.4975 287.591125 309.149323 291.113738 308.52965 
C 294.636351 307.909978 296.615611 307.069403 296.615611 306.193054 
C 296.615611 305.316705 294.636351 304.47613 291.113738 303.856458 
C 287.591125 303.236785 282.812767 302.888608 277.83104 302.888608 
C 272.849314 302.888608 268.070955 303.236785 264.548343 303.856458 
C 261.02573 304.47613 259.046469 305.316705 259.046469 306.193054 
C 259.046469 307.069403 261.02573 307.909978 264.548343 308.52965 
C 268.070955 309.149323 272.849314 309.4975 277.83104 309.4975 
z
" style="fill:none;opacity:0.2;stroke:#008000;stroke-linejoin:miter;stroke-width:2;"/>
   </g>
   <g id="patch_65">
    <path clip-path="url(#pfa5ba2d715)" d="M 286.284097 308.506166 
C 291.265824 308.506166 296.044182 308.157989 299.566795 307.538316 
C 303.089408 306.918644 305.068668 306.078069 305.068668 305.20172 
C 305.068668 304.325371 303.089408 303.484796 299.566795 302.865124 
C 296.044182 302.245451 291.265824 301.897274 286.284097 301.897274 
C 281.302371 301.897274 276.524012 302.245451 273.0014 302.865124 
C 269.478787 303.484796 267.499526 304.325371 267.499526 305.20172 
C 267.499526 306.078069 269.478787 306.918644 273.0014 307.538316 
C 276.524012 308.157989 281.302371 308.506166 286.284097 308.506166 
z
" style="fill:none;opacity:0.2;stroke:#008000;stroke-linejoin:miter;stroke-width:2;"/>
   </g>
   <g id="patch_66">
    <path d="M 282.057569 305.697387 
Q 178.742427 305.119109 75.427286 304.540831 
" style="fill:none;opacity:0.5;stroke:#008000;stroke-linecap:round;stroke-width:2;"/>
   </g>
   <g id="patch_67">
    <path d="M 279.235628 306.028331 
Q 281.064912 305.813801 282.894197 305.599271 
" style="fill:none;opacity:0.5;stroke:#800080;stroke-linecap:round;stroke-width:2;"/>
    <path d="M 280.900133 307.343405 
L 279.235628 306.028331 
L 280.550703 304.363825 
" style="fill:none;opacity:0.5;stroke:#800080;stroke-linecap:round;stroke-width:2;"/>
    <path d="M 281.229692 304.284197 
L 282.894197 305.599271 
L 281.579122 307.263777 
" style="fill:none;opacity:0.5;stroke:#800080;stroke-linecap:round;stroke-width:2;"/>
   </g>
   <g id="patch_68">
    <path d="M 75.427286 304.540831 
Q 74.488057 300.16244 73.548829 295.784049 
" style="fill:none;opacity:0.5;stroke:#008000;stroke-linecap:round;stroke-width:2;"/>
   </g>
   <g id="patch_69">
    <path d="M 72.610668 304.761044 
Q 74.430502 304.618763 76.250336 304.476482 
" style="fill:none;opacity:0.5;stroke:#800080;stroke-linecap:round;stroke-width:2;"/>
    <path d="M 74.223023 306.139562 
L 72.610668 304.761044 
L 73.989186 303.148689 
" style="fill:none;opacity:0.5;stroke:#800080;stroke-linecap:round;stroke-width:2;"/>
    <path d="M 74.637981 303.097964 
L 76.250336 304.476482 
L 74.871818 306.088837 
" style="fill:none;opacity:0.5;stroke:#800080;stroke-linecap:round;stroke-width:2;"/>
   </g>
   <g id="patch_70">
    <path d="M 73.548829 295.784049 
Q 147.747885 294.049215 221.946941 292.314381 
" style="fill:none;opacity:0.5;stroke:#008000;stroke-linecap:round;stroke-width:2;"/>
   </g>
   <g id="patch_71">
    <path d="M 70.686365 295.000758 
Q 72.585065 295.520322 74.483764 296.039887 
" style="fill:none;opacity:0.5;stroke:#800080;stroke-linecap:round;stroke-width:2;"/>
    <path d="M 71.737266 296.843475 
L 70.686365 295.000758 
L 72.529082 293.949857 
" style="fill:none;opacity:0.5;stroke:#800080;stroke-linecap:round;stroke-width:2;"/>
    <path d="M 73.432863 294.197169 
L 74.483764 296.039887 
L 72.641047 297.090788 
" style="fill:none;opacity:0.5;stroke:#800080;stroke-linecap:round;stroke-width:2;"/>
   </g>
   <g id="patch_72">
    <path d="M 221.946941 292.314381 
Q 257.637626 265.383145 293.328311 238.45191 
" style="fill:none;opacity:0.5;stroke:#008000;stroke-linecap:round;stroke-width:2;"/>
   </g>
   <g id="patch_73">
    <path d="M 200.347728 291.073702 
Q 220.948351 292.257021 241.548975 293.440339 
" style="fill:none;opacity:0.5;stroke:#800080;stroke-linecap:round;stroke-width:2;"/>
    <path d="M 201.75924 292.657253 
L 200.347728 291.073702 
L 201.931279 289.66219 
" style="fill:none;opacity:0.5;stroke:#800080;stroke-linecap:round;stroke-width:2;"/>
    <path d="M 240.137463 291.856788 
L 241.548975 293.440339 
L 239.965424 294.851851 
" style="fill:none;opacity:0.5;stroke:#800080;stroke-linecap:round;stroke-width:2;"/>
   </g>
   <g id="patch_74">
    <path d="M 293.328311 238.45191 
Q 293.328311 167.075875 293.328311 95.69984 
" style="fill:none;opacity:0.5;stroke:#008000;stroke-linecap:round;stroke-width:2;"/>
   </g>
   <g id="patch_75">
    <path d="M 271.73128 238.141772 
Q 292.329722 238.43757 312.928164 238.733368 
" style="fill:none;opacity:0.5;stroke:#800080;stroke-linecap:round;stroke-width:2;"/>
    <path d="M 273.209587 239.663155 
L 271.73128 238.141772 
L 273.252663 236.663464 
" style="fill:none;opacity:0.5;stroke:#800080;stroke-linecap:round;stroke-width:2;"/>
    <path d="M 311.449857 237.211985 
L 312.928164 238.733368 
L 311.406781 240.211675 
" style="fill:none;opacity:0.5;stroke:#800080;stroke-linecap:round;stroke-width:2;"/>
   </g>
   <g id="patch_76">
    <path d="M 293.328311 95.69984 
Q 257.637626 68.768605 221.946941 41.837369 
" style="fill:none;opacity:0.5;stroke:#008000;stroke-linecap:round;stroke-width:2;"/>
   </g>
   <g id="patch_77">
    <path d="M 271.73128 96.009978 
Q 292.329722 95.71418 312.928164 95.418382 
" style="fill:none;opacity:0.5;stroke:#800080;stroke-linecap:round;stroke-width:2;"/>
    <path d="M 273.252663 97.488286 
L 271.73128 96.009978 
L 273.209587 94.488595 
" style="fill:none;opacity:0.5;stroke:#800080;stroke-linecap:round;stroke-width:2;"/>
    <path d="M 311.406781 93.940075 
L 312.928164 95.418382 
L 311.449857 96.939765 
" style="fill:none;opacity:0.5;stroke:#800080;stroke-linecap:round;stroke-width:2;"/>
   </g>
   <g id="patch_78">
    <path d="M 221.946941 41.837369 
Q 147.747885 40.102535 73.548829 38.367701 
" style="fill:none;opacity:0.5;stroke:#008000;stroke-linecap:round;stroke-width:2;"/>
   </g>
   <g id="patch_79">
    <path d="M 200.347728 43.078048 
Q 220.948351 41.894729 241.548975 40.711411 
" style="fill:none;opacity:0.5;stroke:#800080;stroke-linecap:round;stroke-width:2;"/>
    <path d="M 201.931279 44.48956 
L 200.347728 43.078048 
L 201.75924 41.494497 
" style="fill:none;opacity:0.5;stroke:#800080;stroke-linecap:round;stroke-width:2;"/>
    <path d="M 239.965424 39.299899 
L 241.548975 40.711411 
L 240.137463 42.294962 
" style="fill:none;opacity:0.5;stroke:#800080;stroke-linecap:round;stroke-width:2;"/>
   </g>
   <g id="patch_80">
    <path d="M 73.548829 38.367701 
Q 74.488057 33.98931 75.427286 29.610919 
" style="fill:none;opacity:0.5;stroke:#008000;stroke-linecap:round;stroke-width:2;"/>
   </g>
   <g id="patch_81">
    <path d="M 70.686365 39.150992 
Q 72.585065 38.631428 74.483764 38.111863 
" style="fill:none;opacity:0.5;stroke:#800080;stroke-linecap:round;stroke-width:2;"/>
    <path d="M 72.529082 40.201893 
L 70.686365 39.150992 
L 71.737266 37.308275 
" style="fill:none;opacity:0.5;stroke:#800080;stroke-linecap:round;stroke-width:2;"/>
    <path d="M 72.641047 37.060962 
L 74.483764 38.111863 
L 73.432863 39.954581 
" style="fill:none;opacity:0.5;stroke:#800080;stroke-linecap:round;stroke-width:2;"/>
   </g>
   <g id="patch_82">
    <path d="M 75.427286 29.610919 
Q 178.742427 29.032641 282.057569 28.454363 
" style="fill:none;opacity:0.5;stroke:#008000;stroke-linecap:round;stroke-width:2;"/>
   </g>
   <g id="patch_83">
    <path d="M 72.610668 29.390706 
Q 74.430502 29.532987 76.250336 29.675268 
" style="fill:none;opacity:0.5;stroke:#800080;stroke-linecap:round;stroke-width:2;"/>
    <path d="M 73.989186 31.003061 
L 72.610668 29.390706 
L 74.223023 28.012188 
" style="fill:none;opacity:0.5;stroke:#800080;stroke-linecap:round;stroke-width:2;"/>
    <path d="M 74.871818 28.062913 
L 76.250336 29.675268 
L 74.637981 31.053786 
" style="fill:none;opacity:0.5;stroke:#800080;stroke-linecap:round;stroke-width:2;"/>
   </g>
   <g id="line2d_1">
    <path clip-path="url(#pfa5ba2d715)" d="M 424.350695 28.289141 
L 424.350695 305.862609 
L 277.83104 306.193054 
L 71.200757 304.871276 
L 69.3223 294.627493 
L 198.935841 290.992602 
L 270.317212 238.121465 
L 270.317212 96.030285 
L 198.935841 43.159148 
L 69.3223 39.524257 
L 71.200757 29.280474 
L 277.83104 27.958696 
" style="fill:none;stroke:#ff0000;stroke-linecap:square;stroke-width:0.2;"/>
   </g>
   <g id="line2d_2">
    <path clip-path="url(#pfa5ba2d715)" d="M 415.897638 28.95003 
L 415.897638 305.20172 
L 286.284097 305.20172 
L 79.653814 304.210386 
L 77.775357 296.940605 
L 244.958041 293.636159 
L 291.919469 290.331713 
L 316.339411 238.782354 
L 316.339411 95.369396 
L 291.919469 43.820037 
L 244.958041 40.515591 
L 77.775357 37.211145 
L 79.653814 29.941364 
L 286.284097 28.95003 
" style="fill:none;stroke:#0000ff;stroke-linecap:square;stroke-width:0.2;"/>
   </g>
  </g>
 </g>
 <defs>
  <clipPath id="pfa5ba2d715">
   <rect height="307.51175" width="409.12796" x="37.576375" y="13.32"/>
  </clipPath>
 </defs>
</svg>
