<?xml version="1.0" encoding="utf-8" standalone="no"?>
<!DOCTYPE svg PUBLIC "-//W3C//DTD SVG 1.1//EN"
  "http://www.w3.org/Graphics/SVG/1.1/DTD/svg11.dtd">
<!-- Created with matplotlib (http://matplotlib.org/) -->
<svg height="345.6pt" version="1.1" viewBox="0 0 460.8 345.6" width="460.8pt" xmlns="http://www.w3.org/2000/svg" xmlns:xlink="http://www.w3.org/1999/xlink">
 <defs>
  <style type="text/css">
*{stroke-linecap:butt;stroke-linejoin:round;}
  </style>
 </defs>
 <g id="figure_1">
  <g id="patch_1">
   <path d="M 0 345.6 
L 460.8 345.6 
L 460.8 0 
L 0 0 
z
" style="fill:#ffffff;"/>
  </g>
  <g id="axes_1">
   <g id="patch_2">
    <path clip-path="url(#p546a61b5cd)" d="M 59.972395 306.523499 
C 60.970629 306.523499 61.928113 306.453863 62.633971 306.329929 
C 63.339829 306.205994 63.736432 306.037879 63.736432 305.862609 
C 63.736432 305.687339 63.339829 305.519225 62.633971 305.39529 
C 61.928113 305.271356 60.970629 305.20172 59.972395 305.20172 
C 58.974161 305.20172 58.016677 305.271356 57.310819 305.39529 
C 56.604961 305.519225 56.208358 305.687339 56.208358 305.862609 
C 56.208358 306.037879 56.604961 306.205994 57.310819 306.329929 
C 58.016677 306.453863 58.974161 306.523499 59.972395 306.523499 
z
" style="fill:#ff0000;opacity:0.2;stroke:#ff0000;stroke-linejoin:miter;stroke-width:2;"/>
   </g>
   <g id="patch_3">
    <path clip-path="url(#p546a61b5cd)" d="M 59.972395 28.95003 
C 60.970629 28.95003 61.928113 28.880394 62.633971 28.75646 
C 63.339829 28.632525 63.736432 28.464411 63.736432 28.289141 
C 63.736432 28.113871 63.339829 27.945756 62.633971 27.821821 
C 61.928113 27.697887 60.970629 27.628251 59.972395 27.628251 
C 58.974161 27.628251 58.016677 27.697887 57.310819 27.821821 
C 56.604961 27.945756 56.208358 28.113871 56.208358 28.289141 
C 56.208358 28.464411 56.604961 28.632525 57.310819 28.75646 
C 58.016677 28.880394 58.974161 28.95003 59.972395 28.95003 
z
" style="fill:#ff0000;opacity:0.2;stroke:#ff0000;stroke-linejoin:miter;stroke-width:2;"/>
   </g>
   <g id="patch_4">
    <path clip-path="url(#p546a61b5cd)" d="M 206.769836 28.619585 
C 207.768071 28.619585 208.725554 28.54995 209.431412 28.426015 
C 210.137271 28.302081 210.533873 28.133966 210.533873 27.958696 
C 210.533873 27.783426 210.137271 27.615311 209.431412 27.491377 
C 208.725554 27.367442 207.768071 27.297807 206.769836 27.297807 
C 205.771602 27.297807 204.814119 27.367442 204.10826 27.491377 
C 203.402402 27.615311 203.005799 27.783426 203.005799 27.958696 
C 203.005799 28.133966 203.402402 28.302081 204.10826 28.426015 
C 204.814119 28.54995 205.771602 28.619585 206.769836 28.619585 
z
" style="fill:#ff0000;opacity:0.2;stroke:#ff0000;stroke-linejoin:miter;stroke-width:2;"/>
   </g>
   <g id="patch_5">
    <path clip-path="url(#p546a61b5cd)" d="M 413.791869 29.941364 
C 414.790103 29.941364 415.747587 29.871728 416.453445 29.747794 
C 417.159303 29.623859 417.555906 29.455744 417.555906 29.280474 
C 417.555906 29.105205 417.159303 28.93709 416.453445 28.813155 
C 415.747587 28.689221 414.790103 28.619585 413.791869 28.619585 
C 412.793635 28.619585 411.836151 28.689221 411.130293 28.813155 
C 410.424435 28.93709 410.027832 29.105205 410.027832 29.280474 
C 410.027832 29.455744 410.424435 29.623859 411.130293 29.747794 
C 411.836151 29.871728 412.793635 29.941364 413.791869 29.941364 
z
" style="fill:#ff0000;opacity:0.2;stroke:#ff0000;stroke-linejoin:miter;stroke-width:2;"/>
   </g>
   <g id="patch_6">
    <path clip-path="url(#p546a61b5cd)" d="M 415.673888 40.185146 
C 416.672122 40.185146 417.629606 40.115511 418.335464 39.991576 
C 419.041322 39.867642 419.437925 39.699527 419.437925 39.524257 
C 419.437925 39.348987 419.041322 39.180872 418.335464 39.056938 
C 417.629606 38.933003 416.672122 38.863368 415.673888 38.863368 
C 414.675653 38.863368 413.71817 38.933003 413.012312 39.056938 
C 412.306453 39.180872 411.909851 39.348987 411.909851 39.524257 
C 411.909851 39.699527 412.306453 39.867642 413.012312 39.991576 
C 413.71817 40.115511 414.675653 40.185146 415.673888 40.185146 
z
" style="fill:#ff0000;opacity:0.2;stroke:#ff0000;stroke-linejoin:miter;stroke-width:2;"/>
   </g>
   <g id="patch_7">
    <path clip-path="url(#p546a61b5cd)" d="M 285.814613 43.820037 
C 286.812847 43.820037 287.77033 43.750402 288.476189 43.626467 
C 289.182047 43.502533 289.57865 43.334418 289.57865 43.159148 
C 289.57865 42.983878 289.182047 42.815763 288.476189 42.691829 
C 287.77033 42.567894 286.812847 42.498259 285.814613 42.498259 
C 284.816378 42.498259 283.858895 42.567894 283.153036 42.691829 
C 282.447178 42.815763 282.050576 42.983878 282.050576 43.159148 
C 282.050576 43.334418 282.447178 43.502533 283.153036 43.626467 
C 283.858895 43.750402 284.816378 43.820037 285.814613 43.820037 
z
" style="fill:#ff0000;opacity:0.2;stroke:#ff0000;stroke-linejoin:miter;stroke-width:2;"/>
   </g>
   <g id="patch_8">
    <path clip-path="url(#p546a61b5cd)" d="M 214.29791 96.691174 
C 215.296145 96.691174 216.253628 96.621539 216.959486 96.497604 
C 217.665345 96.37367 218.061947 96.205555 218.061947 96.030285 
C 218.061947 95.855015 217.665345 95.6869 216.959486 95.562966 
C 216.253628 95.439031 215.296145 95.369396 214.29791 95.369396 
C 213.299676 95.369396 212.342192 95.439031 211.636334 95.562966 
C 210.930476 95.6869 210.533873 95.855015 210.533873 96.030285 
C 210.533873 96.205555 210.930476 96.37367 211.636334 96.497604 
C 212.342192 96.621539 213.299676 96.691174 214.29791 96.691174 
z
" style="fill:#ff0000;opacity:0.2;stroke:#ff0000;stroke-linejoin:miter;stroke-width:2;"/>
   </g>
   <g id="patch_9">
    <path clip-path="url(#p546a61b5cd)" d="M 214.29791 238.782354 
C 215.296145 238.782354 216.253628 238.712719 216.959486 238.588784 
C 217.665345 238.46485 218.061947 238.296735 218.061947 238.121465 
C 218.061947 237.946195 217.665345 237.77808 216.959486 237.654146 
C 216.253628 237.530211 215.296145 237.460576 214.29791 237.460576 
C 213.299676 237.460576 212.342192 237.530211 211.636334 237.654146 
C 210.930476 237.77808 210.533873 237.946195 210.533873 238.121465 
C 210.533873 238.296735 210.930476 238.46485 211.636334 238.588784 
C 212.342192 238.712719 213.299676 238.782354 214.29791 238.782354 
z
" style="fill:#ff0000;opacity:0.2;stroke:#ff0000;stroke-linejoin:miter;stroke-width:2;"/>
   </g>
   <g id="patch_10">
    <path clip-path="url(#p546a61b5cd)" d="M 285.814613 291.653491 
C 286.812847 291.653491 287.77033 291.583856 288.476189 291.459921 
C 289.182047 291.335987 289.57865 291.167872 289.57865 290.992602 
C 289.57865 290.817332 289.182047 290.649217 288.476189 290.525283 
C 287.77033 290.401348 286.812847 290.331713 285.814613 290.331713 
C 284.816378 290.331713 283.858895 290.401348 283.153036 290.525283 
C 282.447178 290.649217 282.050576 290.817332 282.050576 290.992602 
C 282.050576 291.167872 282.447178 291.335987 283.153036 291.459921 
C 283.858895 291.583856 284.816378 291.653491 285.814613 291.653491 
z
" style="fill:#ff0000;opacity:0.2;stroke:#ff0000;stroke-linejoin:miter;stroke-width:2;"/>
   </g>
   <g id="patch_11">
    <path clip-path="url(#p546a61b5cd)" d="M 415.673888 295.288382 
C 416.672122 295.288382 417.629606 295.218747 418.335464 295.094812 
C 419.041322 294.970878 419.437925 294.802763 419.437925 294.627493 
C 419.437925 294.452223 419.041322 294.284108 418.335464 294.160174 
C 417.629606 294.036239 416.672122 293.966604 415.673888 293.966604 
C 414.675653 293.966604 413.71817 294.036239 413.012312 294.160174 
C 412.306453 294.284108 411.909851 294.452223 411.909851 294.627493 
C 411.909851 294.802763 412.306453 294.970878 413.012312 295.094812 
C 413.71817 295.218747 414.675653 295.288382 415.673888 295.288382 
z
" style="fill:#ff0000;opacity:0.2;stroke:#ff0000;stroke-linejoin:miter;stroke-width:2;"/>
   </g>
   <g id="patch_12">
    <path clip-path="url(#p546a61b5cd)" d="M 413.791869 305.532165 
C 414.790103 305.532165 415.747587 305.462529 416.453445 305.338595 
C 417.159303 305.21466 417.555906 305.046545 417.555906 304.871276 
C 417.555906 304.696006 417.159303 304.527891 416.453445 304.403956 
C 415.747587 304.280022 414.790103 304.210386 413.791869 304.210386 
C 412.793635 304.210386 411.836151 304.280022 411.130293 304.403956 
C 410.424435 304.527891 410.027832 304.696006 410.027832 304.871276 
C 410.027832 305.046545 410.424435 305.21466 411.130293 305.338595 
C 411.836151 305.462529 412.793635 305.532165 413.791869 305.532165 
z
" style="fill:#ff0000;opacity:0.2;stroke:#ff0000;stroke-linejoin:miter;stroke-width:2;"/>
   </g>
   <g id="patch_13">
    <path clip-path="url(#p546a61b5cd)" d="M 206.769836 306.853943 
C 207.768071 306.853943 208.725554 306.784308 209.431412 306.660373 
C 210.137271 306.536439 210.533873 306.368324 210.533873 306.193054 
C 210.533873 306.017784 210.137271 305.849669 209.431412 305.725735 
C 208.725554 305.6018 207.768071 305.532165 206.769836 305.532165 
C 205.771602 305.532165 204.814119 305.6018 204.10826 305.725735 
C 203.402402 305.849669 203.005799 306.017784 203.005799 306.193054 
C 203.005799 306.368324 203.402402 306.536439 204.10826 306.660373 
C 204.814119 306.784308 205.771602 306.853943 206.769836 306.853943 
z
" style="fill:#ff0000;opacity:0.2;stroke:#ff0000;stroke-linejoin:miter;stroke-width:2;"/>
   </g>
   <g id="patch_14">
    <path clip-path="url(#p546a61b5cd)" d="M 68.441478 305.862609 
C 69.439712 305.862609 70.397196 305.792974 71.103054 305.669039 
C 71.808912 305.545105 72.205515 305.37699 72.205515 305.20172 
C 72.205515 305.02645 71.808912 304.858335 71.103054 304.734401 
C 70.397196 304.610466 69.439712 304.540831 68.441478 304.540831 
C 67.443244 304.540831 66.48576 304.610466 65.779902 304.734401 
C 65.074044 304.858335 64.677441 305.02645 64.677441 305.20172 
C 64.677441 305.37699 65.074044 305.545105 65.779902 305.669039 
C 66.48576 305.792974 67.443244 305.862609 68.441478 305.862609 
z
" style="fill:#0000ff;opacity:0.2;stroke:#0000ff;stroke-linejoin:miter;stroke-width:2;"/>
   </g>
   <g id="patch_15">
    <path clip-path="url(#p546a61b5cd)" d="M 68.441478 29.610919 
C 69.439712 29.610919 70.397196 29.541284 71.103054 29.417349 
C 71.808912 29.293415 72.205515 29.1253 72.205515 28.95003 
C 72.205515 28.77476 71.808912 28.606645 71.103054 28.482711 
C 70.397196 28.358776 69.439712 28.289141 68.441478 28.289141 
C 67.443244 28.289141 66.48576 28.358776 65.779902 28.482711 
C 65.074044 28.606645 64.677441 28.77476 64.677441 28.95003 
C 64.677441 29.1253 65.074044 29.293415 65.779902 29.417349 
C 66.48576 29.541284 67.443244 29.610919 68.441478 29.610919 
z
" style="fill:#0000ff;opacity:0.2;stroke:#0000ff;stroke-linejoin:miter;stroke-width:2;"/>
   </g>
   <g id="patch_16">
    <path clip-path="url(#p546a61b5cd)" d="M 198.300753 29.610919 
C 199.298987 29.610919 200.256471 29.541284 200.962329 29.417349 
C 201.668187 29.293415 202.06479 29.1253 202.06479 28.95003 
C 202.06479 28.77476 201.668187 28.606645 200.962329 28.482711 
C 200.256471 28.358776 199.298987 28.289141 198.300753 28.289141 
C 197.302519 28.289141 196.345035 28.358776 195.639177 28.482711 
C 194.933319 28.606645 194.536716 28.77476 194.536716 28.95003 
C 194.536716 29.1253 194.933319 29.293415 195.639177 29.417349 
C 196.345035 29.541284 197.302519 29.610919 198.300753 29.610919 
z
" style="fill:#0000ff;opacity:0.2;stroke:#0000ff;stroke-linejoin:miter;stroke-width:2;"/>
   </g>
   <g id="patch_17">
    <path clip-path="url(#p546a61b5cd)" d="M 405.322786 30.602253 
C 406.32102 30.602253 407.278504 30.532617 407.984362 30.408683 
C 408.69022 30.284748 409.086823 30.116634 409.086823 29.941364 
C 409.086823 29.766094 408.69022 29.597979 407.984362 29.474044 
C 407.278504 29.35011 406.32102 29.280474 405.322786 29.280474 
C 404.324552 29.280474 403.367068 29.35011 402.66121 29.474044 
C 401.955352 29.597979 401.558749 29.766094 401.558749 29.941364 
C 401.558749 30.116634 401.955352 30.284748 402.66121 30.408683 
C 403.367068 30.532617 404.324552 30.602253 405.322786 30.602253 
z
" style="fill:#0000ff;opacity:0.2;stroke:#0000ff;stroke-linejoin:miter;stroke-width:2;"/>
   </g>
   <g id="patch_18">
    <path clip-path="url(#p546a61b5cd)" d="M 407.204805 37.872034 
C 408.203039 37.872034 409.160522 37.802399 409.866381 37.678464 
C 410.572239 37.55453 410.968841 37.386415 410.968841 37.211145 
C 410.968841 37.035875 410.572239 36.86776 409.866381 36.743826 
C 409.160522 36.619891 408.203039 36.550256 407.204805 36.550256 
C 406.20657 36.550256 405.249087 36.619891 404.543228 36.743826 
C 403.83737 36.86776 403.440768 37.035875 403.440768 37.211145 
C 403.440768 37.386415 403.83737 37.55453 404.543228 37.678464 
C 405.249087 37.802399 406.20657 37.872034 407.204805 37.872034 
z
" style="fill:#0000ff;opacity:0.2;stroke:#0000ff;stroke-linejoin:miter;stroke-width:2;"/>
   </g>
   <g id="patch_19">
    <path clip-path="url(#p546a61b5cd)" d="M 239.70516 41.17648 
C 240.703394 41.17648 241.660878 41.106845 242.366736 40.98291 
C 243.072594 40.858976 243.469197 40.690861 243.469197 40.515591 
C 243.469197 40.340321 243.072594 40.172206 242.366736 40.048272 
C 241.660878 39.924337 240.703394 39.854702 239.70516 39.854702 
C 238.706926 39.854702 237.749442 39.924337 237.043584 40.048272 
C 236.337725 40.172206 235.941123 40.340321 235.941123 40.515591 
C 235.941123 40.690861 236.337725 40.858976 237.043584 40.98291 
C 237.749442 41.106845 238.706926 41.17648 239.70516 41.17648 
z
" style="fill:#0000ff;opacity:0.2;stroke:#0000ff;stroke-linejoin:miter;stroke-width:2;"/>
   </g>
   <g id="patch_20">
    <path clip-path="url(#p546a61b5cd)" d="M 192.654698 44.480926 
C 193.652932 44.480926 194.610416 44.411291 195.316274 44.287356 
C 196.022132 44.163422 196.418735 43.995307 196.418735 43.820037 
C 196.418735 43.644767 196.022132 43.476652 195.316274 43.352718 
C 194.610416 43.228783 193.652932 43.159148 192.654698 43.159148 
C 191.656464 43.159148 190.69898 43.228783 189.993122 43.352718 
C 189.287263 43.476652 188.890661 43.644767 188.890661 43.820037 
C 188.890661 43.995307 189.287263 44.163422 189.993122 44.287356 
C 190.69898 44.411291 191.656464 44.480926 192.654698 44.480926 
z
" style="fill:#0000ff;opacity:0.2;stroke:#0000ff;stroke-linejoin:miter;stroke-width:2;"/>
   </g>
   <g id="patch_21">
    <path clip-path="url(#p546a61b5cd)" d="M 168.188458 96.030285 
C 169.186692 96.030285 170.144175 95.960649 170.850034 95.836715 
C 171.555892 95.71278 171.952494 95.544665 171.952494 95.369396 
C 171.952494 95.194126 171.555892 95.026011 170.850034 94.902076 
C 170.144175 94.778142 169.186692 94.708506 168.188458 94.708506 
C 167.190223 94.708506 166.23274 94.778142 165.526881 94.902076 
C 164.821023 95.026011 164.424421 95.194126 164.424421 95.369396 
C 164.424421 95.544665 164.821023 95.71278 165.526881 95.836715 
C 166.23274 95.960649 167.190223 96.030285 168.188458 96.030285 
z
" style="fill:#0000ff;opacity:0.2;stroke:#0000ff;stroke-linejoin:miter;stroke-width:2;"/>
   </g>
   <g id="patch_22">
    <path clip-path="url(#p546a61b5cd)" d="M 168.188458 239.443244 
C 169.186692 239.443244 170.144175 239.373608 170.850034 239.249674 
C 171.555892 239.125739 171.952494 238.957624 171.952494 238.782354 
C 171.952494 238.607085 171.555892 238.43897 170.850034 238.315035 
C 170.144175 238.191101 169.186692 238.121465 168.188458 238.121465 
C 167.190223 238.121465 166.23274 238.191101 165.526881 238.315035 
C 164.821023 238.43897 164.424421 238.607085 164.424421 238.782354 
C 164.424421 238.957624 164.821023 239.125739 165.526881 239.249674 
C 166.23274 239.373608 167.190223 239.443244 168.188458 239.443244 
z
" style="fill:#0000ff;opacity:0.2;stroke:#0000ff;stroke-linejoin:miter;stroke-width:2;"/>
   </g>
   <g id="patch_23">
    <path clip-path="url(#p546a61b5cd)" d="M 192.654698 290.992602 
C 193.652932 290.992602 194.610416 290.922967 195.316274 290.799032 
C 196.022132 290.675098 196.418735 290.506983 196.418735 290.331713 
C 196.418735 290.156443 196.022132 289.988328 195.316274 289.864394 
C 194.610416 289.740459 193.652932 289.670824 192.654698 289.670824 
C 191.656464 289.670824 190.69898 289.740459 189.993122 289.864394 
C 189.287263 289.988328 188.890661 290.156443 188.890661 290.331713 
C 188.890661 290.506983 189.287263 290.675098 189.993122 290.799032 
C 190.69898 290.922967 191.656464 290.992602 192.654698 290.992602 
z
" style="fill:#0000ff;opacity:0.2;stroke:#0000ff;stroke-linejoin:miter;stroke-width:2;"/>
   </g>
   <g id="patch_24">
    <path clip-path="url(#p546a61b5cd)" d="M 239.70516 294.297048 
C 240.703394 294.297048 241.660878 294.227413 242.366736 294.103478 
C 243.072594 293.979544 243.469197 293.811429 243.469197 293.636159 
C 243.469197 293.460889 243.072594 293.292774 242.366736 293.16884 
C 241.660878 293.044905 240.703394 292.97527 239.70516 292.97527 
C 238.706926 292.97527 237.749442 293.044905 237.043584 293.16884 
C 236.337725 293.292774 235.941123 293.460889 235.941123 293.636159 
C 235.941123 293.811429 236.337725 293.979544 237.043584 294.103478 
C 237.749442 294.227413 238.706926 294.297048 239.70516 294.297048 
z
" style="fill:#0000ff;opacity:0.2;stroke:#0000ff;stroke-linejoin:miter;stroke-width:2;"/>
   </g>
   <g id="patch_25">
    <path clip-path="url(#p546a61b5cd)" d="M 407.204805 297.601494 
C 408.203039 297.601494 409.160522 297.531859 409.866381 297.407924 
C 410.572239 297.28399 410.968841 297.115875 410.968841 296.940605 
C 410.968841 296.765335 410.572239 296.59722 409.866381 296.473286 
C 409.160522 296.349351 408.203039 296.279716 407.204805 296.279716 
C 406.20657 296.279716 405.249087 296.349351 404.543228 296.473286 
C 403.83737 296.59722 403.440768 296.765335 403.440768 296.940605 
C 403.440768 297.115875 403.83737 297.28399 404.543228 297.407924 
C 405.249087 297.531859 406.20657 297.601494 407.204805 297.601494 
z
" style="fill:#0000ff;opacity:0.2;stroke:#0000ff;stroke-linejoin:miter;stroke-width:2;"/>
   </g>
   <g id="patch_26">
    <path clip-path="url(#p546a61b5cd)" d="M 405.322786 304.871276 
C 406.32102 304.871276 407.278504 304.80164 407.984362 304.677706 
C 408.69022 304.553771 409.086823 304.385656 409.086823 304.210386 
C 409.086823 304.035116 408.69022 303.867002 407.984362 303.743067 
C 407.278504 303.619133 406.32102 303.549497 405.322786 303.549497 
C 404.324552 303.549497 403.367068 303.619133 402.66121 303.743067 
C 401.955352 303.867002 401.558749 304.035116 401.558749 304.210386 
C 401.558749 304.385656 401.955352 304.553771 402.66121 304.677706 
C 403.367068 304.80164 404.324552 304.871276 405.322786 304.871276 
z
" style="fill:#0000ff;opacity:0.2;stroke:#0000ff;stroke-linejoin:miter;stroke-width:2;"/>
   </g>
   <g id="patch_27">
    <path clip-path="url(#p546a61b5cd)" d="M 198.300753 305.862609 
C 199.298987 305.862609 200.256471 305.792974 200.962329 305.669039 
C 201.668187 305.545105 202.06479 305.37699 202.06479 305.20172 
C 202.06479 305.02645 201.668187 304.858335 200.962329 304.734401 
C 200.256471 304.610466 199.298987 304.540831 198.300753 304.540831 
C 197.302519 304.540831 196.345035 304.610466 195.639177 304.734401 
C 194.933319 304.858335 194.536716 305.02645 194.536716 305.20172 
C 194.536716 305.37699 194.933319 305.545105 195.639177 305.669039 
C 196.345035 305.792974 197.302519 305.862609 198.300753 305.862609 
z
" style="fill:#0000ff;opacity:0.2;stroke:#0000ff;stroke-linejoin:miter;stroke-width:2;"/>
   </g>
   <g id="patch_28">
    <path clip-path="url(#p546a61b5cd)" d="M 59.972395 305.862609 
L 59.972395 28.289141 
C 103.25882 27.958696 144.663227 27.958696 206.769836 27.958696 
C 310.280853 27.958696 385.561592 28.619585 413.791869 29.280474 
C 428.848017 30.602253 428.848017 38.202479 415.673888 39.524257 
L 285.814613 43.159148 
C 225.590021 44.811371 214.29791 49.76804 214.29791 96.030285 
L 214.29791 238.121465 
C 214.29791 284.38371 225.590021 289.340379 285.814613 290.992602 
L 415.673888 294.627493 
C 428.848017 295.949271 428.848017 303.549497 413.791869 304.871276 
C 385.561592 305.532165 310.280853 306.193054 206.769836 306.193054 
C 144.663227 306.193054 103.25882 306.193054 59.972395 305.862609 
" style="fill:none;stroke:#ff0000;stroke-linejoin:miter;stroke-width:0.5;"/>
   </g>
   <g id="patch_29">
    <path clip-path="url(#p546a61b5cd)" d="M 68.441478 305.20172 
L 68.441478 28.95003 
L 198.300753 28.95003 
C 267.935437 28.95003 335.688102 29.610919 405.322786 29.941364 
C 418.496915 31.263142 418.496915 34.898033 407.204805 37.211145 
L 239.70516 40.515591 
C 215.23892 40.846036 203.946809 41.837369 192.654698 43.820037 
C 171.952494 47.454928 168.188458 70.916495 168.188458 95.369396 
L 168.188458 238.782354 
C 168.188458 263.235255 171.952494 286.696822 192.654698 290.331713 
C 203.946809 292.314381 215.23892 293.305714 239.70516 293.636159 
L 407.204805 296.940605 
C 418.496915 299.253717 418.496915 302.888608 405.322786 304.210386 
C 335.688102 304.540831 267.935437 305.20172 198.300753 305.20172 
L 68.441478 305.20172 
" style="fill:none;stroke:#0000ff;stroke-linejoin:miter;stroke-width:0.5;"/>
   </g>
   <g id="[&quot;g_s&quot;:3,&quot;g_t&quot;:3,&quot;coords&quot;:[[249.0, 49.0],[244.5, 46.0]],&quot;certainty&quot;:4]">
    <path clip-path="url(#p546a61b5cd)" d="M 206.769836 28.784808 
C 208.017629 28.784808 209.214484 28.697763 210.096806 28.542845 
C 210.979129 28.387927 211.474883 28.177783 211.474883 27.958696 
C 211.474883 27.739609 210.979129 27.529465 210.096806 27.374547 
C 209.214484 27.219629 208.017629 27.132585 206.769836 27.132585 
C 205.522044 27.132585 204.325189 27.219629 203.442866 27.374547 
C 202.560544 27.529465 202.06479 27.739609 202.06479 27.958696 
C 202.06479 28.177783 202.560544 28.387927 203.442866 28.542845 
C 204.325189 28.697763 205.522044 28.784808 206.769836 28.784808 
z
" style="fill:#0000ff;opacity:0.2;stroke:#0000ff;stroke-linejoin:miter;stroke-width:2;"/>
   </g>
   <g id="[&quot;g_s&quot;:3,&quot;g_t&quot;:3,&quot;coords&quot;:[[244.5, 46.0],[249.0, 49.0]],&quot;certainty&quot;:4]">
    <path clip-path="url(#p546a61b5cd)" d="M 198.300753 29.776141 
C 199.548546 29.776141 200.745401 29.689097 201.627723 29.534179 
C 202.510046 29.379261 203.005799 29.169117 203.005799 28.95003 
C 203.005799 28.730943 202.510046 28.520799 201.627723 28.365881 
C 200.745401 28.210963 199.548546 28.123918 198.300753 28.123918 
C 197.05296 28.123918 195.856106 28.210963 194.973783 28.365881 
C 194.09146 28.520799 193.595707 28.730943 193.595707 28.95003 
C 193.595707 29.169117 194.09146 29.379261 194.973783 29.534179 
C 195.856106 29.689097 197.05296 29.776141 198.300753 29.776141 
z
" style="fill:#ff0000;opacity:0.2;stroke:#ff0000;stroke-linejoin:miter;stroke-width:2;"/>
   </g>
   <g id="patch_30">
    <path d="M 206.769836 27.958696 
Q 203.529833 28.337949 201.16772 28.614442 
" style="fill:none;opacity:0.5;stroke:#0000ff;stroke-linecap:round;stroke-width:1.25;"/>
    <path d="M 202.831937 29.929881 
L 201.16772 28.614442 
L 202.483159 26.950225 
" style="fill:none;opacity:0.5;stroke:#0000ff;stroke-linecap:round;stroke-width:1.25;"/>
   </g>
   <g id="[&quot;g_s&quot;:4,&quot;g_t&quot;:4,&quot;coords&quot;:[[359.0, 45.0],[354.5, 43.0]],&quot;certainty&quot;:11]">
    <path clip-path="url(#p546a61b5cd)" d="M 413.791869 31.263142 
C 416.786572 31.263142 419.659023 31.054236 421.776597 30.682432 
C 423.894172 30.310629 425.08398 29.806284 425.08398 29.280474 
C 425.08398 28.754665 423.894172 28.25032 421.776597 27.878517 
C 419.659023 27.506713 416.786572 27.297807 413.791869 27.297807 
C 410.797166 27.297807 407.924716 27.506713 405.807141 27.878517 
C 403.689566 28.25032 402.499758 28.754665 402.499758 29.280474 
C 402.499758 29.806284 403.689566 30.310629 405.807141 30.682432 
C 407.924716 31.054236 410.797166 31.263142 413.791869 31.263142 
z
" style="fill:#0000ff;opacity:0.2;stroke:#0000ff;stroke-linejoin:miter;stroke-width:2;"/>
   </g>
   <g id="[&quot;g_s&quot;:4,&quot;g_t&quot;:4,&quot;coords&quot;:[[354.5, 43.0],[359.0, 45.0]],&quot;certainty&quot;:11]">
    <path clip-path="url(#p546a61b5cd)" d="M 405.322786 31.924031 
C 408.317489 31.924031 411.18994 31.715125 413.307514 31.343321 
C 415.425089 30.971518 416.614897 30.467173 416.614897 29.941364 
C 416.614897 29.415554 415.425089 28.911209 413.307514 28.539406 
C 411.18994 28.167602 408.317489 27.958696 405.322786 27.958696 
C 402.328083 27.958696 399.455633 28.167602 397.338058 28.539406 
C 395.220483 28.911209 394.030675 29.415554 394.030675 29.941364 
C 394.030675 30.467173 395.220483 30.971518 397.338058 31.343321 
C 399.455633 31.715125 402.328083 31.924031 405.322786 31.924031 
z
" style="fill:#ff0000;opacity:0.2;stroke:#ff0000;stroke-linejoin:miter;stroke-width:2;"/>
   </g>
   <g id="patch_31">
    <path d="M 413.791869 29.280474 
Q 410.556001 29.532987 409.435024 29.620463 
" style="fill:none;opacity:0.5;stroke:#0000ff;stroke-linecap:round;stroke-width:3;"/>
    <path d="M 411.047176 30.999218 
L 409.435024 29.620463 
L 410.813779 28.008311 
" style="fill:none;opacity:0.5;stroke:#0000ff;stroke-linecap:round;stroke-width:3;"/>
   </g>
   <g id="[&quot;g_s&quot;:5,&quot;g_t&quot;:5,&quot;coords&quot;:[[360.0, 14.0],[355.5, 21.0]],&quot;certainty&quot;:5]">
    <path clip-path="url(#p546a61b5cd)" d="M 415.673888 40.515591 
C 417.171239 40.515591 418.607464 40.411138 419.666252 40.225236 
C 420.725039 40.039334 421.319943 39.787162 421.319943 39.524257 
C 421.319943 39.261352 420.725039 39.00918 419.666252 38.823278 
C 418.607464 38.637377 417.171239 38.532923 415.673888 38.532923 
C 414.176536 38.532923 412.740311 38.637377 411.681524 38.823278 
C 410.622736 39.00918 410.027832 39.261352 410.027832 39.524257 
C 410.027832 39.787162 410.622736 40.039334 411.681524 40.225236 
C 412.740311 40.411138 414.176536 40.515591 415.673888 40.515591 
z
" style="fill:#0000ff;opacity:0.2;stroke:#0000ff;stroke-linejoin:miter;stroke-width:2;"/>
   </g>
   <g id="[&quot;g_s&quot;:5,&quot;g_t&quot;:5,&quot;coords&quot;:[[355.5, 21.0],[360.0, 14.0]],&quot;certainty&quot;:5]">
    <path clip-path="url(#p546a61b5cd)" d="M 407.204805 38.202479 
C 408.702156 38.202479 410.138381 38.098026 411.197169 37.912124 
C 412.255956 37.726222 412.85086 37.47405 412.85086 37.211145 
C 412.85086 36.94824 412.255956 36.696068 411.197169 36.510166 
C 410.138381 36.324264 408.702156 36.219811 407.204805 36.219811 
C 405.707453 36.219811 404.271228 36.324264 403.21244 36.510166 
C 402.153653 36.696068 401.558749 36.94824 401.558749 37.211145 
C 401.558749 37.47405 402.153653 37.726222 403.21244 37.912124 
C 404.271228 38.098026 405.707453 38.202479 407.204805 38.202479 
z
" style="fill:#ff0000;opacity:0.2;stroke:#ff0000;stroke-linejoin:miter;stroke-width:2;"/>
   </g>
   <g id="patch_32">
    <path d="M 415.673888 39.524257 
Q 412.404937 38.631428 410.15917 38.018054 
" style="fill:none;opacity:0.5;stroke:#0000ff;stroke-linecap:round;stroke-width:1.5;"/>
    <path d="M 411.210959 39.860265 
L 410.15917 38.018054 
L 412.001381 36.966265 
" style="fill:none;opacity:0.5;stroke:#0000ff;stroke-linecap:round;stroke-width:1.5;"/>
   </g>
   <g id="[&quot;g_s&quot;:6,&quot;g_t&quot;:6,&quot;coords&quot;:[[291.0, 3.0],[266.5, 11.0]],&quot;certainty&quot;:5]">
    <path clip-path="url(#p546a61b5cd)" d="M 285.814613 44.150482 
C 287.311964 44.150482 288.748189 44.046029 289.806977 43.860127 
C 290.865764 43.674225 291.460668 43.422053 291.460668 43.159148 
C 291.460668 42.896243 290.865764 42.644071 289.806977 42.458169 
C 288.748189 42.272267 287.311964 42.167814 285.814613 42.167814 
C 284.317261 42.167814 282.881036 42.272267 281.822248 42.458169 
C 280.763461 42.644071 280.168557 42.896243 280.168557 43.159148 
C 280.168557 43.422053 280.763461 43.674225 281.822248 43.860127 
C 282.881036 44.046029 284.317261 44.150482 285.814613 44.150482 
z
" style="fill:#0000ff;opacity:0.2;stroke:#0000ff;stroke-linejoin:miter;stroke-width:2;"/>
   </g>
   <g id="[&quot;g_s&quot;:6,&quot;g_t&quot;:6,&quot;coords&quot;:[[266.5, 11.0],[291.0, 3.0]],&quot;certainty&quot;:5]">
    <path clip-path="url(#p546a61b5cd)" d="M 239.70516 41.506925 
C 241.202511 41.506925 242.638737 41.402472 243.697524 41.21657 
C 244.756311 41.030668 245.351215 40.778496 245.351215 40.515591 
C 245.351215 40.252686 244.756311 40.000514 243.697524 39.814612 
C 242.638737 39.62871 241.202511 39.524257 239.70516 39.524257 
C 238.207808 39.524257 236.771583 39.62871 235.712796 39.814612 
C 234.654008 40.000514 234.059104 40.252686 234.059104 40.515591 
C 234.059104 40.778496 234.654008 41.030668 235.712796 41.21657 
C 236.771583 41.402472 238.207808 41.506925 239.70516 41.506925 
z
" style="fill:#ff0000;opacity:0.2;stroke:#ff0000;stroke-linejoin:miter;stroke-width:2;"/>
   </g>
   <g id="patch_33">
    <path d="M 285.814613 43.159148 
Q 263.757555 41.894568 242.759418 40.690698 
" style="fill:none;opacity:0.5;stroke:#0000ff;stroke-linecap:round;stroke-width:1.5;"/>
    <path d="M 244.171102 42.274097 
L 242.759418 40.690698 
L 244.342816 39.279015 
" style="fill:none;opacity:0.5;stroke:#0000ff;stroke-linecap:round;stroke-width:1.5;"/>
   </g>
   <g id="[&quot;g_s&quot;:7,&quot;g_t&quot;:8,&quot;coords&quot;:[[253.0, -157.0],[228.5, -155.0]],&quot;certainty&quot;:11]">
    <path clip-path="url(#p546a61b5cd)" d="M 214.29791 98.012952 
C 217.292613 98.012952 220.165064 97.804046 222.282638 97.432243 
C 224.400213 97.060439 225.590021 96.556094 225.590021 96.030285 
C 225.590021 95.504475 224.400213 95.000131 222.282638 94.628327 
C 220.165064 94.256524 217.292613 94.047617 214.29791 94.047617 
C 211.303207 94.047617 208.430757 94.256524 206.313182 94.628327 
C 204.195607 95.000131 203.005799 95.504475 203.005799 96.030285 
C 203.005799 96.556094 204.195607 97.060439 206.313182 97.432243 
C 208.430757 97.804046 211.303207 98.012952 214.29791 98.012952 
z
" style="fill:#0000ff;opacity:0.2;stroke:#0000ff;stroke-linejoin:miter;stroke-width:2;"/>
   </g>
   <g id="[&quot;g_s&quot;:8,&quot;g_t&quot;:7,&quot;coords&quot;:[[228.5, -155.0],[253.0, -157.0]],&quot;certainty&quot;:11]">
    <path clip-path="url(#p546a61b5cd)" d="M 168.188458 97.352063 
C 171.18316 97.352063 174.055611 97.143157 176.173186 96.771353 
C 178.29076 96.39955 179.480568 95.895205 179.480568 95.369396 
C 179.480568 94.843586 178.29076 94.339241 176.173186 93.967438 
C 174.055611 93.595634 171.18316 93.386728 168.188458 93.386728 
C 165.193755 93.386728 162.321304 93.595634 160.203729 93.967438 
C 158.086155 94.339241 156.896347 94.843586 156.896347 95.369396 
C 156.896347 95.895205 158.086155 96.39955 160.203729 96.771353 
C 162.321304 97.143157 165.193755 97.352063 168.188458 97.352063 
z
" style="fill:#ff0000;opacity:0.2;stroke:#ff0000;stroke-linejoin:miter;stroke-width:2;"/>
   </g>
   <g id="patch_34">
    <path d="M 214.29791 96.030285 
Q 192.243667 95.71418 172.310526 95.428477 
" style="fill:none;opacity:0.5;stroke:#0000ff;stroke-linecap:round;stroke-width:3;"/>
    <path d="M 173.788874 96.949821 
L 172.310526 95.428477 
L 173.831869 93.950129 
" style="fill:none;opacity:0.5;stroke:#0000ff;stroke-linecap:round;stroke-width:3;"/>
   </g>
   <g id="[&quot;g_s&quot;:8,&quot;g_t&quot;:9,&quot;coords&quot;:[[253.0, -587.0],[228.5, -589.0]],&quot;certainty&quot;:10]">
    <path clip-path="url(#p546a61b5cd)" d="M 214.29791 239.938911 
C 217.043055 239.938911 219.676134 239.747413 221.617244 239.406593 
C 223.558355 239.065773 224.649012 238.603457 224.649012 238.121465 
C 224.649012 237.639473 223.558355 237.177157 221.617244 236.836337 
C 219.676134 236.495517 217.043055 236.30402 214.29791 236.30402 
C 211.552766 236.30402 208.919686 236.495517 206.978576 236.836337 
C 205.037466 237.177157 203.946809 237.639473 203.946809 238.121465 
C 203.946809 238.603457 205.037466 239.065773 206.978576 239.406593 
C 208.919686 239.747413 211.552766 239.938911 214.29791 239.938911 
z
" style="fill:#0000ff;opacity:0.2;stroke:#0000ff;stroke-linejoin:miter;stroke-width:2;"/>
   </g>
   <g id="[&quot;g_s&quot;:9,&quot;g_t&quot;:8,&quot;coords&quot;:[[228.5, -589.0],[253.0, -587.0]],&quot;certainty&quot;:10]">
    <path clip-path="url(#p546a61b5cd)" d="M 168.188458 240.5998 
C 170.933602 240.5998 173.566682 240.408302 175.507792 240.067482 
C 177.448902 239.726662 178.539559 239.264347 178.539559 238.782354 
C 178.539559 238.300362 177.448902 237.838046 175.507792 237.497227 
C 173.566682 237.156407 170.933602 236.964909 168.188458 236.964909 
C 165.443313 236.964909 162.810233 237.156407 160.869123 237.497227 
C 158.928013 237.838046 157.837356 238.300362 157.837356 238.782354 
C 157.837356 239.264347 158.928013 239.726662 160.869123 240.067482 
C 162.810233 240.408302 165.443313 240.5998 168.188458 240.5998 
z
" style="fill:#ff0000;opacity:0.2;stroke:#ff0000;stroke-linejoin:miter;stroke-width:2;"/>
   </g>
   <g id="patch_35">
    <path d="M 214.29791 238.121465 
Q 192.243667 238.43757 172.133767 238.725806 
" style="fill:none;opacity:0.5;stroke:#0000ff;stroke-linecap:round;stroke-width:2.75;"/>
    <path d="M 173.65511 240.204155 
L 172.133767 238.725806 
L 173.612116 237.204463 
" style="fill:none;opacity:0.5;stroke:#0000ff;stroke-linecap:round;stroke-width:2.75;"/>
   </g>
   <g id="[&quot;g_s&quot;:9,&quot;g_t&quot;:11,&quot;coords&quot;:[[291.0, -747.0],[266.5, -755.0]],&quot;certainty&quot;:4]">
    <path clip-path="url(#p546a61b5cd)" d="M 285.814613 291.818714 
C 287.062405 291.818714 288.25926 291.731669 289.141583 291.576751 
C 290.023905 291.421833 290.519659 291.211689 290.519659 290.992602 
C 290.519659 290.773515 290.023905 290.563371 289.141583 290.408453 
C 288.25926 290.253535 287.062405 290.166491 285.814613 290.166491 
C 284.56682 290.166491 283.369965 290.253535 282.487642 290.408453 
C 281.60532 290.563371 281.109566 290.773515 281.109566 290.992602 
C 281.109566 291.211689 281.60532 291.421833 282.487642 291.576751 
C 283.369965 291.731669 284.56682 291.818714 285.814613 291.818714 
z
" style="fill:#0000ff;opacity:0.2;stroke:#0000ff;stroke-linejoin:miter;stroke-width:2;"/>
   </g>
   <g id="[&quot;g_s&quot;:11,&quot;g_t&quot;:9,&quot;coords&quot;:[[266.5, -755.0],[291.0, -747.0]],&quot;certainty&quot;:4]">
    <path clip-path="url(#p546a61b5cd)" d="M 239.70516 294.46227 
C 240.952953 294.46227 242.149807 294.375226 243.03213 294.220308 
C 243.914453 294.06539 244.410206 293.855246 244.410206 293.636159 
C 244.410206 293.417072 243.914453 293.206928 243.03213 293.05201 
C 242.149807 292.897092 240.952953 292.810047 239.70516 292.810047 
C 238.457367 292.810047 237.260512 292.897092 236.37819 293.05201 
C 235.495867 293.206928 235.000114 293.417072 235.000114 293.636159 
C 235.000114 293.855246 235.495867 294.06539 236.37819 294.220308 
C 237.260512 294.375226 238.457367 294.46227 239.70516 294.46227 
z
" style="fill:#ff0000;opacity:0.2;stroke:#ff0000;stroke-linejoin:miter;stroke-width:2;"/>
   </g>
   <g id="patch_36">
    <path d="M 285.814613 290.992602 
Q 263.757555 292.257182 242.582931 293.47117 
" style="fill:none;opacity:0.5;stroke:#0000ff;stroke-linecap:round;stroke-width:1.25;"/>
    <path d="M 244.166329 294.882853 
L 242.582931 293.47117 
L 243.994615 291.887772 
" style="fill:none;opacity:0.5;stroke:#0000ff;stroke-linecap:round;stroke-width:1.25;"/>
   </g>
   <g id="[&quot;g_s&quot;:10,&quot;g_t&quot;:12,&quot;coords&quot;:[[360.0, -758.0],[355.5, -765.0]],&quot;certainty&quot;:5]">
    <path clip-path="url(#p546a61b5cd)" d="M 415.673888 295.618827 
C 417.171239 295.618827 418.607464 295.514373 419.666252 295.328472 
C 420.725039 295.14257 421.319943 294.890398 421.319943 294.627493 
C 421.319943 294.364588 420.725039 294.112416 419.666252 293.926514 
C 418.607464 293.740612 417.171239 293.636159 415.673888 293.636159 
C 414.176536 293.636159 412.740311 293.740612 411.681524 293.926514 
C 410.622736 294.112416 410.027832 294.364588 410.027832 294.627493 
C 410.027832 294.890398 410.622736 295.14257 411.681524 295.328472 
C 412.740311 295.514373 414.176536 295.618827 415.673888 295.618827 
z
" style="fill:#0000ff;opacity:0.2;stroke:#0000ff;stroke-linejoin:miter;stroke-width:2;"/>
   </g>
   <g id="[&quot;g_s&quot;:12,&quot;g_t&quot;:10,&quot;coords&quot;:[[355.5, -765.0],[360.0, -758.0]],&quot;certainty&quot;:5]">
    <path clip-path="url(#p546a61b5cd)" d="M 407.204805 297.931939 
C 408.702156 297.931939 410.138381 297.827486 411.197169 297.641584 
C 412.255956 297.455682 412.85086 297.20351 412.85086 296.940605 
C 412.85086 296.6777 412.255956 296.425528 411.197169 296.239626 
C 410.138381 296.053724 408.702156 295.949271 407.204805 295.949271 
C 405.707453 295.949271 404.271228 296.053724 403.21244 296.239626 
C 402.153653 296.425528 401.558749 296.6777 401.558749 296.940605 
C 401.558749 297.20351 402.153653 297.455682 403.21244 297.641584 
C 404.271228 297.827486 405.707453 297.931939 407.204805 297.931939 
z
" style="fill:#ff0000;opacity:0.2;stroke:#ff0000;stroke-linejoin:miter;stroke-width:2;"/>
   </g>
   <g id="patch_37">
    <path d="M 415.673888 294.627493 
Q 412.404937 295.520322 410.15917 296.133696 
" style="fill:none;opacity:0.5;stroke:#0000ff;stroke-linecap:round;stroke-width:1.5;"/>
    <path d="M 412.001381 297.185485 
L 410.15917 296.133696 
L 411.210959 294.291485 
" style="fill:none;opacity:0.5;stroke:#0000ff;stroke-linecap:round;stroke-width:1.5;"/>
   </g>
   <g id="[&quot;g_s&quot;:11,&quot;g_t&quot;:13,&quot;coords&quot;:[[359.0, -789.0],[354.5, -787.0]],&quot;certainty&quot;:11]">
    <path clip-path="url(#p546a61b5cd)" d="M 413.791869 306.853943 
C 416.786572 306.853943 419.659023 306.645037 421.776597 306.273233 
C 423.894172 305.90143 425.08398 305.397085 425.08398 304.871276 
C 425.08398 304.345466 423.894172 303.841121 421.776597 303.469318 
C 419.659023 303.097514 416.786572 302.888608 413.791869 302.888608 
C 410.797166 302.888608 407.924716 303.097514 405.807141 303.469318 
C 403.689566 303.841121 402.499758 304.345466 402.499758 304.871276 
C 402.499758 305.397085 403.689566 305.90143 405.807141 306.273233 
C 407.924716 306.645037 410.797166 306.853943 413.791869 306.853943 
z
" style="fill:#0000ff;opacity:0.2;stroke:#0000ff;stroke-linejoin:miter;stroke-width:2;"/>
   </g>
   <g id="[&quot;g_s&quot;:13,&quot;g_t&quot;:11,&quot;coords&quot;:[[354.5, -787.0],[359.0, -789.0]],&quot;certainty&quot;:11]">
    <path clip-path="url(#p546a61b5cd)" d="M 405.322786 306.193054 
C 408.317489 306.193054 411.18994 305.984148 413.307514 305.612344 
C 415.425089 305.240541 416.614897 304.736196 416.614897 304.210386 
C 416.614897 303.684577 415.425089 303.180232 413.307514 302.808429 
C 411.18994 302.436625 408.317489 302.227719 405.322786 302.227719 
C 402.328083 302.227719 399.455633 302.436625 397.338058 302.808429 
C 395.220483 303.180232 394.030675 303.684577 394.030675 304.210386 
C 394.030675 304.736196 395.220483 305.240541 397.338058 305.612344 
C 399.455633 305.984148 402.328083 306.193054 405.322786 306.193054 
z
" style="fill:#ff0000;opacity:0.2;stroke:#ff0000;stroke-linejoin:miter;stroke-width:2;"/>
   </g>
   <g id="patch_38">
    <path d="M 413.791869 304.871276 
Q 410.556001 304.618763 409.435024 304.531287 
" style="fill:none;opacity:0.5;stroke:#0000ff;stroke-linecap:round;stroke-width:3;"/>
    <path d="M 410.813779 306.143439 
L 409.435024 304.531287 
L 411.047176 303.152532 
" style="fill:none;opacity:0.5;stroke:#0000ff;stroke-linecap:round;stroke-width:3;"/>
   </g>
   <g id="[&quot;g_s&quot;:12,&quot;g_t&quot;:14,&quot;coords&quot;:[[249.0, -793.0],[244.5, -790.0]],&quot;certainty&quot;:11]">
    <path clip-path="url(#p546a61b5cd)" d="M 206.769836 308.175722 
C 209.764539 308.175722 212.63699 307.966815 214.754565 307.595012 
C 216.872139 307.223208 218.061947 306.718864 218.061947 306.193054 
C 218.061947 305.667244 216.872139 305.1629 214.754565 304.791096 
C 212.63699 304.419293 209.764539 304.210386 206.769836 304.210386 
C 203.775134 304.210386 200.902683 304.419293 198.785108 304.791096 
C 196.667534 305.1629 195.477725 305.667244 195.477725 306.193054 
C 195.477725 306.718864 196.667534 307.223208 198.785108 307.595012 
C 200.902683 307.966815 203.775134 308.175722 206.769836 308.175722 
z
" style="fill:#0000ff;opacity:0.2;stroke:#0000ff;stroke-linejoin:miter;stroke-width:2;"/>
   </g>
   <g id="[&quot;g_s&quot;:14,&quot;g_t&quot;:12,&quot;coords&quot;:[[244.5, -790.0],[249.0, -793.0]],&quot;certainty&quot;:11]">
    <path clip-path="url(#p546a61b5cd)" d="M 198.300753 307.184388 
C 201.295456 307.184388 204.167907 306.975481 206.285481 306.603678 
C 208.403056 306.231874 209.592864 305.72753 209.592864 305.20172 
C 209.592864 304.675911 208.403056 304.171566 206.285481 303.799762 
C 204.167907 303.427959 201.295456 303.219053 198.300753 303.219053 
C 195.30605 303.219053 192.4336 303.427959 190.316025 303.799762 
C 188.19845 304.171566 187.008642 304.675911 187.008642 305.20172 
C 187.008642 305.72753 188.19845 306.231874 190.316025 306.603678 
C 192.4336 306.975481 195.30605 307.184388 198.300753 307.184388 
z
" style="fill:#ff0000;opacity:0.2;stroke:#ff0000;stroke-linejoin:miter;stroke-width:2;"/>
   </g>
   <g id="patch_39">
    <path d="M 206.769836 306.193054 
Q 203.529833 305.813801 202.396765 305.681172 
" style="fill:none;opacity:0.5;stroke:#0000ff;stroke-linecap:round;stroke-width:3;"/>
    <path d="M 203.712204 307.345389 
L 202.396765 305.681172 
L 204.060983 304.365733 
" style="fill:none;opacity:0.5;stroke:#0000ff;stroke-linecap:round;stroke-width:3;"/>
   </g>
   <g id="[&quot;g_s&quot;:3,&quot;g_t&quot;:3,&quot;coords&quot;:[[244.5, 46.0],[249.0, 49.0]],&quot;certainty&quot;:4]">
    <path clip-path="url(#p546a61b5cd)" d="M 198.300753 29.776141 
C 199.548546 29.776141 200.745401 29.689097 201.627723 29.534179 
C 202.510046 29.379261 203.005799 29.169117 203.005799 28.95003 
C 203.005799 28.730943 202.510046 28.520799 201.627723 28.365881 
C 200.745401 28.210963 199.548546 28.123918 198.300753 28.123918 
C 197.05296 28.123918 195.856106 28.210963 194.973783 28.365881 
C 194.09146 28.520799 193.595707 28.730943 193.595707 28.95003 
C 193.595707 29.169117 194.09146 29.379261 194.973783 29.534179 
C 195.856106 29.689097 197.05296 29.776141 198.300753 29.776141 
z
" style="fill:#0000ff;opacity:0.2;stroke:#0000ff;stroke-linejoin:miter;stroke-width:2;"/>
   </g>
   <g id="[&quot;g_s&quot;:3,&quot;g_t&quot;:3,&quot;coords&quot;:[[249.0, 49.0],[244.5, 46.0]],&quot;certainty&quot;:4]">
    <path clip-path="url(#p546a61b5cd)" d="M 206.769836 28.784808 
C 208.017629 28.784808 209.214484 28.697763 210.096806 28.542845 
C 210.979129 28.387927 211.474883 28.177783 211.474883 27.958696 
C 211.474883 27.739609 210.979129 27.529465 210.096806 27.374547 
C 209.214484 27.219629 208.017629 27.132585 206.769836 27.132585 
C 205.522044 27.132585 204.325189 27.219629 203.442866 27.374547 
C 202.560544 27.529465 202.06479 27.739609 202.06479 27.958696 
C 202.06479 28.177783 202.560544 28.387927 203.442866 28.542845 
C 204.325189 28.697763 205.522044 28.784808 206.769836 28.784808 
z
" style="fill:#ff0000;opacity:0.2;stroke:#ff0000;stroke-linejoin:miter;stroke-width:2;"/>
   </g>
   <g id="patch_40">
    <path d="M 198.300753 28.95003 
Q 201.540756 28.570777 203.90287 28.294284 
" style="fill:none;opacity:0.5;stroke:#ff0000;stroke-linecap:round;stroke-width:1.25;"/>
    <path d="M 202.238652 26.978845 
L 203.90287 28.294284 
L 202.587431 29.958501 
" style="fill:none;opacity:0.5;stroke:#ff0000;stroke-linecap:round;stroke-width:1.25;"/>
   </g>
   <g id="[&quot;g_s&quot;:4,&quot;g_t&quot;:4,&quot;coords&quot;:[[354.5, 43.0],[359.0, 45.0]],&quot;certainty&quot;:11]">
    <path clip-path="url(#p546a61b5cd)" d="M 405.322786 31.924031 
C 408.317489 31.924031 411.18994 31.715125 413.307514 31.343321 
C 415.425089 30.971518 416.614897 30.467173 416.614897 29.941364 
C 416.614897 29.415554 415.425089 28.911209 413.307514 28.539406 
C 411.18994 28.167602 408.317489 27.958696 405.322786 27.958696 
C 402.328083 27.958696 399.455633 28.167602 397.338058 28.539406 
C 395.220483 28.911209 394.030675 29.415554 394.030675 29.941364 
C 394.030675 30.467173 395.220483 30.971518 397.338058 31.343321 
C 399.455633 31.715125 402.328083 31.924031 405.322786 31.924031 
z
" style="fill:#0000ff;opacity:0.2;stroke:#0000ff;stroke-linejoin:miter;stroke-width:2;"/>
   </g>
   <g id="[&quot;g_s&quot;:4,&quot;g_t&quot;:4,&quot;coords&quot;:[[359.0, 45.0],[354.5, 43.0]],&quot;certainty&quot;:11]">
    <path clip-path="url(#p546a61b5cd)" d="M 413.791869 31.263142 
C 416.786572 31.263142 419.659023 31.054236 421.776597 30.682432 
C 423.894172 30.310629 425.08398 29.806284 425.08398 29.280474 
C 425.08398 28.754665 423.894172 28.25032 421.776597 27.878517 
C 419.659023 27.506713 416.786572 27.297807 413.791869 27.297807 
C 410.797166 27.297807 407.924716 27.506713 405.807141 27.878517 
C 403.689566 28.25032 402.499758 28.754665 402.499758 29.280474 
C 402.499758 29.806284 403.689566 30.310629 405.807141 30.682432 
C 407.924716 31.054236 410.797166 31.263142 413.791869 31.263142 
z
" style="fill:#ff0000;opacity:0.2;stroke:#ff0000;stroke-linejoin:miter;stroke-width:2;"/>
   </g>
   <g id="patch_41">
    <path d="M 405.322786 29.941364 
Q 408.558654 29.688851 409.679631 29.601375 
" style="fill:none;opacity:0.5;stroke:#ff0000;stroke-linecap:round;stroke-width:3;"/>
    <path d="M 408.067479 28.22262 
L 409.679631 29.601375 
L 408.300876 31.213527 
" style="fill:none;opacity:0.5;stroke:#ff0000;stroke-linecap:round;stroke-width:3;"/>
   </g>
   <g id="[&quot;g_s&quot;:5,&quot;g_t&quot;:5,&quot;coords&quot;:[[355.5, 21.0],[360.0, 14.0]],&quot;certainty&quot;:6]">
    <path clip-path="url(#p546a61b5cd)" d="M 407.204805 38.367701 
C 408.951714 38.367701 410.627311 38.245839 411.862563 38.028954 
C 413.097815 37.812068 413.791869 37.517867 413.791869 37.211145 
C 413.791869 36.904423 413.097815 36.610222 411.862563 36.393336 
C 410.627311 36.176451 408.951714 36.054589 407.204805 36.054589 
C 405.457895 36.054589 403.782298 36.176451 402.547046 36.393336 
C 401.311795 36.610222 400.61774 36.904423 400.61774 37.211145 
C 400.61774 37.517867 401.311795 37.812068 402.547046 38.028954 
C 403.782298 38.245839 405.457895 38.367701 407.204805 38.367701 
z
" style="fill:#0000ff;opacity:0.2;stroke:#0000ff;stroke-linejoin:miter;stroke-width:2;"/>
   </g>
   <g id="[&quot;g_s&quot;:5,&quot;g_t&quot;:5,&quot;coords&quot;:[[360.0, 14.0],[355.5, 21.0]],&quot;certainty&quot;:6]">
    <path clip-path="url(#p546a61b5cd)" d="M 415.673888 40.680813 
C 417.420798 40.680813 419.096394 40.558951 420.331646 40.342066 
C 421.566898 40.125181 422.260952 39.830979 422.260952 39.524257 
C 422.260952 39.217535 421.566898 38.923334 420.331646 38.706449 
C 419.096394 38.489563 417.420798 38.367701 415.673888 38.367701 
C 413.926978 38.367701 412.251381 38.489563 411.01613 38.706449 
C 409.780878 38.923334 409.086823 39.217535 409.086823 39.524257 
C 409.086823 39.830979 409.780878 40.125181 411.01613 40.342066 
C 412.251381 40.558951 413.926978 40.680813 415.673888 40.680813 
z
" style="fill:#ff0000;opacity:0.2;stroke:#ff0000;stroke-linejoin:miter;stroke-width:2;"/>
   </g>
   <g id="patch_42">
    <path d="M 407.204805 37.211145 
Q 410.473755 38.103975 412.548991 38.670772 
" style="fill:none;opacity:0.5;stroke:#ff0000;stroke-linecap:round;stroke-width:1.75;"/>
    <path d="M 411.497202 36.828562 
L 412.548991 38.670772 
L 410.706781 39.722561 
" style="fill:none;opacity:0.5;stroke:#ff0000;stroke-linecap:round;stroke-width:1.75;"/>
   </g>
   <g id="[&quot;g_s&quot;:6,&quot;g_t&quot;:3,&quot;coords&quot;:[[266.5, 11.0],[249.0, 49.0]],&quot;certainty&quot;:3]">
    <path clip-path="url(#p546a61b5cd)" d="M 239.70516 41.17648 
C 240.703394 41.17648 241.660878 41.106845 242.366736 40.98291 
C 243.072594 40.858976 243.469197 40.690861 243.469197 40.515591 
C 243.469197 40.340321 243.072594 40.172206 242.366736 40.048272 
C 241.660878 39.924337 240.703394 39.854702 239.70516 39.854702 
C 238.706926 39.854702 237.749442 39.924337 237.043584 40.048272 
C 236.337725 40.172206 235.941123 40.340321 235.941123 40.515591 
C 235.941123 40.690861 236.337725 40.858976 237.043584 40.98291 
C 237.749442 41.106845 238.706926 41.17648 239.70516 41.17648 
z
" style="fill:#0000ff;opacity:0.2;stroke:#0000ff;stroke-linejoin:miter;stroke-width:2;"/>
   </g>
   <g id="[&quot;g_s&quot;:3,&quot;g_t&quot;:6,&quot;coords&quot;:[[249.0, 49.0],[266.5, 11.0]],&quot;certainty&quot;:3]">
    <path clip-path="url(#p546a61b5cd)" d="M 206.769836 28.619585 
C 207.768071 28.619585 208.725554 28.54995 209.431412 28.426015 
C 210.137271 28.302081 210.533873 28.133966 210.533873 27.958696 
C 210.533873 27.783426 210.137271 27.615311 209.431412 27.491377 
C 208.725554 27.367442 207.768071 27.297807 206.769836 27.297807 
C 205.771602 27.297807 204.814119 27.367442 204.10826 27.491377 
C 203.402402 27.615311 203.005799 27.783426 203.005799 27.958696 
C 203.005799 28.133966 203.402402 28.302081 204.10826 28.426015 
C 204.814119 28.54995 205.771602 28.619585 206.769836 28.619585 
z
" style="fill:#ff0000;opacity:0.2;stroke:#ff0000;stroke-linejoin:miter;stroke-width:2;"/>
   </g>
   <g id="patch_43">
    <path d="M 239.70516 40.515591 
Q 224.172247 34.593525 209.300049 28.923363 
" style="fill:none;opacity:0.5;stroke:#ff0000;stroke-linecap:round;"/>
    <path d="M 210.167269 30.85932 
L 209.300049 28.923363 
L 211.236006 28.056143 
" style="fill:none;opacity:0.5;stroke:#ff0000;stroke-linecap:round;"/>
   </g>
   <g id="[&quot;g_s&quot;:7,&quot;g_t&quot;:3,&quot;coords&quot;:[[241.5, 1.0],[249.0, 49.0]],&quot;certainty&quot;:2]">
    <path clip-path="url(#p546a61b5cd)" d="M 192.654698 44.315704 
C 193.403373 44.315704 194.121486 44.263477 194.65088 44.170527 
C 195.180273 44.077576 195.477725 43.95149 195.477725 43.820037 
C 195.477725 43.688585 195.180273 43.562499 194.65088 43.469548 
C 194.121486 43.376597 193.403373 43.32437 192.654698 43.32437 
C 191.906022 43.32437 191.187909 43.376597 190.658516 43.469548 
C 190.129122 43.562499 189.83167 43.688585 189.83167 43.820037 
C 189.83167 43.95149 190.129122 44.077576 190.658516 44.170527 
C 191.187909 44.263477 191.906022 44.315704 192.654698 44.315704 
z
" style="fill:#0000ff;opacity:0.2;stroke:#0000ff;stroke-linejoin:miter;stroke-width:2;"/>
   </g>
   <g id="[&quot;g_s&quot;:3,&quot;g_t&quot;:7,&quot;coords&quot;:[[249.0, 49.0],[241.5, 1.0]],&quot;certainty&quot;:2]">
    <path clip-path="url(#p546a61b5cd)" d="M 206.769836 28.454363 
C 207.518512 28.454363 208.236625 28.402136 208.766018 28.309185 
C 209.295412 28.216235 209.592864 28.090148 209.592864 27.958696 
C 209.592864 27.827244 209.295412 27.701157 208.766018 27.608207 
C 208.236625 27.515256 207.518512 27.463029 206.769836 27.463029 
C 206.021161 27.463029 205.303048 27.515256 204.773654 27.608207 
C 204.244261 27.701157 203.946809 27.827244 203.946809 27.958696 
C 203.946809 28.090148 204.244261 28.216235 204.773654 28.309185 
C 205.303048 28.402136 206.021161 28.454363 206.769836 28.454363 
z
" style="fill:#ff0000;opacity:0.2;stroke:#ff0000;stroke-linejoin:miter;stroke-width:2;"/>
   </g>
   <g id="patch_44">
    <path d="M 192.654698 43.820037 
Q 199.048035 36.635771 205.088815 29.847678 
" style="fill:none;opacity:0.5;stroke:#ff0000;stroke-linecap:round;stroke-width:0.75;"/>
    <path d="M 202.971085 29.971041 
L 205.088815 29.847678 
L 205.212178 31.965409 
" style="fill:none;opacity:0.5;stroke:#ff0000;stroke-linecap:round;stroke-width:0.75;"/>
   </g>
   <g id="[&quot;g_s&quot;:8,&quot;g_t&quot;:7,&quot;coords&quot;:[[228.5, -155.0],[253.0, -157.0]],&quot;certainty&quot;:11]">
    <path clip-path="url(#p546a61b5cd)" d="M 168.188458 97.352063 
C 171.18316 97.352063 174.055611 97.143157 176.173186 96.771353 
C 178.29076 96.39955 179.480568 95.895205 179.480568 95.369396 
C 179.480568 94.843586 178.29076 94.339241 176.173186 93.967438 
C 174.055611 93.595634 171.18316 93.386728 168.188458 93.386728 
C 165.193755 93.386728 162.321304 93.595634 160.203729 93.967438 
C 158.086155 94.339241 156.896347 94.843586 156.896347 95.369396 
C 156.896347 95.895205 158.086155 96.39955 160.203729 96.771353 
C 162.321304 97.143157 165.193755 97.352063 168.188458 97.352063 
z
" style="fill:#0000ff;opacity:0.2;stroke:#0000ff;stroke-linejoin:miter;stroke-width:2;"/>
   </g>
   <g id="[&quot;g_s&quot;:7,&quot;g_t&quot;:8,&quot;coords&quot;:[[253.0, -157.0],[228.5, -155.0]],&quot;certainty&quot;:11]">
    <path clip-path="url(#p546a61b5cd)" d="M 214.29791 98.012952 
C 217.292613 98.012952 220.165064 97.804046 222.282638 97.432243 
C 224.400213 97.060439 225.590021 96.556094 225.590021 96.030285 
C 225.590021 95.504475 224.400213 95.000131 222.282638 94.628327 
C 220.165064 94.256524 217.292613 94.047617 214.29791 94.047617 
C 211.303207 94.047617 208.430757 94.256524 206.313182 94.628327 
C 204.195607 95.000131 203.005799 95.504475 203.005799 96.030285 
C 203.005799 96.556094 204.195607 97.060439 206.313182 97.432243 
C 208.430757 97.804046 211.303207 98.012952 214.29791 98.012952 
z
" style="fill:#ff0000;opacity:0.2;stroke:#ff0000;stroke-linejoin:miter;stroke-width:2;"/>
   </g>
   <g id="patch_45">
    <path d="M 168.188458 95.369396 
Q 190.242701 95.6855 210.175842 95.971203 
" style="fill:none;opacity:0.5;stroke:#ff0000;stroke-linecap:round;stroke-width:3;"/>
    <path d="M 208.697494 94.44986 
L 210.175842 95.971203 
L 208.654499 97.449552 
" style="fill:none;opacity:0.5;stroke:#ff0000;stroke-linecap:round;stroke-width:3;"/>
   </g>
   <g id="[&quot;g_s&quot;:9,&quot;g_t&quot;:8,&quot;coords&quot;:[[228.5, -589.0],[253.0, -587.0]],&quot;certainty&quot;:4]">
    <path clip-path="url(#p546a61b5cd)" d="M 168.188458 239.608466 
C 169.43625 239.608466 170.633105 239.521422 171.515428 239.366503 
C 172.39775 239.211585 172.893504 239.001442 172.893504 238.782354 
C 172.893504 238.563267 172.39775 238.353124 171.515428 238.198205 
C 170.633105 238.043287 169.43625 237.956243 168.188458 237.956243 
C 166.940665 237.956243 165.74381 238.043287 164.861487 238.198205 
C 163.979165 238.353124 163.483411 238.563267 163.483411 238.782354 
C 163.483411 239.001442 163.979165 239.211585 164.861487 239.366503 
C 165.74381 239.521422 166.940665 239.608466 168.188458 239.608466 
z
" style="fill:#0000ff;opacity:0.2;stroke:#0000ff;stroke-linejoin:miter;stroke-width:2;"/>
   </g>
   <g id="[&quot;g_s&quot;:8,&quot;g_t&quot;:9,&quot;coords&quot;:[[253.0, -587.0],[228.5, -589.0]],&quot;certainty&quot;:4]">
    <path clip-path="url(#p546a61b5cd)" d="M 214.29791 238.947577 
C 215.545703 238.947577 216.742558 238.860532 217.62488 238.705614 
C 218.507203 238.550696 219.002956 238.340553 219.002956 238.121465 
C 219.002956 237.902378 218.507203 237.692234 217.62488 237.537316 
C 216.742558 237.382398 215.545703 237.295354 214.29791 237.295354 
C 213.050117 237.295354 211.853263 237.382398 210.97094 237.537316 
C 210.088617 237.692234 209.592864 237.902378 209.592864 238.121465 
C 209.592864 238.340553 210.088617 238.550696 210.97094 238.705614 
C 211.853263 238.860532 213.050117 238.947577 214.29791 238.947577 
z
" style="fill:#ff0000;opacity:0.2;stroke:#ff0000;stroke-linejoin:miter;stroke-width:2;"/>
   </g>
   <g id="patch_46">
    <path d="M 168.188458 238.782354 
Q 190.242701 238.46625 211.413152 238.162813 
" style="fill:none;opacity:0.5;stroke:#ff0000;stroke-linecap:round;stroke-width:1.25;"/>
    <path d="M 209.891809 236.684464 
L 211.413152 238.162813 
L 209.934803 239.684156 
" style="fill:none;opacity:0.5;stroke:#ff0000;stroke-linecap:round;stroke-width:1.25;"/>
   </g>
   <g id="[&quot;g_s&quot;:10,&quot;g_t&quot;:12,&quot;coords&quot;:[[241.5, -745.0],[249.0, -793.0]],&quot;certainty&quot;:5]">
    <path clip-path="url(#p546a61b5cd)" d="M 192.654698 291.323047 
C 194.152049 291.323047 195.588275 291.218594 196.647062 291.032692 
C 197.705849 290.84679 198.300753 290.594618 198.300753 290.331713 
C 198.300753 290.068808 197.705849 289.816636 196.647062 289.630734 
C 195.588275 289.444832 194.152049 289.340379 192.654698 289.340379 
C 191.157346 289.340379 189.721121 289.444832 188.662334 289.630734 
C 187.603546 289.816636 187.008642 290.068808 187.008642 290.331713 
C 187.008642 290.594618 187.603546 290.84679 188.662334 291.032692 
C 189.721121 291.218594 191.157346 291.323047 192.654698 291.323047 
z
" style="fill:#0000ff;opacity:0.2;stroke:#0000ff;stroke-linejoin:miter;stroke-width:2;"/>
   </g>
   <g id="[&quot;g_s&quot;:12,&quot;g_t&quot;:10,&quot;coords&quot;:[[249.0, -793.0],[241.5, -745.0]],&quot;certainty&quot;:5]">
    <path clip-path="url(#p546a61b5cd)" d="M 206.769836 307.184388 
C 208.267188 307.184388 209.703413 307.079935 210.7622 306.894033 
C 211.820988 306.708131 212.415892 306.455959 212.415892 306.193054 
C 212.415892 305.930149 211.820988 305.677977 210.7622 305.492075 
C 209.703413 305.306173 208.267188 305.20172 206.769836 305.20172 
C 205.272485 305.20172 203.83626 305.306173 202.777472 305.492075 
C 201.718685 305.677977 201.123781 305.930149 201.123781 306.193054 
C 201.123781 306.455959 201.718685 306.708131 202.777472 306.894033 
C 203.83626 307.079935 205.272485 307.184388 206.769836 307.184388 
z
" style="fill:#ff0000;opacity:0.2;stroke:#ff0000;stroke-linejoin:miter;stroke-width:2;"/>
   </g>
   <g id="patch_47">
    <path d="M 192.654698 290.331713 
Q 199.048035 297.515979 204.736258 303.907899 
" style="fill:none;opacity:0.5;stroke:#ff0000;stroke-linecap:round;stroke-width:1.5;"/>
    <path d="M 204.859621 301.790168 
L 204.736258 303.907899 
L 202.618527 303.784536 
" style="fill:none;opacity:0.5;stroke:#ff0000;stroke-linecap:round;stroke-width:1.5;"/>
   </g>
   <g id="[&quot;g_s&quot;:11,&quot;g_t&quot;:10,&quot;coords&quot;:[[266.5, -755.0],[360.0, -758.0]],&quot;certainty&quot;:6]">
    <path clip-path="url(#p546a61b5cd)" d="M 239.70516 294.792715 
C 241.45207 294.792715 243.127666 294.670853 244.362918 294.453968 
C 245.59817 294.237082 246.292224 293.942881 246.292224 293.636159 
C 246.292224 293.329437 245.59817 293.035236 244.362918 292.81835 
C 243.127666 292.601465 241.45207 292.479603 239.70516 292.479603 
C 237.95825 292.479603 236.282654 292.601465 235.047402 292.81835 
C 233.81215 293.035236 233.118095 293.329437 233.118095 293.636159 
C 233.118095 293.942881 233.81215 294.237082 235.047402 294.453968 
C 236.282654 294.670853 237.95825 294.792715 239.70516 294.792715 
z
" style="fill:#0000ff;opacity:0.2;stroke:#0000ff;stroke-linejoin:miter;stroke-width:2;"/>
   </g>
   <g id="[&quot;g_s&quot;:10,&quot;g_t&quot;:11,&quot;coords&quot;:[[360.0, -758.0],[266.5, -755.0]],&quot;certainty&quot;:6]">
    <path clip-path="url(#p546a61b5cd)" d="M 415.673888 295.784049 
C 417.420798 295.784049 419.096394 295.662187 420.331646 295.445301 
C 421.566898 295.228416 422.260952 294.934215 422.260952 294.627493 
C 422.260952 294.320771 421.566898 294.026569 420.331646 293.809684 
C 419.096394 293.592799 417.420798 293.470937 415.673888 293.470937 
C 413.926978 293.470937 412.251381 293.592799 411.01613 293.809684 
C 409.780878 294.026569 409.086823 294.320771 409.086823 294.627493 
C 409.086823 294.934215 409.780878 295.228416 411.01613 295.445301 
C 412.251381 295.662187 413.926978 295.784049 415.673888 295.784049 
z
" style="fill:#ff0000;opacity:0.2;stroke:#ff0000;stroke-linejoin:miter;stroke-width:2;"/>
   </g>
   <g id="patch_48">
    <path d="M 239.70516 293.636159 
Q 326.689335 294.126191 412.436094 294.609252 
" style="fill:none;opacity:0.5;stroke:#ff0000;stroke-linecap:round;stroke-width:1.75;"/>
    <path d="M 410.944568 293.100826 
L 412.436094 294.609252 
L 410.927667 296.100778 
" style="fill:none;opacity:0.5;stroke:#ff0000;stroke-linecap:round;stroke-width:1.75;"/>
   </g>
   <g id="[&quot;g_s&quot;:12,&quot;g_t&quot;:10,&quot;coords&quot;:[[355.5, -765.0],[360.0, -758.0]],&quot;certainty&quot;:6]">
    <path clip-path="url(#p546a61b5cd)" d="M 407.204805 298.097161 
C 408.951714 298.097161 410.627311 297.975299 411.862563 297.758414 
C 413.097815 297.541528 413.791869 297.247327 413.791869 296.940605 
C 413.791869 296.633883 413.097815 296.339682 411.862563 296.122796 
C 410.627311 295.905911 408.951714 295.784049 407.204805 295.784049 
C 405.457895 295.784049 403.782298 295.905911 402.547046 296.122796 
C 401.311795 296.339682 400.61774 296.633883 400.61774 296.940605 
C 400.61774 297.247327 401.311795 297.541528 402.547046 297.758414 
C 403.782298 297.975299 405.457895 298.097161 407.204805 298.097161 
z
" style="fill:#0000ff;opacity:0.2;stroke:#0000ff;stroke-linejoin:miter;stroke-width:2;"/>
   </g>
   <g id="[&quot;g_s&quot;:10,&quot;g_t&quot;:12,&quot;coords&quot;:[[360.0, -758.0],[355.5, -765.0]],&quot;certainty&quot;:6]">
    <path clip-path="url(#p546a61b5cd)" d="M 415.673888 295.784049 
C 417.420798 295.784049 419.096394 295.662187 420.331646 295.445301 
C 421.566898 295.228416 422.260952 294.934215 422.260952 294.627493 
C 422.260952 294.320771 421.566898 294.026569 420.331646 293.809684 
C 419.096394 293.592799 417.420798 293.470937 415.673888 293.470937 
C 413.926978 293.470937 412.251381 293.592799 411.01613 293.809684 
C 409.780878 294.026569 409.086823 294.320771 409.086823 294.627493 
C 409.086823 294.934215 409.780878 295.228416 411.01613 295.445301 
C 412.251381 295.662187 413.926978 295.784049 415.673888 295.784049 
z
" style="fill:#ff0000;opacity:0.2;stroke:#ff0000;stroke-linejoin:miter;stroke-width:2;"/>
   </g>
   <g id="patch_49">
    <path d="M 407.204805 296.940605 
Q 410.473755 296.047775 412.548991 295.480978 
" style="fill:none;opacity:0.5;stroke:#ff0000;stroke-linecap:round;stroke-width:1.75;"/>
    <path d="M 410.706781 294.429189 
L 412.548991 295.480978 
L 411.497202 297.323188 
" style="fill:none;opacity:0.5;stroke:#ff0000;stroke-linecap:round;stroke-width:1.75;"/>
   </g>
   <g id="[&quot;g_s&quot;:13,&quot;g_t&quot;:11,&quot;coords&quot;:[[354.5, -787.0],[359.0, -789.0]],&quot;certainty&quot;:11]">
    <path clip-path="url(#p546a61b5cd)" d="M 405.322786 306.193054 
C 408.317489 306.193054 411.18994 305.984148 413.307514 305.612344 
C 415.425089 305.240541 416.614897 304.736196 416.614897 304.210386 
C 416.614897 303.684577 415.425089 303.180232 413.307514 302.808429 
C 411.18994 302.436625 408.317489 302.227719 405.322786 302.227719 
C 402.328083 302.227719 399.455633 302.436625 397.338058 302.808429 
C 395.220483 303.180232 394.030675 303.684577 394.030675 304.210386 
C 394.030675 304.736196 395.220483 305.240541 397.338058 305.612344 
C 399.455633 305.984148 402.328083 306.193054 405.322786 306.193054 
z
" style="fill:#0000ff;opacity:0.2;stroke:#0000ff;stroke-linejoin:miter;stroke-width:2;"/>
   </g>
   <g id="[&quot;g_s&quot;:11,&quot;g_t&quot;:13,&quot;coords&quot;:[[359.0, -789.0],[354.5, -787.0]],&quot;certainty&quot;:11]">
    <path clip-path="url(#p546a61b5cd)" d="M 413.791869 306.853943 
C 416.786572 306.853943 419.659023 306.645037 421.776597 306.273233 
C 423.894172 305.90143 425.08398 305.397085 425.08398 304.871276 
C 425.08398 304.345466 423.894172 303.841121 421.776597 303.469318 
C 419.659023 303.097514 416.786572 302.888608 413.791869 302.888608 
C 410.797166 302.888608 407.924716 303.097514 405.807141 303.469318 
C 403.689566 303.841121 402.499758 304.345466 402.499758 304.871276 
C 402.499758 305.397085 403.689566 305.90143 405.807141 306.273233 
C 407.924716 306.645037 410.797166 306.853943 413.791869 306.853943 
z
" style="fill:#ff0000;opacity:0.2;stroke:#ff0000;stroke-linejoin:miter;stroke-width:2;"/>
   </g>
   <g id="patch_50">
    <path d="M 405.322786 304.210386 
Q 408.558654 304.462899 409.679631 304.550375 
" style="fill:none;opacity:0.5;stroke:#ff0000;stroke-linecap:round;stroke-width:3;"/>
    <path d="M 408.300876 302.938223 
L 409.679631 304.550375 
L 408.067479 305.92913 
" style="fill:none;opacity:0.5;stroke:#ff0000;stroke-linecap:round;stroke-width:3;"/>
   </g>
   <g id="[&quot;g_s&quot;:14,&quot;g_t&quot;:12,&quot;coords&quot;:[[244.5, -790.0],[249.0, -793.0]],&quot;certainty&quot;:11]">
    <path clip-path="url(#p546a61b5cd)" d="M 198.300753 307.184388 
C 201.295456 307.184388 204.167907 306.975481 206.285481 306.603678 
C 208.403056 306.231874 209.592864 305.72753 209.592864 305.20172 
C 209.592864 304.675911 208.403056 304.171566 206.285481 303.799762 
C 204.167907 303.427959 201.295456 303.219053 198.300753 303.219053 
C 195.30605 303.219053 192.4336 303.427959 190.316025 303.799762 
C 188.19845 304.171566 187.008642 304.675911 187.008642 305.20172 
C 187.008642 305.72753 188.19845 306.231874 190.316025 306.603678 
C 192.4336 306.975481 195.30605 307.184388 198.300753 307.184388 
z
" style="fill:#0000ff;opacity:0.2;stroke:#0000ff;stroke-linejoin:miter;stroke-width:2;"/>
   </g>
   <g id="[&quot;g_s&quot;:12,&quot;g_t&quot;:14,&quot;coords&quot;:[[249.0, -793.0],[244.5, -790.0]],&quot;certainty&quot;:11]">
    <path clip-path="url(#p546a61b5cd)" d="M 206.769836 308.175722 
C 209.764539 308.175722 212.63699 307.966815 214.754565 307.595012 
C 216.872139 307.223208 218.061947 306.718864 218.061947 306.193054 
C 218.061947 305.667244 216.872139 305.1629 214.754565 304.791096 
C 212.63699 304.419293 209.764539 304.210386 206.769836 304.210386 
C 203.775134 304.210386 200.902683 304.419293 198.785108 304.791096 
C 196.667534 305.1629 195.477725 305.667244 195.477725 306.193054 
C 195.477725 306.718864 196.667534 307.223208 198.785108 307.595012 
C 200.902683 307.966815 203.775134 308.175722 206.769836 308.175722 
z
" style="fill:#ff0000;opacity:0.2;stroke:#ff0000;stroke-linejoin:miter;stroke-width:2;"/>
   </g>
   <g id="patch_51">
    <path d="M 198.300753 305.20172 
Q 201.540756 305.580973 202.673824 305.713602 
" style="fill:none;opacity:0.5;stroke:#ff0000;stroke-linecap:round;stroke-width:3;"/>
    <path d="M 201.358385 304.049385 
L 202.673824 305.713602 
L 201.009607 307.029041 
" style="fill:none;opacity:0.5;stroke:#ff0000;stroke-linecap:round;stroke-width:3;"/>
   </g>
   <g id="patch_52">
    <path clip-path="url(#p546a61b5cd)" d="M 202.535295 30.106586 
C 205.03088 30.106586 207.424589 29.932497 209.189235 29.622661 
C 210.95388 29.312825 211.945387 28.892538 211.945387 28.454363 
C 211.945387 28.016188 210.95388 27.595901 209.189235 27.286065 
C 207.424589 26.976229 205.03088 26.80214 202.535295 26.80214 
C 200.039709 26.80214 197.646 26.976229 195.881355 27.286065 
C 194.116709 27.595901 193.125202 28.016188 193.125202 28.454363 
C 193.125202 28.892538 194.116709 29.312825 195.881355 29.622661 
C 197.646 29.932497 200.039709 30.106586 202.535295 30.106586 
z
" style="fill:#008000;opacity:0.2;stroke:#008000;stroke-linejoin:miter;stroke-width:2;"/>
   </g>
   <g id="patch_53">
    <path clip-path="url(#p546a61b5cd)" d="M 409.557328 31.263142 
C 412.052913 31.263142 414.446622 31.089053 416.211268 30.779217 
C 417.975913 30.469381 418.96742 30.049094 418.96742 29.610919 
C 418.96742 29.172744 417.975913 28.752457 416.211268 28.442621 
C 414.446622 28.132785 412.052913 27.958696 409.557328 27.958696 
C 407.061742 27.958696 404.668033 28.132785 402.903387 28.442621 
C 401.138742 28.752457 400.147235 29.172744 400.147235 29.610919 
C 400.147235 30.049094 401.138742 30.469381 402.903387 30.779217 
C 404.668033 31.089053 407.061742 31.263142 409.557328 31.263142 
z
" style="fill:#008000;opacity:0.2;stroke:#008000;stroke-linejoin:miter;stroke-width:2;"/>
   </g>
   <g id="patch_54">
    <path clip-path="url(#p546a61b5cd)" d="M 411.439346 40.019924 
C 413.934932 40.019924 416.328641 39.845835 418.093286 39.535999 
C 419.857932 39.226163 420.849439 38.805876 420.849439 38.367701 
C 420.849439 37.929526 419.857932 37.509239 418.093286 37.199403 
C 416.328641 36.889567 413.934932 36.715478 411.439346 36.715478 
C 408.94376 36.715478 406.550052 36.889567 404.785406 37.199403 
C 403.02076 37.509239 402.029254 37.929526 402.029254 38.367701 
C 402.029254 38.805876 403.02076 39.226163 404.785406 39.535999 
C 406.550052 39.845835 408.94376 40.019924 411.439346 40.019924 
z
" style="fill:#008000;opacity:0.2;stroke:#008000;stroke-linejoin:miter;stroke-width:2;"/>
   </g>
   <g id="patch_55">
    <path clip-path="url(#p546a61b5cd)" d="M 191.243184 97.352063 
C 193.73877 97.352063 196.132479 97.177975 197.897124 96.868138 
C 199.66177 96.558302 200.653276 96.138015 200.653276 95.69984 
C 200.653276 95.261666 199.66177 94.841378 197.897124 94.531542 
C 196.132479 94.221706 193.73877 94.047617 191.243184 94.047617 
C 188.747598 94.047617 186.353889 94.221706 184.589244 94.531542 
C 182.824598 94.841378 181.833092 95.261666 181.833092 95.69984 
C 181.833092 96.138015 182.824598 96.558302 184.589244 96.868138 
C 186.353889 97.177975 188.747598 97.352063 191.243184 97.352063 
z
" style="fill:#008000;opacity:0.2;stroke:#008000;stroke-linejoin:miter;stroke-width:2;"/>
   </g>
   <g id="patch_56">
    <path clip-path="url(#p546a61b5cd)" d="M 191.243184 240.104133 
C 193.73877 240.104133 196.132479 239.930044 197.897124 239.620208 
C 199.66177 239.310372 200.653276 238.890084 200.653276 238.45191 
C 200.653276 238.013735 199.66177 237.593448 197.897124 237.283612 
C 196.132479 236.973775 193.73877 236.799687 191.243184 236.799687 
C 188.747598 236.799687 186.353889 236.973775 184.589244 237.283612 
C 182.824598 237.593448 181.833092 238.013735 181.833092 238.45191 
C 181.833092 238.890084 182.824598 239.310372 184.589244 239.620208 
C 186.353889 239.930044 188.747598 240.104133 191.243184 240.104133 
z
" style="fill:#008000;opacity:0.2;stroke:#008000;stroke-linejoin:miter;stroke-width:2;"/>
   </g>
   <g id="patch_57">
    <path clip-path="url(#p546a61b5cd)" d="M 411.439346 297.436272 
C 413.934932 297.436272 416.328641 297.262183 418.093286 296.952347 
C 419.857932 296.642511 420.849439 296.222224 420.849439 295.784049 
C 420.849439 295.345874 419.857932 294.925587 418.093286 294.615751 
C 416.328641 294.305915 413.934932 294.131826 411.439346 294.131826 
C 408.94376 294.131826 406.550052 294.305915 404.785406 294.615751 
C 403.02076 294.925587 402.029254 295.345874 402.029254 295.784049 
C 402.029254 296.222224 403.02076 296.642511 404.785406 296.952347 
C 406.550052 297.262183 408.94376 297.436272 411.439346 297.436272 
z
" style="fill:#008000;opacity:0.2;stroke:#008000;stroke-linejoin:miter;stroke-width:2;"/>
   </g>
   <g id="patch_58">
    <path clip-path="url(#p546a61b5cd)" d="M 409.557328 306.193054 
C 412.052913 306.193054 414.446622 306.018965 416.211268 305.709129 
C 417.975913 305.399293 418.96742 304.979006 418.96742 304.540831 
C 418.96742 304.102656 417.975913 303.682369 416.211268 303.372533 
C 414.446622 303.062697 412.052913 302.888608 409.557328 302.888608 
C 407.061742 302.888608 404.668033 303.062697 402.903387 303.372533 
C 401.138742 303.682369 400.147235 304.102656 400.147235 304.540831 
C 400.147235 304.979006 401.138742 305.399293 402.903387 305.709129 
C 404.668033 306.018965 407.061742 306.193054 409.557328 306.193054 
z
" style="fill:#008000;opacity:0.2;stroke:#008000;stroke-linejoin:miter;stroke-width:2;"/>
   </g>
   <g id="patch_59">
    <path clip-path="url(#p546a61b5cd)" d="M 202.535295 307.34961 
C 205.03088 307.34961 207.424589 307.175521 209.189235 306.865685 
C 210.95388 306.555849 211.945387 306.135562 211.945387 305.697387 
C 211.945387 305.259212 210.95388 304.838925 209.189235 304.529089 
C 207.424589 304.219253 205.03088 304.045164 202.535295 304.045164 
C 200.039709 304.045164 197.646 304.219253 195.881355 304.529089 
C 194.116709 304.838925 193.125202 305.259212 193.125202 305.697387 
C 193.125202 306.135562 194.116709 306.555849 195.881355 306.865685 
C 197.646 307.175521 200.039709 307.34961 202.535295 307.34961 
z
" style="fill:#008000;opacity:0.2;stroke:#008000;stroke-linejoin:miter;stroke-width:2;"/>
   </g>
   <g id="patch_60">
    <path clip-path="url(#p546a61b5cd)" d="M 59.972395 312.471501 
C 69.954738 312.471501 79.529573 311.775147 86.588156 310.535802 
C 93.646738 309.296457 97.612765 307.615308 97.612765 305.862609 
C 97.612765 304.109911 93.646738 302.428762 86.588156 301.189417 
C 79.529573 299.950072 69.954738 299.253717 59.972395 299.253717 
C 49.990052 299.253717 40.415217 299.950072 33.356634 301.189417 
C 26.298052 302.428762 22.332025 304.109911 22.332025 305.862609 
C 22.332025 307.615308 26.298052 309.296457 33.356634 310.535802 
C 40.415217 311.775147 49.990052 312.471501 59.972395 312.471501 
z
" style="fill:none;opacity:0.2;stroke:#ff0000;stroke-linejoin:miter;stroke-width:2;"/>
   </g>
   <g id="patch_61">
    <path clip-path="url(#p546a61b5cd)" d="M 68.441478 311.810612 
C 78.423821 311.810612 87.998656 311.114258 95.057239 309.874913 
C 102.115821 308.635567 106.081848 306.954419 106.081848 305.20172 
C 106.081848 303.449021 102.115821 301.767873 95.057239 300.528528 
C 87.998656 299.289183 78.423821 298.592828 68.441478 298.592828 
C 58.459135 298.592828 48.8843 299.289183 41.825717 300.528528 
C 34.767135 301.767873 30.801108 303.449021 30.801108 305.20172 
C 30.801108 306.954419 34.767135 308.635567 41.825717 309.874913 
C 48.8843 311.114258 58.459135 311.810612 68.441478 311.810612 
z
" style="fill:none;opacity:0.2;stroke:#0000ff;stroke-linejoin:miter;stroke-width:2;"/>
   </g>
   <g id="patch_62">
    <path clip-path="url(#p546a61b5cd)" d="M 206.769836 31.263142 
C 211.761008 31.263142 216.548426 30.914965 220.077717 30.295292 
C 223.607008 29.67562 225.590021 28.835045 225.590021 27.958696 
C 225.590021 27.082347 223.607008 26.241772 220.077717 25.6221 
C 216.548426 25.002427 211.761008 24.65425 206.769836 24.65425 
C 201.778665 24.65425 196.991247 25.002427 193.461956 25.6221 
C 189.932665 26.241772 187.949652 27.082347 187.949652 27.958696 
C 187.949652 28.835045 189.932665 29.67562 193.461956 30.295292 
C 196.991247 30.914965 201.778665 31.263142 206.769836 31.263142 
z
" style="fill:none;opacity:0.2;stroke:#008000;stroke-linejoin:miter;stroke-width:2;"/>
   </g>
   <g id="patch_63">
    <path clip-path="url(#p546a61b5cd)" d="M 198.300753 32.254476 
C 203.291925 32.254476 208.079342 31.906299 211.608634 31.286626 
C 215.137925 30.666954 217.120938 29.826379 217.120938 28.95003 
C 217.120938 28.073681 215.137925 27.233106 211.608634 26.613434 
C 208.079342 25.993761 203.291925 25.645584 198.300753 25.645584 
C 193.309582 25.645584 188.522164 25.993761 184.992873 26.613434 
C 181.463582 27.233106 179.480568 28.073681 179.480568 28.95003 
C 179.480568 29.826379 181.463582 30.666954 184.992873 31.286626 
C 188.522164 31.906299 193.309582 32.254476 198.300753 32.254476 
z
" style="fill:none;opacity:0.2;stroke:#008000;stroke-linejoin:miter;stroke-width:2;"/>
   </g>
   <g id="patch_64">
    <path d="M 202.535295 28.454363 
Q 306.046311 29.032641 409.557328 29.610919 
" style="fill:none;opacity:0.5;stroke:#008000;stroke-linecap:round;stroke-width:2;"/>
   </g>
   <g id="patch_65">
    <path d="M 205.365213 28.123112 
Q 203.529833 28.337949 201.694453 28.552786 
" style="fill:none;opacity:0.5;stroke:#800080;stroke-linecap:round;stroke-width:2;"/>
    <path d="M 203.700995 26.807673 
L 205.365213 28.123112 
L 204.049774 29.787329 
" style="fill:none;opacity:0.5;stroke:#800080;stroke-linecap:round;stroke-width:2;"/>
    <path d="M 203.358671 29.868225 
L 201.694453 28.552786 
L 203.009893 26.888569 
" style="fill:none;opacity:0.5;stroke:#800080;stroke-linecap:round;stroke-width:2;"/>
   </g>
   <g id="patch_66">
    <path d="M 409.557328 29.610919 
Q 410.498337 33.98931 411.439346 38.367701 
" style="fill:none;opacity:0.5;stroke:#008000;stroke-linecap:round;stroke-width:2;"/>
   </g>
   <g id="patch_67">
    <path d="M 412.381942 29.390499 
Q 410.556001 29.532987 408.73006 29.675475 
" style="fill:none;opacity:0.5;stroke:#800080;stroke-linecap:round;stroke-width:2;"/>
    <path d="M 410.76979 28.011744 
L 412.381942 29.390499 
L 411.003187 31.002651 
" style="fill:none;opacity:0.5;stroke:#800080;stroke-linecap:round;stroke-width:2;"/>
    <path d="M 410.342213 31.05423 
L 408.73006 29.675475 
L 410.108816 28.063323 
" style="fill:none;opacity:0.5;stroke:#800080;stroke-linecap:round;stroke-width:2;"/>
   </g>
   <g id="patch_68">
    <path d="M 411.439346 38.367701 
Q 301.341265 67.033771 191.243184 95.69984 
" style="fill:none;opacity:0.5;stroke:#008000;stroke-linecap:round;stroke-width:2;"/>
   </g>
   <g id="patch_69">
    <path d="M 414.309643 39.151649 
Q 412.404937 38.631428 410.500232 38.111206 
" style="fill:none;opacity:0.5;stroke:#800080;stroke-linecap:round;stroke-width:2;"/>
    <path d="M 413.257854 37.309438 
L 414.309643 39.151649 
L 412.467433 40.203438 
" style="fill:none;opacity:0.5;stroke:#800080;stroke-linecap:round;stroke-width:2;"/>
    <path d="M 411.552021 39.953417 
L 410.500232 38.111206 
L 412.342442 37.059417 
" style="fill:none;opacity:0.5;stroke:#800080;stroke-linecap:round;stroke-width:2;"/>
   </g>
   <g id="patch_70">
    <path d="M 191.243184 95.69984 
Q 191.243184 167.075875 191.243184 238.45191 
" style="fill:none;opacity:0.5;stroke:#008000;stroke-linecap:round;stroke-width:2;"/>
   </g>
   <g id="patch_71">
    <path d="M 212.883842 96.010017 
Q 192.243667 95.71418 171.603491 95.418343 
" style="fill:none;opacity:0.5;stroke:#800080;stroke-linecap:round;stroke-width:2;"/>
    <path d="M 211.405493 94.488674 
L 212.883842 96.010017 
L 211.362499 97.488365 
" style="fill:none;opacity:0.5;stroke:#800080;stroke-linecap:round;stroke-width:2;"/>
    <path d="M 173.08184 96.939687 
L 171.603491 95.418343 
L 173.124835 93.939995 
" style="fill:none;opacity:0.5;stroke:#800080;stroke-linecap:round;stroke-width:2;"/>
   </g>
   <g id="patch_72">
    <path clip-path="url(#p546a61b5cd)" d="M 415.673888 297.931939 
C 420.665059 297.931939 425.452477 297.583762 428.981768 296.964089 
C 432.511059 296.344416 434.494072 295.503842 434.494072 294.627493 
C 434.494072 293.751143 432.511059 292.910569 428.981768 292.290897 
C 425.452477 291.671224 420.665059 291.323047 415.673888 291.323047 
C 410.682716 291.323047 405.895298 291.671224 402.366007 292.290897 
C 398.836716 292.910569 396.853703 293.751143 396.853703 294.627493 
C 396.853703 295.503842 398.836716 296.344416 402.366007 296.964089 
C 405.895298 297.583762 410.682716 297.931939 415.673888 297.931939 
z
" style="fill:none;opacity:0.2;stroke:#008000;stroke-linejoin:miter;stroke-width:2;"/>
   </g>
   <g id="patch_73">
    <path clip-path="url(#p546a61b5cd)" d="M 407.204805 300.245051 
C 412.195976 300.245051 416.983394 299.896874 420.512685 299.277201 
C 424.041976 298.657529 426.024989 297.816954 426.024989 296.940605 
C 426.024989 296.064256 424.041976 295.223681 420.512685 294.604009 
C 416.983394 293.984336 412.195976 293.636159 407.204805 293.636159 
C 402.213633 293.636159 397.426215 293.984336 393.896924 294.604009 
C 390.367633 295.223681 388.38462 296.064256 388.38462 296.940605 
C 388.38462 297.816954 390.367633 298.657529 393.896924 299.277201 
C 397.426215 299.896874 402.213633 300.245051 407.204805 300.245051 
z
" style="fill:none;opacity:0.2;stroke:#008000;stroke-linejoin:miter;stroke-width:2;"/>
   </g>
   <g id="patch_74">
    <path d="M 411.439346 295.784049 
Q 410.498337 300.16244 409.557328 304.540831 
" style="fill:none;opacity:0.5;stroke:#008000;stroke-linecap:round;stroke-width:2;"/>
   </g>
   <g id="patch_75">
    <path d="M 414.309643 295.000101 
Q 412.404937 295.520322 410.500232 296.040544 
" style="fill:none;opacity:0.5;stroke:#800080;stroke-linecap:round;stroke-width:2;"/>
    <path d="M 412.467433 293.948312 
L 414.309643 295.000101 
L 413.257854 296.842312 
" style="fill:none;opacity:0.5;stroke:#800080;stroke-linecap:round;stroke-width:2;"/>
    <path d="M 412.342442 297.092333 
L 410.500232 296.040544 
L 411.552021 294.198333 
" style="fill:none;opacity:0.5;stroke:#800080;stroke-linecap:round;stroke-width:2;"/>
   </g>
   <g id="patch_76">
    <path d="M 409.557328 304.540831 
Q 306.046311 305.119109 202.535295 305.697387 
" style="fill:none;opacity:0.5;stroke:#008000;stroke-linecap:round;stroke-width:2;"/>
   </g>
   <g id="patch_77">
    <path d="M 412.381942 304.761251 
Q 410.556001 304.618763 408.73006 304.476275 
" style="fill:none;opacity:0.5;stroke:#800080;stroke-linecap:round;stroke-width:2;"/>
    <path d="M 411.003187 303.149099 
L 412.381942 304.761251 
L 410.76979 306.140006 
" style="fill:none;opacity:0.5;stroke:#800080;stroke-linecap:round;stroke-width:2;"/>
    <path d="M 410.108816 306.088427 
L 408.73006 304.476275 
L 410.342213 303.09752 
" style="fill:none;opacity:0.5;stroke:#800080;stroke-linecap:round;stroke-width:2;"/>
   </g>
   <g id="line2d_1">
    <path clip-path="url(#p546a61b5cd)" d="M 59.972395 305.862609 
L 59.972395 28.289141 
L 206.769836 27.958696 
L 413.791869 29.280474 
L 415.673888 39.524257 
L 285.814613 43.159148 
L 214.29791 96.030285 
L 214.29791 238.121465 
L 285.814613 290.992602 
L 415.673888 294.627493 
L 413.791869 304.871276 
L 206.769836 306.193054 
" style="fill:none;stroke:#ff0000;stroke-linecap:square;stroke-width:0.2;"/>
   </g>
   <g id="line2d_2">
    <path clip-path="url(#p546a61b5cd)" d="M 68.441478 305.20172 
L 68.441478 28.95003 
L 198.300753 28.95003 
L 405.322786 29.941364 
L 407.204805 37.211145 
L 239.70516 40.515591 
L 192.654698 43.820037 
L 168.188458 95.369396 
L 168.188458 238.782354 
L 192.654698 290.331713 
L 239.70516 293.636159 
L 407.204805 296.940605 
L 405.322786 304.210386 
L 198.300753 305.20172 
" style="fill:none;stroke:#0000ff;stroke-linecap:square;stroke-width:0.2;"/>
   </g>
  </g>
 </g>
 <defs>
  <clipPath id="p546a61b5cd">
   <rect height="307.51175" width="409.903625" x="37.576375" y="13.32"/>
  </clipPath>
 </defs>
</svg>
