<?xml version="1.0" encoding="utf-8" standalone="no"?>
<!DOCTYPE svg PUBLIC "-//W3C//DTD SVG 1.1//EN"
  "http://www.w3.org/Graphics/SVG/1.1/DTD/svg11.dtd">
<!-- Created with matplotlib (http://matplotlib.org/) -->
<svg height="345.6pt" version="1.1" viewBox="0 0 460.8 345.6" width="460.8pt" xmlns="http://www.w3.org/2000/svg" xmlns:xlink="http://www.w3.org/1999/xlink">
 <defs>
  <style type="text/css">
*{stroke-linecap:butt;stroke-linejoin:round;}
  </style>
 </defs>
 <g id="figure_1">
  <g id="patch_1">
   <path d="M 0 345.6 
L 460.8 345.6 
L 460.8 0 
L 0 0 
z
" style="fill:#ffffff;"/>
  </g>
  <g id="axes_1">
   <g id="patch_2">
    <path clip-path="url(#pa6d7fb3766)" d="M 242.528188 306.853943 
C 243.318789 306.853943 244.077116 306.488033 244.636156 305.836799 
C 245.195195 305.185566 245.509305 304.302179 245.509305 303.381196 
C 245.509305 302.460213 245.195195 301.576827 244.636156 300.925593 
C 244.077116 300.27436 243.318789 299.908449 242.528188 299.908449 
C 241.737586 299.908449 240.979259 300.27436 240.420219 300.925593 
C 239.86118 301.576827 239.54707 302.460213 239.54707 303.381196 
C 239.54707 304.302179 239.86118 305.185566 240.420219 305.836799 
C 240.979259 306.488033 241.737586 306.853943 242.528188 306.853943 
z
" style="fill:#ff0000;opacity:0.2;stroke:#ff0000;stroke-linejoin:miter;stroke-width:2;"/>
   </g>
   <g id="patch_3">
    <path clip-path="url(#pa6d7fb3766)" d="M 62.170592 39.452421 
C 62.961194 39.452421 63.719521 39.086511 64.278561 38.435277 
C 64.8376 37.784044 65.15171 36.900658 65.15171 35.979674 
C 65.15171 35.058691 64.8376 34.175305 64.278561 33.524071 
C 63.719521 32.872838 62.961194 32.506927 62.170592 32.506927 
C 61.379991 32.506927 60.621664 32.872838 60.062624 33.524071 
C 59.503585 34.175305 59.189475 35.058691 59.189475 35.979674 
C 59.189475 36.900658 59.503585 37.784044 60.062624 38.435277 
C 60.621664 39.086511 61.379991 39.452421 62.170592 39.452421 
z
" style="fill:#ff0000;opacity:0.2;stroke:#ff0000;stroke-linejoin:miter;stroke-width:2;"/>
   </g>
   <g id="patch_4">
    <path clip-path="url(#pa6d7fb3766)" d="M 106.887352 39.452421 
C 107.677953 39.452421 108.43628 39.086511 108.99532 38.435277 
C 109.55436 37.784044 109.868469 36.900658 109.868469 35.979674 
C 109.868469 35.058691 109.55436 34.175305 108.99532 33.524071 
C 108.43628 32.872838 107.677953 32.506927 106.887352 32.506927 
C 106.09675 32.506927 105.338423 32.872838 104.779383 33.524071 
C 104.220344 34.175305 103.906234 35.058691 103.906234 35.979674 
C 103.906234 36.900658 104.220344 37.784044 104.779383 38.435277 
C 105.338423 39.086511 106.09675 39.452421 106.887352 39.452421 
z
" style="fill:#ff0000;opacity:0.2;stroke:#ff0000;stroke-linejoin:miter;stroke-width:2;"/>
   </g>
   <g id="patch_5">
    <path clip-path="url(#pa6d7fb3766)" d="M 242.528188 167.944062 
C 243.318789 167.944062 244.077116 167.578151 244.636156 166.926918 
C 245.195195 166.275684 245.509305 165.392298 245.509305 164.471315 
C 245.509305 163.550331 245.195195 162.666945 244.636156 162.015712 
C 244.077116 161.364478 243.318789 160.998568 242.528188 160.998568 
C 241.737586 160.998568 240.979259 161.364478 240.420219 162.015712 
C 239.86118 162.666945 239.54707 163.550331 239.54707 164.471315 
C 239.54707 165.392298 239.86118 166.275684 240.420219 166.926918 
C 240.979259 167.578151 241.737586 167.944062 242.528188 167.944062 
z
" style="fill:#ff0000;opacity:0.2;stroke:#ff0000;stroke-linejoin:miter;stroke-width:2;"/>
   </g>
   <g id="patch_6">
    <path clip-path="url(#pa6d7fb3766)" d="M 378.169023 39.452421 
C 378.959625 39.452421 379.717952 39.086511 380.276992 38.435277 
C 380.836031 37.784044 381.150141 36.900658 381.150141 35.979674 
C 381.150141 35.058691 380.836031 34.175305 380.276992 33.524071 
C 379.717952 32.872838 378.959625 32.506927 378.169023 32.506927 
C 377.378422 32.506927 376.620095 32.872838 376.061055 33.524071 
C 375.502015 34.175305 375.187906 35.058691 375.187906 35.979674 
C 375.187906 36.900658 375.502015 37.784044 376.061055 38.435277 
C 376.620095 39.086511 377.378422 39.452421 378.169023 39.452421 
z
" style="fill:#ff0000;opacity:0.2;stroke:#ff0000;stroke-linejoin:miter;stroke-width:2;"/>
   </g>
   <g id="patch_7">
    <path clip-path="url(#pa6d7fb3766)" d="M 422.885783 39.452421 
C 423.676384 39.452421 424.434711 39.086511 424.993751 38.435277 
C 425.55279 37.784044 425.8669 36.900658 425.8669 35.979674 
C 425.8669 35.058691 425.55279 34.175305 424.993751 33.524071 
C 424.434711 32.872838 423.676384 32.506927 422.885783 32.506927 
C 422.095181 32.506927 421.336854 32.872838 420.777814 33.524071 
C 420.218775 34.175305 419.904665 35.058691 419.904665 35.979674 
C 419.904665 36.900658 420.218775 37.784044 420.777814 38.435277 
C 421.336854 39.086511 422.095181 39.452421 422.885783 39.452421 
z
" style="fill:#ff0000;opacity:0.2;stroke:#ff0000;stroke-linejoin:miter;stroke-width:2;"/>
   </g>
   <g id="patch_8">
    <path clip-path="url(#pa6d7fb3766)" d="M 241.782908 281.676527 
C 242.57351 281.676527 243.331837 281.310617 243.890876 280.659383 
C 244.449916 280.00815 244.764025 279.124763 244.764025 278.20378 
C 244.764025 277.282797 244.449916 276.399411 243.890876 275.748177 
C 243.331837 275.096944 242.57351 274.731033 241.782908 274.731033 
C 240.992307 274.731033 240.23398 275.096944 239.67494 275.748177 
C 239.1159 276.399411 238.801791 277.282797 238.801791 278.20378 
C 238.801791 279.124763 239.1159 280.00815 239.67494 280.659383 
C 240.23398 281.310617 240.992307 281.676527 241.782908 281.676527 
z
" style="fill:#0000ff;opacity:0.2;stroke:#0000ff;stroke-linejoin:miter;stroke-width:2;"/>
   </g>
   <g id="patch_9">
    <path clip-path="url(#pa6d7fb3766)" d="M 86.76481 54.211596 
C 87.555412 54.211596 88.313739 53.845686 88.872778 53.194452 
C 89.431818 52.543219 89.745927 51.659833 89.745927 50.738849 
C 89.745927 49.817866 89.431818 48.93448 88.872778 48.283246 
C 88.313739 47.632013 87.555412 47.266102 86.76481 47.266102 
C 85.974208 47.266102 85.215881 47.632013 84.656842 48.283246 
C 84.097802 48.93448 83.783693 49.817866 83.783693 50.738849 
C 83.783693 51.659833 84.097802 52.543219 84.656842 53.194452 
C 85.215881 53.845686 85.974208 54.211596 86.76481 54.211596 
z
" style="fill:#0000ff;opacity:0.2;stroke:#0000ff;stroke-linejoin:miter;stroke-width:2;"/>
   </g>
   <g id="patch_10">
    <path clip-path="url(#pa6d7fb3766)" d="M 119.5571 54.211596 
C 120.347702 54.211596 121.106029 53.845686 121.665068 53.194452 
C 122.224108 52.543219 122.538217 51.659833 122.538217 50.738849 
C 122.538217 49.817866 122.224108 48.93448 121.665068 48.283246 
C 121.106029 47.632013 120.347702 47.266102 119.5571 47.266102 
C 118.766498 47.266102 118.008171 47.632013 117.449132 48.283246 
C 116.890092 48.93448 116.575983 49.817866 116.575983 50.738849 
C 116.575983 51.659833 116.890092 52.543219 117.449132 53.194452 
C 118.008171 53.845686 118.766498 54.211596 119.5571 54.211596 
z
" style="fill:#0000ff;opacity:0.2;stroke:#0000ff;stroke-linejoin:miter;stroke-width:2;"/>
   </g>
   <g id="patch_11">
    <path clip-path="url(#pa6d7fb3766)" d="M 241.782908 182.703237 
C 242.57351 182.703237 243.331837 182.337326 243.890876 181.686093 
C 244.449916 181.034859 244.764025 180.151473 244.764025 179.23049 
C 244.764025 178.309506 244.449916 177.42612 243.890876 176.774887 
C 243.331837 176.123653 242.57351 175.757743 241.782908 175.757743 
C 240.992307 175.757743 240.23398 176.123653 239.67494 176.774887 
C 239.1159 177.42612 238.801791 178.309506 238.801791 179.23049 
C 238.801791 180.151473 239.1159 181.034859 239.67494 181.686093 
C 240.23398 182.337326 240.992307 182.703237 241.782908 182.703237 
z
" style="fill:#0000ff;opacity:0.2;stroke:#0000ff;stroke-linejoin:miter;stroke-width:2;"/>
   </g>
   <g id="patch_12">
    <path clip-path="url(#pa6d7fb3766)" d="M 365.499275 54.211596 
C 366.289877 54.211596 367.048204 53.845686 367.607243 53.194452 
C 368.166283 52.543219 368.480392 51.659833 368.480392 50.738849 
C 368.480392 49.817866 368.166283 48.93448 367.607243 48.283246 
C 367.048204 47.632013 366.289877 47.266102 365.499275 47.266102 
C 364.708673 47.266102 363.950346 47.632013 363.391307 48.283246 
C 362.832267 48.93448 362.518158 49.817866 362.518158 50.738849 
C 362.518158 51.659833 362.832267 52.543219 363.391307 53.194452 
C 363.950346 53.845686 364.708673 54.211596 365.499275 54.211596 
z
" style="fill:#0000ff;opacity:0.2;stroke:#0000ff;stroke-linejoin:miter;stroke-width:2;"/>
   </g>
   <g id="patch_13">
    <path clip-path="url(#pa6d7fb3766)" d="M 398.291565 54.211596 
C 399.082167 54.211596 399.840494 53.845686 400.399533 53.194452 
C 400.958573 52.543219 401.272682 51.659833 401.272682 50.738849 
C 401.272682 49.817866 400.958573 48.93448 400.399533 48.283246 
C 399.840494 47.632013 399.082167 47.266102 398.291565 47.266102 
C 397.500963 47.266102 396.742636 47.632013 396.183597 48.283246 
C 395.624557 48.93448 395.310448 49.817866 395.310448 50.738849 
C 395.310448 51.659833 395.624557 52.543219 396.183597 53.194452 
C 396.742636 53.845686 397.500963 54.211596 398.291565 54.211596 
z
" style="fill:#0000ff;opacity:0.2;stroke:#0000ff;stroke-linejoin:miter;stroke-width:2;"/>
   </g>
   <g id="patch_14">
    <path clip-path="url(#pa6d7fb3766)" d="M 242.528188 303.381196 
C 120.302379 303.381196 56.208358 206.144279 62.170592 35.979674 
C 72.604503 27.297807 97.944 27.297807 106.887352 35.979674 
C 121.792938 112.380109 176.943608 164.471315 242.528188 164.471315 
C 308.112768 164.471315 363.263437 121.061977 378.169023 35.979674 
C 387.112375 27.297807 412.451872 27.297807 422.885783 35.979674 
C 428.848017 206.144279 364.753996 303.381196 242.528188 303.381196 
" style="fill:none;stroke:#ff0000;stroke-linejoin:miter;stroke-width:0.5;"/>
   </g>
   <g id="patch_15">
    <path clip-path="url(#pa6d7fb3766)" d="M 241.782908 278.20378 
C 138.934362 278.20378 79.312017 205.276092 86.76481 50.738849 
C 94.217603 43.793355 112.104307 43.793355 119.5571 50.738849 
C 137.443804 142.766646 194.085032 179.23049 241.782908 179.23049 
C 289.480785 179.23049 346.122013 142.766646 365.499275 50.738849 
C 371.46151 43.793355 389.348213 43.793355 398.291565 50.738849 
C 404.2538 205.276092 344.631454 278.20378 241.782908 278.20378 
" style="fill:none;stroke:#0000ff;stroke-linejoin:miter;stroke-width:0.5;"/>
   </g>
   <g id="[&quot;g_s&quot;:1,&quot;g_t&quot;:1,&quot;coords&quot;:[[240.0, -212.0],[239.5, -197.5]],&quot;certainty&quot;:12]">
    <path clip-path="url(#pa6d7fb3766)" d="M 242.528188 314.667624 
C 245.097643 314.667624 247.562205 313.478415 249.379084 311.361906 
C 251.195963 309.245397 252.216819 306.374392 252.216819 303.381196 
C 252.216819 300.388 251.195963 297.516995 249.379084 295.400486 
C 247.562205 293.283978 245.097643 292.094768 242.528188 292.094768 
C 239.958732 292.094768 237.49417 293.283978 235.677291 295.400486 
C 233.860412 297.516995 232.839556 300.388 232.839556 303.381196 
C 232.839556 306.374392 233.860412 309.245397 235.677291 311.361906 
C 237.49417 313.478415 239.958732 314.667624 242.528188 314.667624 
z
" style="fill:#0000ff;opacity:0.2;stroke:#0000ff;stroke-linejoin:miter;stroke-width:2;"/>
   </g>
   <g id="[&quot;g_s&quot;:1,&quot;g_t&quot;:1,&quot;coords&quot;:[[239.5, -197.5],[240.0, -212.0]],&quot;certainty&quot;:12]">
    <path clip-path="url(#pa6d7fb3766)" d="M 241.782908 289.490208 
C 244.352363 289.490208 246.816926 288.300999 248.633805 286.18449 
C 250.450684 284.067981 251.471539 281.196976 251.471539 278.20378 
C 251.471539 275.210584 250.450684 272.339579 248.633805 270.22307 
C 246.816926 268.106562 244.352363 266.917352 241.782908 266.917352 
C 239.213453 266.917352 236.74889 268.106562 234.932011 270.22307 
C 233.115132 272.339579 232.094277 275.210584 232.094277 278.20378 
C 232.094277 281.196976 233.115132 284.067981 234.932011 286.18449 
C 236.74889 288.300999 239.213453 289.490208 241.782908 289.490208 
z
" style="fill:#ff0000;opacity:0.2;stroke:#ff0000;stroke-linejoin:miter;stroke-width:2;"/>
   </g>
   <g id="patch_16">
    <path d="M 242.528188 303.381196 
Q 242.185161 291.792885 241.91013 282.501664 
" style="fill:none;opacity:0.5;stroke:#0000ff;stroke-linecap:round;stroke-width:3.25;"/>
    <path d="M 240.455169 284.04539 
L 241.91013 282.501664 
L 243.453856 283.956625 
" style="fill:none;opacity:0.5;stroke:#0000ff;stroke-linecap:round;stroke-width:3.25;"/>
   </g>
   <g id="[&quot;g_s&quot;:2,&quot;g_t&quot;:2,&quot;coords&quot;:[[119.0, -58.0],[135.5, -66.5]],&quot;certainty&quot;:10]">
    <path clip-path="url(#pa6d7fb3766)" d="M 62.170592 45.529729 
C 64.344747 45.529729 66.430146 44.523475 67.967505 42.732583 
C 69.504864 40.94169 70.368665 38.512378 70.368665 35.979674 
C 70.368665 33.44697 69.504864 31.017658 67.967505 29.226766 
C 66.430146 27.435874 64.344747 26.42962 62.170592 26.42962 
C 59.996438 26.42962 57.911039 27.435874 56.37368 29.226766 
C 54.836321 31.017658 53.97252 33.44697 53.97252 35.979674 
C 53.97252 38.512378 54.836321 40.94169 56.37368 42.732583 
C 57.911039 44.523475 59.996438 45.529729 62.170592 45.529729 
z
" style="fill:#0000ff;opacity:0.2;stroke:#0000ff;stroke-linejoin:miter;stroke-width:2;"/>
   </g>
   <g id="[&quot;g_s&quot;:2,&quot;g_t&quot;:2,&quot;coords&quot;:[[135.5, -66.5],[119.0, -58.0]],&quot;certainty&quot;:10]">
    <path clip-path="url(#pa6d7fb3766)" d="M 86.76481 60.288904 
C 88.938964 60.288904 91.024363 59.28265 92.561723 57.491757 
C 94.099082 55.700865 94.962883 53.271553 94.962883 50.738849 
C 94.962883 48.206145 94.099082 45.776833 92.561723 43.985941 
C 91.024363 42.195049 88.938964 41.188795 86.76481 41.188795 
C 84.590656 41.188795 82.505257 42.195049 80.967897 43.985941 
C 79.430538 45.776833 78.566738 48.206145 78.566738 50.738849 
C 78.566738 53.271553 79.430538 55.700865 80.967897 57.491757 
C 82.505257 59.28265 84.590656 60.288904 86.76481 60.288904 
z
" style="fill:#ff0000;opacity:0.2;stroke:#ff0000;stroke-linejoin:miter;stroke-width:2;"/>
   </g>
   <g id="patch_17">
    <path d="M 62.170592 35.979674 
Q 73.610566 42.844889 83.383187 48.709512 
" style="fill:none;opacity:0.5;stroke:#0000ff;stroke-linecap:round;stroke-width:2.75;"/>
    <path d="M 82.868854 46.651488 
L 83.383187 48.709512 
L 81.325163 49.223845 
" style="fill:none;opacity:0.5;stroke:#0000ff;stroke-linecap:round;stroke-width:2.75;"/>
   </g>
   <g id="[&quot;g_s&quot;:3,&quot;g_t&quot;:3,&quot;coords&quot;:[[149.0, -58.0],[157.5, -66.5]],&quot;certainty&quot;:6]">
    <path clip-path="url(#pa6d7fb3766)" d="M 106.887352 42.056982 
C 108.270904 42.056982 109.597977 41.416638 110.576296 40.27698 
C 111.554616 39.137321 112.104307 37.591395 112.104307 35.979674 
C 112.104307 34.367954 111.554616 32.822028 110.576296 31.682369 
C 109.597977 30.542711 108.270904 29.902367 106.887352 29.902367 
C 105.503799 29.902367 104.176727 30.542711 103.198407 31.682369 
C 102.220088 32.822028 101.670396 34.367954 101.670396 35.979674 
C 101.670396 37.591395 102.220088 39.137321 103.198407 40.27698 
C 104.176727 41.416638 105.503799 42.056982 106.887352 42.056982 
z
" style="fill:#0000ff;opacity:0.2;stroke:#0000ff;stroke-linejoin:miter;stroke-width:2;"/>
   </g>
   <g id="[&quot;g_s&quot;:3,&quot;g_t&quot;:3,&quot;coords&quot;:[[157.5, -66.5],[149.0, -58.0]],&quot;certainty&quot;:6]">
    <path clip-path="url(#pa6d7fb3766)" d="M 119.5571 56.816157 
C 120.940653 56.816157 122.267725 56.175813 123.246044 55.036155 
C 124.224364 53.896496 124.774055 52.35057 124.774055 50.738849 
C 124.774055 49.127129 124.224364 47.581203 123.246044 46.441544 
C 122.267725 45.301885 120.940653 44.661542 119.5571 44.661542 
C 118.173547 44.661542 116.846475 45.301885 115.868156 46.441544 
C 114.889836 47.581203 114.340145 49.127129 114.340145 50.738849 
C 114.340145 52.35057 114.889836 53.896496 115.868156 55.036155 
C 116.846475 56.175813 118.173547 56.816157 119.5571 56.816157 
z
" style="fill:#ff0000;opacity:0.2;stroke:#ff0000;stroke-linejoin:miter;stroke-width:2;"/>
   </g>
   <g id="patch_18">
    <path d="M 106.887352 35.979674 
Q 112.571107 42.600764 117.448852 48.28292 
" style="fill:none;opacity:0.5;stroke:#0000ff;stroke-linecap:round;stroke-width:1.75;"/>
    <path d="M 117.609979 46.167728 
L 117.448852 48.28292 
L 115.33366 48.121793 
" style="fill:none;opacity:0.5;stroke:#0000ff;stroke-linecap:round;stroke-width:1.75;"/>
   </g>
   <g id="[&quot;g_s&quot;:4,&quot;g_t&quot;:4,&quot;coords&quot;:[[240.0, -132.0],[239.5, -140.5]],&quot;certainty&quot;:11]">
    <path clip-path="url(#pa6d7fb3766)" d="M 242.528188 174.889556 
C 244.899992 174.889556 247.174973 173.791824 248.852092 171.838124 
C 250.529211 169.884423 251.471539 167.234265 251.471539 164.471315 
C 251.471539 161.708365 250.529211 159.058206 248.852092 157.104506 
C 247.174973 155.150805 244.899992 154.053074 242.528188 154.053074 
C 240.156383 154.053074 237.881402 155.150805 236.204283 157.104506 
C 234.527164 159.058206 233.584836 161.708365 233.584836 164.471315 
C 233.584836 167.234265 234.527164 169.884423 236.204283 171.838124 
C 237.881402 173.791824 240.156383 174.889556 242.528188 174.889556 
z
" style="fill:#0000ff;opacity:0.2;stroke:#0000ff;stroke-linejoin:miter;stroke-width:2;"/>
   </g>
   <g id="[&quot;g_s&quot;:4,&quot;g_t&quot;:4,&quot;coords&quot;:[[239.5, -140.5],[240.0, -132.0]],&quot;certainty&quot;:11]">
    <path clip-path="url(#pa6d7fb3766)" d="M 241.782908 189.648731 
C 244.154713 189.648731 246.429694 188.550999 248.106813 186.597299 
C 249.783932 184.643598 250.72626 181.993439 250.72626 179.23049 
C 250.72626 176.46754 249.783932 173.817381 248.106813 171.863681 
C 246.429694 169.90998 244.154713 168.812249 241.782908 168.812249 
C 239.411104 168.812249 237.136123 169.90998 235.459003 171.863681 
C 233.781884 173.817381 232.839556 176.46754 232.839556 179.23049 
C 232.839556 181.993439 233.781884 184.643598 235.459003 186.597299 
C 237.136123 188.550999 239.411104 189.648731 241.782908 189.648731 
z
" style="fill:#ff0000;opacity:0.2;stroke:#ff0000;stroke-linejoin:miter;stroke-width:2;"/>
   </g>
   <g id="patch_19">
    <path d="M 242.528188 164.471315 
Q 242.20604 170.850982 241.990874 175.112029 
" style="fill:none;opacity:0.5;stroke:#0000ff;stroke-linecap:round;stroke-width:3;"/>
    <path d="M 243.564613 173.689586 
L 241.990874 175.112029 
L 240.56843 173.53829 
" style="fill:none;opacity:0.5;stroke:#0000ff;stroke-linecap:round;stroke-width:3;"/>
   </g>
   <g id="[&quot;g_s&quot;:5,&quot;g_t&quot;:5,&quot;coords&quot;:[[331.0, -58.0],[322.5, -66.5]],&quot;certainty&quot;:6]">
    <path clip-path="url(#pa6d7fb3766)" d="M 378.169023 42.056982 
C 379.552576 42.056982 380.879648 41.416638 381.857968 40.27698 
C 382.836287 39.137321 383.385979 37.591395 383.385979 35.979674 
C 383.385979 34.367954 382.836287 32.822028 381.857968 31.682369 
C 380.879648 30.542711 379.552576 29.902367 378.169023 29.902367 
C 376.785471 29.902367 375.458398 30.542711 374.480079 31.682369 
C 373.501759 32.822028 372.952068 34.367954 372.952068 35.979674 
C 372.952068 37.591395 373.501759 39.137321 374.480079 40.27698 
C 375.458398 41.416638 376.785471 42.056982 378.169023 42.056982 
z
" style="fill:#0000ff;opacity:0.2;stroke:#0000ff;stroke-linejoin:miter;stroke-width:2;"/>
   </g>
   <g id="[&quot;g_s&quot;:5,&quot;g_t&quot;:5,&quot;coords&quot;:[[322.5, -66.5],[331.0, -58.0]],&quot;certainty&quot;:6]">
    <path clip-path="url(#pa6d7fb3766)" d="M 365.499275 56.816157 
C 366.882828 56.816157 368.2099 56.175813 369.188219 55.036155 
C 370.166539 53.896496 370.71623 52.35057 370.71623 50.738849 
C 370.71623 49.127129 370.166539 47.581203 369.188219 46.441544 
C 368.2099 45.301885 366.882828 44.661542 365.499275 44.661542 
C 364.115722 44.661542 362.78865 45.301885 361.810331 46.441544 
C 360.832011 47.581203 360.28232 49.127129 360.28232 50.738849 
C 360.28232 52.35057 360.832011 53.896496 361.810331 55.036155 
C 362.78865 56.175813 364.115722 56.816157 365.499275 56.816157 
z
" style="fill:#ff0000;opacity:0.2;stroke:#ff0000;stroke-linejoin:miter;stroke-width:2;"/>
   </g>
   <g id="patch_20">
    <path d="M 378.169023 35.979674 
Q 372.485268 42.600764 367.607523 48.28292 
" style="fill:none;opacity:0.5;stroke:#0000ff;stroke-linecap:round;stroke-width:1.75;"/>
    <path d="M 369.722715 48.121793 
L 367.607523 48.28292 
L 367.446396 46.167728 
" style="fill:none;opacity:0.5;stroke:#0000ff;stroke-linecap:round;stroke-width:1.75;"/>
   </g>
   <g id="[&quot;g_s&quot;:6,&quot;g_t&quot;:6,&quot;coords&quot;:[[361.0, -58.0],[344.5, -66.5]],&quot;certainty&quot;:11]">
    <path clip-path="url(#pa6d7fb3766)" d="M 422.885783 46.397916 
C 425.257587 46.397916 427.532568 45.300184 429.209687 43.346483 
C 430.886806 41.392783 431.829134 38.742624 431.829134 35.979674 
C 431.829134 33.216725 430.886806 30.566566 429.209687 28.612865 
C 427.532568 26.659165 425.257587 25.561433 422.885783 25.561433 
C 420.513978 25.561433 418.238997 26.659165 416.561878 28.612865 
C 414.884759 30.566566 413.942431 33.216725 413.942431 35.979674 
C 413.942431 38.742624 414.884759 41.392783 416.561878 43.346483 
C 418.238997 45.300184 420.513978 46.397916 422.885783 46.397916 
z
" style="fill:#0000ff;opacity:0.2;stroke:#0000ff;stroke-linejoin:miter;stroke-width:2;"/>
   </g>
   <g id="[&quot;g_s&quot;:6,&quot;g_t&quot;:6,&quot;coords&quot;:[[344.5, -66.5],[361.0, -58.0]],&quot;certainty&quot;:11]">
    <path clip-path="url(#pa6d7fb3766)" d="M 398.291565 61.15709 
C 400.66337 61.15709 402.938351 60.059359 404.61547 58.105658 
C 406.292589 56.151958 407.234917 53.501799 407.234917 50.738849 
C 407.234917 47.975899 406.292589 45.325741 404.61547 43.37204 
C 402.938351 41.41834 400.66337 40.320608 398.291565 40.320608 
C 395.91976 40.320608 393.644779 41.41834 391.96766 43.37204 
C 390.290541 45.325741 389.348213 47.975899 389.348213 50.738849 
C 389.348213 53.501799 390.290541 56.151958 391.96766 58.105658 
C 393.644779 60.059359 395.91976 61.15709 398.291565 61.15709 
z
" style="fill:#ff0000;opacity:0.2;stroke:#ff0000;stroke-linejoin:miter;stroke-width:2;"/>
   </g>
   <g id="patch_21">
    <path d="M 422.885783 35.979674 
Q 411.445809 42.844889 401.824766 48.618549 
" style="fill:none;opacity:0.5;stroke:#0000ff;stroke-linecap:round;stroke-width:3;"/>
    <path d="M 403.882789 49.132882 
L 401.824766 48.618549 
L 402.339099 46.560525 
" style="fill:none;opacity:0.5;stroke:#0000ff;stroke-linecap:round;stroke-width:3;"/>
   </g>
   <g id="[&quot;g_s&quot;:1,&quot;g_t&quot;:1,&quot;coords&quot;:[[239.5, -197.5],[240.0, -212.0]],&quot;certainty&quot;:12]">
    <path clip-path="url(#pa6d7fb3766)" d="M 241.782908 289.490208 
C 244.352363 289.490208 246.816926 288.300999 248.633805 286.18449 
C 250.450684 284.067981 251.471539 281.196976 251.471539 278.20378 
C 251.471539 275.210584 250.450684 272.339579 248.633805 270.22307 
C 246.816926 268.106562 244.352363 266.917352 241.782908 266.917352 
C 239.213453 266.917352 236.74889 268.106562 234.932011 270.22307 
C 233.115132 272.339579 232.094277 275.210584 232.094277 278.20378 
C 232.094277 281.196976 233.115132 284.067981 234.932011 286.18449 
C 236.74889 288.300999 239.213453 289.490208 241.782908 289.490208 
z
" style="fill:#0000ff;opacity:0.2;stroke:#0000ff;stroke-linejoin:miter;stroke-width:2;"/>
   </g>
   <g id="[&quot;g_s&quot;:1,&quot;g_t&quot;:1,&quot;coords&quot;:[[240.0, -212.0],[239.5, -197.5]],&quot;certainty&quot;:12]">
    <path clip-path="url(#pa6d7fb3766)" d="M 242.528188 314.667624 
C 245.097643 314.667624 247.562205 313.478415 249.379084 311.361906 
C 251.195963 309.245397 252.216819 306.374392 252.216819 303.381196 
C 252.216819 300.388 251.195963 297.516995 249.379084 295.400486 
C 247.562205 293.283978 245.097643 292.094768 242.528188 292.094768 
C 239.958732 292.094768 237.49417 293.283978 235.677291 295.400486 
C 233.860412 297.516995 232.839556 300.388 232.839556 303.381196 
C 232.839556 306.374392 233.860412 309.245397 235.677291 311.361906 
C 237.49417 313.478415 239.958732 314.667624 242.528188 314.667624 
z
" style="fill:#ff0000;opacity:0.2;stroke:#ff0000;stroke-linejoin:miter;stroke-width:2;"/>
   </g>
   <g id="patch_22">
    <path d="M 241.782908 278.20378 
Q 242.125935 289.792092 242.400965 299.083312 
" style="fill:none;opacity:0.5;stroke:#ff0000;stroke-linecap:round;stroke-width:3.25;"/>
    <path d="M 243.855926 297.539587 
L 242.400965 299.083312 
L 240.85724 297.628351 
" style="fill:none;opacity:0.5;stroke:#ff0000;stroke-linecap:round;stroke-width:3.25;"/>
   </g>
   <g id="[&quot;g_s&quot;:2,&quot;g_t&quot;:2,&quot;coords&quot;:[[135.5, -66.5],[119.0, -58.0]],&quot;certainty&quot;:10]">
    <path clip-path="url(#pa6d7fb3766)" d="M 86.76481 60.288904 
C 88.938964 60.288904 91.024363 59.28265 92.561723 57.491757 
C 94.099082 55.700865 94.962883 53.271553 94.962883 50.738849 
C 94.962883 48.206145 94.099082 45.776833 92.561723 43.985941 
C 91.024363 42.195049 88.938964 41.188795 86.76481 41.188795 
C 84.590656 41.188795 82.505257 42.195049 80.967897 43.985941 
C 79.430538 45.776833 78.566738 48.206145 78.566738 50.738849 
C 78.566738 53.271553 79.430538 55.700865 80.967897 57.491757 
C 82.505257 59.28265 84.590656 60.288904 86.76481 60.288904 
z
" style="fill:#0000ff;opacity:0.2;stroke:#0000ff;stroke-linejoin:miter;stroke-width:2;"/>
   </g>
   <g id="[&quot;g_s&quot;:2,&quot;g_t&quot;:2,&quot;coords&quot;:[[119.0, -58.0],[135.5, -66.5]],&quot;certainty&quot;:10]">
    <path clip-path="url(#pa6d7fb3766)" d="M 62.170592 45.529729 
C 64.344747 45.529729 66.430146 44.523475 67.967505 42.732583 
C 69.504864 40.94169 70.368665 38.512378 70.368665 35.979674 
C 70.368665 33.44697 69.504864 31.017658 67.967505 29.226766 
C 66.430146 27.435874 64.344747 26.42962 62.170592 26.42962 
C 59.996438 26.42962 57.911039 27.435874 56.37368 29.226766 
C 54.836321 31.017658 53.97252 33.44697 53.97252 35.979674 
C 53.97252 38.512378 54.836321 40.94169 56.37368 42.732583 
C 57.911039 44.523475 59.996438 45.529729 62.170592 45.529729 
z
" style="fill:#ff0000;opacity:0.2;stroke:#ff0000;stroke-linejoin:miter;stroke-width:2;"/>
   </g>
   <g id="patch_23">
    <path d="M 86.76481 50.738849 
Q 75.324836 43.873635 65.552216 38.009012 
" style="fill:none;opacity:0.5;stroke:#ff0000;stroke-linecap:round;stroke-width:2.75;"/>
    <path d="M 66.066549 40.067036 
L 65.552216 38.009012 
L 67.610239 37.494679 
" style="fill:none;opacity:0.5;stroke:#ff0000;stroke-linecap:round;stroke-width:2.75;"/>
   </g>
   <g id="[&quot;g_s&quot;:3,&quot;g_t&quot;:3,&quot;coords&quot;:[[157.5, -66.5],[149.0, -58.0]],&quot;certainty&quot;:6]">
    <path clip-path="url(#pa6d7fb3766)" d="M 119.5571 56.816157 
C 120.940653 56.816157 122.267725 56.175813 123.246044 55.036155 
C 124.224364 53.896496 124.774055 52.35057 124.774055 50.738849 
C 124.774055 49.127129 124.224364 47.581203 123.246044 46.441544 
C 122.267725 45.301885 120.940653 44.661542 119.5571 44.661542 
C 118.173547 44.661542 116.846475 45.301885 115.868156 46.441544 
C 114.889836 47.581203 114.340145 49.127129 114.340145 50.738849 
C 114.340145 52.35057 114.889836 53.896496 115.868156 55.036155 
C 116.846475 56.175813 118.173547 56.816157 119.5571 56.816157 
z
" style="fill:#0000ff;opacity:0.2;stroke:#0000ff;stroke-linejoin:miter;stroke-width:2;"/>
   </g>
   <g id="[&quot;g_s&quot;:3,&quot;g_t&quot;:3,&quot;coords&quot;:[[149.0, -58.0],[157.5, -66.5]],&quot;certainty&quot;:6]">
    <path clip-path="url(#pa6d7fb3766)" d="M 106.887352 42.056982 
C 108.270904 42.056982 109.597977 41.416638 110.576296 40.27698 
C 111.554616 39.137321 112.104307 37.591395 112.104307 35.979674 
C 112.104307 34.367954 111.554616 32.822028 110.576296 31.682369 
C 109.597977 30.542711 108.270904 29.902367 106.887352 29.902367 
C 105.503799 29.902367 104.176727 30.542711 103.198407 31.682369 
C 102.220088 32.822028 101.670396 34.367954 101.670396 35.979674 
C 101.670396 37.591395 102.220088 39.137321 103.198407 40.27698 
C 104.176727 41.416638 105.503799 42.056982 106.887352 42.056982 
z
" style="fill:#ff0000;opacity:0.2;stroke:#ff0000;stroke-linejoin:miter;stroke-width:2;"/>
   </g>
   <g id="patch_24">
    <path d="M 119.5571 50.738849 
Q 113.873344 44.117759 108.9956 38.435603 
" style="fill:none;opacity:0.5;stroke:#ff0000;stroke-linecap:round;stroke-width:1.75;"/>
    <path d="M 108.834473 40.550796 
L 108.9956 38.435603 
L 111.110792 38.59673 
" style="fill:none;opacity:0.5;stroke:#ff0000;stroke-linecap:round;stroke-width:1.75;"/>
   </g>
   <g id="[&quot;g_s&quot;:4,&quot;g_t&quot;:4,&quot;coords&quot;:[[239.5, -140.5],[240.0, -132.0]],&quot;certainty&quot;:11]">
    <path clip-path="url(#pa6d7fb3766)" d="M 241.782908 189.648731 
C 244.154713 189.648731 246.429694 188.550999 248.106813 186.597299 
C 249.783932 184.643598 250.72626 181.993439 250.72626 179.23049 
C 250.72626 176.46754 249.783932 173.817381 248.106813 171.863681 
C 246.429694 169.90998 244.154713 168.812249 241.782908 168.812249 
C 239.411104 168.812249 237.136123 169.90998 235.459003 171.863681 
C 233.781884 173.817381 232.839556 176.46754 232.839556 179.23049 
C 232.839556 181.993439 233.781884 184.643598 235.459003 186.597299 
C 237.136123 188.550999 239.411104 189.648731 241.782908 189.648731 
z
" style="fill:#0000ff;opacity:0.2;stroke:#0000ff;stroke-linejoin:miter;stroke-width:2;"/>
   </g>
   <g id="[&quot;g_s&quot;:4,&quot;g_t&quot;:4,&quot;coords&quot;:[[240.0, -132.0],[239.5, -140.5]],&quot;certainty&quot;:11]">
    <path clip-path="url(#pa6d7fb3766)" d="M 242.528188 174.889556 
C 244.899992 174.889556 247.174973 173.791824 248.852092 171.838124 
C 250.529211 169.884423 251.471539 167.234265 251.471539 164.471315 
C 251.471539 161.708365 250.529211 159.058206 248.852092 157.104506 
C 247.174973 155.150805 244.899992 154.053074 242.528188 154.053074 
C 240.156383 154.053074 237.881402 155.150805 236.204283 157.104506 
C 234.527164 159.058206 233.584836 161.708365 233.584836 164.471315 
C 233.584836 167.234265 234.527164 169.884423 236.204283 171.838124 
C 237.881402 173.791824 240.156383 174.889556 242.528188 174.889556 
z
" style="fill:#ff0000;opacity:0.2;stroke:#ff0000;stroke-linejoin:miter;stroke-width:2;"/>
   </g>
   <g id="patch_25">
    <path d="M 241.782908 179.23049 
Q 242.105056 172.850822 242.320222 168.589775 
" style="fill:none;opacity:0.5;stroke:#ff0000;stroke-linecap:round;stroke-width:3;"/>
    <path d="M 240.746483 170.012219 
L 242.320222 168.589775 
L 243.742665 170.163514 
" style="fill:none;opacity:0.5;stroke:#ff0000;stroke-linecap:round;stroke-width:3;"/>
   </g>
   <g id="[&quot;g_s&quot;:5,&quot;g_t&quot;:5,&quot;coords&quot;:[[322.5, -66.5],[331.0, -58.0]],&quot;certainty&quot;:6]">
    <path clip-path="url(#pa6d7fb3766)" d="M 365.499275 56.816157 
C 366.882828 56.816157 368.2099 56.175813 369.188219 55.036155 
C 370.166539 53.896496 370.71623 52.35057 370.71623 50.738849 
C 370.71623 49.127129 370.166539 47.581203 369.188219 46.441544 
C 368.2099 45.301885 366.882828 44.661542 365.499275 44.661542 
C 364.115722 44.661542 362.78865 45.301885 361.810331 46.441544 
C 360.832011 47.581203 360.28232 49.127129 360.28232 50.738849 
C 360.28232 52.35057 360.832011 53.896496 361.810331 55.036155 
C 362.78865 56.175813 364.115722 56.816157 365.499275 56.816157 
z
" style="fill:#0000ff;opacity:0.2;stroke:#0000ff;stroke-linejoin:miter;stroke-width:2;"/>
   </g>
   <g id="[&quot;g_s&quot;:5,&quot;g_t&quot;:5,&quot;coords&quot;:[[331.0, -58.0],[322.5, -66.5]],&quot;certainty&quot;:6]">
    <path clip-path="url(#pa6d7fb3766)" d="M 378.169023 42.056982 
C 379.552576 42.056982 380.879648 41.416638 381.857968 40.27698 
C 382.836287 39.137321 383.385979 37.591395 383.385979 35.979674 
C 383.385979 34.367954 382.836287 32.822028 381.857968 31.682369 
C 380.879648 30.542711 379.552576 29.902367 378.169023 29.902367 
C 376.785471 29.902367 375.458398 30.542711 374.480079 31.682369 
C 373.501759 32.822028 372.952068 34.367954 372.952068 35.979674 
C 372.952068 37.591395 373.501759 39.137321 374.480079 40.27698 
C 375.458398 41.416638 376.785471 42.056982 378.169023 42.056982 
z
" style="fill:#ff0000;opacity:0.2;stroke:#ff0000;stroke-linejoin:miter;stroke-width:2;"/>
   </g>
   <g id="patch_26">
    <path d="M 365.499275 50.738849 
Q 371.183031 44.117759 376.060775 38.435603 
" style="fill:none;opacity:0.5;stroke:#ff0000;stroke-linecap:round;stroke-width:1.75;"/>
    <path d="M 373.945583 38.59673 
L 376.060775 38.435603 
L 376.221902 40.550796 
" style="fill:none;opacity:0.5;stroke:#ff0000;stroke-linecap:round;stroke-width:1.75;"/>
   </g>
   <g id="[&quot;g_s&quot;:6,&quot;g_t&quot;:6,&quot;coords&quot;:[[344.5, -66.5],[361.0, -58.0]],&quot;certainty&quot;:11]">
    <path clip-path="url(#pa6d7fb3766)" d="M 398.291565 61.15709 
C 400.66337 61.15709 402.938351 60.059359 404.61547 58.105658 
C 406.292589 56.151958 407.234917 53.501799 407.234917 50.738849 
C 407.234917 47.975899 406.292589 45.325741 404.61547 43.37204 
C 402.938351 41.41834 400.66337 40.320608 398.291565 40.320608 
C 395.91976 40.320608 393.644779 41.41834 391.96766 43.37204 
C 390.290541 45.325741 389.348213 47.975899 389.348213 50.738849 
C 389.348213 53.501799 390.290541 56.151958 391.96766 58.105658 
C 393.644779 60.059359 395.91976 61.15709 398.291565 61.15709 
z
" style="fill:#0000ff;opacity:0.2;stroke:#0000ff;stroke-linejoin:miter;stroke-width:2;"/>
   </g>
   <g id="[&quot;g_s&quot;:6,&quot;g_t&quot;:6,&quot;coords&quot;:[[361.0, -58.0],[344.5, -66.5]],&quot;certainty&quot;:11]">
    <path clip-path="url(#pa6d7fb3766)" d="M 422.885783 46.397916 
C 425.257587 46.397916 427.532568 45.300184 429.209687 43.346483 
C 430.886806 41.392783 431.829134 38.742624 431.829134 35.979674 
C 431.829134 33.216725 430.886806 30.566566 429.209687 28.612865 
C 427.532568 26.659165 425.257587 25.561433 422.885783 25.561433 
C 420.513978 25.561433 418.238997 26.659165 416.561878 28.612865 
C 414.884759 30.566566 413.942431 33.216725 413.942431 35.979674 
C 413.942431 38.742624 414.884759 41.392783 416.561878 43.346483 
C 418.238997 45.300184 420.513978 46.397916 422.885783 46.397916 
z
" style="fill:#ff0000;opacity:0.2;stroke:#ff0000;stroke-linejoin:miter;stroke-width:2;"/>
   </g>
   <g id="patch_27">
    <path d="M 398.291565 50.738849 
Q 409.731539 43.873635 419.352582 38.099975 
" style="fill:none;opacity:0.5;stroke:#ff0000;stroke-linecap:round;stroke-width:3;"/>
    <path d="M 417.294558 37.585642 
L 419.352582 38.099975 
L 418.838249 40.157998 
" style="fill:none;opacity:0.5;stroke:#ff0000;stroke-linecap:round;stroke-width:3;"/>
   </g>
   <g id="patch_28">
    <path clip-path="url(#pa6d7fb3766)" d="M 242.155548 299.474356 
C 244.132052 299.474356 246.027869 298.559579 247.425468 296.931496 
C 248.823068 295.303412 249.608341 293.094946 249.608341 290.792488 
C 249.608341 288.49003 248.823068 286.281565 247.425468 284.653481 
C 246.027869 283.025397 244.132052 282.110621 242.155548 282.110621 
C 240.179044 282.110621 238.283227 283.025397 236.885627 284.653481 
C 235.488028 286.281565 234.702755 288.49003 234.702755 290.792488 
C 234.702755 293.094946 235.488028 295.303412 236.885627 296.931496 
C 238.283227 298.559579 240.179044 299.474356 242.155548 299.474356 
z
" style="fill:#008000;opacity:0.2;stroke:#008000;stroke-linejoin:miter;stroke-width:2;"/>
   </g>
   <g id="patch_29">
    <path clip-path="url(#pa6d7fb3766)" d="M 74.467701 52.041129 
C 76.444205 52.041129 78.340023 51.126353 79.737622 49.498269 
C 81.135221 47.870185 81.920494 45.66172 81.920494 43.359262 
C 81.920494 41.056804 81.135221 38.848338 79.737622 37.220254 
C 78.340023 35.592171 76.444205 34.677394 74.467701 34.677394 
C 72.491197 34.677394 70.59538 35.592171 69.197781 37.220254 
C 67.800181 38.848338 67.014908 41.056804 67.014908 43.359262 
C 67.014908 45.66172 67.800181 47.870185 69.197781 49.498269 
C 70.59538 51.126353 72.491197 52.041129 74.467701 52.041129 
z
" style="fill:#008000;opacity:0.2;stroke:#008000;stroke-linejoin:miter;stroke-width:2;"/>
   </g>
   <g id="patch_30">
    <path clip-path="url(#pa6d7fb3766)" d="M 113.222226 52.041129 
C 115.19873 52.041129 117.094547 51.126353 118.492146 49.498269 
C 119.889746 47.870185 120.675019 45.66172 120.675019 43.359262 
C 120.675019 41.056804 119.889746 38.848338 118.492146 37.220254 
C 117.094547 35.592171 115.19873 34.677394 113.222226 34.677394 
C 111.245722 34.677394 109.349904 35.592171 107.952305 37.220254 
C 106.554706 38.848338 105.769433 41.056804 105.769433 43.359262 
C 105.769433 45.66172 106.554706 47.870185 107.952305 49.498269 
C 109.349904 51.126353 111.245722 52.041129 113.222226 52.041129 
z
" style="fill:#008000;opacity:0.2;stroke:#008000;stroke-linejoin:miter;stroke-width:2;"/>
   </g>
   <g id="patch_31">
    <path clip-path="url(#pa6d7fb3766)" d="M 242.155548 180.53277 
C 244.132052 180.53277 246.027869 179.617993 247.425468 177.98991 
C 248.823068 176.361826 249.608341 174.15336 249.608341 171.850902 
C 249.608341 169.548444 248.823068 167.339979 247.425468 165.711895 
C 246.027869 164.083811 244.132052 163.169035 242.155548 163.169035 
C 240.179044 163.169035 238.283227 164.083811 236.885627 165.711895 
C 235.488028 167.339979 234.702755 169.548444 234.702755 171.850902 
C 234.702755 174.15336 235.488028 176.361826 236.885627 177.98991 
C 238.283227 179.617993 240.179044 180.53277 242.155548 180.53277 
z
" style="fill:#008000;opacity:0.2;stroke:#008000;stroke-linejoin:miter;stroke-width:2;"/>
   </g>
   <g id="patch_32">
    <path clip-path="url(#pa6d7fb3766)" d="M 371.834149 52.041129 
C 373.810653 52.041129 375.706471 51.126353 377.10407 49.498269 
C 378.501669 47.870185 379.286942 45.66172 379.286942 43.359262 
C 379.286942 41.056804 378.501669 38.848338 377.10407 37.220254 
C 375.706471 35.592171 373.810653 34.677394 371.834149 34.677394 
C 369.857645 34.677394 367.961828 35.592171 366.564229 37.220254 
C 365.166629 38.848338 364.381356 41.056804 364.381356 43.359262 
C 364.381356 45.66172 365.166629 47.870185 366.564229 49.498269 
C 367.961828 51.126353 369.857645 52.041129 371.834149 52.041129 
z
" style="fill:#008000;opacity:0.2;stroke:#008000;stroke-linejoin:miter;stroke-width:2;"/>
   </g>
   <g id="patch_33">
    <path clip-path="url(#pa6d7fb3766)" d="M 410.588674 52.041129 
C 412.565178 52.041129 414.460995 51.126353 415.858594 49.498269 
C 417.256194 47.870185 418.041467 45.66172 418.041467 43.359262 
C 418.041467 41.056804 417.256194 38.848338 415.858594 37.220254 
C 414.460995 35.592171 412.565178 34.677394 410.588674 34.677394 
C 408.61217 34.677394 406.716352 35.592171 405.318753 37.220254 
C 403.921154 38.848338 403.135881 41.056804 403.135881 43.359262 
C 403.135881 45.66172 403.921154 47.870185 405.318753 49.498269 
C 406.716352 51.126353 408.61217 52.041129 410.588674 52.041129 
z
" style="fill:#008000;opacity:0.2;stroke:#008000;stroke-linejoin:miter;stroke-width:2;"/>
   </g>
   <g id="patch_34">
    <path clip-path="url(#pa6d7fb3766)" d="M 242.528188 338.108667 
C 250.434203 338.108667 258.017473 334.449561 263.60787 327.937226 
C 269.198267 321.424891 272.33936 312.591029 272.33936 303.381196 
C 272.33936 294.171363 269.198267 285.337502 263.60787 278.825166 
C 258.017473 272.312831 250.434203 268.653726 242.528188 268.653726 
C 234.622172 268.653726 227.038902 272.312831 221.448505 278.825166 
C 215.858108 285.337502 212.717015 294.171363 212.717015 303.381196 
C 212.717015 312.591029 215.858108 321.424891 221.448505 327.937226 
C 227.038902 334.449561 234.622172 338.108667 242.528188 338.108667 
z
" style="fill:none;opacity:0.2;stroke:#ff0000;stroke-linejoin:miter;stroke-width:2;"/>
   </g>
   <g id="patch_35">
    <path clip-path="url(#pa6d7fb3766)" d="M 241.782908 312.93125 
C 249.688924 312.93125 257.272193 309.272145 262.862591 302.75981 
C 268.452988 296.247475 271.594081 287.413613 271.594081 278.20378 
C 271.594081 268.993947 268.452988 260.160086 262.862591 253.64775 
C 257.272193 247.135415 249.688924 243.47631 241.782908 243.47631 
C 233.876893 243.47631 226.293623 247.135415 220.703226 253.64775 
C 215.112829 260.160086 211.971735 268.993947 211.971735 278.20378 
C 211.971735 287.413613 215.112829 296.247475 220.703226 302.75981 
C 226.293623 309.272145 233.876893 312.93125 241.782908 312.93125 
z
" style="fill:none;opacity:0.2;stroke:#0000ff;stroke-linejoin:miter;stroke-width:2;"/>
   </g>
   <g id="patch_36">
    <path clip-path="url(#pa6d7fb3766)" d="M 242.528188 320.744931 
C 246.481195 320.744931 250.27283 318.915379 253.068029 315.659211 
C 255.863227 312.403043 257.433774 307.986113 257.433774 303.381196 
C 257.433774 298.77628 255.863227 294.359349 253.068029 291.103181 
C 250.27283 287.847014 246.481195 286.017461 242.528188 286.017461 
C 238.57518 286.017461 234.783545 287.847014 231.988346 291.103181 
C 229.193148 294.359349 227.622601 298.77628 227.622601 303.381196 
C 227.622601 307.986113 229.193148 312.403043 231.988346 315.659211 
C 234.783545 318.915379 238.57518 320.744931 242.528188 320.744931 
z
" style="fill:none;opacity:0.2;stroke:#008000;stroke-linejoin:miter;stroke-width:2;"/>
   </g>
   <g id="patch_37">
    <path clip-path="url(#pa6d7fb3766)" d="M 241.782908 295.567515 
C 245.735916 295.567515 249.527551 293.737963 252.322749 290.481795 
C 255.117948 287.225627 256.688495 282.808697 256.688495 278.20378 
C 256.688495 273.598864 255.117948 269.181933 252.322749 265.925765 
C 249.527551 262.669598 245.735916 260.840045 241.782908 260.840045 
C 237.8299 260.840045 234.038266 262.669598 231.243067 265.925765 
C 228.447868 269.181933 226.877322 273.598864 226.877322 278.20378 
C 226.877322 282.808697 228.447868 287.225627 231.243067 290.481795 
C 234.038266 293.737963 237.8299 295.567515 241.782908 295.567515 
z
" style="fill:none;opacity:0.2;stroke:#008000;stroke-linejoin:miter;stroke-width:2;"/>
   </g>
   <g id="patch_38">
    <path d="M 242.155548 290.792488 
Q 158.311625 167.075875 74.467701 43.359262 
" style="fill:none;opacity:0.5;stroke:#008000;stroke-linecap:round;stroke-width:2;"/>
   </g>
   <g id="patch_39">
    <path d="M 242.486344 301.967602 
Q 242.185161 291.792885 241.883978 281.618168 
" style="fill:none;opacity:0.5;stroke:#800080;stroke-linecap:round;stroke-width:2;"/>
    <path d="M 243.941305 300.423876 
L 242.486344 301.967602 
L 240.942618 300.512641 
" style="fill:none;opacity:0.5;stroke:#800080;stroke-linecap:round;stroke-width:2;"/>
    <path d="M 240.429017 283.161893 
L 241.883978 281.618168 
L 243.427703 283.073129 
" style="fill:none;opacity:0.5;stroke:#800080;stroke-linecap:round;stroke-width:2;"/>
   </g>
   <g id="patch_40">
    <path d="M 74.467701 43.359262 
Q 93.844964 43.359262 113.222226 43.359262 
" style="fill:none;opacity:0.5;stroke:#008000;stroke-linecap:round;stroke-width:2;"/>
   </g>
   <g id="patch_41">
    <path d="M 63.383213 36.707377 
Q 73.610566 42.844889 83.83792 48.9824 
" style="fill:none;opacity:0.5;stroke:#800080;stroke-linecap:round;stroke-width:2;"/>
    <path d="M 63.897546 38.765401 
L 63.383213 36.707377 
L 65.441237 36.193044 
" style="fill:none;opacity:0.5;stroke:#800080;stroke-linecap:round;stroke-width:2;"/>
    <path d="M 83.323587 46.924377 
L 83.83792 48.9824 
L 81.779896 49.496733 
" style="fill:none;opacity:0.5;stroke:#800080;stroke-linecap:round;stroke-width:2;"/>
   </g>
   <g id="patch_42">
    <path d="M 113.222226 43.359262 
Q 177.688887 107.605082 242.155548 171.850902 
" style="fill:none;opacity:0.5;stroke:#008000;stroke-linecap:round;stroke-width:2;"/>
   </g>
   <g id="patch_43">
    <path d="M 107.808507 37.052742 
Q 112.571107 42.600764 117.333707 48.148787 
" style="fill:none;opacity:0.5;stroke:#800080;stroke-linecap:round;stroke-width:2;"/>
    <path d="M 107.64738 39.167934 
L 107.808507 37.052742 
L 109.923699 37.213868 
" style="fill:none;opacity:0.5;stroke:#800080;stroke-linecap:round;stroke-width:2;"/>
    <path d="M 117.494834 46.033595 
L 117.333707 48.148787 
L 115.218515 47.98766 
" style="fill:none;opacity:0.5;stroke:#800080;stroke-linecap:round;stroke-width:2;"/>
   </g>
   <g id="patch_44">
    <path d="M 242.155548 171.850902 
Q 306.994849 107.605082 371.834149 43.359262 
" style="fill:none;opacity:0.5;stroke:#008000;stroke-linecap:round;stroke-width:2;"/>
   </g>
   <g id="patch_45">
    <path d="M 242.456866 165.883729 
Q 242.20604 170.850982 241.955213 175.818236 
" style="fill:none;opacity:0.5;stroke:#800080;stroke-linecap:round;stroke-width:2;"/>
    <path d="M 240.883127 167.306172 
L 242.456866 165.883729 
L 243.87931 167.457468 
" style="fill:none;opacity:0.5;stroke:#800080;stroke-linecap:round;stroke-width:2;"/>
    <path d="M 243.528952 174.395793 
L 241.955213 175.818236 
L 240.53277 174.244497 
" style="fill:none;opacity:0.5;stroke:#800080;stroke-linecap:round;stroke-width:2;"/>
   </g>
   <g id="patch_46">
    <path d="M 371.834149 43.359262 
Q 391.211411 43.359262 410.588674 43.359262 
" style="fill:none;opacity:0.5;stroke:#008000;stroke-linecap:round;stroke-width:2;"/>
   </g>
   <g id="patch_47">
    <path d="M 377.247868 37.052742 
Q 372.485268 42.600764 367.722668 48.148787 
" style="fill:none;opacity:0.5;stroke:#800080;stroke-linecap:round;stroke-width:2;"/>
    <path d="M 375.132676 37.213868 
L 377.247868 37.052742 
L 377.408995 39.167934 
" style="fill:none;opacity:0.5;stroke:#800080;stroke-linecap:round;stroke-width:2;"/>
    <path d="M 369.83786 47.98766 
L 367.722668 48.148787 
L 367.561541 46.033595 
" style="fill:none;opacity:0.5;stroke:#800080;stroke-linecap:round;stroke-width:2;"/>
   </g>
   <g id="patch_48">
    <path d="M 410.588674 43.359262 
Q 326.372111 167.075875 242.155548 290.792488 
" style="fill:none;opacity:0.5;stroke:#008000;stroke-linecap:round;stroke-width:2;"/>
   </g>
   <g id="patch_49">
    <path d="M 421.673162 36.707377 
Q 411.445809 42.844889 401.218455 48.9824 
" style="fill:none;opacity:0.5;stroke:#800080;stroke-linecap:round;stroke-width:2;"/>
    <path d="M 419.615138 36.193044 
L 421.673162 36.707377 
L 421.158829 38.765401 
" style="fill:none;opacity:0.5;stroke:#800080;stroke-linecap:round;stroke-width:2;"/>
    <path d="M 403.276479 49.496733 
L 401.218455 48.9824 
L 401.732788 46.924377 
" style="fill:none;opacity:0.5;stroke:#800080;stroke-linecap:round;stroke-width:2;"/>
   </g>
   <g id="line2d_1">
    <path clip-path="url(#pa6d7fb3766)" d="M 242.528188 303.381196 
L 62.170592 35.979674 
L 106.887352 35.979674 
L 242.528188 164.471315 
L 378.169023 35.979674 
L 422.885783 35.979674 
" style="fill:none;stroke:#ff0000;stroke-linecap:square;stroke-width:0.2;"/>
   </g>
   <g id="line2d_2">
    <path clip-path="url(#pa6d7fb3766)" d="M 241.782908 278.20378 
L 86.76481 50.738849 
L 119.5571 50.738849 
L 241.782908 179.23049 
L 365.499275 50.738849 
L 398.291565 50.738849 
" style="fill:none;stroke:#0000ff;stroke-linecap:square;stroke-width:0.2;"/>
   </g>
  </g>
 </g>
 <defs>
  <clipPath id="pa6d7fb3766">
   <rect height="307.51175" width="409.903625" x="37.576375" y="13.32"/>
  </clipPath>
 </defs>
</svg>
