<?xml version="1.0" encoding="utf-8" standalone="no"?>
<!DOCTYPE svg PUBLIC "-//W3C//DTD SVG 1.1//EN"
  "http://www.w3.org/Graphics/SVG/1.1/DTD/svg11.dtd">
<!-- Created with matplotlib (http://matplotlib.org/) -->
<svg height="345.6pt" version="1.1" viewBox="0 0 460.8 345.6" width="460.8pt" xmlns="http://www.w3.org/2000/svg" xmlns:xlink="http://www.w3.org/1999/xlink">
 <defs>
  <style type="text/css">
*{stroke-linecap:butt;stroke-linejoin:round;}
  </style>
 </defs>
 <g id="figure_1">
  <g id="patch_1">
   <path d="M 0 345.6 
L 460.8 345.6 
L 460.8 0 
L 0 0 
z
" style="fill:#ffffff;"/>
  </g>
  <g id="axes_1">
   <g id="patch_2">
    <path clip-path="url(#pdf601dd118)" d="M 239.5115 277.471166 
C 240.232937 277.471166 240.924924 277.117343 241.435057 276.487621 
C 241.94519 275.8579 242.23182 275.003695 242.23182 274.113134 
C 242.23182 273.222574 241.94519 272.368369 241.435057 271.738647 
C 240.924924 271.108926 240.232937 270.755103 239.5115 270.755103 
C 238.790063 270.755103 238.098076 271.108926 237.587943 271.738647 
C 237.07781 272.368369 236.79118 273.222574 236.79118 274.113134 
C 236.79118 275.003695 237.07781 275.8579 237.587943 276.487621 
C 238.098076 277.117343 238.790063 277.471166 239.5115 277.471166 
z
" style="fill:#ff0000;opacity:0.2;stroke:#ff0000;stroke-linejoin:miter;stroke-width:2;"/>
   </g>
   <g id="patch_3">
    <path clip-path="url(#pdf601dd118)" d="M 57.250028 37.371902 
C 57.971466 37.371902 58.663452 37.018078 59.173586 36.388357 
C 59.683719 35.758636 59.970349 34.904431 59.970349 34.01387 
C 59.970349 33.12331 59.683719 32.269104 59.173586 31.639383 
C 58.663452 31.009662 57.971466 30.655838 57.250028 30.655838 
C 56.528591 30.655838 55.836605 31.009662 55.326471 31.639383 
C 54.816338 32.269104 54.529708 33.12331 54.529708 34.01387 
C 54.529708 34.904431 54.816338 35.758636 55.326471 36.388357 
C 55.836605 37.018078 56.528591 37.371902 57.250028 37.371902 
z
" style="fill:#ff0000;opacity:0.2;stroke:#ff0000;stroke-linejoin:miter;stroke-width:2;"/>
   </g>
   <g id="patch_4">
    <path clip-path="url(#pdf601dd118)" d="M 96.694675 37.371902 
C 97.416113 37.371902 98.108099 37.018078 98.618232 36.388357 
C 99.128366 35.758636 99.414996 34.904431 99.414996 34.01387 
C 99.414996 33.12331 99.128366 32.269104 98.618232 31.639383 
C 98.108099 31.009662 97.416113 30.655838 96.694675 30.655838 
C 95.973238 30.655838 95.281252 31.009662 94.771118 31.639383 
C 94.260985 32.269104 93.974355 33.12331 93.974355 34.01387 
C 93.974355 34.904431 94.260985 35.758636 94.771118 36.388357 
C 95.281252 37.018078 95.973238 37.371902 96.694675 37.371902 
z
" style="fill:#ff0000;opacity:0.2;stroke:#ff0000;stroke-linejoin:miter;stroke-width:2;"/>
   </g>
   <g id="patch_5">
    <path clip-path="url(#pdf601dd118)" d="M 239.5115 158.261042 
C 240.232937 158.261042 240.924924 157.907218 241.435057 157.277497 
C 241.94519 156.647776 242.23182 155.793571 242.23182 154.90301 
C 242.23182 154.01245 241.94519 153.158245 241.435057 152.528523 
C 240.924924 151.898802 240.232937 151.544979 239.5115 151.544979 
C 238.790063 151.544979 238.098076 151.898802 237.587943 152.528523 
C 237.07781 153.158245 236.79118 154.01245 236.79118 154.90301 
C 236.79118 155.793571 237.07781 156.647776 237.587943 157.277497 
C 238.098076 157.907218 238.790063 158.261042 239.5115 158.261042 
z
" style="fill:#ff0000;opacity:0.2;stroke:#ff0000;stroke-linejoin:miter;stroke-width:2;"/>
   </g>
   <g id="patch_6">
    <path clip-path="url(#pdf601dd118)" d="M 382.328325 37.371902 
C 383.049762 37.371902 383.741748 37.018078 384.251882 36.388357 
C 384.762015 35.758636 385.048645 34.904431 385.048645 34.01387 
C 385.048645 33.12331 384.762015 32.269104 384.251882 31.639383 
C 383.741748 31.009662 383.049762 30.655838 382.328325 30.655838 
C 381.606887 30.655838 380.914901 31.009662 380.404768 31.639383 
C 379.894634 32.269104 379.608004 33.12331 379.608004 34.01387 
C 379.608004 34.904431 379.894634 35.758636 380.404768 36.388357 
C 380.914901 37.018078 381.606887 37.371902 382.328325 37.371902 
z
" style="fill:#ff0000;opacity:0.2;stroke:#ff0000;stroke-linejoin:miter;stroke-width:2;"/>
   </g>
   <g id="patch_7">
    <path clip-path="url(#pdf601dd118)" d="M 421.772972 37.371902 
C 422.494409 37.371902 423.186395 37.018078 423.696529 36.388357 
C 424.206662 35.758636 424.493292 34.904431 424.493292 34.01387 
C 424.493292 33.12331 424.206662 32.269104 423.696529 31.639383 
C 423.186395 31.009662 422.494409 30.655838 421.772972 30.655838 
C 421.051534 30.655838 420.359548 31.009662 419.849414 31.639383 
C 419.339281 32.269104 419.052651 33.12331 419.052651 34.01387 
C 419.052651 34.904431 419.339281 35.758636 419.849414 36.388357 
C 420.359548 37.018078 421.051534 37.371902 421.772972 37.371902 
z
" style="fill:#ff0000;opacity:0.2;stroke:#ff0000;stroke-linejoin:miter;stroke-width:2;"/>
   </g>
   <g id="patch_8">
    <path clip-path="url(#pdf601dd118)" d="M 239.5115 306.853943 
C 240.232937 306.853943 240.924924 306.50012 241.435057 305.870398 
C 241.94519 305.240677 242.23182 304.386472 242.23182 303.495912 
C 242.23182 302.605351 241.94519 301.751146 241.435057 301.121425 
C 240.924924 300.491703 240.232937 300.13788 239.5115 300.13788 
C 238.790063 300.13788 238.098076 300.491703 237.587943 301.121425 
C 237.07781 301.751146 236.79118 302.605351 236.79118 303.495912 
C 236.79118 304.386472 237.07781 305.240677 237.587943 305.870398 
C 238.098076 306.50012 238.790063 306.853943 239.5115 306.853943 
z
" style="fill:#0000ff;opacity:0.2;stroke:#0000ff;stroke-linejoin:miter;stroke-width:2;"/>
   </g>
   <g id="patch_9">
    <path clip-path="url(#pdf601dd118)" d="M 77.652432 91.939916 
C 78.373869 91.939916 79.065856 91.586093 79.575989 90.956372 
C 80.086122 90.32665 80.372752 89.472445 80.372752 88.581885 
C 80.372752 87.691324 80.086122 86.837119 79.575989 86.207398 
C 79.065856 85.577676 78.373869 85.223853 77.652432 85.223853 
C 76.930995 85.223853 76.239008 85.577676 75.728875 86.207398 
C 75.218742 86.837119 74.932112 87.691324 74.932112 88.581885 
C 74.932112 89.472445 75.218742 90.32665 75.728875 90.956372 
C 76.239008 91.586093 76.930995 91.939916 77.652432 91.939916 
z
" style="fill:#0000ff;opacity:0.2;stroke:#0000ff;stroke-linejoin:miter;stroke-width:2;"/>
   </g>
   <g id="patch_10">
    <path clip-path="url(#pdf601dd118)" d="M 115.736919 91.939916 
C 116.458356 91.939916 117.150342 91.586093 117.660476 90.956372 
C 118.170609 90.32665 118.457239 89.472445 118.457239 88.581885 
C 118.457239 87.691324 118.170609 86.837119 117.660476 86.207398 
C 117.150342 85.577676 116.458356 85.223853 115.736919 85.223853 
C 115.015481 85.223853 114.323495 85.577676 113.813362 86.207398 
C 113.303228 86.837119 113.016598 87.691324 113.016598 88.581885 
C 113.016598 89.472445 113.303228 90.32665 113.813362 90.956372 
C 114.323495 91.586093 115.015481 91.939916 115.736919 91.939916 
z
" style="fill:#0000ff;opacity:0.2;stroke:#0000ff;stroke-linejoin:miter;stroke-width:2;"/>
   </g>
   <g id="patch_11">
    <path clip-path="url(#pdf601dd118)" d="M 239.5115 201.075946 
C 240.232937 201.075946 240.924924 200.722122 241.435057 200.092401 
C 241.94519 199.46268 242.23182 198.608474 242.23182 197.717914 
C 242.23182 196.827354 241.94519 195.973148 241.435057 195.343427 
C 240.924924 194.713706 240.232937 194.359882 239.5115 194.359882 
C 238.790063 194.359882 238.098076 194.713706 237.587943 195.343427 
C 237.07781 195.973148 236.79118 196.827354 236.79118 197.717914 
C 236.79118 198.608474 237.07781 199.46268 237.587943 200.092401 
C 238.098076 200.722122 238.790063 201.075946 239.5115 201.075946 
z
" style="fill:#0000ff;opacity:0.2;stroke:#0000ff;stroke-linejoin:miter;stroke-width:2;"/>
   </g>
   <g id="patch_12">
    <path clip-path="url(#pdf601dd118)" d="M 364.646242 91.939916 
C 365.367679 91.939916 366.059665 91.586093 366.569799 90.956372 
C 367.079932 90.32665 367.366562 89.472445 367.366562 88.581885 
C 367.366562 87.691324 367.079932 86.837119 366.569799 86.207398 
C 366.059665 85.577676 365.367679 85.223853 364.646242 85.223853 
C 363.924804 85.223853 363.232818 85.577676 362.722685 86.207398 
C 362.212551 86.837119 361.925921 87.691324 361.925921 88.581885 
C 361.925921 89.472445 362.212551 90.32665 362.722685 90.956372 
C 363.232818 91.586093 363.924804 91.939916 364.646242 91.939916 
z
" style="fill:#0000ff;opacity:0.2;stroke:#0000ff;stroke-linejoin:miter;stroke-width:2;"/>
   </g>
   <g id="patch_13">
    <path clip-path="url(#pdf601dd118)" d="M 401.370568 91.939916 
C 402.092005 91.939916 402.783992 91.586093 403.294125 90.956372 
C 403.804258 90.32665 404.090888 89.472445 404.090888 88.581885 
C 404.090888 87.691324 403.804258 86.837119 403.294125 86.207398 
C 402.783992 85.577676 402.092005 85.223853 401.370568 85.223853 
C 400.649131 85.223853 399.957144 85.577676 399.447011 86.207398 
C 398.936878 86.837119 398.650248 87.691324 398.650248 88.581885 
C 398.650248 89.472445 398.936878 90.32665 399.447011 90.956372 
C 399.957144 91.586093 400.649131 91.939916 401.370568 91.939916 
z
" style="fill:#0000ff;opacity:0.2;stroke:#0000ff;stroke-linejoin:miter;stroke-width:2;"/>
   </g>
   <g id="patch_14">
    <path clip-path="url(#pdf601dd118)" d="M 239.5115 274.113134 
C 115.736919 274.113134 50.449227 185.125295 57.250028 34.01387 
C 68.13131 27.297807 87.173554 27.297807 96.694675 34.01387 
C 111.656438 107.890567 174.223809 154.90301 239.5115 154.90301 
C 304.799191 154.90301 367.366562 107.890567 382.328325 34.01387 
C 391.849446 27.297807 410.89169 27.297807 421.772972 34.01387 
C 428.573773 185.125295 363.286081 274.113134 239.5115 274.113134 
" style="fill:none;stroke:#ff0000;stroke-linejoin:miter;stroke-width:0.5;"/>
   </g>
   <g id="patch_15">
    <path clip-path="url(#pdf601dd118)" d="M 239.5115 303.495912 
C 133.419002 303.495912 74.932112 232.977246 77.652432 88.581885 
C 84.453233 80.186806 108.936117 80.186806 115.736919 88.581885 
C 130.698681 157.421534 168.783168 197.717914 239.5115 197.717914 
C 307.519512 197.717914 349.684479 160.779566 364.646242 88.581885 
C 371.447043 80.186806 394.569767 80.186806 401.370568 88.581885 
C 404.090888 232.977246 345.603998 303.495912 239.5115 303.495912 
" style="fill:none;stroke:#0000ff;stroke-linejoin:miter;stroke-width:0.5;"/>
   </g>
   <g id="[&quot;g_s&quot;:1,&quot;g_t&quot;:1,&quot;coords&quot;:[[240.0, 20.0],[240.0, 2.5]],&quot;certainty&quot;:12]">
    <path clip-path="url(#pdf601dd118)" d="M 239.5115 285.026737 
C 241.856172 285.026737 244.105127 283.876811 245.76306 281.830217 
C 247.420994 279.783623 248.352542 277.007456 248.352542 274.113134 
C 248.352542 271.218813 247.420994 268.442646 245.76306 266.396052 
C 244.105127 264.349458 241.856172 263.199531 239.5115 263.199531 
C 237.166828 263.199531 234.917873 264.349458 233.25994 266.396052 
C 231.602006 268.442646 230.670458 271.218813 230.670458 274.113134 
C 230.670458 277.007456 231.602006 279.783623 233.25994 281.830217 
C 234.917873 283.876811 237.166828 285.026737 239.5115 285.026737 
z
" style="fill:#0000ff;opacity:0.2;stroke:#0000ff;stroke-linejoin:miter;stroke-width:2;"/>
   </g>
   <g id="[&quot;g_s&quot;:1,&quot;g_t&quot;:1,&quot;coords&quot;:[[240.0, 2.5],[240.0, 20.0]],&quot;certainty&quot;:12]">
    <path clip-path="url(#pdf601dd118)" d="M 239.5115 314.409514 
C 241.856172 314.409514 244.105127 313.259588 245.76306 311.212994 
C 247.420994 309.1664 248.352542 306.390233 248.352542 303.495912 
C 248.352542 300.60159 247.420994 297.825423 245.76306 295.778829 
C 244.105127 293.732235 241.856172 292.582309 239.5115 292.582309 
C 237.166828 292.582309 234.917873 293.732235 233.25994 295.778829 
C 231.602006 297.825423 230.670458 300.60159 230.670458 303.495912 
C 230.670458 306.390233 231.602006 309.1664 233.25994 311.212994 
C 234.917873 313.259588 237.166828 314.409514 239.5115 314.409514 
z
" style="fill:#ff0000;opacity:0.2;stroke:#ff0000;stroke-linejoin:miter;stroke-width:2;"/>
   </g>
   <g id="patch_16">
    <path d="M 239.5115 274.113134 
Q 239.5115 287.805609 239.5115 299.199986 
" style="fill:none;opacity:0.5;stroke:#0000ff;stroke-linecap:round;stroke-width:3.25;"/>
    <path d="M 241.0115 297.699986 
L 239.5115 299.199986 
L 238.0115 297.699986 
" style="fill:none;opacity:0.5;stroke:#0000ff;stroke-linecap:round;stroke-width:3.25;"/>
   </g>
   <g id="[&quot;g_s&quot;:2,&quot;g_t&quot;:2,&quot;coords&quot;:[[106.0, 163.0],[121.0, 130.5]],&quot;certainty&quot;:10]">
    <path clip-path="url(#pdf601dd118)" d="M 57.250028 43.248457 
C 59.233981 43.248457 61.136944 42.275443 62.53981 40.543709 
C 63.942677 38.811976 64.73091 36.462911 64.73091 34.01387 
C 64.73091 31.564829 63.942677 29.215765 62.53981 27.484031 
C 61.136944 25.752297 59.233981 24.779283 57.250028 24.779283 
C 55.266076 24.779283 53.363113 25.752297 51.960247 27.484031 
C 50.55738 29.215765 49.769147 31.564829 49.769147 34.01387 
C 49.769147 36.462911 50.55738 38.811976 51.960247 40.543709 
C 53.363113 42.275443 55.266076 43.248457 57.250028 43.248457 
z
" style="fill:#0000ff;opacity:0.2;stroke:#0000ff;stroke-linejoin:miter;stroke-width:2;"/>
   </g>
   <g id="[&quot;g_s&quot;:2,&quot;g_t&quot;:2,&quot;coords&quot;:[[121.0, 130.5],[106.0, 163.0]],&quot;certainty&quot;:10]">
    <path clip-path="url(#pdf601dd118)" d="M 77.652432 97.816472 
C 79.636385 97.816472 81.539347 96.843457 82.942214 95.111724 
C 84.34508 93.37999 85.133313 91.030926 85.133313 88.581885 
C 85.133313 86.132844 84.34508 83.783779 82.942214 82.052046 
C 81.539347 80.320312 79.636385 79.347298 77.652432 79.347298 
C 75.668479 79.347298 73.765517 80.320312 72.36265 82.052046 
C 70.959784 83.783779 70.171551 86.132844 70.171551 88.581885 
C 70.171551 91.030926 70.959784 93.37999 72.36265 95.111724 
C 73.765517 96.843457 75.668479 97.816472 77.652432 97.816472 
z
" style="fill:#ff0000;opacity:0.2;stroke:#ff0000;stroke-linejoin:miter;stroke-width:2;"/>
   </g>
   <g id="patch_17">
    <path d="M 57.250028 34.01387 
Q 67.100688 60.360323 76.270347 84.885378 
" style="fill:none;opacity:0.5;stroke:#0000ff;stroke-linecap:round;stroke-width:2.75;"/>
    <path d="M 77.150036 82.955055 
L 76.270347 84.885378 
L 74.340024 84.005689 
" style="fill:none;opacity:0.5;stroke:#0000ff;stroke-linecap:round;stroke-width:2.75;"/>
   </g>
   <g id="[&quot;g_s&quot;:3,&quot;g_t&quot;:3,&quot;coords&quot;:[[135.0, 163.0],[149.0, 130.5]],&quot;certainty&quot;:6]">
    <path clip-path="url(#pdf601dd118)" d="M 96.694675 39.890426 
C 97.957191 39.890426 99.168167 39.271235 100.0609 38.169222 
C 100.953633 37.06721 101.455236 35.572351 101.455236 34.01387 
C 101.455236 32.455389 100.953633 30.96053 100.0609 29.858518 
C 99.168167 28.756506 97.957191 28.137315 96.694675 28.137315 
C 95.43216 28.137315 94.221184 28.756506 93.32845 29.858518 
C 92.435717 30.96053 91.934114 32.455389 91.934114 34.01387 
C 91.934114 35.572351 92.435717 37.06721 93.32845 38.169222 
C 94.221184 39.271235 95.43216 39.890426 96.694675 39.890426 
z
" style="fill:#0000ff;opacity:0.2;stroke:#0000ff;stroke-linejoin:miter;stroke-width:2;"/>
   </g>
   <g id="[&quot;g_s&quot;:3,&quot;g_t&quot;:3,&quot;coords&quot;:[[149.0, 130.5],[135.0, 163.0]],&quot;certainty&quot;:6]">
    <path clip-path="url(#pdf601dd118)" d="M 115.736919 94.45844 
C 116.999434 94.45844 118.21041 93.839249 119.103143 92.737237 
C 119.995877 91.635225 120.497479 90.140365 120.497479 88.581885 
C 120.497479 87.023404 119.995877 85.528545 119.103143 84.426533 
C 118.21041 83.32452 116.999434 82.705329 115.736919 82.705329 
C 114.474403 82.705329 113.263427 83.32452 112.370694 84.426533 
C 111.47796 85.528545 110.976358 87.023404 110.976358 88.581885 
C 110.976358 90.140365 111.47796 91.635225 112.370694 92.737237 
C 113.263427 93.839249 114.474403 94.45844 115.736919 94.45844 
z
" style="fill:#ff0000;opacity:0.2;stroke:#ff0000;stroke-linejoin:miter;stroke-width:2;"/>
   </g>
   <g id="patch_18">
    <path d="M 96.694675 34.01387 
Q 105.8863 60.353662 114.670216 85.525111 
" style="fill:none;opacity:0.5;stroke:#0000ff;stroke-linecap:round;stroke-width:1.75;"/>
    <path d="M 115.592243 83.614649 
L 114.670216 85.525111 
L 112.759754 84.603084 
" style="fill:none;opacity:0.5;stroke:#0000ff;stroke-linecap:round;stroke-width:1.75;"/>
   </g>
   <g id="[&quot;g_s&quot;:4,&quot;g_t&quot;:4,&quot;coords&quot;:[[240.0, 91.0],[240.0, 65.5]],&quot;certainty&quot;:11]">
    <path clip-path="url(#pdf601dd118)" d="M 239.5115 164.977105 
C 241.675812 164.977105 243.751771 163.915635 245.282171 162.026471 
C 246.812571 160.137307 247.672461 157.574691 247.672461 154.90301 
C 247.672461 152.231329 246.812571 149.668713 245.282171 147.779549 
C 243.751771 145.890385 241.675812 144.828915 239.5115 144.828915 
C 237.347188 144.828915 235.271229 145.890385 233.740829 147.779549 
C 232.210429 149.668713 231.350539 152.231329 231.350539 154.90301 
C 231.350539 157.574691 232.210429 160.137307 233.740829 162.026471 
C 235.271229 163.915635 237.347188 164.977105 239.5115 164.977105 
z
" style="fill:#0000ff;opacity:0.2;stroke:#0000ff;stroke-linejoin:miter;stroke-width:2;"/>
   </g>
   <g id="[&quot;g_s&quot;:4,&quot;g_t&quot;:4,&quot;coords&quot;:[[240.0, 65.5],[240.0, 91.0]],&quot;certainty&quot;:11]">
    <path clip-path="url(#pdf601dd118)" d="M 239.5115 207.792009 
C 241.675812 207.792009 243.751771 206.730539 245.282171 204.841375 
C 246.812571 202.952211 247.672461 200.389595 247.672461 197.717914 
C 247.672461 195.046233 246.812571 192.483617 245.282171 190.594453 
C 243.751771 188.705289 241.675812 187.643819 239.5115 187.643819 
C 237.347188 187.643819 235.271229 188.705289 233.740829 190.594453 
C 232.210429 192.483617 231.350539 195.046233 231.350539 197.717914 
C 231.350539 200.389595 232.210429 202.952211 233.740829 204.841375 
C 235.271229 206.730539 237.347188 207.792009 239.5115 207.792009 
z
" style="fill:#ff0000;opacity:0.2;stroke:#ff0000;stroke-linejoin:miter;stroke-width:2;"/>
   </g>
   <g id="patch_19">
    <path d="M 239.5115 154.90301 
Q 239.5115 175.310908 239.5115 193.597485 
" style="fill:none;opacity:0.5;stroke:#0000ff;stroke-linecap:round;stroke-width:3;"/>
    <path d="M 241.0115 192.097485 
L 239.5115 193.597485 
L 238.0115 192.097485 
" style="fill:none;opacity:0.5;stroke:#0000ff;stroke-linecap:round;stroke-width:3;"/>
   </g>
   <g id="[&quot;g_s&quot;:5,&quot;g_t&quot;:5,&quot;coords&quot;:[[345.0, 163.0],[332.0, 130.5]],&quot;certainty&quot;:6]">
    <path clip-path="url(#pdf601dd118)" d="M 382.328325 39.890426 
C 383.59084 39.890426 384.801816 39.271235 385.69455 38.169222 
C 386.587283 37.06721 387.088886 35.572351 387.088886 34.01387 
C 387.088886 32.455389 386.587283 30.96053 385.69455 29.858518 
C 384.801816 28.756506 383.59084 28.137315 382.328325 28.137315 
C 381.065809 28.137315 379.854833 28.756506 378.9621 29.858518 
C 378.069367 30.96053 377.567764 32.455389 377.567764 34.01387 
C 377.567764 35.572351 378.069367 37.06721 378.9621 38.169222 
C 379.854833 39.271235 381.065809 39.890426 382.328325 39.890426 
z
" style="fill:#0000ff;opacity:0.2;stroke:#0000ff;stroke-linejoin:miter;stroke-width:2;"/>
   </g>
   <g id="[&quot;g_s&quot;:5,&quot;g_t&quot;:5,&quot;coords&quot;:[[332.0, 130.5],[345.0, 163.0]],&quot;certainty&quot;:6]">
    <path clip-path="url(#pdf601dd118)" d="M 364.646242 94.45844 
C 365.908757 94.45844 367.119733 93.839249 368.012467 92.737237 
C 368.9052 91.635225 369.406802 90.140365 369.406802 88.581885 
C 369.406802 87.023404 368.9052 85.528545 368.012467 84.426533 
C 367.119733 83.32452 365.908757 82.705329 364.646242 82.705329 
C 363.383726 82.705329 362.17275 83.32452 361.280017 84.426533 
C 360.387284 85.528545 359.885681 87.023404 359.885681 88.581885 
C 359.885681 90.140365 360.387284 91.635225 361.280017 92.737237 
C 362.17275 93.839249 363.383726 94.45844 364.646242 94.45844 
z
" style="fill:#ff0000;opacity:0.2;stroke:#ff0000;stroke-linejoin:miter;stroke-width:2;"/>
   </g>
   <g id="patch_20">
    <path d="M 382.328325 34.01387 
Q 373.795403 60.347 365.643931 85.502954 
" style="fill:none;opacity:0.5;stroke:#0000ff;stroke-linecap:round;stroke-width:1.75;"/>
    <path d="M 367.533272 84.538386 
L 365.643931 85.502954 
L 364.679363 83.613613 
" style="fill:none;opacity:0.5;stroke:#0000ff;stroke-linecap:round;stroke-width:1.75;"/>
   </g>
   <g id="[&quot;g_s&quot;:6,&quot;g_t&quot;:6,&quot;coords&quot;:[[374.0, 163.0],[359.0, 130.5]],&quot;certainty&quot;:11]">
    <path clip-path="url(#pdf601dd118)" d="M 421.772972 44.087965 
C 423.937284 44.087965 426.013243 43.026495 427.543643 41.137331 
C 429.074043 39.248167 429.933933 36.685551 429.933933 34.01387 
C 429.933933 31.342189 429.074043 28.779573 427.543643 26.890409 
C 426.013243 25.001245 423.937284 23.939775 421.772972 23.939775 
C 419.608659 23.939775 417.5327 25.001245 416.0023 26.890409 
C 414.471901 28.779573 413.61201 31.342189 413.61201 34.01387 
C 413.61201 36.685551 414.471901 39.248167 416.0023 41.137331 
C 417.5327 43.026495 419.608659 44.087965 421.772972 44.087965 
z
" style="fill:#0000ff;opacity:0.2;stroke:#0000ff;stroke-linejoin:miter;stroke-width:2;"/>
   </g>
   <g id="[&quot;g_s&quot;:6,&quot;g_t&quot;:6,&quot;coords&quot;:[[359.0, 130.5],[374.0, 163.0]],&quot;certainty&quot;:11]">
    <path clip-path="url(#pdf601dd118)" d="M 401.370568 98.65598 
C 403.53488 98.65598 405.610839 97.59451 407.141239 95.705346 
C 408.671639 93.816182 409.531529 91.253566 409.531529 88.581885 
C 409.531529 85.910204 408.671639 83.347588 407.141239 81.458424 
C 405.610839 79.56926 403.53488 78.50779 401.370568 78.50779 
C 399.206256 78.50779 397.130297 79.56926 395.599897 81.458424 
C 394.069497 83.347588 393.209607 85.910204 393.209607 88.581885 
C 393.209607 91.253566 394.069497 93.816182 395.599897 95.705346 
C 397.130297 97.59451 399.206256 98.65598 401.370568 98.65598 
z
" style="fill:#ff0000;opacity:0.2;stroke:#ff0000;stroke-linejoin:miter;stroke-width:2;"/>
   </g>
   <g id="patch_21">
    <path d="M 421.772972 34.01387 
Q 411.922312 60.360323 402.814562 84.719797 
" style="fill:none;opacity:0.5;stroke:#0000ff;stroke-linecap:round;stroke-width:3;"/>
    <path d="M 404.744885 83.840108 
L 402.814562 84.719797 
L 401.934873 82.789474 
" style="fill:none;opacity:0.5;stroke:#0000ff;stroke-linecap:round;stroke-width:3;"/>
   </g>
   <g id="[&quot;g_s&quot;:1,&quot;g_t&quot;:1,&quot;coords&quot;:[[240.0, 2.5],[240.0, 20.0]],&quot;certainty&quot;:12]">
    <path clip-path="url(#pdf601dd118)" d="M 239.5115 314.409514 
C 241.856172 314.409514 244.105127 313.259588 245.76306 311.212994 
C 247.420994 309.1664 248.352542 306.390233 248.352542 303.495912 
C 248.352542 300.60159 247.420994 297.825423 245.76306 295.778829 
C 244.105127 293.732235 241.856172 292.582309 239.5115 292.582309 
C 237.166828 292.582309 234.917873 293.732235 233.25994 295.778829 
C 231.602006 297.825423 230.670458 300.60159 230.670458 303.495912 
C 230.670458 306.390233 231.602006 309.1664 233.25994 311.212994 
C 234.917873 313.259588 237.166828 314.409514 239.5115 314.409514 
z
" style="fill:#0000ff;opacity:0.2;stroke:#0000ff;stroke-linejoin:miter;stroke-width:2;"/>
   </g>
   <g id="[&quot;g_s&quot;:1,&quot;g_t&quot;:1,&quot;coords&quot;:[[240.0, 20.0],[240.0, 2.5]],&quot;certainty&quot;:12]">
    <path clip-path="url(#pdf601dd118)" d="M 239.5115 285.026737 
C 241.856172 285.026737 244.105127 283.876811 245.76306 281.830217 
C 247.420994 279.783623 248.352542 277.007456 248.352542 274.113134 
C 248.352542 271.218813 247.420994 268.442646 245.76306 266.396052 
C 244.105127 264.349458 241.856172 263.199531 239.5115 263.199531 
C 237.166828 263.199531 234.917873 264.349458 233.25994 266.396052 
C 231.602006 268.442646 230.670458 271.218813 230.670458 274.113134 
C 230.670458 277.007456 231.602006 279.783623 233.25994 281.830217 
C 234.917873 283.876811 237.166828 285.026737 239.5115 285.026737 
z
" style="fill:#ff0000;opacity:0.2;stroke:#ff0000;stroke-linejoin:miter;stroke-width:2;"/>
   </g>
   <g id="patch_22">
    <path d="M 239.5115 303.495912 
Q 239.5115 289.803437 239.5115 278.409059 
" style="fill:none;opacity:0.5;stroke:#ff0000;stroke-linecap:round;stroke-width:3.25;"/>
    <path d="M 238.0115 279.909059 
L 239.5115 278.409059 
L 241.0115 279.909059 
" style="fill:none;opacity:0.5;stroke:#ff0000;stroke-linecap:round;stroke-width:3.25;"/>
   </g>
   <g id="[&quot;g_s&quot;:2,&quot;g_t&quot;:2,&quot;coords&quot;:[[121.0, 130.5],[106.0, 163.0]],&quot;certainty&quot;:10]">
    <path clip-path="url(#pdf601dd118)" d="M 77.652432 97.816472 
C 79.636385 97.816472 81.539347 96.843457 82.942214 95.111724 
C 84.34508 93.37999 85.133313 91.030926 85.133313 88.581885 
C 85.133313 86.132844 84.34508 83.783779 82.942214 82.052046 
C 81.539347 80.320312 79.636385 79.347298 77.652432 79.347298 
C 75.668479 79.347298 73.765517 80.320312 72.36265 82.052046 
C 70.959784 83.783779 70.171551 86.132844 70.171551 88.581885 
C 70.171551 91.030926 70.959784 93.37999 72.36265 95.111724 
C 73.765517 96.843457 75.668479 97.816472 77.652432 97.816472 
z
" style="fill:#0000ff;opacity:0.2;stroke:#0000ff;stroke-linejoin:miter;stroke-width:2;"/>
   </g>
   <g id="[&quot;g_s&quot;:2,&quot;g_t&quot;:2,&quot;coords&quot;:[[106.0, 163.0],[121.0, 130.5]],&quot;certainty&quot;:10]">
    <path clip-path="url(#pdf601dd118)" d="M 57.250028 43.248457 
C 59.233981 43.248457 61.136944 42.275443 62.53981 40.543709 
C 63.942677 38.811976 64.73091 36.462911 64.73091 34.01387 
C 64.73091 31.564829 63.942677 29.215765 62.53981 27.484031 
C 61.136944 25.752297 59.233981 24.779283 57.250028 24.779283 
C 55.266076 24.779283 53.363113 25.752297 51.960247 27.484031 
C 50.55738 29.215765 49.769147 31.564829 49.769147 34.01387 
C 49.769147 36.462911 50.55738 38.811976 51.960247 40.543709 
C 53.363113 42.275443 55.266076 43.248457 57.250028 43.248457 
z
" style="fill:#ff0000;opacity:0.2;stroke:#ff0000;stroke-linejoin:miter;stroke-width:2;"/>
   </g>
   <g id="patch_23">
    <path d="M 77.652432 88.581885 
Q 67.801772 62.235432 58.632113 37.710377 
" style="fill:none;opacity:0.5;stroke:#ff0000;stroke-linecap:round;stroke-width:2.75;"/>
    <path d="M 57.752424 39.6407 
L 58.632113 37.710377 
L 60.562436 38.590066 
" style="fill:none;opacity:0.5;stroke:#ff0000;stroke-linecap:round;stroke-width:2.75;"/>
   </g>
   <g id="[&quot;g_s&quot;:3,&quot;g_t&quot;:3,&quot;coords&quot;:[[149.0, 130.5],[135.0, 163.0]],&quot;certainty&quot;:6]">
    <path clip-path="url(#pdf601dd118)" d="M 115.736919 94.45844 
C 116.999434 94.45844 118.21041 93.839249 119.103143 92.737237 
C 119.995877 91.635225 120.497479 90.140365 120.497479 88.581885 
C 120.497479 87.023404 119.995877 85.528545 119.103143 84.426533 
C 118.21041 83.32452 116.999434 82.705329 115.736919 82.705329 
C 114.474403 82.705329 113.263427 83.32452 112.370694 84.426533 
C 111.47796 85.528545 110.976358 87.023404 110.976358 88.581885 
C 110.976358 90.140365 111.47796 91.635225 112.370694 92.737237 
C 113.263427 93.839249 114.474403 94.45844 115.736919 94.45844 
z
" style="fill:#0000ff;opacity:0.2;stroke:#0000ff;stroke-linejoin:miter;stroke-width:2;"/>
   </g>
   <g id="[&quot;g_s&quot;:3,&quot;g_t&quot;:3,&quot;coords&quot;:[[135.0, 163.0],[149.0, 130.5]],&quot;certainty&quot;:6]">
    <path clip-path="url(#pdf601dd118)" d="M 96.694675 39.890426 
C 97.957191 39.890426 99.168167 39.271235 100.0609 38.169222 
C 100.953633 37.06721 101.455236 35.572351 101.455236 34.01387 
C 101.455236 32.455389 100.953633 30.96053 100.0609 29.858518 
C 99.168167 28.756506 97.957191 28.137315 96.694675 28.137315 
C 95.43216 28.137315 94.221184 28.756506 93.32845 29.858518 
C 92.435717 30.96053 91.934114 32.455389 91.934114 34.01387 
C 91.934114 35.572351 92.435717 37.06721 93.32845 38.169222 
C 94.221184 39.271235 95.43216 39.890426 96.694675 39.890426 
z
" style="fill:#ff0000;opacity:0.2;stroke:#ff0000;stroke-linejoin:miter;stroke-width:2;"/>
   </g>
   <g id="patch_24">
    <path d="M 115.736919 88.581885 
Q 106.545294 62.242093 97.761378 37.070644 
" style="fill:none;opacity:0.5;stroke:#ff0000;stroke-linecap:round;stroke-width:1.75;"/>
    <path d="M 96.839351 38.981106 
L 97.761378 37.070644 
L 99.67184 37.992671 
" style="fill:none;opacity:0.5;stroke:#ff0000;stroke-linecap:round;stroke-width:1.75;"/>
   </g>
   <g id="[&quot;g_s&quot;:4,&quot;g_t&quot;:4,&quot;coords&quot;:[[240.0, 65.5],[240.0, 91.0]],&quot;certainty&quot;:11]">
    <path clip-path="url(#pdf601dd118)" d="M 239.5115 207.792009 
C 241.675812 207.792009 243.751771 206.730539 245.282171 204.841375 
C 246.812571 202.952211 247.672461 200.389595 247.672461 197.717914 
C 247.672461 195.046233 246.812571 192.483617 245.282171 190.594453 
C 243.751771 188.705289 241.675812 187.643819 239.5115 187.643819 
C 237.347188 187.643819 235.271229 188.705289 233.740829 190.594453 
C 232.210429 192.483617 231.350539 195.046233 231.350539 197.717914 
C 231.350539 200.389595 232.210429 202.952211 233.740829 204.841375 
C 235.271229 206.730539 237.347188 207.792009 239.5115 207.792009 
z
" style="fill:#0000ff;opacity:0.2;stroke:#0000ff;stroke-linejoin:miter;stroke-width:2;"/>
   </g>
   <g id="[&quot;g_s&quot;:4,&quot;g_t&quot;:4,&quot;coords&quot;:[[240.0, 91.0],[240.0, 65.5]],&quot;certainty&quot;:11]">
    <path clip-path="url(#pdf601dd118)" d="M 239.5115 164.977105 
C 241.675812 164.977105 243.751771 163.915635 245.282171 162.026471 
C 246.812571 160.137307 247.672461 157.574691 247.672461 154.90301 
C 247.672461 152.231329 246.812571 149.668713 245.282171 147.779549 
C 243.751771 145.890385 241.675812 144.828915 239.5115 144.828915 
C 237.347188 144.828915 235.271229 145.890385 233.740829 147.779549 
C 232.210429 149.668713 231.350539 152.231329 231.350539 154.90301 
C 231.350539 157.574691 232.210429 160.137307 233.740829 162.026471 
C 235.271229 163.915635 237.347188 164.977105 239.5115 164.977105 
z
" style="fill:#ff0000;opacity:0.2;stroke:#ff0000;stroke-linejoin:miter;stroke-width:2;"/>
   </g>
   <g id="patch_25">
    <path d="M 239.5115 197.717914 
Q 239.5115 177.310017 239.5115 159.02344 
" style="fill:none;opacity:0.5;stroke:#ff0000;stroke-linecap:round;stroke-width:3;"/>
    <path d="M 238.0115 160.52344 
L 239.5115 159.02344 
L 241.0115 160.52344 
" style="fill:none;opacity:0.5;stroke:#ff0000;stroke-linecap:round;stroke-width:3;"/>
   </g>
   <g id="[&quot;g_s&quot;:5,&quot;g_t&quot;:5,&quot;coords&quot;:[[332.0, 130.5],[345.0, 163.0]],&quot;certainty&quot;:6]">
    <path clip-path="url(#pdf601dd118)" d="M 364.646242 94.45844 
C 365.908757 94.45844 367.119733 93.839249 368.012467 92.737237 
C 368.9052 91.635225 369.406802 90.140365 369.406802 88.581885 
C 369.406802 87.023404 368.9052 85.528545 368.012467 84.426533 
C 367.119733 83.32452 365.908757 82.705329 364.646242 82.705329 
C 363.383726 82.705329 362.17275 83.32452 361.280017 84.426533 
C 360.387284 85.528545 359.885681 87.023404 359.885681 88.581885 
C 359.885681 90.140365 360.387284 91.635225 361.280017 92.737237 
C 362.17275 93.839249 363.383726 94.45844 364.646242 94.45844 
z
" style="fill:#0000ff;opacity:0.2;stroke:#0000ff;stroke-linejoin:miter;stroke-width:2;"/>
   </g>
   <g id="[&quot;g_s&quot;:5,&quot;g_t&quot;:5,&quot;coords&quot;:[[345.0, 163.0],[332.0, 130.5]],&quot;certainty&quot;:6]">
    <path clip-path="url(#pdf601dd118)" d="M 382.328325 39.890426 
C 383.59084 39.890426 384.801816 39.271235 385.69455 38.169222 
C 386.587283 37.06721 387.088886 35.572351 387.088886 34.01387 
C 387.088886 32.455389 386.587283 30.96053 385.69455 29.858518 
C 384.801816 28.756506 383.59084 28.137315 382.328325 28.137315 
C 381.065809 28.137315 379.854833 28.756506 378.9621 29.858518 
C 378.069367 30.96053 377.567764 32.455389 377.567764 34.01387 
C 377.567764 35.572351 378.069367 37.06721 378.9621 38.169222 
C 379.854833 39.271235 381.065809 39.890426 382.328325 39.890426 
z
" style="fill:#ff0000;opacity:0.2;stroke:#ff0000;stroke-linejoin:miter;stroke-width:2;"/>
   </g>
   <g id="patch_26">
    <path d="M 364.646242 88.581885 
Q 373.179163 62.248754 381.330636 37.092801 
" style="fill:none;opacity:0.5;stroke:#ff0000;stroke-linecap:round;stroke-width:1.75;"/>
    <path d="M 379.441295 38.057369 
L 381.330636 37.092801 
L 382.295203 38.982142 
" style="fill:none;opacity:0.5;stroke:#ff0000;stroke-linecap:round;stroke-width:1.75;"/>
   </g>
   <g id="[&quot;g_s&quot;:6,&quot;g_t&quot;:6,&quot;coords&quot;:[[359.0, 130.5],[374.0, 163.0]],&quot;certainty&quot;:11]">
    <path clip-path="url(#pdf601dd118)" d="M 401.370568 98.65598 
C 403.53488 98.65598 405.610839 97.59451 407.141239 95.705346 
C 408.671639 93.816182 409.531529 91.253566 409.531529 88.581885 
C 409.531529 85.910204 408.671639 83.347588 407.141239 81.458424 
C 405.610839 79.56926 403.53488 78.50779 401.370568 78.50779 
C 399.206256 78.50779 397.130297 79.56926 395.599897 81.458424 
C 394.069497 83.347588 393.209607 85.910204 393.209607 88.581885 
C 393.209607 91.253566 394.069497 93.816182 395.599897 95.705346 
C 397.130297 97.59451 399.206256 98.65598 401.370568 98.65598 
z
" style="fill:#0000ff;opacity:0.2;stroke:#0000ff;stroke-linejoin:miter;stroke-width:2;"/>
   </g>
   <g id="[&quot;g_s&quot;:6,&quot;g_t&quot;:6,&quot;coords&quot;:[[374.0, 163.0],[359.0, 130.5]],&quot;certainty&quot;:11]">
    <path clip-path="url(#pdf601dd118)" d="M 421.772972 44.087965 
C 423.937284 44.087965 426.013243 43.026495 427.543643 41.137331 
C 429.074043 39.248167 429.933933 36.685551 429.933933 34.01387 
C 429.933933 31.342189 429.074043 28.779573 427.543643 26.890409 
C 426.013243 25.001245 423.937284 23.939775 421.772972 23.939775 
C 419.608659 23.939775 417.5327 25.001245 416.0023 26.890409 
C 414.471901 28.779573 413.61201 31.342189 413.61201 34.01387 
C 413.61201 36.685551 414.471901 39.248167 416.0023 41.137331 
C 417.5327 43.026495 419.608659 44.087965 421.772972 44.087965 
z
" style="fill:#ff0000;opacity:0.2;stroke:#ff0000;stroke-linejoin:miter;stroke-width:2;"/>
   </g>
   <g id="patch_27">
    <path d="M 401.370568 88.581885 
Q 411.221228 62.235432 420.328978 37.875958 
" style="fill:none;opacity:0.5;stroke:#ff0000;stroke-linecap:round;stroke-width:3;"/>
    <path d="M 418.398655 38.755647 
L 420.328978 37.875958 
L 421.208667 39.806281 
" style="fill:none;opacity:0.5;stroke:#ff0000;stroke-linecap:round;stroke-width:3;"/>
   </g>
   <g id="patch_28">
    <path clip-path="url(#pdf601dd118)" d="M 239.5115 297.199602 
C 241.315094 297.199602 243.045059 296.315044 244.320393 294.74074 
C 245.595726 293.166437 246.312301 291.030924 246.312301 288.804523 
C 246.312301 286.578122 245.595726 284.442609 244.320393 282.868306 
C 243.045059 281.294002 241.315094 280.409444 239.5115 280.409444 
C 237.707906 280.409444 235.977941 281.294002 234.702607 282.868306 
C 233.427274 284.442609 232.710699 286.578122 232.710699 288.804523 
C 232.710699 291.030924 233.427274 293.166437 234.702607 294.74074 
C 235.977941 296.315044 237.707906 297.199602 239.5115 297.199602 
z
" style="fill:#008000;opacity:0.2;stroke:#008000;stroke-linejoin:miter;stroke-width:2;"/>
   </g>
   <g id="patch_29">
    <path clip-path="url(#pdf601dd118)" d="M 67.45123 69.692957 
C 69.254824 69.692957 70.98479 68.808398 72.260123 67.234095 
C 73.535456 65.659792 74.252031 63.524278 74.252031 61.297877 
C 74.252031 59.071476 73.535456 56.935963 72.260123 55.36166 
C 70.98479 53.787357 69.254824 52.902798 67.45123 52.902798 
C 65.647637 52.902798 63.917671 53.787357 62.642338 55.36166 
C 61.367004 56.935963 60.650429 59.071476 60.650429 61.297877 
C 60.650429 63.524278 61.367004 65.659792 62.642338 67.234095 
C 63.917671 68.808398 65.647637 69.692957 67.45123 69.692957 
z
" style="fill:#008000;opacity:0.2;stroke:#008000;stroke-linejoin:miter;stroke-width:2;"/>
   </g>
   <g id="patch_30">
    <path clip-path="url(#pdf601dd118)" d="M 106.215797 69.692957 
C 108.01939 69.692957 109.749356 68.808398 111.02469 67.234095 
C 112.300023 65.659792 113.016598 63.524278 113.016598 61.297877 
C 113.016598 59.071476 112.300023 56.935963 111.02469 55.36166 
C 109.749356 53.787357 108.01939 52.902798 106.215797 52.902798 
C 104.412203 52.902798 102.682238 53.787357 101.406904 55.36166 
C 100.131571 56.935963 99.414996 59.071476 99.414996 61.297877 
C 99.414996 63.524278 100.131571 65.659792 101.406904 67.234095 
C 102.682238 68.808398 104.412203 69.692957 106.215797 69.692957 
z
" style="fill:#008000;opacity:0.2;stroke:#008000;stroke-linejoin:miter;stroke-width:2;"/>
   </g>
   <g id="patch_31">
    <path clip-path="url(#pdf601dd118)" d="M 239.5115 184.705541 
C 241.315094 184.705541 243.045059 183.820983 244.320393 182.246679 
C 245.595726 180.672376 246.312301 178.536863 246.312301 176.310462 
C 246.312301 174.084061 245.595726 171.948548 244.320393 170.374245 
C 243.045059 168.799941 241.315094 167.915383 239.5115 167.915383 
C 237.707906 167.915383 235.977941 168.799941 234.702607 170.374245 
C 233.427274 171.948548 232.710699 174.084061 232.710699 176.310462 
C 232.710699 178.536863 233.427274 180.672376 234.702607 182.246679 
C 235.977941 183.820983 237.707906 184.705541 239.5115 184.705541 
z
" style="fill:#008000;opacity:0.2;stroke:#008000;stroke-linejoin:miter;stroke-width:2;"/>
   </g>
   <g id="patch_32">
    <path clip-path="url(#pdf601dd118)" d="M 373.487283 69.692957 
C 375.290877 69.692957 377.020843 68.808398 378.296176 67.234095 
C 379.571509 65.659792 380.288084 63.524278 380.288084 61.297877 
C 380.288084 59.071476 379.571509 56.935963 378.296176 55.36166 
C 377.020843 53.787357 375.290877 52.902798 373.487283 52.902798 
C 371.68369 52.902798 369.953724 53.787357 368.678391 55.36166 
C 367.403057 56.935963 366.686482 59.071476 366.686482 61.297877 
C 366.686482 63.524278 367.403057 65.659792 368.678391 67.234095 
C 369.953724 68.808398 371.68369 69.692957 373.487283 69.692957 
z
" style="fill:#008000;opacity:0.2;stroke:#008000;stroke-linejoin:miter;stroke-width:2;"/>
   </g>
   <g id="patch_33">
    <path clip-path="url(#pdf601dd118)" d="M 411.57177 69.692957 
C 413.375363 69.692957 415.105329 68.808398 416.380662 67.234095 
C 417.655996 65.659792 418.372571 63.524278 418.372571 61.297877 
C 418.372571 59.071476 417.655996 56.935963 416.380662 55.36166 
C 415.105329 53.787357 413.375363 52.902798 411.57177 52.902798 
C 409.768176 52.902798 408.03821 53.787357 406.762877 55.36166 
C 405.487544 56.935963 404.770969 59.071476 404.770969 61.297877 
C 404.770969 63.524278 405.487544 65.659792 406.762877 67.234095 
C 408.03821 68.808398 409.768176 69.692957 411.57177 69.692957 
z
" style="fill:#008000;opacity:0.2;stroke:#008000;stroke-linejoin:miter;stroke-width:2;"/>
   </g>
   <g id="patch_34">
    <path clip-path="url(#pdf601dd118)" d="M 239.5115 307.693451 
C 246.725874 307.693451 253.645738 304.155217 258.747071 297.858004 
C 263.848403 291.560791 266.714705 283.018739 266.714705 274.113134 
C 266.714705 265.20753 263.848403 256.665478 258.747071 250.368265 
C 253.645738 244.071052 246.725874 240.532818 239.5115 240.532818 
C 232.297126 240.532818 225.377262 244.071052 220.275929 250.368265 
C 215.174597 256.665478 212.308295 265.20753 212.308295 274.113134 
C 212.308295 283.018739 215.174597 291.560791 220.275929 297.858004 
C 225.377262 304.155217 232.297126 307.693451 239.5115 307.693451 
z
" style="fill:none;opacity:0.2;stroke:#ff0000;stroke-linejoin:miter;stroke-width:2;"/>
   </g>
   <g id="patch_35">
    <path clip-path="url(#pdf601dd118)" d="M 239.5115 337.076228 
C 246.725874 337.076228 253.645738 333.537994 258.747071 327.240781 
C 263.848403 320.943568 266.714705 312.401516 266.714705 303.495912 
C 266.714705 294.590307 263.848403 286.048255 258.747071 279.751042 
C 253.645738 273.453829 246.725874 269.915595 239.5115 269.915595 
C 232.297126 269.915595 225.377262 273.453829 220.275929 279.751042 
C 215.174597 286.048255 212.308295 294.590307 212.308295 303.495912 
C 212.308295 312.401516 215.174597 320.943568 220.275929 327.240781 
C 225.377262 333.537994 232.297126 337.076228 239.5115 337.076228 
z
" style="fill:none;opacity:0.2;stroke:#0000ff;stroke-linejoin:miter;stroke-width:2;"/>
   </g>
   <g id="patch_36">
    <path clip-path="url(#pdf601dd118)" d="M 239.5115 290.903293 
C 243.118687 290.903293 246.578619 289.134176 249.129285 285.985569 
C 251.679952 282.836963 253.113102 278.565936 253.113102 274.113134 
C 253.113102 269.660332 251.679952 265.389306 249.129285 262.2407 
C 246.578619 259.092093 243.118687 257.322976 239.5115 257.322976 
C 235.904313 257.322976 232.444381 259.092093 229.893715 262.2407 
C 227.343048 265.389306 225.909898 269.660332 225.909898 274.113134 
C 225.909898 278.565936 227.343048 282.836963 229.893715 285.985569 
C 232.444381 289.134176 235.904313 290.903293 239.5115 290.903293 
z
" style="fill:none;opacity:0.2;stroke:#008000;stroke-linejoin:miter;stroke-width:2;"/>
   </g>
   <g id="patch_37">
    <path clip-path="url(#pdf601dd118)" d="M 239.5115 320.28607 
C 243.118687 320.28607 246.578619 318.516953 249.129285 315.368346 
C 251.679952 312.21974 253.113102 307.948714 253.113102 303.495912 
C 253.113102 299.043109 251.679952 294.772083 249.129285 291.623477 
C 246.578619 288.47487 243.118687 286.705753 239.5115 286.705753 
C 235.904313 286.705753 232.444381 288.47487 229.893715 291.623477 
C 227.343048 294.772083 225.909898 299.043109 225.909898 303.495912 
C 225.909898 307.948714 227.343048 312.21974 229.893715 315.368346 
C 232.444381 318.516953 235.904313 320.28607 239.5115 320.28607 
z
" style="fill:none;opacity:0.2;stroke:#008000;stroke-linejoin:miter;stroke-width:2;"/>
   </g>
   <g id="patch_38">
    <path d="M 239.5115 288.804523 
Q 153.481365 175.0512 67.45123 61.297877 
" style="fill:none;opacity:0.5;stroke:#008000;stroke-linecap:round;stroke-width:2;"/>
   </g>
   <g id="patch_39">
    <path d="M 239.5115 275.527348 
Q 239.5115 287.805609 239.5115 300.08387 
" style="fill:none;opacity:0.5;stroke:#800080;stroke-linecap:round;stroke-width:2;"/>
    <path d="M 238.0115 277.027348 
L 239.5115 275.527348 
L 241.0115 277.027348 
" style="fill:none;opacity:0.5;stroke:#800080;stroke-linecap:round;stroke-width:2;"/>
    <path d="M 241.0115 298.58387 
L 239.5115 300.08387 
L 238.0115 298.58387 
" style="fill:none;opacity:0.5;stroke:#800080;stroke-linecap:round;stroke-width:2;"/>
   </g>
   <g id="patch_40">
    <path d="M 67.45123 61.297877 
Q 86.833514 61.297877 106.215797 61.297877 
" style="fill:none;opacity:0.5;stroke:#008000;stroke-linecap:round;stroke-width:2;"/>
   </g>
   <g id="patch_41">
    <path d="M 57.745302 35.338523 
Q 67.100688 60.360323 76.456075 85.382123 
" style="fill:none;opacity:0.5;stroke:#800080;stroke-linecap:round;stroke-width:2;"/>
    <path d="M 56.865613 37.268846 
L 57.745302 35.338523 
L 59.675625 36.218212 
" style="fill:none;opacity:0.5;stroke:#800080;stroke-linecap:round;stroke-width:2;"/>
    <path d="M 77.335764 83.4518 
L 76.456075 85.382123 
L 74.525752 84.502434 
" style="fill:none;opacity:0.5;stroke:#800080;stroke-linecap:round;stroke-width:2;"/>
   </g>
   <g id="patch_42">
    <path d="M 106.215797 61.297877 
Q 172.863648 118.80417 239.5115 176.310462 
" style="fill:none;opacity:0.5;stroke:#008000;stroke-linecap:round;stroke-width:2;"/>
   </g>
   <g id="patch_43">
    <path d="M 97.160628 35.349118 
Q 105.8863 60.353662 114.611972 85.358205 
" style="fill:none;opacity:0.5;stroke:#800080;stroke-linecap:round;stroke-width:2;"/>
    <path d="M 96.238601 37.259581 
L 97.160628 35.349118 
L 99.07109 36.271145 
" style="fill:none;opacity:0.5;stroke:#800080;stroke-linecap:round;stroke-width:2;"/>
    <path d="M 115.533999 83.447743 
L 114.611972 85.358205 
L 112.70151 84.436178 
" style="fill:none;opacity:0.5;stroke:#800080;stroke-linecap:round;stroke-width:2;"/>
   </g>
   <g id="patch_44">
    <path d="M 239.5115 176.310462 
Q 306.499392 118.80417 373.487283 61.297877 
" style="fill:none;opacity:0.5;stroke:#008000;stroke-linecap:round;stroke-width:2;"/>
   </g>
   <g id="patch_45">
    <path d="M 239.5115 156.317224 
Q 239.5115 175.310908 239.5115 194.304591 
" style="fill:none;opacity:0.5;stroke:#800080;stroke-linecap:round;stroke-width:2;"/>
    <path d="M 238.0115 157.817224 
L 239.5115 156.317224 
L 241.0115 157.817224 
" style="fill:none;opacity:0.5;stroke:#800080;stroke-linecap:round;stroke-width:2;"/>
    <path d="M 241.0115 192.804591 
L 239.5115 194.304591 
L 238.0115 192.804591 
" style="fill:none;opacity:0.5;stroke:#800080;stroke-linecap:round;stroke-width:2;"/>
   </g>
   <g id="patch_46">
    <path d="M 373.487283 61.297877 
Q 392.529526 61.297877 411.57177 61.297877 
" style="fill:none;opacity:0.5;stroke:#008000;stroke-linecap:round;stroke-width:2;"/>
   </g>
   <g id="patch_47">
    <path d="M 381.892382 35.359216 
Q 373.795403 60.347 365.698424 85.334785 
" style="fill:none;opacity:0.5;stroke:#800080;stroke-linecap:round;stroke-width:2;"/>
    <path d="M 380.003041 36.323783 
L 381.892382 35.359216 
L 382.85695 37.248557 
" style="fill:none;opacity:0.5;stroke:#800080;stroke-linecap:round;stroke-width:2;"/>
    <path d="M 367.587765 84.370218 
L 365.698424 85.334785 
L 364.733856 83.445444 
" style="fill:none;opacity:0.5;stroke:#800080;stroke-linecap:round;stroke-width:2;"/>
   </g>
   <g id="patch_48">
    <path d="M 411.57177 61.297877 
Q 325.541635 175.0512 239.5115 288.804523 
" style="fill:none;opacity:0.5;stroke:#008000;stroke-linecap:round;stroke-width:2;"/>
   </g>
   <g id="patch_49">
    <path d="M 421.277698 35.338523 
Q 411.922312 60.360323 402.566925 85.382123 
" style="fill:none;opacity:0.5;stroke:#800080;stroke-linecap:round;stroke-width:2;"/>
    <path d="M 419.347375 36.218212 
L 421.277698 35.338523 
L 422.157387 37.268846 
" style="fill:none;opacity:0.5;stroke:#800080;stroke-linecap:round;stroke-width:2;"/>
    <path d="M 404.497248 84.502434 
L 402.566925 85.382123 
L 401.687236 83.4518 
" style="fill:none;opacity:0.5;stroke:#800080;stroke-linecap:round;stroke-width:2;"/>
   </g>
   <g id="line2d_1">
    <path clip-path="url(#pdf601dd118)" d="M 239.5115 274.113134 
L 57.250028 34.01387 
L 96.694675 34.01387 
L 239.5115 154.90301 
L 382.328325 34.01387 
L 421.772972 34.01387 
" style="fill:none;stroke:#ff0000;stroke-linecap:square;stroke-width:0.2;"/>
   </g>
   <g id="line2d_2">
    <path clip-path="url(#pdf601dd118)" d="M 239.5115 303.495912 
L 77.652432 88.581885 
L 115.736919 88.581885 
L 239.5115 197.717914 
L 364.646242 88.581885 
L 401.370568 88.581885 
" style="fill:none;stroke:#0000ff;stroke-linecap:square;stroke-width:0.2;"/>
   </g>
  </g>
 </g>
 <defs>
  <clipPath id="pdf601dd118">
   <rect height="307.51175" width="415.937" x="31.543" y="13.32"/>
  </clipPath>
 </defs>
</svg>
