<?xml version="1.0" encoding="utf-8" standalone="no"?>
<!DOCTYPE svg PUBLIC "-//W3C//DTD SVG 1.1//EN"
  "http://www.w3.org/Graphics/SVG/1.1/DTD/svg11.dtd">
<!-- Created with matplotlib (http://matplotlib.org/) -->
<svg height="345.6pt" version="1.1" viewBox="0 0 460.8 345.6" width="460.8pt" xmlns="http://www.w3.org/2000/svg" xmlns:xlink="http://www.w3.org/1999/xlink">
 <defs>
  <style type="text/css">
*{stroke-linecap:butt;stroke-linejoin:round;}
  </style>
 </defs>
 <g id="figure_1">
  <g id="patch_1">
   <path d="M 0 345.6 
L 460.8 345.6 
L 460.8 0 
L 0 0 
z
" style="fill:#ffffff;"/>
  </g>
  <g id="axes_1">
   <g id="patch_2">
    <path clip-path="url(#p838f1ebdb7)" d="M 363.75812 34.350829 
C 365.484325 34.350829 367.14006 34.283269 368.360671 34.16303 
C 369.581282 34.042791 370.26711 33.879689 370.26711 33.709645 
C 370.26711 33.539601 369.581282 33.376499 368.360671 33.256259 
C 367.14006 33.13602 365.484325 33.068461 363.75812 33.068461 
C 362.031916 33.068461 360.37618 33.13602 359.15557 33.256259 
C 357.934959 33.376499 357.249131 33.539601 357.249131 33.709645 
C 357.249131 33.879689 357.934959 34.042791 359.15557 34.16303 
C 360.37618 34.283269 362.031916 34.350829 363.75812 34.350829 
z
" style="fill:#ff0000;opacity:0.2;stroke:#ff0000;stroke-linejoin:miter;stroke-width:2;"/>
   </g>
   <g id="patch_3">
    <path clip-path="url(#p838f1ebdb7)" d="M 363.75812 146.557993 
C 365.484325 146.557993 367.14006 146.490434 368.360671 146.370195 
C 369.581282 146.249956 370.26711 146.086854 370.26711 145.91681 
C 370.26711 145.746766 369.581282 145.583663 368.360671 145.463424 
C 367.14006 145.343185 365.484325 145.275626 363.75812 145.275626 
C 362.031916 145.275626 360.37618 145.343185 359.15557 145.463424 
C 357.934959 145.583663 357.249131 145.746766 357.249131 145.91681 
C 357.249131 146.086854 357.934959 146.249956 359.15557 146.370195 
C 360.37618 146.490434 362.031916 146.557993 363.75812 146.557993 
z
" style="fill:#ff0000;opacity:0.2;stroke:#ff0000;stroke-linejoin:miter;stroke-width:2;"/>
   </g>
   <g id="patch_4">
    <path clip-path="url(#p838f1ebdb7)" d="M 77.362574 146.557993 
C 79.088779 146.557993 80.744514 146.490434 81.965125 146.370195 
C 83.185736 146.249956 83.871564 146.086854 83.871564 145.91681 
C 83.871564 145.746766 83.185736 145.583663 81.965125 145.463424 
C 80.744514 145.343185 79.088779 145.275626 77.362574 145.275626 
C 75.63637 145.275626 73.980634 145.343185 72.760024 145.463424 
C 71.539413 145.583663 70.853585 145.746766 70.853585 145.91681 
C 70.853585 146.086854 71.539413 146.249956 72.760024 146.370195 
C 73.980634 146.490434 75.63637 146.557993 77.362574 146.557993 
z
" style="fill:#ff0000;opacity:0.2;stroke:#ff0000;stroke-linejoin:miter;stroke-width:2;"/>
   </g>
   <g id="patch_5">
    <path clip-path="url(#p838f1ebdb7)" d="M 77.362574 34.350829 
C 79.088779 34.350829 80.744514 34.283269 81.965125 34.16303 
C 83.185736 34.042791 83.871564 33.879689 83.871564 33.709645 
C 83.871564 33.539601 83.185736 33.376499 81.965125 33.256259 
C 80.744514 33.13602 79.088779 33.068461 77.362574 33.068461 
C 75.63637 33.068461 73.980634 33.13602 72.760024 33.256259 
C 71.539413 33.376499 70.853585 33.539601 70.853585 33.709645 
C 70.853585 33.879689 71.539413 34.042791 72.760024 34.16303 
C 73.980634 34.283269 75.63637 34.350829 77.362574 34.350829 
z
" style="fill:#ff0000;opacity:0.2;stroke:#ff0000;stroke-linejoin:miter;stroke-width:2;"/>
   </g>
   <g id="patch_6">
    <path clip-path="url(#p838f1ebdb7)" d="M 316.567945 34.350829 
C 318.294149 34.350829 319.949885 34.283269 321.170496 34.16303 
C 322.391107 34.042791 323.076935 33.879689 323.076935 33.709645 
C 323.076935 33.539601 322.391107 33.376499 321.170496 33.256259 
C 319.949885 33.13602 318.294149 33.068461 316.567945 33.068461 
C 314.841741 33.068461 313.186005 33.13602 311.965394 33.256259 
C 310.744784 33.376499 310.058955 33.539601 310.058955 33.709645 
C 310.058955 33.879689 310.744784 34.042791 311.965394 34.16303 
C 313.186005 34.283269 314.841741 34.350829 316.567945 34.350829 
z
" style="fill:#0000ff;opacity:0.2;stroke:#0000ff;stroke-linejoin:miter;stroke-width:2;"/>
   </g>
   <g id="patch_7">
    <path clip-path="url(#p838f1ebdb7)" d="M 316.567945 146.557993 
C 318.294149 146.557993 319.949885 146.490434 321.170496 146.370195 
C 322.391107 146.249956 323.076935 146.086854 323.076935 145.91681 
C 323.076935 145.746766 322.391107 145.583663 321.170496 145.463424 
C 319.949885 145.343185 318.294149 145.275626 316.567945 145.275626 
C 314.841741 145.275626 313.186005 145.343185 311.965394 145.463424 
C 310.744784 145.583663 310.058955 145.746766 310.058955 145.91681 
C 310.058955 146.086854 310.744784 146.249956 311.965394 146.370195 
C 313.186005 146.490434 314.841741 146.557993 316.567945 146.557993 
z
" style="fill:#0000ff;opacity:0.2;stroke:#0000ff;stroke-linejoin:miter;stroke-width:2;"/>
   </g>
   <g id="patch_8">
    <path clip-path="url(#p838f1ebdb7)" d="M 124.55275 146.557993 
C 126.278954 146.557993 127.93469 146.490434 129.1553 146.370195 
C 130.375911 146.249956 131.061739 146.086854 131.061739 145.91681 
C 131.061739 145.746766 130.375911 145.583663 129.1553 145.463424 
C 127.93469 145.343185 126.278954 145.275626 124.55275 145.275626 
C 122.826545 145.275626 121.17081 145.343185 119.950199 145.463424 
C 118.729588 145.583663 118.04376 145.746766 118.04376 145.91681 
C 118.04376 146.086854 118.729588 146.249956 119.950199 146.370195 
C 121.17081 146.490434 122.826545 146.557993 124.55275 146.557993 
z
" style="fill:#0000ff;opacity:0.2;stroke:#0000ff;stroke-linejoin:miter;stroke-width:2;"/>
   </g>
   <g id="patch_9">
    <path clip-path="url(#p838f1ebdb7)" d="M 124.55275 34.350829 
C 126.278954 34.350829 127.93469 34.283269 129.1553 34.16303 
C 130.375911 34.042791 131.061739 33.879689 131.061739 33.709645 
C 131.061739 33.539601 130.375911 33.376499 129.1553 33.256259 
C 127.93469 33.13602 126.278954 33.068461 124.55275 33.068461 
C 122.826545 33.068461 121.17081 33.13602 119.950199 33.256259 
C 118.729588 33.376499 118.04376 33.539601 118.04376 33.709645 
C 118.04376 33.879689 118.729588 34.042791 119.950199 34.16303 
C 121.17081 34.283269 122.826545 34.350829 124.55275 34.350829 
z
" style="fill:#0000ff;opacity:0.2;stroke:#0000ff;stroke-linejoin:miter;stroke-width:2;"/>
   </g>
   <g id="patch_10">
    <path clip-path="url(#p838f1ebdb7)" d="M 363.75812 33.709645 
L 363.75812 145.91681 
L 77.362574 145.91681 
L 77.362574 33.709645 
L 363.75812 33.709645 
" style="fill:none;stroke:#ff0000;stroke-linejoin:miter;stroke-width:0.5;"/>
   </g>
   <g id="patch_11">
    <path clip-path="url(#p838f1ebdb7)" d="M 316.567945 33.709645 
L 316.567945 145.91681 
L 124.55275 145.91681 
L 124.55275 33.709645 
L 316.567945 33.709645 
" style="fill:none;stroke:#0000ff;stroke-linejoin:miter;stroke-width:0.5;"/>
   </g>
   <g id="[&quot;g_s&quot;:1,&quot;g_t&quot;:1,&quot;coords&quot;:[[218.0, -25.0],[203.5, -25.0]],&quot;certainty&quot;:10]">
    <path clip-path="url(#p838f1ebdb7)" d="M 363.75812 35.4729 
C 368.505182 35.4729 373.058455 35.287113 376.415135 34.956455 
C 379.771814 34.625797 381.657842 34.177266 381.657842 33.709645 
C 381.657842 33.242024 379.771814 32.793493 376.415135 32.462835 
C 373.058455 32.132177 368.505182 31.946389 363.75812 31.946389 
C 359.011059 31.946389 354.457785 32.132177 351.101106 32.462835 
C 347.744426 32.793493 345.858399 33.242024 345.858399 33.709645 
C 345.858399 34.177266 347.744426 34.625797 351.101106 34.956455 
C 354.457785 35.287113 359.011059 35.4729 363.75812 35.4729 
z
" style="fill:#0000ff;opacity:0.2;stroke:#0000ff;stroke-linejoin:miter;stroke-width:2;"/>
   </g>
   <g id="[&quot;g_s&quot;:1,&quot;g_t&quot;:1,&quot;coords&quot;:[[203.5, -25.0],[218.0, -25.0]],&quot;certainty&quot;:10]">
    <path clip-path="url(#p838f1ebdb7)" d="M 316.567945 35.4729 
C 321.315007 35.4729 325.86828 35.287113 329.22496 34.956455 
C 332.581639 34.625797 334.467667 34.177266 334.467667 33.709645 
C 334.467667 33.242024 332.581639 32.793493 329.22496 32.462835 
C 325.86828 32.132177 321.315007 31.946389 316.567945 31.946389 
C 311.820883 31.946389 307.26761 32.132177 303.910931 32.462835 
C 300.554251 32.793493 298.668223 33.242024 298.668223 33.709645 
C 298.668223 34.177266 300.554251 34.625797 303.910931 34.956455 
C 307.26761 35.287113 311.820883 35.4729 316.567945 35.4729 
z
" style="fill:#ff0000;opacity:0.2;stroke:#ff0000;stroke-linejoin:miter;stroke-width:2;"/>
   </g>
   <g id="patch_12">
    <path d="M 363.75812 33.709645 
Q 341.163923 33.709645 320.514269 33.709645 
" style="fill:none;opacity:0.5;stroke:#0000ff;stroke-linecap:round;stroke-width:2.75;"/>
    <path d="M 322.014269 35.209645 
L 320.514269 33.709645 
L 322.014269 32.209645 
" style="fill:none;opacity:0.5;stroke:#0000ff;stroke-linecap:round;stroke-width:2.75;"/>
   </g>
   <g id="[&quot;g_s&quot;:2,&quot;g_t&quot;:2,&quot;coords&quot;:[[218.0, -375.0],[203.5, -375.0]],&quot;certainty&quot;:11]">
    <path clip-path="url(#p838f1ebdb7)" d="M 363.75812 147.840361 
C 368.936733 147.840361 373.90394 147.637684 377.565772 147.276966 
C 381.227605 146.916248 383.285089 146.426941 383.285089 145.91681 
C 383.285089 145.406678 381.227605 144.917371 377.565772 144.556653 
C 373.90394 144.195936 368.936733 143.993258 363.75812 143.993258 
C 358.579508 143.993258 353.6123 144.195936 349.950468 144.556653 
C 346.288636 144.917371 344.231151 145.406678 344.231151 145.91681 
C 344.231151 146.426941 346.288636 146.916248 349.950468 147.276966 
C 353.6123 147.637684 358.579508 147.840361 363.75812 147.840361 
z
" style="fill:#0000ff;opacity:0.2;stroke:#0000ff;stroke-linejoin:miter;stroke-width:2;"/>
   </g>
   <g id="[&quot;g_s&quot;:2,&quot;g_t&quot;:2,&quot;coords&quot;:[[203.5, -375.0],[218.0, -375.0]],&quot;certainty&quot;:11]">
    <path clip-path="url(#p838f1ebdb7)" d="M 316.567945 147.840361 
C 321.746558 147.840361 326.713765 147.637684 330.375597 147.276966 
C 334.037429 146.916248 336.094914 146.426941 336.094914 145.91681 
C 336.094914 145.406678 334.037429 144.917371 330.375597 144.556653 
C 326.713765 144.195936 321.746558 143.993258 316.567945 143.993258 
C 311.389332 143.993258 306.422125 144.195936 302.760293 144.556653 
C 299.098461 144.917371 297.040976 145.406678 297.040976 145.91681 
C 297.040976 146.426941 299.098461 146.916248 302.760293 147.276966 
C 306.422125 147.637684 311.389332 147.840361 316.567945 147.840361 
z
" style="fill:#ff0000;opacity:0.2;stroke:#ff0000;stroke-linejoin:miter;stroke-width:2;"/>
   </g>
   <g id="patch_13">
    <path d="M 363.75812 145.91681 
Q 341.163923 145.91681 320.691046 145.91681 
" style="fill:none;opacity:0.5;stroke:#0000ff;stroke-linecap:round;stroke-width:3;"/>
    <path d="M 322.191046 147.41681 
L 320.691046 145.91681 
L 322.191046 144.41681 
" style="fill:none;opacity:0.5;stroke:#0000ff;stroke-linecap:round;stroke-width:3;"/>
   </g>
   <g id="[&quot;g_s&quot;:3,&quot;g_t&quot;:3,&quot;coords&quot;:[[130.0, -375.0],[144.5, -375.0]],&quot;certainty&quot;:11]">
    <path clip-path="url(#p838f1ebdb7)" d="M 77.362574 147.840361 
C 82.541187 147.840361 87.508394 147.637684 91.170227 147.276966 
C 94.832059 146.916248 96.889543 146.426941 96.889543 145.91681 
C 96.889543 145.406678 94.832059 144.917371 91.170227 144.556653 
C 87.508394 144.195936 82.541187 143.993258 77.362574 143.993258 
C 72.183962 143.993258 67.216754 144.195936 63.554922 144.556653 
C 59.89309 144.917371 57.835605 145.406678 57.835605 145.91681 
C 57.835605 146.426941 59.89309 146.916248 63.554922 147.276966 
C 67.216754 147.637684 72.183962 147.840361 77.362574 147.840361 
z
" style="fill:#0000ff;opacity:0.2;stroke:#0000ff;stroke-linejoin:miter;stroke-width:2;"/>
   </g>
   <g id="[&quot;g_s&quot;:3,&quot;g_t&quot;:3,&quot;coords&quot;:[[144.5, -375.0],[130.0, -375.0]],&quot;certainty&quot;:11]">
    <path clip-path="url(#p838f1ebdb7)" d="M 124.55275 147.840361 
C 129.731362 147.840361 134.69857 147.637684 138.360402 147.276966 
C 142.022234 146.916248 144.079719 146.426941 144.079719 145.91681 
C 144.079719 145.406678 142.022234 144.917371 138.360402 144.556653 
C 134.69857 144.195936 129.731362 143.993258 124.55275 143.993258 
C 119.374137 143.993258 114.40693 144.195936 110.745097 144.556653 
C 107.083265 144.917371 105.025781 145.406678 105.025781 145.91681 
C 105.025781 146.426941 107.083265 146.916248 110.745097 147.276966 
C 114.40693 147.637684 119.374137 147.840361 124.55275 147.840361 
z
" style="fill:#ff0000;opacity:0.2;stroke:#ff0000;stroke-linejoin:miter;stroke-width:2;"/>
   </g>
   <g id="patch_14">
    <path d="M 77.362574 145.91681 
Q 99.956772 145.91681 120.429649 145.91681 
" style="fill:none;opacity:0.5;stroke:#0000ff;stroke-linecap:round;stroke-width:3;"/>
    <path d="M 118.929649 144.41681 
L 120.429649 145.91681 
L 118.929649 147.41681 
" style="fill:none;opacity:0.5;stroke:#0000ff;stroke-linecap:round;stroke-width:3;"/>
   </g>
   <g id="[&quot;g_s&quot;:4,&quot;g_t&quot;:4,&quot;coords&quot;:[[130.0, -25.0],[144.5, -25.0]],&quot;certainty&quot;:12]">
    <path clip-path="url(#p838f1ebdb7)" d="M 77.362574 35.793492 
C 82.972738 35.793492 88.353879 35.573925 92.320864 35.183147 
C 96.287849 34.79237 98.516791 34.262288 98.516791 33.709645 
C 98.516791 33.157002 96.287849 32.62692 92.320864 32.236142 
C 88.353879 31.845365 82.972738 31.625797 77.362574 31.625797 
C 71.752411 31.625797 66.371269 31.845365 62.404285 32.236142 
C 58.4373 32.62692 56.208358 33.157002 56.208358 33.709645 
C 56.208358 34.262288 58.4373 34.79237 62.404285 35.183147 
C 66.371269 35.573925 71.752411 35.793492 77.362574 35.793492 
z
" style="fill:#0000ff;opacity:0.2;stroke:#0000ff;stroke-linejoin:miter;stroke-width:2;"/>
   </g>
   <g id="[&quot;g_s&quot;:4,&quot;g_t&quot;:4,&quot;coords&quot;:[[144.5, -25.0],[130.0, -25.0]],&quot;certainty&quot;:12]">
    <path clip-path="url(#p838f1ebdb7)" d="M 124.55275 35.793492 
C 130.162913 35.793492 135.544055 35.573925 139.511039 35.183147 
C 143.478024 34.79237 145.706966 34.262288 145.706966 33.709645 
C 145.706966 33.157002 143.478024 32.62692 139.511039 32.236142 
C 135.544055 31.845365 130.162913 31.625797 124.55275 31.625797 
C 118.942586 31.625797 113.561445 31.845365 109.59446 32.236142 
C 105.627475 32.62692 103.398533 33.157002 103.398533 33.709645 
C 103.398533 34.262288 105.627475 34.79237 109.59446 35.183147 
C 113.561445 35.573925 118.942586 35.793492 124.55275 35.793492 
z
" style="fill:#ff0000;opacity:0.2;stroke:#ff0000;stroke-linejoin:miter;stroke-width:2;"/>
   </g>
   <g id="patch_15">
    <path d="M 77.362574 33.709645 
Q 99.956772 33.709645 120.252872 33.709645 
" style="fill:none;opacity:0.5;stroke:#0000ff;stroke-linecap:round;stroke-width:3.25;"/>
    <path d="M 118.752872 32.209645 
L 120.252872 33.709645 
L 118.752872 35.209645 
" style="fill:none;opacity:0.5;stroke:#0000ff;stroke-linecap:round;stroke-width:3.25;"/>
   </g>
   <g id="[&quot;g_s&quot;:1,&quot;g_t&quot;:1,&quot;coords&quot;:[[203.5, -25.0],[218.0, -25.0]],&quot;certainty&quot;:10]">
    <path clip-path="url(#p838f1ebdb7)" d="M 316.567945 35.4729 
C 321.315007 35.4729 325.86828 35.287113 329.22496 34.956455 
C 332.581639 34.625797 334.467667 34.177266 334.467667 33.709645 
C 334.467667 33.242024 332.581639 32.793493 329.22496 32.462835 
C 325.86828 32.132177 321.315007 31.946389 316.567945 31.946389 
C 311.820883 31.946389 307.26761 32.132177 303.910931 32.462835 
C 300.554251 32.793493 298.668223 33.242024 298.668223 33.709645 
C 298.668223 34.177266 300.554251 34.625797 303.910931 34.956455 
C 307.26761 35.287113 311.820883 35.4729 316.567945 35.4729 
z
" style="fill:#0000ff;opacity:0.2;stroke:#0000ff;stroke-linejoin:miter;stroke-width:2;"/>
   </g>
   <g id="[&quot;g_s&quot;:1,&quot;g_t&quot;:1,&quot;coords&quot;:[[218.0, -25.0],[203.5, -25.0]],&quot;certainty&quot;:10]">
    <path clip-path="url(#p838f1ebdb7)" d="M 363.75812 35.4729 
C 368.505182 35.4729 373.058455 35.287113 376.415135 34.956455 
C 379.771814 34.625797 381.657842 34.177266 381.657842 33.709645 
C 381.657842 33.242024 379.771814 32.793493 376.415135 32.462835 
C 373.058455 32.132177 368.505182 31.946389 363.75812 31.946389 
C 359.011059 31.946389 354.457785 32.132177 351.101106 32.462835 
C 347.744426 32.793493 345.858399 33.242024 345.858399 33.709645 
C 345.858399 34.177266 347.744426 34.625797 351.101106 34.956455 
C 354.457785 35.287113 359.011059 35.4729 363.75812 35.4729 
z
" style="fill:#ff0000;opacity:0.2;stroke:#ff0000;stroke-linejoin:miter;stroke-width:2;"/>
   </g>
   <g id="patch_16">
    <path d="M 316.567945 33.709645 
Q 339.162142 33.709645 359.811796 33.709645 
" style="fill:none;opacity:0.5;stroke:#ff0000;stroke-linecap:round;stroke-width:2.75;"/>
    <path d="M 358.311796 32.209645 
L 359.811796 33.709645 
L 358.311796 35.209645 
" style="fill:none;opacity:0.5;stroke:#ff0000;stroke-linecap:round;stroke-width:2.75;"/>
   </g>
   <g id="[&quot;g_s&quot;:2,&quot;g_t&quot;:2,&quot;coords&quot;:[[203.5, -375.0],[218.0, -375.0]],&quot;certainty&quot;:11]">
    <path clip-path="url(#p838f1ebdb7)" d="M 316.567945 147.840361 
C 321.746558 147.840361 326.713765 147.637684 330.375597 147.276966 
C 334.037429 146.916248 336.094914 146.426941 336.094914 145.91681 
C 336.094914 145.406678 334.037429 144.917371 330.375597 144.556653 
C 326.713765 144.195936 321.746558 143.993258 316.567945 143.993258 
C 311.389332 143.993258 306.422125 144.195936 302.760293 144.556653 
C 299.098461 144.917371 297.040976 145.406678 297.040976 145.91681 
C 297.040976 146.426941 299.098461 146.916248 302.760293 147.276966 
C 306.422125 147.637684 311.389332 147.840361 316.567945 147.840361 
z
" style="fill:#0000ff;opacity:0.2;stroke:#0000ff;stroke-linejoin:miter;stroke-width:2;"/>
   </g>
   <g id="[&quot;g_s&quot;:2,&quot;g_t&quot;:2,&quot;coords&quot;:[[218.0, -375.0],[203.5, -375.0]],&quot;certainty&quot;:11]">
    <path clip-path="url(#p838f1ebdb7)" d="M 363.75812 147.840361 
C 368.936733 147.840361 373.90394 147.637684 377.565772 147.276966 
C 381.227605 146.916248 383.285089 146.426941 383.285089 145.91681 
C 383.285089 145.406678 381.227605 144.917371 377.565772 144.556653 
C 373.90394 144.195936 368.936733 143.993258 363.75812 143.993258 
C 358.579508 143.993258 353.6123 144.195936 349.950468 144.556653 
C 346.288636 144.917371 344.231151 145.406678 344.231151 145.91681 
C 344.231151 146.426941 346.288636 146.916248 349.950468 147.276966 
C 353.6123 147.637684 358.579508 147.840361 363.75812 147.840361 
z
" style="fill:#ff0000;opacity:0.2;stroke:#ff0000;stroke-linejoin:miter;stroke-width:2;"/>
   </g>
   <g id="patch_17">
    <path d="M 316.567945 145.91681 
Q 339.162142 145.91681 359.635019 145.91681 
" style="fill:none;opacity:0.5;stroke:#ff0000;stroke-linecap:round;stroke-width:3;"/>
    <path d="M 358.135019 144.41681 
L 359.635019 145.91681 
L 358.135019 147.41681 
" style="fill:none;opacity:0.5;stroke:#ff0000;stroke-linecap:round;stroke-width:3;"/>
   </g>
   <g id="[&quot;g_s&quot;:3,&quot;g_t&quot;:3,&quot;coords&quot;:[[144.5, -375.0],[130.0, -375.0]],&quot;certainty&quot;:11]">
    <path clip-path="url(#p838f1ebdb7)" d="M 124.55275 147.840361 
C 129.731362 147.840361 134.69857 147.637684 138.360402 147.276966 
C 142.022234 146.916248 144.079719 146.426941 144.079719 145.91681 
C 144.079719 145.406678 142.022234 144.917371 138.360402 144.556653 
C 134.69857 144.195936 129.731362 143.993258 124.55275 143.993258 
C 119.374137 143.993258 114.40693 144.195936 110.745097 144.556653 
C 107.083265 144.917371 105.025781 145.406678 105.025781 145.91681 
C 105.025781 146.426941 107.083265 146.916248 110.745097 147.276966 
C 114.40693 147.637684 119.374137 147.840361 124.55275 147.840361 
z
" style="fill:#0000ff;opacity:0.2;stroke:#0000ff;stroke-linejoin:miter;stroke-width:2;"/>
   </g>
   <g id="[&quot;g_s&quot;:3,&quot;g_t&quot;:3,&quot;coords&quot;:[[130.0, -375.0],[144.5, -375.0]],&quot;certainty&quot;:11]">
    <path clip-path="url(#p838f1ebdb7)" d="M 77.362574 147.840361 
C 82.541187 147.840361 87.508394 147.637684 91.170227 147.276966 
C 94.832059 146.916248 96.889543 146.426941 96.889543 145.91681 
C 96.889543 145.406678 94.832059 144.917371 91.170227 144.556653 
C 87.508394 144.195936 82.541187 143.993258 77.362574 143.993258 
C 72.183962 143.993258 67.216754 144.195936 63.554922 144.556653 
C 59.89309 144.917371 57.835605 145.406678 57.835605 145.91681 
C 57.835605 146.426941 59.89309 146.916248 63.554922 147.276966 
C 67.216754 147.637684 72.183962 147.840361 77.362574 147.840361 
z
" style="fill:#ff0000;opacity:0.2;stroke:#ff0000;stroke-linejoin:miter;stroke-width:2;"/>
   </g>
   <g id="patch_18">
    <path d="M 124.55275 145.91681 
Q 101.958552 145.91681 81.485675 145.91681 
" style="fill:none;opacity:0.5;stroke:#ff0000;stroke-linecap:round;stroke-width:3;"/>
    <path d="M 82.985675 147.41681 
L 81.485675 145.91681 
L 82.985675 144.41681 
" style="fill:none;opacity:0.5;stroke:#ff0000;stroke-linecap:round;stroke-width:3;"/>
   </g>
   <g id="[&quot;g_s&quot;:4,&quot;g_t&quot;:4,&quot;coords&quot;:[[144.5, -25.0],[130.0, -25.0]],&quot;certainty&quot;:12]">
    <path clip-path="url(#p838f1ebdb7)" d="M 124.55275 35.793492 
C 130.162913 35.793492 135.544055 35.573925 139.511039 35.183147 
C 143.478024 34.79237 145.706966 34.262288 145.706966 33.709645 
C 145.706966 33.157002 143.478024 32.62692 139.511039 32.236142 
C 135.544055 31.845365 130.162913 31.625797 124.55275 31.625797 
C 118.942586 31.625797 113.561445 31.845365 109.59446 32.236142 
C 105.627475 32.62692 103.398533 33.157002 103.398533 33.709645 
C 103.398533 34.262288 105.627475 34.79237 109.59446 35.183147 
C 113.561445 35.573925 118.942586 35.793492 124.55275 35.793492 
z
" style="fill:#0000ff;opacity:0.2;stroke:#0000ff;stroke-linejoin:miter;stroke-width:2;"/>
   </g>
   <g id="[&quot;g_s&quot;:4,&quot;g_t&quot;:4,&quot;coords&quot;:[[130.0, -25.0],[144.5, -25.0]],&quot;certainty&quot;:12]">
    <path clip-path="url(#p838f1ebdb7)" d="M 77.362574 35.793492 
C 82.972738 35.793492 88.353879 35.573925 92.320864 35.183147 
C 96.287849 34.79237 98.516791 34.262288 98.516791 33.709645 
C 98.516791 33.157002 96.287849 32.62692 92.320864 32.236142 
C 88.353879 31.845365 82.972738 31.625797 77.362574 31.625797 
C 71.752411 31.625797 66.371269 31.845365 62.404285 32.236142 
C 58.4373 32.62692 56.208358 33.157002 56.208358 33.709645 
C 56.208358 34.262288 58.4373 34.79237 62.404285 35.183147 
C 66.371269 35.573925 71.752411 35.793492 77.362574 35.793492 
z
" style="fill:#ff0000;opacity:0.2;stroke:#ff0000;stroke-linejoin:miter;stroke-width:2;"/>
   </g>
   <g id="patch_19">
    <path d="M 124.55275 33.709645 
Q 101.958552 33.709645 81.662452 33.709645 
" style="fill:none;opacity:0.5;stroke:#ff0000;stroke-linecap:round;stroke-width:3.25;"/>
    <path d="M 83.162452 35.209645 
L 81.662452 33.709645 
L 83.162452 32.209645 
" style="fill:none;opacity:0.5;stroke:#ff0000;stroke-linecap:round;stroke-width:3.25;"/>
   </g>
   <g id="patch_20">
    <path clip-path="url(#p838f1ebdb7)" d="M 340.163033 35.312604 
C 344.478543 35.312604 348.617883 35.143706 351.66941 34.843108 
C 354.720936 34.54251 356.435507 34.134755 356.435507 33.709645 
C 356.435507 33.284535 354.720936 32.876779 351.66941 32.576181 
C 348.617883 32.275583 344.478543 32.106685 340.163033 32.106685 
C 335.847522 32.106685 331.708183 32.275583 328.656656 32.576181 
C 325.605129 32.876779 323.890558 33.284535 323.890558 33.709645 
C 323.890558 34.134755 325.605129 34.54251 328.656656 34.843108 
C 331.708183 35.143706 335.847522 35.312604 340.163033 35.312604 
z
" style="fill:#008000;opacity:0.2;stroke:#008000;stroke-linejoin:miter;stroke-width:2;"/>
   </g>
   <g id="patch_21">
    <path clip-path="url(#p838f1ebdb7)" d="M 340.163033 147.519769 
C 344.478543 147.519769 348.617883 147.350871 351.66941 147.050273 
C 354.720936 146.749675 356.435507 146.341919 356.435507 145.91681 
C 356.435507 145.4917 354.720936 145.083944 351.66941 144.783346 
C 348.617883 144.482748 344.478543 144.31385 340.163033 144.31385 
C 335.847522 144.31385 331.708183 144.482748 328.656656 144.783346 
C 325.605129 145.083944 323.890558 145.4917 323.890558 145.91681 
C 323.890558 146.341919 325.605129 146.749675 328.656656 147.050273 
C 331.708183 147.350871 335.847522 147.519769 340.163033 147.519769 
z
" style="fill:#008000;opacity:0.2;stroke:#008000;stroke-linejoin:miter;stroke-width:2;"/>
   </g>
   <g id="patch_22">
    <path clip-path="url(#p838f1ebdb7)" d="M 100.957662 147.519769 
C 105.273173 147.519769 109.412512 147.350871 112.464039 147.050273 
C 115.515566 146.749675 117.230136 146.341919 117.230136 145.91681 
C 117.230136 145.4917 115.515566 145.083944 112.464039 144.783346 
C 109.412512 144.482748 105.273173 144.31385 100.957662 144.31385 
C 96.642151 144.31385 92.502812 144.482748 89.451285 144.783346 
C 86.399758 145.083944 84.685188 145.4917 84.685188 145.91681 
C 84.685188 146.341919 86.399758 146.749675 89.451285 147.050273 
C 92.502812 147.350871 96.642151 147.519769 100.957662 147.519769 
z
" style="fill:#008000;opacity:0.2;stroke:#008000;stroke-linejoin:miter;stroke-width:2;"/>
   </g>
   <g id="patch_23">
    <path clip-path="url(#p838f1ebdb7)" d="M 100.957662 35.312604 
C 105.273173 35.312604 109.412512 35.143706 112.464039 34.843108 
C 115.515566 34.54251 117.230136 34.134755 117.230136 33.709645 
C 117.230136 33.284535 115.515566 32.876779 112.464039 32.576181 
C 109.412512 32.275583 105.273173 32.106685 100.957662 32.106685 
C 96.642151 32.106685 92.502812 32.275583 89.451285 32.576181 
C 86.399758 32.876779 84.685188 33.284535 84.685188 33.709645 
C 84.685188 34.134755 86.399758 34.54251 89.451285 34.843108 
C 92.502812 35.143706 96.642151 35.312604 100.957662 35.312604 
z
" style="fill:#008000;opacity:0.2;stroke:#008000;stroke-linejoin:miter;stroke-width:2;"/>
   </g>
   <g id="patch_24">
    <path clip-path="url(#p838f1ebdb7)" d="M 363.75812 40.121483 
C 381.020163 40.121483 397.57752 39.445891 409.783628 38.243499 
C 421.989735 37.041107 428.848017 35.410084 428.848017 33.709645 
C 428.848017 32.009205 421.989735 30.378183 409.783628 29.175791 
C 397.57752 27.973399 381.020163 27.297807 363.75812 27.297807 
C 346.496078 27.297807 329.93872 27.973399 317.732613 29.175791 
C 305.526506 30.378183 298.668223 32.009205 298.668223 33.709645 
C 298.668223 35.410084 305.526506 37.041107 317.732613 38.243499 
C 329.93872 39.445891 346.496078 40.121483 363.75812 40.121483 
z
" style="fill:none;opacity:0.2;stroke:#ff0000;stroke-linejoin:miter;stroke-width:2;"/>
   </g>
   <g id="patch_25">
    <path clip-path="url(#p838f1ebdb7)" d="M 316.567945 40.121483 
C 333.829987 40.121483 350.387345 39.445891 362.593452 38.243499 
C 374.79956 37.041107 381.657842 35.410084 381.657842 33.709645 
C 381.657842 32.009205 374.79956 30.378183 362.593452 29.175791 
C 350.387345 27.973399 333.829987 27.297807 316.567945 27.297807 
C 299.305903 27.297807 282.748545 27.973399 270.542438 29.175791 
C 258.33633 30.378183 251.478048 32.009205 251.478048 33.709645 
C 251.478048 35.410084 258.33633 37.041107 270.542438 38.243499 
C 282.748545 39.445891 299.305903 40.121483 316.567945 40.121483 
z
" style="fill:none;opacity:0.2;stroke:#0000ff;stroke-linejoin:miter;stroke-width:2;"/>
   </g>
   <g id="patch_26">
    <path clip-path="url(#p838f1ebdb7)" d="M 363.75812 36.915564 
C 372.389141 36.915564 380.66782 36.577768 386.770874 35.976572 
C 392.873928 35.375376 396.303069 34.559864 396.303069 33.709645 
C 396.303069 32.859425 392.873928 32.043914 386.770874 31.442718 
C 380.66782 30.841522 372.389141 30.503726 363.75812 30.503726 
C 355.127099 30.503726 346.84842 30.841522 340.745367 31.442718 
C 334.642313 32.043914 331.213172 32.859425 331.213172 33.709645 
C 331.213172 34.559864 334.642313 35.375376 340.745367 35.976572 
C 346.84842 36.577768 355.127099 36.915564 363.75812 36.915564 
z
" style="fill:none;opacity:0.2;stroke:#008000;stroke-linejoin:miter;stroke-width:2;"/>
   </g>
   <g id="patch_27">
    <path clip-path="url(#p838f1ebdb7)" d="M 316.567945 36.915564 
C 325.198966 36.915564 333.477645 36.577768 339.580699 35.976572 
C 345.683752 35.375376 349.112893 34.559864 349.112893 33.709645 
C 349.112893 32.859425 345.683752 32.043914 339.580699 31.442718 
C 333.477645 30.841522 325.198966 30.503726 316.567945 30.503726 
C 307.936924 30.503726 299.658245 30.841522 293.555191 31.442718 
C 287.452138 32.043914 284.022997 32.859425 284.022997 33.709645 
C 284.022997 34.559864 287.452138 35.375376 293.555191 35.976572 
C 299.658245 36.577768 307.936924 36.915564 316.567945 36.915564 
z
" style="fill:none;opacity:0.2;stroke:#008000;stroke-linejoin:miter;stroke-width:2;"/>
   </g>
   <g id="patch_28">
    <path d="M 340.163033 33.709645 
Q 340.163033 89.813227 340.163033 145.91681 
" style="fill:none;opacity:0.5;stroke:#008000;stroke-linecap:round;stroke-width:2;"/>
   </g>
   <g id="patch_29">
    <path d="M 362.343907 33.709645 
Q 341.163923 33.709645 319.983939 33.709645 
" style="fill:none;opacity:0.5;stroke:#800080;stroke-linecap:round;stroke-width:2;"/>
    <path d="M 360.843907 32.209645 
L 362.343907 33.709645 
L 360.843907 35.209645 
" style="fill:none;opacity:0.5;stroke:#800080;stroke-linecap:round;stroke-width:2;"/>
    <path d="M 321.483939 35.209645 
L 319.983939 33.709645 
L 321.483939 32.209645 
" style="fill:none;opacity:0.5;stroke:#800080;stroke-linecap:round;stroke-width:2;"/>
   </g>
   <g id="patch_30">
    <path d="M 340.163033 145.91681 
Q 220.560347 145.91681 100.957662 145.91681 
" style="fill:none;opacity:0.5;stroke:#008000;stroke-linecap:round;stroke-width:2;"/>
   </g>
   <g id="patch_31">
    <path d="M 362.343907 145.91681 
Q 341.163923 145.91681 319.983939 145.91681 
" style="fill:none;opacity:0.5;stroke:#800080;stroke-linecap:round;stroke-width:2;"/>
    <path d="M 360.843907 144.41681 
L 362.343907 145.91681 
L 360.843907 147.41681 
" style="fill:none;opacity:0.5;stroke:#800080;stroke-linecap:round;stroke-width:2;"/>
    <path d="M 321.483939 147.41681 
L 319.983939 145.91681 
L 321.483939 144.41681 
" style="fill:none;opacity:0.5;stroke:#800080;stroke-linecap:round;stroke-width:2;"/>
   </g>
   <g id="patch_32">
    <path d="M 100.957662 145.91681 
Q 100.957662 89.813227 100.957662 33.709645 
" style="fill:none;opacity:0.5;stroke:#008000;stroke-linecap:round;stroke-width:2;"/>
   </g>
   <g id="patch_33">
    <path d="M 78.776788 145.91681 
Q 99.956772 145.91681 121.136756 145.91681 
" style="fill:none;opacity:0.5;stroke:#800080;stroke-linecap:round;stroke-width:2;"/>
    <path d="M 80.276788 147.41681 
L 78.776788 145.91681 
L 80.276788 144.41681 
" style="fill:none;opacity:0.5;stroke:#800080;stroke-linecap:round;stroke-width:2;"/>
    <path d="M 119.636756 144.41681 
L 121.136756 145.91681 
L 119.636756 147.41681 
" style="fill:none;opacity:0.5;stroke:#800080;stroke-linecap:round;stroke-width:2;"/>
   </g>
   <g id="patch_34">
    <path d="M 100.957662 33.709645 
Q 220.560347 33.709645 340.163033 33.709645 
" style="fill:none;opacity:0.5;stroke:#008000;stroke-linecap:round;stroke-width:2;"/>
   </g>
   <g id="patch_35">
    <path d="M 78.776788 33.709645 
Q 99.956772 33.709645 121.136756 33.709645 
" style="fill:none;opacity:0.5;stroke:#800080;stroke-linecap:round;stroke-width:2;"/>
    <path d="M 80.276788 35.209645 
L 78.776788 33.709645 
L 80.276788 32.209645 
" style="fill:none;opacity:0.5;stroke:#800080;stroke-linecap:round;stroke-width:2;"/>
    <path d="M 119.636756 32.209645 
L 121.136756 33.709645 
L 119.636756 35.209645 
" style="fill:none;opacity:0.5;stroke:#800080;stroke-linecap:round;stroke-width:2;"/>
   </g>
   <g id="patch_36">
    <path clip-path="url(#p838f1ebdb7)" d="M 363.75812 194.646778 
C 365.484325 194.646778 367.14006 194.579219 368.360671 194.45898 
C 369.581282 194.338741 370.26711 194.175638 370.26711 194.005595 
C 370.26711 193.835551 369.581282 193.672448 368.360671 193.552209 
C 367.14006 193.43197 365.484325 193.364411 363.75812 193.364411 
C 362.031916 193.364411 360.37618 193.43197 359.15557 193.552209 
C 357.934959 193.672448 357.249131 193.835551 357.249131 194.005595 
C 357.249131 194.175638 357.934959 194.338741 359.15557 194.45898 
C 360.37618 194.579219 362.031916 194.646778 363.75812 194.646778 
z
" style="fill:#ff0000;opacity:0.2;stroke:#ff0000;stroke-linejoin:miter;stroke-width:2;"/>
   </g>
   <g id="patch_37">
    <path clip-path="url(#p838f1ebdb7)" d="M 363.75812 306.853943 
C 365.484325 306.853943 367.14006 306.786384 368.360671 306.666145 
C 369.581282 306.545906 370.26711 306.382803 370.26711 306.212759 
C 370.26711 306.042715 369.581282 305.879613 368.360671 305.759374 
C 367.14006 305.639135 365.484325 305.571576 363.75812 305.571576 
C 362.031916 305.571576 360.37618 305.639135 359.15557 305.759374 
C 357.934959 305.879613 357.249131 306.042715 357.249131 306.212759 
C 357.249131 306.382803 357.934959 306.545906 359.15557 306.666145 
C 360.37618 306.786384 362.031916 306.853943 363.75812 306.853943 
z
" style="fill:#ff0000;opacity:0.2;stroke:#ff0000;stroke-linejoin:miter;stroke-width:2;"/>
   </g>
   <g id="patch_38">
    <path clip-path="url(#p838f1ebdb7)" d="M 77.362574 306.853943 
C 79.088779 306.853943 80.744514 306.786384 81.965125 306.666145 
C 83.185736 306.545906 83.871564 306.382803 83.871564 306.212759 
C 83.871564 306.042715 83.185736 305.879613 81.965125 305.759374 
C 80.744514 305.639135 79.088779 305.571576 77.362574 305.571576 
C 75.63637 305.571576 73.980634 305.639135 72.760024 305.759374 
C 71.539413 305.879613 70.853585 306.042715 70.853585 306.212759 
C 70.853585 306.382803 71.539413 306.545906 72.760024 306.666145 
C 73.980634 306.786384 75.63637 306.853943 77.362574 306.853943 
z
" style="fill:#ff0000;opacity:0.2;stroke:#ff0000;stroke-linejoin:miter;stroke-width:2;"/>
   </g>
   <g id="patch_39">
    <path clip-path="url(#p838f1ebdb7)" d="M 77.362574 194.646778 
C 79.088779 194.646778 80.744514 194.579219 81.965125 194.45898 
C 83.185736 194.338741 83.871564 194.175638 83.871564 194.005595 
C 83.871564 193.835551 83.185736 193.672448 81.965125 193.552209 
C 80.744514 193.43197 79.088779 193.364411 77.362574 193.364411 
C 75.63637 193.364411 73.980634 193.43197 72.760024 193.552209 
C 71.539413 193.672448 70.853585 193.835551 70.853585 194.005595 
C 70.853585 194.175638 71.539413 194.338741 72.760024 194.45898 
C 73.980634 194.579219 75.63637 194.646778 77.362574 194.646778 
z
" style="fill:#ff0000;opacity:0.2;stroke:#ff0000;stroke-linejoin:miter;stroke-width:2;"/>
   </g>
   <g id="patch_40">
    <path clip-path="url(#p838f1ebdb7)" d="M 316.567945 194.646778 
C 318.294149 194.646778 319.949885 194.579219 321.170496 194.45898 
C 322.391107 194.338741 323.076935 194.175638 323.076935 194.005595 
C 323.076935 193.835551 322.391107 193.672448 321.170496 193.552209 
C 319.949885 193.43197 318.294149 193.364411 316.567945 193.364411 
C 314.841741 193.364411 313.186005 193.43197 311.965394 193.552209 
C 310.744784 193.672448 310.058955 193.835551 310.058955 194.005595 
C 310.058955 194.175638 310.744784 194.338741 311.965394 194.45898 
C 313.186005 194.579219 314.841741 194.646778 316.567945 194.646778 
z
" style="fill:#0000ff;opacity:0.2;stroke:#0000ff;stroke-linejoin:miter;stroke-width:2;"/>
   </g>
   <g id="patch_41">
    <path clip-path="url(#p838f1ebdb7)" d="M 316.567945 306.853943 
C 318.294149 306.853943 319.949885 306.786384 321.170496 306.666145 
C 322.391107 306.545906 323.076935 306.382803 323.076935 306.212759 
C 323.076935 306.042715 322.391107 305.879613 321.170496 305.759374 
C 319.949885 305.639135 318.294149 305.571576 316.567945 305.571576 
C 314.841741 305.571576 313.186005 305.639135 311.965394 305.759374 
C 310.744784 305.879613 310.058955 306.042715 310.058955 306.212759 
C 310.058955 306.382803 310.744784 306.545906 311.965394 306.666145 
C 313.186005 306.786384 314.841741 306.853943 316.567945 306.853943 
z
" style="fill:#0000ff;opacity:0.2;stroke:#0000ff;stroke-linejoin:miter;stroke-width:2;"/>
   </g>
   <g id="patch_42">
    <path clip-path="url(#p838f1ebdb7)" d="M 124.55275 306.853943 
C 126.278954 306.853943 127.93469 306.786384 129.1553 306.666145 
C 130.375911 306.545906 131.061739 306.382803 131.061739 306.212759 
C 131.061739 306.042715 130.375911 305.879613 129.1553 305.759374 
C 127.93469 305.639135 126.278954 305.571576 124.55275 305.571576 
C 122.826545 305.571576 121.17081 305.639135 119.950199 305.759374 
C 118.729588 305.879613 118.04376 306.042715 118.04376 306.212759 
C 118.04376 306.382803 118.729588 306.545906 119.950199 306.666145 
C 121.17081 306.786384 122.826545 306.853943 124.55275 306.853943 
z
" style="fill:#0000ff;opacity:0.2;stroke:#0000ff;stroke-linejoin:miter;stroke-width:2;"/>
   </g>
   <g id="patch_43">
    <path clip-path="url(#p838f1ebdb7)" d="M 124.55275 194.646778 
C 126.278954 194.646778 127.93469 194.579219 129.1553 194.45898 
C 130.375911 194.338741 131.061739 194.175638 131.061739 194.005595 
C 131.061739 193.835551 130.375911 193.672448 129.1553 193.552209 
C 127.93469 193.43197 126.278954 193.364411 124.55275 193.364411 
C 122.826545 193.364411 121.17081 193.43197 119.950199 193.552209 
C 118.729588 193.672448 118.04376 193.835551 118.04376 194.005595 
C 118.04376 194.175638 118.729588 194.338741 119.950199 194.45898 
C 121.17081 194.579219 122.826545 194.646778 124.55275 194.646778 
z
" style="fill:#0000ff;opacity:0.2;stroke:#0000ff;stroke-linejoin:miter;stroke-width:2;"/>
   </g>
   <g id="patch_44">
    <path clip-path="url(#p838f1ebdb7)" d="M 363.75812 194.005595 
L 363.75812 306.212759 
L 77.362574 306.212759 
L 77.362574 194.005595 
L 363.75812 194.005595 
" style="fill:none;stroke:#ff0000;stroke-linejoin:miter;stroke-width:0.5;"/>
   </g>
   <g id="patch_45">
    <path clip-path="url(#p838f1ebdb7)" d="M 316.567945 194.005595 
L 316.567945 306.212759 
L 124.55275 306.212759 
L 124.55275 194.005595 
L 316.567945 194.005595 
" style="fill:none;stroke:#0000ff;stroke-linejoin:miter;stroke-width:0.5;"/>
   </g>
   <g id="[&quot;g_s&quot;:1,&quot;g_t&quot;:1,&quot;coords&quot;:[[218.0, -525.0],[203.5, -525.0]],&quot;certainty&quot;:10]">
    <path clip-path="url(#p838f1ebdb7)" d="M 363.75812 195.76885 
C 368.505182 195.76885 373.058455 195.583062 376.415135 195.252404 
C 379.771814 194.921747 381.657842 194.473215 381.657842 194.005595 
C 381.657842 193.537974 379.771814 193.089443 376.415135 192.758785 
C 373.058455 192.428127 368.505182 192.242339 363.75812 192.242339 
C 359.011059 192.242339 354.457785 192.428127 351.101106 192.758785 
C 347.744426 193.089443 345.858399 193.537974 345.858399 194.005595 
C 345.858399 194.473215 347.744426 194.921747 351.101106 195.252404 
C 354.457785 195.583062 359.011059 195.76885 363.75812 195.76885 
z
" style="fill:#0000ff;opacity:0.2;stroke:#0000ff;stroke-linejoin:miter;stroke-width:2;"/>
   </g>
   <g id="[&quot;g_s&quot;:1,&quot;g_t&quot;:1,&quot;coords&quot;:[[203.5, -525.0],[218.0, -525.0]],&quot;certainty&quot;:10]">
    <path clip-path="url(#p838f1ebdb7)" d="M 316.567945 195.76885 
C 321.315007 195.76885 325.86828 195.583062 329.22496 195.252404 
C 332.581639 194.921747 334.467667 194.473215 334.467667 194.005595 
C 334.467667 193.537974 332.581639 193.089443 329.22496 192.758785 
C 325.86828 192.428127 321.315007 192.242339 316.567945 192.242339 
C 311.820883 192.242339 307.26761 192.428127 303.910931 192.758785 
C 300.554251 193.089443 298.668223 193.537974 298.668223 194.005595 
C 298.668223 194.473215 300.554251 194.921747 303.910931 195.252404 
C 307.26761 195.583062 311.820883 195.76885 316.567945 195.76885 
z
" style="fill:#ff0000;opacity:0.2;stroke:#ff0000;stroke-linejoin:miter;stroke-width:2;"/>
   </g>
   <g id="patch_46">
    <path d="M 363.75812 194.005595 
Q 341.163923 194.005595 320.514269 194.005595 
" style="fill:none;opacity:0.5;stroke:#0000ff;stroke-linecap:round;stroke-width:2.75;"/>
    <path d="M 322.014269 195.505595 
L 320.514269 194.005595 
L 322.014269 192.505595 
" style="fill:none;opacity:0.5;stroke:#0000ff;stroke-linecap:round;stroke-width:2.75;"/>
   </g>
   <g id="[&quot;g_s&quot;:2,&quot;g_t&quot;:2,&quot;coords&quot;:[[218.0, -875.0],[203.5, -875.0]],&quot;certainty&quot;:11]">
    <path clip-path="url(#p838f1ebdb7)" d="M 363.75812 308.136311 
C 368.936733 308.136311 373.90394 307.933633 377.565772 307.572916 
C 381.227605 307.212198 383.285089 306.722891 383.285089 306.212759 
C 383.285089 305.702628 381.227605 305.213321 377.565772 304.852603 
C 373.90394 304.491885 368.936733 304.289208 363.75812 304.289208 
C 358.579508 304.289208 353.6123 304.491885 349.950468 304.852603 
C 346.288636 305.213321 344.231151 305.702628 344.231151 306.212759 
C 344.231151 306.722891 346.288636 307.212198 349.950468 307.572916 
C 353.6123 307.933633 358.579508 308.136311 363.75812 308.136311 
z
" style="fill:#0000ff;opacity:0.2;stroke:#0000ff;stroke-linejoin:miter;stroke-width:2;"/>
   </g>
   <g id="[&quot;g_s&quot;:2,&quot;g_t&quot;:2,&quot;coords&quot;:[[203.5, -875.0],[218.0, -875.0]],&quot;certainty&quot;:11]">
    <path clip-path="url(#p838f1ebdb7)" d="M 316.567945 308.136311 
C 321.746558 308.136311 326.713765 307.933633 330.375597 307.572916 
C 334.037429 307.212198 336.094914 306.722891 336.094914 306.212759 
C 336.094914 305.702628 334.037429 305.213321 330.375597 304.852603 
C 326.713765 304.491885 321.746558 304.289208 316.567945 304.289208 
C 311.389332 304.289208 306.422125 304.491885 302.760293 304.852603 
C 299.098461 305.213321 297.040976 305.702628 297.040976 306.212759 
C 297.040976 306.722891 299.098461 307.212198 302.760293 307.572916 
C 306.422125 307.933633 311.389332 308.136311 316.567945 308.136311 
z
" style="fill:#ff0000;opacity:0.2;stroke:#ff0000;stroke-linejoin:miter;stroke-width:2;"/>
   </g>
   <g id="patch_47">
    <path d="M 363.75812 306.212759 
Q 341.163923 306.212759 320.691046 306.212759 
" style="fill:none;opacity:0.5;stroke:#0000ff;stroke-linecap:round;stroke-width:3;"/>
    <path d="M 322.191046 307.712759 
L 320.691046 306.212759 
L 322.191046 304.712759 
" style="fill:none;opacity:0.5;stroke:#0000ff;stroke-linecap:round;stroke-width:3;"/>
   </g>
   <g id="[&quot;g_s&quot;:3,&quot;g_t&quot;:3,&quot;coords&quot;:[[130.0, -875.0],[144.5, -875.0]],&quot;certainty&quot;:11]">
    <path clip-path="url(#p838f1ebdb7)" d="M 77.362574 308.136311 
C 82.541187 308.136311 87.508394 307.933633 91.170227 307.572916 
C 94.832059 307.212198 96.889543 306.722891 96.889543 306.212759 
C 96.889543 305.702628 94.832059 305.213321 91.170227 304.852603 
C 87.508394 304.491885 82.541187 304.289208 77.362574 304.289208 
C 72.183962 304.289208 67.216754 304.491885 63.554922 304.852603 
C 59.89309 305.213321 57.835605 305.702628 57.835605 306.212759 
C 57.835605 306.722891 59.89309 307.212198 63.554922 307.572916 
C 67.216754 307.933633 72.183962 308.136311 77.362574 308.136311 
z
" style="fill:#0000ff;opacity:0.2;stroke:#0000ff;stroke-linejoin:miter;stroke-width:2;"/>
   </g>
   <g id="[&quot;g_s&quot;:3,&quot;g_t&quot;:3,&quot;coords&quot;:[[144.5, -875.0],[130.0, -875.0]],&quot;certainty&quot;:11]">
    <path clip-path="url(#p838f1ebdb7)" d="M 124.55275 308.136311 
C 129.731362 308.136311 134.69857 307.933633 138.360402 307.572916 
C 142.022234 307.212198 144.079719 306.722891 144.079719 306.212759 
C 144.079719 305.702628 142.022234 305.213321 138.360402 304.852603 
C 134.69857 304.491885 129.731362 304.289208 124.55275 304.289208 
C 119.374137 304.289208 114.40693 304.491885 110.745097 304.852603 
C 107.083265 305.213321 105.025781 305.702628 105.025781 306.212759 
C 105.025781 306.722891 107.083265 307.212198 110.745097 307.572916 
C 114.40693 307.933633 119.374137 308.136311 124.55275 308.136311 
z
" style="fill:#ff0000;opacity:0.2;stroke:#ff0000;stroke-linejoin:miter;stroke-width:2;"/>
   </g>
   <g id="patch_48">
    <path d="M 77.362574 306.212759 
Q 99.956772 306.212759 120.429649 306.212759 
" style="fill:none;opacity:0.5;stroke:#0000ff;stroke-linecap:round;stroke-width:3;"/>
    <path d="M 118.929649 304.712759 
L 120.429649 306.212759 
L 118.929649 307.712759 
" style="fill:none;opacity:0.5;stroke:#0000ff;stroke-linecap:round;stroke-width:3;"/>
   </g>
   <g id="[&quot;g_s&quot;:4,&quot;g_t&quot;:4,&quot;coords&quot;:[[130.0, -525.0],[144.5, -525.0]],&quot;certainty&quot;:12]">
    <path clip-path="url(#p838f1ebdb7)" d="M 77.362574 196.089442 
C 82.972738 196.089442 88.353879 195.869875 92.320864 195.479097 
C 96.287849 195.08832 98.516791 194.558237 98.516791 194.005595 
C 98.516791 193.452952 96.287849 192.922869 92.320864 192.532092 
C 88.353879 192.141315 82.972738 191.921747 77.362574 191.921747 
C 71.752411 191.921747 66.371269 192.141315 62.404285 192.532092 
C 58.4373 192.922869 56.208358 193.452952 56.208358 194.005595 
C 56.208358 194.558237 58.4373 195.08832 62.404285 195.479097 
C 66.371269 195.869875 71.752411 196.089442 77.362574 196.089442 
z
" style="fill:#0000ff;opacity:0.2;stroke:#0000ff;stroke-linejoin:miter;stroke-width:2;"/>
   </g>
   <g id="[&quot;g_s&quot;:4,&quot;g_t&quot;:4,&quot;coords&quot;:[[144.5, -525.0],[130.0, -525.0]],&quot;certainty&quot;:12]">
    <path clip-path="url(#p838f1ebdb7)" d="M 124.55275 196.089442 
C 130.162913 196.089442 135.544055 195.869875 139.511039 195.479097 
C 143.478024 195.08832 145.706966 194.558237 145.706966 194.005595 
C 145.706966 193.452952 143.478024 192.922869 139.511039 192.532092 
C 135.544055 192.141315 130.162913 191.921747 124.55275 191.921747 
C 118.942586 191.921747 113.561445 192.141315 109.59446 192.532092 
C 105.627475 192.922869 103.398533 193.452952 103.398533 194.005595 
C 103.398533 194.558237 105.627475 195.08832 109.59446 195.479097 
C 113.561445 195.869875 118.942586 196.089442 124.55275 196.089442 
z
" style="fill:#ff0000;opacity:0.2;stroke:#ff0000;stroke-linejoin:miter;stroke-width:2;"/>
   </g>
   <g id="patch_49">
    <path d="M 77.362574 194.005595 
Q 99.956772 194.005595 120.252872 194.005595 
" style="fill:none;opacity:0.5;stroke:#0000ff;stroke-linecap:round;stroke-width:3.25;"/>
    <path d="M 118.752872 192.505595 
L 120.252872 194.005595 
L 118.752872 195.505595 
" style="fill:none;opacity:0.5;stroke:#0000ff;stroke-linecap:round;stroke-width:3.25;"/>
   </g>
   <g id="[&quot;g_s&quot;:1,&quot;g_t&quot;:1,&quot;coords&quot;:[[203.5, -525.0],[218.0, -525.0]],&quot;certainty&quot;:10]">
    <path clip-path="url(#p838f1ebdb7)" d="M 316.567945 195.76885 
C 321.315007 195.76885 325.86828 195.583062 329.22496 195.252404 
C 332.581639 194.921747 334.467667 194.473215 334.467667 194.005595 
C 334.467667 193.537974 332.581639 193.089443 329.22496 192.758785 
C 325.86828 192.428127 321.315007 192.242339 316.567945 192.242339 
C 311.820883 192.242339 307.26761 192.428127 303.910931 192.758785 
C 300.554251 193.089443 298.668223 193.537974 298.668223 194.005595 
C 298.668223 194.473215 300.554251 194.921747 303.910931 195.252404 
C 307.26761 195.583062 311.820883 195.76885 316.567945 195.76885 
z
" style="fill:#0000ff;opacity:0.2;stroke:#0000ff;stroke-linejoin:miter;stroke-width:2;"/>
   </g>
   <g id="[&quot;g_s&quot;:1,&quot;g_t&quot;:1,&quot;coords&quot;:[[218.0, -525.0],[203.5, -525.0]],&quot;certainty&quot;:10]">
    <path clip-path="url(#p838f1ebdb7)" d="M 363.75812 195.76885 
C 368.505182 195.76885 373.058455 195.583062 376.415135 195.252404 
C 379.771814 194.921747 381.657842 194.473215 381.657842 194.005595 
C 381.657842 193.537974 379.771814 193.089443 376.415135 192.758785 
C 373.058455 192.428127 368.505182 192.242339 363.75812 192.242339 
C 359.011059 192.242339 354.457785 192.428127 351.101106 192.758785 
C 347.744426 193.089443 345.858399 193.537974 345.858399 194.005595 
C 345.858399 194.473215 347.744426 194.921747 351.101106 195.252404 
C 354.457785 195.583062 359.011059 195.76885 363.75812 195.76885 
z
" style="fill:#ff0000;opacity:0.2;stroke:#ff0000;stroke-linejoin:miter;stroke-width:2;"/>
   </g>
   <g id="patch_50">
    <path d="M 316.567945 194.005595 
Q 339.162142 194.005595 359.811796 194.005595 
" style="fill:none;opacity:0.5;stroke:#ff0000;stroke-linecap:round;stroke-width:2.75;"/>
    <path d="M 358.311796 192.505595 
L 359.811796 194.005595 
L 358.311796 195.505595 
" style="fill:none;opacity:0.5;stroke:#ff0000;stroke-linecap:round;stroke-width:2.75;"/>
   </g>
   <g id="[&quot;g_s&quot;:2,&quot;g_t&quot;:2,&quot;coords&quot;:[[203.5, -875.0],[218.0, -875.0]],&quot;certainty&quot;:11]">
    <path clip-path="url(#p838f1ebdb7)" d="M 316.567945 308.136311 
C 321.746558 308.136311 326.713765 307.933633 330.375597 307.572916 
C 334.037429 307.212198 336.094914 306.722891 336.094914 306.212759 
C 336.094914 305.702628 334.037429 305.213321 330.375597 304.852603 
C 326.713765 304.491885 321.746558 304.289208 316.567945 304.289208 
C 311.389332 304.289208 306.422125 304.491885 302.760293 304.852603 
C 299.098461 305.213321 297.040976 305.702628 297.040976 306.212759 
C 297.040976 306.722891 299.098461 307.212198 302.760293 307.572916 
C 306.422125 307.933633 311.389332 308.136311 316.567945 308.136311 
z
" style="fill:#0000ff;opacity:0.2;stroke:#0000ff;stroke-linejoin:miter;stroke-width:2;"/>
   </g>
   <g id="[&quot;g_s&quot;:2,&quot;g_t&quot;:2,&quot;coords&quot;:[[218.0, -875.0],[203.5, -875.0]],&quot;certainty&quot;:11]">
    <path clip-path="url(#p838f1ebdb7)" d="M 363.75812 308.136311 
C 368.936733 308.136311 373.90394 307.933633 377.565772 307.572916 
C 381.227605 307.212198 383.285089 306.722891 383.285089 306.212759 
C 383.285089 305.702628 381.227605 305.213321 377.565772 304.852603 
C 373.90394 304.491885 368.936733 304.289208 363.75812 304.289208 
C 358.579508 304.289208 353.6123 304.491885 349.950468 304.852603 
C 346.288636 305.213321 344.231151 305.702628 344.231151 306.212759 
C 344.231151 306.722891 346.288636 307.212198 349.950468 307.572916 
C 353.6123 307.933633 358.579508 308.136311 363.75812 308.136311 
z
" style="fill:#ff0000;opacity:0.2;stroke:#ff0000;stroke-linejoin:miter;stroke-width:2;"/>
   </g>
   <g id="patch_51">
    <path d="M 316.567945 306.212759 
Q 339.162142 306.212759 359.635019 306.212759 
" style="fill:none;opacity:0.5;stroke:#ff0000;stroke-linecap:round;stroke-width:3;"/>
    <path d="M 358.135019 304.712759 
L 359.635019 306.212759 
L 358.135019 307.712759 
" style="fill:none;opacity:0.5;stroke:#ff0000;stroke-linecap:round;stroke-width:3;"/>
   </g>
   <g id="[&quot;g_s&quot;:3,&quot;g_t&quot;:3,&quot;coords&quot;:[[144.5, -875.0],[130.0, -875.0]],&quot;certainty&quot;:11]">
    <path clip-path="url(#p838f1ebdb7)" d="M 124.55275 308.136311 
C 129.731362 308.136311 134.69857 307.933633 138.360402 307.572916 
C 142.022234 307.212198 144.079719 306.722891 144.079719 306.212759 
C 144.079719 305.702628 142.022234 305.213321 138.360402 304.852603 
C 134.69857 304.491885 129.731362 304.289208 124.55275 304.289208 
C 119.374137 304.289208 114.40693 304.491885 110.745097 304.852603 
C 107.083265 305.213321 105.025781 305.702628 105.025781 306.212759 
C 105.025781 306.722891 107.083265 307.212198 110.745097 307.572916 
C 114.40693 307.933633 119.374137 308.136311 124.55275 308.136311 
z
" style="fill:#0000ff;opacity:0.2;stroke:#0000ff;stroke-linejoin:miter;stroke-width:2;"/>
   </g>
   <g id="[&quot;g_s&quot;:3,&quot;g_t&quot;:3,&quot;coords&quot;:[[130.0, -875.0],[144.5, -875.0]],&quot;certainty&quot;:11]">
    <path clip-path="url(#p838f1ebdb7)" d="M 77.362574 308.136311 
C 82.541187 308.136311 87.508394 307.933633 91.170227 307.572916 
C 94.832059 307.212198 96.889543 306.722891 96.889543 306.212759 
C 96.889543 305.702628 94.832059 305.213321 91.170227 304.852603 
C 87.508394 304.491885 82.541187 304.289208 77.362574 304.289208 
C 72.183962 304.289208 67.216754 304.491885 63.554922 304.852603 
C 59.89309 305.213321 57.835605 305.702628 57.835605 306.212759 
C 57.835605 306.722891 59.89309 307.212198 63.554922 307.572916 
C 67.216754 307.933633 72.183962 308.136311 77.362574 308.136311 
z
" style="fill:#ff0000;opacity:0.2;stroke:#ff0000;stroke-linejoin:miter;stroke-width:2;"/>
   </g>
   <g id="patch_52">
    <path d="M 124.55275 306.212759 
Q 101.958552 306.212759 81.485675 306.212759 
" style="fill:none;opacity:0.5;stroke:#ff0000;stroke-linecap:round;stroke-width:3;"/>
    <path d="M 82.985675 307.712759 
L 81.485675 306.212759 
L 82.985675 304.712759 
" style="fill:none;opacity:0.5;stroke:#ff0000;stroke-linecap:round;stroke-width:3;"/>
   </g>
   <g id="[&quot;g_s&quot;:4,&quot;g_t&quot;:4,&quot;coords&quot;:[[144.5, -525.0],[130.0, -525.0]],&quot;certainty&quot;:12]">
    <path clip-path="url(#p838f1ebdb7)" d="M 124.55275 196.089442 
C 130.162913 196.089442 135.544055 195.869875 139.511039 195.479097 
C 143.478024 195.08832 145.706966 194.558237 145.706966 194.005595 
C 145.706966 193.452952 143.478024 192.922869 139.511039 192.532092 
C 135.544055 192.141315 130.162913 191.921747 124.55275 191.921747 
C 118.942586 191.921747 113.561445 192.141315 109.59446 192.532092 
C 105.627475 192.922869 103.398533 193.452952 103.398533 194.005595 
C 103.398533 194.558237 105.627475 195.08832 109.59446 195.479097 
C 113.561445 195.869875 118.942586 196.089442 124.55275 196.089442 
z
" style="fill:#0000ff;opacity:0.2;stroke:#0000ff;stroke-linejoin:miter;stroke-width:2;"/>
   </g>
   <g id="[&quot;g_s&quot;:4,&quot;g_t&quot;:4,&quot;coords&quot;:[[130.0, -525.0],[144.5, -525.0]],&quot;certainty&quot;:12]">
    <path clip-path="url(#p838f1ebdb7)" d="M 77.362574 196.089442 
C 82.972738 196.089442 88.353879 195.869875 92.320864 195.479097 
C 96.287849 195.08832 98.516791 194.558237 98.516791 194.005595 
C 98.516791 193.452952 96.287849 192.922869 92.320864 192.532092 
C 88.353879 192.141315 82.972738 191.921747 77.362574 191.921747 
C 71.752411 191.921747 66.371269 192.141315 62.404285 192.532092 
C 58.4373 192.922869 56.208358 193.452952 56.208358 194.005595 
C 56.208358 194.558237 58.4373 195.08832 62.404285 195.479097 
C 66.371269 195.869875 71.752411 196.089442 77.362574 196.089442 
z
" style="fill:#ff0000;opacity:0.2;stroke:#ff0000;stroke-linejoin:miter;stroke-width:2;"/>
   </g>
   <g id="patch_53">
    <path d="M 124.55275 194.005595 
Q 101.958552 194.005595 81.662452 194.005595 
" style="fill:none;opacity:0.5;stroke:#ff0000;stroke-linecap:round;stroke-width:3.25;"/>
    <path d="M 83.162452 195.505595 
L 81.662452 194.005595 
L 83.162452 192.505595 
" style="fill:none;opacity:0.5;stroke:#ff0000;stroke-linecap:round;stroke-width:3.25;"/>
   </g>
   <g id="patch_54">
    <path clip-path="url(#p838f1ebdb7)" d="M 340.163033 195.608554 
C 344.478543 195.608554 348.617883 195.439656 351.66941 195.139058 
C 354.720936 194.83846 356.435507 194.430704 356.435507 194.005595 
C 356.435507 193.580485 354.720936 193.172729 351.66941 192.872131 
C 348.617883 192.571533 344.478543 192.402635 340.163033 192.402635 
C 335.847522 192.402635 331.708183 192.571533 328.656656 192.872131 
C 325.605129 193.172729 323.890558 193.580485 323.890558 194.005595 
C 323.890558 194.430704 325.605129 194.83846 328.656656 195.139058 
C 331.708183 195.439656 335.847522 195.608554 340.163033 195.608554 
z
" style="fill:#008000;opacity:0.2;stroke:#008000;stroke-linejoin:miter;stroke-width:2;"/>
   </g>
   <g id="patch_55">
    <path clip-path="url(#p838f1ebdb7)" d="M 340.163033 307.815719 
C 344.478543 307.815719 348.617883 307.646821 351.66941 307.346223 
C 354.720936 307.045625 356.435507 306.637869 356.435507 306.212759 
C 356.435507 305.78765 354.720936 305.379894 351.66941 305.079296 
C 348.617883 304.778698 344.478543 304.6098 340.163033 304.6098 
C 335.847522 304.6098 331.708183 304.778698 328.656656 305.079296 
C 325.605129 305.379894 323.890558 305.78765 323.890558 306.212759 
C 323.890558 306.637869 325.605129 307.045625 328.656656 307.346223 
C 331.708183 307.646821 335.847522 307.815719 340.163033 307.815719 
z
" style="fill:#008000;opacity:0.2;stroke:#008000;stroke-linejoin:miter;stroke-width:2;"/>
   </g>
   <g id="patch_56">
    <path clip-path="url(#p838f1ebdb7)" d="M 100.957662 307.815719 
C 105.273173 307.815719 109.412512 307.646821 112.464039 307.346223 
C 115.515566 307.045625 117.230136 306.637869 117.230136 306.212759 
C 117.230136 305.78765 115.515566 305.379894 112.464039 305.079296 
C 109.412512 304.778698 105.273173 304.6098 100.957662 304.6098 
C 96.642151 304.6098 92.502812 304.778698 89.451285 305.079296 
C 86.399758 305.379894 84.685188 305.78765 84.685188 306.212759 
C 84.685188 306.637869 86.399758 307.045625 89.451285 307.346223 
C 92.502812 307.646821 96.642151 307.815719 100.957662 307.815719 
z
" style="fill:#008000;opacity:0.2;stroke:#008000;stroke-linejoin:miter;stroke-width:2;"/>
   </g>
   <g id="patch_57">
    <path clip-path="url(#p838f1ebdb7)" d="M 100.957662 195.608554 
C 105.273173 195.608554 109.412512 195.439656 112.464039 195.139058 
C 115.515566 194.83846 117.230136 194.430704 117.230136 194.005595 
C 117.230136 193.580485 115.515566 193.172729 112.464039 192.872131 
C 109.412512 192.571533 105.273173 192.402635 100.957662 192.402635 
C 96.642151 192.402635 92.502812 192.571533 89.451285 192.872131 
C 86.399758 193.172729 84.685188 193.580485 84.685188 194.005595 
C 84.685188 194.430704 86.399758 194.83846 89.451285 195.139058 
C 92.502812 195.439656 96.642151 195.608554 100.957662 195.608554 
z
" style="fill:#008000;opacity:0.2;stroke:#008000;stroke-linejoin:miter;stroke-width:2;"/>
   </g>
   <g id="patch_58">
    <path clip-path="url(#p838f1ebdb7)" d="M 363.75812 200.417433 
C 381.020163 200.417433 397.57752 199.741841 409.783628 198.539449 
C 421.989735 197.337057 428.848017 195.706034 428.848017 194.005595 
C 428.848017 192.305155 421.989735 190.674133 409.783628 189.47174 
C 397.57752 188.269348 381.020163 187.593757 363.75812 187.593757 
C 346.496078 187.593757 329.93872 188.269348 317.732613 189.47174 
C 305.526506 190.674133 298.668223 192.305155 298.668223 194.005595 
C 298.668223 195.706034 305.526506 197.337057 317.732613 198.539449 
C 329.93872 199.741841 346.496078 200.417433 363.75812 200.417433 
z
" style="fill:none;opacity:0.2;stroke:#ff0000;stroke-linejoin:miter;stroke-width:2;"/>
   </g>
   <g id="patch_59">
    <path clip-path="url(#p838f1ebdb7)" d="M 316.567945 200.417433 
C 333.829987 200.417433 350.387345 199.741841 362.593452 198.539449 
C 374.79956 197.337057 381.657842 195.706034 381.657842 194.005595 
C 381.657842 192.305155 374.79956 190.674133 362.593452 189.47174 
C 350.387345 188.269348 333.829987 187.593757 316.567945 187.593757 
C 299.305903 187.593757 282.748545 188.269348 270.542438 189.47174 
C 258.33633 190.674133 251.478048 192.305155 251.478048 194.005595 
C 251.478048 195.706034 258.33633 197.337057 270.542438 198.539449 
C 282.748545 199.741841 299.305903 200.417433 316.567945 200.417433 
z
" style="fill:none;opacity:0.2;stroke:#0000ff;stroke-linejoin:miter;stroke-width:2;"/>
   </g>
   <g id="patch_60">
    <path clip-path="url(#p838f1ebdb7)" d="M 363.75812 197.211514 
C 372.389141 197.211514 380.66782 196.873718 386.770874 196.272522 
C 392.873928 195.671326 396.303069 194.855814 396.303069 194.005595 
C 396.303069 193.155375 392.873928 192.339864 386.770874 191.738667 
C 380.66782 191.137471 372.389141 190.799676 363.75812 190.799676 
C 355.127099 190.799676 346.84842 191.137471 340.745367 191.738667 
C 334.642313 192.339864 331.213172 193.155375 331.213172 194.005595 
C 331.213172 194.855814 334.642313 195.671326 340.745367 196.272522 
C 346.84842 196.873718 355.127099 197.211514 363.75812 197.211514 
z
" style="fill:none;opacity:0.2;stroke:#008000;stroke-linejoin:miter;stroke-width:2;"/>
   </g>
   <g id="patch_61">
    <path clip-path="url(#p838f1ebdb7)" d="M 316.567945 197.211514 
C 325.198966 197.211514 333.477645 196.873718 339.580699 196.272522 
C 345.683752 195.671326 349.112893 194.855814 349.112893 194.005595 
C 349.112893 193.155375 345.683752 192.339864 339.580699 191.738667 
C 333.477645 191.137471 325.198966 190.799676 316.567945 190.799676 
C 307.936924 190.799676 299.658245 191.137471 293.555191 191.738667 
C 287.452138 192.339864 284.022997 193.155375 284.022997 194.005595 
C 284.022997 194.855814 287.452138 195.671326 293.555191 196.272522 
C 299.658245 196.873718 307.936924 197.211514 316.567945 197.211514 
z
" style="fill:none;opacity:0.2;stroke:#008000;stroke-linejoin:miter;stroke-width:2;"/>
   </g>
   <g id="patch_62">
    <path d="M 340.163033 194.005595 
Q 340.163033 250.109177 340.163033 306.212759 
" style="fill:none;opacity:0.5;stroke:#008000;stroke-linecap:round;stroke-width:2;"/>
   </g>
   <g id="patch_63">
    <path d="M 362.343907 194.005595 
Q 341.163923 194.005595 319.983939 194.005595 
" style="fill:none;opacity:0.5;stroke:#800080;stroke-linecap:round;stroke-width:2;"/>
    <path d="M 360.843907 192.505595 
L 362.343907 194.005595 
L 360.843907 195.505595 
" style="fill:none;opacity:0.5;stroke:#800080;stroke-linecap:round;stroke-width:2;"/>
    <path d="M 321.483939 195.505595 
L 319.983939 194.005595 
L 321.483939 192.505595 
" style="fill:none;opacity:0.5;stroke:#800080;stroke-linecap:round;stroke-width:2;"/>
   </g>
   <g id="patch_64">
    <path d="M 340.163033 306.212759 
Q 220.560347 306.212759 100.957662 306.212759 
" style="fill:none;opacity:0.5;stroke:#008000;stroke-linecap:round;stroke-width:2;"/>
   </g>
   <g id="patch_65">
    <path d="M 362.343907 306.212759 
Q 341.163923 306.212759 319.983939 306.212759 
" style="fill:none;opacity:0.5;stroke:#800080;stroke-linecap:round;stroke-width:2;"/>
    <path d="M 360.843907 304.712759 
L 362.343907 306.212759 
L 360.843907 307.712759 
" style="fill:none;opacity:0.5;stroke:#800080;stroke-linecap:round;stroke-width:2;"/>
    <path d="M 321.483939 307.712759 
L 319.983939 306.212759 
L 321.483939 304.712759 
" style="fill:none;opacity:0.5;stroke:#800080;stroke-linecap:round;stroke-width:2;"/>
   </g>
   <g id="patch_66">
    <path d="M 100.957662 306.212759 
Q 100.957662 250.109177 100.957662 194.005595 
" style="fill:none;opacity:0.5;stroke:#008000;stroke-linecap:round;stroke-width:2;"/>
   </g>
   <g id="patch_67">
    <path d="M 78.776788 306.212759 
Q 99.956772 306.212759 121.136756 306.212759 
" style="fill:none;opacity:0.5;stroke:#800080;stroke-linecap:round;stroke-width:2;"/>
    <path d="M 80.276788 307.712759 
L 78.776788 306.212759 
L 80.276788 304.712759 
" style="fill:none;opacity:0.5;stroke:#800080;stroke-linecap:round;stroke-width:2;"/>
    <path d="M 119.636756 304.712759 
L 121.136756 306.212759 
L 119.636756 307.712759 
" style="fill:none;opacity:0.5;stroke:#800080;stroke-linecap:round;stroke-width:2;"/>
   </g>
   <g id="patch_68">
    <path d="M 100.957662 194.005595 
Q 220.560347 194.005595 340.163033 194.005595 
" style="fill:none;opacity:0.5;stroke:#008000;stroke-linecap:round;stroke-width:2;"/>
   </g>
   <g id="patch_69">
    <path d="M 78.776788 194.005595 
Q 99.956772 194.005595 121.136756 194.005595 
" style="fill:none;opacity:0.5;stroke:#800080;stroke-linecap:round;stroke-width:2;"/>
    <path d="M 80.276788 195.505595 
L 78.776788 194.005595 
L 80.276788 192.505595 
" style="fill:none;opacity:0.5;stroke:#800080;stroke-linecap:round;stroke-width:2;"/>
    <path d="M 119.636756 192.505595 
L 121.136756 194.005595 
L 119.636756 195.505595 
" style="fill:none;opacity:0.5;stroke:#800080;stroke-linecap:round;stroke-width:2;"/>
   </g>
   <g id="line2d_1">
    <path clip-path="url(#p838f1ebdb7)" d="M 363.75812 33.709645 
L 363.75812 145.91681 
L 77.362574 145.91681 
L 77.362574 33.709645 
" style="fill:none;stroke:#ff0000;stroke-linecap:square;stroke-width:0.2;"/>
   </g>
   <g id="line2d_2">
    <path clip-path="url(#p838f1ebdb7)" d="M 316.567945 33.709645 
L 316.567945 145.91681 
L 124.55275 145.91681 
L 124.55275 33.709645 
" style="fill:none;stroke:#0000ff;stroke-linecap:square;stroke-width:0.2;"/>
   </g>
   <g id="line2d_3">
    <path clip-path="url(#p838f1ebdb7)" d="M 363.75812 194.005595 
L 363.75812 306.212759 
L 77.362574 306.212759 
L 77.362574 194.005595 
" style="fill:none;stroke:#ff0000;stroke-linecap:square;stroke-width:0.2;"/>
   </g>
   <g id="line2d_4">
    <path clip-path="url(#p838f1ebdb7)" d="M 316.567945 194.005595 
L 316.567945 306.212759 
L 124.55275 306.212759 
L 124.55275 194.005595 
" style="fill:none;stroke:#0000ff;stroke-linecap:square;stroke-width:0.2;"/>
   </g>
  </g>
 </g>
 <defs>
  <clipPath id="p838f1ebdb7">
   <rect height="307.51175" width="409.903625" x="37.576375" y="13.32"/>
  </clipPath>
 </defs>
</svg>
