<?xml version="1.0" encoding="utf-8" standalone="no"?>
<!DOCTYPE svg PUBLIC "-//W3C//DTD SVG 1.1//EN"
  "http://www.w3.org/Graphics/SVG/1.1/DTD/svg11.dtd">
<!-- Created with matplotlib (http://matplotlib.org/) -->
<svg height="345.6pt" version="1.1" viewBox="0 0 460.8 345.6" width="460.8pt" xmlns="http://www.w3.org/2000/svg" xmlns:xlink="http://www.w3.org/1999/xlink">
 <defs>
  <style type="text/css">
*{stroke-linecap:butt;stroke-linejoin:round;}
  </style>
 </defs>
 <g id="figure_1">
  <g id="patch_1">
   <path d="M 0 345.6 
L 460.8 345.6 
L 460.8 0 
L 0 0 
z
" style="fill:#ffffff;"/>
  </g>
  <g id="axes_1">
   <g id="patch_2">
    <path clip-path="url(#pa84d1ecefe)" d="M 270.41591 43.557169 
C 271.380139 43.557169 272.305005 43.336113 272.986818 42.942685 
C 273.668631 42.549256 274.051723 42.015578 274.051723 41.459187 
C 274.051723 40.902796 273.668631 40.369118 272.986818 39.97569 
C 272.305005 39.582261 271.380139 39.361205 270.41591 39.361205 
C 269.451681 39.361205 268.526815 39.582261 267.845002 39.97569 
C 267.163189 40.369118 266.780097 40.902796 266.780097 41.459187 
C 266.780097 42.015578 267.163189 42.549256 267.845002 42.942685 
C 268.526815 43.336113 269.451681 43.557169 270.41591 43.557169 
z
" style="fill:#ff0000;opacity:0.2;stroke:#ff0000;stroke-linejoin:miter;stroke-width:2;"/>
   </g>
   <g id="patch_3">
    <path clip-path="url(#pa84d1ecefe)" d="M 366.764953 43.557169 
C 367.729182 43.557169 368.654048 43.336113 369.335861 42.942685 
C 370.017674 42.549256 370.400766 42.015578 370.400766 41.459187 
C 370.400766 40.902796 370.017674 40.369118 369.335861 39.97569 
C 368.654048 39.582261 367.729182 39.361205 366.764953 39.361205 
C 365.800724 39.361205 364.875858 39.582261 364.194045 39.97569 
C 363.512232 40.369118 363.12914 40.902796 363.12914 41.459187 
C 363.12914 42.015578 363.512232 42.549256 364.194045 42.942685 
C 364.875858 43.336113 365.800724 43.557169 366.764953 43.557169 
z
" style="fill:#ff0000;opacity:0.2;stroke:#ff0000;stroke-linejoin:miter;stroke-width:2;"/>
   </g>
   <g id="patch_4">
    <path clip-path="url(#pa84d1ecefe)" d="M 297.684507 98.104708 
C 298.648736 98.104708 299.573602 97.883652 300.255415 97.490223 
C 300.937228 97.096795 301.32032 96.563117 301.32032 96.006726 
C 301.32032 95.450334 300.937228 94.916657 300.255415 94.523228 
C 299.573602 94.1298 298.648736 93.908744 297.684507 93.908744 
C 296.720278 93.908744 295.795412 94.1298 295.113599 94.523228 
C 294.431786 94.916657 294.048694 95.450334 294.048694 96.006726 
C 294.048694 96.563117 294.431786 97.096795 295.113599 97.490223 
C 295.795412 97.883652 296.720278 98.104708 297.684507 98.104708 
z
" style="fill:#ff0000;opacity:0.2;stroke:#ff0000;stroke-linejoin:miter;stroke-width:2;"/>
   </g>
   <g id="patch_5">
    <path clip-path="url(#pa84d1ecefe)" d="M 314.045665 120.133522 
C 315.009894 120.133522 315.93476 119.912465 316.616573 119.519037 
C 317.298386 119.125609 317.681478 118.591931 317.681478 118.03554 
C 317.681478 117.479148 317.298386 116.94547 316.616573 116.552042 
C 315.93476 116.158614 315.009894 115.937557 314.045665 115.937557 
C 313.081436 115.937557 312.15657 116.158614 311.474757 116.552042 
C 310.792944 116.94547 310.409852 117.479148 310.409852 118.03554 
C 310.409852 118.591931 310.792944 119.125609 311.474757 119.519037 
C 312.15657 119.912465 313.081436 120.133522 314.045665 120.133522 
z
" style="fill:#ff0000;opacity:0.2;stroke:#ff0000;stroke-linejoin:miter;stroke-width:2;"/>
   </g>
   <g id="patch_6">
    <path clip-path="url(#pa84d1ecefe)" d="M 424.93796 209.297768 
C 425.902189 209.297768 426.827055 209.076711 427.508868 208.683283 
C 428.190681 208.289855 428.573773 207.756177 428.573773 207.199786 
C 428.573773 206.643394 428.190681 206.109716 427.508868 205.716288 
C 426.827055 205.32286 425.902189 205.101803 424.93796 205.101803 
C 423.973731 205.101803 423.048865 205.32286 422.367052 205.716288 
C 421.685239 206.109716 421.302147 206.643394 421.302147 207.199786 
C 421.302147 207.756177 421.685239 208.289855 422.367052 208.683283 
C 423.048865 209.076711 423.973731 209.297768 424.93796 209.297768 
z
" style="fill:#ff0000;opacity:0.2;stroke:#ff0000;stroke-linejoin:miter;stroke-width:2;"/>
   </g>
   <g id="patch_7">
    <path clip-path="url(#pa84d1ecefe)" d="M 194.063838 306.853943 
C 195.028067 306.853943 195.952934 306.632887 196.634746 306.239458 
C 197.316559 305.84603 197.699651 305.312352 197.699651 304.755961 
C 197.699651 304.19957 197.316559 303.665892 196.634746 303.272463 
C 195.952934 302.879035 195.028067 302.657979 194.063838 302.657979 
C 193.099609 302.657979 192.174743 302.879035 191.49293 303.272463 
C 190.811118 303.665892 190.428025 304.19957 190.428025 304.755961 
C 190.428025 305.312352 190.811118 305.84603 191.49293 306.239458 
C 192.174743 306.632887 193.099609 306.853943 194.063838 306.853943 
z
" style="fill:#ff0000;opacity:0.2;stroke:#ff0000;stroke-linejoin:miter;stroke-width:2;"/>
   </g>
   <g id="patch_8">
    <path clip-path="url(#pa84d1ecefe)" d="M 54.08504 260.698333 
C 55.049269 260.698333 55.974135 260.477277 56.655948 260.083849 
C 57.337761 259.690421 57.720853 259.156743 57.720853 258.600351 
C 57.720853 258.04396 57.337761 257.510282 56.655948 257.116854 
C 55.974135 256.723426 55.049269 256.502369 54.08504 256.502369 
C 53.120811 256.502369 52.195945 256.723426 51.514132 257.116854 
C 50.832319 257.510282 50.449227 258.04396 50.449227 258.600351 
C 50.449227 259.156743 50.832319 259.690421 51.514132 260.083849 
C 52.195945 260.477277 53.120811 260.698333 54.08504 260.698333 
z
" style="fill:#ff0000;opacity:0.2;stroke:#ff0000;stroke-linejoin:miter;stroke-width:2;"/>
   </g>
   <g id="patch_9">
    <path clip-path="url(#pa84d1ecefe)" d="M 112.258047 226.081626 
C 113.222276 226.081626 114.147142 225.860569 114.828955 225.467141 
C 115.510768 225.073713 115.89386 224.540035 115.89386 223.983644 
C 115.89386 223.427252 115.510768 222.893574 114.828955 222.500146 
C 114.147142 222.106718 113.222276 221.885662 112.258047 221.885662 
C 111.293818 221.885662 110.368952 222.106718 109.687139 222.500146 
C 109.005326 222.893574 108.622234 223.427252 108.622234 223.983644 
C 108.622234 224.540035 109.005326 225.073713 109.687139 225.467141 
C 110.368952 225.860569 111.293818 226.081626 112.258047 226.081626 
z
" style="fill:#ff0000;opacity:0.2;stroke:#ff0000;stroke-linejoin:miter;stroke-width:2;"/>
   </g>
   <g id="patch_10">
    <path clip-path="url(#pa84d1ecefe)" d="M 235.875687 264.894298 
C 236.839916 264.894298 237.764782 264.673241 238.446595 264.279813 
C 239.128408 263.886385 239.5115 263.352707 239.5115 262.796316 
C 239.5115 262.239924 239.128408 261.706246 238.446595 261.312818 
C 237.764782 260.91939 236.839916 260.698333 235.875687 260.698333 
C 234.911458 260.698333 233.986592 260.91939 233.304779 261.312818 
C 232.622966 261.706246 232.239874 262.239924 232.239874 262.796316 
C 232.239874 263.352707 232.622966 263.886385 233.304779 264.279813 
C 233.986592 264.673241 234.911458 264.894298 235.875687 264.894298 
z
" style="fill:#ff0000;opacity:0.2;stroke:#ff0000;stroke-linejoin:miter;stroke-width:2;"/>
   </g>
   <g id="patch_11">
    <path clip-path="url(#pa84d1ecefe)" d="M 283.141255 238.66952 
C 284.105484 238.66952 285.03035 238.448463 285.712163 238.055035 
C 286.393976 237.661607 286.777068 237.127929 286.777068 236.571537 
C 286.777068 236.015146 286.393976 235.481468 285.712163 235.08804 
C 285.03035 234.694612 284.105484 234.473555 283.141255 234.473555 
C 282.177026 234.473555 281.25216 234.694612 280.570347 235.08804 
C 279.888534 235.481468 279.505442 236.015146 279.505442 236.571537 
C 279.505442 237.127929 279.888534 237.661607 280.570347 238.055035 
C 281.25216 238.448463 282.177026 238.66952 283.141255 238.66952 
z
" style="fill:#ff0000;opacity:0.2;stroke:#ff0000;stroke-linejoin:miter;stroke-width:2;"/>
   </g>
   <g id="patch_12">
    <path clip-path="url(#pa84d1ecefe)" d="M 144.980364 163.142158 
C 145.944592 163.142158 146.869459 162.921102 147.551272 162.527673 
C 148.233084 162.134245 148.616177 161.600567 148.616177 161.044176 
C 148.616177 160.487785 148.233084 159.954107 147.551272 159.560679 
C 146.869459 159.16725 145.944592 158.946194 144.980364 158.946194 
C 144.016135 158.946194 143.091268 159.16725 142.409456 159.560679 
C 141.727643 159.954107 141.344551 160.487785 141.344551 161.044176 
C 141.344551 161.600567 141.727643 162.134245 142.409456 162.527673 
C 143.091268 162.921102 144.016135 163.142158 144.980364 163.142158 
z
" style="fill:#ff0000;opacity:0.2;stroke:#ff0000;stroke-linejoin:miter;stroke-width:2;"/>
   </g>
   <g id="patch_13">
    <path clip-path="url(#pa84d1ecefe)" d="M 139.526644 154.750229 
C 140.490873 154.750229 141.415739 154.529173 142.097552 154.135744 
C 142.779365 153.742316 143.162457 153.208638 143.162457 152.652247 
C 143.162457 152.095856 142.779365 151.562178 142.097552 151.168749 
C 141.415739 150.775321 140.490873 150.554265 139.526644 150.554265 
C 138.562415 150.554265 137.637549 150.775321 136.955736 151.168749 
C 136.273923 151.562178 135.890831 152.095856 135.890831 152.652247 
C 135.890831 153.208638 136.273923 153.742316 136.955736 154.135744 
C 137.637549 154.529173 138.562415 154.750229 139.526644 154.750229 
z
" style="fill:#ff0000;opacity:0.2;stroke:#ff0000;stroke-linejoin:miter;stroke-width:2;"/>
   </g>
   <g id="patch_14">
    <path clip-path="url(#pa84d1ecefe)" d="M 288.594975 31.493771 
C 289.559204 31.493771 290.48407 31.272715 291.165883 30.879287 
C 291.847695 30.485858 292.230788 29.95218 292.230788 29.395789 
C 292.230788 28.839398 291.847695 28.30572 291.165883 27.912292 
C 290.48407 27.518863 289.559204 27.297807 288.594975 27.297807 
C 287.630746 27.297807 286.705879 27.518863 286.024067 27.912292 
C 285.342254 28.30572 284.959162 28.839398 284.959162 29.395789 
C 284.959162 29.95218 285.342254 30.485858 286.024067 30.879287 
C 286.705879 31.272715 287.630746 31.493771 288.594975 31.493771 
z
" style="fill:#0000ff;opacity:0.2;stroke:#0000ff;stroke-linejoin:miter;stroke-width:2;"/>
   </g>
   <g id="patch_15">
    <path clip-path="url(#pa84d1ecefe)" d="M 348.585888 31.493771 
C 349.550117 31.493771 350.474983 31.272715 351.156796 30.879287 
C 351.838609 30.485858 352.221701 29.95218 352.221701 29.395789 
C 352.221701 28.839398 351.838609 28.30572 351.156796 27.912292 
C 350.474983 27.518863 349.550117 27.297807 348.585888 27.297807 
C 347.621659 27.297807 346.696793 27.518863 346.01498 27.912292 
C 345.333167 28.30572 344.950075 28.839398 344.950075 29.395789 
C 344.950075 29.95218 345.333167 30.485858 346.01498 30.879287 
C 346.696793 31.272715 347.621659 31.493771 348.585888 31.493771 
z
" style="fill:#0000ff;opacity:0.2;stroke:#0000ff;stroke-linejoin:miter;stroke-width:2;"/>
   </g>
   <g id="patch_16">
    <path clip-path="url(#pa84d1ecefe)" d="M 283.141255 92.335257 
C 284.105484 92.335257 285.03035 92.1142 285.712163 91.720772 
C 286.393976 91.327344 286.777068 90.793666 286.777068 90.237275 
C 286.777068 89.680883 286.393976 89.147205 285.712163 88.753777 
C 285.03035 88.360349 284.105484 88.139292 283.141255 88.139292 
C 282.177026 88.139292 281.25216 88.360349 280.570347 88.753777 
C 279.888534 89.147205 279.505442 89.680883 279.505442 90.237275 
C 279.505442 90.793666 279.888534 91.327344 280.570347 91.720772 
C 281.25216 92.1142 282.177026 92.335257 283.141255 92.335257 
z
" style="fill:#0000ff;opacity:0.2;stroke:#0000ff;stroke-linejoin:miter;stroke-width:2;"/>
   </g>
   <g id="patch_17">
    <path clip-path="url(#pa84d1ecefe)" d="M 297.684507 115.413062 
C 298.648736 115.413062 299.573602 115.192005 300.255415 114.798577 
C 300.937228 114.405149 301.32032 113.871471 301.32032 113.31508 
C 301.32032 112.758688 300.937228 112.22501 300.255415 111.831582 
C 299.573602 111.438154 298.648736 111.217097 297.684507 111.217097 
C 296.720278 111.217097 295.795412 111.438154 295.113599 111.831582 
C 294.431786 112.22501 294.048694 112.758688 294.048694 113.31508 
C 294.048694 113.871471 294.431786 114.405149 295.113599 114.798577 
C 295.795412 115.192005 296.720278 115.413062 297.684507 115.413062 
z
" style="fill:#0000ff;opacity:0.2;stroke:#0000ff;stroke-linejoin:miter;stroke-width:2;"/>
   </g>
   <g id="patch_18">
    <path clip-path="url(#pa84d1ecefe)" d="M 375.854485 184.646476 
C 376.818714 184.646476 377.74358 184.42542 378.425393 184.031992 
C 379.107206 183.638564 379.490298 183.104886 379.490298 182.548494 
C 379.490298 181.992103 379.107206 181.458425 378.425393 181.064997 
C 377.74358 180.671569 376.818714 180.450512 375.854485 180.450512 
C 374.890256 180.450512 373.96539 180.671569 373.283577 181.064997 
C 372.601764 181.458425 372.218672 181.992103 372.218672 182.548494 
C 372.218672 183.104886 372.601764 183.638564 373.283577 184.031992 
C 373.96539 184.42542 374.890256 184.646476 375.854485 184.646476 
z
" style="fill:#0000ff;opacity:0.2;stroke:#0000ff;stroke-linejoin:miter;stroke-width:2;"/>
   </g>
   <g id="patch_19">
    <path clip-path="url(#pa84d1ecefe)" d="M 201.335464 270.663749 
C 202.299693 270.663749 203.224559 270.442693 203.906372 270.049264 
C 204.588185 269.655836 204.971277 269.122158 204.971277 268.565767 
C 204.971277 268.009376 204.588185 267.475698 203.906372 267.082269 
C 203.224559 266.688841 202.299693 266.467785 201.335464 266.467785 
C 200.371235 266.467785 199.446369 266.688841 198.764556 267.082269 
C 198.082743 267.475698 197.699651 268.009376 197.699651 268.565767 
C 197.699651 269.122158 198.082743 269.655836 198.764556 270.049264 
C 199.446369 270.442693 200.371235 270.663749 201.335464 270.663749 
z
" style="fill:#0000ff;opacity:0.2;stroke:#0000ff;stroke-linejoin:miter;stroke-width:2;"/>
   </g>
   <g id="patch_20">
    <path clip-path="url(#pa84d1ecefe)" d="M 103.168515 236.047042 
C 104.132744 236.047042 105.05761 235.825985 105.739423 235.432557 
C 106.421236 235.039129 106.804328 234.505451 106.804328 233.94906 
C 106.804328 233.392668 106.421236 232.85899 105.739423 232.465562 
C 105.05761 232.072134 104.132744 231.851077 103.168515 231.851077 
C 102.204286 231.851077 101.27942 232.072134 100.597607 232.465562 
C 99.915794 232.85899 99.532702 233.392668 99.532702 233.94906 
C 99.532702 234.505451 99.915794 235.039129 100.597607 235.432557 
C 101.27942 235.825985 102.204286 236.047042 103.168515 236.047042 
z
" style="fill:#0000ff;opacity:0.2;stroke:#0000ff;stroke-linejoin:miter;stroke-width:2;"/>
   </g>
   <g id="patch_21">
    <path clip-path="url(#pa84d1ecefe)" d="M 144.980364 210.871255 
C 145.944592 210.871255 146.869459 210.650198 147.551272 210.25677 
C 148.233084 209.863342 148.616177 209.329664 148.616177 208.773272 
C 148.616177 208.216881 148.233084 207.683203 147.551272 207.289775 
C 146.869459 206.896347 145.944592 206.67529 144.980364 206.67529 
C 144.016135 206.67529 143.091268 206.896347 142.409456 207.289775 
C 141.727643 207.683203 141.344551 208.216881 141.344551 208.773272 
C 141.344551 209.329664 141.727643 209.863342 142.409456 210.25677 
C 143.091268 210.650198 144.016135 210.871255 144.980364 210.871255 
z
" style="fill:#0000ff;opacity:0.2;stroke:#0000ff;stroke-linejoin:miter;stroke-width:2;"/>
   </g>
   <g id="patch_22">
    <path clip-path="url(#pa84d1ecefe)" d="M 234.057781 239.194015 
C 235.022009 239.194015 235.946876 238.972959 236.628689 238.57953 
C 237.310501 238.186102 237.693594 237.652424 237.693594 237.096033 
C 237.693594 236.539642 237.310501 236.005964 236.628689 235.612535 
C 235.946876 235.219107 235.022009 234.998051 234.057781 234.998051 
C 233.093552 234.998051 232.168685 235.219107 231.486873 235.612535 
C 230.80506 236.005964 230.421968 236.539642 230.421968 237.096033 
C 230.421968 237.652424 230.80506 238.186102 231.486873 238.57953 
C 232.168685 238.972959 233.093552 239.194015 234.057781 239.194015 
z
" style="fill:#0000ff;opacity:0.2;stroke:#0000ff;stroke-linejoin:miter;stroke-width:2;"/>
   </g>
   <g id="patch_23">
    <path clip-path="url(#pa84d1ecefe)" d="M 279.505442 208.773272 
C 280.469671 208.773272 281.394538 208.552216 282.07635 208.158788 
C 282.758163 207.76536 283.141255 207.231682 283.141255 206.67529 
C 283.141255 206.118899 282.758163 205.585221 282.07635 205.191793 
C 281.394538 204.798365 280.469671 204.577308 279.505442 204.577308 
C 278.541213 204.577308 277.616347 204.798365 276.934534 205.191793 
C 276.252722 205.585221 275.869629 206.118899 275.869629 206.67529 
C 275.869629 207.231682 276.252722 207.76536 276.934534 208.158788 
C 277.616347 208.552216 278.541213 208.773272 279.505442 208.773272 
z
" style="fill:#0000ff;opacity:0.2;stroke:#0000ff;stroke-linejoin:miter;stroke-width:2;"/>
   </g>
   <g id="patch_24">
    <path clip-path="url(#pa84d1ecefe)" d="M 174.066867 143.735822 
C 175.031096 143.735822 175.955962 143.514766 176.637775 143.121338 
C 177.319588 142.727909 177.70268 142.194231 177.70268 141.63784 
C 177.70268 141.081449 177.319588 140.547771 176.637775 140.154343 
C 175.955962 139.760914 175.031096 139.539858 174.066867 139.539858 
C 173.102638 139.539858 172.177772 139.760914 171.495959 140.154343 
C 170.814146 140.547771 170.431054 141.081449 170.431054 141.63784 
C 170.431054 142.194231 170.814146 142.727909 171.495959 143.121338 
C 172.177772 143.514766 173.102638 143.735822 174.066867 143.735822 
z
" style="fill:#0000ff;opacity:0.2;stroke:#0000ff;stroke-linejoin:miter;stroke-width:2;"/>
   </g>
   <g id="patch_25">
    <path clip-path="url(#pa84d1ecefe)" d="M 174.066867 138.490867 
C 175.031096 138.490867 175.955962 138.26981 176.637775 137.876382 
C 177.319588 137.482954 177.70268 136.949276 177.70268 136.392884 
C 177.70268 135.836493 177.319588 135.302815 176.637775 134.909387 
C 175.955962 134.515959 175.031096 134.294902 174.066867 134.294902 
C 173.102638 134.294902 172.177772 134.515959 171.495959 134.909387 
C 170.814146 135.302815 170.431054 135.836493 170.431054 136.392884 
C 170.431054 136.949276 170.814146 137.482954 171.495959 137.876382 
C 172.177772 138.26981 173.102638 138.490867 174.066867 138.490867 
z
" style="fill:#0000ff;opacity:0.2;stroke:#0000ff;stroke-linejoin:miter;stroke-width:2;"/>
   </g>
   <g id="patch_26">
    <path clip-path="url(#pa84d1ecefe)" d="M 270.41591 41.459187 
L 366.764953 41.459187 
L 297.684507 96.006726 
C 283.141255 106.496637 286.777068 109.643611 314.045665 118.03554 
C 381.308205 139.015362 424.93796 166.289132 424.93796 207.199786 
C 424.93796 264.894298 312.227759 304.755961 194.063838 304.755961 
C 106.804328 304.755961 54.08504 287.972103 54.08504 258.600351 
C 54.08504 239.718511 77.717824 223.983644 112.258047 223.983644 
C 163.159428 223.983644 195.881745 262.796316 235.875687 262.796316 
C 255.872658 262.796316 283.141255 253.355396 283.141255 236.571537 
C 283.141255 203.003821 210.424997 176.779043 144.980364 161.044176 
L 139.526644 152.652247 
L 270.41591 41.459187 
" style="fill:none;stroke:#ff0000;stroke-linejoin:miter;stroke-width:0.5;"/>
   </g>
   <g id="patch_27">
    <path clip-path="url(#pa84d1ecefe)" d="M 288.594975 29.395789 
L 348.585888 29.395789 
L 283.141255 90.237275 
C 275.869629 97.580213 277.687536 104.92315 297.684507 113.31508 
C 343.132169 131.147929 375.854485 154.225734 375.854485 182.548494 
C 375.854485 231.851077 288.594975 268.565767 201.335464 268.565767 
C 137.708738 268.565767 103.168515 253.879891 103.168515 233.94906 
C 103.168515 223.459148 119.529673 208.773272 144.980364 208.773272 
C 177.70268 208.773272 210.424997 237.096033 234.057781 237.096033 
C 254.054752 237.096033 279.505442 229.753095 279.505442 206.67529 
C 279.505442 181.499503 234.057781 155.274725 174.066867 141.63784 
L 174.066867 136.392884 
L 288.594975 29.395789 
" style="fill:none;stroke:#0000ff;stroke-linejoin:miter;stroke-width:0.5;"/>
   </g>
   <g id="[&quot;g_s&quot;:1,&quot;g_t&quot;:1,&quot;coords&quot;:[[267.0, -700.0],[277.0, -688.5]],&quot;certainty&quot;:11]">
    <path clip-path="url(#pa84d1ecefe)" d="M 270.41591 47.753134 
C 273.308597 47.753134 276.083196 47.089964 278.128634 45.90968 
C 280.174072 44.729395 281.323349 43.128361 281.323349 41.459187 
C 281.323349 39.790013 280.174072 38.188979 278.128634 37.008695 
C 276.083196 35.82841 273.308597 35.16524 270.41591 35.16524 
C 267.523223 35.16524 264.748624 35.82841 262.703186 37.008695 
C 260.657748 38.188979 259.508471 39.790013 259.508471 41.459187 
C 259.508471 43.128361 260.657748 44.729395 262.703186 45.90968 
C 264.748624 47.089964 267.523223 47.753134 270.41591 47.753134 
z
" style="fill:#0000ff;opacity:0.2;stroke:#0000ff;stroke-linejoin:miter;stroke-width:2;"/>
   </g>
   <g id="[&quot;g_s&quot;:1,&quot;g_t&quot;:1,&quot;coords&quot;:[[277.0, -688.5],[267.0, -700.0]],&quot;certainty&quot;:11]">
    <path clip-path="url(#pa84d1ecefe)" d="M 288.594975 35.689736 
C 291.487661 35.689736 294.26226 35.026566 296.307699 33.846282 
C 298.353137 32.665997 299.502413 31.064963 299.502413 29.395789 
C 299.502413 27.726615 298.353137 26.125581 296.307699 24.945297 
C 294.26226 23.765012 291.487661 23.101842 288.594975 23.101842 
C 285.702288 23.101842 282.927689 23.765012 280.882251 24.945297 
C 278.836812 26.125581 277.687536 27.726615 277.687536 29.395789 
C 277.687536 31.064963 278.836812 32.665997 280.882251 33.846282 
C 282.927689 35.026566 285.702288 35.689736 288.594975 35.689736 
z
" style="fill:#ff0000;opacity:0.2;stroke:#ff0000;stroke-linejoin:miter;stroke-width:2;"/>
   </g>
   <g id="patch_28">
    <path d="M 270.41591 41.459187 
Q 278.672161 35.980443 285.160859 31.674625 
" style="fill:none;opacity:0.5;stroke:#0000ff;stroke-linecap:round;stroke-width:3;"/>
    <path d="M 283.081626 31.25416 
L 285.160859 31.674625 
L 284.740394 33.753858 
" style="fill:none;opacity:0.5;stroke:#0000ff;stroke-linecap:round;stroke-width:3;"/>
   </g>
   <g id="[&quot;g_s&quot;:2,&quot;g_t&quot;:2,&quot;coords&quot;:[[320.0, -700.0],[310.0, -688.5]],&quot;certainty&quot;:6]">
    <path clip-path="url(#pa84d1ecefe)" d="M 366.764953 45.130656 
C 368.452353 45.130656 370.070869 44.743807 371.264042 44.055308 
C 372.457214 43.366808 373.127625 42.432872 373.127625 41.459187 
C 373.127625 40.485502 372.457214 39.551566 371.264042 38.863066 
C 370.070869 38.174567 368.452353 37.787718 366.764953 37.787718 
C 365.077552 37.787718 363.459036 38.174567 362.265864 38.863066 
C 361.072691 39.551566 360.40228 40.485502 360.40228 41.459187 
C 360.40228 42.432872 361.072691 43.366808 362.265864 44.055308 
C 363.459036 44.743807 365.077552 45.130656 366.764953 45.130656 
z
" style="fill:#0000ff;opacity:0.2;stroke:#0000ff;stroke-linejoin:miter;stroke-width:2;"/>
   </g>
   <g id="[&quot;g_s&quot;:2,&quot;g_t&quot;:2,&quot;coords&quot;:[[310.0, -688.5],[320.0, -700.0]],&quot;certainty&quot;:6]">
    <path clip-path="url(#pa84d1ecefe)" d="M 348.585888 33.067258 
C 350.273289 33.067258 351.891805 32.680409 353.084977 31.99191 
C 354.278149 31.30341 354.948561 30.369474 354.948561 29.395789 
C 354.948561 28.422104 354.278149 27.488168 353.084977 26.799668 
C 351.891805 26.111169 350.273289 25.72432 348.585888 25.72432 
C 346.898488 25.72432 345.279971 26.111169 344.086799 26.799668 
C 342.893627 27.488168 342.223215 28.422104 342.223215 29.395789 
C 342.223215 30.369474 342.893627 31.30341 344.086799 31.99191 
C 345.279971 32.680409 346.898488 33.067258 348.585888 33.067258 
z
" style="fill:#ff0000;opacity:0.2;stroke:#ff0000;stroke-linejoin:miter;stroke-width:2;"/>
   </g>
   <g id="patch_29">
    <path d="M 366.764953 41.459187 
Q 358.508702 35.980443 351.283523 31.185906 
" style="fill:none;opacity:0.5;stroke:#0000ff;stroke-linecap:round;stroke-width:1.75;"/>
    <path d="M 351.703988 33.265138 
L 351.283523 31.185906 
L 353.362756 30.765441 
" style="fill:none;opacity:0.5;stroke:#0000ff;stroke-linecap:round;stroke-width:1.75;"/>
   </g>
   <g id="[&quot;g_s&quot;:3,&quot;g_t&quot;:3,&quot;coords&quot;:[[282.0, -752.0],[274.0, -746.5]],&quot;certainty&quot;:4]">
    <path clip-path="url(#pa84d1ecefe)" d="M 297.684507 98.629204 
C 298.889793 98.629204 300.045876 98.352883 300.898142 97.861098 
C 301.750408 97.369313 302.229273 96.702215 302.229273 96.006726 
C 302.229273 95.311237 301.750408 94.644139 300.898142 94.152354 
C 300.045876 93.660569 298.889793 93.384248 297.684507 93.384248 
C 296.479221 93.384248 295.323138 93.660569 294.470872 94.152354 
C 293.618606 94.644139 293.139741 95.311237 293.139741 96.006726 
C 293.139741 96.702215 293.618606 97.369313 294.470872 97.861098 
C 295.323138 98.352883 296.479221 98.629204 297.684507 98.629204 
z
" style="fill:#0000ff;opacity:0.2;stroke:#0000ff;stroke-linejoin:miter;stroke-width:2;"/>
   </g>
   <g id="[&quot;g_s&quot;:3,&quot;g_t&quot;:3,&quot;coords&quot;:[[274.0, -746.5],[282.0, -752.0]],&quot;certainty&quot;:4]">
    <path clip-path="url(#pa84d1ecefe)" d="M 283.141255 92.859752 
C 284.346541 92.859752 285.502624 92.583432 286.35489 92.091647 
C 287.207156 91.599861 287.686021 90.932764 287.686021 90.237275 
C 287.686021 89.541785 287.207156 88.874688 286.35489 88.382903 
C 285.502624 87.891118 284.346541 87.614797 283.141255 87.614797 
C 281.935969 87.614797 280.779886 87.891118 279.92762 88.382903 
C 279.075354 88.874688 278.596489 89.541785 278.596489 90.237275 
C 278.596489 90.932764 279.075354 91.599861 279.92762 92.091647 
C 280.779886 92.583432 281.935969 92.859752 283.141255 92.859752 
z
" style="fill:#ff0000;opacity:0.2;stroke:#ff0000;stroke-linejoin:miter;stroke-width:2;"/>
   </g>
   <g id="patch_30">
    <path d="M 297.684507 96.006726 
Q 291.341363 93.490338 285.819812 91.299885 
" style="fill:none;opacity:0.5;stroke:#0000ff;stroke-linecap:round;stroke-width:1.25;"/>
    <path d="M 286.660975 93.247305 
L 285.819812 91.299885 
L 287.767233 90.458722 
" style="fill:none;opacity:0.5;stroke:#0000ff;stroke-linecap:round;stroke-width:1.25;"/>
   </g>
   <g id="[&quot;g_s&quot;:4,&quot;g_t&quot;:4,&quot;coords&quot;:[[291.0, -773.0],[282.0, -768.5]],&quot;certainty&quot;:5]">
    <path clip-path="url(#pa84d1ecefe)" d="M 314.045665 121.182513 
C 315.492009 121.182513 316.879308 120.850928 317.902027 120.260786 
C 318.924746 119.670644 319.499385 118.870127 319.499385 118.03554 
C 319.499385 117.200953 318.924746 116.400436 317.902027 115.810293 
C 316.879308 115.220151 315.492009 114.888566 314.045665 114.888566 
C 312.599322 114.888566 311.212022 115.220151 310.189303 115.810293 
C 309.166584 116.400436 308.591946 117.200953 308.591946 118.03554 
C 308.591946 118.870127 309.166584 119.670644 310.189303 120.260786 
C 311.212022 120.850928 312.599322 121.182513 314.045665 121.182513 
z
" style="fill:#0000ff;opacity:0.2;stroke:#0000ff;stroke-linejoin:miter;stroke-width:2;"/>
   </g>
   <g id="[&quot;g_s&quot;:4,&quot;g_t&quot;:4,&quot;coords&quot;:[[282.0, -768.5],[291.0, -773.0]],&quot;certainty&quot;:5]">
    <path clip-path="url(#pa84d1ecefe)" d="M 297.684507 116.462053 
C 299.13085 116.462053 300.51815 116.130468 301.540869 115.540326 
C 302.563588 114.950184 303.138226 114.149667 303.138226 113.31508 
C 303.138226 112.480492 302.563588 111.679976 301.540869 111.089833 
C 300.51815 110.499691 299.13085 110.168106 297.684507 110.168106 
C 296.238164 110.168106 294.850864 110.499691 293.828145 111.089833 
C 292.805426 111.679976 292.230788 112.480492 292.230788 113.31508 
C 292.230788 114.149667 292.805426 114.950184 293.828145 115.540326 
C 294.850864 116.130468 296.238164 116.462053 297.684507 116.462053 
z
" style="fill:#ff0000;opacity:0.2;stroke:#ff0000;stroke-linejoin:miter;stroke-width:2;"/>
   </g>
   <g id="patch_31">
    <path d="M 314.045665 118.03554 
Q 306.825745 115.952475 300.624917 114.163436 
" style="fill:none;opacity:0.5;stroke:#0000ff;stroke-linecap:round;stroke-width:1.5;"/>
    <path d="M 301.650318 116.020464 
L 300.624917 114.163436 
L 302.481945 113.138035 
" style="fill:none;opacity:0.5;stroke:#0000ff;stroke-linecap:round;stroke-width:1.5;"/>
   </g>
   <g id="[&quot;g_s&quot;:5,&quot;g_t&quot;:5,&quot;coords&quot;:[[352.0, -858.0],[325.0, -834.5]],&quot;certainty&quot;:11]">
    <path clip-path="url(#pa84d1ecefe)" d="M 424.93796 213.493733 
C 427.830646 213.493733 430.605245 212.830563 432.650684 211.650278 
C 434.696122 210.469994 435.845399 208.86896 435.845399 207.199786 
C 435.845399 205.530612 434.696122 203.929578 432.650684 202.749293 
C 430.605245 201.569009 427.830646 200.905839 424.93796 200.905839 
C 422.045273 200.905839 419.270674 201.569009 417.225236 202.749293 
C 415.179798 203.929578 414.030521 205.530612 414.030521 207.199786 
C 414.030521 208.86896 415.179798 210.469994 417.225236 211.650278 
C 419.270674 212.830563 422.045273 213.493733 424.93796 213.493733 
z
" style="fill:#0000ff;opacity:0.2;stroke:#0000ff;stroke-linejoin:miter;stroke-width:2;"/>
   </g>
   <g id="[&quot;g_s&quot;:5,&quot;g_t&quot;:5,&quot;coords&quot;:[[325.0, -834.5],[352.0, -858.0]],&quot;certainty&quot;:11]">
    <path clip-path="url(#pa84d1ecefe)" d="M 375.854485 188.842441 
C 378.747172 188.842441 381.521771 188.179271 383.567209 186.998987 
C 385.612647 185.818702 386.761924 184.217668 386.761924 182.548494 
C 386.761924 180.87932 385.612647 179.278286 383.567209 178.098002 
C 381.521771 176.917717 378.747172 176.254547 375.854485 176.254547 
C 372.961799 176.254547 370.187199 176.917717 368.141761 178.098002 
C 366.096323 179.278286 364.947046 180.87932 364.947046 182.548494 
C 364.947046 184.217668 366.096323 185.818702 368.141761 186.998987 
C 370.187199 188.179271 372.961799 188.842441 375.854485 188.842441 
z
" style="fill:#ff0000;opacity:0.2;stroke:#ff0000;stroke-linejoin:miter;stroke-width:2;"/>
   </g>
   <g id="patch_32">
    <path d="M 424.93796 207.199786 
Q 401.290474 195.323262 379.538659 184.398804 
" style="fill:none;opacity:0.5;stroke:#0000ff;stroke-linecap:round;stroke-width:3;"/>
    <path d="M 380.205888 186.412459 
L 379.538659 184.398804 
L 381.552314 183.731575 
" style="fill:none;opacity:0.5;stroke:#0000ff;stroke-linecap:round;stroke-width:3;"/>
   </g>
   <g id="[&quot;g_s&quot;:6,&quot;g_t&quot;:6,&quot;coords&quot;:[[225.0, -951.0],[229.0, -916.5]],&quot;certainty&quot;:11]">
    <path clip-path="url(#pa84d1ecefe)" d="M 194.063838 311.049908 
C 196.956525 311.049908 199.731124 310.386738 201.776562 309.206453 
C 203.822001 308.026169 204.971277 306.425135 204.971277 304.755961 
C 204.971277 303.086787 203.822001 301.485753 201.776562 300.305468 
C 199.731124 299.125184 196.956525 298.462014 194.063838 298.462014 
C 191.171152 298.462014 188.396553 299.125184 186.351114 300.305468 
C 184.305676 301.485753 183.156399 303.086787 183.156399 304.755961 
C 183.156399 306.425135 184.305676 308.026169 186.351114 309.206453 
C 188.396553 310.386738 191.171152 311.049908 194.063838 311.049908 
z
" style="fill:#0000ff;opacity:0.2;stroke:#0000ff;stroke-linejoin:miter;stroke-width:2;"/>
   </g>
   <g id="[&quot;g_s&quot;:6,&quot;g_t&quot;:6,&quot;coords&quot;:[[229.0, -916.5],[225.0, -951.0]],&quot;certainty&quot;:11]">
    <path clip-path="url(#pa84d1ecefe)" d="M 201.335464 274.859714 
C 204.228151 274.859714 207.00275 274.196544 209.048188 273.016259 
C 211.093626 271.835975 212.242903 270.234941 212.242903 268.565767 
C 212.242903 266.896593 211.093626 265.295559 209.048188 264.115274 
C 207.00275 262.93499 204.228151 262.27182 201.335464 262.27182 
C 198.442778 262.27182 195.668179 262.93499 193.62274 264.115274 
C 191.577302 265.295559 190.428025 266.896593 190.428025 268.565767 
C 190.428025 270.234941 191.577302 271.835975 193.62274 273.016259 
C 195.668179 274.196544 198.442778 274.859714 201.335464 274.859714 
z
" style="fill:#ff0000;opacity:0.2;stroke:#ff0000;stroke-linejoin:miter;stroke-width:2;"/>
   </g>
   <g id="patch_33">
    <path d="M 194.063838 304.755961 
Q 197.503037 287.639395 200.524354 272.602583 
" style="fill:none;opacity:0.5;stroke:#0000ff;stroke-linecap:round;stroke-width:3;"/>
    <path d="M 198.75826 273.777705 
L 200.524354 272.602583 
L 201.699476 274.368678 
" style="fill:none;opacity:0.5;stroke:#0000ff;stroke-linecap:round;stroke-width:3;"/>
   </g>
   <g id="[&quot;g_s&quot;:7,&quot;g_t&quot;:7,&quot;coords&quot;:[[148.0, -907.0],[175.0, -883.5]],&quot;certainty&quot;:11]">
    <path clip-path="url(#pa84d1ecefe)" d="M 54.08504 264.894298 
C 56.977727 264.894298 59.752326 264.231128 61.797764 263.050844 
C 63.843202 261.870559 64.992479 260.269525 64.992479 258.600351 
C 64.992479 256.931177 63.843202 255.330143 61.797764 254.149859 
C 59.752326 252.969574 56.977727 252.306404 54.08504 252.306404 
C 51.192354 252.306404 48.417755 252.969574 46.372316 254.149859 
C 44.326878 255.330143 43.177601 256.931177 43.177601 258.600351 
C 43.177601 260.269525 44.326878 261.870559 46.372316 263.050844 
C 48.417755 264.231128 51.192354 264.894298 54.08504 264.894298 
z
" style="fill:#0000ff;opacity:0.2;stroke:#0000ff;stroke-linejoin:miter;stroke-width:2;"/>
   </g>
   <g id="[&quot;g_s&quot;:7,&quot;g_t&quot;:7,&quot;coords&quot;:[[175.0, -883.5],[148.0, -907.0]],&quot;certainty&quot;:11]">
    <path clip-path="url(#pa84d1ecefe)" d="M 103.168515 240.243006 
C 106.061201 240.243006 108.835801 239.579836 110.881239 238.399552 
C 112.926677 237.219268 114.075954 235.618234 114.075954 233.94906 
C 114.075954 232.279885 112.926677 230.678852 110.881239 229.498567 
C 108.835801 228.318283 106.061201 227.655113 103.168515 227.655113 
C 100.275828 227.655113 97.501229 228.318283 95.455791 229.498567 
C 93.410353 230.678852 92.261076 232.279885 92.261076 233.94906 
C 92.261076 235.618234 93.410353 237.219268 95.455791 238.399552 
C 97.501229 239.579836 100.275828 240.243006 103.168515 240.243006 
z
" style="fill:#ff0000;opacity:0.2;stroke:#ff0000;stroke-linejoin:miter;stroke-width:2;"/>
   </g>
   <g id="patch_34">
    <path d="M 54.08504 258.600351 
Q 77.732526 246.723827 99.484341 235.79937 
" style="fill:none;opacity:0.5;stroke:#0000ff;stroke-linecap:round;stroke-width:3;"/>
    <path d="M 97.470686 235.132141 
L 99.484341 235.79937 
L 98.817112 237.813024 
" style="fill:none;opacity:0.5;stroke:#0000ff;stroke-linecap:round;stroke-width:3;"/>
   </g>
   <g id="[&quot;g_s&quot;:8,&quot;g_t&quot;:8,&quot;coords&quot;:[[180.0, -874.0],[198.0, -859.5]],&quot;certainty&quot;:5]">
    <path clip-path="url(#pa84d1ecefe)" d="M 112.258047 227.130617 
C 113.70439 227.130617 115.09169 226.799032 116.114409 226.20889 
C 117.137128 225.618748 117.711767 224.818231 117.711767 223.983644 
C 117.711767 223.149057 117.137128 222.34854 116.114409 221.758398 
C 115.09169 221.168255 113.70439 220.83667 112.258047 220.83667 
C 110.811704 220.83667 109.424404 221.168255 108.401685 221.758398 
C 107.378966 222.34854 106.804328 223.149057 106.804328 223.983644 
C 106.804328 224.818231 107.378966 225.618748 108.401685 226.20889 
C 109.424404 226.799032 110.811704 227.130617 112.258047 227.130617 
z
" style="fill:#0000ff;opacity:0.2;stroke:#0000ff;stroke-linejoin:miter;stroke-width:2;"/>
   </g>
   <g id="[&quot;g_s&quot;:8,&quot;g_t&quot;:8,&quot;coords&quot;:[[198.0, -859.5],[180.0, -874.0]],&quot;certainty&quot;:5]">
    <path clip-path="url(#pa84d1ecefe)" d="M 144.980364 211.920246 
C 146.426707 211.920246 147.814006 211.588661 148.836726 210.998519 
C 149.859445 210.408376 150.434083 209.60786 150.434083 208.773272 
C 150.434083 207.938685 149.859445 207.138168 148.836726 206.548026 
C 147.814006 205.957884 146.426707 205.626299 144.980364 205.626299 
C 143.53402 205.626299 142.146721 205.957884 141.124002 206.548026 
C 140.101283 207.138168 139.526644 207.938685 139.526644 208.773272 
C 139.526644 209.60786 140.101283 210.408376 141.124002 210.998519 
C 142.146721 211.588661 143.53402 211.920246 144.980364 211.920246 
z
" style="fill:#ff0000;opacity:0.2;stroke:#ff0000;stroke-linejoin:miter;stroke-width:2;"/>
   </g>
   <g id="patch_35">
    <path d="M 112.258047 223.983644 
Q 127.710474 216.800865 142.201073 210.065175 
" style="fill:none;opacity:0.5;stroke:#0000ff;stroke-linecap:round;stroke-width:1.5;"/>
    <path d="M 140.208566 209.337223 
L 142.201073 210.065175 
L 141.473122 212.057682 
" style="fill:none;opacity:0.5;stroke:#0000ff;stroke-linecap:round;stroke-width:1.5;"/>
   </g>
   <g id="[&quot;g_s&quot;:9,&quot;g_t&quot;:6,&quot;coords&quot;:[[248.0, -911.0],[229.0, -916.5]],&quot;certainty&quot;:7]">
    <path clip-path="url(#pa84d1ecefe)" d="M 235.875687 266.99228 
C 237.804145 266.99228 239.653877 266.550167 241.017503 265.763311 
C 242.381129 264.976454 243.147313 263.909098 243.147313 262.796316 
C 243.147313 261.683533 242.381129 260.616177 241.017503 259.829321 
C 239.653877 259.042464 237.804145 258.600351 235.875687 258.600351 
C 233.947229 258.600351 232.097497 259.042464 230.733871 259.829321 
C 229.370246 260.616177 228.604061 261.683533 228.604061 262.796316 
C 228.604061 263.909098 229.370246 264.976454 230.733871 265.763311 
C 232.097497 266.550167 233.947229 266.99228 235.875687 266.99228 
z
" style="fill:#0000ff;opacity:0.2;stroke:#0000ff;stroke-linejoin:miter;stroke-width:2;"/>
   </g>
   <g id="[&quot;g_s&quot;:6,&quot;g_t&quot;:9,&quot;coords&quot;:[[229.0, -916.5],[248.0, -911.0]],&quot;certainty&quot;:7]">
    <path clip-path="url(#pa84d1ecefe)" d="M 201.335464 272.761731 
C 203.263922 272.761731 205.113655 272.319618 206.47728 271.532762 
C 207.840906 270.745906 208.60709 269.67855 208.60709 268.565767 
C 208.60709 267.452984 207.840906 266.385628 206.47728 265.598772 
C 205.113655 264.811916 203.263922 264.369802 201.335464 264.369802 
C 199.407006 264.369802 197.557274 264.811916 196.193648 265.598772 
C 194.830023 266.385628 194.063838 267.452984 194.063838 268.565767 
C 194.063838 269.67855 194.830023 270.745906 196.193648 271.532762 
C 197.557274 272.319618 199.407006 272.761731 201.335464 272.761731 
z
" style="fill:#ff0000;opacity:0.2;stroke:#ff0000;stroke-linejoin:miter;stroke-width:2;"/>
   </g>
   <g id="patch_36">
    <path d="M 235.875687 262.796316 
Q 219.59009 265.516592 204.699381 268.003873 
" style="fill:none;opacity:0.5;stroke:#0000ff;stroke-linecap:round;stroke-width:2;"/>
    <path d="M 206.426013 269.236245 
L 204.699381 268.003873 
L 205.931754 266.277241 
" style="fill:none;opacity:0.5;stroke:#0000ff;stroke-linecap:round;stroke-width:2;"/>
   </g>
   <g id="[&quot;g_s&quot;:10,&quot;g_t&quot;:10,&quot;coords&quot;:[[274.0, -886.0],[272.0, -857.5]],&quot;certainty&quot;:11]">
    <path clip-path="url(#pa84d1ecefe)" d="M 283.141255 242.865484 
C 286.033942 242.865484 288.808541 242.202314 290.853979 241.02203 
C 292.899417 239.841745 294.048694 238.240712 294.048694 236.571537 
C 294.048694 234.902363 292.899417 233.301329 290.853979 232.121045 
C 288.808541 230.940761 286.033942 230.277591 283.141255 230.277591 
C 280.248569 230.277591 277.47397 230.940761 275.428531 232.121045 
C 273.383093 233.301329 272.233816 234.902363 272.233816 236.571537 
C 272.233816 238.240712 273.383093 239.841745 275.428531 241.02203 
C 277.47397 242.202314 280.248569 242.865484 283.141255 242.865484 
z
" style="fill:#0000ff;opacity:0.2;stroke:#0000ff;stroke-linejoin:miter;stroke-width:2;"/>
   </g>
   <g id="[&quot;g_s&quot;:10,&quot;g_t&quot;:10,&quot;coords&quot;:[[272.0, -857.5],[274.0, -886.0]],&quot;certainty&quot;:11]">
    <path clip-path="url(#pa84d1ecefe)" d="M 279.505442 212.969237 
C 282.398129 212.969237 285.172728 212.306067 287.218166 211.125783 
C 289.263605 209.945498 290.412881 208.344464 290.412881 206.67529 
C 290.412881 205.006116 289.263605 203.405082 287.218166 202.224798 
C 285.172728 201.044513 282.398129 200.381343 279.505442 200.381343 
C 276.612756 200.381343 273.838157 201.044513 271.792718 202.224798 
C 269.74728 203.405082 268.598003 205.006116 268.598003 206.67529 
C 268.598003 208.344464 269.74728 209.945498 271.792718 211.125783 
C 273.838157 212.306067 276.612756 212.969237 279.505442 212.969237 
z
" style="fill:#ff0000;opacity:0.2;stroke:#ff0000;stroke-linejoin:miter;stroke-width:2;"/>
   </g>
   <g id="patch_37">
    <path d="M 283.141255 236.571537 
Q 281.444291 222.617887 280.003423 210.770042 
" style="fill:none;opacity:0.5;stroke:#0000ff;stroke-linecap:round;stroke-width:3;"/>
    <path d="M 278.695481 212.440159 
L 280.003423 210.770042 
L 281.673539 212.077984 
" style="fill:none;opacity:0.5;stroke:#0000ff;stroke-linecap:round;stroke-width:3;"/>
   </g>
   <g id="[&quot;g_s&quot;:11,&quot;g_t&quot;:11,&quot;coords&quot;:[[198.0, -814.0],[214.0, -795.5]],&quot;certainty&quot;:2]">
    <path clip-path="url(#pa84d1ecefe)" d="M 144.980364 162.617663 
C 145.703535 162.617663 146.397185 162.45187 146.908545 162.156799 
C 147.419904 161.861728 147.707223 161.46147 147.707223 161.044176 
C 147.707223 160.626882 147.419904 160.226624 146.908545 159.931553 
C 146.397185 159.636482 145.703535 159.470689 144.980364 159.470689 
C 144.257192 159.470689 143.563542 159.636482 143.052183 159.931553 
C 142.540823 160.226624 142.253504 160.626882 142.253504 161.044176 
C 142.253504 161.46147 142.540823 161.861728 143.052183 162.156799 
C 143.563542 162.45187 144.257192 162.617663 144.980364 162.617663 
z
" style="fill:#0000ff;opacity:0.2;stroke:#0000ff;stroke-linejoin:miter;stroke-width:2;"/>
   </g>
   <g id="[&quot;g_s&quot;:11,&quot;g_t&quot;:11,&quot;coords&quot;:[[214.0, -795.5],[198.0, -814.0]],&quot;certainty&quot;:2]">
    <path clip-path="url(#pa84d1ecefe)" d="M 174.066867 143.211327 
C 174.790039 143.211327 175.483689 143.045534 175.995048 142.750463 
C 176.506408 142.455392 176.793727 142.055134 176.793727 141.63784 
C 176.793727 141.220547 176.506408 140.820288 175.995048 140.525217 
C 175.483689 140.230146 174.790039 140.064353 174.066867 140.064353 
C 173.343695 140.064353 172.650046 140.230146 172.138686 140.525217 
C 171.627327 140.820288 171.340007 141.220547 171.340007 141.63784 
C 171.340007 142.055134 171.627327 142.455392 172.138686 142.750463 
C 172.650046 143.045534 173.343695 143.211327 174.066867 143.211327 
z
" style="fill:#ff0000;opacity:0.2;stroke:#ff0000;stroke-linejoin:miter;stroke-width:2;"/>
   </g>
   <g id="patch_38">
    <path d="M 144.980364 161.044176 
Q 158.691 151.896524 171.960482 143.043207 
" style="fill:none;opacity:0.5;stroke:#0000ff;stroke-linecap:round;stroke-width:0.75;"/>
    <path d="M 169.880205 142.627941 
L 171.960482 143.043207 
L 171.545216 145.123484 
" style="fill:none;opacity:0.5;stroke:#0000ff;stroke-linecap:round;stroke-width:0.75;"/>
   </g>
   <g id="[&quot;g_s&quot;:12,&quot;g_t&quot;:12,&quot;coords&quot;:[[195.0, -806.0],[214.0, -790.5]],&quot;certainty&quot;:7]">
    <path clip-path="url(#pa84d1ecefe)" d="M 139.526644 156.848211 
C 141.455102 156.848211 143.304835 156.406098 144.66846 155.619242 
C 146.032086 154.832386 146.79827 153.76503 146.79827 152.652247 
C 146.79827 151.539464 146.032086 150.472108 144.66846 149.685252 
C 143.304835 148.898396 141.455102 148.456282 139.526644 148.456282 
C 137.598187 148.456282 135.748454 148.898396 134.384828 149.685252 
C 133.021203 150.472108 132.255018 151.539464 132.255018 152.652247 
C 132.255018 153.76503 133.021203 154.832386 134.384828 155.619242 
C 135.748454 156.406098 137.598187 156.848211 139.526644 156.848211 
z
" style="fill:#0000ff;opacity:0.2;stroke:#0000ff;stroke-linejoin:miter;stroke-width:2;"/>
   </g>
   <g id="[&quot;g_s&quot;:12,&quot;g_t&quot;:12,&quot;coords&quot;:[[214.0, -790.5],[195.0, -806.0]],&quot;certainty&quot;:7]">
    <path clip-path="url(#pa84d1ecefe)" d="M 174.066867 140.588849 
C 175.995325 140.588849 177.845058 140.146736 179.208683 139.359879 
C 180.572309 138.573023 181.338493 137.505667 181.338493 136.392884 
C 181.338493 135.280102 180.572309 134.212746 179.208683 133.425889 
C 177.845058 132.639033 175.995325 132.19692 174.066867 132.19692 
C 172.138409 132.19692 170.288677 132.639033 168.925051 133.425889 
C 167.561426 134.212746 166.795241 135.280102 166.795241 136.392884 
C 166.795241 137.505667 167.561426 138.573023 168.925051 139.359879 
C 170.288677 140.146736 172.138409 140.588849 174.066867 140.588849 
z
" style="fill:#ff0000;opacity:0.2;stroke:#ff0000;stroke-linejoin:miter;stroke-width:2;"/>
   </g>
   <g id="patch_39">
    <path d="M 139.526644 152.652247 
Q 155.892352 144.948302 170.978526 137.846681 
" style="fill:none;opacity:0.5;stroke:#0000ff;stroke-linecap:round;stroke-width:2;"/>
    <path d="M 168.982514 137.128392 
L 170.978526 137.846681 
L 170.260236 139.842692 
" style="fill:none;opacity:0.5;stroke:#0000ff;stroke-linecap:round;stroke-width:2;"/>
   </g>
   <g id="[&quot;g_s&quot;:1,&quot;g_t&quot;:1,&quot;coords&quot;:[[277.0, -688.5],[267.0, -700.0]],&quot;certainty&quot;:11]">
    <path clip-path="url(#pa84d1ecefe)" d="M 288.594975 35.689736 
C 291.487661 35.689736 294.26226 35.026566 296.307699 33.846282 
C 298.353137 32.665997 299.502413 31.064963 299.502413 29.395789 
C 299.502413 27.726615 298.353137 26.125581 296.307699 24.945297 
C 294.26226 23.765012 291.487661 23.101842 288.594975 23.101842 
C 285.702288 23.101842 282.927689 23.765012 280.882251 24.945297 
C 278.836812 26.125581 277.687536 27.726615 277.687536 29.395789 
C 277.687536 31.064963 278.836812 32.665997 280.882251 33.846282 
C 282.927689 35.026566 285.702288 35.689736 288.594975 35.689736 
z
" style="fill:#0000ff;opacity:0.2;stroke:#0000ff;stroke-linejoin:miter;stroke-width:2;"/>
   </g>
   <g id="[&quot;g_s&quot;:1,&quot;g_t&quot;:1,&quot;coords&quot;:[[267.0, -700.0],[277.0, -688.5]],&quot;certainty&quot;:11]">
    <path clip-path="url(#pa84d1ecefe)" d="M 270.41591 47.753134 
C 273.308597 47.753134 276.083196 47.089964 278.128634 45.90968 
C 280.174072 44.729395 281.323349 43.128361 281.323349 41.459187 
C 281.323349 39.790013 280.174072 38.188979 278.128634 37.008695 
C 276.083196 35.82841 273.308597 35.16524 270.41591 35.16524 
C 267.523223 35.16524 264.748624 35.82841 262.703186 37.008695 
C 260.657748 38.188979 259.508471 39.790013 259.508471 41.459187 
C 259.508471 43.128361 260.657748 44.729395 262.703186 45.90968 
C 264.748624 47.089964 267.523223 47.753134 270.41591 47.753134 
z
" style="fill:#ff0000;opacity:0.2;stroke:#ff0000;stroke-linejoin:miter;stroke-width:2;"/>
   </g>
   <g id="patch_40">
    <path d="M 288.594975 29.395789 
Q 280.338723 34.874533 273.850025 39.180351 
" style="fill:none;opacity:0.5;stroke:#ff0000;stroke-linecap:round;stroke-width:3;"/>
    <path d="M 275.929258 39.600816 
L 273.850025 39.180351 
L 274.27049 37.101119 
" style="fill:none;opacity:0.5;stroke:#ff0000;stroke-linecap:round;stroke-width:3;"/>
   </g>
   <g id="[&quot;g_s&quot;:2,&quot;g_t&quot;:2,&quot;coords&quot;:[[310.0, -688.5],[320.0, -700.0]],&quot;certainty&quot;:7]">
    <path clip-path="url(#pa84d1ecefe)" d="M 348.585888 33.591754 
C 350.514346 33.591754 352.364079 33.14964 353.727704 32.362784 
C 355.09133 31.575928 355.857514 30.508572 355.857514 29.395789 
C 355.857514 28.283006 355.09133 27.21565 353.727704 26.428794 
C 352.364079 25.641938 350.514346 25.199825 348.585888 25.199825 
C 346.65743 25.199825 344.807698 25.641938 343.444072 26.428794 
C 342.080447 27.21565 341.314262 28.283006 341.314262 29.395789 
C 341.314262 30.508572 342.080447 31.575928 343.444072 32.362784 
C 344.807698 33.14964 346.65743 33.591754 348.585888 33.591754 
z
" style="fill:#0000ff;opacity:0.2;stroke:#0000ff;stroke-linejoin:miter;stroke-width:2;"/>
   </g>
   <g id="[&quot;g_s&quot;:2,&quot;g_t&quot;:2,&quot;coords&quot;:[[320.0, -700.0],[310.0, -688.5]],&quot;certainty&quot;:7]">
    <path clip-path="url(#pa84d1ecefe)" d="M 366.764953 45.655152 
C 368.693411 45.655152 370.543143 45.213038 371.906769 44.426182 
C 373.270394 43.639326 374.036579 42.57197 374.036579 41.459187 
C 374.036579 40.346404 373.270394 39.279048 371.906769 38.492192 
C 370.543143 37.705336 368.693411 37.263223 366.764953 37.263223 
C 364.836495 37.263223 362.986762 37.705336 361.623137 38.492192 
C 360.259511 39.279048 359.493327 40.346404 359.493327 41.459187 
C 359.493327 42.57197 360.259511 43.639326 361.623137 44.426182 
C 362.986762 45.213038 364.836495 45.655152 366.764953 45.655152 
z
" style="fill:#ff0000;opacity:0.2;stroke:#ff0000;stroke-linejoin:miter;stroke-width:2;"/>
   </g>
   <g id="patch_41">
    <path d="M 348.585888 29.395789 
Q 356.842139 34.874533 363.920022 39.571327 
" style="fill:none;opacity:0.5;stroke:#ff0000;stroke-linecap:round;stroke-width:2;"/>
    <path d="M 363.499557 37.492094 
L 363.920022 39.571327 
L 361.840789 39.991792 
" style="fill:none;opacity:0.5;stroke:#ff0000;stroke-linecap:round;stroke-width:2;"/>
   </g>
   <g id="[&quot;g_s&quot;:3,&quot;g_t&quot;:3,&quot;coords&quot;:[[274.0, -746.5],[282.0, -752.0]],&quot;certainty&quot;:6]">
    <path clip-path="url(#pa84d1ecefe)" d="M 283.141255 93.908744 
C 284.828656 93.908744 286.447172 93.521894 287.640344 92.833395 
C 288.833517 92.144896 289.503928 91.21096 289.503928 90.237275 
C 289.503928 89.26359 288.833517 88.329653 287.640344 87.641154 
C 286.447172 86.952655 284.828656 86.565806 283.141255 86.565806 
C 281.453855 86.565806 279.835339 86.952655 278.642166 87.641154 
C 277.448994 88.329653 276.778583 89.26359 276.778583 90.237275 
C 276.778583 91.21096 277.448994 92.144896 278.642166 92.833395 
C 279.835339 93.521894 281.453855 93.908744 283.141255 93.908744 
z
" style="fill:#0000ff;opacity:0.2;stroke:#0000ff;stroke-linejoin:miter;stroke-width:2;"/>
   </g>
   <g id="[&quot;g_s&quot;:3,&quot;g_t&quot;:3,&quot;coords&quot;:[[282.0, -752.0],[274.0, -746.5]],&quot;certainty&quot;:6]">
    <path clip-path="url(#pa84d1ecefe)" d="M 297.684507 99.678195 
C 299.371908 99.678195 300.990424 99.291346 302.183596 98.602846 
C 303.376768 97.914347 304.04718 96.980411 304.04718 96.006726 
C 304.04718 95.033041 303.376768 94.099105 302.183596 93.410605 
C 300.990424 92.722106 299.371908 92.335257 297.684507 92.335257 
C 295.997106 92.335257 294.37859 92.722106 293.185418 93.410605 
C 291.992246 94.099105 291.321834 95.033041 291.321834 96.006726 
C 291.321834 96.980411 291.992246 97.914347 293.185418 98.602846 
C 294.37859 99.291346 295.997106 99.678195 297.684507 99.678195 
z
" style="fill:#ff0000;opacity:0.2;stroke:#ff0000;stroke-linejoin:miter;stroke-width:2;"/>
   </g>
   <g id="patch_42">
    <path d="M 283.141255 90.237275 
Q 289.4844 92.753663 294.677312 94.813742 
" style="fill:none;opacity:0.5;stroke:#ff0000;stroke-linecap:round;stroke-width:1.75;"/>
    <path d="M 293.83615 92.866322 
L 294.677312 94.813742 
L 292.729892 95.654904 
" style="fill:none;opacity:0.5;stroke:#ff0000;stroke-linecap:round;stroke-width:1.75;"/>
   </g>
   <g id="[&quot;g_s&quot;:4,&quot;g_t&quot;:4,&quot;coords&quot;:[[282.0, -768.5],[291.0, -773.0]],&quot;certainty&quot;:3]">
    <path clip-path="url(#pa84d1ecefe)" d="M 297.684507 115.413062 
C 298.648736 115.413062 299.573602 115.192005 300.255415 114.798577 
C 300.937228 114.405149 301.32032 113.871471 301.32032 113.31508 
C 301.32032 112.758688 300.937228 112.22501 300.255415 111.831582 
C 299.573602 111.438154 298.648736 111.217097 297.684507 111.217097 
C 296.720278 111.217097 295.795412 111.438154 295.113599 111.831582 
C 294.431786 112.22501 294.048694 112.758688 294.048694 113.31508 
C 294.048694 113.871471 294.431786 114.405149 295.113599 114.798577 
C 295.795412 115.192005 296.720278 115.413062 297.684507 115.413062 
z
" style="fill:#0000ff;opacity:0.2;stroke:#0000ff;stroke-linejoin:miter;stroke-width:2;"/>
   </g>
   <g id="[&quot;g_s&quot;:4,&quot;g_t&quot;:4,&quot;coords&quot;:[[291.0, -773.0],[282.0, -768.5]],&quot;certainty&quot;:3]">
    <path clip-path="url(#pa84d1ecefe)" d="M 314.045665 120.133522 
C 315.009894 120.133522 315.93476 119.912465 316.616573 119.519037 
C 317.298386 119.125609 317.681478 118.591931 317.681478 118.03554 
C 317.681478 117.479148 317.298386 116.94547 316.616573 116.552042 
C 315.93476 116.158614 315.009894 115.937557 314.045665 115.937557 
C 313.081436 115.937557 312.15657 116.158614 311.474757 116.552042 
C 310.792944 116.94547 310.409852 117.479148 310.409852 118.03554 
C 310.409852 118.591931 310.792944 119.125609 311.474757 119.519037 
C 312.15657 119.912465 313.081436 120.133522 314.045665 120.133522 
z
" style="fill:#ff0000;opacity:0.2;stroke:#ff0000;stroke-linejoin:miter;stroke-width:2;"/>
   </g>
   <g id="patch_43">
    <path d="M 297.684507 113.31508 
Q 304.904427 115.398144 311.444953 117.285192 
" style="fill:none;opacity:0.5;stroke:#ff0000;stroke-linecap:round;"/>
    <path d="M 310.419552 115.428164 
L 311.444953 117.285192 
L 309.587924 118.310592 
" style="fill:none;opacity:0.5;stroke:#ff0000;stroke-linecap:round;"/>
   </g>
   <g id="[&quot;g_s&quot;:5,&quot;g_t&quot;:5,&quot;coords&quot;:[[325.0, -834.5],[352.0, -858.0]],&quot;certainty&quot;:11]">
    <path clip-path="url(#pa84d1ecefe)" d="M 375.854485 188.842441 
C 378.747172 188.842441 381.521771 188.179271 383.567209 186.998987 
C 385.612647 185.818702 386.761924 184.217668 386.761924 182.548494 
C 386.761924 180.87932 385.612647 179.278286 383.567209 178.098002 
C 381.521771 176.917717 378.747172 176.254547 375.854485 176.254547 
C 372.961799 176.254547 370.187199 176.917717 368.141761 178.098002 
C 366.096323 179.278286 364.947046 180.87932 364.947046 182.548494 
C 364.947046 184.217668 366.096323 185.818702 368.141761 186.998987 
C 370.187199 188.179271 372.961799 188.842441 375.854485 188.842441 
z
" style="fill:#0000ff;opacity:0.2;stroke:#0000ff;stroke-linejoin:miter;stroke-width:2;"/>
   </g>
   <g id="[&quot;g_s&quot;:5,&quot;g_t&quot;:5,&quot;coords&quot;:[[352.0, -858.0],[325.0, -834.5]],&quot;certainty&quot;:11]">
    <path clip-path="url(#pa84d1ecefe)" d="M 424.93796 213.493733 
C 427.830646 213.493733 430.605245 212.830563 432.650684 211.650278 
C 434.696122 210.469994 435.845399 208.86896 435.845399 207.199786 
C 435.845399 205.530612 434.696122 203.929578 432.650684 202.749293 
C 430.605245 201.569009 427.830646 200.905839 424.93796 200.905839 
C 422.045273 200.905839 419.270674 201.569009 417.225236 202.749293 
C 415.179798 203.929578 414.030521 205.530612 414.030521 207.199786 
C 414.030521 208.86896 415.179798 210.469994 417.225236 211.650278 
C 419.270674 212.830563 422.045273 213.493733 424.93796 213.493733 
z
" style="fill:#ff0000;opacity:0.2;stroke:#ff0000;stroke-linejoin:miter;stroke-width:2;"/>
   </g>
   <g id="patch_44">
    <path d="M 375.854485 182.548494 
Q 399.501971 194.425018 421.253786 205.349476 
" style="fill:none;opacity:0.5;stroke:#ff0000;stroke-linecap:round;stroke-width:3;"/>
    <path d="M 420.586557 203.335821 
L 421.253786 205.349476 
L 419.240131 206.016705 
" style="fill:none;opacity:0.5;stroke:#ff0000;stroke-linecap:round;stroke-width:3;"/>
   </g>
   <g id="[&quot;g_s&quot;:6,&quot;g_t&quot;:9,&quot;coords&quot;:[[229.0, -916.5],[248.0, -911.0]],&quot;certainty&quot;:6]">
    <path clip-path="url(#pa84d1ecefe)" d="M 201.335464 272.237236 
C 203.022865 272.237236 204.641381 271.850387 205.834553 271.161888 
C 207.027725 270.473388 207.698137 269.539452 207.698137 268.565767 
C 207.698137 267.592082 207.027725 266.658146 205.834553 265.969646 
C 204.641381 265.281147 203.022865 264.894298 201.335464 264.894298 
C 199.648064 264.894298 198.029548 265.281147 196.836375 265.969646 
C 195.643203 266.658146 194.972792 267.592082 194.972792 268.565767 
C 194.972792 269.539452 195.643203 270.473388 196.836375 271.161888 
C 198.029548 271.850387 199.648064 272.237236 201.335464 272.237236 
z
" style="fill:#0000ff;opacity:0.2;stroke:#0000ff;stroke-linejoin:miter;stroke-width:2;"/>
   </g>
   <g id="[&quot;g_s&quot;:9,&quot;g_t&quot;:6,&quot;coords&quot;:[[248.0, -911.0],[229.0, -916.5]],&quot;certainty&quot;:6]">
    <path clip-path="url(#pa84d1ecefe)" d="M 235.875687 266.467785 
C 237.563088 266.467785 239.181604 266.080936 240.374776 265.392436 
C 241.567948 264.703937 242.23836 263.770001 242.23836 262.796316 
C 242.23836 261.822631 241.567948 260.888694 240.374776 260.200195 
C 239.181604 259.511696 237.563088 259.124847 235.875687 259.124847 
C 234.188287 259.124847 232.56977 259.511696 231.376598 260.200195 
C 230.183426 260.888694 229.513014 261.822631 229.513014 262.796316 
C 229.513014 263.770001 230.183426 264.703937 231.376598 265.392436 
C 232.56977 266.080936 234.188287 266.467785 235.875687 266.467785 
z
" style="fill:#ff0000;opacity:0.2;stroke:#ff0000;stroke-linejoin:miter;stroke-width:2;"/>
   </g>
   <g id="patch_45">
    <path d="M 201.335464 268.565767 
Q 217.621061 265.84549 232.686131 263.329085 
" style="fill:none;opacity:0.5;stroke:#ff0000;stroke-linecap:round;stroke-width:1.75;"/>
    <path d="M 230.959499 262.096713 
L 232.686131 263.329085 
L 231.453759 265.055717 
" style="fill:none;opacity:0.5;stroke:#ff0000;stroke-linecap:round;stroke-width:1.75;"/>
   </g>
   <g id="[&quot;g_s&quot;:7,&quot;g_t&quot;:7,&quot;coords&quot;:[[175.0, -883.5],[148.0, -907.0]],&quot;certainty&quot;:12]">
    <path clip-path="url(#pa84d1ecefe)" d="M 103.168515 240.767502 
C 106.302259 240.767502 109.308074 240.049068 111.523966 238.770426 
C 113.739857 237.491785 114.984907 235.757332 114.984907 233.94906 
C 114.984907 232.140788 113.739857 230.406334 111.523966 229.127693 
C 109.308074 227.849051 106.302259 227.130617 103.168515 227.130617 
C 100.034771 227.130617 97.028955 227.849051 94.813064 229.127693 
C 92.597172 230.406334 91.352123 232.140788 91.352123 233.94906 
C 91.352123 235.757332 92.597172 237.491785 94.813064 238.770426 
C 97.028955 240.049068 100.034771 240.767502 103.168515 240.767502 
z
" style="fill:#0000ff;opacity:0.2;stroke:#0000ff;stroke-linejoin:miter;stroke-width:2;"/>
   </g>
   <g id="[&quot;g_s&quot;:7,&quot;g_t&quot;:7,&quot;coords&quot;:[[148.0, -907.0],[175.0, -883.5]],&quot;certainty&quot;:12]">
    <path clip-path="url(#pa84d1ecefe)" d="M 54.08504 265.418794 
C 57.218784 265.418794 60.2246 264.700359 62.440491 263.421718 
C 64.656383 262.143077 65.901432 260.408623 65.901432 258.600351 
C 65.901432 256.792079 64.656383 255.057626 62.440491 253.778984 
C 60.2246 252.500343 57.218784 251.781909 54.08504 251.781909 
C 50.951296 251.781909 47.945481 252.500343 45.729589 253.778984 
C 43.513698 255.057626 42.268648 256.792079 42.268648 258.600351 
C 42.268648 260.408623 43.513698 262.143077 45.729589 263.421718 
C 47.945481 264.700359 50.951296 265.418794 54.08504 265.418794 
z
" style="fill:#ff0000;opacity:0.2;stroke:#ff0000;stroke-linejoin:miter;stroke-width:2;"/>
   </g>
   <g id="patch_46">
    <path d="M 103.168515 233.94906 
Q 79.521029 245.825584 57.927187 256.670702 
" style="fill:none;opacity:0.5;stroke:#ff0000;stroke-linecap:round;stroke-width:3.25;"/>
    <path d="M 59.940842 257.337931 
L 57.927187 256.670702 
L 58.594416 254.657047 
" style="fill:none;opacity:0.5;stroke:#ff0000;stroke-linecap:round;stroke-width:3.25;"/>
   </g>
   <g id="[&quot;g_s&quot;:8,&quot;g_t&quot;:8,&quot;coords&quot;:[[198.0, -859.5],[180.0, -874.0]],&quot;certainty&quot;:6]">
    <path clip-path="url(#pa84d1ecefe)" d="M 144.980364 212.444741 
C 146.667764 212.444741 148.28628 212.057892 149.479453 211.369393 
C 150.672625 210.680894 151.343036 209.746957 151.343036 208.773272 
C 151.343036 207.799588 150.672625 206.865651 149.479453 206.177152 
C 148.28628 205.488653 146.667764 205.101803 144.980364 205.101803 
C 143.292963 205.101803 141.674447 205.488653 140.481275 206.177152 
C 139.288102 206.865651 138.617691 207.799588 138.617691 208.773272 
C 138.617691 209.746957 139.288102 210.680894 140.481275 211.369393 
C 141.674447 212.057892 143.292963 212.444741 144.980364 212.444741 
z
" style="fill:#0000ff;opacity:0.2;stroke:#0000ff;stroke-linejoin:miter;stroke-width:2;"/>
   </g>
   <g id="[&quot;g_s&quot;:8,&quot;g_t&quot;:8,&quot;coords&quot;:[[180.0, -874.0],[198.0, -859.5]],&quot;certainty&quot;:6]">
    <path clip-path="url(#pa84d1ecefe)" d="M 112.258047 227.655113 
C 113.945448 227.655113 115.563964 227.268264 116.757136 226.579764 
C 117.950309 225.891265 118.62072 224.957329 118.62072 223.983644 
C 118.62072 223.009959 117.950309 222.076022 116.757136 221.387523 
C 115.563964 220.699024 113.945448 220.312175 112.258047 220.312175 
C 110.570647 220.312175 108.952131 220.699024 107.758958 221.387523 
C 106.565786 222.076022 105.895375 223.009959 105.895375 223.983644 
C 105.895375 224.957329 106.565786 225.891265 107.758958 226.579764 
C 108.952131 227.268264 110.570647 227.655113 112.258047 227.655113 
z
" style="fill:#ff0000;opacity:0.2;stroke:#ff0000;stroke-linejoin:miter;stroke-width:2;"/>
   </g>
   <g id="patch_47">
    <path d="M 144.980364 208.773272 
Q 129.527937 215.956051 115.197642 222.617227 
" style="fill:none;opacity:0.5;stroke:#ff0000;stroke-linecap:round;stroke-width:1.75;"/>
    <path d="M 117.19015 223.345179 
L 115.197642 222.617227 
L 115.925594 220.624719 
" style="fill:none;opacity:0.5;stroke:#ff0000;stroke-linecap:round;stroke-width:1.75;"/>
   </g>
   <g id="[&quot;g_s&quot;:9,&quot;g_t&quot;:9,&quot;coords&quot;:[[247.0, -886.5],[248.0, -911.0]],&quot;certainty&quot;:6]">
    <path clip-path="url(#pa84d1ecefe)" d="M 234.057781 240.767502 
C 235.745181 240.767502 237.363697 240.380653 238.55687 239.692154 
C 239.750042 239.003654 240.420453 238.069718 240.420453 237.096033 
C 240.420453 236.122348 239.750042 235.188412 238.55687 234.499912 
C 237.363697 233.811413 235.745181 233.424564 234.057781 233.424564 
C 232.37038 233.424564 230.751864 233.811413 229.558692 234.499912 
C 228.365519 235.188412 227.695108 236.122348 227.695108 237.096033 
C 227.695108 238.069718 228.365519 239.003654 229.558692 239.692154 
C 230.751864 240.380653 232.37038 240.767502 234.057781 240.767502 
z
" style="fill:#0000ff;opacity:0.2;stroke:#0000ff;stroke-linejoin:miter;stroke-width:2;"/>
   </g>
   <g id="[&quot;g_s&quot;:9,&quot;g_t&quot;:9,&quot;coords&quot;:[[248.0, -911.0],[247.0, -886.5]],&quot;certainty&quot;:6]">
    <path clip-path="url(#pa84d1ecefe)" d="M 235.875687 266.467785 
C 237.563088 266.467785 239.181604 266.080936 240.374776 265.392436 
C 241.567948 264.703937 242.23836 263.770001 242.23836 262.796316 
C 242.23836 261.822631 241.567948 260.888694 240.374776 260.200195 
C 239.181604 259.511696 237.563088 259.124847 235.875687 259.124847 
C 234.188287 259.124847 232.56977 259.511696 231.376598 260.200195 
C 230.183426 260.888694 229.513014 261.822631 229.513014 262.796316 
C 229.513014 263.770001 230.183426 264.703937 231.376598 265.392436 
C 232.56977 266.080936 234.188287 266.467785 235.875687 266.467785 
z
" style="fill:#ff0000;opacity:0.2;stroke:#ff0000;stroke-linejoin:miter;stroke-width:2;"/>
   </g>
   <g id="patch_48">
    <path d="M 234.057781 237.096033 
Q 234.896277 248.9501 235.647461 259.569815 
" style="fill:none;opacity:0.5;stroke:#ff0000;stroke-linecap:round;stroke-width:1.75;"/>
    <path d="M 237.037884 257.967715 
L 235.647461 259.569815 
L 234.045362 258.179391 
" style="fill:none;opacity:0.5;stroke:#ff0000;stroke-linecap:round;stroke-width:1.75;"/>
   </g>
   <g id="[&quot;g_s&quot;:10,&quot;g_t&quot;:10,&quot;coords&quot;:[[272.0, -857.5],[274.0, -886.0]],&quot;certainty&quot;:11]">
    <path clip-path="url(#pa84d1ecefe)" d="M 279.505442 212.969237 
C 282.398129 212.969237 285.172728 212.306067 287.218166 211.125783 
C 289.263605 209.945498 290.412881 208.344464 290.412881 206.67529 
C 290.412881 205.006116 289.263605 203.405082 287.218166 202.224798 
C 285.172728 201.044513 282.398129 200.381343 279.505442 200.381343 
C 276.612756 200.381343 273.838157 201.044513 271.792718 202.224798 
C 269.74728 203.405082 268.598003 205.006116 268.598003 206.67529 
C 268.598003 208.344464 269.74728 209.945498 271.792718 211.125783 
C 273.838157 212.306067 276.612756 212.969237 279.505442 212.969237 
z
" style="fill:#0000ff;opacity:0.2;stroke:#0000ff;stroke-linejoin:miter;stroke-width:2;"/>
   </g>
   <g id="[&quot;g_s&quot;:10,&quot;g_t&quot;:10,&quot;coords&quot;:[[274.0, -886.0],[272.0, -857.5]],&quot;certainty&quot;:11]">
    <path clip-path="url(#pa84d1ecefe)" d="M 283.141255 242.865484 
C 286.033942 242.865484 288.808541 242.202314 290.853979 241.02203 
C 292.899417 239.841745 294.048694 238.240712 294.048694 236.571537 
C 294.048694 234.902363 292.899417 233.301329 290.853979 232.121045 
C 288.808541 230.940761 286.033942 230.277591 283.141255 230.277591 
C 280.248569 230.277591 277.47397 230.940761 275.428531 232.121045 
C 273.383093 233.301329 272.233816 234.902363 272.233816 236.571537 
C 272.233816 238.240712 273.383093 239.841745 275.428531 241.02203 
C 277.47397 242.202314 280.248569 242.865484 283.141255 242.865484 
z
" style="fill:#ff0000;opacity:0.2;stroke:#ff0000;stroke-linejoin:miter;stroke-width:2;"/>
   </g>
   <g id="patch_49">
    <path d="M 279.505442 206.67529 
Q 281.202407 220.62894 282.643275 232.476785 
" style="fill:none;opacity:0.5;stroke:#ff0000;stroke-linecap:round;stroke-width:3;"/>
    <path d="M 283.951216 230.806669 
L 282.643275 232.476785 
L 280.973158 231.168844 
" style="fill:none;opacity:0.5;stroke:#ff0000;stroke-linecap:round;stroke-width:3;"/>
   </g>
   <g id="[&quot;g_s&quot;:11,&quot;g_t&quot;:11,&quot;coords&quot;:[[214.0, -795.5],[198.0, -814.0]],&quot;certainty&quot;:3]">
    <path clip-path="url(#pa84d1ecefe)" d="M 174.066867 143.735822 
C 175.031096 143.735822 175.955962 143.514766 176.637775 143.121338 
C 177.319588 142.727909 177.70268 142.194231 177.70268 141.63784 
C 177.70268 141.081449 177.319588 140.547771 176.637775 140.154343 
C 175.955962 139.760914 175.031096 139.539858 174.066867 139.539858 
C 173.102638 139.539858 172.177772 139.760914 171.495959 140.154343 
C 170.814146 140.547771 170.431054 141.081449 170.431054 141.63784 
C 170.431054 142.194231 170.814146 142.727909 171.495959 143.121338 
C 172.177772 143.514766 173.102638 143.735822 174.066867 143.735822 
z
" style="fill:#0000ff;opacity:0.2;stroke:#0000ff;stroke-linejoin:miter;stroke-width:2;"/>
   </g>
   <g id="[&quot;g_s&quot;:11,&quot;g_t&quot;:11,&quot;coords&quot;:[[198.0, -814.0],[214.0, -795.5]],&quot;certainty&quot;:3]">
    <path clip-path="url(#pa84d1ecefe)" d="M 144.980364 163.142158 
C 145.944592 163.142158 146.869459 162.921102 147.551272 162.527673 
C 148.233084 162.134245 148.616177 161.600567 148.616177 161.044176 
C 148.616177 160.487785 148.233084 159.954107 147.551272 159.560679 
C 146.869459 159.16725 145.944592 158.946194 144.980364 158.946194 
C 144.016135 158.946194 143.091268 159.16725 142.409456 159.560679 
C 141.727643 159.954107 141.344551 160.487785 141.344551 161.044176 
C 141.344551 161.600567 141.727643 162.134245 142.409456 162.527673 
C 143.091268 162.921102 144.016135 163.142158 144.980364 163.142158 
z
" style="fill:#ff0000;opacity:0.2;stroke:#ff0000;stroke-linejoin:miter;stroke-width:2;"/>
   </g>
   <g id="patch_50">
    <path d="M 174.066867 141.63784 
Q 160.356231 150.785492 147.2338 159.540697 
" style="fill:none;opacity:0.5;stroke:#ff0000;stroke-linecap:round;"/>
    <path d="M 149.314077 159.955964 
L 147.2338 159.540697 
L 147.649066 157.46042 
" style="fill:none;opacity:0.5;stroke:#ff0000;stroke-linecap:round;"/>
   </g>
   <g id="[&quot;g_s&quot;:12,&quot;g_t&quot;:12,&quot;coords&quot;:[[214.0, -790.5],[195.0, -806.0]],&quot;certainty&quot;:9]">
    <path clip-path="url(#pa84d1ecefe)" d="M 174.066867 141.63784 
C 176.477439 141.63784 178.789605 141.085198 180.494137 140.101628 
C 182.198669 139.118058 183.156399 137.783863 183.156399 136.392884 
C 183.156399 135.001906 182.198669 133.667711 180.494137 132.684141 
C 178.789605 131.70057 176.477439 131.147929 174.066867 131.147929 
C 171.656295 131.147929 169.344129 131.70057 167.639597 132.684141 
C 165.935065 133.667711 164.977335 135.001906 164.977335 136.392884 
C 164.977335 137.783863 165.935065 139.118058 167.639597 140.101628 
C 169.344129 141.085198 171.656295 141.63784 174.066867 141.63784 
z
" style="fill:#0000ff;opacity:0.2;stroke:#0000ff;stroke-linejoin:miter;stroke-width:2;"/>
   </g>
   <g id="[&quot;g_s&quot;:12,&quot;g_t&quot;:12,&quot;coords&quot;:[[195.0, -806.0],[214.0, -790.5]],&quot;certainty&quot;:9]">
    <path clip-path="url(#pa84d1ecefe)" d="M 139.526644 157.897203 
C 141.937216 157.897203 144.249382 157.344561 145.953914 156.360991 
C 147.658446 155.37742 148.616177 154.043225 148.616177 152.652247 
C 148.616177 151.261268 147.658446 149.927074 145.953914 148.943503 
C 144.249382 147.959933 141.937216 147.407291 139.526644 147.407291 
C 137.116072 147.407291 134.803906 147.959933 133.099374 148.943503 
C 131.394842 149.927074 130.437112 151.261268 130.437112 152.652247 
C 130.437112 154.043225 131.394842 155.37742 133.099374 156.360991 
C 134.803906 157.344561 137.116072 157.897203 139.526644 157.897203 
z
" style="fill:#ff0000;opacity:0.2;stroke:#ff0000;stroke-linejoin:miter;stroke-width:2;"/>
   </g>
   <g id="patch_51">
    <path d="M 174.066867 136.392884 
Q 157.70116 144.096829 142.934869 151.047869 
" style="fill:none;opacity:0.5;stroke:#ff0000;stroke-linecap:round;stroke-width:2.5;"/>
    <path d="M 144.93088 151.766159 
L 142.934869 151.047869 
L 143.653159 149.051858 
" style="fill:none;opacity:0.5;stroke:#ff0000;stroke-linecap:round;stroke-width:2.5;"/>
   </g>
   <g id="patch_52">
    <path clip-path="url(#pa84d1ecefe)" d="M 279.505442 40.672444 
C 281.916014 40.672444 284.22818 40.119802 285.932712 39.136232 
C 287.637244 38.152661 288.594975 36.818467 288.594975 35.427488 
C 288.594975 34.03651 287.637244 32.702315 285.932712 31.718744 
C 284.22818 30.735174 281.916014 30.182532 279.505442 30.182532 
C 277.09487 30.182532 274.782704 30.735174 273.078172 31.718744 
C 271.37364 32.702315 270.41591 34.03651 270.41591 35.427488 
C 270.41591 36.818467 271.37364 38.152661 273.078172 39.136232 
C 274.782704 40.119802 277.09487 40.672444 279.505442 40.672444 
z
" style="fill:#008000;opacity:0.2;stroke:#008000;stroke-linejoin:miter;stroke-width:2;"/>
   </g>
   <g id="patch_53">
    <path clip-path="url(#pa84d1ecefe)" d="M 357.67542 40.672444 
C 360.085993 40.672444 362.398158 40.119802 364.10269 39.136232 
C 365.807222 38.152661 366.764953 36.818467 366.764953 35.427488 
C 366.764953 34.03651 365.807222 32.702315 364.10269 31.718744 
C 362.398158 30.735174 360.085993 30.182532 357.67542 30.182532 
C 355.264848 30.182532 352.952682 30.735174 351.24815 31.718744 
C 349.543619 32.702315 348.585888 34.03651 348.585888 35.427488 
C 348.585888 36.818467 349.543619 38.152661 351.24815 39.136232 
C 352.952682 40.119802 355.264848 40.672444 357.67542 40.672444 
z
" style="fill:#008000;opacity:0.2;stroke:#008000;stroke-linejoin:miter;stroke-width:2;"/>
   </g>
   <g id="patch_54">
    <path clip-path="url(#pa84d1ecefe)" d="M 290.412881 98.366956 
C 292.823453 98.366956 295.135619 97.814314 296.840151 96.830744 
C 298.544683 95.847174 299.502413 94.512979 299.502413 93.122 
C 299.502413 91.731022 298.544683 90.396827 296.840151 89.413257 
C 295.135619 88.429686 292.823453 87.877045 290.412881 87.877045 
C 288.002309 87.877045 285.690143 88.429686 283.985611 89.413257 
C 282.281079 90.396827 281.323349 91.731022 281.323349 93.122 
C 281.323349 94.512979 282.281079 95.847174 283.985611 96.830744 
C 285.690143 97.814314 288.002309 98.366956 290.412881 98.366956 
z
" style="fill:#008000;opacity:0.2;stroke:#008000;stroke-linejoin:miter;stroke-width:2;"/>
   </g>
   <g id="patch_55">
    <path clip-path="url(#pa84d1ecefe)" d="M 305.865086 120.920265 
C 308.275658 120.920265 310.587824 120.367624 312.292356 119.384053 
C 313.996888 118.400483 314.954618 117.066288 314.954618 115.67531 
C 314.954618 114.284331 313.996888 112.950136 312.292356 111.966566 
C 310.587824 110.982996 308.275658 110.430354 305.865086 110.430354 
C 303.454514 110.430354 301.142348 110.982996 299.437816 111.966566 
C 297.733284 112.950136 296.775554 114.284331 296.775554 115.67531 
C 296.775554 117.066288 297.733284 118.400483 299.437816 119.384053 
C 301.142348 120.367624 303.454514 120.920265 305.865086 120.920265 
z
" style="fill:#008000;opacity:0.2;stroke:#008000;stroke-linejoin:miter;stroke-width:2;"/>
   </g>
   <g id="patch_56">
    <path clip-path="url(#pa84d1ecefe)" d="M 400.396222 200.119096 
C 402.806795 200.119096 405.118961 199.566454 406.823492 198.582884 
C 408.528024 197.599313 409.485755 196.265118 409.485755 194.87414 
C 409.485755 193.483161 408.528024 192.148967 406.823492 191.165396 
C 405.118961 190.181826 402.806795 189.629184 400.396222 189.629184 
C 397.98565 189.629184 395.673484 190.181826 393.968953 191.165396 
C 392.264421 192.148967 391.30669 193.483161 391.30669 194.87414 
C 391.30669 196.265118 392.264421 197.599313 393.968953 198.582884 
C 395.673484 199.566454 397.98565 200.119096 400.396222 200.119096 
z
" style="fill:#008000;opacity:0.2;stroke:#008000;stroke-linejoin:miter;stroke-width:2;"/>
   </g>
   <g id="patch_57">
    <path clip-path="url(#pa84d1ecefe)" d="M 78.626778 251.519661 
C 81.03735 251.519661 83.349516 250.967019 85.054047 249.983449 
C 86.758579 248.999879 87.71631 247.665684 87.71631 246.274705 
C 87.71631 244.883727 86.758579 243.549532 85.054047 242.565962 
C 83.349516 241.582391 81.03735 241.02975 78.626778 241.02975 
C 76.216205 241.02975 73.904039 241.582391 72.199508 242.565962 
C 70.494976 243.549532 69.537245 244.883727 69.537245 246.274705 
C 69.537245 247.665684 70.494976 248.999879 72.199508 249.983449 
C 73.904039 250.967019 76.216205 251.519661 78.626778 251.519661 
z
" style="fill:#008000;opacity:0.2;stroke:#008000;stroke-linejoin:miter;stroke-width:2;"/>
   </g>
   <g id="patch_58">
    <path clip-path="url(#pa84d1ecefe)" d="M 128.619205 221.623414 
C 131.029778 221.623414 133.341943 221.070772 135.046475 220.087202 
C 136.751007 219.103632 137.708738 217.769437 137.708738 216.378458 
C 137.708738 214.98748 136.751007 213.653285 135.046475 212.669714 
C 133.341943 211.686144 131.029778 211.133502 128.619205 211.133502 
C 126.208633 211.133502 123.896467 211.686144 122.191935 212.669714 
C 120.487404 213.653285 119.529673 214.98748 119.529673 216.378458 
C 119.529673 217.769437 120.487404 219.103632 122.191935 220.087202 
C 123.896467 221.070772 126.208633 221.623414 128.619205 221.623414 
z
" style="fill:#008000;opacity:0.2;stroke:#008000;stroke-linejoin:miter;stroke-width:2;"/>
   </g>
   <g id="patch_59">
    <path clip-path="url(#pa84d1ecefe)" d="M 218.605576 270.925997 
C 221.016148 270.925997 223.328314 270.373355 225.032846 269.389785 
C 226.737377 268.406215 227.695108 267.07202 227.695108 265.681041 
C 227.695108 264.290063 226.737377 262.955868 225.032846 261.972298 
C 223.328314 260.988727 221.016148 260.436086 218.605576 260.436086 
C 216.195003 260.436086 213.882838 260.988727 212.178306 261.972298 
C 210.473774 262.955868 209.516043 264.290063 209.516043 265.681041 
C 209.516043 267.07202 210.473774 268.406215 212.178306 269.389785 
C 213.882838 270.373355 216.195003 270.925997 218.605576 270.925997 
z
" style="fill:#008000;opacity:0.2;stroke:#008000;stroke-linejoin:miter;stroke-width:2;"/>
   </g>
   <g id="patch_60">
    <path clip-path="url(#pa84d1ecefe)" d="M 281.323349 226.868369 
C 283.733921 226.868369 286.046087 226.315728 287.750619 225.332158 
C 289.455151 224.348587 290.412881 223.014392 290.412881 221.623414 
C 290.412881 220.232435 289.455151 218.89824 287.750619 217.91467 
C 286.046087 216.9311 283.733921 216.378458 281.323349 216.378458 
C 278.912777 216.378458 276.600611 216.9311 274.896079 217.91467 
C 273.191547 218.89824 272.233816 220.232435 272.233816 221.623414 
C 272.233816 223.014392 273.191547 224.348587 274.896079 225.332158 
C 276.600611 226.315728 278.912777 226.868369 281.323349 226.868369 
z
" style="fill:#008000;opacity:0.2;stroke:#008000;stroke-linejoin:miter;stroke-width:2;"/>
   </g>
   <g id="patch_61">
    <path clip-path="url(#pa84d1ecefe)" d="M 159.523615 156.585964 
C 161.934188 156.585964 164.246353 156.033322 165.950885 155.049752 
C 167.655417 154.066181 168.613148 152.731987 168.613148 151.341008 
C 168.613148 149.95003 167.655417 148.615835 165.950885 147.632264 
C 164.246353 146.648694 161.934188 146.096052 159.523615 146.096052 
C 157.113043 146.096052 154.800877 146.648694 153.096345 147.632264 
C 151.391814 148.615835 150.434083 149.95003 150.434083 151.341008 
C 150.434083 152.731987 151.391814 154.066181 153.096345 155.049752 
C 154.800877 156.033322 157.113043 156.585964 159.523615 156.585964 
z
" style="fill:#008000;opacity:0.2;stroke:#008000;stroke-linejoin:miter;stroke-width:2;"/>
   </g>
   <g id="patch_62">
    <path clip-path="url(#pa84d1ecefe)" d="M 156.796756 149.767521 
C 159.207328 149.767521 161.519494 149.21488 163.224026 148.231309 
C 164.928558 147.247739 165.886288 145.913544 165.886288 144.522566 
C 165.886288 143.131587 164.928558 141.797392 163.224026 140.813822 
C 161.519494 139.830252 159.207328 139.27761 156.796756 139.27761 
C 154.386184 139.27761 152.074018 139.830252 150.369486 140.813822 
C 148.664954 141.797392 147.707223 143.131587 147.707223 144.522566 
C 147.707223 145.913544 148.664954 147.247739 150.369486 148.231309 
C 152.074018 149.21488 154.386184 149.767521 156.796756 149.767521 
z
" style="fill:#008000;opacity:0.2;stroke:#008000;stroke-linejoin:miter;stroke-width:2;"/>
   </g>
   <g id="patch_63">
    <path clip-path="url(#pa84d1ecefe)" d="M 270.41591 62.43901 
C 280.058199 62.43901 289.306862 60.228443 296.12499 56.294162 
C 302.943117 52.359881 306.774039 47.023101 306.774039 41.459187 
C 306.774039 35.895273 302.943117 30.558494 296.12499 26.624212 
C 289.306862 22.689931 280.058199 20.479364 270.41591 20.479364 
C 260.773621 20.479364 251.524958 22.689931 244.70683 26.624212 
C 237.888702 30.558494 234.057781 35.895273 234.057781 41.459187 
C 234.057781 47.023101 237.888702 52.359881 244.70683 56.294162 
C 251.524958 60.228443 260.773621 62.43901 270.41591 62.43901 
z
" style="fill:none;opacity:0.2;stroke:#ff0000;stroke-linejoin:miter;stroke-width:2;"/>
   </g>
   <g id="patch_64">
    <path clip-path="url(#pa84d1ecefe)" d="M 288.594975 50.375612 
C 298.237263 50.375612 307.485927 48.165045 314.304054 44.230764 
C 321.122182 40.296483 324.953104 34.959703 324.953104 29.395789 
C 324.953104 23.831875 321.122182 18.495096 314.304054 14.560814 
C 307.485927 10.626533 298.237263 8.415966 288.594975 8.415966 
C 278.952686 8.415966 269.704022 10.626533 262.885895 14.560814 
C 256.067767 18.495096 252.236845 23.831875 252.236845 29.395789 
C 252.236845 34.959703 256.067767 40.296483 262.885895 44.230764 
C 269.704022 48.165045 278.952686 50.375612 288.594975 50.375612 
z
" style="fill:none;opacity:0.2;stroke:#0000ff;stroke-linejoin:miter;stroke-width:2;"/>
   </g>
   <g id="patch_65">
    <path clip-path="url(#pa84d1ecefe)" d="M 270.41591 51.949098 
C 275.237054 51.949098 279.861386 50.843815 283.27045 48.876675 
C 286.679514 46.909534 288.594975 44.241144 288.594975 41.459187 
C 288.594975 38.67723 286.679514 36.00884 283.27045 34.0417 
C 279.861386 32.074559 275.237054 30.969276 270.41591 30.969276 
C 265.594766 30.969276 260.970434 32.074559 257.56137 34.0417 
C 254.152306 36.00884 252.236845 38.67723 252.236845 41.459187 
C 252.236845 44.241144 254.152306 46.909534 257.56137 48.876675 
C 260.970434 50.843815 265.594766 51.949098 270.41591 51.949098 
z
" style="fill:none;opacity:0.2;stroke:#008000;stroke-linejoin:miter;stroke-width:2;"/>
   </g>
   <g id="patch_66">
    <path clip-path="url(#pa84d1ecefe)" d="M 288.594975 39.8857 
C 293.416119 39.8857 298.040451 38.780417 301.449515 36.813276 
C 304.858578 34.846136 306.774039 32.177746 306.774039 29.395789 
C 306.774039 26.613832 304.858578 23.945442 301.449515 21.978302 
C 298.040451 20.011161 293.416119 18.905878 288.594975 18.905878 
C 283.77383 18.905878 279.149499 20.011161 275.740435 21.978302 
C 272.331371 23.945442 270.41591 26.613832 270.41591 29.395789 
C 270.41591 32.177746 272.331371 34.846136 275.740435 36.813276 
C 279.149499 38.780417 283.77383 39.8857 288.594975 39.8857 
z
" style="fill:none;opacity:0.2;stroke:#008000;stroke-linejoin:miter;stroke-width:2;"/>
   </g>
   <g id="patch_67">
    <path d="M 279.505442 35.427488 
Q 318.590431 35.427488 357.67542 35.427488 
" style="fill:none;opacity:0.5;stroke:#008000;stroke-linecap:round;stroke-width:2;"/>
   </g>
   <g id="patch_68">
    <path d="M 271.594279 40.677236 
Q 278.672161 35.980443 285.750044 31.283649 
" style="fill:none;opacity:0.5;stroke:#800080;stroke-linecap:round;stroke-width:2;"/>
    <path d="M 273.673512 41.097701 
L 271.594279 40.677236 
L 272.014744 38.598004 
" style="fill:none;opacity:0.5;stroke:#800080;stroke-linecap:round;stroke-width:2;"/>
    <path d="M 283.670811 30.863184 
L 285.750044 31.283649 
L 285.329579 33.362882 
" style="fill:none;opacity:0.5;stroke:#800080;stroke-linecap:round;stroke-width:2;"/>
   </g>
   <g id="patch_69">
    <path d="M 357.67542 35.427488 
Q 324.044151 64.274744 290.412881 93.122 
" style="fill:none;opacity:0.5;stroke:#008000;stroke-linecap:round;stroke-width:2;"/>
   </g>
   <g id="patch_70">
    <path d="M 365.586584 40.677236 
Q 358.508702 35.980443 351.430819 31.283649 
" style="fill:none;opacity:0.5;stroke:#800080;stroke-linecap:round;stroke-width:2;"/>
    <path d="M 365.166119 38.598004 
L 365.586584 40.677236 
L 363.507351 41.097701 
" style="fill:none;opacity:0.5;stroke:#800080;stroke-linecap:round;stroke-width:2;"/>
    <path d="M 351.851284 33.362882 
L 351.430819 31.283649 
L 353.510052 30.863184 
" style="fill:none;opacity:0.5;stroke:#800080;stroke-linecap:round;stroke-width:2;"/>
   </g>
   <g id="patch_71">
    <path d="M 290.412881 93.122 
Q 298.138984 104.398655 305.865086 115.67531 
" style="fill:none;opacity:0.5;stroke:#008000;stroke-linecap:round;stroke-width:2;"/>
   </g>
   <g id="patch_72">
    <path d="M 296.369957 95.485231 
Q 291.341363 93.490338 286.312769 91.495445 
" style="fill:none;opacity:0.5;stroke:#800080;stroke-linecap:round;stroke-width:2;"/>
    <path d="M 295.528794 93.53781 
L 296.369957 95.485231 
L 294.422536 96.326393 
" style="fill:none;opacity:0.5;stroke:#800080;stroke-linecap:round;stroke-width:2;"/>
    <path d="M 287.153931 93.442866 
L 286.312769 91.495445 
L 288.260189 90.654283 
" style="fill:none;opacity:0.5;stroke:#800080;stroke-linecap:round;stroke-width:2;"/>
   </g>
   <g id="patch_73">
    <path d="M 305.865086 115.67531 
Q 353.130654 155.274725 400.396222 194.87414 
" style="fill:none;opacity:0.5;stroke:#008000;stroke-linecap:round;stroke-width:2;"/>
   </g>
   <g id="patch_74">
    <path d="M 312.686875 117.643507 
Q 306.825745 115.952475 300.964615 114.261444 
" style="fill:none;opacity:0.5;stroke:#800080;stroke-linecap:round;stroke-width:2;"/>
    <path d="M 311.661475 115.786478 
L 312.686875 117.643507 
L 310.829847 118.668907 
" style="fill:none;opacity:0.5;stroke:#800080;stroke-linecap:round;stroke-width:2;"/>
    <path d="M 301.990015 116.118472 
L 300.964615 114.261444 
L 302.821643 113.236043 
" style="fill:none;opacity:0.5;stroke:#800080;stroke-linecap:round;stroke-width:2;"/>
   </g>
   <g id="patch_75">
    <path d="M 400.396222 194.87414 
Q 299.047937 240.767502 197.699651 286.660864 
" style="fill:none;opacity:0.5;stroke:#008000;stroke-linecap:round;stroke-width:2;"/>
   </g>
   <g id="patch_76">
    <path d="M 423.674179 206.565075 
Q 401.290474 195.323262 378.906769 184.081449 
" style="fill:none;opacity:0.5;stroke:#800080;stroke-linecap:round;stroke-width:2;"/>
    <path d="M 423.00695 204.55142 
L 423.674179 206.565075 
L 421.660524 207.232304 
" style="fill:none;opacity:0.5;stroke:#800080;stroke-linecap:round;stroke-width:2;"/>
    <path d="M 379.573998 186.095104 
L 378.906769 184.081449 
L 380.920424 183.41422 
" style="fill:none;opacity:0.5;stroke:#800080;stroke-linecap:round;stroke-width:2;"/>
   </g>
   <g id="patch_77">
    <path d="M 197.699651 286.660864 
Q 138.163214 266.467785 78.626778 246.274705 
" style="fill:none;opacity:0.5;stroke:#008000;stroke-linecap:round;stroke-width:2;"/>
   </g>
   <g id="patch_78">
    <path d="M 194.342426 303.369458 
Q 197.503037 287.639395 200.663648 271.909332 
" style="fill:none;opacity:0.5;stroke:#800080;stroke-linecap:round;stroke-width:2;"/>
    <path d="M 196.10852 302.194337 
L 194.342426 303.369458 
L 193.167304 301.603364 
" style="fill:none;opacity:0.5;stroke:#800080;stroke-linecap:round;stroke-width:2;"/>
    <path d="M 198.897554 273.084453 
L 200.663648 271.909332 
L 201.83877 273.675426 
" style="fill:none;opacity:0.5;stroke:#800080;stroke-linecap:round;stroke-width:2;"/>
   </g>
   <g id="patch_79">
    <path d="M 78.626778 246.274705 
Q 103.622991 231.326582 128.619205 216.378458 
" style="fill:none;opacity:0.5;stroke:#008000;stroke-linecap:round;stroke-width:2;"/>
   </g>
   <g id="patch_80">
    <path d="M 55.348821 257.96564 
Q 77.732526 246.723827 100.116231 235.482014 
" style="fill:none;opacity:0.5;stroke:#800080;stroke-linecap:round;stroke-width:2;"/>
    <path d="M 57.362476 258.632869 
L 55.348821 257.96564 
L 56.01605 255.951985 
" style="fill:none;opacity:0.5;stroke:#800080;stroke-linecap:round;stroke-width:2;"/>
    <path d="M 98.102576 234.814785 
L 100.116231 235.482014 
L 99.449002 237.495669 
" style="fill:none;opacity:0.5;stroke:#800080;stroke-linecap:round;stroke-width:2;"/>
   </g>
   <g id="patch_81">
    <path d="M 128.619205 216.378458 
Q 173.612391 241.02975 218.605576 265.681041 
" style="fill:none;opacity:0.5;stroke:#008000;stroke-linecap:round;stroke-width:2;"/>
   </g>
   <g id="patch_82">
    <path d="M 113.540484 223.387527 
Q 127.710474 216.800865 141.880464 210.214204 
" style="fill:none;opacity:0.5;stroke:#800080;stroke-linecap:round;stroke-width:2;"/>
    <path d="M 115.532992 224.115478 
L 113.540484 223.387527 
L 114.268436 221.395019 
" style="fill:none;opacity:0.5;stroke:#800080;stroke-linecap:round;stroke-width:2;"/>
    <path d="M 139.887957 209.486252 
L 141.880464 210.214204 
L 141.152512 212.206712 
" style="fill:none;opacity:0.5;stroke:#800080;stroke-linecap:round;stroke-width:2;"/>
   </g>
   <g id="patch_83">
    <path d="M 218.605576 265.681041 
Q 249.964462 243.652228 281.323349 221.623414 
" style="fill:none;opacity:0.5;stroke:#008000;stroke-linecap:round;stroke-width:2;"/>
   </g>
   <g id="patch_84">
    <path d="M 234.480799 263.029312 
Q 219.59009 265.516592 204.699381 268.003873 
" style="fill:none;opacity:0.5;stroke:#800080;stroke-linecap:round;stroke-width:2;"/>
    <path d="M 232.754167 261.796939 
L 234.480799 263.029312 
L 233.248426 264.755944 
" style="fill:none;opacity:0.5;stroke:#800080;stroke-linecap:round;stroke-width:2;"/>
    <path d="M 206.426013 269.236245 
L 204.699381 268.003873 
L 205.931754 266.277241 
" style="fill:none;opacity:0.5;stroke:#800080;stroke-linecap:round;stroke-width:2;"/>
   </g>
   <g id="patch_85">
    <path d="M 281.323349 221.623414 
Q 220.423482 186.482211 159.523615 151.341008 
" style="fill:none;opacity:0.5;stroke:#008000;stroke-linecap:round;stroke-width:2;"/>
   </g>
   <g id="patch_86">
    <path d="M 282.970524 235.167667 
Q 281.444291 222.617887 279.918058 210.068107 
" style="fill:none;opacity:0.5;stroke:#800080;stroke-linecap:round;stroke-width:2;"/>
    <path d="M 284.278466 233.497551 
L 282.970524 235.167667 
L 281.300408 233.859726 
" style="fill:none;opacity:0.5;stroke:#800080;stroke-linecap:round;stroke-width:2;"/>
    <path d="M 278.610116 211.738224 
L 279.918058 210.068107 
L 281.588174 211.376049 
" style="fill:none;opacity:0.5;stroke:#800080;stroke-linecap:round;stroke-width:2;"/>
   </g>
   <g id="patch_87">
    <path d="M 159.523615 151.341008 
Q 158.160186 147.931787 156.796756 144.522566 
" style="fill:none;opacity:0.5;stroke:#008000;stroke-linecap:round;stroke-width:2;"/>
   </g>
   <g id="patch_88">
    <path d="M 146.156774 160.259282 
Q 158.691 151.896524 171.225226 143.533766 
" style="fill:none;opacity:0.5;stroke:#800080;stroke-linecap:round;stroke-width:2;"/>
    <path d="M 148.237052 160.674548 
L 146.156774 160.259282 
L 146.57204 158.179005 
" style="fill:none;opacity:0.5;stroke:#800080;stroke-linecap:round;stroke-width:2;"/>
    <path d="M 169.144949 143.118499 
L 171.225226 143.533766 
L 170.80996 145.614043 
" style="fill:none;opacity:0.5;stroke:#800080;stroke-linecap:round;stroke-width:2;"/>
   </g>
   <g id="patch_89">
    <path d="M 156.796756 144.522566 
Q 218.151099 89.975027 279.505442 35.427488 
" style="fill:none;opacity:0.5;stroke:#008000;stroke-linecap:round;stroke-width:2;"/>
   </g>
   <g id="patch_90">
    <path d="M 140.806178 152.049923 
Q 155.892352 144.948302 170.978526 137.846681 
" style="fill:none;opacity:0.5;stroke:#800080;stroke-linecap:round;stroke-width:2;"/>
    <path d="M 142.802189 152.768212 
L 140.806178 152.049923 
L 141.524467 150.053912 
" style="fill:none;opacity:0.5;stroke:#800080;stroke-linecap:round;stroke-width:2;"/>
    <path d="M 168.982514 137.128392 
L 170.978526 137.846681 
L 170.260236 139.842692 
" style="fill:none;opacity:0.5;stroke:#800080;stroke-linecap:round;stroke-width:2;"/>
   </g>
   <g id="line2d_1">
    <path clip-path="url(#pa84d1ecefe)" d="M 270.41591 41.459187 
L 366.764953 41.459187 
L 297.684507 96.006726 
L 314.045665 118.03554 
L 424.93796 207.199786 
L 194.063838 304.755961 
L 54.08504 258.600351 
L 112.258047 223.983644 
L 235.875687 262.796316 
L 283.141255 236.571537 
L 144.980364 161.044176 
L 139.526644 152.652247 
" style="fill:none;stroke:#ff0000;stroke-linecap:square;stroke-width:0.2;"/>
   </g>
   <g id="line2d_2">
    <path clip-path="url(#pa84d1ecefe)" d="M 288.594975 29.395789 
L 348.585888 29.395789 
L 283.141255 90.237275 
L 297.684507 113.31508 
L 375.854485 182.548494 
L 201.335464 268.565767 
L 103.168515 233.94906 
L 144.980364 208.773272 
L 234.057781 237.096033 
L 279.505442 206.67529 
L 174.066867 141.63784 
L 174.066867 136.392884 
" style="fill:none;stroke:#0000ff;stroke-linecap:square;stroke-width:0.2;"/>
   </g>
  </g>
 </g>
 <defs>
  <clipPath id="pa84d1ecefe">
   <rect height="307.51175" width="415.937" x="31.543" y="13.32"/>
  </clipPath>
 </defs>
</svg>
