<?xml version="1.0" encoding="utf-8" standalone="no"?>
<!DOCTYPE svg PUBLIC "-//W3C//DTD SVG 1.1//EN"
  "http://www.w3.org/Graphics/SVG/1.1/DTD/svg11.dtd">
<!-- Created with matplotlib (http://matplotlib.org/) -->
<svg height="345.6pt" version="1.1" viewBox="0 0 460.8 345.6" width="460.8pt" xmlns="http://www.w3.org/2000/svg" xmlns:xlink="http://www.w3.org/1999/xlink">
 <defs>
  <style type="text/css">
*{stroke-linecap:butt;stroke-linejoin:round;}
  </style>
 </defs>
 <g id="figure_1">
  <g id="patch_1">
   <path d="M 0 345.6 
L 460.8 345.6 
L 460.8 0 
L 0 0 
z
" style="fill:#ffffff;"/>
  </g>
  <g id="axes_1">
   <g id="patch_2">
    <path clip-path="url(#p7a931e5ee6)" d="M 272.984313 48.881185 
C 273.934556 48.881185 274.846006 48.664598 275.517929 48.279125 
C 276.189852 47.893653 276.567387 47.370766 276.567387 46.825625 
C 276.567387 46.280484 276.189852 45.757598 275.517929 45.372125 
C 274.846006 44.986652 273.934556 44.770065 272.984313 44.770065 
C 272.034071 44.770065 271.122621 44.986652 270.450698 45.372125 
C 269.778775 45.757598 269.40124 46.280484 269.40124 46.825625 
C 269.40124 47.370766 269.778775 47.893653 270.450698 48.279125 
C 271.122621 48.664598 272.034071 48.881185 272.984313 48.881185 
z
" style="fill:#ff0000;opacity:0.2;stroke:#ff0000;stroke-linejoin:miter;stroke-width:2;"/>
   </g>
   <g id="patch_3">
    <path clip-path="url(#p7a931e5ee6)" d="M 367.935765 48.881185 
C 368.886007 48.881185 369.797458 48.664598 370.469381 48.279125 
C 371.141303 47.893653 371.518839 47.370766 371.518839 46.825625 
C 371.518839 46.280484 371.141303 45.757598 370.469381 45.372125 
C 369.797458 44.986652 368.886007 44.770065 367.935765 44.770065 
C 366.985523 44.770065 366.074072 44.986652 365.402149 45.372125 
C 364.730227 45.757598 364.352691 46.280484 364.352691 46.825625 
C 364.352691 47.370766 364.730227 47.893653 365.402149 48.279125 
C 366.074072 48.664598 366.985523 48.881185 367.935765 48.881185 
z
" style="fill:#ff0000;opacity:0.2;stroke:#ff0000;stroke-linejoin:miter;stroke-width:2;"/>
   </g>
   <g id="patch_4">
    <path clip-path="url(#p7a931e5ee6)" d="M 299.857366 102.32574 
C 300.807608 102.32574 301.719059 102.109154 302.390981 101.723681 
C 303.062904 101.338208 303.440439 100.815321 303.440439 100.270181 
C 303.440439 99.72504 303.062904 99.202153 302.390981 98.81668 
C 301.719059 98.431208 300.807608 98.214621 299.857366 98.214621 
C 298.907124 98.214621 297.995673 98.431208 297.32375 98.81668 
C 296.651827 99.202153 296.274292 99.72504 296.274292 100.270181 
C 296.274292 100.815321 296.651827 101.338208 297.32375 101.723681 
C 297.995673 102.109154 298.907124 102.32574 299.857366 102.32574 
z
" style="fill:#ff0000;opacity:0.2;stroke:#ff0000;stroke-linejoin:miter;stroke-width:2;"/>
   </g>
   <g id="patch_5">
    <path clip-path="url(#p7a931e5ee6)" d="M 315.981197 123.909119 
C 316.931439 123.909119 317.84289 123.692532 318.514813 123.307059 
C 319.186736 122.921586 319.564271 122.3987 319.564271 121.853559 
C 319.564271 121.308418 319.186736 120.785531 318.514813 120.400059 
C 317.84289 120.014586 316.931439 119.797999 315.981197 119.797999 
C 315.030955 119.797999 314.119504 120.014586 313.447582 120.400059 
C 312.775659 120.785531 312.398124 121.308418 312.398124 121.853559 
C 312.398124 122.3987 312.775659 122.921586 313.447582 123.307059 
C 314.119504 123.692532 315.030955 123.909119 315.981197 123.909119 
z
" style="fill:#ff0000;opacity:0.2;stroke:#ff0000;stroke-linejoin:miter;stroke-width:2;"/>
   </g>
   <g id="patch_6">
    <path clip-path="url(#p7a931e5ee6)" d="M 425.264943 211.270411 
C 426.215186 211.270411 427.126636 211.053825 427.798559 210.668352 
C 428.470482 210.282879 428.848017 209.759992 428.848017 209.214851 
C 428.848017 208.669711 428.470482 208.146824 427.798559 207.761351 
C 427.126636 207.375878 426.215186 207.159292 425.264943 207.159292 
C 424.314701 207.159292 423.40325 207.375878 422.731328 207.761351 
C 422.059405 208.146824 421.68187 208.669711 421.68187 209.214851 
C 421.68187 209.759992 422.059405 210.282879 422.731328 210.668352 
C 423.40325 211.053825 424.314701 211.270411 425.264943 211.270411 
z
" style="fill:#ff0000;opacity:0.2;stroke:#ff0000;stroke-linejoin:miter;stroke-width:2;"/>
   </g>
   <g id="patch_7">
    <path clip-path="url(#p7a931e5ee6)" d="M 197.739767 306.853943 
C 198.690009 306.853943 199.60146 306.637356 200.273383 306.251884 
C 200.945305 305.866411 201.322841 305.343524 201.322841 304.798383 
C 201.322841 304.253243 200.945305 303.730356 200.273383 303.344883 
C 199.60146 302.95941 198.690009 302.742824 197.739767 302.742824 
C 196.789525 302.742824 195.878074 302.95941 195.206151 303.344883 
C 194.534229 303.730356 194.156693 304.253243 194.156693 304.798383 
C 194.156693 305.343524 194.534229 305.866411 195.206151 306.251884 
C 195.878074 306.637356 196.789525 306.853943 197.739767 306.853943 
z
" style="fill:#ff0000;opacity:0.2;stroke:#ff0000;stroke-linejoin:miter;stroke-width:2;"/>
   </g>
   <g id="patch_8">
    <path clip-path="url(#p7a931e5ee6)" d="M 59.791432 261.631627 
C 60.741674 261.631627 61.653125 261.41504 62.325047 261.029567 
C 62.99697 260.644095 63.374505 260.121208 63.374505 259.576067 
C 63.374505 259.030926 62.99697 258.50804 62.325047 258.122567 
C 61.653125 257.737094 60.741674 257.520507 59.791432 257.520507 
C 58.841189 257.520507 57.929739 257.737094 57.257816 258.122567 
C 56.585893 258.50804 56.208358 259.030926 56.208358 259.576067 
C 56.208358 260.121208 56.585893 260.644095 57.257816 261.029567 
C 57.929739 261.41504 58.841189 261.631627 59.791432 261.631627 
z
" style="fill:#ff0000;opacity:0.2;stroke:#ff0000;stroke-linejoin:miter;stroke-width:2;"/>
   </g>
   <g id="patch_9">
    <path clip-path="url(#p7a931e5ee6)" d="M 117.12061 227.71489 
C 118.070852 227.71489 118.982303 227.498303 119.654226 227.11283 
C 120.326148 226.727358 120.703684 226.204471 120.703684 225.65933 
C 120.703684 225.114189 120.326148 224.591303 119.654226 224.20583 
C 118.982303 223.820357 118.070852 223.60377 117.12061 223.60377 
C 116.170368 223.60377 115.258917 223.820357 114.586994 224.20583 
C 113.915072 224.591303 113.537536 225.114189 113.537536 225.65933 
C 113.537536 226.204471 113.915072 226.727358 114.586994 227.11283 
C 115.258917 227.498303 116.170368 227.71489 117.12061 227.71489 
z
" style="fill:#ff0000;opacity:0.2;stroke:#ff0000;stroke-linejoin:miter;stroke-width:2;"/>
   </g>
   <g id="patch_10">
    <path clip-path="url(#p7a931e5ee6)" d="M 238.945114 265.742747 
C 239.895356 265.742747 240.806807 265.52616 241.47873 265.140687 
C 242.150652 264.755214 242.528188 264.232328 242.528188 263.687187 
C 242.528188 263.142046 242.150652 262.619159 241.47873 262.233687 
C 240.806807 261.848214 239.895356 261.631627 238.945114 261.631627 
C 237.994872 261.631627 237.083421 261.848214 236.411498 262.233687 
C 235.739575 262.619159 235.36204 263.142046 235.36204 263.687187 
C 235.36204 264.232328 235.739575 264.755214 236.411498 265.140687 
C 237.083421 265.52616 237.994872 265.742747 238.945114 265.742747 
z
" style="fill:#ff0000;opacity:0.2;stroke:#ff0000;stroke-linejoin:miter;stroke-width:2;"/>
   </g>
   <g id="patch_11">
    <path clip-path="url(#p7a931e5ee6)" d="M 285.525071 240.048249 
C 286.475313 240.048249 287.386764 239.831662 288.058687 239.446189 
C 288.73061 239.060717 289.108145 238.53783 289.108145 237.992689 
C 289.108145 237.447548 288.73061 236.924661 288.058687 236.539189 
C 287.386764 236.153716 286.475313 235.937129 285.525071 235.937129 
C 284.574829 235.937129 283.663378 236.153716 282.991456 236.539189 
C 282.319533 236.924661 281.941998 237.447548 281.941998 237.992689 
C 281.941998 238.53783 282.319533 239.060717 282.991456 239.446189 
C 283.663378 239.831662 284.574829 240.048249 285.525071 240.048249 
z
" style="fill:#ff0000;opacity:0.2;stroke:#ff0000;stroke-linejoin:miter;stroke-width:2;"/>
   </g>
   <g id="patch_12">
    <path clip-path="url(#p7a931e5ee6)" d="M 149.368273 166.048095 
C 150.318515 166.048095 151.229966 165.831508 151.901888 165.446036 
C 152.573811 165.060563 152.951346 164.537676 152.951346 163.992535 
C 152.951346 163.447394 152.573811 162.924508 151.901888 162.539035 
C 151.229966 162.153562 150.318515 161.936975 149.368273 161.936975 
C 148.41803 161.936975 147.50658 162.153562 146.834657 162.539035 
C 146.162734 162.924508 145.785199 163.447394 145.785199 163.992535 
C 145.785199 164.537676 146.162734 165.060563 146.834657 165.446036 
C 147.50658 165.831508 148.41803 166.048095 149.368273 166.048095 
z
" style="fill:#ff0000;opacity:0.2;stroke:#ff0000;stroke-linejoin:miter;stroke-width:2;"/>
   </g>
   <g id="patch_13">
    <path clip-path="url(#p7a931e5ee6)" d="M 143.993662 157.825856 
C 144.943904 157.825856 145.855355 157.609269 146.527278 157.223796 
C 147.199201 156.838323 147.576736 156.315437 147.576736 155.770296 
C 147.576736 155.225155 147.199201 154.702268 146.527278 154.316796 
C 145.855355 153.931323 144.943904 153.714736 143.993662 153.714736 
C 143.04342 153.714736 142.131969 153.931323 141.460047 154.316796 
C 140.788124 154.702268 140.410589 155.225155 140.410589 155.770296 
C 140.410589 156.315437 140.788124 156.838323 141.460047 157.223796 
C 142.131969 157.609269 143.04342 157.825856 143.993662 157.825856 
z
" style="fill:#ff0000;opacity:0.2;stroke:#ff0000;stroke-linejoin:miter;stroke-width:2;"/>
   </g>
   <g id="patch_14">
    <path clip-path="url(#p7a931e5ee6)" d="M 288.212376 31.408926 
C 289.162619 31.408926 290.074069 31.19234 290.745992 30.806867 
C 291.417915 30.421394 291.79545 29.898507 291.79545 29.353367 
C 291.79545 28.808226 291.417915 28.285339 290.745992 27.899866 
C 290.074069 27.514394 289.162619 27.297807 288.212376 27.297807 
C 287.262134 27.297807 286.350684 27.514394 285.678761 27.899866 
C 285.006838 28.285339 284.629303 28.808226 284.629303 29.353367 
C 284.629303 29.898507 285.006838 30.421394 285.678761 30.806867 
C 286.350684 31.19234 287.262134 31.408926 288.212376 31.408926 
z
" style="fill:#0000ff;opacity:0.2;stroke:#0000ff;stroke-linejoin:miter;stroke-width:2;"/>
   </g>
   <g id="patch_15">
    <path clip-path="url(#p7a931e5ee6)" d="M 343.750018 31.408926 
C 344.70026 31.408926 345.611711 31.19234 346.283634 30.806867 
C 346.955556 30.421394 347.333092 29.898507 347.333092 29.353367 
C 347.333092 28.808226 346.955556 28.285339 346.283634 27.899866 
C 345.611711 27.514394 344.70026 27.297807 343.750018 27.297807 
C 342.799776 27.297807 341.888325 27.514394 341.216402 27.899866 
C 340.54448 28.285339 340.166944 28.808226 340.166944 29.353367 
C 340.166944 29.898507 340.54448 30.421394 341.216402 30.806867 
C 341.888325 31.19234 342.799776 31.408926 343.750018 31.408926 
z
" style="fill:#0000ff;opacity:0.2;stroke:#0000ff;stroke-linejoin:miter;stroke-width:2;"/>
   </g>
   <g id="patch_16">
    <path clip-path="url(#p7a931e5ee6)" d="M 282.837766 87.936822 
C 283.788008 87.936822 284.699459 87.720235 285.371382 87.334762 
C 286.043304 86.949289 286.42084 86.426403 286.42084 85.881262 
C 286.42084 85.336121 286.043304 84.813234 285.371382 84.427762 
C 284.699459 84.042289 283.788008 83.825702 282.837766 83.825702 
C 281.887524 83.825702 280.976073 84.042289 280.30415 84.427762 
C 279.632228 84.813234 279.254692 85.336121 279.254692 85.881262 
C 279.254692 86.426403 279.632228 86.949289 280.30415 87.334762 
C 280.976073 87.720235 281.887524 87.936822 282.837766 87.936822 
z
" style="fill:#0000ff;opacity:0.2;stroke:#0000ff;stroke-linejoin:miter;stroke-width:2;"/>
   </g>
   <g id="patch_17">
    <path clip-path="url(#p7a931e5ee6)" d="M 297.170061 109.5202 
C 298.120303 109.5202 299.031754 109.303613 299.703676 108.91814 
C 300.375599 108.532668 300.753134 108.009781 300.753134 107.46464 
C 300.753134 106.919499 300.375599 106.396613 299.703676 106.01114 
C 299.031754 105.625667 298.120303 105.40908 297.170061 105.40908 
C 296.219818 105.40908 295.308368 105.625667 294.636445 106.01114 
C 293.964522 106.396613 293.586987 106.919499 293.586987 107.46464 
C 293.586987 108.009781 293.964522 108.532668 294.636445 108.91814 
C 295.308368 109.303613 296.219818 109.5202 297.170061 109.5202 
z
" style="fill:#0000ff;opacity:0.2;stroke:#0000ff;stroke-linejoin:miter;stroke-width:2;"/>
   </g>
   <g id="patch_18">
    <path clip-path="url(#p7a931e5ee6)" d="M 370.62307 174.270334 
C 371.573313 174.270334 372.484763 174.053748 373.156686 173.668275 
C 373.828609 173.282802 374.206144 172.759915 374.206144 172.214775 
C 374.206144 171.669634 373.828609 171.146747 373.156686 170.761274 
C 372.484763 170.375801 371.573313 170.159215 370.62307 170.159215 
C 369.672828 170.159215 368.761377 170.375801 368.089455 170.761274 
C 367.417532 171.146747 367.039997 171.669634 367.039997 172.214775 
C 367.039997 172.759915 367.417532 173.282802 368.089455 173.668275 
C 368.761377 174.053748 369.672828 174.270334 370.62307 174.270334 
z
" style="fill:#0000ff;opacity:0.2;stroke:#0000ff;stroke-linejoin:miter;stroke-width:2;"/>
   </g>
   <g id="patch_19">
    <path clip-path="url(#p7a931e5ee6)" d="M 205.801683 254.437168 
C 206.751925 254.437168 207.663376 254.220581 208.335298 253.835108 
C 209.007221 253.449635 209.384756 252.926749 209.384756 252.381608 
C 209.384756 251.836467 209.007221 251.31358 208.335298 250.928107 
C 207.663376 250.542635 206.751925 250.326048 205.801683 250.326048 
C 204.85144 250.326048 203.93999 250.542635 203.268067 250.928107 
C 202.596144 251.31358 202.218609 251.836467 202.218609 252.381608 
C 202.218609 252.926749 202.596144 253.449635 203.268067 253.835108 
C 203.93999 254.220581 204.85144 254.437168 205.801683 254.437168 
z
" style="fill:#0000ff;opacity:0.2;stroke:#0000ff;stroke-linejoin:miter;stroke-width:2;"/>
   </g>
   <g id="patch_20">
    <path clip-path="url(#p7a931e5ee6)" d="M 114.433305 222.57599 
C 115.383547 222.57599 116.294998 222.359404 116.96692 221.973931 
C 117.638843 221.588458 118.016378 221.065571 118.016378 220.52043 
C 118.016378 219.97529 117.638843 219.452403 116.96692 219.06693 
C 116.294998 218.681457 115.383547 218.464871 114.433305 218.464871 
C 113.483062 218.464871 112.571612 218.681457 111.899689 219.06693 
C 111.227766 219.452403 110.850231 219.97529 110.850231 220.52043 
C 110.850231 221.065571 111.227766 221.588458 111.899689 221.973931 
C 112.571612 222.359404 113.483062 222.57599 114.433305 222.57599 
z
" style="fill:#0000ff;opacity:0.2;stroke:#0000ff;stroke-linejoin:miter;stroke-width:2;"/>
   </g>
   <g id="patch_21">
    <path clip-path="url(#p7a931e5ee6)" d="M 153.847115 198.937052 
C 154.797357 198.937052 155.708808 198.720466 156.38073 198.334993 
C 157.052653 197.94952 157.430188 197.426633 157.430188 196.881492 
C 157.430188 196.336352 157.052653 195.813465 156.38073 195.427992 
C 155.708808 195.042519 154.797357 194.825933 153.847115 194.825933 
C 152.896873 194.825933 151.985422 195.042519 151.313499 195.427992 
C 150.641576 195.813465 150.264041 196.336352 150.264041 196.881492 
C 150.264041 197.426633 150.641576 197.94952 151.313499 198.334993 
C 151.985422 198.720466 152.896873 198.937052 153.847115 198.937052 
z
" style="fill:#0000ff;opacity:0.2;stroke:#0000ff;stroke-linejoin:miter;stroke-width:2;"/>
   </g>
   <g id="patch_22">
    <path clip-path="url(#p7a931e5ee6)" d="M 236.257809 225.65933 
C 237.208051 225.65933 238.119502 225.442743 238.791424 225.057271 
C 239.463347 224.671798 239.840882 224.148911 239.840882 223.60377 
C 239.840882 223.058629 239.463347 222.535743 238.791424 222.15027 
C 238.119502 221.764797 237.208051 221.54821 236.257809 221.54821 
C 235.307566 221.54821 234.396116 221.764797 233.724193 222.15027 
C 233.05227 222.535743 232.674735 223.058629 232.674735 223.60377 
C 232.674735 224.148911 233.05227 224.671798 233.724193 225.057271 
C 234.396116 225.442743 235.307566 225.65933 236.257809 225.65933 
z
" style="fill:#0000ff;opacity:0.2;stroke:#0000ff;stroke-linejoin:miter;stroke-width:2;"/>
   </g>
   <g id="patch_23">
    <path clip-path="url(#p7a931e5ee6)" d="M 279.254692 196.881492 
C 280.204935 196.881492 281.116385 196.664906 281.788308 196.279433 
C 282.460231 195.89396 282.837766 195.371073 282.837766 194.825933 
C 282.837766 194.280792 282.460231 193.757905 281.788308 193.372432 
C 281.116385 192.98696 280.204935 192.770373 279.254692 192.770373 
C 278.30445 192.770373 277.392999 192.98696 276.721077 193.372432 
C 276.049154 193.757905 275.671619 194.280792 275.671619 194.825933 
C 275.671619 195.371073 276.049154 195.89396 276.721077 196.279433 
C 277.392999 196.664906 278.30445 196.881492 279.254692 196.881492 
z
" style="fill:#0000ff;opacity:0.2;stroke:#0000ff;stroke-linejoin:miter;stroke-width:2;"/>
   </g>
   <g id="patch_24">
    <path clip-path="url(#p7a931e5ee6)" d="M 180.720167 136.242478 
C 181.670409 136.242478 182.58186 136.025891 183.253783 135.640418 
C 183.925706 135.254945 184.303241 134.732059 184.303241 134.186918 
C 184.303241 133.641777 183.925706 133.11889 183.253783 132.733417 
C 182.58186 132.347945 181.670409 132.131358 180.720167 132.131358 
C 179.769925 132.131358 178.858474 132.347945 178.186551 132.733417 
C 177.514629 133.11889 177.137093 133.641777 177.137093 134.186918 
C 177.137093 134.732059 177.514629 135.254945 178.186551 135.640418 
C 178.858474 136.025891 179.769925 136.242478 180.720167 136.242478 
z
" style="fill:#0000ff;opacity:0.2;stroke:#0000ff;stroke-linejoin:miter;stroke-width:2;"/>
   </g>
   <g id="patch_25">
    <path clip-path="url(#p7a931e5ee6)" d="M 180.720167 131.103578 
C 181.670409 131.103578 182.58186 130.886991 183.253783 130.501519 
C 183.925706 130.116046 184.303241 129.593159 184.303241 129.048018 
C 184.303241 128.502877 183.925706 127.979991 183.253783 127.594518 
C 182.58186 127.209045 181.670409 126.992458 180.720167 126.992458 
C 179.769925 126.992458 178.858474 127.209045 178.186551 127.594518 
C 177.514629 127.979991 177.137093 128.502877 177.137093 129.048018 
C 177.137093 129.593159 177.514629 130.116046 178.186551 130.501519 
C 178.858474 130.886991 179.769925 131.103578 180.720167 131.103578 
z
" style="fill:#0000ff;opacity:0.2;stroke:#0000ff;stroke-linejoin:miter;stroke-width:2;"/>
   </g>
   <g id="patch_26">
    <path clip-path="url(#p7a931e5ee6)" d="M 272.984313 46.825625 
L 367.935765 46.825625 
L 299.857366 100.270181 
C 285.525071 110.54798 289.108145 113.63132 315.981197 121.853559 
C 382.26806 142.409157 425.264943 169.131435 425.264943 209.214851 
C 425.264943 265.742747 314.18966 304.798383 197.739767 304.798383 
C 111.745999 304.798383 59.791432 288.353905 59.791432 259.576067 
C 59.791432 241.076029 83.08141 225.65933 117.12061 225.65933 
C 167.283641 225.65933 199.531304 263.687187 238.945114 263.687187 
C 258.652019 263.687187 285.525071 254.437168 285.525071 237.992689 
C 285.525071 205.103732 213.863598 179.409234 149.368273 163.992535 
L 143.993662 155.770296 
L 272.984313 46.825625 
" style="fill:none;stroke:#ff0000;stroke-linejoin:miter;stroke-width:0.5;"/>
   </g>
   <g id="patch_27">
    <path clip-path="url(#p7a931e5ee6)" d="M 288.212376 29.353367 
L 343.750018 29.353367 
L 282.837766 85.881262 
C 275.671619 93.075721 277.463156 100.270181 297.170061 107.46464 
C 340.166944 123.909119 370.62307 145.492497 370.62307 172.214775 
C 370.62307 218.464871 288.212376 252.381608 205.801683 252.381608 
C 146.680967 252.381608 114.433305 239.020469 114.433305 220.52043 
C 114.433305 210.242631 128.765599 196.881492 153.847115 196.881492 
C 184.303241 196.881492 214.759367 223.60377 236.257809 223.60377 
C 255.964714 223.60377 279.254692 216.409311 279.254692 194.825933 
C 279.254692 171.186995 236.257809 146.520277 180.720167 134.186918 
L 180.720167 129.048018 
L 288.212376 29.353367 
" style="fill:none;stroke:#0000ff;stroke-linejoin:miter;stroke-width:0.5;"/>
   </g>
   <g id="[&quot;g_s&quot;:1,&quot;g_t&quot;:1,&quot;coords&quot;:[[267.0, -700.0],[275.5, -683.0]],&quot;certainty&quot;:11]">
    <path clip-path="url(#p7a931e5ee6)" d="M 272.984313 52.992305 
C 275.83504 52.992305 278.569392 52.342544 280.58516 51.186126 
C 282.600929 50.029708 283.733534 48.461048 283.733534 46.825625 
C 283.733534 45.190203 282.600929 43.621543 280.58516 42.465124 
C 278.569392 41.308706 275.83504 40.658946 272.984313 40.658946 
C 270.133587 40.658946 267.399235 41.308706 265.383466 42.465124 
C 263.367698 43.621543 262.235093 45.190203 262.235093 46.825625 
C 262.235093 48.461048 263.367698 50.029708 265.383466 51.186126 
C 267.399235 52.342544 270.133587 52.992305 272.984313 52.992305 
z
" style="fill:#0000ff;opacity:0.2;stroke:#0000ff;stroke-linejoin:miter;stroke-width:2;"/>
   </g>
   <g id="[&quot;g_s&quot;:1,&quot;g_t&quot;:1,&quot;coords&quot;:[[275.5, -683.0],[267.0, -700.0]],&quot;certainty&quot;:11]">
    <path clip-path="url(#p7a931e5ee6)" d="M 288.212376 35.520046 
C 291.063103 35.520046 293.797455 34.870286 295.813223 33.713868 
C 297.828992 32.557449 298.961597 30.988789 298.961597 29.353367 
C 298.961597 27.717944 297.828992 26.149284 295.813223 24.992866 
C 293.797455 23.836447 291.063103 23.186687 288.212376 23.186687 
C 285.36165 23.186687 282.627298 23.836447 280.611529 24.992866 
C 278.595761 26.149284 277.463156 27.717944 277.463156 29.353367 
C 277.463156 30.988789 278.595761 32.557449 280.611529 33.713868 
C 282.627298 34.870286 285.36165 35.520046 288.212376 35.520046 
z
" style="fill:#ff0000;opacity:0.2;stroke:#ff0000;stroke-linejoin:miter;stroke-width:2;"/>
   </g>
   <g id="patch_28">
    <path d="M 272.984313 46.825625 
Q 279.941226 38.843456 285.50436 32.46047 
" style="fill:none;opacity:0.5;stroke:#0000ff;stroke-linecap:round;stroke-width:3;"/>
    <path d="M 283.388018 32.605712 
L 285.50436 32.46047 
L 285.649603 34.576812 
" style="fill:none;opacity:0.5;stroke:#0000ff;stroke-linecap:round;stroke-width:3;"/>
   </g>
   <g id="[&quot;g_s&quot;:2,&quot;g_t&quot;:2,&quot;coords&quot;:[[320.0, -700.0],[306.5, -683.0]],&quot;certainty&quot;:5]">
    <path clip-path="url(#p7a931e5ee6)" d="M 367.935765 49.908965 
C 369.361128 49.908965 370.728304 49.584085 371.736189 49.005876 
C 372.744073 48.427666 373.310376 47.643336 373.310376 46.825625 
C 373.310376 46.007914 372.744073 45.223584 371.736189 44.645375 
C 370.728304 44.067166 369.361128 43.742285 367.935765 43.742285 
C 366.510402 43.742285 365.143226 44.067166 364.135342 44.645375 
C 363.127457 45.223584 362.561155 46.007914 362.561155 46.825625 
C 362.561155 47.643336 363.127457 48.427666 364.135342 49.005876 
C 365.143226 49.584085 366.510402 49.908965 367.935765 49.908965 
z
" style="fill:#0000ff;opacity:0.2;stroke:#0000ff;stroke-linejoin:miter;stroke-width:2;"/>
   </g>
   <g id="[&quot;g_s&quot;:2,&quot;g_t&quot;:2,&quot;coords&quot;:[[306.5, -683.0],[320.0, -700.0]],&quot;certainty&quot;:5]">
    <path clip-path="url(#p7a931e5ee6)" d="M 343.750018 32.436706 
C 345.175381 32.436706 346.542557 32.111826 347.550441 31.533617 
C 348.558326 30.955408 349.124628 30.171078 349.124628 29.353367 
C 349.124628 28.535655 348.558326 27.751325 347.550441 27.173116 
C 346.542557 26.594907 345.175381 26.270027 343.750018 26.270027 
C 342.324655 26.270027 340.957479 26.594907 339.949594 27.173116 
C 338.94171 27.751325 338.375408 28.535655 338.375408 29.353367 
C 338.375408 30.171078 338.94171 30.955408 339.949594 31.533617 
C 340.957479 32.111826 342.324655 32.436706 343.750018 32.436706 
z
" style="fill:#ff0000;opacity:0.2;stroke:#ff0000;stroke-linejoin:miter;stroke-width:2;"/>
   </g>
   <g id="patch_29">
    <path d="M 367.935765 46.825625 
Q 356.653315 38.674962 346.230639 31.145416 
" style="fill:none;opacity:0.5;stroke:#0000ff;stroke-linecap:round;stroke-width:1.5;"/>
    <path d="M 346.56815 33.239715 
L 346.230639 31.145416 
L 348.324938 30.807905 
" style="fill:none;opacity:0.5;stroke:#0000ff;stroke-linecap:round;stroke-width:1.5;"/>
   </g>
   <g id="[&quot;g_s&quot;:3,&quot;g_t&quot;:3,&quot;coords&quot;:[[282.0, -752.0],[272.5, -738.0]],&quot;certainty&quot;:4]">
    <path clip-path="url(#p7a931e5ee6)" d="M 299.857366 102.83963 
C 301.045169 102.83963 302.184482 102.568897 303.024385 102.087056 
C 303.864289 101.605215 304.336208 100.951607 304.336208 100.270181 
C 304.336208 99.588755 303.864289 98.935146 303.024385 98.453305 
C 302.184482 97.971464 301.045169 97.700731 299.857366 97.700731 
C 298.669563 97.700731 297.53025 97.971464 296.690346 98.453305 
C 295.850443 98.935146 295.378524 99.588755 295.378524 100.270181 
C 295.378524 100.951607 295.850443 101.605215 296.690346 102.087056 
C 297.53025 102.568897 298.669563 102.83963 299.857366 102.83963 
z
" style="fill:#0000ff;opacity:0.2;stroke:#0000ff;stroke-linejoin:miter;stroke-width:2;"/>
   </g>
   <g id="[&quot;g_s&quot;:3,&quot;g_t&quot;:3,&quot;coords&quot;:[[272.5, -738.0],[282.0, -752.0]],&quot;certainty&quot;:4]">
    <path clip-path="url(#p7a931e5ee6)" d="M 282.837766 88.450712 
C 284.025569 88.450712 285.164882 88.179978 286.004786 87.698137 
C 286.844689 87.216296 287.316608 86.562688 287.316608 85.881262 
C 287.316608 85.199836 286.844689 84.546227 286.004786 84.064386 
C 285.164882 83.582546 284.025569 83.311812 282.837766 83.311812 
C 281.649963 83.311812 280.51065 83.582546 279.670746 84.064386 
C 278.830843 84.546227 278.358924 85.199836 278.358924 85.881262 
C 278.358924 86.562688 278.830843 87.216296 279.670746 87.698137 
C 280.51065 88.179978 281.649963 88.450712 282.837766 88.450712 
z
" style="fill:#ff0000;opacity:0.2;stroke:#ff0000;stroke-linejoin:miter;stroke-width:2;"/>
   </g>
   <g id="patch_30">
    <path d="M 299.857366 100.270181 
Q 292.111079 93.72122 285.039778 87.742914 
" style="fill:none;opacity:0.5;stroke:#0000ff;stroke-linecap:round;stroke-width:1.25;"/>
    <path d="M 285.216833 89.856832 
L 285.039778 87.742914 
L 287.153696 87.565858 
" style="fill:none;opacity:0.5;stroke:#0000ff;stroke-linecap:round;stroke-width:1.25;"/>
   </g>
   <g id="[&quot;g_s&quot;:4,&quot;g_t&quot;:4,&quot;coords&quot;:[[291.0, -773.0],[280.5, -759.0]],&quot;certainty&quot;:5]">
    <path clip-path="url(#p7a931e5ee6)" d="M 315.981197 124.936899 
C 317.406561 124.936899 318.773737 124.612018 319.781621 124.033809 
C 320.789505 123.4556 321.355808 122.67127 321.355808 121.853559 
C 321.355808 121.035848 320.789505 120.251518 319.781621 119.673308 
C 318.773737 119.095099 317.406561 118.770219 315.981197 118.770219 
C 314.555834 118.770219 313.188658 119.095099 312.180774 119.673308 
C 311.17289 120.251518 310.606587 121.035848 310.606587 121.853559 
C 310.606587 122.67127 311.17289 123.4556 312.180774 124.033809 
C 313.188658 124.612018 314.555834 124.936899 315.981197 124.936899 
z
" style="fill:#0000ff;opacity:0.2;stroke:#0000ff;stroke-linejoin:miter;stroke-width:2;"/>
   </g>
   <g id="[&quot;g_s&quot;:4,&quot;g_t&quot;:4,&quot;coords&quot;:[[280.5, -759.0],[291.0, -773.0]],&quot;certainty&quot;:5]">
    <path clip-path="url(#p7a931e5ee6)" d="M 297.170061 110.54798 
C 298.595424 110.54798 299.9626 110.2231 300.970484 109.64489 
C 301.978368 109.066681 302.544671 108.282351 302.544671 107.46464 
C 302.544671 106.646929 301.978368 105.862599 300.970484 105.28439 
C 299.9626 104.70618 298.595424 104.3813 297.170061 104.3813 
C 295.744697 104.3813 294.377521 104.70618 293.369637 105.28439 
C 292.361753 105.862599 291.79545 106.646929 291.79545 107.46464 
C 291.79545 108.282351 292.361753 109.066681 293.369637 109.64489 
C 294.377521 110.2231 295.744697 110.54798 297.170061 110.54798 
z
" style="fill:#ff0000;opacity:0.2;stroke:#ff0000;stroke-linejoin:miter;stroke-width:2;"/>
   </g>
   <g id="patch_31">
    <path d="M 315.981197 121.853559 
Q 307.368994 115.265956 299.59925 109.322763 
" style="fill:none;opacity:0.5;stroke:#0000ff;stroke-linecap:round;stroke-width:1.5;"/>
    <path d="M 299.879334 111.425512 
L 299.59925 109.322763 
L 301.701999 109.042679 
" style="fill:none;opacity:0.5;stroke:#0000ff;stroke-linecap:round;stroke-width:1.5;"/>
   </g>
   <g id="[&quot;g_s&quot;:5,&quot;g_t&quot;:5,&quot;coords&quot;:[[352.0, -858.0],[321.5, -822.0]],&quot;certainty&quot;:11]">
    <path clip-path="url(#p7a931e5ee6)" d="M 425.264943 215.381531 
C 428.11567 215.381531 430.850022 214.731771 432.86579 213.575352 
C 434.881559 212.418934 436.014164 210.850274 436.014164 209.214851 
C 436.014164 207.579429 434.881559 206.010769 432.86579 204.854351 
C 430.850022 203.697932 428.11567 203.048172 425.264943 203.048172 
C 422.414217 203.048172 419.679865 203.697932 417.664096 204.854351 
C 415.648328 206.010769 414.515722 207.579429 414.515722 209.214851 
C 414.515722 210.850274 415.648328 212.418934 417.664096 213.575352 
C 419.679865 214.731771 422.414217 215.381531 425.264943 215.381531 
z
" style="fill:#0000ff;opacity:0.2;stroke:#0000ff;stroke-linejoin:miter;stroke-width:2;"/>
   </g>
   <g id="[&quot;g_s&quot;:5,&quot;g_t&quot;:5,&quot;coords&quot;:[[321.5, -822.0],[352.0, -858.0]],&quot;certainty&quot;:11]">
    <path clip-path="url(#p7a931e5ee6)" d="M 370.62307 178.381454 
C 373.473797 178.381454 376.208149 177.731694 378.223917 176.575275 
C 380.239686 175.418857 381.372291 173.850197 381.372291 172.214775 
C 381.372291 170.579352 380.239686 169.010692 378.223917 167.854274 
C 376.208149 166.697855 373.473797 166.048095 370.62307 166.048095 
C 367.772344 166.048095 365.037991 166.697855 363.022223 167.854274 
C 361.006455 169.010692 359.873849 170.579352 359.873849 172.214775 
C 359.873849 173.850197 361.006455 175.418857 363.022223 176.575275 
C 365.037991 177.731694 367.772344 178.381454 370.62307 178.381454 
z
" style="fill:#ff0000;opacity:0.2;stroke:#ff0000;stroke-linejoin:miter;stroke-width:2;"/>
   </g>
   <g id="patch_32">
    <path d="M 425.264943 209.214851 
Q 398.772773 191.276002 374.037113 174.526552 
" style="fill:none;opacity:0.5;stroke:#0000ff;stroke-linecap:round;stroke-width:3;"/>
    <path d="M 374.438121 176.609625 
L 374.037113 174.526552 
L 376.120186 174.125544 
" style="fill:none;opacity:0.5;stroke:#0000ff;stroke-linecap:round;stroke-width:3;"/>
   </g>
   <g id="[&quot;g_s&quot;:6,&quot;g_t&quot;:6,&quot;coords&quot;:[[225.0, -951.0],[229.5, -900.0]],&quot;certainty&quot;:11]">
    <path clip-path="url(#p7a931e5ee6)" d="M 197.739767 310.965063 
C 200.590494 310.965063 203.324846 310.315303 205.340614 309.158884 
C 207.356382 308.002466 208.488988 306.433806 208.488988 304.798383 
C 208.488988 303.162961 207.356382 301.594301 205.340614 300.437882 
C 203.324846 299.281464 200.590494 298.631704 197.739767 298.631704 
C 194.88904 298.631704 192.154688 299.281464 190.13892 300.437882 
C 188.123152 301.594301 186.990546 303.162961 186.990546 304.798383 
C 186.990546 306.433806 188.123152 308.002466 190.13892 309.158884 
C 192.154688 310.315303 194.88904 310.965063 197.739767 310.965063 
z
" style="fill:#0000ff;opacity:0.2;stroke:#0000ff;stroke-linejoin:miter;stroke-width:2;"/>
   </g>
   <g id="[&quot;g_s&quot;:6,&quot;g_t&quot;:6,&quot;coords&quot;:[[229.5, -900.0],[225.0, -951.0]],&quot;certainty&quot;:11]">
    <path clip-path="url(#p7a931e5ee6)" d="M 205.801683 258.548287 
C 208.652409 258.548287 211.386761 257.898527 213.40253 256.742109 
C 215.418298 255.58569 216.550904 254.01703 216.550904 252.381608 
C 216.550904 250.746185 215.418298 249.177525 213.40253 248.021107 
C 211.386761 246.864689 208.652409 246.214928 205.801683 246.214928 
C 202.950956 246.214928 200.216604 246.864689 198.200836 248.021107 
C 196.185067 249.177525 195.052462 250.746185 195.052462 252.381608 
C 195.052462 254.01703 196.185067 255.58569 198.200836 256.742109 
C 200.216604 257.898527 202.950956 258.548287 205.801683 258.548287 
z
" style="fill:#ff0000;opacity:0.2;stroke:#ff0000;stroke-linejoin:miter;stroke-width:2;"/>
   </g>
   <g id="patch_33">
    <path d="M 197.739767 304.798383 
Q 201.618924 279.576969 205.175606 256.452221 
" style="fill:none;opacity:0.5;stroke:#0000ff;stroke-linecap:round;stroke-width:3;"/>
    <path d="M 203.465014 257.706763 
L 205.175606 256.452221 
L 206.430148 258.162813 
" style="fill:none;opacity:0.5;stroke:#0000ff;stroke-linecap:round;stroke-width:3;"/>
   </g>
   <g id="[&quot;g_s&quot;:7,&quot;g_t&quot;:7,&quot;coords&quot;:[[148.0, -907.0],[178.5, -869.0]],&quot;certainty&quot;:11]">
    <path clip-path="url(#p7a931e5ee6)" d="M 59.791432 265.742747 
C 62.642158 265.742747 65.37651 265.092986 67.392279 263.936568 
C 69.408047 262.78015 70.540653 261.21149 70.540653 259.576067 
C 70.540653 257.940645 69.408047 256.371985 67.392279 255.215566 
C 65.37651 254.059148 62.642158 253.409388 59.791432 253.409388 
C 56.940705 253.409388 54.206353 254.059148 52.190585 255.215566 
C 50.174816 256.371985 49.042211 257.940645 49.042211 259.576067 
C 49.042211 261.21149 50.174816 262.78015 52.190585 263.936568 
C 54.206353 265.092986 56.940705 265.742747 59.791432 265.742747 
z
" style="fill:#0000ff;opacity:0.2;stroke:#0000ff;stroke-linejoin:miter;stroke-width:2;"/>
   </g>
   <g id="[&quot;g_s&quot;:7,&quot;g_t&quot;:7,&quot;coords&quot;:[[178.5, -869.0],[148.0, -907.0]],&quot;certainty&quot;:11]">
    <path clip-path="url(#p7a931e5ee6)" d="M 114.433305 226.68711 
C 117.284031 226.68711 120.018384 226.03735 122.034152 224.880931 
C 124.04992 223.724513 125.182526 222.155853 125.182526 220.52043 
C 125.182526 218.885008 124.04992 217.316348 122.034152 216.15993 
C 120.018384 215.003511 117.284031 214.353751 114.433305 214.353751 
C 111.582578 214.353751 108.848226 215.003511 106.832458 216.15993 
C 104.816689 217.316348 103.684084 218.885008 103.684084 220.52043 
C 103.684084 222.155853 104.816689 223.724513 106.832458 224.880931 
C 108.848226 226.03735 111.582578 226.68711 114.433305 226.68711 
z
" style="fill:#ff0000;opacity:0.2;stroke:#ff0000;stroke-linejoin:miter;stroke-width:2;"/>
   </g>
   <g id="patch_34">
    <path d="M 59.791432 259.576067 
Q 86.300277 240.628696 111.083318 222.914855 
" style="fill:none;opacity:0.5;stroke:#0000ff;stroke-linecap:round;stroke-width:3;"/>
    <path d="M 108.990752 222.566765 
L 111.083318 222.914855 
L 110.735227 225.007421 
" style="fill:none;opacity:0.5;stroke:#0000ff;stroke-linecap:round;stroke-width:3;"/>
   </g>
   <g id="[&quot;g_s&quot;:8,&quot;g_t&quot;:8,&quot;coords&quot;:[[180.0, -874.0],[200.5, -846.0]],&quot;certainty&quot;:5]">
    <path clip-path="url(#p7a931e5ee6)" d="M 117.12061 228.74267 
C 118.545973 228.74267 119.913149 228.41779 120.921033 227.83958 
C 121.928918 227.261371 122.49522 226.477041 122.49522 225.65933 
C 122.49522 224.841619 121.928918 224.057289 120.921033 223.47908 
C 119.913149 222.90087 118.545973 222.57599 117.12061 222.57599 
C 115.695247 222.57599 114.328071 222.90087 113.320186 223.47908 
C 112.312302 224.057289 111.745999 224.841619 111.745999 225.65933 
C 111.745999 226.477041 112.312302 227.261371 113.320186 227.83958 
C 114.328071 228.41779 115.695247 228.74267 117.12061 228.74267 
z
" style="fill:#0000ff;opacity:0.2;stroke:#0000ff;stroke-linejoin:miter;stroke-width:2;"/>
   </g>
   <g id="[&quot;g_s&quot;:8,&quot;g_t&quot;:8,&quot;coords&quot;:[[200.5, -846.0],[180.0, -874.0]],&quot;certainty&quot;:5]">
    <path clip-path="url(#p7a931e5ee6)" d="M 153.847115 199.964832 
C 155.272478 199.964832 156.639654 199.639952 157.647538 199.061743 
C 158.655422 198.483534 159.221725 197.699204 159.221725 196.881492 
C 159.221725 196.063781 158.655422 195.279451 157.647538 194.701242 
C 156.639654 194.123033 155.272478 193.798153 153.847115 193.798153 
C 152.421751 193.798153 151.054575 194.123033 150.046691 194.701242 
C 149.038807 195.279451 148.472504 196.063781 148.472504 196.881492 
C 148.472504 197.699204 149.038807 198.483534 150.046691 199.061743 
C 151.054575 199.639952 152.421751 199.964832 153.847115 199.964832 
z
" style="fill:#ff0000;opacity:0.2;stroke:#ff0000;stroke-linejoin:miter;stroke-width:2;"/>
   </g>
   <g id="patch_35">
    <path d="M 117.12061 225.65933 
Q 134.695937 211.887807 151.436379 198.770476 
" style="fill:none;opacity:0.5;stroke:#0000ff;stroke-linecap:round;stroke-width:1.5;"/>
    <path d="M 149.330507 198.514937 
L 151.436379 198.770476 
L 151.180841 200.876348 
" style="fill:none;opacity:0.5;stroke:#0000ff;stroke-linecap:round;stroke-width:1.5;"/>
   </g>
   <g id="[&quot;g_s&quot;:9,&quot;g_t&quot;:6,&quot;coords&quot;:[[248.0, -911.0],[229.5, -900.0]],&quot;certainty&quot;:7]">
    <path clip-path="url(#p7a931e5ee6)" d="M 238.945114 267.798306 
C 240.845598 267.798306 242.6685 267.365133 244.012345 266.594187 
C 245.356191 265.823242 246.111261 264.777469 246.111261 263.687187 
C 246.111261 262.596905 245.356191 261.551132 244.012345 260.780186 
C 242.6685 260.009241 240.845598 259.576067 238.945114 259.576067 
C 237.044629 259.576067 235.221728 260.009241 233.877883 260.780186 
C 232.534037 261.551132 231.778967 262.596905 231.778967 263.687187 
C 231.778967 264.777469 232.534037 265.823242 233.877883 266.594187 
C 235.221728 267.365133 237.044629 267.798306 238.945114 267.798306 
z
" style="fill:#0000ff;opacity:0.2;stroke:#0000ff;stroke-linejoin:miter;stroke-width:2;"/>
   </g>
   <g id="[&quot;g_s&quot;:6,&quot;g_t&quot;:9,&quot;coords&quot;:[[229.5, -900.0],[248.0, -911.0]],&quot;certainty&quot;:7]">
    <path clip-path="url(#p7a931e5ee6)" d="M 205.801683 256.492727 
C 207.702167 256.492727 209.525069 256.059554 210.868914 255.288608 
C 212.212759 254.517663 212.96783 253.471889 212.96783 252.381608 
C 212.96783 251.291326 212.212759 250.245553 210.868914 249.474607 
C 209.525069 248.703662 207.702167 248.270488 205.801683 248.270488 
C 203.901198 248.270488 202.078297 248.703662 200.734451 249.474607 
C 199.390606 250.245553 198.635535 251.291326 198.635535 252.381608 
C 198.635535 253.471889 199.390606 254.517663 200.734451 255.288608 
C 202.078297 256.059554 203.901198 256.492727 205.801683 256.492727 
z
" style="fill:#ff0000;opacity:0.2;stroke:#ff0000;stroke-linejoin:miter;stroke-width:2;"/>
   </g>
   <g id="patch_36">
    <path d="M 238.945114 263.687187 
Q 223.318099 258.356645 209.02957 253.482675 
" style="fill:none;opacity:0.5;stroke:#0000ff;stroke-linecap:round;stroke-width:2;"/>
    <path d="M 209.96498 255.38662 
L 209.02957 253.482675 
L 210.933515 252.547264 
" style="fill:none;opacity:0.5;stroke:#0000ff;stroke-linecap:round;stroke-width:2;"/>
   </g>
   <g id="[&quot;g_s&quot;:10,&quot;g_t&quot;:9,&quot;coords&quot;:[[274.0, -886.0],[246.5, -872.0]],&quot;certainty&quot;:5]">
    <path clip-path="url(#p7a931e5ee6)" d="M 285.525071 241.076029 
C 286.950435 241.076029 288.317611 240.751149 289.325495 240.172939 
C 290.333379 239.59473 290.899682 238.8104 290.899682 237.992689 
C 290.899682 237.174978 290.333379 236.390648 289.325495 235.812439 
C 288.317611 235.234229 286.950435 234.909349 285.525071 234.909349 
C 284.099708 234.909349 282.732532 235.234229 281.724648 235.812439 
C 280.716764 236.390648 280.150461 237.174978 280.150461 237.992689 
C 280.150461 238.8104 280.716764 239.59473 281.724648 240.172939 
C 282.732532 240.751149 284.099708 241.076029 285.525071 241.076029 
z
" style="fill:#0000ff;opacity:0.2;stroke:#0000ff;stroke-linejoin:miter;stroke-width:2;"/>
   </g>
   <g id="[&quot;g_s&quot;:9,&quot;g_t&quot;:10,&quot;coords&quot;:[[246.5, -872.0],[274.0, -886.0]],&quot;certainty&quot;:5]">
    <path clip-path="url(#p7a931e5ee6)" d="M 236.257809 226.68711 
C 237.683172 226.68711 239.050348 226.36223 240.058232 225.784021 
C 241.066116 225.205811 241.632419 224.421481 241.632419 223.60377 
C 241.632419 222.786059 241.066116 222.001729 240.058232 221.42352 
C 239.050348 220.845311 237.683172 220.52043 236.257809 220.52043 
C 234.832445 220.52043 233.465269 220.845311 232.457385 221.42352 
C 231.449501 222.001729 230.883198 222.786059 230.883198 223.60377 
C 230.883198 224.421481 231.449501 225.205811 232.457385 225.784021 
C 233.465269 226.36223 234.832445 226.68711 236.257809 226.68711 
z
" style="fill:#ff0000;opacity:0.2;stroke:#ff0000;stroke-linejoin:miter;stroke-width:2;"/>
   </g>
   <g id="patch_37">
    <path d="M 285.525071 237.992689 
Q 261.852188 231.078824 239.197431 224.462312 
" style="fill:none;opacity:0.5;stroke:#0000ff;stroke-linecap:round;stroke-width:1.5;"/>
    <path d="M 240.216759 226.32268 
L 239.197431 224.462312 
L 241.057799 223.442983 
" style="fill:none;opacity:0.5;stroke:#0000ff;stroke-linecap:round;stroke-width:1.5;"/>
   </g>
   <g id="[&quot;g_s&quot;:11,&quot;g_t&quot;:7,&quot;coords&quot;:[[198.0, -814.0],[178.5, -869.0]],&quot;certainty&quot;:4]">
    <path clip-path="url(#p7a931e5ee6)" d="M 149.368273 166.561985 
C 150.556076 166.561985 151.695389 166.291252 152.535292 165.809411 
C 153.375196 165.32757 153.847115 164.673961 153.847115 163.992535 
C 153.847115 163.311109 153.375196 162.657501 152.535292 162.17566 
C 151.695389 161.693819 150.556076 161.423085 149.368273 161.423085 
C 148.18047 161.423085 147.041157 161.693819 146.201253 162.17566 
C 145.36135 162.657501 144.889431 163.311109 144.889431 163.992535 
C 144.889431 164.673961 145.36135 165.32757 146.201253 165.809411 
C 147.041157 166.291252 148.18047 166.561985 149.368273 166.561985 
z
" style="fill:#0000ff;opacity:0.2;stroke:#0000ff;stroke-linejoin:miter;stroke-width:2;"/>
   </g>
   <g id="[&quot;g_s&quot;:7,&quot;g_t&quot;:11,&quot;coords&quot;:[[178.5, -869.0],[198.0, -814.0]],&quot;certainty&quot;:4]">
    <path clip-path="url(#p7a931e5ee6)" d="M 114.433305 223.08988 
C 115.621107 223.08988 116.760421 222.819147 117.600324 222.337306 
C 118.440228 221.855465 118.912147 221.201857 118.912147 220.52043 
C 118.912147 219.839004 118.440228 219.185396 117.600324 218.703555 
C 116.760421 218.221714 115.621107 217.950981 114.433305 217.950981 
C 113.245502 217.950981 112.106189 218.221714 111.266285 218.703555 
C 110.426382 219.185396 109.954463 219.839004 109.954463 220.52043 
C 109.954463 221.201857 110.426382 221.855465 111.266285 222.337306 
C 112.106189 222.819147 113.245502 223.08988 114.433305 223.08988 
z
" style="fill:#ff0000;opacity:0.2;stroke:#ff0000;stroke-linejoin:miter;stroke-width:2;"/>
   </g>
   <g id="patch_38">
    <path d="M 149.368273 163.992535 
Q 132.426391 191.406011 115.949183 218.067604 
" style="fill:none;opacity:0.5;stroke:#0000ff;stroke-linecap:round;stroke-width:1.25;"/>
    <path d="M 118.013748 217.580193 
L 115.949183 218.067604 
L 115.461772 216.003039 
" style="fill:none;opacity:0.5;stroke:#0000ff;stroke-linecap:round;stroke-width:1.25;"/>
   </g>
   <g id="[&quot;g_s&quot;:12,&quot;g_t&quot;:12,&quot;coords&quot;:[[195.0, -806.0],[215.5, -780.0]],&quot;certainty&quot;:6]">
    <path clip-path="url(#p7a931e5ee6)" d="M 143.993662 159.367526 
C 145.656586 159.367526 147.251625 158.988499 148.42749 158.313921 
C 149.603354 157.639344 150.264041 156.724292 150.264041 155.770296 
C 150.264041 154.816299 149.603354 153.901248 148.42749 153.22667 
C 147.251625 152.552093 145.656586 152.173066 143.993662 152.173066 
C 142.330738 152.173066 140.7357 152.552093 139.559835 153.22667 
C 138.38397 153.901248 137.723283 154.816299 137.723283 155.770296 
C 137.723283 156.724292 138.38397 157.639344 139.559835 158.313921 
C 140.7357 158.988499 142.330738 159.367526 143.993662 159.367526 
z
" style="fill:#0000ff;opacity:0.2;stroke:#0000ff;stroke-linejoin:miter;stroke-width:2;"/>
   </g>
   <g id="[&quot;g_s&quot;:12,&quot;g_t&quot;:12,&quot;coords&quot;:[[215.5, -780.0],[195.0, -806.0]],&quot;certainty&quot;:6]">
    <path clip-path="url(#p7a931e5ee6)" d="M 180.720167 132.645248 
C 182.383091 132.645248 183.97813 132.266221 185.153995 131.591644 
C 186.329859 130.917066 186.990546 130.002015 186.990546 129.048018 
C 186.990546 128.094022 186.329859 127.17897 185.153995 126.504393 
C 183.97813 125.829815 182.383091 125.450789 180.720167 125.450789 
C 179.057243 125.450789 177.462204 125.829815 176.28634 126.504393 
C 175.110475 127.17897 174.449788 128.094022 174.449788 129.048018 
C 174.449788 130.002015 175.110475 130.917066 176.28634 131.591644 
C 177.462204 132.266221 179.057243 132.645248 180.720167 132.645248 
z
" style="fill:#ff0000;opacity:0.2;stroke:#ff0000;stroke-linejoin:miter;stroke-width:2;"/>
   </g>
   <g id="patch_39">
    <path d="M 143.993662 155.770296 
Q 161.548815 142.997132 178.103365 130.952009 
" style="fill:none;opacity:0.5;stroke:#0000ff;stroke-linecap:round;stroke-width:1.75;"/>
    <path d="M 176.007932 130.621613 
L 178.103365 130.952009 
L 177.772969 133.047442 
" style="fill:none;opacity:0.5;stroke:#0000ff;stroke-linecap:round;stroke-width:1.75;"/>
   </g>
   <g id="[&quot;g_s&quot;:1,&quot;g_t&quot;:1,&quot;coords&quot;:[[275.5, -683.0],[267.0, -700.0]],&quot;certainty&quot;:11]">
    <path clip-path="url(#p7a931e5ee6)" d="M 288.212376 35.520046 
C 291.063103 35.520046 293.797455 34.870286 295.813223 33.713868 
C 297.828992 32.557449 298.961597 30.988789 298.961597 29.353367 
C 298.961597 27.717944 297.828992 26.149284 295.813223 24.992866 
C 293.797455 23.836447 291.063103 23.186687 288.212376 23.186687 
C 285.36165 23.186687 282.627298 23.836447 280.611529 24.992866 
C 278.595761 26.149284 277.463156 27.717944 277.463156 29.353367 
C 277.463156 30.988789 278.595761 32.557449 280.611529 33.713868 
C 282.627298 34.870286 285.36165 35.520046 288.212376 35.520046 
z
" style="fill:#0000ff;opacity:0.2;stroke:#0000ff;stroke-linejoin:miter;stroke-width:2;"/>
   </g>
   <g id="[&quot;g_s&quot;:1,&quot;g_t&quot;:1,&quot;coords&quot;:[[267.0, -700.0],[275.5, -683.0]],&quot;certainty&quot;:11]">
    <path clip-path="url(#p7a931e5ee6)" d="M 272.984313 52.992305 
C 275.83504 52.992305 278.569392 52.342544 280.58516 51.186126 
C 282.600929 50.029708 283.733534 48.461048 283.733534 46.825625 
C 283.733534 45.190203 282.600929 43.621543 280.58516 42.465124 
C 278.569392 41.308706 275.83504 40.658946 272.984313 40.658946 
C 270.133587 40.658946 267.399235 41.308706 265.383466 42.465124 
C 263.367698 43.621543 262.235093 45.190203 262.235093 46.825625 
C 262.235093 48.461048 263.367698 50.029708 265.383466 51.186126 
C 267.399235 52.342544 270.133587 52.992305 272.984313 52.992305 
z
" style="fill:#ff0000;opacity:0.2;stroke:#ff0000;stroke-linejoin:miter;stroke-width:2;"/>
   </g>
   <g id="patch_40">
    <path d="M 288.212376 29.353367 
Q 281.255464 37.335536 275.69233 43.718522 
" style="fill:none;opacity:0.5;stroke:#ff0000;stroke-linecap:round;stroke-width:3;"/>
    <path d="M 277.808672 43.57328 
L 275.69233 43.718522 
L 275.547087 41.60218 
" style="fill:none;opacity:0.5;stroke:#ff0000;stroke-linecap:round;stroke-width:3;"/>
   </g>
   <g id="[&quot;g_s&quot;:2,&quot;g_t&quot;:2,&quot;coords&quot;:[[306.5, -683.0],[320.0, -700.0]],&quot;certainty&quot;:6]">
    <path clip-path="url(#p7a931e5ee6)" d="M 343.750018 32.950596 
C 345.412942 32.950596 347.007981 32.57157 348.183845 31.896992 
C 349.35971 31.222415 350.020397 30.307363 350.020397 29.353367 
C 350.020397 28.39937 349.35971 27.484319 348.183845 26.809741 
C 347.007981 26.135164 345.412942 25.756137 343.750018 25.756137 
C 342.087094 25.756137 340.492055 26.135164 339.316191 26.809741 
C 338.140326 27.484319 337.479639 28.39937 337.479639 29.353367 
C 337.479639 30.307363 338.140326 31.222415 339.316191 31.896992 
C 340.492055 32.57157 342.087094 32.950596 343.750018 32.950596 
z
" style="fill:#0000ff;opacity:0.2;stroke:#0000ff;stroke-linejoin:miter;stroke-width:2;"/>
   </g>
   <g id="[&quot;g_s&quot;:2,&quot;g_t&quot;:2,&quot;coords&quot;:[[320.0, -700.0],[306.5, -683.0]],&quot;certainty&quot;:6]">
    <path clip-path="url(#p7a931e5ee6)" d="M 367.935765 50.422855 
C 369.598689 50.422855 371.193728 50.043828 372.369593 49.369251 
C 373.545457 48.694673 374.206144 47.779622 374.206144 46.825625 
C 374.206144 45.871629 373.545457 44.956577 372.369593 44.282 
C 371.193728 43.607422 369.598689 43.228395 367.935765 43.228395 
C 366.272841 43.228395 364.677802 43.607422 363.501938 44.282 
C 362.326073 44.956577 361.665386 45.871629 361.665386 46.825625 
C 361.665386 47.779622 362.326073 48.694673 363.501938 49.369251 
C 364.677802 50.043828 366.272841 50.422855 367.935765 50.422855 
z
" style="fill:#ff0000;opacity:0.2;stroke:#ff0000;stroke-linejoin:miter;stroke-width:2;"/>
   </g>
   <g id="patch_41">
    <path d="M 343.750018 29.353367 
Q 355.032468 37.50403 365.311848 44.930056 
" style="fill:none;opacity:0.5;stroke:#ff0000;stroke-linecap:round;stroke-width:1.75;"/>
    <path d="M 364.974337 42.835758 
L 365.311848 44.930056 
L 363.21755 45.267567 
" style="fill:none;opacity:0.5;stroke:#ff0000;stroke-linecap:round;stroke-width:1.75;"/>
   </g>
   <g id="[&quot;g_s&quot;:3,&quot;g_t&quot;:3,&quot;coords&quot;:[[272.5, -738.0],[282.0, -752.0]],&quot;certainty&quot;:6]">
    <path clip-path="url(#p7a931e5ee6)" d="M 282.837766 89.478492 
C 284.50069 89.478492 286.095729 89.099465 287.271593 88.424887 
C 288.447458 87.75031 289.108145 86.835258 289.108145 85.881262 
C 289.108145 84.927265 288.447458 84.012214 287.271593 83.337636 
C 286.095729 82.663059 284.50069 82.284032 282.837766 82.284032 
C 281.174842 82.284032 279.579803 82.663059 278.403939 83.337636 
C 277.228074 84.012214 276.567387 84.927265 276.567387 85.881262 
C 276.567387 86.835258 277.228074 87.75031 278.403939 88.424887 
C 279.579803 89.099465 281.174842 89.478492 282.837766 89.478492 
z
" style="fill:#0000ff;opacity:0.2;stroke:#0000ff;stroke-linejoin:miter;stroke-width:2;"/>
   </g>
   <g id="[&quot;g_s&quot;:3,&quot;g_t&quot;:3,&quot;coords&quot;:[[282.0, -752.0],[272.5, -738.0]],&quot;certainty&quot;:6]">
    <path clip-path="url(#p7a931e5ee6)" d="M 299.857366 103.86741 
C 301.52029 103.86741 303.115328 103.488384 304.291193 102.813806 
C 305.467058 102.139229 306.127745 101.224177 306.127745 100.270181 
C 306.127745 99.316184 305.467058 98.401133 304.291193 97.726555 
C 303.115328 97.051978 301.52029 96.672951 299.857366 96.672951 
C 298.194442 96.672951 296.599403 97.051978 295.423538 97.726555 
C 294.247674 98.401133 293.586987 99.316184 293.586987 100.270181 
C 293.586987 101.224177 294.247674 102.139229 295.423538 102.813806 
C 296.599403 103.488384 298.194442 103.86741 299.857366 103.86741 
z
" style="fill:#ff0000;opacity:0.2;stroke:#ff0000;stroke-linejoin:miter;stroke-width:2;"/>
   </g>
   <g id="patch_42">
    <path d="M 282.837766 85.881262 
Q 290.584052 92.430222 297.38536 98.180267 
" style="fill:none;opacity:0.5;stroke:#ff0000;stroke-linecap:round;stroke-width:1.75;"/>
    <path d="M 297.208305 96.066349 
L 297.38536 98.180267 
L 295.271442 98.357323 
" style="fill:none;opacity:0.5;stroke:#ff0000;stroke-linecap:round;stroke-width:1.75;"/>
   </g>
   <g id="[&quot;g_s&quot;:4,&quot;g_t&quot;:4,&quot;coords&quot;:[[280.5, -759.0],[291.0, -773.0]],&quot;certainty&quot;:4]">
    <path clip-path="url(#p7a931e5ee6)" d="M 297.170061 110.03409 
C 298.357863 110.03409 299.497177 109.763356 300.33708 109.281515 
C 301.176984 108.799674 301.648903 108.146066 301.648903 107.46464 
C 301.648903 106.783214 301.176984 106.129606 300.33708 105.647765 
C 299.497177 105.165924 298.357863 104.89519 297.170061 104.89519 
C 295.982258 104.89519 294.842944 105.165924 294.003041 105.647765 
C 293.163138 106.129606 292.691219 106.783214 292.691219 107.46464 
C 292.691219 108.146066 293.163138 108.799674 294.003041 109.281515 
C 294.842944 109.763356 295.982258 110.03409 297.170061 110.03409 
z
" style="fill:#0000ff;opacity:0.2;stroke:#0000ff;stroke-linejoin:miter;stroke-width:2;"/>
   </g>
   <g id="[&quot;g_s&quot;:4,&quot;g_t&quot;:4,&quot;coords&quot;:[[291.0, -773.0],[280.5, -759.0]],&quot;certainty&quot;:4]">
    <path clip-path="url(#p7a931e5ee6)" d="M 315.981197 124.423009 
C 317.169 124.423009 318.308313 124.152275 319.148217 123.670434 
C 319.98812 123.188593 320.460039 122.534985 320.460039 121.853559 
C 320.460039 121.172133 319.98812 120.518524 319.148217 120.036683 
C 318.308313 119.554842 317.169 119.284109 315.981197 119.284109 
C 314.793394 119.284109 313.654081 119.554842 312.814178 120.036683 
C 311.974274 120.518524 311.502355 121.172133 311.502355 121.853559 
C 311.502355 122.534985 311.974274 123.188593 312.814178 123.670434 
C 313.654081 124.152275 314.793394 124.423009 315.981197 124.423009 
z
" style="fill:#ff0000;opacity:0.2;stroke:#ff0000;stroke-linejoin:miter;stroke-width:2;"/>
   </g>
   <g id="patch_43">
    <path d="M 297.170061 107.46464 
Q 305.782264 114.052243 313.692418 120.102837 
" style="fill:none;opacity:0.5;stroke:#ff0000;stroke-linecap:round;stroke-width:1.25;"/>
    <path d="M 313.412334 118.000089 
L 313.692418 120.102837 
L 311.589669 120.382922 
" style="fill:none;opacity:0.5;stroke:#ff0000;stroke-linecap:round;stroke-width:1.25;"/>
   </g>
   <g id="[&quot;g_s&quot;:5,&quot;g_t&quot;:5,&quot;coords&quot;:[[321.5, -822.0],[352.0, -858.0]],&quot;certainty&quot;:11]">
    <path clip-path="url(#p7a931e5ee6)" d="M 370.62307 178.381454 
C 373.473797 178.381454 376.208149 177.731694 378.223917 176.575275 
C 380.239686 175.418857 381.372291 173.850197 381.372291 172.214775 
C 381.372291 170.579352 380.239686 169.010692 378.223917 167.854274 
C 376.208149 166.697855 373.473797 166.048095 370.62307 166.048095 
C 367.772344 166.048095 365.037991 166.697855 363.022223 167.854274 
C 361.006455 169.010692 359.873849 170.579352 359.873849 172.214775 
C 359.873849 173.850197 361.006455 175.418857 363.022223 176.575275 
C 365.037991 177.731694 367.772344 178.381454 370.62307 178.381454 
z
" style="fill:#0000ff;opacity:0.2;stroke:#0000ff;stroke-linejoin:miter;stroke-width:2;"/>
   </g>
   <g id="[&quot;g_s&quot;:5,&quot;g_t&quot;:5,&quot;coords&quot;:[[352.0, -858.0],[321.5, -822.0]],&quot;certainty&quot;:11]">
    <path clip-path="url(#p7a931e5ee6)" d="M 425.264943 215.381531 
C 428.11567 215.381531 430.850022 214.731771 432.86579 213.575352 
C 434.881559 212.418934 436.014164 210.850274 436.014164 209.214851 
C 436.014164 207.579429 434.881559 206.010769 432.86579 204.854351 
C 430.850022 203.697932 428.11567 203.048172 425.264943 203.048172 
C 422.414217 203.048172 419.679865 203.697932 417.664096 204.854351 
C 415.648328 206.010769 414.515722 207.579429 414.515722 209.214851 
C 414.515722 210.850274 415.648328 212.418934 417.664096 213.575352 
C 419.679865 214.731771 422.414217 215.381531 425.264943 215.381531 
z
" style="fill:#ff0000;opacity:0.2;stroke:#ff0000;stroke-linejoin:miter;stroke-width:2;"/>
   </g>
   <g id="patch_44">
    <path d="M 370.62307 172.214775 
Q 397.115241 190.153624 421.850901 206.903074 
" style="fill:none;opacity:0.5;stroke:#ff0000;stroke-linecap:round;stroke-width:3;"/>
    <path d="M 421.449893 204.820001 
L 421.850901 206.903074 
L 419.767828 207.304082 
" style="fill:none;opacity:0.5;stroke:#ff0000;stroke-linecap:round;stroke-width:3;"/>
   </g>
   <g id="[&quot;g_s&quot;:6,&quot;g_t&quot;:9,&quot;coords&quot;:[[229.5, -900.0],[248.0, -911.0]],&quot;certainty&quot;:6]">
    <path clip-path="url(#p7a931e5ee6)" d="M 205.801683 255.978837 
C 207.464607 255.978837 209.059645 255.599811 210.23551 254.925233 
C 211.411375 254.250656 212.072062 253.335604 212.072062 252.381608 
C 212.072062 251.427611 211.411375 250.51256 210.23551 249.837982 
C 209.059645 249.163405 207.464607 248.784378 205.801683 248.784378 
C 204.138759 248.784378 202.54372 249.163405 201.367855 249.837982 
C 200.19199 250.51256 199.531304 251.427611 199.531304 252.381608 
C 199.531304 253.335604 200.19199 254.250656 201.367855 254.925233 
C 202.54372 255.599811 204.138759 255.978837 205.801683 255.978837 
z
" style="fill:#0000ff;opacity:0.2;stroke:#0000ff;stroke-linejoin:miter;stroke-width:2;"/>
   </g>
   <g id="[&quot;g_s&quot;:9,&quot;g_t&quot;:6,&quot;coords&quot;:[[248.0, -911.0],[229.5, -900.0]],&quot;certainty&quot;:6]">
    <path clip-path="url(#p7a931e5ee6)" d="M 238.945114 267.284417 
C 240.608038 267.284417 242.203077 266.90539 243.378941 266.230812 
C 244.554806 265.556235 245.215493 264.641183 245.215493 263.687187 
C 245.215493 262.73319 244.554806 261.818139 243.378941 261.143561 
C 242.203077 260.468984 240.608038 260.089957 238.945114 260.089957 
C 237.28219 260.089957 235.687151 260.468984 234.511286 261.143561 
C 233.335422 261.818139 232.674735 262.73319 232.674735 263.687187 
C 232.674735 264.641183 233.335422 265.556235 234.511286 266.230812 
C 235.687151 266.90539 237.28219 267.284417 238.945114 267.284417 
z
" style="fill:#ff0000;opacity:0.2;stroke:#ff0000;stroke-linejoin:miter;stroke-width:2;"/>
   </g>
   <g id="patch_45">
    <path d="M 205.801683 252.381608 
Q 221.428697 257.71215 235.884537 262.643191 
" style="fill:none;opacity:0.5;stroke:#ff0000;stroke-linecap:round;stroke-width:1.75;"/>
    <path d="M 234.949127 260.739246 
L 235.884537 262.643191 
L 233.980592 263.578602 
" style="fill:none;opacity:0.5;stroke:#ff0000;stroke-linecap:round;stroke-width:1.75;"/>
   </g>
   <g id="[&quot;g_s&quot;:7,&quot;g_t&quot;:7,&quot;coords&quot;:[[178.5, -869.0],[148.0, -907.0]],&quot;certainty&quot;:10]">
    <path clip-path="url(#p7a931e5ee6)" d="M 114.433305 226.17322 
C 117.046471 226.17322 119.55296 225.577606 121.400748 224.517556 
C 123.248535 223.457506 124.286757 222.019568 124.286757 220.52043 
C 124.286757 219.021293 123.248535 217.583355 121.400748 216.523305 
C 119.55296 215.463255 117.046471 214.867641 114.433305 214.867641 
C 111.820139 214.867641 109.313649 215.463255 107.465862 216.523305 
C 105.618074 217.583355 104.579852 219.021293 104.579852 220.52043 
C 104.579852 222.019568 105.618074 223.457506 107.465862 224.517556 
C 109.313649 225.577606 111.820139 226.17322 114.433305 226.17322 
z
" style="fill:#0000ff;opacity:0.2;stroke:#0000ff;stroke-linejoin:miter;stroke-width:2;"/>
   </g>
   <g id="[&quot;g_s&quot;:7,&quot;g_t&quot;:7,&quot;coords&quot;:[[148.0, -907.0],[178.5, -869.0]],&quot;certainty&quot;:10]">
    <path clip-path="url(#p7a931e5ee6)" d="M 59.791432 265.228857 
C 62.404598 265.228857 64.911087 264.633243 66.758875 263.573193 
C 68.606662 262.513143 69.644884 261.075204 69.644884 259.576067 
C 69.644884 258.07693 68.606662 256.638992 66.758875 255.578941 
C 64.911087 254.518891 62.404598 253.923278 59.791432 253.923278 
C 57.178265 253.923278 54.671776 254.518891 52.823989 255.578941 
C 50.976201 256.638992 49.937979 258.07693 49.937979 259.576067 
C 49.937979 261.075204 50.976201 262.513143 52.823989 263.573193 
C 54.671776 264.633243 57.178265 265.228857 59.791432 265.228857 
z
" style="fill:#ff0000;opacity:0.2;stroke:#ff0000;stroke-linejoin:miter;stroke-width:2;"/>
   </g>
   <g id="patch_46">
    <path d="M 114.433305 220.52043 
Q 87.924459 239.467802 62.997601 257.284437 
" style="fill:none;opacity:0.5;stroke:#ff0000;stroke-linecap:round;stroke-width:2.75;"/>
    <path d="M 65.090167 257.632527 
L 62.997601 257.284437 
L 63.345692 255.19187 
" style="fill:none;opacity:0.5;stroke:#ff0000;stroke-linecap:round;stroke-width:2.75;"/>
   </g>
   <g id="[&quot;g_s&quot;:8,&quot;g_t&quot;:11,&quot;coords&quot;:[[200.5, -846.0],[198.0, -814.0]],&quot;certainty&quot;:2]">
    <path clip-path="url(#p7a931e5ee6)" d="M 153.847115 198.423162 
C 154.559796 198.423162 155.243384 198.260722 155.747327 197.971618 
C 156.251269 197.682513 156.53442 197.290348 156.53442 196.881492 
C 156.53442 196.472637 156.251269 196.080472 155.747327 195.791367 
C 155.243384 195.502263 154.559796 195.339823 153.847115 195.339823 
C 153.134433 195.339823 152.450845 195.502263 151.946903 195.791367 
C 151.442961 196.080472 151.15981 196.472637 151.15981 196.881492 
C 151.15981 197.290348 151.442961 197.682513 151.946903 197.971618 
C 152.450845 198.260722 153.134433 198.423162 153.847115 198.423162 
z
" style="fill:#0000ff;opacity:0.2;stroke:#0000ff;stroke-linejoin:miter;stroke-width:2;"/>
   </g>
   <g id="[&quot;g_s&quot;:11,&quot;g_t&quot;:8,&quot;coords&quot;:[[198.0, -814.0],[200.5, -846.0]],&quot;certainty&quot;:2]">
    <path clip-path="url(#p7a931e5ee6)" d="M 149.368273 165.534205 
C 150.080954 165.534205 150.764542 165.371765 151.268484 165.08266 
C 151.772427 164.793556 152.055578 164.401391 152.055578 163.992535 
C 152.055578 163.58368 151.772427 163.191515 151.268484 162.90241 
C 150.764542 162.613305 150.080954 162.450865 149.368273 162.450865 
C 148.655591 162.450865 147.972003 162.613305 147.468061 162.90241 
C 146.964119 163.191515 146.680967 163.58368 146.680967 163.992535 
C 146.680967 164.401391 146.964119 164.793556 147.468061 165.08266 
C 147.972003 165.371765 148.655591 165.534205 149.368273 165.534205 
z
" style="fill:#ff0000;opacity:0.2;stroke:#ff0000;stroke-linejoin:miter;stroke-width:2;"/>
   </g>
   <g id="patch_47">
    <path d="M 153.847115 196.881492 
Q 151.742464 181.426654 149.709373 166.497294 
" style="fill:none;opacity:0.5;stroke:#ff0000;stroke-linecap:round;stroke-width:0.75;"/>
    <path d="M 148.425494 168.185979 
L 149.709373 166.497294 
L 151.398057 167.781173 
" style="fill:none;opacity:0.5;stroke:#ff0000;stroke-linecap:round;stroke-width:0.75;"/>
   </g>
   <g id="[&quot;g_s&quot;:9,&quot;g_t&quot;:9,&quot;coords&quot;:[[246.5, -872.0],[248.0, -911.0]],&quot;certainty&quot;:6]">
    <path clip-path="url(#p7a931e5ee6)" d="M 236.257809 227.201 
C 237.920733 227.201 239.515771 226.821973 240.691636 226.147396 
C 241.867501 225.472818 242.528188 224.557767 242.528188 223.60377 
C 242.528188 222.649774 241.867501 221.734722 240.691636 221.060145 
C 239.515771 220.385567 237.920733 220.006541 236.257809 220.006541 
C 234.594885 220.006541 232.999846 220.385567 231.823981 221.060145 
C 230.648116 221.734722 229.98743 222.649774 229.98743 223.60377 
C 229.98743 224.557767 230.648116 225.472818 231.823981 226.147396 
C 232.999846 226.821973 234.594885 227.201 236.257809 227.201 
z
" style="fill:#0000ff;opacity:0.2;stroke:#0000ff;stroke-linejoin:miter;stroke-width:2;"/>
   </g>
   <g id="[&quot;g_s&quot;:9,&quot;g_t&quot;:9,&quot;coords&quot;:[[248.0, -911.0],[246.5, -872.0]],&quot;certainty&quot;:6]">
    <path clip-path="url(#p7a931e5ee6)" d="M 238.945114 267.284417 
C 240.608038 267.284417 242.203077 266.90539 243.378941 266.230812 
C 244.554806 265.556235 245.215493 264.641183 245.215493 263.687187 
C 245.215493 262.73319 244.554806 261.818139 243.378941 261.143561 
C 242.203077 260.468984 240.608038 260.089957 238.945114 260.089957 
C 237.28219 260.089957 235.687151 260.468984 234.511286 261.143561 
C 233.335422 261.818139 232.674735 262.73319 232.674735 263.687187 
C 232.674735 264.641183 233.335422 265.556235 234.511286 266.230812 
C 235.687151 266.90539 237.28219 267.284417 238.945114 267.284417 
z
" style="fill:#ff0000;opacity:0.2;stroke:#ff0000;stroke-linejoin:miter;stroke-width:2;"/>
   </g>
   <g id="patch_48">
    <path d="M 236.257809 223.60377 
Q 237.534705 242.649754 238.728826 260.461073 
" style="fill:none;opacity:0.5;stroke:#ff0000;stroke-linecap:round;stroke-width:1.75;"/>
    <path d="M 240.125127 258.864093 
L 238.728826 260.461073 
L 237.131847 259.064771 
" style="fill:none;opacity:0.5;stroke:#ff0000;stroke-linecap:round;stroke-width:1.75;"/>
   </g>
   <g id="[&quot;g_s&quot;:10,&quot;g_t&quot;:10,&quot;coords&quot;:[[270.5, -844.0],[274.0, -886.0]],&quot;certainty&quot;:11]">
    <path clip-path="url(#p7a931e5ee6)" d="M 279.254692 200.992612 
C 282.105419 200.992612 284.839771 200.342852 286.855539 199.186434 
C 288.871308 198.030015 290.003913 196.461355 290.003913 194.825933 
C 290.003913 193.19051 288.871308 191.62185 286.855539 190.465432 
C 284.839771 189.309013 282.105419 188.659253 279.254692 188.659253 
C 276.403966 188.659253 273.669614 189.309013 271.653845 190.465432 
C 269.638077 191.62185 268.505471 193.19051 268.505471 194.825933 
C 268.505471 196.461355 269.638077 198.030015 271.653845 199.186434 
C 273.669614 200.342852 276.403966 200.992612 279.254692 200.992612 
z
" style="fill:#0000ff;opacity:0.2;stroke:#0000ff;stroke-linejoin:miter;stroke-width:2;"/>
   </g>
   <g id="[&quot;g_s&quot;:10,&quot;g_t&quot;:10,&quot;coords&quot;:[[274.0, -886.0],[270.5, -844.0]],&quot;certainty&quot;:11]">
    <path clip-path="url(#p7a931e5ee6)" d="M 285.525071 244.159368 
C 288.375798 244.159368 291.11015 243.509608 293.125918 242.35319 
C 295.141686 241.196772 296.274292 239.628112 296.274292 237.992689 
C 296.274292 236.357266 295.141686 234.788606 293.125918 233.632188 
C 291.11015 232.47577 288.375798 231.82601 285.525071 231.82601 
C 282.674345 231.82601 279.939992 232.47577 277.924224 233.632188 
C 275.908456 234.788606 274.77585 236.357266 274.77585 237.992689 
C 274.77585 239.628112 275.908456 241.196772 277.924224 242.35319 
C 279.939992 243.509608 282.674345 244.159368 285.525071 244.159368 
z
" style="fill:#ff0000;opacity:0.2;stroke:#ff0000;stroke-linejoin:miter;stroke-width:2;"/>
   </g>
   <g id="patch_49">
    <path d="M 279.254692 194.825933 
Q 282.246173 215.419985 284.932712 233.914749 
" style="fill:none;opacity:0.5;stroke:#ff0000;stroke-linecap:round;stroke-width:3;"/>
    <path d="M 286.201507 232.214702 
L 284.932712 233.914749 
L 283.232665 232.645954 
" style="fill:none;opacity:0.5;stroke:#ff0000;stroke-linecap:round;stroke-width:3;"/>
   </g>
   <g id="[&quot;g_s&quot;:11,&quot;g_t&quot;:11,&quot;coords&quot;:[[215.5, -785.0],[198.0, -814.0]],&quot;certainty&quot;:3]">
    <path clip-path="url(#p7a931e5ee6)" d="M 180.720167 136.242478 
C 181.670409 136.242478 182.58186 136.025891 183.253783 135.640418 
C 183.925706 135.254945 184.303241 134.732059 184.303241 134.186918 
C 184.303241 133.641777 183.925706 133.11889 183.253783 132.733417 
C 182.58186 132.347945 181.670409 132.131358 180.720167 132.131358 
C 179.769925 132.131358 178.858474 132.347945 178.186551 132.733417 
C 177.514629 133.11889 177.137093 133.641777 177.137093 134.186918 
C 177.137093 134.732059 177.514629 135.254945 178.186551 135.640418 
C 178.858474 136.025891 179.769925 136.242478 180.720167 136.242478 
z
" style="fill:#0000ff;opacity:0.2;stroke:#0000ff;stroke-linejoin:miter;stroke-width:2;"/>
   </g>
   <g id="[&quot;g_s&quot;:11,&quot;g_t&quot;:11,&quot;coords&quot;:[[198.0, -814.0],[215.5, -785.0]],&quot;certainty&quot;:3]">
    <path clip-path="url(#p7a931e5ee6)" d="M 149.368273 166.048095 
C 150.318515 166.048095 151.229966 165.831508 151.901888 165.446036 
C 152.573811 165.060563 152.951346 164.537676 152.951346 163.992535 
C 152.951346 163.447394 152.573811 162.924508 151.901888 162.539035 
C 151.229966 162.153562 150.318515 161.936975 149.368273 161.936975 
C 148.41803 161.936975 147.50658 162.153562 146.834657 162.539035 
C 146.162734 162.924508 145.785199 163.447394 145.785199 163.992535 
C 145.785199 164.537676 146.162734 165.060563 146.834657 165.446036 
C 147.50658 165.831508 148.41803 166.048095 149.368273 166.048095 
z
" style="fill:#ff0000;opacity:0.2;stroke:#ff0000;stroke-linejoin:miter;stroke-width:2;"/>
   </g>
   <g id="patch_50">
    <path d="M 180.720167 134.186918 
Q 165.768505 148.401163 151.329322 162.128205 
" style="fill:none;opacity:0.5;stroke:#ff0000;stroke-linecap:round;"/>
    <path d="M 153.449964 162.181823 
L 151.329322 162.128205 
L 151.382939 160.007563 
" style="fill:none;opacity:0.5;stroke:#ff0000;stroke-linecap:round;"/>
   </g>
   <g id="[&quot;g_s&quot;:12,&quot;g_t&quot;:12,&quot;coords&quot;:[[215.5, -780.0],[195.0, -806.0]],&quot;certainty&quot;:9]">
    <path clip-path="url(#p7a931e5ee6)" d="M 180.720167 134.186918 
C 183.095773 134.186918 185.374399 133.645451 187.054206 132.681769 
C 188.734013 131.718087 189.677851 130.41087 189.677851 129.048018 
C 189.677851 127.685166 188.734013 126.377949 187.054206 125.414267 
C 185.374399 124.450586 183.095773 123.909119 180.720167 123.909119 
C 178.344562 123.909119 176.065935 124.450586 174.386128 125.414267 
C 172.706321 126.377949 171.762483 127.685166 171.762483 129.048018 
C 171.762483 130.41087 172.706321 131.718087 174.386128 132.681769 
C 176.065935 133.645451 178.344562 134.186918 180.720167 134.186918 
z
" style="fill:#0000ff;opacity:0.2;stroke:#0000ff;stroke-linejoin:miter;stroke-width:2;"/>
   </g>
   <g id="[&quot;g_s&quot;:12,&quot;g_t&quot;:12,&quot;coords&quot;:[[195.0, -806.0],[215.5, -780.0]],&quot;certainty&quot;:9]">
    <path clip-path="url(#p7a931e5ee6)" d="M 143.993662 160.909196 
C 146.369268 160.909196 148.647895 160.367729 150.327701 159.404047 
C 152.007508 158.440365 152.951346 157.133148 152.951346 155.770296 
C 152.951346 154.407444 152.007508 153.100227 150.327701 152.136545 
C 148.647895 151.172863 146.369268 150.631396 143.993662 150.631396 
C 141.618057 150.631396 139.33943 151.172863 137.659623 152.136545 
C 135.979816 153.100227 135.035978 154.407444 135.035978 155.770296 
C 135.035978 157.133148 135.979816 158.440365 137.659623 159.404047 
C 139.33943 160.367729 141.618057 160.909196 143.993662 160.909196 
z
" style="fill:#ff0000;opacity:0.2;stroke:#ff0000;stroke-linejoin:miter;stroke-width:2;"/>
   </g>
   <g id="patch_51">
    <path d="M 180.720167 129.048018 
Q 163.165014 141.821182 147.039295 153.554288 
" style="fill:none;opacity:0.5;stroke:#ff0000;stroke-linecap:round;stroke-width:2.5;"/>
    <path d="M 149.134727 153.884683 
L 147.039295 153.554288 
L 147.36969 151.458855 
" style="fill:none;opacity:0.5;stroke:#ff0000;stroke-linecap:round;stroke-width:2.5;"/>
   </g>
   <g id="patch_52">
    <path clip-path="url(#p7a931e5ee6)" d="M 280.598345 43.228395 
C 282.973951 43.228395 285.252577 42.686929 286.932384 41.723247 
C 288.612191 40.759565 289.556029 39.452348 289.556029 38.089496 
C 289.556029 36.726644 288.612191 35.419427 286.932384 34.455745 
C 285.252577 33.492063 282.973951 32.950596 280.598345 32.950596 
C 278.222739 32.950596 275.944113 33.492063 274.264306 34.455745 
C 272.584499 35.419427 271.640661 36.726644 271.640661 38.089496 
C 271.640661 39.452348 272.584499 40.759565 274.264306 41.723247 
C 275.944113 42.686929 278.222739 43.228395 280.598345 43.228395 
z
" style="fill:#008000;opacity:0.2;stroke:#008000;stroke-linejoin:miter;stroke-width:2;"/>
   </g>
   <g id="patch_53">
    <path clip-path="url(#p7a931e5ee6)" d="M 355.842892 43.228395 
C 358.218497 43.228395 360.497124 42.686929 362.176931 41.723247 
C 363.856738 40.759565 364.800576 39.452348 364.800576 38.089496 
C 364.800576 36.726644 363.856738 35.419427 362.176931 34.455745 
C 360.497124 33.492063 358.218497 32.950596 355.842892 32.950596 
C 353.467286 32.950596 351.188659 33.492063 349.508852 34.455745 
C 347.829046 35.419427 346.885207 36.726644 346.885207 38.089496 
C 346.885207 39.452348 347.829046 40.759565 349.508852 41.723247 
C 351.188659 42.686929 353.467286 43.228395 355.842892 43.228395 
z
" style="fill:#008000;opacity:0.2;stroke:#008000;stroke-linejoin:miter;stroke-width:2;"/>
   </g>
   <g id="patch_54">
    <path clip-path="url(#p7a931e5ee6)" d="M 291.347566 98.214621 
C 293.723172 98.214621 296.001798 97.673154 297.681605 96.709472 
C 299.361412 95.74579 300.30525 94.438573 300.30525 93.075721 
C 300.30525 91.712869 299.361412 90.405652 297.681605 89.441971 
C 296.001798 88.478289 293.723172 87.936822 291.347566 87.936822 
C 288.97196 87.936822 286.693334 88.478289 285.013527 89.441971 
C 283.33372 90.405652 282.389882 91.712869 282.389882 93.075721 
C 282.389882 94.438573 283.33372 95.74579 285.013527 96.709472 
C 286.693334 97.673154 288.97196 98.214621 291.347566 98.214621 
z
" style="fill:#008000;opacity:0.2;stroke:#008000;stroke-linejoin:miter;stroke-width:2;"/>
   </g>
   <g id="patch_55">
    <path clip-path="url(#p7a931e5ee6)" d="M 306.575629 119.797999 
C 308.951235 119.797999 311.229861 119.256532 312.909668 118.29285 
C 314.589475 117.329168 315.533313 116.021952 315.533313 114.659099 
C 315.533313 113.296247 314.589475 111.989031 312.909668 111.025349 
C 311.229861 110.061667 308.951235 109.5202 306.575629 109.5202 
C 304.200023 109.5202 301.921397 110.061667 300.24159 111.025349 
C 298.561783 111.989031 297.617945 113.296247 297.617945 114.659099 
C 297.617945 116.021952 298.561783 117.329168 300.24159 118.29285 
C 301.921397 119.256532 304.200023 119.797999 306.575629 119.797999 
z
" style="fill:#008000;opacity:0.2;stroke:#008000;stroke-linejoin:miter;stroke-width:2;"/>
   </g>
   <g id="patch_56">
    <path clip-path="url(#p7a931e5ee6)" d="M 397.944007 195.853713 
C 400.319612 195.853713 402.598239 195.312246 404.278046 194.348564 
C 405.957853 193.384882 406.901691 192.077665 406.901691 190.714813 
C 406.901691 189.351961 405.957853 188.044744 404.278046 187.081062 
C 402.598239 186.11738 400.319612 185.575913 397.944007 185.575913 
C 395.568401 185.575913 393.289775 186.11738 391.609968 187.081062 
C 389.930161 188.044744 388.986323 189.351961 388.986323 190.714813 
C 388.986323 192.077665 389.930161 193.384882 391.609968 194.348564 
C 393.289775 195.312246 395.568401 195.853713 397.944007 195.853713 
z
" style="fill:#008000;opacity:0.2;stroke:#008000;stroke-linejoin:miter;stroke-width:2;"/>
   </g>
   <g id="patch_57">
    <path clip-path="url(#p7a931e5ee6)" d="M 87.112368 245.187148 
C 89.487974 245.187148 91.7666 244.645682 93.446407 243.682 
C 95.126214 242.718318 96.070052 241.411101 96.070052 240.048249 
C 96.070052 238.685397 95.126214 237.37818 93.446407 236.414498 
C 91.7666 235.450816 89.487974 234.909349 87.112368 234.909349 
C 84.736763 234.909349 82.458136 235.450816 80.778329 236.414498 
C 79.098522 237.37818 78.154684 238.685397 78.154684 240.048249 
C 78.154684 241.411101 79.098522 242.718318 80.778329 243.682 
C 82.458136 244.645682 84.736763 245.187148 87.112368 245.187148 
z
" style="fill:#008000;opacity:0.2;stroke:#008000;stroke-linejoin:miter;stroke-width:2;"/>
   </g>
   <g id="patch_58">
    <path clip-path="url(#p7a931e5ee6)" d="M 222.373398 263.173297 
C 224.749004 263.173297 227.027631 262.63183 228.707437 261.668148 
C 230.387244 260.704466 231.331082 259.397249 231.331082 258.034397 
C 231.331082 256.671545 230.387244 255.364329 228.707437 254.400647 
C 227.027631 253.436965 224.749004 252.895498 222.373398 252.895498 
C 219.997793 252.895498 217.719166 253.436965 216.039359 254.400647 
C 214.359552 255.364329 213.415714 256.671545 213.415714 258.034397 
C 213.415714 259.397249 214.359552 260.704466 216.039359 261.668148 
C 217.719166 262.63183 219.997793 263.173297 222.373398 263.173297 
z
" style="fill:#008000;opacity:0.2;stroke:#008000;stroke-linejoin:miter;stroke-width:2;"/>
   </g>
   <g id="patch_59">
    <path clip-path="url(#p7a931e5ee6)" d="M 162.356915 147.548057 
C 164.73252 147.548057 167.011147 147.00659 168.690954 146.042908 
C 170.370761 145.079226 171.314599 143.772009 171.314599 142.409157 
C 171.314599 141.046305 170.370761 139.739088 168.690954 138.775406 
C 167.011147 137.811724 164.73252 137.270258 162.356915 137.270258 
C 159.981309 137.270258 157.702682 137.811724 156.022876 138.775406 
C 154.343069 139.739088 153.399231 141.046305 153.399231 142.409157 
C 153.399231 143.772009 154.343069 145.079226 156.022876 146.042908 
C 157.702682 147.00659 159.981309 147.548057 162.356915 147.548057 
z
" style="fill:#008000;opacity:0.2;stroke:#008000;stroke-linejoin:miter;stroke-width:2;"/>
   </g>
   <g id="patch_60">
    <path clip-path="url(#p7a931e5ee6)" d="M 272.984313 67.381223 
C 282.486736 67.381223 291.601243 65.215356 298.32047 61.360628 
C 305.039698 57.5059 308.81505 52.277034 308.81505 46.825625 
C 308.81505 41.374217 305.039698 36.14535 298.32047 32.290622 
C 291.601243 28.435894 282.486736 26.270027 272.984313 26.270027 
C 263.481891 26.270027 254.367384 28.435894 247.648157 32.290622 
C 240.928929 36.14535 237.153577 41.374217 237.153577 46.825625 
C 237.153577 52.277034 240.928929 57.5059 247.648157 61.360628 
C 254.367384 65.215356 263.481891 67.381223 272.984313 67.381223 
z
" style="fill:none;opacity:0.2;stroke:#ff0000;stroke-linejoin:miter;stroke-width:2;"/>
   </g>
   <g id="patch_61">
    <path clip-path="url(#p7a931e5ee6)" d="M 288.212376 49.908965 
C 297.714799 49.908965 306.829306 47.743097 313.548533 43.88837 
C 320.26776 40.033642 324.043113 34.804775 324.043113 29.353367 
C 324.043113 23.901958 320.26776 18.673092 313.548533 14.818364 
C 306.829306 10.963636 297.714799 8.797768 288.212376 8.797768 
C 278.709954 8.797768 269.595447 10.963636 262.87622 14.818364 
C 256.156992 18.673092 252.38164 23.901958 252.38164 29.353367 
C 252.38164 34.804775 256.156992 40.033642 262.87622 43.88837 
C 269.595447 47.743097 278.709954 49.908965 288.212376 49.908965 
z
" style="fill:none;opacity:0.2;stroke:#0000ff;stroke-linejoin:miter;stroke-width:2;"/>
   </g>
   <g id="patch_62">
    <path clip-path="url(#p7a931e5ee6)" d="M 272.984313 57.103424 
C 277.735525 57.103424 282.292778 56.020491 285.652392 54.093127 
C 289.012005 52.165763 290.899682 49.551329 290.899682 46.825625 
C 290.899682 44.099921 289.012005 41.485488 285.652392 39.558124 
C 282.292778 37.63076 277.735525 36.547826 272.984313 36.547826 
C 268.233102 36.547826 263.675849 37.63076 260.316235 39.558124 
C 256.956621 41.485488 255.068945 44.099921 255.068945 46.825625 
C 255.068945 49.551329 256.956621 52.165763 260.316235 54.093127 
C 263.675849 56.020491 268.233102 57.103424 272.984313 57.103424 
z
" style="fill:none;opacity:0.2;stroke:#008000;stroke-linejoin:miter;stroke-width:2;"/>
   </g>
   <g id="patch_63">
    <path clip-path="url(#p7a931e5ee6)" d="M 288.212376 39.631166 
C 292.963588 39.631166 297.520841 38.548232 300.880455 36.620868 
C 304.240068 34.693504 306.127745 32.079071 306.127745 29.353367 
C 306.127745 26.627662 304.240068 24.013229 300.880455 22.085865 
C 297.520841 20.158501 292.963588 19.075568 288.212376 19.075568 
C 283.461165 19.075568 278.903912 20.158501 275.544298 22.085865 
C 272.184684 24.013229 270.297008 26.627662 270.297008 29.353367 
C 270.297008 32.079071 272.184684 34.693504 275.544298 36.620868 
C 278.903912 38.548232 283.461165 39.631166 288.212376 39.631166 
z
" style="fill:none;opacity:0.2;stroke:#008000;stroke-linejoin:miter;stroke-width:2;"/>
   </g>
   <g id="patch_64">
    <path d="M 280.598345 38.089496 
Q 318.220618 38.089496 355.842892 38.089496 
" style="fill:none;opacity:0.5;stroke:#008000;stroke-linecap:round;stroke-width:2;"/>
   </g>
   <g id="patch_65">
    <path d="M 273.913499 45.759504 
Q 279.941226 38.843456 285.968953 31.927409 
" style="fill:none;opacity:0.5;stroke:#800080;stroke-linecap:round;stroke-width:2;"/>
    <path d="M 276.029841 45.614261 
L 273.913499 45.759504 
L 273.768256 43.643162 
" style="fill:none;opacity:0.5;stroke:#800080;stroke-linecap:round;stroke-width:2;"/>
    <path d="M 283.852611 32.072652 
L 285.968953 31.927409 
L 286.114196 34.043751 
" style="fill:none;opacity:0.5;stroke:#800080;stroke-linecap:round;stroke-width:2;"/>
   </g>
   <g id="patch_66">
    <path d="M 355.842892 38.089496 
Q 323.595229 65.582609 291.347566 93.075721 
" style="fill:none;opacity:0.5;stroke:#008000;stroke-linecap:round;stroke-width:2;"/>
   </g>
   <g id="patch_67">
    <path d="M 366.789399 45.997468 
Q 356.653315 38.674962 346.517231 31.352455 
" style="fill:none;opacity:0.5;stroke:#800080;stroke-linecap:round;stroke-width:2;"/>
    <path d="M 366.451888 43.903169 
L 366.789399 45.997468 
L 364.6951 46.334979 
" style="fill:none;opacity:0.5;stroke:#800080;stroke-linecap:round;stroke-width:2;"/>
    <path d="M 346.854742 33.446754 
L 346.517231 31.352455 
L 348.611529 31.014944 
" style="fill:none;opacity:0.5;stroke:#800080;stroke-linecap:round;stroke-width:2;"/>
   </g>
   <g id="patch_68">
    <path d="M 291.347566 93.075721 
Q 298.961597 103.86741 306.575629 114.659099 
" style="fill:none;opacity:0.5;stroke:#008000;stroke-linecap:round;stroke-width:2;"/>
   </g>
   <g id="patch_69">
    <path d="M 298.77739 99.357135 
Q 292.111079 93.72122 285.444769 88.085306 
" style="fill:none;opacity:0.5;stroke:#800080;stroke-linecap:round;stroke-width:2;"/>
    <path d="M 298.600335 97.243216 
L 298.77739 99.357135 
L 296.663472 99.53419 
" style="fill:none;opacity:0.5;stroke:#800080;stroke-linecap:round;stroke-width:2;"/>
    <path d="M 285.621824 90.199224 
L 285.444769 88.085306 
L 287.558687 87.908251 
" style="fill:none;opacity:0.5;stroke:#800080;stroke-linecap:round;stroke-width:2;"/>
   </g>
   <g id="patch_70">
    <path d="M 306.575629 114.659099 
Q 352.259818 152.686956 397.944007 190.714813 
" style="fill:none;opacity:0.5;stroke:#008000;stroke-linecap:round;stroke-width:2;"/>
   </g>
   <g id="patch_71">
    <path d="M 314.857919 120.994346 
Q 307.368994 115.265956 299.880069 109.537566 
" style="fill:none;opacity:0.5;stroke:#800080;stroke-linecap:round;stroke-width:2;"/>
    <path d="M 314.577835 118.891598 
L 314.857919 120.994346 
L 312.75517 121.274431 
" style="fill:none;opacity:0.5;stroke:#800080;stroke-linecap:round;stroke-width:2;"/>
    <path d="M 300.160154 111.640315 
L 299.880069 109.537566 
L 301.982818 109.257482 
" style="fill:none;opacity:0.5;stroke:#800080;stroke-linecap:round;stroke-width:2;"/>
   </g>
   <g id="patch_72">
    <path d="M 397.944007 190.714813 
Q 299.857366 234.652404 201.770725 278.589996 
" style="fill:none;opacity:0.5;stroke:#008000;stroke-linecap:round;stroke-width:2;"/>
   </g>
   <g id="patch_73">
    <path d="M 424.093936 208.421918 
Q 398.772773 191.276002 373.45161 174.130085 
" style="fill:none;opacity:0.5;stroke:#800080;stroke-linecap:round;stroke-width:2;"/>
    <path d="M 423.692929 206.338846 
L 424.093936 208.421918 
L 422.010864 208.822926 
" style="fill:none;opacity:0.5;stroke:#800080;stroke-linecap:round;stroke-width:2;"/>
    <path d="M 373.852618 176.213158 
L 373.45161 174.130085 
L 375.534683 173.729078 
" style="fill:none;opacity:0.5;stroke:#800080;stroke-linecap:round;stroke-width:2;"/>
   </g>
   <g id="patch_74">
    <path d="M 201.770725 278.589996 
Q 144.441546 259.319122 87.112368 240.048249 
" style="fill:none;opacity:0.5;stroke:#008000;stroke-linecap:round;stroke-width:2;"/>
   </g>
   <g id="patch_75">
    <path d="M 197.954751 303.400606 
Q 201.618924 279.576969 205.283098 255.753332 
" style="fill:none;opacity:0.5;stroke:#800080;stroke-linecap:round;stroke-width:2;"/>
    <path d="M 199.665343 302.146064 
L 197.954751 303.400606 
L 196.700209 301.690014 
" style="fill:none;opacity:0.5;stroke:#800080;stroke-linecap:round;stroke-width:2;"/>
    <path d="M 203.572506 257.007874 
L 205.283098 255.753332 
L 206.53764 257.463924 
" style="fill:none;opacity:0.5;stroke:#800080;stroke-linecap:round;stroke-width:2;"/>
   </g>
   <g id="patch_76">
    <path d="M 87.112368 240.048249 
Q 154.742883 249.041323 222.373398 258.034397 
" style="fill:none;opacity:0.5;stroke:#008000;stroke-linecap:round;stroke-width:2;"/>
   </g>
   <g id="patch_77">
    <path d="M 60.941968 258.753714 
Q 86.300277 240.628696 111.658586 222.503679 
" style="fill:none;opacity:0.5;stroke:#800080;stroke-linecap:round;stroke-width:2;"/>
    <path d="M 63.034534 259.101804 
L 60.941968 258.753714 
L 61.290059 256.661147 
" style="fill:none;opacity:0.5;stroke:#800080;stroke-linecap:round;stroke-width:2;"/>
    <path d="M 109.56602 222.155588 
L 111.658586 222.503679 
L 111.310496 224.596245 
" style="fill:none;opacity:0.5;stroke:#800080;stroke-linecap:round;stroke-width:2;"/>
   </g>
   <g id="patch_78">
    <path clip-path="url(#p7a931e5ee6)" d="M 143.993662 166.048095 
C 148.744873 166.048095 153.302127 164.965161 156.661741 163.037797 
C 160.021354 161.110434 161.90903 158.496 161.90903 155.770296 
C 161.90903 153.044592 160.021354 150.430158 156.661741 148.502794 
C 153.302127 146.575431 148.744873 145.492497 143.993662 145.492497 
C 139.242451 145.492497 134.685198 146.575431 131.325584 148.502794 
C 127.96597 150.430158 126.078294 153.044592 126.078294 155.770296 
C 126.078294 158.496 127.96597 161.110434 131.325584 163.037797 
C 134.685198 164.965161 139.242451 166.048095 143.993662 166.048095 
z
" style="fill:none;opacity:0.2;stroke:#008000;stroke-linejoin:miter;stroke-width:2;"/>
   </g>
   <g id="patch_79">
    <path clip-path="url(#p7a931e5ee6)" d="M 180.720167 139.325817 
C 185.471378 139.325817 190.028632 138.242884 193.388245 136.31552 
C 196.747859 134.388156 198.635535 131.773722 198.635535 129.048018 
C 198.635535 126.322314 196.747859 123.707881 193.388245 121.780517 
C 190.028632 119.853153 185.471378 118.770219 180.720167 118.770219 
C 175.968956 118.770219 171.411702 119.853153 168.052089 121.780517 
C 164.692475 123.707881 162.804799 126.322314 162.804799 129.048018 
C 162.804799 131.773722 164.692475 134.388156 168.052089 136.31552 
C 171.411702 138.242884 175.968956 139.325817 180.720167 139.325817 
z
" style="fill:none;opacity:0.2;stroke:#008000;stroke-linejoin:miter;stroke-width:2;"/>
   </g>
   <g id="patch_80">
    <path d="M 162.356915 142.409157 
Q 221.47763 90.249326 280.598345 38.089496 
" style="fill:none;opacity:0.5;stroke:#008000;stroke-linecap:round;stroke-width:2;"/>
   </g>
   <g id="patch_81">
    <path d="M 145.137209 154.938249 
Q 161.548815 142.997132 177.960421 131.056015 
" style="fill:none;opacity:0.5;stroke:#800080;stroke-linecap:round;stroke-width:2;"/>
    <path d="M 147.232642 155.268645 
L 145.137209 154.938249 
L 145.467604 152.842816 
" style="fill:none;opacity:0.5;stroke:#800080;stroke-linecap:round;stroke-width:2;"/>
    <path d="M 175.864989 130.725619 
L 177.960421 131.056015 
L 177.630026 133.151448 
" style="fill:none;opacity:0.5;stroke:#800080;stroke-linecap:round;stroke-width:2;"/>
   </g>
   <g id="line2d_1">
    <path clip-path="url(#p7a931e5ee6)" d="M 272.984313 46.825625 
L 367.935765 46.825625 
L 299.857366 100.270181 
L 315.981197 121.853559 
L 425.264943 209.214851 
L 197.739767 304.798383 
L 59.791432 259.576067 
L 117.12061 225.65933 
L 238.945114 263.687187 
L 285.525071 237.992689 
L 149.368273 163.992535 
L 143.993662 155.770296 
" style="fill:none;stroke:#ff0000;stroke-linecap:square;stroke-width:0.2;"/>
   </g>
   <g id="line2d_2">
    <path clip-path="url(#p7a931e5ee6)" d="M 288.212376 29.353367 
L 343.750018 29.353367 
L 282.837766 85.881262 
L 297.170061 107.46464 
L 370.62307 172.214775 
L 205.801683 252.381608 
L 114.433305 220.52043 
L 153.847115 196.881492 
L 236.257809 223.60377 
L 279.254692 194.825933 
L 180.720167 134.186918 
L 180.720167 129.048018 
" style="fill:none;stroke:#0000ff;stroke-linecap:square;stroke-width:0.2;"/>
   </g>
  </g>
 </g>
 <defs>
  <clipPath id="p7a931e5ee6">
   <rect height="307.51175" width="409.903625" x="37.576375" y="13.32"/>
  </clipPath>
 </defs>
</svg>
