<?xml version="1.0" encoding="utf-8" standalone="no"?>
<!DOCTYPE svg PUBLIC "-//W3C//DTD SVG 1.1//EN"
  "http://www.w3.org/Graphics/SVG/1.1/DTD/svg11.dtd">
<!-- Created with matplotlib (http://matplotlib.org/) -->
<svg height="345.6pt" version="1.1" viewBox="0 0 460.8 345.6" width="460.8pt" xmlns="http://www.w3.org/2000/svg" xmlns:xlink="http://www.w3.org/1999/xlink">
 <defs>
  <style type="text/css">
*{stroke-linecap:butt;stroke-linejoin:round;}
  </style>
 </defs>
 <g id="figure_1">
  <g id="patch_1">
   <path d="M 0 345.6 
L 460.8 345.6 
L 460.8 0 
L 0 0 
z
" style="fill:#ffffff;"/>
  </g>
  <g id="axes_1">
   <g id="patch_2">
    <path clip-path="url(#paf68caec31)" d="M 243.062055 146.852665 
C 244.194722 146.852665 245.281151 146.727321 246.082067 146.504239 
C 246.882984 146.281157 247.332997 145.97855 247.332997 145.663065 
C 247.332997 145.347579 246.882984 145.044972 246.082067 144.82189 
C 245.281151 144.598808 244.194722 144.473464 243.062055 144.473464 
C 241.929388 144.473464 240.84296 144.598808 240.042043 144.82189 
C 239.241127 145.044972 238.791114 145.347579 238.791114 145.663065 
C 238.791114 145.97855 239.241127 146.281157 240.042043 146.504239 
C 240.84296 146.727321 241.929388 146.852665 243.062055 146.852665 
z
" style="fill:#ff0000;opacity:0.2;stroke:#ff0000;stroke-linejoin:miter;stroke-width:2;"/>
   </g>
   <g id="patch_3">
    <path clip-path="url(#paf68caec31)" d="M 70.088918 100.458243 
C 71.221585 100.458243 72.308014 100.332899 73.10893 100.109817 
C 73.909847 99.886734 74.35986 99.584128 74.35986 99.268642 
C 74.35986 98.953156 73.909847 98.650549 73.10893 98.427467 
C 72.308014 98.204385 71.221585 98.079041 70.088918 98.079041 
C 68.956251 98.079041 67.869823 98.204385 67.068907 98.427467 
C 66.26799 98.650549 65.817977 98.953156 65.817977 99.268642 
C 65.817977 99.584128 66.26799 99.886734 67.068907 100.109817 
C 67.869823 100.332899 68.956251 100.458243 70.088918 100.458243 
z
" style="fill:#ff0000;opacity:0.2;stroke:#ff0000;stroke-linejoin:miter;stroke-width:2;"/>
   </g>
   <g id="patch_4">
    <path clip-path="url(#paf68caec31)" d="M 243.062055 49.305418 
C 244.194722 49.305418 245.281151 49.180074 246.082067 48.956992 
C 246.882984 48.733909 247.332997 48.431303 247.332997 48.115817 
C 247.332997 47.800331 246.882984 47.497724 246.082067 47.274642 
C 245.281151 47.05156 244.194722 46.926216 243.062055 46.926216 
C 241.929388 46.926216 240.84296 47.05156 240.042043 47.274642 
C 239.241127 47.497724 238.791114 47.800331 238.791114 48.115817 
C 238.791114 48.431303 239.241127 48.733909 240.042043 48.956992 
C 240.84296 49.180074 241.929388 49.305418 243.062055 49.305418 
z
" style="fill:#ff0000;opacity:0.2;stroke:#ff0000;stroke-linejoin:miter;stroke-width:2;"/>
   </g>
   <g id="patch_5">
    <path clip-path="url(#paf68caec31)" d="M 416.035192 100.458243 
C 417.167859 100.458243 418.254287 100.332899 419.055204 100.109817 
C 419.85612 99.886734 420.306134 99.584128 420.306134 99.268642 
C 420.306134 98.953156 419.85612 98.650549 419.055204 98.427467 
C 418.254287 98.204385 417.167859 98.079041 416.035192 98.079041 
C 414.902525 98.079041 413.816097 98.204385 413.01518 98.427467 
C 412.214264 98.650549 411.76425 98.953156 411.76425 99.268642 
C 411.76425 99.584128 412.214264 99.886734 413.01518 100.109817 
C 413.816097 100.332899 414.902525 100.458243 416.035192 100.458243 
z
" style="fill:#ff0000;opacity:0.2;stroke:#ff0000;stroke-linejoin:miter;stroke-width:2;"/>
   </g>
   <g id="patch_6">
    <path clip-path="url(#paf68caec31)" d="M 243.062055 102.242643 
C 244.194722 102.242643 245.281151 102.1173 246.082067 101.894217 
C 246.882984 101.671135 247.332997 101.368529 247.332997 101.053043 
C 247.332997 100.737557 246.882984 100.43495 246.082067 100.211868 
C 245.281151 99.988786 244.194722 99.863442 243.062055 99.863442 
C 241.929388 99.863442 240.84296 99.988786 240.042043 100.211868 
C 239.241127 100.43495 238.791114 100.737557 238.791114 101.053043 
C 238.791114 101.368529 239.241127 101.671135 240.042043 101.894217 
C 240.84296 102.1173 241.929388 102.242643 243.062055 102.242643 
z
" style="fill:#0000ff;opacity:0.2;stroke:#0000ff;stroke-linejoin:miter;stroke-width:2;"/>
   </g>
   <g id="patch_7">
    <path clip-path="url(#paf68caec31)" d="M 123.475689 69.528627 
C 124.608356 69.528627 125.694784 69.403284 126.495701 69.180201 
C 127.296617 68.957119 127.746631 68.654513 127.746631 68.339027 
C 127.746631 68.023541 127.296617 67.720934 126.495701 67.497852 
C 125.694784 67.27477 124.608356 67.149426 123.475689 67.149426 
C 122.343022 67.149426 121.256594 67.27477 120.455677 67.497852 
C 119.654761 67.720934 119.204747 68.023541 119.204747 68.339027 
C 119.204747 68.654513 119.654761 68.957119 120.455677 69.180201 
C 121.256594 69.403284 122.343022 69.528627 123.475689 69.528627 
z
" style="fill:#0000ff;opacity:0.2;stroke:#0000ff;stroke-linejoin:miter;stroke-width:2;"/>
   </g>
   <g id="patch_8">
    <path clip-path="url(#paf68caec31)" d="M 243.062055 34.43541 
C 244.194722 34.43541 245.281151 34.310066 246.082067 34.086984 
C 246.882984 33.863902 247.332997 33.561295 247.332997 33.24581 
C 247.332997 32.930324 246.882984 32.627717 246.082067 32.404635 
C 245.281151 32.181553 244.194722 32.056209 243.062055 32.056209 
C 241.929388 32.056209 240.84296 32.181553 240.042043 32.404635 
C 239.241127 32.627717 238.791114 32.930324 238.791114 33.24581 
C 238.791114 33.561295 239.241127 33.863902 240.042043 34.086984 
C 240.84296 34.310066 241.929388 34.43541 243.062055 34.43541 
z
" style="fill:#0000ff;opacity:0.2;stroke:#0000ff;stroke-linejoin:miter;stroke-width:2;"/>
   </g>
   <g id="patch_9">
    <path clip-path="url(#paf68caec31)" d="M 362.648421 69.528627 
C 363.781088 69.528627 364.867517 69.403284 365.668433 69.180201 
C 366.46935 68.957119 366.919363 68.654513 366.919363 68.339027 
C 366.919363 68.023541 366.46935 67.720934 365.668433 67.497852 
C 364.867517 67.27477 363.781088 67.149426 362.648421 67.149426 
C 361.515754 67.149426 360.429326 67.27477 359.62841 67.497852 
C 358.827493 67.720934 358.37748 68.023541 358.37748 68.339027 
C 358.37748 68.654513 358.827493 68.957119 359.62841 69.180201 
C 360.429326 69.403284 361.515754 69.528627 362.648421 69.528627 
z
" style="fill:#0000ff;opacity:0.2;stroke:#0000ff;stroke-linejoin:miter;stroke-width:2;"/>
   </g>
   <g id="patch_10">
    <path clip-path="url(#paf68caec31)" d="M 243.062055 145.663065 
C 157.643222 145.663065 70.088918 127.819056 70.088918 99.268642 
C 70.088918 70.123428 146.965868 48.115817 243.062055 48.115817 
C 345.564655 48.115817 416.035192 71.907829 416.035192 99.268642 
C 416.035192 126.034655 345.564655 145.663065 243.062055 145.663065 
" style="fill:none;stroke:#ff0000;stroke-linejoin:miter;stroke-width:0.5;"/>
   </g>
   <g id="patch_11">
    <path clip-path="url(#paf68caec31)" d="M 243.062055 101.053043 
C 181.133401 101.053043 123.475689 88.562237 123.475689 68.339027 
C 123.475689 48.115817 174.726989 33.24581 243.062055 33.24581 
C 315.668063 33.24581 362.648421 49.305418 362.648421 68.339027 
C 362.648421 87.372636 315.668063 101.053043 243.062055 101.053043 
" style="fill:none;stroke:#0000ff;stroke-linejoin:miter;stroke-width:0.5;"/>
   </g>
   <g id="[&quot;g_s&quot;:1,&quot;g_t&quot;:2,&quot;coords&quot;:[[180.0, -470.0],[124.0, -340.0]],&quot;certainty&quot;:10]">
    <path clip-path="url(#paf68caec31)" d="M 243.062055 148.934466 
C 246.176889 148.934466 249.164567 148.589771 251.367088 147.976295 
C 253.569608 147.362819 254.807145 146.53065 254.807145 145.663065 
C 254.807145 144.795479 253.569608 143.96331 251.367088 143.349834 
C 249.164567 142.736358 246.176889 142.391663 243.062055 142.391663 
C 239.947221 142.391663 236.959543 142.736358 234.757023 143.349834 
C 232.554502 143.96331 231.316966 144.795479 231.316966 145.663065 
C 231.316966 146.53065 232.554502 147.362819 234.757023 147.976295 
C 236.959543 148.589771 239.947221 148.934466 243.062055 148.934466 
z
" style="fill:#0000ff;opacity:0.2;stroke:#0000ff;stroke-linejoin:miter;stroke-width:2;"/>
   </g>
   <g id="[&quot;g_s&quot;:2,&quot;g_t&quot;:1,&quot;coords&quot;:[[124.0, -340.0],[180.0, -470.0]],&quot;certainty&quot;:10]">
    <path clip-path="url(#paf68caec31)" d="M 123.475689 71.610428 
C 126.590523 71.610428 129.578201 71.265733 131.780721 70.652257 
C 133.983242 70.038781 135.220779 69.206613 135.220779 68.339027 
C 135.220779 67.471441 133.983242 66.639272 131.780721 66.025797 
C 129.578201 65.412321 126.590523 65.067625 123.475689 65.067625 
C 120.360855 65.067625 117.373177 65.412321 115.170657 66.025797 
C 112.968136 66.639272 111.730599 67.471441 111.730599 68.339027 
C 111.730599 69.206613 112.968136 70.038781 115.170657 70.652257 
C 117.373177 71.265733 120.360855 71.610428 123.475689 71.610428 
z
" style="fill:#ff0000;opacity:0.2;stroke:#ff0000;stroke-linejoin:miter;stroke-width:2;"/>
   </g>
   <g id="patch_12">
    <path d="M 243.062055 145.663065 
Q 184.110079 107.544966 126.791028 70.482711 
" style="fill:none;opacity:0.5;stroke:#0000ff;stroke-linecap:round;stroke-width:2.75;"/>
    <path d="M 127.236183 72.556798 
L 126.791028 70.482711 
L 128.865115 70.037555 
" style="fill:none;opacity:0.5;stroke:#0000ff;stroke-linecap:round;stroke-width:2.75;"/>
   </g>
   <g id="[&quot;g_s&quot;:2,&quot;g_t&quot;:1,&quot;coords&quot;:[[99.0, -392.0],[180.0, -395.0]],&quot;certainty&quot;:12]">
    <path clip-path="url(#paf68caec31)" d="M 70.088918 103.134844 
C 73.770086 103.134844 77.300978 102.727476 79.903957 102.002459 
C 82.506935 101.277443 83.969479 100.293971 83.969479 99.268642 
C 83.969479 98.243313 82.506935 97.259841 79.903957 96.534824 
C 77.300978 95.809807 73.770086 95.40244 70.088918 95.40244 
C 66.407751 95.40244 62.876859 95.809807 60.27388 96.534824 
C 57.670901 97.259841 56.208358 98.243313 56.208358 99.268642 
C 56.208358 100.293971 57.670901 101.277443 60.27388 102.002459 
C 62.876859 102.727476 66.407751 103.134844 70.088918 103.134844 
z
" style="fill:#0000ff;opacity:0.2;stroke:#0000ff;stroke-linejoin:miter;stroke-width:2;"/>
   </g>
   <g id="[&quot;g_s&quot;:1,&quot;g_t&quot;:2,&quot;coords&quot;:[[180.0, -395.0],[99.0, -392.0]],&quot;certainty&quot;:12]">
    <path clip-path="url(#paf68caec31)" d="M 243.062055 104.919245 
C 246.743223 104.919245 250.274115 104.511877 252.877094 103.78686 
C 255.480072 103.061843 256.942616 102.078372 256.942616 101.053043 
C 256.942616 100.027714 255.480072 99.044242 252.877094 98.319225 
C 250.274115 97.594208 246.743223 97.186841 243.062055 97.186841 
C 239.380888 97.186841 235.849995 97.594208 233.247017 98.319225 
C 230.644038 99.044242 229.181495 100.027714 229.181495 101.053043 
C 229.181495 102.078372 230.644038 103.061843 233.247017 103.78686 
C 235.849995 104.511877 239.380888 104.919245 243.062055 104.919245 
z
" style="fill:#ff0000;opacity:0.2;stroke:#ff0000;stroke-linejoin:miter;stroke-width:2;"/>
   </g>
   <g id="patch_13">
    <path d="M 70.088918 99.268642 
Q 155.576489 100.150537 238.766084 101.008725 
" style="fill:none;opacity:0.5;stroke:#0000ff;stroke-linecap:round;stroke-width:3.25;"/>
    <path d="M 237.281638 99.493332 
L 238.766084 101.008725 
L 237.250691 102.493172 
" style="fill:none;opacity:0.5;stroke:#0000ff;stroke-linecap:round;stroke-width:3.25;"/>
   </g>
   <g id="[&quot;g_s&quot;:3,&quot;g_t&quot;:3,&quot;coords&quot;:[[180.0, -306.0],[180.0, -281.0]],&quot;certainty&quot;:11]">
    <path clip-path="url(#paf68caec31)" d="M 243.062055 51.684619 
C 246.460056 51.684619 249.719341 51.308587 252.122091 50.639341 
C 254.52484 49.970095 255.87488 49.062274 255.87488 48.115817 
C 255.87488 47.16936 254.52484 46.261539 252.122091 45.592293 
C 249.719341 44.923047 246.460056 44.547015 243.062055 44.547015 
C 239.664054 44.547015 236.404769 44.923047 234.00202 45.592293 
C 231.59927 46.261539 230.24923 47.16936 230.24923 48.115817 
C 230.24923 49.062274 231.59927 49.970095 234.00202 50.639341 
C 236.404769 51.308587 239.664054 51.684619 243.062055 51.684619 
z
" style="fill:#0000ff;opacity:0.2;stroke:#0000ff;stroke-linejoin:miter;stroke-width:2;"/>
   </g>
   <g id="[&quot;g_s&quot;:3,&quot;g_t&quot;:3,&quot;coords&quot;:[[180.0, -281.0],[180.0, -306.0]],&quot;certainty&quot;:11]">
    <path clip-path="url(#paf68caec31)" d="M 243.062055 36.814611 
C 246.460056 36.814611 249.719341 36.43858 252.122091 35.769334 
C 254.52484 35.100087 255.87488 34.192267 255.87488 33.24581 
C 255.87488 32.299352 254.52484 31.391532 252.122091 30.722286 
C 249.719341 30.053039 246.460056 29.677008 243.062055 29.677008 
C 239.664054 29.677008 236.404769 30.053039 234.00202 30.722286 
C 231.59927 31.391532 230.24923 32.299352 230.24923 33.24581 
C 230.24923 34.192267 231.59927 35.100087 234.00202 35.769334 
C 236.404769 36.43858 239.664054 36.814611 243.062055 36.814611 
z
" style="fill:#ff0000;opacity:0.2;stroke:#ff0000;stroke-linejoin:miter;stroke-width:2;"/>
   </g>
   <g id="patch_14">
    <path d="M 243.062055 48.115817 
Q 243.062055 41.680981 243.062055 37.367466 
" style="fill:none;opacity:0.5;stroke:#0000ff;stroke-linecap:round;stroke-width:3;"/>
    <path d="M 241.562055 38.867466 
L 243.062055 37.367466 
L 244.562055 38.867466 
" style="fill:none;opacity:0.5;stroke:#0000ff;stroke-linecap:round;stroke-width:3;"/>
   </g>
   <g id="[&quot;g_s&quot;:4,&quot;g_t&quot;:4,&quot;coords&quot;:[[261.0, -392.0],[236.0, -340.0]],&quot;certainty&quot;:11]">
    <path clip-path="url(#paf68caec31)" d="M 416.035192 102.837444 
C 419.433193 102.837444 422.692478 102.461412 425.095228 101.792166 
C 427.497977 101.122919 428.848017 100.215099 428.848017 99.268642 
C 428.848017 98.322185 427.497977 97.414364 425.095228 96.745118 
C 422.692478 96.075872 419.433193 95.69984 416.035192 95.69984 
C 412.637191 95.69984 409.377906 96.075872 406.975157 96.745118 
C 404.572407 97.414364 403.222367 98.322185 403.222367 99.268642 
C 403.222367 100.215099 404.572407 101.122919 406.975157 101.792166 
C 409.377906 102.461412 412.637191 102.837444 416.035192 102.837444 
z
" style="fill:#0000ff;opacity:0.2;stroke:#0000ff;stroke-linejoin:miter;stroke-width:2;"/>
   </g>
   <g id="[&quot;g_s&quot;:4,&quot;g_t&quot;:4,&quot;coords&quot;:[[236.0, -340.0],[261.0, -392.0]],&quot;certainty&quot;:11]">
    <path clip-path="url(#paf68caec31)" d="M 362.648421 71.907829 
C 366.046422 71.907829 369.305707 71.531797 371.708457 70.862551 
C 374.111206 70.193304 375.461246 69.285484 375.461246 68.339027 
C 375.461246 67.39257 374.111206 66.484749 371.708457 65.815503 
C 369.305707 65.146257 366.046422 64.770225 362.648421 64.770225 
C 359.250421 64.770225 355.991136 65.146257 353.588386 65.815503 
C 351.185637 66.484749 349.835596 67.39257 349.835596 68.339027 
C 349.835596 69.285484 351.185637 70.193304 353.588386 70.862551 
C 355.991136 71.531797 359.250421 71.907829 362.648421 71.907829 
z
" style="fill:#ff0000;opacity:0.2;stroke:#ff0000;stroke-linejoin:miter;stroke-width:2;"/>
   </g>
   <g id="patch_15">
    <path d="M 416.035192 99.268642 
Q 390.206931 84.305044 366.214195 70.404857 
" style="fill:none;opacity:0.5;stroke:#0000ff;stroke-linecap:round;stroke-width:3;"/>
    <path d="M 366.760162 72.454715 
L 366.214195 70.404857 
L 368.264053 69.85889 
" style="fill:none;opacity:0.5;stroke:#0000ff;stroke-linecap:round;stroke-width:3;"/>
   </g>
   <g id="[&quot;g_s&quot;:1,&quot;g_t&quot;:1,&quot;coords&quot;:[[180.0, -395.0],[180.0, -470.0]],&quot;certainty&quot;:10]">
    <path clip-path="url(#paf68caec31)" d="M 243.062055 104.324444 
C 246.176889 104.324444 249.164567 103.979749 251.367088 103.366273 
C 253.569608 102.752797 254.807145 101.920629 254.807145 101.053043 
C 254.807145 100.185457 253.569608 99.353288 251.367088 98.739813 
C 249.164567 98.126337 246.176889 97.781641 243.062055 97.781641 
C 239.947221 97.781641 236.959543 98.126337 234.757023 98.739813 
C 232.554502 99.353288 231.316966 100.185457 231.316966 101.053043 
C 231.316966 101.920629 232.554502 102.752797 234.757023 103.366273 
C 236.959543 103.979749 239.947221 104.324444 243.062055 104.324444 
z
" style="fill:#0000ff;opacity:0.2;stroke:#0000ff;stroke-linejoin:miter;stroke-width:2;"/>
   </g>
   <g id="[&quot;g_s&quot;:1,&quot;g_t&quot;:1,&quot;coords&quot;:[[180.0, -470.0],[180.0, -395.0]],&quot;certainty&quot;:10]">
    <path clip-path="url(#paf68caec31)" d="M 243.062055 148.934466 
C 246.176889 148.934466 249.164567 148.589771 251.367088 147.976295 
C 253.569608 147.362819 254.807145 146.53065 254.807145 145.663065 
C 254.807145 144.795479 253.569608 143.96331 251.367088 143.349834 
C 249.164567 142.736358 246.176889 142.391663 243.062055 142.391663 
C 239.947221 142.391663 236.959543 142.736358 234.757023 143.349834 
C 232.554502 143.96331 231.316966 144.795479 231.316966 145.663065 
C 231.316966 146.53065 232.554502 147.362819 234.757023 147.976295 
C 236.959543 148.589771 239.947221 148.934466 243.062055 148.934466 
z
" style="fill:#ff0000;opacity:0.2;stroke:#ff0000;stroke-linejoin:miter;stroke-width:2;"/>
   </g>
   <g id="patch_16">
    <path d="M 243.062055 101.053043 
Q 243.062055 122.357432 243.062055 141.717278 
" style="fill:none;opacity:0.5;stroke:#ff0000;stroke-linecap:round;stroke-width:2.75;"/>
    <path d="M 244.562055 140.217278 
L 243.062055 141.717278 
L 241.562055 140.217278 
" style="fill:none;opacity:0.5;stroke:#ff0000;stroke-linecap:round;stroke-width:2.75;"/>
   </g>
   <g id="[&quot;g_s&quot;:2,&quot;g_t&quot;:2,&quot;coords&quot;:[[124.0, -340.0],[99.0, -392.0]],&quot;certainty&quot;:12]">
    <path clip-path="url(#paf68caec31)" d="M 123.475689 72.205229 
C 127.156857 72.205229 130.687749 71.797861 133.290727 71.072844 
C 135.893706 70.347828 137.356249 69.364356 137.356249 68.339027 
C 137.356249 67.313698 135.893706 66.330226 133.290727 65.605209 
C 130.687749 64.880192 127.156857 64.472825 123.475689 64.472825 
C 119.794521 64.472825 116.263629 64.880192 113.660651 65.605209 
C 111.057672 66.330226 109.595129 67.313698 109.595129 68.339027 
C 109.595129 69.364356 111.057672 70.347828 113.660651 71.072844 
C 116.263629 71.797861 119.794521 72.205229 123.475689 72.205229 
z
" style="fill:#0000ff;opacity:0.2;stroke:#0000ff;stroke-linejoin:miter;stroke-width:2;"/>
   </g>
   <g id="[&quot;g_s&quot;:2,&quot;g_t&quot;:2,&quot;coords&quot;:[[99.0, -392.0],[124.0, -340.0]],&quot;certainty&quot;:12]">
    <path clip-path="url(#paf68caec31)" d="M 70.088918 103.134844 
C 73.770086 103.134844 77.300978 102.727476 79.903957 102.002459 
C 82.506935 101.277443 83.969479 100.293971 83.969479 99.268642 
C 83.969479 98.243313 82.506935 97.259841 79.903957 96.534824 
C 77.300978 95.809807 73.770086 95.40244 70.088918 95.40244 
C 66.407751 95.40244 62.876859 95.809807 60.27388 96.534824 
C 57.670901 97.259841 56.208358 98.243313 56.208358 99.268642 
C 56.208358 100.293971 57.670901 101.277443 60.27388 102.002459 
C 62.876859 102.727476 66.407751 103.134844 70.088918 103.134844 
z
" style="fill:#ff0000;opacity:0.2;stroke:#ff0000;stroke-linejoin:miter;stroke-width:2;"/>
   </g>
   <g id="patch_17">
    <path d="M 123.475689 68.339027 
Q 97.647427 83.302625 73.807652 97.114194 
" style="fill:none;opacity:0.5;stroke:#ff0000;stroke-linecap:round;stroke-width:3.25;"/>
    <path d="M 75.857511 97.660161 
L 73.807652 97.114194 
L 74.35362 95.064336 
" style="fill:none;opacity:0.5;stroke:#ff0000;stroke-linecap:round;stroke-width:3.25;"/>
   </g>
   <g id="[&quot;g_s&quot;:3,&quot;g_t&quot;:3,&quot;coords&quot;:[[180.0, -281.0],[180.0, -306.0]],&quot;certainty&quot;:11]">
    <path clip-path="url(#paf68caec31)" d="M 243.062055 36.814611 
C 246.460056 36.814611 249.719341 36.43858 252.122091 35.769334 
C 254.52484 35.100087 255.87488 34.192267 255.87488 33.24581 
C 255.87488 32.299352 254.52484 31.391532 252.122091 30.722286 
C 249.719341 30.053039 246.460056 29.677008 243.062055 29.677008 
C 239.664054 29.677008 236.404769 30.053039 234.00202 30.722286 
C 231.59927 31.391532 230.24923 32.299352 230.24923 33.24581 
C 230.24923 34.192267 231.59927 35.100087 234.00202 35.769334 
C 236.404769 36.43858 239.664054 36.814611 243.062055 36.814611 
z
" style="fill:#0000ff;opacity:0.2;stroke:#0000ff;stroke-linejoin:miter;stroke-width:2;"/>
   </g>
   <g id="[&quot;g_s&quot;:3,&quot;g_t&quot;:3,&quot;coords&quot;:[[180.0, -306.0],[180.0, -281.0]],&quot;certainty&quot;:11]">
    <path clip-path="url(#paf68caec31)" d="M 243.062055 51.684619 
C 246.460056 51.684619 249.719341 51.308587 252.122091 50.639341 
C 254.52484 49.970095 255.87488 49.062274 255.87488 48.115817 
C 255.87488 47.16936 254.52484 46.261539 252.122091 45.592293 
C 249.719341 44.923047 246.460056 44.547015 243.062055 44.547015 
C 239.664054 44.547015 236.404769 44.923047 234.00202 45.592293 
C 231.59927 46.261539 230.24923 47.16936 230.24923 48.115817 
C 230.24923 49.062274 231.59927 49.970095 234.00202 50.639341 
C 236.404769 51.308587 239.664054 51.684619 243.062055 51.684619 
z
" style="fill:#ff0000;opacity:0.2;stroke:#ff0000;stroke-linejoin:miter;stroke-width:2;"/>
   </g>
   <g id="patch_18">
    <path d="M 243.062055 33.24581 
Q 243.062055 39.680646 243.062055 43.994161 
" style="fill:none;opacity:0.5;stroke:#ff0000;stroke-linecap:round;stroke-width:3;"/>
    <path d="M 244.562055 42.494161 
L 243.062055 43.994161 
L 241.562055 42.494161 
" style="fill:none;opacity:0.5;stroke:#ff0000;stroke-linecap:round;stroke-width:3;"/>
   </g>
   <g id="[&quot;g_s&quot;:4,&quot;g_t&quot;:4,&quot;coords&quot;:[[236.0, -340.0],[261.0, -392.0]],&quot;certainty&quot;:11]">
    <path clip-path="url(#paf68caec31)" d="M 362.648421 71.907829 
C 366.046422 71.907829 369.305707 71.531797 371.708457 70.862551 
C 374.111206 70.193304 375.461246 69.285484 375.461246 68.339027 
C 375.461246 67.39257 374.111206 66.484749 371.708457 65.815503 
C 369.305707 65.146257 366.046422 64.770225 362.648421 64.770225 
C 359.250421 64.770225 355.991136 65.146257 353.588386 65.815503 
C 351.185637 66.484749 349.835596 67.39257 349.835596 68.339027 
C 349.835596 69.285484 351.185637 70.193304 353.588386 70.862551 
C 355.991136 71.531797 359.250421 71.907829 362.648421 71.907829 
z
" style="fill:#0000ff;opacity:0.2;stroke:#0000ff;stroke-linejoin:miter;stroke-width:2;"/>
   </g>
   <g id="[&quot;g_s&quot;:4,&quot;g_t&quot;:4,&quot;coords&quot;:[[261.0, -392.0],[236.0, -340.0]],&quot;certainty&quot;:11]">
    <path clip-path="url(#paf68caec31)" d="M 416.035192 102.837444 
C 419.433193 102.837444 422.692478 102.461412 425.095228 101.792166 
C 427.497977 101.122919 428.848017 100.215099 428.848017 99.268642 
C 428.848017 98.322185 427.497977 97.414364 425.095228 96.745118 
C 422.692478 96.075872 419.433193 95.69984 416.035192 95.69984 
C 412.637191 95.69984 409.377906 96.075872 406.975157 96.745118 
C 404.572407 97.414364 403.222367 98.322185 403.222367 99.268642 
C 403.222367 100.215099 404.572407 101.122919 406.975157 101.792166 
C 409.377906 102.461412 412.637191 102.837444 416.035192 102.837444 
z
" style="fill:#ff0000;opacity:0.2;stroke:#ff0000;stroke-linejoin:miter;stroke-width:2;"/>
   </g>
   <g id="patch_19">
    <path d="M 362.648421 68.339027 
Q 388.476683 83.302625 412.469419 97.202812 
" style="fill:none;opacity:0.5;stroke:#ff0000;stroke-linecap:round;stroke-width:3;"/>
    <path d="M 411.923451 95.152953 
L 412.469419 97.202812 
L 410.41956 97.748779 
" style="fill:none;opacity:0.5;stroke:#ff0000;stroke-linecap:round;stroke-width:3;"/>
   </g>
   <g id="patch_20">
    <path clip-path="url(#paf68caec31)" d="M 243.062055 43.654815 
C 245.893723 43.654815 248.609793 43.341455 250.612085 42.78375 
C 252.614376 42.226045 253.739409 41.469528 253.739409 40.680813 
C 253.739409 39.892099 252.614376 39.135582 250.612085 38.577877 
C 248.609793 38.020171 245.893723 37.706812 243.062055 37.706812 
C 240.230388 37.706812 237.514317 38.020171 235.512026 38.577877 
C 233.509734 39.135582 232.384701 39.892099 232.384701 40.680813 
C 232.384701 41.469528 233.509734 42.226045 235.512026 42.78375 
C 237.514317 43.341455 240.230388 43.654815 243.062055 43.654815 
z
" style="fill:#008000;opacity:0.2;stroke:#008000;stroke-linejoin:miter;stroke-width:2;"/>
   </g>
   <g id="patch_21">
    <path clip-path="url(#paf68caec31)" d="M 389.341807 86.777836 
C 392.173474 86.777836 394.889545 86.464476 396.891836 85.906771 
C 398.894128 85.349066 400.019161 84.592549 400.019161 83.803834 
C 400.019161 83.01512 398.894128 82.258603 396.891836 81.700898 
C 394.889545 81.143192 392.173474 80.829833 389.341807 80.829833 
C 386.510139 80.829833 383.794068 81.143192 381.791777 81.700898 
C 379.789486 82.258603 378.664453 83.01512 378.664453 83.803834 
C 378.664453 84.592549 379.789486 85.349066 381.791777 85.906771 
C 383.794068 86.464476 386.510139 86.777836 389.341807 86.777836 
z
" style="fill:#008000;opacity:0.2;stroke:#008000;stroke-linejoin:miter;stroke-width:2;"/>
   </g>
   <g id="patch_22">
    <path clip-path="url(#paf68caec31)" d="M 243.062055 157.55907 
C 254.388725 157.55907 265.253008 156.305632 273.262173 154.074811 
C 281.271338 151.84399 285.771472 148.817922 285.771472 145.663065 
C 285.771472 142.508207 281.271338 139.482139 273.262173 137.251318 
C 265.253008 135.020497 254.388725 133.767059 243.062055 133.767059 
C 231.735386 133.767059 220.871102 135.020497 212.861937 137.251318 
C 204.852772 139.482139 200.352639 142.508207 200.352639 145.663065 
C 200.352639 148.817922 204.852772 151.84399 212.861937 154.074811 
C 220.871102 156.305632 231.735386 157.55907 243.062055 157.55907 
z
" style="fill:none;opacity:0.2;stroke:#ff0000;stroke-linejoin:miter;stroke-width:2;"/>
   </g>
   <g id="patch_23">
    <path clip-path="url(#paf68caec31)" d="M 243.062055 112.949049 
C 254.388725 112.949049 265.253008 111.69561 273.262173 109.464789 
C 281.271338 107.233968 285.771472 104.2079 285.771472 101.053043 
C 285.771472 97.898185 281.271338 94.872118 273.262173 92.641296 
C 265.253008 90.410475 254.388725 89.157037 243.062055 89.157037 
C 231.735386 89.157037 220.871102 90.410475 212.861937 92.641296 
C 204.852772 94.872118 200.352639 97.898185 200.352639 101.053043 
C 200.352639 104.2079 204.852772 107.233968 212.861937 109.464789 
C 220.871102 111.69561 231.735386 112.949049 243.062055 112.949049 
z
" style="fill:none;opacity:0.2;stroke:#0000ff;stroke-linejoin:miter;stroke-width:2;"/>
   </g>
   <g id="patch_24">
    <path clip-path="url(#paf68caec31)" d="M 243.062055 54.06382 
C 248.72539 54.06382 254.157532 53.437101 258.162114 52.32169 
C 262.166697 51.20628 264.416763 49.693246 264.416763 48.115817 
C 264.416763 46.538388 262.166697 45.025354 258.162114 43.909944 
C 254.157532 42.794533 248.72539 42.167814 243.062055 42.167814 
C 237.39872 42.167814 231.966579 42.794533 227.961996 43.909944 
C 223.957414 45.025354 221.707347 46.538388 221.707347 48.115817 
C 221.707347 49.693246 223.957414 51.20628 227.961996 52.32169 
C 231.966579 53.437101 237.39872 54.06382 243.062055 54.06382 
z
" style="fill:none;opacity:0.2;stroke:#008000;stroke-linejoin:miter;stroke-width:2;"/>
   </g>
   <g id="patch_25">
    <path clip-path="url(#paf68caec31)" d="M 243.062055 39.193813 
C 248.72539 39.193813 254.157532 38.567094 258.162114 37.451683 
C 262.166697 36.336272 264.416763 34.823239 264.416763 33.24581 
C 264.416763 31.668381 262.166697 30.155347 258.162114 29.039937 
C 254.157532 27.924526 248.72539 27.297807 243.062055 27.297807 
C 237.39872 27.297807 231.966579 27.924526 227.961996 29.039937 
C 223.957414 30.155347 221.707347 31.668381 221.707347 33.24581 
C 221.707347 34.823239 223.957414 36.336272 227.961996 37.451683 
C 231.966579 38.567094 237.39872 39.193813 243.062055 39.193813 
z
" style="fill:none;opacity:0.2;stroke:#008000;stroke-linejoin:miter;stroke-width:2;"/>
   </g>
   <g id="patch_26">
    <path d="M 243.062055 40.680813 
Q 316.201931 62.242324 389.341807 83.803834 
" style="fill:none;opacity:0.5;stroke:#008000;stroke-linecap:round;stroke-width:2;"/>
   </g>
   <g id="patch_27">
    <path d="M 243.062055 46.701603 
Q 243.062055 41.680981 243.062055 36.660359 
" style="fill:none;opacity:0.5;stroke:#800080;stroke-linecap:round;stroke-width:2;"/>
    <path d="M 244.562055 45.201603 
L 243.062055 46.701603 
L 241.562055 45.201603 
" style="fill:none;opacity:0.5;stroke:#800080;stroke-linecap:round;stroke-width:2;"/>
    <path d="M 241.562055 38.160359 
L 243.062055 36.660359 
L 244.562055 38.160359 
" style="fill:none;opacity:0.5;stroke:#800080;stroke-linecap:round;stroke-width:2;"/>
   </g>
   <g id="patch_28">
    <path clip-path="url(#paf68caec31)" d="M 243.062055 291.983936 
C 244.194722 291.983936 245.281151 291.858592 246.082067 291.63551 
C 246.882984 291.412428 247.332997 291.109821 247.332997 290.794335 
C 247.332997 290.47885 246.882984 290.176243 246.082067 289.953161 
C 245.281151 289.730079 244.194722 289.604735 243.062055 289.604735 
C 241.929388 289.604735 240.84296 289.730079 240.042043 289.953161 
C 239.241127 290.176243 238.791114 290.47885 238.791114 290.794335 
C 238.791114 291.109821 239.241127 291.412428 240.042043 291.63551 
C 240.84296 291.858592 241.929388 291.983936 243.062055 291.983936 
z
" style="fill:#ff0000;opacity:0.2;stroke:#ff0000;stroke-linejoin:miter;stroke-width:2;"/>
   </g>
   <g id="patch_29">
    <path clip-path="url(#paf68caec31)" d="M 70.088918 243.805112 
C 71.221585 243.805112 72.308014 243.679769 73.10893 243.456686 
C 73.909847 243.233604 74.35986 242.930998 74.35986 242.615512 
C 74.35986 242.300026 73.909847 241.997419 73.10893 241.774337 
C 72.308014 241.551255 71.221585 241.425911 70.088918 241.425911 
C 68.956251 241.425911 67.869823 241.551255 67.068907 241.774337 
C 66.26799 241.997419 65.817977 242.300026 65.817977 242.615512 
C 65.817977 242.930998 66.26799 243.233604 67.068907 243.456686 
C 67.869823 243.679769 68.956251 243.805112 70.088918 243.805112 
z
" style="fill:#ff0000;opacity:0.2;stroke:#ff0000;stroke-linejoin:miter;stroke-width:2;"/>
   </g>
   <g id="patch_30">
    <path clip-path="url(#paf68caec31)" d="M 243.062055 194.436688 
C 244.194722 194.436688 245.281151 194.311345 246.082067 194.088262 
C 246.882984 193.86518 247.332997 193.562574 247.332997 193.247088 
C 247.332997 192.931602 246.882984 192.628995 246.082067 192.405913 
C 245.281151 192.182831 244.194722 192.057487 243.062055 192.057487 
C 241.929388 192.057487 240.84296 192.182831 240.042043 192.405913 
C 239.241127 192.628995 238.791114 192.931602 238.791114 193.247088 
C 238.791114 193.562574 239.241127 193.86518 240.042043 194.088262 
C 240.84296 194.311345 241.929388 194.436688 243.062055 194.436688 
z
" style="fill:#ff0000;opacity:0.2;stroke:#ff0000;stroke-linejoin:miter;stroke-width:2;"/>
   </g>
   <g id="patch_31">
    <path clip-path="url(#paf68caec31)" d="M 416.035192 243.805112 
C 417.167859 243.805112 418.254287 243.679769 419.055204 243.456686 
C 419.85612 243.233604 420.306134 242.930998 420.306134 242.615512 
C 420.306134 242.300026 419.85612 241.997419 419.055204 241.774337 
C 418.254287 241.551255 417.167859 241.425911 416.035192 241.425911 
C 414.902525 241.425911 413.816097 241.551255 413.01518 241.774337 
C 412.214264 241.997419 411.76425 242.300026 411.76425 242.615512 
C 411.76425 242.930998 412.214264 243.233604 413.01518 243.456686 
C 413.816097 243.679769 414.902525 243.805112 416.035192 243.805112 
z
" style="fill:#ff0000;opacity:0.2;stroke:#ff0000;stroke-linejoin:miter;stroke-width:2;"/>
   </g>
   <g id="patch_32">
    <path clip-path="url(#paf68caec31)" d="M 243.062055 306.853943 
C 244.194722 306.853943 245.281151 306.728599 246.082067 306.505517 
C 246.882984 306.282435 247.332997 305.979828 247.332997 305.664343 
C 247.332997 305.348857 246.882984 305.04625 246.082067 304.823168 
C 245.281151 304.600086 244.194722 304.474742 243.062055 304.474742 
C 241.929388 304.474742 240.84296 304.600086 240.042043 304.823168 
C 239.241127 305.04625 238.791114 305.348857 238.791114 305.664343 
C 238.791114 305.979828 239.241127 306.282435 240.042043 306.505517 
C 240.84296 306.728599 241.929388 306.853943 243.062055 306.853943 
z
" style="fill:#0000ff;opacity:0.2;stroke:#0000ff;stroke-linejoin:miter;stroke-width:2;"/>
   </g>
   <g id="patch_33">
    <path clip-path="url(#paf68caec31)" d="M 123.475689 274.139927 
C 124.608356 274.139927 125.694784 274.014583 126.495701 273.791501 
C 127.296617 273.568419 127.746631 273.265812 127.746631 272.950327 
C 127.746631 272.634841 127.296617 272.332234 126.495701 272.109152 
C 125.694784 271.88607 124.608356 271.760726 123.475689 271.760726 
C 122.343022 271.760726 121.256594 271.88607 120.455677 272.109152 
C 119.654761 272.332234 119.204747 272.634841 119.204747 272.950327 
C 119.204747 273.265812 119.654761 273.568419 120.455677 273.791501 
C 121.256594 274.014583 122.343022 274.139927 123.475689 274.139927 
z
" style="fill:#0000ff;opacity:0.2;stroke:#0000ff;stroke-linejoin:miter;stroke-width:2;"/>
   </g>
   <g id="patch_34">
    <path clip-path="url(#paf68caec31)" d="M 243.062055 239.04671 
C 244.194722 239.04671 245.281151 238.921366 246.082067 238.698284 
C 246.882984 238.475202 247.332997 238.172595 247.332997 237.85711 
C 247.332997 237.541624 246.882984 237.239017 246.082067 237.015935 
C 245.281151 236.792853 244.194722 236.667509 243.062055 236.667509 
C 241.929388 236.667509 240.84296 236.792853 240.042043 237.015935 
C 239.241127 237.239017 238.791114 237.541624 238.791114 237.85711 
C 238.791114 238.172595 239.241127 238.475202 240.042043 238.698284 
C 240.84296 238.921366 241.929388 239.04671 243.062055 239.04671 
z
" style="fill:#0000ff;opacity:0.2;stroke:#0000ff;stroke-linejoin:miter;stroke-width:2;"/>
   </g>
   <g id="patch_35">
    <path clip-path="url(#paf68caec31)" d="M 362.648421 274.139927 
C 363.781088 274.139927 364.867517 274.014583 365.668433 273.791501 
C 366.46935 273.568419 366.919363 273.265812 366.919363 272.950327 
C 366.919363 272.634841 366.46935 272.332234 365.668433 272.109152 
C 364.867517 271.88607 363.781088 271.760726 362.648421 271.760726 
C 361.515754 271.760726 360.429326 271.88607 359.62841 272.109152 
C 358.827493 272.332234 358.37748 272.634841 358.37748 272.950327 
C 358.37748 273.265812 358.827493 273.568419 359.62841 273.791501 
C 360.429326 274.014583 361.515754 274.139927 362.648421 274.139927 
z
" style="fill:#0000ff;opacity:0.2;stroke:#0000ff;stroke-linejoin:miter;stroke-width:2;"/>
   </g>
   <g id="patch_36">
    <path clip-path="url(#paf68caec31)" d="M 243.062055 290.794335 
C 157.643222 290.794335 70.088918 271.760726 70.088918 242.615512 
C 70.088918 214.659898 146.965868 193.247088 243.062055 193.247088 
C 345.564655 193.247088 416.035192 217.039099 416.035192 242.615512 
C 416.035192 269.976325 345.564655 290.794335 243.062055 290.794335 
" style="fill:none;stroke:#ff0000;stroke-linejoin:miter;stroke-width:0.5;"/>
   </g>
   <g id="patch_37">
    <path clip-path="url(#paf68caec31)" d="M 243.062055 305.664343 
C 181.133401 305.664343 123.475689 293.173537 123.475689 272.950327 
C 123.475689 252.727117 174.726989 237.85711 243.062055 237.85711 
C 315.668063 237.85711 362.648421 253.916717 362.648421 272.950327 
C 362.648421 291.983936 315.668063 305.664343 243.062055 305.664343 
" style="fill:none;stroke:#0000ff;stroke-linejoin:miter;stroke-width:0.5;"/>
   </g>
   <g id="[&quot;g_s&quot;:1,&quot;g_t&quot;:1,&quot;coords&quot;:[[180.0, -714.0],[180.0, -739.0]],&quot;certainty&quot;:10]">
    <path clip-path="url(#paf68caec31)" d="M 243.062055 294.065737 
C 246.176889 294.065737 249.164567 293.721041 251.367088 293.107566 
C 253.569608 292.49409 254.807145 291.661921 254.807145 290.794335 
C 254.807145 289.92675 253.569608 289.094581 251.367088 288.481105 
C 249.164567 287.867629 246.176889 287.522934 243.062055 287.522934 
C 239.947221 287.522934 236.959543 287.867629 234.757023 288.481105 
C 232.554502 289.094581 231.316966 289.92675 231.316966 290.794335 
C 231.316966 291.661921 232.554502 292.49409 234.757023 293.107566 
C 236.959543 293.721041 239.947221 294.065737 243.062055 294.065737 
z
" style="fill:#0000ff;opacity:0.2;stroke:#0000ff;stroke-linejoin:miter;stroke-width:2;"/>
   </g>
   <g id="[&quot;g_s&quot;:1,&quot;g_t&quot;:1,&quot;coords&quot;:[[180.0, -739.0],[180.0, -714.0]],&quot;certainty&quot;:10]">
    <path clip-path="url(#paf68caec31)" d="M 243.062055 308.935744 
C 246.176889 308.935744 249.164567 308.591049 251.367088 307.977573 
C 253.569608 307.364097 254.807145 306.531928 254.807145 305.664343 
C 254.807145 304.796757 253.569608 303.964588 251.367088 303.351112 
C 249.164567 302.737637 246.176889 302.392941 243.062055 302.392941 
C 239.947221 302.392941 236.959543 302.737637 234.757023 303.351112 
C 232.554502 303.964588 231.316966 304.796757 231.316966 305.664343 
C 231.316966 306.531928 232.554502 307.364097 234.757023 307.977573 
C 236.959543 308.591049 239.947221 308.935744 243.062055 308.935744 
z
" style="fill:#ff0000;opacity:0.2;stroke:#ff0000;stroke-linejoin:miter;stroke-width:2;"/>
   </g>
   <g id="patch_38">
    <path d="M 243.062055 290.794335 
Q 243.062055 297.229171 243.062055 301.719464 
" style="fill:none;opacity:0.5;stroke:#0000ff;stroke-linecap:round;stroke-width:2.75;"/>
    <path d="M 244.562055 300.219464 
L 243.062055 301.719464 
L 241.562055 300.219464 
" style="fill:none;opacity:0.5;stroke:#0000ff;stroke-linecap:round;stroke-width:2.75;"/>
   </g>
   <g id="[&quot;g_s&quot;:2,&quot;g_t&quot;:2,&quot;coords&quot;:[[99.0, -633.0],[124.0, -684.0]],&quot;certainty&quot;:12]">
    <path clip-path="url(#paf68caec31)" d="M 70.088918 246.481714 
C 73.770086 246.481714 77.300978 246.074346 79.903957 245.349329 
C 82.506935 244.624313 83.969479 243.640841 83.969479 242.615512 
C 83.969479 241.590183 82.506935 240.606711 79.903957 239.881694 
C 77.300978 239.156677 73.770086 238.74931 70.088918 238.74931 
C 66.407751 238.74931 62.876859 239.156677 60.27388 239.881694 
C 57.670901 240.606711 56.208358 241.590183 56.208358 242.615512 
C 56.208358 243.640841 57.670901 244.624313 60.27388 245.349329 
C 62.876859 246.074346 66.407751 246.481714 70.088918 246.481714 
z
" style="fill:#0000ff;opacity:0.2;stroke:#0000ff;stroke-linejoin:miter;stroke-width:2;"/>
   </g>
   <g id="[&quot;g_s&quot;:2,&quot;g_t&quot;:2,&quot;coords&quot;:[[124.0, -684.0],[99.0, -633.0]],&quot;certainty&quot;:12]">
    <path clip-path="url(#paf68caec31)" d="M 123.475689 276.816529 
C 127.156857 276.816529 130.687749 276.409161 133.290727 275.684144 
C 135.893706 274.959127 137.356249 273.975655 137.356249 272.950327 
C 137.356249 271.924998 135.893706 270.941526 133.290727 270.216509 
C 130.687749 269.491492 127.156857 269.084125 123.475689 269.084125 
C 119.794521 269.084125 116.263629 269.491492 113.660651 270.216509 
C 111.057672 270.941526 109.595129 271.924998 109.595129 272.950327 
C 109.595129 273.975655 111.057672 274.959127 113.660651 275.684144 
C 116.263629 276.409161 119.794521 276.816529 123.475689 276.816529 
z
" style="fill:#ff0000;opacity:0.2;stroke:#ff0000;stroke-linejoin:miter;stroke-width:2;"/>
   </g>
   <g id="patch_39">
    <path d="M 70.088918 242.615512 
Q 95.913921 257.289497 119.740852 270.828161 
" style="fill:none;opacity:0.5;stroke:#0000ff;stroke-linecap:round;stroke-width:3.25;"/>
    <path d="M 119.177722 268.78295 
L 119.740852 270.828161 
L 117.695642 271.39129 
" style="fill:none;opacity:0.5;stroke:#0000ff;stroke-linecap:round;stroke-width:3.25;"/>
   </g>
   <g id="[&quot;g_s&quot;:3,&quot;g_t&quot;:3,&quot;coords&quot;:[[180.0, -550.0],[180.0, -625.0]],&quot;certainty&quot;:11]">
    <path clip-path="url(#paf68caec31)" d="M 243.062055 196.81589 
C 246.460056 196.81589 249.719341 196.439858 252.122091 195.770612 
C 254.52484 195.101365 255.87488 194.193545 255.87488 193.247088 
C 255.87488 192.30063 254.52484 191.39281 252.122091 190.723564 
C 249.719341 190.054317 246.460056 189.678286 243.062055 189.678286 
C 239.664054 189.678286 236.404769 190.054317 234.00202 190.723564 
C 231.59927 191.39281 230.24923 192.30063 230.24923 193.247088 
C 230.24923 194.193545 231.59927 195.101365 234.00202 195.770612 
C 236.404769 196.439858 239.664054 196.81589 243.062055 196.81589 
z
" style="fill:#0000ff;opacity:0.2;stroke:#0000ff;stroke-linejoin:miter;stroke-width:2;"/>
   </g>
   <g id="[&quot;g_s&quot;:3,&quot;g_t&quot;:3,&quot;coords&quot;:[[180.0, -625.0],[180.0, -550.0]],&quot;certainty&quot;:11]">
    <path clip-path="url(#paf68caec31)" d="M 243.062055 241.425911 
C 246.460056 241.425911 249.719341 241.04988 252.122091 240.380633 
C 254.52484 239.711387 255.87488 238.803567 255.87488 237.85711 
C 255.87488 236.910652 254.52484 236.002832 252.122091 235.333586 
C 249.719341 234.664339 246.460056 234.288308 243.062055 234.288308 
C 239.664054 234.288308 236.404769 234.664339 234.00202 235.333586 
C 231.59927 236.002832 230.24923 236.910652 230.24923 237.85711 
C 230.24923 238.803567 231.59927 239.711387 234.00202 240.380633 
C 236.404769 241.04988 239.664054 241.425911 243.062055 241.425911 
z
" style="fill:#ff0000;opacity:0.2;stroke:#ff0000;stroke-linejoin:miter;stroke-width:2;"/>
   </g>
   <g id="patch_40">
    <path d="M 243.062055 193.247088 
Q 243.062055 214.551477 243.062055 233.734546 
" style="fill:none;opacity:0.5;stroke:#0000ff;stroke-linecap:round;stroke-width:3;"/>
    <path d="M 244.562055 232.234546 
L 243.062055 233.734546 
L 241.562055 232.234546 
" style="fill:none;opacity:0.5;stroke:#0000ff;stroke-linecap:round;stroke-width:3;"/>
   </g>
   <g id="[&quot;g_s&quot;:4,&quot;g_t&quot;:4,&quot;coords&quot;:[[261.0, -633.0],[236.0, -684.0]],&quot;certainty&quot;:11]">
    <path clip-path="url(#paf68caec31)" d="M 416.035192 246.184314 
C 419.433193 246.184314 422.692478 245.808282 425.095228 245.139036 
C 427.497977 244.469789 428.848017 243.561969 428.848017 242.615512 
C 428.848017 241.669055 427.497977 240.761234 425.095228 240.091988 
C 422.692478 239.422742 419.433193 239.04671 416.035192 239.04671 
C 412.637191 239.04671 409.377906 239.422742 406.975157 240.091988 
C 404.572407 240.761234 403.222367 241.669055 403.222367 242.615512 
C 403.222367 243.561969 404.572407 244.469789 406.975157 245.139036 
C 409.377906 245.808282 412.637191 246.184314 416.035192 246.184314 
z
" style="fill:#0000ff;opacity:0.2;stroke:#0000ff;stroke-linejoin:miter;stroke-width:2;"/>
   </g>
   <g id="[&quot;g_s&quot;:4,&quot;g_t&quot;:4,&quot;coords&quot;:[[236.0, -684.0],[261.0, -633.0]],&quot;certainty&quot;:11]">
    <path clip-path="url(#paf68caec31)" d="M 362.648421 276.519128 
C 366.046422 276.519128 369.305707 276.143097 371.708457 275.473851 
C 374.111206 274.804604 375.461246 273.896784 375.461246 272.950327 
C 375.461246 272.003869 374.111206 271.096049 371.708457 270.426803 
C 369.305707 269.757556 366.046422 269.381525 362.648421 269.381525 
C 359.250421 269.381525 355.991136 269.757556 353.588386 270.426803 
C 351.185637 271.096049 349.835596 272.003869 349.835596 272.950327 
C 349.835596 273.896784 351.185637 274.804604 353.588386 275.473851 
C 355.991136 276.143097 359.250421 276.519128 362.648421 276.519128 
z
" style="fill:#ff0000;opacity:0.2;stroke:#ff0000;stroke-linejoin:miter;stroke-width:2;"/>
   </g>
   <g id="patch_41">
    <path d="M 416.035192 242.615512 
Q 390.210189 257.289497 366.229561 270.915493 
" style="fill:none;opacity:0.5;stroke:#0000ff;stroke-linecap:round;stroke-width:3;"/>
    <path d="M 368.274771 271.478623 
L 366.229561 270.915493 
L 366.79269 268.870283 
" style="fill:none;opacity:0.5;stroke:#0000ff;stroke-linecap:round;stroke-width:3;"/>
   </g>
   <g id="[&quot;g_s&quot;:1,&quot;g_t&quot;:1,&quot;coords&quot;:[[180.0, -739.0],[180.0, -714.0]],&quot;certainty&quot;:10]">
    <path clip-path="url(#paf68caec31)" d="M 243.062055 308.935744 
C 246.176889 308.935744 249.164567 308.591049 251.367088 307.977573 
C 253.569608 307.364097 254.807145 306.531928 254.807145 305.664343 
C 254.807145 304.796757 253.569608 303.964588 251.367088 303.351112 
C 249.164567 302.737637 246.176889 302.392941 243.062055 302.392941 
C 239.947221 302.392941 236.959543 302.737637 234.757023 303.351112 
C 232.554502 303.964588 231.316966 304.796757 231.316966 305.664343 
C 231.316966 306.531928 232.554502 307.364097 234.757023 307.977573 
C 236.959543 308.591049 239.947221 308.935744 243.062055 308.935744 
z
" style="fill:#0000ff;opacity:0.2;stroke:#0000ff;stroke-linejoin:miter;stroke-width:2;"/>
   </g>
   <g id="[&quot;g_s&quot;:1,&quot;g_t&quot;:1,&quot;coords&quot;:[[180.0, -714.0],[180.0, -739.0]],&quot;certainty&quot;:10]">
    <path clip-path="url(#paf68caec31)" d="M 243.062055 294.065737 
C 246.176889 294.065737 249.164567 293.721041 251.367088 293.107566 
C 253.569608 292.49409 254.807145 291.661921 254.807145 290.794335 
C 254.807145 289.92675 253.569608 289.094581 251.367088 288.481105 
C 249.164567 287.867629 246.176889 287.522934 243.062055 287.522934 
C 239.947221 287.522934 236.959543 287.867629 234.757023 288.481105 
C 232.554502 289.094581 231.316966 289.92675 231.316966 290.794335 
C 231.316966 291.661921 232.554502 292.49409 234.757023 293.107566 
C 236.959543 293.721041 239.947221 294.065737 243.062055 294.065737 
z
" style="fill:#ff0000;opacity:0.2;stroke:#ff0000;stroke-linejoin:miter;stroke-width:2;"/>
   </g>
   <g id="patch_42">
    <path d="M 243.062055 305.664343 
Q 243.062055 299.229507 243.062055 294.739214 
" style="fill:none;opacity:0.5;stroke:#ff0000;stroke-linecap:round;stroke-width:2.75;"/>
    <path d="M 241.562055 296.239214 
L 243.062055 294.739214 
L 244.562055 296.239214 
" style="fill:none;opacity:0.5;stroke:#ff0000;stroke-linecap:round;stroke-width:2.75;"/>
   </g>
   <g id="[&quot;g_s&quot;:2,&quot;g_t&quot;:2,&quot;coords&quot;:[[124.0, -684.0],[99.0, -633.0]],&quot;certainty&quot;:12]">
    <path clip-path="url(#paf68caec31)" d="M 123.475689 276.816529 
C 127.156857 276.816529 130.687749 276.409161 133.290727 275.684144 
C 135.893706 274.959127 137.356249 273.975655 137.356249 272.950327 
C 137.356249 271.924998 135.893706 270.941526 133.290727 270.216509 
C 130.687749 269.491492 127.156857 269.084125 123.475689 269.084125 
C 119.794521 269.084125 116.263629 269.491492 113.660651 270.216509 
C 111.057672 270.941526 109.595129 271.924998 109.595129 272.950327 
C 109.595129 273.975655 111.057672 274.959127 113.660651 275.684144 
C 116.263629 276.409161 119.794521 276.816529 123.475689 276.816529 
z
" style="fill:#0000ff;opacity:0.2;stroke:#0000ff;stroke-linejoin:miter;stroke-width:2;"/>
   </g>
   <g id="[&quot;g_s&quot;:2,&quot;g_t&quot;:2,&quot;coords&quot;:[[99.0, -633.0],[124.0, -684.0]],&quot;certainty&quot;:12]">
    <path clip-path="url(#paf68caec31)" d="M 70.088918 246.481714 
C 73.770086 246.481714 77.300978 246.074346 79.903957 245.349329 
C 82.506935 244.624313 83.969479 243.640841 83.969479 242.615512 
C 83.969479 241.590183 82.506935 240.606711 79.903957 239.881694 
C 77.300978 239.156677 73.770086 238.74931 70.088918 238.74931 
C 66.407751 238.74931 62.876859 239.156677 60.27388 239.881694 
C 57.670901 240.606711 56.208358 241.590183 56.208358 242.615512 
C 56.208358 243.640841 57.670901 244.624313 60.27388 245.349329 
C 62.876859 246.074346 66.407751 246.481714 70.088918 246.481714 
z
" style="fill:#ff0000;opacity:0.2;stroke:#ff0000;stroke-linejoin:miter;stroke-width:2;"/>
   </g>
   <g id="patch_43">
    <path d="M 123.475689 272.950327 
Q 97.650686 258.276341 73.823755 244.737678 
" style="fill:none;opacity:0.5;stroke:#ff0000;stroke-linecap:round;stroke-width:3.25;"/>
    <path d="M 74.386885 246.782888 
L 73.823755 244.737678 
L 75.868966 244.174548 
" style="fill:none;opacity:0.5;stroke:#ff0000;stroke-linecap:round;stroke-width:3.25;"/>
   </g>
   <g id="[&quot;g_s&quot;:3,&quot;g_t&quot;:3,&quot;coords&quot;:[[180.0, -625.0],[180.0, -550.0]],&quot;certainty&quot;:11]">
    <path clip-path="url(#paf68caec31)" d="M 243.062055 241.425911 
C 246.460056 241.425911 249.719341 241.04988 252.122091 240.380633 
C 254.52484 239.711387 255.87488 238.803567 255.87488 237.85711 
C 255.87488 236.910652 254.52484 236.002832 252.122091 235.333586 
C 249.719341 234.664339 246.460056 234.288308 243.062055 234.288308 
C 239.664054 234.288308 236.404769 234.664339 234.00202 235.333586 
C 231.59927 236.002832 230.24923 236.910652 230.24923 237.85711 
C 230.24923 238.803567 231.59927 239.711387 234.00202 240.380633 
C 236.404769 241.04988 239.664054 241.425911 243.062055 241.425911 
z
" style="fill:#0000ff;opacity:0.2;stroke:#0000ff;stroke-linejoin:miter;stroke-width:2;"/>
   </g>
   <g id="[&quot;g_s&quot;:3,&quot;g_t&quot;:3,&quot;coords&quot;:[[180.0, -550.0],[180.0, -625.0]],&quot;certainty&quot;:11]">
    <path clip-path="url(#paf68caec31)" d="M 243.062055 196.81589 
C 246.460056 196.81589 249.719341 196.439858 252.122091 195.770612 
C 254.52484 195.101365 255.87488 194.193545 255.87488 193.247088 
C 255.87488 192.30063 254.52484 191.39281 252.122091 190.723564 
C 249.719341 190.054317 246.460056 189.678286 243.062055 189.678286 
C 239.664054 189.678286 236.404769 190.054317 234.00202 190.723564 
C 231.59927 191.39281 230.24923 192.30063 230.24923 193.247088 
C 230.24923 194.193545 231.59927 195.101365 234.00202 195.770612 
C 236.404769 196.439858 239.664054 196.81589 243.062055 196.81589 
z
" style="fill:#ff0000;opacity:0.2;stroke:#ff0000;stroke-linejoin:miter;stroke-width:2;"/>
   </g>
   <g id="patch_44">
    <path d="M 243.062055 237.85711 
Q 243.062055 216.55272 243.062055 197.369651 
" style="fill:none;opacity:0.5;stroke:#ff0000;stroke-linecap:round;stroke-width:3;"/>
    <path d="M 241.562055 198.869651 
L 243.062055 197.369651 
L 244.562055 198.869651 
" style="fill:none;opacity:0.5;stroke:#ff0000;stroke-linecap:round;stroke-width:3;"/>
   </g>
   <g id="[&quot;g_s&quot;:4,&quot;g_t&quot;:4,&quot;coords&quot;:[[236.0, -684.0],[261.0, -633.0]],&quot;certainty&quot;:11]">
    <path clip-path="url(#paf68caec31)" d="M 362.648421 276.519128 
C 366.046422 276.519128 369.305707 276.143097 371.708457 275.473851 
C 374.111206 274.804604 375.461246 273.896784 375.461246 272.950327 
C 375.461246 272.003869 374.111206 271.096049 371.708457 270.426803 
C 369.305707 269.757556 366.046422 269.381525 362.648421 269.381525 
C 359.250421 269.381525 355.991136 269.757556 353.588386 270.426803 
C 351.185637 271.096049 349.835596 272.003869 349.835596 272.950327 
C 349.835596 273.896784 351.185637 274.804604 353.588386 275.473851 
C 355.991136 276.143097 359.250421 276.519128 362.648421 276.519128 
z
" style="fill:#0000ff;opacity:0.2;stroke:#0000ff;stroke-linejoin:miter;stroke-width:2;"/>
   </g>
   <g id="[&quot;g_s&quot;:4,&quot;g_t&quot;:4,&quot;coords&quot;:[[261.0, -633.0],[236.0, -684.0]],&quot;certainty&quot;:11]">
    <path clip-path="url(#paf68caec31)" d="M 416.035192 246.184314 
C 419.433193 246.184314 422.692478 245.808282 425.095228 245.139036 
C 427.497977 244.469789 428.848017 243.561969 428.848017 242.615512 
C 428.848017 241.669055 427.497977 240.761234 425.095228 240.091988 
C 422.692478 239.422742 419.433193 239.04671 416.035192 239.04671 
C 412.637191 239.04671 409.377906 239.422742 406.975157 240.091988 
C 404.572407 240.761234 403.222367 241.669055 403.222367 242.615512 
C 403.222367 243.561969 404.572407 244.469789 406.975157 245.139036 
C 409.377906 245.808282 412.637191 246.184314 416.035192 246.184314 
z
" style="fill:#ff0000;opacity:0.2;stroke:#ff0000;stroke-linejoin:miter;stroke-width:2;"/>
   </g>
   <g id="patch_45">
    <path d="M 362.648421 272.950327 
Q 388.473425 258.276341 412.454053 244.650345 
" style="fill:none;opacity:0.5;stroke:#ff0000;stroke-linecap:round;stroke-width:3;"/>
    <path d="M 410.408843 244.087216 
L 412.454053 244.650345 
L 411.890923 246.695556 
" style="fill:none;opacity:0.5;stroke:#ff0000;stroke-linecap:round;stroke-width:3;"/>
   </g>
   <g id="patch_46">
    <path clip-path="url(#paf68caec31)" d="M 243.062055 301.20334 
C 245.893723 301.20334 248.609793 300.889981 250.612085 300.332276 
C 252.614376 299.77457 253.739409 299.018053 253.739409 298.229339 
C 253.739409 297.440625 252.614376 296.684108 250.612085 296.126402 
C 248.609793 295.568697 245.893723 295.255338 243.062055 295.255338 
C 240.230388 295.255338 237.514317 295.568697 235.512026 296.126402 
C 233.509734 296.684108 232.384701 297.440625 232.384701 298.229339 
C 232.384701 299.018053 233.509734 299.77457 235.512026 300.332276 
C 237.514317 300.889981 240.230388 301.20334 243.062055 301.20334 
z
" style="fill:#008000;opacity:0.2;stroke:#008000;stroke-linejoin:miter;stroke-width:2;"/>
   </g>
   <g id="patch_47">
    <path clip-path="url(#paf68caec31)" d="M 96.782304 260.756921 
C 99.613971 260.756921 102.330042 260.443561 104.332333 259.885856 
C 106.334624 259.328151 107.459658 258.571634 107.459658 257.782919 
C 107.459658 256.994205 106.334624 256.237688 104.332333 255.679983 
C 102.330042 255.122277 99.613971 254.808918 96.782304 254.808918 
C 93.950636 254.808918 91.234565 255.122277 89.232274 255.679983 
C 87.229983 256.237688 86.10495 256.994205 86.10495 257.782919 
C 86.10495 258.571634 87.229983 259.328151 89.232274 259.885856 
C 91.234565 260.443561 93.950636 260.756921 96.782304 260.756921 
z
" style="fill:#008000;opacity:0.2;stroke:#008000;stroke-linejoin:miter;stroke-width:2;"/>
   </g>
   <g id="patch_48">
    <path clip-path="url(#paf68caec31)" d="M 243.062055 218.5261 
C 245.893723 218.5261 248.609793 218.212741 250.612085 217.655035 
C 252.614376 217.09733 253.739409 216.340813 253.739409 215.552099 
C 253.739409 214.763384 252.614376 214.006867 250.612085 213.449162 
C 248.609793 212.891457 245.893723 212.578097 243.062055 212.578097 
C 240.230388 212.578097 237.514317 212.891457 235.512026 213.449162 
C 233.509734 214.006867 232.384701 214.763384 232.384701 215.552099 
C 232.384701 216.340813 233.509734 217.09733 235.512026 217.655035 
C 237.514317 218.212741 240.230388 218.5261 243.062055 218.5261 
z
" style="fill:#008000;opacity:0.2;stroke:#008000;stroke-linejoin:miter;stroke-width:2;"/>
   </g>
   <g id="patch_49">
    <path clip-path="url(#paf68caec31)" d="M 389.341807 260.756921 
C 392.173474 260.756921 394.889545 260.443561 396.891836 259.885856 
C 398.894128 259.328151 400.019161 258.571634 400.019161 257.782919 
C 400.019161 256.994205 398.894128 256.237688 396.891836 255.679983 
C 394.889545 255.122277 392.173474 254.808918 389.341807 254.808918 
C 386.510139 254.808918 383.794068 255.122277 381.791777 255.679983 
C 379.789486 256.237688 378.664453 256.994205 378.664453 257.782919 
C 378.664453 258.571634 379.789486 259.328151 381.791777 259.885856 
C 383.794068 260.443561 386.510139 260.756921 389.341807 260.756921 
z
" style="fill:#008000;opacity:0.2;stroke:#008000;stroke-linejoin:miter;stroke-width:2;"/>
   </g>
   <g id="patch_50">
    <path clip-path="url(#paf68caec31)" d="M 243.062055 302.690341 
C 254.388725 302.690341 265.253008 301.436903 273.262173 299.206082 
C 281.271338 296.975261 285.771472 293.949193 285.771472 290.794335 
C 285.771472 287.639478 281.271338 284.61341 273.262173 282.382589 
C 265.253008 280.151768 254.388725 278.89833 243.062055 278.89833 
C 231.735386 278.89833 220.871102 280.151768 212.861937 282.382589 
C 204.852772 284.61341 200.352639 287.639478 200.352639 290.794335 
C 200.352639 293.949193 204.852772 296.975261 212.861937 299.206082 
C 220.871102 301.436903 231.735386 302.690341 243.062055 302.690341 
z
" style="fill:none;opacity:0.2;stroke:#ff0000;stroke-linejoin:miter;stroke-width:2;"/>
   </g>
   <g id="patch_51">
    <path clip-path="url(#paf68caec31)" d="M 243.062055 317.560348 
C 254.388725 317.560348 265.253008 316.30691 273.262173 314.076089 
C 281.271338 311.845268 285.771472 308.8192 285.771472 305.664343 
C 285.771472 302.509485 281.271338 299.483417 273.262173 297.252596 
C 265.253008 295.021775 254.388725 293.768337 243.062055 293.768337 
C 231.735386 293.768337 220.871102 295.021775 212.861937 297.252596 
C 204.852772 299.483417 200.352639 302.509485 200.352639 305.664343 
C 200.352639 308.8192 204.852772 311.845268 212.861937 314.076089 
C 220.871102 316.30691 231.735386 317.560348 243.062055 317.560348 
z
" style="fill:none;opacity:0.2;stroke:#0000ff;stroke-linejoin:miter;stroke-width:2;"/>
   </g>
   <g id="patch_52">
    <path clip-path="url(#paf68caec31)" d="M 243.062055 296.742338 
C 248.72539 296.742338 254.157532 296.115619 258.162114 295.000209 
C 262.166697 293.884798 264.416763 292.371764 264.416763 290.794335 
C 264.416763 289.216907 262.166697 287.703873 258.162114 286.588462 
C 254.157532 285.473052 248.72539 284.846332 243.062055 284.846332 
C 237.39872 284.846332 231.966579 285.473052 227.961996 286.588462 
C 223.957414 287.703873 221.707347 289.216907 221.707347 290.794335 
C 221.707347 292.371764 223.957414 293.884798 227.961996 295.000209 
C 231.966579 296.115619 237.39872 296.742338 243.062055 296.742338 
z
" style="fill:none;opacity:0.2;stroke:#008000;stroke-linejoin:miter;stroke-width:2;"/>
   </g>
   <g id="patch_53">
    <path clip-path="url(#paf68caec31)" d="M 243.062055 311.612346 
C 248.72539 311.612346 254.157532 310.985626 258.162114 309.870216 
C 262.166697 308.754805 264.416763 307.241771 264.416763 305.664343 
C 264.416763 304.086914 262.166697 302.57388 258.162114 301.458469 
C 254.157532 300.343059 248.72539 299.71634 243.062055 299.71634 
C 237.39872 299.71634 231.966579 300.343059 227.961996 301.458469 
C 223.957414 302.57388 221.707347 304.086914 221.707347 305.664343 
C 221.707347 307.241771 223.957414 308.754805 227.961996 309.870216 
C 231.966579 310.985626 237.39872 311.612346 243.062055 311.612346 
z
" style="fill:none;opacity:0.2;stroke:#008000;stroke-linejoin:miter;stroke-width:2;"/>
   </g>
   <g id="patch_54">
    <path d="M 243.062055 298.229339 
Q 169.922179 278.006129 96.782304 257.782919 
" style="fill:none;opacity:0.5;stroke:#008000;stroke-linecap:round;stroke-width:2;"/>
   </g>
   <g id="patch_55">
    <path d="M 243.062055 292.208549 
Q 243.062055 297.229171 243.062055 302.249794 
" style="fill:none;opacity:0.5;stroke:#800080;stroke-linecap:round;stroke-width:2;"/>
    <path d="M 241.562055 293.708549 
L 243.062055 292.208549 
L 244.562055 293.708549 
" style="fill:none;opacity:0.5;stroke:#800080;stroke-linecap:round;stroke-width:2;"/>
    <path d="M 244.562055 300.749794 
L 243.062055 302.249794 
L 241.562055 300.749794 
" style="fill:none;opacity:0.5;stroke:#800080;stroke-linecap:round;stroke-width:2;"/>
   </g>
   <g id="patch_56">
    <path d="M 96.782304 257.782919 
Q 169.922179 236.667509 243.062055 215.552099 
" style="fill:none;opacity:0.5;stroke:#008000;stroke-linecap:round;stroke-width:2;"/>
   </g>
   <g id="patch_57">
    <path d="M 71.318502 243.314171 
Q 95.913921 257.289497 120.509341 271.264823 
" style="fill:none;opacity:0.5;stroke:#800080;stroke-linecap:round;stroke-width:2;"/>
    <path d="M 71.881631 245.359382 
L 71.318502 243.314171 
L 73.363712 242.751042 
" style="fill:none;opacity:0.5;stroke:#800080;stroke-linecap:round;stroke-width:2;"/>
    <path d="M 119.946212 269.219613 
L 120.509341 271.264823 
L 118.464131 271.827952 
" style="fill:none;opacity:0.5;stroke:#800080;stroke-linecap:round;stroke-width:2;"/>
   </g>
   <g id="patch_58">
    <path d="M 243.062055 215.552099 
Q 316.201931 236.667509 389.341807 257.782919 
" style="fill:none;opacity:0.5;stroke:#008000;stroke-linecap:round;stroke-width:2;"/>
   </g>
   <g id="patch_59">
    <path d="M 243.062055 194.661301 
Q 243.062055 214.551477 243.062055 234.441653 
" style="fill:none;opacity:0.5;stroke:#800080;stroke-linecap:round;stroke-width:2;"/>
    <path d="M 241.562055 196.161301 
L 243.062055 194.661301 
L 244.562055 196.161301 
" style="fill:none;opacity:0.5;stroke:#800080;stroke-linecap:round;stroke-width:2;"/>
    <path d="M 244.562055 232.941653 
L 243.062055 234.441653 
L 241.562055 232.941653 
" style="fill:none;opacity:0.5;stroke:#800080;stroke-linecap:round;stroke-width:2;"/>
   </g>
   <g id="patch_60">
    <path d="M 389.341807 257.782919 
Q 316.201931 278.006129 243.062055 298.229339 
" style="fill:none;opacity:0.5;stroke:#008000;stroke-linecap:round;stroke-width:2;"/>
   </g>
   <g id="patch_61">
    <path d="M 414.805609 243.314171 
Q 390.210189 257.289497 365.614769 271.264823 
" style="fill:none;opacity:0.5;stroke:#800080;stroke-linecap:round;stroke-width:2;"/>
    <path d="M 412.760399 242.751042 
L 414.805609 243.314171 
L 414.242479 245.359382 
" style="fill:none;opacity:0.5;stroke:#800080;stroke-linecap:round;stroke-width:2;"/>
    <path d="M 367.659979 271.827952 
L 365.614769 271.264823 
L 366.177899 269.219613 
" style="fill:none;opacity:0.5;stroke:#800080;stroke-linecap:round;stroke-width:2;"/>
   </g>
   <g id="line2d_1">
    <path clip-path="url(#paf68caec31)" d="M 243.062055 145.663065 
L 70.088918 99.268642 
L 243.062055 48.115817 
L 416.035192 99.268642 
" style="fill:none;stroke:#ff0000;stroke-linecap:square;stroke-width:0.2;"/>
   </g>
   <g id="line2d_2">
    <path clip-path="url(#paf68caec31)" d="M 243.062055 101.053043 
L 123.475689 68.339027 
L 243.062055 33.24581 
L 362.648421 68.339027 
" style="fill:none;stroke:#0000ff;stroke-linecap:square;stroke-width:0.2;"/>
   </g>
   <g id="line2d_3">
    <path clip-path="url(#paf68caec31)" d="M 243.062055 290.794335 
L 70.088918 242.615512 
L 243.062055 193.247088 
L 416.035192 242.615512 
" style="fill:none;stroke:#ff0000;stroke-linecap:square;stroke-width:0.2;"/>
   </g>
   <g id="line2d_4">
    <path clip-path="url(#paf68caec31)" d="M 243.062055 305.664343 
L 123.475689 272.950327 
L 243.062055 237.85711 
L 362.648421 272.950327 
" style="fill:none;stroke:#0000ff;stroke-linecap:square;stroke-width:0.2;"/>
   </g>
  </g>
 </g>
 <defs>
  <clipPath id="paf68caec31">
   <rect height="307.51175" width="409.903625" x="37.576375" y="13.32"/>
  </clipPath>
 </defs>
</svg>
