<?xml version="1.0" encoding="utf-8" standalone="no"?>
<!DOCTYPE svg PUBLIC "-//W3C//DTD SVG 1.1//EN"
  "http://www.w3.org/Graphics/SVG/1.1/DTD/svg11.dtd">
<!-- Created with matplotlib (http://matplotlib.org/) -->
<svg height="345.6pt" version="1.1" viewBox="0 0 460.8 345.6" width="460.8pt" xmlns="http://www.w3.org/2000/svg" xmlns:xlink="http://www.w3.org/1999/xlink">
 <defs>
  <style type="text/css">
*{stroke-linecap:butt;stroke-linejoin:round;}
  </style>
 </defs>
 <g id="figure_1">
  <g id="patch_1">
   <path d="M 0 345.6 
L 460.8 345.6 
L 460.8 0 
L 0 0 
z
" style="fill:#ffffff;"/>
  </g>
  <g id="axes_1">
   <g id="patch_2">
    <path clip-path="url(#pdcea3dbfcf)" d="M 424.218953 147.869728 
C 425.446595 147.869728 426.624121 147.644875 427.492196 147.244689 
C 428.36027 146.844504 428.848017 146.30166 428.848017 145.735712 
C 428.848017 145.169764 428.36027 144.62692 427.492196 144.226735 
C 426.624121 143.826549 425.446595 143.601696 424.218953 143.601696 
C 422.991311 143.601696 421.813784 143.826549 420.94571 144.226735 
C 420.077636 144.62692 419.589889 145.169764 419.589889 145.735712 
C 419.589889 146.30166 420.077636 146.844504 420.94571 147.244689 
C 421.813784 147.644875 422.991311 147.869728 424.218953 147.869728 
z
" style="fill:#ff0000;opacity:0.2;stroke:#ff0000;stroke-linejoin:miter;stroke-width:2;"/>
   </g>
   <g id="patch_3">
    <path clip-path="url(#pdcea3dbfcf)" d="M 100.184467 306.853943 
C 101.412109 306.853943 102.589635 306.62909 103.457709 306.228904 
C 104.325783 305.828719 104.813531 305.285875 104.813531 304.719927 
C 104.813531 304.153979 104.325783 303.611135 103.457709 303.210949 
C 102.589635 302.810764 101.412109 302.585911 100.184467 302.585911 
C 98.956825 302.585911 97.779298 302.810764 96.911224 303.210949 
C 96.04315 303.611135 95.555403 304.153979 95.555403 304.719927 
C 95.555403 305.285875 96.04315 305.828719 96.911224 306.228904 
C 97.779298 306.62909 98.956825 306.853943 100.184467 306.853943 
z
" style="fill:#ff0000;opacity:0.2;stroke:#ff0000;stroke-linejoin:miter;stroke-width:2;"/>
   </g>
   <g id="patch_4">
    <path clip-path="url(#pdcea3dbfcf)" d="M 79.353678 278.044723 
C 80.581321 278.044723 81.758847 277.81987 82.626921 277.419684 
C 83.494995 277.019499 83.982742 276.476654 83.982742 275.910707 
C 83.982742 275.344759 83.494995 274.801915 82.626921 274.401729 
C 81.758847 274.001544 80.581321 273.77669 79.353678 273.77669 
C 78.126036 273.77669 76.94851 274.001544 76.080436 274.401729 
C 75.212362 274.801915 74.724614 275.344759 74.724614 275.910707 
C 74.724614 276.476654 75.212362 277.019499 76.080436 277.419684 
C 76.94851 277.81987 78.126036 278.044723 79.353678 278.044723 
z
" style="fill:#ff0000;opacity:0.2;stroke:#ff0000;stroke-linejoin:miter;stroke-width:2;"/>
   </g>
   <g id="patch_5">
    <path clip-path="url(#pdcea3dbfcf)" d="M 252.943582 189.483046 
C 254.171224 189.483046 255.34875 189.258193 256.216824 188.858007 
C 257.084898 188.457822 257.572646 187.914978 257.572646 187.34903 
C 257.572646 186.783082 257.084898 186.240238 256.216824 185.840053 
C 255.34875 185.439867 254.171224 185.215014 252.943582 185.215014 
C 251.71594 185.215014 250.538413 185.439867 249.670339 185.840053 
C 248.802265 186.240238 248.314518 186.783082 248.314518 187.34903 
C 248.314518 187.914978 248.802265 188.457822 249.670339 188.858007 
C 250.538413 189.258193 251.71594 189.483046 252.943582 189.483046 
z
" style="fill:#ff0000;opacity:0.2;stroke:#ff0000;stroke-linejoin:miter;stroke-width:2;"/>
   </g>
   <g id="patch_6">
    <path clip-path="url(#pdcea3dbfcf)" d="M 139.531512 130.797598 
C 140.759154 130.797598 141.93668 130.572744 142.804754 130.172559 
C 143.672828 129.772373 144.160576 129.229529 144.160576 128.663581 
C 144.160576 128.097634 143.672828 127.55479 142.804754 127.154604 
C 141.93668 126.754419 140.759154 126.529565 139.531512 126.529565 
C 138.303869 126.529565 137.126343 126.754419 136.258269 127.154604 
C 135.390195 127.55479 134.902447 128.097634 134.902447 128.663581 
C 134.902447 129.229529 135.390195 129.772373 136.258269 130.172559 
C 137.126343 130.572744 138.303869 130.797598 139.531512 130.797598 
z
" style="fill:#ff0000;opacity:0.2;stroke:#ff0000;stroke-linejoin:miter;stroke-width:2;"/>
   </g>
   <g id="patch_7">
    <path clip-path="url(#pdcea3dbfcf)" d="M 79.353678 89.18428 
C 80.581321 89.18428 81.758847 88.959426 82.626921 88.559241 
C 83.494995 88.159055 83.982742 87.616211 83.982742 87.050263 
C 83.982742 86.484316 83.494995 85.941472 82.626921 85.541286 
C 81.758847 85.141101 80.581321 84.916247 79.353678 84.916247 
C 78.126036 84.916247 76.94851 85.141101 76.080436 85.541286 
C 75.212362 85.941472 74.724614 86.484316 74.724614 87.050263 
C 74.724614 87.616211 75.212362 88.159055 76.080436 88.559241 
C 76.94851 88.959426 78.126036 89.18428 79.353678 89.18428 
z
" style="fill:#ff0000;opacity:0.2;stroke:#ff0000;stroke-linejoin:miter;stroke-width:2;"/>
   </g>
   <g id="patch_8">
    <path clip-path="url(#pdcea3dbfcf)" d="M 220.540133 31.565839 
C 221.767775 31.565839 222.945302 31.340986 223.813376 30.940801 
C 224.68145 30.540615 225.169197 29.997771 225.169197 29.431823 
C 225.169197 28.865875 224.68145 28.323031 223.813376 27.922846 
C 222.945302 27.52266 221.767775 27.297807 220.540133 27.297807 
C 219.312491 27.297807 218.134965 27.52266 217.26689 27.922846 
C 216.398816 28.323031 215.911069 28.865875 215.911069 29.431823 
C 215.911069 29.997771 216.398816 30.540615 217.26689 30.940801 
C 218.134965 31.340986 219.312491 31.565839 220.540133 31.565839 
z
" style="fill:#ff0000;opacity:0.2;stroke:#ff0000;stroke-linejoin:miter;stroke-width:2;"/>
   </g>
   <g id="patch_9">
    <path clip-path="url(#pdcea3dbfcf)" d="M 234.427325 51.838994 
C 235.654967 51.838994 236.832494 51.614141 237.700568 51.213955 
C 238.568642 50.81377 239.056389 50.270926 239.056389 49.704978 
C 239.056389 49.13903 238.568642 48.596186 237.700568 48.196001 
C 236.832494 47.795815 235.654967 47.570962 234.427325 47.570962 
C 233.199683 47.570962 232.022157 47.795815 231.154083 48.196001 
C 230.286009 48.596186 229.798261 49.13903 229.798261 49.704978 
C 229.798261 50.270926 230.286009 50.81377 231.154083 51.213955 
C 232.022157 51.614141 233.199683 51.838994 234.427325 51.838994 
z
" style="fill:#0000ff;opacity:0.2;stroke:#0000ff;stroke-linejoin:miter;stroke-width:2;"/>
   </g>
   <g id="patch_10">
    <path clip-path="url(#pdcea3dbfcf)" d="M 391.815504 137.199647 
C 393.043146 137.199647 394.220673 136.974793 395.088747 136.574608 
C 395.956821 136.174422 396.444568 135.631578 396.444568 135.06563 
C 396.444568 134.499683 395.956821 133.956838 395.088747 133.556653 
C 394.220673 133.156467 393.043146 132.931614 391.815504 132.931614 
C 390.587862 132.931614 389.410336 133.156467 388.542262 133.556653 
C 387.674188 133.956838 387.18644 134.499683 387.18644 135.06563 
C 387.18644 135.631578 387.674188 136.174422 388.542262 136.574608 
C 389.410336 136.974793 390.587862 137.199647 391.815504 137.199647 
z
" style="fill:#0000ff;opacity:0.2;stroke:#0000ff;stroke-linejoin:miter;stroke-width:2;"/>
   </g>
   <g id="patch_11">
    <path clip-path="url(#pdcea3dbfcf)" d="M 130.273383 265.240625 
C 131.501026 265.240625 132.678552 265.015772 133.546626 264.615586 
C 134.4147 264.215401 134.902447 263.672557 134.902447 263.106609 
C 134.902447 262.540661 134.4147 261.997817 133.546626 261.597631 
C 132.678552 261.197446 131.501026 260.972593 130.273383 260.972593 
C 129.045741 260.972593 127.868215 261.197446 127.000141 261.597631 
C 126.132067 261.997817 125.644319 262.540661 125.644319 263.106609 
C 125.644319 263.672557 126.132067 264.215401 127.000141 264.615586 
C 127.868215 265.015772 129.045741 265.240625 130.273383 265.240625 
z
" style="fill:#0000ff;opacity:0.2;stroke:#0000ff;stroke-linejoin:miter;stroke-width:2;"/>
   </g>
   <g id="patch_12">
    <path clip-path="url(#pdcea3dbfcf)" d="M 111.757127 237.498413 
C 112.984769 237.498413 114.162296 237.27356 115.03037 236.873374 
C 115.898444 236.473189 116.386191 235.930345 116.386191 235.364397 
C 116.386191 234.798449 115.898444 234.255605 115.03037 233.855419 
C 114.162296 233.455234 112.984769 233.230381 111.757127 233.230381 
C 110.529485 233.230381 109.351958 233.455234 108.483884 233.855419 
C 107.61581 234.255605 107.128063 234.798449 107.128063 235.364397 
C 107.128063 235.930345 107.61581 236.473189 108.483884 236.873374 
C 109.351958 237.27356 110.529485 237.498413 111.757127 237.498413 
z
" style="fill:#0000ff;opacity:0.2;stroke:#0000ff;stroke-linejoin:miter;stroke-width:2;"/>
   </g>
   <g id="patch_13">
    <path clip-path="url(#pdcea3dbfcf)" d="M 273.77437 176.678948 
C 275.002012 176.678948 276.179539 176.454095 277.047613 176.053909 
C 277.915687 175.653724 278.403434 175.11088 278.403434 174.544932 
C 278.403434 173.978984 277.915687 173.43614 277.047613 173.035955 
C 276.179539 172.635769 275.002012 172.410916 273.77437 172.410916 
C 272.546728 172.410916 271.369202 172.635769 270.501127 173.035955 
C 269.633053 173.43614 269.145306 173.978984 269.145306 174.544932 
C 269.145306 175.11088 269.633053 175.653724 270.501127 176.053909 
C 271.369202 176.454095 272.546728 176.678948 273.77437 176.678948 
z
" style="fill:#0000ff;opacity:0.2;stroke:#0000ff;stroke-linejoin:miter;stroke-width:2;"/>
   </g>
   <g id="patch_14">
    <path clip-path="url(#pdcea3dbfcf)" d="M 160.3623 126.529565 
C 161.589942 126.529565 162.767468 126.304712 163.635543 125.904526 
C 164.503617 125.504341 164.991364 124.961497 164.991364 124.395549 
C 164.991364 123.829601 164.503617 123.286757 163.635543 122.886571 
C 162.767468 122.486386 161.589942 122.261533 160.3623 122.261533 
C 159.134658 122.261533 157.957131 122.486386 157.089057 122.886571 
C 156.220983 123.286757 155.733236 123.829601 155.733236 124.395549 
C 155.733236 124.961497 156.220983 125.504341 157.089057 125.904526 
C 157.957131 126.304712 159.134658 126.529565 160.3623 126.529565 
z
" style="fill:#0000ff;opacity:0.2;stroke:#0000ff;stroke-linejoin:miter;stroke-width:2;"/>
   </g>
   <g id="patch_15">
    <path clip-path="url(#pdcea3dbfcf)" d="M 121.015255 96.653337 
C 122.242897 96.653337 123.420424 96.428483 124.288498 96.028298 
C 125.156572 95.628112 125.644319 95.085268 125.644319 94.519321 
C 125.644319 93.953373 125.156572 93.410529 124.288498 93.010343 
C 123.420424 92.610158 122.242897 92.385304 121.015255 92.385304 
C 119.787613 92.385304 118.610087 92.610158 117.742013 93.010343 
C 116.873938 93.410529 116.386191 93.953373 116.386191 94.519321 
C 116.386191 95.085268 116.873938 95.628112 117.742013 96.028298 
C 118.610087 96.428483 119.787613 96.653337 121.015255 96.653337 
z
" style="fill:#0000ff;opacity:0.2;stroke:#0000ff;stroke-linejoin:miter;stroke-width:2;"/>
   </g>
   <g id="patch_16">
    <path clip-path="url(#pdcea3dbfcf)" d="M 424.218953 145.735712 
C 424.218953 235.364397 269.145306 286.580788 100.184467 304.719927 
C 65.466486 302.585911 56.208358 282.312756 79.353678 275.910707 
C 153.418704 263.106609 252.943582 232.163372 252.943582 187.34903 
C 252.943582 147.869728 188.136684 136.132639 139.531512 128.663581 
C 107.128063 124.395549 79.353678 108.390427 79.353678 87.050263 
C 79.353678 55.040019 141.846044 29.431823 220.540133 29.431823 
C 306.177819 29.431823 424.218953 61.442068 424.218953 145.735712 
" style="fill:none;stroke:#ff0000;stroke-linejoin:miter;stroke-width:0.5;"/>
   </g>
   <g id="patch_17">
    <path clip-path="url(#pdcea3dbfcf)" d="M 234.427325 49.704978 
C 310.806883 49.704978 391.815504 82.782231 391.815504 135.06563 
C 391.815504 209.756201 278.403434 247.101487 130.273383 263.106609 
C 102.498999 259.905584 93.240871 246.034478 111.757127 235.364397 
C 176.564024 228.962348 273.77437 208.689193 273.77437 174.544932 
C 273.77437 138.266655 171.93496 127.596573 160.3623 124.395549 
C 134.902447 117.9935 121.015255 108.390427 121.015255 94.519321 
C 121.015255 69.978133 160.3623 49.704978 234.427325 49.704978 
" style="fill:none;stroke:#0000ff;stroke-linejoin:miter;stroke-width:0.5;"/>
   </g>
   <g id="[&quot;g_s&quot;:1,&quot;g_t&quot;:2,&quot;coords&quot;:[[227.0, -668.0],[213.0, -658.0]],&quot;certainty&quot;:12]">
    <path clip-path="url(#pdcea3dbfcf)" d="M 424.218953 152.671265 
C 428.20879 152.671265 432.035751 151.940491 434.856991 150.639888 
C 437.678232 149.339286 439.263411 147.575042 439.263411 145.735712 
C 439.263411 143.896382 437.678232 142.132138 434.856991 140.831535 
C 432.035751 139.530933 428.20879 138.800159 424.218953 138.800159 
C 420.229116 138.800159 416.402155 139.530933 413.580914 140.831535 
C 410.759674 142.132138 409.174495 143.896382 409.174495 145.735712 
C 409.174495 147.575042 410.759674 149.339286 413.580914 150.639888 
C 416.402155 151.940491 420.229116 152.671265 424.218953 152.671265 
z
" style="fill:#0000ff;opacity:0.2;stroke:#0000ff;stroke-linejoin:miter;stroke-width:2;"/>
   </g>
   <g id="[&quot;g_s&quot;:2,&quot;g_t&quot;:1,&quot;coords&quot;:[[213.0, -658.0],[227.0, -668.0]],&quot;certainty&quot;:12]">
    <path clip-path="url(#pdcea3dbfcf)" d="M 391.815504 142.001183 
C 395.805341 142.001183 399.632302 141.27041 402.453543 139.969807 
C 405.274784 138.669204 406.859963 136.904961 406.859963 135.06563 
C 406.859963 133.2263 405.274784 131.462057 402.453543 130.161454 
C 399.632302 128.860851 395.805341 128.130077 391.815504 128.130077 
C 387.825667 128.130077 383.998707 128.860851 381.177466 130.161454 
C 378.356225 131.462057 376.771046 133.2263 376.771046 135.06563 
C 376.771046 136.904961 378.356225 138.669204 381.177466 139.969807 
C 383.998707 141.27041 387.825667 142.001183 391.815504 142.001183 
z
" style="fill:#ff0000;opacity:0.2;stroke:#ff0000;stroke-linejoin:miter;stroke-width:2;"/>
   </g>
   <g id="patch_18">
    <path d="M 424.218953 145.735712 
Q 408.968526 140.713922 395.9009 136.410904 
" style="fill:none;opacity:0.5;stroke:#0000ff;stroke-linecap:round;stroke-width:3.25;"/>
    <path d="M 396.856492 138.3048 
L 395.9009 136.410904 
L 397.794796 135.455311 
" style="fill:none;opacity:0.5;stroke:#0000ff;stroke-linecap:round;stroke-width:3.25;"/>
   </g>
   <g id="[&quot;g_s&quot;:2,&quot;g_t&quot;:3,&quot;coords&quot;:[[87.0, -817.0],[100.0, -778.0]],&quot;certainty&quot;:10]">
    <path clip-path="url(#pdcea3dbfcf)" d="M 100.184467 310.588472 
C 103.560483 310.588472 106.79868 309.970125 109.185884 308.869615 
C 111.573088 307.769105 112.914393 306.276283 112.914393 304.719927 
C 112.914393 303.163571 111.573088 301.670749 109.185884 300.570239 
C 106.79868 299.469729 103.560483 298.851382 100.184467 298.851382 
C 96.808451 298.851382 93.570253 299.469729 91.18305 300.570239 
C 88.795846 301.670749 87.454541 303.163571 87.454541 304.719927 
C 87.454541 306.276283 88.795846 307.769105 91.18305 308.869615 
C 93.570253 309.970125 96.808451 310.588472 100.184467 310.588472 
z
" style="fill:#0000ff;opacity:0.2;stroke:#0000ff;stroke-linejoin:miter;stroke-width:2;"/>
   </g>
   <g id="[&quot;g_s&quot;:3,&quot;g_t&quot;:2,&quot;coords&quot;:[[100.0, -778.0],[87.0, -817.0]],&quot;certainty&quot;:10]">
    <path clip-path="url(#pdcea3dbfcf)" d="M 130.273383 268.975154 
C 133.649399 268.975154 136.887597 268.356807 139.274801 267.256297 
C 141.662004 266.155787 143.00331 264.662965 143.00331 263.106609 
C 143.00331 261.550253 141.662004 260.057431 139.274801 258.956921 
C 136.887597 257.856411 133.649399 257.238064 130.273383 257.238064 
C 126.897367 257.238064 123.65917 257.856411 121.271966 258.956921 
C 118.884762 260.057431 117.543457 261.550253 117.543457 263.106609 
C 117.543457 264.662965 118.884762 266.155787 121.271966 267.256297 
C 123.65917 268.356807 126.897367 268.975154 130.273383 268.975154 
z
" style="fill:#ff0000;opacity:0.2;stroke:#ff0000;stroke-linejoin:miter;stroke-width:2;"/>
   </g>
   <g id="patch_19">
    <path d="M 100.184467 304.719927 
Q 114.642169 284.724758 127.960492 266.305364 
" style="fill:none;opacity:0.5;stroke:#0000ff;stroke-linecap:round;stroke-width:2.75;"/>
    <path d="M 125.866052 266.641994 
L 127.960492 266.305364 
L 128.297123 268.399804 
" style="fill:none;opacity:0.5;stroke:#0000ff;stroke-linecap:round;stroke-width:2.75;"/>
   </g>
   <g id="[&quot;g_s&quot;:3,&quot;g_t&quot;:4,&quot;coords&quot;:[[78.0, -790.0],[92.0, -752.0]],&quot;certainty&quot;:6]">
    <path clip-path="url(#pdcea3dbfcf)" d="M 79.353678 279.645235 
C 81.502052 279.645235 83.562723 279.251742 85.081853 278.551417 
C 86.600983 277.851093 87.454541 276.901115 87.454541 275.910707 
C 87.454541 274.920298 86.600983 273.970321 85.081853 273.269996 
C 83.562723 272.569672 81.502052 272.176178 79.353678 272.176178 
C 77.205305 272.176178 75.144633 272.569672 73.625504 273.269996 
C 72.106374 273.970321 71.252816 274.920298 71.252816 275.910707 
C 71.252816 276.901115 72.106374 277.851093 73.625504 278.551417 
C 75.144633 279.251742 77.205305 279.645235 79.353678 279.645235 
z
" style="fill:#0000ff;opacity:0.2;stroke:#0000ff;stroke-linejoin:miter;stroke-width:2;"/>
   </g>
   <g id="[&quot;g_s&quot;:4,&quot;g_t&quot;:3,&quot;coords&quot;:[[92.0, -752.0],[78.0, -790.0]],&quot;certainty&quot;:6]">
    <path clip-path="url(#pdcea3dbfcf)" d="M 111.757127 239.098925 
C 113.905501 239.098925 115.966172 238.705432 117.485302 238.005107 
C 119.004431 237.304783 119.857989 236.354805 119.857989 235.364397 
C 119.857989 234.373988 119.004431 233.424011 117.485302 232.723686 
C 115.966172 232.023362 113.905501 231.629868 111.757127 231.629868 
C 109.608753 231.629868 107.548082 232.023362 106.028952 232.723686 
C 104.509823 233.424011 103.656265 234.373988 103.656265 235.364397 
C 103.656265 236.354805 104.509823 237.304783 106.028952 238.005107 
C 107.548082 238.705432 109.608753 239.098925 111.757127 239.098925 
z
" style="fill:#ff0000;opacity:0.2;stroke:#ff0000;stroke-linejoin:miter;stroke-width:2;"/>
   </g>
   <g id="patch_20">
    <path d="M 79.353678 275.910707 
Q 94.931423 256.418336 109.736635 237.892631 
" style="fill:none;opacity:0.5;stroke:#0000ff;stroke-linecap:round;stroke-width:1.75;"/>
    <path d="M 107.628408 238.127957 
L 109.736635 237.892631 
L 109.971961 240.000858 
" style="fill:none;opacity:0.5;stroke:#0000ff;stroke-linecap:round;stroke-width:1.75;"/>
   </g>
   <g id="[&quot;g_s&quot;:4,&quot;g_t&quot;:5,&quot;coords&quot;:[[153.0, -707.0],[162.0, -695.0]],&quot;certainty&quot;:11]">
    <path clip-path="url(#pdcea3dbfcf)" d="M 252.943582 193.751079 
C 256.626508 193.751079 260.159087 193.076519 262.76331 191.875962 
C 265.367532 190.675406 266.830774 189.046873 266.830774 187.34903 
C 266.830774 185.651187 265.367532 184.022654 262.76331 182.822098 
C 260.159087 181.621541 256.626508 180.946981 252.943582 180.946981 
C 249.260655 180.946981 245.728076 181.621541 243.123854 182.822098 
C 240.519632 184.022654 239.056389 185.651187 239.056389 187.34903 
C 239.056389 189.046873 240.519632 190.675406 243.123854 191.875962 
C 245.728076 193.076519 249.260655 193.751079 252.943582 193.751079 
z
" style="fill:#0000ff;opacity:0.2;stroke:#0000ff;stroke-linejoin:miter;stroke-width:2;"/>
   </g>
   <g id="[&quot;g_s&quot;:5,&quot;g_t&quot;:4,&quot;coords&quot;:[[162.0, -695.0],[153.0, -707.0]],&quot;certainty&quot;:11]">
    <path clip-path="url(#pdcea3dbfcf)" d="M 273.77437 180.946981 
C 277.457297 180.946981 280.989876 180.272421 283.594098 179.071864 
C 286.19832 177.871308 287.661562 176.242775 287.661562 174.544932 
C 287.661562 172.847089 286.19832 171.218556 283.594098 170.018 
C 280.989876 168.817443 277.457297 168.142883 273.77437 168.142883 
C 270.091444 168.142883 266.558865 168.817443 263.954642 170.018 
C 261.35042 171.218556 259.887178 172.847089 259.887178 174.544932 
C 259.887178 176.242775 261.35042 177.871308 263.954642 179.071864 
C 266.558865 180.272421 270.091444 180.946981 273.77437 180.946981 
z
" style="fill:#ff0000;opacity:0.2;stroke:#ff0000;stroke-linejoin:miter;stroke-width:2;"/>
   </g>
   <g id="patch_21">
    <path d="M 252.943582 187.34903 
Q 262.50586 181.471368 270.260922 176.704549 
" style="fill:none;opacity:0.5;stroke:#0000ff;stroke-linecap:round;stroke-width:3;"/>
    <path d="M 268.197543 176.212141 
L 270.260922 176.704549 
L 269.768514 178.767928 
" style="fill:none;opacity:0.5;stroke:#0000ff;stroke-linecap:round;stroke-width:3;"/>
   </g>
   <g id="[&quot;g_s&quot;:5,&quot;g_t&quot;:6,&quot;coords&quot;:[[104.0, -652.0],[113.0, -648.0]],&quot;certainty&quot;:4]">
    <path clip-path="url(#pdcea3dbfcf)" d="M 139.531512 131.331102 
C 141.066064 131.331102 142.537972 131.050035 143.623065 130.549803 
C 144.708157 130.049571 145.317842 129.371016 145.317842 128.663581 
C 145.317842 127.956147 144.708157 127.277592 143.623065 126.77736 
C 142.537972 126.277128 141.066064 125.996061 139.531512 125.996061 
C 137.996959 125.996061 136.525051 126.277128 135.439958 126.77736 
C 134.354866 127.277592 133.745181 127.956147 133.745181 128.663581 
C 133.745181 129.371016 134.354866 130.049571 135.439958 130.549803 
C 136.525051 131.050035 137.996959 131.331102 139.531512 131.331102 
z
" style="fill:#0000ff;opacity:0.2;stroke:#0000ff;stroke-linejoin:miter;stroke-width:2;"/>
   </g>
   <g id="[&quot;g_s&quot;:6,&quot;g_t&quot;:5,&quot;coords&quot;:[[113.0, -648.0],[104.0, -652.0]],&quot;certainty&quot;:4]">
    <path clip-path="url(#pdcea3dbfcf)" d="M 160.3623 127.063069 
C 161.896853 127.063069 163.368761 126.782002 164.453853 126.281771 
C 165.538946 125.781539 166.14863 125.102984 166.14863 124.395549 
C 166.14863 123.688114 165.538946 123.009559 164.453853 122.509327 
C 163.368761 122.009095 161.896853 121.728028 160.3623 121.728028 
C 158.827747 121.728028 157.355839 122.009095 156.270747 122.509327 
C 155.185654 123.009559 154.57597 123.688114 154.57597 124.395549 
C 154.57597 125.102984 155.185654 125.781539 156.270747 126.281771 
C 157.355839 126.782002 158.827747 127.063069 160.3623 127.063069 
z
" style="fill:#ff0000;opacity:0.2;stroke:#ff0000;stroke-linejoin:miter;stroke-width:2;"/>
   </g>
   <g id="patch_22">
    <path d="M 139.531512 128.663581 
Q 148.966648 126.730411 157.53589 124.974654 
" style="fill:none;opacity:0.5;stroke:#0000ff;stroke-linecap:round;stroke-width:1.25;"/>
    <path d="M 155.765336 123.806262 
L 157.53589 124.974654 
L 156.367498 126.745208 
" style="fill:none;opacity:0.5;stroke:#0000ff;stroke-linecap:round;stroke-width:1.25;"/>
   </g>
   <g id="[&quot;g_s&quot;:6,&quot;g_t&quot;:7,&quot;coords&quot;:[[78.0, -613.0],[96.0, -620.0]],&quot;certainty&quot;:11]">
    <path clip-path="url(#pdcea3dbfcf)" d="M 79.353678 93.452312 
C 83.036605 93.452312 86.569184 92.777752 89.173406 91.577196 
C 91.777628 90.376639 93.240871 88.748107 93.240871 87.050263 
C 93.240871 85.35242 91.777628 83.723888 89.173406 82.523331 
C 86.569184 81.322775 83.036605 80.648215 79.353678 80.648215 
C 75.670752 80.648215 72.138173 81.322775 69.533951 82.523331 
C 66.929728 83.723888 65.466486 85.35242 65.466486 87.050263 
C 65.466486 88.748107 66.929728 90.376639 69.533951 91.577196 
C 72.138173 92.777752 75.670752 93.452312 79.353678 93.452312 
z
" style="fill:#0000ff;opacity:0.2;stroke:#0000ff;stroke-linejoin:miter;stroke-width:2;"/>
   </g>
   <g id="[&quot;g_s&quot;:7,&quot;g_t&quot;:6,&quot;coords&quot;:[[96.0, -620.0],[78.0, -613.0]],&quot;certainty&quot;:11]">
    <path clip-path="url(#pdcea3dbfcf)" d="M 121.015255 100.921369 
C 124.698182 100.921369 128.230761 100.246809 130.834983 99.046253 
C 133.439205 97.845696 134.902447 96.217164 134.902447 94.519321 
C 134.902447 92.821477 133.439205 91.192945 130.834983 89.992388 
C 128.230761 88.791832 124.698182 88.117272 121.015255 88.117272 
C 117.332329 88.117272 113.79975 88.791832 111.195527 89.992388 
C 108.591305 91.192945 107.128063 92.821477 107.128063 94.519321 
C 107.128063 96.217164 108.591305 97.845696 111.195527 99.046253 
C 113.79975 100.246809 117.332329 100.921369 121.015255 100.921369 
z
" style="fill:#ff0000;opacity:0.2;stroke:#ff0000;stroke-linejoin:miter;stroke-width:2;"/>
   </g>
   <g id="patch_23">
    <path d="M 79.353678 87.050263 
Q 99.199124 90.60814 116.956539 93.791677 
" style="fill:none;opacity:0.5;stroke:#0000ff;stroke-linecap:round;stroke-width:3;"/>
    <path d="M 115.744778 92.050518 
L 116.956539 93.791677 
L 115.21538 95.003438 
" style="fill:none;opacity:0.5;stroke:#0000ff;stroke-linecap:round;stroke-width:3;"/>
   </g>
   <g id="[&quot;g_s&quot;:7,&quot;g_t&quot;:1,&quot;coords&quot;:[[139.0, -559.0],[145.0, -578.0]],&quot;certainty&quot;:11]">
    <path clip-path="url(#pdcea3dbfcf)" d="M 220.540133 35.833872 
C 224.22306 35.833872 227.755639 35.159312 230.359861 33.958755 
C 232.964083 32.758199 234.427325 31.129666 234.427325 29.431823 
C 234.427325 27.73398 232.964083 26.105447 230.359861 24.904891 
C 227.755639 23.704334 224.22306 23.029774 220.540133 23.029774 
C 216.857207 23.029774 213.324628 23.704334 210.720405 24.904891 
C 208.116183 26.105447 206.652941 27.73398 206.652941 29.431823 
C 206.652941 31.129666 208.116183 32.758199 210.720405 33.958755 
C 213.324628 35.159312 216.857207 35.833872 220.540133 35.833872 
z
" style="fill:#0000ff;opacity:0.2;stroke:#0000ff;stroke-linejoin:miter;stroke-width:2;"/>
   </g>
   <g id="[&quot;g_s&quot;:1,&quot;g_t&quot;:7,&quot;coords&quot;:[[145.0, -578.0],[139.0, -559.0]],&quot;certainty&quot;:11]">
    <path clip-path="url(#pdcea3dbfcf)" d="M 234.427325 56.107027 
C 238.110252 56.107027 241.642831 55.432467 244.247053 54.23191 
C 246.851275 53.031354 248.314518 51.402821 248.314518 49.704978 
C 248.314518 48.007135 246.851275 46.378602 244.247053 45.178046 
C 241.642831 43.977489 238.110252 43.302929 234.427325 43.302929 
C 230.744399 43.302929 227.21182 43.977489 224.607598 45.178046 
C 222.003375 46.378602 220.540133 48.007135 220.540133 49.704978 
C 220.540133 51.402821 222.003375 53.031354 224.607598 54.23191 
C 227.21182 55.432467 230.744399 56.107027 234.427325 56.107027 
z
" style="fill:#ff0000;opacity:0.2;stroke:#ff0000;stroke-linejoin:miter;stroke-width:2;"/>
   </g>
   <g id="patch_24">
    <path d="M 220.540133 29.431823 
Q 226.918375 38.743071 232.097797 46.304226 
" style="fill:none;opacity:0.5;stroke:#0000ff;stroke-linecap:round;stroke-width:3;"/>
    <path d="M 232.487605 44.219028 
L 232.097797 46.304226 
L 230.012599 45.914417 
" style="fill:none;opacity:0.5;stroke:#0000ff;stroke-linecap:round;stroke-width:3;"/>
   </g>
   <g id="[&quot;g_s&quot;:1,&quot;g_t&quot;:7,&quot;coords&quot;:[[145.0, -578.0],[139.0, -559.0]],&quot;certainty&quot;:11]">
    <path clip-path="url(#pdcea3dbfcf)" d="M 234.427325 56.107027 
C 238.110252 56.107027 241.642831 55.432467 244.247053 54.23191 
C 246.851275 53.031354 248.314518 51.402821 248.314518 49.704978 
C 248.314518 48.007135 246.851275 46.378602 244.247053 45.178046 
C 241.642831 43.977489 238.110252 43.302929 234.427325 43.302929 
C 230.744399 43.302929 227.21182 43.977489 224.607598 45.178046 
C 222.003375 46.378602 220.540133 48.007135 220.540133 49.704978 
C 220.540133 51.402821 222.003375 53.031354 224.607598 54.23191 
C 227.21182 55.432467 230.744399 56.107027 234.427325 56.107027 
z
" style="fill:#0000ff;opacity:0.2;stroke:#0000ff;stroke-linejoin:miter;stroke-width:2;"/>
   </g>
   <g id="[&quot;g_s&quot;:7,&quot;g_t&quot;:1,&quot;coords&quot;:[[139.0, -559.0],[145.0, -578.0]],&quot;certainty&quot;:11]">
    <path clip-path="url(#pdcea3dbfcf)" d="M 220.540133 35.833872 
C 224.22306 35.833872 227.755639 35.159312 230.359861 33.958755 
C 232.964083 32.758199 234.427325 31.129666 234.427325 29.431823 
C 234.427325 27.73398 232.964083 26.105447 230.359861 24.904891 
C 227.755639 23.704334 224.22306 23.029774 220.540133 23.029774 
C 216.857207 23.029774 213.324628 23.704334 210.720405 24.904891 
C 208.116183 26.105447 206.652941 27.73398 206.652941 29.431823 
C 206.652941 31.129666 208.116183 32.758199 210.720405 33.958755 
C 213.324628 35.159312 216.857207 35.833872 220.540133 35.833872 
z
" style="fill:#ff0000;opacity:0.2;stroke:#ff0000;stroke-linejoin:miter;stroke-width:2;"/>
   </g>
   <g id="patch_25">
    <path d="M 234.427325 49.704978 
Q 228.049083 40.39373 222.869662 32.832575 
" style="fill:none;opacity:0.5;stroke:#ff0000;stroke-linecap:round;stroke-width:3;"/>
    <path d="M 222.479853 34.917773 
L 222.869662 32.832575 
L 224.95486 33.222384 
" style="fill:none;opacity:0.5;stroke:#ff0000;stroke-linecap:round;stroke-width:3;"/>
   </g>
   <g id="[&quot;g_s&quot;:2,&quot;g_t&quot;:1,&quot;coords&quot;:[[213.0, -658.0],[227.0, -668.0]],&quot;certainty&quot;:11]">
    <path clip-path="url(#pdcea3dbfcf)" d="M 391.815504 141.467679 
C 395.498431 141.467679 399.03101 140.793119 401.635232 139.592563 
C 404.239454 138.392006 405.702697 136.763474 405.702697 135.06563 
C 405.702697 133.367787 404.239454 131.739255 401.635232 130.538698 
C 399.03101 129.338142 395.498431 128.663581 391.815504 128.663581 
C 388.132578 128.663581 384.599999 129.338142 381.995777 130.538698 
C 379.391554 131.739255 377.928312 133.367787 377.928312 135.06563 
C 377.928312 136.763474 379.391554 138.392006 381.995777 139.592563 
C 384.599999 140.793119 388.132578 141.467679 391.815504 141.467679 
z
" style="fill:#0000ff;opacity:0.2;stroke:#0000ff;stroke-linejoin:miter;stroke-width:2;"/>
   </g>
   <g id="[&quot;g_s&quot;:1,&quot;g_t&quot;:2,&quot;coords&quot;:[[227.0, -668.0],[213.0, -658.0]],&quot;certainty&quot;:11]">
    <path clip-path="url(#pdcea3dbfcf)" d="M 424.218953 152.137761 
C 427.901879 152.137761 431.434459 151.463201 434.038681 150.262644 
C 436.642903 149.062088 438.106145 147.433555 438.106145 145.735712 
C 438.106145 144.037869 436.642903 142.409336 434.038681 141.20878 
C 431.434459 140.008223 427.901879 139.333663 424.218953 139.333663 
C 420.536027 139.333663 417.003447 140.008223 414.399225 141.20878 
C 411.795003 142.409336 410.331761 144.037869 410.331761 145.735712 
C 410.331761 147.433555 411.795003 149.062088 414.399225 150.262644 
C 417.003447 151.463201 420.536027 152.137761 424.218953 152.137761 
z
" style="fill:#ff0000;opacity:0.2;stroke:#ff0000;stroke-linejoin:miter;stroke-width:2;"/>
   </g>
   <g id="patch_26">
    <path d="M 391.815504 135.06563 
Q 407.065931 140.08742 420.301465 144.445728 
" style="fill:none;opacity:0.5;stroke:#ff0000;stroke-linecap:round;stroke-width:3;"/>
    <path d="M 419.345873 142.551832 
L 420.301465 144.445728 
L 418.407569 145.401321 
" style="fill:none;opacity:0.5;stroke:#ff0000;stroke-linecap:round;stroke-width:3;"/>
   </g>
   <g id="[&quot;g_s&quot;:3,&quot;g_t&quot;:2,&quot;coords&quot;:[[100.0, -778.0],[87.0, -817.0]],&quot;certainty&quot;:5]">
    <path clip-path="url(#pdcea3dbfcf)" d="M 130.273383 266.307633 
C 132.114847 266.307633 133.881136 265.970353 135.183247 265.370075 
C 136.485358 264.769797 137.216979 263.95553 137.216979 263.106609 
C 137.216979 262.257687 136.485358 261.443421 135.183247 260.843143 
C 133.881136 260.242865 132.114847 259.905584 130.273383 259.905584 
C 128.43192 259.905584 126.665631 260.242865 125.363519 260.843143 
C 124.061408 261.443421 123.329787 262.257687 123.329787 263.106609 
C 123.329787 263.95553 124.061408 264.769797 125.363519 265.370075 
C 126.665631 265.970353 128.43192 266.307633 130.273383 266.307633 
z
" style="fill:#0000ff;opacity:0.2;stroke:#0000ff;stroke-linejoin:miter;stroke-width:2;"/>
   </g>
   <g id="[&quot;g_s&quot;:2,&quot;g_t&quot;:3,&quot;coords&quot;:[[87.0, -817.0],[100.0, -778.0]],&quot;certainty&quot;:5]">
    <path clip-path="url(#pdcea3dbfcf)" d="M 100.184467 307.920951 
C 102.02593 307.920951 103.79222 307.583671 105.094331 306.983393 
C 106.396442 306.383115 107.128063 305.568848 107.128063 304.719927 
C 107.128063 303.871005 106.396442 303.056739 105.094331 302.456461 
C 103.79222 301.856183 102.02593 301.518902 100.184467 301.518902 
C 98.343004 301.518902 96.576714 301.856183 95.274603 302.456461 
C 93.972492 303.056739 93.240871 303.871005 93.240871 304.719927 
C 93.240871 305.568848 93.972492 306.383115 95.274603 306.983393 
C 96.576714 307.583671 98.343004 307.920951 100.184467 307.920951 
z
" style="fill:#ff0000;opacity:0.2;stroke:#ff0000;stroke-linejoin:miter;stroke-width:2;"/>
   </g>
   <g id="patch_27">
    <path d="M 130.273383 263.106609 
Q 115.815681 283.101778 101.979458 302.237433 
" style="fill:none;opacity:0.5;stroke:#ff0000;stroke-linecap:round;stroke-width:1.5;"/>
    <path d="M 104.073898 301.900803 
L 101.979458 302.237433 
L 101.642827 300.142993 
" style="fill:none;opacity:0.5;stroke:#ff0000;stroke-linecap:round;stroke-width:1.5;"/>
   </g>
   <g id="[&quot;g_s&quot;:4,&quot;g_t&quot;:3,&quot;coords&quot;:[[92.0, -752.0],[78.0, -790.0]],&quot;certainty&quot;:6]">
    <path clip-path="url(#pdcea3dbfcf)" d="M 111.757127 239.098925 
C 113.905501 239.098925 115.966172 238.705432 117.485302 238.005107 
C 119.004431 237.304783 119.857989 236.354805 119.857989 235.364397 
C 119.857989 234.373988 119.004431 233.424011 117.485302 232.723686 
C 115.966172 232.023362 113.905501 231.629868 111.757127 231.629868 
C 109.608753 231.629868 107.548082 232.023362 106.028952 232.723686 
C 104.509823 233.424011 103.656265 234.373988 103.656265 235.364397 
C 103.656265 236.354805 104.509823 237.304783 106.028952 238.005107 
C 107.548082 238.705432 109.608753 239.098925 111.757127 239.098925 
z
" style="fill:#0000ff;opacity:0.2;stroke:#0000ff;stroke-linejoin:miter;stroke-width:2;"/>
   </g>
   <g id="[&quot;g_s&quot;:3,&quot;g_t&quot;:4,&quot;coords&quot;:[[78.0, -790.0],[92.0, -752.0]],&quot;certainty&quot;:6]">
    <path clip-path="url(#pdcea3dbfcf)" d="M 79.353678 279.645235 
C 81.502052 279.645235 83.562723 279.251742 85.081853 278.551417 
C 86.600983 277.851093 87.454541 276.901115 87.454541 275.910707 
C 87.454541 274.920298 86.600983 273.970321 85.081853 273.269996 
C 83.562723 272.569672 81.502052 272.176178 79.353678 272.176178 
C 77.205305 272.176178 75.144633 272.569672 73.625504 273.269996 
C 72.106374 273.970321 71.252816 274.920298 71.252816 275.910707 
C 71.252816 276.901115 72.106374 277.851093 73.625504 278.551417 
C 75.144633 279.251742 77.205305 279.645235 79.353678 279.645235 
z
" style="fill:#ff0000;opacity:0.2;stroke:#ff0000;stroke-linejoin:miter;stroke-width:2;"/>
   </g>
   <g id="patch_28">
    <path d="M 111.757127 235.364397 
Q 96.179383 254.856768 81.374171 273.382473 
" style="fill:none;opacity:0.5;stroke:#ff0000;stroke-linecap:round;stroke-width:1.75;"/>
    <path d="M 83.482398 273.147146 
L 81.374171 273.382473 
L 81.138844 271.274246 
" style="fill:none;opacity:0.5;stroke:#ff0000;stroke-linecap:round;stroke-width:1.75;"/>
   </g>
   <g id="[&quot;g_s&quot;:5,&quot;g_t&quot;:4,&quot;coords&quot;:[[162.0, -695.0],[153.0, -707.0]],&quot;certainty&quot;:11]">
    <path clip-path="url(#pdcea3dbfcf)" d="M 273.77437 180.946981 
C 277.457297 180.946981 280.989876 180.272421 283.594098 179.071864 
C 286.19832 177.871308 287.661562 176.242775 287.661562 174.544932 
C 287.661562 172.847089 286.19832 171.218556 283.594098 170.018 
C 280.989876 168.817443 277.457297 168.142883 273.77437 168.142883 
C 270.091444 168.142883 266.558865 168.817443 263.954642 170.018 
C 261.35042 171.218556 259.887178 172.847089 259.887178 174.544932 
C 259.887178 176.242775 261.35042 177.871308 263.954642 179.071864 
C 266.558865 180.272421 270.091444 180.946981 273.77437 180.946981 
z
" style="fill:#0000ff;opacity:0.2;stroke:#0000ff;stroke-linejoin:miter;stroke-width:2;"/>
   </g>
   <g id="[&quot;g_s&quot;:4,&quot;g_t&quot;:5,&quot;coords&quot;:[[153.0, -707.0],[162.0, -695.0]],&quot;certainty&quot;:11]">
    <path clip-path="url(#pdcea3dbfcf)" d="M 252.943582 193.751079 
C 256.626508 193.751079 260.159087 193.076519 262.76331 191.875962 
C 265.367532 190.675406 266.830774 189.046873 266.830774 187.34903 
C 266.830774 185.651187 265.367532 184.022654 262.76331 182.822098 
C 260.159087 181.621541 256.626508 180.946981 252.943582 180.946981 
C 249.260655 180.946981 245.728076 181.621541 243.123854 182.822098 
C 240.519632 184.022654 239.056389 185.651187 239.056389 187.34903 
C 239.056389 189.046873 240.519632 190.675406 243.123854 191.875962 
C 245.728076 193.076519 249.260655 193.751079 252.943582 193.751079 
z
" style="fill:#ff0000;opacity:0.2;stroke:#ff0000;stroke-linejoin:miter;stroke-width:2;"/>
   </g>
   <g id="patch_29">
    <path d="M 273.77437 174.544932 
Q 264.212092 180.422594 256.457029 185.189413 
" style="fill:none;opacity:0.5;stroke:#ff0000;stroke-linecap:round;stroke-width:3;"/>
    <path d="M 258.520409 185.681821 
L 256.457029 185.189413 
L 256.949438 183.126034 
" style="fill:none;opacity:0.5;stroke:#ff0000;stroke-linecap:round;stroke-width:3;"/>
   </g>
   <g id="[&quot;g_s&quot;:6,&quot;g_t&quot;:5,&quot;coords&quot;:[[113.0, -648.0],[104.0, -652.0]],&quot;certainty&quot;:5]">
    <path clip-path="url(#pdcea3dbfcf)" d="M 160.3623 127.596573 
C 162.203763 127.596573 163.970053 127.259293 165.272164 126.659015 
C 166.574275 126.058737 167.305896 125.24447 167.305896 124.395549 
C 167.305896 123.546627 166.574275 122.732361 165.272164 122.132083 
C 163.970053 121.531805 162.203763 121.194524 160.3623 121.194524 
C 158.520837 121.194524 156.754547 121.531805 155.452436 122.132083 
C 154.150325 122.732361 153.418704 123.546627 153.418704 124.395549 
C 153.418704 125.24447 154.150325 126.058737 155.452436 126.659015 
C 156.754547 127.259293 158.520837 127.596573 160.3623 127.596573 
z
" style="fill:#0000ff;opacity:0.2;stroke:#0000ff;stroke-linejoin:miter;stroke-width:2;"/>
   </g>
   <g id="[&quot;g_s&quot;:5,&quot;g_t&quot;:6,&quot;coords&quot;:[[104.0, -652.0],[113.0, -648.0]],&quot;certainty&quot;:5]">
    <path clip-path="url(#pdcea3dbfcf)" d="M 139.531512 131.864606 
C 141.372975 131.864606 143.139264 131.527326 144.441375 130.927048 
C 145.743487 130.326769 146.475108 129.512503 146.475108 128.663581 
C 146.475108 127.81466 145.743487 127.000394 144.441375 126.400115 
C 143.139264 125.799837 141.372975 125.462557 139.531512 125.462557 
C 137.690048 125.462557 135.923759 125.799837 134.621648 126.400115 
C 133.319536 127.000394 132.587915 127.81466 132.587915 128.663581 
C 132.587915 129.512503 133.319536 130.326769 134.621648 130.927048 
C 135.923759 131.527326 137.690048 131.864606 139.531512 131.864606 
z
" style="fill:#ff0000;opacity:0.2;stroke:#ff0000;stroke-linejoin:miter;stroke-width:2;"/>
   </g>
   <g id="patch_30">
    <path d="M 160.3623 124.395549 
Q 150.927163 126.32872 142.531101 128.048994 
" style="fill:none;opacity:0.5;stroke:#ff0000;stroke-linecap:round;stroke-width:1.5;"/>
    <path d="M 144.301654 129.217385 
L 142.531101 128.048994 
L 143.699492 126.27844 
" style="fill:none;opacity:0.5;stroke:#ff0000;stroke-linecap:round;stroke-width:1.5;"/>
   </g>
   <g id="[&quot;g_s&quot;:7,&quot;g_t&quot;:6,&quot;coords&quot;:[[96.0, -620.0],[78.0, -613.0]],&quot;certainty&quot;:11]">
    <path clip-path="url(#pdcea3dbfcf)" d="M 121.015255 100.921369 
C 124.698182 100.921369 128.230761 100.246809 130.834983 99.046253 
C 133.439205 97.845696 134.902447 96.217164 134.902447 94.519321 
C 134.902447 92.821477 133.439205 91.192945 130.834983 89.992388 
C 128.230761 88.791832 124.698182 88.117272 121.015255 88.117272 
C 117.332329 88.117272 113.79975 88.791832 111.195527 89.992388 
C 108.591305 91.192945 107.128063 92.821477 107.128063 94.519321 
C 107.128063 96.217164 108.591305 97.845696 111.195527 99.046253 
C 113.79975 100.246809 117.332329 100.921369 121.015255 100.921369 
z
" style="fill:#0000ff;opacity:0.2;stroke:#0000ff;stroke-linejoin:miter;stroke-width:2;"/>
   </g>
   <g id="[&quot;g_s&quot;:6,&quot;g_t&quot;:7,&quot;coords&quot;:[[78.0, -613.0],[96.0, -620.0]],&quot;certainty&quot;:11]">
    <path clip-path="url(#pdcea3dbfcf)" d="M 79.353678 93.452312 
C 83.036605 93.452312 86.569184 92.777752 89.173406 91.577196 
C 91.777628 90.376639 93.240871 88.748107 93.240871 87.050263 
C 93.240871 85.35242 91.777628 83.723888 89.173406 82.523331 
C 86.569184 81.322775 83.036605 80.648215 79.353678 80.648215 
C 75.670752 80.648215 72.138173 81.322775 69.533951 82.523331 
C 66.929728 83.723888 65.466486 85.35242 65.466486 87.050263 
C 65.466486 88.748107 66.929728 90.376639 69.533951 91.577196 
C 72.138173 92.777752 75.670752 93.452312 79.353678 93.452312 
z
" style="fill:#ff0000;opacity:0.2;stroke:#ff0000;stroke-linejoin:miter;stroke-width:2;"/>
   </g>
   <g id="patch_31">
    <path d="M 121.015255 94.519321 
Q 101.16981 90.961444 83.412395 87.777907 
" style="fill:none;opacity:0.5;stroke:#ff0000;stroke-linecap:round;stroke-width:3;"/>
    <path d="M 84.624156 89.519066 
L 83.412395 87.777907 
L 85.153553 86.566146 
" style="fill:none;opacity:0.5;stroke:#ff0000;stroke-linecap:round;stroke-width:3;"/>
   </g>
   <g id="patch_32">
    <path clip-path="url(#pdcea3dbfcf)" d="M 408.017229 145.735712 
C 411.086334 145.735712 414.03015 145.173578 416.200335 144.173115 
C 418.37052 143.172651 419.589889 141.81554 419.589889 140.400671 
C 419.589889 138.985802 418.37052 137.628691 416.200335 136.628228 
C 414.03015 135.627764 411.086334 135.06563 408.017229 135.06563 
C 404.948123 135.06563 402.004307 135.627764 399.834122 136.628228 
C 397.663937 137.628691 396.444568 138.985802 396.444568 140.400671 
C 396.444568 141.81554 397.663937 143.172651 399.834122 144.173115 
C 402.004307 145.173578 404.948123 145.735712 408.017229 145.735712 
z
" style="fill:#008000;opacity:0.2;stroke:#008000;stroke-linejoin:miter;stroke-width:2;"/>
   </g>
   <g id="patch_33">
    <path clip-path="url(#pdcea3dbfcf)" d="M 115.228925 289.248309 
C 118.29803 289.248309 121.241846 288.686175 123.412032 287.685711 
C 125.582217 286.685248 126.801585 285.328137 126.801585 283.913268 
C 126.801585 282.498399 125.582217 281.141288 123.412032 280.140824 
C 121.241846 279.140361 118.29803 278.578227 115.228925 278.578227 
C 112.15982 278.578227 109.216004 279.140361 107.045819 280.140824 
C 104.875633 281.141288 103.656265 282.498399 103.656265 283.913268 
C 103.656265 285.328137 104.875633 286.685248 107.045819 287.685711 
C 109.216004 288.686175 112.15982 289.248309 115.228925 289.248309 
z
" style="fill:#008000;opacity:0.2;stroke:#008000;stroke-linejoin:miter;stroke-width:2;"/>
   </g>
   <g id="patch_34">
    <path clip-path="url(#pdcea3dbfcf)" d="M 95.555403 260.972593 
C 98.624508 260.972593 101.568324 260.410459 103.738509 259.409995 
C 105.908694 258.409532 107.128063 257.052421 107.128063 255.637552 
C 107.128063 254.222682 105.908694 252.865572 103.738509 251.865108 
C 101.568324 250.864645 98.624508 250.302511 95.555403 250.302511 
C 92.486297 250.302511 89.542481 250.864645 87.372296 251.865108 
C 85.202111 252.865572 83.982742 254.222682 83.982742 255.637552 
C 83.982742 257.052421 85.202111 258.409532 87.372296 259.409995 
C 89.542481 260.410459 92.486297 260.972593 95.555403 260.972593 
z
" style="fill:#008000;opacity:0.2;stroke:#008000;stroke-linejoin:miter;stroke-width:2;"/>
   </g>
   <g id="patch_35">
    <path clip-path="url(#pdcea3dbfcf)" d="M 263.358976 186.282022 
C 266.428081 186.282022 269.371897 185.719888 271.542082 184.719425 
C 273.712268 183.718961 274.931636 182.36185 274.931636 180.946981 
C 274.931636 179.532112 273.712268 178.175001 271.542082 177.174537 
C 269.371897 176.174074 266.428081 175.61194 263.358976 175.61194 
C 260.289871 175.61194 257.346055 176.174074 255.175869 177.174537 
C 253.005684 178.175001 251.786316 179.532112 251.786316 180.946981 
C 251.786316 182.36185 253.005684 183.718961 255.175869 184.719425 
C 257.346055 185.719888 260.289871 186.282022 263.358976 186.282022 
z
" style="fill:#008000;opacity:0.2;stroke:#008000;stroke-linejoin:miter;stroke-width:2;"/>
   </g>
   <g id="patch_36">
    <path clip-path="url(#pdcea3dbfcf)" d="M 149.946906 131.864606 
C 153.016011 131.864606 155.959827 131.302472 158.130012 130.302009 
C 160.300197 129.301545 161.519566 127.944434 161.519566 126.529565 
C 161.519566 125.114696 160.300197 123.757585 158.130012 122.757122 
C 155.959827 121.756658 153.016011 121.194524 149.946906 121.194524 
C 146.8778 121.194524 143.933984 121.756658 141.763799 122.757122 
C 139.593614 123.757585 138.374246 125.114696 138.374246 126.529565 
C 138.374246 127.944434 139.593614 129.301545 141.763799 130.302009 
C 143.933984 131.302472 146.8778 131.864606 149.946906 131.864606 
z
" style="fill:#008000;opacity:0.2;stroke:#008000;stroke-linejoin:miter;stroke-width:2;"/>
   </g>
   <g id="patch_37">
    <path clip-path="url(#pdcea3dbfcf)" d="M 100.184467 96.119833 
C 103.253572 96.119833 106.197388 95.557699 108.367573 94.557235 
C 110.537759 93.556772 111.757127 92.199661 111.757127 90.784792 
C 111.757127 89.369923 110.537759 88.012812 108.367573 87.012348 
C 106.197388 86.011885 103.253572 85.449751 100.184467 85.449751 
C 97.115361 85.449751 94.171545 86.011885 92.00136 87.012348 
C 89.831175 88.012812 88.611807 89.369923 88.611807 90.784792 
C 88.611807 92.199661 89.831175 93.556772 92.00136 94.557235 
C 94.171545 95.557699 97.115361 96.119833 100.184467 96.119833 
z
" style="fill:#008000;opacity:0.2;stroke:#008000;stroke-linejoin:miter;stroke-width:2;"/>
   </g>
   <g id="patch_38">
    <path clip-path="url(#pdcea3dbfcf)" d="M 227.483729 44.903441 
C 230.552835 44.903441 233.496651 44.341308 235.666836 43.340844 
C 237.837021 42.34038 239.056389 40.98327 239.056389 39.568401 
C 239.056389 38.153531 237.837021 36.796421 235.666836 35.795957 
C 233.496651 34.795493 230.552835 34.23336 227.483729 34.23336 
C 224.414624 34.23336 221.470808 34.795493 219.300623 35.795957 
C 217.130437 36.796421 215.911069 38.153531 215.911069 39.568401 
C 215.911069 40.98327 217.130437 42.34038 219.300623 43.340844 
C 221.470808 44.341308 224.414624 44.903441 227.483729 44.903441 
z
" style="fill:#008000;opacity:0.2;stroke:#008000;stroke-linejoin:miter;stroke-width:2;"/>
   </g>
   <g id="patch_39">
    <path clip-path="url(#pdcea3dbfcf)" d="M 424.218953 167.075875 
C 436.495374 167.075875 448.270638 164.827341 456.951379 160.825486 
C 465.63212 156.823631 470.509594 151.395189 470.509594 145.735712 
C 470.509594 140.076235 465.63212 134.647793 456.951379 130.645938 
C 448.270638 126.644083 436.495374 124.395549 424.218953 124.395549 
C 411.942531 124.395549 400.167268 126.644083 391.486527 130.645938 
C 382.805786 134.647793 377.928312 140.076235 377.928312 145.735712 
C 377.928312 151.395189 382.805786 156.823631 391.486527 160.825486 
C 400.167268 164.827341 411.942531 167.075875 424.218953 167.075875 
z
" style="fill:none;opacity:0.2;stroke:#ff0000;stroke-linejoin:miter;stroke-width:2;"/>
   </g>
   <g id="patch_40">
    <path clip-path="url(#pdcea3dbfcf)" d="M 234.427325 71.045141 
C 246.703747 71.045141 258.479011 68.796607 267.159751 64.794752 
C 275.840492 60.792897 280.717966 55.364455 280.717966 49.704978 
C 280.717966 44.045501 275.840492 38.617059 267.159751 34.615204 
C 258.479011 30.613349 246.703747 28.364815 234.427325 28.364815 
C 222.150904 28.364815 210.37564 30.613349 201.694899 34.615204 
C 193.014158 38.617059 188.136684 44.045501 188.136684 49.704978 
C 188.136684 55.364455 193.014158 60.792897 201.694899 64.794752 
C 210.37564 68.796607 222.150904 71.045141 234.427325 71.045141 
z
" style="fill:none;opacity:0.2;stroke:#0000ff;stroke-linejoin:miter;stroke-width:2;"/>
   </g>
   <g id="patch_41">
    <path clip-path="url(#pdcea3dbfcf)" d="M 424.218953 156.405793 
C 430.357164 156.405793 436.244796 155.281526 440.585166 153.280599 
C 444.925536 151.279672 447.364273 148.565451 447.364273 145.735712 
C 447.364273 142.905973 444.925536 140.191752 440.585166 138.190825 
C 436.244796 136.189897 430.357164 135.06563 424.218953 135.06563 
C 418.080742 135.06563 412.19311 136.189897 407.85274 138.190825 
C 403.512369 140.191752 401.073633 142.905973 401.073633 145.735712 
C 401.073633 148.565451 403.512369 151.279672 407.85274 153.280599 
C 412.19311 155.281526 418.080742 156.405793 424.218953 156.405793 
z
" style="fill:none;opacity:0.2;stroke:#008000;stroke-linejoin:miter;stroke-width:2;"/>
   </g>
   <g id="patch_42">
    <path clip-path="url(#pdcea3dbfcf)" d="M 391.815504 145.735712 
C 397.953715 145.735712 403.841347 144.611445 408.181717 142.610517 
C 412.522088 140.60959 414.960825 137.895369 414.960825 135.06563 
C 414.960825 132.235892 412.522088 129.521671 408.181717 127.520743 
C 403.841347 125.519816 397.953715 124.395549 391.815504 124.395549 
C 385.677294 124.395549 379.789662 125.519816 375.449291 127.520743 
C 371.108921 129.521671 368.670184 132.235892 368.670184 135.06563 
C 368.670184 137.895369 371.108921 140.60959 375.449291 142.610517 
C 379.789662 144.611445 385.677294 145.735712 391.815504 145.735712 
z
" style="fill:none;opacity:0.2;stroke:#008000;stroke-linejoin:miter;stroke-width:2;"/>
   </g>
   <g id="patch_43">
    <path d="M 408.017229 140.400671 
Q 261.623077 212.15697 115.228925 283.913268 
" style="fill:none;opacity:0.5;stroke:#008000;stroke-linecap:round;stroke-width:2;"/>
   </g>
   <g id="patch_44">
    <path d="M 422.875691 145.293391 
Q 408.968526 140.713922 395.061361 136.134454 
" style="fill:none;opacity:0.5;stroke:#800080;stroke-linecap:round;stroke-width:2;"/>
    <path d="M 421.920099 143.399495 
L 422.875691 145.293391 
L 420.981795 146.248984 
" style="fill:none;opacity:0.5;stroke:#800080;stroke-linecap:round;stroke-width:2;"/>
    <path d="M 396.016954 138.02835 
L 395.061361 136.134454 
L 396.955258 135.178861 
" style="fill:none;opacity:0.5;stroke:#800080;stroke-linecap:round;stroke-width:2;"/>
   </g>
   <g id="patch_45">
    <path d="M 115.228925 283.913268 
Q 105.392164 269.77541 95.555403 255.637552 
" style="fill:none;opacity:0.5;stroke:#008000;stroke-linecap:round;stroke-width:2;"/>
   </g>
   <g id="patch_46">
    <path d="M 101.013106 303.573909 
Q 114.642169 284.724758 128.271232 265.875607 
" style="fill:none;opacity:0.5;stroke:#800080;stroke-linecap:round;stroke-width:2;"/>
    <path d="M 103.107546 303.237278 
L 101.013106 303.573909 
L 100.676476 301.479469 
" style="fill:none;opacity:0.5;stroke:#800080;stroke-linecap:round;stroke-width:2;"/>
    <path d="M 126.176792 266.212238 
L 128.271232 265.875607 
L 128.607863 267.970047 
" style="fill:none;opacity:0.5;stroke:#800080;stroke-linecap:round;stroke-width:2;"/>
   </g>
   <g id="patch_47">
    <path d="M 95.555403 255.637552 
Q 179.457189 218.292266 263.358976 180.946981 
" style="fill:none;opacity:0.5;stroke:#008000;stroke-linecap:round;stroke-width:2;"/>
   </g>
   <g id="patch_48">
    <path d="M 80.236572 274.805945 
Q 94.931423 256.418336 109.626273 238.030726 
" style="fill:none;opacity:0.5;stroke:#800080;stroke-linecap:round;stroke-width:2;"/>
    <path d="M 82.344799 274.570619 
L 80.236572 274.805945 
L 80.001246 272.697718 
" style="fill:none;opacity:0.5;stroke:#800080;stroke-linecap:round;stroke-width:2;"/>
    <path d="M 107.518046 238.266052 
L 109.626273 238.030726 
L 109.8616 240.138953 
" style="fill:none;opacity:0.5;stroke:#800080;stroke-linecap:round;stroke-width:2;"/>
   </g>
   <g id="patch_49">
    <path d="M 263.358976 180.946981 
Q 206.652941 153.738273 149.946906 126.529565 
" style="fill:none;opacity:0.5;stroke:#008000;stroke-linecap:round;stroke-width:2;"/>
   </g>
   <g id="patch_50">
    <path d="M 254.148392 186.608467 
Q 262.50586 181.471368 270.863327 176.334268 
" style="fill:none;opacity:0.5;stroke:#800080;stroke-linecap:round;stroke-width:2;"/>
    <path d="M 256.211771 187.100876 
L 254.148392 186.608467 
L 254.6408 184.545088 
" style="fill:none;opacity:0.5;stroke:#800080;stroke-linecap:round;stroke-width:2;"/>
    <path d="M 268.799948 175.841859 
L 270.863327 176.334268 
L 270.370919 178.397647 
" style="fill:none;opacity:0.5;stroke:#800080;stroke-linecap:round;stroke-width:2;"/>
   </g>
   <g id="patch_51">
    <path d="M 149.946906 126.529565 
Q 125.065686 108.657179 100.184467 90.784792 
" style="fill:none;opacity:0.5;stroke:#008000;stroke-linecap:round;stroke-width:2;"/>
   </g>
   <g id="patch_52">
    <path d="M 140.916944 128.379719 
Q 148.966648 126.730411 157.016353 125.081102 
" style="fill:none;opacity:0.5;stroke:#800080;stroke-linecap:round;stroke-width:2;"/>
    <path d="M 142.687498 129.548111 
L 140.916944 128.379719 
L 142.085335 126.609166 
" style="fill:none;opacity:0.5;stroke:#800080;stroke-linecap:round;stroke-width:2;"/>
    <path d="M 155.245799 123.91271 
L 157.016353 125.081102 
L 155.847961 126.851656 
" style="fill:none;opacity:0.5;stroke:#800080;stroke-linecap:round;stroke-width:2;"/>
   </g>
   <g id="patch_53">
    <path d="M 100.184467 90.784792 
Q 163.834098 65.176596 227.483729 39.568401 
" style="fill:none;opacity:0.5;stroke:#008000;stroke-linecap:round;stroke-width:2;"/>
   </g>
   <g id="patch_54">
    <path d="M 80.745698 87.299824 
Q 99.199124 90.60814 117.652549 93.916457 
" style="fill:none;opacity:0.5;stroke:#800080;stroke-linecap:round;stroke-width:2;"/>
    <path d="M 81.95746 89.040983 
L 80.745698 87.299824 
L 82.486857 86.088062 
" style="fill:none;opacity:0.5;stroke:#800080;stroke-linecap:round;stroke-width:2;"/>
    <path d="M 116.440788 92.175298 
L 117.652549 93.916457 
L 115.91139 95.128218 
" style="fill:none;opacity:0.5;stroke:#800080;stroke-linecap:round;stroke-width:2;"/>
   </g>
   <g id="patch_55">
    <path d="M 227.483729 39.568401 
Q 317.750479 89.984536 408.017229 140.400671 
" style="fill:none;opacity:0.5;stroke:#008000;stroke-linecap:round;stroke-width:2;"/>
   </g>
   <g id="patch_56">
    <path d="M 221.339347 30.598552 
Q 226.918375 38.743071 232.497404 46.88759 
" style="fill:none;opacity:0.5;stroke:#800080;stroke-linecap:round;stroke-width:2;"/>
    <path d="M 220.949539 32.68375 
L 221.339347 30.598552 
L 223.424545 30.988361 
" style="fill:none;opacity:0.5;stroke:#800080;stroke-linecap:round;stroke-width:2;"/>
    <path d="M 232.887212 44.802393 
L 232.497404 46.88759 
L 230.412206 46.497782 
" style="fill:none;opacity:0.5;stroke:#800080;stroke-linecap:round;stroke-width:2;"/>
   </g>
   <g id="line2d_1">
    <path clip-path="url(#pdcea3dbfcf)" d="M 424.218953 145.735712 
L 100.184467 304.719927 
L 79.353678 275.910707 
L 252.943582 187.34903 
L 139.531512 128.663581 
L 79.353678 87.050263 
L 220.540133 29.431823 
" style="fill:none;stroke:#ff0000;stroke-linecap:square;stroke-width:0.2;"/>
   </g>
   <g id="line2d_2">
    <path clip-path="url(#pdcea3dbfcf)" d="M 234.427325 49.704978 
L 391.815504 135.06563 
L 130.273383 263.106609 
L 111.757127 235.364397 
L 273.77437 174.544932 
L 160.3623 124.395549 
L 121.015255 94.519321 
" style="fill:none;stroke:#0000ff;stroke-linecap:square;stroke-width:0.2;"/>
   </g>
  </g>
 </g>
 <defs>
  <clipPath id="pdcea3dbfcf">
   <rect height="307.51175" width="409.903625" x="37.576375" y="13.32"/>
  </clipPath>
 </defs>
</svg>
