<?xml version="1.0" encoding="utf-8" standalone="no"?>
<!DOCTYPE svg PUBLIC "-//W3C//DTD SVG 1.1//EN"
  "http://www.w3.org/Graphics/SVG/1.1/DTD/svg11.dtd">
<!-- Created with matplotlib (http://matplotlib.org/) -->
<svg height="345.6pt" version="1.1" viewBox="0 0 460.8 345.6" width="460.8pt" xmlns="http://www.w3.org/2000/svg" xmlns:xlink="http://www.w3.org/1999/xlink">
 <defs>
  <style type="text/css">
*{stroke-linecap:butt;stroke-linejoin:round;}
  </style>
 </defs>
 <g id="figure_1">
  <g id="patch_1">
   <path d="M 0 345.6 
L 460.8 345.6 
L 460.8 0 
L 0 0 
z
" style="fill:#ffffff;"/>
  </g>
  <g id="axes_1">
   <g id="patch_2">
    <path clip-path="url(#p107e2672fe)" d="M 242.83313 67.175057 
C 243.480103 67.175057 244.100666 66.999985 244.558145 66.688399 
C 245.015624 66.376814 245.272669 65.954153 245.272669 65.513505 
C 245.272669 65.072856 245.015624 64.650195 244.558145 64.33861 
C 244.100666 64.027024 243.480103 63.851952 242.83313 63.851952 
C 242.186156 63.851952 241.565594 64.027024 241.108115 64.33861 
C 240.650636 64.650195 240.39359 65.072856 240.39359 65.513505 
C 240.39359 65.954153 240.650636 66.376814 241.108115 66.688399 
C 241.565594 66.999985 242.186156 67.175057 242.83313 67.175057 
z
" style="fill:#ff0000;opacity:0.2;stroke:#ff0000;stroke-linejoin:miter;stroke-width:2;"/>
   </g>
   <g id="patch_3">
    <path clip-path="url(#p107e2672fe)" d="M 422.139283 185.145254 
C 422.786257 185.145254 423.406819 184.970182 423.864298 184.658596 
C 424.321778 184.347011 424.578823 183.92435 424.578823 183.483702 
C 424.578823 183.043053 424.321778 182.620393 423.864298 182.308807 
C 423.406819 181.997221 422.786257 181.82215 422.139283 181.82215 
C 421.49231 181.82215 420.871748 181.997221 420.414268 182.308807 
C 419.956789 182.620393 419.699744 183.043053 419.699744 183.483702 
C 419.699744 183.92435 419.956789 184.347011 420.414268 184.658596 
C 420.871748 184.970182 421.49231 185.145254 422.139283 185.145254 
z
" style="fill:#ff0000;opacity:0.2;stroke:#ff0000;stroke-linejoin:miter;stroke-width:2;"/>
   </g>
   <g id="patch_4">
    <path clip-path="url(#p107e2672fe)" d="M 242.83313 303.115451 
C 243.480103 303.115451 244.100666 302.940379 244.558145 302.628794 
C 245.015624 302.317208 245.272669 301.894548 245.272669 301.453899 
C 245.272669 301.01325 245.015624 300.59059 244.558145 300.279004 
C 244.100666 299.967418 243.480103 299.792347 242.83313 299.792347 
C 242.186156 299.792347 241.565594 299.967418 241.108115 300.279004 
C 240.650636 300.59059 240.39359 301.01325 240.39359 301.453899 
C 240.39359 301.894548 240.650636 302.317208 241.108115 302.628794 
C 241.565594 302.940379 242.186156 303.115451 242.83313 303.115451 
z
" style="fill:#ff0000;opacity:0.2;stroke:#ff0000;stroke-linejoin:miter;stroke-width:2;"/>
   </g>
   <g id="patch_5">
    <path clip-path="url(#p107e2672fe)" d="M 63.526976 185.145254 
C 64.17395 185.145254 64.794512 184.970182 65.251991 184.658596 
C 65.709471 184.347011 65.966516 183.92435 65.966516 183.483702 
C 65.966516 183.043053 65.709471 182.620393 65.251991 182.308807 
C 64.794512 181.997221 64.17395 181.82215 63.526976 181.82215 
C 62.880003 181.82215 62.259441 181.997221 61.801962 182.308807 
C 61.344482 182.620393 61.087437 183.043053 61.087437 183.483702 
C 61.087437 183.92435 61.344482 184.347011 61.801962 184.658596 
C 62.259441 184.970182 62.880003 185.145254 63.526976 185.145254 
z
" style="fill:#ff0000;opacity:0.2;stroke:#ff0000;stroke-linejoin:miter;stroke-width:2;"/>
   </g>
   <g id="patch_6">
    <path clip-path="url(#p107e2672fe)" d="M 242.83313 45.57488 
C 243.480103 45.57488 244.100666 45.399808 244.558145 45.088222 
C 245.015624 44.776637 245.272669 44.353976 245.272669 43.913328 
C 245.272669 43.472679 245.015624 43.050019 244.558145 42.738433 
C 244.100666 42.426847 243.480103 42.251775 242.83313 42.251775 
C 242.186156 42.251775 241.565594 42.426847 241.108115 42.738433 
C 240.650636 43.050019 240.39359 43.472679 240.39359 43.913328 
C 240.39359 44.353976 240.650636 44.776637 241.108115 45.088222 
C 241.565594 45.399808 242.186156 45.57488 242.83313 45.57488 
z
" style="fill:#0000ff;opacity:0.2;stroke:#0000ff;stroke-linejoin:miter;stroke-width:2;"/>
   </g>
   <g id="patch_7">
    <path clip-path="url(#p107e2672fe)" d="M 390.42527 141.9449 
C 391.072243 141.9449 391.692805 141.769828 392.150285 141.458243 
C 392.607764 141.146657 392.864809 140.723997 392.864809 140.283348 
C 392.864809 139.842699 392.607764 139.420039 392.150285 139.108453 
C 391.692805 138.796867 391.072243 138.621796 390.42527 138.621796 
C 389.778296 138.621796 389.157734 138.796867 388.700255 139.108453 
C 388.242776 139.420039 387.98573 139.842699 387.98573 140.283348 
C 387.98573 140.723997 388.242776 141.146657 388.700255 141.458243 
C 389.157734 141.769828 389.778296 141.9449 390.42527 141.9449 
z
" style="fill:#0000ff;opacity:0.2;stroke:#0000ff;stroke-linejoin:miter;stroke-width:2;"/>
   </g>
   <g id="patch_8">
    <path clip-path="url(#p107e2672fe)" d="M 242.83313 238.31492 
C 243.480103 238.31492 244.100666 238.139849 244.558145 237.828263 
C 245.015624 237.516677 245.272669 237.094017 245.272669 236.653368 
C 245.272669 236.212719 245.015624 235.790059 244.558145 235.478473 
C 244.100666 235.166888 243.480103 234.991816 242.83313 234.991816 
C 242.186156 234.991816 241.565594 235.166888 241.108115 235.478473 
C 240.650636 235.790059 240.39359 236.212719 240.39359 236.653368 
C 240.39359 237.094017 240.650636 237.516677 241.108115 237.828263 
C 241.565594 238.139849 242.186156 238.31492 242.83313 238.31492 
z
" style="fill:#0000ff;opacity:0.2;stroke:#0000ff;stroke-linejoin:miter;stroke-width:2;"/>
   </g>
   <g id="patch_9">
    <path clip-path="url(#p107e2672fe)" d="M 95.24099 141.9449 
C 95.887963 141.9449 96.508526 141.769828 96.966005 141.458243 
C 97.423484 141.146657 97.68053 140.723997 97.68053 140.283348 
C 97.68053 139.842699 97.423484 139.420039 96.966005 139.108453 
C 96.508526 138.796867 95.887963 138.621796 95.24099 138.621796 
C 94.594017 138.621796 93.973454 138.796867 93.515975 139.108453 
C 93.058496 139.420039 92.801451 139.842699 92.801451 140.283348 
C 92.801451 140.723997 93.058496 141.146657 93.515975 141.458243 
C 93.973454 141.769828 94.594017 141.9449 95.24099 141.9449 
z
" style="fill:#0000ff;opacity:0.2;stroke:#0000ff;stroke-linejoin:miter;stroke-width:2;"/>
   </g>
   <g id="patch_10">
    <path clip-path="url(#p107e2672fe)" d="M 242.83313 65.513505 
C 340.41471 65.513505 422.139283 112.036963 422.139283 183.483702 
C 422.139283 258.253545 340.41471 301.453899 242.83313 301.453899 
C 145.25155 301.453899 63.526976 258.253545 63.526976 183.483702 
C 63.526976 112.036963 145.25155 65.513505 242.83313 65.513505 
" style="fill:none;stroke:#ff0000;stroke-linejoin:miter;stroke-width:0.5;"/>
   </g>
   <g id="patch_11">
    <path clip-path="url(#p107e2672fe)" d="M 242.83313 43.913328 
C 323.337934 43.913328 390.42527 82.129025 390.42527 140.283348 
C 390.42527 201.760775 323.337934 236.653368 242.83313 236.653368 
C 162.328326 236.653368 95.24099 201.760775 95.24099 140.283348 
C 95.24099 82.129025 162.328326 43.913328 242.83313 43.913328 
" style="fill:none;stroke:#0000ff;stroke-linejoin:miter;stroke-width:0.5;"/>
   </g>
   <g id="[&quot;g_s&quot;:1,&quot;g_t&quot;:1,&quot;coords&quot;:[[237.0, -60.0],[237.0, -34.0]],&quot;certainty&quot;:11]">
    <path clip-path="url(#p107e2672fe)" d="M 242.83313 70.498161 
C 244.77405 70.498161 246.635737 69.972946 248.008175 69.038189 
C 249.380613 68.103432 250.151748 66.835451 250.151748 65.513505 
C 250.151748 64.191558 249.380613 62.923577 248.008175 61.98882 
C 246.635737 61.054063 244.77405 60.528848 242.83313 60.528848 
C 240.89221 60.528848 239.030523 61.054063 237.658085 61.98882 
C 236.285647 62.923577 235.514511 64.191558 235.514511 65.513505 
C 235.514511 66.835451 236.285647 68.103432 237.658085 69.038189 
C 239.030523 69.972946 240.89221 70.498161 242.83313 70.498161 
z
" style="fill:#0000ff;opacity:0.2;stroke:#0000ff;stroke-linejoin:miter;stroke-width:2;"/>
   </g>
   <g id="[&quot;g_s&quot;:1,&quot;g_t&quot;:1,&quot;coords&quot;:[[237.0, -34.0],[237.0, -60.0]],&quot;certainty&quot;:11]">
    <path clip-path="url(#p107e2672fe)" d="M 242.83313 48.897984 
C 244.77405 48.897984 246.635737 48.372769 248.008175 47.438012 
C 249.380613 46.503255 250.151748 45.235274 250.151748 43.913328 
C 250.151748 42.591381 249.380613 41.323401 248.008175 40.388643 
C 246.635737 39.453886 244.77405 38.928671 242.83313 38.928671 
C 240.89221 38.928671 239.030523 39.453886 237.658085 40.388643 
C 236.285647 41.323401 235.514511 42.591381 235.514511 43.913328 
C 235.514511 45.235274 236.285647 46.503255 237.658085 47.438012 
C 239.030523 48.372769 240.89221 48.897984 242.83313 48.897984 
z
" style="fill:#ff0000;opacity:0.2;stroke:#ff0000;stroke-linejoin:miter;stroke-width:2;"/>
   </g>
   <g id="patch_12">
    <path d="M 242.83313 65.513505 
Q 242.83313 55.714059 242.83313 48.035934 
" style="fill:none;opacity:0.5;stroke:#0000ff;stroke-linecap:round;stroke-width:3;"/>
    <path d="M 241.33313 49.535934 
L 242.83313 48.035934 
L 244.33313 49.535934 
" style="fill:none;opacity:0.5;stroke:#0000ff;stroke-linecap:round;stroke-width:3;"/>
   </g>
   <g id="[&quot;g_s&quot;:2,&quot;g_t&quot;:2,&quot;coords&quot;:[[384.0, -202.0],[358.0, -150.0]],&quot;certainty&quot;:10]">
    <path clip-path="url(#p107e2672fe)" d="M 422.139283 188.05297 
C 423.91846 188.05297 425.625006 187.571523 426.883074 186.714662 
C 428.141143 185.857802 428.848017 184.695486 428.848017 183.483702 
C 428.848017 182.271918 428.141143 181.109602 426.883074 180.252741 
C 425.625006 179.39588 423.91846 178.914434 422.139283 178.914434 
C 420.360106 178.914434 418.65356 179.39588 417.395492 180.252741 
C 416.137424 181.109602 415.43055 182.271918 415.43055 183.483702 
C 415.43055 184.695486 416.137424 185.857802 417.395492 186.714662 
C 418.65356 187.571523 420.360106 188.05297 422.139283 188.05297 
z
" style="fill:#0000ff;opacity:0.2;stroke:#0000ff;stroke-linejoin:miter;stroke-width:2;"/>
   </g>
   <g id="[&quot;g_s&quot;:2,&quot;g_t&quot;:2,&quot;coords&quot;:[[358.0, -150.0],[384.0, -202.0]],&quot;certainty&quot;:10]">
    <path clip-path="url(#p107e2672fe)" d="M 390.42527 144.852616 
C 392.204447 144.852616 393.910993 144.371169 395.169061 143.514308 
C 396.427129 142.657448 397.134004 141.495132 397.134004 140.283348 
C 397.134004 139.071564 396.427129 137.909248 395.169061 137.052387 
C 393.910993 136.195527 392.204447 135.71408 390.42527 135.71408 
C 388.646093 135.71408 386.939547 136.195527 385.681479 137.052387 
C 384.423411 137.909248 383.716536 139.071564 383.716536 140.283348 
C 383.716536 141.495132 384.423411 142.657448 385.681479 143.514308 
C 386.939547 144.371169 388.646093 144.852616 390.42527 144.852616 
z
" style="fill:#ff0000;opacity:0.2;stroke:#ff0000;stroke-linejoin:miter;stroke-width:2;"/>
   </g>
   <g id="patch_13">
    <path d="M 422.139283 183.483702 
Q 406.873624 162.689049 392.758693 143.461902 
" style="fill:none;opacity:0.5;stroke:#0000ff;stroke-linecap:round;stroke-width:2.75;"/>
    <path d="M 392.437196 145.558718 
L 392.758693 143.461902 
L 394.855509 143.783399 
" style="fill:none;opacity:0.5;stroke:#0000ff;stroke-linecap:round;stroke-width:2.75;"/>
   </g>
   <g id="[&quot;g_s&quot;:3,&quot;g_t&quot;:3,&quot;coords&quot;:[[237.0, -344.0],[237.0, -266.0]],&quot;certainty&quot;:12]">
    <path clip-path="url(#p107e2672fe)" d="M 242.83313 306.853943 
C 244.935794 306.853943 246.952621 306.28496 248.439428 305.272307 
C 249.926236 304.259653 250.761633 302.886007 250.761633 301.453899 
C 250.761633 300.02179 249.926236 298.648145 248.439428 297.635491 
C 246.952621 296.622837 244.935794 296.053855 242.83313 296.053855 
C 240.730466 296.053855 238.713639 296.622837 237.226831 297.635491 
C 235.740024 298.648145 234.904627 300.02179 234.904627 301.453899 
C 234.904627 302.886007 235.740024 304.259653 237.226831 305.272307 
C 238.713639 306.28496 240.730466 306.853943 242.83313 306.853943 
z
" style="fill:#0000ff;opacity:0.2;stroke:#0000ff;stroke-linejoin:miter;stroke-width:2;"/>
   </g>
   <g id="[&quot;g_s&quot;:3,&quot;g_t&quot;:3,&quot;coords&quot;:[[237.0, -266.0],[237.0, -344.0]],&quot;certainty&quot;:12]">
    <path clip-path="url(#p107e2672fe)" d="M 242.83313 242.053412 
C 244.935794 242.053412 246.952621 241.48443 248.439428 240.471776 
C 249.926236 239.459122 250.761633 238.085477 250.761633 236.653368 
C 250.761633 235.22126 249.926236 233.847614 248.439428 232.83496 
C 246.952621 231.822307 244.935794 231.253324 242.83313 231.253324 
C 240.730466 231.253324 238.713639 231.822307 237.226831 232.83496 
C 235.740024 233.847614 234.904627 235.22126 234.904627 236.653368 
C 234.904627 238.085477 235.740024 239.459122 237.226831 240.471776 
C 238.713639 241.48443 240.730466 242.053412 242.83313 242.053412 
z
" style="fill:#ff0000;opacity:0.2;stroke:#ff0000;stroke-linejoin:miter;stroke-width:2;"/>
   </g>
   <g id="patch_14">
    <path d="M 242.83313 301.453899 
Q 242.83313 270.052299 242.83313 240.948796 
" style="fill:none;opacity:0.5;stroke:#0000ff;stroke-linecap:round;stroke-width:3.25;"/>
    <path d="M 241.33313 242.448796 
L 242.83313 240.948796 
L 244.33313 242.448796 
" style="fill:none;opacity:0.5;stroke:#0000ff;stroke-linecap:round;stroke-width:3.25;"/>
   </g>
   <g id="[&quot;g_s&quot;:4,&quot;g_t&quot;:4,&quot;coords&quot;:[[90.0, -202.0],[116.0, -150.0]],&quot;certainty&quot;:11]">
    <path clip-path="url(#p107e2672fe)" d="M 63.526976 188.468358 
C 65.467897 188.468358 67.329583 187.943143 68.702021 187.008386 
C 70.074459 186.073629 70.845595 184.805648 70.845595 183.483702 
C 70.845595 182.161755 70.074459 180.893775 68.702021 179.959018 
C 67.329583 179.02426 65.467897 178.499046 63.526976 178.499046 
C 61.586056 178.499046 59.72437 179.02426 58.351932 179.959018 
C 56.979494 180.893775 56.208358 182.161755 56.208358 183.483702 
C 56.208358 184.805648 56.979494 186.073629 58.351932 187.008386 
C 59.72437 187.943143 61.586056 188.468358 63.526976 188.468358 
z
" style="fill:#0000ff;opacity:0.2;stroke:#0000ff;stroke-linejoin:miter;stroke-width:2;"/>
   </g>
   <g id="[&quot;g_s&quot;:4,&quot;g_t&quot;:4,&quot;coords&quot;:[[116.0, -150.0],[90.0, -202.0]],&quot;certainty&quot;:11]">
    <path clip-path="url(#p107e2672fe)" d="M 95.24099 145.268004 
C 97.18191 145.268004 99.043597 144.742789 100.416035 143.808032 
C 101.788473 142.873275 102.559609 141.605294 102.559609 140.283348 
C 102.559609 138.961402 101.788473 137.693421 100.416035 136.758664 
C 99.043597 135.823906 97.18191 135.298692 95.24099 135.298692 
C 93.30007 135.298692 91.438383 135.823906 90.065945 136.758664 
C 88.693507 137.693421 87.922371 138.961402 87.922371 140.283348 
C 87.922371 141.605294 88.693507 142.873275 90.065945 143.808032 
C 91.438383 144.742789 93.30007 145.268004 95.24099 145.268004 
z
" style="fill:#ff0000;opacity:0.2;stroke:#ff0000;stroke-linejoin:miter;stroke-width:2;"/>
   </g>
   <g id="patch_15">
    <path d="M 63.526976 183.483702 
Q 78.792636 162.689049 92.802955 143.604402 
" style="fill:none;opacity:0.5;stroke:#0000ff;stroke-linecap:round;stroke-width:3;"/>
    <path d="M 90.706139 143.925899 
L 92.802955 143.604402 
L 93.124452 145.701219 
" style="fill:none;opacity:0.5;stroke:#0000ff;stroke-linecap:round;stroke-width:3;"/>
   </g>
   <g id="[&quot;g_s&quot;:1,&quot;g_t&quot;:1,&quot;coords&quot;:[[237.0, -34.0],[237.0, -60.0]],&quot;certainty&quot;:11]">
    <path clip-path="url(#p107e2672fe)" d="M 242.83313 48.897984 
C 244.77405 48.897984 246.635737 48.372769 248.008175 47.438012 
C 249.380613 46.503255 250.151748 45.235274 250.151748 43.913328 
C 250.151748 42.591381 249.380613 41.323401 248.008175 40.388643 
C 246.635737 39.453886 244.77405 38.928671 242.83313 38.928671 
C 240.89221 38.928671 239.030523 39.453886 237.658085 40.388643 
C 236.285647 41.323401 235.514511 42.591381 235.514511 43.913328 
C 235.514511 45.235274 236.285647 46.503255 237.658085 47.438012 
C 239.030523 48.372769 240.89221 48.897984 242.83313 48.897984 
z
" style="fill:#0000ff;opacity:0.2;stroke:#0000ff;stroke-linejoin:miter;stroke-width:2;"/>
   </g>
   <g id="[&quot;g_s&quot;:1,&quot;g_t&quot;:1,&quot;coords&quot;:[[237.0, -60.0],[237.0, -34.0]],&quot;certainty&quot;:11]">
    <path clip-path="url(#p107e2672fe)" d="M 242.83313 70.498161 
C 244.77405 70.498161 246.635737 69.972946 248.008175 69.038189 
C 249.380613 68.103432 250.151748 66.835451 250.151748 65.513505 
C 250.151748 64.191558 249.380613 62.923577 248.008175 61.98882 
C 246.635737 61.054063 244.77405 60.528848 242.83313 60.528848 
C 240.89221 60.528848 239.030523 61.054063 237.658085 61.98882 
C 236.285647 62.923577 235.514511 64.191558 235.514511 65.513505 
C 235.514511 66.835451 236.285647 68.103432 237.658085 69.038189 
C 239.030523 69.972946 240.89221 70.498161 242.83313 70.498161 
z
" style="fill:#ff0000;opacity:0.2;stroke:#ff0000;stroke-linejoin:miter;stroke-width:2;"/>
   </g>
   <g id="patch_16">
    <path d="M 242.83313 43.913328 
Q 242.83313 53.712773 242.83313 61.390898 
" style="fill:none;opacity:0.5;stroke:#ff0000;stroke-linecap:round;stroke-width:3;"/>
    <path d="M 244.33313 59.890898 
L 242.83313 61.390898 
L 241.33313 59.890898 
" style="fill:none;opacity:0.5;stroke:#ff0000;stroke-linecap:round;stroke-width:3;"/>
   </g>
   <g id="[&quot;g_s&quot;:2,&quot;g_t&quot;:2,&quot;coords&quot;:[[358.0, -150.0],[384.0, -202.0]],&quot;certainty&quot;:10]">
    <path clip-path="url(#p107e2672fe)" d="M 390.42527 144.852616 
C 392.204447 144.852616 393.910993 144.371169 395.169061 143.514308 
C 396.427129 142.657448 397.134004 141.495132 397.134004 140.283348 
C 397.134004 139.071564 396.427129 137.909248 395.169061 137.052387 
C 393.910993 136.195527 392.204447 135.71408 390.42527 135.71408 
C 388.646093 135.71408 386.939547 136.195527 385.681479 137.052387 
C 384.423411 137.909248 383.716536 139.071564 383.716536 140.283348 
C 383.716536 141.495132 384.423411 142.657448 385.681479 143.514308 
C 386.939547 144.371169 388.646093 144.852616 390.42527 144.852616 
z
" style="fill:#0000ff;opacity:0.2;stroke:#0000ff;stroke-linejoin:miter;stroke-width:2;"/>
   </g>
   <g id="[&quot;g_s&quot;:2,&quot;g_t&quot;:2,&quot;coords&quot;:[[384.0, -202.0],[358.0, -150.0]],&quot;certainty&quot;:10]">
    <path clip-path="url(#p107e2672fe)" d="M 422.139283 188.05297 
C 423.91846 188.05297 425.625006 187.571523 426.883074 186.714662 
C 428.141143 185.857802 428.848017 184.695486 428.848017 183.483702 
C 428.848017 182.271918 428.141143 181.109602 426.883074 180.252741 
C 425.625006 179.39588 423.91846 178.914434 422.139283 178.914434 
C 420.360106 178.914434 418.65356 179.39588 417.395492 180.252741 
C 416.137424 181.109602 415.43055 182.271918 415.43055 183.483702 
C 415.43055 184.695486 416.137424 185.857802 417.395492 186.714662 
C 418.65356 187.571523 420.360106 188.05297 422.139283 188.05297 
z
" style="fill:#ff0000;opacity:0.2;stroke:#ff0000;stroke-linejoin:miter;stroke-width:2;"/>
   </g>
   <g id="patch_17">
    <path d="M 390.42527 140.283348 
Q 405.69093 161.078001 419.80586 180.305148 
" style="fill:none;opacity:0.5;stroke:#ff0000;stroke-linecap:round;stroke-width:2.75;"/>
    <path d="M 420.127357 178.208331 
L 419.80586 180.305148 
L 417.709044 179.983651 
" style="fill:none;opacity:0.5;stroke:#ff0000;stroke-linecap:round;stroke-width:2.75;"/>
   </g>
   <g id="[&quot;g_s&quot;:3,&quot;g_t&quot;:3,&quot;coords&quot;:[[237.0, -266.0],[237.0, -344.0]],&quot;certainty&quot;:12]">
    <path clip-path="url(#p107e2672fe)" d="M 242.83313 242.053412 
C 244.935794 242.053412 246.952621 241.48443 248.439428 240.471776 
C 249.926236 239.459122 250.761633 238.085477 250.761633 236.653368 
C 250.761633 235.22126 249.926236 233.847614 248.439428 232.83496 
C 246.952621 231.822307 244.935794 231.253324 242.83313 231.253324 
C 240.730466 231.253324 238.713639 231.822307 237.226831 232.83496 
C 235.740024 233.847614 234.904627 235.22126 234.904627 236.653368 
C 234.904627 238.085477 235.740024 239.459122 237.226831 240.471776 
C 238.713639 241.48443 240.730466 242.053412 242.83313 242.053412 
z
" style="fill:#0000ff;opacity:0.2;stroke:#0000ff;stroke-linejoin:miter;stroke-width:2;"/>
   </g>
   <g id="[&quot;g_s&quot;:3,&quot;g_t&quot;:3,&quot;coords&quot;:[[237.0, -344.0],[237.0, -266.0]],&quot;certainty&quot;:12]">
    <path clip-path="url(#p107e2672fe)" d="M 242.83313 306.853943 
C 244.935794 306.853943 246.952621 306.28496 248.439428 305.272307 
C 249.926236 304.259653 250.761633 302.886007 250.761633 301.453899 
C 250.761633 300.02179 249.926236 298.648145 248.439428 297.635491 
C 246.952621 296.622837 244.935794 296.053855 242.83313 296.053855 
C 240.730466 296.053855 238.713639 296.622837 237.226831 297.635491 
C 235.740024 298.648145 234.904627 300.02179 234.904627 301.453899 
C 234.904627 302.886007 235.740024 304.259653 237.226831 305.272307 
C 238.713639 306.28496 240.730466 306.853943 242.83313 306.853943 
z
" style="fill:#ff0000;opacity:0.2;stroke:#ff0000;stroke-linejoin:miter;stroke-width:2;"/>
   </g>
   <g id="patch_18">
    <path d="M 242.83313 236.653368 
Q 242.83313 268.054968 242.83313 297.158471 
" style="fill:none;opacity:0.5;stroke:#ff0000;stroke-linecap:round;stroke-width:3.25;"/>
    <path d="M 244.33313 295.658471 
L 242.83313 297.158471 
L 241.33313 295.658471 
" style="fill:none;opacity:0.5;stroke:#ff0000;stroke-linecap:round;stroke-width:3.25;"/>
   </g>
   <g id="[&quot;g_s&quot;:4,&quot;g_t&quot;:4,&quot;coords&quot;:[[116.0, -150.0],[90.0, -202.0]],&quot;certainty&quot;:11]">
    <path clip-path="url(#p107e2672fe)" d="M 95.24099 145.268004 
C 97.18191 145.268004 99.043597 144.742789 100.416035 143.808032 
C 101.788473 142.873275 102.559609 141.605294 102.559609 140.283348 
C 102.559609 138.961402 101.788473 137.693421 100.416035 136.758664 
C 99.043597 135.823906 97.18191 135.298692 95.24099 135.298692 
C 93.30007 135.298692 91.438383 135.823906 90.065945 136.758664 
C 88.693507 137.693421 87.922371 138.961402 87.922371 140.283348 
C 87.922371 141.605294 88.693507 142.873275 90.065945 143.808032 
C 91.438383 144.742789 93.30007 145.268004 95.24099 145.268004 
z
" style="fill:#0000ff;opacity:0.2;stroke:#0000ff;stroke-linejoin:miter;stroke-width:2;"/>
   </g>
   <g id="[&quot;g_s&quot;:4,&quot;g_t&quot;:4,&quot;coords&quot;:[[90.0, -202.0],[116.0, -150.0]],&quot;certainty&quot;:11]">
    <path clip-path="url(#p107e2672fe)" d="M 63.526976 188.468358 
C 65.467897 188.468358 67.329583 187.943143 68.702021 187.008386 
C 70.074459 186.073629 70.845595 184.805648 70.845595 183.483702 
C 70.845595 182.161755 70.074459 180.893775 68.702021 179.959018 
C 67.329583 179.02426 65.467897 178.499046 63.526976 178.499046 
C 61.586056 178.499046 59.72437 179.02426 58.351932 179.959018 
C 56.979494 180.893775 56.208358 182.161755 56.208358 183.483702 
C 56.208358 184.805648 56.979494 186.073629 58.351932 187.008386 
C 59.72437 187.943143 61.586056 188.468358 63.526976 188.468358 
z
" style="fill:#ff0000;opacity:0.2;stroke:#ff0000;stroke-linejoin:miter;stroke-width:2;"/>
   </g>
   <g id="patch_19">
    <path d="M 95.24099 140.283348 
Q 79.97533 161.078001 65.965011 180.162647 
" style="fill:none;opacity:0.5;stroke:#ff0000;stroke-linecap:round;stroke-width:3;"/>
    <path d="M 68.061828 179.84115 
L 65.965011 180.162647 
L 65.643514 178.065831 
" style="fill:none;opacity:0.5;stroke:#ff0000;stroke-linecap:round;stroke-width:3;"/>
   </g>
   <g id="patch_20">
    <path clip-path="url(#p107e2672fe)" d="M 242.83313 58.867296 
C 244.450564 58.867296 246.001969 58.429617 247.145667 57.650653 
C 248.289366 56.871689 248.931979 55.815038 248.931979 54.713416 
C 248.931979 53.611794 248.289366 52.555144 247.145667 51.776179 
C 246.001969 50.997215 244.450564 50.559536 242.83313 50.559536 
C 241.215696 50.559536 239.664291 50.997215 238.520593 51.776179 
C 237.376894 52.555144 236.734281 53.611794 236.734281 54.713416 
C 236.734281 55.815038 237.376894 56.871689 238.520593 57.650653 
C 239.664291 58.429617 241.215696 58.867296 242.83313 58.867296 
z
" style="fill:#008000;opacity:0.2;stroke:#008000;stroke-linejoin:miter;stroke-width:2;"/>
   </g>
   <g id="patch_21">
    <path clip-path="url(#p107e2672fe)" d="M 406.282277 166.037405 
C 407.89971 166.037405 409.451116 165.599726 410.594814 164.820762 
C 411.738512 164.041797 412.381125 162.985147 412.381125 161.883525 
C 412.381125 160.781903 411.738512 159.725252 410.594814 158.946288 
C 409.451116 158.167324 407.89971 157.729645 406.282277 157.729645 
C 404.664843 157.729645 403.113438 158.167324 401.969739 158.946288 
C 400.826041 159.725252 400.183428 160.781903 400.183428 161.883525 
C 400.183428 162.985147 400.826041 164.041797 401.969739 164.820762 
C 403.113438 165.599726 404.664843 166.037405 406.282277 166.037405 
z
" style="fill:#008000;opacity:0.2;stroke:#008000;stroke-linejoin:miter;stroke-width:2;"/>
   </g>
   <g id="patch_22">
    <path clip-path="url(#p107e2672fe)" d="M 242.83313 273.207514 
C 244.450564 273.207514 246.001969 272.769835 247.145667 271.99087 
C 248.289366 271.211906 248.931979 270.155255 248.931979 269.053634 
C 248.931979 267.952012 248.289366 266.895361 247.145667 266.116397 
C 246.001969 265.337432 244.450564 264.899753 242.83313 264.899753 
C 241.215696 264.899753 239.664291 265.337432 238.520593 266.116397 
C 237.376894 266.895361 236.734281 267.952012 236.734281 269.053634 
C 236.734281 270.155255 237.376894 271.211906 238.520593 271.99087 
C 239.664291 272.769835 241.215696 273.207514 242.83313 273.207514 
z
" style="fill:#008000;opacity:0.2;stroke:#008000;stroke-linejoin:miter;stroke-width:2;"/>
   </g>
   <g id="patch_23">
    <path clip-path="url(#p107e2672fe)" d="M 79.383983 166.037405 
C 81.001417 166.037405 82.552822 165.599726 83.696521 164.820762 
C 84.840219 164.041797 85.482832 162.985147 85.482832 161.883525 
C 85.482832 160.781903 84.840219 159.725252 83.696521 158.946288 
C 82.552822 158.167324 81.001417 157.729645 79.383983 157.729645 
C 77.76655 157.729645 76.215144 158.167324 75.071446 158.946288 
C 73.927748 159.725252 73.285134 160.781903 73.285134 161.883525 
C 73.285134 162.985147 73.927748 164.041797 75.071446 164.820762 
C 76.215144 165.599726 77.76655 166.037405 79.383983 166.037405 
z
" style="fill:#008000;opacity:0.2;stroke:#008000;stroke-linejoin:miter;stroke-width:2;"/>
   </g>
   <g id="patch_24">
    <path clip-path="url(#p107e2672fe)" d="M 242.83313 82.129025 
C 249.302864 82.129025 255.508486 80.378309 260.083279 77.262452 
C 264.658072 74.146595 267.228525 69.919992 267.228525 65.513505 
C 267.228525 61.107017 264.658072 56.880414 260.083279 53.764557 
C 255.508486 50.6487 249.302864 48.897984 242.83313 48.897984 
C 236.363396 48.897984 230.157774 50.6487 225.582981 53.764557 
C 221.008188 56.880414 218.437735 61.107017 218.437735 65.513505 
C 218.437735 69.919992 221.008188 74.146595 225.582981 77.262452 
C 230.157774 80.378309 236.363396 82.129025 242.83313 82.129025 
z
" style="fill:none;opacity:0.2;stroke:#ff0000;stroke-linejoin:miter;stroke-width:2;"/>
   </g>
   <g id="patch_25">
    <path clip-path="url(#p107e2672fe)" d="M 242.83313 60.528848 
C 249.302864 60.528848 255.508486 58.778132 260.083279 55.662275 
C 264.658072 52.546418 267.228525 48.319815 267.228525 43.913328 
C 267.228525 39.50684 264.658072 35.280237 260.083279 32.16438 
C 255.508486 29.048523 249.302864 27.297807 242.83313 27.297807 
C 236.363396 27.297807 230.157774 29.048523 225.582981 32.16438 
C 221.008188 35.280237 218.437735 39.50684 218.437735 43.913328 
C 218.437735 48.319815 221.008188 52.546418 225.582981 55.662275 
C 230.157774 58.778132 236.363396 60.528848 242.83313 60.528848 
z
" style="fill:none;opacity:0.2;stroke:#0000ff;stroke-linejoin:miter;stroke-width:2;"/>
   </g>
   <g id="patch_26">
    <path clip-path="url(#p107e2672fe)" d="M 242.83313 73.821265 
C 246.067997 73.821265 249.170808 72.945907 251.458205 71.387978 
C 253.745601 69.83005 255.030827 67.716748 255.030827 65.513505 
C 255.030827 63.310261 253.745601 61.196959 251.458205 59.639031 
C 249.170808 58.081102 246.067997 57.205744 242.83313 57.205744 
C 239.598263 57.205744 236.495452 58.081102 234.208055 59.639031 
C 231.920659 61.196959 230.635432 63.310261 230.635432 65.513505 
C 230.635432 67.716748 231.920659 69.83005 234.208055 71.387978 
C 236.495452 72.945907 239.598263 73.821265 242.83313 73.821265 
z
" style="fill:none;opacity:0.2;stroke:#008000;stroke-linejoin:miter;stroke-width:2;"/>
   </g>
   <g id="patch_27">
    <path clip-path="url(#p107e2672fe)" d="M 242.83313 52.221088 
C 246.067997 52.221088 249.170808 51.34573 251.458205 49.787801 
C 253.745601 48.229873 255.030827 46.116571 255.030827 43.913328 
C 255.030827 41.710084 253.745601 39.596782 251.458205 38.038854 
C 249.170808 36.480925 246.067997 35.605567 242.83313 35.605567 
C 239.598263 35.605567 236.495452 36.480925 234.208055 38.038854 
C 231.920659 39.596782 230.635432 41.710084 230.635432 43.913328 
C 230.635432 46.116571 231.920659 48.229873 234.208055 49.787801 
C 236.495452 51.34573 239.598263 52.221088 242.83313 52.221088 
z
" style="fill:none;opacity:0.2;stroke:#008000;stroke-linejoin:miter;stroke-width:2;"/>
   </g>
   <g id="patch_28">
    <path d="M 242.83313 54.713416 
Q 324.557703 108.29847 406.282277 161.883525 
" style="fill:none;opacity:0.5;stroke:#008000;stroke-linecap:round;stroke-width:2;"/>
   </g>
   <g id="patch_29">
    <path d="M 242.83313 64.099291 
Q 242.83313 55.714059 242.83313 47.328827 
" style="fill:none;opacity:0.5;stroke:#800080;stroke-linecap:round;stroke-width:2;"/>
    <path d="M 244.33313 62.599291 
L 242.83313 64.099291 
L 241.33313 62.599291 
" style="fill:none;opacity:0.5;stroke:#800080;stroke-linecap:round;stroke-width:2;"/>
    <path d="M 241.33313 48.828827 
L 242.83313 47.328827 
L 244.33313 48.828827 
" style="fill:none;opacity:0.5;stroke:#800080;stroke-linecap:round;stroke-width:2;"/>
   </g>
   <g id="patch_30">
    <path d="M 406.282277 161.883525 
Q 324.557703 215.468579 242.83313 269.053634 
" style="fill:none;opacity:0.5;stroke:#008000;stroke-linecap:round;stroke-width:2;"/>
   </g>
   <g id="patch_31">
    <path d="M 421.30239 182.343698 
Q 406.873624 162.689049 392.444858 143.0344 
" style="fill:none;opacity:0.5;stroke:#800080;stroke-linecap:round;stroke-width:2;"/>
    <path d="M 421.623887 180.246881 
L 421.30239 182.343698 
L 419.205573 182.022201 
" style="fill:none;opacity:0.5;stroke:#800080;stroke-linecap:round;stroke-width:2;"/>
    <path d="M 392.123361 145.131217 
L 392.444858 143.0344 
L 394.541674 143.355897 
" style="fill:none;opacity:0.5;stroke:#800080;stroke-linecap:round;stroke-width:2;"/>
   </g>
   <g id="patch_32">
    <path d="M 242.83313 269.053634 
Q 161.108557 215.468579 79.383983 161.883525 
" style="fill:none;opacity:0.5;stroke:#008000;stroke-linecap:round;stroke-width:2;"/>
   </g>
   <g id="patch_33">
    <path d="M 242.83313 300.039685 
Q 242.83313 270.052299 242.83313 240.064912 
" style="fill:none;opacity:0.5;stroke:#800080;stroke-linecap:round;stroke-width:2;"/>
    <path d="M 244.33313 298.539685 
L 242.83313 300.039685 
L 241.33313 298.539685 
" style="fill:none;opacity:0.5;stroke:#800080;stroke-linecap:round;stroke-width:2;"/>
    <path d="M 241.33313 241.564912 
L 242.83313 240.064912 
L 244.33313 241.564912 
" style="fill:none;opacity:0.5;stroke:#800080;stroke-linecap:round;stroke-width:2;"/>
   </g>
   <g id="patch_34">
    <path d="M 79.383983 161.883525 
Q 161.108557 108.29847 242.83313 54.713416 
" style="fill:none;opacity:0.5;stroke:#008000;stroke-linecap:round;stroke-width:2;"/>
   </g>
   <g id="patch_35">
    <path d="M 64.36387 182.343698 
Q 78.792636 162.689049 93.221402 143.0344 
" style="fill:none;opacity:0.5;stroke:#800080;stroke-linecap:round;stroke-width:2;"/>
    <path d="M 66.460687 182.022201 
L 64.36387 182.343698 
L 64.042373 180.246881 
" style="fill:none;opacity:0.5;stroke:#800080;stroke-linecap:round;stroke-width:2;"/>
    <path d="M 91.124586 143.355897 
L 93.221402 143.0344 
L 93.542899 145.131217 
" style="fill:none;opacity:0.5;stroke:#800080;stroke-linecap:round;stroke-width:2;"/>
   </g>
   <g id="patch_36">
    <path clip-path="url(#p107e2672fe)" d="M 337.975171 185.145254 
C 338.622144 185.145254 339.242706 184.970182 339.700185 184.658596 
C 340.157665 184.347011 340.41471 183.92435 340.41471 183.483702 
C 340.41471 183.043053 340.157665 182.620393 339.700185 182.308807 
C 339.242706 181.997221 338.622144 181.82215 337.975171 181.82215 
C 337.328197 181.82215 336.707635 181.997221 336.250156 182.308807 
C 335.792676 182.620393 335.535631 183.043053 335.535631 183.483702 
C 335.535631 183.92435 335.792676 184.347011 336.250156 184.658596 
C 336.707635 184.970182 337.328197 185.145254 337.975171 185.145254 
z
" style="fill:#ff0000;opacity:0.2;stroke:#ff0000;stroke-linejoin:miter;stroke-width:2;"/>
   </g>
   <g id="patch_37">
    <path clip-path="url(#p107e2672fe)" d="M 242.83313 266.561305 
C 243.480103 266.561305 244.100666 266.386234 244.558145 266.074648 
C 245.015624 265.763062 245.272669 265.340402 245.272669 264.899753 
C 245.272669 264.459105 245.015624 264.036444 244.558145 263.724859 
C 244.100666 263.413273 243.480103 263.238201 242.83313 263.238201 
C 242.186156 263.238201 241.565594 263.413273 241.108115 263.724859 
C 240.650636 264.036444 240.39359 264.459105 240.39359 264.899753 
C 240.39359 265.340402 240.650636 265.763062 241.108115 266.074648 
C 241.565594 266.386234 242.186156 266.561305 242.83313 266.561305 
z
" style="fill:#ff0000;opacity:0.2;stroke:#ff0000;stroke-linejoin:miter;stroke-width:2;"/>
   </g>
   <g id="patch_38">
    <path clip-path="url(#p107e2672fe)" d="M 147.691089 185.145254 
C 148.338063 185.145254 148.958625 184.970182 149.416104 184.658596 
C 149.873584 184.347011 150.130629 183.92435 150.130629 183.483702 
C 150.130629 183.043053 149.873584 182.620393 149.416104 182.308807 
C 148.958625 181.997221 148.338063 181.82215 147.691089 181.82215 
C 147.044116 181.82215 146.423554 181.997221 145.966074 182.308807 
C 145.508595 182.620393 145.25155 183.043053 145.25155 183.483702 
C 145.25155 183.92435 145.508595 184.347011 145.966074 184.658596 
C 146.423554 184.970182 147.044116 185.145254 147.691089 185.145254 
z
" style="fill:#ff0000;opacity:0.2;stroke:#ff0000;stroke-linejoin:miter;stroke-width:2;"/>
   </g>
   <g id="patch_39">
    <path clip-path="url(#p107e2672fe)" d="M 242.83313 103.729202 
C 243.480103 103.729202 244.100666 103.554131 244.558145 103.242545 
C 245.015624 102.930959 245.272669 102.508299 245.272669 102.06765 
C 245.272669 101.627001 245.015624 101.204341 244.558145 100.892755 
C 244.100666 100.58117 243.480103 100.406098 242.83313 100.406098 
C 242.186156 100.406098 241.565594 100.58117 241.108115 100.892755 
C 240.650636 101.204341 240.39359 101.627001 240.39359 102.06765 
C 240.39359 102.508299 240.650636 102.930959 241.108115 103.242545 
C 241.565594 103.554131 242.186156 103.729202 242.83313 103.729202 
z
" style="fill:#ff0000;opacity:0.2;stroke:#ff0000;stroke-linejoin:miter;stroke-width:2;"/>
   </g>
   <g id="patch_40">
    <path clip-path="url(#p107e2672fe)" d="M 242.83313 71.328937 
C 243.480103 71.328937 244.100666 71.153865 244.558145 70.842279 
C 245.015624 70.530694 245.272669 70.108033 245.272669 69.667385 
C 245.272669 69.226736 245.015624 68.804076 244.558145 68.49249 
C 244.100666 68.180904 243.480103 68.005833 242.83313 68.005833 
C 242.186156 68.005833 241.565594 68.180904 241.108115 68.49249 
C 240.650636 68.804076 240.39359 69.226736 240.39359 69.667385 
C 240.39359 70.108033 240.650636 70.530694 241.108115 70.842279 
C 241.565594 71.153865 242.186156 71.328937 242.83313 71.328937 
z
" style="fill:#0000ff;opacity:0.2;stroke:#0000ff;stroke-linejoin:miter;stroke-width:2;"/>
   </g>
   <g id="patch_41">
    <path clip-path="url(#p107e2672fe)" d="M 328.217013 141.9449 
C 328.863986 141.9449 329.484548 141.769828 329.942027 141.458243 
C 330.399507 141.146657 330.656552 140.723997 330.656552 140.283348 
C 330.656552 139.842699 330.399507 139.420039 329.942027 139.108453 
C 329.484548 138.796867 328.863986 138.621796 328.217013 138.621796 
C 327.570039 138.621796 326.949477 138.796867 326.491998 139.108453 
C 326.034518 139.420039 325.777473 139.842699 325.777473 140.283348 
C 325.777473 140.723997 326.034518 141.146657 326.491998 141.458243 
C 326.949477 141.769828 327.570039 141.9449 328.217013 141.9449 
z
" style="fill:#0000ff;opacity:0.2;stroke:#0000ff;stroke-linejoin:miter;stroke-width:2;"/>
   </g>
   <g id="patch_42">
    <path clip-path="url(#p107e2672fe)" d="M 242.83313 212.560863 
C 243.480103 212.560863 244.100666 212.385791 244.558145 212.074206 
C 245.015624 211.76262 245.272669 211.33996 245.272669 210.899311 
C 245.272669 210.458662 245.015624 210.036002 244.558145 209.724416 
C 244.100666 209.41283 243.480103 209.237759 242.83313 209.237759 
C 242.186156 209.237759 241.565594 209.41283 241.108115 209.724416 
C 240.650636 210.036002 240.39359 210.458662 240.39359 210.899311 
C 240.39359 211.33996 240.650636 211.76262 241.108115 212.074206 
C 241.565594 212.385791 242.186156 212.560863 242.83313 212.560863 
z
" style="fill:#0000ff;opacity:0.2;stroke:#0000ff;stroke-linejoin:miter;stroke-width:2;"/>
   </g>
   <g id="patch_43">
    <path clip-path="url(#p107e2672fe)" d="M 157.449247 141.9449 
C 158.096221 141.9449 158.716783 141.769828 159.174262 141.458243 
C 159.631742 141.146657 159.888787 140.723997 159.888787 140.283348 
C 159.888787 139.842699 159.631742 139.420039 159.174262 139.108453 
C 158.716783 138.796867 158.096221 138.621796 157.449247 138.621796 
C 156.802274 138.621796 156.181712 138.796867 155.724232 139.108453 
C 155.266753 139.420039 155.009708 139.842699 155.009708 140.283348 
C 155.009708 140.723997 155.266753 141.146657 155.724232 141.458243 
C 156.181712 141.769828 156.802274 141.9449 157.449247 141.9449 
z
" style="fill:#0000ff;opacity:0.2;stroke:#0000ff;stroke-linejoin:miter;stroke-width:2;"/>
   </g>
   <g id="patch_44">
    <path clip-path="url(#p107e2672fe)" d="M 337.975171 183.483702 
C 337.975171 231.668712 303.821618 264.899753 242.83313 264.899753 
C 187.943491 264.899753 147.691089 231.668712 147.691089 183.483702 
C 147.691089 136.129468 187.943491 102.06765 242.83313 102.06765 
C 297.722769 102.06765 337.975171 136.129468 337.975171 183.483702 
" style="fill:none;stroke:#ff0000;stroke-linejoin:miter;stroke-width:0.5;"/>
   </g>
   <g id="patch_45">
    <path clip-path="url(#p107e2672fe)" d="M 242.83313 69.667385 
C 291.62392 69.667385 328.217013 97.91377 328.217013 140.283348 
C 328.217013 182.652926 291.62392 210.899311 242.83313 210.899311 
C 194.04234 210.899311 157.449247 182.652926 157.449247 140.283348 
C 157.449247 97.91377 194.04234 69.667385 242.83313 69.667385 
" style="fill:none;stroke:#0000ff;stroke-linejoin:miter;stroke-width:0.5;"/>
   </g>
   <g id="[&quot;g_s&quot;:1,&quot;g_t&quot;:4,&quot;coords&quot;:[[315.0, -202.0],[167.0, -150.0]],&quot;certainty&quot;:11]">
    <path clip-path="url(#p107e2672fe)" d="M 337.975171 188.468358 
C 339.916091 188.468358 341.777777 187.943143 343.150215 187.008386 
C 344.522653 186.073629 345.293789 184.805648 345.293789 183.483702 
C 345.293789 182.161755 344.522653 180.893775 343.150215 179.959018 
C 341.777777 179.02426 339.916091 178.499046 337.975171 178.499046 
C 336.03425 178.499046 334.172564 179.02426 332.800126 179.959018 
C 331.427688 180.893775 330.656552 182.161755 330.656552 183.483702 
C 330.656552 184.805648 331.427688 186.073629 332.800126 187.008386 
C 334.172564 187.943143 336.03425 188.468358 337.975171 188.468358 
z
" style="fill:#0000ff;opacity:0.2;stroke:#0000ff;stroke-linejoin:miter;stroke-width:2;"/>
   </g>
   <g id="[&quot;g_s&quot;:4,&quot;g_t&quot;:1,&quot;coords&quot;:[[167.0, -150.0],[315.0, -202.0]],&quot;certainty&quot;:11]">
    <path clip-path="url(#p107e2672fe)" d="M 157.449247 145.268004 
C 159.390168 145.268004 161.251854 144.742789 162.624292 143.808032 
C 163.99673 142.873275 164.767866 141.605294 164.767866 140.283348 
C 164.767866 138.961402 163.99673 137.693421 162.624292 136.758664 
C 161.251854 135.823906 159.390168 135.298692 157.449247 135.298692 
C 155.508327 135.298692 153.64664 135.823906 152.274203 136.758664 
C 150.901765 137.693421 150.130629 138.961402 150.130629 140.283348 
C 150.130629 141.605294 150.901765 142.873275 152.274203 143.808032 
C 153.64664 144.742789 155.508327 145.268004 157.449247 145.268004 
z
" style="fill:#ff0000;opacity:0.2;stroke:#ff0000;stroke-linejoin:miter;stroke-width:2;"/>
   </g>
   <g id="patch_46">
    <path d="M 337.975171 183.483702 
Q 248.685963 162.116547 161.459825 141.24309 
" style="fill:none;opacity:0.5;stroke:#0000ff;stroke-linecap:round;stroke-width:3;"/>
    <path d="M 162.569539 143.050999 
L 161.459825 141.24309 
L 163.267734 140.133376 
" style="fill:none;opacity:0.5;stroke:#0000ff;stroke-linecap:round;stroke-width:3;"/>
   </g>
   <g id="[&quot;g_s&quot;:2,&quot;g_t&quot;:3,&quot;coords&quot;:[[237.0, -300.0],[237.0, -235.0]],&quot;certainty&quot;:10]">
    <path clip-path="url(#p107e2672fe)" d="M 242.83313 269.469022 
C 244.612307 269.469022 246.318853 268.987575 247.576921 268.130714 
C 248.834989 267.273853 249.541864 266.111537 249.541864 264.899753 
C 249.541864 263.687969 248.834989 262.525654 247.576921 261.668793 
C 246.318853 260.811932 244.612307 260.330485 242.83313 260.330485 
C 241.053953 260.330485 239.347407 260.811932 238.089339 261.668793 
C 236.831271 262.525654 236.124396 263.687969 236.124396 264.899753 
C 236.124396 266.111537 236.831271 267.273853 238.089339 268.130714 
C 239.347407 268.987575 241.053953 269.469022 242.83313 269.469022 
z
" style="fill:#0000ff;opacity:0.2;stroke:#0000ff;stroke-linejoin:miter;stroke-width:2;"/>
   </g>
   <g id="[&quot;g_s&quot;:3,&quot;g_t&quot;:2,&quot;coords&quot;:[[237.0, -235.0],[237.0, -300.0]],&quot;certainty&quot;:10]">
    <path clip-path="url(#p107e2672fe)" d="M 242.83313 215.468579 
C 244.612307 215.468579 246.318853 214.987132 247.576921 214.130271 
C 248.834989 213.273411 249.541864 212.111095 249.541864 210.899311 
C 249.541864 209.687527 248.834989 208.525211 247.576921 207.66835 
C 246.318853 206.81149 244.612307 206.330043 242.83313 206.330043 
C 241.053953 206.330043 239.347407 206.81149 238.089339 207.66835 
C 236.831271 208.525211 236.124396 209.687527 236.124396 210.899311 
C 236.124396 212.111095 236.831271 213.273411 238.089339 214.130271 
C 239.347407 214.987132 241.053953 215.468579 242.83313 215.468579 
z
" style="fill:#ff0000;opacity:0.2;stroke:#ff0000;stroke-linejoin:miter;stroke-width:2;"/>
   </g>
   <g id="patch_47">
    <path d="M 242.83313 264.899753 
Q 242.83313 238.899846 242.83313 214.844481 
" style="fill:none;opacity:0.5;stroke:#0000ff;stroke-linecap:round;stroke-width:2.75;"/>
    <path d="M 241.33313 216.344481 
L 242.83313 214.844481 
L 244.33313 216.344481 
" style="fill:none;opacity:0.5;stroke:#0000ff;stroke-linecap:round;stroke-width:2.75;"/>
   </g>
   <g id="[&quot;g_s&quot;:3,&quot;g_t&quot;:4,&quot;coords&quot;:[[159.0, -202.0],[167.0, -150.0]],&quot;certainty&quot;:12]">
    <path clip-path="url(#p107e2672fe)" d="M 147.691089 188.883746 
C 149.793753 188.883746 151.81058 188.314763 153.297388 187.30211 
C 154.784196 186.289456 155.619593 184.91581 155.619593 183.483702 
C 155.619593 182.051593 154.784196 180.677947 153.297388 179.665294 
C 151.81058 178.65264 149.793753 178.083657 147.691089 178.083657 
C 145.588426 178.083657 143.571599 178.65264 142.084791 179.665294 
C 140.597983 180.677947 139.762586 182.051593 139.762586 183.483702 
C 139.762586 184.91581 140.597983 186.289456 142.084791 187.30211 
C 143.571599 188.314763 145.588426 188.883746 147.691089 188.883746 
z
" style="fill:#0000ff;opacity:0.2;stroke:#0000ff;stroke-linejoin:miter;stroke-width:2;"/>
   </g>
   <g id="[&quot;g_s&quot;:4,&quot;g_t&quot;:3,&quot;coords&quot;:[[167.0, -150.0],[159.0, -202.0]],&quot;certainty&quot;:12]">
    <path clip-path="url(#p107e2672fe)" d="M 157.449247 145.683392 
C 159.551911 145.683392 161.568738 145.114409 163.055546 144.101756 
C 164.542354 143.089102 165.377751 141.715456 165.377751 140.283348 
C 165.377751 138.851239 164.542354 137.477594 163.055546 136.46494 
C 161.568738 135.452286 159.551911 134.883304 157.449247 134.883304 
C 155.346584 134.883304 153.329757 135.452286 151.842949 136.46494 
C 150.356141 137.477594 149.520744 138.851239 149.520744 140.283348 
C 149.520744 141.715456 150.356141 143.089102 151.842949 144.101756 
C 153.329757 145.114409 155.346584 145.683392 157.449247 145.683392 
z
" style="fill:#ff0000;opacity:0.2;stroke:#ff0000;stroke-linejoin:miter;stroke-width:2;"/>
   </g>
   <g id="patch_48">
    <path d="M 147.691089 183.483702 
Q 152.350098 162.8578 156.502765 144.473521 
" style="fill:none;opacity:0.5;stroke:#0000ff;stroke-linecap:round;stroke-width:3.25;"/>
    <path d="M 154.709131 145.606163 
L 156.502765 144.473521 
L 157.635407 146.267155 
" style="fill:none;opacity:0.5;stroke:#0000ff;stroke-linecap:round;stroke-width:3.25;"/>
   </g>
   <g id="[&quot;g_s&quot;:4,&quot;g_t&quot;:1,&quot;coords&quot;:[[237.0, -104.0],[237.0, -65.0]],&quot;certainty&quot;:11]">
    <path clip-path="url(#p107e2672fe)" d="M 242.83313 107.052306 
C 244.77405 107.052306 246.635737 106.527092 248.008175 105.592334 
C 249.380613 104.657577 250.151748 103.389596 250.151748 102.06765 
C 250.151748 100.745704 249.380613 99.477723 248.008175 98.542966 
C 246.635737 97.608209 244.77405 97.082994 242.83313 97.082994 
C 240.89221 97.082994 239.030523 97.608209 237.658085 98.542966 
C 236.285647 99.477723 235.514511 100.745704 235.514511 102.06765 
C 235.514511 103.389596 236.285647 104.657577 237.658085 105.592334 
C 239.030523 106.527092 240.89221 107.052306 242.83313 107.052306 
z
" style="fill:#0000ff;opacity:0.2;stroke:#0000ff;stroke-linejoin:miter;stroke-width:2;"/>
   </g>
   <g id="[&quot;g_s&quot;:1,&quot;g_t&quot;:4,&quot;coords&quot;:[[237.0, -65.0],[237.0, -104.0]],&quot;certainty&quot;:11]">
    <path clip-path="url(#p107e2672fe)" d="M 242.83313 74.652041 
C 244.77405 74.652041 246.635737 74.126826 248.008175 73.192069 
C 249.380613 72.257312 250.151748 70.989331 250.151748 69.667385 
C 250.151748 68.345438 249.380613 67.077458 248.008175 66.1427 
C 246.635737 65.207943 244.77405 64.682728 242.83313 64.682728 
C 240.89221 64.682728 239.030523 65.207943 237.658085 66.1427 
C 236.285647 67.077458 235.514511 68.345438 235.514511 69.667385 
C 235.514511 70.989331 236.285647 72.257312 237.658085 73.192069 
C 239.030523 74.126826 240.89221 74.652041 242.83313 74.652041 
z
" style="fill:#ff0000;opacity:0.2;stroke:#ff0000;stroke-linejoin:miter;stroke-width:2;"/>
   </g>
   <g id="patch_49">
    <path d="M 242.83313 102.06765 
Q 242.83313 86.866183 242.83313 73.786036 
" style="fill:none;opacity:0.5;stroke:#0000ff;stroke-linecap:round;stroke-width:3;"/>
    <path d="M 241.33313 75.286036 
L 242.83313 73.786036 
L 244.33313 75.286036 
" style="fill:none;opacity:0.5;stroke:#0000ff;stroke-linecap:round;stroke-width:3;"/>
   </g>
   <g id="[&quot;g_s&quot;:1,&quot;g_t&quot;:4,&quot;coords&quot;:[[237.0, -65.0],[237.0, -104.0]],&quot;certainty&quot;:10]">
    <path clip-path="url(#p107e2672fe)" d="M 242.83313 74.236653 
C 244.612307 74.236653 246.318853 73.755206 247.576921 72.898345 
C 248.834989 72.041484 249.541864 70.879169 249.541864 69.667385 
C 249.541864 68.455601 248.834989 67.293285 247.576921 66.436424 
C 246.318853 65.579563 244.612307 65.098116 242.83313 65.098116 
C 241.053953 65.098116 239.347407 65.579563 238.089339 66.436424 
C 236.831271 67.293285 236.124396 68.455601 236.124396 69.667385 
C 236.124396 70.879169 236.831271 72.041484 238.089339 72.898345 
C 239.347407 73.755206 241.053953 74.236653 242.83313 74.236653 
z
" style="fill:#0000ff;opacity:0.2;stroke:#0000ff;stroke-linejoin:miter;stroke-width:2;"/>
   </g>
   <g id="[&quot;g_s&quot;:4,&quot;g_t&quot;:1,&quot;coords&quot;:[[237.0, -104.0],[237.0, -65.0]],&quot;certainty&quot;:10]">
    <path clip-path="url(#p107e2672fe)" d="M 242.83313 106.636918 
C 244.612307 106.636918 246.318853 106.155471 247.576921 105.298611 
C 248.834989 104.44175 249.541864 103.279434 249.541864 102.06765 
C 249.541864 100.855866 248.834989 99.69355 247.576921 98.83669 
C 246.318853 97.979829 244.612307 97.498382 242.83313 97.498382 
C 241.053953 97.498382 239.347407 97.979829 238.089339 98.83669 
C 236.831271 99.69355 236.124396 100.855866 236.124396 102.06765 
C 236.124396 103.279434 236.831271 104.44175 238.089339 105.298611 
C 239.347407 106.155471 241.053953 106.636918 242.83313 106.636918 
z
" style="fill:#ff0000;opacity:0.2;stroke:#ff0000;stroke-linejoin:miter;stroke-width:2;"/>
   </g>
   <g id="patch_50">
    <path d="M 242.83313 69.667385 
Q 242.83313 84.868852 242.83313 98.125776 
" style="fill:none;opacity:0.5;stroke:#ff0000;stroke-linecap:round;stroke-width:2.75;"/>
    <path d="M 244.33313 96.625776 
L 242.83313 98.125776 
L 241.33313 96.625776 
" style="fill:none;opacity:0.5;stroke:#ff0000;stroke-linecap:round;stroke-width:2.75;"/>
   </g>
   <g id="[&quot;g_s&quot;:2,&quot;g_t&quot;:1,&quot;coords&quot;:[[307.0, -150.0],[315.0, -202.0]],&quot;certainty&quot;:12]">
    <path clip-path="url(#p107e2672fe)" d="M 328.217013 145.683392 
C 330.319676 145.683392 332.336503 145.114409 333.823311 144.101756 
C 335.310119 143.089102 336.145516 141.715456 336.145516 140.283348 
C 336.145516 138.851239 335.310119 137.477594 333.823311 136.46494 
C 332.336503 135.452286 330.319676 134.883304 328.217013 134.883304 
C 326.114349 134.883304 324.097522 135.452286 322.610714 136.46494 
C 321.123906 137.477594 320.288509 138.851239 320.288509 140.283348 
C 320.288509 141.715456 321.123906 143.089102 322.610714 144.101756 
C 324.097522 145.114409 326.114349 145.683392 328.217013 145.683392 
z
" style="fill:#0000ff;opacity:0.2;stroke:#0000ff;stroke-linejoin:miter;stroke-width:2;"/>
   </g>
   <g id="[&quot;g_s&quot;:1,&quot;g_t&quot;:2,&quot;coords&quot;:[[315.0, -202.0],[307.0, -150.0]],&quot;certainty&quot;:12]">
    <path clip-path="url(#p107e2672fe)" d="M 337.975171 188.883746 
C 340.077834 188.883746 342.094661 188.314763 343.581469 187.30211 
C 345.068277 186.289456 345.903674 184.91581 345.903674 183.483702 
C 345.903674 182.051593 345.068277 180.677947 343.581469 179.665294 
C 342.094661 178.65264 340.077834 178.083657 337.975171 178.083657 
C 335.872507 178.083657 333.85568 178.65264 332.368872 179.665294 
C 330.882064 180.677947 330.046667 182.051593 330.046667 183.483702 
C 330.046667 184.91581 330.882064 186.289456 332.368872 187.30211 
C 333.85568 188.314763 335.872507 188.883746 337.975171 188.883746 
z
" style="fill:#ff0000;opacity:0.2;stroke:#ff0000;stroke-linejoin:miter;stroke-width:2;"/>
   </g>
   <g id="patch_51">
    <path d="M 328.217013 140.283348 
Q 332.876021 160.909249 337.028688 179.293529 
" style="fill:none;opacity:0.5;stroke:#ff0000;stroke-linecap:round;stroke-width:3.25;"/>
    <path d="M 338.16133 177.499895 
L 337.028688 179.293529 
L 335.235055 178.160886 
" style="fill:none;opacity:0.5;stroke:#ff0000;stroke-linecap:round;stroke-width:3.25;"/>
   </g>
   <g id="[&quot;g_s&quot;:3,&quot;g_t&quot;:2,&quot;coords&quot;:[[237.0, -235.0],[237.0, -300.0]],&quot;certainty&quot;:11]">
    <path clip-path="url(#p107e2672fe)" d="M 242.83313 215.883967 
C 244.77405 215.883967 246.635737 215.358752 248.008175 214.423995 
C 249.380613 213.489238 250.151748 212.221257 250.151748 210.899311 
C 250.151748 209.577365 249.380613 208.309384 248.008175 207.374627 
C 246.635737 206.43987 244.77405 205.914655 242.83313 205.914655 
C 240.89221 205.914655 239.030523 206.43987 237.658085 207.374627 
C 236.285647 208.309384 235.514511 209.577365 235.514511 210.899311 
C 235.514511 212.221257 236.285647 213.489238 237.658085 214.423995 
C 239.030523 215.358752 240.89221 215.883967 242.83313 215.883967 
z
" style="fill:#0000ff;opacity:0.2;stroke:#0000ff;stroke-linejoin:miter;stroke-width:2;"/>
   </g>
   <g id="[&quot;g_s&quot;:2,&quot;g_t&quot;:3,&quot;coords&quot;:[[237.0, -300.0],[237.0, -235.0]],&quot;certainty&quot;:11]">
    <path clip-path="url(#p107e2672fe)" d="M 242.83313 269.88441 
C 244.77405 269.88441 246.635737 269.359195 248.008175 268.424438 
C 249.380613 267.48968 250.151748 266.2217 250.151748 264.899753 
C 250.151748 263.577807 249.380613 262.309826 248.008175 261.375069 
C 246.635737 260.440312 244.77405 259.915097 242.83313 259.915097 
C 240.89221 259.915097 239.030523 260.440312 237.658085 261.375069 
C 236.285647 262.309826 235.514511 263.577807 235.514511 264.899753 
C 235.514511 266.2217 236.285647 267.48968 237.658085 268.424438 
C 239.030523 269.359195 240.89221 269.88441 242.83313 269.88441 
z
" style="fill:#ff0000;opacity:0.2;stroke:#ff0000;stroke-linejoin:miter;stroke-width:2;"/>
   </g>
   <g id="patch_52">
    <path d="M 242.83313 210.899311 
Q 242.83313 236.899219 242.83313 260.777806 
" style="fill:none;opacity:0.5;stroke:#ff0000;stroke-linecap:round;stroke-width:3;"/>
    <path d="M 244.33313 259.277806 
L 242.83313 260.777806 
L 241.33313 259.277806 
" style="fill:none;opacity:0.5;stroke:#ff0000;stroke-linecap:round;stroke-width:3;"/>
   </g>
   <g id="[&quot;g_s&quot;:4,&quot;g_t&quot;:3,&quot;coords&quot;:[[167.0, -150.0],[159.0, -202.0]],&quot;certainty&quot;:11]">
    <path clip-path="url(#p107e2672fe)" d="M 157.449247 145.268004 
C 159.390168 145.268004 161.251854 144.742789 162.624292 143.808032 
C 163.99673 142.873275 164.767866 141.605294 164.767866 140.283348 
C 164.767866 138.961402 163.99673 137.693421 162.624292 136.758664 
C 161.251854 135.823906 159.390168 135.298692 157.449247 135.298692 
C 155.508327 135.298692 153.64664 135.823906 152.274203 136.758664 
C 150.901765 137.693421 150.130629 138.961402 150.130629 140.283348 
C 150.130629 141.605294 150.901765 142.873275 152.274203 143.808032 
C 153.64664 144.742789 155.508327 145.268004 157.449247 145.268004 
z
" style="fill:#0000ff;opacity:0.2;stroke:#0000ff;stroke-linejoin:miter;stroke-width:2;"/>
   </g>
   <g id="[&quot;g_s&quot;:3,&quot;g_t&quot;:4,&quot;coords&quot;:[[159.0, -202.0],[167.0, -150.0]],&quot;certainty&quot;:11]">
    <path clip-path="url(#p107e2672fe)" d="M 147.691089 188.468358 
C 149.63201 188.468358 151.493696 187.943143 152.866134 187.008386 
C 154.238572 186.073629 155.009708 184.805648 155.009708 183.483702 
C 155.009708 182.161755 154.238572 180.893775 152.866134 179.959018 
C 151.493696 179.02426 149.63201 178.499046 147.691089 178.499046 
C 145.750169 178.499046 143.888482 179.02426 142.516045 179.959018 
C 141.143607 180.893775 140.372471 182.161755 140.372471 183.483702 
C 140.372471 184.805648 141.143607 186.073629 142.516045 187.008386 
C 143.888482 187.943143 145.750169 188.468358 147.691089 188.468358 
z
" style="fill:#ff0000;opacity:0.2;stroke:#ff0000;stroke-linejoin:miter;stroke-width:2;"/>
   </g>
   <g id="patch_53">
    <path d="M 157.449247 140.283348 
Q 152.790239 160.909249 148.598622 179.465961 
" style="fill:none;opacity:0.5;stroke:#ff0000;stroke-linecap:round;stroke-width:3;"/>
    <path d="M 150.392256 178.333319 
L 148.598622 179.465961 
L 147.46598 177.672327 
" style="fill:none;opacity:0.5;stroke:#ff0000;stroke-linecap:round;stroke-width:3;"/>
   </g>
   <g id="patch_54">
    <path clip-path="url(#p107e2672fe)" d="M 242.83313 242.053412 
C 244.450564 242.053412 246.001969 241.615733 247.145667 240.836769 
C 248.289366 240.057805 248.931979 239.001154 248.931979 237.899532 
C 248.931979 236.79791 248.289366 235.74126 247.145667 234.962295 
C 246.001969 234.183331 244.450564 233.745652 242.83313 233.745652 
C 241.215696 233.745652 239.664291 234.183331 238.520593 234.962295 
C 237.376894 235.74126 236.734281 236.79791 236.734281 237.899532 
C 236.734281 239.001154 237.376894 240.057805 238.520593 240.836769 
C 239.664291 241.615733 241.215696 242.053412 242.83313 242.053412 
z
" style="fill:#008000;opacity:0.2;stroke:#008000;stroke-linejoin:miter;stroke-width:2;"/>
   </g>
   <g id="patch_55">
    <path clip-path="url(#p107e2672fe)" d="M 152.570168 166.037405 
C 154.187602 166.037405 155.739007 165.599726 156.882706 164.820762 
C 158.026404 164.041797 158.669017 162.985147 158.669017 161.883525 
C 158.669017 160.781903 158.026404 159.725252 156.882706 158.946288 
C 155.739007 158.167324 154.187602 157.729645 152.570168 157.729645 
C 150.952735 157.729645 149.401329 158.167324 148.257631 158.946288 
C 147.113933 159.725252 146.47132 160.781903 146.47132 161.883525 
C 146.47132 162.985147 147.113933 164.041797 148.257631 164.820762 
C 149.401329 165.599726 150.952735 166.037405 152.570168 166.037405 
z
" style="fill:#008000;opacity:0.2;stroke:#008000;stroke-linejoin:miter;stroke-width:2;"/>
   </g>
   <g id="patch_56">
    <path clip-path="url(#p107e2672fe)" d="M 242.83313 90.021398 
C 244.450564 90.021398 246.001969 89.583719 247.145667 88.804754 
C 248.289366 88.02579 248.931979 86.969139 248.931979 85.867517 
C 248.931979 84.765896 248.289366 83.709245 247.145667 82.930281 
C 246.001969 82.151316 244.450564 81.713637 242.83313 81.713637 
C 241.215696 81.713637 239.664291 82.151316 238.520593 82.930281 
C 237.376894 83.709245 236.734281 84.765896 236.734281 85.867517 
C 236.734281 86.969139 237.376894 88.02579 238.520593 88.804754 
C 239.664291 89.583719 241.215696 90.021398 242.83313 90.021398 
z
" style="fill:#008000;opacity:0.2;stroke:#008000;stroke-linejoin:miter;stroke-width:2;"/>
   </g>
   <g id="patch_57">
    <path clip-path="url(#p107e2672fe)" d="M 337.975171 200.099222 
C 344.444905 200.099222 350.650527 198.348506 355.22532 195.232649 
C 359.800113 192.116792 362.370566 187.890189 362.370566 183.483702 
C 362.370566 179.077214 359.800113 174.850612 355.22532 171.734754 
C 350.650527 168.618897 344.444905 166.868181 337.975171 166.868181 
C 331.505436 166.868181 325.299814 168.618897 320.725021 171.734754 
C 316.150228 174.850612 313.579776 179.077214 313.579776 183.483702 
C 313.579776 187.890189 316.150228 192.116792 320.725021 195.232649 
C 325.299814 198.348506 331.505436 200.099222 337.975171 200.099222 
z
" style="fill:none;opacity:0.2;stroke:#ff0000;stroke-linejoin:miter;stroke-width:2;"/>
   </g>
   <g id="patch_58">
    <path clip-path="url(#p107e2672fe)" d="M 242.83313 86.282905 
C 249.302864 86.282905 255.508486 84.532189 260.083279 81.416332 
C 264.658072 78.300475 267.228525 74.073872 267.228525 69.667385 
C 267.228525 65.260897 264.658072 61.034295 260.083279 57.918437 
C 255.508486 54.80258 249.302864 53.051864 242.83313 53.051864 
C 236.363396 53.051864 230.157774 54.80258 225.582981 57.918437 
C 221.008188 61.034295 218.437735 65.260897 218.437735 69.667385 
C 218.437735 74.073872 221.008188 78.300475 225.582981 81.416332 
C 230.157774 84.532189 236.363396 86.282905 242.83313 86.282905 
z
" style="fill:none;opacity:0.2;stroke:#0000ff;stroke-linejoin:miter;stroke-width:2;"/>
   </g>
   <g id="patch_59">
    <path clip-path="url(#p107e2672fe)" d="M 242.83313 273.207514 
C 246.067997 273.207514 249.170808 272.332156 251.458205 270.774227 
C 253.745601 269.216298 255.030827 267.102997 255.030827 264.899753 
C 255.030827 262.69651 253.745601 260.583208 251.458205 259.02528 
C 249.170808 257.467351 246.067997 256.591993 242.83313 256.591993 
C 239.598263 256.591993 236.495452 257.467351 234.208055 259.02528 
C 231.920659 260.583208 230.635432 262.69651 230.635432 264.899753 
C 230.635432 267.102997 231.920659 269.216298 234.208055 270.774227 
C 236.495452 272.332156 239.598263 273.207514 242.83313 273.207514 
z
" style="fill:none;opacity:0.2;stroke:#008000;stroke-linejoin:miter;stroke-width:2;"/>
   </g>
   <g id="patch_60">
    <path clip-path="url(#p107e2672fe)" d="M 242.83313 219.207071 
C 246.067997 219.207071 249.170808 218.331713 251.458205 216.773785 
C 253.745601 215.215856 255.030827 213.102555 255.030827 210.899311 
C 255.030827 208.696067 253.745601 206.582766 251.458205 205.024837 
C 249.170808 203.466909 246.067997 202.591551 242.83313 202.591551 
C 239.598263 202.591551 236.495452 203.466909 234.208055 205.024837 
C 231.920659 206.582766 230.635432 208.696067 230.635432 210.899311 
C 230.635432 213.102555 231.920659 215.215856 234.208055 216.773785 
C 236.495452 218.331713 239.598263 219.207071 242.83313 219.207071 
z
" style="fill:none;opacity:0.2;stroke:#008000;stroke-linejoin:miter;stroke-width:2;"/>
   </g>
   <g id="patch_61">
    <path d="M 242.83313 237.899532 
Q 197.701649 199.891528 152.570168 161.883525 
" style="fill:none;opacity:0.5;stroke:#008000;stroke-linecap:round;stroke-width:2;"/>
   </g>
   <g id="patch_62">
    <path d="M 242.83313 263.48554 
Q 242.83313 238.899846 242.83313 214.314151 
" style="fill:none;opacity:0.5;stroke:#800080;stroke-linecap:round;stroke-width:2;"/>
    <path d="M 244.33313 261.98554 
L 242.83313 263.48554 
L 241.33313 261.98554 
" style="fill:none;opacity:0.5;stroke:#800080;stroke-linecap:round;stroke-width:2;"/>
    <path d="M 241.33313 215.814151 
L 242.83313 214.314151 
L 244.33313 215.814151 
" style="fill:none;opacity:0.5;stroke:#800080;stroke-linecap:round;stroke-width:2;"/>
   </g>
   <g id="patch_63">
    <path d="M 152.570168 161.883525 
Q 197.701649 123.875521 242.83313 85.867517 
" style="fill:none;opacity:0.5;stroke:#008000;stroke-linecap:round;stroke-width:2;"/>
   </g>
   <g id="patch_64">
    <path d="M 148.002684 182.104242 
Q 152.350098 162.8578 156.697511 143.611359 
" style="fill:none;opacity:0.5;stroke:#800080;stroke-linecap:round;stroke-width:2;"/>
    <path d="M 149.796317 180.9716 
L 148.002684 182.104242 
L 146.870041 180.310608 
" style="fill:none;opacity:0.5;stroke:#800080;stroke-linecap:round;stroke-width:2;"/>
    <path d="M 154.903878 144.744001 
L 156.697511 143.611359 
L 157.830154 145.404992 
" style="fill:none;opacity:0.5;stroke:#800080;stroke-linecap:round;stroke-width:2;"/>
   </g>
   <g id="line2d_1">
    <path clip-path="url(#p107e2672fe)" d="M 242.83313 65.513505 
L 422.139283 183.483702 
L 242.83313 301.453899 
L 63.526976 183.483702 
" style="fill:none;stroke:#ff0000;stroke-linecap:square;stroke-width:0.2;"/>
   </g>
   <g id="line2d_2">
    <path clip-path="url(#p107e2672fe)" d="M 242.83313 43.913328 
L 390.42527 140.283348 
L 242.83313 236.653368 
L 95.24099 140.283348 
" style="fill:none;stroke:#0000ff;stroke-linecap:square;stroke-width:0.2;"/>
   </g>
   <g id="line2d_3">
    <path clip-path="url(#p107e2672fe)" d="M 337.975171 183.483702 
L 242.83313 264.899753 
L 147.691089 183.483702 
L 242.83313 102.06765 
" style="fill:none;stroke:#ff0000;stroke-linecap:square;stroke-width:0.2;"/>
   </g>
   <g id="line2d_4">
    <path clip-path="url(#p107e2672fe)" d="M 242.83313 69.667385 
L 328.217013 140.283348 
L 242.83313 210.899311 
L 157.449247 140.283348 
" style="fill:none;stroke:#0000ff;stroke-linecap:square;stroke-width:0.2;"/>
   </g>
  </g>
 </g>
 <defs>
  <clipPath id="p107e2672fe">
   <rect height="307.51175" width="409.903625" x="37.576375" y="13.32"/>
  </clipPath>
 </defs>
</svg>
