<?xml version="1.0" encoding="utf-8" standalone="no"?>
<!DOCTYPE svg PUBLIC "-//W3C//DTD SVG 1.1//EN"
  "http://www.w3.org/Graphics/SVG/1.1/DTD/svg11.dtd">
<!-- Created with matplotlib (http://matplotlib.org/) -->
<svg height="345.6pt" version="1.1" viewBox="0 0 460.8 345.6" width="460.8pt" xmlns="http://www.w3.org/2000/svg" xmlns:xlink="http://www.w3.org/1999/xlink">
 <defs>
  <style type="text/css">
*{stroke-linecap:butt;stroke-linejoin:round;}
  </style>
 </defs>
 <g id="figure_1">
  <g id="patch_1">
   <path d="M 0 345.6 
L 460.8 345.6 
L 460.8 0 
L 0 0 
z
" style="fill:#ffffff;"/>
  </g>
  <g id="axes_1">
   <g id="patch_2">
    <path clip-path="url(#p8b2c614594)" d="M 125.850725 241.706643 
C 126.44322 241.706643 127.011527 241.359082 127.430485 240.740506 
C 127.849442 240.12193 128.084843 239.282844 128.084843 238.408045 
C 128.084843 237.533247 127.849442 236.694161 127.430485 236.075585 
C 127.011527 235.457009 126.44322 235.109448 125.850725 235.109448 
C 125.258229 235.109448 124.689922 235.457009 124.270964 236.075585 
C 123.852007 236.694161 123.616606 237.533247 123.616606 238.408045 
C 123.616606 239.282844 123.852007 240.12193 124.270964 240.740506 
C 124.689922 241.359082 125.258229 241.706643 125.850725 241.706643 
z
" style="fill:#ff0000;opacity:0.2;stroke:#ff0000;stroke-linejoin:miter;stroke-width:2;"/>
   </g>
   <g id="patch_3">
    <path clip-path="url(#p8b2c614594)" d="M 57.710112 146.047316 
C 58.302607 146.047316 58.870915 145.699755 59.289872 145.081179 
C 59.70883 144.462603 59.944231 143.623517 59.944231 142.748719 
C 59.944231 141.87392 59.70883 141.034834 59.289872 140.416258 
C 58.870915 139.797682 58.302607 139.450121 57.710112 139.450121 
C 57.117617 139.450121 56.549309 139.797682 56.130352 140.416258 
C 55.711395 141.034834 55.475994 141.87392 55.475994 142.748719 
C 55.475994 143.623517 55.711395 144.462603 56.130352 145.081179 
C 56.549309 145.699755 57.117617 146.047316 57.710112 146.047316 
z
" style="fill:#ff0000;opacity:0.2;stroke:#ff0000;stroke-linejoin:miter;stroke-width:2;"/>
   </g>
   <g id="patch_4">
    <path clip-path="url(#p8b2c614594)" d="M 125.850725 40.492197 
C 126.44322 40.492197 127.011527 40.144636 127.430485 39.52606 
C 127.849442 38.907484 128.084843 38.068398 128.084843 37.193599 
C 128.084843 36.318801 127.849442 35.479714 127.430485 34.861139 
C 127.011527 34.242563 126.44322 33.895002 125.850725 33.895002 
C 125.258229 33.895002 124.689922 34.242563 124.270964 34.861139 
C 123.852007 35.479714 123.616606 36.318801 123.616606 37.193599 
C 123.616606 38.068398 123.852007 38.907484 124.270964 39.52606 
C 124.689922 40.144636 125.258229 40.492197 125.850725 40.492197 
z
" style="fill:#ff0000;opacity:0.2;stroke:#ff0000;stroke-linejoin:miter;stroke-width:2;"/>
   </g>
   <g id="patch_5">
    <path clip-path="url(#p8b2c614594)" d="M 192.874278 137.800822 
C 193.466773 137.800822 194.035081 137.453261 194.454038 136.834686 
C 194.872995 136.21611 195.108396 135.377023 195.108396 134.502225 
C 195.108396 133.627427 194.872995 132.78834 194.454038 132.169764 
C 194.035081 131.551188 193.466773 131.203627 192.874278 131.203627 
C 192.281782 131.203627 191.713475 131.551188 191.294517 132.169764 
C 190.87556 132.78834 190.640159 133.627427 190.640159 134.502225 
C 190.640159 135.377023 190.87556 136.21611 191.294517 136.834686 
C 191.713475 137.453261 192.281782 137.800822 192.874278 137.800822 
z
" style="fill:#ff0000;opacity:0.2;stroke:#ff0000;stroke-linejoin:miter;stroke-width:2;"/>
   </g>
   <g id="patch_6">
    <path clip-path="url(#p8b2c614594)" d="M 124.175136 277.166566 
C 124.767631 277.166566 125.335939 276.819005 125.754896 276.200429 
C 126.173853 275.581853 126.409254 274.742767 126.409254 273.867968 
C 126.409254 272.99317 126.173853 272.154084 125.754896 271.535508 
C 125.335939 270.916932 124.767631 270.569371 124.175136 270.569371 
C 123.582641 270.569371 123.014333 270.916932 122.595375 271.535508 
C 122.176418 272.154084 121.941017 272.99317 121.941017 273.867968 
C 121.941017 274.742767 122.176418 275.581853 122.595375 276.200429 
C 123.014333 276.819005 123.582641 277.166566 124.175136 277.166566 
z
" style="fill:#0000ff;opacity:0.2;stroke:#0000ff;stroke-linejoin:miter;stroke-width:2;"/>
   </g>
   <g id="patch_7">
    <path clip-path="url(#p8b2c614594)" d="M 69.439234 193.05233 
C 70.031729 193.05233 70.600037 192.704769 71.018994 192.086193 
C 71.437952 191.467618 71.673352 190.628531 71.673352 189.753733 
C 71.673352 188.878934 71.437952 188.039848 71.018994 187.421272 
C 70.600037 186.802696 70.031729 186.455135 69.439234 186.455135 
C 68.846739 186.455135 68.278431 186.802696 67.859474 187.421272 
C 67.440516 188.039848 67.205116 188.878934 67.205116 189.753733 
C 67.205116 190.628531 67.440516 191.467618 67.859474 192.086193 
C 68.278431 192.704769 68.846739 193.05233 69.439234 193.05233 
z
" style="fill:#0000ff;opacity:0.2;stroke:#0000ff;stroke-linejoin:miter;stroke-width:2;"/>
   </g>
   <g id="patch_8">
    <path clip-path="url(#p8b2c614594)" d="M 124.175136 100.691601 
C 124.767631 100.691601 125.335939 100.34404 125.754896 99.725464 
C 126.173853 99.106888 126.409254 98.267802 126.409254 97.393003 
C 126.409254 96.518205 126.173853 95.679118 125.754896 95.060543 
C 125.335939 94.441967 124.767631 94.094406 124.175136 94.094406 
C 123.582641 94.094406 123.014333 94.441967 122.595375 95.060543 
C 122.176418 95.679118 121.941017 96.518205 121.941017 97.393003 
C 121.941017 98.267802 122.176418 99.106888 122.595375 99.725464 
C 123.014333 100.34404 123.582641 100.691601 124.175136 100.691601 
z
" style="fill:#0000ff;opacity:0.2;stroke:#0000ff;stroke-linejoin:miter;stroke-width:2;"/>
   </g>
   <g id="patch_9">
    <path clip-path="url(#p8b2c614594)" d="M 181.145156 189.753733 
C 181.737651 189.753733 182.305959 189.406172 182.724916 188.787596 
C 183.143873 188.16902 183.379274 187.329933 183.379274 186.455135 
C 183.379274 185.580337 183.143873 184.74125 182.724916 184.122675 
C 182.305959 183.504099 181.737651 183.156538 181.145156 183.156538 
C 180.552661 183.156538 179.984353 183.504099 179.565396 184.122675 
C 179.146438 184.74125 178.911037 185.580337 178.911037 186.455135 
C 178.911037 187.329933 179.146438 188.16902 179.565396 188.787596 
C 179.984353 189.406172 180.552661 189.753733 181.145156 189.753733 
z
" style="fill:#0000ff;opacity:0.2;stroke:#0000ff;stroke-linejoin:miter;stroke-width:2;"/>
   </g>
   <g id="patch_10">
    <path clip-path="url(#p8b2c614594)" d="M 125.850725 238.408045 
C 87.870711 238.408045 58.827171 205.422071 57.710112 142.748719 
C 57.710112 81.724665 86.753652 37.193599 125.850725 37.193599 
C 164.947797 37.193599 192.874278 83.373964 192.874278 134.502225 
C 192.874278 197.175577 164.947797 238.408045 125.850725 238.408045 
" style="fill:none;stroke:#ff0000;stroke-linejoin:miter;stroke-width:0.5;"/>
   </g>
   <g id="patch_11">
    <path clip-path="url(#p8b2c614594)" d="M 124.175136 273.867968 
C 89.5463 273.867968 69.439234 245.82989 69.439234 189.753733 
C 66.088056 141.924069 89.5463 97.393003 124.175136 97.393003 
C 158.803971 97.393003 181.145156 143.573368 181.145156 186.455135 
C 181.145156 234.284799 158.803971 273.867968 124.175136 273.867968 
" style="fill:none;stroke:#0000ff;stroke-linejoin:miter;stroke-width:0.5;"/>
   </g>
   <g id="[&quot;g_s&quot;:1,&quot;g_t&quot;:1,&quot;coords&quot;:[[136.0, 12.0],[134.5, -9.5]],&quot;certainty&quot;:10]">
    <path clip-path="url(#p8b2c614594)" d="M 125.850725 247.479189 
C 127.480086 247.479189 129.042933 246.523396 130.195065 244.822312 
C 131.347198 243.121229 131.99455 240.813741 131.99455 238.408045 
C 131.99455 236.00235 131.347198 233.694862 130.195065 231.993779 
C 129.042933 230.292695 127.480086 229.336902 125.850725 229.336902 
C 124.221363 229.336902 122.658516 230.292695 121.506384 231.993779 
C 120.354251 233.694862 119.706899 236.00235 119.706899 238.408045 
C 119.706899 240.813741 120.354251 243.121229 121.506384 244.822312 
C 122.658516 246.523396 124.221363 247.479189 125.850725 247.479189 
z
" style="fill:#0000ff;opacity:0.2;stroke:#0000ff;stroke-linejoin:miter;stroke-width:2;"/>
   </g>
   <g id="[&quot;g_s&quot;:1,&quot;g_t&quot;:1,&quot;coords&quot;:[[134.5, -9.5],[136.0, 12.0]],&quot;certainty&quot;:10]">
    <path clip-path="url(#p8b2c614594)" d="M 124.175136 282.939111 
C 125.804497 282.939111 127.367344 281.983319 128.519477 280.282235 
C 129.671609 278.581152 130.318961 276.273664 130.318961 273.867968 
C 130.318961 271.462273 129.671609 269.154785 128.519477 267.453702 
C 127.367344 265.752618 125.804497 264.796825 124.175136 264.796825 
C 122.545774 264.796825 120.982928 265.752618 119.830795 267.453702 
C 118.678662 269.154785 118.03131 271.462273 118.03131 273.867968 
C 118.03131 276.273664 118.678662 278.581152 119.830795 280.282235 
C 120.982928 281.983319 122.545774 282.939111 124.175136 282.939111 
z
" style="fill:#ff0000;opacity:0.2;stroke:#ff0000;stroke-linejoin:miter;stroke-width:2;"/>
   </g>
   <g id="patch_12">
    <path d="M 125.850725 238.408045 
Q 125.060076 255.140264 124.361212 269.930106 
" style="fill:none;opacity:0.5;stroke:#0000ff;stroke-linecap:round;stroke-width:2.75;"/>
    <path d="M 125.93034 268.502578 
L 124.361212 269.930106 
L 122.933684 268.360977 
" style="fill:none;opacity:0.5;stroke:#0000ff;stroke-linecap:round;stroke-width:2.75;"/>
   </g>
   <g id="[&quot;g_s&quot;:2,&quot;g_t&quot;:2,&quot;coords&quot;:[[75.0, 70.0],[85.5, 41.5]],&quot;certainty&quot;:12]">
    <path clip-path="url(#p8b2c614594)" d="M 57.710112 153.46916 
C 59.635721 153.46916 61.482722 152.339587 62.844333 150.329216 
C 64.205944 148.318844 64.970997 145.591813 64.970997 142.748719 
C 64.970997 139.905624 64.205944 137.178593 62.844333 135.168221 
C 61.482722 133.15785 59.635721 132.028277 57.710112 132.028277 
C 55.784503 132.028277 53.937503 133.15785 52.575891 135.168221 
C 51.21428 137.178593 50.449227 139.905624 50.449227 142.748719 
C 50.449227 145.591813 51.21428 148.318844 52.575891 150.329216 
C 53.937503 152.339587 55.784503 153.46916 57.710112 153.46916 
z
" style="fill:#0000ff;opacity:0.2;stroke:#0000ff;stroke-linejoin:miter;stroke-width:2;"/>
   </g>
   <g id="[&quot;g_s&quot;:2,&quot;g_t&quot;:2,&quot;coords&quot;:[[85.5, 41.5],[75.0, 70.0]],&quot;certainty&quot;:12]">
    <path clip-path="url(#p8b2c614594)" d="M 69.439234 200.474174 
C 71.364843 200.474174 73.211844 199.344601 74.573455 197.33423 
C 75.935066 195.323858 76.700119 192.596827 76.700119 189.753733 
C 76.700119 186.910638 75.935066 184.183607 74.573455 182.173236 
C 73.211844 180.162864 71.364843 179.033291 69.439234 179.033291 
C 67.513625 179.033291 65.666624 180.162864 64.305013 182.173236 
C 62.943402 184.183607 62.178349 186.910638 62.178349 189.753733 
C 62.178349 192.596827 62.943402 195.323858 64.305013 197.33423 
C 65.666624 199.344601 67.513625 200.474174 69.439234 200.474174 
z
" style="fill:#ff0000;opacity:0.2;stroke:#ff0000;stroke-linejoin:miter;stroke-width:2;"/>
   </g>
   <g id="patch_13">
    <path d="M 57.710112 142.748719 
Q 63.332345 165.280083 68.398195 185.581719 
" style="fill:none;opacity:0.5;stroke:#0000ff;stroke-linecap:round;stroke-width:3.25;"/>
    <path d="M 69.490411 183.763186 
L 68.398195 185.581719 
L 66.579662 184.489503 
" style="fill:none;opacity:0.5;stroke:#0000ff;stroke-linecap:round;stroke-width:3.25;"/>
   </g>
   <g id="[&quot;g_s&quot;:3,&quot;g_t&quot;:3,&quot;coords&quot;:[[136.0, 134.0],[134.5, 97.5]],&quot;certainty&quot;:11]">
    <path clip-path="url(#p8b2c614594)" d="M 125.850725 47.089392 
C 127.62821 47.089392 129.333133 46.046709 130.590005 44.190981 
C 131.846877 42.335254 132.55308 39.817994 132.55308 37.193599 
C 132.55308 34.569204 131.846877 32.051945 130.590005 30.196217 
C 129.333133 28.34049 127.62821 27.297807 125.850725 27.297807 
C 124.073239 27.297807 122.368316 28.34049 121.111444 30.196217 
C 119.854572 32.051945 119.148369 34.569204 119.148369 37.193599 
C 119.148369 39.817994 119.854572 42.335254 121.111444 44.190981 
C 122.368316 46.046709 124.073239 47.089392 125.850725 47.089392 
z
" style="fill:#0000ff;opacity:0.2;stroke:#0000ff;stroke-linejoin:miter;stroke-width:2;"/>
   </g>
   <g id="[&quot;g_s&quot;:3,&quot;g_t&quot;:3,&quot;coords&quot;:[[134.5, 97.5],[136.0, 134.0]],&quot;certainty&quot;:11]">
    <path clip-path="url(#p8b2c614594)" d="M 124.175136 107.288796 
C 125.952621 107.288796 127.657545 106.246113 128.914417 104.390385 
C 130.171289 102.534658 130.877491 100.017398 130.877491 97.393003 
C 130.877491 94.768608 130.171289 92.251349 128.914417 90.395621 
C 127.657545 88.539894 125.952621 87.497211 124.175136 87.497211 
C 122.39765 87.497211 120.692727 88.539894 119.435855 90.395621 
C 118.178983 92.251349 117.47278 94.768608 117.47278 97.393003 
C 117.47278 100.017398 118.178983 102.534658 119.435855 104.390385 
C 120.692727 106.246113 122.39765 107.288796 124.175136 107.288796 
z
" style="fill:#ff0000;opacity:0.2;stroke:#ff0000;stroke-linejoin:miter;stroke-width:2;"/>
   </g>
   <g id="patch_14">
    <path d="M 125.850725 37.193599 
Q 125.040799 66.29206 124.289895 93.270022 
" style="fill:none;opacity:0.5;stroke:#0000ff;stroke-linecap:round;stroke-width:3;"/>
    <path d="M 125.831049 91.812337 
L 124.289895 93.270022 
L 122.83221 91.728867 
" style="fill:none;opacity:0.5;stroke:#0000ff;stroke-linecap:round;stroke-width:3;"/>
   </g>
   <g id="[&quot;g_s&quot;:4,&quot;g_t&quot;:4,&quot;coords&quot;:[[196.0, 75.0],[185.5, 43.5]],&quot;certainty&quot;:11]">
    <path clip-path="url(#p8b2c614594)" d="M 192.874278 144.398017 
C 194.651763 144.398017 196.356687 143.355334 197.613559 141.499607 
C 198.870431 139.643879 199.576633 137.12662 199.576633 134.502225 
C 199.576633 131.87783 198.870431 129.36057 197.613559 127.504843 
C 196.356687 125.649116 194.651763 124.606432 192.874278 124.606432 
C 191.096792 124.606432 189.391869 125.649116 188.134997 127.504843 
C 186.878125 129.36057 186.171922 131.87783 186.171922 134.502225 
C 186.171922 137.12662 186.878125 139.643879 188.134997 141.499607 
C 189.391869 143.355334 191.096792 144.398017 192.874278 144.398017 
z
" style="fill:#0000ff;opacity:0.2;stroke:#0000ff;stroke-linejoin:miter;stroke-width:2;"/>
   </g>
   <g id="[&quot;g_s&quot;:4,&quot;g_t&quot;:4,&quot;coords&quot;:[[185.5, 43.5],[196.0, 75.0]],&quot;certainty&quot;:11]">
    <path clip-path="url(#p8b2c614594)" d="M 181.145156 196.350928 
C 182.922641 196.350928 184.627565 195.308245 185.884437 193.452517 
C 187.141309 191.59679 187.847511 189.07953 187.847511 186.455135 
C 187.847511 183.83074 187.141309 181.313481 185.884437 179.457753 
C 184.627565 177.602026 182.922641 176.559343 181.145156 176.559343 
C 179.36767 176.559343 177.662747 177.602026 176.405875 179.457753 
C 175.149003 181.313481 174.442801 183.83074 174.442801 186.455135 
C 174.442801 189.07953 175.149003 191.59679 176.405875 193.452517 
C 177.662747 195.308245 179.36767 196.350928 181.145156 196.350928 
z
" style="fill:#ff0000;opacity:0.2;stroke:#ff0000;stroke-linejoin:miter;stroke-width:2;"/>
   </g>
   <g id="patch_15">
    <path d="M 192.874278 134.502225 
Q 187.229853 159.503612 182.052589 182.435757 
" style="fill:none;opacity:0.5;stroke:#0000ff;stroke-linecap:round;stroke-width:3;"/>
    <path d="M 183.846096 181.302915 
L 182.052589 182.435757 
L 180.919747 180.642249 
" style="fill:none;opacity:0.5;stroke:#0000ff;stroke-linecap:round;stroke-width:3;"/>
   </g>
   <g id="[&quot;g_s&quot;:1,&quot;g_t&quot;:1,&quot;coords&quot;:[[134.5, -9.5],[136.0, 12.0]],&quot;certainty&quot;:10]">
    <path clip-path="url(#p8b2c614594)" d="M 124.175136 282.939111 
C 125.804497 282.939111 127.367344 281.983319 128.519477 280.282235 
C 129.671609 278.581152 130.318961 276.273664 130.318961 273.867968 
C 130.318961 271.462273 129.671609 269.154785 128.519477 267.453702 
C 127.367344 265.752618 125.804497 264.796825 124.175136 264.796825 
C 122.545774 264.796825 120.982928 265.752618 119.830795 267.453702 
C 118.678662 269.154785 118.03131 271.462273 118.03131 273.867968 
C 118.03131 276.273664 118.678662 278.581152 119.830795 280.282235 
C 120.982928 281.983319 122.545774 282.939111 124.175136 282.939111 
z
" style="fill:#0000ff;opacity:0.2;stroke:#0000ff;stroke-linejoin:miter;stroke-width:2;"/>
   </g>
   <g id="[&quot;g_s&quot;:1,&quot;g_t&quot;:1,&quot;coords&quot;:[[136.0, 12.0],[134.5, -9.5]],&quot;certainty&quot;:10]">
    <path clip-path="url(#p8b2c614594)" d="M 125.850725 247.479189 
C 127.480086 247.479189 129.042933 246.523396 130.195065 244.822312 
C 131.347198 243.121229 131.99455 240.813741 131.99455 238.408045 
C 131.99455 236.00235 131.347198 233.694862 130.195065 231.993779 
C 129.042933 230.292695 127.480086 229.336902 125.850725 229.336902 
C 124.221363 229.336902 122.658516 230.292695 121.506384 231.993779 
C 120.354251 233.694862 119.706899 236.00235 119.706899 238.408045 
C 119.706899 240.813741 120.354251 243.121229 121.506384 244.822312 
C 122.658516 246.523396 124.221363 247.479189 125.850725 247.479189 
z
" style="fill:#ff0000;opacity:0.2;stroke:#ff0000;stroke-linejoin:miter;stroke-width:2;"/>
   </g>
   <g id="patch_16">
    <path d="M 124.175136 273.867968 
Q 124.965784 257.13575 125.664649 242.345908 
" style="fill:none;opacity:0.5;stroke:#ff0000;stroke-linecap:round;stroke-width:2.75;"/>
    <path d="M 124.09552 243.773436 
L 125.664649 242.345908 
L 127.092176 243.915037 
" style="fill:none;opacity:0.5;stroke:#ff0000;stroke-linecap:round;stroke-width:2.75;"/>
   </g>
   <g id="[&quot;g_s&quot;:2,&quot;g_t&quot;:2,&quot;coords&quot;:[[85.5, 41.5],[75.0, 70.0]],&quot;certainty&quot;:12]">
    <path clip-path="url(#p8b2c614594)" d="M 69.439234 200.474174 
C 71.364843 200.474174 73.211844 199.344601 74.573455 197.33423 
C 75.935066 195.323858 76.700119 192.596827 76.700119 189.753733 
C 76.700119 186.910638 75.935066 184.183607 74.573455 182.173236 
C 73.211844 180.162864 71.364843 179.033291 69.439234 179.033291 
C 67.513625 179.033291 65.666624 180.162864 64.305013 182.173236 
C 62.943402 184.183607 62.178349 186.910638 62.178349 189.753733 
C 62.178349 192.596827 62.943402 195.323858 64.305013 197.33423 
C 65.666624 199.344601 67.513625 200.474174 69.439234 200.474174 
z
" style="fill:#0000ff;opacity:0.2;stroke:#0000ff;stroke-linejoin:miter;stroke-width:2;"/>
   </g>
   <g id="[&quot;g_s&quot;:2,&quot;g_t&quot;:2,&quot;coords&quot;:[[75.0, 70.0],[85.5, 41.5]],&quot;certainty&quot;:12]">
    <path clip-path="url(#p8b2c614594)" d="M 57.710112 153.46916 
C 59.635721 153.46916 61.482722 152.339587 62.844333 150.329216 
C 64.205944 148.318844 64.970997 145.591813 64.970997 142.748719 
C 64.970997 139.905624 64.205944 137.178593 62.844333 135.168221 
C 61.482722 133.15785 59.635721 132.028277 57.710112 132.028277 
C 55.784503 132.028277 53.937503 133.15785 52.575891 135.168221 
C 51.21428 137.178593 50.449227 139.905624 50.449227 142.748719 
C 50.449227 145.591813 51.21428 148.318844 52.575891 150.329216 
C 53.937503 152.339587 55.784503 153.46916 57.710112 153.46916 
z
" style="fill:#ff0000;opacity:0.2;stroke:#ff0000;stroke-linejoin:miter;stroke-width:2;"/>
   </g>
   <g id="patch_17">
    <path d="M 69.439234 189.753733 
Q 63.817001 167.222368 58.751151 146.920732 
" style="fill:none;opacity:0.5;stroke:#ff0000;stroke-linecap:round;stroke-width:3.25;"/>
    <path d="M 57.658935 148.739265 
L 58.751151 146.920732 
L 60.569684 148.012948 
" style="fill:none;opacity:0.5;stroke:#ff0000;stroke-linecap:round;stroke-width:3.25;"/>
   </g>
   <g id="[&quot;g_s&quot;:3,&quot;g_t&quot;:3,&quot;coords&quot;:[[134.5, 97.5],[136.0, 134.0]],&quot;certainty&quot;:11]">
    <path clip-path="url(#p8b2c614594)" d="M 124.175136 107.288796 
C 125.952621 107.288796 127.657545 106.246113 128.914417 104.390385 
C 130.171289 102.534658 130.877491 100.017398 130.877491 97.393003 
C 130.877491 94.768608 130.171289 92.251349 128.914417 90.395621 
C 127.657545 88.539894 125.952621 87.497211 124.175136 87.497211 
C 122.39765 87.497211 120.692727 88.539894 119.435855 90.395621 
C 118.178983 92.251349 117.47278 94.768608 117.47278 97.393003 
C 117.47278 100.017398 118.178983 102.534658 119.435855 104.390385 
C 120.692727 106.246113 122.39765 107.288796 124.175136 107.288796 
z
" style="fill:#0000ff;opacity:0.2;stroke:#0000ff;stroke-linejoin:miter;stroke-width:2;"/>
   </g>
   <g id="[&quot;g_s&quot;:3,&quot;g_t&quot;:3,&quot;coords&quot;:[[136.0, 134.0],[134.5, 97.5]],&quot;certainty&quot;:11]">
    <path clip-path="url(#p8b2c614594)" d="M 125.850725 47.089392 
C 127.62821 47.089392 129.333133 46.046709 130.590005 44.190981 
C 131.846877 42.335254 132.55308 39.817994 132.55308 37.193599 
C 132.55308 34.569204 131.846877 32.051945 130.590005 30.196217 
C 129.333133 28.34049 127.62821 27.297807 125.850725 27.297807 
C 124.073239 27.297807 122.368316 28.34049 121.111444 30.196217 
C 119.854572 32.051945 119.148369 34.569204 119.148369 37.193599 
C 119.148369 39.817994 119.854572 42.335254 121.111444 44.190981 
C 122.368316 46.046709 124.073239 47.089392 125.850725 47.089392 
z
" style="fill:#ff0000;opacity:0.2;stroke:#ff0000;stroke-linejoin:miter;stroke-width:2;"/>
   </g>
   <g id="patch_18">
    <path d="M 124.175136 97.393003 
Q 124.985062 68.294543 125.735966 41.316581 
" style="fill:none;opacity:0.5;stroke:#ff0000;stroke-linecap:round;stroke-width:3;"/>
    <path d="M 124.194811 42.774265 
L 125.735966 41.316581 
L 127.19365 42.857735 
" style="fill:none;opacity:0.5;stroke:#ff0000;stroke-linecap:round;stroke-width:3;"/>
   </g>
   <g id="[&quot;g_s&quot;:4,&quot;g_t&quot;:4,&quot;coords&quot;:[[185.5, 43.5],[196.0, 75.0]],&quot;certainty&quot;:11]">
    <path clip-path="url(#p8b2c614594)" d="M 181.145156 196.350928 
C 182.922641 196.350928 184.627565 195.308245 185.884437 193.452517 
C 187.141309 191.59679 187.847511 189.07953 187.847511 186.455135 
C 187.847511 183.83074 187.141309 181.313481 185.884437 179.457753 
C 184.627565 177.602026 182.922641 176.559343 181.145156 176.559343 
C 179.36767 176.559343 177.662747 177.602026 176.405875 179.457753 
C 175.149003 181.313481 174.442801 183.83074 174.442801 186.455135 
C 174.442801 189.07953 175.149003 191.59679 176.405875 193.452517 
C 177.662747 195.308245 179.36767 196.350928 181.145156 196.350928 
z
" style="fill:#0000ff;opacity:0.2;stroke:#0000ff;stroke-linejoin:miter;stroke-width:2;"/>
   </g>
   <g id="[&quot;g_s&quot;:4,&quot;g_t&quot;:4,&quot;coords&quot;:[[196.0, 75.0],[185.5, 43.5]],&quot;certainty&quot;:11]">
    <path clip-path="url(#p8b2c614594)" d="M 192.874278 144.398017 
C 194.651763 144.398017 196.356687 143.355334 197.613559 141.499607 
C 198.870431 139.643879 199.576633 137.12662 199.576633 134.502225 
C 199.576633 131.87783 198.870431 129.36057 197.613559 127.504843 
C 196.356687 125.649116 194.651763 124.606432 192.874278 124.606432 
C 191.096792 124.606432 189.391869 125.649116 188.134997 127.504843 
C 186.878125 129.36057 186.171922 131.87783 186.171922 134.502225 
C 186.171922 137.12662 186.878125 139.643879 188.134997 141.499607 
C 189.391869 143.355334 191.096792 144.398017 192.874278 144.398017 
z
" style="fill:#ff0000;opacity:0.2;stroke:#ff0000;stroke-linejoin:miter;stroke-width:2;"/>
   </g>
   <g id="patch_19">
    <path d="M 181.145156 186.455135 
Q 186.789581 161.453748 191.966845 138.521603 
" style="fill:none;opacity:0.5;stroke:#ff0000;stroke-linecap:round;stroke-width:3;"/>
    <path d="M 190.173337 139.654445 
L 191.966845 138.521603 
L 193.099687 140.315111 
" style="fill:none;opacity:0.5;stroke:#ff0000;stroke-linecap:round;stroke-width:3;"/>
   </g>
   <g id="patch_20">
    <path clip-path="url(#p8b2c614594)" d="M 125.01293 264.384501 
C 126.494168 264.384501 127.914938 263.515598 128.962331 261.969159 
C 130.009724 260.422719 130.598226 258.325003 130.598226 256.138007 
C 130.598226 253.951011 130.009724 251.853295 128.962331 250.306855 
C 127.914938 248.760416 126.494168 247.891513 125.01293 247.891513 
C 123.531692 247.891513 122.110923 248.760416 121.063529 250.306855 
C 120.016136 251.853295 119.427634 253.951011 119.427634 256.138007 
C 119.427634 258.325003 120.016136 260.422719 121.063529 261.969159 
C 122.110923 263.515598 123.531692 264.384501 125.01293 264.384501 
z
" style="fill:#008000;opacity:0.2;stroke:#008000;stroke-linejoin:miter;stroke-width:2;"/>
   </g>
   <g id="patch_21">
    <path clip-path="url(#p8b2c614594)" d="M 63.574673 174.497719 
C 65.055911 174.497719 66.476681 173.628817 67.524074 172.082377 
C 68.571467 170.535938 69.159969 168.438221 69.159969 166.251226 
C 69.159969 164.06423 68.571467 161.966514 67.524074 160.420074 
C 66.476681 158.873635 65.055911 158.004732 63.574673 158.004732 
C 62.093435 158.004732 60.672666 158.873635 59.625272 160.420074 
C 58.577879 161.966514 57.989377 164.06423 57.989377 166.251226 
C 57.989377 168.438221 58.577879 170.535938 59.625272 172.082377 
C 60.672666 173.628817 62.093435 174.497719 63.574673 174.497719 
z
" style="fill:#008000;opacity:0.2;stroke:#008000;stroke-linejoin:miter;stroke-width:2;"/>
   </g>
   <g id="patch_22">
    <path clip-path="url(#p8b2c614594)" d="M 125.01293 75.539795 
C 126.494168 75.539795 127.914938 74.670892 128.962331 73.124453 
C 130.009724 71.578013 130.598226 69.480297 130.598226 67.293301 
C 130.598226 65.106306 130.009724 63.008589 128.962331 61.46215 
C 127.914938 59.91571 126.494168 59.046808 125.01293 59.046808 
C 123.531692 59.046808 122.110923 59.91571 121.063529 61.46215 
C 120.016136 63.008589 119.427634 65.106306 119.427634 67.293301 
C 119.427634 69.480297 120.016136 71.578013 121.063529 73.124453 
C 122.110923 74.670892 123.531692 75.539795 125.01293 75.539795 
z
" style="fill:#008000;opacity:0.2;stroke:#008000;stroke-linejoin:miter;stroke-width:2;"/>
   </g>
   <g id="patch_23">
    <path clip-path="url(#p8b2c614594)" d="M 187.009717 168.725174 
C 188.490955 168.725174 189.911724 167.856271 190.959117 166.309832 
C 192.006511 164.763392 192.595013 162.665676 192.595013 160.47868 
C 192.595013 158.291684 192.006511 156.193968 190.959117 154.647528 
C 189.911724 153.101089 188.490955 152.232186 187.009717 152.232186 
C 185.528479 152.232186 184.107709 153.101089 183.060316 154.647528 
C 182.012923 156.193968 181.424421 158.291684 181.424421 160.47868 
C 181.424421 162.665676 182.012923 164.763392 183.060316 166.309832 
C 184.107709 167.856271 185.528479 168.725174 187.009717 168.725174 
z
" style="fill:#008000;opacity:0.2;stroke:#008000;stroke-linejoin:miter;stroke-width:2;"/>
   </g>
   <g id="patch_24">
    <path clip-path="url(#p8b2c614594)" d="M 125.850725 271.39402 
C 131.775676 271.39402 137.458754 267.91841 141.648327 261.732652 
C 145.837901 255.546894 148.191909 247.156028 148.191909 238.408045 
C 148.191909 229.660063 145.837901 221.269197 141.648327 215.083439 
C 137.458754 208.897681 131.775676 205.422071 125.850725 205.422071 
C 119.925773 205.422071 114.242695 208.897681 110.053122 215.083439 
C 105.863548 221.269197 103.50954 229.660063 103.50954 238.408045 
C 103.50954 247.156028 105.863548 255.546894 110.053122 261.732652 
C 114.242695 267.91841 119.925773 271.39402 125.850725 271.39402 
z
" style="fill:none;opacity:0.2;stroke:#ff0000;stroke-linejoin:miter;stroke-width:2;"/>
   </g>
   <g id="patch_25">
    <path clip-path="url(#p8b2c614594)" d="M 124.175136 306.853943 
C 130.100087 306.853943 135.783165 303.378333 139.972739 297.192575 
C 144.162312 291.006817 146.51632 282.615951 146.51632 273.867968 
C 146.51632 265.119986 144.162312 256.72912 139.972739 250.543362 
C 135.783165 244.357604 130.100087 240.881994 124.175136 240.881994 
C 118.250184 240.881994 112.567106 244.357604 108.377533 250.543362 
C 104.187959 256.72912 101.833951 265.119986 101.833951 273.867968 
C 101.833951 282.615951 104.187959 291.006817 108.377533 297.192575 
C 112.567106 303.378333 118.250184 306.853943 124.175136 306.853943 
z
" style="fill:none;opacity:0.2;stroke:#0000ff;stroke-linejoin:miter;stroke-width:2;"/>
   </g>
   <g id="patch_26">
    <path clip-path="url(#p8b2c614594)" d="M 125.850725 254.901033 
C 128.8132 254.901033 131.654739 253.163228 133.749526 250.070349 
C 135.844313 246.97747 137.021317 242.782037 137.021317 238.408045 
C 137.021317 234.034054 135.844313 229.838621 133.749526 226.745742 
C 131.654739 223.652863 128.8132 221.915058 125.850725 221.915058 
C 122.888249 221.915058 120.04671 223.652863 117.951923 226.745742 
C 115.857136 229.838621 114.680132 234.034054 114.680132 238.408045 
C 114.680132 242.782037 115.857136 246.97747 117.951923 250.070349 
C 120.04671 253.163228 122.888249 254.901033 125.850725 254.901033 
z
" style="fill:none;opacity:0.2;stroke:#008000;stroke-linejoin:miter;stroke-width:2;"/>
   </g>
   <g id="patch_27">
    <path clip-path="url(#p8b2c614594)" d="M 124.175136 290.360956 
C 127.137611 290.360956 129.979151 288.623151 132.073937 285.530272 
C 134.168724 282.437393 135.345728 278.24196 135.345728 273.867968 
C 135.345728 269.493977 134.168724 265.298544 132.073937 262.205665 
C 129.979151 259.112786 127.137611 257.374981 124.175136 257.374981 
C 121.21266 257.374981 118.371121 259.112786 116.276334 262.205665 
C 114.181548 265.298544 113.004544 269.493977 113.004544 273.867968 
C 113.004544 278.24196 114.181548 282.437393 116.276334 285.530272 
C 118.371121 288.623151 121.21266 290.360956 124.175136 290.360956 
z
" style="fill:none;opacity:0.2;stroke:#008000;stroke-linejoin:miter;stroke-width:2;"/>
   </g>
   <g id="patch_28">
    <path d="M 125.01293 256.138007 
Q 94.293802 211.194616 63.574673 166.251226 
" style="fill:none;opacity:0.5;stroke:#008000;stroke-linecap:round;stroke-width:2;"/>
   </g>
   <g id="patch_29">
    <path d="M 125.783973 239.820683 
Q 125.060076 255.140264 124.33618 270.459845 
" style="fill:none;opacity:0.5;stroke:#800080;stroke-linecap:round;stroke-width:2;"/>
    <path d="M 124.214844 241.24821 
L 125.783973 239.820683 
L 127.211501 241.389812 
" style="fill:none;opacity:0.5;stroke:#800080;stroke-linecap:round;stroke-width:2;"/>
    <path d="M 125.905309 269.032317 
L 124.33618 270.459845 
L 122.908652 268.890716 
" style="fill:none;opacity:0.5;stroke:#800080;stroke-linecap:round;stroke-width:2;"/>
   </g>
   <g id="patch_30">
    <path d="M 63.574673 166.251226 
Q 94.293802 116.772263 125.01293 67.293301 
" style="fill:none;opacity:0.5;stroke:#008000;stroke-linecap:round;stroke-width:2;"/>
   </g>
   <g id="patch_31">
    <path d="M 58.052501 144.120859 
Q 63.332345 165.280083 68.612188 186.439307 
" style="fill:none;opacity:0.5;stroke:#800080;stroke-linecap:round;stroke-width:2;"/>
    <path d="M 56.960285 145.939392 
L 58.052501 144.120859 
L 59.871035 145.213076 
" style="fill:none;opacity:0.5;stroke:#800080;stroke-linecap:round;stroke-width:2;"/>
    <path d="M 69.704405 184.620774 
L 68.612188 186.439307 
L 66.793655 185.347091 
" style="fill:none;opacity:0.5;stroke:#800080;stroke-linecap:round;stroke-width:2;"/>
   </g>
   <g id="patch_32">
    <path d="M 125.01293 67.293301 
Q 156.011323 113.885991 187.009717 160.47868 
" style="fill:none;opacity:0.5;stroke:#008000;stroke-linecap:round;stroke-width:2;"/>
   </g>
   <g id="patch_33">
    <path d="M 125.811377 38.607265 
Q 125.040799 66.29206 124.270221 93.976855 
" style="fill:none;opacity:0.5;stroke:#800080;stroke-linecap:round;stroke-width:2;"/>
    <path d="M 124.270222 40.06495 
L 125.811377 38.607265 
L 127.269061 40.148419 
" style="fill:none;opacity:0.5;stroke:#800080;stroke-linecap:round;stroke-width:2;"/>
    <path d="M 125.811375 92.51917 
L 124.270221 93.976855 
L 122.812536 92.4357 
" style="fill:none;opacity:0.5;stroke:#800080;stroke-linecap:round;stroke-width:2;"/>
   </g>
   <g id="patch_34">
    <path d="M 187.009717 160.47868 
Q 156.011323 208.308343 125.01293 256.138007 
" style="fill:none;opacity:0.5;stroke:#008000;stroke-linecap:round;stroke-width:2;"/>
   </g>
   <g id="patch_35">
    <path d="M 192.562837 135.881719 
Q 187.229853 159.503612 181.896868 183.125504 
" style="fill:none;opacity:0.5;stroke:#800080;stroke-linecap:round;stroke-width:2;"/>
    <path d="M 190.769329 137.014561 
L 192.562837 135.881719 
L 193.695679 137.675227 
" style="fill:none;opacity:0.5;stroke:#800080;stroke-linecap:round;stroke-width:2;"/>
    <path d="M 183.690376 181.992662 
L 181.896868 183.125504 
L 180.764026 181.331997 
" style="fill:none;opacity:0.5;stroke:#800080;stroke-linecap:round;stroke-width:2;"/>
   </g>
   <g id="patch_36">
    <path clip-path="url(#p8b2c614594)" d="M 359.316101 241.706643 
C 359.908596 241.706643 360.476904 241.359082 360.895861 240.740506 
C 361.314819 240.12193 361.55022 239.282844 361.55022 238.408045 
C 361.55022 237.533247 361.314819 236.694161 360.895861 236.075585 
C 360.476904 235.457009 359.908596 235.109448 359.316101 235.109448 
C 358.723606 235.109448 358.155298 235.457009 357.736341 236.075585 
C 357.317384 236.694161 357.081983 237.533247 357.081983 238.408045 
C 357.081983 239.282844 357.317384 240.12193 357.736341 240.740506 
C 358.155298 241.359082 358.723606 241.706643 359.316101 241.706643 
z
" style="fill:#ff0000;opacity:0.2;stroke:#ff0000;stroke-linejoin:miter;stroke-width:2;"/>
   </g>
   <g id="patch_37">
    <path clip-path="url(#p8b2c614594)" d="M 291.175489 146.047316 
C 291.767984 146.047316 292.336292 145.699755 292.755249 145.081179 
C 293.174206 144.462603 293.409607 143.623517 293.409607 142.748719 
C 293.409607 141.87392 293.174206 141.034834 292.755249 140.416258 
C 292.336292 139.797682 291.767984 139.450121 291.175489 139.450121 
C 290.582994 139.450121 290.014686 139.797682 289.595729 140.416258 
C 289.176771 141.034834 288.94137 141.87392 288.94137 142.748719 
C 288.94137 143.623517 289.176771 144.462603 289.595729 145.081179 
C 290.014686 145.699755 290.582994 146.047316 291.175489 146.047316 
z
" style="fill:#ff0000;opacity:0.2;stroke:#ff0000;stroke-linejoin:miter;stroke-width:2;"/>
   </g>
   <g id="patch_38">
    <path clip-path="url(#p8b2c614594)" d="M 359.316101 40.492197 
C 359.908596 40.492197 360.476904 40.144636 360.895861 39.52606 
C 361.314819 38.907484 361.55022 38.068398 361.55022 37.193599 
C 361.55022 36.318801 361.314819 35.479714 360.895861 34.861139 
C 360.476904 34.242563 359.908596 33.895002 359.316101 33.895002 
C 358.723606 33.895002 358.155298 34.242563 357.736341 34.861139 
C 357.317384 35.479714 357.081983 36.318801 357.081983 37.193599 
C 357.081983 38.068398 357.317384 38.907484 357.736341 39.52606 
C 358.155298 40.144636 358.723606 40.492197 359.316101 40.492197 
z
" style="fill:#ff0000;opacity:0.2;stroke:#ff0000;stroke-linejoin:miter;stroke-width:2;"/>
   </g>
   <g id="patch_39">
    <path clip-path="url(#p8b2c614594)" d="M 426.339654 137.800822 
C 426.932149 137.800822 427.500457 137.453261 427.919415 136.834686 
C 428.338372 136.21611 428.573773 135.377023 428.573773 134.502225 
C 428.573773 133.627427 428.338372 132.78834 427.919415 132.169764 
C 427.500457 131.551188 426.932149 131.203627 426.339654 131.203627 
C 425.747159 131.203627 425.178851 131.551188 424.759894 132.169764 
C 424.340937 132.78834 424.105536 133.627427 424.105536 134.502225 
C 424.105536 135.377023 424.340937 136.21611 424.759894 136.834686 
C 425.178851 137.453261 425.747159 137.800822 426.339654 137.800822 
z
" style="fill:#ff0000;opacity:0.2;stroke:#ff0000;stroke-linejoin:miter;stroke-width:2;"/>
   </g>
   <g id="patch_40">
    <path clip-path="url(#p8b2c614594)" d="M 360.99169 277.166566 
C 361.584185 277.166566 362.152493 276.819005 362.57145 276.200429 
C 362.990408 275.581853 363.225808 274.742767 363.225808 273.867968 
C 363.225808 272.99317 362.990408 272.154084 362.57145 271.535508 
C 362.152493 270.916932 361.584185 270.569371 360.99169 270.569371 
C 360.399195 270.569371 359.830887 270.916932 359.41193 271.535508 
C 358.992972 272.154084 358.757572 272.99317 358.757572 273.867968 
C 358.757572 274.742767 358.992972 275.581853 359.41193 276.200429 
C 359.830887 276.819005 360.399195 277.166566 360.99169 277.166566 
z
" style="fill:#0000ff;opacity:0.2;stroke:#0000ff;stroke-linejoin:miter;stroke-width:2;"/>
   </g>
   <g id="patch_41">
    <path clip-path="url(#p8b2c614594)" d="M 302.904611 193.05233 
C 303.497106 193.05233 304.065414 192.704769 304.484371 192.086193 
C 304.903328 191.467618 305.138729 190.628531 305.138729 189.753733 
C 305.138729 188.878934 304.903328 188.039848 304.484371 187.421272 
C 304.065414 186.802696 303.497106 186.455135 302.904611 186.455135 
C 302.312116 186.455135 301.743808 186.802696 301.32485 187.421272 
C 300.905893 188.039848 300.670492 188.878934 300.670492 189.753733 
C 300.670492 190.628531 300.905893 191.467618 301.32485 192.086193 
C 301.743808 192.704769 302.312116 193.05233 302.904611 193.05233 
z
" style="fill:#0000ff;opacity:0.2;stroke:#0000ff;stroke-linejoin:miter;stroke-width:2;"/>
   </g>
   <g id="patch_42">
    <path clip-path="url(#p8b2c614594)" d="M 360.99169 100.691601 
C 361.584185 100.691601 362.152493 100.34404 362.57145 99.725464 
C 362.990408 99.106888 363.225808 98.267802 363.225808 97.393003 
C 363.225808 96.518205 362.990408 95.679118 362.57145 95.060543 
C 362.152493 94.441967 361.584185 94.094406 360.99169 94.094406 
C 360.399195 94.094406 359.830887 94.441967 359.41193 95.060543 
C 358.992972 95.679118 358.757572 96.518205 358.757572 97.393003 
C 358.757572 98.267802 358.992972 99.106888 359.41193 99.725464 
C 359.830887 100.34404 360.399195 100.691601 360.99169 100.691601 
z
" style="fill:#0000ff;opacity:0.2;stroke:#0000ff;stroke-linejoin:miter;stroke-width:2;"/>
   </g>
   <g id="patch_43">
    <path clip-path="url(#p8b2c614594)" d="M 414.610532 189.753733 
C 415.203028 189.753733 415.771335 189.406172 416.190293 188.787596 
C 416.60925 188.16902 416.844651 187.329933 416.844651 186.455135 
C 416.844651 185.580337 416.60925 184.74125 416.190293 184.122675 
C 415.771335 183.504099 415.203028 183.156538 414.610532 183.156538 
C 414.018037 183.156538 413.44973 183.504099 413.030772 184.122675 
C 412.611815 184.74125 412.376414 185.580337 412.376414 186.455135 
C 412.376414 187.329933 412.611815 188.16902 413.030772 188.787596 
C 413.44973 189.406172 414.018037 189.753733 414.610532 189.753733 
z
" style="fill:#0000ff;opacity:0.2;stroke:#0000ff;stroke-linejoin:miter;stroke-width:2;"/>
   </g>
   <g id="patch_44">
    <path clip-path="url(#p8b2c614594)" d="M 359.316101 238.408045 
C 321.336088 238.408045 292.292548 205.422071 291.175489 142.748719 
C 291.175489 81.724665 320.219029 37.193599 359.316101 37.193599 
C 398.413174 37.193599 426.339654 83.373964 426.339654 134.502225 
C 426.339654 197.175577 398.413174 238.408045 359.316101 238.408045 
" style="fill:none;stroke:#ff0000;stroke-linejoin:miter;stroke-width:0.5;"/>
   </g>
   <g id="patch_45">
    <path clip-path="url(#p8b2c614594)" d="M 360.99169 273.867968 
C 327.479913 273.867968 304.02167 245.82989 302.904611 189.753733 
C 302.904611 141.924069 326.362854 97.393003 360.99169 97.393003 
C 395.620526 97.393003 414.610532 143.573368 414.610532 186.455135 
C 414.610532 234.284799 395.620526 273.867968 360.99169 273.867968 
" style="fill:none;stroke:#0000ff;stroke-linejoin:miter;stroke-width:0.5;"/>
   </g>
   <g id="[&quot;g_s&quot;:1,&quot;g_t&quot;:1,&quot;coords&quot;:[[345.0, 12.0],[346.5, -9.5]],&quot;certainty&quot;:10]">
    <path clip-path="url(#p8b2c614594)" d="M 359.316101 247.479189 
C 360.945463 247.479189 362.508309 246.523396 363.660442 244.822312 
C 364.812575 243.121229 365.459927 240.813741 365.459927 238.408045 
C 365.459927 236.00235 364.812575 233.694862 363.660442 231.993779 
C 362.508309 230.292695 360.945463 229.336902 359.316101 229.336902 
C 357.68674 229.336902 356.123893 230.292695 354.97176 231.993779 
C 353.819628 233.694862 353.172275 236.00235 353.172275 238.408045 
C 353.172275 240.813741 353.819628 243.121229 354.97176 244.822312 
C 356.123893 246.523396 357.68674 247.479189 359.316101 247.479189 
z
" style="fill:#0000ff;opacity:0.2;stroke:#0000ff;stroke-linejoin:miter;stroke-width:2;"/>
   </g>
   <g id="[&quot;g_s&quot;:1,&quot;g_t&quot;:1,&quot;coords&quot;:[[346.5, -9.5],[345.0, 12.0]],&quot;certainty&quot;:10]">
    <path clip-path="url(#p8b2c614594)" d="M 360.99169 282.939111 
C 362.621052 282.939111 364.183898 281.983319 365.336031 280.282235 
C 366.488163 278.581152 367.135516 276.273664 367.135516 273.867968 
C 367.135516 271.462273 366.488163 269.154785 365.336031 267.453702 
C 364.183898 265.752618 362.621052 264.796825 360.99169 264.796825 
C 359.362328 264.796825 357.799482 265.752618 356.647349 267.453702 
C 355.495217 269.154785 354.847864 271.462273 354.847864 273.867968 
C 354.847864 276.273664 355.495217 278.581152 356.647349 280.282235 
C 357.799482 281.983319 359.362328 282.939111 360.99169 282.939111 
z
" style="fill:#ff0000;opacity:0.2;stroke:#ff0000;stroke-linejoin:miter;stroke-width:2;"/>
   </g>
   <g id="patch_46">
    <path d="M 359.316101 238.408045 
Q 360.106749 255.140264 360.805614 269.930106 
" style="fill:none;opacity:0.5;stroke:#0000ff;stroke-linecap:round;stroke-width:2.75;"/>
    <path d="M 362.233142 268.360977 
L 360.805614 269.930106 
L 359.236485 268.502578 
" style="fill:none;opacity:0.5;stroke:#0000ff;stroke-linecap:round;stroke-width:2.75;"/>
   </g>
   <g id="[&quot;g_s&quot;:2,&quot;g_t&quot;:2,&quot;coords&quot;:[[284.0, 70.0],[294.5, 41.5]],&quot;certainty&quot;:12]">
    <path clip-path="url(#p8b2c614594)" d="M 291.175489 153.46916 
C 293.101098 153.46916 294.948099 152.339587 296.30971 150.329216 
C 297.671321 148.318844 298.436374 145.591813 298.436374 142.748719 
C 298.436374 139.905624 297.671321 137.178593 296.30971 135.168221 
C 294.948099 133.15785 293.101098 132.028277 291.175489 132.028277 
C 289.24988 132.028277 287.402879 133.15785 286.041268 135.168221 
C 284.679657 137.178593 283.914604 139.905624 283.914604 142.748719 
C 283.914604 145.591813 284.679657 148.318844 286.041268 150.329216 
C 287.402879 152.339587 289.24988 153.46916 291.175489 153.46916 
z
" style="fill:#0000ff;opacity:0.2;stroke:#0000ff;stroke-linejoin:miter;stroke-width:2;"/>
   </g>
   <g id="[&quot;g_s&quot;:2,&quot;g_t&quot;:2,&quot;coords&quot;:[[294.5, 41.5],[284.0, 70.0]],&quot;certainty&quot;:12]">
    <path clip-path="url(#p8b2c614594)" d="M 302.904611 200.474174 
C 304.83022 200.474174 306.67722 199.344601 308.038832 197.33423 
C 309.400443 195.323858 310.165496 192.596827 310.165496 189.753733 
C 310.165496 186.910638 309.400443 184.183607 308.038832 182.173236 
C 306.67722 180.162864 304.83022 179.033291 302.904611 179.033291 
C 300.979001 179.033291 299.132001 180.162864 297.77039 182.173236 
C 296.408778 184.183607 295.643726 186.910638 295.643726 189.753733 
C 295.643726 192.596827 296.408778 195.323858 297.77039 197.33423 
C 299.132001 199.344601 300.979001 200.474174 302.904611 200.474174 
z
" style="fill:#ff0000;opacity:0.2;stroke:#ff0000;stroke-linejoin:miter;stroke-width:2;"/>
   </g>
   <g id="patch_47">
    <path d="M 291.175489 142.748719 
Q 296.797721 165.280083 301.863572 185.581719 
" style="fill:none;opacity:0.5;stroke:#0000ff;stroke-linecap:round;stroke-width:3.25;"/>
    <path d="M 302.955788 183.763186 
L 301.863572 185.581719 
L 300.045038 184.489503 
" style="fill:none;opacity:0.5;stroke:#0000ff;stroke-linecap:round;stroke-width:3.25;"/>
   </g>
   <g id="[&quot;g_s&quot;:3,&quot;g_t&quot;:3,&quot;coords&quot;:[[345.0, 134.0],[346.5, 97.5]],&quot;certainty&quot;:11]">
    <path clip-path="url(#p8b2c614594)" d="M 359.316101 47.089392 
C 361.093587 47.089392 362.79851 46.046709 364.055382 44.190981 
C 365.312254 42.335254 366.018456 39.817994 366.018456 37.193599 
C 366.018456 34.569204 365.312254 32.051945 364.055382 30.196217 
C 362.79851 28.34049 361.093587 27.297807 359.316101 27.297807 
C 357.538616 27.297807 355.833692 28.34049 354.57682 30.196217 
C 353.319948 32.051945 352.613746 34.569204 352.613746 37.193599 
C 352.613746 39.817994 353.319948 42.335254 354.57682 44.190981 
C 355.833692 46.046709 357.538616 47.089392 359.316101 47.089392 
z
" style="fill:#0000ff;opacity:0.2;stroke:#0000ff;stroke-linejoin:miter;stroke-width:2;"/>
   </g>
   <g id="[&quot;g_s&quot;:3,&quot;g_t&quot;:3,&quot;coords&quot;:[[346.5, 97.5],[345.0, 134.0]],&quot;certainty&quot;:11]">
    <path clip-path="url(#p8b2c614594)" d="M 360.99169 107.288796 
C 362.769175 107.288796 364.474099 106.246113 365.730971 104.390385 
C 366.987843 102.534658 367.694045 100.017398 367.694045 97.393003 
C 367.694045 94.768608 366.987843 92.251349 365.730971 90.395621 
C 364.474099 88.539894 362.769175 87.497211 360.99169 87.497211 
C 359.214205 87.497211 357.509281 88.539894 356.252409 90.395621 
C 354.995537 92.251349 354.289335 94.768608 354.289335 97.393003 
C 354.289335 100.017398 354.995537 102.534658 356.252409 104.390385 
C 357.509281 106.246113 359.214205 107.288796 360.99169 107.288796 
z
" style="fill:#ff0000;opacity:0.2;stroke:#ff0000;stroke-linejoin:miter;stroke-width:2;"/>
   </g>
   <g id="patch_48">
    <path d="M 359.316101 37.193599 
Q 360.126027 66.29206 360.876931 93.270022 
" style="fill:none;opacity:0.5;stroke:#0000ff;stroke-linecap:round;stroke-width:3;"/>
    <path d="M 362.334616 91.728867 
L 360.876931 93.270022 
L 359.335777 91.812337 
" style="fill:none;opacity:0.5;stroke:#0000ff;stroke-linecap:round;stroke-width:3;"/>
   </g>
   <g id="[&quot;g_s&quot;:4,&quot;g_t&quot;:4,&quot;coords&quot;:[[405.0, 75.0],[394.5, 43.5]],&quot;certainty&quot;:11]">
    <path clip-path="url(#p8b2c614594)" d="M 426.339654 144.398017 
C 428.11714 144.398017 429.822063 143.355334 431.078935 141.499607 
C 432.335807 139.643879 433.04201 137.12662 433.04201 134.502225 
C 433.04201 131.87783 432.335807 129.36057 431.078935 127.504843 
C 429.822063 125.649116 428.11714 124.606432 426.339654 124.606432 
C 424.562169 124.606432 422.857245 125.649116 421.600373 127.504843 
C 420.343501 129.36057 419.637299 131.87783 419.637299 134.502225 
C 419.637299 137.12662 420.343501 139.643879 421.600373 141.499607 
C 422.857245 143.355334 424.562169 144.398017 426.339654 144.398017 
z
" style="fill:#0000ff;opacity:0.2;stroke:#0000ff;stroke-linejoin:miter;stroke-width:2;"/>
   </g>
   <g id="[&quot;g_s&quot;:4,&quot;g_t&quot;:4,&quot;coords&quot;:[[394.5, 43.5],[405.0, 75.0]],&quot;certainty&quot;:11]">
    <path clip-path="url(#p8b2c614594)" d="M 414.610532 196.350928 
C 416.388018 196.350928 418.092941 195.308245 419.349813 193.452517 
C 420.606685 191.59679 421.312888 189.07953 421.312888 186.455135 
C 421.312888 183.83074 420.606685 181.313481 419.349813 179.457753 
C 418.092941 177.602026 416.388018 176.559343 414.610532 176.559343 
C 412.833047 176.559343 411.128124 177.602026 409.871252 179.457753 
C 408.61438 181.313481 407.908177 183.83074 407.908177 186.455135 
C 407.908177 189.07953 408.61438 191.59679 409.871252 193.452517 
C 411.128124 195.308245 412.833047 196.350928 414.610532 196.350928 
z
" style="fill:#ff0000;opacity:0.2;stroke:#ff0000;stroke-linejoin:miter;stroke-width:2;"/>
   </g>
   <g id="patch_49">
    <path d="M 426.339654 134.502225 
Q 420.695229 159.503612 415.517965 182.435757 
" style="fill:none;opacity:0.5;stroke:#0000ff;stroke-linecap:round;stroke-width:3;"/>
    <path d="M 417.311473 181.302915 
L 415.517965 182.435757 
L 414.385124 180.642249 
" style="fill:none;opacity:0.5;stroke:#0000ff;stroke-linecap:round;stroke-width:3;"/>
   </g>
   <g id="[&quot;g_s&quot;:1,&quot;g_t&quot;:1,&quot;coords&quot;:[[346.5, -9.5],[345.0, 12.0]],&quot;certainty&quot;:10]">
    <path clip-path="url(#p8b2c614594)" d="M 360.99169 282.939111 
C 362.621052 282.939111 364.183898 281.983319 365.336031 280.282235 
C 366.488163 278.581152 367.135516 276.273664 367.135516 273.867968 
C 367.135516 271.462273 366.488163 269.154785 365.336031 267.453702 
C 364.183898 265.752618 362.621052 264.796825 360.99169 264.796825 
C 359.362328 264.796825 357.799482 265.752618 356.647349 267.453702 
C 355.495217 269.154785 354.847864 271.462273 354.847864 273.867968 
C 354.847864 276.273664 355.495217 278.581152 356.647349 280.282235 
C 357.799482 281.983319 359.362328 282.939111 360.99169 282.939111 
z
" style="fill:#0000ff;opacity:0.2;stroke:#0000ff;stroke-linejoin:miter;stroke-width:2;"/>
   </g>
   <g id="[&quot;g_s&quot;:1,&quot;g_t&quot;:1,&quot;coords&quot;:[[345.0, 12.0],[346.5, -9.5]],&quot;certainty&quot;:10]">
    <path clip-path="url(#p8b2c614594)" d="M 359.316101 247.479189 
C 360.945463 247.479189 362.508309 246.523396 363.660442 244.822312 
C 364.812575 243.121229 365.459927 240.813741 365.459927 238.408045 
C 365.459927 236.00235 364.812575 233.694862 363.660442 231.993779 
C 362.508309 230.292695 360.945463 229.336902 359.316101 229.336902 
C 357.68674 229.336902 356.123893 230.292695 354.97176 231.993779 
C 353.819628 233.694862 353.172275 236.00235 353.172275 238.408045 
C 353.172275 240.813741 353.819628 243.121229 354.97176 244.822312 
C 356.123893 246.523396 357.68674 247.479189 359.316101 247.479189 
z
" style="fill:#ff0000;opacity:0.2;stroke:#ff0000;stroke-linejoin:miter;stroke-width:2;"/>
   </g>
   <g id="patch_50">
    <path d="M 360.99169 273.867968 
Q 360.201042 257.13575 359.502177 242.345908 
" style="fill:none;opacity:0.5;stroke:#ff0000;stroke-linecap:round;stroke-width:2.75;"/>
    <path d="M 358.07465 243.915037 
L 359.502177 242.345908 
L 361.071306 243.773436 
" style="fill:none;opacity:0.5;stroke:#ff0000;stroke-linecap:round;stroke-width:2.75;"/>
   </g>
   <g id="[&quot;g_s&quot;:2,&quot;g_t&quot;:2,&quot;coords&quot;:[[294.5, 41.5],[284.0, 70.0]],&quot;certainty&quot;:12]">
    <path clip-path="url(#p8b2c614594)" d="M 302.904611 200.474174 
C 304.83022 200.474174 306.67722 199.344601 308.038832 197.33423 
C 309.400443 195.323858 310.165496 192.596827 310.165496 189.753733 
C 310.165496 186.910638 309.400443 184.183607 308.038832 182.173236 
C 306.67722 180.162864 304.83022 179.033291 302.904611 179.033291 
C 300.979001 179.033291 299.132001 180.162864 297.77039 182.173236 
C 296.408778 184.183607 295.643726 186.910638 295.643726 189.753733 
C 295.643726 192.596827 296.408778 195.323858 297.77039 197.33423 
C 299.132001 199.344601 300.979001 200.474174 302.904611 200.474174 
z
" style="fill:#0000ff;opacity:0.2;stroke:#0000ff;stroke-linejoin:miter;stroke-width:2;"/>
   </g>
   <g id="[&quot;g_s&quot;:2,&quot;g_t&quot;:2,&quot;coords&quot;:[[284.0, 70.0],[294.5, 41.5]],&quot;certainty&quot;:12]">
    <path clip-path="url(#p8b2c614594)" d="M 291.175489 153.46916 
C 293.101098 153.46916 294.948099 152.339587 296.30971 150.329216 
C 297.671321 148.318844 298.436374 145.591813 298.436374 142.748719 
C 298.436374 139.905624 297.671321 137.178593 296.30971 135.168221 
C 294.948099 133.15785 293.101098 132.028277 291.175489 132.028277 
C 289.24988 132.028277 287.402879 133.15785 286.041268 135.168221 
C 284.679657 137.178593 283.914604 139.905624 283.914604 142.748719 
C 283.914604 145.591813 284.679657 148.318844 286.041268 150.329216 
C 287.402879 152.339587 289.24988 153.46916 291.175489 153.46916 
z
" style="fill:#ff0000;opacity:0.2;stroke:#ff0000;stroke-linejoin:miter;stroke-width:2;"/>
   </g>
   <g id="patch_51">
    <path d="M 302.904611 189.753733 
Q 297.282378 167.222368 292.216528 146.920732 
" style="fill:none;opacity:0.5;stroke:#ff0000;stroke-linecap:round;stroke-width:3.25;"/>
    <path d="M 291.124311 148.739265 
L 292.216528 146.920732 
L 294.035061 148.012948 
" style="fill:none;opacity:0.5;stroke:#ff0000;stroke-linecap:round;stroke-width:3.25;"/>
   </g>
   <g id="[&quot;g_s&quot;:3,&quot;g_t&quot;:3,&quot;coords&quot;:[[346.5, 97.5],[345.0, 134.0]],&quot;certainty&quot;:11]">
    <path clip-path="url(#p8b2c614594)" d="M 360.99169 107.288796 
C 362.769175 107.288796 364.474099 106.246113 365.730971 104.390385 
C 366.987843 102.534658 367.694045 100.017398 367.694045 97.393003 
C 367.694045 94.768608 366.987843 92.251349 365.730971 90.395621 
C 364.474099 88.539894 362.769175 87.497211 360.99169 87.497211 
C 359.214205 87.497211 357.509281 88.539894 356.252409 90.395621 
C 354.995537 92.251349 354.289335 94.768608 354.289335 97.393003 
C 354.289335 100.017398 354.995537 102.534658 356.252409 104.390385 
C 357.509281 106.246113 359.214205 107.288796 360.99169 107.288796 
z
" style="fill:#0000ff;opacity:0.2;stroke:#0000ff;stroke-linejoin:miter;stroke-width:2;"/>
   </g>
   <g id="[&quot;g_s&quot;:3,&quot;g_t&quot;:3,&quot;coords&quot;:[[345.0, 134.0],[346.5, 97.5]],&quot;certainty&quot;:11]">
    <path clip-path="url(#p8b2c614594)" d="M 359.316101 47.089392 
C 361.093587 47.089392 362.79851 46.046709 364.055382 44.190981 
C 365.312254 42.335254 366.018456 39.817994 366.018456 37.193599 
C 366.018456 34.569204 365.312254 32.051945 364.055382 30.196217 
C 362.79851 28.34049 361.093587 27.297807 359.316101 27.297807 
C 357.538616 27.297807 355.833692 28.34049 354.57682 30.196217 
C 353.319948 32.051945 352.613746 34.569204 352.613746 37.193599 
C 352.613746 39.817994 353.319948 42.335254 354.57682 44.190981 
C 355.833692 46.046709 357.538616 47.089392 359.316101 47.089392 
z
" style="fill:#ff0000;opacity:0.2;stroke:#ff0000;stroke-linejoin:miter;stroke-width:2;"/>
   </g>
   <g id="patch_52">
    <path d="M 360.99169 97.393003 
Q 360.181764 68.294543 359.43086 41.316581 
" style="fill:none;opacity:0.5;stroke:#ff0000;stroke-linecap:round;stroke-width:3;"/>
    <path d="M 357.973176 42.857735 
L 359.43086 41.316581 
L 360.972014 42.774265 
" style="fill:none;opacity:0.5;stroke:#ff0000;stroke-linecap:round;stroke-width:3;"/>
   </g>
   <g id="[&quot;g_s&quot;:4,&quot;g_t&quot;:4,&quot;coords&quot;:[[394.5, 43.5],[405.0, 75.0]],&quot;certainty&quot;:11]">
    <path clip-path="url(#p8b2c614594)" d="M 414.610532 196.350928 
C 416.388018 196.350928 418.092941 195.308245 419.349813 193.452517 
C 420.606685 191.59679 421.312888 189.07953 421.312888 186.455135 
C 421.312888 183.83074 420.606685 181.313481 419.349813 179.457753 
C 418.092941 177.602026 416.388018 176.559343 414.610532 176.559343 
C 412.833047 176.559343 411.128124 177.602026 409.871252 179.457753 
C 408.61438 181.313481 407.908177 183.83074 407.908177 186.455135 
C 407.908177 189.07953 408.61438 191.59679 409.871252 193.452517 
C 411.128124 195.308245 412.833047 196.350928 414.610532 196.350928 
z
" style="fill:#0000ff;opacity:0.2;stroke:#0000ff;stroke-linejoin:miter;stroke-width:2;"/>
   </g>
   <g id="[&quot;g_s&quot;:4,&quot;g_t&quot;:4,&quot;coords&quot;:[[405.0, 75.0],[394.5, 43.5]],&quot;certainty&quot;:11]">
    <path clip-path="url(#p8b2c614594)" d="M 426.339654 144.398017 
C 428.11714 144.398017 429.822063 143.355334 431.078935 141.499607 
C 432.335807 139.643879 433.04201 137.12662 433.04201 134.502225 
C 433.04201 131.87783 432.335807 129.36057 431.078935 127.504843 
C 429.822063 125.649116 428.11714 124.606432 426.339654 124.606432 
C 424.562169 124.606432 422.857245 125.649116 421.600373 127.504843 
C 420.343501 129.36057 419.637299 131.87783 419.637299 134.502225 
C 419.637299 137.12662 420.343501 139.643879 421.600373 141.499607 
C 422.857245 143.355334 424.562169 144.398017 426.339654 144.398017 
z
" style="fill:#ff0000;opacity:0.2;stroke:#ff0000;stroke-linejoin:miter;stroke-width:2;"/>
   </g>
   <g id="patch_53">
    <path d="M 414.610532 186.455135 
Q 420.254958 161.453748 425.432221 138.521603 
" style="fill:none;opacity:0.5;stroke:#ff0000;stroke-linecap:round;stroke-width:3;"/>
    <path d="M 423.638714 139.654445 
L 425.432221 138.521603 
L 426.565063 140.315111 
" style="fill:none;opacity:0.5;stroke:#ff0000;stroke-linecap:round;stroke-width:3;"/>
   </g>
   <g id="patch_54">
    <path clip-path="url(#p8b2c614594)" d="M 360.153896 264.384501 
C 361.635133 264.384501 363.055903 263.515598 364.103296 261.969159 
C 365.15069 260.422719 365.739192 258.325003 365.739192 256.138007 
C 365.739192 253.951011 365.15069 251.853295 364.103296 250.306855 
C 363.055903 248.760416 361.635133 247.891513 360.153896 247.891513 
C 358.672658 247.891513 357.251888 248.760416 356.204495 250.306855 
C 355.157102 251.853295 354.5686 253.951011 354.5686 256.138007 
C 354.5686 258.325003 355.157102 260.422719 356.204495 261.969159 
C 357.251888 263.515598 358.672658 264.384501 360.153896 264.384501 
z
" style="fill:#008000;opacity:0.2;stroke:#008000;stroke-linejoin:miter;stroke-width:2;"/>
   </g>
   <g id="patch_55">
    <path clip-path="url(#p8b2c614594)" d="M 297.04005 174.497719 
C 298.521288 174.497719 299.942057 173.628817 300.98945 172.082377 
C 302.036844 170.535938 302.625346 168.438221 302.625346 166.251226 
C 302.625346 164.06423 302.036844 161.966514 300.98945 160.420074 
C 299.942057 158.873635 298.521288 158.004732 297.04005 158.004732 
C 295.558812 158.004732 294.138042 158.873635 293.090649 160.420074 
C 292.043256 161.966514 291.454754 164.06423 291.454754 166.251226 
C 291.454754 168.438221 292.043256 170.535938 293.090649 172.082377 
C 294.138042 173.628817 295.558812 174.497719 297.04005 174.497719 
z
" style="fill:#008000;opacity:0.2;stroke:#008000;stroke-linejoin:miter;stroke-width:2;"/>
   </g>
   <g id="patch_56">
    <path clip-path="url(#p8b2c614594)" d="M 360.153896 75.539795 
C 361.635133 75.539795 363.055903 74.670892 364.103296 73.124453 
C 365.15069 71.578013 365.739192 69.480297 365.739192 67.293301 
C 365.739192 65.106306 365.15069 63.008589 364.103296 61.46215 
C 363.055903 59.91571 361.635133 59.046808 360.153896 59.046808 
C 358.672658 59.046808 357.251888 59.91571 356.204495 61.46215 
C 355.157102 63.008589 354.5686 65.106306 354.5686 67.293301 
C 354.5686 69.480297 355.157102 71.578013 356.204495 73.124453 
C 357.251888 74.670892 358.672658 75.539795 360.153896 75.539795 
z
" style="fill:#008000;opacity:0.2;stroke:#008000;stroke-linejoin:miter;stroke-width:2;"/>
   </g>
   <g id="patch_57">
    <path clip-path="url(#p8b2c614594)" d="M 420.475093 168.725174 
C 421.956331 168.725174 423.377101 167.856271 424.424494 166.309832 
C 425.471887 164.763392 426.060389 162.665676 426.060389 160.47868 
C 426.060389 158.291684 425.471887 156.193968 424.424494 154.647528 
C 423.377101 153.101089 421.956331 152.232186 420.475093 152.232186 
C 418.993856 152.232186 417.573086 153.101089 416.525693 154.647528 
C 415.478299 156.193968 414.889797 158.291684 414.889797 160.47868 
C 414.889797 162.665676 415.478299 164.763392 416.525693 166.309832 
C 417.573086 167.856271 418.993856 168.725174 420.475093 168.725174 
z
" style="fill:#008000;opacity:0.2;stroke:#008000;stroke-linejoin:miter;stroke-width:2;"/>
   </g>
   <g id="patch_58">
    <path clip-path="url(#p8b2c614594)" d="M 359.316101 271.39402 
C 365.241053 271.39402 370.924131 267.91841 375.113704 261.732652 
C 379.303277 255.546894 381.657286 247.156028 381.657286 238.408045 
C 381.657286 229.660063 379.303277 221.269197 375.113704 215.083439 
C 370.924131 208.897681 365.241053 205.422071 359.316101 205.422071 
C 353.39115 205.422071 347.708071 208.897681 343.518498 215.083439 
C 339.328925 221.269197 336.974917 229.660063 336.974917 238.408045 
C 336.974917 247.156028 339.328925 255.546894 343.518498 261.732652 
C 347.708071 267.91841 353.39115 271.39402 359.316101 271.39402 
z
" style="fill:none;opacity:0.2;stroke:#ff0000;stroke-linejoin:miter;stroke-width:2;"/>
   </g>
   <g id="patch_59">
    <path clip-path="url(#p8b2c614594)" d="M 360.99169 306.853943 
C 366.916641 306.853943 372.59972 303.378333 376.789293 297.192575 
C 380.978866 291.006817 383.332874 282.615951 383.332874 273.867968 
C 383.332874 265.119986 380.978866 256.72912 376.789293 250.543362 
C 372.59972 244.357604 366.916641 240.881994 360.99169 240.881994 
C 355.066739 240.881994 349.38366 244.357604 345.194087 250.543362 
C 341.004514 256.72912 338.650506 265.119986 338.650506 273.867968 
C 338.650506 282.615951 341.004514 291.006817 345.194087 297.192575 
C 349.38366 303.378333 355.066739 306.853943 360.99169 306.853943 
z
" style="fill:none;opacity:0.2;stroke:#0000ff;stroke-linejoin:miter;stroke-width:2;"/>
   </g>
   <g id="patch_60">
    <path clip-path="url(#p8b2c614594)" d="M 359.316101 254.901033 
C 362.278577 254.901033 365.120116 253.163228 367.214903 250.070349 
C 369.309689 246.97747 370.486693 242.782037 370.486693 238.408045 
C 370.486693 234.034054 369.309689 229.838621 367.214903 226.745742 
C 365.120116 223.652863 362.278577 221.915058 359.316101 221.915058 
C 356.353626 221.915058 353.512086 223.652863 351.4173 226.745742 
C 349.322513 229.838621 348.145509 234.034054 348.145509 238.408045 
C 348.145509 242.782037 349.322513 246.97747 351.4173 250.070349 
C 353.512086 253.163228 356.353626 254.901033 359.316101 254.901033 
z
" style="fill:none;opacity:0.2;stroke:#008000;stroke-linejoin:miter;stroke-width:2;"/>
   </g>
   <g id="patch_61">
    <path clip-path="url(#p8b2c614594)" d="M 360.99169 290.360956 
C 363.954166 290.360956 366.795705 288.623151 368.890491 285.530272 
C 370.985278 282.437393 372.162282 278.24196 372.162282 273.867968 
C 372.162282 269.493977 370.985278 265.298544 368.890491 262.205665 
C 366.795705 259.112786 363.954166 257.374981 360.99169 257.374981 
C 358.029214 257.374981 355.187675 259.112786 353.092889 262.205665 
C 350.998102 265.298544 349.821098 269.493977 349.821098 273.867968 
C 349.821098 278.24196 350.998102 282.437393 353.092889 285.530272 
C 355.187675 288.623151 358.029214 290.360956 360.99169 290.360956 
z
" style="fill:none;opacity:0.2;stroke:#008000;stroke-linejoin:miter;stroke-width:2;"/>
   </g>
   <g id="patch_62">
    <path d="M 360.153896 256.138007 
Q 328.596973 211.194616 297.04005 166.251226 
" style="fill:none;opacity:0.5;stroke:#008000;stroke-linecap:round;stroke-width:2;"/>
   </g>
   <g id="patch_63">
    <path d="M 359.382853 239.820683 
Q 360.106749 255.140264 360.830646 270.459845 
" style="fill:none;opacity:0.5;stroke:#800080;stroke-linecap:round;stroke-width:2;"/>
    <path d="M 357.955325 241.389812 
L 359.382853 239.820683 
L 360.951981 241.24821 
" style="fill:none;opacity:0.5;stroke:#800080;stroke-linecap:round;stroke-width:2;"/>
    <path d="M 362.258173 268.890716 
L 360.830646 270.459845 
L 359.261517 269.032317 
" style="fill:none;opacity:0.5;stroke:#800080;stroke-linecap:round;stroke-width:2;"/>
   </g>
   <g id="patch_64">
    <path d="M 297.04005 166.251226 
Q 328.596973 116.772263 360.153896 67.293301 
" style="fill:none;opacity:0.5;stroke:#008000;stroke-linecap:round;stroke-width:2;"/>
   </g>
   <g id="patch_65">
    <path d="M 291.517878 144.120859 
Q 296.797721 165.280083 302.077565 186.439307 
" style="fill:none;opacity:0.5;stroke:#800080;stroke-linecap:round;stroke-width:2;"/>
    <path d="M 290.425662 145.939392 
L 291.517878 144.120859 
L 293.336411 145.213076 
" style="fill:none;opacity:0.5;stroke:#800080;stroke-linecap:round;stroke-width:2;"/>
    <path d="M 303.169781 184.620774 
L 302.077565 186.439307 
L 300.259032 185.347091 
" style="fill:none;opacity:0.5;stroke:#800080;stroke-linecap:round;stroke-width:2;"/>
   </g>
   <g id="patch_66">
    <path d="M 360.153896 67.293301 
Q 390.314494 113.885991 420.475093 160.47868 
" style="fill:none;opacity:0.5;stroke:#008000;stroke-linecap:round;stroke-width:2;"/>
   </g>
   <g id="patch_67">
    <path d="M 359.355449 38.607265 
Q 360.126027 66.29206 360.896605 93.976855 
" style="fill:none;opacity:0.5;stroke:#800080;stroke-linecap:round;stroke-width:2;"/>
    <path d="M 357.897765 40.148419 
L 359.355449 38.607265 
L 360.896603 40.06495 
" style="fill:none;opacity:0.5;stroke:#800080;stroke-linecap:round;stroke-width:2;"/>
    <path d="M 362.354289 92.4357 
L 360.896605 93.976855 
L 359.355451 92.51917 
" style="fill:none;opacity:0.5;stroke:#800080;stroke-linecap:round;stroke-width:2;"/>
   </g>
   <g id="patch_68">
    <path d="M 420.475093 160.47868 
Q 390.314494 208.308343 360.153896 256.138007 
" style="fill:none;opacity:0.5;stroke:#008000;stroke-linecap:round;stroke-width:2;"/>
   </g>
   <g id="patch_69">
    <path d="M 426.028213 135.881719 
Q 420.695229 159.503612 415.362245 183.125504 
" style="fill:none;opacity:0.5;stroke:#800080;stroke-linecap:round;stroke-width:2;"/>
    <path d="M 424.234706 137.014561 
L 426.028213 135.881719 
L 427.161055 137.675227 
" style="fill:none;opacity:0.5;stroke:#800080;stroke-linecap:round;stroke-width:2;"/>
    <path d="M 417.155752 181.992662 
L 415.362245 183.125504 
L 414.229403 181.331997 
" style="fill:none;opacity:0.5;stroke:#800080;stroke-linecap:round;stroke-width:2;"/>
   </g>
   <g id="line2d_1">
    <path clip-path="url(#p8b2c614594)" d="M 125.850725 238.408045 
L 57.710112 142.748719 
L 125.850725 37.193599 
L 192.874278 134.502225 
" style="fill:none;stroke:#ff0000;stroke-linecap:square;stroke-width:0.2;"/>
   </g>
   <g id="line2d_2">
    <path clip-path="url(#p8b2c614594)" d="M 124.175136 273.867968 
L 69.439234 189.753733 
L 124.175136 97.393003 
L 181.145156 186.455135 
" style="fill:none;stroke:#0000ff;stroke-linecap:square;stroke-width:0.2;"/>
   </g>
   <g id="line2d_3">
    <path clip-path="url(#p8b2c614594)" d="M 359.316101 238.408045 
L 291.175489 142.748719 
L 359.316101 37.193599 
L 426.339654 134.502225 
" style="fill:none;stroke:#ff0000;stroke-linecap:square;stroke-width:0.2;"/>
   </g>
   <g id="line2d_4">
    <path clip-path="url(#p8b2c614594)" d="M 360.99169 273.867968 
L 302.904611 189.753733 
L 360.99169 97.393003 
L 414.610532 186.455135 
" style="fill:none;stroke:#0000ff;stroke-linecap:square;stroke-width:0.2;"/>
   </g>
  </g>
 </g>
 <defs>
  <clipPath id="p8b2c614594">
   <rect height="307.51175" width="415.937" x="31.543" y="13.32"/>
  </clipPath>
 </defs>
</svg>
