<?xml version="1.0" encoding="utf-8" standalone="no"?>
<!DOCTYPE svg PUBLIC "-//W3C//DTD SVG 1.1//EN"
  "http://www.w3.org/Graphics/SVG/1.1/DTD/svg11.dtd">
<!-- Created with matplotlib (http://matplotlib.org/) -->
<svg height="345.6pt" version="1.1" viewBox="0 0 460.8 345.6" width="460.8pt" xmlns="http://www.w3.org/2000/svg" xmlns:xlink="http://www.w3.org/1999/xlink">
 <defs>
  <style type="text/css">
*{stroke-linecap:butt;stroke-linejoin:round;}
  </style>
 </defs>
 <g id="figure_1">
  <g id="patch_1">
   <path d="M 0 345.6 
L 460.8 345.6 
L 460.8 0 
L 0 0 
z
" style="fill:#ffffff;"/>
  </g>
  <g id="axes_1">
   <g id="patch_2">
    <path clip-path="url(#p2bbe40b296)" d="M 241.636705 250.942716 
C 241.873129 250.942716 242.099901 250.668708 242.267078 250.181041 
C 242.434255 249.693373 242.528188 249.03186 242.528188 248.342194 
C 242.528188 247.652527 242.434255 246.991015 242.267078 246.503347 
C 242.099901 246.015679 241.873129 245.741672 241.636705 245.741672 
C 241.400281 245.741672 241.173509 246.015679 241.006332 246.503347 
C 240.839155 246.991015 240.745223 247.652527 240.745223 248.342194 
C 240.745223 249.03186 240.839155 249.693373 241.006332 250.181041 
C 241.173509 250.668708 241.400281 250.942716 241.636705 250.942716 
z
" style="fill:#ff0000;opacity:0.2;stroke:#ff0000;stroke-linejoin:miter;stroke-width:2;"/>
   </g>
   <g id="patch_3">
    <path clip-path="url(#p2bbe40b296)" d="M 205.531666 145.621567 
C 205.76809 145.621567 205.994863 145.347559 206.16204 144.859892 
C 206.329217 144.372224 206.423149 143.710711 206.423149 143.021045 
C 206.423149 142.331378 206.329217 141.669866 206.16204 141.182198 
C 205.994863 140.69453 205.76809 140.420522 205.531666 140.420522 
C 205.295242 140.420522 205.06847 140.69453 204.901293 141.182198 
C 204.734116 141.669866 204.640184 142.331378 204.640184 143.021045 
C 204.640184 143.710711 204.734116 144.372224 204.901293 144.859892 
C 205.06847 145.347559 205.295242 145.621567 205.531666 145.621567 
z
" style="fill:#ff0000;opacity:0.2;stroke:#ff0000;stroke-linejoin:miter;stroke-width:2;"/>
   </g>
   <g id="patch_4">
    <path clip-path="url(#p2bbe40b296)" d="M 241.636705 37.699896 
C 241.873129 37.699896 242.099901 37.425888 242.267078 36.93822 
C 242.434255 36.450552 242.528188 35.78904 242.528188 35.099373 
C 242.528188 34.409707 242.434255 33.748194 242.267078 33.260527 
C 242.099901 32.772859 241.873129 32.498851 241.636705 32.498851 
C 241.400281 32.498851 241.173509 32.772859 241.006332 33.260527 
C 240.839155 33.748194 240.745223 34.409707 240.745223 35.099373 
C 240.745223 35.78904 240.839155 36.450552 241.006332 36.93822 
C 241.173509 37.425888 241.400281 37.699896 241.636705 37.699896 
z
" style="fill:#ff0000;opacity:0.2;stroke:#ff0000;stroke-linejoin:miter;stroke-width:2;"/>
   </g>
   <g id="patch_5">
    <path clip-path="url(#p2bbe40b296)" d="M 277.741744 145.621567 
C 277.978168 145.621567 278.20494 145.347559 278.372117 144.859892 
C 278.539294 144.372224 278.633226 143.710711 278.633226 143.021045 
C 278.633226 142.331378 278.539294 141.669866 278.372117 141.182198 
C 278.20494 140.69453 277.978168 140.420522 277.741744 140.420522 
C 277.50532 140.420522 277.278547 140.69453 277.111371 141.182198 
C 276.944194 141.669866 276.850261 142.331378 276.850261 143.021045 
C 276.850261 143.710711 276.944194 144.372224 277.111371 144.859892 
C 277.278547 145.347559 277.50532 145.621567 277.741744 145.621567 
z
" style="fill:#ff0000;opacity:0.2;stroke:#ff0000;stroke-linejoin:miter;stroke-width:2;"/>
   </g>
   <g id="patch_6">
    <path clip-path="url(#p2bbe40b296)" d="M 241.636705 283.449243 
C 241.873129 283.449243 242.099901 283.175236 242.267078 282.687568 
C 242.434255 282.1999 242.528188 281.538388 242.528188 280.848721 
C 242.528188 280.159055 242.434255 279.497542 242.267078 279.009874 
C 242.099901 278.522206 241.873129 278.248199 241.636705 278.248199 
C 241.400281 278.248199 241.173509 278.522206 241.006332 279.009874 
C 240.839155 279.497542 240.745223 280.159055 240.745223 280.848721 
C 240.745223 281.538388 240.839155 282.1999 241.006332 282.687568 
C 241.173509 283.175236 241.400281 283.449243 241.636705 283.449243 
z
" style="fill:#0000ff;opacity:0.2;stroke:#0000ff;stroke-linejoin:miter;stroke-width:2;"/>
   </g>
   <g id="patch_7">
    <path clip-path="url(#p2bbe40b296)" d="M 216.675197 211.934883 
C 216.911621 211.934883 217.138393 211.660876 217.30557 211.173208 
C 217.472747 210.68554 217.566679 210.024027 217.566679 209.334361 
C 217.566679 208.644694 217.472747 207.983182 217.30557 207.495514 
C 217.138393 207.007846 216.911621 206.733839 216.675197 206.733839 
C 216.438773 206.733839 216.212 207.007846 216.044824 207.495514 
C 215.877647 207.983182 215.783714 208.644694 215.783714 209.334361 
C 215.783714 210.024027 215.877647 210.68554 216.044824 211.173208 
C 216.212 211.660876 216.438773 211.934883 216.675197 211.934883 
z
" style="fill:#0000ff;opacity:0.2;stroke:#0000ff;stroke-linejoin:miter;stroke-width:2;"/>
   </g>
   <g id="patch_8">
    <path clip-path="url(#p2bbe40b296)" d="M 241.636705 135.219478 
C 241.873129 135.219478 242.099901 134.945471 242.267078 134.457803 
C 242.434255 133.970135 242.528188 133.308622 242.528188 132.618956 
C 242.528188 131.929289 242.434255 131.267777 242.267078 130.780109 
C 242.099901 130.292441 241.873129 130.018434 241.636705 130.018434 
C 241.400281 130.018434 241.173509 130.292441 241.006332 130.780109 
C 240.839155 131.267777 240.745223 131.929289 240.745223 132.618956 
C 240.745223 133.308622 240.839155 133.970135 241.006332 134.457803 
C 241.173509 134.945471 241.400281 135.219478 241.636705 135.219478 
z
" style="fill:#0000ff;opacity:0.2;stroke:#0000ff;stroke-linejoin:miter;stroke-width:2;"/>
   </g>
   <g id="patch_9">
    <path clip-path="url(#p2bbe40b296)" d="M 266.598213 211.934883 
C 266.834637 211.934883 267.06141 211.660876 267.228587 211.173208 
C 267.395764 210.68554 267.489696 210.024027 267.489696 209.334361 
C 267.489696 208.644694 267.395764 207.983182 267.228587 207.495514 
C 267.06141 207.007846 266.834637 206.733839 266.598213 206.733839 
C 266.361789 206.733839 266.135017 207.007846 265.96784 207.495514 
C 265.800663 207.983182 265.706731 208.644694 265.706731 209.334361 
C 265.706731 210.024027 265.800663 210.68554 265.96784 211.173208 
C 266.135017 211.660876 266.361789 211.934883 266.598213 211.934883 
z
" style="fill:#0000ff;opacity:0.2;stroke:#0000ff;stroke-linejoin:miter;stroke-width:2;"/>
   </g>
   <g id="patch_10">
    <path clip-path="url(#p2bbe40b296)" d="M 241.636705 248.342194 
C 223.807056 248.342194 205.531666 206.733839 205.531666 143.021045 
C 205.531666 81.908773 221.57835 35.099373 241.636705 35.099373 
C 263.032284 35.099373 277.741744 87.109817 277.741744 143.021045 
C 277.741744 202.833055 263.032284 248.342194 241.636705 248.342194 
" style="fill:none;stroke:#ff0000;stroke-linejoin:miter;stroke-width:0.5;"/>
   </g>
   <g id="patch_11">
    <path clip-path="url(#p2bbe40b296)" d="M 241.636705 280.848721 
C 228.71021 280.848721 216.675197 253.543238 216.675197 209.334361 
C 216.675197 165.125483 227.372986 132.618956 241.636705 132.618956 
C 256.791907 132.618956 266.598213 167.726006 266.598213 209.334361 
C 266.598213 250.942716 256.791907 280.848721 241.636705 280.848721 
" style="fill:none;stroke:#0000ff;stroke-linejoin:miter;stroke-width:0.5;"/>
   </g>
   <g id="[&quot;g_s&quot;:1,&quot;g_t&quot;:1,&quot;coords&quot;:[[550.0, -714.0],[550.0, -739.0]],&quot;certainty&quot;:10]">
    <path clip-path="url(#p2bbe40b296)" d="M 241.636705 255.49363 
C 242.286871 255.49363 242.910495 254.740109 243.370232 253.399023 
C 243.829968 252.057936 244.088282 250.238777 244.088282 248.342194 
C 244.088282 246.445611 243.829968 244.626451 243.370232 243.285365 
C 242.910495 241.944278 242.286871 241.190758 241.636705 241.190758 
C 240.986539 241.190758 240.362915 241.944278 239.903179 243.285365 
C 239.443442 244.626451 239.185128 246.445611 239.185128 248.342194 
C 239.185128 250.238777 239.443442 252.057936 239.903179 253.399023 
C 240.362915 254.740109 240.986539 255.49363 241.636705 255.49363 
z
" style="fill:#0000ff;opacity:0.2;stroke:#0000ff;stroke-linejoin:miter;stroke-width:2;"/>
   </g>
   <g id="[&quot;g_s&quot;:1,&quot;g_t&quot;:1,&quot;coords&quot;:[[550.0, -739.0],[550.0, -714.0]],&quot;certainty&quot;:10]">
    <path clip-path="url(#p2bbe40b296)" d="M 241.636705 288.000157 
C 242.286871 288.000157 242.910495 287.246637 243.370232 285.90555 
C 243.829968 284.564463 244.088282 282.745304 244.088282 280.848721 
C 244.088282 278.952138 243.829968 277.132979 243.370232 275.791892 
C 242.910495 274.450806 242.286871 273.697285 241.636705 273.697285 
C 240.986539 273.697285 240.362915 274.450806 239.903179 275.791892 
C 239.443442 277.132979 239.185128 278.952138 239.185128 280.848721 
C 239.185128 282.745304 239.443442 284.564463 239.903179 285.90555 
C 240.362915 287.246637 240.986539 288.000157 241.636705 288.000157 
z
" style="fill:#ff0000;opacity:0.2;stroke:#ff0000;stroke-linejoin:miter;stroke-width:2;"/>
   </g>
   <g id="patch_12">
    <path d="M 241.636705 248.342194 
Q 241.636705 263.593517 241.636705 276.900296 
" style="fill:none;opacity:0.5;stroke:#0000ff;stroke-linecap:round;stroke-width:2.75;"/>
    <path d="M 243.136705 275.400296 
L 241.636705 276.900296 
L 240.136705 275.400296 
" style="fill:none;opacity:0.5;stroke:#0000ff;stroke-linecap:round;stroke-width:2.75;"/>
   </g>
   <g id="[&quot;g_s&quot;:2,&quot;g_t&quot;:2,&quot;coords&quot;:[[469.0, -633.0],[494.0, -684.0]],&quot;certainty&quot;:12]">
    <path clip-path="url(#p2bbe40b296)" d="M 205.531666 151.472742 
C 206.300044 151.472742 207.037054 150.582218 207.580379 148.997297 
C 208.123705 147.412376 208.428984 145.262461 208.428984 143.021045 
C 208.428984 140.779628 208.123705 138.629713 207.580379 137.044792 
C 207.037054 135.459872 206.300044 134.569348 205.531666 134.569348 
C 204.763289 134.569348 204.026278 135.459872 203.482953 137.044792 
C 202.939628 138.629713 202.634348 140.779628 202.634348 143.021045 
C 202.634348 145.262461 202.939628 147.412376 203.482953 148.997297 
C 204.026278 150.582218 204.763289 151.472742 205.531666 151.472742 
z
" style="fill:#0000ff;opacity:0.2;stroke:#0000ff;stroke-linejoin:miter;stroke-width:2;"/>
   </g>
   <g id="[&quot;g_s&quot;:2,&quot;g_t&quot;:2,&quot;coords&quot;:[[494.0, -684.0],[469.0, -633.0]],&quot;certainty&quot;:12]">
    <path clip-path="url(#p2bbe40b296)" d="M 216.675197 217.786058 
C 217.443574 217.786058 218.180585 216.895534 218.72391 215.310613 
C 219.267235 213.725692 219.572515 211.575777 219.572515 209.334361 
C 219.572515 207.092944 219.267235 204.943029 218.72391 203.358108 
C 218.180585 201.773188 217.443574 200.882664 216.675197 200.882664 
C 215.906819 200.882664 215.169809 201.773188 214.626484 203.358108 
C 214.083159 204.943029 213.777879 207.092944 213.777879 209.334361 
C 213.777879 211.575777 214.083159 213.725692 214.626484 215.310613 
C 215.169809 216.895534 215.906819 217.786058 216.675197 217.786058 
z
" style="fill:#ff0000;opacity:0.2;stroke:#ff0000;stroke-linejoin:miter;stroke-width:2;"/>
   </g>
   <g id="patch_13">
    <path d="M 205.531666 143.021045 
Q 210.937816 175.19215 215.963124 205.096935 
" style="fill:none;opacity:0.5;stroke:#0000ff;stroke-linecap:round;stroke-width:3.25;"/>
    <path d="M 217.193804 203.369095 
L 215.963124 205.096935 
L 214.235285 203.866256 
" style="fill:none;opacity:0.5;stroke:#0000ff;stroke-linecap:round;stroke-width:3.25;"/>
   </g>
   <g id="[&quot;g_s&quot;:3,&quot;g_t&quot;:3,&quot;coords&quot;:[[550.0, -550.0],[550.0, -625.0]],&quot;certainty&quot;:11]">
    <path clip-path="url(#p2bbe40b296)" d="M 241.636705 42.90094 
C 242.345977 42.90094 243.026294 42.078918 243.527825 40.615914 
C 244.029356 39.15291 244.311152 37.168373 244.311152 35.099373 
C 244.311152 33.030374 244.029356 31.045836 243.527825 29.582833 
C 243.026294 28.119829 242.345977 27.297807 241.636705 27.297807 
C 240.927433 27.297807 240.247116 28.119829 239.745585 29.582833 
C 239.244054 31.045836 238.962258 33.030374 238.962258 35.099373 
C 238.962258 37.168373 239.244054 39.15291 239.745585 40.615914 
C 240.247116 42.078918 240.927433 42.90094 241.636705 42.90094 
z
" style="fill:#0000ff;opacity:0.2;stroke:#0000ff;stroke-linejoin:miter;stroke-width:2;"/>
   </g>
   <g id="[&quot;g_s&quot;:3,&quot;g_t&quot;:3,&quot;coords&quot;:[[550.0, -625.0],[550.0, -550.0]],&quot;certainty&quot;:11]">
    <path clip-path="url(#p2bbe40b296)" d="M 241.636705 140.420522 
C 242.345977 140.420522 243.026294 139.5985 243.527825 138.135497 
C 244.029356 136.672493 244.311152 134.687956 244.311152 132.618956 
C 244.311152 130.549956 244.029356 128.565419 243.527825 127.102415 
C 243.026294 125.639412 242.345977 124.817389 241.636705 124.817389 
C 240.927433 124.817389 240.247116 125.639412 239.745585 127.102415 
C 239.244054 128.565419 238.962258 130.549956 238.962258 132.618956 
C 238.962258 134.687956 239.244054 136.672493 239.745585 138.135497 
C 240.247116 139.5985 240.927433 140.420522 241.636705 140.420522 
z
" style="fill:#ff0000;opacity:0.2;stroke:#ff0000;stroke-linejoin:miter;stroke-width:2;"/>
   </g>
   <g id="patch_14">
    <path d="M 241.636705 35.099373 
Q 241.636705 82.85772 241.636705 128.494746 
" style="fill:none;opacity:0.5;stroke:#0000ff;stroke-linecap:round;stroke-width:3;"/>
    <path d="M 243.136705 126.994746 
L 241.636705 128.494746 
L 240.136705 126.994746 
" style="fill:none;opacity:0.5;stroke:#0000ff;stroke-linecap:round;stroke-width:3;"/>
   </g>
   <g id="[&quot;g_s&quot;:4,&quot;g_t&quot;:4,&quot;coords&quot;:[[631.0, -633.0],[606.0, -684.0]],&quot;certainty&quot;:11]">
    <path clip-path="url(#p2bbe40b296)" d="M 277.741744 150.822611 
C 278.451016 150.822611 279.131333 150.000589 279.632864 148.537585 
C 280.134394 147.074582 280.416191 145.090044 280.416191 143.021045 
C 280.416191 140.952045 280.134394 138.967508 279.632864 137.504504 
C 279.131333 136.0415 278.451016 135.219478 277.741744 135.219478 
C 277.032472 135.219478 276.352155 136.0415 275.850624 137.504504 
C 275.349093 138.967508 275.067296 140.952045 275.067296 143.021045 
C 275.067296 145.090044 275.349093 147.074582 275.850624 148.537585 
C 276.352155 150.000589 277.032472 150.822611 277.741744 150.822611 
z
" style="fill:#0000ff;opacity:0.2;stroke:#0000ff;stroke-linejoin:miter;stroke-width:2;"/>
   </g>
   <g id="[&quot;g_s&quot;:4,&quot;g_t&quot;:4,&quot;coords&quot;:[[606.0, -684.0],[631.0, -633.0]],&quot;certainty&quot;:11]">
    <path clip-path="url(#p2bbe40b296)" d="M 266.598213 217.135927 
C 267.307485 217.135927 267.987802 216.313905 268.489333 214.850901 
C 268.990864 213.387898 269.272661 211.40336 269.272661 209.334361 
C 269.272661 207.265361 268.990864 205.280824 268.489333 203.81782 
C 267.987802 202.354816 267.307485 201.532794 266.598213 201.532794 
C 265.888942 201.532794 265.208624 202.354816 264.707093 203.81782 
C 264.205563 205.280824 263.923766 207.265361 263.923766 209.334361 
C 263.923766 211.40336 264.205563 213.387898 264.707093 214.850901 
C 265.208624 216.313905 265.888942 217.135927 266.598213 217.135927 
z
" style="fill:#ff0000;opacity:0.2;stroke:#ff0000;stroke-linejoin:miter;stroke-width:2;"/>
   </g>
   <g id="patch_15">
    <path d="M 277.741744 143.021045 
Q 272.335594 175.19215 267.28099 205.271267 
" style="fill:none;opacity:0.5;stroke:#0000ff;stroke-linecap:round;stroke-width:3;"/>
    <path d="M 269.00883 204.040588 
L 267.28099 205.271267 
L 266.050311 203.543428 
" style="fill:none;opacity:0.5;stroke:#0000ff;stroke-linecap:round;stroke-width:3;"/>
   </g>
   <g id="[&quot;g_s&quot;:1,&quot;g_t&quot;:2,&quot;coords&quot;:[[550.0, -739.0],[469.0, -633.0]],&quot;certainty&quot;:10]">
    <path clip-path="url(#p2bbe40b296)" d="M 241.636705 288.000157 
C 242.286871 288.000157 242.910495 287.246637 243.370232 285.90555 
C 243.829968 284.564463 244.088282 282.745304 244.088282 280.848721 
C 244.088282 278.952138 243.829968 277.132979 243.370232 275.791892 
C 242.910495 274.450806 242.286871 273.697285 241.636705 273.697285 
C 240.986539 273.697285 240.362915 274.450806 239.903179 275.791892 
C 239.443442 277.132979 239.185128 278.952138 239.185128 280.848721 
C 239.185128 282.745304 239.443442 284.564463 239.903179 285.90555 
C 240.362915 287.246637 240.986539 288.000157 241.636705 288.000157 
z
" style="fill:#0000ff;opacity:0.2;stroke:#0000ff;stroke-linejoin:miter;stroke-width:2;"/>
   </g>
   <g id="[&quot;g_s&quot;:2,&quot;g_t&quot;:1,&quot;coords&quot;:[[469.0, -633.0],[550.0, -739.0]],&quot;certainty&quot;:10]">
    <path clip-path="url(#p2bbe40b296)" d="M 205.531666 150.172481 
C 206.181832 150.172481 206.805456 149.41896 207.265193 148.077874 
C 207.724929 146.736787 207.983243 144.917628 207.983243 143.021045 
C 207.983243 141.124462 207.724929 139.305302 207.265193 137.964216 
C 206.805456 136.623129 206.181832 135.869609 205.531666 135.869609 
C 204.881501 135.869609 204.257876 136.623129 203.79814 137.964216 
C 203.338403 139.305302 203.08009 141.124462 203.08009 143.021045 
C 203.08009 144.917628 203.338403 146.736787 203.79814 148.077874 
C 204.257876 149.41896 204.881501 150.172481 205.531666 150.172481 
z
" style="fill:#ff0000;opacity:0.2;stroke:#ff0000;stroke-linejoin:miter;stroke-width:2;"/>
   </g>
   <g id="patch_16">
    <path d="M 241.636705 280.848721 
Q 223.837058 212.900198 206.530172 146.832748 
" style="fill:none;opacity:0.5;stroke:#ff0000;stroke-linecap:round;stroke-width:2.75;"/>
    <path d="M 205.459244 148.663899 
L 206.530172 146.832748 
L 208.361323 147.903677 
" style="fill:none;opacity:0.5;stroke:#ff0000;stroke-linecap:round;stroke-width:2.75;"/>
   </g>
   <g id="[&quot;g_s&quot;:2,&quot;g_t&quot;:2,&quot;coords&quot;:[[494.0, -684.0],[469.0, -633.0]],&quot;certainty&quot;:12]">
    <path clip-path="url(#p2bbe40b296)" d="M 216.675197 217.786058 
C 217.443574 217.786058 218.180585 216.895534 218.72391 215.310613 
C 219.267235 213.725692 219.572515 211.575777 219.572515 209.334361 
C 219.572515 207.092944 219.267235 204.943029 218.72391 203.358108 
C 218.180585 201.773188 217.443574 200.882664 216.675197 200.882664 
C 215.906819 200.882664 215.169809 201.773188 214.626484 203.358108 
C 214.083159 204.943029 213.777879 207.092944 213.777879 209.334361 
C 213.777879 211.575777 214.083159 213.725692 214.626484 215.310613 
C 215.169809 216.895534 215.906819 217.786058 216.675197 217.786058 
z
" style="fill:#0000ff;opacity:0.2;stroke:#0000ff;stroke-linejoin:miter;stroke-width:2;"/>
   </g>
   <g id="[&quot;g_s&quot;:2,&quot;g_t&quot;:2,&quot;coords&quot;:[[469.0, -633.0],[494.0, -684.0]],&quot;certainty&quot;:12]">
    <path clip-path="url(#p2bbe40b296)" d="M 205.531666 151.472742 
C 206.300044 151.472742 207.037054 150.582218 207.580379 148.997297 
C 208.123705 147.412376 208.428984 145.262461 208.428984 143.021045 
C 208.428984 140.779628 208.123705 138.629713 207.580379 137.044792 
C 207.037054 135.459872 206.300044 134.569348 205.531666 134.569348 
C 204.763289 134.569348 204.026278 135.459872 203.482953 137.044792 
C 202.939628 138.629713 202.634348 140.779628 202.634348 143.021045 
C 202.634348 145.262461 202.939628 147.412376 203.482953 148.997297 
C 204.026278 150.582218 204.763289 151.472742 205.531666 151.472742 
z
" style="fill:#ff0000;opacity:0.2;stroke:#ff0000;stroke-linejoin:miter;stroke-width:2;"/>
   </g>
   <g id="patch_17">
    <path d="M 216.675197 209.334361 
Q 211.269047 177.163255 206.243739 147.258471 
" style="fill:none;opacity:0.5;stroke:#ff0000;stroke-linecap:round;stroke-width:3.25;"/>
    <path d="M 205.01306 148.98631 
L 206.243739 147.258471 
L 207.971578 148.48915 
" style="fill:none;opacity:0.5;stroke:#ff0000;stroke-linecap:round;stroke-width:3.25;"/>
   </g>
   <g id="[&quot;g_s&quot;:3,&quot;g_t&quot;:3,&quot;coords&quot;:[[550.0, -625.0],[550.0, -550.0]],&quot;certainty&quot;:11]">
    <path clip-path="url(#p2bbe40b296)" d="M 241.636705 140.420522 
C 242.345977 140.420522 243.026294 139.5985 243.527825 138.135497 
C 244.029356 136.672493 244.311152 134.687956 244.311152 132.618956 
C 244.311152 130.549956 244.029356 128.565419 243.527825 127.102415 
C 243.026294 125.639412 242.345977 124.817389 241.636705 124.817389 
C 240.927433 124.817389 240.247116 125.639412 239.745585 127.102415 
C 239.244054 128.565419 238.962258 130.549956 238.962258 132.618956 
C 238.962258 134.687956 239.244054 136.672493 239.745585 138.135497 
C 240.247116 139.5985 240.927433 140.420522 241.636705 140.420522 
z
" style="fill:#0000ff;opacity:0.2;stroke:#0000ff;stroke-linejoin:miter;stroke-width:2;"/>
   </g>
   <g id="[&quot;g_s&quot;:3,&quot;g_t&quot;:3,&quot;coords&quot;:[[550.0, -550.0],[550.0, -625.0]],&quot;certainty&quot;:11]">
    <path clip-path="url(#p2bbe40b296)" d="M 241.636705 42.90094 
C 242.345977 42.90094 243.026294 42.078918 243.527825 40.615914 
C 244.029356 39.15291 244.311152 37.168373 244.311152 35.099373 
C 244.311152 33.030374 244.029356 31.045836 243.527825 29.582833 
C 243.026294 28.119829 242.345977 27.297807 241.636705 27.297807 
C 240.927433 27.297807 240.247116 28.119829 239.745585 29.582833 
C 239.244054 31.045836 238.962258 33.030374 238.962258 35.099373 
C 238.962258 37.168373 239.244054 39.15291 239.745585 40.615914 
C 240.247116 42.078918 240.927433 42.90094 241.636705 42.90094 
z
" style="fill:#ff0000;opacity:0.2;stroke:#ff0000;stroke-linejoin:miter;stroke-width:2;"/>
   </g>
   <g id="patch_18">
    <path d="M 241.636705 132.618956 
Q 241.636705 84.860609 241.636705 39.223583 
" style="fill:none;opacity:0.5;stroke:#ff0000;stroke-linecap:round;stroke-width:3;"/>
    <path d="M 240.136705 40.723583 
L 241.636705 39.223583 
L 243.136705 40.723583 
" style="fill:none;opacity:0.5;stroke:#ff0000;stroke-linecap:round;stroke-width:3;"/>
   </g>
   <g id="[&quot;g_s&quot;:4,&quot;g_t&quot;:4,&quot;coords&quot;:[[606.0, -684.0],[631.0, -633.0]],&quot;certainty&quot;:11]">
    <path clip-path="url(#p2bbe40b296)" d="M 266.598213 217.135927 
C 267.307485 217.135927 267.987802 216.313905 268.489333 214.850901 
C 268.990864 213.387898 269.272661 211.40336 269.272661 209.334361 
C 269.272661 207.265361 268.990864 205.280824 268.489333 203.81782 
C 267.987802 202.354816 267.307485 201.532794 266.598213 201.532794 
C 265.888942 201.532794 265.208624 202.354816 264.707093 203.81782 
C 264.205563 205.280824 263.923766 207.265361 263.923766 209.334361 
C 263.923766 211.40336 264.205563 213.387898 264.707093 214.850901 
C 265.208624 216.313905 265.888942 217.135927 266.598213 217.135927 
z
" style="fill:#0000ff;opacity:0.2;stroke:#0000ff;stroke-linejoin:miter;stroke-width:2;"/>
   </g>
   <g id="[&quot;g_s&quot;:4,&quot;g_t&quot;:4,&quot;coords&quot;:[[631.0, -633.0],[606.0, -684.0]],&quot;certainty&quot;:11]">
    <path clip-path="url(#p2bbe40b296)" d="M 277.741744 150.822611 
C 278.451016 150.822611 279.131333 150.000589 279.632864 148.537585 
C 280.134394 147.074582 280.416191 145.090044 280.416191 143.021045 
C 280.416191 140.952045 280.134394 138.967508 279.632864 137.504504 
C 279.131333 136.0415 278.451016 135.219478 277.741744 135.219478 
C 277.032472 135.219478 276.352155 136.0415 275.850624 137.504504 
C 275.349093 138.967508 275.067296 140.952045 275.067296 143.021045 
C 275.067296 145.090044 275.349093 147.074582 275.850624 148.537585 
C 276.352155 150.000589 277.032472 150.822611 277.741744 150.822611 
z
" style="fill:#ff0000;opacity:0.2;stroke:#ff0000;stroke-linejoin:miter;stroke-width:2;"/>
   </g>
   <g id="patch_19">
    <path d="M 266.598213 209.334361 
Q 272.004363 177.163255 277.058967 147.084138 
" style="fill:none;opacity:0.5;stroke:#ff0000;stroke-linecap:round;stroke-width:3;"/>
    <path d="M 275.331127 148.314817 
L 277.058967 147.084138 
L 278.289646 148.811978 
" style="fill:none;opacity:0.5;stroke:#ff0000;stroke-linecap:round;stroke-width:3;"/>
   </g>
   <g id="patch_20">
    <path clip-path="url(#p2bbe40b296)" d="M 211.103432 182.679008 
C 211.694491 182.679008 212.261422 181.99399 212.679365 180.77482 
C 213.097307 179.55565 213.332138 177.901869 213.332138 176.177703 
C 213.332138 174.453536 213.097307 172.799755 212.679365 171.580585 
C 212.261422 170.361416 211.694491 169.676397 211.103432 169.676397 
C 210.512372 169.676397 209.945441 170.361416 209.527498 171.580585 
C 209.109556 172.799755 208.874725 174.453536 208.874725 176.177703 
C 208.874725 177.901869 209.109556 179.55565 209.527498 180.77482 
C 209.945441 181.99399 210.512372 182.679008 211.103432 182.679008 
z
" style="fill:#008000;opacity:0.2;stroke:#008000;stroke-linejoin:miter;stroke-width:2;"/>
   </g>
   <g id="patch_21">
    <path clip-path="url(#p2bbe40b296)" d="M 241.636705 90.36047 
C 242.227765 90.36047 242.794696 89.675452 243.212638 88.456282 
C 243.630581 87.237112 243.865411 85.583331 243.865411 83.859165 
C 243.865411 82.134998 243.630581 80.481217 243.212638 79.262047 
C 242.794696 78.042878 242.227765 77.357859 241.636705 77.357859 
C 241.045645 77.357859 240.478714 78.042878 240.060772 79.262047 
C 239.64283 80.481217 239.407999 82.134998 239.407999 83.859165 
C 239.407999 85.583331 239.64283 87.237112 240.060772 88.456282 
C 240.478714 89.675452 241.045645 90.36047 241.636705 90.36047 
z
" style="fill:#008000;opacity:0.2;stroke:#008000;stroke-linejoin:miter;stroke-width:2;"/>
   </g>
   <g id="patch_22">
    <path clip-path="url(#p2bbe40b296)" d="M 272.169979 182.679008 
C 272.761038 182.679008 273.327969 181.99399 273.745912 180.77482 
C 274.163854 179.55565 274.398685 177.901869 274.398685 176.177703 
C 274.398685 174.453536 274.163854 172.799755 273.745912 171.580585 
C 273.327969 170.361416 272.761038 169.676397 272.169979 169.676397 
C 271.578919 169.676397 271.011988 170.361416 270.594045 171.580585 
C 270.176103 172.799755 269.941272 174.453536 269.941272 176.177703 
C 269.941272 177.901869 270.176103 179.55565 270.594045 180.77482 
C 271.011988 181.99399 271.578919 182.679008 272.169979 182.679008 
z
" style="fill:#008000;opacity:0.2;stroke:#008000;stroke-linejoin:miter;stroke-width:2;"/>
   </g>
   <g id="patch_23">
    <path clip-path="url(#p2bbe40b296)" d="M 241.636705 274.347416 
C 244.000944 274.347416 246.268668 271.607341 247.940438 266.730663 
C 249.612207 261.853984 250.551529 255.238859 250.551529 248.342194 
C 250.551529 241.445528 249.612207 234.830404 247.940438 229.953725 
C 246.268668 225.077046 244.000944 222.336972 241.636705 222.336972 
C 239.272466 222.336972 237.004742 225.077046 235.332972 229.953725 
C 233.661203 234.830404 232.721881 241.445528 232.721881 248.342194 
C 232.721881 255.238859 233.661203 261.853984 235.332972 266.730663 
C 237.004742 271.607341 239.272466 274.347416 241.636705 274.347416 
z
" style="fill:none;opacity:0.2;stroke:#ff0000;stroke-linejoin:miter;stroke-width:2;"/>
   </g>
   <g id="patch_24">
    <path clip-path="url(#p2bbe40b296)" d="M 241.636705 306.853943 
C 244.000944 306.853943 246.268668 304.113869 247.940438 299.23719 
C 249.612207 294.360511 250.551529 287.745387 250.551529 280.848721 
C 250.551529 273.952056 249.612207 267.336931 247.940438 262.460252 
C 246.268668 257.583573 244.000944 254.843499 241.636705 254.843499 
C 239.272466 254.843499 237.004742 257.583573 235.332972 262.460252 
C 233.661203 267.336931 232.721881 273.952056 232.721881 280.848721 
C 232.721881 287.745387 233.661203 294.360511 235.332972 299.23719 
C 237.004742 304.113869 239.272466 306.853943 241.636705 306.853943 
z
" style="fill:none;opacity:0.2;stroke:#0000ff;stroke-linejoin:miter;stroke-width:2;"/>
   </g>
   <g id="patch_25">
    <path clip-path="url(#p2bbe40b296)" d="M 205.531666 156.023656 
C 206.713786 156.023656 207.847648 154.653619 208.683533 152.215279 
C 209.519417 149.77694 209.989079 146.469377 209.989079 143.021045 
C 209.989079 139.572712 209.519417 136.26515 208.683533 133.82681 
C 207.847648 131.388471 206.713786 130.018434 205.531666 130.018434 
C 204.349547 130.018434 203.215685 131.388471 202.3798 133.82681 
C 201.543915 136.26515 201.074254 139.572712 201.074254 143.021045 
C 201.074254 146.469377 201.543915 149.77694 202.3798 152.215279 
C 203.215685 154.653619 204.349547 156.023656 205.531666 156.023656 
z
" style="fill:none;opacity:0.2;stroke:#008000;stroke-linejoin:miter;stroke-width:2;"/>
   </g>
   <g id="patch_26">
    <path clip-path="url(#p2bbe40b296)" d="M 216.675197 222.336972 
C 217.857316 222.336972 218.991178 220.966935 219.827063 218.528595 
C 220.662948 216.090256 221.132609 212.782693 221.132609 209.334361 
C 221.132609 205.886028 220.662948 202.578466 219.827063 200.140126 
C 218.991178 197.701787 217.857316 196.33175 216.675197 196.33175 
C 215.493077 196.33175 214.359215 197.701787 213.52333 200.140126 
C 212.687446 202.578466 212.217785 205.886028 212.217785 209.334361 
C 212.217785 212.782693 212.687446 216.090256 213.52333 218.528595 
C 214.359215 220.966935 215.493077 222.336972 216.675197 222.336972 
z
" style="fill:none;opacity:0.2;stroke:#008000;stroke-linejoin:miter;stroke-width:2;"/>
   </g>
   <g id="patch_27">
    <path d="M 211.103432 176.177703 
Q 226.370068 130.018434 241.636705 83.859165 
" style="fill:none;opacity:0.5;stroke:#008000;stroke-linecap:round;stroke-width:2;"/>
   </g>
   <g id="patch_28">
    <path d="M 205.76603 144.415704 
Q 210.937816 175.19215 216.109602 205.968597 
" style="fill:none;opacity:0.5;stroke:#800080;stroke-linecap:round;stroke-width:2;"/>
    <path d="M 204.535351 146.143543 
L 205.76603 144.415704 
L 207.493869 145.646383 
" style="fill:none;opacity:0.5;stroke:#800080;stroke-linecap:round;stroke-width:2;"/>
    <path d="M 217.340281 204.240757 
L 216.109602 205.968597 
L 214.381762 204.737918 
" style="fill:none;opacity:0.5;stroke:#800080;stroke-linecap:round;stroke-width:2;"/>
   </g>
   <g id="patch_29">
    <path d="M 241.636705 83.859165 
Q 256.903342 130.018434 272.169979 176.177703 
" style="fill:none;opacity:0.5;stroke:#008000;stroke-linecap:round;stroke-width:2;"/>
   </g>
   <g id="patch_30">
    <path d="M 241.636705 36.513587 
Q 241.636705 82.85772 241.636705 129.201853 
" style="fill:none;opacity:0.5;stroke:#800080;stroke-linecap:round;stroke-width:2;"/>
    <path d="M 240.136705 38.013587 
L 241.636705 36.513587 
L 243.136705 38.013587 
" style="fill:none;opacity:0.5;stroke:#800080;stroke-linecap:round;stroke-width:2;"/>
    <path d="M 243.136705 127.701853 
L 241.636705 129.201853 
L 240.136705 127.701853 
" style="fill:none;opacity:0.5;stroke:#800080;stroke-linecap:round;stroke-width:2;"/>
   </g>
   <g id="patch_31">
    <path clip-path="url(#p2bbe40b296)" d="M 390.068531 250.942716 
C 390.304955 250.942716 390.531727 250.668708 390.698904 250.181041 
C 390.866081 249.693373 390.960013 249.03186 390.960013 248.342194 
C 390.960013 247.652527 390.866081 246.991015 390.698904 246.503347 
C 390.531727 246.015679 390.304955 245.741672 390.068531 245.741672 
C 389.832107 245.741672 389.605335 246.015679 389.438158 246.503347 
C 389.270981 246.991015 389.177049 247.652527 389.177049 248.342194 
C 389.177049 249.03186 389.270981 249.693373 389.438158 250.181041 
C 389.605335 250.668708 389.832107 250.942716 390.068531 250.942716 
z
" style="fill:#ff0000;opacity:0.2;stroke:#ff0000;stroke-linejoin:miter;stroke-width:2;"/>
   </g>
   <g id="patch_32">
    <path clip-path="url(#p2bbe40b296)" d="M 353.963492 145.621567 
C 354.199916 145.621567 354.426689 145.347559 354.593866 144.859892 
C 354.761042 144.372224 354.854975 143.710711 354.854975 143.021045 
C 354.854975 142.331378 354.761042 141.669866 354.593866 141.182198 
C 354.426689 140.69453 354.199916 140.420522 353.963492 140.420522 
C 353.727068 140.420522 353.500296 140.69453 353.333119 141.182198 
C 353.165942 141.669866 353.07201 142.331378 353.07201 143.021045 
C 353.07201 143.710711 353.165942 144.372224 353.333119 144.859892 
C 353.500296 145.347559 353.727068 145.621567 353.963492 145.621567 
z
" style="fill:#ff0000;opacity:0.2;stroke:#ff0000;stroke-linejoin:miter;stroke-width:2;"/>
   </g>
   <g id="patch_33">
    <path clip-path="url(#p2bbe40b296)" d="M 390.068531 37.699896 
C 390.304955 37.699896 390.531727 37.425888 390.698904 36.93822 
C 390.866081 36.450552 390.960013 35.78904 390.960013 35.099373 
C 390.960013 34.409707 390.866081 33.748194 390.698904 33.260527 
C 390.531727 32.772859 390.304955 32.498851 390.068531 32.498851 
C 389.832107 32.498851 389.605335 32.772859 389.438158 33.260527 
C 389.270981 33.748194 389.177049 34.409707 389.177049 35.099373 
C 389.177049 35.78904 389.270981 36.450552 389.438158 36.93822 
C 389.605335 37.425888 389.832107 37.699896 390.068531 37.699896 
z
" style="fill:#ff0000;opacity:0.2;stroke:#ff0000;stroke-linejoin:miter;stroke-width:2;"/>
   </g>
   <g id="patch_34">
    <path clip-path="url(#p2bbe40b296)" d="M 426.17357 145.621567 
C 426.409994 145.621567 426.636766 145.347559 426.803943 144.859892 
C 426.97112 144.372224 427.065052 143.710711 427.065052 143.021045 
C 427.065052 142.331378 426.97112 141.669866 426.803943 141.182198 
C 426.636766 140.69453 426.409994 140.420522 426.17357 140.420522 
C 425.937146 140.420522 425.710373 140.69453 425.543196 141.182198 
C 425.37602 141.669866 425.282087 142.331378 425.282087 143.021045 
C 425.282087 143.710711 425.37602 144.372224 425.543196 144.859892 
C 425.710373 145.347559 425.937146 145.621567 426.17357 145.621567 
z
" style="fill:#ff0000;opacity:0.2;stroke:#ff0000;stroke-linejoin:miter;stroke-width:2;"/>
   </g>
   <g id="patch_35">
    <path clip-path="url(#p2bbe40b296)" d="M 390.068531 283.449243 
C 390.304955 283.449243 390.531727 283.175236 390.698904 282.687568 
C 390.866081 282.1999 390.960013 281.538388 390.960013 280.848721 
C 390.960013 280.159055 390.866081 279.497542 390.698904 279.009874 
C 390.531727 278.522206 390.304955 278.248199 390.068531 278.248199 
C 389.832107 278.248199 389.605335 278.522206 389.438158 279.009874 
C 389.270981 279.497542 389.177049 280.159055 389.177049 280.848721 
C 389.177049 281.538388 389.270981 282.1999 389.438158 282.687568 
C 389.605335 283.175236 389.832107 283.449243 390.068531 283.449243 
z
" style="fill:#0000ff;opacity:0.2;stroke:#0000ff;stroke-linejoin:miter;stroke-width:2;"/>
   </g>
   <g id="patch_36">
    <path clip-path="url(#p2bbe40b296)" d="M 365.107023 211.934883 
C 365.343447 211.934883 365.570219 211.660876 365.737396 211.173208 
C 365.904573 210.68554 365.998505 210.024027 365.998505 209.334361 
C 365.998505 208.644694 365.904573 207.983182 365.737396 207.495514 
C 365.570219 207.007846 365.343447 206.733839 365.107023 206.733839 
C 364.870599 206.733839 364.643826 207.007846 364.476649 207.495514 
C 364.309473 207.983182 364.21554 208.644694 364.21554 209.334361 
C 364.21554 210.024027 364.309473 210.68554 364.476649 211.173208 
C 364.643826 211.660876 364.870599 211.934883 365.107023 211.934883 
z
" style="fill:#0000ff;opacity:0.2;stroke:#0000ff;stroke-linejoin:miter;stroke-width:2;"/>
   </g>
   <g id="patch_37">
    <path clip-path="url(#p2bbe40b296)" d="M 390.068531 135.219478 
C 390.304955 135.219478 390.531727 134.945471 390.698904 134.457803 
C 390.866081 133.970135 390.960013 133.308622 390.960013 132.618956 
C 390.960013 131.929289 390.866081 131.267777 390.698904 130.780109 
C 390.531727 130.292441 390.304955 130.018434 390.068531 130.018434 
C 389.832107 130.018434 389.605335 130.292441 389.438158 130.780109 
C 389.270981 131.267777 389.177049 131.929289 389.177049 132.618956 
C 389.177049 133.308622 389.270981 133.970135 389.438158 134.457803 
C 389.605335 134.945471 389.832107 135.219478 390.068531 135.219478 
z
" style="fill:#0000ff;opacity:0.2;stroke:#0000ff;stroke-linejoin:miter;stroke-width:2;"/>
   </g>
   <g id="patch_38">
    <path clip-path="url(#p2bbe40b296)" d="M 415.030039 211.934883 
C 415.266463 211.934883 415.493236 211.660876 415.660413 211.173208 
C 415.827589 210.68554 415.921522 210.024027 415.921522 209.334361 
C 415.921522 208.644694 415.827589 207.983182 415.660413 207.495514 
C 415.493236 207.007846 415.266463 206.733839 415.030039 206.733839 
C 414.793615 206.733839 414.566843 207.007846 414.399666 207.495514 
C 414.232489 207.983182 414.138557 208.644694 414.138557 209.334361 
C 414.138557 210.024027 414.232489 210.68554 414.399666 211.173208 
C 414.566843 211.660876 414.793615 211.934883 415.030039 211.934883 
z
" style="fill:#0000ff;opacity:0.2;stroke:#0000ff;stroke-linejoin:miter;stroke-width:2;"/>
   </g>
   <g id="patch_39">
    <path clip-path="url(#p2bbe40b296)" d="M 390.068531 248.342194 
C 372.238882 248.342194 353.963492 206.733839 353.963492 143.021045 
C 353.963492 81.908773 370.010176 35.099373 390.068531 35.099373 
C 411.46411 35.099373 426.17357 87.109817 426.17357 143.021045 
C 426.17357 202.833055 411.46411 248.342194 390.068531 248.342194 
" style="fill:none;stroke:#ff0000;stroke-linejoin:miter;stroke-width:0.5;"/>
   </g>
   <g id="patch_40">
    <path clip-path="url(#p2bbe40b296)" d="M 390.068531 280.848721 
C 377.142036 280.848721 365.107023 253.543238 365.107023 209.334361 
C 365.107023 165.125483 375.804812 132.618956 390.068531 132.618956 
C 405.223732 132.618956 415.030039 167.726006 415.030039 209.334361 
C 415.030039 250.942716 405.223732 280.848721 390.068531 280.848721 
" style="fill:none;stroke:#0000ff;stroke-linejoin:miter;stroke-width:0.5;"/>
   </g>
   <g id="[&quot;g_s&quot;:1,&quot;g_t&quot;:2,&quot;coords&quot;:[[883.0, -714.0],[827.0, -684.0]],&quot;certainty&quot;:10]">
    <path clip-path="url(#p2bbe40b296)" d="M 390.068531 255.49363 
C 390.718697 255.49363 391.342321 254.740109 391.802058 253.399023 
C 392.261794 252.057936 392.520108 250.238777 392.520108 248.342194 
C 392.520108 246.445611 392.261794 244.626451 391.802058 243.285365 
C 391.342321 241.944278 390.718697 241.190758 390.068531 241.190758 
C 389.418365 241.190758 388.794741 241.944278 388.335004 243.285365 
C 387.875268 244.626451 387.616954 246.445611 387.616954 248.342194 
C 387.616954 250.238777 387.875268 252.057936 388.335004 253.399023 
C 388.794741 254.740109 389.418365 255.49363 390.068531 255.49363 
z
" style="fill:#0000ff;opacity:0.2;stroke:#0000ff;stroke-linejoin:miter;stroke-width:2;"/>
   </g>
   <g id="[&quot;g_s&quot;:2,&quot;g_t&quot;:1,&quot;coords&quot;:[[827.0, -684.0],[883.0, -714.0]],&quot;certainty&quot;:10]">
    <path clip-path="url(#p2bbe40b296)" d="M 365.107023 216.485797 
C 365.757188 216.485797 366.380813 215.732276 366.840549 214.39119 
C 367.300286 213.050103 367.558599 211.230944 367.558599 209.334361 
C 367.558599 207.437778 367.300286 205.618619 366.840549 204.277532 
C 366.380813 202.936445 365.757188 202.182925 365.107023 202.182925 
C 364.456857 202.182925 363.833233 202.936445 363.373496 204.277532 
C 362.91376 205.618619 362.655446 207.437778 362.655446 209.334361 
C 362.655446 211.230944 362.91376 213.050103 363.373496 214.39119 
C 363.833233 215.732276 364.456857 216.485797 365.107023 216.485797 
z
" style="fill:#ff0000;opacity:0.2;stroke:#ff0000;stroke-linejoin:miter;stroke-width:2;"/>
   </g>
   <g id="patch_41">
    <path d="M 390.068531 248.342194 
Q 378.126345 229.679907 367.232267 212.655521 
" style="fill:none;opacity:0.5;stroke:#0000ff;stroke-linecap:round;stroke-width:2.75;"/>
    <path d="M 366.777309 214.72748 
L 367.232267 212.655521 
L 369.304226 213.11048 
" style="fill:none;opacity:0.5;stroke:#0000ff;stroke-linecap:round;stroke-width:2.75;"/>
   </g>
   <g id="[&quot;g_s&quot;:2,&quot;g_t&quot;:2,&quot;coords&quot;:[[802.0, -633.0],[827.0, -684.0]],&quot;certainty&quot;:12]">
    <path clip-path="url(#p2bbe40b296)" d="M 353.963492 151.472742 
C 354.73187 151.472742 355.46888 150.582218 356.012205 148.997297 
C 356.55553 147.412376 356.86081 145.262461 356.86081 143.021045 
C 356.86081 140.779628 356.55553 138.629713 356.012205 137.044792 
C 355.46888 135.459872 354.73187 134.569348 353.963492 134.569348 
C 353.195115 134.569348 352.458104 135.459872 351.914779 137.044792 
C 351.371454 138.629713 351.066174 140.779628 351.066174 143.021045 
C 351.066174 145.262461 351.371454 147.412376 351.914779 148.997297 
C 352.458104 150.582218 353.195115 151.472742 353.963492 151.472742 
z
" style="fill:#0000ff;opacity:0.2;stroke:#0000ff;stroke-linejoin:miter;stroke-width:2;"/>
   </g>
   <g id="[&quot;g_s&quot;:2,&quot;g_t&quot;:2,&quot;coords&quot;:[[827.0, -684.0],[802.0, -633.0]],&quot;certainty&quot;:12]">
    <path clip-path="url(#p2bbe40b296)" d="M 365.107023 217.786058 
C 365.8754 217.786058 366.612411 216.895534 367.155736 215.310613 
C 367.699061 213.725692 368.004341 211.575777 368.004341 209.334361 
C 368.004341 207.092944 367.699061 204.943029 367.155736 203.358108 
C 366.612411 201.773188 365.8754 200.882664 365.107023 200.882664 
C 364.338645 200.882664 363.601635 201.773188 363.05831 203.358108 
C 362.514984 204.943029 362.209705 207.092944 362.209705 209.334361 
C 362.209705 211.575777 362.514984 213.725692 363.05831 215.310613 
C 363.601635 216.895534 364.338645 217.786058 365.107023 217.786058 
z
" style="fill:#ff0000;opacity:0.2;stroke:#ff0000;stroke-linejoin:miter;stroke-width:2;"/>
   </g>
   <g id="patch_42">
    <path d="M 353.963492 143.021045 
Q 359.369642 175.19215 364.39495 205.096935 
" style="fill:none;opacity:0.5;stroke:#0000ff;stroke-linecap:round;stroke-width:3.25;"/>
    <path d="M 365.625629 203.369095 
L 364.39495 205.096935 
L 362.667111 203.866256 
" style="fill:none;opacity:0.5;stroke:#0000ff;stroke-linecap:round;stroke-width:3.25;"/>
   </g>
   <g id="[&quot;g_s&quot;:3,&quot;g_t&quot;:3,&quot;coords&quot;:[[883.0, -550.0],[883.0, -625.0]],&quot;certainty&quot;:11]">
    <path clip-path="url(#p2bbe40b296)" d="M 390.068531 42.90094 
C 390.777803 42.90094 391.45812 42.078918 391.959651 40.615914 
C 392.461182 39.15291 392.742978 37.168373 392.742978 35.099373 
C 392.742978 33.030374 392.461182 31.045836 391.959651 29.582833 
C 391.45812 28.119829 390.777803 27.297807 390.068531 27.297807 
C 389.359259 27.297807 388.678942 28.119829 388.177411 29.582833 
C 387.67588 31.045836 387.394084 33.030374 387.394084 35.099373 
C 387.394084 37.168373 387.67588 39.15291 388.177411 40.615914 
C 388.678942 42.078918 389.359259 42.90094 390.068531 42.90094 
z
" style="fill:#0000ff;opacity:0.2;stroke:#0000ff;stroke-linejoin:miter;stroke-width:2;"/>
   </g>
   <g id="[&quot;g_s&quot;:3,&quot;g_t&quot;:3,&quot;coords&quot;:[[883.0, -625.0],[883.0, -550.0]],&quot;certainty&quot;:11]">
    <path clip-path="url(#p2bbe40b296)" d="M 390.068531 140.420522 
C 390.777803 140.420522 391.45812 139.5985 391.959651 138.135497 
C 392.461182 136.672493 392.742978 134.687956 392.742978 132.618956 
C 392.742978 130.549956 392.461182 128.565419 391.959651 127.102415 
C 391.45812 125.639412 390.777803 124.817389 390.068531 124.817389 
C 389.359259 124.817389 388.678942 125.639412 388.177411 127.102415 
C 387.67588 128.565419 387.394084 130.549956 387.394084 132.618956 
C 387.394084 134.687956 387.67588 136.672493 388.177411 138.135497 
C 388.678942 139.5985 389.359259 140.420522 390.068531 140.420522 
z
" style="fill:#ff0000;opacity:0.2;stroke:#ff0000;stroke-linejoin:miter;stroke-width:2;"/>
   </g>
   <g id="patch_43">
    <path d="M 390.068531 35.099373 
Q 390.068531 82.85772 390.068531 128.494746 
" style="fill:none;opacity:0.5;stroke:#0000ff;stroke-linecap:round;stroke-width:3;"/>
    <path d="M 391.568531 126.994746 
L 390.068531 128.494746 
L 388.568531 126.994746 
" style="fill:none;opacity:0.5;stroke:#0000ff;stroke-linecap:round;stroke-width:3;"/>
   </g>
   <g id="[&quot;g_s&quot;:4,&quot;g_t&quot;:4,&quot;coords&quot;:[[964.0, -633.0],[939.0, -684.0]],&quot;certainty&quot;:11]">
    <path clip-path="url(#p2bbe40b296)" d="M 426.17357 150.822611 
C 426.882841 150.822611 427.563159 150.000589 428.06469 148.537585 
C 428.56622 147.074582 428.848017 145.090044 428.848017 143.021045 
C 428.848017 140.952045 428.56622 138.967508 428.06469 137.504504 
C 427.563159 136.0415 426.882841 135.219478 426.17357 135.219478 
C 425.464298 135.219478 424.783981 136.0415 424.28245 137.504504 
C 423.780919 138.967508 423.499122 140.952045 423.499122 143.021045 
C 423.499122 145.090044 423.780919 147.074582 424.28245 148.537585 
C 424.783981 150.000589 425.464298 150.822611 426.17357 150.822611 
z
" style="fill:#0000ff;opacity:0.2;stroke:#0000ff;stroke-linejoin:miter;stroke-width:2;"/>
   </g>
   <g id="[&quot;g_s&quot;:4,&quot;g_t&quot;:4,&quot;coords&quot;:[[939.0, -684.0],[964.0, -633.0]],&quot;certainty&quot;:11]">
    <path clip-path="url(#p2bbe40b296)" d="M 415.030039 217.135927 
C 415.739311 217.135927 416.419628 216.313905 416.921159 214.850901 
C 417.42269 213.387898 417.704487 211.40336 417.704487 209.334361 
C 417.704487 207.265361 417.42269 205.280824 416.921159 203.81782 
C 416.419628 202.354816 415.739311 201.532794 415.030039 201.532794 
C 414.320768 201.532794 413.64045 202.354816 413.138919 203.81782 
C 412.637389 205.280824 412.355592 207.265361 412.355592 209.334361 
C 412.355592 211.40336 412.637389 213.387898 413.138919 214.850901 
C 413.64045 216.313905 414.320768 217.135927 415.030039 217.135927 
z
" style="fill:#ff0000;opacity:0.2;stroke:#ff0000;stroke-linejoin:miter;stroke-width:2;"/>
   </g>
   <g id="patch_44">
    <path d="M 426.17357 143.021045 
Q 420.76742 175.19215 415.712816 205.271267 
" style="fill:none;opacity:0.5;stroke:#0000ff;stroke-linecap:round;stroke-width:3;"/>
    <path d="M 417.440656 204.040588 
L 415.712816 205.271267 
L 414.482137 203.543428 
" style="fill:none;opacity:0.5;stroke:#0000ff;stroke-linecap:round;stroke-width:3;"/>
   </g>
   <g id="[&quot;g_s&quot;:1,&quot;g_t&quot;:1,&quot;coords&quot;:[[883.0, -739.0],[883.0, -714.0]],&quot;certainty&quot;:10]">
    <path clip-path="url(#p2bbe40b296)" d="M 390.068531 288.000157 
C 390.718697 288.000157 391.342321 287.246637 391.802058 285.90555 
C 392.261794 284.564463 392.520108 282.745304 392.520108 280.848721 
C 392.520108 278.952138 392.261794 277.132979 391.802058 275.791892 
C 391.342321 274.450806 390.718697 273.697285 390.068531 273.697285 
C 389.418365 273.697285 388.794741 274.450806 388.335004 275.791892 
C 387.875268 277.132979 387.616954 278.952138 387.616954 280.848721 
C 387.616954 282.745304 387.875268 284.564463 388.335004 285.90555 
C 388.794741 287.246637 389.418365 288.000157 390.068531 288.000157 
z
" style="fill:#0000ff;opacity:0.2;stroke:#0000ff;stroke-linejoin:miter;stroke-width:2;"/>
   </g>
   <g id="[&quot;g_s&quot;:1,&quot;g_t&quot;:1,&quot;coords&quot;:[[883.0, -714.0],[883.0, -739.0]],&quot;certainty&quot;:10]">
    <path clip-path="url(#p2bbe40b296)" d="M 390.068531 255.49363 
C 390.718697 255.49363 391.342321 254.740109 391.802058 253.399023 
C 392.261794 252.057936 392.520108 250.238777 392.520108 248.342194 
C 392.520108 246.445611 392.261794 244.626451 391.802058 243.285365 
C 391.342321 241.944278 390.718697 241.190758 390.068531 241.190758 
C 389.418365 241.190758 388.794741 241.944278 388.335004 243.285365 
C 387.875268 244.626451 387.616954 246.445611 387.616954 248.342194 
C 387.616954 250.238777 387.875268 252.057936 388.335004 253.399023 
C 388.794741 254.740109 389.418365 255.49363 390.068531 255.49363 
z
" style="fill:#ff0000;opacity:0.2;stroke:#ff0000;stroke-linejoin:miter;stroke-width:2;"/>
   </g>
   <g id="patch_45">
    <path d="M 390.068531 280.848721 
Q 390.068531 265.597398 390.068531 252.290619 
" style="fill:none;opacity:0.5;stroke:#ff0000;stroke-linecap:round;stroke-width:2.75;"/>
    <path d="M 388.568531 253.790619 
L 390.068531 252.290619 
L 391.568531 253.790619 
" style="fill:none;opacity:0.5;stroke:#ff0000;stroke-linecap:round;stroke-width:2.75;"/>
   </g>
   <g id="[&quot;g_s&quot;:2,&quot;g_t&quot;:2,&quot;coords&quot;:[[827.0, -684.0],[802.0, -633.0]],&quot;certainty&quot;:12]">
    <path clip-path="url(#p2bbe40b296)" d="M 365.107023 217.786058 
C 365.8754 217.786058 366.612411 216.895534 367.155736 215.310613 
C 367.699061 213.725692 368.004341 211.575777 368.004341 209.334361 
C 368.004341 207.092944 367.699061 204.943029 367.155736 203.358108 
C 366.612411 201.773188 365.8754 200.882664 365.107023 200.882664 
C 364.338645 200.882664 363.601635 201.773188 363.05831 203.358108 
C 362.514984 204.943029 362.209705 207.092944 362.209705 209.334361 
C 362.209705 211.575777 362.514984 213.725692 363.05831 215.310613 
C 363.601635 216.895534 364.338645 217.786058 365.107023 217.786058 
z
" style="fill:#0000ff;opacity:0.2;stroke:#0000ff;stroke-linejoin:miter;stroke-width:2;"/>
   </g>
   <g id="[&quot;g_s&quot;:2,&quot;g_t&quot;:2,&quot;coords&quot;:[[802.0, -633.0],[827.0, -684.0]],&quot;certainty&quot;:12]">
    <path clip-path="url(#p2bbe40b296)" d="M 353.963492 151.472742 
C 354.73187 151.472742 355.46888 150.582218 356.012205 148.997297 
C 356.55553 147.412376 356.86081 145.262461 356.86081 143.021045 
C 356.86081 140.779628 356.55553 138.629713 356.012205 137.044792 
C 355.46888 135.459872 354.73187 134.569348 353.963492 134.569348 
C 353.195115 134.569348 352.458104 135.459872 351.914779 137.044792 
C 351.371454 138.629713 351.066174 140.779628 351.066174 143.021045 
C 351.066174 145.262461 351.371454 147.412376 351.914779 148.997297 
C 352.458104 150.582218 353.195115 151.472742 353.963492 151.472742 
z
" style="fill:#ff0000;opacity:0.2;stroke:#ff0000;stroke-linejoin:miter;stroke-width:2;"/>
   </g>
   <g id="patch_46">
    <path d="M 365.107023 209.334361 
Q 359.700873 177.163255 354.675565 147.258471 
" style="fill:none;opacity:0.5;stroke:#ff0000;stroke-linecap:round;stroke-width:3.25;"/>
    <path d="M 353.444886 148.98631 
L 354.675565 147.258471 
L 356.403404 148.48915 
" style="fill:none;opacity:0.5;stroke:#ff0000;stroke-linecap:round;stroke-width:3.25;"/>
   </g>
   <g id="[&quot;g_s&quot;:3,&quot;g_t&quot;:3,&quot;coords&quot;:[[883.0, -625.0],[883.0, -550.0]],&quot;certainty&quot;:11]">
    <path clip-path="url(#p2bbe40b296)" d="M 390.068531 140.420522 
C 390.777803 140.420522 391.45812 139.5985 391.959651 138.135497 
C 392.461182 136.672493 392.742978 134.687956 392.742978 132.618956 
C 392.742978 130.549956 392.461182 128.565419 391.959651 127.102415 
C 391.45812 125.639412 390.777803 124.817389 390.068531 124.817389 
C 389.359259 124.817389 388.678942 125.639412 388.177411 127.102415 
C 387.67588 128.565419 387.394084 130.549956 387.394084 132.618956 
C 387.394084 134.687956 387.67588 136.672493 388.177411 138.135497 
C 388.678942 139.5985 389.359259 140.420522 390.068531 140.420522 
z
" style="fill:#0000ff;opacity:0.2;stroke:#0000ff;stroke-linejoin:miter;stroke-width:2;"/>
   </g>
   <g id="[&quot;g_s&quot;:3,&quot;g_t&quot;:3,&quot;coords&quot;:[[883.0, -550.0],[883.0, -625.0]],&quot;certainty&quot;:11]">
    <path clip-path="url(#p2bbe40b296)" d="M 390.068531 42.90094 
C 390.777803 42.90094 391.45812 42.078918 391.959651 40.615914 
C 392.461182 39.15291 392.742978 37.168373 392.742978 35.099373 
C 392.742978 33.030374 392.461182 31.045836 391.959651 29.582833 
C 391.45812 28.119829 390.777803 27.297807 390.068531 27.297807 
C 389.359259 27.297807 388.678942 28.119829 388.177411 29.582833 
C 387.67588 31.045836 387.394084 33.030374 387.394084 35.099373 
C 387.394084 37.168373 387.67588 39.15291 388.177411 40.615914 
C 388.678942 42.078918 389.359259 42.90094 390.068531 42.90094 
z
" style="fill:#ff0000;opacity:0.2;stroke:#ff0000;stroke-linejoin:miter;stroke-width:2;"/>
   </g>
   <g id="patch_47">
    <path d="M 390.068531 132.618956 
Q 390.068531 84.860609 390.068531 39.223583 
" style="fill:none;opacity:0.5;stroke:#ff0000;stroke-linecap:round;stroke-width:3;"/>
    <path d="M 388.568531 40.723583 
L 390.068531 39.223583 
L 391.568531 40.723583 
" style="fill:none;opacity:0.5;stroke:#ff0000;stroke-linecap:round;stroke-width:3;"/>
   </g>
   <g id="[&quot;g_s&quot;:4,&quot;g_t&quot;:4,&quot;coords&quot;:[[939.0, -684.0],[964.0, -633.0]],&quot;certainty&quot;:11]">
    <path clip-path="url(#p2bbe40b296)" d="M 415.030039 217.135927 
C 415.739311 217.135927 416.419628 216.313905 416.921159 214.850901 
C 417.42269 213.387898 417.704487 211.40336 417.704487 209.334361 
C 417.704487 207.265361 417.42269 205.280824 416.921159 203.81782 
C 416.419628 202.354816 415.739311 201.532794 415.030039 201.532794 
C 414.320768 201.532794 413.64045 202.354816 413.138919 203.81782 
C 412.637389 205.280824 412.355592 207.265361 412.355592 209.334361 
C 412.355592 211.40336 412.637389 213.387898 413.138919 214.850901 
C 413.64045 216.313905 414.320768 217.135927 415.030039 217.135927 
z
" style="fill:#0000ff;opacity:0.2;stroke:#0000ff;stroke-linejoin:miter;stroke-width:2;"/>
   </g>
   <g id="[&quot;g_s&quot;:4,&quot;g_t&quot;:4,&quot;coords&quot;:[[964.0, -633.0],[939.0, -684.0]],&quot;certainty&quot;:11]">
    <path clip-path="url(#p2bbe40b296)" d="M 426.17357 150.822611 
C 426.882841 150.822611 427.563159 150.000589 428.06469 148.537585 
C 428.56622 147.074582 428.848017 145.090044 428.848017 143.021045 
C 428.848017 140.952045 428.56622 138.967508 428.06469 137.504504 
C 427.563159 136.0415 426.882841 135.219478 426.17357 135.219478 
C 425.464298 135.219478 424.783981 136.0415 424.28245 137.504504 
C 423.780919 138.967508 423.499122 140.952045 423.499122 143.021045 
C 423.499122 145.090044 423.780919 147.074582 424.28245 148.537585 
C 424.783981 150.000589 425.464298 150.822611 426.17357 150.822611 
z
" style="fill:#ff0000;opacity:0.2;stroke:#ff0000;stroke-linejoin:miter;stroke-width:2;"/>
   </g>
   <g id="patch_48">
    <path d="M 415.030039 209.334361 
Q 420.436189 177.163255 425.490793 147.084138 
" style="fill:none;opacity:0.5;stroke:#ff0000;stroke-linecap:round;stroke-width:3;"/>
    <path d="M 423.762953 148.314817 
L 425.490793 147.084138 
L 426.721472 148.811978 
" style="fill:none;opacity:0.5;stroke:#ff0000;stroke-linecap:round;stroke-width:3;"/>
   </g>
   <g id="patch_49">
    <path clip-path="url(#p2bbe40b296)" d="M 359.535257 182.679008 
C 360.126317 182.679008 360.693248 181.99399 361.111191 180.77482 
C 361.529133 179.55565 361.763964 177.901869 361.763964 176.177703 
C 361.763964 174.453536 361.529133 172.799755 361.111191 171.580585 
C 360.693248 170.361416 360.126317 169.676397 359.535257 169.676397 
C 358.944198 169.676397 358.377267 170.361416 357.959324 171.580585 
C 357.541382 172.799755 357.306551 174.453536 357.306551 176.177703 
C 357.306551 177.901869 357.541382 179.55565 357.959324 180.77482 
C 358.377267 181.99399 358.944198 182.679008 359.535257 182.679008 
z
" style="fill:#008000;opacity:0.2;stroke:#008000;stroke-linejoin:miter;stroke-width:2;"/>
   </g>
   <g id="patch_50">
    <path clip-path="url(#p2bbe40b296)" d="M 390.068531 90.36047 
C 390.659591 90.36047 391.226522 89.675452 391.644464 88.456282 
C 392.062407 87.237112 392.297237 85.583331 392.297237 83.859165 
C 392.297237 82.134998 392.062407 80.481217 391.644464 79.262047 
C 391.226522 78.042878 390.659591 77.357859 390.068531 77.357859 
C 389.477471 77.357859 388.91054 78.042878 388.492598 79.262047 
C 388.074655 80.481217 387.839825 82.134998 387.839825 83.859165 
C 387.839825 85.583331 388.074655 87.237112 388.492598 88.456282 
C 388.91054 89.675452 389.477471 90.36047 390.068531 90.36047 
z
" style="fill:#008000;opacity:0.2;stroke:#008000;stroke-linejoin:miter;stroke-width:2;"/>
   </g>
   <g id="patch_51">
    <path clip-path="url(#p2bbe40b296)" d="M 420.601804 182.679008 
C 421.192864 182.679008 421.759795 181.99399 422.177738 180.77482 
C 422.59568 179.55565 422.830511 177.901869 422.830511 176.177703 
C 422.830511 174.453536 422.59568 172.799755 422.177738 171.580585 
C 421.759795 170.361416 421.192864 169.676397 420.601804 169.676397 
C 420.010745 169.676397 419.443814 170.361416 419.025871 171.580585 
C 418.607929 172.799755 418.373098 174.453536 418.373098 176.177703 
C 418.373098 177.901869 418.607929 179.55565 419.025871 180.77482 
C 419.443814 181.99399 420.010745 182.679008 420.601804 182.679008 
z
" style="fill:#008000;opacity:0.2;stroke:#008000;stroke-linejoin:miter;stroke-width:2;"/>
   </g>
   <g id="patch_52">
    <path clip-path="url(#p2bbe40b296)" d="M 390.068531 274.347416 
C 392.43277 274.347416 394.700494 271.607341 396.372264 266.730663 
C 398.044033 261.853984 398.983355 255.238859 398.983355 248.342194 
C 398.983355 241.445528 398.044033 234.830404 396.372264 229.953725 
C 394.700494 225.077046 392.43277 222.336972 390.068531 222.336972 
C 387.704292 222.336972 385.436568 225.077046 383.764798 229.953725 
C 382.093029 234.830404 381.153707 241.445528 381.153707 248.342194 
C 381.153707 255.238859 382.093029 261.853984 383.764798 266.730663 
C 385.436568 271.607341 387.704292 274.347416 390.068531 274.347416 
z
" style="fill:none;opacity:0.2;stroke:#ff0000;stroke-linejoin:miter;stroke-width:2;"/>
   </g>
   <g id="patch_53">
    <path clip-path="url(#p2bbe40b296)" d="M 390.068531 306.853943 
C 392.43277 306.853943 394.700494 304.113869 396.372264 299.23719 
C 398.044033 294.360511 398.983355 287.745387 398.983355 280.848721 
C 398.983355 273.952056 398.044033 267.336931 396.372264 262.460252 
C 394.700494 257.583573 392.43277 254.843499 390.068531 254.843499 
C 387.704292 254.843499 385.436568 257.583573 383.764798 262.460252 
C 382.093029 267.336931 381.153707 273.952056 381.153707 280.848721 
C 381.153707 287.745387 382.093029 294.360511 383.764798 299.23719 
C 385.436568 304.113869 387.704292 306.853943 390.068531 306.853943 
z
" style="fill:none;opacity:0.2;stroke:#0000ff;stroke-linejoin:miter;stroke-width:2;"/>
   </g>
   <g id="patch_54">
    <path clip-path="url(#p2bbe40b296)" d="M 353.963492 156.023656 
C 355.145612 156.023656 356.279474 154.653619 357.115359 152.215279 
C 357.951243 149.77694 358.420904 146.469377 358.420904 143.021045 
C 358.420904 139.572712 357.951243 136.26515 357.115359 133.82681 
C 356.279474 131.388471 355.145612 130.018434 353.963492 130.018434 
C 352.781373 130.018434 351.647511 131.388471 350.811626 133.82681 
C 349.975741 136.26515 349.50608 139.572712 349.50608 143.021045 
C 349.50608 146.469377 349.975741 149.77694 350.811626 152.215279 
C 351.647511 154.653619 352.781373 156.023656 353.963492 156.023656 
z
" style="fill:none;opacity:0.2;stroke:#008000;stroke-linejoin:miter;stroke-width:2;"/>
   </g>
   <g id="patch_55">
    <path clip-path="url(#p2bbe40b296)" d="M 365.107023 222.336972 
C 366.289142 222.336972 367.423004 220.966935 368.258889 218.528595 
C 369.094774 216.090256 369.564435 212.782693 369.564435 209.334361 
C 369.564435 205.886028 369.094774 202.578466 368.258889 200.140126 
C 367.423004 197.701787 366.289142 196.33175 365.107023 196.33175 
C 363.924903 196.33175 362.791041 197.701787 361.955156 200.140126 
C 361.119272 202.578466 360.649611 205.886028 360.649611 209.334361 
C 360.649611 212.782693 361.119272 216.090256 361.955156 218.528595 
C 362.791041 220.966935 363.924903 222.336972 365.107023 222.336972 
z
" style="fill:none;opacity:0.2;stroke:#008000;stroke-linejoin:miter;stroke-width:2;"/>
   </g>
   <g id="patch_56">
    <path d="M 359.535257 176.177703 
Q 374.801894 130.018434 390.068531 83.859165 
" style="fill:none;opacity:0.5;stroke:#008000;stroke-linecap:round;stroke-width:2;"/>
   </g>
   <g id="patch_57">
    <path d="M 354.197856 144.415704 
Q 359.369642 175.19215 364.541428 205.968597 
" style="fill:none;opacity:0.5;stroke:#800080;stroke-linecap:round;stroke-width:2;"/>
    <path d="M 352.967177 146.143543 
L 354.197856 144.415704 
L 355.925695 145.646383 
" style="fill:none;opacity:0.5;stroke:#800080;stroke-linecap:round;stroke-width:2;"/>
    <path d="M 365.772107 204.240757 
L 364.541428 205.968597 
L 362.813588 204.737918 
" style="fill:none;opacity:0.5;stroke:#800080;stroke-linecap:round;stroke-width:2;"/>
   </g>
   <g id="patch_58">
    <path d="M 390.068531 83.859165 
Q 405.335168 130.018434 420.601804 176.177703 
" style="fill:none;opacity:0.5;stroke:#008000;stroke-linecap:round;stroke-width:2;"/>
   </g>
   <g id="patch_59">
    <path d="M 390.068531 36.513587 
Q 390.068531 82.85772 390.068531 129.201853 
" style="fill:none;opacity:0.5;stroke:#800080;stroke-linecap:round;stroke-width:2;"/>
    <path d="M 388.568531 38.013587 
L 390.068531 36.513587 
L 391.568531 38.013587 
" style="fill:none;opacity:0.5;stroke:#800080;stroke-linecap:round;stroke-width:2;"/>
    <path d="M 391.568531 127.701853 
L 390.068531 129.201853 
L 388.568531 127.701853 
" style="fill:none;opacity:0.5;stroke:#800080;stroke-linecap:round;stroke-width:2;"/>
   </g>
   <g id="patch_60">
    <path clip-path="url(#p2bbe40b296)" d="M 93.204879 250.942716 
C 93.441303 250.942716 93.668075 250.668708 93.835252 250.181041 
C 94.002429 249.693373 94.096362 249.03186 94.096362 248.342194 
C 94.096362 247.652527 94.002429 246.991015 93.835252 246.503347 
C 93.668075 246.015679 93.441303 245.741672 93.204879 245.741672 
C 92.968455 245.741672 92.741683 246.015679 92.574506 246.503347 
C 92.407329 246.991015 92.313397 247.652527 92.313397 248.342194 
C 92.313397 249.03186 92.407329 249.693373 92.574506 250.181041 
C 92.741683 250.668708 92.968455 250.942716 93.204879 250.942716 
z
" style="fill:#ff0000;opacity:0.2;stroke:#ff0000;stroke-linejoin:miter;stroke-width:2;"/>
   </g>
   <g id="patch_61">
    <path clip-path="url(#p2bbe40b296)" d="M 57.09984 145.621567 
C 57.336264 145.621567 57.563037 145.347559 57.730214 144.859892 
C 57.897391 144.372224 57.991323 143.710711 57.991323 143.021045 
C 57.991323 142.331378 57.897391 141.669866 57.730214 141.182198 
C 57.563037 140.69453 57.336264 140.420522 57.09984 140.420522 
C 56.863416 140.420522 56.636644 140.69453 56.469467 141.182198 
C 56.30229 141.669866 56.208358 142.331378 56.208358 143.021045 
C 56.208358 143.710711 56.30229 144.372224 56.469467 144.859892 
C 56.636644 145.347559 56.863416 145.621567 57.09984 145.621567 
z
" style="fill:#ff0000;opacity:0.2;stroke:#ff0000;stroke-linejoin:miter;stroke-width:2;"/>
   </g>
   <g id="patch_62">
    <path clip-path="url(#p2bbe40b296)" d="M 93.204879 37.699896 
C 93.441303 37.699896 93.668075 37.425888 93.835252 36.93822 
C 94.002429 36.450552 94.096362 35.78904 94.096362 35.099373 
C 94.096362 34.409707 94.002429 33.748194 93.835252 33.260527 
C 93.668075 32.772859 93.441303 32.498851 93.204879 32.498851 
C 92.968455 32.498851 92.741683 32.772859 92.574506 33.260527 
C 92.407329 33.748194 92.313397 34.409707 92.313397 35.099373 
C 92.313397 35.78904 92.407329 36.450552 92.574506 36.93822 
C 92.741683 37.425888 92.968455 37.699896 93.204879 37.699896 
z
" style="fill:#ff0000;opacity:0.2;stroke:#ff0000;stroke-linejoin:miter;stroke-width:2;"/>
   </g>
   <g id="patch_63">
    <path clip-path="url(#p2bbe40b296)" d="M 129.309918 145.621567 
C 129.546342 145.621567 129.773114 145.347559 129.940291 144.859892 
C 130.107468 144.372224 130.2014 143.710711 130.2014 143.021045 
C 130.2014 142.331378 130.107468 141.669866 129.940291 141.182198 
C 129.773114 140.69453 129.546342 140.420522 129.309918 140.420522 
C 129.073494 140.420522 128.846722 140.69453 128.679545 141.182198 
C 128.512368 141.669866 128.418435 142.331378 128.418435 143.021045 
C 128.418435 143.710711 128.512368 144.372224 128.679545 144.859892 
C 128.846722 145.347559 129.073494 145.621567 129.309918 145.621567 
z
" style="fill:#ff0000;opacity:0.2;stroke:#ff0000;stroke-linejoin:miter;stroke-width:2;"/>
   </g>
   <g id="patch_64">
    <path clip-path="url(#p2bbe40b296)" d="M 93.204879 283.449243 
C 93.441303 283.449243 93.668075 283.175236 93.835252 282.687568 
C 94.002429 282.1999 94.096362 281.538388 94.096362 280.848721 
C 94.096362 280.159055 94.002429 279.497542 93.835252 279.009874 
C 93.668075 278.522206 93.441303 278.248199 93.204879 278.248199 
C 92.968455 278.248199 92.741683 278.522206 92.574506 279.009874 
C 92.407329 279.497542 92.313397 280.159055 92.313397 280.848721 
C 92.313397 281.538388 92.407329 282.1999 92.574506 282.687568 
C 92.741683 283.175236 92.968455 283.449243 93.204879 283.449243 
z
" style="fill:#0000ff;opacity:0.2;stroke:#0000ff;stroke-linejoin:miter;stroke-width:2;"/>
   </g>
   <g id="patch_65">
    <path clip-path="url(#p2bbe40b296)" d="M 68.243371 211.934883 
C 68.479795 211.934883 68.706567 211.660876 68.873744 211.173208 
C 69.040921 210.68554 69.134853 210.024027 69.134853 209.334361 
C 69.134853 208.644694 69.040921 207.983182 68.873744 207.495514 
C 68.706567 207.007846 68.479795 206.733839 68.243371 206.733839 
C 68.006947 206.733839 67.780175 207.007846 67.612998 207.495514 
C 67.445821 207.983182 67.351888 208.644694 67.351888 209.334361 
C 67.351888 210.024027 67.445821 210.68554 67.612998 211.173208 
C 67.780175 211.660876 68.006947 211.934883 68.243371 211.934883 
z
" style="fill:#0000ff;opacity:0.2;stroke:#0000ff;stroke-linejoin:miter;stroke-width:2;"/>
   </g>
   <g id="patch_66">
    <path clip-path="url(#p2bbe40b296)" d="M 93.204879 135.219478 
C 93.441303 135.219478 93.668075 134.945471 93.835252 134.457803 
C 94.002429 133.970135 94.096362 133.308622 94.096362 132.618956 
C 94.096362 131.929289 94.002429 131.267777 93.835252 130.780109 
C 93.668075 130.292441 93.441303 130.018434 93.204879 130.018434 
C 92.968455 130.018434 92.741683 130.292441 92.574506 130.780109 
C 92.407329 131.267777 92.313397 131.929289 92.313397 132.618956 
C 92.313397 133.308622 92.407329 133.970135 92.574506 134.457803 
C 92.741683 134.945471 92.968455 135.219478 93.204879 135.219478 
z
" style="fill:#0000ff;opacity:0.2;stroke:#0000ff;stroke-linejoin:miter;stroke-width:2;"/>
   </g>
   <g id="patch_67">
    <path clip-path="url(#p2bbe40b296)" d="M 118.166387 211.934883 
C 118.402811 211.934883 118.629584 211.660876 118.796761 211.173208 
C 118.963938 210.68554 119.05787 210.024027 119.05787 209.334361 
C 119.05787 208.644694 118.963938 207.983182 118.796761 207.495514 
C 118.629584 207.007846 118.402811 206.733839 118.166387 206.733839 
C 117.929963 206.733839 117.703191 207.007846 117.536014 207.495514 
C 117.368837 207.983182 117.274905 208.644694 117.274905 209.334361 
C 117.274905 210.024027 117.368837 210.68554 117.536014 211.173208 
C 117.703191 211.660876 117.929963 211.934883 118.166387 211.934883 
z
" style="fill:#0000ff;opacity:0.2;stroke:#0000ff;stroke-linejoin:miter;stroke-width:2;"/>
   </g>
   <g id="patch_68">
    <path clip-path="url(#p2bbe40b296)" d="M 93.204879 248.342194 
C 75.37523 248.342194 57.09984 206.733839 57.09984 143.021045 
C 57.09984 81.908773 73.146524 35.099373 93.204879 35.099373 
C 114.600458 35.099373 129.309918 87.109817 129.309918 143.021045 
C 129.309918 202.833055 114.600458 248.342194 93.204879 248.342194 
" style="fill:none;stroke:#ff0000;stroke-linejoin:miter;stroke-width:0.5;"/>
   </g>
   <g id="patch_69">
    <path clip-path="url(#p2bbe40b296)" d="M 93.204879 280.848721 
C 80.278384 280.848721 68.243371 253.543238 68.243371 209.334361 
C 68.243371 165.125483 78.94116 132.618956 93.204879 132.618956 
C 108.360081 132.618956 118.166387 167.726006 118.166387 209.334361 
C 118.166387 250.942716 108.360081 280.848721 93.204879 280.848721 
" style="fill:none;stroke:#0000ff;stroke-linejoin:miter;stroke-width:0.5;"/>
   </g>
   <g id="[&quot;g_s&quot;:1,&quot;g_t&quot;:1,&quot;coords&quot;:[[217.0, -714.0],[217.0, -739.0]],&quot;certainty&quot;:10]">
    <path clip-path="url(#p2bbe40b296)" d="M 93.204879 255.49363 
C 93.855045 255.49363 94.478669 254.740109 94.938406 253.399023 
C 95.398142 252.057936 95.656456 250.238777 95.656456 248.342194 
C 95.656456 246.445611 95.398142 244.626451 94.938406 243.285365 
C 94.478669 241.944278 93.855045 241.190758 93.204879 241.190758 
C 92.554713 241.190758 91.931089 241.944278 91.471353 243.285365 
C 91.011616 244.626451 90.753302 246.445611 90.753302 248.342194 
C 90.753302 250.238777 91.011616 252.057936 91.471353 253.399023 
C 91.931089 254.740109 92.554713 255.49363 93.204879 255.49363 
z
" style="fill:#0000ff;opacity:0.2;stroke:#0000ff;stroke-linejoin:miter;stroke-width:2;"/>
   </g>
   <g id="[&quot;g_s&quot;:1,&quot;g_t&quot;:1,&quot;coords&quot;:[[217.0, -739.0],[217.0, -714.0]],&quot;certainty&quot;:10]">
    <path clip-path="url(#p2bbe40b296)" d="M 93.204879 288.000157 
C 93.855045 288.000157 94.478669 287.246637 94.938406 285.90555 
C 95.398142 284.564463 95.656456 282.745304 95.656456 280.848721 
C 95.656456 278.952138 95.398142 277.132979 94.938406 275.791892 
C 94.478669 274.450806 93.855045 273.697285 93.204879 273.697285 
C 92.554713 273.697285 91.931089 274.450806 91.471353 275.791892 
C 91.011616 277.132979 90.753302 278.952138 90.753302 280.848721 
C 90.753302 282.745304 91.011616 284.564463 91.471353 285.90555 
C 91.931089 287.246637 92.554713 288.000157 93.204879 288.000157 
z
" style="fill:#ff0000;opacity:0.2;stroke:#ff0000;stroke-linejoin:miter;stroke-width:2;"/>
   </g>
   <g id="patch_70">
    <path d="M 93.204879 248.342194 
Q 93.204879 263.593517 93.204879 276.900296 
" style="fill:none;opacity:0.5;stroke:#0000ff;stroke-linecap:round;stroke-width:2.75;"/>
    <path d="M 94.704879 275.400296 
L 93.204879 276.900296 
L 91.704879 275.400296 
" style="fill:none;opacity:0.5;stroke:#0000ff;stroke-linecap:round;stroke-width:2.75;"/>
   </g>
   <g id="[&quot;g_s&quot;:2,&quot;g_t&quot;:2,&quot;coords&quot;:[[136.0, -633.0],[161.0, -684.0]],&quot;certainty&quot;:12]">
    <path clip-path="url(#p2bbe40b296)" d="M 57.09984 151.472742 
C 57.868218 151.472742 58.605228 150.582218 59.148554 148.997297 
C 59.691879 147.412376 59.997158 145.262461 59.997158 143.021045 
C 59.997158 140.779628 59.691879 138.629713 59.148554 137.044792 
C 58.605228 135.459872 57.868218 134.569348 57.09984 134.569348 
C 56.331463 134.569348 55.594452 135.459872 55.051127 137.044792 
C 54.507802 138.629713 54.202522 140.779628 54.202522 143.021045 
C 54.202522 145.262461 54.507802 147.412376 55.051127 148.997297 
C 55.594452 150.582218 56.331463 151.472742 57.09984 151.472742 
z
" style="fill:#0000ff;opacity:0.2;stroke:#0000ff;stroke-linejoin:miter;stroke-width:2;"/>
   </g>
   <g id="[&quot;g_s&quot;:2,&quot;g_t&quot;:2,&quot;coords&quot;:[[161.0, -684.0],[136.0, -633.0]],&quot;certainty&quot;:12]">
    <path clip-path="url(#p2bbe40b296)" d="M 68.243371 217.786058 
C 69.011749 217.786058 69.748759 216.895534 70.292084 215.310613 
C 70.835409 213.725692 71.140689 211.575777 71.140689 209.334361 
C 71.140689 207.092944 70.835409 204.943029 70.292084 203.358108 
C 69.748759 201.773188 69.011749 200.882664 68.243371 200.882664 
C 67.474993 200.882664 66.737983 201.773188 66.194658 203.358108 
C 65.651333 204.943029 65.346053 207.092944 65.346053 209.334361 
C 65.346053 211.575777 65.651333 213.725692 66.194658 215.310613 
C 66.737983 216.895534 67.474993 217.786058 68.243371 217.786058 
z
" style="fill:#ff0000;opacity:0.2;stroke:#ff0000;stroke-linejoin:miter;stroke-width:2;"/>
   </g>
   <g id="patch_71">
    <path d="M 57.09984 143.021045 
Q 62.50599 175.19215 67.531298 205.096935 
" style="fill:none;opacity:0.5;stroke:#0000ff;stroke-linecap:round;stroke-width:3.25;"/>
    <path d="M 68.761978 203.369095 
L 67.531298 205.096935 
L 65.803459 203.866256 
" style="fill:none;opacity:0.5;stroke:#0000ff;stroke-linecap:round;stroke-width:3.25;"/>
   </g>
   <g id="[&quot;g_s&quot;:3,&quot;g_t&quot;:3,&quot;coords&quot;:[[217.0, -550.0],[217.0, -625.0]],&quot;certainty&quot;:11]">
    <path clip-path="url(#p2bbe40b296)" d="M 93.204879 42.90094 
C 93.914151 42.90094 94.594468 42.078918 95.095999 40.615914 
C 95.59753 39.15291 95.879326 37.168373 95.879326 35.099373 
C 95.879326 33.030374 95.59753 31.045836 95.095999 29.582833 
C 94.594468 28.119829 93.914151 27.297807 93.204879 27.297807 
C 92.495607 27.297807 91.81529 28.119829 91.313759 29.582833 
C 90.812228 31.045836 90.530432 33.030374 90.530432 35.099373 
C 90.530432 37.168373 90.812228 39.15291 91.313759 40.615914 
C 91.81529 42.078918 92.495607 42.90094 93.204879 42.90094 
z
" style="fill:#0000ff;opacity:0.2;stroke:#0000ff;stroke-linejoin:miter;stroke-width:2;"/>
   </g>
   <g id="[&quot;g_s&quot;:3,&quot;g_t&quot;:3,&quot;coords&quot;:[[217.0, -625.0],[217.0, -550.0]],&quot;certainty&quot;:11]">
    <path clip-path="url(#p2bbe40b296)" d="M 93.204879 140.420522 
C 93.914151 140.420522 94.594468 139.5985 95.095999 138.135497 
C 95.59753 136.672493 95.879326 134.687956 95.879326 132.618956 
C 95.879326 130.549956 95.59753 128.565419 95.095999 127.102415 
C 94.594468 125.639412 93.914151 124.817389 93.204879 124.817389 
C 92.495607 124.817389 91.81529 125.639412 91.313759 127.102415 
C 90.812228 128.565419 90.530432 130.549956 90.530432 132.618956 
C 90.530432 134.687956 90.812228 136.672493 91.313759 138.135497 
C 91.81529 139.5985 92.495607 140.420522 93.204879 140.420522 
z
" style="fill:#ff0000;opacity:0.2;stroke:#ff0000;stroke-linejoin:miter;stroke-width:2;"/>
   </g>
   <g id="patch_72">
    <path d="M 93.204879 35.099373 
Q 93.204879 82.85772 93.204879 128.494746 
" style="fill:none;opacity:0.5;stroke:#0000ff;stroke-linecap:round;stroke-width:3;"/>
    <path d="M 94.704879 126.994746 
L 93.204879 128.494746 
L 91.704879 126.994746 
" style="fill:none;opacity:0.5;stroke:#0000ff;stroke-linecap:round;stroke-width:3;"/>
   </g>
   <g id="[&quot;g_s&quot;:4,&quot;g_t&quot;:4,&quot;coords&quot;:[[298.0, -633.0],[273.0, -684.0]],&quot;certainty&quot;:11]">
    <path clip-path="url(#p2bbe40b296)" d="M 129.309918 150.822611 
C 130.01919 150.822611 130.699507 150.000589 131.201038 148.537585 
C 131.702569 147.074582 131.984365 145.090044 131.984365 143.021045 
C 131.984365 140.952045 131.702569 138.967508 131.201038 137.504504 
C 130.699507 136.0415 130.01919 135.219478 129.309918 135.219478 
C 128.600646 135.219478 127.920329 136.0415 127.418798 137.504504 
C 126.917267 138.967508 126.635471 140.952045 126.635471 143.021045 
C 126.635471 145.090044 126.917267 147.074582 127.418798 148.537585 
C 127.920329 150.000589 128.600646 150.822611 129.309918 150.822611 
z
" style="fill:#0000ff;opacity:0.2;stroke:#0000ff;stroke-linejoin:miter;stroke-width:2;"/>
   </g>
   <g id="[&quot;g_s&quot;:4,&quot;g_t&quot;:4,&quot;coords&quot;:[[273.0, -684.0],[298.0, -633.0]],&quot;certainty&quot;:11]">
    <path clip-path="url(#p2bbe40b296)" d="M 118.166387 217.135927 
C 118.875659 217.135927 119.555976 216.313905 120.057507 214.850901 
C 120.559038 213.387898 120.840835 211.40336 120.840835 209.334361 
C 120.840835 207.265361 120.559038 205.280824 120.057507 203.81782 
C 119.555976 202.354816 118.875659 201.532794 118.166387 201.532794 
C 117.457116 201.532794 116.776798 202.354816 116.275268 203.81782 
C 115.773737 205.280824 115.49194 207.265361 115.49194 209.334361 
C 115.49194 211.40336 115.773737 213.387898 116.275268 214.850901 
C 116.776798 216.313905 117.457116 217.135927 118.166387 217.135927 
z
" style="fill:#ff0000;opacity:0.2;stroke:#ff0000;stroke-linejoin:miter;stroke-width:2;"/>
   </g>
   <g id="patch_73">
    <path d="M 129.309918 143.021045 
Q 123.903768 175.19215 118.849164 205.271267 
" style="fill:none;opacity:0.5;stroke:#0000ff;stroke-linecap:round;stroke-width:3;"/>
    <path d="M 120.577004 204.040588 
L 118.849164 205.271267 
L 117.618485 203.543428 
" style="fill:none;opacity:0.5;stroke:#0000ff;stroke-linecap:round;stroke-width:3;"/>
   </g>
   <g id="[&quot;g_s&quot;:1,&quot;g_t&quot;:1,&quot;coords&quot;:[[217.0, -739.0],[217.0, -714.0]],&quot;certainty&quot;:10]">
    <path clip-path="url(#p2bbe40b296)" d="M 93.204879 288.000157 
C 93.855045 288.000157 94.478669 287.246637 94.938406 285.90555 
C 95.398142 284.564463 95.656456 282.745304 95.656456 280.848721 
C 95.656456 278.952138 95.398142 277.132979 94.938406 275.791892 
C 94.478669 274.450806 93.855045 273.697285 93.204879 273.697285 
C 92.554713 273.697285 91.931089 274.450806 91.471353 275.791892 
C 91.011616 277.132979 90.753302 278.952138 90.753302 280.848721 
C 90.753302 282.745304 91.011616 284.564463 91.471353 285.90555 
C 91.931089 287.246637 92.554713 288.000157 93.204879 288.000157 
z
" style="fill:#0000ff;opacity:0.2;stroke:#0000ff;stroke-linejoin:miter;stroke-width:2;"/>
   </g>
   <g id="[&quot;g_s&quot;:1,&quot;g_t&quot;:1,&quot;coords&quot;:[[217.0, -714.0],[217.0, -739.0]],&quot;certainty&quot;:10]">
    <path clip-path="url(#p2bbe40b296)" d="M 93.204879 255.49363 
C 93.855045 255.49363 94.478669 254.740109 94.938406 253.399023 
C 95.398142 252.057936 95.656456 250.238777 95.656456 248.342194 
C 95.656456 246.445611 95.398142 244.626451 94.938406 243.285365 
C 94.478669 241.944278 93.855045 241.190758 93.204879 241.190758 
C 92.554713 241.190758 91.931089 241.944278 91.471353 243.285365 
C 91.011616 244.626451 90.753302 246.445611 90.753302 248.342194 
C 90.753302 250.238777 91.011616 252.057936 91.471353 253.399023 
C 91.931089 254.740109 92.554713 255.49363 93.204879 255.49363 
z
" style="fill:#ff0000;opacity:0.2;stroke:#ff0000;stroke-linejoin:miter;stroke-width:2;"/>
   </g>
   <g id="patch_74">
    <path d="M 93.204879 280.848721 
Q 93.204879 265.597398 93.204879 252.290619 
" style="fill:none;opacity:0.5;stroke:#ff0000;stroke-linecap:round;stroke-width:2.75;"/>
    <path d="M 91.704879 253.790619 
L 93.204879 252.290619 
L 94.704879 253.790619 
" style="fill:none;opacity:0.5;stroke:#ff0000;stroke-linecap:round;stroke-width:2.75;"/>
   </g>
   <g id="[&quot;g_s&quot;:2,&quot;g_t&quot;:2,&quot;coords&quot;:[[161.0, -684.0],[136.0, -633.0]],&quot;certainty&quot;:12]">
    <path clip-path="url(#p2bbe40b296)" d="M 68.243371 217.786058 
C 69.011749 217.786058 69.748759 216.895534 70.292084 215.310613 
C 70.835409 213.725692 71.140689 211.575777 71.140689 209.334361 
C 71.140689 207.092944 70.835409 204.943029 70.292084 203.358108 
C 69.748759 201.773188 69.011749 200.882664 68.243371 200.882664 
C 67.474993 200.882664 66.737983 201.773188 66.194658 203.358108 
C 65.651333 204.943029 65.346053 207.092944 65.346053 209.334361 
C 65.346053 211.575777 65.651333 213.725692 66.194658 215.310613 
C 66.737983 216.895534 67.474993 217.786058 68.243371 217.786058 
z
" style="fill:#0000ff;opacity:0.2;stroke:#0000ff;stroke-linejoin:miter;stroke-width:2;"/>
   </g>
   <g id="[&quot;g_s&quot;:2,&quot;g_t&quot;:2,&quot;coords&quot;:[[136.0, -633.0],[161.0, -684.0]],&quot;certainty&quot;:12]">
    <path clip-path="url(#p2bbe40b296)" d="M 57.09984 151.472742 
C 57.868218 151.472742 58.605228 150.582218 59.148554 148.997297 
C 59.691879 147.412376 59.997158 145.262461 59.997158 143.021045 
C 59.997158 140.779628 59.691879 138.629713 59.148554 137.044792 
C 58.605228 135.459872 57.868218 134.569348 57.09984 134.569348 
C 56.331463 134.569348 55.594452 135.459872 55.051127 137.044792 
C 54.507802 138.629713 54.202522 140.779628 54.202522 143.021045 
C 54.202522 145.262461 54.507802 147.412376 55.051127 148.997297 
C 55.594452 150.582218 56.331463 151.472742 57.09984 151.472742 
z
" style="fill:#ff0000;opacity:0.2;stroke:#ff0000;stroke-linejoin:miter;stroke-width:2;"/>
   </g>
   <g id="patch_75">
    <path d="M 68.243371 209.334361 
Q 62.837221 177.163255 57.811913 147.258471 
" style="fill:none;opacity:0.5;stroke:#ff0000;stroke-linecap:round;stroke-width:3.25;"/>
    <path d="M 56.581234 148.98631 
L 57.811913 147.258471 
L 59.539752 148.48915 
" style="fill:none;opacity:0.5;stroke:#ff0000;stroke-linecap:round;stroke-width:3.25;"/>
   </g>
   <g id="[&quot;g_s&quot;:3,&quot;g_t&quot;:3,&quot;coords&quot;:[[217.0, -625.0],[217.0, -550.0]],&quot;certainty&quot;:11]">
    <path clip-path="url(#p2bbe40b296)" d="M 93.204879 140.420522 
C 93.914151 140.420522 94.594468 139.5985 95.095999 138.135497 
C 95.59753 136.672493 95.879326 134.687956 95.879326 132.618956 
C 95.879326 130.549956 95.59753 128.565419 95.095999 127.102415 
C 94.594468 125.639412 93.914151 124.817389 93.204879 124.817389 
C 92.495607 124.817389 91.81529 125.639412 91.313759 127.102415 
C 90.812228 128.565419 90.530432 130.549956 90.530432 132.618956 
C 90.530432 134.687956 90.812228 136.672493 91.313759 138.135497 
C 91.81529 139.5985 92.495607 140.420522 93.204879 140.420522 
z
" style="fill:#0000ff;opacity:0.2;stroke:#0000ff;stroke-linejoin:miter;stroke-width:2;"/>
   </g>
   <g id="[&quot;g_s&quot;:3,&quot;g_t&quot;:3,&quot;coords&quot;:[[217.0, -550.0],[217.0, -625.0]],&quot;certainty&quot;:11]">
    <path clip-path="url(#p2bbe40b296)" d="M 93.204879 42.90094 
C 93.914151 42.90094 94.594468 42.078918 95.095999 40.615914 
C 95.59753 39.15291 95.879326 37.168373 95.879326 35.099373 
C 95.879326 33.030374 95.59753 31.045836 95.095999 29.582833 
C 94.594468 28.119829 93.914151 27.297807 93.204879 27.297807 
C 92.495607 27.297807 91.81529 28.119829 91.313759 29.582833 
C 90.812228 31.045836 90.530432 33.030374 90.530432 35.099373 
C 90.530432 37.168373 90.812228 39.15291 91.313759 40.615914 
C 91.81529 42.078918 92.495607 42.90094 93.204879 42.90094 
z
" style="fill:#ff0000;opacity:0.2;stroke:#ff0000;stroke-linejoin:miter;stroke-width:2;"/>
   </g>
   <g id="patch_76">
    <path d="M 93.204879 132.618956 
Q 93.204879 84.860609 93.204879 39.223583 
" style="fill:none;opacity:0.5;stroke:#ff0000;stroke-linecap:round;stroke-width:3;"/>
    <path d="M 91.704879 40.723583 
L 93.204879 39.223583 
L 94.704879 40.723583 
" style="fill:none;opacity:0.5;stroke:#ff0000;stroke-linecap:round;stroke-width:3;"/>
   </g>
   <g id="[&quot;g_s&quot;:4,&quot;g_t&quot;:4,&quot;coords&quot;:[[273.0, -684.0],[298.0, -633.0]],&quot;certainty&quot;:11]">
    <path clip-path="url(#p2bbe40b296)" d="M 118.166387 217.135927 
C 118.875659 217.135927 119.555976 216.313905 120.057507 214.850901 
C 120.559038 213.387898 120.840835 211.40336 120.840835 209.334361 
C 120.840835 207.265361 120.559038 205.280824 120.057507 203.81782 
C 119.555976 202.354816 118.875659 201.532794 118.166387 201.532794 
C 117.457116 201.532794 116.776798 202.354816 116.275268 203.81782 
C 115.773737 205.280824 115.49194 207.265361 115.49194 209.334361 
C 115.49194 211.40336 115.773737 213.387898 116.275268 214.850901 
C 116.776798 216.313905 117.457116 217.135927 118.166387 217.135927 
z
" style="fill:#0000ff;opacity:0.2;stroke:#0000ff;stroke-linejoin:miter;stroke-width:2;"/>
   </g>
   <g id="[&quot;g_s&quot;:4,&quot;g_t&quot;:4,&quot;coords&quot;:[[298.0, -633.0],[273.0, -684.0]],&quot;certainty&quot;:11]">
    <path clip-path="url(#p2bbe40b296)" d="M 129.309918 150.822611 
C 130.01919 150.822611 130.699507 150.000589 131.201038 148.537585 
C 131.702569 147.074582 131.984365 145.090044 131.984365 143.021045 
C 131.984365 140.952045 131.702569 138.967508 131.201038 137.504504 
C 130.699507 136.0415 130.01919 135.219478 129.309918 135.219478 
C 128.600646 135.219478 127.920329 136.0415 127.418798 137.504504 
C 126.917267 138.967508 126.635471 140.952045 126.635471 143.021045 
C 126.635471 145.090044 126.917267 147.074582 127.418798 148.537585 
C 127.920329 150.000589 128.600646 150.822611 129.309918 150.822611 
z
" style="fill:#ff0000;opacity:0.2;stroke:#ff0000;stroke-linejoin:miter;stroke-width:2;"/>
   </g>
   <g id="patch_77">
    <path d="M 118.166387 209.334361 
Q 123.572537 177.163255 128.627141 147.084138 
" style="fill:none;opacity:0.5;stroke:#ff0000;stroke-linecap:round;stroke-width:3;"/>
    <path d="M 126.899302 148.314817 
L 128.627141 147.084138 
L 129.85782 148.811978 
" style="fill:none;opacity:0.5;stroke:#ff0000;stroke-linecap:round;stroke-width:3;"/>
   </g>
   <g id="patch_78">
    <path clip-path="url(#p2bbe40b296)" d="M 93.204879 271.096763 
C 93.795939 271.096763 94.36287 270.411744 94.780812 269.192575 
C 95.198755 267.973405 95.433585 266.319624 95.433585 264.595457 
C 95.433585 262.871291 95.198755 261.21751 94.780812 259.99834 
C 94.36287 258.779171 93.795939 258.094152 93.204879 258.094152 
C 92.613819 258.094152 92.046888 258.779171 91.628946 259.99834 
C 91.211004 261.21751 90.976173 262.871291 90.976173 264.595457 
C 90.976173 266.319624 91.211004 267.973405 91.628946 269.192575 
C 92.046888 270.411744 92.613819 271.096763 93.204879 271.096763 
z
" style="fill:#008000;opacity:0.2;stroke:#008000;stroke-linejoin:miter;stroke-width:2;"/>
   </g>
   <g id="patch_79">
    <path clip-path="url(#p2bbe40b296)" d="M 62.671606 182.679008 
C 63.262665 182.679008 63.829596 181.99399 64.247539 180.77482 
C 64.665481 179.55565 64.900312 177.901869 64.900312 176.177703 
C 64.900312 174.453536 64.665481 172.799755 64.247539 171.580585 
C 63.829596 170.361416 63.262665 169.676397 62.671606 169.676397 
C 62.080546 169.676397 61.513615 170.361416 61.095672 171.580585 
C 60.67773 172.799755 60.4429 174.453536 60.4429 176.177703 
C 60.4429 177.901869 60.67773 179.55565 61.095672 180.77482 
C 61.513615 181.99399 62.080546 182.679008 62.671606 182.679008 
z
" style="fill:#008000;opacity:0.2;stroke:#008000;stroke-linejoin:miter;stroke-width:2;"/>
   </g>
   <g id="patch_80">
    <path clip-path="url(#p2bbe40b296)" d="M 93.204879 90.36047 
C 93.795939 90.36047 94.36287 89.675452 94.780812 88.456282 
C 95.198755 87.237112 95.433585 85.583331 95.433585 83.859165 
C 95.433585 82.134998 95.198755 80.481217 94.780812 79.262047 
C 94.36287 78.042878 93.795939 77.357859 93.204879 77.357859 
C 92.613819 77.357859 92.046888 78.042878 91.628946 79.262047 
C 91.211004 80.481217 90.976173 82.134998 90.976173 83.859165 
C 90.976173 85.583331 91.211004 87.237112 91.628946 88.456282 
C 92.046888 89.675452 92.613819 90.36047 93.204879 90.36047 
z
" style="fill:#008000;opacity:0.2;stroke:#008000;stroke-linejoin:miter;stroke-width:2;"/>
   </g>
   <g id="patch_81">
    <path clip-path="url(#p2bbe40b296)" d="M 123.738153 182.679008 
C 124.329212 182.679008 124.896143 181.99399 125.314086 180.77482 
C 125.732028 179.55565 125.966859 177.901869 125.966859 176.177703 
C 125.966859 174.453536 125.732028 172.799755 125.314086 171.580585 
C 124.896143 170.361416 124.329212 169.676397 123.738153 169.676397 
C 123.147093 169.676397 122.580162 170.361416 122.162219 171.580585 
C 121.744277 172.799755 121.509447 174.453536 121.509447 176.177703 
C 121.509447 177.901869 121.744277 179.55565 122.162219 180.77482 
C 122.580162 181.99399 123.147093 182.679008 123.738153 182.679008 
z
" style="fill:#008000;opacity:0.2;stroke:#008000;stroke-linejoin:miter;stroke-width:2;"/>
   </g>
   <g id="patch_82">
    <path clip-path="url(#p2bbe40b296)" d="M 93.204879 274.347416 
C 95.569118 274.347416 97.836842 271.607341 99.508612 266.730663 
C 101.180381 261.853984 102.119704 255.238859 102.119704 248.342194 
C 102.119704 241.445528 101.180381 234.830404 99.508612 229.953725 
C 97.836842 225.077046 95.569118 222.336972 93.204879 222.336972 
C 90.84064 222.336972 88.572916 225.077046 86.901146 229.953725 
C 85.229377 234.830404 84.290055 241.445528 84.290055 248.342194 
C 84.290055 255.238859 85.229377 261.853984 86.901146 266.730663 
C 88.572916 271.607341 90.84064 274.347416 93.204879 274.347416 
z
" style="fill:none;opacity:0.2;stroke:#ff0000;stroke-linejoin:miter;stroke-width:2;"/>
   </g>
   <g id="patch_83">
    <path clip-path="url(#p2bbe40b296)" d="M 93.204879 306.853943 
C 95.569118 306.853943 97.836842 304.113869 99.508612 299.23719 
C 101.180381 294.360511 102.119704 287.745387 102.119704 280.848721 
C 102.119704 273.952056 101.180381 267.336931 99.508612 262.460252 
C 97.836842 257.583573 95.569118 254.843499 93.204879 254.843499 
C 90.84064 254.843499 88.572916 257.583573 86.901146 262.460252 
C 85.229377 267.336931 84.290055 273.952056 84.290055 280.848721 
C 84.290055 287.745387 85.229377 294.360511 86.901146 299.23719 
C 88.572916 304.113869 90.84064 306.853943 93.204879 306.853943 
z
" style="fill:none;opacity:0.2;stroke:#0000ff;stroke-linejoin:miter;stroke-width:2;"/>
   </g>
   <g id="patch_84">
    <path clip-path="url(#p2bbe40b296)" d="M 93.204879 261.344805 
C 94.386999 261.344805 95.520861 259.974768 96.356746 257.536428 
C 97.19263 255.098089 97.662291 251.790526 97.662291 248.342194 
C 97.662291 244.893861 97.19263 241.586299 96.356746 239.147959 
C 95.520861 236.70962 94.386999 235.339583 93.204879 235.339583 
C 92.02276 235.339583 90.888897 236.70962 90.053013 239.147959 
C 89.217128 241.586299 88.747467 244.893861 88.747467 248.342194 
C 88.747467 251.790526 89.217128 255.098089 90.053013 257.536428 
C 90.888897 259.974768 92.02276 261.344805 93.204879 261.344805 
z
" style="fill:none;opacity:0.2;stroke:#008000;stroke-linejoin:miter;stroke-width:2;"/>
   </g>
   <g id="patch_85">
    <path clip-path="url(#p2bbe40b296)" d="M 93.204879 293.851332 
C 94.386999 293.851332 95.520861 292.481295 96.356746 290.042956 
C 97.19263 287.604616 97.662291 284.297054 97.662291 280.848721 
C 97.662291 277.400388 97.19263 274.092826 96.356746 271.654487 
C 95.520861 269.216147 94.386999 267.84611 93.204879 267.84611 
C 92.02276 267.84611 90.888897 269.216147 90.053013 271.654487 
C 89.217128 274.092826 88.747467 277.400388 88.747467 280.848721 
C 88.747467 284.297054 89.217128 287.604616 90.053013 290.042956 
C 90.888897 292.481295 92.02276 293.851332 93.204879 293.851332 
z
" style="fill:none;opacity:0.2;stroke:#008000;stroke-linejoin:miter;stroke-width:2;"/>
   </g>
   <g id="patch_86">
    <path d="M 93.204879 264.595457 
Q 77.938242 220.38658 62.671606 176.177703 
" style="fill:none;opacity:0.5;stroke:#008000;stroke-linecap:round;stroke-width:2;"/>
   </g>
   <g id="patch_87">
    <path d="M 93.204879 249.756407 
Q 93.204879 263.593517 93.204879 277.430626 
" style="fill:none;opacity:0.5;stroke:#800080;stroke-linecap:round;stroke-width:2;"/>
    <path d="M 91.704879 251.256407 
L 93.204879 249.756407 
L 94.704879 251.256407 
" style="fill:none;opacity:0.5;stroke:#800080;stroke-linecap:round;stroke-width:2;"/>
    <path d="M 94.704879 275.930626 
L 93.204879 277.430626 
L 91.704879 275.930626 
" style="fill:none;opacity:0.5;stroke:#800080;stroke-linecap:round;stroke-width:2;"/>
   </g>
   <g id="patch_88">
    <path d="M 62.671606 176.177703 
Q 77.938242 130.018434 93.204879 83.859165 
" style="fill:none;opacity:0.5;stroke:#008000;stroke-linecap:round;stroke-width:2;"/>
   </g>
   <g id="patch_89">
    <path d="M 57.334204 144.415704 
Q 62.50599 175.19215 67.677776 205.968597 
" style="fill:none;opacity:0.5;stroke:#800080;stroke-linecap:round;stroke-width:2;"/>
    <path d="M 56.103525 146.143543 
L 57.334204 144.415704 
L 59.062043 145.646383 
" style="fill:none;opacity:0.5;stroke:#800080;stroke-linecap:round;stroke-width:2;"/>
    <path d="M 68.908455 204.240757 
L 67.677776 205.968597 
L 65.949936 204.737918 
" style="fill:none;opacity:0.5;stroke:#800080;stroke-linecap:round;stroke-width:2;"/>
   </g>
   <g id="patch_90">
    <path d="M 93.204879 83.859165 
Q 108.471516 130.018434 123.738153 176.177703 
" style="fill:none;opacity:0.5;stroke:#008000;stroke-linecap:round;stroke-width:2;"/>
   </g>
   <g id="patch_91">
    <path d="M 93.204879 36.513587 
Q 93.204879 82.85772 93.204879 129.201853 
" style="fill:none;opacity:0.5;stroke:#800080;stroke-linecap:round;stroke-width:2;"/>
    <path d="M 91.704879 38.013587 
L 93.204879 36.513587 
L 94.704879 38.013587 
" style="fill:none;opacity:0.5;stroke:#800080;stroke-linecap:round;stroke-width:2;"/>
    <path d="M 94.704879 127.701853 
L 93.204879 129.201853 
L 91.704879 127.701853 
" style="fill:none;opacity:0.5;stroke:#800080;stroke-linecap:round;stroke-width:2;"/>
   </g>
   <g id="patch_92">
    <path d="M 123.738153 176.177703 
Q 108.471516 220.38658 93.204879 264.595457 
" style="fill:none;opacity:0.5;stroke:#008000;stroke-linecap:round;stroke-width:2;"/>
   </g>
   <g id="patch_93">
    <path d="M 129.075554 144.415704 
Q 123.903768 175.19215 118.731983 205.968597 
" style="fill:none;opacity:0.5;stroke:#800080;stroke-linecap:round;stroke-width:2;"/>
    <path d="M 127.347715 145.646383 
L 129.075554 144.415704 
L 130.306233 146.143543 
" style="fill:none;opacity:0.5;stroke:#800080;stroke-linecap:round;stroke-width:2;"/>
    <path d="M 120.459822 204.737918 
L 118.731983 205.968597 
L 117.501303 204.240757 
" style="fill:none;opacity:0.5;stroke:#800080;stroke-linecap:round;stroke-width:2;"/>
   </g>
   <g id="line2d_1">
    <path clip-path="url(#p2bbe40b296)" d="M 241.636705 248.342194 
L 205.531666 143.021045 
L 241.636705 35.099373 
L 277.741744 143.021045 
" style="fill:none;stroke:#ff0000;stroke-linecap:square;stroke-width:0.2;"/>
   </g>
   <g id="line2d_2">
    <path clip-path="url(#p2bbe40b296)" d="M 241.636705 280.848721 
L 216.675197 209.334361 
L 241.636705 132.618956 
L 266.598213 209.334361 
" style="fill:none;stroke:#0000ff;stroke-linecap:square;stroke-width:0.2;"/>
   </g>
   <g id="line2d_3">
    <path clip-path="url(#p2bbe40b296)" d="M 390.068531 248.342194 
L 353.963492 143.021045 
L 390.068531 35.099373 
L 426.17357 143.021045 
" style="fill:none;stroke:#ff0000;stroke-linecap:square;stroke-width:0.2;"/>
   </g>
   <g id="line2d_4">
    <path clip-path="url(#p2bbe40b296)" d="M 390.068531 280.848721 
L 365.107023 209.334361 
L 390.068531 132.618956 
L 415.030039 209.334361 
" style="fill:none;stroke:#0000ff;stroke-linecap:square;stroke-width:0.2;"/>
   </g>
   <g id="line2d_5">
    <path clip-path="url(#p2bbe40b296)" d="M 93.204879 248.342194 
L 57.09984 143.021045 
L 93.204879 35.099373 
L 129.309918 143.021045 
" style="fill:none;stroke:#ff0000;stroke-linecap:square;stroke-width:0.2;"/>
   </g>
   <g id="line2d_6">
    <path clip-path="url(#p2bbe40b296)" d="M 93.204879 280.848721 
L 68.243371 209.334361 
L 93.204879 132.618956 
L 118.166387 209.334361 
" style="fill:none;stroke:#0000ff;stroke-linecap:square;stroke-width:0.2;"/>
   </g>
  </g>
 </g>
 <defs>
  <clipPath id="p2bbe40b296">
   <rect height="307.51175" width="409.903625" x="37.576375" y="13.32"/>
  </clipPath>
 </defs>
</svg>
