<?xml version="1.0" encoding="utf-8" standalone="no"?>
<!DOCTYPE svg PUBLIC "-//W3C//DTD SVG 1.1//EN"
  "http://www.w3.org/Graphics/SVG/1.1/DTD/svg11.dtd">
<!-- Created with matplotlib (http://matplotlib.org/) -->
<svg height="345.6pt" version="1.1" viewBox="0 0 460.8 345.6" width="460.8pt" xmlns="http://www.w3.org/2000/svg" xmlns:xlink="http://www.w3.org/1999/xlink">
 <defs>
  <style type="text/css">
*{stroke-linecap:butt;stroke-linejoin:round;}
  </style>
 </defs>
 <g id="figure_1">
  <g id="patch_1">
   <path d="M 0 345.6 
L 460.8 345.6 
L 460.8 0 
L 0 0 
z
" style="fill:#ffffff;"/>
  </g>
  <g id="axes_1">
   <g id="patch_2">
    <path clip-path="url(#p84135522a6)" d="M 57.196792 42.615951 
C 57.458928 42.615951 57.710363 41.808943 57.895721 40.372661 
C 58.081079 38.936379 58.185226 36.988089 58.185226 34.956879 
C 58.185226 32.925669 58.081079 30.977379 57.895721 29.541097 
C 57.710363 28.104815 57.458928 27.297807 57.196792 27.297807 
C 56.934656 27.297807 56.683222 28.104815 56.497864 29.541097 
C 56.312506 30.977379 56.208358 32.925669 56.208358 34.956879 
C 56.208358 36.988089 56.312506 38.936379 56.497864 40.372661 
C 56.683222 41.808943 56.934656 42.615951 57.196792 42.615951 
z
" style="fill:#ff0000;opacity:0.2;stroke:#ff0000;stroke-linejoin:miter;stroke-width:2;"/>
   </g>
   <g id="patch_3">
    <path clip-path="url(#p84135522a6)" d="M 427.859583 42.615951 
C 428.121719 42.615951 428.373153 41.808943 428.558511 40.372661 
C 428.743869 38.936379 428.848017 36.988089 428.848017 34.956879 
C 428.848017 32.925669 428.743869 30.977379 428.558511 29.541097 
C 428.373153 28.104815 428.121719 27.297807 427.859583 27.297807 
C 427.597447 27.297807 427.346012 28.104815 427.160654 29.541097 
C 426.975296 30.977379 426.871149 32.925669 426.871149 34.956879 
C 426.871149 36.988089 426.975296 38.936379 427.160654 40.372661 
C 427.346012 41.808943 427.597447 42.615951 427.859583 42.615951 
z
" style="fill:#ff0000;opacity:0.2;stroke:#ff0000;stroke-linejoin:miter;stroke-width:2;"/>
   </g>
   <g id="patch_4">
    <path clip-path="url(#p84135522a6)" d="M 427.859583 306.853943 
C 428.121719 306.853943 428.373153 306.046935 428.558511 304.610653 
C 428.743869 303.174371 428.848017 301.226081 428.848017 299.194871 
C 428.848017 297.163661 428.743869 295.215371 428.558511 293.779089 
C 428.373153 292.342807 428.121719 291.535799 427.859583 291.535799 
C 427.597447 291.535799 427.346012 292.342807 427.160654 293.779089 
C 426.975296 295.215371 426.871149 297.163661 426.871149 299.194871 
C 426.871149 301.226081 426.975296 303.174371 427.160654 304.610653 
C 427.346012 306.046935 427.597447 306.853943 427.859583 306.853943 
z
" style="fill:#ff0000;opacity:0.2;stroke:#ff0000;stroke-linejoin:miter;stroke-width:2;"/>
   </g>
   <g id="patch_5">
    <path clip-path="url(#p84135522a6)" d="M 57.196792 306.853943 
C 57.458928 306.853943 57.710363 306.046935 57.895721 304.610653 
C 58.081079 303.174371 58.185226 301.226081 58.185226 299.194871 
C 58.185226 297.163661 58.081079 295.215371 57.895721 293.779089 
C 57.710363 292.342807 57.458928 291.535799 57.196792 291.535799 
C 56.934656 291.535799 56.683222 292.342807 56.497864 293.779089 
C 56.312506 295.215371 56.208358 297.163661 56.208358 299.194871 
C 56.208358 301.226081 56.312506 303.174371 56.497864 304.610653 
C 56.683222 306.046935 56.934656 306.853943 57.196792 306.853943 
z
" style="fill:#ff0000;opacity:0.2;stroke:#ff0000;stroke-linejoin:miter;stroke-width:2;"/>
   </g>
   <g id="patch_6">
    <path clip-path="url(#p84135522a6)" d="M 57.196792 96.229457 
C 57.458928 96.229457 57.710363 95.422449 57.895721 93.986167 
C 58.081079 92.549884 58.185226 90.601594 58.185226 88.570385 
C 58.185226 86.539175 58.081079 84.590885 57.895721 83.154603 
C 57.710363 81.718321 57.458928 80.911312 57.196792 80.911312 
C 56.934656 80.911312 56.683222 81.718321 56.497864 83.154603 
C 56.312506 84.590885 56.208358 86.539175 56.208358 88.570385 
C 56.208358 90.601594 56.312506 92.549884 56.497864 93.986167 
C 56.683222 95.422449 56.934656 96.229457 57.196792 96.229457 
z
" style="fill:#0000ff;opacity:0.2;stroke:#0000ff;stroke-linejoin:miter;stroke-width:2;"/>
   </g>
   <g id="patch_7">
    <path clip-path="url(#p84135522a6)" d="M 427.859583 96.229457 
C 428.121719 96.229457 428.373153 95.422449 428.558511 93.986167 
C 428.743869 92.549884 428.848017 90.601594 428.848017 88.570385 
C 428.848017 86.539175 428.743869 84.590885 428.558511 83.154603 
C 428.373153 81.718321 428.121719 80.911312 427.859583 80.911312 
C 427.597447 80.911312 427.346012 81.718321 427.160654 83.154603 
C 426.975296 84.590885 426.871149 86.539175 426.871149 88.570385 
C 426.871149 90.601594 426.975296 92.549884 427.160654 93.986167 
C 427.346012 95.422449 427.597447 96.229457 427.859583 96.229457 
z
" style="fill:#0000ff;opacity:0.2;stroke:#0000ff;stroke-linejoin:miter;stroke-width:2;"/>
   </g>
   <g id="patch_8">
    <path clip-path="url(#p84135522a6)" d="M 427.859583 283.876726 
C 428.121719 283.876726 428.373153 283.069718 428.558511 281.633436 
C 428.743869 280.197154 428.848017 278.248864 428.848017 276.217654 
C 428.848017 274.186445 428.743869 272.238155 428.558511 270.801872 
C 428.373153 269.36559 428.121719 268.558582 427.859583 268.558582 
C 427.597447 268.558582 427.346012 269.36559 427.160654 270.801872 
C 426.975296 272.238155 426.871149 274.186445 426.871149 276.217654 
C 426.871149 278.248864 426.975296 280.197154 427.160654 281.633436 
C 427.346012 283.069718 427.597447 283.876726 427.859583 283.876726 
z
" style="fill:#0000ff;opacity:0.2;stroke:#0000ff;stroke-linejoin:miter;stroke-width:2;"/>
   </g>
   <g id="patch_9">
    <path clip-path="url(#p84135522a6)" d="M 57.196792 283.876726 
C 57.458928 283.876726 57.710363 283.069718 57.895721 281.633436 
C 58.081079 280.197154 58.185226 278.248864 58.185226 276.217654 
C 58.185226 274.186445 58.081079 272.238155 57.895721 270.801872 
C 57.710363 269.36559 57.458928 268.558582 57.196792 268.558582 
C 56.934656 268.558582 56.683222 269.36559 56.497864 270.801872 
C 56.312506 272.238155 56.208358 274.186445 56.208358 276.217654 
C 56.208358 278.248864 56.312506 280.197154 56.497864 281.633436 
C 56.683222 283.069718 56.934656 283.876726 57.196792 283.876726 
z
" style="fill:#0000ff;opacity:0.2;stroke:#0000ff;stroke-linejoin:miter;stroke-width:2;"/>
   </g>
   <g id="patch_10">
    <path clip-path="url(#p84135522a6)" d="M 57.196792 34.956879 
L 427.859583 34.956879 
L 427.859583 299.194871 
L 57.196792 299.194871 
L 57.196792 34.956879 
" style="fill:none;stroke:#ff0000;stroke-linejoin:miter;stroke-width:0.5;"/>
   </g>
   <g id="patch_11">
    <path clip-path="url(#p84135522a6)" d="M 57.196792 88.570385 
L 427.859583 88.570385 
L 427.859583 276.217654 
L 57.196792 276.217654 
L 57.196792 88.570385 
" style="fill:none;stroke:#0000ff;stroke-linejoin:miter;stroke-width:0.5;"/>
   </g>
   <g id="[&quot;g_s&quot;:1,&quot;g_t&quot;:1,&quot;coords&quot;:[[50.0, -458.0],[50.0, -472.0]],&quot;certainty&quot;:10]">
    <path clip-path="url(#p84135522a6)" d="M 57.196792 56.019328 
C 57.917665 56.019328 58.609111 53.800055 59.118845 49.850279 
C 59.62858 45.900503 59.914986 40.542706 59.914986 34.956879 
C 59.914986 29.371052 59.62858 24.013255 59.118845 20.063479 
C 58.609111 16.113703 57.917665 13.89443 57.196792 13.89443 
C 56.475919 13.89443 55.784473 16.113703 55.274739 20.063479 
C 54.765004 24.013255 54.478598 29.371052 54.478598 34.956879 
C 54.478598 40.542706 54.765004 45.900503 55.274739 49.850279 
C 55.784473 53.800055 56.475919 56.019328 57.196792 56.019328 
z
" style="fill:#0000ff;opacity:0.2;stroke:#0000ff;stroke-linejoin:miter;stroke-width:2;"/>
   </g>
   <g id="[&quot;g_s&quot;:1,&quot;g_t&quot;:1,&quot;coords&quot;:[[50.0, -472.0],[50.0, -458.0]],&quot;certainty&quot;:10]">
    <path clip-path="url(#p84135522a6)" d="M 57.196792 109.632833 
C 57.917665 109.632833 58.609111 107.413561 59.118845 103.463785 
C 59.62858 99.514009 59.914986 94.156211 59.914986 88.570385 
C 59.914986 82.984558 59.62858 77.62676 59.118845 73.676984 
C 58.609111 69.727208 57.917665 67.507936 57.196792 67.507936 
C 56.475919 67.507936 55.784473 69.727208 55.274739 73.676984 
C 54.765004 77.62676 54.478598 82.984558 54.478598 88.570385 
C 54.478598 94.156211 54.765004 99.514009 55.274739 103.463785 
C 55.784473 107.413561 56.475919 109.632833 57.196792 109.632833 
z
" style="fill:#ff0000;opacity:0.2;stroke:#ff0000;stroke-linejoin:miter;stroke-width:2;"/>
   </g>
   <g id="patch_12">
    <path d="M 57.196792 34.956879 
Q 57.196792 60.763942 57.196792 84.62646 
" style="fill:none;opacity:0.5;stroke:#0000ff;stroke-linecap:round;stroke-width:2.75;"/>
    <path d="M 58.696792 83.12646 
L 57.196792 84.62646 
L 55.696792 83.12646 
" style="fill:none;opacity:0.5;stroke:#0000ff;stroke-linecap:round;stroke-width:2.75;"/>
   </g>
   <g id="[&quot;g_s&quot;:2,&quot;g_t&quot;:2,&quot;coords&quot;:[[800.0, -458.0],[800.0, -472.0]],&quot;certainty&quot;:11]">
    <path clip-path="url(#p84135522a6)" d="M 427.859583 57.934096 
C 428.64599 57.934096 429.400294 55.513071 429.956368 51.204225 
C 430.512442 46.895378 430.824885 41.050508 430.824885 34.956879 
C 430.824885 28.86325 430.512442 23.01838 429.956368 18.709533 
C 429.400294 14.400687 428.64599 11.979662 427.859583 11.979662 
C 427.073176 11.979662 426.318872 14.400687 425.762798 18.709533 
C 425.206724 23.01838 424.894281 28.86325 424.894281 34.956879 
C 424.894281 41.050508 425.206724 46.895378 425.762798 51.204225 
C 426.318872 55.513071 427.073176 57.934096 427.859583 57.934096 
z
" style="fill:#0000ff;opacity:0.2;stroke:#0000ff;stroke-linejoin:miter;stroke-width:2;"/>
   </g>
   <g id="[&quot;g_s&quot;:2,&quot;g_t&quot;:2,&quot;coords&quot;:[[800.0, -472.0],[800.0, -458.0]],&quot;certainty&quot;:11]">
    <path clip-path="url(#p84135522a6)" d="M 427.859583 111.547601 
C 428.64599 111.547601 429.400294 109.126577 429.956368 104.81773 
C 430.512442 100.508884 430.824885 94.664014 430.824885 88.570385 
C 430.824885 82.476756 430.512442 76.631885 429.956368 72.323039 
C 429.400294 68.014192 428.64599 65.593168 427.859583 65.593168 
C 427.073176 65.593168 426.318872 68.014192 425.762798 72.323039 
C 425.206724 76.631885 424.894281 82.476756 424.894281 88.570385 
C 424.894281 94.664014 425.206724 100.508884 425.762798 104.81773 
C 426.318872 109.126577 427.073176 111.547601 427.859583 111.547601 
z
" style="fill:#ff0000;opacity:0.2;stroke:#ff0000;stroke-linejoin:miter;stroke-width:2;"/>
   </g>
   <g id="patch_13">
    <path d="M 427.859583 34.956879 
Q 427.859583 60.763942 427.859583 84.449684 
" style="fill:none;opacity:0.5;stroke:#0000ff;stroke-linecap:round;stroke-width:3;"/>
    <path d="M 429.359583 82.949684 
L 427.859583 84.449684 
L 426.359583 82.949684 
" style="fill:none;opacity:0.5;stroke:#0000ff;stroke-linecap:round;stroke-width:3;"/>
   </g>
   <g id="[&quot;g_s&quot;:3,&quot;g_t&quot;:3,&quot;coords&quot;:[[800.0, -527.0],[800.0, -521.0]],&quot;certainty&quot;:11]">
    <path clip-path="url(#p84135522a6)" d="M 427.859583 322.172088 
C 428.64599 322.172088 429.400294 319.751063 429.956368 315.442217 
C 430.512442 311.13337 430.824885 305.2885 430.824885 299.194871 
C 430.824885 293.101242 430.512442 287.256372 429.956368 282.947525 
C 429.400294 278.638679 428.64599 276.217654 427.859583 276.217654 
C 427.073176 276.217654 426.318872 278.638679 425.762798 282.947525 
C 425.206724 287.256372 424.894281 293.101242 424.894281 299.194871 
C 424.894281 305.2885 425.206724 311.13337 425.762798 315.442217 
C 426.318872 319.751063 427.073176 322.172088 427.859583 322.172088 
z
" style="fill:#0000ff;opacity:0.2;stroke:#0000ff;stroke-linejoin:miter;stroke-width:2;"/>
   </g>
   <g id="[&quot;g_s&quot;:3,&quot;g_t&quot;:3,&quot;coords&quot;:[[800.0, -521.0],[800.0, -527.0]],&quot;certainty&quot;:11]">
    <path clip-path="url(#p84135522a6)" d="M 427.859583 299.194871 
C 428.64599 299.194871 429.400294 296.773846 429.956368 292.465 
C 430.512442 288.156154 430.824885 282.311283 430.824885 276.217654 
C 430.824885 270.124025 430.512442 264.279155 429.956368 259.970309 
C 429.400294 255.661462 428.64599 253.240438 427.859583 253.240438 
C 427.073176 253.240438 426.318872 255.661462 425.762798 259.970309 
C 425.206724 264.279155 424.894281 270.124025 424.894281 276.217654 
C 424.894281 282.311283 425.206724 288.156154 425.762798 292.465 
C 426.318872 296.773846 427.073176 299.194871 427.859583 299.194871 
z
" style="fill:#ff0000;opacity:0.2;stroke:#ff0000;stroke-linejoin:miter;stroke-width:2;"/>
   </g>
   <g id="patch_14">
    <path d="M 427.859583 299.194871 
Q 427.859583 288.706187 427.859583 280.338823 
" style="fill:none;opacity:0.5;stroke:#0000ff;stroke-linecap:round;stroke-width:3;"/>
    <path d="M 426.359583 281.838823 
L 427.859583 280.338823 
L 429.359583 281.838823 
" style="fill:none;opacity:0.5;stroke:#0000ff;stroke-linecap:round;stroke-width:3;"/>
   </g>
   <g id="[&quot;g_s&quot;:4,&quot;g_t&quot;:4,&quot;coords&quot;:[[50.0, -527.0],[50.0, -521.0]],&quot;certainty&quot;:12]">
    <path clip-path="url(#p84135522a6)" d="M 57.196792 324.086856 
C 58.048733 324.086856 58.865896 321.464079 59.46831 316.796162 
C 60.070723 312.128245 60.409203 305.796302 60.409203 299.194871 
C 60.409203 292.593439 60.070723 286.261497 59.46831 281.59358 
C 58.865896 276.925663 58.048733 274.302886 57.196792 274.302886 
C 56.344851 274.302886 55.527688 276.925663 54.925275 281.59358 
C 54.322861 286.261497 53.984381 292.593439 53.984381 299.194871 
C 53.984381 305.796302 54.322861 312.128245 54.925275 316.796162 
C 55.527688 321.464079 56.344851 324.086856 57.196792 324.086856 
z
" style="fill:#0000ff;opacity:0.2;stroke:#0000ff;stroke-linejoin:miter;stroke-width:2;"/>
   </g>
   <g id="[&quot;g_s&quot;:4,&quot;g_t&quot;:4,&quot;coords&quot;:[[50.0, -521.0],[50.0, -527.0]],&quot;certainty&quot;:12]">
    <path clip-path="url(#p84135522a6)" d="M 57.196792 301.109639 
C 58.048733 301.109639 58.865896 298.486862 59.46831 293.818945 
C 60.070723 289.151028 60.409203 282.819086 60.409203 276.217654 
C 60.409203 269.616223 60.070723 263.28428 59.46831 258.616363 
C 58.865896 253.948446 58.048733 251.32567 57.196792 251.32567 
C 56.344851 251.32567 55.527688 253.948446 54.925275 258.616363 
C 54.322861 263.28428 53.984381 269.616223 53.984381 276.217654 
C 53.984381 282.819086 54.322861 289.151028 54.925275 293.818945 
C 55.527688 298.486862 56.344851 301.109639 57.196792 301.109639 
z
" style="fill:#ff0000;opacity:0.2;stroke:#ff0000;stroke-linejoin:miter;stroke-width:2;"/>
   </g>
   <g id="patch_15">
    <path d="M 57.196792 299.194871 
Q 57.196792 288.706187 57.196792 280.515599 
" style="fill:none;opacity:0.5;stroke:#0000ff;stroke-linecap:round;stroke-width:3.25;"/>
    <path d="M 55.696792 282.015599 
L 57.196792 280.515599 
L 58.696792 282.015599 
" style="fill:none;opacity:0.5;stroke:#0000ff;stroke-linecap:round;stroke-width:3.25;"/>
   </g>
   <g id="[&quot;g_s&quot;:1,&quot;g_t&quot;:1,&quot;coords&quot;:[[50.0, -472.0],[50.0, -458.0]],&quot;certainty&quot;:10]">
    <path clip-path="url(#p84135522a6)" d="M 57.196792 109.632833 
C 57.917665 109.632833 58.609111 107.413561 59.118845 103.463785 
C 59.62858 99.514009 59.914986 94.156211 59.914986 88.570385 
C 59.914986 82.984558 59.62858 77.62676 59.118845 73.676984 
C 58.609111 69.727208 57.917665 67.507936 57.196792 67.507936 
C 56.475919 67.507936 55.784473 69.727208 55.274739 73.676984 
C 54.765004 77.62676 54.478598 82.984558 54.478598 88.570385 
C 54.478598 94.156211 54.765004 99.514009 55.274739 103.463785 
C 55.784473 107.413561 56.475919 109.632833 57.196792 109.632833 
z
" style="fill:#0000ff;opacity:0.2;stroke:#0000ff;stroke-linejoin:miter;stroke-width:2;"/>
   </g>
   <g id="[&quot;g_s&quot;:1,&quot;g_t&quot;:1,&quot;coords&quot;:[[50.0, -458.0],[50.0, -472.0]],&quot;certainty&quot;:10]">
    <path clip-path="url(#p84135522a6)" d="M 57.196792 56.019328 
C 57.917665 56.019328 58.609111 53.800055 59.118845 49.850279 
C 59.62858 45.900503 59.914986 40.542706 59.914986 34.956879 
C 59.914986 29.371052 59.62858 24.013255 59.118845 20.063479 
C 58.609111 16.113703 57.917665 13.89443 57.196792 13.89443 
C 56.475919 13.89443 55.784473 16.113703 55.274739 20.063479 
C 54.765004 24.013255 54.478598 29.371052 54.478598 34.956879 
C 54.478598 40.542706 54.765004 45.900503 55.274739 49.850279 
C 55.784473 53.800055 56.475919 56.019328 57.196792 56.019328 
z
" style="fill:#ff0000;opacity:0.2;stroke:#ff0000;stroke-linejoin:miter;stroke-width:2;"/>
   </g>
   <g id="patch_16">
    <path d="M 57.196792 88.570385 
Q 57.196792 62.763322 57.196792 38.900803 
" style="fill:none;opacity:0.5;stroke:#ff0000;stroke-linecap:round;stroke-width:2.75;"/>
    <path d="M 55.696792 40.400803 
L 57.196792 38.900803 
L 58.696792 40.400803 
" style="fill:none;opacity:0.5;stroke:#ff0000;stroke-linecap:round;stroke-width:2.75;"/>
   </g>
   <g id="[&quot;g_s&quot;:2,&quot;g_t&quot;:2,&quot;coords&quot;:[[800.0, -472.0],[800.0, -458.0]],&quot;certainty&quot;:11]">
    <path clip-path="url(#p84135522a6)" d="M 427.859583 111.547601 
C 428.64599 111.547601 429.400294 109.126577 429.956368 104.81773 
C 430.512442 100.508884 430.824885 94.664014 430.824885 88.570385 
C 430.824885 82.476756 430.512442 76.631885 429.956368 72.323039 
C 429.400294 68.014192 428.64599 65.593168 427.859583 65.593168 
C 427.073176 65.593168 426.318872 68.014192 425.762798 72.323039 
C 425.206724 76.631885 424.894281 82.476756 424.894281 88.570385 
C 424.894281 94.664014 425.206724 100.508884 425.762798 104.81773 
C 426.318872 109.126577 427.073176 111.547601 427.859583 111.547601 
z
" style="fill:#0000ff;opacity:0.2;stroke:#0000ff;stroke-linejoin:miter;stroke-width:2;"/>
   </g>
   <g id="[&quot;g_s&quot;:2,&quot;g_t&quot;:2,&quot;coords&quot;:[[800.0, -458.0],[800.0, -472.0]],&quot;certainty&quot;:11]">
    <path clip-path="url(#p84135522a6)" d="M 427.859583 57.934096 
C 428.64599 57.934096 429.400294 55.513071 429.956368 51.204225 
C 430.512442 46.895378 430.824885 41.050508 430.824885 34.956879 
C 430.824885 28.86325 430.512442 23.01838 429.956368 18.709533 
C 429.400294 14.400687 428.64599 11.979662 427.859583 11.979662 
C 427.073176 11.979662 426.318872 14.400687 425.762798 18.709533 
C 425.206724 23.01838 424.894281 28.86325 424.894281 34.956879 
C 424.894281 41.050508 425.206724 46.895378 425.762798 51.204225 
C 426.318872 55.513071 427.073176 57.934096 427.859583 57.934096 
z
" style="fill:#ff0000;opacity:0.2;stroke:#ff0000;stroke-linejoin:miter;stroke-width:2;"/>
   </g>
   <g id="patch_17">
    <path d="M 427.859583 88.570385 
Q 427.859583 62.763322 427.859583 39.07758 
" style="fill:none;opacity:0.5;stroke:#ff0000;stroke-linecap:round;stroke-width:3;"/>
    <path d="M 426.359583 40.57758 
L 427.859583 39.07758 
L 429.359583 40.57758 
" style="fill:none;opacity:0.5;stroke:#ff0000;stroke-linecap:round;stroke-width:3;"/>
   </g>
   <g id="[&quot;g_s&quot;:3,&quot;g_t&quot;:3,&quot;coords&quot;:[[800.0, -521.0],[800.0, -527.0]],&quot;certainty&quot;:11]">
    <path clip-path="url(#p84135522a6)" d="M 427.859583 299.194871 
C 428.64599 299.194871 429.400294 296.773846 429.956368 292.465 
C 430.512442 288.156154 430.824885 282.311283 430.824885 276.217654 
C 430.824885 270.124025 430.512442 264.279155 429.956368 259.970309 
C 429.400294 255.661462 428.64599 253.240438 427.859583 253.240438 
C 427.073176 253.240438 426.318872 255.661462 425.762798 259.970309 
C 425.206724 264.279155 424.894281 270.124025 424.894281 276.217654 
C 424.894281 282.311283 425.206724 288.156154 425.762798 292.465 
C 426.318872 296.773846 427.073176 299.194871 427.859583 299.194871 
z
" style="fill:#0000ff;opacity:0.2;stroke:#0000ff;stroke-linejoin:miter;stroke-width:2;"/>
   </g>
   <g id="[&quot;g_s&quot;:3,&quot;g_t&quot;:3,&quot;coords&quot;:[[800.0, -527.0],[800.0, -521.0]],&quot;certainty&quot;:11]">
    <path clip-path="url(#p84135522a6)" d="M 427.859583 322.172088 
C 428.64599 322.172088 429.400294 319.751063 429.956368 315.442217 
C 430.512442 311.13337 430.824885 305.2885 430.824885 299.194871 
C 430.824885 293.101242 430.512442 287.256372 429.956368 282.947525 
C 429.400294 278.638679 428.64599 276.217654 427.859583 276.217654 
C 427.073176 276.217654 426.318872 278.638679 425.762798 282.947525 
C 425.206724 287.256372 424.894281 293.101242 424.894281 299.194871 
C 424.894281 305.2885 425.206724 311.13337 425.762798 315.442217 
C 426.318872 319.751063 427.073176 322.172088 427.859583 322.172088 
z
" style="fill:#ff0000;opacity:0.2;stroke:#ff0000;stroke-linejoin:miter;stroke-width:2;"/>
   </g>
   <g id="patch_18">
    <path d="M 427.859583 276.217654 
Q 427.859583 286.706339 427.859583 295.073703 
" style="fill:none;opacity:0.5;stroke:#ff0000;stroke-linecap:round;stroke-width:3;"/>
    <path d="M 429.359583 293.573703 
L 427.859583 295.073703 
L 426.359583 293.573703 
" style="fill:none;opacity:0.5;stroke:#ff0000;stroke-linecap:round;stroke-width:3;"/>
   </g>
   <g id="[&quot;g_s&quot;:4,&quot;g_t&quot;:4,&quot;coords&quot;:[[50.0, -521.0],[50.0, -527.0]],&quot;certainty&quot;:12]">
    <path clip-path="url(#p84135522a6)" d="M 57.196792 301.109639 
C 58.048733 301.109639 58.865896 298.486862 59.46831 293.818945 
C 60.070723 289.151028 60.409203 282.819086 60.409203 276.217654 
C 60.409203 269.616223 60.070723 263.28428 59.46831 258.616363 
C 58.865896 253.948446 58.048733 251.32567 57.196792 251.32567 
C 56.344851 251.32567 55.527688 253.948446 54.925275 258.616363 
C 54.322861 263.28428 53.984381 269.616223 53.984381 276.217654 
C 53.984381 282.819086 54.322861 289.151028 54.925275 293.818945 
C 55.527688 298.486862 56.344851 301.109639 57.196792 301.109639 
z
" style="fill:#0000ff;opacity:0.2;stroke:#0000ff;stroke-linejoin:miter;stroke-width:2;"/>
   </g>
   <g id="[&quot;g_s&quot;:4,&quot;g_t&quot;:4,&quot;coords&quot;:[[50.0, -527.0],[50.0, -521.0]],&quot;certainty&quot;:12]">
    <path clip-path="url(#p84135522a6)" d="M 57.196792 324.086856 
C 58.048733 324.086856 58.865896 321.464079 59.46831 316.796162 
C 60.070723 312.128245 60.409203 305.796302 60.409203 299.194871 
C 60.409203 292.593439 60.070723 286.261497 59.46831 281.59358 
C 58.865896 276.925663 58.048733 274.302886 57.196792 274.302886 
C 56.344851 274.302886 55.527688 276.925663 54.925275 281.59358 
C 54.322861 286.261497 53.984381 292.593439 53.984381 299.194871 
C 53.984381 305.796302 54.322861 312.128245 54.925275 316.796162 
C 55.527688 321.464079 56.344851 324.086856 57.196792 324.086856 
z
" style="fill:#ff0000;opacity:0.2;stroke:#ff0000;stroke-linejoin:miter;stroke-width:2;"/>
   </g>
   <g id="patch_19">
    <path d="M 57.196792 276.217654 
Q 57.196792 286.706339 57.196792 294.896926 
" style="fill:none;opacity:0.5;stroke:#ff0000;stroke-linecap:round;stroke-width:3.25;"/>
    <path d="M 58.696792 293.396926 
L 57.196792 294.896926 
L 55.696792 293.396926 
" style="fill:none;opacity:0.5;stroke:#ff0000;stroke-linecap:round;stroke-width:3.25;"/>
   </g>
   <g id="patch_20">
    <path clip-path="url(#p84135522a6)" d="M 57.196792 80.911312 
C 57.852132 80.911312 58.480718 78.893792 58.944113 75.303087 
C 59.407508 71.712381 59.667877 66.841656 59.667877 61.763632 
C 59.667877 56.685608 59.407508 51.814882 58.944113 48.224177 
C 58.480718 44.633472 57.852132 42.615951 57.196792 42.615951 
C 56.541453 42.615951 55.912866 44.633472 55.449471 48.224177 
C 54.986076 51.814882 54.725707 56.685608 54.725707 61.763632 
C 54.725707 66.841656 54.986076 71.712381 55.449471 75.303087 
C 55.912866 78.893792 56.541453 80.911312 57.196792 80.911312 
z
" style="fill:#008000;opacity:0.2;stroke:#008000;stroke-linejoin:miter;stroke-width:2;"/>
   </g>
   <g id="patch_21">
    <path clip-path="url(#p84135522a6)" d="M 427.859583 80.911312 
C 428.514922 80.911312 429.143509 78.893792 429.606904 75.303087 
C 430.070299 71.712381 430.330668 66.841656 430.330668 61.763632 
C 430.330668 56.685608 430.070299 51.814882 429.606904 48.224177 
C 429.143509 44.633472 428.514922 42.615951 427.859583 42.615951 
C 427.204243 42.615951 426.575657 44.633472 426.112262 48.224177 
C 425.648867 51.814882 425.388498 56.685608 425.388498 61.763632 
C 425.388498 66.841656 425.648867 71.712381 426.112262 75.303087 
C 426.575657 78.893792 427.204243 80.911312 427.859583 80.911312 
z
" style="fill:#008000;opacity:0.2;stroke:#008000;stroke-linejoin:miter;stroke-width:2;"/>
   </g>
   <g id="patch_22">
    <path clip-path="url(#p84135522a6)" d="M 427.859583 306.853943 
C 428.514922 306.853943 429.143509 304.836423 429.606904 301.245717 
C 430.070299 297.655012 430.330668 292.784287 430.330668 287.706263 
C 430.330668 282.628238 430.070299 277.757513 429.606904 274.166808 
C 429.143509 270.576102 428.514922 268.558582 427.859583 268.558582 
C 427.204243 268.558582 426.575657 270.576102 426.112262 274.166808 
C 425.648867 277.757513 425.388498 282.628238 425.388498 287.706263 
C 425.388498 292.784287 425.648867 297.655012 426.112262 301.245717 
C 426.575657 304.836423 427.204243 306.853943 427.859583 306.853943 
z
" style="fill:#008000;opacity:0.2;stroke:#008000;stroke-linejoin:miter;stroke-width:2;"/>
   </g>
   <g id="patch_23">
    <path clip-path="url(#p84135522a6)" d="M 57.196792 306.853943 
C 57.852132 306.853943 58.480718 304.836423 58.944113 301.245717 
C 59.407508 297.655012 59.667877 292.784287 59.667877 287.706263 
C 59.667877 282.628238 59.407508 277.757513 58.944113 274.166808 
C 58.480718 270.576102 57.852132 268.558582 57.196792 268.558582 
C 56.541453 268.558582 55.912866 270.576102 55.449471 274.166808 
C 54.986076 277.757513 54.725707 282.628238 54.725707 287.706263 
C 54.725707 292.784287 54.986076 297.655012 55.449471 301.245717 
C 55.912866 304.836423 56.541453 306.853943 57.196792 306.853943 
z
" style="fill:#008000;opacity:0.2;stroke:#008000;stroke-linejoin:miter;stroke-width:2;"/>
   </g>
   <g id="patch_24">
    <path clip-path="url(#p84135522a6)" d="M 57.196792 111.547601 
C 59.81815 111.547601 62.332497 103.47752 64.186077 89.114698 
C 66.039657 74.751877 67.081133 55.268976 67.081133 34.956879 
C 67.081133 14.644782 66.039657 -4.838119 64.186077 -19.20094 
C 62.332497 -33.563762 59.81815 -41.633843 57.196792 -41.633843 
C 54.575434 -41.633843 52.061087 -33.563762 50.207507 -19.20094 
C 48.353928 -4.838119 47.312451 14.644782 47.312451 34.956879 
C 47.312451 55.268976 48.353928 74.751877 50.207507 89.114698 
C 52.061087 103.47752 54.575434 111.547601 57.196792 111.547601 
z
" style="fill:none;opacity:0.2;stroke:#ff0000;stroke-linejoin:miter;stroke-width:2;"/>
   </g>
   <g id="patch_25">
    <path clip-path="url(#p84135522a6)" d="M 57.196792 165.161107 
C 59.81815 165.161107 62.332497 157.091025 64.186077 142.728204 
C 66.039657 128.365382 67.081133 108.882482 67.081133 88.570385 
C 67.081133 68.258288 66.039657 48.775387 64.186077 34.412566 
C 62.332497 20.049744 59.81815 11.979662 57.196792 11.979662 
C 54.575434 11.979662 52.061087 20.049744 50.207507 34.412566 
C 48.353928 48.775387 47.312451 68.258288 47.312451 88.570385 
C 47.312451 108.882482 48.353928 128.365382 50.207507 142.728204 
C 52.061087 157.091025 54.575434 165.161107 57.196792 165.161107 
z
" style="fill:none;opacity:0.2;stroke:#0000ff;stroke-linejoin:miter;stroke-width:2;"/>
   </g>
   <g id="patch_26">
    <path clip-path="url(#p84135522a6)" d="M 57.196792 73.25224 
C 58.507471 73.25224 59.764644 69.217199 60.691434 62.035789 
C 61.618224 54.854378 62.138963 45.112928 62.138963 34.956879 
C 62.138963 24.800831 61.618224 15.05938 60.691434 7.877969 
C 59.764644 0.696559 58.507471 -3.338482 57.196792 -3.338482 
C 55.886113 -3.338482 54.62894 0.696559 53.70215 7.877969 
C 52.77536 15.05938 52.254622 24.800831 52.254622 34.956879 
C 52.254622 45.112928 52.77536 54.854378 53.70215 62.035789 
C 54.62894 69.217199 55.886113 73.25224 57.196792 73.25224 
z
" style="fill:none;opacity:0.2;stroke:#008000;stroke-linejoin:miter;stroke-width:2;"/>
   </g>
   <g id="patch_27">
    <path clip-path="url(#p84135522a6)" d="M 57.196792 126.865746 
C 58.507471 126.865746 59.764644 122.830705 60.691434 115.649294 
C 61.618224 108.467883 62.138963 98.726433 62.138963 88.570385 
C 62.138963 78.414336 61.618224 68.672886 60.691434 61.491475 
C 59.764644 54.310064 58.507471 50.275024 57.196792 50.275024 
C 55.886113 50.275024 54.62894 54.310064 53.70215 61.491475 
C 52.77536 68.672886 52.254622 78.414336 52.254622 88.570385 
C 52.254622 98.726433 52.77536 108.467883 53.70215 115.649294 
C 54.62894 122.830705 55.886113 126.865746 57.196792 126.865746 
z
" style="fill:none;opacity:0.2;stroke:#008000;stroke-linejoin:miter;stroke-width:2;"/>
   </g>
   <g id="patch_28">
    <path d="M 57.196792 61.763632 
Q 242.528188 61.763632 427.859583 61.763632 
" style="fill:none;opacity:0.5;stroke:#008000;stroke-linecap:round;stroke-width:2;"/>
   </g>
   <g id="patch_29">
    <path d="M 57.196792 36.371093 
Q 57.196792 60.763942 57.196792 85.15679 
" style="fill:none;opacity:0.5;stroke:#800080;stroke-linecap:round;stroke-width:2;"/>
    <path d="M 55.696792 37.871093 
L 57.196792 36.371093 
L 58.696792 37.871093 
" style="fill:none;opacity:0.5;stroke:#800080;stroke-linecap:round;stroke-width:2;"/>
    <path d="M 58.696792 83.65679 
L 57.196792 85.15679 
L 55.696792 83.65679 
" style="fill:none;opacity:0.5;stroke:#800080;stroke-linecap:round;stroke-width:2;"/>
   </g>
   <g id="patch_30">
    <path d="M 427.859583 61.763632 
Q 427.859583 174.734947 427.859583 287.706263 
" style="fill:none;opacity:0.5;stroke:#008000;stroke-linecap:round;stroke-width:2;"/>
   </g>
   <g id="patch_31">
    <path d="M 427.859583 36.371093 
Q 427.859583 60.763942 427.859583 85.15679 
" style="fill:none;opacity:0.5;stroke:#800080;stroke-linecap:round;stroke-width:2;"/>
    <path d="M 426.359583 37.871093 
L 427.859583 36.371093 
L 429.359583 37.871093 
" style="fill:none;opacity:0.5;stroke:#800080;stroke-linecap:round;stroke-width:2;"/>
    <path d="M 429.359583 83.65679 
L 427.859583 85.15679 
L 426.359583 83.65679 
" style="fill:none;opacity:0.5;stroke:#800080;stroke-linecap:round;stroke-width:2;"/>
   </g>
   <g id="patch_32">
    <path d="M 427.859583 287.706263 
Q 242.528188 287.706263 57.196792 287.706263 
" style="fill:none;opacity:0.5;stroke:#008000;stroke-linecap:round;stroke-width:2;"/>
   </g>
   <g id="patch_33">
    <path d="M 427.859583 297.780657 
Q 427.859583 288.706187 427.859583 279.631716 
" style="fill:none;opacity:0.5;stroke:#800080;stroke-linecap:round;stroke-width:2;"/>
    <path d="M 429.359583 296.280657 
L 427.859583 297.780657 
L 426.359583 296.280657 
" style="fill:none;opacity:0.5;stroke:#800080;stroke-linecap:round;stroke-width:2;"/>
    <path d="M 426.359583 281.131716 
L 427.859583 279.631716 
L 429.359583 281.131716 
" style="fill:none;opacity:0.5;stroke:#800080;stroke-linecap:round;stroke-width:2;"/>
   </g>
   <g id="patch_34">
    <path d="M 57.196792 287.706263 
Q 57.196792 174.734947 57.196792 61.763632 
" style="fill:none;opacity:0.5;stroke:#008000;stroke-linecap:round;stroke-width:2;"/>
   </g>
   <g id="patch_35">
    <path d="M 57.196792 297.780657 
Q 57.196792 288.706187 57.196792 279.631716 
" style="fill:none;opacity:0.5;stroke:#800080;stroke-linecap:round;stroke-width:2;"/>
    <path d="M 58.696792 296.280657 
L 57.196792 297.780657 
L 55.696792 296.280657 
" style="fill:none;opacity:0.5;stroke:#800080;stroke-linecap:round;stroke-width:2;"/>
    <path d="M 55.696792 281.131716 
L 57.196792 279.631716 
L 58.696792 281.131716 
" style="fill:none;opacity:0.5;stroke:#800080;stroke-linecap:round;stroke-width:2;"/>
   </g>
   <g id="line2d_1">
    <path clip-path="url(#p84135522a6)" d="M 57.196792 34.956879 
L 427.859583 34.956879 
L 427.859583 299.194871 
L 57.196792 299.194871 
" style="fill:none;stroke:#ff0000;stroke-linecap:square;stroke-width:0.2;"/>
   </g>
   <g id="line2d_2">
    <path clip-path="url(#p84135522a6)" d="M 57.196792 88.570385 
L 427.859583 88.570385 
L 427.859583 276.217654 
L 57.196792 276.217654 
" style="fill:none;stroke:#0000ff;stroke-linecap:square;stroke-width:0.2;"/>
   </g>
  </g>
 </g>
 <defs>
  <clipPath id="p84135522a6">
   <rect height="307.51175" width="409.903625" x="37.576375" y="13.32"/>
  </clipPath>
 </defs>
</svg>
