<?xml version="1.0" encoding="utf-8" standalone="no"?>
<!DOCTYPE svg PUBLIC "-//W3C//DTD SVG 1.1//EN"
  "http://www.w3.org/Graphics/SVG/1.1/DTD/svg11.dtd">
<!-- Created with matplotlib (http://matplotlib.org/) -->
<svg height="345.6pt" version="1.1" viewBox="0 0 460.8 345.6" width="460.8pt" xmlns="http://www.w3.org/2000/svg" xmlns:xlink="http://www.w3.org/1999/xlink">
 <defs>
  <style type="text/css">
*{stroke-linecap:butt;stroke-linejoin:round;}
  </style>
 </defs>
 <g id="figure_1">
  <g id="patch_1">
   <path d="M 0 345.6 
L 460.8 345.6 
L 460.8 0 
L 0 0 
z
" style="fill:#ffffff;"/>
  </g>
  <g id="axes_1">
   <g id="patch_2">
    <path clip-path="url(#p364ad3460f)" d="M 411.414583 222.444275 
C 411.876923 222.444275 412.320389 222.329883 412.647313 222.126294 
C 412.974236 221.922704 413.157926 221.646539 413.157926 221.35862 
C 413.157926 221.070701 412.974236 220.794535 412.647313 220.590946 
C 412.320389 220.387356 411.876923 220.272965 411.414583 220.272965 
C 410.952243 220.272965 410.508777 220.387356 410.181853 220.590946 
C 409.854929 220.794535 409.671239 221.070701 409.671239 221.35862 
C 409.671239 221.646539 409.854929 221.922704 410.181853 222.126294 
C 410.508777 222.329883 410.952243 222.444275 411.414583 222.444275 
z
" style="fill:#ff0000;opacity:0.2;stroke:#ff0000;stroke-linejoin:miter;stroke-width:2;"/>
   </g>
   <g id="patch_3">
    <path clip-path="url(#p364ad3460f)" d="M 61.874224 222.444275 
C 62.336564 222.444275 62.78003 222.329883 63.106954 222.126294 
C 63.433878 221.922704 63.617568 221.646539 63.617568 221.35862 
C 63.617568 221.070701 63.433878 220.794535 63.106954 220.590946 
C 62.78003 220.387356 62.336564 220.272965 61.874224 220.272965 
C 61.411884 220.272965 60.968418 220.387356 60.641494 220.590946 
C 60.31457 220.794535 60.130881 221.070701 60.130881 221.35862 
C 60.130881 221.646539 60.31457 221.922704 60.641494 222.126294 
C 60.968418 222.329883 61.411884 222.444275 61.874224 222.444275 
z
" style="fill:#ff0000;opacity:0.2;stroke:#ff0000;stroke-linejoin:miter;stroke-width:2;"/>
   </g>
   <g id="patch_4">
    <path clip-path="url(#p364ad3460f)" d="M 61.874224 183.360698 
C 62.336564 183.360698 62.78003 183.246307 63.106954 183.042718 
C 63.433878 182.839128 63.617568 182.562963 63.617568 182.275044 
C 63.617568 181.987125 63.433878 181.710959 63.106954 181.50737 
C 62.78003 181.30378 62.336564 181.189389 61.874224 181.189389 
C 61.411884 181.189389 60.968418 181.30378 60.641494 181.50737 
C 60.31457 181.710959 60.130881 181.987125 60.130881 182.275044 
C 60.130881 182.562963 60.31457 182.839128 60.641494 183.042718 
C 60.968418 183.246307 61.411884 183.360698 61.874224 183.360698 
z
" style="fill:#ff0000;opacity:0.2;stroke:#ff0000;stroke-linejoin:miter;stroke-width:2;"/>
   </g>
   <g id="patch_5">
    <path clip-path="url(#p364ad3460f)" d="M 411.414583 183.360698 
C 411.876923 183.360698 412.320389 183.246307 412.647313 183.042718 
C 412.974236 182.839128 413.157926 182.562963 413.157926 182.275044 
C 413.157926 181.987125 412.974236 181.710959 412.647313 181.50737 
C 412.320389 181.30378 411.876923 181.189389 411.414583 181.189389 
C 410.952243 181.189389 410.508777 181.30378 410.181853 181.50737 
C 409.854929 181.710959 409.671239 181.987125 409.671239 182.275044 
C 409.671239 182.562963 409.854929 182.839128 410.181853 183.042718 
C 410.508777 183.246307 410.952243 183.360698 411.414583 183.360698 
z
" style="fill:#ff0000;opacity:0.2;stroke:#ff0000;stroke-linejoin:miter;stroke-width:2;"/>
   </g>
   <g id="patch_6">
    <path clip-path="url(#p364ad3460f)" d="M 404.441209 39.240011 
C 404.903549 39.240011 405.347015 39.125619 405.673939 38.92203 
C 406.000863 38.71844 406.184552 38.442275 406.184552 38.154356 
C 406.184552 37.866437 406.000863 37.590271 405.673939 37.386682 
C 405.347015 37.183092 404.903549 37.068701 404.441209 37.068701 
C 403.978869 37.068701 403.535403 37.183092 403.208479 37.386682 
C 402.881555 37.590271 402.697866 37.866437 402.697866 38.154356 
C 402.697866 38.442275 402.881555 38.71844 403.208479 38.92203 
C 403.535403 39.125619 403.978869 39.240011 404.441209 39.240011 
z
" style="fill:#0000ff;opacity:0.2;stroke:#0000ff;stroke-linejoin:miter;stroke-width:2;"/>
   </g>
   <g id="patch_7">
    <path clip-path="url(#p364ad3460f)" d="M 404.441209 65.838556 
C 404.903549 65.838556 405.347015 65.724164 405.673939 65.520575 
C 406.000863 65.316985 406.184552 65.04082 406.184552 64.752901 
C 406.184552 64.464982 406.000863 64.188816 405.673939 63.985227 
C 405.347015 63.781637 404.903549 63.667246 404.441209 63.667246 
C 403.978869 63.667246 403.535403 63.781637 403.208479 63.985227 
C 402.881555 64.188816 402.697866 64.464982 402.697866 64.752901 
C 402.697866 65.04082 402.881555 65.316985 403.208479 65.520575 
C 403.535403 65.724164 403.978869 65.838556 404.441209 65.838556 
z
" style="fill:#0000ff;opacity:0.2;stroke:#0000ff;stroke-linejoin:miter;stroke-width:2;"/>
   </g>
   <g id="patch_8">
    <path clip-path="url(#p364ad3460f)" d="M 68.847598 65.838556 
C 69.309938 65.838556 69.753404 65.724164 70.080328 65.520575 
C 70.407252 65.316985 70.590941 65.04082 70.590941 64.752901 
C 70.590941 64.464982 70.407252 64.188816 70.080328 63.985227 
C 69.753404 63.781637 69.309938 63.667246 68.847598 63.667246 
C 68.385258 63.667246 67.941792 63.781637 67.614868 63.985227 
C 67.287944 64.188816 67.104254 64.464982 67.104254 64.752901 
C 67.104254 65.04082 67.287944 65.316985 67.614868 65.520575 
C 67.941792 65.724164 68.385258 65.838556 68.847598 65.838556 
z
" style="fill:#0000ff;opacity:0.2;stroke:#0000ff;stroke-linejoin:miter;stroke-width:2;"/>
   </g>
   <g id="patch_9">
    <path clip-path="url(#p364ad3460f)" d="M 68.847598 39.240011 
C 69.309938 39.240011 69.753404 39.125619 70.080328 38.92203 
C 70.407252 38.71844 70.590941 38.442275 70.590941 38.154356 
C 70.590941 37.866437 70.407252 37.590271 70.080328 37.386682 
C 69.753404 37.183092 69.309938 37.068701 68.847598 37.068701 
C 68.385258 37.068701 67.941792 37.183092 67.614868 37.386682 
C 67.287944 37.590271 67.104254 37.866437 67.104254 38.154356 
C 67.104254 38.442275 67.287944 38.71844 67.614868 38.92203 
C 67.941792 39.125619 68.385258 39.240011 68.847598 39.240011 
z
" style="fill:#0000ff;opacity:0.2;stroke:#0000ff;stroke-linejoin:miter;stroke-width:2;"/>
   </g>
   <g id="patch_10">
    <path clip-path="url(#p364ad3460f)" d="M 411.414583 221.35862 
L 61.874224 221.35862 
L 61.874224 182.275044 
L 411.414583 182.275044 
L 411.414583 221.35862 
" style="fill:none;stroke:#ff0000;stroke-linejoin:miter;stroke-width:0.5;"/>
   </g>
   <g id="patch_11">
    <path clip-path="url(#p364ad3460f)" d="M 404.441209 38.154356 
L 404.441209 64.752901 
L 68.847598 64.752901 
L 68.847598 38.154356 
L 404.441209 38.154356 
" style="fill:none;stroke:#0000ff;stroke-linejoin:miter;stroke-width:0.5;"/>
   </g>
   <g id="[&quot;g_s&quot;:1,&quot;g_t&quot;:2,&quot;coords&quot;:[[511.0, -594.0],[503.0, -305.5]],&quot;certainty&quot;:10]">
    <path clip-path="url(#p364ad3460f)" d="M 411.414583 224.344171 
C 412.686018 224.344171 413.90555 224.029594 414.80459 223.469723 
C 415.703631 222.909852 416.208777 222.150397 416.208777 221.35862 
C 416.208777 220.566843 415.703631 219.807388 414.80459 219.247517 
C 413.90555 218.687645 412.686018 218.373069 411.414583 218.373069 
C 410.143147 218.373069 408.923616 218.687645 408.024575 219.247517 
C 407.125535 219.807388 406.620388 220.566843 406.620388 221.35862 
C 406.620388 222.150397 407.125535 222.909852 408.024575 223.469723 
C 408.923616 224.029594 410.143147 224.344171 411.414583 224.344171 
z
" style="fill:#0000ff;opacity:0.2;stroke:#0000ff;stroke-linejoin:miter;stroke-width:2;"/>
   </g>
   <g id="[&quot;g_s&quot;:2,&quot;g_t&quot;:1,&quot;coords&quot;:[[503.0, -305.5],[511.0, -594.0]],&quot;certainty&quot;:10]">
    <path clip-path="url(#p364ad3460f)" d="M 404.441209 67.738452 
C 405.712644 67.738452 406.932176 67.423875 407.831216 66.864004 
C 408.730257 66.304133 409.235403 65.544678 409.235403 64.752901 
C 409.235403 63.961123 408.730257 63.201669 407.831216 62.641797 
C 406.932176 62.081926 405.712644 61.76735 404.441209 61.76735 
C 403.169774 61.76735 401.950242 62.081926 401.051202 62.641797 
C 400.152161 63.201669 399.647015 63.961123 399.647015 64.752901 
C 399.647015 65.544678 400.152161 66.304133 401.051202 66.864004 
C 401.950242 67.423875 403.169774 67.738452 404.441209 67.738452 
z
" style="fill:#ff0000;opacity:0.2;stroke:#ff0000;stroke-linejoin:miter;stroke-width:2;"/>
   </g>
   <g id="patch_12">
    <path d="M 411.414583 221.35862 
Q 407.97248 144.057008 404.616878 68.698016 
" style="fill:none;opacity:0.5;stroke:#0000ff;stroke-linecap:round;stroke-width:2.75;"/>
    <path d="M 403.185089 70.263257 
L 404.616878 68.698016 
L 406.182119 70.129805 
" style="fill:none;opacity:0.5;stroke:#0000ff;stroke-linecap:round;stroke-width:2.75;"/>
   </g>
   <g id="[&quot;g_s&quot;:2,&quot;g_t&quot;:3,&quot;coords&quot;:[[110.0, -594.0],[118.0, -305.5]],&quot;certainty&quot;:11]">
    <path clip-path="url(#p364ad3460f)" d="M 61.874224 224.615585 
C 63.261244 224.615585 64.591643 224.27241 65.572414 223.661642 
C 66.553185 223.050873 67.104254 222.222377 67.104254 221.35862 
C 67.104254 220.494863 66.553185 219.666367 65.572414 219.055598 
C 64.591643 218.44483 63.261244 218.101655 61.874224 218.101655 
C 60.487204 218.101655 59.156806 218.44483 58.176034 219.055598 
C 57.195263 219.666367 56.644194 220.494863 56.644194 221.35862 
C 56.644194 222.222377 57.195263 223.050873 58.176034 223.661642 
C 59.156806 224.27241 60.487204 224.615585 61.874224 224.615585 
z
" style="fill:#0000ff;opacity:0.2;stroke:#0000ff;stroke-linejoin:miter;stroke-width:2;"/>
   </g>
   <g id="[&quot;g_s&quot;:3,&quot;g_t&quot;:2,&quot;coords&quot;:[[118.0, -305.5],[110.0, -594.0]],&quot;certainty&quot;:11]">
    <path clip-path="url(#p364ad3460f)" d="M 68.847598 68.009866 
C 70.234618 68.009866 71.565016 67.666691 72.545788 67.055923 
C 73.526559 66.445154 74.077628 65.616658 74.077628 64.752901 
C 74.077628 63.889144 73.526559 63.060648 72.545788 62.449879 
C 71.565016 61.83911 70.234618 61.495936 68.847598 61.495936 
C 67.460578 61.495936 66.130179 61.83911 65.149408 62.449879 
C 64.168637 63.060648 63.617568 63.889144 63.617568 64.752901 
C 63.617568 65.616658 64.168637 66.445154 65.149408 67.055923 
C 66.130179 67.666691 67.460578 68.009866 68.847598 68.009866 
z
" style="fill:#ff0000;opacity:0.2;stroke:#ff0000;stroke-linejoin:miter;stroke-width:2;"/>
   </g>
   <g id="patch_13">
    <path d="M 61.874224 221.35862 
Q 65.316327 144.057008 68.664065 68.874617 
" style="fill:none;opacity:0.5;stroke:#0000ff;stroke-linecap:round;stroke-width:3;"/>
    <path d="M 67.098824 70.306406 
L 68.664065 68.874617 
L 70.095854 70.439859 
" style="fill:none;opacity:0.5;stroke:#0000ff;stroke-linecap:round;stroke-width:3;"/>
   </g>
   <g id="[&quot;g_s&quot;:3,&quot;g_t&quot;:4,&quot;coords&quot;:[[110.0, -522.0],[118.0, -256.5]],&quot;certainty&quot;:11]">
    <path clip-path="url(#p364ad3460f)" d="M 61.874224 185.532008 
C 63.261244 185.532008 64.591643 185.188834 65.572414 184.578065 
C 66.553185 183.967297 67.104254 183.138801 67.104254 182.275044 
C 67.104254 181.411286 66.553185 180.58279 65.572414 179.972022 
C 64.591643 179.361253 63.261244 179.018079 61.874224 179.018079 
C 60.487204 179.018079 59.156806 179.361253 58.176034 179.972022 
C 57.195263 180.58279 56.644194 181.411286 56.644194 182.275044 
C 56.644194 183.138801 57.195263 183.967297 58.176034 184.578065 
C 59.156806 185.188834 60.487204 185.532008 61.874224 185.532008 
z
" style="fill:#0000ff;opacity:0.2;stroke:#0000ff;stroke-linejoin:miter;stroke-width:2;"/>
   </g>
   <g id="[&quot;g_s&quot;:4,&quot;g_t&quot;:3,&quot;coords&quot;:[[118.0, -256.5],[110.0, -522.0]],&quot;certainty&quot;:11]">
    <path clip-path="url(#p364ad3460f)" d="M 68.847598 41.41132 
C 70.234618 41.41132 71.565016 41.068146 72.545788 40.457378 
C 73.526559 39.846609 74.077628 39.018113 74.077628 38.154356 
C 74.077628 37.290599 73.526559 36.462103 72.545788 35.851334 
C 71.565016 35.240565 70.234618 34.897391 68.847598 34.897391 
C 67.460578 34.897391 66.130179 35.240565 65.149408 35.851334 
C 64.168637 36.462103 63.617568 37.290599 63.617568 38.154356 
C 63.617568 39.018113 64.168637 39.846609 65.149408 40.457378 
C 66.130179 41.068146 67.460578 41.41132 68.847598 41.41132 
z
" style="fill:#ff0000;opacity:0.2;stroke:#ff0000;stroke-linejoin:miter;stroke-width:2;"/>
   </g>
   <g id="patch_14">
    <path d="M 61.874224 182.275044 
Q 65.312497 111.215293 68.648248 42.274385 
" style="fill:none;opacity:0.5;stroke:#0000ff;stroke-linecap:round;stroke-width:3;"/>
    <path d="M 67.077507 43.700138 
L 68.648248 42.274385 
L 70.074001 43.845126 
" style="fill:none;opacity:0.5;stroke:#0000ff;stroke-linecap:round;stroke-width:3;"/>
   </g>
   <g id="[&quot;g_s&quot;:4,&quot;g_t&quot;:1,&quot;coords&quot;:[[511.0, -522.0],[503.0, -256.5]],&quot;certainty&quot;:12]">
    <path clip-path="url(#p364ad3460f)" d="M 411.414583 185.803422 
C 412.917188 185.803422 414.358453 185.43165 415.420955 184.769984 
C 416.483457 184.108318 417.080449 183.21078 417.080449 182.275044 
C 417.080449 181.339307 416.483457 180.441769 415.420955 179.780103 
C 414.358453 179.118437 412.917188 178.746665 411.414583 178.746665 
C 409.911977 178.746665 408.470713 179.118437 407.40821 179.780103 
C 406.345708 180.441769 405.748717 181.339307 405.748717 182.275044 
C 405.748717 183.21078 406.345708 184.108318 407.40821 184.769984 
C 408.470713 185.43165 409.911977 185.803422 411.414583 185.803422 
z
" style="fill:#0000ff;opacity:0.2;stroke:#0000ff;stroke-linejoin:miter;stroke-width:2;"/>
   </g>
   <g id="[&quot;g_s&quot;:1,&quot;g_t&quot;:4,&quot;coords&quot;:[[503.0, -256.5],[511.0, -522.0]],&quot;certainty&quot;:12]">
    <path clip-path="url(#p364ad3460f)" d="M 404.441209 41.682734 
C 405.943814 41.682734 407.385079 41.310962 408.447581 40.649296 
C 409.510084 39.98763 410.107075 39.090093 410.107075 38.154356 
C 410.107075 37.218619 409.510084 36.321081 408.447581 35.659415 
C 407.385079 34.99775 405.943814 34.625977 404.441209 34.625977 
C 402.938604 34.625977 401.497339 34.99775 400.434837 35.659415 
C 399.372334 36.321081 398.775343 37.218619 398.775343 38.154356 
C 398.775343 39.090093 399.372334 39.98763 400.434837 40.649296 
C 401.497339 41.310962 402.938604 41.682734 404.441209 41.682734 
z
" style="fill:#ff0000;opacity:0.2;stroke:#ff0000;stroke-linejoin:miter;stroke-width:2;"/>
   </g>
   <g id="patch_15">
    <path d="M 411.414583 182.275044 
Q 407.97631 111.215293 404.649103 42.450955 
" style="fill:none;opacity:0.5;stroke:#0000ff;stroke-linecap:round;stroke-width:3.25;"/>
    <path d="M 403.223349 44.021696 
L 404.649103 42.450955 
L 406.219844 43.876708 
" style="fill:none;opacity:0.5;stroke:#0000ff;stroke-linecap:round;stroke-width:3.25;"/>
   </g>
   <g id="[&quot;g_s&quot;:1,&quot;g_t&quot;:4,&quot;coords&quot;:[[503.0, -256.5],[511.0, -522.0]],&quot;certainty&quot;:10]">
    <path clip-path="url(#p364ad3460f)" d="M 404.441209 41.139907 
C 405.712644 41.139907 406.932176 40.82533 407.831216 40.265459 
C 408.730257 39.705588 409.235403 38.946133 409.235403 38.154356 
C 409.235403 37.362578 408.730257 36.603124 407.831216 36.043252 
C 406.932176 35.483381 405.712644 35.168805 404.441209 35.168805 
C 403.169774 35.168805 401.950242 35.483381 401.051202 36.043252 
C 400.152161 36.603124 399.647015 37.362578 399.647015 38.154356 
C 399.647015 38.946133 400.152161 39.705588 401.051202 40.265459 
C 401.950242 40.82533 403.169774 41.139907 404.441209 41.139907 
z
" style="fill:#0000ff;opacity:0.2;stroke:#0000ff;stroke-linejoin:miter;stroke-width:2;"/>
   </g>
   <g id="[&quot;g_s&quot;:4,&quot;g_t&quot;:1,&quot;coords&quot;:[[511.0, -522.0],[503.0, -256.5]],&quot;certainty&quot;:10]">
    <path clip-path="url(#p364ad3460f)" d="M 411.414583 185.260595 
C 412.686018 185.260595 413.90555 184.946018 414.80459 184.386147 
C 415.703631 183.826276 416.208777 183.066821 416.208777 182.275044 
C 416.208777 181.483266 415.703631 180.723811 414.80459 180.16394 
C 413.90555 179.604069 412.686018 179.289493 411.414583 179.289493 
C 410.143147 179.289493 408.923616 179.604069 408.024575 180.16394 
C 407.125535 180.723811 406.620388 181.483266 406.620388 182.275044 
C 406.620388 183.066821 407.125535 183.826276 408.024575 184.386147 
C 408.923616 184.946018 410.143147 185.260595 411.414583 185.260595 
z
" style="fill:#ff0000;opacity:0.2;stroke:#ff0000;stroke-linejoin:miter;stroke-width:2;"/>
   </g>
   <g id="patch_16">
    <path d="M 404.441209 38.154356 
Q 407.879481 109.214106 411.223776 178.331585 
" style="fill:none;opacity:0.5;stroke:#ff0000;stroke-linecap:round;stroke-width:2.75;"/>
    <path d="M 412.649529 176.760844 
L 411.223776 178.331585 
L 409.653035 176.905831 
" style="fill:none;opacity:0.5;stroke:#ff0000;stroke-linecap:round;stroke-width:2.75;"/>
   </g>
   <g id="[&quot;g_s&quot;:2,&quot;g_t&quot;:1,&quot;coords&quot;:[[503.0, -305.5],[511.0, -594.0]],&quot;certainty&quot;:11]">
    <path clip-path="url(#p364ad3460f)" d="M 404.441209 68.009866 
C 405.828229 68.009866 407.158627 67.666691 408.139399 67.055923 
C 409.12017 66.445154 409.671239 65.616658 409.671239 64.752901 
C 409.671239 63.889144 409.12017 63.060648 408.139399 62.449879 
C 407.158627 61.83911 405.828229 61.495936 404.441209 61.495936 
C 403.054189 61.495936 401.72379 61.83911 400.743019 62.449879 
C 399.762248 63.060648 399.211179 63.889144 399.211179 64.752901 
C 399.211179 65.616658 399.762248 66.445154 400.743019 67.055923 
C 401.72379 67.666691 403.054189 68.009866 404.441209 68.009866 
z
" style="fill:#0000ff;opacity:0.2;stroke:#0000ff;stroke-linejoin:miter;stroke-width:2;"/>
   </g>
   <g id="[&quot;g_s&quot;:1,&quot;g_t&quot;:2,&quot;coords&quot;:[[511.0, -594.0],[503.0, -305.5]],&quot;certainty&quot;:11]">
    <path clip-path="url(#p364ad3460f)" d="M 411.414583 224.615585 
C 412.801603 224.615585 414.132001 224.27241 415.112773 223.661642 
C 416.093544 223.050873 416.644613 222.222377 416.644613 221.35862 
C 416.644613 220.494863 416.093544 219.666367 415.112773 219.055598 
C 414.132001 218.44483 412.801603 218.101655 411.414583 218.101655 
C 410.027562 218.101655 408.697164 218.44483 407.716393 219.055598 
C 406.735621 219.666367 406.184552 220.494863 406.184552 221.35862 
C 406.184552 222.222377 406.735621 223.050873 407.716393 223.661642 
C 408.697164 224.27241 410.027562 224.615585 411.414583 224.615585 
z
" style="fill:#ff0000;opacity:0.2;stroke:#ff0000;stroke-linejoin:miter;stroke-width:2;"/>
   </g>
   <g id="patch_17">
    <path d="M 404.441209 64.752901 
Q 407.883312 142.054512 411.23105 217.236903 
" style="fill:none;opacity:0.5;stroke:#ff0000;stroke-linecap:round;stroke-width:3;"/>
    <path d="M 412.662839 215.671662 
L 411.23105 217.236903 
L 409.665809 215.805114 
" style="fill:none;opacity:0.5;stroke:#ff0000;stroke-linecap:round;stroke-width:3;"/>
   </g>
   <g id="[&quot;g_s&quot;:3,&quot;g_t&quot;:2,&quot;coords&quot;:[[118.0, -305.5],[110.0, -594.0]],&quot;certainty&quot;:11]">
    <path clip-path="url(#p364ad3460f)" d="M 68.847598 68.009866 
C 70.234618 68.009866 71.565016 67.666691 72.545788 67.055923 
C 73.526559 66.445154 74.077628 65.616658 74.077628 64.752901 
C 74.077628 63.889144 73.526559 63.060648 72.545788 62.449879 
C 71.565016 61.83911 70.234618 61.495936 68.847598 61.495936 
C 67.460578 61.495936 66.130179 61.83911 65.149408 62.449879 
C 64.168637 63.060648 63.617568 63.889144 63.617568 64.752901 
C 63.617568 65.616658 64.168637 66.445154 65.149408 67.055923 
C 66.130179 67.666691 67.460578 68.009866 68.847598 68.009866 
z
" style="fill:#0000ff;opacity:0.2;stroke:#0000ff;stroke-linejoin:miter;stroke-width:2;"/>
   </g>
   <g id="[&quot;g_s&quot;:2,&quot;g_t&quot;:3,&quot;coords&quot;:[[110.0, -594.0],[118.0, -305.5]],&quot;certainty&quot;:11]">
    <path clip-path="url(#p364ad3460f)" d="M 61.874224 224.615585 
C 63.261244 224.615585 64.591643 224.27241 65.572414 223.661642 
C 66.553185 223.050873 67.104254 222.222377 67.104254 221.35862 
C 67.104254 220.494863 66.553185 219.666367 65.572414 219.055598 
C 64.591643 218.44483 63.261244 218.101655 61.874224 218.101655 
C 60.487204 218.101655 59.156806 218.44483 58.176034 219.055598 
C 57.195263 219.666367 56.644194 220.494863 56.644194 221.35862 
C 56.644194 222.222377 57.195263 223.050873 58.176034 223.661642 
C 59.156806 224.27241 60.487204 224.615585 61.874224 224.615585 
z
" style="fill:#ff0000;opacity:0.2;stroke:#ff0000;stroke-linejoin:miter;stroke-width:2;"/>
   </g>
   <g id="patch_18">
    <path d="M 68.847598 64.752901 
Q 65.405495 142.054512 62.057757 217.236903 
" style="fill:none;opacity:0.5;stroke:#ff0000;stroke-linecap:round;stroke-width:3;"/>
    <path d="M 63.622998 215.805114 
L 62.057757 217.236903 
L 60.625968 215.671662 
" style="fill:none;opacity:0.5;stroke:#ff0000;stroke-linecap:round;stroke-width:3;"/>
   </g>
   <g id="[&quot;g_s&quot;:4,&quot;g_t&quot;:3,&quot;coords&quot;:[[118.0, -256.5],[110.0, -522.0]],&quot;certainty&quot;:12]">
    <path clip-path="url(#p364ad3460f)" d="M 68.847598 41.682734 
C 70.350203 41.682734 71.791468 41.310962 72.85397 40.649296 
C 73.916473 39.98763 74.513464 39.090093 74.513464 38.154356 
C 74.513464 37.218619 73.916473 36.321081 72.85397 35.659415 
C 71.791468 34.99775 70.350203 34.625977 68.847598 34.625977 
C 67.344993 34.625977 65.903728 34.99775 64.841225 35.659415 
C 63.778723 36.321081 63.181732 37.218619 63.181732 38.154356 
C 63.181732 39.090093 63.778723 39.98763 64.841225 40.649296 
C 65.903728 41.310962 67.344993 41.682734 68.847598 41.682734 
z
" style="fill:#0000ff;opacity:0.2;stroke:#0000ff;stroke-linejoin:miter;stroke-width:2;"/>
   </g>
   <g id="[&quot;g_s&quot;:3,&quot;g_t&quot;:4,&quot;coords&quot;:[[110.0, -522.0],[118.0, -256.5]],&quot;certainty&quot;:12]">
    <path clip-path="url(#p364ad3460f)" d="M 61.874224 185.803422 
C 63.376829 185.803422 64.818094 185.43165 65.880597 184.769984 
C 66.943099 184.108318 67.54009 183.21078 67.54009 182.275044 
C 67.54009 181.339307 66.943099 180.441769 65.880597 179.780103 
C 64.818094 179.118437 63.376829 178.746665 61.874224 178.746665 
C 60.371619 178.746665 58.930354 179.118437 57.867852 179.780103 
C 56.805349 180.441769 56.208358 181.339307 56.208358 182.275044 
C 56.208358 183.21078 56.805349 184.108318 57.867852 184.769984 
C 58.930354 185.43165 60.371619 185.803422 61.874224 185.803422 
z
" style="fill:#ff0000;opacity:0.2;stroke:#ff0000;stroke-linejoin:miter;stroke-width:2;"/>
   </g>
   <g id="patch_19">
    <path d="M 68.847598 38.154356 
Q 65.409325 109.214106 62.082118 177.978444 
" style="fill:none;opacity:0.5;stroke:#ff0000;stroke-linecap:round;stroke-width:3.25;"/>
    <path d="M 63.652859 176.552691 
L 62.082118 177.978444 
L 60.656364 176.407704 
" style="fill:none;opacity:0.5;stroke:#ff0000;stroke-linecap:round;stroke-width:3.25;"/>
   </g>
   <g id="patch_20">
    <path clip-path="url(#p364ad3460f)" d="M 407.927896 145.769898 
C 409.083746 145.769898 410.192411 145.483919 411.009721 144.974945 
C 411.82703 144.465971 412.286254 143.775558 412.286254 143.05576 
C 412.286254 142.335963 411.82703 141.645549 411.009721 141.136576 
C 410.192411 140.627602 409.083746 140.341623 407.927896 140.341623 
C 406.772046 140.341623 405.66338 140.627602 404.846071 141.136576 
C 404.028761 141.645549 403.569537 142.335963 403.569537 143.05576 
C 403.569537 143.775558 404.028761 144.465971 404.846071 144.974945 
C 405.66338 145.483919 406.772046 145.769898 407.927896 145.769898 
z
" style="fill:#008000;opacity:0.2;stroke:#008000;stroke-linejoin:miter;stroke-width:2;"/>
   </g>
   <g id="patch_21">
    <path clip-path="url(#p364ad3460f)" d="M 65.360911 145.769898 
C 66.516761 145.769898 67.625426 145.483919 68.442736 144.974945 
C 69.260045 144.465971 69.71927 143.775558 69.71927 143.05576 
C 69.71927 142.335963 69.260045 141.645549 68.442736 141.136576 
C 67.625426 140.627602 66.516761 140.341623 65.360911 140.341623 
C 64.205061 140.341623 63.096396 140.627602 62.279086 141.136576 
C 61.461777 141.645549 61.002552 142.335963 61.002552 143.05576 
C 61.002552 143.775558 61.461777 144.465971 62.279086 144.974945 
C 63.096396 145.483919 64.205061 145.769898 65.360911 145.769898 
z
" style="fill:#008000;opacity:0.2;stroke:#008000;stroke-linejoin:miter;stroke-width:2;"/>
   </g>
   <g id="patch_22">
    <path clip-path="url(#p364ad3460f)" d="M 65.360911 112.928837 
C 66.516761 112.928837 67.625426 112.642858 68.442736 112.133885 
C 69.260045 111.624911 69.71927 110.934497 69.71927 110.2147 
C 69.71927 109.494902 69.260045 108.804489 68.442736 108.295515 
C 67.625426 107.786541 66.516761 107.500562 65.360911 107.500562 
C 64.205061 107.500562 63.096396 107.786541 62.279086 108.295515 
C 61.461777 108.804489 61.002552 109.494902 61.002552 110.2147 
C 61.002552 110.934497 61.461777 111.624911 62.279086 112.133885 
C 63.096396 112.642858 64.205061 112.928837 65.360911 112.928837 
z
" style="fill:#008000;opacity:0.2;stroke:#008000;stroke-linejoin:miter;stroke-width:2;"/>
   </g>
   <g id="patch_23">
    <path clip-path="url(#p364ad3460f)" d="M 407.927896 112.928837 
C 409.083746 112.928837 410.192411 112.642858 411.009721 112.133885 
C 411.82703 111.624911 412.286254 110.934497 412.286254 110.2147 
C 412.286254 109.494902 411.82703 108.804489 411.009721 108.295515 
C 410.192411 107.786541 409.083746 107.500562 407.927896 107.500562 
C 406.772046 107.500562 405.66338 107.786541 404.846071 108.295515 
C 404.028761 108.804489 403.569537 109.494902 403.569537 110.2147 
C 403.569537 110.934497 404.028761 111.624911 404.846071 112.133885 
C 405.66338 112.642858 406.772046 112.928837 407.927896 112.928837 
z
" style="fill:#008000;opacity:0.2;stroke:#008000;stroke-linejoin:miter;stroke-width:2;"/>
   </g>
   <g id="patch_24">
    <path clip-path="url(#p364ad3460f)" d="M 411.414583 232.215169 
C 416.037984 232.215169 420.472644 231.071254 423.741882 229.035359 
C 427.01112 226.999464 428.848017 224.23781 428.848017 221.35862 
C 428.848017 218.479429 427.01112 215.717776 423.741882 213.681881 
C 420.472644 211.645985 416.037984 210.502071 411.414583 210.502071 
C 406.791182 210.502071 402.356521 211.645985 399.087283 213.681881 
C 395.818045 215.717776 393.981148 218.479429 393.981148 221.35862 
C 393.981148 224.23781 395.818045 226.999464 399.087283 229.035359 
C 402.356521 231.071254 406.791182 232.215169 411.414583 232.215169 
z
" style="fill:none;opacity:0.2;stroke:#ff0000;stroke-linejoin:miter;stroke-width:2;"/>
   </g>
   <g id="patch_25">
    <path clip-path="url(#p364ad3460f)" d="M 404.441209 49.010905 
C 409.06461 49.010905 413.499271 47.86699 416.768509 45.831095 
C 420.037747 43.7952 421.874643 41.033546 421.874643 38.154356 
C 421.874643 35.275165 420.037747 32.513511 416.768509 30.477616 
C 413.499271 28.441721 409.06461 27.297807 404.441209 27.297807 
C 399.817808 27.297807 395.383147 28.441721 392.113909 30.477616 
C 388.844671 32.513511 387.007775 35.275165 387.007775 38.154356 
C 387.007775 41.033546 388.844671 43.7952 392.113909 45.831095 
C 395.383147 47.86699 399.817808 49.010905 404.441209 49.010905 
z
" style="fill:none;opacity:0.2;stroke:#0000ff;stroke-linejoin:miter;stroke-width:2;"/>
   </g>
   <g id="patch_26">
    <path clip-path="url(#p364ad3460f)" d="M 411.414583 226.786894 
C 413.726283 226.786894 415.943613 226.214937 417.578233 225.19699 
C 419.212852 224.179042 420.1313 222.798215 420.1313 221.35862 
C 420.1313 219.919025 419.212852 218.538198 417.578233 217.52025 
C 415.943613 216.502303 413.726283 215.930345 411.414583 215.930345 
C 409.102882 215.930345 406.885552 216.502303 405.250933 217.52025 
C 403.616314 218.538198 402.697866 219.919025 402.697866 221.35862 
C 402.697866 222.798215 403.616314 224.179042 405.250933 225.19699 
C 406.885552 226.214937 409.102882 226.786894 411.414583 226.786894 
z
" style="fill:none;opacity:0.2;stroke:#008000;stroke-linejoin:miter;stroke-width:2;"/>
   </g>
   <g id="patch_27">
    <path clip-path="url(#p364ad3460f)" d="M 404.441209 70.181175 
C 406.752909 70.181175 408.97024 69.609218 410.604859 68.591271 
C 412.239478 67.573323 413.157926 66.192496 413.157926 64.752901 
C 413.157926 63.313306 412.239478 61.932479 410.604859 60.914531 
C 408.97024 59.896584 406.752909 59.324626 404.441209 59.324626 
C 402.129509 59.324626 399.912178 59.896584 398.277559 60.914531 
C 396.64294 61.932479 395.724492 63.313306 395.724492 64.752901 
C 395.724492 66.192496 396.64294 67.573323 398.277559 68.591271 
C 399.912178 69.609218 402.129509 70.181175 404.441209 70.181175 
z
" style="fill:none;opacity:0.2;stroke:#008000;stroke-linejoin:miter;stroke-width:2;"/>
   </g>
   <g id="patch_28">
    <path d="M 407.927896 143.05576 
Q 236.644403 143.05576 65.360911 143.05576 
" style="fill:none;opacity:0.5;stroke:#008000;stroke-linecap:round;stroke-width:2;"/>
   </g>
   <g id="patch_29">
    <path d="M 411.351673 219.945806 
Q 407.97248 144.057008 404.593287 68.168211 
" style="fill:none;opacity:0.5;stroke:#800080;stroke-linecap:round;stroke-width:2;"/>
    <path d="M 412.783462 218.380565 
L 411.351673 219.945806 
L 409.786431 218.514017 
" style="fill:none;opacity:0.5;stroke:#800080;stroke-linecap:round;stroke-width:2;"/>
    <path d="M 403.161498 69.733452 
L 404.593287 68.168211 
L 406.158528 69.6 
" style="fill:none;opacity:0.5;stroke:#800080;stroke-linecap:round;stroke-width:2;"/>
   </g>
   <g id="patch_30">
    <path d="M 65.360911 143.05576 
Q 65.360911 126.63523 65.360911 110.2147 
" style="fill:none;opacity:0.5;stroke:#008000;stroke-linecap:round;stroke-width:2;"/>
   </g>
   <g id="patch_31">
    <path d="M 61.937134 219.945806 
Q 65.316327 144.057008 68.69552 68.168211 
" style="fill:none;opacity:0.5;stroke:#800080;stroke-linecap:round;stroke-width:2;"/>
    <path d="M 63.502376 218.514017 
L 61.937134 219.945806 
L 60.505345 218.380565 
" style="fill:none;opacity:0.5;stroke:#800080;stroke-linecap:round;stroke-width:2;"/>
    <path d="M 67.130279 69.6 
L 68.69552 68.168211 
L 70.127309 69.733452 
" style="fill:none;opacity:0.5;stroke:#800080;stroke-linecap:round;stroke-width:2;"/>
   </g>
   <g id="patch_32">
    <path d="M 65.360911 110.2147 
Q 236.644403 110.2147 407.927896 110.2147 
" style="fill:none;opacity:0.5;stroke:#008000;stroke-linecap:round;stroke-width:2;"/>
   </g>
   <g id="patch_33">
    <path d="M 61.942572 180.862483 
Q 65.312497 111.215293 68.682421 41.568104 
" style="fill:none;opacity:0.5;stroke:#800080;stroke-linecap:round;stroke-width:2;"/>
    <path d="M 63.513313 179.436729 
L 61.942572 180.862483 
L 60.516818 179.291742 
" style="fill:none;opacity:0.5;stroke:#800080;stroke-linecap:round;stroke-width:2;"/>
    <path d="M 67.111681 42.993858 
L 68.682421 41.568104 
L 70.108175 43.138845 
" style="fill:none;opacity:0.5;stroke:#800080;stroke-linecap:round;stroke-width:2;"/>
   </g>
   <g id="patch_34">
    <path d="M 407.927896 110.2147 
Q 407.927896 126.63523 407.927896 143.05576 
" style="fill:none;opacity:0.5;stroke:#008000;stroke-linecap:round;stroke-width:2;"/>
   </g>
   <g id="patch_35">
    <path d="M 411.346235 180.862483 
Q 407.97631 111.215293 404.606385 41.568104 
" style="fill:none;opacity:0.5;stroke:#800080;stroke-linecap:round;stroke-width:2;"/>
    <path d="M 412.771989 179.291742 
L 411.346235 180.862483 
L 409.775494 179.436729 
" style="fill:none;opacity:0.5;stroke:#800080;stroke-linecap:round;stroke-width:2;"/>
    <path d="M 403.180632 43.138845 
L 404.606385 41.568104 
L 406.177126 42.993858 
" style="fill:none;opacity:0.5;stroke:#800080;stroke-linecap:round;stroke-width:2;"/>
   </g>
   <g id="patch_36">
    <path clip-path="url(#p364ad3460f)" d="M 411.414583 144.277122 
C 411.876923 144.277122 412.320389 144.162731 412.647313 143.959141 
C 412.974236 143.755552 413.157926 143.479386 413.157926 143.191467 
C 413.157926 142.903548 412.974236 142.627383 412.647313 142.423793 
C 412.320389 142.220204 411.876923 142.105812 411.414583 142.105812 
C 410.952243 142.105812 410.508777 142.220204 410.181853 142.423793 
C 409.854929 142.627383 409.671239 142.903548 409.671239 143.191467 
C 409.671239 143.479386 409.854929 143.755552 410.181853 143.959141 
C 410.508777 144.162731 410.952243 144.277122 411.414583 144.277122 
z
" style="fill:#ff0000;opacity:0.2;stroke:#ff0000;stroke-linejoin:miter;stroke-width:2;"/>
   </g>
   <g id="patch_37">
    <path clip-path="url(#p364ad3460f)" d="M 61.874224 144.277122 
C 62.336564 144.277122 62.78003 144.162731 63.106954 143.959141 
C 63.433878 143.755552 63.617568 143.479386 63.617568 143.191467 
C 63.617568 142.903548 63.433878 142.627383 63.106954 142.423793 
C 62.78003 142.220204 62.336564 142.105812 61.874224 142.105812 
C 61.411884 142.105812 60.968418 142.220204 60.641494 142.423793 
C 60.31457 142.627383 60.130881 142.903548 60.130881 143.191467 
C 60.130881 143.479386 60.31457 143.755552 60.641494 143.959141 
C 60.968418 144.162731 61.411884 144.277122 61.874224 144.277122 
z
" style="fill:#ff0000;opacity:0.2;stroke:#ff0000;stroke-linejoin:miter;stroke-width:2;"/>
   </g>
   <g id="patch_38">
    <path clip-path="url(#p364ad3460f)" d="M 61.874224 105.193546 
C 62.336564 105.193546 62.78003 105.079154 63.106954 104.875565 
C 63.433878 104.671975 63.617568 104.39581 63.617568 104.107891 
C 63.617568 103.819972 63.433878 103.543806 63.106954 103.340217 
C 62.78003 103.136627 62.336564 103.022236 61.874224 103.022236 
C 61.411884 103.022236 60.968418 103.136627 60.641494 103.340217 
C 60.31457 103.543806 60.130881 103.819972 60.130881 104.107891 
C 60.130881 104.39581 60.31457 104.671975 60.641494 104.875565 
C 60.968418 105.079154 61.411884 105.193546 61.874224 105.193546 
z
" style="fill:#ff0000;opacity:0.2;stroke:#ff0000;stroke-linejoin:miter;stroke-width:2;"/>
   </g>
   <g id="patch_39">
    <path clip-path="url(#p364ad3460f)" d="M 411.414583 105.193546 
C 411.876923 105.193546 412.320389 105.079154 412.647313 104.875565 
C 412.974236 104.671975 413.157926 104.39581 413.157926 104.107891 
C 413.157926 103.819972 412.974236 103.543806 412.647313 103.340217 
C 412.320389 103.136627 411.876923 103.022236 411.414583 103.022236 
C 410.952243 103.022236 410.508777 103.136627 410.181853 103.340217 
C 409.854929 103.543806 409.671239 103.819972 409.671239 104.107891 
C 409.671239 104.39581 409.854929 104.671975 410.181853 104.875565 
C 410.508777 105.079154 410.952243 105.193546 411.414583 105.193546 
z
" style="fill:#ff0000;opacity:0.2;stroke:#ff0000;stroke-linejoin:miter;stroke-width:2;"/>
   </g>
   <g id="patch_40">
    <path clip-path="url(#p364ad3460f)" d="M 404.441209 280.255398 
C 404.903549 280.255398 405.347015 280.141007 405.673939 279.937417 
C 406.000863 279.733828 406.184552 279.457662 406.184552 279.169743 
C 406.184552 278.881824 406.000863 278.605659 405.673939 278.402069 
C 405.347015 278.19848 404.903549 278.084088 404.441209 278.084088 
C 403.978869 278.084088 403.535403 278.19848 403.208479 278.402069 
C 402.881555 278.605659 402.697866 278.881824 402.697866 279.169743 
C 402.697866 279.457662 402.881555 279.733828 403.208479 279.937417 
C 403.535403 280.141007 403.978869 280.255398 404.441209 280.255398 
z
" style="fill:#0000ff;opacity:0.2;stroke:#0000ff;stroke-linejoin:miter;stroke-width:2;"/>
   </g>
   <g id="patch_41">
    <path clip-path="url(#p364ad3460f)" d="M 404.441209 306.853943 
C 404.903549 306.853943 405.347015 306.739552 405.673939 306.535962 
C 406.000863 306.332373 406.184552 306.056207 406.184552 305.768288 
C 406.184552 305.480369 406.000863 305.204204 405.673939 305.000614 
C 405.347015 304.797025 404.903549 304.682633 404.441209 304.682633 
C 403.978869 304.682633 403.535403 304.797025 403.208479 305.000614 
C 402.881555 305.204204 402.697866 305.480369 402.697866 305.768288 
C 402.697866 306.056207 402.881555 306.332373 403.208479 306.535962 
C 403.535403 306.739552 403.978869 306.853943 404.441209 306.853943 
z
" style="fill:#0000ff;opacity:0.2;stroke:#0000ff;stroke-linejoin:miter;stroke-width:2;"/>
   </g>
   <g id="patch_42">
    <path clip-path="url(#p364ad3460f)" d="M 68.847598 306.853943 
C 69.309938 306.853943 69.753404 306.739552 70.080328 306.535962 
C 70.407252 306.332373 70.590941 306.056207 70.590941 305.768288 
C 70.590941 305.480369 70.407252 305.204204 70.080328 305.000614 
C 69.753404 304.797025 69.309938 304.682633 68.847598 304.682633 
C 68.385258 304.682633 67.941792 304.797025 67.614868 305.000614 
C 67.287944 305.204204 67.104254 305.480369 67.104254 305.768288 
C 67.104254 306.056207 67.287944 306.332373 67.614868 306.535962 
C 67.941792 306.739552 68.385258 306.853943 68.847598 306.853943 
z
" style="fill:#0000ff;opacity:0.2;stroke:#0000ff;stroke-linejoin:miter;stroke-width:2;"/>
   </g>
   <g id="patch_43">
    <path clip-path="url(#p364ad3460f)" d="M 68.847598 280.255398 
C 69.309938 280.255398 69.753404 280.141007 70.080328 279.937417 
C 70.407252 279.733828 70.590941 279.457662 70.590941 279.169743 
C 70.590941 278.881824 70.407252 278.605659 70.080328 278.402069 
C 69.753404 278.19848 69.309938 278.084088 68.847598 278.084088 
C 68.385258 278.084088 67.941792 278.19848 67.614868 278.402069 
C 67.287944 278.605659 67.104254 278.881824 67.104254 279.169743 
C 67.104254 279.457662 67.287944 279.733828 67.614868 279.937417 
C 67.941792 280.141007 68.385258 280.255398 68.847598 280.255398 
z
" style="fill:#0000ff;opacity:0.2;stroke:#0000ff;stroke-linejoin:miter;stroke-width:2;"/>
   </g>
   <g id="patch_44">
    <path clip-path="url(#p364ad3460f)" d="M 411.414583 143.191467 
L 61.874224 143.191467 
L 61.874224 104.107891 
L 411.414583 104.107891 
L 411.414583 143.191467 
" style="fill:none;stroke:#ff0000;stroke-linejoin:miter;stroke-width:0.5;"/>
   </g>
   <g id="patch_45">
    <path clip-path="url(#p364ad3460f)" d="M 404.441209 279.169743 
L 404.441209 305.768288 
L 68.847598 305.768288 
L 68.847598 279.169743 
L 404.441209 279.169743 
" style="fill:none;stroke:#0000ff;stroke-linejoin:miter;stroke-width:0.5;"/>
   </g>
   <g id="[&quot;g_s&quot;:1,&quot;g_t&quot;:2,&quot;coords&quot;:[[511.0, -450.0],[503.0, -749.5]],&quot;certainty&quot;:10]">
    <path clip-path="url(#p364ad3460f)" d="M 411.414583 146.177018 
C 412.686018 146.177018 413.90555 145.862442 414.80459 145.302571 
C 415.703631 144.742699 416.208777 143.983245 416.208777 143.191467 
C 416.208777 142.39969 415.703631 141.640235 414.80459 141.080364 
C 413.90555 140.520493 412.686018 140.205916 411.414583 140.205916 
C 410.143147 140.205916 408.923616 140.520493 408.024575 141.080364 
C 407.125535 141.640235 406.620388 142.39969 406.620388 143.191467 
C 406.620388 143.983245 407.125535 144.742699 408.024575 145.302571 
C 408.923616 145.862442 410.143147 146.177018 411.414583 146.177018 
z
" style="fill:#0000ff;opacity:0.2;stroke:#0000ff;stroke-linejoin:miter;stroke-width:2;"/>
   </g>
   <g id="[&quot;g_s&quot;:2,&quot;g_t&quot;:1,&quot;coords&quot;:[[503.0, -749.5],[511.0, -450.0]],&quot;certainty&quot;:10]">
    <path clip-path="url(#p364ad3460f)" d="M 404.441209 308.753839 
C 405.712644 308.753839 406.932176 308.439263 407.831216 307.879392 
C 408.730257 307.31952 409.235403 306.560066 409.235403 305.768288 
C 409.235403 304.976511 408.730257 304.217056 407.831216 303.657185 
C 406.932176 303.097314 405.712644 302.782737 404.441209 302.782737 
C 403.169774 302.782737 401.950242 303.097314 401.051202 303.657185 
C 400.152161 304.217056 399.647015 304.976511 399.647015 305.768288 
C 399.647015 306.560066 400.152161 307.31952 401.051202 307.879392 
C 401.950242 308.439263 403.169774 308.753839 404.441209 308.753839 
z
" style="fill:#ff0000;opacity:0.2;stroke:#ff0000;stroke-linejoin:miter;stroke-width:2;"/>
   </g>
   <g id="patch_46">
    <path d="M 411.414583 143.191467 
Q 407.970777 223.480145 404.610302 301.826066 
" style="fill:none;opacity:0.5;stroke:#0000ff;stroke-linecap:round;stroke-width:2.75;"/>
    <path d="M 406.173204 300.391724 
L 404.610302 301.826066 
L 403.17596 300.263164 
" style="fill:none;opacity:0.5;stroke:#0000ff;stroke-linecap:round;stroke-width:2.75;"/>
   </g>
   <g id="[&quot;g_s&quot;:2,&quot;g_t&quot;:3,&quot;coords&quot;:[[110.0, -450.0],[118.0, -749.5]],&quot;certainty&quot;:11]">
    <path clip-path="url(#p364ad3460f)" d="M 61.874224 146.448432 
C 63.261244 146.448432 64.591643 146.105258 65.572414 145.494489 
C 66.553185 144.883721 67.104254 144.055224 67.104254 143.191467 
C 67.104254 142.32771 66.553185 141.499214 65.572414 140.888445 
C 64.591643 140.277677 63.261244 139.934503 61.874224 139.934503 
C 60.487204 139.934503 59.156806 140.277677 58.176034 140.888445 
C 57.195263 141.499214 56.644194 142.32771 56.644194 143.191467 
C 56.644194 144.055224 57.195263 144.883721 58.176034 145.494489 
C 59.156806 146.105258 60.487204 146.448432 61.874224 146.448432 
z
" style="fill:#0000ff;opacity:0.2;stroke:#0000ff;stroke-linejoin:miter;stroke-width:2;"/>
   </g>
   <g id="[&quot;g_s&quot;:3,&quot;g_t&quot;:2,&quot;coords&quot;:[[118.0, -749.5],[110.0, -450.0]],&quot;certainty&quot;:11]">
    <path clip-path="url(#p364ad3460f)" d="M 68.847598 309.025253 
C 70.234618 309.025253 71.565016 308.682079 72.545788 308.07131 
C 73.526559 307.460542 74.077628 306.632045 74.077628 305.768288 
C 74.077628 304.904531 73.526559 304.076035 72.545788 303.465266 
C 71.565016 302.854498 70.234618 302.511324 68.847598 302.511324 
C 67.460578 302.511324 66.130179 302.854498 65.149408 303.465266 
C 64.168637 304.076035 63.617568 304.904531 63.617568 305.768288 
C 63.617568 306.632045 64.168637 307.460542 65.149408 308.07131 
C 66.130179 308.682079 67.460578 309.025253 68.847598 309.025253 
z
" style="fill:#ff0000;opacity:0.2;stroke:#ff0000;stroke-linejoin:miter;stroke-width:2;"/>
   </g>
   <g id="patch_47">
    <path d="M 61.874224 143.191467 
Q 65.31803 223.480145 68.670929 301.649452 
" style="fill:none;opacity:0.5;stroke:#0000ff;stroke-linecap:round;stroke-width:3;"/>
    <path d="M 70.105271 300.08655 
L 68.670929 301.649452 
L 67.108027 300.21511 
" style="fill:none;opacity:0.5;stroke:#0000ff;stroke-linecap:round;stroke-width:3;"/>
   </g>
   <g id="[&quot;g_s&quot;:3,&quot;g_t&quot;:4,&quot;coords&quot;:[[110.0, -378.0],[118.0, -700.5]],&quot;certainty&quot;:11]">
    <path clip-path="url(#p364ad3460f)" d="M 61.874224 107.364856 
C 63.261244 107.364856 64.591643 107.021681 65.572414 106.410913 
C 66.553185 105.800144 67.104254 104.971648 67.104254 104.107891 
C 67.104254 103.244134 66.553185 102.415638 65.572414 101.804869 
C 64.591643 101.194101 63.261244 100.850926 61.874224 100.850926 
C 60.487204 100.850926 59.156806 101.194101 58.176034 101.804869 
C 57.195263 102.415638 56.644194 103.244134 56.644194 104.107891 
C 56.644194 104.971648 57.195263 105.800144 58.176034 106.410913 
C 59.156806 107.021681 60.487204 107.364856 61.874224 107.364856 
z
" style="fill:#0000ff;opacity:0.2;stroke:#0000ff;stroke-linejoin:miter;stroke-width:2;"/>
   </g>
   <g id="[&quot;g_s&quot;:4,&quot;g_t&quot;:3,&quot;coords&quot;:[[118.0, -700.5],[110.0, -378.0]],&quot;certainty&quot;:11]">
    <path clip-path="url(#p364ad3460f)" d="M 68.847598 282.426708 
C 70.234618 282.426708 71.565016 282.083534 72.545788 281.472765 
C 73.526559 280.861997 74.077628 280.0335 74.077628 279.169743 
C 74.077628 278.305986 73.526559 277.47749 72.545788 276.866721 
C 71.565016 276.255953 70.234618 275.912779 68.847598 275.912779 
C 67.460578 275.912779 66.130179 276.255953 65.149408 276.866721 
C 64.168637 277.47749 63.617568 278.305986 63.617568 279.169743 
C 63.617568 280.0335 64.168637 280.861997 65.149408 281.472765 
C 66.130179 282.083534 67.460578 282.426708 68.847598 282.426708 
z
" style="fill:#ff0000;opacity:0.2;stroke:#ff0000;stroke-linejoin:miter;stroke-width:2;"/>
   </g>
   <g id="patch_48">
    <path d="M 61.874224 104.107891 
Q 65.321062 190.638441 68.683467 275.049351 
" style="fill:none;opacity:0.5;stroke:#0000ff;stroke-linecap:round;stroke-width:3;"/>
    <path d="M 70.122575 273.490837 
L 68.683467 275.049351 
L 67.124952 273.610243 
" style="fill:none;opacity:0.5;stroke:#0000ff;stroke-linecap:round;stroke-width:3;"/>
   </g>
   <g id="[&quot;g_s&quot;:4,&quot;g_t&quot;:1,&quot;coords&quot;:[[511.0, -378.0],[503.0, -700.5]],&quot;certainty&quot;:12]">
    <path clip-path="url(#p364ad3460f)" d="M 411.414583 107.636269 
C 412.917188 107.636269 414.358453 107.264497 415.420955 106.602831 
C 416.483457 105.941165 417.080449 105.043628 417.080449 104.107891 
C 417.080449 103.172154 416.483457 102.274616 415.420955 101.612951 
C 414.358453 100.951285 412.917188 100.579512 411.414583 100.579512 
C 409.911977 100.579512 408.470713 100.951285 407.40821 101.612951 
C 406.345708 102.274616 405.748717 103.172154 405.748717 104.107891 
C 405.748717 105.043628 406.345708 105.941165 407.40821 106.602831 
C 408.470713 107.264497 409.911977 107.636269 411.414583 107.636269 
z
" style="fill:#0000ff;opacity:0.2;stroke:#0000ff;stroke-linejoin:miter;stroke-width:2;"/>
   </g>
   <g id="[&quot;g_s&quot;:1,&quot;g_t&quot;:4,&quot;coords&quot;:[[503.0, -700.5],[511.0, -378.0]],&quot;certainty&quot;:12]">
    <path clip-path="url(#p364ad3460f)" d="M 404.441209 282.698122 
C 405.943814 282.698122 407.385079 282.326349 408.447581 281.664684 
C 409.510084 281.003018 410.107075 280.10548 410.107075 279.169743 
C 410.107075 278.234006 409.510084 277.336469 408.447581 276.674803 
C 407.385079 276.013137 405.943814 275.641365 404.441209 275.641365 
C 402.938604 275.641365 401.497339 276.013137 400.434837 276.674803 
C 399.372334 277.336469 398.775343 278.234006 398.775343 279.169743 
C 398.775343 280.10548 399.372334 281.003018 400.434837 281.664684 
C 401.497339 282.326349 402.938604 282.698122 404.441209 282.698122 
z
" style="fill:#ff0000;opacity:0.2;stroke:#ff0000;stroke-linejoin:miter;stroke-width:2;"/>
   </g>
   <g id="patch_49">
    <path d="M 411.414583 104.107891 
Q 407.967745 190.638441 404.612376 274.872715 
" style="fill:none;opacity:0.5;stroke:#0000ff;stroke-linecap:round;stroke-width:3.25;"/>
    <path d="M 406.17089 273.433607 
L 404.612376 274.872715 
L 403.173268 273.3142 
" style="fill:none;opacity:0.5;stroke:#0000ff;stroke-linecap:round;stroke-width:3.25;"/>
   </g>
   <g id="[&quot;g_s&quot;:1,&quot;g_t&quot;:4,&quot;coords&quot;:[[503.0, -700.5],[511.0, -378.0]],&quot;certainty&quot;:10]">
    <path clip-path="url(#p364ad3460f)" d="M 404.441209 282.155294 
C 405.712644 282.155294 406.932176 281.840718 407.831216 281.280847 
C 408.730257 280.720975 409.235403 279.961521 409.235403 279.169743 
C 409.235403 278.377966 408.730257 277.618511 407.831216 277.05864 
C 406.932176 276.498769 405.712644 276.184192 404.441209 276.184192 
C 403.169774 276.184192 401.950242 276.498769 401.051202 277.05864 
C 400.152161 277.618511 399.647015 278.377966 399.647015 279.169743 
C 399.647015 279.961521 400.152161 280.720975 401.051202 281.280847 
C 401.950242 281.840718 403.169774 282.155294 404.441209 282.155294 
z
" style="fill:#0000ff;opacity:0.2;stroke:#0000ff;stroke-linejoin:miter;stroke-width:2;"/>
   </g>
   <g id="[&quot;g_s&quot;:4,&quot;g_t&quot;:1,&quot;coords&quot;:[[511.0, -378.0],[503.0, -700.5]],&quot;certainty&quot;:10]">
    <path clip-path="url(#p364ad3460f)" d="M 411.414583 107.093442 
C 412.686018 107.093442 413.90555 106.778865 414.80459 106.218994 
C 415.703631 105.659123 416.208777 104.899668 416.208777 104.107891 
C 416.208777 103.316114 415.703631 102.556659 414.80459 101.996788 
C 413.90555 101.436916 412.686018 101.12234 411.414583 101.12234 
C 410.143147 101.12234 408.923616 101.436916 408.024575 101.996788 
C 407.125535 102.556659 406.620388 103.316114 406.620388 104.107891 
C 406.620388 104.899668 407.125535 105.659123 408.024575 106.218994 
C 408.923616 106.778865 410.143147 107.093442 411.414583 107.093442 
z
" style="fill:#ff0000;opacity:0.2;stroke:#ff0000;stroke-linejoin:miter;stroke-width:2;"/>
   </g>
   <g id="patch_50">
    <path d="M 404.441209 279.169743 
Q 407.888047 192.639193 411.257488 108.051646 
" style="fill:none;opacity:0.5;stroke:#ff0000;stroke-linecap:round;stroke-width:2.75;"/>
    <path d="M 409.698973 109.490754 
L 411.257488 108.051646 
L 412.696596 109.610161 
" style="fill:none;opacity:0.5;stroke:#ff0000;stroke-linecap:round;stroke-width:2.75;"/>
   </g>
   <g id="[&quot;g_s&quot;:2,&quot;g_t&quot;:1,&quot;coords&quot;:[[503.0, -749.5],[511.0, -450.0]],&quot;certainty&quot;:11]">
    <path clip-path="url(#p364ad3460f)" d="M 404.441209 309.025253 
C 405.828229 309.025253 407.158627 308.682079 408.139399 308.07131 
C 409.12017 307.460542 409.671239 306.632045 409.671239 305.768288 
C 409.671239 304.904531 409.12017 304.076035 408.139399 303.465266 
C 407.158627 302.854498 405.828229 302.511324 404.441209 302.511324 
C 403.054189 302.511324 401.72379 302.854498 400.743019 303.465266 
C 399.762248 304.076035 399.211179 304.904531 399.211179 305.768288 
C 399.211179 306.632045 399.762248 307.460542 400.743019 308.07131 
C 401.72379 308.682079 403.054189 309.025253 404.441209 309.025253 
z
" style="fill:#0000ff;opacity:0.2;stroke:#0000ff;stroke-linejoin:miter;stroke-width:2;"/>
   </g>
   <g id="[&quot;g_s&quot;:1,&quot;g_t&quot;:2,&quot;coords&quot;:[[511.0, -450.0],[503.0, -749.5]],&quot;certainty&quot;:11]">
    <path clip-path="url(#p364ad3460f)" d="M 411.414583 146.448432 
C 412.801603 146.448432 414.132001 146.105258 415.112773 145.494489 
C 416.093544 144.883721 416.644613 144.055224 416.644613 143.191467 
C 416.644613 142.32771 416.093544 141.499214 415.112773 140.888445 
C 414.132001 140.277677 412.801603 139.934503 411.414583 139.934503 
C 410.027562 139.934503 408.697164 140.277677 407.716393 140.888445 
C 406.735621 141.499214 406.184552 142.32771 406.184552 143.191467 
C 406.184552 144.055224 406.735621 144.883721 407.716393 145.494489 
C 408.697164 146.105258 410.027562 146.448432 411.414583 146.448432 
z
" style="fill:#ff0000;opacity:0.2;stroke:#ff0000;stroke-linejoin:miter;stroke-width:2;"/>
   </g>
   <g id="patch_51">
    <path d="M 404.441209 305.768288 
Q 407.885015 225.47961 411.237914 147.310304 
" style="fill:none;opacity:0.5;stroke:#ff0000;stroke-linecap:round;stroke-width:3;"/>
    <path d="M 409.675012 148.744646 
L 411.237914 147.310304 
L 412.672256 148.873206 
" style="fill:none;opacity:0.5;stroke:#ff0000;stroke-linecap:round;stroke-width:3;"/>
   </g>
   <g id="[&quot;g_s&quot;:3,&quot;g_t&quot;:2,&quot;coords&quot;:[[118.0, -749.5],[110.0, -450.0]],&quot;certainty&quot;:11]">
    <path clip-path="url(#p364ad3460f)" d="M 68.847598 309.025253 
C 70.234618 309.025253 71.565016 308.682079 72.545788 308.07131 
C 73.526559 307.460542 74.077628 306.632045 74.077628 305.768288 
C 74.077628 304.904531 73.526559 304.076035 72.545788 303.465266 
C 71.565016 302.854498 70.234618 302.511324 68.847598 302.511324 
C 67.460578 302.511324 66.130179 302.854498 65.149408 303.465266 
C 64.168637 304.076035 63.617568 304.904531 63.617568 305.768288 
C 63.617568 306.632045 64.168637 307.460542 65.149408 308.07131 
C 66.130179 308.682079 67.460578 309.025253 68.847598 309.025253 
z
" style="fill:#0000ff;opacity:0.2;stroke:#0000ff;stroke-linejoin:miter;stroke-width:2;"/>
   </g>
   <g id="[&quot;g_s&quot;:2,&quot;g_t&quot;:3,&quot;coords&quot;:[[110.0, -450.0],[118.0, -749.5]],&quot;certainty&quot;:11]">
    <path clip-path="url(#p364ad3460f)" d="M 61.874224 146.448432 
C 63.261244 146.448432 64.591643 146.105258 65.572414 145.494489 
C 66.553185 144.883721 67.104254 144.055224 67.104254 143.191467 
C 67.104254 142.32771 66.553185 141.499214 65.572414 140.888445 
C 64.591643 140.277677 63.261244 139.934503 61.874224 139.934503 
C 60.487204 139.934503 59.156806 140.277677 58.176034 140.888445 
C 57.195263 141.499214 56.644194 142.32771 56.644194 143.191467 
C 56.644194 144.055224 57.195263 144.883721 58.176034 145.494489 
C 59.156806 146.105258 60.487204 146.448432 61.874224 146.448432 
z
" style="fill:#ff0000;opacity:0.2;stroke:#ff0000;stroke-linejoin:miter;stroke-width:2;"/>
   </g>
   <g id="patch_52">
    <path d="M 68.847598 305.768288 
Q 65.403792 225.47961 62.050893 147.310304 
" style="fill:none;opacity:0.5;stroke:#ff0000;stroke-linecap:round;stroke-width:3;"/>
    <path d="M 60.616551 148.873206 
L 62.050893 147.310304 
L 63.613795 148.744646 
" style="fill:none;opacity:0.5;stroke:#ff0000;stroke-linecap:round;stroke-width:3;"/>
   </g>
   <g id="[&quot;g_s&quot;:4,&quot;g_t&quot;:3,&quot;coords&quot;:[[118.0, -700.5],[110.0, -378.0]],&quot;certainty&quot;:12]">
    <path clip-path="url(#p364ad3460f)" d="M 68.847598 282.698122 
C 70.350203 282.698122 71.791468 282.326349 72.85397 281.664684 
C 73.916473 281.003018 74.513464 280.10548 74.513464 279.169743 
C 74.513464 278.234006 73.916473 277.336469 72.85397 276.674803 
C 71.791468 276.013137 70.350203 275.641365 68.847598 275.641365 
C 67.344993 275.641365 65.903728 276.013137 64.841225 276.674803 
C 63.778723 277.336469 63.181732 278.234006 63.181732 279.169743 
C 63.181732 280.10548 63.778723 281.003018 64.841225 281.664684 
C 65.903728 282.326349 67.344993 282.698122 68.847598 282.698122 
z
" style="fill:#0000ff;opacity:0.2;stroke:#0000ff;stroke-linejoin:miter;stroke-width:2;"/>
   </g>
   <g id="[&quot;g_s&quot;:3,&quot;g_t&quot;:4,&quot;coords&quot;:[[110.0, -378.0],[118.0, -700.5]],&quot;certainty&quot;:12]">
    <path clip-path="url(#p364ad3460f)" d="M 61.874224 107.636269 
C 63.376829 107.636269 64.818094 107.264497 65.880597 106.602831 
C 66.943099 105.941165 67.54009 105.043628 67.54009 104.107891 
C 67.54009 103.172154 66.943099 102.274616 65.880597 101.612951 
C 64.818094 100.951285 63.376829 100.579512 61.874224 100.579512 
C 60.371619 100.579512 58.930354 100.951285 57.867852 101.612951 
C 56.805349 102.274616 56.208358 103.172154 56.208358 104.107891 
C 56.208358 105.043628 56.805349 105.941165 57.867852 106.602831 
C 58.930354 107.264497 60.371619 107.636269 61.874224 107.636269 
z
" style="fill:#ff0000;opacity:0.2;stroke:#ff0000;stroke-linejoin:miter;stroke-width:2;"/>
   </g>
   <g id="patch_53">
    <path d="M 68.847598 279.169743 
Q 65.40076 192.639193 62.045391 108.40492 
" style="fill:none;opacity:0.5;stroke:#ff0000;stroke-linecap:round;stroke-width:3.25;"/>
    <path d="M 60.606283 109.963434 
L 62.045391 108.40492 
L 63.603906 109.844028 
" style="fill:none;opacity:0.5;stroke:#ff0000;stroke-linecap:round;stroke-width:3.25;"/>
   </g>
   <g id="patch_54">
    <path clip-path="url(#p364ad3460f)" d="M 407.927896 227.194015 
C 409.083746 227.194015 410.192411 226.908036 411.009721 226.399063 
C 411.82703 225.890089 412.286254 225.199675 412.286254 224.479878 
C 412.286254 223.76008 411.82703 223.069667 411.009721 222.560693 
C 410.192411 222.051719 409.083746 221.765741 407.927896 221.765741 
C 406.772046 221.765741 405.66338 222.051719 404.846071 222.560693 
C 404.028761 223.069667 403.569537 223.76008 403.569537 224.479878 
C 403.569537 225.199675 404.028761 225.890089 404.846071 226.399063 
C 405.66338 226.908036 406.772046 227.194015 407.927896 227.194015 
z
" style="fill:#008000;opacity:0.2;stroke:#008000;stroke-linejoin:miter;stroke-width:2;"/>
   </g>
   <g id="patch_55">
    <path clip-path="url(#p364ad3460f)" d="M 65.360911 227.194015 
C 66.516761 227.194015 67.625426 226.908036 68.442736 226.399063 
C 69.260045 225.890089 69.71927 225.199675 69.71927 224.479878 
C 69.71927 223.76008 69.260045 223.069667 68.442736 222.560693 
C 67.625426 222.051719 66.516761 221.765741 65.360911 221.765741 
C 64.205061 221.765741 63.096396 222.051719 62.279086 222.560693 
C 61.461777 223.069667 61.002552 223.76008 61.002552 224.479878 
C 61.002552 225.199675 61.461777 225.890089 62.279086 226.399063 
C 63.096396 226.908036 64.205061 227.194015 65.360911 227.194015 
z
" style="fill:#008000;opacity:0.2;stroke:#008000;stroke-linejoin:miter;stroke-width:2;"/>
   </g>
   <g id="patch_56">
    <path clip-path="url(#p364ad3460f)" d="M 65.360911 194.352954 
C 66.516761 194.352954 67.625426 194.066976 68.442736 193.558002 
C 69.260045 193.049028 69.71927 192.358615 69.71927 191.638817 
C 69.71927 190.919019 69.260045 190.228606 68.442736 189.719632 
C 67.625426 189.210658 66.516761 188.92468 65.360911 188.92468 
C 64.205061 188.92468 63.096396 189.210658 62.279086 189.719632 
C 61.461777 190.228606 61.002552 190.919019 61.002552 191.638817 
C 61.002552 192.358615 61.461777 193.049028 62.279086 193.558002 
C 63.096396 194.066976 64.205061 194.352954 65.360911 194.352954 
z
" style="fill:#008000;opacity:0.2;stroke:#008000;stroke-linejoin:miter;stroke-width:2;"/>
   </g>
   <g id="patch_57">
    <path clip-path="url(#p364ad3460f)" d="M 407.927896 194.352954 
C 409.083746 194.352954 410.192411 194.066976 411.009721 193.558002 
C 411.82703 193.049028 412.286254 192.358615 412.286254 191.638817 
C 412.286254 190.919019 411.82703 190.228606 411.009721 189.719632 
C 410.192411 189.210658 409.083746 188.92468 407.927896 188.92468 
C 406.772046 188.92468 405.66338 189.210658 404.846071 189.719632 
C 404.028761 190.228606 403.569537 190.919019 403.569537 191.638817 
C 403.569537 192.358615 404.028761 193.049028 404.846071 193.558002 
C 405.66338 194.066976 406.772046 194.352954 407.927896 194.352954 
z
" style="fill:#008000;opacity:0.2;stroke:#008000;stroke-linejoin:miter;stroke-width:2;"/>
   </g>
   <g id="patch_58">
    <path clip-path="url(#p364ad3460f)" d="M 411.414583 154.048016 
C 416.037984 154.048016 420.472644 152.904102 423.741882 150.868207 
C 427.01112 148.832312 428.848017 146.070658 428.848017 143.191467 
C 428.848017 140.312277 427.01112 137.550623 423.741882 135.514728 
C 420.472644 133.478833 416.037984 132.334918 411.414583 132.334918 
C 406.791182 132.334918 402.356521 133.478833 399.087283 135.514728 
C 395.818045 137.550623 393.981148 140.312277 393.981148 143.191467 
C 393.981148 146.070658 395.818045 148.832312 399.087283 150.868207 
C 402.356521 152.904102 406.791182 154.048016 411.414583 154.048016 
z
" style="fill:none;opacity:0.2;stroke:#ff0000;stroke-linejoin:miter;stroke-width:2;"/>
   </g>
   <g id="patch_59">
    <path clip-path="url(#p364ad3460f)" d="M 404.441209 290.026292 
C 409.06461 290.026292 413.499271 288.882378 416.768509 286.846483 
C 420.037747 284.810588 421.874643 282.048934 421.874643 279.169743 
C 421.874643 276.290553 420.037747 273.528899 416.768509 271.493004 
C 413.499271 269.457109 409.06461 268.313194 404.441209 268.313194 
C 399.817808 268.313194 395.383147 269.457109 392.113909 271.493004 
C 388.844671 273.528899 387.007775 276.290553 387.007775 279.169743 
C 387.007775 282.048934 388.844671 284.810588 392.113909 286.846483 
C 395.383147 288.882378 399.817808 290.026292 404.441209 290.026292 
z
" style="fill:none;opacity:0.2;stroke:#0000ff;stroke-linejoin:miter;stroke-width:2;"/>
   </g>
   <g id="patch_60">
    <path clip-path="url(#p364ad3460f)" d="M 411.414583 148.619742 
C 413.726283 148.619742 415.943613 148.047784 417.578233 147.029837 
C 419.212852 146.011889 420.1313 144.631062 420.1313 143.191467 
C 420.1313 141.751872 419.212852 140.371045 417.578233 139.353098 
C 415.943613 138.33515 413.726283 137.763193 411.414583 137.763193 
C 409.102882 137.763193 406.885552 138.33515 405.250933 139.353098 
C 403.616314 140.371045 402.697866 141.751872 402.697866 143.191467 
C 402.697866 144.631062 403.616314 146.011889 405.250933 147.029837 
C 406.885552 148.047784 409.102882 148.619742 411.414583 148.619742 
z
" style="fill:none;opacity:0.2;stroke:#008000;stroke-linejoin:miter;stroke-width:2;"/>
   </g>
   <g id="patch_61">
    <path clip-path="url(#p364ad3460f)" d="M 404.441209 311.196563 
C 406.752909 311.196563 408.97024 310.624606 410.604859 309.606658 
C 412.239478 308.58871 413.157926 307.207884 413.157926 305.768288 
C 413.157926 304.328693 412.239478 302.947866 410.604859 301.929919 
C 408.97024 300.911971 406.752909 300.340014 404.441209 300.340014 
C 402.129509 300.340014 399.912178 300.911971 398.277559 301.929919 
C 396.64294 302.947866 395.724492 304.328693 395.724492 305.768288 
C 395.724492 307.207884 396.64294 308.58871 398.277559 309.606658 
C 399.912178 310.624606 402.129509 311.196563 404.441209 311.196563 
z
" style="fill:none;opacity:0.2;stroke:#008000;stroke-linejoin:miter;stroke-width:2;"/>
   </g>
   <g id="patch_62">
    <path d="M 407.927896 224.479878 
Q 236.644403 224.479878 65.360911 224.479878 
" style="fill:none;opacity:0.5;stroke:#008000;stroke-linecap:round;stroke-width:2;"/>
   </g>
   <g id="patch_63">
    <path d="M 411.353979 144.604382 
Q 407.970777 223.480145 404.587575 302.355909 
" style="fill:none;opacity:0.5;stroke:#800080;stroke-linecap:round;stroke-width:2;"/>
    <path d="M 409.791077 146.038724 
L 411.353979 144.604382 
L 412.788321 146.167284 
" style="fill:none;opacity:0.5;stroke:#800080;stroke-linecap:round;stroke-width:2;"/>
    <path d="M 406.150478 300.921567 
L 404.587575 302.355909 
L 403.153233 300.793007 
" style="fill:none;opacity:0.5;stroke:#800080;stroke-linecap:round;stroke-width:2;"/>
   </g>
   <g id="patch_64">
    <path d="M 65.360911 224.479878 
Q 65.360911 208.059347 65.360911 191.638817 
" style="fill:none;opacity:0.5;stroke:#008000;stroke-linecap:round;stroke-width:2;"/>
   </g>
   <g id="patch_65">
    <path d="M 61.934828 144.604382 
Q 65.31803 223.480145 68.701231 302.355909 
" style="fill:none;opacity:0.5;stroke:#800080;stroke-linecap:round;stroke-width:2;"/>
    <path d="M 60.500486 146.167284 
L 61.934828 144.604382 
L 63.49773 146.038724 
" style="fill:none;opacity:0.5;stroke:#800080;stroke-linecap:round;stroke-width:2;"/>
    <path d="M 70.135573 300.793007 
L 68.701231 302.355909 
L 67.138329 300.921567 
" style="fill:none;opacity:0.5;stroke:#800080;stroke-linecap:round;stroke-width:2;"/>
   </g>
   <g id="patch_66">
    <path d="M 65.360911 191.638817 
Q 236.644403 191.638817 407.927896 191.638817 
" style="fill:none;opacity:0.5;stroke:#008000;stroke-linecap:round;stroke-width:2;"/>
   </g>
   <g id="patch_67">
    <path d="M 61.930513 105.520984 
Q 65.321062 190.638441 68.711612 275.755898 
" style="fill:none;opacity:0.5;stroke:#800080;stroke-linecap:round;stroke-width:2;"/>
    <path d="M 60.491405 107.079498 
L 61.930513 105.520984 
L 63.489028 106.960092 
" style="fill:none;opacity:0.5;stroke:#800080;stroke-linecap:round;stroke-width:2;"/>
    <path d="M 70.15072 274.197383 
L 68.711612 275.755898 
L 67.153097 274.31679 
" style="fill:none;opacity:0.5;stroke:#800080;stroke-linecap:round;stroke-width:2;"/>
   </g>
   <g id="patch_68">
    <path d="M 407.927896 191.638817 
Q 407.927896 208.059347 407.927896 224.479878 
" style="fill:none;opacity:0.5;stroke:#008000;stroke-linecap:round;stroke-width:2;"/>
   </g>
   <g id="patch_69">
    <path d="M 411.358294 105.520984 
Q 407.967745 190.638441 404.577195 275.755898 
" style="fill:none;opacity:0.5;stroke:#800080;stroke-linecap:round;stroke-width:2;"/>
    <path d="M 409.799779 106.960092 
L 411.358294 105.520984 
L 412.797402 107.079498 
" style="fill:none;opacity:0.5;stroke:#800080;stroke-linecap:round;stroke-width:2;"/>
    <path d="M 406.13571 274.31679 
L 404.577195 275.755898 
L 403.138087 274.197383 
" style="fill:none;opacity:0.5;stroke:#800080;stroke-linecap:round;stroke-width:2;"/>
   </g>
   <g id="line2d_1">
    <path clip-path="url(#p364ad3460f)" d="M 411.414583 221.35862 
L 61.874224 221.35862 
L 61.874224 182.275044 
L 411.414583 182.275044 
" style="fill:none;stroke:#ff0000;stroke-linecap:square;stroke-width:0.2;"/>
   </g>
   <g id="line2d_2">
    <path clip-path="url(#p364ad3460f)" d="M 404.441209 38.154356 
L 404.441209 64.752901 
L 68.847598 64.752901 
L 68.847598 38.154356 
" style="fill:none;stroke:#0000ff;stroke-linecap:square;stroke-width:0.2;"/>
   </g>
   <g id="line2d_3">
    <path clip-path="url(#p364ad3460f)" d="M 411.414583 143.191467 
L 61.874224 143.191467 
L 61.874224 104.107891 
L 411.414583 104.107891 
" style="fill:none;stroke:#ff0000;stroke-linecap:square;stroke-width:0.2;"/>
   </g>
   <g id="line2d_4">
    <path clip-path="url(#p364ad3460f)" d="M 404.441209 279.169743 
L 404.441209 305.768288 
L 68.847598 305.768288 
L 68.847598 279.169743 
" style="fill:none;stroke:#0000ff;stroke-linecap:square;stroke-width:0.2;"/>
   </g>
  </g>
 </g>
 <defs>
  <clipPath id="p364ad3460f">
   <rect height="307.51175" width="409.903625" x="37.576375" y="13.32"/>
  </clipPath>
 </defs>
</svg>
