<?xml version="1.0" encoding="utf-8" standalone="no"?>
<!DOCTYPE svg PUBLIC "-//W3C//DTD SVG 1.1//EN"
  "http://www.w3.org/Graphics/SVG/1.1/DTD/svg11.dtd">
<!-- Created with matplotlib (http://matplotlib.org/) -->
<svg height="345.6pt" version="1.1" viewBox="0 0 460.8 345.6" width="460.8pt" xmlns="http://www.w3.org/2000/svg" xmlns:xlink="http://www.w3.org/1999/xlink">
 <defs>
  <style type="text/css">
*{stroke-linecap:butt;stroke-linejoin:round;}
  </style>
 </defs>
 <g id="figure_1">
  <g id="patch_1">
   <path d="M 0 345.6 
L 460.8 345.6 
L 460.8 0 
L 0 0 
z
" style="fill:#ffffff;"/>
  </g>
  <g id="axes_1">
   <g id="patch_2">
    <path clip-path="url(#p4c21a8c0ba)" d="M 241.98813 296.573237 
C 243.133929 296.573237 244.232954 296.48991 245.043156 296.34161 
C 245.853359 296.193309 246.30859 295.992142 246.30859 295.782413 
C 246.30859 295.572684 245.853359 295.371517 245.043156 295.223216 
C 244.232954 295.074916 243.133929 294.991589 241.98813 294.991589 
C 240.842331 294.991589 239.743306 295.074916 238.933104 295.223216 
C 238.122901 295.371517 237.66767 295.572684 237.66767 295.782413 
C 237.66767 295.992142 238.122901 296.193309 238.933104 296.34161 
C 239.743306 296.48991 240.842331 296.573237 241.98813 296.573237 
z
" style="fill:#ff0000;opacity:0.2;stroke:#ff0000;stroke-linejoin:miter;stroke-width:2;"/>
   </g>
   <g id="patch_3">
    <path clip-path="url(#p4c21a8c0ba)" d="M 69.169737 279.57053 
C 70.315537 279.57053 71.414561 279.487203 72.224764 279.338903 
C 73.034966 279.190602 73.490197 278.989435 73.490197 278.779706 
C 73.490197 278.569977 73.034966 278.36881 72.224764 278.220509 
C 71.414561 278.072209 70.315537 277.988882 69.169737 277.988882 
C 68.023938 277.988882 66.924913 278.072209 66.114711 278.220509 
C 65.304508 278.36881 64.849278 278.569977 64.849278 278.779706 
C 64.849278 278.989435 65.304508 279.190602 66.114711 279.338903 
C 66.924913 279.487203 68.023938 279.57053 69.169737 279.57053 
z
" style="fill:#ff0000;opacity:0.2;stroke:#ff0000;stroke-linejoin:miter;stroke-width:2;"/>
   </g>
   <g id="patch_4">
    <path clip-path="url(#p4c21a8c0ba)" d="M 103.733416 233.30735 
C 104.879215 233.30735 105.97824 233.224024 106.788442 233.075723 
C 107.598645 232.927422 108.053876 232.726255 108.053876 232.516526 
C 108.053876 232.306798 107.598645 232.10563 106.788442 231.95733 
C 105.97824 231.809029 104.879215 231.725703 103.733416 231.725703 
C 102.587617 231.725703 101.488592 231.809029 100.678389 231.95733 
C 99.868187 232.10563 99.412956 232.306798 99.412956 232.516526 
C 99.412956 232.726255 99.868187 232.927422 100.678389 233.075723 
C 101.488592 233.224024 102.587617 233.30735 103.733416 233.30735 
z
" style="fill:#ff0000;opacity:0.2;stroke:#ff0000;stroke-linejoin:miter;stroke-width:2;"/>
   </g>
   <g id="patch_5">
    <path clip-path="url(#p4c21a8c0ba)" d="M 194.463072 122.196637 
C 195.608871 122.196637 196.707896 122.113311 197.518098 121.96501 
C 198.328301 121.816709 198.783532 121.615542 198.783532 121.405813 
C 198.783532 121.196084 198.328301 120.994917 197.518098 120.846616 
C 196.707896 120.698316 195.608871 120.61499 194.463072 120.61499 
C 193.317273 120.61499 192.218248 120.698316 191.408046 120.846616 
C 190.597843 120.994917 190.142612 121.196084 190.142612 121.405813 
C 190.142612 121.615542 190.597843 121.816709 191.408046 121.96501 
C 192.218248 122.113311 193.317273 122.196637 194.463072 122.196637 
z
" style="fill:#ff0000;opacity:0.2;stroke:#ff0000;stroke-linejoin:miter;stroke-width:2;"/>
   </g>
   <g id="patch_6">
    <path clip-path="url(#p4c21a8c0ba)" d="M 289.513188 122.196637 
C 290.658987 122.196637 291.758012 122.113311 292.568214 121.96501 
C 293.378417 121.816709 293.833648 121.615542 293.833648 121.405813 
C 293.833648 121.196084 293.378417 120.994917 292.568214 120.846616 
C 291.758012 120.698316 290.658987 120.61499 289.513188 120.61499 
C 288.367389 120.61499 287.268364 120.698316 286.458162 120.846616 
C 285.647959 120.994917 285.192728 121.196084 285.192728 121.405813 
C 285.192728 121.615542 285.647959 121.816709 286.458162 121.96501 
C 287.268364 122.113311 288.367389 122.196637 289.513188 122.196637 
z
" style="fill:#ff0000;opacity:0.2;stroke:#ff0000;stroke-linejoin:miter;stroke-width:2;"/>
   </g>
   <g id="patch_7">
    <path clip-path="url(#p4c21a8c0ba)" d="M 380.242844 233.30735 
C 381.388643 233.30735 382.487668 233.224024 383.297871 233.075723 
C 384.108073 232.927422 384.563304 232.726255 384.563304 232.516526 
C 384.563304 232.306798 384.108073 232.10563 383.297871 231.95733 
C 382.487668 231.809029 381.388643 231.725703 380.242844 231.725703 
C 379.097045 231.725703 377.99802 231.809029 377.187818 231.95733 
C 376.377615 232.10563 375.922384 232.306798 375.922384 232.516526 
C 375.922384 232.726255 376.377615 232.927422 377.187818 233.075723 
C 377.99802 233.224024 379.097045 233.30735 380.242844 233.30735 
z
" style="fill:#ff0000;opacity:0.2;stroke:#ff0000;stroke-linejoin:miter;stroke-width:2;"/>
   </g>
   <g id="patch_8">
    <path clip-path="url(#p4c21a8c0ba)" d="M 414.806523 279.57053 
C 415.952322 279.57053 417.051347 279.487203 417.861549 279.338903 
C 418.671752 279.190602 419.126982 278.989435 419.126982 278.779706 
C 419.126982 278.569977 418.671752 278.36881 417.861549 278.220509 
C 417.051347 278.072209 415.952322 277.988882 414.806523 277.988882 
C 413.660723 277.988882 412.561699 278.072209 411.751496 278.220509 
C 410.941294 278.36881 410.486063 278.569977 410.486063 278.779706 
C 410.486063 278.989435 410.941294 279.190602 411.751496 279.338903 
C 412.561699 279.487203 413.660723 279.57053 414.806523 279.57053 
z
" style="fill:#ff0000;opacity:0.2;stroke:#ff0000;stroke-linejoin:miter;stroke-width:2;"/>
   </g>
   <g id="patch_9">
    <path clip-path="url(#p4c21a8c0ba)" d="M 241.98813 299.736531 
C 243.133929 299.736531 244.232954 299.653205 245.043156 299.504904 
C 245.853359 299.356603 246.30859 299.155436 246.30859 298.945707 
C 246.30859 298.735978 245.853359 298.534811 245.043156 298.386511 
C 244.232954 298.23821 243.133929 298.154884 241.98813 298.154884 
C 240.842331 298.154884 239.743306 298.23821 238.933104 298.386511 
C 238.122901 298.534811 237.66767 298.735978 237.66767 298.945707 
C 237.66767 299.155436 238.122901 299.356603 238.933104 299.504904 
C 239.743306 299.653205 240.842331 299.736531 241.98813 299.736531 
z
" style="fill:#0000ff;opacity:0.2;stroke:#0000ff;stroke-linejoin:miter;stroke-width:2;"/>
   </g>
   <g id="patch_10">
    <path clip-path="url(#p4c21a8c0ba)" d="M 136.136865 288.269589 
C 137.282664 288.269589 138.381688 288.186263 139.191891 288.037962 
C 140.002093 287.889661 140.457324 287.688494 140.457324 287.478765 
C 140.457324 287.269037 140.002093 287.067869 139.191891 286.919569 
C 138.381688 286.771268 137.282664 286.687942 136.136865 286.687942 
C 134.991065 286.687942 133.892041 286.771268 133.081838 286.919569 
C 132.271636 287.067869 131.816405 287.269037 131.816405 287.478765 
C 131.816405 287.688494 132.271636 287.889661 133.081838 288.037962 
C 133.892041 288.186263 134.991065 288.269589 136.136865 288.269589 
z
" style="fill:#0000ff;opacity:0.2;stroke:#0000ff;stroke-linejoin:miter;stroke-width:2;"/>
   </g>
   <g id="patch_11">
    <path clip-path="url(#p4c21a8c0ba)" d="M 151.258474 253.07794 
C 152.404273 253.07794 153.503298 252.994613 154.3135 252.846313 
C 155.123703 252.698012 155.578934 252.496845 155.578934 252.287116 
C 155.578934 252.077387 155.123703 251.87622 154.3135 251.727919 
C 153.503298 251.579619 152.404273 251.496292 151.258474 251.496292 
C 150.112675 251.496292 149.01365 251.579619 148.203447 251.727919 
C 147.393245 251.87622 146.938014 252.077387 146.938014 252.287116 
C 146.938014 252.496845 147.393245 252.698012 148.203447 252.846313 
C 149.01365 252.994613 150.112675 253.07794 151.258474 253.07794 
z
" style="fill:#0000ff;opacity:0.2;stroke:#0000ff;stroke-linejoin:miter;stroke-width:2;"/>
   </g>
   <g id="patch_12">
    <path clip-path="url(#p4c21a8c0ba)" d="M 213.905141 125.359931 
C 215.050941 125.359931 216.149965 125.276605 216.960168 125.128304 
C 217.77037 124.980003 218.225601 124.778836 218.225601 124.569107 
C 218.225601 124.359379 217.77037 124.158211 216.960168 124.009911 
C 216.149965 123.86161 215.050941 123.778284 213.905141 123.778284 
C 212.759342 123.778284 211.660317 123.86161 210.850115 124.009911 
C 210.039912 124.158211 209.584681 124.359379 209.584681 124.569107 
C 209.584681 124.778836 210.039912 124.980003 210.850115 125.128304 
C 211.660317 125.276605 212.759342 125.359931 213.905141 125.359931 
z
" style="fill:#0000ff;opacity:0.2;stroke:#0000ff;stroke-linejoin:miter;stroke-width:2;"/>
   </g>
   <g id="patch_13">
    <path clip-path="url(#p4c21a8c0ba)" d="M 270.071119 125.359931 
C 271.216918 125.359931 272.315943 125.276605 273.126145 125.128304 
C 273.936348 124.980003 274.391579 124.778836 274.391579 124.569107 
C 274.391579 124.359379 273.936348 124.158211 273.126145 124.009911 
C 272.315943 123.86161 271.216918 123.778284 270.071119 123.778284 
C 268.925319 123.778284 267.826295 123.86161 267.016092 124.009911 
C 266.20589 124.158211 265.750659 124.359379 265.750659 124.569107 
C 265.750659 124.778836 266.20589 124.980003 267.016092 125.128304 
C 267.826295 125.276605 268.925319 125.359931 270.071119 125.359931 
z
" style="fill:#0000ff;opacity:0.2;stroke:#0000ff;stroke-linejoin:miter;stroke-width:2;"/>
   </g>
   <g id="patch_14">
    <path clip-path="url(#p4c21a8c0ba)" d="M 332.717786 253.07794 
C 333.863585 253.07794 334.96261 252.994613 335.772813 252.846313 
C 336.583015 252.698012 337.038246 252.496845 337.038246 252.287116 
C 337.038246 252.077387 336.583015 251.87622 335.772813 251.727919 
C 334.96261 251.579619 333.863585 251.496292 332.717786 251.496292 
C 331.571987 251.496292 330.472962 251.579619 329.66276 251.727919 
C 328.852557 251.87622 328.397326 252.077387 328.397326 252.287116 
C 328.397326 252.496845 328.852557 252.698012 329.66276 252.846313 
C 330.472962 252.994613 331.571987 253.07794 332.717786 253.07794 
z
" style="fill:#0000ff;opacity:0.2;stroke:#0000ff;stroke-linejoin:miter;stroke-width:2;"/>
   </g>
   <g id="patch_15">
    <path clip-path="url(#p4c21a8c0ba)" d="M 347.839396 288.269589 
C 348.985195 288.269589 350.084219 288.186263 350.894422 288.037962 
C 351.704624 287.889661 352.159855 287.688494 352.159855 287.478765 
C 352.159855 287.269037 351.704624 287.067869 350.894422 286.919569 
C 350.084219 286.771268 348.985195 286.687942 347.839396 286.687942 
C 346.693596 286.687942 345.594572 286.771268 344.784369 286.919569 
C 343.974167 287.067869 343.518936 287.269037 343.518936 287.478765 
C 343.518936 287.688494 343.974167 287.889661 344.784369 288.037962 
C 345.594572 288.186263 346.693596 288.269589 347.839396 288.269589 
z
" style="fill:#0000ff;opacity:0.2;stroke:#0000ff;stroke-linejoin:miter;stroke-width:2;"/>
   </g>
   <g id="patch_16">
    <path clip-path="url(#p4c21a8c0ba)" d="M 241.98813 295.782413 
C 129.656175 295.782413 69.169737 292.223707 69.169737 278.779706 
C 69.169737 272.453117 82.131117 260.195352 103.733416 232.516526 
L 194.463072 121.405813 
C 220.385831 118.242519 263.590429 118.242519 289.513188 121.405813 
L 380.242844 232.516526 
C 401.845143 260.195352 414.806523 272.453117 414.806523 278.779706 
C 414.806523 292.223707 354.320085 295.782413 241.98813 295.782413 
" style="fill:none;stroke:#ff0000;stroke-linejoin:miter;stroke-width:0.5;"/>
   </g>
   <g id="patch_17">
    <path clip-path="url(#p4c21a8c0ba)" d="M 241.98813 298.945707 
C 172.860773 298.945707 136.136865 297.36406 136.136865 287.478765 
C 136.136865 281.547589 140.457324 273.243941 151.258474 252.287116 
L 213.905141 124.569107 
C 226.866521 122.196637 259.269969 122.196637 270.071119 124.569107 
L 332.717786 252.287116 
C 343.518936 273.243941 347.839396 281.547589 347.839396 287.478765 
C 347.839396 297.36406 311.115487 298.945707 241.98813 298.945707 
" style="fill:none;stroke:#0000ff;stroke-linejoin:miter;stroke-width:0.5;"/>
   </g>
   <g id="[&quot;g_s&quot;:1,&quot;g_t&quot;:1,&quot;coords&quot;:[[177.0, -710.0],[177.0, -718.0]],&quot;certainty&quot;:11]">
    <path clip-path="url(#p4c21a8c0ba)" d="M 241.98813 298.154884 
C 245.425528 298.154884 248.722602 297.904905 251.153209 297.460003 
C 253.583817 297.015101 254.949509 296.4116 254.949509 295.782413 
C 254.949509 295.153226 253.583817 294.549725 251.153209 294.104823 
C 248.722602 293.659921 245.425528 293.409942 241.98813 293.409942 
C 238.550732 293.409942 235.253658 293.659921 232.823051 294.104823 
C 230.392443 294.549725 229.026751 295.153226 229.026751 295.782413 
C 229.026751 296.4116 230.392443 297.015101 232.823051 297.460003 
C 235.253658 297.904905 238.550732 298.154884 241.98813 298.154884 
z
" style="fill:#0000ff;opacity:0.2;stroke:#0000ff;stroke-linejoin:miter;stroke-width:2;"/>
   </g>
   <g id="[&quot;g_s&quot;:1,&quot;g_t&quot;:1,&quot;coords&quot;:[[177.0, -718.0],[177.0, -710.0]],&quot;certainty&quot;:11]">
    <path clip-path="url(#p4c21a8c0ba)" d="M 241.98813 301.318178 
C 245.425528 301.318178 248.722602 301.0682 251.153209 300.623298 
C 253.583817 300.178395 254.949509 299.574894 254.949509 298.945707 
C 254.949509 298.316521 253.583817 297.713019 251.153209 297.268117 
C 248.722602 296.823215 245.425528 296.573237 241.98813 296.573237 
C 238.550732 296.573237 235.253658 296.823215 232.823051 297.268117 
C 230.392443 297.713019 229.026751 298.316521 229.026751 298.945707 
C 229.026751 299.574894 230.392443 300.178395 232.823051 300.623298 
C 235.253658 301.0682 238.550732 301.318178 241.98813 301.318178 
z
" style="fill:#ff0000;opacity:0.2;stroke:#ff0000;stroke-linejoin:miter;stroke-width:2;"/>
   </g>
   <g id="patch_18">
    <path d="M 241.98813 295.782413 
Q 241.98813 296.364719 241.98813 294.825704 
" style="fill:none;opacity:0.5;stroke:#0000ff;stroke-linecap:round;stroke-width:3;"/>
    <path d="M 243.48813 293.325704 
L 241.98813 294.825704 
L 240.48813 293.325704 
" style="fill:none;opacity:0.5;stroke:#0000ff;stroke-linecap:round;stroke-width:3;"/>
   </g>
   <g id="[&quot;g_s&quot;:2,&quot;g_t&quot;:2,&quot;coords&quot;:[[97.0, -667.0],[128.0, -689.0]],&quot;certainty&quot;:10]">
    <path clip-path="url(#p4c21a8c0ba)" d="M 69.169737 280.954471 
C 72.320686 280.954471 75.343003 280.725324 77.57106 280.317497 
C 79.799117 279.90967 81.051002 279.35646 81.051002 278.779706 
C 81.051002 278.202952 79.799117 277.649742 77.57106 277.241915 
C 75.343003 276.834088 72.320686 276.604941 69.169737 276.604941 
C 66.018789 276.604941 62.996472 276.834088 60.768415 277.241915 
C 58.540358 277.649742 57.288473 278.202952 57.288473 278.779706 
C 57.288473 279.35646 58.540358 279.90967 60.768415 280.317497 
C 62.996472 280.725324 66.018789 280.954471 69.169737 280.954471 
z
" style="fill:#0000ff;opacity:0.2;stroke:#0000ff;stroke-linejoin:miter;stroke-width:2;"/>
   </g>
   <g id="[&quot;g_s&quot;:2,&quot;g_t&quot;:2,&quot;coords&quot;:[[128.0, -689.0],[97.0, -667.0]],&quot;certainty&quot;:10]">
    <path clip-path="url(#p4c21a8c0ba)" d="M 136.136865 289.65353 
C 139.287813 289.65353 142.31013 289.424383 144.538187 289.016556 
C 146.766244 288.608729 148.018129 288.05552 148.018129 287.478765 
C 148.018129 286.902011 146.766244 286.348801 144.538187 285.940974 
C 142.31013 285.533148 139.287813 285.304001 136.136865 285.304001 
C 132.985916 285.304001 129.963599 285.533148 127.735542 285.940974 
C 125.507485 286.348801 124.2556 286.902011 124.2556 287.478765 
C 124.2556 288.05552 125.507485 288.608729 127.735542 289.016556 
C 129.963599 289.424383 132.985916 289.65353 136.136865 289.65353 
z
" style="fill:#ff0000;opacity:0.2;stroke:#ff0000;stroke-linejoin:miter;stroke-width:2;"/>
   </g>
   <g id="patch_19">
    <path d="M 69.169737 278.779706 
Q 101.662119 283.000481 132.226158 286.970763 
" style="fill:none;opacity:0.5;stroke:#0000ff;stroke-linecap:round;stroke-width:2.75;"/>
    <path d="M 130.931883 285.290033 
L 132.226158 286.970763 
L 130.545429 288.265038 
" style="fill:none;opacity:0.5;stroke:#0000ff;stroke-linecap:round;stroke-width:2.75;"/>
   </g>
   <g id="[&quot;g_s&quot;:3,&quot;g_t&quot;:3,&quot;coords&quot;:[[113.0, -550.0],[135.0, -600.0]],&quot;certainty&quot;:8]">
    <path clip-path="url(#p4c21a8c0ba)" d="M 103.733416 234.29588 
C 106.311464 234.29588 108.78427 234.108396 110.607225 233.774719 
C 112.430181 233.441042 113.454451 232.988416 113.454451 232.516526 
C 113.454451 232.044636 112.430181 231.59201 110.607225 231.258334 
C 108.78427 230.924657 106.311464 230.737173 103.733416 230.737173 
C 101.155367 230.737173 98.682562 230.924657 96.859606 231.258334 
C 95.036651 231.59201 94.012381 232.044636 94.012381 232.516526 
C 94.012381 232.988416 95.036651 233.441042 96.859606 233.774719 
C 98.682562 234.108396 101.155367 234.29588 103.733416 234.29588 
z
" style="fill:#0000ff;opacity:0.2;stroke:#0000ff;stroke-linejoin:miter;stroke-width:2;"/>
   </g>
   <g id="[&quot;g_s&quot;:3,&quot;g_t&quot;:3,&quot;coords&quot;:[[135.0, -600.0],[113.0, -550.0]],&quot;certainty&quot;:8]">
    <path clip-path="url(#p4c21a8c0ba)" d="M 151.258474 254.066469 
C 153.836522 254.066469 156.309328 253.878985 158.132283 253.545309 
C 159.955239 253.211632 160.979508 252.759006 160.979508 252.287116 
C 160.979508 251.815226 159.955239 251.3626 158.132283 251.028923 
C 156.309328 250.695247 153.836522 250.507763 151.258474 250.507763 
C 148.680425 250.507763 146.20762 250.695247 144.384664 251.028923 
C 142.561709 251.3626 141.537439 251.815226 141.537439 252.287116 
C 141.537439 252.759006 142.561709 253.211632 144.384664 253.545309 
C 146.20762 253.878985 148.680425 254.066469 151.258474 254.066469 
z
" style="fill:#ff0000;opacity:0.2;stroke:#ff0000;stroke-linejoin:miter;stroke-width:2;"/>
   </g>
   <g id="patch_20">
    <path d="M 103.733416 232.516526 
Q 126.572072 242.017487 147.941776 250.907358 
" style="fill:none;opacity:0.5;stroke:#0000ff;stroke-linecap:round;stroke-width:2.25;"/>
    <path d="M 147.132976 248.946277 
L 147.941776 250.907358 
L 145.980695 251.716159 
" style="fill:none;opacity:0.5;stroke:#0000ff;stroke-linecap:round;stroke-width:2.25;"/>
   </g>
   <g id="[&quot;g_s&quot;:4,&quot;g_t&quot;:4,&quot;coords&quot;:[[155.0, -269.0],[164.0, -277.0]],&quot;certainty&quot;:10]">
    <path clip-path="url(#p4c21a8c0ba)" d="M 194.463072 123.580578 
C 197.61402 123.580578 200.636338 123.351431 202.864395 122.943604 
C 205.092452 122.535777 206.344337 121.982567 206.344337 121.405813 
C 206.344337 120.829059 205.092452 120.275849 202.864395 119.868022 
C 200.636338 119.460195 197.61402 119.231048 194.463072 119.231048 
C 191.312124 119.231048 188.289806 119.460195 186.061749 119.868022 
C 183.833693 120.275849 182.581808 120.829059 182.581808 121.405813 
C 182.581808 121.982567 183.833693 122.535777 186.061749 122.943604 
C 188.289806 123.351431 191.312124 123.580578 194.463072 123.580578 
z
" style="fill:#0000ff;opacity:0.2;stroke:#0000ff;stroke-linejoin:miter;stroke-width:2;"/>
   </g>
   <g id="[&quot;g_s&quot;:4,&quot;g_t&quot;:4,&quot;coords&quot;:[[164.0, -277.0],[155.0, -269.0]],&quot;certainty&quot;:10]">
    <path clip-path="url(#p4c21a8c0ba)" d="M 213.905141 126.743872 
C 217.056089 126.743872 220.078407 126.514725 222.306464 126.106898 
C 224.534521 125.699071 225.786406 125.145862 225.786406 124.569107 
C 225.786406 123.992353 224.534521 123.439143 222.306464 123.031316 
C 220.078407 122.62349 217.056089 122.394343 213.905141 122.394343 
C 210.754193 122.394343 207.731875 122.62349 205.503819 123.031316 
C 203.275762 123.439143 202.023877 123.992353 202.023877 124.569107 
C 202.023877 125.145862 203.275762 125.699071 205.503819 126.106898 
C 207.731875 126.514725 210.754193 126.743872 213.905141 126.743872 
z
" style="fill:#ff0000;opacity:0.2;stroke:#ff0000;stroke-linejoin:miter;stroke-width:2;"/>
   </g>
   <g id="patch_21">
    <path d="M 194.463072 121.405813 
Q 203.199187 122.82721 210.015997 123.93633 
" style="fill:none;opacity:0.5;stroke:#0000ff;stroke-linecap:round;stroke-width:2.75;"/>
    <path d="M 208.776354 122.214911 
L 210.015997 123.93633 
L 208.294578 125.175973 
" style="fill:none;opacity:0.5;stroke:#0000ff;stroke-linecap:round;stroke-width:2.75;"/>
   </g>
   <g id="[&quot;g_s&quot;:5,&quot;g_t&quot;:5,&quot;coords&quot;:[[199.0, -269.0],[190.0, -277.0]],&quot;certainty&quot;:5]">
    <path clip-path="url(#p4c21a8c0ba)" d="M 289.513188 122.592048 
C 291.231887 122.592048 292.880424 122.467059 294.095728 122.244608 
C 295.311031 122.022157 295.993878 121.720406 295.993878 121.405813 
C 295.993878 121.09122 295.311031 120.789469 294.095728 120.567018 
C 292.880424 120.344567 291.231887 120.219578 289.513188 120.219578 
C 287.794489 120.219578 286.145952 120.344567 284.930648 120.567018 
C 283.715345 120.789469 283.032498 121.09122 283.032498 121.405813 
C 283.032498 121.720406 283.715345 122.022157 284.930648 122.244608 
C 286.145952 122.467059 287.794489 122.592048 289.513188 122.592048 
z
" style="fill:#0000ff;opacity:0.2;stroke:#0000ff;stroke-linejoin:miter;stroke-width:2;"/>
   </g>
   <g id="[&quot;g_s&quot;:5,&quot;g_t&quot;:5,&quot;coords&quot;:[[190.0, -277.0],[199.0, -269.0]],&quot;certainty&quot;:5]">
    <path clip-path="url(#p4c21a8c0ba)" d="M 270.071119 125.755343 
C 271.789818 125.755343 273.438355 125.630354 274.653658 125.407903 
C 275.868962 125.185451 276.551809 124.883701 276.551809 124.569107 
C 276.551809 124.254514 275.868962 123.952763 274.653658 123.730312 
C 273.438355 123.507861 271.789818 123.382872 270.071119 123.382872 
C 268.35242 123.382872 266.703883 123.507861 265.488579 123.730312 
C 264.273275 123.952763 263.590429 124.254514 263.590429 124.569107 
C 263.590429 124.883701 264.273275 125.185451 265.488579 125.407903 
C 266.703883 125.630354 268.35242 125.755343 270.071119 125.755343 
z
" style="fill:#ff0000;opacity:0.2;stroke:#ff0000;stroke-linejoin:miter;stroke-width:2;"/>
   </g>
   <g id="patch_22">
    <path d="M 289.513188 121.405813 
Q 280.777073 122.82721 273.087851 124.078274 
" style="fill:none;opacity:0.5;stroke:#0000ff;stroke-linecap:round;stroke-width:1.5;"/>
    <path d="M 274.80927 125.317918 
L 273.087851 124.078274 
L 274.327495 122.356855 
" style="fill:none;opacity:0.5;stroke:#0000ff;stroke-linecap:round;stroke-width:1.5;"/>
   </g>
   <g id="[&quot;g_s&quot;:6,&quot;g_t&quot;:6,&quot;coords&quot;:[[241.0, -550.0],[219.0, -600.0]],&quot;certainty&quot;:12]">
    <path clip-path="url(#p4c21a8c0ba)" d="M 380.242844 235.086703 
C 383.966692 235.086703 387.538522 234.815893 390.17168 234.333916 
C 392.804838 233.851938 394.284339 233.198145 394.284339 232.516526 
C 394.284339 231.834908 392.804838 231.181114 390.17168 230.699137 
C 387.538522 230.21716 383.966692 229.94635 380.242844 229.94635 
C 376.518996 229.94635 372.947166 230.21716 370.314008 230.699137 
C 367.68085 231.181114 366.20135 231.834908 366.20135 232.516526 
C 366.20135 233.198145 367.68085 233.851938 370.314008 234.333916 
C 372.947166 234.815893 376.518996 235.086703 380.242844 235.086703 
z
" style="fill:#0000ff;opacity:0.2;stroke:#0000ff;stroke-linejoin:miter;stroke-width:2;"/>
   </g>
   <g id="[&quot;g_s&quot;:6,&quot;g_t&quot;:6,&quot;coords&quot;:[[219.0, -600.0],[241.0, -550.0]],&quot;certainty&quot;:12]">
    <path clip-path="url(#p4c21a8c0ba)" d="M 332.717786 254.857293 
C 336.441634 254.857293 340.013464 254.586483 342.646622 254.104505 
C 345.27978 253.622528 346.759281 252.968735 346.759281 252.287116 
C 346.759281 251.605497 345.27978 250.951704 342.646622 250.469727 
C 340.013464 249.987749 336.441634 249.716939 332.717786 249.716939 
C 328.993938 249.716939 325.422108 249.987749 322.78895 250.469727 
C 320.155792 250.951704 318.676292 251.605497 318.676292 252.287116 
C 318.676292 252.968735 320.155792 253.622528 322.78895 254.104505 
C 325.422108 254.586483 328.993938 254.857293 332.717786 254.857293 
z
" style="fill:#ff0000;opacity:0.2;stroke:#ff0000;stroke-linejoin:miter;stroke-width:2;"/>
   </g>
   <g id="patch_23">
    <path d="M 380.242844 232.516526 
Q 357.404188 242.017487 336.687351 250.635763 
" style="fill:none;opacity:0.5;stroke:#0000ff;stroke-linecap:round;stroke-width:3.25;"/>
    <path d="M 338.648433 251.444564 
L 336.687351 250.635763 
L 337.496152 248.674681 
" style="fill:none;opacity:0.5;stroke:#0000ff;stroke-linecap:round;stroke-width:3.25;"/>
   </g>
   <g id="[&quot;g_s&quot;:7,&quot;g_t&quot;:7,&quot;coords&quot;:[[257.0, -667.0],[226.0, -689.0]],&quot;certainty&quot;:12]">
    <path clip-path="url(#p4c21a8c0ba)" d="M 414.806523 281.349883 
C 418.53037 281.349883 422.1022 281.079073 424.735359 280.597095 
C 427.368517 280.115118 428.848017 279.461325 428.848017 278.779706 
C 428.848017 278.098087 427.368517 277.444294 424.735359 276.962317 
C 422.1022 276.480339 418.53037 276.209529 414.806523 276.209529 
C 411.082675 276.209529 407.510845 276.480339 404.877687 276.962317 
C 402.244529 277.444294 400.765028 278.098087 400.765028 278.779706 
C 400.765028 279.461325 402.244529 280.115118 404.877687 280.597095 
C 407.510845 281.079073 411.082675 281.349883 414.806523 281.349883 
z
" style="fill:#0000ff;opacity:0.2;stroke:#0000ff;stroke-linejoin:miter;stroke-width:2;"/>
   </g>
   <g id="[&quot;g_s&quot;:7,&quot;g_t&quot;:7,&quot;coords&quot;:[[226.0, -689.0],[257.0, -667.0]],&quot;certainty&quot;:12]">
    <path clip-path="url(#p4c21a8c0ba)" d="M 347.839396 290.048942 
C 351.563243 290.048942 355.135073 289.778132 357.768231 289.296155 
C 360.401389 288.814177 361.88089 288.160384 361.88089 287.478765 
C 361.88089 286.797147 360.401389 286.143353 357.768231 285.661376 
C 355.135073 285.179399 351.563243 284.908589 347.839396 284.908589 
C 344.115548 284.908589 340.543718 285.179399 337.91056 285.661376 
C 335.277402 286.143353 333.797901 286.797147 333.797901 287.478765 
C 333.797901 288.160384 335.277402 288.814177 337.91056 289.296155 
C 340.543718 289.778132 344.115548 290.048942 347.839396 290.048942 
z
" style="fill:#ff0000;opacity:0.2;stroke:#ff0000;stroke-linejoin:miter;stroke-width:2;"/>
   </g>
   <g id="patch_24">
    <path d="M 414.806523 278.779706 
Q 382.314141 283.000481 352.10071 286.925219 
" style="fill:none;opacity:0.5;stroke:#0000ff;stroke-linecap:round;stroke-width:3.25;"/>
    <path d="M 353.781439 288.219494 
L 352.10071 286.925219 
L 353.394985 285.244489 
" style="fill:none;opacity:0.5;stroke:#0000ff;stroke-linecap:round;stroke-width:3.25;"/>
   </g>
   <g id="[&quot;g_s&quot;:1,&quot;g_t&quot;:1,&quot;coords&quot;:[[177.0, -718.0],[177.0, -710.0]],&quot;certainty&quot;:11]">
    <path clip-path="url(#p4c21a8c0ba)" d="M 241.98813 301.318178 
C 245.425528 301.318178 248.722602 301.0682 251.153209 300.623298 
C 253.583817 300.178395 254.949509 299.574894 254.949509 298.945707 
C 254.949509 298.316521 253.583817 297.713019 251.153209 297.268117 
C 248.722602 296.823215 245.425528 296.573237 241.98813 296.573237 
C 238.550732 296.573237 235.253658 296.823215 232.823051 297.268117 
C 230.392443 297.713019 229.026751 298.316521 229.026751 298.945707 
C 229.026751 299.574894 230.392443 300.178395 232.823051 300.623298 
C 235.253658 301.0682 238.550732 301.318178 241.98813 301.318178 
z
" style="fill:#0000ff;opacity:0.2;stroke:#0000ff;stroke-linejoin:miter;stroke-width:2;"/>
   </g>
   <g id="[&quot;g_s&quot;:1,&quot;g_t&quot;:1,&quot;coords&quot;:[[177.0, -710.0],[177.0, -718.0]],&quot;certainty&quot;:11]">
    <path clip-path="url(#p4c21a8c0ba)" d="M 241.98813 298.154884 
C 245.425528 298.154884 248.722602 297.904905 251.153209 297.460003 
C 253.583817 297.015101 254.949509 296.4116 254.949509 295.782413 
C 254.949509 295.153226 253.583817 294.549725 251.153209 294.104823 
C 248.722602 293.659921 245.425528 293.409942 241.98813 293.409942 
C 238.550732 293.409942 235.253658 293.659921 232.823051 294.104823 
C 230.392443 294.549725 229.026751 295.153226 229.026751 295.782413 
C 229.026751 296.4116 230.392443 297.015101 232.823051 297.460003 
C 235.253658 297.904905 238.550732 298.154884 241.98813 298.154884 
z
" style="fill:#ff0000;opacity:0.2;stroke:#ff0000;stroke-linejoin:miter;stroke-width:2;"/>
   </g>
   <g id="patch_25">
    <path d="M 241.98813 298.945707 
Q 241.98813 298.363402 241.98813 299.902416 
" style="fill:none;opacity:0.5;stroke:#ff0000;stroke-linecap:round;stroke-width:3;"/>
    <path d="M 240.48813 301.402416 
L 241.98813 299.902416 
L 243.48813 301.402416 
" style="fill:none;opacity:0.5;stroke:#ff0000;stroke-linecap:round;stroke-width:3;"/>
   </g>
   <g id="[&quot;g_s&quot;:2,&quot;g_t&quot;:2,&quot;coords&quot;:[[128.0, -689.0],[97.0, -667.0]],&quot;certainty&quot;:11]">
    <path clip-path="url(#p4c21a8c0ba)" d="M 136.136865 289.851236 
C 139.574263 289.851236 142.871336 289.601258 145.301944 289.156356 
C 147.732551 288.711453 149.098244 288.107952 149.098244 287.478765 
C 149.098244 286.849579 147.732551 286.246077 145.301944 285.801175 
C 142.871336 285.356273 139.574263 285.106295 136.136865 285.106295 
C 132.699467 285.106295 129.402393 285.356273 126.971785 285.801175 
C 124.541178 286.246077 123.175485 286.849579 123.175485 287.478765 
C 123.175485 288.107952 124.541178 288.711453 126.971785 289.156356 
C 129.402393 289.601258 132.699467 289.851236 136.136865 289.851236 
z
" style="fill:#0000ff;opacity:0.2;stroke:#0000ff;stroke-linejoin:miter;stroke-width:2;"/>
   </g>
   <g id="[&quot;g_s&quot;:2,&quot;g_t&quot;:2,&quot;coords&quot;:[[97.0, -667.0],[128.0, -689.0]],&quot;certainty&quot;:11]">
    <path clip-path="url(#p4c21a8c0ba)" d="M 69.169737 281.152177 
C 72.607135 281.152177 75.904209 280.902198 78.334817 280.457296 
C 80.765424 280.012394 82.131117 279.408893 82.131117 278.779706 
C 82.131117 278.150519 80.765424 277.547018 78.334817 277.102116 
C 75.904209 276.657214 72.607135 276.407235 69.169737 276.407235 
C 65.732339 276.407235 62.435266 276.657214 60.004658 277.102116 
C 57.574051 277.547018 56.208358 278.150519 56.208358 278.779706 
C 56.208358 279.408893 57.574051 280.012394 60.004658 280.457296 
C 62.435266 280.902198 65.732339 281.152177 69.169737 281.152177 
z
" style="fill:#ff0000;opacity:0.2;stroke:#ff0000;stroke-linejoin:miter;stroke-width:2;"/>
   </g>
   <g id="patch_26">
    <path d="M 136.136865 287.478765 
Q 103.644483 283.257991 73.255748 279.310481 
" style="fill:none;opacity:0.5;stroke:#ff0000;stroke-linecap:round;stroke-width:3;"/>
    <path d="M 74.550023 280.99121 
L 73.255748 279.310481 
L 74.936477 278.016205 
" style="fill:none;opacity:0.5;stroke:#ff0000;stroke-linecap:round;stroke-width:3;"/>
   </g>
   <g id="[&quot;g_s&quot;:3,&quot;g_t&quot;:3,&quot;coords&quot;:[[135.0, -600.0],[113.0, -550.0]],&quot;certainty&quot;:7]">
    <path clip-path="url(#p4c21a8c0ba)" d="M 151.258474 253.868763 
C 153.550073 253.868763 155.748122 253.702111 157.368527 253.405509 
C 158.988932 253.108908 159.899394 252.706574 159.899394 252.287116 
C 159.899394 251.867658 158.988932 251.465324 157.368527 251.168723 
C 155.748122 250.872121 153.550073 250.705469 151.258474 250.705469 
C 148.966875 250.705469 146.768826 250.872121 145.148421 251.168723 
C 143.528016 251.465324 142.617554 251.867658 142.617554 252.287116 
C 142.617554 252.706574 143.528016 253.108908 145.148421 253.405509 
C 146.768826 253.702111 148.966875 253.868763 151.258474 253.868763 
z
" style="fill:#0000ff;opacity:0.2;stroke:#0000ff;stroke-linejoin:miter;stroke-width:2;"/>
   </g>
   <g id="[&quot;g_s&quot;:3,&quot;g_t&quot;:3,&quot;coords&quot;:[[113.0, -550.0],[135.0, -600.0]],&quot;certainty&quot;:7]">
    <path clip-path="url(#p4c21a8c0ba)" d="M 103.733416 234.098174 
C 106.025015 234.098174 108.223064 233.931521 109.843469 233.63492 
C 111.463874 233.338318 112.374336 232.935984 112.374336 232.516526 
C 112.374336 232.097069 111.463874 231.694734 109.843469 231.398133 
C 108.223064 231.101532 106.025015 230.934879 103.733416 230.934879 
C 101.441817 230.934879 99.243768 231.101532 97.623363 231.398133 
C 96.002958 231.694734 95.092496 232.097069 95.092496 232.516526 
C 95.092496 232.935984 96.002958 233.338318 97.623363 233.63492 
C 99.243768 233.931521 101.441817 234.098174 103.733416 234.098174 
z
" style="fill:#ff0000;opacity:0.2;stroke:#ff0000;stroke-linejoin:miter;stroke-width:2;"/>
   </g>
   <g id="patch_27">
    <path d="M 151.258474 252.287116 
Q 128.419818 242.786155 106.886897 233.828385 
" style="fill:none;opacity:0.5;stroke:#ff0000;stroke-linecap:round;stroke-width:2;"/>
    <path d="M 107.695697 235.789467 
L 106.886897 233.828385 
L 108.847978 233.019584 
" style="fill:none;opacity:0.5;stroke:#ff0000;stroke-linecap:round;stroke-width:2;"/>
   </g>
   <g id="[&quot;g_s&quot;:4,&quot;g_t&quot;:4,&quot;coords&quot;:[[164.0, -277.0],[155.0, -269.0]],&quot;certainty&quot;:10]">
    <path clip-path="url(#p4c21a8c0ba)" d="M 213.905141 126.743872 
C 217.056089 126.743872 220.078407 126.514725 222.306464 126.106898 
C 224.534521 125.699071 225.786406 125.145862 225.786406 124.569107 
C 225.786406 123.992353 224.534521 123.439143 222.306464 123.031316 
C 220.078407 122.62349 217.056089 122.394343 213.905141 122.394343 
C 210.754193 122.394343 207.731875 122.62349 205.503819 123.031316 
C 203.275762 123.439143 202.023877 123.992353 202.023877 124.569107 
C 202.023877 125.145862 203.275762 125.699071 205.503819 126.106898 
C 207.731875 126.514725 210.754193 126.743872 213.905141 126.743872 
z
" style="fill:#0000ff;opacity:0.2;stroke:#0000ff;stroke-linejoin:miter;stroke-width:2;"/>
   </g>
   <g id="[&quot;g_s&quot;:4,&quot;g_t&quot;:4,&quot;coords&quot;:[[155.0, -269.0],[164.0, -277.0]],&quot;certainty&quot;:10]">
    <path clip-path="url(#p4c21a8c0ba)" d="M 194.463072 123.580578 
C 197.61402 123.580578 200.636338 123.351431 202.864395 122.943604 
C 205.092452 122.535777 206.344337 121.982567 206.344337 121.405813 
C 206.344337 120.829059 205.092452 120.275849 202.864395 119.868022 
C 200.636338 119.460195 197.61402 119.231048 194.463072 119.231048 
C 191.312124 119.231048 188.289806 119.460195 186.061749 119.868022 
C 183.833693 120.275849 182.581808 120.829059 182.581808 121.405813 
C 182.581808 121.982567 183.833693 122.535777 186.061749 122.943604 
C 188.289806 123.351431 191.312124 123.580578 194.463072 123.580578 
z
" style="fill:#ff0000;opacity:0.2;stroke:#ff0000;stroke-linejoin:miter;stroke-width:2;"/>
   </g>
   <g id="patch_28">
    <path d="M 213.905141 124.569107 
Q 205.169026 123.14771 198.352216 122.038591 
" style="fill:none;opacity:0.5;stroke:#ff0000;stroke-linecap:round;stroke-width:2.75;"/>
    <path d="M 199.591859 123.76001 
L 198.352216 122.038591 
L 200.073635 120.798947 
" style="fill:none;opacity:0.5;stroke:#ff0000;stroke-linecap:round;stroke-width:2.75;"/>
   </g>
   <g id="[&quot;g_s&quot;:5,&quot;g_t&quot;:5,&quot;coords&quot;:[[190.0, -277.0],[199.0, -269.0]],&quot;certainty&quot;:6]">
    <path clip-path="url(#p4c21a8c0ba)" d="M 270.071119 125.953049 
C 272.076268 125.953049 273.999561 125.807228 275.417415 125.547702 
C 276.835269 125.288175 277.631924 124.936133 277.631924 124.569107 
C 277.631924 124.202082 276.835269 123.850039 275.417415 123.590513 
C 273.999561 123.330987 272.076268 123.185166 270.071119 123.185166 
C 268.06597 123.185166 266.142677 123.330987 264.724823 123.590513 
C 263.306968 123.850039 262.510314 124.202082 262.510314 124.569107 
C 262.510314 124.936133 263.306968 125.288175 264.724823 125.547702 
C 266.142677 125.807228 268.06597 125.953049 270.071119 125.953049 
z
" style="fill:#0000ff;opacity:0.2;stroke:#0000ff;stroke-linejoin:miter;stroke-width:2;"/>
   </g>
   <g id="[&quot;g_s&quot;:5,&quot;g_t&quot;:5,&quot;coords&quot;:[[199.0, -269.0],[190.0, -277.0]],&quot;certainty&quot;:6]">
    <path clip-path="url(#p4c21a8c0ba)" d="M 289.513188 122.789754 
C 291.518337 122.789754 293.44163 122.643934 294.859484 122.384407 
C 296.277339 122.124881 297.073993 121.772839 297.073993 121.405813 
C 297.073993 121.038788 296.277339 120.686745 294.859484 120.427219 
C 293.44163 120.167693 291.518337 120.021872 289.513188 120.021872 
C 287.508039 120.021872 285.584746 120.167693 284.166892 120.427219 
C 282.749037 120.686745 281.952383 121.038788 281.952383 121.405813 
C 281.952383 121.772839 282.749037 122.124881 284.166892 122.384407 
C 285.584746 122.643934 287.508039 122.789754 289.513188 122.789754 
z
" style="fill:#ff0000;opacity:0.2;stroke:#ff0000;stroke-linejoin:miter;stroke-width:2;"/>
   </g>
   <g id="patch_29">
    <path d="M 270.071119 124.569107 
Q 278.807234 123.14771 286.321973 121.925035 
" style="fill:none;opacity:0.5;stroke:#ff0000;stroke-linecap:round;stroke-width:1.75;"/>
    <path d="M 284.600554 120.685392 
L 286.321973 121.925035 
L 285.08233 123.646454 
" style="fill:none;opacity:0.5;stroke:#ff0000;stroke-linecap:round;stroke-width:1.75;"/>
   </g>
   <g id="[&quot;g_s&quot;:6,&quot;g_t&quot;:6,&quot;coords&quot;:[[219.0, -600.0],[241.0, -550.0]],&quot;certainty&quot;:13]">
    <path clip-path="url(#p4c21a8c0ba)" d="M 332.717786 255.054999 
C 336.728084 255.054999 340.57467 254.763357 343.410379 254.244305 
C 346.246087 253.725252 347.839396 253.021167 347.839396 252.287116 
C 347.839396 251.553065 346.246087 250.84898 343.410379 250.329927 
C 340.57467 249.810875 336.728084 249.519233 332.717786 249.519233 
C 328.707488 249.519233 324.860902 249.810875 322.025194 250.329927 
C 319.189485 250.84898 317.596177 251.553065 317.596177 252.287116 
C 317.596177 253.021167 319.189485 253.725252 322.025194 254.244305 
C 324.860902 254.763357 328.707488 255.054999 332.717786 255.054999 
z
" style="fill:#0000ff;opacity:0.2;stroke:#0000ff;stroke-linejoin:miter;stroke-width:2;"/>
   </g>
   <g id="[&quot;g_s&quot;:6,&quot;g_t&quot;:6,&quot;coords&quot;:[[241.0, -550.0],[219.0, -600.0]],&quot;certainty&quot;:13]">
    <path clip-path="url(#p4c21a8c0ba)" d="M 380.242844 235.284409 
C 384.253142 235.284409 388.099728 234.992767 390.935437 234.473715 
C 393.771145 233.954662 395.364453 233.250577 395.364453 232.516526 
C 395.364453 231.782475 393.771145 231.07839 390.935437 230.559338 
C 388.099728 230.040285 384.253142 229.748644 380.242844 229.748644 
C 376.232546 229.748644 372.38596 230.040285 369.550252 230.559338 
C 366.714543 231.07839 365.121235 231.782475 365.121235 232.516526 
C 365.121235 233.250577 366.714543 233.954662 369.550252 234.473715 
C 372.38596 234.992767 376.232546 235.284409 380.242844 235.284409 
z
" style="fill:#ff0000;opacity:0.2;stroke:#ff0000;stroke-linejoin:miter;stroke-width:2;"/>
   </g>
   <g id="patch_30">
    <path d="M 332.717786 252.287116 
Q 355.556442 242.786155 376.110062 234.235778 
" style="fill:none;opacity:0.5;stroke:#ff0000;stroke-linecap:round;stroke-width:3.5;"/>
    <path d="M 374.148981 233.426977 
L 376.110062 234.235778 
L 375.301261 236.19686 
" style="fill:none;opacity:0.5;stroke:#ff0000;stroke-linecap:round;stroke-width:3.5;"/>
   </g>
   <g id="[&quot;g_s&quot;:7,&quot;g_t&quot;:7,&quot;coords&quot;:[[226.0, -689.0],[257.0, -667.0]],&quot;certainty&quot;:10]">
    <path clip-path="url(#p4c21a8c0ba)" d="M 347.839396 289.65353 
C 350.990344 289.65353 354.012661 289.424383 356.240718 289.016556 
C 358.468775 288.608729 359.72066 288.05552 359.72066 287.478765 
C 359.72066 286.902011 358.468775 286.348801 356.240718 285.940974 
C 354.012661 285.533148 350.990344 285.304001 347.839396 285.304001 
C 344.688447 285.304001 341.66613 285.533148 339.438073 285.940974 
C 337.210016 286.348801 335.958131 286.902011 335.958131 287.478765 
C 335.958131 288.05552 337.210016 288.608729 339.438073 289.016556 
C 341.66613 289.424383 344.688447 289.65353 347.839396 289.65353 
z
" style="fill:#0000ff;opacity:0.2;stroke:#0000ff;stroke-linejoin:miter;stroke-width:2;"/>
   </g>
   <g id="[&quot;g_s&quot;:7,&quot;g_t&quot;:7,&quot;coords&quot;:[[257.0, -667.0],[226.0, -689.0]],&quot;certainty&quot;:10]">
    <path clip-path="url(#p4c21a8c0ba)" d="M 414.806523 280.954471 
C 417.957471 280.954471 420.979789 280.725324 423.207845 280.317497 
C 425.435902 279.90967 426.687787 279.35646 426.687787 278.779706 
C 426.687787 278.202952 425.435902 277.649742 423.207845 277.241915 
C 420.979789 276.834088 417.957471 276.604941 414.806523 276.604941 
C 411.655574 276.604941 408.633257 276.834088 406.4052 277.241915 
C 404.177143 277.649742 402.925258 278.202952 402.925258 278.779706 
C 402.925258 279.35646 404.177143 279.90967 406.4052 280.317497 
C 408.633257 280.725324 411.655574 280.954471 414.806523 280.954471 
z
" style="fill:#ff0000;opacity:0.2;stroke:#ff0000;stroke-linejoin:miter;stroke-width:2;"/>
   </g>
   <g id="patch_31">
    <path d="M 347.839396 287.478765 
Q 380.331777 283.257991 410.895816 279.287709 
" style="fill:none;opacity:0.5;stroke:#ff0000;stroke-linecap:round;stroke-width:2.75;"/>
    <path d="M 409.215087 277.993433 
L 410.895816 279.287709 
L 409.601541 280.968438 
" style="fill:none;opacity:0.5;stroke:#ff0000;stroke-linecap:round;stroke-width:2.75;"/>
   </g>
   <g id="patch_32">
    <path clip-path="url(#p4c21a8c0ba)" d="M 241.98813 299.341119 
C 244.852628 299.341119 247.60019 299.132804 249.625696 298.762052 
C 251.651202 298.3913 252.78928 297.888382 252.78928 297.36406 
C 252.78928 296.839738 251.651202 296.33682 249.625696 295.966068 
C 247.60019 295.595317 244.852628 295.387001 241.98813 295.387001 
C 239.123632 295.387001 236.37607 295.595317 234.350564 295.966068 
C 232.325058 296.33682 231.18698 296.839738 231.18698 297.36406 
C 231.18698 297.888382 232.325058 298.3913 234.350564 298.762052 
C 236.37607 299.132804 239.123632 299.341119 241.98813 299.341119 
z
" style="fill:#008000;opacity:0.2;stroke:#008000;stroke-linejoin:miter;stroke-width:2;"/>
   </g>
   <g id="patch_33">
    <path clip-path="url(#p4c21a8c0ba)" d="M 102.653301 285.106295 
C 105.517799 285.106295 108.265361 284.897979 110.290867 284.527228 
C 112.316373 284.156476 113.454451 283.653558 113.454451 283.129236 
C 113.454451 282.604914 112.316373 282.101996 110.290867 281.731244 
C 108.265361 281.360492 105.517799 281.152177 102.653301 281.152177 
C 99.788803 281.152177 97.041241 281.360492 95.015735 281.731244 
C 92.990229 282.101996 91.852151 282.604914 91.852151 283.129236 
C 91.852151 283.653558 92.990229 284.156476 95.015735 284.527228 
C 97.041241 284.897979 99.788803 285.106295 102.653301 285.106295 
z
" style="fill:#008000;opacity:0.2;stroke:#008000;stroke-linejoin:miter;stroke-width:2;"/>
   </g>
   <g id="patch_34">
    <path clip-path="url(#p4c21a8c0ba)" d="M 127.495945 244.37888 
C 130.360443 244.37888 133.108005 244.170565 135.133511 243.799813 
C 137.159017 243.429061 138.297094 242.926143 138.297094 242.401821 
C 138.297094 241.877499 137.159017 241.374581 135.133511 241.003829 
C 133.108005 240.633078 130.360443 240.424762 127.495945 240.424762 
C 124.631447 240.424762 121.883885 240.633078 119.858379 241.003829 
C 117.832873 241.374581 116.694795 241.877499 116.694795 242.401821 
C 116.694795 242.926143 117.832873 243.429061 119.858379 243.799813 
C 121.883885 244.170565 124.631447 244.37888 127.495945 244.37888 
z
" style="fill:#008000;opacity:0.2;stroke:#008000;stroke-linejoin:miter;stroke-width:2;"/>
   </g>
   <g id="patch_35">
    <path clip-path="url(#p4c21a8c0ba)" d="M 204.184107 124.964519 
C 207.048605 124.964519 209.796167 124.756204 211.821673 124.385452 
C 213.847179 124.0147 214.985256 123.511782 214.985256 122.98746 
C 214.985256 122.463138 213.847179 121.96022 211.821673 121.589468 
C 209.796167 121.218717 207.048605 121.010401 204.184107 121.010401 
C 201.319608 121.010401 198.572047 121.218717 196.546541 121.589468 
C 194.521034 121.96022 193.382957 122.463138 193.382957 122.98746 
C 193.382957 123.511782 194.521034 124.0147 196.546541 124.385452 
C 198.572047 124.756204 201.319608 124.964519 204.184107 124.964519 
z
" style="fill:#008000;opacity:0.2;stroke:#008000;stroke-linejoin:miter;stroke-width:2;"/>
   </g>
   <g id="patch_36">
    <path clip-path="url(#p4c21a8c0ba)" d="M 279.792153 124.964519 
C 282.656652 124.964519 285.404213 124.756204 287.429719 124.385452 
C 289.455226 124.0147 290.593303 123.511782 290.593303 122.98746 
C 290.593303 122.463138 289.455226 121.96022 287.429719 121.589468 
C 285.404213 121.218717 282.656652 121.010401 279.792153 121.010401 
C 276.927655 121.010401 274.180094 121.218717 272.154587 121.589468 
C 270.129081 121.96022 268.991004 122.463138 268.991004 122.98746 
C 268.991004 123.511782 270.129081 124.0147 272.154587 124.385452 
C 274.180094 124.756204 276.927655 124.964519 279.792153 124.964519 
z
" style="fill:#008000;opacity:0.2;stroke:#008000;stroke-linejoin:miter;stroke-width:2;"/>
   </g>
   <g id="patch_37">
    <path clip-path="url(#p4c21a8c0ba)" d="M 356.480315 244.37888 
C 359.344813 244.37888 362.092375 244.170565 364.117881 243.799813 
C 366.143387 243.429061 367.281465 242.926143 367.281465 242.401821 
C 367.281465 241.877499 366.143387 241.374581 364.117881 241.003829 
C 362.092375 240.633078 359.344813 240.424762 356.480315 240.424762 
C 353.615817 240.424762 350.868255 240.633078 348.842749 241.003829 
C 346.817243 241.374581 345.679166 241.877499 345.679166 242.401821 
C 345.679166 242.926143 346.817243 243.429061 348.842749 243.799813 
C 350.868255 244.170565 353.615817 244.37888 356.480315 244.37888 
z
" style="fill:#008000;opacity:0.2;stroke:#008000;stroke-linejoin:miter;stroke-width:2;"/>
   </g>
   <g id="patch_38">
    <path clip-path="url(#p4c21a8c0ba)" d="M 381.322959 285.106295 
C 384.187457 285.106295 386.935019 284.897979 388.960525 284.527228 
C 390.986031 284.156476 392.124109 283.653558 392.124109 283.129236 
C 392.124109 282.604914 390.986031 282.101996 388.960525 281.731244 
C 386.935019 281.360492 384.187457 281.152177 381.322959 281.152177 
C 378.458461 281.152177 375.710899 281.360492 373.685393 281.731244 
C 371.659887 282.101996 370.52181 282.604914 370.52181 283.129236 
C 370.52181 283.653558 371.659887 284.156476 373.685393 284.527228 
C 375.710899 284.897979 378.458461 285.106295 381.322959 285.106295 
z
" style="fill:#008000;opacity:0.2;stroke:#008000;stroke-linejoin:miter;stroke-width:2;"/>
   </g>
   <g id="patch_39">
    <path clip-path="url(#p4c21a8c0ba)" d="M 241.98813 303.690649 
C 253.446123 303.690649 264.43637 302.857387 272.538394 301.37438 
C 280.640419 299.891373 285.192728 297.879702 285.192728 295.782413 
C 285.192728 293.685124 280.640419 291.673453 272.538394 290.190446 
C 264.43637 288.707439 253.446123 287.874177 241.98813 287.874177 
C 230.530137 287.874177 219.53989 288.707439 211.437866 290.190446 
C 203.335841 291.673453 198.783532 293.685124 198.783532 295.782413 
C 198.783532 297.879702 203.335841 299.891373 211.437866 301.37438 
C 219.53989 302.857387 230.530137 303.690649 241.98813 303.690649 
z
" style="fill:none;opacity:0.2;stroke:#ff0000;stroke-linejoin:miter;stroke-width:2;"/>
   </g>
   <g id="patch_40">
    <path clip-path="url(#p4c21a8c0ba)" d="M 241.98813 306.853943 
C 253.446123 306.853943 264.43637 306.020682 272.538394 304.537675 
C 280.640419 303.054668 285.192728 301.042996 285.192728 298.945707 
C 285.192728 296.848419 280.640419 294.836747 272.538394 293.35374 
C 264.43637 291.870733 253.446123 291.037472 241.98813 291.037472 
C 230.530137 291.037472 219.53989 291.870733 211.437866 293.35374 
C 203.335841 294.836747 198.783532 296.848419 198.783532 298.945707 
C 198.783532 301.042996 203.335841 303.054668 211.437866 304.537675 
C 219.53989 306.020682 230.530137 306.853943 241.98813 306.853943 
z
" style="fill:none;opacity:0.2;stroke:#0000ff;stroke-linejoin:miter;stroke-width:2;"/>
   </g>
   <g id="patch_41">
    <path clip-path="url(#p4c21a8c0ba)" d="M 241.98813 299.736531 
C 247.717127 299.736531 253.21225 299.3199 257.263262 298.578397 
C 261.314275 297.836893 263.590429 296.831057 263.590429 295.782413 
C 263.590429 294.733769 261.314275 293.727933 257.263262 292.986429 
C 253.21225 292.244926 247.717127 291.828295 241.98813 291.828295 
C 236.259133 291.828295 230.76401 292.244926 226.712998 292.986429 
C 222.661985 293.727933 220.385831 294.733769 220.385831 295.782413 
C 220.385831 296.831057 222.661985 297.836893 226.712998 298.578397 
C 230.76401 299.3199 236.259133 299.736531 241.98813 299.736531 
z
" style="fill:none;opacity:0.2;stroke:#008000;stroke-linejoin:miter;stroke-width:2;"/>
   </g>
   <g id="patch_42">
    <path clip-path="url(#p4c21a8c0ba)" d="M 241.98813 302.899825 
C 247.717127 302.899825 253.21225 302.483194 257.263262 301.741691 
C 261.314275 301.000187 263.590429 299.994352 263.590429 298.945707 
C 263.590429 297.897063 261.314275 296.891227 257.263262 296.149724 
C 253.21225 295.40822 247.717127 294.991589 241.98813 294.991589 
C 236.259133 294.991589 230.76401 295.40822 226.712998 296.149724 
C 222.661985 296.891227 220.385831 297.897063 220.385831 298.945707 
C 220.385831 299.994352 222.661985 301.000187 226.712998 301.741691 
C 230.76401 302.483194 236.259133 302.899825 241.98813 302.899825 
z
" style="fill:none;opacity:0.2;stroke:#008000;stroke-linejoin:miter;stroke-width:2;"/>
   </g>
   <g id="patch_43">
    <path d="M 241.98813 297.36406 
Q 172.320715 290.246648 102.653301 283.129236 
" style="fill:none;opacity:0.5;stroke:#008000;stroke-linecap:round;stroke-width:2;"/>
   </g>
   <g id="patch_44">
    <path d="M 241.98813 297.196627 
Q 241.98813 296.364719 241.98813 295.532811 
" style="fill:none;opacity:0.5;stroke:#800080;stroke-linecap:round;stroke-width:2;"/>
    <path d="M 240.48813 298.696627 
L 241.98813 297.196627 
L 243.48813 298.696627 
" style="fill:none;opacity:0.5;stroke:#800080;stroke-linecap:round;stroke-width:2;"/>
    <path d="M 243.48813 294.032811 
L 241.98813 295.532811 
L 240.48813 294.032811 
" style="fill:none;opacity:0.5;stroke:#800080;stroke-linecap:round;stroke-width:2;"/>
   </g>
   <g id="patch_45">
    <path d="M 102.653301 283.129236 
Q 115.074623 262.765528 127.495945 242.401821 
" style="fill:none;opacity:0.5;stroke:#008000;stroke-linecap:round;stroke-width:2;"/>
   </g>
   <g id="patch_46">
    <path d="M 70.572168 278.961882 
Q 101.662119 283.000481 132.75207 287.039079 
" style="fill:none;opacity:0.5;stroke:#800080;stroke-linecap:round;stroke-width:2;"/>
    <path d="M 71.866443 280.642612 
L 70.572168 278.961882 
L 72.252898 277.667607 
" style="fill:none;opacity:0.5;stroke:#800080;stroke-linecap:round;stroke-width:2;"/>
    <path d="M 131.457794 285.358349 
L 132.75207 287.039079 
L 131.07134 288.333354 
" style="fill:none;opacity:0.5;stroke:#800080;stroke-linecap:round;stroke-width:2;"/>
   </g>
   <g id="patch_47">
    <path d="M 127.495945 242.401821 
Q 165.840026 182.694641 204.184107 122.98746 
" style="fill:none;opacity:0.5;stroke:#008000;stroke-linecap:round;stroke-width:2;"/>
   </g>
   <g id="patch_48">
    <path d="M 105.039151 233.059717 
Q 126.572072 242.017487 148.104993 250.975257 
" style="fill:none;opacity:0.5;stroke:#800080;stroke-linecap:round;stroke-width:2;"/>
    <path d="M 105.847952 235.020798 
L 105.039151 233.059717 
L 107.000233 232.250916 
" style="fill:none;opacity:0.5;stroke:#800080;stroke-linecap:round;stroke-width:2;"/>
    <path d="M 147.296192 249.014175 
L 148.104993 250.975257 
L 146.143912 251.784058 
" style="fill:none;opacity:0.5;stroke:#800080;stroke-linecap:round;stroke-width:2;"/>
   </g>
   <g id="patch_49">
    <path d="M 204.184107 122.98746 
Q 241.98813 122.98746 279.792153 122.98746 
" style="fill:none;opacity:0.5;stroke:#008000;stroke-linecap:round;stroke-width:2;"/>
   </g>
   <g id="patch_50">
    <path d="M 195.85893 121.632924 
Q 203.199187 122.82721 210.539444 124.021497 
" style="fill:none;opacity:0.5;stroke:#800080;stroke-linecap:round;stroke-width:2;"/>
    <path d="M 197.098574 123.354343 
L 195.85893 121.632924 
L 197.58035 120.393281 
" style="fill:none;opacity:0.5;stroke:#800080;stroke-linecap:round;stroke-width:2;"/>
    <path d="M 209.299801 122.300077 
L 210.539444 124.021497 
L 208.818025 125.26114 
" style="fill:none;opacity:0.5;stroke:#800080;stroke-linecap:round;stroke-width:2;"/>
   </g>
   <g id="patch_51">
    <path d="M 279.792153 122.98746 
Q 318.136234 182.694641 356.480315 242.401821 
" style="fill:none;opacity:0.5;stroke:#008000;stroke-linecap:round;stroke-width:2;"/>
   </g>
   <g id="patch_52">
    <path d="M 288.11733 121.632924 
Q 280.777073 122.82721 273.436816 124.021497 
" style="fill:none;opacity:0.5;stroke:#800080;stroke-linecap:round;stroke-width:2;"/>
    <path d="M 286.395911 120.393281 
L 288.11733 121.632924 
L 286.877686 123.354343 
" style="fill:none;opacity:0.5;stroke:#800080;stroke-linecap:round;stroke-width:2;"/>
    <path d="M 275.158235 125.26114 
L 273.436816 124.021497 
L 274.676459 122.300077 
" style="fill:none;opacity:0.5;stroke:#800080;stroke-linecap:round;stroke-width:2;"/>
   </g>
   <g id="patch_53">
    <path d="M 356.480315 242.401821 
Q 368.901637 262.765528 381.322959 283.129236 
" style="fill:none;opacity:0.5;stroke:#008000;stroke-linecap:round;stroke-width:2;"/>
   </g>
   <g id="patch_54">
    <path d="M 378.937109 233.059717 
Q 357.404188 242.017487 335.871267 250.975257 
" style="fill:none;opacity:0.5;stroke:#800080;stroke-linecap:round;stroke-width:2;"/>
    <path d="M 376.976027 232.250916 
L 378.937109 233.059717 
L 378.128308 235.020798 
" style="fill:none;opacity:0.5;stroke:#800080;stroke-linecap:round;stroke-width:2;"/>
    <path d="M 337.832348 251.784058 
L 335.871267 250.975257 
L 336.680068 249.014175 
" style="fill:none;opacity:0.5;stroke:#800080;stroke-linecap:round;stroke-width:2;"/>
   </g>
   <g id="patch_55">
    <path d="M 381.322959 283.129236 
Q 311.655545 290.246648 241.98813 297.36406 
" style="fill:none;opacity:0.5;stroke:#008000;stroke-linecap:round;stroke-width:2;"/>
   </g>
   <g id="patch_56">
    <path d="M 413.404092 278.961882 
Q 382.314141 283.000481 351.22419 287.039079 
" style="fill:none;opacity:0.5;stroke:#800080;stroke-linecap:round;stroke-width:2;"/>
    <path d="M 411.723362 277.667607 
L 413.404092 278.961882 
L 412.109817 280.642612 
" style="fill:none;opacity:0.5;stroke:#800080;stroke-linecap:round;stroke-width:2;"/>
    <path d="M 352.90492 288.333354 
L 351.22419 287.039079 
L 352.518466 285.358349 
" style="fill:none;opacity:0.5;stroke:#800080;stroke-linecap:round;stroke-width:2;"/>
   </g>
   <g id="patch_57">
    <path clip-path="url(#p4c21a8c0ba)" d="M 241.98813 35.601454 
C 243.133929 35.601454 244.232954 35.518128 245.043156 35.369828 
C 245.853359 35.221527 246.30859 35.02036 246.30859 34.810631 
C 246.30859 34.600902 245.853359 34.399735 245.043156 34.251434 
C 244.232954 34.103133 243.133929 34.019807 241.98813 34.019807 
C 240.842331 34.019807 239.743306 34.103133 238.933104 34.251434 
C 238.122901 34.399735 237.66767 34.600902 237.66767 34.810631 
C 237.66767 35.02036 238.122901 35.221527 238.933104 35.369828 
C 239.743306 35.518128 240.842331 35.601454 241.98813 35.601454 
z
" style="fill:#ff0000;opacity:0.2;stroke:#ff0000;stroke-linejoin:miter;stroke-width:2;"/>
   </g>
   <g id="patch_58">
    <path clip-path="url(#p4c21a8c0ba)" d="M 416.966753 67.62981 
C 418.112552 67.62981 419.211577 67.546483 420.021779 67.398183 
C 420.831981 67.249882 421.287212 67.048715 421.287212 66.838986 
C 421.287212 66.629257 420.831981 66.42809 420.021779 66.279789 
C 419.211577 66.131489 418.112552 66.048162 416.966753 66.048162 
C 415.820953 66.048162 414.721929 66.131489 413.911726 66.279789 
C 413.101524 66.42809 412.646293 66.629257 412.646293 66.838986 
C 412.646293 67.048715 413.101524 67.249882 413.911726 67.398183 
C 414.721929 67.546483 415.820953 67.62981 416.966753 67.62981 
z
" style="fill:#ff0000;opacity:0.2;stroke:#ff0000;stroke-linejoin:miter;stroke-width:2;"/>
   </g>
   <g id="patch_59">
    <path clip-path="url(#p4c21a8c0ba)" d="M 241.98813 100.448988 
C 243.133929 100.448988 244.232954 100.365662 245.043156 100.217361 
C 245.853359 100.069061 246.30859 99.867893 246.30859 99.658165 
C 246.30859 99.448436 245.853359 99.247269 245.043156 99.098968 
C 244.232954 98.950667 243.133929 98.867341 241.98813 98.867341 
C 240.842331 98.867341 239.743306 98.950667 238.933104 99.098968 
C 238.122901 99.247269 237.66767 99.448436 237.66767 99.658165 
C 237.66767 99.867893 238.122901 100.069061 238.933104 100.217361 
C 239.743306 100.365662 240.842331 100.448988 241.98813 100.448988 
z
" style="fill:#ff0000;opacity:0.2;stroke:#ff0000;stroke-linejoin:miter;stroke-width:2;"/>
   </g>
   <g id="patch_60">
    <path clip-path="url(#p4c21a8c0ba)" d="M 67.009507 67.62981 
C 68.155307 67.62981 69.254331 67.546483 70.064534 67.398183 
C 70.874736 67.249882 71.329967 67.048715 71.329967 66.838986 
C 71.329967 66.629257 70.874736 66.42809 70.064534 66.279789 
C 69.254331 66.131489 68.155307 66.048162 67.009507 66.048162 
C 65.863708 66.048162 64.764684 66.131489 63.954481 66.279789 
C 63.144279 66.42809 62.689048 66.629257 62.689048 66.838986 
C 62.689048 67.048715 63.144279 67.249882 63.954481 67.398183 
C 64.764684 67.546483 65.863708 67.62981 67.009507 67.62981 
z
" style="fill:#ff0000;opacity:0.2;stroke:#ff0000;stroke-linejoin:miter;stroke-width:2;"/>
   </g>
   <g id="patch_61">
    <path clip-path="url(#p4c21a8c0ba)" d="M 241.98813 73.956398 
C 243.133929 73.956398 244.232954 73.873072 245.043156 73.724771 
C 245.853359 73.576471 246.30859 73.375303 246.30859 73.165575 
C 246.30859 72.955846 245.853359 72.754679 245.043156 72.606378 
C 244.232954 72.458077 243.133929 72.374751 241.98813 72.374751 
C 240.842331 72.374751 239.743306 72.458077 238.933104 72.606378 
C 238.122901 72.754679 237.66767 72.955846 237.66767 73.165575 
C 237.66767 73.375303 238.122901 73.576471 238.933104 73.724771 
C 239.743306 73.873072 240.842331 73.956398 241.98813 73.956398 
z
" style="fill:#0000ff;opacity:0.2;stroke:#0000ff;stroke-linejoin:miter;stroke-width:2;"/>
   </g>
   <g id="patch_62">
    <path clip-path="url(#p4c21a8c0ba)" d="M 121.015255 52.20875 
C 122.161055 52.20875 123.260079 52.125424 124.070282 51.977123 
C 124.880484 51.828822 125.335715 51.627655 125.335715 51.417926 
C 125.335715 51.208197 124.880484 51.00703 124.070282 50.858729 
C 123.260079 50.710429 122.161055 50.627102 121.015255 50.627102 
C 119.869456 50.627102 118.770431 50.710429 117.960229 50.858729 
C 117.150026 51.00703 116.694795 51.208197 116.694795 51.417926 
C 116.694795 51.627655 117.150026 51.828822 117.960229 51.977123 
C 118.770431 52.125424 119.869456 52.20875 121.015255 52.20875 
z
" style="fill:#0000ff;opacity:0.2;stroke:#0000ff;stroke-linejoin:miter;stroke-width:2;"/>
   </g>
   <g id="patch_63">
    <path clip-path="url(#p4c21a8c0ba)" d="M 241.98813 28.879454 
C 243.133929 28.879454 244.232954 28.796128 245.043156 28.647827 
C 245.853359 28.499526 246.30859 28.298359 246.30859 28.08863 
C 246.30859 27.878902 245.853359 27.677734 245.043156 27.529434 
C 244.232954 27.381133 243.133929 27.297807 241.98813 27.297807 
C 240.842331 27.297807 239.743306 27.381133 238.933104 27.529434 
C 238.122901 27.677734 237.66767 27.878902 237.66767 28.08863 
C 237.66767 28.298359 238.122901 28.499526 238.933104 28.647827 
C 239.743306 28.796128 240.842331 28.879454 241.98813 28.879454 
z
" style="fill:#0000ff;opacity:0.2;stroke:#0000ff;stroke-linejoin:miter;stroke-width:2;"/>
   </g>
   <g id="patch_64">
    <path clip-path="url(#p4c21a8c0ba)" d="M 362.961005 52.20875 
C 364.106804 52.20875 365.205829 52.125424 366.016031 51.977123 
C 366.826234 51.828822 367.281465 51.627655 367.281465 51.417926 
C 367.281465 51.208197 366.826234 51.00703 366.016031 50.858729 
C 365.205829 50.710429 364.106804 50.627102 362.961005 50.627102 
C 361.815206 50.627102 360.716181 50.710429 359.905978 50.858729 
C 359.095776 51.00703 358.640545 51.208197 358.640545 51.417926 
C 358.640545 51.627655 359.095776 51.828822 359.905978 51.977123 
C 360.716181 52.125424 361.815206 52.20875 362.961005 52.20875 
z
" style="fill:#0000ff;opacity:0.2;stroke:#0000ff;stroke-linejoin:miter;stroke-width:2;"/>
   </g>
   <g id="patch_65">
    <path clip-path="url(#p4c21a8c0ba)" d="M 241.98813 34.810631 
C 345.679166 34.810631 416.966753 48.650044 416.966753 66.838986 
C 416.966753 83.841693 345.679166 99.658165 241.98813 99.658165 
C 144.777784 99.658165 67.009507 85.42334 67.009507 66.838986 
C 67.009507 47.463808 155.578934 34.810631 241.98813 34.810631 
" style="fill:none;stroke:#ff0000;stroke-linejoin:miter;stroke-width:0.5;"/>
   </g>
   <g id="patch_66">
    <path clip-path="url(#p4c21a8c0ba)" d="M 241.98813 73.165575 
C 179.341463 73.165575 121.015255 64.861927 121.015255 51.417926 
C 121.015255 37.973925 172.860773 28.08863 241.98813 28.08863 
C 315.435947 28.08863 362.961005 38.764749 362.961005 51.417926 
C 362.961005 64.071103 315.435947 73.165575 241.98813 73.165575 
" style="fill:none;stroke:#0000ff;stroke-linejoin:miter;stroke-width:0.5;"/>
   </g>
   <g id="[&quot;g_s&quot;:1,&quot;g_t&quot;:3,&quot;coords&quot;:[[177.0, -50.0],[177.0, -33.0]],&quot;certainty&quot;:10]">
    <path clip-path="url(#p4c21a8c0ba)" d="M 241.98813 36.985396 
C 245.139078 36.985396 248.161396 36.756249 250.389453 36.348422 
C 252.61751 35.940595 253.869395 35.387385 253.869395 34.810631 
C 253.869395 34.233876 252.61751 33.680667 250.389453 33.27284 
C 248.161396 32.865013 245.139078 32.635866 241.98813 32.635866 
C 238.837182 32.635866 235.814864 32.865013 233.586807 33.27284 
C 231.358751 33.680667 230.106866 34.233876 230.106866 34.810631 
C 230.106866 35.387385 231.358751 35.940595 233.586807 36.348422 
C 235.814864 36.756249 238.837182 36.985396 241.98813 36.985396 
z
" style="fill:#0000ff;opacity:0.2;stroke:#0000ff;stroke-linejoin:miter;stroke-width:2;"/>
   </g>
   <g id="[&quot;g_s&quot;:3,&quot;g_t&quot;:1,&quot;coords&quot;:[[177.0, -33.0],[177.0, -50.0]],&quot;certainty&quot;:10]">
    <path clip-path="url(#p4c21a8c0ba)" d="M 241.98813 30.263395 
C 245.139078 30.263395 248.161396 30.034248 250.389453 29.626421 
C 252.61751 29.218594 253.869395 28.665385 253.869395 28.08863 
C 253.869395 27.511876 252.61751 26.958666 250.389453 26.550839 
C 248.161396 26.143012 245.139078 25.913866 241.98813 25.913866 
C 238.837182 25.913866 235.814864 26.143012 233.586807 26.550839 
C 231.358751 26.958666 230.106866 27.511876 230.106866 28.08863 
C 230.106866 28.665385 231.358751 29.218594 233.586807 29.626421 
C 235.814864 30.034248 238.837182 30.263395 241.98813 30.263395 
z
" style="fill:#ff0000;opacity:0.2;stroke:#ff0000;stroke-linejoin:miter;stroke-width:2;"/>
   </g>
   <g id="patch_67">
    <path d="M 241.98813 34.810631 
Q 241.98813 32.449069 241.98813 32.03205 
" style="fill:none;opacity:0.5;stroke:#0000ff;stroke-linecap:round;stroke-width:2.75;"/>
    <path d="M 240.48813 33.53205 
L 241.98813 32.03205 
L 243.48813 33.53205 
" style="fill:none;opacity:0.5;stroke:#0000ff;stroke-linecap:round;stroke-width:2.75;"/>
   </g>
   <g id="[&quot;g_s&quot;:2,&quot;g_t&quot;:4,&quot;coords&quot;:[[258.0, -131.0],[233.0, -92.0]],&quot;certainty&quot;:12]">
    <path clip-path="url(#p4c21a8c0ba)" d="M 416.966753 69.409163 
C 420.6906 69.409163 424.26243 69.138353 426.895588 68.656375 
C 429.528747 68.174398 431.008247 67.520605 431.008247 66.838986 
C 431.008247 66.157367 429.528747 65.503574 426.895588 65.021597 
C 424.26243 64.539619 420.6906 64.268809 416.966753 64.268809 
C 413.242905 64.268809 409.671075 64.539619 407.037917 65.021597 
C 404.404759 65.503574 402.925258 66.157367 402.925258 66.838986 
C 402.925258 67.520605 404.404759 68.174398 407.037917 68.656375 
C 409.671075 69.138353 413.242905 69.409163 416.966753 69.409163 
z
" style="fill:#0000ff;opacity:0.2;stroke:#0000ff;stroke-linejoin:miter;stroke-width:2;"/>
   </g>
   <g id="[&quot;g_s&quot;:4,&quot;g_t&quot;:2,&quot;coords&quot;:[[233.0, -92.0],[258.0, -131.0]],&quot;certainty&quot;:12]">
    <path clip-path="url(#p4c21a8c0ba)" d="M 362.961005 53.988103 
C 366.684853 53.988103 370.256683 53.717293 372.889841 53.235315 
C 375.522999 52.753338 377.002499 52.099545 377.002499 51.417926 
C 377.002499 50.736307 375.522999 50.082514 372.889841 49.600537 
C 370.256683 49.118559 366.684853 48.847749 362.961005 48.847749 
C 359.237157 48.847749 355.665327 49.118559 353.032169 49.600537 
C 350.399011 50.082514 348.91951 50.736307 348.91951 51.417926 
C 348.91951 52.099545 350.399011 52.753338 353.032169 53.235315 
C 355.665327 53.717293 359.237157 53.988103 362.961005 53.988103 
z
" style="fill:#ff0000;opacity:0.2;stroke:#ff0000;stroke-linejoin:miter;stroke-width:2;"/>
   </g>
   <g id="patch_68">
    <path d="M 416.966753 66.838986 
Q 390.924735 59.402824 367.092492 52.597651 
" style="fill:none;opacity:0.5;stroke:#0000ff;stroke-linecap:round;stroke-width:3.25;"/>
    <path d="M 368.122987 54.451857 
L 367.092492 52.597651 
L 368.946699 51.567156 
" style="fill:none;opacity:0.5;stroke:#0000ff;stroke-linecap:round;stroke-width:3.25;"/>
   </g>
   <g id="[&quot;g_s&quot;:3,&quot;g_t&quot;:2,&quot;coords&quot;:[[177.0, -214.0],[121.0, -92.0]],&quot;certainty&quot;:11]">
    <path clip-path="url(#p4c21a8c0ba)" d="M 241.98813 102.030635 
C 245.425528 102.030635 248.722602 101.780657 251.153209 101.335755 
C 253.583817 100.890853 254.949509 100.287351 254.949509 99.658165 
C 254.949509 99.028978 253.583817 98.425477 251.153209 97.980574 
C 248.722602 97.535672 245.425528 97.285694 241.98813 97.285694 
C 238.550732 97.285694 235.253658 97.535672 232.823051 97.980574 
C 230.392443 98.425477 229.026751 99.028978 229.026751 99.658165 
C 229.026751 100.287351 230.392443 100.890853 232.823051 101.335755 
C 235.253658 101.780657 238.550732 102.030635 241.98813 102.030635 
z
" style="fill:#0000ff;opacity:0.2;stroke:#0000ff;stroke-linejoin:miter;stroke-width:2;"/>
   </g>
   <g id="[&quot;g_s&quot;:2,&quot;g_t&quot;:3,&quot;coords&quot;:[[121.0, -92.0],[177.0, -214.0]],&quot;certainty&quot;:11]">
    <path clip-path="url(#p4c21a8c0ba)" d="M 121.015255 53.790397 
C 124.452653 53.790397 127.749727 53.540418 130.180334 53.095516 
C 132.610942 52.650614 133.976635 52.047113 133.976635 51.417926 
C 133.976635 50.788739 132.610942 50.185238 130.180334 49.740336 
C 127.749727 49.295434 124.452653 49.045455 121.015255 49.045455 
C 117.577857 49.045455 114.280783 49.295434 111.850176 49.740336 
C 109.419568 50.185238 108.053876 50.788739 108.053876 51.417926 
C 108.053876 52.047113 109.419568 52.650614 111.850176 53.095516 
C 114.280783 53.540418 117.577857 53.790397 121.015255 53.790397 
z
" style="fill:#ff0000;opacity:0.2;stroke:#ff0000;stroke-linejoin:miter;stroke-width:2;"/>
   </g>
   <g id="patch_69">
    <path d="M 241.98813 99.658165 
Q 182.43018 75.908297 124.842662 52.944177 
" style="fill:none;opacity:0.5;stroke:#0000ff;stroke-linecap:round;stroke-width:3;"/>
    <path d="M 125.68036 54.89309 
L 124.842662 52.944177 
L 126.791575 52.106479 
" style="fill:none;opacity:0.5;stroke:#0000ff;stroke-linecap:round;stroke-width:3;"/>
   </g>
   <g id="[&quot;g_s&quot;:4,&quot;g_t&quot;:2,&quot;coords&quot;:[[96.0, -131.0],[121.0, -92.0]],&quot;certainty&quot;:11]">
    <path clip-path="url(#p4c21a8c0ba)" d="M 67.009507 69.211457 
C 70.446906 69.211457 73.743979 68.961478 76.174587 68.516576 
C 78.605194 68.071674 79.970887 67.468173 79.970887 66.838986 
C 79.970887 66.209799 78.605194 65.606298 76.174587 65.161396 
C 73.743979 64.716494 70.446906 64.466515 67.009507 64.466515 
C 63.572109 64.466515 60.275036 64.716494 57.844428 65.161396 
C 55.413821 65.606298 54.048128 66.209799 54.048128 66.838986 
C 54.048128 67.468173 55.413821 68.071674 57.844428 68.516576 
C 60.275036 68.961478 63.572109 69.211457 67.009507 69.211457 
z
" style="fill:#0000ff;opacity:0.2;stroke:#0000ff;stroke-linejoin:miter;stroke-width:2;"/>
   </g>
   <g id="[&quot;g_s&quot;:2,&quot;g_t&quot;:4,&quot;coords&quot;:[[121.0, -92.0],[96.0, -131.0]],&quot;certainty&quot;:11]">
    <path clip-path="url(#p4c21a8c0ba)" d="M 121.015255 53.790397 
C 124.452653 53.790397 127.749727 53.540418 130.180334 53.095516 
C 132.610942 52.650614 133.976635 52.047113 133.976635 51.417926 
C 133.976635 50.788739 132.610942 50.185238 130.180334 49.740336 
C 127.749727 49.295434 124.452653 49.045455 121.015255 49.045455 
C 117.577857 49.045455 114.280783 49.295434 111.850176 49.740336 
C 109.419568 50.185238 108.053876 50.788739 108.053876 51.417926 
C 108.053876 52.047113 109.419568 52.650614 111.850176 53.095516 
C 114.280783 53.540418 117.577857 53.790397 121.015255 53.790397 
z
" style="fill:#ff0000;opacity:0.2;stroke:#ff0000;stroke-linejoin:miter;stroke-width:2;"/>
   </g>
   <g id="patch_70">
    <path d="M 67.009507 66.838986 
Q 93.051525 59.402824 117.05375 52.549113 
" style="fill:none;opacity:0.5;stroke:#0000ff;stroke-linecap:round;stroke-width:3;"/>
    <path d="M 115.199544 51.518618 
L 117.05375 52.549113 
L 116.023255 54.403319 
" style="fill:none;opacity:0.5;stroke:#0000ff;stroke-linecap:round;stroke-width:3;"/>
   </g>
   <g id="[&quot;g_s&quot;:1,&quot;g_t&quot;:3,&quot;coords&quot;:[[177.0, -147.0],[177.0, -214.0]],&quot;certainty&quot;:10]">
    <path clip-path="url(#p4c21a8c0ba)" d="M 241.98813 75.340339 
C 245.139078 75.340339 248.161396 75.111193 250.389453 74.703366 
C 252.61751 74.295539 253.869395 73.742329 253.869395 73.165575 
C 253.869395 72.58882 252.61751 72.035611 250.389453 71.627784 
C 248.161396 71.219957 245.139078 70.99081 241.98813 70.99081 
C 238.837182 70.99081 235.814864 71.219957 233.586807 71.627784 
C 231.358751 72.035611 230.106866 72.58882 230.106866 73.165575 
C 230.106866 73.742329 231.358751 74.295539 233.586807 74.703366 
C 235.814864 75.111193 238.837182 75.340339 241.98813 75.340339 
z
" style="fill:#0000ff;opacity:0.2;stroke:#0000ff;stroke-linejoin:miter;stroke-width:2;"/>
   </g>
   <g id="[&quot;g_s&quot;:3,&quot;g_t&quot;:1,&quot;coords&quot;:[[177.0, -214.0],[177.0, -147.0]],&quot;certainty&quot;:10]">
    <path clip-path="url(#p4c21a8c0ba)" d="M 241.98813 101.832929 
C 245.139078 101.832929 248.161396 101.603783 250.389453 101.195956 
C 252.61751 100.788129 253.869395 100.234919 253.869395 99.658165 
C 253.869395 99.08141 252.61751 98.528201 250.389453 98.120374 
C 248.161396 97.712547 245.139078 97.4834 241.98813 97.4834 
C 238.837182 97.4834 235.814864 97.712547 233.586807 98.120374 
C 231.358751 98.528201 230.106866 99.08141 230.106866 99.658165 
C 230.106866 100.234919 231.358751 100.788129 233.586807 101.195956 
C 235.814864 101.603783 238.837182 101.832929 241.98813 101.832929 
z
" style="fill:#ff0000;opacity:0.2;stroke:#ff0000;stroke-linejoin:miter;stroke-width:2;"/>
   </g>
   <g id="patch_71">
    <path d="M 241.98813 73.165575 
Q 241.98813 85.410959 241.98813 95.7118 
" style="fill:none;opacity:0.5;stroke:#ff0000;stroke-linecap:round;stroke-width:2.75;"/>
    <path d="M 243.48813 94.2118 
L 241.98813 95.7118 
L 240.48813 94.2118 
" style="fill:none;opacity:0.5;stroke:#ff0000;stroke-linecap:round;stroke-width:2.75;"/>
   </g>
   <g id="[&quot;g_s&quot;:2,&quot;g_t&quot;:4,&quot;coords&quot;:[[121.0, -92.0],[96.0, -131.0]],&quot;certainty&quot;:12]">
    <path clip-path="url(#p4c21a8c0ba)" d="M 121.015255 53.988103 
C 124.739103 53.988103 128.310933 53.717293 130.944091 53.235315 
C 133.577249 52.753338 135.05675 52.099545 135.05675 51.417926 
C 135.05675 50.736307 133.577249 50.082514 130.944091 49.600537 
C 128.310933 49.118559 124.739103 48.847749 121.015255 48.847749 
C 117.291407 48.847749 113.719577 49.118559 111.086419 49.600537 
C 108.453261 50.082514 106.973761 50.736307 106.973761 51.417926 
C 106.973761 52.099545 108.453261 52.753338 111.086419 53.235315 
C 113.719577 53.717293 117.291407 53.988103 121.015255 53.988103 
z
" style="fill:#0000ff;opacity:0.2;stroke:#0000ff;stroke-linejoin:miter;stroke-width:2;"/>
   </g>
   <g id="[&quot;g_s&quot;:4,&quot;g_t&quot;:2,&quot;coords&quot;:[[96.0, -131.0],[121.0, -92.0]],&quot;certainty&quot;:12]">
    <path clip-path="url(#p4c21a8c0ba)" d="M 67.009507 69.409163 
C 70.733355 69.409163 74.305185 69.138353 76.938343 68.656375 
C 79.571501 68.174398 81.051002 67.520605 81.051002 66.838986 
C 81.051002 66.157367 79.571501 65.503574 76.938343 65.021597 
C 74.305185 64.539619 70.733355 64.268809 67.009507 64.268809 
C 63.28566 64.268809 59.71383 64.539619 57.080672 65.021597 
C 54.447514 65.503574 52.968013 66.157367 52.968013 66.838986 
C 52.968013 67.520605 54.447514 68.174398 57.080672 68.656375 
C 59.71383 69.138353 63.28566 69.409163 67.009507 69.409163 
z
" style="fill:#ff0000;opacity:0.2;stroke:#ff0000;stroke-linejoin:miter;stroke-width:2;"/>
   </g>
   <g id="patch_72">
    <path d="M 121.015255 51.417926 
Q 94.973238 58.854088 71.140995 65.659261 
" style="fill:none;opacity:0.5;stroke:#ff0000;stroke-linecap:round;stroke-width:3.25;"/>
    <path d="M 72.995201 66.689756 
L 71.140995 65.659261 
L 72.17149 63.805055 
" style="fill:none;opacity:0.5;stroke:#ff0000;stroke-linecap:round;stroke-width:3.25;"/>
   </g>
   <g id="[&quot;g_s&quot;:3,&quot;g_t&quot;:1,&quot;coords&quot;:[[177.0, -33.0],[177.0, -50.0]],&quot;certainty&quot;:11]">
    <path clip-path="url(#p4c21a8c0ba)" d="M 241.98813 30.461101 
C 245.425528 30.461101 248.722602 30.211123 251.153209 29.766221 
C 253.583817 29.321318 254.949509 28.717817 254.949509 28.08863 
C 254.949509 27.459444 253.583817 26.855942 251.153209 26.41104 
C 248.722602 25.966138 245.425528 25.71616 241.98813 25.71616 
C 238.550732 25.71616 235.253658 25.966138 232.823051 26.41104 
C 230.392443 26.855942 229.026751 27.459444 229.026751 28.08863 
C 229.026751 28.717817 230.392443 29.321318 232.823051 29.766221 
C 235.253658 30.211123 238.550732 30.461101 241.98813 30.461101 
z
" style="fill:#0000ff;opacity:0.2;stroke:#0000ff;stroke-linejoin:miter;stroke-width:2;"/>
   </g>
   <g id="[&quot;g_s&quot;:1,&quot;g_t&quot;:3,&quot;coords&quot;:[[177.0, -50.0],[177.0, -33.0]],&quot;certainty&quot;:11]">
    <path clip-path="url(#p4c21a8c0ba)" d="M 241.98813 37.183102 
C 245.425528 37.183102 248.722602 36.933123 251.153209 36.488221 
C 253.583817 36.043319 254.949509 35.439817 254.949509 34.810631 
C 254.949509 34.181444 253.583817 33.577943 251.153209 33.133041 
C 248.722602 32.688139 245.425528 32.43816 241.98813 32.43816 
C 238.550732 32.43816 235.253658 32.688139 232.823051 33.133041 
C 230.392443 33.577943 229.026751 34.181444 229.026751 34.810631 
C 229.026751 35.439817 230.392443 36.043319 232.823051 36.488221 
C 235.253658 36.933123 238.550732 37.183102 241.98813 37.183102 
z
" style="fill:#ff0000;opacity:0.2;stroke:#ff0000;stroke-linejoin:miter;stroke-width:2;"/>
   </g>
   <g id="patch_73">
    <path d="M 241.98813 28.08863 
Q 241.98813 30.450193 241.98813 30.690434 
" style="fill:none;opacity:0.5;stroke:#ff0000;stroke-linecap:round;stroke-width:3;"/>
    <path d="M 243.48813 29.190434 
L 241.98813 30.690434 
L 240.48813 29.190434 
" style="fill:none;opacity:0.5;stroke:#ff0000;stroke-linecap:round;stroke-width:3;"/>
   </g>
   <g id="[&quot;g_s&quot;:4,&quot;g_t&quot;:2,&quot;coords&quot;:[[233.0, -92.0],[258.0, -131.0]],&quot;certainty&quot;:11]">
    <path clip-path="url(#p4c21a8c0ba)" d="M 362.961005 53.790397 
C 366.398403 53.790397 369.695477 53.540418 372.126084 53.095516 
C 374.556692 52.650614 375.922384 52.047113 375.922384 51.417926 
C 375.922384 50.788739 374.556692 50.185238 372.126084 49.740336 
C 369.695477 49.295434 366.398403 49.045455 362.961005 49.045455 
C 359.523607 49.045455 356.226533 49.295434 353.795926 49.740336 
C 351.365318 50.185238 349.999625 50.788739 349.999625 51.417926 
C 349.999625 52.047113 351.365318 52.650614 353.795926 53.095516 
C 356.226533 53.540418 359.523607 53.790397 362.961005 53.790397 
z
" style="fill:#0000ff;opacity:0.2;stroke:#0000ff;stroke-linejoin:miter;stroke-width:2;"/>
   </g>
   <g id="[&quot;g_s&quot;:2,&quot;g_t&quot;:4,&quot;coords&quot;:[[258.0, -131.0],[233.0, -92.0]],&quot;certainty&quot;:11]">
    <path clip-path="url(#p4c21a8c0ba)" d="M 416.966753 69.211457 
C 420.404151 69.211457 423.701224 68.961478 426.131832 68.516576 
C 428.562439 68.071674 429.928132 67.468173 429.928132 66.838986 
C 429.928132 66.209799 428.562439 65.606298 426.131832 65.161396 
C 423.701224 64.716494 420.404151 64.466515 416.966753 64.466515 
C 413.529355 64.466515 410.232281 64.716494 407.801673 65.161396 
C 405.371066 65.606298 404.005373 66.209799 404.005373 66.838986 
C 404.005373 67.468173 405.371066 68.071674 407.801673 68.516576 
C 410.232281 68.961478 413.529355 69.211457 416.966753 69.211457 
z
" style="fill:#ff0000;opacity:0.2;stroke:#ff0000;stroke-linejoin:miter;stroke-width:2;"/>
   </g>
   <g id="patch_74">
    <path d="M 362.961005 51.417926 
Q 389.003022 58.854088 413.005248 65.707799 
" style="fill:none;opacity:0.5;stroke:#ff0000;stroke-linecap:round;stroke-width:3;"/>
    <path d="M 411.974753 63.853593 
L 413.005248 65.707799 
L 411.151041 66.738294 
" style="fill:none;opacity:0.5;stroke:#ff0000;stroke-linecap:round;stroke-width:3;"/>
   </g>
   <g id="patch_75">
    <path clip-path="url(#p4c21a8c0ba)" d="M 241.98813 33.42669 
C 244.852628 33.42669 247.60019 33.218374 249.625696 32.847622 
C 251.651202 32.476871 252.78928 31.973953 252.78928 31.449631 
C 252.78928 30.925308 251.651202 30.422391 249.625696 30.051639 
C 247.60019 29.680887 244.852628 29.472572 241.98813 29.472572 
C 239.123632 29.472572 236.37607 29.680887 234.350564 30.051639 
C 232.325058 30.422391 231.18698 30.925308 231.18698 31.449631 
C 231.18698 31.973953 232.325058 32.476871 234.350564 32.847622 
C 236.37607 33.218374 239.123632 33.42669 241.98813 33.42669 
z
" style="fill:#008000;opacity:0.2;stroke:#008000;stroke-linejoin:miter;stroke-width:2;"/>
   </g>
   <g id="patch_76">
    <path clip-path="url(#p4c21a8c0ba)" d="M 389.963879 61.105515 
C 392.828377 61.105515 395.575939 60.8972 397.601445 60.526448 
C 399.626951 60.155696 400.765028 59.652778 400.765028 59.128456 
C 400.765028 58.604134 399.626951 58.101216 397.601445 57.730464 
C 395.575939 57.359712 392.828377 57.151397 389.963879 57.151397 
C 387.09938 57.151397 384.351819 57.359712 382.326313 57.730464 
C 380.300806 58.101216 379.162729 58.604134 379.162729 59.128456 
C 379.162729 59.652778 380.300806 60.155696 382.326313 60.526448 
C 384.351819 60.8972 387.09938 61.105515 389.963879 61.105515 
z
" style="fill:#008000;opacity:0.2;stroke:#008000;stroke-linejoin:miter;stroke-width:2;"/>
   </g>
   <g id="patch_77">
    <path clip-path="url(#p4c21a8c0ba)" d="M 94.012381 61.105515 
C 96.87688 61.105515 99.624441 60.8972 101.649947 60.526448 
C 103.675454 60.155696 104.813531 59.652778 104.813531 59.128456 
C 104.813531 58.604134 103.675454 58.101216 101.649947 57.730464 
C 99.624441 57.359712 96.87688 57.151397 94.012381 57.151397 
C 91.147883 57.151397 88.400321 57.359712 86.374815 57.730464 
C 84.349309 58.101216 83.211232 58.604134 83.211232 59.128456 
C 83.211232 59.652778 84.349309 60.155696 86.374815 60.526448 
C 88.400321 60.8972 91.147883 61.105515 94.012381 61.105515 
z
" style="fill:#008000;opacity:0.2;stroke:#008000;stroke-linejoin:miter;stroke-width:2;"/>
   </g>
   <g id="patch_78">
    <path clip-path="url(#p4c21a8c0ba)" d="M 241.98813 42.718867 
C 253.446123 42.718867 264.43637 41.885605 272.538394 40.402598 
C 280.640419 38.919591 285.192728 36.90792 285.192728 34.810631 
C 285.192728 32.713342 280.640419 30.701671 272.538394 29.218664 
C 264.43637 27.735657 253.446123 26.902395 241.98813 26.902395 
C 230.530137 26.902395 219.53989 27.735657 211.437866 29.218664 
C 203.335841 30.701671 198.783532 32.713342 198.783532 34.810631 
C 198.783532 36.90792 203.335841 38.919591 211.437866 40.402598 
C 219.53989 41.885605 230.530137 42.718867 241.98813 42.718867 
z
" style="fill:none;opacity:0.2;stroke:#ff0000;stroke-linejoin:miter;stroke-width:2;"/>
   </g>
   <g id="patch_79">
    <path clip-path="url(#p4c21a8c0ba)" d="M 241.98813 81.07381 
C 253.446123 81.07381 264.43637 80.240549 272.538394 78.757542 
C 280.640419 77.274535 285.192728 75.262863 285.192728 73.165575 
C 285.192728 71.068286 280.640419 69.056614 272.538394 67.573607 
C 264.43637 66.0906 253.446123 65.257339 241.98813 65.257339 
C 230.530137 65.257339 219.53989 66.0906 211.437866 67.573607 
C 203.335841 69.056614 198.783532 71.068286 198.783532 73.165575 
C 198.783532 75.262863 203.335841 77.274535 211.437866 78.757542 
C 219.53989 80.240549 230.530137 81.07381 241.98813 81.07381 
z
" style="fill:none;opacity:0.2;stroke:#0000ff;stroke-linejoin:miter;stroke-width:2;"/>
   </g>
   <g id="patch_80">
    <path clip-path="url(#p4c21a8c0ba)" d="M 241.98813 38.764749 
C 247.717127 38.764749 253.21225 38.348118 257.263262 37.606614 
C 261.314275 36.865111 263.590429 35.859275 263.590429 34.810631 
C 263.590429 33.761987 261.314275 32.756151 257.263262 32.014647 
C 253.21225 31.273144 247.717127 30.856513 241.98813 30.856513 
C 236.259133 30.856513 230.76401 31.273144 226.712998 32.014647 
C 222.661985 32.756151 220.385831 33.761987 220.385831 34.810631 
C 220.385831 35.859275 222.661985 36.865111 226.712998 37.606614 
C 230.76401 38.348118 236.259133 38.764749 241.98813 38.764749 
z
" style="fill:none;opacity:0.2;stroke:#008000;stroke-linejoin:miter;stroke-width:2;"/>
   </g>
   <g id="patch_81">
    <path clip-path="url(#p4c21a8c0ba)" d="M 241.98813 32.042748 
C 247.717127 32.042748 253.21225 31.626118 257.263262 30.884614 
C 261.314275 30.14311 263.590429 29.137275 263.590429 28.08863 
C 263.590429 27.039986 261.314275 26.03415 257.263262 25.292647 
C 253.21225 24.551143 247.717127 24.134512 241.98813 24.134512 
C 236.259133 24.134512 230.76401 24.551143 226.712998 25.292647 
C 222.661985 26.03415 220.385831 27.039986 220.385831 28.08863 
C 220.385831 29.137275 222.661985 30.14311 226.712998 30.884614 
C 230.76401 31.626118 236.259133 32.042748 241.98813 32.042748 
z
" style="fill:none;opacity:0.2;stroke:#008000;stroke-linejoin:miter;stroke-width:2;"/>
   </g>
   <g id="patch_82">
    <path d="M 241.98813 31.449631 
Q 315.976004 45.289043 389.963879 59.128456 
" style="fill:none;opacity:0.5;stroke:#008000;stroke-linecap:round;stroke-width:2;"/>
   </g>
   <g id="patch_83">
    <path d="M 241.98813 33.396417 
Q 241.98813 32.449069 241.98813 31.50172 
" style="fill:none;opacity:0.5;stroke:#800080;stroke-linecap:round;stroke-width:2;"/>
    <path d="M 243.48813 31.896417 
L 241.98813 33.396417 
L 240.48813 31.896417 
" style="fill:none;opacity:0.5;stroke:#800080;stroke-linecap:round;stroke-width:2;"/>
    <path d="M 240.48813 33.00172 
L 241.98813 31.50172 
L 243.48813 33.00172 
" style="fill:none;opacity:0.5;stroke:#800080;stroke-linecap:round;stroke-width:2;"/>
   </g>
   <g id="patch_84">
    <path d="M 389.963879 59.128456 
Q 241.98813 59.128456 94.012381 59.128456 
" style="fill:none;opacity:0.5;stroke:#008000;stroke-linecap:round;stroke-width:2;"/>
   </g>
   <g id="patch_85">
    <path d="M 415.606891 66.450685 
Q 390.924735 59.402824 366.242579 52.354963 
" style="fill:none;opacity:0.5;stroke:#800080;stroke-linecap:round;stroke-width:2;"/>
    <path d="M 414.576397 64.596479 
L 415.606891 66.450685 
L 413.752685 67.48118 
" style="fill:none;opacity:0.5;stroke:#800080;stroke-linecap:round;stroke-width:2;"/>
    <path d="M 367.273074 54.209169 
L 366.242579 52.354963 
L 368.096785 51.324468 
" style="fill:none;opacity:0.5;stroke:#800080;stroke-linecap:round;stroke-width:2;"/>
   </g>
   <g id="patch_86">
    <path d="M 94.012381 59.128456 
Q 168.000256 45.289043 241.98813 31.449631 
" style="fill:none;opacity:0.5;stroke:#008000;stroke-linecap:round;stroke-width:2;"/>
   </g>
   <g id="patch_87">
    <path d="M 68.369369 66.450685 
Q 93.051525 59.402824 117.733681 52.354963 
" style="fill:none;opacity:0.5;stroke:#800080;stroke-linecap:round;stroke-width:2;"/>
    <path d="M 70.223575 67.48118 
L 68.369369 66.450685 
L 69.399863 64.596479 
" style="fill:none;opacity:0.5;stroke:#800080;stroke-linecap:round;stroke-width:2;"/>
    <path d="M 115.879475 51.324468 
L 117.733681 52.354963 
L 116.703186 54.209169 
" style="fill:none;opacity:0.5;stroke:#800080;stroke-linecap:round;stroke-width:2;"/>
   </g>
   <g id="line2d_1">
    <path clip-path="url(#p4c21a8c0ba)" d="M 241.98813 295.782413 
L 69.169737 278.779706 
L 103.733416 232.516526 
L 194.463072 121.405813 
L 289.513188 121.405813 
L 380.242844 232.516526 
L 414.806523 278.779706 
" style="fill:none;stroke:#ff0000;stroke-linecap:square;stroke-width:0.2;"/>
   </g>
   <g id="line2d_2">
    <path clip-path="url(#p4c21a8c0ba)" d="M 241.98813 298.945707 
L 136.136865 287.478765 
L 151.258474 252.287116 
L 213.905141 124.569107 
L 270.071119 124.569107 
L 332.717786 252.287116 
L 347.839396 287.478765 
" style="fill:none;stroke:#0000ff;stroke-linecap:square;stroke-width:0.2;"/>
   </g>
   <g id="line2d_3">
    <path clip-path="url(#p4c21a8c0ba)" d="M 241.98813 34.810631 
L 416.966753 66.838986 
L 241.98813 99.658165 
L 67.009507 66.838986 
" style="fill:none;stroke:#ff0000;stroke-linecap:square;stroke-width:0.2;"/>
   </g>
   <g id="line2d_4">
    <path clip-path="url(#p4c21a8c0ba)" d="M 241.98813 73.165575 
L 121.015255 51.417926 
L 241.98813 28.08863 
L 362.961005 51.417926 
" style="fill:none;stroke:#0000ff;stroke-linecap:square;stroke-width:0.2;"/>
   </g>
  </g>
 </g>
 <defs>
  <clipPath id="p4c21a8c0ba">
   <rect height="307.51175" width="409.903625" x="37.576375" y="13.32"/>
  </clipPath>
 </defs>
</svg>
