<?xml version="1.0" encoding="utf-8" standalone="no"?>
<!DOCTYPE svg PUBLIC "-//W3C//DTD SVG 1.1//EN"
  "http://www.w3.org/Graphics/SVG/1.1/DTD/svg11.dtd">
<!-- Created with matplotlib (http://matplotlib.org/) -->
<svg height="345.6pt" version="1.1" viewBox="0 0 460.8 345.6" width="460.8pt" xmlns="http://www.w3.org/2000/svg" xmlns:xlink="http://www.w3.org/1999/xlink">
 <defs>
  <style type="text/css">
*{stroke-linecap:butt;stroke-linejoin:round;}
  </style>
 </defs>
 <g id="figure_1">
  <g id="patch_1">
   <path d="M 0 345.6 
L 460.8 345.6 
L 460.8 0 
L 0 0 
z
" style="fill:#ffffff;"/>
  </g>
  <g id="axes_1">
   <g id="patch_2">
    <path clip-path="url(#p3c5619b5aa)" d="M 238.398129 37.101206 
C 239.539837 37.101206 240.634938 37.019113 241.442247 36.873008 
C 242.249557 36.726902 242.703162 36.528713 242.703162 36.322088 
C 242.703162 36.115464 242.249557 35.917274 241.442247 35.771169 
C 240.634938 35.625063 239.539837 35.54297 238.398129 35.54297 
C 237.256421 35.54297 236.161321 35.625063 235.354011 35.771169 
C 234.546702 35.917274 234.093096 36.115464 234.093096 36.322088 
C 234.093096 36.528713 234.546702 36.726902 235.354011 36.873008 
C 236.161321 37.019113 237.256421 37.101206 238.398129 37.101206 
z
" style="fill:#ff0000;opacity:0.2;stroke:#ff0000;stroke-linejoin:miter;stroke-width:2;"/>
   </g>
   <g id="patch_3">
    <path clip-path="url(#p3c5619b5aa)" d="M 410.599447 53.852241 
C 411.741155 53.852241 412.836255 53.770148 413.643565 53.624043 
C 414.450874 53.477937 414.90448 53.279748 414.90448 53.073123 
C 414.90448 52.866499 414.450874 52.668309 413.643565 52.522204 
C 412.836255 52.376098 411.741155 52.294005 410.599447 52.294005 
C 409.457739 52.294005 408.362638 52.376098 407.555329 52.522204 
C 406.748019 52.668309 406.294414 52.866499 406.294414 53.073123 
C 406.294414 53.279748 406.748019 53.477937 407.555329 53.624043 
C 408.362638 53.770148 409.457739 53.852241 410.599447 53.852241 
z
" style="fill:#ff0000;opacity:0.2;stroke:#ff0000;stroke-linejoin:miter;stroke-width:2;"/>
   </g>
   <g id="patch_4">
    <path clip-path="url(#p3c5619b5aa)" d="M 376.159183 99.430639 
C 377.300891 99.430639 378.395992 99.348546 379.203301 99.202441 
C 380.010611 99.056335 380.464216 98.858146 380.464216 98.651521 
C 380.464216 98.444897 380.010611 98.246707 379.203301 98.100602 
C 378.395992 97.954496 377.300891 97.872403 376.159183 97.872403 
C 375.017475 97.872403 373.922375 97.954496 373.115065 98.100602 
C 372.307756 98.246707 371.85415 98.444897 371.85415 98.651521 
C 371.85415 98.858146 372.307756 99.056335 373.115065 99.202441 
C 373.922375 99.348546 375.017475 99.430639 376.159183 99.430639 
z
" style="fill:#ff0000;opacity:0.2;stroke:#ff0000;stroke-linejoin:miter;stroke-width:2;"/>
   </g>
   <g id="patch_5">
    <path clip-path="url(#p3c5619b5aa)" d="M 285.753491 208.896706 
C 286.8952 208.896706 287.9903 208.814613 288.797609 208.668507 
C 289.604919 208.522402 290.058524 208.324212 290.058524 208.117588 
C 290.058524 207.910963 289.604919 207.712774 288.797609 207.566668 
C 287.9903 207.420563 286.8952 207.33847 285.753491 207.33847 
C 284.611783 207.33847 283.516683 207.420563 282.709373 207.566668 
C 281.902064 207.712774 281.448458 207.910963 281.448458 208.117588 
C 281.448458 208.324212 281.902064 208.522402 282.709373 208.668507 
C 283.516683 208.814613 284.611783 208.896706 285.753491 208.896706 
z
" style="fill:#ff0000;opacity:0.2;stroke:#ff0000;stroke-linejoin:miter;stroke-width:2;"/>
   </g>
   <g id="patch_6">
    <path clip-path="url(#p3c5619b5aa)" d="M 191.042767 208.896706 
C 192.184475 208.896706 193.279575 208.814613 194.086885 208.668507 
C 194.894194 208.522402 195.3478 208.324212 195.3478 208.117588 
C 195.3478 207.910963 194.894194 207.712774 194.086885 207.566668 
C 193.279575 207.420563 192.184475 207.33847 191.042767 207.33847 
C 189.901059 207.33847 188.805958 207.420563 187.998649 207.566668 
C 187.191339 207.712774 186.737734 207.910963 186.737734 208.117588 
C 186.737734 208.324212 187.191339 208.522402 187.998649 208.668507 
C 188.805958 208.814613 189.901059 208.896706 191.042767 208.896706 
z
" style="fill:#ff0000;opacity:0.2;stroke:#ff0000;stroke-linejoin:miter;stroke-width:2;"/>
   </g>
   <g id="patch_7">
    <path clip-path="url(#p3c5619b5aa)" d="M 100.637075 99.430639 
C 101.778783 99.430639 102.873884 99.348546 103.681193 99.202441 
C 104.488503 99.056335 104.942108 98.858146 104.942108 98.651521 
C 104.942108 98.444897 104.488503 98.246707 103.681193 98.100602 
C 102.873884 97.954496 101.778783 97.872403 100.637075 97.872403 
C 99.495367 97.872403 98.400267 97.954496 97.592957 98.100602 
C 96.785648 98.246707 96.332042 98.444897 96.332042 98.651521 
C 96.332042 98.858146 96.785648 99.056335 97.592957 99.202441 
C 98.400267 99.348546 99.495367 99.430639 100.637075 99.430639 
z
" style="fill:#ff0000;opacity:0.2;stroke:#ff0000;stroke-linejoin:miter;stroke-width:2;"/>
   </g>
   <g id="patch_8">
    <path clip-path="url(#p3c5619b5aa)" d="M 66.196812 53.852241 
C 67.33852 53.852241 68.43362 53.770148 69.24093 53.624043 
C 70.048239 53.477937 70.501845 53.279748 70.501845 53.073123 
C 70.501845 52.866499 70.048239 52.668309 69.24093 52.522204 
C 68.43362 52.376098 67.33852 52.294005 66.196812 52.294005 
C 65.055104 52.294005 63.960003 52.376098 63.152694 52.522204 
C 62.345384 52.668309 61.891779 52.866499 61.891779 53.073123 
C 61.891779 53.279748 62.345384 53.477937 63.152694 53.624043 
C 63.960003 53.770148 65.055104 53.852241 66.196812 53.852241 
z
" style="fill:#ff0000;opacity:0.2;stroke:#ff0000;stroke-linejoin:miter;stroke-width:2;"/>
   </g>
   <g id="patch_9">
    <path clip-path="url(#p3c5619b5aa)" d="M 238.398129 37.101206 
C 239.539837 37.101206 240.634938 37.019113 241.442247 36.873008 
C 242.249557 36.726902 242.703162 36.528713 242.703162 36.322088 
C 242.703162 36.115464 242.249557 35.917274 241.442247 35.771169 
C 240.634938 35.625063 239.539837 35.54297 238.398129 35.54297 
C 237.256421 35.54297 236.161321 35.625063 235.354011 35.771169 
C 234.546702 35.917274 234.093096 36.115464 234.093096 36.322088 
C 234.093096 36.528713 234.546702 36.726902 235.354011 36.873008 
C 236.161321 37.019113 237.256421 37.101206 238.398129 37.101206 
z
" style="fill:#0000ff;opacity:0.2;stroke:#0000ff;stroke-linejoin:miter;stroke-width:2;"/>
   </g>
   <g id="patch_10">
    <path clip-path="url(#p3c5619b5aa)" d="M 343.871436 48.398416 
C 345.013144 48.398416 346.108245 48.316323 346.915554 48.170217 
C 347.722864 48.024112 348.176469 47.825922 348.176469 47.619298 
C 348.176469 47.412673 347.722864 47.214484 346.915554 47.068378 
C 346.108245 46.922273 345.013144 46.84018 343.871436 46.84018 
C 342.729728 46.84018 341.634628 46.922273 340.827318 47.068378 
C 340.020009 47.214484 339.566403 47.412673 339.566403 47.619298 
C 339.566403 47.825922 340.020009 48.024112 340.827318 48.170217 
C 341.634628 48.316323 342.729728 48.398416 343.871436 48.398416 
z
" style="fill:#0000ff;opacity:0.2;stroke:#0000ff;stroke-linejoin:miter;stroke-width:2;"/>
   </g>
   <g id="patch_11">
    <path clip-path="url(#p3c5619b5aa)" d="M 328.803821 83.069163 
C 329.945529 83.069163 331.040629 82.98707 331.847939 82.840965 
C 332.655248 82.694859 333.108854 82.496669 333.108854 82.290045 
C 333.108854 82.083421 332.655248 81.885231 331.847939 81.739125 
C 331.040629 81.59302 329.945529 81.510927 328.803821 81.510927 
C 327.662113 81.510927 326.567012 81.59302 325.759703 81.739125 
C 324.952393 81.885231 324.498788 82.083421 324.498788 82.290045 
C 324.498788 82.496669 324.952393 82.694859 325.759703 82.840965 
C 326.567012 82.98707 327.662113 83.069163 328.803821 83.069163 
z
" style="fill:#0000ff;opacity:0.2;stroke:#0000ff;stroke-linejoin:miter;stroke-width:2;"/>
   </g>
   <g id="patch_12">
    <path clip-path="url(#p3c5619b5aa)" d="M 266.380843 208.896706 
C 267.522551 208.896706 268.617652 208.814613 269.424961 208.668507 
C 270.232271 208.522402 270.685876 208.324212 270.685876 208.117588 
C 270.685876 207.910963 270.232271 207.712774 269.424961 207.566668 
C 268.617652 207.420563 267.522551 207.33847 266.380843 207.33847 
C 265.239135 207.33847 264.144035 207.420563 263.336725 207.566668 
C 262.529416 207.712774 262.07581 207.910963 262.07581 208.117588 
C 262.07581 208.324212 262.529416 208.522402 263.336725 208.668507 
C 264.144035 208.814613 265.239135 208.896706 266.380843 208.896706 
z
" style="fill:#0000ff;opacity:0.2;stroke:#0000ff;stroke-linejoin:miter;stroke-width:2;"/>
   </g>
   <g id="patch_13">
    <path clip-path="url(#p3c5619b5aa)" d="M 210.415415 208.896706 
C 211.557123 208.896706 212.652223 208.814613 213.459533 208.668507 
C 214.266843 208.522402 214.720448 208.324212 214.720448 208.117588 
C 214.720448 207.910963 214.266843 207.712774 213.459533 207.566668 
C 212.652223 207.420563 211.557123 207.33847 210.415415 207.33847 
C 209.273707 207.33847 208.178607 207.420563 207.371297 207.566668 
C 206.563988 207.712774 206.110382 207.910963 206.110382 208.117588 
C 206.110382 208.324212 206.563988 208.522402 207.371297 208.668507 
C 208.178607 208.814613 209.273707 208.896706 210.415415 208.896706 
z
" style="fill:#0000ff;opacity:0.2;stroke:#0000ff;stroke-linejoin:miter;stroke-width:2;"/>
   </g>
   <g id="patch_14">
    <path clip-path="url(#p3c5619b5aa)" d="M 147.992437 83.069163 
C 149.134145 83.069163 150.229246 82.98707 151.036555 82.840965 
C 151.843865 82.694859 152.29747 82.496669 152.29747 82.290045 
C 152.29747 82.083421 151.843865 81.885231 151.036555 81.739125 
C 150.229246 81.59302 149.134145 81.510927 147.992437 81.510927 
C 146.850729 81.510927 145.755629 81.59302 144.948319 81.739125 
C 144.14101 81.885231 143.687404 82.083421 143.687404 82.290045 
C 143.687404 82.496669 144.14101 82.694859 144.948319 82.840965 
C 145.755629 82.98707 146.850729 83.069163 147.992437 83.069163 
z
" style="fill:#0000ff;opacity:0.2;stroke:#0000ff;stroke-linejoin:miter;stroke-width:2;"/>
   </g>
   <g id="patch_15">
    <path clip-path="url(#p3c5619b5aa)" d="M 132.924822 48.398416 
C 134.06653 48.398416 135.161631 48.316323 135.96894 48.170217 
C 136.77625 48.024112 137.229855 47.825922 137.229855 47.619298 
C 137.229855 47.412673 136.77625 47.214484 135.96894 47.068378 
C 135.161631 46.922273 134.06653 46.84018 132.924822 46.84018 
C 131.783114 46.84018 130.688014 46.922273 129.880704 47.068378 
C 129.073395 47.214484 128.619789 47.412673 128.619789 47.619298 
C 128.619789 47.825922 129.073395 48.024112 129.880704 48.170217 
C 130.688014 48.316323 131.783114 48.398416 132.924822 48.398416 
z
" style="fill:#0000ff;opacity:0.2;stroke:#0000ff;stroke-linejoin:miter;stroke-width:2;"/>
   </g>
   <g id="patch_16">
    <path clip-path="url(#p3c5619b5aa)" d="M 238.398129 36.322088 
C 350.328986 36.322088 410.599447 39.828119 410.599447 53.073123 
C 410.599447 59.306067 397.684348 71.382394 376.159183 98.651521 
L 285.753491 208.117588 
C 259.923294 211.234059 216.872964 211.234059 191.042767 208.117588 
L 100.637075 98.651521 
C 79.11191 71.382394 66.196812 59.306067 66.196812 53.073123 
C 66.196812 39.828119 126.467273 36.322088 238.398129 36.322088 
" style="fill:none;stroke:#ff0000;stroke-linejoin:miter;stroke-width:0.5;"/>
   </g>
   <g id="patch_17">
    <path clip-path="url(#p3c5619b5aa)" d="M 238.398129 36.322088 
C 307.278656 36.322088 343.871436 37.880324 343.871436 47.619298 
C 343.871436 53.462682 339.566403 61.64342 328.803821 82.290045 
L 266.380843 208.117588 
C 253.465744 210.454941 221.177997 210.454941 210.415415 208.117588 
L 147.992437 82.290045 
C 137.229855 61.64342 132.924822 53.462682 132.924822 47.619298 
C 132.924822 37.880324 169.517602 36.322088 238.398129 36.322088 
" style="fill:none;stroke:#0000ff;stroke-linejoin:miter;stroke-width:0.5;"/>
   </g>
   <g id="[&quot;g_s&quot;:1,&quot;g_t&quot;:1,&quot;coords&quot;:[[177.0, -54.0],[177.0, -54.0]],&quot;certainty&quot;:11]">
    <path clip-path="url(#p3c5619b5aa)" d="M 238.398129 38.659442 
C 241.823253 38.659442 245.108554 38.413164 247.530483 37.974847 
C 249.952412 37.53653 251.313228 36.941962 251.313228 36.322088 
C 251.313228 35.702215 249.952412 35.107646 247.530483 34.66933 
C 245.108554 34.231013 241.823253 33.984734 238.398129 33.984734 
C 234.973005 33.984734 231.687704 34.231013 229.265775 34.66933 
C 226.843847 35.107646 225.48303 35.702215 225.48303 36.322088 
C 225.48303 36.941962 226.843847 37.53653 229.265775 37.974847 
C 231.687704 38.413164 234.973005 38.659442 238.398129 38.659442 
z
" style="fill:#0000ff;opacity:0.2;stroke:#0000ff;stroke-linejoin:miter;stroke-width:2;"/>
   </g>
   <g id="[&quot;g_s&quot;:1,&quot;g_t&quot;:1,&quot;coords&quot;:[[177.0, -54.0],[177.0, -54.0]],&quot;certainty&quot;:11]">
    <path clip-path="url(#p3c5619b5aa)" d="M 238.398129 38.659442 
C 241.823253 38.659442 245.108554 38.413164 247.530483 37.974847 
C 249.952412 37.53653 251.313228 36.941962 251.313228 36.322088 
C 251.313228 35.702215 249.952412 35.107646 247.530483 34.66933 
C 245.108554 34.231013 241.823253 33.984734 238.398129 33.984734 
C 234.973005 33.984734 231.687704 34.231013 229.265775 34.66933 
C 226.843847 35.107646 225.48303 35.702215 225.48303 36.322088 
C 225.48303 36.941962 226.843847 37.53653 229.265775 37.974847 
C 231.687704 38.413164 234.973005 38.659442 238.398129 38.659442 
z
" style="fill:#ff0000;opacity:0.2;stroke:#ff0000;stroke-linejoin:miter;stroke-width:2;"/>
   </g>
   <g id="patch_18">
    <path d="M 238.398129 36.322088 
Q 238.398129 36.322088 238.398129 36.322088 
" style="fill:none;opacity:0.5;stroke:#0000ff;stroke-linecap:round;stroke-width:3;"/>
   </g>
   <g id="[&quot;g_s&quot;:2,&quot;g_t&quot;:2,&quot;coords&quot;:[[257.0, -97.0],[226.0, -83.0]],&quot;certainty&quot;:10]">
    <path clip-path="url(#p3c5619b5aa)" d="M 410.599447 55.215698 
C 413.739144 55.215698 416.75067 54.989942 418.970771 54.588152 
C 421.190872 54.186362 422.438287 53.641341 422.438287 53.073123 
C 422.438287 52.504906 421.190872 51.959885 418.970771 51.558095 
C 416.75067 51.156304 413.739144 50.930549 410.599447 50.930549 
C 407.459749 50.930549 404.448223 51.156304 402.228122 51.558095 
C 400.008021 51.959885 398.760606 52.504906 398.760606 53.073123 
C 398.760606 53.641341 400.008021 54.186362 402.228122 54.588152 
C 404.448223 54.989942 407.459749 55.215698 410.599447 55.215698 
z
" style="fill:#0000ff;opacity:0.2;stroke:#0000ff;stroke-linejoin:miter;stroke-width:2;"/>
   </g>
   <g id="[&quot;g_s&quot;:2,&quot;g_t&quot;:2,&quot;coords&quot;:[[226.0, -83.0],[257.0, -97.0]],&quot;certainty&quot;:10]">
    <path clip-path="url(#p3c5619b5aa)" d="M 343.871436 49.761872 
C 347.011133 49.761872 350.022659 49.536117 352.242761 49.134327 
C 354.462862 48.732536 355.710277 48.187515 355.710277 47.619298 
C 355.710277 47.051081 354.462862 46.506059 352.242761 46.104269 
C 350.022659 45.702479 347.011133 45.476724 343.871436 45.476724 
C 340.731739 45.476724 337.720213 45.702479 335.500112 46.104269 
C 333.28001 46.506059 332.032596 47.051081 332.032596 47.619298 
C 332.032596 48.187515 333.28001 48.732536 335.500112 49.134327 
C 337.720213 49.536117 340.731739 49.761872 343.871436 49.761872 
z
" style="fill:#ff0000;opacity:0.2;stroke:#ff0000;stroke-linejoin:miter;stroke-width:2;"/>
   </g>
   <g id="patch_19">
    <path d="M 410.599447 53.073123 
Q 378.23123 50.427599 347.801094 47.940477 
" style="fill:none;opacity:0.5;stroke:#0000ff;stroke-linecap:round;stroke-width:2.75;"/>
    <path d="M 349.173918 49.557683 
L 347.801094 47.940477 
L 349.4183 46.567653 
" style="fill:none;opacity:0.5;stroke:#0000ff;stroke-linecap:round;stroke-width:2.75;"/>
   </g>
   <g id="[&quot;g_s&quot;:3,&quot;g_t&quot;:3,&quot;coords&quot;:[[241.0, -214.0],[219.0, -172.0]],&quot;certainty&quot;:8]">
    <path clip-path="url(#p3c5619b5aa)" d="M 376.159183 100.404536 
C 378.728026 100.404536 381.192002 100.219828 383.008449 99.89109 
C 384.824895 99.562353 385.845507 99.116426 385.845507 98.651521 
C 385.845507 98.186616 384.824895 97.74069 383.008449 97.411952 
C 381.192002 97.083215 378.728026 96.898506 376.159183 96.898506 
C 373.59034 96.898506 371.126364 97.083215 369.309918 97.411952 
C 367.493471 97.74069 366.472859 98.186616 366.472859 98.651521 
C 366.472859 99.116426 367.493471 99.562353 369.309918 99.89109 
C 371.126364 100.219828 373.59034 100.404536 376.159183 100.404536 
z
" style="fill:#0000ff;opacity:0.2;stroke:#0000ff;stroke-linejoin:miter;stroke-width:2;"/>
   </g>
   <g id="[&quot;g_s&quot;:3,&quot;g_t&quot;:3,&quot;coords&quot;:[[219.0, -172.0],[241.0, -214.0]],&quot;certainty&quot;:8]">
    <path clip-path="url(#p3c5619b5aa)" d="M 328.803821 84.04306 
C 331.372664 84.04306 333.83664 83.858352 335.653086 83.529614 
C 337.469533 83.200876 338.490145 82.75495 338.490145 82.290045 
C 338.490145 81.82514 337.469533 81.379214 335.653086 81.050476 
C 333.83664 80.721738 331.372664 80.53703 328.803821 80.53703 
C 326.234978 80.53703 323.771002 80.721738 321.954555 81.050476 
C 320.138109 81.379214 319.117497 81.82514 319.117497 82.290045 
C 319.117497 82.75495 320.138109 83.200876 321.954555 83.529614 
C 323.771002 83.858352 326.234978 84.04306 328.803821 84.04306 
z
" style="fill:#ff0000;opacity:0.2;stroke:#ff0000;stroke-linejoin:miter;stroke-width:2;"/>
   </g>
   <g id="patch_20">
    <path d="M 376.159183 98.651521 
Q 353.428089 90.797833 332.20076 83.463702 
" style="fill:none;opacity:0.5;stroke:#0000ff;stroke-linecap:round;stroke-width:2.25;"/>
    <path d="M 333.12868 85.371309 
L 332.20076 83.463702 
L 334.108367 82.535781 
" style="fill:none;opacity:0.5;stroke:#0000ff;stroke-linecap:round;stroke-width:2.25;"/>
   </g>
   <g id="[&quot;g_s&quot;:4,&quot;g_t&quot;:4,&quot;coords&quot;:[[199.0, -495.0],[190.0, -495.0]],&quot;certainty&quot;:10]">
    <path clip-path="url(#p3c5619b5aa)" d="M 285.753491 210.260162 
C 288.893189 210.260162 291.904715 210.034407 294.124816 209.632617 
C 296.344917 209.230826 297.592332 208.685805 297.592332 208.117588 
C 297.592332 207.54937 296.344917 207.004349 294.124816 206.602559 
C 291.904715 206.200769 288.893189 205.975014 285.753491 205.975014 
C 282.613794 205.975014 279.602268 206.200769 277.382167 206.602559 
C 275.162066 207.004349 273.914651 207.54937 273.914651 208.117588 
C 273.914651 208.685805 275.162066 209.230826 277.382167 209.632617 
C 279.602268 210.034407 282.613794 210.260162 285.753491 210.260162 
z
" style="fill:#0000ff;opacity:0.2;stroke:#0000ff;stroke-linejoin:miter;stroke-width:2;"/>
   </g>
   <g id="[&quot;g_s&quot;:4,&quot;g_t&quot;:4,&quot;coords&quot;:[[190.0, -495.0],[199.0, -495.0]],&quot;certainty&quot;:10]">
    <path clip-path="url(#p3c5619b5aa)" d="M 266.380843 210.260162 
C 269.52054 210.260162 272.532066 210.034407 274.752168 209.632617 
C 276.972269 209.230826 278.219684 208.685805 278.219684 208.117588 
C 278.219684 207.54937 276.972269 207.004349 274.752168 206.602559 
C 272.532066 206.200769 269.52054 205.975014 266.380843 205.975014 
C 263.241146 205.975014 260.22962 206.200769 258.009519 206.602559 
C 255.789418 207.004349 254.542003 207.54937 254.542003 208.117588 
C 254.542003 208.685805 255.789418 209.230826 258.009519 209.632617 
C 260.22962 210.034407 263.241146 210.260162 266.380843 210.260162 
z
" style="fill:#ff0000;opacity:0.2;stroke:#ff0000;stroke-linejoin:miter;stroke-width:2;"/>
   </g>
   <g id="patch_21">
    <path d="M 285.753491 208.117588 
Q 277.067488 208.117588 270.326029 208.117588 
" style="fill:none;opacity:0.5;stroke:#0000ff;stroke-linecap:round;stroke-width:2.75;"/>
    <path d="M 271.826029 209.617588 
L 270.326029 208.117588 
L 271.826029 206.617588 
" style="fill:none;opacity:0.5;stroke:#0000ff;stroke-linecap:round;stroke-width:2.75;"/>
   </g>
   <g id="[&quot;g_s&quot;:5,&quot;g_t&quot;:5,&quot;coords&quot;:[[155.0, -495.0],[164.0, -495.0]],&quot;certainty&quot;:5]">
    <path clip-path="url(#p3c5619b5aa)" d="M 191.042767 209.286265 
C 192.755329 209.286265 194.397979 209.163125 195.608944 208.943967 
C 196.819908 208.724809 197.500316 208.427524 197.500316 208.117588 
C 197.500316 207.807651 196.819908 207.510367 195.608944 207.291208 
C 194.397979 207.07205 192.755329 206.948911 191.042767 206.948911 
C 189.330205 206.948911 187.687554 207.07205 186.47659 207.291208 
C 185.265626 207.510367 184.585217 207.807651 184.585217 208.117588 
C 184.585217 208.427524 185.265626 208.724809 186.47659 208.943967 
C 187.687554 209.163125 189.330205 209.286265 191.042767 209.286265 
z
" style="fill:#0000ff;opacity:0.2;stroke:#0000ff;stroke-linejoin:miter;stroke-width:2;"/>
   </g>
   <g id="[&quot;g_s&quot;:5,&quot;g_t&quot;:5,&quot;coords&quot;:[[164.0, -495.0],[155.0, -495.0]],&quot;certainty&quot;:5]">
    <path clip-path="url(#p3c5619b5aa)" d="M 210.415415 209.286265 
C 212.127977 209.286265 213.770628 209.163125 214.981592 208.943967 
C 216.192556 208.724809 216.872964 208.427524 216.872964 208.117588 
C 216.872964 207.807651 216.192556 207.510367 214.981592 207.291208 
C 213.770628 207.07205 212.127977 206.948911 210.415415 206.948911 
C 208.702853 206.948911 207.060202 207.07205 205.849238 207.291208 
C 204.638274 207.510367 203.957866 207.807651 203.957866 208.117588 
C 203.957866 208.427524 204.638274 208.724809 205.849238 208.943967 
C 207.060202 209.163125 208.702853 209.286265 210.415415 209.286265 
z
" style="fill:#ff0000;opacity:0.2;stroke:#ff0000;stroke-linejoin:miter;stroke-width:2;"/>
   </g>
   <g id="patch_22">
    <path d="M 191.042767 208.117588 
Q 199.72877 208.117588 207.354113 208.117588 
" style="fill:none;opacity:0.5;stroke:#0000ff;stroke-linecap:round;stroke-width:1.5;"/>
    <path d="M 205.854113 206.617588 
L 207.354113 208.117588 
L 205.854113 209.617588 
" style="fill:none;opacity:0.5;stroke:#0000ff;stroke-linecap:round;stroke-width:1.5;"/>
   </g>
   <g id="[&quot;g_s&quot;:6,&quot;g_t&quot;:6,&quot;coords&quot;:[[113.0, -214.0],[135.0, -172.0]],&quot;certainty&quot;:12]">
    <path clip-path="url(#p3c5619b5aa)" d="M 100.637075 101.183654 
C 104.347626 101.183654 107.906703 100.916853 110.530459 100.44201 
C 113.154215 99.967167 114.628432 99.323051 114.628432 98.651521 
C 114.628432 97.979992 113.154215 97.335876 110.530459 96.861033 
C 107.906703 96.386189 104.347626 96.119388 100.637075 96.119388 
C 96.926524 96.119388 93.367448 96.386189 90.743692 96.861033 
C 88.119936 97.335876 86.645718 97.979992 86.645718 98.651521 
C 86.645718 99.323051 88.119936 99.967167 90.743692 100.44201 
C 93.367448 100.916853 96.926524 101.183654 100.637075 101.183654 
z
" style="fill:#0000ff;opacity:0.2;stroke:#0000ff;stroke-linejoin:miter;stroke-width:2;"/>
   </g>
   <g id="[&quot;g_s&quot;:6,&quot;g_t&quot;:6,&quot;coords&quot;:[[135.0, -172.0],[113.0, -214.0]],&quot;certainty&quot;:12]">
    <path clip-path="url(#p3c5619b5aa)" d="M 147.992437 84.822178 
C 151.702989 84.822178 155.262065 84.555377 157.885821 84.080534 
C 160.509577 83.60569 161.983794 82.961575 161.983794 82.290045 
C 161.983794 81.618515 160.509577 80.9744 157.885821 80.499556 
C 155.262065 80.024713 151.702989 79.757912 147.992437 79.757912 
C 144.281886 79.757912 140.72281 80.024713 138.099054 80.499556 
C 135.475298 80.9744 134.00108 81.618515 134.00108 82.290045 
C 134.00108 82.961575 135.475298 83.60569 138.099054 84.080534 
C 140.72281 84.555377 144.281886 84.822178 147.992437 84.822178 
z
" style="fill:#ff0000;opacity:0.2;stroke:#ff0000;stroke-linejoin:miter;stroke-width:2;"/>
   </g>
   <g id="patch_23">
    <path d="M 100.637075 98.651521 
Q 123.368169 90.797833 143.927158 83.694616 
" style="fill:none;opacity:0.5;stroke:#0000ff;stroke-linecap:round;stroke-width:3.25;"/>
    <path d="M 142.019551 82.766696 
L 143.927158 83.694616 
L 142.999238 85.602223 
" style="fill:none;opacity:0.5;stroke:#0000ff;stroke-linecap:round;stroke-width:3.25;"/>
   </g>
   <g id="[&quot;g_s&quot;:7,&quot;g_t&quot;:7,&quot;coords&quot;:[[97.0, -97.0],[128.0, -83.0]],&quot;certainty&quot;:12]">
    <path clip-path="url(#p3c5619b5aa)" d="M 66.196812 55.605257 
C 69.907363 55.605257 73.466439 55.338455 76.090195 54.863612 
C 78.713951 54.388769 80.188169 53.744653 80.188169 53.073123 
C 80.188169 52.401594 78.713951 51.757478 76.090195 51.282635 
C 73.466439 50.807792 69.907363 50.54099 66.196812 50.54099 
C 62.48626 50.54099 58.927184 50.807792 56.303428 51.282635 
C 53.679672 51.757478 52.205455 52.401594 52.205455 53.073123 
C 52.205455 53.744653 53.679672 54.388769 56.303428 54.863612 
C 58.927184 55.338455 62.48626 55.605257 66.196812 55.605257 
z
" style="fill:#0000ff;opacity:0.2;stroke:#0000ff;stroke-linejoin:miter;stroke-width:2;"/>
   </g>
   <g id="[&quot;g_s&quot;:7,&quot;g_t&quot;:7,&quot;coords&quot;:[[128.0, -83.0],[97.0, -97.0]],&quot;certainty&quot;:12]">
    <path clip-path="url(#p3c5619b5aa)" d="M 132.924822 50.151431 
C 136.635373 50.151431 140.19445 49.88463 142.818206 49.409786 
C 145.441962 48.934943 146.916179 48.290828 146.916179 47.619298 
C 146.916179 46.947768 145.441962 46.303652 142.818206 45.828809 
C 140.19445 45.353966 136.635373 45.087165 132.924822 45.087165 
C 129.214271 45.087165 125.655195 45.353966 123.031439 45.828809 
C 120.407683 46.303652 118.933465 46.947768 118.933465 47.619298 
C 118.933465 48.290828 120.407683 48.934943 123.031439 49.409786 
C 125.655195 49.88463 129.214271 50.151431 132.924822 50.151431 
z
" style="fill:#ff0000;opacity:0.2;stroke:#ff0000;stroke-linejoin:miter;stroke-width:2;"/>
   </g>
   <g id="patch_24">
    <path d="M 66.196812 53.073123 
Q 98.565028 50.427599 128.642786 47.969278 
" style="fill:none;opacity:0.5;stroke:#0000ff;stroke-linecap:round;stroke-width:3.25;"/>
    <path d="M 127.02558 46.596454 
L 128.642786 47.969278 
L 127.269962 49.586484 
" style="fill:none;opacity:0.5;stroke:#0000ff;stroke-linecap:round;stroke-width:3.25;"/>
   </g>
   <g id="[&quot;g_s&quot;:1,&quot;g_t&quot;:1,&quot;coords&quot;:[[177.0, -54.0],[177.0, -54.0]],&quot;certainty&quot;:11]">
    <path clip-path="url(#p3c5619b5aa)" d="M 238.398129 38.659442 
C 241.823253 38.659442 245.108554 38.413164 247.530483 37.974847 
C 249.952412 37.53653 251.313228 36.941962 251.313228 36.322088 
C 251.313228 35.702215 249.952412 35.107646 247.530483 34.66933 
C 245.108554 34.231013 241.823253 33.984734 238.398129 33.984734 
C 234.973005 33.984734 231.687704 34.231013 229.265775 34.66933 
C 226.843847 35.107646 225.48303 35.702215 225.48303 36.322088 
C 225.48303 36.941962 226.843847 37.53653 229.265775 37.974847 
C 231.687704 38.413164 234.973005 38.659442 238.398129 38.659442 
z
" style="fill:#0000ff;opacity:0.2;stroke:#0000ff;stroke-linejoin:miter;stroke-width:2;"/>
   </g>
   <g id="[&quot;g_s&quot;:1,&quot;g_t&quot;:1,&quot;coords&quot;:[[177.0, -54.0],[177.0, -54.0]],&quot;certainty&quot;:11]">
    <path clip-path="url(#p3c5619b5aa)" d="M 238.398129 38.659442 
C 241.823253 38.659442 245.108554 38.413164 247.530483 37.974847 
C 249.952412 37.53653 251.313228 36.941962 251.313228 36.322088 
C 251.313228 35.702215 249.952412 35.107646 247.530483 34.66933 
C 245.108554 34.231013 241.823253 33.984734 238.398129 33.984734 
C 234.973005 33.984734 231.687704 34.231013 229.265775 34.66933 
C 226.843847 35.107646 225.48303 35.702215 225.48303 36.322088 
C 225.48303 36.941962 226.843847 37.53653 229.265775 37.974847 
C 231.687704 38.413164 234.973005 38.659442 238.398129 38.659442 
z
" style="fill:#ff0000;opacity:0.2;stroke:#ff0000;stroke-linejoin:miter;stroke-width:2;"/>
   </g>
   <g id="patch_25">
    <path d="M 238.398129 36.322088 
Q 238.398129 36.322088 238.398129 36.322088 
" style="fill:none;opacity:0.5;stroke:#ff0000;stroke-linecap:round;stroke-width:3;"/>
   </g>
   <g id="[&quot;g_s&quot;:2,&quot;g_t&quot;:2,&quot;coords&quot;:[[226.0, -83.0],[257.0, -97.0]],&quot;certainty&quot;:11]">
    <path clip-path="url(#p3c5619b5aa)" d="M 343.871436 49.956652 
C 347.29656 49.956652 350.581861 49.710373 353.00379 49.272057 
C 355.425719 48.83374 356.786535 48.239171 356.786535 47.619298 
C 356.786535 46.999424 355.425719 46.404856 353.00379 45.966539 
C 350.581861 45.528223 347.29656 45.281944 343.871436 45.281944 
C 340.446312 45.281944 337.161011 45.528223 334.739082 45.966539 
C 332.317154 46.404856 330.956337 46.999424 330.956337 47.619298 
C 330.956337 48.239171 332.317154 48.83374 334.739082 49.272057 
C 337.161011 49.710373 340.446312 49.956652 343.871436 49.956652 
z
" style="fill:#0000ff;opacity:0.2;stroke:#0000ff;stroke-linejoin:miter;stroke-width:2;"/>
   </g>
   <g id="[&quot;g_s&quot;:2,&quot;g_t&quot;:2,&quot;coords&quot;:[[257.0, -97.0],[226.0, -83.0]],&quot;certainty&quot;:11]">
    <path clip-path="url(#p3c5619b5aa)" d="M 410.599447 55.410477 
C 414.024571 55.410477 417.309872 55.164199 419.731801 54.725882 
C 422.153729 54.287565 423.514545 53.692997 423.514545 53.073123 
C 423.514545 52.45325 422.153729 51.858681 419.731801 51.420365 
C 417.309872 50.982048 414.024571 50.73577 410.599447 50.73577 
C 407.174322 50.73577 403.889021 50.982048 401.467093 51.420365 
C 399.045164 51.858681 397.684348 52.45325 397.684348 53.073123 
C 397.684348 53.692997 399.045164 54.287565 401.467093 54.725882 
C 403.889021 55.164199 407.174322 55.410477 410.599447 55.410477 
z
" style="fill:#ff0000;opacity:0.2;stroke:#ff0000;stroke-linejoin:miter;stroke-width:2;"/>
   </g>
   <g id="patch_26">
    <path d="M 343.871436 47.619298 
Q 376.239653 50.264823 406.493599 52.737543 
" style="fill:none;opacity:0.5;stroke:#ff0000;stroke-linecap:round;stroke-width:3;"/>
    <path d="M 405.120775 51.120338 
L 406.493599 52.737543 
L 404.876394 54.110368 
" style="fill:none;opacity:0.5;stroke:#ff0000;stroke-linecap:round;stroke-width:3;"/>
   </g>
   <g id="[&quot;g_s&quot;:3,&quot;g_t&quot;:3,&quot;coords&quot;:[[219.0, -172.0],[241.0, -214.0]],&quot;certainty&quot;:7]">
    <path clip-path="url(#p3c5619b5aa)" d="M 328.803821 83.848281 
C 331.087237 83.848281 333.277438 83.684095 334.892057 83.391884 
C 336.506676 83.099673 337.413887 82.703294 337.413887 82.290045 
C 337.413887 81.876796 336.506676 81.480417 334.892057 81.188206 
C 333.277438 80.895995 331.087237 80.731809 328.803821 80.731809 
C 326.520405 80.731809 324.330204 80.895995 322.715585 81.188206 
C 321.100966 81.480417 320.193755 81.876796 320.193755 82.290045 
C 320.193755 82.703294 321.100966 83.099673 322.715585 83.391884 
C 324.330204 83.684095 326.520405 83.848281 328.803821 83.848281 
z
" style="fill:#0000ff;opacity:0.2;stroke:#0000ff;stroke-linejoin:miter;stroke-width:2;"/>
   </g>
   <g id="[&quot;g_s&quot;:3,&quot;g_t&quot;:3,&quot;coords&quot;:[[241.0, -214.0],[219.0, -172.0]],&quot;certainty&quot;:7]">
    <path clip-path="url(#p3c5619b5aa)" d="M 376.159183 100.209757 
C 378.442599 100.209757 380.6328 100.045571 382.247419 99.75336 
C 383.862038 99.461149 384.769249 99.06477 384.769249 98.651521 
C 384.769249 98.238272 383.862038 97.841893 382.247419 97.549682 
C 380.6328 97.257471 378.442599 97.093285 376.159183 97.093285 
C 373.875767 97.093285 371.685566 97.257471 370.070947 97.549682 
C 368.456328 97.841893 367.549117 98.238272 367.549117 98.651521 
C 367.549117 99.06477 368.456328 99.461149 370.070947 99.75336 
C 371.685566 100.045571 373.875767 100.209757 376.159183 100.209757 
z
" style="fill:#ff0000;opacity:0.2;stroke:#ff0000;stroke-linejoin:miter;stroke-width:2;"/>
   </g>
   <g id="patch_27">
    <path d="M 328.803821 82.290045 
Q 351.534915 90.143733 372.929329 97.535593 
" style="fill:none;opacity:0.5;stroke:#ff0000;stroke-linecap:round;stroke-width:2;"/>
    <path d="M 372.001409 95.627986 
L 372.929329 97.535593 
L 371.021722 98.463513 
" style="fill:none;opacity:0.5;stroke:#ff0000;stroke-linecap:round;stroke-width:2;"/>
   </g>
   <g id="[&quot;g_s&quot;:4,&quot;g_t&quot;:4,&quot;coords&quot;:[[190.0, -495.0],[199.0, -495.0]],&quot;certainty&quot;:10]">
    <path clip-path="url(#p3c5619b5aa)" d="M 266.380843 210.260162 
C 269.52054 210.260162 272.532066 210.034407 274.752168 209.632617 
C 276.972269 209.230826 278.219684 208.685805 278.219684 208.117588 
C 278.219684 207.54937 276.972269 207.004349 274.752168 206.602559 
C 272.532066 206.200769 269.52054 205.975014 266.380843 205.975014 
C 263.241146 205.975014 260.22962 206.200769 258.009519 206.602559 
C 255.789418 207.004349 254.542003 207.54937 254.542003 208.117588 
C 254.542003 208.685805 255.789418 209.230826 258.009519 209.632617 
C 260.22962 210.034407 263.241146 210.260162 266.380843 210.260162 
z
" style="fill:#0000ff;opacity:0.2;stroke:#0000ff;stroke-linejoin:miter;stroke-width:2;"/>
   </g>
   <g id="[&quot;g_s&quot;:4,&quot;g_t&quot;:4,&quot;coords&quot;:[[199.0, -495.0],[190.0, -495.0]],&quot;certainty&quot;:10]">
    <path clip-path="url(#p3c5619b5aa)" d="M 285.753491 210.260162 
C 288.893189 210.260162 291.904715 210.034407 294.124816 209.632617 
C 296.344917 209.230826 297.592332 208.685805 297.592332 208.117588 
C 297.592332 207.54937 296.344917 207.004349 294.124816 206.602559 
C 291.904715 206.200769 288.893189 205.975014 285.753491 205.975014 
C 282.613794 205.975014 279.602268 206.200769 277.382167 206.602559 
C 275.162066 207.004349 273.914651 207.54937 273.914651 208.117588 
C 273.914651 208.685805 275.162066 209.230826 277.382167 209.632617 
C 279.602268 210.034407 282.613794 210.260162 285.753491 210.260162 
z
" style="fill:#ff0000;opacity:0.2;stroke:#ff0000;stroke-linejoin:miter;stroke-width:2;"/>
   </g>
   <g id="patch_28">
    <path d="M 266.380843 208.117588 
Q 275.066846 208.117588 281.808306 208.117588 
" style="fill:none;opacity:0.5;stroke:#ff0000;stroke-linecap:round;stroke-width:2.75;"/>
    <path d="M 280.308306 206.617588 
L 281.808306 208.117588 
L 280.308306 209.617588 
" style="fill:none;opacity:0.5;stroke:#ff0000;stroke-linecap:round;stroke-width:2.75;"/>
   </g>
   <g id="[&quot;g_s&quot;:5,&quot;g_t&quot;:5,&quot;coords&quot;:[[164.0, -495.0],[155.0, -495.0]],&quot;certainty&quot;:6]">
    <path clip-path="url(#p3c5619b5aa)" d="M 210.415415 209.481044 
C 212.413404 209.481044 214.32983 209.337382 215.742621 209.081697 
C 217.155413 208.826012 217.949223 208.479181 217.949223 208.117588 
C 217.949223 207.755995 217.155413 207.409163 215.742621 207.153479 
C 214.32983 206.897794 212.413404 206.754131 210.415415 206.754131 
C 208.417426 206.754131 206.501 206.897794 205.088209 207.153479 
C 203.675417 207.409163 202.881607 207.755995 202.881607 208.117588 
C 202.881607 208.479181 203.675417 208.826012 205.088209 209.081697 
C 206.501 209.337382 208.417426 209.481044 210.415415 209.481044 
z
" style="fill:#0000ff;opacity:0.2;stroke:#0000ff;stroke-linejoin:miter;stroke-width:2;"/>
   </g>
   <g id="[&quot;g_s&quot;:5,&quot;g_t&quot;:5,&quot;coords&quot;:[[155.0, -495.0],[164.0, -495.0]],&quot;certainty&quot;:6]">
    <path clip-path="url(#p3c5619b5aa)" d="M 191.042767 209.481044 
C 193.040756 209.481044 194.957182 209.337382 196.369973 209.081697 
C 197.782765 208.826012 198.576574 208.479181 198.576574 208.117588 
C 198.576574 207.755995 197.782765 207.409163 196.369973 207.153479 
C 194.957182 206.897794 193.040756 206.754131 191.042767 206.754131 
C 189.044778 206.754131 187.128352 206.897794 185.71556 207.153479 
C 184.302769 207.409163 183.508959 207.755995 183.508959 208.117588 
C 183.508959 208.479181 184.302769 208.826012 185.71556 209.081697 
C 187.128352 209.337382 189.044778 209.481044 191.042767 209.481044 
z
" style="fill:#ff0000;opacity:0.2;stroke:#ff0000;stroke-linejoin:miter;stroke-width:2;"/>
   </g>
   <g id="patch_29">
    <path d="M 210.415415 208.117588 
Q 201.729412 208.117588 194.280846 208.117588 
" style="fill:none;opacity:0.5;stroke:#ff0000;stroke-linecap:round;stroke-width:1.75;"/>
    <path d="M 195.780846 209.617588 
L 194.280846 208.117588 
L 195.780846 206.617588 
" style="fill:none;opacity:0.5;stroke:#ff0000;stroke-linecap:round;stroke-width:1.75;"/>
   </g>
   <g id="[&quot;g_s&quot;:6,&quot;g_t&quot;:6,&quot;coords&quot;:[[135.0, -172.0],[113.0, -214.0]],&quot;certainty&quot;:13]">
    <path clip-path="url(#p3c5619b5aa)" d="M 147.992437 85.016958 
C 151.988416 85.016958 155.821267 84.729633 158.64685 84.218263 
C 161.472434 83.706894 163.060053 83.013231 163.060053 82.290045 
C 163.060053 81.566859 161.472434 80.873196 158.64685 80.361827 
C 155.821267 79.850457 151.988416 79.563132 147.992437 79.563132 
C 143.996459 79.563132 140.163608 79.850457 137.338024 80.361827 
C 134.512441 80.873196 132.924822 81.566859 132.924822 82.290045 
C 132.924822 83.013231 134.512441 83.706894 137.338024 84.218263 
C 140.163608 84.729633 143.996459 85.016958 147.992437 85.016958 
z
" style="fill:#0000ff;opacity:0.2;stroke:#0000ff;stroke-linejoin:miter;stroke-width:2;"/>
   </g>
   <g id="[&quot;g_s&quot;:6,&quot;g_t&quot;:6,&quot;coords&quot;:[[113.0, -214.0],[135.0, -172.0]],&quot;certainty&quot;:13]">
    <path clip-path="url(#p3c5619b5aa)" d="M 100.637075 101.378434 
C 104.633053 101.378434 108.465905 101.091109 111.291488 100.57974 
C 114.117071 100.06837 115.70469 99.374707 115.70469 98.651521 
C 115.70469 97.928335 114.117071 97.234672 111.291488 96.723303 
C 108.465905 96.211933 104.633053 95.924608 100.637075 95.924608 
C 96.641097 95.924608 92.808245 96.211933 89.982662 96.723303 
C 87.157079 97.234672 85.56946 97.928335 85.56946 98.651521 
C 85.56946 99.374707 87.157079 100.06837 89.982662 100.57974 
C 92.808245 101.091109 96.641097 101.378434 100.637075 101.378434 
z
" style="fill:#ff0000;opacity:0.2;stroke:#ff0000;stroke-linejoin:miter;stroke-width:2;"/>
   </g>
   <g id="patch_30">
    <path d="M 147.992437 82.290045 
Q 125.261343 90.143733 104.86944 97.189221 
" style="fill:none;opacity:0.5;stroke:#ff0000;stroke-linecap:round;stroke-width:3.5;"/>
    <path d="M 106.777046 98.117142 
L 104.86944 97.189221 
L 105.79736 95.281615 
" style="fill:none;opacity:0.5;stroke:#ff0000;stroke-linecap:round;stroke-width:3.5;"/>
   </g>
   <g id="[&quot;g_s&quot;:7,&quot;g_t&quot;:7,&quot;coords&quot;:[[128.0, -83.0],[97.0, -97.0]],&quot;certainty&quot;:10]">
    <path clip-path="url(#p3c5619b5aa)" d="M 132.924822 49.761872 
C 136.064519 49.761872 139.076045 49.536117 141.296147 49.134327 
C 143.516248 48.732536 144.763663 48.187515 144.763663 47.619298 
C 144.763663 47.051081 143.516248 46.506059 141.296147 46.104269 
C 139.076045 45.702479 136.064519 45.476724 132.924822 45.476724 
C 129.785125 45.476724 126.773599 45.702479 124.553498 46.104269 
C 122.333396 46.506059 121.085982 47.051081 121.085982 47.619298 
C 121.085982 48.187515 122.333396 48.732536 124.553498 49.134327 
C 126.773599 49.536117 129.785125 49.761872 132.924822 49.761872 
z
" style="fill:#0000ff;opacity:0.2;stroke:#0000ff;stroke-linejoin:miter;stroke-width:2;"/>
   </g>
   <g id="[&quot;g_s&quot;:7,&quot;g_t&quot;:7,&quot;coords&quot;:[[97.0, -97.0],[128.0, -83.0]],&quot;certainty&quot;:10]">
    <path clip-path="url(#p3c5619b5aa)" d="M 66.196812 55.215698 
C 69.336509 55.215698 72.348035 54.989942 74.568136 54.588152 
C 76.788237 54.186362 78.035652 53.641341 78.035652 53.073123 
C 78.035652 52.504906 76.788237 51.959885 74.568136 51.558095 
C 72.348035 51.156304 69.336509 50.930549 66.196812 50.930549 
C 63.057114 50.930549 60.045588 51.156304 57.825487 51.558095 
C 55.605386 51.959885 54.357971 52.504906 54.357971 53.073123 
C 54.357971 53.641341 55.605386 54.186362 57.825487 54.588152 
C 60.045588 54.989942 63.057114 55.215698 66.196812 55.215698 
z
" style="fill:#ff0000;opacity:0.2;stroke:#ff0000;stroke-linejoin:miter;stroke-width:2;"/>
   </g>
   <g id="patch_31">
    <path d="M 132.924822 47.619298 
Q 100.556605 50.264823 70.12647 52.751944 
" style="fill:none;opacity:0.5;stroke:#ff0000;stroke-linecap:round;stroke-width:2.75;"/>
    <path d="M 71.743675 54.124768 
L 70.12647 52.751944 
L 71.499294 51.134738 
" style="fill:none;opacity:0.5;stroke:#ff0000;stroke-linecap:round;stroke-width:2.75;"/>
   </g>
   <g id="patch_32">
    <path clip-path="url(#p3c5619b5aa)" d="M 238.398129 38.269883 
C 241.252399 38.269883 243.99015 38.064651 246.008424 37.699387 
C 248.026698 37.334123 249.160711 36.838649 249.160711 36.322088 
C 249.160711 35.805527 248.026698 35.310053 246.008424 34.944789 
C 243.99015 34.579525 241.252399 34.374293 238.398129 34.374293 
C 235.543859 34.374293 232.806108 34.579525 230.787834 34.944789 
C 228.76956 35.310053 227.635547 35.805527 227.635547 36.322088 
C 227.635547 36.838649 228.76956 37.334123 230.787834 37.699387 
C 232.806108 38.064651 235.543859 38.269883 238.398129 38.269883 
z
" style="fill:#008000;opacity:0.2;stroke:#008000;stroke-linejoin:miter;stroke-width:2;"/>
   </g>
   <g id="patch_33">
    <path clip-path="url(#p3c5619b5aa)" d="M 377.235441 52.294005 
C 380.089712 52.294005 382.827463 52.088773 384.845736 51.72351 
C 386.86401 51.358246 387.998024 50.862772 387.998024 50.346211 
C 387.998024 49.829649 386.86401 49.334176 384.845736 48.968912 
C 382.827463 48.603648 380.089712 48.398416 377.235441 48.398416 
C 374.381171 48.398416 371.64342 48.603648 369.625146 48.968912 
C 367.606873 49.334176 366.472859 49.829649 366.472859 50.346211 
C 366.472859 50.862772 367.606873 51.358246 369.625146 51.72351 
C 371.64342 52.088773 374.381171 52.294005 377.235441 52.294005 
z
" style="fill:#008000;opacity:0.2;stroke:#008000;stroke-linejoin:miter;stroke-width:2;"/>
   </g>
   <g id="patch_34">
    <path clip-path="url(#p3c5619b5aa)" d="M 352.481502 92.418578 
C 355.335772 92.418578 358.073523 92.213346 360.091797 91.848082 
C 362.110071 91.482818 363.244084 90.987344 363.244084 90.470783 
C 363.244084 89.954222 362.110071 89.458748 360.091797 89.093484 
C 358.073523 88.72822 355.335772 88.522988 352.481502 88.522988 
C 349.627232 88.522988 346.889481 88.72822 344.871207 89.093484 
C 342.852933 89.458748 341.71892 89.954222 341.71892 90.470783 
C 341.71892 90.987344 342.852933 91.482818 344.871207 91.848082 
C 346.889481 92.213346 349.627232 92.418578 352.481502 92.418578 
z
" style="fill:#008000;opacity:0.2;stroke:#008000;stroke-linejoin:miter;stroke-width:2;"/>
   </g>
   <g id="patch_35">
    <path clip-path="url(#p3c5619b5aa)" d="M 276.067167 210.065383 
C 278.921438 210.065383 281.659188 209.860151 283.677462 209.494887 
C 285.695736 209.129623 286.82975 208.634149 286.82975 208.117588 
C 286.82975 207.601027 285.695736 207.105553 283.677462 206.740289 
C 281.659188 206.375025 278.921438 206.169793 276.067167 206.169793 
C 273.212897 206.169793 270.475146 206.375025 268.456872 206.740289 
C 266.438599 207.105553 265.304585 207.601027 265.304585 208.117588 
C 265.304585 208.634149 266.438599 209.129623 268.456872 209.494887 
C 270.475146 209.860151 273.212897 210.065383 276.067167 210.065383 
z
" style="fill:#008000;opacity:0.2;stroke:#008000;stroke-linejoin:miter;stroke-width:2;"/>
   </g>
   <g id="patch_36">
    <path clip-path="url(#p3c5619b5aa)" d="M 200.729091 210.065383 
C 203.583361 210.065383 206.321112 209.860151 208.339386 209.494887 
C 210.35766 209.129623 211.491673 208.634149 211.491673 208.117588 
C 211.491673 207.601027 210.35766 207.105553 208.339386 206.740289 
C 206.321112 206.375025 203.583361 206.169793 200.729091 206.169793 
C 197.874821 206.169793 195.13707 206.375025 193.118796 206.740289 
C 191.100522 207.105553 189.966509 207.601027 189.966509 208.117588 
C 189.966509 208.634149 191.100522 209.129623 193.118796 209.494887 
C 195.13707 209.860151 197.874821 210.065383 200.729091 210.065383 
z
" style="fill:#008000;opacity:0.2;stroke:#008000;stroke-linejoin:miter;stroke-width:2;"/>
   </g>
   <g id="patch_37">
    <path clip-path="url(#p3c5619b5aa)" d="M 124.314756 92.418578 
C 127.169026 92.418578 129.906777 92.213346 131.925051 91.848082 
C 133.943325 91.482818 135.077339 90.987344 135.077339 90.470783 
C 135.077339 89.954222 133.943325 89.458748 131.925051 89.093484 
C 129.906777 88.72822 127.169026 88.522988 124.314756 88.522988 
C 121.460486 88.522988 118.722735 88.72822 116.704461 89.093484 
C 114.686187 89.458748 113.552174 89.954222 113.552174 90.470783 
C 113.552174 90.987344 114.686187 91.482818 116.704461 91.848082 
C 118.722735 92.213346 121.460486 92.418578 124.314756 92.418578 
z
" style="fill:#008000;opacity:0.2;stroke:#008000;stroke-linejoin:miter;stroke-width:2;"/>
   </g>
   <g id="patch_38">
    <path clip-path="url(#p3c5619b5aa)" d="M 99.560817 52.294005 
C 102.415087 52.294005 105.152838 52.088773 107.171112 51.72351 
C 109.189386 51.358246 110.323399 50.862772 110.323399 50.346211 
C 110.323399 49.829649 109.189386 49.334176 107.171112 48.968912 
C 105.152838 48.603648 102.415087 48.398416 99.560817 48.398416 
C 96.706547 48.398416 93.968796 48.603648 91.950522 48.968912 
C 89.932248 49.334176 88.798235 49.829649 88.798235 50.346211 
C 88.798235 50.862772 89.932248 51.358246 91.950522 51.72351 
C 93.968796 52.088773 96.706547 52.294005 99.560817 52.294005 
z
" style="fill:#008000;opacity:0.2;stroke:#008000;stroke-linejoin:miter;stroke-width:2;"/>
   </g>
   <g id="patch_39">
    <path clip-path="url(#p3c5619b5aa)" d="M 238.398129 44.113267 
C 249.81521 44.113267 260.766214 43.29234 268.839309 41.831284 
C 276.912404 40.370228 281.448458 38.388333 281.448458 36.322088 
C 281.448458 34.255843 276.912404 32.273948 268.839309 30.812893 
C 260.766214 29.351837 249.81521 28.530909 238.398129 28.530909 
C 226.981048 28.530909 216.030045 29.351837 207.956949 30.812893 
C 199.883854 32.273948 195.3478 34.255843 195.3478 36.322088 
C 195.3478 38.388333 199.883854 40.370228 207.956949 41.831284 
C 216.030045 43.29234 226.981048 44.113267 238.398129 44.113267 
z
" style="fill:none;opacity:0.2;stroke:#ff0000;stroke-linejoin:miter;stroke-width:2;"/>
   </g>
   <g id="patch_40">
    <path clip-path="url(#p3c5619b5aa)" d="M 238.398129 44.113267 
C 249.81521 44.113267 260.766214 43.29234 268.839309 41.831284 
C 276.912404 40.370228 281.448458 38.388333 281.448458 36.322088 
C 281.448458 34.255843 276.912404 32.273948 268.839309 30.812893 
C 260.766214 29.351837 249.81521 28.530909 238.398129 28.530909 
C 226.981048 28.530909 216.030045 29.351837 207.956949 30.812893 
C 199.883854 32.273948 195.3478 34.255843 195.3478 36.322088 
C 195.3478 38.388333 199.883854 40.370228 207.956949 41.831284 
C 216.030045 43.29234 226.981048 44.113267 238.398129 44.113267 
z
" style="fill:none;opacity:0.2;stroke:#0000ff;stroke-linejoin:miter;stroke-width:2;"/>
   </g>
   <g id="patch_41">
    <path clip-path="url(#p3c5619b5aa)" d="M 238.398129 40.217678 
C 244.10667 40.217678 249.582171 39.807214 253.618719 39.076686 
C 257.655267 38.346158 259.923294 37.355211 259.923294 36.322088 
C 259.923294 35.288966 257.655267 34.298018 253.618719 33.56749 
C 249.582171 32.836963 244.10667 32.426499 238.398129 32.426499 
C 232.689589 32.426499 227.214087 32.836963 223.177539 33.56749 
C 219.140992 34.298018 216.872964 35.288966 216.872964 36.322088 
C 216.872964 37.355211 219.140992 38.346158 223.177539 39.076686 
C 227.214087 39.807214 232.689589 40.217678 238.398129 40.217678 
z
" style="fill:none;opacity:0.2;stroke:#008000;stroke-linejoin:miter;stroke-width:2;"/>
   </g>
   <g id="patch_42">
    <path clip-path="url(#p3c5619b5aa)" d="M 238.398129 40.217678 
C 244.10667 40.217678 249.582171 39.807214 253.618719 39.076686 
C 257.655267 38.346158 259.923294 37.355211 259.923294 36.322088 
C 259.923294 35.288966 257.655267 34.298018 253.618719 33.56749 
C 249.582171 32.836963 244.10667 32.426499 238.398129 32.426499 
C 232.689589 32.426499 227.214087 32.836963 223.177539 33.56749 
C 219.140992 34.298018 216.872964 35.288966 216.872964 36.322088 
C 216.872964 37.355211 219.140992 38.346158 223.177539 39.076686 
C 227.214087 39.807214 232.689589 40.217678 238.398129 40.217678 
z
" style="fill:none;opacity:0.2;stroke:#008000;stroke-linejoin:miter;stroke-width:2;"/>
   </g>
   <g id="patch_43">
    <path d="M 238.398129 36.322088 
Q 307.816785 43.334149 377.235441 50.346211 
" style="fill:none;opacity:0.5;stroke:#008000;stroke-linecap:round;stroke-width:2;"/>
   </g>
   <g id="patch_44">
    <path d="M 238.398129 36.322088 
Q 238.398129 36.322088 238.398129 36.322088 
" style="fill:none;opacity:0.5;stroke:#800080;stroke-linecap:round;stroke-width:2;"/>
   </g>
   <g id="patch_45">
    <path d="M 377.235441 50.346211 
Q 364.858472 70.408497 352.481502 90.470783 
" style="fill:none;opacity:0.5;stroke:#008000;stroke-linecap:round;stroke-width:2;"/>
   </g>
   <g id="patch_46">
    <path d="M 409.189933 52.957921 
Q 378.23123 50.427599 347.272527 47.897276 
" style="fill:none;opacity:0.5;stroke:#800080;stroke-linecap:round;stroke-width:2;"/>
    <path d="M 407.817109 51.340715 
L 409.189933 52.957921 
L 407.572727 54.330745 
" style="fill:none;opacity:0.5;stroke:#800080;stroke-linecap:round;stroke-width:2;"/>
    <path d="M 348.645351 49.514482 
L 347.272527 47.897276 
L 348.889732 46.524452 
" style="fill:none;opacity:0.5;stroke:#800080;stroke-linecap:round;stroke-width:2;"/>
   </g>
   <g id="patch_47">
    <path d="M 352.481502 90.470783 
Q 314.274335 149.294185 276.067167 208.117588 
" style="fill:none;opacity:0.5;stroke:#008000;stroke-linecap:round;stroke-width:2;"/>
   </g>
   <g id="patch_48">
    <path d="M 374.822503 98.189692 
Q 353.428089 90.797833 332.033675 83.405973 
" style="fill:none;opacity:0.5;stroke:#800080;stroke-linecap:round;stroke-width:2;"/>
    <path d="M 373.894582 96.282086 
L 374.822503 98.189692 
L 372.914896 99.117613 
" style="fill:none;opacity:0.5;stroke:#800080;stroke-linecap:round;stroke-width:2;"/>
    <path d="M 332.961595 85.31358 
L 332.033675 83.405973 
L 333.941282 82.478053 
" style="fill:none;opacity:0.5;stroke:#800080;stroke-linecap:round;stroke-width:2;"/>
   </g>
   <g id="patch_49">
    <path d="M 276.067167 208.117588 
Q 238.398129 208.117588 200.729091 208.117588 
" style="fill:none;opacity:0.5;stroke:#008000;stroke-linecap:round;stroke-width:2;"/>
   </g>
   <g id="patch_50">
    <path d="M 284.339278 208.117588 
Q 277.067488 208.117588 269.795699 208.117588 
" style="fill:none;opacity:0.5;stroke:#800080;stroke-linecap:round;stroke-width:2;"/>
    <path d="M 282.839278 206.617588 
L 284.339278 208.117588 
L 282.839278 209.617588 
" style="fill:none;opacity:0.5;stroke:#800080;stroke-linecap:round;stroke-width:2;"/>
    <path d="M 271.295699 209.617588 
L 269.795699 208.117588 
L 271.295699 206.617588 
" style="fill:none;opacity:0.5;stroke:#800080;stroke-linecap:round;stroke-width:2;"/>
   </g>
   <g id="patch_51">
    <path d="M 200.729091 208.117588 
Q 162.521924 149.294185 124.314756 90.470783 
" style="fill:none;opacity:0.5;stroke:#008000;stroke-linecap:round;stroke-width:2;"/>
   </g>
   <g id="patch_52">
    <path d="M 192.45698 208.117588 
Q 199.72877 208.117588 207.000559 208.117588 
" style="fill:none;opacity:0.5;stroke:#800080;stroke-linecap:round;stroke-width:2;"/>
    <path d="M 193.95698 209.617588 
L 192.45698 208.117588 
L 193.95698 206.617588 
" style="fill:none;opacity:0.5;stroke:#800080;stroke-linecap:round;stroke-width:2;"/>
    <path d="M 205.500559 206.617588 
L 207.000559 208.117588 
L 205.500559 209.617588 
" style="fill:none;opacity:0.5;stroke:#800080;stroke-linecap:round;stroke-width:2;"/>
   </g>
   <g id="patch_53">
    <path d="M 124.314756 90.470783 
Q 111.937787 70.408497 99.560817 50.346211 
" style="fill:none;opacity:0.5;stroke:#008000;stroke-linecap:round;stroke-width:2;"/>
   </g>
   <g id="patch_54">
    <path d="M 101.973755 98.189692 
Q 123.368169 90.797833 144.762583 83.405973 
" style="fill:none;opacity:0.5;stroke:#800080;stroke-linecap:round;stroke-width:2;"/>
    <path d="M 103.881362 99.117613 
L 101.973755 98.189692 
L 102.901676 96.282086 
" style="fill:none;opacity:0.5;stroke:#800080;stroke-linecap:round;stroke-width:2;"/>
    <path d="M 142.854976 82.478053 
L 144.762583 83.405973 
L 143.834663 85.31358 
" style="fill:none;opacity:0.5;stroke:#800080;stroke-linecap:round;stroke-width:2;"/>
   </g>
   <g id="patch_55">
    <path d="M 99.560817 50.346211 
Q 168.979473 43.334149 238.398129 36.322088 
" style="fill:none;opacity:0.5;stroke:#008000;stroke-linecap:round;stroke-width:2;"/>
   </g>
   <g id="patch_56">
    <path d="M 67.606325 52.957921 
Q 98.565028 50.427599 129.523732 47.897276 
" style="fill:none;opacity:0.5;stroke:#800080;stroke-linecap:round;stroke-width:2;"/>
    <path d="M 69.223531 54.330745 
L 67.606325 52.957921 
L 68.979149 51.340715 
" style="fill:none;opacity:0.5;stroke:#800080;stroke-linecap:round;stroke-width:2;"/>
    <path d="M 127.906526 46.524452 
L 129.523732 47.897276 
L 128.150908 49.514482 
" style="fill:none;opacity:0.5;stroke:#800080;stroke-linecap:round;stroke-width:2;"/>
   </g>
   <g id="patch_57">
    <path clip-path="url(#p3c5619b5aa)" d="M 238.398129 294.210117 
C 239.539837 294.210117 240.634938 294.128024 241.442247 293.981919 
C 242.249557 293.835813 242.703162 293.637624 242.703162 293.430999 
C 242.703162 293.224375 242.249557 293.026185 241.442247 292.88008 
C 240.634938 292.733974 239.539837 292.651881 238.398129 292.651881 
C 237.256421 292.651881 236.161321 292.733974 235.354011 292.88008 
C 234.546702 293.026185 234.093096 293.224375 234.093096 293.430999 
C 234.093096 293.637624 234.546702 293.835813 235.354011 293.981919 
C 236.161321 294.128024 237.256421 294.210117 238.398129 294.210117 
z
" style="fill:#ff0000;opacity:0.2;stroke:#ff0000;stroke-linejoin:miter;stroke-width:2;"/>
   </g>
   <g id="patch_58">
    <path clip-path="url(#p3c5619b5aa)" d="M 64.044295 262.655842 
C 65.186003 262.655842 66.281104 262.573749 67.088413 262.427643 
C 67.895723 262.281538 68.349328 262.083348 68.349328 261.876724 
C 68.349328 261.670099 67.895723 261.47191 67.088413 261.325804 
C 66.281104 261.179699 65.186003 261.097606 64.044295 261.097606 
C 62.902587 261.097606 61.807487 261.179699 61.000177 261.325804 
C 60.192868 261.47191 59.739262 261.670099 59.739262 261.876724 
C 59.739262 262.083348 60.192868 262.281538 61.000177 262.427643 
C 61.807487 262.573749 62.902587 262.655842 64.044295 262.655842 
z
" style="fill:#ff0000;opacity:0.2;stroke:#ff0000;stroke-linejoin:miter;stroke-width:2;"/>
   </g>
   <g id="patch_59">
    <path clip-path="url(#p3c5619b5aa)" d="M 238.398129 230.322448 
C 239.539837 230.322448 240.634938 230.240355 241.442247 230.09425 
C 242.249557 229.948144 242.703162 229.749955 242.703162 229.54333 
C 242.703162 229.336706 242.249557 229.138516 241.442247 228.992411 
C 240.634938 228.846305 239.539837 228.764212 238.398129 228.764212 
C 237.256421 228.764212 236.161321 228.846305 235.354011 228.992411 
C 234.546702 229.138516 234.093096 229.336706 234.093096 229.54333 
C 234.093096 229.749955 234.546702 229.948144 235.354011 230.09425 
C 236.161321 230.240355 237.256421 230.322448 238.398129 230.322448 
z
" style="fill:#ff0000;opacity:0.2;stroke:#ff0000;stroke-linejoin:miter;stroke-width:2;"/>
   </g>
   <g id="patch_60">
    <path clip-path="url(#p3c5619b5aa)" d="M 412.751963 262.655842 
C 413.893671 262.655842 414.988772 262.573749 415.796081 262.427643 
C 416.603391 262.281538 417.056996 262.083348 417.056996 261.876724 
C 417.056996 261.670099 416.603391 261.47191 415.796081 261.325804 
C 414.988772 261.179699 413.893671 261.097606 412.751963 261.097606 
C 411.610255 261.097606 410.515155 261.179699 409.707845 261.325804 
C 408.900536 261.47191 408.44693 261.670099 408.44693 261.876724 
C 408.44693 262.083348 408.900536 262.281538 409.707845 262.427643 
C 410.515155 262.573749 411.610255 262.655842 412.751963 262.655842 
z
" style="fill:#ff0000;opacity:0.2;stroke:#ff0000;stroke-linejoin:miter;stroke-width:2;"/>
   </g>
   <g id="patch_61">
    <path clip-path="url(#p3c5619b5aa)" d="M 238.398129 303.949091 
C 239.539837 303.949091 240.634938 303.866998 241.442247 303.720893 
C 242.249557 303.574787 242.703162 303.376597 242.703162 303.169973 
C 242.703162 302.963349 242.249557 302.765159 241.442247 302.619053 
C 240.634938 302.472948 239.539837 302.390855 238.398129 302.390855 
C 237.256421 302.390855 236.161321 302.472948 235.354011 302.619053 
C 234.546702 302.765159 234.093096 302.963349 234.093096 303.169973 
C 234.093096 303.376597 234.546702 303.574787 235.354011 303.720893 
C 236.161321 303.866998 237.256421 303.949091 238.398129 303.949091 
z
" style="fill:#0000ff;opacity:0.2;stroke:#0000ff;stroke-linejoin:miter;stroke-width:2;"/>
   </g>
   <g id="patch_62">
    <path clip-path="url(#p3c5619b5aa)" d="M 117.857207 282.523348 
C 118.998915 282.523348 120.094015 282.441256 120.901325 282.29515 
C 121.708634 282.149044 122.16224 281.950855 122.16224 281.74423 
C 122.16224 281.537606 121.708634 281.339416 120.901325 281.193311 
C 120.094015 281.047205 118.998915 280.965113 117.857207 280.965113 
C 116.715499 280.965113 115.620398 281.047205 114.813089 281.193311 
C 114.005779 281.339416 113.552174 281.537606 113.552174 281.74423 
C 113.552174 281.950855 114.005779 282.149044 114.813089 282.29515 
C 115.620398 282.441256 116.715499 282.523348 117.857207 282.523348 
z
" style="fill:#0000ff;opacity:0.2;stroke:#0000ff;stroke-linejoin:miter;stroke-width:2;"/>
   </g>
   <g id="patch_63">
    <path clip-path="url(#p3c5619b5aa)" d="M 238.398129 259.53937 
C 239.539837 259.53937 240.634938 259.457277 241.442247 259.311172 
C 242.249557 259.165066 242.703162 258.966877 242.703162 258.760252 
C 242.703162 258.553628 242.249557 258.355438 241.442247 258.209332 
C 240.634938 258.063227 239.539837 257.981134 238.398129 257.981134 
C 237.256421 257.981134 236.161321 258.063227 235.354011 258.209332 
C 234.546702 258.355438 234.093096 258.553628 234.093096 258.760252 
C 234.093096 258.966877 234.546702 259.165066 235.354011 259.311172 
C 236.161321 259.457277 237.256421 259.53937 238.398129 259.53937 
z
" style="fill:#0000ff;opacity:0.2;stroke:#0000ff;stroke-linejoin:miter;stroke-width:2;"/>
   </g>
   <g id="patch_64">
    <path clip-path="url(#p3c5619b5aa)" d="M 358.939051 282.523348 
C 360.080759 282.523348 361.17586 282.441256 361.983169 282.29515 
C 362.790479 282.149044 363.244084 281.950855 363.244084 281.74423 
C 363.244084 281.537606 362.790479 281.339416 361.983169 281.193311 
C 361.17586 281.047205 360.080759 280.965113 358.939051 280.965113 
C 357.797343 280.965113 356.702243 281.047205 355.894933 281.193311 
C 355.087624 281.339416 354.634018 281.537606 354.634018 281.74423 
C 354.634018 281.950855 355.087624 282.149044 355.894933 282.29515 
C 356.702243 282.441256 357.797343 282.523348 358.939051 282.523348 
z
" style="fill:#0000ff;opacity:0.2;stroke:#0000ff;stroke-linejoin:miter;stroke-width:2;"/>
   </g>
   <g id="patch_65">
    <path clip-path="url(#p3c5619b5aa)" d="M 238.398129 293.430999 
C 152.29747 293.430999 64.044295 280.965113 64.044295 261.876724 
C 64.044295 243.567453 141.534888 229.54333 238.398129 229.54333 
C 341.71892 229.54333 412.751963 245.125689 412.751963 261.876724 
C 412.751963 279.796436 341.71892 293.430999 238.398129 293.430999 
" style="fill:none;stroke:#ff0000;stroke-linejoin:miter;stroke-width:0.5;"/>
   </g>
   <g id="patch_66">
    <path clip-path="url(#p3c5619b5aa)" d="M 238.398129 303.169973 
C 175.975152 303.169973 117.857207 294.989235 117.857207 281.74423 
C 117.857207 268.499226 169.517602 258.760252 238.398129 258.760252 
C 311.583689 258.760252 358.939051 269.278344 358.939051 281.74423 
C 358.939051 294.210117 311.583689 303.169973 238.398129 303.169973 
" style="fill:none;stroke:#0000ff;stroke-linejoin:miter;stroke-width:0.5;"/>
   </g>
   <g id="[&quot;g_s&quot;:1,&quot;g_t&quot;:1,&quot;coords&quot;:[[177.0, -714.0],[177.0, -739.0]],&quot;certainty&quot;:10]">
    <path clip-path="url(#p3c5619b5aa)" d="M 238.398129 295.573573 
C 241.537826 295.573573 244.549352 295.347818 246.769454 294.946028 
C 248.989555 294.544238 250.23697 293.999216 250.23697 293.430999 
C 250.23697 292.862782 248.989555 292.317761 246.769454 291.91597 
C 244.549352 291.51418 241.537826 291.288425 238.398129 291.288425 
C 235.258432 291.288425 232.246906 291.51418 230.026805 291.91597 
C 227.806703 292.317761 226.559289 292.862782 226.559289 293.430999 
C 226.559289 293.999216 227.806703 294.544238 230.026805 294.946028 
C 232.246906 295.347818 235.258432 295.573573 238.398129 295.573573 
z
" style="fill:#0000ff;opacity:0.2;stroke:#0000ff;stroke-linejoin:miter;stroke-width:2;"/>
   </g>
   <g id="[&quot;g_s&quot;:1,&quot;g_t&quot;:1,&quot;coords&quot;:[[177.0, -739.0],[177.0, -714.0]],&quot;certainty&quot;:10]">
    <path clip-path="url(#p3c5619b5aa)" d="M 238.398129 305.312547 
C 241.537826 305.312547 244.549352 305.086792 246.769454 304.685002 
C 248.989555 304.283211 250.23697 303.73819 250.23697 303.169973 
C 250.23697 302.601756 248.989555 302.056735 246.769454 301.654944 
C 244.549352 301.253154 241.537826 301.027399 238.398129 301.027399 
C 235.258432 301.027399 232.246906 301.253154 230.026805 301.654944 
C 227.806703 302.056735 226.559289 302.601756 226.559289 303.169973 
C 226.559289 303.73819 227.806703 304.283211 230.026805 304.685002 
C 232.246906 305.086792 235.258432 305.312547 238.398129 305.312547 
z
" style="fill:#ff0000;opacity:0.2;stroke:#ff0000;stroke-linejoin:miter;stroke-width:2;"/>
   </g>
   <g id="patch_67">
    <path d="M 238.398129 293.430999 
Q 238.398129 297.299483 238.398129 299.223423 
" style="fill:none;opacity:0.5;stroke:#0000ff;stroke-linecap:round;stroke-width:2.75;"/>
    <path d="M 239.898129 297.723423 
L 238.398129 299.223423 
L 236.898129 297.723423 
" style="fill:none;opacity:0.5;stroke:#0000ff;stroke-linecap:round;stroke-width:2.75;"/>
   </g>
   <g id="[&quot;g_s&quot;:2,&quot;g_t&quot;:2,&quot;coords&quot;:[[96.0, -633.0],[121.0, -684.0]],&quot;certainty&quot;:12]">
    <path clip-path="url(#p3c5619b5aa)" d="M 64.044295 264.408857 
C 67.754846 264.408857 71.313923 264.142055 73.937679 263.667212 
C 76.561435 263.192369 78.035652 262.548253 78.035652 261.876724 
C 78.035652 261.205194 76.561435 260.561078 73.937679 260.086235 
C 71.313923 259.611392 67.754846 259.34459 64.044295 259.34459 
C 60.333744 259.34459 56.774668 259.611392 54.150912 260.086235 
C 51.527156 260.561078 50.052938 261.205194 50.052938 261.876724 
C 50.052938 262.548253 51.527156 263.192369 54.150912 263.667212 
C 56.774668 264.142055 60.333744 264.408857 64.044295 264.408857 
z
" style="fill:#0000ff;opacity:0.2;stroke:#0000ff;stroke-linejoin:miter;stroke-width:2;"/>
   </g>
   <g id="[&quot;g_s&quot;:2,&quot;g_t&quot;:2,&quot;coords&quot;:[[121.0, -684.0],[96.0, -633.0]],&quot;certainty&quot;:12]">
    <path clip-path="url(#p3c5619b5aa)" d="M 117.857207 284.276364 
C 121.567758 284.276364 125.126834 284.009562 127.75059 283.534719 
C 130.374346 283.059876 131.848564 282.41576 131.848564 281.74423 
C 131.848564 281.072701 130.374346 280.428585 127.75059 279.953742 
C 125.126834 279.478899 121.567758 279.212097 117.857207 279.212097 
C 114.146656 279.212097 110.587579 279.478899 107.963823 279.953742 
C 105.340067 280.428585 103.86585 281.072701 103.86585 281.74423 
C 103.86585 282.41576 105.340067 283.059876 107.963823 283.534719 
C 110.587579 284.009562 114.146656 284.276364 117.857207 284.276364 
z
" style="fill:#ff0000;opacity:0.2;stroke:#ff0000;stroke-linejoin:miter;stroke-width:2;"/>
   </g>
   <g id="patch_68">
    <path d="M 64.044295 261.876724 
Q 90.013032 271.464275 113.825908 280.255891 
" style="fill:none;opacity:0.5;stroke:#0000ff;stroke-linecap:round;stroke-width:3.25;"/>
    <path d="M 112.938265 278.329213 
L 113.825908 280.255891 
L 111.899229 281.143534 
" style="fill:none;opacity:0.5;stroke:#0000ff;stroke-linecap:round;stroke-width:3.25;"/>
   </g>
   <g id="[&quot;g_s&quot;:3,&quot;g_t&quot;:3,&quot;coords&quot;:[[177.0, -550.0],[177.0, -625.0]],&quot;certainty&quot;:11]">
    <path clip-path="url(#p3c5619b5aa)" d="M 238.398129 231.880684 
C 241.823253 231.880684 245.108554 231.634406 247.530483 231.196089 
C 249.952412 230.757772 251.313228 230.163204 251.313228 229.54333 
C 251.313228 228.923457 249.952412 228.328888 247.530483 227.890572 
C 245.108554 227.452255 241.823253 227.205977 238.398129 227.205977 
C 234.973005 227.205977 231.687704 227.452255 229.265775 227.890572 
C 226.843847 228.328888 225.48303 228.923457 225.48303 229.54333 
C 225.48303 230.163204 226.843847 230.757772 229.265775 231.196089 
C 231.687704 231.634406 234.973005 231.880684 238.398129 231.880684 
z
" style="fill:#0000ff;opacity:0.2;stroke:#0000ff;stroke-linejoin:miter;stroke-width:2;"/>
   </g>
   <g id="[&quot;g_s&quot;:3,&quot;g_t&quot;:3,&quot;coords&quot;:[[177.0, -625.0],[177.0, -550.0]],&quot;certainty&quot;:11]">
    <path clip-path="url(#p3c5619b5aa)" d="M 238.398129 261.097606 
C 241.823253 261.097606 245.108554 260.851327 247.530483 260.413011 
C 249.952412 259.974694 251.313228 259.380125 251.313228 258.760252 
C 251.313228 258.140379 249.952412 257.54581 247.530483 257.107493 
C 245.108554 256.669177 241.823253 256.422898 238.398129 256.422898 
C 234.973005 256.422898 231.687704 256.669177 229.265775 257.107493 
C 226.843847 257.54581 225.48303 258.140379 225.48303 258.760252 
C 225.48303 259.380125 226.843847 259.974694 229.265775 260.413011 
C 231.687704 260.851327 234.973005 261.097606 238.398129 261.097606 
z
" style="fill:#ff0000;opacity:0.2;stroke:#ff0000;stroke-linejoin:miter;stroke-width:2;"/>
   </g>
   <g id="patch_69">
    <path d="M 238.398129 229.54333 
Q 238.398129 243.151383 238.398129 254.638115 
" style="fill:none;opacity:0.5;stroke:#0000ff;stroke-linecap:round;stroke-width:3;"/>
    <path d="M 239.898129 253.138115 
L 238.398129 254.638115 
L 236.898129 253.138115 
" style="fill:none;opacity:0.5;stroke:#0000ff;stroke-linecap:round;stroke-width:3;"/>
   </g>
   <g id="[&quot;g_s&quot;:4,&quot;g_t&quot;:4,&quot;coords&quot;:[[258.0, -633.0],[233.0, -684.0]],&quot;certainty&quot;:11]">
    <path clip-path="url(#p3c5619b5aa)" d="M 412.751963 264.214077 
C 416.177087 264.214077 419.462388 263.967799 421.884317 263.529482 
C 424.306246 263.091166 425.667062 262.496597 425.667062 261.876724 
C 425.667062 261.25685 424.306246 260.662282 421.884317 260.223965 
C 419.462388 259.785648 416.177087 259.53937 412.751963 259.53937 
C 409.326839 259.53937 406.041538 259.785648 403.619609 260.223965 
C 401.197681 260.662282 399.836864 261.25685 399.836864 261.876724 
C 399.836864 262.496597 401.197681 263.091166 403.619609 263.529482 
C 406.041538 263.967799 409.326839 264.214077 412.751963 264.214077 
z
" style="fill:#0000ff;opacity:0.2;stroke:#0000ff;stroke-linejoin:miter;stroke-width:2;"/>
   </g>
   <g id="[&quot;g_s&quot;:4,&quot;g_t&quot;:4,&quot;coords&quot;:[[233.0, -684.0],[258.0, -633.0]],&quot;certainty&quot;:11]">
    <path clip-path="url(#p3c5619b5aa)" d="M 358.939051 284.081584 
C 362.364176 284.081584 365.649477 283.835306 368.071405 283.396989 
C 370.493334 282.958672 371.85415 282.364104 371.85415 281.74423 
C 371.85415 281.124357 370.493334 280.529788 368.071405 280.091472 
C 365.649477 279.653155 362.364176 279.406877 358.939051 279.406877 
C 355.513927 279.406877 352.228626 279.653155 349.806697 280.091472 
C 347.384769 280.529788 346.023953 281.124357 346.023953 281.74423 
C 346.023953 282.364104 347.384769 282.958672 349.806697 283.396989 
C 352.228626 283.835306 355.513927 284.081584 358.939051 284.081584 
z
" style="fill:#ff0000;opacity:0.2;stroke:#ff0000;stroke-linejoin:miter;stroke-width:2;"/>
   </g>
   <g id="patch_70">
    <path d="M 412.751963 261.876724 
Q 386.783226 271.464275 362.804515 280.317117 
" style="fill:none;opacity:0.5;stroke:#0000ff;stroke-linecap:round;stroke-width:3;"/>
    <path d="M 364.731193 281.20476 
L 362.804515 280.317117 
L 363.692158 278.390439 
" style="fill:none;opacity:0.5;stroke:#0000ff;stroke-linecap:round;stroke-width:3;"/>
   </g>
   <g id="[&quot;g_s&quot;:1,&quot;g_t&quot;:1,&quot;coords&quot;:[[177.0, -739.0],[177.0, -714.0]],&quot;certainty&quot;:10]">
    <path clip-path="url(#p3c5619b5aa)" d="M 238.398129 305.312547 
C 241.537826 305.312547 244.549352 305.086792 246.769454 304.685002 
C 248.989555 304.283211 250.23697 303.73819 250.23697 303.169973 
C 250.23697 302.601756 248.989555 302.056735 246.769454 301.654944 
C 244.549352 301.253154 241.537826 301.027399 238.398129 301.027399 
C 235.258432 301.027399 232.246906 301.253154 230.026805 301.654944 
C 227.806703 302.056735 226.559289 302.601756 226.559289 303.169973 
C 226.559289 303.73819 227.806703 304.283211 230.026805 304.685002 
C 232.246906 305.086792 235.258432 305.312547 238.398129 305.312547 
z
" style="fill:#0000ff;opacity:0.2;stroke:#0000ff;stroke-linejoin:miter;stroke-width:2;"/>
   </g>
   <g id="[&quot;g_s&quot;:1,&quot;g_t&quot;:1,&quot;coords&quot;:[[177.0, -714.0],[177.0, -739.0]],&quot;certainty&quot;:10]">
    <path clip-path="url(#p3c5619b5aa)" d="M 238.398129 295.573573 
C 241.537826 295.573573 244.549352 295.347818 246.769454 294.946028 
C 248.989555 294.544238 250.23697 293.999216 250.23697 293.430999 
C 250.23697 292.862782 248.989555 292.317761 246.769454 291.91597 
C 244.549352 291.51418 241.537826 291.288425 238.398129 291.288425 
C 235.258432 291.288425 232.246906 291.51418 230.026805 291.91597 
C 227.806703 292.317761 226.559289 292.862782 226.559289 293.430999 
C 226.559289 293.999216 227.806703 294.544238 230.026805 294.946028 
C 232.246906 295.347818 235.258432 295.573573 238.398129 295.573573 
z
" style="fill:#ff0000;opacity:0.2;stroke:#ff0000;stroke-linejoin:miter;stroke-width:2;"/>
   </g>
   <g id="patch_71">
    <path d="M 238.398129 303.169973 
Q 238.398129 299.301489 238.398129 297.377549 
" style="fill:none;opacity:0.5;stroke:#ff0000;stroke-linecap:round;stroke-width:2.75;"/>
    <path d="M 236.898129 298.877549 
L 238.398129 297.377549 
L 239.898129 298.877549 
" style="fill:none;opacity:0.5;stroke:#ff0000;stroke-linecap:round;stroke-width:2.75;"/>
   </g>
   <g id="[&quot;g_s&quot;:2,&quot;g_t&quot;:2,&quot;coords&quot;:[[121.0, -684.0],[96.0, -633.0]],&quot;certainty&quot;:12]">
    <path clip-path="url(#p3c5619b5aa)" d="M 117.857207 284.276364 
C 121.567758 284.276364 125.126834 284.009562 127.75059 283.534719 
C 130.374346 283.059876 131.848564 282.41576 131.848564 281.74423 
C 131.848564 281.072701 130.374346 280.428585 127.75059 279.953742 
C 125.126834 279.478899 121.567758 279.212097 117.857207 279.212097 
C 114.146656 279.212097 110.587579 279.478899 107.963823 279.953742 
C 105.340067 280.428585 103.86585 281.072701 103.86585 281.74423 
C 103.86585 282.41576 105.340067 283.059876 107.963823 283.534719 
C 110.587579 284.009562 114.146656 284.276364 117.857207 284.276364 
z
" style="fill:#0000ff;opacity:0.2;stroke:#0000ff;stroke-linejoin:miter;stroke-width:2;"/>
   </g>
   <g id="[&quot;g_s&quot;:2,&quot;g_t&quot;:2,&quot;coords&quot;:[[96.0, -633.0],[121.0, -684.0]],&quot;certainty&quot;:12]">
    <path clip-path="url(#p3c5619b5aa)" d="M 64.044295 264.408857 
C 67.754846 264.408857 71.313923 264.142055 73.937679 263.667212 
C 76.561435 263.192369 78.035652 262.548253 78.035652 261.876724 
C 78.035652 261.205194 76.561435 260.561078 73.937679 260.086235 
C 71.313923 259.611392 67.754846 259.34459 64.044295 259.34459 
C 60.333744 259.34459 56.774668 259.611392 54.150912 260.086235 
C 51.527156 260.561078 50.052938 261.205194 50.052938 261.876724 
C 50.052938 262.548253 51.527156 263.192369 54.150912 263.667212 
C 56.774668 264.142055 60.333744 264.408857 64.044295 264.408857 
z
" style="fill:#ff0000;opacity:0.2;stroke:#ff0000;stroke-linejoin:miter;stroke-width:2;"/>
   </g>
   <g id="patch_72">
    <path d="M 117.857207 281.74423 
Q 91.88847 272.156679 68.075594 263.365063 
" style="fill:none;opacity:0.5;stroke:#ff0000;stroke-linecap:round;stroke-width:3.25;"/>
    <path d="M 68.963237 265.291741 
L 68.075594 263.365063 
L 70.002273 262.47742 
" style="fill:none;opacity:0.5;stroke:#ff0000;stroke-linecap:round;stroke-width:3.25;"/>
   </g>
   <g id="[&quot;g_s&quot;:3,&quot;g_t&quot;:3,&quot;coords&quot;:[[177.0, -625.0],[177.0, -550.0]],&quot;certainty&quot;:11]">
    <path clip-path="url(#p3c5619b5aa)" d="M 238.398129 261.097606 
C 241.823253 261.097606 245.108554 260.851327 247.530483 260.413011 
C 249.952412 259.974694 251.313228 259.380125 251.313228 258.760252 
C 251.313228 258.140379 249.952412 257.54581 247.530483 257.107493 
C 245.108554 256.669177 241.823253 256.422898 238.398129 256.422898 
C 234.973005 256.422898 231.687704 256.669177 229.265775 257.107493 
C 226.843847 257.54581 225.48303 258.140379 225.48303 258.760252 
C 225.48303 259.380125 226.843847 259.974694 229.265775 260.413011 
C 231.687704 260.851327 234.973005 261.097606 238.398129 261.097606 
z
" style="fill:#0000ff;opacity:0.2;stroke:#0000ff;stroke-linejoin:miter;stroke-width:2;"/>
   </g>
   <g id="[&quot;g_s&quot;:3,&quot;g_t&quot;:3,&quot;coords&quot;:[[177.0, -550.0],[177.0, -625.0]],&quot;certainty&quot;:11]">
    <path clip-path="url(#p3c5619b5aa)" d="M 238.398129 231.880684 
C 241.823253 231.880684 245.108554 231.634406 247.530483 231.196089 
C 249.952412 230.757772 251.313228 230.163204 251.313228 229.54333 
C 251.313228 228.923457 249.952412 228.328888 247.530483 227.890572 
C 245.108554 227.452255 241.823253 227.205977 238.398129 227.205977 
C 234.973005 227.205977 231.687704 227.452255 229.265775 227.890572 
C 226.843847 228.328888 225.48303 228.923457 225.48303 229.54333 
C 225.48303 230.163204 226.843847 230.757772 229.265775 231.196089 
C 231.687704 231.634406 234.973005 231.880684 238.398129 231.880684 
z
" style="fill:#ff0000;opacity:0.2;stroke:#ff0000;stroke-linejoin:miter;stroke-width:2;"/>
   </g>
   <g id="patch_73">
    <path d="M 238.398129 258.760252 
Q 238.398129 245.1522 238.398129 233.665468 
" style="fill:none;opacity:0.5;stroke:#ff0000;stroke-linecap:round;stroke-width:3;"/>
    <path d="M 236.898129 235.165468 
L 238.398129 233.665468 
L 239.898129 235.165468 
" style="fill:none;opacity:0.5;stroke:#ff0000;stroke-linecap:round;stroke-width:3;"/>
   </g>
   <g id="[&quot;g_s&quot;:4,&quot;g_t&quot;:4,&quot;coords&quot;:[[233.0, -684.0],[258.0, -633.0]],&quot;certainty&quot;:11]">
    <path clip-path="url(#p3c5619b5aa)" d="M 358.939051 284.081584 
C 362.364176 284.081584 365.649477 283.835306 368.071405 283.396989 
C 370.493334 282.958672 371.85415 282.364104 371.85415 281.74423 
C 371.85415 281.124357 370.493334 280.529788 368.071405 280.091472 
C 365.649477 279.653155 362.364176 279.406877 358.939051 279.406877 
C 355.513927 279.406877 352.228626 279.653155 349.806697 280.091472 
C 347.384769 280.529788 346.023953 281.124357 346.023953 281.74423 
C 346.023953 282.364104 347.384769 282.958672 349.806697 283.396989 
C 352.228626 283.835306 355.513927 284.081584 358.939051 284.081584 
z
" style="fill:#0000ff;opacity:0.2;stroke:#0000ff;stroke-linejoin:miter;stroke-width:2;"/>
   </g>
   <g id="[&quot;g_s&quot;:4,&quot;g_t&quot;:4,&quot;coords&quot;:[[258.0, -633.0],[233.0, -684.0]],&quot;certainty&quot;:11]">
    <path clip-path="url(#p3c5619b5aa)" d="M 412.751963 264.214077 
C 416.177087 264.214077 419.462388 263.967799 421.884317 263.529482 
C 424.306246 263.091166 425.667062 262.496597 425.667062 261.876724 
C 425.667062 261.25685 424.306246 260.662282 421.884317 260.223965 
C 419.462388 259.785648 416.177087 259.53937 412.751963 259.53937 
C 409.326839 259.53937 406.041538 259.785648 403.619609 260.223965 
C 401.197681 260.662282 399.836864 261.25685 399.836864 261.876724 
C 399.836864 262.496597 401.197681 263.091166 403.619609 263.529482 
C 406.041538 263.967799 409.326839 264.214077 412.751963 264.214077 
z
" style="fill:#ff0000;opacity:0.2;stroke:#ff0000;stroke-linejoin:miter;stroke-width:2;"/>
   </g>
   <g id="patch_74">
    <path d="M 358.939051 281.74423 
Q 384.907788 272.156679 408.8865 263.303837 
" style="fill:none;opacity:0.5;stroke:#ff0000;stroke-linecap:round;stroke-width:3;"/>
    <path d="M 406.959821 262.416194 
L 408.8865 263.303837 
L 407.998857 265.230516 
" style="fill:none;opacity:0.5;stroke:#ff0000;stroke-linecap:round;stroke-width:3;"/>
   </g>
   <g id="patch_75">
    <path clip-path="url(#p3c5619b5aa)" d="M 238.398129 300.248281 
C 241.252399 300.248281 243.99015 300.043049 246.008424 299.677785 
C 248.026698 299.312521 249.160711 298.817047 249.160711 298.300486 
C 249.160711 297.783925 248.026698 297.288451 246.008424 296.923187 
C 243.99015 296.557923 241.252399 296.352691 238.398129 296.352691 
C 235.543859 296.352691 232.806108 296.557923 230.787834 296.923187 
C 228.76956 297.288451 227.635547 297.783925 227.635547 298.300486 
C 227.635547 298.817047 228.76956 299.312521 230.787834 299.677785 
C 232.806108 300.043049 235.543859 300.248281 238.398129 300.248281 
z
" style="fill:#008000;opacity:0.2;stroke:#008000;stroke-linejoin:miter;stroke-width:2;"/>
   </g>
   <g id="patch_76">
    <path clip-path="url(#p3c5619b5aa)" d="M 90.950751 273.758272 
C 93.805021 273.758272 96.542772 273.55304 98.561046 273.187776 
C 100.57932 272.822512 101.713333 272.327038 101.713333 271.810477 
C 101.713333 271.293916 100.57932 270.798442 98.561046 270.433178 
C 96.542772 270.067914 93.805021 269.862682 90.950751 269.862682 
C 88.096481 269.862682 85.35873 270.067914 83.340456 270.433178 
C 81.322182 270.798442 80.188169 271.293916 80.188169 271.810477 
C 80.188169 272.327038 81.322182 272.822512 83.340456 273.187776 
C 85.35873 273.55304 88.096481 273.758272 90.950751 273.758272 
z
" style="fill:#008000;opacity:0.2;stroke:#008000;stroke-linejoin:miter;stroke-width:2;"/>
   </g>
   <g id="patch_77">
    <path clip-path="url(#p3c5619b5aa)" d="M 238.398129 246.099586 
C 241.252399 246.099586 243.99015 245.894354 246.008424 245.52909 
C 248.026698 245.163826 249.160711 244.668352 249.160711 244.151791 
C 249.160711 243.63523 248.026698 243.139756 246.008424 242.774492 
C 243.99015 242.409228 241.252399 242.203996 238.398129 242.203996 
C 235.543859 242.203996 232.806108 242.409228 230.787834 242.774492 
C 228.76956 243.139756 227.635547 243.63523 227.635547 244.151791 
C 227.635547 244.668352 228.76956 245.163826 230.787834 245.52909 
C 232.806108 245.894354 235.543859 246.099586 238.398129 246.099586 
z
" style="fill:#008000;opacity:0.2;stroke:#008000;stroke-linejoin:miter;stroke-width:2;"/>
   </g>
   <g id="patch_78">
    <path clip-path="url(#p3c5619b5aa)" d="M 385.845507 273.758272 
C 388.699777 273.758272 391.437528 273.55304 393.455802 273.187776 
C 395.474076 272.822512 396.60809 272.327038 396.60809 271.810477 
C 396.60809 271.293916 395.474076 270.798442 393.455802 270.433178 
C 391.437528 270.067914 388.699777 269.862682 385.845507 269.862682 
C 382.991237 269.862682 380.253486 270.067914 378.235212 270.433178 
C 376.216938 270.798442 375.082925 271.293916 375.082925 271.810477 
C 375.082925 272.327038 376.216938 272.822512 378.235212 273.187776 
C 380.253486 273.55304 382.991237 273.758272 385.845507 273.758272 
z
" style="fill:#008000;opacity:0.2;stroke:#008000;stroke-linejoin:miter;stroke-width:2;"/>
   </g>
   <g id="patch_79">
    <path clip-path="url(#p3c5619b5aa)" d="M 238.398129 301.222178 
C 249.81521 301.222178 260.766214 300.40125 268.839309 298.940195 
C 276.912404 297.479139 281.448458 295.497244 281.448458 293.430999 
C 281.448458 291.364754 276.912404 289.382859 268.839309 287.921804 
C 260.766214 286.460748 249.81521 285.63982 238.398129 285.63982 
C 226.981048 285.63982 216.030045 286.460748 207.956949 287.921804 
C 199.883854 289.382859 195.3478 291.364754 195.3478 293.430999 
C 195.3478 295.497244 199.883854 297.479139 207.956949 298.940195 
C 216.030045 300.40125 226.981048 301.222178 238.398129 301.222178 
z
" style="fill:none;opacity:0.2;stroke:#ff0000;stroke-linejoin:miter;stroke-width:2;"/>
   </g>
   <g id="patch_80">
    <path clip-path="url(#p3c5619b5aa)" d="M 238.398129 310.961152 
C 249.81521 310.961152 260.766214 310.140224 268.839309 308.679169 
C 276.912404 307.218113 281.448458 305.236218 281.448458 303.169973 
C 281.448458 301.103728 276.912404 299.121833 268.839309 297.660777 
C 260.766214 296.199722 249.81521 295.378794 238.398129 295.378794 
C 226.981048 295.378794 216.030045 296.199722 207.956949 297.660777 
C 199.883854 299.121833 195.3478 301.103728 195.3478 303.169973 
C 195.3478 305.236218 199.883854 307.218113 207.956949 308.679169 
C 216.030045 310.140224 226.981048 310.961152 238.398129 310.961152 
z
" style="fill:none;opacity:0.2;stroke:#0000ff;stroke-linejoin:miter;stroke-width:2;"/>
   </g>
   <g id="patch_81">
    <path clip-path="url(#p3c5619b5aa)" d="M 238.398129 297.326589 
C 244.10667 297.326589 249.582171 296.916125 253.618719 296.185597 
C 257.655267 295.455069 259.923294 294.464122 259.923294 293.430999 
C 259.923294 292.397877 257.655267 291.406929 253.618719 290.676401 
C 249.582171 289.945873 244.10667 289.53541 238.398129 289.53541 
C 232.689589 289.53541 227.214087 289.945873 223.177539 290.676401 
C 219.140992 291.406929 216.872964 292.397877 216.872964 293.430999 
C 216.872964 294.464122 219.140992 295.455069 223.177539 296.185597 
C 227.214087 296.916125 232.689589 297.326589 238.398129 297.326589 
z
" style="fill:none;opacity:0.2;stroke:#008000;stroke-linejoin:miter;stroke-width:2;"/>
   </g>
   <g id="patch_82">
    <path clip-path="url(#p3c5619b5aa)" d="M 238.398129 307.065563 
C 244.10667 307.065563 249.582171 306.655099 253.618719 305.924571 
C 257.655267 305.194043 259.923294 304.203095 259.923294 303.169973 
C 259.923294 302.136851 257.655267 301.145903 253.618719 300.415375 
C 249.582171 299.684847 244.10667 299.274383 238.398129 299.274383 
C 232.689589 299.274383 227.214087 299.684847 223.177539 300.415375 
C 219.140992 301.145903 216.872964 302.136851 216.872964 303.169973 
C 216.872964 304.203095 219.140992 305.194043 223.177539 305.924571 
C 227.214087 306.655099 232.689589 307.065563 238.398129 307.065563 
z
" style="fill:none;opacity:0.2;stroke:#008000;stroke-linejoin:miter;stroke-width:2;"/>
   </g>
   <g id="patch_83">
    <path d="M 238.398129 298.300486 
Q 164.67444 285.055482 90.950751 271.810477 
" style="fill:none;opacity:0.5;stroke:#008000;stroke-linecap:round;stroke-width:2;"/>
   </g>
   <g id="patch_84">
    <path d="M 238.398129 294.845213 
Q 238.398129 297.299483 238.398129 299.753754 
" style="fill:none;opacity:0.5;stroke:#800080;stroke-linecap:round;stroke-width:2;"/>
    <path d="M 236.898129 296.345213 
L 238.398129 294.845213 
L 239.898129 296.345213 
" style="fill:none;opacity:0.5;stroke:#800080;stroke-linecap:round;stroke-width:2;"/>
    <path d="M 239.898129 298.253754 
L 238.398129 299.753754 
L 236.898129 298.253754 
" style="fill:none;opacity:0.5;stroke:#800080;stroke-linecap:round;stroke-width:2;"/>
   </g>
   <g id="patch_85">
    <path d="M 90.950751 271.810477 
Q 164.67444 257.981134 238.398129 244.151791 
" style="fill:none;opacity:0.5;stroke:#008000;stroke-linecap:round;stroke-width:2;"/>
   </g>
   <g id="patch_86">
    <path d="M 65.370979 262.36653 
Q 90.013032 271.464275 114.655085 280.56202 
" style="fill:none;opacity:0.5;stroke:#800080;stroke-linecap:round;stroke-width:2;"/>
    <path d="M 66.258622 264.293208 
L 65.370979 262.36653 
L 67.297658 261.478887 
" style="fill:none;opacity:0.5;stroke:#800080;stroke-linecap:round;stroke-width:2;"/>
    <path d="M 113.767443 278.635342 
L 114.655085 280.56202 
L 112.728407 281.449663 
" style="fill:none;opacity:0.5;stroke:#800080;stroke-linecap:round;stroke-width:2;"/>
   </g>
   <g id="patch_87">
    <path d="M 238.398129 244.151791 
Q 312.121818 257.981134 385.845507 271.810477 
" style="fill:none;opacity:0.5;stroke:#008000;stroke-linecap:round;stroke-width:2;"/>
   </g>
   <g id="patch_88">
    <path d="M 238.398129 230.957544 
Q 238.398129 243.151383 238.398129 255.345221 
" style="fill:none;opacity:0.5;stroke:#800080;stroke-linecap:round;stroke-width:2;"/>
    <path d="M 236.898129 232.457544 
L 238.398129 230.957544 
L 239.898129 232.457544 
" style="fill:none;opacity:0.5;stroke:#800080;stroke-linecap:round;stroke-width:2;"/>
    <path d="M 239.898129 253.845221 
L 238.398129 255.345221 
L 236.898129 253.845221 
" style="fill:none;opacity:0.5;stroke:#800080;stroke-linecap:round;stroke-width:2;"/>
   </g>
   <g id="patch_89">
    <path d="M 385.845507 271.810477 
Q 312.121818 285.055482 238.398129 298.300486 
" style="fill:none;opacity:0.5;stroke:#008000;stroke-linecap:round;stroke-width:2;"/>
   </g>
   <g id="patch_90">
    <path d="M 411.425279 262.36653 
Q 386.783226 271.464275 362.141173 280.56202 
" style="fill:none;opacity:0.5;stroke:#800080;stroke-linecap:round;stroke-width:2;"/>
    <path d="M 409.498601 261.478887 
L 411.425279 262.36653 
L 410.537637 264.293208 
" style="fill:none;opacity:0.5;stroke:#800080;stroke-linecap:round;stroke-width:2;"/>
    <path d="M 364.067852 281.449663 
L 362.141173 280.56202 
L 363.028816 278.635342 
" style="fill:none;opacity:0.5;stroke:#800080;stroke-linecap:round;stroke-width:2;"/>
   </g>
   <g id="line2d_1">
    <path clip-path="url(#p3c5619b5aa)" d="M 238.398129 36.322088 
L 410.599447 53.073123 
L 376.159183 98.651521 
L 285.753491 208.117588 
L 191.042767 208.117588 
L 100.637075 98.651521 
L 66.196812 53.073123 
" style="fill:none;stroke:#ff0000;stroke-linecap:square;stroke-width:0.2;"/>
   </g>
   <g id="line2d_2">
    <path clip-path="url(#p3c5619b5aa)" d="M 238.398129 36.322088 
L 343.871436 47.619298 
L 328.803821 82.290045 
L 266.380843 208.117588 
L 210.415415 208.117588 
L 147.992437 82.290045 
L 132.924822 47.619298 
" style="fill:none;stroke:#0000ff;stroke-linecap:square;stroke-width:0.2;"/>
   </g>
   <g id="line2d_3">
    <path clip-path="url(#p3c5619b5aa)" d="M 238.398129 293.430999 
L 64.044295 261.876724 
L 238.398129 229.54333 
L 412.751963 261.876724 
" style="fill:none;stroke:#ff0000;stroke-linecap:square;stroke-width:0.2;"/>
   </g>
   <g id="line2d_4">
    <path clip-path="url(#p3c5619b5aa)" d="M 238.398129 303.169973 
L 117.857207 281.74423 
L 238.398129 258.760252 
L 358.939051 281.74423 
" style="fill:none;stroke:#0000ff;stroke-linecap:square;stroke-width:0.2;"/>
   </g>
  </g>
 </g>
 <defs>
  <clipPath id="p3c5619b5aa">
   <rect height="302.96" width="408.44" x="33.64" y="14.76"/>
  </clipPath>
 </defs>
</svg>
