<?xml version="1.0" encoding="utf-8" standalone="no"?>
<!DOCTYPE svg PUBLIC "-//W3C//DTD SVG 1.1//EN"
  "http://www.w3.org/Graphics/SVG/1.1/DTD/svg11.dtd">
<!-- Created with matplotlib (http://matplotlib.org/) -->
<svg height="345.6pt" version="1.1" viewBox="0 0 460.8 345.6" width="460.8pt" xmlns="http://www.w3.org/2000/svg" xmlns:xlink="http://www.w3.org/1999/xlink">
 <defs>
  <style type="text/css">
*{stroke-linecap:butt;stroke-linejoin:round;}
  </style>
 </defs>
 <g id="figure_1">
  <g id="patch_1">
   <path d="M 0 345.6 
L 460.8 345.6 
L 460.8 0 
L 0 0 
z
" style="fill:#ffffff;"/>
  </g>
  <g id="axes_1">
   <g id="patch_2">
    <path clip-path="url(#p5eb3f4f814)" d="M 172.874797 57.912023 
C 173.696763 57.912023 174.485174 57.572475 175.066391 56.968161 
C 175.647608 56.363846 175.974179 55.544104 175.974179 54.689474 
C 175.974179 53.834844 175.647608 53.015103 175.066391 52.410788 
C 174.485174 51.806473 173.696763 51.466925 172.874797 51.466925 
C 172.052832 51.466925 171.264421 51.806473 170.683204 52.410788 
C 170.101986 53.015103 169.775416 53.834844 169.775416 54.689474 
C 169.775416 55.544104 170.101986 56.363846 170.683204 56.968161 
C 171.264421 57.572475 172.052832 57.912023 172.874797 57.912023 
z
" style="fill:#ff0000;opacity:0.2;stroke:#ff0000;stroke-linejoin:miter;stroke-width:2;"/>
   </g>
   <g id="patch_3">
    <path clip-path="url(#p5eb3f4f814)" d="M 423.9247 248.042422 
C 424.746666 248.042422 425.535077 247.702874 426.116294 247.098559 
C 426.697512 246.494244 427.024082 245.674503 427.024082 244.819873 
C 427.024082 243.965243 426.697512 243.145501 426.116294 242.541186 
C 425.535077 241.936872 424.746666 241.597323 423.9247 241.597323 
C 423.102735 241.597323 422.314324 241.936872 421.733107 242.541186 
C 421.151889 243.145501 420.825319 243.965243 420.825319 244.819873 
C 420.825319 245.674503 421.151889 246.494244 421.733107 247.098559 
C 422.314324 247.702874 423.102735 248.042422 423.9247 248.042422 
z
" style="fill:#ff0000;opacity:0.2;stroke:#ff0000;stroke-linejoin:miter;stroke-width:2;"/>
   </g>
   <g id="patch_4">
    <path clip-path="url(#p5eb3f4f814)" d="M 406.878102 296.380659 
C 407.700068 296.380659 408.488478 296.04111 409.069696 295.436796 
C 409.650913 294.832481 409.977484 294.012739 409.977484 293.158109 
C 409.977484 292.303479 409.650913 291.483738 409.069696 290.879423 
C 408.488478 290.275108 407.700068 289.93556 406.878102 289.93556 
C 406.056136 289.93556 405.267726 290.275108 404.686508 290.879423 
C 404.105291 291.483738 403.778721 292.303479 403.778721 293.158109 
C 403.778721 294.012739 404.105291 294.832481 404.686508 295.436796 
C 405.267726 296.04111 406.056136 296.380659 406.878102 296.380659 
z
" style="fill:#ff0000;opacity:0.2;stroke:#ff0000;stroke-linejoin:miter;stroke-width:2;"/>
   </g>
   <g id="patch_5">
    <path clip-path="url(#p5eb3f4f814)" d="M 103.138713 193.259087 
C 103.960679 193.259087 104.749089 192.919539 105.330307 192.315224 
C 105.911524 191.710909 106.238095 190.891168 106.238095 190.036537 
C 106.238095 189.181907 105.911524 188.362166 105.330307 187.757851 
C 104.749089 187.153536 103.960679 186.813988 103.138713 186.813988 
C 102.316748 186.813988 101.528337 187.153536 100.947119 187.757851 
C 100.365902 188.362166 100.039332 189.181907 100.039332 190.036537 
C 100.039332 190.891168 100.365902 191.710909 100.947119 192.315224 
C 101.528337 192.919539 102.316748 193.259087 103.138713 193.259087 
z
" style="fill:#ff0000;opacity:0.2;stroke:#ff0000;stroke-linejoin:miter;stroke-width:2;"/>
   </g>
   <g id="patch_6">
    <path clip-path="url(#p5eb3f4f814)" d="M 53.548609 152.977223 
C 54.370574 152.977223 55.158985 152.637674 55.740202 152.03336 
C 56.32142 151.429045 56.64799 150.609303 56.64799 149.754673 
C 56.64799 148.900043 56.32142 148.080302 55.740202 147.475987 
C 55.158985 146.871672 54.370574 146.532124 53.548609 146.532124 
C 52.726643 146.532124 51.938233 146.871672 51.357015 147.475987 
C 50.775798 148.080302 50.449227 148.900043 50.449227 149.754673 
C 50.449227 150.609303 50.775798 151.429045 51.357015 152.03336 
C 51.938233 152.637674 52.726643 152.977223 53.548609 152.977223 
z
" style="fill:#ff0000;opacity:0.2;stroke:#ff0000;stroke-linejoin:miter;stroke-width:2;"/>
   </g>
   <g id="patch_7">
    <path clip-path="url(#p5eb3f4f814)" d="M 69.045516 83.692416 
C 69.867482 83.692416 70.655893 83.352868 71.23711 82.748554 
C 71.818328 82.144239 72.144898 81.324497 72.144898 80.469867 
C 72.144898 79.615237 71.818328 78.795496 71.23711 78.191181 
C 70.655893 77.586866 69.867482 77.247318 69.045516 77.247318 
C 68.223551 77.247318 67.43514 77.586866 66.853923 78.191181 
C 66.272705 78.795496 65.946135 79.615237 65.946135 80.469867 
C 65.946135 81.324497 66.272705 82.144239 66.853923 82.748554 
C 67.43514 83.352868 68.223551 83.692416 69.045516 83.692416 
z
" style="fill:#ff0000;opacity:0.2;stroke:#ff0000;stroke-linejoin:miter;stroke-width:2;"/>
   </g>
   <g id="patch_8">
    <path clip-path="url(#p5eb3f4f814)" d="M 121.735002 33.742905 
C 122.556968 33.742905 123.345378 33.403357 123.926596 32.799042 
C 124.507813 32.194728 124.834384 31.374986 124.834384 30.520356 
C 124.834384 29.665726 124.507813 28.845984 123.926596 28.24167 
C 123.345378 27.637355 122.556968 27.297807 121.735002 27.297807 
C 120.913037 27.297807 120.124626 27.637355 119.543409 28.24167 
C 118.962191 28.845984 118.635621 29.665726 118.635621 30.520356 
C 118.635621 31.374986 118.962191 32.194728 119.543409 32.799042 
C 120.124626 33.403357 120.913037 33.742905 121.735002 33.742905 
z
" style="fill:#ff0000;opacity:0.2;stroke:#ff0000;stroke-linejoin:miter;stroke-width:2;"/>
   </g>
   <g id="patch_9">
    <path clip-path="url(#p5eb3f4f814)" d="M 378.983668 306.853943 
C 379.805634 306.853943 380.594045 306.514395 381.175262 305.91008 
C 381.75648 305.305766 382.08305 304.486024 382.08305 303.631394 
C 382.08305 302.776764 381.75648 301.957022 381.175262 301.352708 
C 380.594045 300.748393 379.805634 300.408845 378.983668 300.408845 
C 378.161703 300.408845 377.373292 300.748393 376.792075 301.352708 
C 376.210857 301.957022 375.884287 302.776764 375.884287 303.631394 
C 375.884287 304.486024 376.210857 305.305766 376.792075 305.91008 
C 377.373292 306.514395 378.161703 306.853943 378.983668 306.853943 
z
" style="fill:#0000ff;opacity:0.2;stroke:#0000ff;stroke-linejoin:miter;stroke-width:2;"/>
   </g>
   <g id="patch_10">
    <path clip-path="url(#p5eb3f4f814)" d="M 121.735002 192.453449 
C 122.556968 192.453449 123.345378 192.113901 123.926596 191.509587 
C 124.507813 190.905272 124.834384 190.08553 124.834384 189.2309 
C 124.834384 188.37627 124.507813 187.556529 123.926596 186.952214 
C 123.345378 186.347899 122.556968 186.008351 121.735002 186.008351 
C 120.913037 186.008351 120.124626 186.347899 119.543409 186.952214 
C 118.962191 187.556529 118.635621 188.37627 118.635621 189.2309 
C 118.635621 190.08553 118.962191 190.905272 119.543409 191.509587 
C 120.124626 192.113901 120.913037 192.453449 121.735002 192.453449 
z
" style="fill:#0000ff;opacity:0.2;stroke:#0000ff;stroke-linejoin:miter;stroke-width:2;"/>
   </g>
   <g id="patch_11">
    <path clip-path="url(#p5eb3f4f814)" d="M 82.992733 166.673056 
C 83.814699 166.673056 84.603109 166.333508 85.184327 165.729194 
C 85.765544 165.124879 86.092115 164.305137 86.092115 163.450507 
C 86.092115 162.595877 85.765544 161.776136 85.184327 161.171821 
C 84.603109 160.567506 83.814699 160.227958 82.992733 160.227958 
C 82.170768 160.227958 81.382357 160.567506 80.80114 161.171821 
C 80.219922 161.776136 79.893352 162.595877 79.893352 163.450507 
C 79.893352 164.305137 80.219922 165.124879 80.80114 165.729194 
C 81.382357 166.333508 82.170768 166.673056 82.992733 166.673056 
z
" style="fill:#0000ff;opacity:0.2;stroke:#0000ff;stroke-linejoin:miter;stroke-width:2;"/>
   </g>
   <g id="patch_12">
    <path clip-path="url(#p5eb3f4f814)" d="M 93.840569 100.610799 
C 94.662534 100.610799 95.450945 100.271251 96.032162 99.666937 
C 96.61338 99.062622 96.93995 98.24288 96.93995 97.38825 
C 96.93995 96.53362 96.61338 95.713879 96.032162 95.109564 
C 95.450945 94.505249 94.662534 94.165701 93.840569 94.165701 
C 93.018603 94.165701 92.230192 94.505249 91.648975 95.109564 
C 91.067757 95.713879 90.741187 96.53362 90.741187 97.38825 
C 90.741187 98.24288 91.067757 99.062622 91.648975 99.666937 
C 92.230192 100.271251 93.018603 100.610799 93.840569 100.610799 
z
" style="fill:#0000ff;opacity:0.2;stroke:#0000ff;stroke-linejoin:miter;stroke-width:2;"/>
   </g>
   <g id="patch_13">
    <path clip-path="url(#p5eb3f4f814)" d="M 135.682219 65.162759 
C 136.504185 65.162759 137.292595 64.823211 137.873813 64.218896 
C 138.45503 63.614582 138.781601 62.79484 138.781601 61.94021 
C 138.781601 61.08558 138.45503 60.265838 137.873813 59.661524 
C 137.292595 59.057209 136.504185 58.717661 135.682219 58.717661 
C 134.860253 58.717661 134.071843 59.057209 133.490625 59.661524 
C 132.909408 60.265838 132.582838 61.08558 132.582838 61.94021 
C 132.582838 62.79484 132.909408 63.614582 133.490625 64.218896 
C 134.071843 64.823211 134.860253 65.162759 135.682219 65.162759 
z
" style="fill:#0000ff;opacity:0.2;stroke:#0000ff;stroke-linejoin:miter;stroke-width:2;"/>
   </g>
   <g id="patch_14">
    <path clip-path="url(#p5eb3f4f814)" d="M 177.52387 86.109328 
C 178.345835 86.109328 179.134246 85.76978 179.715463 85.165466 
C 180.296681 84.561151 180.623251 83.741409 180.623251 82.886779 
C 180.623251 82.032149 180.296681 81.212408 179.715463 80.608093 
C 179.134246 80.003778 178.345835 79.66423 177.52387 79.66423 
C 176.701904 79.66423 175.913493 80.003778 175.332276 80.608093 
C 174.751058 81.212408 174.424488 82.032149 174.424488 82.886779 
C 174.424488 83.741409 174.751058 84.561151 175.332276 85.165466 
C 175.913493 85.76978 176.701904 86.109328 177.52387 86.109328 
z
" style="fill:#0000ff;opacity:0.2;stroke:#0000ff;stroke-linejoin:miter;stroke-width:2;"/>
   </g>
   <g id="patch_15">
    <path clip-path="url(#p5eb3f4f814)" d="M 394.480576 268.183354 
C 395.302542 268.183354 396.090952 267.843806 396.67217 267.239491 
C 397.253387 266.635176 397.579958 265.815435 397.579958 264.960805 
C 397.579958 264.106175 397.253387 263.286433 396.67217 262.682118 
C 396.090952 262.077804 395.302542 261.738255 394.480576 261.738255 
C 393.65861 261.738255 392.8702 262.077804 392.288982 262.682118 
C 391.707765 263.286433 391.381194 264.106175 391.381194 264.960805 
C 391.381194 265.815435 391.707765 266.635176 392.288982 267.239491 
C 392.8702 267.843806 393.65861 268.183354 394.480576 268.183354 
z
" style="fill:#0000ff;opacity:0.2;stroke:#0000ff;stroke-linejoin:miter;stroke-width:2;"/>
   </g>
   <g id="patch_16">
    <path clip-path="url(#p5eb3f4f814)" d="M 172.874797 54.689474 
L 423.9247 244.819873 
C 428.573773 257.710069 419.275628 281.879187 406.878102 293.158109 
L 103.138713 190.036537 
C 72.144898 180.36889 56.64799 162.64487 53.548609 149.754673 
C 50.449227 138.475752 50.449227 114.306633 69.045516 80.469867 
C 87.641806 43.410552 106.238095 30.520356 121.735002 30.520356 
C 132.582838 30.520356 148.079745 36.965454 172.874797 54.689474 
" style="fill:none;stroke:#ff0000;stroke-linejoin:miter;stroke-width:0.5;"/>
   </g>
   <g id="patch_17">
    <path clip-path="url(#p5eb3f4f814)" d="M 378.983668 303.631394 
L 121.735002 189.2309 
C 100.039332 179.563253 89.191496 171.50688 82.992733 163.450507 
C 78.343661 150.560311 79.893352 128.002467 93.840569 97.38825 
C 106.238095 71.607857 126.384075 61.94021 135.682219 61.94021 
C 146.530054 61.94021 158.92758 68.385308 177.52387 82.886779 
L 394.480576 264.960805 
C 399.129648 282.684825 389.831504 300.408845 378.983668 303.631394 
" style="fill:none;stroke:#0000ff;stroke-linejoin:miter;stroke-width:0.5;"/>
   </g>
   <g id="[&quot;g_s&quot;:1,&quot;g_t&quot;:6,&quot;coords&quot;:[[160.0, 154.0],[163.0, 136.5]],&quot;certainty&quot;:7]">
    <path clip-path="url(#p5eb3f4f814)" d="M 172.874797 61.134573 
C 174.518728 61.134573 176.09555 60.455476 177.257985 59.246847 
C 178.42042 58.038218 179.07356 56.398734 179.07356 54.689474 
C 179.07356 52.980214 178.42042 51.340731 177.257985 50.132102 
C 176.09555 48.923472 174.518728 48.244376 172.874797 48.244376 
C 171.230866 48.244376 169.654045 48.923472 168.49161 50.132102 
C 167.329175 51.340731 166.676034 52.980214 166.676034 54.689474 
C 166.676034 56.398734 167.329175 58.038218 168.49161 59.246847 
C 169.654045 60.455476 171.230866 61.134573 172.874797 61.134573 
z
" style="fill:#0000ff;opacity:0.2;stroke:#0000ff;stroke-linejoin:miter;stroke-width:2;"/>
   </g>
   <g id="[&quot;g_s&quot;:6,&quot;g_t&quot;:1,&quot;coords&quot;:[[163.0, 136.5],[160.0, 154.0]],&quot;certainty&quot;:7]">
    <path clip-path="url(#p5eb3f4f814)" d="M 177.52387 89.331877 
C 179.167801 89.331877 180.744622 88.652781 181.907057 87.444152 
C 183.069492 86.235522 183.722633 84.596039 183.722633 82.886779 
C 183.722633 81.177519 183.069492 79.538036 181.907057 78.329407 
C 180.744622 77.120777 179.167801 76.441681 177.52387 76.441681 
C 175.879938 76.441681 174.303117 77.120777 173.140682 78.329407 
C 171.978247 79.538036 171.325107 81.177519 171.325107 82.886779 
C 171.325107 84.596039 171.978247 86.235522 173.140682 87.444152 
C 174.303117 88.652781 175.879938 89.331877 177.52387 89.331877 
z
" style="fill:#ff0000;opacity:0.2;stroke:#ff0000;stroke-linejoin:miter;stroke-width:2;"/>
   </g>
   <g id="patch_18">
    <path d="M 172.874797 54.689474 
Q 175.036741 67.801978 176.96862 79.519108 
" style="fill:none;opacity:0.5;stroke:#0000ff;stroke-linecap:round;stroke-width:2;"/>
    <path d="M 178.204618 77.795069 
L 176.96862 79.519108 
L 175.244581 78.28311 
" style="fill:none;opacity:0.5;stroke:#0000ff;stroke-linecap:round;stroke-width:2;"/>
   </g>
   <g id="[&quot;g_s&quot;:2,&quot;g_t&quot;:7,&quot;coords&quot;:[[322.0, 36.0],[303.0, 23.5]],&quot;certainty&quot;:8]">
    <path clip-path="url(#p5eb3f4f814)" d="M 423.9247 252.070608 
C 425.774123 252.070608 427.548047 251.306625 428.855786 249.946917 
C 430.163525 248.587209 430.898309 246.74279 430.898309 244.819873 
C 430.898309 242.896955 430.163525 241.052536 428.855786 239.692828 
C 427.548047 238.33312 425.774123 237.569137 423.9247 237.569137 
C 422.075278 237.569137 420.301354 238.33312 418.993615 239.692828 
C 417.685875 241.052536 416.951092 242.896955 416.951092 244.819873 
C 416.951092 246.74279 417.685875 248.587209 418.993615 249.946917 
C 420.301354 251.306625 422.075278 252.070608 423.9247 252.070608 
z
" style="fill:#0000ff;opacity:0.2;stroke:#0000ff;stroke-linejoin:miter;stroke-width:2;"/>
   </g>
   <g id="[&quot;g_s&quot;:7,&quot;g_t&quot;:2,&quot;coords&quot;:[[303.0, 23.5],[322.0, 36.0]],&quot;certainty&quot;:8]">
    <path clip-path="url(#p5eb3f4f814)" d="M 394.480576 272.21154 
C 396.329999 272.21154 398.103923 271.447557 399.411662 270.087849 
C 400.719401 268.728141 401.454184 266.883722 401.454184 264.960805 
C 401.454184 263.037887 400.719401 261.193468 399.411662 259.83376 
C 398.103923 258.474052 396.329999 257.710069 394.480576 257.710069 
C 392.631153 257.710069 390.857229 258.474052 389.54949 259.83376 
C 388.241751 261.193468 387.506968 263.037887 387.506968 264.960805 
C 387.506968 266.883722 388.241751 268.728141 389.54949 270.087849 
C 390.857229 271.447557 392.631153 272.21154 394.480576 272.21154 
z
" style="fill:#ff0000;opacity:0.2;stroke:#ff0000;stroke-linejoin:miter;stroke-width:2;"/>
   </g>
   <g id="patch_19">
    <path d="M 423.9247 244.819873 
Q 410.027519 254.326088 397.443499 262.934049 
" style="fill:none;opacity:0.5;stroke:#0000ff;stroke-linecap:round;stroke-width:2.25;"/>
    <path d="M 399.52844 263.325228 
L 397.443499 262.934049 
L 397.834678 260.849108 
" style="fill:none;opacity:0.5;stroke:#0000ff;stroke-linecap:round;stroke-width:2.25;"/>
   </g>
   <g id="[&quot;g_s&quot;:3,&quot;g_t&quot;:1,&quot;coords&quot;:[[311.0, 6.0],[293.0, -0.5]],&quot;certainty&quot;:6]">
    <path clip-path="url(#p5eb3f4f814)" d="M 406.878102 298.79757 
C 408.316542 298.79757 409.696261 298.203361 410.713391 297.145811 
C 411.730522 296.08826 412.30202 294.653712 412.30202 293.158109 
C 412.30202 291.662507 411.730522 290.227959 410.713391 289.170408 
C 409.696261 288.112858 408.316542 287.518648 406.878102 287.518648 
C 405.439662 287.518648 404.059944 288.112858 403.042813 289.170408 
C 402.025683 290.227959 401.454184 291.662507 401.454184 293.158109 
C 401.454184 294.653712 402.025683 296.08826 403.042813 297.145811 
C 404.059944 298.203361 405.439662 298.79757 406.878102 298.79757 
z
" style="fill:#0000ff;opacity:0.2;stroke:#0000ff;stroke-linejoin:miter;stroke-width:2;"/>
   </g>
   <g id="[&quot;g_s&quot;:1,&quot;g_t&quot;:3,&quot;coords&quot;:[[293.0, -0.5],[311.0, 6.0]],&quot;certainty&quot;:6]">
    <path clip-path="url(#p5eb3f4f814)" d="M 378.983668 309.270855 
C 380.422108 309.270855 381.801827 308.676646 382.818957 307.619095 
C 383.836088 306.561544 384.407586 305.126997 384.407586 303.631394 
C 384.407586 302.135792 383.836088 300.701244 382.818957 299.643693 
C 381.801827 298.586142 380.422108 297.991933 378.983668 297.991933 
C 377.545229 297.991933 376.16551 298.586142 375.148379 299.643693 
C 374.131249 300.701244 373.559751 302.135792 373.559751 303.631394 
C 373.559751 305.126997 374.131249 306.561544 375.148379 307.619095 
C 376.16551 308.676646 377.545229 309.270855 378.983668 309.270855 
z
" style="fill:#ff0000;opacity:0.2;stroke:#ff0000;stroke-linejoin:miter;stroke-width:2;"/>
   </g>
   <g id="patch_20">
    <path d="M 406.878102 293.158109 
Q 393.86558 298.04381 382.011531 302.494548 
" style="fill:none;opacity:0.5;stroke:#0000ff;stroke-linecap:round;stroke-width:1.75;"/>
    <path d="M 383.943065 303.371576 
L 382.011531 302.494548 
L 382.888558 300.563015 
" style="fill:none;opacity:0.5;stroke:#0000ff;stroke-linecap:round;stroke-width:1.75;"/>
   </g>
   <g id="[&quot;g_s&quot;:4,&quot;g_t&quot;:2,&quot;coords&quot;:[[115.0, 70.0],[127.0, 70.5]],&quot;certainty&quot;:6]">
    <path clip-path="url(#p5eb3f4f814)" d="M 103.138713 195.675998 
C 104.577153 195.675998 105.956872 195.081789 106.974002 194.024239 
C 107.991133 192.966688 108.562631 191.53214 108.562631 190.036537 
C 108.562631 188.540935 107.991133 187.106387 106.974002 186.048836 
C 105.956872 184.991286 104.577153 184.397077 103.138713 184.397077 
C 101.700273 184.397077 100.320555 184.991286 99.303424 186.048836 
C 98.286294 187.106387 97.714795 188.540935 97.714795 190.036537 
C 97.714795 191.53214 98.286294 192.966688 99.303424 194.024239 
C 100.320555 195.081789 101.700273 195.675998 103.138713 195.675998 
z
" style="fill:#0000ff;opacity:0.2;stroke:#0000ff;stroke-linejoin:miter;stroke-width:2;"/>
   </g>
   <g id="[&quot;g_s&quot;:2,&quot;g_t&quot;:4,&quot;coords&quot;:[[127.0, 70.5],[115.0, 70.0]],&quot;certainty&quot;:6]">
    <path clip-path="url(#p5eb3f4f814)" d="M 121.735002 194.870361 
C 123.173442 194.870361 124.553161 194.276152 125.570291 193.218601 
C 126.587422 192.161051 127.15892 190.726503 127.15892 189.2309 
C 127.15892 187.735298 126.587422 186.30075 125.570291 185.243199 
C 124.553161 184.185648 123.173442 183.591439 121.735002 183.591439 
C 120.296562 183.591439 118.916844 184.185648 117.899713 185.243199 
C 116.882583 186.30075 116.311085 187.735298 116.311085 189.2309 
C 116.311085 190.726503 116.882583 192.161051 117.899713 193.218601 
C 118.916844 194.276152 120.296562 194.870361 121.735002 194.870361 
z
" style="fill:#ff0000;opacity:0.2;stroke:#ff0000;stroke-linejoin:miter;stroke-width:2;"/>
   </g>
   <g id="patch_21">
    <path d="M 103.138713 190.036537 
Q 111.435763 189.677089 118.496537 189.371199 
" style="fill:none;opacity:0.5;stroke:#0000ff;stroke-linecap:round;stroke-width:1.75;"/>
    <path d="M 116.933019 187.937527 
L 118.496537 189.371199 
L 117.062865 190.934716 
" style="fill:none;opacity:0.5;stroke:#0000ff;stroke-linecap:round;stroke-width:1.75;"/>
   </g>
   <g id="[&quot;g_s&quot;:5,&quot;g_t&quot;:3,&quot;coords&quot;:[[83.0, 95.0],[102.0, 86.5]],&quot;certainty&quot;:8]">
    <path clip-path="url(#p5eb3f4f814)" d="M 53.548609 157.005409 
C 55.398031 157.005409 57.171955 156.241426 58.479695 154.881718 
C 59.787434 153.52201 60.522217 151.677591 60.522217 149.754673 
C 60.522217 147.831756 59.787434 145.987337 58.479695 144.627629 
C 57.171955 143.267921 55.398031 142.503938 53.548609 142.503938 
C 51.699186 142.503938 49.925262 143.267921 48.617523 144.627629 
C 47.309784 145.987337 46.575 147.831756 46.575 149.754673 
C 46.575 151.677591 47.309784 153.52201 48.617523 154.881718 
C 49.925262 156.241426 51.699186 157.005409 53.548609 157.005409 
z
" style="fill:#0000ff;opacity:0.2;stroke:#0000ff;stroke-linejoin:miter;stroke-width:2;"/>
   </g>
   <g id="[&quot;g_s&quot;:3,&quot;g_t&quot;:5,&quot;coords&quot;:[[102.0, 86.5],[83.0, 95.0]],&quot;certainty&quot;:8]">
    <path clip-path="url(#p5eb3f4f814)" d="M 82.992733 170.701243 
C 84.842156 170.701243 86.61608 169.93726 87.923819 168.577551 
C 89.231558 167.217843 89.966342 165.373425 89.966342 163.450507 
C 89.966342 161.52759 89.231558 159.683171 87.923819 158.323463 
C 86.61608 156.963755 84.842156 156.199772 82.992733 156.199772 
C 81.143311 156.199772 79.369387 156.963755 78.061647 158.323463 
C 76.753908 159.683171 76.019125 161.52759 76.019125 163.450507 
C 76.019125 165.373425 76.753908 167.217843 78.061647 168.577551 
C 79.369387 169.93726 81.143311 170.701243 82.992733 170.701243 
z
" style="fill:#ff0000;opacity:0.2;stroke:#ff0000;stroke-linejoin:miter;stroke-width:2;"/>
   </g>
   <g id="patch_22">
    <path d="M 53.548609 149.754673 
Q 67.363122 156.180447 79.735067 161.935215 
" style="fill:none;opacity:0.5;stroke:#0000ff;stroke-linecap:round;stroke-width:2.25;"/>
    <path d="M 79.007632 159.942519 
L 79.735067 161.935215 
L 77.742372 162.662651 
" style="fill:none;opacity:0.5;stroke:#0000ff;stroke-linecap:round;stroke-width:2.25;"/>
   </g>
   <g id="[&quot;g_s&quot;:6,&quot;g_t&quot;:4,&quot;coords&quot;:[[93.0, 138.0],[109.0, 127.5]],&quot;certainty&quot;:6]">
    <path clip-path="url(#p5eb3f4f814)" d="M 69.045516 86.109328 
C 70.483956 86.109328 71.863675 85.515119 72.880805 84.457568 
C 73.897936 83.400018 74.469434 81.96547 74.469434 80.469867 
C 74.469434 78.974265 73.897936 77.539717 72.880805 76.482166 
C 71.863675 75.424616 70.483956 74.830406 69.045516 74.830406 
C 67.607077 74.830406 66.227358 75.424616 65.210227 76.482166 
C 64.193097 77.539717 63.621599 78.974265 63.621599 80.469867 
C 63.621599 81.96547 64.193097 83.400018 65.210227 84.457568 
C 66.227358 85.515119 67.607077 86.109328 69.045516 86.109328 
z
" style="fill:#0000ff;opacity:0.2;stroke:#0000ff;stroke-linejoin:miter;stroke-width:2;"/>
   </g>
   <g id="[&quot;g_s&quot;:4,&quot;g_t&quot;:6,&quot;coords&quot;:[[109.0, 127.5],[93.0, 138.0]],&quot;certainty&quot;:6]">
    <path clip-path="url(#p5eb3f4f814)" d="M 93.840569 103.027711 
C 95.279008 103.027711 96.658727 102.433502 97.675858 101.375951 
C 98.692988 100.318401 99.264486 98.883853 99.264486 97.38825 
C 99.264486 95.892648 98.692988 94.4581 97.675858 93.400549 
C 96.658727 92.342998 95.279008 91.748789 93.840569 91.748789 
C 92.402129 91.748789 91.02241 92.342998 90.00528 93.400549 
C 88.988149 94.4581 88.416651 95.892648 88.416651 97.38825 
C 88.416651 98.883853 88.988149 100.318401 90.00528 101.375951 
C 91.02241 102.433502 92.402129 103.027711 93.840569 103.027711 
z
" style="fill:#ff0000;opacity:0.2;stroke:#ff0000;stroke-linejoin:miter;stroke-width:2;"/>
   </g>
   <g id="patch_23">
    <path d="M 69.045516 80.469867 
Q 80.618256 88.366283 91.168834 95.565248 
" style="fill:none;opacity:0.5;stroke:#0000ff;stroke-linecap:round;stroke-width:1.75;"/>
    <path d="M 90.775225 93.480765 
L 91.168834 95.565248 
L 89.084351 95.958858 
" style="fill:none;opacity:0.5;stroke:#0000ff;stroke-linecap:round;stroke-width:1.75;"/>
   </g>
   <g id="[&quot;g_s&quot;:7,&quot;g_t&quot;:5,&quot;coords&quot;:[[127.0, 169.0],[136.0, 149.5]],&quot;certainty&quot;:5]">
    <path clip-path="url(#p5eb3f4f814)" d="M 121.735002 35.35418 
C 122.967951 35.35418 124.150567 34.844857 125.022393 33.938385 
C 125.894219 33.031913 126.384075 31.802301 126.384075 30.520356 
C 126.384075 29.238411 125.894219 28.008798 125.022393 27.102326 
C 124.150567 26.195854 122.967951 25.686532 121.735002 25.686532 
C 120.502054 25.686532 119.319438 26.195854 118.447612 27.102326 
C 117.575786 28.008798 117.08593 29.238411 117.08593 30.520356 
C 117.08593 31.802301 117.575786 33.031913 118.447612 33.938385 
C 119.319438 34.844857 120.502054 35.35418 121.735002 35.35418 
z
" style="fill:#0000ff;opacity:0.2;stroke:#0000ff;stroke-linejoin:miter;stroke-width:2;"/>
   </g>
   <g id="[&quot;g_s&quot;:5,&quot;g_t&quot;:7,&quot;coords&quot;:[[136.0, 149.5],[127.0, 169.0]],&quot;certainty&quot;:5]">
    <path clip-path="url(#p5eb3f4f814)" d="M 135.682219 66.774034 
C 136.915167 66.774034 138.097783 66.264711 138.96961 65.358239 
C 139.841436 64.451767 140.331291 63.222155 140.331291 61.94021 
C 140.331291 60.658265 139.841436 59.428652 138.96961 58.52218 
C 138.097783 57.615708 136.915167 57.106386 135.682219 57.106386 
C 134.449271 57.106386 133.266655 57.615708 132.394829 58.52218 
C 131.523002 59.428652 131.033147 60.658265 131.033147 61.94021 
C 131.033147 63.222155 131.523002 64.451767 132.394829 65.358239 
C 133.266655 66.264711 134.449271 66.774034 135.682219 66.774034 
z
" style="fill:#ff0000;opacity:0.2;stroke:#ff0000;stroke-linejoin:miter;stroke-width:2;"/>
   </g>
   <g id="patch_24">
    <path d="M 121.735002 30.520356 
Q 128.302555 45.315533 134.439774 59.141269 
" style="fill:none;opacity:0.5;stroke:#0000ff;stroke-linecap:round;stroke-width:1.5;"/>
    <path d="M 135.202187 57.161692 
L 134.439774 59.141269 
L 132.460197 58.378856 
" style="fill:none;opacity:0.5;stroke:#0000ff;stroke-linecap:round;stroke-width:1.5;"/>
   </g>
   <g id="[&quot;g_s&quot;:1,&quot;g_t&quot;:3,&quot;coords&quot;:[[293.0, -0.5],[311.0, 6.0]],&quot;certainty&quot;:8]">
    <path clip-path="url(#p5eb3f4f814)" d="M 378.983668 310.88213 
C 380.833091 310.88213 382.607015 310.118146 383.914754 308.758438 
C 385.222493 307.39873 385.957277 305.554312 385.957277 303.631394 
C 385.957277 301.708477 385.222493 299.864058 383.914754 298.50435 
C 382.607015 297.144642 380.833091 296.380659 378.983668 296.380659 
C 377.134246 296.380659 375.360322 297.144642 374.052583 298.50435 
C 372.744843 299.864058 372.01006 301.708477 372.01006 303.631394 
C 372.01006 305.554312 372.744843 307.39873 374.052583 308.758438 
C 375.360322 310.118146 377.134246 310.88213 378.983668 310.88213 
z
" style="fill:#0000ff;opacity:0.2;stroke:#0000ff;stroke-linejoin:miter;stroke-width:2;"/>
   </g>
   <g id="[&quot;g_s&quot;:3,&quot;g_t&quot;:1,&quot;coords&quot;:[[311.0, 6.0],[293.0, -0.5]],&quot;certainty&quot;:8]">
    <path clip-path="url(#p5eb3f4f814)" d="M 406.878102 300.408845 
C 408.727525 300.408845 410.501449 299.644862 411.809188 298.285154 
C 413.116927 296.925446 413.851711 295.081027 413.851711 293.158109 
C 413.851711 291.235192 413.116927 289.390773 411.809188 288.031065 
C 410.501449 286.671357 408.727525 285.907374 406.878102 285.907374 
C 405.02868 285.907374 403.254756 286.671357 401.947016 288.031065 
C 400.639277 289.390773 399.904494 291.235192 399.904494 293.158109 
C 399.904494 295.081027 400.639277 296.925446 401.947016 298.285154 
C 403.254756 299.644862 405.02868 300.408845 406.878102 300.408845 
z
" style="fill:#ff0000;opacity:0.2;stroke:#ff0000;stroke-linejoin:miter;stroke-width:2;"/>
   </g>
   <g id="patch_25">
    <path d="M 378.983668 303.631394 
Q 391.99619 298.745694 403.519247 294.41923 
" style="fill:none;opacity:0.5;stroke:#ff0000;stroke-linecap:round;stroke-width:2.25;"/>
    <path d="M 401.587714 293.542203 
L 403.519247 294.41923 
L 402.64222 296.350764 
" style="fill:none;opacity:0.5;stroke:#ff0000;stroke-linecap:round;stroke-width:2.25;"/>
   </g>
   <g id="[&quot;g_s&quot;:2,&quot;g_t&quot;:4,&quot;coords&quot;:[[127.0, 70.5],[115.0, 70.0]],&quot;certainty&quot;:6]">
    <path clip-path="url(#p5eb3f4f814)" d="M 121.735002 194.870361 
C 123.173442 194.870361 124.553161 194.276152 125.570291 193.218601 
C 126.587422 192.161051 127.15892 190.726503 127.15892 189.2309 
C 127.15892 187.735298 126.587422 186.30075 125.570291 185.243199 
C 124.553161 184.185648 123.173442 183.591439 121.735002 183.591439 
C 120.296562 183.591439 118.916844 184.185648 117.899713 185.243199 
C 116.882583 186.30075 116.311085 187.735298 116.311085 189.2309 
C 116.311085 190.726503 116.882583 192.161051 117.899713 193.218601 
C 118.916844 194.276152 120.296562 194.870361 121.735002 194.870361 
z
" style="fill:#0000ff;opacity:0.2;stroke:#0000ff;stroke-linejoin:miter;stroke-width:2;"/>
   </g>
   <g id="[&quot;g_s&quot;:4,&quot;g_t&quot;:2,&quot;coords&quot;:[[115.0, 70.0],[127.0, 70.5]],&quot;certainty&quot;:6]">
    <path clip-path="url(#p5eb3f4f814)" d="M 103.138713 195.675998 
C 104.577153 195.675998 105.956872 195.081789 106.974002 194.024239 
C 107.991133 192.966688 108.562631 191.53214 108.562631 190.036537 
C 108.562631 188.540935 107.991133 187.106387 106.974002 186.048836 
C 105.956872 184.991286 104.577153 184.397077 103.138713 184.397077 
C 101.700273 184.397077 100.320555 184.991286 99.303424 186.048836 
C 98.286294 187.106387 97.714795 188.540935 97.714795 190.036537 
C 97.714795 191.53214 98.286294 192.966688 99.303424 194.024239 
C 100.320555 195.081789 101.700273 195.675998 103.138713 195.675998 
z
" style="fill:#ff0000;opacity:0.2;stroke:#ff0000;stroke-linejoin:miter;stroke-width:2;"/>
   </g>
   <g id="patch_26">
    <path d="M 121.735002 189.2309 
Q 113.437952 189.590349 106.377179 189.896239 
" style="fill:none;opacity:0.5;stroke:#ff0000;stroke-linecap:round;stroke-width:1.75;"/>
    <path d="M 107.940696 191.329911 
L 106.377179 189.896239 
L 107.81085 188.332722 
" style="fill:none;opacity:0.5;stroke:#ff0000;stroke-linecap:round;stroke-width:1.75;"/>
   </g>
   <g id="[&quot;g_s&quot;:3,&quot;g_t&quot;:5,&quot;coords&quot;:[[102.0, 86.5],[83.0, 95.0]],&quot;certainty&quot;:9]">
    <path clip-path="url(#p5eb3f4f814)" d="M 82.992733 171.50688 
C 85.047647 171.50688 87.018674 170.65801 88.471717 169.147223 
C 89.924761 167.636436 90.741187 165.587082 90.741187 163.450507 
C 90.741187 161.313932 89.924761 159.264578 88.471717 157.753791 
C 87.018674 156.243005 85.047647 155.394134 82.992733 155.394134 
C 80.937819 155.394134 78.966793 156.243005 77.513749 157.753791 
C 76.060705 159.264578 75.244279 161.313932 75.244279 163.450507 
C 75.244279 165.587082 76.060705 167.636436 77.513749 169.147223 
C 78.966793 170.65801 80.937819 171.50688 82.992733 171.50688 
z
" style="fill:#0000ff;opacity:0.2;stroke:#0000ff;stroke-linejoin:miter;stroke-width:2;"/>
   </g>
   <g id="[&quot;g_s&quot;:5,&quot;g_t&quot;:3,&quot;coords&quot;:[[83.0, 95.0],[102.0, 86.5]],&quot;certainty&quot;:9]">
    <path clip-path="url(#p5eb3f4f814)" d="M 53.548609 157.811046 
C 55.603523 157.811046 57.574549 156.962176 59.027593 155.451389 
C 60.480637 153.940603 61.297063 151.891249 61.297063 149.754673 
C 61.297063 147.618098 60.480637 145.568744 59.027593 144.057958 
C 57.574549 142.547171 55.603523 141.698301 53.548609 141.698301 
C 51.493695 141.698301 49.522668 142.547171 48.069625 144.057958 
C 46.616581 145.568744 45.800155 147.618098 45.800155 149.754673 
C 45.800155 151.891249 46.616581 153.940603 48.069625 155.451389 
C 49.522668 156.962176 51.493695 157.811046 53.548609 157.811046 
z
" style="fill:#ff0000;opacity:0.2;stroke:#ff0000;stroke-linejoin:miter;stroke-width:2;"/>
   </g>
   <g id="patch_27">
    <path d="M 82.992733 163.450507 
Q 69.17822 157.024734 56.96656 151.344522 
" style="fill:none;opacity:0.5;stroke:#ff0000;stroke-linecap:round;stroke-width:2.5;"/>
    <path d="M 57.693996 153.337218 
L 56.96656 151.344522 
L 58.959256 150.617086 
" style="fill:none;opacity:0.5;stroke:#ff0000;stroke-linecap:round;stroke-width:2.5;"/>
   </g>
   <g id="[&quot;g_s&quot;:4,&quot;g_t&quot;:6,&quot;coords&quot;:[[109.0, 127.5],[93.0, 138.0]],&quot;certainty&quot;:4]">
    <path clip-path="url(#p5eb3f4f814)" d="M 93.840569 101.416437 
C 94.868026 101.416437 95.853539 100.992002 96.580061 100.236608 
C 97.306582 99.481215 97.714795 98.456538 97.714795 97.38825 
C 97.714795 96.319963 97.306582 95.295286 96.580061 94.539892 
C 95.853539 93.784499 94.868026 93.360064 93.840569 93.360064 
C 92.813112 93.360064 91.827598 93.784499 91.101076 94.539892 
C 90.374555 95.295286 89.966342 96.319963 89.966342 97.38825 
C 89.966342 98.456538 90.374555 99.481215 91.101076 100.236608 
C 91.827598 100.992002 92.813112 101.416437 93.840569 101.416437 
z
" style="fill:#0000ff;opacity:0.2;stroke:#0000ff;stroke-linejoin:miter;stroke-width:2;"/>
   </g>
   <g id="[&quot;g_s&quot;:6,&quot;g_t&quot;:4,&quot;coords&quot;:[[93.0, 138.0],[109.0, 127.5]],&quot;certainty&quot;:4]">
    <path clip-path="url(#p5eb3f4f814)" d="M 69.045516 84.498054 
C 70.072973 84.498054 71.058487 84.073619 71.785009 83.318225 
C 72.51153 82.562832 72.919743 81.538155 72.919743 80.469867 
C 72.919743 79.40158 72.51153 78.376903 71.785009 77.621509 
C 71.058487 76.866116 70.072973 76.441681 69.045516 76.441681 
C 68.018059 76.441681 67.032546 76.866116 66.306024 77.621509 
C 65.579502 78.376903 65.171289 79.40158 65.171289 80.469867 
C 65.171289 81.538155 65.579502 82.562832 66.306024 83.318225 
C 67.032546 84.073619 68.018059 84.498054 69.045516 84.498054 
z
" style="fill:#ff0000;opacity:0.2;stroke:#ff0000;stroke-linejoin:miter;stroke-width:2;"/>
   </g>
   <g id="patch_28">
    <path d="M 93.840569 97.38825 
Q 82.267829 89.491835 71.425205 82.093598 
" style="fill:none;opacity:0.5;stroke:#ff0000;stroke-linecap:round;stroke-width:1.25;"/>
    <path d="M 71.818814 84.178081 
L 71.425205 82.093598 
L 73.509688 81.699989 
" style="fill:none;opacity:0.5;stroke:#ff0000;stroke-linecap:round;stroke-width:1.25;"/>
   </g>
   <g id="[&quot;g_s&quot;:5,&quot;g_t&quot;:7,&quot;coords&quot;:[[136.0, 149.5],[127.0, 169.0]],&quot;certainty&quot;:6]">
    <path clip-path="url(#p5eb3f4f814)" d="M 135.682219 67.579671 
C 137.120659 67.579671 138.500378 66.985462 139.517508 65.927911 
C 140.534639 64.87036 141.106137 63.435812 141.106137 61.94021 
C 141.106137 60.444607 140.534639 59.010059 139.517508 57.952509 
C 138.500378 56.894958 137.120659 56.300749 135.682219 56.300749 
C 134.243779 56.300749 132.864061 56.894958 131.84693 57.952509 
C 130.8298 59.010059 130.258301 60.444607 130.258301 61.94021 
C 130.258301 63.435812 130.8298 64.87036 131.84693 65.927911 
C 132.864061 66.985462 134.243779 67.579671 135.682219 67.579671 
z
" style="fill:#0000ff;opacity:0.2;stroke:#0000ff;stroke-linejoin:miter;stroke-width:2;"/>
   </g>
   <g id="[&quot;g_s&quot;:7,&quot;g_t&quot;:5,&quot;coords&quot;:[[127.0, 169.0],[136.0, 149.5]],&quot;certainty&quot;:6]">
    <path clip-path="url(#p5eb3f4f814)" d="M 121.735002 36.159817 
C 123.173442 36.159817 124.553161 35.565608 125.570291 34.508057 
C 126.587422 33.450506 127.15892 32.015958 127.15892 30.520356 
C 127.15892 29.024753 126.587422 27.590206 125.570291 26.532655 
C 124.553161 25.475104 123.173442 24.880895 121.735002 24.880895 
C 120.296562 24.880895 118.916844 25.475104 117.899713 26.532655 
C 116.882583 27.590206 116.311085 29.024753 116.311085 30.520356 
C 116.311085 32.015958 116.882583 33.450506 117.899713 34.508057 
C 118.916844 35.565608 120.296562 36.159817 121.735002 36.159817 
z
" style="fill:#ff0000;opacity:0.2;stroke:#ff0000;stroke-linejoin:miter;stroke-width:2;"/>
   </g>
   <g id="patch_29">
    <path d="M 135.682219 61.94021 
Q 129.114667 47.145033 123.049169 33.48087 
" style="fill:none;opacity:0.5;stroke:#ff0000;stroke-linecap:round;stroke-width:1.75;"/>
    <path d="M 122.286756 35.460447 
L 123.049169 33.48087 
L 125.028747 34.243283 
" style="fill:none;opacity:0.5;stroke:#ff0000;stroke-linecap:round;stroke-width:1.75;"/>
   </g>
   <g id="[&quot;g_s&quot;:6,&quot;g_t&quot;:1,&quot;coords&quot;:[[163.0, 136.5],[160.0, 154.0]],&quot;certainty&quot;:9]">
    <path clip-path="url(#p5eb3f4f814)" d="M 177.52387 90.943152 
C 179.578784 90.943152 181.54981 90.094282 183.002854 88.583495 
C 184.455897 87.072708 185.272323 85.023354 185.272323 82.886779 
C 185.272323 80.750204 184.455897 78.70085 183.002854 77.190063 
C 181.54981 75.679277 179.578784 74.830406 177.52387 74.830406 
C 175.468956 74.830406 173.497929 75.679277 172.044885 77.190063 
C 170.591842 78.70085 169.775416 80.750204 169.775416 82.886779 
C 169.775416 85.023354 170.591842 87.072708 172.044885 88.583495 
C 173.497929 90.094282 175.468956 90.943152 177.52387 90.943152 
z
" style="fill:#0000ff;opacity:0.2;stroke:#0000ff;stroke-linejoin:miter;stroke-width:2;"/>
   </g>
   <g id="[&quot;g_s&quot;:1,&quot;g_t&quot;:6,&quot;coords&quot;:[[160.0, 154.0],[163.0, 136.5]],&quot;certainty&quot;:9]">
    <path clip-path="url(#p5eb3f4f814)" d="M 172.874797 62.745847 
C 174.929711 62.745847 176.900738 61.896977 178.353782 60.38619 
C 179.806825 58.875403 180.623251 56.826049 180.623251 54.689474 
C 180.623251 52.552899 179.806825 50.503545 178.353782 48.992759 
C 176.900738 47.481972 174.929711 46.633102 172.874797 46.633102 
C 170.819883 46.633102 168.848857 47.481972 167.395813 48.992759 
C 165.942769 50.503545 165.126344 52.552899 165.126344 54.689474 
C 165.126344 56.826049 165.942769 58.875403 167.395813 60.38619 
C 168.848857 61.896977 170.819883 62.745847 172.874797 62.745847 
z
" style="fill:#ff0000;opacity:0.2;stroke:#ff0000;stroke-linejoin:miter;stroke-width:2;"/>
   </g>
   <g id="patch_30">
    <path d="M 177.52387 82.886779 
Q 175.361926 69.774275 173.487563 58.405989 
" style="fill:none;opacity:0.5;stroke:#ff0000;stroke-linecap:round;stroke-width:2.5;"/>
    <path d="M 172.251565 60.130028 
L 173.487563 58.405989 
L 175.211602 59.641988 
" style="fill:none;opacity:0.5;stroke:#ff0000;stroke-linecap:round;stroke-width:2.5;"/>
   </g>
   <g id="[&quot;g_s&quot;:7,&quot;g_t&quot;:2,&quot;coords&quot;:[[303.0, 23.5],[322.0, 36.0]],&quot;certainty&quot;:6]">
    <path clip-path="url(#p5eb3f4f814)" d="M 394.480576 270.600266 
C 395.919016 270.600266 397.298734 270.006056 398.315865 268.948506 
C 399.332995 267.890955 399.904494 266.456407 399.904494 264.960805 
C 399.904494 263.465202 399.332995 262.030654 398.315865 260.973104 
C 397.298734 259.915553 395.919016 259.321344 394.480576 259.321344 
C 393.042136 259.321344 391.662418 259.915553 390.645287 260.973104 
C 389.628157 262.030654 389.056658 263.465202 389.056658 264.960805 
C 389.056658 266.456407 389.628157 267.890955 390.645287 268.948506 
C 391.662418 270.006056 393.042136 270.600266 394.480576 270.600266 
z
" style="fill:#0000ff;opacity:0.2;stroke:#0000ff;stroke-linejoin:miter;stroke-width:2;"/>
   </g>
   <g id="[&quot;g_s&quot;:2,&quot;g_t&quot;:7,&quot;coords&quot;:[[322.0, 36.0],[303.0, 23.5]],&quot;certainty&quot;:6]">
    <path clip-path="url(#p5eb3f4f814)" d="M 423.9247 250.459334 
C 425.36314 250.459334 426.742859 249.865124 427.759989 248.807574 
C 428.77712 247.750023 429.348618 246.315475 429.348618 244.819873 
C 429.348618 243.32427 428.77712 241.889722 427.759989 240.832171 
C 426.742859 239.774621 425.36314 239.180412 423.9247 239.180412 
C 422.486261 239.180412 421.106542 239.774621 420.089411 240.832171 
C 419.072281 241.889722 418.500783 243.32427 418.500783 244.819873 
C 418.500783 246.315475 419.072281 247.750023 420.089411 248.807574 
C 421.106542 249.865124 422.486261 250.459334 423.9247 250.459334 
z
" style="fill:#ff0000;opacity:0.2;stroke:#ff0000;stroke-linejoin:miter;stroke-width:2;"/>
   </g>
   <g id="patch_31">
    <path d="M 394.480576 264.960805 
Q 408.377757 255.45459 421.253591 246.647016 
" style="fill:none;opacity:0.5;stroke:#ff0000;stroke-linecap:round;stroke-width:1.75;"/>
    <path d="M 419.16865 246.255837 
L 421.253591 246.647016 
L 420.862412 248.731957 
" style="fill:none;opacity:0.5;stroke:#ff0000;stroke-linecap:round;stroke-width:1.75;"/>
   </g>
   <g id="patch_32">
    <path clip-path="url(#p5eb3f4f814)" d="M 175.199333 76.8445 
C 177.254247 76.8445 179.225274 75.995629 180.678318 74.484843 
C 182.131361 72.974056 182.947787 70.924702 182.947787 68.788127 
C 182.947787 66.651552 182.131361 64.602198 180.678318 63.091411 
C 179.225274 61.580624 177.254247 60.731754 175.199333 60.731754 
C 173.144419 60.731754 171.173393 61.580624 169.720349 63.091411 
C 168.267306 64.602198 167.45088 66.651552 167.45088 68.788127 
C 167.45088 70.924702 168.267306 72.974056 169.720349 74.484843 
C 171.173393 75.995629 173.144419 76.8445 175.199333 76.8445 
z
" style="fill:#008000;opacity:0.2;stroke:#008000;stroke-linejoin:miter;stroke-width:2;"/>
   </g>
   <g id="patch_33">
    <path clip-path="url(#p5eb3f4f814)" d="M 409.202638 262.946711 
C 411.257552 262.946711 413.228579 262.097841 414.681622 260.587054 
C 416.134666 259.076268 416.951092 257.026914 416.951092 254.890339 
C 416.951092 252.753764 416.134666 250.704409 414.681622 249.193623 
C 413.228579 247.682836 411.257552 246.833966 409.202638 246.833966 
C 407.147724 246.833966 405.176698 247.682836 403.723654 249.193623 
C 402.27061 250.704409 401.454184 252.753764 401.454184 254.890339 
C 401.454184 257.026914 402.27061 259.076268 403.723654 260.587054 
C 405.176698 262.097841 407.147724 262.946711 409.202638 262.946711 
z
" style="fill:#008000;opacity:0.2;stroke:#008000;stroke-linejoin:miter;stroke-width:2;"/>
   </g>
   <g id="patch_34">
    <path clip-path="url(#p5eb3f4f814)" d="M 392.930885 306.451125 
C 394.985799 306.451125 396.956826 305.602254 398.409869 304.091468 
C 399.862913 302.580681 400.679339 300.531327 400.679339 298.394752 
C 400.679339 296.258177 399.862913 294.208823 398.409869 292.698036 
C 396.956826 291.187249 394.985799 290.338379 392.930885 290.338379 
C 390.875971 290.338379 388.904945 291.187249 387.451901 292.698036 
C 385.998857 294.208823 385.182431 296.258177 385.182431 298.394752 
C 385.182431 300.531327 385.998857 302.580681 387.451901 304.091468 
C 388.904945 305.602254 390.875971 306.451125 392.930885 306.451125 
z
" style="fill:#008000;opacity:0.2;stroke:#008000;stroke-linejoin:miter;stroke-width:2;"/>
   </g>
   <g id="patch_35">
    <path clip-path="url(#p5eb3f4f814)" d="M 112.436858 197.690092 
C 114.491772 197.690092 116.462798 196.841221 117.915842 195.330435 
C 119.368886 193.819648 120.185311 191.770294 120.185311 189.633719 
C 120.185311 187.497144 119.368886 185.44779 117.915842 183.937003 
C 116.462798 182.426216 114.491772 181.577346 112.436858 181.577346 
C 110.381944 181.577346 108.410917 182.426216 106.957873 183.937003 
C 105.50483 185.44779 104.688404 187.497144 104.688404 189.633719 
C 104.688404 191.770294 105.50483 193.819648 106.957873 195.330435 
C 108.410917 196.841221 110.381944 197.690092 112.436858 197.690092 
z
" style="fill:#008000;opacity:0.2;stroke:#008000;stroke-linejoin:miter;stroke-width:2;"/>
   </g>
   <g id="patch_36">
    <path clip-path="url(#p5eb3f4f814)" d="M 68.270671 164.658963 
C 70.325585 164.658963 72.296612 163.810093 73.749655 162.299306 
C 75.202699 160.788519 76.019125 158.739165 76.019125 156.60259 
C 76.019125 154.466015 75.202699 152.416661 73.749655 150.905875 
C 72.296612 149.395088 70.325585 148.546218 68.270671 148.546218 
C 66.215757 148.546218 64.24473 149.395088 62.791687 150.905875 
C 61.338643 152.416661 60.522217 154.466015 60.522217 156.60259 
C 60.522217 158.739165 61.338643 160.788519 62.791687 162.299306 
C 64.24473 163.810093 66.215757 164.658963 68.270671 164.658963 
z
" style="fill:#008000;opacity:0.2;stroke:#008000;stroke-linejoin:miter;stroke-width:2;"/>
   </g>
   <g id="patch_37">
    <path clip-path="url(#p5eb3f4f814)" d="M 81.443042 96.985432 
C 83.497956 96.985432 85.468983 96.136561 86.922027 94.625775 
C 88.37507 93.114988 89.191496 91.065634 89.191496 88.929059 
C 89.191496 86.792484 88.37507 84.74313 86.922027 83.232343 
C 85.468983 81.721556 83.497956 80.872686 81.443042 80.872686 
C 79.388129 80.872686 77.417102 81.721556 75.964058 83.232343 
C 74.511015 84.74313 73.694589 86.792484 73.694589 88.929059 
C 73.694589 91.065634 74.511015 93.114988 75.964058 94.625775 
C 77.417102 96.136561 79.388129 96.985432 81.443042 96.985432 
z
" style="fill:#008000;opacity:0.2;stroke:#008000;stroke-linejoin:miter;stroke-width:2;"/>
   </g>
   <g id="patch_38">
    <path clip-path="url(#p5eb3f4f814)" d="M 128.708611 54.286656 
C 130.763525 54.286656 132.734551 53.437785 134.187595 51.926999 
C 135.640638 50.416212 136.457064 48.366858 136.457064 46.230283 
C 136.457064 44.093708 135.640638 42.044354 134.187595 40.533567 
C 132.734551 39.02278 130.763525 38.17391 128.708611 38.17391 
C 126.653697 38.17391 124.68267 39.02278 123.229626 40.533567 
C 121.776583 42.044354 120.960157 44.093708 120.960157 46.230283 
C 120.960157 48.366858 121.776583 50.416212 123.229626 51.926999 
C 124.68267 53.437785 126.653697 54.286656 128.708611 54.286656 
z
" style="fill:#008000;opacity:0.2;stroke:#008000;stroke-linejoin:miter;stroke-width:2;"/>
   </g>
   <g id="patch_39">
    <path clip-path="url(#p5eb3f4f814)" d="M 172.874797 86.914966 
C 181.094453 86.914966 188.97856 83.519485 194.790734 77.476338 
C 200.602909 71.433191 203.868613 63.235775 203.868613 54.689474 
C 203.868613 46.143174 200.602909 37.945758 194.790734 31.902611 
C 188.97856 25.859464 181.094453 22.463983 172.874797 22.463983 
C 164.655141 22.463983 156.771035 25.859464 150.95886 31.902611 
C 145.146686 37.945758 141.880982 46.143174 141.880982 54.689474 
C 141.880982 63.235775 145.146686 71.433191 150.95886 77.476338 
C 156.771035 83.519485 164.655141 86.914966 172.874797 86.914966 
z
" style="fill:none;opacity:0.2;stroke:#ff0000;stroke-linejoin:miter;stroke-width:2;"/>
   </g>
   <g id="patch_40">
    <path clip-path="url(#p5eb3f4f814)" d="M 378.983668 335.856885 
C 387.203324 335.856885 395.087431 332.461404 400.899605 326.418257 
C 406.71178 320.375111 409.977484 312.177694 409.977484 303.631394 
C 409.977484 295.085094 406.71178 286.887677 400.899605 280.844531 
C 395.087431 274.801384 387.203324 271.405903 378.983668 271.405903 
C 370.764013 271.405903 362.879906 274.801384 357.067732 280.844531 
C 351.255557 286.887677 347.989853 295.085094 347.989853 303.631394 
C 347.989853 312.177694 351.255557 320.375111 357.067732 326.418257 
C 362.879906 332.461404 370.764013 335.856885 378.983668 335.856885 
z
" style="fill:none;opacity:0.2;stroke:#0000ff;stroke-linejoin:miter;stroke-width:2;"/>
   </g>
   <g id="patch_41">
    <path clip-path="url(#p5eb3f4f814)" d="M 172.874797 70.80222 
C 176.984625 70.80222 180.926679 69.104479 183.832766 66.082906 
C 186.738853 63.061333 188.371705 58.962624 188.371705 54.689474 
C 188.371705 50.416324 186.738853 46.317616 183.832766 43.296043 
C 180.926679 40.274469 176.984625 38.576729 172.874797 38.576729 
C 168.764969 38.576729 164.822916 40.274469 161.916829 43.296043 
C 159.010742 46.317616 157.37789 50.416324 157.37789 54.689474 
C 157.37789 58.962624 159.010742 63.061333 161.916829 66.082906 
C 164.822916 69.104479 168.764969 70.80222 172.874797 70.80222 
z
" style="fill:none;opacity:0.2;stroke:#008000;stroke-linejoin:miter;stroke-width:2;"/>
   </g>
   <g id="patch_42">
    <path clip-path="url(#p5eb3f4f814)" d="M 177.52387 98.999525 
C 181.633698 98.999525 185.575751 97.301784 188.481838 94.280211 
C 191.387925 91.258637 193.020777 87.159929 193.020777 82.886779 
C 193.020777 78.613629 191.387925 74.514921 188.481838 71.493347 
C 185.575751 68.471774 181.633698 66.774034 177.52387 66.774034 
C 173.414042 66.774034 169.471988 68.471774 166.565901 71.493347 
C 163.659814 74.514921 162.026962 78.613629 162.026962 82.886779 
C 162.026962 87.159929 163.659814 91.258637 166.565901 94.280211 
C 169.471988 97.301784 173.414042 98.999525 177.52387 98.999525 
z
" style="fill:none;opacity:0.2;stroke:#008000;stroke-linejoin:miter;stroke-width:2;"/>
   </g>
   <g id="patch_43">
    <path d="M 175.199333 68.788127 
Q 292.200986 161.839233 409.202638 254.890339 
" style="fill:none;opacity:0.5;stroke:#008000;stroke-linecap:round;stroke-width:2;"/>
   </g>
   <g id="patch_44">
    <path d="M 173.104862 56.084849 
Q 175.036741 67.801978 176.96862 79.519108 
" style="fill:none;opacity:0.5;stroke:#800080;stroke-linecap:round;stroke-width:2;"/>
    <path d="M 171.868864 57.808887 
L 173.104862 56.084849 
L 174.8289 57.320847 
" style="fill:none;opacity:0.5;stroke:#800080;stroke-linecap:round;stroke-width:2;"/>
    <path d="M 178.204618 77.795069 
L 176.96862 79.519108 
L 175.244581 78.28311 
" style="fill:none;opacity:0.5;stroke:#800080;stroke-linecap:round;stroke-width:2;"/>
   </g>
   <g id="patch_45">
    <path d="M 409.202638 254.890339 
Q 401.066762 276.642545 392.930885 298.394752 
" style="fill:none;opacity:0.5;stroke:#008000;stroke-linecap:round;stroke-width:2;"/>
   </g>
   <g id="patch_46">
    <path d="M 422.757446 245.61832 
Q 410.027519 254.326088 397.297592 263.033855 
" style="fill:none;opacity:0.5;stroke:#800080;stroke-linecap:round;stroke-width:2;"/>
    <path d="M 420.672505 245.227141 
L 422.757446 245.61832 
L 422.366268 247.703261 
" style="fill:none;opacity:0.5;stroke:#800080;stroke-linecap:round;stroke-width:2;"/>
    <path d="M 399.382533 263.425034 
L 397.297592 263.033855 
L 397.688771 260.948914 
" style="fill:none;opacity:0.5;stroke:#800080;stroke-linecap:round;stroke-width:2;"/>
   </g>
   <g id="patch_47">
    <path d="M 392.930885 298.394752 
Q 252.683871 244.014235 112.436858 189.633719 
" style="fill:none;opacity:0.5;stroke:#008000;stroke-linecap:round;stroke-width:2;"/>
   </g>
   <g id="patch_48">
    <path d="M 405.554134 293.655209 
Q 393.86558 298.04381 382.177027 302.432411 
" style="fill:none;opacity:0.5;stroke:#800080;stroke-linecap:round;stroke-width:2;"/>
    <path d="M 403.6226 292.778181 
L 405.554134 293.655209 
L 404.677106 295.586742 
" style="fill:none;opacity:0.5;stroke:#800080;stroke-linecap:round;stroke-width:2;"/>
    <path d="M 384.108561 303.309438 
L 382.177027 302.432411 
L 383.054054 300.500877 
" style="fill:none;opacity:0.5;stroke:#800080;stroke-linecap:round;stroke-width:2;"/>
   </g>
   <g id="patch_49">
    <path d="M 112.436858 189.633719 
Q 90.353764 173.118155 68.270671 156.60259 
" style="fill:none;opacity:0.5;stroke:#008000;stroke-linecap:round;stroke-width:2;"/>
   </g>
   <g id="patch_50">
    <path d="M 104.551601 189.975328 
Q 111.435763 189.677089 118.319926 189.37885 
" style="fill:none;opacity:0.5;stroke:#800080;stroke-linecap:round;stroke-width:2;"/>
    <path d="M 106.115119 191.408999 
L 104.551601 189.975328 
L 105.985273 188.411811 
" style="fill:none;opacity:0.5;stroke:#800080;stroke-linecap:round;stroke-width:2;"/>
    <path d="M 116.756408 187.945178 
L 118.319926 189.37885 
L 116.886254 190.942367 
" style="fill:none;opacity:0.5;stroke:#800080;stroke-linecap:round;stroke-width:2;"/>
   </g>
   <g id="patch_51">
    <path d="M 68.270671 156.60259 
Q 74.856857 122.765825 81.443042 88.929059 
" style="fill:none;opacity:0.5;stroke:#008000;stroke-linecap:round;stroke-width:2;"/>
   </g>
   <g id="patch_52">
    <path d="M 54.830891 150.351123 
Q 67.363122 156.180447 79.895353 162.009771 
" style="fill:none;opacity:0.5;stroke:#800080;stroke-linecap:round;stroke-width:2;"/>
    <path d="M 55.558327 152.343819 
L 54.830891 150.351123 
L 56.823587 149.623687 
" style="fill:none;opacity:0.5;stroke:#800080;stroke-linecap:round;stroke-width:2;"/>
    <path d="M 79.167917 160.017075 
L 79.895353 162.009771 
L 77.902657 162.737207 
" style="fill:none;opacity:0.5;stroke:#800080;stroke-linecap:round;stroke-width:2;"/>
   </g>
   <g id="patch_53">
    <path d="M 81.443042 88.929059 
Q 105.075827 67.579671 128.708611 46.230283 
" style="fill:none;opacity:0.5;stroke:#008000;stroke-linecap:round;stroke-width:2;"/>
   </g>
   <g id="patch_54">
    <path d="M 70.2137 81.266953 
Q 80.618256 88.366283 91.022811 95.465613 
" style="fill:none;opacity:0.5;stroke:#800080;stroke-linecap:round;stroke-width:2;"/>
    <path d="M 70.60731 83.351437 
L 70.2137 81.266953 
L 72.298184 80.873344 
" style="fill:none;opacity:0.5;stroke:#800080;stroke-linecap:round;stroke-width:2;"/>
    <path d="M 90.629202 93.381129 
L 91.022811 95.465613 
L 88.938328 95.859222 
" style="fill:none;opacity:0.5;stroke:#800080;stroke-linecap:round;stroke-width:2;"/>
   </g>
   <g id="patch_55">
    <path d="M 128.708611 46.230283 
Q 151.953972 57.509205 175.199333 68.788127 
" style="fill:none;opacity:0.5;stroke:#008000;stroke-linecap:round;stroke-width:2;"/>
   </g>
   <g id="patch_56">
    <path d="M 122.308779 31.812943 
Q 128.302555 45.315533 134.29633 58.818123 
" style="fill:none;opacity:0.5;stroke:#800080;stroke-linecap:round;stroke-width:2;"/>
    <path d="M 121.546366 33.79252 
L 122.308779 31.812943 
L 124.288357 32.575355 
" style="fill:none;opacity:0.5;stroke:#800080;stroke-linecap:round;stroke-width:2;"/>
    <path d="M 135.058743 56.838545 
L 134.29633 58.818123 
L 132.316753 58.05571 
" style="fill:none;opacity:0.5;stroke:#800080;stroke-linecap:round;stroke-width:2;"/>
   </g>
   <g id="line2d_1">
    <path clip-path="url(#p5eb3f4f814)" d="M 172.874797 54.689474 
L 423.9247 244.819873 
L 406.878102 293.158109 
L 103.138713 190.036537 
L 53.548609 149.754673 
L 69.045516 80.469867 
L 121.735002 30.520356 
" style="fill:none;stroke:#ff0000;stroke-linecap:square;stroke-width:0.2;"/>
   </g>
   <g id="line2d_2">
    <path clip-path="url(#p5eb3f4f814)" d="M 378.983668 303.631394 
L 121.735002 189.2309 
L 82.992733 163.450507 
L 93.840569 97.38825 
L 135.682219 61.94021 
L 177.52387 82.886779 
L 394.480576 264.960805 
" style="fill:none;stroke:#0000ff;stroke-linecap:square;stroke-width:0.2;"/>
   </g>
  </g>
 </g>
 <defs>
  <clipPath id="p5eb3f4f814">
   <rect height="307.51175" width="415.937" x="31.543" y="13.32"/>
  </clipPath>
 </defs>
</svg>
