<?xml version="1.0" encoding="utf-8" standalone="no"?>
<!DOCTYPE svg PUBLIC "-//W3C//DTD SVG 1.1//EN"
  "http://www.w3.org/Graphics/SVG/1.1/DTD/svg11.dtd">
<!-- Created with matplotlib (http://matplotlib.org/) -->
<svg height="345.6pt" version="1.1" viewBox="0 0 460.8 345.6" width="460.8pt" xmlns="http://www.w3.org/2000/svg" xmlns:xlink="http://www.w3.org/1999/xlink">
 <defs>
  <style type="text/css">
*{stroke-linecap:butt;stroke-linejoin:round;}
  </style>
 </defs>
 <g id="figure_1">
  <g id="patch_1">
   <path d="M 0 345.6 
L 460.8 345.6 
L 460.8 0 
L 0 0 
z
" style="fill:#ffffff;"/>
  </g>
  <g id="axes_1">
   <g id="patch_2">
    <path clip-path="url(#p7bdc1a22b0)" d="M 74.080764 38.329618 
C 74.554745 38.329618 75.009378 38.223947 75.344534 38.035878 
C 75.679689 37.847809 75.868004 37.592697 75.868004 37.326727 
C 75.868004 37.060756 75.679689 36.805644 75.344534 36.617575 
C 75.009378 36.429506 74.554745 36.323835 74.080764 36.323835 
C 73.606782 36.323835 73.152149 36.429506 72.816994 36.617575 
C 72.481838 36.805644 72.293523 37.060756 72.293523 37.326727 
C 72.293523 37.592697 72.481838 37.847809 72.816994 38.035878 
C 73.152149 38.223947 73.606782 38.329618 74.080764 38.329618 
z
" style="fill:#ff0000;opacity:0.2;stroke:#ff0000;stroke-linejoin:miter;stroke-width:2;"/>
   </g>
   <g id="patch_3">
    <path clip-path="url(#p7bdc1a22b0)" d="M 421.699055 127.587004 
C 422.173037 127.587004 422.627669 127.481333 422.962825 127.293263 
C 423.29798 127.105194 423.486295 126.850082 423.486295 126.584112 
C 423.486295 126.318142 423.29798 126.063029 422.962825 125.87496 
C 422.627669 125.686891 422.173037 125.58122 421.699055 125.58122 
C 421.225073 125.58122 420.770441 125.686891 420.435285 125.87496 
C 420.100129 126.063029 419.911814 126.318142 419.911814 126.584112 
C 419.911814 126.850082 420.100129 127.105194 420.435285 127.293263 
C 420.770441 127.481333 421.225073 127.587004 421.699055 127.587004 
z
" style="fill:#ff0000;opacity:0.2;stroke:#ff0000;stroke-linejoin:miter;stroke-width:2;"/>
   </g>
   <g id="patch_4">
    <path clip-path="url(#p7bdc1a22b0)" d="M 421.699055 157.172317 
C 422.173037 157.172317 422.627669 157.066646 422.962825 156.878577 
C 423.29798 156.690507 423.486295 156.435395 423.486295 156.169425 
C 423.486295 155.903455 423.29798 155.648342 422.962825 155.460273 
C 422.627669 155.272204 422.173037 155.166533 421.699055 155.166533 
C 421.225073 155.166533 420.770441 155.272204 420.435285 155.460273 
C 420.100129 155.648342 419.911814 155.903455 419.911814 156.169425 
C 419.911814 156.435395 420.100129 156.690507 420.435285 156.878577 
C 420.770441 157.066646 421.225073 157.172317 421.699055 157.172317 
z
" style="fill:#ff0000;opacity:0.2;stroke:#ff0000;stroke-linejoin:miter;stroke-width:2;"/>
   </g>
   <g id="patch_5">
    <path clip-path="url(#p7bdc1a22b0)" d="M 74.080764 245.928256 
C 74.554745 245.928256 75.009378 245.822585 75.344534 245.634516 
C 75.679689 245.446447 75.868004 245.191334 75.868004 244.925364 
C 75.868004 244.659394 75.679689 244.404282 75.344534 244.216212 
C 75.009378 244.028143 74.554745 243.922472 74.080764 243.922472 
C 73.606782 243.922472 73.152149 244.028143 72.816994 244.216212 
C 72.481838 244.404282 72.293523 244.659394 72.293523 244.925364 
C 72.293523 245.191334 72.481838 245.446447 72.816994 245.634516 
C 73.152149 245.822585 73.606782 245.928256 74.080764 245.928256 
z
" style="fill:#ff0000;opacity:0.2;stroke:#ff0000;stroke-linejoin:miter;stroke-width:2;"/>
   </g>
   <g id="patch_6">
    <path clip-path="url(#p7bdc1a22b0)" d="M 74.080764 204.809685 
C 74.554745 204.809685 75.009378 204.704014 75.344534 204.515945 
C 75.679689 204.327876 75.868004 204.072763 75.868004 203.806793 
C 75.868004 203.540823 75.679689 203.285711 75.344534 203.097642 
C 75.009378 202.909572 74.554745 202.803901 74.080764 202.803901 
C 73.606782 202.803901 73.152149 202.909572 72.816994 203.097642 
C 72.481838 203.285711 72.293523 203.540823 72.293523 203.806793 
C 72.293523 204.072763 72.481838 204.327876 72.816994 204.515945 
C 73.152149 204.704014 73.606782 204.809685 74.080764 204.809685 
z
" style="fill:#ff0000;opacity:0.2;stroke:#ff0000;stroke-linejoin:miter;stroke-width:2;"/>
   </g>
   <g id="patch_7">
    <path clip-path="url(#p7bdc1a22b0)" d="M 329.656165 142.630383 
C 330.130147 142.630383 330.58478 142.524712 330.919935 142.336643 
C 331.255091 142.148574 331.443406 141.893461 331.443406 141.627491 
C 331.443406 141.361521 331.255091 141.106409 330.919935 140.91834 
C 330.58478 140.73027 330.130147 140.624599 329.656165 140.624599 
C 329.182184 140.624599 328.727551 140.73027 328.392395 140.91834 
C 328.05724 141.106409 327.868925 141.361521 327.868925 141.627491 
C 327.868925 141.893461 328.05724 142.148574 328.392395 142.336643 
C 328.727551 142.524712 329.182184 142.630383 329.656165 142.630383 
z
" style="fill:#ff0000;opacity:0.2;stroke:#ff0000;stroke-linejoin:miter;stroke-width:2;"/>
   </g>
   <g id="patch_8">
    <path clip-path="url(#p7bdc1a22b0)" d="M 329.656165 141.627491 
C 330.130147 141.627491 330.58478 141.52182 330.919935 141.333751 
C 331.255091 141.145682 331.443406 140.890569 331.443406 140.624599 
C 331.443406 140.358629 331.255091 140.103517 330.919935 139.915448 
C 330.58478 139.727378 330.130147 139.621707 329.656165 139.621707 
C 329.182184 139.621707 328.727551 139.727378 328.392395 139.915448 
C 328.05724 140.103517 327.868925 140.358629 327.868925 140.624599 
C 327.868925 140.890569 328.05724 141.145682 328.392395 141.333751 
C 328.727551 141.52182 329.182184 141.627491 329.656165 141.627491 
z
" style="fill:#ff0000;opacity:0.2;stroke:#ff0000;stroke-linejoin:miter;stroke-width:2;"/>
   </g>
   <g id="patch_9">
    <path clip-path="url(#p7bdc1a22b0)" d="M 74.080764 79.949635 
C 74.554745 79.949635 75.009378 79.843964 75.344534 79.655895 
C 75.679689 79.467826 75.868004 79.212713 75.868004 78.946743 
C 75.868004 78.680773 75.679689 78.425661 75.344534 78.237592 
C 75.009378 78.049522 74.554745 77.943851 74.080764 77.943851 
C 73.606782 77.943851 73.152149 78.049522 72.816994 78.237592 
C 72.481838 78.425661 72.293523 78.680773 72.293523 78.946743 
C 72.293523 79.212713 72.481838 79.467826 72.816994 79.655895 
C 73.152149 79.843964 73.606782 79.949635 74.080764 79.949635 
z
" style="fill:#ff0000;opacity:0.2;stroke:#ff0000;stroke-linejoin:miter;stroke-width:2;"/>
   </g>
   <g id="patch_10">
    <path clip-path="url(#p7bdc1a22b0)" d="M 74.080764 49.36143 
C 74.554745 49.36143 75.009378 49.255759 75.344534 49.06769 
C 75.679689 48.879621 75.868004 48.624508 75.868004 48.358538 
C 75.868004 48.092568 75.679689 47.837456 75.344534 47.649386 
C 75.009378 47.461317 74.554745 47.355646 74.080764 47.355646 
C 73.606782 47.355646 73.152149 47.461317 72.816994 47.649386 
C 72.481838 47.837456 72.293523 48.092568 72.293523 48.358538 
C 72.293523 48.624508 72.481838 48.879621 72.816994 49.06769 
C 73.152149 49.255759 73.606782 49.36143 74.080764 49.36143 
z
" style="fill:#0000ff;opacity:0.2;stroke:#0000ff;stroke-linejoin:miter;stroke-width:2;"/>
   </g>
   <g id="patch_11">
    <path clip-path="url(#p7bdc1a22b0)" d="M 421.699055 142.128937 
C 422.173037 142.128937 422.627669 142.023266 422.962825 141.835197 
C 423.29798 141.647128 423.486295 141.392015 423.486295 141.126045 
C 423.486295 140.860075 423.29798 140.604963 422.962825 140.416894 
C 422.627669 140.228824 422.173037 140.123153 421.699055 140.123153 
C 421.225073 140.123153 420.770441 140.228824 420.435285 140.416894 
C 420.100129 140.604963 419.911814 140.860075 419.911814 141.126045 
C 419.911814 141.392015 420.100129 141.647128 420.435285 141.835197 
C 420.770441 142.023266 421.225073 142.128937 421.699055 142.128937 
z
" style="fill:#0000ff;opacity:0.2;stroke:#0000ff;stroke-linejoin:miter;stroke-width:2;"/>
   </g>
   <g id="patch_12">
    <path clip-path="url(#p7bdc1a22b0)" d="M 421.699055 164.694007 
C 422.173037 164.694007 422.627669 164.588336 422.962825 164.400266 
C 423.29798 164.212197 423.486295 163.957085 423.486295 163.691115 
C 423.486295 163.425145 423.29798 163.170032 422.962825 162.981963 
C 422.627669 162.793894 422.173037 162.688223 421.699055 162.688223 
C 421.225073 162.688223 420.770441 162.793894 420.435285 162.981963 
C 420.100129 163.170032 419.911814 163.425145 419.911814 163.691115 
C 419.911814 163.957085 420.100129 164.212197 420.435285 164.400266 
C 420.770441 164.588336 421.225073 164.694007 421.699055 164.694007 
z
" style="fill:#0000ff;opacity:0.2;stroke:#0000ff;stroke-linejoin:miter;stroke-width:2;"/>
   </g>
   <g id="patch_13">
    <path clip-path="url(#p7bdc1a22b0)" d="M 74.080764 256.960068 
C 74.554745 256.960068 75.009378 256.854397 75.344534 256.666327 
C 75.679689 256.478258 75.868004 256.223146 75.868004 255.957176 
C 75.868004 255.691206 75.679689 255.436093 75.344534 255.248024 
C 75.009378 255.059955 74.554745 254.954284 74.080764 254.954284 
C 73.606782 254.954284 73.152149 255.059955 72.816994 255.248024 
C 72.481838 255.436093 72.293523 255.691206 72.293523 255.957176 
C 72.293523 256.223146 72.481838 256.478258 72.816994 256.666327 
C 73.152149 256.854397 73.606782 256.960068 74.080764 256.960068 
z
" style="fill:#0000ff;opacity:0.2;stroke:#0000ff;stroke-linejoin:miter;stroke-width:2;"/>
   </g>
   <g id="patch_14">
    <path clip-path="url(#p7bdc1a22b0)" d="M 74.080764 228.377647 
C 74.554745 228.377647 75.009378 228.271976 75.344534 228.083906 
C 75.679689 227.895837 75.868004 227.640725 75.868004 227.374755 
C 75.868004 227.108785 75.679689 226.853672 75.344534 226.665603 
C 75.009378 226.477534 74.554745 226.371863 74.080764 226.371863 
C 73.606782 226.371863 73.152149 226.477534 72.816994 226.665603 
C 72.481838 226.853672 72.293523 227.108785 72.293523 227.374755 
C 72.293523 227.640725 72.481838 227.895837 72.816994 228.083906 
C 73.152149 228.271976 73.606782 228.377647 74.080764 228.377647 
z
" style="fill:#0000ff;opacity:0.2;stroke:#0000ff;stroke-linejoin:miter;stroke-width:2;"/>
   </g>
   <g id="patch_15">
    <path clip-path="url(#p7bdc1a22b0)" d="M 357.358394 153.662195 
C 357.832376 153.662195 358.287008 153.556524 358.622164 153.368455 
C 358.95732 153.180385 359.145635 152.925273 359.145635 152.659303 
C 359.145635 152.393333 358.95732 152.13822 358.622164 151.950151 
C 358.287008 151.762082 357.832376 151.656411 357.358394 151.656411 
C 356.884412 151.656411 356.42978 151.762082 356.094624 151.950151 
C 355.759469 152.13822 355.571154 152.393333 355.571154 152.659303 
C 355.571154 152.925273 355.759469 153.180385 356.094624 153.368455 
C 356.42978 153.556524 356.884412 153.662195 357.358394 153.662195 
z
" style="fill:#0000ff;opacity:0.2;stroke:#0000ff;stroke-linejoin:miter;stroke-width:2;"/>
   </g>
   <g id="patch_16">
    <path clip-path="url(#p7bdc1a22b0)" d="M 357.358394 152.659303 
C 357.832376 152.659303 358.287008 152.553632 358.622164 152.365563 
C 358.95732 152.177493 359.145635 151.922381 359.145635 151.656411 
C 359.145635 151.390441 358.95732 151.135328 358.622164 150.947259 
C 358.287008 150.75919 357.832376 150.653519 357.358394 150.653519 
C 356.884412 150.653519 356.42978 150.75919 356.094624 150.947259 
C 355.759469 151.135328 355.571154 151.390441 355.571154 151.656411 
C 355.571154 151.922381 355.759469 152.177493 356.094624 152.365563 
C 356.42978 152.553632 356.884412 152.659303 357.358394 152.659303 
z
" style="fill:#0000ff;opacity:0.2;stroke:#0000ff;stroke-linejoin:miter;stroke-width:2;"/>
   </g>
   <g id="patch_17">
    <path clip-path="url(#p7bdc1a22b0)" d="M 74.080764 78.445297 
C 74.554745 78.445297 75.009378 78.339626 75.344534 78.151557 
C 75.679689 77.963488 75.868004 77.708375 75.868004 77.442405 
C 75.868004 77.176435 75.679689 76.921323 75.344534 76.733254 
C 75.009378 76.545184 74.554745 76.439513 74.080764 76.439513 
C 73.606782 76.439513 73.152149 76.545184 72.816994 76.733254 
C 72.481838 76.921323 72.293523 77.176435 72.293523 77.442405 
C 72.293523 77.708375 72.481838 77.963488 72.816994 78.151557 
C 73.152149 78.339626 73.606782 78.445297 74.080764 78.445297 
z
" style="fill:#0000ff;opacity:0.2;stroke:#0000ff;stroke-linejoin:miter;stroke-width:2;"/>
   </g>
   <g id="patch_18">
    <path clip-path="url(#p7bdc1a22b0)" d="M 74.080764 37.326727 
L 421.699055 126.584112 
L 421.699055 156.169425 
L 74.080764 244.925364 
L 74.080764 203.806793 
L 329.656165 141.627491 
L 329.656165 140.624599 
L 74.080764 78.946743 
L 74.080764 37.326727 
" style="fill:none;stroke:#ff0000;stroke-linejoin:miter;stroke-width:0.5;"/>
   </g>
   <g id="patch_19">
    <path clip-path="url(#p7bdc1a22b0)" d="M 74.080764 48.358538 
L 421.699055 141.126045 
L 421.699055 163.691115 
L 74.080764 255.957176 
L 74.080764 227.374755 
L 357.358394 152.659303 
L 357.358394 151.656411 
L 74.080764 77.442405 
L 74.080764 48.358538 
" style="fill:none;stroke:#0000ff;stroke-linejoin:miter;stroke-width:0.5;"/>
   </g>
   <g id="[&quot;g_s&quot;:1,&quot;g_t&quot;:1,&quot;coords&quot;:[[116.0, -176.0],[116.0, -198.0]],&quot;certainty&quot;:10]">
    <path clip-path="url(#p7bdc1a22b0)" d="M 74.080764 40.084679 
C 75.384213 40.084679 76.634453 39.794084 77.556131 39.276894 
C 78.477809 38.759703 78.995675 38.058144 78.995675 37.326727 
C 78.995675 36.595309 78.477809 35.89375 77.556131 35.376559 
C 76.634453 34.859369 75.384213 34.568774 74.080764 34.568774 
C 72.777314 34.568774 71.527075 34.859369 70.605396 35.376559 
C 69.683718 35.89375 69.165852 36.595309 69.165852 37.326727 
C 69.165852 38.058144 69.683718 38.759703 70.605396 39.276894 
C 71.527075 39.794084 72.777314 40.084679 74.080764 40.084679 
z
" style="fill:#0000ff;opacity:0.2;stroke:#0000ff;stroke-linejoin:miter;stroke-width:2;"/>
   </g>
   <g id="[&quot;g_s&quot;:1,&quot;g_t&quot;:1,&quot;coords&quot;:[[116.0, -198.0],[116.0, -176.0]],&quot;certainty&quot;:10]">
    <path clip-path="url(#p7bdc1a22b0)" d="M 74.080764 51.116491 
C 75.384213 51.116491 76.634453 50.825896 77.556131 50.308705 
C 78.477809 49.791515 78.995675 49.089956 78.995675 48.358538 
C 78.995675 47.627121 78.477809 46.925561 77.556131 46.408371 
C 76.634453 45.891181 75.384213 45.600585 74.080764 45.600585 
C 72.777314 45.600585 71.527075 45.891181 70.605396 46.408371 
C 69.683718 46.925561 69.165852 47.627121 69.165852 48.358538 
C 69.165852 49.089956 69.683718 49.791515 70.605396 50.308705 
C 71.527075 50.825896 72.777314 51.116491 74.080764 51.116491 
z
" style="fill:#ff0000;opacity:0.2;stroke:#ff0000;stroke-linejoin:miter;stroke-width:2;"/>
   </g>
   <g id="patch_20">
    <path d="M 74.080764 37.326727 
Q 74.080764 41.842066 74.080764 44.412863 
" style="fill:none;opacity:0.5;stroke:#0000ff;stroke-linecap:round;stroke-width:2.75;"/>
    <path d="M 75.580764 42.912863 
L 74.080764 44.412863 
L 72.580764 42.912863 
" style="fill:none;opacity:0.5;stroke:#0000ff;stroke-linecap:round;stroke-width:2.75;"/>
   </g>
   <g id="[&quot;g_s&quot;:2,&quot;g_t&quot;:2,&quot;coords&quot;:[[505.0, -354.0],[505.0, -383.0]],&quot;certainty&quot;:9]">
    <path clip-path="url(#p7bdc1a22b0)" d="M 421.699055 129.091342 
C 422.884009 129.091342 424.02059 128.827164 424.85848 128.356991 
C 425.696369 127.886818 426.167156 127.249037 426.167156 126.584112 
C 426.167156 125.919187 425.696369 125.281406 424.85848 124.811232 
C 424.02059 124.341059 422.884009 124.076882 421.699055 124.076882 
C 420.5141 124.076882 419.377519 124.341059 418.53963 124.811232 
C 417.701741 125.281406 417.230953 125.919187 417.230953 126.584112 
C 417.230953 127.249037 417.701741 127.886818 418.53963 128.356991 
C 419.377519 128.827164 420.5141 129.091342 421.699055 129.091342 
z
" style="fill:#0000ff;opacity:0.2;stroke:#0000ff;stroke-linejoin:miter;stroke-width:2;"/>
   </g>
   <g id="[&quot;g_s&quot;:2,&quot;g_t&quot;:2,&quot;coords&quot;:[[505.0, -383.0],[505.0, -354.0]],&quot;certainty&quot;:9]">
    <path clip-path="url(#p7bdc1a22b0)" d="M 421.699055 143.633275 
C 422.884009 143.633275 424.02059 143.369098 424.85848 142.898925 
C 425.696369 142.428752 426.167156 141.79097 426.167156 141.126045 
C 426.167156 140.46112 425.696369 139.823339 424.85848 139.353166 
C 424.02059 138.882993 422.884009 138.618815 421.699055 138.618815 
C 420.5141 138.618815 419.377519 138.882993 418.53963 139.353166 
C 417.701741 139.823339 417.230953 140.46112 417.230953 141.126045 
C 417.230953 141.79097 417.701741 142.428752 418.53963 142.898925 
C 419.377519 143.369098 420.5141 143.633275 421.699055 143.633275 
z
" style="fill:#ff0000;opacity:0.2;stroke:#ff0000;stroke-linejoin:miter;stroke-width:2;"/>
   </g>
   <g id="patch_21">
    <path d="M 421.699055 126.584112 
Q 421.699055 132.855676 421.699055 137.359473 
" style="fill:none;opacity:0.5;stroke:#0000ff;stroke-linecap:round;stroke-width:2.5;"/>
    <path d="M 423.199055 135.859473 
L 421.699055 137.359473 
L 420.199055 135.859473 
" style="fill:none;opacity:0.5;stroke:#0000ff;stroke-linecap:round;stroke-width:2.5;"/>
   </g>
   <g id="[&quot;g_s&quot;:3,&quot;g_t&quot;:3,&quot;coords&quot;:[[505.0, -413.0],[505.0, -428.0]],&quot;certainty&quot;:11]">
    <path clip-path="url(#p7bdc1a22b0)" d="M 421.699055 159.178101 
C 423.121 159.178101 424.484897 158.861088 425.490365 158.29688 
C 426.495832 157.732672 427.060776 156.967335 427.060776 156.169425 
C 427.060776 155.371515 426.495832 154.606177 425.490365 154.04197 
C 424.484897 153.477762 423.121 153.160749 421.699055 153.160749 
C 420.27711 153.160749 418.913212 153.477762 417.907745 154.04197 
C 416.902278 154.606177 416.337333 155.371515 416.337333 156.169425 
C 416.337333 156.967335 416.902278 157.732672 417.907745 158.29688 
C 418.913212 158.861088 420.27711 159.178101 421.699055 159.178101 
z
" style="fill:#0000ff;opacity:0.2;stroke:#0000ff;stroke-linejoin:miter;stroke-width:2;"/>
   </g>
   <g id="[&quot;g_s&quot;:3,&quot;g_t&quot;:3,&quot;coords&quot;:[[505.0, -428.0],[505.0, -413.0]],&quot;certainty&quot;:11]">
    <path clip-path="url(#p7bdc1a22b0)" d="M 421.699055 166.699791 
C 423.121 166.699791 424.484897 166.382777 425.490365 165.81857 
C 426.495832 165.254362 427.060776 164.489025 427.060776 163.691115 
C 427.060776 162.893204 426.495832 162.127867 425.490365 161.563659 
C 424.484897 160.999452 423.121 160.682439 421.699055 160.682439 
C 420.27711 160.682439 418.913212 160.999452 417.907745 161.563659 
C 416.902278 162.127867 416.337333 162.893204 416.337333 163.691115 
C 416.337333 164.489025 416.902278 165.254362 417.907745 165.81857 
C 418.913212 166.382777 420.27711 166.699791 421.699055 166.699791 
z
" style="fill:#ff0000;opacity:0.2;stroke:#ff0000;stroke-linejoin:miter;stroke-width:2;"/>
   </g>
   <g id="patch_22">
    <path d="M 421.699055 156.169425 
Q 421.699055 158.929459 421.699055 159.568173 
" style="fill:none;opacity:0.5;stroke:#0000ff;stroke-linecap:round;stroke-width:3;"/>
    <path d="M 423.199055 158.068173 
L 421.699055 159.568173 
L 420.199055 158.068173 
" style="fill:none;opacity:0.5;stroke:#0000ff;stroke-linecap:round;stroke-width:3;"/>
   </g>
   <g id="[&quot;g_s&quot;:4,&quot;g_t&quot;:4,&quot;coords&quot;:[[116.0, -590.0],[116.0, -612.0]],&quot;certainty&quot;:11]">
    <path clip-path="url(#p7bdc1a22b0)" d="M 74.080764 247.93404 
C 75.502709 247.93404 76.866606 247.617027 77.872073 247.052819 
C 78.877541 246.488612 79.442485 245.723274 79.442485 244.925364 
C 79.442485 244.127454 78.877541 243.362117 77.872073 242.797909 
C 76.866606 242.233701 75.502709 241.916688 74.080764 241.916688 
C 72.658818 241.916688 71.294921 242.233701 70.289454 242.797909 
C 69.283987 243.362117 68.719042 244.127454 68.719042 244.925364 
C 68.719042 245.723274 69.283987 246.488612 70.289454 247.052819 
C 71.294921 247.617027 72.658818 247.93404 74.080764 247.93404 
z
" style="fill:#0000ff;opacity:0.2;stroke:#0000ff;stroke-linejoin:miter;stroke-width:2;"/>
   </g>
   <g id="[&quot;g_s&quot;:4,&quot;g_t&quot;:4,&quot;coords&quot;:[[116.0, -612.0],[116.0, -590.0]],&quot;certainty&quot;:11]">
    <path clip-path="url(#p7bdc1a22b0)" d="M 74.080764 258.965852 
C 75.502709 258.965852 76.866606 258.648839 77.872073 258.084631 
C 78.877541 257.520423 79.442485 256.755086 79.442485 255.957176 
C 79.442485 255.159266 78.877541 254.393928 77.872073 253.829721 
C 76.866606 253.265513 75.502709 252.9485 74.080764 252.9485 
C 72.658818 252.9485 71.294921 253.265513 70.289454 253.829721 
C 69.283987 254.393928 68.719042 255.159266 68.719042 255.957176 
C 68.719042 256.755086 69.283987 257.520423 70.289454 258.084631 
C 71.294921 258.648839 72.658818 258.965852 74.080764 258.965852 
z
" style="fill:#ff0000;opacity:0.2;stroke:#ff0000;stroke-linejoin:miter;stroke-width:2;"/>
   </g>
   <g id="patch_23">
    <path d="M 74.080764 244.925364 
Q 74.080764 249.440704 74.080764 251.834724 
" style="fill:none;opacity:0.5;stroke:#0000ff;stroke-linecap:round;stroke-width:3;"/>
    <path d="M 75.580764 250.334724 
L 74.080764 251.834724 
L 72.580764 250.334724 
" style="fill:none;opacity:0.5;stroke:#0000ff;stroke-linecap:round;stroke-width:3;"/>
   </g>
   <g id="[&quot;g_s&quot;:5,&quot;g_t&quot;:5,&quot;coords&quot;:[[116.0, -508.0],[116.0, -555.0]],&quot;certainty&quot;:11]">
    <path clip-path="url(#p7bdc1a22b0)" d="M 74.080764 206.815469 
C 75.502709 206.815469 76.866606 206.498456 77.872073 205.934249 
C 78.877541 205.370041 79.442485 204.604704 79.442485 203.806793 
C 79.442485 203.008883 78.877541 202.243546 77.872073 201.679338 
C 76.866606 201.115131 75.502709 200.798117 74.080764 200.798117 
C 72.658818 200.798117 71.294921 201.115131 70.289454 201.679338 
C 69.283987 202.243546 68.719042 203.008883 68.719042 203.806793 
C 68.719042 204.604704 69.283987 205.370041 70.289454 205.934249 
C 71.294921 206.498456 72.658818 206.815469 74.080764 206.815469 
z
" style="fill:#0000ff;opacity:0.2;stroke:#0000ff;stroke-linejoin:miter;stroke-width:2;"/>
   </g>
   <g id="[&quot;g_s&quot;:5,&quot;g_t&quot;:5,&quot;coords&quot;:[[116.0, -555.0],[116.0, -508.0]],&quot;certainty&quot;:11]">
    <path clip-path="url(#p7bdc1a22b0)" d="M 74.080764 230.383431 
C 75.502709 230.383431 76.866606 230.066417 77.872073 229.50221 
C 78.877541 228.938002 79.442485 228.172665 79.442485 227.374755 
C 79.442485 226.576844 78.877541 225.811507 77.872073 225.2473 
C 76.866606 224.683092 75.502709 224.366079 74.080764 224.366079 
C 72.658818 224.366079 71.294921 224.683092 70.289454 225.2473 
C 69.283987 225.811507 68.719042 226.576844 68.719042 227.374755 
C 68.719042 228.172665 69.283987 228.938002 70.289454 229.50221 
C 71.294921 230.066417 72.658818 230.383431 74.080764 230.383431 
z
" style="fill:#ff0000;opacity:0.2;stroke:#ff0000;stroke-linejoin:miter;stroke-width:2;"/>
   </g>
   <g id="patch_24">
    <path d="M 74.080764 203.806793 
Q 74.080764 214.591034 74.080764 223.253955 
" style="fill:none;opacity:0.5;stroke:#0000ff;stroke-linecap:round;stroke-width:3;"/>
    <path d="M 75.580764 221.753955 
L 74.080764 223.253955 
L 72.580764 221.753955 
" style="fill:none;opacity:0.5;stroke:#0000ff;stroke-linecap:round;stroke-width:3;"/>
   </g>
   <g id="[&quot;g_s&quot;:6,&quot;g_t&quot;:6,&quot;coords&quot;:[[402.0, -384.0],[433.0, -406.0]],&quot;certainty&quot;:1]">
    <path clip-path="url(#p7bdc1a22b0)" d="M 329.656165 142.128937 
C 329.893156 142.128937 330.120472 142.076102 330.28805 141.982067 
C 330.455628 141.888033 330.549786 141.760476 330.549786 141.627491 
C 330.549786 141.494506 330.455628 141.36695 330.28805 141.272915 
C 330.120472 141.178881 329.893156 141.126045 329.656165 141.126045 
C 329.419174 141.126045 329.191858 141.178881 329.02428 141.272915 
C 328.856703 141.36695 328.762545 141.494506 328.762545 141.627491 
C 328.762545 141.760476 328.856703 141.888033 329.02428 141.982067 
C 329.191858 142.076102 329.419174 142.128937 329.656165 142.128937 
z
" style="fill:#0000ff;opacity:0.2;stroke:#0000ff;stroke-linejoin:miter;stroke-width:2;"/>
   </g>
   <g id="[&quot;g_s&quot;:6,&quot;g_t&quot;:6,&quot;coords&quot;:[[433.0, -406.0],[402.0, -384.0]],&quot;certainty&quot;:1]">
    <path clip-path="url(#p7bdc1a22b0)" d="M 357.358394 153.160749 
C 357.595385 153.160749 357.822701 153.107913 357.990279 153.013879 
C 358.157857 152.919844 358.252014 152.792288 358.252014 152.659303 
C 358.252014 152.526318 358.157857 152.398762 357.990279 152.304727 
C 357.822701 152.210692 357.595385 152.157857 357.358394 152.157857 
C 357.121403 152.157857 356.894087 152.210692 356.726509 152.304727 
C 356.558931 152.398762 356.464774 152.526318 356.464774 152.659303 
C 356.464774 152.792288 356.558931 152.919844 356.726509 153.013879 
C 356.894087 153.107913 357.121403 153.160749 357.358394 153.160749 
z
" style="fill:#ff0000;opacity:0.2;stroke:#ff0000;stroke-linejoin:miter;stroke-width:2;"/>
   </g>
   <g id="patch_25">
    <path d="M 329.656165 141.627491 
Q 342.579025 146.77374 355.173419 151.789184 
" style="fill:none;opacity:0.5;stroke:#0000ff;stroke-linecap:round;stroke-width:0.5;"/>
    <path d="M 354.334811 149.840662 
L 355.173419 151.789184 
L 353.224897 152.627792 
" style="fill:none;opacity:0.5;stroke:#0000ff;stroke-linecap:round;stroke-width:0.5;"/>
   </g>
   <g id="[&quot;g_s&quot;:7,&quot;g_t&quot;:2,&quot;coords&quot;:[[402.0, -382.0],[505.0, -383.0]],&quot;certainty&quot;:1]">
    <path clip-path="url(#p7bdc1a22b0)" d="M 329.656165 141.126045 
C 329.893156 141.126045 330.120472 141.07321 330.28805 140.979175 
C 330.455628 140.885141 330.549786 140.757584 330.549786 140.624599 
C 330.549786 140.491614 330.455628 140.364058 330.28805 140.270023 
C 330.120472 140.175989 329.893156 140.123153 329.656165 140.123153 
C 329.419174 140.123153 329.191858 140.175989 329.02428 140.270023 
C 328.856703 140.364058 328.762545 140.491614 328.762545 140.624599 
C 328.762545 140.757584 328.856703 140.885141 329.02428 140.979175 
C 329.191858 141.07321 329.419174 141.126045 329.656165 141.126045 
z
" style="fill:#0000ff;opacity:0.2;stroke:#0000ff;stroke-linejoin:miter;stroke-width:2;"/>
   </g>
   <g id="[&quot;g_s&quot;:2,&quot;g_t&quot;:7,&quot;coords&quot;:[[505.0, -383.0],[402.0, -382.0]],&quot;certainty&quot;:1]">
    <path clip-path="url(#p7bdc1a22b0)" d="M 421.699055 141.627491 
C 421.936046 141.627491 422.163362 141.574656 422.33094 141.480621 
C 422.498518 141.386587 422.592675 141.25903 422.592675 141.126045 
C 422.592675 140.99306 422.498518 140.865504 422.33094 140.771469 
C 422.163362 140.677435 421.936046 140.624599 421.699055 140.624599 
C 421.462064 140.624599 421.234748 140.677435 421.06717 140.771469 
C 420.899592 140.865504 420.805434 140.99306 420.805434 141.126045 
C 420.805434 141.25903 420.899592 141.386587 421.06717 141.480621 
C 421.234748 141.574656 421.462064 141.627491 421.699055 141.627491 
z
" style="fill:#ff0000;opacity:0.2;stroke:#ff0000;stroke-linejoin:miter;stroke-width:2;"/>
   </g>
   <g id="patch_26">
    <path d="M 329.656165 140.624599 
Q 374.676228 140.869867 419.342742 141.113208 
" style="fill:none;opacity:0.5;stroke:#0000ff;stroke-linecap:round;stroke-width:0.5;"/>
    <path d="M 417.850936 139.605059 
L 419.342742 141.113208 
L 417.834593 142.605014 
" style="fill:none;opacity:0.5;stroke:#0000ff;stroke-linecap:round;stroke-width:0.5;"/>
   </g>
   <g id="[&quot;g_s&quot;:8,&quot;g_t&quot;:8,&quot;coords&quot;:[[116.0, -259.0],[116.0, -256.0]],&quot;certainty&quot;:11]">
    <path clip-path="url(#p7bdc1a22b0)" d="M 74.080764 81.955419 
C 75.502709 81.955419 76.866606 81.638406 77.872073 81.074198 
C 78.877541 80.509991 79.442485 79.744653 79.442485 78.946743 
C 79.442485 78.148833 78.877541 77.383496 77.872073 76.819288 
C 76.866606 76.25508 75.502709 75.938067 74.080764 75.938067 
C 72.658818 75.938067 71.294921 76.25508 70.289454 76.819288 
C 69.283987 77.383496 68.719042 78.148833 68.719042 78.946743 
C 68.719042 79.744653 69.283987 80.509991 70.289454 81.074198 
C 71.294921 81.638406 72.658818 81.955419 74.080764 81.955419 
z
" style="fill:#0000ff;opacity:0.2;stroke:#0000ff;stroke-linejoin:miter;stroke-width:2;"/>
   </g>
   <g id="[&quot;g_s&quot;:8,&quot;g_t&quot;:8,&quot;coords&quot;:[[116.0, -256.0],[116.0, -259.0]],&quot;certainty&quot;:11]">
    <path clip-path="url(#p7bdc1a22b0)" d="M 74.080764 80.451081 
C 75.502709 80.451081 76.866606 80.134068 77.872073 79.56986 
C 78.877541 79.005653 79.442485 78.240315 79.442485 77.442405 
C 79.442485 76.644495 78.877541 75.879158 77.872073 75.31495 
C 76.866606 74.750742 75.502709 74.433729 74.080764 74.433729 
C 72.658818 74.433729 71.294921 74.750742 70.289454 75.31495 
C 69.283987 75.879158 68.719042 76.644495 68.719042 77.442405 
C 68.719042 78.240315 69.283987 79.005653 70.289454 79.56986 
C 71.294921 80.134068 72.658818 80.451081 74.080764 80.451081 
z
" style="fill:#ff0000;opacity:0.2;stroke:#ff0000;stroke-linejoin:miter;stroke-width:2;"/>
   </g>
   <g id="patch_27">
    <path d="M 74.080764 78.946743 
Q 74.080764 78.194574 74.080764 79.563726 
" style="fill:none;opacity:0.5;stroke:#0000ff;stroke-linecap:round;stroke-width:3;"/>
    <path d="M 72.580764 81.063726 
L 74.080764 79.563726 
L 75.580764 81.063726 
" style="fill:none;opacity:0.5;stroke:#0000ff;stroke-linecap:round;stroke-width:3;"/>
   </g>
   <g id="[&quot;g_s&quot;:1,&quot;g_t&quot;:1,&quot;coords&quot;:[[116.0, -198.0],[116.0, -176.0]],&quot;certainty&quot;:10]">
    <path clip-path="url(#p7bdc1a22b0)" d="M 74.080764 51.116491 
C 75.384213 51.116491 76.634453 50.825896 77.556131 50.308705 
C 78.477809 49.791515 78.995675 49.089956 78.995675 48.358538 
C 78.995675 47.627121 78.477809 46.925561 77.556131 46.408371 
C 76.634453 45.891181 75.384213 45.600585 74.080764 45.600585 
C 72.777314 45.600585 71.527075 45.891181 70.605396 46.408371 
C 69.683718 46.925561 69.165852 47.627121 69.165852 48.358538 
C 69.165852 49.089956 69.683718 49.791515 70.605396 50.308705 
C 71.527075 50.825896 72.777314 51.116491 74.080764 51.116491 
z
" style="fill:#0000ff;opacity:0.2;stroke:#0000ff;stroke-linejoin:miter;stroke-width:2;"/>
   </g>
   <g id="[&quot;g_s&quot;:1,&quot;g_t&quot;:1,&quot;coords&quot;:[[116.0, -176.0],[116.0, -198.0]],&quot;certainty&quot;:10]">
    <path clip-path="url(#p7bdc1a22b0)" d="M 74.080764 40.084679 
C 75.384213 40.084679 76.634453 39.794084 77.556131 39.276894 
C 78.477809 38.759703 78.995675 38.058144 78.995675 37.326727 
C 78.995675 36.595309 78.477809 35.89375 77.556131 35.376559 
C 76.634453 34.859369 75.384213 34.568774 74.080764 34.568774 
C 72.777314 34.568774 71.527075 34.859369 70.605396 35.376559 
C 69.683718 35.89375 69.165852 36.595309 69.165852 37.326727 
C 69.165852 38.058144 69.683718 38.759703 70.605396 39.276894 
C 71.527075 39.794084 72.777314 40.084679 74.080764 40.084679 
z
" style="fill:#ff0000;opacity:0.2;stroke:#ff0000;stroke-linejoin:miter;stroke-width:2;"/>
   </g>
   <g id="patch_28">
    <path d="M 74.080764 48.358538 
Q 74.080764 43.843198 74.080764 41.272402 
" style="fill:none;opacity:0.5;stroke:#ff0000;stroke-linecap:round;stroke-width:2.75;"/>
    <path d="M 72.580764 42.772402 
L 74.080764 41.272402 
L 75.580764 42.772402 
" style="fill:none;opacity:0.5;stroke:#ff0000;stroke-linecap:round;stroke-width:2.75;"/>
   </g>
   <g id="[&quot;g_s&quot;:2,&quot;g_t&quot;:2,&quot;coords&quot;:[[505.0, -383.0],[505.0, -354.0]],&quot;certainty&quot;:10]">
    <path clip-path="url(#p7bdc1a22b0)" d="M 421.699055 143.883998 
C 423.002505 143.883998 424.252744 143.593403 425.174422 143.076213 
C 426.0961 142.559022 426.613966 141.857463 426.613966 141.126045 
C 426.613966 140.394628 426.0961 139.693068 425.174422 139.175878 
C 424.252744 138.658688 423.002505 138.368092 421.699055 138.368092 
C 420.395605 138.368092 419.145366 138.658688 418.223687 139.175878 
C 417.302009 139.693068 416.784143 140.394628 416.784143 141.126045 
C 416.784143 141.857463 417.302009 142.559022 418.223687 143.076213 
C 419.145366 143.593403 420.395605 143.883998 421.699055 143.883998 
z
" style="fill:#0000ff;opacity:0.2;stroke:#0000ff;stroke-linejoin:miter;stroke-width:2;"/>
   </g>
   <g id="[&quot;g_s&quot;:2,&quot;g_t&quot;:2,&quot;coords&quot;:[[505.0, -354.0],[505.0, -383.0]],&quot;certainty&quot;:10]">
    <path clip-path="url(#p7bdc1a22b0)" d="M 421.699055 129.342065 
C 423.002505 129.342065 424.252744 129.051469 425.174422 128.534279 
C 426.0961 128.017089 426.613966 127.315529 426.613966 126.584112 
C 426.613966 125.852694 426.0961 125.151135 425.174422 124.633945 
C 424.252744 124.116754 423.002505 123.826159 421.699055 123.826159 
C 420.395605 123.826159 419.145366 124.116754 418.223687 124.633945 
C 417.302009 125.151135 416.784143 125.852694 416.784143 126.584112 
C 416.784143 127.315529 417.302009 128.017089 418.223687 128.534279 
C 419.145366 129.051469 420.395605 129.342065 421.699055 129.342065 
z
" style="fill:#ff0000;opacity:0.2;stroke:#ff0000;stroke-linejoin:miter;stroke-width:2;"/>
   </g>
   <g id="patch_29">
    <path d="M 421.699055 141.126045 
Q 421.699055 134.854481 421.699055 130.527461 
" style="fill:none;opacity:0.5;stroke:#ff0000;stroke-linecap:round;stroke-width:2.75;"/>
    <path d="M 420.199055 132.027461 
L 421.699055 130.527461 
L 423.199055 132.027461 
" style="fill:none;opacity:0.5;stroke:#ff0000;stroke-linecap:round;stroke-width:2.75;"/>
   </g>
   <g id="[&quot;g_s&quot;:3,&quot;g_t&quot;:3,&quot;coords&quot;:[[505.0, -428.0],[505.0, -413.0]],&quot;certainty&quot;:11]">
    <path clip-path="url(#p7bdc1a22b0)" d="M 421.699055 166.699791 
C 423.121 166.699791 424.484897 166.382777 425.490365 165.81857 
C 426.495832 165.254362 427.060776 164.489025 427.060776 163.691115 
C 427.060776 162.893204 426.495832 162.127867 425.490365 161.563659 
C 424.484897 160.999452 423.121 160.682439 421.699055 160.682439 
C 420.27711 160.682439 418.913212 160.999452 417.907745 161.563659 
C 416.902278 162.127867 416.337333 162.893204 416.337333 163.691115 
C 416.337333 164.489025 416.902278 165.254362 417.907745 165.81857 
C 418.913212 166.382777 420.27711 166.699791 421.699055 166.699791 
z
" style="fill:#0000ff;opacity:0.2;stroke:#0000ff;stroke-linejoin:miter;stroke-width:2;"/>
   </g>
   <g id="[&quot;g_s&quot;:3,&quot;g_t&quot;:3,&quot;coords&quot;:[[505.0, -413.0],[505.0, -428.0]],&quot;certainty&quot;:11]">
    <path clip-path="url(#p7bdc1a22b0)" d="M 421.699055 159.178101 
C 423.121 159.178101 424.484897 158.861088 425.490365 158.29688 
C 426.495832 157.732672 427.060776 156.967335 427.060776 156.169425 
C 427.060776 155.371515 426.495832 154.606177 425.490365 154.04197 
C 424.484897 153.477762 423.121 153.160749 421.699055 153.160749 
C 420.27711 153.160749 418.913212 153.477762 417.907745 154.04197 
C 416.902278 154.606177 416.337333 155.371515 416.337333 156.169425 
C 416.337333 156.967335 416.902278 157.732672 417.907745 158.29688 
C 418.913212 158.861088 420.27711 159.178101 421.699055 159.178101 
z
" style="fill:#ff0000;opacity:0.2;stroke:#ff0000;stroke-linejoin:miter;stroke-width:2;"/>
   </g>
   <g id="patch_30">
    <path d="M 421.699055 163.691115 
Q 421.699055 160.93108 421.699055 160.292367 
" style="fill:none;opacity:0.5;stroke:#ff0000;stroke-linecap:round;stroke-width:3;"/>
    <path d="M 420.199055 161.792367 
L 421.699055 160.292367 
L 423.199055 161.792367 
" style="fill:none;opacity:0.5;stroke:#ff0000;stroke-linecap:round;stroke-width:3;"/>
   </g>
   <g id="[&quot;g_s&quot;:4,&quot;g_t&quot;:4,&quot;coords&quot;:[[116.0, -612.0],[116.0, -590.0]],&quot;certainty&quot;:11]">
    <path clip-path="url(#p7bdc1a22b0)" d="M 74.080764 258.965852 
C 75.502709 258.965852 76.866606 258.648839 77.872073 258.084631 
C 78.877541 257.520423 79.442485 256.755086 79.442485 255.957176 
C 79.442485 255.159266 78.877541 254.393928 77.872073 253.829721 
C 76.866606 253.265513 75.502709 252.9485 74.080764 252.9485 
C 72.658818 252.9485 71.294921 253.265513 70.289454 253.829721 
C 69.283987 254.393928 68.719042 255.159266 68.719042 255.957176 
C 68.719042 256.755086 69.283987 257.520423 70.289454 258.084631 
C 71.294921 258.648839 72.658818 258.965852 74.080764 258.965852 
z
" style="fill:#0000ff;opacity:0.2;stroke:#0000ff;stroke-linejoin:miter;stroke-width:2;"/>
   </g>
   <g id="[&quot;g_s&quot;:4,&quot;g_t&quot;:4,&quot;coords&quot;:[[116.0, -590.0],[116.0, -612.0]],&quot;certainty&quot;:11]">
    <path clip-path="url(#p7bdc1a22b0)" d="M 74.080764 247.93404 
C 75.502709 247.93404 76.866606 247.617027 77.872073 247.052819 
C 78.877541 246.488612 79.442485 245.723274 79.442485 244.925364 
C 79.442485 244.127454 78.877541 243.362117 77.872073 242.797909 
C 76.866606 242.233701 75.502709 241.916688 74.080764 241.916688 
C 72.658818 241.916688 71.294921 242.233701 70.289454 242.797909 
C 69.283987 243.362117 68.719042 244.127454 68.719042 244.925364 
C 68.719042 245.723274 69.283987 246.488612 70.289454 247.052819 
C 71.294921 247.617027 72.658818 247.93404 74.080764 247.93404 
z
" style="fill:#ff0000;opacity:0.2;stroke:#ff0000;stroke-linejoin:miter;stroke-width:2;"/>
   </g>
   <g id="patch_31">
    <path d="M 74.080764 255.957176 
Q 74.080764 251.441836 74.080764 249.047816 
" style="fill:none;opacity:0.5;stroke:#ff0000;stroke-linecap:round;stroke-width:3;"/>
    <path d="M 72.580764 250.547816 
L 74.080764 249.047816 
L 75.580764 250.547816 
" style="fill:none;opacity:0.5;stroke:#ff0000;stroke-linecap:round;stroke-width:3;"/>
   </g>
   <g id="[&quot;g_s&quot;:5,&quot;g_t&quot;:5,&quot;coords&quot;:[[116.0, -555.0],[116.0, -508.0]],&quot;certainty&quot;:11]">
    <path clip-path="url(#p7bdc1a22b0)" d="M 74.080764 230.383431 
C 75.502709 230.383431 76.866606 230.066417 77.872073 229.50221 
C 78.877541 228.938002 79.442485 228.172665 79.442485 227.374755 
C 79.442485 226.576844 78.877541 225.811507 77.872073 225.2473 
C 76.866606 224.683092 75.502709 224.366079 74.080764 224.366079 
C 72.658818 224.366079 71.294921 224.683092 70.289454 225.2473 
C 69.283987 225.811507 68.719042 226.576844 68.719042 227.374755 
C 68.719042 228.172665 69.283987 228.938002 70.289454 229.50221 
C 71.294921 230.066417 72.658818 230.383431 74.080764 230.383431 
z
" style="fill:#0000ff;opacity:0.2;stroke:#0000ff;stroke-linejoin:miter;stroke-width:2;"/>
   </g>
   <g id="[&quot;g_s&quot;:5,&quot;g_t&quot;:5,&quot;coords&quot;:[[116.0, -508.0],[116.0, -555.0]],&quot;certainty&quot;:11]">
    <path clip-path="url(#p7bdc1a22b0)" d="M 74.080764 206.815469 
C 75.502709 206.815469 76.866606 206.498456 77.872073 205.934249 
C 78.877541 205.370041 79.442485 204.604704 79.442485 203.806793 
C 79.442485 203.008883 78.877541 202.243546 77.872073 201.679338 
C 76.866606 201.115131 75.502709 200.798117 74.080764 200.798117 
C 72.658818 200.798117 71.294921 201.115131 70.289454 201.679338 
C 69.283987 202.243546 68.719042 203.008883 68.719042 203.806793 
C 68.719042 204.604704 69.283987 205.370041 70.289454 205.934249 
C 71.294921 206.498456 72.658818 206.815469 74.080764 206.815469 
z
" style="fill:#ff0000;opacity:0.2;stroke:#ff0000;stroke-linejoin:miter;stroke-width:2;"/>
   </g>
   <g id="patch_32">
    <path d="M 74.080764 227.374755 
Q 74.080764 216.590514 74.080764 207.927593 
" style="fill:none;opacity:0.5;stroke:#ff0000;stroke-linecap:round;stroke-width:3;"/>
    <path d="M 72.580764 209.427593 
L 74.080764 207.927593 
L 75.580764 209.427593 
" style="fill:none;opacity:0.5;stroke:#ff0000;stroke-linecap:round;stroke-width:3;"/>
   </g>
   <g id="[&quot;g_s&quot;:6,&quot;g_t&quot;:6,&quot;coords&quot;:[[433.0, -406.0],[402.0, -384.0]],&quot;certainty&quot;:1]">
    <path clip-path="url(#p7bdc1a22b0)" d="M 357.358394 153.160749 
C 357.595385 153.160749 357.822701 153.107913 357.990279 153.013879 
C 358.157857 152.919844 358.252014 152.792288 358.252014 152.659303 
C 358.252014 152.526318 358.157857 152.398762 357.990279 152.304727 
C 357.822701 152.210692 357.595385 152.157857 357.358394 152.157857 
C 357.121403 152.157857 356.894087 152.210692 356.726509 152.304727 
C 356.558931 152.398762 356.464774 152.526318 356.464774 152.659303 
C 356.464774 152.792288 356.558931 152.919844 356.726509 153.013879 
C 356.894087 153.107913 357.121403 153.160749 357.358394 153.160749 
z
" style="fill:#0000ff;opacity:0.2;stroke:#0000ff;stroke-linejoin:miter;stroke-width:2;"/>
   </g>
   <g id="[&quot;g_s&quot;:6,&quot;g_t&quot;:6,&quot;coords&quot;:[[402.0, -384.0],[433.0, -406.0]],&quot;certainty&quot;:1]">
    <path clip-path="url(#p7bdc1a22b0)" d="M 329.656165 142.128937 
C 329.893156 142.128937 330.120472 142.076102 330.28805 141.982067 
C 330.455628 141.888033 330.549786 141.760476 330.549786 141.627491 
C 330.549786 141.494506 330.455628 141.36695 330.28805 141.272915 
C 330.120472 141.178881 329.893156 141.126045 329.656165 141.126045 
C 329.419174 141.126045 329.191858 141.178881 329.02428 141.272915 
C 328.856703 141.36695 328.762545 141.494506 328.762545 141.627491 
C 328.762545 141.760476 328.856703 141.888033 329.02428 141.982067 
C 329.191858 142.076102 329.419174 142.128937 329.656165 142.128937 
z
" style="fill:#ff0000;opacity:0.2;stroke:#ff0000;stroke-linejoin:miter;stroke-width:2;"/>
   </g>
   <g id="patch_33">
    <path d="M 357.358394 152.659303 
Q 344.435534 147.513054 331.841141 142.49761 
" style="fill:none;opacity:0.5;stroke:#ff0000;stroke-linecap:round;stroke-width:0.5;"/>
    <path d="M 332.679749 144.446132 
L 331.841141 142.49761 
L 333.789663 141.659003 
" style="fill:none;opacity:0.5;stroke:#ff0000;stroke-linecap:round;stroke-width:0.5;"/>
   </g>
   <g id="[&quot;g_s&quot;:7,&quot;g_t&quot;:7,&quot;coords&quot;:[[433.0, -404.0],[402.0, -382.0]],&quot;certainty&quot;:12]">
    <path clip-path="url(#p7bdc1a22b0)" d="M 357.358394 154.91581 
C 358.898835 154.91581 360.37639 154.572379 361.465646 153.961154 
C 362.554902 153.349929 363.166926 152.520814 363.166926 151.656411 
C 363.166926 150.792008 362.554902 149.962893 361.465646 149.351668 
C 360.37639 148.740443 358.898835 148.397012 357.358394 148.397012 
C 355.817954 148.397012 354.340398 148.740443 353.251142 149.351668 
C 352.161886 149.962893 351.549862 150.792008 351.549862 151.656411 
C 351.549862 152.520814 352.161886 153.349929 353.251142 153.961154 
C 354.340398 154.572379 355.817954 154.91581 357.358394 154.91581 
z
" style="fill:#0000ff;opacity:0.2;stroke:#0000ff;stroke-linejoin:miter;stroke-width:2;"/>
   </g>
   <g id="[&quot;g_s&quot;:7,&quot;g_t&quot;:7,&quot;coords&quot;:[[402.0, -382.0],[433.0, -404.0]],&quot;certainty&quot;:12]">
    <path clip-path="url(#p7bdc1a22b0)" d="M 329.656165 143.883998 
C 331.196606 143.883998 332.674162 143.540567 333.763418 142.929342 
C 334.852674 142.318117 335.464697 141.489002 335.464697 140.624599 
C 335.464697 139.760197 334.852674 138.931081 333.763418 138.319856 
C 332.674162 137.708631 331.196606 137.3652 329.656165 137.3652 
C 328.115725 137.3652 326.638169 137.708631 325.548913 138.319856 
C 324.459657 138.931081 323.847633 139.760197 323.847633 140.624599 
C 323.847633 141.489002 324.459657 142.318117 325.548913 142.929342 
C 326.638169 143.540567 328.115725 143.883998 329.656165 143.883998 
z
" style="fill:#ff0000;opacity:0.2;stroke:#ff0000;stroke-linejoin:miter;stroke-width:2;"/>
   </g>
   <g id="patch_34">
    <path d="M 357.358394 151.656411 
Q 344.435534 146.510162 333.647706 142.214144 
" style="fill:none;opacity:0.5;stroke:#ff0000;stroke-linecap:round;stroke-width:3.25;"/>
    <path d="M 334.486314 144.162665 
L 333.647706 142.214144 
L 335.596228 141.375536 
" style="fill:none;opacity:0.5;stroke:#ff0000;stroke-linecap:round;stroke-width:3.25;"/>
   </g>
   <g id="[&quot;g_s&quot;:8,&quot;g_t&quot;:8,&quot;coords&quot;:[[116.0, -256.0],[116.0, -259.0]],&quot;certainty&quot;:11]">
    <path clip-path="url(#p7bdc1a22b0)" d="M 74.080764 80.451081 
C 75.502709 80.451081 76.866606 80.134068 77.872073 79.56986 
C 78.877541 79.005653 79.442485 78.240315 79.442485 77.442405 
C 79.442485 76.644495 78.877541 75.879158 77.872073 75.31495 
C 76.866606 74.750742 75.502709 74.433729 74.080764 74.433729 
C 72.658818 74.433729 71.294921 74.750742 70.289454 75.31495 
C 69.283987 75.879158 68.719042 76.644495 68.719042 77.442405 
C 68.719042 78.240315 69.283987 79.005653 70.289454 79.56986 
C 71.294921 80.134068 72.658818 80.451081 74.080764 80.451081 
z
" style="fill:#0000ff;opacity:0.2;stroke:#0000ff;stroke-linejoin:miter;stroke-width:2;"/>
   </g>
   <g id="[&quot;g_s&quot;:8,&quot;g_t&quot;:8,&quot;coords&quot;:[[116.0, -259.0],[116.0, -256.0]],&quot;certainty&quot;:11]">
    <path clip-path="url(#p7bdc1a22b0)" d="M 74.080764 81.955419 
C 75.502709 81.955419 76.866606 81.638406 77.872073 81.074198 
C 78.877541 80.509991 79.442485 79.744653 79.442485 78.946743 
C 79.442485 78.148833 78.877541 77.383496 77.872073 76.819288 
C 76.866606 76.25508 75.502709 75.938067 74.080764 75.938067 
C 72.658818 75.938067 71.294921 76.25508 70.289454 76.819288 
C 69.283987 77.383496 68.719042 78.148833 68.719042 78.946743 
C 68.719042 79.744653 69.283987 80.509991 70.289454 81.074198 
C 71.294921 81.638406 72.658818 81.955419 74.080764 81.955419 
z
" style="fill:#ff0000;opacity:0.2;stroke:#ff0000;stroke-linejoin:miter;stroke-width:2;"/>
   </g>
   <g id="patch_35">
    <path d="M 74.080764 77.442405 
Q 74.080764 78.194574 74.080764 76.825423 
" style="fill:none;opacity:0.5;stroke:#ff0000;stroke-linecap:round;stroke-width:3;"/>
    <path d="M 75.580764 75.325423 
L 74.080764 76.825423 
L 72.580764 75.325423 
" style="fill:none;opacity:0.5;stroke:#ff0000;stroke-linecap:round;stroke-width:3;"/>
   </g>
   <g id="patch_36">
    <path clip-path="url(#p7bdc1a22b0)" d="M 74.080764 45.349862 
C 75.265718 45.349862 76.402299 45.085685 77.240188 44.615512 
C 78.078078 44.145339 78.548865 43.507557 78.548865 42.842632 
C 78.548865 42.177707 78.078078 41.539926 77.240188 41.069753 
C 76.402299 40.59958 75.265718 40.335402 74.080764 40.335402 
C 72.895809 40.335402 71.759228 40.59958 70.921339 41.069753 
C 70.08345 41.539926 69.612662 42.177707 69.612662 42.842632 
C 69.612662 43.507557 70.08345 44.145339 70.921339 44.615512 
C 71.759228 45.085685 72.895809 45.349862 74.080764 45.349862 
z
" style="fill:#008000;opacity:0.2;stroke:#008000;stroke-linejoin:miter;stroke-width:2;"/>
   </g>
   <g id="patch_37">
    <path clip-path="url(#p7bdc1a22b0)" d="M 421.699055 136.362308 
C 422.884009 136.362308 424.02059 136.098131 424.85848 135.627958 
C 425.696369 135.157785 426.167156 134.520004 426.167156 133.855079 
C 426.167156 133.190153 425.696369 132.552372 424.85848 132.082199 
C 424.02059 131.612026 422.884009 131.347849 421.699055 131.347849 
C 420.5141 131.347849 419.377519 131.612026 418.53963 132.082199 
C 417.701741 132.552372 417.230953 133.190153 417.230953 133.855079 
C 417.230953 134.520004 417.701741 135.157785 418.53963 135.627958 
C 419.377519 136.098131 420.5141 136.362308 421.699055 136.362308 
z
" style="fill:#008000;opacity:0.2;stroke:#008000;stroke-linejoin:miter;stroke-width:2;"/>
   </g>
   <g id="patch_38">
    <path clip-path="url(#p7bdc1a22b0)" d="M 421.699055 162.4375 
C 422.884009 162.4375 424.02059 162.173322 424.85848 161.703149 
C 425.696369 161.232976 426.167156 160.595195 426.167156 159.93027 
C 426.167156 159.265345 425.696369 158.627564 424.85848 158.15739 
C 424.02059 157.687217 422.884009 157.42304 421.699055 157.42304 
C 420.5141 157.42304 419.377519 157.687217 418.53963 158.15739 
C 417.701741 158.627564 417.230953 159.265345 417.230953 159.93027 
C 417.230953 160.595195 417.701741 161.232976 418.53963 161.703149 
C 419.377519 162.173322 420.5141 162.4375 421.699055 162.4375 
z
" style="fill:#008000;opacity:0.2;stroke:#008000;stroke-linejoin:miter;stroke-width:2;"/>
   </g>
   <g id="patch_39">
    <path clip-path="url(#p7bdc1a22b0)" d="M 74.080764 252.9485 
C 75.265718 252.9485 76.402299 252.684322 77.240188 252.214149 
C 78.078078 251.743976 78.548865 251.106195 78.548865 250.44127 
C 78.548865 249.776345 78.078078 249.138564 77.240188 248.668391 
C 76.402299 248.198218 75.265718 247.93404 74.080764 247.93404 
C 72.895809 247.93404 71.759228 248.198218 70.921339 248.668391 
C 70.08345 249.138564 69.612662 249.776345 69.612662 250.44127 
C 69.612662 251.106195 70.08345 251.743976 70.921339 252.214149 
C 71.759228 252.684322 72.895809 252.9485 74.080764 252.9485 
z
" style="fill:#008000;opacity:0.2;stroke:#008000;stroke-linejoin:miter;stroke-width:2;"/>
   </g>
   <g id="patch_40">
    <path clip-path="url(#p7bdc1a22b0)" d="M 74.080764 218.098004 
C 75.265718 218.098004 76.402299 217.833826 77.240188 217.363653 
C 78.078078 216.89348 78.548865 216.255699 78.548865 215.590774 
C 78.548865 214.925849 78.078078 214.288068 77.240188 213.817895 
C 76.402299 213.347722 75.265718 213.083544 74.080764 213.083544 
C 72.895809 213.083544 71.759228 213.347722 70.921339 213.817895 
C 70.08345 214.288068 69.612662 214.925849 69.612662 215.590774 
C 69.612662 216.255699 70.08345 216.89348 70.921339 217.363653 
C 71.759228 217.833826 72.895809 218.098004 74.080764 218.098004 
z
" style="fill:#008000;opacity:0.2;stroke:#008000;stroke-linejoin:miter;stroke-width:2;"/>
   </g>
   <g id="patch_41">
    <path clip-path="url(#p7bdc1a22b0)" d="M 343.50728 149.650627 
C 344.692234 149.650627 345.828815 149.386449 346.666705 148.916276 
C 347.504594 148.446103 347.975381 147.808322 347.975381 147.143397 
C 347.975381 146.478472 347.504594 145.840691 346.666705 145.370518 
C 345.828815 144.900345 344.692234 144.636167 343.50728 144.636167 
C 342.322325 144.636167 341.185744 144.900345 340.347855 145.370518 
C 339.509966 145.840691 339.039178 146.478472 339.039178 147.143397 
C 339.039178 147.808322 339.509966 148.446103 340.347855 148.916276 
C 341.185744 149.386449 342.322325 149.650627 343.50728 149.650627 
z
" style="fill:#008000;opacity:0.2;stroke:#008000;stroke-linejoin:miter;stroke-width:2;"/>
   </g>
   <g id="patch_42">
    <path clip-path="url(#p7bdc1a22b0)" d="M 74.080764 80.701804 
C 75.265718 80.701804 76.402299 80.437627 77.240188 79.967454 
C 78.078078 79.49728 78.548865 78.859499 78.548865 78.194574 
C 78.548865 77.529649 78.078078 76.891868 77.240188 76.421695 
C 76.402299 75.951522 75.265718 75.687344 74.080764 75.687344 
C 72.895809 75.687344 71.759228 75.951522 70.921339 76.421695 
C 70.08345 76.891868 69.612662 77.529649 69.612662 78.194574 
C 69.612662 78.859499 70.08345 79.49728 70.921339 79.967454 
C 71.759228 80.437627 72.895809 80.701804 74.080764 80.701804 
z
" style="fill:#008000;opacity:0.2;stroke:#008000;stroke-linejoin:miter;stroke-width:2;"/>
   </g>
   <g id="patch_43">
    <path clip-path="url(#p7bdc1a22b0)" d="M 74.080764 47.355646 
C 78.820581 47.355646 83.366906 46.298936 86.718463 44.418244 
C 90.07002 42.537551 91.953169 39.986427 91.953169 37.326727 
C 91.953169 34.667026 90.07002 32.115902 86.718463 30.235209 
C 83.366906 28.354517 78.820581 27.297807 74.080764 27.297807 
C 69.340946 27.297807 64.794621 28.354517 61.443064 30.235209 
C 58.091507 32.115902 56.208358 34.667026 56.208358 37.326727 
C 56.208358 39.986427 58.091507 42.537551 61.443064 44.418244 
C 64.794621 46.298936 69.340946 47.355646 74.080764 47.355646 
z
" style="fill:none;opacity:0.2;stroke:#ff0000;stroke-linejoin:miter;stroke-width:2;"/>
   </g>
   <g id="patch_44">
    <path clip-path="url(#p7bdc1a22b0)" d="M 74.080764 58.387458 
C 78.820581 58.387458 83.366906 57.330748 86.718463 55.450055 
C 90.07002 53.569363 91.953169 51.018239 91.953169 48.358538 
C 91.953169 45.698838 90.07002 43.147713 86.718463 41.267021 
C 83.366906 39.386329 78.820581 38.329618 74.080764 38.329618 
C 69.340946 38.329618 64.794621 39.386329 61.443064 41.267021 
C 58.091507 43.147713 56.208358 45.698838 56.208358 48.358538 
C 56.208358 51.018239 58.091507 53.569363 61.443064 55.450055 
C 64.794621 57.330748 69.340946 58.387458 74.080764 58.387458 
z
" style="fill:none;opacity:0.2;stroke:#0000ff;stroke-linejoin:miter;stroke-width:2;"/>
   </g>
   <g id="patch_45">
    <path clip-path="url(#p7bdc1a22b0)" d="M 74.080764 42.341186 
C 76.450672 42.341186 78.723835 41.812831 80.399613 40.872485 
C 82.075392 39.932139 83.016967 38.656577 83.016967 37.326727 
C 83.016967 35.996876 82.075392 34.721314 80.399613 33.780968 
C 78.723835 32.840622 76.450672 32.312267 74.080764 32.312267 
C 71.710855 32.312267 69.437693 32.840622 67.761914 33.780968 
C 66.086136 34.721314 65.144561 35.996876 65.144561 37.326727 
C 65.144561 38.656577 66.086136 39.932139 67.761914 40.872485 
C 69.437693 41.812831 71.710855 42.341186 74.080764 42.341186 
z
" style="fill:none;opacity:0.2;stroke:#008000;stroke-linejoin:miter;stroke-width:2;"/>
   </g>
   <g id="patch_46">
    <path clip-path="url(#p7bdc1a22b0)" d="M 74.080764 53.372998 
C 76.450672 53.372998 78.723835 52.844643 80.399613 51.904297 
C 82.075392 50.963951 83.016967 49.688388 83.016967 48.358538 
C 83.016967 47.028688 82.075392 45.753126 80.399613 44.81278 
C 78.723835 43.872433 76.450672 43.344078 74.080764 43.344078 
C 71.710855 43.344078 69.437693 43.872433 67.761914 44.81278 
C 66.086136 45.753126 65.144561 47.028688 65.144561 48.358538 
C 65.144561 49.688388 66.086136 50.963951 67.761914 51.904297 
C 69.437693 52.844643 71.710855 53.372998 74.080764 53.372998 
z
" style="fill:none;opacity:0.2;stroke:#008000;stroke-linejoin:miter;stroke-width:2;"/>
   </g>
   <g id="patch_47">
    <path d="M 74.080764 42.842632 
Q 247.889909 88.348855 421.699055 133.855079 
" style="fill:none;opacity:0.5;stroke:#008000;stroke-linecap:round;stroke-width:2;"/>
   </g>
   <g id="patch_48">
    <path d="M 74.080764 38.74094 
Q 74.080764 41.842066 74.080764 44.943193 
" style="fill:none;opacity:0.5;stroke:#800080;stroke-linecap:round;stroke-width:2;"/>
    <path d="M 72.580764 40.24094 
L 74.080764 38.74094 
L 75.580764 40.24094 
" style="fill:none;opacity:0.5;stroke:#800080;stroke-linecap:round;stroke-width:2;"/>
    <path d="M 75.580764 43.443193 
L 74.080764 44.943193 
L 72.580764 43.443193 
" style="fill:none;opacity:0.5;stroke:#800080;stroke-linecap:round;stroke-width:2;"/>
   </g>
   <g id="patch_49">
    <path d="M 421.699055 133.855079 
Q 421.699055 146.892674 421.699055 159.93027 
" style="fill:none;opacity:0.5;stroke:#008000;stroke-linecap:round;stroke-width:2;"/>
   </g>
   <g id="patch_50">
    <path d="M 421.699055 127.998325 
Q 421.699055 132.855676 421.699055 137.713026 
" style="fill:none;opacity:0.5;stroke:#800080;stroke-linecap:round;stroke-width:2;"/>
    <path d="M 420.199055 129.498325 
L 421.699055 127.998325 
L 423.199055 129.498325 
" style="fill:none;opacity:0.5;stroke:#800080;stroke-linecap:round;stroke-width:2;"/>
    <path d="M 423.199055 136.213026 
L 421.699055 137.713026 
L 420.199055 136.213026 
" style="fill:none;opacity:0.5;stroke:#800080;stroke-linecap:round;stroke-width:2;"/>
   </g>
   <g id="patch_51">
    <path d="M 421.699055 159.93027 
Q 247.889909 205.18577 74.080764 250.44127 
" style="fill:none;opacity:0.5;stroke:#008000;stroke-linecap:round;stroke-width:2;"/>
   </g>
   <g id="patch_52">
    <path d="M 421.699055 157.583638 
Q 421.699055 158.929459 421.699055 160.275279 
" style="fill:none;opacity:0.5;stroke:#800080;stroke-linecap:round;stroke-width:2;"/>
    <path d="M 420.199055 159.083638 
L 421.699055 157.583638 
L 423.199055 159.083638 
" style="fill:none;opacity:0.5;stroke:#800080;stroke-linecap:round;stroke-width:2;"/>
    <path d="M 423.199055 158.775279 
L 421.699055 160.275279 
L 420.199055 158.775279 
" style="fill:none;opacity:0.5;stroke:#800080;stroke-linecap:round;stroke-width:2;"/>
   </g>
   <g id="patch_53">
    <path d="M 74.080764 250.44127 
Q 74.080764 233.016022 74.080764 215.590774 
" style="fill:none;opacity:0.5;stroke:#008000;stroke-linecap:round;stroke-width:2;"/>
   </g>
   <g id="patch_54">
    <path d="M 74.080764 246.339578 
Q 74.080764 249.440704 74.080764 252.54183 
" style="fill:none;opacity:0.5;stroke:#800080;stroke-linecap:round;stroke-width:2;"/>
    <path d="M 72.580764 247.839578 
L 74.080764 246.339578 
L 75.580764 247.839578 
" style="fill:none;opacity:0.5;stroke:#800080;stroke-linecap:round;stroke-width:2;"/>
    <path d="M 75.580764 251.04183 
L 74.080764 252.54183 
L 72.580764 251.04183 
" style="fill:none;opacity:0.5;stroke:#800080;stroke-linecap:round;stroke-width:2;"/>
   </g>
   <g id="patch_55">
    <path clip-path="url(#p7bdc1a22b0)" d="M 74.080764 83.961203 
C 76.450672 83.961203 78.723835 83.432848 80.399613 82.492502 
C 82.075392 81.552156 83.016967 80.276594 83.016967 78.946743 
C 83.016967 77.616893 82.075392 76.341331 80.399613 75.400985 
C 78.723835 74.460639 76.450672 73.932283 74.080764 73.932283 
C 71.710855 73.932283 69.437693 74.460639 67.761914 75.400985 
C 66.086136 76.341331 65.144561 77.616893 65.144561 78.946743 
C 65.144561 80.276594 66.086136 81.552156 67.761914 82.492502 
C 69.437693 83.432848 71.710855 83.961203 74.080764 83.961203 
z
" style="fill:none;opacity:0.2;stroke:#008000;stroke-linejoin:miter;stroke-width:2;"/>
   </g>
   <g id="patch_56">
    <path clip-path="url(#p7bdc1a22b0)" d="M 74.080764 82.456865 
C 76.450672 82.456865 78.723835 81.92851 80.399613 80.988164 
C 82.075392 80.047818 83.016967 78.772256 83.016967 77.442405 
C 83.016967 76.112555 82.075392 74.836993 80.399613 73.896647 
C 78.723835 72.956301 76.450672 72.427945 74.080764 72.427945 
C 71.710855 72.427945 69.437693 72.956301 67.761914 73.896647 
C 66.086136 74.836993 65.144561 76.112555 65.144561 77.442405 
C 65.144561 78.772256 66.086136 80.047818 67.761914 80.988164 
C 69.437693 81.92851 71.710855 82.456865 74.080764 82.456865 
z
" style="fill:none;opacity:0.2;stroke:#008000;stroke-linejoin:miter;stroke-width:2;"/>
   </g>
   <g id="patch_57">
    <path d="M 74.080764 78.194574 
Q 74.080764 60.518603 74.080764 42.842632 
" style="fill:none;opacity:0.5;stroke:#008000;stroke-linecap:round;stroke-width:2;"/>
   </g>
   <g id="patch_58">
    <path d="M 74.080764 77.53253 
Q 74.080764 78.194574 74.080764 78.856619 
" style="fill:none;opacity:0.5;stroke:#800080;stroke-linecap:round;stroke-width:2;"/>
    <path d="M 75.580764 76.03253 
L 74.080764 77.53253 
L 72.580764 76.03253 
" style="fill:none;opacity:0.5;stroke:#800080;stroke-linecap:round;stroke-width:2;"/>
    <path d="M 72.580764 80.356619 
L 74.080764 78.856619 
L 75.580764 80.356619 
" style="fill:none;opacity:0.5;stroke:#800080;stroke-linecap:round;stroke-width:2;"/>
   </g>
   <g id="patch_59">
    <path clip-path="url(#p7bdc1a22b0)" d="M 427.060776 301.087314 
C 427.534758 301.087314 427.989391 300.981643 428.324546 300.793574 
C 428.659702 300.605505 428.848017 300.350392 428.848017 300.084422 
C 428.848017 299.818452 428.659702 299.56334 428.324546 299.375271 
C 427.989391 299.187201 427.534758 299.08153 427.060776 299.08153 
C 426.586795 299.08153 426.132162 299.187201 425.797007 299.375271 
C 425.461851 299.56334 425.273536 299.818452 425.273536 300.084422 
C 425.273536 300.350392 425.461851 300.605505 425.797007 300.793574 
C 426.132162 300.981643 426.586795 301.087314 427.060776 301.087314 
z
" style="fill:#ff0000;opacity:0.2;stroke:#ff0000;stroke-linejoin:miter;stroke-width:2;"/>
   </g>
   <g id="patch_60">
    <path clip-path="url(#p7bdc1a22b0)" d="M 68.719042 301.087314 
C 69.193024 301.087314 69.647656 300.981643 69.982812 300.793574 
C 70.317968 300.605505 70.506283 300.350392 70.506283 300.084422 
C 70.506283 299.818452 70.317968 299.56334 69.982812 299.375271 
C 69.647656 299.187201 69.193024 299.08153 68.719042 299.08153 
C 68.24506 299.08153 67.790428 299.187201 67.455272 299.375271 
C 67.120116 299.56334 66.931801 299.818452 66.931801 300.084422 
C 66.931801 300.350392 67.120116 300.605505 67.455272 300.793574 
C 67.790428 300.981643 68.24506 301.087314 68.719042 301.087314 
z
" style="fill:#ff0000;opacity:0.2;stroke:#ff0000;stroke-linejoin:miter;stroke-width:2;"/>
   </g>
   <g id="patch_61">
    <path clip-path="url(#p7bdc1a22b0)" d="M 68.719042 264.983203 
C 69.193024 264.983203 69.647656 264.877532 69.982812 264.689463 
C 70.317968 264.501394 70.506283 264.246282 70.506283 263.980312 
C 70.506283 263.714341 70.317968 263.459229 69.982812 263.27116 
C 69.647656 263.083091 69.193024 262.97742 68.719042 262.97742 
C 68.24506 262.97742 67.790428 263.083091 67.455272 263.27116 
C 67.120116 263.459229 66.931801 263.714341 66.931801 263.980312 
C 66.931801 264.246282 67.120116 264.501394 67.455272 264.689463 
C 67.790428 264.877532 68.24506 264.983203 68.719042 264.983203 
z
" style="fill:#ff0000;opacity:0.2;stroke:#ff0000;stroke-linejoin:miter;stroke-width:2;"/>
   </g>
   <g id="patch_62">
    <path clip-path="url(#p7bdc1a22b0)" d="M 427.060776 264.983203 
C 427.534758 264.983203 427.989391 264.877532 428.324546 264.689463 
C 428.659702 264.501394 428.848017 264.246282 428.848017 263.980312 
C 428.848017 263.714341 428.659702 263.459229 428.324546 263.27116 
C 427.989391 263.083091 427.534758 262.97742 427.060776 262.97742 
C 426.586795 262.97742 426.132162 263.083091 425.797007 263.27116 
C 425.461851 263.459229 425.273536 263.714341 425.273536 263.980312 
C 425.273536 264.246282 425.461851 264.501394 425.797007 264.689463 
C 426.132162 264.877532 426.586795 264.983203 427.060776 264.983203 
z
" style="fill:#ff0000;opacity:0.2;stroke:#ff0000;stroke-linejoin:miter;stroke-width:2;"/>
   </g>
   <g id="patch_63">
    <path clip-path="url(#p7bdc1a22b0)" d="M 419.911814 282.28309 
C 420.385796 282.28309 420.840428 282.177419 421.175584 281.98935 
C 421.51074 281.80128 421.699055 281.546168 421.699055 281.280198 
C 421.699055 281.014228 421.51074 280.759115 421.175584 280.571046 
C 420.840428 280.382977 420.385796 280.277306 419.911814 280.277306 
C 419.437832 280.277306 418.9832 280.382977 418.648044 280.571046 
C 418.312889 280.759115 418.124574 281.014228 418.124574 281.280198 
C 418.124574 281.546168 418.312889 281.80128 418.648044 281.98935 
C 418.9832 282.177419 419.437832 282.28309 419.911814 282.28309 
z
" style="fill:#0000ff;opacity:0.2;stroke:#0000ff;stroke-linejoin:miter;stroke-width:2;"/>
   </g>
   <g id="patch_64">
    <path clip-path="url(#p7bdc1a22b0)" d="M 419.911814 306.853943 
C 420.385796 306.853943 420.840428 306.748272 421.175584 306.560203 
C 421.51074 306.372134 421.699055 306.117021 421.699055 305.851051 
C 421.699055 305.585081 421.51074 305.329969 421.175584 305.1419 
C 420.840428 304.95383 420.385796 304.848159 419.911814 304.848159 
C 419.437832 304.848159 418.9832 304.95383 418.648044 305.1419 
C 418.312889 305.329969 418.124574 305.585081 418.124574 305.851051 
C 418.124574 306.117021 418.312889 306.372134 418.648044 306.560203 
C 418.9832 306.748272 419.437832 306.853943 419.911814 306.853943 
z
" style="fill:#0000ff;opacity:0.2;stroke:#0000ff;stroke-linejoin:miter;stroke-width:2;"/>
   </g>
   <g id="patch_65">
    <path clip-path="url(#p7bdc1a22b0)" d="M 75.868004 306.853943 
C 76.341986 306.853943 76.796618 306.748272 77.131774 306.560203 
C 77.46693 306.372134 77.655245 306.117021 77.655245 305.851051 
C 77.655245 305.585081 77.46693 305.329969 77.131774 305.1419 
C 76.796618 304.95383 76.341986 304.848159 75.868004 304.848159 
C 75.394022 304.848159 74.93939 304.95383 74.604234 305.1419 
C 74.269079 305.329969 74.080764 305.585081 74.080764 305.851051 
C 74.080764 306.117021 74.269079 306.372134 74.604234 306.560203 
C 74.93939 306.748272 75.394022 306.853943 75.868004 306.853943 
z
" style="fill:#0000ff;opacity:0.2;stroke:#0000ff;stroke-linejoin:miter;stroke-width:2;"/>
   </g>
   <g id="patch_66">
    <path clip-path="url(#p7bdc1a22b0)" d="M 75.868004 282.28309 
C 76.341986 282.28309 76.796618 282.177419 77.131774 281.98935 
C 77.46693 281.80128 77.655245 281.546168 77.655245 281.280198 
C 77.655245 281.014228 77.46693 280.759115 77.131774 280.571046 
C 76.796618 280.382977 76.341986 280.277306 75.868004 280.277306 
C 75.394022 280.277306 74.93939 280.382977 74.604234 280.571046 
C 74.269079 280.759115 74.080764 281.014228 74.080764 281.280198 
C 74.080764 281.546168 74.269079 281.80128 74.604234 281.98935 
C 74.93939 282.177419 75.394022 282.28309 75.868004 282.28309 
z
" style="fill:#0000ff;opacity:0.2;stroke:#0000ff;stroke-linejoin:miter;stroke-width:2;"/>
   </g>
   <g id="patch_67">
    <path clip-path="url(#p7bdc1a22b0)" d="M 427.060776 300.084422 
L 68.719042 300.084422 
L 68.719042 263.980312 
L 427.060776 263.980312 
L 427.060776 300.084422 
" style="fill:none;stroke:#ff0000;stroke-linejoin:miter;stroke-width:0.5;"/>
   </g>
   <g id="patch_68">
    <path clip-path="url(#p7bdc1a22b0)" d="M 419.911814 281.280198 
L 419.911814 305.851051 
L 75.868004 305.851051 
L 75.868004 281.280198 
L 419.911814 281.280198 
" style="fill:none;stroke:#0000ff;stroke-linejoin:miter;stroke-width:0.5;"/>
   </g>
   <g id="[&quot;g_s&quot;:1,&quot;g_t&quot;:2,&quot;coords&quot;:[[511.0, -700.0],[503.0, -711.5]],&quot;certainty&quot;:10]">
    <path clip-path="url(#p7bdc1a22b0)" d="M 427.060776 302.842375 
C 428.364226 302.842375 429.614466 302.55178 430.536144 302.03459 
C 431.457822 301.517399 431.975688 300.81584 431.975688 300.084422 
C 431.975688 299.353005 431.457822 298.651446 430.536144 298.134255 
C 429.614466 297.617065 428.364226 297.326469 427.060776 297.326469 
C 425.757327 297.326469 424.507087 297.617065 423.585409 298.134255 
C 422.663731 298.651446 422.145865 299.353005 422.145865 300.084422 
C 422.145865 300.81584 422.663731 301.517399 423.585409 302.03459 
C 424.507087 302.55178 425.757327 302.842375 427.060776 302.842375 
z
" style="fill:#0000ff;opacity:0.2;stroke:#0000ff;stroke-linejoin:miter;stroke-width:2;"/>
   </g>
   <g id="[&quot;g_s&quot;:2,&quot;g_t&quot;:1,&quot;coords&quot;:[[503.0, -711.5],[511.0, -700.0]],&quot;certainty&quot;:10]">
    <path clip-path="url(#p7bdc1a22b0)" d="M 419.911814 308.609004 
C 421.215264 308.609004 422.465503 308.318409 423.387181 307.801218 
C 424.30886 307.284028 424.826726 306.582469 424.826726 305.851051 
C 424.826726 305.119634 424.30886 304.418074 423.387181 303.900884 
C 422.465503 303.383694 421.215264 303.093098 419.911814 303.093098 
C 418.608364 303.093098 417.358125 303.383694 416.436447 303.900884 
C 415.514769 304.418074 414.996903 305.119634 414.996903 305.851051 
C 414.996903 306.582469 415.514769 307.284028 416.436447 307.801218 
C 417.358125 308.318409 418.608364 308.609004 419.911814 308.609004 
z
" style="fill:#ff0000;opacity:0.2;stroke:#ff0000;stroke-linejoin:miter;stroke-width:2;"/>
   </g>
   <g id="patch_69">
    <path d="M 427.060776 300.084422 
Q 424.262977 302.341235 422.978697 303.377185 
" style="fill:none;opacity:0.5;stroke:#0000ff;stroke-linecap:round;stroke-width:2.75;"/>
    <path d="M 425.087971 303.602937 
L 422.978697 303.377185 
L 423.204449 301.267911 
" style="fill:none;opacity:0.5;stroke:#0000ff;stroke-linecap:round;stroke-width:2.75;"/>
   </g>
   <g id="[&quot;g_s&quot;:2,&quot;g_t&quot;:3,&quot;coords&quot;:[[110.0, -700.0],[118.0, -711.5]],&quot;certainty&quot;:11]">
    <path clip-path="url(#p7bdc1a22b0)" d="M 68.719042 303.093098 
C 70.140987 303.093098 71.504885 302.776085 72.510352 302.211878 
C 73.515819 301.64767 74.080764 300.882333 74.080764 300.084422 
C 74.080764 299.286512 73.515819 298.521175 72.510352 297.956967 
C 71.504885 297.39276 70.140987 297.075746 68.719042 297.075746 
C 67.297097 297.075746 65.933199 297.39276 64.927732 297.956967 
C 63.922265 298.521175 63.35732 299.286512 63.35732 300.084422 
C 63.35732 300.882333 63.922265 301.64767 64.927732 302.211878 
C 65.933199 302.776085 67.297097 303.093098 68.719042 303.093098 
z
" style="fill:#0000ff;opacity:0.2;stroke:#0000ff;stroke-linejoin:miter;stroke-width:2;"/>
   </g>
   <g id="[&quot;g_s&quot;:3,&quot;g_t&quot;:2,&quot;coords&quot;:[[118.0, -711.5],[110.0, -700.0]],&quot;certainty&quot;:11]">
    <path clip-path="url(#p7bdc1a22b0)" d="M 75.868004 308.859727 
C 77.289949 308.859727 78.653847 308.542714 79.659314 307.978506 
C 80.664781 307.414299 81.229726 306.648961 81.229726 305.851051 
C 81.229726 305.053141 80.664781 304.287804 79.659314 303.723596 
C 78.653847 303.159388 77.289949 302.842375 75.868004 302.842375 
C 74.446059 302.842375 73.082162 303.159388 72.076694 303.723596 
C 71.071227 304.287804 70.506283 305.053141 70.506283 305.851051 
C 70.506283 306.648961 71.071227 307.414299 72.076694 307.978506 
C 73.082162 308.542714 74.446059 308.859727 75.868004 308.859727 
z
" style="fill:#ff0000;opacity:0.2;stroke:#ff0000;stroke-linejoin:miter;stroke-width:2;"/>
   </g>
   <g id="patch_70">
    <path d="M 68.719042 300.084422 
Q 71.516841 302.341235 72.663528 303.266197 
" style="fill:none;opacity:0.5;stroke:#0000ff;stroke-linecap:round;stroke-width:3;"/>
    <path d="M 72.437776 301.156923 
L 72.663528 303.266197 
L 70.554254 303.491949 
" style="fill:none;opacity:0.5;stroke:#0000ff;stroke-linecap:round;stroke-width:3;"/>
   </g>
   <g id="[&quot;g_s&quot;:3,&quot;g_t&quot;:4,&quot;coords&quot;:[[110.0, -628.0],[118.0, -662.5]],&quot;certainty&quot;:11]">
    <path clip-path="url(#p7bdc1a22b0)" d="M 68.719042 266.988987 
C 70.140987 266.988987 71.504885 266.671974 72.510352 266.107767 
C 73.515819 265.543559 74.080764 264.778222 74.080764 263.980312 
C 74.080764 263.182401 73.515819 262.417064 72.510352 261.852856 
C 71.504885 261.288649 70.140987 260.971636 68.719042 260.971636 
C 67.297097 260.971636 65.933199 261.288649 64.927732 261.852856 
C 63.922265 262.417064 63.35732 263.182401 63.35732 263.980312 
C 63.35732 264.778222 63.922265 265.543559 64.927732 266.107767 
C 65.933199 266.671974 67.297097 266.988987 68.719042 266.988987 
z
" style="fill:#0000ff;opacity:0.2;stroke:#0000ff;stroke-linejoin:miter;stroke-width:2;"/>
   </g>
   <g id="[&quot;g_s&quot;:4,&quot;g_t&quot;:3,&quot;coords&quot;:[[118.0, -662.5],[110.0, -628.0]],&quot;certainty&quot;:11]">
    <path clip-path="url(#p7bdc1a22b0)" d="M 75.868004 284.288874 
C 77.289949 284.288874 78.653847 283.971861 79.659314 283.407653 
C 80.664781 282.843445 81.229726 282.078108 81.229726 281.280198 
C 81.229726 280.482288 80.664781 279.716951 79.659314 279.152743 
C 78.653847 278.588535 77.289949 278.271522 75.868004 278.271522 
C 74.446059 278.271522 73.082162 278.588535 72.076694 279.152743 
C 71.071227 279.716951 70.506283 280.482288 70.506283 281.280198 
C 70.506283 282.078108 71.071227 282.843445 72.076694 283.407653 
C 73.082162 283.971861 74.446059 284.288874 75.868004 284.288874 
z
" style="fill:#ff0000;opacity:0.2;stroke:#ff0000;stroke-linejoin:miter;stroke-width:2;"/>
   </g>
   <g id="patch_71">
    <path d="M 68.719042 263.980312 
Q 71.912164 271.707397 74.295125 277.473962 
" style="fill:none;opacity:0.5;stroke:#0000ff;stroke-linecap:round;stroke-width:3;"/>
    <path d="M 75.108552 275.514795 
L 74.295125 277.473962 
L 72.335958 276.660535 
" style="fill:none;opacity:0.5;stroke:#0000ff;stroke-linecap:round;stroke-width:3;"/>
   </g>
   <g id="[&quot;g_s&quot;:4,&quot;g_t&quot;:1,&quot;coords&quot;:[[511.0, -628.0],[503.0, -662.5]],&quot;certainty&quot;:12]">
    <path clip-path="url(#p7bdc1a22b0)" d="M 427.060776 267.23971 
C 428.601217 267.23971 430.078773 266.89628 431.168029 266.285055 
C 432.257285 265.67383 432.869308 264.844714 432.869308 263.980312 
C 432.869308 263.115909 432.257285 262.286793 431.168029 261.675568 
C 430.078773 261.064343 428.601217 260.720913 427.060776 260.720913 
C 425.520336 260.720913 424.04278 261.064343 422.953524 261.675568 
C 421.864268 262.286793 421.252245 263.115909 421.252245 263.980312 
C 421.252245 264.844714 421.864268 265.67383 422.953524 266.285055 
C 424.04278 266.89628 425.520336 267.23971 427.060776 267.23971 
z
" style="fill:#0000ff;opacity:0.2;stroke:#0000ff;stroke-linejoin:miter;stroke-width:2;"/>
   </g>
   <g id="[&quot;g_s&quot;:1,&quot;g_t&quot;:4,&quot;coords&quot;:[[503.0, -662.5],[511.0, -628.0]],&quot;certainty&quot;:12]">
    <path clip-path="url(#p7bdc1a22b0)" d="M 419.911814 284.539597 
C 421.452255 284.539597 422.92981 284.196166 424.019066 283.584941 
C 425.108322 282.973716 425.720346 282.144601 425.720346 281.280198 
C 425.720346 280.415795 425.108322 279.58668 424.019066 278.975455 
C 422.92981 278.36423 421.452255 278.020799 419.911814 278.020799 
C 418.371374 278.020799 416.893818 278.36423 415.804562 278.975455 
C 414.715306 279.58668 414.103282 280.415795 414.103282 281.280198 
C 414.103282 282.144601 414.715306 282.973716 415.804562 283.584941 
C 416.893818 284.196166 418.371374 284.539597 419.911814 284.539597 
z
" style="fill:#ff0000;opacity:0.2;stroke:#ff0000;stroke-linejoin:miter;stroke-width:2;"/>
   </g>
   <g id="patch_72">
    <path d="M 427.060776 263.980312 
Q 423.867655 271.707397 421.552207 277.310586 
" style="fill:none;opacity:0.5;stroke:#0000ff;stroke-linecap:round;stroke-width:3.25;"/>
    <path d="M 423.511374 276.497158 
L 421.552207 277.310586 
L 420.73878 275.351418 
" style="fill:none;opacity:0.5;stroke:#0000ff;stroke-linecap:round;stroke-width:3.25;"/>
   </g>
   <g id="[&quot;g_s&quot;:1,&quot;g_t&quot;:4,&quot;coords&quot;:[[503.0, -662.5],[511.0, -628.0]],&quot;certainty&quot;:10]">
    <path clip-path="url(#p7bdc1a22b0)" d="M 419.911814 284.038151 
C 421.215264 284.038151 422.465503 283.747556 423.387181 283.230365 
C 424.30886 282.713175 424.826726 282.011616 424.826726 281.280198 
C 424.826726 280.54878 424.30886 279.847221 423.387181 279.330031 
C 422.465503 278.81284 421.215264 278.522245 419.911814 278.522245 
C 418.608364 278.522245 417.358125 278.81284 416.436447 279.330031 
C 415.514769 279.847221 414.996903 280.54878 414.996903 281.280198 
C 414.996903 282.011616 415.514769 282.713175 416.436447 283.230365 
C 417.358125 283.747556 418.608364 284.038151 419.911814 284.038151 
z
" style="fill:#0000ff;opacity:0.2;stroke:#0000ff;stroke-linejoin:miter;stroke-width:2;"/>
   </g>
   <g id="[&quot;g_s&quot;:4,&quot;g_t&quot;:1,&quot;coords&quot;:[[511.0, -628.0],[503.0, -662.5]],&quot;certainty&quot;:10]">
    <path clip-path="url(#p7bdc1a22b0)" d="M 427.060776 266.738264 
C 428.364226 266.738264 429.614466 266.447669 430.536144 265.930479 
C 431.457822 265.413288 431.975688 264.711729 431.975688 263.980312 
C 431.975688 263.248894 431.457822 262.547335 430.536144 262.030144 
C 429.614466 261.512954 428.364226 261.222359 427.060776 261.222359 
C 425.757327 261.222359 424.507087 261.512954 423.585409 262.030144 
C 422.663731 262.547335 422.145865 263.248894 422.145865 263.980312 
C 422.145865 264.711729 422.663731 265.413288 423.585409 265.930479 
C 424.507087 266.447669 425.757327 266.738264 427.060776 266.738264 
z
" style="fill:#ff0000;opacity:0.2;stroke:#ff0000;stroke-linejoin:miter;stroke-width:2;"/>
   </g>
   <g id="patch_73">
    <path d="M 419.911814 281.280198 
Q 423.104936 273.553112 425.55541 267.623171 
" style="fill:none;opacity:0.5;stroke:#ff0000;stroke-linecap:round;stroke-width:2.75;"/>
    <path d="M 423.596243 268.436598 
L 425.55541 267.623171 
L 426.368838 269.582338 
" style="fill:none;opacity:0.5;stroke:#ff0000;stroke-linecap:round;stroke-width:2.75;"/>
   </g>
   <g id="[&quot;g_s&quot;:2,&quot;g_t&quot;:1,&quot;coords&quot;:[[503.0, -711.5],[511.0, -700.0]],&quot;certainty&quot;:11]">
    <path clip-path="url(#p7bdc1a22b0)" d="M 419.911814 308.859727 
C 421.333759 308.859727 422.697657 308.542714 423.703124 307.978506 
C 424.708591 307.414299 425.273536 306.648961 425.273536 305.851051 
C 425.273536 305.053141 424.708591 304.287804 423.703124 303.723596 
C 422.697657 303.159388 421.333759 302.842375 419.911814 302.842375 
C 418.489869 302.842375 417.125972 303.159388 416.120504 303.723596 
C 415.115037 304.287804 414.550092 305.053141 414.550092 305.851051 
C 414.550092 306.648961 415.115037 307.414299 416.120504 307.978506 
C 417.125972 308.542714 418.489869 308.859727 419.911814 308.859727 
z
" style="fill:#0000ff;opacity:0.2;stroke:#0000ff;stroke-linejoin:miter;stroke-width:2;"/>
   </g>
   <g id="[&quot;g_s&quot;:1,&quot;g_t&quot;:2,&quot;coords&quot;:[[511.0, -700.0],[503.0, -711.5]],&quot;certainty&quot;:11]">
    <path clip-path="url(#p7bdc1a22b0)" d="M 427.060776 303.093098 
C 428.482722 303.093098 429.846619 302.776085 430.852086 302.211878 
C 431.857553 301.64767 432.422498 300.882333 432.422498 300.084422 
C 432.422498 299.286512 431.857553 298.521175 430.852086 297.956967 
C 429.846619 297.39276 428.482722 297.075746 427.060776 297.075746 
C 425.638831 297.075746 424.274934 297.39276 423.269467 297.956967 
C 422.264 298.521175 421.699055 299.286512 421.699055 300.084422 
C 421.699055 300.882333 422.264 301.64767 423.269467 302.211878 
C 424.274934 302.776085 425.638831 303.093098 427.060776 303.093098 
z
" style="fill:#ff0000;opacity:0.2;stroke:#ff0000;stroke-linejoin:miter;stroke-width:2;"/>
   </g>
   <g id="patch_74">
    <path d="M 419.911814 305.851051 
Q 422.709614 303.594238 423.856301 302.669276 
" style="fill:none;opacity:0.5;stroke:#ff0000;stroke-linecap:round;stroke-width:3;"/>
    <path d="M 421.747027 302.443524 
L 423.856301 302.669276 
L 423.630549 304.77855 
" style="fill:none;opacity:0.5;stroke:#ff0000;stroke-linecap:round;stroke-width:3;"/>
   </g>
   <g id="[&quot;g_s&quot;:3,&quot;g_t&quot;:2,&quot;coords&quot;:[[118.0, -711.5],[110.0, -700.0]],&quot;certainty&quot;:11]">
    <path clip-path="url(#p7bdc1a22b0)" d="M 75.868004 308.859727 
C 77.289949 308.859727 78.653847 308.542714 79.659314 307.978506 
C 80.664781 307.414299 81.229726 306.648961 81.229726 305.851051 
C 81.229726 305.053141 80.664781 304.287804 79.659314 303.723596 
C 78.653847 303.159388 77.289949 302.842375 75.868004 302.842375 
C 74.446059 302.842375 73.082162 303.159388 72.076694 303.723596 
C 71.071227 304.287804 70.506283 305.053141 70.506283 305.851051 
C 70.506283 306.648961 71.071227 307.414299 72.076694 307.978506 
C 73.082162 308.542714 74.446059 308.859727 75.868004 308.859727 
z
" style="fill:#0000ff;opacity:0.2;stroke:#0000ff;stroke-linejoin:miter;stroke-width:2;"/>
   </g>
   <g id="[&quot;g_s&quot;:2,&quot;g_t&quot;:3,&quot;coords&quot;:[[110.0, -700.0],[118.0, -711.5]],&quot;certainty&quot;:11]">
    <path clip-path="url(#p7bdc1a22b0)" d="M 68.719042 303.093098 
C 70.140987 303.093098 71.504885 302.776085 72.510352 302.211878 
C 73.515819 301.64767 74.080764 300.882333 74.080764 300.084422 
C 74.080764 299.286512 73.515819 298.521175 72.510352 297.956967 
C 71.504885 297.39276 70.140987 297.075746 68.719042 297.075746 
C 67.297097 297.075746 65.933199 297.39276 64.927732 297.956967 
C 63.922265 298.521175 63.35732 299.286512 63.35732 300.084422 
C 63.35732 300.882333 63.922265 301.64767 64.927732 302.211878 
C 65.933199 302.776085 67.297097 303.093098 68.719042 303.093098 
z
" style="fill:#ff0000;opacity:0.2;stroke:#ff0000;stroke-linejoin:miter;stroke-width:2;"/>
   </g>
   <g id="patch_75">
    <path d="M 75.868004 305.851051 
Q 73.070205 303.594238 71.923518 302.669276 
" style="fill:none;opacity:0.5;stroke:#ff0000;stroke-linecap:round;stroke-width:3;"/>
    <path d="M 72.14927 304.77855 
L 71.923518 302.669276 
L 74.032792 302.443524 
" style="fill:none;opacity:0.5;stroke:#ff0000;stroke-linecap:round;stroke-width:3;"/>
   </g>
   <g id="[&quot;g_s&quot;:4,&quot;g_t&quot;:3,&quot;coords&quot;:[[118.0, -662.5],[110.0, -628.0]],&quot;certainty&quot;:12]">
    <path clip-path="url(#p7bdc1a22b0)" d="M 75.868004 284.539597 
C 77.408445 284.539597 78.886 284.196166 79.975257 283.584941 
C 81.064513 282.973716 81.676536 282.144601 81.676536 281.280198 
C 81.676536 280.415795 81.064513 279.58668 79.975257 278.975455 
C 78.886 278.36423 77.408445 278.020799 75.868004 278.020799 
C 74.327564 278.020799 72.850008 278.36423 71.760752 278.975455 
C 70.671496 279.58668 70.059472 280.415795 70.059472 281.280198 
C 70.059472 282.144601 70.671496 282.973716 71.760752 283.584941 
C 72.850008 284.196166 74.327564 284.539597 75.868004 284.539597 
z
" style="fill:#0000ff;opacity:0.2;stroke:#0000ff;stroke-linejoin:miter;stroke-width:2;"/>
   </g>
   <g id="[&quot;g_s&quot;:3,&quot;g_t&quot;:4,&quot;coords&quot;:[[110.0, -628.0],[118.0, -662.5]],&quot;certainty&quot;:12]">
    <path clip-path="url(#p7bdc1a22b0)" d="M 68.719042 267.23971 
C 70.259483 267.23971 71.737038 266.89628 72.826294 266.285055 
C 73.91555 265.67383 74.527574 264.844714 74.527574 263.980312 
C 74.527574 263.115909 73.91555 262.286793 72.826294 261.675568 
C 71.737038 261.064343 70.259483 260.720913 68.719042 260.720913 
C 67.178601 260.720913 65.701046 261.064343 64.61179 261.675568 
C 63.522534 262.286793 62.91051 263.115909 62.91051 263.980312 
C 62.91051 264.844714 63.522534 265.67383 64.61179 266.285055 
C 65.701046 266.89628 67.178601 267.23971 68.719042 267.23971 
z
" style="fill:#ff0000;opacity:0.2;stroke:#ff0000;stroke-linejoin:miter;stroke-width:2;"/>
   </g>
   <g id="patch_76">
    <path d="M 75.868004 281.280198 
Q 72.674883 273.553112 70.359435 267.949924 
" style="fill:none;opacity:0.5;stroke:#ff0000;stroke-linecap:round;stroke-width:3.25;"/>
    <path d="M 69.546008 269.909091 
L 70.359435 267.949924 
L 72.318602 268.763351 
" style="fill:none;opacity:0.5;stroke:#ff0000;stroke-linecap:round;stroke-width:3.25;"/>
   </g>
   <g id="patch_77">
    <path clip-path="url(#p7bdc1a22b0)" d="M 423.486295 305.474967 
C 424.67125 305.474967 425.807831 305.210789 426.64572 304.740616 
C 427.483609 304.270443 427.954397 303.632662 427.954397 302.967737 
C 427.954397 302.302812 427.483609 301.665031 426.64572 301.194858 
C 425.807831 300.724684 424.67125 300.460507 423.486295 300.460507 
C 422.301341 300.460507 421.16476 300.724684 420.326871 301.194858 
C 419.488981 301.665031 419.018194 302.302812 419.018194 302.967737 
C 419.018194 303.632662 419.488981 304.270443 420.326871 304.740616 
C 421.16476 305.210789 422.301341 305.474967 423.486295 305.474967 
z
" style="fill:#008000;opacity:0.2;stroke:#008000;stroke-linejoin:miter;stroke-width:2;"/>
   </g>
   <g id="patch_78">
    <path clip-path="url(#p7bdc1a22b0)" d="M 72.293523 305.474967 
C 73.478477 305.474967 74.615059 305.210789 75.452948 304.740616 
C 76.290837 304.270443 76.761625 303.632662 76.761625 302.967737 
C 76.761625 302.302812 76.290837 301.665031 75.452948 301.194858 
C 74.615059 300.724684 73.478477 300.460507 72.293523 300.460507 
C 71.108569 300.460507 69.971988 300.724684 69.134098 301.194858 
C 68.296209 301.665031 67.825422 302.302812 67.825422 302.967737 
C 67.825422 303.632662 68.296209 304.270443 69.134098 304.740616 
C 69.971988 305.210789 71.108569 305.474967 72.293523 305.474967 
z
" style="fill:#008000;opacity:0.2;stroke:#008000;stroke-linejoin:miter;stroke-width:2;"/>
   </g>
   <g id="patch_79">
    <path clip-path="url(#p7bdc1a22b0)" d="M 72.293523 275.137485 
C 73.478477 275.137485 74.615059 274.873307 75.452948 274.403134 
C 76.290837 273.932961 76.761625 273.29518 76.761625 272.630255 
C 76.761625 271.96533 76.290837 271.327549 75.452948 270.857375 
C 74.615059 270.387202 73.478477 270.123025 72.293523 270.123025 
C 71.108569 270.123025 69.971988 270.387202 69.134098 270.857375 
C 68.296209 271.327549 67.825422 271.96533 67.825422 272.630255 
C 67.825422 273.29518 68.296209 273.932961 69.134098 274.403134 
C 69.971988 274.873307 71.108569 275.137485 72.293523 275.137485 
z
" style="fill:#008000;opacity:0.2;stroke:#008000;stroke-linejoin:miter;stroke-width:2;"/>
   </g>
   <g id="patch_80">
    <path clip-path="url(#p7bdc1a22b0)" d="M 423.486295 275.137485 
C 424.67125 275.137485 425.807831 274.873307 426.64572 274.403134 
C 427.483609 273.932961 427.954397 273.29518 427.954397 272.630255 
C 427.954397 271.96533 427.483609 271.327549 426.64572 270.857375 
C 425.807831 270.387202 424.67125 270.123025 423.486295 270.123025 
C 422.301341 270.123025 421.16476 270.387202 420.326871 270.857375 
C 419.488981 271.327549 419.018194 271.96533 419.018194 272.630255 
C 419.018194 273.29518 419.488981 273.932961 420.326871 274.403134 
C 421.16476 274.873307 422.301341 275.137485 423.486295 275.137485 
z
" style="fill:#008000;opacity:0.2;stroke:#008000;stroke-linejoin:miter;stroke-width:2;"/>
   </g>
   <g id="patch_81">
    <path clip-path="url(#p7bdc1a22b0)" d="M 427.060776 310.113342 
C 431.800594 310.113342 436.346919 309.056632 439.698476 307.17594 
C 443.050033 305.295247 444.933182 302.744123 444.933182 300.084422 
C 444.933182 297.424722 443.050033 294.873598 439.698476 292.992905 
C 436.346919 291.112213 431.800594 290.055503 427.060776 290.055503 
C 422.320959 290.055503 417.774634 291.112213 414.423077 292.992905 
C 411.07152 294.873598 409.188371 297.424722 409.188371 300.084422 
C 409.188371 302.744123 411.07152 305.295247 414.423077 307.17594 
C 417.774634 309.056632 422.320959 310.113342 427.060776 310.113342 
z
" style="fill:none;opacity:0.2;stroke:#ff0000;stroke-linejoin:miter;stroke-width:2;"/>
   </g>
   <g id="patch_82">
    <path clip-path="url(#p7bdc1a22b0)" d="M 419.911814 291.309118 
C 424.651632 291.309118 429.197956 290.252407 432.549513 288.371715 
C 435.90107 286.491023 437.78422 283.939899 437.78422 281.280198 
C 437.78422 278.620497 435.90107 276.069373 432.549513 274.188681 
C 429.197956 272.307989 424.651632 271.251278 419.911814 271.251278 
C 415.171997 271.251278 410.625672 272.307989 407.274115 274.188681 
C 403.922558 276.069373 402.039408 278.620497 402.039408 281.280198 
C 402.039408 283.939899 403.922558 286.491023 407.274115 288.371715 
C 410.625672 290.252407 415.171997 291.309118 419.911814 291.309118 
z
" style="fill:none;opacity:0.2;stroke:#0000ff;stroke-linejoin:miter;stroke-width:2;"/>
   </g>
   <g id="patch_83">
    <path clip-path="url(#p7bdc1a22b0)" d="M 427.060776 305.098882 
C 429.430685 305.098882 431.703848 304.570527 433.379626 303.630181 
C 435.055405 302.689835 435.996979 301.414273 435.996979 300.084422 
C 435.996979 298.754572 435.055405 297.47901 433.379626 296.538664 
C 431.703848 295.598318 429.430685 295.069963 427.060776 295.069963 
C 424.690868 295.069963 422.417705 295.598318 420.741927 296.538664 
C 419.066148 297.47901 418.124574 298.754572 418.124574 300.084422 
C 418.124574 301.414273 419.066148 302.689835 420.741927 303.630181 
C 422.417705 304.570527 424.690868 305.098882 427.060776 305.098882 
z
" style="fill:none;opacity:0.2;stroke:#008000;stroke-linejoin:miter;stroke-width:2;"/>
   </g>
   <g id="patch_84">
    <path clip-path="url(#p7bdc1a22b0)" d="M 419.911814 310.865511 
C 422.281723 310.865511 424.554885 310.337156 426.230664 309.39681 
C 427.906442 308.456464 428.848017 307.180902 428.848017 305.851051 
C 428.848017 304.521201 427.906442 303.245639 426.230664 302.305293 
C 424.554885 301.364946 422.281723 300.836591 419.911814 300.836591 
C 417.541905 300.836591 415.268743 301.364946 413.592965 302.305293 
C 411.917186 303.245639 410.975611 304.521201 410.975611 305.851051 
C 410.975611 307.180902 411.917186 308.456464 413.592965 309.39681 
C 415.268743 310.337156 417.541905 310.865511 419.911814 310.865511 
z
" style="fill:none;opacity:0.2;stroke:#008000;stroke-linejoin:miter;stroke-width:2;"/>
   </g>
   <g id="patch_85">
    <path d="M 423.486295 302.967737 
Q 247.889909 302.967737 72.293523 302.967737 
" style="fill:none;opacity:0.5;stroke:#008000;stroke-linecap:round;stroke-width:2;"/>
   </g>
   <g id="patch_86">
    <path d="M 425.960035 300.972323 
Q 424.262977 302.341235 422.565919 303.710148 
" style="fill:none;opacity:0.5;stroke:#800080;stroke-linecap:round;stroke-width:2;"/>
    <path d="M 423.850761 300.746571 
L 425.960035 300.972323 
L 425.734283 303.081597 
" style="fill:none;opacity:0.5;stroke:#800080;stroke-linecap:round;stroke-width:2;"/>
    <path d="M 424.675193 303.9359 
L 422.565919 303.710148 
L 422.791671 301.600874 
" style="fill:none;opacity:0.5;stroke:#800080;stroke-linecap:round;stroke-width:2;"/>
   </g>
   <g id="patch_87">
    <path d="M 72.293523 302.967737 
Q 72.293523 287.798996 72.293523 272.630255 
" style="fill:none;opacity:0.5;stroke:#008000;stroke-linecap:round;stroke-width:2;"/>
   </g>
   <g id="patch_88">
    <path d="M 69.819784 300.972323 
Q 71.516841 302.341235 73.213899 303.710148 
" style="fill:none;opacity:0.5;stroke:#800080;stroke-linecap:round;stroke-width:2;"/>
    <path d="M 70.045536 303.081597 
L 69.819784 300.972323 
L 71.929057 300.746571 
" style="fill:none;opacity:0.5;stroke:#800080;stroke-linecap:round;stroke-width:2;"/>
    <path d="M 72.988147 301.600874 
L 73.213899 303.710148 
L 71.104625 303.9359 
" style="fill:none;opacity:0.5;stroke:#800080;stroke-linecap:round;stroke-width:2;"/>
   </g>
   <g id="patch_89">
    <path d="M 72.293523 272.630255 
Q 247.889909 272.630255 423.486295 272.630255 
" style="fill:none;opacity:0.5;stroke:#008000;stroke-linecap:round;stroke-width:2;"/>
   </g>
   <g id="patch_90">
    <path d="M 69.259149 265.287325 
Q 71.912164 271.707397 74.565178 278.127469 
" style="fill:none;opacity:0.5;stroke:#800080;stroke-linecap:round;stroke-width:2;"/>
    <path d="M 68.445722 267.246492 
L 69.259149 265.287325 
L 71.218316 266.100752 
" style="fill:none;opacity:0.5;stroke:#800080;stroke-linecap:round;stroke-width:2;"/>
    <path d="M 75.378605 276.168302 
L 74.565178 278.127469 
L 72.606011 277.314042 
" style="fill:none;opacity:0.5;stroke:#800080;stroke-linecap:round;stroke-width:2;"/>
   </g>
   <g id="patch_91">
    <path d="M 423.486295 272.630255 
Q 423.486295 287.798996 423.486295 302.967737 
" style="fill:none;opacity:0.5;stroke:#008000;stroke-linecap:round;stroke-width:2;"/>
   </g>
   <g id="patch_92">
    <path d="M 426.520669 265.287325 
Q 423.867655 271.707397 421.21464 278.127469 
" style="fill:none;opacity:0.5;stroke:#800080;stroke-linecap:round;stroke-width:2;"/>
    <path d="M 424.561502 266.100752 
L 426.520669 265.287325 
L 427.334097 267.246492 
" style="fill:none;opacity:0.5;stroke:#800080;stroke-linecap:round;stroke-width:2;"/>
    <path d="M 423.173807 277.314042 
L 421.21464 278.127469 
L 420.401213 276.168302 
" style="fill:none;opacity:0.5;stroke:#800080;stroke-linecap:round;stroke-width:2;"/>
   </g>
   <g id="line2d_1">
    <path clip-path="url(#p7bdc1a22b0)" d="M 74.080764 37.326727 
L 421.699055 126.584112 
L 421.699055 156.169425 
L 74.080764 244.925364 
L 74.080764 203.806793 
L 329.656165 141.627491 
L 329.656165 140.624599 
L 74.080764 78.946743 
" style="fill:none;stroke:#ff0000;stroke-linecap:square;stroke-width:0.2;"/>
   </g>
   <g id="line2d_2">
    <path clip-path="url(#p7bdc1a22b0)" d="M 74.080764 48.358538 
L 421.699055 141.126045 
L 421.699055 163.691115 
L 74.080764 255.957176 
L 74.080764 227.374755 
L 357.358394 152.659303 
L 357.358394 151.656411 
L 74.080764 77.442405 
" style="fill:none;stroke:#0000ff;stroke-linecap:square;stroke-width:0.2;"/>
   </g>
   <g id="line2d_3">
    <path clip-path="url(#p7bdc1a22b0)" d="M 427.060776 300.084422 
L 68.719042 300.084422 
L 68.719042 263.980312 
L 427.060776 263.980312 
" style="fill:none;stroke:#ff0000;stroke-linecap:square;stroke-width:0.2;"/>
   </g>
   <g id="line2d_4">
    <path clip-path="url(#p7bdc1a22b0)" d="M 419.911814 281.280198 
L 419.911814 305.851051 
L 75.868004 305.851051 
L 75.868004 281.280198 
" style="fill:none;stroke:#0000ff;stroke-linecap:square;stroke-width:0.2;"/>
   </g>
  </g>
 </g>
 <defs>
  <clipPath id="p7bdc1a22b0">
   <rect height="307.51175" width="409.903625" x="37.576375" y="13.32"/>
  </clipPath>
 </defs>
</svg>
