<?xml version="1.0" encoding="utf-8" standalone="no"?>
<!DOCTYPE svg PUBLIC "-//W3C//DTD SVG 1.1//EN"
  "http://www.w3.org/Graphics/SVG/1.1/DTD/svg11.dtd">
<!-- Created with matplotlib (http://matplotlib.org/) -->
<svg height="345.6pt" version="1.1" viewBox="0 0 460.8 345.6" width="460.8pt" xmlns="http://www.w3.org/2000/svg" xmlns:xlink="http://www.w3.org/1999/xlink">
 <defs>
  <style type="text/css">
*{stroke-linecap:butt;stroke-linejoin:round;}
  </style>
 </defs>
 <g id="figure_1">
  <g id="patch_1">
   <path d="M 0 345.6 
L 460.8 345.6 
L 460.8 0 
L 0 0 
z
" style="fill:#ffffff;"/>
  </g>
  <g id="axes_1">
   <g id="patch_2">
    <path clip-path="url(#p278ed200e4)" d="M 79.498337 95.227335 
C 80.224992 95.227335 80.921984 94.67676 81.435807 93.696866 
C 81.949631 92.716973 82.238334 91.387766 82.238334 90.001987 
C 82.238334 88.616208 81.949631 87.287001 81.435807 86.307108 
C 80.921984 85.327214 80.224992 84.776639 79.498337 84.776639 
C 78.771681 84.776639 78.074689 85.327214 77.560866 86.307108 
C 77.047043 87.287001 76.758339 88.616208 76.758339 90.001987 
C 76.758339 91.387766 77.047043 92.716973 77.560866 93.696866 
C 78.074689 94.67676 78.771681 95.227335 79.498337 95.227335 
z
" style="fill:#ff0000;opacity:0.2;stroke:#ff0000;stroke-linejoin:miter;stroke-width:2;"/>
   </g>
   <g id="patch_3">
    <path clip-path="url(#p278ed200e4)" d="M 406.928037 37.748504 
C 407.654693 37.748504 408.351685 37.197928 408.865508 36.218034 
C 409.379331 35.238141 409.668035 33.908934 409.668035 32.523155 
C 409.668035 31.137377 409.379331 29.808169 408.865508 28.828276 
C 408.351685 27.848382 407.654693 27.297807 406.928037 27.297807 
C 406.201381 27.297807 405.50439 27.848382 404.990566 28.828276 
C 404.476743 29.808169 404.18804 31.137377 404.18804 32.523155 
C 404.18804 33.908934 404.476743 35.238141 404.990566 36.218034 
C 405.50439 37.197928 406.201381 37.748504 406.928037 37.748504 
z
" style="fill:#ff0000;opacity:0.2;stroke:#ff0000;stroke-linejoin:miter;stroke-width:2;"/>
   </g>
   <g id="patch_4">
    <path clip-path="url(#p278ed200e4)" d="M 426.10802 147.480819 
C 426.834675 147.480819 427.531667 146.930243 428.04549 145.95035 
C 428.559314 144.970456 428.848017 143.641249 428.848017 142.25547 
C 428.848017 140.869692 428.559314 139.540485 428.04549 138.560591 
C 427.531667 137.580698 426.834675 137.030122 426.10802 137.030122 
C 425.381364 137.030122 424.684372 137.580698 424.170549 138.560591 
C 423.656725 139.540485 423.368022 140.869692 423.368022 142.25547 
C 423.368022 143.641249 423.656725 144.970456 424.170549 145.95035 
C 424.684372 146.930243 425.381364 147.480819 426.10802 147.480819 
z
" style="fill:#ff0000;opacity:0.2;stroke:#ff0000;stroke-linejoin:miter;stroke-width:2;"/>
   </g>
   <g id="patch_5">
    <path clip-path="url(#p278ed200e4)" d="M 408.298036 249.375111 
C 409.024692 249.375111 409.721683 248.824536 410.235507 247.844642 
C 410.74933 246.864749 411.038033 245.535542 411.038033 244.149763 
C 411.038033 242.763984 410.74933 241.434777 410.235507 240.454884 
C 409.721683 239.47499 409.024692 238.924415 408.298036 238.924415 
C 407.57138 238.924415 406.874388 239.47499 406.360565 240.454884 
C 405.846742 241.434777 405.558038 242.763984 405.558038 244.149763 
C 405.558038 245.535542 405.846742 246.864749 406.360565 247.844642 
C 406.874388 248.824536 407.57138 249.375111 408.298036 249.375111 
z
" style="fill:#ff0000;opacity:0.2;stroke:#ff0000;stroke-linejoin:miter;stroke-width:2;"/>
   </g>
   <g id="patch_6">
    <path clip-path="url(#p278ed200e4)" d="M 79.498337 306.853943 
C 80.224992 306.853943 80.921984 306.303368 81.435807 305.323474 
C 81.949631 304.343581 82.238334 303.014373 82.238334 301.628595 
C 82.238334 300.242816 81.949631 298.913609 81.435807 297.933716 
C 80.921984 296.953822 80.224992 296.403246 79.498337 296.403246 
C 78.771681 296.403246 78.074689 296.953822 77.560866 297.933716 
C 77.047043 298.913609 76.758339 300.242816 76.758339 301.628595 
C 76.758339 303.014373 77.047043 304.343581 77.560866 305.323474 
C 78.074689 306.303368 78.771681 306.853943 79.498337 306.853943 
z
" style="fill:#ff0000;opacity:0.2;stroke:#ff0000;stroke-linejoin:miter;stroke-width:2;"/>
   </g>
   <g id="patch_7">
    <path clip-path="url(#p278ed200e4)" d="M 58.948355 202.346976 
C 59.675011 202.346976 60.372003 201.796401 60.885826 200.816507 
C 61.39965 199.836614 61.688353 198.507407 61.688353 197.121628 
C 61.688353 195.735849 61.39965 194.406642 60.885826 193.426749 
C 60.372003 192.446855 59.675011 191.89628 58.948355 191.89628 
C 58.2217 191.89628 57.524708 192.446855 57.010885 193.426749 
C 56.497061 194.406642 56.208358 195.735849 56.208358 197.121628 
C 56.208358 198.507407 56.497061 199.836614 57.010885 200.816507 
C 57.524708 201.796401 58.2217 202.346976 58.948355 202.346976 
z
" style="fill:#ff0000;opacity:0.2;stroke:#ff0000;stroke-linejoin:miter;stroke-width:2;"/>
   </g>
   <g id="patch_8">
    <path clip-path="url(#p278ed200e4)" d="M 78.128338 126.579425 
C 78.854994 126.579425 79.551985 126.02885 80.065809 125.048956 
C 80.579632 124.069063 80.868335 122.739856 80.868335 121.354077 
C 80.868335 119.968298 80.579632 118.639091 80.065809 117.659198 
C 79.551985 116.679304 78.854994 116.128729 78.128338 116.128729 
C 77.401682 116.128729 76.70469 116.679304 76.190867 117.659198 
C 75.677044 118.639091 75.38834 119.968298 75.38834 121.354077 
C 75.38834 122.739856 75.677044 124.069063 76.190867 125.048956 
C 76.70469 126.02885 77.401682 126.579425 78.128338 126.579425 
z
" style="fill:#0000ff;opacity:0.2;stroke:#0000ff;stroke-linejoin:miter;stroke-width:2;"/>
   </g>
   <g id="patch_9">
    <path clip-path="url(#p278ed200e4)" d="M 397.338046 69.100594 
C 398.064702 69.100594 398.761693 68.550018 399.275517 67.570124 
C 399.78934 66.590231 400.078043 65.261024 400.078043 63.875245 
C 400.078043 62.489467 399.78934 61.160259 399.275517 60.180366 
C 398.761693 59.200473 398.064702 58.649897 397.338046 58.649897 
C 396.61139 58.649897 395.914398 59.200473 395.400575 60.180366 
C 394.886752 61.160259 394.598048 62.489467 394.598048 63.875245 
C 394.598048 65.261024 394.886752 66.590231 395.400575 67.570124 
C 395.914398 68.550018 396.61139 69.100594 397.338046 69.100594 
z
" style="fill:#0000ff;opacity:0.2;stroke:#0000ff;stroke-linejoin:miter;stroke-width:2;"/>
   </g>
   <g id="patch_10">
    <path clip-path="url(#p278ed200e4)" d="M 417.888027 152.706167 
C 418.614683 152.706167 419.311675 152.155591 419.825498 151.175698 
C 420.339321 150.195805 420.628025 148.866597 420.628025 147.480819 
C 420.628025 146.09504 420.339321 144.765833 419.825498 143.785939 
C 419.311675 142.806046 418.614683 142.25547 417.888027 142.25547 
C 417.161371 142.25547 416.46438 142.806046 415.950556 143.785939 
C 415.436733 144.765833 415.14803 146.09504 415.14803 147.480819 
C 415.14803 148.866597 415.436733 150.195805 415.950556 151.175698 
C 416.46438 152.155591 417.161371 152.706167 417.888027 152.706167 
z
" style="fill:#0000ff;opacity:0.2;stroke:#0000ff;stroke-linejoin:miter;stroke-width:2;"/>
   </g>
   <g id="patch_11">
    <path clip-path="url(#p278ed200e4)" d="M 406.928037 218.023021 
C 407.654693 218.023021 408.351685 217.472446 408.865508 216.492552 
C 409.379331 215.512659 409.668035 214.183452 409.668035 212.797673 
C 409.668035 211.411894 409.379331 210.082687 408.865508 209.102794 
C 408.351685 208.1229 407.654693 207.572325 406.928037 207.572325 
C 406.201381 207.572325 405.50439 208.1229 404.990566 209.102794 
C 404.476743 210.082687 404.18804 211.411894 404.18804 212.797673 
C 404.18804 214.183452 404.476743 215.512659 404.990566 216.492552 
C 405.50439 217.472446 406.201381 218.023021 406.928037 218.023021 
z
" style="fill:#0000ff;opacity:0.2;stroke:#0000ff;stroke-linejoin:miter;stroke-width:2;"/>
   </g>
   <g id="patch_12">
    <path clip-path="url(#p278ed200e4)" d="M 87.718329 275.501853 
C 88.444985 275.501853 89.141977 274.951277 89.6558 273.971384 
C 90.169623 272.991491 90.458327 271.662283 90.458327 270.276505 
C 90.458327 268.890726 90.169623 267.561519 89.6558 266.581626 
C 89.141977 265.601732 88.444985 265.051156 87.718329 265.051156 
C 86.991673 265.051156 86.294682 265.601732 85.780858 266.581626 
C 85.267035 267.561519 84.978332 268.890726 84.978332 270.276505 
C 84.978332 271.662283 85.267035 272.991491 85.780858 273.971384 
C 86.294682 274.951277 86.991673 275.501853 87.718329 275.501853 
z
" style="fill:#0000ff;opacity:0.2;stroke:#0000ff;stroke-linejoin:miter;stroke-width:2;"/>
   </g>
   <g id="patch_13">
    <path clip-path="url(#p278ed200e4)" d="M 67.168348 191.89628 
C 67.895004 191.89628 68.591995 191.345704 69.105819 190.365811 
C 69.619642 189.385917 69.908345 188.05671 69.908345 186.670931 
C 69.908345 185.285153 69.619642 183.955945 69.105819 182.976052 
C 68.591995 181.996159 67.895004 181.445583 67.168348 181.445583 
C 66.441692 181.445583 65.7447 181.996159 65.230877 182.976052 
C 64.717054 183.955945 64.42835 185.285153 64.42835 186.670931 
C 64.42835 188.05671 64.717054 189.385917 65.230877 190.365811 
C 65.7447 191.345704 66.441692 191.89628 67.168348 191.89628 
z
" style="fill:#0000ff;opacity:0.2;stroke:#0000ff;stroke-linejoin:miter;stroke-width:2;"/>
   </g>
   <g id="patch_14">
    <path clip-path="url(#p278ed200e4)" d="M 79.498337 90.001987 
L 406.928037 32.523155 
C 419.258026 58.649897 426.10802 97.840009 426.10802 142.25547 
C 426.10802 176.220235 419.258026 218.023021 408.298036 244.149763 
L 79.498337 301.628595 
C 68.538347 280.727201 58.948355 244.149763 58.948355 197.121628 
C 58.948355 147.480819 68.538347 116.128729 79.498337 90.001987 
" style="fill:none;stroke:#ff0000;stroke-linejoin:miter;stroke-width:0.5;"/>
   </g>
   <g id="patch_15">
    <path clip-path="url(#p278ed200e4)" d="M 78.128338 121.354077 
L 397.338046 63.875245 
C 412.408032 82.163964 417.888027 113.516054 417.888027 147.480819 
C 417.888027 173.60756 413.778031 197.121628 406.928037 212.797673 
L 87.718329 270.276505 
C 72.648343 246.762437 67.168348 212.797673 67.168348 186.670931 
C 67.168348 160.54419 71.278344 137.030122 78.128338 121.354077 
" style="fill:none;stroke:#0000ff;stroke-linejoin:miter;stroke-width:0.5;"/>
   </g>
   <g id="[&quot;g_s&quot;:1,&quot;g_t&quot;:1,&quot;coords&quot;:[[95.0, -343.0],[94.0, -355.0]],&quot;certainty&quot;:9]">
    <path clip-path="url(#p278ed200e4)" d="M 79.498337 103.065358 
C 81.314976 103.065358 83.057456 101.688919 84.342014 99.239185 
C 85.626572 96.789451 86.34833 93.466433 86.34833 90.001987 
C 86.34833 86.53754 85.626572 83.214522 84.342014 80.764789 
C 83.057456 78.315055 81.314976 76.938616 79.498337 76.938616 
C 77.681697 76.938616 75.939218 78.315055 74.65466 80.764789 
C 73.370101 83.214522 72.648343 86.53754 72.648343 90.001987 
C 72.648343 93.466433 73.370101 96.789451 74.65466 99.239185 
C 75.939218 101.688919 77.681697 103.065358 79.498337 103.065358 
z
" style="fill:#0000ff;opacity:0.2;stroke:#0000ff;stroke-linejoin:miter;stroke-width:2;"/>
   </g>
   <g id="[&quot;g_s&quot;:1,&quot;g_t&quot;:1,&quot;coords&quot;:[[94.0, -355.0],[95.0, -343.0]],&quot;certainty&quot;:9]">
    <path clip-path="url(#p278ed200e4)" d="M 78.128338 134.417448 
C 79.944977 134.417448 81.687457 133.041009 82.972015 130.591275 
C 84.256573 128.141542 84.978332 124.818523 84.978332 121.354077 
C 84.978332 117.889631 84.256573 114.566612 82.972015 112.116879 
C 81.687457 109.667145 79.944977 108.290706 78.128338 108.290706 
C 76.311698 108.290706 74.569219 109.667145 73.284661 112.116879 
C 72.000103 114.566612 71.278344 117.889631 71.278344 121.354077 
C 71.278344 124.818523 72.000103 128.141542 73.284661 130.591275 
C 74.569219 133.041009 76.311698 134.417448 78.128338 134.417448 
z
" style="fill:#ff0000;opacity:0.2;stroke:#ff0000;stroke-linejoin:miter;stroke-width:2;"/>
   </g>
   <g id="patch_16">
    <path d="M 79.498337 90.001987 
Q 78.85707 104.67723 78.292975 117.586391 
" style="fill:none;opacity:0.5;stroke:#0000ff;stroke-linecap:round;stroke-width:2.5;"/>
    <path d="M 79.857029 116.153304 
L 78.292975 117.586391 
L 76.859889 116.022338 
" style="fill:none;opacity:0.5;stroke:#0000ff;stroke-linecap:round;stroke-width:2.5;"/>
   </g>
   <g id="[&quot;g_s&quot;:2,&quot;g_t&quot;:2,&quot;coords&quot;:[[334.0, -321.0],[327.0, -333.0]],&quot;certainty&quot;:7]">
    <path clip-path="url(#p278ed200e4)" d="M 406.928037 42.973852 
C 408.381349 42.973852 409.775332 41.872701 410.802979 39.912914 
C 411.830625 37.953127 412.408032 35.294712 412.408032 32.523155 
C 412.408032 29.751598 411.830625 27.093184 410.802979 25.133397 
C 409.775332 23.17361 408.381349 22.072458 406.928037 22.072458 
C 405.474725 22.072458 404.080742 23.17361 403.053095 25.133397 
C 402.025449 27.093184 401.448042 29.751598 401.448042 32.523155 
C 401.448042 35.294712 402.025449 37.953127 403.053095 39.912914 
C 404.080742 41.872701 405.474725 42.973852 406.928037 42.973852 
z
" style="fill:#0000ff;opacity:0.2;stroke:#0000ff;stroke-linejoin:miter;stroke-width:2;"/>
   </g>
   <g id="[&quot;g_s&quot;:2,&quot;g_t&quot;:2,&quot;coords&quot;:[[327.0, -333.0],[334.0, -321.0]],&quot;certainty&quot;:7]">
    <path clip-path="url(#p278ed200e4)" d="M 397.338046 74.325942 
C 398.791358 74.325942 400.185341 73.224791 401.212987 71.265004 
C 402.240634 69.305217 402.818041 66.646802 402.818041 63.875245 
C 402.818041 61.103688 402.240634 58.445274 401.212987 56.485487 
C 400.185341 54.5257 398.791358 53.424549 397.338046 53.424549 
C 395.884734 53.424549 394.490751 54.5257 393.463104 56.485487 
C 392.435458 58.445274 391.858051 61.103688 391.858051 63.875245 
C 391.858051 66.646802 392.435458 69.305217 393.463104 71.265004 
C 394.490751 73.224791 395.884734 74.325942 397.338046 74.325942 
z
" style="fill:#ff0000;opacity:0.2;stroke:#ff0000;stroke-linejoin:miter;stroke-width:2;"/>
   </g>
   <g id="patch_17">
    <path d="M 406.928037 32.523155 
Q 402.425119 47.244324 398.335863 60.61313 
" style="fill:none;opacity:0.5;stroke:#0000ff;stroke-linecap:round;stroke-width:2;"/>
    <path d="M 400.209014 59.617487 
L 398.335863 60.61313 
L 397.34022 58.739979 
" style="fill:none;opacity:0.5;stroke:#0000ff;stroke-linecap:round;stroke-width:2;"/>
   </g>
   <g id="[&quot;g_s&quot;:3,&quot;g_t&quot;:3,&quot;coords&quot;:[[348.0, -363.0],[342.0, -365.0]],&quot;certainty&quot;:12]">
    <path clip-path="url(#p278ed200e4)" d="M 426.10802 159.237852 
C 428.469651 159.237852 430.734874 157.448482 432.4048 154.263828 
C 434.074725 151.079174 435.013011 146.759251 435.013011 142.25547 
C 435.013011 137.75169 434.074725 133.431766 432.4048 130.247113 
C 430.734874 127.062459 428.469651 125.273088 426.10802 125.273088 
C 423.746388 125.273088 421.481165 127.062459 419.811239 130.247113 
C 418.141314 133.431766 417.203028 137.75169 417.203028 142.25547 
C 417.203028 146.759251 418.141314 151.079174 419.811239 154.263828 
C 421.481165 157.448482 423.746388 159.237852 426.10802 159.237852 
z
" style="fill:#0000ff;opacity:0.2;stroke:#0000ff;stroke-linejoin:miter;stroke-width:2;"/>
   </g>
   <g id="[&quot;g_s&quot;:3,&quot;g_t&quot;:3,&quot;coords&quot;:[[342.0, -365.0],[348.0, -363.0]],&quot;certainty&quot;:12]">
    <path clip-path="url(#p278ed200e4)" d="M 417.888027 164.463201 
C 420.249659 164.463201 422.514882 162.67383 424.184807 159.489176 
C 425.854733 156.304523 426.793019 151.984599 426.793019 147.480819 
C 426.793019 142.977038 425.854733 138.657115 424.184807 135.472461 
C 422.514882 132.287808 420.249659 130.498437 417.888027 130.498437 
C 415.526396 130.498437 413.261173 132.287808 411.591247 135.472461 
C 409.921321 138.657115 408.983035 142.977038 408.983035 147.480819 
C 408.983035 151.984599 409.921321 156.304523 411.591247 159.489176 
C 413.261173 162.67383 415.526396 164.463201 417.888027 164.463201 
z
" style="fill:#ff0000;opacity:0.2;stroke:#ff0000;stroke-linejoin:miter;stroke-width:2;"/>
   </g>
   <g id="patch_18">
    <path d="M 426.10802 142.25547 
Q 422.8429 144.331067 421.517191 145.173804 
" style="fill:none;opacity:0.5;stroke:#0000ff;stroke-linecap:round;stroke-width:3.25;"/>
    <path d="M 423.587775 145.634979 
L 421.517191 145.173804 
L 421.978366 143.10322 
" style="fill:none;opacity:0.5;stroke:#0000ff;stroke-linecap:round;stroke-width:3.25;"/>
   </g>
   <g id="[&quot;g_s&quot;:4,&quot;g_t&quot;:4,&quot;coords&quot;:[[335.0, -402.0],[334.0, -390.0]],&quot;certainty&quot;:5]">
    <path clip-path="url(#p278ed200e4)" d="M 408.298036 251.987786 
C 409.38802 251.987786 410.433507 251.161922 411.204242 249.692082 
C 411.974977 248.222242 412.408032 246.228431 412.408032 244.149763 
C 412.408032 242.071095 411.974977 240.077284 411.204242 238.607444 
C 410.433507 237.137604 409.38802 236.311741 408.298036 236.311741 
C 407.208052 236.311741 406.162565 237.137604 405.39183 238.607444 
C 404.621095 240.077284 404.18804 242.071095 404.18804 244.149763 
C 404.18804 246.228431 404.621095 248.222242 405.39183 249.692082 
C 406.162565 251.161922 407.208052 251.987786 408.298036 251.987786 
z
" style="fill:#0000ff;opacity:0.2;stroke:#0000ff;stroke-linejoin:miter;stroke-width:2;"/>
   </g>
   <g id="[&quot;g_s&quot;:4,&quot;g_t&quot;:4,&quot;coords&quot;:[[334.0, -390.0],[335.0, -402.0]],&quot;certainty&quot;:5]">
    <path clip-path="url(#p278ed200e4)" d="M 406.928037 220.635696 
C 408.018021 220.635696 409.063508 219.809832 409.834243 218.339992 
C 410.604978 216.870152 411.038033 214.876341 411.038033 212.797673 
C 411.038033 210.719005 410.604978 208.725194 409.834243 207.255354 
C 409.063508 205.785514 408.018021 204.95965 406.928037 204.95965 
C 405.838053 204.95965 404.792566 205.785514 404.021831 207.255354 
C 403.251096 208.725194 402.818041 210.719005 402.818041 212.797673 
C 402.818041 214.876341 403.251096 216.870152 404.021831 218.339992 
C 404.792566 219.809832 405.838053 220.635696 406.928037 220.635696 
z
" style="fill:#ff0000;opacity:0.2;stroke:#ff0000;stroke-linejoin:miter;stroke-width:2;"/>
   </g>
   <g id="patch_19">
    <path d="M 408.298036 244.149763 
Q 407.656769 229.47452 407.061805 215.858926 
" style="fill:none;opacity:0.5;stroke:#0000ff;stroke-linecap:round;stroke-width:1.5;"/>
    <path d="M 405.628719 217.42298 
L 407.061805 215.858926 
L 408.625859 217.292013 
" style="fill:none;opacity:0.5;stroke:#0000ff;stroke-linecap:round;stroke-width:1.5;"/>
   </g>
   <g id="[&quot;g_s&quot;:5,&quot;g_t&quot;:5,&quot;coords&quot;:[[95.0, -424.0],[101.0, -412.0]],&quot;certainty&quot;:7]">
    <path clip-path="url(#p278ed200e4)" d="M 79.498337 312.079292 
C 80.951648 312.079292 82.345632 310.97814 83.373278 309.018353 
C 84.400925 307.058566 84.978332 304.400152 84.978332 301.628595 
C 84.978332 298.857038 84.400925 296.198623 83.373278 294.238836 
C 82.345632 292.279049 80.951648 291.177898 79.498337 291.177898 
C 78.045025 291.177898 76.651042 292.279049 75.623395 294.238836 
C 74.595749 296.198623 74.018342 298.857038 74.018342 301.628595 
C 74.018342 304.400152 74.595749 307.058566 75.623395 309.018353 
C 76.651042 310.97814 78.045025 312.079292 79.498337 312.079292 
z
" style="fill:#0000ff;opacity:0.2;stroke:#0000ff;stroke-linejoin:miter;stroke-width:2;"/>
   </g>
   <g id="[&quot;g_s&quot;:5,&quot;g_t&quot;:5,&quot;coords&quot;:[[101.0, -412.0],[95.0, -424.0]],&quot;certainty&quot;:7]">
    <path clip-path="url(#p278ed200e4)" d="M 87.718329 280.727201 
C 89.171641 280.727201 90.565624 279.62605 91.593271 277.666263 
C 92.620917 275.706476 93.198324 273.048062 93.198324 270.276505 
C 93.198324 267.504948 92.620917 264.846533 91.593271 262.886746 
C 90.565624 260.926959 89.171641 259.825808 87.718329 259.825808 
C 86.265017 259.825808 84.871034 260.926959 83.843388 262.886746 
C 82.815741 264.846533 82.238334 267.504948 82.238334 270.276505 
C 82.238334 273.048062 82.815741 275.706476 83.843388 277.666263 
C 84.871034 279.62605 86.265017 280.727201 87.718329 280.727201 
z
" style="fill:#ff0000;opacity:0.2;stroke:#ff0000;stroke-linejoin:miter;stroke-width:2;"/>
   </g>
   <g id="patch_20">
    <path d="M 79.498337 301.628595 
Q 83.35497 286.918908 86.852943 273.577198 
" style="fill:none;opacity:0.5;stroke:#0000ff;stroke-linecap:round;stroke-width:2;"/>
    <path d="M 85.021566 274.64774 
L 86.852943 273.577198 
L 87.923485 275.408574 
" style="fill:none;opacity:0.5;stroke:#0000ff;stroke-linecap:round;stroke-width:2;"/>
   </g>
   <g id="[&quot;g_s&quot;:6,&quot;g_t&quot;:6,&quot;coords&quot;:[[80.0, -384.0],[86.0, -380.0]],&quot;certainty&quot;:9]">
    <path clip-path="url(#p278ed200e4)" d="M 58.948355 210.184999 
C 60.764995 210.184999 62.507474 208.80856 63.792032 206.358826 
C 65.076591 203.909093 65.798349 200.586074 65.798349 197.121628 
C 65.798349 193.657182 65.076591 190.334163 63.792032 187.88443 
C 62.507474 185.434696 60.764995 184.058257 58.948355 184.058257 
C 57.131716 184.058257 55.389237 185.434696 54.104678 187.88443 
C 52.82012 190.334163 52.098362 193.657182 52.098362 197.121628 
C 52.098362 200.586074 52.82012 203.909093 54.104678 206.358826 
C 55.389237 208.80856 57.131716 210.184999 58.948355 210.184999 
z
" style="fill:#0000ff;opacity:0.2;stroke:#0000ff;stroke-linejoin:miter;stroke-width:2;"/>
   </g>
   <g id="[&quot;g_s&quot;:6,&quot;g_t&quot;:6,&quot;coords&quot;:[[86.0, -380.0],[80.0, -384.0]],&quot;certainty&quot;:9]">
    <path clip-path="url(#p278ed200e4)" d="M 67.168348 199.734302 
C 68.984988 199.734302 70.727467 198.357863 72.012025 195.908129 
C 73.296583 193.458396 74.018342 190.135378 74.018342 186.670931 
C 74.018342 183.206485 73.296583 179.883467 72.012025 177.433733 
C 70.727467 174.984 68.984988 173.60756 67.168348 173.60756 
C 65.351708 173.60756 63.609229 174.984 62.324671 177.433733 
C 61.040113 179.883467 60.318354 183.206485 60.318354 186.670931 
C 60.318354 190.135378 61.040113 193.458396 62.324671 195.908129 
C 63.609229 198.357863 65.351708 199.734302 67.168348 199.734302 
z
" style="fill:#ff0000;opacity:0.2;stroke:#ff0000;stroke-linejoin:miter;stroke-width:2;"/>
   </g>
   <g id="patch_21">
    <path d="M 58.948355 197.121628 
Q 62.439243 192.683399 64.837249 189.634633 
" style="fill:none;opacity:0.5;stroke:#0000ff;stroke-linecap:round;stroke-width:2.5;"/>
    <path d="M 62.730909 189.886291 
L 64.837249 189.634633 
L 65.088907 191.740973 
" style="fill:none;opacity:0.5;stroke:#0000ff;stroke-linecap:round;stroke-width:2.5;"/>
   </g>
   <g id="[&quot;g_s&quot;:1,&quot;g_t&quot;:1,&quot;coords&quot;:[[94.0, -355.0],[95.0, -343.0]],&quot;certainty&quot;:10]">
    <path clip-path="url(#p278ed200e4)" d="M 78.128338 135.723785 
C 80.126641 135.723785 82.043369 134.209702 83.456383 131.514995 
C 84.869397 128.820288 85.663331 125.164968 85.663331 121.354077 
C 85.663331 117.543186 84.869397 113.887866 83.456383 111.193159 
C 82.043369 108.498452 80.126641 106.984369 78.128338 106.984369 
C 76.130034 106.984369 74.213307 108.498452 72.800293 111.193159 
C 71.387279 113.887866 70.593345 117.543186 70.593345 121.354077 
C 70.593345 125.164968 71.387279 128.820288 72.800293 131.514995 
C 74.213307 134.209702 76.130034 135.723785 78.128338 135.723785 
z
" style="fill:#0000ff;opacity:0.2;stroke:#0000ff;stroke-linejoin:miter;stroke-width:2;"/>
   </g>
   <g id="[&quot;g_s&quot;:1,&quot;g_t&quot;:1,&quot;coords&quot;:[[95.0, -343.0],[94.0, -355.0]],&quot;certainty&quot;:10]">
    <path clip-path="url(#p278ed200e4)" d="M 79.498337 104.371695 
C 81.49664 104.371695 83.413367 102.857612 84.826381 100.162905 
C 86.239395 97.468198 87.03333 93.812878 87.03333 90.001987 
C 87.03333 86.191096 86.239395 82.535776 84.826381 79.841069 
C 83.413367 77.146362 81.49664 75.632279 79.498337 75.632279 
C 77.500033 75.632279 75.583306 77.146362 74.170292 79.841069 
C 72.757278 82.535776 71.963344 86.191096 71.963344 90.001987 
C 71.963344 93.812878 72.757278 97.468198 74.170292 100.162905 
C 75.583306 102.857612 77.500033 104.371695 79.498337 104.371695 
z
" style="fill:#ff0000;opacity:0.2;stroke:#ff0000;stroke-linejoin:miter;stroke-width:2;"/>
   </g>
   <g id="patch_22">
    <path d="M 78.128338 121.354077 
Q 78.769605 106.678834 79.325982 93.946281 
" style="fill:none;opacity:0.5;stroke:#ff0000;stroke-linecap:round;stroke-width:2.75;"/>
    <path d="M 77.761929 95.379368 
L 79.325982 93.946281 
L 80.759069 95.510334 
" style="fill:none;opacity:0.5;stroke:#ff0000;stroke-linecap:round;stroke-width:2.75;"/>
   </g>
   <g id="[&quot;g_s&quot;:2,&quot;g_t&quot;:2,&quot;coords&quot;:[[327.0, -333.0],[334.0, -321.0]],&quot;certainty&quot;:8]">
    <path clip-path="url(#p278ed200e4)" d="M 397.338046 75.632279 
C 398.973021 75.632279 400.541253 74.393484 401.697355 72.188724 
C 402.853458 69.983963 403.50304 66.993247 403.50304 63.875245 
C 403.50304 60.757243 402.853458 57.766527 401.697355 55.561767 
C 400.541253 53.357007 398.973021 52.118211 397.338046 52.118211 
C 395.70307 52.118211 394.134839 53.357007 392.978737 55.561767 
C 391.822634 57.766527 391.173052 60.757243 391.173052 63.875245 
C 391.173052 66.993247 391.822634 69.983963 392.978737 72.188724 
C 394.134839 74.393484 395.70307 75.632279 397.338046 75.632279 
z
" style="fill:#0000ff;opacity:0.2;stroke:#0000ff;stroke-linejoin:miter;stroke-width:2;"/>
   </g>
   <g id="[&quot;g_s&quot;:2,&quot;g_t&quot;:2,&quot;coords&quot;:[[334.0, -321.0],[327.0, -333.0]],&quot;certainty&quot;:8]">
    <path clip-path="url(#p278ed200e4)" d="M 406.928037 44.280189 
C 408.563013 44.280189 410.131244 43.041394 411.287346 40.836633 
C 412.443449 38.631873 413.093031 35.641157 413.093031 32.523155 
C 413.093031 29.405153 412.443449 26.414437 411.287346 24.209677 
C 410.131244 22.004917 408.563013 20.766121 406.928037 20.766121 
C 405.293061 20.766121 403.72483 22.004917 402.568728 24.209677 
C 401.412625 26.414437 400.763043 29.405153 400.763043 32.523155 
C 400.763043 35.641157 401.412625 38.631873 402.568728 40.836633 
C 403.72483 43.041394 405.293061 44.280189 406.928037 44.280189 
z
" style="fill:#ff0000;opacity:0.2;stroke:#ff0000;stroke-linejoin:miter;stroke-width:2;"/>
   </g>
   <g id="patch_23">
    <path d="M 397.338046 63.875245 
Q 401.840964 49.154076 405.878512 35.954316 
" style="fill:none;opacity:0.5;stroke:#ff0000;stroke-linecap:round;stroke-width:2.25;"/>
    <path d="M 404.005361 36.949959 
L 405.878512 35.954316 
L 406.874155 37.827467 
" style="fill:none;opacity:0.5;stroke:#ff0000;stroke-linecap:round;stroke-width:2.25;"/>
   </g>
   <g id="[&quot;g_s&quot;:3,&quot;g_t&quot;:3,&quot;coords&quot;:[[342.0, -365.0],[348.0, -363.0]],&quot;certainty&quot;:10]">
    <path clip-path="url(#p278ed200e4)" d="M 417.888027 161.850527 
C 419.886331 161.850527 421.803058 160.336444 423.216072 157.641737 
C 424.629086 154.94703 425.42302 151.29171 425.42302 147.480819 
C 425.42302 143.669928 424.629086 140.014608 423.216072 137.319901 
C 421.803058 134.625194 419.886331 133.111111 417.888027 133.111111 
C 415.889724 133.111111 413.972996 134.625194 412.559982 137.319901 
C 411.146968 140.014608 410.353034 143.669928 410.353034 147.480819 
C 410.353034 151.29171 411.146968 154.94703 412.559982 157.641737 
C 413.972996 160.336444 415.889724 161.850527 417.888027 161.850527 
z
" style="fill:#0000ff;opacity:0.2;stroke:#0000ff;stroke-linejoin:miter;stroke-width:2;"/>
   </g>
   <g id="[&quot;g_s&quot;:3,&quot;g_t&quot;:3,&quot;coords&quot;:[[348.0, -363.0],[342.0, -365.0]],&quot;certainty&quot;:10]">
    <path clip-path="url(#p278ed200e4)" d="M 426.10802 156.625178 
C 428.106323 156.625178 430.02305 155.111095 431.436064 152.416388 
C 432.849078 149.721681 433.643013 146.066361 433.643013 142.25547 
C 433.643013 138.444579 432.849078 134.789259 431.436064 132.094552 
C 430.02305 129.399846 428.106323 127.885762 426.10802 127.885762 
C 424.109716 127.885762 422.192989 129.399846 420.779975 132.094552 
C 419.366961 134.789259 418.573026 138.444579 418.573026 142.25547 
C 418.573026 146.066361 419.366961 149.721681 420.779975 152.416388 
C 422.192989 155.111095 424.109716 156.625178 426.10802 156.625178 
z
" style="fill:#ff0000;opacity:0.2;stroke:#ff0000;stroke-linejoin:miter;stroke-width:2;"/>
   </g>
   <g id="patch_24">
    <path d="M 417.888027 147.480819 
Q 421.153146 145.405223 422.777226 144.372815 
" style="fill:none;opacity:0.5;stroke:#ff0000;stroke-linecap:round;stroke-width:2.75;"/>
    <path d="M 420.706643 143.911639 
L 422.777226 144.372815 
L 422.316051 146.443398 
" style="fill:none;opacity:0.5;stroke:#ff0000;stroke-linecap:round;stroke-width:2.75;"/>
   </g>
   <g id="[&quot;g_s&quot;:4,&quot;g_t&quot;:4,&quot;coords&quot;:[[334.0, -390.0],[335.0, -402.0]],&quot;certainty&quot;:6]">
    <path clip-path="url(#p278ed200e4)" d="M 406.928037 221.942033 
C 408.199685 221.942033 409.41942 220.978525 410.318611 219.263712 
C 411.217802 217.548898 411.723033 215.222786 411.723033 212.797673 
C 411.723033 210.37256 411.217802 208.046448 410.318611 206.331634 
C 409.41942 204.616821 408.199685 203.653313 406.928037 203.653313 
C 405.656389 203.653313 404.436654 204.616821 403.537463 206.331634 
C 402.638272 208.046448 402.133041 210.37256 402.133041 212.797673 
C 402.133041 215.222786 402.638272 217.548898 403.537463 219.263712 
C 404.436654 220.978525 405.656389 221.942033 406.928037 221.942033 
z
" style="fill:#0000ff;opacity:0.2;stroke:#0000ff;stroke-linejoin:miter;stroke-width:2;"/>
   </g>
   <g id="[&quot;g_s&quot;:4,&quot;g_t&quot;:4,&quot;coords&quot;:[[335.0, -402.0],[334.0, -390.0]],&quot;certainty&quot;:6]">
    <path clip-path="url(#p278ed200e4)" d="M 408.298036 253.294123 
C 409.569684 253.294123 410.789419 252.330615 411.68861 250.615802 
C 412.5878 248.900988 413.093031 246.574876 413.093031 244.149763 
C 413.093031 241.724651 412.5878 239.398538 411.68861 237.683724 
C 410.789419 235.968911 409.569684 235.005403 408.298036 235.005403 
C 407.026388 235.005403 405.806653 235.968911 404.907462 237.683724 
C 404.008271 239.398538 403.50304 241.724651 403.50304 244.149763 
C 403.50304 246.574876 404.008271 248.900988 404.907462 250.615802 
C 405.806653 252.330615 407.026388 253.294123 408.298036 253.294123 
z
" style="fill:#ff0000;opacity:0.2;stroke:#ff0000;stroke-linejoin:miter;stroke-width:2;"/>
   </g>
   <g id="patch_25">
    <path d="M 406.928037 212.797673 
Q 407.569304 227.472916 408.15655 240.911902 
" style="fill:none;opacity:0.5;stroke:#ff0000;stroke-linecap:round;stroke-width:1.75;"/>
    <path d="M 409.589637 239.347848 
L 408.15655 240.911902 
L 406.592497 239.478815 
" style="fill:none;opacity:0.5;stroke:#ff0000;stroke-linecap:round;stroke-width:1.75;"/>
   </g>
   <g id="[&quot;g_s&quot;:5,&quot;g_t&quot;:5,&quot;coords&quot;:[[101.0, -412.0],[95.0, -424.0]],&quot;certainty&quot;:9]">
    <path clip-path="url(#p278ed200e4)" d="M 87.718329 283.339876 
C 89.534969 283.339876 91.277448 281.963436 92.562006 279.513703 
C 93.846564 277.063969 94.568323 273.740951 94.568323 270.276505 
C 94.568323 266.812058 93.846564 263.48904 92.562006 261.039307 
C 91.277448 258.589573 89.534969 257.213134 87.718329 257.213134 
C 85.90169 257.213134 84.15921 258.589573 82.874652 261.039307 
C 81.590094 263.48904 80.868335 266.812058 80.868335 270.276505 
C 80.868335 273.740951 81.590094 277.063969 82.874652 279.513703 
C 84.15921 281.963436 85.90169 283.339876 87.718329 283.339876 
z
" style="fill:#0000ff;opacity:0.2;stroke:#0000ff;stroke-linejoin:miter;stroke-width:2;"/>
   </g>
   <g id="[&quot;g_s&quot;:5,&quot;g_t&quot;:5,&quot;coords&quot;:[[95.0, -424.0],[101.0, -412.0]],&quot;certainty&quot;:9]">
    <path clip-path="url(#p278ed200e4)" d="M 79.498337 314.691966 
C 81.314976 314.691966 83.057456 313.315527 84.342014 310.865793 
C 85.626572 308.416059 86.34833 305.093041 86.34833 301.628595 
C 86.34833 298.164148 85.626572 294.84113 84.342014 292.391397 
C 83.057456 289.941663 81.314976 288.565224 79.498337 288.565224 
C 77.681697 288.565224 75.939218 289.941663 74.65466 292.391397 
C 73.370101 294.84113 72.648343 298.164148 72.648343 301.628595 
C 72.648343 305.093041 73.370101 308.416059 74.65466 310.865793 
C 75.939218 313.315527 77.681697 314.691966 79.498337 314.691966 
z
" style="fill:#ff0000;opacity:0.2;stroke:#ff0000;stroke-linejoin:miter;stroke-width:2;"/>
   </g>
   <g id="patch_26">
    <path d="M 87.718329 270.276505 
Q 83.861696 284.986192 80.453388 297.985907 
" style="fill:none;opacity:0.5;stroke:#ff0000;stroke-linecap:round;stroke-width:2.5;"/>
    <path d="M 82.284765 296.915365 
L 80.453388 297.985907 
L 79.382846 296.154531 
" style="fill:none;opacity:0.5;stroke:#ff0000;stroke-linecap:round;stroke-width:2.5;"/>
   </g>
   <g id="[&quot;g_s&quot;:6,&quot;g_t&quot;:6,&quot;coords&quot;:[[86.0, -380.0],[80.0, -384.0]],&quot;certainty&quot;:8]">
    <path clip-path="url(#p278ed200e4)" d="M 67.168348 198.427965 
C 68.803324 198.427965 70.371555 197.18917 71.527657 194.98441 
C 72.68376 192.779649 73.333342 189.788933 73.333342 186.670931 
C 73.333342 183.552929 72.68376 180.562213 71.527657 178.357453 
C 70.371555 176.152693 68.803324 174.913898 67.168348 174.913898 
C 65.533372 174.913898 63.965141 176.152693 62.809039 178.357453 
C 61.652936 180.562213 61.003354 183.552929 61.003354 186.670931 
C 61.003354 189.788933 61.652936 192.779649 62.809039 194.98441 
C 63.965141 197.18917 65.533372 198.427965 67.168348 198.427965 
z
" style="fill:#0000ff;opacity:0.2;stroke:#0000ff;stroke-linejoin:miter;stroke-width:2;"/>
   </g>
   <g id="[&quot;g_s&quot;:6,&quot;g_t&quot;:6,&quot;coords&quot;:[[80.0, -384.0],[86.0, -380.0]],&quot;certainty&quot;:8]">
    <path clip-path="url(#p278ed200e4)" d="M 58.948355 208.878662 
C 60.583331 208.878662 62.151562 207.639866 63.307665 205.435106 
C 64.463767 203.230346 65.11335 200.23963 65.11335 197.121628 
C 65.11335 194.003626 64.463767 191.01291 63.307665 188.80815 
C 62.151562 186.603389 60.583331 185.364594 58.948355 185.364594 
C 57.31338 185.364594 55.745148 186.603389 54.589046 188.80815 
C 53.432944 191.01291 52.783361 194.003626 52.783361 197.121628 
C 52.783361 200.23963 53.432944 203.230346 54.589046 205.435106 
C 55.745148 207.639866 57.31338 208.878662 58.948355 208.878662 
z
" style="fill:#ff0000;opacity:0.2;stroke:#ff0000;stroke-linejoin:miter;stroke-width:2;"/>
   </g>
   <g id="patch_27">
    <path d="M 67.168348 186.670931 
Q 63.67746 191.109161 61.170166 194.296873 
" style="fill:none;opacity:0.5;stroke:#ff0000;stroke-linecap:round;stroke-width:2.25;"/>
    <path d="M 63.276506 194.045215 
L 61.170166 194.296873 
L 60.918508 192.190533 
" style="fill:none;opacity:0.5;stroke:#ff0000;stroke-linecap:round;stroke-width:2.25;"/>
   </g>
   <g id="patch_28">
    <path clip-path="url(#p278ed200e4)" d="M 78.813337 118.741403 
C 80.629977 118.741403 82.372456 117.364964 83.657014 114.91523 
C 84.941572 112.465497 85.663331 109.142478 85.663331 105.678032 
C 85.663331 102.213586 84.941572 98.890567 83.657014 96.440834 
C 82.372456 93.9911 80.629977 92.614661 78.813337 92.614661 
C 76.996698 92.614661 75.254218 93.9911 73.96966 96.440834 
C 72.685102 98.890567 71.963344 102.213586 71.963344 105.678032 
C 71.963344 109.142478 72.685102 112.465497 73.96966 114.91523 
C 75.254218 117.364964 76.996698 118.741403 78.813337 118.741403 
z
" style="fill:#008000;opacity:0.2;stroke:#008000;stroke-linejoin:miter;stroke-width:2;"/>
   </g>
   <g id="patch_29">
    <path clip-path="url(#p278ed200e4)" d="M 402.133041 61.262571 
C 403.949681 61.262571 405.69216 59.886132 406.976719 57.436398 
C 408.261277 54.986665 408.983035 51.663647 408.983035 48.1992 
C 408.983035 44.734754 408.261277 41.411736 406.976719 38.962002 
C 405.69216 36.512268 403.949681 35.135829 402.133041 35.135829 
C 400.316402 35.135829 398.573923 36.512268 397.289364 38.962002 
C 396.004806 41.411736 395.283048 44.734754 395.283048 48.1992 
C 395.283048 51.663647 396.004806 54.986665 397.289364 57.436398 
C 398.573923 59.886132 400.316402 61.262571 402.133041 61.262571 
z
" style="fill:#008000;opacity:0.2;stroke:#008000;stroke-linejoin:miter;stroke-width:2;"/>
   </g>
   <g id="patch_30">
    <path clip-path="url(#p278ed200e4)" d="M 421.998023 157.931515 
C 423.814663 157.931515 425.557142 156.555076 426.8417 154.105343 
C 428.126258 151.655609 428.848017 148.332591 428.848017 144.868145 
C 428.848017 141.403698 428.126258 138.08068 426.8417 135.630946 
C 425.557142 133.181213 423.814663 131.804774 421.998023 131.804774 
C 420.181384 131.804774 418.438904 133.181213 417.154346 135.630946 
C 415.869788 138.08068 415.14803 141.403698 415.14803 144.868145 
C 415.14803 148.332591 415.869788 151.655609 417.154346 154.105343 
C 418.438904 156.555076 420.181384 157.931515 421.998023 157.931515 
z
" style="fill:#008000;opacity:0.2;stroke:#008000;stroke-linejoin:miter;stroke-width:2;"/>
   </g>
   <g id="patch_31">
    <path clip-path="url(#p278ed200e4)" d="M 407.613036 241.537089 
C 409.429676 241.537089 411.172155 240.16065 412.456713 237.710916 
C 413.741272 235.261183 414.46303 231.938164 414.46303 228.473718 
C 414.46303 225.009272 413.741272 221.686253 412.456713 219.23652 
C 411.172155 216.786786 409.429676 215.410347 407.613036 215.410347 
C 405.796397 215.410347 404.053918 216.786786 402.769359 219.23652 
C 401.484801 221.686253 400.763043 225.009272 400.763043 228.473718 
C 400.763043 231.938164 401.484801 235.261183 402.769359 237.710916 
C 404.053918 240.16065 405.796397 241.537089 407.613036 241.537089 
z
" style="fill:#008000;opacity:0.2;stroke:#008000;stroke-linejoin:miter;stroke-width:2;"/>
   </g>
   <g id="patch_32">
    <path clip-path="url(#p278ed200e4)" d="M 83.608333 299.015921 
C 85.424972 299.015921 87.167452 297.639482 88.45201 295.189748 
C 89.736568 292.740014 90.458327 289.416996 90.458327 285.95255 
C 90.458327 282.488103 89.736568 279.165085 88.45201 276.715352 
C 87.167452 274.265618 85.424972 272.889179 83.608333 272.889179 
C 81.791693 272.889179 80.049214 274.265618 78.764656 276.715352 
C 77.480098 279.165085 76.758339 282.488103 76.758339 285.95255 
C 76.758339 289.416996 77.480098 292.740014 78.764656 295.189748 
C 80.049214 297.639482 81.791693 299.015921 83.608333 299.015921 
z
" style="fill:#008000;opacity:0.2;stroke:#008000;stroke-linejoin:miter;stroke-width:2;"/>
   </g>
   <g id="patch_33">
    <path clip-path="url(#p278ed200e4)" d="M 63.058352 204.95965 
C 64.874991 204.95965 66.617471 203.583211 67.902029 201.133478 
C 69.186587 198.683744 69.908345 195.360726 69.908345 191.89628 
C 69.908345 188.431833 69.186587 185.108815 67.902029 182.659082 
C 66.617471 180.209348 64.874991 178.832909 63.058352 178.832909 
C 61.241712 178.832909 59.499233 180.209348 58.214675 182.659082 
C 56.930117 185.108815 56.208358 188.431833 56.208358 191.89628 
C 56.208358 195.360726 56.930117 198.683744 58.214675 201.133478 
C 59.499233 203.583211 61.241712 204.95965 63.058352 204.95965 
z
" style="fill:#008000;opacity:0.2;stroke:#008000;stroke-linejoin:miter;stroke-width:2;"/>
   </g>
   <g id="patch_34">
    <path clip-path="url(#p278ed200e4)" d="M 79.498337 142.25547 
C 86.764895 142.25547 93.734812 136.749714 98.873045 126.950779 
C 104.011277 117.151845 106.898312 103.859773 106.898312 90.001987 
C 106.898312 76.144201 104.011277 62.852129 98.873045 53.053194 
C 93.734812 43.25426 86.764895 37.748504 79.498337 37.748504 
C 72.231778 37.748504 65.261861 43.25426 60.123629 53.053194 
C 54.985396 62.852129 52.098362 76.144201 52.098362 90.001987 
C 52.098362 103.859773 54.985396 117.151845 60.123629 126.950779 
C 65.261861 136.749714 72.231778 142.25547 79.498337 142.25547 
z
" style="fill:none;opacity:0.2;stroke:#ff0000;stroke-linejoin:miter;stroke-width:2;"/>
   </g>
   <g id="patch_35">
    <path clip-path="url(#p278ed200e4)" d="M 78.128338 173.60756 
C 85.394896 173.60756 92.364813 168.101804 97.503046 158.302869 
C 102.641279 148.503935 105.528313 135.211863 105.528313 121.354077 
C 105.528313 107.496291 102.641279 94.204219 97.503046 84.405285 
C 92.364813 74.60635 85.394896 69.100594 78.128338 69.100594 
C 70.86178 69.100594 63.891862 74.60635 58.75363 84.405285 
C 53.615397 94.204219 50.728363 107.496291 50.728363 121.354077 
C 50.728363 135.211863 53.615397 148.503935 58.75363 158.302869 
C 63.891862 168.101804 70.86178 173.60756 78.128338 173.60756 
z
" style="fill:none;opacity:0.2;stroke:#0000ff;stroke-linejoin:miter;stroke-width:2;"/>
   </g>
   <g id="patch_36">
    <path clip-path="url(#p278ed200e4)" d="M 79.498337 116.128729 
C 83.131616 116.128729 86.616574 113.37585 89.185691 108.476383 
C 91.754807 103.576916 93.198324 96.93088 93.198324 90.001987 
C 93.198324 83.073094 91.754807 76.427058 89.185691 71.527591 
C 86.616574 66.628124 83.131616 63.875245 79.498337 63.875245 
C 75.865058 63.875245 72.380099 66.628124 69.810983 71.527591 
C 67.241866 76.427058 65.798349 83.073094 65.798349 90.001987 
C 65.798349 96.93088 67.241866 103.576916 69.810983 108.476383 
C 72.380099 113.37585 75.865058 116.128729 79.498337 116.128729 
z
" style="fill:none;opacity:0.2;stroke:#008000;stroke-linejoin:miter;stroke-width:2;"/>
   </g>
   <g id="patch_37">
    <path clip-path="url(#p278ed200e4)" d="M 78.128338 147.480819 
C 81.761617 147.480819 85.246576 144.72794 87.815692 139.828473 
C 90.384808 134.929006 91.828325 128.28297 91.828325 121.354077 
C 91.828325 114.425184 90.384808 107.779148 87.815692 102.879681 
C 85.246576 97.980214 81.761617 95.227335 78.128338 95.227335 
C 74.495059 95.227335 71.0101 97.980214 68.440984 102.879681 
C 65.871868 107.779148 64.42835 114.425184 64.42835 121.354077 
C 64.42835 128.28297 65.871868 134.929006 68.440984 139.828473 
C 71.0101 144.72794 74.495059 147.480819 78.128338 147.480819 
z
" style="fill:none;opacity:0.2;stroke:#008000;stroke-linejoin:miter;stroke-width:2;"/>
   </g>
   <g id="patch_38">
    <path d="M 78.813337 105.678032 
Q 240.473189 76.938616 402.133041 48.1992 
" style="fill:none;opacity:0.5;stroke:#008000;stroke-linecap:round;stroke-width:2;"/>
   </g>
   <g id="patch_39">
    <path d="M 79.436598 91.414852 
Q 78.85707 104.67723 78.277541 117.939607 
" style="fill:none;opacity:0.5;stroke:#800080;stroke-linecap:round;stroke-width:2;"/>
    <path d="M 77.872545 92.847939 
L 79.436598 91.414852 
L 80.869685 92.978906 
" style="fill:none;opacity:0.5;stroke:#800080;stroke-linecap:round;stroke-width:2;"/>
    <path d="M 79.841594 116.506521 
L 78.277541 117.939607 
L 76.844454 116.375554 
" style="fill:none;opacity:0.5;stroke:#800080;stroke-linecap:round;stroke-width:2;"/>
   </g>
   <g id="patch_40">
    <path d="M 402.133041 48.1992 
Q 412.065532 96.533672 421.998023 144.868145 
" style="fill:none;opacity:0.5;stroke:#008000;stroke-linecap:round;stroke-width:2;"/>
   </g>
   <g id="patch_41">
    <path d="M 406.514376 33.875518 
Q 402.425119 47.244324 398.335863 60.61313 
" style="fill:none;opacity:0.5;stroke:#800080;stroke-linecap:round;stroke-width:2;"/>
    <path d="M 404.641225 34.871161 
L 406.514376 33.875518 
L 407.510019 35.748669 
" style="fill:none;opacity:0.5;stroke:#800080;stroke-linecap:round;stroke-width:2;"/>
    <path d="M 400.209014 59.617487 
L 398.335863 60.61313 
L 397.34022 58.739979 
" style="fill:none;opacity:0.5;stroke:#800080;stroke-linecap:round;stroke-width:2;"/>
   </g>
   <g id="patch_42">
    <path d="M 421.998023 144.868145 
Q 414.80553 186.670931 407.613036 228.473718 
" style="fill:none;opacity:0.5;stroke:#008000;stroke-linecap:round;stroke-width:2;"/>
   </g>
   <g id="patch_43">
    <path d="M 424.914537 143.014153 
Q 422.8429 144.331067 420.771264 145.64798 
" style="fill:none;opacity:0.5;stroke:#800080;stroke-linecap:round;stroke-width:2;"/>
    <path d="M 422.843953 142.552977 
L 424.914537 143.014153 
L 424.453361 145.084736 
" style="fill:none;opacity:0.5;stroke:#800080;stroke-linecap:round;stroke-width:2;"/>
    <path d="M 422.841848 146.109156 
L 420.771264 145.64798 
L 421.23244 143.577397 
" style="fill:none;opacity:0.5;stroke:#800080;stroke-linecap:round;stroke-width:2;"/>
   </g>
   <g id="patch_44">
    <path d="M 407.613036 228.473718 
Q 245.610685 257.213134 83.608333 285.95255 
" style="fill:none;opacity:0.5;stroke:#008000;stroke-linecap:round;stroke-width:2;"/>
   </g>
   <g id="patch_45">
    <path d="M 408.236298 242.736898 
Q 407.656769 229.47452 407.07724 216.212143 
" style="fill:none;opacity:0.5;stroke:#800080;stroke-linecap:round;stroke-width:2;"/>
    <path d="M 409.669384 241.172844 
L 408.236298 242.736898 
L 406.672244 241.303811 
" style="fill:none;opacity:0.5;stroke:#800080;stroke-linecap:round;stroke-width:2;"/>
    <path d="M 405.644153 217.776196 
L 407.07724 216.212143 
L 408.641293 217.645229 
" style="fill:none;opacity:0.5;stroke:#800080;stroke-linecap:round;stroke-width:2;"/>
   </g>
   <g id="patch_46">
    <path d="M 83.608333 285.95255 
Q 73.333342 238.924415 63.058352 191.89628 
" style="fill:none;opacity:0.5;stroke:#008000;stroke-linecap:round;stroke-width:2;"/>
   </g>
   <g id="patch_47">
    <path d="M 79.856997 300.260617 
Q 83.35497 286.918908 86.852943 273.577198 
" style="fill:none;opacity:0.5;stroke:#800080;stroke-linecap:round;stroke-width:2;"/>
    <path d="M 81.688374 299.190075 
L 79.856997 300.260617 
L 78.786455 298.429241 
" style="fill:none;opacity:0.5;stroke:#800080;stroke-linecap:round;stroke-width:2;"/>
    <path d="M 85.021566 274.64774 
L 86.852943 273.577198 
L 87.923485 275.408574 
" style="fill:none;opacity:0.5;stroke:#800080;stroke-linecap:round;stroke-width:2;"/>
   </g>
   <g id="patch_48">
    <path d="M 63.058352 191.89628 
Q 70.935844 148.787156 78.813337 105.678032 
" style="fill:none;opacity:0.5;stroke:#008000;stroke-linecap:round;stroke-width:2;"/>
   </g>
   <g id="patch_49">
    <path d="M 59.822661 196.010057 
Q 62.439243 192.683399 65.055826 189.35674 
" style="fill:none;opacity:0.5;stroke:#800080;stroke-linecap:round;stroke-width:2;"/>
    <path d="M 61.929001 195.7584 
L 59.822661 196.010057 
L 59.571003 193.903717 
" style="fill:none;opacity:0.5;stroke:#800080;stroke-linecap:round;stroke-width:2;"/>
    <path d="M 62.949486 189.608398 
L 65.055826 189.35674 
L 65.307483 191.46308 
" style="fill:none;opacity:0.5;stroke:#800080;stroke-linecap:round;stroke-width:2;"/>
   </g>
   <g id="line2d_1">
    <path clip-path="url(#p278ed200e4)" d="M 79.498337 90.001987 
L 406.928037 32.523155 
L 426.10802 142.25547 
L 408.298036 244.149763 
L 79.498337 301.628595 
L 58.948355 197.121628 
" style="fill:none;stroke:#ff0000;stroke-linecap:square;stroke-width:0.2;"/>
   </g>
   <g id="line2d_2">
    <path clip-path="url(#p278ed200e4)" d="M 78.128338 121.354077 
L 397.338046 63.875245 
L 417.888027 147.480819 
L 406.928037 212.797673 
L 87.718329 270.276505 
L 67.168348 186.670931 
" style="fill:none;stroke:#0000ff;stroke-linecap:square;stroke-width:0.2;"/>
   </g>
  </g>
 </g>
 <defs>
  <clipPath id="p278ed200e4">
   <rect height="307.51175" width="409.903625" x="37.576375" y="13.32"/>
  </clipPath>
 </defs>
</svg>
