<?xml version="1.0" encoding="utf-8" standalone="no"?>
<!DOCTYPE svg PUBLIC "-//W3C//DTD SVG 1.1//EN"
  "http://www.w3.org/Graphics/SVG/1.1/DTD/svg11.dtd">
<!-- Created with matplotlib (http://matplotlib.org/) -->
<svg height="345.6pt" version="1.1" viewBox="0 0 460.8 345.6" width="460.8pt" xmlns="http://www.w3.org/2000/svg" xmlns:xlink="http://www.w3.org/1999/xlink">
 <defs>
  <style type="text/css">
*{stroke-linecap:butt;stroke-linejoin:round;}
  </style>
 </defs>
 <g id="figure_1">
  <g id="patch_1">
   <path d="M 0 345.6 
L 460.8 345.6 
L 460.8 0 
L 0 0 
z
" style="fill:#ffffff;"/>
  </g>
  <g id="axes_1">
   <g id="patch_2">
    <path clip-path="url(#p924bfb5c41)" d="M 406.928037 306.853943 
C 407.758501 306.853943 408.555063 305.987596 409.142289 304.445705 
C 409.729516 302.903814 410.059463 300.812267 410.059463 298.631704 
C 410.059463 296.451141 409.729516 294.359594 409.142289 292.817703 
C 408.555063 291.275812 407.758501 290.409465 406.928037 290.409465 
C 406.097573 290.409465 405.301011 291.275812 404.713785 292.817703 
C 404.126558 294.359594 403.796611 296.451141 403.796611 298.631704 
C 403.796611 300.812267 404.126558 302.903814 404.713785 304.445705 
C 405.301011 305.987596 406.097573 306.853943 406.928037 306.853943 
z
" style="fill:#ff0000;opacity:0.2;stroke:#ff0000;stroke-linejoin:miter;stroke-width:2;"/>
   </g>
   <g id="patch_3">
    <path clip-path="url(#p924bfb5c41)" d="M 79.694051 306.853943 
C 80.524515 306.853943 81.321077 305.987596 81.908303 304.445705 
C 82.49553 302.903814 82.825476 300.812267 82.825476 298.631704 
C 82.825476 296.451141 82.49553 294.359594 81.908303 292.817703 
C 81.321077 291.275812 80.524515 290.409465 79.694051 290.409465 
C 78.863587 290.409465 78.067025 291.275812 77.479798 292.817703 
C 76.892572 294.359594 76.562625 296.451141 76.562625 298.631704 
C 76.562625 300.812267 76.892572 302.903814 77.479798 304.445705 
C 78.067025 305.987596 78.863587 306.853943 79.694051 306.853943 
z
" style="fill:#ff0000;opacity:0.2;stroke:#ff0000;stroke-linejoin:miter;stroke-width:2;"/>
   </g>
   <g id="patch_4">
    <path clip-path="url(#p924bfb5c41)" d="M 79.694051 43.742285 
C 80.524515 43.742285 81.321077 42.875938 81.908303 41.334047 
C 82.49553 39.792156 82.825476 37.700609 82.825476 35.520046 
C 82.825476 33.339483 82.49553 31.247936 81.908303 29.706045 
C 81.321077 28.164154 80.524515 27.297807 79.694051 27.297807 
C 78.863587 27.297807 78.067025 28.164154 77.479798 29.706045 
C 76.892572 31.247936 76.562625 33.339483 76.562625 35.520046 
C 76.562625 37.700609 76.892572 39.792156 77.479798 41.334047 
C 78.067025 42.875938 78.863587 43.742285 79.694051 43.742285 
z
" style="fill:#ff0000;opacity:0.2;stroke:#ff0000;stroke-linejoin:miter;stroke-width:2;"/>
   </g>
   <g id="patch_5">
    <path clip-path="url(#p924bfb5c41)" d="M 406.928037 43.742285 
C 407.758501 43.742285 408.555063 42.875938 409.142289 41.334047 
C 409.729516 39.792156 410.059463 37.700609 410.059463 35.520046 
C 410.059463 33.339483 409.729516 31.247936 409.142289 29.706045 
C 408.555063 28.164154 407.758501 27.297807 406.928037 27.297807 
C 406.097573 27.297807 405.301011 28.164154 404.713785 29.706045 
C 404.126558 31.247936 403.796611 33.339483 403.796611 35.520046 
C 403.796611 37.700609 404.126558 39.792156 404.713785 41.334047 
C 405.301011 42.875938 406.097573 43.742285 406.928037 43.742285 
z
" style="fill:#ff0000;opacity:0.2;stroke:#ff0000;stroke-linejoin:miter;stroke-width:2;"/>
   </g>
   <g id="patch_6">
    <path clip-path="url(#p924bfb5c41)" d="M 380.310919 290.409465 
C 381.141382 290.409465 381.937944 289.543118 382.525171 288.001226 
C 383.112398 286.459335 383.442344 284.367789 383.442344 282.187225 
C 383.442344 280.006662 383.112398 277.915115 382.525171 276.373224 
C 381.937944 274.831333 381.141382 273.964986 380.310919 273.964986 
C 379.480455 273.964986 378.683893 274.831333 378.096666 276.373224 
C 377.50944 277.915115 377.179493 280.006662 377.179493 282.187225 
C 377.179493 284.367789 377.50944 286.459335 378.096666 288.001226 
C 378.683893 289.543118 379.480455 290.409465 380.310919 290.409465 
z
" style="fill:#0000ff;opacity:0.2;stroke:#0000ff;stroke-linejoin:miter;stroke-width:2;"/>
   </g>
   <g id="patch_7">
    <path clip-path="url(#p924bfb5c41)" d="M 106.311169 290.409465 
C 107.141633 290.409465 107.938195 289.543118 108.525422 288.001226 
C 109.112648 286.459335 109.442595 284.367789 109.442595 282.187225 
C 109.442595 280.006662 109.112648 277.915115 108.525422 276.373224 
C 107.938195 274.831333 107.141633 273.964986 106.311169 273.964986 
C 105.480705 273.964986 104.684143 274.831333 104.096917 276.373224 
C 103.50969 277.915115 103.179744 280.006662 103.179744 282.187225 
C 103.179744 284.367789 103.50969 286.459335 104.096917 288.001226 
C 104.684143 289.543118 105.480705 290.409465 106.311169 290.409465 
z
" style="fill:#0000ff;opacity:0.2;stroke:#0000ff;stroke-linejoin:miter;stroke-width:2;"/>
   </g>
   <g id="patch_8">
    <path clip-path="url(#p924bfb5c41)" d="M 106.311169 93.075721 
C 107.141633 93.075721 107.938195 92.209374 108.525422 90.667483 
C 109.112648 89.125592 109.442595 87.034045 109.442595 84.853482 
C 109.442595 82.672919 109.112648 80.581372 108.525422 79.039481 
C 107.938195 77.49759 107.141633 76.631243 106.311169 76.631243 
C 105.480705 76.631243 104.684143 77.49759 104.096917 79.039481 
C 103.50969 80.581372 103.179744 82.672919 103.179744 84.853482 
C 103.179744 87.034045 103.50969 89.125592 104.096917 90.667483 
C 104.684143 92.209374 105.480705 93.075721 106.311169 93.075721 
z
" style="fill:#0000ff;opacity:0.2;stroke:#0000ff;stroke-linejoin:miter;stroke-width:2;"/>
   </g>
   <g id="patch_9">
    <path clip-path="url(#p924bfb5c41)" d="M 380.310919 93.075721 
C 381.141382 93.075721 381.937944 92.209374 382.525171 90.667483 
C 383.112398 89.125592 383.442344 87.034045 383.442344 84.853482 
C 383.442344 82.672919 383.112398 80.581372 382.525171 79.039481 
C 381.937944 77.49759 381.141382 76.631243 380.310919 76.631243 
C 379.480455 76.631243 378.683893 77.49759 378.096666 79.039481 
C 377.50944 80.581372 377.179493 82.672919 377.179493 84.853482 
C 377.179493 87.034045 377.50944 89.125592 378.096666 90.667483 
C 378.683893 92.209374 379.480455 93.075721 380.310919 93.075721 
z
" style="fill:#0000ff;opacity:0.2;stroke:#0000ff;stroke-linejoin:miter;stroke-width:2;"/>
   </g>
   <g id="patch_10">
    <path clip-path="url(#p924bfb5c41)" d="M 406.928037 298.631704 
L 79.694051 298.631704 
C 56.208358 253.409388 56.208358 68.409003 79.694051 35.520046 
L 406.928037 35.520046 
C 428.848017 68.409003 428.848017 253.409388 406.928037 298.631704 
" style="fill:none;stroke:#ff0000;stroke-linejoin:miter;stroke-width:0.5;"/>
   </g>
   <g id="patch_11">
    <path clip-path="url(#p924bfb5c41)" d="M 380.310919 282.187225 
L 106.311169 282.187225 
C 87.522615 245.187148 87.522615 113.63132 106.311169 84.853482 
L 380.310919 84.853482 
C 399.099473 113.63132 399.099473 245.187148 380.310919 282.187225 
" style="fill:none;stroke:#0000ff;stroke-linejoin:miter;stroke-width:0.5;"/>
   </g>
   <g id="[&quot;g_s&quot;:1,&quot;g_t&quot;:1,&quot;coords&quot;:[[295.0, -532.0],[278.0, -528.0]],&quot;certainty&quot;:10]">
    <path clip-path="url(#p924bfb5c41)" d="M 406.928037 321.242862 
C 409.211813 321.242862 411.402358 318.860408 413.017231 314.620207 
C 414.632104 310.380006 415.539458 304.628253 415.539458 298.631704 
C 415.539458 292.635155 414.632104 286.883401 413.017231 282.643201 
C 411.402358 278.403 409.211813 276.020546 406.928037 276.020546 
C 404.644262 276.020546 402.453716 278.403 400.838843 282.643201 
C 399.22397 286.883401 398.316616 292.635155 398.316616 298.631704 
C 398.316616 304.628253 399.22397 310.380006 400.838843 314.620207 
C 402.453716 318.860408 404.644262 321.242862 406.928037 321.242862 
z
" style="fill:#0000ff;opacity:0.2;stroke:#0000ff;stroke-linejoin:miter;stroke-width:2;"/>
   </g>
   <g id="[&quot;g_s&quot;:1,&quot;g_t&quot;:1,&quot;coords&quot;:[[278.0, -528.0],[295.0, -532.0]],&quot;certainty&quot;:10]">
    <path clip-path="url(#p924bfb5c41)" d="M 380.310919 304.798383 
C 382.594694 304.798383 384.785239 302.415929 386.400113 298.175728 
C 388.014986 293.935528 388.922339 288.183774 388.922339 282.187225 
C 388.922339 276.190676 388.014986 270.438923 386.400113 266.198722 
C 384.785239 261.958521 382.594694 259.576067 380.310919 259.576067 
C 378.027143 259.576067 375.836598 261.958521 374.221725 266.198722 
C 372.606852 270.438923 371.699498 276.190676 371.699498 282.187225 
C 371.699498 288.183774 372.606852 293.935528 374.221725 298.175728 
C 375.836598 302.415929 378.027143 304.798383 380.310919 304.798383 
z
" style="fill:#ff0000;opacity:0.2;stroke:#ff0000;stroke-linejoin:miter;stroke-width:2;"/>
   </g>
   <g id="patch_12">
    <path d="M 406.928037 298.631704 
Q 394.469133 290.934395 383.664518 284.259132 
" style="fill:none;opacity:0.5;stroke:#0000ff;stroke-linecap:round;stroke-width:2.75;"/>
    <path d="M 384.152224 286.323628 
L 383.664518 284.259132 
L 385.729014 283.771427 
" style="fill:none;opacity:0.5;stroke:#0000ff;stroke-linecap:round;stroke-width:2.75;"/>
   </g>
   <g id="[&quot;g_s&quot;:2,&quot;g_t&quot;:2,&quot;coords&quot;:[[86.0, -532.0],[103.0, -528.0]],&quot;certainty&quot;:11]">
    <path clip-path="url(#p924bfb5c41)" d="M 79.694051 323.298422 
C 82.185442 323.298422 84.575128 320.699381 86.336808 316.073707 
C 88.098488 311.448034 89.088328 305.173394 89.088328 298.631704 
C 89.088328 292.090014 88.098488 285.815374 86.336808 281.1897 
C 84.575128 276.564027 82.185442 273.964986 79.694051 273.964986 
C 77.202659 273.964986 74.812973 276.564027 73.051294 281.1897 
C 71.289614 285.815374 70.299774 292.090014 70.299774 298.631704 
C 70.299774 305.173394 71.289614 311.448034 73.051294 316.073707 
C 74.812973 320.699381 77.202659 323.298422 79.694051 323.298422 
z
" style="fill:#0000ff;opacity:0.2;stroke:#0000ff;stroke-linejoin:miter;stroke-width:2;"/>
   </g>
   <g id="[&quot;g_s&quot;:2,&quot;g_t&quot;:2,&quot;coords&quot;:[[103.0, -528.0],[86.0, -532.0]],&quot;certainty&quot;:11]">
    <path clip-path="url(#p924bfb5c41)" d="M 106.311169 306.853943 
C 108.802561 306.853943 111.192247 304.254902 112.953926 299.629229 
C 114.715606 295.003555 115.705446 288.728915 115.705446 282.187225 
C 115.705446 275.645535 114.715606 269.370895 112.953926 264.745222 
C 111.192247 260.119548 108.802561 257.520507 106.311169 257.520507 
C 103.819778 257.520507 101.430092 260.119548 99.668412 264.745222 
C 97.906732 269.370895 96.916892 275.645535 96.916892 282.187225 
C 96.916892 288.728915 97.906732 295.003555 99.668412 299.629229 
C 101.430092 304.254902 103.819778 306.853943 106.311169 306.853943 
z
" style="fill:#ff0000;opacity:0.2;stroke:#ff0000;stroke-linejoin:miter;stroke-width:2;"/>
   </g>
   <g id="patch_13">
    <path d="M 79.694051 298.631704 
Q 92.152955 290.934395 102.80718 284.352046 
" style="fill:none;opacity:0.5;stroke:#0000ff;stroke-linecap:round;stroke-width:3;"/>
    <path d="M 100.742684 283.86434 
L 102.80718 284.352046 
L 102.319474 286.416542 
" style="fill:none;opacity:0.5;stroke:#0000ff;stroke-linecap:round;stroke-width:3;"/>
   </g>
   <g id="[&quot;g_s&quot;:3,&quot;g_t&quot;:3,&quot;coords&quot;:[[86.0, -468.0],[103.0, -480.0]],&quot;certainty&quot;:11]">
    <path clip-path="url(#p924bfb5c41)" d="M 79.694051 60.186764 
C 82.185442 60.186764 84.575128 57.587723 86.336808 52.96205 
C 88.098488 48.336376 89.088328 42.061736 89.088328 35.520046 
C 89.088328 28.978356 88.098488 22.703716 86.336808 18.078043 
C 84.575128 13.452369 82.185442 10.853328 79.694051 10.853328 
C 77.202659 10.853328 74.812973 13.452369 73.051294 18.078043 
C 71.289614 22.703716 70.299774 28.978356 70.299774 35.520046 
C 70.299774 42.061736 71.289614 48.336376 73.051294 52.96205 
C 74.812973 57.587723 77.202659 60.186764 79.694051 60.186764 
z
" style="fill:#0000ff;opacity:0.2;stroke:#0000ff;stroke-linejoin:miter;stroke-width:2;"/>
   </g>
   <g id="[&quot;g_s&quot;:3,&quot;g_t&quot;:3,&quot;coords&quot;:[[103.0, -480.0],[86.0, -468.0]],&quot;certainty&quot;:11]">
    <path clip-path="url(#p924bfb5c41)" d="M 106.311169 109.5202 
C 108.802561 109.5202 111.192247 106.921159 112.953926 102.295485 
C 114.715606 97.669812 115.705446 91.395172 115.705446 84.853482 
C 115.705446 78.311792 114.715606 72.037152 112.953926 67.411478 
C 111.192247 62.785805 108.802561 60.186764 106.311169 60.186764 
C 103.819778 60.186764 101.430092 62.785805 99.668412 67.411478 
C 97.906732 72.037152 96.916892 78.311792 96.916892 84.853482 
C 96.916892 91.395172 97.906732 97.669812 99.668412 102.295485 
C 101.430092 106.921159 103.819778 109.5202 106.311169 109.5202 
z
" style="fill:#ff0000;opacity:0.2;stroke:#ff0000;stroke-linejoin:miter;stroke-width:2;"/>
   </g>
   <g id="patch_14">
    <path d="M 79.694051 35.520046 
Q 92.52742 59.306025 104.353519 81.22508 
" style="fill:none;opacity:0.5;stroke:#0000ff;stroke-linecap:round;stroke-width:3;"/>
    <path d="M 104.961386 79.192717 
L 104.353519 81.22508 
L 102.321156 80.617213 
" style="fill:none;opacity:0.5;stroke:#0000ff;stroke-linecap:round;stroke-width:3;"/>
   </g>
   <g id="[&quot;g_s&quot;:4,&quot;g_t&quot;:4,&quot;coords&quot;:[[295.0, -468.0],[278.0, -480.0]],&quot;certainty&quot;:12]">
    <path clip-path="url(#p924bfb5c41)" d="M 406.928037 62.242324 
C 409.627044 62.242324 412.215871 59.426696 414.124357 54.41555 
C 416.032844 49.404404 417.105171 42.606877 417.105171 35.520046 
C 417.105171 28.433215 416.032844 21.635689 414.124357 16.624542 
C 412.215871 11.613396 409.627044 8.797768 406.928037 8.797768 
C 404.22903 8.797768 401.640203 11.613396 399.731717 16.624542 
C 397.823231 21.635689 396.750904 28.433215 396.750904 35.520046 
C 396.750904 42.606877 397.823231 49.404404 399.731717 54.41555 
C 401.640203 59.426696 404.22903 62.242324 406.928037 62.242324 
z
" style="fill:#0000ff;opacity:0.2;stroke:#0000ff;stroke-linejoin:miter;stroke-width:2;"/>
   </g>
   <g id="[&quot;g_s&quot;:4,&quot;g_t&quot;:4,&quot;coords&quot;:[[278.0, -480.0],[295.0, -468.0]],&quot;certainty&quot;:12]">
    <path clip-path="url(#p924bfb5c41)" d="M 380.310919 111.57576 
C 383.009926 111.57576 385.598752 108.760132 387.507239 103.748986 
C 389.415725 98.73784 390.488052 91.940313 390.488052 84.853482 
C 390.488052 77.766651 389.415725 70.969124 387.507239 65.957978 
C 385.598752 60.946832 383.009926 58.131204 380.310919 58.131204 
C 377.611911 58.131204 375.023085 60.946832 373.114598 65.957978 
C 371.206112 70.969124 370.133785 77.766651 370.133785 84.853482 
C 370.133785 91.940313 371.206112 98.73784 373.114598 103.748986 
C 375.023085 108.760132 377.611911 111.57576 380.310919 111.57576 
z
" style="fill:#ff0000;opacity:0.2;stroke:#ff0000;stroke-linejoin:miter;stroke-width:2;"/>
   </g>
   <g id="patch_15">
    <path d="M 406.928037 35.520046 
Q 394.094667 59.306025 382.352508 81.069503 
" style="fill:none;opacity:0.5;stroke:#0000ff;stroke-linecap:round;stroke-width:3.25;"/>
    <path d="M 384.384871 80.461636 
L 382.352508 81.069503 
L 381.744642 79.03714 
" style="fill:none;opacity:0.5;stroke:#0000ff;stroke-linecap:round;stroke-width:3.25;"/>
   </g>
   <g id="[&quot;g_s&quot;:1,&quot;g_t&quot;:1,&quot;coords&quot;:[[278.0, -528.0],[295.0, -532.0]],&quot;certainty&quot;:10]">
    <path clip-path="url(#p924bfb5c41)" d="M 380.310919 304.798383 
C 382.594694 304.798383 384.785239 302.415929 386.400113 298.175728 
C 388.014986 293.935528 388.922339 288.183774 388.922339 282.187225 
C 388.922339 276.190676 388.014986 270.438923 386.400113 266.198722 
C 384.785239 261.958521 382.594694 259.576067 380.310919 259.576067 
C 378.027143 259.576067 375.836598 261.958521 374.221725 266.198722 
C 372.606852 270.438923 371.699498 276.190676 371.699498 282.187225 
C 371.699498 288.183774 372.606852 293.935528 374.221725 298.175728 
C 375.836598 302.415929 378.027143 304.798383 380.310919 304.798383 
z
" style="fill:#0000ff;opacity:0.2;stroke:#0000ff;stroke-linejoin:miter;stroke-width:2;"/>
   </g>
   <g id="[&quot;g_s&quot;:1,&quot;g_t&quot;:1,&quot;coords&quot;:[[295.0, -532.0],[278.0, -528.0]],&quot;certainty&quot;:10]">
    <path clip-path="url(#p924bfb5c41)" d="M 406.928037 321.242862 
C 409.211813 321.242862 411.402358 318.860408 413.017231 314.620207 
C 414.632104 310.380006 415.539458 304.628253 415.539458 298.631704 
C 415.539458 292.635155 414.632104 286.883401 413.017231 282.643201 
C 411.402358 278.403 409.211813 276.020546 406.928037 276.020546 
C 404.644262 276.020546 402.453716 278.403 400.838843 282.643201 
C 399.22397 286.883401 398.316616 292.635155 398.316616 298.631704 
C 398.316616 304.628253 399.22397 310.380006 400.838843 314.620207 
C 402.453716 318.860408 404.644262 321.242862 406.928037 321.242862 
z
" style="fill:#ff0000;opacity:0.2;stroke:#ff0000;stroke-linejoin:miter;stroke-width:2;"/>
   </g>
   <g id="patch_16">
    <path d="M 380.310919 282.187225 
Q 392.769823 289.884534 403.574437 296.559797 
" style="fill:none;opacity:0.5;stroke:#ff0000;stroke-linecap:round;stroke-width:2.75;"/>
    <path d="M 403.086732 294.495301 
L 403.574437 296.559797 
L 401.509942 297.047502 
" style="fill:none;opacity:0.5;stroke:#ff0000;stroke-linecap:round;stroke-width:2.75;"/>
   </g>
   <g id="[&quot;g_s&quot;:2,&quot;g_t&quot;:2,&quot;coords&quot;:[[103.0, -528.0],[86.0, -532.0]],&quot;certainty&quot;:11]">
    <path clip-path="url(#p924bfb5c41)" d="M 106.311169 306.853943 
C 108.802561 306.853943 111.192247 304.254902 112.953926 299.629229 
C 114.715606 295.003555 115.705446 288.728915 115.705446 282.187225 
C 115.705446 275.645535 114.715606 269.370895 112.953926 264.745222 
C 111.192247 260.119548 108.802561 257.520507 106.311169 257.520507 
C 103.819778 257.520507 101.430092 260.119548 99.668412 264.745222 
C 97.906732 269.370895 96.916892 275.645535 96.916892 282.187225 
C 96.916892 288.728915 97.906732 295.003555 99.668412 299.629229 
C 101.430092 304.254902 103.819778 306.853943 106.311169 306.853943 
z
" style="fill:#0000ff;opacity:0.2;stroke:#0000ff;stroke-linejoin:miter;stroke-width:2;"/>
   </g>
   <g id="[&quot;g_s&quot;:2,&quot;g_t&quot;:2,&quot;coords&quot;:[[86.0, -532.0],[103.0, -528.0]],&quot;certainty&quot;:11]">
    <path clip-path="url(#p924bfb5c41)" d="M 79.694051 323.298422 
C 82.185442 323.298422 84.575128 320.699381 86.336808 316.073707 
C 88.098488 311.448034 89.088328 305.173394 89.088328 298.631704 
C 89.088328 292.090014 88.098488 285.815374 86.336808 281.1897 
C 84.575128 276.564027 82.185442 273.964986 79.694051 273.964986 
C 77.202659 273.964986 74.812973 276.564027 73.051294 281.1897 
C 71.289614 285.815374 70.299774 292.090014 70.299774 298.631704 
C 70.299774 305.173394 71.289614 311.448034 73.051294 316.073707 
C 74.812973 320.699381 77.202659 323.298422 79.694051 323.298422 
z
" style="fill:#ff0000;opacity:0.2;stroke:#ff0000;stroke-linejoin:miter;stroke-width:2;"/>
   </g>
   <g id="patch_17">
    <path d="M 106.311169 282.187225 
Q 93.852265 289.884534 83.19804 296.466883 
" style="fill:none;opacity:0.5;stroke:#ff0000;stroke-linecap:round;stroke-width:3;"/>
    <path d="M 85.262536 296.954589 
L 83.19804 296.466883 
L 83.685746 294.402388 
" style="fill:none;opacity:0.5;stroke:#ff0000;stroke-linecap:round;stroke-width:3;"/>
   </g>
   <g id="[&quot;g_s&quot;:3,&quot;g_t&quot;:3,&quot;coords&quot;:[[103.0, -480.0],[86.0, -468.0]],&quot;certainty&quot;:11]">
    <path clip-path="url(#p924bfb5c41)" d="M 106.311169 109.5202 
C 108.802561 109.5202 111.192247 106.921159 112.953926 102.295485 
C 114.715606 97.669812 115.705446 91.395172 115.705446 84.853482 
C 115.705446 78.311792 114.715606 72.037152 112.953926 67.411478 
C 111.192247 62.785805 108.802561 60.186764 106.311169 60.186764 
C 103.819778 60.186764 101.430092 62.785805 99.668412 67.411478 
C 97.906732 72.037152 96.916892 78.311792 96.916892 84.853482 
C 96.916892 91.395172 97.906732 97.669812 99.668412 102.295485 
C 101.430092 106.921159 103.819778 109.5202 106.311169 109.5202 
z
" style="fill:#0000ff;opacity:0.2;stroke:#0000ff;stroke-linejoin:miter;stroke-width:2;"/>
   </g>
   <g id="[&quot;g_s&quot;:3,&quot;g_t&quot;:3,&quot;coords&quot;:[[86.0, -468.0],[103.0, -480.0]],&quot;certainty&quot;:11]">
    <path clip-path="url(#p924bfb5c41)" d="M 79.694051 60.186764 
C 82.185442 60.186764 84.575128 57.587723 86.336808 52.96205 
C 88.098488 48.336376 89.088328 42.061736 89.088328 35.520046 
C 89.088328 28.978356 88.098488 22.703716 86.336808 18.078043 
C 84.575128 13.452369 82.185442 10.853328 79.694051 10.853328 
C 77.202659 10.853328 74.812973 13.452369 73.051294 18.078043 
C 71.289614 22.703716 70.299774 28.978356 70.299774 35.520046 
C 70.299774 42.061736 71.289614 48.336376 73.051294 52.96205 
C 74.812973 57.587723 77.202659 60.186764 79.694051 60.186764 
z
" style="fill:#ff0000;opacity:0.2;stroke:#ff0000;stroke-linejoin:miter;stroke-width:2;"/>
   </g>
   <g id="patch_18">
    <path d="M 106.311169 84.853482 
Q 93.4778 61.067503 81.651701 39.148448 
" style="fill:none;opacity:0.5;stroke:#ff0000;stroke-linecap:round;stroke-width:3;"/>
    <path d="M 81.043835 41.180811 
L 81.651701 39.148448 
L 83.684064 39.756315 
" style="fill:none;opacity:0.5;stroke:#ff0000;stroke-linecap:round;stroke-width:3;"/>
   </g>
   <g id="[&quot;g_s&quot;:4,&quot;g_t&quot;:4,&quot;coords&quot;:[[278.0, -480.0],[295.0, -468.0]],&quot;certainty&quot;:12]">
    <path clip-path="url(#p924bfb5c41)" d="M 380.310919 111.57576 
C 383.009926 111.57576 385.598752 108.760132 387.507239 103.748986 
C 389.415725 98.73784 390.488052 91.940313 390.488052 84.853482 
C 390.488052 77.766651 389.415725 70.969124 387.507239 65.957978 
C 385.598752 60.946832 383.009926 58.131204 380.310919 58.131204 
C 377.611911 58.131204 375.023085 60.946832 373.114598 65.957978 
C 371.206112 70.969124 370.133785 77.766651 370.133785 84.853482 
C 370.133785 91.940313 371.206112 98.73784 373.114598 103.748986 
C 375.023085 108.760132 377.611911 111.57576 380.310919 111.57576 
z
" style="fill:#0000ff;opacity:0.2;stroke:#0000ff;stroke-linejoin:miter;stroke-width:2;"/>
   </g>
   <g id="[&quot;g_s&quot;:4,&quot;g_t&quot;:4,&quot;coords&quot;:[[295.0, -468.0],[278.0, -480.0]],&quot;certainty&quot;:12]">
    <path clip-path="url(#p924bfb5c41)" d="M 406.928037 62.242324 
C 409.627044 62.242324 412.215871 59.426696 414.124357 54.41555 
C 416.032844 49.404404 417.105171 42.606877 417.105171 35.520046 
C 417.105171 28.433215 416.032844 21.635689 414.124357 16.624542 
C 412.215871 11.613396 409.627044 8.797768 406.928037 8.797768 
C 404.22903 8.797768 401.640203 11.613396 399.731717 16.624542 
C 397.823231 21.635689 396.750904 28.433215 396.750904 35.520046 
C 396.750904 42.606877 397.823231 49.404404 399.731717 54.41555 
C 401.640203 59.426696 404.22903 62.242324 406.928037 62.242324 
z
" style="fill:#ff0000;opacity:0.2;stroke:#ff0000;stroke-linejoin:miter;stroke-width:2;"/>
   </g>
   <g id="patch_19">
    <path d="M 380.310919 84.853482 
Q 393.144288 61.067503 404.886448 39.304025 
" style="fill:none;opacity:0.5;stroke:#ff0000;stroke-linecap:round;stroke-width:3.25;"/>
    <path d="M 402.854085 39.911892 
L 404.886448 39.304025 
L 405.494314 41.336388 
" style="fill:none;opacity:0.5;stroke:#ff0000;stroke-linecap:round;stroke-width:3.25;"/>
   </g>
   <g id="patch_20">
    <path clip-path="url(#p924bfb5c41)" d="M 393.619478 310.965063 
C 395.695637 310.965063 397.687042 308.799195 399.155109 304.944467 
C 400.623175 301.08974 401.448042 295.860873 401.448042 290.409465 
C 401.448042 284.958056 400.623175 279.729189 399.155109 275.874462 
C 397.687042 272.019734 395.695637 269.853866 393.619478 269.853866 
C 391.543318 269.853866 389.551913 272.019734 388.083847 275.874462 
C 386.61578 279.729189 385.790914 284.958056 385.790914 290.409465 
C 385.790914 295.860873 386.61578 301.08974 388.083847 304.944467 
C 389.551913 308.799195 391.543318 310.965063 393.619478 310.965063 
z
" style="fill:#008000;opacity:0.2;stroke:#008000;stroke-linejoin:miter;stroke-width:2;"/>
   </g>
   <g id="patch_21">
    <path clip-path="url(#p924bfb5c41)" d="M 93.00261 310.965063 
C 95.07877 310.965063 97.070174 308.799195 98.538241 304.944467 
C 100.006307 301.08974 100.831174 295.860873 100.831174 290.409465 
C 100.831174 284.958056 100.006307 279.729189 98.538241 275.874462 
C 97.070174 272.019734 95.07877 269.853866 93.00261 269.853866 
C 90.92645 269.853866 88.935046 272.019734 87.466979 275.874462 
C 85.998913 279.729189 85.174046 284.958056 85.174046 290.409465 
C 85.174046 295.860873 85.998913 301.08974 87.466979 304.944467 
C 88.935046 308.799195 90.92645 310.965063 93.00261 310.965063 
z
" style="fill:#008000;opacity:0.2;stroke:#008000;stroke-linejoin:miter;stroke-width:2;"/>
   </g>
   <g id="patch_22">
    <path clip-path="url(#p924bfb5c41)" d="M 93.00261 80.742362 
C 95.07877 80.742362 97.070174 78.576495 98.538241 74.721767 
C 100.006307 70.867039 100.831174 65.638172 100.831174 60.186764 
C 100.831174 54.735356 100.006307 49.506489 98.538241 45.651761 
C 97.070174 41.797033 95.07877 39.631166 93.00261 39.631166 
C 90.92645 39.631166 88.935046 41.797033 87.466979 45.651761 
C 85.998913 49.506489 85.174046 54.735356 85.174046 60.186764 
C 85.174046 65.638172 85.998913 70.867039 87.466979 74.721767 
C 88.935046 78.576495 90.92645 80.742362 93.00261 80.742362 
z
" style="fill:#008000;opacity:0.2;stroke:#008000;stroke-linejoin:miter;stroke-width:2;"/>
   </g>
   <g id="patch_23">
    <path clip-path="url(#p924bfb5c41)" d="M 393.619478 80.742362 
C 395.695637 80.742362 397.687042 78.576495 399.155109 74.721767 
C 400.623175 70.867039 401.448042 65.638172 401.448042 60.186764 
C 401.448042 54.735356 400.623175 49.506489 399.155109 45.651761 
C 397.687042 41.797033 395.695637 39.631166 393.619478 39.631166 
C 391.543318 39.631166 389.551913 41.797033 388.083847 45.651761 
C 386.61578 49.506489 385.790914 54.735356 385.790914 60.186764 
C 385.790914 65.638172 386.61578 70.867039 388.083847 74.721767 
C 389.551913 78.576495 391.543318 80.742362 393.619478 80.742362 
z
" style="fill:#008000;opacity:0.2;stroke:#008000;stroke-linejoin:miter;stroke-width:2;"/>
   </g>
   <g id="patch_24">
    <path clip-path="url(#p924bfb5c41)" d="M 406.928037 380.854097 
C 415.232675 380.854097 423.198295 372.190627 429.070561 356.771716 
C 434.942826 341.352804 438.242294 320.437337 438.242294 298.631704 
C 438.242294 276.82607 434.942826 255.910604 429.070561 240.491692 
C 423.198295 225.072781 415.232675 216.409311 406.928037 216.409311 
C 398.623399 216.409311 390.657779 225.072781 384.785514 240.491692 
C 378.913248 255.910604 375.61378 276.82607 375.61378 298.631704 
C 375.61378 320.437337 378.913248 341.352804 384.785514 356.771716 
C 390.657779 372.190627 398.623399 380.854097 406.928037 380.854097 
z
" style="fill:none;opacity:0.2;stroke:#ff0000;stroke-linejoin:miter;stroke-width:2;"/>
   </g>
   <g id="patch_25">
    <path clip-path="url(#p924bfb5c41)" d="M 380.310919 364.409618 
C 388.615557 364.409618 396.581176 355.746148 402.453442 340.327237 
C 408.325708 324.908326 411.625176 303.992859 411.625176 282.187225 
C 411.625176 260.381592 408.325708 239.466125 402.453442 224.047214 
C 396.581176 208.628302 388.615557 199.964832 380.310919 199.964832 
C 372.006281 199.964832 364.040661 208.628302 358.168395 224.047214 
C 352.296129 239.466125 348.996662 260.381592 348.996662 282.187225 
C 348.996662 303.992859 352.296129 324.908326 358.168395 340.327237 
C 364.040661 355.746148 372.006281 364.409618 380.310919 364.409618 
z
" style="fill:none;opacity:0.2;stroke:#0000ff;stroke-linejoin:miter;stroke-width:2;"/>
   </g>
   <g id="patch_26">
    <path clip-path="url(#p924bfb5c41)" d="M 406.928037 339.7429 
C 411.080356 339.7429 415.063166 335.411165 417.999299 327.70171 
C 420.935432 319.992254 422.585166 309.534521 422.585166 298.631704 
C 422.585166 287.728887 420.935432 277.271154 417.999299 269.561698 
C 415.063166 261.852242 411.080356 257.520507 406.928037 257.520507 
C 402.775718 257.520507 398.792908 261.852242 395.856775 269.561698 
C 392.920642 277.271154 391.270909 287.728887 391.270909 298.631704 
C 391.270909 309.534521 392.920642 319.992254 395.856775 327.70171 
C 398.792908 335.411165 402.775718 339.7429 406.928037 339.7429 
z
" style="fill:none;opacity:0.2;stroke:#008000;stroke-linejoin:miter;stroke-width:2;"/>
   </g>
   <g id="patch_27">
    <path clip-path="url(#p924bfb5c41)" d="M 380.310919 323.298422 
C 384.463238 323.298422 388.446047 318.966687 391.38218 311.257231 
C 394.318313 303.547775 395.968047 293.090042 395.968047 282.187225 
C 395.968047 271.284409 394.318313 260.826675 391.38218 253.117219 
C 388.446047 245.407764 384.463238 241.076029 380.310919 241.076029 
C 376.1586 241.076029 372.17579 245.407764 369.239657 253.117219 
C 366.303524 260.826675 364.65379 271.284409 364.65379 282.187225 
C 364.65379 293.090042 366.303524 303.547775 369.239657 311.257231 
C 372.17579 318.966687 376.1586 323.298422 380.310919 323.298422 
z
" style="fill:none;opacity:0.2;stroke:#008000;stroke-linejoin:miter;stroke-width:2;"/>
   </g>
   <g id="patch_28">
    <path d="M 393.619478 290.409465 
Q 243.311044 290.409465 93.00261 290.409465 
" style="fill:none;opacity:0.5;stroke:#008000;stroke-linecap:round;stroke-width:2;"/>
   </g>
   <g id="patch_29">
    <path d="M 405.724918 297.888398 
Q 394.469133 290.934395 383.213349 283.980393 
" style="fill:none;opacity:0.5;stroke:#800080;stroke-linecap:round;stroke-width:2;"/>
    <path d="M 405.237212 295.823902 
L 405.724918 297.888398 
L 403.660422 298.376103 
" style="fill:none;opacity:0.5;stroke:#800080;stroke-linecap:round;stroke-width:2;"/>
    <path d="M 383.701054 286.044888 
L 383.213349 283.980393 
L 385.277844 283.492687 
" style="fill:none;opacity:0.5;stroke:#800080;stroke-linecap:round;stroke-width:2;"/>
   </g>
   <g id="patch_30">
    <path d="M 93.00261 290.409465 
Q 93.00261 175.298114 93.00261 60.186764 
" style="fill:none;opacity:0.5;stroke:#008000;stroke-linecap:round;stroke-width:2;"/>
   </g>
   <g id="patch_31">
    <path d="M 80.89717 297.888398 
Q 92.152955 290.934395 103.408739 283.980393 
" style="fill:none;opacity:0.5;stroke:#800080;stroke-linecap:round;stroke-width:2;"/>
    <path d="M 82.961666 298.376103 
L 80.89717 297.888398 
L 81.384875 295.823902 
" style="fill:none;opacity:0.5;stroke:#800080;stroke-linecap:round;stroke-width:2;"/>
    <path d="M 101.344243 283.492687 
L 103.408739 283.980393 
L 102.921034 286.044888 
" style="fill:none;opacity:0.5;stroke:#800080;stroke-linecap:round;stroke-width:2;"/>
   </g>
   <g id="patch_32">
    <path d="M 93.00261 60.186764 
Q 243.311044 60.186764 393.619478 60.186764 
" style="fill:none;opacity:0.5;stroke:#008000;stroke-linecap:round;stroke-width:2;"/>
   </g>
   <g id="patch_33">
    <path d="M 80.365565 36.764662 
Q 92.52742 59.306025 104.689276 81.847388 
" style="fill:none;opacity:0.5;stroke:#800080;stroke-linecap:round;stroke-width:2;"/>
    <path d="M 79.757698 38.797025 
L 80.365565 36.764662 
L 82.397927 37.372529 
" style="fill:none;opacity:0.5;stroke:#800080;stroke-linecap:round;stroke-width:2;"/>
    <path d="M 105.297142 79.815025 
L 104.689276 81.847388 
L 102.656913 81.239521 
" style="fill:none;opacity:0.5;stroke:#800080;stroke-linecap:round;stroke-width:2;"/>
   </g>
   <g id="patch_34">
    <path d="M 393.619478 60.186764 
Q 393.619478 175.298114 393.619478 290.409465 
" style="fill:none;opacity:0.5;stroke:#008000;stroke-linecap:round;stroke-width:2;"/>
   </g>
   <g id="patch_35">
    <path d="M 406.256523 36.764662 
Q 394.094667 59.306025 381.932812 81.847388 
" style="fill:none;opacity:0.5;stroke:#800080;stroke-linecap:round;stroke-width:2;"/>
    <path d="M 404.22416 37.372529 
L 406.256523 36.764662 
L 406.86439 38.797025 
" style="fill:none;opacity:0.5;stroke:#800080;stroke-linecap:round;stroke-width:2;"/>
    <path d="M 383.965175 81.239521 
L 381.932812 81.847388 
L 381.324945 79.815025 
" style="fill:none;opacity:0.5;stroke:#800080;stroke-linecap:round;stroke-width:2;"/>
   </g>
   <g id="line2d_1">
    <path clip-path="url(#p924bfb5c41)" d="M 406.928037 298.631704 
L 79.694051 298.631704 
L 79.694051 35.520046 
L 406.928037 35.520046 
" style="fill:none;stroke:#ff0000;stroke-linecap:square;stroke-width:0.2;"/>
   </g>
   <g id="line2d_2">
    <path clip-path="url(#p924bfb5c41)" d="M 380.310919 282.187225 
L 106.311169 282.187225 
L 106.311169 84.853482 
L 380.310919 84.853482 
" style="fill:none;stroke:#0000ff;stroke-linecap:square;stroke-width:0.2;"/>
   </g>
  </g>
 </g>
 <defs>
  <clipPath id="p924bfb5c41">
   <rect height="307.51175" width="409.903625" x="37.576375" y="13.32"/>
  </clipPath>
 </defs>
</svg>
