<?xml version="1.0" encoding="utf-8" standalone="no"?>
<!DOCTYPE svg PUBLIC "-//W3C//DTD SVG 1.1//EN"
  "http://www.w3.org/Graphics/SVG/1.1/DTD/svg11.dtd">
<!-- Created with matplotlib (http://matplotlib.org/) -->
<svg height="345.6pt" version="1.1" viewBox="0 0 460.8 345.6" width="460.8pt" xmlns="http://www.w3.org/2000/svg" xmlns:xlink="http://www.w3.org/1999/xlink">
 <defs>
  <style type="text/css">
*{stroke-linecap:butt;stroke-linejoin:round;}
  </style>
 </defs>
 <g id="figure_1">
  <g id="patch_1">
   <path d="M 0 345.6 
L 460.8 345.6 
L 460.8 0 
L 0 0 
z
" style="fill:#ffffff;"/>
  </g>
  <g id="axes_1">
   <g id="patch_2">
    <path clip-path="url(#pb624c1c37a)" d="M 411.422421 306.853943 
C 412.133394 306.853943 412.815343 306.264827 413.318076 305.216341 
C 413.82081 304.167855 414.103282 302.745604 414.103282 301.26282 
C 414.103282 299.780037 413.82081 298.357786 413.318076 297.3093 
C 412.815343 296.260814 412.133394 295.671698 411.422421 295.671698 
C 410.711449 295.671698 410.0295 296.260814 409.526767 297.3093 
C 409.024033 298.357786 408.741561 299.780037 408.741561 301.26282 
C 408.741561 302.745604 409.024033 304.167855 409.526767 305.216341 
C 410.0295 306.264827 410.711449 306.853943 411.422421 306.853943 
z
" style="fill:#ff0000;opacity:0.2;stroke:#ff0000;stroke-linejoin:miter;stroke-width:2;"/>
   </g>
   <g id="patch_3">
    <path clip-path="url(#pb624c1c37a)" d="M 72.293523 306.853943 
C 73.004496 306.853943 73.686444 306.264827 74.189178 305.216341 
C 74.691912 304.167855 74.974384 302.745604 74.974384 301.26282 
C 74.974384 299.780037 74.691912 298.357786 74.189178 297.3093 
C 73.686444 296.260814 73.004496 295.671698 72.293523 295.671698 
C 71.58255 295.671698 70.900602 296.260814 70.397868 297.3093 
C 69.895135 298.357786 69.612662 299.780037 69.612662 301.26282 
C 69.612662 302.745604 69.895135 304.167855 70.397868 305.216341 
C 70.900602 306.264827 71.58255 306.853943 72.293523 306.853943 
z
" style="fill:#ff0000;opacity:0.2;stroke:#ff0000;stroke-linejoin:miter;stroke-width:2;"/>
   </g>
   <g id="patch_4">
    <path clip-path="url(#pb624c1c37a)" d="M 72.293523 108.369086 
C 73.004496 108.369086 73.686444 107.77997 74.189178 106.731484 
C 74.691912 105.682998 74.974384 104.260747 74.974384 102.777964 
C 74.974384 101.295181 74.691912 99.872929 74.189178 98.824443 
C 73.686444 97.775957 73.004496 97.186841 72.293523 97.186841 
C 71.58255 97.186841 70.900602 97.775957 70.397868 98.824443 
C 69.895135 99.872929 69.612662 101.295181 69.612662 102.777964 
C 69.612662 104.260747 69.895135 105.682998 70.397868 106.731484 
C 70.900602 107.77997 71.58255 108.369086 72.293523 108.369086 
z
" style="fill:#ff0000;opacity:0.2;stroke:#ff0000;stroke-linejoin:miter;stroke-width:2;"/>
   </g>
   <g id="patch_5">
    <path clip-path="url(#pb624c1c37a)" d="M 411.422421 108.369086 
C 412.133394 108.369086 412.815343 107.77997 413.318076 106.731484 
C 413.82081 105.682998 414.103282 104.260747 414.103282 102.777964 
C 414.103282 101.295181 413.82081 99.872929 413.318076 98.824443 
C 412.815343 97.775957 412.133394 97.186841 411.422421 97.186841 
C 410.711449 97.186841 410.0295 97.775957 409.526767 98.824443 
C 409.024033 99.872929 408.741561 101.295181 408.741561 102.777964 
C 408.741561 104.260747 409.024033 105.682998 409.526767 106.731484 
C 410.0295 107.77997 410.711449 108.369086 411.422421 108.369086 
z
" style="fill:#ff0000;opacity:0.2;stroke:#ff0000;stroke-linejoin:miter;stroke-width:2;"/>
   </g>
   <g id="patch_6">
    <path clip-path="url(#pb624c1c37a)" d="M 378.581876 197.82705 
C 379.292849 197.82705 379.974797 197.237934 380.477531 196.189448 
C 380.980264 195.140962 381.262737 193.71871 381.262737 192.235927 
C 381.262737 190.753144 380.980264 189.330892 380.477531 188.282406 
C 379.974797 187.233921 379.292849 186.644805 378.581876 186.644805 
C 377.870903 186.644805 377.188955 187.233921 376.686221 188.282406 
C 376.183488 189.330892 375.901015 190.753144 375.901015 192.235927 
C 375.901015 193.71871 376.183488 195.140962 376.686221 196.189448 
C 377.188955 197.237934 377.870903 197.82705 378.581876 197.82705 
z
" style="fill:#0000ff;opacity:0.2;stroke:#0000ff;stroke-linejoin:miter;stroke-width:2;"/>
   </g>
   <g id="patch_7">
    <path clip-path="url(#pb624c1c37a)" d="M 105.134069 197.82705 
C 105.845041 197.82705 106.52699 197.237934 107.029723 196.189448 
C 107.532457 195.140962 107.814929 193.71871 107.814929 192.235927 
C 107.814929 190.753144 107.532457 189.330892 107.029723 188.282406 
C 106.52699 187.233921 105.845041 186.644805 105.134069 186.644805 
C 104.423096 186.644805 103.741147 187.233921 103.238414 188.282406 
C 102.73568 189.330892 102.453208 190.753144 102.453208 192.235927 
C 102.453208 193.71871 102.73568 195.140962 103.238414 196.189448 
C 103.741147 197.237934 104.423096 197.82705 105.134069 197.82705 
z
" style="fill:#0000ff;opacity:0.2;stroke:#0000ff;stroke-linejoin:miter;stroke-width:2;"/>
   </g>
   <g id="patch_8">
    <path clip-path="url(#pb624c1c37a)" d="M 105.134069 38.480052 
C 105.845041 38.480052 106.52699 37.890936 107.029723 36.84245 
C 107.532457 35.793964 107.814929 34.371713 107.814929 32.88893 
C 107.814929 31.406146 107.532457 29.983895 107.029723 28.935409 
C 106.52699 27.886923 105.845041 27.297807 105.134069 27.297807 
C 104.423096 27.297807 103.741147 27.886923 103.238414 28.935409 
C 102.73568 29.983895 102.453208 31.406146 102.453208 32.88893 
C 102.453208 34.371713 102.73568 35.793964 103.238414 36.84245 
C 103.741147 37.890936 104.423096 38.480052 105.134069 38.480052 
z
" style="fill:#0000ff;opacity:0.2;stroke:#0000ff;stroke-linejoin:miter;stroke-width:2;"/>
   </g>
   <g id="patch_9">
    <path clip-path="url(#pb624c1c37a)" d="M 378.581876 38.480052 
C 379.292849 38.480052 379.974797 37.890936 380.477531 36.84245 
C 380.980264 35.793964 381.262737 34.371713 381.262737 32.88893 
C 381.262737 31.406146 380.980264 29.983895 380.477531 28.935409 
C 379.974797 27.886923 379.292849 27.297807 378.581876 27.297807 
C 377.870903 27.297807 377.188955 27.886923 376.686221 28.935409 
C 376.183488 29.983895 375.901015 31.406146 375.901015 32.88893 
C 375.901015 34.371713 376.183488 35.793964 376.686221 36.84245 
C 377.188955 37.890936 377.870903 38.480052 378.581876 38.480052 
z
" style="fill:#0000ff;opacity:0.2;stroke:#0000ff;stroke-linejoin:miter;stroke-width:2;"/>
   </g>
   <g id="patch_10">
    <path clip-path="url(#pb624c1c37a)" d="M 411.422421 301.26282 
L 72.293523 301.26282 
C 56.208358 256.533839 56.208358 147.506945 72.293523 102.777964 
L 411.422421 102.777964 
C 428.848017 147.506945 428.848017 256.533839 411.422421 301.26282 
" style="fill:none;stroke:#ff0000;stroke-linejoin:miter;stroke-width:0.5;"/>
   </g>
   <g id="patch_11">
    <path clip-path="url(#pb624c1c37a)" d="M 378.581876 192.235927 
L 105.134069 192.235927 
C 90.389334 153.098068 90.389334 72.026789 105.134069 32.88893 
L 378.581876 32.88893 
C 390.64575 72.026789 390.64575 153.098068 378.581876 192.235927 
" style="fill:none;stroke:#0000ff;stroke-linejoin:miter;stroke-width:0.5;"/>
   </g>
   <g id="[&quot;g_s&quot;:1,&quot;g_t&quot;:1,&quot;coords&quot;:[[366.0, -199.0],[341.5, -160.0]],&quot;certainty&quot;:10]">
    <path clip-path="url(#pb624c1c37a)" d="M 411.422421 316.638408 
C 413.377596 316.638408 415.252955 315.018339 416.635472 312.135003 
C 418.01799 309.251666 418.794789 305.340474 418.794789 301.26282 
C 418.794789 297.185167 418.01799 293.273975 416.635472 290.390638 
C 415.252955 287.507302 413.377596 285.887233 411.422421 285.887233 
C 409.467247 285.887233 407.591888 287.507302 406.209371 290.390638 
C 404.826853 293.273975 404.050054 297.185167 404.050054 301.26282 
C 404.050054 305.340474 404.826853 309.251666 406.209371 312.135003 
C 407.591888 315.018339 409.467247 316.638408 411.422421 316.638408 
z
" style="fill:#0000ff;opacity:0.2;stroke:#0000ff;stroke-linejoin:miter;stroke-width:2;"/>
   </g>
   <g id="[&quot;g_s&quot;:1,&quot;g_t&quot;:1,&quot;coords&quot;:[[341.5, -160.0],[366.0, -199.0]],&quot;certainty&quot;:10]">
    <path clip-path="url(#pb624c1c37a)" d="M 378.581876 207.611515 
C 380.537051 207.611515 382.41241 205.991446 383.794927 203.108109 
C 385.177444 200.224773 385.954243 196.313581 385.954243 192.235927 
C 385.954243 188.158274 385.177444 184.247082 383.794927 181.363745 
C 382.41241 178.480409 380.537051 176.86034 378.581876 176.86034 
C 376.626701 176.86034 374.751342 178.480409 373.368825 181.363745 
C 371.986308 184.247082 371.209509 188.158274 371.209509 192.235927 
C 371.209509 196.313581 371.986308 200.224773 373.368825 203.108109 
C 374.751342 205.991446 376.626701 207.611515 378.581876 207.611515 
z
" style="fill:#ff0000;opacity:0.2;stroke:#ff0000;stroke-linejoin:miter;stroke-width:2;"/>
   </g>
   <g id="patch_12">
    <path d="M 411.422421 301.26282 
Q 395.290285 247.705954 379.718985 196.011 
" style="fill:none;opacity:0.5;stroke:#0000ff;stroke-linecap:round;stroke-width:2.75;"/>
    <path d="M 378.715349 197.87988 
L 379.718985 196.011 
L 381.587866 197.014635 
" style="fill:none;opacity:0.5;stroke:#0000ff;stroke-linecap:round;stroke-width:2.75;"/>
   </g>
   <g id="[&quot;g_s&quot;:2,&quot;g_t&quot;:2,&quot;coords&quot;:[[113.0, -199.0],[137.5, -160.0]],&quot;certainty&quot;:11]">
    <path clip-path="url(#pb624c1c37a)" d="M 72.293523 318.036189 
C 74.426441 318.036189 76.472287 316.268841 77.980488 313.123383 
C 79.488688 309.977925 80.336106 305.71117 80.336106 301.26282 
C 80.336106 296.814471 79.488688 292.547716 77.980488 289.402258 
C 76.472287 286.2568 74.426441 284.489452 72.293523 284.489452 
C 70.160605 284.489452 68.114759 286.2568 66.606558 289.402258 
C 65.098358 292.547716 64.250941 296.814471 64.250941 301.26282 
C 64.250941 305.71117 65.098358 309.977925 66.606558 313.123383 
C 68.114759 316.268841 70.160605 318.036189 72.293523 318.036189 
z
" style="fill:#0000ff;opacity:0.2;stroke:#0000ff;stroke-linejoin:miter;stroke-width:2;"/>
   </g>
   <g id="[&quot;g_s&quot;:2,&quot;g_t&quot;:2,&quot;coords&quot;:[[137.5, -160.0],[113.0, -199.0]],&quot;certainty&quot;:11]">
    <path clip-path="url(#pb624c1c37a)" d="M 105.134069 209.009295 
C 107.266986 209.009295 109.312833 207.241948 110.821033 204.09649 
C 112.329234 200.951032 113.176651 196.684277 113.176651 192.235927 
C 113.176651 187.787578 112.329234 183.520823 110.821033 180.375365 
C 109.312833 177.229907 107.266986 175.462559 105.134069 175.462559 
C 103.001151 175.462559 100.955305 177.229907 99.447104 180.375365 
C 97.938903 183.520823 97.091486 187.787578 97.091486 192.235927 
C 97.091486 196.684277 97.938903 200.951032 99.447104 204.09649 
C 100.955305 207.241948 103.001151 209.009295 105.134069 209.009295 
z
" style="fill:#ff0000;opacity:0.2;stroke:#ff0000;stroke-linejoin:miter;stroke-width:2;"/>
   </g>
   <g id="patch_13">
    <path d="M 72.293523 301.26282 
Q 88.425659 247.705954 103.945975 196.180264 
" style="fill:none;opacity:0.5;stroke:#0000ff;stroke-linecap:round;stroke-width:3;"/>
    <path d="M 102.077094 197.1839 
L 103.945975 196.180264 
L 104.94961 198.049145 
" style="fill:none;opacity:0.5;stroke:#0000ff;stroke-linecap:round;stroke-width:3;"/>
   </g>
   <g id="[&quot;g_s&quot;:3,&quot;g_t&quot;:3,&quot;coords&quot;:[[113.0, -128.0],[137.5, -103.0]],&quot;certainty&quot;:11]">
    <path clip-path="url(#pb624c1c37a)" d="M 72.293523 119.551332 
C 74.426441 119.551332 76.472287 117.783984 77.980488 114.638526 
C 79.488688 111.493068 80.336106 107.226313 80.336106 102.777964 
C 80.336106 98.329614 79.488688 94.062859 77.980488 90.917401 
C 76.472287 87.771943 74.426441 86.004595 72.293523 86.004595 
C 70.160605 86.004595 68.114759 87.771943 66.606558 90.917401 
C 65.098358 94.062859 64.250941 98.329614 64.250941 102.777964 
C 64.250941 107.226313 65.098358 111.493068 66.606558 114.638526 
C 68.114759 117.783984 70.160605 119.551332 72.293523 119.551332 
z
" style="fill:#0000ff;opacity:0.2;stroke:#0000ff;stroke-linejoin:miter;stroke-width:2;"/>
   </g>
   <g id="[&quot;g_s&quot;:3,&quot;g_t&quot;:3,&quot;coords&quot;:[[137.5, -103.0],[113.0, -128.0]],&quot;certainty&quot;:11]">
    <path clip-path="url(#pb624c1c37a)" d="M 105.134069 49.662298 
C 107.266986 49.662298 109.312833 47.89495 110.821033 44.749492 
C 112.329234 41.604034 113.176651 37.337279 113.176651 32.88893 
C 113.176651 28.44058 112.329234 24.173825 110.821033 21.028367 
C 109.312833 17.882909 107.266986 16.115561 105.134069 16.115561 
C 103.001151 16.115561 100.955305 17.882909 99.447104 21.028367 
C 97.938903 24.173825 97.091486 28.44058 97.091486 32.88893 
C 97.091486 37.337279 97.938903 41.604034 99.447104 44.749492 
C 100.955305 47.89495 103.001151 49.662298 105.134069 49.662298 
z
" style="fill:#ff0000;opacity:0.2;stroke:#ff0000;stroke-linejoin:miter;stroke-width:2;"/>
   </g>
   <g id="patch_14">
    <path d="M 72.293523 102.777964 
Q 88.287855 68.739905 103.380024 36.621769 
" style="fill:none;opacity:0.5;stroke:#0000ff;stroke-linecap:round;stroke-width:3;"/>
    <path d="M 101.384508 37.341434 
L 103.380024 36.621769 
L 104.099688 38.617285 
" style="fill:none;opacity:0.5;stroke:#0000ff;stroke-linecap:round;stroke-width:3;"/>
   </g>
   <g id="[&quot;g_s&quot;:4,&quot;g_t&quot;:4,&quot;coords&quot;:[[366.0, -128.0],[341.5, -103.0]],&quot;certainty&quot;:12]">
    <path clip-path="url(#pb624c1c37a)" d="M 411.422421 120.949113 
C 413.733082 120.949113 415.949416 119.034486 417.5833 115.626906 
C 419.217184 112.219327 420.135219 107.597009 420.135219 102.777964 
C 420.135219 97.958919 419.217184 93.3366 417.5833 89.929021 
C 415.949416 86.521442 413.733082 84.606815 411.422421 84.606815 
C 409.11176 84.606815 406.895427 86.521442 405.261543 89.929021 
C 403.627659 93.3366 402.709624 97.958919 402.709624 102.777964 
C 402.709624 107.597009 403.627659 112.219327 405.261543 115.626906 
C 406.895427 119.034486 409.11176 120.949113 411.422421 120.949113 
z
" style="fill:#0000ff;opacity:0.2;stroke:#0000ff;stroke-linejoin:miter;stroke-width:2;"/>
   </g>
   <g id="[&quot;g_s&quot;:4,&quot;g_t&quot;:4,&quot;coords&quot;:[[341.5, -103.0],[366.0, -128.0]],&quot;certainty&quot;:12]">
    <path clip-path="url(#pb624c1c37a)" d="M 378.581876 51.060078 
C 380.892537 51.060078 383.10887 49.145452 384.742754 45.737872 
C 386.376638 42.330293 387.294674 37.707975 387.294674 32.88893 
C 387.294674 28.069885 386.376638 23.447566 384.742754 20.039987 
C 383.10887 16.632408 380.892537 14.717781 378.581876 14.717781 
C 376.271215 14.717781 374.054882 16.632408 372.420998 20.039987 
C 370.787114 23.447566 369.869078 28.069885 369.869078 32.88893 
C 369.869078 37.707975 370.787114 42.330293 372.420998 45.737872 
C 374.054882 49.145452 376.271215 51.060078 378.581876 51.060078 
z
" style="fill:#ff0000;opacity:0.2;stroke:#ff0000;stroke-linejoin:miter;stroke-width:2;"/>
   </g>
   <g id="patch_15">
    <path d="M 411.422421 102.777964 
Q 395.42809 68.739905 380.411101 36.781763 
" style="fill:none;opacity:0.5;stroke:#0000ff;stroke-linecap:round;stroke-width:3.25;"/>
    <path d="M 379.691436 38.777279 
L 380.411101 36.781763 
L 382.406617 37.501428 
" style="fill:none;opacity:0.5;stroke:#0000ff;stroke-linecap:round;stroke-width:3.25;"/>
   </g>
   <g id="[&quot;g_s&quot;:1,&quot;g_t&quot;:1,&quot;coords&quot;:[[341.5, -160.0],[366.0, -199.0]],&quot;certainty&quot;:10]">
    <path clip-path="url(#pb624c1c37a)" d="M 378.581876 207.611515 
C 380.537051 207.611515 382.41241 205.991446 383.794927 203.108109 
C 385.177444 200.224773 385.954243 196.313581 385.954243 192.235927 
C 385.954243 188.158274 385.177444 184.247082 383.794927 181.363745 
C 382.41241 178.480409 380.537051 176.86034 378.581876 176.86034 
C 376.626701 176.86034 374.751342 178.480409 373.368825 181.363745 
C 371.986308 184.247082 371.209509 188.158274 371.209509 192.235927 
C 371.209509 196.313581 371.986308 200.224773 373.368825 203.108109 
C 374.751342 205.991446 376.626701 207.611515 378.581876 207.611515 
z
" style="fill:#0000ff;opacity:0.2;stroke:#0000ff;stroke-linejoin:miter;stroke-width:2;"/>
   </g>
   <g id="[&quot;g_s&quot;:1,&quot;g_t&quot;:1,&quot;coords&quot;:[[366.0, -199.0],[341.5, -160.0]],&quot;certainty&quot;:10]">
    <path clip-path="url(#pb624c1c37a)" d="M 411.422421 316.638408 
C 413.377596 316.638408 415.252955 315.018339 416.635472 312.135003 
C 418.01799 309.251666 418.794789 305.340474 418.794789 301.26282 
C 418.794789 297.185167 418.01799 293.273975 416.635472 290.390638 
C 415.252955 287.507302 413.377596 285.887233 411.422421 285.887233 
C 409.467247 285.887233 407.591888 287.507302 406.209371 290.390638 
C 404.826853 293.273975 404.050054 297.185167 404.050054 301.26282 
C 404.050054 305.340474 404.826853 309.251666 406.209371 312.135003 
C 407.591888 315.018339 409.467247 316.638408 411.422421 316.638408 
z
" style="fill:#ff0000;opacity:0.2;stroke:#ff0000;stroke-linejoin:miter;stroke-width:2;"/>
   </g>
   <g id="patch_16">
    <path d="M 378.581876 192.235927 
Q 394.714012 245.792793 410.285313 297.487748 
" style="fill:none;opacity:0.5;stroke:#ff0000;stroke-linecap:round;stroke-width:2.75;"/>
    <path d="M 411.288948 295.618867 
L 410.285313 297.487748 
L 408.416432 296.484113 
" style="fill:none;opacity:0.5;stroke:#ff0000;stroke-linecap:round;stroke-width:2.75;"/>
   </g>
   <g id="[&quot;g_s&quot;:2,&quot;g_t&quot;:2,&quot;coords&quot;:[[137.5, -160.0],[113.0, -199.0]],&quot;certainty&quot;:11]">
    <path clip-path="url(#pb624c1c37a)" d="M 105.134069 209.009295 
C 107.266986 209.009295 109.312833 207.241948 110.821033 204.09649 
C 112.329234 200.951032 113.176651 196.684277 113.176651 192.235927 
C 113.176651 187.787578 112.329234 183.520823 110.821033 180.375365 
C 109.312833 177.229907 107.266986 175.462559 105.134069 175.462559 
C 103.001151 175.462559 100.955305 177.229907 99.447104 180.375365 
C 97.938903 183.520823 97.091486 187.787578 97.091486 192.235927 
C 97.091486 196.684277 97.938903 200.951032 99.447104 204.09649 
C 100.955305 207.241948 103.001151 209.009295 105.134069 209.009295 
z
" style="fill:#0000ff;opacity:0.2;stroke:#0000ff;stroke-linejoin:miter;stroke-width:2;"/>
   </g>
   <g id="[&quot;g_s&quot;:2,&quot;g_t&quot;:2,&quot;coords&quot;:[[113.0, -199.0],[137.5, -160.0]],&quot;certainty&quot;:11]">
    <path clip-path="url(#pb624c1c37a)" d="M 72.293523 318.036189 
C 74.426441 318.036189 76.472287 316.268841 77.980488 313.123383 
C 79.488688 309.977925 80.336106 305.71117 80.336106 301.26282 
C 80.336106 296.814471 79.488688 292.547716 77.980488 289.402258 
C 76.472287 286.2568 74.426441 284.489452 72.293523 284.489452 
C 70.160605 284.489452 68.114759 286.2568 66.606558 289.402258 
C 65.098358 292.547716 64.250941 296.814471 64.250941 301.26282 
C 64.250941 305.71117 65.098358 309.977925 66.606558 313.123383 
C 68.114759 316.268841 70.160605 318.036189 72.293523 318.036189 
z
" style="fill:#ff0000;opacity:0.2;stroke:#ff0000;stroke-linejoin:miter;stroke-width:2;"/>
   </g>
   <g id="patch_17">
    <path d="M 105.134069 192.235927 
Q 89.001932 245.792793 73.481617 297.318483 
" style="fill:none;opacity:0.5;stroke:#ff0000;stroke-linecap:round;stroke-width:3;"/>
    <path d="M 75.350498 296.314848 
L 73.481617 297.318483 
L 72.477981 295.449603 
" style="fill:none;opacity:0.5;stroke:#ff0000;stroke-linecap:round;stroke-width:3;"/>
   </g>
   <g id="[&quot;g_s&quot;:3,&quot;g_t&quot;:3,&quot;coords&quot;:[[137.5, -103.0],[113.0, -128.0]],&quot;certainty&quot;:11]">
    <path clip-path="url(#pb624c1c37a)" d="M 105.134069 49.662298 
C 107.266986 49.662298 109.312833 47.89495 110.821033 44.749492 
C 112.329234 41.604034 113.176651 37.337279 113.176651 32.88893 
C 113.176651 28.44058 112.329234 24.173825 110.821033 21.028367 
C 109.312833 17.882909 107.266986 16.115561 105.134069 16.115561 
C 103.001151 16.115561 100.955305 17.882909 99.447104 21.028367 
C 97.938903 24.173825 97.091486 28.44058 97.091486 32.88893 
C 97.091486 37.337279 97.938903 41.604034 99.447104 44.749492 
C 100.955305 47.89495 103.001151 49.662298 105.134069 49.662298 
z
" style="fill:#0000ff;opacity:0.2;stroke:#0000ff;stroke-linejoin:miter;stroke-width:2;"/>
   </g>
   <g id="[&quot;g_s&quot;:3,&quot;g_t&quot;:3,&quot;coords&quot;:[[113.0, -128.0],[137.5, -103.0]],&quot;certainty&quot;:11]">
    <path clip-path="url(#pb624c1c37a)" d="M 72.293523 119.551332 
C 74.426441 119.551332 76.472287 117.783984 77.980488 114.638526 
C 79.488688 111.493068 80.336106 107.226313 80.336106 102.777964 
C 80.336106 98.329614 79.488688 94.062859 77.980488 90.917401 
C 76.472287 87.771943 74.426441 86.004595 72.293523 86.004595 
C 70.160605 86.004595 68.114759 87.771943 66.606558 90.917401 
C 65.098358 94.062859 64.250941 98.329614 64.250941 102.777964 
C 64.250941 107.226313 65.098358 111.493068 66.606558 114.638526 
C 68.114759 117.783984 70.160605 119.551332 72.293523 119.551332 
z
" style="fill:#ff0000;opacity:0.2;stroke:#ff0000;stroke-linejoin:miter;stroke-width:2;"/>
   </g>
   <g id="patch_18">
    <path d="M 105.134069 32.88893 
Q 89.139737 66.926988 74.047568 99.045124 
" style="fill:none;opacity:0.5;stroke:#ff0000;stroke-linecap:round;stroke-width:3;"/>
    <path d="M 76.043084 98.325459 
L 74.047568 99.045124 
L 73.327903 97.049608 
" style="fill:none;opacity:0.5;stroke:#ff0000;stroke-linecap:round;stroke-width:3;"/>
   </g>
   <g id="[&quot;g_s&quot;:4,&quot;g_t&quot;:4,&quot;coords&quot;:[[341.5, -103.0],[366.0, -128.0]],&quot;certainty&quot;:12]">
    <path clip-path="url(#pb624c1c37a)" d="M 378.581876 51.060078 
C 380.892537 51.060078 383.10887 49.145452 384.742754 45.737872 
C 386.376638 42.330293 387.294674 37.707975 387.294674 32.88893 
C 387.294674 28.069885 386.376638 23.447566 384.742754 20.039987 
C 383.10887 16.632408 380.892537 14.717781 378.581876 14.717781 
C 376.271215 14.717781 374.054882 16.632408 372.420998 20.039987 
C 370.787114 23.447566 369.869078 28.069885 369.869078 32.88893 
C 369.869078 37.707975 370.787114 42.330293 372.420998 45.737872 
C 374.054882 49.145452 376.271215 51.060078 378.581876 51.060078 
z
" style="fill:#0000ff;opacity:0.2;stroke:#0000ff;stroke-linejoin:miter;stroke-width:2;"/>
   </g>
   <g id="[&quot;g_s&quot;:4,&quot;g_t&quot;:4,&quot;coords&quot;:[[366.0, -128.0],[341.5, -103.0]],&quot;certainty&quot;:12]">
    <path clip-path="url(#pb624c1c37a)" d="M 411.422421 120.949113 
C 413.733082 120.949113 415.949416 119.034486 417.5833 115.626906 
C 419.217184 112.219327 420.135219 107.597009 420.135219 102.777964 
C 420.135219 97.958919 419.217184 93.3366 417.5833 89.929021 
C 415.949416 86.521442 413.733082 84.606815 411.422421 84.606815 
C 409.11176 84.606815 406.895427 86.521442 405.261543 89.929021 
C 403.627659 93.3366 402.709624 97.958919 402.709624 102.777964 
C 402.709624 107.597009 403.627659 112.219327 405.261543 115.626906 
C 406.895427 119.034486 409.11176 120.949113 411.422421 120.949113 
z
" style="fill:#ff0000;opacity:0.2;stroke:#ff0000;stroke-linejoin:miter;stroke-width:2;"/>
   </g>
   <g id="patch_19">
    <path d="M 378.581876 32.88893 
Q 394.576208 66.926988 409.593196 98.88513 
" style="fill:none;opacity:0.5;stroke:#ff0000;stroke-linecap:round;stroke-width:3.25;"/>
    <path d="M 410.312861 96.889615 
L 409.593196 98.88513 
L 407.597681 98.165466 
" style="fill:none;opacity:0.5;stroke:#ff0000;stroke-linecap:round;stroke-width:3.25;"/>
   </g>
   <g id="patch_20">
    <path clip-path="url(#pb624c1c37a)" d="M 395.002149 260.727181 
C 396.77958 260.727181 398.484452 259.254391 399.741286 256.633176 
C 400.99812 254.011961 401.704301 250.456332 401.704301 246.749374 
C 401.704301 243.042416 400.99812 239.486787 399.741286 236.865572 
C 398.484452 234.244357 396.77958 232.771567 395.002149 232.771567 
C 393.224717 232.771567 391.519845 234.244357 390.263012 236.865572 
C 389.006178 239.486787 388.299997 243.042416 388.299997 246.749374 
C 388.299997 250.456332 389.006178 254.011961 390.263012 256.633176 
C 391.519845 259.254391 393.224717 260.727181 395.002149 260.727181 
z
" style="fill:#008000;opacity:0.2;stroke:#008000;stroke-linejoin:miter;stroke-width:2;"/>
   </g>
   <g id="patch_21">
    <path clip-path="url(#pb624c1c37a)" d="M 88.713796 260.727181 
C 90.491227 260.727181 92.196099 259.254391 93.452933 256.633176 
C 94.709767 254.011961 95.415948 250.456332 95.415948 246.749374 
C 95.415948 243.042416 94.709767 239.486787 93.452933 236.865572 
C 92.196099 234.244357 90.491227 232.771567 88.713796 232.771567 
C 86.936364 232.771567 85.231492 234.244357 83.974659 236.865572 
C 82.717825 239.486787 82.011644 243.042416 82.011644 246.749374 
C 82.011644 250.456332 82.717825 254.011961 83.974659 256.633176 
C 85.231492 259.254391 86.936364 260.727181 88.713796 260.727181 
z
" style="fill:#008000;opacity:0.2;stroke:#008000;stroke-linejoin:miter;stroke-width:2;"/>
   </g>
   <g id="patch_22">
    <path clip-path="url(#pb624c1c37a)" d="M 88.713796 81.811253 
C 90.491227 81.811253 92.196099 80.338464 93.452933 77.717249 
C 94.709767 75.096034 95.415948 71.540404 95.415948 67.833447 
C 95.415948 64.126489 94.709767 60.57086 93.452933 57.949645 
C 92.196099 55.32843 90.491227 53.85564 88.713796 53.85564 
C 86.936364 53.85564 85.231492 55.32843 83.974659 57.949645 
C 82.717825 60.57086 82.011644 64.126489 82.011644 67.833447 
C 82.011644 71.540404 82.717825 75.096034 83.974659 77.717249 
C 85.231492 80.338464 86.936364 81.811253 88.713796 81.811253 
z
" style="fill:#008000;opacity:0.2;stroke:#008000;stroke-linejoin:miter;stroke-width:2;"/>
   </g>
   <g id="patch_23">
    <path clip-path="url(#pb624c1c37a)" d="M 395.002149 81.811253 
C 396.77958 81.811253 398.484452 80.338464 399.741286 77.717249 
C 400.99812 75.096034 401.704301 71.540404 401.704301 67.833447 
C 401.704301 64.126489 400.99812 60.57086 399.741286 57.949645 
C 398.484452 55.32843 396.77958 53.85564 395.002149 53.85564 
C 393.224717 53.85564 391.519845 55.32843 390.263012 57.949645 
C 389.006178 60.57086 388.299997 64.126489 388.299997 67.833447 
C 388.299997 71.540404 389.006178 75.096034 390.263012 77.717249 
C 391.519845 80.338464 393.224717 81.811253 395.002149 81.811253 
z
" style="fill:#008000;opacity:0.2;stroke:#008000;stroke-linejoin:miter;stroke-width:2;"/>
   </g>
   <g id="patch_24">
    <path clip-path="url(#pb624c1c37a)" d="M 411.422421 357.174048 
C 418.532148 357.174048 425.351635 351.282888 430.37897 340.798028 
C 435.406306 330.313169 438.23103 316.090651 438.23103 301.26282 
C 438.23103 286.43499 435.406306 272.212472 430.37897 261.727613 
C 425.351635 251.242753 418.532148 245.351593 411.422421 245.351593 
C 404.312695 245.351593 397.493208 251.242753 392.465873 261.727613 
C 387.438537 272.212472 384.613813 286.43499 384.613813 301.26282 
C 384.613813 316.090651 387.438537 330.313169 392.465873 340.798028 
C 397.493208 351.282888 404.312695 357.174048 411.422421 357.174048 
z
" style="fill:none;opacity:0.2;stroke:#ff0000;stroke-linejoin:miter;stroke-width:2;"/>
   </g>
   <g id="patch_25">
    <path clip-path="url(#pb624c1c37a)" d="M 378.581876 248.147155 
C 385.691602 248.147155 392.511089 242.255995 397.538425 231.771135 
C 402.56576 221.286276 405.390485 207.063758 405.390485 192.235927 
C 405.390485 177.408096 402.56576 163.185579 397.538425 152.700719 
C 392.511089 142.21586 385.691602 136.3247 378.581876 136.3247 
C 371.47215 136.3247 364.652663 142.21586 359.625327 152.700719 
C 354.597992 163.185579 351.773267 177.408096 351.773267 192.235927 
C 351.773267 207.063758 354.597992 221.286276 359.625327 231.771135 
C 364.652663 242.255995 371.47215 248.147155 378.581876 248.147155 
z
" style="fill:none;opacity:0.2;stroke:#0000ff;stroke-linejoin:miter;stroke-width:2;"/>
   </g>
   <g id="patch_26">
    <path clip-path="url(#pb624c1c37a)" d="M 411.422421 329.218434 
C 414.977285 329.218434 418.387028 326.272854 420.900696 321.030424 
C 423.414364 315.787995 424.826726 308.676736 424.826726 301.26282 
C 424.826726 293.848905 423.414364 286.737646 420.900696 281.495216 
C 418.387028 276.252787 414.977285 273.307207 411.422421 273.307207 
C 407.867558 273.307207 404.457815 276.252787 401.944147 281.495216 
C 399.430479 286.737646 398.018117 293.848905 398.018117 301.26282 
C 398.018117 308.676736 399.430479 315.787995 401.944147 321.030424 
C 404.457815 326.272854 407.867558 329.218434 411.422421 329.218434 
z
" style="fill:none;opacity:0.2;stroke:#008000;stroke-linejoin:miter;stroke-width:2;"/>
   </g>
   <g id="patch_27">
    <path clip-path="url(#pb624c1c37a)" d="M 378.581876 220.191541 
C 382.136739 220.191541 385.546483 217.245961 388.06015 212.003531 
C 390.573818 206.761101 391.98618 199.649843 391.98618 192.235927 
C 391.98618 184.822012 390.573818 177.710753 388.06015 172.468323 
C 385.546483 167.225893 382.136739 164.280314 378.581876 164.280314 
C 375.027013 164.280314 371.617269 167.225893 369.103602 172.468323 
C 366.589934 177.710753 365.177572 184.822012 365.177572 192.235927 
C 365.177572 199.649843 366.589934 206.761101 369.103602 212.003531 
C 371.617269 217.245961 375.027013 220.191541 378.581876 220.191541 
z
" style="fill:none;opacity:0.2;stroke:#008000;stroke-linejoin:miter;stroke-width:2;"/>
   </g>
   <g id="patch_28">
    <path d="M 395.002149 246.749374 
Q 241.857972 246.749374 88.713796 246.749374 
" style="fill:none;opacity:0.5;stroke:#008000;stroke-linecap:round;stroke-width:2;"/>
   </g>
   <g id="patch_29">
    <path d="M 411.014541 299.908703 
Q 395.290285 247.705954 379.56603 195.503206 
" style="fill:none;opacity:0.5;stroke:#800080;stroke-linecap:round;stroke-width:2;"/>
    <path d="M 412.018176 298.039822 
L 411.014541 299.908703 
L 409.14566 298.905068 
" style="fill:none;opacity:0.5;stroke:#800080;stroke-linecap:round;stroke-width:2;"/>
    <path d="M 378.562394 197.372086 
L 379.56603 195.503206 
L 381.43491 196.506841 
" style="fill:none;opacity:0.5;stroke:#800080;stroke-linecap:round;stroke-width:2;"/>
   </g>
   <g id="patch_30">
    <path d="M 88.713796 246.749374 
Q 88.713796 157.29141 88.713796 67.833447 
" style="fill:none;opacity:0.5;stroke:#008000;stroke-linecap:round;stroke-width:2;"/>
   </g>
   <g id="patch_31">
    <path d="M 72.701404 299.908703 
Q 88.425659 247.705954 104.149915 195.503206 
" style="fill:none;opacity:0.5;stroke:#800080;stroke-linecap:round;stroke-width:2;"/>
    <path d="M 74.570284 298.905068 
L 72.701404 299.908703 
L 71.697768 298.039822 
" style="fill:none;opacity:0.5;stroke:#800080;stroke-linecap:round;stroke-width:2;"/>
    <path d="M 102.281034 196.506841 
L 104.149915 195.503206 
L 105.153551 197.372086 
" style="fill:none;opacity:0.5;stroke:#800080;stroke-linecap:round;stroke-width:2;"/>
   </g>
   <g id="patch_32">
    <path d="M 88.713796 67.833447 
Q 241.857972 67.833447 395.002149 67.833447 
" style="fill:none;opacity:0.5;stroke:#008000;stroke-linecap:round;stroke-width:2;"/>
   </g>
   <g id="patch_33">
    <path d="M 72.894965 101.498015 
Q 88.287855 68.739905 103.680745 35.981795 
" style="fill:none;opacity:0.5;stroke:#800080;stroke-linecap:round;stroke-width:2;"/>
    <path d="M 74.890481 100.778351 
L 72.894965 101.498015 
L 72.1753 99.5025 
" style="fill:none;opacity:0.5;stroke:#800080;stroke-linecap:round;stroke-width:2;"/>
    <path d="M 101.685229 36.70146 
L 103.680745 35.981795 
L 104.400409 37.977311 
" style="fill:none;opacity:0.5;stroke:#800080;stroke-linecap:round;stroke-width:2;"/>
   </g>
   <g id="patch_34">
    <path d="M 395.002149 67.833447 
Q 395.002149 157.29141 395.002149 246.749374 
" style="fill:none;opacity:0.5;stroke:#008000;stroke-linecap:round;stroke-width:2;"/>
   </g>
   <g id="patch_35">
    <path d="M 410.820979 101.498015 
Q 395.42809 68.739905 380.0352 35.981795 
" style="fill:none;opacity:0.5;stroke:#800080;stroke-linecap:round;stroke-width:2;"/>
    <path d="M 411.540644 99.5025 
L 410.820979 101.498015 
L 408.825464 100.778351 
" style="fill:none;opacity:0.5;stroke:#800080;stroke-linecap:round;stroke-width:2;"/>
    <path d="M 379.315535 37.977311 
L 380.0352 35.981795 
L 382.030715 36.70146 
" style="fill:none;opacity:0.5;stroke:#800080;stroke-linecap:round;stroke-width:2;"/>
   </g>
   <g id="line2d_1">
    <path clip-path="url(#pb624c1c37a)" d="M 411.422421 301.26282 
L 72.293523 301.26282 
L 72.293523 102.777964 
L 411.422421 102.777964 
" style="fill:none;stroke:#ff0000;stroke-linecap:square;stroke-width:0.2;"/>
   </g>
   <g id="line2d_2">
    <path clip-path="url(#pb624c1c37a)" d="M 378.581876 192.235927 
L 105.134069 192.235927 
L 105.134069 32.88893 
L 378.581876 32.88893 
" style="fill:none;stroke:#0000ff;stroke-linecap:square;stroke-width:0.2;"/>
   </g>
  </g>
 </g>
 <defs>
  <clipPath id="pb624c1c37a">
   <rect height="307.51175" width="409.903625" x="37.576375" y="13.32"/>
  </clipPath>
 </defs>
</svg>
