<?xml version="1.0" encoding="utf-8" standalone="no"?>
<!DOCTYPE svg PUBLIC "-//W3C//DTD SVG 1.1//EN"
  "http://www.w3.org/Graphics/SVG/1.1/DTD/svg11.dtd">
<!-- Created with matplotlib (http://matplotlib.org/) -->
<svg height="345.6pt" version="1.1" viewBox="0 0 460.8 345.6" width="460.8pt" xmlns="http://www.w3.org/2000/svg" xmlns:xlink="http://www.w3.org/1999/xlink">
 <defs>
  <style type="text/css">
*{stroke-linecap:butt;stroke-linejoin:round;}
  </style>
 </defs>
 <g id="figure_1">
  <g id="patch_1">
   <path d="M 0 345.6 
L 460.8 345.6 
L 460.8 0 
L 0 0 
z
" style="fill:#ffffff;"/>
  </g>
  <g id="axes_1">
   <g id="patch_2">
    <path clip-path="url(#p3198af165d)" d="M 411.019449 262.243921 
C 411.738368 262.243921 412.427938 261.617202 412.93629 260.501792 
C 413.444642 259.386381 413.730271 257.873347 413.730271 256.295919 
C 413.730271 254.71849 413.444642 253.205456 412.93629 252.090045 
C 412.427938 250.974635 411.738368 250.347916 411.019449 250.347916 
C 410.300531 250.347916 409.610961 250.974635 409.102609 252.090045 
C 408.594257 253.205456 408.308628 254.71849 408.308628 256.295919 
C 408.308628 257.873347 408.594257 259.386381 409.102609 260.501792 
C 409.610961 261.617202 410.300531 262.243921 411.019449 262.243921 
z
" style="fill:#ff0000;opacity:0.2;stroke:#ff0000;stroke-linejoin:miter;stroke-width:2;"/>
   </g>
   <g id="patch_3">
    <path clip-path="url(#p3198af165d)" d="M 68.100515 262.243921 
C 68.819433 262.243921 69.509003 261.617202 70.017355 260.501792 
C 70.525707 259.386381 70.811337 257.873347 70.811337 256.295919 
C 70.811337 254.71849 70.525707 253.205456 70.017355 252.090045 
C 69.509003 250.974635 68.819433 250.347916 68.100515 250.347916 
C 67.381597 250.347916 66.692027 250.974635 66.183675 252.090045 
C 65.675323 253.205456 65.389693 254.71849 65.389693 256.295919 
C 65.389693 257.873347 65.675323 259.386381 66.183675 260.501792 
C 66.692027 261.617202 67.381597 262.243921 68.100515 262.243921 
z
" style="fill:#ff0000;opacity:0.2;stroke:#ff0000;stroke-linejoin:miter;stroke-width:2;"/>
   </g>
   <g id="patch_4">
    <path clip-path="url(#p3198af165d)" d="M 68.100515 39.193813 
C 68.819433 39.193813 69.509003 38.567094 70.017355 37.451683 
C 70.525707 36.336272 70.811337 34.823239 70.811337 33.24581 
C 70.811337 31.668381 70.525707 30.155347 70.017355 29.039937 
C 69.509003 27.924526 68.819433 27.297807 68.100515 27.297807 
C 67.381597 27.297807 66.692027 27.924526 66.183675 29.039937 
C 65.675323 30.155347 65.389693 31.668381 65.389693 33.24581 
C 65.389693 34.823239 65.675323 36.336272 66.183675 37.451683 
C 66.692027 38.567094 67.381597 39.193813 68.100515 39.193813 
z
" style="fill:#ff0000;opacity:0.2;stroke:#ff0000;stroke-linejoin:miter;stroke-width:2;"/>
   </g>
   <g id="patch_5">
    <path clip-path="url(#p3198af165d)" d="M 411.019449 39.193813 
C 411.738368 39.193813 412.427938 38.567094 412.93629 37.451683 
C 413.444642 36.336272 413.730271 34.823239 413.730271 33.24581 
C 413.730271 31.668381 413.444642 30.155347 412.93629 29.039937 
C 412.427938 27.924526 411.738368 27.297807 411.019449 27.297807 
C 410.300531 27.297807 409.610961 27.924526 409.102609 29.039937 
C 408.594257 30.155347 408.308628 31.668381 408.308628 33.24581 
C 408.308628 34.823239 408.594257 36.336272 409.102609 37.451683 
C 409.610961 38.567094 410.300531 39.193813 411.019449 39.193813 
z
" style="fill:#ff0000;opacity:0.2;stroke:#ff0000;stroke-linejoin:miter;stroke-width:2;"/>
   </g>
   <g id="patch_6">
    <path clip-path="url(#p3198af165d)" d="M 388.655171 306.853943 
C 389.374089 306.853943 390.063659 306.227224 390.572011 305.111813 
C 391.080363 303.996403 391.365993 302.483369 391.365993 300.90594 
C 391.365993 299.328511 391.080363 297.815478 390.572011 296.700067 
C 390.063659 295.584656 389.374089 294.957937 388.655171 294.957937 
C 387.936253 294.957937 387.246683 295.584656 386.738331 296.700067 
C 386.229979 297.815478 385.944349 299.328511 385.944349 300.90594 
C 385.944349 302.483369 386.229979 303.996403 386.738331 305.111813 
C 387.246683 306.227224 387.936253 306.853943 388.655171 306.853943 
z
" style="fill:#0000ff;opacity:0.2;stroke:#0000ff;stroke-linejoin:miter;stroke-width:2;"/>
   </g>
   <g id="patch_7">
    <path clip-path="url(#p3198af165d)" d="M 90.464793 306.853943 
C 91.183712 306.853943 91.873282 306.227224 92.381634 305.111813 
C 92.889986 303.996403 93.175615 302.483369 93.175615 300.90594 
C 93.175615 299.328511 92.889986 297.815478 92.381634 296.700067 
C 91.873282 295.584656 91.183712 294.957937 90.464793 294.957937 
C 89.745875 294.957937 89.056305 295.584656 88.547953 296.700067 
C 88.039601 297.815478 87.753972 299.328511 87.753972 300.90594 
C 87.753972 302.483369 88.039601 303.996403 88.547953 305.111813 
C 89.056305 306.227224 89.745875 306.853943 90.464793 306.853943 
z
" style="fill:#0000ff;opacity:0.2;stroke:#0000ff;stroke-linejoin:miter;stroke-width:2;"/>
   </g>
   <g id="patch_8">
    <path clip-path="url(#p3198af165d)" d="M 90.464793 137.33586 
C 91.183712 137.33586 91.873282 136.709141 92.381634 135.593731 
C 92.889986 134.47832 93.175615 132.965286 93.175615 131.387858 
C 93.175615 129.810429 92.889986 128.297395 92.381634 127.181984 
C 91.873282 126.066574 91.183712 125.439855 90.464793 125.439855 
C 89.745875 125.439855 89.056305 126.066574 88.547953 127.181984 
C 88.039601 128.297395 87.753972 129.810429 87.753972 131.387858 
C 87.753972 132.965286 88.039601 134.47832 88.547953 135.593731 
C 89.056305 136.709141 89.745875 137.33586 90.464793 137.33586 
z
" style="fill:#0000ff;opacity:0.2;stroke:#0000ff;stroke-linejoin:miter;stroke-width:2;"/>
   </g>
   <g id="patch_9">
    <path clip-path="url(#p3198af165d)" d="M 388.655171 137.33586 
C 389.374089 137.33586 390.063659 136.709141 390.572011 135.593731 
C 391.080363 134.47832 391.365993 132.965286 391.365993 131.387858 
C 391.365993 129.810429 391.080363 128.297395 390.572011 127.181984 
C 390.063659 126.066574 389.374089 125.439855 388.655171 125.439855 
C 387.936253 125.439855 387.246683 126.066574 386.738331 127.181984 
C 386.229979 128.297395 385.944349 129.810429 385.944349 131.387858 
C 385.944349 132.965286 386.229979 134.47832 386.738331 135.593731 
C 387.246683 136.709141 387.936253 137.33586 388.655171 137.33586 
z
" style="fill:#0000ff;opacity:0.2;stroke:#0000ff;stroke-linejoin:miter;stroke-width:2;"/>
   </g>
   <g id="patch_10">
    <path clip-path="url(#p3198af165d)" d="M 411.019449 256.295919 
L 68.100515 256.295919 
C 51.835585 208.711895 51.835585 80.829833 68.100515 33.24581 
L 411.019449 33.24581 
C 428.63979 80.829833 428.63979 208.711895 411.019449 256.295919 
" style="fill:none;stroke:#ff0000;stroke-linejoin:miter;stroke-width:0.5;"/>
   </g>
   <g id="patch_11">
    <path clip-path="url(#p3198af165d)" d="M 388.655171 300.90594 
L 90.464793 300.90594 
C 75.555274 262.243921 75.555274 170.049876 90.464793 131.387858 
L 388.655171 131.387858 
C 404.920101 170.049876 404.920101 262.243921 388.655171 300.90594 
" style="fill:none;stroke:#0000ff;stroke-linejoin:miter;stroke-width:0.5;"/>
   </g>
   <g id="[&quot;g_s&quot;:1,&quot;g_t&quot;:1,&quot;coords&quot;:[[366.0, 25.0],[349.5, 10.0]],&quot;certainty&quot;:10]">
    <path clip-path="url(#p3198af165d)" d="M 411.019449 272.652926 
C 412.996475 272.652926 414.892792 270.929449 416.29076 267.86207 
C 417.688728 264.794691 418.474209 260.633848 418.474209 256.295919 
C 418.474209 251.957989 417.688728 247.797146 416.29076 244.729767 
C 414.892792 241.662388 412.996475 239.938911 411.019449 239.938911 
C 409.042424 239.938911 407.146106 241.662388 405.748138 244.729767 
C 404.35017 247.797146 403.56469 251.957989 403.56469 256.295919 
C 403.56469 260.633848 404.35017 264.794691 405.748138 267.86207 
C 407.146106 270.929449 409.042424 272.652926 411.019449 272.652926 
z
" style="fill:#0000ff;opacity:0.2;stroke:#0000ff;stroke-linejoin:miter;stroke-width:2;"/>
   </g>
   <g id="[&quot;g_s&quot;:1,&quot;g_t&quot;:1,&quot;coords&quot;:[[349.5, 10.0],[366.0, 25.0]],&quot;certainty&quot;:10]">
    <path clip-path="url(#p3198af165d)" d="M 388.655171 317.262948 
C 390.632196 317.262948 392.528514 315.539471 393.926482 312.472092 
C 395.32445 309.404712 396.10993 305.24387 396.10993 300.90594 
C 396.10993 296.568011 395.32445 292.407168 393.926482 289.339789 
C 392.528514 286.27241 390.632196 284.548932 388.655171 284.548932 
C 386.678146 284.548932 384.781828 286.27241 383.38386 289.339789 
C 381.985892 292.407168 381.200412 296.568011 381.200412 300.90594 
C 381.200412 305.24387 381.985892 309.404712 383.38386 312.472092 
C 384.781828 315.539471 386.678146 317.262948 388.655171 317.262948 
z
" style="fill:#ff0000;opacity:0.2;stroke:#ff0000;stroke-linejoin:miter;stroke-width:2;"/>
   </g>
   <g id="patch_12">
    <path d="M 411.019449 256.295919 
Q 400.285715 277.706496 390.423454 297.378746 
" style="fill:none;opacity:0.5;stroke:#0000ff;stroke-linecap:round;stroke-width:2.75;"/>
    <path d="M 392.436627 296.710064 
L 390.423454 297.378746 
L 389.754772 295.365573 
" style="fill:none;opacity:0.5;stroke:#0000ff;stroke-linecap:round;stroke-width:2.75;"/>
   </g>
   <g id="[&quot;g_s&quot;:2,&quot;g_t&quot;:2,&quot;coords&quot;:[[113.0, 25.0],[129.5, 10.0]],&quot;certainty&quot;:11]">
    <path clip-path="url(#p3198af165d)" d="M 68.100515 274.139927 
C 70.25727 274.139927 72.32598 272.25977 73.851036 268.913538 
C 75.376092 265.567306 76.23298 261.028205 76.23298 256.295919 
C 76.23298 251.563632 75.376092 247.024531 73.851036 243.678299 
C 72.32598 240.332067 70.25727 238.45191 68.100515 238.45191 
C 65.94376 238.45191 63.87505 240.332067 62.349994 243.678299 
C 60.824938 247.024531 59.96805 251.563632 59.96805 256.295919 
C 59.96805 261.028205 60.824938 265.567306 62.349994 268.913538 
C 63.87505 272.25977 65.94376 274.139927 68.100515 274.139927 
z
" style="fill:#0000ff;opacity:0.2;stroke:#0000ff;stroke-linejoin:miter;stroke-width:2;"/>
   </g>
   <g id="[&quot;g_s&quot;:2,&quot;g_t&quot;:2,&quot;coords&quot;:[[129.5, 10.0],[113.0, 25.0]],&quot;certainty&quot;:11]">
    <path clip-path="url(#p3198af165d)" d="M 90.464793 318.749949 
C 92.621548 318.749949 94.690258 316.869792 96.215314 313.52356 
C 97.74037 310.177328 98.597258 305.638227 98.597258 300.90594 
C 98.597258 296.173654 97.74037 291.634553 96.215314 288.288321 
C 94.690258 284.942089 92.621548 283.061932 90.464793 283.061932 
C 88.308038 283.061932 86.239328 284.942089 84.714272 288.288321 
C 83.189216 291.634553 82.332328 296.173654 82.332328 300.90594 
C 82.332328 305.638227 83.189216 310.177328 84.714272 313.52356 
C 86.239328 316.869792 88.308038 318.749949 90.464793 318.749949 
z
" style="fill:#ff0000;opacity:0.2;stroke:#ff0000;stroke-linejoin:miter;stroke-width:2;"/>
   </g>
   <g id="patch_13">
    <path d="M 68.100515 256.295919 
Q 78.834249 277.706496 88.617285 297.220716 
" style="fill:none;opacity:0.5;stroke:#0000ff;stroke-linecap:round;stroke-width:3;"/>
    <path d="M 89.285967 295.207544 
L 88.617285 297.220716 
L 86.604113 296.552034 
" style="fill:none;opacity:0.5;stroke:#0000ff;stroke-linecap:round;stroke-width:3;"/>
   </g>
   <g id="[&quot;g_s&quot;:3,&quot;g_t&quot;:3,&quot;coords&quot;:[[113.0, 100.0],[129.5, 67.0]],&quot;certainty&quot;:11]">
    <path clip-path="url(#p3198af165d)" d="M 68.100515 51.089818 
C 70.25727 51.089818 72.32598 49.209661 73.851036 45.863429 
C 75.376092 42.517197 76.23298 37.978096 76.23298 33.24581 
C 76.23298 28.513523 75.376092 23.974422 73.851036 20.62819 
C 72.32598 17.281958 70.25727 15.401801 68.100515 15.401801 
C 65.94376 15.401801 63.87505 17.281958 62.349994 20.62819 
C 60.824938 23.974422 59.96805 28.513523 59.96805 33.24581 
C 59.96805 37.978096 60.824938 42.517197 62.349994 45.863429 
C 63.87505 49.209661 65.94376 51.089818 68.100515 51.089818 
z
" style="fill:#0000ff;opacity:0.2;stroke:#0000ff;stroke-linejoin:miter;stroke-width:2;"/>
   </g>
   <g id="[&quot;g_s&quot;:3,&quot;g_t&quot;:3,&quot;coords&quot;:[[129.5, 67.0],[113.0, 100.0]],&quot;certainty&quot;:11]">
    <path clip-path="url(#p3198af165d)" d="M 90.464793 149.231866 
C 92.621548 149.231866 94.690258 147.351709 96.215314 144.005477 
C 97.74037 140.659245 98.597258 136.120144 98.597258 131.387858 
C 98.597258 126.655571 97.74037 122.11647 96.215314 118.770238 
C 94.690258 115.424006 92.621548 113.543849 90.464793 113.543849 
C 88.308038 113.543849 86.239328 115.424006 84.714272 118.770238 
C 83.189216 122.11647 82.332328 126.655571 82.332328 131.387858 
C 82.332328 136.120144 83.189216 140.659245 84.714272 144.005477 
C 86.239328 147.351709 88.308038 149.231866 90.464793 149.231866 
z
" style="fill:#ff0000;opacity:0.2;stroke:#ff0000;stroke-linejoin:miter;stroke-width:2;"/>
   </g>
   <g id="patch_14">
    <path d="M 68.100515 33.24581 
Q 79.060499 81.341942 89.549166 127.369776 
" style="fill:none;opacity:0.5;stroke:#0000ff;stroke-linecap:round;stroke-width:3;"/>
    <path d="M 90.678403 125.573997 
L 89.549166 127.369776 
L 87.753387 126.240539 
" style="fill:none;opacity:0.5;stroke:#0000ff;stroke-linecap:round;stroke-width:3;"/>
   </g>
   <g id="[&quot;g_s&quot;:4,&quot;g_t&quot;:4,&quot;coords&quot;:[[366.0, 100.0],[349.5, 67.0]],&quot;certainty&quot;:12]">
    <path clip-path="url(#p3198af165d)" d="M 411.019449 52.576819 
C 413.355934 52.576819 415.597036 50.539982 417.24918 46.914898 
C 418.901324 43.289813 419.82962 38.372453 419.82962 33.24581 
C 419.82962 28.119166 418.901324 23.201806 417.24918 19.576722 
C 415.597036 15.951637 413.355934 13.9148 411.019449 13.9148 
C 408.682965 13.9148 406.441862 15.951637 404.789718 19.576722 
C 403.137574 23.201806 402.209279 28.119166 402.209279 33.24581 
C 402.209279 38.372453 403.137574 43.289813 404.789718 46.914898 
C 406.441862 50.539982 408.682965 52.576819 411.019449 52.576819 
z
" style="fill:#0000ff;opacity:0.2;stroke:#0000ff;stroke-linejoin:miter;stroke-width:2;"/>
   </g>
   <g id="[&quot;g_s&quot;:4,&quot;g_t&quot;:4,&quot;coords&quot;:[[349.5, 67.0],[366.0, 100.0]],&quot;certainty&quot;:12]">
    <path clip-path="url(#p3198af165d)" d="M 388.655171 150.718867 
C 390.991655 150.718867 393.232758 148.68203 394.884902 145.056945 
C 396.537046 141.431861 397.465341 136.514501 397.465341 131.387858 
C 397.465341 126.261214 396.537046 121.343854 394.884902 117.71877 
C 393.232758 114.093685 390.991655 112.056848 388.655171 112.056848 
C 386.318686 112.056848 384.077584 114.093685 382.42544 117.71877 
C 380.773296 121.343854 379.845001 126.261214 379.845001 131.387858 
C 379.845001 136.514501 380.773296 141.431861 382.42544 145.056945 
C 384.077584 148.68203 386.318686 150.718867 388.655171 150.718867 
z
" style="fill:#ff0000;opacity:0.2;stroke:#ff0000;stroke-linejoin:miter;stroke-width:2;"/>
   </g>
   <g id="patch_15">
    <path d="M 411.019449 33.24581 
Q 400.059465 81.341942 389.610074 127.197418 
" style="fill:none;opacity:0.5;stroke:#0000ff;stroke-linecap:round;stroke-width:3.25;"/>
    <path d="M 391.405854 126.068181 
L 389.610074 127.197418 
L 388.480837 125.401638 
" style="fill:none;opacity:0.5;stroke:#0000ff;stroke-linecap:round;stroke-width:3.25;"/>
   </g>
   <g id="[&quot;g_s&quot;:1,&quot;g_t&quot;:1,&quot;coords&quot;:[[349.5, 10.0],[366.0, 25.0]],&quot;certainty&quot;:10]">
    <path clip-path="url(#p3198af165d)" d="M 388.655171 317.262948 
C 390.632196 317.262948 392.528514 315.539471 393.926482 312.472092 
C 395.32445 309.404712 396.10993 305.24387 396.10993 300.90594 
C 396.10993 296.568011 395.32445 292.407168 393.926482 289.339789 
C 392.528514 286.27241 390.632196 284.548932 388.655171 284.548932 
C 386.678146 284.548932 384.781828 286.27241 383.38386 289.339789 
C 381.985892 292.407168 381.200412 296.568011 381.200412 300.90594 
C 381.200412 305.24387 381.985892 309.404712 383.38386 312.472092 
C 384.781828 315.539471 386.678146 317.262948 388.655171 317.262948 
z
" style="fill:#0000ff;opacity:0.2;stroke:#0000ff;stroke-linejoin:miter;stroke-width:2;"/>
   </g>
   <g id="[&quot;g_s&quot;:1,&quot;g_t&quot;:1,&quot;coords&quot;:[[366.0, 25.0],[349.5, 10.0]],&quot;certainty&quot;:10]">
    <path clip-path="url(#p3198af165d)" d="M 411.019449 272.652926 
C 412.996475 272.652926 414.892792 270.929449 416.29076 267.86207 
C 417.688728 264.794691 418.474209 260.633848 418.474209 256.295919 
C 418.474209 251.957989 417.688728 247.797146 416.29076 244.729767 
C 414.892792 241.662388 412.996475 239.938911 411.019449 239.938911 
C 409.042424 239.938911 407.146106 241.662388 405.748138 244.729767 
C 404.35017 247.797146 403.56469 251.957989 403.56469 256.295919 
C 403.56469 260.633848 404.35017 264.794691 405.748138 267.86207 
C 407.146106 270.929449 409.042424 272.652926 411.019449 272.652926 
z
" style="fill:#ff0000;opacity:0.2;stroke:#ff0000;stroke-linejoin:miter;stroke-width:2;"/>
   </g>
   <g id="patch_16">
    <path d="M 388.655171 300.90594 
Q 399.388905 279.495363 409.251166 259.823113 
" style="fill:none;opacity:0.5;stroke:#ff0000;stroke-linecap:round;stroke-width:2.75;"/>
    <path d="M 407.237993 260.491795 
L 409.251166 259.823113 
L 409.919848 261.836285 
" style="fill:none;opacity:0.5;stroke:#ff0000;stroke-linecap:round;stroke-width:2.75;"/>
   </g>
   <g id="[&quot;g_s&quot;:2,&quot;g_t&quot;:2,&quot;coords&quot;:[[129.5, 10.0],[113.0, 25.0]],&quot;certainty&quot;:11]">
    <path clip-path="url(#p3198af165d)" d="M 90.464793 318.749949 
C 92.621548 318.749949 94.690258 316.869792 96.215314 313.52356 
C 97.74037 310.177328 98.597258 305.638227 98.597258 300.90594 
C 98.597258 296.173654 97.74037 291.634553 96.215314 288.288321 
C 94.690258 284.942089 92.621548 283.061932 90.464793 283.061932 
C 88.308038 283.061932 86.239328 284.942089 84.714272 288.288321 
C 83.189216 291.634553 82.332328 296.173654 82.332328 300.90594 
C 82.332328 305.638227 83.189216 310.177328 84.714272 313.52356 
C 86.239328 316.869792 88.308038 318.749949 90.464793 318.749949 
z
" style="fill:#0000ff;opacity:0.2;stroke:#0000ff;stroke-linejoin:miter;stroke-width:2;"/>
   </g>
   <g id="[&quot;g_s&quot;:2,&quot;g_t&quot;:2,&quot;coords&quot;:[[113.0, 25.0],[129.5, 10.0]],&quot;certainty&quot;:11]">
    <path clip-path="url(#p3198af165d)" d="M 68.100515 274.139927 
C 70.25727 274.139927 72.32598 272.25977 73.851036 268.913538 
C 75.376092 265.567306 76.23298 261.028205 76.23298 256.295919 
C 76.23298 251.563632 75.376092 247.024531 73.851036 243.678299 
C 72.32598 240.332067 70.25727 238.45191 68.100515 238.45191 
C 65.94376 238.45191 63.87505 240.332067 62.349994 243.678299 
C 60.824938 247.024531 59.96805 251.563632 59.96805 256.295919 
C 59.96805 261.028205 60.824938 265.567306 62.349994 268.913538 
C 63.87505 272.25977 65.94376 274.139927 68.100515 274.139927 
z
" style="fill:#ff0000;opacity:0.2;stroke:#ff0000;stroke-linejoin:miter;stroke-width:2;"/>
   </g>
   <g id="patch_17">
    <path d="M 90.464793 300.90594 
Q 79.731059 279.495363 69.948023 259.981142 
" style="fill:none;opacity:0.5;stroke:#ff0000;stroke-linecap:round;stroke-width:3;"/>
    <path d="M 69.279341 261.994315 
L 69.948023 259.981142 
L 71.961196 260.649825 
" style="fill:none;opacity:0.5;stroke:#ff0000;stroke-linecap:round;stroke-width:3;"/>
   </g>
   <g id="[&quot;g_s&quot;:3,&quot;g_t&quot;:3,&quot;coords&quot;:[[129.5, 67.0],[113.0, 100.0]],&quot;certainty&quot;:11]">
    <path clip-path="url(#p3198af165d)" d="M 90.464793 149.231866 
C 92.621548 149.231866 94.690258 147.351709 96.215314 144.005477 
C 97.74037 140.659245 98.597258 136.120144 98.597258 131.387858 
C 98.597258 126.655571 97.74037 122.11647 96.215314 118.770238 
C 94.690258 115.424006 92.621548 113.543849 90.464793 113.543849 
C 88.308038 113.543849 86.239328 115.424006 84.714272 118.770238 
C 83.189216 122.11647 82.332328 126.655571 82.332328 131.387858 
C 82.332328 136.120144 83.189216 140.659245 84.714272 144.005477 
C 86.239328 147.351709 88.308038 149.231866 90.464793 149.231866 
z
" style="fill:#0000ff;opacity:0.2;stroke:#0000ff;stroke-linejoin:miter;stroke-width:2;"/>
   </g>
   <g id="[&quot;g_s&quot;:3,&quot;g_t&quot;:3,&quot;coords&quot;:[[113.0, 100.0],[129.5, 67.0]],&quot;certainty&quot;:11]">
    <path clip-path="url(#p3198af165d)" d="M 68.100515 51.089818 
C 70.25727 51.089818 72.32598 49.209661 73.851036 45.863429 
C 75.376092 42.517197 76.23298 37.978096 76.23298 33.24581 
C 76.23298 28.513523 75.376092 23.974422 73.851036 20.62819 
C 72.32598 17.281958 70.25727 15.401801 68.100515 15.401801 
C 65.94376 15.401801 63.87505 17.281958 62.349994 20.62819 
C 60.824938 23.974422 59.96805 28.513523 59.96805 33.24581 
C 59.96805 37.978096 60.824938 42.517197 62.349994 45.863429 
C 63.87505 49.209661 65.94376 51.089818 68.100515 51.089818 
z
" style="fill:#ff0000;opacity:0.2;stroke:#ff0000;stroke-linejoin:miter;stroke-width:2;"/>
   </g>
   <g id="patch_18">
    <path d="M 90.464793 131.387858 
Q 79.504809 83.291725 69.016142 37.263891 
" style="fill:none;opacity:0.5;stroke:#ff0000;stroke-linecap:round;stroke-width:3;"/>
    <path d="M 67.886905 39.059671 
L 69.016142 37.263891 
L 70.811921 38.393128 
" style="fill:none;opacity:0.5;stroke:#ff0000;stroke-linecap:round;stroke-width:3;"/>
   </g>
   <g id="[&quot;g_s&quot;:4,&quot;g_t&quot;:4,&quot;coords&quot;:[[349.5, 67.0],[366.0, 100.0]],&quot;certainty&quot;:12]">
    <path clip-path="url(#p3198af165d)" d="M 388.655171 150.718867 
C 390.991655 150.718867 393.232758 148.68203 394.884902 145.056945 
C 396.537046 141.431861 397.465341 136.514501 397.465341 131.387858 
C 397.465341 126.261214 396.537046 121.343854 394.884902 117.71877 
C 393.232758 114.093685 390.991655 112.056848 388.655171 112.056848 
C 386.318686 112.056848 384.077584 114.093685 382.42544 117.71877 
C 380.773296 121.343854 379.845001 126.261214 379.845001 131.387858 
C 379.845001 136.514501 380.773296 141.431861 382.42544 145.056945 
C 384.077584 148.68203 386.318686 150.718867 388.655171 150.718867 
z
" style="fill:#0000ff;opacity:0.2;stroke:#0000ff;stroke-linejoin:miter;stroke-width:2;"/>
   </g>
   <g id="[&quot;g_s&quot;:4,&quot;g_t&quot;:4,&quot;coords&quot;:[[366.0, 100.0],[349.5, 67.0]],&quot;certainty&quot;:12]">
    <path clip-path="url(#p3198af165d)" d="M 411.019449 52.576819 
C 413.355934 52.576819 415.597036 50.539982 417.24918 46.914898 
C 418.901324 43.289813 419.82962 38.372453 419.82962 33.24581 
C 419.82962 28.119166 418.901324 23.201806 417.24918 19.576722 
C 415.597036 15.951637 413.355934 13.9148 411.019449 13.9148 
C 408.682965 13.9148 406.441862 15.951637 404.789718 19.576722 
C 403.137574 23.201806 402.209279 28.119166 402.209279 33.24581 
C 402.209279 38.372453 403.137574 43.289813 404.789718 46.914898 
C 406.441862 50.539982 408.682965 52.576819 411.019449 52.576819 
z
" style="fill:#ff0000;opacity:0.2;stroke:#ff0000;stroke-linejoin:miter;stroke-width:2;"/>
   </g>
   <g id="patch_19">
    <path d="M 388.655171 131.387858 
Q 399.615155 83.291725 410.064546 37.436249 
" style="fill:none;opacity:0.5;stroke:#ff0000;stroke-linecap:round;stroke-width:3.25;"/>
    <path d="M 408.268766 38.565486 
L 410.064546 37.436249 
L 411.193783 39.232029 
" style="fill:none;opacity:0.5;stroke:#ff0000;stroke-linecap:round;stroke-width:3.25;"/>
   </g>
   <g id="patch_20">
    <path clip-path="url(#p3198af165d)" d="M 399.83731 293.470937 
C 401.634606 293.470937 403.358531 291.904139 404.629411 289.115612 
C 405.900291 286.327086 406.614364 282.544501 406.614364 278.600929 
C 406.614364 274.657357 405.900291 270.874773 404.629411 268.086246 
C 403.358531 265.29772 401.634606 263.730922 399.83731 263.730922 
C 398.040014 263.730922 396.316089 265.29772 395.045209 268.086246 
C 393.774329 270.874773 393.060256 274.657357 393.060256 278.600929 
C 393.060256 282.544501 393.774329 286.327086 395.045209 289.115612 
C 396.316089 291.904139 398.040014 293.470937 399.83731 293.470937 
z
" style="fill:#008000;opacity:0.2;stroke:#008000;stroke-linejoin:miter;stroke-width:2;"/>
   </g>
   <g id="patch_21">
    <path clip-path="url(#p3198af165d)" d="M 79.282654 293.470937 
C 81.07995 293.470937 82.803875 291.904139 84.074755 289.115612 
C 85.345635 286.327086 86.059708 282.544501 86.059708 278.600929 
C 86.059708 274.657357 85.345635 270.874773 84.074755 268.086246 
C 82.803875 265.29772 81.07995 263.730922 79.282654 263.730922 
C 77.485358 263.730922 75.761433 265.29772 74.490553 268.086246 
C 73.219673 270.874773 72.5056 274.657357 72.5056 278.600929 
C 72.5056 282.544501 73.219673 286.327086 74.490553 289.115612 
C 75.761433 291.904139 77.485358 293.470937 79.282654 293.470937 
z
" style="fill:#008000;opacity:0.2;stroke:#008000;stroke-linejoin:miter;stroke-width:2;"/>
   </g>
   <g id="patch_22">
    <path clip-path="url(#p3198af165d)" d="M 79.282654 97.186841 
C 81.07995 97.186841 82.803875 95.620043 84.074755 92.831517 
C 85.345635 90.04299 86.059708 86.260406 86.059708 82.316834 
C 86.059708 78.373262 85.345635 74.590677 84.074755 71.802151 
C 82.803875 69.013624 81.07995 67.446826 79.282654 67.446826 
C 77.485358 67.446826 75.761433 69.013624 74.490553 71.802151 
C 73.219673 74.590677 72.5056 78.373262 72.5056 82.316834 
C 72.5056 86.260406 73.219673 90.04299 74.490553 92.831517 
C 75.761433 95.620043 77.485358 97.186841 79.282654 97.186841 
z
" style="fill:#008000;opacity:0.2;stroke:#008000;stroke-linejoin:miter;stroke-width:2;"/>
   </g>
   <g id="patch_23">
    <path clip-path="url(#p3198af165d)" d="M 399.83731 97.186841 
C 401.634606 97.186841 403.358531 95.620043 404.629411 92.831517 
C 405.900291 90.04299 406.614364 86.260406 406.614364 82.316834 
C 406.614364 78.373262 405.900291 74.590677 404.629411 71.802151 
C 403.358531 69.013624 401.634606 67.446826 399.83731 67.446826 
C 398.040014 67.446826 396.316089 69.013624 395.045209 71.802151 
C 393.774329 74.590677 393.060256 78.373262 393.060256 82.316834 
C 393.060256 86.260406 393.774329 90.04299 395.045209 92.831517 
C 396.316089 95.620043 398.040014 97.186841 399.83731 97.186841 
z
" style="fill:#008000;opacity:0.2;stroke:#008000;stroke-linejoin:miter;stroke-width:2;"/>
   </g>
   <g id="patch_24">
    <path clip-path="url(#p3198af165d)" d="M 411.019449 315.775948 
C 418.208632 315.775948 425.104333 309.508756 430.187853 298.35465 
C 435.271373 287.200544 438.127665 272.070207 438.127665 256.295919 
C 438.127665 240.52163 435.271373 225.391293 430.187853 214.237187 
C 425.104333 203.083081 418.208632 196.81589 411.019449 196.81589 
C 403.830266 196.81589 396.934566 203.083081 391.851046 214.237187 
C 386.767526 225.391293 383.911233 240.52163 383.911233 256.295919 
C 383.911233 272.070207 386.767526 287.200544 391.851046 298.35465 
C 396.934566 309.508756 403.830266 315.775948 411.019449 315.775948 
z
" style="fill:none;opacity:0.2;stroke:#ff0000;stroke-linejoin:miter;stroke-width:2;"/>
   </g>
   <g id="patch_25">
    <path clip-path="url(#p3198af165d)" d="M 388.655171 360.385969 
C 395.844354 360.385969 402.740054 354.118778 407.823574 342.964672 
C 412.907094 331.810566 415.763387 316.680228 415.763387 300.90594 
C 415.763387 285.131652 412.907094 270.001314 407.823574 258.847208 
C 402.740054 247.693102 395.844354 241.425911 388.655171 241.425911 
C 381.465988 241.425911 374.570287 247.693102 369.486767 258.847208 
C 364.403247 270.001314 361.546955 285.131652 361.546955 300.90594 
C 361.546955 316.680228 364.403247 331.810566 369.486767 342.964672 
C 374.570287 354.118778 381.465988 360.385969 388.655171 360.385969 
z
" style="fill:none;opacity:0.2;stroke:#0000ff;stroke-linejoin:miter;stroke-width:2;"/>
   </g>
   <g id="patch_26">
    <path clip-path="url(#p3198af165d)" d="M 411.019449 286.035933 
C 414.614041 286.035933 418.061891 282.902337 420.603651 277.325284 
C 423.145411 271.748231 424.573557 264.183063 424.573557 256.295919 
C 424.573557 248.408774 423.145411 240.843606 420.603651 235.266553 
C 418.061891 229.6895 414.614041 226.555904 411.019449 226.555904 
C 407.424858 226.555904 403.977008 229.6895 401.435248 235.266553 
C 398.893488 240.843606 397.465341 248.408774 397.465341 256.295919 
C 397.465341 264.183063 398.893488 271.748231 401.435248 277.325284 
C 403.977008 282.902337 407.424858 286.035933 411.019449 286.035933 
z
" style="fill:none;opacity:0.2;stroke:#008000;stroke-linejoin:miter;stroke-width:2;"/>
   </g>
   <g id="patch_27">
    <path clip-path="url(#p3198af165d)" d="M 388.655171 330.645955 
C 392.249762 330.645955 395.697613 327.512359 398.239373 321.935306 
C 400.781133 316.358253 402.209279 308.793084 402.209279 300.90594 
C 402.209279 293.018796 400.781133 285.453627 398.239373 279.876574 
C 395.697613 274.299521 392.249762 271.165926 388.655171 271.165926 
C 385.060579 271.165926 381.612729 274.299521 379.070969 279.876574 
C 376.529209 285.453627 375.101063 293.018796 375.101063 300.90594 
C 375.101063 308.793084 376.529209 316.358253 379.070969 321.935306 
C 381.612729 327.512359 385.060579 330.645955 388.655171 330.645955 
z
" style="fill:none;opacity:0.2;stroke:#008000;stroke-linejoin:miter;stroke-width:2;"/>
   </g>
   <g id="patch_28">
    <path d="M 399.83731 278.600929 
Q 239.559982 278.600929 79.282654 278.600929 
" style="fill:none;opacity:0.5;stroke:#008000;stroke-linecap:round;stroke-width:2;"/>
   </g>
   <g id="patch_29">
    <path d="M 410.38565 257.560157 
Q 400.285715 277.706496 390.18578 297.852836 
" style="fill:none;opacity:0.5;stroke:#800080;stroke-linecap:round;stroke-width:2;"/>
    <path d="M 408.372478 258.228839 
L 410.38565 257.560157 
L 411.054333 259.57333 
" style="fill:none;opacity:0.5;stroke:#800080;stroke-linecap:round;stroke-width:2;"/>
    <path d="M 392.198952 297.184153 
L 390.18578 297.852836 
L 389.517097 295.839663 
" style="fill:none;opacity:0.5;stroke:#800080;stroke-linecap:round;stroke-width:2;"/>
   </g>
   <g id="patch_30">
    <path d="M 79.282654 278.600929 
Q 79.282654 180.458882 79.282654 82.316834 
" style="fill:none;opacity:0.5;stroke:#008000;stroke-linecap:round;stroke-width:2;"/>
   </g>
   <g id="patch_31">
    <path d="M 68.734314 257.560157 
Q 78.834249 277.706496 88.934185 297.852836 
" style="fill:none;opacity:0.5;stroke:#800080;stroke-linecap:round;stroke-width:2;"/>
    <path d="M 68.065632 259.57333 
L 68.734314 257.560157 
L 70.747486 258.228839 
" style="fill:none;opacity:0.5;stroke:#800080;stroke-linecap:round;stroke-width:2;"/>
    <path d="M 89.602867 295.839663 
L 88.934185 297.852836 
L 86.921012 297.184153 
" style="fill:none;opacity:0.5;stroke:#800080;stroke-linecap:round;stroke-width:2;"/>
   </g>
   <g id="patch_32">
    <path d="M 79.282654 82.316834 
Q 239.559982 82.316834 399.83731 82.316834 
" style="fill:none;opacity:0.5;stroke:#008000;stroke-linecap:round;stroke-width:2;"/>
   </g>
   <g id="patch_33">
    <path d="M 68.414726 34.624676 
Q 79.060499 81.341942 89.706272 128.059209 
" style="fill:none;opacity:0.5;stroke:#800080;stroke-linecap:round;stroke-width:2;"/>
    <path d="M 67.285489 36.420455 
L 68.414726 34.624676 
L 70.210506 35.753912 
" style="fill:none;opacity:0.5;stroke:#800080;stroke-linecap:round;stroke-width:2;"/>
    <path d="M 90.835509 126.26343 
L 89.706272 128.059209 
L 87.910492 126.929972 
" style="fill:none;opacity:0.5;stroke:#800080;stroke-linecap:round;stroke-width:2;"/>
   </g>
   <g id="patch_34">
    <path d="M 399.83731 82.316834 
Q 399.83731 180.458882 399.83731 278.600929 
" style="fill:none;opacity:0.5;stroke:#008000;stroke-linecap:round;stroke-width:2;"/>
   </g>
   <g id="patch_35">
    <path d="M 410.705238 34.624676 
Q 400.059465 81.341942 389.413692 128.059209 
" style="fill:none;opacity:0.5;stroke:#800080;stroke-linecap:round;stroke-width:2;"/>
    <path d="M 408.909458 35.753912 
L 410.705238 34.624676 
L 411.834475 36.420455 
" style="fill:none;opacity:0.5;stroke:#800080;stroke-linecap:round;stroke-width:2;"/>
    <path d="M 391.209472 126.929972 
L 389.413692 128.059209 
L 388.284455 126.26343 
" style="fill:none;opacity:0.5;stroke:#800080;stroke-linecap:round;stroke-width:2;"/>
   </g>
   <g id="line2d_1">
    <path clip-path="url(#p3198af165d)" d="M 411.019449 256.295919 
L 68.100515 256.295919 
L 68.100515 33.24581 
L 411.019449 33.24581 
" style="fill:none;stroke:#ff0000;stroke-linecap:square;stroke-width:0.2;"/>
   </g>
   <g id="line2d_2">
    <path clip-path="url(#p3198af165d)" d="M 388.655171 300.90594 
L 90.464793 300.90594 
L 90.464793 131.387858 
L 388.655171 131.387858 
" style="fill:none;stroke:#0000ff;stroke-linecap:square;stroke-width:0.2;"/>
   </g>
  </g>
 </g>
 <defs>
  <clipPath id="p3198af165d">
   <rect height="307.51175" width="414.484625" x="32.995375" y="13.32"/>
  </clipPath>
 </defs>
</svg>
