<?xml version="1.0" encoding="utf-8" standalone="no"?>
<!DOCTYPE svg PUBLIC "-//W3C//DTD SVG 1.1//EN"
  "http://www.w3.org/Graphics/SVG/1.1/DTD/svg11.dtd">
<!-- Created with matplotlib (http://matplotlib.org/) -->
<svg height="345.6pt" version="1.1" viewBox="0 0 460.8 345.6" width="460.8pt" xmlns="http://www.w3.org/2000/svg" xmlns:xlink="http://www.w3.org/1999/xlink">
 <defs>
  <style type="text/css">
*{stroke-linecap:butt;stroke-linejoin:round;}
  </style>
 </defs>
 <g id="figure_1">
  <g id="patch_1">
   <path d="M 0 345.6 
L 460.8 345.6 
L 460.8 0 
L 0 0 
z
" style="fill:#ffffff;"/>
  </g>
  <g id="axes_1">
   <g id="patch_2">
    <path clip-path="url(#p5e18c6d845)" d="M 244.934039 46.134667 
C 245.501185 46.134667 246.045179 45.954234 246.446211 45.633105 
C 246.847244 45.311976 247.072574 44.87637 247.072574 44.422226 
C 247.072574 43.968081 246.847244 43.532475 246.446211 43.211346 
C 246.045179 42.890217 245.501185 42.709784 244.934039 42.709784 
C 244.366893 42.709784 243.822899 42.890217 243.421867 43.211346 
C 243.020834 43.532475 242.795504 43.968081 242.795504 44.422226 
C 242.795504 44.87637 243.020834 45.311976 243.421867 45.633105 
C 243.822899 45.954234 244.366893 46.134667 244.934039 46.134667 
z
" style="fill:#ff0000;opacity:0.2;stroke:#ff0000;stroke-linejoin:miter;stroke-width:2;"/>
   </g>
   <g id="patch_3">
    <path clip-path="url(#p5e18c6d845)" d="M 422.432413 172.855366 
C 422.999559 172.855366 423.543553 172.674933 423.944585 172.353804 
C 424.345618 172.032675 424.570948 171.597069 424.570948 171.142924 
C 424.570948 170.68878 424.345618 170.253174 423.944585 169.932045 
C 423.543553 169.610916 422.999559 169.430483 422.432413 169.430483 
C 421.865267 169.430483 421.321274 169.610916 420.920241 169.932045 
C 420.519208 170.253174 420.293879 170.68878 420.293879 171.142924 
C 420.293879 171.597069 420.519208 172.032675 420.920241 172.353804 
C 421.321274 172.674933 421.865267 172.855366 422.432413 172.855366 
z
" style="fill:#ff0000;opacity:0.2;stroke:#ff0000;stroke-linejoin:miter;stroke-width:2;"/>
   </g>
   <g id="patch_4">
    <path clip-path="url(#p5e18c6d845)" d="M 239.587702 303.000949 
C 240.154848 303.000949 240.698842 302.820515 241.099875 302.499386 
C 241.500908 302.178257 241.726237 301.742652 241.726237 301.288507 
C 241.726237 300.834362 241.500908 300.398757 241.099875 300.077628 
C 240.698842 299.756499 240.154848 299.576065 239.587702 299.576065 
C 239.020556 299.576065 238.476563 299.756499 238.07553 300.077628 
C 237.674497 300.398757 237.449168 300.834362 237.449168 301.288507 
C 237.449168 301.742652 237.674497 302.178257 238.07553 302.499386 
C 238.476563 302.820515 239.020556 303.000949 239.587702 303.000949 
z
" style="fill:#ff0000;opacity:0.2;stroke:#ff0000;stroke-linejoin:miter;stroke-width:2;"/>
   </g>
   <g id="patch_5">
    <path clip-path="url(#p5e18c6d845)" d="M 62.089328 180.561355 
C 62.656474 180.561355 63.200468 180.380921 63.601501 180.059792 
C 64.002533 179.738663 64.227863 179.303058 64.227863 178.848913 
C 64.227863 178.394768 64.002533 177.959163 63.601501 177.638034 
C 63.200468 177.316905 62.656474 177.136471 62.089328 177.136471 
C 61.522182 177.136471 60.978189 177.316905 60.577156 177.638034 
C 60.176123 177.959163 59.950794 178.394768 59.950794 178.848913 
C 59.950794 179.303058 60.176123 179.738663 60.577156 180.059792 
C 60.978189 180.380921 61.522182 180.561355 62.089328 180.561355 
z
" style="fill:#ff0000;opacity:0.2;stroke:#ff0000;stroke-linejoin:miter;stroke-width:2;"/>
   </g>
   <g id="patch_6">
    <path clip-path="url(#p5e18c6d845)" d="M 246.003306 46.134667 
C 246.570452 46.134667 247.114446 45.954234 247.515479 45.633105 
C 247.916511 45.311976 248.141841 44.87637 248.141841 44.422226 
C 248.141841 43.968081 247.916511 43.532475 247.515479 43.211346 
C 247.114446 42.890217 246.570452 42.709784 246.003306 42.709784 
C 245.43616 42.709784 244.892167 42.890217 244.491134 43.211346 
C 244.090101 43.532475 243.864772 43.968081 243.864772 44.422226 
C 243.864772 44.87637 244.090101 45.311976 244.491134 45.633105 
C 244.892167 45.954234 245.43616 46.134667 246.003306 46.134667 
z
" style="fill:#0000ff;opacity:0.2;stroke:#0000ff;stroke-linejoin:miter;stroke-width:2;"/>
   </g>
   <g id="patch_7">
    <path clip-path="url(#p5e18c6d845)" d="M 414.947542 171.999145 
C 415.514688 171.999145 416.058682 171.818712 416.459714 171.497583 
C 416.860747 171.176454 417.086077 170.740848 417.086077 170.286704 
C 417.086077 169.832559 416.860747 169.396953 416.459714 169.075824 
C 416.058682 168.754695 415.514688 168.574262 414.947542 168.574262 
C 414.380396 168.574262 413.836402 168.754695 413.43537 169.075824 
C 413.034337 169.396953 412.809007 169.832559 412.809007 170.286704 
C 412.809007 170.740848 413.034337 171.176454 413.43537 171.497583 
C 413.836402 171.818712 414.380396 171.999145 414.947542 171.999145 
z
" style="fill:#0000ff;opacity:0.2;stroke:#0000ff;stroke-linejoin:miter;stroke-width:2;"/>
   </g>
   <g id="patch_8">
    <path clip-path="url(#p5e18c6d845)" d="M 239.587702 303.000949 
C 240.154848 303.000949 240.698842 302.820515 241.099875 302.499386 
C 241.500908 302.178257 241.726237 301.742652 241.726237 301.288507 
C 241.726237 300.834362 241.500908 300.398757 241.099875 300.077628 
C 240.698842 299.756499 240.154848 299.576065 239.587702 299.576065 
C 239.020556 299.576065 238.476563 299.756499 238.07553 300.077628 
C 237.674497 300.398757 237.449168 300.834362 237.449168 301.288507 
C 237.449168 301.742652 237.674497 302.178257 238.07553 302.499386 
C 238.476563 302.820515 239.020556 303.000949 239.587702 303.000949 
z
" style="fill:#0000ff;opacity:0.2;stroke:#0000ff;stroke-linejoin:miter;stroke-width:2;"/>
   </g>
   <g id="patch_9">
    <path clip-path="url(#p5e18c6d845)" d="M 69.574199 177.992692 
C 70.141345 177.992692 70.685339 177.812258 71.086372 177.491129 
C 71.487405 177.17 71.712734 176.734395 71.712734 176.28025 
C 71.712734 175.826105 71.487405 175.3905 71.086372 175.069371 
C 70.685339 174.748242 70.141345 174.567808 69.574199 174.567808 
C 69.007053 174.567808 68.46306 174.748242 68.062027 175.069371 
C 67.660994 175.3905 67.435665 175.826105 67.435665 176.28025 
C 67.435665 176.734395 67.660994 177.17 68.062027 177.491129 
C 68.46306 177.812258 69.007053 177.992692 69.574199 177.992692 
z
" style="fill:#0000ff;opacity:0.2;stroke:#0000ff;stroke-linejoin:miter;stroke-width:2;"/>
   </g>
   <g id="patch_10">
    <path clip-path="url(#p5e18c6d845)" d="M 244.934039 44.422226 
C 349.722236 44.422226 422.432413 94.08304 422.432413 171.142924 
C 422.432413 257.621239 341.168097 301.288507 239.587702 301.288507 
C 140.145842 301.288507 62.089328 258.47746 62.089328 178.848913 
C 62.089328 91.514377 147.630713 44.422226 244.934039 44.422226 
" style="fill:none;stroke:#ff0000;stroke-linejoin:miter;stroke-width:0.5;"/>
   </g>
   <g id="patch_11">
    <path clip-path="url(#p5e18c6d845)" d="M 246.003306 44.422226 
C 342.237365 44.422226 414.947542 96.651703 414.947542 170.286704 
C 414.947542 245.634146 345.445167 301.288507 239.587702 301.288507 
C 140.145842 301.288507 69.574199 249.915251 69.574199 176.28025 
C 69.574199 100.076587 145.492179 44.422226 246.003306 44.422226 
" style="fill:none;stroke:#0000ff;stroke-linejoin:miter;stroke-width:0.5;"/>
   </g>
   <g id="[&quot;g_s&quot;:1,&quot;g_t&quot;:1,&quot;coords&quot;:[[255.0, -92.0],[256.0, -92.0]],&quot;certainty&quot;:11]">
    <path clip-path="url(#p5e18c6d845)" d="M 244.934039 49.559551 
C 246.635477 49.559551 248.267458 49.01825 249.470556 48.054863 
C 250.673654 47.091477 251.349643 45.78466 251.349643 44.422226 
C 251.349643 43.059791 250.673654 41.752975 249.470556 40.789588 
C 248.267458 39.826201 246.635477 39.2849 244.934039 39.2849 
C 243.232601 39.2849 241.60062 39.826201 240.397522 40.789588 
C 239.194424 41.752975 238.518435 43.059791 238.518435 44.422226 
C 238.518435 45.78466 239.194424 47.091477 240.397522 48.054863 
C 241.60062 49.01825 243.232601 49.559551 244.934039 49.559551 
z
" style="fill:#0000ff;opacity:0.2;stroke:#0000ff;stroke-linejoin:miter;stroke-width:2;"/>
   </g>
   <g id="[&quot;g_s&quot;:1,&quot;g_t&quot;:1,&quot;coords&quot;:[[256.0, -92.0],[255.0, -92.0]],&quot;certainty&quot;:11]">
    <path clip-path="url(#p5e18c6d845)" d="M 246.003306 49.559551 
C 247.704744 49.559551 249.336725 49.01825 250.539823 48.054863 
C 251.742922 47.091477 252.41891 45.78466 252.41891 44.422226 
C 252.41891 43.059791 251.742922 41.752975 250.539823 40.789588 
C 249.336725 39.826201 247.704744 39.2849 246.003306 39.2849 
C 244.301868 39.2849 242.669888 39.826201 241.466789 40.789588 
C 240.263691 41.752975 239.587702 43.059791 239.587702 44.422226 
C 239.587702 45.78466 240.263691 47.091477 241.466789 48.054863 
C 242.669888 49.01825 244.301868 49.559551 246.003306 49.559551 
z
" style="fill:#ff0000;opacity:0.2;stroke:#ff0000;stroke-linejoin:miter;stroke-width:2;"/>
   </g>
   <g id="patch_12">
    <path d="M 244.934039 44.422226 
Q 245.468673 44.422226 243.881986 44.422226 
" style="fill:none;opacity:0.5;stroke:#0000ff;stroke-linecap:round;stroke-width:3;"/>
    <path d="M 242.381986 42.922226 
L 243.881986 44.422226 
L 242.381986 45.922226 
" style="fill:none;opacity:0.5;stroke:#0000ff;stroke-linecap:round;stroke-width:3;"/>
   </g>
   <g id="[&quot;g_s&quot;:2,&quot;g_t&quot;:2,&quot;coords&quot;:[[421.0, -240.0],[414.0, -239.0]],&quot;certainty&quot;:11]">
    <path clip-path="url(#p5e18c6d845)" d="M 422.432413 176.28025 
C 424.133851 176.28025 425.765832 175.738949 426.96893 174.775562 
C 428.172029 173.812175 428.848017 172.505359 428.848017 171.142924 
C 428.848017 169.78049 428.172029 168.473673 426.96893 167.510287 
C 425.765832 166.5469 424.133851 166.005599 422.432413 166.005599 
C 420.730975 166.005599 419.098995 166.5469 417.895896 167.510287 
C 416.692798 168.473673 416.016809 169.78049 416.016809 171.142924 
C 416.016809 172.505359 416.692798 173.812175 417.895896 174.775562 
C 419.098995 175.738949 420.730975 176.28025 422.432413 176.28025 
z
" style="fill:#0000ff;opacity:0.2;stroke:#0000ff;stroke-linejoin:miter;stroke-width:2;"/>
   </g>
   <g id="[&quot;g_s&quot;:2,&quot;g_t&quot;:2,&quot;coords&quot;:[[414.0, -239.0],[421.0, -240.0]],&quot;certainty&quot;:11]">
    <path clip-path="url(#p5e18c6d845)" d="M 414.947542 175.424029 
C 416.64898 175.424029 418.280961 174.882728 419.484059 173.919341 
C 420.687157 172.955955 421.363146 171.649138 421.363146 170.286704 
C 421.363146 168.924269 420.687157 167.617453 419.484059 166.654066 
C 418.280961 165.690679 416.64898 165.149378 414.947542 165.149378 
C 413.246104 165.149378 411.614123 165.690679 410.411025 166.654066 
C 409.207927 167.617453 408.531938 168.924269 408.531938 170.286704 
C 408.531938 171.649138 409.207927 172.955955 410.411025 173.919341 
C 411.614123 174.882728 413.246104 175.424029 414.947542 175.424029 
z
" style="fill:#ff0000;opacity:0.2;stroke:#ff0000;stroke-linejoin:miter;stroke-width:2;"/>
   </g>
   <g id="patch_13">
    <path d="M 422.432413 171.142924 
Q 419.682235 170.828322 419.039632 170.754812 
" style="fill:none;opacity:0.5;stroke:#0000ff;stroke-linecap:round;stroke-width:3;"/>
    <path d="M 420.359434 172.415572 
L 419.039632 170.754812 
L 420.700391 169.43501 
" style="fill:none;opacity:0.5;stroke:#0000ff;stroke-linecap:round;stroke-width:3;"/>
   </g>
   <g id="[&quot;g_s&quot;:3,&quot;g_t&quot;:3,&quot;coords&quot;:[[250.0, -392.0],[250.0, -392.0]],&quot;certainty&quot;:12]">
    <path clip-path="url(#p5e18c6d845)" d="M 239.587702 306.853943 
C 241.430927 306.853943 243.198906 306.267534 244.502262 305.223865 
C 245.805619 304.180196 246.53794 302.764478 246.53794 301.288507 
C 246.53794 299.812536 245.805619 298.396819 244.502262 297.353149 
C 243.198906 296.30948 241.430927 295.723071 239.587702 295.723071 
C 237.744478 295.723071 235.976499 296.30948 234.673142 297.353149 
C 233.369786 298.396819 232.637465 299.812536 232.637465 301.288507 
C 232.637465 302.764478 233.369786 304.180196 234.673142 305.223865 
C 235.976499 306.267534 237.744478 306.853943 239.587702 306.853943 
z
" style="fill:#0000ff;opacity:0.2;stroke:#0000ff;stroke-linejoin:miter;stroke-width:2;"/>
   </g>
   <g id="[&quot;g_s&quot;:3,&quot;g_t&quot;:3,&quot;coords&quot;:[[250.0, -392.0],[250.0, -392.0]],&quot;certainty&quot;:12]">
    <path clip-path="url(#p5e18c6d845)" d="M 239.587702 306.853943 
C 241.430927 306.853943 243.198906 306.267534 244.502262 305.223865 
C 245.805619 304.180196 246.53794 302.764478 246.53794 301.288507 
C 246.53794 299.812536 245.805619 298.396819 244.502262 297.353149 
C 243.198906 296.30948 241.430927 295.723071 239.587702 295.723071 
C 237.744478 295.723071 235.976499 296.30948 234.673142 297.353149 
C 233.369786 298.396819 232.637465 299.812536 232.637465 301.288507 
C 232.637465 302.764478 233.369786 304.180196 234.673142 305.223865 
C 235.976499 306.267534 237.744478 306.853943 239.587702 306.853943 
z
" style="fill:#ff0000;opacity:0.2;stroke:#ff0000;stroke-linejoin:miter;stroke-width:2;"/>
   </g>
   <g id="patch_14">
    <path d="M 239.587702 301.288507 
Q 239.587702 301.288507 239.587702 301.288507 
" style="fill:none;opacity:0.5;stroke:#0000ff;stroke-linecap:round;stroke-width:3.25;"/>
   </g>
   <g id="[&quot;g_s&quot;:4,&quot;g_t&quot;:4,&quot;coords&quot;:[[84.0, -249.0],[91.0, -246.0]],&quot;certainty&quot;:10]">
    <path clip-path="url(#p5e18c6d845)" d="M 62.089328 183.558128 
C 63.64898 183.558128 65.144962 183.061935 66.247802 182.178831 
C 67.350642 181.295726 67.970298 180.097811 67.970298 178.848913 
C 67.970298 177.600014 67.350642 176.402099 66.247802 175.518995 
C 65.144962 174.63589 63.64898 174.139698 62.089328 174.139698 
C 60.529677 174.139698 59.033694 174.63589 57.930854 175.518995 
C 56.828014 176.402099 56.208358 177.600014 56.208358 178.848913 
C 56.208358 180.097811 56.828014 181.295726 57.930854 182.178831 
C 59.033694 183.061935 60.529677 183.558128 62.089328 183.558128 
z
" style="fill:#0000ff;opacity:0.2;stroke:#0000ff;stroke-linejoin:miter;stroke-width:2;"/>
   </g>
   <g id="[&quot;g_s&quot;:4,&quot;g_t&quot;:4,&quot;coords&quot;:[[91.0, -246.0],[84.0, -249.0]],&quot;certainty&quot;:10]">
    <path clip-path="url(#p5e18c6d845)" d="M 69.574199 180.989465 
C 71.133851 180.989465 72.629833 180.493273 73.732673 179.610168 
C 74.835513 178.727063 75.45517 177.529149 75.45517 176.28025 
C 75.45517 175.031352 74.835513 173.833437 73.732673 172.950332 
C 72.629833 172.067228 71.133851 171.571035 69.574199 171.571035 
C 68.014548 171.571035 66.518566 172.067228 65.415725 172.950332 
C 64.312885 173.833437 63.693229 175.031352 63.693229 176.28025 
C 63.693229 177.529149 64.312885 178.727063 65.415725 179.610168 
C 66.518566 180.493273 68.014548 180.989465 69.574199 180.989465 
z
" style="fill:#ff0000;opacity:0.2;stroke:#ff0000;stroke-linejoin:miter;stroke-width:2;"/>
   </g>
   <g id="patch_15">
    <path d="M 62.089328 178.848913 
Q 64.887018 177.8888 65.845457 177.559882 
" style="fill:none;opacity:0.5;stroke:#0000ff;stroke-linecap:round;stroke-width:2.75;"/>
    <path d="M 63.939782 176.628001 
L 65.845457 177.559882 
L 64.913576 179.465557 
" style="fill:none;opacity:0.5;stroke:#0000ff;stroke-linecap:round;stroke-width:2.75;"/>
   </g>
   <g id="[&quot;g_s&quot;:1,&quot;g_t&quot;:1,&quot;coords&quot;:[[256.0, -92.0],[255.0, -92.0]],&quot;certainty&quot;:11]">
    <path clip-path="url(#p5e18c6d845)" d="M 246.003306 49.559551 
C 247.704744 49.559551 249.336725 49.01825 250.539823 48.054863 
C 251.742922 47.091477 252.41891 45.78466 252.41891 44.422226 
C 252.41891 43.059791 251.742922 41.752975 250.539823 40.789588 
C 249.336725 39.826201 247.704744 39.2849 246.003306 39.2849 
C 244.301868 39.2849 242.669888 39.826201 241.466789 40.789588 
C 240.263691 41.752975 239.587702 43.059791 239.587702 44.422226 
C 239.587702 45.78466 240.263691 47.091477 241.466789 48.054863 
C 242.669888 49.01825 244.301868 49.559551 246.003306 49.559551 
z
" style="fill:#0000ff;opacity:0.2;stroke:#0000ff;stroke-linejoin:miter;stroke-width:2;"/>
   </g>
   <g id="[&quot;g_s&quot;:1,&quot;g_t&quot;:1,&quot;coords&quot;:[[255.0, -92.0],[256.0, -92.0]],&quot;certainty&quot;:11]">
    <path clip-path="url(#p5e18c6d845)" d="M 244.934039 49.559551 
C 246.635477 49.559551 248.267458 49.01825 249.470556 48.054863 
C 250.673654 47.091477 251.349643 45.78466 251.349643 44.422226 
C 251.349643 43.059791 250.673654 41.752975 249.470556 40.789588 
C 248.267458 39.826201 246.635477 39.2849 244.934039 39.2849 
C 243.232601 39.2849 241.60062 39.826201 240.397522 40.789588 
C 239.194424 41.752975 238.518435 43.059791 238.518435 44.422226 
C 238.518435 45.78466 239.194424 47.091477 240.397522 48.054863 
C 241.60062 49.01825 243.232601 49.559551 244.934039 49.559551 
z
" style="fill:#ff0000;opacity:0.2;stroke:#ff0000;stroke-linejoin:miter;stroke-width:2;"/>
   </g>
   <g id="patch_16">
    <path d="M 246.003306 44.422226 
Q 245.468673 44.422226 247.055359 44.422226 
" style="fill:none;opacity:0.5;stroke:#ff0000;stroke-linecap:round;stroke-width:3;"/>
    <path d="M 248.555359 45.922226 
L 247.055359 44.422226 
L 248.555359 42.922226 
" style="fill:none;opacity:0.5;stroke:#ff0000;stroke-linecap:round;stroke-width:3;"/>
   </g>
   <g id="[&quot;g_s&quot;:2,&quot;g_t&quot;:2,&quot;coords&quot;:[[414.0, -239.0],[421.0, -240.0]],&quot;certainty&quot;:11]">
    <path clip-path="url(#p5e18c6d845)" d="M 414.947542 175.424029 
C 416.64898 175.424029 418.280961 174.882728 419.484059 173.919341 
C 420.687157 172.955955 421.363146 171.649138 421.363146 170.286704 
C 421.363146 168.924269 420.687157 167.617453 419.484059 166.654066 
C 418.280961 165.690679 416.64898 165.149378 414.947542 165.149378 
C 413.246104 165.149378 411.614123 165.690679 410.411025 166.654066 
C 409.207927 167.617453 408.531938 168.924269 408.531938 170.286704 
C 408.531938 171.649138 409.207927 172.955955 410.411025 173.919341 
C 411.614123 174.882728 413.246104 175.424029 414.947542 175.424029 
z
" style="fill:#0000ff;opacity:0.2;stroke:#0000ff;stroke-linejoin:miter;stroke-width:2;"/>
   </g>
   <g id="[&quot;g_s&quot;:2,&quot;g_t&quot;:2,&quot;coords&quot;:[[421.0, -240.0],[414.0, -239.0]],&quot;certainty&quot;:11]">
    <path clip-path="url(#p5e18c6d845)" d="M 422.432413 176.28025 
C 424.133851 176.28025 425.765832 175.738949 426.96893 174.775562 
C 428.172029 173.812175 428.848017 172.505359 428.848017 171.142924 
C 428.848017 169.78049 428.172029 168.473673 426.96893 167.510287 
C 425.765832 166.5469 424.133851 166.005599 422.432413 166.005599 
C 420.730975 166.005599 419.098995 166.5469 417.895896 167.510287 
C 416.692798 168.473673 416.016809 169.78049 416.016809 171.142924 
C 416.016809 172.505359 416.692798 173.812175 417.895896 174.775562 
C 419.098995 175.738949 420.730975 176.28025 422.432413 176.28025 
z
" style="fill:#ff0000;opacity:0.2;stroke:#ff0000;stroke-linejoin:miter;stroke-width:2;"/>
   </g>
   <g id="patch_17">
    <path d="M 414.947542 170.286704 
Q 417.69772 170.601306 418.340324 170.674816 
" style="fill:none;opacity:0.5;stroke:#ff0000;stroke-linecap:round;stroke-width:3;"/>
    <path d="M 417.020521 169.014056 
L 418.340324 170.674816 
L 416.679564 171.994618 
" style="fill:none;opacity:0.5;stroke:#ff0000;stroke-linecap:round;stroke-width:3;"/>
   </g>
   <g id="[&quot;g_s&quot;:3,&quot;g_t&quot;:3,&quot;coords&quot;:[[250.0, -392.0],[250.0, -392.0]],&quot;certainty&quot;:12]">
    <path clip-path="url(#p5e18c6d845)" d="M 239.587702 306.853943 
C 241.430927 306.853943 243.198906 306.267534 244.502262 305.223865 
C 245.805619 304.180196 246.53794 302.764478 246.53794 301.288507 
C 246.53794 299.812536 245.805619 298.396819 244.502262 297.353149 
C 243.198906 296.30948 241.430927 295.723071 239.587702 295.723071 
C 237.744478 295.723071 235.976499 296.30948 234.673142 297.353149 
C 233.369786 298.396819 232.637465 299.812536 232.637465 301.288507 
C 232.637465 302.764478 233.369786 304.180196 234.673142 305.223865 
C 235.976499 306.267534 237.744478 306.853943 239.587702 306.853943 
z
" style="fill:#0000ff;opacity:0.2;stroke:#0000ff;stroke-linejoin:miter;stroke-width:2;"/>
   </g>
   <g id="[&quot;g_s&quot;:3,&quot;g_t&quot;:3,&quot;coords&quot;:[[250.0, -392.0],[250.0, -392.0]],&quot;certainty&quot;:12]">
    <path clip-path="url(#p5e18c6d845)" d="M 239.587702 306.853943 
C 241.430927 306.853943 243.198906 306.267534 244.502262 305.223865 
C 245.805619 304.180196 246.53794 302.764478 246.53794 301.288507 
C 246.53794 299.812536 245.805619 298.396819 244.502262 297.353149 
C 243.198906 296.30948 241.430927 295.723071 239.587702 295.723071 
C 237.744478 295.723071 235.976499 296.30948 234.673142 297.353149 
C 233.369786 298.396819 232.637465 299.812536 232.637465 301.288507 
C 232.637465 302.764478 233.369786 304.180196 234.673142 305.223865 
C 235.976499 306.267534 237.744478 306.853943 239.587702 306.853943 
z
" style="fill:#ff0000;opacity:0.2;stroke:#ff0000;stroke-linejoin:miter;stroke-width:2;"/>
   </g>
   <g id="patch_18">
    <path d="M 239.587702 301.288507 
Q 239.587702 301.288507 239.587702 301.288507 
" style="fill:none;opacity:0.5;stroke:#ff0000;stroke-linecap:round;stroke-width:3.25;"/>
   </g>
   <g id="[&quot;g_s&quot;:4,&quot;g_t&quot;:4,&quot;coords&quot;:[[91.0, -246.0],[84.0, -249.0]],&quot;certainty&quot;:10]">
    <path clip-path="url(#p5e18c6d845)" d="M 69.574199 180.989465 
C 71.133851 180.989465 72.629833 180.493273 73.732673 179.610168 
C 74.835513 178.727063 75.45517 177.529149 75.45517 176.28025 
C 75.45517 175.031352 74.835513 173.833437 73.732673 172.950332 
C 72.629833 172.067228 71.133851 171.571035 69.574199 171.571035 
C 68.014548 171.571035 66.518566 172.067228 65.415725 172.950332 
C 64.312885 173.833437 63.693229 175.031352 63.693229 176.28025 
C 63.693229 177.529149 64.312885 178.727063 65.415725 179.610168 
C 66.518566 180.493273 68.014548 180.989465 69.574199 180.989465 
z
" style="fill:#0000ff;opacity:0.2;stroke:#0000ff;stroke-linejoin:miter;stroke-width:2;"/>
   </g>
   <g id="[&quot;g_s&quot;:4,&quot;g_t&quot;:4,&quot;coords&quot;:[[84.0, -249.0],[91.0, -246.0]],&quot;certainty&quot;:10]">
    <path clip-path="url(#p5e18c6d845)" d="M 62.089328 183.558128 
C 63.64898 183.558128 65.144962 183.061935 66.247802 182.178831 
C 67.350642 181.295726 67.970298 180.097811 67.970298 178.848913 
C 67.970298 177.600014 67.350642 176.402099 66.247802 175.518995 
C 65.144962 174.63589 63.64898 174.139698 62.089328 174.139698 
C 60.529677 174.139698 59.033694 174.63589 57.930854 175.518995 
C 56.828014 176.402099 56.208358 177.600014 56.208358 178.848913 
C 56.208358 180.097811 56.828014 181.295726 57.930854 182.178831 
C 59.033694 183.061935 60.529677 183.558128 62.089328 183.558128 
z
" style="fill:#ff0000;opacity:0.2;stroke:#ff0000;stroke-linejoin:miter;stroke-width:2;"/>
   </g>
   <g id="patch_19">
    <path d="M 69.574199 176.28025 
Q 66.776509 177.240363 65.81807 177.569281 
" style="fill:none;opacity:0.5;stroke:#ff0000;stroke-linecap:round;stroke-width:2.75;"/>
    <path d="M 67.723745 178.501162 
L 65.81807 177.569281 
L 66.749951 175.663606 
" style="fill:none;opacity:0.5;stroke:#ff0000;stroke-linecap:round;stroke-width:2.75;"/>
   </g>
   <g id="patch_20">
    <path clip-path="url(#p5e18c6d845)" d="M 245.468673 48.70333 
C 246.886538 48.70333 248.246521 48.252246 249.249103 47.449424 
C 250.251685 46.646601 250.815009 45.557588 250.815009 44.422226 
C 250.815009 43.286863 250.251685 42.19785 249.249103 41.395027 
C 248.246521 40.592205 246.886538 40.141121 245.468673 40.141121 
C 244.050808 40.141121 242.690824 40.592205 241.688242 41.395027 
C 240.68566 42.19785 240.122336 43.286863 240.122336 44.422226 
C 240.122336 45.557588 240.68566 46.646601 241.688242 47.449424 
C 242.690824 48.252246 244.050808 48.70333 245.468673 48.70333 
z
" style="fill:#008000;opacity:0.2;stroke:#008000;stroke-linejoin:miter;stroke-width:2;"/>
   </g>
   <g id="patch_21">
    <path clip-path="url(#p5e18c6d845)" d="M 418.689978 174.995919 
C 420.107843 174.995919 421.467826 174.544834 422.470408 173.742012 
C 423.47299 172.93919 424.036314 171.850176 424.036314 170.714814 
C 424.036314 169.579452 423.47299 168.490438 422.470408 167.687616 
C 421.467826 166.884793 420.107843 166.433709 418.689978 166.433709 
C 417.272113 166.433709 415.912129 166.884793 414.909547 167.687616 
C 413.906965 168.490438 413.343641 169.579452 413.343641 170.714814 
C 413.343641 171.850176 413.906965 172.93919 414.909547 173.742012 
C 415.912129 174.544834 417.272113 174.995919 418.689978 174.995919 
z
" style="fill:#008000;opacity:0.2;stroke:#008000;stroke-linejoin:miter;stroke-width:2;"/>
   </g>
   <g id="patch_22">
    <path clip-path="url(#p5e18c6d845)" d="M 239.587702 305.569612 
C 241.005567 305.569612 242.365551 305.118528 243.368133 304.315705 
C 244.370715 303.512883 244.934039 302.423869 244.934039 301.288507 
C 244.934039 300.153145 244.370715 299.064131 243.368133 298.261309 
C 242.365551 297.458487 241.005567 297.007402 239.587702 297.007402 
C 238.169837 297.007402 236.809854 297.458487 235.807272 298.261309 
C 234.80469 299.064131 234.241366 300.153145 234.241366 301.288507 
C 234.241366 302.423869 234.80469 303.512883 235.807272 304.315705 
C 236.809854 305.118528 238.169837 305.569612 239.587702 305.569612 
z
" style="fill:#008000;opacity:0.2;stroke:#008000;stroke-linejoin:miter;stroke-width:2;"/>
   </g>
   <g id="patch_23">
    <path clip-path="url(#p5e18c6d845)" d="M 65.831764 181.845686 
C 67.249629 181.845686 68.609613 181.394602 69.612195 180.59178 
C 70.614777 179.788957 71.1781 178.699944 71.1781 177.564581 
C 71.1781 176.429219 70.614777 175.340206 69.612195 174.537383 
C 68.609613 173.734561 67.249629 173.283477 65.831764 173.283477 
C 64.413899 173.283477 63.053915 173.734561 62.051333 174.537383 
C 61.048751 175.340206 60.485427 176.429219 60.485427 177.564581 
C 60.485427 178.699944 61.048751 179.788957 62.051333 180.59178 
C 63.053915 181.394602 64.413899 181.845686 65.831764 181.845686 
z
" style="fill:#008000;opacity:0.2;stroke:#008000;stroke-linejoin:miter;stroke-width:2;"/>
   </g>
   <g id="patch_24">
    <path clip-path="url(#p5e18c6d845)" d="M 244.934039 61.546644 
C 250.605499 61.546644 256.045434 59.742308 260.055762 56.531018 
C 264.06609 53.319729 266.319385 48.963675 266.319385 44.422226 
C 266.319385 39.880777 264.06609 35.524722 260.055762 32.313433 
C 256.045434 29.102144 250.605499 27.297807 244.934039 27.297807 
C 239.262579 27.297807 233.822643 29.102144 229.812316 32.313433 
C 225.801988 35.524722 223.548693 39.880777 223.548693 44.422226 
C 223.548693 48.963675 225.801988 53.319729 229.812316 56.531018 
C 233.822643 59.742308 239.262579 61.546644 244.934039 61.546644 
z
" style="fill:none;opacity:0.2;stroke:#ff0000;stroke-linejoin:miter;stroke-width:2;"/>
   </g>
   <g id="patch_25">
    <path clip-path="url(#p5e18c6d845)" d="M 246.003306 61.546644 
C 251.674766 61.546644 257.114702 59.742308 261.12503 56.531018 
C 265.135358 53.319729 267.388653 48.963675 267.388653 44.422226 
C 267.388653 39.880777 265.135358 35.524722 261.12503 32.313433 
C 257.114702 29.102144 251.674766 27.297807 246.003306 27.297807 
C 240.331846 27.297807 234.891911 29.102144 230.881583 32.313433 
C 226.871255 35.524722 224.61796 39.880777 224.61796 44.422226 
C 224.61796 48.963675 226.871255 53.319729 230.881583 56.531018 
C 234.891911 59.742308 240.331846 61.546644 246.003306 61.546644 
z
" style="fill:none;opacity:0.2;stroke:#0000ff;stroke-linejoin:miter;stroke-width:2;"/>
   </g>
   <g id="patch_26">
    <path clip-path="url(#p5e18c6d845)" d="M 244.934039 52.984435 
C 247.769769 52.984435 250.489737 52.082267 252.494901 50.476622 
C 254.500065 48.870977 255.626712 46.69295 255.626712 44.422226 
C 255.626712 42.151501 254.500065 39.973474 252.494901 38.367829 
C 250.489737 36.762185 247.769769 35.860016 244.934039 35.860016 
C 242.098309 35.860016 239.378341 36.762185 237.373177 38.367829 
C 235.368013 39.973474 234.241366 42.151501 234.241366 44.422226 
C 234.241366 46.69295 235.368013 48.870977 237.373177 50.476622 
C 239.378341 52.082267 242.098309 52.984435 244.934039 52.984435 
z
" style="fill:none;opacity:0.2;stroke:#008000;stroke-linejoin:miter;stroke-width:2;"/>
   </g>
   <g id="patch_27">
    <path clip-path="url(#p5e18c6d845)" d="M 246.003306 52.984435 
C 248.839036 52.984435 251.559004 52.082267 253.564168 50.476622 
C 255.569332 48.870977 256.695979 46.69295 256.695979 44.422226 
C 256.695979 42.151501 255.569332 39.973474 253.564168 38.367829 
C 251.559004 36.762185 248.839036 35.860016 246.003306 35.860016 
C 243.167576 35.860016 240.447609 36.762185 238.442445 38.367829 
C 236.437281 39.973474 235.310633 42.151501 235.310633 44.422226 
C 235.310633 46.69295 236.437281 48.870977 238.442445 50.476622 
C 240.447609 52.082267 243.167576 52.984435 246.003306 52.984435 
z
" style="fill:none;opacity:0.2;stroke:#008000;stroke-linejoin:miter;stroke-width:2;"/>
   </g>
   <g id="patch_28">
    <path d="M 245.468673 44.422226 
Q 332.079325 107.56852 418.689978 170.714814 
" style="fill:none;opacity:0.5;stroke:#008000;stroke-linecap:round;stroke-width:2;"/>
   </g>
   <g id="patch_29">
    <path d="M 246.348253 44.422226 
Q 245.468673 44.422226 244.589093 44.422226 
" style="fill:none;opacity:0.5;stroke:#800080;stroke-linecap:round;stroke-width:2;"/>
    <path d="M 247.848253 45.922226 
L 246.348253 44.422226 
L 247.848253 42.922226 
" style="fill:none;opacity:0.5;stroke:#800080;stroke-linecap:round;stroke-width:2;"/>
    <path d="M 243.089093 42.922226 
L 244.589093 44.422226 
L 243.089093 45.922226 
" style="fill:none;opacity:0.5;stroke:#800080;stroke-linecap:round;stroke-width:2;"/>
   </g>
   <g id="patch_30">
    <path d="M 418.689978 170.714814 
Q 329.13884 236.001661 239.587702 301.288507 
" style="fill:none;opacity:0.5;stroke:#008000;stroke-linecap:round;stroke-width:2;"/>
   </g>
   <g id="patch_31">
    <path d="M 421.027363 170.982196 
Q 419.682235 170.828322 418.337106 170.674448 
" style="fill:none;opacity:0.5;stroke:#800080;stroke-linecap:round;stroke-width:2;"/>
    <path d="M 419.707561 169.321436 
L 421.027363 170.982196 
L 419.366603 172.301998 
" style="fill:none;opacity:0.5;stroke:#800080;stroke-linecap:round;stroke-width:2;"/>
    <path d="M 419.656909 172.335207 
L 418.337106 170.674448 
L 419.997866 169.354645 
" style="fill:none;opacity:0.5;stroke:#800080;stroke-linecap:round;stroke-width:2;"/>
   </g>
   <g id="patch_32">
    <path d="M 239.587702 301.288507 
Q 152.709733 239.426544 65.831764 177.564581 
" style="fill:none;opacity:0.5;stroke:#008000;stroke-linecap:round;stroke-width:2;"/>
   </g>
   <g id="patch_33">
    <path d="M 239.587702 301.288507 
Q 239.587702 301.288507 239.587702 301.288507 
" style="fill:none;opacity:0.5;stroke:#800080;stroke-linecap:round;stroke-width:2;"/>
   </g>
   <g id="patch_34">
    <path d="M 65.831764 177.564581 
Q 155.650218 110.993404 245.468673 44.422226 
" style="fill:none;opacity:0.5;stroke:#008000;stroke-linecap:round;stroke-width:2;"/>
   </g>
   <g id="patch_35">
    <path d="M 63.426965 178.389862 
Q 64.887018 177.8888 66.347071 177.387738 
" style="fill:none;opacity:0.5;stroke:#800080;stroke-linecap:round;stroke-width:2;"/>
    <path d="M 65.33264 179.321743 
L 63.426965 178.389862 
L 64.358846 176.484187 
" style="fill:none;opacity:0.5;stroke:#800080;stroke-linecap:round;stroke-width:2;"/>
    <path d="M 64.441396 176.455857 
L 66.347071 177.387738 
L 65.41519 179.293413 
" style="fill:none;opacity:0.5;stroke:#800080;stroke-linecap:round;stroke-width:2;"/>
   </g>
   <g id="patch_36">
    <path clip-path="url(#p5e18c6d845)" d="M 300.535939 191.692227 
C 301.103085 191.692227 301.647079 191.511793 302.048112 191.190664 
C 302.449144 190.869535 302.674474 190.43393 302.674474 189.979785 
C 302.674474 189.52564 302.449144 189.090035 302.048112 188.768906 
C 301.647079 188.447777 301.103085 188.267343 300.535939 188.267343 
C 299.968793 188.267343 299.4248 188.447777 299.023767 188.768906 
C 298.622734 189.090035 298.397405 189.52564 298.397405 189.979785 
C 298.397405 190.43393 298.622734 190.869535 299.023767 191.190664 
C 299.4248 191.511793 299.968793 191.692227 300.535939 191.692227 
z
" style="fill:#ff0000;opacity:0.2;stroke:#ff0000;stroke-linejoin:miter;stroke-width:2;"/>
   </g>
   <g id="patch_37">
    <path clip-path="url(#p5e18c6d845)" d="M 247.072574 272.176995 
C 247.63972 272.176995 248.183713 271.996562 248.584746 271.675433 
C 248.985779 271.354304 249.211108 270.918698 249.211108 270.464553 
C 249.211108 270.010408 248.985779 269.574803 248.584746 269.253674 
C 248.183713 268.932545 247.63972 268.752111 247.072574 268.752111 
C 246.505428 268.752111 245.961434 268.932545 245.560401 269.253674 
C 245.159368 269.574803 244.934039 270.010408 244.934039 270.464553 
C 244.934039 270.918698 245.159368 271.354304 245.560401 271.675433 
C 245.961434 271.996562 246.505428 272.176995 247.072574 272.176995 
z
" style="fill:#ff0000;opacity:0.2;stroke:#ff0000;stroke-linejoin:miter;stroke-width:2;"/>
   </g>
   <g id="patch_38">
    <path clip-path="url(#p5e18c6d845)" d="M 183.985802 161.724494 
C 184.552948 161.724494 185.096942 161.54406 185.497974 161.222932 
C 185.899007 160.901803 186.124337 160.466197 186.124337 160.012052 
C 186.124337 159.557907 185.899007 159.122302 185.497974 158.801173 
C 185.096942 158.480044 184.552948 158.29961 183.985802 158.29961 
C 183.418656 158.29961 182.874662 158.480044 182.47363 158.801173 
C 182.072597 159.122302 181.847267 159.557907 181.847267 160.012052 
C 181.847267 160.466197 182.072597 160.901803 182.47363 161.222932 
C 182.874662 161.54406 183.418656 161.724494 183.985802 161.724494 
z
" style="fill:#ff0000;opacity:0.2;stroke:#ff0000;stroke-linejoin:miter;stroke-width:2;"/>
   </g>
   <g id="patch_39">
    <path clip-path="url(#p5e18c6d845)" d="M 240.65697 76.958621 
C 241.224116 76.958621 241.768109 76.778188 242.169142 76.457059 
C 242.570175 76.13593 242.795504 75.700324 242.795504 75.246179 
C 242.795504 74.792034 242.570175 74.356429 242.169142 74.0353 
C 241.768109 73.714171 241.224116 73.533737 240.65697 73.533737 
C 240.089824 73.533737 239.54583 73.714171 239.144797 74.0353 
C 238.743765 74.356429 238.518435 74.792034 238.518435 75.246179 
C 238.518435 75.700324 238.743765 76.13593 239.144797 76.457059 
C 239.54583 76.778188 240.089824 76.958621 240.65697 76.958621 
z
" style="fill:#ff0000;opacity:0.2;stroke:#ff0000;stroke-linejoin:miter;stroke-width:2;"/>
   </g>
   <g id="patch_40">
    <path clip-path="url(#p5e18c6d845)" d="M 237.449168 68.396412 
C 238.016314 68.396412 238.560307 68.215978 238.96134 67.894849 
C 239.362373 67.57372 239.587702 67.138115 239.587702 66.68397 
C 239.587702 66.229825 239.362373 65.79422 238.96134 65.473091 
C 238.560307 65.151962 238.016314 64.971528 237.449168 64.971528 
C 236.882022 64.971528 236.338028 65.151962 235.936995 65.473091 
C 235.535963 65.79422 235.310633 66.229825 235.310633 66.68397 
C 235.310633 67.138115 235.535963 67.57372 235.936995 67.894849 
C 236.338028 68.215978 236.882022 68.396412 237.449168 68.396412 
z
" style="fill:#0000ff;opacity:0.2;stroke:#0000ff;stroke-linejoin:miter;stroke-width:2;"/>
   </g>
   <g id="patch_41">
    <path clip-path="url(#p5e18c6d845)" d="M 335.821761 181.417576 
C 336.388907 181.417576 336.9329 181.237142 337.333933 180.916013 
C 337.734966 180.594884 337.960295 180.159279 337.960295 179.705134 
C 337.960295 179.250989 337.734966 178.815384 337.333933 178.494255 
C 336.9329 178.173126 336.388907 177.992692 335.821761 177.992692 
C 335.254615 177.992692 334.710621 178.173126 334.309588 178.494255 
C 333.908556 178.815384 333.683226 179.250989 333.683226 179.705134 
C 333.683226 180.159279 333.908556 180.594884 334.309588 180.916013 
C 334.710621 181.237142 335.254615 181.417576 335.821761 181.417576 
z
" style="fill:#0000ff;opacity:0.2;stroke:#0000ff;stroke-linejoin:miter;stroke-width:2;"/>
   </g>
   <g id="patch_42">
    <path clip-path="url(#p5e18c6d845)" d="M 247.072574 280.739205 
C 247.63972 280.739205 248.183713 280.558771 248.584746 280.237642 
C 248.985779 279.916513 249.211108 279.480908 249.211108 279.026763 
C 249.211108 278.572618 248.985779 278.137012 248.584746 277.815883 
C 248.183713 277.494754 247.63972 277.314321 247.072574 277.314321 
C 246.505428 277.314321 245.961434 277.494754 245.560401 277.815883 
C 245.159368 278.137012 244.934039 278.572618 244.934039 279.026763 
C 244.934039 279.480908 245.159368 279.916513 245.560401 280.237642 
C 245.961434 280.558771 246.505428 280.739205 247.072574 280.739205 
z
" style="fill:#0000ff;opacity:0.2;stroke:#0000ff;stroke-linejoin:miter;stroke-width:2;"/>
   </g>
   <g id="patch_43">
    <path clip-path="url(#p5e18c6d845)" d="M 148.699981 169.430483 
C 149.267127 169.430483 149.81112 169.250049 150.212153 168.92892 
C 150.613186 168.607791 150.838515 168.172186 150.838515 167.718041 
C 150.838515 167.263896 150.613186 166.82829 150.212153 166.507161 
C 149.81112 166.186033 149.267127 166.005599 148.699981 166.005599 
C 148.132835 166.005599 147.588841 166.186033 147.187808 166.507161 
C 146.786776 166.82829 146.561446 167.263896 146.561446 167.718041 
C 146.561446 168.172186 146.786776 168.607791 147.187808 168.92892 
C 147.588841 169.250049 148.132835 169.430483 148.699981 169.430483 
z
" style="fill:#0000ff;opacity:0.2;stroke:#0000ff;stroke-linejoin:miter;stroke-width:2;"/>
   </g>
   <g id="patch_44">
    <path clip-path="url(#p5e18c6d845)" d="M 300.535939 189.979785 
C 300.535939 232.790832 283.427662 270.464553 247.072574 270.464553 
C 207.509683 270.464553 183.985802 227.653506 183.985802 160.012052 
C 183.985802 101.789028 209.648218 75.246179 240.65697 75.246179 
C 281.289128 75.246179 300.535939 124.906994 300.535939 189.979785 
" style="fill:none;stroke:#ff0000;stroke-linejoin:miter;stroke-width:0.5;"/>
   </g>
   <g id="patch_45">
    <path clip-path="url(#p5e18c6d845)" d="M 237.449168 66.68397 
C 309.090078 66.68397 335.821761 133.469203 335.821761 179.705134 
C 335.821761 223.372402 314.436414 279.026763 247.072574 279.026763 
C 178.639465 279.026763 148.699981 220.803739 148.699981 167.718041 
C 148.699981 107.782575 188.262871 66.68397 237.449168 66.68397 
" style="fill:none;stroke:#0000ff;stroke-linejoin:miter;stroke-width:0.5;"/>
   </g>
   <g id="[&quot;g_s&quot;:1,&quot;g_t&quot;:2,&quot;coords&quot;:[[307.0, -262.0],[340.0, -250.0]],&quot;certainty&quot;:11]">
    <path clip-path="url(#p5e18c6d845)" d="M 300.535939 195.117111 
C 302.237377 195.117111 303.869358 194.57581 305.072456 193.612423 
C 306.275555 192.649036 306.951543 191.34222 306.951543 189.979785 
C 306.951543 188.61735 306.275555 187.310534 305.072456 186.347147 
C 303.869358 185.383761 302.237377 184.842459 300.535939 184.842459 
C 298.834501 184.842459 297.202521 185.383761 295.999422 186.347147 
C 294.796324 187.310534 294.120335 188.61735 294.120335 189.979785 
C 294.120335 191.34222 294.796324 192.649036 295.999422 193.612423 
C 297.202521 194.57581 298.834501 195.117111 300.535939 195.117111 
z
" style="fill:#0000ff;opacity:0.2;stroke:#0000ff;stroke-linejoin:miter;stroke-width:2;"/>
   </g>
   <g id="[&quot;g_s&quot;:2,&quot;g_t&quot;:1,&quot;coords&quot;:[[340.0, -250.0],[307.0, -262.0]],&quot;certainty&quot;:11]">
    <path clip-path="url(#p5e18c6d845)" d="M 335.821761 184.842459 
C 337.523199 184.842459 339.155179 184.301158 340.358278 183.337772 
C 341.561376 182.374385 342.237365 181.067569 342.237365 179.705134 
C 342.237365 178.342699 341.561376 177.035883 340.358278 176.072496 
C 339.155179 175.109109 337.523199 174.567808 335.821761 174.567808 
C 334.120323 174.567808 332.488342 175.109109 331.285244 176.072496 
C 330.082145 177.035883 329.406157 178.342699 329.406157 179.705134 
C 329.406157 181.067569 330.082145 182.374385 331.285244 183.337772 
C 332.488342 184.301158 334.120323 184.842459 335.821761 184.842459 
z
" style="fill:#ff0000;opacity:0.2;stroke:#ff0000;stroke-linejoin:miter;stroke-width:2;"/>
   </g>
   <g id="patch_46">
    <path d="M 300.535939 189.979785 
Q 317.220464 185.121526 331.868258 180.856329 
" style="fill:none;opacity:0.5;stroke:#0000ff;stroke-linecap:round;stroke-width:3;"/>
    <path d="M 330.008712 179.835501 
L 331.868258 180.856329 
L 330.847429 182.715875 
" style="fill:none;opacity:0.5;stroke:#0000ff;stroke-linecap:round;stroke-width:3;"/>
   </g>
   <g id="[&quot;g_s&quot;:2,&quot;g_t&quot;:3,&quot;coords&quot;:[[257.0, -356.0],[257.0, -366.0]],&quot;certainty&quot;:10]">
    <path clip-path="url(#p5e18c6d845)" d="M 247.072574 275.173768 
C 248.632225 275.173768 250.128207 274.677576 251.231048 273.794471 
C 252.333888 272.911367 252.953544 271.713452 252.953544 270.464553 
C 252.953544 269.215655 252.333888 268.01774 251.231048 267.134635 
C 250.128207 266.251531 248.632225 265.755338 247.072574 265.755338 
C 245.512922 265.755338 244.01694 266.251531 242.9141 267.134635 
C 241.811259 268.01774 241.191603 269.215655 241.191603 270.464553 
C 241.191603 271.713452 241.811259 272.911367 242.9141 273.794471 
C 244.01694 274.677576 245.512922 275.173768 247.072574 275.173768 
z
" style="fill:#0000ff;opacity:0.2;stroke:#0000ff;stroke-linejoin:miter;stroke-width:2;"/>
   </g>
   <g id="[&quot;g_s&quot;:3,&quot;g_t&quot;:2,&quot;coords&quot;:[[257.0, -366.0],[257.0, -356.0]],&quot;certainty&quot;:10]">
    <path clip-path="url(#p5e18c6d845)" d="M 247.072574 283.735978 
C 248.632225 283.735978 250.128207 283.239785 251.231048 282.356681 
C 252.333888 281.473576 252.953544 280.275661 252.953544 279.026763 
C 252.953544 277.777864 252.333888 276.579949 251.231048 275.696845 
C 250.128207 274.81374 248.632225 274.317548 247.072574 274.317548 
C 245.512922 274.317548 244.01694 274.81374 242.9141 275.696845 
C 241.811259 276.579949 241.191603 277.777864 241.191603 279.026763 
C 241.191603 280.275661 241.811259 281.473576 242.9141 282.356681 
C 244.01694 283.239785 245.512922 283.735978 247.072574 283.735978 
z
" style="fill:#ff0000;opacity:0.2;stroke:#ff0000;stroke-linejoin:miter;stroke-width:2;"/>
   </g>
   <g id="patch_47">
    <path d="M 247.072574 270.464553 
Q 247.072574 273.744364 247.072574 275.079632 
" style="fill:none;opacity:0.5;stroke:#0000ff;stroke-linecap:round;stroke-width:2.75;"/>
    <path d="M 248.572574 273.579632 
L 247.072574 275.079632 
L 245.572574 273.579632 
" style="fill:none;opacity:0.5;stroke:#0000ff;stroke-linecap:round;stroke-width:2.75;"/>
   </g>
   <g id="[&quot;g_s&quot;:3,&quot;g_t&quot;:4,&quot;coords&quot;:[[198.0, -227.0],[165.0, -236.0]],&quot;certainty&quot;:12]">
    <path clip-path="url(#p5e18c6d845)" d="M 183.985802 165.577488 
C 185.829027 165.577488 187.597006 164.991079 188.900362 163.94741 
C 190.203719 162.903741 190.93604 161.488023 190.93604 160.012052 
C 190.93604 158.536081 190.203719 157.120364 188.900362 156.076695 
C 187.597006 155.033026 185.829027 154.446616 183.985802 154.446616 
C 182.142577 154.446616 180.374599 155.033026 179.071242 156.076695 
C 177.767885 157.120364 177.035564 158.536081 177.035564 160.012052 
C 177.035564 161.488023 177.767885 162.903741 179.071242 163.94741 
C 180.374599 164.991079 182.142577 165.577488 183.985802 165.577488 
z
" style="fill:#0000ff;opacity:0.2;stroke:#0000ff;stroke-linejoin:miter;stroke-width:2;"/>
   </g>
   <g id="[&quot;g_s&quot;:4,&quot;g_t&quot;:3,&quot;coords&quot;:[[165.0, -236.0],[198.0, -227.0]],&quot;certainty&quot;:12]">
    <path clip-path="url(#p5e18c6d845)" d="M 148.699981 173.283477 
C 150.543205 173.283477 152.311184 172.697067 153.614541 171.653398 
C 154.917897 170.609729 155.650218 169.194012 155.650218 167.718041 
C 155.650218 166.24207 154.917897 164.826352 153.614541 163.782683 
C 152.311184 162.739014 150.543205 162.152605 148.699981 162.152605 
C 146.856756 162.152605 145.088777 162.739014 143.785421 163.782683 
C 142.482064 164.826352 141.749743 166.24207 141.749743 167.718041 
C 141.749743 169.194012 142.482064 170.609729 143.785421 171.653398 
C 145.088777 172.697067 146.856756 173.283477 148.699981 173.283477 
z
" style="fill:#ff0000;opacity:0.2;stroke:#ff0000;stroke-linejoin:miter;stroke-width:2;"/>
   </g>
   <g id="patch_48">
    <path d="M 183.985802 160.012052 
Q 167.318506 163.651984 152.896391 166.801596 
" style="fill:none;opacity:0.5;stroke:#0000ff;stroke-linecap:round;stroke-width:3.25;"/>
    <path d="M 154.681891 167.947019 
L 152.896391 166.801596 
L 154.041814 165.016097 
" style="fill:none;opacity:0.5;stroke:#0000ff;stroke-linecap:round;stroke-width:3.25;"/>
   </g>
   <g id="[&quot;g_s&quot;:4,&quot;g_t&quot;:1,&quot;coords&quot;:[[251.0, -128.0],[248.0, -118.0]],&quot;certainty&quot;:11]">
    <path clip-path="url(#p5e18c6d845)" d="M 240.65697 80.383505 
C 242.358408 80.383505 243.990388 79.842204 245.193487 78.878817 
C 246.396585 77.91543 247.072574 76.608614 247.072574 75.246179 
C 247.072574 73.883745 246.396585 72.576928 245.193487 71.613542 
C 243.990388 70.650155 242.358408 70.108854 240.65697 70.108854 
C 238.955532 70.108854 237.323551 70.650155 236.120453 71.613542 
C 234.917354 72.576928 234.241366 73.883745 234.241366 75.246179 
C 234.241366 76.608614 234.917354 77.91543 236.120453 78.878817 
C 237.323551 79.842204 238.955532 80.383505 240.65697 80.383505 
z
" style="fill:#0000ff;opacity:0.2;stroke:#0000ff;stroke-linejoin:miter;stroke-width:2;"/>
   </g>
   <g id="[&quot;g_s&quot;:1,&quot;g_t&quot;:4,&quot;coords&quot;:[[248.0, -118.0],[251.0, -128.0]],&quot;certainty&quot;:11]">
    <path clip-path="url(#p5e18c6d845)" d="M 237.449168 71.821296 
C 239.150606 71.821296 240.782586 71.279995 241.985685 70.316608 
C 243.188783 69.353221 243.864772 68.046405 243.864772 66.68397 
C 243.864772 65.321535 243.188783 64.014719 241.985685 63.051332 
C 240.782586 62.087945 239.150606 61.546644 237.449168 61.546644 
C 235.74773 61.546644 234.115749 62.087945 232.912651 63.051332 
C 231.709552 64.014719 231.033564 65.321535 231.033564 66.68397 
C 231.033564 68.046405 231.709552 69.353221 232.912651 70.316608 
C 234.115749 71.279995 235.74773 71.821296 237.449168 71.821296 
z
" style="fill:#ff0000;opacity:0.2;stroke:#ff0000;stroke-linejoin:miter;stroke-width:2;"/>
   </g>
   <g id="patch_49">
    <path d="M 240.65697 75.246179 
Q 239.403139 71.899476 238.893538 70.539257 
" style="fill:none;opacity:0.5;stroke:#0000ff;stroke-linecap:round;stroke-width:3;"/>
    <path d="M 238.015131 72.470164 
L 238.893538 70.539257 
L 240.824445 71.417665 
" style="fill:none;opacity:0.5;stroke:#0000ff;stroke-linecap:round;stroke-width:3;"/>
   </g>
   <g id="[&quot;g_s&quot;:1,&quot;g_t&quot;:4,&quot;coords&quot;:[[248.0, -118.0],[251.0, -128.0]],&quot;certainty&quot;:10]">
    <path clip-path="url(#p5e18c6d845)" d="M 237.449168 71.393185 
C 239.008819 71.393185 240.504802 70.896993 241.607642 70.013888 
C 242.710482 69.130783 243.330138 67.932868 243.330138 66.68397 
C 243.330138 65.435072 242.710482 64.237157 241.607642 63.354052 
C 240.504802 62.470947 239.008819 61.974755 237.449168 61.974755 
C 235.889516 61.974755 234.393534 62.470947 233.290694 63.354052 
C 232.187854 64.237157 231.568198 65.435072 231.568198 66.68397 
C 231.568198 67.932868 232.187854 69.130783 233.290694 70.013888 
C 234.393534 70.896993 235.889516 71.393185 237.449168 71.393185 
z
" style="fill:#0000ff;opacity:0.2;stroke:#0000ff;stroke-linejoin:miter;stroke-width:2;"/>
   </g>
   <g id="[&quot;g_s&quot;:4,&quot;g_t&quot;:1,&quot;coords&quot;:[[251.0, -128.0],[248.0, -118.0]],&quot;certainty&quot;:10]">
    <path clip-path="url(#p5e18c6d845)" d="M 240.65697 79.955395 
C 242.216621 79.955395 243.712603 79.459202 244.815444 78.576097 
C 245.918284 77.692993 246.53794 76.495078 246.53794 75.246179 
C 246.53794 73.997281 245.918284 72.799366 244.815444 71.916261 
C 243.712603 71.033157 242.216621 70.536964 240.65697 70.536964 
C 239.097318 70.536964 237.601336 71.033157 236.498496 71.916261 
C 235.395656 72.799366 234.775999 73.997281 234.775999 75.246179 
C 234.775999 76.495078 235.395656 77.692993 236.498496 78.576097 
C 237.601336 79.459202 239.097318 79.955395 240.65697 79.955395 
z
" style="fill:#ff0000;opacity:0.2;stroke:#ff0000;stroke-linejoin:miter;stroke-width:2;"/>
   </g>
   <g id="patch_50">
    <path d="M 237.449168 66.68397 
Q 238.702999 70.030673 239.274619 71.556432 
" style="fill:none;opacity:0.5;stroke:#ff0000;stroke-linecap:round;stroke-width:2.75;"/>
    <path d="M 240.153026 69.625526 
L 239.274619 71.556432 
L 237.343712 70.678025 
" style="fill:none;opacity:0.5;stroke:#ff0000;stroke-linecap:round;stroke-width:2.75;"/>
   </g>
   <g id="[&quot;g_s&quot;:2,&quot;g_t&quot;:1,&quot;coords&quot;:[[340.0, -250.0],[307.0, -262.0]],&quot;certainty&quot;:12]">
    <path clip-path="url(#p5e18c6d845)" d="M 335.821761 185.27057 
C 337.664985 185.27057 339.432964 184.68416 340.736321 183.640491 
C 342.039677 182.596822 342.771998 181.181105 342.771998 179.705134 
C 342.771998 178.229163 342.039677 176.813445 340.736321 175.769776 
C 339.432964 174.726107 337.664985 174.139698 335.821761 174.139698 
C 333.978536 174.139698 332.210557 174.726107 330.907201 175.769776 
C 329.603844 176.813445 328.871523 178.229163 328.871523 179.705134 
C 328.871523 181.181105 329.603844 182.596822 330.907201 183.640491 
C 332.210557 184.68416 333.978536 185.27057 335.821761 185.27057 
z
" style="fill:#0000ff;opacity:0.2;stroke:#0000ff;stroke-linejoin:miter;stroke-width:2;"/>
   </g>
   <g id="[&quot;g_s&quot;:1,&quot;g_t&quot;:2,&quot;coords&quot;:[[307.0, -262.0],[340.0, -250.0]],&quot;certainty&quot;:12]">
    <path clip-path="url(#p5e18c6d845)" d="M 300.535939 195.545221 
C 302.379164 195.545221 304.147143 194.958812 305.450499 193.915143 
C 306.753856 192.871474 307.486177 191.455756 307.486177 189.979785 
C 307.486177 188.503814 306.753856 187.088097 305.450499 186.044427 
C 304.147143 185.000758 302.379164 184.414349 300.535939 184.414349 
C 298.692715 184.414349 296.924736 185.000758 295.621379 186.044427 
C 294.318023 187.088097 293.585702 188.503814 293.585702 189.979785 
C 293.585702 191.455756 294.318023 192.871474 295.621379 193.915143 
C 296.924736 194.958812 298.692715 195.545221 300.535939 195.545221 
z
" style="fill:#ff0000;opacity:0.2;stroke:#ff0000;stroke-linejoin:miter;stroke-width:2;"/>
   </g>
   <g id="patch_51">
    <path d="M 335.821761 179.705134 
Q 319.137236 184.563393 304.65917 188.779168 
" style="fill:none;opacity:0.5;stroke:#ff0000;stroke-linecap:round;stroke-width:3.25;"/>
    <path d="M 306.518716 189.799996 
L 304.65917 188.779168 
L 305.679998 186.919622 
" style="fill:none;opacity:0.5;stroke:#ff0000;stroke-linecap:round;stroke-width:3.25;"/>
   </g>
   <g id="[&quot;g_s&quot;:3,&quot;g_t&quot;:2,&quot;coords&quot;:[[257.0, -366.0],[257.0, -356.0]],&quot;certainty&quot;:11]">
    <path clip-path="url(#p5e18c6d845)" d="M 247.072574 284.164088 
C 248.774012 284.164088 250.405992 283.622787 251.609091 282.6594 
C 252.812189 281.696014 253.488177 280.389197 253.488177 279.026763 
C 253.488177 277.664328 252.812189 276.357512 251.609091 275.394125 
C 250.405992 274.430738 248.774012 273.889437 247.072574 273.889437 
C 245.371136 273.889437 243.739155 274.430738 242.536057 275.394125 
C 241.332958 276.357512 240.65697 277.664328 240.65697 279.026763 
C 240.65697 280.389197 241.332958 281.696014 242.536057 282.6594 
C 243.739155 283.622787 245.371136 284.164088 247.072574 284.164088 
z
" style="fill:#0000ff;opacity:0.2;stroke:#0000ff;stroke-linejoin:miter;stroke-width:2;"/>
   </g>
   <g id="[&quot;g_s&quot;:2,&quot;g_t&quot;:3,&quot;coords&quot;:[[257.0, -356.0],[257.0, -366.0]],&quot;certainty&quot;:11]">
    <path clip-path="url(#p5e18c6d845)" d="M 247.072574 275.601879 
C 248.774012 275.601879 250.405992 275.060578 251.609091 274.097191 
C 252.812189 273.133804 253.488177 271.826988 253.488177 270.464553 
C 253.488177 269.102119 252.812189 267.795302 251.609091 266.831916 
C 250.405992 265.868529 248.774012 265.327228 247.072574 265.327228 
C 245.371136 265.327228 243.739155 265.868529 242.536057 266.831916 
C 241.332958 267.795302 240.65697 269.102119 240.65697 270.464553 
C 240.65697 271.826988 241.332958 273.133804 242.536057 274.097191 
C 243.739155 275.060578 245.371136 275.601879 247.072574 275.601879 
z
" style="fill:#ff0000;opacity:0.2;stroke:#ff0000;stroke-linejoin:miter;stroke-width:2;"/>
   </g>
   <g id="patch_52">
    <path d="M 247.072574 279.026763 
Q 247.072574 275.746952 247.072574 274.588461 
" style="fill:none;opacity:0.5;stroke:#ff0000;stroke-linecap:round;stroke-width:3;"/>
    <path d="M 245.572574 276.088461 
L 247.072574 274.588461 
L 248.572574 276.088461 
" style="fill:none;opacity:0.5;stroke:#ff0000;stroke-linecap:round;stroke-width:3;"/>
   </g>
   <g id="[&quot;g_s&quot;:4,&quot;g_t&quot;:3,&quot;coords&quot;:[[165.0, -236.0],[198.0, -227.0]],&quot;certainty&quot;:11]">
    <path clip-path="url(#p5e18c6d845)" d="M 148.699981 172.855366 
C 150.401419 172.855366 152.033399 172.314065 153.236498 171.350678 
C 154.439596 170.387292 155.115585 169.080475 155.115585 167.718041 
C 155.115585 166.355606 154.439596 165.04879 153.236498 164.085403 
C 152.033399 163.122016 150.401419 162.580715 148.699981 162.580715 
C 146.998543 162.580715 145.366562 163.122016 144.163464 164.085403 
C 142.960365 165.04879 142.284377 166.355606 142.284377 167.718041 
C 142.284377 169.080475 142.960365 170.387292 144.163464 171.350678 
C 145.366562 172.314065 146.998543 172.855366 148.699981 172.855366 
z
" style="fill:#0000ff;opacity:0.2;stroke:#0000ff;stroke-linejoin:miter;stroke-width:2;"/>
   </g>
   <g id="[&quot;g_s&quot;:3,&quot;g_t&quot;:4,&quot;coords&quot;:[[198.0, -227.0],[165.0, -236.0]],&quot;certainty&quot;:11]">
    <path clip-path="url(#p5e18c6d845)" d="M 183.985802 165.149378 
C 185.68724 165.149378 187.319221 164.608077 188.522319 163.64469 
C 189.725417 162.681303 190.401406 161.374487 190.401406 160.012052 
C 190.401406 158.649618 189.725417 157.342801 188.522319 156.379414 
C 187.319221 155.416028 185.68724 154.874727 183.985802 154.874727 
C 182.284364 154.874727 180.652383 155.416028 179.449285 156.379414 
C 178.246187 157.342801 177.570198 158.649618 177.570198 160.012052 
C 177.570198 161.374487 178.246187 162.681303 179.449285 163.64469 
C 180.652383 164.608077 182.284364 165.149378 183.985802 165.149378 
z
" style="fill:#ff0000;opacity:0.2;stroke:#ff0000;stroke-linejoin:miter;stroke-width:2;"/>
   </g>
   <g id="patch_53">
    <path d="M 148.699981 167.718041 
Q 165.367276 164.078109 179.962097 160.89078 
" style="fill:none;opacity:0.5;stroke:#ff0000;stroke-linecap:round;stroke-width:3;"/>
    <path d="M 178.176598 159.745358 
L 179.962097 160.89078 
L 178.816675 162.676279 
" style="fill:none;opacity:0.5;stroke:#ff0000;stroke-linecap:round;stroke-width:3;"/>
   </g>
   <g id="patch_54">
    <path clip-path="url(#p5e18c6d845)" d="M 318.17885 189.123564 
C 319.596715 189.123564 320.956699 188.67248 321.959281 187.869658 
C 322.961863 187.066835 323.525187 185.977822 323.525187 184.842459 
C 323.525187 183.707097 322.961863 182.618084 321.959281 181.815261 
C 320.956699 181.012439 319.596715 180.561355 318.17885 180.561355 
C 316.760985 180.561355 315.401001 181.012439 314.398419 181.815261 
C 313.395837 182.618084 312.832513 183.707097 312.832513 184.842459 
C 312.832513 185.977822 313.395837 187.066835 314.398419 187.869658 
C 315.401001 188.67248 316.760985 189.123564 318.17885 189.123564 
z
" style="fill:#008000;opacity:0.2;stroke:#008000;stroke-linejoin:miter;stroke-width:2;"/>
   </g>
   <g id="patch_55">
    <path clip-path="url(#p5e18c6d845)" d="M 247.072574 279.026763 
C 248.490439 279.026763 249.850422 278.575678 250.853004 277.772856 
C 251.855586 276.970034 252.41891 275.88102 252.41891 274.745658 
C 252.41891 273.610296 251.855586 272.521282 250.853004 271.71846 
C 249.850422 270.915638 248.490439 270.464553 247.072574 270.464553 
C 245.654709 270.464553 244.294725 270.915638 243.292143 271.71846 
C 242.289561 272.521282 241.726237 273.610296 241.726237 274.745658 
C 241.726237 275.88102 242.289561 276.970034 243.292143 277.772856 
C 244.294725 278.575678 245.654709 279.026763 247.072574 279.026763 
z
" style="fill:#008000;opacity:0.2;stroke:#008000;stroke-linejoin:miter;stroke-width:2;"/>
   </g>
   <g id="patch_56">
    <path clip-path="url(#p5e18c6d845)" d="M 166.342891 168.146151 
C 167.760756 168.146151 169.12074 167.695067 170.123322 166.892245 
C 171.125904 166.089422 171.689228 165.000409 171.689228 163.865046 
C 171.689228 162.729684 171.125904 161.640671 170.123322 160.837848 
C 169.12074 160.035026 167.760756 159.583942 166.342891 159.583942 
C 164.925026 159.583942 163.565042 160.035026 162.56246 160.837848 
C 161.559879 161.640671 160.996555 162.729684 160.996555 163.865046 
C 160.996555 165.000409 161.559879 166.089422 162.56246 166.892245 
C 163.565042 167.695067 164.925026 168.146151 166.342891 168.146151 
z
" style="fill:#008000;opacity:0.2;stroke:#008000;stroke-linejoin:miter;stroke-width:2;"/>
   </g>
   <g id="patch_57">
    <path clip-path="url(#p5e18c6d845)" d="M 239.053069 75.246179 
C 240.470934 75.246179 241.830918 74.795095 242.8335 73.992273 
C 243.836082 73.18945 244.399405 72.100437 244.399405 70.965075 
C 244.399405 69.829712 243.836082 68.740699 242.8335 67.937877 
C 241.830918 67.135054 240.470934 66.68397 239.053069 66.68397 
C 237.635204 66.68397 236.27522 67.135054 235.272638 67.937877 
C 234.270056 68.740699 233.706732 69.829712 233.706732 70.965075 
C 233.706732 72.100437 234.270056 73.18945 235.272638 73.992273 
C 236.27522 74.795095 237.635204 75.246179 239.053069 75.246179 
z
" style="fill:#008000;opacity:0.2;stroke:#008000;stroke-linejoin:miter;stroke-width:2;"/>
   </g>
   <g id="patch_58">
    <path clip-path="url(#p5e18c6d845)" d="M 300.535939 207.104204 
C 306.207399 207.104204 311.647335 205.299867 315.657663 202.088578 
C 319.667991 198.877288 321.921286 194.521234 321.921286 189.979785 
C 321.921286 185.438336 319.667991 181.082282 315.657663 177.870992 
C 311.647335 174.659703 306.207399 172.855366 300.535939 172.855366 
C 294.864479 172.855366 289.424544 174.659703 285.414216 177.870992 
C 281.403888 181.082282 279.150593 185.438336 279.150593 189.979785 
C 279.150593 194.521234 281.403888 198.877288 285.414216 202.088578 
C 289.424544 205.299867 294.864479 207.104204 300.535939 207.104204 
z
" style="fill:none;opacity:0.2;stroke:#ff0000;stroke-linejoin:miter;stroke-width:2;"/>
   </g>
   <g id="patch_59">
    <path clip-path="url(#p5e18c6d845)" d="M 237.449168 83.808389 
C 243.120628 83.808389 248.560563 82.004052 252.570891 78.792763 
C 256.581219 75.581473 258.834514 71.225419 258.834514 66.68397 
C 258.834514 62.142521 256.581219 57.786467 252.570891 54.575177 
C 248.560563 51.363888 243.120628 49.559551 237.449168 49.559551 
C 231.777708 49.559551 226.337772 51.363888 222.327444 54.575177 
C 218.317116 57.786467 216.063821 62.142521 216.063821 66.68397 
C 216.063821 71.225419 218.317116 75.581473 222.327444 78.792763 
C 226.337772 82.004052 231.777708 83.808389 237.449168 83.808389 
z
" style="fill:none;opacity:0.2;stroke:#0000ff;stroke-linejoin:miter;stroke-width:2;"/>
   </g>
   <g id="patch_60">
    <path clip-path="url(#p5e18c6d845)" d="M 300.535939 198.541994 
C 303.371669 198.541994 306.091637 197.639826 308.096801 196.034181 
C 310.101965 194.428537 311.228612 192.25051 311.228612 189.979785 
C 311.228612 187.709061 310.101965 185.531033 308.096801 183.925389 
C 306.091637 182.319744 303.371669 181.417576 300.535939 181.417576 
C 297.700209 181.417576 294.980242 182.319744 292.975078 183.925389 
C 290.969914 185.531033 289.843266 187.709061 289.843266 189.979785 
C 289.843266 192.25051 290.969914 194.428537 292.975078 196.034181 
C 294.980242 197.639826 297.700209 198.541994 300.535939 198.541994 
z
" style="fill:none;opacity:0.2;stroke:#008000;stroke-linejoin:miter;stroke-width:2;"/>
   </g>
   <g id="patch_61">
    <path clip-path="url(#p5e18c6d845)" d="M 335.821761 188.267343 
C 338.657491 188.267343 341.377458 187.365175 343.382622 185.75953 
C 345.387786 184.153885 346.514434 181.975858 346.514434 179.705134 
C 346.514434 177.434409 345.387786 175.256382 343.382622 173.650738 
C 341.377458 172.045093 338.657491 171.142924 335.821761 171.142924 
C 332.986031 171.142924 330.266063 172.045093 328.260899 173.650738 
C 326.255735 175.256382 325.129088 177.434409 325.129088 179.705134 
C 325.129088 181.975858 326.255735 184.153885 328.260899 185.75953 
C 330.266063 187.365175 332.986031 188.267343 335.821761 188.267343 
z
" style="fill:none;opacity:0.2;stroke:#008000;stroke-linejoin:miter;stroke-width:2;"/>
   </g>
   <g id="patch_62">
    <path d="M 318.17885 184.842459 
Q 282.625712 229.794059 247.072574 274.745658 
" style="fill:none;opacity:0.5;stroke:#008000;stroke-linecap:round;stroke-width:2;"/>
   </g>
   <g id="patch_63">
    <path d="M 301.893761 189.58441 
Q 317.220464 185.121526 332.547168 180.658641 
" style="fill:none;opacity:0.5;stroke:#800080;stroke-linecap:round;stroke-width:2;"/>
    <path d="M 303.753306 190.605238 
L 301.893761 189.58441 
L 302.914589 187.724864 
" style="fill:none;opacity:0.5;stroke:#800080;stroke-linecap:round;stroke-width:2;"/>
    <path d="M 330.687623 179.637813 
L 332.547168 180.658641 
L 331.52634 182.518187 
" style="fill:none;opacity:0.5;stroke:#800080;stroke-linecap:round;stroke-width:2;"/>
   </g>
   <g id="patch_64">
    <path d="M 247.072574 274.745658 
Q 206.707732 219.305352 166.342891 163.865046 
" style="fill:none;opacity:0.5;stroke:#008000;stroke-linecap:round;stroke-width:2;"/>
   </g>
   <g id="patch_65">
    <path d="M 247.072574 271.878767 
Q 247.072574 273.744364 247.072574 275.609962 
" style="fill:none;opacity:0.5;stroke:#800080;stroke-linecap:round;stroke-width:2;"/>
    <path d="M 245.572574 273.378767 
L 247.072574 271.878767 
L 248.572574 273.378767 
" style="fill:none;opacity:0.5;stroke:#800080;stroke-linecap:round;stroke-width:2;"/>
    <path d="M 248.572574 274.109962 
L 247.072574 275.609962 
L 245.572574 274.109962 
" style="fill:none;opacity:0.5;stroke:#800080;stroke-linecap:round;stroke-width:2;"/>
   </g>
   <g id="patch_66">
    <path d="M 166.342891 163.865046 
Q 202.69798 117.415061 239.053069 70.965075 
" style="fill:none;opacity:0.5;stroke:#008000;stroke-linecap:round;stroke-width:2;"/>
   </g>
   <g id="patch_67">
    <path d="M 182.604152 160.313788 
Q 167.318506 163.651984 152.03286 166.990181 
" style="fill:none;opacity:0.5;stroke:#800080;stroke-linecap:round;stroke-width:2;"/>
    <path d="M 180.818653 159.168365 
L 182.604152 160.313788 
L 181.45873 162.099287 
" style="fill:none;opacity:0.5;stroke:#800080;stroke-linecap:round;stroke-width:2;"/>
    <path d="M 153.81836 168.135603 
L 152.03286 166.990181 
L 153.178283 165.204681 
" style="fill:none;opacity:0.5;stroke:#800080;stroke-linecap:round;stroke-width:2;"/>
   </g>
   <g id="patch_68">
    <path d="M 239.053069 70.965075 
Q 278.615959 127.903767 318.17885 184.842459 
" style="fill:none;opacity:0.5;stroke:#008000;stroke-linecap:round;stroke-width:2;"/>
   </g>
   <g id="patch_69">
    <path d="M 240.160817 73.921856 
Q 239.403139 71.899476 238.645461 69.877096 
" style="fill:none;opacity:0.5;stroke:#800080;stroke-linecap:round;stroke-width:2;"/>
    <path d="M 241.039224 71.990949 
L 240.160817 73.921856 
L 238.22991 73.043449 
" style="fill:none;opacity:0.5;stroke:#800080;stroke-linecap:round;stroke-width:2;"/>
    <path d="M 237.767054 71.808003 
L 238.645461 69.877096 
L 240.576368 70.755503 
" style="fill:none;opacity:0.5;stroke:#800080;stroke-linecap:round;stroke-width:2;"/>
   </g>
   <g id="line2d_1">
    <path clip-path="url(#p5e18c6d845)" d="M 244.934039 44.422226 
L 422.432413 171.142924 
L 239.587702 301.288507 
L 62.089328 178.848913 
" style="fill:none;stroke:#ff0000;stroke-linecap:square;stroke-width:0.2;"/>
   </g>
   <g id="line2d_2">
    <path clip-path="url(#p5e18c6d845)" d="M 246.003306 44.422226 
L 414.947542 170.286704 
L 239.587702 301.288507 
L 69.574199 176.28025 
" style="fill:none;stroke:#0000ff;stroke-linecap:square;stroke-width:0.2;"/>
   </g>
   <g id="line2d_3">
    <path clip-path="url(#p5e18c6d845)" d="M 300.535939 189.979785 
L 247.072574 270.464553 
L 183.985802 160.012052 
L 240.65697 75.246179 
" style="fill:none;stroke:#ff0000;stroke-linecap:square;stroke-width:0.2;"/>
   </g>
   <g id="line2d_4">
    <path clip-path="url(#p5e18c6d845)" d="M 237.449168 66.68397 
L 335.821761 179.705134 
L 247.072574 279.026763 
L 148.699981 167.718041 
" style="fill:none;stroke:#0000ff;stroke-linecap:square;stroke-width:0.2;"/>
   </g>
  </g>
 </g>
 <defs>
  <clipPath id="p5e18c6d845">
   <rect height="307.51175" width="409.903625" x="37.576375" y="13.32"/>
  </clipPath>
 </defs>
</svg>
