<?xml version="1.0" encoding="utf-8" standalone="no"?>
<!DOCTYPE svg PUBLIC "-//W3C//DTD SVG 1.1//EN"
  "http://www.w3.org/Graphics/SVG/1.1/DTD/svg11.dtd">
<!-- Created with matplotlib (http://matplotlib.org/) -->
<svg height="345.6pt" version="1.1" viewBox="0 0 460.8 345.6" width="460.8pt" xmlns="http://www.w3.org/2000/svg" xmlns:xlink="http://www.w3.org/1999/xlink">
 <defs>
  <style type="text/css">
*{stroke-linecap:butt;stroke-linejoin:round;}
  </style>
 </defs>
 <g id="figure_1">
  <g id="patch_1">
   <path d="M 0 345.6 
L 460.8 345.6 
L 460.8 0 
L 0 0 
z
" style="fill:#ffffff;"/>
  </g>
  <g id="axes_1">
   <g id="patch_2">
    <path clip-path="url(#pf2a652420c)" d="M 240.331491 295.890957 
C 240.755179 295.890957 241.16157 295.76261 241.461163 295.534181 
C 241.760755 295.305753 241.929088 294.995894 241.929088 294.672848 
C 241.929088 294.349801 241.760755 294.039943 241.461163 293.811514 
C 241.16157 293.583086 240.755179 293.454738 240.331491 293.454738 
C 239.907803 293.454738 239.501411 293.583086 239.201819 293.811514 
C 238.902226 294.039943 238.733893 294.349801 238.733893 294.672848 
C 238.733893 294.995894 238.902226 295.305753 239.201819 295.534181 
C 239.501411 295.76261 239.907803 295.890957 240.331491 295.890957 
z
" style="fill:#ff0000;opacity:0.2;stroke:#ff0000;stroke-linejoin:miter;stroke-width:2;"/>
   </g>
   <g id="patch_3">
    <path clip-path="url(#pf2a652420c)" d="M 61.40055 170.425676 
C 61.824238 170.425676 62.23063 170.297328 62.530223 170.0689 
C 62.829815 169.840472 62.998148 169.530613 62.998148 169.207567 
C 62.998148 168.88452 62.829815 168.574661 62.530223 168.346233 
C 62.23063 168.117805 61.824238 167.989457 61.40055 167.989457 
C 60.976863 167.989457 60.570471 168.117805 60.270878 168.346233 
C 59.971286 168.574661 59.802953 168.88452 59.802953 169.207567 
C 59.802953 169.530613 59.971286 169.840472 60.270878 170.0689 
C 60.570471 170.297328 60.976863 170.425676 61.40055 170.425676 
z
" style="fill:#ff0000;opacity:0.2;stroke:#ff0000;stroke-linejoin:miter;stroke-width:2;"/>
   </g>
   <g id="patch_4">
    <path clip-path="url(#pf2a652420c)" d="M 245.124284 35.215519 
C 245.547972 35.215519 245.954363 35.087171 246.253956 34.858743 
C 246.553548 34.630314 246.721881 34.320456 246.721881 33.997409 
C 246.721881 33.674363 246.553548 33.364504 246.253956 33.136076 
C 245.954363 32.907647 245.547972 32.7793 245.124284 32.7793 
C 244.700596 32.7793 244.294204 32.907647 243.994612 33.136076 
C 243.695019 33.364504 243.526686 33.674363 243.526686 33.997409 
C 243.526686 34.320456 243.695019 34.630314 243.994612 34.858743 
C 244.294204 35.087171 244.700596 35.215519 245.124284 35.215519 
z
" style="fill:#ff0000;opacity:0.2;stroke:#ff0000;stroke-linejoin:miter;stroke-width:2;"/>
   </g>
   <g id="patch_5">
    <path clip-path="url(#pf2a652420c)" d="M 424.055224 164.944183 
C 424.478912 164.944183 424.885304 164.815836 425.184896 164.587407 
C 425.484489 164.358979 425.652822 164.04912 425.652822 163.726074 
C 425.652822 163.403027 425.484489 163.093169 425.184896 162.86474 
C 424.885304 162.636312 424.478912 162.507964 424.055224 162.507964 
C 423.631536 162.507964 423.225144 162.636312 422.925552 162.86474 
C 422.625959 163.093169 422.457626 163.403027 422.457626 163.726074 
C 422.457626 164.04912 422.625959 164.358979 422.925552 164.587407 
C 423.225144 164.815836 423.631536 164.944183 424.055224 164.944183 
z
" style="fill:#ff0000;opacity:0.2;stroke:#ff0000;stroke-linejoin:miter;stroke-width:2;"/>
   </g>
   <g id="patch_6">
    <path clip-path="url(#pf2a652420c)" d="M 246.721881 40.697012 
C 247.145569 40.697012 247.551961 40.568664 247.851554 40.340236 
C 248.151146 40.111807 248.319479 39.801949 248.319479 39.478902 
C 248.319479 39.155856 248.151146 38.845997 247.851554 38.617569 
C 247.551961 38.38914 247.145569 38.260793 246.721881 38.260793 
C 246.298194 38.260793 245.891802 38.38914 245.592209 38.617569 
C 245.292617 38.845997 245.124284 39.155856 245.124284 39.478902 
C 245.124284 39.801949 245.292617 40.111807 245.592209 40.340236 
C 245.891802 40.568664 246.298194 40.697012 246.721881 40.697012 
z
" style="fill:#0000ff;opacity:0.2;stroke:#0000ff;stroke-linejoin:miter;stroke-width:2;"/>
   </g>
   <g id="patch_7">
    <path clip-path="url(#pf2a652420c)" d="M 408.878046 166.771348 
C 409.301734 166.771348 409.708126 166.643 410.007718 166.414572 
C 410.307311 166.186143 410.475644 165.876285 410.475644 165.553238 
C 410.475644 165.230192 410.307311 164.920333 410.007718 164.691905 
C 409.708126 164.463476 409.301734 164.335129 408.878046 164.335129 
C 408.454358 164.335129 408.047966 164.463476 407.748374 164.691905 
C 407.448781 164.920333 407.280448 165.230192 407.280448 165.553238 
C 407.280448 165.876285 407.448781 166.186143 407.748374 166.414572 
C 408.047966 166.643 408.454358 166.771348 408.878046 166.771348 
z
" style="fill:#0000ff;opacity:0.2;stroke:#0000ff;stroke-linejoin:miter;stroke-width:2;"/>
   </g>
   <g id="patch_8">
    <path clip-path="url(#pf2a652420c)" d="M 240.331491 297.718122 
C 240.755179 297.718122 241.16157 297.589774 241.461163 297.361346 
C 241.760755 297.132917 241.929088 296.823059 241.929088 296.500012 
C 241.929088 296.176966 241.760755 295.867107 241.461163 295.638679 
C 241.16157 295.41025 240.755179 295.281903 240.331491 295.281903 
C 239.907803 295.281903 239.501411 295.41025 239.201819 295.638679 
C 238.902226 295.867107 238.733893 296.176966 238.733893 296.500012 
C 238.733893 296.823059 238.902226 297.132917 239.201819 297.361346 
C 239.501411 297.589774 239.907803 297.718122 240.331491 297.718122 
z
" style="fill:#0000ff;opacity:0.2;stroke:#0000ff;stroke-linejoin:miter;stroke-width:2;"/>
   </g>
   <g id="patch_9">
    <path clip-path="url(#pf2a652420c)" d="M 76.577728 172.25284 
C 77.001416 172.25284 77.407808 172.124493 77.707401 171.896064 
C 78.006993 171.667636 78.175326 171.357777 78.175326 171.034731 
C 78.175326 170.711685 78.006993 170.401826 77.707401 170.173397 
C 77.407808 169.944969 77.001416 169.816621 76.577728 169.816621 
C 76.154041 169.816621 75.747649 169.944969 75.448056 170.173397 
C 75.148464 170.401826 74.980131 170.711685 74.980131 171.034731 
C 74.980131 171.357777 75.148464 171.667636 75.448056 171.896064 
C 75.747649 172.124493 76.154041 172.25284 76.577728 172.25284 
z
" style="fill:#0000ff;opacity:0.2;stroke:#0000ff;stroke-linejoin:miter;stroke-width:2;"/>
   </g>
   <g id="patch_10">
    <path clip-path="url(#pf2a652420c)" d="M 240.331491 294.672848 
C 145.274429 294.672848 62.199349 253.257124 61.40055 169.207567 
C 60.601752 82.112736 150.866021 33.997409 245.124284 33.997409 
C 339.382547 33.997409 424.055224 77.849352 424.055224 163.726074 
C 424.055224 252.648069 338.583748 294.672848 240.331491 294.672848 
" style="fill:none;stroke:#ff0000;stroke-linejoin:miter;stroke-width:0.5;"/>
   </g>
   <g id="patch_11">
    <path clip-path="url(#pf2a652420c)" d="M 246.721881 39.478902 
C 336.187352 39.478902 408.878046 90.639502 408.878046 165.553238 
C 408.878046 241.685084 340.181346 296.500012 240.331491 296.500012 
C 148.469624 296.500012 76.577728 247.166576 76.577728 171.034731 
C 76.577728 94.293831 152.463618 39.478902 246.721881 39.478902 
" style="fill:none;stroke:#0000ff;stroke-linejoin:miter;stroke-width:0.5;"/>
   </g>
   <g id="[&quot;g_s&quot;:1,&quot;g_t&quot;:3,&quot;coords&quot;:[[305.0, -714.0],[305.0, -717.0]],&quot;certainty&quot;:11]">
    <path clip-path="url(#pf2a652420c)" d="M 240.331491 298.327176 
C 241.602554 298.327176 242.821729 297.942133 243.720507 297.256848 
C 244.619285 296.571563 245.124284 295.641987 245.124284 294.672848 
C 245.124284 293.703709 244.619285 292.774132 243.720507 292.088847 
C 242.821729 291.403562 241.602554 291.018519 240.331491 291.018519 
C 239.060427 291.018519 237.841252 291.403562 236.942474 292.088847 
C 236.043697 292.774132 235.538698 293.703709 235.538698 294.672848 
C 235.538698 295.641987 236.043697 296.571563 236.942474 297.256848 
C 237.841252 297.942133 239.060427 298.327176 240.331491 298.327176 
z
" style="fill:#0000ff;opacity:0.2;stroke:#0000ff;stroke-linejoin:miter;stroke-width:2;"/>
   </g>
   <g id="[&quot;g_s&quot;:3,&quot;g_t&quot;:1,&quot;coords&quot;:[[305.0, -717.0],[305.0, -714.0]],&quot;certainty&quot;:11]">
    <path clip-path="url(#pf2a652420c)" d="M 240.331491 300.154341 
C 241.602554 300.154341 242.821729 299.769298 243.720507 299.084013 
C 244.619285 298.398728 245.124284 297.469151 245.124284 296.500012 
C 245.124284 295.530873 244.619285 294.601297 243.720507 293.916012 
C 242.821729 293.230727 241.602554 292.845684 240.331491 292.845684 
C 239.060427 292.845684 237.841252 293.230727 236.942474 293.916012 
C 236.043697 294.601297 235.538698 295.530873 235.538698 296.500012 
C 235.538698 297.469151 236.043697 298.398728 236.942474 299.084013 
C 237.841252 299.769298 239.060427 300.154341 240.331491 300.154341 
z
" style="fill:#ff0000;opacity:0.2;stroke:#ff0000;stroke-linejoin:miter;stroke-width:2;"/>
   </g>
   <g id="patch_12">
    <path d="M 240.331491 294.672848 
Q 240.331491 295.58643 240.331491 294.378692 
" style="fill:none;opacity:0.5;stroke:#0000ff;stroke-linecap:round;stroke-width:3;"/>
    <path d="M 241.831491 292.878692 
L 240.331491 294.378692 
L 238.831491 292.878692 
" style="fill:none;opacity:0.5;stroke:#0000ff;stroke-linecap:round;stroke-width:3;"/>
   </g>
   <g id="[&quot;g_s&quot;:2,&quot;g_t&quot;:4,&quot;coords&quot;:[[81.0, -508.0],[100.0, -511.0]],&quot;certainty&quot;:10]">
    <path clip-path="url(#pf2a652420c)" d="M 61.40055 172.557368 
C 62.565692 172.557368 63.683269 172.204412 64.507149 171.576234 
C 65.331028 170.948056 65.793944 170.095944 65.793944 169.207567 
C 65.793944 168.319189 65.331028 167.467077 64.507149 166.8389 
C 63.683269 166.210722 62.565692 165.857765 61.40055 165.857765 
C 60.235409 165.857765 59.117832 166.210722 58.293952 166.8389 
C 57.470072 167.467077 57.007157 168.319189 57.007157 169.207567 
C 57.007157 170.095944 57.470072 170.948056 58.293952 171.576234 
C 59.117832 172.204412 60.235409 172.557368 61.40055 172.557368 
z
" style="fill:#0000ff;opacity:0.2;stroke:#0000ff;stroke-linejoin:miter;stroke-width:2;"/>
   </g>
   <g id="[&quot;g_s&quot;:4,&quot;g_t&quot;:2,&quot;coords&quot;:[[100.0, -511.0],[81.0, -508.0]],&quot;certainty&quot;:10]">
    <path clip-path="url(#pf2a652420c)" d="M 76.577728 174.384532 
C 77.74287 174.384532 78.860447 174.031576 79.684327 173.403398 
C 80.508206 172.77522 80.971122 171.923109 80.971122 171.034731 
C 80.971122 170.146353 80.508206 169.294242 79.684327 168.666064 
C 78.860447 168.037886 77.74287 167.68493 76.577728 167.68493 
C 75.412587 167.68493 74.295009 168.037886 73.47113 168.666064 
C 72.64725 169.294242 72.184335 170.146353 72.184335 171.034731 
C 72.184335 171.923109 72.64725 172.77522 73.47113 173.403398 
C 74.295009 174.031576 75.412587 174.384532 76.577728 174.384532 
z
" style="fill:#ff0000;opacity:0.2;stroke:#ff0000;stroke-linejoin:miter;stroke-width:2;"/>
   </g>
   <g id="patch_13">
    <path d="M 61.40055 169.207567 
Q 67.997954 170.001821 72.664754 170.563652 
" style="fill:none;opacity:0.5;stroke:#0000ff;stroke-linecap:round;stroke-width:2.75;"/>
    <path d="M 71.354797 168.895117 
L 72.664754 170.563652 
L 70.996219 171.87361 
" style="fill:none;opacity:0.5;stroke:#0000ff;stroke-linecap:round;stroke-width:2.75;"/>
   </g>
   <g id="[&quot;g_s&quot;:3,&quot;g_t&quot;:1,&quot;coords&quot;:[[311.0, -286.0],[313.0, -295.0]],&quot;certainty&quot;:12]">
    <path clip-path="url(#pf2a652420c)" d="M 245.124284 37.956265 
C 246.501269 37.956265 247.822042 37.539135 248.795718 36.796743 
C 249.769394 36.054351 250.316476 35.04731 250.316476 33.997409 
C 250.316476 32.947508 249.769394 31.940467 248.795718 31.198075 
C 247.822042 30.455683 246.501269 30.038553 245.124284 30.038553 
C 243.747298 30.038553 242.426525 30.455683 241.452849 31.198075 
C 240.479173 31.940467 239.932091 32.947508 239.932091 33.997409 
C 239.932091 35.04731 240.479173 36.054351 241.452849 36.796743 
C 242.426525 37.539135 243.747298 37.956265 245.124284 37.956265 
z
" style="fill:#0000ff;opacity:0.2;stroke:#0000ff;stroke-linejoin:miter;stroke-width:2;"/>
   </g>
   <g id="[&quot;g_s&quot;:1,&quot;g_t&quot;:3,&quot;coords&quot;:[[313.0, -295.0],[311.0, -286.0]],&quot;certainty&quot;:12]">
    <path clip-path="url(#pf2a652420c)" d="M 246.721881 43.437758 
C 248.098867 43.437758 249.41964 43.020628 250.393316 42.278236 
C 251.366992 41.535844 251.914074 40.528803 251.914074 39.478902 
C 251.914074 38.429001 251.366992 37.42196 250.393316 36.679568 
C 249.41964 35.937176 248.098867 35.520046 246.721881 35.520046 
C 245.344896 35.520046 244.024123 35.937176 243.050447 36.679568 
C 242.076771 37.42196 241.529689 38.429001 241.529689 39.478902 
C 241.529689 40.528803 242.076771 41.535844 243.050447 42.278236 
C 244.024123 43.020628 245.344896 43.437758 246.721881 43.437758 
z
" style="fill:#ff0000;opacity:0.2;stroke:#ff0000;stroke-linejoin:miter;stroke-width:2;"/>
   </g>
   <g id="patch_14">
    <path d="M 245.124284 33.997409 
Q 245.643425 35.778627 245.519533 35.353544 
" style="fill:none;opacity:0.5;stroke:#0000ff;stroke-linecap:round;stroke-width:3.25;"/>
    <path d="M 246.5399 33.493745 
L 245.519533 35.353544 
L 243.659734 34.333178 
" style="fill:none;opacity:0.5;stroke:#0000ff;stroke-linecap:round;stroke-width:3.25;"/>
   </g>
   <g id="[&quot;g_s&quot;:4,&quot;g_t&quot;:2,&quot;coords&quot;:[[535.0, -499.0],[516.0, -502.0]],&quot;certainty&quot;:11]">
    <path clip-path="url(#pf2a652420c)" d="M 424.055224 167.380402 
C 425.326288 167.380402 426.545463 166.995359 427.44424 166.310074 
C 428.343018 165.624789 428.848017 164.695213 428.848017 163.726074 
C 428.848017 162.756935 428.343018 161.827358 427.44424 161.142073 
C 426.545463 160.456788 425.326288 160.071745 424.055224 160.071745 
C 422.78416 160.071745 421.564985 160.456788 420.666208 161.142073 
C 419.76743 161.827358 419.262431 162.756935 419.262431 163.726074 
C 419.262431 164.695213 419.76743 165.624789 420.666208 166.310074 
C 421.564985 166.995359 422.78416 167.380402 424.055224 167.380402 
z
" style="fill:#0000ff;opacity:0.2;stroke:#0000ff;stroke-linejoin:miter;stroke-width:2;"/>
   </g>
   <g id="[&quot;g_s&quot;:2,&quot;g_t&quot;:4,&quot;coords&quot;:[[516.0, -502.0],[535.0, -499.0]],&quot;certainty&quot;:11]">
    <path clip-path="url(#pf2a652420c)" d="M 408.878046 169.207567 
C 410.14911 169.207567 411.368285 168.822524 412.267062 168.137239 
C 413.16584 167.451954 413.670839 166.522377 413.670839 165.553238 
C 413.670839 164.584099 413.16584 163.654523 412.267062 162.969238 
C 411.368285 162.283953 410.14911 161.89891 408.878046 161.89891 
C 407.606982 161.89891 406.387807 162.283953 405.48903 162.969238 
C 404.590252 163.654523 404.085253 164.584099 404.085253 165.553238 
C 404.085253 166.522377 404.590252 167.451954 405.48903 168.137239 
C 406.387807 168.822524 407.606982 169.207567 408.878046 169.207567 
z
" style="fill:#ff0000;opacity:0.2;stroke:#ff0000;stroke-linejoin:miter;stroke-width:2;"/>
   </g>
   <g id="patch_15">
    <path d="M 424.055224 163.726074 
Q 417.45782 164.520328 412.966529 165.06103 
" style="fill:none;opacity:0.5;stroke:#0000ff;stroke-linecap:round;stroke-width:3;"/>
    <path d="M 414.635065 166.370988 
L 412.966529 165.06103 
L 414.276487 163.392494 
" style="fill:none;opacity:0.5;stroke:#0000ff;stroke-linecap:round;stroke-width:3;"/>
   </g>
   <g id="[&quot;g_s&quot;:1,&quot;g_t&quot;:3,&quot;coords&quot;:[[313.0, -295.0],[311.0, -286.0]],&quot;certainty&quot;:10]">
    <path clip-path="url(#pf2a652420c)" d="M 246.721881 42.828703 
C 247.887023 42.828703 249.0046 42.475747 249.82848 41.847569 
C 250.652359 41.219391 251.115275 40.36728 251.115275 39.478902 
C 251.115275 38.590524 250.652359 37.738413 249.82848 37.110235 
C 249.0046 36.482057 247.887023 36.129101 246.721881 36.129101 
C 245.55674 36.129101 244.439163 36.482057 243.615283 37.110235 
C 242.791403 37.738413 242.328488 38.590524 242.328488 39.478902 
C 242.328488 40.36728 242.791403 41.219391 243.615283 41.847569 
C 244.439163 42.475747 245.55674 42.828703 246.721881 42.828703 
z
" style="fill:#0000ff;opacity:0.2;stroke:#0000ff;stroke-linejoin:miter;stroke-width:2;"/>
   </g>
   <g id="[&quot;g_s&quot;:3,&quot;g_t&quot;:1,&quot;coords&quot;:[[311.0, -286.0],[313.0, -295.0]],&quot;certainty&quot;:10]">
    <path clip-path="url(#pf2a652420c)" d="M 245.124284 37.34721 
C 246.289425 37.34721 247.407003 36.994254 248.230882 36.366076 
C 249.054762 35.737898 249.517677 34.885787 249.517677 33.997409 
C 249.517677 33.109032 249.054762 32.25692 248.230882 31.628742 
C 247.407003 31.000564 246.289425 30.647608 245.124284 30.647608 
C 243.959142 30.647608 242.841565 31.000564 242.017685 31.628742 
C 241.193806 32.25692 240.73089 33.109032 240.73089 33.997409 
C 240.73089 34.885787 241.193806 35.737898 242.017685 36.366076 
C 242.841565 36.994254 243.959142 37.34721 245.124284 37.34721 
z
" style="fill:#ff0000;opacity:0.2;stroke:#ff0000;stroke-linejoin:miter;stroke-width:2;"/>
   </g>
   <g id="patch_16">
    <path d="M 246.721881 39.478902 
Q 246.20274 37.697685 246.227704 37.783336 
" style="fill:none;opacity:0.5;stroke:#ff0000;stroke-linecap:round;stroke-width:2.75;"/>
    <path d="M 245.207337 39.643135 
L 246.227704 37.783336 
L 248.087503 38.803702 
" style="fill:none;opacity:0.5;stroke:#ff0000;stroke-linecap:round;stroke-width:2.75;"/>
   </g>
   <g id="[&quot;g_s&quot;:2,&quot;g_t&quot;:4,&quot;coords&quot;:[[516.0, -502.0],[535.0, -499.0]],&quot;certainty&quot;:11]">
    <path clip-path="url(#pf2a652420c)" d="M 408.878046 169.207567 
C 410.14911 169.207567 411.368285 168.822524 412.267062 168.137239 
C 413.16584 167.451954 413.670839 166.522377 413.670839 165.553238 
C 413.670839 164.584099 413.16584 163.654523 412.267062 162.969238 
C 411.368285 162.283953 410.14911 161.89891 408.878046 161.89891 
C 407.606982 161.89891 406.387807 162.283953 405.48903 162.969238 
C 404.590252 163.654523 404.085253 164.584099 404.085253 165.553238 
C 404.085253 166.522377 404.590252 167.451954 405.48903 168.137239 
C 406.387807 168.822524 407.606982 169.207567 408.878046 169.207567 
z
" style="fill:#0000ff;opacity:0.2;stroke:#0000ff;stroke-linejoin:miter;stroke-width:2;"/>
   </g>
   <g id="[&quot;g_s&quot;:4,&quot;g_t&quot;:2,&quot;coords&quot;:[[535.0, -499.0],[516.0, -502.0]],&quot;certainty&quot;:11]">
    <path clip-path="url(#pf2a652420c)" d="M 424.055224 167.380402 
C 425.326288 167.380402 426.545463 166.995359 427.44424 166.310074 
C 428.343018 165.624789 428.848017 164.695213 428.848017 163.726074 
C 428.848017 162.756935 428.343018 161.827358 427.44424 161.142073 
C 426.545463 160.456788 425.326288 160.071745 424.055224 160.071745 
C 422.78416 160.071745 421.564985 160.456788 420.666208 161.142073 
C 419.76743 161.827358 419.262431 162.756935 419.262431 163.726074 
C 419.262431 164.695213 419.76743 165.624789 420.666208 166.310074 
C 421.564985 166.995359 422.78416 167.380402 424.055224 167.380402 
z
" style="fill:#ff0000;opacity:0.2;stroke:#ff0000;stroke-linejoin:miter;stroke-width:2;"/>
   </g>
   <g id="patch_17">
    <path d="M 408.878046 165.553238 
Q 415.47545 164.758984 419.966741 164.218282 
" style="fill:none;opacity:0.5;stroke:#ff0000;stroke-linecap:round;stroke-width:3;"/>
    <path d="M 418.298205 162.908324 
L 419.966741 164.218282 
L 418.656783 165.886817 
" style="fill:none;opacity:0.5;stroke:#ff0000;stroke-linecap:round;stroke-width:3;"/>
   </g>
   <g id="[&quot;g_s&quot;:3,&quot;g_t&quot;:1,&quot;coords&quot;:[[305.0, -717.0],[305.0, -714.0]],&quot;certainty&quot;:11]">
    <path clip-path="url(#pf2a652420c)" d="M 240.331491 300.154341 
C 241.602554 300.154341 242.821729 299.769298 243.720507 299.084013 
C 244.619285 298.398728 245.124284 297.469151 245.124284 296.500012 
C 245.124284 295.530873 244.619285 294.601297 243.720507 293.916012 
C 242.821729 293.230727 241.602554 292.845684 240.331491 292.845684 
C 239.060427 292.845684 237.841252 293.230727 236.942474 293.916012 
C 236.043697 294.601297 235.538698 295.530873 235.538698 296.500012 
C 235.538698 297.469151 236.043697 298.398728 236.942474 299.084013 
C 237.841252 299.769298 239.060427 300.154341 240.331491 300.154341 
z
" style="fill:#0000ff;opacity:0.2;stroke:#0000ff;stroke-linejoin:miter;stroke-width:2;"/>
   </g>
   <g id="[&quot;g_s&quot;:1,&quot;g_t&quot;:3,&quot;coords&quot;:[[305.0, -714.0],[305.0, -717.0]],&quot;certainty&quot;:11]">
    <path clip-path="url(#pf2a652420c)" d="M 240.331491 298.327176 
C 241.602554 298.327176 242.821729 297.942133 243.720507 297.256848 
C 244.619285 296.571563 245.124284 295.641987 245.124284 294.672848 
C 245.124284 293.703709 244.619285 292.774132 243.720507 292.088847 
C 242.821729 291.403562 241.602554 291.018519 240.331491 291.018519 
C 239.060427 291.018519 237.841252 291.403562 236.942474 292.088847 
C 236.043697 292.774132 235.538698 293.703709 235.538698 294.672848 
C 235.538698 295.641987 236.043697 296.571563 236.942474 297.256848 
C 237.841252 297.942133 239.060427 298.327176 240.331491 298.327176 
z
" style="fill:#ff0000;opacity:0.2;stroke:#ff0000;stroke-linejoin:miter;stroke-width:2;"/>
   </g>
   <g id="patch_18">
    <path d="M 240.331491 296.500012 
Q 240.331491 295.58643 240.331491 296.794168 
" style="fill:none;opacity:0.5;stroke:#ff0000;stroke-linecap:round;stroke-width:3;"/>
    <path d="M 238.831491 298.294168 
L 240.331491 296.794168 
L 241.831491 298.294168 
" style="fill:none;opacity:0.5;stroke:#ff0000;stroke-linecap:round;stroke-width:3;"/>
   </g>
   <g id="[&quot;g_s&quot;:4,&quot;g_t&quot;:2,&quot;coords&quot;:[[100.0, -511.0],[81.0, -508.0]],&quot;certainty&quot;:12]">
    <path clip-path="url(#pf2a652420c)" d="M 76.577728 174.993587 
C 77.954714 174.993587 79.275487 174.576457 80.249163 173.834065 
C 81.222839 173.091673 81.769921 172.084632 81.769921 171.034731 
C 81.769921 169.98483 81.222839 168.977789 80.249163 168.235397 
C 79.275487 167.493005 77.954714 167.075875 76.577728 167.075875 
C 75.200743 167.075875 73.87997 167.493005 72.906294 168.235397 
C 71.932618 168.977789 71.385536 169.98483 71.385536 171.034731 
C 71.385536 172.084632 71.932618 173.091673 72.906294 173.834065 
C 73.87997 174.576457 75.200743 174.993587 76.577728 174.993587 
z
" style="fill:#0000ff;opacity:0.2;stroke:#0000ff;stroke-linejoin:miter;stroke-width:2;"/>
   </g>
   <g id="[&quot;g_s&quot;:2,&quot;g_t&quot;:4,&quot;coords&quot;:[[81.0, -508.0],[100.0, -511.0]],&quot;certainty&quot;:12]">
    <path clip-path="url(#pf2a652420c)" d="M 61.40055 173.166423 
C 62.777536 173.166423 64.098309 172.749293 65.071985 172.006901 
C 66.045661 171.264509 66.592743 170.257468 66.592743 169.207567 
C 66.592743 168.157666 66.045661 167.150625 65.071985 166.408233 
C 64.098309 165.665841 62.777536 165.248711 61.40055 165.248711 
C 60.023565 165.248711 58.702792 165.665841 57.729116 166.408233 
C 56.75544 167.150625 56.208358 168.157666 56.208358 169.207567 
C 56.208358 170.257468 56.75544 171.264509 57.729116 172.006901 
C 58.702792 172.749293 60.023565 173.166423 61.40055 173.166423 
z
" style="fill:#ff0000;opacity:0.2;stroke:#ff0000;stroke-linejoin:miter;stroke-width:2;"/>
   </g>
   <g id="patch_19">
    <path d="M 76.577728 171.034731 
Q 69.980325 170.240477 65.664543 169.720904 
" style="fill:none;opacity:0.5;stroke:#ff0000;stroke-linecap:round;stroke-width:3.25;"/>
    <path d="M 66.974501 171.38944 
L 65.664543 169.720904 
L 67.333079 168.410946 
" style="fill:none;opacity:0.5;stroke:#ff0000;stroke-linecap:round;stroke-width:3.25;"/>
   </g>
   <g id="patch_20">
    <path clip-path="url(#pf2a652420c)" d="M 240.331491 298.631704 
C 241.39071 298.631704 242.40669 298.310835 243.155671 297.739764 
C 243.904652 297.168693 244.325485 296.394046 244.325485 295.58643 
C 244.325485 294.778814 243.904652 294.004167 243.155671 293.433096 
C 242.40669 292.862026 241.39071 292.541156 240.331491 292.541156 
C 239.272271 292.541156 238.256292 292.862026 237.50731 293.433096 
C 236.758329 294.004167 236.337496 294.778814 236.337496 295.58643 
C 236.337496 296.394046 236.758329 297.168693 237.50731 297.739764 
C 238.256292 298.310835 239.272271 298.631704 240.331491 298.631704 
z
" style="fill:#008000;opacity:0.2;stroke:#008000;stroke-linejoin:miter;stroke-width:2;"/>
   </g>
   <g id="patch_21">
    <path clip-path="url(#pf2a652420c)" d="M 68.989139 173.166423 
C 70.048359 173.166423 71.064338 172.845553 71.81332 172.274483 
C 72.562301 171.703412 72.983134 170.928765 72.983134 170.121149 
C 72.983134 169.313533 72.562301 168.538886 71.81332 167.967815 
C 71.064338 167.396744 70.048359 167.075875 68.989139 167.075875 
C 67.92992 167.075875 66.91394 167.396744 66.164959 167.967815 
C 65.415978 168.538886 64.995145 169.313533 64.995145 170.121149 
C 64.995145 170.928765 65.415978 171.703412 66.164959 172.274483 
C 66.91394 172.845553 67.92992 173.166423 68.989139 173.166423 
z
" style="fill:#008000;opacity:0.2;stroke:#008000;stroke-linejoin:miter;stroke-width:2;"/>
   </g>
   <g id="patch_22">
    <path clip-path="url(#pf2a652420c)" d="M 245.923083 39.783429 
C 246.982302 39.783429 247.998282 39.46256 248.747263 38.891489 
C 249.496244 38.320419 249.917077 37.545772 249.917077 36.738156 
C 249.917077 35.93054 249.496244 35.155893 248.747263 34.584822 
C 247.998282 34.013751 246.982302 33.692882 245.923083 33.692882 
C 244.863863 33.692882 243.847884 34.013751 243.098902 34.584822 
C 242.349921 35.155893 241.929088 35.93054 241.929088 36.738156 
C 241.929088 37.545772 242.349921 38.320419 243.098902 38.891489 
C 243.847884 39.46256 244.863863 39.783429 245.923083 39.783429 
z
" style="fill:#008000;opacity:0.2;stroke:#008000;stroke-linejoin:miter;stroke-width:2;"/>
   </g>
   <g id="patch_23">
    <path clip-path="url(#pf2a652420c)" d="M 416.466635 167.68493 
C 417.525855 167.68493 418.541834 167.364061 419.290815 166.79299 
C 420.039797 166.221919 420.460629 165.447272 420.460629 164.639656 
C 420.460629 163.83204 420.039797 163.057393 419.290815 162.486322 
C 418.541834 161.915251 417.525855 161.594382 416.466635 161.594382 
C 415.407415 161.594382 414.391436 161.915251 413.642455 162.486322 
C 412.893473 163.057393 412.472641 163.83204 412.472641 164.639656 
C 412.472641 165.447272 412.893473 166.221919 413.642455 166.79299 
C 414.391436 167.364061 415.407415 167.68493 416.466635 167.68493 
z
" style="fill:#008000;opacity:0.2;stroke:#008000;stroke-linejoin:miter;stroke-width:2;"/>
   </g>
   <g id="patch_24">
    <path clip-path="url(#pf2a652420c)" d="M 240.331491 306.853943 
C 244.568369 306.853943 248.632287 305.570466 251.628212 303.286183 
C 254.624138 301.0019 256.307467 297.903312 256.307467 294.672848 
C 256.307467 291.442384 254.624138 288.343796 251.628212 286.059513 
C 248.632287 283.77523 244.568369 282.491753 240.331491 282.491753 
C 236.094612 282.491753 232.030695 283.77523 229.034769 286.059513 
C 226.038844 288.343796 224.355514 291.442384 224.355514 294.672848 
C 224.355514 297.903312 226.038844 301.0019 229.034769 303.286183 
C 232.030695 305.570466 236.094612 306.853943 240.331491 306.853943 
z
" style="fill:none;opacity:0.2;stroke:#ff0000;stroke-linejoin:miter;stroke-width:2;"/>
   </g>
   <g id="patch_25">
    <path clip-path="url(#pf2a652420c)" d="M 246.721881 51.659997 
C 250.95876 51.659997 255.022677 50.37652 258.018603 48.092237 
C 261.014529 45.807954 262.697858 42.709366 262.697858 39.478902 
C 262.697858 36.248438 261.014529 33.14985 258.018603 30.865567 
C 255.022677 28.581284 250.95876 27.297807 246.721881 27.297807 
C 242.485003 27.297807 238.421085 28.581284 235.42516 30.865567 
C 232.429234 33.14985 230.745905 36.248438 230.745905 39.478902 
C 230.745905 42.709366 232.429234 45.807954 235.42516 48.092237 
C 238.421085 50.37652 242.485003 51.659997 246.721881 51.659997 
z
" style="fill:none;opacity:0.2;stroke:#0000ff;stroke-linejoin:miter;stroke-width:2;"/>
   </g>
   <g id="patch_26">
    <path clip-path="url(#pf2a652420c)" d="M 240.331491 300.763396 
C 242.44993 300.763396 244.481889 300.121657 245.979851 298.979515 
C 247.477814 297.837374 248.319479 296.28808 248.319479 294.672848 
C 248.319479 293.057616 247.477814 291.508322 245.979851 290.36618 
C 244.481889 289.224039 242.44993 288.5823 240.331491 288.5823 
C 238.213051 288.5823 236.181093 289.224039 234.68313 290.36618 
C 233.185167 291.508322 232.343502 293.057616 232.343502 294.672848 
C 232.343502 296.28808 233.185167 297.837374 234.68313 298.979515 
C 236.181093 300.121657 238.213051 300.763396 240.331491 300.763396 
z
" style="fill:none;opacity:0.2;stroke:#008000;stroke-linejoin:miter;stroke-width:2;"/>
   </g>
   <g id="patch_27">
    <path clip-path="url(#pf2a652420c)" d="M 240.331491 302.59056 
C 242.44993 302.59056 244.481889 301.948821 245.979851 300.80668 
C 247.477814 299.664538 248.319479 298.115244 248.319479 296.500012 
C 248.319479 294.88478 247.477814 293.335486 245.979851 292.193345 
C 244.481889 291.051203 242.44993 290.409465 240.331491 290.409465 
C 238.213051 290.409465 236.181093 291.051203 234.68313 292.193345 
C 233.185167 293.335486 232.343502 294.88478 232.343502 296.500012 
C 232.343502 298.115244 233.185167 299.664538 234.68313 300.80668 
C 236.181093 301.948821 238.213051 302.59056 240.331491 302.59056 
z
" style="fill:none;opacity:0.2;stroke:#008000;stroke-linejoin:miter;stroke-width:2;"/>
   </g>
   <g id="patch_28">
    <path d="M 240.331491 295.58643 
Q 154.660315 232.853789 68.989139 170.121149 
" style="fill:none;opacity:0.5;stroke:#008000;stroke-linecap:round;stroke-width:2;"/>
   </g>
   <g id="patch_29">
    <path d="M 240.331491 296.087061 
Q 240.331491 295.58643 240.331491 295.085799 
" style="fill:none;opacity:0.5;stroke:#800080;stroke-linecap:round;stroke-width:2;"/>
    <path d="M 238.831491 297.587061 
L 240.331491 296.087061 
L 241.831491 297.587061 
" style="fill:none;opacity:0.5;stroke:#800080;stroke-linecap:round;stroke-width:2;"/>
    <path d="M 241.831491 293.585799 
L 240.331491 295.085799 
L 238.831491 293.585799 
" style="fill:none;opacity:0.5;stroke:#800080;stroke-linecap:round;stroke-width:2;"/>
   </g>
   <g id="patch_30">
    <path d="M 68.989139 170.121149 
Q 157.456111 103.429652 245.923083 36.738156 
" style="fill:none;opacity:0.5;stroke:#008000;stroke-linecap:round;stroke-width:2;"/>
   </g>
   <g id="patch_31">
    <path d="M 62.804626 169.376602 
Q 67.997954 170.001821 73.191283 170.62704 
" style="fill:none;opacity:0.5;stroke:#800080;stroke-linecap:round;stroke-width:2;"/>
    <path d="M 64.114583 171.045137 
L 62.804626 169.376602 
L 64.473161 168.066644 
" style="fill:none;opacity:0.5;stroke:#800080;stroke-linecap:round;stroke-width:2;"/>
    <path d="M 71.881325 168.958505 
L 73.191283 170.62704 
L 71.522747 171.936998 
" style="fill:none;opacity:0.5;stroke:#800080;stroke-linecap:round;stroke-width:2;"/>
   </g>
   <g id="patch_32">
    <path d="M 245.923083 36.738156 
Q 331.194859 100.688906 416.466635 164.639656 
" style="fill:none;opacity:0.5;stroke:#008000;stroke-linecap:round;stroke-width:2;"/>
   </g>
   <g id="patch_33">
    <path d="M 245.519996 35.355132 
Q 245.643425 35.778627 245.766854 36.202121 
" style="fill:none;opacity:0.5;stroke:#800080;stroke-linecap:round;stroke-width:2;"/>
    <path d="M 244.49963 37.214931 
L 245.519996 35.355132 
L 247.379795 36.375498 
" style="fill:none;opacity:0.5;stroke:#800080;stroke-linecap:round;stroke-width:2;"/>
    <path d="M 246.78722 34.342322 
L 245.766854 36.202121 
L 243.907055 35.181755 
" style="fill:none;opacity:0.5;stroke:#800080;stroke-linecap:round;stroke-width:2;"/>
   </g>
   <g id="patch_34">
    <path d="M 416.466635 164.639656 
Q 328.399063 230.113043 240.331491 295.58643 
" style="fill:none;opacity:0.5;stroke:#008000;stroke-linecap:round;stroke-width:2;"/>
   </g>
   <g id="patch_35">
    <path d="M 422.651149 163.895109 
Q 417.45782 164.520328 412.264492 165.145547 
" style="fill:none;opacity:0.5;stroke:#800080;stroke-linecap:round;stroke-width:2;"/>
    <path d="M 420.982613 162.585151 
L 422.651149 163.895109 
L 421.341191 165.563644 
" style="fill:none;opacity:0.5;stroke:#800080;stroke-linecap:round;stroke-width:2;"/>
    <path d="M 413.933027 166.455505 
L 412.264492 165.145547 
L 413.57445 163.477012 
" style="fill:none;opacity:0.5;stroke:#800080;stroke-linecap:round;stroke-width:2;"/>
   </g>
   <g id="patch_36">
    <path clip-path="url(#pf2a652420c)" d="M 240.331491 63.232038 
C 240.755179 63.232038 241.16157 63.10369 241.461163 62.875262 
C 241.760755 62.646834 241.929088 62.336975 241.929088 62.013928 
C 241.929088 61.690882 241.760755 61.381023 241.461163 61.152595 
C 241.16157 60.924167 240.755179 60.795819 240.331491 60.795819 
C 239.907803 60.795819 239.501411 60.924167 239.201819 61.152595 
C 238.902226 61.381023 238.733893 61.690882 238.733893 62.013928 
C 238.733893 62.336975 238.902226 62.646834 239.201819 62.875262 
C 239.501411 63.10369 239.907803 63.232038 240.331491 63.232038 
z
" style="fill:#ff0000;opacity:0.2;stroke:#ff0000;stroke-linejoin:miter;stroke-width:2;"/>
   </g>
   <g id="patch_37">
    <path clip-path="url(#pf2a652420c)" d="M 309.028191 173.47095 
C 309.451879 173.47095 309.858271 173.342602 310.157863 173.114174 
C 310.457456 172.885746 310.625789 172.575887 310.625789 172.25284 
C 310.625789 171.929794 310.457456 171.619935 310.157863 171.391507 
C 309.858271 171.163079 309.451879 171.034731 309.028191 171.034731 
C 308.604503 171.034731 308.198111 171.163079 307.898519 171.391507 
C 307.598926 171.619935 307.430593 171.929794 307.430593 172.25284 
C 307.430593 172.575887 307.598926 172.885746 307.898519 173.114174 
C 308.198111 173.342602 308.604503 173.47095 309.028191 173.47095 
z
" style="fill:#ff0000;opacity:0.2;stroke:#ff0000;stroke-linejoin:miter;stroke-width:2;"/>
   </g>
   <g id="patch_38">
    <path clip-path="url(#pf2a652420c)" d="M 249.118278 267.874438 
C 249.541966 267.874438 249.948358 267.746091 250.24795 267.517662 
C 250.547543 267.289234 250.715876 266.979375 250.715876 266.656329 
C 250.715876 266.333282 250.547543 266.023424 250.24795 265.794995 
C 249.948358 265.566567 249.541966 265.438219 249.118278 265.438219 
C 248.69459 265.438219 248.288198 265.566567 247.988606 265.794995 
C 247.689013 266.023424 247.52068 266.333282 247.52068 266.656329 
C 247.52068 266.979375 247.689013 267.289234 247.988606 267.517662 
C 248.288198 267.746091 248.69459 267.874438 249.118278 267.874438 
z
" style="fill:#ff0000;opacity:0.2;stroke:#ff0000;stroke-linejoin:miter;stroke-width:2;"/>
   </g>
   <g id="patch_39">
    <path clip-path="url(#pf2a652420c)" d="M 176.427583 157.026471 
C 176.851271 157.026471 177.257663 156.898124 177.557256 156.669695 
C 177.856848 156.441267 178.025181 156.131408 178.025181 155.808362 
C 178.025181 155.485315 177.856848 155.175457 177.557256 154.947028 
C 177.257663 154.7186 176.851271 154.590252 176.427583 154.590252 
C 176.003896 154.590252 175.597504 154.7186 175.297911 154.947028 
C 174.998319 155.175457 174.829986 155.485315 174.829986 155.808362 
C 174.829986 156.131408 174.998319 156.441267 175.297911 156.669695 
C 175.597504 156.898124 176.003896 157.026471 176.427583 157.026471 
z
" style="fill:#ff0000;opacity:0.2;stroke:#ff0000;stroke-linejoin:miter;stroke-width:2;"/>
   </g>
   <g id="patch_40">
    <path clip-path="url(#pf2a652420c)" d="M 340.181346 176.516224 
C 340.605034 176.516224 341.011425 176.387876 341.311018 176.159448 
C 341.61061 175.931019 341.778943 175.621161 341.778943 175.298114 
C 341.778943 174.975068 341.61061 174.665209 341.311018 174.436781 
C 341.011425 174.208352 340.605034 174.080005 340.181346 174.080005 
C 339.757658 174.080005 339.351266 174.208352 339.051674 174.436781 
C 338.752081 174.665209 338.583748 174.975068 338.583748 175.298114 
C 338.583748 175.621161 338.752081 175.931019 339.051674 176.159448 
C 339.351266 176.387876 339.757658 176.516224 340.181346 176.516224 
z
" style="fill:#0000ff;opacity:0.2;stroke:#0000ff;stroke-linejoin:miter;stroke-width:2;"/>
   </g>
   <g id="patch_41">
    <path clip-path="url(#pf2a652420c)" d="M 248.319479 279.446479 
C 248.743167 279.446479 249.149559 279.318131 249.449151 279.089703 
C 249.748744 278.861274 249.917077 278.551416 249.917077 278.228369 
C 249.917077 277.905323 249.748744 277.595464 249.449151 277.367036 
C 249.149559 277.138607 248.743167 277.01026 248.319479 277.01026 
C 247.895791 277.01026 247.489399 277.138607 247.189807 277.367036 
C 246.890214 277.595464 246.721881 277.905323 246.721881 278.228369 
C 246.721881 278.551416 246.890214 278.861274 247.189807 279.089703 
C 247.489399 279.318131 247.895791 279.446479 248.319479 279.446479 
z
" style="fill:#0000ff;opacity:0.2;stroke:#0000ff;stroke-linejoin:miter;stroke-width:2;"/>
   </g>
   <g id="patch_42">
    <path clip-path="url(#pf2a652420c)" d="M 145.274429 164.335129 
C 145.698117 164.335129 146.104508 164.206781 146.404101 163.978353 
C 146.703693 163.749924 146.872026 163.440065 146.872026 163.117019 
C 146.872026 162.793973 146.703693 162.484114 146.404101 162.255686 
C 146.104508 162.027257 145.698117 161.89891 145.274429 161.89891 
C 144.850741 161.89891 144.444349 162.027257 144.144757 162.255686 
C 143.845164 162.484114 143.676831 162.793973 143.676831 163.117019 
C 143.676831 163.440065 143.845164 163.749924 144.144757 163.978353 
C 144.444349 164.206781 144.850741 164.335129 145.274429 164.335129 
z
" style="fill:#0000ff;opacity:0.2;stroke:#0000ff;stroke-linejoin:miter;stroke-width:2;"/>
   </g>
   <g id="patch_43">
    <path clip-path="url(#pf2a652420c)" d="M 237.136295 58.968655 
C 237.559983 58.968655 237.966375 58.840307 238.265967 58.611878 
C 238.56556 58.38345 238.733893 58.073591 238.733893 57.750545 
C 238.733893 57.427499 238.56556 57.11764 238.265967 56.889211 
C 237.966375 56.660783 237.559983 56.532435 237.136295 56.532435 
C 236.712607 56.532435 236.306216 56.660783 236.006623 56.889211 
C 235.707031 57.11764 235.538698 57.427499 235.538698 57.750545 
C 235.538698 58.073591 235.707031 58.38345 236.006623 58.611878 
C 236.306216 58.840307 236.712607 58.968655 237.136295 58.968655 
z
" style="fill:#0000ff;opacity:0.2;stroke:#0000ff;stroke-linejoin:miter;stroke-width:2;"/>
   </g>
   <g id="patch_44">
    <path clip-path="url(#pf2a652420c)" d="M 240.331491 62.013928 
C 285.863025 62.013928 308.229392 113.174528 309.028191 172.25284 
C 309.82699 227.067769 294.649812 266.656329 249.118278 266.656329 
C 202.787945 266.656329 176.427583 219.759112 176.427583 155.808362 
C 176.427583 89.421393 205.184342 62.013928 240.331491 62.013928 
" style="fill:none;stroke:#ff0000;stroke-linejoin:miter;stroke-width:0.5;"/>
   </g>
   <g id="patch_45">
    <path clip-path="url(#pf2a652420c)" d="M 340.181346 175.298114 
C 340.181346 222.195331 318.613777 278.228369 248.319479 278.228369 
C 178.025181 278.228369 145.274429 218.541003 145.274429 163.117019 
C 145.274429 96.120995 184.415572 57.750545 237.136295 57.750545 
C 313.022185 57.750545 340.181346 123.528459 340.181346 175.298114 
" style="fill:none;stroke:#0000ff;stroke-linejoin:miter;stroke-width:0.5;"/>
   </g>
   <g id="[&quot;g_s&quot;:1,&quot;g_t&quot;:4,&quot;coords&quot;:[[305.0, -332.0],[301.0, -325.0]],&quot;certainty&quot;:11]">
    <path clip-path="url(#pf2a652420c)" d="M 240.331491 65.668257 
C 241.602554 65.668257 242.821729 65.283214 243.720507 64.597929 
C 244.619285 63.912644 245.124284 62.983068 245.124284 62.013928 
C 245.124284 61.044789 244.619285 60.115213 243.720507 59.429928 
C 242.821729 58.744643 241.602554 58.3596 240.331491 58.3596 
C 239.060427 58.3596 237.841252 58.744643 236.942474 59.429928 
C 236.043697 60.115213 235.538698 61.044789 235.538698 62.013928 
C 235.538698 62.983068 236.043697 63.912644 236.942474 64.597929 
C 237.841252 65.283214 239.060427 65.668257 240.331491 65.668257 
z
" style="fill:#0000ff;opacity:0.2;stroke:#0000ff;stroke-linejoin:miter;stroke-width:2;"/>
   </g>
   <g id="[&quot;g_s&quot;:4,&quot;g_t&quot;:1,&quot;coords&quot;:[[301.0, -325.0],[305.0, -332.0]],&quot;certainty&quot;:11]">
    <path clip-path="url(#pf2a652420c)" d="M 237.136295 61.404874 
C 238.407359 61.404874 239.626534 61.01983 240.525312 60.334546 
C 241.424089 59.649261 241.929088 58.719684 241.929088 57.750545 
C 241.929088 56.781406 241.424089 55.851829 240.525312 55.166544 
C 239.626534 54.48126 238.407359 54.096216 237.136295 54.096216 
C 235.865232 54.096216 234.646057 54.48126 233.747279 55.166544 
C 232.848501 55.851829 232.343502 56.781406 232.343502 57.750545 
C 232.343502 58.719684 232.848501 59.649261 233.747279 60.334546 
C 234.646057 61.01983 235.865232 61.404874 237.136295 61.404874 
z
" style="fill:#ff0000;opacity:0.2;stroke:#ff0000;stroke-linejoin:miter;stroke-width:2;"/>
   </g>
   <g id="patch_46">
    <path d="M 240.331491 62.013928 
Q 239.333772 60.682662 239.608249 61.048899 
" style="fill:none;opacity:0.5;stroke:#0000ff;stroke-linecap:round;stroke-width:3;"/>
    <path d="M 239.307511 63.148794 
L 239.608249 61.048899 
L 241.708143 61.349638 
" style="fill:none;opacity:0.5;stroke:#0000ff;stroke-linecap:round;stroke-width:3;"/>
   </g>
   <g id="[&quot;g_s&quot;:2,&quot;g_t&quot;:1,&quot;coords&quot;:[[391.0, -513.0],[430.0, -518.0]],&quot;certainty&quot;:11]">
    <path clip-path="url(#pf2a652420c)" d="M 309.028191 175.907169 
C 310.299255 175.907169 311.51843 175.522126 312.417207 174.836841 
C 313.315985 174.151556 313.820984 173.22198 313.820984 172.25284 
C 313.820984 171.283701 313.315985 170.354125 312.417207 169.66884 
C 311.51843 168.983555 310.299255 168.598512 309.028191 168.598512 
C 307.757127 168.598512 306.537952 168.983555 305.639175 169.66884 
C 304.740397 170.354125 304.235398 171.283701 304.235398 172.25284 
C 304.235398 173.22198 304.740397 174.151556 305.639175 174.836841 
C 306.537952 175.522126 307.757127 175.907169 309.028191 175.907169 
z
" style="fill:#0000ff;opacity:0.2;stroke:#0000ff;stroke-linejoin:miter;stroke-width:2;"/>
   </g>
   <g id="[&quot;g_s&quot;:1,&quot;g_t&quot;:2,&quot;coords&quot;:[[430.0, -518.0],[391.0, -513.0]],&quot;certainty&quot;:11]">
    <path clip-path="url(#pf2a652420c)" d="M 340.181346 178.952443 
C 341.452409 178.952443 342.671585 178.5674 343.570362 177.882115 
C 344.46914 177.19683 344.974139 176.267254 344.974139 175.298114 
C 344.974139 174.328975 344.46914 173.399399 343.570362 172.714114 
C 342.671585 172.028829 341.452409 171.643786 340.181346 171.643786 
C 338.910282 171.643786 337.691107 172.028829 336.792329 172.714114 
C 335.893552 173.399399 335.388553 174.328975 335.388553 175.298114 
C 335.388553 176.267254 335.893552 177.19683 336.792329 177.882115 
C 337.691107 178.5674 338.910282 178.952443 340.181346 178.952443 
z
" style="fill:#ff0000;opacity:0.2;stroke:#ff0000;stroke-linejoin:miter;stroke-width:2;"/>
   </g>
   <g id="patch_47">
    <path d="M 309.028191 172.25284 
Q 323.610316 173.678268 336.081185 174.897317 
" style="fill:none;opacity:0.5;stroke:#0000ff;stroke-linecap:round;stroke-width:3;"/>
    <path d="M 334.734232 173.2585 
L 336.081185 174.897317 
L 334.442368 176.244269 
" style="fill:none;opacity:0.5;stroke:#0000ff;stroke-linecap:round;stroke-width:3;"/>
   </g>
   <g id="[&quot;g_s&quot;:3,&quot;g_t&quot;:2,&quot;coords&quot;:[[316.0, -668.0],[315.0, -687.0]],&quot;certainty&quot;:10]">
    <path clip-path="url(#pf2a652420c)" d="M 249.118278 270.00613 
C 250.28342 270.00613 251.400997 269.653174 252.224876 269.024996 
C 253.048756 268.396818 253.511672 267.544706 253.511672 266.656329 
C 253.511672 265.767951 253.048756 264.91584 252.224876 264.287662 
C 251.400997 263.659484 250.28342 263.306528 249.118278 263.306528 
C 247.953136 263.306528 246.835559 263.659484 246.01168 264.287662 
C 245.1878 264.91584 244.724884 265.767951 244.724884 266.656329 
C 244.724884 267.544706 245.1878 268.396818 246.01168 269.024996 
C 246.835559 269.653174 247.953136 270.00613 249.118278 270.00613 
z
" style="fill:#0000ff;opacity:0.2;stroke:#0000ff;stroke-linejoin:miter;stroke-width:2;"/>
   </g>
   <g id="[&quot;g_s&quot;:2,&quot;g_t&quot;:3,&quot;coords&quot;:[[315.0, -687.0],[316.0, -668.0]],&quot;certainty&quot;:10]">
    <path clip-path="url(#pf2a652420c)" d="M 248.319479 281.578171 
C 249.484621 281.578171 250.602198 281.225214 251.426078 280.597036 
C 252.249957 279.968859 252.712873 279.116747 252.712873 278.228369 
C 252.712873 277.339992 252.249957 276.48788 251.426078 275.859702 
C 250.602198 275.231524 249.484621 274.878568 248.319479 274.878568 
C 247.154337 274.878568 246.03676 275.231524 245.212881 275.859702 
C 244.389001 276.48788 243.926085 277.339992 243.926085 278.228369 
C 243.926085 279.116747 244.389001 279.968859 245.212881 280.597036 
C 246.03676 281.225214 247.154337 281.578171 248.319479 281.578171 
z
" style="fill:#ff0000;opacity:0.2;stroke:#ff0000;stroke-linejoin:miter;stroke-width:2;"/>
   </g>
   <g id="patch_48">
    <path d="M 249.118278 266.656329 
Q 248.787818 271.443639 248.591268 274.291022 
" style="fill:none;opacity:0.5;stroke:#0000ff;stroke-linecap:round;stroke-width:2.75;"/>
    <path d="M 250.191003 272.89788 
L 248.591268 274.291022 
L 247.198125 272.691286 
" style="fill:none;opacity:0.5;stroke:#0000ff;stroke-linecap:round;stroke-width:2.75;"/>
   </g>
   <g id="[&quot;g_s&quot;:4,&quot;g_t&quot;:3,&quot;coords&quot;:[[225.0, -486.0],[186.0, -498.0]],&quot;certainty&quot;:12]">
    <path clip-path="url(#pf2a652420c)" d="M 176.427583 159.767218 
C 177.804569 159.767218 179.125342 159.350088 180.099018 158.607696 
C 181.072694 157.865304 181.619776 156.858263 181.619776 155.808362 
C 181.619776 154.758461 181.072694 153.75142 180.099018 153.009028 
C 179.125342 152.266636 177.804569 151.849506 176.427583 151.849506 
C 175.050598 151.849506 173.729825 152.266636 172.756149 153.009028 
C 171.782473 153.75142 171.235391 154.758461 171.235391 155.808362 
C 171.235391 156.858263 171.782473 157.865304 172.756149 158.607696 
C 173.729825 159.350088 175.050598 159.767218 176.427583 159.767218 
z
" style="fill:#0000ff;opacity:0.2;stroke:#0000ff;stroke-linejoin:miter;stroke-width:2;"/>
   </g>
   <g id="[&quot;g_s&quot;:3,&quot;g_t&quot;:4,&quot;coords&quot;:[[186.0, -498.0],[225.0, -486.0]],&quot;certainty&quot;:12]">
    <path clip-path="url(#pf2a652420c)" d="M 145.274429 167.075875 
C 146.651414 167.075875 147.972187 166.658745 148.945863 165.916353 
C 149.919539 165.173961 150.466621 164.16692 150.466621 163.117019 
C 150.466621 162.067118 149.919539 161.060077 148.945863 160.317685 
C 147.972187 159.575293 146.651414 159.158163 145.274429 159.158163 
C 143.897443 159.158163 142.57667 159.575293 141.602994 160.317685 
C 140.629318 161.060077 140.082236 162.067118 140.082236 163.117019 
C 140.082236 164.16692 140.629318 165.173961 141.602994 165.916353 
C 142.57667 166.658745 143.897443 167.075875 145.274429 167.075875 
z
" style="fill:#ff0000;opacity:0.2;stroke:#ff0000;stroke-linejoin:miter;stroke-width:2;"/>
   </g>
   <g id="patch_49">
    <path d="M 176.427583 155.808362 
Q 161.826444 159.233849 149.462655 162.134444 
" style="fill:none;opacity:0.5;stroke:#0000ff;stroke-linecap:round;stroke-width:3.25;"/>
    <path d="M 151.265609 163.25219 
L 149.462655 162.134444 
L 150.580401 160.33149 
" style="fill:none;opacity:0.5;stroke:#0000ff;stroke-linecap:round;stroke-width:3.25;"/>
   </g>
   <g id="[&quot;g_s&quot;:1,&quot;g_t&quot;:2,&quot;coords&quot;:[[430.0, -518.0],[391.0, -513.0]],&quot;certainty&quot;:11]">
    <path clip-path="url(#pf2a652420c)" d="M 340.181346 178.952443 
C 341.452409 178.952443 342.671585 178.5674 343.570362 177.882115 
C 344.46914 177.19683 344.974139 176.267254 344.974139 175.298114 
C 344.974139 174.328975 344.46914 173.399399 343.570362 172.714114 
C 342.671585 172.028829 341.452409 171.643786 340.181346 171.643786 
C 338.910282 171.643786 337.691107 172.028829 336.792329 172.714114 
C 335.893552 173.399399 335.388553 174.328975 335.388553 175.298114 
C 335.388553 176.267254 335.893552 177.19683 336.792329 177.882115 
C 337.691107 178.5674 338.910282 178.952443 340.181346 178.952443 
z
" style="fill:#0000ff;opacity:0.2;stroke:#0000ff;stroke-linejoin:miter;stroke-width:2;"/>
   </g>
   <g id="[&quot;g_s&quot;:2,&quot;g_t&quot;:1,&quot;coords&quot;:[[391.0, -513.0],[430.0, -518.0]],&quot;certainty&quot;:11]">
    <path clip-path="url(#pf2a652420c)" d="M 309.028191 175.907169 
C 310.299255 175.907169 311.51843 175.522126 312.417207 174.836841 
C 313.315985 174.151556 313.820984 173.22198 313.820984 172.25284 
C 313.820984 171.283701 313.315985 170.354125 312.417207 169.66884 
C 311.51843 168.983555 310.299255 168.598512 309.028191 168.598512 
C 307.757127 168.598512 306.537952 168.983555 305.639175 169.66884 
C 304.740397 170.354125 304.235398 171.283701 304.235398 172.25284 
C 304.235398 173.22198 304.740397 174.151556 305.639175 174.836841 
C 306.537952 175.522126 307.757127 175.907169 309.028191 175.907169 
z
" style="fill:#ff0000;opacity:0.2;stroke:#ff0000;stroke-linejoin:miter;stroke-width:2;"/>
   </g>
   <g id="patch_50">
    <path d="M 340.181346 175.298114 
Q 325.59922 173.872687 313.128352 172.653638 
" style="fill:none;opacity:0.5;stroke:#ff0000;stroke-linecap:round;stroke-width:3;"/>
    <path d="M 314.475305 174.292455 
L 313.128352 172.653638 
L 314.767169 171.306686 
" style="fill:none;opacity:0.5;stroke:#ff0000;stroke-linecap:round;stroke-width:3;"/>
   </g>
   <g id="[&quot;g_s&quot;:2,&quot;g_t&quot;:3,&quot;coords&quot;:[[315.0, -687.0],[316.0, -668.0]],&quot;certainty&quot;:10]">
    <path clip-path="url(#pf2a652420c)" d="M 248.319479 281.578171 
C 249.484621 281.578171 250.602198 281.225214 251.426078 280.597036 
C 252.249957 279.968859 252.712873 279.116747 252.712873 278.228369 
C 252.712873 277.339992 252.249957 276.48788 251.426078 275.859702 
C 250.602198 275.231524 249.484621 274.878568 248.319479 274.878568 
C 247.154337 274.878568 246.03676 275.231524 245.212881 275.859702 
C 244.389001 276.48788 243.926085 277.339992 243.926085 278.228369 
C 243.926085 279.116747 244.389001 279.968859 245.212881 280.597036 
C 246.03676 281.225214 247.154337 281.578171 248.319479 281.578171 
z
" style="fill:#0000ff;opacity:0.2;stroke:#0000ff;stroke-linejoin:miter;stroke-width:2;"/>
   </g>
   <g id="[&quot;g_s&quot;:3,&quot;g_t&quot;:2,&quot;coords&quot;:[[316.0, -668.0],[315.0, -687.0]],&quot;certainty&quot;:10]">
    <path clip-path="url(#pf2a652420c)" d="M 249.118278 270.00613 
C 250.28342 270.00613 251.400997 269.653174 252.224876 269.024996 
C 253.048756 268.396818 253.511672 267.544706 253.511672 266.656329 
C 253.511672 265.767951 253.048756 264.91584 252.224876 264.287662 
C 251.400997 263.659484 250.28342 263.306528 249.118278 263.306528 
C 247.953136 263.306528 246.835559 263.659484 246.01168 264.287662 
C 245.1878 264.91584 244.724884 265.767951 244.724884 266.656329 
C 244.724884 267.544706 245.1878 268.396818 246.01168 269.024996 
C 246.835559 269.653174 247.953136 270.00613 249.118278 270.00613 
z
" style="fill:#ff0000;opacity:0.2;stroke:#ff0000;stroke-linejoin:miter;stroke-width:2;"/>
   </g>
   <g id="patch_51">
    <path d="M 248.319479 278.228369 
Q 248.649939 273.441059 248.846489 270.593676 
" style="fill:none;opacity:0.5;stroke:#ff0000;stroke-linecap:round;stroke-width:2.75;"/>
    <path d="M 247.246754 271.986819 
L 248.846489 270.593676 
L 250.239632 272.193412 
" style="fill:none;opacity:0.5;stroke:#ff0000;stroke-linecap:round;stroke-width:2.75;"/>
   </g>
   <g id="[&quot;g_s&quot;:3,&quot;g_t&quot;:4,&quot;coords&quot;:[[186.0, -498.0],[225.0, -486.0]],&quot;certainty&quot;:12]">
    <path clip-path="url(#pf2a652420c)" d="M 145.274429 167.075875 
C 146.651414 167.075875 147.972187 166.658745 148.945863 165.916353 
C 149.919539 165.173961 150.466621 164.16692 150.466621 163.117019 
C 150.466621 162.067118 149.919539 161.060077 148.945863 160.317685 
C 147.972187 159.575293 146.651414 159.158163 145.274429 159.158163 
C 143.897443 159.158163 142.57667 159.575293 141.602994 160.317685 
C 140.629318 161.060077 140.082236 162.067118 140.082236 163.117019 
C 140.082236 164.16692 140.629318 165.173961 141.602994 165.916353 
C 142.57667 166.658745 143.897443 167.075875 145.274429 167.075875 
z
" style="fill:#0000ff;opacity:0.2;stroke:#0000ff;stroke-linejoin:miter;stroke-width:2;"/>
   </g>
   <g id="[&quot;g_s&quot;:4,&quot;g_t&quot;:3,&quot;coords&quot;:[[225.0, -486.0],[186.0, -498.0]],&quot;certainty&quot;:12]">
    <path clip-path="url(#pf2a652420c)" d="M 176.427583 159.767218 
C 177.804569 159.767218 179.125342 159.350088 180.099018 158.607696 
C 181.072694 157.865304 181.619776 156.858263 181.619776 155.808362 
C 181.619776 154.758461 181.072694 153.75142 180.099018 153.009028 
C 179.125342 152.266636 177.804569 151.849506 176.427583 151.849506 
C 175.050598 151.849506 173.729825 152.266636 172.756149 153.009028 
C 171.782473 153.75142 171.235391 154.758461 171.235391 155.808362 
C 171.235391 156.858263 171.782473 157.865304 172.756149 158.607696 
C 173.729825 159.350088 175.050598 159.767218 176.427583 159.767218 
z
" style="fill:#ff0000;opacity:0.2;stroke:#ff0000;stroke-linejoin:miter;stroke-width:2;"/>
   </g>
   <g id="patch_52">
    <path d="M 145.274429 163.117019 
Q 159.875569 159.691532 172.239358 156.790937 
" style="fill:none;opacity:0.5;stroke:#ff0000;stroke-linecap:round;stroke-width:3.25;"/>
    <path d="M 170.436403 155.673191 
L 172.239358 156.790937 
L 171.121612 158.593891 
" style="fill:none;opacity:0.5;stroke:#ff0000;stroke-linecap:round;stroke-width:3.25;"/>
   </g>
   <g id="[&quot;g_s&quot;:4,&quot;g_t&quot;:1,&quot;coords&quot;:[[301.0, -325.0],[305.0, -332.0]],&quot;certainty&quot;:11]">
    <path clip-path="url(#pf2a652420c)" d="M 237.136295 61.404874 
C 238.407359 61.404874 239.626534 61.01983 240.525312 60.334546 
C 241.424089 59.649261 241.929088 58.719684 241.929088 57.750545 
C 241.929088 56.781406 241.424089 55.851829 240.525312 55.166544 
C 239.626534 54.48126 238.407359 54.096216 237.136295 54.096216 
C 235.865232 54.096216 234.646057 54.48126 233.747279 55.166544 
C 232.848501 55.851829 232.343502 56.781406 232.343502 57.750545 
C 232.343502 58.719684 232.848501 59.649261 233.747279 60.334546 
C 234.646057 61.01983 235.865232 61.404874 237.136295 61.404874 
z
" style="fill:#0000ff;opacity:0.2;stroke:#0000ff;stroke-linejoin:miter;stroke-width:2;"/>
   </g>
   <g id="[&quot;g_s&quot;:1,&quot;g_t&quot;:4,&quot;coords&quot;:[[305.0, -332.0],[301.0, -325.0]],&quot;certainty&quot;:11]">
    <path clip-path="url(#pf2a652420c)" d="M 240.331491 65.668257 
C 241.602554 65.668257 242.821729 65.283214 243.720507 64.597929 
C 244.619285 63.912644 245.124284 62.983068 245.124284 62.013928 
C 245.124284 61.044789 244.619285 60.115213 243.720507 59.429928 
C 242.821729 58.744643 241.602554 58.3596 240.331491 58.3596 
C 239.060427 58.3596 237.841252 58.744643 236.942474 59.429928 
C 236.043697 60.115213 235.538698 61.044789 235.538698 62.013928 
C 235.538698 62.983068 236.043697 63.912644 236.942474 64.597929 
C 237.841252 65.283214 239.060427 65.668257 240.331491 65.668257 
z
" style="fill:#ff0000;opacity:0.2;stroke:#ff0000;stroke-linejoin:miter;stroke-width:2;"/>
   </g>
   <g id="patch_53">
    <path d="M 237.136295 57.750545 
Q 238.134014 59.081811 237.859537 58.715574 
" style="fill:none;opacity:0.5;stroke:#ff0000;stroke-linecap:round;stroke-width:3;"/>
    <path d="M 238.160275 56.61568 
L 237.859537 58.715574 
L 235.759643 58.414836 
" style="fill:none;opacity:0.5;stroke:#ff0000;stroke-linecap:round;stroke-width:3;"/>
   </g>
   <g id="patch_54">
    <path clip-path="url(#pf2a652420c)" d="M 238.733893 62.92751 
C 239.793113 62.92751 240.809092 62.606641 241.558073 62.03557 
C 242.307055 61.4645 242.727887 60.689853 242.727887 59.882237 
C 242.727887 59.074621 242.307055 58.299974 241.558073 57.728903 
C 240.809092 57.157832 239.793113 56.836963 238.733893 56.836963 
C 237.674673 56.836963 236.658694 57.157832 235.909713 57.728903 
C 235.160731 58.299974 234.739899 59.074621 234.739899 59.882237 
C 234.739899 60.689853 235.160731 61.4645 235.909713 62.03557 
C 236.658694 62.606641 237.674673 62.92751 238.733893 62.92751 
z
" style="fill:#008000;opacity:0.2;stroke:#008000;stroke-linejoin:miter;stroke-width:2;"/>
   </g>
   <g id="patch_55">
    <path clip-path="url(#pf2a652420c)" d="M 324.604768 176.820751 
C 325.663988 176.820751 326.679967 176.499882 327.428949 175.928811 
C 328.17793 175.35774 328.598763 174.583093 328.598763 173.775477 
C 328.598763 172.967861 328.17793 172.193214 327.428949 171.622144 
C 326.679967 171.051073 325.663988 170.730204 324.604768 170.730204 
C 323.545549 170.730204 322.529569 171.051073 321.780588 171.622144 
C 321.031607 172.193214 320.610774 172.967861 320.610774 173.775477 
C 320.610774 174.583093 321.031607 175.35774 321.780588 175.928811 
C 322.529569 176.499882 323.545549 176.820751 324.604768 176.820751 
z
" style="fill:#008000;opacity:0.2;stroke:#008000;stroke-linejoin:miter;stroke-width:2;"/>
   </g>
   <g id="patch_56">
    <path clip-path="url(#pf2a652420c)" d="M 248.718879 275.487623 
C 249.778098 275.487623 250.794078 275.166754 251.543059 274.595683 
C 252.29204 274.024612 252.712873 273.249965 252.712873 272.442349 
C 252.712873 271.634733 252.29204 270.860086 251.543059 270.289015 
C 250.794078 269.717944 249.778098 269.397075 248.718879 269.397075 
C 247.659659 269.397075 246.64368 269.717944 245.894698 270.289015 
C 245.145717 270.860086 244.724884 271.634733 244.724884 272.442349 
C 244.724884 273.249965 245.145717 274.024612 245.894698 274.595683 
C 246.64368 275.166754 247.659659 275.487623 248.718879 275.487623 
z
" style="fill:#008000;opacity:0.2;stroke:#008000;stroke-linejoin:miter;stroke-width:2;"/>
   </g>
   <g id="patch_57">
    <path clip-path="url(#pf2a652420c)" d="M 160.851006 162.507964 
C 161.910226 162.507964 162.926205 162.187095 163.675186 161.616024 
C 164.424168 161.044953 164.845 160.270307 164.845 159.46269 
C 164.845 158.655074 164.424168 157.880427 163.675186 157.309357 
C 162.926205 156.738286 161.910226 156.417417 160.851006 156.417417 
C 159.791786 156.417417 158.775807 156.738286 158.026826 157.309357 
C 157.277844 157.880427 156.857012 158.655074 156.857012 159.46269 
C 156.857012 160.270307 157.277844 161.044953 158.026826 161.616024 
C 158.775807 162.187095 159.791786 162.507964 160.851006 162.507964 
z
" style="fill:#008000;opacity:0.2;stroke:#008000;stroke-linejoin:miter;stroke-width:2;"/>
   </g>
   <g id="patch_58">
    <path clip-path="url(#pf2a652420c)" d="M 240.331491 74.195024 
C 244.568369 74.195024 248.632287 72.911547 251.628212 70.627263 
C 254.624138 68.34298 256.307467 65.244393 256.307467 62.013928 
C 256.307467 58.783464 254.624138 55.684876 251.628212 53.400593 
C 248.632287 51.11631 244.568369 49.832833 240.331491 49.832833 
C 236.094612 49.832833 232.030695 51.11631 229.034769 53.400593 
C 226.038844 55.684876 224.355514 58.783464 224.355514 62.013928 
C 224.355514 65.244393 226.038844 68.34298 229.034769 70.627263 
C 232.030695 72.911547 236.094612 74.195024 240.331491 74.195024 
z
" style="fill:none;opacity:0.2;stroke:#ff0000;stroke-linejoin:miter;stroke-width:2;"/>
   </g>
   <g id="patch_59">
    <path clip-path="url(#pf2a652420c)" d="M 340.181346 187.47921 
C 344.418224 187.47921 348.482142 186.195733 351.478067 183.911449 
C 354.473993 181.627166 356.157323 178.528579 356.157323 175.298114 
C 356.157323 172.06765 354.473993 168.969062 351.478067 166.684779 
C 348.482142 164.400496 344.418224 163.117019 340.181346 163.117019 
C 335.944467 163.117019 331.88055 164.400496 328.884624 166.684779 
C 325.888699 168.969062 324.205369 172.06765 324.205369 175.298114 
C 324.205369 178.528579 325.888699 181.627166 328.884624 183.911449 
C 331.88055 186.195733 335.944467 187.47921 340.181346 187.47921 
z
" style="fill:none;opacity:0.2;stroke:#0000ff;stroke-linejoin:miter;stroke-width:2;"/>
   </g>
   <g id="patch_60">
    <path clip-path="url(#pf2a652420c)" d="M 240.331491 68.104476 
C 242.44993 68.104476 244.481889 67.462737 245.979851 66.320596 
C 247.477814 65.178454 248.319479 63.62916 248.319479 62.013928 
C 248.319479 60.398696 247.477814 58.849402 245.979851 57.707261 
C 244.481889 56.565119 242.44993 55.923381 240.331491 55.923381 
C 238.213051 55.923381 236.181093 56.565119 234.68313 57.707261 
C 233.185167 58.849402 232.343502 60.398696 232.343502 62.013928 
C 232.343502 63.62916 233.185167 65.178454 234.68313 66.320596 
C 236.181093 67.462737 238.213051 68.104476 240.331491 68.104476 
z
" style="fill:none;opacity:0.2;stroke:#008000;stroke-linejoin:miter;stroke-width:2;"/>
   </g>
   <g id="patch_61">
    <path clip-path="url(#pf2a652420c)" d="M 237.136295 63.841093 
C 239.254735 63.841093 241.286693 63.199354 242.784656 62.057213 
C 244.282619 60.915071 245.124284 59.365777 245.124284 57.750545 
C 245.124284 56.135313 244.282619 54.586019 242.784656 53.443877 
C 241.286693 52.301736 239.254735 51.659997 237.136295 51.659997 
C 235.017856 51.659997 232.985897 52.301736 231.487935 53.443877 
C 229.989972 54.586019 229.148307 56.135313 229.148307 57.750545 
C 229.148307 59.365777 229.989972 60.915071 231.487935 62.057213 
C 232.985897 63.199354 235.017856 63.841093 237.136295 63.841093 
z
" style="fill:none;opacity:0.2;stroke:#008000;stroke-linejoin:miter;stroke-width:2;"/>
   </g>
   <g id="patch_62">
    <path d="M 238.733893 59.882237 
Q 281.669331 116.828857 324.604768 173.775477 
" style="fill:none;opacity:0.5;stroke:#008000;stroke-linecap:round;stroke-width:2;"/>
   </g>
   <g id="patch_63">
    <path d="M 239.48336 60.882259 
Q 239.333772 60.682662 239.184184 60.483065 
" style="fill:none;opacity:0.5;stroke:#800080;stroke-linecap:round;stroke-width:2;"/>
    <path d="M 239.784099 58.782365 
L 239.48336 60.882259 
L 237.383466 60.581521 
" style="fill:none;opacity:0.5;stroke:#800080;stroke-linecap:round;stroke-width:2;"/>
    <path d="M 238.883445 62.582959 
L 239.184184 60.483065 
L 241.284078 60.783803 
" style="fill:none;opacity:0.5;stroke:#800080;stroke-linecap:round;stroke-width:2;"/>
   </g>
   <g id="patch_64">
    <path d="M 324.604768 173.775477 
Q 286.661823 223.108913 248.718879 272.442349 
" style="fill:none;opacity:0.5;stroke:#008000;stroke-linecap:round;stroke-width:2;"/>
   </g>
   <g id="patch_65">
    <path d="M 310.435696 172.390426 
Q 323.610316 173.678268 336.784937 174.96611 
" style="fill:none;opacity:0.5;stroke:#800080;stroke-linecap:round;stroke-width:2;"/>
    <path d="M 311.782648 174.029243 
L 310.435696 172.390426 
L 312.074512 171.043474 
" style="fill:none;opacity:0.5;stroke:#800080;stroke-linecap:round;stroke-width:2;"/>
    <path d="M 335.437985 173.327293 
L 336.784937 174.96611 
L 335.146121 176.313062 
" style="fill:none;opacity:0.5;stroke:#800080;stroke-linecap:round;stroke-width:2;"/>
   </g>
   <g id="patch_66">
    <path d="M 248.718879 272.442349 
Q 204.784942 215.95252 160.851006 159.46269 
" style="fill:none;opacity:0.5;stroke:#008000;stroke-linecap:round;stroke-width:2;"/>
   </g>
   <g id="patch_67">
    <path d="M 249.020889 268.067185 
Q 248.787818 271.443639 248.554747 274.820093 
" style="fill:none;opacity:0.5;stroke:#800080;stroke-linecap:round;stroke-width:2;"/>
    <path d="M 247.421153 269.460327 
L 249.020889 268.067185 
L 250.414031 269.666921 
" style="fill:none;opacity:0.5;stroke:#800080;stroke-linecap:round;stroke-width:2;"/>
    <path d="M 250.154483 273.426951 
L 248.554747 274.820093 
L 247.161604 273.220357 
" style="fill:none;opacity:0.5;stroke:#800080;stroke-linecap:round;stroke-width:2;"/>
   </g>
   <g id="patch_68">
    <path d="M 160.851006 159.46269 
Q 199.79245 109.672464 238.733893 59.882237 
" style="fill:none;opacity:0.5;stroke:#008000;stroke-linecap:round;stroke-width:2;"/>
   </g>
   <g id="patch_69">
    <path d="M 175.050752 156.131372 
Q 161.826444 159.233849 148.602135 162.336326 
" style="fill:none;opacity:0.5;stroke:#800080;stroke-linecap:round;stroke-width:2;"/>
    <path d="M 173.247798 155.013626 
L 175.050752 156.131372 
L 173.933006 157.934326 
" style="fill:none;opacity:0.5;stroke:#800080;stroke-linecap:round;stroke-width:2;"/>
    <path d="M 150.405089 163.454072 
L 148.602135 162.336326 
L 149.719881 160.533371 
" style="fill:none;opacity:0.5;stroke:#800080;stroke-linecap:round;stroke-width:2;"/>
   </g>
   <g id="line2d_1">
    <path clip-path="url(#pf2a652420c)" d="M 240.331491 294.672848 
L 61.40055 169.207567 
L 245.124284 33.997409 
L 424.055224 163.726074 
" style="fill:none;stroke:#ff0000;stroke-linecap:square;stroke-width:0.2;"/>
   </g>
   <g id="line2d_2">
    <path clip-path="url(#pf2a652420c)" d="M 246.721881 39.478902 
L 408.878046 165.553238 
L 240.331491 296.500012 
L 76.577728 171.034731 
" style="fill:none;stroke:#0000ff;stroke-linecap:square;stroke-width:0.2;"/>
   </g>
   <g id="line2d_3">
    <path clip-path="url(#pf2a652420c)" d="M 240.331491 62.013928 
L 309.028191 172.25284 
L 249.118278 266.656329 
L 176.427583 155.808362 
" style="fill:none;stroke:#ff0000;stroke-linecap:square;stroke-width:0.2;"/>
   </g>
   <g id="line2d_4">
    <path clip-path="url(#pf2a652420c)" d="M 340.181346 175.298114 
L 248.319479 278.228369 
L 145.274429 163.117019 
L 237.136295 57.750545 
" style="fill:none;stroke:#0000ff;stroke-linecap:square;stroke-width:0.2;"/>
   </g>
  </g>
 </g>
 <defs>
  <clipPath id="pf2a652420c">
   <rect height="307.51175" width="409.903625" x="37.576375" y="13.32"/>
  </clipPath>
 </defs>
</svg>
