<?xml version="1.0" encoding="utf-8" standalone="no"?>
<!DOCTYPE svg PUBLIC "-//W3C//DTD SVG 1.1//EN"
  "http://www.w3.org/Graphics/SVG/1.1/DTD/svg11.dtd">
<!-- Created with matplotlib (http://matplotlib.org/) -->
<svg height="345.6pt" version="1.1" viewBox="0 0 460.8 345.6" width="460.8pt" xmlns="http://www.w3.org/2000/svg" xmlns:xlink="http://www.w3.org/1999/xlink">
 <defs>
  <style type="text/css">
*{stroke-linecap:butt;stroke-linejoin:round;}
  </style>
 </defs>
 <g id="figure_1">
  <g id="patch_1">
   <path d="M 0 345.6 
L 460.8 345.6 
L 460.8 0 
L 0 0 
z
" style="fill:#ffffff;"/>
  </g>
  <g id="axes_1">
   <g id="patch_2">
    <path clip-path="url(#p8cf0276749)" d="M 302.885315 34.626994 
C 303.813251 34.626994 304.703307 34.406351 305.359457 34.01366 
C 306.015606 33.620968 306.384279 33.08829 306.384279 32.53294 
C 306.384279 31.977591 306.015606 31.444912 305.359457 31.052221 
C 304.703307 30.65953 303.813251 30.438887 302.885315 30.438887 
C 301.957379 30.438887 301.067324 30.65953 300.411174 31.052221 
C 299.755024 31.444912 299.386351 31.977591 299.386351 32.53294 
C 299.386351 33.08829 299.755024 33.620968 300.411174 34.01366 
C 301.067324 34.406351 301.957379 34.626994 302.885315 34.626994 
z
" style="fill:#ff0000;opacity:0.2;stroke:#ff0000;stroke-linejoin:miter;stroke-width:2;"/>
   </g>
   <g id="patch_3">
    <path clip-path="url(#p8cf0276749)" d="M 367.616148 34.626994 
C 368.544084 34.626994 369.434139 34.406351 370.090289 34.01366 
C 370.746439 33.620968 371.115112 33.08829 371.115112 32.53294 
C 371.115112 31.977591 370.746439 31.444912 370.090289 31.052221 
C 369.434139 30.65953 368.544084 30.438887 367.616148 30.438887 
C 366.688212 30.438887 365.798157 30.65953 365.142007 31.052221 
C 364.485857 31.444912 364.117184 31.977591 364.117184 32.53294 
C 364.117184 33.08829 364.485857 33.620968 365.142007 34.01366 
C 365.798157 34.406351 366.688212 34.626994 367.616148 34.626994 
z
" style="fill:#ff0000;opacity:0.2;stroke:#ff0000;stroke-linejoin:miter;stroke-width:2;"/>
   </g>
   <g id="patch_4">
    <path clip-path="url(#p8cf0276749)" d="M 220.659663 180.163709 
C 221.587599 180.163709 222.477654 179.943066 223.133804 179.550375 
C 223.789954 179.157684 224.158627 178.625005 224.158627 178.069656 
C 224.158627 177.514306 223.789954 176.981628 223.133804 176.588936 
C 222.477654 176.196245 221.587599 175.975602 220.659663 175.975602 
C 219.731727 175.975602 218.841672 176.196245 218.185522 176.588936 
C 217.529372 176.981628 217.160699 177.514306 217.160699 178.069656 
C 217.160699 178.625005 217.529372 179.157684 218.185522 179.550375 
C 218.841672 179.943066 219.731727 180.163709 220.659663 180.163709 
z
" style="fill:#ff0000;opacity:0.2;stroke:#ff0000;stroke-linejoin:miter;stroke-width:2;"/>
   </g>
   <g id="patch_5">
    <path clip-path="url(#p8cf0276749)" d="M 315.131689 240.891259 
C 316.059625 240.891259 316.94968 240.670617 317.60583 240.277925 
C 318.26198 239.885234 318.630653 239.352555 318.630653 238.797206 
C 318.630653 238.241856 318.26198 237.709178 317.60583 237.316486 
C 316.94968 236.923795 316.059625 236.703152 315.131689 236.703152 
C 314.203753 236.703152 313.313698 236.923795 312.657548 237.316486 
C 312.001398 237.709178 311.632725 238.241856 311.632725 238.797206 
C 311.632725 239.352555 312.001398 239.885234 312.657548 240.277925 
C 313.313698 240.670617 314.203753 240.891259 315.131689 240.891259 
z
" style="fill:#ff0000;opacity:0.2;stroke:#ff0000;stroke-linejoin:miter;stroke-width:2;"/>
   </g>
   <g id="patch_6">
    <path clip-path="url(#p8cf0276749)" d="M 407.854233 229.373965 
C 408.78217 229.373965 409.672225 229.153323 410.328375 228.760631 
C 410.984524 228.36794 411.353197 227.835261 411.353197 227.279912 
C 411.353197 226.724562 410.984524 226.191884 410.328375 225.799192 
C 409.672225 225.406501 408.78217 225.185858 407.854233 225.185858 
C 406.926297 225.185858 406.036242 225.406501 405.380092 225.799192 
C 404.723942 226.191884 404.355269 226.724562 404.355269 227.279912 
C 404.355269 227.835261 404.723942 228.36794 405.380092 228.760631 
C 406.036242 229.153323 406.926297 229.373965 407.854233 229.373965 
z
" style="fill:#ff0000;opacity:0.2;stroke:#ff0000;stroke-linejoin:miter;stroke-width:2;"/>
   </g>
   <g id="patch_7">
    <path clip-path="url(#p8cf0276749)" d="M 425.349053 249.267473 
C 426.276989 249.267473 427.167044 249.04683 427.823194 248.654139 
C 428.479344 248.261448 428.848017 247.728769 428.848017 247.17342 
C 428.848017 246.61807 428.479344 246.085392 427.823194 245.6927 
C 427.167044 245.300009 426.276989 245.079366 425.349053 245.079366 
C 424.421117 245.079366 423.531062 245.300009 422.874912 245.6927 
C 422.218762 246.085392 421.850089 246.61807 421.850089 247.17342 
C 421.850089 247.728769 422.218762 248.261448 422.874912 248.654139 
C 423.531062 249.04683 424.421117 249.267473 425.349053 249.267473 
z
" style="fill:#ff0000;opacity:0.2;stroke:#ff0000;stroke-linejoin:miter;stroke-width:2;"/>
   </g>
   <g id="patch_8">
    <path clip-path="url(#p8cf0276749)" d="M 234.655519 306.853943 
C 235.583455 306.853943 236.47351 306.6333 237.12966 306.240609 
C 237.78581 305.847918 238.154483 305.315239 238.154483 304.75989 
C 238.154483 304.20454 237.78581 303.671862 237.12966 303.27917 
C 236.47351 302.886479 235.583455 302.665836 234.655519 302.665836 
C 233.727583 302.665836 232.837527 302.886479 232.181378 303.27917 
C 231.525228 303.671862 231.156555 304.20454 231.156555 304.75989 
C 231.156555 305.315239 231.525228 305.847918 232.181378 306.240609 
C 232.837527 306.6333 233.727583 306.853943 234.655519 306.853943 
z
" style="fill:#ff0000;opacity:0.2;stroke:#ff0000;stroke-linejoin:miter;stroke-width:2;"/>
   </g>
   <g id="patch_9">
    <path clip-path="url(#p8cf0276749)" d="M 59.707322 212.621538 
C 60.635258 212.621538 61.525313 212.400895 62.181463 212.008204 
C 62.837613 211.615512 63.206286 211.082834 63.206286 210.527484 
C 63.206286 209.972135 62.837613 209.439456 62.181463 209.046765 
C 61.525313 208.654073 60.635258 208.433431 59.707322 208.433431 
C 58.779386 208.433431 57.889331 208.654073 57.233181 209.046765 
C 56.577031 209.439456 56.208358 209.972135 56.208358 210.527484 
C 56.208358 211.082834 56.577031 211.615512 57.233181 212.008204 
C 57.889331 212.400895 58.779386 212.621538 59.707322 212.621538 
z
" style="fill:#ff0000;opacity:0.2;stroke:#ff0000;stroke-linejoin:miter;stroke-width:2;"/>
   </g>
   <g id="patch_10">
    <path clip-path="url(#p8cf0276749)" d="M 285.390496 31.485914 
C 286.318432 31.485914 287.208487 31.265271 287.864637 30.87258 
C 288.520787 30.479888 288.88946 29.94721 288.88946 29.39186 
C 288.88946 28.836511 288.520787 28.303832 287.864637 27.911141 
C 287.208487 27.51845 286.318432 27.297807 285.390496 27.297807 
C 284.46256 27.297807 283.572504 27.51845 282.916355 27.911141 
C 282.260205 28.303832 281.891532 28.836511 281.891532 29.39186 
C 281.891532 29.94721 282.260205 30.479888 282.916355 30.87258 
C 283.572504 31.265271 284.46256 31.485914 285.390496 31.485914 
z
" style="fill:#0000ff;opacity:0.2;stroke:#0000ff;stroke-linejoin:miter;stroke-width:2;"/>
   </g>
   <g id="patch_11">
    <path clip-path="url(#p8cf0276749)" d="M 325.628581 31.485914 
C 326.556517 31.485914 327.446572 31.265271 328.102722 30.87258 
C 328.758872 30.479888 329.127545 29.94721 329.127545 29.39186 
C 329.127545 28.836511 328.758872 28.303832 328.102722 27.911141 
C 327.446572 27.51845 326.556517 27.297807 325.628581 27.297807 
C 324.700645 27.297807 323.81059 27.51845 323.15444 27.911141 
C 322.49829 28.303832 322.129617 28.836511 322.129617 29.39186 
C 322.129617 29.94721 322.49829 30.479888 323.15444 30.87258 
C 323.81059 31.265271 324.700645 31.485914 325.628581 31.485914 
z
" style="fill:#0000ff;opacity:0.2;stroke:#0000ff;stroke-linejoin:miter;stroke-width:2;"/>
   </g>
   <g id="patch_12">
    <path clip-path="url(#p8cf0276749)" d="M 213.661735 152.941014 
C 214.589671 152.941014 215.479726 152.720371 216.135876 152.32768 
C 216.792026 151.934989 217.160699 151.40231 217.160699 150.846961 
C 217.160699 150.291611 216.792026 149.758933 216.135876 149.366241 
C 215.479726 148.97355 214.589671 148.752907 213.661735 148.752907 
C 212.733799 148.752907 211.843744 148.97355 211.187594 149.366241 
C 210.531444 149.758933 210.162771 150.291611 210.162771 150.846961 
C 210.162771 151.40231 210.531444 151.934989 211.187594 152.32768 
C 211.843744 152.720371 212.733799 152.941014 213.661735 152.941014 
z
" style="fill:#0000ff;opacity:0.2;stroke:#0000ff;stroke-linejoin:miter;stroke-width:2;"/>
   </g>
   <g id="patch_13">
    <path clip-path="url(#p8cf0276749)" d="M 294.137906 206.339377 
C 295.065842 206.339377 295.955897 206.118735 296.612047 205.726043 
C 297.268197 205.333352 297.636869 204.800673 297.636869 204.245324 
C 297.636869 203.689974 297.268197 203.157296 296.612047 202.764604 
C 295.955897 202.371913 295.065842 202.15127 294.137906 202.15127 
C 293.209969 202.15127 292.319914 202.371913 291.663764 202.764604 
C 291.007615 203.157296 290.638942 203.689974 290.638942 204.245324 
C 290.638942 204.800673 291.007615 205.333352 291.663764 205.726043 
C 292.319914 206.118735 293.209969 206.339377 294.137906 206.339377 
z
" style="fill:#0000ff;opacity:0.2;stroke:#0000ff;stroke-linejoin:miter;stroke-width:2;"/>
   </g>
   <g id="patch_14">
    <path clip-path="url(#p8cf0276749)" d="M 379.862522 190.633976 
C 380.790458 190.633976 381.680513 190.413334 382.336663 190.020642 
C 382.992813 189.627951 383.361486 189.095272 383.361486 188.539923 
C 383.361486 187.984573 382.992813 187.451895 382.336663 187.059204 
C 381.680513 186.666512 380.790458 186.445869 379.862522 186.445869 
C 378.934586 186.445869 378.044531 186.666512 377.388381 187.059204 
C 376.732231 187.451895 376.363558 187.984573 376.363558 188.539923 
C 376.363558 189.095272 376.732231 189.627951 377.388381 190.020642 
C 378.044531 190.413334 378.934586 190.633976 379.862522 190.633976 
z
" style="fill:#0000ff;opacity:0.2;stroke:#0000ff;stroke-linejoin:miter;stroke-width:2;"/>
   </g>
   <g id="patch_15">
    <path clip-path="url(#p8cf0276749)" d="M 393.858378 208.433431 
C 394.786314 208.433431 395.676369 208.212788 396.332519 207.820097 
C 396.988669 207.427405 397.357342 206.894727 397.357342 206.339377 
C 397.357342 205.784028 396.988669 205.251349 396.332519 204.858658 
C 395.676369 204.465967 394.786314 204.245324 393.858378 204.245324 
C 392.930442 204.245324 392.040386 204.465967 391.384237 204.858658 
C 390.728087 205.251349 390.359414 205.784028 390.359414 206.339377 
C 390.359414 206.894727 390.728087 207.427405 391.384237 207.820097 
C 392.040386 208.212788 392.930442 208.433431 393.858378 208.433431 
z
" style="fill:#0000ff;opacity:0.2;stroke:#0000ff;stroke-linejoin:miter;stroke-width:2;"/>
   </g>
   <g id="patch_16">
    <path clip-path="url(#p8cf0276749)" d="M 234.655519 255.549634 
C 235.583455 255.549634 236.47351 255.328991 237.12966 254.936299 
C 237.78581 254.543608 238.154483 254.01093 238.154483 253.45558 
C 238.154483 252.900231 237.78581 252.367552 237.12966 251.974861 
C 236.47351 251.582169 235.583455 251.361527 234.655519 251.361527 
C 233.727583 251.361527 232.837527 251.582169 232.181378 251.974861 
C 231.525228 252.367552 231.156555 252.900231 231.156555 253.45558 
C 231.156555 254.01093 231.525228 254.543608 232.181378 254.936299 
C 232.837527 255.328991 233.727583 255.549634 234.655519 255.549634 
z
" style="fill:#0000ff;opacity:0.2;stroke:#0000ff;stroke-linejoin:miter;stroke-width:2;"/>
   </g>
   <g id="patch_17">
    <path clip-path="url(#p8cf0276749)" d="M 91.197997 179.116682 
C 92.125933 179.116682 93.015989 178.89604 93.672138 178.503348 
C 94.328288 178.110657 94.696961 177.577978 94.696961 177.022629 
C 94.696961 176.467279 94.328288 175.934601 93.672138 175.54191 
C 93.015989 175.149218 92.125933 174.928575 91.197997 174.928575 
C 90.270061 174.928575 89.380006 175.149218 88.723856 175.54191 
C 88.067706 175.934601 87.699033 176.467279 87.699033 177.022629 
C 87.699033 177.577978 88.067706 178.110657 88.723856 178.503348 
C 89.380006 178.89604 90.270061 179.116682 91.197997 179.116682 
z
" style="fill:#0000ff;opacity:0.2;stroke:#0000ff;stroke-linejoin:miter;stroke-width:2;"/>
   </g>
   <g id="patch_18">
    <path clip-path="url(#p8cf0276749)" d="M 302.885315 32.53294 
L 367.616148 32.53294 
C 274.893604 88.025357 220.659663 130.953453 220.659663 178.069656 
C 220.659663 213.668564 250.400856 238.797206 315.131689 238.797206 
C 350.121329 238.797206 381.612004 233.562072 407.854233 227.279912 
C 420.100607 229.373965 425.349053 238.797206 425.349053 247.17342 
C 379.862522 288.007462 302.885315 304.75989 234.655519 304.75989 
C 99.945407 304.75989 59.707322 254.502607 59.707322 210.527484 
C 59.707322 153.988041 127.937119 106.871838 302.885315 32.53294 
" style="fill:none;stroke:#ff0000;stroke-linejoin:miter;stroke-width:0.5;"/>
   </g>
   <g id="patch_19">
    <path clip-path="url(#p8cf0276749)" d="M 285.390496 29.39186 
L 325.628581 29.39186 
C 231.156555 80.69617 213.661735 122.577239 213.661735 150.846961 
C 213.661735 170.740469 229.407073 204.245324 294.137906 204.245324 
C 315.131689 204.245324 341.373919 204.245324 379.862522 188.539923 
C 388.609932 191.681003 393.858378 196.916137 393.858378 206.339377 
C 350.121329 238.797206 287.139978 253.45558 234.655519 253.45558 
C 147.18142 253.45558 91.197997 222.044778 91.197997 177.022629 
C 91.197997 135.14156 138.43401 88.025357 285.390496 29.39186 
" style="fill:none;stroke:#0000ff;stroke-linejoin:miter;stroke-width:0.5;"/>
   </g>
   <g id="[&quot;g_s&quot;:1,&quot;g_t&quot;:1,&quot;coords&quot;:[[276.0, -685.0],[266.0, -682.0]],&quot;certainty&quot;:11]">
    <path clip-path="url(#p8cf0276749)" d="M 302.885315 38.815101 
C 305.669124 38.815101 308.339289 38.153173 310.307739 36.975099 
C 312.276188 35.797025 313.382207 34.198989 313.382207 32.53294 
C 313.382207 30.866892 312.276188 29.268856 310.307739 28.090782 
C 308.339289 26.912708 305.669124 26.25078 302.885315 26.25078 
C 300.101507 26.25078 297.431342 26.912708 295.462892 28.090782 
C 293.494442 29.268856 292.388424 30.866892 292.388424 32.53294 
C 292.388424 34.198989 293.494442 35.797025 295.462892 36.975099 
C 297.431342 38.153173 300.101507 38.815101 302.885315 38.815101 
z
" style="fill:#0000ff;opacity:0.2;stroke:#0000ff;stroke-linejoin:miter;stroke-width:2;"/>
   </g>
   <g id="[&quot;g_s&quot;:1,&quot;g_t&quot;:1,&quot;coords&quot;:[[266.0, -682.0],[276.0, -685.0]],&quot;certainty&quot;:11]">
    <path clip-path="url(#p8cf0276749)" d="M 285.390496 35.674021 
C 288.174304 35.674021 290.844469 35.012093 292.812919 33.834018 
C 294.781369 32.655944 295.887388 31.057909 295.887388 29.39186 
C 295.887388 27.725812 294.781369 26.127776 292.812919 24.949702 
C 290.844469 23.771628 288.174304 23.1097 285.390496 23.1097 
C 282.606687 23.1097 279.936522 23.771628 277.968072 24.949702 
C 275.999623 26.127776 274.893604 27.725812 274.893604 29.39186 
C 274.893604 31.057909 275.999623 32.655944 277.968072 33.834018 
C 279.936522 35.012093 282.606687 35.674021 285.390496 35.674021 
z
" style="fill:#ff0000;opacity:0.2;stroke:#ff0000;stroke-linejoin:miter;stroke-width:2;"/>
   </g>
   <g id="patch_20">
    <path d="M 302.885315 32.53294 
Q 295.122416 31.139163 289.447451 30.12026 
" style="fill:none;opacity:0.5;stroke:#0000ff;stroke-linecap:round;stroke-width:3;"/>
    <path d="M 290.658767 31.861729 
L 289.447451 30.12026 
L 291.18892 28.908944 
" style="fill:none;opacity:0.5;stroke:#0000ff;stroke-linecap:round;stroke-width:3;"/>
   </g>
   <g id="[&quot;g_s&quot;:2,&quot;g_t&quot;:2,&quot;coords&quot;:[[313.0, -685.0],[289.0, -682.0]],&quot;certainty&quot;:4]">
    <path clip-path="url(#p8cf0276749)" d="M 367.616148 35.150507 
C 368.776068 35.150507 369.888637 34.874704 370.708825 34.38384 
C 371.529012 33.892975 371.989853 33.227127 371.989853 32.53294 
C 371.989853 31.838754 371.529012 31.172905 370.708825 30.682041 
C 369.888637 30.191177 368.776068 29.915374 367.616148 29.915374 
C 366.456228 29.915374 365.343659 30.191177 364.523472 30.682041 
C 363.703284 31.172905 363.242443 31.838754 363.242443 32.53294 
C 363.242443 33.227127 363.703284 33.892975 364.523472 34.38384 
C 365.343659 34.874704 366.456228 35.150507 367.616148 35.150507 
z
" style="fill:#0000ff;opacity:0.2;stroke:#0000ff;stroke-linejoin:miter;stroke-width:2;"/>
   </g>
   <g id="[&quot;g_s&quot;:2,&quot;g_t&quot;:2,&quot;coords&quot;:[[289.0, -682.0],[313.0, -685.0]],&quot;certainty&quot;:4]">
    <path clip-path="url(#p8cf0276749)" d="M 325.628581 32.009427 
C 326.788501 32.009427 327.90107 31.733624 328.721257 31.24276 
C 329.541445 30.751895 330.002286 30.086047 330.002286 29.39186 
C 330.002286 28.697673 329.541445 28.031825 328.721257 27.540961 
C 327.90107 27.050097 326.788501 26.774293 325.628581 26.774293 
C 324.468661 26.774293 323.356092 27.050097 322.535905 27.540961 
C 321.715717 28.031825 321.254876 28.697673 321.254876 29.39186 
C 321.254876 30.086047 321.715717 30.751895 322.535905 31.24276 
C 323.356092 31.733624 324.468661 32.009427 325.628581 32.009427 
z
" style="fill:#ff0000;opacity:0.2;stroke:#ff0000;stroke-linejoin:miter;stroke-width:2;"/>
   </g>
   <g id="patch_21">
    <path d="M 367.616148 32.53294 
Q 347.620543 31.037074 328.506359 29.607146 
" style="fill:none;opacity:0.5;stroke:#0000ff;stroke-linecap:round;stroke-width:1.25;"/>
    <path d="M 329.890277 31.214868 
L 328.506359 29.607146 
L 330.114081 28.223228 
" style="fill:none;opacity:0.5;stroke:#0000ff;stroke-linecap:round;stroke-width:1.25;"/>
   </g>
   <g id="[&quot;g_s&quot;:3,&quot;g_t&quot;:3,&quot;coords&quot;:[[229.0, -824.0],[225.0, -798.0]],&quot;certainty&quot;:11]">
    <path clip-path="url(#p8cf0276749)" d="M 220.659663 184.351816 
C 223.443471 184.351816 226.113637 183.689888 228.082086 182.511814 
C 230.050536 181.33374 231.156555 179.735704 231.156555 178.069656 
C 231.156555 176.403607 230.050536 174.805572 228.082086 173.627497 
C 226.113637 172.449423 223.443471 171.787495 220.659663 171.787495 
C 217.875855 171.787495 215.205689 172.449423 213.23724 173.627497 
C 211.26879 174.805572 210.162771 176.403607 210.162771 178.069656 
C 210.162771 179.735704 211.26879 181.33374 213.23724 182.511814 
C 215.205689 183.689888 217.875855 184.351816 220.659663 184.351816 
z
" style="fill:#0000ff;opacity:0.2;stroke:#0000ff;stroke-linejoin:miter;stroke-width:2;"/>
   </g>
   <g id="[&quot;g_s&quot;:3,&quot;g_t&quot;:3,&quot;coords&quot;:[[225.0, -798.0],[229.0, -824.0]],&quot;certainty&quot;:11]">
    <path clip-path="url(#p8cf0276749)" d="M 213.661735 157.129121 
C 216.445543 157.129121 219.115709 156.467193 221.084158 155.289119 
C 223.052608 154.111045 224.158627 152.513009 224.158627 150.846961 
C 224.158627 149.180912 223.052608 147.582877 221.084158 146.404803 
C 219.115709 145.226728 216.445543 144.5648 213.661735 144.5648 
C 210.877927 144.5648 208.207761 145.226728 206.239312 146.404803 
C 204.270862 147.582877 203.164843 149.180912 203.164843 150.846961 
C 203.164843 152.513009 204.270862 154.111045 206.239312 155.289119 
C 208.207761 156.467193 210.877927 157.129121 213.661735 157.129121 
z
" style="fill:#ff0000;opacity:0.2;stroke:#ff0000;stroke-linejoin:miter;stroke-width:2;"/>
   </g>
   <g id="patch_22">
    <path d="M 220.659663 178.069656 
Q 217.40971 165.426987 214.687897 154.838842 
" style="fill:none;opacity:0.5;stroke:#0000ff;stroke-linecap:round;stroke-width:3;"/>
    <path d="M 213.608581 156.665061 
L 214.687897 154.838842 
L 216.514116 155.918158 
" style="fill:none;opacity:0.5;stroke:#0000ff;stroke-linecap:round;stroke-width:3;"/>
   </g>
   <g id="[&quot;g_s&quot;:4,&quot;g_t&quot;:4,&quot;coords&quot;:[[283.0, -882.0],[271.0, -849.0]],&quot;certainty&quot;:6]">
    <path clip-path="url(#p8cf0276749)" d="M 315.131689 242.461799 
C 316.755577 242.461799 318.313174 242.075675 319.461436 241.388465 
C 320.609698 240.701255 321.254876 239.769067 321.254876 238.797206 
C 321.254876 237.825344 320.609698 236.893157 319.461436 236.205947 
C 318.313174 235.518737 316.755577 235.132612 315.131689 235.132612 
C 313.507801 235.132612 311.950205 235.518737 310.801942 236.205947 
C 309.65368 236.893157 309.008502 237.825344 309.008502 238.797206 
C 309.008502 239.769067 309.65368 240.701255 310.801942 241.388465 
C 311.950205 242.075675 313.507801 242.461799 315.131689 242.461799 
z
" style="fill:#0000ff;opacity:0.2;stroke:#0000ff;stroke-linejoin:miter;stroke-width:2;"/>
   </g>
   <g id="[&quot;g_s&quot;:4,&quot;g_t&quot;:4,&quot;coords&quot;:[[271.0, -849.0],[283.0, -882.0]],&quot;certainty&quot;:6]">
    <path clip-path="url(#p8cf0276749)" d="M 294.137906 207.909917 
C 295.761794 207.909917 297.31939 207.523793 298.467653 206.836583 
C 299.615915 206.149373 300.261092 205.217185 300.261092 204.245324 
C 300.261092 203.273462 299.615915 202.341275 298.467653 201.654065 
C 297.31939 200.966855 295.761794 200.58073 294.137906 200.58073 
C 292.514017 200.58073 290.956421 200.966855 289.808159 201.654065 
C 288.659896 202.341275 288.014719 203.273462 288.014719 204.245324 
C 288.014719 205.217185 288.659896 206.149373 289.808159 206.836583 
C 290.956421 207.523793 292.514017 207.909917 294.137906 207.909917 
z
" style="fill:#ff0000;opacity:0.2;stroke:#ff0000;stroke-linejoin:miter;stroke-width:2;"/>
   </g>
   <g id="patch_23">
    <path d="M 315.131689 238.797206 
Q 305.153748 222.375361 295.818363 207.011046 
" style="fill:none;opacity:0.5;stroke:#0000ff;stroke-linecap:round;stroke-width:1.75;"/>
    <path d="M 295.31534 209.071864 
L 295.818363 207.011046 
L 297.879181 207.51407 
" style="fill:none;opacity:0.5;stroke:#0000ff;stroke-linecap:round;stroke-width:1.75;"/>
   </g>
   <g id="[&quot;g_s&quot;:5,&quot;g_t&quot;:5,&quot;coords&quot;:[[336.0, -871.0],[320.0, -834.0]],&quot;certainty&quot;:6]">
    <path clip-path="url(#p8cf0276749)" d="M 407.854233 230.944505 
C 409.478122 230.944505 411.035718 230.558381 412.18398 229.871171 
C 413.332243 229.183961 413.97742 228.251773 413.97742 227.279912 
C 413.97742 226.30805 413.332243 225.375863 412.18398 224.688653 
C 411.035718 224.001443 409.478122 223.615318 407.854233 223.615318 
C 406.230345 223.615318 404.672749 224.001443 403.524486 224.688653 
C 402.376224 225.375863 401.731047 226.30805 401.731047 227.279912 
C 401.731047 228.251773 402.376224 229.183961 403.524486 229.871171 
C 404.672749 230.558381 406.230345 230.944505 407.854233 230.944505 
z
" style="fill:#0000ff;opacity:0.2;stroke:#0000ff;stroke-linejoin:miter;stroke-width:2;"/>
   </g>
   <g id="[&quot;g_s&quot;:5,&quot;g_t&quot;:5,&quot;coords&quot;:[[320.0, -834.0],[336.0, -871.0]],&quot;certainty&quot;:6]">
    <path clip-path="url(#p8cf0276749)" d="M 379.862522 192.204516 
C 381.48641 192.204516 383.044007 191.818392 384.192269 191.131182 
C 385.340531 190.443972 385.985709 189.511784 385.985709 188.539923 
C 385.985709 187.568061 385.340531 186.635874 384.192269 185.948664 
C 383.044007 185.261454 381.48641 184.875329 379.862522 184.875329 
C 378.238634 184.875329 376.681037 185.261454 375.532775 185.948664 
C 374.384513 186.635874 373.739335 187.568061 373.739335 188.539923 
C 373.739335 189.511784 374.384513 190.443972 375.532775 191.131182 
C 376.681037 191.818392 378.238634 192.204516 379.862522 192.204516 
z
" style="fill:#ff0000;opacity:0.2;stroke:#ff0000;stroke-linejoin:miter;stroke-width:2;"/>
   </g>
   <g id="patch_24">
    <path d="M 407.854233 227.279912 
Q 394.443532 208.719759 381.757556 191.162613 
" style="fill:none;opacity:0.5;stroke:#0000ff;stroke-linecap:round;stroke-width:1.75;"/>
    <path d="M 381.420228 193.256941 
L 381.757556 191.162613 
L 383.851884 191.49994 
" style="fill:none;opacity:0.5;stroke:#0000ff;stroke-linecap:round;stroke-width:1.75;"/>
   </g>
   <g id="[&quot;g_s&quot;:6,&quot;g_t&quot;:6,&quot;coords&quot;:[[346.0, -890.0],[328.0, -851.0]],&quot;certainty&quot;:13]">
    <path clip-path="url(#p8cf0276749)" d="M 425.349053 254.502607 
C 428.596829 254.502607 431.712022 253.730357 434.008547 252.355938 
C 436.305072 250.981518 437.595427 249.117143 437.595427 247.17342 
C 437.595427 245.229697 436.305072 243.365322 434.008547 241.990902 
C 431.712022 240.616482 428.596829 239.844233 425.349053 239.844233 
C 422.101277 239.844233 418.986084 240.616482 416.689559 241.990902 
C 414.393035 243.365322 413.102679 245.229697 413.102679 247.17342 
C 413.102679 249.117143 414.393035 250.981518 416.689559 252.355938 
C 418.986084 253.730357 422.101277 254.502607 425.349053 254.502607 
z
" style="fill:#0000ff;opacity:0.2;stroke:#0000ff;stroke-linejoin:miter;stroke-width:2;"/>
   </g>
   <g id="[&quot;g_s&quot;:6,&quot;g_t&quot;:6,&quot;coords&quot;:[[328.0, -851.0],[346.0, -890.0]],&quot;certainty&quot;:13]">
    <path clip-path="url(#p8cf0276749)" d="M 393.858378 213.668564 
C 397.106154 213.668564 400.221347 212.896315 402.517872 211.521895 
C 404.814396 210.147475 406.104751 208.2831 406.104751 206.339377 
C 406.104751 204.395654 404.814396 202.531279 402.517872 201.156859 
C 400.221347 199.78244 397.106154 199.01019 393.858378 199.01019 
C 390.610601 199.01019 387.495408 199.78244 385.198884 201.156859 
C 382.902359 202.531279 381.612004 204.395654 381.612004 206.339377 
C 381.612004 208.2831 382.902359 210.147475 385.198884 211.521895 
C 387.495408 212.896315 390.610601 213.668564 393.858378 213.668564 
z
" style="fill:#ff0000;opacity:0.2;stroke:#ff0000;stroke-linejoin:miter;stroke-width:2;"/>
   </g>
   <g id="patch_25">
    <path d="M 425.349053 247.17342 
Q 410.213963 227.547708 396.590236 209.881786 
" style="fill:none;opacity:0.5;stroke:#0000ff;stroke-linecap:round;stroke-width:3.5;"/>
    <path d="M 396.318449 211.985623 
L 396.590236 209.881786 
L 398.694074 210.153573 
" style="fill:none;opacity:0.5;stroke:#0000ff;stroke-linecap:round;stroke-width:3.5;"/>
   </g>
   <g id="[&quot;g_s&quot;:7,&quot;g_t&quot;:7,&quot;coords&quot;:[[237.0, -945.0],[237.0, -896.0]],&quot;certainty&quot;:11]">
    <path clip-path="url(#p8cf0276749)" d="M 234.655519 311.04205 
C 237.439327 311.04205 240.109492 310.380122 242.077942 309.202048 
C 244.046392 308.023974 245.15241 306.425938 245.15241 304.75989 
C 245.15241 303.093841 244.046392 301.495806 242.077942 300.317732 
C 240.109492 299.139657 237.439327 298.477729 234.655519 298.477729 
C 231.87171 298.477729 229.201545 299.139657 227.233095 300.317732 
C 225.264646 301.495806 224.158627 303.093841 224.158627 304.75989 
C 224.158627 306.425938 225.264646 308.023974 227.233095 309.202048 
C 229.201545 310.380122 231.87171 311.04205 234.655519 311.04205 
z
" style="fill:#0000ff;opacity:0.2;stroke:#0000ff;stroke-linejoin:miter;stroke-width:2;"/>
   </g>
   <g id="[&quot;g_s&quot;:7,&quot;g_t&quot;:7,&quot;coords&quot;:[[237.0, -896.0],[237.0, -945.0]],&quot;certainty&quot;:11]">
    <path clip-path="url(#p8cf0276749)" d="M 234.655519 259.73774 
C 237.439327 259.73774 240.109492 259.075812 242.077942 257.897738 
C 244.046392 256.719664 245.15241 255.121628 245.15241 253.45558 
C 245.15241 251.789532 244.046392 250.191496 242.077942 249.013422 
C 240.109492 247.835348 237.439327 247.17342 234.655519 247.17342 
C 231.87171 247.17342 229.201545 247.835348 227.233095 249.013422 
C 225.264646 250.191496 224.158627 251.789532 224.158627 253.45558 
C 224.158627 255.121628 225.264646 256.719664 227.233095 257.897738 
C 229.201545 259.075812 231.87171 259.73774 234.655519 259.73774 
z
" style="fill:#ff0000;opacity:0.2;stroke:#ff0000;stroke-linejoin:miter;stroke-width:2;"/>
   </g>
   <g id="patch_26">
    <path d="M 234.655519 304.75989 
Q 234.655519 280.108207 234.655519 257.577844 
" style="fill:none;opacity:0.5;stroke:#0000ff;stroke-linecap:round;stroke-width:3;"/>
    <path d="M 233.155519 259.077844 
L 234.655519 257.577844 
L 236.155519 259.077844 
" style="fill:none;opacity:0.5;stroke:#0000ff;stroke-linecap:round;stroke-width:3;"/>
   </g>
   <g id="[&quot;g_s&quot;:8,&quot;g_t&quot;:8,&quot;coords&quot;:[[137.0, -855.0],[155.0, -823.0]],&quot;certainty&quot;:11]">
    <path clip-path="url(#p8cf0276749)" d="M 59.707322 216.809645 
C 62.49113 216.809645 65.161296 216.147717 67.129745 214.969642 
C 69.098195 213.791568 70.204214 212.193533 70.204214 210.527484 
C 70.204214 208.861436 69.098195 207.2634 67.129745 206.085326 
C 65.161296 204.907252 62.49113 204.245324 59.707322 204.245324 
C 56.923514 204.245324 54.253348 204.907252 52.284899 206.085326 
C 50.316449 207.2634 49.21043 208.861436 49.21043 210.527484 
C 49.21043 212.193533 50.316449 213.791568 52.284899 214.969642 
C 54.253348 216.147717 56.923514 216.809645 59.707322 216.809645 
z
" style="fill:#0000ff;opacity:0.2;stroke:#0000ff;stroke-linejoin:miter;stroke-width:2;"/>
   </g>
   <g id="[&quot;g_s&quot;:8,&quot;g_t&quot;:8,&quot;coords&quot;:[[155.0, -823.0],[137.0, -855.0]],&quot;certainty&quot;:11]">
    <path clip-path="url(#p8cf0276749)" d="M 91.197997 183.304789 
C 93.981806 183.304789 96.651971 182.642861 98.620421 181.464787 
C 100.58887 180.286713 101.694889 178.688677 101.694889 177.022629 
C 101.694889 175.356581 100.58887 173.758545 98.620421 172.580471 
C 96.651971 171.402397 93.981806 170.740469 91.197997 170.740469 
C 88.414189 170.740469 85.744024 171.402397 83.775574 172.580471 
C 81.807124 173.758545 80.701106 175.356581 80.701106 177.022629 
C 80.701106 178.688677 81.807124 180.286713 83.775574 181.464787 
C 85.744024 182.642861 88.414189 183.304789 91.197997 183.304789 
z
" style="fill:#ff0000;opacity:0.2;stroke:#ff0000;stroke-linejoin:miter;stroke-width:2;"/>
   </g>
   <g id="patch_27">
    <path d="M 59.707322 210.527484 
Q 74.767453 194.50409 88.374766 180.026438 
" style="fill:none;opacity:0.5;stroke:#0000ff;stroke-linecap:round;stroke-width:3;"/>
    <path d="M 86.254463 180.092145 
L 88.374766 180.026438 
L 88.440473 182.14674 
" style="fill:none;opacity:0.5;stroke:#0000ff;stroke-linecap:round;stroke-width:3;"/>
   </g>
   <g id="[&quot;g_s&quot;:1,&quot;g_t&quot;:1,&quot;coords&quot;:[[266.0, -682.0],[276.0, -685.0]],&quot;certainty&quot;:11]">
    <path clip-path="url(#p8cf0276749)" d="M 285.390496 35.674021 
C 288.174304 35.674021 290.844469 35.012093 292.812919 33.834018 
C 294.781369 32.655944 295.887388 31.057909 295.887388 29.39186 
C 295.887388 27.725812 294.781369 26.127776 292.812919 24.949702 
C 290.844469 23.771628 288.174304 23.1097 285.390496 23.1097 
C 282.606687 23.1097 279.936522 23.771628 277.968072 24.949702 
C 275.999623 26.127776 274.893604 27.725812 274.893604 29.39186 
C 274.893604 31.057909 275.999623 32.655944 277.968072 33.834018 
C 279.936522 35.012093 282.606687 35.674021 285.390496 35.674021 
z
" style="fill:#0000ff;opacity:0.2;stroke:#0000ff;stroke-linejoin:miter;stroke-width:2;"/>
   </g>
   <g id="[&quot;g_s&quot;:1,&quot;g_t&quot;:1,&quot;coords&quot;:[[276.0, -685.0],[266.0, -682.0]],&quot;certainty&quot;:11]">
    <path clip-path="url(#p8cf0276749)" d="M 302.885315 38.815101 
C 305.669124 38.815101 308.339289 38.153173 310.307739 36.975099 
C 312.276188 35.797025 313.382207 34.198989 313.382207 32.53294 
C 313.382207 30.866892 312.276188 29.268856 310.307739 28.090782 
C 308.339289 26.912708 305.669124 26.25078 302.885315 26.25078 
C 300.101507 26.25078 297.431342 26.912708 295.462892 28.090782 
C 293.494442 29.268856 292.388424 30.866892 292.388424 32.53294 
C 292.388424 34.198989 293.494442 35.797025 295.462892 36.975099 
C 297.431342 38.153173 300.101507 38.815101 302.885315 38.815101 
z
" style="fill:#ff0000;opacity:0.2;stroke:#ff0000;stroke-linejoin:miter;stroke-width:2;"/>
   </g>
   <g id="patch_28">
    <path d="M 285.390496 29.39186 
Q 293.153395 30.785638 298.82836 31.804541 
" style="fill:none;opacity:0.5;stroke:#ff0000;stroke-linecap:round;stroke-width:3;"/>
    <path d="M 297.617044 30.063072 
L 298.82836 31.804541 
L 297.086891 33.015856 
" style="fill:none;opacity:0.5;stroke:#ff0000;stroke-linecap:round;stroke-width:3;"/>
   </g>
   <g id="[&quot;g_s&quot;:2,&quot;g_t&quot;:2,&quot;coords&quot;:[[289.0, -682.0],[313.0, -685.0]],&quot;certainty&quot;:5]">
    <path clip-path="url(#p8cf0276749)" d="M 325.628581 32.53294 
C 327.020485 32.53294 328.355568 32.201976 329.339793 31.612939 
C 330.324017 31.023902 330.877027 30.224884 330.877027 29.39186 
C 330.877027 28.558836 330.324017 27.759818 329.339793 27.170781 
C 328.355568 26.581744 327.020485 26.25078 325.628581 26.25078 
C 324.236677 26.25078 322.901594 26.581744 321.917369 27.170781 
C 320.933144 27.759818 320.380135 28.558836 320.380135 29.39186 
C 320.380135 30.224884 320.933144 31.023902 321.917369 31.612939 
C 322.901594 32.201976 324.236677 32.53294 325.628581 32.53294 
z
" style="fill:#0000ff;opacity:0.2;stroke:#0000ff;stroke-linejoin:miter;stroke-width:2;"/>
   </g>
   <g id="[&quot;g_s&quot;:2,&quot;g_t&quot;:2,&quot;coords&quot;:[[313.0, -685.0],[289.0, -682.0]],&quot;certainty&quot;:5]">
    <path clip-path="url(#p8cf0276749)" d="M 367.616148 35.674021 
C 369.008052 35.674021 370.343135 35.343057 371.32736 34.75402 
C 372.311585 34.164982 372.864594 33.365965 372.864594 32.53294 
C 372.864594 31.699916 372.311585 30.900898 371.32736 30.311861 
C 370.343135 29.722824 369.008052 29.39186 367.616148 29.39186 
C 366.224244 29.39186 364.889161 29.722824 363.904936 30.311861 
C 362.920712 30.900898 362.367702 31.699916 362.367702 32.53294 
C 362.367702 33.365965 362.920712 34.164982 363.904936 34.75402 
C 364.889161 35.343057 366.224244 35.674021 367.616148 35.674021 
z
" style="fill:#ff0000;opacity:0.2;stroke:#ff0000;stroke-linejoin:miter;stroke-width:2;"/>
   </g>
   <g id="patch_29">
    <path d="M 325.628581 29.39186 
Q 345.624186 30.887727 364.562086 32.304467 
" style="fill:none;opacity:0.5;stroke:#ff0000;stroke-linecap:round;stroke-width:1.5;"/>
    <path d="M 363.178168 30.696745 
L 364.562086 32.304467 
L 362.954364 33.688385 
" style="fill:none;opacity:0.5;stroke:#ff0000;stroke-linecap:round;stroke-width:1.5;"/>
   </g>
   <g id="[&quot;g_s&quot;:3,&quot;g_t&quot;:3,&quot;coords&quot;:[[225.0, -798.0],[229.0, -824.0]],&quot;certainty&quot;:11]">
    <path clip-path="url(#p8cf0276749)" d="M 213.661735 157.129121 
C 216.445543 157.129121 219.115709 156.467193 221.084158 155.289119 
C 223.052608 154.111045 224.158627 152.513009 224.158627 150.846961 
C 224.158627 149.180912 223.052608 147.582877 221.084158 146.404803 
C 219.115709 145.226728 216.445543 144.5648 213.661735 144.5648 
C 210.877927 144.5648 208.207761 145.226728 206.239312 146.404803 
C 204.270862 147.582877 203.164843 149.180912 203.164843 150.846961 
C 203.164843 152.513009 204.270862 154.111045 206.239312 155.289119 
C 208.207761 156.467193 210.877927 157.129121 213.661735 157.129121 
z
" style="fill:#0000ff;opacity:0.2;stroke:#0000ff;stroke-linejoin:miter;stroke-width:2;"/>
   </g>
   <g id="[&quot;g_s&quot;:3,&quot;g_t&quot;:3,&quot;coords&quot;:[[229.0, -824.0],[225.0, -798.0]],&quot;certainty&quot;:11]">
    <path clip-path="url(#p8cf0276749)" d="M 220.659663 184.351816 
C 223.443471 184.351816 226.113637 183.689888 228.082086 182.511814 
C 230.050536 181.33374 231.156555 179.735704 231.156555 178.069656 
C 231.156555 176.403607 230.050536 174.805572 228.082086 173.627497 
C 226.113637 172.449423 223.443471 171.787495 220.659663 171.787495 
C 217.875855 171.787495 215.205689 172.449423 213.23724 173.627497 
C 211.26879 174.805572 210.162771 176.403607 210.162771 178.069656 
C 210.162771 179.735704 211.26879 181.33374 213.23724 182.511814 
C 215.205689 183.689888 217.875855 184.351816 220.659663 184.351816 
z
" style="fill:#ff0000;opacity:0.2;stroke:#ff0000;stroke-linejoin:miter;stroke-width:2;"/>
   </g>
   <g id="patch_30">
    <path d="M 213.661735 150.846961 
Q 216.911688 163.48963 219.633501 174.077775 
" style="fill:none;opacity:0.5;stroke:#ff0000;stroke-linecap:round;stroke-width:3;"/>
    <path d="M 220.712817 172.251555 
L 219.633501 174.077775 
L 217.807282 172.998459 
" style="fill:none;opacity:0.5;stroke:#ff0000;stroke-linecap:round;stroke-width:3;"/>
   </g>
   <g id="[&quot;g_s&quot;:4,&quot;g_t&quot;:4,&quot;coords&quot;:[[271.0, -849.0],[283.0, -882.0]],&quot;certainty&quot;:6]">
    <path clip-path="url(#p8cf0276749)" d="M 294.137906 207.909917 
C 295.761794 207.909917 297.31939 207.523793 298.467653 206.836583 
C 299.615915 206.149373 300.261092 205.217185 300.261092 204.245324 
C 300.261092 203.273462 299.615915 202.341275 298.467653 201.654065 
C 297.31939 200.966855 295.761794 200.58073 294.137906 200.58073 
C 292.514017 200.58073 290.956421 200.966855 289.808159 201.654065 
C 288.659896 202.341275 288.014719 203.273462 288.014719 204.245324 
C 288.014719 205.217185 288.659896 206.149373 289.808159 206.836583 
C 290.956421 207.523793 292.514017 207.909917 294.137906 207.909917 
z
" style="fill:#0000ff;opacity:0.2;stroke:#0000ff;stroke-linejoin:miter;stroke-width:2;"/>
   </g>
   <g id="[&quot;g_s&quot;:4,&quot;g_t&quot;:4,&quot;coords&quot;:[[283.0, -882.0],[271.0, -849.0]],&quot;certainty&quot;:6]">
    <path clip-path="url(#p8cf0276749)" d="M 315.131689 242.461799 
C 316.755577 242.461799 318.313174 242.075675 319.461436 241.388465 
C 320.609698 240.701255 321.254876 239.769067 321.254876 238.797206 
C 321.254876 237.825344 320.609698 236.893157 319.461436 236.205947 
C 318.313174 235.518737 316.755577 235.132612 315.131689 235.132612 
C 313.507801 235.132612 311.950205 235.518737 310.801942 236.205947 
C 309.65368 236.893157 309.008502 237.825344 309.008502 238.797206 
C 309.008502 239.769067 309.65368 240.701255 310.801942 241.388465 
C 311.950205 242.075675 313.507801 242.461799 315.131689 242.461799 
z
" style="fill:#ff0000;opacity:0.2;stroke:#ff0000;stroke-linejoin:miter;stroke-width:2;"/>
   </g>
   <g id="patch_31">
    <path d="M 294.137906 204.245324 
Q 304.115847 220.667169 313.451231 236.031483 
" style="fill:none;opacity:0.5;stroke:#ff0000;stroke-linecap:round;stroke-width:1.75;"/>
    <path d="M 313.954255 233.970666 
L 313.451231 236.031483 
L 311.390414 235.52846 
" style="fill:none;opacity:0.5;stroke:#ff0000;stroke-linecap:round;stroke-width:1.75;"/>
   </g>
   <g id="[&quot;g_s&quot;:5,&quot;g_t&quot;:5,&quot;coords&quot;:[[320.0, -834.0],[336.0, -871.0]],&quot;certainty&quot;:6]">
    <path clip-path="url(#p8cf0276749)" d="M 379.862522 192.204516 
C 381.48641 192.204516 383.044007 191.818392 384.192269 191.131182 
C 385.340531 190.443972 385.985709 189.511784 385.985709 188.539923 
C 385.985709 187.568061 385.340531 186.635874 384.192269 185.948664 
C 383.044007 185.261454 381.48641 184.875329 379.862522 184.875329 
C 378.238634 184.875329 376.681037 185.261454 375.532775 185.948664 
C 374.384513 186.635874 373.739335 187.568061 373.739335 188.539923 
C 373.739335 189.511784 374.384513 190.443972 375.532775 191.131182 
C 376.681037 191.818392 378.238634 192.204516 379.862522 192.204516 
z
" style="fill:#0000ff;opacity:0.2;stroke:#0000ff;stroke-linejoin:miter;stroke-width:2;"/>
   </g>
   <g id="[&quot;g_s&quot;:5,&quot;g_t&quot;:5,&quot;coords&quot;:[[336.0, -871.0],[320.0, -834.0]],&quot;certainty&quot;:6]">
    <path clip-path="url(#p8cf0276749)" d="M 407.854233 230.944505 
C 409.478122 230.944505 411.035718 230.558381 412.18398 229.871171 
C 413.332243 229.183961 413.97742 228.251773 413.97742 227.279912 
C 413.97742 226.30805 413.332243 225.375863 412.18398 224.688653 
C 411.035718 224.001443 409.478122 223.615318 407.854233 223.615318 
C 406.230345 223.615318 404.672749 224.001443 403.524486 224.688653 
C 402.376224 225.375863 401.731047 226.30805 401.731047 227.279912 
C 401.731047 228.251773 402.376224 229.183961 403.524486 229.871171 
C 404.672749 230.558381 406.230345 230.944505 407.854233 230.944505 
z
" style="fill:#ff0000;opacity:0.2;stroke:#ff0000;stroke-linejoin:miter;stroke-width:2;"/>
   </g>
   <g id="patch_32">
    <path d="M 379.862522 188.539923 
Q 393.273224 207.100076 405.9592 224.657222 
" style="fill:none;opacity:0.5;stroke:#ff0000;stroke-linecap:round;stroke-width:1.75;"/>
    <path d="M 406.296527 222.562894 
L 405.9592 224.657222 
L 403.864872 224.319895 
" style="fill:none;opacity:0.5;stroke:#ff0000;stroke-linecap:round;stroke-width:1.75;"/>
   </g>
   <g id="[&quot;g_s&quot;:6,&quot;g_t&quot;:6,&quot;coords&quot;:[[328.0, -851.0],[346.0, -890.0]],&quot;certainty&quot;:13]">
    <path clip-path="url(#p8cf0276749)" d="M 393.858378 213.668564 
C 397.106154 213.668564 400.221347 212.896315 402.517872 211.521895 
C 404.814396 210.147475 406.104751 208.2831 406.104751 206.339377 
C 406.104751 204.395654 404.814396 202.531279 402.517872 201.156859 
C 400.221347 199.78244 397.106154 199.01019 393.858378 199.01019 
C 390.610601 199.01019 387.495408 199.78244 385.198884 201.156859 
C 382.902359 202.531279 381.612004 204.395654 381.612004 206.339377 
C 381.612004 208.2831 382.902359 210.147475 385.198884 211.521895 
C 387.495408 212.896315 390.610601 213.668564 393.858378 213.668564 
z
" style="fill:#0000ff;opacity:0.2;stroke:#0000ff;stroke-linejoin:miter;stroke-width:2;"/>
   </g>
   <g id="[&quot;g_s&quot;:6,&quot;g_t&quot;:6,&quot;coords&quot;:[[346.0, -890.0],[328.0, -851.0]],&quot;certainty&quot;:13]">
    <path clip-path="url(#p8cf0276749)" d="M 425.349053 254.502607 
C 428.596829 254.502607 431.712022 253.730357 434.008547 252.355938 
C 436.305072 250.981518 437.595427 249.117143 437.595427 247.17342 
C 437.595427 245.229697 436.305072 243.365322 434.008547 241.990902 
C 431.712022 240.616482 428.596829 239.844233 425.349053 239.844233 
C 422.101277 239.844233 418.986084 240.616482 416.689559 241.990902 
C 414.393035 243.365322 413.102679 245.229697 413.102679 247.17342 
C 413.102679 249.117143 414.393035 250.981518 416.689559 252.355938 
C 418.986084 253.730357 422.101277 254.502607 425.349053 254.502607 
z
" style="fill:#ff0000;opacity:0.2;stroke:#ff0000;stroke-linejoin:miter;stroke-width:2;"/>
   </g>
   <g id="patch_33">
    <path d="M 393.858378 206.339377 
Q 408.993468 225.965089 422.617194 243.631011 
" style="fill:none;opacity:0.5;stroke:#ff0000;stroke-linecap:round;stroke-width:3.5;"/>
    <path d="M 422.888981 241.527174 
L 422.617194 243.631011 
L 420.513357 243.359224 
" style="fill:none;opacity:0.5;stroke:#ff0000;stroke-linecap:round;stroke-width:3.5;"/>
   </g>
   <g id="[&quot;g_s&quot;:7,&quot;g_t&quot;:7,&quot;coords&quot;:[[237.0, -896.0],[237.0, -945.0]],&quot;certainty&quot;:11]">
    <path clip-path="url(#p8cf0276749)" d="M 234.655519 259.73774 
C 237.439327 259.73774 240.109492 259.075812 242.077942 257.897738 
C 244.046392 256.719664 245.15241 255.121628 245.15241 253.45558 
C 245.15241 251.789532 244.046392 250.191496 242.077942 249.013422 
C 240.109492 247.835348 237.439327 247.17342 234.655519 247.17342 
C 231.87171 247.17342 229.201545 247.835348 227.233095 249.013422 
C 225.264646 250.191496 224.158627 251.789532 224.158627 253.45558 
C 224.158627 255.121628 225.264646 256.719664 227.233095 257.897738 
C 229.201545 259.075812 231.87171 259.73774 234.655519 259.73774 
z
" style="fill:#0000ff;opacity:0.2;stroke:#0000ff;stroke-linejoin:miter;stroke-width:2;"/>
   </g>
   <g id="[&quot;g_s&quot;:7,&quot;g_t&quot;:7,&quot;coords&quot;:[[237.0, -945.0],[237.0, -896.0]],&quot;certainty&quot;:11]">
    <path clip-path="url(#p8cf0276749)" d="M 234.655519 311.04205 
C 237.439327 311.04205 240.109492 310.380122 242.077942 309.202048 
C 244.046392 308.023974 245.15241 306.425938 245.15241 304.75989 
C 245.15241 303.093841 244.046392 301.495806 242.077942 300.317732 
C 240.109492 299.139657 237.439327 298.477729 234.655519 298.477729 
C 231.87171 298.477729 229.201545 299.139657 227.233095 300.317732 
C 225.264646 301.495806 224.158627 303.093841 224.158627 304.75989 
C 224.158627 306.425938 225.264646 308.023974 227.233095 309.202048 
C 229.201545 310.380122 231.87171 311.04205 234.655519 311.04205 
z
" style="fill:#ff0000;opacity:0.2;stroke:#ff0000;stroke-linejoin:miter;stroke-width:2;"/>
   </g>
   <g id="patch_34">
    <path d="M 234.655519 253.45558 
Q 234.655519 278.107263 234.655519 300.637626 
" style="fill:none;opacity:0.5;stroke:#ff0000;stroke-linecap:round;stroke-width:3;"/>
    <path d="M 236.155519 299.137626 
L 234.655519 300.637626 
L 233.155519 299.137626 
" style="fill:none;opacity:0.5;stroke:#ff0000;stroke-linecap:round;stroke-width:3;"/>
   </g>
   <g id="[&quot;g_s&quot;:8,&quot;g_t&quot;:8,&quot;coords&quot;:[[155.0, -823.0],[137.0, -855.0]],&quot;certainty&quot;:11]">
    <path clip-path="url(#p8cf0276749)" d="M 91.197997 183.304789 
C 93.981806 183.304789 96.651971 182.642861 98.620421 181.464787 
C 100.58887 180.286713 101.694889 178.688677 101.694889 177.022629 
C 101.694889 175.356581 100.58887 173.758545 98.620421 172.580471 
C 96.651971 171.402397 93.981806 170.740469 91.197997 170.740469 
C 88.414189 170.740469 85.744024 171.402397 83.775574 172.580471 
C 81.807124 173.758545 80.701106 175.356581 80.701106 177.022629 
C 80.701106 178.688677 81.807124 180.286713 83.775574 181.464787 
C 85.744024 182.642861 88.414189 183.304789 91.197997 183.304789 
z
" style="fill:#0000ff;opacity:0.2;stroke:#0000ff;stroke-linejoin:miter;stroke-width:2;"/>
   </g>
   <g id="[&quot;g_s&quot;:8,&quot;g_t&quot;:8,&quot;coords&quot;:[[137.0, -855.0],[155.0, -823.0]],&quot;certainty&quot;:11]">
    <path clip-path="url(#p8cf0276749)" d="M 59.707322 216.809645 
C 62.49113 216.809645 65.161296 216.147717 67.129745 214.969642 
C 69.098195 213.791568 70.204214 212.193533 70.204214 210.527484 
C 70.204214 208.861436 69.098195 207.2634 67.129745 206.085326 
C 65.161296 204.907252 62.49113 204.245324 59.707322 204.245324 
C 56.923514 204.245324 54.253348 204.907252 52.284899 206.085326 
C 50.316449 207.2634 49.21043 208.861436 49.21043 210.527484 
C 49.21043 212.193533 50.316449 213.791568 52.284899 214.969642 
C 54.253348 216.147717 56.923514 216.809645 59.707322 216.809645 
z
" style="fill:#ff0000;opacity:0.2;stroke:#ff0000;stroke-linejoin:miter;stroke-width:2;"/>
   </g>
   <g id="patch_35">
    <path d="M 91.197997 177.022629 
Q 76.137866 193.046023 62.530553 207.523675 
" style="fill:none;opacity:0.5;stroke:#ff0000;stroke-linecap:round;stroke-width:3;"/>
    <path d="M 64.650856 207.457968 
L 62.530553 207.523675 
L 62.464846 205.403373 
" style="fill:none;opacity:0.5;stroke:#ff0000;stroke-linecap:round;stroke-width:3;"/>
   </g>
   <g id="patch_36">
    <path clip-path="url(#p8cf0276749)" d="M 294.137906 36.197534 
C 296.457746 36.197534 298.682884 35.645927 300.323258 34.664199 
C 301.963633 33.68247 302.885315 32.350774 302.885315 30.9624 
C 302.885315 29.574027 301.963633 28.24233 300.323258 27.260602 
C 298.682884 26.278873 296.457746 25.727267 294.137906 25.727267 
C 291.818065 25.727267 289.592927 26.278873 287.952553 27.260602 
C 286.312178 28.24233 285.390496 29.574027 285.390496 30.9624 
C 285.390496 32.350774 286.312178 33.68247 287.952553 34.664199 
C 289.592927 35.645927 291.818065 36.197534 294.137906 36.197534 
z
" style="fill:#008000;opacity:0.2;stroke:#008000;stroke-linejoin:miter;stroke-width:2;"/>
   </g>
   <g id="patch_37">
    <path clip-path="url(#p8cf0276749)" d="M 346.622365 36.197534 
C 348.942205 36.197534 351.167343 35.645927 352.807717 34.664199 
C 354.448092 33.68247 355.369774 32.350774 355.369774 30.9624 
C 355.369774 29.574027 354.448092 28.24233 352.807717 27.260602 
C 351.167343 26.278873 348.942205 25.727267 346.622365 25.727267 
C 344.302524 25.727267 342.077386 26.278873 340.437012 27.260602 
C 338.796637 28.24233 337.874955 29.574027 337.874955 30.9624 
C 337.874955 32.350774 338.796637 33.68247 340.437012 34.664199 
C 342.077386 35.645927 344.302524 36.197534 346.622365 36.197534 
z
" style="fill:#008000;opacity:0.2;stroke:#008000;stroke-linejoin:miter;stroke-width:2;"/>
   </g>
   <g id="patch_38">
    <path clip-path="url(#p8cf0276749)" d="M 217.160699 169.693442 
C 219.480539 169.693442 221.705677 169.141835 223.346052 168.160107 
C 224.986427 167.178378 225.908109 165.846682 225.908109 164.458308 
C 225.908109 163.069935 224.986427 161.738238 223.346052 160.75651 
C 221.705677 159.774781 219.480539 159.223175 217.160699 159.223175 
C 214.840859 159.223175 212.615721 159.774781 210.975346 160.75651 
C 209.334971 161.738238 208.413289 163.069935 208.413289 164.458308 
C 208.413289 165.846682 209.334971 167.178378 210.975346 168.160107 
C 212.615721 169.141835 214.840859 169.693442 217.160699 169.693442 
z
" style="fill:#008000;opacity:0.2;stroke:#008000;stroke-linejoin:miter;stroke-width:2;"/>
   </g>
   <g id="patch_39">
    <path clip-path="url(#p8cf0276749)" d="M 304.634797 226.756398 
C 306.954638 226.756398 309.179775 226.204792 310.82015 225.223063 
C 312.460525 224.241335 313.382207 222.909639 313.382207 221.521265 
C 313.382207 220.132891 312.460525 218.801195 310.82015 217.819466 
C 309.179775 216.837738 306.954638 216.286131 304.634797 216.286131 
C 302.314957 216.286131 300.089819 216.837738 298.449445 217.819466 
C 296.80907 218.801195 295.887388 220.132891 295.887388 221.521265 
C 295.887388 222.909639 296.80907 224.241335 298.449445 225.223063 
C 300.089819 226.204792 302.314957 226.756398 304.634797 226.756398 
z
" style="fill:#008000;opacity:0.2;stroke:#008000;stroke-linejoin:miter;stroke-width:2;"/>
   </g>
   <g id="patch_40">
    <path clip-path="url(#p8cf0276749)" d="M 393.858378 213.145051 
C 396.178218 213.145051 398.403356 212.593444 400.043731 211.611716 
C 401.684105 210.629987 402.605788 209.298291 402.605788 207.909917 
C 402.605788 206.521544 401.684105 205.189847 400.043731 204.208119 
C 398.403356 203.22639 396.178218 202.674784 393.858378 202.674784 
C 391.538537 202.674784 389.3134 203.22639 387.673025 204.208119 
C 386.03265 205.189847 385.110968 206.521544 385.110968 207.909917 
C 385.110968 209.298291 386.03265 210.629987 387.673025 211.611716 
C 389.3134 212.593444 391.538537 213.145051 393.858378 213.145051 
z
" style="fill:#008000;opacity:0.2;stroke:#008000;stroke-linejoin:miter;stroke-width:2;"/>
   </g>
   <g id="patch_41">
    <path clip-path="url(#p8cf0276749)" d="M 409.603715 231.991532 
C 411.923556 231.991532 414.148693 231.439925 415.789068 230.458197 
C 417.429443 229.476469 418.351125 228.144772 418.351125 226.756398 
C 418.351125 225.368025 417.429443 224.036328 415.789068 223.0546 
C 414.148693 222.072872 411.923556 221.521265 409.603715 221.521265 
C 407.283875 221.521265 405.058737 222.072872 403.418363 223.0546 
C 401.777988 224.036328 400.856306 225.368025 400.856306 226.756398 
C 400.856306 228.144772 401.777988 229.476469 403.418363 230.458197 
C 405.058737 231.439925 407.283875 231.991532 409.603715 231.991532 
z
" style="fill:#008000;opacity:0.2;stroke:#008000;stroke-linejoin:miter;stroke-width:2;"/>
   </g>
   <g id="patch_42">
    <path clip-path="url(#p8cf0276749)" d="M 234.655519 284.342869 
C 236.975359 284.342869 239.200497 283.791262 240.840871 282.809533 
C 242.481246 281.827805 243.402928 280.496109 243.402928 279.107735 
C 243.402928 277.719361 242.481246 276.387665 240.840871 275.405936 
C 239.200497 274.424208 236.975359 273.872601 234.655519 273.872601 
C 232.335678 273.872601 230.110541 274.424208 228.470166 275.405936 
C 226.829791 276.387665 225.908109 277.719361 225.908109 279.107735 
C 225.908109 280.496109 226.829791 281.827805 228.470166 282.809533 
C 230.110541 283.791262 232.335678 284.342869 234.655519 284.342869 
z
" style="fill:#008000;opacity:0.2;stroke:#008000;stroke-linejoin:miter;stroke-width:2;"/>
   </g>
   <g id="patch_43">
    <path clip-path="url(#p8cf0276749)" d="M 75.45266 199.01019 
C 77.7725 199.01019 79.997638 198.458583 81.638012 197.476855 
C 83.278387 196.495127 84.200069 195.16343 84.200069 193.775057 
C 84.200069 192.386683 83.278387 191.054987 81.638012 190.073258 
C 79.997638 189.09153 77.7725 188.539923 75.45266 188.539923 
C 73.132819 188.539923 70.907682 189.09153 69.267307 190.073258 
C 67.626932 191.054987 66.70525 192.386683 66.70525 193.775057 
C 66.70525 195.16343 67.626932 196.495127 69.267307 197.476855 
C 70.907682 198.458583 73.132819 199.01019 75.45266 199.01019 
z
" style="fill:#008000;opacity:0.2;stroke:#008000;stroke-linejoin:miter;stroke-width:2;"/>
   </g>
   <g id="patch_44">
    <path clip-path="url(#p8cf0276749)" d="M 302.885315 53.473475 
C 312.164676 53.473475 321.065228 51.267048 327.626727 47.340134 
C 334.188226 43.413221 337.874955 38.086435 337.874955 32.53294 
C 337.874955 26.979446 334.188226 21.65266 327.626727 17.725746 
C 321.065228 13.798833 312.164676 11.592406 302.885315 11.592406 
C 293.605955 11.592406 284.705403 13.798833 278.143904 17.725746 
C 271.582405 21.65266 267.895676 26.979446 267.895676 32.53294 
C 267.895676 38.086435 271.582405 43.413221 278.143904 47.340134 
C 284.705403 51.267048 293.605955 53.473475 302.885315 53.473475 
z
" style="fill:none;opacity:0.2;stroke:#ff0000;stroke-linejoin:miter;stroke-width:2;"/>
   </g>
   <g id="patch_45">
    <path clip-path="url(#p8cf0276749)" d="M 285.390496 50.332395 
C 294.669857 50.332395 303.570408 48.125968 310.131907 44.199054 
C 316.693406 40.272141 320.380135 34.945355 320.380135 29.39186 
C 320.380135 23.838366 316.693406 18.51158 310.131907 14.584666 
C 303.570408 10.657753 294.669857 8.451326 285.390496 8.451326 
C 276.111135 8.451326 267.210583 10.657753 260.649084 14.584666 
C 254.087585 18.51158 250.400856 23.838366 250.400856 29.39186 
C 250.400856 34.945355 254.087585 40.272141 260.649084 44.199054 
C 267.210583 48.125968 276.111135 50.332395 285.390496 50.332395 
z
" style="fill:none;opacity:0.2;stroke:#0000ff;stroke-linejoin:miter;stroke-width:2;"/>
   </g>
   <g id="patch_46">
    <path clip-path="url(#p8cf0276749)" d="M 302.885315 43.003208 
C 307.524996 43.003208 311.975272 41.899994 315.256021 39.936537 
C 318.53677 37.973081 320.380135 35.309688 320.380135 32.53294 
C 320.380135 29.756193 318.53677 27.0928 315.256021 25.129343 
C 311.975272 23.165887 307.524996 22.062673 302.885315 22.062673 
C 298.245635 22.062673 293.795359 23.165887 290.51461 25.129343 
C 287.23386 27.0928 285.390496 29.756193 285.390496 32.53294 
C 285.390496 35.309688 287.23386 37.973081 290.51461 39.936537 
C 293.795359 41.899994 298.245635 43.003208 302.885315 43.003208 
z
" style="fill:none;opacity:0.2;stroke:#008000;stroke-linejoin:miter;stroke-width:2;"/>
   </g>
   <g id="patch_47">
    <path clip-path="url(#p8cf0276749)" d="M 285.390496 39.862128 
C 290.030176 39.862128 294.480452 38.758914 297.761201 36.795457 
C 301.041951 34.832 302.885315 32.168608 302.885315 29.39186 
C 302.885315 26.615113 301.041951 23.95172 297.761201 21.988263 
C 294.480452 20.024806 290.030176 18.921593 285.390496 18.921593 
C 280.750815 18.921593 276.30054 20.024806 273.01979 21.988263 
C 269.739041 23.95172 267.895676 26.615113 267.895676 29.39186 
C 267.895676 32.168608 269.739041 34.832 273.01979 36.795457 
C 276.30054 38.758914 280.750815 39.862128 285.390496 39.862128 
z
" style="fill:none;opacity:0.2;stroke:#008000;stroke-linejoin:miter;stroke-width:2;"/>
   </g>
   <g id="patch_48">
    <path d="M 294.137906 30.9624 
Q 320.380135 30.9624 346.622365 30.9624 
" style="fill:none;opacity:0.5;stroke:#008000;stroke-linecap:round;stroke-width:2;"/>
   </g>
   <g id="patch_49">
    <path d="M 301.493359 32.283024 
Q 295.122416 31.139163 288.751473 29.995302 
" style="fill:none;opacity:0.5;stroke:#800080;stroke-linecap:round;stroke-width:2;"/>
    <path d="M 300.282044 30.541555 
L 301.493359 32.283024 
L 299.75189 33.49434 
" style="fill:none;opacity:0.5;stroke:#800080;stroke-linecap:round;stroke-width:2;"/>
    <path d="M 289.962789 31.736771 
L 288.751473 29.995302 
L 290.492942 28.783986 
" style="fill:none;opacity:0.5;stroke:#800080;stroke-linecap:round;stroke-width:2;"/>
   </g>
   <g id="patch_50">
    <path d="M 346.622365 30.9624 
Q 346.622365 30.9624 346.622365 30.9624 
" style="fill:none;opacity:0.5;stroke:#008000;stroke-linecap:round;stroke-width:2;"/>
   </g>
   <g id="patch_51">
    <path d="M 366.205875 32.427438 
Q 347.620543 31.037074 329.035211 29.646709 
" style="fill:none;opacity:0.5;stroke:#800080;stroke-linecap:round;stroke-width:2;"/>
    <path d="M 364.821957 30.819716 
L 366.205875 32.427438 
L 364.598153 33.811356 
" style="fill:none;opacity:0.5;stroke:#800080;stroke-linecap:round;stroke-width:2;"/>
    <path d="M 330.419129 31.254432 
L 329.035211 29.646709 
L 330.642933 28.262791 
" style="fill:none;opacity:0.5;stroke:#800080;stroke-linecap:round;stroke-width:2;"/>
   </g>
   <g id="patch_52">
    <path d="M 346.622365 30.9624 
Q 281.891532 97.710354 217.160699 164.458308 
" style="fill:none;opacity:0.5;stroke:#008000;stroke-linecap:round;stroke-width:2;"/>
   </g>
   <g id="patch_53">
    <path d="M 366.205875 32.427438 
Q 347.620543 31.037074 329.035211 29.646709 
" style="fill:none;opacity:0.5;stroke:#800080;stroke-linecap:round;stroke-width:2;"/>
    <path d="M 364.821957 30.819716 
L 366.205875 32.427438 
L 364.598153 33.811356 
" style="fill:none;opacity:0.5;stroke:#800080;stroke-linecap:round;stroke-width:2;"/>
    <path d="M 330.419129 31.254432 
L 329.035211 29.646709 
L 330.642933 28.262791 
" style="fill:none;opacity:0.5;stroke:#800080;stroke-linecap:round;stroke-width:2;"/>
   </g>
   <g id="patch_54">
    <path d="M 217.160699 164.458308 
Q 260.897748 192.989787 304.634797 221.521265 
" style="fill:none;opacity:0.5;stroke:#008000;stroke-linecap:round;stroke-width:2;"/>
   </g>
   <g id="patch_55">
    <path d="M 220.307569 176.699973 
Q 217.40971 165.426987 214.51185 154.154 
" style="fill:none;opacity:0.5;stroke:#800080;stroke-linecap:round;stroke-width:2;"/>
    <path d="M 221.386885 174.873754 
L 220.307569 176.699973 
L 218.48135 175.620657 
" style="fill:none;opacity:0.5;stroke:#800080;stroke-linecap:round;stroke-width:2;"/>
    <path d="M 213.432534 155.98022 
L 214.51185 154.154 
L 216.33807 155.233316 
" style="fill:none;opacity:0.5;stroke:#800080;stroke-linecap:round;stroke-width:2;"/>
   </g>
   <g id="patch_56">
    <path d="M 304.634797 221.521265 
Q 349.246588 214.715591 393.858378 207.909917 
" style="fill:none;opacity:0.5;stroke:#008000;stroke-linecap:round;stroke-width:2;"/>
   </g>
   <g id="patch_57">
    <path d="M 314.397338 237.5886 
Q 305.153748 222.375361 295.910157 207.162122 
" style="fill:none;opacity:0.5;stroke:#800080;stroke-linecap:round;stroke-width:2;"/>
    <path d="M 314.900361 235.527783 
L 314.397338 237.5886 
L 312.336521 237.085577 
" style="fill:none;opacity:0.5;stroke:#800080;stroke-linecap:round;stroke-width:2;"/>
    <path d="M 295.407134 209.222939 
L 295.910157 207.162122 
L 297.970975 207.665146 
" style="fill:none;opacity:0.5;stroke:#800080;stroke-linecap:round;stroke-width:2;"/>
   </g>
   <g id="patch_58">
    <path d="M 393.858378 207.909917 
Q 401.731047 217.333158 409.603715 226.756398 
" style="fill:none;opacity:0.5;stroke:#008000;stroke-linecap:round;stroke-width:2;"/>
   </g>
   <g id="patch_59">
    <path d="M 407.025975 226.133619 
Q 394.443532 208.719759 381.861088 191.3059 
" style="fill:none;opacity:0.5;stroke:#800080;stroke-linecap:round;stroke-width:2;"/>
    <path d="M 407.363302 224.03929 
L 407.025975 226.133619 
L 404.931647 225.796291 
" style="fill:none;opacity:0.5;stroke:#800080;stroke-linecap:round;stroke-width:2;"/>
    <path d="M 381.523761 193.400228 
L 381.861088 191.3059 
L 383.955416 191.643227 
" style="fill:none;opacity:0.5;stroke:#800080;stroke-linecap:round;stroke-width:2;"/>
   </g>
   <g id="patch_60">
    <path d="M 409.603715 226.756398 
Q 322.129617 252.932067 234.655519 279.107735 
" style="fill:none;opacity:0.5;stroke:#008000;stroke-linecap:round;stroke-width:2;"/>
   </g>
   <g id="patch_61">
    <path d="M 424.485416 246.05354 
Q 410.213963 227.547708 395.942509 209.041876 
" style="fill:none;opacity:0.5;stroke:#800080;stroke-linecap:round;stroke-width:2;"/>
    <path d="M 424.757203 243.949702 
L 424.485416 246.05354 
L 422.381579 245.781752 
" style="fill:none;opacity:0.5;stroke:#800080;stroke-linecap:round;stroke-width:2;"/>
    <path d="M 395.670722 211.145713 
L 395.942509 209.041876 
L 398.046346 209.313663 
" style="fill:none;opacity:0.5;stroke:#800080;stroke-linecap:round;stroke-width:2;"/>
   </g>
   <g id="patch_62">
    <path d="M 234.655519 279.107735 
Q 155.054089 236.441396 75.45266 193.775057 
" style="fill:none;opacity:0.5;stroke:#008000;stroke-linecap:round;stroke-width:2;"/>
   </g>
   <g id="patch_63">
    <path d="M 234.655519 303.345676 
Q 234.655519 280.108207 234.655519 256.870737 
" style="fill:none;opacity:0.5;stroke:#800080;stroke-linecap:round;stroke-width:2;"/>
    <path d="M 236.155519 301.845676 
L 234.655519 303.345676 
L 233.155519 301.845676 
" style="fill:none;opacity:0.5;stroke:#800080;stroke-linecap:round;stroke-width:2;"/>
    <path d="M 233.155519 258.370737 
L 234.655519 256.870737 
L 236.155519 258.370737 
" style="fill:none;opacity:0.5;stroke:#800080;stroke-linecap:round;stroke-width:2;"/>
   </g>
   <g id="patch_64">
    <path d="M 75.45266 193.775057 
Q 184.795283 112.368728 294.137906 30.9624 
" style="fill:none;opacity:0.5;stroke:#008000;stroke-linecap:round;stroke-width:2;"/>
   </g>
   <g id="patch_65">
    <path d="M 60.675867 209.496989 
Q 74.767453 194.50409 88.859038 179.51119 
" style="fill:none;opacity:0.5;stroke:#800080;stroke-linecap:round;stroke-width:2;"/>
    <path d="M 62.79617 209.431282 
L 60.675867 209.496989 
L 60.61016 207.376687 
" style="fill:none;opacity:0.5;stroke:#800080;stroke-linecap:round;stroke-width:2;"/>
    <path d="M 86.738736 179.576897 
L 88.859038 179.51119 
L 88.924746 181.631493 
" style="fill:none;opacity:0.5;stroke:#800080;stroke-linecap:round;stroke-width:2;"/>
   </g>
   <g id="line2d_1">
    <path clip-path="url(#p8cf0276749)" d="M 302.885315 32.53294 
L 367.616148 32.53294 
L 220.659663 178.069656 
L 315.131689 238.797206 
L 407.854233 227.279912 
L 425.349053 247.17342 
L 234.655519 304.75989 
L 59.707322 210.527484 
" style="fill:none;stroke:#ff0000;stroke-linecap:square;stroke-width:0.2;"/>
   </g>
   <g id="line2d_2">
    <path clip-path="url(#p8cf0276749)" d="M 285.390496 29.39186 
L 325.628581 29.39186 
L 213.661735 150.846961 
L 294.137906 204.245324 
L 379.862522 188.539923 
L 393.858378 206.339377 
L 234.655519 253.45558 
L 91.197997 177.022629 
" style="fill:none;stroke:#0000ff;stroke-linecap:square;stroke-width:0.2;"/>
   </g>
  </g>
 </g>
 <defs>
  <clipPath id="p8cf0276749">
   <rect height="307.51175" width="409.903625" x="37.576375" y="13.32"/>
  </clipPath>
 </defs>
</svg>
