<?xml version="1.0" encoding="utf-8" standalone="no"?>
<!DOCTYPE svg PUBLIC "-//W3C//DTD SVG 1.1//EN"
  "http://www.w3.org/Graphics/SVG/1.1/DTD/svg11.dtd">
<!-- Created with matplotlib (http://matplotlib.org/) -->
<svg height="345.6pt" version="1.1" viewBox="0 0 460.8 345.6" width="460.8pt" xmlns="http://www.w3.org/2000/svg" xmlns:xlink="http://www.w3.org/1999/xlink">
 <defs>
  <style type="text/css">
*{stroke-linecap:butt;stroke-linejoin:round;}
  </style>
 </defs>
 <g id="figure_1">
  <g id="patch_1">
   <path d="M 0 345.6 
L 460.8 345.6 
L 460.8 0 
L 0 0 
z
" style="fill:#ffffff;"/>
  </g>
  <g id="axes_1">
   <g id="patch_2">
    <path clip-path="url(#p1328174c6d)" d="M 243.822075 69.998505 
C 244.09659 69.998505 244.359898 69.928205 244.554009 69.803088 
C 244.74812 69.67797 244.857185 69.50825 244.857185 69.331307 
C 244.857185 69.154364 244.74812 68.984644 244.554009 68.859527 
C 244.359898 68.734409 244.09659 68.664109 243.822075 68.664109 
C 243.547561 68.664109 243.284253 68.734409 243.090142 68.859527 
C 242.896031 68.984644 242.786965 69.154364 242.786965 69.331307 
C 242.786965 69.50825 242.896031 69.67797 243.090142 69.803088 
C 243.284253 69.928205 243.547561 69.998505 243.822075 69.998505 
z
" style="fill:#ff0000;opacity:0.2;stroke:#ff0000;stroke-linejoin:miter;stroke-width:2;"/>
   </g>
   <g id="patch_3">
    <path clip-path="url(#p1328174c6d)" d="M 425.483909 184.423034 
C 425.758423 184.423034 426.021731 184.352734 426.215842 184.227616 
C 426.409953 184.102498 426.519019 183.932778 426.519019 183.755835 
C 426.519019 183.578892 426.409953 183.409173 426.215842 183.284055 
C 426.021731 183.158937 425.758423 183.088637 425.483909 183.088637 
C 425.209395 183.088637 424.946087 183.158937 424.751976 183.284055 
C 424.557865 183.409173 424.448799 183.578892 424.448799 183.755835 
C 424.448799 183.932778 424.557865 184.102498 424.751976 184.227616 
C 424.946087 184.352734 425.209395 184.423034 425.483909 184.423034 
z
" style="fill:#ff0000;opacity:0.2;stroke:#ff0000;stroke-linejoin:miter;stroke-width:2;"/>
   </g>
   <g id="patch_4">
    <path clip-path="url(#p1328174c6d)" d="M 238.646524 300.849157 
C 238.921039 300.849157 239.184347 300.778857 239.378458 300.65374 
C 239.572569 300.528622 239.681635 300.358902 239.681635 300.181959 
C 239.681635 300.005016 239.572569 299.835296 239.378458 299.710178 
C 239.184347 299.585061 238.921039 299.514761 238.646524 299.514761 
C 238.37201 299.514761 238.108702 299.585061 237.914591 299.710178 
C 237.72048 299.835296 237.611414 300.005016 237.611414 300.181959 
C 237.611414 300.358902 237.72048 300.528622 237.914591 300.65374 
C 238.108702 300.778857 238.37201 300.849157 238.646524 300.849157 
z
" style="fill:#ff0000;opacity:0.2;stroke:#ff0000;stroke-linejoin:miter;stroke-width:2;"/>
   </g>
   <g id="patch_5">
    <path clip-path="url(#p1328174c6d)" d="M 59.054911 187.091827 
C 59.329425 187.091827 59.592733 187.021527 59.786844 186.89641 
C 59.980955 186.771292 60.090021 186.601572 60.090021 186.424629 
C 60.090021 186.247686 59.980955 186.077966 59.786844 185.952849 
C 59.592733 185.827731 59.329425 185.757431 59.054911 185.757431 
C 58.780396 185.757431 58.517089 185.827731 58.322977 185.952849 
C 58.128866 186.077966 58.019801 186.247686 58.019801 186.424629 
C 58.019801 186.601572 58.128866 186.771292 58.322977 186.89641 
C 58.517089 187.021527 58.780396 187.091827 59.054911 187.091827 
z
" style="fill:#ff0000;opacity:0.2;stroke:#ff0000;stroke-linejoin:miter;stroke-width:2;"/>
   </g>
   <g id="patch_6">
    <path clip-path="url(#p1328174c6d)" d="M 244.598408 300.849157 
C 244.872922 300.849157 245.13623 300.778857 245.330341 300.65374 
C 245.524452 300.528622 245.633518 300.358902 245.633518 300.181959 
C 245.633518 300.005016 245.524452 299.835296 245.330341 299.710178 
C 245.13623 299.585061 244.872922 299.514761 244.598408 299.514761 
C 244.323893 299.514761 244.060585 299.585061 243.866474 299.710178 
C 243.672363 299.835296 243.563298 300.005016 243.563298 300.181959 
C 243.563298 300.358902 243.672363 300.528622 243.866474 300.65374 
C 244.060585 300.778857 244.323893 300.849157 244.598408 300.849157 
z
" style="fill:#0000ff;opacity:0.2;stroke:#0000ff;stroke-linejoin:miter;stroke-width:2;"/>
   </g>
   <g id="patch_7">
    <path clip-path="url(#p1328174c6d)" d="M 60.348799 187.759026 
C 60.623313 187.759026 60.886621 187.688726 61.080732 187.563608 
C 61.274843 187.43849 61.383909 187.268771 61.383909 187.091827 
C 61.383909 186.914884 61.274843 186.745165 61.080732 186.620047 
C 60.886621 186.494929 60.623313 186.424629 60.348799 186.424629 
C 60.074284 186.424629 59.810976 186.494929 59.616865 186.620047 
C 59.422754 186.745165 59.313688 186.914884 59.313688 187.091827 
C 59.313688 187.268771 59.422754 187.43849 59.616865 187.563608 
C 59.810976 187.688726 60.074284 187.759026 60.348799 187.759026 
z
" style="fill:#0000ff;opacity:0.2;stroke:#0000ff;stroke-linejoin:miter;stroke-width:2;"/>
   </g>
   <g id="patch_8">
    <path clip-path="url(#p1328174c6d)" d="M 244.598408 69.998505 
C 244.872922 69.998505 245.13623 69.928205 245.330341 69.803088 
C 245.524452 69.67797 245.633518 69.50825 245.633518 69.331307 
C 245.633518 69.154364 245.524452 68.984644 245.330341 68.859527 
C 245.13623 68.734409 244.872922 68.664109 244.598408 68.664109 
C 244.323893 68.664109 244.060585 68.734409 243.866474 68.859527 
C 243.672363 68.984644 243.563298 69.154364 243.563298 69.331307 
C 243.563298 69.50825 243.672363 69.67797 243.866474 69.803088 
C 244.060585 69.928205 244.323893 69.998505 244.598408 69.998505 
z
" style="fill:#0000ff;opacity:0.2;stroke:#0000ff;stroke-linejoin:miter;stroke-width:2;"/>
   </g>
   <g id="patch_9">
    <path clip-path="url(#p1328174c6d)" d="M 424.190021 184.423034 
C 424.464536 184.423034 424.727844 184.352734 424.921955 184.227616 
C 425.116066 184.102498 425.225131 183.932778 425.225131 183.755835 
C 425.225131 183.578892 425.116066 183.409173 424.921955 183.284055 
C 424.727844 183.158937 424.464536 183.088637 424.190021 183.088637 
C 423.915507 183.088637 423.652199 183.158937 423.458088 183.284055 
C 423.263977 183.409173 423.154911 183.578892 423.154911 183.755835 
C 423.154911 183.932778 423.263977 184.102498 423.458088 184.227616 
C 423.652199 184.352734 423.915507 184.423034 424.190021 184.423034 
z
" style="fill:#0000ff;opacity:0.2;stroke:#0000ff;stroke-linejoin:miter;stroke-width:2;"/>
   </g>
   <g id="patch_10">
    <path clip-path="url(#p1328174c6d)" d="M 243.822075 69.331307 
C 351.473532 69.331307 425.483909 116.035196 425.483909 183.755835 
C 425.483909 256.480463 349.920867 300.181959 238.646524 300.181959 
C 134.617953 300.181959 59.054911 256.146864 59.054911 186.424629 
C 59.054911 120.371986 135.653063 69.331307 243.822075 69.331307 
" style="fill:none;stroke:#ff0000;stroke-linejoin:miter;stroke-width:0.5;"/>
   </g>
   <g id="patch_11">
    <path clip-path="url(#p1328174c6d)" d="M 244.598408 300.181959 
C 129.70118 300.181959 60.348799 247.139685 60.348799 187.091827 
C 60.348799 120.371986 137.982061 69.331307 244.598408 69.331307 
C 364.153632 69.331307 424.190021 125.042375 424.190021 183.755835 
C 424.190021 251.142875 344.486539 300.181959 244.598408 300.181959 
" style="fill:none;stroke:#0000ff;stroke-linejoin:miter;stroke-width:0.5;"/>
   </g>
   <g id="[&quot;g_s&quot;:1,&quot;g_t&quot;:3,&quot;coords&quot;:[[447.0, -24.0],[448.5, -24.0]],&quot;certainty&quot;:11]">
    <path clip-path="url(#p1328174c6d)" d="M 243.822075 71.332902 
C 244.645618 71.332902 245.435542 71.122002 246.017875 70.746649 
C 246.600208 70.371296 246.927406 69.862136 246.927406 69.331307 
C 246.927406 68.800478 246.600208 68.291318 246.017875 67.915965 
C 245.435542 67.540612 244.645618 67.329712 243.822075 67.329712 
C 242.998532 67.329712 242.208608 67.540612 241.626275 67.915965 
C 241.043942 68.291318 240.716745 68.800478 240.716745 69.331307 
C 240.716745 69.862136 241.043942 70.371296 241.626275 70.746649 
C 242.208608 71.122002 242.998532 71.332902 243.822075 71.332902 
z
" style="fill:#0000ff;opacity:0.2;stroke:#0000ff;stroke-linejoin:miter;stroke-width:2;"/>
   </g>
   <g id="[&quot;g_s&quot;:3,&quot;g_t&quot;:1,&quot;coords&quot;:[[448.5, -24.0],[447.0, -24.0]],&quot;certainty&quot;:11]">
    <path clip-path="url(#p1328174c6d)" d="M 244.598408 71.332902 
C 245.421951 71.332902 246.211875 71.122002 246.794208 70.746649 
C 247.376541 70.371296 247.703738 69.862136 247.703738 69.331307 
C 247.703738 68.800478 247.376541 68.291318 246.794208 67.915965 
C 246.211875 67.540612 245.421951 67.329712 244.598408 67.329712 
C 243.774865 67.329712 242.984941 67.540612 242.402608 67.915965 
C 241.820275 68.291318 241.493077 68.800478 241.493077 69.331307 
C 241.493077 69.862136 241.820275 70.371296 242.402608 70.746649 
C 242.984941 71.122002 243.774865 71.332902 244.598408 71.332902 
z
" style="fill:#ff0000;opacity:0.2;stroke:#ff0000;stroke-linejoin:miter;stroke-width:2;"/>
   </g>
   <g id="patch_12">
    <path d="M 243.822075 69.331307 
Q 244.210242 69.331307 242.477087 69.331307 
" style="fill:none;opacity:0.5;stroke:#0000ff;stroke-linecap:round;stroke-width:3;"/>
    <path d="M 240.977087 67.831307 
L 242.477087 69.331307 
L 240.977087 70.831307 
" style="fill:none;opacity:0.5;stroke:#0000ff;stroke-linecap:round;stroke-width:3;"/>
   </g>
   <g id="[&quot;g_s&quot;:2,&quot;g_t&quot;:4,&quot;coords&quot;:[[798.0, -367.0],[795.5, -367.0]],&quot;certainty&quot;:12]">
    <path clip-path="url(#p1328174c6d)" d="M 425.483909 185.92423 
C 426.376081 185.92423 427.231832 185.695754 427.862693 185.289122 
C 428.493553 184.88249 428.848017 184.3309 428.848017 183.755835 
C 428.848017 183.18077 428.493553 182.629181 427.862693 182.222549 
C 427.231832 181.815916 426.376081 181.587441 425.483909 181.587441 
C 424.591737 181.587441 423.735986 181.815916 423.105125 182.222549 
C 422.474265 182.629181 422.119801 183.18077 422.119801 183.755835 
C 422.119801 184.3309 422.474265 184.88249 423.105125 185.289122 
C 423.735986 185.695754 424.591737 185.92423 425.483909 185.92423 
z
" style="fill:#0000ff;opacity:0.2;stroke:#0000ff;stroke-linejoin:miter;stroke-width:2;"/>
   </g>
   <g id="[&quot;g_s&quot;:4,&quot;g_t&quot;:2,&quot;coords&quot;:[[795.5, -367.0],[798.0, -367.0]],&quot;certainty&quot;:12]">
    <path clip-path="url(#p1328174c6d)" d="M 424.190021 185.92423 
C 425.082193 185.92423 425.937944 185.695754 426.568805 185.289122 
C 427.199666 184.88249 427.554129 184.3309 427.554129 183.755835 
C 427.554129 183.18077 427.199666 182.629181 426.568805 182.222549 
C 425.937944 181.815916 425.082193 181.587441 424.190021 181.587441 
C 423.297849 181.587441 422.442098 181.815916 421.811238 182.222549 
C 421.180377 182.629181 420.825913 183.18077 420.825913 183.755835 
C 420.825913 184.3309 421.180377 184.88249 421.811238 185.289122 
C 422.442098 185.695754 423.297849 185.92423 424.190021 185.92423 
z
" style="fill:#ff0000;opacity:0.2;stroke:#ff0000;stroke-linejoin:miter;stroke-width:2;"/>
   </g>
   <g id="patch_13">
    <path d="M 425.483909 183.755835 
Q 424.836965 183.755835 426.488118 183.755835 
" style="fill:none;opacity:0.5;stroke:#0000ff;stroke-linecap:round;stroke-width:3.25;"/>
    <path d="M 427.988118 185.255835 
L 426.488118 183.755835 
L 427.988118 182.255835 
" style="fill:none;opacity:0.5;stroke:#0000ff;stroke-linecap:round;stroke-width:3.25;"/>
   </g>
   <g id="[&quot;g_s&quot;:3,&quot;g_t&quot;:1,&quot;coords&quot;:[[437.0, -716.0],[448.5, -716.0]],&quot;certainty&quot;:11]">
    <path clip-path="url(#p1328174c6d)" d="M 238.646524 302.183554 
C 239.470068 302.183554 240.259992 301.972654 240.842325 301.597301 
C 241.424658 301.221948 241.751855 300.712788 241.751855 300.181959 
C 241.751855 299.65113 241.424658 299.14197 240.842325 298.766617 
C 240.259992 298.391264 239.470068 298.180364 238.646524 298.180364 
C 237.822981 298.180364 237.033057 298.391264 236.450724 298.766617 
C 235.868391 299.14197 235.541194 299.65113 235.541194 300.181959 
C 235.541194 300.712788 235.868391 301.221948 236.450724 301.597301 
C 237.033057 301.972654 237.822981 302.183554 238.646524 302.183554 
z
" style="fill:#0000ff;opacity:0.2;stroke:#0000ff;stroke-linejoin:miter;stroke-width:2;"/>
   </g>
   <g id="[&quot;g_s&quot;:1,&quot;g_t&quot;:3,&quot;coords&quot;:[[448.5, -716.0],[437.0, -716.0]],&quot;certainty&quot;:11]">
    <path clip-path="url(#p1328174c6d)" d="M 244.598408 302.183554 
C 245.421951 302.183554 246.211875 301.972654 246.794208 301.597301 
C 247.376541 301.221948 247.703738 300.712788 247.703738 300.181959 
C 247.703738 299.65113 247.376541 299.14197 246.794208 298.766617 
C 246.211875 298.391264 245.421951 298.180364 244.598408 298.180364 
C 243.774865 298.180364 242.984941 298.391264 242.402608 298.766617 
C 241.820275 299.14197 241.493077 299.65113 241.493077 300.181959 
C 241.493077 300.712788 241.820275 301.221948 242.402608 301.597301 
C 242.984941 301.972654 243.774865 302.183554 244.598408 302.183554 
z
" style="fill:#ff0000;opacity:0.2;stroke:#ff0000;stroke-linejoin:miter;stroke-width:2;"/>
   </g>
   <g id="patch_14">
    <path d="M 238.646524 300.181959 
Q 240.621283 300.181959 240.47472 300.181959 
" style="fill:none;opacity:0.5;stroke:#0000ff;stroke-linecap:round;stroke-width:3;"/>
    <path d="M 238.97472 298.681959 
L 240.47472 300.181959 
L 238.97472 301.681959 
" style="fill:none;opacity:0.5;stroke:#0000ff;stroke-linecap:round;stroke-width:3;"/>
   </g>
   <g id="[&quot;g_s&quot;:4,&quot;g_t&quot;:2,&quot;coords&quot;:[[90.0, -375.0],[92.5, -377.0]],&quot;certainty&quot;:10]">
    <path clip-path="url(#p1328174c6d)" d="M 59.054911 188.259425 
C 59.809826 188.259425 60.533923 188.066099 61.067728 187.722026 
C 61.601533 187.377952 61.901464 186.911223 61.901464 186.424629 
C 61.901464 185.938036 61.601533 185.471306 61.067728 185.127233 
C 60.533923 184.783159 59.809826 184.589833 59.054911 184.589833 
C 58.299996 184.589833 57.575899 184.783159 57.042094 185.127233 
C 56.508289 185.471306 56.208358 185.938036 56.208358 186.424629 
C 56.208358 186.911223 56.508289 187.377952 57.042094 187.722026 
C 57.575899 188.066099 58.299996 188.259425 59.054911 188.259425 
z
" style="fill:#0000ff;opacity:0.2;stroke:#0000ff;stroke-linejoin:miter;stroke-width:2;"/>
   </g>
   <g id="[&quot;g_s&quot;:2,&quot;g_t&quot;:4,&quot;coords&quot;:[[92.5, -377.0],[90.0, -375.0]],&quot;certainty&quot;:10]">
    <path clip-path="url(#p1328174c6d)" d="M 60.348799 188.926623 
C 61.103713 188.926623 61.82781 188.733297 62.361616 188.389224 
C 62.895421 188.04515 63.195352 187.578421 63.195352 187.091827 
C 63.195352 186.605234 62.895421 186.138505 62.361616 185.794431 
C 61.82781 185.450357 61.103713 185.257032 60.348799 185.257032 
C 59.593884 185.257032 58.869787 185.450357 58.335982 185.794431 
C 57.802176 186.138505 57.502246 186.605234 57.502246 187.091827 
C 57.502246 187.578421 57.802176 188.04515 58.335982 188.389224 
C 58.869787 188.733297 59.593884 188.926623 60.348799 188.926623 
z
" style="fill:#ff0000;opacity:0.2;stroke:#ff0000;stroke-linejoin:miter;stroke-width:2;"/>
   </g>
   <g id="patch_15">
    <path d="M 59.054911 186.424629 
Q 59.701855 186.758228 58.620502 186.200625 
" style="fill:none;opacity:0.5;stroke:#0000ff;stroke-linecap:round;stroke-width:2.75;"/>
    <path d="M 57.974778 184.179971 
L 58.620502 186.200625 
L 56.599849 186.846349 
" style="fill:none;opacity:0.5;stroke:#0000ff;stroke-linecap:round;stroke-width:2.75;"/>
   </g>
   <g id="[&quot;g_s&quot;:1,&quot;g_t&quot;:3,&quot;coords&quot;:[[448.5, -716.0],[437.0, -716.0]],&quot;certainty&quot;:11]">
    <path clip-path="url(#p1328174c6d)" d="M 244.598408 302.183554 
C 245.421951 302.183554 246.211875 301.972654 246.794208 301.597301 
C 247.376541 301.221948 247.703738 300.712788 247.703738 300.181959 
C 247.703738 299.65113 247.376541 299.14197 246.794208 298.766617 
C 246.211875 298.391264 245.421951 298.180364 244.598408 298.180364 
C 243.774865 298.180364 242.984941 298.391264 242.402608 298.766617 
C 241.820275 299.14197 241.493077 299.65113 241.493077 300.181959 
C 241.493077 300.712788 241.820275 301.221948 242.402608 301.597301 
C 242.984941 301.972654 243.774865 302.183554 244.598408 302.183554 
z
" style="fill:#0000ff;opacity:0.2;stroke:#0000ff;stroke-linejoin:miter;stroke-width:2;"/>
   </g>
   <g id="[&quot;g_s&quot;:3,&quot;g_t&quot;:1,&quot;coords&quot;:[[437.0, -716.0],[448.5, -716.0]],&quot;certainty&quot;:11]">
    <path clip-path="url(#p1328174c6d)" d="M 238.646524 302.183554 
C 239.470068 302.183554 240.259992 301.972654 240.842325 301.597301 
C 241.424658 301.221948 241.751855 300.712788 241.751855 300.181959 
C 241.751855 299.65113 241.424658 299.14197 240.842325 298.766617 
C 240.259992 298.391264 239.470068 298.180364 238.646524 298.180364 
C 237.822981 298.180364 237.033057 298.391264 236.450724 298.766617 
C 235.868391 299.14197 235.541194 299.65113 235.541194 300.181959 
C 235.541194 300.712788 235.868391 301.221948 236.450724 301.597301 
C 237.033057 301.972654 237.822981 302.183554 238.646524 302.183554 
z
" style="fill:#ff0000;opacity:0.2;stroke:#ff0000;stroke-linejoin:miter;stroke-width:2;"/>
   </g>
   <g id="patch_16">
    <path d="M 244.598408 300.181959 
Q 242.62365 300.181959 242.770212 300.181959 
" style="fill:none;opacity:0.5;stroke:#ff0000;stroke-linecap:round;stroke-width:3;"/>
    <path d="M 244.270212 301.681959 
L 242.770212 300.181959 
L 244.270212 298.681959 
" style="fill:none;opacity:0.5;stroke:#ff0000;stroke-linecap:round;stroke-width:3;"/>
   </g>
   <g id="[&quot;g_s&quot;:2,&quot;g_t&quot;:4,&quot;coords&quot;:[[92.5, -377.0],[90.0, -375.0]],&quot;certainty&quot;:10]">
    <path clip-path="url(#p1328174c6d)" d="M 60.348799 188.926623 
C 61.103713 188.926623 61.82781 188.733297 62.361616 188.389224 
C 62.895421 188.04515 63.195352 187.578421 63.195352 187.091827 
C 63.195352 186.605234 62.895421 186.138505 62.361616 185.794431 
C 61.82781 185.450357 61.103713 185.257032 60.348799 185.257032 
C 59.593884 185.257032 58.869787 185.450357 58.335982 185.794431 
C 57.802176 186.138505 57.502246 186.605234 57.502246 187.091827 
C 57.502246 187.578421 57.802176 188.04515 58.335982 188.389224 
C 58.869787 188.733297 59.593884 188.926623 60.348799 188.926623 
z
" style="fill:#0000ff;opacity:0.2;stroke:#0000ff;stroke-linejoin:miter;stroke-width:2;"/>
   </g>
   <g id="[&quot;g_s&quot;:4,&quot;g_t&quot;:2,&quot;coords&quot;:[[90.0, -375.0],[92.5, -377.0]],&quot;certainty&quot;:10]">
    <path clip-path="url(#p1328174c6d)" d="M 59.054911 188.259425 
C 59.809826 188.259425 60.533923 188.066099 61.067728 187.722026 
C 61.601533 187.377952 61.901464 186.911223 61.901464 186.424629 
C 61.901464 185.938036 61.601533 185.471306 61.067728 185.127233 
C 60.533923 184.783159 59.809826 184.589833 59.054911 184.589833 
C 58.299996 184.589833 57.575899 184.783159 57.042094 185.127233 
C 56.508289 185.471306 56.208358 185.938036 56.208358 186.424629 
C 56.208358 186.911223 56.508289 187.377952 57.042094 187.722026 
C 57.575899 188.066099 58.299996 188.259425 59.054911 188.259425 
z
" style="fill:#ff0000;opacity:0.2;stroke:#ff0000;stroke-linejoin:miter;stroke-width:2;"/>
   </g>
   <g id="patch_17">
    <path d="M 60.348799 187.091827 
Q 59.701855 186.758228 60.783207 187.315832 
" style="fill:none;opacity:0.5;stroke:#ff0000;stroke-linecap:round;stroke-width:2.75;"/>
    <path d="M 61.428932 189.336485 
L 60.783207 187.315832 
L 62.80386 186.670107 
" style="fill:none;opacity:0.5;stroke:#ff0000;stroke-linecap:round;stroke-width:2.75;"/>
   </g>
   <g id="[&quot;g_s&quot;:3,&quot;g_t&quot;:1,&quot;coords&quot;:[[448.5, -24.0],[447.0, -24.0]],&quot;certainty&quot;:12]">
    <path clip-path="url(#p1328174c6d)" d="M 244.598408 71.499702 
C 245.49058 71.499702 246.346331 71.271226 246.977191 70.864594 
C 247.608052 70.457961 247.962516 69.906372 247.962516 69.331307 
C 247.962516 68.756242 247.608052 68.204653 246.977191 67.79802 
C 246.346331 67.391388 245.49058 67.162912 244.598408 67.162912 
C 243.706236 67.162912 242.850485 67.391388 242.219624 67.79802 
C 241.588763 68.204653 241.2343 68.756242 241.2343 69.331307 
C 241.2343 69.906372 241.588763 70.457961 242.219624 70.864594 
C 242.850485 71.271226 243.706236 71.499702 244.598408 71.499702 
z
" style="fill:#0000ff;opacity:0.2;stroke:#0000ff;stroke-linejoin:miter;stroke-width:2;"/>
   </g>
   <g id="[&quot;g_s&quot;:1,&quot;g_t&quot;:3,&quot;coords&quot;:[[447.0, -24.0],[448.5, -24.0]],&quot;certainty&quot;:12]">
    <path clip-path="url(#p1328174c6d)" d="M 243.822075 71.499702 
C 244.714247 71.499702 245.569998 71.271226 246.200859 70.864594 
C 246.83172 70.457961 247.186183 69.906372 247.186183 69.331307 
C 247.186183 68.756242 246.83172 68.204653 246.200859 67.79802 
C 245.569998 67.391388 244.714247 67.162912 243.822075 67.162912 
C 242.929903 67.162912 242.074152 67.391388 241.443292 67.79802 
C 240.812431 68.204653 240.457967 68.756242 240.457967 69.331307 
C 240.457967 69.906372 240.812431 70.457961 241.443292 70.864594 
C 242.074152 71.271226 242.929903 71.499702 243.822075 71.499702 
z
" style="fill:#ff0000;opacity:0.2;stroke:#ff0000;stroke-linejoin:miter;stroke-width:2;"/>
   </g>
   <g id="patch_18">
    <path d="M 244.598408 69.331307 
Q 244.210242 69.331307 246.120172 69.331307 
" style="fill:none;opacity:0.5;stroke:#ff0000;stroke-linecap:round;stroke-width:3.25;"/>
    <path d="M 247.620172 70.831307 
L 246.120172 69.331307 
L 247.620172 67.831307 
" style="fill:none;opacity:0.5;stroke:#ff0000;stroke-linecap:round;stroke-width:3.25;"/>
   </g>
   <g id="[&quot;g_s&quot;:4,&quot;g_t&quot;:2,&quot;coords&quot;:[[795.5, -367.0],[798.0, -367.0]],&quot;certainty&quot;:11]">
    <path clip-path="url(#p1328174c6d)" d="M 424.190021 185.757431 
C 425.013565 185.757431 425.803489 185.54653 426.385822 185.171177 
C 426.968155 184.795824 427.295352 184.286665 427.295352 183.755835 
C 427.295352 183.225006 426.968155 182.715847 426.385822 182.340494 
C 425.803489 181.965141 425.013565 181.75424 424.190021 181.75424 
C 423.366478 181.75424 422.576554 181.965141 421.994221 182.340494 
C 421.411888 182.715847 421.084691 183.225006 421.084691 183.755835 
C 421.084691 184.286665 421.411888 184.795824 421.994221 185.171177 
C 422.576554 185.54653 423.366478 185.757431 424.190021 185.757431 
z
" style="fill:#0000ff;opacity:0.2;stroke:#0000ff;stroke-linejoin:miter;stroke-width:2;"/>
   </g>
   <g id="[&quot;g_s&quot;:2,&quot;g_t&quot;:4,&quot;coords&quot;:[[798.0, -367.0],[795.5, -367.0]],&quot;certainty&quot;:11]">
    <path clip-path="url(#p1328174c6d)" d="M 425.483909 185.757431 
C 426.307452 185.757431 427.097376 185.54653 427.679709 185.171177 
C 428.262042 184.795824 428.58924 184.286665 428.58924 183.755835 
C 428.58924 183.225006 428.262042 182.715847 427.679709 182.340494 
C 427.097376 181.965141 426.307452 181.75424 425.483909 181.75424 
C 424.660366 181.75424 423.870442 181.965141 423.288109 182.340494 
C 422.705776 182.715847 422.378579 183.225006 422.378579 183.755835 
C 422.378579 184.286665 422.705776 184.795824 423.288109 185.171177 
C 423.870442 185.54653 424.660366 185.757431 425.483909 185.757431 
z
" style="fill:#ff0000;opacity:0.2;stroke:#ff0000;stroke-linejoin:miter;stroke-width:2;"/>
   </g>
   <g id="patch_19">
    <path d="M 424.190021 183.755835 
Q 424.836965 183.755835 423.362589 183.755835 
" style="fill:none;opacity:0.5;stroke:#ff0000;stroke-linecap:round;stroke-width:3;"/>
    <path d="M 421.862589 182.255835 
L 423.362589 183.755835 
L 421.862589 185.255835 
" style="fill:none;opacity:0.5;stroke:#ff0000;stroke-linecap:round;stroke-width:3;"/>
   </g>
   <g id="patch_20">
    <path clip-path="url(#p1328174c6d)" d="M 244.210242 70.999303 
C 244.896528 70.999303 245.554798 70.823552 246.040075 70.510758 
C 246.525353 70.197964 246.798017 69.773665 246.798017 69.331307 
C 246.798017 68.888949 246.525353 68.46465 246.040075 68.151856 
C 245.554798 67.839062 244.896528 67.663311 244.210242 67.663311 
C 243.523955 67.663311 242.865686 67.839062 242.380408 68.151856 
C 241.89513 68.46465 241.622466 68.888949 241.622466 69.331307 
C 241.622466 69.773665 241.89513 70.197964 242.380408 70.510758 
C 242.865686 70.823552 243.523955 70.999303 244.210242 70.999303 
z
" style="fill:#008000;opacity:0.2;stroke:#008000;stroke-linejoin:miter;stroke-width:2;"/>
   </g>
   <g id="patch_21">
    <path clip-path="url(#p1328174c6d)" d="M 424.836965 185.423831 
C 425.523251 185.423831 426.181521 185.248081 426.666799 184.935287 
C 427.152076 184.622493 427.424741 184.198193 427.424741 183.755835 
C 427.424741 183.313478 427.152076 182.889178 426.666799 182.576384 
C 426.181521 182.26359 425.523251 182.087839 424.836965 182.087839 
C 424.150679 182.087839 423.492409 182.26359 423.007132 182.576384 
C 422.521854 182.889178 422.24919 183.313478 422.24919 183.755835 
C 422.24919 184.198193 422.521854 184.622493 423.007132 184.935287 
C 423.492409 185.248081 424.150679 185.423831 424.836965 185.423831 
z
" style="fill:#008000;opacity:0.2;stroke:#008000;stroke-linejoin:miter;stroke-width:2;"/>
   </g>
   <g id="patch_22">
    <path clip-path="url(#p1328174c6d)" d="M 241.622466 301.849955 
C 242.308752 301.849955 242.967022 301.674204 243.4523 301.36141 
C 243.937577 301.048616 244.210242 300.624317 244.210242 300.181959 
C 244.210242 299.739601 243.937577 299.315302 243.4523 299.002508 
C 242.967022 298.689714 242.308752 298.513963 241.622466 298.513963 
C 240.93618 298.513963 240.27791 298.689714 239.792633 299.002508 
C 239.307355 299.315302 239.034691 299.739601 239.034691 300.181959 
C 239.034691 300.624317 239.307355 301.048616 239.792633 301.36141 
C 240.27791 301.674204 240.93618 301.849955 241.622466 301.849955 
z
" style="fill:#008000;opacity:0.2;stroke:#008000;stroke-linejoin:miter;stroke-width:2;"/>
   </g>
   <g id="patch_23">
    <path clip-path="url(#p1328174c6d)" d="M 59.701855 188.426224 
C 60.388141 188.426224 61.046411 188.250474 61.531688 187.93768 
C 62.016966 187.624885 62.28963 187.200586 62.28963 186.758228 
C 62.28963 186.315871 62.016966 185.891571 61.531688 185.578777 
C 61.046411 185.265983 60.388141 185.090232 59.701855 185.090232 
C 59.015569 185.090232 58.357299 185.265983 57.872021 185.578777 
C 57.386744 185.891571 57.114079 186.315871 57.114079 186.758228 
C 57.114079 187.200586 57.386744 187.624885 57.872021 187.93768 
C 58.357299 188.250474 59.015569 188.426224 59.701855 188.426224 
z
" style="fill:#008000;opacity:0.2;stroke:#008000;stroke-linejoin:miter;stroke-width:2;"/>
   </g>
   <g id="patch_24">
    <path clip-path="url(#p1328174c6d)" d="M 243.822075 76.003291 
C 246.567219 76.003291 249.200299 75.300289 251.141409 74.049112 
C 253.082519 72.797936 254.173177 71.100738 254.173177 69.331307 
C 254.173177 67.561876 253.082519 65.864678 251.141409 64.613502 
C 249.200299 63.362325 246.567219 62.659323 243.822075 62.659323 
C 241.076931 62.659323 238.443851 63.362325 236.502741 64.613502 
C 234.561631 65.864678 233.470974 67.561876 233.470974 69.331307 
C 233.470974 71.100738 234.561631 72.797936 236.502741 74.049112 
C 238.443851 75.300289 241.076931 76.003291 243.822075 76.003291 
z
" style="fill:none;opacity:0.2;stroke:#ff0000;stroke-linejoin:miter;stroke-width:2;"/>
   </g>
   <g id="patch_25">
    <path clip-path="url(#p1328174c6d)" d="M 244.598408 306.853943 
C 247.343552 306.853943 249.976632 306.150941 251.917742 304.899764 
C 253.858852 303.648588 254.949509 301.95139 254.949509 300.181959 
C 254.949509 298.412528 253.858852 296.71533 251.917742 295.464154 
C 249.976632 294.212977 247.343552 293.509975 244.598408 293.509975 
C 241.853264 293.509975 239.220184 294.212977 237.279074 295.464154 
C 235.337964 296.71533 234.247306 298.412528 234.247306 300.181959 
C 234.247306 301.95139 235.337964 303.648588 237.279074 304.899764 
C 239.220184 306.150941 241.853264 306.853943 244.598408 306.853943 
z
" style="fill:none;opacity:0.2;stroke:#0000ff;stroke-linejoin:miter;stroke-width:2;"/>
   </g>
   <g id="patch_26">
    <path clip-path="url(#p1328174c6d)" d="M 243.822075 72.667299 
C 245.194647 72.667299 246.511187 72.315798 247.481742 71.69021 
C 248.452297 71.064621 248.997626 70.216022 248.997626 69.331307 
C 248.997626 68.446592 248.452297 67.597993 247.481742 66.972404 
C 246.511187 66.346816 245.194647 65.995315 243.822075 65.995315 
C 242.449503 65.995315 241.132963 66.346816 240.162408 66.972404 
C 239.191853 67.597993 238.646524 68.446592 238.646524 69.331307 
C 238.646524 70.216022 239.191853 71.064621 240.162408 71.69021 
C 241.132963 72.315798 242.449503 72.667299 243.822075 72.667299 
z
" style="fill:none;opacity:0.2;stroke:#008000;stroke-linejoin:miter;stroke-width:2;"/>
   </g>
   <g id="patch_27">
    <path clip-path="url(#p1328174c6d)" d="M 244.598408 72.667299 
C 245.97098 72.667299 247.28752 72.315798 248.258075 71.69021 
C 249.22863 71.064621 249.773959 70.216022 249.773959 69.331307 
C 249.773959 68.446592 249.22863 67.597993 248.258075 66.972404 
C 247.28752 66.346816 245.97098 65.995315 244.598408 65.995315 
C 243.225836 65.995315 241.909296 66.346816 240.938741 66.972404 
C 239.968186 67.597993 239.422857 68.446592 239.422857 69.331307 
C 239.422857 70.216022 239.968186 71.064621 240.938741 71.69021 
C 241.909296 72.315798 243.225836 72.667299 244.598408 72.667299 
z
" style="fill:none;opacity:0.2;stroke:#008000;stroke-linejoin:miter;stroke-width:2;"/>
   </g>
   <g id="patch_28">
    <path d="M 244.210242 69.331307 
Q 334.523603 126.543571 424.836965 183.755835 
" style="fill:none;opacity:0.5;stroke:#008000;stroke-linecap:round;stroke-width:2;"/>
   </g>
   <g id="patch_29">
    <path d="M 245.236289 69.331307 
Q 244.210242 69.331307 243.184194 69.331307 
" style="fill:none;opacity:0.5;stroke:#800080;stroke-linecap:round;stroke-width:2;"/>
    <path d="M 246.736289 70.831307 
L 245.236289 69.331307 
L 246.736289 67.831307 
" style="fill:none;opacity:0.5;stroke:#800080;stroke-linecap:round;stroke-width:2;"/>
    <path d="M 241.684194 67.831307 
L 243.184194 69.331307 
L 241.684194 70.831307 
" style="fill:none;opacity:0.5;stroke:#800080;stroke-linecap:round;stroke-width:2;"/>
   </g>
   <g id="patch_30">
    <path d="M 424.836965 183.755835 
Q 333.229716 241.968897 241.622466 300.181959 
" style="fill:none;opacity:0.5;stroke:#008000;stroke-linecap:round;stroke-width:2;"/>
   </g>
   <g id="patch_31">
    <path d="M 424.069695 183.755835 
Q 424.836965 183.755835 425.604235 183.755835 
" style="fill:none;opacity:0.5;stroke:#800080;stroke-linecap:round;stroke-width:2;"/>
    <path d="M 422.569695 182.255835 
L 424.069695 183.755835 
L 422.569695 185.255835 
" style="fill:none;opacity:0.5;stroke:#800080;stroke-linecap:round;stroke-width:2;"/>
    <path d="M 427.104235 185.255835 
L 425.604235 183.755835 
L 427.104235 182.255835 
" style="fill:none;opacity:0.5;stroke:#800080;stroke-linecap:round;stroke-width:2;"/>
   </g>
   <g id="patch_32">
    <path d="M 241.622466 300.181959 
Q 150.66216 243.470094 59.701855 186.758228 
" style="fill:none;opacity:0.5;stroke:#008000;stroke-linecap:round;stroke-width:2;"/>
   </g>
   <g id="patch_33">
    <path d="M 240.060738 300.181959 
Q 240.621283 300.181959 241.181827 300.181959 
" style="fill:none;opacity:0.5;stroke:#800080;stroke-linecap:round;stroke-width:2;"/>
    <path d="M 241.560738 301.681959 
L 240.060738 300.181959 
L 241.560738 298.681959 
" style="fill:none;opacity:0.5;stroke:#800080;stroke-linecap:round;stroke-width:2;"/>
    <path d="M 239.681827 298.681959 
L 241.181827 300.181959 
L 239.681827 301.681959 
" style="fill:none;opacity:0.5;stroke:#800080;stroke-linecap:round;stroke-width:2;"/>
   </g>
   <g id="patch_34">
    <path d="M 59.701855 186.758228 
Q 151.956048 128.044768 244.210242 69.331307 
" style="fill:none;opacity:0.5;stroke:#008000;stroke-linecap:round;stroke-width:2;"/>
   </g>
   <g id="patch_35">
    <path d="M 60.311854 187.072777 
Q 59.701855 186.758228 59.091856 186.44368 
" style="fill:none;opacity:0.5;stroke:#800080;stroke-linecap:round;stroke-width:2;"/>
    <path d="M 60.957578 189.09343 
L 60.311854 187.072777 
L 62.332507 186.427052 
" style="fill:none;opacity:0.5;stroke:#800080;stroke-linecap:round;stroke-width:2;"/>
    <path d="M 58.446131 184.423027 
L 59.091856 186.44368 
L 57.071203 187.089405 
" style="fill:none;opacity:0.5;stroke:#800080;stroke-linecap:round;stroke-width:2;"/>
   </g>
   <g id="patch_36">
    <path clip-path="url(#p1328174c6d)" d="M 342.675096 188.759824 
C 342.94961 188.759824 343.212918 188.689523 343.407029 188.564406 
C 343.60114 188.439288 343.710206 188.269568 343.710206 188.092625 
C 343.710206 187.915682 343.60114 187.745962 343.407029 187.620845 
C 343.212918 187.495727 342.94961 187.425427 342.675096 187.425427 
C 342.400581 187.425427 342.137273 187.495727 341.943162 187.620845 
C 341.749051 187.745962 341.639986 187.915682 341.639986 188.092625 
C 341.639986 188.269568 341.749051 188.439288 341.943162 188.564406 
C 342.137273 188.689523 342.400581 188.759824 342.675096 188.759824 
z
" style="fill:#ff0000;opacity:0.2;stroke:#ff0000;stroke-linejoin:miter;stroke-width:2;"/>
   </g>
   <g id="patch_37">
    <path clip-path="url(#p1328174c6d)" d="M 248.480071 285.503594 
C 248.754585 285.503594 249.017893 285.433294 249.212004 285.308176 
C 249.406115 285.183058 249.515181 285.013339 249.515181 284.836395 
C 249.515181 284.659452 249.406115 284.489733 249.212004 284.364615 
C 249.017893 284.239497 248.754585 284.169197 248.480071 284.169197 
C 248.205557 284.169197 247.942249 284.239497 247.748138 284.364615 
C 247.554027 284.489733 247.444961 284.659452 247.444961 284.836395 
C 247.444961 285.013339 247.554027 285.183058 247.748138 285.308176 
C 247.942249 285.433294 248.205557 285.503594 248.480071 285.503594 
z
" style="fill:#ff0000;opacity:0.2;stroke:#ff0000;stroke-linejoin:miter;stroke-width:2;"/>
   </g>
   <g id="patch_38">
    <path clip-path="url(#p1328174c6d)" d="M 141.863724 179.419046 
C 142.138238 179.419046 142.401546 179.348745 142.595657 179.223628 
C 142.789768 179.09851 142.898834 178.92879 142.898834 178.751847 
C 142.898834 178.574904 142.789768 178.405184 142.595657 178.280067 
C 142.401546 178.154949 142.138238 178.084649 141.863724 178.084649 
C 141.58921 178.084649 141.325902 178.154949 141.131791 178.280067 
C 140.93768 178.405184 140.828614 178.574904 140.828614 178.751847 
C 140.828614 178.92879 140.93768 179.09851 141.131791 179.223628 
C 141.325902 179.348745 141.58921 179.419046 141.863724 179.419046 
z
" style="fill:#ff0000;opacity:0.2;stroke:#ff0000;stroke-linejoin:miter;stroke-width:2;"/>
   </g>
   <g id="patch_39">
    <path clip-path="url(#p1328174c6d)" d="M 239.681635 85.344069 
C 239.956149 85.344069 240.219457 85.273769 240.413568 85.148651 
C 240.607679 85.023533 240.716745 84.853814 240.716745 84.676871 
C 240.716745 84.499928 240.607679 84.330208 240.413568 84.20509 
C 240.219457 84.079972 239.956149 84.009672 239.681635 84.009672 
C 239.40712 84.009672 239.143812 84.079972 238.949701 84.20509 
C 238.75559 84.330208 238.646524 84.499928 238.646524 84.676871 
C 238.646524 84.853814 238.75559 85.023533 238.949701 85.148651 
C 239.143812 85.273769 239.40712 85.344069 239.681635 85.344069 
z
" style="fill:#ff0000;opacity:0.2;stroke:#ff0000;stroke-linejoin:miter;stroke-width:2;"/>
   </g>
   <g id="patch_40">
    <path clip-path="url(#p1328174c6d)" d="M 251.326624 290.507582 
C 251.601138 290.507582 251.864446 290.437282 252.058557 290.312164 
C 252.252668 290.187046 252.361734 290.017327 252.361734 289.840384 
C 252.361734 289.66344 252.252668 289.493721 252.058557 289.368603 
C 251.864446 289.243485 251.601138 289.173185 251.326624 289.173185 
C 251.052109 289.173185 250.788801 289.243485 250.59469 289.368603 
C 250.400579 289.493721 250.291514 289.66344 250.291514 289.840384 
C 250.291514 290.017327 250.400579 290.187046 250.59469 290.312164 
C 250.788801 290.437282 251.052109 290.507582 251.326624 290.507582 
z
" style="fill:#0000ff;opacity:0.2;stroke:#0000ff;stroke-linejoin:miter;stroke-width:2;"/>
   </g>
   <g id="patch_41">
    <path clip-path="url(#p1328174c6d)" d="M 112.104307 177.083851 
C 112.378821 177.083851 112.642129 177.013551 112.83624 176.888433 
C 113.030351 176.763316 113.139417 176.593596 113.139417 176.416653 
C 113.139417 176.23971 113.030351 176.06999 112.83624 175.944872 
C 112.642129 175.819755 112.378821 175.749454 112.104307 175.749454 
C 111.829792 175.749454 111.566484 175.819755 111.372373 175.944872 
C 111.178262 176.06999 111.069197 176.23971 111.069197 176.416653 
C 111.069197 176.593596 111.178262 176.763316 111.372373 176.888433 
C 111.566484 177.013551 111.829792 177.083851 112.104307 177.083851 
z
" style="fill:#0000ff;opacity:0.2;stroke:#0000ff;stroke-linejoin:miter;stroke-width:2;"/>
   </g>
   <g id="patch_42">
    <path clip-path="url(#p1328174c6d)" d="M 235.799971 80.340081 
C 236.074486 80.340081 236.337794 80.269781 236.531905 80.144663 
C 236.726016 80.019545 236.835082 79.849826 236.835082 79.672882 
C 236.835082 79.495939 236.726016 79.32622 236.531905 79.201102 
C 236.337794 79.075984 236.074486 79.005684 235.799971 79.005684 
C 235.525457 79.005684 235.262149 79.075984 235.068038 79.201102 
C 234.873927 79.32622 234.764861 79.495939 234.764861 79.672882 
C 234.764861 79.849826 234.873927 80.019545 235.068038 80.144663 
C 235.262149 80.269781 235.525457 80.340081 235.799971 80.340081 
z
" style="fill:#0000ff;opacity:0.2;stroke:#0000ff;stroke-linejoin:miter;stroke-width:2;"/>
   </g>
   <g id="patch_43">
    <path clip-path="url(#p1328174c6d)" d="M 372.434513 194.764609 
C 372.709028 194.764609 372.972336 194.694309 373.166447 194.569191 
C 373.360558 194.444074 373.469623 194.274354 373.469623 194.097411 
C 373.469623 193.920468 373.360558 193.750748 373.166447 193.62563 
C 372.972336 193.500513 372.709028 193.430212 372.434513 193.430212 
C 372.159999 193.430212 371.896691 193.500513 371.70258 193.62563 
C 371.508469 193.750748 371.399403 193.920468 371.399403 194.097411 
C 371.399403 194.274354 371.508469 194.444074 371.70258 194.569191 
C 371.896691 194.694309 372.159999 194.764609 372.434513 194.764609 
z
" style="fill:#0000ff;opacity:0.2;stroke:#0000ff;stroke-linejoin:miter;stroke-width:2;"/>
   </g>
   <g id="patch_44">
    <path clip-path="url(#p1328174c6d)" d="M 342.675096 188.092625 
C 342.675096 242.135697 316.279787 284.836395 248.480071 284.836395 
C 164.118593 284.836395 141.863724 219.450951 141.863724 178.751847 
C 141.863724 123.04078 176.022359 84.676871 239.681635 84.676871 
C 303.858465 84.676871 342.675096 131.047161 342.675096 188.092625 
" style="fill:none;stroke:#ff0000;stroke-linejoin:miter;stroke-width:0.5;"/>
   </g>
   <g id="patch_45">
    <path clip-path="url(#p1328174c6d)" d="M 251.326624 289.840384 
C 149.368273 289.840384 112.104307 225.789336 112.104307 176.416653 
C 112.104307 103.358426 181.974243 79.672882 235.799971 79.672882 
C 334.652992 79.672882 372.434513 139.053542 372.434513 194.097411 
C 372.434513 259.816455 313.433234 289.840384 251.326624 289.840384 
" style="fill:none;stroke:#0000ff;stroke-linejoin:miter;stroke-width:0.5;"/>
   </g>
   <g id="[&quot;g_s&quot;:1,&quot;g_t&quot;:4,&quot;coords&quot;:[[638.0, -380.0],[695.5, -398.0]],&quot;certainty&quot;:11]">
    <path clip-path="url(#p1328174c6d)" d="M 342.675096 190.09422 
C 343.498639 190.09422 344.288563 189.88332 344.870896 189.507967 
C 345.453229 189.132614 345.780426 188.623454 345.780426 188.092625 
C 345.780426 187.561796 345.453229 187.052637 344.870896 186.677284 
C 344.288563 186.301931 343.498639 186.09103 342.675096 186.09103 
C 341.851553 186.09103 341.061629 186.301931 340.479296 186.677284 
C 339.896963 187.052637 339.569765 187.561796 339.569765 188.092625 
C 339.569765 188.623454 339.896963 189.132614 340.479296 189.507967 
C 341.061629 189.88332 341.851553 190.09422 342.675096 190.09422 
z
" style="fill:#0000ff;opacity:0.2;stroke:#0000ff;stroke-linejoin:miter;stroke-width:2;"/>
   </g>
   <g id="[&quot;g_s&quot;:4,&quot;g_t&quot;:1,&quot;coords&quot;:[[695.5, -398.0],[638.0, -380.0]],&quot;certainty&quot;:11]">
    <path clip-path="url(#p1328174c6d)" d="M 372.434513 196.099006 
C 373.258056 196.099006 374.04798 195.888105 374.630313 195.512752 
C 375.212646 195.137399 375.539844 194.62824 375.539844 194.097411 
C 375.539844 193.566582 375.212646 193.057422 374.630313 192.682069 
C 374.04798 192.306716 373.258056 192.095816 372.434513 192.095816 
C 371.61097 192.095816 370.821046 192.306716 370.238713 192.682069 
C 369.65638 193.057422 369.329183 193.566582 369.329183 194.097411 
C 369.329183 194.62824 369.65638 195.137399 370.238713 195.512752 
C 370.821046 195.888105 371.61097 196.099006 372.434513 196.099006 
z
" style="fill:#ff0000;opacity:0.2;stroke:#ff0000;stroke-linejoin:miter;stroke-width:2;"/>
   </g>
   <g id="patch_46">
    <path d="M 342.675096 188.092625 
Q 356.575781 190.897473 368.397054 193.282742 
" style="fill:none;opacity:0.5;stroke:#0000ff;stroke-linecap:round;stroke-width:3;"/>
    <path d="M 367.223375 191.515688 
L 368.397054 193.282742 
L 366.63 194.456421 
" style="fill:none;opacity:0.5;stroke:#0000ff;stroke-linecap:round;stroke-width:3;"/>
   </g>
   <g id="[&quot;g_s&quot;:2,&quot;g_t&quot;:1,&quot;coords&quot;:[[456.0, -670.0],[461.5, -685.0]],&quot;certainty&quot;:10]">
    <path clip-path="url(#p1328174c6d)" d="M 248.480071 286.671191 
C 249.234986 286.671191 249.959083 286.477865 250.492888 286.133792 
C 251.026693 285.789718 251.326624 285.322989 251.326624 284.836395 
C 251.326624 284.349802 251.026693 283.883073 250.492888 283.538999 
C 249.959083 283.194925 249.234986 283.0016 248.480071 283.0016 
C 247.725156 283.0016 247.001059 283.194925 246.467254 283.538999 
C 245.933449 283.883073 245.633518 284.349802 245.633518 284.836395 
C 245.633518 285.322989 245.933449 285.789718 246.467254 286.133792 
C 247.001059 286.477865 247.725156 286.671191 248.480071 286.671191 
z
" style="fill:#0000ff;opacity:0.2;stroke:#0000ff;stroke-linejoin:miter;stroke-width:2;"/>
   </g>
   <g id="[&quot;g_s&quot;:1,&quot;g_t&quot;:2,&quot;coords&quot;:[[461.5, -685.0],[456.0, -670.0]],&quot;certainty&quot;:10]">
    <path clip-path="url(#p1328174c6d)" d="M 251.326624 291.675179 
C 252.081539 291.675179 252.805636 291.481854 253.339441 291.13778 
C 253.873246 290.793706 254.173177 290.326977 254.173177 289.840384 
C 254.173177 289.35379 253.873246 288.887061 253.339441 288.542987 
C 252.805636 288.198914 252.081539 288.005588 251.326624 288.005588 
C 250.571709 288.005588 249.847612 288.198914 249.313807 288.542987 
C 248.780002 288.887061 248.480071 289.35379 248.480071 289.840384 
C 248.480071 290.326977 248.780002 290.793706 249.313807 291.13778 
C 249.847612 291.481854 250.571709 291.675179 251.326624 291.675179 
z
" style="fill:#ff0000;opacity:0.2;stroke:#ff0000;stroke-linejoin:miter;stroke-width:2;"/>
   </g>
   <g id="patch_47">
    <path d="M 248.480071 284.836395 
Q 249.409231 286.469777 249.376907 286.412953 
" style="fill:none;opacity:0.5;stroke:#0000ff;stroke-linecap:round;stroke-width:2.75;"/>
    <path d="M 249.939034 284.367467 
L 249.376907 286.412953 
L 247.331421 285.850826 
" style="fill:none;opacity:0.5;stroke:#0000ff;stroke-linecap:round;stroke-width:2.75;"/>
   </g>
   <g id="[&quot;g_s&quot;:3,&quot;g_t&quot;:2,&quot;coords&quot;:[[250.0, -352.0],[192.5, -345.0]],&quot;certainty&quot;:11]">
    <path clip-path="url(#p1328174c6d)" d="M 141.863724 180.753443 
C 142.687267 180.753443 143.477191 180.542542 144.059524 180.167189 
C 144.641857 179.791836 144.969055 179.282677 144.969055 178.751847 
C 144.969055 178.221018 144.641857 177.711859 144.059524 177.336506 
C 143.477191 176.961153 142.687267 176.750252 141.863724 176.750252 
C 141.040181 176.750252 140.250257 176.961153 139.667924 177.336506 
C 139.085591 177.711859 138.758394 178.221018 138.758394 178.751847 
C 138.758394 179.282677 139.085591 179.791836 139.667924 180.167189 
C 140.250257 180.542542 141.040181 180.753443 141.863724 180.753443 
z
" style="fill:#0000ff;opacity:0.2;stroke:#0000ff;stroke-linejoin:miter;stroke-width:2;"/>
   </g>
   <g id="[&quot;g_s&quot;:2,&quot;g_t&quot;:3,&quot;coords&quot;:[[192.5, -345.0],[250.0, -352.0]],&quot;certainty&quot;:11]">
    <path clip-path="url(#p1328174c6d)" d="M 112.104307 178.418248 
C 112.92785 178.418248 113.717774 178.207347 114.300107 177.831994 
C 114.88244 177.456641 115.209637 176.947482 115.209637 176.416653 
C 115.209637 175.885824 114.88244 175.376664 114.300107 175.001311 
C 113.717774 174.625958 112.92785 174.415058 112.104307 174.415058 
C 111.280764 174.415058 110.49084 174.625958 109.908507 175.001311 
C 109.326174 175.376664 108.998976 175.885824 108.998976 176.416653 
C 108.998976 176.947482 109.326174 177.456641 109.908507 177.831994 
C 110.49084 178.207347 111.280764 178.418248 112.104307 178.418248 
z
" style="fill:#ff0000;opacity:0.2;stroke:#ff0000;stroke-linejoin:miter;stroke-width:2;"/>
   </g>
   <g id="patch_48">
    <path d="M 141.863724 178.751847 
Q 127.981203 177.662498 116.213501 176.739098 
" style="fill:none;opacity:0.5;stroke:#0000ff;stroke-linecap:round;stroke-width:3;"/>
    <path d="M 117.591562 178.351844 
L 116.213501 176.739098 
L 117.826247 175.361037 
" style="fill:none;opacity:0.5;stroke:#0000ff;stroke-linecap:round;stroke-width:3;"/>
   </g>
   <g id="[&quot;g_s&quot;:4,&quot;g_t&quot;:3,&quot;coords&quot;:[[439.0, -70.0],[431.5, -55.0]],&quot;certainty&quot;:12]">
    <path clip-path="url(#p1328174c6d)" d="M 239.681635 86.845265 
C 240.573806 86.845265 241.429557 86.61679 242.060418 86.210157 
C 242.691279 85.803525 243.045743 85.251936 243.045743 84.676871 
C 243.045743 84.101806 242.691279 83.550216 242.060418 83.143584 
C 241.429557 82.736952 240.573806 82.508476 239.681635 82.508476 
C 238.789463 82.508476 237.933712 82.736952 237.302851 83.143584 
C 236.67199 83.550216 236.317527 84.101806 236.317527 84.676871 
C 236.317527 85.251936 236.67199 85.803525 237.302851 86.210157 
C 237.933712 86.61679 238.789463 86.845265 239.681635 86.845265 
z
" style="fill:#0000ff;opacity:0.2;stroke:#0000ff;stroke-linejoin:miter;stroke-width:2;"/>
   </g>
   <g id="[&quot;g_s&quot;:3,&quot;g_t&quot;:4,&quot;coords&quot;:[[431.5, -55.0],[439.0, -70.0]],&quot;certainty&quot;:12]">
    <path clip-path="url(#p1328174c6d)" d="M 235.799971 81.841277 
C 236.692143 81.841277 237.547894 81.612802 238.178755 81.206169 
C 238.809616 80.799537 239.164079 80.247948 239.164079 79.672882 
C 239.164079 79.097817 238.809616 78.546228 238.178755 78.139596 
C 237.547894 77.732963 236.692143 77.504488 235.799971 77.504488 
C 234.9078 77.504488 234.052049 77.732963 233.421188 78.139596 
C 232.790327 78.546228 232.435863 79.097817 232.435863 79.672882 
C 232.435863 80.247948 232.790327 80.799537 233.421188 81.206169 
C 234.052049 81.612802 234.9078 81.841277 235.799971 81.841277 
z
" style="fill:#ff0000;opacity:0.2;stroke:#ff0000;stroke-linejoin:miter;stroke-width:2;"/>
   </g>
   <g id="patch_49">
    <path d="M 239.681635 84.676871 
Q 238.353947 82.965301 238.434817 83.069555 
" style="fill:none;opacity:0.5;stroke:#0000ff;stroke-linecap:round;stroke-width:3.25;"/>
    <path d="M 238.168991 85.174154 
L 238.434817 83.069555 
L 240.539416 83.335382 
" style="fill:none;opacity:0.5;stroke:#0000ff;stroke-linecap:round;stroke-width:3.25;"/>
   </g>
   <g id="[&quot;g_s&quot;:1,&quot;g_t&quot;:2,&quot;coords&quot;:[[461.5, -685.0],[456.0, -670.0]],&quot;certainty&quot;:10]">
    <path clip-path="url(#p1328174c6d)" d="M 251.326624 291.675179 
C 252.081539 291.675179 252.805636 291.481854 253.339441 291.13778 
C 253.873246 290.793706 254.173177 290.326977 254.173177 289.840384 
C 254.173177 289.35379 253.873246 288.887061 253.339441 288.542987 
C 252.805636 288.198914 252.081539 288.005588 251.326624 288.005588 
C 250.571709 288.005588 249.847612 288.198914 249.313807 288.542987 
C 248.780002 288.887061 248.480071 289.35379 248.480071 289.840384 
C 248.480071 290.326977 248.780002 290.793706 249.313807 291.13778 
C 249.847612 291.481854 250.571709 291.675179 251.326624 291.675179 
z
" style="fill:#0000ff;opacity:0.2;stroke:#0000ff;stroke-linejoin:miter;stroke-width:2;"/>
   </g>
   <g id="[&quot;g_s&quot;:2,&quot;g_t&quot;:1,&quot;coords&quot;:[[456.0, -670.0],[461.5, -685.0]],&quot;certainty&quot;:10]">
    <path clip-path="url(#p1328174c6d)" d="M 248.480071 286.671191 
C 249.234986 286.671191 249.959083 286.477865 250.492888 286.133792 
C 251.026693 285.789718 251.326624 285.322989 251.326624 284.836395 
C 251.326624 284.349802 251.026693 283.883073 250.492888 283.538999 
C 249.959083 283.194925 249.234986 283.0016 248.480071 283.0016 
C 247.725156 283.0016 247.001059 283.194925 246.467254 283.538999 
C 245.933449 283.883073 245.633518 284.349802 245.633518 284.836395 
C 245.633518 285.322989 245.933449 285.789718 246.467254 286.133792 
C 247.001059 286.477865 247.725156 286.671191 248.480071 286.671191 
z
" style="fill:#ff0000;opacity:0.2;stroke:#ff0000;stroke-linejoin:miter;stroke-width:2;"/>
   </g>
   <g id="patch_50">
    <path d="M 251.326624 289.840384 
Q 250.397463 288.207002 250.429788 288.263826 
" style="fill:none;opacity:0.5;stroke:#ff0000;stroke-linecap:round;stroke-width:2.75;"/>
    <path d="M 249.867661 290.309312 
L 250.429788 288.263826 
L 252.475274 288.825953 
" style="fill:none;opacity:0.5;stroke:#ff0000;stroke-linecap:round;stroke-width:2.75;"/>
   </g>
   <g id="[&quot;g_s&quot;:2,&quot;g_t&quot;:3,&quot;coords&quot;:[[192.5, -345.0],[250.0, -352.0]],&quot;certainty&quot;:11]">
    <path clip-path="url(#p1328174c6d)" d="M 112.104307 178.418248 
C 112.92785 178.418248 113.717774 178.207347 114.300107 177.831994 
C 114.88244 177.456641 115.209637 176.947482 115.209637 176.416653 
C 115.209637 175.885824 114.88244 175.376664 114.300107 175.001311 
C 113.717774 174.625958 112.92785 174.415058 112.104307 174.415058 
C 111.280764 174.415058 110.49084 174.625958 109.908507 175.001311 
C 109.326174 175.376664 108.998976 175.885824 108.998976 176.416653 
C 108.998976 176.947482 109.326174 177.456641 109.908507 177.831994 
C 110.49084 178.207347 111.280764 178.418248 112.104307 178.418248 
z
" style="fill:#0000ff;opacity:0.2;stroke:#0000ff;stroke-linejoin:miter;stroke-width:2;"/>
   </g>
   <g id="[&quot;g_s&quot;:3,&quot;g_t&quot;:2,&quot;coords&quot;:[[250.0, -352.0],[192.5, -345.0]],&quot;certainty&quot;:11]">
    <path clip-path="url(#p1328174c6d)" d="M 141.863724 180.753443 
C 142.687267 180.753443 143.477191 180.542542 144.059524 180.167189 
C 144.641857 179.791836 144.969055 179.282677 144.969055 178.751847 
C 144.969055 178.221018 144.641857 177.711859 144.059524 177.336506 
C 143.477191 176.961153 142.687267 176.750252 141.863724 176.750252 
C 141.040181 176.750252 140.250257 176.961153 139.667924 177.336506 
C 139.085591 177.711859 138.758394 178.221018 138.758394 178.751847 
C 138.758394 179.282677 139.085591 179.791836 139.667924 180.167189 
C 140.250257 180.542542 141.040181 180.753443 141.863724 180.753443 
z
" style="fill:#ff0000;opacity:0.2;stroke:#ff0000;stroke-linejoin:miter;stroke-width:2;"/>
   </g>
   <g id="patch_51">
    <path d="M 112.104307 176.416653 
Q 125.986828 177.506002 137.75453 178.429403 
" style="fill:none;opacity:0.5;stroke:#ff0000;stroke-linecap:round;stroke-width:3;"/>
    <path d="M 136.376469 176.816656 
L 137.75453 178.429403 
L 136.141783 179.807463 
" style="fill:none;opacity:0.5;stroke:#ff0000;stroke-linecap:round;stroke-width:3;"/>
   </g>
   <g id="[&quot;g_s&quot;:3,&quot;g_t&quot;:4,&quot;coords&quot;:[[431.5, -55.0],[439.0, -70.0]],&quot;certainty&quot;:11]">
    <path clip-path="url(#p1328174c6d)" d="M 235.799971 81.674478 
C 236.623515 81.674478 237.413439 81.463577 237.995772 81.088224 
C 238.578105 80.712871 238.905302 80.203712 238.905302 79.672882 
C 238.905302 79.142053 238.578105 78.632894 237.995772 78.257541 
C 237.413439 77.882188 236.623515 77.671287 235.799971 77.671287 
C 234.976428 77.671287 234.186504 77.882188 233.604171 78.257541 
C 233.021838 78.632894 232.694641 79.142053 232.694641 79.672882 
C 232.694641 80.203712 233.021838 80.712871 233.604171 81.088224 
C 234.186504 81.463577 234.976428 81.674478 235.799971 81.674478 
z
" style="fill:#0000ff;opacity:0.2;stroke:#0000ff;stroke-linejoin:miter;stroke-width:2;"/>
   </g>
   <g id="[&quot;g_s&quot;:4,&quot;g_t&quot;:3,&quot;coords&quot;:[[439.0, -70.0],[431.5, -55.0]],&quot;certainty&quot;:11]">
    <path clip-path="url(#p1328174c6d)" d="M 239.681635 86.678466 
C 240.505178 86.678466 241.295102 86.467565 241.877435 86.092212 
C 242.459768 85.716859 242.786965 85.2077 242.786965 84.676871 
C 242.786965 84.146041 242.459768 83.636882 241.877435 83.261529 
C 241.295102 82.886176 240.505178 82.675275 239.681635 82.675275 
C 238.858091 82.675275 238.068167 82.886176 237.485834 83.261529 
C 236.903501 83.636882 236.576304 84.146041 236.576304 84.676871 
C 236.576304 85.2077 236.903501 85.716859 237.485834 86.092212 
C 238.068167 86.467565 238.858091 86.678466 239.681635 86.678466 
z
" style="fill:#ff0000;opacity:0.2;stroke:#ff0000;stroke-linejoin:miter;stroke-width:2;"/>
   </g>
   <g id="patch_52">
    <path d="M 235.799971 79.672882 
Q 237.127659 81.384452 237.155139 81.419877 
" style="fill:none;opacity:0.5;stroke:#ff0000;stroke-linecap:round;stroke-width:3;"/>
    <path d="M 237.420966 79.315278 
L 237.155139 81.419877 
L 235.05054 81.15405 
" style="fill:none;opacity:0.5;stroke:#ff0000;stroke-linecap:round;stroke-width:3;"/>
   </g>
   <g id="[&quot;g_s&quot;:4,&quot;g_t&quot;:1,&quot;coords&quot;:[[695.5, -398.0],[638.0, -380.0]],&quot;certainty&quot;:12]">
    <path clip-path="url(#p1328174c6d)" d="M 372.434513 196.265806 
C 373.326685 196.265806 374.182436 196.03733 374.813297 195.630698 
C 375.444157 195.224065 375.798621 194.672476 375.798621 194.097411 
C 375.798621 193.522346 375.444157 192.970757 374.813297 192.564124 
C 374.182436 192.157492 373.326685 191.929016 372.434513 191.929016 
C 371.542341 191.929016 370.68659 192.157492 370.055729 192.564124 
C 369.424869 192.970757 369.070405 193.522346 369.070405 194.097411 
C 369.070405 194.672476 369.424869 195.224065 370.055729 195.630698 
C 370.68659 196.03733 371.542341 196.265806 372.434513 196.265806 
z
" style="fill:#0000ff;opacity:0.2;stroke:#0000ff;stroke-linejoin:miter;stroke-width:2;"/>
   </g>
   <g id="[&quot;g_s&quot;:1,&quot;g_t&quot;:4,&quot;coords&quot;:[[638.0, -380.0],[695.5, -398.0]],&quot;certainty&quot;:12]">
    <path clip-path="url(#p1328174c6d)" d="M 342.675096 190.26102 
C 343.567268 190.26102 344.423019 190.032544 345.053879 189.625912 
C 345.68474 189.219279 346.039204 188.66769 346.039204 188.092625 
C 346.039204 187.51756 345.68474 186.965971 345.053879 186.559338 
C 344.423019 186.152706 343.567268 185.92423 342.675096 185.92423 
C 341.782924 185.92423 340.927173 186.152706 340.296312 186.559338 
C 339.665451 186.965971 339.310988 187.51756 339.310988 188.092625 
C 339.310988 188.66769 339.665451 189.219279 340.296312 189.625912 
C 340.927173 190.032544 341.782924 190.26102 342.675096 190.26102 
z
" style="fill:#ff0000;opacity:0.2;stroke:#ff0000;stroke-linejoin:miter;stroke-width:2;"/>
   </g>
   <g id="patch_53">
    <path d="M 372.434513 194.097411 
Q 358.533828 191.292563 346.88584 188.942259 
" style="fill:none;opacity:0.5;stroke:#ff0000;stroke-linecap:round;stroke-width:3.25;"/>
    <path d="M 348.059519 190.709312 
L 346.88584 188.942259 
L 348.652893 187.76858 
" style="fill:none;opacity:0.5;stroke:#ff0000;stroke-linecap:round;stroke-width:3.25;"/>
   </g>
   <g id="patch_54">
    <path clip-path="url(#p1328174c6d)" d="M 357.554804 192.763014 
C 358.241091 192.763014 358.899361 192.587263 359.384638 192.274469 
C 359.869916 191.961675 360.14258 191.537376 360.14258 191.095018 
C 360.14258 190.65266 359.869916 190.228361 359.384638 189.915567 
C 358.899361 189.602773 358.241091 189.427022 357.554804 189.427022 
C 356.868518 189.427022 356.210248 189.602773 355.724971 189.915567 
C 355.239693 190.228361 354.967029 190.65266 354.967029 191.095018 
C 354.967029 191.537376 355.239693 191.961675 355.724971 192.274469 
C 356.210248 192.587263 356.868518 192.763014 357.554804 192.763014 
z
" style="fill:#008000;opacity:0.2;stroke:#008000;stroke-linejoin:miter;stroke-width:2;"/>
   </g>
   <g id="patch_55">
    <path clip-path="url(#p1328174c6d)" d="M 249.903347 289.006386 
C 250.589633 289.006386 251.247903 288.830635 251.733181 288.517841 
C 252.218458 288.205047 252.491123 287.780747 252.491123 287.33839 
C 252.491123 286.896032 252.218458 286.471732 251.733181 286.158938 
C 251.247903 285.846144 250.589633 285.670393 249.903347 285.670393 
C 249.217061 285.670393 248.558791 285.846144 248.073514 286.158938 
C 247.588236 286.471732 247.315572 286.896032 247.315572 287.33839 
C 247.315572 287.780747 247.588236 288.205047 248.073514 288.517841 
C 248.558791 288.830635 249.217061 289.006386 249.903347 289.006386 
z
" style="fill:#008000;opacity:0.2;stroke:#008000;stroke-linejoin:miter;stroke-width:2;"/>
   </g>
   <g id="patch_56">
    <path clip-path="url(#p1328174c6d)" d="M 126.984015 179.252246 
C 127.670301 179.252246 128.328571 179.076496 128.813849 178.763701 
C 129.299126 178.450907 129.571791 178.026608 129.571791 177.58425 
C 129.571791 177.141892 129.299126 176.717593 128.813849 176.404799 
C 128.328571 176.092005 127.670301 175.916254 126.984015 175.916254 
C 126.297729 175.916254 125.639459 176.092005 125.154182 176.404799 
C 124.668904 176.717593 124.39624 177.141892 124.39624 177.58425 
C 124.39624 178.026608 124.668904 178.450907 125.154182 178.763701 
C 125.639459 179.076496 126.297729 179.252246 126.984015 179.252246 
z
" style="fill:#008000;opacity:0.2;stroke:#008000;stroke-linejoin:miter;stroke-width:2;"/>
   </g>
   <g id="patch_57">
    <path clip-path="url(#p1328174c6d)" d="M 237.740803 83.842873 
C 238.427089 83.842873 239.085359 83.667122 239.570637 83.354328 
C 240.055914 83.041534 240.328578 82.617234 240.328578 82.174877 
C 240.328578 81.732519 240.055914 81.308219 239.570637 80.995425 
C 239.085359 80.682631 238.427089 80.506881 237.740803 80.506881 
C 237.054517 80.506881 236.396247 80.682631 235.910969 80.995425 
C 235.425692 81.308219 235.153028 81.732519 235.153028 82.174877 
C 235.153028 82.617234 235.425692 83.041534 235.910969 83.354328 
C 236.396247 83.667122 237.054517 83.842873 237.740803 83.842873 
z
" style="fill:#008000;opacity:0.2;stroke:#008000;stroke-linejoin:miter;stroke-width:2;"/>
   </g>
   <g id="patch_58">
    <path clip-path="url(#p1328174c6d)" d="M 342.675096 194.764609 
C 345.42024 194.764609 348.05332 194.061607 349.99443 192.81043 
C 351.93554 191.559254 353.026198 189.862056 353.026198 188.092625 
C 353.026198 186.323194 351.93554 184.625996 349.99443 183.37482 
C 348.05332 182.123643 345.42024 181.420641 342.675096 181.420641 
C 339.929952 181.420641 337.296872 182.123643 335.355762 183.37482 
C 333.414652 184.625996 332.323994 186.323194 332.323994 188.092625 
C 332.323994 189.862056 333.414652 191.559254 335.355762 192.81043 
C 337.296872 194.061607 339.929952 194.764609 342.675096 194.764609 
z
" style="fill:none;opacity:0.2;stroke:#ff0000;stroke-linejoin:miter;stroke-width:2;"/>
   </g>
   <g id="patch_59">
    <path clip-path="url(#p1328174c6d)" d="M 251.326624 296.512368 
C 254.071768 296.512368 256.704848 295.809365 258.645958 294.558189 
C 260.587068 293.307012 261.677726 291.609814 261.677726 289.840384 
C 261.677726 288.070953 260.587068 286.373755 258.645958 285.122578 
C 256.704848 283.871402 254.071768 283.168399 251.326624 283.168399 
C 248.58148 283.168399 245.9484 283.871402 244.00729 285.122578 
C 242.06618 286.373755 240.975522 288.070953 240.975522 289.840384 
C 240.975522 291.609814 242.06618 293.307012 244.00729 294.558189 
C 245.9484 295.809365 248.58148 296.512368 251.326624 296.512368 
z
" style="fill:none;opacity:0.2;stroke:#0000ff;stroke-linejoin:miter;stroke-width:2;"/>
   </g>
   <g id="patch_60">
    <path clip-path="url(#p1328174c6d)" d="M 342.675096 191.428617 
C 344.047668 191.428617 345.364208 191.077116 346.334763 190.451528 
C 347.305318 189.825939 347.850647 188.977341 347.850647 188.092625 
C 347.850647 187.20791 347.305318 186.359311 346.334763 185.733722 
C 345.364208 185.108134 344.047668 184.756633 342.675096 184.756633 
C 341.302524 184.756633 339.985984 185.108134 339.015429 185.733722 
C 338.044874 186.359311 337.499545 187.20791 337.499545 188.092625 
C 337.499545 188.977341 338.044874 189.825939 339.015429 190.451528 
C 339.985984 191.077116 341.302524 191.428617 342.675096 191.428617 
z
" style="fill:none;opacity:0.2;stroke:#008000;stroke-linejoin:miter;stroke-width:2;"/>
   </g>
   <g id="patch_61">
    <path clip-path="url(#p1328174c6d)" d="M 372.434513 197.433403 
C 373.807085 197.433403 375.123625 197.081902 376.09418 196.456313 
C 377.064735 195.830725 377.610064 194.982126 377.610064 194.097411 
C 377.610064 193.212695 377.064735 192.364097 376.09418 191.738508 
C 375.123625 191.11292 373.807085 190.761419 372.434513 190.761419 
C 371.061941 190.761419 369.745401 191.11292 368.774846 191.738508 
C 367.804291 192.364097 367.258962 193.212695 367.258962 194.097411 
C 367.258962 194.982126 367.804291 195.830725 368.774846 196.456313 
C 369.745401 197.081902 371.061941 197.433403 372.434513 197.433403 
z
" style="fill:none;opacity:0.2;stroke:#008000;stroke-linejoin:miter;stroke-width:2;"/>
   </g>
   <g id="patch_62">
    <path d="M 357.554804 191.095018 
Q 303.729076 239.216704 249.903347 287.33839 
" style="fill:none;opacity:0.5;stroke:#008000;stroke-linecap:round;stroke-width:2;"/>
   </g>
   <g id="patch_63">
    <path d="M 344.06137 188.372344 
Q 356.575781 190.897473 369.090191 193.422601 
" style="fill:none;opacity:0.5;stroke:#800080;stroke-linecap:round;stroke-width:2;"/>
    <path d="M 345.23505 190.139398 
L 344.06137 188.372344 
L 345.828424 187.198665 
" style="fill:none;opacity:0.5;stroke:#800080;stroke-linecap:round;stroke-width:2;"/>
    <path d="M 367.916512 191.655548 
L 369.090191 193.422601 
L 367.323138 194.59628 
" style="fill:none;opacity:0.5;stroke:#800080;stroke-linecap:round;stroke-width:2;"/>
   </g>
   <g id="patch_64">
    <path d="M 249.903347 287.33839 
Q 188.443681 232.46132 126.984015 177.58425 
" style="fill:none;opacity:0.5;stroke:#008000;stroke-linecap:round;stroke-width:2;"/>
   </g>
   <g id="patch_65">
    <path d="M 249.179333 286.065636 
Q 249.409231 286.469777 249.63913 286.873918 
" style="fill:none;opacity:0.5;stroke:#800080;stroke-linecap:round;stroke-width:2;"/>
    <path d="M 248.617206 288.111122 
L 249.179333 286.065636 
L 251.224819 286.627763 
" style="fill:none;opacity:0.5;stroke:#800080;stroke-linecap:round;stroke-width:2;"/>
    <path d="M 250.201257 284.828433 
L 249.63913 286.873918 
L 247.593644 286.311791 
" style="fill:none;opacity:0.5;stroke:#800080;stroke-linecap:round;stroke-width:2;"/>
   </g>
   <g id="patch_66">
    <path d="M 126.984015 177.58425 
Q 182.362409 129.879563 237.740803 82.174877 
" style="fill:none;opacity:0.5;stroke:#008000;stroke-linecap:round;stroke-width:2;"/>
   </g>
   <g id="patch_67">
    <path d="M 140.453844 178.641215 
Q 127.981203 177.662498 115.508561 176.683782 
" style="fill:none;opacity:0.5;stroke:#800080;stroke-linecap:round;stroke-width:2;"/>
    <path d="M 139.075784 177.028469 
L 140.453844 178.641215 
L 138.841098 180.019276 
" style="fill:none;opacity:0.5;stroke:#800080;stroke-linecap:round;stroke-width:2;"/>
    <path d="M 116.886622 178.296528 
L 115.508561 176.683782 
L 117.121308 175.305721 
" style="fill:none;opacity:0.5;stroke:#800080;stroke-linecap:round;stroke-width:2;"/>
   </g>
   <g id="patch_68">
    <path d="M 237.740803 82.174877 
Q 297.647804 136.634947 357.554804 191.095018 
" style="fill:none;opacity:0.5;stroke:#008000;stroke-linecap:round;stroke-width:2;"/>
   </g>
   <g id="patch_69">
    <path d="M 238.814829 83.559441 
Q 238.353947 82.965301 237.893064 82.371162 
" style="fill:none;opacity:0.5;stroke:#800080;stroke-linecap:round;stroke-width:2;"/>
    <path d="M 239.080656 81.454842 
L 238.814829 83.559441 
L 236.71023 83.293615 
" style="fill:none;opacity:0.5;stroke:#800080;stroke-linecap:round;stroke-width:2;"/>
    <path d="M 237.627237 84.47576 
L 237.893064 82.371162 
L 239.997663 82.636988 
" style="fill:none;opacity:0.5;stroke:#800080;stroke-linecap:round;stroke-width:2;"/>
   </g>
   <g id="patch_70">
    <path clip-path="url(#p1328174c6d)" d="M 307.48135 53.652144 
C 307.755865 53.652144 308.019173 53.581844 308.213284 53.456726 
C 308.407395 53.331609 308.51646 53.161889 308.51646 52.984946 
C 308.51646 52.808003 308.407395 52.638283 308.213284 52.513165 
C 308.019173 52.388048 307.755865 52.317747 307.48135 52.317747 
C 307.206836 52.317747 306.943528 52.388048 306.749417 52.513165 
C 306.555306 52.638283 306.44624 52.808003 306.44624 52.984946 
C 306.44624 53.161889 306.555306 53.331609 306.749417 53.456726 
C 306.943528 53.581844 307.206836 53.652144 307.48135 53.652144 
z
" style="fill:#ff0000;opacity:0.2;stroke:#ff0000;stroke-linejoin:miter;stroke-width:2;"/>
   </g>
   <g id="patch_71">
    <path clip-path="url(#p1328174c6d)" d="M 176.539915 53.652144 
C 176.814429 53.652144 177.077737 53.581844 177.271848 53.456726 
C 177.465959 53.331609 177.575025 53.161889 177.575025 52.984946 
C 177.575025 52.808003 177.465959 52.638283 177.271848 52.513165 
C 177.077737 52.388048 176.814429 52.317747 176.539915 52.317747 
C 176.2654 52.317747 176.002092 52.388048 175.807981 52.513165 
C 175.61387 52.638283 175.504804 52.808003 175.504804 52.984946 
C 175.504804 53.161889 175.61387 53.331609 175.807981 53.456726 
C 176.002092 53.581844 176.2654 53.652144 176.539915 53.652144 
z
" style="fill:#ff0000;opacity:0.2;stroke:#ff0000;stroke-linejoin:miter;stroke-width:2;"/>
   </g>
   <g id="patch_72">
    <path clip-path="url(#p1328174c6d)" d="M 176.539915 28.632204 
C 176.814429 28.632204 177.077737 28.561903 177.271848 28.436786 
C 177.465959 28.311668 177.575025 28.141948 177.575025 27.965005 
C 177.575025 27.788062 177.465959 27.618342 177.271848 27.493225 
C 177.077737 27.368107 176.814429 27.297807 176.539915 27.297807 
C 176.2654 27.297807 176.002092 27.368107 175.807981 27.493225 
C 175.61387 27.618342 175.504804 27.788062 175.504804 27.965005 
C 175.504804 28.141948 175.61387 28.311668 175.807981 28.436786 
C 176.002092 28.561903 176.2654 28.632204 176.539915 28.632204 
z
" style="fill:#ff0000;opacity:0.2;stroke:#ff0000;stroke-linejoin:miter;stroke-width:2;"/>
   </g>
   <g id="patch_73">
    <path clip-path="url(#p1328174c6d)" d="M 307.48135 28.632204 
C 307.755865 28.632204 308.019173 28.561903 308.213284 28.436786 
C 308.407395 28.311668 308.51646 28.141948 308.51646 27.965005 
C 308.51646 27.788062 308.407395 27.618342 308.213284 27.493225 
C 308.019173 27.368107 307.755865 27.297807 307.48135 27.297807 
C 307.206836 27.297807 306.943528 27.368107 306.749417 27.493225 
C 306.555306 27.618342 306.44624 27.788062 306.44624 27.965005 
C 306.44624 28.141948 306.555306 28.311668 306.749417 28.436786 
C 306.943528 28.561903 307.206836 28.632204 307.48135 28.632204 
z
" style="fill:#ff0000;opacity:0.2;stroke:#ff0000;stroke-linejoin:miter;stroke-width:2;"/>
   </g>
   <g id="patch_74">
    <path clip-path="url(#p1328174c6d)" d="M 301.788244 48.648156 
C 302.062759 48.648156 302.326067 48.577856 302.520178 48.452738 
C 302.714289 48.327621 302.823355 48.157901 302.823355 47.980958 
C 302.823355 47.804015 302.714289 47.634295 302.520178 47.509177 
C 302.326067 47.38406 302.062759 47.313759 301.788244 47.313759 
C 301.51373 47.313759 301.250422 47.38406 301.056311 47.509177 
C 300.8622 47.634295 300.753134 47.804015 300.753134 47.980958 
C 300.753134 48.157901 300.8622 48.327621 301.056311 48.452738 
C 301.250422 48.577856 301.51373 48.648156 301.788244 48.648156 
z
" style="fill:#0000ff;opacity:0.2;stroke:#0000ff;stroke-linejoin:miter;stroke-width:2;"/>
   </g>
   <g id="patch_75">
    <path clip-path="url(#p1328174c6d)" d="M 182.23302 48.648156 
C 182.507535 48.648156 182.770843 48.577856 182.964954 48.452738 
C 183.159065 48.327621 183.268131 48.157901 183.268131 47.980958 
C 183.268131 47.804015 183.159065 47.634295 182.964954 47.509177 
C 182.770843 47.38406 182.507535 47.313759 182.23302 47.313759 
C 181.958506 47.313759 181.695198 47.38406 181.501087 47.509177 
C 181.306976 47.634295 181.19791 47.804015 181.19791 47.980958 
C 181.19791 48.157901 181.306976 48.327621 181.501087 48.452738 
C 181.695198 48.577856 181.958506 48.648156 182.23302 48.648156 
z
" style="fill:#0000ff;opacity:0.2;stroke:#0000ff;stroke-linejoin:miter;stroke-width:2;"/>
   </g>
   <g id="patch_76">
    <path clip-path="url(#p1328174c6d)" d="M 182.23302 29.633001 
C 182.507535 29.633001 182.770843 29.562701 182.964954 29.437583 
C 183.159065 29.312466 183.268131 29.142746 183.268131 28.965803 
C 183.268131 28.78886 183.159065 28.61914 182.964954 28.494022 
C 182.770843 28.368905 182.507535 28.298604 182.23302 28.298604 
C 181.958506 28.298604 181.695198 28.368905 181.501087 28.494022 
C 181.306976 28.61914 181.19791 28.78886 181.19791 28.965803 
C 181.19791 29.142746 181.306976 29.312466 181.501087 29.437583 
C 181.695198 29.562701 181.958506 29.633001 182.23302 29.633001 
z
" style="fill:#0000ff;opacity:0.2;stroke:#0000ff;stroke-linejoin:miter;stroke-width:2;"/>
   </g>
   <g id="patch_77">
    <path clip-path="url(#p1328174c6d)" d="M 301.788244 29.633001 
C 302.062759 29.633001 302.326067 29.562701 302.520178 29.437583 
C 302.714289 29.312466 302.823355 29.142746 302.823355 28.965803 
C 302.823355 28.78886 302.714289 28.61914 302.520178 28.494022 
C 302.326067 28.368905 302.062759 28.298604 301.788244 28.298604 
C 301.51373 28.298604 301.250422 28.368905 301.056311 28.494022 
C 300.8622 28.61914 300.753134 28.78886 300.753134 28.965803 
C 300.753134 29.142746 300.8622 29.312466 301.056311 29.437583 
C 301.250422 29.562701 301.51373 29.633001 301.788244 29.633001 
z
" style="fill:#0000ff;opacity:0.2;stroke:#0000ff;stroke-linejoin:miter;stroke-width:2;"/>
   </g>
   <g id="patch_78">
    <path clip-path="url(#p1328174c6d)" d="M 307.48135 52.984946 
L 176.539915 52.984946 
C 170.329254 47.647359 170.329254 33.302593 176.539915 27.965005 
L 307.48135 27.965005 
C 314.209566 33.302593 314.209566 47.647359 307.48135 52.984946 
" style="fill:none;stroke:#ff0000;stroke-linejoin:miter;stroke-width:0.5;"/>
   </g>
   <g id="patch_79">
    <path clip-path="url(#p1328174c6d)" d="M 301.788244 47.980958 
L 182.23302 47.980958 
C 176.539915 43.644168 176.539915 33.302593 182.23302 28.965803 
L 301.788244 28.965803 
C 307.998905 33.302593 307.998905 43.644168 301.788244 47.980958 
" style="fill:none;stroke:#0000ff;stroke-linejoin:miter;stroke-width:0.5;"/>
   </g>
   <g id="[&quot;g_s&quot;:1,&quot;g_t&quot;:1,&quot;coords&quot;:[[570.0, 25.0],[559.0, 40.0]],&quot;certainty&quot;:10]">
    <path clip-path="url(#p1328174c6d)" d="M 307.48135 54.819741 
C 308.236265 54.819741 308.960362 54.626416 309.494167 54.282342 
C 310.027972 53.938269 310.327903 53.471539 310.327903 52.984946 
C 310.327903 52.498352 310.027972 52.031623 309.494167 51.687549 
C 308.960362 51.343476 308.236265 51.15015 307.48135 51.15015 
C 306.726436 51.15015 306.002339 51.343476 305.468533 51.687549 
C 304.934728 52.031623 304.634797 52.498352 304.634797 52.984946 
C 304.634797 53.471539 304.934728 53.938269 305.468533 54.282342 
C 306.002339 54.626416 306.726436 54.819741 307.48135 54.819741 
z
" style="fill:#0000ff;opacity:0.2;stroke:#0000ff;stroke-linejoin:miter;stroke-width:2;"/>
   </g>
   <g id="[&quot;g_s&quot;:1,&quot;g_t&quot;:1,&quot;coords&quot;:[[559.0, 40.0],[570.0, 25.0]],&quot;certainty&quot;:10]">
    <path clip-path="url(#p1328174c6d)" d="M 301.788244 49.815753 
C 302.543159 49.815753 303.267256 49.622428 303.801061 49.278354 
C 304.334867 48.934281 304.634797 48.467551 304.634797 47.980958 
C 304.634797 47.494364 304.334867 47.027635 303.801061 46.683561 
C 303.267256 46.339488 302.543159 46.146162 301.788244 46.146162 
C 301.03333 46.146162 300.309233 46.339488 299.775428 46.683561 
C 299.241622 47.027635 298.941691 47.494364 298.941691 47.980958 
C 298.941691 48.467551 299.241622 48.934281 299.775428 49.278354 
C 300.309233 49.622428 301.03333 49.815753 301.788244 49.815753 
z
" style="fill:#ff0000;opacity:0.2;stroke:#ff0000;stroke-linejoin:miter;stroke-width:2;"/>
   </g>
   <g id="patch_80">
    <path d="M 307.48135 52.984946 
Q 305.386743 51.143879 304.752687 50.586572 
" style="fill:none;opacity:0.5;stroke:#0000ff;stroke-linecap:round;stroke-width:2.75;"/>
    <path d="M 304.889062 52.703504 
L 304.752687 50.586572 
L 306.86962 50.450197 
" style="fill:none;opacity:0.5;stroke:#0000ff;stroke-linecap:round;stroke-width:2.75;"/>
   </g>
   <g id="[&quot;g_s&quot;:2,&quot;g_t&quot;:2,&quot;coords&quot;:[[317.0, 25.0],[328.0, 40.0]],&quot;certainty&quot;:11]">
    <path clip-path="url(#p1328174c6d)" d="M 176.539915 54.986541 
C 177.363458 54.986541 178.153382 54.77564 178.735715 54.400287 
C 179.318048 54.024934 179.645245 53.515775 179.645245 52.984946 
C 179.645245 52.454117 179.318048 51.944957 178.735715 51.569604 
C 178.153382 51.194251 177.363458 50.983351 176.539915 50.983351 
C 175.716371 50.983351 174.926447 51.194251 174.344114 51.569604 
C 173.761781 51.944957 173.434584 52.454117 173.434584 52.984946 
C 173.434584 53.515775 173.761781 54.024934 174.344114 54.400287 
C 174.926447 54.77564 175.716371 54.986541 176.539915 54.986541 
z
" style="fill:#0000ff;opacity:0.2;stroke:#0000ff;stroke-linejoin:miter;stroke-width:2;"/>
   </g>
   <g id="[&quot;g_s&quot;:2,&quot;g_t&quot;:2,&quot;coords&quot;:[[328.0, 40.0],[317.0, 25.0]],&quot;certainty&quot;:11]">
    <path clip-path="url(#p1328174c6d)" d="M 182.23302 49.982553 
C 183.056564 49.982553 183.846488 49.771652 184.428821 49.396299 
C 185.011154 49.020946 185.338351 48.511787 185.338351 47.980958 
C 185.338351 47.450128 185.011154 46.940969 184.428821 46.565616 
C 183.846488 46.190263 183.056564 45.979362 182.23302 45.979362 
C 181.409477 45.979362 180.619553 46.190263 180.03722 46.565616 
C 179.454887 46.940969 179.12769 47.450128 179.12769 47.980958 
C 179.12769 48.511787 179.454887 49.020946 180.03722 49.396299 
C 180.619553 49.771652 181.409477 49.982553 182.23302 49.982553 
z
" style="fill:#ff0000;opacity:0.2;stroke:#ff0000;stroke-linejoin:miter;stroke-width:2;"/>
   </g>
   <g id="patch_81">
    <path d="M 176.539915 52.984946 
Q 178.634522 51.143879 179.1358 50.703277 
" style="fill:none;opacity:0.5;stroke:#0000ff;stroke-linecap:round;stroke-width:3;"/>
    <path d="M 177.018868 50.566903 
L 179.1358 50.703277 
L 178.999425 52.82021 
" style="fill:none;opacity:0.5;stroke:#0000ff;stroke-linecap:round;stroke-width:3;"/>
   </g>
   <g id="[&quot;g_s&quot;:3,&quot;g_t&quot;:3,&quot;coords&quot;:[[317.0, 100.0],[328.0, 97.0]],&quot;certainty&quot;:11]">
    <path clip-path="url(#p1328174c6d)" d="M 176.539915 29.9666 
C 177.363458 29.9666 178.153382 29.7557 178.735715 29.380347 
C 179.318048 29.004994 179.645245 28.495834 179.645245 27.965005 
C 179.645245 27.434176 179.318048 26.925017 178.735715 26.549664 
C 178.153382 26.174311 177.363458 25.96341 176.539915 25.96341 
C 175.716371 25.96341 174.926447 26.174311 174.344114 26.549664 
C 173.761781 26.925017 173.434584 27.434176 173.434584 27.965005 
C 173.434584 28.495834 173.761781 29.004994 174.344114 29.380347 
C 174.926447 29.7557 175.716371 29.9666 176.539915 29.9666 
z
" style="fill:#0000ff;opacity:0.2;stroke:#0000ff;stroke-linejoin:miter;stroke-width:2;"/>
   </g>
   <g id="[&quot;g_s&quot;:3,&quot;g_t&quot;:3,&quot;coords&quot;:[[328.0, 97.0],[317.0, 100.0]],&quot;certainty&quot;:11]">
    <path clip-path="url(#p1328174c6d)" d="M 182.23302 30.967398 
C 183.056564 30.967398 183.846488 30.756497 184.428821 30.381144 
C 185.011154 30.005791 185.338351 29.496632 185.338351 28.965803 
C 185.338351 28.434974 185.011154 27.925814 184.428821 27.550461 
C 183.846488 27.175108 183.056564 26.964208 182.23302 26.964208 
C 181.409477 26.964208 180.619553 27.175108 180.03722 27.550461 
C 179.454887 27.925814 179.12769 28.434974 179.12769 28.965803 
C 179.12769 29.496632 179.454887 30.005791 180.03722 30.381144 
C 180.619553 30.756497 181.409477 30.967398 182.23302 30.967398 
z
" style="fill:#ff0000;opacity:0.2;stroke:#ff0000;stroke-linejoin:miter;stroke-width:2;"/>
   </g>
   <g id="patch_82">
    <path d="M 176.539915 27.965005 
Q 178.401015 28.29217 178.172832 28.252058 
" style="fill:none;opacity:0.5;stroke:#0000ff;stroke-linecap:round;stroke-width:3;"/>
    <path d="M 176.95519 26.515006 
L 178.172832 28.252058 
L 176.435781 29.4697 
" style="fill:none;opacity:0.5;stroke:#0000ff;stroke-linecap:round;stroke-width:3;"/>
   </g>
   <g id="[&quot;g_s&quot;:4,&quot;g_t&quot;:4,&quot;coords&quot;:[[570.0, 100.0],[559.0, 97.0]],&quot;certainty&quot;:12]">
    <path clip-path="url(#p1328174c6d)" d="M 307.48135 30.1334 
C 308.373522 30.1334 309.229273 29.904924 309.860134 29.498292 
C 310.490995 29.09166 310.845458 28.54007 310.845458 27.965005 
C 310.845458 27.38994 310.490995 26.838351 309.860134 26.431719 
C 309.229273 26.025086 308.373522 25.79661 307.48135 25.79661 
C 306.589178 25.79661 305.733427 26.025086 305.102567 26.431719 
C 304.471706 26.838351 304.117242 27.38994 304.117242 27.965005 
C 304.117242 28.54007 304.471706 29.09166 305.102567 29.498292 
C 305.733427 29.904924 306.589178 30.1334 307.48135 30.1334 
z
" style="fill:#0000ff;opacity:0.2;stroke:#0000ff;stroke-linejoin:miter;stroke-width:2;"/>
   </g>
   <g id="[&quot;g_s&quot;:4,&quot;g_t&quot;:4,&quot;coords&quot;:[[559.0, 97.0],[570.0, 100.0]],&quot;certainty&quot;:12]">
    <path clip-path="url(#p1328174c6d)" d="M 301.788244 31.134198 
C 302.680416 31.134198 303.536167 30.905722 304.167028 30.49909 
C 304.797889 30.092457 305.152352 29.540868 305.152352 28.965803 
C 305.152352 28.390738 304.797889 27.839149 304.167028 27.432516 
C 303.536167 27.025884 302.680416 26.797408 301.788244 26.797408 
C 300.896073 26.797408 300.040322 27.025884 299.409461 27.432516 
C 298.7786 27.839149 298.424136 28.390738 298.424136 28.965803 
C 298.424136 29.540868 298.7786 30.092457 299.409461 30.49909 
C 300.040322 30.905722 300.896073 31.134198 301.788244 31.134198 
z
" style="fill:#ff0000;opacity:0.2;stroke:#ff0000;stroke-linejoin:miter;stroke-width:2;"/>
   </g>
   <g id="patch_83">
    <path d="M 307.48135 27.965005 
Q 305.62025 28.29217 306.02254 28.221451 
" style="fill:none;opacity:0.5;stroke:#0000ff;stroke-linecap:round;stroke-width:3.25;"/>
    <path d="M 307.759591 29.439094 
L 306.02254 28.221451 
L 307.240182 26.4844 
" style="fill:none;opacity:0.5;stroke:#0000ff;stroke-linecap:round;stroke-width:3.25;"/>
   </g>
   <g id="[&quot;g_s&quot;:1,&quot;g_t&quot;:1,&quot;coords&quot;:[[559.0, 40.0],[570.0, 25.0]],&quot;certainty&quot;:10]">
    <path clip-path="url(#p1328174c6d)" d="M 301.788244 49.815753 
C 302.543159 49.815753 303.267256 49.622428 303.801061 49.278354 
C 304.334867 48.934281 304.634797 48.467551 304.634797 47.980958 
C 304.634797 47.494364 304.334867 47.027635 303.801061 46.683561 
C 303.267256 46.339488 302.543159 46.146162 301.788244 46.146162 
C 301.03333 46.146162 300.309233 46.339488 299.775428 46.683561 
C 299.241622 47.027635 298.941691 47.494364 298.941691 47.980958 
C 298.941691 48.467551 299.241622 48.934281 299.775428 49.278354 
C 300.309233 49.622428 301.03333 49.815753 301.788244 49.815753 
z
" style="fill:#0000ff;opacity:0.2;stroke:#0000ff;stroke-linejoin:miter;stroke-width:2;"/>
   </g>
   <g id="[&quot;g_s&quot;:1,&quot;g_t&quot;:1,&quot;coords&quot;:[[570.0, 25.0],[559.0, 40.0]],&quot;certainty&quot;:10]">
    <path clip-path="url(#p1328174c6d)" d="M 307.48135 54.819741 
C 308.236265 54.819741 308.960362 54.626416 309.494167 54.282342 
C 310.027972 53.938269 310.327903 53.471539 310.327903 52.984946 
C 310.327903 52.498352 310.027972 52.031623 309.494167 51.687549 
C 308.960362 51.343476 308.236265 51.15015 307.48135 51.15015 
C 306.726436 51.15015 306.002339 51.343476 305.468533 51.687549 
C 304.934728 52.031623 304.634797 52.498352 304.634797 52.984946 
C 304.634797 53.471539 304.934728 53.938269 305.468533 54.282342 
C 306.002339 54.626416 306.726436 54.819741 307.48135 54.819741 
z
" style="fill:#ff0000;opacity:0.2;stroke:#ff0000;stroke-linejoin:miter;stroke-width:2;"/>
   </g>
   <g id="patch_84">
    <path d="M 301.788244 47.980958 
Q 303.882851 49.822025 304.516907 50.379332 
" style="fill:none;opacity:0.5;stroke:#ff0000;stroke-linecap:round;stroke-width:2.75;"/>
    <path d="M 304.380532 48.262399 
L 304.516907 50.379332 
L 302.399975 50.515707 
" style="fill:none;opacity:0.5;stroke:#ff0000;stroke-linecap:round;stroke-width:2.75;"/>
   </g>
   <g id="[&quot;g_s&quot;:2,&quot;g_t&quot;:2,&quot;coords&quot;:[[328.0, 40.0],[317.0, 25.0]],&quot;certainty&quot;:11]">
    <path clip-path="url(#p1328174c6d)" d="M 182.23302 49.982553 
C 183.056564 49.982553 183.846488 49.771652 184.428821 49.396299 
C 185.011154 49.020946 185.338351 48.511787 185.338351 47.980958 
C 185.338351 47.450128 185.011154 46.940969 184.428821 46.565616 
C 183.846488 46.190263 183.056564 45.979362 182.23302 45.979362 
C 181.409477 45.979362 180.619553 46.190263 180.03722 46.565616 
C 179.454887 46.940969 179.12769 47.450128 179.12769 47.980958 
C 179.12769 48.511787 179.454887 49.020946 180.03722 49.396299 
C 180.619553 49.771652 181.409477 49.982553 182.23302 49.982553 
z
" style="fill:#0000ff;opacity:0.2;stroke:#0000ff;stroke-linejoin:miter;stroke-width:2;"/>
   </g>
   <g id="[&quot;g_s&quot;:2,&quot;g_t&quot;:2,&quot;coords&quot;:[[317.0, 25.0],[328.0, 40.0]],&quot;certainty&quot;:11]">
    <path clip-path="url(#p1328174c6d)" d="M 176.539915 54.986541 
C 177.363458 54.986541 178.153382 54.77564 178.735715 54.400287 
C 179.318048 54.024934 179.645245 53.515775 179.645245 52.984946 
C 179.645245 52.454117 179.318048 51.944957 178.735715 51.569604 
C 178.153382 51.194251 177.363458 50.983351 176.539915 50.983351 
C 175.716371 50.983351 174.926447 51.194251 174.344114 51.569604 
C 173.761781 51.944957 173.434584 52.454117 173.434584 52.984946 
C 173.434584 53.515775 173.761781 54.024934 174.344114 54.400287 
C 174.926447 54.77564 175.716371 54.986541 176.539915 54.986541 
z
" style="fill:#ff0000;opacity:0.2;stroke:#ff0000;stroke-linejoin:miter;stroke-width:2;"/>
   </g>
   <g id="patch_85">
    <path d="M 182.23302 47.980958 
Q 180.138413 49.822025 179.637135 50.262626 
" style="fill:none;opacity:0.5;stroke:#ff0000;stroke-linecap:round;stroke-width:3;"/>
    <path d="M 181.754067 50.399001 
L 179.637135 50.262626 
L 179.77351 48.145694 
" style="fill:none;opacity:0.5;stroke:#ff0000;stroke-linecap:round;stroke-width:3;"/>
   </g>
   <g id="[&quot;g_s&quot;:3,&quot;g_t&quot;:3,&quot;coords&quot;:[[328.0, 97.0],[317.0, 100.0]],&quot;certainty&quot;:11]">
    <path clip-path="url(#p1328174c6d)" d="M 182.23302 30.967398 
C 183.056564 30.967398 183.846488 30.756497 184.428821 30.381144 
C 185.011154 30.005791 185.338351 29.496632 185.338351 28.965803 
C 185.338351 28.434974 185.011154 27.925814 184.428821 27.550461 
C 183.846488 27.175108 183.056564 26.964208 182.23302 26.964208 
C 181.409477 26.964208 180.619553 27.175108 180.03722 27.550461 
C 179.454887 27.925814 179.12769 28.434974 179.12769 28.965803 
C 179.12769 29.496632 179.454887 30.005791 180.03722 30.381144 
C 180.619553 30.756497 181.409477 30.967398 182.23302 30.967398 
z
" style="fill:#0000ff;opacity:0.2;stroke:#0000ff;stroke-linejoin:miter;stroke-width:2;"/>
   </g>
   <g id="[&quot;g_s&quot;:3,&quot;g_t&quot;:3,&quot;coords&quot;:[[317.0, 100.0],[328.0, 97.0]],&quot;certainty&quot;:11]">
    <path clip-path="url(#p1328174c6d)" d="M 176.539915 29.9666 
C 177.363458 29.9666 178.153382 29.7557 178.735715 29.380347 
C 179.318048 29.004994 179.645245 28.495834 179.645245 27.965005 
C 179.645245 27.434176 179.318048 26.925017 178.735715 26.549664 
C 178.153382 26.174311 177.363458 25.96341 176.539915 25.96341 
C 175.716371 25.96341 174.926447 26.174311 174.344114 26.549664 
C 173.761781 26.925017 173.434584 27.434176 173.434584 27.965005 
C 173.434584 28.495834 173.761781 29.004994 174.344114 29.380347 
C 174.926447 29.7557 175.716371 29.9666 176.539915 29.9666 
z
" style="fill:#ff0000;opacity:0.2;stroke:#ff0000;stroke-linejoin:miter;stroke-width:2;"/>
   </g>
   <g id="patch_86">
    <path d="M 182.23302 28.965803 
Q 180.37192 28.638638 180.600103 28.67875 
" style="fill:none;opacity:0.5;stroke:#ff0000;stroke-linecap:round;stroke-width:3;"/>
    <path d="M 181.817745 30.415802 
L 180.600103 28.67875 
L 182.337154 27.461108 
" style="fill:none;opacity:0.5;stroke:#ff0000;stroke-linecap:round;stroke-width:3;"/>
   </g>
   <g id="[&quot;g_s&quot;:4,&quot;g_t&quot;:4,&quot;coords&quot;:[[559.0, 97.0],[570.0, 100.0]],&quot;certainty&quot;:12]">
    <path clip-path="url(#p1328174c6d)" d="M 301.788244 31.134198 
C 302.680416 31.134198 303.536167 30.905722 304.167028 30.49909 
C 304.797889 30.092457 305.152352 29.540868 305.152352 28.965803 
C 305.152352 28.390738 304.797889 27.839149 304.167028 27.432516 
C 303.536167 27.025884 302.680416 26.797408 301.788244 26.797408 
C 300.896073 26.797408 300.040322 27.025884 299.409461 27.432516 
C 298.7786 27.839149 298.424136 28.390738 298.424136 28.965803 
C 298.424136 29.540868 298.7786 30.092457 299.409461 30.49909 
C 300.040322 30.905722 300.896073 31.134198 301.788244 31.134198 
z
" style="fill:#0000ff;opacity:0.2;stroke:#0000ff;stroke-linejoin:miter;stroke-width:2;"/>
   </g>
   <g id="[&quot;g_s&quot;:4,&quot;g_t&quot;:4,&quot;coords&quot;:[[570.0, 100.0],[559.0, 97.0]],&quot;certainty&quot;:12]">
    <path clip-path="url(#p1328174c6d)" d="M 307.48135 30.1334 
C 308.373522 30.1334 309.229273 29.904924 309.860134 29.498292 
C 310.490995 29.09166 310.845458 28.54007 310.845458 27.965005 
C 310.845458 27.38994 310.490995 26.838351 309.860134 26.431719 
C 309.229273 26.025086 308.373522 25.79661 307.48135 25.79661 
C 306.589178 25.79661 305.733427 26.025086 305.102567 26.431719 
C 304.471706 26.838351 304.117242 27.38994 304.117242 27.965005 
C 304.117242 28.54007 304.471706 29.09166 305.102567 29.498292 
C 305.733427 29.904924 306.589178 30.1334 307.48135 30.1334 
z
" style="fill:#ff0000;opacity:0.2;stroke:#ff0000;stroke-linejoin:miter;stroke-width:2;"/>
   </g>
   <g id="patch_87">
    <path d="M 301.788244 28.965803 
Q 303.649345 28.638638 303.247055 28.709357 
" style="fill:none;opacity:0.5;stroke:#ff0000;stroke-linecap:round;stroke-width:3.25;"/>
    <path d="M 301.510004 27.491715 
L 303.247055 28.709357 
L 302.029413 30.446408 
" style="fill:none;opacity:0.5;stroke:#ff0000;stroke-linecap:round;stroke-width:3.25;"/>
   </g>
   <g id="patch_88">
    <path clip-path="url(#p1328174c6d)" d="M 304.634797 52.150948 
C 305.321083 52.150948 305.979353 51.975197 306.464631 51.662403 
C 306.949908 51.349609 307.222573 50.925309 307.222573 50.482952 
C 307.222573 50.040594 306.949908 49.616295 306.464631 49.3035 
C 305.979353 48.990706 305.321083 48.814956 304.634797 48.814956 
C 303.948511 48.814956 303.290241 48.990706 302.804964 49.3035 
C 302.319686 49.616295 302.047022 50.040594 302.047022 50.482952 
C 302.047022 50.925309 302.319686 51.349609 302.804964 51.662403 
C 303.290241 51.975197 303.948511 52.150948 304.634797 52.150948 
z
" style="fill:#008000;opacity:0.2;stroke:#008000;stroke-linejoin:miter;stroke-width:2;"/>
   </g>
   <g id="patch_89">
    <path clip-path="url(#p1328174c6d)" d="M 179.386467 52.150948 
C 180.072754 52.150948 180.731024 51.975197 181.216301 51.662403 
C 181.701579 51.349609 181.974243 50.925309 181.974243 50.482952 
C 181.974243 50.040594 181.701579 49.616295 181.216301 49.3035 
C 180.731024 48.990706 180.072754 48.814956 179.386467 48.814956 
C 178.700181 48.814956 178.041911 48.990706 177.556634 49.3035 
C 177.071356 49.616295 176.798692 50.040594 176.798692 50.482952 
C 176.798692 50.925309 177.071356 51.349609 177.556634 51.662403 
C 178.041911 51.975197 178.700181 52.150948 179.386467 52.150948 
z
" style="fill:#008000;opacity:0.2;stroke:#008000;stroke-linejoin:miter;stroke-width:2;"/>
   </g>
   <g id="patch_90">
    <path clip-path="url(#p1328174c6d)" d="M 179.386467 30.1334 
C 180.072754 30.1334 180.731024 29.95765 181.216301 29.644855 
C 181.701579 29.332061 181.974243 28.907762 181.974243 28.465404 
C 181.974243 28.023046 181.701579 27.598747 181.216301 27.285953 
C 180.731024 26.973159 180.072754 26.797408 179.386467 26.797408 
C 178.700181 26.797408 178.041911 26.973159 177.556634 27.285953 
C 177.071356 27.598747 176.798692 28.023046 176.798692 28.465404 
C 176.798692 28.907762 177.071356 29.332061 177.556634 29.644855 
C 178.041911 29.95765 178.700181 30.1334 179.386467 30.1334 
z
" style="fill:#008000;opacity:0.2;stroke:#008000;stroke-linejoin:miter;stroke-width:2;"/>
   </g>
   <g id="patch_91">
    <path clip-path="url(#p1328174c6d)" d="M 304.634797 30.1334 
C 305.321083 30.1334 305.979353 29.95765 306.464631 29.644855 
C 306.949908 29.332061 307.222573 28.907762 307.222573 28.465404 
C 307.222573 28.023046 306.949908 27.598747 306.464631 27.285953 
C 305.979353 26.973159 305.321083 26.797408 304.634797 26.797408 
C 303.948511 26.797408 303.290241 26.973159 302.804964 27.285953 
C 302.319686 27.598747 302.047022 28.023046 302.047022 28.465404 
C 302.047022 28.907762 302.319686 29.332061 302.804964 29.644855 
C 303.290241 29.95765 303.948511 30.1334 304.634797 30.1334 
z
" style="fill:#008000;opacity:0.2;stroke:#008000;stroke-linejoin:miter;stroke-width:2;"/>
   </g>
   <g id="patch_92">
    <path clip-path="url(#p1328174c6d)" d="M 307.48135 59.65693 
C 310.226495 59.65693 312.859574 58.953928 314.800684 57.702751 
C 316.741795 56.451575 317.832452 54.754377 317.832452 52.984946 
C 317.832452 51.215515 316.741795 49.518317 314.800684 48.267141 
C 312.859574 47.015964 310.226495 46.312962 307.48135 46.312962 
C 304.736206 46.312962 302.103126 47.015964 300.162016 48.267141 
C 298.220906 49.518317 297.130249 51.215515 297.130249 52.984946 
C 297.130249 54.754377 298.220906 56.451575 300.162016 57.702751 
C 302.103126 58.953928 304.736206 59.65693 307.48135 59.65693 
z
" style="fill:none;opacity:0.2;stroke:#ff0000;stroke-linejoin:miter;stroke-width:2;"/>
   </g>
   <g id="patch_93">
    <path clip-path="url(#p1328174c6d)" d="M 301.788244 54.652942 
C 304.533389 54.652942 307.166468 53.94994 309.107579 52.698763 
C 311.048689 51.447586 312.139346 49.750389 312.139346 47.980958 
C 312.139346 46.211527 311.048689 44.514329 309.107579 43.263152 
C 307.166468 42.011976 304.533389 41.308974 301.788244 41.308974 
C 299.0431 41.308974 296.41002 42.011976 294.46891 43.263152 
C 292.5278 44.514329 291.437143 46.211527 291.437143 47.980958 
C 291.437143 49.750389 292.5278 51.447586 294.46891 52.698763 
C 296.41002 53.94994 299.0431 54.652942 301.788244 54.652942 
z
" style="fill:none;opacity:0.2;stroke:#0000ff;stroke-linejoin:miter;stroke-width:2;"/>
   </g>
   <g id="patch_94">
    <path clip-path="url(#p1328174c6d)" d="M 307.48135 56.320938 
C 308.853922 56.320938 310.170462 55.969437 311.141017 55.343848 
C 312.111572 54.71826 312.656901 53.869661 312.656901 52.984946 
C 312.656901 52.10023 312.111572 51.251632 311.141017 50.626043 
C 310.170462 50.000455 308.853922 49.648954 307.48135 49.648954 
C 306.108778 49.648954 304.792238 50.000455 303.821683 50.626043 
C 302.851128 51.251632 302.305799 52.10023 302.305799 52.984946 
C 302.305799 53.869661 302.851128 54.71826 303.821683 55.343848 
C 304.792238 55.969437 306.108778 56.320938 307.48135 56.320938 
z
" style="fill:none;opacity:0.2;stroke:#008000;stroke-linejoin:miter;stroke-width:2;"/>
   </g>
   <g id="patch_95">
    <path clip-path="url(#p1328174c6d)" d="M 301.788244 51.31695 
C 303.160817 51.31695 304.477356 50.965449 305.447911 50.33986 
C 306.418467 49.714272 306.963795 48.865673 306.963795 47.980958 
C 306.963795 47.096242 306.418467 46.247643 305.447911 45.622055 
C 304.477356 44.996467 303.160817 44.644966 301.788244 44.644966 
C 300.415672 44.644966 299.099132 44.996467 298.128577 45.622055 
C 297.158022 46.247643 296.612694 47.096242 296.612694 47.980958 
C 296.612694 48.865673 297.158022 49.714272 298.128577 50.33986 
C 299.099132 50.965449 300.415672 51.31695 301.788244 51.31695 
z
" style="fill:none;opacity:0.2;stroke:#008000;stroke-linejoin:miter;stroke-width:2;"/>
   </g>
   <g id="patch_96">
    <path d="M 304.634797 50.482952 
Q 242.010632 50.482952 179.386467 50.482952 
" style="fill:none;opacity:0.5;stroke:#008000;stroke-linecap:round;stroke-width:2;"/>
   </g>
   <g id="patch_97">
    <path d="M 306.419131 52.051302 
Q 305.386743 51.143879 304.354355 50.236456 
" style="fill:none;opacity:0.5;stroke:#800080;stroke-linecap:round;stroke-width:2;"/>
    <path d="M 306.282756 49.93437 
L 306.419131 52.051302 
L 304.302199 52.187677 
" style="fill:none;opacity:0.5;stroke:#800080;stroke-linecap:round;stroke-width:2;"/>
    <path d="M 304.49073 52.353388 
L 304.354355 50.236456 
L 306.471287 50.100081 
" style="fill:none;opacity:0.5;stroke:#800080;stroke-linecap:round;stroke-width:2;"/>
   </g>
   <g id="patch_98">
    <path d="M 179.386467 50.482952 
Q 179.386467 39.474178 179.386467 28.465404 
" style="fill:none;opacity:0.5;stroke:#008000;stroke-linecap:round;stroke-width:2;"/>
   </g>
   <g id="patch_99">
    <path d="M 177.602134 52.051302 
Q 178.634522 51.143879 179.66691 50.236456 
" style="fill:none;opacity:0.5;stroke:#800080;stroke-linecap:round;stroke-width:2;"/>
    <path d="M 179.719066 52.187677 
L 177.602134 52.051302 
L 177.738509 49.93437 
" style="fill:none;opacity:0.5;stroke:#800080;stroke-linecap:round;stroke-width:2;"/>
    <path d="M 177.549977 50.100081 
L 179.66691 50.236456 
L 179.530535 52.353388 
" style="fill:none;opacity:0.5;stroke:#800080;stroke-linecap:round;stroke-width:2;"/>
   </g>
   <g id="patch_100">
    <path d="M 179.386467 28.465404 
Q 242.010632 28.465404 304.634797 28.465404 
" style="fill:none;opacity:0.5;stroke:#008000;stroke-linecap:round;stroke-width:2;"/>
   </g>
   <g id="patch_101">
    <path d="M 177.93277 28.209857 
Q 178.401015 28.29217 178.86926 28.374484 
" style="fill:none;opacity:0.5;stroke:#800080;stroke-linecap:round;stroke-width:2;"/>
    <path d="M 179.150413 29.946908 
L 177.93277 28.209857 
L 179.669822 26.992215 
" style="fill:none;opacity:0.5;stroke:#800080;stroke-linecap:round;stroke-width:2;"/>
    <path d="M 177.651618 26.637432 
L 178.86926 28.374484 
L 177.132209 29.592126 
" style="fill:none;opacity:0.5;stroke:#800080;stroke-linecap:round;stroke-width:2;"/>
   </g>
   <g id="patch_102">
    <path d="M 304.634797 28.465404 
Q 304.634797 39.474178 304.634797 50.482952 
" style="fill:none;opacity:0.5;stroke:#008000;stroke-linecap:round;stroke-width:2;"/>
   </g>
   <g id="patch_103">
    <path d="M 306.088494 28.209857 
Q 305.62025 28.29217 305.152005 28.374484 
" style="fill:none;opacity:0.5;stroke:#800080;stroke-linecap:round;stroke-width:2;"/>
    <path d="M 304.351443 26.992215 
L 306.088494 28.209857 
L 304.870852 29.946908 
" style="fill:none;opacity:0.5;stroke:#800080;stroke-linecap:round;stroke-width:2;"/>
    <path d="M 306.889056 29.592126 
L 305.152005 28.374484 
L 306.369647 26.637432 
" style="fill:none;opacity:0.5;stroke:#800080;stroke-linecap:round;stroke-width:2;"/>
   </g>
   <g id="line2d_1">
    <path clip-path="url(#p1328174c6d)" d="M 243.822075 69.331307 
L 425.483909 183.755835 
L 238.646524 300.181959 
L 59.054911 186.424629 
" style="fill:none;stroke:#ff0000;stroke-linecap:square;stroke-width:0.2;"/>
   </g>
   <g id="line2d_2">
    <path clip-path="url(#p1328174c6d)" d="M 244.598408 300.181959 
L 60.348799 187.091827 
L 244.598408 69.331307 
L 424.190021 183.755835 
" style="fill:none;stroke:#0000ff;stroke-linecap:square;stroke-width:0.2;"/>
   </g>
   <g id="line2d_3">
    <path clip-path="url(#p1328174c6d)" d="M 342.675096 188.092625 
L 248.480071 284.836395 
L 141.863724 178.751847 
L 239.681635 84.676871 
" style="fill:none;stroke:#ff0000;stroke-linecap:square;stroke-width:0.2;"/>
   </g>
   <g id="line2d_4">
    <path clip-path="url(#p1328174c6d)" d="M 251.326624 289.840384 
L 112.104307 176.416653 
L 235.799971 79.672882 
L 372.434513 194.097411 
" style="fill:none;stroke:#0000ff;stroke-linecap:square;stroke-width:0.2;"/>
   </g>
   <g id="line2d_5">
    <path clip-path="url(#p1328174c6d)" d="M 307.48135 52.984946 
L 176.539915 52.984946 
L 176.539915 27.965005 
L 307.48135 27.965005 
" style="fill:none;stroke:#ff0000;stroke-linecap:square;stroke-width:0.2;"/>
   </g>
   <g id="line2d_6">
    <path clip-path="url(#p1328174c6d)" d="M 301.788244 47.980958 
L 182.23302 47.980958 
L 182.23302 28.965803 
L 301.788244 28.965803 
" style="fill:none;stroke:#0000ff;stroke-linecap:square;stroke-width:0.2;"/>
   </g>
  </g>
 </g>
 <defs>
  <clipPath id="p1328174c6d">
   <rect height="307.51175" width="409.903625" x="37.576375" y="13.32"/>
  </clipPath>
 </defs>
</svg>
