<?xml version="1.0" encoding="utf-8" standalone="no"?>
<!DOCTYPE svg PUBLIC "-//W3C//DTD SVG 1.1//EN"
  "http://www.w3.org/Graphics/SVG/1.1/DTD/svg11.dtd">
<!-- Created with matplotlib (http://matplotlib.org/) -->
<svg height="345.6pt" version="1.1" viewBox="0 0 460.8 345.6" width="460.8pt" xmlns="http://www.w3.org/2000/svg" xmlns:xlink="http://www.w3.org/1999/xlink">
 <defs>
  <style type="text/css">
*{stroke-linecap:butt;stroke-linejoin:round;}
  </style>
 </defs>
 <g id="figure_1">
  <g id="patch_1">
   <path d="M 0 345.6 
L 460.8 345.6 
L 460.8 0 
L 0 0 
z
" style="fill:#ffffff;"/>
  </g>
  <g id="axes_1">
   <g id="patch_2">
    <path clip-path="url(#p1c6eea66a0)" d="M 240.331491 298.5228 
C 240.755179 298.5228 241.16157 298.425264 241.461163 298.251674 
C 241.760755 298.078084 241.929088 297.842611 241.929088 297.597117 
C 241.929088 297.351624 241.760755 297.116151 241.461163 296.942561 
C 241.16157 296.768971 240.755179 296.671435 240.331491 296.671435 
C 239.907803 296.671435 239.501411 296.768971 239.201819 296.942561 
C 238.902226 297.116151 238.733893 297.351624 238.733893 297.597117 
C 238.733893 297.842611 238.902226 298.078084 239.201819 298.251674 
C 239.501411 298.425264 239.907803 298.5228 240.331491 298.5228 
z
" style="fill:#ff0000;opacity:0.2;stroke:#ff0000;stroke-linejoin:miter;stroke-width:2;"/>
   </g>
   <g id="patch_3">
    <path clip-path="url(#p1c6eea66a0)" d="M 61.40055 203.177495 
C 61.824238 203.177495 62.23063 203.07996 62.530223 202.906369 
C 62.829815 202.732779 62.998148 202.497307 62.998148 202.251813 
C 62.998148 202.006319 62.829815 201.770847 62.530223 201.597256 
C 62.23063 201.423666 61.824238 201.32613 61.40055 201.32613 
C 60.976863 201.32613 60.570471 201.423666 60.270878 201.597256 
C 59.971286 201.770847 59.802953 202.006319 59.802953 202.251813 
C 59.802953 202.497307 59.971286 202.732779 60.270878 202.906369 
C 60.570471 203.07996 60.976863 203.177495 61.40055 203.177495 
z
" style="fill:#ff0000;opacity:0.2;stroke:#ff0000;stroke-linejoin:miter;stroke-width:2;"/>
   </g>
   <g id="patch_4">
    <path clip-path="url(#p1c6eea66a0)" d="M 245.124284 100.42673 
C 245.547972 100.42673 245.954363 100.329194 246.253956 100.155604 
C 246.553548 99.982013 246.721881 99.746541 246.721881 99.501047 
C 246.721881 99.255553 246.553548 99.020081 246.253956 98.846491 
C 245.954363 98.672901 245.547972 98.575365 245.124284 98.575365 
C 244.700596 98.575365 244.294204 98.672901 243.994612 98.846491 
C 243.695019 99.020081 243.526686 99.255553 243.526686 99.501047 
C 243.526686 99.746541 243.695019 99.982013 243.994612 100.155604 
C 244.294204 100.329194 244.700596 100.42673 245.124284 100.42673 
z
" style="fill:#ff0000;opacity:0.2;stroke:#ff0000;stroke-linejoin:miter;stroke-width:2;"/>
   </g>
   <g id="patch_5">
    <path clip-path="url(#p1c6eea66a0)" d="M 424.055224 199.011924 
C 424.478912 199.011924 424.885304 198.914388 425.184896 198.740798 
C 425.484489 198.567207 425.652822 198.331735 425.652822 198.086241 
C 425.652822 197.840747 425.484489 197.605275 425.184896 197.431685 
C 424.885304 197.258094 424.478912 197.160559 424.055224 197.160559 
C 423.631536 197.160559 423.225144 197.258094 422.925552 197.431685 
C 422.625959 197.605275 422.457626 197.840747 422.457626 198.086241 
C 422.457626 198.331735 422.625959 198.567207 422.925552 198.740798 
C 423.225144 198.914388 423.631536 199.011924 424.055224 199.011924 
z
" style="fill:#ff0000;opacity:0.2;stroke:#ff0000;stroke-linejoin:miter;stroke-width:2;"/>
   </g>
   <g id="patch_6">
    <path clip-path="url(#p1c6eea66a0)" d="M 246.721881 104.592301 
C 247.145569 104.592301 247.551961 104.494766 247.851554 104.321175 
C 248.151146 104.147585 248.319479 103.912113 248.319479 103.666619 
C 248.319479 103.421125 248.151146 103.185653 247.851554 103.012062 
C 247.551961 102.838472 247.145569 102.740936 246.721881 102.740936 
C 246.298194 102.740936 245.891802 102.838472 245.592209 103.012062 
C 245.292617 103.185653 245.124284 103.421125 245.124284 103.666619 
C 245.124284 103.912113 245.292617 104.147585 245.592209 104.321175 
C 245.891802 104.494766 246.298194 104.592301 246.721881 104.592301 
z
" style="fill:#0000ff;opacity:0.2;stroke:#0000ff;stroke-linejoin:miter;stroke-width:2;"/>
   </g>
   <g id="patch_7">
    <path clip-path="url(#p1c6eea66a0)" d="M 408.878046 200.400448 
C 409.301734 200.400448 409.708126 200.302912 410.007718 200.129321 
C 410.307311 199.955731 410.475644 199.720259 410.475644 199.474765 
C 410.475644 199.229271 410.307311 198.993799 410.007718 198.820209 
C 409.708126 198.646618 409.301734 198.549082 408.878046 198.549082 
C 408.454358 198.549082 408.047966 198.646618 407.748374 198.820209 
C 407.448781 198.993799 407.280448 199.229271 407.280448 199.474765 
C 407.280448 199.720259 407.448781 199.955731 407.748374 200.129321 
C 408.047966 200.302912 408.454358 200.400448 408.878046 200.400448 
z
" style="fill:#0000ff;opacity:0.2;stroke:#0000ff;stroke-linejoin:miter;stroke-width:2;"/>
   </g>
   <g id="patch_8">
    <path clip-path="url(#p1c6eea66a0)" d="M 240.331491 299.911324 
C 240.755179 299.911324 241.16157 299.813788 241.461163 299.640198 
C 241.760755 299.466607 241.929088 299.231135 241.929088 298.985641 
C 241.929088 298.740147 241.760755 298.504675 241.461163 298.331085 
C 241.16157 298.157495 240.755179 298.059959 240.331491 298.059959 
C 239.907803 298.059959 239.501411 298.157495 239.201819 298.331085 
C 238.902226 298.504675 238.733893 298.740147 238.733893 298.985641 
C 238.733893 299.231135 238.902226 299.466607 239.201819 299.640198 
C 239.501411 299.813788 239.907803 299.911324 240.331491 299.911324 
z
" style="fill:#0000ff;opacity:0.2;stroke:#0000ff;stroke-linejoin:miter;stroke-width:2;"/>
   </g>
   <g id="patch_9">
    <path clip-path="url(#p1c6eea66a0)" d="M 76.577728 204.566019 
C 77.001416 204.566019 77.407808 204.468483 77.707401 204.294893 
C 78.006993 204.121303 78.175326 203.88583 78.175326 203.640337 
C 78.175326 203.394843 78.006993 203.159371 77.707401 202.98578 
C 77.407808 202.81219 77.001416 202.714654 76.577728 202.714654 
C 76.154041 202.714654 75.747649 202.81219 75.448056 202.98578 
C 75.148464 203.159371 74.980131 203.394843 74.980131 203.640337 
C 74.980131 203.88583 75.148464 204.121303 75.448056 204.294893 
C 75.747649 204.468483 76.154041 204.566019 76.577728 204.566019 
z
" style="fill:#0000ff;opacity:0.2;stroke:#0000ff;stroke-linejoin:miter;stroke-width:2;"/>
   </g>
   <g id="patch_10">
    <path clip-path="url(#p1c6eea66a0)" d="M 240.331491 297.597117 
C 145.274429 297.597117 62.199349 266.12391 61.40055 202.251813 
C 60.601752 136.065509 150.866021 99.501047 245.124284 99.501047 
C 339.382547 99.501047 424.055224 132.82562 424.055224 198.086241 
C 424.055224 265.661069 338.583748 297.597117 240.331491 297.597117 
" style="fill:none;stroke:#ff0000;stroke-linejoin:miter;stroke-width:0.5;"/>
   </g>
   <g id="patch_11">
    <path clip-path="url(#p1c6eea66a0)" d="M 246.721881 103.666619 
C 336.187352 103.666619 408.878046 142.545287 408.878046 199.474765 
C 408.878046 257.329926 340.181346 298.985641 240.331491 298.985641 
C 148.469624 298.985641 76.577728 261.495497 76.577728 203.640337 
C 76.577728 145.322335 152.463618 103.666619 246.721881 103.666619 
" style="fill:none;stroke:#0000ff;stroke-linejoin:miter;stroke-width:0.5;"/>
   </g>
   <g id="[&quot;g_s&quot;:1,&quot;g_t&quot;:3,&quot;coords&quot;:[[305.0, -714.0],[305.0, -717.0]],&quot;certainty&quot;:11]">
    <path clip-path="url(#p1c6eea66a0)" d="M 240.331491 300.374165 
C 241.602554 300.374165 242.821729 300.081558 243.720507 299.560787 
C 244.619285 299.040016 245.124284 298.333599 245.124284 297.597117 
C 245.124284 296.860636 244.619285 296.154219 243.720507 295.633448 
C 242.821729 295.112677 241.602554 294.82007 240.331491 294.82007 
C 239.060427 294.82007 237.841252 295.112677 236.942474 295.633448 
C 236.043697 296.154219 235.538698 296.860636 235.538698 297.597117 
C 235.538698 298.333599 236.043697 299.040016 236.942474 299.560787 
C 237.841252 300.081558 239.060427 300.374165 240.331491 300.374165 
z
" style="fill:#0000ff;opacity:0.2;stroke:#0000ff;stroke-linejoin:miter;stroke-width:2;"/>
   </g>
   <g id="[&quot;g_s&quot;:3,&quot;g_t&quot;:1,&quot;coords&quot;:[[305.0, -717.0],[305.0, -714.0]],&quot;certainty&quot;:11]">
    <path clip-path="url(#p1c6eea66a0)" d="M 240.331491 301.762689 
C 241.602554 301.762689 242.821729 301.470082 243.720507 300.949311 
C 244.619285 300.428539 245.124284 299.722123 245.124284 298.985641 
C 245.124284 298.24916 244.619285 297.542743 243.720507 297.021972 
C 242.821729 296.501201 241.602554 296.208594 240.331491 296.208594 
C 239.060427 296.208594 237.841252 296.501201 236.942474 297.021972 
C 236.043697 297.542743 235.538698 298.24916 235.538698 298.985641 
C 235.538698 299.722123 236.043697 300.428539 236.942474 300.949311 
C 237.841252 301.470082 239.060427 301.762689 240.331491 301.762689 
z
" style="fill:#ff0000;opacity:0.2;stroke:#ff0000;stroke-linejoin:miter;stroke-width:2;"/>
   </g>
   <g id="patch_12">
    <path d="M 240.331491 297.597117 
Q 240.331491 298.291379 240.331491 296.864321 
" style="fill:none;opacity:0.5;stroke:#0000ff;stroke-linecap:round;stroke-width:3;"/>
    <path d="M 241.831491 295.364321 
L 240.331491 296.864321 
L 238.831491 295.364321 
" style="fill:none;opacity:0.5;stroke:#0000ff;stroke-linecap:round;stroke-width:3;"/>
   </g>
   <g id="[&quot;g_s&quot;:2,&quot;g_t&quot;:4,&quot;coords&quot;:[[81.0, -508.0],[100.0, -511.0]],&quot;certainty&quot;:10]">
    <path clip-path="url(#p1c6eea66a0)" d="M 61.40055 204.79744 
C 62.565692 204.79744 63.683269 204.529216 64.507149 204.051843 
C 65.331028 203.574469 65.793944 202.926921 65.793944 202.251813 
C 65.793944 201.576704 65.331028 200.929156 64.507149 200.451783 
C 63.683269 199.974409 62.565692 199.706186 61.40055 199.706186 
C 60.235409 199.706186 59.117832 199.974409 58.293952 200.451783 
C 57.470072 200.929156 57.007157 201.576704 57.007157 202.251813 
C 57.007157 202.926921 57.470072 203.574469 58.293952 204.051843 
C 59.117832 204.529216 60.235409 204.79744 61.40055 204.79744 
z
" style="fill:#0000ff;opacity:0.2;stroke:#0000ff;stroke-linejoin:miter;stroke-width:2;"/>
   </g>
   <g id="[&quot;g_s&quot;:4,&quot;g_t&quot;:2,&quot;coords&quot;:[[100.0, -511.0],[81.0, -508.0]],&quot;certainty&quot;:10]">
    <path clip-path="url(#p1c6eea66a0)" d="M 76.577728 206.185964 
C 77.74287 206.185964 78.860447 205.91774 79.684327 205.440367 
C 80.508206 204.962993 80.971122 204.315445 80.971122 203.640337 
C 80.971122 202.965228 80.508206 202.31768 79.684327 201.840306 
C 78.860447 201.362933 77.74287 201.094709 76.577728 201.094709 
C 75.412587 201.094709 74.295009 201.362933 73.47113 201.840306 
C 72.64725 202.31768 72.184335 202.965228 72.184335 203.640337 
C 72.184335 204.315445 72.64725 204.962993 73.47113 205.440367 
C 74.295009 205.91774 75.412587 206.185964 76.577728 206.185964 
z
" style="fill:#ff0000;opacity:0.2;stroke:#ff0000;stroke-linejoin:miter;stroke-width:2;"/>
   </g>
   <g id="patch_13">
    <path d="M 61.40055 202.251813 
Q 67.994249 202.855054 72.651491 203.281134 
" style="fill:none;opacity:0.5;stroke:#0000ff;stroke-linecap:round;stroke-width:2.75;"/>
    <path d="M 71.29439 201.650712 
L 72.651491 203.281134 
L 71.021068 204.638235 
" style="fill:none;opacity:0.5;stroke:#0000ff;stroke-linecap:round;stroke-width:2.75;"/>
   </g>
   <g id="[&quot;g_s&quot;:3,&quot;g_t&quot;:1,&quot;coords&quot;:[[311.0, -286.0],[313.0, -295.0]],&quot;certainty&quot;:12]">
    <path clip-path="url(#p1c6eea66a0)" d="M 245.124284 102.509516 
C 246.501269 102.509516 247.822042 102.192524 248.795718 101.628356 
C 249.769394 101.064187 250.316476 100.298902 250.316476 99.501047 
C 250.316476 98.703192 249.769394 97.937908 248.795718 97.373739 
C 247.822042 96.80957 246.501269 96.492579 245.124284 96.492579 
C 243.747298 96.492579 242.426525 96.80957 241.452849 97.373739 
C 240.479173 97.937908 239.932091 98.703192 239.932091 99.501047 
C 239.932091 100.298902 240.479173 101.064187 241.452849 101.628356 
C 242.426525 102.192524 243.747298 102.509516 245.124284 102.509516 
z
" style="fill:#0000ff;opacity:0.2;stroke:#0000ff;stroke-linejoin:miter;stroke-width:2;"/>
   </g>
   <g id="[&quot;g_s&quot;:1,&quot;g_t&quot;:3,&quot;coords&quot;:[[313.0, -295.0],[311.0, -286.0]],&quot;certainty&quot;:12]">
    <path clip-path="url(#p1c6eea66a0)" d="M 246.721881 106.675087 
C 248.098867 106.675087 249.41964 106.358096 250.393316 105.793927 
C 251.366992 105.229759 251.914074 104.464474 251.914074 103.666619 
C 251.914074 102.868764 251.366992 102.103479 250.393316 101.539311 
C 249.41964 100.975142 248.098867 100.658151 246.721881 100.658151 
C 245.344896 100.658151 244.024123 100.975142 243.050447 101.539311 
C 242.076771 102.103479 241.529689 102.868764 241.529689 103.666619 
C 241.529689 104.464474 242.076771 105.229759 243.050447 105.793927 
C 244.024123 106.358096 245.344896 106.675087 246.721881 106.675087 
z
" style="fill:#ff0000;opacity:0.2;stroke:#ff0000;stroke-linejoin:miter;stroke-width:2;"/>
   </g>
   <g id="patch_14">
    <path d="M 245.124284 99.501047 
Q 245.565027 100.650241 245.182842 99.653732 
" style="fill:none;opacity:0.5;stroke:#0000ff;stroke-linecap:round;stroke-width:3.25;"/>
    <path d="M 246.046235 97.716065 
L 245.182842 99.653732 
L 243.245175 98.790339 
" style="fill:none;opacity:0.5;stroke:#0000ff;stroke-linecap:round;stroke-width:3.25;"/>
   </g>
   <g id="[&quot;g_s&quot;:4,&quot;g_t&quot;:2,&quot;coords&quot;:[[535.0, -499.0],[516.0, -502.0]],&quot;certainty&quot;:11]">
    <path clip-path="url(#p1c6eea66a0)" d="M 424.055224 200.863289 
C 425.326288 200.863289 426.545463 200.570682 427.44424 200.04991 
C 428.343018 199.529139 428.848017 198.822723 428.848017 198.086241 
C 428.848017 197.349759 428.343018 196.643343 427.44424 196.122572 
C 426.545463 195.601801 425.326288 195.309193 424.055224 195.309193 
C 422.78416 195.309193 421.564985 195.601801 420.666208 196.122572 
C 419.76743 196.643343 419.262431 197.349759 419.262431 198.086241 
C 419.262431 198.822723 419.76743 199.529139 420.666208 200.04991 
C 421.564985 200.570682 422.78416 200.863289 424.055224 200.863289 
z
" style="fill:#0000ff;opacity:0.2;stroke:#0000ff;stroke-linejoin:miter;stroke-width:2;"/>
   </g>
   <g id="[&quot;g_s&quot;:2,&quot;g_t&quot;:4,&quot;coords&quot;:[[516.0, -502.0],[535.0, -499.0]],&quot;certainty&quot;:11]">
    <path clip-path="url(#p1c6eea66a0)" d="M 408.878046 202.251813 
C 410.14911 202.251813 411.368285 201.959205 412.267062 201.438434 
C 413.16584 200.917663 413.670839 200.211247 413.670839 199.474765 
C 413.670839 198.738283 413.16584 198.031867 412.267062 197.511096 
C 411.368285 196.990325 410.14911 196.697717 408.878046 196.697717 
C 407.606982 196.697717 406.387807 196.990325 405.48903 197.511096 
C 404.590252 198.031867 404.085253 198.738283 404.085253 199.474765 
C 404.085253 200.211247 404.590252 200.917663 405.48903 201.438434 
C 406.387807 201.959205 407.606982 202.251813 408.878046 202.251813 
z
" style="fill:#ff0000;opacity:0.2;stroke:#ff0000;stroke-linejoin:miter;stroke-width:2;"/>
   </g>
   <g id="patch_15">
    <path d="M 424.055224 198.086241 
Q 417.461526 198.689483 412.980325 199.099457 
" style="fill:none;opacity:0.5;stroke:#0000ff;stroke-linecap:round;stroke-width:3;"/>
    <path d="M 414.610748 200.456558 
L 412.980325 199.099457 
L 414.337426 197.469035 
" style="fill:none;opacity:0.5;stroke:#0000ff;stroke-linecap:round;stroke-width:3;"/>
   </g>
   <g id="[&quot;g_s&quot;:1,&quot;g_t&quot;:3,&quot;coords&quot;:[[313.0, -295.0],[311.0, -286.0]],&quot;certainty&quot;:10]">
    <path clip-path="url(#p1c6eea66a0)" d="M 246.721881 106.212246 
C 247.887023 106.212246 249.0046 105.944023 249.82848 105.466649 
C 250.652359 104.989275 251.115275 104.341727 251.115275 103.666619 
C 251.115275 102.991511 250.652359 102.343962 249.82848 101.866589 
C 249.0046 101.389215 247.887023 101.120992 246.721881 101.120992 
C 245.55674 101.120992 244.439163 101.389215 243.615283 101.866589 
C 242.791403 102.343962 242.328488 102.991511 242.328488 103.666619 
C 242.328488 104.341727 242.791403 104.989275 243.615283 105.466649 
C 244.439163 105.944023 245.55674 106.212246 246.721881 106.212246 
z
" style="fill:#0000ff;opacity:0.2;stroke:#0000ff;stroke-linejoin:miter;stroke-width:2;"/>
   </g>
   <g id="[&quot;g_s&quot;:3,&quot;g_t&quot;:1,&quot;coords&quot;:[[311.0, -286.0],[313.0, -295.0]],&quot;certainty&quot;:10]">
    <path clip-path="url(#p1c6eea66a0)" d="M 245.124284 102.046674 
C 246.289425 102.046674 247.407003 101.778451 248.230882 101.301077 
C 249.054762 100.823704 249.517677 100.176156 249.517677 99.501047 
C 249.517677 98.825939 249.054762 98.178391 248.230882 97.701017 
C 247.407003 97.223644 246.289425 96.95542 245.124284 96.95542 
C 243.959142 96.95542 242.841565 97.223644 242.017685 97.701017 
C 241.193806 98.178391 240.73089 98.825939 240.73089 99.501047 
C 240.73089 100.176156 241.193806 100.823704 242.017685 101.301077 
C 242.841565 101.778451 243.959142 102.046674 245.124284 102.046674 
z
" style="fill:#ff0000;opacity:0.2;stroke:#ff0000;stroke-linejoin:miter;stroke-width:2;"/>
   </g>
   <g id="patch_16">
    <path d="M 246.721881 103.666619 
Q 246.281138 102.517426 246.536719 103.183826 
" style="fill:none;opacity:0.5;stroke:#ff0000;stroke-linecap:round;stroke-width:2.75;"/>
    <path d="M 245.673326 105.121493 
L 246.536719 103.183826 
L 248.474386 104.047219 
" style="fill:none;opacity:0.5;stroke:#ff0000;stroke-linecap:round;stroke-width:2.75;"/>
   </g>
   <g id="[&quot;g_s&quot;:2,&quot;g_t&quot;:4,&quot;coords&quot;:[[516.0, -502.0],[535.0, -499.0]],&quot;certainty&quot;:11]">
    <path clip-path="url(#p1c6eea66a0)" d="M 408.878046 202.251813 
C 410.14911 202.251813 411.368285 201.959205 412.267062 201.438434 
C 413.16584 200.917663 413.670839 200.211247 413.670839 199.474765 
C 413.670839 198.738283 413.16584 198.031867 412.267062 197.511096 
C 411.368285 196.990325 410.14911 196.697717 408.878046 196.697717 
C 407.606982 196.697717 406.387807 196.990325 405.48903 197.511096 
C 404.590252 198.031867 404.085253 198.738283 404.085253 199.474765 
C 404.085253 200.211247 404.590252 200.917663 405.48903 201.438434 
C 406.387807 201.959205 407.606982 202.251813 408.878046 202.251813 
z
" style="fill:#0000ff;opacity:0.2;stroke:#0000ff;stroke-linejoin:miter;stroke-width:2;"/>
   </g>
   <g id="[&quot;g_s&quot;:4,&quot;g_t&quot;:2,&quot;coords&quot;:[[535.0, -499.0],[516.0, -502.0]],&quot;certainty&quot;:11]">
    <path clip-path="url(#p1c6eea66a0)" d="M 424.055224 200.863289 
C 425.326288 200.863289 426.545463 200.570682 427.44424 200.04991 
C 428.343018 199.529139 428.848017 198.822723 428.848017 198.086241 
C 428.848017 197.349759 428.343018 196.643343 427.44424 196.122572 
C 426.545463 195.601801 425.326288 195.309193 424.055224 195.309193 
C 422.78416 195.309193 421.564985 195.601801 420.666208 196.122572 
C 419.76743 196.643343 419.262431 197.349759 419.262431 198.086241 
C 419.262431 198.822723 419.76743 199.529139 420.666208 200.04991 
C 421.564985 200.570682 422.78416 200.863289 424.055224 200.863289 
z
" style="fill:#ff0000;opacity:0.2;stroke:#ff0000;stroke-linejoin:miter;stroke-width:2;"/>
   </g>
   <g id="patch_17">
    <path d="M 408.878046 199.474765 
Q 415.471744 198.871523 419.952945 198.461549 
" style="fill:none;opacity:0.5;stroke:#ff0000;stroke-linecap:round;stroke-width:3;"/>
    <path d="M 418.322522 197.104448 
L 419.952945 198.461549 
L 418.595844 200.091971 
" style="fill:none;opacity:0.5;stroke:#ff0000;stroke-linecap:round;stroke-width:3;"/>
   </g>
   <g id="[&quot;g_s&quot;:3,&quot;g_t&quot;:1,&quot;coords&quot;:[[305.0, -717.0],[305.0, -714.0]],&quot;certainty&quot;:11]">
    <path clip-path="url(#p1c6eea66a0)" d="M 240.331491 301.762689 
C 241.602554 301.762689 242.821729 301.470082 243.720507 300.949311 
C 244.619285 300.428539 245.124284 299.722123 245.124284 298.985641 
C 245.124284 298.24916 244.619285 297.542743 243.720507 297.021972 
C 242.821729 296.501201 241.602554 296.208594 240.331491 296.208594 
C 239.060427 296.208594 237.841252 296.501201 236.942474 297.021972 
C 236.043697 297.542743 235.538698 298.24916 235.538698 298.985641 
C 235.538698 299.722123 236.043697 300.428539 236.942474 300.949311 
C 237.841252 301.470082 239.060427 301.762689 240.331491 301.762689 
z
" style="fill:#0000ff;opacity:0.2;stroke:#0000ff;stroke-linejoin:miter;stroke-width:2;"/>
   </g>
   <g id="[&quot;g_s&quot;:1,&quot;g_t&quot;:3,&quot;coords&quot;:[[305.0, -714.0],[305.0, -717.0]],&quot;certainty&quot;:11]">
    <path clip-path="url(#p1c6eea66a0)" d="M 240.331491 300.374165 
C 241.602554 300.374165 242.821729 300.081558 243.720507 299.560787 
C 244.619285 299.040016 245.124284 298.333599 245.124284 297.597117 
C 245.124284 296.860636 244.619285 296.154219 243.720507 295.633448 
C 242.821729 295.112677 241.602554 294.82007 240.331491 294.82007 
C 239.060427 294.82007 237.841252 295.112677 236.942474 295.633448 
C 236.043697 296.154219 235.538698 296.860636 235.538698 297.597117 
C 235.538698 298.333599 236.043697 299.040016 236.942474 299.560787 
C 237.841252 300.081558 239.060427 300.374165 240.331491 300.374165 
z
" style="fill:#ff0000;opacity:0.2;stroke:#ff0000;stroke-linejoin:miter;stroke-width:2;"/>
   </g>
   <g id="patch_18">
    <path d="M 240.331491 298.985641 
Q 240.331491 298.291379 240.331491 299.718438 
" style="fill:none;opacity:0.5;stroke:#ff0000;stroke-linecap:round;stroke-width:3;"/>
    <path d="M 238.831491 301.218438 
L 240.331491 299.718438 
L 241.831491 301.218438 
" style="fill:none;opacity:0.5;stroke:#ff0000;stroke-linecap:round;stroke-width:3;"/>
   </g>
   <g id="[&quot;g_s&quot;:4,&quot;g_t&quot;:2,&quot;coords&quot;:[[100.0, -511.0],[81.0, -508.0]],&quot;certainty&quot;:12]">
    <path clip-path="url(#p1c6eea66a0)" d="M 76.577728 206.648805 
C 77.954714 206.648805 79.275487 206.331814 80.249163 205.767645 
C 81.222839 205.203476 81.769921 204.438192 81.769921 203.640337 
C 81.769921 202.842481 81.222839 202.077197 80.249163 201.513028 
C 79.275487 200.948859 77.954714 200.631868 76.577728 200.631868 
C 75.200743 200.631868 73.87997 200.948859 72.906294 201.513028 
C 71.932618 202.077197 71.385536 202.842481 71.385536 203.640337 
C 71.385536 204.438192 71.932618 205.203476 72.906294 205.767645 
C 73.87997 206.331814 75.200743 206.648805 76.577728 206.648805 
z
" style="fill:#0000ff;opacity:0.2;stroke:#0000ff;stroke-linejoin:miter;stroke-width:2;"/>
   </g>
   <g id="[&quot;g_s&quot;:2,&quot;g_t&quot;:4,&quot;coords&quot;:[[81.0, -508.0],[100.0, -511.0]],&quot;certainty&quot;:12]">
    <path clip-path="url(#p1c6eea66a0)" d="M 61.40055 205.260281 
C 62.777536 205.260281 64.098309 204.94329 65.071985 204.379121 
C 66.045661 203.814952 66.592743 203.049668 66.592743 202.251813 
C 66.592743 201.453958 66.045661 200.688673 65.071985 200.124504 
C 64.098309 199.560336 62.777536 199.243344 61.40055 199.243344 
C 60.023565 199.243344 58.702792 199.560336 57.729116 200.124504 
C 56.75544 200.688673 56.208358 201.453958 56.208358 202.251813 
C 56.208358 203.049668 56.75544 203.814952 57.729116 204.379121 
C 58.702792 204.94329 60.023565 205.260281 61.40055 205.260281 
z
" style="fill:#ff0000;opacity:0.2;stroke:#ff0000;stroke-linejoin:miter;stroke-width:2;"/>
   </g>
   <g id="patch_19">
    <path d="M 76.577728 203.640337 
Q 69.98403 203.037095 65.678871 202.643226 
" style="fill:none;opacity:0.5;stroke:#ff0000;stroke-linecap:round;stroke-width:3.25;"/>
    <path d="M 67.035972 204.273648 
L 65.678871 202.643226 
L 67.309294 201.286125 
" style="fill:none;opacity:0.5;stroke:#ff0000;stroke-linecap:round;stroke-width:3.25;"/>
   </g>
   <g id="patch_20">
    <path clip-path="url(#p1c6eea66a0)" d="M 240.331491 300.605586 
C 241.39071 300.605586 242.40669 300.361746 243.155671 299.92777 
C 243.904652 299.493794 244.325485 298.905114 244.325485 298.291379 
C 244.325485 297.677645 243.904652 297.088964 243.155671 296.654988 
C 242.40669 296.221012 241.39071 295.977173 240.331491 295.977173 
C 239.272271 295.977173 238.256292 296.221012 237.50731 296.654988 
C 236.758329 297.088964 236.337496 297.677645 236.337496 298.291379 
C 236.337496 298.905114 236.758329 299.493794 237.50731 299.92777 
C 238.256292 300.361746 239.272271 300.605586 240.331491 300.605586 
z
" style="fill:#008000;opacity:0.2;stroke:#008000;stroke-linejoin:miter;stroke-width:2;"/>
   </g>
   <g id="patch_21">
    <path clip-path="url(#p1c6eea66a0)" d="M 68.989139 205.260281 
C 70.048359 205.260281 71.064338 205.016442 71.81332 204.582466 
C 72.562301 204.14849 72.983134 203.559809 72.983134 202.946075 
C 72.983134 202.33234 72.562301 201.74366 71.81332 201.309684 
C 71.064338 200.875708 70.048359 200.631868 68.989139 200.631868 
C 67.92992 200.631868 66.91394 200.875708 66.164959 201.309684 
C 65.415978 201.74366 64.995145 202.33234 64.995145 202.946075 
C 64.995145 203.559809 65.415978 204.14849 66.164959 204.582466 
C 66.91394 205.016442 67.92992 205.260281 68.989139 205.260281 
z
" style="fill:#008000;opacity:0.2;stroke:#008000;stroke-linejoin:miter;stroke-width:2;"/>
   </g>
   <g id="patch_22">
    <path clip-path="url(#p1c6eea66a0)" d="M 245.923083 103.89804 
C 246.982302 103.89804 247.998282 103.6542 248.747263 103.220224 
C 249.496244 102.786248 249.917077 102.197568 249.917077 101.583833 
C 249.917077 100.970098 249.496244 100.381418 248.747263 99.947442 
C 247.998282 99.513466 246.982302 99.269627 245.923083 99.269627 
C 244.863863 99.269627 243.847884 99.513466 243.098902 99.947442 
C 242.349921 100.381418 241.929088 100.970098 241.929088 101.583833 
C 241.929088 102.197568 242.349921 102.786248 243.098902 103.220224 
C 243.847884 103.6542 244.863863 103.89804 245.923083 103.89804 
z
" style="fill:#008000;opacity:0.2;stroke:#008000;stroke-linejoin:miter;stroke-width:2;"/>
   </g>
   <g id="patch_23">
    <path clip-path="url(#p1c6eea66a0)" d="M 416.466635 201.094709 
C 417.525855 201.094709 418.541834 200.85087 419.290815 200.416894 
C 420.039797 199.982918 420.460629 199.394238 420.460629 198.780503 
C 420.460629 198.166768 420.039797 197.578088 419.290815 197.144112 
C 418.541834 196.710136 417.525855 196.466297 416.466635 196.466297 
C 415.407415 196.466297 414.391436 196.710136 413.642455 197.144112 
C 412.893473 197.578088 412.472641 198.166768 412.472641 198.780503 
C 412.472641 199.394238 412.893473 199.982918 413.642455 200.416894 
C 414.391436 200.85087 415.407415 201.094709 416.466635 201.094709 
z
" style="fill:#008000;opacity:0.2;stroke:#008000;stroke-linejoin:miter;stroke-width:2;"/>
   </g>
   <g id="patch_24">
    <path clip-path="url(#p1c6eea66a0)" d="M 240.331491 306.853943 
C 244.568369 306.853943 248.632287 305.878586 251.628212 304.142682 
C 254.624138 302.406778 256.307467 300.052056 256.307467 297.597117 
C 256.307467 295.142179 254.624138 292.787457 251.628212 291.051553 
C 248.632287 289.315649 244.568369 288.340292 240.331491 288.340292 
C 236.094612 288.340292 232.030695 289.315649 229.034769 291.051553 
C 226.038844 292.787457 224.355514 295.142179 224.355514 297.597117 
C 224.355514 300.052056 226.038844 302.406778 229.034769 304.142682 
C 232.030695 305.878586 236.094612 306.853943 240.331491 306.853943 
z
" style="fill:none;opacity:0.2;stroke:#ff0000;stroke-linejoin:miter;stroke-width:2;"/>
   </g>
   <g id="patch_25">
    <path clip-path="url(#p1c6eea66a0)" d="M 246.721881 112.923445 
C 250.95876 112.923445 255.022677 111.948087 258.018603 110.212183 
C 261.014529 108.476279 262.697858 106.121558 262.697858 103.666619 
C 262.697858 101.21168 261.014529 98.856959 258.018603 97.121055 
C 255.022677 95.385151 250.95876 94.409793 246.721881 94.409793 
C 242.485003 94.409793 238.421085 95.385151 235.42516 97.121055 
C 232.429234 98.856959 230.745905 101.21168 230.745905 103.666619 
C 230.745905 106.121558 232.429234 108.476279 235.42516 110.212183 
C 238.421085 111.948087 242.485003 112.923445 246.721881 112.923445 
z
" style="fill:none;opacity:0.2;stroke:#0000ff;stroke-linejoin:miter;stroke-width:2;"/>
   </g>
   <g id="patch_26">
    <path clip-path="url(#p1c6eea66a0)" d="M 240.331491 302.22553 
C 242.44993 302.22553 244.481889 301.737852 245.979851 300.8699 
C 247.477814 300.001948 248.319479 298.824587 248.319479 297.597117 
C 248.319479 296.369648 247.477814 295.192287 245.979851 294.324335 
C 244.481889 293.456383 242.44993 292.968705 240.331491 292.968705 
C 238.213051 292.968705 236.181093 293.456383 234.68313 294.324335 
C 233.185167 295.192287 232.343502 296.369648 232.343502 297.597117 
C 232.343502 298.824587 233.185167 300.001948 234.68313 300.8699 
C 236.181093 301.737852 238.213051 302.22553 240.331491 302.22553 
z
" style="fill:none;opacity:0.2;stroke:#008000;stroke-linejoin:miter;stroke-width:2;"/>
   </g>
   <g id="patch_27">
    <path clip-path="url(#p1c6eea66a0)" d="M 240.331491 303.614054 
C 242.44993 303.614054 244.481889 303.126375 245.979851 302.258423 
C 247.477814 301.390471 248.319479 300.213111 248.319479 298.985641 
C 248.319479 297.758172 247.477814 296.580811 245.979851 295.712859 
C 244.481889 294.844907 242.44993 294.357228 240.331491 294.357228 
C 238.213051 294.357228 236.181093 294.844907 234.68313 295.712859 
C 233.185167 296.580811 232.343502 297.758172 232.343502 298.985641 
C 232.343502 300.213111 233.185167 301.390471 234.68313 302.258423 
C 236.181093 303.126375 238.213051 303.614054 240.331491 303.614054 
z
" style="fill:none;opacity:0.2;stroke:#008000;stroke-linejoin:miter;stroke-width:2;"/>
   </g>
   <g id="patch_28">
    <path d="M 240.331491 298.291379 
Q 154.660315 250.618727 68.989139 202.946075 
" style="fill:none;opacity:0.5;stroke:#008000;stroke-linecap:round;stroke-width:2;"/>
   </g>
   <g id="patch_29">
    <path d="M 240.331491 299.011331 
Q 240.331491 298.291379 240.331491 297.571428 
" style="fill:none;opacity:0.5;stroke:#800080;stroke-linecap:round;stroke-width:2;"/>
    <path d="M 238.831491 300.511331 
L 240.331491 299.011331 
L 241.831491 300.511331 
" style="fill:none;opacity:0.5;stroke:#800080;stroke-linecap:round;stroke-width:2;"/>
    <path d="M 241.831491 296.071428 
L 240.331491 297.571428 
L 238.831491 296.071428 
" style="fill:none;opacity:0.5;stroke:#800080;stroke-linecap:round;stroke-width:2;"/>
   </g>
   <g id="patch_30">
    <path d="M 68.989139 202.946075 
Q 157.456111 152.264954 245.923083 101.583833 
" style="fill:none;opacity:0.5;stroke:#008000;stroke-linecap:round;stroke-width:2;"/>
   </g>
   <g id="patch_31">
    <path d="M 62.808882 202.380658 
Q 67.994249 202.855054 73.179615 203.329451 
" style="fill:none;opacity:0.5;stroke:#800080;stroke-linecap:round;stroke-width:2;"/>
    <path d="M 64.165983 204.01108 
L 62.808882 202.380658 
L 64.439305 201.023557 
" style="fill:none;opacity:0.5;stroke:#800080;stroke-linecap:round;stroke-width:2;"/>
    <path d="M 71.822514 201.699029 
L 73.179615 203.329451 
L 71.549193 204.686552 
" style="fill:none;opacity:0.5;stroke:#800080;stroke-linecap:round;stroke-width:2;"/>
   </g>
   <g id="patch_32">
    <path d="M 245.923083 101.583833 
Q 331.194859 150.182168 416.466635 198.780503 
" style="fill:none;opacity:0.5;stroke:#008000;stroke-linecap:round;stroke-width:2;"/>
   </g>
   <g id="patch_33">
    <path d="M 245.630701 100.821479 
Q 245.565027 100.650241 245.499353 100.479002 
" style="fill:none;opacity:0.5;stroke:#800080;stroke-linecap:round;stroke-width:2;"/>
    <path d="M 244.767309 102.759146 
L 245.630701 100.821479 
L 247.568368 101.684872 
" style="fill:none;opacity:0.5;stroke:#800080;stroke-linecap:round;stroke-width:2;"/>
    <path d="M 246.362746 98.541335 
L 245.499353 100.479002 
L 243.561686 99.615609 
" style="fill:none;opacity:0.5;stroke:#800080;stroke-linecap:round;stroke-width:2;"/>
   </g>
   <g id="patch_34">
    <path d="M 416.466635 198.780503 
Q 328.399063 248.535941 240.331491 298.291379 
" style="fill:none;opacity:0.5;stroke:#008000;stroke-linecap:round;stroke-width:2;"/>
   </g>
   <g id="patch_35">
    <path d="M 422.646892 198.215086 
Q 417.461526 198.689483 412.276159 199.16388 
" style="fill:none;opacity:0.5;stroke:#800080;stroke-linecap:round;stroke-width:2;"/>
    <path d="M 421.01647 196.857985 
L 422.646892 198.215086 
L 421.289791 199.845508 
" style="fill:none;opacity:0.5;stroke:#800080;stroke-linecap:round;stroke-width:2;"/>
    <path d="M 413.906582 200.520981 
L 412.276159 199.16388 
L 413.63326 197.533457 
" style="fill:none;opacity:0.5;stroke:#800080;stroke-linecap:round;stroke-width:2;"/>
   </g>
   <g id="patch_36">
    <path clip-path="url(#p1c6eea66a0)" d="M 240.331491 121.717429 
C 240.755179 121.717429 241.16157 121.619893 241.461163 121.446303 
C 241.760755 121.272712 241.929088 121.03724 241.929088 120.791746 
C 241.929088 120.546253 241.760755 120.31078 241.461163 120.13719 
C 241.16157 119.9636 240.755179 119.866064 240.331491 119.866064 
C 239.907803 119.866064 239.501411 119.9636 239.201819 120.13719 
C 238.902226 120.31078 238.733893 120.546253 238.733893 120.791746 
C 238.733893 121.03724 238.902226 121.272712 239.201819 121.446303 
C 239.501411 121.619893 239.907803 121.717429 240.331491 121.717429 
z
" style="fill:#ff0000;opacity:0.2;stroke:#ff0000;stroke-linejoin:miter;stroke-width:2;"/>
   </g>
   <g id="patch_37">
    <path clip-path="url(#p1c6eea66a0)" d="M 309.028191 205.491702 
C 309.451879 205.491702 309.858271 205.394166 310.157863 205.220576 
C 310.457456 205.046985 310.625789 204.811513 310.625789 204.566019 
C 310.625789 204.320525 310.457456 204.085053 310.157863 203.911463 
C 309.858271 203.737872 309.451879 203.640337 309.028191 203.640337 
C 308.604503 203.640337 308.198111 203.737872 307.898519 203.911463 
C 307.598926 204.085053 307.430593 204.320525 307.430593 204.566019 
C 307.430593 204.811513 307.598926 205.046985 307.898519 205.220576 
C 308.198111 205.394166 308.604503 205.491702 309.028191 205.491702 
z
" style="fill:#ff0000;opacity:0.2;stroke:#ff0000;stroke-linejoin:miter;stroke-width:2;"/>
   </g>
   <g id="patch_38">
    <path clip-path="url(#p1c6eea66a0)" d="M 249.118278 277.232101 
C 249.541966 277.232101 249.948358 277.134565 250.24795 276.960975 
C 250.547543 276.787384 250.715876 276.551912 250.715876 276.306418 
C 250.715876 276.060924 250.547543 275.825452 250.24795 275.651862 
C 249.948358 275.478272 249.541966 275.380736 249.118278 275.380736 
C 248.69459 275.380736 248.288198 275.478272 247.988606 275.651862 
C 247.689013 275.825452 247.52068 276.060924 247.52068 276.306418 
C 247.52068 276.551912 247.689013 276.787384 247.988606 276.960975 
C 248.288198 277.134565 248.69459 277.232101 249.118278 277.232101 
z
" style="fill:#ff0000;opacity:0.2;stroke:#ff0000;stroke-linejoin:miter;stroke-width:2;"/>
   </g>
   <g id="patch_39">
    <path clip-path="url(#p1c6eea66a0)" d="M 176.427583 192.994987 
C 176.851271 192.994987 177.257663 192.897451 177.557256 192.723861 
C 177.856848 192.55027 178.025181 192.314798 178.025181 192.069304 
C 178.025181 191.823811 177.856848 191.588338 177.557256 191.414748 
C 177.257663 191.241158 176.851271 191.143622 176.427583 191.143622 
C 176.003896 191.143622 175.597504 191.241158 175.297911 191.414748 
C 174.998319 191.588338 174.829986 191.823811 174.829986 192.069304 
C 174.829986 192.314798 174.998319 192.55027 175.297911 192.723861 
C 175.597504 192.897451 176.003896 192.994987 176.427583 192.994987 
z
" style="fill:#ff0000;opacity:0.2;stroke:#ff0000;stroke-linejoin:miter;stroke-width:2;"/>
   </g>
   <g id="patch_40">
    <path clip-path="url(#p1c6eea66a0)" d="M 340.181346 207.805908 
C 340.605034 207.805908 341.011425 207.708372 341.311018 207.534782 
C 341.61061 207.361192 341.778943 207.125719 341.778943 206.880226 
C 341.778943 206.634732 341.61061 206.39926 341.311018 206.225669 
C 341.011425 206.052079 340.605034 205.954543 340.181346 205.954543 
C 339.757658 205.954543 339.351266 206.052079 339.051674 206.225669 
C 338.752081 206.39926 338.583748 206.634732 338.583748 206.880226 
C 338.583748 207.125719 338.752081 207.361192 339.051674 207.534782 
C 339.351266 207.708372 339.757658 207.805908 340.181346 207.805908 
z
" style="fill:#0000ff;opacity:0.2;stroke:#0000ff;stroke-linejoin:miter;stroke-width:2;"/>
   </g>
   <g id="patch_41">
    <path clip-path="url(#p1c6eea66a0)" d="M 248.319479 286.026085 
C 248.743167 286.026085 249.149559 285.92855 249.449151 285.754959 
C 249.748744 285.581369 249.917077 285.345897 249.917077 285.100403 
C 249.917077 284.854909 249.748744 284.619437 249.449151 284.445846 
C 249.149559 284.272256 248.743167 284.17472 248.319479 284.17472 
C 247.895791 284.17472 247.489399 284.272256 247.189807 284.445846 
C 246.890214 284.619437 246.721881 284.854909 246.721881 285.100403 
C 246.721881 285.345897 246.890214 285.581369 247.189807 285.754959 
C 247.489399 285.92855 247.895791 286.026085 248.319479 286.026085 
z
" style="fill:#0000ff;opacity:0.2;stroke:#0000ff;stroke-linejoin:miter;stroke-width:2;"/>
   </g>
   <g id="patch_42">
    <path clip-path="url(#p1c6eea66a0)" d="M 145.274429 198.549082 
C 145.698117 198.549082 146.104508 198.451547 146.404101 198.277956 
C 146.703693 198.104366 146.872026 197.868894 146.872026 197.6234 
C 146.872026 197.377906 146.703693 197.142434 146.404101 196.968843 
C 146.104508 196.795253 145.698117 196.697717 145.274429 196.697717 
C 144.850741 196.697717 144.444349 196.795253 144.144757 196.968843 
C 143.845164 197.142434 143.676831 197.377906 143.676831 197.6234 
C 143.676831 197.868894 143.845164 198.104366 144.144757 198.277956 
C 144.444349 198.451547 144.850741 198.549082 145.274429 198.549082 
z
" style="fill:#0000ff;opacity:0.2;stroke:#0000ff;stroke-linejoin:miter;stroke-width:2;"/>
   </g>
   <g id="patch_43">
    <path clip-path="url(#p1c6eea66a0)" d="M 237.136295 118.47754 
C 237.559983 118.47754 237.966375 118.380004 238.265967 118.206414 
C 238.56556 118.032823 238.733893 117.797351 238.733893 117.551857 
C 238.733893 117.306364 238.56556 117.070891 238.265967 116.897301 
C 237.966375 116.723711 237.559983 116.626175 237.136295 116.626175 
C 236.712607 116.626175 236.306216 116.723711 236.006623 116.897301 
C 235.707031 117.070891 235.538698 117.306364 235.538698 117.551857 
C 235.538698 117.797351 235.707031 118.032823 236.006623 118.206414 
C 236.306216 118.380004 236.712607 118.47754 237.136295 118.47754 
z
" style="fill:#0000ff;opacity:0.2;stroke:#0000ff;stroke-linejoin:miter;stroke-width:2;"/>
   </g>
   <g id="patch_44">
    <path clip-path="url(#p1c6eea66a0)" d="M 240.331491 120.791746 
C 285.863025 120.791746 308.229392 159.670414 309.028191 204.566019 
C 309.82699 246.221735 294.649812 276.306418 249.118278 276.306418 
C 202.787945 276.306418 176.427583 240.667639 176.427583 192.069304 
C 176.427583 141.619604 205.184342 120.791746 240.331491 120.791746 
" style="fill:none;stroke:#ff0000;stroke-linejoin:miter;stroke-width:0.5;"/>
   </g>
   <g id="patch_45">
    <path clip-path="url(#p1c6eea66a0)" d="M 340.181346 206.880226 
C 340.181346 242.519005 318.613777 285.100403 248.319479 285.100403 
C 178.025181 285.100403 145.274429 239.741957 145.274429 197.6234 
C 145.274429 146.710858 184.415572 117.551857 237.136295 117.551857 
C 313.022185 117.551857 340.181346 167.538716 340.181346 206.880226 
" style="fill:none;stroke:#0000ff;stroke-linejoin:miter;stroke-width:0.5;"/>
   </g>
   <g id="[&quot;g_s&quot;:1,&quot;g_t&quot;:4,&quot;coords&quot;:[[305.0, -332.0],[301.0, -325.0]],&quot;certainty&quot;:11]">
    <path clip-path="url(#p1c6eea66a0)" d="M 240.331491 123.568794 
C 241.602554 123.568794 242.821729 123.276187 243.720507 122.755416 
C 244.619285 122.234645 245.124284 121.528228 245.124284 120.791746 
C 245.124284 120.055265 244.619285 119.348848 243.720507 118.828077 
C 242.821729 118.307306 241.602554 118.014699 240.331491 118.014699 
C 239.060427 118.014699 237.841252 118.307306 236.942474 118.828077 
C 236.043697 119.348848 235.538698 120.055265 235.538698 120.791746 
C 235.538698 121.528228 236.043697 122.234645 236.942474 122.755416 
C 237.841252 123.276187 239.060427 123.568794 240.331491 123.568794 
z
" style="fill:#0000ff;opacity:0.2;stroke:#0000ff;stroke-linejoin:miter;stroke-width:2;"/>
   </g>
   <g id="[&quot;g_s&quot;:4,&quot;g_t&quot;:1,&quot;coords&quot;:[[301.0, -325.0],[305.0, -332.0]],&quot;certainty&quot;:11]">
    <path clip-path="url(#p1c6eea66a0)" d="M 237.136295 120.328905 
C 238.407359 120.328905 239.626534 120.036298 240.525312 119.515527 
C 241.424089 118.994756 241.929088 118.288339 241.929088 117.551857 
C 241.929088 116.815376 241.424089 116.108959 240.525312 115.588188 
C 239.626534 115.067417 238.407359 114.77481 237.136295 114.77481 
C 235.865232 114.77481 234.646057 115.067417 233.747279 115.588188 
C 232.848501 116.108959 232.343502 116.815376 232.343502 117.551857 
C 232.343502 118.288339 232.848501 118.994756 233.747279 119.515527 
C 234.646057 120.036298 235.865232 120.328905 237.136295 120.328905 
z
" style="fill:#ff0000;opacity:0.2;stroke:#ff0000;stroke-linejoin:miter;stroke-width:2;"/>
   </g>
   <g id="patch_46">
    <path d="M 240.331491 120.791746 
Q 239.437522 119.885274 240.0331 120.489182 
" style="fill:none;opacity:0.5;stroke:#0000ff;stroke-linecap:round;stroke-width:3;"/>
    <path d="M 240.018367 122.610451 
L 240.0331 120.489182 
L 242.15437 120.503915 
" style="fill:none;opacity:0.5;stroke:#0000ff;stroke-linecap:round;stroke-width:3;"/>
   </g>
   <g id="[&quot;g_s&quot;:2,&quot;g_t&quot;:1,&quot;coords&quot;:[[391.0, -513.0],[430.0, -518.0]],&quot;certainty&quot;:11]">
    <path clip-path="url(#p1c6eea66a0)" d="M 309.028191 207.343067 
C 310.299255 207.343067 311.51843 207.05046 312.417207 206.529688 
C 313.315985 206.008917 313.820984 205.302501 313.820984 204.566019 
C 313.820984 203.829537 313.315985 203.123121 312.417207 202.60235 
C 311.51843 202.081579 310.299255 201.788971 309.028191 201.788971 
C 307.757127 201.788971 306.537952 202.081579 305.639175 202.60235 
C 304.740397 203.123121 304.235398 203.829537 304.235398 204.566019 
C 304.235398 205.302501 304.740397 206.008917 305.639175 206.529688 
C 306.537952 207.05046 307.757127 207.343067 309.028191 207.343067 
z
" style="fill:#0000ff;opacity:0.2;stroke:#0000ff;stroke-linejoin:miter;stroke-width:2;"/>
   </g>
   <g id="[&quot;g_s&quot;:1,&quot;g_t&quot;:2,&quot;coords&quot;:[[430.0, -518.0],[391.0, -513.0]],&quot;certainty&quot;:11]">
    <path clip-path="url(#p1c6eea66a0)" d="M 340.181346 209.657273 
C 341.452409 209.657273 342.671585 209.364666 343.570362 208.843895 
C 344.46914 208.323124 344.974139 207.616707 344.974139 206.880226 
C 344.974139 206.143744 344.46914 205.437327 343.570362 204.916556 
C 342.671585 204.395785 341.452409 204.103178 340.181346 204.103178 
C 338.910282 204.103178 337.691107 204.395785 336.792329 204.916556 
C 335.893552 205.437327 335.388553 206.143744 335.388553 206.880226 
C 335.388553 207.616707 335.893552 208.323124 336.792329 208.843895 
C 337.691107 209.364666 338.910282 209.657273 340.181346 209.657273 
z
" style="fill:#ff0000;opacity:0.2;stroke:#ff0000;stroke-linejoin:miter;stroke-width:2;"/>
   </g>
   <g id="patch_47">
    <path d="M 309.028191 204.566019 
Q 323.606514 205.648967 336.069345 206.574766 
" style="fill:none;opacity:0.5;stroke:#0000ff;stroke-linecap:round;stroke-width:3;"/>
    <path d="M 334.684587 204.967767 
L 336.069345 206.574766 
L 334.462345 207.959524 
" style="fill:none;opacity:0.5;stroke:#0000ff;stroke-linecap:round;stroke-width:3;"/>
   </g>
   <g id="[&quot;g_s&quot;:3,&quot;g_t&quot;:2,&quot;coords&quot;:[[316.0, -668.0],[315.0, -687.0]],&quot;certainty&quot;:10]">
    <path clip-path="url(#p1c6eea66a0)" d="M 249.118278 278.852045 
C 250.28342 278.852045 251.400997 278.583822 252.224876 278.106449 
C 253.048756 277.629075 253.511672 276.981527 253.511672 276.306418 
C 253.511672 275.63131 253.048756 274.983762 252.224876 274.506388 
C 251.400997 274.029015 250.28342 273.760791 249.118278 273.760791 
C 247.953136 273.760791 246.835559 274.029015 246.01168 274.506388 
C 245.1878 274.983762 244.724884 275.63131 244.724884 276.306418 
C 244.724884 276.981527 245.1878 277.629075 246.01168 278.106449 
C 246.835559 278.583822 247.953136 278.852045 249.118278 278.852045 
z
" style="fill:#0000ff;opacity:0.2;stroke:#0000ff;stroke-linejoin:miter;stroke-width:2;"/>
   </g>
   <g id="[&quot;g_s&quot;:2,&quot;g_t&quot;:3,&quot;coords&quot;:[[315.0, -687.0],[316.0, -668.0]],&quot;certainty&quot;:10]">
    <path clip-path="url(#p1c6eea66a0)" d="M 248.319479 287.64603 
C 249.484621 287.64603 250.602198 287.377807 251.426078 286.900433 
C 252.249957 286.423059 252.712873 285.775511 252.712873 285.100403 
C 252.712873 284.425295 252.249957 283.777746 251.426078 283.300373 
C 250.602198 282.822999 249.484621 282.554776 248.319479 282.554776 
C 247.154337 282.554776 246.03676 282.822999 245.212881 283.300373 
C 244.389001 283.777746 243.926085 284.425295 243.926085 285.100403 
C 243.926085 285.775511 244.389001 286.423059 245.212881 286.900433 
C 246.03676 287.377807 247.154337 287.64603 248.319479 287.64603 
z
" style="fill:#ff0000;opacity:0.2;stroke:#ff0000;stroke-linejoin:miter;stroke-width:2;"/>
   </g>
   <g id="patch_48">
    <path d="M 249.118278 276.306418 
Q 248.809172 279.709364 248.675975 281.175739 
" style="fill:none;opacity:0.5;stroke:#0000ff;stroke-linecap:round;stroke-width:2.75;"/>
    <path d="M 250.305518 279.817582 
L 248.675975 281.175739 
L 247.317818 279.546196 
" style="fill:none;opacity:0.5;stroke:#0000ff;stroke-linecap:round;stroke-width:2.75;"/>
   </g>
   <g id="[&quot;g_s&quot;:4,&quot;g_t&quot;:3,&quot;coords&quot;:[[225.0, -486.0],[186.0, -498.0]],&quot;certainty&quot;:12]">
    <path clip-path="url(#p1c6eea66a0)" d="M 176.427583 195.077773 
C 177.804569 195.077773 179.125342 194.760782 180.099018 194.196613 
C 181.072694 193.632444 181.619776 192.86716 181.619776 192.069304 
C 181.619776 191.271449 181.072694 190.506165 180.099018 189.941996 
C 179.125342 189.377827 177.804569 189.060836 176.427583 189.060836 
C 175.050598 189.060836 173.729825 189.377827 172.756149 189.941996 
C 171.782473 190.506165 171.235391 191.271449 171.235391 192.069304 
C 171.235391 192.86716 171.782473 193.632444 172.756149 194.196613 
C 173.729825 194.760782 175.050598 195.077773 176.427583 195.077773 
z
" style="fill:#0000ff;opacity:0.2;stroke:#0000ff;stroke-linejoin:miter;stroke-width:2;"/>
   </g>
   <g id="[&quot;g_s&quot;:3,&quot;g_t&quot;:4,&quot;coords&quot;:[[186.0, -498.0],[225.0, -486.0]],&quot;certainty&quot;:12]">
    <path clip-path="url(#p1c6eea66a0)" d="M 145.274429 200.631868 
C 146.651414 200.631868 147.972187 200.314877 148.945863 199.750708 
C 149.919539 199.186539 150.466621 198.421255 150.466621 197.6234 
C 150.466621 196.825545 149.919539 196.06026 148.945863 195.496091 
C 147.972187 194.931923 146.651414 194.614931 145.274429 194.614931 
C 143.897443 194.614931 142.57667 194.931923 141.602994 195.496091 
C 140.629318 196.06026 140.082236 196.825545 140.082236 197.6234 
C 140.082236 198.421255 140.629318 199.186539 141.602994 199.750708 
C 142.57667 200.314877 143.897443 200.631868 145.274429 200.631868 
z
" style="fill:#ff0000;opacity:0.2;stroke:#ff0000;stroke-linejoin:miter;stroke-width:2;"/>
   </g>
   <g id="patch_49">
    <path d="M 176.427583 192.069304 
Q 161.834049 194.671092 149.502938 196.869526 
" style="fill:none;opacity:0.5;stroke:#0000ff;stroke-linecap:round;stroke-width:3.25;"/>
    <path d="M 151.242927 198.082967 
L 149.502938 196.869526 
L 150.716379 195.129537 
" style="fill:none;opacity:0.5;stroke:#0000ff;stroke-linecap:round;stroke-width:3.25;"/>
   </g>
   <g id="[&quot;g_s&quot;:1,&quot;g_t&quot;:2,&quot;coords&quot;:[[430.0, -518.0],[391.0, -513.0]],&quot;certainty&quot;:11]">
    <path clip-path="url(#p1c6eea66a0)" d="M 340.181346 209.657273 
C 341.452409 209.657273 342.671585 209.364666 343.570362 208.843895 
C 344.46914 208.323124 344.974139 207.616707 344.974139 206.880226 
C 344.974139 206.143744 344.46914 205.437327 343.570362 204.916556 
C 342.671585 204.395785 341.452409 204.103178 340.181346 204.103178 
C 338.910282 204.103178 337.691107 204.395785 336.792329 204.916556 
C 335.893552 205.437327 335.388553 206.143744 335.388553 206.880226 
C 335.388553 207.616707 335.893552 208.323124 336.792329 208.843895 
C 337.691107 209.364666 338.910282 209.657273 340.181346 209.657273 
z
" style="fill:#0000ff;opacity:0.2;stroke:#0000ff;stroke-linejoin:miter;stroke-width:2;"/>
   </g>
   <g id="[&quot;g_s&quot;:2,&quot;g_t&quot;:1,&quot;coords&quot;:[[391.0, -513.0],[430.0, -518.0]],&quot;certainty&quot;:11]">
    <path clip-path="url(#p1c6eea66a0)" d="M 309.028191 207.343067 
C 310.299255 207.343067 311.51843 207.05046 312.417207 206.529688 
C 313.315985 206.008917 313.820984 205.302501 313.820984 204.566019 
C 313.820984 203.829537 313.315985 203.123121 312.417207 202.60235 
C 311.51843 202.081579 310.299255 201.788971 309.028191 201.788971 
C 307.757127 201.788971 306.537952 202.081579 305.639175 202.60235 
C 304.740397 203.123121 304.235398 203.829537 304.235398 204.566019 
C 304.235398 205.302501 304.740397 206.008917 305.639175 206.529688 
C 306.537952 207.05046 307.757127 207.343067 309.028191 207.343067 
z
" style="fill:#ff0000;opacity:0.2;stroke:#ff0000;stroke-linejoin:miter;stroke-width:2;"/>
   </g>
   <g id="patch_50">
    <path d="M 340.181346 206.880226 
Q 325.603023 205.797278 313.140192 204.871478 
" style="fill:none;opacity:0.5;stroke:#ff0000;stroke-linecap:round;stroke-width:3;"/>
    <path d="M 314.524949 206.478478 
L 313.140192 204.871478 
L 314.747191 203.486721 
" style="fill:none;opacity:0.5;stroke:#ff0000;stroke-linecap:round;stroke-width:3;"/>
   </g>
   <g id="[&quot;g_s&quot;:2,&quot;g_t&quot;:3,&quot;coords&quot;:[[315.0, -687.0],[316.0, -668.0]],&quot;certainty&quot;:10]">
    <path clip-path="url(#p1c6eea66a0)" d="M 248.319479 287.64603 
C 249.484621 287.64603 250.602198 287.377807 251.426078 286.900433 
C 252.249957 286.423059 252.712873 285.775511 252.712873 285.100403 
C 252.712873 284.425295 252.249957 283.777746 251.426078 283.300373 
C 250.602198 282.822999 249.484621 282.554776 248.319479 282.554776 
C 247.154337 282.554776 246.03676 282.822999 245.212881 283.300373 
C 244.389001 283.777746 243.926085 284.425295 243.926085 285.100403 
C 243.926085 285.775511 244.389001 286.423059 245.212881 286.900433 
C 246.03676 287.377807 247.154337 287.64603 248.319479 287.64603 
z
" style="fill:#0000ff;opacity:0.2;stroke:#0000ff;stroke-linejoin:miter;stroke-width:2;"/>
   </g>
   <g id="[&quot;g_s&quot;:3,&quot;g_t&quot;:2,&quot;coords&quot;:[[316.0, -668.0],[315.0, -687.0]],&quot;certainty&quot;:10]">
    <path clip-path="url(#p1c6eea66a0)" d="M 249.118278 278.852045 
C 250.28342 278.852045 251.400997 278.583822 252.224876 278.106449 
C 253.048756 277.629075 253.511672 276.981527 253.511672 276.306418 
C 253.511672 275.63131 253.048756 274.983762 252.224876 274.506388 
C 251.400997 274.029015 250.28342 273.760791 249.118278 273.760791 
C 247.953136 273.760791 246.835559 274.029015 246.01168 274.506388 
C 245.1878 274.983762 244.724884 275.63131 244.724884 276.306418 
C 244.724884 276.981527 245.1878 277.629075 246.01168 278.106449 
C 246.835559 278.583822 247.953136 278.852045 249.118278 278.852045 
z
" style="fill:#ff0000;opacity:0.2;stroke:#ff0000;stroke-linejoin:miter;stroke-width:2;"/>
   </g>
   <g id="patch_51">
    <path d="M 248.319479 285.100403 
Q 248.628585 281.697457 248.761782 280.231082 
" style="fill:none;opacity:0.5;stroke:#ff0000;stroke-linecap:round;stroke-width:2.75;"/>
    <path d="M 247.132239 281.589239 
L 248.761782 280.231082 
L 250.119939 281.860626 
" style="fill:none;opacity:0.5;stroke:#ff0000;stroke-linecap:round;stroke-width:2.75;"/>
   </g>
   <g id="[&quot;g_s&quot;:3,&quot;g_t&quot;:4,&quot;coords&quot;:[[186.0, -498.0],[225.0, -486.0]],&quot;certainty&quot;:12]">
    <path clip-path="url(#p1c6eea66a0)" d="M 145.274429 200.631868 
C 146.651414 200.631868 147.972187 200.314877 148.945863 199.750708 
C 149.919539 199.186539 150.466621 198.421255 150.466621 197.6234 
C 150.466621 196.825545 149.919539 196.06026 148.945863 195.496091 
C 147.972187 194.931923 146.651414 194.614931 145.274429 194.614931 
C 143.897443 194.614931 142.57667 194.931923 141.602994 195.496091 
C 140.629318 196.06026 140.082236 196.825545 140.082236 197.6234 
C 140.082236 198.421255 140.629318 199.186539 141.602994 199.750708 
C 142.57667 200.314877 143.897443 200.631868 145.274429 200.631868 
z
" style="fill:#0000ff;opacity:0.2;stroke:#0000ff;stroke-linejoin:miter;stroke-width:2;"/>
   </g>
   <g id="[&quot;g_s&quot;:4,&quot;g_t&quot;:3,&quot;coords&quot;:[[225.0, -486.0],[186.0, -498.0]],&quot;certainty&quot;:12]">
    <path clip-path="url(#p1c6eea66a0)" d="M 176.427583 195.077773 
C 177.804569 195.077773 179.125342 194.760782 180.099018 194.196613 
C 181.072694 193.632444 181.619776 192.86716 181.619776 192.069304 
C 181.619776 191.271449 181.072694 190.506165 180.099018 189.941996 
C 179.125342 189.377827 177.804569 189.060836 176.427583 189.060836 
C 175.050598 189.060836 173.729825 189.377827 172.756149 189.941996 
C 171.782473 190.506165 171.235391 191.271449 171.235391 192.069304 
C 171.235391 192.86716 171.782473 193.632444 172.756149 194.196613 
C 173.729825 194.760782 175.050598 195.077773 176.427583 195.077773 
z
" style="fill:#ff0000;opacity:0.2;stroke:#ff0000;stroke-linejoin:miter;stroke-width:2;"/>
   </g>
   <g id="patch_52">
    <path d="M 145.274429 197.6234 
Q 159.867963 195.021613 172.199074 192.823178 
" style="fill:none;opacity:0.5;stroke:#ff0000;stroke-linecap:round;stroke-width:3.25;"/>
    <path d="M 170.459085 191.609737 
L 172.199074 192.823178 
L 170.985633 194.563167 
" style="fill:none;opacity:0.5;stroke:#ff0000;stroke-linecap:round;stroke-width:3.25;"/>
   </g>
   <g id="[&quot;g_s&quot;:4,&quot;g_t&quot;:1,&quot;coords&quot;:[[301.0, -325.0],[305.0, -332.0]],&quot;certainty&quot;:11]">
    <path clip-path="url(#p1c6eea66a0)" d="M 237.136295 120.328905 
C 238.407359 120.328905 239.626534 120.036298 240.525312 119.515527 
C 241.424089 118.994756 241.929088 118.288339 241.929088 117.551857 
C 241.929088 116.815376 241.424089 116.108959 240.525312 115.588188 
C 239.626534 115.067417 238.407359 114.77481 237.136295 114.77481 
C 235.865232 114.77481 234.646057 115.067417 233.747279 115.588188 
C 232.848501 116.108959 232.343502 116.815376 232.343502 117.551857 
C 232.343502 118.288339 232.848501 118.994756 233.747279 119.515527 
C 234.646057 120.036298 235.865232 120.328905 237.136295 120.328905 
z
" style="fill:#0000ff;opacity:0.2;stroke:#0000ff;stroke-linejoin:miter;stroke-width:2;"/>
   </g>
   <g id="[&quot;g_s&quot;:1,&quot;g_t&quot;:4,&quot;coords&quot;:[[305.0, -332.0],[301.0, -325.0]],&quot;certainty&quot;:11]">
    <path clip-path="url(#p1c6eea66a0)" d="M 240.331491 123.568794 
C 241.602554 123.568794 242.821729 123.276187 243.720507 122.755416 
C 244.619285 122.234645 245.124284 121.528228 245.124284 120.791746 
C 245.124284 120.055265 244.619285 119.348848 243.720507 118.828077 
C 242.821729 118.307306 241.602554 118.014699 240.331491 118.014699 
C 239.060427 118.014699 237.841252 118.307306 236.942474 118.828077 
C 236.043697 119.348848 235.538698 120.055265 235.538698 120.791746 
C 235.538698 121.528228 236.043697 122.234645 236.942474 122.755416 
C 237.841252 123.276187 239.060427 123.568794 240.331491 123.568794 
z
" style="fill:#ff0000;opacity:0.2;stroke:#ff0000;stroke-linejoin:miter;stroke-width:2;"/>
   </g>
   <g id="patch_53">
    <path d="M 237.136295 117.551857 
Q 238.030264 118.45833 237.434686 117.854422 
" style="fill:none;opacity:0.5;stroke:#ff0000;stroke-linecap:round;stroke-width:3;"/>
    <path d="M 237.449419 115.733152 
L 237.434686 117.854422 
L 235.313416 117.839689 
" style="fill:none;opacity:0.5;stroke:#ff0000;stroke-linecap:round;stroke-width:3;"/>
   </g>
   <g id="patch_54">
    <path clip-path="url(#p1c6eea66a0)" d="M 238.733893 121.486008 
C 239.793113 121.486008 240.809092 121.242169 241.558073 120.808193 
C 242.307055 120.374217 242.727887 119.785537 242.727887 119.171802 
C 242.727887 118.558067 242.307055 117.969387 241.558073 117.535411 
C 240.809092 117.101435 239.793113 116.857596 238.733893 116.857596 
C 237.674673 116.857596 236.658694 117.101435 235.909713 117.535411 
C 235.160731 117.969387 234.739899 118.558067 234.739899 119.171802 
C 234.739899 119.785537 235.160731 120.374217 235.909713 120.808193 
C 236.658694 121.242169 237.674673 121.486008 238.733893 121.486008 
z
" style="fill:#008000;opacity:0.2;stroke:#008000;stroke-linejoin:miter;stroke-width:2;"/>
   </g>
   <g id="patch_55">
    <path clip-path="url(#p1c6eea66a0)" d="M 324.604768 208.037329 
C 325.663988 208.037329 326.679967 207.793489 327.428949 207.359513 
C 328.17793 206.925537 328.598763 206.336857 328.598763 205.723122 
C 328.598763 205.109388 328.17793 204.520707 327.428949 204.086731 
C 326.679967 203.652755 325.663988 203.408916 324.604768 203.408916 
C 323.545549 203.408916 322.529569 203.652755 321.780588 204.086731 
C 321.031607 204.520707 320.610774 205.109388 320.610774 205.723122 
C 320.610774 206.336857 321.031607 206.925537 321.780588 207.359513 
C 322.529569 207.793489 323.545549 208.037329 324.604768 208.037329 
z
" style="fill:#008000;opacity:0.2;stroke:#008000;stroke-linejoin:miter;stroke-width:2;"/>
   </g>
   <g id="patch_56">
    <path clip-path="url(#p1c6eea66a0)" d="M 248.718879 283.017617 
C 249.778098 283.017617 250.794078 282.773778 251.543059 282.339802 
C 252.29204 281.905826 252.712873 281.317145 252.712873 280.703411 
C 252.712873 280.089676 252.29204 279.500995 251.543059 279.06702 
C 250.794078 278.633044 249.778098 278.389204 248.718879 278.389204 
C 247.659659 278.389204 246.64368 278.633044 245.894698 279.06702 
C 245.145717 279.500995 244.724884 280.089676 244.724884 280.703411 
C 244.724884 281.317145 245.145717 281.905826 245.894698 282.339802 
C 246.64368 282.773778 247.659659 283.017617 248.718879 283.017617 
z
" style="fill:#008000;opacity:0.2;stroke:#008000;stroke-linejoin:miter;stroke-width:2;"/>
   </g>
   <g id="patch_57">
    <path clip-path="url(#p1c6eea66a0)" d="M 160.851006 197.160559 
C 161.910226 197.160559 162.926205 196.916719 163.675186 196.482743 
C 164.424168 196.048767 164.845 195.460087 164.845 194.846352 
C 164.845 194.232617 164.424168 193.643937 163.675186 193.209961 
C 162.926205 192.775985 161.910226 192.532146 160.851006 192.532146 
C 159.791786 192.532146 158.775807 192.775985 158.026826 193.209961 
C 157.277844 193.643937 156.857012 194.232617 156.857012 194.846352 
C 156.857012 195.460087 157.277844 196.048767 158.026826 196.482743 
C 158.775807 196.916719 159.791786 197.160559 160.851006 197.160559 
z
" style="fill:#008000;opacity:0.2;stroke:#008000;stroke-linejoin:miter;stroke-width:2;"/>
   </g>
   <g id="patch_58">
    <path clip-path="url(#p1c6eea66a0)" d="M 240.331491 130.048572 
C 244.568369 130.048572 248.632287 129.073215 251.628212 127.337311 
C 254.624138 125.601407 256.307467 123.246685 256.307467 120.791746 
C 256.307467 118.336808 254.624138 115.982086 251.628212 114.246182 
C 248.632287 112.510278 244.568369 111.534921 240.331491 111.534921 
C 236.094612 111.534921 232.030695 112.510278 229.034769 114.246182 
C 226.038844 115.982086 224.355514 118.336808 224.355514 120.791746 
C 224.355514 123.246685 226.038844 125.601407 229.034769 127.337311 
C 232.030695 129.073215 236.094612 130.048572 240.331491 130.048572 
z
" style="fill:none;opacity:0.2;stroke:#ff0000;stroke-linejoin:miter;stroke-width:2;"/>
   </g>
   <g id="patch_59">
    <path clip-path="url(#p1c6eea66a0)" d="M 340.181346 216.137051 
C 344.418224 216.137051 348.482142 215.161694 351.478067 213.42579 
C 354.473993 211.689886 356.157323 209.335164 356.157323 206.880226 
C 356.157323 204.425287 354.473993 202.070565 351.478067 200.334661 
C 348.482142 198.598757 344.418224 197.6234 340.181346 197.6234 
C 335.944467 197.6234 331.88055 198.598757 328.884624 200.334661 
C 325.888699 202.070565 324.205369 204.425287 324.205369 206.880226 
C 324.205369 209.335164 325.888699 211.689886 328.884624 213.42579 
C 331.88055 215.161694 335.944467 216.137051 340.181346 216.137051 
z
" style="fill:none;opacity:0.2;stroke:#0000ff;stroke-linejoin:miter;stroke-width:2;"/>
   </g>
   <g id="patch_60">
    <path clip-path="url(#p1c6eea66a0)" d="M 240.331491 125.420159 
C 242.44993 125.420159 244.481889 124.932481 245.979851 124.064529 
C 247.477814 123.196577 248.319479 122.019216 248.319479 120.791746 
C 248.319479 119.564277 247.477814 118.386916 245.979851 117.518964 
C 244.481889 116.651012 242.44993 116.163334 240.331491 116.163334 
C 238.213051 116.163334 236.181093 116.651012 234.68313 117.518964 
C 233.185167 118.386916 232.343502 119.564277 232.343502 120.791746 
C 232.343502 122.019216 233.185167 123.196577 234.68313 124.064529 
C 236.181093 124.932481 238.213051 125.420159 240.331491 125.420159 
z
" style="fill:none;opacity:0.2;stroke:#008000;stroke-linejoin:miter;stroke-width:2;"/>
   </g>
   <g id="patch_61">
    <path clip-path="url(#p1c6eea66a0)" d="M 237.136295 122.18027 
C 239.254735 122.18027 241.286693 121.692592 242.784656 120.82464 
C 244.282619 119.956688 245.124284 118.779327 245.124284 117.551857 
C 245.124284 116.324388 244.282619 115.147027 242.784656 114.279075 
C 241.286693 113.411123 239.254735 112.923445 237.136295 112.923445 
C 235.017856 112.923445 232.985897 113.411123 231.487935 114.279075 
C 229.989972 115.147027 229.148307 116.324388 229.148307 117.551857 
C 229.148307 118.779327 229.989972 119.956688 231.487935 120.82464 
C 232.985897 121.692592 235.017856 122.18027 237.136295 122.18027 
z
" style="fill:none;opacity:0.2;stroke:#008000;stroke-linejoin:miter;stroke-width:2;"/>
   </g>
   <g id="patch_62">
    <path d="M 238.733893 119.171802 
Q 281.669331 162.447462 324.604768 205.723122 
" style="fill:none;opacity:0.5;stroke:#008000;stroke-linecap:round;stroke-width:2;"/>
   </g>
   <g id="patch_63">
    <path d="M 239.33846 119.784825 
Q 239.437522 119.885274 239.536585 119.985722 
" style="fill:none;opacity:0.5;stroke:#800080;stroke-linecap:round;stroke-width:2;"/>
    <path d="M 239.353193 117.663556 
L 239.33846 119.784825 
L 237.217191 119.770093 
" style="fill:none;opacity:0.5;stroke:#800080;stroke-linecap:round;stroke-width:2;"/>
    <path d="M 239.521852 122.106991 
L 239.536585 119.985722 
L 241.657854 120.000455 
" style="fill:none;opacity:0.5;stroke:#800080;stroke-linecap:round;stroke-width:2;"/>
   </g>
   <g id="patch_64">
    <path d="M 324.604768 205.723122 
Q 286.661823 243.213266 248.718879 280.703411 
" style="fill:none;opacity:0.5;stroke:#008000;stroke-linecap:round;stroke-width:2;"/>
   </g>
   <g id="patch_65">
    <path d="M 310.438519 204.670785 
Q 323.606514 205.648967 336.774509 206.627149 
" style="fill:none;opacity:0.5;stroke:#800080;stroke-linecap:round;stroke-width:2;"/>
    <path d="M 311.823276 206.277784 
L 310.438519 204.670785 
L 312.045518 203.286028 
" style="fill:none;opacity:0.5;stroke:#800080;stroke-linecap:round;stroke-width:2;"/>
    <path d="M 335.389751 205.02015 
L 336.774509 206.627149 
L 335.167509 208.011907 
" style="fill:none;opacity:0.5;stroke:#800080;stroke-linecap:round;stroke-width:2;"/>
   </g>
   <g id="patch_66">
    <path d="M 248.718879 280.703411 
Q 204.784942 237.774881 160.851006 194.846352 
" style="fill:none;opacity:0.5;stroke:#008000;stroke-linecap:round;stroke-width:2;"/>
   </g>
   <g id="patch_67">
    <path d="M 248.990345 277.714833 
Q 248.809172 279.709364 248.628 281.703894 
" style="fill:none;opacity:0.5;stroke:#800080;stroke-linecap:round;stroke-width:2;"/>
    <path d="M 247.360802 279.07299 
L 248.990345 277.714833 
L 250.348501 279.344377 
" style="fill:none;opacity:0.5;stroke:#800080;stroke-linecap:round;stroke-width:2;"/>
    <path d="M 250.257543 280.345738 
L 248.628 281.703894 
L 247.269843 280.074351 
" style="fill:none;opacity:0.5;stroke:#800080;stroke-linecap:round;stroke-width:2;"/>
   </g>
   <g id="patch_68">
    <path d="M 160.851006 194.846352 
Q 199.79245 157.009077 238.733893 119.171802 
" style="fill:none;opacity:0.5;stroke:#008000;stroke-linecap:round;stroke-width:2;"/>
   </g>
   <g id="patch_69">
    <path d="M 175.035323 192.317522 
Q 161.834049 194.671092 148.632775 197.024662 
" style="fill:none;opacity:0.5;stroke:#800080;stroke-linecap:round;stroke-width:2;"/>
    <path d="M 173.295334 191.104081 
L 175.035323 192.317522 
L 173.821882 194.05751 
" style="fill:none;opacity:0.5;stroke:#800080;stroke-linecap:round;stroke-width:2;"/>
    <path d="M 150.372764 198.238103 
L 148.632775 197.024662 
L 149.846216 195.284673 
" style="fill:none;opacity:0.5;stroke:#800080;stroke-linecap:round;stroke-width:2;"/>
   </g>
   <g id="patch_70">
    <path clip-path="url(#p1c6eea66a0)" d="M 343.376541 62.473745 
C 343.800229 62.473745 344.206621 62.376209 344.506213 62.202618 
C 344.805806 62.029028 344.974139 61.793556 344.974139 61.548062 
C 344.974139 61.302568 344.805806 61.067096 344.506213 60.893506 
C 344.206621 60.719915 343.800229 60.622379 343.376541 60.622379 
C 342.952853 60.622379 342.546462 60.719915 342.246869 60.893506 
C 341.947276 61.067096 341.778943 61.302568 341.778943 61.548062 
C 341.778943 61.793556 341.947276 62.029028 342.246869 62.202618 
C 342.546462 62.376209 342.952853 62.473745 343.376541 62.473745 
z
" style="fill:#ff0000;opacity:0.2;stroke:#ff0000;stroke-linejoin:miter;stroke-width:2;"/>
   </g>
   <g id="patch_71">
    <path clip-path="url(#p1c6eea66a0)" d="M 141.280434 62.473745 
C 141.704122 62.473745 142.110514 62.376209 142.410107 62.202618 
C 142.709699 62.029028 142.878032 61.793556 142.878032 61.548062 
C 142.878032 61.302568 142.709699 61.067096 142.410107 60.893506 
C 142.110514 60.719915 141.704122 60.622379 141.280434 60.622379 
C 140.856747 60.622379 140.450355 60.719915 140.150762 60.893506 
C 139.85117 61.067096 139.682837 61.302568 139.682837 61.548062 
C 139.682837 61.793556 139.85117 62.029028 140.150762 62.202618 
C 140.450355 62.376209 140.856747 62.473745 141.280434 62.473745 
z
" style="fill:#ff0000;opacity:0.2;stroke:#ff0000;stroke-linejoin:miter;stroke-width:2;"/>
   </g>
   <g id="patch_72">
    <path clip-path="url(#p1c6eea66a0)" d="M 141.280434 29.149172 
C 141.704122 29.149172 142.110514 29.051636 142.410107 28.878046 
C 142.709699 28.704455 142.878032 28.468983 142.878032 28.223489 
C 142.878032 27.977996 142.709699 27.742523 142.410107 27.568933 
C 142.110514 27.395343 141.704122 27.297807 141.280434 27.297807 
C 140.856747 27.297807 140.450355 27.395343 140.150762 27.568933 
C 139.85117 27.742523 139.682837 27.977996 139.682837 28.223489 
C 139.682837 28.468983 139.85117 28.704455 140.150762 28.878046 
C 140.450355 29.051636 140.856747 29.149172 141.280434 29.149172 
z
" style="fill:#ff0000;opacity:0.2;stroke:#ff0000;stroke-linejoin:miter;stroke-width:2;"/>
   </g>
   <g id="patch_73">
    <path clip-path="url(#p1c6eea66a0)" d="M 343.376541 29.149172 
C 343.800229 29.149172 344.206621 29.051636 344.506213 28.878046 
C 344.805806 28.704455 344.974139 28.468983 344.974139 28.223489 
C 344.974139 27.977996 344.805806 27.742523 344.506213 27.568933 
C 344.206621 27.395343 343.800229 27.297807 343.376541 27.297807 
C 342.952853 27.297807 342.546462 27.395343 342.246869 27.568933 
C 341.947276 27.742523 341.778943 27.977996 341.778943 28.223489 
C 341.778943 28.468983 341.947276 28.704455 342.246869 28.878046 
C 342.546462 29.051636 342.952853 29.149172 343.376541 29.149172 
z
" style="fill:#ff0000;opacity:0.2;stroke:#ff0000;stroke-linejoin:miter;stroke-width:2;"/>
   </g>
   <g id="patch_74">
    <path clip-path="url(#p1c6eea66a0)" d="M 327.799964 57.613911 
C 328.223652 57.613911 328.630043 57.516375 328.929636 57.342785 
C 329.229228 57.169194 329.397561 56.933722 329.397561 56.688228 
C 329.397561 56.442735 329.229228 56.207262 328.929636 56.033672 
C 328.630043 55.860082 328.223652 55.762546 327.799964 55.762546 
C 327.376276 55.762546 326.969884 55.860082 326.670292 56.033672 
C 326.370699 56.207262 326.202366 56.442735 326.202366 56.688228 
C 326.202366 56.933722 326.370699 57.169194 326.670292 57.342785 
C 326.969884 57.516375 327.376276 57.613911 327.799964 57.613911 
z
" style="fill:#0000ff;opacity:0.2;stroke:#0000ff;stroke-linejoin:miter;stroke-width:2;"/>
   </g>
   <g id="patch_75">
    <path clip-path="url(#p1c6eea66a0)" d="M 156.857012 57.613911 
C 157.2807 57.613911 157.687091 57.516375 157.986684 57.342785 
C 158.286277 57.169194 158.45461 56.933722 158.45461 56.688228 
C 158.45461 56.442735 158.286277 56.207262 157.986684 56.033672 
C 157.687091 55.860082 157.2807 55.762546 156.857012 55.762546 
C 156.433324 55.762546 156.026932 55.860082 155.72734 56.033672 
C 155.427747 56.207262 155.259414 56.442735 155.259414 56.688228 
C 155.259414 56.933722 155.427747 57.169194 155.72734 57.342785 
C 156.026932 57.516375 156.433324 57.613911 156.857012 57.613911 
z
" style="fill:#0000ff;opacity:0.2;stroke:#0000ff;stroke-linejoin:miter;stroke-width:2;"/>
   </g>
   <g id="patch_76">
    <path clip-path="url(#p1c6eea66a0)" d="M 156.857012 29.380593 
C 157.2807 29.380593 157.687091 29.283057 157.986684 29.109466 
C 158.286277 28.935876 158.45461 28.700404 158.45461 28.45491 
C 158.45461 28.209416 158.286277 27.973944 157.986684 27.800354 
C 157.687091 27.626763 157.2807 27.529227 156.857012 27.529227 
C 156.433324 27.529227 156.026932 27.626763 155.72734 27.800354 
C 155.427747 27.973944 155.259414 28.209416 155.259414 28.45491 
C 155.259414 28.700404 155.427747 28.935876 155.72734 29.109466 
C 156.026932 29.283057 156.433324 29.380593 156.857012 29.380593 
z
" style="fill:#0000ff;opacity:0.2;stroke:#0000ff;stroke-linejoin:miter;stroke-width:2;"/>
   </g>
   <g id="patch_77">
    <path clip-path="url(#p1c6eea66a0)" d="M 327.799964 29.380593 
C 328.223652 29.380593 328.630043 29.283057 328.929636 29.109466 
C 329.229228 28.935876 329.397561 28.700404 329.397561 28.45491 
C 329.397561 28.209416 329.229228 27.973944 328.929636 27.800354 
C 328.630043 27.626763 328.223652 27.529227 327.799964 27.529227 
C 327.376276 27.529227 326.969884 27.626763 326.670292 27.800354 
C 326.370699 27.973944 326.202366 28.209416 326.202366 28.45491 
C 326.202366 28.700404 326.370699 28.935876 326.670292 29.109466 
C 326.969884 29.283057 327.376276 29.380593 327.799964 29.380593 
z
" style="fill:#0000ff;opacity:0.2;stroke:#0000ff;stroke-linejoin:miter;stroke-width:2;"/>
   </g>
   <g id="patch_78">
    <path clip-path="url(#p1c6eea66a0)" d="M 343.376541 61.548062 
L 141.280434 61.548062 
C 131.694848 54.142601 131.694848 35.62895 141.280434 28.223489 
L 343.376541 28.223489 
C 353.760926 35.62895 353.760926 54.142601 343.376541 61.548062 
" style="fill:none;stroke:#ff0000;stroke-linejoin:miter;stroke-width:0.5;"/>
   </g>
   <g id="patch_79">
    <path clip-path="url(#p1c6eea66a0)" d="M 327.799964 56.688228 
L 156.857012 56.688228 
C 148.070225 50.20845 148.070225 34.934688 156.857012 28.45491 
L 327.799964 28.45491 
C 334.989153 34.934688 334.989153 50.20845 327.799964 56.688228 
" style="fill:none;stroke:#0000ff;stroke-linejoin:miter;stroke-width:0.5;"/>
   </g>
   <g id="[&quot;g_s&quot;:1,&quot;g_t&quot;:1,&quot;coords&quot;:[[434.0, -204.0],[414.5, -193.5]],&quot;certainty&quot;:10]">
    <path clip-path="url(#p1c6eea66a0)" d="M 343.376541 64.093689 
C 344.541683 64.093689 345.65926 63.825466 346.48314 63.348092 
C 347.307019 62.870719 347.769935 62.22317 347.769935 61.548062 
C 347.769935 60.872954 347.307019 60.225405 346.48314 59.748032 
C 345.65926 59.270658 344.541683 59.002435 343.376541 59.002435 
C 342.2114 59.002435 341.093822 59.270658 340.269943 59.748032 
C 339.446063 60.225405 338.983147 60.872954 338.983147 61.548062 
C 338.983147 62.22317 339.446063 62.870719 340.269943 63.348092 
C 341.093822 63.825466 342.2114 64.093689 343.376541 64.093689 
z
" style="fill:#0000ff;opacity:0.2;stroke:#0000ff;stroke-linejoin:miter;stroke-width:2;"/>
   </g>
   <g id="[&quot;g_s&quot;:1,&quot;g_t&quot;:1,&quot;coords&quot;:[[414.5, -193.5],[434.0, -204.0]],&quot;certainty&quot;:10]">
    <path clip-path="url(#p1c6eea66a0)" d="M 327.799964 59.233856 
C 328.965105 59.233856 330.082683 58.965632 330.906562 58.488259 
C 331.730442 58.010885 332.193357 57.363337 332.193357 56.688228 
C 332.193357 56.01312 331.730442 55.365572 330.906562 54.888198 
C 330.082683 54.410825 328.965105 54.142601 327.799964 54.142601 
C 326.634822 54.142601 325.517245 54.410825 324.693365 54.888198 
C 323.869486 55.365572 323.40657 56.01312 323.40657 56.688228 
C 323.40657 57.363337 323.869486 58.010885 324.693365 58.488259 
C 325.517245 58.965632 326.634822 59.233856 327.799964 59.233856 
z
" style="fill:#ff0000;opacity:0.2;stroke:#ff0000;stroke-linejoin:miter;stroke-width:2;"/>
   </g>
   <g id="patch_80">
    <path d="M 343.376541 61.548062 
Q 336.544676 59.416546 331.569104 57.864186 
" style="fill:none;opacity:0.5;stroke:#0000ff;stroke-linecap:round;stroke-width:2.75;"/>
    <path d="M 332.554274 59.742866 
L 331.569104 57.864186 
L 333.447784 56.879016 
" style="fill:none;opacity:0.5;stroke:#0000ff;stroke-linecap:round;stroke-width:2.75;"/>
   </g>
   <g id="[&quot;g_s&quot;:2,&quot;g_t&quot;:2,&quot;coords&quot;:[[181.0, -204.0],[200.5, -193.5]],&quot;certainty&quot;:11]">
    <path clip-path="url(#p1c6eea66a0)" d="M 141.280434 64.32511 
C 142.551498 64.32511 143.770673 64.032502 144.669451 63.511731 
C 145.568229 62.99096 146.073228 62.284544 146.073228 61.548062 
C 146.073228 60.81158 145.568229 60.105164 144.669451 59.584393 
C 143.770673 59.063621 142.551498 58.771014 141.280434 58.771014 
C 140.009371 58.771014 138.790196 59.063621 137.891418 59.584393 
C 136.99264 60.105164 136.487641 60.81158 136.487641 61.548062 
C 136.487641 62.284544 136.99264 62.99096 137.891418 63.511731 
C 138.790196 64.032502 140.009371 64.32511 141.280434 64.32511 
z
" style="fill:#0000ff;opacity:0.2;stroke:#0000ff;stroke-linejoin:miter;stroke-width:2;"/>
   </g>
   <g id="[&quot;g_s&quot;:2,&quot;g_t&quot;:2,&quot;coords&quot;:[[200.5, -193.5],[181.0, -204.0]],&quot;certainty&quot;:11]">
    <path clip-path="url(#p1c6eea66a0)" d="M 156.857012 59.465276 
C 158.128075 59.465276 159.347251 59.172669 160.246028 58.651898 
C 161.144806 58.131127 161.649805 57.42471 161.649805 56.688228 
C 161.649805 55.951747 161.144806 55.24533 160.246028 54.724559 
C 159.347251 54.203788 158.128075 53.911181 156.857012 53.911181 
C 155.585948 53.911181 154.366773 54.203788 153.467995 54.724559 
C 152.569218 55.24533 152.064219 55.951747 152.064219 56.688228 
C 152.064219 57.42471 152.569218 58.131127 153.467995 58.651898 
C 154.366773 59.172669 155.585948 59.465276 156.857012 59.465276 
z
" style="fill:#ff0000;opacity:0.2;stroke:#ff0000;stroke-linejoin:miter;stroke-width:2;"/>
   </g>
   <g id="patch_81">
    <path d="M 141.280434 61.548062 
Q 148.1123 59.416546 152.919118 57.916837 
" style="fill:none;opacity:0.5;stroke:#0000ff;stroke-linecap:round;stroke-width:3;"/>
    <path d="M 151.040437 56.931667 
L 152.919118 57.916837 
L 151.933948 59.795517 
" style="fill:none;opacity:0.5;stroke:#0000ff;stroke-linecap:round;stroke-width:3;"/>
   </g>
   <g id="[&quot;g_s&quot;:3,&quot;g_t&quot;:3,&quot;coords&quot;:[[181.0, -132.0],[200.5, -132.5]],&quot;certainty&quot;:11]">
    <path clip-path="url(#p1c6eea66a0)" d="M 141.280434 31.000537 
C 142.551498 31.000537 143.770673 30.70793 144.669451 30.187159 
C 145.568229 29.666387 146.073228 28.959971 146.073228 28.223489 
C 146.073228 27.487008 145.568229 26.780591 144.669451 26.25982 
C 143.770673 25.739049 142.551498 25.446442 141.280434 25.446442 
C 140.009371 25.446442 138.790196 25.739049 137.891418 26.25982 
C 136.99264 26.780591 136.487641 27.487008 136.487641 28.223489 
C 136.487641 28.959971 136.99264 29.666387 137.891418 30.187159 
C 138.790196 30.70793 140.009371 31.000537 141.280434 31.000537 
z
" style="fill:#0000ff;opacity:0.2;stroke:#0000ff;stroke-linejoin:miter;stroke-width:2;"/>
   </g>
   <g id="[&quot;g_s&quot;:3,&quot;g_t&quot;:3,&quot;coords&quot;:[[200.5, -132.5],[181.0, -132.0]],&quot;certainty&quot;:11]">
    <path clip-path="url(#p1c6eea66a0)" d="M 156.857012 31.231958 
C 158.128075 31.231958 159.347251 30.93935 160.246028 30.418579 
C 161.144806 29.897808 161.649805 29.191392 161.649805 28.45491 
C 161.649805 27.718428 161.144806 27.012012 160.246028 26.491241 
C 159.347251 25.97047 158.128075 25.677862 156.857012 25.677862 
C 155.585948 25.677862 154.366773 25.97047 153.467995 26.491241 
C 152.569218 27.012012 152.064219 27.718428 152.064219 28.45491 
C 152.064219 29.191392 152.569218 29.897808 153.467995 30.418579 
C 154.366773 30.93935 155.585948 31.231958 156.857012 31.231958 
z
" style="fill:#ff0000;opacity:0.2;stroke:#ff0000;stroke-linejoin:miter;stroke-width:2;"/>
   </g>
   <g id="patch_82">
    <path d="M 141.280434 28.223489 
Q 148.070468 28.324369 152.739416 28.393735 
" style="fill:none;opacity:0.5;stroke:#0000ff;stroke-linecap:round;stroke-width:3;"/>
    <path d="M 151.261865 26.871618 
L 152.739416 28.393735 
L 151.217299 29.871287 
" style="fill:none;opacity:0.5;stroke:#0000ff;stroke-linecap:round;stroke-width:3;"/>
   </g>
   <g id="[&quot;g_s&quot;:4,&quot;g_t&quot;:4,&quot;coords&quot;:[[434.0, -132.0],[414.5, -132.5]],&quot;certainty&quot;:12]">
    <path clip-path="url(#p1c6eea66a0)" d="M 343.376541 31.231958 
C 344.753527 31.231958 346.0743 30.914967 347.047976 30.350798 
C 348.021651 29.786629 348.568734 29.021345 348.568734 28.223489 
C 348.568734 27.425634 348.021651 26.66035 347.047976 26.096181 
C 346.0743 25.532012 344.753527 25.215021 343.376541 25.215021 
C 341.999556 25.215021 340.678782 25.532012 339.705107 26.096181 
C 338.731431 26.66035 338.184349 27.425634 338.184349 28.223489 
C 338.184349 29.021345 338.731431 29.786629 339.705107 30.350798 
C 340.678782 30.914967 341.999556 31.231958 343.376541 31.231958 
z
" style="fill:#0000ff;opacity:0.2;stroke:#0000ff;stroke-linejoin:miter;stroke-width:2;"/>
   </g>
   <g id="[&quot;g_s&quot;:4,&quot;g_t&quot;:4,&quot;coords&quot;:[[414.5, -132.5],[434.0, -132.0]],&quot;certainty&quot;:12]">
    <path clip-path="url(#p1c6eea66a0)" d="M 327.799964 31.463378 
C 329.176949 31.463378 330.497722 31.146387 331.471398 30.582218 
C 332.445074 30.01805 332.992156 29.252765 332.992156 28.45491 
C 332.992156 27.657055 332.445074 26.89177 331.471398 26.327602 
C 330.497722 25.763433 329.176949 25.446442 327.799964 25.446442 
C 326.422978 25.446442 325.102205 25.763433 324.128529 26.327602 
C 323.154853 26.89177 322.607771 27.657055 322.607771 28.45491 
C 322.607771 29.252765 323.154853 30.01805 324.128529 30.582218 
C 325.102205 31.146387 326.422978 31.463378 327.799964 31.463378 
z
" style="fill:#ff0000;opacity:0.2;stroke:#ff0000;stroke-linejoin:miter;stroke-width:2;"/>
   </g>
   <g id="patch_83">
    <path d="M 343.376541 28.223489 
Q 336.586507 28.324369 332.094317 28.391109 
" style="fill:none;opacity:0.5;stroke:#0000ff;stroke-linecap:round;stroke-width:3.25;"/>
    <path d="M 333.616434 29.86866 
L 332.094317 28.391109 
L 333.571868 26.868992 
" style="fill:none;opacity:0.5;stroke:#0000ff;stroke-linecap:round;stroke-width:3.25;"/>
   </g>
   <g id="[&quot;g_s&quot;:1,&quot;g_t&quot;:1,&quot;coords&quot;:[[414.5, -193.5],[434.0, -204.0]],&quot;certainty&quot;:10]">
    <path clip-path="url(#p1c6eea66a0)" d="M 327.799964 59.233856 
C 328.965105 59.233856 330.082683 58.965632 330.906562 58.488259 
C 331.730442 58.010885 332.193357 57.363337 332.193357 56.688228 
C 332.193357 56.01312 331.730442 55.365572 330.906562 54.888198 
C 330.082683 54.410825 328.965105 54.142601 327.799964 54.142601 
C 326.634822 54.142601 325.517245 54.410825 324.693365 54.888198 
C 323.869486 55.365572 323.40657 56.01312 323.40657 56.688228 
C 323.40657 57.363337 323.869486 58.010885 324.693365 58.488259 
C 325.517245 58.965632 326.634822 59.233856 327.799964 59.233856 
z
" style="fill:#0000ff;opacity:0.2;stroke:#0000ff;stroke-linejoin:miter;stroke-width:2;"/>
   </g>
   <g id="[&quot;g_s&quot;:1,&quot;g_t&quot;:1,&quot;coords&quot;:[[434.0, -204.0],[414.5, -193.5]],&quot;certainty&quot;:10]">
    <path clip-path="url(#p1c6eea66a0)" d="M 343.376541 64.093689 
C 344.541683 64.093689 345.65926 63.825466 346.48314 63.348092 
C 347.307019 62.870719 347.769935 62.22317 347.769935 61.548062 
C 347.769935 60.872954 347.307019 60.225405 346.48314 59.748032 
C 345.65926 59.270658 344.541683 59.002435 343.376541 59.002435 
C 342.2114 59.002435 341.093822 59.270658 340.269943 59.748032 
C 339.446063 60.225405 338.983147 60.872954 338.983147 61.548062 
C 338.983147 62.22317 339.446063 62.870719 340.269943 63.348092 
C 341.093822 63.825466 342.2114 64.093689 343.376541 64.093689 
z
" style="fill:#ff0000;opacity:0.2;stroke:#ff0000;stroke-linejoin:miter;stroke-width:2;"/>
   </g>
   <g id="patch_84">
    <path d="M 327.799964 56.688228 
Q 334.631829 58.819745 339.607401 60.372104 
" style="fill:none;opacity:0.5;stroke:#ff0000;stroke-linecap:round;stroke-width:2.75;"/>
    <path d="M 338.622231 58.493424 
L 339.607401 60.372104 
L 337.72872 61.357274 
" style="fill:none;opacity:0.5;stroke:#ff0000;stroke-linecap:round;stroke-width:2.75;"/>
   </g>
   <g id="[&quot;g_s&quot;:2,&quot;g_t&quot;:2,&quot;coords&quot;:[[200.5, -193.5],[181.0, -204.0]],&quot;certainty&quot;:11]">
    <path clip-path="url(#p1c6eea66a0)" d="M 156.857012 59.465276 
C 158.128075 59.465276 159.347251 59.172669 160.246028 58.651898 
C 161.144806 58.131127 161.649805 57.42471 161.649805 56.688228 
C 161.649805 55.951747 161.144806 55.24533 160.246028 54.724559 
C 159.347251 54.203788 158.128075 53.911181 156.857012 53.911181 
C 155.585948 53.911181 154.366773 54.203788 153.467995 54.724559 
C 152.569218 55.24533 152.064219 55.951747 152.064219 56.688228 
C 152.064219 57.42471 152.569218 58.131127 153.467995 58.651898 
C 154.366773 59.172669 155.585948 59.465276 156.857012 59.465276 
z
" style="fill:#0000ff;opacity:0.2;stroke:#0000ff;stroke-linejoin:miter;stroke-width:2;"/>
   </g>
   <g id="[&quot;g_s&quot;:2,&quot;g_t&quot;:2,&quot;coords&quot;:[[181.0, -204.0],[200.5, -193.5]],&quot;certainty&quot;:11]">
    <path clip-path="url(#p1c6eea66a0)" d="M 141.280434 64.32511 
C 142.551498 64.32511 143.770673 64.032502 144.669451 63.511731 
C 145.568229 62.99096 146.073228 62.284544 146.073228 61.548062 
C 146.073228 60.81158 145.568229 60.105164 144.669451 59.584393 
C 143.770673 59.063621 142.551498 58.771014 141.280434 58.771014 
C 140.009371 58.771014 138.790196 59.063621 137.891418 59.584393 
C 136.99264 60.105164 136.487641 60.81158 136.487641 61.548062 
C 136.487641 62.284544 136.99264 62.99096 137.891418 63.511731 
C 138.790196 64.032502 140.009371 64.32511 141.280434 64.32511 
z
" style="fill:#ff0000;opacity:0.2;stroke:#ff0000;stroke-linejoin:miter;stroke-width:2;"/>
   </g>
   <g id="patch_85">
    <path d="M 156.857012 56.688228 
Q 150.025146 58.819745 145.218329 60.319454 
" style="fill:none;opacity:0.5;stroke:#ff0000;stroke-linecap:round;stroke-width:3;"/>
    <path d="M 147.097009 61.304624 
L 145.218329 60.319454 
L 146.203499 58.440773 
" style="fill:none;opacity:0.5;stroke:#ff0000;stroke-linecap:round;stroke-width:3;"/>
   </g>
   <g id="[&quot;g_s&quot;:3,&quot;g_t&quot;:3,&quot;coords&quot;:[[200.5, -132.5],[181.0, -132.0]],&quot;certainty&quot;:11]">
    <path clip-path="url(#p1c6eea66a0)" d="M 156.857012 31.231958 
C 158.128075 31.231958 159.347251 30.93935 160.246028 30.418579 
C 161.144806 29.897808 161.649805 29.191392 161.649805 28.45491 
C 161.649805 27.718428 161.144806 27.012012 160.246028 26.491241 
C 159.347251 25.97047 158.128075 25.677862 156.857012 25.677862 
C 155.585948 25.677862 154.366773 25.97047 153.467995 26.491241 
C 152.569218 27.012012 152.064219 27.718428 152.064219 28.45491 
C 152.064219 29.191392 152.569218 29.897808 153.467995 30.418579 
C 154.366773 30.93935 155.585948 31.231958 156.857012 31.231958 
z
" style="fill:#0000ff;opacity:0.2;stroke:#0000ff;stroke-linejoin:miter;stroke-width:2;"/>
   </g>
   <g id="[&quot;g_s&quot;:3,&quot;g_t&quot;:3,&quot;coords&quot;:[[181.0, -132.0],[200.5, -132.5]],&quot;certainty&quot;:11]">
    <path clip-path="url(#p1c6eea66a0)" d="M 141.280434 31.000537 
C 142.551498 31.000537 143.770673 30.70793 144.669451 30.187159 
C 145.568229 29.666387 146.073228 28.959971 146.073228 28.223489 
C 146.073228 27.487008 145.568229 26.780591 144.669451 26.25982 
C 143.770673 25.739049 142.551498 25.446442 141.280434 25.446442 
C 140.009371 25.446442 138.790196 25.739049 137.891418 26.25982 
C 136.99264 26.780591 136.487641 27.487008 136.487641 28.223489 
C 136.487641 28.959971 136.99264 29.666387 137.891418 30.187159 
C 138.790196 30.70793 140.009371 31.000537 141.280434 31.000537 
z
" style="fill:#ff0000;opacity:0.2;stroke:#ff0000;stroke-linejoin:miter;stroke-width:2;"/>
   </g>
   <g id="patch_86">
    <path d="M 156.857012 28.45491 
Q 150.066978 28.354031 145.39803 28.284664 
" style="fill:none;opacity:0.5;stroke:#ff0000;stroke-linecap:round;stroke-width:3;"/>
    <path d="M 146.875582 29.806782 
L 145.39803 28.284664 
L 146.920148 26.807113 
" style="fill:none;opacity:0.5;stroke:#ff0000;stroke-linecap:round;stroke-width:3;"/>
   </g>
   <g id="[&quot;g_s&quot;:4,&quot;g_t&quot;:4,&quot;coords&quot;:[[414.5, -132.5],[434.0, -132.0]],&quot;certainty&quot;:12]">
    <path clip-path="url(#p1c6eea66a0)" d="M 327.799964 31.463378 
C 329.176949 31.463378 330.497722 31.146387 331.471398 30.582218 
C 332.445074 30.01805 332.992156 29.252765 332.992156 28.45491 
C 332.992156 27.657055 332.445074 26.89177 331.471398 26.327602 
C 330.497722 25.763433 329.176949 25.446442 327.799964 25.446442 
C 326.422978 25.446442 325.102205 25.763433 324.128529 26.327602 
C 323.154853 26.89177 322.607771 27.657055 322.607771 28.45491 
C 322.607771 29.252765 323.154853 30.01805 324.128529 30.582218 
C 325.102205 31.146387 326.422978 31.463378 327.799964 31.463378 
z
" style="fill:#0000ff;opacity:0.2;stroke:#0000ff;stroke-linejoin:miter;stroke-width:2;"/>
   </g>
   <g id="[&quot;g_s&quot;:4,&quot;g_t&quot;:4,&quot;coords&quot;:[[434.0, -132.0],[414.5, -132.5]],&quot;certainty&quot;:12]">
    <path clip-path="url(#p1c6eea66a0)" d="M 343.376541 31.231958 
C 344.753527 31.231958 346.0743 30.914967 347.047976 30.350798 
C 348.021651 29.786629 348.568734 29.021345 348.568734 28.223489 
C 348.568734 27.425634 348.021651 26.66035 347.047976 26.096181 
C 346.0743 25.532012 344.753527 25.215021 343.376541 25.215021 
C 341.999556 25.215021 340.678782 25.532012 339.705107 26.096181 
C 338.731431 26.66035 338.184349 27.425634 338.184349 28.223489 
C 338.184349 29.021345 338.731431 29.786629 339.705107 30.350798 
C 340.678782 30.914967 341.999556 31.231958 343.376541 31.231958 
z
" style="fill:#ff0000;opacity:0.2;stroke:#ff0000;stroke-linejoin:miter;stroke-width:2;"/>
   </g>
   <g id="patch_87">
    <path d="M 327.799964 28.45491 
Q 334.589998 28.354031 339.082188 28.28729 
" style="fill:none;opacity:0.5;stroke:#ff0000;stroke-linecap:round;stroke-width:3.25;"/>
    <path d="M 337.560071 26.809739 
L 339.082188 28.28729 
L 337.604637 29.809408 
" style="fill:none;opacity:0.5;stroke:#ff0000;stroke-linecap:round;stroke-width:3.25;"/>
   </g>
   <g id="patch_88">
    <path clip-path="url(#p1c6eea66a0)" d="M 335.588252 61.432352 
C 336.647472 61.432352 337.663451 61.188512 338.412433 60.754536 
C 339.161414 60.32056 339.582247 59.73188 339.582247 59.118145 
C 339.582247 58.50441 339.161414 57.91573 338.412433 57.481754 
C 337.663451 57.047778 336.647472 56.803939 335.588252 56.803939 
C 334.529033 56.803939 333.513053 57.047778 332.764072 57.481754 
C 332.015091 57.91573 331.594258 58.50441 331.594258 59.118145 
C 331.594258 59.73188 332.015091 60.32056 332.764072 60.754536 
C 333.513053 61.188512 334.529033 61.432352 335.588252 61.432352 
z
" style="fill:#008000;opacity:0.2;stroke:#008000;stroke-linejoin:miter;stroke-width:2;"/>
   </g>
   <g id="patch_89">
    <path clip-path="url(#p1c6eea66a0)" d="M 149.068723 61.432352 
C 150.127943 61.432352 151.143922 61.188512 151.892904 60.754536 
C 152.641885 60.32056 153.062717 59.73188 153.062717 59.118145 
C 153.062717 58.50441 152.641885 57.91573 151.892904 57.481754 
C 151.143922 57.047778 150.127943 56.803939 149.068723 56.803939 
C 148.009504 56.803939 146.993524 57.047778 146.244543 57.481754 
C 145.495561 57.91573 145.074729 58.50441 145.074729 59.118145 
C 145.074729 59.73188 145.495561 60.32056 146.244543 60.754536 
C 146.993524 61.188512 148.009504 61.432352 149.068723 61.432352 
z
" style="fill:#008000;opacity:0.2;stroke:#008000;stroke-linejoin:miter;stroke-width:2;"/>
   </g>
   <g id="patch_90">
    <path clip-path="url(#p1c6eea66a0)" d="M 149.068723 30.653406 
C 150.127943 30.653406 151.143922 30.409567 151.892904 29.975591 
C 152.641885 29.541615 153.062717 28.952934 153.062717 28.3392 
C 153.062717 27.725465 152.641885 27.136785 151.892904 26.702809 
C 151.143922 26.268833 150.127943 26.024993 149.068723 26.024993 
C 148.009504 26.024993 146.993524 26.268833 146.244543 26.702809 
C 145.495561 27.136785 145.074729 27.725465 145.074729 28.3392 
C 145.074729 28.952934 145.495561 29.541615 146.244543 29.975591 
C 146.993524 30.409567 148.009504 30.653406 149.068723 30.653406 
z
" style="fill:#008000;opacity:0.2;stroke:#008000;stroke-linejoin:miter;stroke-width:2;"/>
   </g>
   <g id="patch_91">
    <path clip-path="url(#p1c6eea66a0)" d="M 335.588252 30.653406 
C 336.647472 30.653406 337.663451 30.409567 338.412433 29.975591 
C 339.161414 29.541615 339.582247 28.952934 339.582247 28.3392 
C 339.582247 27.725465 339.161414 27.136785 338.412433 26.702809 
C 337.663451 26.268833 336.647472 26.024993 335.588252 26.024993 
C 334.529033 26.024993 333.513053 26.268833 332.764072 26.702809 
C 332.015091 27.136785 331.594258 27.725465 331.594258 28.3392 
C 331.594258 28.952934 332.015091 29.541615 332.764072 29.975591 
C 333.513053 30.409567 334.529033 30.653406 335.588252 30.653406 
z
" style="fill:#008000;opacity:0.2;stroke:#008000;stroke-linejoin:miter;stroke-width:2;"/>
   </g>
   <g id="patch_92">
    <path clip-path="url(#p1c6eea66a0)" d="M 343.376541 70.804888 
C 347.61342 70.804888 351.677337 69.82953 354.673263 68.093626 
C 357.669188 66.357722 359.352518 64.003001 359.352518 61.548062 
C 359.352518 59.093123 357.669188 56.738402 354.673263 55.002498 
C 351.677337 53.266594 347.61342 52.291236 343.376541 52.291236 
C 339.139663 52.291236 335.075745 53.266594 332.07982 55.002498 
C 329.083894 56.738402 327.400564 59.093123 327.400564 61.548062 
C 327.400564 64.003001 329.083894 66.357722 332.07982 68.093626 
C 335.075745 69.82953 339.139663 70.804888 343.376541 70.804888 
z
" style="fill:none;opacity:0.2;stroke:#ff0000;stroke-linejoin:miter;stroke-width:2;"/>
   </g>
   <g id="patch_93">
    <path clip-path="url(#p1c6eea66a0)" d="M 327.799964 65.945054 
C 332.036842 65.945054 336.10076 64.969697 339.096685 63.233793 
C 342.092611 61.497889 343.775941 59.143167 343.775941 56.688228 
C 343.775941 54.23329 342.092611 51.878568 339.096685 50.142664 
C 336.10076 48.40676 332.036842 47.431403 327.799964 47.431403 
C 323.563085 47.431403 319.499168 48.40676 316.503242 50.142664 
C 313.507317 51.878568 311.823987 54.23329 311.823987 56.688228 
C 311.823987 59.143167 313.507317 61.497889 316.503242 63.233793 
C 319.499168 64.969697 323.563085 65.945054 327.799964 65.945054 
z
" style="fill:none;opacity:0.2;stroke:#0000ff;stroke-linejoin:miter;stroke-width:2;"/>
   </g>
   <g id="patch_94">
    <path clip-path="url(#p1c6eea66a0)" d="M 343.376541 66.176475 
C 345.49498 66.176475 347.526939 65.688796 349.024902 64.820844 
C 350.522865 63.952892 351.36453 62.775531 351.36453 61.548062 
C 351.36453 60.320592 350.522865 59.143232 349.024902 58.27528 
C 347.526939 57.407328 345.49498 56.919649 343.376541 56.919649 
C 341.258102 56.919649 339.226143 57.407328 337.72818 58.27528 
C 336.230218 59.143232 335.388553 60.320592 335.388553 61.548062 
C 335.388553 62.775531 336.230218 63.952892 337.72818 64.820844 
C 339.226143 65.688796 341.258102 66.176475 343.376541 66.176475 
z
" style="fill:none;opacity:0.2;stroke:#008000;stroke-linejoin:miter;stroke-width:2;"/>
   </g>
   <g id="patch_95">
    <path clip-path="url(#p1c6eea66a0)" d="M 327.799964 61.316641 
C 329.918403 61.316641 331.950362 60.828963 333.448324 59.961011 
C 334.946287 59.093059 335.787952 57.915698 335.787952 56.688228 
C 335.787952 55.460759 334.946287 54.283398 333.448324 53.415446 
C 331.950362 52.547494 329.918403 52.059816 327.799964 52.059816 
C 325.681524 52.059816 323.649566 52.547494 322.151603 53.415446 
C 320.65364 54.283398 319.811975 55.460759 319.811975 56.688228 
C 319.811975 57.915698 320.65364 59.093059 322.151603 59.961011 
C 323.649566 60.828963 325.681524 61.316641 327.799964 61.316641 
z
" style="fill:none;opacity:0.2;stroke:#008000;stroke-linejoin:miter;stroke-width:2;"/>
   </g>
   <g id="patch_96">
    <path d="M 335.588252 59.118145 
Q 242.328488 59.118145 149.068723 59.118145 
" style="fill:none;opacity:0.5;stroke:#008000;stroke-linecap:round;stroke-width:2;"/>
   </g>
   <g id="patch_97">
    <path d="M 342.026509 61.126857 
Q 336.544676 59.416546 331.062842 57.706234 
" style="fill:none;opacity:0.5;stroke:#800080;stroke-linecap:round;stroke-width:2;"/>
    <path d="M 341.041339 59.248177 
L 342.026509 61.126857 
L 340.147829 62.112027 
" style="fill:none;opacity:0.5;stroke:#800080;stroke-linecap:round;stroke-width:2;"/>
    <path d="M 332.048012 59.584915 
L 331.062842 57.706234 
L 332.941522 56.721064 
" style="fill:none;opacity:0.5;stroke:#800080;stroke-linecap:round;stroke-width:2;"/>
   </g>
   <g id="patch_98">
    <path d="M 149.068723 59.118145 
Q 149.068723 43.728672 149.068723 28.3392 
" style="fill:none;opacity:0.5;stroke:#008000;stroke-linecap:round;stroke-width:2;"/>
   </g>
   <g id="patch_99">
    <path d="M 142.630466 61.126857 
Q 148.1123 59.416546 153.594134 57.706234 
" style="fill:none;opacity:0.5;stroke:#800080;stroke-linecap:round;stroke-width:2;"/>
    <path d="M 144.509147 62.112027 
L 142.630466 61.126857 
L 143.615636 59.248177 
" style="fill:none;opacity:0.5;stroke:#800080;stroke-linecap:round;stroke-width:2;"/>
    <path d="M 151.715453 56.721064 
L 153.594134 57.706234 
L 152.608964 59.584915 
" style="fill:none;opacity:0.5;stroke:#800080;stroke-linecap:round;stroke-width:2;"/>
   </g>
   <g id="patch_100">
    <path d="M 149.068723 28.3392 
Q 242.328488 28.3392 335.588252 28.3392 
" style="fill:none;opacity:0.5;stroke:#008000;stroke-linecap:round;stroke-width:2;"/>
   </g>
   <g id="patch_101">
    <path d="M 142.694492 28.244498 
Q 148.070468 28.324369 153.446445 28.404239 
" style="fill:none;opacity:0.5;stroke:#800080;stroke-linecap:round;stroke-width:2;"/>
    <path d="M 144.172043 29.766615 
L 142.694492 28.244498 
L 144.216609 26.766946 
" style="fill:none;opacity:0.5;stroke:#800080;stroke-linecap:round;stroke-width:2;"/>
    <path d="M 151.968893 26.882122 
L 153.446445 28.404239 
L 151.924327 29.881791 
" style="fill:none;opacity:0.5;stroke:#800080;stroke-linecap:round;stroke-width:2;"/>
   </g>
   <g id="patch_102">
    <path d="M 335.588252 28.3392 
Q 335.588252 43.728672 335.588252 59.118145 
" style="fill:none;opacity:0.5;stroke:#008000;stroke-linecap:round;stroke-width:2;"/>
   </g>
   <g id="patch_103">
    <path d="M 341.962484 28.244498 
Q 336.586507 28.324369 331.210531 28.404239 
" style="fill:none;opacity:0.5;stroke:#800080;stroke-linecap:round;stroke-width:2;"/>
    <path d="M 340.440366 26.766946 
L 341.962484 28.244498 
L 340.484932 29.766615 
" style="fill:none;opacity:0.5;stroke:#800080;stroke-linecap:round;stroke-width:2;"/>
    <path d="M 332.732648 29.881791 
L 331.210531 28.404239 
L 332.688082 26.882122 
" style="fill:none;opacity:0.5;stroke:#800080;stroke-linecap:round;stroke-width:2;"/>
   </g>
   <g id="line2d_1">
    <path clip-path="url(#p1c6eea66a0)" d="M 240.331491 297.597117 
L 61.40055 202.251813 
L 245.124284 99.501047 
L 424.055224 198.086241 
" style="fill:none;stroke:#ff0000;stroke-linecap:square;stroke-width:0.2;"/>
   </g>
   <g id="line2d_2">
    <path clip-path="url(#p1c6eea66a0)" d="M 246.721881 103.666619 
L 408.878046 199.474765 
L 240.331491 298.985641 
L 76.577728 203.640337 
" style="fill:none;stroke:#0000ff;stroke-linecap:square;stroke-width:0.2;"/>
   </g>
   <g id="line2d_3">
    <path clip-path="url(#p1c6eea66a0)" d="M 240.331491 120.791746 
L 309.028191 204.566019 
L 249.118278 276.306418 
L 176.427583 192.069304 
" style="fill:none;stroke:#ff0000;stroke-linecap:square;stroke-width:0.2;"/>
   </g>
   <g id="line2d_4">
    <path clip-path="url(#p1c6eea66a0)" d="M 340.181346 206.880226 
L 248.319479 285.100403 
L 145.274429 197.6234 
L 237.136295 117.551857 
" style="fill:none;stroke:#0000ff;stroke-linecap:square;stroke-width:0.2;"/>
   </g>
   <g id="line2d_5">
    <path clip-path="url(#p1c6eea66a0)" d="M 343.376541 61.548062 
L 141.280434 61.548062 
L 141.280434 28.223489 
L 343.376541 28.223489 
" style="fill:none;stroke:#ff0000;stroke-linecap:square;stroke-width:0.2;"/>
   </g>
   <g id="line2d_6">
    <path clip-path="url(#p1c6eea66a0)" d="M 327.799964 56.688228 
L 156.857012 56.688228 
L 156.857012 28.45491 
L 327.799964 28.45491 
" style="fill:none;stroke:#0000ff;stroke-linecap:square;stroke-width:0.2;"/>
   </g>
  </g>
 </g>
 <defs>
  <clipPath id="p1c6eea66a0">
   <rect height="307.51175" width="409.903625" x="37.576375" y="13.32"/>
  </clipPath>
 </defs>
</svg>
