<?xml version="1.0" encoding="utf-8" standalone="no"?>
<!DOCTYPE svg PUBLIC "-//W3C//DTD SVG 1.1//EN"
  "http://www.w3.org/Graphics/SVG/1.1/DTD/svg11.dtd">
<!-- Created with matplotlib (http://matplotlib.org/) -->
<svg height="345.6pt" version="1.1" viewBox="0 0 460.8 345.6" width="460.8pt" xmlns="http://www.w3.org/2000/svg" xmlns:xlink="http://www.w3.org/1999/xlink">
 <defs>
  <style type="text/css">
*{stroke-linecap:butt;stroke-linejoin:round;}
  </style>
 </defs>
 <g id="figure_1">
  <g id="patch_1">
   <path d="M 0 345.6 
L 460.8 345.6 
L 460.8 0 
L 0 0 
z
" style="fill:#ffffff;"/>
  </g>
  <g id="axes_1">
   <g id="patch_2">
    <path clip-path="url(#p8d94c83f17)" d="M 281.282712 167.718533 
C 282.073314 167.718533 282.831641 167.650818 283.39068 167.530303 
C 283.94972 167.409787 284.263829 167.24631 284.263829 167.075875 
C 284.263829 166.90544 283.94972 166.741963 283.39068 166.621447 
C 282.831641 166.500932 282.073314 166.433217 281.282712 166.433217 
C 280.492111 166.433217 279.733784 166.500932 279.174744 166.621447 
C 278.615704 166.741963 278.301595 166.90544 278.301595 167.075875 
C 278.301595 167.24631 278.615704 167.409787 279.174744 167.530303 
C 279.733784 167.650818 280.492111 167.718533 281.282712 167.718533 
z
" style="fill:#ff0000;opacity:0.2;stroke:#ff0000;stroke-linejoin:miter;stroke-width:2;"/>
   </g>
   <g id="patch_3">
    <path clip-path="url(#p8d94c83f17)" d="M 59.189475 34.688371 
C 59.980077 34.688371 60.738404 34.620657 61.297443 34.500141 
C 61.856483 34.379626 62.170593 34.216148 62.170593 34.045714 
C 62.170593 33.875279 61.856483 33.711802 61.297443 33.591286 
C 60.738404 33.47077 59.980077 33.403056 59.189475 33.403056 
C 58.398874 33.403056 57.640547 33.47077 57.081507 33.591286 
C 56.522467 33.711802 56.208358 33.875279 56.208358 34.045714 
C 56.208358 34.216148 56.522467 34.379626 57.081507 34.500141 
C 57.640547 34.620657 58.398874 34.688371 59.189475 34.688371 
z
" style="fill:#ff0000;opacity:0.2;stroke:#ff0000;stroke-linejoin:miter;stroke-width:2;"/>
   </g>
   <g id="patch_4">
    <path clip-path="url(#p8d94c83f17)" d="M 84.528972 28.583122 
C 85.319574 28.583122 86.077901 28.515408 86.63694 28.394892 
C 87.19598 28.274377 87.510089 28.110899 87.510089 27.940465 
C 87.510089 27.77003 87.19598 27.606553 86.63694 27.486037 
C 86.077901 27.365521 85.319574 27.297807 84.528972 27.297807 
C 83.738371 27.297807 82.980044 27.365521 82.421004 27.486037 
C 81.861964 27.606553 81.547855 27.77003 81.547855 27.940465 
C 81.547855 28.110899 81.861964 28.274377 82.421004 28.394892 
C 82.980044 28.515408 83.738371 28.583122 84.528972 28.583122 
z
" style="fill:#ff0000;opacity:0.2;stroke:#ff0000;stroke-linejoin:miter;stroke-width:2;"/>
   </g>
   <g id="patch_5">
    <path clip-path="url(#p8d94c83f17)" d="M 425.8669 167.718533 
C 426.657501 167.718533 427.415828 167.650818 427.974868 167.530303 
C 428.533908 167.409787 428.848017 167.24631 428.848017 167.075875 
C 428.848017 166.90544 428.533908 166.741963 427.974868 166.621447 
C 427.415828 166.500932 426.657501 166.433217 425.8669 166.433217 
C 425.076298 166.433217 424.317971 166.500932 423.758932 166.621447 
C 423.199892 166.741963 422.885783 166.90544 422.885783 167.075875 
C 422.885783 167.24631 423.199892 167.409787 423.758932 167.530303 
C 424.317971 167.650818 425.076298 167.718533 425.8669 167.718533 
z
" style="fill:#ff0000;opacity:0.2;stroke:#ff0000;stroke-linejoin:miter;stroke-width:2;"/>
   </g>
   <g id="patch_6">
    <path clip-path="url(#p8d94c83f17)" d="M 84.528972 306.853943 
C 85.319574 306.853943 86.077901 306.786229 86.63694 306.665713 
C 87.19598 306.545197 87.510089 306.38172 87.510089 306.211285 
C 87.510089 306.040851 87.19598 305.877373 86.63694 305.756858 
C 86.077901 305.636342 85.319574 305.568628 84.528972 305.568628 
C 83.738371 305.568628 82.980044 305.636342 82.421004 305.756858 
C 81.861964 305.877373 81.547855 306.040851 81.547855 306.211285 
C 81.547855 306.38172 81.861964 306.545197 82.421004 306.665713 
C 82.980044 306.786229 83.738371 306.853943 84.528972 306.853943 
z
" style="fill:#ff0000;opacity:0.2;stroke:#ff0000;stroke-linejoin:miter;stroke-width:2;"/>
   </g>
   <g id="patch_7">
    <path clip-path="url(#p8d94c83f17)" d="M 59.189475 300.748694 
C 59.980077 300.748694 60.738404 300.68098 61.297443 300.560464 
C 61.856483 300.439948 62.170593 300.276471 62.170593 300.106036 
C 62.170593 299.935602 61.856483 299.772124 61.297443 299.651609 
C 60.738404 299.531093 59.980077 299.463379 59.189475 299.463379 
C 58.398874 299.463379 57.640547 299.531093 57.081507 299.651609 
C 56.522467 299.772124 56.208358 299.935602 56.208358 300.106036 
C 56.208358 300.276471 56.522467 300.439948 57.081507 300.560464 
C 57.640547 300.68098 58.398874 300.748694 59.189475 300.748694 
z
" style="fill:#ff0000;opacity:0.2;stroke:#ff0000;stroke-linejoin:miter;stroke-width:2;"/>
   </g>
   <g id="patch_8">
    <path clip-path="url(#p8d94c83f17)" d="M 308.112768 167.718533 
C 308.903369 167.718533 309.661696 167.650818 310.220736 167.530303 
C 310.779775 167.409787 311.093885 167.24631 311.093885 167.075875 
C 311.093885 166.90544 310.779775 166.741963 310.220736 166.621447 
C 309.661696 166.500932 308.903369 166.433217 308.112768 166.433217 
C 307.322166 166.433217 306.563839 166.500932 306.004799 166.621447 
C 305.44576 166.741963 305.13165 166.90544 305.13165 167.075875 
C 305.13165 167.24631 305.44576 167.409787 306.004799 167.530303 
C 306.563839 167.650818 307.322166 167.718533 308.112768 167.718533 
z
" style="fill:#0000ff;opacity:0.2;stroke:#0000ff;stroke-linejoin:miter;stroke-width:2;"/>
   </g>
   <g id="patch_9">
    <path clip-path="url(#p8d94c83f17)" d="M 78.566738 33.403056 
C 79.357339 33.403056 80.115666 33.335341 80.674706 33.214826 
C 81.233745 33.09431 81.547855 32.930833 81.547855 32.760398 
C 81.547855 32.589963 81.233745 32.426486 80.674706 32.30597 
C 80.115666 32.185455 79.357339 32.11774 78.566738 32.11774 
C 77.776136 32.11774 77.017809 32.185455 76.458769 32.30597 
C 75.89973 32.426486 75.58562 32.589963 75.58562 32.760398 
C 75.58562 32.930833 75.89973 33.09431 76.458769 33.214826 
C 77.017809 33.335341 77.776136 33.403056 78.566738 33.403056 
z
" style="fill:#0000ff;opacity:0.2;stroke:#0000ff;stroke-linejoin:miter;stroke-width:2;"/>
   </g>
   <g id="patch_10">
    <path clip-path="url(#p8d94c83f17)" d="M 99.434558 28.583122 
C 100.22516 28.583122 100.983487 28.515408 101.542527 28.394892 
C 102.101566 28.274377 102.415676 28.110899 102.415676 27.940465 
C 102.415676 27.77003 102.101566 27.606553 101.542527 27.486037 
C 100.983487 27.365521 100.22516 27.297807 99.434558 27.297807 
C 98.643957 27.297807 97.88563 27.365521 97.32659 27.486037 
C 96.76755 27.606553 96.453441 27.77003 96.453441 27.940465 
C 96.453441 28.110899 96.76755 28.274377 97.32659 28.394892 
C 97.88563 28.515408 98.643957 28.583122 99.434558 28.583122 
z
" style="fill:#0000ff;opacity:0.2;stroke:#0000ff;stroke-linejoin:miter;stroke-width:2;"/>
   </g>
   <g id="patch_11">
    <path clip-path="url(#p8d94c83f17)" d="M 406.489638 167.718533 
C 407.280239 167.718533 408.038566 167.650818 408.597606 167.530303 
C 409.156645 167.409787 409.470755 167.24631 409.470755 167.075875 
C 409.470755 166.90544 409.156645 166.741963 408.597606 166.621447 
C 408.038566 166.500932 407.280239 166.433217 406.489638 166.433217 
C 405.699036 166.433217 404.940709 166.500932 404.381669 166.621447 
C 403.82263 166.741963 403.50852 166.90544 403.50852 167.075875 
C 403.50852 167.24631 403.82263 167.409787 404.381669 167.530303 
C 404.940709 167.650818 405.699036 167.718533 406.489638 167.718533 
z
" style="fill:#0000ff;opacity:0.2;stroke:#0000ff;stroke-linejoin:miter;stroke-width:2;"/>
   </g>
   <g id="patch_12">
    <path clip-path="url(#p8d94c83f17)" d="M 99.434558 306.853943 
C 100.22516 306.853943 100.983487 306.786229 101.542527 306.665713 
C 102.101566 306.545197 102.415676 306.38172 102.415676 306.211285 
C 102.415676 306.040851 102.101566 305.877373 101.542527 305.756858 
C 100.983487 305.636342 100.22516 305.568628 99.434558 305.568628 
C 98.643957 305.568628 97.88563 305.636342 97.32659 305.756858 
C 96.76755 305.877373 96.453441 306.040851 96.453441 306.211285 
C 96.453441 306.38172 96.76755 306.545197 97.32659 306.665713 
C 97.88563 306.786229 98.643957 306.853943 99.434558 306.853943 
z
" style="fill:#0000ff;opacity:0.2;stroke:#0000ff;stroke-linejoin:miter;stroke-width:2;"/>
   </g>
   <g id="patch_13">
    <path clip-path="url(#p8d94c83f17)" d="M 78.566738 302.03401 
C 79.357339 302.03401 80.115666 301.966295 80.674706 301.84578 
C 81.233745 301.725264 81.547855 301.561787 81.547855 301.391352 
C 81.547855 301.220917 81.233745 301.05744 80.674706 300.936924 
C 80.115666 300.816409 79.357339 300.748694 78.566738 300.748694 
C 77.776136 300.748694 77.017809 300.816409 76.458769 300.936924 
C 75.89973 301.05744 75.58562 301.220917 75.58562 301.391352 
C 75.58562 301.561787 75.89973 301.725264 76.458769 301.84578 
C 77.017809 301.966295 77.776136 302.03401 78.566738 302.03401 
z
" style="fill:#0000ff;opacity:0.2;stroke:#0000ff;stroke-linejoin:miter;stroke-width:2;"/>
   </g>
   <g id="patch_14">
    <path clip-path="url(#p8d94c83f17)" d="M 281.282712 167.075875 
C 281.282712 120.483186 220.169808 65.214616 59.189475 34.045714 
C 59.189475 31.153754 66.642268 28.261793 84.528972 27.940465 
C 317.056119 55.25342 425.8669 112.449963 425.8669 167.075875 
C 425.8669 221.701787 317.056119 278.89833 84.528972 306.211285 
C 66.642268 305.889957 59.189475 302.997996 59.189475 300.106036 
C 220.169808 268.937134 281.282712 213.668564 281.282712 167.075875 
" style="fill:none;stroke:#ff0000;stroke-linejoin:miter;stroke-width:0.5;"/>
   </g>
   <g id="patch_15">
    <path clip-path="url(#p8d94c83f17)" d="M 308.112768 167.075875 
C 308.112768 109.236674 226.132043 66.178603 78.566738 32.760398 
C 78.566738 29.547109 84.528972 28.261793 99.434558 27.940465 
C 282.773271 53.968105 406.489638 106.987372 406.489638 167.075875 
C 406.489638 227.164378 282.773271 280.183645 99.434558 306.211285 
C 84.528972 305.889957 78.566738 304.604641 78.566738 301.391352 
C 226.132043 267.973147 308.112768 224.915076 308.112768 167.075875 
" style="fill:none;stroke:#0000ff;stroke-linejoin:miter;stroke-width:0.5;"/>
   </g>
   <g id="[&quot;g_s&quot;:1,&quot;g_t&quot;:1,&quot;coords&quot;:[[209.0, -430.0],[227.0, -430.0]],&quot;certainty&quot;:12]">
    <path clip-path="url(#p8d94c83f17)" d="M 281.282712 169.164513 
C 283.852167 169.164513 286.31673 168.944441 288.133609 168.552765 
C 289.950488 168.161089 290.971343 167.629788 290.971343 167.075875 
C 290.971343 166.521962 289.950488 165.990661 288.133609 165.598985 
C 286.31673 165.207309 283.852167 164.987237 281.282712 164.987237 
C 278.713257 164.987237 276.248694 165.207309 274.431815 165.598985 
C 272.614936 165.990661 271.594081 166.521962 271.594081 167.075875 
C 271.594081 167.629788 272.614936 168.161089 274.431815 168.552765 
C 276.248694 168.944441 278.713257 169.164513 281.282712 169.164513 
z
" style="fill:#0000ff;opacity:0.2;stroke:#0000ff;stroke-linejoin:miter;stroke-width:2;"/>
   </g>
   <g id="[&quot;g_s&quot;:1,&quot;g_t&quot;:1,&quot;coords&quot;:[[227.0, -430.0],[209.0, -430.0]],&quot;certainty&quot;:12]">
    <path clip-path="url(#p8d94c83f17)" d="M 308.112768 169.164513 
C 310.682223 169.164513 313.146785 168.944441 314.963664 168.552765 
C 316.780543 168.161089 317.801399 167.629788 317.801399 167.075875 
C 317.801399 166.521962 316.780543 165.990661 314.963664 165.598985 
C 313.146785 165.207309 310.682223 164.987237 308.112768 164.987237 
C 305.543312 164.987237 303.07875 165.207309 301.261871 165.598985 
C 299.444992 165.990661 298.424136 166.521962 298.424136 167.075875 
C 298.424136 167.629788 299.444992 168.161089 301.261871 168.552765 
C 303.07875 168.944441 305.543312 169.164513 308.112768 169.164513 
z
" style="fill:#ff0000;opacity:0.2;stroke:#ff0000;stroke-linejoin:miter;stroke-width:2;"/>
   </g>
   <g id="patch_16">
    <path d="M 281.282712 167.075875 
Q 293.69718 167.075875 303.813552 167.075875 
" style="fill:none;opacity:0.5;stroke:#0000ff;stroke-linecap:round;stroke-width:3.25;"/>
    <path d="M 302.313552 165.575875 
L 303.813552 167.075875 
L 302.313552 168.575875 
" style="fill:none;opacity:0.5;stroke:#0000ff;stroke-linecap:round;stroke-width:3.25;"/>
   </g>
   <g id="[&quot;g_s&quot;:2,&quot;g_t&quot;:2,&quot;coords&quot;:[[60.0, -16.0],[73.0, -12.0]],&quot;certainty&quot;:6]">
    <path clip-path="url(#p8d94c83f17)" d="M 59.189475 35.170365 
C 60.573028 35.170365 61.9001 35.051864 62.87842 34.840962 
C 63.856739 34.63006 64.40643 34.343975 64.40643 34.045714 
C 64.40643 33.747453 63.856739 33.461367 62.87842 33.250465 
C 61.9001 33.039563 60.573028 32.921062 59.189475 32.921062 
C 57.805923 32.921062 56.47885 33.039563 55.500531 33.250465 
C 54.522211 33.461367 53.97252 33.747453 53.97252 34.045714 
C 53.97252 34.343975 54.522211 34.63006 55.500531 34.840962 
C 56.47885 35.051864 57.805923 35.170365 59.189475 35.170365 
z
" style="fill:#0000ff;opacity:0.2;stroke:#0000ff;stroke-linejoin:miter;stroke-width:2;"/>
   </g>
   <g id="[&quot;g_s&quot;:2,&quot;g_t&quot;:2,&quot;coords&quot;:[[73.0, -12.0],[60.0, -16.0]],&quot;certainty&quot;:6]">
    <path clip-path="url(#p8d94c83f17)" d="M 78.566738 33.885049 
C 79.95029 33.885049 81.277362 33.766549 82.255682 33.555646 
C 83.234001 33.344744 83.783693 33.058659 83.783693 32.760398 
C 83.783693 32.462137 83.234001 32.176052 82.255682 31.96515 
C 81.277362 31.754247 79.95029 31.635747 78.566738 31.635747 
C 77.183185 31.635747 75.856113 31.754247 74.877793 31.96515 
C 73.899474 32.176052 73.349782 32.462137 73.349782 32.760398 
C 73.349782 33.058659 73.899474 33.344744 74.877793 33.555646 
C 75.856113 33.766549 77.183185 33.885049 78.566738 33.885049 
z
" style="fill:#ff0000;opacity:0.2;stroke:#ff0000;stroke-linejoin:miter;stroke-width:2;"/>
   </g>
   <g id="patch_17">
    <path d="M 59.189475 34.045714 
Q 67.882278 33.46911 75.340357 32.974407 
" style="fill:none;opacity:0.5;stroke:#0000ff;stroke-linecap:round;stroke-width:1.75;"/>
    <path d="M 73.744367 31.576975 
L 75.340357 32.974407 
L 73.942924 34.570397 
" style="fill:none;opacity:0.5;stroke:#0000ff;stroke-linecap:round;stroke-width:1.75;"/>
   </g>
   <g id="[&quot;g_s&quot;:3,&quot;g_t&quot;:3,&quot;coords&quot;:[[77.0, 3.0],[87.0, 3.0]],&quot;certainty&quot;:10]">
    <path clip-path="url(#p8d94c83f17)" d="M 84.528972 29.707774 
C 86.703126 29.707774 88.788525 29.521559 90.325885 29.190141 
C 91.863244 28.858723 92.727045 28.40916 92.727045 27.940465 
C 92.727045 27.471769 91.863244 27.022206 90.325885 26.690788 
C 88.788525 26.359371 86.703126 26.173156 84.528972 26.173156 
C 82.354818 26.173156 80.269419 26.359371 78.732059 26.690788 
C 77.1947 27.022206 76.3309 27.471769 76.3309 27.940465 
C 76.3309 28.40916 77.1947 28.858723 78.732059 29.190141 
C 80.269419 29.521559 82.354818 29.707774 84.528972 29.707774 
z
" style="fill:#0000ff;opacity:0.2;stroke:#0000ff;stroke-linejoin:miter;stroke-width:2;"/>
   </g>
   <g id="[&quot;g_s&quot;:3,&quot;g_t&quot;:3,&quot;coords&quot;:[[87.0, 3.0],[77.0, 3.0]],&quot;certainty&quot;:10]">
    <path clip-path="url(#p8d94c83f17)" d="M 99.434558 29.707774 
C 101.608713 29.707774 103.694112 29.521559 105.231471 29.190141 
C 106.76883 28.858723 107.632631 28.40916 107.632631 27.940465 
C 107.632631 27.471769 106.76883 27.022206 105.231471 26.690788 
C 103.694112 26.359371 101.608713 26.173156 99.434558 26.173156 
C 97.260404 26.173156 95.175005 26.359371 93.637646 26.690788 
C 92.100287 27.022206 91.236486 27.471769 91.236486 27.940465 
C 91.236486 28.40916 92.100287 28.858723 93.637646 29.190141 
C 95.175005 29.521559 97.260404 29.707774 99.434558 29.707774 
z
" style="fill:#ff0000;opacity:0.2;stroke:#ff0000;stroke-linejoin:miter;stroke-width:2;"/>
   </g>
   <g id="patch_18">
    <path d="M 84.528972 27.940465 
Q 90.982843 27.940465 95.492171 27.940465 
" style="fill:none;opacity:0.5;stroke:#0000ff;stroke-linecap:round;stroke-width:2.75;"/>
    <path d="M 93.992171 26.440465 
L 95.492171 27.940465 
L 93.992171 29.440465 
" style="fill:none;opacity:0.5;stroke:#0000ff;stroke-linecap:round;stroke-width:2.75;"/>
   </g>
   <g id="[&quot;g_s&quot;:4,&quot;g_t&quot;:4,&quot;coords&quot;:[[306.0, -430.0],[293.0, -430.0]],&quot;certainty&quot;:10]">
    <path clip-path="url(#p8d94c83f17)" d="M 425.8669 168.843184 
C 428.041054 168.843184 430.126453 168.656969 431.663812 168.325551 
C 433.201172 167.994133 434.064972 167.544571 434.064972 167.075875 
C 434.064972 166.607179 433.201172 166.157617 431.663812 165.826199 
C 430.126453 165.494781 428.041054 165.308566 425.8669 165.308566 
C 423.692746 165.308566 421.607346 165.494781 420.069987 165.826199 
C 418.532628 166.157617 417.668827 166.607179 417.668827 167.075875 
C 417.668827 167.544571 418.532628 167.994133 420.069987 168.325551 
C 421.607346 168.656969 423.692746 168.843184 425.8669 168.843184 
z
" style="fill:#0000ff;opacity:0.2;stroke:#0000ff;stroke-linejoin:miter;stroke-width:2;"/>
   </g>
   <g id="[&quot;g_s&quot;:4,&quot;g_t&quot;:4,&quot;coords&quot;:[[293.0, -430.0],[306.0, -430.0]],&quot;certainty&quot;:10]">
    <path clip-path="url(#p8d94c83f17)" d="M 406.489638 168.843184 
C 408.663792 168.843184 410.749191 168.656969 412.28655 168.325551 
C 413.823909 167.994133 414.68771 167.544571 414.68771 167.075875 
C 414.68771 166.607179 413.823909 166.157617 412.28655 165.826199 
C 410.749191 165.494781 408.663792 165.308566 406.489638 165.308566 
C 404.315483 165.308566 402.230084 165.494781 400.692725 165.826199 
C 399.155366 166.157617 398.291565 166.607179 398.291565 167.075875 
C 398.291565 167.544571 399.155366 167.994133 400.692725 168.325551 
C 402.230084 168.656969 404.315483 168.843184 406.489638 168.843184 
z
" style="fill:#ff0000;opacity:0.2;stroke:#ff0000;stroke-linejoin:miter;stroke-width:2;"/>
   </g>
   <g id="patch_19">
    <path d="M 425.8669 167.075875 
Q 417.178828 167.075875 410.4353 167.075875 
" style="fill:none;opacity:0.5;stroke:#0000ff;stroke-linecap:round;stroke-width:2.75;"/>
    <path d="M 411.9353 168.575875 
L 410.4353 167.075875 
L 411.9353 165.575875 
" style="fill:none;opacity:0.5;stroke:#0000ff;stroke-linecap:round;stroke-width:2.75;"/>
   </g>
   <g id="[&quot;g_s&quot;:5,&quot;g_t&quot;:5,&quot;coords&quot;:[[77.0, -863.0],[87.0, -863.0]],&quot;certainty&quot;:7]">
    <path clip-path="url(#p8d94c83f17)" d="M 84.528972 307.496601 
C 86.110175 307.496601 87.626829 307.361172 88.744909 307.120141 
C 89.862988 306.879109 90.491207 306.552155 90.491207 306.211285 
C 90.491207 305.870416 89.862988 305.543461 88.744909 305.30243 
C 87.626829 305.061399 86.110175 304.92597 84.528972 304.92597 
C 82.947769 304.92597 81.431115 305.061399 80.313036 305.30243 
C 79.194956 305.543461 78.566738 305.870416 78.566738 306.211285 
C 78.566738 306.552155 79.194956 306.879109 80.313036 307.120141 
C 81.431115 307.361172 82.947769 307.496601 84.528972 307.496601 
z
" style="fill:#0000ff;opacity:0.2;stroke:#0000ff;stroke-linejoin:miter;stroke-width:2;"/>
   </g>
   <g id="[&quot;g_s&quot;:5,&quot;g_t&quot;:5,&quot;coords&quot;:[[87.0, -863.0],[77.0, -863.0]],&quot;certainty&quot;:7]">
    <path clip-path="url(#p8d94c83f17)" d="M 99.434558 307.496601 
C 101.015761 307.496601 102.532415 307.361172 103.650495 307.120141 
C 104.768574 306.879109 105.396793 306.552155 105.396793 306.211285 
C 105.396793 305.870416 104.768574 305.543461 103.650495 305.30243 
C 102.532415 305.061399 101.015761 304.92597 99.434558 304.92597 
C 97.853355 304.92597 96.336701 305.061399 95.218622 305.30243 
C 94.100543 305.543461 93.472324 305.870416 93.472324 306.211285 
C 93.472324 306.552155 94.100543 306.879109 95.218622 307.120141 
C 96.336701 307.361172 97.853355 307.496601 99.434558 307.496601 
z
" style="fill:#ff0000;opacity:0.2;stroke:#ff0000;stroke-linejoin:miter;stroke-width:2;"/>
   </g>
   <g id="patch_20">
    <path d="M 84.528972 306.211285 
Q 90.982843 306.211285 96.022501 306.211285 
" style="fill:none;opacity:0.5;stroke:#0000ff;stroke-linecap:round;stroke-width:2;"/>
    <path d="M 94.522501 304.711285 
L 96.022501 306.211285 
L 94.522501 307.711285 
" style="fill:none;opacity:0.5;stroke:#0000ff;stroke-linecap:round;stroke-width:2;"/>
   </g>
   <g id="[&quot;g_s&quot;:6,&quot;g_t&quot;:6,&quot;coords&quot;:[[60.0, -844.0],[73.0, -848.0]],&quot;certainty&quot;:6]">
    <path clip-path="url(#p8d94c83f17)" d="M 59.189475 301.230688 
C 60.573028 301.230688 61.9001 301.112187 62.87842 300.901285 
C 63.856739 300.690383 64.40643 300.404297 64.40643 300.106036 
C 64.40643 299.807775 63.856739 299.52169 62.87842 299.310788 
C 61.9001 299.099886 60.573028 298.981385 59.189475 298.981385 
C 57.805923 298.981385 56.47885 299.099886 55.500531 299.310788 
C 54.522211 299.52169 53.97252 299.807775 53.97252 300.106036 
C 53.97252 300.404297 54.522211 300.690383 55.500531 300.901285 
C 56.47885 301.112187 57.805923 301.230688 59.189475 301.230688 
z
" style="fill:#0000ff;opacity:0.2;stroke:#0000ff;stroke-linejoin:miter;stroke-width:2;"/>
   </g>
   <g id="[&quot;g_s&quot;:6,&quot;g_t&quot;:6,&quot;coords&quot;:[[73.0, -848.0],[60.0, -844.0]],&quot;certainty&quot;:6]">
    <path clip-path="url(#p8d94c83f17)" d="M 78.566738 302.516003 
C 79.95029 302.516003 81.277362 302.397503 82.255682 302.1866 
C 83.234001 301.975698 83.783693 301.689613 83.783693 301.391352 
C 83.783693 301.093091 83.234001 300.807006 82.255682 300.596104 
C 81.277362 300.385201 79.95029 300.266701 78.566738 300.266701 
C 77.183185 300.266701 75.856113 300.385201 74.877793 300.596104 
C 73.899474 300.807006 73.349782 301.093091 73.349782 301.391352 
C 73.349782 301.689613 73.899474 301.975698 74.877793 302.1866 
C 75.856113 302.397503 77.183185 302.516003 78.566738 302.516003 
z
" style="fill:#ff0000;opacity:0.2;stroke:#ff0000;stroke-linejoin:miter;stroke-width:2;"/>
   </g>
   <g id="patch_21">
    <path d="M 59.189475 300.106036 
Q 67.882278 300.68264 75.340357 301.177343 
" style="fill:none;opacity:0.5;stroke:#0000ff;stroke-linecap:round;stroke-width:1.75;"/>
    <path d="M 73.942924 299.581353 
L 75.340357 301.177343 
L 73.744367 302.574775 
" style="fill:none;opacity:0.5;stroke:#0000ff;stroke-linecap:round;stroke-width:1.75;"/>
   </g>
   <g id="[&quot;g_s&quot;:1,&quot;g_t&quot;:1,&quot;coords&quot;:[[227.0, -430.0],[209.0, -430.0]],&quot;certainty&quot;:12]">
    <path clip-path="url(#p8d94c83f17)" d="M 308.112768 169.164513 
C 310.682223 169.164513 313.146785 168.944441 314.963664 168.552765 
C 316.780543 168.161089 317.801399 167.629788 317.801399 167.075875 
C 317.801399 166.521962 316.780543 165.990661 314.963664 165.598985 
C 313.146785 165.207309 310.682223 164.987237 308.112768 164.987237 
C 305.543312 164.987237 303.07875 165.207309 301.261871 165.598985 
C 299.444992 165.990661 298.424136 166.521962 298.424136 167.075875 
C 298.424136 167.629788 299.444992 168.161089 301.261871 168.552765 
C 303.07875 168.944441 305.543312 169.164513 308.112768 169.164513 
z
" style="fill:#0000ff;opacity:0.2;stroke:#0000ff;stroke-linejoin:miter;stroke-width:2;"/>
   </g>
   <g id="[&quot;g_s&quot;:1,&quot;g_t&quot;:1,&quot;coords&quot;:[[209.0, -430.0],[227.0, -430.0]],&quot;certainty&quot;:12]">
    <path clip-path="url(#p8d94c83f17)" d="M 281.282712 169.164513 
C 283.852167 169.164513 286.31673 168.944441 288.133609 168.552765 
C 289.950488 168.161089 290.971343 167.629788 290.971343 167.075875 
C 290.971343 166.521962 289.950488 165.990661 288.133609 165.598985 
C 286.31673 165.207309 283.852167 164.987237 281.282712 164.987237 
C 278.713257 164.987237 276.248694 165.207309 274.431815 165.598985 
C 272.614936 165.990661 271.594081 166.521962 271.594081 167.075875 
C 271.594081 167.629788 272.614936 168.161089 274.431815 168.552765 
C 276.248694 168.944441 278.713257 169.164513 281.282712 169.164513 
z
" style="fill:#ff0000;opacity:0.2;stroke:#ff0000;stroke-linejoin:miter;stroke-width:2;"/>
   </g>
   <g id="patch_22">
    <path d="M 308.112768 167.075875 
Q 295.698299 167.075875 285.581928 167.075875 
" style="fill:none;opacity:0.5;stroke:#ff0000;stroke-linecap:round;stroke-width:3.25;"/>
    <path d="M 287.081928 168.575875 
L 285.581928 167.075875 
L 287.081928 165.575875 
" style="fill:none;opacity:0.5;stroke:#ff0000;stroke-linecap:round;stroke-width:3.25;"/>
   </g>
   <g id="[&quot;g_s&quot;:2,&quot;g_t&quot;:2,&quot;coords&quot;:[[73.0, -12.0],[60.0, -16.0]],&quot;certainty&quot;:6]">
    <path clip-path="url(#p8d94c83f17)" d="M 78.566738 33.885049 
C 79.95029 33.885049 81.277362 33.766549 82.255682 33.555646 
C 83.234001 33.344744 83.783693 33.058659 83.783693 32.760398 
C 83.783693 32.462137 83.234001 32.176052 82.255682 31.96515 
C 81.277362 31.754247 79.95029 31.635747 78.566738 31.635747 
C 77.183185 31.635747 75.856113 31.754247 74.877793 31.96515 
C 73.899474 32.176052 73.349782 32.462137 73.349782 32.760398 
C 73.349782 33.058659 73.899474 33.344744 74.877793 33.555646 
C 75.856113 33.766549 77.183185 33.885049 78.566738 33.885049 
z
" style="fill:#0000ff;opacity:0.2;stroke:#0000ff;stroke-linejoin:miter;stroke-width:2;"/>
   </g>
   <g id="[&quot;g_s&quot;:2,&quot;g_t&quot;:2,&quot;coords&quot;:[[60.0, -16.0],[73.0, -12.0]],&quot;certainty&quot;:6]">
    <path clip-path="url(#p8d94c83f17)" d="M 59.189475 35.170365 
C 60.573028 35.170365 61.9001 35.051864 62.87842 34.840962 
C 63.856739 34.63006 64.40643 34.343975 64.40643 34.045714 
C 64.40643 33.747453 63.856739 33.461367 62.87842 33.250465 
C 61.9001 33.039563 60.573028 32.921062 59.189475 32.921062 
C 57.805923 32.921062 56.47885 33.039563 55.500531 33.250465 
C 54.522211 33.461367 53.97252 33.747453 53.97252 34.045714 
C 53.97252 34.343975 54.522211 34.63006 55.500531 34.840962 
C 56.47885 35.051864 57.805923 35.170365 59.189475 35.170365 
z
" style="fill:#ff0000;opacity:0.2;stroke:#ff0000;stroke-linejoin:miter;stroke-width:2;"/>
   </g>
   <g id="patch_23">
    <path d="M 78.566738 32.760398 
Q 69.873935 33.337001 62.415856 33.831704 
" style="fill:none;opacity:0.5;stroke:#ff0000;stroke-linecap:round;stroke-width:1.75;"/>
    <path d="M 64.011845 35.229137 
L 62.415856 33.831704 
L 63.813288 32.235715 
" style="fill:none;opacity:0.5;stroke:#ff0000;stroke-linecap:round;stroke-width:1.75;"/>
   </g>
   <g id="[&quot;g_s&quot;:3,&quot;g_t&quot;:3,&quot;coords&quot;:[[87.0, 3.0],[77.0, 3.0]],&quot;certainty&quot;:10]">
    <path clip-path="url(#p8d94c83f17)" d="M 99.434558 29.707774 
C 101.608713 29.707774 103.694112 29.521559 105.231471 29.190141 
C 106.76883 28.858723 107.632631 28.40916 107.632631 27.940465 
C 107.632631 27.471769 106.76883 27.022206 105.231471 26.690788 
C 103.694112 26.359371 101.608713 26.173156 99.434558 26.173156 
C 97.260404 26.173156 95.175005 26.359371 93.637646 26.690788 
C 92.100287 27.022206 91.236486 27.471769 91.236486 27.940465 
C 91.236486 28.40916 92.100287 28.858723 93.637646 29.190141 
C 95.175005 29.521559 97.260404 29.707774 99.434558 29.707774 
z
" style="fill:#0000ff;opacity:0.2;stroke:#0000ff;stroke-linejoin:miter;stroke-width:2;"/>
   </g>
   <g id="[&quot;g_s&quot;:3,&quot;g_t&quot;:3,&quot;coords&quot;:[[77.0, 3.0],[87.0, 3.0]],&quot;certainty&quot;:10]">
    <path clip-path="url(#p8d94c83f17)" d="M 84.528972 29.707774 
C 86.703126 29.707774 88.788525 29.521559 90.325885 29.190141 
C 91.863244 28.858723 92.727045 28.40916 92.727045 27.940465 
C 92.727045 27.471769 91.863244 27.022206 90.325885 26.690788 
C 88.788525 26.359371 86.703126 26.173156 84.528972 26.173156 
C 82.354818 26.173156 80.269419 26.359371 78.732059 26.690788 
C 77.1947 27.022206 76.3309 27.471769 76.3309 27.940465 
C 76.3309 28.40916 77.1947 28.858723 78.732059 29.190141 
C 80.269419 29.521559 82.354818 29.707774 84.528972 29.707774 
z
" style="fill:#ff0000;opacity:0.2;stroke:#ff0000;stroke-linejoin:miter;stroke-width:2;"/>
   </g>
   <g id="patch_24">
    <path d="M 99.434558 27.940465 
Q 92.980687 27.940465 88.471359 27.940465 
" style="fill:none;opacity:0.5;stroke:#ff0000;stroke-linecap:round;stroke-width:2.75;"/>
    <path d="M 89.971359 29.440465 
L 88.471359 27.940465 
L 89.971359 26.440465 
" style="fill:none;opacity:0.5;stroke:#ff0000;stroke-linecap:round;stroke-width:2.75;"/>
   </g>
   <g id="[&quot;g_s&quot;:4,&quot;g_t&quot;:4,&quot;coords&quot;:[[293.0, -430.0],[306.0, -430.0]],&quot;certainty&quot;:10]">
    <path clip-path="url(#p8d94c83f17)" d="M 406.489638 168.843184 
C 408.663792 168.843184 410.749191 168.656969 412.28655 168.325551 
C 413.823909 167.994133 414.68771 167.544571 414.68771 167.075875 
C 414.68771 166.607179 413.823909 166.157617 412.28655 165.826199 
C 410.749191 165.494781 408.663792 165.308566 406.489638 165.308566 
C 404.315483 165.308566 402.230084 165.494781 400.692725 165.826199 
C 399.155366 166.157617 398.291565 166.607179 398.291565 167.075875 
C 398.291565 167.544571 399.155366 167.994133 400.692725 168.325551 
C 402.230084 168.656969 404.315483 168.843184 406.489638 168.843184 
z
" style="fill:#0000ff;opacity:0.2;stroke:#0000ff;stroke-linejoin:miter;stroke-width:2;"/>
   </g>
   <g id="[&quot;g_s&quot;:4,&quot;g_t&quot;:4,&quot;coords&quot;:[[306.0, -430.0],[293.0, -430.0]],&quot;certainty&quot;:10]">
    <path clip-path="url(#p8d94c83f17)" d="M 425.8669 168.843184 
C 428.041054 168.843184 430.126453 168.656969 431.663812 168.325551 
C 433.201172 167.994133 434.064972 167.544571 434.064972 167.075875 
C 434.064972 166.607179 433.201172 166.157617 431.663812 165.826199 
C 430.126453 165.494781 428.041054 165.308566 425.8669 165.308566 
C 423.692746 165.308566 421.607346 165.494781 420.069987 165.826199 
C 418.532628 166.157617 417.668827 166.607179 417.668827 167.075875 
C 417.668827 167.544571 418.532628 167.994133 420.069987 168.325551 
C 421.607346 168.656969 423.692746 168.843184 425.8669 168.843184 
z
" style="fill:#ff0000;opacity:0.2;stroke:#ff0000;stroke-linejoin:miter;stroke-width:2;"/>
   </g>
   <g id="patch_25">
    <path d="M 406.489638 167.075875 
Q 415.177709 167.075875 421.921237 167.075875 
" style="fill:none;opacity:0.5;stroke:#ff0000;stroke-linecap:round;stroke-width:2.75;"/>
    <path d="M 420.421237 165.575875 
L 421.921237 167.075875 
L 420.421237 168.575875 
" style="fill:none;opacity:0.5;stroke:#ff0000;stroke-linecap:round;stroke-width:2.75;"/>
   </g>
   <g id="[&quot;g_s&quot;:5,&quot;g_t&quot;:5,&quot;coords&quot;:[[87.0, -863.0],[77.0, -863.0]],&quot;certainty&quot;:7]">
    <path clip-path="url(#p8d94c83f17)" d="M 99.434558 307.496601 
C 101.015761 307.496601 102.532415 307.361172 103.650495 307.120141 
C 104.768574 306.879109 105.396793 306.552155 105.396793 306.211285 
C 105.396793 305.870416 104.768574 305.543461 103.650495 305.30243 
C 102.532415 305.061399 101.015761 304.92597 99.434558 304.92597 
C 97.853355 304.92597 96.336701 305.061399 95.218622 305.30243 
C 94.100543 305.543461 93.472324 305.870416 93.472324 306.211285 
C 93.472324 306.552155 94.100543 306.879109 95.218622 307.120141 
C 96.336701 307.361172 97.853355 307.496601 99.434558 307.496601 
z
" style="fill:#0000ff;opacity:0.2;stroke:#0000ff;stroke-linejoin:miter;stroke-width:2;"/>
   </g>
   <g id="[&quot;g_s&quot;:5,&quot;g_t&quot;:5,&quot;coords&quot;:[[77.0, -863.0],[87.0, -863.0]],&quot;certainty&quot;:7]">
    <path clip-path="url(#p8d94c83f17)" d="M 84.528972 307.496601 
C 86.110175 307.496601 87.626829 307.361172 88.744909 307.120141 
C 89.862988 306.879109 90.491207 306.552155 90.491207 306.211285 
C 90.491207 305.870416 89.862988 305.543461 88.744909 305.30243 
C 87.626829 305.061399 86.110175 304.92597 84.528972 304.92597 
C 82.947769 304.92597 81.431115 305.061399 80.313036 305.30243 
C 79.194956 305.543461 78.566738 305.870416 78.566738 306.211285 
C 78.566738 306.552155 79.194956 306.879109 80.313036 307.120141 
C 81.431115 307.361172 82.947769 307.496601 84.528972 307.496601 
z
" style="fill:#ff0000;opacity:0.2;stroke:#ff0000;stroke-linejoin:miter;stroke-width:2;"/>
   </g>
   <g id="patch_26">
    <path d="M 99.434558 306.211285 
Q 92.980687 306.211285 87.941029 306.211285 
" style="fill:none;opacity:0.5;stroke:#ff0000;stroke-linecap:round;stroke-width:2;"/>
    <path d="M 89.441029 307.711285 
L 87.941029 306.211285 
L 89.441029 304.711285 
" style="fill:none;opacity:0.5;stroke:#ff0000;stroke-linecap:round;stroke-width:2;"/>
   </g>
   <g id="[&quot;g_s&quot;:6,&quot;g_t&quot;:6,&quot;coords&quot;:[[73.0, -848.0],[60.0, -844.0]],&quot;certainty&quot;:6]">
    <path clip-path="url(#p8d94c83f17)" d="M 78.566738 302.516003 
C 79.95029 302.516003 81.277362 302.397503 82.255682 302.1866 
C 83.234001 301.975698 83.783693 301.689613 83.783693 301.391352 
C 83.783693 301.093091 83.234001 300.807006 82.255682 300.596104 
C 81.277362 300.385201 79.95029 300.266701 78.566738 300.266701 
C 77.183185 300.266701 75.856113 300.385201 74.877793 300.596104 
C 73.899474 300.807006 73.349782 301.093091 73.349782 301.391352 
C 73.349782 301.689613 73.899474 301.975698 74.877793 302.1866 
C 75.856113 302.397503 77.183185 302.516003 78.566738 302.516003 
z
" style="fill:#0000ff;opacity:0.2;stroke:#0000ff;stroke-linejoin:miter;stroke-width:2;"/>
   </g>
   <g id="[&quot;g_s&quot;:6,&quot;g_t&quot;:6,&quot;coords&quot;:[[60.0, -844.0],[73.0, -848.0]],&quot;certainty&quot;:6]">
    <path clip-path="url(#p8d94c83f17)" d="M 59.189475 301.230688 
C 60.573028 301.230688 61.9001 301.112187 62.87842 300.901285 
C 63.856739 300.690383 64.40643 300.404297 64.40643 300.106036 
C 64.40643 299.807775 63.856739 299.52169 62.87842 299.310788 
C 61.9001 299.099886 60.573028 298.981385 59.189475 298.981385 
C 57.805923 298.981385 56.47885 299.099886 55.500531 299.310788 
C 54.522211 299.52169 53.97252 299.807775 53.97252 300.106036 
C 53.97252 300.404297 54.522211 300.690383 55.500531 300.901285 
C 56.47885 301.112187 57.805923 301.230688 59.189475 301.230688 
z
" style="fill:#ff0000;opacity:0.2;stroke:#ff0000;stroke-linejoin:miter;stroke-width:2;"/>
   </g>
   <g id="patch_27">
    <path d="M 78.566738 301.391352 
Q 69.873935 300.814749 62.415856 300.320046 
" style="fill:none;opacity:0.5;stroke:#ff0000;stroke-linecap:round;stroke-width:1.75;"/>
    <path d="M 63.813288 301.916035 
L 62.415856 300.320046 
L 64.011845 298.922613 
" style="fill:none;opacity:0.5;stroke:#ff0000;stroke-linecap:round;stroke-width:1.75;"/>
   </g>
   <g id="patch_28">
    <path clip-path="url(#p8d94c83f17)" d="M 294.69774 168.682519 
C 296.674244 168.682519 298.570061 168.513233 299.96766 168.211944 
C 301.36526 167.910655 302.150533 167.501962 302.150533 167.075875 
C 302.150533 166.649788 301.36526 166.241095 299.96766 165.939806 
C 298.570061 165.638517 296.674244 165.469231 294.69774 165.469231 
C 292.721236 165.469231 290.825418 165.638517 289.427819 165.939806 
C 288.03022 166.241095 287.244947 166.649788 287.244947 167.075875 
C 287.244947 167.501962 288.03022 167.910655 289.427819 168.211944 
C 290.825418 168.513233 292.721236 168.682519 294.69774 168.682519 
z
" style="fill:#008000;opacity:0.2;stroke:#008000;stroke-linejoin:miter;stroke-width:2;"/>
   </g>
   <g id="patch_29">
    <path clip-path="url(#p8d94c83f17)" d="M 68.878106 35.0097 
C 70.85461 35.0097 72.750428 34.840414 74.148027 34.539125 
C 75.545626 34.237836 76.3309 33.829143 76.3309 33.403056 
C 76.3309 32.976969 75.545626 32.568276 74.148027 32.266987 
C 72.750428 31.965698 70.85461 31.796411 68.878106 31.796411 
C 66.901603 31.796411 65.005785 31.965698 63.608186 32.266987 
C 62.210586 32.568276 61.425313 32.976969 61.425313 33.403056 
C 61.425313 33.829143 62.210586 34.237836 63.608186 34.539125 
C 65.005785 34.840414 66.901603 35.0097 68.878106 35.0097 
z
" style="fill:#008000;opacity:0.2;stroke:#008000;stroke-linejoin:miter;stroke-width:2;"/>
   </g>
   <g id="patch_30">
    <path clip-path="url(#p8d94c83f17)" d="M 91.981765 29.547109 
C 93.958269 29.547109 95.854087 29.377823 97.251686 29.076534 
C 98.649285 28.775245 99.434558 28.366552 99.434558 27.940465 
C 99.434558 27.514378 98.649285 27.105684 97.251686 26.804395 
C 95.854087 26.503106 93.958269 26.33382 91.981765 26.33382 
C 90.005261 26.33382 88.109444 26.503106 86.711845 26.804395 
C 85.314245 27.105684 84.528972 27.514378 84.528972 27.940465 
C 84.528972 28.366552 85.314245 28.775245 86.711845 29.076534 
C 88.109444 29.377823 90.005261 29.547109 91.981765 29.547109 
z
" style="fill:#008000;opacity:0.2;stroke:#008000;stroke-linejoin:miter;stroke-width:2;"/>
   </g>
   <g id="patch_31">
    <path clip-path="url(#p8d94c83f17)" d="M 416.178269 168.682519 
C 418.154772 168.682519 420.05059 168.513233 421.448189 168.211944 
C 422.845789 167.910655 423.631062 167.501962 423.631062 167.075875 
C 423.631062 166.649788 422.845789 166.241095 421.448189 165.939806 
C 420.05059 165.638517 418.154772 165.469231 416.178269 165.469231 
C 414.201765 165.469231 412.305947 165.638517 410.908348 165.939806 
C 409.510749 166.241095 408.725475 166.649788 408.725475 167.075875 
C 408.725475 167.501962 409.510749 167.910655 410.908348 168.211944 
C 412.305947 168.513233 414.201765 168.682519 416.178269 168.682519 
z
" style="fill:#008000;opacity:0.2;stroke:#008000;stroke-linejoin:miter;stroke-width:2;"/>
   </g>
   <g id="patch_32">
    <path clip-path="url(#p8d94c83f17)" d="M 91.981765 307.81793 
C 93.958269 307.81793 95.854087 307.648644 97.251686 307.347355 
C 98.649285 307.046066 99.434558 306.637372 99.434558 306.211285 
C 99.434558 305.785198 98.649285 305.376505 97.251686 305.075216 
C 95.854087 304.773927 93.958269 304.604641 91.981765 304.604641 
C 90.005261 304.604641 88.109444 304.773927 86.711845 305.075216 
C 85.314245 305.376505 84.528972 305.785198 84.528972 306.211285 
C 84.528972 306.637372 85.314245 307.046066 86.711845 307.347355 
C 88.109444 307.648644 90.005261 307.81793 91.981765 307.81793 
z
" style="fill:#008000;opacity:0.2;stroke:#008000;stroke-linejoin:miter;stroke-width:2;"/>
   </g>
   <g id="patch_33">
    <path clip-path="url(#p8d94c83f17)" d="M 68.878106 302.355339 
C 70.85461 302.355339 72.750428 302.186052 74.148027 301.884763 
C 75.545626 301.583474 76.3309 301.174781 76.3309 300.748694 
C 76.3309 300.322607 75.545626 299.913914 74.148027 299.612625 
C 72.750428 299.311336 70.85461 299.14205 68.878106 299.14205 
C 66.901603 299.14205 65.005785 299.311336 63.608186 299.612625 
C 62.210586 299.913914 61.425313 300.322607 61.425313 300.748694 
C 61.425313 301.174781 62.210586 301.583474 63.608186 301.884763 
C 65.005785 302.186052 66.901603 302.355339 68.878106 302.355339 
z
" style="fill:#008000;opacity:0.2;stroke:#008000;stroke-linejoin:miter;stroke-width:2;"/>
   </g>
   <g id="patch_34">
    <path clip-path="url(#p8d94c83f17)" d="M 281.282712 173.502453 
C 289.188727 173.502453 296.771997 172.825308 302.362394 171.620152 
C 307.952792 170.414995 311.093885 168.780223 311.093885 167.075875 
C 311.093885 165.371527 307.952792 163.736755 302.362394 162.531598 
C 296.771997 161.326442 289.188727 160.649297 281.282712 160.649297 
C 273.376697 160.649297 265.793427 161.326442 260.20303 162.531598 
C 254.612633 163.736755 251.471539 165.371527 251.471539 167.075875 
C 251.471539 168.780223 254.612633 170.414995 260.20303 171.620152 
C 265.793427 172.825308 273.376697 173.502453 281.282712 173.502453 
z
" style="fill:none;opacity:0.2;stroke:#ff0000;stroke-linejoin:miter;stroke-width:2;"/>
   </g>
   <g id="patch_35">
    <path clip-path="url(#p8d94c83f17)" d="M 308.112768 173.502453 
C 316.018783 173.502453 323.602053 172.825308 329.19245 171.620152 
C 334.782847 170.414995 337.92394 168.780223 337.92394 167.075875 
C 337.92394 165.371527 334.782847 163.736755 329.19245 162.531598 
C 323.602053 161.326442 316.018783 160.649297 308.112768 160.649297 
C 300.206752 160.649297 292.623482 161.326442 287.033085 162.531598 
C 281.442688 163.736755 278.301595 165.371527 278.301595 167.075875 
C 278.301595 168.780223 281.442688 170.414995 287.033085 171.620152 
C 292.623482 172.825308 300.206752 173.502453 308.112768 173.502453 
z
" style="fill:none;opacity:0.2;stroke:#0000ff;stroke-linejoin:miter;stroke-width:2;"/>
   </g>
   <g id="patch_36">
    <path clip-path="url(#p8d94c83f17)" d="M 281.282712 170.289164 
C 285.23572 170.289164 289.027355 169.950592 291.822553 169.348013 
C 294.617752 168.745435 296.188298 167.928049 296.188298 167.075875 
C 296.188298 166.223701 294.617752 165.406315 291.822553 164.803737 
C 289.027355 164.201158 285.23572 163.862586 281.282712 163.862586 
C 277.329704 163.862586 273.538069 164.201158 270.742871 164.803737 
C 267.947672 165.406315 266.377126 166.223701 266.377126 167.075875 
C 266.377126 167.928049 267.947672 168.745435 270.742871 169.348013 
C 273.538069 169.950592 277.329704 170.289164 281.282712 170.289164 
z
" style="fill:none;opacity:0.2;stroke:#008000;stroke-linejoin:miter;stroke-width:2;"/>
   </g>
   <g id="patch_37">
    <path clip-path="url(#p8d94c83f17)" d="M 308.112768 170.289164 
C 312.065775 170.289164 315.85741 169.950592 318.652609 169.348013 
C 321.447807 168.745435 323.018354 167.928049 323.018354 167.075875 
C 323.018354 166.223701 321.447807 165.406315 318.652609 164.803737 
C 315.85741 164.201158 312.065775 163.862586 308.112768 163.862586 
C 304.15976 163.862586 300.368125 164.201158 297.572926 164.803737 
C 294.777728 165.406315 293.207181 166.223701 293.207181 167.075875 
C 293.207181 167.928049 294.777728 168.745435 297.572926 169.348013 
C 300.368125 169.950592 304.15976 170.289164 308.112768 170.289164 
z
" style="fill:none;opacity:0.2;stroke:#008000;stroke-linejoin:miter;stroke-width:2;"/>
   </g>
   <g id="patch_38">
    <path d="M 294.69774 167.075875 
Q 181.787923 100.239465 68.878106 33.403056 
" style="fill:none;opacity:0.5;stroke:#008000;stroke-linecap:round;stroke-width:2;"/>
   </g>
   <g id="patch_39">
    <path d="M 282.696926 167.075875 
Q 293.69718 167.075875 304.697435 167.075875 
" style="fill:none;opacity:0.5;stroke:#800080;stroke-linecap:round;stroke-width:2;"/>
    <path d="M 284.196926 168.575875 
L 282.696926 167.075875 
L 284.196926 165.575875 
" style="fill:none;opacity:0.5;stroke:#800080;stroke-linecap:round;stroke-width:2;"/>
    <path d="M 303.197435 165.575875 
L 304.697435 167.075875 
L 303.197435 168.575875 
" style="fill:none;opacity:0.5;stroke:#800080;stroke-linecap:round;stroke-width:2;"/>
   </g>
   <g id="patch_40">
    <path d="M 68.878106 33.403056 
Q 80.429936 30.67176 91.981765 27.940465 
" style="fill:none;opacity:0.5;stroke:#008000;stroke-linecap:round;stroke-width:2;"/>
   </g>
   <g id="patch_41">
    <path d="M 60.600588 33.952113 
Q 67.882278 33.46911 75.163968 32.986108 
" style="fill:none;opacity:0.5;stroke:#800080;stroke-linecap:round;stroke-width:2;"/>
    <path d="M 62.196577 35.349545 
L 60.600588 33.952113 
L 61.99802 32.356123 
" style="fill:none;opacity:0.5;stroke:#800080;stroke-linecap:round;stroke-width:2;"/>
    <path d="M 73.567978 31.588675 
L 75.163968 32.986108 
L 73.766535 34.582097 
" style="fill:none;opacity:0.5;stroke:#800080;stroke-linecap:round;stroke-width:2;"/>
   </g>
   <g id="patch_42">
    <path d="M 91.981765 27.940465 
Q 254.080017 97.50817 416.178269 167.075875 
" style="fill:none;opacity:0.5;stroke:#008000;stroke-linecap:round;stroke-width:2;"/>
   </g>
   <g id="patch_43">
    <path d="M 85.943186 27.940465 
Q 90.982843 27.940465 96.022501 27.940465 
" style="fill:none;opacity:0.5;stroke:#800080;stroke-linecap:round;stroke-width:2;"/>
    <path d="M 87.443186 29.440465 
L 85.943186 27.940465 
L 87.443186 26.440465 
" style="fill:none;opacity:0.5;stroke:#800080;stroke-linecap:round;stroke-width:2;"/>
    <path d="M 94.522501 26.440465 
L 96.022501 27.940465 
L 94.522501 29.440465 
" style="fill:none;opacity:0.5;stroke:#800080;stroke-linecap:round;stroke-width:2;"/>
   </g>
   <g id="patch_44">
    <path d="M 416.178269 167.075875 
Q 254.080017 236.64358 91.981765 306.211285 
" style="fill:none;opacity:0.5;stroke:#008000;stroke-linecap:round;stroke-width:2;"/>
   </g>
   <g id="patch_45">
    <path d="M 424.452686 167.075875 
Q 417.178828 167.075875 409.90497 167.075875 
" style="fill:none;opacity:0.5;stroke:#800080;stroke-linecap:round;stroke-width:2;"/>
    <path d="M 422.952686 165.575875 
L 424.452686 167.075875 
L 422.952686 168.575875 
" style="fill:none;opacity:0.5;stroke:#800080;stroke-linecap:round;stroke-width:2;"/>
    <path d="M 411.40497 168.575875 
L 409.90497 167.075875 
L 411.40497 165.575875 
" style="fill:none;opacity:0.5;stroke:#800080;stroke-linecap:round;stroke-width:2;"/>
   </g>
   <g id="patch_46">
    <path d="M 91.981765 306.211285 
Q 80.429936 303.47999 68.878106 300.748694 
" style="fill:none;opacity:0.5;stroke:#008000;stroke-linecap:round;stroke-width:2;"/>
   </g>
   <g id="patch_47">
    <path d="M 85.943186 306.211285 
Q 90.982843 306.211285 96.022501 306.211285 
" style="fill:none;opacity:0.5;stroke:#800080;stroke-linecap:round;stroke-width:2;"/>
    <path d="M 87.443186 307.711285 
L 85.943186 306.211285 
L 87.443186 304.711285 
" style="fill:none;opacity:0.5;stroke:#800080;stroke-linecap:round;stroke-width:2;"/>
    <path d="M 94.522501 304.711285 
L 96.022501 306.211285 
L 94.522501 307.711285 
" style="fill:none;opacity:0.5;stroke:#800080;stroke-linecap:round;stroke-width:2;"/>
   </g>
   <g id="patch_48">
    <path d="M 68.878106 300.748694 
Q 181.787923 233.912285 294.69774 167.075875 
" style="fill:none;opacity:0.5;stroke:#008000;stroke-linecap:round;stroke-width:2;"/>
   </g>
   <g id="patch_49">
    <path d="M 60.600588 300.199637 
Q 67.882278 300.68264 75.163968 301.165642 
" style="fill:none;opacity:0.5;stroke:#800080;stroke-linecap:round;stroke-width:2;"/>
    <path d="M 61.99802 301.795627 
L 60.600588 300.199637 
L 62.196577 298.802205 
" style="fill:none;opacity:0.5;stroke:#800080;stroke-linecap:round;stroke-width:2;"/>
    <path d="M 73.766535 299.569653 
L 75.163968 301.165642 
L 73.567978 302.563075 
" style="fill:none;opacity:0.5;stroke:#800080;stroke-linecap:round;stroke-width:2;"/>
   </g>
   <g id="line2d_1">
    <path clip-path="url(#p8d94c83f17)" d="M 281.282712 167.075875 
L 59.189475 34.045714 
L 84.528972 27.940465 
L 425.8669 167.075875 
L 84.528972 306.211285 
L 59.189475 300.106036 
" style="fill:none;stroke:#ff0000;stroke-linecap:square;stroke-width:0.2;"/>
   </g>
   <g id="line2d_2">
    <path clip-path="url(#p8d94c83f17)" d="M 308.112768 167.075875 
L 78.566738 32.760398 
L 99.434558 27.940465 
L 406.489638 167.075875 
L 99.434558 306.211285 
L 78.566738 301.391352 
" style="fill:none;stroke:#0000ff;stroke-linecap:square;stroke-width:0.2;"/>
   </g>
  </g>
 </g>
 <defs>
  <clipPath id="p8d94c83f17">
   <rect height="307.51175" width="409.903625" x="37.576375" y="13.32"/>
  </clipPath>
 </defs>
</svg>
