<?xml version="1.0" encoding="utf-8" standalone="no"?>
<!DOCTYPE svg PUBLIC "-//W3C//DTD SVG 1.1//EN"
  "http://www.w3.org/Graphics/SVG/1.1/DTD/svg11.dtd">
<!-- Created with matplotlib (http://matplotlib.org/) -->
<svg height="345.6pt" version="1.1" viewBox="0 0 460.8 345.6" width="460.8pt" xmlns="http://www.w3.org/2000/svg" xmlns:xlink="http://www.w3.org/1999/xlink">
 <defs>
  <style type="text/css">
*{stroke-linecap:butt;stroke-linejoin:round;}
  </style>
 </defs>
 <g id="figure_1">
  <g id="patch_1">
   <path d="M 0 345.6 
L 460.8 345.6 
L 460.8 0 
L 0 0 
z
" style="fill:#ffffff;"/>
  </g>
  <g id="axes_1">
   <g id="patch_2">
    <path clip-path="url(#p75f387c66f)" d="M 60.151635 167.075875 
C 61.197404 167.075875 62.200482 166.9643 62.939953 166.765723 
C 63.679423 166.567146 64.094912 166.29778 64.094912 166.01695 
C 64.094912 165.73612 63.679423 165.466754 62.939953 165.268177 
C 62.200482 165.0696 61.197404 164.958025 60.151635 164.958025 
C 59.105866 164.958025 58.102788 165.0696 57.363317 165.268177 
C 56.623846 165.466754 56.208358 165.73612 56.208358 166.01695 
C 56.208358 166.29778 56.623846 166.567146 57.363317 166.765723 
C 58.102788 166.9643 59.105866 167.075875 60.151635 167.075875 
z
" style="fill:#ff0000;opacity:0.2;stroke:#ff0000;stroke-linejoin:miter;stroke-width:2;"/>
   </g>
   <g id="patch_3">
    <path clip-path="url(#p75f387c66f)" d="M 395.330164 29.415656 
C 396.375933 29.415656 397.379011 29.304081 398.118482 29.105504 
C 398.857952 28.906928 399.273441 28.637562 399.273441 28.356732 
C 399.273441 28.075901 398.857952 27.806536 398.118482 27.607959 
C 397.379011 27.409382 396.375933 27.297807 395.330164 27.297807 
C 394.284395 27.297807 393.281317 27.409382 392.541846 27.607959 
C 391.802376 27.806536 391.386887 28.075901 391.386887 28.356732 
C 391.386887 28.637562 391.802376 28.906928 392.541846 29.105504 
C 393.281317 29.304081 394.284395 29.415656 395.330164 29.415656 
z
" style="fill:#ff0000;opacity:0.2;stroke:#ff0000;stroke-linejoin:miter;stroke-width:2;"/>
   </g>
   <g id="patch_4">
    <path clip-path="url(#p75f387c66f)" d="M 422.933102 40.004904 
C 423.978871 40.004904 424.981949 39.893329 425.72142 39.694752 
C 426.46089 39.496175 426.876379 39.226809 426.876379 38.945979 
C 426.876379 38.665149 426.46089 38.395783 425.72142 38.197206 
C 424.981949 37.998629 423.978871 37.887054 422.933102 37.887054 
C 421.887333 37.887054 420.884255 37.998629 420.144784 38.197206 
C 419.405314 38.395783 418.989825 38.665149 418.989825 38.945979 
C 418.989825 39.226809 419.405314 39.496175 420.144784 39.694752 
C 420.884255 39.893329 421.887333 40.004904 422.933102 40.004904 
z
" style="fill:#ff0000;opacity:0.2;stroke:#ff0000;stroke-linejoin:miter;stroke-width:2;"/>
   </g>
   <g id="patch_5">
    <path clip-path="url(#p75f387c66f)" d="M 251.40056 167.075875 
C 252.44633 167.075875 253.449408 166.9643 254.188878 166.765723 
C 254.928349 166.567146 255.343837 166.29778 255.343837 166.01695 
C 255.343837 165.73612 254.928349 165.466754 254.188878 165.268177 
C 253.449408 165.0696 252.44633 164.958025 251.40056 164.958025 
C 250.354791 164.958025 249.351713 165.0696 248.612243 165.268177 
C 247.872772 165.466754 247.457284 165.73612 247.457284 166.01695 
C 247.457284 166.29778 247.872772 166.567146 248.612243 166.765723 
C 249.351713 166.9643 250.354791 167.075875 251.40056 167.075875 
z
" style="fill:#ff0000;opacity:0.2;stroke:#ff0000;stroke-linejoin:miter;stroke-width:2;"/>
   </g>
   <g id="patch_6">
    <path clip-path="url(#p75f387c66f)" d="M 422.933102 294.146846 
C 423.978871 294.146846 424.981949 294.035271 425.72142 293.836694 
C 426.46089 293.638117 426.876379 293.368751 426.876379 293.087921 
C 426.876379 292.807091 426.46089 292.537725 425.72142 292.339148 
C 424.981949 292.140572 423.978871 292.028997 422.933102 292.028997 
C 421.887333 292.028997 420.884255 292.140572 420.144784 292.339148 
C 419.405314 292.537725 418.989825 292.807091 418.989825 293.087921 
C 418.989825 293.368751 419.405314 293.638117 420.144784 293.836694 
C 420.884255 294.035271 421.887333 294.146846 422.933102 294.146846 
z
" style="fill:#ff0000;opacity:0.2;stroke:#ff0000;stroke-linejoin:miter;stroke-width:2;"/>
   </g>
   <g id="patch_7">
    <path clip-path="url(#p75f387c66f)" d="M 395.330164 304.736094 
C 396.375933 304.736094 397.379011 304.624519 398.118482 304.425942 
C 398.857952 304.227365 399.273441 303.957999 399.273441 303.677169 
C 399.273441 303.396339 398.857952 303.126973 398.118482 302.928396 
C 397.379011 302.729819 396.375933 302.618244 395.330164 302.618244 
C 394.284395 302.618244 393.281317 302.729819 392.541846 302.928396 
C 391.802376 303.126973 391.386887 303.396339 391.386887 303.677169 
C 391.386887 303.957999 391.802376 304.227365 392.541846 304.425942 
C 393.281317 304.624519 394.284395 304.736094 395.330164 304.736094 
z
" style="fill:#ff0000;opacity:0.2;stroke:#ff0000;stroke-linejoin:miter;stroke-width:2;"/>
   </g>
   <g id="patch_8">
    <path clip-path="url(#p75f387c66f)" d="M 204.081239 169.193725 
C 205.127008 169.193725 206.130086 169.08215 206.869556 168.883573 
C 207.609027 168.684996 208.024515 168.41563 208.024515 168.1348 
C 208.024515 167.85397 207.609027 167.584604 206.869556 167.386027 
C 206.130086 167.18745 205.127008 167.075875 204.081239 167.075875 
C 203.035469 167.075875 202.032391 167.18745 201.292921 167.386027 
C 200.55345 167.584604 200.137962 167.85397 200.137962 168.1348 
C 200.137962 168.41563 200.55345 168.684996 201.292921 168.883573 
C 202.032391 169.08215 203.035469 169.193725 204.081239 169.193725 
z
" style="fill:#0000ff;opacity:0.2;stroke:#0000ff;stroke-linejoin:miter;stroke-width:2;"/>
   </g>
   <g id="patch_9">
    <path clip-path="url(#p75f387c66f)" d="M 409.131633 297.32362 
C 410.177402 297.32362 411.18048 297.212045 411.919951 297.013468 
C 412.659421 296.814892 413.07491 296.545526 413.07491 296.264696 
C 413.07491 295.983865 412.659421 295.7145 411.919951 295.515923 
C 411.18048 295.317346 410.177402 295.205771 409.131633 295.205771 
C 408.085864 295.205771 407.082786 295.317346 406.343315 295.515923 
C 405.603845 295.7145 405.188356 295.983865 405.188356 296.264696 
C 405.188356 296.545526 405.603845 296.814892 406.343315 297.013468 
C 407.082786 297.212045 408.085864 297.32362 409.131633 297.32362 
z
" style="fill:#0000ff;opacity:0.2;stroke:#0000ff;stroke-linejoin:miter;stroke-width:2;"/>
   </g>
   <g id="patch_10">
    <path clip-path="url(#p75f387c66f)" d="M 389.415249 306.853943 
C 390.461018 306.853943 391.464096 306.742368 392.203567 306.543791 
C 392.943037 306.345214 393.358526 306.075849 393.358526 305.795018 
C 393.358526 305.514188 392.943037 305.244822 392.203567 305.046246 
C 391.464096 304.847669 390.461018 304.736094 389.415249 304.736094 
C 388.36948 304.736094 387.366402 304.847669 386.626931 305.046246 
C 385.887461 305.244822 385.471972 305.514188 385.471972 305.795018 
C 385.471972 306.075849 385.887461 306.345214 386.626931 306.543791 
C 387.366402 306.742368 388.36948 306.853943 389.415249 306.853943 
z
" style="fill:#0000ff;opacity:0.2;stroke:#0000ff;stroke-linejoin:miter;stroke-width:2;"/>
   </g>
   <g id="patch_11">
    <path clip-path="url(#p75f387c66f)" d="M 73.953104 169.193725 
C 74.998873 169.193725 76.001951 169.08215 76.741421 168.883573 
C 77.480892 168.684996 77.89638 168.41563 77.89638 168.1348 
C 77.89638 167.85397 77.480892 167.584604 76.741421 167.386027 
C 76.001951 167.18745 74.998873 167.075875 73.953104 167.075875 
C 72.907334 167.075875 71.904256 167.18745 71.164786 167.386027 
C 70.425315 167.584604 70.009827 167.85397 70.009827 168.1348 
C 70.009827 168.41563 70.425315 168.684996 71.164786 168.883573 
C 71.904256 169.08215 72.907334 169.193725 73.953104 169.193725 
z
" style="fill:#0000ff;opacity:0.2;stroke:#0000ff;stroke-linejoin:miter;stroke-width:2;"/>
   </g>
   <g id="patch_12">
    <path clip-path="url(#p75f387c66f)" d="M 389.415249 31.533506 
C 390.461018 31.533506 391.464096 31.421931 392.203567 31.223354 
C 392.943037 31.024777 393.358526 30.755411 393.358526 30.474581 
C 393.358526 30.193751 392.943037 29.924385 392.203567 29.725808 
C 391.464096 29.527231 390.461018 29.415656 389.415249 29.415656 
C 388.36948 29.415656 387.366402 29.527231 386.626931 29.725808 
C 385.887461 29.924385 385.471972 30.193751 385.471972 30.474581 
C 385.471972 30.755411 385.887461 31.024777 386.626931 31.223354 
C 387.366402 31.421931 388.36948 31.533506 389.415249 31.533506 
z
" style="fill:#0000ff;opacity:0.2;stroke:#0000ff;stroke-linejoin:miter;stroke-width:2;"/>
   </g>
   <g id="patch_13">
    <path clip-path="url(#p75f387c66f)" d="M 409.131633 41.063829 
C 410.177402 41.063829 411.18048 40.952254 411.919951 40.753677 
C 412.659421 40.5551 413.07491 40.285734 413.07491 40.004904 
C 413.07491 39.724074 412.659421 39.454708 411.919951 39.256131 
C 411.18048 39.057554 410.177402 38.945979 409.131633 38.945979 
C 408.085864 38.945979 407.082786 39.057554 406.343315 39.256131 
C 405.603845 39.454708 405.188356 39.724074 405.188356 40.004904 
C 405.188356 40.285734 405.603845 40.5551 406.343315 40.753677 
C 407.082786 40.952254 408.085864 41.063829 409.131633 41.063829 
z
" style="fill:#0000ff;opacity:0.2;stroke:#0000ff;stroke-linejoin:miter;stroke-width:2;"/>
   </g>
   <g id="patch_14">
    <path clip-path="url(#p75f387c66f)" d="M 60.151635 166.01695 
C 60.151635 106.187701 182.393216 54.300388 395.330164 28.356732 
C 411.103271 28.886194 428.848017 33.651355 422.933102 38.945979 
C 338.15265 64.889636 251.40056 107.246626 251.40056 166.01695 
C 251.40056 224.787274 338.15265 267.144265 422.933102 293.087921 
C 428.848017 298.382545 411.103271 303.147707 395.330164 303.677169 
C 182.393216 277.733512 60.151635 225.846199 60.151635 166.01695 
" style="fill:none;stroke:#ff0000;stroke-linejoin:miter;stroke-width:0.5;"/>
   </g>
   <g id="patch_15">
    <path clip-path="url(#p75f387c66f)" d="M 204.081239 168.1348 
C 204.081239 226.905124 282.946775 269.262114 409.131633 296.264696 
C 417.018187 301.029857 403.216718 305.265556 389.415249 305.795018 
C 182.393216 279.851362 73.953104 227.964049 73.953104 168.1348 
C 73.953104 108.305551 182.393216 56.418238 389.415249 30.474581 
C 403.216718 31.004043 417.018187 35.239743 409.131633 40.004904 
C 282.946775 67.007485 204.081239 109.364476 204.081239 168.1348 
" style="fill:none;stroke:#0000ff;stroke-linejoin:miter;stroke-width:0.5;"/>
   </g>
   <g id="[&quot;g_s&quot;:1,&quot;g_t&quot;:4,&quot;coords&quot;:[[86.0, -507.0],[93.0, -511.0]],&quot;certainty&quot;:12]">
    <path clip-path="url(#p75f387c66f)" d="M 60.151635 169.458456 
C 63.550385 169.458456 66.810388 169.095837 69.213668 168.450462 
C 71.616947 167.805087 72.967284 166.929648 72.967284 166.01695 
C 72.967284 165.104252 71.616947 164.228813 69.213668 163.583438 
C 66.810388 162.938064 63.550385 162.575445 60.151635 162.575445 
C 56.752885 162.575445 53.492881 162.938064 51.089602 163.583438 
C 48.686323 164.228813 47.335985 165.104252 47.335985 166.01695 
C 47.335985 166.929648 48.686323 167.805087 51.089602 168.450462 
C 53.492881 169.095837 56.752885 169.458456 60.151635 169.458456 
z
" style="fill:#0000ff;opacity:0.2;stroke:#0000ff;stroke-linejoin:miter;stroke-width:2;"/>
   </g>
   <g id="[&quot;g_s&quot;:4,&quot;g_t&quot;:1,&quot;coords&quot;:[[93.0, -511.0],[86.0, -507.0]],&quot;certainty&quot;:12]">
    <path clip-path="url(#p75f387c66f)" d="M 73.953104 171.576305 
C 77.351854 171.576305 80.611857 171.213686 83.015136 170.568312 
C 85.418416 169.922937 86.768753 169.047498 86.768753 168.1348 
C 86.768753 167.222102 85.418416 166.346663 83.015136 165.701288 
C 80.611857 165.055913 77.351854 164.693294 73.953104 164.693294 
C 70.554354 164.693294 67.29435 165.055913 64.891071 165.701288 
C 62.487792 166.346663 61.137454 167.222102 61.137454 168.1348 
C 61.137454 169.047498 62.487792 169.922937 64.891071 170.568312 
C 67.29435 171.213686 70.554354 171.576305 73.953104 171.576305 
z
" style="fill:#ff0000;opacity:0.2;stroke:#ff0000;stroke-linejoin:miter;stroke-width:2;"/>
   </g>
   <g id="patch_16">
    <path d="M 60.151635 166.01695 
Q 66.063421 166.92412 69.703699 167.482724 
" style="fill:none;opacity:0.5;stroke:#0000ff;stroke-linecap:round;stroke-width:3.25;"/>
    <path d="M 68.448567 165.772565 
L 69.703699 167.482724 
L 67.99354 168.737856 
" style="fill:none;opacity:0.5;stroke:#0000ff;stroke-linecap:round;stroke-width:3.25;"/>
   </g>
   <g id="[&quot;g_s&quot;:2,&quot;g_t&quot;:5,&quot;coords&quot;:[[256.0, -247.0],[253.0, -251.0]],&quot;certainty&quot;:5]">
    <path clip-path="url(#p75f387c66f)" d="M 395.330164 29.945119 
C 396.898818 29.945119 398.403435 29.777756 399.512641 29.479891 
C 400.621847 29.182026 401.245079 28.777977 401.245079 28.356732 
C 401.245079 27.935486 400.621847 27.531438 399.512641 27.233572 
C 398.403435 26.935707 396.898818 26.768344 395.330164 26.768344 
C 393.76151 26.768344 392.256893 26.935707 391.147687 27.233572 
C 390.038482 27.531438 389.415249 27.935486 389.415249 28.356732 
C 389.415249 28.777977 390.038482 29.182026 391.147687 29.479891 
C 392.256893 29.777756 393.76151 29.945119 395.330164 29.945119 
z
" style="fill:#0000ff;opacity:0.2;stroke:#0000ff;stroke-linejoin:miter;stroke-width:2;"/>
   </g>
   <g id="[&quot;g_s&quot;:5,&quot;g_t&quot;:2,&quot;coords&quot;:[[253.0, -251.0],[256.0, -247.0]],&quot;certainty&quot;:5]">
    <path clip-path="url(#p75f387c66f)" d="M 389.415249 32.062968 
C 390.983903 32.062968 392.48852 31.895606 393.597726 31.59774 
C 394.706931 31.299875 395.330164 30.895826 395.330164 30.474581 
C 395.330164 30.053336 394.706931 29.649287 393.597726 29.351422 
C 392.48852 29.053556 390.983903 28.886194 389.415249 28.886194 
C 387.846595 28.886194 386.341978 29.053556 385.232772 29.351422 
C 384.123566 29.649287 383.500334 30.053336 383.500334 30.474581 
C 383.500334 30.895826 384.123566 31.299875 385.232772 31.59774 
C 386.341978 31.895606 387.846595 32.062968 389.415249 32.062968 
z
" style="fill:#ff0000;opacity:0.2;stroke:#ff0000;stroke-linejoin:miter;stroke-width:2;"/>
   </g>
   <g id="patch_17">
    <path d="M 395.330164 28.356732 
Q 393.312797 29.079055 392.29401 29.443834 
" style="fill:none;opacity:0.5;stroke:#0000ff;stroke-linecap:round;stroke-width:1.5;"/>
    <path d="M 394.211859 30.350396 
L 392.29401 29.443834 
L 393.200572 27.525985 
" style="fill:none;opacity:0.5;stroke:#0000ff;stroke-linecap:round;stroke-width:1.5;"/>
   </g>
   <g id="[&quot;g_s&quot;:3,&quot;g_t&quot;:6,&quot;coords&quot;:[[270.0, -267.0],[263.0, -269.0]],&quot;certainty&quot;:6]">
    <path clip-path="url(#p75f387c66f)" d="M 422.933102 40.799097 
C 424.763198 40.799097 426.518585 40.603841 427.812658 40.256332 
C 429.106731 39.908822 429.833836 39.437432 429.833836 38.945979 
C 429.833836 38.454526 429.106731 37.983136 427.812658 37.635627 
C 426.518585 37.288117 424.763198 37.092861 422.933102 37.092861 
C 421.103006 37.092861 419.347619 37.288117 418.053546 37.635627 
C 416.759472 37.983136 416.032367 38.454526 416.032367 38.945979 
C 416.032367 39.437432 416.759472 39.908822 418.053546 40.256332 
C 419.347619 40.603841 421.103006 40.799097 422.933102 40.799097 
z
" style="fill:#0000ff;opacity:0.2;stroke:#0000ff;stroke-linejoin:miter;stroke-width:2;"/>
   </g>
   <g id="[&quot;g_s&quot;:6,&quot;g_t&quot;:3,&quot;coords&quot;:[[263.0, -269.0],[270.0, -267.0]],&quot;certainty&quot;:6]">
    <path clip-path="url(#p75f387c66f)" d="M 409.131633 41.858022 
C 410.961729 41.858022 412.717116 41.662766 414.011189 41.315256 
C 415.305262 40.967747 416.032367 40.496357 416.032367 40.004904 
C 416.032367 39.513451 415.305262 39.042061 414.011189 38.694551 
C 412.717116 38.347042 410.961729 38.151786 409.131633 38.151786 
C 407.301537 38.151786 405.54615 38.347042 404.252077 38.694551 
C 402.958003 39.042061 402.230899 39.513451 402.230899 40.004904 
C 402.230899 40.496357 402.958003 40.967747 404.252077 41.315256 
C 405.54615 41.662766 407.301537 41.858022 409.131633 41.858022 
z
" style="fill:#ff0000;opacity:0.2;stroke:#ff0000;stroke-linejoin:miter;stroke-width:2;"/>
   </g>
   <g id="patch_18">
    <path d="M 422.933102 38.945979 
Q 417.028054 39.399047 412.356818 39.75745 
" style="fill:none;opacity:0.5;stroke:#0000ff;stroke-linecap:round;stroke-width:1.75;"/>
    <path d="M 413.967173 41.138303 
L 412.356818 39.75745 
L 413.737671 38.147095 
" style="fill:none;opacity:0.5;stroke:#0000ff;stroke-linecap:round;stroke-width:1.75;"/>
   </g>
   <g id="[&quot;g_s&quot;:4,&quot;g_t&quot;:1,&quot;coords&quot;:[[183.0, -507.0],[159.0, -511.0]],&quot;certainty&quot;:11]">
    <path clip-path="url(#p75f387c66f)" d="M 251.40056 169.193725 
C 254.537868 169.193725 257.547102 168.859 259.765514 168.263269 
C 261.983925 167.667538 263.230391 166.859441 263.230391 166.01695 
C 263.230391 165.17446 261.983925 164.366362 259.765514 163.770632 
C 257.547102 163.174901 254.537868 162.840176 251.40056 162.840176 
C 248.263253 162.840176 245.254019 163.174901 243.035607 163.770632 
C 240.817195 164.366362 239.57073 165.17446 239.57073 166.01695 
C 239.57073 166.859441 240.817195 167.667538 243.035607 168.263269 
C 245.254019 168.859 248.263253 169.193725 251.40056 169.193725 
z
" style="fill:#0000ff;opacity:0.2;stroke:#0000ff;stroke-linejoin:miter;stroke-width:2;"/>
   </g>
   <g id="[&quot;g_s&quot;:1,&quot;g_t&quot;:4,&quot;coords&quot;:[[159.0, -511.0],[183.0, -507.0]],&quot;certainty&quot;:11]">
    <path clip-path="url(#p75f387c66f)" d="M 204.081239 171.311574 
C 207.218546 171.311574 210.22778 170.976849 212.446192 170.381118 
C 214.664603 169.785388 215.911069 168.97729 215.911069 168.1348 
C 215.911069 167.292309 214.664603 166.484212 212.446192 165.888481 
C 210.22778 165.29275 207.218546 164.958025 204.081239 164.958025 
C 200.943931 164.958025 197.934697 165.29275 195.716285 165.888481 
C 193.497874 166.484212 192.251408 167.292309 192.251408 168.1348 
C 192.251408 168.97729 193.497874 169.785388 195.716285 170.381118 
C 197.934697 170.976849 200.943931 171.311574 204.081239 171.311574 
z
" style="fill:#ff0000;opacity:0.2;stroke:#ff0000;stroke-linejoin:miter;stroke-width:2;"/>
   </g>
   <g id="patch_19">
    <path d="M 251.40056 166.01695 
Q 228.738753 167.031215 208.196144 167.950631 
" style="fill:none;opacity:0.5;stroke:#0000ff;stroke-linecap:round;stroke-width:3;"/>
    <path d="M 209.761711 169.382063 
L 208.196144 167.950631 
L 209.627576 166.385063 
" style="fill:none;opacity:0.5;stroke:#0000ff;stroke-linecap:round;stroke-width:3;"/>
   </g>
   <g id="[&quot;g_s&quot;:5,&quot;g_t&quot;:2,&quot;coords&quot;:[[270.0, -747.0],[263.0, -753.0]],&quot;certainty&quot;:6]">
    <path clip-path="url(#p75f387c66f)" d="M 422.933102 294.94104 
C 424.763198 294.94104 426.518585 294.745783 427.812658 294.398274 
C 429.106731 294.050764 429.833836 293.579374 429.833836 293.087921 
C 429.833836 292.596469 429.106731 292.125078 427.812658 291.777569 
C 426.518585 291.430059 424.763198 291.234803 422.933102 291.234803 
C 421.103006 291.234803 419.347619 291.430059 418.053546 291.777569 
C 416.759472 292.125078 416.032367 292.596469 416.032367 293.087921 
C 416.032367 293.579374 416.759472 294.050764 418.053546 294.398274 
C 419.347619 294.745783 421.103006 294.94104 422.933102 294.94104 
z
" style="fill:#0000ff;opacity:0.2;stroke:#0000ff;stroke-linejoin:miter;stroke-width:2;"/>
   </g>
   <g id="[&quot;g_s&quot;:2,&quot;g_t&quot;:5,&quot;coords&quot;:[[263.0, -753.0],[270.0, -747.0]],&quot;certainty&quot;:6]">
    <path clip-path="url(#p75f387c66f)" d="M 409.131633 298.117814 
C 410.961729 298.117814 412.717116 297.922558 414.011189 297.575048 
C 415.305262 297.227539 416.032367 296.756148 416.032367 296.264696 
C 416.032367 295.773243 415.305262 295.301853 414.011189 294.954343 
C 412.717116 294.606834 410.961729 294.411577 409.131633 294.411577 
C 407.301537 294.411577 405.54615 294.606834 404.252077 294.954343 
C 402.958003 295.301853 402.230899 295.773243 402.230899 296.264696 
C 402.230899 296.756148 402.958003 297.227539 404.252077 297.575048 
C 405.54615 297.922558 407.301537 298.117814 409.131633 298.117814 
z
" style="fill:#ff0000;opacity:0.2;stroke:#ff0000;stroke-linejoin:miter;stroke-width:2;"/>
   </g>
   <g id="patch_20">
    <path d="M 422.933102 293.087921 
Q 417.007837 294.451778 412.288477 295.538064 
" style="fill:none;opacity:0.5;stroke:#0000ff;stroke-linecap:round;stroke-width:1.75;"/>
    <path d="M 414.08672 296.663374 
L 412.288477 295.538064 
L 413.413787 293.739821 
" style="fill:none;opacity:0.5;stroke:#0000ff;stroke-linecap:round;stroke-width:1.75;"/>
   </g>
   <g id="[&quot;g_s&quot;:6,&quot;g_t&quot;:3,&quot;coords&quot;:[[256.0, -767.0],[253.0, -771.0]],&quot;certainty&quot;:11]">
    <path clip-path="url(#p75f387c66f)" d="M 395.330164 306.853943 
C 398.467472 306.853943 401.476706 306.519218 403.695117 305.923488 
C 405.913529 305.327757 407.159995 304.519659 407.159995 303.677169 
C 407.159995 302.834679 405.913529 302.026581 403.695117 301.43085 
C 401.476706 300.83512 398.467472 300.500395 395.330164 300.500395 
C 392.192856 300.500395 389.183622 300.83512 386.965211 301.43085 
C 384.746799 302.026581 383.500334 302.834679 383.500334 303.677169 
C 383.500334 304.519659 384.746799 305.327757 386.965211 305.923488 
C 389.183622 306.519218 392.192856 306.853943 395.330164 306.853943 
z
" style="fill:#0000ff;opacity:0.2;stroke:#0000ff;stroke-linejoin:miter;stroke-width:2;"/>
   </g>
   <g id="[&quot;g_s&quot;:3,&quot;g_t&quot;:6,&quot;coords&quot;:[[253.0, -771.0],[256.0, -767.0]],&quot;certainty&quot;:11]">
    <path clip-path="url(#p75f387c66f)" d="M 389.415249 308.971793 
C 392.552557 308.971793 395.561791 308.637068 397.780202 308.041337 
C 399.998614 307.445606 401.245079 306.637509 401.245079 305.795018 
C 401.245079 304.952528 399.998614 304.14443 397.780202 303.5487 
C 395.561791 302.952969 392.552557 302.618244 389.415249 302.618244 
C 386.277941 302.618244 383.268707 302.952969 381.050296 303.5487 
C 378.831884 304.14443 377.585418 304.952528 377.585418 305.795018 
C 377.585418 306.637509 378.831884 307.445606 381.050296 308.041337 
C 383.268707 308.637068 386.277941 308.971793 389.415249 308.971793 
z
" style="fill:#ff0000;opacity:0.2;stroke:#ff0000;stroke-linejoin:miter;stroke-width:2;"/>
   </g>
   <g id="patch_21">
    <path d="M 395.330164 303.677169 
Q 393.312797 304.399492 393.29259 304.406727 
" style="fill:none;opacity:0.5;stroke:#0000ff;stroke-linecap:round;stroke-width:3;"/>
    <path d="M 395.210439 305.313289 
L 393.29259 304.406727 
L 394.199152 302.488878 
" style="fill:none;opacity:0.5;stroke:#0000ff;stroke-linecap:round;stroke-width:3;"/>
   </g>
   <g id="[&quot;g_s&quot;:1,&quot;g_t&quot;:4,&quot;coords&quot;:[[159.0, -511.0],[183.0, -507.0]],&quot;certainty&quot;:12]">
    <path clip-path="url(#p75f387c66f)" d="M 204.081239 171.576305 
C 207.479989 171.576305 210.739992 171.213686 213.143271 170.568312 
C 215.546551 169.922937 216.896888 169.047498 216.896888 168.1348 
C 216.896888 167.222102 215.546551 166.346663 213.143271 165.701288 
C 210.739992 165.055913 207.479989 164.693294 204.081239 164.693294 
C 200.682489 164.693294 197.422485 165.055913 195.019206 165.701288 
C 192.615927 166.346663 191.265589 167.222102 191.265589 168.1348 
C 191.265589 169.047498 192.615927 169.922937 195.019206 170.568312 
C 197.422485 171.213686 200.682489 171.576305 204.081239 171.576305 
z
" style="fill:#0000ff;opacity:0.2;stroke:#0000ff;stroke-linejoin:miter;stroke-width:2;"/>
   </g>
   <g id="[&quot;g_s&quot;:4,&quot;g_t&quot;:1,&quot;coords&quot;:[[183.0, -507.0],[159.0, -511.0]],&quot;certainty&quot;:12]">
    <path clip-path="url(#p75f387c66f)" d="M 251.40056 169.458456 
C 254.79931 169.458456 258.059314 169.095837 260.462593 168.450462 
C 262.865872 167.805087 264.21621 166.929648 264.21621 166.01695 
C 264.21621 165.104252 262.865872 164.228813 260.462593 163.583438 
C 258.059314 162.938064 254.79931 162.575445 251.40056 162.575445 
C 248.00181 162.575445 244.741807 162.938064 242.338528 163.583438 
C 239.935248 164.228813 238.584911 165.104252 238.584911 166.01695 
C 238.584911 166.929648 239.935248 167.805087 242.338528 168.450462 
C 244.741807 169.095837 248.00181 169.458456 251.40056 169.458456 
z
" style="fill:#ff0000;opacity:0.2;stroke:#ff0000;stroke-linejoin:miter;stroke-width:2;"/>
   </g>
   <g id="patch_22">
    <path d="M 204.081239 168.1348 
Q 226.743046 167.120535 247.109055 166.209023 
" style="fill:none;opacity:0.5;stroke:#ff0000;stroke-linecap:round;stroke-width:3.25;"/>
    <path d="M 245.543488 164.777591 
L 247.109055 166.209023 
L 245.677623 167.774591 
" style="fill:none;opacity:0.5;stroke:#ff0000;stroke-linecap:round;stroke-width:3.25;"/>
   </g>
   <g id="[&quot;g_s&quot;:2,&quot;g_t&quot;:5,&quot;coords&quot;:[[263.0, -753.0],[270.0, -747.0]],&quot;certainty&quot;:6]">
    <path clip-path="url(#p75f387c66f)" d="M 409.131633 298.117814 
C 410.961729 298.117814 412.717116 297.922558 414.011189 297.575048 
C 415.305262 297.227539 416.032367 296.756148 416.032367 296.264696 
C 416.032367 295.773243 415.305262 295.301853 414.011189 294.954343 
C 412.717116 294.606834 410.961729 294.411577 409.131633 294.411577 
C 407.301537 294.411577 405.54615 294.606834 404.252077 294.954343 
C 402.958003 295.301853 402.230899 295.773243 402.230899 296.264696 
C 402.230899 296.756148 402.958003 297.227539 404.252077 297.575048 
C 405.54615 297.922558 407.301537 298.117814 409.131633 298.117814 
z
" style="fill:#0000ff;opacity:0.2;stroke:#0000ff;stroke-linejoin:miter;stroke-width:2;"/>
   </g>
   <g id="[&quot;g_s&quot;:5,&quot;g_t&quot;:2,&quot;coords&quot;:[[270.0, -747.0],[263.0, -753.0]],&quot;certainty&quot;:6]">
    <path clip-path="url(#p75f387c66f)" d="M 422.933102 294.94104 
C 424.763198 294.94104 426.518585 294.745783 427.812658 294.398274 
C 429.106731 294.050764 429.833836 293.579374 429.833836 293.087921 
C 429.833836 292.596469 429.106731 292.125078 427.812658 291.777569 
C 426.518585 291.430059 424.763198 291.234803 422.933102 291.234803 
C 421.103006 291.234803 419.347619 291.430059 418.053546 291.777569 
C 416.759472 292.125078 416.032367 292.596469 416.032367 293.087921 
C 416.032367 293.579374 416.759472 294.050764 418.053546 294.398274 
C 419.347619 294.745783 421.103006 294.94104 422.933102 294.94104 
z
" style="fill:#ff0000;opacity:0.2;stroke:#ff0000;stroke-linejoin:miter;stroke-width:2;"/>
   </g>
   <g id="patch_23">
    <path d="M 409.131633 296.264696 
Q 415.056897 294.900839 419.776258 293.814553 
" style="fill:none;opacity:0.5;stroke:#ff0000;stroke-linecap:round;stroke-width:1.75;"/>
    <path d="M 417.978015 292.689243 
L 419.776258 293.814553 
L 418.650948 295.612796 
" style="fill:none;opacity:0.5;stroke:#ff0000;stroke-linecap:round;stroke-width:1.75;"/>
   </g>
   <g id="[&quot;g_s&quot;:3,&quot;g_t&quot;:6,&quot;coords&quot;:[[253.0, -771.0],[256.0, -767.0]],&quot;certainty&quot;:10]">
    <path clip-path="url(#p75f387c66f)" d="M 389.415249 308.707062 
C 392.291114 308.707062 395.049579 308.40023 397.083123 307.854144 
C 399.116667 307.308057 400.25926 306.567301 400.25926 305.795018 
C 400.25926 305.022736 399.116667 304.281979 397.083123 303.735893 
C 395.049579 303.189807 392.291114 302.882975 389.415249 302.882975 
C 386.539383 302.882975 383.780919 303.189807 381.747375 303.735893 
C 379.713831 304.281979 378.571238 305.022736 378.571238 305.795018 
C 378.571238 306.567301 379.713831 307.308057 381.747375 307.854144 
C 383.780919 308.40023 386.539383 308.707062 389.415249 308.707062 
z
" style="fill:#0000ff;opacity:0.2;stroke:#0000ff;stroke-linejoin:miter;stroke-width:2;"/>
   </g>
   <g id="[&quot;g_s&quot;:6,&quot;g_t&quot;:3,&quot;coords&quot;:[[256.0, -767.0],[253.0, -771.0]],&quot;certainty&quot;:10]">
    <path clip-path="url(#p75f387c66f)" d="M 395.330164 306.589212 
C 398.20603 306.589212 400.964494 306.282381 402.998038 305.736294 
C 405.031582 305.190208 406.174175 304.449452 406.174175 303.677169 
C 406.174175 302.904886 405.031582 302.16413 402.998038 301.618043 
C 400.964494 301.071957 398.20603 300.765126 395.330164 300.765126 
C 392.454299 300.765126 389.695834 301.071957 387.66229 301.618043 
C 385.628746 302.16413 384.486153 302.904886 384.486153 303.677169 
C 384.486153 304.449452 385.628746 305.190208 387.66229 305.736294 
C 389.695834 306.282381 392.454299 306.589212 395.330164 306.589212 
z
" style="fill:#ff0000;opacity:0.2;stroke:#ff0000;stroke-linejoin:miter;stroke-width:2;"/>
   </g>
   <g id="patch_24">
    <path d="M 389.415249 305.795018 
Q 391.432616 305.072695 391.619253 305.005869 
" style="fill:none;opacity:0.5;stroke:#ff0000;stroke-linecap:round;stroke-width:2.75;"/>
    <path d="M 389.701404 304.099307 
L 391.619253 305.005869 
L 390.712691 306.923719 
" style="fill:none;opacity:0.5;stroke:#ff0000;stroke-linecap:round;stroke-width:2.75;"/>
   </g>
   <g id="[&quot;g_s&quot;:4,&quot;g_t&quot;:1,&quot;coords&quot;:[[93.0, -511.0],[86.0, -507.0]],&quot;certainty&quot;:10]">
    <path clip-path="url(#p75f387c66f)" d="M 73.953104 171.046843 
C 76.828969 171.046843 79.587434 170.740012 81.620978 170.193925 
C 83.654521 169.647839 84.797115 168.907083 84.797115 168.1348 
C 84.797115 167.362517 83.654521 166.621761 81.620978 166.075674 
C 79.587434 165.529588 76.828969 165.222757 73.953104 165.222757 
C 71.077238 165.222757 68.318774 165.529588 66.28523 166.075674 
C 64.251686 166.621761 63.109092 167.362517 63.109092 168.1348 
C 63.109092 168.907083 64.251686 169.647839 66.28523 170.193925 
C 68.318774 170.740012 71.077238 171.046843 73.953104 171.046843 
z
" style="fill:#0000ff;opacity:0.2;stroke:#0000ff;stroke-linejoin:miter;stroke-width:2;"/>
   </g>
   <g id="[&quot;g_s&quot;:1,&quot;g_t&quot;:4,&quot;coords&quot;:[[86.0, -507.0],[93.0, -511.0]],&quot;certainty&quot;:10]">
    <path clip-path="url(#p75f387c66f)" d="M 60.151635 168.928993 
C 63.0275 168.928993 65.785965 168.622162 67.819509 168.076076 
C 69.853053 167.529989 70.995646 166.789233 70.995646 166.01695 
C 70.995646 165.244667 69.853053 164.503911 67.819509 163.957825 
C 65.785965 163.411738 63.0275 163.104907 60.151635 163.104907 
C 57.275769 163.104907 54.517305 163.411738 52.483761 163.957825 
C 50.450217 164.503911 49.307624 165.244667 49.307624 166.01695 
C 49.307624 166.789233 50.450217 167.529989 52.483761 168.076076 
C 54.517305 168.622162 57.275769 168.928993 60.151635 168.928993 
z
" style="fill:#ff0000;opacity:0.2;stroke:#ff0000;stroke-linejoin:miter;stroke-width:2;"/>
   </g>
   <g id="patch_25">
    <path d="M 73.953104 168.1348 
Q 68.041317 167.22763 64.051577 166.6154 
" style="fill:none;opacity:0.5;stroke:#ff0000;stroke-linecap:round;stroke-width:2.75;"/>
    <path d="M 65.306709 168.325559 
L 64.051577 166.6154 
L 65.761736 165.360268 
" style="fill:none;opacity:0.5;stroke:#ff0000;stroke-linecap:round;stroke-width:2.75;"/>
   </g>
   <g id="[&quot;g_s&quot;:5,&quot;g_t&quot;:2,&quot;coords&quot;:[[253.0, -251.0],[256.0, -247.0]],&quot;certainty&quot;:7]">
    <path clip-path="url(#p75f387c66f)" d="M 389.415249 32.592431 
C 391.506787 32.592431 393.512943 32.369281 394.991884 31.972127 
C 396.470825 31.574973 397.301803 31.036241 397.301803 30.474581 
C 397.301803 29.912921 396.470825 29.374189 394.991884 28.977035 
C 393.512943 28.579882 391.506787 28.356732 389.415249 28.356732 
C 387.32371 28.356732 385.317554 28.579882 383.838613 28.977035 
C 382.359672 29.374189 381.528695 29.912921 381.528695 30.474581 
C 381.528695 31.036241 382.359672 31.574973 383.838613 31.972127 
C 385.317554 32.369281 387.32371 32.592431 389.415249 32.592431 
z
" style="fill:#0000ff;opacity:0.2;stroke:#0000ff;stroke-linejoin:miter;stroke-width:2;"/>
   </g>
   <g id="[&quot;g_s&quot;:2,&quot;g_t&quot;:5,&quot;coords&quot;:[[256.0, -247.0],[253.0, -251.0]],&quot;certainty&quot;:7]">
    <path clip-path="url(#p75f387c66f)" d="M 395.330164 30.474581 
C 397.421703 30.474581 399.427859 30.251431 400.9068 29.854277 
C 402.385741 29.457124 403.216718 28.918392 403.216718 28.356732 
C 403.216718 27.795071 402.385741 27.25634 400.9068 26.859186 
C 399.427859 26.462032 397.421703 26.238882 395.330164 26.238882 
C 393.238626 26.238882 391.23247 26.462032 389.753529 26.859186 
C 388.274588 27.25634 387.44361 27.795071 387.44361 28.356732 
C 387.44361 28.918392 388.274588 29.457124 389.753529 29.854277 
C 391.23247 30.251431 393.238626 30.474581 395.330164 30.474581 
z
" style="fill:#ff0000;opacity:0.2;stroke:#ff0000;stroke-linejoin:miter;stroke-width:2;"/>
   </g>
   <g id="patch_26">
    <path d="M 389.415249 30.474581 
Q 391.432616 29.752258 392.118543 29.50666 
" style="fill:none;opacity:0.5;stroke:#ff0000;stroke-linecap:round;stroke-width:2;"/>
    <path d="M 390.200694 28.600098 
L 392.118543 29.50666 
L 391.211981 31.424509 
" style="fill:none;opacity:0.5;stroke:#ff0000;stroke-linecap:round;stroke-width:2;"/>
   </g>
   <g id="[&quot;g_s&quot;:6,&quot;g_t&quot;:3,&quot;coords&quot;:[[263.0, -269.0],[270.0, -267.0]],&quot;certainty&quot;:6]">
    <path clip-path="url(#p75f387c66f)" d="M 409.131633 41.858022 
C 410.961729 41.858022 412.717116 41.662766 414.011189 41.315256 
C 415.305262 40.967747 416.032367 40.496357 416.032367 40.004904 
C 416.032367 39.513451 415.305262 39.042061 414.011189 38.694551 
C 412.717116 38.347042 410.961729 38.151786 409.131633 38.151786 
C 407.301537 38.151786 405.54615 38.347042 404.252077 38.694551 
C 402.958003 39.042061 402.230899 39.513451 402.230899 40.004904 
C 402.230899 40.496357 402.958003 40.967747 404.252077 41.315256 
C 405.54615 41.662766 407.301537 41.858022 409.131633 41.858022 
z
" style="fill:#0000ff;opacity:0.2;stroke:#0000ff;stroke-linejoin:miter;stroke-width:2;"/>
   </g>
   <g id="[&quot;g_s&quot;:3,&quot;g_t&quot;:6,&quot;coords&quot;:[[270.0, -267.0],[263.0, -269.0]],&quot;certainty&quot;:6]">
    <path clip-path="url(#p75f387c66f)" d="M 422.933102 40.799097 
C 424.763198 40.799097 426.518585 40.603841 427.812658 40.256332 
C 429.106731 39.908822 429.833836 39.437432 429.833836 38.945979 
C 429.833836 38.454526 429.106731 37.983136 427.812658 37.635627 
C 426.518585 37.288117 424.763198 37.092861 422.933102 37.092861 
C 421.103006 37.092861 419.347619 37.288117 418.053546 37.635627 
C 416.759472 37.983136 416.032367 38.454526 416.032367 38.945979 
C 416.032367 39.437432 416.759472 39.908822 418.053546 40.256332 
C 419.347619 40.603841 421.103006 40.799097 422.933102 40.799097 
z
" style="fill:#ff0000;opacity:0.2;stroke:#ff0000;stroke-linejoin:miter;stroke-width:2;"/>
   </g>
   <g id="patch_27">
    <path d="M 409.131633 40.004904 
Q 415.03668 39.551836 419.707917 39.193433 
" style="fill:none;opacity:0.5;stroke:#ff0000;stroke-linecap:round;stroke-width:1.75;"/>
    <path d="M 418.097562 37.81258 
L 419.707917 39.193433 
L 418.327064 40.803788 
" style="fill:none;opacity:0.5;stroke:#ff0000;stroke-linecap:round;stroke-width:1.75;"/>
   </g>
   <g id="patch_28">
    <path clip-path="url(#p75f387c66f)" d="M 67.052369 169.723187 
C 69.666792 169.723187 72.174487 169.444249 74.023164 168.947807 
C 75.87184 168.451365 76.910561 167.77795 76.910561 167.075875 
C 76.910561 166.3738 75.87184 165.700385 74.023164 165.203943 
C 72.174487 164.707501 69.666792 164.428563 67.052369 164.428563 
C 64.437946 164.428563 61.930251 164.707501 60.081575 165.203943 
C 58.232898 165.700385 57.194177 166.3738 57.194177 167.075875 
C 57.194177 167.77795 58.232898 168.451365 60.081575 168.947807 
C 61.930251 169.444249 64.437946 169.723187 67.052369 169.723187 
z
" style="fill:#008000;opacity:0.2;stroke:#008000;stroke-linejoin:miter;stroke-width:2;"/>
   </g>
   <g id="patch_29">
    <path clip-path="url(#p75f387c66f)" d="M 392.372706 32.062968 
C 394.98713 32.062968 397.494825 31.784031 399.343501 31.287589 
C 401.192177 30.791146 402.230899 30.117732 402.230899 29.415656 
C 402.230899 28.713581 401.192177 28.040166 399.343501 27.543724 
C 397.494825 27.047282 394.98713 26.768344 392.372706 26.768344 
C 389.758283 26.768344 387.250588 27.047282 385.401912 27.543724 
C 383.553236 28.040166 382.514514 28.713581 382.514514 29.415656 
C 382.514514 30.117732 383.553236 30.791146 385.401912 31.287589 
C 387.250588 31.784031 389.758283 32.062968 392.372706 32.062968 
z
" style="fill:#008000;opacity:0.2;stroke:#008000;stroke-linejoin:miter;stroke-width:2;"/>
   </g>
   <g id="patch_30">
    <path clip-path="url(#p75f387c66f)" d="M 416.032367 42.122753 
C 418.64679 42.122753 421.154486 41.843816 423.003162 41.347374 
C 424.851838 40.850932 425.890559 40.177517 425.890559 39.475442 
C 425.890559 38.773366 424.851838 38.099952 423.003162 37.603509 
C 421.154486 37.107067 418.64679 36.82813 416.032367 36.82813 
C 413.417944 36.82813 410.910249 37.107067 409.061573 37.603509 
C 407.212897 38.099952 406.174175 38.773366 406.174175 39.475442 
C 406.174175 40.177517 407.212897 40.850932 409.061573 41.347374 
C 410.910249 41.843816 413.417944 42.122753 416.032367 42.122753 
z
" style="fill:#008000;opacity:0.2;stroke:#008000;stroke-linejoin:miter;stroke-width:2;"/>
   </g>
   <g id="patch_31">
    <path clip-path="url(#p75f387c66f)" d="M 227.740899 169.723187 
C 230.355323 169.723187 232.863018 169.444249 234.711694 168.947807 
C 236.56037 168.451365 237.599091 167.77795 237.599091 167.075875 
C 237.599091 166.3738 236.56037 165.700385 234.711694 165.203943 
C 232.863018 164.707501 230.355323 164.428563 227.740899 164.428563 
C 225.126476 164.428563 222.618781 164.707501 220.770105 165.203943 
C 218.921429 165.700385 217.882707 166.3738 217.882707 167.075875 
C 217.882707 167.77795 218.921429 168.451365 220.770105 168.947807 
C 222.618781 169.444249 225.126476 169.723187 227.740899 169.723187 
z
" style="fill:#008000;opacity:0.2;stroke:#008000;stroke-linejoin:miter;stroke-width:2;"/>
   </g>
   <g id="patch_32">
    <path clip-path="url(#p75f387c66f)" d="M 416.032367 297.32362 
C 418.64679 297.32362 421.154486 297.044683 423.003162 296.548241 
C 424.851838 296.051798 425.890559 295.378384 425.890559 294.676308 
C 425.890559 293.974233 424.851838 293.300818 423.003162 292.804376 
C 421.154486 292.307934 418.64679 292.028997 416.032367 292.028997 
C 413.417944 292.028997 410.910249 292.307934 409.061573 292.804376 
C 407.212897 293.300818 406.174175 293.974233 406.174175 294.676308 
C 406.174175 295.378384 407.212897 296.051798 409.061573 296.548241 
C 410.910249 297.044683 413.417944 297.32362 416.032367 297.32362 
z
" style="fill:#008000;opacity:0.2;stroke:#008000;stroke-linejoin:miter;stroke-width:2;"/>
   </g>
   <g id="patch_33">
    <path clip-path="url(#p75f387c66f)" d="M 392.372706 307.383406 
C 394.98713 307.383406 397.494825 307.104468 399.343501 306.608026 
C 401.192177 306.111584 402.230899 305.438169 402.230899 304.736094 
C 402.230899 304.034018 401.192177 303.360604 399.343501 302.864161 
C 397.494825 302.367719 394.98713 302.088782 392.372706 302.088782 
C 389.758283 302.088782 387.250588 302.367719 385.401912 302.864161 
C 383.553236 303.360604 382.514514 304.034018 382.514514 304.736094 
C 382.514514 305.438169 383.553236 306.111584 385.401912 306.608026 
C 387.250588 307.104468 389.758283 307.383406 392.372706 307.383406 
z
" style="fill:#008000;opacity:0.2;stroke:#008000;stroke-linejoin:miter;stroke-width:2;"/>
   </g>
   <g id="patch_34">
    <path clip-path="url(#p75f387c66f)" d="M 60.151635 176.606198 
C 70.609327 176.606198 80.640107 175.490448 88.034813 173.504679 
C 95.429518 171.51891 99.584403 168.825252 99.584403 166.01695 
C 99.584403 163.208649 95.429518 160.51499 88.034813 158.529221 
C 80.640107 156.543453 70.609327 155.427703 60.151635 155.427703 
C 49.693942 155.427703 39.663162 156.543453 32.268457 158.529221 
C 24.873752 160.51499 20.718867 163.208649 20.718867 166.01695 
C 20.718867 168.825252 24.873752 171.51891 32.268457 173.504679 
C 39.663162 175.490448 49.693942 176.606198 60.151635 176.606198 
z
" style="fill:none;opacity:0.2;stroke:#ff0000;stroke-linejoin:miter;stroke-width:2;"/>
   </g>
   <g id="patch_35">
    <path clip-path="url(#p75f387c66f)" d="M 204.081239 178.724047 
C 214.538931 178.724047 224.569711 177.608297 231.964416 175.622529 
C 239.359121 173.63676 243.514007 170.943101 243.514007 168.1348 
C 243.514007 165.326498 239.359121 162.63284 231.964416 160.647071 
C 224.569711 158.661302 214.538931 157.545552 204.081239 157.545552 
C 193.623546 157.545552 183.592766 158.661302 176.198061 160.647071 
C 168.803356 162.63284 164.64847 165.326498 164.64847 168.1348 
C 164.64847 170.943101 168.803356 173.63676 176.198061 175.622529 
C 183.592766 177.608297 193.623546 178.724047 204.081239 178.724047 
z
" style="fill:none;opacity:0.2;stroke:#0000ff;stroke-linejoin:miter;stroke-width:2;"/>
   </g>
   <g id="patch_36">
    <path clip-path="url(#p75f387c66f)" d="M 60.151635 171.311574 
C 65.380481 171.311574 70.395871 170.753699 74.093224 169.760815 
C 77.790576 168.76793 79.868019 167.421101 79.868019 166.01695 
C 79.868019 164.6128 77.790576 163.26597 74.093224 162.273086 
C 70.395871 161.280201 65.380481 160.722326 60.151635 160.722326 
C 54.922789 160.722326 49.907398 161.280201 46.210046 162.273086 
C 42.512693 163.26597 40.435251 164.6128 40.435251 166.01695 
C 40.435251 167.421101 42.512693 168.76793 46.210046 169.760815 
C 49.907398 170.753699 54.922789 171.311574 60.151635 171.311574 
z
" style="fill:none;opacity:0.2;stroke:#008000;stroke-linejoin:miter;stroke-width:2;"/>
   </g>
   <g id="patch_37">
    <path clip-path="url(#p75f387c66f)" d="M 73.953104 173.429424 
C 79.18195 173.429424 84.19734 172.871549 87.894693 171.878664 
C 91.592045 170.88578 93.669488 169.53895 93.669488 168.1348 
C 93.669488 166.730649 91.592045 165.38382 87.894693 164.390935 
C 84.19734 163.398051 79.18195 162.840176 73.953104 162.840176 
C 68.724257 162.840176 63.708867 163.398051 60.011515 164.390935 
C 56.314162 165.38382 54.23672 166.730649 54.23672 168.1348 
C 54.23672 169.53895 56.314162 170.88578 60.011515 171.878664 
C 63.708867 172.871549 68.724257 173.429424 73.953104 173.429424 
z
" style="fill:none;opacity:0.2;stroke:#008000;stroke-linejoin:miter;stroke-width:2;"/>
   </g>
   <g id="patch_38">
    <path d="M 67.052369 167.075875 
Q 229.712538 98.245766 392.372706 29.415656 
" style="fill:none;opacity:0.5;stroke:#008000;stroke-linecap:round;stroke-width:2;"/>
   </g>
   <g id="patch_39">
    <path d="M 61.549486 166.231452 
Q 66.063421 166.92412 70.577356 167.616788 
" style="fill:none;opacity:0.5;stroke:#800080;stroke-linecap:round;stroke-width:2;"/>
    <path d="M 62.804618 167.941611 
L 61.549486 166.231452 
L 63.259645 164.97632 
" style="fill:none;opacity:0.5;stroke:#800080;stroke-linecap:round;stroke-width:2;"/>
    <path d="M 69.322224 165.906629 
L 70.577356 167.616788 
L 68.867197 168.87192 
" style="fill:none;opacity:0.5;stroke:#800080;stroke-linecap:round;stroke-width:2;"/>
   </g>
   <g id="patch_40">
    <path d="M 392.372706 29.415656 
Q 404.202537 34.445549 416.032367 39.475442 
" style="fill:none;opacity:0.5;stroke:#008000;stroke-linecap:round;stroke-width:2;"/>
   </g>
   <g id="patch_41">
    <path d="M 393.998724 28.833457 
Q 393.312797 29.079055 392.62687 29.324653 
" style="fill:none;opacity:0.5;stroke:#800080;stroke-linecap:round;stroke-width:2;"/>
    <path d="M 392.080875 27.926895 
L 393.998724 28.833457 
L 393.092162 30.751306 
" style="fill:none;opacity:0.5;stroke:#800080;stroke-linecap:round;stroke-width:2;"/>
    <path d="M 394.544719 30.231215 
L 392.62687 29.324653 
L 393.533432 27.406803 
" style="fill:none;opacity:0.5;stroke:#800080;stroke-linecap:round;stroke-width:2;"/>
   </g>
   <g id="patch_42">
    <path d="M 416.032367 39.475442 
Q 321.886633 103.275658 227.740899 167.075875 
" style="fill:none;opacity:0.5;stroke:#008000;stroke-linecap:round;stroke-width:2;"/>
   </g>
   <g id="patch_43">
    <path d="M 421.523033 39.054167 
Q 417.028054 39.399047 412.533076 39.743926 
" style="fill:none;opacity:0.5;stroke:#800080;stroke-linecap:round;stroke-width:2;"/>
    <path d="M 419.912677 37.673314 
L 421.523033 39.054167 
L 420.142179 40.664523 
" style="fill:none;opacity:0.5;stroke:#800080;stroke-linecap:round;stroke-width:2;"/>
    <path d="M 414.143432 41.12478 
L 412.533076 39.743926 
L 413.91393 38.133571 
" style="fill:none;opacity:0.5;stroke:#800080;stroke-linecap:round;stroke-width:2;"/>
   </g>
   <g id="patch_44">
    <path d="M 227.740899 167.075875 
Q 321.886633 230.876092 416.032367 294.676308 
" style="fill:none;opacity:0.5;stroke:#008000;stroke-linecap:round;stroke-width:2;"/>
   </g>
   <g id="patch_45">
    <path d="M 249.987761 166.080182 
Q 228.738753 167.031215 207.489744 167.982247 
" style="fill:none;opacity:0.5;stroke:#800080;stroke-linecap:round;stroke-width:2;"/>
    <path d="M 248.422194 164.64875 
L 249.987761 166.080182 
L 248.556329 167.64575 
" style="fill:none;opacity:0.5;stroke:#800080;stroke-linecap:round;stroke-width:2;"/>
    <path d="M 209.055312 169.413679 
L 207.489744 167.982247 
L 208.921176 166.416679 
" style="fill:none;opacity:0.5;stroke:#800080;stroke-linecap:round;stroke-width:2;"/>
   </g>
   <g id="patch_46">
    <path d="M 416.032367 294.676308 
Q 404.202537 299.706201 392.372706 304.736094 
" style="fill:none;opacity:0.5;stroke:#008000;stroke-linecap:round;stroke-width:2;"/>
   </g>
   <g id="patch_47">
    <path d="M 421.554926 293.405145 
Q 417.007837 294.451778 412.460749 295.498411 
" style="fill:none;opacity:0.5;stroke:#800080;stroke-linecap:round;stroke-width:2;"/>
    <path d="M 419.756683 292.279835 
L 421.554926 293.405145 
L 420.429616 295.203388 
" style="fill:none;opacity:0.5;stroke:#800080;stroke-linecap:round;stroke-width:2;"/>
    <path d="M 414.258992 296.623721 
L 412.460749 295.498411 
L 413.586059 293.700168 
" style="fill:none;opacity:0.5;stroke:#800080;stroke-linecap:round;stroke-width:2;"/>
   </g>
   <g id="patch_48">
    <path d="M 392.372706 304.736094 
Q 229.712538 235.905984 67.052369 167.075875 
" style="fill:none;opacity:0.5;stroke:#008000;stroke-linecap:round;stroke-width:2;"/>
   </g>
   <g id="patch_49">
    <path d="M 393.998724 304.153894 
Q 393.312797 304.399492 392.62687 304.64509 
" style="fill:none;opacity:0.5;stroke:#800080;stroke-linecap:round;stroke-width:2;"/>
    <path d="M 392.080875 303.247332 
L 393.998724 304.153894 
L 393.092162 306.071743 
" style="fill:none;opacity:0.5;stroke:#800080;stroke-linecap:round;stroke-width:2;"/>
    <path d="M 394.544719 305.551652 
L 392.62687 304.64509 
L 393.533432 302.727241 
" style="fill:none;opacity:0.5;stroke:#800080;stroke-linecap:round;stroke-width:2;"/>
   </g>
   <g id="line2d_1">
    <path clip-path="url(#p75f387c66f)" d="M 60.151635 166.01695 
L 395.330164 28.356732 
L 422.933102 38.945979 
L 251.40056 166.01695 
L 422.933102 293.087921 
L 395.330164 303.677169 
" style="fill:none;stroke:#ff0000;stroke-linecap:square;stroke-width:0.2;"/>
   </g>
   <g id="line2d_2">
    <path clip-path="url(#p75f387c66f)" d="M 204.081239 168.1348 
L 409.131633 296.264696 
L 389.415249 305.795018 
L 73.953104 168.1348 
L 389.415249 30.474581 
L 409.131633 40.004904 
" style="fill:none;stroke:#0000ff;stroke-linecap:square;stroke-width:0.2;"/>
   </g>
  </g>
 </g>
 <defs>
  <clipPath id="p75f387c66f">
   <rect height="307.51175" width="409.903625" x="37.576375" y="13.32"/>
  </clipPath>
 </defs>
</svg>
