<?xml version="1.0" encoding="utf-8" standalone="no"?>
<!DOCTYPE svg PUBLIC "-//W3C//DTD SVG 1.1//EN"
  "http://www.w3.org/Graphics/SVG/1.1/DTD/svg11.dtd">
<!-- Created with matplotlib (http://matplotlib.org/) -->
<svg height="345.6pt" version="1.1" viewBox="0 0 460.8 345.6" width="460.8pt" xmlns="http://www.w3.org/2000/svg" xmlns:xlink="http://www.w3.org/1999/xlink">
 <defs>
  <style type="text/css">
*{stroke-linecap:butt;stroke-linejoin:round;}
  </style>
 </defs>
 <g id="figure_1">
  <g id="patch_1">
   <path d="M 0 345.6 
L 460.8 345.6 
L 460.8 0 
L 0 0 
z
" style="fill:#ffffff;"/>
  </g>
  <g id="axes_1">
   <g id="patch_2">
    <path clip-path="url(#p50e39df2bc)" d="M 60.151635 161.974486 
C 61.197404 161.974486 62.200482 161.866983 62.939953 161.675653 
C 63.679423 161.484324 64.094912 161.224789 64.094912 160.954208 
C 64.094912 160.683627 63.679423 160.424092 62.939953 160.232762 
C 62.200482 160.041433 61.197404 159.93393 60.151635 159.93393 
C 59.105866 159.93393 58.102788 160.041433 57.363317 160.232762 
C 56.623846 160.424092 56.208358 160.683627 56.208358 160.954208 
C 56.208358 161.224789 56.623846 161.484324 57.363317 161.675653 
C 58.102788 161.866983 59.105866 161.974486 60.151635 161.974486 
z
" style="fill:#ff0000;opacity:0.2;stroke:#ff0000;stroke-linejoin:miter;stroke-width:2;"/>
   </g>
   <g id="patch_3">
    <path clip-path="url(#p50e39df2bc)" d="M 395.330164 29.338363 
C 396.375933 29.338363 397.379011 29.23086 398.118482 29.03953 
C 398.857952 28.848201 399.273441 28.588666 399.273441 28.318085 
C 399.273441 28.047504 398.857952 27.787969 398.118482 27.596639 
C 397.379011 27.40531 396.375933 27.297807 395.330164 27.297807 
C 394.284395 27.297807 393.281317 27.40531 392.541846 27.596639 
C 391.802376 27.787969 391.386887 28.047504 391.386887 28.318085 
C 391.386887 28.588666 391.802376 28.848201 392.541846 29.03953 
C 393.281317 29.23086 394.284395 29.338363 395.330164 29.338363 
z
" style="fill:#ff0000;opacity:0.2;stroke:#ff0000;stroke-linejoin:miter;stroke-width:2;"/>
   </g>
   <g id="patch_4">
    <path clip-path="url(#p50e39df2bc)" d="M 422.933102 39.541141 
C 423.978871 39.541141 424.981949 39.433638 425.72142 39.242309 
C 426.46089 39.050979 426.876379 38.791444 426.876379 38.520863 
C 426.876379 38.250283 426.46089 37.990748 425.72142 37.799418 
C 424.981949 37.608088 423.978871 37.500586 422.933102 37.500586 
C 421.887333 37.500586 420.884255 37.608088 420.144784 37.799418 
C 419.405314 37.990748 418.989825 38.250283 418.989825 38.520863 
C 418.989825 38.791444 419.405314 39.050979 420.144784 39.242309 
C 420.884255 39.433638 421.887333 39.541141 422.933102 39.541141 
z
" style="fill:#ff0000;opacity:0.2;stroke:#ff0000;stroke-linejoin:miter;stroke-width:2;"/>
   </g>
   <g id="patch_5">
    <path clip-path="url(#p50e39df2bc)" d="M 251.40056 161.974486 
C 252.44633 161.974486 253.449408 161.866983 254.188878 161.675653 
C 254.928349 161.484324 255.343837 161.224789 255.343837 160.954208 
C 255.343837 160.683627 254.928349 160.424092 254.188878 160.232762 
C 253.449408 160.041433 252.44633 159.93393 251.40056 159.93393 
C 250.354791 159.93393 249.351713 160.041433 248.612243 160.232762 
C 247.872772 160.424092 247.457284 160.683627 247.457284 160.954208 
C 247.457284 161.224789 247.872772 161.484324 248.612243 161.675653 
C 249.351713 161.866983 250.354791 161.974486 251.40056 161.974486 
z
" style="fill:#ff0000;opacity:0.2;stroke:#ff0000;stroke-linejoin:miter;stroke-width:2;"/>
   </g>
   <g id="patch_6">
    <path clip-path="url(#p50e39df2bc)" d="M 422.933102 284.40783 
C 423.978871 284.40783 424.981949 284.300327 425.72142 284.108998 
C 426.46089 283.917668 426.876379 283.658133 426.876379 283.387552 
C 426.876379 283.116971 426.46089 282.857436 425.72142 282.666107 
C 424.981949 282.474777 423.978871 282.367274 422.933102 282.367274 
C 421.887333 282.367274 420.884255 282.474777 420.144784 282.666107 
C 419.405314 282.857436 418.989825 283.116971 418.989825 283.387552 
C 418.989825 283.658133 419.405314 283.917668 420.144784 284.108998 
C 420.884255 284.300327 421.887333 284.40783 422.933102 284.40783 
z
" style="fill:#ff0000;opacity:0.2;stroke:#ff0000;stroke-linejoin:miter;stroke-width:2;"/>
   </g>
   <g id="patch_7">
    <path clip-path="url(#p50e39df2bc)" d="M 395.330164 294.610609 
C 396.375933 294.610609 397.379011 294.503106 398.118482 294.311776 
C 398.857952 294.120447 399.273441 293.860912 399.273441 293.590331 
C 399.273441 293.31975 398.857952 293.060215 398.118482 292.868885 
C 397.379011 292.677556 396.375933 292.570053 395.330164 292.570053 
C 394.284395 292.570053 393.281317 292.677556 392.541846 292.868885 
C 391.802376 293.060215 391.386887 293.31975 391.386887 293.590331 
C 391.386887 293.860912 391.802376 294.120447 392.541846 294.311776 
C 393.281317 294.503106 394.284395 294.610609 395.330164 294.610609 
z
" style="fill:#ff0000;opacity:0.2;stroke:#ff0000;stroke-linejoin:miter;stroke-width:2;"/>
   </g>
   <g id="patch_8">
    <path clip-path="url(#p50e39df2bc)" d="M 204.081239 174.21782 
C 205.127008 174.21782 206.130086 174.110317 206.869556 173.918988 
C 207.609027 173.727658 208.024515 173.468123 208.024515 173.197542 
C 208.024515 172.926961 207.609027 172.667426 206.869556 172.476097 
C 206.130086 172.284767 205.127008 172.177264 204.081239 172.177264 
C 203.035469 172.177264 202.032391 172.284767 201.292921 172.476097 
C 200.55345 172.667426 200.137962 172.926961 200.137962 173.197542 
C 200.137962 173.468123 200.55345 173.727658 201.292921 173.918988 
C 202.032391 174.110317 203.035469 174.21782 204.081239 174.21782 
z
" style="fill:#0000ff;opacity:0.2;stroke:#0000ff;stroke-linejoin:miter;stroke-width:2;"/>
   </g>
   <g id="patch_9">
    <path clip-path="url(#p50e39df2bc)" d="M 409.131633 297.671442 
C 410.177402 297.671442 411.18048 297.563939 411.919951 297.37261 
C 412.659421 297.18128 413.07491 296.921745 413.07491 296.651164 
C 413.07491 296.380584 412.659421 296.121049 411.919951 295.929719 
C 411.18048 295.73839 410.177402 295.630887 409.131633 295.630887 
C 408.085864 295.630887 407.082786 295.73839 406.343315 295.929719 
C 405.603845 296.121049 405.188356 296.380584 405.188356 296.651164 
C 405.188356 296.921745 405.603845 297.18128 406.343315 297.37261 
C 407.082786 297.563939 408.085864 297.671442 409.131633 297.671442 
z
" style="fill:#0000ff;opacity:0.2;stroke:#0000ff;stroke-linejoin:miter;stroke-width:2;"/>
   </g>
   <g id="patch_10">
    <path clip-path="url(#p50e39df2bc)" d="M 389.415249 306.853943 
C 390.461018 306.853943 391.464096 306.74644 392.203567 306.555111 
C 392.943037 306.363781 393.358526 306.104246 393.358526 305.833665 
C 393.358526 305.563084 392.943037 305.303549 392.203567 305.11222 
C 391.464096 304.92089 390.461018 304.813387 389.415249 304.813387 
C 388.36948 304.813387 387.366402 304.92089 386.626931 305.11222 
C 385.887461 305.303549 385.471972 305.563084 385.471972 305.833665 
C 385.471972 306.104246 385.887461 306.363781 386.626931 306.555111 
C 387.366402 306.74644 388.36948 306.853943 389.415249 306.853943 
z
" style="fill:#0000ff;opacity:0.2;stroke:#0000ff;stroke-linejoin:miter;stroke-width:2;"/>
   </g>
   <g id="patch_11">
    <path clip-path="url(#p50e39df2bc)" d="M 73.953104 174.21782 
C 74.998873 174.21782 76.001951 174.110317 76.741421 173.918988 
C 77.480892 173.727658 77.89638 173.468123 77.89638 173.197542 
C 77.89638 172.926961 77.480892 172.667426 76.741421 172.476097 
C 76.001951 172.284767 74.998873 172.177264 73.953104 172.177264 
C 72.907334 172.177264 71.904256 172.284767 71.164786 172.476097 
C 70.425315 172.667426 70.009827 172.926961 70.009827 173.197542 
C 70.009827 173.468123 70.425315 173.727658 71.164786 173.918988 
C 71.904256 174.110317 72.907334 174.21782 73.953104 174.21782 
z
" style="fill:#0000ff;opacity:0.2;stroke:#0000ff;stroke-linejoin:miter;stroke-width:2;"/>
   </g>
   <g id="patch_12">
    <path clip-path="url(#p50e39df2bc)" d="M 389.415249 41.581697 
C 390.461018 41.581697 391.464096 41.474194 392.203567 41.282865 
C 392.943037 41.091535 393.358526 40.832 393.358526 40.561419 
C 393.358526 40.290838 392.943037 40.031303 392.203567 39.839974 
C 391.464096 39.648644 390.461018 39.541141 389.415249 39.541141 
C 388.36948 39.541141 387.366402 39.648644 386.626931 39.839974 
C 385.887461 40.031303 385.471972 40.290838 385.471972 40.561419 
C 385.471972 40.832 385.887461 41.091535 386.626931 41.282865 
C 387.366402 41.474194 388.36948 41.581697 389.415249 41.581697 
z
" style="fill:#0000ff;opacity:0.2;stroke:#0000ff;stroke-linejoin:miter;stroke-width:2;"/>
   </g>
   <g id="patch_13">
    <path clip-path="url(#p50e39df2bc)" d="M 409.131633 50.764198 
C 410.177402 50.764198 411.18048 50.656695 411.919951 50.465365 
C 412.659421 50.274036 413.07491 50.014501 413.07491 49.74392 
C 413.07491 49.473339 412.659421 49.213804 411.919951 49.022475 
C 411.18048 48.831145 410.177402 48.723642 409.131633 48.723642 
C 408.085864 48.723642 407.082786 48.831145 406.343315 49.022475 
C 405.603845 49.213804 405.188356 49.473339 405.188356 49.74392 
C 405.188356 50.014501 405.603845 50.274036 406.343315 50.465365 
C 407.082786 50.656695 408.085864 50.764198 409.131633 50.764198 
z
" style="fill:#0000ff;opacity:0.2;stroke:#0000ff;stroke-linejoin:miter;stroke-width:2;"/>
   </g>
   <g id="patch_14">
    <path clip-path="url(#p50e39df2bc)" d="M 60.151635 160.954208 
C 60.151635 103.308508 182.393216 53.314893 395.330164 28.318085 
C 411.103271 28.828224 428.848017 33.419474 422.933102 38.520863 
C 338.15265 63.517671 251.40056 104.328786 251.40056 160.954208 
C 251.40056 217.57963 338.15265 258.390744 422.933102 283.387552 
C 428.848017 288.488942 411.103271 293.080192 395.330164 293.590331 
C 182.393216 268.593523 60.151635 218.599907 60.151635 160.954208 
" style="fill:none;stroke:#ff0000;stroke-linejoin:miter;stroke-width:0.5;"/>
   </g>
   <g id="patch_15">
    <path clip-path="url(#p50e39df2bc)" d="M 204.081239 173.197542 
C 204.081239 229.822964 282.946775 270.634079 409.131633 296.651164 
C 417.018187 301.242415 403.216718 305.323526 389.415249 305.833665 
C 182.393216 280.836857 73.953104 230.843242 73.953104 173.197542 
C 73.953104 115.551843 182.393216 65.558227 389.415249 40.561419 
C 403.216718 41.071558 417.018187 45.15267 409.131633 49.74392 
C 282.946775 75.761006 204.081239 116.57212 204.081239 173.197542 
" style="fill:none;stroke:#0000ff;stroke-linejoin:miter;stroke-width:0.5;"/>
   </g>
   <g id="[&quot;g_s&quot;:1,&quot;g_t&quot;:4,&quot;coords&quot;:[[86.0, -260.0],[93.0, -284.0]],&quot;certainty&quot;:12]">
    <path clip-path="url(#p50e39df2bc)" d="M 60.151635 164.270111 
C 63.550385 164.270111 66.810388 163.920726 69.213668 163.298905 
C 71.616947 162.677084 72.967284 161.833596 72.967284 160.954208 
C 72.967284 160.07482 71.616947 159.231331 69.213668 158.60951 
C 66.810388 157.987689 63.550385 157.638305 60.151635 157.638305 
C 56.752885 157.638305 53.492881 157.987689 51.089602 158.60951 
C 48.686323 159.231331 47.335985 160.07482 47.335985 160.954208 
C 47.335985 161.833596 48.686323 162.677084 51.089602 163.298905 
C 53.492881 163.920726 56.752885 164.270111 60.151635 164.270111 
z
" style="fill:#0000ff;opacity:0.2;stroke:#0000ff;stroke-linejoin:miter;stroke-width:2;"/>
   </g>
   <g id="[&quot;g_s&quot;:4,&quot;g_t&quot;:1,&quot;coords&quot;:[[93.0, -284.0],[86.0, -260.0]],&quot;certainty&quot;:12]">
    <path clip-path="url(#p50e39df2bc)" d="M 73.953104 176.513445 
C 77.351854 176.513445 80.611857 176.164061 83.015136 175.54224 
C 85.418416 174.920419 86.768753 174.07693 86.768753 173.197542 
C 86.768753 172.318154 85.418416 171.474666 83.015136 170.852845 
C 80.611857 170.231024 77.351854 169.881639 73.953104 169.881639 
C 70.554354 169.881639 67.29435 170.231024 64.891071 170.852845 
C 62.487792 171.474666 61.137454 172.318154 61.137454 173.197542 
C 61.137454 174.07693 62.487792 174.920419 64.891071 175.54224 
C 67.29435 176.164061 70.554354 176.513445 73.953104 176.513445 
z
" style="fill:#ff0000;opacity:0.2;stroke:#ff0000;stroke-linejoin:miter;stroke-width:2;"/>
   </g>
   <g id="patch_16">
    <path d="M 60.151635 160.954208 
Q 66.302656 166.410801 70.734534 170.342337 
" style="fill:none;opacity:0.5;stroke:#0000ff;stroke-linecap:round;stroke-width:3.25;"/>
    <path d="M 70.607852 168.224803 
L 70.734534 170.342337 
L 68.617 170.469019 
" style="fill:none;opacity:0.5;stroke:#0000ff;stroke-linecap:round;stroke-width:3.25;"/>
   </g>
   <g id="[&quot;g_s&quot;:2,&quot;g_t&quot;:5,&quot;coords&quot;:[[256.0, 0.0],[253.0, -24.0]],&quot;certainty&quot;:5]">
    <path clip-path="url(#p50e39df2bc)" d="M 395.330164 29.848501 
C 396.898818 29.848501 398.403435 29.687247 399.512641 29.400253 
C 400.621847 29.113258 401.245079 28.723956 401.245079 28.318085 
C 401.245079 27.912213 400.621847 27.522911 399.512641 27.235917 
C 398.403435 26.948922 396.898818 26.787668 395.330164 26.787668 
C 393.76151 26.787668 392.256893 26.948922 391.147687 27.235917 
C 390.038482 27.522911 389.415249 27.912213 389.415249 28.318085 
C 389.415249 28.723956 390.038482 29.113258 391.147687 29.400253 
C 392.256893 29.687247 393.76151 29.848501 395.330164 29.848501 
z
" style="fill:#0000ff;opacity:0.2;stroke:#0000ff;stroke-linejoin:miter;stroke-width:2;"/>
   </g>
   <g id="[&quot;g_s&quot;:5,&quot;g_t&quot;:2,&quot;coords&quot;:[[253.0, -24.0],[256.0, 0.0]],&quot;certainty&quot;:5]">
    <path clip-path="url(#p50e39df2bc)" d="M 389.415249 42.091836 
C 390.983903 42.091836 392.48852 41.930582 393.597726 41.643587 
C 394.706931 41.356593 395.330164 40.96729 395.330164 40.561419 
C 395.330164 40.155548 394.706931 39.766245 393.597726 39.479251 
C 392.48852 39.192257 390.983903 39.031002 389.415249 39.031002 
C 387.846595 39.031002 386.341978 39.192257 385.232772 39.479251 
C 384.123566 39.766245 383.500334 40.155548 383.500334 40.561419 
C 383.500334 40.96729 384.123566 41.356593 385.232772 41.643587 
C 386.341978 41.930582 387.846595 42.091836 389.415249 42.091836 
z
" style="fill:#ff0000;opacity:0.2;stroke:#ff0000;stroke-linejoin:miter;stroke-width:2;"/>
   </g>
   <g id="patch_17">
    <path d="M 395.330164 28.318085 
Q 392.808094 33.53854 390.747419 37.803948 
" style="fill:none;opacity:0.5;stroke:#0000ff;stroke-linecap:round;stroke-width:1.5;"/>
    <path d="M 392.750571 37.10582 
L 390.747419 37.803948 
L 390.049291 35.800796 
" style="fill:none;opacity:0.5;stroke:#0000ff;stroke-linecap:round;stroke-width:1.5;"/>
   </g>
   <g id="[&quot;g_s&quot;:3,&quot;g_t&quot;:6,&quot;coords&quot;:[[270.0, -20.0],[263.0, -42.0]],&quot;certainty&quot;:6]">
    <path clip-path="url(#p50e39df2bc)" d="M 422.933102 40.30635 
C 424.763198 40.30635 426.518585 40.11822 427.812658 39.783393 
C 429.106731 39.448566 429.833836 38.99438 429.833836 38.520863 
C 429.833836 38.047347 429.106731 37.593161 427.812658 37.258334 
C 426.518585 36.923507 424.763198 36.735377 422.933102 36.735377 
C 421.103006 36.735377 419.347619 36.923507 418.053546 37.258334 
C 416.759472 37.593161 416.032367 38.047347 416.032367 38.520863 
C 416.032367 38.99438 416.759472 39.448566 418.053546 39.783393 
C 419.347619 40.11822 421.103006 40.30635 422.933102 40.30635 
z
" style="fill:#0000ff;opacity:0.2;stroke:#0000ff;stroke-linejoin:miter;stroke-width:2;"/>
   </g>
   <g id="[&quot;g_s&quot;:6,&quot;g_t&quot;:3,&quot;coords&quot;:[[263.0, -42.0],[270.0, -20.0]],&quot;certainty&quot;:6]">
    <path clip-path="url(#p50e39df2bc)" d="M 409.131633 51.529406 
C 410.961729 51.529406 412.717116 51.341276 414.011189 51.006449 
C 415.305262 50.671623 416.032367 50.217436 416.032367 49.74392 
C 416.032367 49.270403 415.305262 48.816217 414.011189 48.481391 
C 412.717116 48.146564 410.961729 47.958434 409.131633 47.958434 
C 407.301537 47.958434 405.54615 48.146564 404.252077 48.481391 
C 402.958003 48.816217 402.230899 49.270403 402.230899 49.74392 
C 402.230899 50.217436 402.958003 50.671623 404.252077 51.006449 
C 405.54615 51.341276 407.301537 51.529406 409.131633 51.529406 
z
" style="fill:#ff0000;opacity:0.2;stroke:#ff0000;stroke-linejoin:miter;stroke-width:2;"/>
   </g>
   <g id="patch_18">
    <path d="M 422.933102 38.520863 
Q 416.809037 43.500821 411.645045 47.700067 
" style="fill:none;opacity:0.5;stroke:#0000ff;stroke-linecap:round;stroke-width:1.75;"/>
    <path d="M 413.755194 47.917487 
L 411.645045 47.700067 
L 411.862465 45.589918 
" style="fill:none;opacity:0.5;stroke:#0000ff;stroke-linecap:round;stroke-width:1.75;"/>
   </g>
   <g id="[&quot;g_s&quot;:4,&quot;g_t&quot;:1,&quot;coords&quot;:[[183.0, -260.0],[159.0, -284.0]],&quot;certainty&quot;:11]">
    <path clip-path="url(#p50e39df2bc)" d="M 251.40056 164.015041 
C 254.537868 164.015041 257.547102 163.692533 259.765514 163.118544 
C 261.983925 162.544555 263.230391 161.76595 263.230391 160.954208 
C 263.230391 160.142465 261.983925 159.36386 259.765514 158.789872 
C 257.547102 158.215883 254.537868 157.893374 251.40056 157.893374 
C 248.263253 157.893374 245.254019 158.215883 243.035607 158.789872 
C 240.817195 159.36386 239.57073 160.142465 239.57073 160.954208 
C 239.57073 161.76595 240.817195 162.544555 243.035607 163.118544 
C 245.254019 163.692533 248.263253 164.015041 251.40056 164.015041 
z
" style="fill:#0000ff;opacity:0.2;stroke:#0000ff;stroke-linejoin:miter;stroke-width:2;"/>
   </g>
   <g id="[&quot;g_s&quot;:1,&quot;g_t&quot;:4,&quot;coords&quot;:[[159.0, -284.0],[183.0, -260.0]],&quot;certainty&quot;:11]">
    <path clip-path="url(#p50e39df2bc)" d="M 204.081239 176.258376 
C 207.218546 176.258376 210.22778 175.935867 212.446192 175.361878 
C 214.664603 174.78789 215.911069 174.009285 215.911069 173.197542 
C 215.911069 172.3858 214.664603 171.607195 212.446192 171.033206 
C 210.22778 170.459217 207.218546 170.136709 204.081239 170.136709 
C 200.943931 170.136709 197.934697 170.459217 195.716285 171.033206 
C 193.497874 171.607195 192.251408 172.3858 192.251408 173.197542 
C 192.251408 174.009285 193.497874 174.78789 195.716285 175.361878 
C 197.934697 175.935867 200.943931 176.258376 204.081239 176.258376 
z
" style="fill:#ff0000;opacity:0.2;stroke:#ff0000;stroke-linejoin:miter;stroke-width:2;"/>
   </g>
   <g id="patch_19">
    <path d="M 251.40056 160.954208 
Q 228.709871 166.825165 208.072873 172.164752 
" style="fill:none;opacity:0.5;stroke:#0000ff;stroke-linecap:round;stroke-width:3;"/>
    <path d="M 209.900787 173.241197 
L 208.072873 172.164752 
L 209.149317 170.336839 
" style="fill:none;opacity:0.5;stroke:#0000ff;stroke-linecap:round;stroke-width:3;"/>
   </g>
   <g id="[&quot;g_s&quot;:5,&quot;g_t&quot;:2,&quot;coords&quot;:[[270.0, -500.0],[263.0, -526.0]],&quot;certainty&quot;:6]">
    <path clip-path="url(#p50e39df2bc)" d="M 422.933102 285.173038 
C 424.763198 285.173038 426.518585 284.984908 427.812658 284.650082 
C 429.106731 284.315255 429.833836 283.861069 429.833836 283.387552 
C 429.833836 282.914036 429.106731 282.459849 427.812658 282.125023 
C 426.518585 281.790196 424.763198 281.602066 422.933102 281.602066 
C 421.103006 281.602066 419.347619 281.790196 418.053546 282.125023 
C 416.759472 282.459849 416.032367 282.914036 416.032367 283.387552 
C 416.032367 283.861069 416.759472 284.315255 418.053546 284.650082 
C 419.347619 284.984908 421.103006 285.173038 422.933102 285.173038 
z
" style="fill:#0000ff;opacity:0.2;stroke:#0000ff;stroke-linejoin:miter;stroke-width:2;"/>
   </g>
   <g id="[&quot;g_s&quot;:2,&quot;g_t&quot;:5,&quot;coords&quot;:[[263.0, -526.0],[270.0, -500.0]],&quot;certainty&quot;:6]">
    <path clip-path="url(#p50e39df2bc)" d="M 409.131633 298.436651 
C 410.961729 298.436651 412.717116 298.248521 414.011189 297.913694 
C 415.305262 297.578867 416.032367 297.124681 416.032367 296.651164 
C 416.032367 296.177648 415.305262 295.723462 414.011189 295.388635 
C 412.717116 295.053808 410.961729 294.865678 409.131633 294.865678 
C 407.301537 294.865678 405.54615 295.053808 404.252077 295.388635 
C 402.958003 295.723462 402.230899 296.177648 402.230899 296.651164 
C 402.230899 297.124681 402.958003 297.578867 404.252077 297.913694 
C 405.54615 298.248521 407.301537 298.436651 409.131633 298.436651 
z
" style="fill:#ff0000;opacity:0.2;stroke:#ff0000;stroke-linejoin:miter;stroke-width:2;"/>
   </g>
   <g id="patch_20">
    <path d="M 422.933102 283.387552 
Q 416.751755 289.328005 411.462622 294.411017 
" style="fill:none;opacity:0.5;stroke:#0000ff;stroke-linecap:round;stroke-width:1.75;"/>
    <path d="M 413.583523 294.453165 
L 411.462622 294.411017 
L 411.50477 292.290115 
" style="fill:none;opacity:0.5;stroke:#0000ff;stroke-linecap:round;stroke-width:1.75;"/>
   </g>
   <g id="[&quot;g_s&quot;:6,&quot;g_t&quot;:3,&quot;coords&quot;:[[256.0, -520.0],[253.0, -544.0]],&quot;certainty&quot;:11]">
    <path clip-path="url(#p50e39df2bc)" d="M 395.330164 296.651164 
C 398.467472 296.651164 401.476706 296.328656 403.695117 295.754667 
C 405.913529 295.180678 407.159995 294.402073 407.159995 293.590331 
C 407.159995 292.778588 405.913529 291.999983 403.695117 291.425995 
C 401.476706 290.852006 398.467472 290.529497 395.330164 290.529497 
C 392.192856 290.529497 389.183622 290.852006 386.965211 291.425995 
C 384.746799 291.999983 383.500334 292.778588 383.500334 293.590331 
C 383.500334 294.402073 384.746799 295.180678 386.965211 295.754667 
C 389.183622 296.328656 392.192856 296.651164 395.330164 296.651164 
z
" style="fill:#0000ff;opacity:0.2;stroke:#0000ff;stroke-linejoin:miter;stroke-width:2;"/>
   </g>
   <g id="[&quot;g_s&quot;:3,&quot;g_t&quot;:6,&quot;coords&quot;:[[253.0, -544.0],[256.0, -520.0]],&quot;certainty&quot;:11]">
    <path clip-path="url(#p50e39df2bc)" d="M 389.415249 308.894499 
C 392.552557 308.894499 395.561791 308.57199 397.780202 307.998002 
C 399.998614 307.424013 401.245079 306.645408 401.245079 305.833665 
C 401.245079 305.021923 399.998614 304.243318 397.780202 303.669329 
C 395.561791 303.09534 392.552557 302.772832 389.415249 302.772832 
C 386.277941 302.772832 383.268707 303.09534 381.050296 303.669329 
C 378.831884 304.243318 377.585418 305.021923 377.585418 305.833665 
C 377.585418 306.645408 378.831884 307.424013 381.050296 307.998002 
C 383.268707 308.57199 386.277941 308.894499 389.415249 308.894499 
z
" style="fill:#ff0000;opacity:0.2;stroke:#ff0000;stroke-linejoin:miter;stroke-width:2;"/>
   </g>
   <g id="patch_21">
    <path d="M 395.330164 293.590331 
Q 392.808094 298.810786 391.208815 302.121147 
" style="fill:none;opacity:0.5;stroke:#0000ff;stroke-linecap:round;stroke-width:3;"/>
    <path d="M 393.211967 301.423019 
L 391.208815 302.121147 
L 390.510687 300.117996 
" style="fill:none;opacity:0.5;stroke:#0000ff;stroke-linecap:round;stroke-width:3;"/>
   </g>
   <g id="[&quot;g_s&quot;:1,&quot;g_t&quot;:4,&quot;coords&quot;:[[159.0, -284.0],[183.0, -260.0]],&quot;certainty&quot;:12]">
    <path clip-path="url(#p50e39df2bc)" d="M 204.081239 176.513445 
C 207.479989 176.513445 210.739992 176.164061 213.143271 175.54224 
C 215.546551 174.920419 216.896888 174.07693 216.896888 173.197542 
C 216.896888 172.318154 215.546551 171.474666 213.143271 170.852845 
C 210.739992 170.231024 207.479989 169.881639 204.081239 169.881639 
C 200.682489 169.881639 197.422485 170.231024 195.019206 170.852845 
C 192.615927 171.474666 191.265589 172.318154 191.265589 173.197542 
C 191.265589 174.07693 192.615927 174.920419 195.019206 175.54224 
C 197.422485 176.164061 200.682489 176.513445 204.081239 176.513445 
z
" style="fill:#0000ff;opacity:0.2;stroke:#0000ff;stroke-linejoin:miter;stroke-width:2;"/>
   </g>
   <g id="[&quot;g_s&quot;:4,&quot;g_t&quot;:1,&quot;coords&quot;:[[183.0, -260.0],[159.0, -284.0]],&quot;certainty&quot;:12]">
    <path clip-path="url(#p50e39df2bc)" d="M 251.40056 164.270111 
C 254.79931 164.270111 258.059314 163.920726 260.462593 163.298905 
C 262.865872 162.677084 264.21621 161.833596 264.21621 160.954208 
C 264.21621 160.07482 262.865872 159.231331 260.462593 158.60951 
C 258.059314 157.987689 254.79931 157.638305 251.40056 157.638305 
C 248.00181 157.638305 244.741807 157.987689 242.338528 158.60951 
C 239.935248 159.231331 238.584911 160.07482 238.584911 160.954208 
C 238.584911 161.833596 239.935248 162.677084 242.338528 163.298905 
C 244.741807 163.920726 248.00181 164.270111 251.40056 164.270111 
z
" style="fill:#ff0000;opacity:0.2;stroke:#ff0000;stroke-linejoin:miter;stroke-width:2;"/>
   </g>
   <g id="patch_22">
    <path d="M 204.081239 173.197542 
Q 226.771928 167.326585 247.237785 162.031278 
" style="fill:none;opacity:0.5;stroke:#ff0000;stroke-linecap:round;stroke-width:3.25;"/>
    <path d="M 245.409871 160.954834 
L 247.237785 162.031278 
L 246.161341 163.859192 
" style="fill:none;opacity:0.5;stroke:#ff0000;stroke-linecap:round;stroke-width:3.25;"/>
   </g>
   <g id="[&quot;g_s&quot;:2,&quot;g_t&quot;:5,&quot;coords&quot;:[[263.0, -526.0],[270.0, -500.0]],&quot;certainty&quot;:6]">
    <path clip-path="url(#p50e39df2bc)" d="M 409.131633 298.436651 
C 410.961729 298.436651 412.717116 298.248521 414.011189 297.913694 
C 415.305262 297.578867 416.032367 297.124681 416.032367 296.651164 
C 416.032367 296.177648 415.305262 295.723462 414.011189 295.388635 
C 412.717116 295.053808 410.961729 294.865678 409.131633 294.865678 
C 407.301537 294.865678 405.54615 295.053808 404.252077 295.388635 
C 402.958003 295.723462 402.230899 296.177648 402.230899 296.651164 
C 402.230899 297.124681 402.958003 297.578867 404.252077 297.913694 
C 405.54615 298.248521 407.301537 298.436651 409.131633 298.436651 
z
" style="fill:#0000ff;opacity:0.2;stroke:#0000ff;stroke-linejoin:miter;stroke-width:2;"/>
   </g>
   <g id="[&quot;g_s&quot;:5,&quot;g_t&quot;:2,&quot;coords&quot;:[[270.0, -500.0],[263.0, -526.0]],&quot;certainty&quot;:6]">
    <path clip-path="url(#p50e39df2bc)" d="M 422.933102 285.173038 
C 424.763198 285.173038 426.518585 284.984908 427.812658 284.650082 
C 429.106731 284.315255 429.833836 283.861069 429.833836 283.387552 
C 429.833836 282.914036 429.106731 282.459849 427.812658 282.125023 
C 426.518585 281.790196 424.763198 281.602066 422.933102 281.602066 
C 421.103006 281.602066 419.347619 281.790196 418.053546 282.125023 
C 416.759472 282.459849 416.032367 282.914036 416.032367 283.387552 
C 416.032367 283.861069 416.759472 284.315255 418.053546 284.650082 
C 419.347619 284.984908 421.103006 285.173038 422.933102 285.173038 
z
" style="fill:#ff0000;opacity:0.2;stroke:#ff0000;stroke-linejoin:miter;stroke-width:2;"/>
   </g>
   <g id="patch_23">
    <path d="M 409.131633 296.651164 
Q 415.312979 290.710711 420.602113 285.6277 
" style="fill:none;opacity:0.5;stroke:#ff0000;stroke-linecap:round;stroke-width:1.75;"/>
    <path d="M 418.481212 285.585552 
L 420.602113 285.6277 
L 420.559965 287.748602 
" style="fill:none;opacity:0.5;stroke:#ff0000;stroke-linecap:round;stroke-width:1.75;"/>
   </g>
   <g id="[&quot;g_s&quot;:3,&quot;g_t&quot;:6,&quot;coords&quot;:[[253.0, -544.0],[256.0, -520.0]],&quot;certainty&quot;:10]">
    <path clip-path="url(#p50e39df2bc)" d="M 389.415249 308.639429 
C 392.291114 308.639429 395.049579 308.343796 397.083123 307.81764 
C 399.116667 307.291484 400.25926 306.577763 400.25926 305.833665 
C 400.25926 305.089568 399.116667 304.375847 397.083123 303.84969 
C 395.049579 303.323534 392.291114 303.027901 389.415249 303.027901 
C 386.539383 303.027901 383.780919 303.323534 381.747375 303.84969 
C 379.713831 304.375847 378.571238 305.089568 378.571238 305.833665 
C 378.571238 306.577763 379.713831 307.291484 381.747375 307.81764 
C 383.780919 308.343796 386.539383 308.639429 389.415249 308.639429 
z
" style="fill:#0000ff;opacity:0.2;stroke:#0000ff;stroke-linejoin:miter;stroke-width:2;"/>
   </g>
   <g id="[&quot;g_s&quot;:6,&quot;g_t&quot;:3,&quot;coords&quot;:[[256.0, -520.0],[253.0, -544.0]],&quot;certainty&quot;:10]">
    <path clip-path="url(#p50e39df2bc)" d="M 395.330164 296.396095 
C 398.20603 296.396095 400.964494 296.100462 402.998038 295.574306 
C 405.031582 295.048149 406.174175 294.334428 406.174175 293.590331 
C 406.174175 292.846234 405.031582 292.132512 402.998038 291.606356 
C 400.964494 291.0802 398.20603 290.784567 395.330164 290.784567 
C 392.454299 290.784567 389.695834 291.0802 387.66229 291.606356 
C 385.628746 292.132512 384.486153 292.846234 384.486153 293.590331 
C 384.486153 294.334428 385.628746 295.048149 387.66229 295.574306 
C 389.695834 296.100462 392.454299 296.396095 395.330164 296.396095 
z
" style="fill:#ff0000;opacity:0.2;stroke:#ff0000;stroke-linejoin:miter;stroke-width:2;"/>
   </g>
   <g id="patch_24">
    <path d="M 389.415249 305.833665 
Q 391.937319 300.61321 393.613497 297.143674 
" style="fill:none;opacity:0.5;stroke:#ff0000;stroke-linecap:round;stroke-width:2.75;"/>
    <path d="M 391.610346 297.841802 
L 393.613497 297.143674 
L 394.311625 299.146826 
" style="fill:none;opacity:0.5;stroke:#ff0000;stroke-linecap:round;stroke-width:2.75;"/>
   </g>
   <g id="[&quot;g_s&quot;:4,&quot;g_t&quot;:1,&quot;coords&quot;:[[93.0, -284.0],[86.0, -260.0]],&quot;certainty&quot;:10]">
    <path clip-path="url(#p50e39df2bc)" d="M 73.953104 176.003306 
C 76.828969 176.003306 79.587434 175.707673 81.620978 175.181517 
C 83.654521 174.655361 84.797115 173.94164 84.797115 173.197542 
C 84.797115 172.453445 83.654521 171.739724 81.620978 171.213567 
C 79.587434 170.687411 76.828969 170.391778 73.953104 170.391778 
C 71.077238 170.391778 68.318774 170.687411 66.28523 171.213567 
C 64.251686 171.739724 63.109092 172.453445 63.109092 173.197542 
C 63.109092 173.94164 64.251686 174.655361 66.28523 175.181517 
C 68.318774 175.707673 71.077238 176.003306 73.953104 176.003306 
z
" style="fill:#0000ff;opacity:0.2;stroke:#0000ff;stroke-linejoin:miter;stroke-width:2;"/>
   </g>
   <g id="[&quot;g_s&quot;:1,&quot;g_t&quot;:4,&quot;coords&quot;:[[86.0, -260.0],[93.0, -284.0]],&quot;certainty&quot;:10]">
    <path clip-path="url(#p50e39df2bc)" d="M 60.151635 163.759972 
C 63.0275 163.759972 65.785965 163.464339 67.819509 162.938183 
C 69.853053 162.412026 70.995646 161.698305 70.995646 160.954208 
C 70.995646 160.21011 69.853053 159.496389 67.819509 158.970233 
C 65.785965 158.444077 63.0275 158.148444 60.151635 158.148444 
C 57.275769 158.148444 54.517305 158.444077 52.483761 158.970233 
C 50.450217 159.496389 49.307624 160.21011 49.307624 160.954208 
C 49.307624 161.698305 50.450217 162.412026 52.483761 162.938183 
C 54.517305 163.464339 57.275769 163.759972 60.151635 163.759972 
z
" style="fill:#ff0000;opacity:0.2;stroke:#ff0000;stroke-linejoin:miter;stroke-width:2;"/>
   </g>
   <g id="patch_25">
    <path d="M 73.953104 173.197542 
Q 67.802083 167.740949 63.105721 163.574788 
" style="fill:none;opacity:0.5;stroke:#ff0000;stroke-linecap:round;stroke-width:2.75;"/>
    <path d="M 63.232403 165.692323 
L 63.105721 163.574788 
L 65.223255 163.448107 
" style="fill:none;opacity:0.5;stroke:#ff0000;stroke-linecap:round;stroke-width:2.75;"/>
   </g>
   <g id="[&quot;g_s&quot;:5,&quot;g_t&quot;:2,&quot;coords&quot;:[[253.0, -24.0],[256.0, 0.0]],&quot;certainty&quot;:7]">
    <path clip-path="url(#p50e39df2bc)" d="M 389.415249 42.601975 
C 391.506787 42.601975 393.512943 42.386969 394.991884 42.00431 
C 396.470825 41.621651 397.301803 41.102581 397.301803 40.561419 
C 397.301803 40.020257 396.470825 39.501187 394.991884 39.118528 
C 393.512943 38.735869 391.506787 38.520863 389.415249 38.520863 
C 387.32371 38.520863 385.317554 38.735869 383.838613 39.118528 
C 382.359672 39.501187 381.528695 40.020257 381.528695 40.561419 
C 381.528695 41.102581 382.359672 41.621651 383.838613 42.00431 
C 385.317554 42.386969 387.32371 42.601975 389.415249 42.601975 
z
" style="fill:#0000ff;opacity:0.2;stroke:#0000ff;stroke-linejoin:miter;stroke-width:2;"/>
   </g>
   <g id="[&quot;g_s&quot;:2,&quot;g_t&quot;:5,&quot;coords&quot;:[[256.0, 0.0],[253.0, -24.0]],&quot;certainty&quot;:7]">
    <path clip-path="url(#p50e39df2bc)" d="M 395.330164 30.35864 
C 397.421703 30.35864 399.427859 30.143635 400.9068 29.760975 
C 402.385741 29.378316 403.216718 28.859246 403.216718 28.318085 
C 403.216718 27.776923 402.385741 27.257853 400.9068 26.875194 
C 399.427859 26.492535 397.421703 26.277529 395.330164 26.277529 
C 393.238626 26.277529 391.23247 26.492535 389.753529 26.875194 
C 388.274588 27.257853 387.44361 27.776923 387.44361 28.318085 
C 387.44361 28.859246 388.274588 29.378316 389.753529 29.760975 
C 391.23247 30.143635 393.238626 30.35864 395.330164 30.35864 
z
" style="fill:#ff0000;opacity:0.2;stroke:#ff0000;stroke-linejoin:miter;stroke-width:2;"/>
   </g>
   <g id="patch_26">
    <path d="M 389.415249 40.561419 
Q 391.937319 35.340964 393.844195 31.393905 
" style="fill:none;opacity:0.5;stroke:#ff0000;stroke-linecap:round;stroke-width:2;"/>
    <path d="M 391.841043 32.092033 
L 393.844195 31.393905 
L 394.542323 33.397057 
" style="fill:none;opacity:0.5;stroke:#ff0000;stroke-linecap:round;stroke-width:2;"/>
   </g>
   <g id="[&quot;g_s&quot;:6,&quot;g_t&quot;:3,&quot;coords&quot;:[[263.0, -42.0],[270.0, -20.0]],&quot;certainty&quot;:6]">
    <path clip-path="url(#p50e39df2bc)" d="M 409.131633 51.529406 
C 410.961729 51.529406 412.717116 51.341276 414.011189 51.006449 
C 415.305262 50.671623 416.032367 50.217436 416.032367 49.74392 
C 416.032367 49.270403 415.305262 48.816217 414.011189 48.481391 
C 412.717116 48.146564 410.961729 47.958434 409.131633 47.958434 
C 407.301537 47.958434 405.54615 48.146564 404.252077 48.481391 
C 402.958003 48.816217 402.230899 49.270403 402.230899 49.74392 
C 402.230899 50.217436 402.958003 50.671623 404.252077 51.006449 
C 405.54615 51.341276 407.301537 51.529406 409.131633 51.529406 
z
" style="fill:#0000ff;opacity:0.2;stroke:#0000ff;stroke-linejoin:miter;stroke-width:2;"/>
   </g>
   <g id="[&quot;g_s&quot;:3,&quot;g_t&quot;:6,&quot;coords&quot;:[[270.0, -20.0],[263.0, -42.0]],&quot;certainty&quot;:6]">
    <path clip-path="url(#p50e39df2bc)" d="M 422.933102 40.30635 
C 424.763198 40.30635 426.518585 40.11822 427.812658 39.783393 
C 429.106731 39.448566 429.833836 38.99438 429.833836 38.520863 
C 429.833836 38.047347 429.106731 37.593161 427.812658 37.258334 
C 426.518585 36.923507 424.763198 36.735377 422.933102 36.735377 
C 421.103006 36.735377 419.347619 36.923507 418.053546 37.258334 
C 416.759472 37.593161 416.032367 38.047347 416.032367 38.520863 
C 416.032367 38.99438 416.759472 39.448566 418.053546 39.783393 
C 419.347619 40.11822 421.103006 40.30635 422.933102 40.30635 
z
" style="fill:#ff0000;opacity:0.2;stroke:#ff0000;stroke-linejoin:miter;stroke-width:2;"/>
   </g>
   <g id="patch_27">
    <path d="M 409.131633 49.74392 
Q 415.255698 44.763963 420.419689 40.564716 
" style="fill:none;opacity:0.5;stroke:#ff0000;stroke-linecap:round;stroke-width:1.75;"/>
    <path d="M 418.309541 40.347296 
L 420.419689 40.564716 
L 420.202269 42.674865 
" style="fill:none;opacity:0.5;stroke:#ff0000;stroke-linecap:round;stroke-width:1.75;"/>
   </g>
   <g id="patch_28">
    <path clip-path="url(#p50e39df2bc)" d="M 67.052369 169.62657 
C 69.666792 169.62657 72.174487 169.357812 74.023164 168.879489 
C 75.87184 168.401165 76.910561 167.752327 76.910561 167.075875 
C 76.910561 166.399423 75.87184 165.750585 74.023164 165.272261 
C 72.174487 164.793938 69.666792 164.52518 67.052369 164.52518 
C 64.437946 164.52518 61.930251 164.793938 60.081575 165.272261 
C 58.232898 165.750585 57.194177 166.399423 57.194177 167.075875 
C 57.194177 167.752327 58.232898 168.401165 60.081575 168.879489 
C 61.930251 169.357812 64.437946 169.62657 67.052369 169.62657 
z
" style="fill:#008000;opacity:0.2;stroke:#008000;stroke-linejoin:miter;stroke-width:2;"/>
   </g>
   <g id="patch_29">
    <path clip-path="url(#p50e39df2bc)" d="M 392.372706 36.990447 
C 394.98713 36.990447 397.494825 36.721689 399.343501 36.243365 
C 401.192177 35.765042 402.230899 35.116204 402.230899 34.439752 
C 402.230899 33.7633 401.192177 33.114462 399.343501 32.636138 
C 397.494825 32.157815 394.98713 31.889057 392.372706 31.889057 
C 389.758283 31.889057 387.250588 32.157815 385.401912 32.636138 
C 383.553236 33.114462 382.514514 33.7633 382.514514 34.439752 
C 382.514514 35.116204 383.553236 35.765042 385.401912 36.243365 
C 387.250588 36.721689 389.758283 36.990447 392.372706 36.990447 
z
" style="fill:#008000;opacity:0.2;stroke:#008000;stroke-linejoin:miter;stroke-width:2;"/>
   </g>
   <g id="patch_30">
    <path clip-path="url(#p50e39df2bc)" d="M 416.032367 46.683086 
C 418.64679 46.683086 421.154486 46.414329 423.003162 45.936005 
C 424.851838 45.457681 425.890559 44.808844 425.890559 44.132392 
C 425.890559 43.45594 424.851838 42.807102 423.003162 42.328778 
C 421.154486 41.850454 418.64679 41.581697 416.032367 41.581697 
C 413.417944 41.581697 410.910249 41.850454 409.061573 42.328778 
C 407.212897 42.807102 406.174175 43.45594 406.174175 44.132392 
C 406.174175 44.808844 407.212897 45.457681 409.061573 45.936005 
C 410.910249 46.414329 413.417944 46.683086 416.032367 46.683086 
z
" style="fill:#008000;opacity:0.2;stroke:#008000;stroke-linejoin:miter;stroke-width:2;"/>
   </g>
   <g id="patch_31">
    <path clip-path="url(#p50e39df2bc)" d="M 227.740899 169.62657 
C 230.355323 169.62657 232.863018 169.357812 234.711694 168.879489 
C 236.56037 168.401165 237.599091 167.752327 237.599091 167.075875 
C 237.599091 166.399423 236.56037 165.750585 234.711694 165.272261 
C 232.863018 164.793938 230.355323 164.52518 227.740899 164.52518 
C 225.126476 164.52518 222.618781 164.793938 220.770105 165.272261 
C 218.921429 165.750585 217.882707 166.399423 217.882707 167.075875 
C 217.882707 167.752327 218.921429 168.401165 220.770105 168.879489 
C 222.618781 169.357812 225.126476 169.62657 227.740899 169.62657 
z
" style="fill:#008000;opacity:0.2;stroke:#008000;stroke-linejoin:miter;stroke-width:2;"/>
   </g>
   <g id="patch_32">
    <path clip-path="url(#p50e39df2bc)" d="M 416.032367 292.570053 
C 418.64679 292.570053 421.154486 292.301296 423.003162 291.822972 
C 424.851838 291.344648 425.890559 290.69581 425.890559 290.019358 
C 425.890559 289.342906 424.851838 288.694069 423.003162 288.215745 
C 421.154486 287.737421 418.64679 287.468664 416.032367 287.468664 
C 413.417944 287.468664 410.910249 287.737421 409.061573 288.215745 
C 407.212897 288.694069 406.174175 289.342906 406.174175 290.019358 
C 406.174175 290.69581 407.212897 291.344648 409.061573 291.822972 
C 410.910249 292.301296 413.417944 292.570053 416.032367 292.570053 
z
" style="fill:#008000;opacity:0.2;stroke:#008000;stroke-linejoin:miter;stroke-width:2;"/>
   </g>
   <g id="patch_33">
    <path clip-path="url(#p50e39df2bc)" d="M 392.372706 302.262693 
C 394.98713 302.262693 397.494825 301.993935 399.343501 301.515612 
C 401.192177 301.037288 402.230899 300.38845 402.230899 299.711998 
C 402.230899 299.035546 401.192177 298.386708 399.343501 297.908385 
C 397.494825 297.430061 394.98713 297.161303 392.372706 297.161303 
C 389.758283 297.161303 387.250588 297.430061 385.401912 297.908385 
C 383.553236 298.386708 382.514514 299.035546 382.514514 299.711998 
C 382.514514 300.38845 383.553236 301.037288 385.401912 301.515612 
C 387.250588 301.993935 389.758283 302.262693 392.372706 302.262693 
z
" style="fill:#008000;opacity:0.2;stroke:#008000;stroke-linejoin:miter;stroke-width:2;"/>
   </g>
   <g id="patch_34">
    <path clip-path="url(#p50e39df2bc)" d="M 60.151635 171.156986 
C 70.609327 171.156986 80.640107 170.081957 88.034813 168.168662 
C 95.429518 166.255366 99.584403 163.660016 99.584403 160.954208 
C 99.584403 158.248399 95.429518 155.653049 88.034813 153.739754 
C 80.640107 151.826458 70.609327 150.751429 60.151635 150.751429 
C 49.693942 150.751429 39.663162 151.826458 32.268457 153.739754 
C 24.873752 155.653049 20.718867 158.248399 20.718867 160.954208 
C 20.718867 163.660016 24.873752 166.255366 32.268457 168.168662 
C 39.663162 170.081957 49.693942 171.156986 60.151635 171.156986 
z
" style="fill:none;opacity:0.2;stroke:#ff0000;stroke-linejoin:miter;stroke-width:2;"/>
   </g>
   <g id="patch_35">
    <path clip-path="url(#p50e39df2bc)" d="M 204.081239 183.400321 
C 214.538931 183.400321 224.569711 182.325292 231.964416 180.411996 
C 239.359121 178.498701 243.514007 175.903351 243.514007 173.197542 
C 243.514007 170.491734 239.359121 167.896384 231.964416 165.983088 
C 224.569711 164.069793 214.538931 162.994764 204.081239 162.994764 
C 193.623546 162.994764 183.592766 164.069793 176.198061 165.983088 
C 168.803356 167.896384 164.64847 170.491734 164.64847 173.197542 
C 164.64847 175.903351 168.803356 178.498701 176.198061 180.411996 
C 183.592766 182.325292 193.623546 183.400321 204.081239 183.400321 
z
" style="fill:none;opacity:0.2;stroke:#0000ff;stroke-linejoin:miter;stroke-width:2;"/>
   </g>
   <g id="patch_36">
    <path clip-path="url(#p50e39df2bc)" d="M 60.151635 166.055597 
C 65.380481 166.055597 70.395871 165.518083 74.093224 164.561435 
C 77.790576 163.604787 79.868019 162.307112 79.868019 160.954208 
C 79.868019 159.601304 77.790576 158.303629 74.093224 157.346981 
C 70.395871 156.390333 65.380481 155.852818 60.151635 155.852818 
C 54.922789 155.852818 49.907398 156.390333 46.210046 157.346981 
C 42.512693 158.303629 40.435251 159.601304 40.435251 160.954208 
C 40.435251 162.307112 42.512693 163.604787 46.210046 164.561435 
C 49.907398 165.518083 54.922789 166.055597 60.151635 166.055597 
z
" style="fill:none;opacity:0.2;stroke:#008000;stroke-linejoin:miter;stroke-width:2;"/>
   </g>
   <g id="patch_37">
    <path clip-path="url(#p50e39df2bc)" d="M 73.953104 178.298932 
C 79.18195 178.298932 84.19734 177.761417 87.894693 176.804769 
C 91.592045 175.848121 93.669488 174.550446 93.669488 173.197542 
C 93.669488 171.844638 91.592045 170.546963 87.894693 169.590315 
C 84.19734 168.633667 79.18195 168.096153 73.953104 168.096153 
C 68.724257 168.096153 63.708867 168.633667 60.011515 169.590315 
C 56.314162 170.546963 54.23672 171.844638 54.23672 173.197542 
C 54.23672 174.550446 56.314162 175.848121 60.011515 176.804769 
C 63.708867 177.761417 68.724257 178.298932 73.953104 178.298932 
z
" style="fill:none;opacity:0.2;stroke:#008000;stroke-linejoin:miter;stroke-width:2;"/>
   </g>
   <g id="patch_38">
    <path d="M 67.052369 167.075875 
Q 229.712538 100.757813 392.372706 34.439752 
" style="fill:none;opacity:0.5;stroke:#008000;stroke-linecap:round;stroke-width:2;"/>
   </g>
   <g id="patch_39">
    <path d="M 61.209568 161.892705 
Q 66.302656 166.410801 71.395743 170.928898 
" style="fill:none;opacity:0.5;stroke:#800080;stroke-linecap:round;stroke-width:2;"/>
    <path d="M 61.33625 164.010239 
L 61.209568 161.892705 
L 63.327103 161.766023 
" style="fill:none;opacity:0.5;stroke:#800080;stroke-linecap:round;stroke-width:2;"/>
    <path d="M 71.269061 168.811364 
L 71.395743 170.928898 
L 69.278208 171.05558 
" style="fill:none;opacity:0.5;stroke:#800080;stroke-linecap:round;stroke-width:2;"/>
   </g>
   <g id="patch_40">
    <path d="M 392.372706 34.439752 
Q 404.202537 39.286072 416.032367 44.132392 
" style="fill:none;opacity:0.5;stroke:#008000;stroke-linecap:round;stroke-width:2;"/>
   </g>
   <g id="patch_41">
    <path d="M 394.71497 29.59148 
Q 392.808094 33.53854 390.901218 37.485599 
" style="fill:none;opacity:0.5;stroke:#800080;stroke-linecap:round;stroke-width:2;"/>
    <path d="M 392.711818 30.289608 
L 394.71497 29.59148 
L 395.413098 31.594632 
" style="fill:none;opacity:0.5;stroke:#800080;stroke-linecap:round;stroke-width:2;"/>
    <path d="M 392.90437 36.787471 
L 390.901218 37.485599 
L 390.20309 35.482447 
" style="fill:none;opacity:0.5;stroke:#800080;stroke-linecap:round;stroke-width:2;"/>
   </g>
   <g id="patch_42">
    <path d="M 416.032367 44.132392 
Q 321.886633 105.604133 227.740899 167.075875 
" style="fill:none;opacity:0.5;stroke:#008000;stroke-linecap:round;stroke-width:2;"/>
   </g>
   <g id="patch_43">
    <path d="M 421.835875 39.413104 
Q 416.809037 43.500821 411.782199 47.588537 
" style="fill:none;opacity:0.5;stroke:#800080;stroke-linecap:round;stroke-width:2;"/>
    <path d="M 419.725726 39.195684 
L 421.835875 39.413104 
L 421.618455 41.523253 
" style="fill:none;opacity:0.5;stroke:#800080;stroke-linecap:round;stroke-width:2;"/>
    <path d="M 413.892348 47.805957 
L 411.782199 47.588537 
L 411.999619 45.478388 
" style="fill:none;opacity:0.5;stroke:#800080;stroke-linecap:round;stroke-width:2;"/>
   </g>
   <g id="patch_44">
    <path d="M 227.740899 167.075875 
Q 321.886633 228.547617 416.032367 290.019358 
" style="fill:none;opacity:0.5;stroke:#008000;stroke-linecap:round;stroke-width:2;"/>
   </g>
   <g id="patch_45">
    <path d="M 250.031433 161.308454 
Q 228.709871 166.825165 207.388309 172.341875 
" style="fill:none;opacity:0.5;stroke:#800080;stroke-linecap:round;stroke-width:2;"/>
    <path d="M 248.203519 160.23201 
L 250.031433 161.308454 
L 248.954989 163.136367 
" style="fill:none;opacity:0.5;stroke:#800080;stroke-linecap:round;stroke-width:2;"/>
    <path d="M 209.216223 173.41832 
L 207.388309 172.341875 
L 208.464753 170.513962 
" style="fill:none;opacity:0.5;stroke:#800080;stroke-linecap:round;stroke-width:2;"/>
   </g>
   <g id="patch_46">
    <path d="M 416.032367 290.019358 
Q 404.202537 294.865678 392.372706 299.711998 
" style="fill:none;opacity:0.5;stroke:#008000;stroke-linecap:round;stroke-width:2;"/>
   </g>
   <g id="patch_47">
    <path d="M 421.91343 284.367486 
Q 416.751755 289.328005 411.590081 294.288525 
" style="fill:none;opacity:0.5;stroke:#800080;stroke-linecap:round;stroke-width:2;"/>
    <path d="M 419.792529 284.325338 
L 421.91343 284.367486 
L 421.871282 286.488388 
" style="fill:none;opacity:0.5;stroke:#800080;stroke-linecap:round;stroke-width:2;"/>
    <path d="M 413.710982 294.330673 
L 411.590081 294.288525 
L 411.632229 292.167623 
" style="fill:none;opacity:0.5;stroke:#800080;stroke-linecap:round;stroke-width:2;"/>
   </g>
   <g id="patch_48">
    <path d="M 392.372706 299.711998 
Q 229.712538 233.393937 67.052369 167.075875 
" style="fill:none;opacity:0.5;stroke:#008000;stroke-linecap:round;stroke-width:2;"/>
   </g>
   <g id="patch_49">
    <path d="M 394.71497 294.863726 
Q 392.808094 298.810786 390.901218 302.757845 
" style="fill:none;opacity:0.5;stroke:#800080;stroke-linecap:round;stroke-width:2;"/>
    <path d="M 392.711818 295.561855 
L 394.71497 294.863726 
L 395.413098 296.866878 
" style="fill:none;opacity:0.5;stroke:#800080;stroke-linecap:round;stroke-width:2;"/>
    <path d="M 392.90437 302.059717 
L 390.901218 302.757845 
L 390.20309 300.754693 
" style="fill:none;opacity:0.5;stroke:#800080;stroke-linecap:round;stroke-width:2;"/>
   </g>
   <g id="line2d_1">
    <path clip-path="url(#p50e39df2bc)" d="M 60.151635 160.954208 
L 395.330164 28.318085 
L 422.933102 38.520863 
L 251.40056 160.954208 
L 422.933102 283.387552 
L 395.330164 293.590331 
" style="fill:none;stroke:#ff0000;stroke-linecap:square;stroke-width:0.2;"/>
   </g>
   <g id="line2d_2">
    <path clip-path="url(#p50e39df2bc)" d="M 204.081239 173.197542 
L 409.131633 296.651164 
L 389.415249 305.833665 
L 73.953104 173.197542 
L 389.415249 40.561419 
L 409.131633 49.74392 
" style="fill:none;stroke:#0000ff;stroke-linecap:square;stroke-width:0.2;"/>
   </g>
  </g>
 </g>
 <defs>
  <clipPath id="p50e39df2bc">
   <rect height="307.51175" width="409.903625" x="37.576375" y="13.32"/>
  </clipPath>
 </defs>
</svg>
