<?xml version="1.0" encoding="utf-8" standalone="no"?>
<!DOCTYPE svg PUBLIC "-//W3C//DTD SVG 1.1//EN"
  "http://www.w3.org/Graphics/SVG/1.1/DTD/svg11.dtd">
<!-- Created with matplotlib (http://matplotlib.org/) -->
<svg height="345.6pt" version="1.1" viewBox="0 0 460.8 345.6" width="460.8pt" xmlns="http://www.w3.org/2000/svg" xmlns:xlink="http://www.w3.org/1999/xlink">
 <defs>
  <style type="text/css">
*{stroke-linecap:butt;stroke-linejoin:round;}
  </style>
 </defs>
 <g id="figure_1">
  <g id="patch_1">
   <path d="M 0 345.6 
L 460.8 345.6 
L 460.8 0 
L 0 0 
z
" style="fill:#ffffff;"/>
  </g>
  <g id="axes_1">
   <g id="patch_2">
    <path clip-path="url(#pb5b3caf56d)" d="M 424.90474 167.607351 
C 425.950509 167.607351 426.953587 167.495351 427.693058 167.296019 
C 428.432529 167.096687 428.848017 166.826297 428.848017 166.544399 
C 428.848017 166.262502 428.432529 165.992111 427.693058 165.79278 
C 426.953587 165.593448 425.950509 165.481448 424.90474 165.481448 
C 423.858971 165.481448 422.855893 165.593448 422.116422 165.79278 
C 421.376952 165.992111 420.961463 166.262502 420.961463 166.544399 
C 420.961463 166.826297 421.376952 167.096687 422.116422 167.296019 
C 422.855893 167.495351 423.858971 167.607351 424.90474 167.607351 
z
" style="fill:#ff0000;opacity:0.2;stroke:#ff0000;stroke-linejoin:miter;stroke-width:2;"/>
   </g>
   <g id="patch_3">
    <path clip-path="url(#pb5b3caf56d)" d="M 89.726211 305.790992 
C 90.77198 305.790992 91.775058 305.678993 92.514529 305.479661 
C 93.253999 305.280329 93.669488 305.009939 93.669488 304.728041 
C 93.669488 304.446143 93.253999 304.175753 92.514529 303.976421 
C 91.775058 303.777089 90.77198 303.66509 89.726211 303.66509 
C 88.680442 303.66509 87.677364 303.777089 86.937893 303.976421 
C 86.198423 304.175753 85.782934 304.446143 85.782934 304.728041 
C 85.782934 305.009939 86.198423 305.280329 86.937893 305.479661 
C 87.677364 305.678993 88.680442 305.790992 89.726211 305.790992 
z
" style="fill:#ff0000;opacity:0.2;stroke:#ff0000;stroke-linejoin:miter;stroke-width:2;"/>
   </g>
   <g id="patch_4">
    <path clip-path="url(#pb5b3caf56d)" d="M 62.123273 295.161481 
C 63.169042 295.161481 64.17212 295.049482 64.911591 294.85015 
C 65.651061 294.650818 66.06655 294.380428 66.06655 294.09853 
C 66.06655 293.816632 65.651061 293.546242 64.911591 293.34691 
C 64.17212 293.147578 63.169042 293.035579 62.123273 293.035579 
C 61.077504 293.035579 60.074426 293.147578 59.334955 293.34691 
C 58.595485 293.546242 58.179996 293.816632 58.179996 294.09853 
C 58.179996 294.380428 58.595485 294.650818 59.334955 294.85015 
C 60.074426 295.049482 61.077504 295.161481 62.123273 295.161481 
z
" style="fill:#ff0000;opacity:0.2;stroke:#ff0000;stroke-linejoin:miter;stroke-width:2;"/>
   </g>
   <g id="patch_5">
    <path clip-path="url(#pb5b3caf56d)" d="M 233.655815 167.607351 
C 234.701584 167.607351 235.704662 167.495351 236.444132 167.296019 
C 237.183603 167.096687 237.599091 166.826297 237.599091 166.544399 
C 237.599091 166.262502 237.183603 165.992111 236.444132 165.79278 
C 235.704662 165.593448 234.701584 165.481448 233.655815 165.481448 
C 232.610045 165.481448 231.606967 165.593448 230.867497 165.79278 
C 230.128026 165.992111 229.712538 166.262502 229.712538 166.544399 
C 229.712538 166.826297 230.128026 167.096687 230.867497 167.296019 
C 231.606967 167.495351 232.610045 167.607351 233.655815 167.607351 
z
" style="fill:#ff0000;opacity:0.2;stroke:#ff0000;stroke-linejoin:miter;stroke-width:2;"/>
   </g>
   <g id="patch_6">
    <path clip-path="url(#pb5b3caf56d)" d="M 62.123273 40.05322 
C 63.169042 40.05322 64.17212 39.941221 64.911591 39.741889 
C 65.651061 39.542557 66.06655 39.272167 66.06655 38.990269 
C 66.06655 38.708371 65.651061 38.437981 64.911591 38.238649 
C 64.17212 38.039317 63.169042 37.927318 62.123273 37.927318 
C 61.077504 37.927318 60.074426 38.039317 59.334955 38.238649 
C 58.595485 38.437981 58.179996 38.708371 58.179996 38.990269 
C 58.179996 39.272167 58.595485 39.542557 59.334955 39.741889 
C 60.074426 39.941221 61.077504 40.05322 62.123273 40.05322 
z
" style="fill:#ff0000;opacity:0.2;stroke:#ff0000;stroke-linejoin:miter;stroke-width:2;"/>
   </g>
   <g id="patch_7">
    <path clip-path="url(#pb5b3caf56d)" d="M 89.726211 29.423709 
C 90.77198 29.423709 91.775058 29.31171 92.514529 29.112378 
C 93.253999 28.913046 93.669488 28.642656 93.669488 28.360758 
C 93.669488 28.07886 93.253999 27.80847 92.514529 27.609138 
C 91.775058 27.409806 90.77198 27.297807 89.726211 27.297807 
C 88.680442 27.297807 87.677364 27.409806 86.937893 27.609138 
C 86.198423 27.80847 85.782934 28.07886 85.782934 28.360758 
C 85.782934 28.642656 86.198423 28.913046 86.937893 29.112378 
C 87.677364 29.31171 88.680442 29.423709 89.726211 29.423709 
z
" style="fill:#ff0000;opacity:0.2;stroke:#ff0000;stroke-linejoin:miter;stroke-width:2;"/>
   </g>
   <g id="patch_8">
    <path clip-path="url(#pb5b3caf56d)" d="M 411.103271 168.670302 
C 412.149041 168.670302 413.152119 168.558302 413.891589 168.35897 
C 414.63106 168.159639 415.046548 167.889248 415.046548 167.607351 
C 415.046548 167.325453 414.63106 167.055063 413.891589 166.855731 
C 413.152119 166.656399 412.149041 166.544399 411.103271 166.544399 
C 410.057502 166.544399 409.054424 166.656399 408.314954 166.855731 
C 407.575483 167.055063 407.159995 167.325453 407.159995 167.607351 
C 407.159995 167.889248 407.575483 168.159639 408.314954 168.35897 
C 409.054424 168.558302 410.057502 168.670302 411.103271 168.670302 
z
" style="fill:#0000ff;opacity:0.2;stroke:#0000ff;stroke-linejoin:miter;stroke-width:2;"/>
   </g>
   <g id="patch_9">
    <path clip-path="url(#pb5b3caf56d)" d="M 95.641126 306.853943 
C 96.686895 306.853943 97.689973 306.741944 98.429444 306.542612 
C 99.168914 306.34328 99.584403 306.07289 99.584403 305.790992 
C 99.584403 305.509094 99.168914 305.238704 98.429444 305.039372 
C 97.689973 304.84004 96.686895 304.728041 95.641126 304.728041 
C 94.595357 304.728041 93.592279 304.84004 92.852808 305.039372 
C 92.113338 305.238704 91.697849 305.509094 91.697849 305.790992 
C 91.697849 306.07289 92.113338 306.34328 92.852808 306.542612 
C 93.592279 306.741944 94.595357 306.853943 95.641126 306.853943 
z
" style="fill:#0000ff;opacity:0.2;stroke:#0000ff;stroke-linejoin:miter;stroke-width:2;"/>
   </g>
   <g id="patch_10">
    <path clip-path="url(#pb5b3caf56d)" d="M 75.924742 297.287383 
C 76.970511 297.287383 77.973589 297.175384 78.71306 296.976052 
C 79.45253 296.77672 79.868019 296.50633 79.868019 296.224432 
C 79.868019 295.942534 79.45253 295.672144 78.71306 295.472812 
C 77.973589 295.27348 76.970511 295.161481 75.924742 295.161481 
C 74.878973 295.161481 73.875895 295.27348 73.136424 295.472812 
C 72.396954 295.672144 71.981465 295.942534 71.981465 296.224432 
C 71.981465 296.50633 72.396954 296.77672 73.136424 296.976052 
C 73.875895 297.175384 74.878973 297.287383 75.924742 297.287383 
z
" style="fill:#0000ff;opacity:0.2;stroke:#0000ff;stroke-linejoin:miter;stroke-width:2;"/>
   </g>
   <g id="patch_11">
    <path clip-path="url(#pb5b3caf56d)" d="M 280.975136 168.670302 
C 282.020906 168.670302 283.023984 168.558302 283.763454 168.35897 
C 284.502925 168.159639 284.918413 167.889248 284.918413 167.607351 
C 284.918413 167.325453 284.502925 167.055063 283.763454 166.855731 
C 283.023984 166.656399 282.020906 166.544399 280.975136 166.544399 
C 279.929367 166.544399 278.926289 166.656399 278.186819 166.855731 
C 277.447348 167.055063 277.03186 167.325453 277.03186 167.607351 
C 277.03186 167.889248 277.447348 168.159639 278.186819 168.35897 
C 278.926289 168.558302 279.929367 168.670302 280.975136 168.670302 
z
" style="fill:#0000ff;opacity:0.2;stroke:#0000ff;stroke-linejoin:miter;stroke-width:2;"/>
   </g>
   <g id="patch_12">
    <path clip-path="url(#pb5b3caf56d)" d="M 75.924742 40.05322 
C 76.970511 40.05322 77.973589 39.941221 78.71306 39.741889 
C 79.45253 39.542557 79.868019 39.272167 79.868019 38.990269 
C 79.868019 38.708371 79.45253 38.437981 78.71306 38.238649 
C 77.973589 38.039317 76.970511 37.927318 75.924742 37.927318 
C 74.878973 37.927318 73.875895 38.039317 73.136424 38.238649 
C 72.396954 38.437981 71.981465 38.708371 71.981465 38.990269 
C 71.981465 39.272167 72.396954 39.542557 73.136424 39.741889 
C 73.875895 39.941221 74.878973 40.05322 75.924742 40.05322 
z
" style="fill:#0000ff;opacity:0.2;stroke:#0000ff;stroke-linejoin:miter;stroke-width:2;"/>
   </g>
   <g id="patch_13">
    <path clip-path="url(#pb5b3caf56d)" d="M 95.641126 30.48666 
C 96.686895 30.48666 97.689973 30.374661 98.429444 30.175329 
C 99.168914 29.975997 99.584403 29.705607 99.584403 29.423709 
C 99.584403 29.141811 99.168914 28.871421 98.429444 28.672089 
C 97.689973 28.472757 96.686895 28.360758 95.641126 28.360758 
C 94.595357 28.360758 93.592279 28.472757 92.852808 28.672089 
C 92.113338 28.871421 91.697849 29.141811 91.697849 29.423709 
C 91.697849 29.705607 92.113338 29.975997 92.852808 30.175329 
C 93.592279 30.374661 94.595357 30.48666 95.641126 30.48666 
z
" style="fill:#0000ff;opacity:0.2;stroke:#0000ff;stroke-linejoin:miter;stroke-width:2;"/>
   </g>
   <g id="patch_14">
    <path clip-path="url(#pb5b3caf56d)" d="M 424.90474 166.544399 
C 424.90474 226.601136 302.663159 278.685739 89.726211 304.728041 
C 73.953104 304.196565 56.208358 299.413286 62.123273 294.09853 
C 146.903725 268.056228 233.655815 225.538185 233.655815 166.544399 
C 233.655815 107.550614 146.903725 65.03257 62.123273 38.990269 
C 56.208358 33.675513 73.953104 28.892233 89.726211 28.360758 
C 302.663159 54.40306 424.90474 106.487663 424.90474 166.544399 
" style="fill:none;stroke:#ff0000;stroke-linejoin:miter;stroke-width:0.5;"/>
   </g>
   <g id="patch_15">
    <path clip-path="url(#pb5b3caf56d)" d="M 411.103271 167.607351 
C 411.103271 227.664087 302.663159 279.74869 95.641126 305.790992 
C 81.839657 305.259517 68.038188 301.007712 75.924742 296.224432 
C 202.1096 269.11918 280.975136 226.601136 280.975136 167.607351 
C 280.975136 108.613565 202.1096 66.095522 75.924742 38.990269 
C 68.038188 34.206989 81.839657 29.955185 95.641126 29.423709 
C 302.663159 55.466011 411.103271 107.550614 411.103271 167.607351 
" style="fill:none;stroke:#0000ff;stroke-linejoin:miter;stroke-width:0.5;"/>
   </g>
   <g id="[&quot;g_s&quot;:1,&quot;g_t&quot;:1,&quot;coords&quot;:[[254.0, -672.0],[247.0, -674.0]],&quot;certainty&quot;:12]">
    <path clip-path="url(#pb5b3caf56d)" d="M 424.90474 169.99899 
C 428.30349 169.99899 431.563494 169.634993 433.966773 168.987164 
C 436.370052 168.339335 437.72039 167.460568 437.72039 166.544399 
C 437.72039 165.628231 436.370052 164.749463 433.966773 164.101635 
C 431.563494 163.453806 428.30349 163.089808 424.90474 163.089808 
C 421.50599 163.089808 418.245987 163.453806 415.842707 164.101635 
C 413.439428 164.749463 412.089091 165.628231 412.089091 166.544399 
C 412.089091 167.460568 413.439428 168.339335 415.842707 168.987164 
C 418.245987 169.634993 421.50599 169.99899 424.90474 169.99899 
z
" style="fill:#0000ff;opacity:0.2;stroke:#0000ff;stroke-linejoin:miter;stroke-width:2;"/>
   </g>
   <g id="[&quot;g_s&quot;:1,&quot;g_t&quot;:1,&quot;coords&quot;:[[247.0, -674.0],[254.0, -672.0]],&quot;certainty&quot;:12]">
    <path clip-path="url(#pb5b3caf56d)" d="M 411.103271 171.061942 
C 414.502021 171.061942 417.762025 170.697944 420.165304 170.050115 
C 422.568583 169.402287 423.918921 168.523519 423.918921 167.607351 
C 423.918921 166.691182 422.568583 165.812415 420.165304 165.164586 
C 417.762025 164.516757 414.502021 164.15276 411.103271 164.15276 
C 407.704521 164.15276 404.444518 164.516757 402.041239 165.164586 
C 399.637959 165.812415 398.287622 166.691182 398.287622 167.607351 
C 398.287622 168.523519 399.637959 169.402287 402.041239 170.050115 
C 404.444518 170.697944 407.704521 171.061942 411.103271 171.061942 
z
" style="fill:#ff0000;opacity:0.2;stroke:#ff0000;stroke-linejoin:miter;stroke-width:2;"/>
   </g>
   <g id="patch_16">
    <path d="M 424.90474 166.544399 
Q 418.999693 166.99919 415.385957 167.27751 
" style="fill:none;opacity:0.5;stroke:#0000ff;stroke-linecap:round;stroke-width:3.25;"/>
    <path d="M 416.996713 168.657896 
L 415.385957 167.27751 
L 416.766343 165.666754 
" style="fill:none;opacity:0.5;stroke:#0000ff;stroke-linecap:round;stroke-width:3.25;"/>
   </g>
   <g id="[&quot;g_s&quot;:2,&quot;g_t&quot;:2,&quot;coords&quot;:[[84.0, -932.0],[87.0, -934.0]],&quot;certainty&quot;:5]">
    <path clip-path="url(#pb5b3caf56d)" d="M 89.726211 306.322468 
C 91.294865 306.322468 92.799482 306.154469 93.908688 305.855471 
C 95.017893 305.556473 95.641126 305.150888 95.641126 304.728041 
C 95.641126 304.305194 95.017893 303.899609 93.908688 303.600611 
C 92.799482 303.301613 91.294865 303.133614 89.726211 303.133614 
C 88.157557 303.133614 86.65294 303.301613 85.543734 303.600611 
C 84.434528 303.899609 83.811296 304.305194 83.811296 304.728041 
C 83.811296 305.150888 84.434528 305.556473 85.543734 305.855471 
C 86.65294 306.154469 88.157557 306.322468 89.726211 306.322468 
z
" style="fill:#0000ff;opacity:0.2;stroke:#0000ff;stroke-linejoin:miter;stroke-width:2;"/>
   </g>
   <g id="[&quot;g_s&quot;:2,&quot;g_t&quot;:2,&quot;coords&quot;:[[87.0, -934.0],[84.0, -932.0]],&quot;certainty&quot;:5]">
    <path clip-path="url(#pb5b3caf56d)" d="M 95.641126 307.385419 
C 97.20978 307.385419 98.714397 307.21742 99.823603 306.918422 
C 100.932809 306.619424 101.556041 306.213839 101.556041 305.790992 
C 101.556041 305.368145 100.932809 304.96256 99.823603 304.663562 
C 98.714397 304.364564 97.20978 304.196565 95.641126 304.196565 
C 94.072472 304.196565 92.567855 304.364564 91.458649 304.663562 
C 90.349444 304.96256 89.726211 305.368145 89.726211 305.790992 
C 89.726211 306.213839 90.349444 306.619424 91.458649 306.918422 
C 92.567855 307.21742 94.072472 307.385419 95.641126 307.385419 
z
" style="fill:#ff0000;opacity:0.2;stroke:#ff0000;stroke-linejoin:miter;stroke-width:2;"/>
   </g>
   <g id="patch_17">
    <path d="M 89.726211 304.728041 
Q 91.700256 305.082791 92.630364 305.249937 
" style="fill:none;opacity:0.5;stroke:#0000ff;stroke-linecap:round;stroke-width:1.5;"/>
    <path d="M 91.419324 303.508277 
L 92.630364 305.249937 
L 90.888703 306.460977 
" style="fill:none;opacity:0.5;stroke:#0000ff;stroke-linecap:round;stroke-width:1.5;"/>
   </g>
   <g id="[&quot;g_s&quot;:3,&quot;g_t&quot;:3,&quot;coords&quot;:[[70.0, -912.0],[77.0, -916.0]],&quot;certainty&quot;:6]">
    <path clip-path="url(#pb5b3caf56d)" d="M 62.123273 295.958695 
C 63.953369 295.958695 65.708756 295.762696 67.002829 295.413865 
C 68.296903 295.065034 69.024008 294.591851 69.024008 294.09853 
C 69.024008 293.605209 68.296903 293.132026 67.002829 292.783195 
C 65.708756 292.434364 63.953369 292.238366 62.123273 292.238366 
C 60.293177 292.238366 58.53779 292.434364 57.243717 292.783195 
C 55.949644 293.132026 55.222539 293.605209 55.222539 294.09853 
C 55.222539 294.591851 55.949644 295.065034 57.243717 295.413865 
C 58.53779 295.762696 60.293177 295.958695 62.123273 295.958695 
z
" style="fill:#0000ff;opacity:0.2;stroke:#0000ff;stroke-linejoin:miter;stroke-width:2;"/>
   </g>
   <g id="[&quot;g_s&quot;:3,&quot;g_t&quot;:3,&quot;coords&quot;:[[77.0, -916.0],[70.0, -912.0]],&quot;certainty&quot;:6]">
    <path clip-path="url(#pb5b3caf56d)" d="M 75.924742 298.084597 
C 77.754838 298.084597 79.510225 297.888598 80.804298 297.539767 
C 82.098372 297.190936 82.825476 296.717754 82.825476 296.224432 
C 82.825476 295.731111 82.098372 295.257928 80.804298 294.909097 
C 79.510225 294.560267 77.754838 294.364268 75.924742 294.364268 
C 74.094646 294.364268 72.339259 294.560267 71.045186 294.909097 
C 69.751113 295.257928 69.024008 295.731111 69.024008 296.224432 
C 69.024008 296.717754 69.751113 297.190936 71.045186 297.539767 
C 72.339259 297.888598 74.094646 298.084597 75.924742 298.084597 
z
" style="fill:#ff0000;opacity:0.2;stroke:#ff0000;stroke-linejoin:miter;stroke-width:2;"/>
   </g>
   <g id="patch_18">
    <path d="M 62.123273 294.09853 
Q 68.03506 295.009149 72.723833 295.731382 
" style="fill:none;opacity:0.5;stroke:#0000ff;stroke-linecap:round;stroke-width:1.75;"/>
    <path d="M 71.469676 294.020508 
L 72.723833 295.731382 
L 71.012959 296.985539 
" style="fill:none;opacity:0.5;stroke:#0000ff;stroke-linecap:round;stroke-width:1.75;"/>
   </g>
   <g id="[&quot;g_s&quot;:4,&quot;g_t&quot;:4,&quot;coords&quot;:[[157.0, -672.0],[181.0, -674.0]],&quot;certainty&quot;:5]">
    <path clip-path="url(#pb5b3caf56d)" d="M 233.655815 168.138826 
C 235.224469 168.138826 236.729086 167.970827 237.838291 167.671829 
C 238.947497 167.372831 239.57073 166.967246 239.57073 166.544399 
C 239.57073 166.121553 238.947497 165.715967 237.838291 165.41697 
C 236.729086 165.117972 235.224469 164.949973 233.655815 164.949973 
C 232.087161 164.949973 230.582544 165.117972 229.473338 165.41697 
C 228.364132 165.715967 227.740899 166.121553 227.740899 166.544399 
C 227.740899 166.967246 228.364132 167.372831 229.473338 167.671829 
C 230.582544 167.970827 232.087161 168.138826 233.655815 168.138826 
z
" style="fill:#0000ff;opacity:0.2;stroke:#0000ff;stroke-linejoin:miter;stroke-width:2;"/>
   </g>
   <g id="[&quot;g_s&quot;:4,&quot;g_t&quot;:4,&quot;coords&quot;:[[181.0, -674.0],[157.0, -672.0]],&quot;certainty&quot;:5]">
    <path clip-path="url(#pb5b3caf56d)" d="M 280.975136 169.201777 
C 282.54379 169.201777 284.048407 169.033778 285.157613 168.73478 
C 286.266819 168.435783 286.890052 168.030197 286.890052 167.607351 
C 286.890052 167.184504 286.266819 166.778919 285.157613 166.479921 
C 284.048407 166.180923 282.54379 166.012924 280.975136 166.012924 
C 279.406483 166.012924 277.901866 166.180923 276.79266 166.479921 
C 275.683454 166.778919 275.060221 167.184504 275.060221 167.607351 
C 275.060221 168.030197 275.683454 168.435783 276.79266 168.73478 
C 277.901866 169.033778 279.406483 169.201777 280.975136 169.201777 
z
" style="fill:#ff0000;opacity:0.2;stroke:#ff0000;stroke-linejoin:miter;stroke-width:2;"/>
   </g>
   <g id="patch_19">
    <path d="M 233.655815 166.544399 
Q 256.314734 167.053395 277.913261 167.538571 
" style="fill:none;opacity:0.5;stroke:#0000ff;stroke-linecap:round;stroke-width:1.5;"/>
    <path d="M 276.447326 166.005262 
L 277.913261 167.538571 
L 276.379953 169.004506 
" style="fill:none;opacity:0.5;stroke:#0000ff;stroke-linecap:round;stroke-width:1.5;"/>
   </g>
   <g id="[&quot;g_s&quot;:5,&quot;g_t&quot;:5,&quot;coords&quot;:[[70.0, -432.0],[77.0, -432.0]],&quot;certainty&quot;:6]">
    <path clip-path="url(#pb5b3caf56d)" d="M 62.123273 40.850433 
C 63.953369 40.850433 65.708756 40.654435 67.002829 40.305604 
C 68.296903 39.956773 69.024008 39.48359 69.024008 38.990269 
C 69.024008 38.496947 68.296903 38.023765 67.002829 37.674934 
C 65.708756 37.326103 63.953369 37.130104 62.123273 37.130104 
C 60.293177 37.130104 58.53779 37.326103 57.243717 37.674934 
C 55.949644 38.023765 55.222539 38.496947 55.222539 38.990269 
C 55.222539 39.48359 55.949644 39.956773 57.243717 40.305604 
C 58.53779 40.654435 60.293177 40.850433 62.123273 40.850433 
z
" style="fill:#0000ff;opacity:0.2;stroke:#0000ff;stroke-linejoin:miter;stroke-width:2;"/>
   </g>
   <g id="[&quot;g_s&quot;:5,&quot;g_t&quot;:5,&quot;coords&quot;:[[77.0, -432.0],[70.0, -432.0]],&quot;certainty&quot;:6]">
    <path clip-path="url(#pb5b3caf56d)" d="M 75.924742 40.850433 
C 77.754838 40.850433 79.510225 40.654435 80.804298 40.305604 
C 82.098372 39.956773 82.825476 39.48359 82.825476 38.990269 
C 82.825476 38.496947 82.098372 38.023765 80.804298 37.674934 
C 79.510225 37.326103 77.754838 37.130104 75.924742 37.130104 
C 74.094646 37.130104 72.339259 37.326103 71.045186 37.674934 
C 69.751113 38.023765 69.024008 38.496947 69.024008 38.990269 
C 69.024008 39.48359 69.751113 39.956773 71.045186 40.305604 
C 72.339259 40.654435 74.094646 40.850433 75.924742 40.850433 
z
" style="fill:#ff0000;opacity:0.2;stroke:#ff0000;stroke-linejoin:miter;stroke-width:2;"/>
   </g>
   <g id="patch_20">
    <path d="M 62.123273 38.990269 
Q 68.024951 38.990269 72.689192 38.990269 
" style="fill:none;opacity:0.5;stroke:#0000ff;stroke-linecap:round;stroke-width:1.75;"/>
    <path d="M 71.189192 37.490269 
L 72.689192 38.990269 
L 71.189192 40.490269 
" style="fill:none;opacity:0.5;stroke:#0000ff;stroke-linecap:round;stroke-width:1.75;"/>
   </g>
   <g id="[&quot;g_s&quot;:6,&quot;g_t&quot;:6,&quot;coords&quot;:[[84.0, -412.0],[87.0, -414.0]],&quot;certainty&quot;:11]">
    <path clip-path="url(#pb5b3caf56d)" d="M 89.726211 31.549611 
C 92.863519 31.549611 95.872753 31.213613 98.091164 30.615618 
C 100.309576 30.017622 101.556041 29.206452 101.556041 28.360758 
C 101.556041 27.515064 100.309576 26.703894 98.091164 26.105898 
C 95.872753 25.507902 92.863519 25.171905 89.726211 25.171905 
C 86.588903 25.171905 83.579669 25.507902 81.361258 26.105898 
C 79.142846 26.703894 77.89638 27.515064 77.89638 28.360758 
C 77.89638 29.206452 79.142846 30.017622 81.361258 30.615618 
C 83.579669 31.213613 86.588903 31.549611 89.726211 31.549611 
z
" style="fill:#0000ff;opacity:0.2;stroke:#0000ff;stroke-linejoin:miter;stroke-width:2;"/>
   </g>
   <g id="[&quot;g_s&quot;:6,&quot;g_t&quot;:6,&quot;coords&quot;:[[87.0, -414.0],[84.0, -412.0]],&quot;certainty&quot;:11]">
    <path clip-path="url(#pb5b3caf56d)" d="M 95.641126 32.612562 
C 98.778434 32.612562 101.787668 32.276565 104.006079 31.678569 
C 106.224491 31.080573 107.470957 30.269403 107.470957 29.423709 
C 107.470957 28.578015 106.224491 27.766845 104.006079 27.168849 
C 101.787668 26.570853 98.778434 26.234856 95.641126 26.234856 
C 92.503818 26.234856 89.494584 26.570853 87.276173 27.168849 
C 85.057761 27.766845 83.811296 28.578015 83.811296 29.423709 
C 83.811296 30.269403 85.057761 31.080573 87.276173 31.678569 
C 89.494584 32.276565 92.503818 32.612562 95.641126 32.612562 
z
" style="fill:#ff0000;opacity:0.2;stroke:#ff0000;stroke-linejoin:miter;stroke-width:2;"/>
   </g>
   <g id="patch_21">
    <path d="M 89.726211 28.360758 
Q 91.700256 28.715507 91.586427 28.695052 
" style="fill:none;opacity:0.5;stroke:#0000ff;stroke-linecap:round;stroke-width:3;"/>
    <path d="M 90.375387 26.953391 
L 91.586427 28.695052 
L 89.844766 29.906092 
" style="fill:none;opacity:0.5;stroke:#0000ff;stroke-linecap:round;stroke-width:3;"/>
   </g>
   <g id="[&quot;g_s&quot;:1,&quot;g_t&quot;:1,&quot;coords&quot;:[[247.0, -674.0],[254.0, -672.0]],&quot;certainty&quot;:12]">
    <path clip-path="url(#pb5b3caf56d)" d="M 411.103271 171.061942 
C 414.502021 171.061942 417.762025 170.697944 420.165304 170.050115 
C 422.568583 169.402287 423.918921 168.523519 423.918921 167.607351 
C 423.918921 166.691182 422.568583 165.812415 420.165304 165.164586 
C 417.762025 164.516757 414.502021 164.15276 411.103271 164.15276 
C 407.704521 164.15276 404.444518 164.516757 402.041239 165.164586 
C 399.637959 165.812415 398.287622 166.691182 398.287622 167.607351 
C 398.287622 168.523519 399.637959 169.402287 402.041239 170.050115 
C 404.444518 170.697944 407.704521 171.061942 411.103271 171.061942 
z
" style="fill:#0000ff;opacity:0.2;stroke:#0000ff;stroke-linejoin:miter;stroke-width:2;"/>
   </g>
   <g id="[&quot;g_s&quot;:1,&quot;g_t&quot;:1,&quot;coords&quot;:[[254.0, -672.0],[247.0, -674.0]],&quot;certainty&quot;:12]">
    <path clip-path="url(#pb5b3caf56d)" d="M 424.90474 169.99899 
C 428.30349 169.99899 431.563494 169.634993 433.966773 168.987164 
C 436.370052 168.339335 437.72039 167.460568 437.72039 166.544399 
C 437.72039 165.628231 436.370052 164.749463 433.966773 164.101635 
C 431.563494 163.453806 428.30349 163.089808 424.90474 163.089808 
C 421.50599 163.089808 418.245987 163.453806 415.842707 164.101635 
C 413.439428 164.749463 412.089091 165.628231 412.089091 166.544399 
C 412.089091 167.460568 413.439428 168.339335 415.842707 168.987164 
C 418.245987 169.634993 421.50599 169.99899 424.90474 169.99899 
z
" style="fill:#ff0000;opacity:0.2;stroke:#ff0000;stroke-linejoin:miter;stroke-width:2;"/>
   </g>
   <g id="patch_22">
    <path d="M 411.103271 167.607351 
Q 417.008319 167.15256 420.622055 166.87424 
" style="fill:none;opacity:0.5;stroke:#ff0000;stroke-linecap:round;stroke-width:3.25;"/>
    <path d="M 419.011299 165.493854 
L 420.622055 166.87424 
L 419.241669 168.484996 
" style="fill:none;opacity:0.5;stroke:#ff0000;stroke-linecap:round;stroke-width:3.25;"/>
   </g>
   <g id="[&quot;g_s&quot;:2,&quot;g_t&quot;:2,&quot;coords&quot;:[[87.0, -934.0],[84.0, -932.0]],&quot;certainty&quot;:5]">
    <path clip-path="url(#pb5b3caf56d)" d="M 95.641126 307.385419 
C 97.20978 307.385419 98.714397 307.21742 99.823603 306.918422 
C 100.932809 306.619424 101.556041 306.213839 101.556041 305.790992 
C 101.556041 305.368145 100.932809 304.96256 99.823603 304.663562 
C 98.714397 304.364564 97.20978 304.196565 95.641126 304.196565 
C 94.072472 304.196565 92.567855 304.364564 91.458649 304.663562 
C 90.349444 304.96256 89.726211 305.368145 89.726211 305.790992 
C 89.726211 306.213839 90.349444 306.619424 91.458649 306.918422 
C 92.567855 307.21742 94.072472 307.385419 95.641126 307.385419 
z
" style="fill:#0000ff;opacity:0.2;stroke:#0000ff;stroke-linejoin:miter;stroke-width:2;"/>
   </g>
   <g id="[&quot;g_s&quot;:2,&quot;g_t&quot;:2,&quot;coords&quot;:[[84.0, -932.0],[87.0, -934.0]],&quot;certainty&quot;:5]">
    <path clip-path="url(#pb5b3caf56d)" d="M 89.726211 306.322468 
C 91.294865 306.322468 92.799482 306.154469 93.908688 305.855471 
C 95.017893 305.556473 95.641126 305.150888 95.641126 304.728041 
C 95.641126 304.305194 95.017893 303.899609 93.908688 303.600611 
C 92.799482 303.301613 91.294865 303.133614 89.726211 303.133614 
C 88.157557 303.133614 86.65294 303.301613 85.543734 303.600611 
C 84.434528 303.899609 83.811296 304.305194 83.811296 304.728041 
C 83.811296 305.150888 84.434528 305.556473 85.543734 305.855471 
C 86.65294 306.154469 88.157557 306.322468 89.726211 306.322468 
z
" style="fill:#ff0000;opacity:0.2;stroke:#ff0000;stroke-linejoin:miter;stroke-width:2;"/>
   </g>
   <g id="patch_23">
    <path d="M 95.641126 305.790992 
Q 93.667081 305.436243 92.736973 305.269096 
" style="fill:none;opacity:0.5;stroke:#ff0000;stroke-linecap:round;stroke-width:1.5;"/>
    <path d="M 93.948013 307.010756 
L 92.736973 305.269096 
L 94.478634 304.058056 
" style="fill:none;opacity:0.5;stroke:#ff0000;stroke-linecap:round;stroke-width:1.5;"/>
   </g>
   <g id="[&quot;g_s&quot;:3,&quot;g_t&quot;:3,&quot;coords&quot;:[[77.0, -916.0],[70.0, -912.0]],&quot;certainty&quot;:6]">
    <path clip-path="url(#pb5b3caf56d)" d="M 75.924742 298.084597 
C 77.754838 298.084597 79.510225 297.888598 80.804298 297.539767 
C 82.098372 297.190936 82.825476 296.717754 82.825476 296.224432 
C 82.825476 295.731111 82.098372 295.257928 80.804298 294.909097 
C 79.510225 294.560267 77.754838 294.364268 75.924742 294.364268 
C 74.094646 294.364268 72.339259 294.560267 71.045186 294.909097 
C 69.751113 295.257928 69.024008 295.731111 69.024008 296.224432 
C 69.024008 296.717754 69.751113 297.190936 71.045186 297.539767 
C 72.339259 297.888598 74.094646 298.084597 75.924742 298.084597 
z
" style="fill:#0000ff;opacity:0.2;stroke:#0000ff;stroke-linejoin:miter;stroke-width:2;"/>
   </g>
   <g id="[&quot;g_s&quot;:3,&quot;g_t&quot;:3,&quot;coords&quot;:[[70.0, -912.0],[77.0, -916.0]],&quot;certainty&quot;:6]">
    <path clip-path="url(#pb5b3caf56d)" d="M 62.123273 295.958695 
C 63.953369 295.958695 65.708756 295.762696 67.002829 295.413865 
C 68.296903 295.065034 69.024008 294.591851 69.024008 294.09853 
C 69.024008 293.605209 68.296903 293.132026 67.002829 292.783195 
C 65.708756 292.434364 63.953369 292.238366 62.123273 292.238366 
C 60.293177 292.238366 58.53779 292.434364 57.243717 292.783195 
C 55.949644 293.132026 55.222539 293.605209 55.222539 294.09853 
C 55.222539 294.591851 55.949644 295.065034 57.243717 295.413865 
C 58.53779 295.762696 60.293177 295.958695 62.123273 295.958695 
z
" style="fill:#ff0000;opacity:0.2;stroke:#ff0000;stroke-linejoin:miter;stroke-width:2;"/>
   </g>
   <g id="patch_24">
    <path d="M 75.924742 296.224432 
Q 70.012956 295.313813 65.324182 294.59158 
" style="fill:none;opacity:0.5;stroke:#ff0000;stroke-linecap:round;stroke-width:1.75;"/>
    <path d="M 66.578339 296.302455 
L 65.324182 294.59158 
L 67.035056 293.337423 
" style="fill:none;opacity:0.5;stroke:#ff0000;stroke-linecap:round;stroke-width:1.75;"/>
   </g>
   <g id="[&quot;g_s&quot;:4,&quot;g_t&quot;:4,&quot;coords&quot;:[[181.0, -674.0],[157.0, -672.0]],&quot;certainty&quot;:11]">
    <path clip-path="url(#pb5b3caf56d)" d="M 280.975136 170.796204 
C 284.112444 170.796204 287.121678 170.460206 289.34009 169.86221 
C 291.558501 169.264215 292.804967 168.453044 292.804967 167.607351 
C 292.804967 166.761657 291.558501 165.950487 289.34009 165.352491 
C 287.121678 164.754495 284.112444 164.418497 280.975136 164.418497 
C 277.837829 164.418497 274.828595 164.754495 272.610183 165.352491 
C 270.391772 165.950487 269.145306 166.761657 269.145306 167.607351 
C 269.145306 168.453044 270.391772 169.264215 272.610183 169.86221 
C 274.828595 170.460206 277.837829 170.796204 280.975136 170.796204 
z
" style="fill:#0000ff;opacity:0.2;stroke:#0000ff;stroke-linejoin:miter;stroke-width:2;"/>
   </g>
   <g id="[&quot;g_s&quot;:4,&quot;g_t&quot;:4,&quot;coords&quot;:[[157.0, -672.0],[181.0, -674.0]],&quot;certainty&quot;:11]">
    <path clip-path="url(#pb5b3caf56d)" d="M 233.655815 169.733253 
C 236.793122 169.733253 239.802356 169.397255 242.020768 168.799259 
C 244.23918 168.201263 245.485645 167.390093 245.485645 166.544399 
C 245.485645 165.698706 244.23918 164.887535 242.020768 164.28954 
C 239.802356 163.691544 236.793122 163.355546 233.655815 163.355546 
C 230.518507 163.355546 227.509273 163.691544 225.290861 164.28954 
C 223.07245 164.887535 221.825984 165.698706 221.825984 166.544399 
C 221.825984 167.390093 223.07245 168.201263 225.290861 168.799259 
C 227.509273 169.397255 230.518507 169.733253 233.655815 169.733253 
z
" style="fill:#ff0000;opacity:0.2;stroke:#ff0000;stroke-linejoin:miter;stroke-width:2;"/>
   </g>
   <g id="patch_25">
    <path d="M 280.975136 167.607351 
Q 258.316217 167.098355 237.778083 166.636999 
" style="fill:none;opacity:0.5;stroke:#ff0000;stroke-linecap:round;stroke-width:3;"/>
    <path d="M 239.244018 168.170308 
L 237.778083 166.636999 
L 239.311391 165.171064 
" style="fill:none;opacity:0.5;stroke:#ff0000;stroke-linecap:round;stroke-width:3;"/>
   </g>
   <g id="[&quot;g_s&quot;:5,&quot;g_t&quot;:5,&quot;coords&quot;:[[77.0, -432.0],[70.0, -432.0]],&quot;certainty&quot;:6]">
    <path clip-path="url(#pb5b3caf56d)" d="M 75.924742 40.850433 
C 77.754838 40.850433 79.510225 40.654435 80.804298 40.305604 
C 82.098372 39.956773 82.825476 39.48359 82.825476 38.990269 
C 82.825476 38.496947 82.098372 38.023765 80.804298 37.674934 
C 79.510225 37.326103 77.754838 37.130104 75.924742 37.130104 
C 74.094646 37.130104 72.339259 37.326103 71.045186 37.674934 
C 69.751113 38.023765 69.024008 38.496947 69.024008 38.990269 
C 69.024008 39.48359 69.751113 39.956773 71.045186 40.305604 
C 72.339259 40.654435 74.094646 40.850433 75.924742 40.850433 
z
" style="fill:#0000ff;opacity:0.2;stroke:#0000ff;stroke-linejoin:miter;stroke-width:2;"/>
   </g>
   <g id="[&quot;g_s&quot;:5,&quot;g_t&quot;:5,&quot;coords&quot;:[[70.0, -432.0],[77.0, -432.0]],&quot;certainty&quot;:6]">
    <path clip-path="url(#pb5b3caf56d)" d="M 62.123273 40.850433 
C 63.953369 40.850433 65.708756 40.654435 67.002829 40.305604 
C 68.296903 39.956773 69.024008 39.48359 69.024008 38.990269 
C 69.024008 38.496947 68.296903 38.023765 67.002829 37.674934 
C 65.708756 37.326103 63.953369 37.130104 62.123273 37.130104 
C 60.293177 37.130104 58.53779 37.326103 57.243717 37.674934 
C 55.949644 38.023765 55.222539 38.496947 55.222539 38.990269 
C 55.222539 39.48359 55.949644 39.956773 57.243717 40.305604 
C 58.53779 40.654435 60.293177 40.850433 62.123273 40.850433 
z
" style="fill:#ff0000;opacity:0.2;stroke:#ff0000;stroke-linejoin:miter;stroke-width:2;"/>
   </g>
   <g id="patch_26">
    <path d="M 75.924742 38.990269 
Q 70.023064 38.990269 65.358823 38.990269 
" style="fill:none;opacity:0.5;stroke:#ff0000;stroke-linecap:round;stroke-width:1.75;"/>
    <path d="M 66.858823 40.490269 
L 65.358823 38.990269 
L 66.858823 37.490269 
" style="fill:none;opacity:0.5;stroke:#ff0000;stroke-linecap:round;stroke-width:1.75;"/>
   </g>
   <g id="[&quot;g_s&quot;:6,&quot;g_t&quot;:6,&quot;coords&quot;:[[87.0, -414.0],[84.0, -412.0]],&quot;certainty&quot;:11]">
    <path clip-path="url(#pb5b3caf56d)" d="M 95.641126 32.612562 
C 98.778434 32.612562 101.787668 32.276565 104.006079 31.678569 
C 106.224491 31.080573 107.470957 30.269403 107.470957 29.423709 
C 107.470957 28.578015 106.224491 27.766845 104.006079 27.168849 
C 101.787668 26.570853 98.778434 26.234856 95.641126 26.234856 
C 92.503818 26.234856 89.494584 26.570853 87.276173 27.168849 
C 85.057761 27.766845 83.811296 28.578015 83.811296 29.423709 
C 83.811296 30.269403 85.057761 31.080573 87.276173 31.678569 
C 89.494584 32.276565 92.503818 32.612562 95.641126 32.612562 
z
" style="fill:#0000ff;opacity:0.2;stroke:#0000ff;stroke-linejoin:miter;stroke-width:2;"/>
   </g>
   <g id="[&quot;g_s&quot;:6,&quot;g_t&quot;:6,&quot;coords&quot;:[[84.0, -412.0],[87.0, -414.0]],&quot;certainty&quot;:11]">
    <path clip-path="url(#pb5b3caf56d)" d="M 89.726211 31.549611 
C 92.863519 31.549611 95.872753 31.213613 98.091164 30.615618 
C 100.309576 30.017622 101.556041 29.206452 101.556041 28.360758 
C 101.556041 27.515064 100.309576 26.703894 98.091164 26.105898 
C 95.872753 25.507902 92.863519 25.171905 89.726211 25.171905 
C 86.588903 25.171905 83.579669 25.507902 81.361258 26.105898 
C 79.142846 26.703894 77.89638 27.515064 77.89638 28.360758 
C 77.89638 29.206452 79.142846 30.017622 81.361258 30.615618 
C 83.579669 31.213613 86.588903 31.549611 89.726211 31.549611 
z
" style="fill:#ff0000;opacity:0.2;stroke:#ff0000;stroke-linejoin:miter;stroke-width:2;"/>
   </g>
   <g id="patch_27">
    <path d="M 95.641126 29.423709 
Q 93.667081 29.068959 93.78091 29.089415 
" style="fill:none;opacity:0.5;stroke:#ff0000;stroke-linecap:round;stroke-width:3;"/>
    <path d="M 94.99195 30.831076 
L 93.78091 29.089415 
L 95.522571 27.878375 
" style="fill:none;opacity:0.5;stroke:#ff0000;stroke-linecap:round;stroke-width:3;"/>
   </g>
   <g id="patch_28">
    <path clip-path="url(#pb5b3caf56d)" d="M 418.004006 169.733253 
C 420.618429 169.733253 423.126124 169.453255 424.9748 168.954925 
C 426.823477 168.456595 427.862198 167.78062 427.862198 167.075875 
C 427.862198 166.37113 426.823477 165.695155 424.9748 165.196825 
C 423.126124 164.698495 420.618429 164.418497 418.004006 164.418497 
C 415.389583 164.418497 412.881888 164.698495 411.033211 165.196825 
C 409.184535 165.695155 408.145814 166.37113 408.145814 167.075875 
C 408.145814 167.78062 409.184535 168.456595 411.033211 168.954925 
C 412.881888 169.453255 415.389583 169.733253 418.004006 169.733253 
z
" style="fill:#008000;opacity:0.2;stroke:#008000;stroke-linejoin:miter;stroke-width:2;"/>
   </g>
   <g id="patch_29">
    <path clip-path="url(#pb5b3caf56d)" d="M 92.683669 307.916894 
C 95.298092 307.916894 97.805787 307.636896 99.654463 307.138566 
C 101.503139 306.640237 102.541861 305.964261 102.541861 305.259517 
C 102.541861 304.554772 101.503139 303.878797 99.654463 303.380467 
C 97.805787 302.882137 95.298092 302.602139 92.683669 302.602139 
C 90.069245 302.602139 87.56155 302.882137 85.712874 303.380467 
C 83.864198 303.878797 82.825476 304.554772 82.825476 305.259517 
C 82.825476 305.964261 83.864198 306.640237 85.712874 307.138566 
C 87.56155 307.636896 90.069245 307.916894 92.683669 307.916894 
z
" style="fill:#008000;opacity:0.2;stroke:#008000;stroke-linejoin:miter;stroke-width:2;"/>
   </g>
   <g id="patch_30">
    <path clip-path="url(#pb5b3caf56d)" d="M 69.024008 297.818859 
C 71.638431 297.818859 74.146126 297.538861 75.994802 297.040531 
C 77.843478 296.542201 78.8822 295.866226 78.8822 295.161481 
C 78.8822 294.456736 77.843478 293.780761 75.994802 293.282431 
C 74.146126 292.784102 71.638431 292.504103 69.024008 292.504103 
C 66.409585 292.504103 63.901889 292.784102 62.053213 293.282431 
C 60.204537 293.780761 59.165816 294.456736 59.165816 295.161481 
C 59.165816 295.866226 60.204537 296.542201 62.053213 297.040531 
C 63.901889 297.538861 66.409585 297.818859 69.024008 297.818859 
z
" style="fill:#008000;opacity:0.2;stroke:#008000;stroke-linejoin:miter;stroke-width:2;"/>
   </g>
   <g id="patch_31">
    <path clip-path="url(#pb5b3caf56d)" d="M 257.315476 169.733253 
C 259.929899 169.733253 262.437594 169.453255 264.28627 168.954925 
C 266.134946 168.456595 267.173668 167.78062 267.173668 167.075875 
C 267.173668 166.37113 266.134946 165.695155 264.28627 165.196825 
C 262.437594 164.698495 259.929899 164.418497 257.315476 164.418497 
C 254.701052 164.418497 252.193357 164.698495 250.344681 165.196825 
C 248.496005 165.695155 247.457284 166.37113 247.457284 167.075875 
C 247.457284 167.78062 248.496005 168.456595 250.344681 168.954925 
C 252.193357 169.453255 254.701052 169.733253 257.315476 169.733253 
z
" style="fill:#008000;opacity:0.2;stroke:#008000;stroke-linejoin:miter;stroke-width:2;"/>
   </g>
   <g id="patch_32">
    <path clip-path="url(#pb5b3caf56d)" d="M 69.024008 41.647647 
C 71.638431 41.647647 74.146126 41.367648 75.994802 40.869319 
C 77.843478 40.370989 78.8822 39.695014 78.8822 38.990269 
C 78.8822 38.285524 77.843478 37.609549 75.994802 37.111219 
C 74.146126 36.612889 71.638431 36.332891 69.024008 36.332891 
C 66.409585 36.332891 63.901889 36.612889 62.053213 37.111219 
C 60.204537 37.609549 59.165816 38.285524 59.165816 38.990269 
C 59.165816 39.695014 60.204537 40.370989 62.053213 40.869319 
C 63.901889 41.367648 66.409585 41.647647 69.024008 41.647647 
z
" style="fill:#008000;opacity:0.2;stroke:#008000;stroke-linejoin:miter;stroke-width:2;"/>
   </g>
   <g id="patch_33">
    <path clip-path="url(#pb5b3caf56d)" d="M 92.683669 31.549611 
C 95.298092 31.549611 97.805787 31.269613 99.654463 30.771283 
C 101.503139 30.272953 102.541861 29.596978 102.541861 28.892233 
C 102.541861 28.187489 101.503139 27.511513 99.654463 27.013184 
C 97.805787 26.514854 95.298092 26.234856 92.683669 26.234856 
C 90.069245 26.234856 87.56155 26.514854 85.712874 27.013184 
C 83.864198 27.511513 82.825476 28.187489 82.825476 28.892233 
C 82.825476 29.596978 83.864198 30.272953 85.712874 30.771283 
C 87.56155 31.269613 90.069245 31.549611 92.683669 31.549611 
z
" style="fill:#008000;opacity:0.2;stroke:#008000;stroke-linejoin:miter;stroke-width:2;"/>
   </g>
   <g id="patch_34">
    <path clip-path="url(#pb5b3caf56d)" d="M 424.90474 177.17391 
C 435.362433 177.17391 445.393213 176.053918 452.787918 174.060599 
C 460.182623 172.067279 464.337508 169.363379 464.337508 166.544399 
C 464.337508 163.72542 460.182623 161.02152 452.787918 159.0282 
C 445.393213 157.034881 435.362433 155.914889 424.90474 155.914889 
C 414.447048 155.914889 404.416268 157.034881 397.021562 159.0282 
C 389.626857 161.02152 385.471972 163.72542 385.471972 166.544399 
C 385.471972 169.363379 389.626857 172.067279 397.021562 174.060599 
C 404.416268 176.053918 414.447048 177.17391 424.90474 177.17391 
z
" style="fill:none;opacity:0.2;stroke:#ff0000;stroke-linejoin:miter;stroke-width:2;"/>
   </g>
   <g id="patch_35">
    <path clip-path="url(#pb5b3caf56d)" d="M 411.103271 178.236861 
C 421.560964 178.236861 431.591744 177.116869 438.986449 175.12355 
C 446.381154 173.13023 450.53604 170.42633 450.53604 167.607351 
C 450.53604 164.788371 446.381154 162.084471 438.986449 160.091151 
C 431.591744 158.097832 421.560964 156.97784 411.103271 156.97784 
C 400.645579 156.97784 390.614799 158.097832 383.220094 160.091151 
C 375.825388 162.084471 371.670503 164.788371 371.670503 167.607351 
C 371.670503 170.42633 375.825388 173.13023 383.220094 175.12355 
C 390.614799 177.116869 400.645579 178.236861 411.103271 178.236861 
z
" style="fill:none;opacity:0.2;stroke:#0000ff;stroke-linejoin:miter;stroke-width:2;"/>
   </g>
   <g id="patch_36">
    <path clip-path="url(#pb5b3caf56d)" d="M 424.90474 171.859155 
C 430.133586 171.859155 435.148977 171.299159 438.846329 170.302499 
C 442.543682 169.305839 444.621124 167.953889 444.621124 166.544399 
C 444.621124 165.13491 442.543682 163.78296 438.846329 162.7863 
C 435.148977 161.78964 430.133586 161.229644 424.90474 161.229644 
C 419.675894 161.229644 414.660504 161.78964 410.963151 162.7863 
C 407.265799 163.78296 405.188356 165.13491 405.188356 166.544399 
C 405.188356 167.953889 407.265799 169.305839 410.963151 170.302499 
C 414.660504 171.299159 419.675894 171.859155 424.90474 171.859155 
z
" style="fill:none;opacity:0.2;stroke:#008000;stroke-linejoin:miter;stroke-width:2;"/>
   </g>
   <g id="patch_37">
    <path clip-path="url(#pb5b3caf56d)" d="M 411.103271 172.922106 
C 416.332118 172.922106 421.347508 172.36211 425.04486 171.36545 
C 428.742213 170.36879 430.819655 169.01684 430.819655 167.607351 
C 430.819655 166.197861 428.742213 164.845911 425.04486 163.849251 
C 421.347508 162.852591 416.332118 162.292595 411.103271 162.292595 
C 405.874425 162.292595 400.859035 162.852591 397.161682 163.849251 
C 393.46433 164.845911 391.386887 166.197861 391.386887 167.607351 
C 391.386887 169.01684 393.46433 170.36879 397.161682 171.36545 
C 400.859035 172.36211 405.874425 172.922106 411.103271 172.922106 
z
" style="fill:none;opacity:0.2;stroke:#008000;stroke-linejoin:miter;stroke-width:2;"/>
   </g>
   <g id="patch_38">
    <path d="M 418.004006 167.075875 
Q 255.343837 236.167696 92.683669 305.259517 
" style="fill:none;opacity:0.5;stroke:#008000;stroke-linecap:round;stroke-width:2;"/>
   </g>
   <g id="patch_39">
    <path d="M 423.494702 166.652997 
Q 418.999693 166.99919 414.504683 167.345383 
" style="fill:none;opacity:0.5;stroke:#800080;stroke-linecap:round;stroke-width:2;"/>
    <path d="M 421.883947 165.27261 
L 423.494702 166.652997 
L 422.114316 168.263752 
" style="fill:none;opacity:0.5;stroke:#800080;stroke-linecap:round;stroke-width:2;"/>
    <path d="M 416.115439 168.725769 
L 414.504683 167.345383 
L 415.885069 165.734627 
" style="fill:none;opacity:0.5;stroke:#800080;stroke-linecap:round;stroke-width:2;"/>
   </g>
   <g id="patch_40">
    <path d="M 92.683669 305.259517 
Q 80.853838 300.210499 69.024008 295.161481 
" style="fill:none;opacity:0.5;stroke:#008000;stroke-linecap:round;stroke-width:2;"/>
   </g>
   <g id="patch_41">
    <path d="M 91.118127 304.978178 
Q 91.700256 305.082791 92.282385 305.187403 
" style="fill:none;opacity:0.5;stroke:#800080;stroke-linecap:round;stroke-width:2;"/>
    <path d="M 92.329167 306.719839 
L 91.118127 304.978178 
L 92.859788 303.767138 
" style="fill:none;opacity:0.5;stroke:#800080;stroke-linecap:round;stroke-width:2;"/>
    <path d="M 91.071345 303.445742 
L 92.282385 305.187403 
L 90.540724 306.398443 
" style="fill:none;opacity:0.5;stroke:#800080;stroke-linecap:round;stroke-width:2;"/>
   </g>
   <g id="patch_42">
    <path d="M 69.024008 295.161481 
Q 163.169742 231.118678 257.315476 167.075875 
" style="fill:none;opacity:0.5;stroke:#008000;stroke-linecap:round;stroke-width:2;"/>
   </g>
   <g id="patch_43">
    <path d="M 63.521002 294.313829 
Q 68.03506 295.009149 72.549117 295.70447 
" style="fill:none;opacity:0.5;stroke:#800080;stroke-linecap:round;stroke-width:2;"/>
    <path d="M 64.775159 296.024703 
L 63.521002 294.313829 
L 65.231876 293.059672 
" style="fill:none;opacity:0.5;stroke:#800080;stroke-linecap:round;stroke-width:2;"/>
    <path d="M 71.29496 293.993596 
L 72.549117 295.70447 
L 70.838243 296.958627 
" style="fill:none;opacity:0.5;stroke:#800080;stroke-linecap:round;stroke-width:2;"/>
   </g>
   <g id="patch_44">
    <path d="M 257.315476 167.075875 
Q 163.169742 103.033072 69.024008 38.990269 
" style="fill:none;opacity:0.5;stroke:#008000;stroke-linecap:round;stroke-width:2;"/>
   </g>
   <g id="patch_45">
    <path d="M 235.069672 166.576159 
Q 256.314734 167.053395 277.559797 167.530631 
" style="fill:none;opacity:0.5;stroke:#800080;stroke-linecap:round;stroke-width:2;"/>
    <path d="M 236.535607 168.109468 
L 235.069672 166.576159 
L 236.60298 165.110224 
" style="fill:none;opacity:0.5;stroke:#800080;stroke-linecap:round;stroke-width:2;"/>
    <path d="M 276.093862 165.997322 
L 277.559797 167.530631 
L 276.026489 168.996566 
" style="fill:none;opacity:0.5;stroke:#800080;stroke-linecap:round;stroke-width:2;"/>
   </g>
   <g id="patch_46">
    <path d="M 69.024008 38.990269 
Q 80.853838 33.941251 92.683669 28.892233 
" style="fill:none;opacity:0.5;stroke:#008000;stroke-linecap:round;stroke-width:2;"/>
   </g>
   <g id="patch_47">
    <path d="M 63.537487 38.990269 
Q 68.024951 38.990269 72.512415 38.990269 
" style="fill:none;opacity:0.5;stroke:#800080;stroke-linecap:round;stroke-width:2;"/>
    <path d="M 65.037487 40.490269 
L 63.537487 38.990269 
L 65.037487 37.490269 
" style="fill:none;opacity:0.5;stroke:#800080;stroke-linecap:round;stroke-width:2;"/>
    <path d="M 71.012415 37.490269 
L 72.512415 38.990269 
L 71.012415 40.490269 
" style="fill:none;opacity:0.5;stroke:#800080;stroke-linecap:round;stroke-width:2;"/>
   </g>
   <g id="patch_48">
    <path d="M 92.683669 28.892233 
Q 255.343837 97.984054 418.004006 167.075875 
" style="fill:none;opacity:0.5;stroke:#008000;stroke-linecap:round;stroke-width:2;"/>
   </g>
   <g id="patch_49">
    <path d="M 91.118127 28.610895 
Q 91.700256 28.715507 92.282385 28.82012 
" style="fill:none;opacity:0.5;stroke:#800080;stroke-linecap:round;stroke-width:2;"/>
    <path d="M 92.329167 30.352556 
L 91.118127 28.610895 
L 92.859788 27.399855 
" style="fill:none;opacity:0.5;stroke:#800080;stroke-linecap:round;stroke-width:2;"/>
    <path d="M 91.071345 27.078459 
L 92.282385 28.82012 
L 90.540724 30.03116 
" style="fill:none;opacity:0.5;stroke:#800080;stroke-linecap:round;stroke-width:2;"/>
   </g>
   <g id="line2d_1">
    <path clip-path="url(#pb5b3caf56d)" d="M 424.90474 166.544399 
L 89.726211 304.728041 
L 62.123273 294.09853 
L 233.655815 166.544399 
L 62.123273 38.990269 
L 89.726211 28.360758 
" style="fill:none;stroke:#ff0000;stroke-linecap:square;stroke-width:0.2;"/>
   </g>
   <g id="line2d_2">
    <path clip-path="url(#pb5b3caf56d)" d="M 411.103271 167.607351 
L 95.641126 305.790992 
L 75.924742 296.224432 
L 280.975136 167.607351 
L 75.924742 38.990269 
L 95.641126 29.423709 
" style="fill:none;stroke:#0000ff;stroke-linecap:square;stroke-width:0.2;"/>
   </g>
  </g>
 </g>
 <defs>
  <clipPath id="pb5b3caf56d">
   <rect height="307.51175" width="409.903625" x="37.576375" y="13.32"/>
  </clipPath>
 </defs>
</svg>
