<?xml version="1.0" encoding="utf-8" standalone="no"?>
<!DOCTYPE svg PUBLIC "-//W3C//DTD SVG 1.1//EN"
  "http://www.w3.org/Graphics/SVG/1.1/DTD/svg11.dtd">
<!-- Created with matplotlib (http://matplotlib.org/) -->
<svg height="345.6pt" version="1.1" viewBox="0 0 460.8 345.6" width="460.8pt" xmlns="http://www.w3.org/2000/svg" xmlns:xlink="http://www.w3.org/1999/xlink">
 <defs>
  <style type="text/css">
*{stroke-linecap:butt;stroke-linejoin:round;}
  </style>
 </defs>
 <g id="figure_1">
  <g id="patch_1">
   <path d="M 0 345.6 
L 460.8 345.6 
L 460.8 0 
L 0 0 
z
" style="fill:#ffffff;"/>
  </g>
  <g id="axes_1">
   <g id="patch_2">
    <path clip-path="url(#pa97ec08515)" d="M 424.90474 161.974486 
C 425.950509 161.974486 426.953587 161.866983 427.693058 161.675653 
C 428.432529 161.484324 428.848017 161.224789 428.848017 160.954208 
C 428.848017 160.683627 428.432529 160.424092 427.693058 160.232762 
C 426.953587 160.041433 425.950509 159.93393 424.90474 159.93393 
C 423.858971 159.93393 422.855893 160.041433 422.116422 160.232762 
C 421.376952 160.424092 420.961463 160.683627 420.961463 160.954208 
C 420.961463 161.224789 421.376952 161.484324 422.116422 161.675653 
C 422.855893 161.866983 423.858971 161.974486 424.90474 161.974486 
z
" style="fill:#ff0000;opacity:0.2;stroke:#ff0000;stroke-linejoin:miter;stroke-width:2;"/>
   </g>
   <g id="patch_3">
    <path clip-path="url(#pa97ec08515)" d="M 89.726211 294.610609 
C 90.77198 294.610609 91.775058 294.503106 92.514529 294.311776 
C 93.253999 294.120447 93.669488 293.860912 93.669488 293.590331 
C 93.669488 293.31975 93.253999 293.060215 92.514529 292.868885 
C 91.775058 292.677556 90.77198 292.570053 89.726211 292.570053 
C 88.680442 292.570053 87.677364 292.677556 86.937893 292.868885 
C 86.198423 293.060215 85.782934 293.31975 85.782934 293.590331 
C 85.782934 293.860912 86.198423 294.120447 86.937893 294.311776 
C 87.677364 294.503106 88.680442 294.610609 89.726211 294.610609 
z
" style="fill:#ff0000;opacity:0.2;stroke:#ff0000;stroke-linejoin:miter;stroke-width:2;"/>
   </g>
   <g id="patch_4">
    <path clip-path="url(#pa97ec08515)" d="M 62.123273 284.40783 
C 63.169042 284.40783 64.17212 284.300327 64.911591 284.108998 
C 65.651061 283.917668 66.06655 283.658133 66.06655 283.387552 
C 66.06655 283.116971 65.651061 282.857436 64.911591 282.666107 
C 64.17212 282.474777 63.169042 282.367274 62.123273 282.367274 
C 61.077504 282.367274 60.074426 282.474777 59.334955 282.666107 
C 58.595485 282.857436 58.179996 283.116971 58.179996 283.387552 
C 58.179996 283.658133 58.595485 283.917668 59.334955 284.108998 
C 60.074426 284.300327 61.077504 284.40783 62.123273 284.40783 
z
" style="fill:#ff0000;opacity:0.2;stroke:#ff0000;stroke-linejoin:miter;stroke-width:2;"/>
   </g>
   <g id="patch_5">
    <path clip-path="url(#pa97ec08515)" d="M 233.655815 161.974486 
C 234.701584 161.974486 235.704662 161.866983 236.444132 161.675653 
C 237.183603 161.484324 237.599091 161.224789 237.599091 160.954208 
C 237.599091 160.683627 237.183603 160.424092 236.444132 160.232762 
C 235.704662 160.041433 234.701584 159.93393 233.655815 159.93393 
C 232.610045 159.93393 231.606967 160.041433 230.867497 160.232762 
C 230.128026 160.424092 229.712538 160.683627 229.712538 160.954208 
C 229.712538 161.224789 230.128026 161.484324 230.867497 161.675653 
C 231.606967 161.866983 232.610045 161.974486 233.655815 161.974486 
z
" style="fill:#ff0000;opacity:0.2;stroke:#ff0000;stroke-linejoin:miter;stroke-width:2;"/>
   </g>
   <g id="patch_6">
    <path clip-path="url(#pa97ec08515)" d="M 62.123273 39.541141 
C 63.169042 39.541141 64.17212 39.433638 64.911591 39.242309 
C 65.651061 39.050979 66.06655 38.791444 66.06655 38.520863 
C 66.06655 38.250283 65.651061 37.990748 64.911591 37.799418 
C 64.17212 37.608088 63.169042 37.500586 62.123273 37.500586 
C 61.077504 37.500586 60.074426 37.608088 59.334955 37.799418 
C 58.595485 37.990748 58.179996 38.250283 58.179996 38.520863 
C 58.179996 38.791444 58.595485 39.050979 59.334955 39.242309 
C 60.074426 39.433638 61.077504 39.541141 62.123273 39.541141 
z
" style="fill:#ff0000;opacity:0.2;stroke:#ff0000;stroke-linejoin:miter;stroke-width:2;"/>
   </g>
   <g id="patch_7">
    <path clip-path="url(#pa97ec08515)" d="M 89.726211 29.338363 
C 90.77198 29.338363 91.775058 29.23086 92.514529 29.03953 
C 93.253999 28.848201 93.669488 28.588666 93.669488 28.318085 
C 93.669488 28.047504 93.253999 27.787969 92.514529 27.596639 
C 91.775058 27.40531 90.77198 27.297807 89.726211 27.297807 
C 88.680442 27.297807 87.677364 27.40531 86.937893 27.596639 
C 86.198423 27.787969 85.782934 28.047504 85.782934 28.318085 
C 85.782934 28.588666 86.198423 28.848201 86.937893 29.03953 
C 87.677364 29.23086 88.680442 29.338363 89.726211 29.338363 
z
" style="fill:#ff0000;opacity:0.2;stroke:#ff0000;stroke-linejoin:miter;stroke-width:2;"/>
   </g>
   <g id="patch_8">
    <path clip-path="url(#pa97ec08515)" d="M 411.103271 174.21782 
C 412.149041 174.21782 413.152119 174.110317 413.891589 173.918988 
C 414.63106 173.727658 415.046548 173.468123 415.046548 173.197542 
C 415.046548 172.926961 414.63106 172.667426 413.891589 172.476097 
C 413.152119 172.284767 412.149041 172.177264 411.103271 172.177264 
C 410.057502 172.177264 409.054424 172.284767 408.314954 172.476097 
C 407.575483 172.667426 407.159995 172.926961 407.159995 173.197542 
C 407.159995 173.468123 407.575483 173.727658 408.314954 173.918988 
C 409.054424 174.110317 410.057502 174.21782 411.103271 174.21782 
z
" style="fill:#0000ff;opacity:0.2;stroke:#0000ff;stroke-linejoin:miter;stroke-width:2;"/>
   </g>
   <g id="patch_9">
    <path clip-path="url(#pa97ec08515)" d="M 95.641126 306.853943 
C 96.686895 306.853943 97.689973 306.74644 98.429444 306.555111 
C 99.168914 306.363781 99.584403 306.104246 99.584403 305.833665 
C 99.584403 305.563084 99.168914 305.303549 98.429444 305.11222 
C 97.689973 304.92089 96.686895 304.813387 95.641126 304.813387 
C 94.595357 304.813387 93.592279 304.92089 92.852808 305.11222 
C 92.113338 305.303549 91.697849 305.563084 91.697849 305.833665 
C 91.697849 306.104246 92.113338 306.363781 92.852808 306.555111 
C 93.592279 306.74644 94.595357 306.853943 95.641126 306.853943 
z
" style="fill:#0000ff;opacity:0.2;stroke:#0000ff;stroke-linejoin:miter;stroke-width:2;"/>
   </g>
   <g id="patch_10">
    <path clip-path="url(#pa97ec08515)" d="M 75.924742 297.671442 
C 76.970511 297.671442 77.973589 297.563939 78.71306 297.37261 
C 79.45253 297.18128 79.868019 296.921745 79.868019 296.651164 
C 79.868019 296.380584 79.45253 296.121049 78.71306 295.929719 
C 77.973589 295.73839 76.970511 295.630887 75.924742 295.630887 
C 74.878973 295.630887 73.875895 295.73839 73.136424 295.929719 
C 72.396954 296.121049 71.981465 296.380584 71.981465 296.651164 
C 71.981465 296.921745 72.396954 297.18128 73.136424 297.37261 
C 73.875895 297.563939 74.878973 297.671442 75.924742 297.671442 
z
" style="fill:#0000ff;opacity:0.2;stroke:#0000ff;stroke-linejoin:miter;stroke-width:2;"/>
   </g>
   <g id="patch_11">
    <path clip-path="url(#pa97ec08515)" d="M 280.975136 174.21782 
C 282.020906 174.21782 283.023984 174.110317 283.763454 173.918988 
C 284.502925 173.727658 284.918413 173.468123 284.918413 173.197542 
C 284.918413 172.926961 284.502925 172.667426 283.763454 172.476097 
C 283.023984 172.284767 282.020906 172.177264 280.975136 172.177264 
C 279.929367 172.177264 278.926289 172.284767 278.186819 172.476097 
C 277.447348 172.667426 277.03186 172.926961 277.03186 173.197542 
C 277.03186 173.468123 277.447348 173.727658 278.186819 173.918988 
C 278.926289 174.110317 279.929367 174.21782 280.975136 174.21782 
z
" style="fill:#0000ff;opacity:0.2;stroke:#0000ff;stroke-linejoin:miter;stroke-width:2;"/>
   </g>
   <g id="patch_12">
    <path clip-path="url(#pa97ec08515)" d="M 75.924742 50.764198 
C 76.970511 50.764198 77.973589 50.656695 78.71306 50.465365 
C 79.45253 50.274036 79.868019 50.014501 79.868019 49.74392 
C 79.868019 49.473339 79.45253 49.213804 78.71306 49.022475 
C 77.973589 48.831145 76.970511 48.723642 75.924742 48.723642 
C 74.878973 48.723642 73.875895 48.831145 73.136424 49.022475 
C 72.396954 49.213804 71.981465 49.473339 71.981465 49.74392 
C 71.981465 50.014501 72.396954 50.274036 73.136424 50.465365 
C 73.875895 50.656695 74.878973 50.764198 75.924742 50.764198 
z
" style="fill:#0000ff;opacity:0.2;stroke:#0000ff;stroke-linejoin:miter;stroke-width:2;"/>
   </g>
   <g id="patch_13">
    <path clip-path="url(#pa97ec08515)" d="M 95.641126 41.581697 
C 96.686895 41.581697 97.689973 41.474194 98.429444 41.282865 
C 99.168914 41.091535 99.584403 40.832 99.584403 40.561419 
C 99.584403 40.290838 99.168914 40.031303 98.429444 39.839974 
C 97.689973 39.648644 96.686895 39.541141 95.641126 39.541141 
C 94.595357 39.541141 93.592279 39.648644 92.852808 39.839974 
C 92.113338 40.031303 91.697849 40.290838 91.697849 40.561419 
C 91.697849 40.832 92.113338 41.091535 92.852808 41.282865 
C 93.592279 41.474194 94.595357 41.581697 95.641126 41.581697 
z
" style="fill:#0000ff;opacity:0.2;stroke:#0000ff;stroke-linejoin:miter;stroke-width:2;"/>
   </g>
   <g id="patch_14">
    <path clip-path="url(#pa97ec08515)" d="M 424.90474 160.954208 
C 424.90474 218.599907 302.663159 268.593523 89.726211 293.590331 
C 73.953104 293.080192 56.208358 288.488942 62.123273 283.387552 
C 146.903725 258.390744 233.655815 217.57963 233.655815 160.954208 
C 233.655815 104.328786 146.903725 63.517671 62.123273 38.520863 
C 56.208358 33.419474 73.953104 28.828224 89.726211 28.318085 
C 302.663159 53.314893 424.90474 103.308508 424.90474 160.954208 
" style="fill:none;stroke:#ff0000;stroke-linejoin:miter;stroke-width:0.5;"/>
   </g>
   <g id="patch_15">
    <path clip-path="url(#pa97ec08515)" d="M 411.103271 173.197542 
C 411.103271 230.843242 302.663159 280.836857 95.641126 305.833665 
C 81.839657 305.323526 68.038188 301.242415 75.924742 296.651164 
C 202.1096 270.634079 280.975136 229.822964 280.975136 173.197542 
C 280.975136 116.57212 202.1096 75.761006 75.924742 49.74392 
C 68.038188 45.15267 81.839657 41.071558 95.641126 40.561419 
C 302.663159 65.558227 411.103271 115.551843 411.103271 173.197542 
" style="fill:none;stroke:#0000ff;stroke-linejoin:miter;stroke-width:0.5;"/>
   </g>
   <g id="[&quot;g_s&quot;:1,&quot;g_t&quot;:1,&quot;coords&quot;:[[254.0, -260.0],[247.0, -284.0]],&quot;certainty&quot;:12]">
    <path clip-path="url(#pa97ec08515)" d="M 424.90474 164.270111 
C 428.30349 164.270111 431.563494 163.920726 433.966773 163.298905 
C 436.370052 162.677084 437.72039 161.833596 437.72039 160.954208 
C 437.72039 160.07482 436.370052 159.231331 433.966773 158.60951 
C 431.563494 157.987689 428.30349 157.638305 424.90474 157.638305 
C 421.50599 157.638305 418.245987 157.987689 415.842707 158.60951 
C 413.439428 159.231331 412.089091 160.07482 412.089091 160.954208 
C 412.089091 161.833596 413.439428 162.677084 415.842707 163.298905 
C 418.245987 163.920726 421.50599 164.270111 424.90474 164.270111 
z
" style="fill:#0000ff;opacity:0.2;stroke:#0000ff;stroke-linejoin:miter;stroke-width:2;"/>
   </g>
   <g id="[&quot;g_s&quot;:1,&quot;g_t&quot;:1,&quot;coords&quot;:[[247.0, -284.0],[254.0, -260.0]],&quot;certainty&quot;:12]">
    <path clip-path="url(#pa97ec08515)" d="M 411.103271 176.513445 
C 414.502021 176.513445 417.762025 176.164061 420.165304 175.54224 
C 422.568583 174.920419 423.918921 174.07693 423.918921 173.197542 
C 423.918921 172.318154 422.568583 171.474666 420.165304 170.852845 
C 417.762025 170.231024 414.502021 169.881639 411.103271 169.881639 
C 407.704521 169.881639 404.444518 170.231024 402.041239 170.852845 
C 399.637959 171.474666 398.287622 172.318154 398.287622 173.197542 
C 398.287622 174.07693 399.637959 174.920419 402.041239 175.54224 
C 404.444518 176.164061 407.704521 176.513445 411.103271 176.513445 
z
" style="fill:#ff0000;opacity:0.2;stroke:#ff0000;stroke-linejoin:miter;stroke-width:2;"/>
   </g>
   <g id="patch_16">
    <path d="M 424.90474 160.954208 
Q 418.753719 166.410801 414.321841 170.342337 
" style="fill:none;opacity:0.5;stroke:#0000ff;stroke-linecap:round;stroke-width:3.25;"/>
    <path d="M 416.439375 170.469019 
L 414.321841 170.342337 
L 414.448523 168.224803 
" style="fill:none;opacity:0.5;stroke:#0000ff;stroke-linecap:round;stroke-width:3.25;"/>
   </g>
   <g id="[&quot;g_s&quot;:2,&quot;g_t&quot;:2,&quot;coords&quot;:[[84.0, -520.0],[87.0, -544.0]],&quot;certainty&quot;:5]">
    <path clip-path="url(#pa97ec08515)" d="M 89.726211 295.120748 
C 91.294865 295.120748 92.799482 294.959493 93.908688 294.672499 
C 95.017893 294.385505 95.641126 293.996202 95.641126 293.590331 
C 95.641126 293.18446 95.017893 292.795157 93.908688 292.508163 
C 92.799482 292.221168 91.294865 292.059914 89.726211 292.059914 
C 88.157557 292.059914 86.65294 292.221168 85.543734 292.508163 
C 84.434528 292.795157 83.811296 293.18446 83.811296 293.590331 
C 83.811296 293.996202 84.434528 294.385505 85.543734 294.672499 
C 86.65294 294.959493 88.157557 295.120748 89.726211 295.120748 
z
" style="fill:#0000ff;opacity:0.2;stroke:#0000ff;stroke-linejoin:miter;stroke-width:2;"/>
   </g>
   <g id="[&quot;g_s&quot;:2,&quot;g_t&quot;:2,&quot;coords&quot;:[[87.0, -544.0],[84.0, -520.0]],&quot;certainty&quot;:5]">
    <path clip-path="url(#pa97ec08515)" d="M 95.641126 307.364082 
C 97.20978 307.364082 98.714397 307.202828 99.823603 306.915833 
C 100.932809 306.628839 101.556041 306.239537 101.556041 305.833665 
C 101.556041 305.427794 100.932809 305.038492 99.823603 304.751497 
C 98.714397 304.464503 97.20978 304.303249 95.641126 304.303249 
C 94.072472 304.303249 92.567855 304.464503 91.458649 304.751497 
C 90.349444 305.038492 89.726211 305.427794 89.726211 305.833665 
C 89.726211 306.239537 90.349444 306.628839 91.458649 306.915833 
C 92.567855 307.202828 94.072472 307.364082 95.641126 307.364082 
z
" style="fill:#ff0000;opacity:0.2;stroke:#ff0000;stroke-linejoin:miter;stroke-width:2;"/>
   </g>
   <g id="patch_17">
    <path d="M 89.726211 293.590331 
Q 92.248281 298.810786 94.308956 303.076194 
" style="fill:none;opacity:0.5;stroke:#0000ff;stroke-linecap:round;stroke-width:1.5;"/>
    <path d="M 95.007084 301.073042 
L 94.308956 303.076194 
L 92.305804 302.378066 
" style="fill:none;opacity:0.5;stroke:#0000ff;stroke-linecap:round;stroke-width:1.5;"/>
   </g>
   <g id="[&quot;g_s&quot;:3,&quot;g_t&quot;:3,&quot;coords&quot;:[[70.0, -500.0],[77.0, -526.0]],&quot;certainty&quot;:6]">
    <path clip-path="url(#pa97ec08515)" d="M 62.123273 285.173038 
C 63.953369 285.173038 65.708756 284.984908 67.002829 284.650082 
C 68.296903 284.315255 69.024008 283.861069 69.024008 283.387552 
C 69.024008 282.914036 68.296903 282.459849 67.002829 282.125023 
C 65.708756 281.790196 63.953369 281.602066 62.123273 281.602066 
C 60.293177 281.602066 58.53779 281.790196 57.243717 282.125023 
C 55.949644 282.459849 55.222539 282.914036 55.222539 283.387552 
C 55.222539 283.861069 55.949644 284.315255 57.243717 284.650082 
C 58.53779 284.984908 60.293177 285.173038 62.123273 285.173038 
z
" style="fill:#0000ff;opacity:0.2;stroke:#0000ff;stroke-linejoin:miter;stroke-width:2;"/>
   </g>
   <g id="[&quot;g_s&quot;:3,&quot;g_t&quot;:3,&quot;coords&quot;:[[77.0, -526.0],[70.0, -500.0]],&quot;certainty&quot;:6]">
    <path clip-path="url(#pa97ec08515)" d="M 75.924742 298.436651 
C 77.754838 298.436651 79.510225 298.248521 80.804298 297.913694 
C 82.098372 297.578867 82.825476 297.124681 82.825476 296.651164 
C 82.825476 296.177648 82.098372 295.723462 80.804298 295.388635 
C 79.510225 295.053808 77.754838 294.865678 75.924742 294.865678 
C 74.094646 294.865678 72.339259 295.053808 71.045186 295.388635 
C 69.751113 295.723462 69.024008 296.177648 69.024008 296.651164 
C 69.024008 297.124681 69.751113 297.578867 71.045186 297.913694 
C 72.339259 298.248521 74.094646 298.436651 75.924742 298.436651 
z
" style="fill:#ff0000;opacity:0.2;stroke:#ff0000;stroke-linejoin:miter;stroke-width:2;"/>
   </g>
   <g id="patch_18">
    <path d="M 62.123273 283.387552 
Q 68.30462 289.328005 73.593753 294.411017 
" style="fill:none;opacity:0.5;stroke:#0000ff;stroke-linecap:round;stroke-width:1.75;"/>
    <path d="M 73.551605 292.290115 
L 73.593753 294.411017 
L 71.472852 294.453165 
" style="fill:none;opacity:0.5;stroke:#0000ff;stroke-linecap:round;stroke-width:1.75;"/>
   </g>
   <g id="[&quot;g_s&quot;:4,&quot;g_t&quot;:4,&quot;coords&quot;:[[157.0, -260.0],[181.0, -284.0]],&quot;certainty&quot;:11]">
    <path clip-path="url(#pa97ec08515)" d="M 233.655815 164.015041 
C 236.793122 164.015041 239.802356 163.692533 242.020768 163.118544 
C 244.23918 162.544555 245.485645 161.76595 245.485645 160.954208 
C 245.485645 160.142465 244.23918 159.36386 242.020768 158.789872 
C 239.802356 158.215883 236.793122 157.893374 233.655815 157.893374 
C 230.518507 157.893374 227.509273 158.215883 225.290861 158.789872 
C 223.07245 159.36386 221.825984 160.142465 221.825984 160.954208 
C 221.825984 161.76595 223.07245 162.544555 225.290861 163.118544 
C 227.509273 163.692533 230.518507 164.015041 233.655815 164.015041 
z
" style="fill:#0000ff;opacity:0.2;stroke:#0000ff;stroke-linejoin:miter;stroke-width:2;"/>
   </g>
   <g id="[&quot;g_s&quot;:4,&quot;g_t&quot;:4,&quot;coords&quot;:[[181.0, -284.0],[157.0, -260.0]],&quot;certainty&quot;:11]">
    <path clip-path="url(#pa97ec08515)" d="M 280.975136 176.258376 
C 284.112444 176.258376 287.121678 175.935867 289.34009 175.361878 
C 291.558501 174.78789 292.804967 174.009285 292.804967 173.197542 
C 292.804967 172.3858 291.558501 171.607195 289.34009 171.033206 
C 287.121678 170.459217 284.112444 170.136709 280.975136 170.136709 
C 277.837829 170.136709 274.828595 170.459217 272.610183 171.033206 
C 270.391772 171.607195 269.145306 172.3858 269.145306 173.197542 
C 269.145306 174.009285 270.391772 174.78789 272.610183 175.361878 
C 274.828595 175.935867 277.837829 176.258376 280.975136 176.258376 
z
" style="fill:#ff0000;opacity:0.2;stroke:#ff0000;stroke-linejoin:miter;stroke-width:2;"/>
   </g>
   <g id="patch_19">
    <path d="M 233.655815 160.954208 
Q 256.346504 166.825165 276.983502 172.164752 
" style="fill:none;opacity:0.5;stroke:#0000ff;stroke-linecap:round;stroke-width:3;"/>
    <path d="M 275.907058 170.336839 
L 276.983502 172.164752 
L 275.155588 173.241197 
" style="fill:none;opacity:0.5;stroke:#0000ff;stroke-linecap:round;stroke-width:3;"/>
   </g>
   <g id="[&quot;g_s&quot;:5,&quot;g_t&quot;:5,&quot;coords&quot;:[[70.0, -20.0],[77.0, -42.0]],&quot;certainty&quot;:6]">
    <path clip-path="url(#pa97ec08515)" d="M 62.123273 40.30635 
C 63.953369 40.30635 65.708756 40.11822 67.002829 39.783393 
C 68.296903 39.448566 69.024008 38.99438 69.024008 38.520863 
C 69.024008 38.047347 68.296903 37.593161 67.002829 37.258334 
C 65.708756 36.923507 63.953369 36.735377 62.123273 36.735377 
C 60.293177 36.735377 58.53779 36.923507 57.243717 37.258334 
C 55.949644 37.593161 55.222539 38.047347 55.222539 38.520863 
C 55.222539 38.99438 55.949644 39.448566 57.243717 39.783393 
C 58.53779 40.11822 60.293177 40.30635 62.123273 40.30635 
z
" style="fill:#0000ff;opacity:0.2;stroke:#0000ff;stroke-linejoin:miter;stroke-width:2;"/>
   </g>
   <g id="[&quot;g_s&quot;:5,&quot;g_t&quot;:5,&quot;coords&quot;:[[77.0, -42.0],[70.0, -20.0]],&quot;certainty&quot;:6]">
    <path clip-path="url(#pa97ec08515)" d="M 75.924742 51.529406 
C 77.754838 51.529406 79.510225 51.341276 80.804298 51.006449 
C 82.098372 50.671623 82.825476 50.217436 82.825476 49.74392 
C 82.825476 49.270403 82.098372 48.816217 80.804298 48.481391 
C 79.510225 48.146564 77.754838 47.958434 75.924742 47.958434 
C 74.094646 47.958434 72.339259 48.146564 71.045186 48.481391 
C 69.751113 48.816217 69.024008 49.270403 69.024008 49.74392 
C 69.024008 50.217436 69.751113 50.671623 71.045186 51.006449 
C 72.339259 51.341276 74.094646 51.529406 75.924742 51.529406 
z
" style="fill:#ff0000;opacity:0.2;stroke:#ff0000;stroke-linejoin:miter;stroke-width:2;"/>
   </g>
   <g id="patch_20">
    <path d="M 62.123273 38.520863 
Q 68.247338 43.500821 73.41133 47.700067 
" style="fill:none;opacity:0.5;stroke:#0000ff;stroke-linecap:round;stroke-width:1.75;"/>
    <path d="M 73.19391 45.589918 
L 73.41133 47.700067 
L 71.301181 47.917487 
" style="fill:none;opacity:0.5;stroke:#0000ff;stroke-linecap:round;stroke-width:1.75;"/>
   </g>
   <g id="[&quot;g_s&quot;:6,&quot;g_t&quot;:6,&quot;coords&quot;:[[84.0, 0.0],[87.0, -24.0]],&quot;certainty&quot;:11]">
    <path clip-path="url(#pa97ec08515)" d="M 89.726211 31.378918 
C 92.863519 31.378918 95.872753 31.05641 98.091164 30.482421 
C 100.309576 29.908432 101.556041 29.129827 101.556041 28.318085 
C 101.556041 27.506342 100.309576 26.727737 98.091164 26.153748 
C 95.872753 25.57976 92.863519 25.257251 89.726211 25.257251 
C 86.588903 25.257251 83.579669 25.57976 81.361258 26.153748 
C 79.142846 26.727737 77.89638 27.506342 77.89638 28.318085 
C 77.89638 29.129827 79.142846 29.908432 81.361258 30.482421 
C 83.579669 31.05641 86.588903 31.378918 89.726211 31.378918 
z
" style="fill:#0000ff;opacity:0.2;stroke:#0000ff;stroke-linejoin:miter;stroke-width:2;"/>
   </g>
   <g id="[&quot;g_s&quot;:6,&quot;g_t&quot;:6,&quot;coords&quot;:[[87.0, -24.0],[84.0, 0.0]],&quot;certainty&quot;:11]">
    <path clip-path="url(#pa97ec08515)" d="M 95.641126 43.622253 
C 98.778434 43.622253 101.787668 43.299744 104.006079 42.725755 
C 106.224491 42.151767 107.470957 41.373162 107.470957 40.561419 
C 107.470957 39.749677 106.224491 38.971072 104.006079 38.397083 
C 101.787668 37.823094 98.778434 37.500586 95.641126 37.500586 
C 92.503818 37.500586 89.494584 37.823094 87.276173 38.397083 
C 85.057761 38.971072 83.811296 39.749677 83.811296 40.561419 
C 83.811296 41.373162 85.057761 42.151767 87.276173 42.725755 
C 89.494584 43.299744 92.503818 43.622253 95.641126 43.622253 
z
" style="fill:#ff0000;opacity:0.2;stroke:#ff0000;stroke-linejoin:miter;stroke-width:2;"/>
   </g>
   <g id="patch_21">
    <path d="M 89.726211 28.318085 
Q 92.248281 33.53854 93.84756 36.848901 
" style="fill:none;opacity:0.5;stroke:#0000ff;stroke-linecap:round;stroke-width:3;"/>
    <path d="M 94.545688 34.84575 
L 93.84756 36.848901 
L 91.844408 36.150773 
" style="fill:none;opacity:0.5;stroke:#0000ff;stroke-linecap:round;stroke-width:3;"/>
   </g>
   <g id="[&quot;g_s&quot;:1,&quot;g_t&quot;:1,&quot;coords&quot;:[[247.0, -284.0],[254.0, -260.0]],&quot;certainty&quot;:12]">
    <path clip-path="url(#pa97ec08515)" d="M 411.103271 176.513445 
C 414.502021 176.513445 417.762025 176.164061 420.165304 175.54224 
C 422.568583 174.920419 423.918921 174.07693 423.918921 173.197542 
C 423.918921 172.318154 422.568583 171.474666 420.165304 170.852845 
C 417.762025 170.231024 414.502021 169.881639 411.103271 169.881639 
C 407.704521 169.881639 404.444518 170.231024 402.041239 170.852845 
C 399.637959 171.474666 398.287622 172.318154 398.287622 173.197542 
C 398.287622 174.07693 399.637959 174.920419 402.041239 175.54224 
C 404.444518 176.164061 407.704521 176.513445 411.103271 176.513445 
z
" style="fill:#0000ff;opacity:0.2;stroke:#0000ff;stroke-linejoin:miter;stroke-width:2;"/>
   </g>
   <g id="[&quot;g_s&quot;:1,&quot;g_t&quot;:1,&quot;coords&quot;:[[254.0, -260.0],[247.0, -284.0]],&quot;certainty&quot;:12]">
    <path clip-path="url(#pa97ec08515)" d="M 424.90474 164.270111 
C 428.30349 164.270111 431.563494 163.920726 433.966773 163.298905 
C 436.370052 162.677084 437.72039 161.833596 437.72039 160.954208 
C 437.72039 160.07482 436.370052 159.231331 433.966773 158.60951 
C 431.563494 157.987689 428.30349 157.638305 424.90474 157.638305 
C 421.50599 157.638305 418.245987 157.987689 415.842707 158.60951 
C 413.439428 159.231331 412.089091 160.07482 412.089091 160.954208 
C 412.089091 161.833596 413.439428 162.677084 415.842707 163.298905 
C 418.245987 163.920726 421.50599 164.270111 424.90474 164.270111 
z
" style="fill:#ff0000;opacity:0.2;stroke:#ff0000;stroke-linejoin:miter;stroke-width:2;"/>
   </g>
   <g id="patch_22">
    <path d="M 411.103271 173.197542 
Q 417.254292 167.740949 421.686171 163.809413 
" style="fill:none;opacity:0.5;stroke:#ff0000;stroke-linecap:round;stroke-width:3.25;"/>
    <path d="M 419.568637 163.682731 
L 421.686171 163.809413 
L 421.559489 165.926947 
" style="fill:none;opacity:0.5;stroke:#ff0000;stroke-linecap:round;stroke-width:3.25;"/>
   </g>
   <g id="[&quot;g_s&quot;:2,&quot;g_t&quot;:2,&quot;coords&quot;:[[87.0, -544.0],[84.0, -520.0]],&quot;certainty&quot;:5]">
    <path clip-path="url(#pa97ec08515)" d="M 95.641126 307.364082 
C 97.20978 307.364082 98.714397 307.202828 99.823603 306.915833 
C 100.932809 306.628839 101.556041 306.239537 101.556041 305.833665 
C 101.556041 305.427794 100.932809 305.038492 99.823603 304.751497 
C 98.714397 304.464503 97.20978 304.303249 95.641126 304.303249 
C 94.072472 304.303249 92.567855 304.464503 91.458649 304.751497 
C 90.349444 305.038492 89.726211 305.427794 89.726211 305.833665 
C 89.726211 306.239537 90.349444 306.628839 91.458649 306.915833 
C 92.567855 307.202828 94.072472 307.364082 95.641126 307.364082 
z
" style="fill:#0000ff;opacity:0.2;stroke:#0000ff;stroke-linejoin:miter;stroke-width:2;"/>
   </g>
   <g id="[&quot;g_s&quot;:2,&quot;g_t&quot;:2,&quot;coords&quot;:[[84.0, -520.0],[87.0, -544.0]],&quot;certainty&quot;:5]">
    <path clip-path="url(#pa97ec08515)" d="M 89.726211 295.120748 
C 91.294865 295.120748 92.799482 294.959493 93.908688 294.672499 
C 95.017893 294.385505 95.641126 293.996202 95.641126 293.590331 
C 95.641126 293.18446 95.017893 292.795157 93.908688 292.508163 
C 92.799482 292.221168 91.294865 292.059914 89.726211 292.059914 
C 88.157557 292.059914 86.65294 292.221168 85.543734 292.508163 
C 84.434528 292.795157 83.811296 293.18446 83.811296 293.590331 
C 83.811296 293.996202 84.434528 294.385505 85.543734 294.672499 
C 86.65294 294.959493 88.157557 295.120748 89.726211 295.120748 
z
" style="fill:#ff0000;opacity:0.2;stroke:#ff0000;stroke-linejoin:miter;stroke-width:2;"/>
   </g>
   <g id="patch_23">
    <path d="M 95.641126 305.833665 
Q 93.119056 300.61321 91.058381 296.347802 
" style="fill:none;opacity:0.5;stroke:#ff0000;stroke-linecap:round;stroke-width:1.5;"/>
    <path d="M 90.360253 298.350954 
L 91.058381 296.347802 
L 93.061533 297.04593 
" style="fill:none;opacity:0.5;stroke:#ff0000;stroke-linecap:round;stroke-width:1.5;"/>
   </g>
   <g id="[&quot;g_s&quot;:3,&quot;g_t&quot;:3,&quot;coords&quot;:[[77.0, -526.0],[70.0, -500.0]],&quot;certainty&quot;:6]">
    <path clip-path="url(#pa97ec08515)" d="M 75.924742 298.436651 
C 77.754838 298.436651 79.510225 298.248521 80.804298 297.913694 
C 82.098372 297.578867 82.825476 297.124681 82.825476 296.651164 
C 82.825476 296.177648 82.098372 295.723462 80.804298 295.388635 
C 79.510225 295.053808 77.754838 294.865678 75.924742 294.865678 
C 74.094646 294.865678 72.339259 295.053808 71.045186 295.388635 
C 69.751113 295.723462 69.024008 296.177648 69.024008 296.651164 
C 69.024008 297.124681 69.751113 297.578867 71.045186 297.913694 
C 72.339259 298.248521 74.094646 298.436651 75.924742 298.436651 
z
" style="fill:#0000ff;opacity:0.2;stroke:#0000ff;stroke-linejoin:miter;stroke-width:2;"/>
   </g>
   <g id="[&quot;g_s&quot;:3,&quot;g_t&quot;:3,&quot;coords&quot;:[[70.0, -500.0],[77.0, -526.0]],&quot;certainty&quot;:6]">
    <path clip-path="url(#pa97ec08515)" d="M 62.123273 285.173038 
C 63.953369 285.173038 65.708756 284.984908 67.002829 284.650082 
C 68.296903 284.315255 69.024008 283.861069 69.024008 283.387552 
C 69.024008 282.914036 68.296903 282.459849 67.002829 282.125023 
C 65.708756 281.790196 63.953369 281.602066 62.123273 281.602066 
C 60.293177 281.602066 58.53779 281.790196 57.243717 282.125023 
C 55.949644 282.459849 55.222539 282.914036 55.222539 283.387552 
C 55.222539 283.861069 55.949644 284.315255 57.243717 284.650082 
C 58.53779 284.984908 60.293177 285.173038 62.123273 285.173038 
z
" style="fill:#ff0000;opacity:0.2;stroke:#ff0000;stroke-linejoin:miter;stroke-width:2;"/>
   </g>
   <g id="patch_24">
    <path d="M 75.924742 296.651164 
Q 69.743396 290.710711 64.454262 285.6277 
" style="fill:none;opacity:0.5;stroke:#ff0000;stroke-linecap:round;stroke-width:1.75;"/>
    <path d="M 64.49641 287.748602 
L 64.454262 285.6277 
L 66.575163 285.585552 
" style="fill:none;opacity:0.5;stroke:#ff0000;stroke-linecap:round;stroke-width:1.75;"/>
   </g>
   <g id="[&quot;g_s&quot;:4,&quot;g_t&quot;:4,&quot;coords&quot;:[[181.0, -284.0],[157.0, -260.0]],&quot;certainty&quot;:11]">
    <path clip-path="url(#pa97ec08515)" d="M 280.975136 176.258376 
C 284.112444 176.258376 287.121678 175.935867 289.34009 175.361878 
C 291.558501 174.78789 292.804967 174.009285 292.804967 173.197542 
C 292.804967 172.3858 291.558501 171.607195 289.34009 171.033206 
C 287.121678 170.459217 284.112444 170.136709 280.975136 170.136709 
C 277.837829 170.136709 274.828595 170.459217 272.610183 171.033206 
C 270.391772 171.607195 269.145306 172.3858 269.145306 173.197542 
C 269.145306 174.009285 270.391772 174.78789 272.610183 175.361878 
C 274.828595 175.935867 277.837829 176.258376 280.975136 176.258376 
z
" style="fill:#0000ff;opacity:0.2;stroke:#0000ff;stroke-linejoin:miter;stroke-width:2;"/>
   </g>
   <g id="[&quot;g_s&quot;:4,&quot;g_t&quot;:4,&quot;coords&quot;:[[157.0, -260.0],[181.0, -284.0]],&quot;certainty&quot;:11]">
    <path clip-path="url(#pa97ec08515)" d="M 233.655815 164.015041 
C 236.793122 164.015041 239.802356 163.692533 242.020768 163.118544 
C 244.23918 162.544555 245.485645 161.76595 245.485645 160.954208 
C 245.485645 160.142465 244.23918 159.36386 242.020768 158.789872 
C 239.802356 158.215883 236.793122 157.893374 233.655815 157.893374 
C 230.518507 157.893374 227.509273 158.215883 225.290861 158.789872 
C 223.07245 159.36386 221.825984 160.142465 221.825984 160.954208 
C 221.825984 161.76595 223.07245 162.544555 225.290861 163.118544 
C 227.509273 163.692533 230.518507 164.015041 233.655815 164.015041 
z
" style="fill:#ff0000;opacity:0.2;stroke:#ff0000;stroke-linejoin:miter;stroke-width:2;"/>
   </g>
   <g id="patch_25">
    <path d="M 280.975136 173.197542 
Q 258.284447 167.326585 237.647449 161.986998 
" style="fill:none;opacity:0.5;stroke:#ff0000;stroke-linecap:round;stroke-width:3;"/>
    <path d="M 238.723893 163.814911 
L 237.647449 161.986998 
L 239.475363 160.910553 
" style="fill:none;opacity:0.5;stroke:#ff0000;stroke-linecap:round;stroke-width:3;"/>
   </g>
   <g id="[&quot;g_s&quot;:5,&quot;g_t&quot;:5,&quot;coords&quot;:[[77.0, -42.0],[70.0, -20.0]],&quot;certainty&quot;:6]">
    <path clip-path="url(#pa97ec08515)" d="M 75.924742 51.529406 
C 77.754838 51.529406 79.510225 51.341276 80.804298 51.006449 
C 82.098372 50.671623 82.825476 50.217436 82.825476 49.74392 
C 82.825476 49.270403 82.098372 48.816217 80.804298 48.481391 
C 79.510225 48.146564 77.754838 47.958434 75.924742 47.958434 
C 74.094646 47.958434 72.339259 48.146564 71.045186 48.481391 
C 69.751113 48.816217 69.024008 49.270403 69.024008 49.74392 
C 69.024008 50.217436 69.751113 50.671623 71.045186 51.006449 
C 72.339259 51.341276 74.094646 51.529406 75.924742 51.529406 
z
" style="fill:#0000ff;opacity:0.2;stroke:#0000ff;stroke-linejoin:miter;stroke-width:2;"/>
   </g>
   <g id="[&quot;g_s&quot;:5,&quot;g_t&quot;:5,&quot;coords&quot;:[[70.0, -20.0],[77.0, -42.0]],&quot;certainty&quot;:6]">
    <path clip-path="url(#pa97ec08515)" d="M 62.123273 40.30635 
C 63.953369 40.30635 65.708756 40.11822 67.002829 39.783393 
C 68.296903 39.448566 69.024008 38.99438 69.024008 38.520863 
C 69.024008 38.047347 68.296903 37.593161 67.002829 37.258334 
C 65.708756 36.923507 63.953369 36.735377 62.123273 36.735377 
C 60.293177 36.735377 58.53779 36.923507 57.243717 37.258334 
C 55.949644 37.593161 55.222539 38.047347 55.222539 38.520863 
C 55.222539 38.99438 55.949644 39.448566 57.243717 39.783393 
C 58.53779 40.11822 60.293177 40.30635 62.123273 40.30635 
z
" style="fill:#ff0000;opacity:0.2;stroke:#ff0000;stroke-linejoin:miter;stroke-width:2;"/>
   </g>
   <g id="patch_26">
    <path d="M 75.924742 49.74392 
Q 69.800677 44.763963 64.636686 40.564716 
" style="fill:none;opacity:0.5;stroke:#ff0000;stroke-linecap:round;stroke-width:1.75;"/>
    <path d="M 64.854106 42.674865 
L 64.636686 40.564716 
L 66.746834 40.347296 
" style="fill:none;opacity:0.5;stroke:#ff0000;stroke-linecap:round;stroke-width:1.75;"/>
   </g>
   <g id="[&quot;g_s&quot;:6,&quot;g_t&quot;:6,&quot;coords&quot;:[[87.0, -24.0],[84.0, 0.0]],&quot;certainty&quot;:11]">
    <path clip-path="url(#pa97ec08515)" d="M 95.641126 43.622253 
C 98.778434 43.622253 101.787668 43.299744 104.006079 42.725755 
C 106.224491 42.151767 107.470957 41.373162 107.470957 40.561419 
C 107.470957 39.749677 106.224491 38.971072 104.006079 38.397083 
C 101.787668 37.823094 98.778434 37.500586 95.641126 37.500586 
C 92.503818 37.500586 89.494584 37.823094 87.276173 38.397083 
C 85.057761 38.971072 83.811296 39.749677 83.811296 40.561419 
C 83.811296 41.373162 85.057761 42.151767 87.276173 42.725755 
C 89.494584 43.299744 92.503818 43.622253 95.641126 43.622253 
z
" style="fill:#0000ff;opacity:0.2;stroke:#0000ff;stroke-linejoin:miter;stroke-width:2;"/>
   </g>
   <g id="[&quot;g_s&quot;:6,&quot;g_t&quot;:6,&quot;coords&quot;:[[84.0, 0.0],[87.0, -24.0]],&quot;certainty&quot;:11]">
    <path clip-path="url(#pa97ec08515)" d="M 89.726211 31.378918 
C 92.863519 31.378918 95.872753 31.05641 98.091164 30.482421 
C 100.309576 29.908432 101.556041 29.129827 101.556041 28.318085 
C 101.556041 27.506342 100.309576 26.727737 98.091164 26.153748 
C 95.872753 25.57976 92.863519 25.257251 89.726211 25.257251 
C 86.588903 25.257251 83.579669 25.57976 81.361258 26.153748 
C 79.142846 26.727737 77.89638 27.506342 77.89638 28.318085 
C 77.89638 29.129827 79.142846 29.908432 81.361258 30.482421 
C 83.579669 31.05641 86.588903 31.378918 89.726211 31.378918 
z
" style="fill:#ff0000;opacity:0.2;stroke:#ff0000;stroke-linejoin:miter;stroke-width:2;"/>
   </g>
   <g id="patch_27">
    <path d="M 95.641126 40.561419 
Q 93.119056 35.340964 91.519777 32.030603 
" style="fill:none;opacity:0.5;stroke:#ff0000;stroke-linecap:round;stroke-width:3;"/>
    <path d="M 90.821649 34.033754 
L 91.519777 32.030603 
L 93.522929 32.728731 
" style="fill:none;opacity:0.5;stroke:#ff0000;stroke-linecap:round;stroke-width:3;"/>
   </g>
   <g id="patch_28">
    <path clip-path="url(#pa97ec08515)" d="M 418.004006 169.62657 
C 420.618429 169.62657 423.126124 169.357812 424.9748 168.879489 
C 426.823477 168.401165 427.862198 167.752327 427.862198 167.075875 
C 427.862198 166.399423 426.823477 165.750585 424.9748 165.272261 
C 423.126124 164.793938 420.618429 164.52518 418.004006 164.52518 
C 415.389583 164.52518 412.881888 164.793938 411.033211 165.272261 
C 409.184535 165.750585 408.145814 166.399423 408.145814 167.075875 
C 408.145814 167.752327 409.184535 168.401165 411.033211 168.879489 
C 412.881888 169.357812 415.389583 169.62657 418.004006 169.62657 
z
" style="fill:#008000;opacity:0.2;stroke:#008000;stroke-linejoin:miter;stroke-width:2;"/>
   </g>
   <g id="patch_29">
    <path clip-path="url(#pa97ec08515)" d="M 92.683669 302.262693 
C 95.298092 302.262693 97.805787 301.993935 99.654463 301.515612 
C 101.503139 301.037288 102.541861 300.38845 102.541861 299.711998 
C 102.541861 299.035546 101.503139 298.386708 99.654463 297.908385 
C 97.805787 297.430061 95.298092 297.161303 92.683669 297.161303 
C 90.069245 297.161303 87.56155 297.430061 85.712874 297.908385 
C 83.864198 298.386708 82.825476 299.035546 82.825476 299.711998 
C 82.825476 300.38845 83.864198 301.037288 85.712874 301.515612 
C 87.56155 301.993935 90.069245 302.262693 92.683669 302.262693 
z
" style="fill:#008000;opacity:0.2;stroke:#008000;stroke-linejoin:miter;stroke-width:2;"/>
   </g>
   <g id="patch_30">
    <path clip-path="url(#pa97ec08515)" d="M 69.024008 292.570053 
C 71.638431 292.570053 74.146126 292.301296 75.994802 291.822972 
C 77.843478 291.344648 78.8822 290.69581 78.8822 290.019358 
C 78.8822 289.342906 77.843478 288.694069 75.994802 288.215745 
C 74.146126 287.737421 71.638431 287.468664 69.024008 287.468664 
C 66.409585 287.468664 63.901889 287.737421 62.053213 288.215745 
C 60.204537 288.694069 59.165816 289.342906 59.165816 290.019358 
C 59.165816 290.69581 60.204537 291.344648 62.053213 291.822972 
C 63.901889 292.301296 66.409585 292.570053 69.024008 292.570053 
z
" style="fill:#008000;opacity:0.2;stroke:#008000;stroke-linejoin:miter;stroke-width:2;"/>
   </g>
   <g id="patch_31">
    <path clip-path="url(#pa97ec08515)" d="M 257.315476 169.62657 
C 259.929899 169.62657 262.437594 169.357812 264.28627 168.879489 
C 266.134946 168.401165 267.173668 167.752327 267.173668 167.075875 
C 267.173668 166.399423 266.134946 165.750585 264.28627 165.272261 
C 262.437594 164.793938 259.929899 164.52518 257.315476 164.52518 
C 254.701052 164.52518 252.193357 164.793938 250.344681 165.272261 
C 248.496005 165.750585 247.457284 166.399423 247.457284 167.075875 
C 247.457284 167.752327 248.496005 168.401165 250.344681 168.879489 
C 252.193357 169.357812 254.701052 169.62657 257.315476 169.62657 
z
" style="fill:#008000;opacity:0.2;stroke:#008000;stroke-linejoin:miter;stroke-width:2;"/>
   </g>
   <g id="patch_32">
    <path clip-path="url(#pa97ec08515)" d="M 69.024008 46.683086 
C 71.638431 46.683086 74.146126 46.414329 75.994802 45.936005 
C 77.843478 45.457681 78.8822 44.808844 78.8822 44.132392 
C 78.8822 43.45594 77.843478 42.807102 75.994802 42.328778 
C 74.146126 41.850454 71.638431 41.581697 69.024008 41.581697 
C 66.409585 41.581697 63.901889 41.850454 62.053213 42.328778 
C 60.204537 42.807102 59.165816 43.45594 59.165816 44.132392 
C 59.165816 44.808844 60.204537 45.457681 62.053213 45.936005 
C 63.901889 46.414329 66.409585 46.683086 69.024008 46.683086 
z
" style="fill:#008000;opacity:0.2;stroke:#008000;stroke-linejoin:miter;stroke-width:2;"/>
   </g>
   <g id="patch_33">
    <path clip-path="url(#pa97ec08515)" d="M 92.683669 36.990447 
C 95.298092 36.990447 97.805787 36.721689 99.654463 36.243365 
C 101.503139 35.765042 102.541861 35.116204 102.541861 34.439752 
C 102.541861 33.7633 101.503139 33.114462 99.654463 32.636138 
C 97.805787 32.157815 95.298092 31.889057 92.683669 31.889057 
C 90.069245 31.889057 87.56155 32.157815 85.712874 32.636138 
C 83.864198 33.114462 82.825476 33.7633 82.825476 34.439752 
C 82.825476 35.116204 83.864198 35.765042 85.712874 36.243365 
C 87.56155 36.721689 90.069245 36.990447 92.683669 36.990447 
z
" style="fill:#008000;opacity:0.2;stroke:#008000;stroke-linejoin:miter;stroke-width:2;"/>
   </g>
   <g id="patch_34">
    <path clip-path="url(#pa97ec08515)" d="M 424.90474 171.156986 
C 435.362433 171.156986 445.393213 170.081957 452.787918 168.168662 
C 460.182623 166.255366 464.337508 163.660016 464.337508 160.954208 
C 464.337508 158.248399 460.182623 155.653049 452.787918 153.739754 
C 445.393213 151.826458 435.362433 150.751429 424.90474 150.751429 
C 414.447048 150.751429 404.416268 151.826458 397.021562 153.739754 
C 389.626857 155.653049 385.471972 158.248399 385.471972 160.954208 
C 385.471972 163.660016 389.626857 166.255366 397.021562 168.168662 
C 404.416268 170.081957 414.447048 171.156986 424.90474 171.156986 
z
" style="fill:none;opacity:0.2;stroke:#ff0000;stroke-linejoin:miter;stroke-width:2;"/>
   </g>
   <g id="patch_35">
    <path clip-path="url(#pa97ec08515)" d="M 411.103271 183.400321 
C 421.560964 183.400321 431.591744 182.325292 438.986449 180.411996 
C 446.381154 178.498701 450.53604 175.903351 450.53604 173.197542 
C 450.53604 170.491734 446.381154 167.896384 438.986449 165.983088 
C 431.591744 164.069793 421.560964 162.994764 411.103271 162.994764 
C 400.645579 162.994764 390.614799 164.069793 383.220094 165.983088 
C 375.825388 167.896384 371.670503 170.491734 371.670503 173.197542 
C 371.670503 175.903351 375.825388 178.498701 383.220094 180.411996 
C 390.614799 182.325292 400.645579 183.400321 411.103271 183.400321 
z
" style="fill:none;opacity:0.2;stroke:#0000ff;stroke-linejoin:miter;stroke-width:2;"/>
   </g>
   <g id="patch_36">
    <path clip-path="url(#pa97ec08515)" d="M 424.90474 166.055597 
C 430.133586 166.055597 435.148977 165.518083 438.846329 164.561435 
C 442.543682 163.604787 444.621124 162.307112 444.621124 160.954208 
C 444.621124 159.601304 442.543682 158.303629 438.846329 157.346981 
C 435.148977 156.390333 430.133586 155.852818 424.90474 155.852818 
C 419.675894 155.852818 414.660504 156.390333 410.963151 157.346981 
C 407.265799 158.303629 405.188356 159.601304 405.188356 160.954208 
C 405.188356 162.307112 407.265799 163.604787 410.963151 164.561435 
C 414.660504 165.518083 419.675894 166.055597 424.90474 166.055597 
z
" style="fill:none;opacity:0.2;stroke:#008000;stroke-linejoin:miter;stroke-width:2;"/>
   </g>
   <g id="patch_37">
    <path clip-path="url(#pa97ec08515)" d="M 411.103271 178.298932 
C 416.332118 178.298932 421.347508 177.761417 425.04486 176.804769 
C 428.742213 175.848121 430.819655 174.550446 430.819655 173.197542 
C 430.819655 171.844638 428.742213 170.546963 425.04486 169.590315 
C 421.347508 168.633667 416.332118 168.096153 411.103271 168.096153 
C 405.874425 168.096153 400.859035 168.633667 397.161682 169.590315 
C 393.46433 170.546963 391.386887 171.844638 391.386887 173.197542 
C 391.386887 174.550446 393.46433 175.848121 397.161682 176.804769 
C 400.859035 177.761417 405.874425 178.298932 411.103271 178.298932 
z
" style="fill:none;opacity:0.2;stroke:#008000;stroke-linejoin:miter;stroke-width:2;"/>
   </g>
   <g id="patch_38">
    <path d="M 418.004006 167.075875 
Q 255.343837 233.393937 92.683669 299.711998 
" style="fill:none;opacity:0.5;stroke:#008000;stroke-linecap:round;stroke-width:2;"/>
   </g>
   <g id="patch_39">
    <path d="M 423.846807 161.892705 
Q 418.753719 166.410801 413.660632 170.928898 
" style="fill:none;opacity:0.5;stroke:#800080;stroke-linecap:round;stroke-width:2;"/>
    <path d="M 421.729272 161.766023 
L 423.846807 161.892705 
L 423.720125 164.010239 
" style="fill:none;opacity:0.5;stroke:#800080;stroke-linecap:round;stroke-width:2;"/>
    <path d="M 415.778167 171.05558 
L 413.660632 170.928898 
L 413.787314 168.811364 
" style="fill:none;opacity:0.5;stroke:#800080;stroke-linecap:round;stroke-width:2;"/>
   </g>
   <g id="patch_40">
    <path d="M 92.683669 299.711998 
Q 80.853838 294.865678 69.024008 290.019358 
" style="fill:none;opacity:0.5;stroke:#008000;stroke-linecap:round;stroke-width:2;"/>
   </g>
   <g id="patch_41">
    <path d="M 90.341405 294.863726 
Q 92.248281 298.810786 94.155157 302.757845 
" style="fill:none;opacity:0.5;stroke:#800080;stroke-linecap:round;stroke-width:2;"/>
    <path d="M 89.643277 296.866878 
L 90.341405 294.863726 
L 92.344557 295.561855 
" style="fill:none;opacity:0.5;stroke:#800080;stroke-linecap:round;stroke-width:2;"/>
    <path d="M 94.853285 300.754693 
L 94.155157 302.757845 
L 92.152005 302.059717 
" style="fill:none;opacity:0.5;stroke:#800080;stroke-linecap:round;stroke-width:2;"/>
   </g>
   <g id="patch_42">
    <path d="M 69.024008 290.019358 
Q 163.169742 228.547617 257.315476 167.075875 
" style="fill:none;opacity:0.5;stroke:#008000;stroke-linecap:round;stroke-width:2;"/>
   </g>
   <g id="patch_43">
    <path d="M 63.142945 284.367486 
Q 68.30462 289.328005 73.466294 294.288525 
" style="fill:none;opacity:0.5;stroke:#800080;stroke-linecap:round;stroke-width:2;"/>
    <path d="M 63.185093 286.488388 
L 63.142945 284.367486 
L 65.263846 284.325338 
" style="fill:none;opacity:0.5;stroke:#800080;stroke-linecap:round;stroke-width:2;"/>
    <path d="M 73.424146 292.167623 
L 73.466294 294.288525 
L 71.345393 294.330673 
" style="fill:none;opacity:0.5;stroke:#800080;stroke-linecap:round;stroke-width:2;"/>
   </g>
   <g id="patch_44">
    <path d="M 257.315476 167.075875 
Q 163.169742 105.604133 69.024008 44.132392 
" style="fill:none;opacity:0.5;stroke:#008000;stroke-linecap:round;stroke-width:2;"/>
   </g>
   <g id="patch_45">
    <path d="M 235.024942 161.308454 
Q 256.346504 166.825165 277.668066 172.341875 
" style="fill:none;opacity:0.5;stroke:#800080;stroke-linecap:round;stroke-width:2;"/>
    <path d="M 236.101386 163.136367 
L 235.024942 161.308454 
L 236.852856 160.23201 
" style="fill:none;opacity:0.5;stroke:#800080;stroke-linecap:round;stroke-width:2;"/>
    <path d="M 276.591622 170.513962 
L 277.668066 172.341875 
L 275.840152 173.41832 
" style="fill:none;opacity:0.5;stroke:#800080;stroke-linecap:round;stroke-width:2;"/>
   </g>
   <g id="patch_46">
    <path d="M 69.024008 44.132392 
Q 80.853838 39.286072 92.683669 34.439752 
" style="fill:none;opacity:0.5;stroke:#008000;stroke-linecap:round;stroke-width:2;"/>
   </g>
   <g id="patch_47">
    <path d="M 63.2205 39.413104 
Q 68.247338 43.500821 73.274176 47.588537 
" style="fill:none;opacity:0.5;stroke:#800080;stroke-linecap:round;stroke-width:2;"/>
    <path d="M 63.43792 41.523253 
L 63.2205 39.413104 
L 65.330649 39.195684 
" style="fill:none;opacity:0.5;stroke:#800080;stroke-linecap:round;stroke-width:2;"/>
    <path d="M 73.056756 45.478388 
L 73.274176 47.588537 
L 71.164027 47.805957 
" style="fill:none;opacity:0.5;stroke:#800080;stroke-linecap:round;stroke-width:2;"/>
   </g>
   <g id="patch_48">
    <path d="M 92.683669 34.439752 
Q 255.343837 100.757813 418.004006 167.075875 
" style="fill:none;opacity:0.5;stroke:#008000;stroke-linecap:round;stroke-width:2;"/>
   </g>
   <g id="patch_49">
    <path d="M 90.341405 29.59148 
Q 92.248281 33.53854 94.155157 37.485599 
" style="fill:none;opacity:0.5;stroke:#800080;stroke-linecap:round;stroke-width:2;"/>
    <path d="M 89.643277 31.594632 
L 90.341405 29.59148 
L 92.344557 30.289608 
" style="fill:none;opacity:0.5;stroke:#800080;stroke-linecap:round;stroke-width:2;"/>
    <path d="M 94.853285 35.482447 
L 94.155157 37.485599 
L 92.152005 36.787471 
" style="fill:none;opacity:0.5;stroke:#800080;stroke-linecap:round;stroke-width:2;"/>
   </g>
   <g id="line2d_1">
    <path clip-path="url(#pa97ec08515)" d="M 424.90474 160.954208 
L 89.726211 293.590331 
L 62.123273 283.387552 
L 233.655815 160.954208 
L 62.123273 38.520863 
L 89.726211 28.318085 
" style="fill:none;stroke:#ff0000;stroke-linecap:square;stroke-width:0.2;"/>
   </g>
   <g id="line2d_2">
    <path clip-path="url(#pa97ec08515)" d="M 411.103271 173.197542 
L 95.641126 305.833665 
L 75.924742 296.651164 
L 280.975136 173.197542 
L 75.924742 49.74392 
L 95.641126 40.561419 
" style="fill:none;stroke:#0000ff;stroke-linecap:square;stroke-width:0.2;"/>
   </g>
  </g>
 </g>
 <defs>
  <clipPath id="pa97ec08515">
   <rect height="307.51175" width="409.903625" x="37.576375" y="13.32"/>
  </clipPath>
 </defs>
</svg>
