<?xml version="1.0" encoding="utf-8" standalone="no"?>
<!DOCTYPE svg PUBLIC "-//W3C//DTD SVG 1.1//EN"
  "http://www.w3.org/Graphics/SVG/1.1/DTD/svg11.dtd">
<!-- Created with matplotlib (http://matplotlib.org/) -->
<svg height="345.6pt" version="1.1" viewBox="0 0 460.8 345.6" width="460.8pt" xmlns="http://www.w3.org/2000/svg" xmlns:xlink="http://www.w3.org/1999/xlink">
 <defs>
  <style type="text/css">
*{stroke-linecap:butt;stroke-linejoin:round;}
  </style>
 </defs>
 <g id="figure_1">
  <g id="patch_1">
   <path d="M 0 345.6 
L 460.8 345.6 
L 460.8 0 
L 0 0 
z
" style="fill:#ffffff;"/>
  </g>
  <g id="axes_1">
   <g id="patch_2">
    <path clip-path="url(#p278fd59793)" d="M 242.528188 285.204815 
C 244.00319 285.204815 245.41798 284.808104 246.460964 284.102053 
C 247.503949 283.396001 248.089973 282.438256 248.089973 281.439749 
C 248.089973 280.441242 247.503949 279.483497 246.460964 278.777445 
C 245.41798 278.071394 244.00319 277.674683 242.528188 277.674683 
C 241.053185 277.674683 239.638395 278.071394 238.595411 278.777445 
C 237.552426 279.483497 236.966402 280.441242 236.966402 281.439749 
C 236.966402 282.438256 237.552426 283.396001 238.595411 284.102053 
C 239.638395 284.808104 241.053185 285.204815 242.528188 285.204815 
z
" style="fill:#ff0000;opacity:0.2;stroke:#ff0000;stroke-linejoin:miter;stroke-width:2;"/>
   </g>
   <g id="patch_3">
    <path clip-path="url(#p278fd59793)" d="M 61.770144 160.957643 
C 63.245147 160.957643 64.659936 160.560932 65.70292 159.854881 
C 66.745905 159.14883 67.33193 158.191084 67.33193 157.192577 
C 67.33193 156.19407 66.745905 155.236325 65.70292 154.530274 
C 64.659936 153.824223 63.245147 153.427511 61.770144 153.427511 
C 60.295141 153.427511 58.880352 153.824223 57.837367 154.530274 
C 56.794383 155.236325 56.208358 156.19407 56.208358 157.192577 
C 56.208358 158.191084 56.794383 159.14883 57.837367 159.854881 
C 58.880352 160.560932 60.295141 160.957643 61.770144 160.957643 
z
" style="fill:#ff0000;opacity:0.2;stroke:#ff0000;stroke-linejoin:miter;stroke-width:2;"/>
   </g>
   <g id="patch_4">
    <path clip-path="url(#p278fd59793)" d="M 242.528188 34.827938 
C 244.00319 34.827938 245.41798 34.431227 246.460964 33.725176 
C 247.503949 33.019125 248.089973 32.06138 248.089973 31.062873 
C 248.089973 30.064366 247.503949 29.10662 246.460964 28.400569 
C 245.41798 27.694518 244.00319 27.297807 242.528188 27.297807 
C 241.053185 27.297807 239.638395 27.694518 238.595411 28.400569 
C 237.552426 29.10662 236.966402 30.064366 236.966402 31.062873 
C 236.966402 32.06138 237.552426 33.019125 238.595411 33.725176 
C 239.638395 34.431227 241.053185 34.827938 242.528188 34.827938 
z
" style="fill:#ff0000;opacity:0.2;stroke:#ff0000;stroke-linejoin:miter;stroke-width:2;"/>
   </g>
   <g id="patch_5">
    <path clip-path="url(#p278fd59793)" d="M 423.286231 160.957643 
C 424.761234 160.957643 426.176023 160.560932 427.219008 159.854881 
C 428.261992 159.14883 428.848017 158.191084 428.848017 157.192577 
C 428.848017 156.19407 428.261992 155.236325 427.219008 154.530274 
C 426.176023 153.824223 424.761234 153.427511 423.286231 153.427511 
C 421.811228 153.427511 420.396439 153.824223 419.353455 154.530274 
C 418.31047 155.236325 417.724445 156.19407 417.724445 157.192577 
C 417.724445 158.191084 418.31047 159.14883 419.353455 159.854881 
C 420.396439 160.560932 421.811228 160.957643 423.286231 160.957643 
z
" style="fill:#ff0000;opacity:0.2;stroke:#ff0000;stroke-linejoin:miter;stroke-width:2;"/>
   </g>
   <g id="patch_6">
    <path clip-path="url(#p278fd59793)" d="M 242.528188 99.775324 
C 244.00319 99.775324 245.41798 99.378613 246.460964 98.672561 
C 247.503949 97.96651 248.089973 97.008765 248.089973 96.010258 
C 248.089973 95.011751 247.503949 94.054005 246.460964 93.347954 
C 245.41798 92.641903 244.00319 92.245192 242.528188 92.245192 
C 241.053185 92.245192 239.638395 92.641903 238.595411 93.347954 
C 237.552426 94.054005 236.966402 95.011751 236.966402 96.010258 
C 236.966402 97.008765 237.552426 97.96651 238.595411 98.672561 
C 239.638395 99.378613 241.053185 99.775324 242.528188 99.775324 
z
" style="fill:#0000ff;opacity:0.2;stroke:#0000ff;stroke-linejoin:miter;stroke-width:2;"/>
   </g>
   <g id="patch_7">
    <path clip-path="url(#p278fd59793)" d="M 392.696408 207.079699 
C 394.171411 207.079699 395.5862 206.682988 396.629185 205.976937 
C 397.672169 205.270886 398.258194 204.313141 398.258194 203.314633 
C 398.258194 202.316126 397.672169 201.358381 396.629185 200.65233 
C 395.5862 199.946279 394.171411 199.549568 392.696408 199.549568 
C 391.221405 199.549568 389.806616 199.946279 388.763632 200.65233 
C 387.720647 201.358381 387.134622 202.316126 387.134622 203.314633 
C 387.134622 204.313141 387.720647 205.270886 388.763632 205.976937 
C 389.806616 206.682988 391.221405 207.079699 392.696408 207.079699 
z
" style="fill:#0000ff;opacity:0.2;stroke:#0000ff;stroke-linejoin:miter;stroke-width:2;"/>
   </g>
   <g id="patch_8">
    <path clip-path="url(#p278fd59793)" d="M 242.528188 306.853943 
C 244.00319 306.853943 245.41798 306.457232 246.460964 305.751181 
C 247.503949 305.04513 248.089973 304.087384 248.089973 303.088877 
C 248.089973 302.09037 247.503949 301.132625 246.460964 300.426574 
C 245.41798 299.720523 244.00319 299.323812 242.528188 299.323812 
C 241.053185 299.323812 239.638395 299.720523 238.595411 300.426574 
C 237.552426 301.132625 236.966402 302.09037 236.966402 303.088877 
C 236.966402 304.087384 237.552426 305.04513 238.595411 305.751181 
C 239.638395 306.457232 241.053185 306.853943 242.528188 306.853943 
z
" style="fill:#0000ff;opacity:0.2;stroke:#0000ff;stroke-linejoin:miter;stroke-width:2;"/>
   </g>
   <g id="patch_9">
    <path clip-path="url(#p278fd59793)" d="M 92.359967 207.079699 
C 93.83497 207.079699 95.249759 206.682988 96.292743 205.976937 
C 97.335728 205.270886 97.921753 204.313141 97.921753 203.314633 
C 97.921753 202.316126 97.335728 201.358381 96.292743 200.65233 
C 95.249759 199.946279 93.83497 199.549568 92.359967 199.549568 
C 90.884964 199.549568 89.470175 199.946279 88.42719 200.65233 
C 87.384206 201.358381 86.798181 202.316126 86.798181 203.314633 
C 86.798181 204.313141 87.384206 205.270886 88.42719 205.976937 
C 89.470175 206.682988 90.884964 207.079699 92.359967 207.079699 
z
" style="fill:#0000ff;opacity:0.2;stroke:#0000ff;stroke-linejoin:miter;stroke-width:2;"/>
   </g>
   <g id="patch_10">
    <path clip-path="url(#p278fd59793)" d="M 242.528188 281.439749 
C 150.758719 281.439749 61.770144 234.376426 61.770144 157.192577 
C 61.770144 83.773794 139.635147 31.062873 242.528188 31.062873 
C 350.983014 31.062873 423.286231 89.421393 423.286231 157.192577 
C 423.286231 228.728828 350.983014 281.439749 242.528188 281.439749 
" style="fill:none;stroke:#ff0000;stroke-linejoin:miter;stroke-width:0.5;"/>
   </g>
   <g id="patch_11">
    <path clip-path="url(#p278fd59793)" d="M 242.528188 96.010258 
C 334.297656 96.010258 392.696408 144.956113 392.696408 203.314633 
C 392.696408 261.673153 334.297656 303.088877 242.528188 303.088877 
C 164.663184 303.088877 92.359967 265.438219 92.359967 203.314633 
C 92.359967 143.07358 156.320505 96.010258 242.528188 96.010258 
" style="fill:none;stroke:#0000ff;stroke-linejoin:miter;stroke-width:0.5;"/>
   </g>
   <g id="[&quot;g_s&quot;:1,&quot;g_t&quot;:3,&quot;coords&quot;:[[150.0, -460.0],[150.0, -471.5]],&quot;certainty&quot;:10]">
    <path clip-path="url(#p278fd59793)" d="M 242.528188 291.79368 
C 246.584445 291.79368 250.475116 290.702724 253.343323 288.761084 
C 256.211531 286.819443 257.823099 284.185644 257.823099 281.439749 
C 257.823099 278.693854 256.211531 276.060055 253.343323 274.118414 
C 250.475116 272.176773 246.584445 271.085818 242.528188 271.085818 
C 238.47193 271.085818 234.581259 272.176773 231.713052 274.118414 
C 228.844844 276.060055 227.233276 278.693854 227.233276 281.439749 
C 227.233276 284.185644 228.844844 286.819443 231.713052 288.761084 
C 234.581259 290.702724 238.47193 291.79368 242.528188 291.79368 
z
" style="fill:#0000ff;opacity:0.2;stroke:#0000ff;stroke-linejoin:miter;stroke-width:2;"/>
   </g>
   <g id="[&quot;g_s&quot;:3,&quot;g_t&quot;:1,&quot;coords&quot;:[[150.0, -471.5],[150.0, -460.0]],&quot;certainty&quot;:10]">
    <path clip-path="url(#p278fd59793)" d="M 242.528188 313.442808 
C 246.584445 313.442808 250.475116 312.351853 253.343323 310.410212 
C 256.211531 308.468571 257.823099 305.834772 257.823099 303.088877 
C 257.823099 300.342983 256.211531 297.709183 253.343323 295.767543 
C 250.475116 293.825902 246.584445 292.734946 242.528188 292.734946 
C 238.47193 292.734946 234.581259 293.825902 231.713052 295.767543 
C 228.844844 297.709183 227.233276 300.342983 227.233276 303.088877 
C 227.233276 305.834772 228.844844 308.468571 231.713052 310.410212 
C 234.581259 312.351853 238.47193 313.442808 242.528188 313.442808 
z
" style="fill:#ff0000;opacity:0.2;stroke:#ff0000;stroke-linejoin:miter;stroke-width:2;"/>
   </g>
   <g id="patch_12">
    <path d="M 242.528188 281.439749 
Q 242.528188 291.264045 242.528188 299.143798 
" style="fill:none;opacity:0.5;stroke:#0000ff;stroke-linecap:round;stroke-width:2.75;"/>
    <path d="M 244.028188 297.643798 
L 242.528188 299.143798 
L 241.028188 297.643798 
" style="fill:none;opacity:0.5;stroke:#0000ff;stroke-linecap:round;stroke-width:2.75;"/>
   </g>
   <g id="[&quot;g_s&quot;:2,&quot;g_t&quot;:4,&quot;coords&quot;:[[85.0, -394.0],[96.0, -418.5]],&quot;certainty&quot;:12]">
    <path clip-path="url(#p278fd59793)" d="M 61.770144 169.429041 
C 66.563903 169.429041 71.161968 168.13973 74.551668 165.845064 
C 77.941367 163.550398 79.845948 160.437725 79.845948 157.192577 
C 79.845948 153.947429 77.941367 150.834757 74.551668 148.540091 
C 71.161968 146.245424 66.563903 144.956113 61.770144 144.956113 
C 56.976385 144.956113 52.37832 146.245424 48.98862 148.540091 
C 45.59892 150.834757 43.69434 153.947429 43.69434 157.192577 
C 43.69434 160.437725 45.59892 163.550398 48.98862 165.845064 
C 52.37832 168.13973 56.976385 169.429041 61.770144 169.429041 
z
" style="fill:#0000ff;opacity:0.2;stroke:#0000ff;stroke-linejoin:miter;stroke-width:2;"/>
   </g>
   <g id="[&quot;g_s&quot;:4,&quot;g_t&quot;:2,&quot;coords&quot;:[[96.0, -418.5],[85.0, -394.0]],&quot;certainty&quot;:12]">
    <path clip-path="url(#p278fd59793)" d="M 92.359967 215.551097 
C 97.153726 215.551097 101.751791 214.261786 105.141491 211.96712 
C 108.53119 209.672454 110.435771 206.559782 110.435771 203.314633 
C 110.435771 200.069485 108.53119 196.956813 105.141491 194.662147 
C 101.751791 192.367481 97.153726 191.07817 92.359967 191.07817 
C 87.566207 191.07817 82.968143 192.367481 79.578443 194.662147 
C 76.188743 196.956813 74.284162 200.069485 74.284162 203.314633 
C 74.284162 206.559782 76.188743 209.672454 79.578443 211.96712 
C 82.968143 214.261786 87.566207 215.551097 92.359967 215.551097 
z
" style="fill:#ff0000;opacity:0.2;stroke:#ff0000;stroke-linejoin:miter;stroke-width:2;"/>
   </g>
   <g id="patch_13">
    <path d="M 61.770144 157.192577 
Q 76.511474 179.418938 89.9826 199.73014 
" style="fill:none;opacity:0.5;stroke:#0000ff;stroke-linecap:round;stroke-width:3.25;"/>
    <path d="M 90.403572 197.651009 
L 89.9826 199.73014 
L 87.90347 199.309168 
" style="fill:none;opacity:0.5;stroke:#0000ff;stroke-linecap:round;stroke-width:3.25;"/>
   </g>
   <g id="[&quot;g_s&quot;:3,&quot;g_t&quot;:1,&quot;coords&quot;:[[150.0, -327.0],[150.0, -361.5]],&quot;certainty&quot;:11]">
    <path clip-path="url(#p278fd59793)" d="M 242.528188 42.35807 
C 246.953196 42.35807 251.197564 41.167937 254.326517 39.049783 
C 257.455471 36.93163 259.213545 34.058394 259.213545 31.062873 
C 259.213545 28.067351 257.455471 25.194115 254.326517 23.075962 
C 251.197564 20.957808 246.953196 19.767675 242.528188 19.767675 
C 238.103179 19.767675 233.858811 20.957808 230.729858 23.075962 
C 227.600904 25.194115 225.84283 28.067351 225.84283 31.062873 
C 225.84283 34.058394 227.600904 36.93163 230.729858 39.049783 
C 233.858811 41.167937 238.103179 42.35807 242.528188 42.35807 
z
" style="fill:#0000ff;opacity:0.2;stroke:#0000ff;stroke-linejoin:miter;stroke-width:2;"/>
   </g>
   <g id="[&quot;g_s&quot;:1,&quot;g_t&quot;:3,&quot;coords&quot;:[[150.0, -361.5],[150.0, -327.0]],&quot;certainty&quot;:11]">
    <path clip-path="url(#p278fd59793)" d="M 242.528188 107.305455 
C 246.953196 107.305455 251.197564 106.115322 254.326517 103.997169 
C 257.455471 101.879015 259.213545 99.005779 259.213545 96.010258 
C 259.213545 93.014736 257.455471 90.141501 254.326517 88.023347 
C 251.197564 85.905194 246.953196 84.71506 242.528188 84.71506 
C 238.103179 84.71506 233.858811 85.905194 230.729858 88.023347 
C 227.600904 90.141501 225.84283 93.014736 225.84283 96.010258 
C 225.84283 99.005779 227.600904 101.879015 230.729858 103.997169 
C 233.858811 106.115322 238.103179 107.305455 242.528188 107.305455 
z
" style="fill:#ff0000;opacity:0.2;stroke:#ff0000;stroke-linejoin:miter;stroke-width:2;"/>
   </g>
   <g id="patch_14">
    <path d="M 242.528188 31.062873 
Q 242.528188 62.535637 242.528188 91.88708 
" style="fill:none;opacity:0.5;stroke:#0000ff;stroke-linecap:round;stroke-width:3;"/>
    <path d="M 244.028188 90.38708 
L 242.528188 91.88708 
L 241.028188 90.38708 
" style="fill:none;opacity:0.5;stroke:#0000ff;stroke-linecap:round;stroke-width:3;"/>
   </g>
   <g id="[&quot;g_s&quot;:4,&quot;g_t&quot;:2,&quot;coords&quot;:[[215.0, -394.0],[204.0, -418.5]],&quot;certainty&quot;:11]">
    <path clip-path="url(#p278fd59793)" d="M 423.286231 168.487775 
C 427.71124 168.487775 431.955607 167.297641 435.084561 165.179488 
C 438.213514 163.061334 439.971589 160.188099 439.971589 157.192577 
C 439.971589 154.197056 438.213514 151.32382 435.084561 149.205667 
C 431.955607 147.087513 427.71124 145.89738 423.286231 145.89738 
C 418.861222 145.89738 414.616855 147.087513 411.487901 149.205667 
C 408.358948 151.32382 406.600873 154.197056 406.600873 157.192577 
C 406.600873 160.188099 408.358948 163.061334 411.487901 165.179488 
C 414.616855 167.297641 418.861222 168.487775 423.286231 168.487775 
z
" style="fill:#0000ff;opacity:0.2;stroke:#0000ff;stroke-linejoin:miter;stroke-width:2;"/>
   </g>
   <g id="[&quot;g_s&quot;:2,&quot;g_t&quot;:4,&quot;coords&quot;:[[204.0, -418.5],[215.0, -394.0]],&quot;certainty&quot;:11]">
    <path clip-path="url(#p278fd59793)" d="M 392.696408 214.609831 
C 397.121417 214.609831 401.365784 213.419698 404.494738 211.301544 
C 407.623692 209.183391 409.381766 206.310155 409.381766 203.314633 
C 409.381766 200.319112 407.623692 197.445876 404.494738 195.327723 
C 401.365784 193.209569 397.121417 192.019436 392.696408 192.019436 
C 388.2714 192.019436 384.027032 193.209569 380.898079 195.327723 
C 377.769125 197.445876 376.01105 200.319112 376.01105 203.314633 
C 376.01105 206.310155 377.769125 209.183391 380.898079 211.301544 
C 384.027032 213.419698 388.2714 214.609831 392.696408 214.609831 
z
" style="fill:#ff0000;opacity:0.2;stroke:#ff0000;stroke-linejoin:miter;stroke-width:2;"/>
   </g>
   <g id="patch_15">
    <path d="M 423.286231 157.192577 
Q 408.544901 179.418938 394.976067 199.87746 
" style="fill:none;opacity:0.5;stroke:#0000ff;stroke-linecap:round;stroke-width:3;"/>
    <path d="M 397.055197 199.456488 
L 394.976067 199.87746 
L 394.555095 197.798329 
" style="fill:none;opacity:0.5;stroke:#0000ff;stroke-linecap:round;stroke-width:3;"/>
   </g>
   <g id="[&quot;g_s&quot;:1,&quot;g_t&quot;:3,&quot;coords&quot;:[[150.0, -361.5],[150.0, -327.0]],&quot;certainty&quot;:10]">
    <path clip-path="url(#p278fd59793)" d="M 242.528188 106.364189 
C 246.584445 106.364189 250.475116 105.273233 253.343323 103.331593 
C 256.211531 101.389952 257.823099 98.756152 257.823099 96.010258 
C 257.823099 93.264363 256.211531 90.630564 253.343323 88.688923 
C 250.475116 86.747282 246.584445 85.656327 242.528188 85.656327 
C 238.47193 85.656327 234.581259 86.747282 231.713052 88.688923 
C 228.844844 90.630564 227.233276 93.264363 227.233276 96.010258 
C 227.233276 98.756152 228.844844 101.389952 231.713052 103.331593 
C 234.581259 105.273233 238.47193 106.364189 242.528188 106.364189 
z
" style="fill:#0000ff;opacity:0.2;stroke:#0000ff;stroke-linejoin:miter;stroke-width:2;"/>
   </g>
   <g id="[&quot;g_s&quot;:3,&quot;g_t&quot;:1,&quot;coords&quot;:[[150.0, -327.0],[150.0, -361.5]],&quot;certainty&quot;:10]">
    <path clip-path="url(#p278fd59793)" d="M 242.528188 41.416804 
C 246.584445 41.416804 250.475116 40.325848 253.343323 38.384207 
C 256.211531 36.442567 257.823099 33.808767 257.823099 31.062873 
C 257.823099 28.316978 256.211531 25.683179 253.343323 23.741538 
C 250.475116 21.799897 246.584445 20.708942 242.528188 20.708942 
C 238.47193 20.708942 234.581259 21.799897 231.713052 23.741538 
C 228.844844 25.683179 227.233276 28.316978 227.233276 31.062873 
C 227.233276 33.808767 228.844844 36.442567 231.713052 38.384207 
C 234.581259 40.325848 238.47193 41.416804 242.528188 41.416804 
z
" style="fill:#ff0000;opacity:0.2;stroke:#ff0000;stroke-linejoin:miter;stroke-width:2;"/>
   </g>
   <g id="patch_16">
    <path d="M 242.528188 96.010258 
Q 242.528188 64.537494 242.528188 35.009274 
" style="fill:none;opacity:0.5;stroke:#ff0000;stroke-linecap:round;stroke-width:2.75;"/>
    <path d="M 241.028188 36.509274 
L 242.528188 35.009274 
L 244.028188 36.509274 
" style="fill:none;opacity:0.5;stroke:#ff0000;stroke-linecap:round;stroke-width:2.75;"/>
   </g>
   <g id="[&quot;g_s&quot;:2,&quot;g_t&quot;:4,&quot;coords&quot;:[[204.0, -418.5],[215.0, -394.0]],&quot;certainty&quot;:12]">
    <path clip-path="url(#p278fd59793)" d="M 392.696408 215.551097 
C 397.490168 215.551097 402.088232 214.261786 405.477932 211.96712 
C 408.867632 209.672454 410.772213 206.559782 410.772213 203.314633 
C 410.772213 200.069485 408.867632 196.956813 405.477932 194.662147 
C 402.088232 192.367481 397.490168 191.07817 392.696408 191.07817 
C 387.902649 191.07817 383.304584 192.367481 379.914884 194.662147 
C 376.525185 196.956813 374.620604 200.069485 374.620604 203.314633 
C 374.620604 206.559782 376.525185 209.672454 379.914884 211.96712 
C 383.304584 214.261786 387.902649 215.551097 392.696408 215.551097 
z
" style="fill:#0000ff;opacity:0.2;stroke:#0000ff;stroke-linejoin:miter;stroke-width:2;"/>
   </g>
   <g id="[&quot;g_s&quot;:4,&quot;g_t&quot;:2,&quot;coords&quot;:[[215.0, -394.0],[204.0, -418.5]],&quot;certainty&quot;:12]">
    <path clip-path="url(#p278fd59793)" d="M 423.286231 169.429041 
C 428.07999 169.429041 432.678055 168.13973 436.067755 165.845064 
C 439.457455 163.550398 441.362035 160.437725 441.362035 157.192577 
C 441.362035 153.947429 439.457455 150.834757 436.067755 148.540091 
C 432.678055 146.245424 428.07999 144.956113 423.286231 144.956113 
C 418.492472 144.956113 413.894407 146.245424 410.504707 148.540091 
C 407.115008 150.834757 405.210427 153.947429 405.210427 157.192577 
C 405.210427 160.437725 407.115008 163.550398 410.504707 165.845064 
C 413.894407 168.13973 418.492472 169.429041 423.286231 169.429041 
z
" style="fill:#ff0000;opacity:0.2;stroke:#ff0000;stroke-linejoin:miter;stroke-width:2;"/>
   </g>
   <g id="patch_17">
    <path d="M 392.696408 203.314633 
Q 407.437738 181.088273 420.908865 160.777071 
" style="fill:none;opacity:0.5;stroke:#ff0000;stroke-linecap:round;stroke-width:3.25;"/>
    <path d="M 418.829734 161.198043 
L 420.908865 160.777071 
L 421.329836 162.856201 
" style="fill:none;opacity:0.5;stroke:#ff0000;stroke-linecap:round;stroke-width:3.25;"/>
   </g>
   <g id="[&quot;g_s&quot;:3,&quot;g_t&quot;:1,&quot;coords&quot;:[[150.0, -471.5],[150.0, -460.0]],&quot;certainty&quot;:11]">
    <path clip-path="url(#p278fd59793)" d="M 242.528188 314.384075 
C 246.953196 314.384075 251.197564 313.193942 254.326517 311.075788 
C 257.455471 308.957635 259.213545 306.084399 259.213545 303.088877 
C 259.213545 300.093356 257.455471 297.22012 254.326517 295.101967 
C 251.197564 292.983813 246.953196 291.79368 242.528188 291.79368 
C 238.103179 291.79368 233.858811 292.983813 230.729858 295.101967 
C 227.600904 297.22012 225.84283 300.093356 225.84283 303.088877 
C 225.84283 306.084399 227.600904 308.957635 230.729858 311.075788 
C 233.858811 313.193942 238.103179 314.384075 242.528188 314.384075 
z
" style="fill:#0000ff;opacity:0.2;stroke:#0000ff;stroke-linejoin:miter;stroke-width:2;"/>
   </g>
   <g id="[&quot;g_s&quot;:1,&quot;g_t&quot;:3,&quot;coords&quot;:[[150.0, -460.0],[150.0, -471.5]],&quot;certainty&quot;:11]">
    <path clip-path="url(#p278fd59793)" d="M 242.528188 292.734946 
C 246.953196 292.734946 251.197564 291.544813 254.326517 289.42666 
C 257.455471 287.308506 259.213545 284.43527 259.213545 281.439749 
C 259.213545 278.444228 257.455471 275.570992 254.326517 273.452838 
C 251.197564 271.334685 246.953196 270.144552 242.528188 270.144552 
C 238.103179 270.144552 233.858811 271.334685 230.729858 273.452838 
C 227.600904 275.570992 225.84283 278.444228 225.84283 281.439749 
C 225.84283 284.43527 227.600904 287.308506 230.729858 289.42666 
C 233.858811 291.544813 238.103179 292.734946 242.528188 292.734946 
z
" style="fill:#ff0000;opacity:0.2;stroke:#ff0000;stroke-linejoin:miter;stroke-width:2;"/>
   </g>
   <g id="patch_18">
    <path d="M 242.528188 303.088877 
Q 242.528188 293.264581 242.528188 285.561605 
" style="fill:none;opacity:0.5;stroke:#ff0000;stroke-linecap:round;stroke-width:3;"/>
    <path d="M 241.028188 287.061605 
L 242.528188 285.561605 
L 244.028188 287.061605 
" style="fill:none;opacity:0.5;stroke:#ff0000;stroke-linecap:round;stroke-width:3;"/>
   </g>
   <g id="[&quot;g_s&quot;:4,&quot;g_t&quot;:2,&quot;coords&quot;:[[96.0, -418.5],[85.0, -394.0]],&quot;certainty&quot;:11]">
    <path clip-path="url(#p278fd59793)" d="M 92.359967 214.609831 
C 96.784975 214.609831 101.029343 213.419698 104.158296 211.301544 
C 107.28725 209.183391 109.045325 206.310155 109.045325 203.314633 
C 109.045325 200.319112 107.28725 197.445876 104.158296 195.327723 
C 101.029343 193.209569 96.784975 192.019436 92.359967 192.019436 
C 87.934958 192.019436 83.690591 193.209569 80.561637 195.327723 
C 77.432683 197.445876 75.674609 200.319112 75.674609 203.314633 
C 75.674609 206.310155 77.432683 209.183391 80.561637 211.301544 
C 83.690591 213.419698 87.934958 214.609831 92.359967 214.609831 
z
" style="fill:#0000ff;opacity:0.2;stroke:#0000ff;stroke-linejoin:miter;stroke-width:2;"/>
   </g>
   <g id="[&quot;g_s&quot;:2,&quot;g_t&quot;:4,&quot;coords&quot;:[[85.0, -394.0],[96.0, -418.5]],&quot;certainty&quot;:11]">
    <path clip-path="url(#p278fd59793)" d="M 61.770144 168.487775 
C 66.195153 168.487775 70.43952 167.297641 73.568474 165.179488 
C 76.697427 163.061334 78.455502 160.188099 78.455502 157.192577 
C 78.455502 154.197056 76.697427 151.32382 73.568474 149.205667 
C 70.43952 147.087513 66.195153 145.89738 61.770144 145.89738 
C 57.345135 145.89738 53.100768 147.087513 49.971814 149.205667 
C 46.842861 151.32382 45.084786 154.197056 45.084786 157.192577 
C 45.084786 160.188099 46.842861 163.061334 49.971814 165.179488 
C 53.100768 167.297641 57.345135 168.487775 61.770144 168.487775 
z
" style="fill:#ff0000;opacity:0.2;stroke:#ff0000;stroke-linejoin:miter;stroke-width:2;"/>
   </g>
   <g id="patch_19">
    <path d="M 92.359967 203.314633 
Q 77.618637 181.088273 64.049802 160.629751 
" style="fill:none;opacity:0.5;stroke:#ff0000;stroke-linecap:round;stroke-width:3;"/>
    <path d="M 63.628831 162.708881 
L 64.049802 160.629751 
L 66.128933 161.050723 
" style="fill:none;opacity:0.5;stroke:#ff0000;stroke-linecap:round;stroke-width:3;"/>
   </g>
   <g id="patch_20">
    <path clip-path="url(#p278fd59793)" d="M 242.528188 301.676978 
C 246.215695 301.676978 249.752668 300.6852 252.360129 298.920072 
C 254.96759 297.154944 256.432652 294.760581 256.432652 292.264313 
C 256.432652 289.768045 254.96759 287.373682 252.360129 285.608554 
C 249.752668 283.843426 246.215695 282.851649 242.528188 282.851649 
C 238.84068 282.851649 235.303707 283.843426 232.696246 285.608554 
C 230.088785 287.373682 228.623723 289.768045 228.623723 292.264313 
C 228.623723 294.760581 230.088785 297.154944 232.696246 298.920072 
C 235.303707 300.6852 238.84068 301.676978 242.528188 301.676978 
z
" style="fill:#008000;opacity:0.2;stroke:#008000;stroke-linejoin:miter;stroke-width:2;"/>
   </g>
   <g id="patch_21">
    <path clip-path="url(#p278fd59793)" d="M 77.065055 189.66627 
C 80.752562 189.66627 84.289535 188.674492 86.896997 186.909364 
C 89.504458 185.144236 90.96952 182.749873 90.96952 180.253605 
C 90.96952 177.757338 89.504458 175.362974 86.896997 173.597846 
C 84.289535 171.832719 80.752562 170.840941 77.065055 170.840941 
C 73.377548 170.840941 69.840575 171.832719 67.233114 173.597846 
C 64.625653 175.362974 63.16059 177.757338 63.16059 180.253605 
C 63.16059 182.749873 64.625653 185.144236 67.233114 186.909364 
C 69.840575 188.674492 73.377548 189.66627 77.065055 189.66627 
z
" style="fill:#008000;opacity:0.2;stroke:#008000;stroke-linejoin:miter;stroke-width:2;"/>
   </g>
   <g id="patch_22">
    <path clip-path="url(#p278fd59793)" d="M 242.528188 72.94923 
C 246.215695 72.94923 249.752668 71.957452 252.360129 70.192324 
C 254.96759 68.427196 256.432652 66.032833 256.432652 63.536565 
C 256.432652 61.040297 254.96759 58.645934 252.360129 56.880806 
C 249.752668 55.115678 246.215695 54.123901 242.528188 54.123901 
C 238.84068 54.123901 235.303707 55.115678 232.696246 56.880806 
C 230.088785 58.645934 228.623723 61.040297 228.623723 63.536565 
C 228.623723 66.032833 230.088785 68.427196 232.696246 70.192324 
C 235.303707 71.957452 238.84068 72.94923 242.528188 72.94923 
z
" style="fill:#008000;opacity:0.2;stroke:#008000;stroke-linejoin:miter;stroke-width:2;"/>
   </g>
   <g id="patch_23">
    <path clip-path="url(#p278fd59793)" d="M 407.99132 189.66627 
C 411.678827 189.66627 415.2158 188.674492 417.823261 186.909364 
C 420.430722 185.144236 421.895785 182.749873 421.895785 180.253605 
C 421.895785 177.757338 420.430722 175.362974 417.823261 173.597846 
C 415.2158 171.832719 411.678827 170.840941 407.99132 170.840941 
C 404.303813 170.840941 400.76684 171.832719 398.159378 173.597846 
C 395.551917 175.362974 394.086855 177.757338 394.086855 180.253605 
C 394.086855 182.749873 395.551917 185.144236 398.159378 186.909364 
C 400.76684 188.674492 404.303813 189.66627 407.99132 189.66627 
z
" style="fill:#008000;opacity:0.2;stroke:#008000;stroke-linejoin:miter;stroke-width:2;"/>
   </g>
   <g id="patch_24">
    <path clip-path="url(#p278fd59793)" d="M 242.528188 319.090407 
C 257.278216 319.090407 271.426108 315.123296 281.855953 308.062785 
C 292.285799 301.002273 298.146047 291.42482 298.146047 281.439749 
C 298.146047 271.454678 292.285799 261.877225 281.855953 254.816713 
C 271.426108 247.756202 257.278216 243.789091 242.528188 243.789091 
C 227.778159 243.789091 213.630267 247.756202 203.200422 254.816713 
C 192.770576 261.877225 186.910328 271.454678 186.910328 281.439749 
C 186.910328 291.42482 192.770576 301.002273 203.200422 308.062785 
C 213.630267 315.123296 227.778159 319.090407 242.528188 319.090407 
z
" style="fill:none;opacity:0.2;stroke:#ff0000;stroke-linejoin:miter;stroke-width:2;"/>
   </g>
   <g id="patch_25">
    <path clip-path="url(#p278fd59793)" d="M 242.528188 133.660916 
C 257.278216 133.660916 271.426108 129.693805 281.855953 122.633293 
C 292.285799 115.572782 298.146047 105.995329 298.146047 96.010258 
C 298.146047 86.025187 292.285799 76.447734 281.855953 69.387222 
C 271.426108 62.326711 257.278216 58.3596 242.528188 58.3596 
C 227.778159 58.3596 213.630267 62.326711 203.200422 69.387222 
C 192.770576 76.447734 186.910328 86.025187 186.910328 96.010258 
C 186.910328 105.995329 192.770576 115.572782 203.200422 122.633293 
C 213.630267 129.693805 227.778159 133.660916 242.528188 133.660916 
z
" style="fill:none;opacity:0.2;stroke:#0000ff;stroke-linejoin:miter;stroke-width:2;"/>
   </g>
   <g id="patch_26">
    <path clip-path="url(#p278fd59793)" d="M 242.528188 300.265078 
C 249.903202 300.265078 256.977148 298.281523 262.19207 294.751267 
C 267.406993 291.221011 270.337117 286.432285 270.337117 281.439749 
C 270.337117 276.447213 267.406993 271.658487 262.19207 268.128231 
C 256.977148 264.597975 249.903202 262.61442 242.528188 262.61442 
C 235.153173 262.61442 228.079227 264.597975 222.864305 268.128231 
C 217.649382 271.658487 214.719258 276.447213 214.719258 281.439749 
C 214.719258 286.432285 217.649382 291.221011 222.864305 294.751267 
C 228.079227 298.281523 235.153173 300.265078 242.528188 300.265078 
z
" style="fill:none;opacity:0.2;stroke:#008000;stroke-linejoin:miter;stroke-width:2;"/>
   </g>
   <g id="patch_27">
    <path clip-path="url(#p278fd59793)" d="M 242.528188 321.914206 
C 249.903202 321.914206 256.977148 319.930651 262.19207 316.400395 
C 267.406993 312.870139 270.337117 308.081413 270.337117 303.088877 
C 270.337117 298.096342 267.406993 293.307615 262.19207 289.77736 
C 256.977148 286.247104 249.903202 284.263548 242.528188 284.263548 
C 235.153173 284.263548 228.079227 286.247104 222.864305 289.77736 
C 217.649382 293.307615 214.719258 298.096342 214.719258 303.088877 
C 214.719258 308.081413 217.649382 312.870139 222.864305 316.400395 
C 228.079227 319.930651 235.153173 321.914206 242.528188 321.914206 
z
" style="fill:none;opacity:0.2;stroke:#008000;stroke-linejoin:miter;stroke-width:2;"/>
   </g>
   <g id="patch_28">
    <path d="M 242.528188 292.264313 
Q 159.796621 236.258959 77.065055 180.253605 
" style="fill:none;opacity:0.5;stroke:#008000;stroke-linecap:round;stroke-width:2;"/>
   </g>
   <g id="patch_29">
    <path d="M 242.528188 282.853963 
Q 242.528188 291.264045 242.528188 299.674128 
" style="fill:none;opacity:0.5;stroke:#800080;stroke-linecap:round;stroke-width:2;"/>
    <path d="M 241.028188 284.353963 
L 242.528188 282.853963 
L 244.028188 284.353963 
" style="fill:none;opacity:0.5;stroke:#800080;stroke-linecap:round;stroke-width:2;"/>
    <path d="M 244.028188 298.174128 
L 242.528188 299.674128 
L 241.028188 298.174128 
" style="fill:none;opacity:0.5;stroke:#800080;stroke-linecap:round;stroke-width:2;"/>
   </g>
   <g id="patch_30">
    <path d="M 77.065055 180.253605 
Q 159.796621 121.895085 242.528188 63.536565 
" style="fill:none;opacity:0.5;stroke:#008000;stroke-linecap:round;stroke-width:2;"/>
   </g>
   <g id="patch_31">
    <path d="M 62.551807 158.371137 
Q 76.511474 179.418938 90.47114 200.466739 
" style="fill:none;opacity:0.5;stroke:#800080;stroke-linecap:round;stroke-width:2;"/>
    <path d="M 62.130836 160.450267 
L 62.551807 158.371137 
L 64.630938 158.792108 
" style="fill:none;opacity:0.5;stroke:#800080;stroke-linecap:round;stroke-width:2;"/>
    <path d="M 90.892112 198.387609 
L 90.47114 200.466739 
L 88.39201 200.045768 
" style="fill:none;opacity:0.5;stroke:#800080;stroke-linecap:round;stroke-width:2;"/>
   </g>
   <g id="patch_32">
    <path d="M 242.528188 63.536565 
Q 325.259754 121.895085 407.99132 180.253605 
" style="fill:none;opacity:0.5;stroke:#008000;stroke-linecap:round;stroke-width:2;"/>
   </g>
   <g id="patch_33">
    <path d="M 242.528188 32.477086 
Q 242.528188 62.535637 242.528188 92.594187 
" style="fill:none;opacity:0.5;stroke:#800080;stroke-linecap:round;stroke-width:2;"/>
    <path d="M 241.028188 33.977086 
L 242.528188 32.477086 
L 244.028188 33.977086 
" style="fill:none;opacity:0.5;stroke:#800080;stroke-linecap:round;stroke-width:2;"/>
    <path d="M 244.028188 91.094187 
L 242.528188 92.594187 
L 241.028188 91.094187 
" style="fill:none;opacity:0.5;stroke:#800080;stroke-linecap:round;stroke-width:2;"/>
   </g>
   <g id="patch_34">
    <path d="M 407.99132 180.253605 
Q 325.259754 236.258959 242.528188 292.264313 
" style="fill:none;opacity:0.5;stroke:#008000;stroke-linecap:round;stroke-width:2;"/>
   </g>
   <g id="patch_35">
    <path d="M 422.504568 158.371137 
Q 408.544901 179.418938 394.585235 200.466739 
" style="fill:none;opacity:0.5;stroke:#800080;stroke-linecap:round;stroke-width:2;"/>
    <path d="M 420.425437 158.792108 
L 422.504568 158.371137 
L 422.925539 160.450267 
" style="fill:none;opacity:0.5;stroke:#800080;stroke-linecap:round;stroke-width:2;"/>
    <path d="M 396.664365 200.045768 
L 394.585235 200.466739 
L 394.164263 198.387609 
" style="fill:none;opacity:0.5;stroke:#800080;stroke-linecap:round;stroke-width:2;"/>
   </g>
   <g id="line2d_1">
    <path clip-path="url(#p278fd59793)" d="M 242.528188 281.439749 
L 61.770144 157.192577 
L 242.528188 31.062873 
L 423.286231 157.192577 
" style="fill:none;stroke:#ff0000;stroke-linecap:square;stroke-width:0.2;"/>
   </g>
   <g id="line2d_2">
    <path clip-path="url(#p278fd59793)" d="M 242.528188 96.010258 
L 392.696408 203.314633 
L 242.528188 303.088877 
L 92.359967 203.314633 
" style="fill:none;stroke:#0000ff;stroke-linecap:square;stroke-width:0.2;"/>
   </g>
  </g>
 </g>
 <defs>
  <clipPath id="p278fd59793">
   <rect height="307.51175" width="409.903625" x="37.576375" y="13.32"/>
  </clipPath>
 </defs>
</svg>
