<?xml version="1.0" encoding="utf-8" standalone="no"?>
<!DOCTYPE svg PUBLIC "-//W3C//DTD SVG 1.1//EN"
  "http://www.w3.org/Graphics/SVG/1.1/DTD/svg11.dtd">
<!-- Created with matplotlib (http://matplotlib.org/) -->
<svg height="345.6pt" version="1.1" viewBox="0 0 460.8 345.6" width="460.8pt" xmlns="http://www.w3.org/2000/svg" xmlns:xlink="http://www.w3.org/1999/xlink">
 <defs>
  <style type="text/css">
*{stroke-linecap:butt;stroke-linejoin:round;}
  </style>
 </defs>
 <g id="figure_1">
  <g id="patch_1">
   <path d="M 0 345.6 
L 460.8 345.6 
L 460.8 0 
L 0 0 
z
" style="fill:#ffffff;"/>
  </g>
  <g id="axes_1">
   <g id="patch_2">
    <path clip-path="url(#p55806eecda)" d="M 242.528188 288.72573 
C 244.00319 288.72573 245.41798 288.323603 246.460964 287.607913 
C 247.503949 286.892222 248.089973 285.921402 248.089973 284.909264 
C 248.089973 283.897125 247.503949 282.926305 246.460964 282.210615 
C 245.41798 281.494924 244.00319 281.092798 242.528188 281.092798 
C 241.053185 281.092798 239.638395 281.494924 238.595411 282.210615 
C 237.552426 282.926305 236.966402 283.897125 236.966402 284.909264 
C 236.966402 285.921402 237.552426 286.892222 238.595411 287.607913 
C 239.638395 288.323603 241.053185 288.72573 242.528188 288.72573 
z
" style="fill:#ff0000;opacity:0.2;stroke:#ff0000;stroke-linejoin:miter;stroke-width:2;"/>
   </g>
   <g id="patch_3">
    <path clip-path="url(#p55806eecda)" d="M 61.770144 162.782351 
C 63.245147 162.782351 64.659936 162.380224 65.70292 161.664534 
C 66.745905 160.948844 67.33193 159.978023 67.33193 158.965885 
C 67.33193 157.953746 66.745905 156.982926 65.70292 156.267236 
C 64.659936 155.551546 63.245147 155.149419 61.770144 155.149419 
C 60.295141 155.149419 58.880352 155.551546 57.837367 156.267236 
C 56.794383 156.982926 56.208358 157.953746 56.208358 158.965885 
C 56.208358 159.978023 56.794383 160.948844 57.837367 161.664534 
C 58.880352 162.380224 60.295141 162.782351 61.770144 162.782351 
z
" style="fill:#ff0000;opacity:0.2;stroke:#ff0000;stroke-linejoin:miter;stroke-width:2;"/>
   </g>
   <g id="patch_4">
    <path clip-path="url(#p55806eecda)" d="M 242.528188 34.930739 
C 244.00319 34.930739 245.41798 34.528612 246.460964 33.812922 
C 247.503949 33.097232 248.089973 32.126411 248.089973 31.114273 
C 248.089973 30.102134 247.503949 29.131314 246.460964 28.415624 
C 245.41798 27.699934 244.00319 27.297807 242.528188 27.297807 
C 241.053185 27.297807 239.638395 27.699934 238.595411 28.415624 
C 237.552426 29.131314 236.966402 30.102134 236.966402 31.114273 
C 236.966402 32.126411 237.552426 33.097232 238.595411 33.812922 
C 239.638395 34.528612 241.053185 34.930739 242.528188 34.930739 
z
" style="fill:#ff0000;opacity:0.2;stroke:#ff0000;stroke-linejoin:miter;stroke-width:2;"/>
   </g>
   <g id="patch_5">
    <path clip-path="url(#p55806eecda)" d="M 423.286231 162.782351 
C 424.761234 162.782351 426.176023 162.380224 427.219008 161.664534 
C 428.261992 160.948844 428.848017 159.978023 428.848017 158.965885 
C 428.848017 157.953746 428.261992 156.982926 427.219008 156.267236 
C 426.176023 155.551546 424.761234 155.149419 423.286231 155.149419 
C 421.811228 155.149419 420.396439 155.551546 419.353455 156.267236 
C 418.31047 156.982926 417.724445 157.953746 417.724445 158.965885 
C 417.724445 159.978023 418.31047 160.948844 419.353455 161.664534 
C 420.396439 162.380224 421.811228 162.782351 423.286231 162.782351 
z
" style="fill:#ff0000;opacity:0.2;stroke:#ff0000;stroke-linejoin:miter;stroke-width:2;"/>
   </g>
   <g id="patch_6">
    <path clip-path="url(#p55806eecda)" d="M 242.528188 96.948312 
C 244.00319 96.948312 245.41798 96.546185 246.460964 95.830495 
C 247.503949 95.114805 248.089973 94.143984 248.089973 93.131846 
C 248.089973 92.119707 247.503949 91.148887 246.460964 90.433197 
C 245.41798 89.717507 244.00319 89.31538 242.528188 89.31538 
C 241.053185 89.31538 239.638395 89.717507 238.595411 90.433197 
C 237.552426 91.148887 236.966402 92.119707 236.966402 93.131846 
C 236.966402 94.143984 237.552426 95.114805 238.595411 95.830495 
C 239.638395 96.546185 241.053185 96.948312 242.528188 96.948312 
z
" style="fill:#0000ff;opacity:0.2;stroke:#0000ff;stroke-linejoin:miter;stroke-width:2;"/>
   </g>
   <g id="patch_7">
    <path clip-path="url(#p55806eecda)" d="M 392.696408 205.717594 
C 394.171411 205.717594 395.5862 205.315467 396.629185 204.599776 
C 397.672169 203.884086 398.258194 202.913266 398.258194 201.901127 
C 398.258194 200.888989 397.672169 199.918169 396.629185 199.202478 
C 395.5862 198.486788 394.171411 198.084661 392.696408 198.084661 
C 391.221405 198.084661 389.806616 198.486788 388.763632 199.202478 
C 387.720647 199.918169 387.134622 200.888989 387.134622 201.901127 
C 387.134622 202.913266 387.720647 203.884086 388.763632 204.599776 
C 389.806616 205.315467 391.221405 205.717594 392.696408 205.717594 
z
" style="fill:#0000ff;opacity:0.2;stroke:#0000ff;stroke-linejoin:miter;stroke-width:2;"/>
   </g>
   <g id="patch_8">
    <path clip-path="url(#p55806eecda)" d="M 242.528188 306.853943 
C 244.00319 306.853943 245.41798 306.451816 246.460964 305.736126 
C 247.503949 305.020436 248.089973 304.049616 248.089973 303.037477 
C 248.089973 302.025339 247.503949 301.054518 246.460964 300.338828 
C 245.41798 299.623138 244.00319 299.221011 242.528188 299.221011 
C 241.053185 299.221011 239.638395 299.623138 238.595411 300.338828 
C 237.552426 301.054518 236.966402 302.025339 236.966402 303.037477 
C 236.966402 304.049616 237.552426 305.020436 238.595411 305.736126 
C 239.638395 306.451816 241.053185 306.853943 242.528188 306.853943 
z
" style="fill:#0000ff;opacity:0.2;stroke:#0000ff;stroke-linejoin:miter;stroke-width:2;"/>
   </g>
   <g id="patch_9">
    <path clip-path="url(#p55806eecda)" d="M 92.359967 205.717594 
C 93.83497 205.717594 95.249759 205.315467 96.292743 204.599776 
C 97.335728 203.884086 97.921753 202.913266 97.921753 201.901127 
C 97.921753 200.888989 97.335728 199.918169 96.292743 199.202478 
C 95.249759 198.486788 93.83497 198.084661 92.359967 198.084661 
C 90.884964 198.084661 89.470175 198.486788 88.42719 199.202478 
C 87.384206 199.918169 86.798181 200.888989 86.798181 201.901127 
C 86.798181 202.913266 87.384206 203.884086 88.42719 204.599776 
C 89.470175 205.315467 90.884964 205.717594 92.359967 205.717594 
z
" style="fill:#0000ff;opacity:0.2;stroke:#0000ff;stroke-linejoin:miter;stroke-width:2;"/>
   </g>
   <g id="patch_10">
    <path clip-path="url(#p55806eecda)" d="M 242.528188 284.909264 
C 150.758719 284.909264 61.770144 237.203438 61.770144 158.965885 
C 61.770144 84.544797 139.635147 31.114273 242.528188 31.114273 
C 350.983014 31.114273 423.286231 90.269496 423.286231 158.965885 
C 423.286231 231.478739 350.983014 284.909264 242.528188 284.909264 
" style="fill:none;stroke:#ff0000;stroke-linejoin:miter;stroke-width:0.5;"/>
   </g>
   <g id="patch_11">
    <path clip-path="url(#p55806eecda)" d="M 242.528188 93.131846 
C 334.297656 93.131846 392.696408 142.745904 392.696408 201.901127 
C 392.696408 261.056351 334.297656 303.037477 242.528188 303.037477 
C 164.663184 303.037477 92.359967 264.872817 92.359967 201.901127 
C 92.359967 140.837671 156.320505 93.131846 242.528188 93.131846 
" style="fill:none;stroke:#0000ff;stroke-linejoin:miter;stroke-width:0.5;"/>
   </g>
   <g id="[&quot;g_s&quot;:1,&quot;g_t&quot;:3,&quot;coords&quot;:[[150.0, -872.0],[150.0, -881.5]],&quot;certainty&quot;:10]">
    <path clip-path="url(#p55806eecda)" d="M 242.528188 295.404545 
C 246.584445 295.404545 250.475116 294.298696 253.343323 292.330548 
C 256.211531 290.362401 257.823099 287.692645 257.823099 284.909264 
C 257.823099 282.125882 256.211531 279.456126 253.343323 277.487979 
C 250.475116 275.519831 246.584445 274.413982 242.528188 274.413982 
C 238.47193 274.413982 234.581259 275.519831 231.713052 277.487979 
C 228.844844 279.456126 227.233276 282.125882 227.233276 284.909264 
C 227.233276 287.692645 228.844844 290.362401 231.713052 292.330548 
C 234.581259 294.298696 238.47193 295.404545 242.528188 295.404545 
z
" style="fill:#0000ff;opacity:0.2;stroke:#0000ff;stroke-linejoin:miter;stroke-width:2;"/>
   </g>
   <g id="[&quot;g_s&quot;:3,&quot;g_t&quot;:1,&quot;coords&quot;:[[150.0, -881.5],[150.0, -872.0]],&quot;certainty&quot;:10]">
    <path clip-path="url(#p55806eecda)" d="M 242.528188 313.532759 
C 246.584445 313.532759 250.475116 312.42691 253.343323 310.458762 
C 256.211531 308.490614 257.823099 305.820858 257.823099 303.037477 
C 257.823099 300.254096 256.211531 297.58434 253.343323 295.616192 
C 250.475116 293.648045 246.584445 292.542196 242.528188 292.542196 
C 238.47193 292.542196 234.581259 293.648045 231.713052 295.616192 
C 228.844844 297.58434 227.233276 300.254096 227.233276 303.037477 
C 227.233276 305.820858 228.844844 308.490614 231.713052 310.458762 
C 234.581259 312.42691 238.47193 313.532759 242.528188 313.532759 
z
" style="fill:#ff0000;opacity:0.2;stroke:#ff0000;stroke-linejoin:miter;stroke-width:2;"/>
   </g>
   <g id="patch_12">
    <path d="M 242.528188 284.909264 
Q 242.528188 292.975345 242.528188 299.096883 
" style="fill:none;opacity:0.5;stroke:#0000ff;stroke-linecap:round;stroke-width:2.75;"/>
    <path d="M 244.028188 297.596883 
L 242.528188 299.096883 
L 241.028188 297.596883 
" style="fill:none;opacity:0.5;stroke:#0000ff;stroke-linecap:round;stroke-width:2.75;"/>
   </g>
   <g id="[&quot;g_s&quot;:2,&quot;g_t&quot;:4,&quot;coords&quot;:[[85.0, -806.0],[96.0, -828.5]],&quot;certainty&quot;:12]">
    <path clip-path="url(#p55806eecda)" d="M 61.770144 171.369399 
C 66.563903 171.369399 71.161968 170.062487 74.551668 167.736494 
C 77.941367 165.410501 79.845948 162.255335 79.845948 158.965885 
C 79.845948 155.676434 77.941367 152.521268 74.551668 150.195275 
C 71.161968 147.869283 66.563903 146.56237 61.770144 146.56237 
C 56.976385 146.56237 52.37832 147.869283 48.98862 150.195275 
C 45.59892 152.521268 43.69434 155.676434 43.69434 158.965885 
C 43.69434 162.255335 45.59892 165.410501 48.98862 167.736494 
C 52.37832 170.062487 56.976385 171.369399 61.770144 171.369399 
z
" style="fill:#0000ff;opacity:0.2;stroke:#0000ff;stroke-linejoin:miter;stroke-width:2;"/>
   </g>
   <g id="[&quot;g_s&quot;:4,&quot;g_t&quot;:2,&quot;coords&quot;:[[96.0, -828.5],[85.0, -806.0]],&quot;certainty&quot;:12]">
    <path clip-path="url(#p55806eecda)" d="M 92.359967 214.304642 
C 97.153726 214.304642 101.751791 212.99773 105.141491 210.671737 
C 108.53119 208.345744 110.435771 205.190578 110.435771 201.901127 
C 110.435771 198.611677 108.53119 195.456511 105.141491 193.130518 
C 101.751791 190.804525 97.153726 189.497613 92.359967 189.497613 
C 87.566207 189.497613 82.968143 190.804525 79.578443 193.130518 
C 76.188743 195.456511 74.284162 198.611677 74.284162 201.901127 
C 74.284162 205.190578 76.188743 208.345744 79.578443 210.671737 
C 82.968143 212.99773 87.566207 214.304642 92.359967 214.304642 
z
" style="fill:#ff0000;opacity:0.2;stroke:#ff0000;stroke-linejoin:miter;stroke-width:2;"/>
   </g>
   <g id="patch_13">
    <path d="M 61.770144 158.965885 
Q 76.485335 179.619822 89.867042 198.402111 
" style="fill:none;opacity:0.5;stroke:#0000ff;stroke-linecap:round;stroke-width:3.25;"/>
    <path d="M 90.218311 196.310076 
L 89.867042 198.402111 
L 87.775007 198.050842 
" style="fill:none;opacity:0.5;stroke:#0000ff;stroke-linecap:round;stroke-width:3.25;"/>
   </g>
   <g id="[&quot;g_s&quot;:3,&quot;g_t&quot;:1,&quot;coords&quot;:[[150.0, -739.0],[150.0, -771.5]],&quot;certainty&quot;:11]">
    <path clip-path="url(#p55806eecda)" d="M 242.528188 42.563671 
C 246.953196 42.563671 251.197564 41.35729 254.326517 39.21022 
C 257.455471 37.06315 259.213545 34.150689 259.213545 31.114273 
C 259.213545 28.077857 257.455471 25.165396 254.326517 23.018326 
C 251.197564 20.871256 246.953196 19.664875 242.528188 19.664875 
C 238.103179 19.664875 233.858811 20.871256 230.729858 23.018326 
C 227.600904 25.165396 225.84283 28.077857 225.84283 31.114273 
C 225.84283 34.150689 227.600904 37.06315 230.729858 39.21022 
C 233.858811 41.35729 238.103179 42.563671 242.528188 42.563671 
z
" style="fill:#0000ff;opacity:0.2;stroke:#0000ff;stroke-linejoin:miter;stroke-width:2;"/>
   </g>
   <g id="[&quot;g_s&quot;:1,&quot;g_t&quot;:3,&quot;coords&quot;:[[150.0, -771.5],[150.0, -739.0]],&quot;certainty&quot;:11]">
    <path clip-path="url(#p55806eecda)" d="M 242.528188 104.581244 
C 246.953196 104.581244 251.197564 103.374863 254.326517 101.227793 
C 257.455471 99.080723 259.213545 96.168262 259.213545 93.131846 
C 259.213545 90.09543 257.455471 87.182969 254.326517 85.035899 
C 251.197564 82.888828 246.953196 81.682448 242.528188 81.682448 
C 238.103179 81.682448 233.858811 82.888828 230.729858 85.035899 
C 227.600904 87.182969 225.84283 90.09543 225.84283 93.131846 
C 225.84283 96.168262 227.600904 99.080723 230.729858 101.227793 
C 233.858811 103.374863 238.103179 104.581244 242.528188 104.581244 
z
" style="fill:#ff0000;opacity:0.2;stroke:#ff0000;stroke-linejoin:miter;stroke-width:2;"/>
   </g>
   <g id="patch_14">
    <path d="M 242.528188 31.114273 
Q 242.528188 61.12186 242.528188 89.008127 
" style="fill:none;opacity:0.5;stroke:#0000ff;stroke-linecap:round;stroke-width:3;"/>
    <path d="M 244.028188 87.508127 
L 242.528188 89.008127 
L 241.028188 87.508127 
" style="fill:none;opacity:0.5;stroke:#0000ff;stroke-linecap:round;stroke-width:3;"/>
   </g>
   <g id="[&quot;g_s&quot;:4,&quot;g_t&quot;:2,&quot;coords&quot;:[[215.0, -806.0],[204.0, -828.5]],&quot;certainty&quot;:11]">
    <path clip-path="url(#p55806eecda)" d="M 423.286231 170.415283 
C 427.71124 170.415283 431.955607 169.208902 435.084561 167.061832 
C 438.213514 164.914761 439.971589 162.002301 439.971589 158.965885 
C 439.971589 155.929469 438.213514 153.017008 435.084561 150.869938 
C 431.955607 148.722867 427.71124 147.516487 423.286231 147.516487 
C 418.861222 147.516487 414.616855 148.722867 411.487901 150.869938 
C 408.358948 153.017008 406.600873 155.929469 406.600873 158.965885 
C 406.600873 162.002301 408.358948 164.914761 411.487901 167.061832 
C 414.616855 169.208902 418.861222 170.415283 423.286231 170.415283 
z
" style="fill:#0000ff;opacity:0.2;stroke:#0000ff;stroke-linejoin:miter;stroke-width:2;"/>
   </g>
   <g id="[&quot;g_s&quot;:2,&quot;g_t&quot;:4,&quot;coords&quot;:[[204.0, -828.5],[215.0, -806.0]],&quot;certainty&quot;:11]">
    <path clip-path="url(#p55806eecda)" d="M 392.696408 213.350526 
C 397.121417 213.350526 401.365784 212.144145 404.494738 209.997075 
C 407.623692 207.850004 409.381766 204.937543 409.381766 201.901127 
C 409.381766 198.864712 407.623692 195.952251 404.494738 193.80518 
C 401.365784 191.65811 397.121417 190.451729 392.696408 190.451729 
C 388.2714 190.451729 384.027032 191.65811 380.898079 193.80518 
C 377.769125 195.952251 376.01105 198.864712 376.01105 201.901127 
C 376.01105 204.937543 377.769125 207.850004 380.898079 209.997075 
C 384.027032 212.144145 388.2714 213.350526 392.696408 213.350526 
z
" style="fill:#ff0000;opacity:0.2;stroke:#ff0000;stroke-linejoin:miter;stroke-width:2;"/>
   </g>
   <g id="patch_15">
    <path d="M 423.286231 158.965885 
Q 408.57104 179.619822 395.086757 198.546084 
" style="fill:none;opacity:0.5;stroke:#0000ff;stroke-linecap:round;stroke-width:3;"/>
    <path d="M 397.178792 198.194815 
L 395.086757 198.546084 
L 394.735488 196.454049 
" style="fill:none;opacity:0.5;stroke:#0000ff;stroke-linecap:round;stroke-width:3;"/>
   </g>
   <g id="[&quot;g_s&quot;:1,&quot;g_t&quot;:3,&quot;coords&quot;:[[150.0, -771.5],[150.0, -739.0]],&quot;certainty&quot;:10]">
    <path clip-path="url(#p55806eecda)" d="M 242.528188 103.627127 
C 246.584445 103.627127 250.475116 102.521278 253.343323 100.553131 
C 256.211531 98.584983 257.823099 95.915227 257.823099 93.131846 
C 257.823099 90.348465 256.211531 87.678709 253.343323 85.710561 
C 250.475116 83.742413 246.584445 82.636564 242.528188 82.636564 
C 238.47193 82.636564 234.581259 83.742413 231.713052 85.710561 
C 228.844844 87.678709 227.233276 90.348465 227.233276 93.131846 
C 227.233276 95.915227 228.844844 98.584983 231.713052 100.553131 
C 234.581259 102.521278 238.47193 103.627127 242.528188 103.627127 
z
" style="fill:#0000ff;opacity:0.2;stroke:#0000ff;stroke-linejoin:miter;stroke-width:2;"/>
   </g>
   <g id="[&quot;g_s&quot;:3,&quot;g_t&quot;:1,&quot;coords&quot;:[[150.0, -739.0],[150.0, -771.5]],&quot;certainty&quot;:10]">
    <path clip-path="url(#p55806eecda)" d="M 242.528188 41.609554 
C 246.584445 41.609554 250.475116 40.503705 253.343323 38.535558 
C 256.211531 36.56741 257.823099 33.897654 257.823099 31.114273 
C 257.823099 28.330892 256.211531 25.661136 253.343323 23.692988 
C 250.475116 21.72484 246.584445 20.618991 242.528188 20.618991 
C 238.47193 20.618991 234.581259 21.72484 231.713052 23.692988 
C 228.844844 25.661136 227.233276 28.330892 227.233276 31.114273 
C 227.233276 33.897654 228.844844 36.56741 231.713052 38.535558 
C 234.581259 40.503705 238.47193 41.609554 242.528188 41.609554 
z
" style="fill:#ff0000;opacity:0.2;stroke:#ff0000;stroke-linejoin:miter;stroke-width:2;"/>
   </g>
   <g id="patch_16">
    <path d="M 242.528188 93.131846 
Q 242.528188 63.124259 242.528188 35.061215 
" style="fill:none;opacity:0.5;stroke:#ff0000;stroke-linecap:round;stroke-width:2.75;"/>
    <path d="M 241.028188 36.561215 
L 242.528188 35.061215 
L 244.028188 36.561215 
" style="fill:none;opacity:0.5;stroke:#ff0000;stroke-linecap:round;stroke-width:2.75;"/>
   </g>
   <g id="[&quot;g_s&quot;:2,&quot;g_t&quot;:4,&quot;coords&quot;:[[204.0, -828.5],[215.0, -806.0]],&quot;certainty&quot;:12]">
    <path clip-path="url(#p55806eecda)" d="M 392.696408 214.304642 
C 397.490168 214.304642 402.088232 212.99773 405.477932 210.671737 
C 408.867632 208.345744 410.772213 205.190578 410.772213 201.901127 
C 410.772213 198.611677 408.867632 195.456511 405.477932 193.130518 
C 402.088232 190.804525 397.490168 189.497613 392.696408 189.497613 
C 387.902649 189.497613 383.304584 190.804525 379.914884 193.130518 
C 376.525185 195.456511 374.620604 198.611677 374.620604 201.901127 
C 374.620604 205.190578 376.525185 208.345744 379.914884 210.671737 
C 383.304584 212.99773 387.902649 214.304642 392.696408 214.304642 
z
" style="fill:#0000ff;opacity:0.2;stroke:#0000ff;stroke-linejoin:miter;stroke-width:2;"/>
   </g>
   <g id="[&quot;g_s&quot;:4,&quot;g_t&quot;:2,&quot;coords&quot;:[[215.0, -806.0],[204.0, -828.5]],&quot;certainty&quot;:12]">
    <path clip-path="url(#p55806eecda)" d="M 423.286231 171.369399 
C 428.07999 171.369399 432.678055 170.062487 436.067755 167.736494 
C 439.457455 165.410501 441.362035 162.255335 441.362035 158.965885 
C 441.362035 155.676434 439.457455 152.521268 436.067755 150.195275 
C 432.678055 147.869283 428.07999 146.56237 423.286231 146.56237 
C 418.492472 146.56237 413.894407 147.869283 410.504707 150.195275 
C 407.115008 152.521268 405.210427 155.676434 405.210427 158.965885 
C 405.210427 162.255335 407.115008 165.410501 410.504707 167.736494 
C 413.894407 170.062487 418.492472 171.369399 423.286231 171.369399 
z
" style="fill:#ff0000;opacity:0.2;stroke:#ff0000;stroke-linejoin:miter;stroke-width:2;"/>
   </g>
   <g id="patch_17">
    <path d="M 392.696408 201.901127 
Q 407.411599 181.24719 420.793307 162.464902 
" style="fill:none;opacity:0.5;stroke:#ff0000;stroke-linecap:round;stroke-width:3.25;"/>
    <path d="M 418.701272 162.81617 
L 420.793307 162.464902 
L 421.144576 164.556937 
" style="fill:none;opacity:0.5;stroke:#ff0000;stroke-linecap:round;stroke-width:3.25;"/>
   </g>
   <g id="[&quot;g_s&quot;:3,&quot;g_t&quot;:1,&quot;coords&quot;:[[150.0, -881.5],[150.0, -872.0]],&quot;certainty&quot;:11]">
    <path clip-path="url(#p55806eecda)" d="M 242.528188 314.486875 
C 246.953196 314.486875 251.197564 313.280494 254.326517 311.133424 
C 257.455471 308.986354 259.213545 306.073893 259.213545 303.037477 
C 259.213545 300.001061 257.455471 297.0886 254.326517 294.94153 
C 251.197564 292.79446 246.953196 291.588079 242.528188 291.588079 
C 238.103179 291.588079 233.858811 292.79446 230.729858 294.94153 
C 227.600904 297.0886 225.84283 300.001061 225.84283 303.037477 
C 225.84283 306.073893 227.600904 308.986354 230.729858 311.133424 
C 233.858811 313.280494 238.103179 314.486875 242.528188 314.486875 
z
" style="fill:#0000ff;opacity:0.2;stroke:#0000ff;stroke-linejoin:miter;stroke-width:2;"/>
   </g>
   <g id="[&quot;g_s&quot;:1,&quot;g_t&quot;:3,&quot;coords&quot;:[[150.0, -872.0],[150.0, -881.5]],&quot;certainty&quot;:11]">
    <path clip-path="url(#p55806eecda)" d="M 242.528188 296.358662 
C 246.953196 296.358662 251.197564 295.152281 254.326517 293.005211 
C 257.455471 290.85814 259.213545 287.945679 259.213545 284.909264 
C 259.213545 281.872848 257.455471 278.960387 254.326517 276.813317 
C 251.197564 274.666246 246.953196 273.459865 242.528188 273.459865 
C 238.103179 273.459865 233.858811 274.666246 230.729858 276.813317 
C 227.600904 278.960387 225.84283 281.872848 225.84283 284.909264 
C 225.84283 287.945679 227.600904 290.85814 230.729858 293.005211 
C 233.858811 295.152281 238.103179 296.358662 242.528188 296.358662 
z
" style="fill:#ff0000;opacity:0.2;stroke:#ff0000;stroke-linejoin:miter;stroke-width:2;"/>
   </g>
   <g id="patch_18">
    <path d="M 242.528188 303.037477 
Q 242.528188 294.971396 242.528188 289.026635 
" style="fill:none;opacity:0.5;stroke:#ff0000;stroke-linecap:round;stroke-width:3;"/>
    <path d="M 241.028188 290.526635 
L 242.528188 289.026635 
L 244.028188 290.526635 
" style="fill:none;opacity:0.5;stroke:#ff0000;stroke-linecap:round;stroke-width:3;"/>
   </g>
   <g id="[&quot;g_s&quot;:4,&quot;g_t&quot;:2,&quot;coords&quot;:[[96.0, -828.5],[85.0, -806.0]],&quot;certainty&quot;:11]">
    <path clip-path="url(#p55806eecda)" d="M 92.359967 213.350526 
C 96.784975 213.350526 101.029343 212.144145 104.158296 209.997075 
C 107.28725 207.850004 109.045325 204.937543 109.045325 201.901127 
C 109.045325 198.864712 107.28725 195.952251 104.158296 193.80518 
C 101.029343 191.65811 96.784975 190.451729 92.359967 190.451729 
C 87.934958 190.451729 83.690591 191.65811 80.561637 193.80518 
C 77.432683 195.952251 75.674609 198.864712 75.674609 201.901127 
C 75.674609 204.937543 77.432683 207.850004 80.561637 209.997075 
C 83.690591 212.144145 87.934958 213.350526 92.359967 213.350526 
z
" style="fill:#0000ff;opacity:0.2;stroke:#0000ff;stroke-linejoin:miter;stroke-width:2;"/>
   </g>
   <g id="[&quot;g_s&quot;:2,&quot;g_t&quot;:4,&quot;coords&quot;:[[85.0, -806.0],[96.0, -828.5]],&quot;certainty&quot;:11]">
    <path clip-path="url(#p55806eecda)" d="M 61.770144 170.415283 
C 66.195153 170.415283 70.43952 169.208902 73.568474 167.061832 
C 76.697427 164.914761 78.455502 162.002301 78.455502 158.965885 
C 78.455502 155.929469 76.697427 153.017008 73.568474 150.869938 
C 70.43952 148.722867 66.195153 147.516487 61.770144 147.516487 
C 57.345135 147.516487 53.100768 148.722867 49.971814 150.869938 
C 46.842861 153.017008 45.084786 155.929469 45.084786 158.965885 
C 45.084786 162.002301 46.842861 164.914761 49.971814 167.061832 
C 53.100768 169.208902 57.345135 170.415283 61.770144 170.415283 
z
" style="fill:#ff0000;opacity:0.2;stroke:#ff0000;stroke-linejoin:miter;stroke-width:2;"/>
   </g>
   <g id="patch_19">
    <path d="M 92.359967 201.901127 
Q 77.644776 181.24719 64.160492 162.320929 
" style="fill:none;opacity:0.5;stroke:#ff0000;stroke-linecap:round;stroke-width:3;"/>
    <path d="M 63.809224 164.412964 
L 64.160492 162.320929 
L 66.252527 162.672197 
" style="fill:none;opacity:0.5;stroke:#ff0000;stroke-linecap:round;stroke-width:3;"/>
   </g>
   <g id="patch_20">
    <path clip-path="url(#p55806eecda)" d="M 242.528188 303.514535 
C 246.215695 303.514535 249.752668 302.509218 252.360129 300.719993 
C 254.96759 298.930768 256.432652 296.503717 256.432652 293.97337 
C 256.432652 291.443024 254.96759 289.015973 252.360129 287.226748 
C 249.752668 285.437523 246.215695 284.432205 242.528188 284.432205 
C 238.84068 284.432205 235.303707 285.437523 232.696246 287.226748 
C 230.088785 289.015973 228.623723 291.443024 228.623723 293.97337 
C 228.623723 296.503717 230.088785 298.930768 232.696246 300.719993 
C 235.303707 302.509218 238.84068 303.514535 242.528188 303.514535 
z
" style="fill:#008000;opacity:0.2;stroke:#008000;stroke-linejoin:miter;stroke-width:2;"/>
   </g>
   <g id="patch_21">
    <path clip-path="url(#p55806eecda)" d="M 77.065055 189.974671 
C 80.752562 189.974671 84.289535 188.969354 86.896997 187.180129 
C 89.504458 185.390903 90.96952 182.963853 90.96952 180.433506 
C 90.96952 177.90316 89.504458 175.476109 86.896997 173.686884 
C 84.289535 171.897658 80.752562 170.892341 77.065055 170.892341 
C 73.377548 170.892341 69.840575 171.897658 67.233114 173.686884 
C 64.625653 175.476109 63.16059 177.90316 63.16059 180.433506 
C 63.16059 182.963853 64.625653 185.390903 67.233114 187.180129 
C 69.840575 188.969354 73.377548 189.974671 77.065055 189.974671 
z
" style="fill:#008000;opacity:0.2;stroke:#008000;stroke-linejoin:miter;stroke-width:2;"/>
   </g>
   <g id="patch_22">
    <path clip-path="url(#p55806eecda)" d="M 242.528188 71.664224 
C 246.215695 71.664224 249.752668 70.658907 252.360129 68.869682 
C 254.96759 67.080457 256.432652 64.653406 256.432652 62.123059 
C 256.432652 59.592713 254.96759 57.165662 252.360129 55.376437 
C 249.752668 53.587212 246.215695 52.581894 242.528188 52.581894 
C 238.84068 52.581894 235.303707 53.587212 232.696246 55.376437 
C 230.088785 57.165662 228.623723 59.592713 228.623723 62.123059 
C 228.623723 64.653406 230.088785 67.080457 232.696246 68.869682 
C 235.303707 70.658907 238.84068 71.664224 242.528188 71.664224 
z
" style="fill:#008000;opacity:0.2;stroke:#008000;stroke-linejoin:miter;stroke-width:2;"/>
   </g>
   <g id="patch_23">
    <path clip-path="url(#p55806eecda)" d="M 407.99132 189.974671 
C 411.678827 189.974671 415.2158 188.969354 417.823261 187.180129 
C 420.430722 185.390903 421.895785 182.963853 421.895785 180.433506 
C 421.895785 177.90316 420.430722 175.476109 417.823261 173.686884 
C 415.2158 171.897658 411.678827 170.892341 407.99132 170.892341 
C 404.303813 170.892341 400.76684 171.897658 398.159378 173.686884 
C 395.551917 175.476109 394.086855 177.90316 394.086855 180.433506 
C 394.086855 182.963853 395.551917 185.390903 398.159378 187.180129 
C 400.76684 188.969354 404.303813 189.974671 407.99132 189.974671 
z
" style="fill:#008000;opacity:0.2;stroke:#008000;stroke-linejoin:miter;stroke-width:2;"/>
   </g>
   <g id="patch_24">
    <path clip-path="url(#p55806eecda)" d="M 242.528188 323.073924 
C 257.278216 323.073924 271.426108 319.052654 281.855953 311.895754 
C 292.285799 304.738853 298.146047 295.03065 298.146047 284.909264 
C 298.146047 274.787877 292.285799 265.079674 281.855953 257.922773 
C 271.426108 250.765873 257.278216 246.744603 242.528188 246.744603 
C 227.778159 246.744603 213.630267 250.765873 203.200422 257.922773 
C 192.770576 265.079674 186.910328 274.787877 186.910328 284.909264 
C 186.910328 295.03065 192.770576 304.738853 203.200422 311.895754 
C 213.630267 319.052654 227.778159 323.073924 242.528188 323.073924 
z
" style="fill:none;opacity:0.2;stroke:#ff0000;stroke-linejoin:miter;stroke-width:2;"/>
   </g>
   <g id="patch_25">
    <path clip-path="url(#p55806eecda)" d="M 242.528188 131.296506 
C 257.278216 131.296506 271.426108 127.275237 281.855953 120.118336 
C 292.285799 112.961435 298.146047 103.253232 298.146047 93.131846 
C 298.146047 83.01046 292.285799 73.302257 281.855953 66.145356 
C 271.426108 58.988455 257.278216 54.967186 242.528188 54.967186 
C 227.778159 54.967186 213.630267 58.988455 203.200422 66.145356 
C 192.770576 73.302257 186.910328 83.01046 186.910328 93.131846 
C 186.910328 103.253232 192.770576 112.961435 203.200422 120.118336 
C 213.630267 127.275237 227.778159 131.296506 242.528188 131.296506 
z
" style="fill:none;opacity:0.2;stroke:#0000ff;stroke-linejoin:miter;stroke-width:2;"/>
   </g>
   <g id="patch_26">
    <path clip-path="url(#p55806eecda)" d="M 242.528188 303.991594 
C 249.903202 303.991594 256.977148 301.980959 262.19207 298.402509 
C 267.406993 294.824058 270.337117 289.969957 270.337117 284.909264 
C 270.337117 279.84857 267.406993 274.994469 262.19207 271.416019 
C 256.977148 267.837568 249.903202 265.826933 242.528188 265.826933 
C 235.153173 265.826933 228.079227 267.837568 222.864305 271.416019 
C 217.649382 274.994469 214.719258 279.84857 214.719258 284.909264 
C 214.719258 289.969957 217.649382 294.824058 222.864305 298.402509 
C 228.079227 301.980959 235.153173 303.991594 242.528188 303.991594 
z
" style="fill:none;opacity:0.2;stroke:#008000;stroke-linejoin:miter;stroke-width:2;"/>
   </g>
   <g id="patch_27">
    <path clip-path="url(#p55806eecda)" d="M 242.528188 322.119807 
C 249.903202 322.119807 256.977148 320.109173 262.19207 316.530722 
C 267.406993 312.952272 270.337117 308.09817 270.337117 303.037477 
C 270.337117 297.976784 267.406993 293.122683 262.19207 289.544232 
C 256.977148 285.965782 249.903202 283.955147 242.528188 283.955147 
C 235.153173 283.955147 228.079227 285.965782 222.864305 289.544232 
C 217.649382 293.122683 214.719258 297.976784 214.719258 303.037477 
C 214.719258 308.09817 217.649382 312.952272 222.864305 316.530722 
C 228.079227 320.109173 235.153173 322.119807 242.528188 322.119807 
z
" style="fill:none;opacity:0.2;stroke:#008000;stroke-linejoin:miter;stroke-width:2;"/>
   </g>
   <g id="patch_28">
    <path d="M 242.528188 293.97337 
Q 159.796621 237.203438 77.065055 180.433506 
" style="fill:none;opacity:0.5;stroke:#008000;stroke-linecap:round;stroke-width:2;"/>
   </g>
   <g id="patch_29">
    <path d="M 242.528188 286.323477 
Q 242.528188 292.975345 242.528188 299.627213 
" style="fill:none;opacity:0.5;stroke:#800080;stroke-linecap:round;stroke-width:2;"/>
    <path d="M 241.028188 287.823477 
L 242.528188 286.323477 
L 244.028188 287.823477 
" style="fill:none;opacity:0.5;stroke:#800080;stroke-linecap:round;stroke-width:2;"/>
    <path d="M 244.028188 298.127213 
L 242.528188 299.627213 
L 241.028188 298.127213 
" style="fill:none;opacity:0.5;stroke:#800080;stroke-linecap:round;stroke-width:2;"/>
   </g>
   <g id="patch_30">
    <path d="M 77.065055 180.433506 
Q 159.796621 121.278283 242.528188 62.123059 
" style="fill:none;opacity:0.5;stroke:#008000;stroke-linecap:round;stroke-width:2;"/>
   </g>
   <g id="patch_31">
    <path d="M 62.590749 160.117669 
Q 76.485335 179.619822 90.379921 199.121976 
" style="fill:none;opacity:0.5;stroke:#800080;stroke-linecap:round;stroke-width:2;"/>
    <path d="M 62.23948 162.209704 
L 62.590749 160.117669 
L 64.682784 160.468938 
" style="fill:none;opacity:0.5;stroke:#800080;stroke-linecap:round;stroke-width:2;"/>
    <path d="M 90.731189 197.029941 
L 90.379921 199.121976 
L 88.287886 198.770707 
" style="fill:none;opacity:0.5;stroke:#800080;stroke-linecap:round;stroke-width:2;"/>
   </g>
   <g id="patch_32">
    <path d="M 242.528188 62.123059 
Q 325.259754 121.278283 407.99132 180.433506 
" style="fill:none;opacity:0.5;stroke:#008000;stroke-linecap:round;stroke-width:2;"/>
   </g>
   <g id="patch_33">
    <path d="M 242.528188 32.528486 
Q 242.528188 61.12186 242.528188 89.715234 
" style="fill:none;opacity:0.5;stroke:#800080;stroke-linecap:round;stroke-width:2;"/>
    <path d="M 241.028188 34.028486 
L 242.528188 32.528486 
L 244.028188 34.028486 
" style="fill:none;opacity:0.5;stroke:#800080;stroke-linecap:round;stroke-width:2;"/>
    <path d="M 244.028188 88.215234 
L 242.528188 89.715234 
L 241.028188 88.215234 
" style="fill:none;opacity:0.5;stroke:#800080;stroke-linecap:round;stroke-width:2;"/>
   </g>
   <g id="patch_34">
    <path d="M 407.99132 180.433506 
Q 325.259754 237.203438 242.528188 293.97337 
" style="fill:none;opacity:0.5;stroke:#008000;stroke-linecap:round;stroke-width:2;"/>
   </g>
   <g id="patch_35">
    <path d="M 422.465626 160.117669 
Q 408.57104 179.619822 394.676454 199.121976 
" style="fill:none;opacity:0.5;stroke:#800080;stroke-linecap:round;stroke-width:2;"/>
    <path d="M 420.373591 160.468938 
L 422.465626 160.117669 
L 422.816895 162.209704 
" style="fill:none;opacity:0.5;stroke:#800080;stroke-linecap:round;stroke-width:2;"/>
    <path d="M 396.768489 198.770707 
L 394.676454 199.121976 
L 394.325186 197.029941 
" style="fill:none;opacity:0.5;stroke:#800080;stroke-linecap:round;stroke-width:2;"/>
   </g>
   <g id="line2d_1">
    <path clip-path="url(#p55806eecda)" d="M 242.528188 284.909264 
L 61.770144 158.965885 
L 242.528188 31.114273 
L 423.286231 158.965885 
" style="fill:none;stroke:#ff0000;stroke-linecap:square;stroke-width:0.2;"/>
   </g>
   <g id="line2d_2">
    <path clip-path="url(#p55806eecda)" d="M 242.528188 93.131846 
L 392.696408 201.901127 
L 242.528188 303.037477 
L 92.359967 201.901127 
" style="fill:none;stroke:#0000ff;stroke-linecap:square;stroke-width:0.2;"/>
   </g>
  </g>
 </g>
 <defs>
  <clipPath id="p55806eecda">
   <rect height="307.51175" width="409.903625" x="37.576375" y="13.32"/>
  </clipPath>
 </defs>
</svg>
