<?xml version="1.0" encoding="utf-8" standalone="no"?>
<!DOCTYPE svg PUBLIC "-//W3C//DTD SVG 1.1//EN"
  "http://www.w3.org/Graphics/SVG/1.1/DTD/svg11.dtd">
<!-- Created with matplotlib (http://matplotlib.org/) -->
<svg height="345.6pt" version="1.1" viewBox="0 0 460.8 345.6" width="460.8pt" xmlns="http://www.w3.org/2000/svg" xmlns:xlink="http://www.w3.org/1999/xlink">
 <defs>
  <style type="text/css">
*{stroke-linecap:butt;stroke-linejoin:round;}
  </style>
 </defs>
 <g id="figure_1">
  <g id="patch_1">
   <path d="M 0 345.6 
L 460.8 345.6 
L 460.8 0 
L 0 0 
z
" style="fill:#ffffff;"/>
  </g>
  <g id="axes_1">
   <g id="patch_2">
    <path clip-path="url(#p64367d5f92)" d="M 283.472545 302.183554 
C 283.960571 302.183554 284.428674 302.042954 284.77376 301.792718 
C 285.118846 301.542483 285.312741 301.203044 285.312741 300.849157 
C 285.312741 300.495271 285.118846 300.155832 284.77376 299.905596 
C 284.428674 299.655361 283.960571 299.514761 283.472545 299.514761 
C 282.984519 299.514761 282.516416 299.655361 282.17133 299.905596 
C 281.826244 300.155832 281.632349 300.495271 281.632349 300.849157 
C 281.632349 301.203044 281.826244 301.542483 282.17133 301.792718 
C 282.516416 302.042954 282.984519 302.183554 283.472545 302.183554 
z
" style="fill:#ff0000;opacity:0.2;stroke:#ff0000;stroke-linejoin:miter;stroke-width:2;"/>
   </g>
   <g id="patch_3">
    <path clip-path="url(#p64367d5f92)" d="M 202.503928 302.183554 
C 202.991953 302.183554 203.460057 302.042954 203.805143 301.792718 
C 204.150229 301.542483 204.344124 301.203044 204.344124 300.849157 
C 204.344124 300.495271 204.150229 300.155832 203.805143 299.905596 
C 203.460057 299.655361 202.991953 299.514761 202.503928 299.514761 
C 202.015902 299.514761 201.547799 299.655361 201.202713 299.905596 
C 200.857627 300.155832 200.663732 300.495271 200.663732 300.849157 
C 200.663732 301.203044 200.857627 301.542483 201.202713 301.792718 
C 201.547799 302.042954 202.015902 302.183554 202.503928 302.183554 
z
" style="fill:#ff0000;opacity:0.2;stroke:#ff0000;stroke-linejoin:miter;stroke-width:2;"/>
   </g>
   <g id="patch_4">
    <path clip-path="url(#p64367d5f92)" d="M 202.503928 184.089435 
C 202.991953 184.089435 203.460057 183.948834 203.805143 183.698599 
C 204.150229 183.448364 204.344124 183.108924 204.344124 182.755038 
C 204.344124 182.401152 204.150229 182.061712 203.805143 181.811477 
C 203.460057 181.561241 202.991953 181.420641 202.503928 181.420641 
C 202.015902 181.420641 201.547799 181.561241 201.202713 181.811477 
C 200.857627 182.061712 200.663732 182.401152 200.663732 182.755038 
C 200.663732 183.108924 200.857627 183.448364 201.202713 183.698599 
C 201.547799 183.948834 202.015902 184.089435 202.503928 184.089435 
z
" style="fill:#ff0000;opacity:0.2;stroke:#ff0000;stroke-linejoin:miter;stroke-width:2;"/>
   </g>
   <g id="patch_5">
    <path clip-path="url(#p64367d5f92)" d="M 58.048554 184.089435 
C 58.536579 184.089435 59.004683 183.948834 59.349769 183.698599 
C 59.694855 183.448364 59.88875 183.108924 59.88875 182.755038 
C 59.88875 182.401152 59.694855 182.061712 59.349769 181.811477 
C 59.004683 181.561241 58.536579 181.420641 58.048554 181.420641 
C 57.560528 181.420641 57.092425 181.561241 56.747339 181.811477 
C 56.402253 182.061712 56.208358 182.401152 56.208358 182.755038 
C 56.208358 183.108924 56.402253 183.448364 56.747339 183.698599 
C 57.092425 183.948834 57.560528 184.089435 58.048554 184.089435 
z
" style="fill:#ff0000;opacity:0.2;stroke:#ff0000;stroke-linejoin:miter;stroke-width:2;"/>
   </g>
   <g id="patch_6">
    <path clip-path="url(#p64367d5f92)" d="M 58.048554 136.051149 
C 58.536579 136.051149 59.004683 135.910548 59.349769 135.660313 
C 59.694855 135.410078 59.88875 135.070638 59.88875 134.716752 
C 59.88875 134.362866 59.694855 134.023426 59.349769 133.773191 
C 59.004683 133.522955 58.536579 133.382355 58.048554 133.382355 
C 57.560528 133.382355 57.092425 133.522955 56.747339 133.773191 
C 56.402253 134.023426 56.208358 134.362866 56.208358 134.716752 
C 56.208358 135.070638 56.402253 135.410078 56.747339 135.660313 
C 57.092425 135.910548 57.560528 136.051149 58.048554 136.051149 
z
" style="fill:#ff0000;opacity:0.2;stroke:#ff0000;stroke-linejoin:miter;stroke-width:2;"/>
   </g>
   <g id="patch_7">
    <path clip-path="url(#p64367d5f92)" d="M 202.503928 136.051149 
C 202.991953 136.051149 203.460057 135.910548 203.805143 135.660313 
C 204.150229 135.410078 204.344124 135.070638 204.344124 134.716752 
C 204.344124 134.362866 204.150229 134.023426 203.805143 133.773191 
C 203.460057 133.522955 202.991953 133.382355 202.503928 133.382355 
C 202.015902 133.382355 201.547799 133.522955 201.202713 133.773191 
C 200.857627 134.023426 200.663732 134.362866 200.663732 134.716752 
C 200.663732 135.070638 200.857627 135.410078 201.202713 135.660313 
C 201.547799 135.910548 202.015902 136.051149 202.503928 136.051149 
z
" style="fill:#ff0000;opacity:0.2;stroke:#ff0000;stroke-linejoin:miter;stroke-width:2;"/>
   </g>
   <g id="patch_8">
    <path clip-path="url(#p64367d5f92)" d="M 202.503928 29.9666 
C 202.991953 29.9666 203.460057 29.826 203.805143 29.575765 
C 204.150229 29.325529 204.344124 28.98609 204.344124 28.632204 
C 204.344124 28.278317 204.150229 27.938878 203.805143 27.688643 
C 203.460057 27.438407 202.991953 27.297807 202.503928 27.297807 
C 202.015902 27.297807 201.547799 27.438407 201.202713 27.688643 
C 200.857627 27.938878 200.663732 28.278317 200.663732 28.632204 
C 200.663732 28.98609 200.857627 29.325529 201.202713 29.575765 
C 201.547799 29.826 202.015902 29.9666 202.503928 29.9666 
z
" style="fill:#ff0000;opacity:0.2;stroke:#ff0000;stroke-linejoin:miter;stroke-width:2;"/>
   </g>
   <g id="patch_9">
    <path clip-path="url(#p64367d5f92)" d="M 283.472545 29.9666 
C 283.960571 29.9666 284.428674 29.826 284.77376 29.575765 
C 285.118846 29.325529 285.312741 28.98609 285.312741 28.632204 
C 285.312741 28.278317 285.118846 27.938878 284.77376 27.688643 
C 284.428674 27.438407 283.960571 27.297807 283.472545 27.297807 
C 282.984519 27.297807 282.516416 27.438407 282.17133 27.688643 
C 281.826244 27.938878 281.632349 28.278317 281.632349 28.632204 
C 281.632349 28.98609 281.826244 29.325529 282.17133 29.575765 
C 282.516416 29.826 282.984519 29.9666 283.472545 29.9666 
z
" style="fill:#ff0000;opacity:0.2;stroke:#ff0000;stroke-linejoin:miter;stroke-width:2;"/>
   </g>
   <g id="patch_10">
    <path clip-path="url(#p64367d5f92)" d="M 283.472545 136.051149 
C 283.960571 136.051149 284.428674 135.910548 284.77376 135.660313 
C 285.118846 135.410078 285.312741 135.070638 285.312741 134.716752 
C 285.312741 134.362866 285.118846 134.023426 284.77376 133.773191 
C 284.428674 133.522955 283.960571 133.382355 283.472545 133.382355 
C 282.984519 133.382355 282.516416 133.522955 282.17133 133.773191 
C 281.826244 134.023426 281.632349 134.362866 281.632349 134.716752 
C 281.632349 135.070638 281.826244 135.410078 282.17133 135.660313 
C 282.516416 135.910548 282.984519 136.051149 283.472545 136.051149 
z
" style="fill:#ff0000;opacity:0.2;stroke:#ff0000;stroke-linejoin:miter;stroke-width:2;"/>
   </g>
   <g id="patch_11">
    <path clip-path="url(#p64367d5f92)" d="M 427.007821 136.051149 
C 427.495847 136.051149 427.96395 135.910548 428.309036 135.660313 
C 428.654122 135.410078 428.848017 135.070638 428.848017 134.716752 
C 428.848017 134.362866 428.654122 134.023426 428.309036 133.773191 
C 427.96395 133.522955 427.495847 133.382355 427.007821 133.382355 
C 426.519796 133.382355 426.051692 133.522955 425.706606 133.773191 
C 425.36152 134.023426 425.167625 134.362866 425.167625 134.716752 
C 425.167625 135.070638 425.36152 135.410078 425.706606 135.660313 
C 426.051692 135.910548 426.519796 136.051149 427.007821 136.051149 
z
" style="fill:#ff0000;opacity:0.2;stroke:#ff0000;stroke-linejoin:miter;stroke-width:2;"/>
   </g>
   <g id="patch_12">
    <path clip-path="url(#p64367d5f92)" d="M 427.007821 184.089435 
C 427.495847 184.089435 427.96395 183.948834 428.309036 183.698599 
C 428.654122 183.448364 428.848017 183.108924 428.848017 182.755038 
C 428.848017 182.401152 428.654122 182.061712 428.309036 181.811477 
C 427.96395 181.561241 427.495847 181.420641 427.007821 181.420641 
C 426.519796 181.420641 426.051692 181.561241 425.706606 181.811477 
C 425.36152 182.061712 425.167625 182.401152 425.167625 182.755038 
C 425.167625 183.108924 425.36152 183.448364 425.706606 183.698599 
C 426.051692 183.948834 426.519796 184.089435 427.007821 184.089435 
z
" style="fill:#ff0000;opacity:0.2;stroke:#ff0000;stroke-linejoin:miter;stroke-width:2;"/>
   </g>
   <g id="patch_13">
    <path clip-path="url(#p64367d5f92)" d="M 283.472545 184.089435 
C 283.960571 184.089435 284.428674 183.948834 284.77376 183.698599 
C 285.118846 183.448364 285.312741 183.108924 285.312741 182.755038 
C 285.312741 182.401152 285.118846 182.061712 284.77376 181.811477 
C 284.428674 181.561241 283.960571 181.420641 283.472545 181.420641 
C 282.984519 181.420641 282.516416 181.561241 282.17133 181.811477 
C 281.826244 182.061712 281.632349 182.401152 281.632349 182.755038 
C 281.632349 183.108924 281.826244 183.448364 282.17133 183.698599 
C 282.516416 183.948834 282.984519 184.089435 283.472545 184.089435 
z
" style="fill:#ff0000;opacity:0.2;stroke:#ff0000;stroke-linejoin:miter;stroke-width:2;"/>
   </g>
   <g id="patch_14">
    <path clip-path="url(#p64367d5f92)" d="M 269.671076 306.853943 
C 270.159102 306.853943 270.627205 306.713343 270.972291 306.463107 
C 271.317377 306.212872 271.511272 305.873433 271.511272 305.519546 
C 271.511272 305.16566 271.317377 304.826221 270.972291 304.575985 
C 270.627205 304.32575 270.159102 304.18515 269.671076 304.18515 
C 269.183051 304.18515 268.714948 304.32575 268.369861 304.575985 
C 268.024775 304.826221 267.83088 305.16566 267.83088 305.519546 
C 267.83088 305.873433 268.024775 306.212872 268.369861 306.463107 
C 268.714948 306.713343 269.183051 306.853943 269.671076 306.853943 
z
" style="fill:#0000ff;opacity:0.2;stroke:#0000ff;stroke-linejoin:miter;stroke-width:2;"/>
   </g>
   <g id="patch_15">
    <path clip-path="url(#p64367d5f92)" d="M 215.385299 306.853943 
C 215.873324 306.853943 216.341427 306.713343 216.686514 306.463107 
C 217.0316 306.212872 217.225495 305.873433 217.225495 305.519546 
C 217.225495 305.16566 217.0316 304.826221 216.686514 304.575985 
C 216.341427 304.32575 215.873324 304.18515 215.385299 304.18515 
C 214.897273 304.18515 214.42917 304.32575 214.084084 304.575985 
C 213.738998 304.826221 213.545103 305.16566 213.545103 305.519546 
C 213.545103 305.873433 213.738998 306.212872 214.084084 306.463107 
C 214.42917 306.713343 214.897273 306.853943 215.385299 306.853943 
z
" style="fill:#0000ff;opacity:0.2;stroke:#0000ff;stroke-linejoin:miter;stroke-width:2;"/>
   </g>
   <g id="patch_16">
    <path clip-path="url(#p64367d5f92)" d="M 215.385299 186.09103 
C 215.873324 186.09103 216.341427 185.950429 216.686514 185.700194 
C 217.0316 185.449959 217.225495 185.110519 217.225495 184.756633 
C 217.225495 184.402747 217.0316 184.063307 216.686514 183.813072 
C 216.341427 183.562837 215.873324 183.422236 215.385299 183.422236 
C 214.897273 183.422236 214.42917 183.562837 214.084084 183.813072 
C 213.738998 184.063307 213.545103 184.402747 213.545103 184.756633 
C 213.545103 185.110519 213.738998 185.449959 214.084084 185.700194 
C 214.42917 185.950429 214.897273 186.09103 215.385299 186.09103 
z
" style="fill:#0000ff;opacity:0.2;stroke:#0000ff;stroke-linejoin:miter;stroke-width:2;"/>
   </g>
   <g id="patch_17">
    <path clip-path="url(#p64367d5f92)" d="M 65.409337 186.09103 
C 65.897363 186.09103 66.365466 185.950429 66.710552 185.700194 
C 67.055638 185.449959 67.249533 185.110519 67.249533 184.756633 
C 67.249533 184.402747 67.055638 184.063307 66.710552 183.813072 
C 66.365466 183.562837 65.897363 183.422236 65.409337 183.422236 
C 64.921312 183.422236 64.453208 183.562837 64.108122 183.813072 
C 63.763036 184.063307 63.569141 184.402747 63.569141 184.756633 
C 63.569141 185.110519 63.763036 185.449959 64.108122 185.700194 
C 64.453208 185.950429 64.921312 186.09103 65.409337 186.09103 
z
" style="fill:#0000ff;opacity:0.2;stroke:#0000ff;stroke-linejoin:miter;stroke-width:2;"/>
   </g>
   <g id="patch_18">
    <path clip-path="url(#p64367d5f92)" d="M 65.409337 153.398307 
C 65.897363 153.398307 66.365466 153.257707 66.710552 153.007472 
C 67.055638 152.757236 67.249533 152.417797 67.249533 152.063911 
C 67.249533 151.710024 67.055638 151.370585 66.710552 151.12035 
C 66.365466 150.870114 65.897363 150.729514 65.409337 150.729514 
C 64.921312 150.729514 64.453208 150.870114 64.108122 151.12035 
C 63.763036 151.370585 63.569141 151.710024 63.569141 152.063911 
C 63.569141 152.417797 63.763036 152.757236 64.108122 153.007472 
C 64.453208 153.257707 64.921312 153.398307 65.409337 153.398307 
z
" style="fill:#0000ff;opacity:0.2;stroke:#0000ff;stroke-linejoin:miter;stroke-width:2;"/>
   </g>
   <g id="patch_19">
    <path clip-path="url(#p64367d5f92)" d="M 215.385299 153.398307 
C 215.873324 153.398307 216.341427 153.257707 216.686514 153.007472 
C 217.0316 152.757236 217.225495 152.417797 217.225495 152.063911 
C 217.225495 151.710024 217.0316 151.370585 216.686514 151.12035 
C 216.341427 150.870114 215.873324 150.729514 215.385299 150.729514 
C 214.897273 150.729514 214.42917 150.870114 214.084084 151.12035 
C 213.738998 151.370585 213.545103 151.710024 213.545103 152.063911 
C 213.545103 152.417797 213.738998 152.757236 214.084084 153.007472 
C 214.42917 153.257707 214.897273 153.398307 215.385299 153.398307 
z
" style="fill:#0000ff;opacity:0.2;stroke:#0000ff;stroke-linejoin:miter;stroke-width:2;"/>
   </g>
   <g id="patch_20">
    <path clip-path="url(#p64367d5f92)" d="M 215.385299 43.977767 
C 215.873324 43.977767 216.341427 43.837167 216.686514 43.586931 
C 217.0316 43.336696 217.225495 42.997257 217.225495 42.64337 
C 217.225495 42.289484 217.0316 41.950045 216.686514 41.699809 
C 216.341427 41.449574 215.873324 41.308974 215.385299 41.308974 
C 214.897273 41.308974 214.42917 41.449574 214.084084 41.699809 
C 213.738998 41.950045 213.545103 42.289484 213.545103 42.64337 
C 213.545103 42.997257 213.738998 43.336696 214.084084 43.586931 
C 214.42917 43.837167 214.897273 43.977767 215.385299 43.977767 
z
" style="fill:#0000ff;opacity:0.2;stroke:#0000ff;stroke-linejoin:miter;stroke-width:2;"/>
   </g>
   <g id="patch_21">
    <path clip-path="url(#p64367d5f92)" d="M 269.671076 43.977767 
C 270.159102 43.977767 270.627205 43.837167 270.972291 43.586931 
C 271.317377 43.336696 271.511272 42.997257 271.511272 42.64337 
C 271.511272 42.289484 271.317377 41.950045 270.972291 41.699809 
C 270.627205 41.449574 270.159102 41.308974 269.671076 41.308974 
C 269.183051 41.308974 268.714948 41.449574 268.369861 41.699809 
C 268.024775 41.950045 267.83088 42.289484 267.83088 42.64337 
C 267.83088 42.997257 268.024775 43.336696 268.369861 43.586931 
C 268.714948 43.837167 269.183051 43.977767 269.671076 43.977767 
z
" style="fill:#0000ff;opacity:0.2;stroke:#0000ff;stroke-linejoin:miter;stroke-width:2;"/>
   </g>
   <g id="patch_22">
    <path clip-path="url(#p64367d5f92)" d="M 269.671076 153.398307 
C 270.159102 153.398307 270.627205 153.257707 270.972291 153.007472 
C 271.317377 152.757236 271.511272 152.417797 271.511272 152.063911 
C 271.511272 151.710024 271.317377 151.370585 270.972291 151.12035 
C 270.627205 150.870114 270.159102 150.729514 269.671076 150.729514 
C 269.183051 150.729514 268.714948 150.870114 268.369861 151.12035 
C 268.024775 151.370585 267.83088 151.710024 267.83088 152.063911 
C 267.83088 152.417797 268.024775 152.757236 268.369861 153.007472 
C 268.714948 153.257707 269.183051 153.398307 269.671076 153.398307 
z
" style="fill:#0000ff;opacity:0.2;stroke:#0000ff;stroke-linejoin:miter;stroke-width:2;"/>
   </g>
   <g id="patch_23">
    <path clip-path="url(#p64367d5f92)" d="M 419.647038 153.398307 
C 420.135063 153.398307 420.603167 153.257707 420.948253 153.007472 
C 421.293339 152.757236 421.487234 152.417797 421.487234 152.063911 
C 421.487234 151.710024 421.293339 151.370585 420.948253 151.12035 
C 420.603167 150.870114 420.135063 150.729514 419.647038 150.729514 
C 419.159012 150.729514 418.690909 150.870114 418.345823 151.12035 
C 418.000737 151.370585 417.806842 151.710024 417.806842 152.063911 
C 417.806842 152.417797 418.000737 152.757236 418.345823 153.007472 
C 418.690909 153.257707 419.159012 153.398307 419.647038 153.398307 
z
" style="fill:#0000ff;opacity:0.2;stroke:#0000ff;stroke-linejoin:miter;stroke-width:2;"/>
   </g>
   <g id="patch_24">
    <path clip-path="url(#p64367d5f92)" d="M 419.647038 186.09103 
C 420.135063 186.09103 420.603167 185.950429 420.948253 185.700194 
C 421.293339 185.449959 421.487234 185.110519 421.487234 184.756633 
C 421.487234 184.402747 421.293339 184.063307 420.948253 183.813072 
C 420.603167 183.562837 420.135063 183.422236 419.647038 183.422236 
C 419.159012 183.422236 418.690909 183.562837 418.345823 183.813072 
C 418.000737 184.063307 417.806842 184.402747 417.806842 184.756633 
C 417.806842 185.110519 418.000737 185.449959 418.345823 185.700194 
C 418.690909 185.950429 419.159012 186.09103 419.647038 186.09103 
z
" style="fill:#0000ff;opacity:0.2;stroke:#0000ff;stroke-linejoin:miter;stroke-width:2;"/>
   </g>
   <g id="patch_25">
    <path clip-path="url(#p64367d5f92)" d="M 269.671076 186.09103 
C 270.159102 186.09103 270.627205 185.950429 270.972291 185.700194 
C 271.317377 185.449959 271.511272 185.110519 271.511272 184.756633 
C 271.511272 184.402747 271.317377 184.063307 270.972291 183.813072 
C 270.627205 183.562837 270.159102 183.422236 269.671076 183.422236 
C 269.183051 183.422236 268.714948 183.562837 268.369861 183.813072 
C 268.024775 184.063307 267.83088 184.402747 267.83088 184.756633 
C 267.83088 185.110519 268.024775 185.449959 268.369861 185.700194 
C 268.714948 185.950429 269.183051 186.09103 269.671076 186.09103 
z
" style="fill:#0000ff;opacity:0.2;stroke:#0000ff;stroke-linejoin:miter;stroke-width:2;"/>
   </g>
   <g id="patch_26">
    <path clip-path="url(#p64367d5f92)" d="M 283.472545 300.849157 
L 202.503928 300.849157 
L 202.503928 182.755038 
L 58.048554 182.755038 
L 58.048554 134.716752 
L 202.503928 134.716752 
L 202.503928 28.632204 
L 283.472545 28.632204 
L 283.472545 134.716752 
L 427.007821 134.716752 
L 427.007821 182.755038 
L 283.472545 182.755038 
L 283.472545 300.849157 
" style="fill:none;stroke:#ff0000;stroke-linejoin:miter;stroke-width:0.5;"/>
   </g>
   <g id="patch_27">
    <path clip-path="url(#p64367d5f92)" d="M 269.671076 305.519546 
L 215.385299 305.519546 
L 215.385299 184.756633 
L 65.409337 184.756633 
L 65.409337 152.063911 
L 215.385299 152.063911 
L 215.385299 42.64337 
L 269.671076 42.64337 
L 269.671076 152.063911 
L 419.647038 152.063911 
L 419.647038 184.756633 
L 269.671076 184.756633 
L 269.671076 305.519546 
" style="fill:none;stroke:#0000ff;stroke-linejoin:miter;stroke-width:0.5;"/>
   </g>
   <g id="[&quot;g_s&quot;:1,&quot;g_t&quot;:1,&quot;coords&quot;:[[355.0, -700.0],[340.0, -707.0]],&quot;certainty&quot;:10]">
    <path clip-path="url(#p64367d5f92)" d="M 283.472545 304.518749 
C 284.814616 304.518749 286.101899 304.132097 287.050886 303.44395 
C 287.999873 302.755803 288.533084 301.822344 288.533084 300.849157 
C 288.533084 299.87597 287.999873 298.942512 287.050886 298.254365 
C 286.101899 297.566217 284.814616 297.179566 283.472545 297.179566 
C 282.130475 297.179566 280.843191 297.566217 279.894204 298.254365 
C 278.945217 298.942512 278.412007 299.87597 278.412007 300.849157 
C 278.412007 301.822344 278.945217 302.755803 279.894204 303.44395 
C 280.843191 304.132097 282.130475 304.518749 283.472545 304.518749 
z
" style="fill:#0000ff;opacity:0.2;stroke:#0000ff;stroke-linejoin:miter;stroke-width:2;"/>
   </g>
   <g id="[&quot;g_s&quot;:1,&quot;g_t&quot;:1,&quot;coords&quot;:[[340.0, -707.0],[355.0, -700.0]],&quot;certainty&quot;:10]">
    <path clip-path="url(#p64367d5f92)" d="M 269.671076 309.189138 
C 271.013147 309.189138 272.30043 308.802486 273.249417 308.114339 
C 274.198405 307.426192 274.731615 306.492733 274.731615 305.519546 
C 274.731615 304.546359 274.198405 303.612901 273.249417 302.924753 
C 272.30043 302.236606 271.013147 301.849955 269.671076 301.849955 
C 268.329006 301.849955 267.041722 302.236606 266.092735 302.924753 
C 265.143748 303.612901 264.610538 304.546359 264.610538 305.519546 
C 264.610538 306.492733 265.143748 307.426192 266.092735 308.114339 
C 267.041722 308.802486 268.329006 309.189138 269.671076 309.189138 
z
" style="fill:#ff0000;opacity:0.2;stroke:#ff0000;stroke-linejoin:miter;stroke-width:2;"/>
   </g>
   <g id="patch_28">
    <path d="M 283.472545 300.849157 
Q 277.520325 302.863377 273.410043 304.254288 
" style="fill:none;opacity:0.5;stroke:#0000ff;stroke-linecap:round;stroke-width:2.75;"/>
    <path d="M 275.311707 305.194326 
L 273.410043 304.254288 
L 274.350081 302.352623 
" style="fill:none;opacity:0.5;stroke:#0000ff;stroke-linecap:round;stroke-width:2.75;"/>
   </g>
   <g id="[&quot;g_s&quot;:2,&quot;g_t&quot;:2,&quot;coords&quot;:[[267.0, -700.0],[281.0, -707.0]],&quot;certainty&quot;:11]">
    <path clip-path="url(#p64367d5f92)" d="M 202.503928 304.852348 
C 203.968005 304.852348 205.372314 304.430547 206.407573 303.679841 
C 207.442831 302.929135 208.024515 301.910816 208.024515 300.849157 
C 208.024515 299.787499 207.442831 298.76918 206.407573 298.018474 
C 205.372314 297.267768 203.968005 296.845967 202.503928 296.845967 
C 201.039851 296.845967 199.635542 297.267768 198.600283 298.018474 
C 197.565024 298.76918 196.98334 299.787499 196.98334 300.849157 
C 196.98334 301.910816 197.565024 302.929135 198.600283 303.679841 
C 199.635542 304.430547 201.039851 304.852348 202.503928 304.852348 
z
" style="fill:#0000ff;opacity:0.2;stroke:#0000ff;stroke-linejoin:miter;stroke-width:2;"/>
   </g>
   <g id="[&quot;g_s&quot;:2,&quot;g_t&quot;:2,&quot;coords&quot;:[[281.0, -707.0],[267.0, -700.0]],&quot;certainty&quot;:11]">
    <path clip-path="url(#p64367d5f92)" d="M 215.385299 309.522737 
C 216.849376 309.522737 218.253685 309.100935 219.288944 308.350229 
C 220.324202 307.599524 220.905886 306.581205 220.905886 305.519546 
C 220.905886 304.457888 220.324202 303.439569 219.288944 302.688863 
C 218.253685 301.938157 216.849376 301.516356 215.385299 301.516356 
C 213.921222 301.516356 212.516913 301.938157 211.481654 302.688863 
C 210.446395 303.439569 209.864711 304.457888 209.864711 305.519546 
C 209.864711 306.581205 210.446395 307.599524 211.481654 308.350229 
C 212.516913 309.100935 213.921222 309.522737 215.385299 309.522737 
z
" style="fill:#ff0000;opacity:0.2;stroke:#ff0000;stroke-linejoin:miter;stroke-width:2;"/>
   </g>
   <g id="patch_29">
    <path d="M 202.503928 300.849157 
Q 208.005871 302.843993 211.513528 304.115761 
" style="fill:none;opacity:0.5;stroke:#0000ff;stroke-linecap:round;stroke-width:3;"/>
    <path d="M 210.614641 302.194303 
L 211.513528 304.115761 
L 209.59207 305.014649 
" style="fill:none;opacity:0.5;stroke:#0000ff;stroke-linecap:round;stroke-width:3;"/>
   </g>
   <g id="[&quot;g_s&quot;:3,&quot;g_t&quot;:3,&quot;coords&quot;:[[267.0, -523.0],[281.0, -526.0]],&quot;certainty&quot;:11]">
    <path clip-path="url(#p64367d5f92)" d="M 202.503928 186.758228 
C 203.968005 186.758228 205.372314 186.336427 206.407573 185.585721 
C 207.442831 184.835015 208.024515 183.816696 208.024515 182.755038 
C 208.024515 181.693379 207.442831 180.675061 206.407573 179.924355 
C 205.372314 179.173649 203.968005 178.751847 202.503928 178.751847 
C 201.039851 178.751847 199.635542 179.173649 198.600283 179.924355 
C 197.565024 180.675061 196.98334 181.693379 196.98334 182.755038 
C 196.98334 183.816696 197.565024 184.835015 198.600283 185.585721 
C 199.635542 186.336427 201.039851 186.758228 202.503928 186.758228 
z
" style="fill:#0000ff;opacity:0.2;stroke:#0000ff;stroke-linejoin:miter;stroke-width:2;"/>
   </g>
   <g id="[&quot;g_s&quot;:3,&quot;g_t&quot;:3,&quot;coords&quot;:[[281.0, -526.0],[267.0, -523.0]],&quot;certainty&quot;:11]">
    <path clip-path="url(#p64367d5f92)" d="M 215.385299 188.759824 
C 216.849376 188.759824 218.253685 188.338022 219.288944 187.587316 
C 220.324202 186.83661 220.905886 185.818292 220.905886 184.756633 
C 220.905886 183.694974 220.324202 182.676656 219.288944 181.92595 
C 218.253685 181.175244 216.849376 180.753443 215.385299 180.753443 
C 213.921222 180.753443 212.516913 181.175244 211.481654 181.92595 
C 210.446395 182.676656 209.864711 183.694974 209.864711 184.756633 
C 209.864711 185.818292 210.446395 186.83661 211.481654 187.587316 
C 212.516913 188.338022 213.921222 188.759824 215.385299 188.759824 
z
" style="fill:#ff0000;opacity:0.2;stroke:#ff0000;stroke-linejoin:miter;stroke-width:2;"/>
   </g>
   <g id="patch_30">
    <path d="M 202.503928 182.755038 
Q 207.955553 183.602148 211.311013 184.123543 
" style="fill:none;opacity:0.5;stroke:#0000ff;stroke-linecap:round;stroke-width:3;"/>
    <path d="M 210.059116 182.411014 
L 211.311013 184.123543 
L 209.598484 185.375439 
" style="fill:none;opacity:0.5;stroke:#0000ff;stroke-linecap:round;stroke-width:3;"/>
   </g>
   <g id="[&quot;g_s&quot;:4,&quot;g_t&quot;:4,&quot;coords&quot;:[[110.0, -523.0],[118.0, -526.0]],&quot;certainty&quot;:11]">
    <path clip-path="url(#p64367d5f92)" d="M 58.048554 186.758228 
C 59.512631 186.758228 60.91694 186.336427 61.952199 185.585721 
C 62.987457 184.835015 63.569141 183.816696 63.569141 182.755038 
C 63.569141 181.693379 62.987457 180.675061 61.952199 179.924355 
C 60.91694 179.173649 59.512631 178.751847 58.048554 178.751847 
C 56.584477 178.751847 55.180168 179.173649 54.144909 179.924355 
C 53.10965 180.675061 52.527966 181.693379 52.527966 182.755038 
C 52.527966 183.816696 53.10965 184.835015 54.144909 185.585721 
C 55.180168 186.336427 56.584477 186.758228 58.048554 186.758228 
z
" style="fill:#0000ff;opacity:0.2;stroke:#0000ff;stroke-linejoin:miter;stroke-width:2;"/>
   </g>
   <g id="[&quot;g_s&quot;:4,&quot;g_t&quot;:4,&quot;coords&quot;:[[118.0, -526.0],[110.0, -523.0]],&quot;certainty&quot;:11]">
    <path clip-path="url(#p64367d5f92)" d="M 65.409337 188.759824 
C 66.873414 188.759824 68.277723 188.338022 69.312982 187.587316 
C 70.348241 186.83661 70.929925 185.818292 70.929925 184.756633 
C 70.929925 183.694974 70.348241 182.676656 69.312982 181.92595 
C 68.277723 181.175244 66.873414 180.753443 65.409337 180.753443 
C 63.94526 180.753443 62.540951 181.175244 61.505692 181.92595 
C 60.470434 182.676656 59.88875 183.694974 59.88875 184.756633 
C 59.88875 185.818292 60.470434 186.83661 61.505692 187.587316 
C 62.540951 188.338022 63.94526 188.759824 65.409337 188.759824 
z
" style="fill:#ff0000;opacity:0.2;stroke:#ff0000;stroke-linejoin:miter;stroke-width:2;"/>
   </g>
   <g id="patch_31">
    <path d="M 58.048554 182.755038 
Q 60.763921 183.493419 61.4323 183.675169 
" style="fill:none;opacity:0.5;stroke:#0000ff;stroke-linecap:round;stroke-width:3;"/>
    <path d="M 60.378458 181.834132 
L 61.4323 183.675169 
L 59.591262 184.729011 
" style="fill:none;opacity:0.5;stroke:#0000ff;stroke-linecap:round;stroke-width:3;"/>
   </g>
   <g id="[&quot;g_s&quot;:5,&quot;g_t&quot;:5,&quot;coords&quot;:[[110.0, -451.0],[118.0, -477.0]],&quot;certainty&quot;:11]">
    <path clip-path="url(#p64367d5f92)" d="M 58.048554 138.719942 
C 59.512631 138.719942 60.91694 138.298141 61.952199 137.547435 
C 62.987457 136.796729 63.569141 135.77841 63.569141 134.716752 
C 63.569141 133.655093 62.987457 132.636775 61.952199 131.886069 
C 60.91694 131.135363 59.512631 130.713561 58.048554 130.713561 
C 56.584477 130.713561 55.180168 131.135363 54.144909 131.886069 
C 53.10965 132.636775 52.527966 133.655093 52.527966 134.716752 
C 52.527966 135.77841 53.10965 136.796729 54.144909 137.547435 
C 55.180168 138.298141 56.584477 138.719942 58.048554 138.719942 
z
" style="fill:#0000ff;opacity:0.2;stroke:#0000ff;stroke-linejoin:miter;stroke-width:2;"/>
   </g>
   <g id="[&quot;g_s&quot;:5,&quot;g_t&quot;:5,&quot;coords&quot;:[[118.0, -477.0],[110.0, -451.0]],&quot;certainty&quot;:11]">
    <path clip-path="url(#p64367d5f92)" d="M 65.409337 156.067101 
C 66.873414 156.067101 68.277723 155.6453 69.312982 154.894594 
C 70.348241 154.143888 70.929925 153.125569 70.929925 152.063911 
C 70.929925 151.002252 70.348241 149.983933 69.312982 149.233227 
C 68.277723 148.482522 66.873414 148.06072 65.409337 148.06072 
C 63.94526 148.06072 62.540951 148.482522 61.505692 149.233227 
C 60.470434 149.983933 59.88875 151.002252 59.88875 152.063911 
C 59.88875 153.125569 60.470434 154.143888 61.505692 154.894594 
C 62.540951 155.6453 63.94526 156.067101 65.409337 156.067101 
z
" style="fill:#ff0000;opacity:0.2;stroke:#ff0000;stroke-linejoin:miter;stroke-width:2;"/>
   </g>
   <g id="patch_32">
    <path d="M 58.048554 134.716752 
Q 61.338084 142.469187 63.799 148.268829 
" style="fill:none;opacity:0.5;stroke:#0000ff;stroke-linecap:round;stroke-width:3;"/>
    <path d="M 64.593915 146.302078 
L 63.799 148.268829 
L 61.832249 147.473914 
" style="fill:none;opacity:0.5;stroke:#0000ff;stroke-linecap:round;stroke-width:3;"/>
   </g>
   <g id="[&quot;g_s&quot;:6,&quot;g_t&quot;:6,&quot;coords&quot;:[[267.0, -451.0],[281.0, -477.0]],&quot;certainty&quot;:11]">
    <path clip-path="url(#p64367d5f92)" d="M 202.503928 138.719942 
C 203.968005 138.719942 205.372314 138.298141 206.407573 137.547435 
C 207.442831 136.796729 208.024515 135.77841 208.024515 134.716752 
C 208.024515 133.655093 207.442831 132.636775 206.407573 131.886069 
C 205.372314 131.135363 203.968005 130.713561 202.503928 130.713561 
C 201.039851 130.713561 199.635542 131.135363 198.600283 131.886069 
C 197.565024 132.636775 196.98334 133.655093 196.98334 134.716752 
C 196.98334 135.77841 197.565024 136.796729 198.600283 137.547435 
C 199.635542 138.298141 201.039851 138.719942 202.503928 138.719942 
z
" style="fill:#0000ff;opacity:0.2;stroke:#0000ff;stroke-linejoin:miter;stroke-width:2;"/>
   </g>
   <g id="[&quot;g_s&quot;:6,&quot;g_t&quot;:6,&quot;coords&quot;:[[281.0, -477.0],[267.0, -451.0]],&quot;certainty&quot;:11]">
    <path clip-path="url(#p64367d5f92)" d="M 215.385299 156.067101 
C 216.849376 156.067101 218.253685 155.6453 219.288944 154.894594 
C 220.324202 154.143888 220.905886 153.125569 220.905886 152.063911 
C 220.905886 151.002252 220.324202 149.983933 219.288944 149.233227 
C 218.253685 148.482522 216.849376 148.06072 215.385299 148.06072 
C 213.921222 148.06072 212.516913 148.482522 211.481654 149.233227 
C 210.446395 149.983933 209.864711 151.002252 209.864711 152.063911 
C 209.864711 153.125569 210.446395 154.143888 211.481654 154.894594 
C 212.516913 155.6453 213.921222 156.067101 215.385299 156.067101 
z
" style="fill:#ff0000;opacity:0.2;stroke:#ff0000;stroke-linejoin:miter;stroke-width:2;"/>
   </g>
   <g id="patch_33">
    <path d="M 202.503928 134.716752 
Q 208.347875 142.586712 212.92715 148.753557 
" style="fill:none;opacity:0.5;stroke:#0000ff;stroke-linecap:round;stroke-width:3;"/>
    <path d="M 213.237177 146.655013 
L 212.92715 148.753557 
L 210.828607 148.44353 
" style="fill:none;opacity:0.5;stroke:#0000ff;stroke-linecap:round;stroke-width:3;"/>
   </g>
   <g id="[&quot;g_s&quot;:7,&quot;g_t&quot;:7,&quot;coords&quot;:[[267.0, -292.0],[281.0, -313.0]],&quot;certainty&quot;:12]">
    <path clip-path="url(#p64367d5f92)" d="M 202.503928 32.968993 
C 204.090011 32.968993 205.611346 32.512042 206.732876 31.698777 
C 207.854407 30.885512 208.484564 29.782334 208.484564 28.632204 
C 208.484564 27.482074 207.854407 26.378895 206.732876 25.56563 
C 205.611346 24.752365 204.090011 24.295414 202.503928 24.295414 
C 200.917844 24.295414 199.396509 24.752365 198.274979 25.56563 
C 197.153449 26.378895 196.523291 27.482074 196.523291 28.632204 
C 196.523291 29.782334 197.153449 30.885512 198.274979 31.698777 
C 199.396509 32.512042 200.917844 32.968993 202.503928 32.968993 
z
" style="fill:#0000ff;opacity:0.2;stroke:#0000ff;stroke-linejoin:miter;stroke-width:2;"/>
   </g>
   <g id="[&quot;g_s&quot;:7,&quot;g_t&quot;:7,&quot;coords&quot;:[[281.0, -313.0],[267.0, -292.0]],&quot;certainty&quot;:12]">
    <path clip-path="url(#p64367d5f92)" d="M 215.385299 46.98016 
C 216.971382 46.98016 218.492717 46.523209 219.614247 45.709944 
C 220.735778 44.896679 221.365935 43.7935 221.365935 42.64337 
C 221.365935 41.49324 220.735778 40.390062 219.614247 39.576797 
C 218.492717 38.763532 216.971382 38.306581 215.385299 38.306581 
C 213.799215 38.306581 212.27788 38.763532 211.15635 39.576797 
C 210.03482 40.390062 209.404662 41.49324 209.404662 42.64337 
C 209.404662 43.7935 210.03482 44.896679 211.15635 45.709944 
C 212.27788 46.523209 213.799215 46.98016 215.385299 46.98016 
z
" style="fill:#ff0000;opacity:0.2;stroke:#ff0000;stroke-linejoin:miter;stroke-width:2;"/>
   </g>
   <g id="patch_34">
    <path d="M 202.503928 28.632204 
Q 208.266895 34.900627 212.474502 39.477274 
" style="fill:none;opacity:0.5;stroke:#0000ff;stroke-linecap:round;stroke-width:3.25;"/>
    <path d="M 212.563543 37.357824 
L 212.474502 39.477274 
L 210.355051 39.388233 
" style="fill:none;opacity:0.5;stroke:#0000ff;stroke-linecap:round;stroke-width:3.25;"/>
   </g>
   <g id="[&quot;g_s&quot;:8,&quot;g_t&quot;:8,&quot;coords&quot;:[[355.0, -292.0],[340.0, -313.0]],&quot;certainty&quot;:11]">
    <path clip-path="url(#p64367d5f92)" d="M 283.472545 32.635394 
C 284.936622 32.635394 286.340931 32.213593 287.37619 31.462887 
C 288.411449 30.712181 288.993133 29.693862 288.993133 28.632204 
C 288.993133 27.570545 288.411449 26.552226 287.37619 25.801521 
C 286.340931 25.050815 284.936622 24.629013 283.472545 24.629013 
C 282.008468 24.629013 280.604159 25.050815 279.5689 25.801521 
C 278.533641 26.552226 277.951958 27.570545 277.951958 28.632204 
C 277.951958 29.693862 278.533641 30.712181 279.5689 31.462887 
C 280.604159 32.213593 282.008468 32.635394 283.472545 32.635394 
z
" style="fill:#0000ff;opacity:0.2;stroke:#0000ff;stroke-linejoin:miter;stroke-width:2;"/>
   </g>
   <g id="[&quot;g_s&quot;:8,&quot;g_t&quot;:8,&quot;coords&quot;:[[340.0, -313.0],[355.0, -292.0]],&quot;certainty&quot;:11]">
    <path clip-path="url(#p64367d5f92)" d="M 269.671076 46.646561 
C 271.135153 46.646561 272.539462 46.224759 273.574721 45.474054 
C 274.60998 44.723348 275.191664 43.705029 275.191664 42.64337 
C 275.191664 41.581712 274.60998 40.563393 273.574721 39.812687 
C 272.539462 39.061981 271.135153 38.64018 269.671076 38.64018 
C 268.206999 38.64018 266.80269 39.061981 265.767431 39.812687 
C 264.732173 40.563393 264.150489 41.581712 264.150489 42.64337 
C 264.150489 43.705029 264.732173 44.723348 265.767431 45.474054 
C 266.80269 46.224759 268.206999 46.646561 269.671076 46.646561 
z
" style="fill:#ff0000;opacity:0.2;stroke:#ff0000;stroke-linejoin:miter;stroke-width:2;"/>
   </g>
   <g id="patch_35">
    <path d="M 283.472545 28.632204 
Q 277.274351 34.924572 272.564806 39.705674 
" style="fill:none;opacity:0.5;stroke:#0000ff;stroke-linecap:round;stroke-width:3;"/>
    <path d="M 274.686066 39.68968 
L 272.564806 39.705674 
L 272.548812 37.584414 
" style="fill:none;opacity:0.5;stroke:#0000ff;stroke-linecap:round;stroke-width:3;"/>
   </g>
   <g id="[&quot;g_s&quot;:9,&quot;g_t&quot;:9,&quot;coords&quot;:[[355.0, -451.0],[340.0, -477.0]],&quot;certainty&quot;:11]">
    <path clip-path="url(#p64367d5f92)" d="M 283.472545 138.719942 
C 284.936622 138.719942 286.340931 138.298141 287.37619 137.547435 
C 288.411449 136.796729 288.993133 135.77841 288.993133 134.716752 
C 288.993133 133.655093 288.411449 132.636775 287.37619 131.886069 
C 286.340931 131.135363 284.936622 130.713561 283.472545 130.713561 
C 282.008468 130.713561 280.604159 131.135363 279.5689 131.886069 
C 278.533641 132.636775 277.951958 133.655093 277.951958 134.716752 
C 277.951958 135.77841 278.533641 136.796729 279.5689 137.547435 
C 280.604159 138.298141 282.008468 138.719942 283.472545 138.719942 
z
" style="fill:#0000ff;opacity:0.2;stroke:#0000ff;stroke-linejoin:miter;stroke-width:2;"/>
   </g>
   <g id="[&quot;g_s&quot;:9,&quot;g_t&quot;:9,&quot;coords&quot;:[[340.0, -477.0],[355.0, -451.0]],&quot;certainty&quot;:11]">
    <path clip-path="url(#p64367d5f92)" d="M 269.671076 156.067101 
C 271.135153 156.067101 272.539462 155.6453 273.574721 154.894594 
C 274.60998 154.143888 275.191664 153.125569 275.191664 152.063911 
C 275.191664 151.002252 274.60998 149.983933 273.574721 149.233227 
C 272.539462 148.482522 271.135153 148.06072 269.671076 148.06072 
C 268.206999 148.06072 266.80269 148.482522 265.767431 149.233227 
C 264.732173 149.983933 264.150489 151.002252 264.150489 152.063911 
C 264.150489 153.125569 264.732173 154.143888 265.767431 154.894594 
C 266.80269 155.6453 268.206999 156.067101 269.671076 156.067101 
z
" style="fill:#ff0000;opacity:0.2;stroke:#ff0000;stroke-linejoin:miter;stroke-width:2;"/>
   </g>
   <g id="patch_36">
    <path d="M 283.472545 134.716752 
Q 277.194326 142.607888 272.23683 148.838997 
" style="fill:none;opacity:0.5;stroke:#0000ff;stroke-linecap:round;stroke-width:3;"/>
    <path d="M 274.344539 148.599074 
L 272.23683 148.838997 
L 271.996907 146.731289 
" style="fill:none;opacity:0.5;stroke:#0000ff;stroke-linecap:round;stroke-width:3;"/>
   </g>
   <g id="[&quot;g_s&quot;:10,&quot;g_t&quot;:10,&quot;coords&quot;:[[511.0, -451.0],[503.0, -477.0]],&quot;certainty&quot;:11]">
    <path clip-path="url(#p64367d5f92)" d="M 427.007821 138.719942 
C 428.471898 138.719942 429.876207 138.298141 430.911466 137.547435 
C 431.946725 136.796729 432.528409 135.77841 432.528409 134.716752 
C 432.528409 133.655093 431.946725 132.636775 430.911466 131.886069 
C 429.876207 131.135363 428.471898 130.713561 427.007821 130.713561 
C 425.543744 130.713561 424.139435 131.135363 423.104176 131.886069 
C 422.068918 132.636775 421.487234 133.655093 421.487234 134.716752 
C 421.487234 135.77841 422.068918 136.796729 423.104176 137.547435 
C 424.139435 138.298141 425.543744 138.719942 427.007821 138.719942 
z
" style="fill:#0000ff;opacity:0.2;stroke:#0000ff;stroke-linejoin:miter;stroke-width:2;"/>
   </g>
   <g id="[&quot;g_s&quot;:10,&quot;g_t&quot;:10,&quot;coords&quot;:[[503.0, -477.0],[511.0, -451.0]],&quot;certainty&quot;:11]">
    <path clip-path="url(#p64367d5f92)" d="M 419.647038 156.067101 
C 421.111115 156.067101 422.515424 155.6453 423.550683 154.894594 
C 424.585941 154.143888 425.167625 153.125569 425.167625 152.063911 
C 425.167625 151.002252 424.585941 149.983933 423.550683 149.233227 
C 422.515424 148.482522 421.111115 148.06072 419.647038 148.06072 
C 418.182961 148.06072 416.778652 148.482522 415.743393 149.233227 
C 414.708134 149.983933 414.12645 151.002252 414.12645 152.063911 
C 414.12645 153.125569 414.708134 154.143888 415.743393 154.894594 
C 416.778652 155.6453 418.182961 156.067101 419.647038 156.067101 
z
" style="fill:#ff0000;opacity:0.2;stroke:#ff0000;stroke-linejoin:miter;stroke-width:2;"/>
   </g>
   <g id="patch_37">
    <path d="M 427.007821 134.716752 
Q 423.718291 142.469187 421.257375 148.268829 
" style="fill:none;opacity:0.5;stroke:#0000ff;stroke-linecap:round;stroke-width:3;"/>
    <path d="M 423.224126 147.473914 
L 421.257375 148.268829 
L 420.46246 146.302078 
" style="fill:none;opacity:0.5;stroke:#0000ff;stroke-linecap:round;stroke-width:3;"/>
   </g>
   <g id="[&quot;g_s&quot;:11,&quot;g_t&quot;:11,&quot;coords&quot;:[[511.0, -523.0],[503.0, -526.0]],&quot;certainty&quot;:11]">
    <path clip-path="url(#p64367d5f92)" d="M 427.007821 186.758228 
C 428.471898 186.758228 429.876207 186.336427 430.911466 185.585721 
C 431.946725 184.835015 432.528409 183.816696 432.528409 182.755038 
C 432.528409 181.693379 431.946725 180.675061 430.911466 179.924355 
C 429.876207 179.173649 428.471898 178.751847 427.007821 178.751847 
C 425.543744 178.751847 424.139435 179.173649 423.104176 179.924355 
C 422.068918 180.675061 421.487234 181.693379 421.487234 182.755038 
C 421.487234 183.816696 422.068918 184.835015 423.104176 185.585721 
C 424.139435 186.336427 425.543744 186.758228 427.007821 186.758228 
z
" style="fill:#0000ff;opacity:0.2;stroke:#0000ff;stroke-linejoin:miter;stroke-width:2;"/>
   </g>
   <g id="[&quot;g_s&quot;:11,&quot;g_t&quot;:11,&quot;coords&quot;:[[503.0, -526.0],[511.0, -523.0]],&quot;certainty&quot;:11]">
    <path clip-path="url(#p64367d5f92)" d="M 419.647038 188.759824 
C 421.111115 188.759824 422.515424 188.338022 423.550683 187.587316 
C 424.585941 186.83661 425.167625 185.818292 425.167625 184.756633 
C 425.167625 183.694974 424.585941 182.676656 423.550683 181.92595 
C 422.515424 181.175244 421.111115 180.753443 419.647038 180.753443 
C 418.182961 180.753443 416.778652 181.175244 415.743393 181.92595 
C 414.708134 182.676656 414.12645 183.694974 414.12645 184.756633 
C 414.12645 185.818292 414.708134 186.83661 415.743393 187.587316 
C 416.778652 188.338022 418.182961 188.759824 419.647038 188.759824 
z
" style="fill:#ff0000;opacity:0.2;stroke:#ff0000;stroke-linejoin:miter;stroke-width:2;"/>
   </g>
   <g id="patch_38">
    <path d="M 427.007821 182.755038 
Q 424.292454 183.493419 423.624075 183.675169 
" style="fill:none;opacity:0.5;stroke:#0000ff;stroke-linecap:round;stroke-width:3;"/>
    <path d="M 425.465113 184.729011 
L 423.624075 183.675169 
L 424.677917 181.834132 
" style="fill:none;opacity:0.5;stroke:#0000ff;stroke-linecap:round;stroke-width:3;"/>
   </g>
   <g id="[&quot;g_s&quot;:12,&quot;g_t&quot;:12,&quot;coords&quot;:[[355.0, -523.0],[340.0, -526.0]],&quot;certainty&quot;:11]">
    <path clip-path="url(#p64367d5f92)" d="M 283.472545 186.758228 
C 284.936622 186.758228 286.340931 186.336427 287.37619 185.585721 
C 288.411449 184.835015 288.993133 183.816696 288.993133 182.755038 
C 288.993133 181.693379 288.411449 180.675061 287.37619 179.924355 
C 286.340931 179.173649 284.936622 178.751847 283.472545 178.751847 
C 282.008468 178.751847 280.604159 179.173649 279.5689 179.924355 
C 278.533641 180.675061 277.951958 181.693379 277.951958 182.755038 
C 277.951958 183.816696 278.533641 184.835015 279.5689 185.585721 
C 280.604159 186.336427 282.008468 186.758228 283.472545 186.758228 
z
" style="fill:#0000ff;opacity:0.2;stroke:#0000ff;stroke-linejoin:miter;stroke-width:2;"/>
   </g>
   <g id="[&quot;g_s&quot;:12,&quot;g_t&quot;:12,&quot;coords&quot;:[[340.0, -526.0],[355.0, -523.0]],&quot;certainty&quot;:11]">
    <path clip-path="url(#p64367d5f92)" d="M 269.671076 188.759824 
C 271.135153 188.759824 272.539462 188.338022 273.574721 187.587316 
C 274.60998 186.83661 275.191664 185.818292 275.191664 184.756633 
C 275.191664 183.694974 274.60998 182.676656 273.574721 181.92595 
C 272.539462 181.175244 271.135153 180.753443 269.671076 180.753443 
C 268.206999 180.753443 266.80269 181.175244 265.767431 181.92595 
C 264.732173 182.676656 264.150489 183.694974 264.150489 184.756633 
C 264.150489 185.818292 264.732173 186.83661 265.767431 187.587316 
C 266.80269 188.338022 268.206999 188.759824 269.671076 188.759824 
z
" style="fill:#ff0000;opacity:0.2;stroke:#ff0000;stroke-linejoin:miter;stroke-width:2;"/>
   </g>
   <g id="patch_39">
    <path d="M 283.472545 182.755038 
Q 277.560759 183.612411 273.74833 184.165318 
" style="fill:none;opacity:0.5;stroke:#0000ff;stroke-linecap:round;stroke-width:3;"/>
    <path d="M 275.448089 185.434499 
L 273.74833 184.165318 
L 275.01751 182.465559 
" style="fill:none;opacity:0.5;stroke:#0000ff;stroke-linecap:round;stroke-width:3;"/>
   </g>
   <g id="[&quot;g_s&quot;:1,&quot;g_t&quot;:1,&quot;coords&quot;:[[340.0, -707.0],[355.0, -700.0]],&quot;certainty&quot;:10]">
    <path clip-path="url(#p64367d5f92)" d="M 269.671076 309.189138 
C 271.013147 309.189138 272.30043 308.802486 273.249417 308.114339 
C 274.198405 307.426192 274.731615 306.492733 274.731615 305.519546 
C 274.731615 304.546359 274.198405 303.612901 273.249417 302.924753 
C 272.30043 302.236606 271.013147 301.849955 269.671076 301.849955 
C 268.329006 301.849955 267.041722 302.236606 266.092735 302.924753 
C 265.143748 303.612901 264.610538 304.546359 264.610538 305.519546 
C 264.610538 306.492733 265.143748 307.426192 266.092735 308.114339 
C 267.041722 308.802486 268.329006 309.189138 269.671076 309.189138 
z
" style="fill:#0000ff;opacity:0.2;stroke:#0000ff;stroke-linejoin:miter;stroke-width:2;"/>
   </g>
   <g id="[&quot;g_s&quot;:1,&quot;g_t&quot;:1,&quot;coords&quot;:[[355.0, -700.0],[340.0, -707.0]],&quot;certainty&quot;:10]">
    <path clip-path="url(#p64367d5f92)" d="M 283.472545 304.518749 
C 284.814616 304.518749 286.101899 304.132097 287.050886 303.44395 
C 287.999873 302.755803 288.533084 301.822344 288.533084 300.849157 
C 288.533084 299.87597 287.999873 298.942512 287.050886 298.254365 
C 286.101899 297.566217 284.814616 297.179566 283.472545 297.179566 
C 282.130475 297.179566 280.843191 297.566217 279.894204 298.254365 
C 278.945217 298.942512 278.412007 299.87597 278.412007 300.849157 
C 278.412007 301.822344 278.945217 302.755803 279.894204 303.44395 
C 280.843191 304.132097 282.130475 304.518749 283.472545 304.518749 
z
" style="fill:#ff0000;opacity:0.2;stroke:#ff0000;stroke-linejoin:miter;stroke-width:2;"/>
   </g>
   <g id="patch_40">
    <path d="M 269.671076 305.519546 
Q 275.623297 303.505327 279.733579 302.114416 
" style="fill:none;opacity:0.5;stroke:#ff0000;stroke-linecap:round;stroke-width:2.75;"/>
    <path d="M 277.831914 301.174378 
L 279.733579 302.114416 
L 278.793541 304.016081 
" style="fill:none;opacity:0.5;stroke:#ff0000;stroke-linecap:round;stroke-width:2.75;"/>
   </g>
   <g id="[&quot;g_s&quot;:2,&quot;g_t&quot;:2,&quot;coords&quot;:[[281.0, -707.0],[267.0, -700.0]],&quot;certainty&quot;:11]">
    <path clip-path="url(#p64367d5f92)" d="M 215.385299 309.522737 
C 216.849376 309.522737 218.253685 309.100935 219.288944 308.350229 
C 220.324202 307.599524 220.905886 306.581205 220.905886 305.519546 
C 220.905886 304.457888 220.324202 303.439569 219.288944 302.688863 
C 218.253685 301.938157 216.849376 301.516356 215.385299 301.516356 
C 213.921222 301.516356 212.516913 301.938157 211.481654 302.688863 
C 210.446395 303.439569 209.864711 304.457888 209.864711 305.519546 
C 209.864711 306.581205 210.446395 307.599524 211.481654 308.350229 
C 212.516913 309.100935 213.921222 309.522737 215.385299 309.522737 
z
" style="fill:#0000ff;opacity:0.2;stroke:#0000ff;stroke-linejoin:miter;stroke-width:2;"/>
   </g>
   <g id="[&quot;g_s&quot;:2,&quot;g_t&quot;:2,&quot;coords&quot;:[[267.0, -700.0],[281.0, -707.0]],&quot;certainty&quot;:11]">
    <path clip-path="url(#p64367d5f92)" d="M 202.503928 304.852348 
C 203.968005 304.852348 205.372314 304.430547 206.407573 303.679841 
C 207.442831 302.929135 208.024515 301.910816 208.024515 300.849157 
C 208.024515 299.787499 207.442831 298.76918 206.407573 298.018474 
C 205.372314 297.267768 203.968005 296.845967 202.503928 296.845967 
C 201.039851 296.845967 199.635542 297.267768 198.600283 298.018474 
C 197.565024 298.76918 196.98334 299.787499 196.98334 300.849157 
C 196.98334 301.910816 197.565024 302.929135 198.600283 303.679841 
C 199.635542 304.430547 201.039851 304.852348 202.503928 304.852348 
z
" style="fill:#ff0000;opacity:0.2;stroke:#ff0000;stroke-linejoin:miter;stroke-width:2;"/>
   </g>
   <g id="patch_41">
    <path d="M 215.385299 305.519546 
Q 209.883356 303.524711 206.375698 302.252942 
" style="fill:none;opacity:0.5;stroke:#ff0000;stroke-linecap:round;stroke-width:3;"/>
    <path d="M 207.274586 304.1744 
L 206.375698 302.252942 
L 208.297156 301.354055 
" style="fill:none;opacity:0.5;stroke:#ff0000;stroke-linecap:round;stroke-width:3;"/>
   </g>
   <g id="[&quot;g_s&quot;:3,&quot;g_t&quot;:3,&quot;coords&quot;:[[281.0, -526.0],[267.0, -523.0]],&quot;certainty&quot;:11]">
    <path clip-path="url(#p64367d5f92)" d="M 215.385299 188.759824 
C 216.849376 188.759824 218.253685 188.338022 219.288944 187.587316 
C 220.324202 186.83661 220.905886 185.818292 220.905886 184.756633 
C 220.905886 183.694974 220.324202 182.676656 219.288944 181.92595 
C 218.253685 181.175244 216.849376 180.753443 215.385299 180.753443 
C 213.921222 180.753443 212.516913 181.175244 211.481654 181.92595 
C 210.446395 182.676656 209.864711 183.694974 209.864711 184.756633 
C 209.864711 185.818292 210.446395 186.83661 211.481654 187.587316 
C 212.516913 188.338022 213.921222 188.759824 215.385299 188.759824 
z
" style="fill:#0000ff;opacity:0.2;stroke:#0000ff;stroke-linejoin:miter;stroke-width:2;"/>
   </g>
   <g id="[&quot;g_s&quot;:3,&quot;g_t&quot;:3,&quot;coords&quot;:[[267.0, -523.0],[281.0, -526.0]],&quot;certainty&quot;:11]">
    <path clip-path="url(#p64367d5f92)" d="M 202.503928 186.758228 
C 203.968005 186.758228 205.372314 186.336427 206.407573 185.585721 
C 207.442831 184.835015 208.024515 183.816696 208.024515 182.755038 
C 208.024515 181.693379 207.442831 180.675061 206.407573 179.924355 
C 205.372314 179.173649 203.968005 178.751847 202.503928 178.751847 
C 201.039851 178.751847 199.635542 179.173649 198.600283 179.924355 
C 197.565024 180.675061 196.98334 181.693379 196.98334 182.755038 
C 196.98334 183.816696 197.565024 184.835015 198.600283 185.585721 
C 199.635542 186.336427 201.039851 186.758228 202.503928 186.758228 
z
" style="fill:#ff0000;opacity:0.2;stroke:#ff0000;stroke-linejoin:miter;stroke-width:2;"/>
   </g>
   <g id="patch_42">
    <path d="M 215.385299 184.756633 
Q 209.933674 183.909522 206.578214 183.388128 
" style="fill:none;opacity:0.5;stroke:#ff0000;stroke-linecap:round;stroke-width:3;"/>
    <path d="M 207.83011 185.100657 
L 206.578214 183.388128 
L 208.290743 182.136232 
" style="fill:none;opacity:0.5;stroke:#ff0000;stroke-linecap:round;stroke-width:3;"/>
   </g>
   <g id="[&quot;g_s&quot;:4,&quot;g_t&quot;:4,&quot;coords&quot;:[[118.0, -526.0],[110.0, -523.0]],&quot;certainty&quot;:11]">
    <path clip-path="url(#p64367d5f92)" d="M 65.409337 188.759824 
C 66.873414 188.759824 68.277723 188.338022 69.312982 187.587316 
C 70.348241 186.83661 70.929925 185.818292 70.929925 184.756633 
C 70.929925 183.694974 70.348241 182.676656 69.312982 181.92595 
C 68.277723 181.175244 66.873414 180.753443 65.409337 180.753443 
C 63.94526 180.753443 62.540951 181.175244 61.505692 181.92595 
C 60.470434 182.676656 59.88875 183.694974 59.88875 184.756633 
C 59.88875 185.818292 60.470434 186.83661 61.505692 187.587316 
C 62.540951 188.338022 63.94526 188.759824 65.409337 188.759824 
z
" style="fill:#0000ff;opacity:0.2;stroke:#0000ff;stroke-linejoin:miter;stroke-width:2;"/>
   </g>
   <g id="[&quot;g_s&quot;:4,&quot;g_t&quot;:4,&quot;coords&quot;:[[110.0, -523.0],[118.0, -526.0]],&quot;certainty&quot;:11]">
    <path clip-path="url(#p64367d5f92)" d="M 58.048554 186.758228 
C 59.512631 186.758228 60.91694 186.336427 61.952199 185.585721 
C 62.987457 184.835015 63.569141 183.816696 63.569141 182.755038 
C 63.569141 181.693379 62.987457 180.675061 61.952199 179.924355 
C 60.91694 179.173649 59.512631 178.751847 58.048554 178.751847 
C 56.584477 178.751847 55.180168 179.173649 54.144909 179.924355 
C 53.10965 180.675061 52.527966 181.693379 52.527966 182.755038 
C 52.527966 183.816696 53.10965 184.835015 54.144909 185.585721 
C 55.180168 186.336427 56.584477 186.758228 58.048554 186.758228 
z
" style="fill:#ff0000;opacity:0.2;stroke:#ff0000;stroke-linejoin:miter;stroke-width:2;"/>
   </g>
   <g id="patch_43">
    <path d="M 65.409337 184.756633 
Q 62.69397 184.018252 62.025591 183.836501 
" style="fill:none;opacity:0.5;stroke:#ff0000;stroke-linecap:round;stroke-width:3;"/>
    <path d="M 63.079433 185.677539 
L 62.025591 183.836501 
L 63.866629 182.78266 
" style="fill:none;opacity:0.5;stroke:#ff0000;stroke-linecap:round;stroke-width:3;"/>
   </g>
   <g id="[&quot;g_s&quot;:5,&quot;g_t&quot;:5,&quot;coords&quot;:[[118.0, -477.0],[110.0, -451.0]],&quot;certainty&quot;:11]">
    <path clip-path="url(#p64367d5f92)" d="M 65.409337 156.067101 
C 66.873414 156.067101 68.277723 155.6453 69.312982 154.894594 
C 70.348241 154.143888 70.929925 153.125569 70.929925 152.063911 
C 70.929925 151.002252 70.348241 149.983933 69.312982 149.233227 
C 68.277723 148.482522 66.873414 148.06072 65.409337 148.06072 
C 63.94526 148.06072 62.540951 148.482522 61.505692 149.233227 
C 60.470434 149.983933 59.88875 151.002252 59.88875 152.063911 
C 59.88875 153.125569 60.470434 154.143888 61.505692 154.894594 
C 62.540951 155.6453 63.94526 156.067101 65.409337 156.067101 
z
" style="fill:#0000ff;opacity:0.2;stroke:#0000ff;stroke-linejoin:miter;stroke-width:2;"/>
   </g>
   <g id="[&quot;g_s&quot;:5,&quot;g_t&quot;:5,&quot;coords&quot;:[[110.0, -451.0],[118.0, -477.0]],&quot;certainty&quot;:11]">
    <path clip-path="url(#p64367d5f92)" d="M 58.048554 138.719942 
C 59.512631 138.719942 60.91694 138.298141 61.952199 137.547435 
C 62.987457 136.796729 63.569141 135.77841 63.569141 134.716752 
C 63.569141 133.655093 62.987457 132.636775 61.952199 131.886069 
C 60.91694 131.135363 59.512631 130.713561 58.048554 130.713561 
C 56.584477 130.713561 55.180168 131.135363 54.144909 131.886069 
C 53.10965 132.636775 52.527966 133.655093 52.527966 134.716752 
C 52.527966 135.77841 53.10965 136.796729 54.144909 137.547435 
C 55.180168 138.298141 56.584477 138.719942 58.048554 138.719942 
z
" style="fill:#ff0000;opacity:0.2;stroke:#ff0000;stroke-linejoin:miter;stroke-width:2;"/>
   </g>
   <g id="patch_44">
    <path d="M 65.409337 152.063911 
Q 62.119807 144.311476 59.658891 138.511833 
" style="fill:none;opacity:0.5;stroke:#ff0000;stroke-linecap:round;stroke-width:3;"/>
    <path d="M 58.863976 140.478584 
L 59.658891 138.511833 
L 61.625642 139.306748 
" style="fill:none;opacity:0.5;stroke:#ff0000;stroke-linecap:round;stroke-width:3;"/>
   </g>
   <g id="[&quot;g_s&quot;:6,&quot;g_t&quot;:6,&quot;coords&quot;:[[281.0, -477.0],[267.0, -451.0]],&quot;certainty&quot;:11]">
    <path clip-path="url(#p64367d5f92)" d="M 215.385299 156.067101 
C 216.849376 156.067101 218.253685 155.6453 219.288944 154.894594 
C 220.324202 154.143888 220.905886 153.125569 220.905886 152.063911 
C 220.905886 151.002252 220.324202 149.983933 219.288944 149.233227 
C 218.253685 148.482522 216.849376 148.06072 215.385299 148.06072 
C 213.921222 148.06072 212.516913 148.482522 211.481654 149.233227 
C 210.446395 149.983933 209.864711 151.002252 209.864711 152.063911 
C 209.864711 153.125569 210.446395 154.143888 211.481654 154.894594 
C 212.516913 155.6453 213.921222 156.067101 215.385299 156.067101 
z
" style="fill:#0000ff;opacity:0.2;stroke:#0000ff;stroke-linejoin:miter;stroke-width:2;"/>
   </g>
   <g id="[&quot;g_s&quot;:6,&quot;g_t&quot;:6,&quot;coords&quot;:[[267.0, -451.0],[281.0, -477.0]],&quot;certainty&quot;:11]">
    <path clip-path="url(#p64367d5f92)" d="M 202.503928 138.719942 
C 203.968005 138.719942 205.372314 138.298141 206.407573 137.547435 
C 207.442831 136.796729 208.024515 135.77841 208.024515 134.716752 
C 208.024515 133.655093 207.442831 132.636775 206.407573 131.886069 
C 205.372314 131.135363 203.968005 130.713561 202.503928 130.713561 
C 201.039851 130.713561 199.635542 131.135363 198.600283 131.886069 
C 197.565024 132.636775 196.98334 133.655093 196.98334 134.716752 
C 196.98334 135.77841 197.565024 136.796729 198.600283 137.547435 
C 199.635542 138.298141 201.039851 138.719942 202.503928 138.719942 
z
" style="fill:#ff0000;opacity:0.2;stroke:#ff0000;stroke-linejoin:miter;stroke-width:2;"/>
   </g>
   <g id="patch_45">
    <path d="M 215.385299 152.063911 
Q 209.541352 144.19395 204.962077 138.027106 
" style="fill:none;opacity:0.5;stroke:#ff0000;stroke-linecap:round;stroke-width:3;"/>
    <path d="M 204.65205 140.125649 
L 204.962077 138.027106 
L 207.06062 138.337132 
" style="fill:none;opacity:0.5;stroke:#ff0000;stroke-linecap:round;stroke-width:3;"/>
   </g>
   <g id="[&quot;g_s&quot;:7,&quot;g_t&quot;:7,&quot;coords&quot;:[[281.0, -313.0],[267.0, -292.0]],&quot;certainty&quot;:11]">
    <path clip-path="url(#p64367d5f92)" d="M 215.385299 46.646561 
C 216.849376 46.646561 218.253685 46.224759 219.288944 45.474054 
C 220.324202 44.723348 220.905886 43.705029 220.905886 42.64337 
C 220.905886 41.581712 220.324202 40.563393 219.288944 39.812687 
C 218.253685 39.061981 216.849376 38.64018 215.385299 38.64018 
C 213.921222 38.64018 212.516913 39.061981 211.481654 39.812687 
C 210.446395 40.563393 209.864711 41.581712 209.864711 42.64337 
C 209.864711 43.705029 210.446395 44.723348 211.481654 45.474054 
C 212.516913 46.224759 213.921222 46.646561 215.385299 46.646561 
z
" style="fill:#0000ff;opacity:0.2;stroke:#0000ff;stroke-linejoin:miter;stroke-width:2;"/>
   </g>
   <g id="[&quot;g_s&quot;:7,&quot;g_t&quot;:7,&quot;coords&quot;:[[267.0, -292.0],[281.0, -313.0]],&quot;certainty&quot;:11]">
    <path clip-path="url(#p64367d5f92)" d="M 202.503928 32.635394 
C 203.968005 32.635394 205.372314 32.213593 206.407573 31.462887 
C 207.442831 30.712181 208.024515 29.693862 208.024515 28.632204 
C 208.024515 27.570545 207.442831 26.552226 206.407573 25.801521 
C 205.372314 25.050815 203.968005 24.629013 202.503928 24.629013 
C 201.039851 24.629013 199.635542 25.050815 198.600283 25.801521 
C 197.565024 26.552226 196.98334 27.570545 196.98334 28.632204 
C 196.98334 29.693862 197.565024 30.712181 198.600283 31.462887 
C 199.635542 32.213593 201.039851 32.635394 202.503928 32.635394 
z
" style="fill:#ff0000;opacity:0.2;stroke:#ff0000;stroke-linejoin:miter;stroke-width:2;"/>
   </g>
   <g id="patch_46">
    <path d="M 215.385299 42.64337 
Q 209.622332 36.374947 205.295081 31.668163 
" style="fill:none;opacity:0.5;stroke:#ff0000;stroke-linecap:round;stroke-width:3;"/>
    <path d="M 205.20604 33.787614 
L 205.295081 31.668163 
L 207.414532 31.757204 
" style="fill:none;opacity:0.5;stroke:#ff0000;stroke-linecap:round;stroke-width:3;"/>
   </g>
   <g id="[&quot;g_s&quot;:8,&quot;g_t&quot;:8,&quot;coords&quot;:[[340.0, -313.0],[355.0, -292.0]],&quot;certainty&quot;:12]">
    <path clip-path="url(#p64367d5f92)" d="M 269.671076 46.98016 
C 271.25716 46.98016 272.778495 46.523209 273.900025 45.709944 
C 275.021555 44.896679 275.651713 43.7935 275.651713 42.64337 
C 275.651713 41.49324 275.021555 40.390062 273.900025 39.576797 
C 272.778495 38.763532 271.25716 38.306581 269.671076 38.306581 
C 268.084993 38.306581 266.563658 38.763532 265.442128 39.576797 
C 264.320597 40.390062 263.69044 41.49324 263.69044 42.64337 
C 263.69044 43.7935 264.320597 44.896679 265.442128 45.709944 
C 266.563658 46.523209 268.084993 46.98016 269.671076 46.98016 
z
" style="fill:#0000ff;opacity:0.2;stroke:#0000ff;stroke-linejoin:miter;stroke-width:2;"/>
   </g>
   <g id="[&quot;g_s&quot;:8,&quot;g_t&quot;:8,&quot;coords&quot;:[[355.0, -292.0],[340.0, -313.0]],&quot;certainty&quot;:12]">
    <path clip-path="url(#p64367d5f92)" d="M 283.472545 32.968993 
C 285.058628 32.968993 286.579963 32.512042 287.701494 31.698777 
C 288.823024 30.885512 289.453182 29.782334 289.453182 28.632204 
C 289.453182 27.482074 288.823024 26.378895 287.701494 25.56563 
C 286.579963 24.752365 285.058628 24.295414 283.472545 24.295414 
C 281.886462 24.295414 280.365127 24.752365 279.243596 25.56563 
C 278.122066 26.378895 277.491909 27.482074 277.491909 28.632204 
C 277.491909 29.782334 278.122066 30.885512 279.243596 31.698777 
C 280.365127 32.512042 281.886462 32.968993 283.472545 32.968993 
z
" style="fill:#ff0000;opacity:0.2;stroke:#ff0000;stroke-linejoin:miter;stroke-width:2;"/>
   </g>
   <g id="patch_47">
    <path d="M 269.671076 42.64337 
Q 275.86927 36.351002 280.454762 31.695839 
" style="fill:none;opacity:0.5;stroke:#ff0000;stroke-linecap:round;stroke-width:3.25;"/>
    <path d="M 278.333502 31.711832 
L 280.454762 31.695839 
L 280.470755 33.817099 
" style="fill:none;opacity:0.5;stroke:#ff0000;stroke-linecap:round;stroke-width:3.25;"/>
   </g>
   <g id="[&quot;g_s&quot;:9,&quot;g_t&quot;:9,&quot;coords&quot;:[[340.0, -477.0],[355.0, -451.0]],&quot;certainty&quot;:11]">
    <path clip-path="url(#p64367d5f92)" d="M 269.671076 156.067101 
C 271.135153 156.067101 272.539462 155.6453 273.574721 154.894594 
C 274.60998 154.143888 275.191664 153.125569 275.191664 152.063911 
C 275.191664 151.002252 274.60998 149.983933 273.574721 149.233227 
C 272.539462 148.482522 271.135153 148.06072 269.671076 148.06072 
C 268.206999 148.06072 266.80269 148.482522 265.767431 149.233227 
C 264.732173 149.983933 264.150489 151.002252 264.150489 152.063911 
C 264.150489 153.125569 264.732173 154.143888 265.767431 154.894594 
C 266.80269 155.6453 268.206999 156.067101 269.671076 156.067101 
z
" style="fill:#0000ff;opacity:0.2;stroke:#0000ff;stroke-linejoin:miter;stroke-width:2;"/>
   </g>
   <g id="[&quot;g_s&quot;:9,&quot;g_t&quot;:9,&quot;coords&quot;:[[355.0, -451.0],[340.0, -477.0]],&quot;certainty&quot;:11]">
    <path clip-path="url(#p64367d5f92)" d="M 283.472545 138.719942 
C 284.936622 138.719942 286.340931 138.298141 287.37619 137.547435 
C 288.411449 136.796729 288.993133 135.77841 288.993133 134.716752 
C 288.993133 133.655093 288.411449 132.636775 287.37619 131.886069 
C 286.340931 131.135363 284.936622 130.713561 283.472545 130.713561 
C 282.008468 130.713561 280.604159 131.135363 279.5689 131.886069 
C 278.533641 132.636775 277.951958 133.655093 277.951958 134.716752 
C 277.951958 135.77841 278.533641 136.796729 279.5689 137.547435 
C 280.604159 138.298141 282.008468 138.719942 283.472545 138.719942 
z
" style="fill:#ff0000;opacity:0.2;stroke:#ff0000;stroke-linejoin:miter;stroke-width:2;"/>
   </g>
   <g id="patch_48">
    <path d="M 269.671076 152.063911 
Q 275.949296 144.172774 280.906791 137.941665 
" style="fill:none;opacity:0.5;stroke:#ff0000;stroke-linecap:round;stroke-width:3;"/>
    <path d="M 278.799082 138.181588 
L 280.906791 137.941665 
L 281.146715 140.049374 
" style="fill:none;opacity:0.5;stroke:#ff0000;stroke-linecap:round;stroke-width:3;"/>
   </g>
   <g id="[&quot;g_s&quot;:10,&quot;g_t&quot;:10,&quot;coords&quot;:[[503.0, -477.0],[511.0, -451.0]],&quot;certainty&quot;:11]">
    <path clip-path="url(#p64367d5f92)" d="M 419.647038 156.067101 
C 421.111115 156.067101 422.515424 155.6453 423.550683 154.894594 
C 424.585941 154.143888 425.167625 153.125569 425.167625 152.063911 
C 425.167625 151.002252 424.585941 149.983933 423.550683 149.233227 
C 422.515424 148.482522 421.111115 148.06072 419.647038 148.06072 
C 418.182961 148.06072 416.778652 148.482522 415.743393 149.233227 
C 414.708134 149.983933 414.12645 151.002252 414.12645 152.063911 
C 414.12645 153.125569 414.708134 154.143888 415.743393 154.894594 
C 416.778652 155.6453 418.182961 156.067101 419.647038 156.067101 
z
" style="fill:#0000ff;opacity:0.2;stroke:#0000ff;stroke-linejoin:miter;stroke-width:2;"/>
   </g>
   <g id="[&quot;g_s&quot;:10,&quot;g_t&quot;:10,&quot;coords&quot;:[[511.0, -451.0],[503.0, -477.0]],&quot;certainty&quot;:11]">
    <path clip-path="url(#p64367d5f92)" d="M 427.007821 138.719942 
C 428.471898 138.719942 429.876207 138.298141 430.911466 137.547435 
C 431.946725 136.796729 432.528409 135.77841 432.528409 134.716752 
C 432.528409 133.655093 431.946725 132.636775 430.911466 131.886069 
C 429.876207 131.135363 428.471898 130.713561 427.007821 130.713561 
C 425.543744 130.713561 424.139435 131.135363 423.104176 131.886069 
C 422.068918 132.636775 421.487234 133.655093 421.487234 134.716752 
C 421.487234 135.77841 422.068918 136.796729 423.104176 137.547435 
C 424.139435 138.298141 425.543744 138.719942 427.007821 138.719942 
z
" style="fill:#ff0000;opacity:0.2;stroke:#ff0000;stroke-linejoin:miter;stroke-width:2;"/>
   </g>
   <g id="patch_49">
    <path d="M 419.647038 152.063911 
Q 422.936568 144.311476 425.397484 138.511833 
" style="fill:none;opacity:0.5;stroke:#ff0000;stroke-linecap:round;stroke-width:3;"/>
    <path d="M 423.430733 139.306748 
L 425.397484 138.511833 
L 426.192399 140.478584 
" style="fill:none;opacity:0.5;stroke:#ff0000;stroke-linecap:round;stroke-width:3;"/>
   </g>
   <g id="[&quot;g_s&quot;:11,&quot;g_t&quot;:11,&quot;coords&quot;:[[503.0, -526.0],[511.0, -523.0]],&quot;certainty&quot;:11]">
    <path clip-path="url(#p64367d5f92)" d="M 419.647038 188.759824 
C 421.111115 188.759824 422.515424 188.338022 423.550683 187.587316 
C 424.585941 186.83661 425.167625 185.818292 425.167625 184.756633 
C 425.167625 183.694974 424.585941 182.676656 423.550683 181.92595 
C 422.515424 181.175244 421.111115 180.753443 419.647038 180.753443 
C 418.182961 180.753443 416.778652 181.175244 415.743393 181.92595 
C 414.708134 182.676656 414.12645 183.694974 414.12645 184.756633 
C 414.12645 185.818292 414.708134 186.83661 415.743393 187.587316 
C 416.778652 188.338022 418.182961 188.759824 419.647038 188.759824 
z
" style="fill:#0000ff;opacity:0.2;stroke:#0000ff;stroke-linejoin:miter;stroke-width:2;"/>
   </g>
   <g id="[&quot;g_s&quot;:11,&quot;g_t&quot;:11,&quot;coords&quot;:[[511.0, -523.0],[503.0, -526.0]],&quot;certainty&quot;:11]">
    <path clip-path="url(#p64367d5f92)" d="M 427.007821 186.758228 
C 428.471898 186.758228 429.876207 186.336427 430.911466 185.585721 
C 431.946725 184.835015 432.528409 183.816696 432.528409 182.755038 
C 432.528409 181.693379 431.946725 180.675061 430.911466 179.924355 
C 429.876207 179.173649 428.471898 178.751847 427.007821 178.751847 
C 425.543744 178.751847 424.139435 179.173649 423.104176 179.924355 
C 422.068918 180.675061 421.487234 181.693379 421.487234 182.755038 
C 421.487234 183.816696 422.068918 184.835015 423.104176 185.585721 
C 424.139435 186.336427 425.543744 186.758228 427.007821 186.758228 
z
" style="fill:#ff0000;opacity:0.2;stroke:#ff0000;stroke-linejoin:miter;stroke-width:2;"/>
   </g>
   <g id="patch_50">
    <path d="M 419.647038 184.756633 
Q 422.362405 184.018252 423.030784 183.836501 
" style="fill:none;opacity:0.5;stroke:#ff0000;stroke-linecap:round;stroke-width:3;"/>
    <path d="M 421.189746 182.78266 
L 423.030784 183.836501 
L 421.976942 185.677539 
" style="fill:none;opacity:0.5;stroke:#ff0000;stroke-linecap:round;stroke-width:3;"/>
   </g>
   <g id="[&quot;g_s&quot;:12,&quot;g_t&quot;:12,&quot;coords&quot;:[[340.0, -526.0],[355.0, -523.0]],&quot;certainty&quot;:11]">
    <path clip-path="url(#p64367d5f92)" d="M 269.671076 188.759824 
C 271.135153 188.759824 272.539462 188.338022 273.574721 187.587316 
C 274.60998 186.83661 275.191664 185.818292 275.191664 184.756633 
C 275.191664 183.694974 274.60998 182.676656 273.574721 181.92595 
C 272.539462 181.175244 271.135153 180.753443 269.671076 180.753443 
C 268.206999 180.753443 266.80269 181.175244 265.767431 181.92595 
C 264.732173 182.676656 264.150489 183.694974 264.150489 184.756633 
C 264.150489 185.818292 264.732173 186.83661 265.767431 187.587316 
C 266.80269 188.338022 268.206999 188.759824 269.671076 188.759824 
z
" style="fill:#0000ff;opacity:0.2;stroke:#0000ff;stroke-linejoin:miter;stroke-width:2;"/>
   </g>
   <g id="[&quot;g_s&quot;:12,&quot;g_t&quot;:12,&quot;coords&quot;:[[355.0, -523.0],[340.0, -526.0]],&quot;certainty&quot;:11]">
    <path clip-path="url(#p64367d5f92)" d="M 283.472545 186.758228 
C 284.936622 186.758228 286.340931 186.336427 287.37619 185.585721 
C 288.411449 184.835015 288.993133 183.816696 288.993133 182.755038 
C 288.993133 181.693379 288.411449 180.675061 287.37619 179.924355 
C 286.340931 179.173649 284.936622 178.751847 283.472545 178.751847 
C 282.008468 178.751847 280.604159 179.173649 279.5689 179.924355 
C 278.533641 180.675061 277.951958 181.693379 277.951958 182.755038 
C 277.951958 183.816696 278.533641 184.835015 279.5689 185.585721 
C 280.604159 186.336427 282.008468 186.758228 283.472545 186.758228 
z
" style="fill:#ff0000;opacity:0.2;stroke:#ff0000;stroke-linejoin:miter;stroke-width:2;"/>
   </g>
   <g id="patch_51">
    <path d="M 269.671076 184.756633 
Q 275.582863 183.89926 279.395292 183.346352 
" style="fill:none;opacity:0.5;stroke:#ff0000;stroke-linecap:round;stroke-width:3;"/>
    <path d="M 277.695533 182.077172 
L 279.395292 183.346352 
L 278.126111 185.046111 
" style="fill:none;opacity:0.5;stroke:#ff0000;stroke-linecap:round;stroke-width:3;"/>
   </g>
   <g id="patch_52">
    <path clip-path="url(#p64367d5f92)" d="M 276.571811 306.520344 
C 277.791875 306.520344 278.962132 306.168843 279.824848 305.543255 
C 280.687564 304.917666 281.1723 304.069067 281.1723 303.184352 
C 281.1723 302.299636 280.687564 301.451038 279.824848 300.825449 
C 278.962132 300.199861 277.791875 299.84836 276.571811 299.84836 
C 275.351747 299.84836 274.181489 300.199861 273.318773 300.825449 
C 272.456058 301.451038 271.971321 302.299636 271.971321 303.184352 
C 271.971321 304.069067 272.456058 304.917666 273.318773 305.543255 
C 274.181489 306.168843 275.351747 306.520344 276.571811 306.520344 
z
" style="fill:#008000;opacity:0.2;stroke:#008000;stroke-linejoin:miter;stroke-width:2;"/>
   </g>
   <g id="patch_53">
    <path clip-path="url(#p64367d5f92)" d="M 208.944613 306.520344 
C 210.164677 306.520344 211.334935 306.168843 212.197651 305.543255 
C 213.060366 304.917666 213.545103 304.069067 213.545103 303.184352 
C 213.545103 302.299636 213.060366 301.451038 212.197651 300.825449 
C 211.334935 300.199861 210.164677 299.84836 208.944613 299.84836 
C 207.724549 299.84836 206.554291 300.199861 205.691576 300.825449 
C 204.82886 301.451038 204.344124 302.299636 204.344124 303.184352 
C 204.344124 304.069067 204.82886 304.917666 205.691576 305.543255 
C 206.554291 306.168843 207.724549 306.520344 208.944613 306.520344 
z
" style="fill:#008000;opacity:0.2;stroke:#008000;stroke-linejoin:miter;stroke-width:2;"/>
   </g>
   <g id="patch_54">
    <path clip-path="url(#p64367d5f92)" d="M 208.944613 187.091827 
C 210.164677 187.091827 211.334935 186.740326 212.197651 186.114738 
C 213.060366 185.48915 213.545103 184.640551 213.545103 183.755835 
C 213.545103 182.87112 213.060366 182.022521 212.197651 181.396933 
C 211.334935 180.771344 210.164677 180.419843 208.944613 180.419843 
C 207.724549 180.419843 206.554291 180.771344 205.691576 181.396933 
C 204.82886 182.022521 204.344124 182.87112 204.344124 183.755835 
C 204.344124 184.640551 204.82886 185.48915 205.691576 186.114738 
C 206.554291 186.740326 207.724549 187.091827 208.944613 187.091827 
z
" style="fill:#008000;opacity:0.2;stroke:#008000;stroke-linejoin:miter;stroke-width:2;"/>
   </g>
   <g id="patch_55">
    <path clip-path="url(#p64367d5f92)" d="M 61.728945 187.091827 
C 62.94901 187.091827 64.119267 186.740326 64.981983 186.114738 
C 65.844699 185.48915 66.329435 184.640551 66.329435 183.755835 
C 66.329435 182.87112 65.844699 182.022521 64.981983 181.396933 
C 64.119267 180.771344 62.94901 180.419843 61.728945 180.419843 
C 60.508881 180.419843 59.338624 180.771344 58.475908 181.396933 
C 57.613192 182.022521 57.128456 182.87112 57.128456 183.755835 
C 57.128456 184.640551 57.613192 185.48915 58.475908 186.114738 
C 59.338624 186.740326 60.508881 187.091827 61.728945 187.091827 
z
" style="fill:#008000;opacity:0.2;stroke:#008000;stroke-linejoin:miter;stroke-width:2;"/>
   </g>
   <g id="patch_56">
    <path clip-path="url(#p64367d5f92)" d="M 61.728945 146.726323 
C 62.94901 146.726323 64.119267 146.374822 64.981983 145.749234 
C 65.844699 145.123646 66.329435 144.275047 66.329435 143.390331 
C 66.329435 142.505616 65.844699 141.657017 64.981983 141.031429 
C 64.119267 140.40584 62.94901 140.054339 61.728945 140.054339 
C 60.508881 140.054339 59.338624 140.40584 58.475908 141.031429 
C 57.613192 141.657017 57.128456 142.505616 57.128456 143.390331 
C 57.128456 144.275047 57.613192 145.123646 58.475908 145.749234 
C 59.338624 146.374822 60.508881 146.726323 61.728945 146.726323 
z
" style="fill:#008000;opacity:0.2;stroke:#008000;stroke-linejoin:miter;stroke-width:2;"/>
   </g>
   <g id="patch_57">
    <path clip-path="url(#p64367d5f92)" d="M 208.944613 146.726323 
C 210.164677 146.726323 211.334935 146.374822 212.197651 145.749234 
C 213.060366 145.123646 213.545103 144.275047 213.545103 143.390331 
C 213.545103 142.505616 213.060366 141.657017 212.197651 141.031429 
C 211.334935 140.40584 210.164677 140.054339 208.944613 140.054339 
C 207.724549 140.054339 206.554291 140.40584 205.691576 141.031429 
C 204.82886 141.657017 204.344124 142.505616 204.344124 143.390331 
C 204.344124 144.275047 204.82886 145.123646 205.691576 145.749234 
C 206.554291 146.374822 207.724549 146.726323 208.944613 146.726323 
z
" style="fill:#008000;opacity:0.2;stroke:#008000;stroke-linejoin:miter;stroke-width:2;"/>
   </g>
   <g id="patch_58">
    <path clip-path="url(#p64367d5f92)" d="M 208.944613 38.973779 
C 210.164677 38.973779 211.334935 38.622278 212.197651 37.99669 
C 213.060366 37.371101 213.545103 36.522502 213.545103 35.637787 
C 213.545103 34.753072 213.060366 33.904473 212.197651 33.278884 
C 211.334935 32.653296 210.164677 32.301795 208.944613 32.301795 
C 207.724549 32.301795 206.554291 32.653296 205.691576 33.278884 
C 204.82886 33.904473 204.344124 34.753072 204.344124 35.637787 
C 204.344124 36.522502 204.82886 37.371101 205.691576 37.99669 
C 206.554291 38.622278 207.724549 38.973779 208.944613 38.973779 
z
" style="fill:#008000;opacity:0.2;stroke:#008000;stroke-linejoin:miter;stroke-width:2;"/>
   </g>
   <g id="patch_59">
    <path clip-path="url(#p64367d5f92)" d="M 276.571811 38.973779 
C 277.791875 38.973779 278.962132 38.622278 279.824848 37.99669 
C 280.687564 37.371101 281.1723 36.522502 281.1723 35.637787 
C 281.1723 34.753072 280.687564 33.904473 279.824848 33.278884 
C 278.962132 32.653296 277.791875 32.301795 276.571811 32.301795 
C 275.351747 32.301795 274.181489 32.653296 273.318773 33.278884 
C 272.456058 33.904473 271.971321 34.753072 271.971321 35.637787 
C 271.971321 36.522502 272.456058 37.371101 273.318773 37.99669 
C 274.181489 38.622278 275.351747 38.973779 276.571811 38.973779 
z
" style="fill:#008000;opacity:0.2;stroke:#008000;stroke-linejoin:miter;stroke-width:2;"/>
   </g>
   <g id="patch_60">
    <path clip-path="url(#p64367d5f92)" d="M 276.571811 146.726323 
C 277.791875 146.726323 278.962132 146.374822 279.824848 145.749234 
C 280.687564 145.123646 281.1723 144.275047 281.1723 143.390331 
C 281.1723 142.505616 280.687564 141.657017 279.824848 141.031429 
C 278.962132 140.40584 277.791875 140.054339 276.571811 140.054339 
C 275.351747 140.054339 274.181489 140.40584 273.318773 141.031429 
C 272.456058 141.657017 271.971321 142.505616 271.971321 143.390331 
C 271.971321 144.275047 272.456058 145.123646 273.318773 145.749234 
C 274.181489 146.374822 275.351747 146.726323 276.571811 146.726323 
z
" style="fill:#008000;opacity:0.2;stroke:#008000;stroke-linejoin:miter;stroke-width:2;"/>
   </g>
   <g id="patch_61">
    <path clip-path="url(#p64367d5f92)" d="M 423.32743 146.726323 
C 424.547494 146.726323 425.717751 146.374822 426.580467 145.749234 
C 427.443183 145.123646 427.927919 144.275047 427.927919 143.390331 
C 427.927919 142.505616 427.443183 141.657017 426.580467 141.031429 
C 425.717751 140.40584 424.547494 140.054339 423.32743 140.054339 
C 422.107365 140.054339 420.937108 140.40584 420.074392 141.031429 
C 419.211676 141.657017 418.72694 142.505616 418.72694 143.390331 
C 418.72694 144.275047 419.211676 145.123646 420.074392 145.749234 
C 420.937108 146.374822 422.107365 146.726323 423.32743 146.726323 
z
" style="fill:#008000;opacity:0.2;stroke:#008000;stroke-linejoin:miter;stroke-width:2;"/>
   </g>
   <g id="patch_62">
    <path clip-path="url(#p64367d5f92)" d="M 423.32743 187.091827 
C 424.547494 187.091827 425.717751 186.740326 426.580467 186.114738 
C 427.443183 185.48915 427.927919 184.640551 427.927919 183.755835 
C 427.927919 182.87112 427.443183 182.022521 426.580467 181.396933 
C 425.717751 180.771344 424.547494 180.419843 423.32743 180.419843 
C 422.107365 180.419843 420.937108 180.771344 420.074392 181.396933 
C 419.211676 182.022521 418.72694 182.87112 418.72694 183.755835 
C 418.72694 184.640551 419.211676 185.48915 420.074392 186.114738 
C 420.937108 186.740326 422.107365 187.091827 423.32743 187.091827 
z
" style="fill:#008000;opacity:0.2;stroke:#008000;stroke-linejoin:miter;stroke-width:2;"/>
   </g>
   <g id="patch_63">
    <path clip-path="url(#p64367d5f92)" d="M 276.571811 187.091827 
C 277.791875 187.091827 278.962132 186.740326 279.824848 186.114738 
C 280.687564 185.48915 281.1723 184.640551 281.1723 183.755835 
C 281.1723 182.87112 280.687564 182.022521 279.824848 181.396933 
C 278.962132 180.771344 277.791875 180.419843 276.571811 180.419843 
C 275.351747 180.419843 274.181489 180.771344 273.318773 181.396933 
C 272.456058 182.022521 271.971321 182.87112 271.971321 183.755835 
C 271.971321 184.640551 272.456058 185.48915 273.318773 186.114738 
C 274.181489 186.740326 275.351747 187.091827 276.571811 187.091827 
z
" style="fill:#008000;opacity:0.2;stroke:#008000;stroke-linejoin:miter;stroke-width:2;"/>
   </g>
   <g id="patch_64">
    <path clip-path="url(#p64367d5f92)" d="M 283.472545 314.193126 
C 288.352802 314.193126 293.033832 312.787121 296.484695 310.284768 
C 299.935557 307.782415 301.874504 304.388019 301.874504 300.849157 
C 301.874504 297.310296 299.935557 293.9159 296.484695 291.413547 
C 293.033832 288.911194 288.352802 287.505189 283.472545 287.505189 
C 278.592289 287.505189 273.911258 288.911194 270.460395 291.413547 
C 267.009533 293.9159 265.070587 297.310296 265.070587 300.849157 
C 265.070587 304.388019 267.009533 307.782415 270.460395 310.284768 
C 273.911258 312.787121 278.592289 314.193126 283.472545 314.193126 
z
" style="fill:none;opacity:0.2;stroke:#ff0000;stroke-linejoin:miter;stroke-width:2;"/>
   </g>
   <g id="patch_65">
    <path clip-path="url(#p64367d5f92)" d="M 269.671076 318.863515 
C 274.551333 318.863515 279.232363 317.45751 282.683226 314.955157 
C 286.134088 312.452804 288.073035 309.058408 288.073035 305.519546 
C 288.073035 301.980685 286.134088 298.586289 282.683226 296.083936 
C 279.232363 293.581583 274.551333 292.175578 269.671076 292.175578 
C 264.79082 292.175578 260.109789 293.581583 256.658927 296.083936 
C 253.208064 298.586289 251.269118 301.980685 251.269118 305.519546 
C 251.269118 309.058408 253.208064 312.452804 256.658927 314.955157 
C 260.109789 317.45751 264.79082 318.863515 269.671076 318.863515 
z
" style="fill:none;opacity:0.2;stroke:#0000ff;stroke-linejoin:miter;stroke-width:2;"/>
   </g>
   <g id="patch_66">
    <path clip-path="url(#p64367d5f92)" d="M 283.472545 307.521142 
C 285.912673 307.521142 288.253189 306.818139 289.97862 305.566963 
C 291.704051 304.315786 292.673524 302.618588 292.673524 300.849157 
C 292.673524 299.079727 291.704051 297.382529 289.97862 296.131352 
C 288.253189 294.880176 285.912673 294.177173 283.472545 294.177173 
C 281.032417 294.177173 278.691902 294.880176 276.96647 296.131352 
C 275.241039 297.382529 274.271566 299.079727 274.271566 300.849157 
C 274.271566 302.618588 275.241039 304.315786 276.96647 305.566963 
C 278.691902 306.818139 281.032417 307.521142 283.472545 307.521142 
z
" style="fill:none;opacity:0.2;stroke:#008000;stroke-linejoin:miter;stroke-width:2;"/>
   </g>
   <g id="patch_67">
    <path clip-path="url(#p64367d5f92)" d="M 269.671076 312.191531 
C 272.111204 312.191531 274.45172 311.488528 276.177151 310.237352 
C 277.902582 308.986175 278.872055 307.288977 278.872055 305.519546 
C 278.872055 303.750115 277.902582 302.052918 276.177151 300.801741 
C 274.45172 299.550565 272.111204 298.847562 269.671076 298.847562 
C 267.230948 298.847562 264.890433 299.550565 263.165001 300.801741 
C 261.43957 302.052918 260.470097 303.750115 260.470097 305.519546 
C 260.470097 307.288977 261.43957 308.986175 263.165001 310.237352 
C 264.890433 311.488528 267.230948 312.191531 269.671076 312.191531 
z
" style="fill:none;opacity:0.2;stroke:#008000;stroke-linejoin:miter;stroke-width:2;"/>
   </g>
   <g id="patch_68">
    <path d="M 276.571811 303.184352 
Q 242.758212 303.184352 208.944613 303.184352 
" style="fill:none;opacity:0.5;stroke:#008000;stroke-linecap:round;stroke-width:2;"/>
   </g>
   <g id="patch_69">
    <path d="M 282.132954 301.302472 
Q 277.520325 302.863377 272.907696 304.424281 
" style="fill:none;opacity:0.5;stroke:#800080;stroke-linecap:round;stroke-width:2;"/>
    <path d="M 280.231289 300.362434 
L 282.132954 301.302472 
L 281.192915 303.204137 
" style="fill:none;opacity:0.5;stroke:#800080;stroke-linecap:round;stroke-width:2;"/>
    <path d="M 274.80936 305.364319 
L 272.907696 304.424281 
L 273.847734 302.522616 
" style="fill:none;opacity:0.5;stroke:#800080;stroke-linecap:round;stroke-width:2;"/>
   </g>
   <g id="patch_70">
    <path d="M 208.944613 303.184352 
Q 208.944613 243.470094 208.944613 183.755835 
" style="fill:none;opacity:0.5;stroke:#008000;stroke-linecap:round;stroke-width:2;"/>
   </g>
   <g id="patch_71">
    <path d="M 203.833451 301.331202 
Q 208.005871 302.843993 212.17829 304.356784 
" style="fill:none;opacity:0.5;stroke:#800080;stroke-linecap:round;stroke-width:2;"/>
    <path d="M 204.732339 303.25266 
L 203.833451 301.331202 
L 205.75491 300.432314 
" style="fill:none;opacity:0.5;stroke:#800080;stroke-linecap:round;stroke-width:2;"/>
    <path d="M 211.279403 302.435326 
L 212.17829 304.356784 
L 210.256832 305.255671 
" style="fill:none;opacity:0.5;stroke:#800080;stroke-linecap:round;stroke-width:2;"/>
   </g>
   <g id="patch_72">
    <path d="M 208.944613 183.755835 
Q 135.336779 183.755835 61.728945 183.755835 
" style="fill:none;opacity:0.5;stroke:#008000;stroke-linecap:round;stroke-width:2;"/>
   </g>
   <g id="patch_73">
    <path d="M 203.901371 182.972182 
Q 207.955553 183.602148 212.009735 184.232115 
" style="fill:none;opacity:0.5;stroke:#800080;stroke-linecap:round;stroke-width:2;"/>
    <path d="M 205.153268 184.684711 
L 203.901371 182.972182 
L 205.6139 181.720286 
" style="fill:none;opacity:0.5;stroke:#800080;stroke-linecap:round;stroke-width:2;"/>
    <path d="M 210.757838 182.519586 
L 212.009735 184.232115 
L 210.297206 185.484011 
" style="fill:none;opacity:0.5;stroke:#800080;stroke-linecap:round;stroke-width:2;"/>
   </g>
   <g id="patch_74">
    <path d="M 61.728945 183.755835 
Q 61.728945 163.573083 61.728945 143.390331 
" style="fill:none;opacity:0.5;stroke:#008000;stroke-linecap:round;stroke-width:2;"/>
   </g>
   <g id="patch_75">
    <path d="M 59.413213 183.126125 
Q 60.763921 183.493419 62.114629 183.860713 
" style="fill:none;opacity:0.5;stroke:#800080;stroke-linecap:round;stroke-width:2;"/>
    <path d="M 60.467054 184.967162 
L 59.413213 183.126125 
L 61.25425 182.072284 
" style="fill:none;opacity:0.5;stroke:#800080;stroke-linecap:round;stroke-width:2;"/>
    <path d="M 61.060787 182.019676 
L 62.114629 183.860713 
L 60.273592 184.914555 
" style="fill:none;opacity:0.5;stroke:#800080;stroke-linecap:round;stroke-width:2;"/>
   </g>
   <g id="patch_76">
    <path d="M 61.728945 143.390331 
Q 135.336779 143.390331 208.944613 143.390331 
" style="fill:none;opacity:0.5;stroke:#008000;stroke-linecap:round;stroke-width:2;"/>
   </g>
   <g id="patch_77">
    <path d="M 58.600963 136.018614 
Q 61.338084 142.469187 64.075205 148.91976 
" style="fill:none;opacity:0.5;stroke:#800080;stroke-linecap:round;stroke-width:2;"/>
    <path d="M 57.806048 137.985365 
L 58.600963 136.018614 
L 60.567714 136.813529 
" style="fill:none;opacity:0.5;stroke:#800080;stroke-linecap:round;stroke-width:2;"/>
    <path d="M 64.87012 146.953009 
L 64.075205 148.91976 
L 62.108453 148.124845 
" style="fill:none;opacity:0.5;stroke:#800080;stroke-linecap:round;stroke-width:2;"/>
   </g>
   <g id="patch_78">
    <path d="M 208.944613 143.390331 
Q 208.944613 89.514059 208.944613 35.637787 
" style="fill:none;opacity:0.5;stroke:#008000;stroke-linecap:round;stroke-width:2;"/>
   </g>
   <g id="patch_79">
    <path d="M 203.347043 135.852163 
Q 208.347875 142.586712 213.348707 149.321262 
" style="fill:none;opacity:0.5;stroke:#800080;stroke-linecap:round;stroke-width:2;"/>
    <path d="M 203.037016 137.950706 
L 203.347043 135.852163 
L 205.445586 136.162189 
" style="fill:none;opacity:0.5;stroke:#800080;stroke-linecap:round;stroke-width:2;"/>
    <path d="M 213.658734 147.222719 
L 213.348707 149.321262 
L 211.250164 149.011235 
" style="fill:none;opacity:0.5;stroke:#800080;stroke-linecap:round;stroke-width:2;"/>
   </g>
   <g id="patch_80">
    <path d="M 208.944613 35.637787 
Q 242.758212 35.637787 276.571811 35.637787 
" style="fill:none;opacity:0.5;stroke:#008000;stroke-linecap:round;stroke-width:2;"/>
   </g>
   <g id="patch_81">
    <path d="M 203.461072 29.673297 
Q 208.266895 34.900627 213.072717 40.127958 
" style="fill:none;opacity:0.5;stroke:#800080;stroke-linecap:round;stroke-width:2;"/>
    <path d="M 203.372031 31.792748 
L 203.461072 29.673297 
L 205.580523 29.762338 
" style="fill:none;opacity:0.5;stroke:#800080;stroke-linecap:round;stroke-width:2;"/>
    <path d="M 213.161759 38.008507 
L 213.072717 40.127958 
L 210.953267 40.038916 
" style="fill:none;opacity:0.5;stroke:#800080;stroke-linecap:round;stroke-width:2;"/>
   </g>
   <g id="patch_82">
    <path d="M 276.571811 35.637787 
Q 276.571811 89.514059 276.571811 143.390331 
" style="fill:none;opacity:0.5;stroke:#008000;stroke-linecap:round;stroke-width:2;"/>
   </g>
   <g id="patch_83">
    <path d="M 282.480113 29.639715 
Q 277.274351 34.924572 272.06859 40.20943 
" style="fill:none;opacity:0.5;stroke:#800080;stroke-linecap:round;stroke-width:2;"/>
    <path d="M 280.358853 29.655708 
L 282.480113 29.639715 
L 282.496107 31.760975 
" style="fill:none;opacity:0.5;stroke:#800080;stroke-linecap:round;stroke-width:2;"/>
    <path d="M 274.18985 40.193436 
L 272.06859 40.20943 
L 272.052596 38.088169 
" style="fill:none;opacity:0.5;stroke:#800080;stroke-linecap:round;stroke-width:2;"/>
   </g>
   <g id="patch_84">
    <path d="M 276.571811 143.390331 
Q 349.94962 143.390331 423.32743 143.390331 
" style="fill:none;opacity:0.5;stroke:#008000;stroke-linecap:round;stroke-width:2;"/>
   </g>
   <g id="patch_85">
    <path d="M 282.592063 135.823436 
Q 277.194326 142.607888 271.796589 149.39234 
" style="fill:none;opacity:0.5;stroke:#800080;stroke-linecap:round;stroke-width:2;"/>
    <path d="M 280.484354 136.06336 
L 282.592063 135.823436 
L 282.831986 137.931145 
" style="fill:none;opacity:0.5;stroke:#800080;stroke-linecap:round;stroke-width:2;"/>
    <path d="M 273.904298 149.152416 
L 271.796589 149.39234 
L 271.556665 147.284631 
" style="fill:none;opacity:0.5;stroke:#800080;stroke-linecap:round;stroke-width:2;"/>
   </g>
   <g id="patch_86">
    <path d="M 423.32743 143.390331 
Q 423.32743 163.573083 423.32743 183.755835 
" style="fill:none;opacity:0.5;stroke:#008000;stroke-linecap:round;stroke-width:2;"/>
   </g>
   <g id="patch_87">
    <path d="M 426.455412 136.018614 
Q 423.718291 142.469187 420.98117 148.91976 
" style="fill:none;opacity:0.5;stroke:#800080;stroke-linecap:round;stroke-width:2;"/>
    <path d="M 424.488661 136.813529 
L 426.455412 136.018614 
L 427.250327 137.985365 
" style="fill:none;opacity:0.5;stroke:#800080;stroke-linecap:round;stroke-width:2;"/>
    <path d="M 422.947922 148.124845 
L 420.98117 148.91976 
L 420.186255 146.953009 
" style="fill:none;opacity:0.5;stroke:#800080;stroke-linecap:round;stroke-width:2;"/>
   </g>
   <g id="patch_88">
    <path d="M 423.32743 183.755835 
Q 349.94962 183.755835 276.571811 183.755835 
" style="fill:none;opacity:0.5;stroke:#008000;stroke-linecap:round;stroke-width:2;"/>
   </g>
   <g id="patch_89">
    <path d="M 425.643162 183.126125 
Q 424.292454 183.493419 422.941746 183.860713 
" style="fill:none;opacity:0.5;stroke:#800080;stroke-linecap:round;stroke-width:2;"/>
    <path d="M 423.802125 182.072284 
L 425.643162 183.126125 
L 424.589321 184.967162 
" style="fill:none;opacity:0.5;stroke:#800080;stroke-linecap:round;stroke-width:2;"/>
    <path d="M 424.782783 184.914555 
L 422.941746 183.860713 
L 423.995588 182.019676 
" style="fill:none;opacity:0.5;stroke:#800080;stroke-linecap:round;stroke-width:2;"/>
   </g>
   <g id="patch_90">
    <path d="M 276.571811 183.755835 
Q 276.571811 243.470094 276.571811 303.184352 
" style="fill:none;opacity:0.5;stroke:#008000;stroke-linecap:round;stroke-width:2;"/>
   </g>
   <g id="patch_91">
    <path d="M 282.072974 182.958014 
Q 277.560759 183.612411 273.048544 184.266807 
" style="fill:none;opacity:0.5;stroke:#800080;stroke-linecap:round;stroke-width:2;"/>
    <path d="M 280.373215 181.688834 
L 282.072974 182.958014 
L 280.803793 184.657773 
" style="fill:none;opacity:0.5;stroke:#800080;stroke-linecap:round;stroke-width:2;"/>
    <path d="M 274.748303 185.535987 
L 273.048544 184.266807 
L 274.317724 182.567048 
" style="fill:none;opacity:0.5;stroke:#800080;stroke-linecap:round;stroke-width:2;"/>
   </g>
   <g id="line2d_1">
    <path clip-path="url(#p64367d5f92)" d="M 283.472545 300.849157 
L 202.503928 300.849157 
L 202.503928 182.755038 
L 58.048554 182.755038 
L 58.048554 134.716752 
L 202.503928 134.716752 
L 202.503928 28.632204 
L 283.472545 28.632204 
L 283.472545 134.716752 
L 427.007821 134.716752 
L 427.007821 182.755038 
L 283.472545 182.755038 
" style="fill:none;stroke:#ff0000;stroke-linecap:square;stroke-width:0.2;"/>
   </g>
   <g id="line2d_2">
    <path clip-path="url(#p64367d5f92)" d="M 269.671076 305.519546 
L 215.385299 305.519546 
L 215.385299 184.756633 
L 65.409337 184.756633 
L 65.409337 152.063911 
L 215.385299 152.063911 
L 215.385299 42.64337 
L 269.671076 42.64337 
L 269.671076 152.063911 
L 419.647038 152.063911 
L 419.647038 184.756633 
L 269.671076 184.756633 
" style="fill:none;stroke:#0000ff;stroke-linecap:square;stroke-width:0.2;"/>
   </g>
  </g>
 </g>
 <defs>
  <clipPath id="p64367d5f92">
   <rect height="307.51175" width="409.903625" x="37.576375" y="13.32"/>
  </clipPath>
 </defs>
</svg>
