<?xml version="1.0" encoding="utf-8" standalone="no"?>
<!DOCTYPE svg PUBLIC "-//W3C//DTD SVG 1.1//EN"
  "http://www.w3.org/Graphics/SVG/1.1/DTD/svg11.dtd">
<!-- Created with matplotlib (http://matplotlib.org/) -->
<svg height="345.6pt" version="1.1" viewBox="0 0 460.8 345.6" width="460.8pt" xmlns="http://www.w3.org/2000/svg" xmlns:xlink="http://www.w3.org/1999/xlink">
 <defs>
  <style type="text/css">
*{stroke-linecap:butt;stroke-linejoin:round;}
  </style>
 </defs>
 <g id="figure_1">
  <g id="patch_1">
   <path d="M 0 345.6 
L 460.8 345.6 
L 460.8 0 
L 0 0 
z
" style="fill:#ffffff;"/>
  </g>
  <g id="axes_1">
   <g id="patch_2">
    <path clip-path="url(#p9846508dfc)" d="M 242.528188 59.994431 
C 244.025539 59.994431 245.461764 59.822175 246.520552 59.5156 
C 247.579339 59.209025 248.174243 58.793162 248.174243 58.3596 
C 248.174243 57.926037 247.579339 57.510174 246.520552 57.2036 
C 245.461764 56.897025 244.025539 56.724769 242.528188 56.724769 
C 241.030836 56.724769 239.594611 56.897025 238.535823 57.2036 
C 237.477036 57.510174 236.882132 57.926037 236.882132 58.3596 
C 236.882132 58.793162 237.477036 59.209025 238.535823 59.5156 
C 239.594611 59.822175 241.030836 59.994431 242.528188 59.994431 
z
" style="fill:#ff0000;opacity:0.2;stroke:#ff0000;stroke-linejoin:miter;stroke-width:2;"/>
   </g>
   <g id="patch_3">
    <path clip-path="url(#p9846508dfc)" d="M 423.201962 87.786561 
C 424.699313 87.786561 426.135538 87.614305 427.194326 87.30773 
C 428.253113 87.001156 428.848017 86.585293 428.848017 86.15173 
C 428.848017 85.718168 428.253113 85.302305 427.194326 84.99573 
C 426.135538 84.689155 424.699313 84.516899 423.201962 84.516899 
C 421.70461 84.516899 420.268385 84.689155 419.209598 84.99573 
C 418.15081 85.302305 417.555906 85.718168 417.555906 86.15173 
C 417.555906 86.585293 418.15081 87.001156 419.209598 87.30773 
C 420.268385 87.614305 421.70461 87.786561 423.201962 87.786561 
z
" style="fill:#ff0000;opacity:0.2;stroke:#ff0000;stroke-linejoin:miter;stroke-width:2;"/>
   </g>
   <g id="patch_4">
    <path clip-path="url(#p9846508dfc)" d="M 400.61774 134.379251 
C 402.115091 134.379251 403.551317 134.206995 404.610104 133.90042 
C 405.668891 133.593845 406.263795 133.177982 406.263795 132.74442 
C 406.263795 132.310857 405.668891 131.894994 404.610104 131.588419 
C 403.551317 131.281845 402.115091 131.109588 400.61774 131.109588 
C 399.120388 131.109588 397.684163 131.281845 396.625376 131.588419 
C 395.566588 131.894994 394.971684 132.310857 394.971684 132.74442 
C 394.971684 133.177982 395.566588 133.593845 396.625376 133.90042 
C 397.684163 134.206995 399.120388 134.379251 400.61774 134.379251 
z
" style="fill:#ff0000;opacity:0.2;stroke:#ff0000;stroke-linejoin:miter;stroke-width:2;"/>
   </g>
   <g id="patch_5">
    <path clip-path="url(#p9846508dfc)" d="M 296.165714 301.94945 
C 297.663066 301.94945 299.099291 301.777193 300.158078 301.470619 
C 301.216866 301.164044 301.81177 300.748181 301.81177 300.314618 
C 301.81177 299.881056 301.216866 299.465193 300.158078 299.158618 
C 299.099291 298.852043 297.663066 298.679787 296.165714 298.679787 
C 294.668363 298.679787 293.232137 298.852043 292.17335 299.158618 
C 291.114563 299.465193 290.519659 299.881056 290.519659 300.314618 
C 290.519659 300.748181 291.114563 301.164044 292.17335 301.470619 
C 293.232137 301.777193 294.668363 301.94945 296.165714 301.94945 
z
" style="fill:#ff0000;opacity:0.2;stroke:#ff0000;stroke-linejoin:miter;stroke-width:2;"/>
   </g>
   <g id="patch_6">
    <path clip-path="url(#p9846508dfc)" d="M 188.890661 301.94945 
C 190.388012 301.94945 191.824238 301.777193 192.883025 301.470619 
C 193.941812 301.164044 194.536716 300.748181 194.536716 300.314618 
C 194.536716 299.881056 193.941812 299.465193 192.883025 299.158618 
C 191.824238 298.852043 190.388012 298.679787 188.890661 298.679787 
C 187.393309 298.679787 185.957084 298.852043 184.898297 299.158618 
C 183.839509 299.465193 183.244605 299.881056 183.244605 300.314618 
C 183.244605 300.748181 183.839509 301.164044 184.898297 301.470619 
C 185.957084 301.777193 187.393309 301.94945 188.890661 301.94945 
z
" style="fill:#ff0000;opacity:0.2;stroke:#ff0000;stroke-linejoin:miter;stroke-width:2;"/>
   </g>
   <g id="patch_7">
    <path clip-path="url(#p9846508dfc)" d="M 84.438635 134.379251 
C 85.935987 134.379251 87.372212 134.206995 88.430999 133.90042 
C 89.489787 133.593845 90.084691 133.177982 90.084691 132.74442 
C 90.084691 132.310857 89.489787 131.894994 88.430999 131.588419 
C 87.372212 131.281845 85.935987 131.109588 84.438635 131.109588 
C 82.941284 131.109588 81.505058 131.281845 80.446271 131.588419 
C 79.387484 131.894994 78.79258 132.310857 78.79258 132.74442 
C 78.79258 133.177982 79.387484 133.593845 80.446271 133.90042 
C 81.505058 134.206995 82.941284 134.379251 84.438635 134.379251 
z
" style="fill:#ff0000;opacity:0.2;stroke:#ff0000;stroke-linejoin:miter;stroke-width:2;"/>
   </g>
   <g id="patch_8">
    <path clip-path="url(#p9846508dfc)" d="M 61.854413 87.786561 
C 63.351765 87.786561 64.78799 87.614305 65.846777 87.30773 
C 66.905565 87.001156 67.500469 86.585293 67.500469 86.15173 
C 67.500469 85.718168 66.905565 85.302305 65.846777 84.99573 
C 64.78799 84.689155 63.351765 84.516899 61.854413 84.516899 
C 60.357062 84.516899 58.920837 84.689155 57.862049 84.99573 
C 56.803262 85.302305 56.208358 85.718168 56.208358 86.15173 
C 56.208358 86.585293 56.803262 87.001156 57.862049 87.30773 
C 58.920837 87.614305 60.357062 87.786561 61.854413 87.786561 
z
" style="fill:#ff0000;opacity:0.2;stroke:#ff0000;stroke-linejoin:miter;stroke-width:2;"/>
   </g>
   <g id="patch_9">
    <path clip-path="url(#p9846508dfc)" d="M 242.528188 30.567469 
C 244.025539 30.567469 245.461764 30.395213 246.520552 30.088638 
C 247.579339 29.782063 248.174243 29.3662 248.174243 28.932638 
C 248.174243 28.499076 247.579339 28.083213 246.520552 27.776638 
C 245.461764 27.470063 244.025539 27.297807 242.528188 27.297807 
C 241.030836 27.297807 239.594611 27.470063 238.535823 27.776638 
C 237.477036 28.083213 236.882132 28.499076 236.882132 28.932638 
C 236.882132 29.3662 237.477036 29.782063 238.535823 30.088638 
C 239.594611 30.395213 241.030836 30.567469 242.528188 30.567469 
z
" style="fill:#0000ff;opacity:0.2;stroke:#0000ff;stroke-linejoin:miter;stroke-width:2;"/>
   </g>
   <g id="patch_10">
    <path clip-path="url(#p9846508dfc)" d="M 363.918379 50.185444 
C 365.415731 50.185444 366.851956 50.013188 367.910744 49.706613 
C 368.969531 49.400038 369.564435 48.984175 369.564435 48.550613 
C 369.564435 48.11705 368.969531 47.701187 367.910744 47.394612 
C 366.851956 47.088037 365.415731 46.915781 363.918379 46.915781 
C 362.421028 46.915781 360.984803 47.088037 359.926015 47.394612 
C 358.867228 47.701187 358.272324 48.11705 358.272324 48.550613 
C 358.272324 48.984175 358.867228 49.400038 359.926015 49.706613 
C 360.984803 50.013188 362.421028 50.185444 363.918379 50.185444 
z
" style="fill:#0000ff;opacity:0.2;stroke:#0000ff;stroke-linejoin:miter;stroke-width:2;"/>
   </g>
   <g id="patch_11">
    <path clip-path="url(#p9846508dfc)" d="M 349.803241 82.064652 
C 351.300592 82.064652 352.736818 81.892396 353.795605 81.585821 
C 354.854392 81.279246 355.449296 80.863383 355.449296 80.429821 
C 355.449296 79.996259 354.854392 79.580396 353.795605 79.273821 
C 352.736818 78.967246 351.300592 78.79499 349.803241 78.79499 
C 348.305889 78.79499 346.869664 78.967246 345.810877 79.273821 
C 344.752089 79.580396 344.157185 79.996259 344.157185 80.429821 
C 344.157185 80.863383 344.752089 81.279246 345.810877 81.585821 
C 346.869664 81.892396 348.305889 82.064652 349.803241 82.064652 
z
" style="fill:#0000ff;opacity:0.2;stroke:#0000ff;stroke-linejoin:miter;stroke-width:2;"/>
   </g>
   <g id="patch_12">
    <path clip-path="url(#p9846508dfc)" d="M 276.40452 213.668564 
C 277.901872 213.668564 279.338097 213.496308 280.396884 213.189733 
C 281.455672 212.883159 282.050576 212.467295 282.050576 212.033733 
C 282.050576 211.600171 281.455672 211.184308 280.396884 210.877733 
C 279.338097 210.571158 277.901872 210.398902 276.40452 210.398902 
C 274.907169 210.398902 273.470943 210.571158 272.412156 210.877733 
C 271.353369 211.184308 270.758465 211.600171 270.758465 212.033733 
C 270.758465 212.467295 271.353369 212.883159 272.412156 213.189733 
C 273.470943 213.496308 274.907169 213.668564 276.40452 213.668564 
z
" style="fill:#0000ff;opacity:0.2;stroke:#0000ff;stroke-linejoin:miter;stroke-width:2;"/>
   </g>
   <g id="patch_13">
    <path clip-path="url(#p9846508dfc)" d="M 208.651855 213.668564 
C 210.149206 213.668564 211.585432 213.496308 212.644219 213.189733 
C 213.703006 212.883159 214.29791 212.467295 214.29791 212.033733 
C 214.29791 211.600171 213.703006 211.184308 212.644219 210.877733 
C 211.585432 210.571158 210.149206 210.398902 208.651855 210.398902 
C 207.154503 210.398902 205.718278 210.571158 204.659491 210.877733 
C 203.600703 211.184308 203.005799 211.600171 203.005799 212.033733 
C 203.005799 212.467295 203.600703 212.883159 204.659491 213.189733 
C 205.718278 213.496308 207.154503 213.668564 208.651855 213.668564 
z
" style="fill:#0000ff;opacity:0.2;stroke:#0000ff;stroke-linejoin:miter;stroke-width:2;"/>
   </g>
   <g id="patch_14">
    <path clip-path="url(#p9846508dfc)" d="M 135.253134 82.064652 
C 136.750486 82.064652 138.186711 81.892396 139.245498 81.585821 
C 140.304286 81.279246 140.89919 80.863383 140.89919 80.429821 
C 140.89919 79.996259 140.304286 79.580396 139.245498 79.273821 
C 138.186711 78.967246 136.750486 78.79499 135.253134 78.79499 
C 133.755783 78.79499 132.319557 78.967246 131.26077 79.273821 
C 130.201983 79.580396 129.607079 79.996259 129.607079 80.429821 
C 129.607079 80.863383 130.201983 81.279246 131.26077 81.585821 
C 132.319557 81.892396 133.755783 82.064652 135.253134 82.064652 
z
" style="fill:#0000ff;opacity:0.2;stroke:#0000ff;stroke-linejoin:miter;stroke-width:2;"/>
   </g>
   <g id="patch_15">
    <path clip-path="url(#p9846508dfc)" d="M 121.137996 50.185444 
C 122.635347 50.185444 124.071572 50.013188 125.13036 49.706613 
C 126.189147 49.400038 126.784051 48.984175 126.784051 48.550613 
C 126.784051 48.11705 126.189147 47.701187 125.13036 47.394612 
C 124.071572 47.088037 122.635347 46.915781 121.137996 46.915781 
C 119.640644 46.915781 118.204419 47.088037 117.145631 47.394612 
C 116.086844 47.701187 115.49194 48.11705 115.49194 48.550613 
C 115.49194 48.984175 116.086844 49.400038 117.145631 49.706613 
C 118.204419 50.013188 119.640644 50.185444 121.137996 50.185444 
z
" style="fill:#0000ff;opacity:0.2;stroke:#0000ff;stroke-linejoin:miter;stroke-width:2;"/>
   </g>
   <g id="patch_16">
    <path clip-path="url(#p9846508dfc)" d="M 242.528188 58.3596 
C 361.095352 58.3596 423.201962 59.994431 423.201962 86.15173 
C 423.201962 95.143302 414.732878 109.039367 400.61774 132.74442 
L 296.165714 300.314618 
C 265.112409 306.853943 219.943966 306.853943 188.890661 300.314618 
L 84.438635 132.74442 
C 70.323497 109.039367 61.854413 95.143302 61.854413 86.15173 
C 61.854413 59.994431 123.961023 58.3596 242.528188 58.3596 
" style="fill:none;stroke:#ff0000;stroke-linejoin:miter;stroke-width:0.5;"/>
   </g>
   <g id="patch_17">
    <path clip-path="url(#p9846508dfc)" d="M 242.528188 28.932638 
C 321.572964 28.932638 363.918379 30.567469 363.918379 48.550613 
C 363.918379 54.272522 358.272324 63.264093 349.803241 80.429821 
L 276.40452 212.033733 
C 253.820298 218.573058 231.236077 218.573058 208.651855 212.033733 
L 135.253134 80.429821 
C 126.784051 63.264093 121.137996 54.272522 121.137996 48.550613 
C 121.137996 30.567469 163.483411 28.932638 242.528188 28.932638 
" style="fill:none;stroke:#0000ff;stroke-linejoin:miter;stroke-width:0.5;"/>
   </g>
   <g id="[&quot;g_s&quot;:1,&quot;g_t&quot;:1,&quot;coords&quot;:[[177.0, 0.0],[177.0, 36.0]],&quot;certainty&quot;:9]">
    <path clip-path="url(#p9846508dfc)" d="M 242.528188 62.446678 
C 246.271566 62.446678 249.862129 62.016037 252.509098 61.2496 
C 255.156066 60.483163 256.643326 59.443506 256.643326 58.3596 
C 256.643326 57.275694 255.156066 56.236036 252.509098 55.469599 
C 249.862129 54.703162 246.271566 54.272522 242.528188 54.272522 
C 238.784809 54.272522 235.194246 54.703162 232.547277 55.469599 
C 229.900309 56.236036 228.413049 57.275694 228.413049 58.3596 
C 228.413049 59.443506 229.900309 60.483163 232.547277 61.2496 
C 235.194246 62.016037 238.784809 62.446678 242.528188 62.446678 
z
" style="fill:#0000ff;opacity:0.2;stroke:#0000ff;stroke-linejoin:miter;stroke-width:2;"/>
   </g>
   <g id="[&quot;g_s&quot;:1,&quot;g_t&quot;:1,&quot;coords&quot;:[[177.0, 36.0],[177.0, 0.0]],&quot;certainty&quot;:9]">
    <path clip-path="url(#p9846508dfc)" d="M 242.528188 33.019716 
C 246.271566 33.019716 249.862129 32.589076 252.509098 31.822639 
C 255.156066 31.056201 256.643326 30.016544 256.643326 28.932638 
C 256.643326 27.848732 255.156066 26.809075 252.509098 26.042637 
C 249.862129 25.2762 246.271566 24.84556 242.528188 24.84556 
C 238.784809 24.84556 235.194246 25.2762 232.547277 26.042637 
C 229.900309 26.809075 228.413049 27.848732 228.413049 28.932638 
C 228.413049 30.016544 229.900309 31.056201 232.547277 31.822639 
C 235.194246 32.589076 238.784809 33.019716 242.528188 33.019716 
z
" style="fill:#ff0000;opacity:0.2;stroke:#ff0000;stroke-linejoin:miter;stroke-width:2;"/>
   </g>
   <g id="patch_18">
    <path d="M 242.528188 58.3596 
Q 242.528188 44.646535 242.528188 32.701237 
" style="fill:none;opacity:0.5;stroke:#0000ff;stroke-linecap:round;stroke-width:2.5;"/>
    <path d="M 241.028188 34.201237 
L 242.528188 32.701237 
L 244.028188 34.201237 
" style="fill:none;opacity:0.5;stroke:#0000ff;stroke-linecap:round;stroke-width:2.5;"/>
   </g>
   <g id="[&quot;g_s&quot;:2,&quot;g_t&quot;:2,&quot;coords&quot;:[[241.0, -34.0],[220.0, 12.0]],&quot;certainty&quot;:8]">
    <path clip-path="url(#p9846508dfc)" d="M 423.201962 89.8301 
C 426.571002 89.8301 429.802509 89.442524 432.184781 88.752731 
C 434.567052 88.062937 435.905586 87.127245 435.905586 86.15173 
C 435.905586 85.176215 434.567052 84.240523 432.184781 83.55073 
C 429.802509 82.860936 426.571002 82.47336 423.201962 82.47336 
C 419.832921 82.47336 416.601414 82.860936 414.219142 83.55073 
C 411.836871 84.240523 410.498337 85.176215 410.498337 86.15173 
C 410.498337 87.127245 411.836871 88.062937 414.219142 88.752731 
C 416.601414 89.442524 419.832921 89.8301 423.201962 89.8301 
z
" style="fill:#0000ff;opacity:0.2;stroke:#0000ff;stroke-linejoin:miter;stroke-width:2;"/>
   </g>
   <g id="[&quot;g_s&quot;:2,&quot;g_t&quot;:2,&quot;coords&quot;:[[220.0, 12.0],[241.0, -34.0]],&quot;certainty&quot;:8]">
    <path clip-path="url(#p9846508dfc)" d="M 363.918379 52.228983 
C 367.28742 52.228983 370.518927 51.841406 372.901199 51.151613 
C 375.28347 50.46182 376.622004 49.526128 376.622004 48.550613 
C 376.622004 47.575097 375.28347 46.639405 372.901199 45.949612 
C 370.518927 45.259819 367.28742 44.872242 363.918379 44.872242 
C 360.549339 44.872242 357.317832 45.259819 354.93556 45.949612 
C 352.553289 46.639405 351.214755 47.575097 351.214755 48.550613 
C 351.214755 49.526128 352.553289 50.46182 354.93556 51.151613 
C 357.317832 51.841406 360.549339 52.228983 363.918379 52.228983 
z
" style="fill:#ff0000;opacity:0.2;stroke:#ff0000;stroke-linejoin:miter;stroke-width:2;"/>
   </g>
   <g id="patch_19">
    <path d="M 423.201962 86.15173 
Q 394.405063 67.887052 366.951701 50.474523 
" style="fill:none;opacity:0.5;stroke:#0000ff;stroke-linecap:round;stroke-width:2.25;"/>
    <path d="M 367.414985 52.544636 
L 366.951701 50.474523 
L 369.021814 50.011238 
" style="fill:none;opacity:0.5;stroke:#0000ff;stroke-linecap:round;stroke-width:2.25;"/>
   </g>
   <g id="[&quot;g_s&quot;:3,&quot;g_t&quot;:3,&quot;coords&quot;:[[233.0, -91.0],[215.0, -27.0]],&quot;certainty&quot;:6]">
    <path clip-path="url(#p9846508dfc)" d="M 400.61774 135.605374 
C 403.238105 135.605374 405.751499 135.303926 407.604377 134.76742 
C 409.457255 134.230914 410.498337 133.503154 410.498337 132.74442 
C 410.498337 131.985686 409.457255 131.257925 407.604377 130.721419 
C 405.751499 130.184913 403.238105 129.883465 400.61774 129.883465 
C 397.997375 129.883465 395.483981 130.184913 393.631103 130.721419 
C 391.778225 131.257925 390.737143 131.985686 390.737143 132.74442 
C 390.737143 133.503154 391.778225 134.230914 393.631103 134.76742 
C 395.483981 135.303926 397.997375 135.605374 400.61774 135.605374 
z
" style="fill:#0000ff;opacity:0.2;stroke:#0000ff;stroke-linejoin:miter;stroke-width:2;"/>
   </g>
   <g id="[&quot;g_s&quot;:3,&quot;g_t&quot;:3,&quot;coords&quot;:[[215.0, -27.0],[233.0, -91.0]],&quot;certainty&quot;:6]">
    <path clip-path="url(#p9846508dfc)" d="M 349.803241 83.290776 
C 352.423606 83.290776 354.937 82.989327 356.789878 82.452821 
C 358.642756 81.916315 359.683838 81.188555 359.683838 80.429821 
C 359.683838 79.671087 358.642756 78.943327 356.789878 78.406821 
C 354.937 77.870315 352.423606 77.568866 349.803241 77.568866 
C 347.182876 77.568866 344.669482 77.870315 342.816604 78.406821 
C 340.963726 78.943327 339.922644 79.671087 339.922644 80.429821 
C 339.922644 81.188555 340.963726 81.916315 342.816604 82.452821 
C 344.669482 82.989327 347.182876 83.290776 349.803241 83.290776 
z
" style="fill:#ff0000;opacity:0.2;stroke:#ff0000;stroke-linejoin:miter;stroke-width:2;"/>
   </g>
   <g id="patch_20">
    <path d="M 400.61774 132.74442 
Q 375.906771 107.303956 352.057982 82.751125 
" style="fill:none;opacity:0.5;stroke:#0000ff;stroke-linecap:round;stroke-width:1.75;"/>
    <path d="M 352.027129 84.872221 
L 352.057982 82.751125 
L 354.179078 82.781978 
" style="fill:none;opacity:0.5;stroke:#0000ff;stroke-linecap:round;stroke-width:1.75;"/>
   </g>
   <g id="[&quot;g_s&quot;:4,&quot;g_t&quot;:4,&quot;coords&quot;:[[196.0, -296.0],[189.0, -188.0]],&quot;certainty&quot;:10]">
    <path clip-path="url(#p9846508dfc)" d="M 296.165714 304.810404 
C 300.283431 304.810404 304.23305 304.3367 307.144715 303.493619 
C 310.056381 302.650538 311.692367 301.506915 311.692367 300.314618 
C 311.692367 299.122322 310.056381 297.978699 307.144715 297.135618 
C 304.23305 296.292537 300.283431 295.818833 296.165714 295.818833 
C 292.047998 295.818833 288.098378 296.292537 285.186713 297.135618 
C 282.275048 297.978699 280.639062 299.122322 280.639062 300.314618 
C 280.639062 301.506915 282.275048 302.650538 285.186713 303.493619 
C 288.098378 304.3367 292.047998 304.810404 296.165714 304.810404 
z
" style="fill:#0000ff;opacity:0.2;stroke:#0000ff;stroke-linejoin:miter;stroke-width:2;"/>
   </g>
   <g id="[&quot;g_s&quot;:4,&quot;g_t&quot;:4,&quot;coords&quot;:[[189.0, -188.0],[196.0, -296.0]],&quot;certainty&quot;:10]">
    <path clip-path="url(#p9846508dfc)" d="M 276.40452 216.529519 
C 280.522237 216.529519 284.471856 216.055815 287.383521 215.212734 
C 290.295187 214.369653 291.931173 213.22603 291.931173 212.033733 
C 291.931173 210.841437 290.295187 209.697813 287.383521 208.854733 
C 284.471856 208.011652 280.522237 207.537947 276.40452 207.537947 
C 272.286804 207.537947 268.337184 208.011652 265.425519 208.854733 
C 262.513854 209.697813 260.877868 210.841437 260.877868 212.033733 
C 260.877868 213.22603 262.513854 214.369653 265.425519 215.212734 
C 268.337184 216.055815 272.286804 216.529519 276.40452 216.529519 
z
" style="fill:#ff0000;opacity:0.2;stroke:#ff0000;stroke-linejoin:miter;stroke-width:2;"/>
   </g>
   <g id="patch_21">
    <path d="M 296.165714 300.314618 
Q 286.503728 257.150794 277.266505 215.884553 
" style="fill:none;opacity:0.5;stroke:#0000ff;stroke-linecap:round;stroke-width:2.75;"/>
    <path d="M 276.130388 217.675988 
L 277.266505 215.884553 
L 279.057939 217.020671 
" style="fill:none;opacity:0.5;stroke:#0000ff;stroke-linecap:round;stroke-width:2.75;"/>
   </g>
   <g id="[&quot;g_s&quot;:5,&quot;g_t&quot;:5,&quot;coords&quot;:[[158.0, -296.0],[165.0, -188.0]],&quot;certainty&quot;:5]">
    <path clip-path="url(#p9846508dfc)" d="M 188.890661 302.766865 
C 191.136688 302.766865 193.291026 302.508481 194.879207 302.048619 
C 196.467388 301.588756 197.359744 300.964962 197.359744 300.314618 
C 197.359744 299.664275 196.467388 299.04048 194.879207 298.580618 
C 193.291026 298.120756 191.136688 297.862372 188.890661 297.862372 
C 186.644634 297.862372 184.490296 298.120756 182.902115 298.580618 
C 181.313934 299.04048 180.421578 299.664275 180.421578 300.314618 
C 180.421578 300.964962 181.313934 301.588756 182.902115 302.048619 
C 184.490296 302.508481 186.644634 302.766865 188.890661 302.766865 
z
" style="fill:#0000ff;opacity:0.2;stroke:#0000ff;stroke-linejoin:miter;stroke-width:2;"/>
   </g>
   <g id="[&quot;g_s&quot;:5,&quot;g_t&quot;:5,&quot;coords&quot;:[[165.0, -188.0],[158.0, -296.0]],&quot;certainty&quot;:5]">
    <path clip-path="url(#p9846508dfc)" d="M 208.651855 214.48598 
C 210.897882 214.48598 213.05222 214.227596 214.640401 213.767734 
C 216.228582 213.307871 217.120938 212.684077 217.120938 212.033733 
C 217.120938 211.38339 216.228582 210.759595 214.640401 210.299733 
C 213.05222 209.839871 210.897882 209.581486 208.651855 209.581486 
C 206.405828 209.581486 204.25149 209.839871 202.663309 210.299733 
C 201.075128 210.759595 200.182772 211.38339 200.182772 212.033733 
C 200.182772 212.684077 201.075128 213.307871 202.663309 213.767734 
C 204.25149 214.227596 206.405828 214.48598 208.651855 214.48598 
z
" style="fill:#ff0000;opacity:0.2;stroke:#ff0000;stroke-linejoin:miter;stroke-width:2;"/>
   </g>
   <g id="patch_22">
    <path d="M 188.890661 300.314618 
Q 198.552647 257.150794 207.982944 215.022015 
" style="fill:none;opacity:0.5;stroke:#0000ff;stroke-linecap:round;stroke-width:1.5;"/>
    <path d="M 206.19151 216.158133 
L 207.982944 215.022015 
L 209.119062 216.813449 
" style="fill:none;opacity:0.5;stroke:#0000ff;stroke-linecap:round;stroke-width:1.5;"/>
   </g>
   <g id="[&quot;g_s&quot;:6,&quot;g_t&quot;:6,&quot;coords&quot;:[[121.0, -91.0],[139.0, -27.0]],&quot;certainty&quot;:7]">
    <path clip-path="url(#p9846508dfc)" d="M 84.438635 136.014082 
C 87.433338 136.014082 90.305789 135.66957 92.423363 135.05642 
C 94.540938 134.44327 95.730746 133.611544 95.730746 132.74442 
C 95.730746 131.877295 94.540938 131.045569 92.423363 130.432419 
C 90.305789 129.81927 87.433338 129.474757 84.438635 129.474757 
C 81.443932 129.474757 78.571482 129.81927 76.453907 130.432419 
C 74.336332 131.045569 73.146524 131.877295 73.146524 132.74442 
C 73.146524 133.611544 74.336332 134.44327 76.453907 135.05642 
C 78.571482 135.66957 81.443932 136.014082 84.438635 136.014082 
z
" style="fill:#0000ff;opacity:0.2;stroke:#0000ff;stroke-linejoin:miter;stroke-width:2;"/>
   </g>
   <g id="[&quot;g_s&quot;:6,&quot;g_t&quot;:6,&quot;coords&quot;:[[139.0, -27.0],[121.0, -91.0]],&quot;certainty&quot;:7]">
    <path clip-path="url(#p9846508dfc)" d="M 135.253134 83.699483 
C 138.247837 83.699483 141.120288 83.354971 143.237862 82.741822 
C 145.355437 82.128672 146.545245 81.296946 146.545245 80.429821 
C 146.545245 79.562696 145.355437 78.73097 143.237862 78.117821 
C 141.120288 77.504671 138.247837 77.160159 135.253134 77.160159 
C 132.258431 77.160159 129.385981 77.504671 127.268406 78.117821 
C 125.150831 78.73097 123.961023 79.562696 123.961023 80.429821 
C 123.961023 81.296946 125.150831 82.128672 127.268406 82.741822 
C 129.385981 83.354971 132.258431 83.699483 135.253134 83.699483 
z
" style="fill:#ff0000;opacity:0.2;stroke:#ff0000;stroke-linejoin:miter;stroke-width:2;"/>
   </g>
   <g id="patch_23">
    <path d="M 84.438635 132.74442 
Q 109.149604 107.303956 132.875224 82.87793 
" style="fill:none;opacity:0.5;stroke:#0000ff;stroke-linecap:round;stroke-width:2;"/>
    <path d="M 130.754128 82.908783 
L 132.875224 82.87793 
L 132.906077 84.999026 
" style="fill:none;opacity:0.5;stroke:#0000ff;stroke-linecap:round;stroke-width:2;"/>
   </g>
   <g id="[&quot;g_s&quot;:7,&quot;g_t&quot;:7,&quot;coords&quot;:[[113.0, -34.0],[134.0, 12.0]],&quot;certainty&quot;:12]">
    <path clip-path="url(#p9846508dfc)" d="M 61.854413 91.464932 
C 66.720805 91.464932 71.388538 90.905099 74.829597 89.908731 
C 78.270656 88.912363 80.204094 87.560808 80.204094 86.15173 
C 80.204094 84.742653 78.270656 83.391098 74.829597 82.39473 
C 71.388538 81.398361 66.720805 80.838529 61.854413 80.838529 
C 56.988021 80.838529 52.320289 81.398361 48.87923 82.39473 
C 45.438171 83.391098 43.504733 84.742653 43.504733 86.15173 
C 43.504733 87.560808 45.438171 88.912363 48.87923 89.908731 
C 52.320289 90.905099 56.988021 91.464932 61.854413 91.464932 
z
" style="fill:#0000ff;opacity:0.2;stroke:#0000ff;stroke-linejoin:miter;stroke-width:2;"/>
   </g>
   <g id="[&quot;g_s&quot;:7,&quot;g_t&quot;:7,&quot;coords&quot;:[[134.0, 12.0],[113.0, -34.0]],&quot;certainty&quot;:12]">
    <path clip-path="url(#p9846508dfc)" d="M 121.137996 53.863814 
C 126.004388 53.863814 130.67212 53.303982 134.113179 52.307613 
C 137.554238 51.311245 139.487676 49.95969 139.487676 48.550613 
C 139.487676 47.141535 137.554238 45.78998 134.113179 44.793612 
C 130.67212 43.797244 126.004388 43.237411 121.137996 43.237411 
C 116.271603 43.237411 111.603871 43.797244 108.162812 44.793612 
C 104.721753 45.78998 102.788315 47.141535 102.788315 48.550613 
C 102.788315 49.95969 104.721753 51.311245 108.162812 52.307613 
C 111.603871 53.303982 116.271603 53.863814 121.137996 53.863814 
z
" style="fill:#ff0000;opacity:0.2;stroke:#ff0000;stroke-linejoin:miter;stroke-width:2;"/>
   </g>
   <g id="patch_24">
    <path d="M 61.854413 86.15173 
Q 90.651312 67.887052 117.507547 50.853256 
" style="fill:none;opacity:0.5;stroke:#0000ff;stroke-linecap:round;stroke-width:3.25;"/>
    <path d="M 115.437434 50.389971 
L 117.507547 50.853256 
L 117.044262 52.923369 
" style="fill:none;opacity:0.5;stroke:#0000ff;stroke-linecap:round;stroke-width:3.25;"/>
   </g>
   <g id="[&quot;g_s&quot;:1,&quot;g_t&quot;:1,&quot;coords&quot;:[[177.0, 36.0],[177.0, 0.0]],&quot;certainty&quot;:9]">
    <path clip-path="url(#p9846508dfc)" d="M 242.528188 33.019716 
C 246.271566 33.019716 249.862129 32.589076 252.509098 31.822639 
C 255.156066 31.056201 256.643326 30.016544 256.643326 28.932638 
C 256.643326 27.848732 255.156066 26.809075 252.509098 26.042637 
C 249.862129 25.2762 246.271566 24.84556 242.528188 24.84556 
C 238.784809 24.84556 235.194246 25.2762 232.547277 26.042637 
C 229.900309 26.809075 228.413049 27.848732 228.413049 28.932638 
C 228.413049 30.016544 229.900309 31.056201 232.547277 31.822639 
C 235.194246 32.589076 238.784809 33.019716 242.528188 33.019716 
z
" style="fill:#0000ff;opacity:0.2;stroke:#0000ff;stroke-linejoin:miter;stroke-width:2;"/>
   </g>
   <g id="[&quot;g_s&quot;:1,&quot;g_t&quot;:1,&quot;coords&quot;:[[177.0, 0.0],[177.0, 36.0]],&quot;certainty&quot;:9]">
    <path clip-path="url(#p9846508dfc)" d="M 242.528188 62.446678 
C 246.271566 62.446678 249.862129 62.016037 252.509098 61.2496 
C 255.156066 60.483163 256.643326 59.443506 256.643326 58.3596 
C 256.643326 57.275694 255.156066 56.236036 252.509098 55.469599 
C 249.862129 54.703162 246.271566 54.272522 242.528188 54.272522 
C 238.784809 54.272522 235.194246 54.703162 232.547277 55.469599 
C 229.900309 56.236036 228.413049 57.275694 228.413049 58.3596 
C 228.413049 59.443506 229.900309 60.483163 232.547277 61.2496 
C 235.194246 62.016037 238.784809 62.446678 242.528188 62.446678 
z
" style="fill:#ff0000;opacity:0.2;stroke:#ff0000;stroke-linejoin:miter;stroke-width:2;"/>
   </g>
   <g id="patch_25">
    <path d="M 242.528188 28.932638 
Q 242.528188 42.645703 242.528188 54.591001 
" style="fill:none;opacity:0.5;stroke:#ff0000;stroke-linecap:round;stroke-width:2.5;"/>
    <path d="M 244.028188 53.091001 
L 242.528188 54.591001 
L 241.028188 53.091001 
" style="fill:none;opacity:0.5;stroke:#ff0000;stroke-linecap:round;stroke-width:2.5;"/>
   </g>
   <g id="[&quot;g_s&quot;:2,&quot;g_t&quot;:2,&quot;coords&quot;:[[220.0, 12.0],[241.0, -34.0]],&quot;certainty&quot;:10]">
    <path clip-path="url(#p9846508dfc)" d="M 363.918379 53.046398 
C 368.036096 53.046398 371.985716 52.572694 374.897381 51.729613 
C 377.809046 50.886532 379.445032 49.742909 379.445032 48.550613 
C 379.445032 47.358316 377.809046 46.214693 374.897381 45.371612 
C 371.985716 44.528531 368.036096 44.054827 363.918379 44.054827 
C 359.800663 44.054827 355.851043 44.528531 352.939378 45.371612 
C 350.027713 46.214693 348.391727 47.358316 348.391727 48.550613 
C 348.391727 49.742909 350.027713 50.886532 352.939378 51.729613 
C 355.851043 52.572694 359.800663 53.046398 363.918379 53.046398 
z
" style="fill:#0000ff;opacity:0.2;stroke:#0000ff;stroke-linejoin:miter;stroke-width:2;"/>
   </g>
   <g id="[&quot;g_s&quot;:2,&quot;g_t&quot;:2,&quot;coords&quot;:[[241.0, -34.0],[220.0, 12.0]],&quot;certainty&quot;:10]">
    <path clip-path="url(#p9846508dfc)" d="M 423.201962 90.647516 
C 427.319678 90.647516 431.269298 90.173812 434.180963 89.330731 
C 437.092628 88.48765 438.728614 87.344027 438.728614 86.15173 
C 438.728614 84.959434 437.092628 83.81581 434.180963 82.97273 
C 431.269298 82.129649 427.319678 81.655944 423.201962 81.655944 
C 419.084245 81.655944 415.134626 82.129649 412.22296 82.97273 
C 409.311295 83.81581 407.675309 84.959434 407.675309 86.15173 
C 407.675309 87.344027 409.311295 88.48765 412.22296 89.330731 
C 415.134626 90.173812 419.084245 90.647516 423.201962 90.647516 
z
" style="fill:#ff0000;opacity:0.2;stroke:#ff0000;stroke-linejoin:miter;stroke-width:2;"/>
   </g>
   <g id="patch_26">
    <path d="M 363.918379 48.550613 
Q 392.715278 66.815291 419.870076 84.038454 
" style="fill:none;opacity:0.5;stroke:#ff0000;stroke-linecap:round;stroke-width:2.75;"/>
    <path d="M 419.406792 81.968341 
L 419.870076 84.038454 
L 417.799963 84.501738 
" style="fill:none;opacity:0.5;stroke:#ff0000;stroke-linecap:round;stroke-width:2.75;"/>
   </g>
   <g id="[&quot;g_s&quot;:3,&quot;g_t&quot;:3,&quot;coords&quot;:[[215.0, -27.0],[233.0, -91.0]],&quot;certainty&quot;:6]">
    <path clip-path="url(#p9846508dfc)" d="M 349.803241 83.290776 
C 352.423606 83.290776 354.937 82.989327 356.789878 82.452821 
C 358.642756 81.916315 359.683838 81.188555 359.683838 80.429821 
C 359.683838 79.671087 358.642756 78.943327 356.789878 78.406821 
C 354.937 77.870315 352.423606 77.568866 349.803241 77.568866 
C 347.182876 77.568866 344.669482 77.870315 342.816604 78.406821 
C 340.963726 78.943327 339.922644 79.671087 339.922644 80.429821 
C 339.922644 81.188555 340.963726 81.916315 342.816604 82.452821 
C 344.669482 82.989327 347.182876 83.290776 349.803241 83.290776 
z
" style="fill:#0000ff;opacity:0.2;stroke:#0000ff;stroke-linejoin:miter;stroke-width:2;"/>
   </g>
   <g id="[&quot;g_s&quot;:3,&quot;g_t&quot;:3,&quot;coords&quot;:[[233.0, -91.0],[215.0, -27.0]],&quot;certainty&quot;:6]">
    <path clip-path="url(#p9846508dfc)" d="M 400.61774 135.605374 
C 403.238105 135.605374 405.751499 135.303926 407.604377 134.76742 
C 409.457255 134.230914 410.498337 133.503154 410.498337 132.74442 
C 410.498337 131.985686 409.457255 131.257925 407.604377 130.721419 
C 405.751499 130.184913 403.238105 129.883465 400.61774 129.883465 
C 397.997375 129.883465 395.483981 130.184913 393.631103 130.721419 
C 391.778225 131.257925 390.737143 131.985686 390.737143 132.74442 
C 390.737143 133.503154 391.778225 134.230914 393.631103 134.76742 
C 395.483981 135.303926 397.997375 135.605374 400.61774 135.605374 
z
" style="fill:#ff0000;opacity:0.2;stroke:#ff0000;stroke-linejoin:miter;stroke-width:2;"/>
   </g>
   <g id="patch_27">
    <path d="M 349.803241 80.429821 
Q 374.51421 105.870285 398.362998 130.423116 
" style="fill:none;opacity:0.5;stroke:#ff0000;stroke-linecap:round;stroke-width:1.75;"/>
    <path d="M 398.393851 128.30202 
L 398.362998 130.423116 
L 396.241902 130.392262 
" style="fill:none;opacity:0.5;stroke:#ff0000;stroke-linecap:round;stroke-width:1.75;"/>
   </g>
   <g id="[&quot;g_s&quot;:4,&quot;g_t&quot;:4,&quot;coords&quot;:[[189.0, -188.0],[196.0, -296.0]],&quot;certainty&quot;:9]">
    <path clip-path="url(#p9846508dfc)" d="M 276.40452 216.120811 
C 280.147899 216.120811 283.738462 215.690171 286.38543 214.923734 
C 289.032399 214.157297 290.519659 213.117639 290.519659 212.033733 
C 290.519659 210.949827 289.032399 209.91017 286.38543 209.143733 
C 283.738462 208.377295 280.147899 207.946655 276.40452 207.946655 
C 272.661142 207.946655 269.070578 208.377295 266.42361 209.143733 
C 263.776642 209.91017 262.289382 210.949827 262.289382 212.033733 
C 262.289382 213.117639 263.776642 214.157297 266.42361 214.923734 
C 269.070578 215.690171 272.661142 216.120811 276.40452 216.120811 
z
" style="fill:#0000ff;opacity:0.2;stroke:#0000ff;stroke-linejoin:miter;stroke-width:2;"/>
   </g>
   <g id="[&quot;g_s&quot;:4,&quot;g_t&quot;:4,&quot;coords&quot;:[[196.0, -296.0],[189.0, -188.0]],&quot;certainty&quot;:9]">
    <path clip-path="url(#p9846508dfc)" d="M 296.165714 304.401696 
C 299.909093 304.401696 303.499656 303.971056 306.146624 303.204619 
C 308.793593 302.438182 310.280853 301.398524 310.280853 300.314618 
C 310.280853 299.230713 308.793593 298.191055 306.146624 297.424618 
C 303.499656 296.658181 299.909093 296.22754 296.165714 296.22754 
C 292.422336 296.22754 288.831772 296.658181 286.184804 297.424618 
C 283.537836 298.191055 282.050576 299.230713 282.050576 300.314618 
C 282.050576 301.398524 283.537836 302.438182 286.184804 303.204619 
C 288.831772 303.971056 292.422336 304.401696 296.165714 304.401696 
z
" style="fill:#ff0000;opacity:0.2;stroke:#ff0000;stroke-linejoin:miter;stroke-width:2;"/>
   </g>
   <g id="patch_28">
    <path d="M 276.40452 212.033733 
Q 286.066507 255.197558 295.342344 296.636306 
" style="fill:none;opacity:0.5;stroke:#ff0000;stroke-linecap:round;stroke-width:2.5;"/>
    <path d="M 296.478462 294.844871 
L 295.342344 296.636306 
L 293.55091 295.500188 
" style="fill:none;opacity:0.5;stroke:#ff0000;stroke-linecap:round;stroke-width:2.5;"/>
   </g>
   <g id="[&quot;g_s&quot;:5,&quot;g_t&quot;:5,&quot;coords&quot;:[[165.0, -188.0],[158.0, -296.0]],&quot;certainty&quot;:6]">
    <path clip-path="url(#p9846508dfc)" d="M 208.651855 214.894688 
C 211.27222 214.894688 213.785614 214.59324 215.638492 214.056734 
C 217.49137 213.520228 218.532452 212.792467 218.532452 212.033733 
C 218.532452 211.274999 217.49137 210.547239 215.638492 210.010733 
C 213.785614 209.474227 211.27222 209.172779 208.651855 209.172779 
C 206.03149 209.172779 203.518096 209.474227 201.665218 210.010733 
C 199.81234 210.547239 198.771258 211.274999 198.771258 212.033733 
C 198.771258 212.792467 199.81234 213.520228 201.665218 214.056734 
C 203.518096 214.59324 206.03149 214.894688 208.651855 214.894688 
z
" style="fill:#0000ff;opacity:0.2;stroke:#0000ff;stroke-linejoin:miter;stroke-width:2;"/>
   </g>
   <g id="[&quot;g_s&quot;:5,&quot;g_t&quot;:5,&quot;coords&quot;:[[158.0, -296.0],[165.0, -188.0]],&quot;certainty&quot;:6]">
    <path clip-path="url(#p9846508dfc)" d="M 188.890661 303.175573 
C 191.511026 303.175573 194.02442 302.874125 195.877298 302.337619 
C 197.730176 301.801113 198.771258 301.073352 198.771258 300.314618 
C 198.771258 299.555884 197.730176 298.828124 195.877298 298.291618 
C 194.02442 297.755112 191.511026 297.453664 188.890661 297.453664 
C 186.270296 297.453664 183.756901 297.755112 181.904024 298.291618 
C 180.051146 298.828124 179.010064 299.555884 179.010064 300.314618 
C 179.010064 301.073352 180.051146 301.801113 181.904024 302.337619 
C 183.756901 302.874125 186.270296 303.175573 188.890661 303.175573 
z
" style="fill:#ff0000;opacity:0.2;stroke:#ff0000;stroke-linejoin:miter;stroke-width:2;"/>
   </g>
   <g id="patch_29">
    <path d="M 208.651855 212.033733 
Q 198.989868 255.197558 189.598186 297.153829 
" style="fill:none;opacity:0.5;stroke:#ff0000;stroke-linecap:round;stroke-width:1.75;"/>
    <path d="M 191.389621 296.017711 
L 189.598186 297.153829 
L 188.462069 295.362394 
" style="fill:none;opacity:0.5;stroke:#ff0000;stroke-linecap:round;stroke-width:1.75;"/>
   </g>
   <g id="[&quot;g_s&quot;:6,&quot;g_t&quot;:6,&quot;coords&quot;:[[139.0, -27.0],[121.0, -91.0]],&quot;certainty&quot;:7]">
    <path clip-path="url(#p9846508dfc)" d="M 135.253134 83.699483 
C 138.247837 83.699483 141.120288 83.354971 143.237862 82.741822 
C 145.355437 82.128672 146.545245 81.296946 146.545245 80.429821 
C 146.545245 79.562696 145.355437 78.73097 143.237862 78.117821 
C 141.120288 77.504671 138.247837 77.160159 135.253134 77.160159 
C 132.258431 77.160159 129.385981 77.504671 127.268406 78.117821 
C 125.150831 78.73097 123.961023 79.562696 123.961023 80.429821 
C 123.961023 81.296946 125.150831 82.128672 127.268406 82.741822 
C 129.385981 83.354971 132.258431 83.699483 135.253134 83.699483 
z
" style="fill:#0000ff;opacity:0.2;stroke:#0000ff;stroke-linejoin:miter;stroke-width:2;"/>
   </g>
   <g id="[&quot;g_s&quot;:6,&quot;g_t&quot;:6,&quot;coords&quot;:[[121.0, -91.0],[139.0, -27.0]],&quot;certainty&quot;:7]">
    <path clip-path="url(#p9846508dfc)" d="M 84.438635 136.014082 
C 87.433338 136.014082 90.305789 135.66957 92.423363 135.05642 
C 94.540938 134.44327 95.730746 133.611544 95.730746 132.74442 
C 95.730746 131.877295 94.540938 131.045569 92.423363 130.432419 
C 90.305789 129.81927 87.433338 129.474757 84.438635 129.474757 
C 81.443932 129.474757 78.571482 129.81927 76.453907 130.432419 
C 74.336332 131.045569 73.146524 131.877295 73.146524 132.74442 
C 73.146524 133.611544 74.336332 134.44327 76.453907 135.05642 
C 78.571482 135.66957 81.443932 136.014082 84.438635 136.014082 
z
" style="fill:#ff0000;opacity:0.2;stroke:#ff0000;stroke-linejoin:miter;stroke-width:2;"/>
   </g>
   <g id="patch_30">
    <path d="M 135.253134 80.429821 
Q 110.542165 105.870285 86.816546 130.296311 
" style="fill:none;opacity:0.5;stroke:#ff0000;stroke-linecap:round;stroke-width:2;"/>
    <path d="M 88.937641 130.265458 
L 86.816546 130.296311 
L 86.785692 128.175215 
" style="fill:none;opacity:0.5;stroke:#ff0000;stroke-linecap:round;stroke-width:2;"/>
   </g>
   <g id="[&quot;g_s&quot;:7,&quot;g_t&quot;:7,&quot;coords&quot;:[[134.0, 12.0],[113.0, -34.0]],&quot;certainty&quot;:7]">
    <path clip-path="url(#p9846508dfc)" d="M 121.137996 51.820275 
C 124.132698 51.820275 127.005149 51.475763 129.122724 50.862613 
C 131.240298 50.249463 132.430106 49.417737 132.430106 48.550613 
C 132.430106 47.683488 131.240298 46.851762 129.122724 46.238612 
C 127.005149 45.625462 124.132698 45.28095 121.137996 45.28095 
C 118.143293 45.28095 115.270842 45.625462 113.153267 46.238612 
C 111.035693 46.851762 109.845885 47.683488 109.845885 48.550613 
C 109.845885 49.417737 111.035693 50.249463 113.153267 50.862613 
C 115.270842 51.475763 118.143293 51.820275 121.137996 51.820275 
z
" style="fill:#0000ff;opacity:0.2;stroke:#0000ff;stroke-linejoin:miter;stroke-width:2;"/>
   </g>
   <g id="[&quot;g_s&quot;:7,&quot;g_t&quot;:7,&quot;coords&quot;:[[113.0, -34.0],[134.0, 12.0]],&quot;certainty&quot;:7]">
    <path clip-path="url(#p9846508dfc)" d="M 61.854413 89.421393 
C 64.849116 89.421393 67.721567 89.07688 69.839142 88.463731 
C 71.956716 87.850581 73.146524 87.018855 73.146524 86.15173 
C 73.146524 85.284606 71.956716 84.452879 69.839142 83.83973 
C 67.721567 83.22658 64.849116 82.882068 61.854413 82.882068 
C 58.859711 82.882068 55.98726 83.22658 53.869685 83.83973 
C 51.752111 84.452879 50.562303 85.284606 50.562303 86.15173 
C 50.562303 87.018855 51.752111 87.850581 53.869685 88.463731 
C 55.98726 89.07688 58.859711 89.421393 61.854413 89.421393 
z
" style="fill:#ff0000;opacity:0.2;stroke:#ff0000;stroke-linejoin:miter;stroke-width:2;"/>
   </g>
   <g id="patch_31">
    <path d="M 121.137996 48.550613 
Q 92.341097 66.815291 64.738453 84.322504 
" style="fill:none;opacity:0.5;stroke:#ff0000;stroke-linecap:round;stroke-width:2;"/>
    <path d="M 66.808566 84.785788 
L 64.738453 84.322504 
L 65.201737 82.252391 
" style="fill:none;opacity:0.5;stroke:#ff0000;stroke-linecap:round;stroke-width:2;"/>
   </g>
   <g id="patch_32">
    <path clip-path="url(#p9846508dfc)" d="M 242.528188 47.733197 
C 246.271566 47.733197 249.862129 47.302557 252.509098 46.536119 
C 255.156066 45.769682 256.643326 44.730025 256.643326 43.646119 
C 256.643326 42.562213 255.156066 41.522555 252.509098 40.756118 
C 249.862129 39.989681 246.271566 39.559041 242.528188 39.559041 
C 238.784809 39.559041 235.194246 39.989681 232.547277 40.756118 
C 229.900309 41.522555 228.413049 42.562213 228.413049 43.646119 
C 228.413049 44.730025 229.900309 45.769682 232.547277 46.536119 
C 235.194246 47.302557 238.784809 47.733197 242.528188 47.733197 
z
" style="fill:#008000;opacity:0.2;stroke:#008000;stroke-linejoin:miter;stroke-width:2;"/>
   </g>
   <g id="patch_33">
    <path clip-path="url(#p9846508dfc)" d="M 393.560171 71.438249 
C 397.303549 71.438249 400.894112 71.007609 403.541081 70.241172 
C 406.188049 69.474735 407.675309 68.435077 407.675309 67.351171 
C 407.675309 66.267266 406.188049 65.227608 403.541081 64.461171 
C 400.894112 63.694734 397.303549 63.264093 393.560171 63.264093 
C 389.816792 63.264093 386.226229 63.694734 383.57926 64.461171 
C 380.932292 65.227608 379.445032 66.267266 379.445032 67.351171 
C 379.445032 68.435077 380.932292 69.474735 383.57926 70.241172 
C 386.226229 71.007609 389.816792 71.438249 393.560171 71.438249 
z
" style="fill:#008000;opacity:0.2;stroke:#008000;stroke-linejoin:miter;stroke-width:2;"/>
   </g>
   <g id="patch_34">
    <path clip-path="url(#p9846508dfc)" d="M 375.21049 110.674198 
C 378.953869 110.674198 382.544432 110.243558 385.191401 109.477121 
C 387.838369 108.710684 389.325629 107.671026 389.325629 106.58712 
C 389.325629 105.503215 387.838369 104.463557 385.191401 103.69712 
C 382.544432 102.930683 378.953869 102.500042 375.21049 102.500042 
C 371.467112 102.500042 367.876548 102.930683 365.22958 103.69712 
C 362.582612 104.463557 361.095352 105.503215 361.095352 106.58712 
C 361.095352 107.671026 362.582612 108.710684 365.22958 109.477121 
C 367.876548 110.243558 371.467112 110.674198 375.21049 110.674198 
z
" style="fill:#008000;opacity:0.2;stroke:#008000;stroke-linejoin:miter;stroke-width:2;"/>
   </g>
   <g id="patch_35">
    <path clip-path="url(#p9846508dfc)" d="M 286.285117 260.261254 
C 290.028496 260.261254 293.619059 259.830613 296.266027 259.064176 
C 298.912996 258.297739 300.400256 257.258082 300.400256 256.174176 
C 300.400256 255.09027 298.912996 254.050612 296.266027 253.284175 
C 293.619059 252.517738 290.028496 252.087098 286.285117 252.087098 
C 282.541739 252.087098 278.951175 252.517738 276.304207 253.284175 
C 273.657239 254.050612 272.169979 255.09027 272.169979 256.174176 
C 272.169979 257.258082 273.657239 258.297739 276.304207 259.064176 
C 278.951175 259.830613 282.541739 260.261254 286.285117 260.261254 
z
" style="fill:#008000;opacity:0.2;stroke:#008000;stroke-linejoin:miter;stroke-width:2;"/>
   </g>
   <g id="patch_36">
    <path clip-path="url(#p9846508dfc)" d="M 198.771258 260.261254 
C 202.514636 260.261254 206.1052 259.830613 208.752168 259.064176 
C 211.399136 258.297739 212.886396 257.258082 212.886396 256.174176 
C 212.886396 255.09027 211.399136 254.050612 208.752168 253.284175 
C 206.1052 252.517738 202.514636 252.087098 198.771258 252.087098 
C 195.027879 252.087098 191.437316 252.517738 188.790348 253.284175 
C 186.143379 254.050612 184.656119 255.09027 184.656119 256.174176 
C 184.656119 257.258082 186.143379 258.297739 188.790348 259.064176 
C 191.437316 259.830613 195.027879 260.261254 198.771258 260.261254 
z
" style="fill:#008000;opacity:0.2;stroke:#008000;stroke-linejoin:miter;stroke-width:2;"/>
   </g>
   <g id="patch_37">
    <path clip-path="url(#p9846508dfc)" d="M 109.845885 110.674198 
C 113.589263 110.674198 117.179827 110.243558 119.826795 109.477121 
C 122.473763 108.710684 123.961023 107.671026 123.961023 106.58712 
C 123.961023 105.503215 122.473763 104.463557 119.826795 103.69712 
C 117.179827 102.930683 113.589263 102.500042 109.845885 102.500042 
C 106.102506 102.500042 102.511943 102.930683 99.864974 103.69712 
C 97.218006 104.463557 95.730746 105.503215 95.730746 106.58712 
C 95.730746 107.671026 97.218006 108.710684 99.864974 109.477121 
C 102.511943 110.243558 106.102506 110.674198 109.845885 110.674198 
z
" style="fill:#008000;opacity:0.2;stroke:#008000;stroke-linejoin:miter;stroke-width:2;"/>
   </g>
   <g id="patch_38">
    <path clip-path="url(#p9846508dfc)" d="M 91.496204 71.438249 
C 95.239583 71.438249 98.830146 71.007609 101.477115 70.241172 
C 104.124083 69.474735 105.611343 68.435077 105.611343 67.351171 
C 105.611343 66.267266 104.124083 65.227608 101.477115 64.461171 
C 98.830146 63.694734 95.239583 63.264093 91.496204 63.264093 
C 87.752826 63.264093 84.162263 63.694734 81.515294 64.461171 
C 78.868326 65.227608 77.381066 66.267266 77.381066 67.351171 
C 77.381066 68.435077 78.868326 69.474735 81.515294 70.241172 
C 84.162263 71.007609 87.752826 71.438249 91.496204 71.438249 
z
" style="fill:#008000;opacity:0.2;stroke:#008000;stroke-linejoin:miter;stroke-width:2;"/>
   </g>
   <g id="patch_39">
    <path clip-path="url(#p9846508dfc)" d="M 242.528188 74.707912 
C 257.501702 74.707912 271.863955 72.985351 282.451828 69.919602 
C 293.039702 66.853854 298.988742 62.695223 298.988742 58.3596 
C 298.988742 54.023977 293.039702 49.865346 282.451828 46.799597 
C 271.863955 43.733849 257.501702 42.011288 242.528188 42.011288 
C 227.554673 42.011288 213.19242 43.733849 202.604547 46.799597 
C 192.016673 49.865346 186.067633 54.023977 186.067633 58.3596 
C 186.067633 62.695223 192.016673 66.853854 202.604547 69.919602 
C 213.19242 72.985351 227.554673 74.707912 242.528188 74.707912 
z
" style="fill:none;opacity:0.2;stroke:#ff0000;stroke-linejoin:miter;stroke-width:2;"/>
   </g>
   <g id="patch_40">
    <path clip-path="url(#p9846508dfc)" d="M 242.528188 45.28095 
C 257.501702 45.28095 271.863955 43.558389 282.451828 40.49264 
C 293.039702 37.426892 298.988742 33.268261 298.988742 28.932638 
C 298.988742 24.597015 293.039702 20.438384 282.451828 17.372636 
C 271.863955 14.306887 257.501702 12.584326 242.528188 12.584326 
C 227.554673 12.584326 213.19242 14.306887 202.604547 17.372636 
C 192.016673 20.438384 186.067633 24.597015 186.067633 28.932638 
C 186.067633 33.268261 192.016673 37.426892 202.604547 40.49264 
C 213.19242 43.558389 227.554673 45.28095 242.528188 45.28095 
z
" style="fill:none;opacity:0.2;stroke:#0000ff;stroke-linejoin:miter;stroke-width:2;"/>
   </g>
   <g id="patch_41">
    <path clip-path="url(#p9846508dfc)" d="M 242.528188 66.533756 
C 250.014945 66.533756 257.196071 65.672475 262.490008 64.139601 
C 267.783945 62.606727 270.758465 60.527411 270.758465 58.3596 
C 270.758465 56.191788 267.783945 54.112473 262.490008 52.579599 
C 257.196071 51.046724 250.014945 50.185444 242.528188 50.185444 
C 235.04143 50.185444 227.860304 51.046724 222.566367 52.579599 
C 217.27243 54.112473 214.29791 56.191788 214.29791 58.3596 
C 214.29791 60.527411 217.27243 62.606727 222.566367 64.139601 
C 227.860304 65.672475 235.04143 66.533756 242.528188 66.533756 
z
" style="fill:none;opacity:0.2;stroke:#008000;stroke-linejoin:miter;stroke-width:2;"/>
   </g>
   <g id="patch_42">
    <path clip-path="url(#p9846508dfc)" d="M 242.528188 37.106794 
C 250.014945 37.106794 257.196071 36.245513 262.490008 34.712639 
C 267.783945 33.179765 270.758465 31.10045 270.758465 28.932638 
C 270.758465 26.764827 267.783945 24.685511 262.490008 23.152637 
C 257.196071 21.619763 250.014945 20.758482 242.528188 20.758482 
C 235.04143 20.758482 227.860304 21.619763 222.566367 23.152637 
C 217.27243 24.685511 214.29791 26.764827 214.29791 28.932638 
C 214.29791 31.10045 217.27243 33.179765 222.566367 34.712639 
C 227.860304 36.245513 235.04143 37.106794 242.528188 37.106794 
z
" style="fill:none;opacity:0.2;stroke:#008000;stroke-linejoin:miter;stroke-width:2;"/>
   </g>
   <g id="patch_43">
    <path d="M 242.528188 43.646119 
Q 318.044179 55.498645 393.560171 67.351171 
" style="fill:none;opacity:0.5;stroke:#008000;stroke-linecap:round;stroke-width:2;"/>
   </g>
   <g id="patch_44">
    <path d="M 242.528188 56.945386 
Q 242.528188 44.646535 242.528188 32.347684 
" style="fill:none;opacity:0.5;stroke:#800080;stroke-linecap:round;stroke-width:2;"/>
    <path d="M 244.028188 55.445386 
L 242.528188 56.945386 
L 241.028188 55.445386 
" style="fill:none;opacity:0.5;stroke:#800080;stroke-linecap:round;stroke-width:2;"/>
    <path d="M 241.028188 33.847684 
L 242.528188 32.347684 
L 244.028188 33.847684 
" style="fill:none;opacity:0.5;stroke:#800080;stroke-linecap:round;stroke-width:2;"/>
   </g>
   <g id="patch_45">
    <path d="M 393.560171 67.351171 
Q 384.38533 86.969146 375.21049 106.58712 
" style="fill:none;opacity:0.5;stroke:#008000;stroke-linecap:round;stroke-width:2;"/>
   </g>
   <g id="patch_46">
    <path d="M 422.007707 85.394264 
Q 394.405063 67.887052 366.802419 50.379839 
" style="fill:none;opacity:0.5;stroke:#800080;stroke-linecap:round;stroke-width:2;"/>
    <path d="M 421.544423 83.324151 
L 422.007707 85.394264 
L 419.937594 85.857548 
" style="fill:none;opacity:0.5;stroke:#800080;stroke-linecap:round;stroke-width:2;"/>
    <path d="M 367.265703 52.449952 
L 366.802419 50.379839 
L 368.872532 49.916555 
" style="fill:none;opacity:0.5;stroke:#800080;stroke-linecap:round;stroke-width:2;"/>
   </g>
   <g id="patch_47">
    <path d="M 375.21049 106.58712 
Q 330.747804 181.380648 286.285117 256.174176 
" style="fill:none;opacity:0.5;stroke:#008000;stroke-linecap:round;stroke-width:2;"/>
   </g>
   <g id="patch_48">
    <path d="M 399.63239 131.729981 
Q 375.906771 107.303956 352.181151 82.87793 
" style="fill:none;opacity:0.5;stroke:#800080;stroke-linecap:round;stroke-width:2;"/>
    <path d="M 399.663243 129.608885 
L 399.63239 131.729981 
L 397.511294 131.699128 
" style="fill:none;opacity:0.5;stroke:#800080;stroke-linecap:round;stroke-width:2;"/>
    <path d="M 352.150298 84.999026 
L 352.181151 82.87793 
L 354.302247 82.908783 
" style="fill:none;opacity:0.5;stroke:#800080;stroke-linecap:round;stroke-width:2;"/>
   </g>
   <g id="patch_49">
    <path d="M 286.285117 256.174176 
Q 242.528188 256.174176 198.771258 256.174176 
" style="fill:none;opacity:0.5;stroke:#008000;stroke-linecap:round;stroke-width:2;"/>
   </g>
   <g id="patch_50">
    <path d="M 295.856795 298.934557 
Q 286.503728 257.150794 277.150661 215.367031 
" style="fill:none;opacity:0.5;stroke:#800080;stroke-linecap:round;stroke-width:2;"/>
    <path d="M 296.992913 297.143123 
L 295.856795 298.934557 
L 294.065361 297.798439 
" style="fill:none;opacity:0.5;stroke:#800080;stroke-linecap:round;stroke-width:2;"/>
    <path d="M 276.014543 217.158465 
L 277.150661 215.367031 
L 278.942095 216.503148 
" style="fill:none;opacity:0.5;stroke:#800080;stroke-linecap:round;stroke-width:2;"/>
   </g>
   <g id="patch_51">
    <path d="M 198.771258 256.174176 
Q 154.308571 181.380648 109.845885 106.58712 
" style="fill:none;opacity:0.5;stroke:#008000;stroke-linecap:round;stroke-width:2;"/>
   </g>
   <g id="patch_52">
    <path d="M 189.19958 298.934557 
Q 198.552647 257.150794 207.905714 215.367031 
" style="fill:none;opacity:0.5;stroke:#800080;stroke-linecap:round;stroke-width:2;"/>
    <path d="M 190.991014 297.798439 
L 189.19958 298.934557 
L 188.063462 297.143123 
" style="fill:none;opacity:0.5;stroke:#800080;stroke-linecap:round;stroke-width:2;"/>
    <path d="M 206.11428 216.503148 
L 207.905714 215.367031 
L 209.041832 217.158465 
" style="fill:none;opacity:0.5;stroke:#800080;stroke-linecap:round;stroke-width:2;"/>
   </g>
   <g id="patch_53">
    <path d="M 109.845885 106.58712 
Q 100.671045 86.969146 91.496204 67.351171 
" style="fill:none;opacity:0.5;stroke:#008000;stroke-linecap:round;stroke-width:2;"/>
   </g>
   <g id="patch_54">
    <path d="M 85.423985 131.729981 
Q 109.149604 107.303956 132.875224 82.87793 
" style="fill:none;opacity:0.5;stroke:#800080;stroke-linecap:round;stroke-width:2;"/>
    <path d="M 87.545081 131.699128 
L 85.423985 131.729981 
L 85.393132 129.608885 
" style="fill:none;opacity:0.5;stroke:#800080;stroke-linecap:round;stroke-width:2;"/>
    <path d="M 130.754128 82.908783 
L 132.875224 82.87793 
L 132.906077 84.999026 
" style="fill:none;opacity:0.5;stroke:#800080;stroke-linecap:round;stroke-width:2;"/>
   </g>
   <g id="patch_55">
    <path d="M 91.496204 67.351171 
Q 167.012196 55.498645 242.528188 43.646119 
" style="fill:none;opacity:0.5;stroke:#008000;stroke-linecap:round;stroke-width:2;"/>
   </g>
   <g id="patch_56">
    <path d="M 63.048668 85.394264 
Q 90.651312 67.887052 118.253956 50.379839 
" style="fill:none;opacity:0.5;stroke:#800080;stroke-linecap:round;stroke-width:2;"/>
    <path d="M 65.118781 85.857548 
L 63.048668 85.394264 
L 63.511952 83.324151 
" style="fill:none;opacity:0.5;stroke:#800080;stroke-linecap:round;stroke-width:2;"/>
    <path d="M 116.183843 49.916555 
L 118.253956 50.379839 
L 117.790672 52.449952 
" style="fill:none;opacity:0.5;stroke:#800080;stroke-linecap:round;stroke-width:2;"/>
   </g>
   <g id="line2d_1">
    <path clip-path="url(#p9846508dfc)" d="M 242.528188 58.3596 
L 423.201962 86.15173 
L 400.61774 132.74442 
L 296.165714 300.314618 
L 188.890661 300.314618 
L 84.438635 132.74442 
L 61.854413 86.15173 
" style="fill:none;stroke:#ff0000;stroke-linecap:square;stroke-width:0.2;"/>
   </g>
   <g id="line2d_2">
    <path clip-path="url(#p9846508dfc)" d="M 242.528188 28.932638 
L 363.918379 48.550613 
L 349.803241 80.429821 
L 276.40452 212.033733 
L 208.651855 212.033733 
L 135.253134 80.429821 
L 121.137996 48.550613 
" style="fill:none;stroke:#0000ff;stroke-linecap:square;stroke-width:0.2;"/>
   </g>
  </g>
 </g>
 <defs>
  <clipPath id="p9846508dfc">
   <rect height="307.51175" width="409.903625" x="37.576375" y="13.32"/>
  </clipPath>
 </defs>
</svg>
