<?xml version="1.0" encoding="utf-8" standalone="no"?>
<!DOCTYPE svg PUBLIC "-//W3C//DTD SVG 1.1//EN"
  "http://www.w3.org/Graphics/SVG/1.1/DTD/svg11.dtd">
<!-- Created with matplotlib (http://matplotlib.org/) -->
<svg height="345.6pt" version="1.1" viewBox="0 0 460.8 345.6" width="460.8pt" xmlns="http://www.w3.org/2000/svg" xmlns:xlink="http://www.w3.org/1999/xlink">
 <defs>
  <style type="text/css">
*{stroke-linecap:butt;stroke-linejoin:round;}
  </style>
 </defs>
 <g id="figure_1">
  <g id="patch_1">
   <path d="M 0 345.6 
L 460.8 345.6 
L 460.8 0 
L 0 0 
z
" style="fill:#ffffff;"/>
  </g>
  <g id="axes_1">
   <g id="patch_2">
    <path clip-path="url(#p23c2e9c118)" d="M 174.076698 30.101378 
C 174.465009 30.101378 174.837468 30.016978 175.112046 29.866765 
C 175.386623 29.716552 175.540901 29.512791 175.540901 29.300358 
C 175.540901 29.087925 175.386623 28.884164 175.112046 28.733951 
C 174.837468 28.583738 174.465009 28.499337 174.076698 28.499337 
C 173.688387 28.499337 173.315928 28.583738 173.04135 28.733951 
C 172.766773 28.884164 172.612495 29.087925 172.612495 29.300358 
C 172.612495 29.512791 172.766773 29.716552 173.04135 29.866765 
C 173.315928 30.016978 173.688387 30.101378 174.076698 30.101378 
z
" style="fill:#ff0000;opacity:0.2;stroke:#ff0000;stroke-linejoin:miter;stroke-width:2;"/>
   </g>
   <g id="patch_3">
    <path clip-path="url(#p23c2e9c118)" d="M 314.640184 30.101378 
C 315.028496 30.101378 315.400955 30.016978 315.675532 29.866765 
C 315.95011 29.716552 316.104387 29.512791 316.104387 29.300358 
C 316.104387 29.087925 315.95011 28.884164 315.675532 28.733951 
C 315.400955 28.583738 315.028496 28.499337 314.640184 28.499337 
C 314.251873 28.499337 313.879414 28.583738 313.604837 28.733951 
C 313.330259 28.884164 313.175981 29.087925 313.175981 29.300358 
C 313.175981 29.512791 313.330259 29.716552 313.604837 29.866765 
C 313.879414 30.016978 314.251873 30.101378 314.640184 30.101378 
z
" style="fill:#ff0000;opacity:0.2;stroke:#ff0000;stroke-linejoin:miter;stroke-width:2;"/>
   </g>
   <g id="patch_4">
    <path clip-path="url(#p23c2e9c118)" d="M 420.794901 28.899848 
C 421.183212 28.899848 421.555671 28.815447 421.830248 28.665234 
C 422.104826 28.515021 422.259104 28.31126 422.259104 28.098827 
C 422.259104 27.886394 422.104826 27.682633 421.830248 27.53242 
C 421.555671 27.382207 421.183212 27.297807 420.794901 27.297807 
C 420.406589 27.297807 420.03413 27.382207 419.759553 27.53242 
C 419.484975 27.682633 419.330698 27.886394 419.330698 28.098827 
C 419.330698 28.31126 419.484975 28.515021 419.759553 28.665234 
C 420.03413 28.815447 420.406589 28.899848 420.794901 28.899848 
z
" style="fill:#ff0000;opacity:0.2;stroke:#ff0000;stroke-linejoin:miter;stroke-width:2;"/>
   </g>
   <g id="patch_5">
    <path clip-path="url(#p23c2e9c118)" d="M 427.383814 35.308011 
C 427.772125 35.308011 428.144584 35.223611 428.419162 35.073398 
C 428.693739 34.923185 428.848017 34.719424 428.848017 34.506991 
C 428.848017 34.294558 428.693739 34.090797 428.419162 33.940584 
C 428.144584 33.790371 427.772125 33.70597 427.383814 33.70597 
C 426.995503 33.70597 426.623044 33.790371 426.348466 33.940584 
C 426.073889 34.090797 425.919611 34.294558 425.919611 34.506991 
C 425.919611 34.719424 426.073889 34.923185 426.348466 35.073398 
C 426.623044 35.223611 426.995503 35.308011 427.383814 35.308011 
z
" style="fill:#ff0000;opacity:0.2;stroke:#ff0000;stroke-linejoin:miter;stroke-width:2;"/>
   </g>
   <g id="patch_6">
    <path clip-path="url(#p23c2e9c118)" d="M 354.905766 101.392198 
C 355.294078 101.392198 355.666537 101.307798 355.941114 101.157585 
C 356.215692 101.007372 356.369969 100.803611 356.369969 100.591178 
C 356.369969 100.378745 356.215692 100.174984 355.941114 100.024771 
C 355.666537 99.874558 355.294078 99.790157 354.905766 99.790157 
C 354.517455 99.790157 354.144996 99.874558 353.870419 100.024771 
C 353.595841 100.174984 353.441563 100.378745 353.441563 100.591178 
C 353.441563 100.803611 353.595841 101.007372 353.870419 101.157585 
C 354.144996 101.307798 354.517455 101.392198 354.905766 101.392198 
z
" style="fill:#ff0000;opacity:0.2;stroke:#ff0000;stroke-linejoin:miter;stroke-width:2;"/>
   </g>
   <g id="patch_7">
    <path clip-path="url(#p23c2e9c118)" d="M 144.060537 305.652413 
C 144.448848 305.652413 144.821307 305.568012 145.095885 305.417799 
C 145.370462 305.267586 145.52474 305.063825 145.52474 304.851392 
C 145.52474 304.638959 145.370462 304.435198 145.095885 304.284985 
C 144.821307 304.134772 144.448848 304.050372 144.060537 304.050372 
C 143.672226 304.050372 143.299767 304.134772 143.025189 304.284985 
C 142.750612 304.435198 142.596334 304.638959 142.596334 304.851392 
C 142.596334 305.063825 142.750612 305.267586 143.025189 305.417799 
C 143.299767 305.568012 143.672226 305.652413 144.060537 305.652413 
z
" style="fill:#ff0000;opacity:0.2;stroke:#ff0000;stroke-linejoin:miter;stroke-width:2;"/>
   </g>
   <g id="patch_8">
    <path clip-path="url(#p23c2e9c118)" d="M 108.919665 293.236596 
C 109.307977 293.236596 109.680436 293.152195 109.955013 293.001982 
C 110.229591 292.851769 110.383868 292.648008 110.383868 292.435575 
C 110.383868 292.223142 110.229591 292.019381 109.955013 291.869168 
C 109.680436 291.718955 109.307977 291.634555 108.919665 291.634555 
C 108.531354 291.634555 108.158895 291.718955 107.884317 291.869168 
C 107.60974 292.019381 107.455462 292.223142 107.455462 292.435575 
C 107.455462 292.648008 107.60974 292.851769 107.884317 293.001982 
C 108.158895 293.152195 108.531354 293.236596 108.919665 293.236596 
z
" style="fill:#ff0000;opacity:0.2;stroke:#ff0000;stroke-linejoin:miter;stroke-width:2;"/>
   </g>
   <g id="patch_9">
    <path clip-path="url(#p23c2e9c118)" d="M 301.462358 110.203423 
C 301.850669 110.203423 302.223128 110.119023 302.497705 109.96881 
C 302.772283 109.818597 302.926561 109.614836 302.926561 109.402403 
C 302.926561 109.18997 302.772283 108.986209 302.497705 108.835996 
C 302.223128 108.685783 301.850669 108.601382 301.462358 108.601382 
C 301.074046 108.601382 300.701587 108.685783 300.42701 108.835996 
C 300.152432 108.986209 299.998155 109.18997 299.998155 109.402403 
C 299.998155 109.614836 300.152432 109.818597 300.42701 109.96881 
C 300.701587 110.119023 301.074046 110.203423 301.462358 110.203423 
z
" style="fill:#ff0000;opacity:0.2;stroke:#ff0000;stroke-linejoin:miter;stroke-width:2;"/>
   </g>
   <g id="patch_10">
    <path clip-path="url(#p23c2e9c118)" d="M 325.621707 78.563115 
C 326.010018 78.563115 326.382477 78.478715 326.657055 78.328502 
C 326.931632 78.178289 327.08591 77.974528 327.08591 77.762095 
C 327.08591 77.549662 326.931632 77.345901 326.657055 77.195688 
C 326.382477 77.045475 326.010018 76.961075 325.621707 76.961075 
C 325.233396 76.961075 324.860936 77.045475 324.586359 77.195688 
C 324.311781 77.345901 324.157504 77.549662 324.157504 77.762095 
C 324.157504 77.974528 324.311781 78.178289 324.586359 78.328502 
C 324.860936 78.478715 325.233396 78.563115 325.621707 78.563115 
z
" style="fill:#ff0000;opacity:0.2;stroke:#ff0000;stroke-linejoin:miter;stroke-width:2;"/>
   </g>
   <g id="patch_11">
    <path clip-path="url(#p23c2e9c118)" d="M 304.390764 72.154952 
C 304.779075 72.154952 305.151534 72.070551 305.426111 71.920338 
C 305.700689 71.770126 305.854967 71.566365 305.854967 71.353931 
C 305.854967 71.141498 305.700689 70.937737 305.426111 70.787524 
C 305.151534 70.637312 304.779075 70.552911 304.390764 70.552911 
C 304.002452 70.552911 303.629993 70.637312 303.355416 70.787524 
C 303.080838 70.937737 302.926561 71.141498 302.926561 71.353931 
C 302.926561 71.566365 303.080838 71.770126 303.355416 71.920338 
C 303.629993 72.070551 304.002452 72.154952 304.390764 72.154952 
z
" style="fill:#ff0000;opacity:0.2;stroke:#ff0000;stroke-linejoin:miter;stroke-width:2;"/>
   </g>
   <g id="patch_12">
    <path clip-path="url(#p23c2e9c118)" d="M 149.185247 72.154952 
C 149.573559 72.154952 149.946018 72.070551 150.220595 71.920338 
C 150.495173 71.770126 150.64945 71.566365 150.64945 71.353931 
C 150.64945 71.141498 150.495173 70.937737 150.220595 70.787524 
C 149.946018 70.637312 149.573559 70.552911 149.185247 70.552911 
C 148.796936 70.552911 148.424477 70.637312 148.149899 70.787524 
C 147.875322 70.937737 147.721044 71.141498 147.721044 71.353931 
C 147.721044 71.566365 147.875322 71.770126 148.149899 71.920338 
C 148.424477 72.070551 148.796936 72.154952 149.185247 72.154952 
z
" style="fill:#ff0000;opacity:0.2;stroke:#ff0000;stroke-linejoin:miter;stroke-width:2;"/>
   </g>
   <g id="patch_13">
    <path clip-path="url(#p23c2e9c118)" d="M 82.564012 91.779953 
C 82.952323 91.779953 83.324782 91.695552 83.59936 91.545339 
C 83.873937 91.395127 84.028215 91.191366 84.028215 90.978932 
C 84.028215 90.766499 83.873937 90.562738 83.59936 90.412525 
C 83.324782 90.262313 82.952323 90.177912 82.564012 90.177912 
C 82.1757 90.177912 81.803241 90.262313 81.528664 90.412525 
C 81.254086 90.562738 81.099809 90.766499 81.099809 90.978932 
C 81.099809 91.191366 81.254086 91.395127 81.528664 91.545339 
C 81.803241 91.695552 82.1757 91.779953 82.564012 91.779953 
z
" style="fill:#ff0000;opacity:0.2;stroke:#ff0000;stroke-linejoin:miter;stroke-width:2;"/>
   </g>
   <g id="patch_14">
    <path clip-path="url(#p23c2e9c118)" d="M 57.672561 88.976381 
C 58.060872 88.976381 58.433331 88.891981 58.707909 88.741768 
C 58.982486 88.591555 59.136764 88.387794 59.136764 88.175361 
C 59.136764 87.962928 58.982486 87.759167 58.707909 87.608954 
C 58.433331 87.458741 58.060872 87.37434 57.672561 87.37434 
C 57.28425 87.37434 56.911791 87.458741 56.637213 87.608954 
C 56.362636 87.759167 56.208358 87.962928 56.208358 88.175361 
C 56.208358 88.387794 56.362636 88.591555 56.637213 88.741768 
C 56.911791 88.891981 57.28425 88.976381 57.672561 88.976381 
z
" style="fill:#ff0000;opacity:0.2;stroke:#ff0000;stroke-linejoin:miter;stroke-width:2;"/>
   </g>
   <g id="patch_15">
    <path clip-path="url(#p23c2e9c118)" d="M 86.224519 28.899848 
C 86.61283 28.899848 86.985289 28.815447 87.259867 28.665234 
C 87.534444 28.515021 87.688722 28.31126 87.688722 28.098827 
C 87.688722 27.886394 87.534444 27.682633 87.259867 27.53242 
C 86.985289 27.382207 86.61283 27.297807 86.224519 27.297807 
C 85.836208 27.297807 85.463749 27.382207 85.189171 27.53242 
C 84.914594 27.682633 84.760316 27.886394 84.760316 28.098827 
C 84.760316 28.31126 84.914594 28.515021 85.189171 28.665234 
C 85.463749 28.815447 85.836208 28.899848 86.224519 28.899848 
z
" style="fill:#ff0000;opacity:0.2;stroke:#ff0000;stroke-linejoin:miter;stroke-width:2;"/>
   </g>
   <g id="patch_16">
    <path clip-path="url(#p23c2e9c118)" d="M 317.934641 55.333522 
C 318.322952 55.333522 318.695412 55.249122 318.969989 55.098909 
C 319.244566 54.948696 319.398844 54.744935 319.398844 54.532502 
C 319.398844 54.320069 319.244566 54.116308 318.969989 53.966095 
C 318.695412 53.815882 318.322952 53.731482 317.934641 53.731482 
C 317.54633 53.731482 317.173871 53.815882 316.899293 53.966095 
C 316.624716 54.116308 316.470438 54.320069 316.470438 54.532502 
C 316.470438 54.744935 316.624716 54.948696 316.899293 55.098909 
C 317.173871 55.249122 317.54633 55.333522 317.934641 55.333522 
z
" style="fill:#0000ff;opacity:0.2;stroke:#0000ff;stroke-linejoin:miter;stroke-width:2;"/>
   </g>
   <g id="patch_17">
    <path clip-path="url(#p23c2e9c118)" d="M 171.514343 55.333522 
C 171.902654 55.333522 172.275113 55.249122 172.549691 55.098909 
C 172.824268 54.948696 172.978546 54.744935 172.978546 54.532502 
C 172.978546 54.320069 172.824268 54.116308 172.549691 53.966095 
C 172.275113 53.815882 171.902654 53.731482 171.514343 53.731482 
C 171.126032 53.731482 170.753572 53.815882 170.478995 53.966095 
C 170.204418 54.116308 170.05014 54.320069 170.05014 54.532502 
C 170.05014 54.744935 170.204418 54.948696 170.478995 55.098909 
C 170.753572 55.249122 171.126032 55.333522 171.514343 55.333522 
z
" style="fill:#0000ff;opacity:0.2;stroke:#0000ff;stroke-linejoin:miter;stroke-width:2;"/>
   </g>
   <g id="patch_18">
    <path clip-path="url(#p23c2e9c118)" d="M 93.179483 75.759544 
C 93.567794 75.759544 93.940254 75.675143 94.214831 75.52493 
C 94.489409 75.374718 94.643686 75.170957 94.643686 74.958523 
C 94.643686 74.74609 94.489409 74.542329 94.214831 74.392116 
C 93.940254 74.241904 93.567794 74.157503 93.179483 74.157503 
C 92.791172 74.157503 92.418713 74.241904 92.144135 74.392116 
C 91.869558 74.542329 91.71528 74.74609 91.71528 74.958523 
C 91.71528 75.170957 91.869558 75.374718 92.144135 75.52493 
C 92.418713 75.675143 92.791172 75.759544 93.179483 75.759544 
z
" style="fill:#0000ff;opacity:0.2;stroke:#0000ff;stroke-linejoin:miter;stroke-width:2;"/>
   </g>
   <g id="patch_19">
    <path clip-path="url(#p23c2e9c118)" d="M 77.805352 72.555462 
C 78.193663 72.555462 78.566122 72.471062 78.8407 72.320849 
C 79.115277 72.170636 79.269555 71.966875 79.269555 71.754442 
C 79.269555 71.542009 79.115277 71.338248 78.8407 71.188035 
C 78.566122 71.037822 78.193663 70.953421 77.805352 70.953421 
C 77.417041 70.953421 77.044582 71.037822 76.770004 71.188035 
C 76.495427 71.338248 76.341149 71.542009 76.341149 71.754442 
C 76.341149 71.966875 76.495427 72.170636 76.770004 72.320849 
C 77.044582 72.471062 77.417041 72.555462 77.805352 72.555462 
z
" style="fill:#0000ff;opacity:0.2;stroke:#0000ff;stroke-linejoin:miter;stroke-width:2;"/>
   </g>
   <g id="patch_20">
    <path clip-path="url(#p23c2e9c118)" d="M 102.696803 29.300358 
C 103.085114 29.300358 103.457573 29.215957 103.732151 29.065744 
C 104.006728 28.915532 104.161006 28.711771 104.161006 28.499337 
C 104.161006 28.286904 104.006728 28.083143 103.732151 27.93293 
C 103.457573 27.782718 103.085114 27.698317 102.696803 27.698317 
C 102.308491 27.698317 101.936032 27.782718 101.661455 27.93293 
C 101.386877 28.083143 101.2326 28.286904 101.2326 28.499337 
C 101.2326 28.711771 101.386877 28.915532 101.661455 29.065744 
C 101.936032 29.215957 102.308491 29.300358 102.696803 29.300358 
z
" style="fill:#0000ff;opacity:0.2;stroke:#0000ff;stroke-linejoin:miter;stroke-width:2;"/>
   </g>
   <g id="patch_21">
    <path clip-path="url(#p23c2e9c118)" d="M 180.299561 30.501889 
C 180.687872 30.501889 181.060331 30.417488 181.334909 30.267275 
C 181.609486 30.117062 181.763764 29.913301 181.763764 29.700868 
C 181.763764 29.488435 181.609486 29.284674 181.334909 29.134461 
C 181.060331 28.984248 180.687872 28.899848 180.299561 28.899848 
C 179.91125 28.899848 179.53879 28.984248 179.264213 29.134461 
C 178.989635 29.284674 178.835358 29.488435 178.835358 29.700868 
C 178.835358 29.913301 178.989635 30.117062 179.264213 30.267275 
C 179.53879 30.417488 179.91125 30.501889 180.299561 30.501889 
z
" style="fill:#0000ff;opacity:0.2;stroke:#0000ff;stroke-linejoin:miter;stroke-width:2;"/>
   </g>
   <g id="patch_22">
    <path clip-path="url(#p23c2e9c118)" d="M 304.024713 30.501889 
C 304.413024 30.501889 304.785483 30.417488 305.060061 30.267275 
C 305.334638 30.117062 305.488916 29.913301 305.488916 29.700868 
C 305.488916 29.488435 305.334638 29.284674 305.060061 29.134461 
C 304.785483 28.984248 304.413024 28.899848 304.024713 28.899848 
C 303.636402 28.899848 303.263942 28.984248 302.989365 29.134461 
C 302.714787 29.284674 302.56051 29.488435 302.56051 29.700868 
C 302.56051 29.913301 302.714787 30.117062 302.989365 30.267275 
C 303.263942 30.417488 303.636402 30.501889 304.024713 30.501889 
z
" style="fill:#0000ff;opacity:0.2;stroke:#0000ff;stroke-linejoin:miter;stroke-width:2;"/>
   </g>
   <g id="patch_23">
    <path clip-path="url(#p23c2e9c118)" d="M 402.126313 29.300358 
C 402.514624 29.300358 402.887083 29.215957 403.16166 29.065744 
C 403.436238 28.915532 403.590516 28.711771 403.590516 28.499337 
C 403.590516 28.286904 403.436238 28.083143 403.16166 27.93293 
C 402.887083 27.782718 402.514624 27.698317 402.126313 27.698317 
C 401.738001 27.698317 401.365542 27.782718 401.090965 27.93293 
C 400.816387 28.083143 400.66211 28.286904 400.66211 28.499337 
C 400.66211 28.711771 400.816387 28.915532 401.090965 29.065744 
C 401.365542 29.215957 401.738001 29.300358 402.126313 29.300358 
z
" style="fill:#0000ff;opacity:0.2;stroke:#0000ff;stroke-linejoin:miter;stroke-width:2;"/>
   </g>
   <g id="patch_24">
    <path clip-path="url(#p23c2e9c118)" d="M 407.251023 32.90495 
C 407.639334 32.90495 408.011793 32.820549 408.286371 32.670336 
C 408.560948 32.520124 408.715226 32.316363 408.715226 32.10393 
C 408.715226 31.891496 408.560948 31.687735 408.286371 31.537523 
C 408.011793 31.38731 407.639334 31.302909 407.251023 31.302909 
C 406.862712 31.302909 406.490253 31.38731 406.215675 31.537523 
C 405.941098 31.687735 405.78682 31.891496 405.78682 32.10393 
C 405.78682 32.316363 405.941098 32.520124 406.215675 32.670336 
C 406.490253 32.820549 406.862712 32.90495 407.251023 32.90495 
z
" style="fill:#0000ff;opacity:0.2;stroke:#0000ff;stroke-linejoin:miter;stroke-width:2;"/>
   </g>
   <g id="patch_25">
    <path clip-path="url(#p23c2e9c118)" d="M 338.433483 101.392198 
C 338.821794 101.392198 339.194253 101.307798 339.468831 101.157585 
C 339.743408 101.007372 339.897686 100.803611 339.897686 100.591178 
C 339.897686 100.378745 339.743408 100.174984 339.468831 100.024771 
C 339.194253 99.874558 338.821794 99.790157 338.433483 99.790157 
C 338.045172 99.790157 337.672712 99.874558 337.398135 100.024771 
C 337.123558 100.174984 336.96928 100.378745 336.96928 100.591178 
C 336.96928 100.803611 337.123558 101.007372 337.398135 101.157585 
C 337.672712 101.307798 338.045172 101.392198 338.433483 101.392198 
z
" style="fill:#0000ff;opacity:0.2;stroke:#0000ff;stroke-linejoin:miter;stroke-width:2;"/>
   </g>
   <g id="patch_26">
    <path clip-path="url(#p23c2e9c118)" d="M 151.747603 306.853943 
C 152.135914 306.853943 152.508373 306.769543 152.78295 306.61933 
C 153.057528 306.469117 153.211806 306.265356 153.211806 306.052923 
C 153.211806 305.84049 153.057528 305.636729 152.78295 305.486516 
C 152.508373 305.336303 152.135914 305.251902 151.747603 305.251902 
C 151.359291 305.251902 150.986832 305.336303 150.712255 305.486516 
C 150.437677 305.636729 150.2834 305.84049 150.2834 306.052923 
C 150.2834 306.265356 150.437677 306.469117 150.712255 306.61933 
C 150.986832 306.769543 151.359291 306.853943 151.747603 306.853943 
z
" style="fill:#0000ff;opacity:0.2;stroke:#0000ff;stroke-linejoin:miter;stroke-width:2;"/>
   </g>
   <g id="patch_27">
    <path clip-path="url(#p23c2e9c118)" d="M 126.856152 299.244249 
C 127.244463 299.244249 127.616922 299.159848 127.8915 299.009635 
C 128.166077 298.859423 128.320355 298.655662 128.320355 298.443228 
C 128.320355 298.230795 128.166077 298.027034 127.8915 297.876821 
C 127.616922 297.726609 127.244463 297.642208 126.856152 297.642208 
C 126.467841 297.642208 126.095381 297.726609 125.820804 297.876821 
C 125.546227 298.027034 125.391949 298.230795 125.391949 298.443228 
C 125.391949 298.655662 125.546227 298.859423 125.820804 299.009635 
C 126.095381 299.159848 126.467841 299.244249 126.856152 299.244249 
z
" style="fill:#0000ff;opacity:0.2;stroke:#0000ff;stroke-linejoin:miter;stroke-width:2;"/>
   </g>
   <g id="patch_28">
    <path clip-path="url(#p23c2e9c118)" d="M 334.040874 70.152401 
C 334.429185 70.152401 334.801644 70.068 335.076222 69.917787 
C 335.350799 69.767574 335.505077 69.563813 335.505077 69.35138 
C 335.505077 69.138947 335.350799 68.935186 335.076222 68.784973 
C 334.801644 68.63476 334.429185 68.55036 334.040874 68.55036 
C 333.652563 68.55036 333.280104 68.63476 333.005526 68.784973 
C 332.730949 68.935186 332.576671 69.138947 332.576671 69.35138 
C 332.576671 69.563813 332.730949 69.767574 333.005526 69.917787 
C 333.280104 70.068 333.652563 70.152401 334.040874 70.152401 
z
" style="fill:#0000ff;opacity:0.2;stroke:#0000ff;stroke-linejoin:miter;stroke-width:2;"/>
   </g>
   <g id="patch_29">
    <path clip-path="url(#p23c2e9c118)" d="M 174.076698 29.300358 
L 314.640184 29.300358 
C 360.762578 29.300358 411.277581 28.899848 420.794901 28.098827 
C 425.919611 28.899848 428.115916 32.10393 427.383814 34.506991 
C 409.081277 49.325869 385.654029 70.953421 354.905766 100.591178 
L 144.060537 304.851392 
C 131.614812 306.052923 110.383868 301.2468 108.919665 292.435575 
L 301.462358 109.402403 
C 317.56859 93.782504 325.621707 84.570769 325.621707 77.762095 
C 325.621707 72.555462 315.372286 71.353931 304.390764 71.353931 
L 149.185247 71.353931 
C 106.723361 71.353931 99.402346 74.157503 82.564012 90.978932 
C 76.7072 94.583524 60.600967 92.580973 57.672561 88.175361 
C 70.118286 68.55036 79.635606 43.318216 86.224519 28.098827 
C 110.383868 28.899848 127.954304 29.300358 174.076698 29.300358 
" style="fill:none;stroke:#ff0000;stroke-linejoin:miter;stroke-width:0.5;"/>
   </g>
   <g id="patch_30">
    <path clip-path="url(#p23c2e9c118)" d="M 317.934641 54.532502 
L 171.514343 54.532502 
C 130.516659 54.532502 114.410427 55.734033 93.179483 74.958523 
C 88.054773 76.160054 80.733758 75.359034 77.805352 71.754442 
C 85.126367 60.940666 96.107889 43.718726 102.696803 28.499337 
C 114.410427 29.300358 140.033979 29.700868 180.299561 29.700868 
L 304.024713 29.700868 
C 344.290295 29.700868 393.341095 29.700868 402.126313 28.499337 
C 405.054719 28.899848 407.251023 30.501889 407.251023 32.10393 
C 386.752181 49.325869 365.521238 70.552911 338.433483 100.591178 
L 151.747603 306.052923 
C 140.033979 306.853943 129.052456 303.649861 126.856152 298.443228 
L 334.040874 69.35138 
C 345.022396 57.336074 341.361889 54.532502 317.934641 54.532502 
" style="fill:none;stroke:#0000ff;stroke-linejoin:miter;stroke-width:0.5;"/>
   </g>
   <g id="[&quot;g_s&quot;:1,&quot;g_t&quot;:6,&quot;coords&quot;:[[219.0, -74.0],[227.5, -75.0]],&quot;certainty&quot;:9]">
    <path clip-path="url(#p23c2e9c118)" d="M 174.076698 31.302909 
C 175.047476 31.302909 175.978624 31.091908 176.665068 30.716375 
C 177.351511 30.340843 177.737206 29.831441 177.737206 29.300358 
C 177.737206 28.769275 177.351511 28.259873 176.665068 27.88434 
C 175.978624 27.508808 175.047476 27.297807 174.076698 27.297807 
C 173.10592 27.297807 172.174772 27.508808 171.488328 27.88434 
C 170.801885 28.259873 170.416191 28.769275 170.416191 29.300358 
C 170.416191 29.831441 170.801885 30.340843 171.488328 30.716375 
C 172.174772 31.091908 173.10592 31.302909 174.076698 31.302909 
z
" style="fill:#0000ff;opacity:0.2;stroke:#0000ff;stroke-linejoin:miter;stroke-width:2;"/>
   </g>
   <g id="[&quot;g_s&quot;:6,&quot;g_t&quot;:1,&quot;coords&quot;:[[227.5, -75.0],[219.0, -74.0]],&quot;certainty&quot;:9]">
    <path clip-path="url(#p23c2e9c118)" d="M 180.299561 31.703419 
C 181.270339 31.703419 182.201487 31.492418 182.88793 31.116886 
C 183.574374 30.741353 183.960068 30.231951 183.960068 29.700868 
C 183.960068 29.169785 183.574374 28.660383 182.88793 28.284851 
C 182.201487 27.909318 181.270339 27.698317 180.299561 27.698317 
C 179.328783 27.698317 178.397635 27.909318 177.711191 28.284851 
C 177.024747 28.660383 176.639053 29.169785 176.639053 29.700868 
C 176.639053 30.231951 177.024747 30.741353 177.711191 31.116886 
C 178.397635 31.492418 179.328783 31.703419 180.299561 31.703419 
z
" style="fill:#ff0000;opacity:0.2;stroke:#ff0000;stroke-linejoin:miter;stroke-width:2;"/>
   </g>
   <g id="patch_31">
    <path d="M 174.076698 29.300358 
Q 176.18998 29.436371 176.539145 29.458844 
" style="fill:none;opacity:0.5;stroke:#0000ff;stroke-linecap:round;stroke-width:2.5;"/>
    <path d="M 175.138584 27.865599 
L 176.539145 29.458844 
L 174.945899 30.859404 
" style="fill:none;opacity:0.5;stroke:#0000ff;stroke-linecap:round;stroke-width:2.5;"/>
   </g>
   <g id="[&quot;g_s&quot;:2,&quot;g_t&quot;:7,&quot;coords&quot;:[[411.0, -74.0],[396.5, -75.0]],&quot;certainty&quot;:3]">
    <path clip-path="url(#p23c2e9c118)" d="M 314.640184 30.101378 
C 315.028496 30.101378 315.400955 30.016978 315.675532 29.866765 
C 315.95011 29.716552 316.104387 29.512791 316.104387 29.300358 
C 316.104387 29.087925 315.95011 28.884164 315.675532 28.733951 
C 315.400955 28.583738 315.028496 28.499337 314.640184 28.499337 
C 314.251873 28.499337 313.879414 28.583738 313.604837 28.733951 
C 313.330259 28.884164 313.175981 29.087925 313.175981 29.300358 
C 313.175981 29.512791 313.330259 29.716552 313.604837 29.866765 
C 313.879414 30.016978 314.251873 30.101378 314.640184 30.101378 
z
" style="fill:#0000ff;opacity:0.2;stroke:#0000ff;stroke-linejoin:miter;stroke-width:2;"/>
   </g>
   <g id="[&quot;g_s&quot;:7,&quot;g_t&quot;:2,&quot;coords&quot;:[[396.5, -75.0],[411.0, -74.0]],&quot;certainty&quot;:3]">
    <path clip-path="url(#p23c2e9c118)" d="M 304.024713 30.501889 
C 304.413024 30.501889 304.785483 30.417488 305.060061 30.267275 
C 305.334638 30.117062 305.488916 29.913301 305.488916 29.700868 
C 305.488916 29.488435 305.334638 29.284674 305.060061 29.134461 
C 304.785483 28.984248 304.413024 28.899848 304.024713 28.899848 
C 303.636402 28.899848 303.263942 28.984248 302.989365 29.134461 
C 302.714787 29.284674 302.56051 29.488435 302.56051 29.700868 
C 302.56051 29.913301 302.714787 30.117062 302.989365 30.267275 
C 303.263942 30.417488 303.636402 30.501889 304.024713 30.501889 
z
" style="fill:#ff0000;opacity:0.2;stroke:#ff0000;stroke-linejoin:miter;stroke-width:2;"/>
   </g>
   <g id="patch_32">
    <path d="M 314.640184 29.300358 
Q 310.331537 29.462919 306.729493 29.59882 
" style="fill:none;opacity:0.5;stroke:#0000ff;stroke-linecap:round;"/>
    <path d="M 308.284979 31.0412 
L 306.729493 29.59882 
L 308.171873 28.043333 
" style="fill:none;opacity:0.5;stroke:#0000ff;stroke-linecap:round;"/>
   </g>
   <g id="[&quot;g_s&quot;:3,&quot;g_t&quot;:8,&quot;coords&quot;:[[556.0, -71.0],[530.5, -72.0]],&quot;certainty&quot;:3]">
    <path clip-path="url(#p23c2e9c118)" d="M 420.794901 28.899848 
C 421.183212 28.899848 421.555671 28.815447 421.830248 28.665234 
C 422.104826 28.515021 422.259104 28.31126 422.259104 28.098827 
C 422.259104 27.886394 422.104826 27.682633 421.830248 27.53242 
C 421.555671 27.382207 421.183212 27.297807 420.794901 27.297807 
C 420.406589 27.297807 420.03413 27.382207 419.759553 27.53242 
C 419.484975 27.682633 419.330698 27.886394 419.330698 28.098827 
C 419.330698 28.31126 419.484975 28.515021 419.759553 28.665234 
C 420.03413 28.815447 420.406589 28.899848 420.794901 28.899848 
z
" style="fill:#0000ff;opacity:0.2;stroke:#0000ff;stroke-linejoin:miter;stroke-width:2;"/>
   </g>
   <g id="[&quot;g_s&quot;:8,&quot;g_t&quot;:3,&quot;coords&quot;:[[530.5, -72.0],[556.0, -71.0]],&quot;certainty&quot;:3]">
    <path clip-path="url(#p23c2e9c118)" d="M 402.126313 29.300358 
C 402.514624 29.300358 402.887083 29.215957 403.16166 29.065744 
C 403.436238 28.915532 403.590516 28.711771 403.590516 28.499337 
C 403.590516 28.286904 403.436238 28.083143 403.16166 27.93293 
C 402.887083 27.782718 402.514624 27.698317 402.126313 27.698317 
C 401.738001 27.698317 401.365542 27.782718 401.090965 27.93293 
C 400.816387 28.083143 400.66211 28.286904 400.66211 28.499337 
C 400.66211 28.711771 400.816387 28.915532 401.090965 29.065744 
C 401.365542 29.215957 401.738001 29.300358 402.126313 29.300358 
z
" style="fill:#ff0000;opacity:0.2;stroke:#ff0000;stroke-linejoin:miter;stroke-width:2;"/>
   </g>
   <g id="patch_33">
    <path d="M 420.794901 28.098827 
Q 412.461035 28.277619 404.834114 28.441245 
" style="fill:none;opacity:0.5;stroke:#0000ff;stroke-linecap:round;"/>
    <path d="M 406.365942 29.908727 
L 404.834114 28.441245 
L 406.301595 26.909417 
" style="fill:none;opacity:0.5;stroke:#0000ff;stroke-linecap:round;"/>
   </g>
   <g id="[&quot;g_s&quot;:4,&quot;g_t&quot;:9,&quot;coords&quot;:[[565.0, -87.0],[537.5, -81.0]],&quot;certainty&quot;:11]">
    <path clip-path="url(#p23c2e9c118)" d="M 427.383814 36.910052 
C 428.548748 36.910052 429.666125 36.65685 430.489858 36.206212 
C 431.31359 35.755573 431.776423 35.14429 431.776423 34.506991 
C 431.776423 33.869692 431.31359 33.258409 430.489858 32.80777 
C 429.666125 32.357131 428.548748 32.10393 427.383814 32.10393 
C 426.218881 32.10393 425.101503 32.357131 424.27777 32.80777 
C 423.454038 33.258409 422.991205 33.869692 422.991205 34.506991 
C 422.991205 35.14429 423.454038 35.755573 424.27777 36.206212 
C 425.101503 36.65685 426.218881 36.910052 427.383814 36.910052 
z
" style="fill:#0000ff;opacity:0.2;stroke:#0000ff;stroke-linejoin:miter;stroke-width:2;"/>
   </g>
   <g id="[&quot;g_s&quot;:9,&quot;g_t&quot;:4,&quot;coords&quot;:[[537.5, -81.0],[565.0, -87.0]],&quot;certainty&quot;:11]">
    <path clip-path="url(#p23c2e9c118)" d="M 407.251023 34.506991 
C 408.415957 34.506991 409.533334 34.253789 410.357067 33.80315 
C 411.180799 33.352512 411.643632 32.741229 411.643632 32.10393 
C 411.643632 31.46663 411.180799 30.855347 410.357067 30.404709 
C 409.533334 29.95407 408.415957 29.700868 407.251023 29.700868 
C 406.08609 29.700868 404.968712 29.95407 404.144979 30.404709 
C 403.321247 30.855347 402.858414 31.46663 402.858414 32.10393 
C 402.858414 32.741229 403.321247 33.352512 404.144979 33.80315 
C 404.968712 34.253789 406.08609 34.506991 407.251023 34.506991 
z
" style="fill:#ff0000;opacity:0.2;stroke:#ff0000;stroke-linejoin:miter;stroke-width:2;"/>
   </g>
   <g id="patch_34">
    <path d="M 427.383814 34.506991 
Q 418.312753 33.424264 411.348061 32.592954 
" style="fill:none;opacity:0.5;stroke:#0000ff;stroke-linecap:round;stroke-width:3;"/>
    <path d="M 412.65971 34.260161 
L 411.348061 32.592954 
L 413.015267 31.281306 
" style="fill:none;opacity:0.5;stroke:#0000ff;stroke-linecap:round;stroke-width:3;"/>
   </g>
   <g id="[&quot;g_s&quot;:5,&quot;g_t&quot;:10,&quot;coords&quot;:[[466.0, -252.0],[443.5, -252.0]],&quot;certainty&quot;:11]">
    <path clip-path="url(#p23c2e9c118)" d="M 354.905766 102.994239 
C 356.0707 102.994239 357.188078 102.741037 358.01181 102.290399 
C 358.835542 101.83976 359.298375 101.228477 359.298375 100.591178 
C 359.298375 99.953878 358.835542 99.342596 358.01181 98.891957 
C 357.188078 98.441318 356.0707 98.188116 354.905766 98.188116 
C 353.740833 98.188116 352.623455 98.441318 351.799723 98.891957 
C 350.97599 99.342596 350.513157 99.953878 350.513157 100.591178 
C 350.513157 101.228477 350.97599 101.83976 351.799723 102.290399 
C 352.623455 102.741037 353.740833 102.994239 354.905766 102.994239 
z
" style="fill:#0000ff;opacity:0.2;stroke:#0000ff;stroke-linejoin:miter;stroke-width:2;"/>
   </g>
   <g id="[&quot;g_s&quot;:10,&quot;g_t&quot;:5,&quot;coords&quot;:[[443.5, -252.0],[466.0, -252.0]],&quot;certainty&quot;:11]">
    <path clip-path="url(#p23c2e9c118)" d="M 338.433483 102.994239 
C 339.598416 102.994239 340.715794 102.741037 341.539526 102.290399 
C 342.363259 101.83976 342.826092 101.228477 342.826092 100.591178 
C 342.826092 99.953878 342.363259 99.342596 341.539526 98.891957 
C 340.715794 98.441318 339.598416 98.188116 338.433483 98.188116 
C 337.268549 98.188116 336.151172 98.441318 335.327439 98.891957 
C 334.503707 99.342596 334.040874 99.953878 334.040874 100.591178 
C 334.040874 101.228477 334.503707 101.83976 335.327439 102.290399 
C 336.151172 102.741037 337.268549 102.994239 338.433483 102.994239 
z
" style="fill:#ff0000;opacity:0.2;stroke:#ff0000;stroke-linejoin:miter;stroke-width:2;"/>
   </g>
   <g id="patch_35">
    <path d="M 354.905766 100.591178 
Q 347.668981 100.591178 342.553515 100.591178 
" style="fill:none;opacity:0.5;stroke:#0000ff;stroke-linecap:round;stroke-width:3;"/>
    <path d="M 344.053515 102.091178 
L 342.553515 100.591178 
L 344.053515 99.091178 
" style="fill:none;opacity:0.5;stroke:#0000ff;stroke-linecap:round;stroke-width:3;"/>
   </g>
   <g id="[&quot;g_s&quot;:6,&quot;g_t&quot;:11,&quot;coords&quot;:[[178.0, -762.0],[188.5, -765.0]],&quot;certainty&quot;:13]">
    <path clip-path="url(#p23c2e9c118)" d="M 144.060537 307.654964 
C 145.419626 307.654964 146.723233 307.359562 147.684254 306.833817 
C 148.645276 306.308071 149.185247 305.594908 149.185247 304.851392 
C 149.185247 304.107876 148.645276 303.394713 147.684254 302.868968 
C 146.723233 302.343222 145.419626 302.04782 144.060537 302.04782 
C 142.701448 302.04782 141.397841 302.343222 140.436819 302.868968 
C 139.475798 303.394713 138.935826 304.107876 138.935826 304.851392 
C 138.935826 305.594908 139.475798 306.308071 140.436819 306.833817 
C 141.397841 307.359562 142.701448 307.654964 144.060537 307.654964 
z
" style="fill:#0000ff;opacity:0.2;stroke:#0000ff;stroke-linejoin:miter;stroke-width:2;"/>
   </g>
   <g id="[&quot;g_s&quot;:11,&quot;g_t&quot;:6,&quot;coords&quot;:[[188.5, -765.0],[178.0, -762.0]],&quot;certainty&quot;:13]">
    <path clip-path="url(#p23c2e9c118)" d="M 151.747603 308.856494 
C 153.106692 308.856494 154.410299 308.561092 155.37132 308.035347 
C 156.332341 307.509602 156.872313 306.796439 156.872313 306.052923 
C 156.872313 305.309407 156.332341 304.596243 155.37132 304.070498 
C 154.410299 303.544753 153.106692 303.249351 151.747603 303.249351 
C 150.388513 303.249351 149.084906 303.544753 148.123885 304.070498 
C 147.162864 304.596243 146.622892 305.309407 146.622892 306.052923 
C 146.622892 306.796439 147.162864 307.509602 148.123885 308.035347 
C 149.084906 308.561092 150.388513 308.856494 151.747603 308.856494 
z
" style="fill:#ff0000;opacity:0.2;stroke:#ff0000;stroke-linejoin:miter;stroke-width:2;"/>
   </g>
   <g id="patch_36">
    <path d="M 144.060537 304.851392 
Q 146.915036 305.297566 147.32435 305.361544 
" style="fill:none;opacity:0.5;stroke:#0000ff;stroke-linecap:round;stroke-width:3.5;"/>
    <path d="M 146.07399 303.647893 
L 147.32435 305.361544 
L 145.610699 306.611904 
" style="fill:none;opacity:0.5;stroke:#0000ff;stroke-linecap:round;stroke-width:3.5;"/>
   </g>
   <g id="[&quot;g_s&quot;:7,&quot;g_t&quot;:12,&quot;coords&quot;:[[130.0, -731.0],[154.5, -746.0]],&quot;certainty&quot;:8]">
    <path clip-path="url(#p23c2e9c118)" d="M 108.919665 294.237871 
C 109.793365 294.237871 110.631399 294.04797 111.249198 293.709991 
C 111.866997 293.372012 112.214122 292.91355 112.214122 292.435575 
C 112.214122 291.957601 111.866997 291.499138 111.249198 291.161159 
C 110.631399 290.82318 109.793365 290.633279 108.919665 290.633279 
C 108.045965 290.633279 107.207932 290.82318 106.590133 291.161159 
C 105.972333 291.499138 105.625209 291.957601 105.625209 292.435575 
C 105.625209 292.91355 105.972333 293.372012 106.590133 293.709991 
C 107.207932 294.04797 108.045965 294.237871 108.919665 294.237871 
z
" style="fill:#0000ff;opacity:0.2;stroke:#0000ff;stroke-linejoin:miter;stroke-width:2;"/>
   </g>
   <g id="[&quot;g_s&quot;:12,&quot;g_t&quot;:7,&quot;coords&quot;:[[154.5, -746.0],[130.0, -731.0]],&quot;certainty&quot;:8]">
    <path clip-path="url(#p23c2e9c118)" d="M 126.856152 300.245524 
C 127.729852 300.245524 128.567885 300.055623 129.185685 299.717644 
C 129.803484 299.379665 130.150609 298.921203 130.150609 298.443228 
C 130.150609 297.965254 129.803484 297.506792 129.185685 297.168813 
C 128.567885 296.830834 127.729852 296.640932 126.856152 296.640932 
C 125.982452 296.640932 125.144418 296.830834 124.526619 297.168813 
C 123.90882 297.506792 123.561695 297.965254 123.561695 298.443228 
C 123.561695 298.921203 123.90882 299.379665 124.526619 299.717644 
C 125.144418 300.055623 125.982452 300.245524 126.856152 300.245524 
z
" style="fill:#ff0000;opacity:0.2;stroke:#ff0000;stroke-linejoin:miter;stroke-width:2;"/>
   </g>
   <g id="patch_37">
    <path d="M 108.919665 292.435575 
Q 116.93985 295.121859 123.451417 297.302845 
" style="fill:none;opacity:0.5;stroke:#0000ff;stroke-linecap:round;stroke-width:2.25;"/>
    <path d="M 122.505478 295.404109 
L 123.451417 297.302845 
L 121.552681 298.248785 
" style="fill:none;opacity:0.5;stroke:#0000ff;stroke-linecap:round;stroke-width:2.25;"/>
   </g>
   <g id="[&quot;g_s&quot;:8,&quot;g_t&quot;:10,&quot;coords&quot;:[[393.0, -274.0],[443.5, -252.0]],&quot;certainty&quot;:8]">
    <path clip-path="url(#p23c2e9c118)" d="M 301.462358 111.204699 
C 302.336058 111.204699 303.174091 111.014797 303.79189 110.676818 
C 304.40969 110.338839 304.756814 109.880377 304.756814 109.402403 
C 304.756814 108.924428 304.40969 108.465966 303.79189 108.127987 
C 303.174091 107.790008 302.336058 107.600107 301.462358 107.600107 
C 300.588657 107.600107 299.750624 107.790008 299.132825 108.127987 
C 298.515026 108.465966 298.167901 108.924428 298.167901 109.402403 
C 298.167901 109.880377 298.515026 110.338839 299.132825 110.676818 
C 299.750624 111.014797 300.588657 111.204699 301.462358 111.204699 
z
" style="fill:#0000ff;opacity:0.2;stroke:#0000ff;stroke-linejoin:miter;stroke-width:2;"/>
   </g>
   <g id="[&quot;g_s&quot;:10,&quot;g_t&quot;:8,&quot;coords&quot;:[[443.5, -252.0],[393.0, -274.0]],&quot;certainty&quot;:8]">
    <path clip-path="url(#p23c2e9c118)" d="M 338.433483 102.393474 
C 339.307183 102.393474 340.145216 102.203573 340.763016 101.865594 
C 341.380815 101.527615 341.72794 101.069152 341.72794 100.591178 
C 341.72794 100.113203 341.380815 99.654741 340.763016 99.316762 
C 340.145216 98.978783 339.307183 98.788882 338.433483 98.788882 
C 337.559783 98.788882 336.721749 98.978783 336.10395 99.316762 
C 335.486151 99.654741 335.139026 100.113203 335.139026 100.591178 
C 335.139026 101.069152 335.486151 101.527615 336.10395 101.865594 
C 336.721749 102.203573 337.559783 102.393474 338.433483 102.393474 
z
" style="fill:#ff0000;opacity:0.2;stroke:#ff0000;stroke-linejoin:miter;stroke-width:2;"/>
   </g>
   <g id="patch_38">
    <path d="M 301.462358 109.402403 
Q 318.975352 105.22858 334.940702 101.423602 
" style="fill:none;opacity:0.5;stroke:#0000ff;stroke-linecap:round;stroke-width:2.25;"/>
    <path d="M 333.133818 100.31222 
L 334.940702 101.423602 
L 333.829321 103.230487 
" style="fill:none;opacity:0.5;stroke:#0000ff;stroke-linecap:round;stroke-width:2.25;"/>
   </g>
   <g id="[&quot;g_s&quot;:9,&quot;g_t&quot;:13,&quot;coords&quot;:[[426.0, -195.0],[437.5, -174.0]],&quot;certainty&quot;:11]">
    <path clip-path="url(#p23c2e9c118)" d="M 325.621707 80.165156 
C 326.78664 80.165156 327.904018 79.911955 328.72775 79.461316 
C 329.551483 79.010677 330.014316 78.399394 330.014316 77.762095 
C 330.014316 77.124796 329.551483 76.513513 328.72775 76.062874 
C 327.904018 75.612235 326.78664 75.359034 325.621707 75.359034 
C 324.456773 75.359034 323.339396 75.612235 322.515663 76.062874 
C 321.691931 76.513513 321.229098 77.124796 321.229098 77.762095 
C 321.229098 78.399394 321.691931 79.010677 322.515663 79.461316 
C 323.339396 79.911955 324.456773 80.165156 325.621707 80.165156 
z
" style="fill:#0000ff;opacity:0.2;stroke:#0000ff;stroke-linejoin:miter;stroke-width:2;"/>
   </g>
   <g id="[&quot;g_s&quot;:13,&quot;g_t&quot;:9,&quot;coords&quot;:[[437.5, -174.0],[426.0, -195.0]],&quot;certainty&quot;:11]">
    <path clip-path="url(#p23c2e9c118)" d="M 334.040874 71.754442 
C 335.205807 71.754442 336.323185 71.50124 337.146917 71.050601 
C 337.97065 70.599963 338.433483 69.98868 338.433483 69.35138 
C 338.433483 68.714081 337.97065 68.102798 337.146917 67.652159 
C 336.323185 67.201521 335.205807 66.948319 334.040874 66.948319 
C 332.87594 66.948319 331.758563 67.201521 330.93483 67.652159 
C 330.111098 68.102798 329.648265 68.714081 329.648265 69.35138 
C 329.648265 69.98868 330.111098 70.599963 330.93483 71.050601 
C 331.758563 71.50124 332.87594 71.754442 334.040874 71.754442 
z
" style="fill:#ff0000;opacity:0.2;stroke:#ff0000;stroke-linejoin:miter;stroke-width:2;"/>
   </g>
   <g id="patch_39">
    <path d="M 325.621707 77.762095 
Q 329.123184 74.264133 331.123908 72.265417 
" style="fill:none;opacity:0.5;stroke:#0000ff;stroke-linecap:round;stroke-width:3;"/>
    <path d="M 329.002588 72.264352 
L 331.123908 72.265417 
L 331.122843 74.386738 
" style="fill:none;opacity:0.5;stroke:#0000ff;stroke-linecap:round;stroke-width:3;"/>
   </g>
   <g id="[&quot;g_s&quot;:10,&quot;g_t&quot;:1,&quot;coords&quot;:[[397.0, -179.0],[415.5, -137.0]],&quot;certainty&quot;:6]">
    <path clip-path="url(#p23c2e9c118)" d="M 304.390764 72.755717 
C 305.070308 72.755717 305.722112 72.608016 306.202622 72.345144 
C 306.683133 72.082271 306.953119 71.725689 306.953119 71.353931 
C 306.953119 70.982174 306.683133 70.625592 306.202622 70.362719 
C 305.722112 70.099847 305.070308 69.952146 304.390764 69.952146 
C 303.711219 69.952146 303.059415 70.099847 302.578905 70.362719 
C 302.098394 70.625592 301.828408 70.982174 301.828408 71.353931 
C 301.828408 71.725689 302.098394 72.082271 302.578905 72.345144 
C 303.059415 72.608016 303.711219 72.755717 304.390764 72.755717 
z
" style="fill:#0000ff;opacity:0.2;stroke:#0000ff;stroke-linejoin:miter;stroke-width:2;"/>
   </g>
   <g id="[&quot;g_s&quot;:1,&quot;g_t&quot;:10,&quot;coords&quot;:[[415.5, -137.0],[397.0, -179.0]],&quot;certainty&quot;:6]">
    <path clip-path="url(#p23c2e9c118)" d="M 317.934641 55.934288 
C 318.614186 55.934288 319.265989 55.786587 319.7465 55.523714 
C 320.22701 55.260842 320.496996 54.90426 320.496996 54.532502 
C 320.496996 54.160744 320.22701 53.804162 319.7465 53.54129 
C 319.265989 53.278417 318.614186 53.130716 317.934641 53.130716 
C 317.255097 53.130716 316.603293 53.278417 316.122782 53.54129 
C 315.642272 53.804162 315.372286 54.160744 315.372286 54.532502 
C 315.372286 54.90426 315.642272 55.260842 316.122782 55.523714 
C 316.603293 55.786587 317.255097 55.934288 317.934641 55.934288 
z
" style="fill:#ff0000;opacity:0.2;stroke:#ff0000;stroke-linejoin:miter;stroke-width:2;"/>
   </g>
   <g id="patch_40">
    <path d="M 304.390764 71.353931 
Q 310.535273 63.722481 315.903735 57.054877 
" style="fill:none;opacity:0.5;stroke:#0000ff;stroke-linecap:round;stroke-width:1.75;"/>
    <path d="M 313.794665 57.282525 
L 315.903735 57.054877 
L 316.131383 59.163947 
" style="fill:none;opacity:0.5;stroke:#0000ff;stroke-linecap:round;stroke-width:1.75;"/>
   </g>
   <g id="[&quot;g_s&quot;:11,&quot;g_t&quot;:2,&quot;coords&quot;:[[185.0, -179.0],[215.5, -137.0]],&quot;certainty&quot;:6]">
    <path clip-path="url(#p23c2e9c118)" d="M 149.185247 72.755717 
C 149.864792 72.755717 150.516596 72.608016 150.997106 72.345144 
C 151.477617 72.082271 151.747603 71.725689 151.747603 71.353931 
C 151.747603 70.982174 151.477617 70.625592 150.997106 70.362719 
C 150.516596 70.099847 149.864792 69.952146 149.185247 69.952146 
C 148.505703 69.952146 147.853899 70.099847 147.373389 70.362719 
C 146.892878 70.625592 146.622892 70.982174 146.622892 71.353931 
C 146.622892 71.725689 146.892878 72.082271 147.373389 72.345144 
C 147.853899 72.608016 148.505703 72.755717 149.185247 72.755717 
z
" style="fill:#0000ff;opacity:0.2;stroke:#0000ff;stroke-linejoin:miter;stroke-width:2;"/>
   </g>
   <g id="[&quot;g_s&quot;:2,&quot;g_t&quot;:11,&quot;coords&quot;:[[215.5, -137.0],[185.0, -179.0]],&quot;certainty&quot;:6]">
    <path clip-path="url(#p23c2e9c118)" d="M 171.514343 55.934288 
C 172.193887 55.934288 172.845691 55.786587 173.326202 55.523714 
C 173.806712 55.260842 174.076698 54.90426 174.076698 54.532502 
C 174.076698 54.160744 173.806712 53.804162 173.326202 53.54129 
C 172.845691 53.278417 172.193887 53.130716 171.514343 53.130716 
C 170.834798 53.130716 170.182995 53.278417 169.702484 53.54129 
C 169.221974 53.804162 168.951988 54.160744 168.951988 54.532502 
C 168.951988 54.90426 169.221974 55.260842 169.702484 55.523714 
C 170.182995 55.786587 170.834798 55.934288 171.514343 55.934288 
z
" style="fill:#ff0000;opacity:0.2;stroke:#ff0000;stroke-linejoin:miter;stroke-width:2;"/>
   </g>
   <g id="patch_41">
    <path d="M 149.185247 71.353931 
Q 159.549796 63.545889 168.925983 56.48242 
" style="fill:none;opacity:0.5;stroke:#0000ff;stroke-linecap:round;stroke-width:1.75;"/>
    <path d="M 166.825348 56.186904 
L 168.925983 56.48242 
L 168.630467 58.583056 
" style="fill:none;opacity:0.5;stroke:#0000ff;stroke-linecap:round;stroke-width:1.75;"/>
   </g>
   <g id="[&quot;g_s&quot;:12,&quot;g_t&quot;:3,&quot;coords&quot;:[[94.0, -228.0],[108.5, -188.0]],&quot;certainty&quot;:7]">
    <path clip-path="url(#p23c2e9c118)" d="M 82.564012 92.580973 
C 83.340634 92.580973 84.085552 92.412172 84.634707 92.111746 
C 85.183862 91.811321 85.492418 91.403799 85.492418 90.978932 
C 85.492418 90.554066 85.183862 90.146544 84.634707 89.846118 
C 84.085552 89.545693 83.340634 89.376892 82.564012 89.376892 
C 81.787389 89.376892 81.042471 89.545693 80.493316 89.846118 
C 79.944161 90.146544 79.635606 90.554066 79.635606 90.978932 
C 79.635606 91.403799 79.944161 91.811321 80.493316 92.111746 
C 81.042471 92.412172 81.787389 92.580973 82.564012 92.580973 
z
" style="fill:#0000ff;opacity:0.2;stroke:#0000ff;stroke-linejoin:miter;stroke-width:2;"/>
   </g>
   <g id="[&quot;g_s&quot;:3,&quot;g_t&quot;:12,&quot;coords&quot;:[[108.5, -188.0],[94.0, -228.0]],&quot;certainty&quot;:7]">
    <path clip-path="url(#p23c2e9c118)" d="M 93.179483 76.560564 
C 93.956106 76.560564 94.701024 76.391763 95.250179 76.091337 
C 95.799334 75.790912 96.107889 75.38339 96.107889 74.958523 
C 96.107889 74.533657 95.799334 74.126135 95.250179 73.825709 
C 94.701024 73.525284 93.956106 73.356483 93.179483 73.356483 
C 92.402861 73.356483 91.657942 73.525284 91.108788 73.825709 
C 90.559633 74.126135 90.251077 74.533657 90.251077 74.958523 
C 90.251077 75.38339 90.559633 75.790912 91.108788 76.091337 
C 91.657942 76.391763 92.402861 76.560564 93.179483 76.560564 
z
" style="fill:#ff0000;opacity:0.2;stroke:#ff0000;stroke-linejoin:miter;stroke-width:2;"/>
   </g>
   <g id="patch_42">
    <path d="M 82.564012 90.978932 
Q 87.318426 83.803776 91.291681 77.807513 
" style="fill:none;opacity:0.5;stroke:#0000ff;stroke-linecap:round;stroke-width:2;"/>
    <path d="M 89.212731 78.229372 
L 91.291681 77.807513 
L 91.71354 79.886463 
" style="fill:none;opacity:0.5;stroke:#0000ff;stroke-linecap:round;stroke-width:2;"/>
   </g>
   <g id="[&quot;g_s&quot;:13,&quot;g_t&quot;:4,&quot;coords&quot;:[[60.0, -221.0],[87.5, -180.0]],&quot;certainty&quot;:11]">
    <path clip-path="url(#p23c2e9c118)" d="M 57.672561 90.578422 
C 58.837494 90.578422 59.954872 90.325221 60.778605 89.874582 
C 61.602337 89.423943 62.06517 88.81266 62.06517 88.175361 
C 62.06517 87.538062 61.602337 86.926779 60.778605 86.47614 
C 59.954872 86.025501 58.837494 85.7723 57.672561 85.7723 
C 56.507627 85.7723 55.39025 86.025501 54.566517 86.47614 
C 53.742785 86.926779 53.279952 87.538062 53.279952 88.175361 
C 53.279952 88.81266 53.742785 89.423943 54.566517 89.874582 
C 55.39025 90.325221 56.507627 90.578422 57.672561 90.578422 
z
" style="fill:#0000ff;opacity:0.2;stroke:#0000ff;stroke-linejoin:miter;stroke-width:2;"/>
   </g>
   <g id="[&quot;g_s&quot;:4,&quot;g_t&quot;:13,&quot;coords&quot;:[[87.5, -180.0],[60.0, -221.0]],&quot;certainty&quot;:11]">
    <path clip-path="url(#p23c2e9c118)" d="M 77.805352 74.157503 
C 78.970285 74.157503 80.087663 73.904301 80.911396 73.453663 
C 81.735128 73.003024 82.197961 72.391741 82.197961 71.754442 
C 82.197961 71.117142 81.735128 70.505859 80.911396 70.055221 
C 80.087663 69.604582 78.970285 69.35138 77.805352 69.35138 
C 76.640418 69.35138 75.523041 69.604582 74.699308 70.055221 
C 73.875576 70.505859 73.412743 71.117142 73.412743 71.754442 
C 73.412743 72.391741 73.875576 73.003024 74.699308 73.453663 
C 75.523041 73.904301 76.640418 74.157503 77.805352 74.157503 
z
" style="fill:#ff0000;opacity:0.2;stroke:#ff0000;stroke-linejoin:miter;stroke-width:2;"/>
   </g>
   <g id="patch_43">
    <path d="M 57.672561 88.175361 
Q 66.963579 80.597323 74.610731 74.360072 
" style="fill:none;opacity:0.5;stroke:#0000ff;stroke-linecap:round;stroke-width:3;"/>
    <path d="M 72.500264 74.145763 
L 74.610731 74.360072 
L 74.396422 76.470539 
" style="fill:none;opacity:0.5;stroke:#0000ff;stroke-linecap:round;stroke-width:3;"/>
   </g>
   <g id="[&quot;g_s&quot;:14,&quot;g_t&quot;:5,&quot;coords&quot;:[[99.0, -71.0],[121.5, -72.0]],&quot;certainty&quot;:10]">
    <path clip-path="url(#p23c2e9c118)" d="M 86.224519 30.301633 
C 87.292375 30.301633 88.316638 30.069532 89.071726 29.656446 
C 89.826814 29.243361 90.251077 28.683018 90.251077 28.098827 
C 90.251077 27.514636 89.826814 26.954293 89.071726 26.541208 
C 88.316638 26.128123 87.292375 25.896021 86.224519 25.896021 
C 85.156663 25.896021 84.132401 26.128123 83.377312 26.541208 
C 82.622224 26.954293 82.197961 27.514636 82.197961 28.098827 
C 82.197961 28.683018 82.622224 29.243361 83.377312 29.656446 
C 84.132401 30.069532 85.156663 30.301633 86.224519 30.301633 
z
" style="fill:#0000ff;opacity:0.2;stroke:#0000ff;stroke-linejoin:miter;stroke-width:2;"/>
   </g>
   <g id="[&quot;g_s&quot;:5,&quot;g_t&quot;:14,&quot;coords&quot;:[[121.5, -72.0],[99.0, -71.0]],&quot;certainty&quot;:10]">
    <path clip-path="url(#p23c2e9c118)" d="M 102.696803 30.702144 
C 103.764658 30.702144 104.788921 30.470042 105.544009 30.056957 
C 106.299097 29.643871 106.723361 29.083529 106.723361 28.499337 
C 106.723361 27.915146 106.299097 27.354804 105.544009 26.941718 
C 104.788921 26.528633 103.764658 26.296531 102.696803 26.296531 
C 101.628947 26.296531 100.604684 26.528633 99.849596 26.941718 
C 99.094508 27.354804 98.670244 27.915146 98.670244 28.499337 
C 98.670244 29.083529 99.094508 29.643871 99.849596 30.056957 
C 100.604684 30.470042 101.628947 30.702144 102.696803 30.702144 
z
" style="fill:#ff0000;opacity:0.2;stroke:#ff0000;stroke-linejoin:miter;stroke-width:2;"/>
   </g>
   <g id="patch_44">
    <path d="M 86.224519 28.098827 
Q 93.461305 28.274784 98.754121 28.403474 
" style="fill:none;opacity:0.5;stroke:#0000ff;stroke-linecap:round;stroke-width:2.75;"/>
    <path d="M 97.291025 26.867457 
L 98.754121 28.403474 
L 97.218104 29.866571 
" style="fill:none;opacity:0.5;stroke:#0000ff;stroke-linecap:round;stroke-width:2.75;"/>
   </g>
   <g id="[&quot;g_s&quot;:1,&quot;g_t&quot;:10,&quot;coords&quot;:[[415.5, -137.0],[397.0, -179.0]],&quot;certainty&quot;:6]">
    <path clip-path="url(#p23c2e9c118)" d="M 317.934641 55.934288 
C 318.614186 55.934288 319.265989 55.786587 319.7465 55.523714 
C 320.22701 55.260842 320.496996 54.90426 320.496996 54.532502 
C 320.496996 54.160744 320.22701 53.804162 319.7465 53.54129 
C 319.265989 53.278417 318.614186 53.130716 317.934641 53.130716 
C 317.255097 53.130716 316.603293 53.278417 316.122782 53.54129 
C 315.642272 53.804162 315.372286 54.160744 315.372286 54.532502 
C 315.372286 54.90426 315.642272 55.260842 316.122782 55.523714 
C 316.603293 55.786587 317.255097 55.934288 317.934641 55.934288 
z
" style="fill:#0000ff;opacity:0.2;stroke:#0000ff;stroke-linejoin:miter;stroke-width:2;"/>
   </g>
   <g id="[&quot;g_s&quot;:10,&quot;g_t&quot;:1,&quot;coords&quot;:[[397.0, -179.0],[415.5, -137.0]],&quot;certainty&quot;:6]">
    <path clip-path="url(#p23c2e9c118)" d="M 304.390764 72.755717 
C 305.070308 72.755717 305.722112 72.608016 306.202622 72.345144 
C 306.683133 72.082271 306.953119 71.725689 306.953119 71.353931 
C 306.953119 70.982174 306.683133 70.625592 306.202622 70.362719 
C 305.722112 70.099847 305.070308 69.952146 304.390764 69.952146 
C 303.711219 69.952146 303.059415 70.099847 302.578905 70.362719 
C 302.098394 70.625592 301.828408 70.982174 301.828408 71.353931 
C 301.828408 71.725689 302.098394 72.082271 302.578905 72.345144 
C 303.059415 72.608016 303.711219 72.755717 304.390764 72.755717 
z
" style="fill:#ff0000;opacity:0.2;stroke:#ff0000;stroke-linejoin:miter;stroke-width:2;"/>
   </g>
   <g id="patch_45">
    <path d="M 317.934641 54.532502 
Q 311.790132 62.163953 306.42167 68.831556 
" style="fill:none;opacity:0.5;stroke:#ff0000;stroke-linecap:round;stroke-width:1.75;"/>
    <path d="M 308.53074 68.603909 
L 306.42167 68.831556 
L 306.194022 66.722486 
" style="fill:none;opacity:0.5;stroke:#ff0000;stroke-linecap:round;stroke-width:1.75;"/>
   </g>
   <g id="[&quot;g_s&quot;:2,&quot;g_t&quot;:1,&quot;coords&quot;:[[215.5, -137.0],[219.0, -74.0]],&quot;certainty&quot;:5]">
    <path clip-path="url(#p23c2e9c118)" d="M 171.514343 55.734033 
C 172.09681 55.734033 172.655498 55.607432 173.067365 55.382113 
C 173.479231 55.156793 173.710647 54.851152 173.710647 54.532502 
C 173.710647 54.213852 173.479231 53.908211 173.067365 53.682892 
C 172.655498 53.457572 172.09681 53.330971 171.514343 53.330971 
C 170.931876 53.330971 170.373187 53.457572 169.961321 53.682892 
C 169.549455 53.908211 169.318038 54.213852 169.318038 54.532502 
C 169.318038 54.851152 169.549455 55.156793 169.961321 55.382113 
C 170.373187 55.607432 170.931876 55.734033 171.514343 55.734033 
z
" style="fill:#0000ff;opacity:0.2;stroke:#0000ff;stroke-linejoin:miter;stroke-width:2;"/>
   </g>
   <g id="[&quot;g_s&quot;:1,&quot;g_t&quot;:2,&quot;coords&quot;:[[219.0, -74.0],[215.5, -137.0]],&quot;certainty&quot;:5]">
    <path clip-path="url(#p23c2e9c118)" d="M 174.076698 30.501889 
C 174.659165 30.501889 175.217854 30.375288 175.62972 30.149968 
C 176.041586 29.924649 176.273003 29.619008 176.273003 29.300358 
C 176.273003 28.981708 176.041586 28.676067 175.62972 28.450747 
C 175.217854 28.225428 174.659165 28.098827 174.076698 28.098827 
C 173.494231 28.098827 172.935542 28.225428 172.523676 28.450747 
C 172.11181 28.676067 171.880394 28.981708 171.880394 29.300358 
C 171.880394 29.619008 172.11181 29.924649 172.523676 30.149968 
C 172.935542 30.375288 173.494231 30.501889 174.076698 30.501889 
z
" style="fill:#ff0000;opacity:0.2;stroke:#ff0000;stroke-linejoin:miter;stroke-width:2;"/>
   </g>
   <g id="patch_46">
    <path d="M 171.514343 54.532502 
Q 172.694334 42.912841 173.767164 32.348413 
" style="fill:none;opacity:0.5;stroke:#ff0000;stroke-linecap:round;stroke-width:1.5;"/>
    <path d="M 172.123292 33.68919 
L 173.767164 32.348413 
L 175.107942 33.992285 
" style="fill:none;opacity:0.5;stroke:#ff0000;stroke-linecap:round;stroke-width:1.5;"/>
   </g>
   <g id="[&quot;g_s&quot;:3,&quot;g_t&quot;:12,&quot;coords&quot;:[[108.5, -188.0],[94.0, -228.0]],&quot;certainty&quot;:5]">
    <path clip-path="url(#p23c2e9c118)" d="M 93.179483 76.160054 
C 93.76195 76.160054 94.320639 76.033453 94.732505 75.808134 
C 95.144371 75.582815 95.375788 75.277173 95.375788 74.958523 
C 95.375788 74.639874 95.144371 74.334232 94.732505 74.108913 
C 94.320639 73.883594 93.76195 73.756993 93.179483 73.756993 
C 92.597017 73.756993 92.038328 73.883594 91.626461 74.108913 
C 91.214595 74.334232 90.983179 74.639874 90.983179 74.958523 
C 90.983179 75.277173 91.214595 75.582815 91.626461 75.808134 
C 92.038328 76.033453 92.597017 76.160054 93.179483 76.160054 
z
" style="fill:#0000ff;opacity:0.2;stroke:#0000ff;stroke-linejoin:miter;stroke-width:2;"/>
   </g>
   <g id="[&quot;g_s&quot;:12,&quot;g_t&quot;:3,&quot;coords&quot;:[[94.0, -228.0],[108.5, -188.0]],&quot;certainty&quot;:5]">
    <path clip-path="url(#p23c2e9c118)" d="M 82.564012 92.180463 
C 83.146478 92.180463 83.705167 92.053862 84.117033 91.828543 
C 84.5289 91.603224 84.760316 91.297582 84.760316 90.978932 
C 84.760316 90.660283 84.5289 90.354641 84.117033 90.129322 
C 83.705167 89.904003 83.146478 89.777402 82.564012 89.777402 
C 81.981545 89.777402 81.422856 89.904003 81.01099 90.129322 
C 80.599124 90.354641 80.367707 90.660283 80.367707 90.978932 
C 80.367707 91.297582 80.599124 91.603224 81.01099 91.828543 
C 81.422856 92.053862 81.981545 92.180463 82.564012 92.180463 
z
" style="fill:#ff0000;opacity:0.2;stroke:#ff0000;stroke-linejoin:miter;stroke-width:2;"/>
   </g>
   <g id="patch_47">
    <path d="M 93.179483 74.958523 
Q 88.425069 82.13368 84.256524 88.424666 
" style="fill:none;opacity:0.5;stroke:#ff0000;stroke-linecap:round;stroke-width:1.5;"/>
    <path d="M 86.335474 88.002807 
L 84.256524 88.424666 
L 83.834665 86.345716 
" style="fill:none;opacity:0.5;stroke:#ff0000;stroke-linecap:round;stroke-width:1.5;"/>
   </g>
   <g id="[&quot;g_s&quot;:4,&quot;g_t&quot;:13,&quot;coords&quot;:[[87.5, -180.0],[60.0, -221.0]],&quot;certainty&quot;:10]">
    <path clip-path="url(#p23c2e9c118)" d="M 77.805352 73.957248 
C 78.873208 73.957248 79.897471 73.725146 80.652559 73.312061 
C 81.407647 72.898975 81.83191 72.338633 81.83191 71.754442 
C 81.83191 71.170251 81.407647 70.609908 80.652559 70.196822 
C 79.897471 69.783737 78.873208 69.551635 77.805352 69.551635 
C 76.737496 69.551635 75.713233 69.783737 74.958145 70.196822 
C 74.203057 70.609908 73.778794 71.170251 73.778794 71.754442 
C 73.778794 72.338633 74.203057 72.898975 74.958145 73.312061 
C 75.713233 73.725146 76.737496 73.957248 77.805352 73.957248 
z
" style="fill:#0000ff;opacity:0.2;stroke:#0000ff;stroke-linejoin:miter;stroke-width:2;"/>
   </g>
   <g id="[&quot;g_s&quot;:13,&quot;g_t&quot;:4,&quot;coords&quot;:[[60.0, -221.0],[87.5, -180.0]],&quot;certainty&quot;:10]">
    <path clip-path="url(#p23c2e9c118)" d="M 57.672561 90.378167 
C 58.740417 90.378167 59.76468 90.146066 60.519768 89.73298 
C 61.274856 89.319895 61.699119 88.759552 61.699119 88.175361 
C 61.699119 87.59117 61.274856 87.030827 60.519768 86.617742 
C 59.76468 86.204656 58.740417 85.972555 57.672561 85.972555 
C 56.604705 85.972555 55.580442 86.204656 54.825354 86.617742 
C 54.070266 87.030827 53.646003 87.59117 53.646003 88.175361 
C 53.646003 88.759552 54.070266 89.319895 54.825354 89.73298 
C 55.580442 90.146066 56.604705 90.378167 57.672561 90.378167 
z
" style="fill:#ff0000;opacity:0.2;stroke:#ff0000;stroke-linejoin:miter;stroke-width:2;"/>
   </g>
   <g id="patch_48">
    <path d="M 77.805352 71.754442 
Q 68.514334 79.332479 60.730193 85.681463 
" style="fill:none;opacity:0.5;stroke:#ff0000;stroke-linecap:round;stroke-width:2.75;"/>
    <path d="M 62.84066 85.895772 
L 60.730193 85.681463 
L 60.944502 83.570996 
" style="fill:none;opacity:0.5;stroke:#ff0000;stroke-linecap:round;stroke-width:2.75;"/>
   </g>
   <g id="[&quot;g_s&quot;:5,&quot;g_t&quot;:14,&quot;coords&quot;:[[121.5, -72.0],[99.0, -71.0]],&quot;certainty&quot;:11]">
    <path clip-path="url(#p23c2e9c118)" d="M 102.696803 30.902399 
C 103.861736 30.902399 104.979114 30.649197 105.802846 30.198558 
C 106.626579 29.74792 107.089412 29.136637 107.089412 28.499337 
C 107.089412 27.862038 106.626579 27.250755 105.802846 26.800117 
C 104.979114 26.349478 103.861736 26.096276 102.696803 26.096276 
C 101.531869 26.096276 100.414491 26.349478 99.590759 26.800117 
C 98.767027 27.250755 98.304194 27.862038 98.304194 28.499337 
C 98.304194 29.136637 98.767027 29.74792 99.590759 30.198558 
C 100.414491 30.649197 101.531869 30.902399 102.696803 30.902399 
z
" style="fill:#0000ff;opacity:0.2;stroke:#0000ff;stroke-linejoin:miter;stroke-width:2;"/>
   </g>
   <g id="[&quot;g_s&quot;:14,&quot;g_t&quot;:5,&quot;coords&quot;:[[99.0, -71.0],[121.5, -72.0]],&quot;certainty&quot;:11]">
    <path clip-path="url(#p23c2e9c118)" d="M 86.224519 30.501889 
C 87.389453 30.501889 88.50683 30.248687 89.330563 29.798048 
C 90.154295 29.34741 90.617128 28.736127 90.617128 28.098827 
C 90.617128 27.461528 90.154295 26.850245 89.330563 26.399606 
C 88.50683 25.948968 87.389453 25.695766 86.224519 25.695766 
C 85.059586 25.695766 83.942208 25.948968 83.118476 26.399606 
C 82.294743 26.850245 81.83191 27.461528 81.83191 28.098827 
C 81.83191 28.736127 82.294743 29.34741 83.118476 29.798048 
C 83.942208 30.248687 85.059586 30.501889 86.224519 30.501889 
z
" style="fill:#ff0000;opacity:0.2;stroke:#ff0000;stroke-linejoin:miter;stroke-width:2;"/>
   </g>
   <g id="patch_49">
    <path d="M 102.696803 28.499337 
Q 95.460017 28.323381 90.343925 28.198987 
" style="fill:none;opacity:0.5;stroke:#ff0000;stroke-linecap:round;stroke-width:3;"/>
    <path d="M 91.807021 29.735005 
L 90.343925 28.198987 
L 91.879942 26.735891 
" style="fill:none;opacity:0.5;stroke:#ff0000;stroke-linecap:round;stroke-width:3;"/>
   </g>
   <g id="[&quot;g_s&quot;:6,&quot;g_t&quot;:1,&quot;coords&quot;:[[227.5, -75.0],[219.0, -74.0]],&quot;certainty&quot;:10]">
    <path clip-path="url(#p23c2e9c118)" d="M 180.299561 31.903674 
C 181.367416 31.903674 182.391679 31.671573 183.146767 31.258487 
C 183.901855 30.845402 184.326119 30.285059 184.326119 29.700868 
C 184.326119 29.116677 183.901855 28.556334 183.146767 28.143249 
C 182.391679 27.730163 181.367416 27.498062 180.299561 27.498062 
C 179.231705 27.498062 178.207442 27.730163 177.452354 28.143249 
C 176.697266 28.556334 176.273003 29.116677 176.273003 29.700868 
C 176.273003 30.285059 176.697266 30.845402 177.452354 31.258487 
C 178.207442 31.671573 179.231705 31.903674 180.299561 31.903674 
z
" style="fill:#0000ff;opacity:0.2;stroke:#0000ff;stroke-linejoin:miter;stroke-width:2;"/>
   </g>
   <g id="[&quot;g_s&quot;:1,&quot;g_t&quot;:6,&quot;coords&quot;:[[219.0, -74.0],[227.5, -75.0]],&quot;certainty&quot;:10]">
    <path clip-path="url(#p23c2e9c118)" d="M 174.076698 31.503164 
C 175.144554 31.503164 176.168817 31.271063 176.923905 30.857977 
C 177.678993 30.444892 178.103256 29.884549 178.103256 29.300358 
C 178.103256 28.716167 177.678993 28.155824 176.923905 27.742739 
C 176.168817 27.329653 175.144554 27.097552 174.076698 27.097552 
C 173.008842 27.097552 171.984579 27.329653 171.229491 27.742739 
C 170.474403 28.155824 170.05014 28.716167 170.05014 29.300358 
C 170.05014 29.884549 170.474403 30.444892 171.229491 30.857977 
C 171.984579 31.271063 173.008842 31.503164 174.076698 31.503164 
z
" style="fill:#ff0000;opacity:0.2;stroke:#ff0000;stroke-linejoin:miter;stroke-width:2;"/>
   </g>
   <g id="patch_50">
    <path d="M 180.299561 29.700868 
Q 178.186279 29.564855 178.013526 29.553736 
" style="fill:none;opacity:0.5;stroke:#ff0000;stroke-linecap:round;stroke-width:2.75;"/>
    <path d="M 179.414086 31.146982 
L 178.013526 29.553736 
L 179.606771 28.153176 
" style="fill:none;opacity:0.5;stroke:#ff0000;stroke-linecap:round;stroke-width:2.75;"/>
   </g>
   <g id="[&quot;g_s&quot;:7,&quot;g_t&quot;:2,&quot;coords&quot;:[[396.5, -75.0],[411.0, -74.0]],&quot;certainty&quot;:4]">
    <path clip-path="url(#p23c2e9c118)" d="M 304.024713 30.702144 
C 304.510102 30.702144 304.975676 30.596643 305.318898 30.408877 
C 305.662119 30.221111 305.854967 29.96641 305.854967 29.700868 
C 305.854967 29.435327 305.662119 29.180626 305.318898 28.992859 
C 304.975676 28.805093 304.510102 28.699593 304.024713 28.699593 
C 303.539324 28.699593 303.07375 28.805093 302.730528 28.992859 
C 302.387306 29.180626 302.194459 29.435327 302.194459 29.700868 
C 302.194459 29.96641 302.387306 30.221111 302.730528 30.408877 
C 303.07375 30.596643 303.539324 30.702144 304.024713 30.702144 
z
" style="fill:#0000ff;opacity:0.2;stroke:#0000ff;stroke-linejoin:miter;stroke-width:2;"/>
   </g>
   <g id="[&quot;g_s&quot;:2,&quot;g_t&quot;:7,&quot;coords&quot;:[[411.0, -74.0],[396.5, -75.0]],&quot;certainty&quot;:4]">
    <path clip-path="url(#p23c2e9c118)" d="M 314.640184 30.301633 
C 315.125573 30.301633 315.591147 30.196133 315.934369 30.008367 
C 316.277591 29.820601 316.470438 29.565899 316.470438 29.300358 
C 316.470438 29.034817 316.277591 28.780115 315.934369 28.592349 
C 315.591147 28.404583 315.125573 28.299082 314.640184 28.299082 
C 314.154795 28.299082 313.689221 28.404583 313.346 28.592349 
C 313.002778 28.780115 312.809931 29.034817 312.809931 29.300358 
C 312.809931 29.565899 313.002778 29.820601 313.346 30.008367 
C 313.689221 30.196133 314.154795 30.301633 314.640184 30.301633 
z
" style="fill:#ff0000;opacity:0.2;stroke:#ff0000;stroke-linejoin:miter;stroke-width:2;"/>
   </g>
   <g id="patch_51">
    <path d="M 304.024713 29.700868 
Q 308.333361 29.538308 311.758753 29.409071 
" style="fill:none;opacity:0.5;stroke:#ff0000;stroke-linecap:round;stroke-width:1.25;"/>
    <path d="M 310.203267 27.966691 
L 311.758753 29.409071 
L 310.316373 30.964558 
" style="fill:none;opacity:0.5;stroke:#ff0000;stroke-linecap:round;stroke-width:1.25;"/>
   </g>
   <g id="[&quot;g_s&quot;:8,&quot;g_t&quot;:3,&quot;coords&quot;:[[530.5, -72.0],[556.0, -71.0]],&quot;certainty&quot;:4]">
    <path clip-path="url(#p23c2e9c118)" d="M 402.126313 29.500613 
C 402.611702 29.500613 403.077276 29.395112 403.420497 29.207346 
C 403.763719 29.01958 403.956566 28.764879 403.956566 28.499337 
C 403.956566 28.233796 403.763719 27.979095 403.420497 27.791329 
C 403.077276 27.603563 402.611702 27.498062 402.126313 27.498062 
C 401.640924 27.498062 401.17535 27.603563 400.832128 27.791329 
C 400.488906 27.979095 400.296059 28.233796 400.296059 28.499337 
C 400.296059 28.764879 400.488906 29.01958 400.832128 29.207346 
C 401.17535 29.395112 401.640924 29.500613 402.126313 29.500613 
z
" style="fill:#0000ff;opacity:0.2;stroke:#0000ff;stroke-linejoin:miter;stroke-width:2;"/>
   </g>
   <g id="[&quot;g_s&quot;:3,&quot;g_t&quot;:8,&quot;coords&quot;:[[556.0, -71.0],[530.5, -72.0]],&quot;certainty&quot;:4]">
    <path clip-path="url(#p23c2e9c118)" d="M 420.794901 29.100103 
C 421.28029 29.100103 421.745864 28.994602 422.089085 28.806836 
C 422.432307 28.61907 422.625154 28.364369 422.625154 28.098827 
C 422.625154 27.833286 422.432307 27.578585 422.089085 27.390819 
C 421.745864 27.203052 421.28029 27.097552 420.794901 27.097552 
C 420.309512 27.097552 419.843938 27.203052 419.500716 27.390819 
C 419.157494 27.578585 418.964647 27.833286 418.964647 28.098827 
C 418.964647 28.364369 419.157494 28.61907 419.500716 28.806836 
C 419.843938 28.994602 420.309512 29.100103 420.794901 29.100103 
z
" style="fill:#ff0000;opacity:0.2;stroke:#ff0000;stroke-linejoin:miter;stroke-width:2;"/>
   </g>
   <g id="patch_52">
    <path d="M 402.126313 28.499337 
Q 410.460178 28.320545 417.910364 28.160711 
" style="fill:none;opacity:0.5;stroke:#ff0000;stroke-linecap:round;stroke-width:1.25;"/>
    <path d="M 416.378535 26.693229 
L 417.910364 28.160711 
L 416.442882 29.692539 
" style="fill:none;opacity:0.5;stroke:#ff0000;stroke-linecap:round;stroke-width:1.25;"/>
   </g>
   <g id="[&quot;g_s&quot;:9,&quot;g_t&quot;:4,&quot;coords&quot;:[[537.5, -81.0],[565.0, -87.0]],&quot;certainty&quot;:9]">
    <path clip-path="url(#p23c2e9c118)" d="M 407.251023 34.106481 
C 408.221801 34.106481 409.152949 33.895479 409.839393 33.519947 
C 410.525836 33.144415 410.911531 32.635012 410.911531 32.10393 
C 410.911531 31.572847 410.525836 31.063444 409.839393 30.687912 
C 409.152949 30.31238 408.221801 30.101378 407.251023 30.101378 
C 406.280245 30.101378 405.349097 30.31238 404.662653 30.687912 
C 403.97621 31.063444 403.590516 31.572847 403.590516 32.10393 
C 403.590516 32.635012 403.97621 33.144415 404.662653 33.519947 
C 405.349097 33.895479 406.280245 34.106481 407.251023 34.106481 
z
" style="fill:#0000ff;opacity:0.2;stroke:#0000ff;stroke-linejoin:miter;stroke-width:2;"/>
   </g>
   <g id="[&quot;g_s&quot;:4,&quot;g_t&quot;:9,&quot;coords&quot;:[[565.0, -87.0],[537.5, -81.0]],&quot;certainty&quot;:9]">
    <path clip-path="url(#p23c2e9c118)" d="M 427.383814 36.509542 
C 428.354592 36.509542 429.28574 36.298541 429.972184 35.923008 
C 430.658627 35.547476 431.044322 35.038074 431.044322 34.506991 
C 431.044322 33.975908 430.658627 33.466506 429.972184 33.090973 
C 429.28574 32.715441 428.354592 32.50444 427.383814 32.50444 
C 426.413036 32.50444 425.481888 32.715441 424.795444 33.090973 
C 424.109001 33.466506 423.723307 33.975908 423.723307 34.506991 
C 423.723307 35.038074 424.109001 35.547476 424.795444 35.923008 
C 425.481888 36.298541 426.413036 36.509542 427.383814 36.509542 
z
" style="fill:#ff0000;opacity:0.2;stroke:#ff0000;stroke-linejoin:miter;stroke-width:2;"/>
   </g>
   <g id="patch_53">
    <path d="M 407.251023 32.10393 
Q 416.322084 33.186656 423.637838 34.059869 
" style="fill:none;opacity:0.5;stroke:#ff0000;stroke-linecap:round;stroke-width:2.5;"/>
    <path d="M 422.326189 32.392662 
L 423.637838 34.059869 
L 421.970631 35.371518 
" style="fill:none;opacity:0.5;stroke:#ff0000;stroke-linecap:round;stroke-width:2.5;"/>
   </g>
   <g id="[&quot;g_s&quot;:10,&quot;g_t&quot;:5,&quot;coords&quot;:[[443.5, -252.0],[466.0, -252.0]],&quot;certainty&quot;:11]">
    <path clip-path="url(#p23c2e9c118)" d="M 338.433483 102.994239 
C 339.598416 102.994239 340.715794 102.741037 341.539526 102.290399 
C 342.363259 101.83976 342.826092 101.228477 342.826092 100.591178 
C 342.826092 99.953878 342.363259 99.342596 341.539526 98.891957 
C 340.715794 98.441318 339.598416 98.188116 338.433483 98.188116 
C 337.268549 98.188116 336.151172 98.441318 335.327439 98.891957 
C 334.503707 99.342596 334.040874 99.953878 334.040874 100.591178 
C 334.040874 101.228477 334.503707 101.83976 335.327439 102.290399 
C 336.151172 102.741037 337.268549 102.994239 338.433483 102.994239 
z
" style="fill:#0000ff;opacity:0.2;stroke:#0000ff;stroke-linejoin:miter;stroke-width:2;"/>
   </g>
   <g id="[&quot;g_s&quot;:5,&quot;g_t&quot;:10,&quot;coords&quot;:[[466.0, -252.0],[443.5, -252.0]],&quot;certainty&quot;:11]">
    <path clip-path="url(#p23c2e9c118)" d="M 354.905766 102.994239 
C 356.0707 102.994239 357.188078 102.741037 358.01181 102.290399 
C 358.835542 101.83976 359.298375 101.228477 359.298375 100.591178 
C 359.298375 99.953878 358.835542 99.342596 358.01181 98.891957 
C 357.188078 98.441318 356.0707 98.188116 354.905766 98.188116 
C 353.740833 98.188116 352.623455 98.441318 351.799723 98.891957 
C 350.97599 99.342596 350.513157 99.953878 350.513157 100.591178 
C 350.513157 101.228477 350.97599 101.83976 351.799723 102.290399 
C 352.623455 102.741037 353.740833 102.994239 354.905766 102.994239 
z
" style="fill:#ff0000;opacity:0.2;stroke:#ff0000;stroke-linejoin:miter;stroke-width:2;"/>
   </g>
   <g id="patch_54">
    <path d="M 338.433483 100.591178 
Q 345.670269 100.591178 350.785734 100.591178 
" style="fill:none;opacity:0.5;stroke:#ff0000;stroke-linecap:round;stroke-width:3;"/>
    <path d="M 349.285734 99.091178 
L 350.785734 100.591178 
L 349.285734 102.091178 
" style="fill:none;opacity:0.5;stroke:#ff0000;stroke-linecap:round;stroke-width:3;"/>
   </g>
   <g id="[&quot;g_s&quot;:11,&quot;g_t&quot;:6,&quot;coords&quot;:[[188.5, -765.0],[178.0, -762.0]],&quot;certainty&quot;:11]">
    <path clip-path="url(#p23c2e9c118)" d="M 151.747603 308.455984 
C 152.912536 308.455984 154.029914 308.202782 154.853646 307.752144 
C 155.677379 307.301505 156.140212 306.690222 156.140212 306.052923 
C 156.140212 305.415623 155.677379 304.80434 154.853646 304.353702 
C 154.029914 303.903063 152.912536 303.649861 151.747603 303.649861 
C 150.582669 303.649861 149.465291 303.903063 148.641559 304.353702 
C 147.817827 304.80434 147.354994 305.415623 147.354994 306.052923 
C 147.354994 306.690222 147.817827 307.301505 148.641559 307.752144 
C 149.465291 308.202782 150.582669 308.455984 151.747603 308.455984 
z
" style="fill:#0000ff;opacity:0.2;stroke:#0000ff;stroke-linejoin:miter;stroke-width:2;"/>
   </g>
   <g id="[&quot;g_s&quot;:6,&quot;g_t&quot;:11,&quot;coords&quot;:[[178.0, -762.0],[188.5, -765.0]],&quot;certainty&quot;:11]">
    <path clip-path="url(#p23c2e9c118)" d="M 144.060537 307.254453 
C 145.22547 307.254453 146.342848 307.001252 147.16658 306.550613 
C 147.990313 306.099974 148.453146 305.488691 148.453146 304.851392 
C 148.453146 304.214093 147.990313 303.60281 147.16658 303.152171 
C 146.342848 302.701532 145.22547 302.448331 144.060537 302.448331 
C 142.895603 302.448331 141.778226 302.701532 140.954493 303.152171 
C 140.130761 303.60281 139.667928 304.214093 139.667928 304.851392 
C 139.667928 305.488691 140.130761 306.099974 140.954493 306.550613 
C 141.778226 307.001252 142.895603 307.254453 144.060537 307.254453 
z
" style="fill:#ff0000;opacity:0.2;stroke:#ff0000;stroke-linejoin:miter;stroke-width:2;"/>
   </g>
   <g id="patch_55">
    <path d="M 151.747603 306.052923 
Q 148.893104 305.606749 148.134477 305.488171 
" style="fill:none;opacity:0.5;stroke:#ff0000;stroke-linecap:round;stroke-width:3;"/>
    <path d="M 149.384837 307.201822 
L 148.134477 305.488171 
L 149.848128 304.237811 
" style="fill:none;opacity:0.5;stroke:#ff0000;stroke-linecap:round;stroke-width:3;"/>
   </g>
   <g id="[&quot;g_s&quot;:12,&quot;g_t&quot;:7,&quot;coords&quot;:[[154.5, -746.0],[130.0, -731.0]],&quot;certainty&quot;:9]">
    <path clip-path="url(#p23c2e9c118)" d="M 126.856152 300.44578 
C 127.82693 300.44578 128.758078 300.234778 129.444522 299.859246 
C 130.130965 299.483714 130.516659 298.974311 130.516659 298.443228 
C 130.516659 297.912146 130.130965 297.402743 129.444522 297.027211 
C 128.758078 296.651679 127.82693 296.440677 126.856152 296.440677 
C 125.885374 296.440677 124.954226 296.651679 124.267782 297.027211 
C 123.581339 297.402743 123.195644 297.912146 123.195644 298.443228 
C 123.195644 298.974311 123.581339 299.483714 124.267782 299.859246 
C 124.954226 300.234778 125.885374 300.44578 126.856152 300.44578 
z
" style="fill:#0000ff;opacity:0.2;stroke:#0000ff;stroke-linejoin:miter;stroke-width:2;"/>
   </g>
   <g id="[&quot;g_s&quot;:7,&quot;g_t&quot;:12,&quot;coords&quot;:[[130.0, -731.0],[154.5, -746.0]],&quot;certainty&quot;:9]">
    <path clip-path="url(#p23c2e9c118)" d="M 108.919665 294.438126 
C 109.890443 294.438126 110.821591 294.227125 111.508035 293.851593 
C 112.194479 293.47606 112.580173 292.966658 112.580173 292.435575 
C 112.580173 291.904492 112.194479 291.39509 111.508035 291.019558 
C 110.821591 290.644025 109.890443 290.433024 108.919665 290.433024 
C 107.948887 290.433024 107.017739 290.644025 106.331296 291.019558 
C 105.644852 291.39509 105.259158 291.904492 105.259158 292.435575 
C 105.259158 292.966658 105.644852 293.47606 106.331296 293.851593 
C 107.017739 294.227125 107.948887 294.438126 108.919665 294.438126 
z
" style="fill:#ff0000;opacity:0.2;stroke:#ff0000;stroke-linejoin:miter;stroke-width:2;"/>
   </g>
   <g id="patch_56">
    <path d="M 126.856152 298.443228 
Q 118.835968 295.756945 112.492024 293.632102 
" style="fill:none;opacity:0.5;stroke:#ff0000;stroke-linecap:round;stroke-width:2.5;"/>
    <path d="M 113.437964 295.530838 
L 112.492024 293.632102 
L 114.39076 292.686163 
" style="fill:none;opacity:0.5;stroke:#ff0000;stroke-linecap:round;stroke-width:2.5;"/>
   </g>
   <g id="[&quot;g_s&quot;:13,&quot;g_t&quot;:9,&quot;coords&quot;:[[437.5, -174.0],[426.0, -195.0]],&quot;certainty&quot;:5]">
    <path clip-path="url(#p23c2e9c118)" d="M 334.040874 70.552911 
C 334.623341 70.552911 335.18203 70.42631 335.593896 70.200991 
C 336.005762 69.975671 336.237178 69.67003 336.237178 69.35138 
C 336.237178 69.032731 336.005762 68.727089 335.593896 68.50177 
C 335.18203 68.276451 334.623341 68.14985 334.040874 68.14985 
C 333.458407 68.14985 332.899718 68.276451 332.487852 68.50177 
C 332.075986 68.727089 331.844569 69.032731 331.844569 69.35138 
C 331.844569 69.67003 332.075986 69.975671 332.487852 70.200991 
C 332.899718 70.42631 333.458407 70.552911 334.040874 70.552911 
z
" style="fill:#0000ff;opacity:0.2;stroke:#0000ff;stroke-linejoin:miter;stroke-width:2;"/>
   </g>
   <g id="[&quot;g_s&quot;:9,&quot;g_t&quot;:13,&quot;coords&quot;:[[426.0, -195.0],[437.5, -174.0]],&quot;certainty&quot;:5]">
    <path clip-path="url(#p23c2e9c118)" d="M 325.621707 78.963626 
C 326.204174 78.963626 326.762862 78.837025 327.174729 78.611706 
C 327.586595 78.386386 327.818011 78.080745 327.818011 77.762095 
C 327.818011 77.443445 327.586595 77.137804 327.174729 76.912485 
C 326.762862 76.687165 326.204174 76.560564 325.621707 76.560564 
C 325.03924 76.560564 324.480551 76.687165 324.068685 76.912485 
C 323.656819 77.137804 323.425402 77.443445 323.425402 77.762095 
C 323.425402 78.080745 323.656819 78.386386 324.068685 78.611706 
C 324.480551 78.837025 325.03924 78.963626 325.621707 78.963626 
z
" style="fill:#ff0000;opacity:0.2;stroke:#ff0000;stroke-linejoin:miter;stroke-width:2;"/>
   </g>
   <g id="patch_57">
    <path d="M 334.040874 69.35138 
Q 330.539397 72.849342 327.788296 75.597681 
" style="fill:none;opacity:0.5;stroke:#ff0000;stroke-linecap:round;stroke-width:1.5;"/>
    <path d="M 329.909616 75.598747 
L 327.788296 75.597681 
L 327.789361 73.476361 
" style="fill:none;opacity:0.5;stroke:#ff0000;stroke-linecap:round;stroke-width:1.5;"/>
   </g>
   <g id="patch_58">
    <path clip-path="url(#p23c2e9c118)" d="M 177.188129 31.503164 
C 178.158907 31.503164 179.090055 31.292163 179.776499 30.916631 
C 180.462943 30.541098 180.848637 30.031696 180.848637 29.500613 
C 180.848637 28.96953 180.462943 28.460128 179.776499 28.084596 
C 179.090055 27.709063 178.158907 27.498062 177.188129 27.498062 
C 176.217351 27.498062 175.286203 27.709063 174.59976 28.084596 
C 173.913316 28.460128 173.527622 28.96953 173.527622 29.500613 
C 173.527622 30.031696 173.913316 30.541098 174.59976 30.916631 
C 175.286203 31.292163 176.217351 31.503164 177.188129 31.503164 
z
" style="fill:#008000;opacity:0.2;stroke:#008000;stroke-linejoin:miter;stroke-width:2;"/>
   </g>
   <g id="patch_59">
    <path clip-path="url(#p23c2e9c118)" d="M 309.332449 31.503164 
C 310.303227 31.503164 311.234375 31.292163 311.920818 30.916631 
C 312.607262 30.541098 312.992956 30.031696 312.992956 29.500613 
C 312.992956 28.96953 312.607262 28.460128 311.920818 28.084596 
C 311.234375 27.709063 310.303227 27.498062 309.332449 27.498062 
C 308.361671 27.498062 307.430523 27.709063 306.744079 28.084596 
C 306.057635 28.460128 305.671941 28.96953 305.671941 29.500613 
C 305.671941 30.031696 306.057635 30.541098 306.744079 30.916631 
C 307.430523 31.292163 308.361671 31.503164 309.332449 31.503164 
z
" style="fill:#008000;opacity:0.2;stroke:#008000;stroke-linejoin:miter;stroke-width:2;"/>
   </g>
   <g id="patch_60">
    <path clip-path="url(#p23c2e9c118)" d="M 411.460607 30.301633 
C 412.431385 30.301633 413.362533 30.090632 414.048976 29.7151 
C 414.73542 29.339568 415.121114 28.830165 415.121114 28.299082 
C 415.121114 27.768 414.73542 27.258597 414.048976 26.883065 
C 413.362533 26.507533 412.431385 26.296531 411.460607 26.296531 
C 410.489829 26.296531 409.558681 26.507533 408.872237 26.883065 
C 408.185793 27.258597 407.800099 27.768 407.800099 28.299082 
C 407.800099 28.830165 408.185793 29.339568 408.872237 29.7151 
C 409.558681 30.090632 410.489829 30.301633 411.460607 30.301633 
z
" style="fill:#008000;opacity:0.2;stroke:#008000;stroke-linejoin:miter;stroke-width:2;"/>
   </g>
   <g id="patch_61">
    <path clip-path="url(#p23c2e9c118)" d="M 417.317419 35.308011 
C 418.288196 35.308011 419.219345 35.09701 419.905788 34.721478 
C 420.592232 34.345945 420.977926 33.836543 420.977926 33.30546 
C 420.977926 32.774377 420.592232 32.264975 419.905788 31.889443 
C 419.219345 31.51391 418.288196 31.302909 417.317419 31.302909 
C 416.346641 31.302909 415.415493 31.51391 414.729049 31.889443 
C 414.042605 32.264975 413.656911 32.774377 413.656911 33.30546 
C 413.656911 33.836543 414.042605 34.345945 414.729049 34.721478 
C 415.415493 35.09701 416.346641 35.308011 417.317419 35.308011 
z
" style="fill:#008000;opacity:0.2;stroke:#008000;stroke-linejoin:miter;stroke-width:2;"/>
   </g>
   <g id="patch_62">
    <path clip-path="url(#p23c2e9c118)" d="M 346.669625 102.593729 
C 347.640403 102.593729 348.571551 102.382728 349.257994 102.007195 
C 349.944438 101.631663 350.330132 101.122261 350.330132 100.591178 
C 350.330132 100.060095 349.944438 99.550693 349.257994 99.17516 
C 348.571551 98.799628 347.640403 98.588627 346.669625 98.588627 
C 345.698847 98.588627 344.767699 98.799628 344.081255 99.17516 
C 343.394811 99.550693 343.009117 100.060095 343.009117 100.591178 
C 343.009117 101.122261 343.394811 101.631663 344.081255 102.007195 
C 344.767699 102.382728 345.698847 102.593729 346.669625 102.593729 
z
" style="fill:#008000;opacity:0.2;stroke:#008000;stroke-linejoin:miter;stroke-width:2;"/>
   </g>
   <g id="patch_63">
    <path clip-path="url(#p23c2e9c118)" d="M 147.90407 307.454709 
C 148.874848 307.454709 149.805996 307.243707 150.492439 306.868175 
C 151.178883 306.492643 151.564577 305.98324 151.564577 305.452157 
C 151.564577 304.921075 151.178883 304.411672 150.492439 304.03614 
C 149.805996 303.660608 148.874848 303.449606 147.90407 303.449606 
C 146.933292 303.449606 146.002144 303.660608 145.3157 304.03614 
C 144.629256 304.411672 144.243562 304.921075 144.243562 305.452157 
C 144.243562 305.98324 144.629256 306.492643 145.3157 306.868175 
C 146.002144 307.243707 146.933292 307.454709 147.90407 307.454709 
z
" style="fill:#008000;opacity:0.2;stroke:#008000;stroke-linejoin:miter;stroke-width:2;"/>
   </g>
   <g id="patch_64">
    <path clip-path="url(#p23c2e9c118)" d="M 117.887909 297.441953 
C 118.858687 297.441953 119.789835 297.230951 120.476278 296.855419 
C 121.162722 296.479887 121.548416 295.970485 121.548416 295.439402 
C 121.548416 294.908319 121.162722 294.398917 120.476278 294.023384 
C 119.789835 293.647852 118.858687 293.436851 117.887909 293.436851 
C 116.917131 293.436851 115.985983 293.647852 115.299539 294.023384 
C 114.613095 294.398917 114.227401 294.908319 114.227401 295.439402 
C 114.227401 295.970485 114.613095 296.479887 115.299539 296.855419 
C 115.985983 297.230951 116.917131 297.441953 117.887909 297.441953 
z
" style="fill:#008000;opacity:0.2;stroke:#008000;stroke-linejoin:miter;stroke-width:2;"/>
   </g>
   <g id="patch_65">
    <path clip-path="url(#p23c2e9c118)" d="M 329.83129 75.559289 
C 330.802068 75.559289 331.733216 75.348287 332.41966 74.972755 
C 333.106104 74.597223 333.491798 74.08782 333.491798 73.556738 
C 333.491798 73.025655 333.106104 72.516252 332.41966 72.14072 
C 331.733216 71.765188 330.802068 71.554187 329.83129 71.554187 
C 328.860512 71.554187 327.929364 71.765188 327.242921 72.14072 
C 326.556477 72.516252 326.170783 73.025655 326.170783 73.556738 
C 326.170783 74.08782 326.556477 74.597223 327.242921 74.972755 
C 327.929364 75.348287 328.860512 75.559289 329.83129 75.559289 
z
" style="fill:#008000;opacity:0.2;stroke:#008000;stroke-linejoin:miter;stroke-width:2;"/>
   </g>
   <g id="patch_66">
    <path clip-path="url(#p23c2e9c118)" d="M 311.162702 64.945768 
C 312.13348 64.945768 313.064628 64.734766 313.751072 64.359234 
C 314.437516 63.983702 314.82321 63.4743 314.82321 62.943217 
C 314.82321 62.412134 314.437516 61.902732 313.751072 61.527199 
C 313.064628 61.151667 312.13348 60.940666 311.162702 60.940666 
C 310.191924 60.940666 309.260776 61.151667 308.574333 61.527199 
C 307.887889 61.902732 307.502195 62.412134 307.502195 62.943217 
C 307.502195 63.4743 307.887889 63.983702 308.574333 64.359234 
C 309.260776 64.734766 310.191924 64.945768 311.162702 64.945768 
z
" style="fill:#008000;opacity:0.2;stroke:#008000;stroke-linejoin:miter;stroke-width:2;"/>
   </g>
   <g id="patch_67">
    <path clip-path="url(#p23c2e9c118)" d="M 87.871747 84.971279 
C 88.842525 84.971279 89.773673 84.760278 90.460117 84.384745 
C 91.146561 84.009213 91.532255 83.499811 91.532255 82.968728 
C 91.532255 82.437645 91.146561 81.928243 90.460117 81.55271 
C 89.773673 81.177178 88.842525 80.966177 87.871747 80.966177 
C 86.90097 80.966177 85.969821 81.177178 85.283378 81.55271 
C 84.596934 81.928243 84.21124 82.437645 84.21124 82.968728 
C 84.21124 83.499811 84.596934 84.009213 85.283378 84.384745 
C 85.969821 84.760278 86.90097 84.971279 87.871747 84.971279 
z
" style="fill:#008000;opacity:0.2;stroke:#008000;stroke-linejoin:miter;stroke-width:2;"/>
   </g>
   <g id="patch_68">
    <path clip-path="url(#p23c2e9c118)" d="M 67.738956 81.967452 
C 68.709734 81.967452 69.640882 81.756451 70.327326 81.380919 
C 71.01377 81.005387 71.399464 80.495984 71.399464 79.964901 
C 71.399464 79.433819 71.01377 78.924416 70.327326 78.548884 
C 69.640882 78.173352 68.709734 77.96235 67.738956 77.96235 
C 66.768179 77.96235 65.83703 78.173352 65.150587 78.548884 
C 64.464143 78.924416 64.078449 79.433819 64.078449 79.964901 
C 64.078449 80.495984 64.464143 81.005387 65.150587 81.380919 
C 65.83703 81.756451 66.768179 81.967452 67.738956 81.967452 
z
" style="fill:#008000;opacity:0.2;stroke:#008000;stroke-linejoin:miter;stroke-width:2;"/>
   </g>
   <g id="patch_69">
    <path clip-path="url(#p23c2e9c118)" d="M 94.460661 30.301633 
C 95.431439 30.301633 96.362587 30.090632 97.049031 29.7151 
C 97.735474 29.339568 98.121168 28.830165 98.121168 28.299082 
C 98.121168 27.768 97.735474 27.258597 97.049031 26.883065 
C 96.362587 26.507533 95.431439 26.296531 94.460661 26.296531 
C 93.489883 26.296531 92.558735 26.507533 91.872291 26.883065 
C 91.185848 27.258597 90.800153 27.768 90.800153 28.299082 
C 90.800153 28.830165 91.185848 29.339568 91.872291 29.7151 
C 92.558735 30.090632 93.489883 30.301633 94.460661 30.301633 
z
" style="fill:#008000;opacity:0.2;stroke:#008000;stroke-linejoin:miter;stroke-width:2;"/>
   </g>
   <g id="patch_70">
    <path clip-path="url(#p23c2e9c118)" d="M 174.076698 37.310562 
C 177.95981 37.310562 181.684402 36.466557 184.430177 34.964428 
C 187.175951 33.462299 188.718728 31.424689 188.718728 29.300358 
C 188.718728 27.176027 187.175951 25.138417 184.430177 23.636288 
C 181.684402 22.134159 177.95981 21.290153 174.076698 21.290153 
C 170.193586 21.290153 166.468994 22.134159 163.723219 23.636288 
C 160.977445 25.138417 159.434668 27.176027 159.434668 29.300358 
C 159.434668 31.424689 160.977445 33.462299 163.723219 34.964428 
C 166.468994 36.466557 170.193586 37.310562 174.076698 37.310562 
z
" style="fill:none;opacity:0.2;stroke:#ff0000;stroke-linejoin:miter;stroke-width:2;"/>
   </g>
   <g id="patch_71">
    <path clip-path="url(#p23c2e9c118)" d="M 317.934641 62.542707 
C 321.817753 62.542707 325.542345 61.698701 328.28812 60.196572 
C 331.033894 58.694443 332.576671 56.656833 332.576671 54.532502 
C 332.576671 52.408171 331.033894 50.370561 328.28812 48.868432 
C 325.542345 47.366303 321.817753 46.522298 317.934641 46.522298 
C 314.051529 46.522298 310.326937 47.366303 307.581163 48.868432 
C 304.835388 50.370561 303.292611 52.408171 303.292611 54.532502 
C 303.292611 56.656833 304.835388 58.694443 307.581163 60.196572 
C 310.326937 61.698701 314.051529 62.542707 317.934641 62.542707 
z
" style="fill:none;opacity:0.2;stroke:#0000ff;stroke-linejoin:miter;stroke-width:2;"/>
   </g>
   <g id="patch_72">
    <path clip-path="url(#p23c2e9c118)" d="M 174.076698 33.30546 
C 176.018254 33.30546 177.88055 32.883457 179.253437 32.132393 
C 180.626325 31.381328 181.397713 30.362523 181.397713 29.300358 
C 181.397713 28.238192 180.626325 27.219387 179.253437 26.468323 
C 177.88055 25.717259 176.018254 25.295256 174.076698 25.295256 
C 172.135142 25.295256 170.272846 25.717259 168.899959 26.468323 
C 167.527071 27.219387 166.755683 28.238192 166.755683 29.300358 
C 166.755683 30.362523 167.527071 31.381328 168.899959 32.132393 
C 170.272846 32.883457 172.135142 33.30546 174.076698 33.30546 
z
" style="fill:none;opacity:0.2;stroke:#008000;stroke-linejoin:miter;stroke-width:2;"/>
   </g>
   <g id="patch_73">
    <path clip-path="url(#p23c2e9c118)" d="M 180.299561 33.70597 
C 182.241117 33.70597 184.103413 33.283968 185.4763 32.532903 
C 186.849187 31.781839 187.620576 30.763034 187.620576 29.700868 
C 187.620576 28.638703 186.849187 27.619898 185.4763 26.868833 
C 184.103413 26.117769 182.241117 25.695766 180.299561 25.695766 
C 178.358005 25.695766 176.495709 26.117769 175.122821 26.868833 
C 173.749934 27.619898 172.978546 28.638703 172.978546 29.700868 
C 172.978546 30.763034 173.749934 31.781839 175.122821 32.532903 
C 176.495709 33.283968 178.358005 33.70597 180.299561 33.70597 
z
" style="fill:none;opacity:0.2;stroke:#008000;stroke-linejoin:miter;stroke-width:2;"/>
   </g>
   <g id="patch_74">
    <path d="M 177.188129 29.500613 
Q 243.260289 29.500613 309.332449 29.500613 
" style="fill:none;opacity:0.5;stroke:#008000;stroke-linecap:round;stroke-width:2;"/>
   </g>
   <g id="patch_75">
    <path d="M 175.487992 29.39119 
Q 176.18998 29.436371 176.891968 29.481552 
" style="fill:none;opacity:0.5;stroke:#800080;stroke-linecap:round;stroke-width:2;"/>
    <path d="M 176.888552 30.984435 
L 175.487992 29.39119 
L 177.081237 27.99063 
" style="fill:none;opacity:0.5;stroke:#800080;stroke-linecap:round;stroke-width:2;"/>
    <path d="M 175.491407 27.888307 
L 176.891968 29.481552 
L 175.298723 30.882112 
" style="fill:none;opacity:0.5;stroke:#800080;stroke-linecap:round;stroke-width:2;"/>
   </g>
   <g id="patch_76">
    <path d="M 309.332449 29.500613 
Q 360.396528 28.899848 411.460607 28.299082 
" style="fill:none;opacity:0.5;stroke:#008000;stroke-linecap:round;stroke-width:2;"/>
   </g>
   <g id="patch_77">
    <path d="M 313.226976 29.353677 
Q 310.331537 29.462919 307.436097 29.57216 
" style="fill:none;opacity:0.5;stroke:#800080;stroke-linecap:round;stroke-width:2;"/>
    <path d="M 311.67149 27.911296 
L 313.226976 29.353677 
L 311.784596 30.909163 
" style="fill:none;opacity:0.5;stroke:#800080;stroke-linecap:round;stroke-width:2;"/>
    <path d="M 308.991583 31.014541 
L 307.436097 29.57216 
L 308.878477 28.016674 
" style="fill:none;opacity:0.5;stroke:#800080;stroke-linecap:round;stroke-width:2;"/>
   </g>
   <g id="patch_78">
    <path d="M 411.460607 28.299082 
Q 414.389013 30.802271 417.317419 33.30546 
" style="fill:none;opacity:0.5;stroke:#008000;stroke-linecap:round;stroke-width:2;"/>
   </g>
   <g id="patch_79">
    <path d="M 419.381012 28.12916 
Q 412.461035 28.277619 405.541058 28.426079 
" style="fill:none;opacity:0.5;stroke:#800080;stroke-linecap:round;stroke-width:2;"/>
    <path d="M 417.849184 26.661679 
L 419.381012 28.12916 
L 417.913531 29.660988 
" style="fill:none;opacity:0.5;stroke:#800080;stroke-linecap:round;stroke-width:2;"/>
    <path d="M 407.072886 29.89356 
L 405.541058 28.426079 
L 407.00854 26.894251 
" style="fill:none;opacity:0.5;stroke:#800080;stroke-linecap:round;stroke-width:2;"/>
   </g>
   <g id="patch_80">
    <path d="M 417.317419 33.30546 
Q 381.993522 66.948319 346.669625 100.591178 
" style="fill:none;opacity:0.5;stroke:#008000;stroke-linecap:round;stroke-width:2;"/>
   </g>
   <g id="patch_81">
    <path d="M 425.979568 34.339379 
Q 418.312753 33.424264 410.645938 32.509148 
" style="fill:none;opacity:0.5;stroke:#800080;stroke-linecap:round;stroke-width:2;"/>
    <path d="M 424.66792 32.672173 
L 425.979568 34.339379 
L 424.312362 35.651028 
" style="fill:none;opacity:0.5;stroke:#800080;stroke-linecap:round;stroke-width:2;"/>
    <path d="M 411.957587 34.176355 
L 410.645938 32.509148 
L 412.313144 31.1975 
" style="fill:none;opacity:0.5;stroke:#800080;stroke-linecap:round;stroke-width:2;"/>
   </g>
   <g id="patch_82">
    <path d="M 346.669625 100.591178 
Q 247.286847 203.021668 147.90407 305.452157 
" style="fill:none;opacity:0.5;stroke:#008000;stroke-linecap:round;stroke-width:2;"/>
   </g>
   <g id="patch_83">
    <path d="M 353.491553 100.591178 
Q 347.668981 100.591178 341.846409 100.591178 
" style="fill:none;opacity:0.5;stroke:#800080;stroke-linecap:round;stroke-width:2;"/>
    <path d="M 351.991553 99.091178 
L 353.491553 100.591178 
L 351.991553 102.091178 
" style="fill:none;opacity:0.5;stroke:#800080;stroke-linecap:round;stroke-width:2;"/>
    <path d="M 343.346409 102.091178 
L 341.846409 100.591178 
L 343.346409 99.091178 
" style="fill:none;opacity:0.5;stroke:#800080;stroke-linecap:round;stroke-width:2;"/>
   </g>
   <g id="patch_84">
    <path d="M 147.90407 305.452157 
Q 132.895989 300.44578 117.887909 295.439402 
" style="fill:none;opacity:0.5;stroke:#008000;stroke-linecap:round;stroke-width:2;"/>
   </g>
   <g id="patch_85">
    <path d="M 145.457785 305.06979 
Q 146.915036 305.297566 148.372286 305.525342 
" style="fill:none;opacity:0.5;stroke:#800080;stroke-linecap:round;stroke-width:2;"/>
    <path d="M 146.708145 306.783441 
L 145.457785 305.06979 
L 147.171436 303.81943 
" style="fill:none;opacity:0.5;stroke:#800080;stroke-linecap:round;stroke-width:2;"/>
    <path d="M 147.121926 303.811691 
L 148.372286 305.525342 
L 146.658635 306.775702 
" style="fill:none;opacity:0.5;stroke:#800080;stroke-linecap:round;stroke-width:2;"/>
   </g>
   <g id="patch_86">
    <path d="M 117.887909 295.439402 
Q 223.859599 184.49807 329.83129 73.556738 
" style="fill:none;opacity:0.5;stroke:#008000;stroke-linecap:round;stroke-width:2;"/>
   </g>
   <g id="patch_87">
    <path d="M 110.260658 292.884728 
Q 116.93985 295.121859 123.619041 297.358989 
" style="fill:none;opacity:0.5;stroke:#800080;stroke-linecap:round;stroke-width:2;"/>
    <path d="M 111.206598 294.783464 
L 110.260658 292.884728 
L 112.159394 291.938788 
" style="fill:none;opacity:0.5;stroke:#800080;stroke-linecap:round;stroke-width:2;"/>
    <path d="M 122.673102 295.460253 
L 123.619041 297.358989 
L 121.720305 298.304929 
" style="fill:none;opacity:0.5;stroke:#800080;stroke-linecap:round;stroke-width:2;"/>
   </g>
   <g id="patch_88">
    <path d="M 329.83129 73.556738 
Q 320.496996 68.249977 311.162702 62.943217 
" style="fill:none;opacity:0.5;stroke:#008000;stroke-linecap:round;stroke-width:2;"/>
   </g>
   <g id="patch_89">
    <path d="M 326.622209 76.762597 
Q 329.123184 74.264133 331.624159 71.765669 
" style="fill:none;opacity:0.5;stroke:#800080;stroke-linecap:round;stroke-width:2;"/>
    <path d="M 328.743529 76.763663 
L 326.622209 76.762597 
L 326.623274 74.641277 
" style="fill:none;opacity:0.5;stroke:#800080;stroke-linecap:round;stroke-width:2;"/>
    <path d="M 329.502839 71.764603 
L 331.624159 71.765669 
L 331.623094 73.886989 
" style="fill:none;opacity:0.5;stroke:#800080;stroke-linecap:round;stroke-width:2;"/>
   </g>
   <g id="patch_90">
    <path d="M 311.162702 62.943217 
Q 235.756249 62.943217 160.349795 62.943217 
" style="fill:none;opacity:0.5;stroke:#008000;stroke-linecap:round;stroke-width:2;"/>
   </g>
   <g id="patch_91">
    <path d="M 305.277675 70.252392 
Q 310.535273 63.722481 315.792871 57.19257 
" style="fill:none;opacity:0.5;stroke:#800080;stroke-linecap:round;stroke-width:2;"/>
    <path d="M 307.386745 70.024745 
L 305.277675 70.252392 
L 305.050027 68.143322 
" style="fill:none;opacity:0.5;stroke:#800080;stroke-linecap:round;stroke-width:2;"/>
    <path d="M 313.683801 57.420217 
L 315.792871 57.19257 
L 316.020519 59.30164 
" style="fill:none;opacity:0.5;stroke:#800080;stroke-linecap:round;stroke-width:2;"/>
   </g>
   <g id="patch_92">
    <path d="M 160.349795 62.943217 
Q 124.110771 72.955972 87.871747 82.968728 
" style="fill:none;opacity:0.5;stroke:#008000;stroke-linecap:round;stroke-width:2;"/>
   </g>
   <g id="patch_93">
    <path d="M 150.314804 70.50299 
Q 159.549796 63.545889 168.784789 56.588788 
" style="fill:none;opacity:0.5;stroke:#800080;stroke-linecap:round;stroke-width:2;"/>
    <path d="M 152.41544 70.798506 
L 150.314804 70.50299 
L 150.61032 68.402354 
" style="fill:none;opacity:0.5;stroke:#800080;stroke-linecap:round;stroke-width:2;"/>
    <path d="M 166.684153 56.293272 
L 168.784789 56.588788 
L 168.489273 58.689424 
" style="fill:none;opacity:0.5;stroke:#800080;stroke-linecap:round;stroke-width:2;"/>
   </g>
   <g id="patch_94">
    <path d="M 87.871747 82.968728 
Q 77.805352 81.466815 67.738956 79.964901 
" style="fill:none;opacity:0.5;stroke:#008000;stroke-linecap:round;stroke-width:2;"/>
   </g>
   <g id="patch_95">
    <path d="M 83.345172 89.800039 
Q 87.318426 83.803776 91.291681 77.807513 
" style="fill:none;opacity:0.5;stroke:#800080;stroke-linecap:round;stroke-width:2;"/>
    <path d="M 85.424122 89.37818 
L 83.345172 89.800039 
L 82.923312 87.721089 
" style="fill:none;opacity:0.5;stroke:#800080;stroke-linecap:round;stroke-width:2;"/>
    <path d="M 89.212731 78.229372 
L 91.291681 77.807513 
L 91.71354 79.886463 
" style="fill:none;opacity:0.5;stroke:#800080;stroke-linecap:round;stroke-width:2;"/>
   </g>
   <g id="patch_96">
    <path d="M 67.738956 79.964901 
Q 81.099809 54.131992 94.460661 28.299082 
" style="fill:none;opacity:0.5;stroke:#008000;stroke-linecap:round;stroke-width:2;"/>
   </g>
   <g id="patch_97">
    <path d="M 58.768471 87.281503 
Q 66.963579 80.597323 75.158686 73.913143 
" style="fill:none;opacity:0.5;stroke:#800080;stroke-linecap:round;stroke-width:2;"/>
    <path d="M 60.878938 87.495812 
L 58.768471 87.281503 
L 58.98278 85.171036 
" style="fill:none;opacity:0.5;stroke:#800080;stroke-linecap:round;stroke-width:2;"/>
    <path d="M 73.048219 73.698834 
L 75.158686 73.913143 
L 74.944377 76.02361 
" style="fill:none;opacity:0.5;stroke:#800080;stroke-linecap:round;stroke-width:2;"/>
   </g>
   <g id="patch_98">
    <path d="M 94.460661 28.299082 
Q 135.824395 28.899848 177.188129 29.500613 
" style="fill:none;opacity:0.5;stroke:#008000;stroke-linecap:round;stroke-width:2;"/>
   </g>
   <g id="patch_99">
    <path d="M 87.638315 28.133203 
Q 93.461305 28.274784 99.284295 28.416365 
" style="fill:none;opacity:0.5;stroke:#800080;stroke-linecap:round;stroke-width:2;"/>
    <path d="M 89.101411 29.66922 
L 87.638315 28.133203 
L 89.174332 26.670106 
" style="fill:none;opacity:0.5;stroke:#800080;stroke-linecap:round;stroke-width:2;"/>
    <path d="M 97.821198 26.880348 
L 99.284295 28.416365 
L 97.748277 29.879461 
" style="fill:none;opacity:0.5;stroke:#800080;stroke-linecap:round;stroke-width:2;"/>
   </g>
   <g id="line2d_1">
    <path clip-path="url(#p23c2e9c118)" d="M 174.076698 29.300358 
L 314.640184 29.300358 
L 420.794901 28.098827 
L 427.383814 34.506991 
L 354.905766 100.591178 
L 144.060537 304.851392 
L 108.919665 292.435575 
L 301.462358 109.402403 
L 325.621707 77.762095 
L 304.390764 71.353931 
L 149.185247 71.353931 
L 82.564012 90.978932 
L 57.672561 88.175361 
L 86.224519 28.098827 
" style="fill:none;stroke:#ff0000;stroke-linecap:square;stroke-width:0.2;"/>
   </g>
   <g id="line2d_2">
    <path clip-path="url(#p23c2e9c118)" d="M 317.934641 54.532502 
L 171.514343 54.532502 
L 93.179483 74.958523 
L 77.805352 71.754442 
L 102.696803 28.499337 
L 180.299561 29.700868 
L 304.024713 29.700868 
L 402.126313 28.499337 
L 407.251023 32.10393 
L 338.433483 100.591178 
L 151.747603 306.052923 
L 126.856152 298.443228 
L 334.040874 69.35138 
" style="fill:none;stroke:#0000ff;stroke-linecap:square;stroke-width:0.2;"/>
   </g>
  </g>
 </g>
 <defs>
  <clipPath id="p23c2e9c118">
   <rect height="307.51175" width="409.903625" x="37.576375" y="13.32"/>
  </clipPath>
 </defs>
</svg>
