<?xml version="1.0" encoding="utf-8" standalone="no"?>
<!DOCTYPE svg PUBLIC "-//W3C//DTD SVG 1.1//EN"
  "http://www.w3.org/Graphics/SVG/1.1/DTD/svg11.dtd">
<!-- Created with matplotlib (http://matplotlib.org/) -->
<svg height="345.6pt" version="1.1" viewBox="0 0 460.8 345.6" width="460.8pt" xmlns="http://www.w3.org/2000/svg" xmlns:xlink="http://www.w3.org/1999/xlink">
 <defs>
  <style type="text/css">
*{stroke-linecap:butt;stroke-linejoin:round;}
  </style>
 </defs>
 <g id="figure_1">
  <g id="patch_1">
   <path d="M 0 345.6 
L 460.8 345.6 
L 460.8 0 
L 0 0 
z
" style="fill:#ffffff;"/>
  </g>
  <g id="axes_1">
   <g id="patch_2">
    <path clip-path="url(#p2ba343060c)" d="M 181.152244 31.180531 
C 181.733568 31.180531 182.291162 31.044161 182.70222 30.801456 
C 183.113279 30.558751 183.344242 30.229526 183.344242 29.88629 
C 183.344242 29.543053 183.113279 29.213828 182.70222 28.971123 
C 182.291162 28.728418 181.733568 28.592048 181.152244 28.592048 
C 180.570919 28.592048 180.013326 28.728418 179.602267 28.971123 
C 179.191208 29.213828 178.960246 29.543053 178.960246 29.88629 
C 178.960246 30.229526 179.191208 30.558751 179.602267 30.801456 
C 180.013326 31.044161 180.570919 31.180531 181.152244 31.180531 
z
" style="fill:#ff0000;opacity:0.2;stroke:#ff0000;stroke-linejoin:miter;stroke-width:2;"/>
   </g>
   <g id="patch_3">
    <path clip-path="url(#p2ba343060c)" d="M 317.056119 31.180531 
C 317.637444 31.180531 318.195037 31.044161 318.606096 30.801456 
C 319.017155 30.558751 319.248117 30.229526 319.248117 29.88629 
C 319.248117 29.543053 319.017155 29.213828 318.606096 28.971123 
C 318.195037 28.728418 317.637444 28.592048 317.056119 28.592048 
C 316.474795 28.592048 315.917201 28.728418 315.506143 28.971123 
C 315.095084 29.213828 314.864121 29.543053 314.864121 29.88629 
C 314.864121 30.229526 315.095084 30.558751 315.506143 30.801456 
C 315.917201 31.044161 316.474795 31.180531 317.056119 31.180531 
z
" style="fill:#ff0000;opacity:0.2;stroke:#ff0000;stroke-linejoin:miter;stroke-width:2;"/>
   </g>
   <g id="patch_4">
    <path clip-path="url(#p2ba343060c)" d="M 421.176024 29.88629 
C 421.757349 29.88629 422.314942 29.74992 422.726001 29.507215 
C 423.137059 29.26451 423.368022 28.935285 423.368022 28.592048 
C 423.368022 28.248811 423.137059 27.919586 422.726001 27.676881 
C 422.314942 27.434176 421.757349 27.297807 421.176024 27.297807 
C 420.594699 27.297807 420.037106 27.434176 419.626047 27.676881 
C 419.214989 27.919586 418.984026 28.248811 418.984026 28.592048 
C 418.984026 28.935285 419.214989 29.26451 419.626047 29.507215 
C 420.037106 29.74992 420.594699 29.88629 421.176024 29.88629 
z
" style="fill:#ff0000;opacity:0.2;stroke:#ff0000;stroke-linejoin:miter;stroke-width:2;"/>
   </g>
   <g id="patch_5">
    <path clip-path="url(#p2ba343060c)" d="M 426.656019 37.004617 
C 427.237344 37.004617 427.794937 36.868248 428.205996 36.625543 
C 428.617054 36.382838 428.848017 36.053613 428.848017 35.710376 
C 428.848017 35.367139 428.617054 35.037914 428.205996 34.795209 
C 427.794937 34.552504 427.237344 34.416134 426.656019 34.416134 
C 426.074694 34.416134 425.517101 34.552504 425.106042 34.795209 
C 424.694984 35.037914 424.464021 35.367139 424.464021 35.710376 
C 424.464021 36.053613 424.694984 36.382838 425.106042 36.625543 
C 425.517101 36.868248 426.074694 37.004617 426.656019 37.004617 
z
" style="fill:#ff0000;opacity:0.2;stroke:#ff0000;stroke-linejoin:miter;stroke-width:2;"/>
   </g>
   <g id="patch_6">
    <path clip-path="url(#p2ba343060c)" d="M 357.608082 101.069565 
C 358.189407 101.069565 358.747 100.933196 359.158059 100.690491 
C 359.569117 100.447785 359.80008 100.11856 359.80008 99.775324 
C 359.80008 99.432087 359.569117 99.102862 359.158059 98.860157 
C 358.747 98.617452 358.189407 98.481082 357.608082 98.481082 
C 357.026758 98.481082 356.469164 98.617452 356.058106 98.860157 
C 355.647047 99.102862 355.416084 99.432087 355.416084 99.775324 
C 355.416084 100.11856 355.647047 100.447785 356.058106 100.690491 
C 356.469164 100.933196 357.026758 101.069565 357.608082 101.069565 
z
" style="fill:#ff0000;opacity:0.2;stroke:#ff0000;stroke-linejoin:miter;stroke-width:2;"/>
   </g>
   <g id="patch_7">
    <path clip-path="url(#p2ba343060c)" d="M 151.560271 301.676978 
C 152.141595 301.676978 152.699189 301.540608 153.110247 301.297903 
C 153.521306 301.055198 153.752269 300.725973 153.752269 300.382736 
C 153.752269 300.039499 153.521306 299.710275 153.110247 299.467569 
C 152.699189 299.224864 152.141595 299.088495 151.560271 299.088495 
C 150.978946 299.088495 150.421353 299.224864 150.010294 299.467569 
C 149.599235 299.710275 149.368273 300.039499 149.368273 300.382736 
C 149.368273 300.725973 149.599235 301.055198 150.010294 301.297903 
C 150.421353 301.540608 150.978946 301.676978 151.560271 301.676978 
z
" style="fill:#ff0000;opacity:0.2;stroke:#ff0000;stroke-linejoin:miter;stroke-width:2;"/>
   </g>
   <g id="patch_8">
    <path clip-path="url(#p2ba343060c)" d="M 106.624312 285.498961 
C 107.205636 285.498961 107.76323 285.362591 108.174288 285.119886 
C 108.585347 284.877181 108.81631 284.547956 108.81631 284.204719 
C 108.81631 283.861482 108.585347 283.532257 108.174288 283.289552 
C 107.76323 283.046847 107.205636 282.910478 106.624312 282.910478 
C 106.042987 282.910478 105.485394 283.046847 105.074335 283.289552 
C 104.663277 283.532257 104.432314 283.861482 104.432314 284.204719 
C 104.432314 284.547956 104.663277 284.877181 105.074335 285.119886 
C 105.485394 285.362591 106.042987 285.498961 106.624312 285.498961 
z
" style="fill:#ff0000;opacity:0.2;stroke:#ff0000;stroke-linejoin:miter;stroke-width:2;"/>
   </g>
   <g id="patch_9">
    <path clip-path="url(#p2ba343060c)" d="M 281.984151 119.836065 
C 282.565476 119.836065 283.123069 119.699695 283.534128 119.45699 
C 283.945187 119.214285 284.176149 118.88506 284.176149 118.541824 
C 284.176149 118.198587 283.945187 117.869362 283.534128 117.626657 
C 283.123069 117.383952 282.565476 117.247582 281.984151 117.247582 
C 281.402827 117.247582 280.845233 117.383952 280.434175 117.626657 
C 280.023116 117.869362 279.792153 118.198587 279.792153 118.541824 
C 279.792153 118.88506 280.023116 119.214285 280.434175 119.45699 
C 280.845233 119.699695 281.402827 119.836065 281.984151 119.836065 
z
" style="fill:#ff0000;opacity:0.2;stroke:#ff0000;stroke-linejoin:miter;stroke-width:2;"/>
   </g>
   <g id="patch_10">
    <path clip-path="url(#p2ba343060c)" d="M 302.808132 90.068513 
C 303.389457 90.068513 303.94705 89.932144 304.358109 89.689439 
C 304.769168 89.446734 305.00013 89.117509 305.00013 88.774272 
C 305.00013 88.431035 304.769168 88.10181 304.358109 87.859105 
C 303.94705 87.6164 303.389457 87.480031 302.808132 87.480031 
C 302.226808 87.480031 301.669214 87.6164 301.258156 87.859105 
C 300.847097 88.10181 300.616134 88.431035 300.616134 88.774272 
C 300.616134 89.117509 300.847097 89.446734 301.258156 89.689439 
C 301.669214 89.932144 302.226808 90.068513 302.808132 90.068513 
z
" style="fill:#ff0000;opacity:0.2;stroke:#ff0000;stroke-linejoin:miter;stroke-width:2;"/>
   </g>
   <g id="patch_11">
    <path clip-path="url(#p2ba343060c)" d="M 281.984151 84.244427 
C 282.565476 84.244427 283.123069 84.108058 283.534128 83.865353 
C 283.945187 83.622648 284.176149 83.293423 284.176149 82.950186 
C 284.176149 82.606949 283.945187 82.277724 283.534128 82.035019 
C 283.123069 81.792314 282.565476 81.655944 281.984151 81.655944 
C 281.402827 81.655944 280.845233 81.792314 280.434175 82.035019 
C 280.023116 82.277724 279.792153 82.606949 279.792153 82.950186 
C 279.792153 83.293423 280.023116 83.622648 280.434175 83.865353 
C 280.845233 84.108058 281.402827 84.244427 281.984151 84.244427 
z
" style="fill:#ff0000;opacity:0.2;stroke:#ff0000;stroke-linejoin:miter;stroke-width:2;"/>
   </g>
   <g id="patch_12">
    <path clip-path="url(#p2ba343060c)" d="M 163.61626 84.244427 
C 164.197584 84.244427 164.755178 84.108058 165.166236 83.865353 
C 165.577295 83.622648 165.808258 83.293423 165.808258 82.950186 
C 165.808258 82.606949 165.577295 82.277724 165.166236 82.035019 
C 164.755178 81.792314 164.197584 81.655944 163.61626 81.655944 
C 163.034935 81.655944 162.477342 81.792314 162.066283 82.035019 
C 161.655224 82.277724 161.424262 82.606949 161.424262 82.950186 
C 161.424262 83.293423 161.655224 83.622648 162.066283 83.865353 
C 162.477342 84.108058 163.034935 84.244427 163.61626 84.244427 
z
" style="fill:#ff0000;opacity:0.2;stroke:#ff0000;stroke-linejoin:miter;stroke-width:2;"/>
   </g>
   <g id="patch_13">
    <path clip-path="url(#p2ba343060c)" d="M 91.280326 108.835013 
C 91.861651 108.835013 92.419244 108.698644 92.830303 108.455939 
C 93.241361 108.213234 93.472324 107.884009 93.472324 107.540772 
C 93.472324 107.197535 93.241361 106.86831 92.830303 106.625605 
C 92.419244 106.3829 91.861651 106.246531 91.280326 106.246531 
C 90.699001 106.246531 90.141408 106.3829 89.730349 106.625605 
C 89.319291 106.86831 89.088328 107.197535 89.088328 107.540772 
C 89.088328 107.884009 89.319291 108.213234 89.730349 108.455939 
C 90.141408 108.698644 90.699001 108.835013 91.280326 108.835013 
z
" style="fill:#ff0000;opacity:0.2;stroke:#ff0000;stroke-linejoin:miter;stroke-width:2;"/>
   </g>
   <g id="patch_14">
    <path clip-path="url(#p2ba343060c)" d="M 58.400356 104.952289 
C 58.981681 104.952289 59.539274 104.81592 59.950333 104.573215 
C 60.361391 104.33051 60.592354 104.001285 60.592354 103.658048 
C 60.592354 103.314811 60.361391 102.985586 59.950333 102.742881 
C 59.539274 102.500176 58.981681 102.363806 58.400356 102.363806 
C 57.819031 102.363806 57.261438 102.500176 56.850379 102.742881 
C 56.439321 102.985586 56.208358 103.314811 56.208358 103.658048 
C 56.208358 104.001285 56.439321 104.33051 56.850379 104.573215 
C 57.261438 104.81592 57.819031 104.952289 58.400356 104.952289 
z
" style="fill:#ff0000;opacity:0.2;stroke:#ff0000;stroke-linejoin:miter;stroke-width:2;"/>
   </g>
   <g id="patch_15">
    <path clip-path="url(#p2ba343060c)" d="M 93.472324 29.88629 
C 94.053649 29.88629 94.611242 29.74992 95.022301 29.507215 
C 95.433359 29.26451 95.664322 28.935285 95.664322 28.592048 
C 95.664322 28.248811 95.433359 27.919586 95.022301 27.676881 
C 94.611242 27.434176 94.053649 27.297807 93.472324 27.297807 
C 92.890999 27.297807 92.333406 27.434176 91.922347 27.676881 
C 91.511289 27.919586 91.280326 28.248811 91.280326 28.592048 
C 91.280326 28.935285 91.511289 29.26451 91.922347 29.507215 
C 92.333406 29.74992 92.890999 29.88629 93.472324 29.88629 
z
" style="fill:#ff0000;opacity:0.2;stroke:#ff0000;stroke-linejoin:miter;stroke-width:2;"/>
   </g>
   <g id="patch_16">
    <path clip-path="url(#p2ba343060c)" d="M 305.54813 70.007772 
C 306.129455 70.007772 306.687048 69.871403 307.098106 69.628698 
C 307.509165 69.385992 307.740128 69.056768 307.740128 68.713531 
C 307.740128 68.370294 307.509165 68.041069 307.098106 67.798364 
C 306.687048 67.555659 306.129455 67.419289 305.54813 67.419289 
C 304.966805 67.419289 304.409212 67.555659 303.998153 67.798364 
C 303.587095 68.041069 303.356132 68.370294 303.356132 68.713531 
C 303.356132 69.056768 303.587095 69.385992 303.998153 69.628698 
C 304.409212 69.871403 304.966805 70.007772 305.54813 70.007772 
z
" style="fill:#0000ff;opacity:0.2;stroke:#0000ff;stroke-linejoin:miter;stroke-width:2;"/>
   </g>
   <g id="patch_17">
    <path clip-path="url(#p2ba343060c)" d="M 170.740253 70.007772 
C 171.321578 70.007772 171.879171 69.871403 172.29023 69.628698 
C 172.701288 69.385992 172.932251 69.056768 172.932251 68.713531 
C 172.932251 68.370294 172.701288 68.041069 172.29023 67.798364 
C 171.879171 67.555659 171.321578 67.419289 170.740253 67.419289 
C 170.158929 67.419289 169.601335 67.555659 169.190277 67.798364 
C 168.779218 68.041069 168.548255 68.370294 168.548255 68.713531 
C 168.548255 69.056768 168.779218 69.385992 169.190277 69.628698 
C 169.601335 69.871403 170.158929 70.007772 170.740253 70.007772 
z
" style="fill:#0000ff;opacity:0.2;stroke:#0000ff;stroke-linejoin:miter;stroke-width:2;"/>
   </g>
   <g id="patch_18">
    <path clip-path="url(#p2ba343060c)" d="M 94.020323 90.715634 
C 94.601648 90.715634 95.159241 90.579265 95.5703 90.33656 
C 95.981359 90.093854 96.212321 89.76463 96.212321 89.421393 
C 96.212321 89.078156 95.981359 88.748931 95.5703 88.506226 
C 95.159241 88.263521 94.601648 88.127151 94.020323 88.127151 
C 93.438999 88.127151 92.881405 88.263521 92.470347 88.506226 
C 92.059288 88.748931 91.828325 89.078156 91.828325 89.421393 
C 91.828325 89.76463 92.059288 90.093854 92.470347 90.33656 
C 92.881405 90.579265 93.438999 90.715634 94.020323 90.715634 
z
" style="fill:#0000ff;opacity:0.2;stroke:#0000ff;stroke-linejoin:miter;stroke-width:2;"/>
   </g>
   <g id="patch_19">
    <path clip-path="url(#p2ba343060c)" d="M 73.196342 86.185789 
C 73.777667 86.185789 74.33526 86.04942 74.746319 85.806715 
C 75.157378 85.56401 75.38834 85.234785 75.38834 84.891548 
C 75.38834 84.548311 75.157378 84.219086 74.746319 83.976381 
C 74.33526 83.733676 73.777667 83.597307 73.196342 83.597307 
C 72.615018 83.597307 72.057424 83.733676 71.646366 83.976381 
C 71.235307 84.219086 71.004344 84.548311 71.004344 84.891548 
C 71.004344 85.234785 71.235307 85.56401 71.646366 85.806715 
C 72.057424 86.04942 72.615018 86.185789 73.196342 86.185789 
z
" style="fill:#0000ff;opacity:0.2;stroke:#0000ff;stroke-linejoin:miter;stroke-width:2;"/>
   </g>
   <g id="patch_20">
    <path clip-path="url(#p2ba343060c)" d="M 100.596317 35.710376 
C 101.177642 35.710376 101.735235 35.574006 102.146294 35.331301 
C 102.557353 35.088596 102.788315 34.759371 102.788315 34.416134 
C 102.788315 34.072898 102.557353 33.743673 102.146294 33.500968 
C 101.735235 33.258262 101.177642 33.121893 100.596317 33.121893 
C 100.014993 33.121893 99.457399 33.258262 99.046341 33.500968 
C 98.635282 33.743673 98.404319 34.072898 98.404319 34.416134 
C 98.404319 34.759371 98.635282 35.088596 99.046341 35.331301 
C 99.457399 35.574006 100.014993 35.710376 100.596317 35.710376 
z
" style="fill:#0000ff;opacity:0.2;stroke:#0000ff;stroke-linejoin:miter;stroke-width:2;"/>
   </g>
   <g id="patch_21">
    <path clip-path="url(#p2ba343060c)" d="M 179.508245 37.004617 
C 180.08957 37.004617 180.647163 36.868248 181.058222 36.625543 
C 181.46928 36.382838 181.700243 36.053613 181.700243 35.710376 
C 181.700243 35.367139 181.46928 35.037914 181.058222 34.795209 
C 180.647163 34.552504 180.08957 34.416134 179.508245 34.416134 
C 178.92692 34.416134 178.369327 34.552504 177.958269 34.795209 
C 177.54721 35.037914 177.316247 35.367139 177.316247 35.710376 
C 177.316247 36.053613 177.54721 36.382838 177.958269 36.625543 
C 178.369327 36.868248 178.92692 37.004617 179.508245 37.004617 
z
" style="fill:#0000ff;opacity:0.2;stroke:#0000ff;stroke-linejoin:miter;stroke-width:2;"/>
   </g>
   <g id="patch_22">
    <path clip-path="url(#p2ba343060c)" d="M 305.54813 37.004617 
C 306.129455 37.004617 306.687048 36.868248 307.098106 36.625543 
C 307.509165 36.382838 307.740128 36.053613 307.740128 35.710376 
C 307.740128 35.367139 307.509165 35.037914 307.098106 34.795209 
C 306.687048 34.552504 306.129455 34.416134 305.54813 34.416134 
C 304.966805 34.416134 304.409212 34.552504 303.998153 34.795209 
C 303.587095 35.037914 303.356132 35.367139 303.356132 35.710376 
C 303.356132 36.053613 303.587095 36.382838 303.998153 36.625543 
C 304.409212 36.868248 304.966805 37.004617 305.54813 37.004617 
z
" style="fill:#0000ff;opacity:0.2;stroke:#0000ff;stroke-linejoin:miter;stroke-width:2;"/>
   </g>
   <g id="patch_23">
    <path clip-path="url(#p2ba343060c)" d="M 407.476037 35.710376 
C 408.057361 35.710376 408.614955 35.574006 409.026013 35.331301 
C 409.437072 35.088596 409.668035 34.759371 409.668035 34.416134 
C 409.668035 34.072898 409.437072 33.743673 409.026013 33.500968 
C 408.614955 33.258262 408.057361 33.121893 407.476037 33.121893 
C 406.894712 33.121893 406.337119 33.258262 405.92606 33.500968 
C 405.515001 33.743673 405.284039 34.072898 405.284039 34.416134 
C 405.284039 34.759371 405.515001 35.088596 405.92606 35.331301 
C 406.337119 35.574006 406.894712 35.710376 407.476037 35.710376 
z
" style="fill:#0000ff;opacity:0.2;stroke:#0000ff;stroke-linejoin:miter;stroke-width:2;"/>
   </g>
   <g id="patch_24">
    <path clip-path="url(#p2ba343060c)" d="M 411.860033 40.240221 
C 412.441357 40.240221 412.998951 40.103851 413.410009 39.861146 
C 413.821068 39.618441 414.052031 39.289216 414.052031 38.945979 
C 414.052031 38.602742 413.821068 38.273517 413.410009 38.030812 
C 412.998951 37.788107 412.441357 37.651738 411.860033 37.651738 
C 411.278708 37.651738 410.721115 37.788107 410.310056 38.030812 
C 409.898997 38.273517 409.668035 38.602742 409.668035 38.945979 
C 409.668035 39.289216 409.898997 39.618441 410.310056 39.861146 
C 410.721115 40.103851 411.278708 40.240221 411.860033 40.240221 
z
" style="fill:#0000ff;opacity:0.2;stroke:#0000ff;stroke-linejoin:miter;stroke-width:2;"/>
   </g>
   <g id="patch_25">
    <path clip-path="url(#p2ba343060c)" d="M 341.716097 104.952289 
C 342.297421 104.952289 342.855015 104.81592 343.266073 104.573215 
C 343.677132 104.33051 343.908095 104.001285 343.908095 103.658048 
C 343.908095 103.314811 343.677132 102.985586 343.266073 102.742881 
C 342.855015 102.500176 342.297421 102.363806 341.716097 102.363806 
C 341.134772 102.363806 340.577179 102.500176 340.16612 102.742881 
C 339.755062 102.985586 339.524099 103.314811 339.524099 103.658048 
C 339.524099 104.001285 339.755062 104.33051 340.16612 104.573215 
C 340.577179 104.81592 341.134772 104.952289 341.716097 104.952289 
z
" style="fill:#0000ff;opacity:0.2;stroke:#0000ff;stroke-linejoin:miter;stroke-width:2;"/>
   </g>
   <g id="patch_26">
    <path clip-path="url(#p2ba343060c)" d="M 153.204269 306.206822 
C 153.785594 306.206822 154.343187 306.070453 154.754246 305.827748 
C 155.165304 305.585043 155.396267 305.255818 155.396267 304.912581 
C 155.396267 304.569344 155.165304 304.240119 154.754246 303.997414 
C 154.343187 303.754709 153.785594 303.61834 153.204269 303.61834 
C 152.622945 303.61834 152.065351 303.754709 151.654293 303.997414 
C 151.243234 304.240119 151.012271 304.569344 151.012271 304.912581 
C 151.012271 305.255818 151.243234 305.585043 151.654293 305.827748 
C 152.065351 306.070453 152.622945 306.206822 153.204269 306.206822 
z
" style="fill:#0000ff;opacity:0.2;stroke:#0000ff;stroke-linejoin:miter;stroke-width:2;"/>
   </g>
   <g id="patch_27">
    <path clip-path="url(#p2ba343060c)" d="M 122.516297 297.147133 
C 123.097622 297.147133 123.655215 297.010763 124.066274 296.768058 
C 124.477333 296.525353 124.708295 296.196128 124.708295 295.852892 
C 124.708295 295.509655 124.477333 295.18043 124.066274 294.937725 
C 123.655215 294.69502 123.097622 294.55865 122.516297 294.55865 
C 121.934973 294.55865 121.377379 294.69502 120.966321 294.937725 
C 120.555262 295.18043 120.324299 295.509655 120.324299 295.852892 
C 120.324299 296.196128 120.555262 296.525353 120.966321 296.768058 
C 121.377379 297.010763 121.934973 297.147133 122.516297 297.147133 
z
" style="fill:#0000ff;opacity:0.2;stroke:#0000ff;stroke-linejoin:miter;stroke-width:2;"/>
   </g>
   <g id="patch_28">
    <path clip-path="url(#p2ba343060c)" d="M 306.644129 101.069565 
C 307.225454 101.069565 307.783047 100.933196 308.194105 100.690491 
C 308.605164 100.447785 308.836127 100.11856 308.836127 99.775324 
C 308.836127 99.432087 308.605164 99.102862 308.194105 98.860157 
C 307.783047 98.617452 307.225454 98.481082 306.644129 98.481082 
C 306.062804 98.481082 305.505211 98.617452 305.094152 98.860157 
C 304.683094 99.102862 304.452131 99.432087 304.452131 99.775324 
C 304.452131 100.11856 304.683094 100.447785 305.094152 100.690491 
C 305.505211 100.933196 306.062804 101.069565 306.644129 101.069565 
z
" style="fill:#0000ff;opacity:0.2;stroke:#0000ff;stroke-linejoin:miter;stroke-width:2;"/>
   </g>
   <g id="patch_29">
    <path clip-path="url(#p2ba343060c)" d="M 181.152244 29.88629 
L 317.056119 29.88629 
C 361.992078 29.88629 402.544041 29.88629 421.176024 28.592048 
C 425.56002 29.239169 426.656019 31.827652 426.656019 35.710376 
C 410.216034 53.182634 388.296054 70.007772 357.608082 99.775324 
L 151.560271 300.382736 
C 132.928288 303.61834 114.296305 296.500012 106.624312 284.204719 
L 281.984151 118.541824 
C 296.232138 104.952289 302.808132 96.53972 302.808132 88.774272 
C 302.808132 84.891548 295.136139 82.950186 281.984151 82.950186 
L 163.61626 82.950186 
C 127.448293 82.950186 105.528313 87.480031 91.280326 107.540772 
C 85.800331 113.364858 61.688353 108.835013 58.400356 103.658048 
C 78.128338 74.537617 89.088328 43.475824 93.472324 28.592048 
C 114.296305 29.239169 141.69628 29.88629 181.152244 29.88629 
" style="fill:none;stroke:#ff0000;stroke-linejoin:miter;stroke-width:0.5;"/>
   </g>
   <g id="patch_30">
    <path clip-path="url(#p2ba343060c)" d="M 305.54813 68.713531 
L 170.740253 68.713531 
C 125.804294 68.713531 112.652306 69.360651 94.020323 89.421393 
C 85.252331 92.009875 75.38834 89.421393 73.196342 84.891548 
C 85.252331 66.125048 95.116322 49.29991 100.596317 34.416134 
C 123.612296 35.063255 138.956282 35.710376 179.508245 35.710376 
L 305.54813 35.710376 
C 346.100093 35.710376 396.516047 35.710376 407.476037 34.416134 
C 410.764034 35.063255 411.860033 37.004617 411.860033 38.945979 
C 388.844054 55.771117 368.020073 75.184738 341.716097 103.658048 
L 153.204269 304.912581 
C 141.14828 306.853943 122.516297 302.971219 122.516297 295.852892 
L 306.644129 99.775324 
C 319.796117 85.538669 341.716097 68.713531 305.54813 68.713531 
" style="fill:none;stroke:#0000ff;stroke-linejoin:miter;stroke-width:0.5;"/>
   </g>
   <g id="[&quot;g_s&quot;:1,&quot;g_t&quot;:6,&quot;coords&quot;:[[194.0, 6.0],[192.5, -3.0]],&quot;certainty&quot;:6]">
    <path clip-path="url(#p2ba343060c)" d="M 181.152244 32.151212 
C 182.169562 32.151212 183.14535 31.912565 183.864703 31.487832 
C 184.584055 31.063098 184.98824 30.486954 184.98824 29.88629 
C 184.98824 29.285625 184.584055 28.709481 183.864703 28.284748 
C 183.14535 27.860014 182.169562 27.621367 181.152244 27.621367 
C 180.134925 27.621367 179.159137 27.860014 178.439785 28.284748 
C 177.720432 28.709481 177.316247 29.285625 177.316247 29.88629 
C 177.316247 30.486954 177.720432 31.063098 178.439785 31.487832 
C 179.159137 31.912565 180.134925 32.151212 181.152244 32.151212 
z
" style="fill:#0000ff;opacity:0.2;stroke:#0000ff;stroke-linejoin:miter;stroke-width:2;"/>
   </g>
   <g id="[&quot;g_s&quot;:6,&quot;g_t&quot;:1,&quot;coords&quot;:[[192.5, -3.0],[194.0, 6.0]],&quot;certainty&quot;:6]">
    <path clip-path="url(#p2ba343060c)" d="M 179.508245 37.975298 
C 180.525563 37.975298 181.501352 37.736652 182.220704 37.311918 
C 182.940057 36.887184 183.344242 36.31104 183.344242 35.710376 
C 183.344242 35.109711 182.940057 34.533568 182.220704 34.108834 
C 181.501352 33.6841 180.525563 33.445453 179.508245 33.445453 
C 178.490927 33.445453 177.515139 33.6841 176.795786 34.108834 
C 176.076433 34.533568 175.672249 35.109711 175.672249 35.710376 
C 175.672249 36.31104 176.076433 36.887184 176.795786 37.311918 
C 177.515139 37.736652 178.490927 37.975298 179.508245 37.975298 
z
" style="fill:#ff0000;opacity:0.2;stroke:#ff0000;stroke-linejoin:miter;stroke-width:2;"/>
   </g>
   <g id="patch_31">
    <path d="M 181.152244 29.88629 
Q 180.60197 31.835709 180.387858 32.594228 
" style="fill:none;opacity:0.5;stroke:#0000ff;stroke-linecap:round;stroke-width:1.75;"/>
    <path d="M 182.238939 31.558128 
L 180.387858 32.594228 
L 179.351759 30.743147 
" style="fill:none;opacity:0.5;stroke:#0000ff;stroke-linecap:round;stroke-width:1.75;"/>
   </g>
   <g id="[&quot;g_s&quot;:2,&quot;g_t&quot;:7,&quot;coords&quot;:[[318.0, 6.0],[307.5, -3.0]],&quot;certainty&quot;:3]">
    <path clip-path="url(#p2ba343060c)" d="M 317.056119 31.180531 
C 317.637444 31.180531 318.195037 31.044161 318.606096 30.801456 
C 319.017155 30.558751 319.248117 30.229526 319.248117 29.88629 
C 319.248117 29.543053 319.017155 29.213828 318.606096 28.971123 
C 318.195037 28.728418 317.637444 28.592048 317.056119 28.592048 
C 316.474795 28.592048 315.917201 28.728418 315.506143 28.971123 
C 315.095084 29.213828 314.864121 29.543053 314.864121 29.88629 
C 314.864121 30.229526 315.095084 30.558751 315.506143 30.801456 
C 315.917201 31.044161 316.474795 31.180531 317.056119 31.180531 
z
" style="fill:#0000ff;opacity:0.2;stroke:#0000ff;stroke-linejoin:miter;stroke-width:2;"/>
   </g>
   <g id="[&quot;g_s&quot;:7,&quot;g_t&quot;:2,&quot;coords&quot;:[[307.5, -3.0],[318.0, 6.0]],&quot;certainty&quot;:3]">
    <path clip-path="url(#p2ba343060c)" d="M 305.54813 37.004617 
C 306.129455 37.004617 306.687048 36.868248 307.098106 36.625543 
C 307.509165 36.382838 307.740128 36.053613 307.740128 35.710376 
C 307.740128 35.367139 307.509165 35.037914 307.098106 34.795209 
C 306.687048 34.552504 306.129455 34.416134 305.54813 34.416134 
C 304.966805 34.416134 304.409212 34.552504 303.998153 34.795209 
C 303.587095 35.037914 303.356132 35.367139 303.356132 35.710376 
C 303.356132 36.053613 303.587095 36.382838 303.998153 36.625543 
C 304.409212 36.868248 304.966805 37.004617 305.54813 37.004617 
z
" style="fill:#ff0000;opacity:0.2;stroke:#ff0000;stroke-linejoin:miter;stroke-width:2;"/>
   </g>
   <g id="patch_32">
    <path d="M 317.056119 29.88629 
Q 312.194162 32.346881 307.963116 34.488174 
" style="fill:none;opacity:0.5;stroke:#0000ff;stroke-linecap:round;"/>
    <path d="M 309.978814 35.149204 
L 307.963116 34.488174 
L 308.624147 32.472476 
" style="fill:none;opacity:0.5;stroke:#0000ff;stroke-linecap:round;"/>
   </g>
   <g id="[&quot;g_s&quot;:3,&quot;g_t&quot;:8,&quot;coords&quot;:[[413.0, 8.0],[400.5, -1.0]],&quot;certainty&quot;:2]">
    <path clip-path="url(#p2ba343060c)" d="M 421.176024 29.562729 
C 421.612018 29.562729 422.030213 29.460452 422.338507 29.278423 
C 422.646801 29.096395 422.820023 28.849476 422.820023 28.592048 
C 422.820023 28.334621 422.646801 28.087702 422.338507 27.905673 
C 422.030213 27.723644 421.612018 27.621367 421.176024 27.621367 
C 420.740031 27.621367 420.321836 27.723644 420.013542 27.905673 
C 419.705248 28.087702 419.532026 28.334621 419.532026 28.592048 
C 419.532026 28.849476 419.705248 29.096395 420.013542 29.278423 
C 420.321836 29.460452 420.740031 29.562729 421.176024 29.562729 
z
" style="fill:#0000ff;opacity:0.2;stroke:#0000ff;stroke-linejoin:miter;stroke-width:2;"/>
   </g>
   <g id="[&quot;g_s&quot;:8,&quot;g_t&quot;:3,&quot;coords&quot;:[[400.5, -1.0],[413.0, 8.0]],&quot;certainty&quot;:2]">
    <path clip-path="url(#p2ba343060c)" d="M 407.476037 35.386815 
C 407.91203 35.386815 408.330225 35.284538 408.638519 35.10251 
C 408.946813 34.920481 409.120035 34.673562 409.120035 34.416134 
C 409.120035 34.158707 408.946813 33.911788 408.638519 33.729759 
C 408.330225 33.54773 407.91203 33.445453 407.476037 33.445453 
C 407.040043 33.445453 406.621848 33.54773 406.313554 33.729759 
C 406.00526 33.911788 405.832038 34.158707 405.832038 34.416134 
C 405.832038 34.673562 406.00526 34.920481 406.313554 35.10251 
C 406.621848 35.284538 407.040043 35.386815 407.476037 35.386815 
z
" style="fill:#ff0000;opacity:0.2;stroke:#ff0000;stroke-linejoin:miter;stroke-width:2;"/>
   </g>
   <g id="patch_33">
    <path d="M 421.176024 28.592048 
Q 415.247502 31.112359 409.807038 33.425188 
" style="fill:none;opacity:0.5;stroke:#0000ff;stroke-linecap:round;stroke-width:0.75;"/>
    <path d="M 411.774323 34.21878 
L 409.807038 33.425188 
L 410.60063 31.457903 
" style="fill:none;opacity:0.5;stroke:#0000ff;stroke-linecap:round;stroke-width:0.75;"/>
   </g>
   <g id="[&quot;g_s&quot;:4,&quot;g_t&quot;:9,&quot;coords&quot;:[[418.0, -3.0],[404.5, -8.0]],&quot;certainty&quot;:11]">
    <path clip-path="url(#p2ba343060c)" d="M 426.656019 39.5931 
C 428.399993 39.5931 430.072773 39.183992 431.305949 38.455876 
C 432.539125 37.727761 433.232013 36.740086 433.232013 35.710376 
C 433.232013 34.680665 432.539125 33.69299 431.305949 32.964875 
C 430.072773 32.23676 428.399993 31.827652 426.656019 31.827652 
C 424.912045 31.827652 423.239265 32.23676 422.006089 32.964875 
C 420.772913 33.69299 420.080025 34.680665 420.080025 35.710376 
C 420.080025 36.740086 420.772913 37.727761 422.006089 38.455876 
C 423.239265 39.183992 424.912045 39.5931 426.656019 39.5931 
z
" style="fill:#0000ff;opacity:0.2;stroke:#0000ff;stroke-linejoin:miter;stroke-width:2;"/>
   </g>
   <g id="[&quot;g_s&quot;:9,&quot;g_t&quot;:4,&quot;coords&quot;:[[404.5, -8.0],[418.0, -3.0]],&quot;certainty&quot;:11]">
    <path clip-path="url(#p2ba343060c)" d="M 411.860033 42.828703 
C 413.604007 42.828703 415.276787 42.419595 416.509963 41.69148 
C 417.743138 40.963364 418.436027 39.97569 418.436027 38.945979 
C 418.436027 37.916269 417.743138 36.928594 416.509963 36.200479 
C 415.276787 35.472363 413.604007 35.063255 411.860033 35.063255 
C 410.116059 35.063255 408.443278 35.472363 407.210103 36.200479 
C 405.976927 36.928594 405.284039 37.916269 405.284039 38.945979 
C 405.284039 39.97569 405.976927 40.963364 407.210103 41.69148 
C 408.443278 42.419595 410.116059 42.828703 411.860033 42.828703 
z
" style="fill:#ff0000;opacity:0.2;stroke:#ff0000;stroke-linejoin:miter;stroke-width:2;"/>
   </g>
   <g id="patch_34">
    <path d="M 426.656019 35.710376 
Q 420.235153 37.114498 415.886635 38.065437 
" style="fill:none;opacity:0.5;stroke:#0000ff;stroke-linecap:round;stroke-width:3;"/>
    <path d="M 417.672455 39.210359 
L 415.886635 38.065437 
L 417.031557 36.279617 
" style="fill:none;opacity:0.5;stroke:#0000ff;stroke-linecap:round;stroke-width:3;"/>
   </g>
   <g id="[&quot;g_s&quot;:5,&quot;g_t&quot;:10,&quot;coords&quot;:[[355.0, -102.0],[340.5, -108.0]],&quot;certainty&quot;:11]">
    <path clip-path="url(#p2ba343060c)" d="M 357.608082 103.658048 
C 359.352056 103.658048 361.024836 103.248939 362.258012 102.520824 
C 363.491188 101.792709 364.184076 100.805034 364.184076 99.775324 
C 364.184076 98.745613 363.491188 97.757938 362.258012 97.029823 
C 361.024836 96.301708 359.352056 95.8926 357.608082 95.8926 
C 355.864108 95.8926 354.191328 96.301708 352.958152 97.029823 
C 351.724976 97.757938 351.032088 98.745613 351.032088 99.775324 
C 351.032088 100.805034 351.724976 101.792709 352.958152 102.520824 
C 354.191328 103.248939 355.864108 103.658048 357.608082 103.658048 
z
" style="fill:#0000ff;opacity:0.2;stroke:#0000ff;stroke-linejoin:miter;stroke-width:2;"/>
   </g>
   <g id="[&quot;g_s&quot;:10,&quot;g_t&quot;:5,&quot;coords&quot;:[[340.5, -108.0],[355.0, -102.0]],&quot;certainty&quot;:11]">
    <path clip-path="url(#p2ba343060c)" d="M 341.716097 107.540772 
C 343.460071 107.540772 345.132851 107.131664 346.366027 106.403548 
C 347.599203 105.675433 348.292091 104.687758 348.292091 103.658048 
C 348.292091 102.628337 347.599203 101.640662 346.366027 100.912547 
C 345.132851 100.184432 343.460071 99.775324 341.716097 99.775324 
C 339.972123 99.775324 338.299343 100.184432 337.066167 100.912547 
C 335.832991 101.640662 335.140103 102.628337 335.140103 103.658048 
C 335.140103 104.687758 335.832991 105.675433 337.066167 106.403548 
C 338.299343 107.131664 339.972123 107.540772 341.716097 107.540772 
z
" style="fill:#ff0000;opacity:0.2;stroke:#ff0000;stroke-linejoin:miter;stroke-width:2;"/>
   </g>
   <g id="patch_35">
    <path d="M 357.608082 99.775324 
Q 350.633999 101.479229 345.720624 102.679663 
" style="fill:none;opacity:0.5;stroke:#0000ff;stroke-linecap:round;stroke-width:3;"/>
    <path d="M 347.533773 103.780796 
L 345.720624 102.679663 
L 346.821756 100.866515 
" style="fill:none;opacity:0.5;stroke:#0000ff;stroke-linecap:round;stroke-width:3;"/>
   </g>
   <g id="[&quot;g_s&quot;:6,&quot;g_t&quot;:11,&quot;coords&quot;:[[167.0, -412.0],[168.5, -419.0]],&quot;certainty&quot;:13]">
    <path clip-path="url(#p2ba343060c)" d="M 151.560271 304.912581 
C 153.594907 304.912581 155.546484 304.435288 156.985189 303.58582 
C 158.423894 302.736352 159.232264 301.584065 159.232264 300.382736 
C 159.232264 299.181407 158.423894 298.02912 156.985189 297.179652 
C 155.546484 296.330185 153.594907 295.852892 151.560271 295.852892 
C 149.525634 295.852892 147.574058 296.330185 146.135352 297.179652 
C 144.696647 298.02912 143.888278 299.181407 143.888278 300.382736 
C 143.888278 301.584065 144.696647 302.736352 146.135352 303.58582 
C 147.574058 304.435288 149.525634 304.912581 151.560271 304.912581 
z
" style="fill:#0000ff;opacity:0.2;stroke:#0000ff;stroke-linejoin:miter;stroke-width:2;"/>
   </g>
   <g id="[&quot;g_s&quot;:11,&quot;g_t&quot;:6,&quot;coords&quot;:[[168.5, -419.0],[167.0, -412.0]],&quot;certainty&quot;:13]">
    <path clip-path="url(#p2ba343060c)" d="M 153.204269 309.442426 
C 155.238906 309.442426 157.190482 308.965133 158.629187 308.115665 
C 160.067893 307.266197 160.876262 306.11391 160.876262 304.912581 
C 160.876262 303.711252 160.067893 302.558965 158.629187 301.709497 
C 157.190482 300.860029 155.238906 300.382736 153.204269 300.382736 
C 151.169633 300.382736 149.218056 300.860029 147.779351 301.709497 
C 146.340646 302.558965 145.532276 303.711252 145.532276 304.912581 
C 145.532276 306.11391 146.340646 307.266197 147.779351 308.115665 
C 149.218056 308.965133 151.169633 309.442426 153.204269 309.442426 
z
" style="fill:#ff0000;opacity:0.2;stroke:#ff0000;stroke-linejoin:miter;stroke-width:2;"/>
   </g>
   <g id="patch_36">
    <path d="M 151.560271 300.382736 
Q 152.041108 301.707627 151.677634 300.706118 
" style="fill:none;opacity:0.5;stroke:#0000ff;stroke-linecap:round;stroke-width:3.5;"/>
    <path d="M 152.575916 298.784377 
L 151.677634 300.706118 
L 149.755893 299.807837 
" style="fill:none;opacity:0.5;stroke:#0000ff;stroke-linecap:round;stroke-width:3.5;"/>
   </g>
   <g id="[&quot;g_s&quot;:7,&quot;g_t&quot;:12,&quot;coords&quot;:[[126.0, -387.0],[140.5, -405.0]],&quot;certainty&quot;:7]">
    <path clip-path="url(#p2ba343060c)" d="M 106.624312 286.793202 
C 107.786961 286.793202 108.902148 286.520463 109.724265 286.035053 
C 110.546382 285.549643 111.008308 284.891193 111.008308 284.204719 
C 111.008308 283.518246 110.546382 282.859796 109.724265 282.374385 
C 108.902148 281.888975 107.786961 281.616236 106.624312 281.616236 
C 105.461663 281.616236 104.346476 281.888975 103.524359 282.374385 
C 102.702241 282.859796 102.240316 283.518246 102.240316 284.204719 
C 102.240316 284.891193 102.702241 285.549643 103.524359 286.035053 
C 104.346476 286.520463 105.461663 286.793202 106.624312 286.793202 
z
" style="fill:#0000ff;opacity:0.2;stroke:#0000ff;stroke-linejoin:miter;stroke-width:2;"/>
   </g>
   <g id="[&quot;g_s&quot;:12,&quot;g_t&quot;:7,&quot;coords&quot;:[[140.5, -405.0],[126.0, -387.0]],&quot;certainty&quot;:7]">
    <path clip-path="url(#p2ba343060c)" d="M 122.516297 298.441374 
C 123.678947 298.441374 124.794133 298.168635 125.616251 297.683225 
C 126.438368 297.197815 126.900293 296.539365 126.900293 295.852892 
C 126.900293 295.166418 126.438368 294.507968 125.616251 294.022558 
C 124.794133 293.537148 123.678947 293.264409 122.516297 293.264409 
C 121.353648 293.264409 120.238461 293.537148 119.416344 294.022558 
C 118.594227 294.507968 118.132301 295.166418 118.132301 295.852892 
C 118.132301 296.539365 118.594227 297.197815 119.416344 297.683225 
C 120.238461 298.168635 121.353648 298.441374 122.516297 298.441374 
z
" style="fill:#ff0000;opacity:0.2;stroke:#ff0000;stroke-linejoin:miter;stroke-width:2;"/>
   </g>
   <g id="patch_37">
    <path d="M 106.624312 284.204719 
Q 113.76523 289.438718 119.765515 293.836681 
" style="fill:none;opacity:0.5;stroke:#0000ff;stroke-linecap:round;stroke-width:2;"/>
    <path d="M 119.442442 291.740107 
L 119.765515 293.836681 
L 117.668941 294.159754 
" style="fill:none;opacity:0.5;stroke:#0000ff;stroke-linecap:round;stroke-width:2;"/>
   </g>
   <g id="[&quot;g_s&quot;:8,&quot;g_t&quot;:13,&quot;coords&quot;:[[286.0, -131.0],[308.5, -102.0]],&quot;certainty&quot;:7]">
    <path clip-path="url(#p2ba343060c)" d="M 281.984151 121.130306 
C 283.146801 121.130306 284.261987 120.857567 285.084105 120.372157 
C 285.906222 119.886747 286.368147 119.228297 286.368147 118.541824 
C 286.368147 117.85535 285.906222 117.1969 285.084105 116.71149 
C 284.261987 116.22608 283.146801 115.953341 281.984151 115.953341 
C 280.821502 115.953341 279.706315 116.22608 278.884198 116.71149 
C 278.062081 117.1969 277.600155 117.85535 277.600155 118.541824 
C 277.600155 119.228297 278.062081 119.886747 278.884198 120.372157 
C 279.706315 120.857567 280.821502 121.130306 281.984151 121.130306 
z
" style="fill:#0000ff;opacity:0.2;stroke:#0000ff;stroke-linejoin:miter;stroke-width:2;"/>
   </g>
   <g id="[&quot;g_s&quot;:13,&quot;g_t&quot;:8,&quot;coords&quot;:[[308.5, -102.0],[286.0, -131.0]],&quot;certainty&quot;:7]">
    <path clip-path="url(#p2ba343060c)" d="M 306.644129 102.363806 
C 307.806778 102.363806 308.921965 102.091068 309.744082 101.605657 
C 310.566199 101.120247 311.028125 100.461797 311.028125 99.775324 
C 311.028125 99.08885 310.566199 98.4304 309.744082 97.94499 
C 308.921965 97.45958 307.806778 97.186841 306.644129 97.186841 
C 305.48148 97.186841 304.366293 97.45958 303.544176 97.94499 
C 302.722058 98.4304 302.260133 99.08885 302.260133 99.775324 
C 302.260133 100.461797 302.722058 101.120247 303.544176 101.605657 
C 304.366293 102.091068 305.48148 102.363806 306.644129 102.363806 
z
" style="fill:#ff0000;opacity:0.2;stroke:#ff0000;stroke-linejoin:miter;stroke-width:2;"/>
   </g>
   <g id="patch_38">
    <path d="M 281.984151 118.541824 
Q 293.517929 109.764499 303.926311 101.843612 
" style="fill:none;opacity:0.5;stroke:#0000ff;stroke-linecap:round;stroke-width:2;"/>
    <path d="M 301.824259 101.558339 
L 303.926311 101.843612 
L 303.641038 103.945663 
" style="fill:none;opacity:0.5;stroke:#0000ff;stroke-linecap:round;stroke-width:2;"/>
   </g>
   <g id="[&quot;g_s&quot;:9,&quot;g_t&quot;:10,&quot;coords&quot;:[[305.0, -85.0],[340.5, -108.0]],&quot;certainty&quot;:4]">
    <path clip-path="url(#p2ba343060c)" d="M 302.808132 90.392074 
C 303.534788 90.392074 304.23178 90.221612 304.745603 89.918231 
C 305.259426 89.614849 305.54813 89.203318 305.54813 88.774272 
C 305.54813 88.345226 305.259426 87.933695 304.745603 87.630313 
C 304.23178 87.326932 303.534788 87.15647 302.808132 87.15647 
C 302.081477 87.15647 301.384485 87.326932 300.870662 87.630313 
C 300.356838 87.933695 300.068135 88.345226 300.068135 88.774272 
C 300.068135 89.203318 300.356838 89.614849 300.870662 89.918231 
C 301.384485 90.221612 302.081477 90.392074 302.808132 90.392074 
z
" style="fill:#0000ff;opacity:0.2;stroke:#0000ff;stroke-linejoin:miter;stroke-width:2;"/>
   </g>
   <g id="[&quot;g_s&quot;:10,&quot;g_t&quot;:9,&quot;coords&quot;:[[340.5, -108.0],[305.0, -85.0]],&quot;certainty&quot;:4]">
    <path clip-path="url(#p2ba343060c)" d="M 341.716097 105.275849 
C 342.442753 105.275849 343.139744 105.105388 343.653568 104.802006 
C 344.167391 104.498625 344.456094 104.087094 344.456094 103.658048 
C 344.456094 103.229002 344.167391 102.817471 343.653568 102.514089 
C 343.139744 102.210708 342.442753 102.040246 341.716097 102.040246 
C 340.989441 102.040246 340.292449 102.210708 339.778626 102.514089 
C 339.264803 102.817471 338.976099 103.229002 338.976099 103.658048 
C 338.976099 104.087094 339.264803 104.498625 339.778626 104.802006 
C 340.292449 105.105388 340.989441 105.275849 341.716097 105.275849 
z
" style="fill:#ff0000;opacity:0.2;stroke:#ff0000;stroke-linejoin:miter;stroke-width:2;"/>
   </g>
   <g id="patch_39">
    <path d="M 302.808132 88.774272 
Q 321.327649 95.858691 339.021624 102.627309 
" style="fill:none;opacity:0.5;stroke:#0000ff;stroke-linecap:round;stroke-width:1.25;"/>
    <path d="M 338.156565 100.690386 
L 339.021624 102.627309 
L 337.0847 103.492368 
" style="fill:none;opacity:0.5;stroke:#0000ff;stroke-linecap:round;stroke-width:1.25;"/>
   </g>
   <g id="[&quot;g_s&quot;:10,&quot;g_t&quot;:10,&quot;coords&quot;:[[286.0, -76.0],[340.5, -108.0]],&quot;certainty&quot;:2]">
    <path clip-path="url(#p2ba343060c)" d="M 281.984151 83.920867 
C 282.420145 83.920867 282.83834 83.81859 283.146634 83.636561 
C 283.454928 83.454532 283.62815 83.207613 283.62815 82.950186 
C 283.62815 82.692758 283.454928 82.445839 283.146634 82.263811 
C 282.83834 82.081782 282.420145 81.979505 281.984151 81.979505 
C 281.548158 81.979505 281.129963 82.081782 280.821669 82.263811 
C 280.513375 82.445839 280.340153 82.692758 280.340153 82.950186 
C 280.340153 83.207613 280.513375 83.454532 280.821669 83.636561 
C 281.129963 83.81859 281.548158 83.920867 281.984151 83.920867 
z
" style="fill:#0000ff;opacity:0.2;stroke:#0000ff;stroke-linejoin:miter;stroke-width:2;"/>
   </g>
   <g id="[&quot;g_s&quot;:10,&quot;g_t&quot;:10,&quot;coords&quot;:[[340.5, -108.0],[286.0, -76.0]],&quot;certainty&quot;:2]">
    <path clip-path="url(#p2ba343060c)" d="M 341.716097 104.628729 
C 342.15209 104.628729 342.570285 104.526452 342.878579 104.344423 
C 343.186873 104.162394 343.360095 103.915475 343.360095 103.658048 
C 343.360095 103.40062 343.186873 103.153701 342.878579 102.971673 
C 342.570285 102.789644 342.15209 102.687367 341.716097 102.687367 
C 341.280103 102.687367 340.861908 102.789644 340.553614 102.971673 
C 340.24532 103.153701 340.072098 103.40062 340.072098 103.658048 
C 340.072098 103.915475 340.24532 104.162394 340.553614 104.344423 
C 340.861908 104.526452 341.280103 104.628729 341.716097 104.628729 
z
" style="fill:#ff0000;opacity:0.2;stroke:#ff0000;stroke-linejoin:miter;stroke-width:2;"/>
   </g>
   <g id="patch_40">
    <path d="M 281.984151 82.950186 
Q 310.904052 92.976133 339.32288 102.828368 
" style="fill:none;opacity:0.5;stroke:#0000ff;stroke-linecap:round;stroke-width:0.75;"/>
    <path d="M 338.396963 100.919788 
L 339.32288 102.828368 
L 337.4143 103.754285 
" style="fill:none;opacity:0.5;stroke:#0000ff;stroke-linecap:round;stroke-width:0.75;"/>
   </g>
   <g id="[&quot;g_s&quot;:11,&quot;g_t&quot;:2,&quot;coords&quot;:[[178.0, -76.0],[184.5, -54.0]],&quot;certainty&quot;:6]">
    <path clip-path="url(#p2ba343060c)" d="M 163.61626 85.215108 
C 164.633578 85.215108 165.609366 84.976462 166.328719 84.551728 
C 167.048071 84.126994 167.452256 83.55085 167.452256 82.950186 
C 167.452256 82.349521 167.048071 81.773378 166.328719 81.348644 
C 165.609366 80.92391 164.633578 80.685263 163.61626 80.685263 
C 162.598942 80.685263 161.623153 80.92391 160.903801 81.348644 
C 160.184448 81.773378 159.780263 82.349521 159.780263 82.950186 
C 159.780263 83.55085 160.184448 84.126994 160.903801 84.551728 
C 161.623153 84.976462 162.598942 85.215108 163.61626 85.215108 
z
" style="fill:#0000ff;opacity:0.2;stroke:#0000ff;stroke-linejoin:miter;stroke-width:2;"/>
   </g>
   <g id="[&quot;g_s&quot;:2,&quot;g_t&quot;:11,&quot;coords&quot;:[[184.5, -54.0],[178.0, -76.0]],&quot;certainty&quot;:6]">
    <path clip-path="url(#p2ba343060c)" d="M 170.740253 70.978453 
C 171.757571 70.978453 172.73336 70.739807 173.452712 70.315073 
C 174.172065 69.890339 174.57625 69.314195 174.57625 68.713531 
C 174.57625 68.112866 174.172065 67.536723 173.452712 67.111989 
C 172.73336 66.687255 171.757571 66.448608 170.740253 66.448608 
C 169.722935 66.448608 168.747147 66.687255 168.027794 67.111989 
C 167.308441 67.536723 166.904257 68.112866 166.904257 68.713531 
C 166.904257 69.314195 167.308441 69.890339 168.027794 70.315073 
C 168.747147 70.739807 169.722935 70.978453 170.740253 70.978453 
z
" style="fill:#ff0000;opacity:0.2;stroke:#ff0000;stroke-linejoin:miter;stroke-width:2;"/>
   </g>
   <g id="patch_41">
    <path d="M 163.61626 82.950186 
Q 166.730398 76.726863 169.290785 71.610161 
" style="fill:none;opacity:0.5;stroke:#0000ff;stroke-linecap:round;stroke-width:1.75;"/>
    <path d="M 167.278111 72.280341 
L 169.290785 71.610161 
L 169.960965 73.622835 
" style="fill:none;opacity:0.5;stroke:#0000ff;stroke-linecap:round;stroke-width:1.75;"/>
   </g>
   <g id="[&quot;g_s&quot;:12,&quot;g_t&quot;:3,&quot;coords&quot;:[[112.0, -114.0],[114.5, -86.0]],&quot;certainty&quot;:7]">
    <path clip-path="url(#p2ba343060c)" d="M 91.280326 110.129255 
C 92.442975 110.129255 93.558162 109.856516 94.380279 109.371106 
C 95.202396 108.885695 95.664322 108.227246 95.664322 107.540772 
C 95.664322 106.854298 95.202396 106.195848 94.380279 105.710438 
C 93.558162 105.225028 92.442975 104.952289 91.280326 104.952289 
C 90.117677 104.952289 89.00249 105.225028 88.180373 105.710438 
C 87.358255 106.195848 86.89633 106.854298 86.89633 107.540772 
C 86.89633 108.227246 87.358255 108.885695 88.180373 109.371106 
C 89.00249 109.856516 90.117677 110.129255 91.280326 110.129255 
z
" style="fill:#0000ff;opacity:0.2;stroke:#0000ff;stroke-linejoin:miter;stroke-width:2;"/>
   </g>
   <g id="[&quot;g_s&quot;:3,&quot;g_t&quot;:12,&quot;coords&quot;:[[114.5, -86.0],[112.0, -114.0]],&quot;certainty&quot;:7]">
    <path clip-path="url(#p2ba343060c)" d="M 94.020323 92.009875 
C 95.182973 92.009875 96.298159 91.737137 97.120277 91.251726 
C 97.942394 90.766316 98.404319 90.107866 98.404319 89.421393 
C 98.404319 88.734919 97.942394 88.076469 97.120277 87.591059 
C 96.298159 87.105649 95.182973 86.83291 94.020323 86.83291 
C 92.857674 86.83291 91.742487 87.105649 90.92037 87.591059 
C 90.098253 88.076469 89.636327 88.734919 89.636327 89.421393 
C 89.636327 90.107866 90.098253 90.766316 90.92037 91.251726 
C 91.742487 91.737137 92.857674 92.009875 94.020323 92.009875 
z
" style="fill:#ff0000;opacity:0.2;stroke:#ff0000;stroke-linejoin:miter;stroke-width:2;"/>
   </g>
   <g id="patch_42">
    <path d="M 91.280326 107.540772 
Q 92.500815 99.469774 93.509853 92.797092 
" style="fill:none;opacity:0.5;stroke:#0000ff;stroke-linecap:round;stroke-width:2;"/>
    <path d="M 91.802436 94.055952 
L 93.509853 92.797092 
L 94.768712 94.504509 
" style="fill:none;opacity:0.5;stroke:#0000ff;stroke-linecap:round;stroke-width:2;"/>
   </g>
   <g id="[&quot;g_s&quot;:13,&quot;g_t&quot;:4,&quot;coords&quot;:[[82.0, -108.0],[95.5, -79.0]],&quot;certainty&quot;:11]">
    <path clip-path="url(#p2ba343060c)" d="M 58.400356 107.540772 
C 60.14433 107.540772 61.81711 107.131664 63.050286 106.403548 
C 64.283462 105.675433 64.97635 104.687758 64.97635 103.658048 
C 64.97635 102.628337 64.283462 101.640662 63.050286 100.912547 
C 61.81711 100.184432 60.14433 99.775324 58.400356 99.775324 
C 56.656382 99.775324 54.983602 100.184432 53.750426 100.912547 
C 52.51725 101.640662 51.824362 102.628337 51.824362 103.658048 
C 51.824362 104.687758 52.51725 105.675433 53.750426 106.403548 
C 54.983602 107.131664 56.656382 107.540772 58.400356 107.540772 
z
" style="fill:#0000ff;opacity:0.2;stroke:#0000ff;stroke-linejoin:miter;stroke-width:2;"/>
   </g>
   <g id="[&quot;g_s&quot;:4,&quot;g_t&quot;:13,&quot;coords&quot;:[[95.5, -79.0],[82.0, -108.0]],&quot;certainty&quot;:11]">
    <path clip-path="url(#p2ba343060c)" d="M 73.196342 88.774272 
C 74.940316 88.774272 76.613097 88.365164 77.846272 87.637048 
C 79.079448 86.908933 79.772336 85.921258 79.772336 84.891548 
C 79.772336 83.861837 79.079448 82.874163 77.846272 82.146047 
C 76.613097 81.417932 74.940316 81.008824 73.196342 81.008824 
C 71.452368 81.008824 69.779588 81.417932 68.546412 82.146047 
C 67.313237 82.874163 66.620348 83.861837 66.620348 84.891548 
C 66.620348 85.921258 67.313237 86.908933 68.546412 87.637048 
C 69.779588 88.365164 71.452368 88.774272 73.196342 88.774272 
z
" style="fill:#ff0000;opacity:0.2;stroke:#ff0000;stroke-linejoin:miter;stroke-width:2;"/>
   </g>
   <g id="patch_43">
    <path d="M 58.400356 103.658048 
Q 65.179743 95.059408 70.645741 88.126605 
" style="fill:none;opacity:0.5;stroke:#0000ff;stroke-linecap:round;stroke-width:3;"/>
    <path d="M 68.539111 88.375824 
L 70.645741 88.126605 
L 70.89496 90.233235 
" style="fill:none;opacity:0.5;stroke:#0000ff;stroke-linecap:round;stroke-width:3;"/>
   </g>
   <g id="[&quot;g_s&quot;:14,&quot;g_t&quot;:5,&quot;coords&quot;:[[114.0, 8.0],[120.5, -1.0]],&quot;certainty&quot;:10]">
    <path clip-path="url(#p2ba343060c)" d="M 93.472324 32.151212 
C 95.070967 32.151212 96.604348 31.776196 97.73476 31.108757 
C 98.865171 30.441318 99.500318 29.535949 99.500318 28.592048 
C 99.500318 27.648147 98.865171 26.742778 97.73476 26.075339 
C 96.604348 25.4079 95.070967 25.032884 93.472324 25.032884 
C 91.873681 25.032884 90.340299 25.4079 89.209888 26.075339 
C 88.079477 26.742778 87.444329 27.648147 87.444329 28.592048 
C 87.444329 29.535949 88.079477 30.441318 89.209888 31.108757 
C 90.340299 31.776196 91.873681 32.151212 93.472324 32.151212 
z
" style="fill:#0000ff;opacity:0.2;stroke:#0000ff;stroke-linejoin:miter;stroke-width:2;"/>
   </g>
   <g id="[&quot;g_s&quot;:5,&quot;g_t&quot;:14,&quot;coords&quot;:[[120.5, -1.0],[114.0, 8.0]],&quot;certainty&quot;:10]">
    <path clip-path="url(#p2ba343060c)" d="M 100.596317 37.975298 
C 102.19496 37.975298 103.728342 37.600282 104.858753 36.932843 
C 105.989164 36.265404 106.624312 35.360036 106.624312 34.416134 
C 106.624312 33.472233 105.989164 32.566865 104.858753 31.899426 
C 103.728342 31.231987 102.19496 30.856971 100.596317 30.856971 
C 98.997675 30.856971 97.464293 31.231987 96.333882 31.899426 
C 95.20347 32.566865 94.568323 33.472233 94.568323 34.416134 
C 94.568323 35.360036 95.20347 36.265404 96.333882 36.932843 
C 97.464293 37.600282 98.997675 37.975298 100.596317 37.975298 
z
" style="fill:#ff0000;opacity:0.2;stroke:#ff0000;stroke-linejoin:miter;stroke-width:2;"/>
   </g>
   <g id="patch_44">
    <path d="M 93.472324 28.592048 
Q 96.260352 30.871348 97.542906 31.919875 
" style="fill:none;opacity:0.5;stroke:#0000ff;stroke-linecap:round;stroke-width:2.75;"/>
    <path d="M 97.331003 29.809165 
L 97.542906 31.919875 
L 95.432195 32.131778 
" style="fill:none;opacity:0.5;stroke:#0000ff;stroke-linecap:round;stroke-width:2.75;"/>
   </g>
   <g id="[&quot;g_s&quot;:1,&quot;g_t&quot;:10,&quot;coords&quot;:[[307.5, -54.0],[286.0, -76.0]],&quot;certainty&quot;:6]">
    <path clip-path="url(#p2ba343060c)" d="M 305.54813 70.978453 
C 306.565448 70.978453 307.541236 70.739807 308.260589 70.315073 
C 308.979942 69.890339 309.384126 69.314195 309.384126 68.713531 
C 309.384126 68.112866 308.979942 67.536723 308.260589 67.111989 
C 307.541236 66.687255 306.565448 66.448608 305.54813 66.448608 
C 304.530812 66.448608 303.555023 66.687255 302.835671 67.111989 
C 302.116318 67.536723 301.712133 68.112866 301.712133 68.713531 
C 301.712133 69.314195 302.116318 69.890339 302.835671 70.315073 
C 303.555023 70.739807 304.530812 70.978453 305.54813 70.978453 
z
" style="fill:#0000ff;opacity:0.2;stroke:#0000ff;stroke-linejoin:miter;stroke-width:2;"/>
   </g>
   <g id="[&quot;g_s&quot;:10,&quot;g_t&quot;:1,&quot;coords&quot;:[[286.0, -76.0],[307.5, -54.0]],&quot;certainty&quot;:6]">
    <path clip-path="url(#p2ba343060c)" d="M 281.984151 85.215108 
C 283.00147 85.215108 283.977258 84.976462 284.696611 84.551728 
C 285.415963 84.126994 285.820148 83.55085 285.820148 82.950186 
C 285.820148 82.349521 285.415963 81.773378 284.696611 81.348644 
C 283.977258 80.92391 283.00147 80.685263 281.984151 80.685263 
C 280.966833 80.685263 279.991045 80.92391 279.271692 81.348644 
C 278.55234 81.773378 278.148155 82.349521 278.148155 82.950186 
C 278.148155 83.55085 278.55234 84.126994 279.271692 84.551728 
C 279.991045 84.976462 280.966833 85.215108 281.984151 85.215108 
z
" style="fill:#ff0000;opacity:0.2;stroke:#ff0000;stroke-linejoin:miter;stroke-width:2;"/>
   </g>
   <g id="patch_45">
    <path d="M 305.54813 68.713531 
Q 294.621888 75.314841 284.754786 81.276251 
" style="fill:none;opacity:0.5;stroke:#ff0000;stroke-linecap:round;stroke-width:1.75;"/>
    <path d="M 286.814334 81.784445 
L 284.754786 81.276251 
L 285.262981 79.216703 
" style="fill:none;opacity:0.5;stroke:#ff0000;stroke-linecap:round;stroke-width:1.75;"/>
   </g>
   <g id="[&quot;g_s&quot;:2,&quot;g_t&quot;:11,&quot;coords&quot;:[[184.5, -54.0],[178.0, -76.0]],&quot;certainty&quot;:8]">
    <path clip-path="url(#p2ba343060c)" d="M 170.740253 71.625574 
C 172.048234 71.625574 173.302819 71.318743 174.227701 70.772656 
C 175.152583 70.22657 175.672249 69.485814 175.672249 68.713531 
C 175.672249 67.941248 175.152583 67.200492 174.227701 66.654405 
C 173.302819 66.108319 172.048234 65.801488 170.740253 65.801488 
C 169.432273 65.801488 168.177688 66.108319 167.252806 66.654405 
C 166.327924 67.200492 165.808258 67.941248 165.808258 68.713531 
C 165.808258 69.485814 166.327924 70.22657 167.252806 70.772656 
C 168.177688 71.318743 169.432273 71.625574 170.740253 71.625574 
z
" style="fill:#0000ff;opacity:0.2;stroke:#0000ff;stroke-linejoin:miter;stroke-width:2;"/>
   </g>
   <g id="[&quot;g_s&quot;:11,&quot;g_t&quot;:2,&quot;coords&quot;:[[178.0, -76.0],[184.5, -54.0]],&quot;certainty&quot;:8]">
    <path clip-path="url(#p2ba343060c)" d="M 163.61626 85.862229 
C 164.92424 85.862229 166.178825 85.555398 167.103707 85.009311 
C 168.028589 84.463225 168.548255 83.722469 168.548255 82.950186 
C 168.548255 82.177903 168.028589 81.437147 167.103707 80.89106 
C 166.178825 80.344974 164.92424 80.038143 163.61626 80.038143 
C 162.308279 80.038143 161.053694 80.344974 160.128812 80.89106 
C 159.20393 81.437147 158.684264 82.177903 158.684264 82.950186 
C 158.684264 83.722469 159.20393 84.463225 160.128812 85.009311 
C 161.053694 85.555398 162.308279 85.862229 163.61626 85.862229 
z
" style="fill:#ff0000;opacity:0.2;stroke:#ff0000;stroke-linejoin:miter;stroke-width:2;"/>
   </g>
   <g id="patch_46">
    <path d="M 170.740253 68.713531 
Q 167.626115 74.936854 165.223942 79.737378 
" style="fill:none;opacity:0.5;stroke:#ff0000;stroke-linecap:round;stroke-width:2.25;"/>
    <path d="M 167.236617 79.067199 
L 165.223942 79.737378 
L 164.553762 77.724704 
" style="fill:none;opacity:0.5;stroke:#ff0000;stroke-linecap:round;stroke-width:2.25;"/>
   </g>
   <g id="[&quot;g_s&quot;:3,&quot;g_t&quot;:12,&quot;coords&quot;:[[114.5, -86.0],[112.0, -114.0]],&quot;certainty&quot;:5]">
    <path clip-path="url(#p2ba343060c)" d="M 94.020323 91.362755 
C 94.89231 91.362755 95.7287 91.158201 96.345288 90.794143 
C 96.961876 90.430085 97.30832 89.936248 97.30832 89.421393 
C 97.30832 88.906537 96.961876 88.4127 96.345288 88.048642 
C 95.7287 87.684585 94.89231 87.480031 94.020323 87.480031 
C 93.148336 87.480031 92.311946 87.684585 91.695358 88.048642 
C 91.07877 88.4127 90.732326 88.906537 90.732326 89.421393 
C 90.732326 89.936248 91.07877 90.430085 91.695358 90.794143 
C 92.311946 91.158201 93.148336 91.362755 94.020323 91.362755 
z
" style="fill:#0000ff;opacity:0.2;stroke:#0000ff;stroke-linejoin:miter;stroke-width:2;"/>
   </g>
   <g id="[&quot;g_s&quot;:12,&quot;g_t&quot;:3,&quot;coords&quot;:[[112.0, -114.0],[114.5, -86.0]],&quot;certainty&quot;:5]">
    <path clip-path="url(#p2ba343060c)" d="M 91.280326 109.482134 
C 92.152313 109.482134 92.988703 109.27758 93.605291 108.913522 
C 94.221879 108.549465 94.568323 108.055627 94.568323 107.540772 
C 94.568323 107.025917 94.221879 106.532079 93.605291 106.168022 
C 92.988703 105.803964 92.152313 105.59941 91.280326 105.59941 
C 90.408339 105.59941 89.571949 105.803964 88.955361 106.168022 
C 88.338773 106.532079 87.992329 107.025917 87.992329 107.540772 
C 87.992329 108.055627 88.338773 108.549465 88.955361 108.913522 
C 89.571949 109.27758 90.408339 109.482134 91.280326 109.482134 
z
" style="fill:#ff0000;opacity:0.2;stroke:#ff0000;stroke-linejoin:miter;stroke-width:2;"/>
   </g>
   <g id="patch_47">
    <path d="M 94.020323 89.421393 
Q 92.799834 97.492391 91.737933 104.514651 
" style="fill:none;opacity:0.5;stroke:#ff0000;stroke-linecap:round;stroke-width:1.5;"/>
    <path d="M 93.44535 103.255792 
L 91.737933 104.514651 
L 90.479074 102.807234 
" style="fill:none;opacity:0.5;stroke:#ff0000;stroke-linecap:round;stroke-width:1.5;"/>
   </g>
   <g id="[&quot;g_s&quot;:4,&quot;g_t&quot;:13,&quot;coords&quot;:[[95.5, -79.0],[82.0, -108.0]],&quot;certainty&quot;:9]">
    <path clip-path="url(#p2ba343060c)" d="M 73.196342 88.127151 
C 74.649654 88.127151 76.043638 87.786228 77.071284 87.179465 
C 78.098931 86.572702 78.676337 85.74964 78.676337 84.891548 
C 78.676337 84.033456 78.098931 83.210393 77.071284 82.603631 
C 76.043638 81.996868 74.649654 81.655944 73.196342 81.655944 
C 71.743031 81.655944 70.349047 81.996868 69.321401 82.603631 
C 68.293754 83.210393 67.716347 84.033456 67.716347 84.891548 
C 67.716347 85.74964 68.293754 86.572702 69.321401 87.179465 
C 70.349047 87.786228 71.743031 88.127151 73.196342 88.127151 
z
" style="fill:#0000ff;opacity:0.2;stroke:#0000ff;stroke-linejoin:miter;stroke-width:2;"/>
   </g>
   <g id="[&quot;g_s&quot;:13,&quot;g_t&quot;:4,&quot;coords&quot;:[[82.0, -108.0],[95.5, -79.0]],&quot;certainty&quot;:9]">
    <path clip-path="url(#p2ba343060c)" d="M 58.400356 106.893651 
C 59.853668 106.893651 61.247651 106.552728 62.275298 105.945965 
C 63.302944 105.339202 63.880351 104.51614 63.880351 103.658048 
C 63.880351 102.799956 63.302944 101.976893 62.275298 101.370131 
C 61.247651 100.763368 59.853668 100.422444 58.400356 100.422444 
C 56.947044 100.422444 55.553061 100.763368 54.525414 101.370131 
C 53.497768 101.976893 52.920361 102.799956 52.920361 103.658048 
C 52.920361 104.51614 53.497768 105.339202 54.525414 105.945965 
C 55.553061 106.552728 56.947044 106.893651 58.400356 106.893651 
z
" style="fill:#ff0000;opacity:0.2;stroke:#ff0000;stroke-linejoin:miter;stroke-width:2;"/>
   </g>
   <g id="patch_48">
    <path d="M 73.196342 84.891548 
Q 66.416956 93.490188 60.732059 100.70063 
" style="fill:none;opacity:0.5;stroke:#ff0000;stroke-linecap:round;stroke-width:2.5;"/>
    <path d="M 62.838689 100.451411 
L 60.732059 100.70063 
L 60.48284 98.594 
" style="fill:none;opacity:0.5;stroke:#ff0000;stroke-linecap:round;stroke-width:2.5;"/>
   </g>
   <g id="[&quot;g_s&quot;:5,&quot;g_t&quot;:14,&quot;coords&quot;:[[120.5, -1.0],[114.0, 8.0]],&quot;certainty&quot;:11]">
    <path clip-path="url(#p2ba343060c)" d="M 100.596317 38.298858 
C 102.340291 38.298858 104.013071 37.88975 105.246247 37.161635 
C 106.479423 36.43352 107.172311 35.445845 107.172311 34.416134 
C 107.172311 33.386424 106.479423 32.398749 105.246247 31.670634 
C 104.013071 30.942519 102.340291 30.53341 100.596317 30.53341 
C 98.852343 30.53341 97.179563 30.942519 95.946387 31.670634 
C 94.713212 32.398749 94.020323 33.386424 94.020323 34.416134 
C 94.020323 35.445845 94.713212 36.43352 95.946387 37.161635 
C 97.179563 37.88975 98.852343 38.298858 100.596317 38.298858 
z
" style="fill:#0000ff;opacity:0.2;stroke:#0000ff;stroke-linejoin:miter;stroke-width:2;"/>
   </g>
   <g id="[&quot;g_s&quot;:14,&quot;g_t&quot;:5,&quot;coords&quot;:[[114.0, 8.0],[120.5, -1.0]],&quot;certainty&quot;:11]">
    <path clip-path="url(#p2ba343060c)" d="M 93.472324 32.474772 
C 95.216298 32.474772 96.889078 32.065664 98.122254 31.337549 
C 99.35543 30.609433 100.048318 29.621759 100.048318 28.592048 
C 100.048318 27.562338 99.35543 26.574663 98.122254 25.846548 
C 96.889078 25.118432 95.216298 24.709324 93.472324 24.709324 
C 91.72835 24.709324 90.05557 25.118432 88.822394 25.846548 
C 87.589218 26.574663 86.89633 27.562338 86.89633 28.592048 
C 86.89633 29.621759 87.589218 30.609433 88.822394 31.337549 
C 90.05557 32.065664 91.72835 32.474772 93.472324 32.474772 
z
" style="fill:#ff0000;opacity:0.2;stroke:#ff0000;stroke-linejoin:miter;stroke-width:2;"/>
   </g>
   <g id="patch_49">
    <path d="M 100.596317 34.416134 
Q 97.80829 32.136835 96.662597 31.200196 
" style="fill:none;opacity:0.5;stroke:#ff0000;stroke-linecap:round;stroke-width:3;"/>
    <path d="M 96.874499 33.310906 
L 96.662597 31.200196 
L 98.773307 30.988293 
" style="fill:none;opacity:0.5;stroke:#ff0000;stroke-linecap:round;stroke-width:3;"/>
   </g>
   <g id="[&quot;g_s&quot;:6,&quot;g_t&quot;:1,&quot;coords&quot;:[[192.5, -3.0],[194.0, 6.0]],&quot;certainty&quot;:7]">
    <path clip-path="url(#p2ba343060c)" d="M 179.508245 38.298858 
C 180.670894 38.298858 181.786081 38.02612 182.608198 37.540709 
C 183.430316 37.055299 183.892241 36.396849 183.892241 35.710376 
C 183.892241 35.023902 183.430316 34.365452 182.608198 33.880042 
C 181.786081 33.394632 180.670894 33.121893 179.508245 33.121893 
C 178.345596 33.121893 177.230409 33.394632 176.408292 33.880042 
C 175.586175 34.365452 175.124249 35.023902 175.124249 35.710376 
C 175.124249 36.396849 175.586175 37.055299 176.408292 37.540709 
C 177.230409 38.02612 178.345596 38.298858 179.508245 38.298858 
z
" style="fill:#0000ff;opacity:0.2;stroke:#0000ff;stroke-linejoin:miter;stroke-width:2;"/>
   </g>
   <g id="[&quot;g_s&quot;:1,&quot;g_t&quot;:6,&quot;coords&quot;:[[194.0, 6.0],[192.5, -3.0]],&quot;certainty&quot;:7]">
    <path clip-path="url(#p2ba343060c)" d="M 181.152244 32.474772 
C 182.314893 32.474772 183.43008 32.202033 184.252197 31.716623 
C 185.074314 31.231213 185.53624 30.572763 185.53624 29.88629 
C 185.53624 29.199816 185.074314 28.541366 184.252197 28.055956 
C 183.43008 27.570546 182.314893 27.297807 181.152244 27.297807 
C 179.989594 27.297807 178.874408 27.570546 178.05229 28.055956 
C 177.230173 28.541366 176.768248 29.199816 176.768248 29.88629 
C 176.768248 30.572763 177.230173 31.231213 178.05229 31.716623 
C 178.874408 32.202033 179.989594 32.474772 181.152244 32.474772 
z
" style="fill:#ff0000;opacity:0.2;stroke:#ff0000;stroke-linejoin:miter;stroke-width:2;"/>
   </g>
   <g id="patch_50">
    <path d="M 179.508245 35.710376 
Q 180.058519 33.760956 180.224607 33.172566 
" style="fill:none;opacity:0.5;stroke:#ff0000;stroke-linecap:round;stroke-width:2;"/>
    <path d="M 178.373527 34.208666 
L 180.224607 33.172566 
L 181.260707 35.023647 
" style="fill:none;opacity:0.5;stroke:#ff0000;stroke-linecap:round;stroke-width:2;"/>
   </g>
   <g id="[&quot;g_s&quot;:7,&quot;g_t&quot;:2,&quot;coords&quot;:[[307.5, -3.0],[318.0, 6.0]],&quot;certainty&quot;:3]">
    <path clip-path="url(#p2ba343060c)" d="M 305.54813 37.004617 
C 306.129455 37.004617 306.687048 36.868248 307.098106 36.625543 
C 307.509165 36.382838 307.740128 36.053613 307.740128 35.710376 
C 307.740128 35.367139 307.509165 35.037914 307.098106 34.795209 
C 306.687048 34.552504 306.129455 34.416134 305.54813 34.416134 
C 304.966805 34.416134 304.409212 34.552504 303.998153 34.795209 
C 303.587095 35.037914 303.356132 35.367139 303.356132 35.710376 
C 303.356132 36.053613 303.587095 36.382838 303.998153 36.625543 
C 304.409212 36.868248 304.966805 37.004617 305.54813 37.004617 
z
" style="fill:#0000ff;opacity:0.2;stroke:#0000ff;stroke-linejoin:miter;stroke-width:2;"/>
   </g>
   <g id="[&quot;g_s&quot;:2,&quot;g_t&quot;:7,&quot;coords&quot;:[[318.0, 6.0],[307.5, -3.0]],&quot;certainty&quot;:3]">
    <path clip-path="url(#p2ba343060c)" d="M 317.056119 31.180531 
C 317.637444 31.180531 318.195037 31.044161 318.606096 30.801456 
C 319.017155 30.558751 319.248117 30.229526 319.248117 29.88629 
C 319.248117 29.543053 319.017155 29.213828 318.606096 28.971123 
C 318.195037 28.728418 317.637444 28.592048 317.056119 28.592048 
C 316.474795 28.592048 315.917201 28.728418 315.506143 28.971123 
C 315.095084 29.213828 314.864121 29.543053 314.864121 29.88629 
C 314.864121 30.229526 315.095084 30.558751 315.506143 30.801456 
C 315.917201 31.044161 316.474795 31.180531 317.056119 31.180531 
z
" style="fill:#ff0000;opacity:0.2;stroke:#ff0000;stroke-linejoin:miter;stroke-width:2;"/>
   </g>
   <g id="patch_51">
    <path d="M 305.54813 35.710376 
Q 310.410087 33.249785 314.641133 31.108492 
" style="fill:none;opacity:0.5;stroke:#ff0000;stroke-linecap:round;"/>
    <path d="M 312.625435 30.447461 
L 314.641133 31.108492 
L 313.980102 33.12419 
" style="fill:none;opacity:0.5;stroke:#ff0000;stroke-linecap:round;"/>
   </g>
   <g id="[&quot;g_s&quot;:8,&quot;g_t&quot;:3,&quot;coords&quot;:[[400.5, -1.0],[413.0, 8.0]],&quot;certainty&quot;:3]">
    <path clip-path="url(#p2ba343060c)" d="M 407.476037 35.710376 
C 408.057361 35.710376 408.614955 35.574006 409.026013 35.331301 
C 409.437072 35.088596 409.668035 34.759371 409.668035 34.416134 
C 409.668035 34.072898 409.437072 33.743673 409.026013 33.500968 
C 408.614955 33.258262 408.057361 33.121893 407.476037 33.121893 
C 406.894712 33.121893 406.337119 33.258262 405.92606 33.500968 
C 405.515001 33.743673 405.284039 34.072898 405.284039 34.416134 
C 405.284039 34.759371 405.515001 35.088596 405.92606 35.331301 
C 406.337119 35.574006 406.894712 35.710376 407.476037 35.710376 
z
" style="fill:#0000ff;opacity:0.2;stroke:#0000ff;stroke-linejoin:miter;stroke-width:2;"/>
   </g>
   <g id="[&quot;g_s&quot;:3,&quot;g_t&quot;:8,&quot;coords&quot;:[[413.0, 8.0],[400.5, -1.0]],&quot;certainty&quot;:3]">
    <path clip-path="url(#p2ba343060c)" d="M 421.176024 29.88629 
C 421.757349 29.88629 422.314942 29.74992 422.726001 29.507215 
C 423.137059 29.26451 423.368022 28.935285 423.368022 28.592048 
C 423.368022 28.248811 423.137059 27.919586 422.726001 27.676881 
C 422.314942 27.434176 421.757349 27.297807 421.176024 27.297807 
C 420.594699 27.297807 420.037106 27.434176 419.626047 27.676881 
C 419.214989 27.919586 418.984026 28.248811 418.984026 28.592048 
C 418.984026 28.935285 419.214989 29.26451 419.626047 29.507215 
C 420.037106 29.74992 420.594699 29.88629 421.176024 29.88629 
z
" style="fill:#ff0000;opacity:0.2;stroke:#ff0000;stroke-linejoin:miter;stroke-width:2;"/>
   </g>
   <g id="patch_52">
    <path d="M 407.476037 34.416134 
Q 413.404559 31.895824 418.682336 29.652155 
" style="fill:none;opacity:0.5;stroke:#ff0000;stroke-linecap:round;"/>
    <path d="M 416.715051 28.858563 
L 418.682336 29.652155 
L 417.888745 31.619441 
" style="fill:none;opacity:0.5;stroke:#ff0000;stroke-linecap:round;"/>
   </g>
   <g id="[&quot;g_s&quot;:9,&quot;g_t&quot;:4,&quot;coords&quot;:[[404.5, -8.0],[418.0, -3.0]],&quot;certainty&quot;:11]">
    <path clip-path="url(#p2ba343060c)" d="M 411.860033 42.828703 
C 413.604007 42.828703 415.276787 42.419595 416.509963 41.69148 
C 417.743138 40.963364 418.436027 39.97569 418.436027 38.945979 
C 418.436027 37.916269 417.743138 36.928594 416.509963 36.200479 
C 415.276787 35.472363 413.604007 35.063255 411.860033 35.063255 
C 410.116059 35.063255 408.443278 35.472363 407.210103 36.200479 
C 405.976927 36.928594 405.284039 37.916269 405.284039 38.945979 
C 405.284039 39.97569 405.976927 40.963364 407.210103 41.69148 
C 408.443278 42.419595 410.116059 42.828703 411.860033 42.828703 
z
" style="fill:#0000ff;opacity:0.2;stroke:#0000ff;stroke-linejoin:miter;stroke-width:2;"/>
   </g>
   <g id="[&quot;g_s&quot;:4,&quot;g_t&quot;:9,&quot;coords&quot;:[[418.0, -3.0],[404.5, -8.0]],&quot;certainty&quot;:11]">
    <path clip-path="url(#p2ba343060c)" d="M 426.656019 39.5931 
C 428.399993 39.5931 430.072773 39.183992 431.305949 38.455876 
C 432.539125 37.727761 433.232013 36.740086 433.232013 35.710376 
C 433.232013 34.680665 432.539125 33.69299 431.305949 32.964875 
C 430.072773 32.23676 428.399993 31.827652 426.656019 31.827652 
C 424.912045 31.827652 423.239265 32.23676 422.006089 32.964875 
C 420.772913 33.69299 420.080025 34.680665 420.080025 35.710376 
C 420.080025 36.740086 420.772913 37.727761 422.006089 38.455876 
C 423.239265 39.183992 424.912045 39.5931 426.656019 39.5931 
z
" style="fill:#ff0000;opacity:0.2;stroke:#ff0000;stroke-linejoin:miter;stroke-width:2;"/>
   </g>
   <g id="patch_53">
    <path d="M 411.860033 38.945979 
Q 418.280898 37.541857 422.629416 36.590918 
" style="fill:none;opacity:0.5;stroke:#ff0000;stroke-linecap:round;stroke-width:3;"/>
    <path d="M 420.843596 35.445996 
L 422.629416 36.590918 
L 421.484494 38.376738 
" style="fill:none;opacity:0.5;stroke:#ff0000;stroke-linecap:round;stroke-width:3;"/>
   </g>
   <g id="[&quot;g_s&quot;:10,&quot;g_t&quot;:5,&quot;coords&quot;:[[340.5, -108.0],[355.0, -102.0]],&quot;certainty&quot;:12]">
    <path clip-path="url(#p2ba343060c)" d="M 341.716097 107.864332 
C 343.605402 107.864332 345.41758 107.421132 346.753521 106.63234 
C 348.089461 105.843549 348.84009 104.773567 348.84009 103.658048 
C 348.84009 102.542528 348.089461 101.472547 346.753521 100.683756 
C 345.41758 99.894964 343.605402 99.451763 341.716097 99.451763 
C 339.826792 99.451763 338.014613 99.894964 336.678673 100.683756 
C 335.342732 101.472547 334.592103 102.542528 334.592103 103.658048 
C 334.592103 104.773567 335.342732 105.843549 336.678673 106.63234 
C 338.014613 107.421132 339.826792 107.864332 341.716097 107.864332 
z
" style="fill:#0000ff;opacity:0.2;stroke:#0000ff;stroke-linejoin:miter;stroke-width:2;"/>
   </g>
   <g id="[&quot;g_s&quot;:5,&quot;g_t&quot;:10,&quot;coords&quot;:[[355.0, -102.0],[340.5, -108.0]],&quot;certainty&quot;:12]">
    <path clip-path="url(#p2ba343060c)" d="M 357.608082 103.981608 
C 359.497387 103.981608 361.309566 103.538407 362.645506 102.749616 
C 363.981447 101.960824 364.732076 100.890843 364.732076 99.775324 
C 364.732076 98.659804 363.981447 97.589823 362.645506 96.801031 
C 361.309566 96.01224 359.497387 95.569039 357.608082 95.569039 
C 355.718777 95.569039 353.906599 96.01224 352.570658 96.801031 
C 351.234718 97.589823 350.484089 98.659804 350.484089 99.775324 
C 350.484089 100.890843 351.234718 101.960824 352.570658 102.749616 
C 353.906599 103.538407 355.718777 103.981608 357.608082 103.981608 
z
" style="fill:#ff0000;opacity:0.2;stroke:#ff0000;stroke-linejoin:miter;stroke-width:2;"/>
   </g>
   <g id="patch_54">
    <path d="M 341.716097 103.658048 
Q 348.69018 101.954142 353.431829 100.795664 
" style="fill:none;opacity:0.5;stroke:#ff0000;stroke-linecap:round;stroke-width:3.25;"/>
    <path d="M 351.618681 99.694532 
L 353.431829 100.795664 
L 352.330697 102.608813 
" style="fill:none;opacity:0.5;stroke:#ff0000;stroke-linecap:round;stroke-width:3.25;"/>
   </g>
   <g id="[&quot;g_s&quot;:11,&quot;g_t&quot;:6,&quot;coords&quot;:[[168.5, -419.0],[167.0, -412.0]],&quot;certainty&quot;:11]">
    <path clip-path="url(#p2ba343060c)" d="M 153.204269 308.795305 
C 154.948243 308.795305 156.621023 308.386197 157.854199 307.658082 
C 159.087375 306.929966 159.780263 305.942292 159.780263 304.912581 
C 159.780263 303.882871 159.087375 302.895196 157.854199 302.167081 
C 156.621023 301.438965 154.948243 301.029857 153.204269 301.029857 
C 151.460295 301.029857 149.787515 301.438965 148.554339 302.167081 
C 147.321163 302.895196 146.628275 303.882871 146.628275 304.912581 
C 146.628275 305.942292 147.321163 306.929966 148.554339 307.658082 
C 149.787515 308.386197 151.460295 308.795305 153.204269 308.795305 
z
" style="fill:#0000ff;opacity:0.2;stroke:#0000ff;stroke-linejoin:miter;stroke-width:2;"/>
   </g>
   <g id="[&quot;g_s&quot;:6,&quot;g_t&quot;:11,&quot;coords&quot;:[[167.0, -412.0],[168.5, -419.0]],&quot;certainty&quot;:11]">
    <path clip-path="url(#p2ba343060c)" d="M 151.560271 304.26546 
C 153.304245 304.26546 154.977025 303.856352 156.210201 303.128237 
C 157.443376 302.400122 158.136265 301.412447 158.136265 300.382736 
C 158.136265 299.353026 157.443376 298.365351 156.210201 297.637236 
C 154.977025 296.909121 153.304245 296.500012 151.560271 296.500012 
C 149.816297 296.500012 148.143517 296.909121 146.910341 297.637236 
C 145.677165 298.365351 144.984277 299.353026 144.984277 300.382736 
C 144.984277 301.412447 145.677165 302.400122 146.910341 303.128237 
C 148.143517 303.856352 149.816297 304.26546 151.560271 304.26546 
z
" style="fill:#ff0000;opacity:0.2;stroke:#ff0000;stroke-linejoin:miter;stroke-width:2;"/>
   </g>
   <g id="patch_55">
    <path d="M 153.204269 304.912581 
Q 152.723432 303.58769 152.96629 304.256856 
" style="fill:none;opacity:0.5;stroke:#ff0000;stroke-linecap:round;stroke-width:3;"/>
    <path d="M 152.068008 306.178598 
L 152.96629 304.256856 
L 154.888031 305.155138 
" style="fill:none;opacity:0.5;stroke:#ff0000;stroke-linecap:round;stroke-width:3;"/>
   </g>
   <g id="[&quot;g_s&quot;:12,&quot;g_t&quot;:7,&quot;coords&quot;:[[140.5, -405.0],[126.0, -387.0]],&quot;certainty&quot;:8]">
    <path clip-path="url(#p2ba343060c)" d="M 122.516297 298.764935 
C 123.824278 298.764935 125.078863 298.458103 126.003745 297.912017 
C 126.928627 297.36593 127.448293 296.625174 127.448293 295.852892 
C 127.448293 295.080609 126.928627 294.339853 126.003745 293.793766 
C 125.078863 293.24768 123.824278 292.940848 122.516297 292.940848 
C 121.208317 292.940848 119.953732 293.24768 119.02885 293.793766 
C 118.103968 294.339853 117.584302 295.080609 117.584302 295.852892 
C 117.584302 296.625174 118.103968 297.36593 119.02885 297.912017 
C 119.953732 298.458103 121.208317 298.764935 122.516297 298.764935 
z
" style="fill:#0000ff;opacity:0.2;stroke:#0000ff;stroke-linejoin:miter;stroke-width:2;"/>
   </g>
   <g id="[&quot;g_s&quot;:7,&quot;g_t&quot;:12,&quot;coords&quot;:[[126.0, -387.0],[140.5, -405.0]],&quot;certainty&quot;:8]">
    <path clip-path="url(#p2ba343060c)" d="M 106.624312 287.116762 
C 107.932292 287.116762 109.186877 286.809931 110.111759 286.263845 
C 111.036641 285.717758 111.556307 284.977002 111.556307 284.204719 
C 111.556307 283.432436 111.036641 282.69168 110.111759 282.145594 
C 109.186877 281.599507 107.932292 281.292676 106.624312 281.292676 
C 105.316331 281.292676 104.061746 281.599507 103.136864 282.145594 
C 102.211983 282.69168 101.692316 283.432436 101.692316 284.204719 
C 101.692316 284.977002 102.211983 285.717758 103.136864 286.263845 
C 104.061746 286.809931 105.316331 287.116762 106.624312 287.116762 
z
" style="fill:#ff0000;opacity:0.2;stroke:#ff0000;stroke-linejoin:miter;stroke-width:2;"/>
   </g>
   <g id="patch_56">
    <path d="M 122.516297 295.852892 
Q 115.37538 290.618892 109.517673 286.325434 
" style="fill:none;opacity:0.5;stroke:#ff0000;stroke-linecap:round;stroke-width:2.25;"/>
    <path d="M 109.840746 288.422009 
L 109.517673 286.325434 
L 111.614248 286.002362 
" style="fill:none;opacity:0.5;stroke:#ff0000;stroke-linecap:round;stroke-width:2.25;"/>
   </g>
   <g id="[&quot;g_s&quot;:13,&quot;g_t&quot;:9,&quot;coords&quot;:[[308.5, -102.0],[305.0, -85.0]],&quot;certainty&quot;:4]">
    <path clip-path="url(#p2ba343060c)" d="M 306.644129 101.393125 
C 307.370785 101.393125 308.067776 101.222664 308.5816 100.919282 
C 309.095423 100.615901 309.384126 100.20437 309.384126 99.775324 
C 309.384126 99.346278 309.095423 98.934746 308.5816 98.631365 
C 308.067776 98.327984 307.370785 98.157522 306.644129 98.157522 
C 305.917473 98.157522 305.220481 98.327984 304.706658 98.631365 
C 304.192835 98.934746 303.904131 99.346278 303.904131 99.775324 
C 303.904131 100.20437 304.192835 100.615901 304.706658 100.919282 
C 305.220481 101.222664 305.917473 101.393125 306.644129 101.393125 
z
" style="fill:#0000ff;opacity:0.2;stroke:#0000ff;stroke-linejoin:miter;stroke-width:2;"/>
   </g>
   <g id="[&quot;g_s&quot;:9,&quot;g_t&quot;:13,&quot;coords&quot;:[[305.0, -85.0],[308.5, -102.0]],&quot;certainty&quot;:4]">
    <path clip-path="url(#p2ba343060c)" d="M 302.808132 90.392074 
C 303.534788 90.392074 304.23178 90.221612 304.745603 89.918231 
C 305.259426 89.614849 305.54813 89.203318 305.54813 88.774272 
C 305.54813 88.345226 305.259426 87.933695 304.745603 87.630313 
C 304.23178 87.326932 303.534788 87.15647 302.808132 87.15647 
C 302.081477 87.15647 301.384485 87.326932 300.870662 87.630313 
C 300.356838 87.933695 300.068135 88.345226 300.068135 88.774272 
C 300.068135 89.203318 300.356838 89.614849 300.870662 89.918231 
C 301.384485 90.221612 302.081477 90.392074 302.808132 90.392074 
z
" style="fill:#ff0000;opacity:0.2;stroke:#ff0000;stroke-linejoin:miter;stroke-width:2;"/>
   </g>
   <g id="patch_57">
    <path d="M 306.644129 99.775324 
Q 305.055318 95.218858 303.757527 91.496992 
" style="fill:none;opacity:0.5;stroke:#ff0000;stroke-linecap:round;stroke-width:1.25;"/>
    <path d="M 302.835041 93.407233 
L 303.757527 91.496992 
L 305.667768 92.419479 
" style="fill:none;opacity:0.5;stroke:#ff0000;stroke-linecap:round;stroke-width:1.25;"/>
   </g>
   <g id="patch_58">
    <path clip-path="url(#p2ba343060c)" d="M 180.330244 36.033936 
C 181.783556 36.033936 183.177539 35.693012 184.205186 35.08625 
C 185.232833 34.479487 185.810239 33.656425 185.810239 32.798333 
C 185.810239 31.940241 185.232833 31.117178 184.205186 30.510416 
C 183.177539 29.903653 181.783556 29.562729 180.330244 29.562729 
C 178.876933 29.562729 177.482949 29.903653 176.455303 30.510416 
C 175.427656 31.117178 174.850249 31.940241 174.850249 32.798333 
C 174.850249 33.656425 175.427656 34.479487 176.455303 35.08625 
C 177.482949 35.693012 178.876933 36.033936 180.330244 36.033936 
z
" style="fill:#008000;opacity:0.2;stroke:#008000;stroke-linejoin:miter;stroke-width:2;"/>
   </g>
   <g id="patch_59">
    <path clip-path="url(#p2ba343060c)" d="M 311.302125 36.033936 
C 312.755436 36.033936 314.14942 35.693012 315.177066 35.08625 
C 316.204713 34.479487 316.78212 33.656425 316.78212 32.798333 
C 316.78212 31.940241 316.204713 31.117178 315.177066 30.510416 
C 314.14942 29.903653 312.755436 29.562729 311.302125 29.562729 
C 309.848813 29.562729 308.454829 29.903653 307.427183 30.510416 
C 306.399536 31.117178 305.82213 31.940241 305.82213 32.798333 
C 305.82213 33.656425 306.399536 34.479487 307.427183 35.08625 
C 308.454829 35.693012 309.848813 36.033936 311.302125 36.033936 
z
" style="fill:#008000;opacity:0.2;stroke:#008000;stroke-linejoin:miter;stroke-width:2;"/>
   </g>
   <g id="patch_60">
    <path clip-path="url(#p2ba343060c)" d="M 414.32603 34.739695 
C 415.779342 34.739695 417.173325 34.398771 418.200972 33.792008 
C 419.228618 33.185246 419.806025 32.362183 419.806025 31.504091 
C 419.806025 30.645999 419.228618 29.822937 418.200972 29.216174 
C 417.173325 28.609411 415.779342 28.268488 414.32603 28.268488 
C 412.872719 28.268488 411.478735 28.609411 410.451089 29.216174 
C 409.423442 29.822937 408.846035 30.645999 408.846035 31.504091 
C 408.846035 32.362183 409.423442 33.185246 410.451089 33.792008 
C 411.478735 34.398771 412.872719 34.739695 414.32603 34.739695 
z
" style="fill:#008000;opacity:0.2;stroke:#008000;stroke-linejoin:miter;stroke-width:2;"/>
   </g>
   <g id="patch_61">
    <path clip-path="url(#p2ba343060c)" d="M 419.258026 40.563781 
C 420.711337 40.563781 422.105321 40.222857 423.132967 39.616095 
C 424.160614 39.009332 424.738021 38.18627 424.738021 37.328177 
C 424.738021 36.470085 424.160614 35.647023 423.132967 35.04026 
C 422.105321 34.433498 420.711337 34.092574 419.258026 34.092574 
C 417.804714 34.092574 416.410731 34.433498 415.383084 35.04026 
C 414.355438 35.647023 413.778031 36.470085 413.778031 37.328177 
C 413.778031 38.18627 414.355438 39.009332 415.383084 39.616095 
C 416.410731 40.222857 417.804714 40.563781 419.258026 40.563781 
z
" style="fill:#008000;opacity:0.2;stroke:#008000;stroke-linejoin:miter;stroke-width:2;"/>
   </g>
   <g id="patch_62">
    <path clip-path="url(#p2ba343060c)" d="M 349.662089 104.952289 
C 351.115401 104.952289 352.509385 104.611366 353.537031 104.004603 
C 354.564678 103.39784 355.142084 102.574778 355.142084 101.716686 
C 355.142084 100.858594 354.564678 100.035531 353.537031 99.428769 
C 352.509385 98.822006 351.115401 98.481082 349.662089 98.481082 
C 348.208778 98.481082 346.814794 98.822006 345.787148 99.428769 
C 344.759501 100.035531 344.182095 100.858594 344.182095 101.716686 
C 344.182095 102.574778 344.759501 103.39784 345.787148 104.004603 
C 346.814794 104.611366 348.208778 104.952289 349.662089 104.952289 
z
" style="fill:#008000;opacity:0.2;stroke:#008000;stroke-linejoin:miter;stroke-width:2;"/>
   </g>
   <g id="patch_63">
    <path clip-path="url(#p2ba343060c)" d="M 152.38227 305.883262 
C 153.835582 305.883262 155.229565 305.542339 156.257212 304.935576 
C 157.284858 304.328813 157.862265 303.505751 157.862265 302.647659 
C 157.862265 301.789567 157.284858 300.966504 156.257212 300.359742 
C 155.229565 299.752979 153.835582 299.412055 152.38227 299.412055 
C 150.928958 299.412055 149.534975 299.752979 148.507328 300.359742 
C 147.479682 300.966504 146.902275 301.789567 146.902275 302.647659 
C 146.902275 303.505751 147.479682 304.328813 148.507328 304.935576 
C 149.534975 305.542339 150.928958 305.883262 152.38227 305.883262 
z
" style="fill:#008000;opacity:0.2;stroke:#008000;stroke-linejoin:miter;stroke-width:2;"/>
   </g>
   <g id="patch_64">
    <path clip-path="url(#p2ba343060c)" d="M 114.570305 293.264409 
C 116.023616 293.264409 117.4176 292.923485 118.445246 292.316722 
C 119.472893 291.70996 120.0503 290.886897 120.0503 290.028805 
C 120.0503 289.170713 119.472893 288.347651 118.445246 287.740888 
C 117.4176 287.134126 116.023616 286.793202 114.570305 286.793202 
C 113.116993 286.793202 111.723009 287.134126 110.695363 287.740888 
C 109.667716 288.347651 109.09031 289.170713 109.09031 290.028805 
C 109.09031 290.886897 109.667716 291.70996 110.695363 292.316722 
C 111.723009 292.923485 113.116993 293.264409 114.570305 293.264409 
z
" style="fill:#008000;opacity:0.2;stroke:#008000;stroke-linejoin:miter;stroke-width:2;"/>
   </g>
   <g id="patch_65">
    <path clip-path="url(#p2ba343060c)" d="M 167.178256 79.067462 
C 168.631568 79.067462 170.025552 78.726538 171.053198 78.119775 
C 172.080845 77.513013 172.658251 76.68995 172.658251 75.831858 
C 172.658251 74.973766 172.080845 74.150704 171.053198 73.543941 
C 170.025552 72.937178 168.631568 72.596255 167.178256 72.596255 
C 165.724945 72.596255 164.330961 72.937178 163.303315 73.543941 
C 162.275668 74.150704 161.698261 74.973766 161.698261 75.831858 
C 161.698261 76.68995 162.275668 77.513013 163.303315 78.119775 
C 164.330961 78.726538 165.724945 79.067462 167.178256 79.067462 
z
" style="fill:#008000;opacity:0.2;stroke:#008000;stroke-linejoin:miter;stroke-width:2;"/>
   </g>
   <g id="patch_66">
    <path clip-path="url(#p2ba343060c)" d="M 92.650325 101.716686 
C 94.103636 101.716686 95.49762 101.375762 96.525266 100.768999 
C 97.552913 100.162237 98.13032 99.339174 98.13032 98.481082 
C 98.13032 97.62299 97.552913 96.799928 96.525266 96.193165 
C 95.49762 95.586402 94.103636 95.245479 92.650325 95.245479 
C 91.197013 95.245479 89.80303 95.586402 88.775383 96.193165 
C 87.747736 96.799928 87.17033 97.62299 87.17033 98.481082 
C 87.17033 99.339174 87.747736 100.162237 88.775383 100.768999 
C 89.80303 101.375762 91.197013 101.716686 92.650325 101.716686 
z
" style="fill:#008000;opacity:0.2;stroke:#008000;stroke-linejoin:miter;stroke-width:2;"/>
   </g>
   <g id="patch_67">
    <path clip-path="url(#p2ba343060c)" d="M 65.798349 97.510401 
C 67.251661 97.510401 68.645644 97.169478 69.673291 96.562715 
C 70.700937 95.955952 71.278344 95.13289 71.278344 94.274798 
C 71.278344 93.416706 70.700937 92.593643 69.673291 91.986881 
C 68.645644 91.380118 67.251661 91.039194 65.798349 91.039194 
C 64.345038 91.039194 62.951054 91.380118 61.923408 91.986881 
C 60.895761 92.593643 60.318354 93.416706 60.318354 94.274798 
C 60.318354 95.13289 60.895761 95.955952 61.923408 96.562715 
C 62.951054 97.169478 64.345038 97.510401 65.798349 97.510401 
z
" style="fill:#008000;opacity:0.2;stroke:#008000;stroke-linejoin:miter;stroke-width:2;"/>
   </g>
   <g id="patch_68">
    <path clip-path="url(#p2ba343060c)" d="M 97.034321 34.739695 
C 98.487632 34.739695 99.881616 34.398771 100.909262 33.792008 
C 101.936909 33.185246 102.514316 32.362183 102.514316 31.504091 
C 102.514316 30.645999 101.936909 29.822937 100.909262 29.216174 
C 99.881616 28.609411 98.487632 28.268488 97.034321 28.268488 
C 95.581009 28.268488 94.187026 28.609411 93.159379 29.216174 
C 92.131732 29.822937 91.554326 30.645999 91.554326 31.504091 
C 91.554326 32.362183 92.131732 33.185246 93.159379 33.792008 
C 94.187026 34.398771 95.581009 34.739695 97.034321 34.739695 
z
" style="fill:#008000;opacity:0.2;stroke:#008000;stroke-linejoin:miter;stroke-width:2;"/>
   </g>
   <g id="patch_69">
    <path clip-path="url(#p2ba343060c)" d="M 181.152244 42.828703 
C 186.96549 42.828703 192.541424 41.465009 196.65201 39.037958 
C 200.762596 36.610907 203.072224 33.318658 203.072224 29.88629 
C 203.072224 26.453921 200.762596 23.161672 196.65201 20.734621 
C 192.541424 18.30757 186.96549 16.943876 181.152244 16.943876 
C 175.338997 16.943876 169.763063 18.30757 165.652477 20.734621 
C 161.541891 23.161672 159.232264 26.453921 159.232264 29.88629 
C 159.232264 33.318658 161.541891 36.610907 165.652477 39.037958 
C 169.763063 41.465009 175.338997 42.828703 181.152244 42.828703 
z
" style="fill:none;opacity:0.2;stroke:#ff0000;stroke-linejoin:miter;stroke-width:2;"/>
   </g>
   <g id="patch_70">
    <path clip-path="url(#p2ba343060c)" d="M 305.54813 81.655944 
C 311.361376 81.655944 316.93731 80.29225 321.047896 77.865199 
C 325.158482 75.438148 327.46811 72.145899 327.46811 68.713531 
C 327.46811 65.281162 325.158482 61.988913 321.047896 59.561862 
C 316.93731 57.134811 311.361376 55.771117 305.54813 55.771117 
C 299.734883 55.771117 294.158949 57.134811 290.048363 59.561862 
C 285.937777 61.988913 283.62815 65.281162 283.62815 68.713531 
C 283.62815 72.145899 285.937777 75.438148 290.048363 77.865199 
C 294.158949 80.29225 299.734883 81.655944 305.54813 81.655944 
z
" style="fill:none;opacity:0.2;stroke:#0000ff;stroke-linejoin:miter;stroke-width:2;"/>
   </g>
   <g id="patch_71">
    <path clip-path="url(#p2ba343060c)" d="M 181.152244 36.357496 
C 184.058867 36.357496 186.846834 35.675649 188.902127 34.462124 
C 190.95742 33.248598 192.112234 31.602474 192.112234 29.88629 
C 192.112234 28.170105 190.95742 26.523981 188.902127 25.310455 
C 186.846834 24.09693 184.058867 23.415083 181.152244 23.415083 
C 178.24562 23.415083 175.457653 24.09693 173.40236 25.310455 
C 171.347067 26.523981 170.192254 28.170105 170.192254 29.88629 
C 170.192254 31.602474 171.347067 33.248598 173.40236 34.462124 
C 175.457653 35.675649 178.24562 36.357496 181.152244 36.357496 
z
" style="fill:none;opacity:0.2;stroke:#008000;stroke-linejoin:miter;stroke-width:2;"/>
   </g>
   <g id="patch_72">
    <path clip-path="url(#p2ba343060c)" d="M 179.508245 42.181583 
C 182.414868 42.181583 185.202835 41.499735 187.258128 40.28621 
C 189.313421 39.072685 190.468235 37.42656 190.468235 35.710376 
C 190.468235 33.994192 189.313421 32.348067 187.258128 31.134541 
C 185.202835 29.921016 182.414868 29.239169 179.508245 29.239169 
C 176.601622 29.239169 173.813655 29.921016 171.758362 31.134541 
C 169.703069 32.348067 168.548255 33.994192 168.548255 35.710376 
C 168.548255 37.42656 169.703069 39.072685 171.758362 40.28621 
C 173.813655 41.499735 176.601622 42.181583 179.508245 42.181583 
z
" style="fill:none;opacity:0.2;stroke:#008000;stroke-linejoin:miter;stroke-width:2;"/>
   </g>
   <g id="patch_73">
    <path d="M 180.330244 32.798333 
Q 245.816184 32.798333 311.302125 32.798333 
" style="fill:none;opacity:0.5;stroke:#008000;stroke-linecap:round;stroke-width:2;"/>
   </g>
   <g id="patch_74">
    <path d="M 180.768058 31.247319 
Q 180.60197 31.835709 180.435882 32.424099 
" style="fill:none;opacity:0.5;stroke:#800080;stroke-linecap:round;stroke-width:2;"/>
    <path d="M 178.916978 32.283418 
L 180.768058 31.247319 
L 181.804157 33.098399 
" style="fill:none;opacity:0.5;stroke:#800080;stroke-linecap:round;stroke-width:2;"/>
    <path d="M 182.286962 31.388 
L 180.435882 32.424099 
L 179.399782 30.573019 
" style="fill:none;opacity:0.5;stroke:#800080;stroke-linecap:round;stroke-width:2;"/>
   </g>
   <g id="patch_75">
    <path d="M 311.302125 32.798333 
Q 362.814077 32.151212 414.32603 31.504091 
" style="fill:none;opacity:0.5;stroke:#008000;stroke-linecap:round;stroke-width:2;"/>
   </g>
   <g id="patch_76">
    <path d="M 315.794297 30.524886 
Q 312.194162 32.346881 308.594027 34.168875 
" style="fill:none;opacity:0.5;stroke:#800080;stroke-linecap:round;stroke-width:2;"/>
    <path d="M 313.778599 29.863855 
L 315.794297 30.524886 
L 315.133267 32.540584 
" style="fill:none;opacity:0.5;stroke:#800080;stroke-linecap:round;stroke-width:2;"/>
    <path d="M 310.609725 34.829906 
L 308.594027 34.168875 
L 309.255058 32.153177 
" style="fill:none;opacity:0.5;stroke:#800080;stroke-linecap:round;stroke-width:2;"/>
   </g>
   <g id="patch_77">
    <path d="M 414.32603 31.504091 
Q 416.792028 34.416134 419.258026 37.328177 
" style="fill:none;opacity:0.5;stroke:#008000;stroke-linecap:round;stroke-width:2;"/>
   </g>
   <g id="patch_78">
    <path d="M 419.874534 29.145333 
Q 415.247502 31.112359 410.620469 33.079385 
" style="fill:none;opacity:0.5;stroke:#800080;stroke-linecap:round;stroke-width:2;"/>
    <path d="M 417.907249 28.351741 
L 419.874534 29.145333 
L 419.080942 31.112618 
" style="fill:none;opacity:0.5;stroke:#800080;stroke-linecap:round;stroke-width:2;"/>
    <path d="M 412.587755 33.872977 
L 410.620469 33.079385 
L 411.414061 31.1121 
" style="fill:none;opacity:0.5;stroke:#800080;stroke-linecap:round;stroke-width:2;"/>
   </g>
   <g id="patch_79">
    <path d="M 419.258026 37.328177 
Q 384.460058 69.522432 349.662089 101.716686 
" style="fill:none;opacity:0.5;stroke:#008000;stroke-linecap:round;stroke-width:2;"/>
   </g>
   <g id="patch_80">
    <path d="M 425.274454 36.012498 
Q 420.235153 37.114498 415.195853 38.216498 
" style="fill:none;opacity:0.5;stroke:#800080;stroke-linecap:round;stroke-width:2;"/>
    <path d="M 423.488634 34.867576 
L 425.274454 36.012498 
L 424.129532 37.798318 
" style="fill:none;opacity:0.5;stroke:#800080;stroke-linecap:round;stroke-width:2;"/>
    <path d="M 416.981673 39.36142 
L 415.195853 38.216498 
L 416.340775 36.430678 
" style="fill:none;opacity:0.5;stroke:#800080;stroke-linecap:round;stroke-width:2;"/>
   </g>
   <g id="patch_81">
    <path d="M 349.662089 101.716686 
Q 251.02218 202.182172 152.38227 302.647659 
" style="fill:none;opacity:0.5;stroke:#008000;stroke-linecap:round;stroke-width:2;"/>
   </g>
   <g id="patch_82">
    <path d="M 356.234277 100.110971 
Q 350.633999 101.479229 345.033721 102.847487 
" style="fill:none;opacity:0.5;stroke:#800080;stroke-linecap:round;stroke-width:2;"/>
    <path d="M 354.421129 99.009839 
L 356.234277 100.110971 
L 355.133145 101.92412 
" style="fill:none;opacity:0.5;stroke:#800080;stroke-linecap:round;stroke-width:2;"/>
    <path d="M 346.84687 103.948619 
L 345.033721 102.847487 
L 346.134854 101.034338 
" style="fill:none;opacity:0.5;stroke:#800080;stroke-linecap:round;stroke-width:2;"/>
   </g>
   <g id="patch_83">
    <path d="M 152.38227 302.647659 
Q 133.476287 296.338232 114.570305 290.028805 
" style="fill:none;opacity:0.5;stroke:#008000;stroke-linecap:round;stroke-width:2;"/>
   </g>
   <g id="patch_84">
    <path d="M 152.042734 301.712108 
Q 152.041108 301.707627 152.039482 301.703147 
" style="fill:none;opacity:0.5;stroke:#800080;stroke-linecap:round;stroke-width:2;"/>
    <path d="M 151.144453 303.633849 
L 152.042734 301.712108 
L 153.964476 302.61039 
" style="fill:none;opacity:0.5;stroke:#800080;stroke-linecap:round;stroke-width:2;"/>
    <path d="M 152.937764 299.781406 
L 152.039482 301.703147 
L 150.117741 300.804865 
" style="fill:none;opacity:0.5;stroke:#800080;stroke-linecap:round;stroke-width:2;"/>
   </g>
   <g id="patch_85">
    <path clip-path="url(#p2ba343060c)" d="M 163.61626 89.421393 
C 166.522883 89.421393 169.31085 88.739545 171.366143 87.52602 
C 173.421436 86.312495 174.57625 84.66637 174.57625 82.950186 
C 174.57625 81.234002 173.421436 79.587877 171.366143 78.374352 
C 169.31085 77.160826 166.522883 76.478979 163.61626 76.478979 
C 160.709636 76.478979 157.92167 77.160826 155.866376 78.374352 
C 153.811083 79.587877 152.65627 81.234002 152.65627 82.950186 
C 152.65627 84.66637 153.811083 86.312495 155.866376 87.52602 
C 157.92167 88.739545 160.709636 89.421393 163.61626 89.421393 
z
" style="fill:none;opacity:0.2;stroke:#008000;stroke-linejoin:miter;stroke-width:2;"/>
   </g>
   <g id="patch_86">
    <path clip-path="url(#p2ba343060c)" d="M 170.740253 75.184738 
C 173.646876 75.184738 176.434843 74.50289 178.490136 73.289365 
C 180.545429 72.07584 181.700243 70.429715 181.700243 68.713531 
C 181.700243 66.997347 180.545429 65.351222 178.490136 64.137696 
C 176.434843 62.924171 173.646876 62.242324 170.740253 62.242324 
C 167.83363 62.242324 165.045663 62.924171 162.99037 64.137696 
C 160.935077 65.351222 159.780263 66.997347 159.780263 68.713531 
C 159.780263 70.429715 160.935077 72.07584 162.99037 73.289365 
C 165.045663 74.50289 167.83363 75.184738 170.740253 75.184738 
z
" style="fill:none;opacity:0.2;stroke:#008000;stroke-linejoin:miter;stroke-width:2;"/>
   </g>
   <g id="patch_87">
    <path d="M 167.178256 75.831858 
Q 129.914291 87.15647 92.650325 98.481082 
" style="fill:none;opacity:0.5;stroke:#008000;stroke-linecap:round;stroke-width:2;"/>
   </g>
   <g id="patch_88">
    <path d="M 164.249118 81.685476 
Q 166.730398 76.726863 169.211678 71.76825 
" style="fill:none;opacity:0.5;stroke:#800080;stroke-linecap:round;stroke-width:2;"/>
    <path d="M 166.261792 81.015296 
L 164.249118 81.685476 
L 163.578938 79.672802 
" style="fill:none;opacity:0.5;stroke:#800080;stroke-linecap:round;stroke-width:2;"/>
    <path d="M 167.199003 72.438429 
L 169.211678 71.76825 
L 169.881858 73.780924 
" style="fill:none;opacity:0.5;stroke:#800080;stroke-linecap:round;stroke-width:2;"/>
   </g>
   <g id="patch_89">
    <path d="M 92.650325 98.481082 
Q 79.224337 96.37794 65.798349 94.274798 
" style="fill:none;opacity:0.5;stroke:#008000;stroke-linecap:round;stroke-width:2;"/>
   </g>
   <g id="patch_90">
    <path d="M 91.491778 106.142456 
Q 92.500815 99.469774 93.509853 92.797092 
" style="fill:none;opacity:0.5;stroke:#800080;stroke-linecap:round;stroke-width:2;"/>
    <path d="M 93.199195 104.883596 
L 91.491778 106.142456 
L 90.232919 104.435039 
" style="fill:none;opacity:0.5;stroke:#800080;stroke-linecap:round;stroke-width:2;"/>
    <path d="M 91.802436 94.055952 
L 93.509853 92.797092 
L 94.768712 94.504509 
" style="fill:none;opacity:0.5;stroke:#800080;stroke-linecap:round;stroke-width:2;"/>
   </g>
   <g id="patch_91">
    <path d="M 65.798349 94.274798 
Q 81.416335 62.889445 97.034321 31.504091 
" style="fill:none;opacity:0.5;stroke:#008000;stroke-linecap:round;stroke-width:2;"/>
   </g>
   <g id="patch_92">
    <path d="M 59.275948 102.54749 
Q 65.179743 95.059408 71.083537 87.571326 
" style="fill:none;opacity:0.5;stroke:#800080;stroke-linecap:round;stroke-width:2;"/>
    <path d="M 61.382578 102.298271 
L 59.275948 102.54749 
L 59.026729 100.44086 
" style="fill:none;opacity:0.5;stroke:#800080;stroke-linecap:round;stroke-width:2;"/>
    <path d="M 68.976907 87.820545 
L 71.083537 87.571326 
L 71.332756 89.677956 
" style="fill:none;opacity:0.5;stroke:#800080;stroke-linecap:round;stroke-width:2;"/>
   </g>
   <g id="patch_93">
    <path d="M 97.034321 31.504091 
Q 138.682283 32.151212 180.330244 32.798333 
" style="fill:none;opacity:0.5;stroke:#008000;stroke-linecap:round;stroke-width:2;"/>
   </g>
   <g id="patch_94">
    <path d="M 94.567214 29.487155 
Q 96.260352 30.871348 97.953489 32.25554 
" style="fill:none;opacity:0.5;stroke:#800080;stroke-linecap:round;stroke-width:2;"/>
    <path d="M 94.779116 31.597865 
L 94.567214 29.487155 
L 96.677924 29.275253 
" style="fill:none;opacity:0.5;stroke:#800080;stroke-linecap:round;stroke-width:2;"/>
    <path d="M 97.741587 30.14483 
L 97.953489 32.25554 
L 95.842779 32.467443 
" style="fill:none;opacity:0.5;stroke:#800080;stroke-linecap:round;stroke-width:2;"/>
   </g>
   <g id="line2d_1">
    <path clip-path="url(#p2ba343060c)" d="M 181.152244 29.88629 
L 317.056119 29.88629 
L 421.176024 28.592048 
L 426.656019 35.710376 
L 357.608082 99.775324 
L 151.560271 300.382736 
L 106.624312 284.204719 
L 281.984151 118.541824 
L 302.808132 88.774272 
L 281.984151 82.950186 
L 163.61626 82.950186 
L 91.280326 107.540772 
L 58.400356 103.658048 
L 93.472324 28.592048 
" style="fill:none;stroke:#ff0000;stroke-linecap:square;stroke-width:0.2;"/>
   </g>
   <g id="line2d_2">
    <path clip-path="url(#p2ba343060c)" d="M 305.54813 68.713531 
L 170.740253 68.713531 
L 94.020323 89.421393 
L 73.196342 84.891548 
L 100.596317 34.416134 
L 179.508245 35.710376 
L 305.54813 35.710376 
L 407.476037 34.416134 
L 411.860033 38.945979 
L 341.716097 103.658048 
L 153.204269 304.912581 
L 122.516297 295.852892 
L 306.644129 99.775324 
" style="fill:none;stroke:#0000ff;stroke-linecap:square;stroke-width:0.2;"/>
   </g>
  </g>
 </g>
 <defs>
  <clipPath id="p2ba343060c">
   <rect height="307.51175" width="409.903625" x="37.576375" y="13.32"/>
  </clipPath>
 </defs>
</svg>
