<?xml version="1.0" encoding="utf-8" standalone="no"?>
<!DOCTYPE svg PUBLIC "-//W3C//DTD SVG 1.1//EN"
  "http://www.w3.org/Graphics/SVG/1.1/DTD/svg11.dtd">
<!-- Created with matplotlib (http://matplotlib.org/) -->
<svg height="345.6pt" version="1.1" viewBox="0 0 460.8 345.6" width="460.8pt" xmlns="http://www.w3.org/2000/svg" xmlns:xlink="http://www.w3.org/1999/xlink">
 <defs>
  <style type="text/css">
*{stroke-linecap:butt;stroke-linejoin:round;}
  </style>
 </defs>
 <g id="figure_1">
  <g id="patch_1">
   <path d="M 0 345.6 
L 460.8 345.6 
L 460.8 0 
L 0 0 
z
" style="fill:#ffffff;"/>
  </g>
  <g id="axes_1">
   <g id="patch_2">
    <path clip-path="url(#p01e86ac335)" d="M 426.388349 34.768365 
C 427.040661 34.768365 427.666343 34.685507 428.127597 34.538041 
C 428.588851 34.390574 428.848017 34.190539 428.848017 33.98199 
C 428.848017 33.773441 428.588851 33.573406 428.127597 33.425939 
C 427.666343 33.278473 427.040661 33.195616 426.388349 33.195616 
C 425.736038 33.195616 425.110355 33.278473 424.649102 33.425939 
C 424.187848 33.573406 423.928682 33.773441 423.928682 33.98199 
C 423.928682 34.190539 424.187848 34.390574 424.649102 34.538041 
C 425.110355 34.685507 425.736038 34.768365 426.388349 34.768365 
z
" style="fill:#ff0000;opacity:0.2;stroke:#ff0000;stroke-linejoin:miter;stroke-width:2;"/>
   </g>
   <g id="patch_3">
    <path clip-path="url(#p01e86ac335)" d="M 169.353073 306.853943 
C 170.005384 306.853943 170.631067 306.771086 171.092321 306.623619 
C 171.553575 306.476153 171.812741 306.276118 171.812741 306.067569 
C 171.812741 305.85902 171.553575 305.658984 171.092321 305.511518 
C 170.631067 305.364052 170.005384 305.281194 169.353073 305.281194 
C 168.700761 305.281194 168.075079 305.364052 167.613825 305.511518 
C 167.152571 305.658984 166.893405 305.85902 166.893405 306.067569 
C 166.893405 306.276118 167.152571 306.476153 167.613825 306.623619 
C 168.075079 306.771086 168.700761 306.853943 169.353073 306.853943 
z
" style="fill:#ff0000;opacity:0.2;stroke:#ff0000;stroke-linejoin:miter;stroke-width:2;"/>
   </g>
   <g id="patch_4">
    <path clip-path="url(#p01e86ac335)" d="M 58.668026 306.853943 
C 59.320337 306.853943 59.94602 306.771086 60.407273 306.623619 
C 60.868527 306.476153 61.127693 306.276118 61.127693 306.067569 
C 61.127693 305.85902 60.868527 305.658984 60.407273 305.511518 
C 59.94602 305.364052 59.320337 305.281194 58.668026 305.281194 
C 58.015714 305.281194 57.390032 305.364052 56.928778 305.511518 
C 56.467524 305.658984 56.208358 305.85902 56.208358 306.067569 
C 56.208358 306.276118 56.467524 306.476153 56.928778 306.623619 
C 57.390032 306.771086 58.015714 306.853943 58.668026 306.853943 
z
" style="fill:#ff0000;opacity:0.2;stroke:#ff0000;stroke-linejoin:miter;stroke-width:2;"/>
   </g>
   <g id="patch_5">
    <path clip-path="url(#p01e86ac335)" d="M 315.703302 34.768365 
C 316.355614 34.768365 316.981296 34.685507 317.44255 34.538041 
C 317.903804 34.390574 318.16297 34.190539 318.16297 33.98199 
C 318.16297 33.773441 317.903804 33.573406 317.44255 33.425939 
C 316.981296 33.278473 316.355614 33.195616 315.703302 33.195616 
C 315.050991 33.195616 314.425308 33.278473 313.964054 33.425939 
C 313.5028 33.573406 313.243634 33.773441 313.243634 33.98199 
C 313.243634 34.190539 313.5028 34.390574 313.964054 34.538041 
C 314.425308 34.685507 315.050991 34.768365 315.703302 34.768365 
z
" style="fill:#ff0000;opacity:0.2;stroke:#ff0000;stroke-linejoin:miter;stroke-width:2;"/>
   </g>
   <g id="patch_6">
    <path clip-path="url(#p01e86ac335)" d="M 406.711008 28.870556 
C 407.363319 28.870556 407.989001 28.787698 408.450255 28.640232 
C 408.911509 28.492766 409.170675 28.29273 409.170675 28.084181 
C 409.170675 27.875632 408.911509 27.675597 408.450255 27.528131 
C 407.989001 27.380664 407.363319 27.297807 406.711008 27.297807 
C 406.058696 27.297807 405.433014 27.380664 404.97176 27.528131 
C 404.510506 27.675597 404.25134 27.875632 404.25134 28.084181 
C 404.25134 28.29273 404.510506 28.492766 404.97176 28.640232 
C 405.433014 28.787698 406.058696 28.870556 406.711008 28.870556 
z
" style="fill:#0000ff;opacity:0.2;stroke:#0000ff;stroke-linejoin:miter;stroke-width:2;"/>
   </g>
   <g id="patch_7">
    <path clip-path="url(#p01e86ac335)" d="M 149.675731 304.888007 
C 150.328043 304.888007 150.953725 304.80515 151.414979 304.657683 
C 151.876233 304.510217 152.135399 304.310181 152.135399 304.101632 
C 152.135399 303.893083 151.876233 303.693048 151.414979 303.545582 
C 150.953725 303.398115 150.328043 303.315258 149.675731 303.315258 
C 149.02342 303.315258 148.397737 303.398115 147.936483 303.545582 
C 147.47523 303.693048 147.216063 303.893083 147.216063 304.101632 
C 147.216063 304.310181 147.47523 304.510217 147.936483 304.657683 
C 148.397737 304.80515 149.02342 304.888007 149.675731 304.888007 
z
" style="fill:#0000ff;opacity:0.2;stroke:#0000ff;stroke-linejoin:miter;stroke-width:2;"/>
   </g>
   <g id="patch_8">
    <path clip-path="url(#p01e86ac335)" d="M 78.345367 304.888007 
C 78.997679 304.888007 79.623361 304.80515 80.084615 304.657683 
C 80.545869 304.510217 80.805035 304.310181 80.805035 304.101632 
C 80.805035 303.893083 80.545869 303.693048 80.084615 303.545582 
C 79.623361 303.398115 78.997679 303.315258 78.345367 303.315258 
C 77.693056 303.315258 77.067374 303.398115 76.60612 303.545582 
C 76.144866 303.693048 75.8857 303.893083 75.8857 304.101632 
C 75.8857 304.310181 76.144866 304.510217 76.60612 304.657683 
C 77.067374 304.80515 77.693056 304.888007 78.345367 304.888007 
z
" style="fill:#0000ff;opacity:0.2;stroke:#0000ff;stroke-linejoin:miter;stroke-width:2;"/>
   </g>
   <g id="patch_9">
    <path clip-path="url(#p01e86ac335)" d="M 335.380644 28.870556 
C 336.032955 28.870556 336.658638 28.787698 337.119892 28.640232 
C 337.581145 28.492766 337.840312 28.29273 337.840312 28.084181 
C 337.840312 27.875632 337.581145 27.675597 337.119892 27.528131 
C 336.658638 27.380664 336.032955 27.297807 335.380644 27.297807 
C 334.728332 27.297807 334.10265 27.380664 333.641396 27.528131 
C 333.180142 27.675597 332.920976 27.875632 332.920976 28.084181 
C 332.920976 28.29273 333.180142 28.492766 333.641396 28.640232 
C 334.10265 28.787698 334.728332 28.870556 335.380644 28.870556 
z
" style="fill:#0000ff;opacity:0.2;stroke:#0000ff;stroke-linejoin:miter;stroke-width:2;"/>
   </g>
   <g id="patch_10">
    <path clip-path="url(#p01e86ac335)" d="M 426.388349 33.98199 
L 169.353073 306.067569 
L 58.668026 306.067569 
L 315.703302 33.98199 
L 426.388349 33.98199 
" style="fill:none;stroke:#ff0000;stroke-linejoin:miter;stroke-width:0.5;"/>
   </g>
   <g id="patch_11">
    <path clip-path="url(#p01e86ac335)" d="M 406.711008 28.084181 
L 149.675731 304.101632 
L 78.345367 304.101632 
L 335.380644 28.084181 
L 406.711008 28.084181 
" style="fill:none;stroke:#0000ff;stroke-linejoin:miter;stroke-width:0.5;"/>
   </g>
   <g id="[&quot;g_s&quot;:1,&quot;g_t&quot;:1,&quot;coords&quot;:[[369.0, -24.0],[353.0, -9.0]],&quot;certainty&quot;:10]">
    <path clip-path="url(#p01e86ac335)" d="M 426.388349 36.14452 
C 428.182206 36.14452 429.902832 35.916662 431.171281 35.51113 
C 432.439729 35.105597 433.152436 34.5555 433.152436 33.98199 
C 433.152436 33.40848 432.439729 32.858383 431.171281 32.452851 
C 429.902832 32.047318 428.182206 31.81946 426.388349 31.81946 
C 424.594493 31.81946 422.873866 32.047318 421.605418 32.452851 
C 420.33697 32.858383 419.624263 33.40848 419.624263 33.98199 
C 419.624263 34.5555 420.33697 35.105597 421.605418 35.51113 
C 422.873866 35.916662 424.594493 36.14452 426.388349 36.14452 
z
" style="fill:#0000ff;opacity:0.2;stroke:#0000ff;stroke-linejoin:miter;stroke-width:2;"/>
   </g>
   <g id="[&quot;g_s&quot;:1,&quot;g_t&quot;:1,&quot;coords&quot;:[[353.0, -9.0],[369.0, -24.0]],&quot;certainty&quot;:10]">
    <path clip-path="url(#p01e86ac335)" d="M 406.711008 30.246711 
C 408.504864 30.246711 410.225491 30.018853 411.493939 29.613321 
C 412.762387 29.207788 413.475094 28.657691 413.475094 28.084181 
C 413.475094 27.510672 412.762387 26.960574 411.493939 26.555042 
C 410.225491 26.149509 408.504864 25.921651 406.711008 25.921651 
C 404.917151 25.921651 403.196525 26.149509 401.928076 26.555042 
C 400.659628 26.960574 399.946921 27.510672 399.946921 28.084181 
C 399.946921 28.657691 400.659628 29.207788 401.928076 29.613321 
C 403.196525 30.018853 404.917151 30.246711 406.711008 30.246711 
z
" style="fill:#ff0000;opacity:0.2;stroke:#ff0000;stroke-linejoin:miter;stroke-width:2;"/>
   </g>
   <g id="patch_12">
    <path d="M 426.388349 33.98199 
Q 417.506883 31.319985 410.488092 29.216271 
" style="fill:none;opacity:0.5;stroke:#0000ff;stroke-linecap:round;stroke-width:2.75;"/>
    <path d="M 411.49428 31.08378 
L 410.488092 29.216271 
L 412.355601 28.210084 
" style="fill:none;opacity:0.5;stroke:#0000ff;stroke-linecap:round;stroke-width:2.75;"/>
   </g>
   <g id="[&quot;g_s&quot;:2,&quot;g_t&quot;:2,&quot;coords&quot;:[[160.0, -716.0],[144.0, -711.0]],&quot;certainty&quot;:12]">
    <path clip-path="url(#p01e86ac335)" d="M 169.353073 308.623286 
C 171.473085 308.623286 173.506553 308.353999 175.005628 307.874734 
C 176.504703 307.395468 177.346993 306.745353 177.346993 306.067569 
C 177.346993 305.389785 176.504703 304.739669 175.005628 304.260404 
C 173.506553 303.781138 171.473085 303.511852 169.353073 303.511852 
C 167.233061 303.511852 165.199593 303.781138 163.700518 304.260404 
C 162.201443 304.739669 161.359153 305.389785 161.359153 306.067569 
C 161.359153 306.745353 162.201443 307.395468 163.700518 307.874734 
C 165.199593 308.353999 167.233061 308.623286 169.353073 308.623286 
z
" style="fill:#0000ff;opacity:0.2;stroke:#0000ff;stroke-linejoin:miter;stroke-width:2;"/>
   </g>
   <g id="[&quot;g_s&quot;:2,&quot;g_t&quot;:2,&quot;coords&quot;:[[144.0, -711.0],[160.0, -716.0]],&quot;certainty&quot;:12]">
    <path clip-path="url(#p01e86ac335)" d="M 149.675731 306.65735 
C 151.795744 306.65735 153.829211 306.388063 155.328286 305.908797 
C 156.827361 305.429532 157.669651 304.779417 157.669651 304.101632 
C 157.669651 303.423848 156.827361 302.773733 155.328286 302.294467 
C 153.829211 301.815202 151.795744 301.545915 149.675731 301.545915 
C 147.555719 301.545915 145.522251 301.815202 144.023176 302.294467 
C 142.524101 302.773733 141.681811 303.423848 141.681811 304.101632 
C 141.681811 304.779417 142.524101 305.429532 144.023176 305.908797 
C 145.522251 306.388063 147.555719 306.65735 149.675731 306.65735 
z
" style="fill:#ff0000;opacity:0.2;stroke:#ff0000;stroke-linejoin:miter;stroke-width:2;"/>
   </g>
   <g id="patch_13">
    <path d="M 169.353073 306.067569 
Q 160.51124 305.184193 153.95612 304.52928 
" style="fill:none;opacity:0.5;stroke:#0000ff;stroke-linecap:round;stroke-width:3.25;"/>
    <path d="M 155.299569 306.17097 
L 153.95612 304.52928 
L 155.59781 303.185831 
" style="fill:none;opacity:0.5;stroke:#0000ff;stroke-linecap:round;stroke-width:3.25;"/>
   </g>
   <g id="[&quot;g_s&quot;:3,&quot;g_t&quot;:3,&quot;coords&quot;:[[70.0, -716.0],[86.0, -711.0]],&quot;certainty&quot;:11]">
    <path clip-path="url(#p01e86ac335)" d="M 58.668026 308.426692 
C 60.62496 308.426692 62.502007 308.17812 63.885769 307.735721 
C 65.26953 307.293322 66.047029 306.693216 66.047029 306.067569 
C 66.047029 305.441922 65.26953 304.841816 63.885769 304.399416 
C 62.502007 303.957017 60.62496 303.708445 58.668026 303.708445 
C 56.711091 303.708445 54.834044 303.957017 53.450283 304.399416 
C 52.066521 304.841816 51.289023 305.441922 51.289023 306.067569 
C 51.289023 306.693216 52.066521 307.293322 53.450283 307.735721 
C 54.834044 308.17812 56.711091 308.426692 58.668026 308.426692 
z
" style="fill:#0000ff;opacity:0.2;stroke:#0000ff;stroke-linejoin:miter;stroke-width:2;"/>
   </g>
   <g id="[&quot;g_s&quot;:3,&quot;g_t&quot;:3,&quot;coords&quot;:[[86.0, -711.0],[70.0, -716.0]],&quot;certainty&quot;:11]">
    <path clip-path="url(#p01e86ac335)" d="M 78.345367 306.460756 
C 80.302302 306.460756 82.179349 306.212184 83.563111 305.769785 
C 84.946872 305.327386 85.724371 304.727279 85.724371 304.101632 
C 85.724371 303.475986 84.946872 302.875879 83.563111 302.43348 
C 82.179349 301.991081 80.302302 301.742509 78.345367 301.742509 
C 76.388433 301.742509 74.511386 301.991081 73.127624 302.43348 
C 71.743863 302.875879 70.966364 303.475986 70.966364 304.101632 
C 70.966364 304.727279 71.743863 305.327386 73.127624 305.769785 
C 74.511386 306.212184 76.388433 306.460756 78.345367 306.460756 
z
" style="fill:#ff0000;opacity:0.2;stroke:#ff0000;stroke-linejoin:miter;stroke-width:2;"/>
   </g>
   <g id="patch_14">
    <path d="M 58.668026 306.067569 
Q 67.509859 305.184193 74.24088 304.511706 
" style="fill:none;opacity:0.5;stroke:#0000ff;stroke-linecap:round;stroke-width:3;"/>
    <path d="M 72.59919 303.168257 
L 74.24088 304.511706 
L 72.897431 306.153396 
" style="fill:none;opacity:0.5;stroke:#0000ff;stroke-linecap:round;stroke-width:3;"/>
   </g>
   <g id="[&quot;g_s&quot;:4,&quot;g_t&quot;:4,&quot;coords&quot;:[[279.0, -24.0],[295.0, -9.0]],&quot;certainty&quot;:11]">
    <path clip-path="url(#p01e86ac335)" d="M 315.703302 36.341114 
C 317.660237 36.341114 319.537284 36.092541 320.921045 35.650142 
C 322.304807 35.207743 323.082305 34.607637 323.082305 33.98199 
C 323.082305 33.356343 322.304807 32.756237 320.921045 32.313838 
C 319.537284 31.871439 317.660237 31.622867 315.703302 31.622867 
C 313.746368 31.622867 311.869321 31.871439 310.485559 32.313838 
C 309.101797 32.756237 308.324299 33.356343 308.324299 33.98199 
C 308.324299 34.607637 309.101797 35.207743 310.485559 35.650142 
C 311.869321 36.092541 313.746368 36.341114 315.703302 36.341114 
z
" style="fill:#0000ff;opacity:0.2;stroke:#0000ff;stroke-linejoin:miter;stroke-width:2;"/>
   </g>
   <g id="[&quot;g_s&quot;:4,&quot;g_t&quot;:4,&quot;coords&quot;:[[295.0, -9.0],[279.0, -24.0]],&quot;certainty&quot;:11]">
    <path clip-path="url(#p01e86ac335)" d="M 335.380644 30.443305 
C 337.337578 30.443305 339.214625 30.194733 340.598387 29.752334 
C 341.982149 29.309934 342.759647 28.709828 342.759647 28.084181 
C 342.759647 27.458534 341.982149 26.858428 340.598387 26.416029 
C 339.214625 25.97363 337.337578 25.725058 335.380644 25.725058 
C 333.423709 25.725058 331.546662 25.97363 330.162901 26.416029 
C 328.779139 26.858428 328.001641 27.458534 328.001641 28.084181 
C 328.001641 28.709828 328.779139 29.309934 330.162901 29.752334 
C 331.546662 30.194733 333.423709 30.443305 335.380644 30.443305 
z
" style="fill:#ff0000;opacity:0.2;stroke:#ff0000;stroke-linejoin:miter;stroke-width:2;"/>
   </g>
   <g id="patch_15">
    <path d="M 315.703302 33.98199 
Q 324.584768 31.319985 331.434225 29.267025 
" style="fill:none;opacity:0.5;stroke:#0000ff;stroke-linecap:round;stroke-width:3;"/>
    <path d="M 329.566717 28.260838 
L 331.434225 29.267025 
L 330.428038 31.134534 
" style="fill:none;opacity:0.5;stroke:#0000ff;stroke-linecap:round;stroke-width:3;"/>
   </g>
   <g id="[&quot;g_s&quot;:1,&quot;g_t&quot;:1,&quot;coords&quot;:[[353.0, -9.0],[369.0, -24.0]],&quot;certainty&quot;:10]">
    <path clip-path="url(#p01e86ac335)" d="M 406.711008 30.246711 
C 408.504864 30.246711 410.225491 30.018853 411.493939 29.613321 
C 412.762387 29.207788 413.475094 28.657691 413.475094 28.084181 
C 413.475094 27.510672 412.762387 26.960574 411.493939 26.555042 
C 410.225491 26.149509 408.504864 25.921651 406.711008 25.921651 
C 404.917151 25.921651 403.196525 26.149509 401.928076 26.555042 
C 400.659628 26.960574 399.946921 27.510672 399.946921 28.084181 
C 399.946921 28.657691 400.659628 29.207788 401.928076 29.613321 
C 403.196525 30.018853 404.917151 30.246711 406.711008 30.246711 
z
" style="fill:#0000ff;opacity:0.2;stroke:#0000ff;stroke-linejoin:miter;stroke-width:2;"/>
   </g>
   <g id="[&quot;g_s&quot;:1,&quot;g_t&quot;:1,&quot;coords&quot;:[[369.0, -24.0],[353.0, -9.0]],&quot;certainty&quot;:10]">
    <path clip-path="url(#p01e86ac335)" d="M 426.388349 36.14452 
C 428.182206 36.14452 429.902832 35.916662 431.171281 35.51113 
C 432.439729 35.105597 433.152436 34.5555 433.152436 33.98199 
C 433.152436 33.40848 432.439729 32.858383 431.171281 32.452851 
C 429.902832 32.047318 428.182206 31.81946 426.388349 31.81946 
C 424.594493 31.81946 422.873866 32.047318 421.605418 32.452851 
C 420.33697 32.858383 419.624263 33.40848 419.624263 33.98199 
C 419.624263 34.5555 420.33697 35.105597 421.605418 35.51113 
C 422.873866 35.916662 424.594493 36.14452 426.388349 36.14452 
z
" style="fill:#ff0000;opacity:0.2;stroke:#ff0000;stroke-linejoin:miter;stroke-width:2;"/>
   </g>
   <g id="patch_16">
    <path d="M 406.711008 28.084181 
Q 415.592474 30.746187 422.611264 32.8499 
" style="fill:none;opacity:0.5;stroke:#ff0000;stroke-linecap:round;stroke-width:2.75;"/>
    <path d="M 421.605077 30.982392 
L 422.611264 32.8499 
L 420.743756 33.856087 
" style="fill:none;opacity:0.5;stroke:#ff0000;stroke-linecap:round;stroke-width:2.75;"/>
   </g>
   <g id="[&quot;g_s&quot;:2,&quot;g_t&quot;:2,&quot;coords&quot;:[[144.0, -711.0],[160.0, -716.0]],&quot;certainty&quot;:12]">
    <path clip-path="url(#p01e86ac335)" d="M 149.675731 306.65735 
C 151.795744 306.65735 153.829211 306.388063 155.328286 305.908797 
C 156.827361 305.429532 157.669651 304.779417 157.669651 304.101632 
C 157.669651 303.423848 156.827361 302.773733 155.328286 302.294467 
C 153.829211 301.815202 151.795744 301.545915 149.675731 301.545915 
C 147.555719 301.545915 145.522251 301.815202 144.023176 302.294467 
C 142.524101 302.773733 141.681811 303.423848 141.681811 304.101632 
C 141.681811 304.779417 142.524101 305.429532 144.023176 305.908797 
C 145.522251 306.388063 147.555719 306.65735 149.675731 306.65735 
z
" style="fill:#0000ff;opacity:0.2;stroke:#0000ff;stroke-linejoin:miter;stroke-width:2;"/>
   </g>
   <g id="[&quot;g_s&quot;:2,&quot;g_t&quot;:2,&quot;coords&quot;:[[160.0, -716.0],[144.0, -711.0]],&quot;certainty&quot;:12]">
    <path clip-path="url(#p01e86ac335)" d="M 169.353073 308.623286 
C 171.473085 308.623286 173.506553 308.353999 175.005628 307.874734 
C 176.504703 307.395468 177.346993 306.745353 177.346993 306.067569 
C 177.346993 305.389785 176.504703 304.739669 175.005628 304.260404 
C 173.506553 303.781138 171.473085 303.511852 169.353073 303.511852 
C 167.233061 303.511852 165.199593 303.781138 163.700518 304.260404 
C 162.201443 304.739669 161.359153 305.389785 161.359153 306.067569 
C 161.359153 306.745353 162.201443 307.395468 163.700518 307.874734 
C 165.199593 308.353999 167.233061 308.623286 169.353073 308.623286 
z
" style="fill:#ff0000;opacity:0.2;stroke:#ff0000;stroke-linejoin:miter;stroke-width:2;"/>
   </g>
   <g id="patch_17">
    <path d="M 149.675731 304.101632 
Q 158.517564 304.985008 165.072684 305.639921 
" style="fill:none;opacity:0.5;stroke:#ff0000;stroke-linecap:round;stroke-width:3.25;"/>
    <path d="M 163.729236 303.998231 
L 165.072684 305.639921 
L 163.430994 306.98337 
" style="fill:none;opacity:0.5;stroke:#ff0000;stroke-linecap:round;stroke-width:3.25;"/>
   </g>
   <g id="[&quot;g_s&quot;:3,&quot;g_t&quot;:3,&quot;coords&quot;:[[86.0, -711.0],[70.0, -716.0]],&quot;certainty&quot;:11]">
    <path clip-path="url(#p01e86ac335)" d="M 78.345367 306.460756 
C 80.302302 306.460756 82.179349 306.212184 83.563111 305.769785 
C 84.946872 305.327386 85.724371 304.727279 85.724371 304.101632 
C 85.724371 303.475986 84.946872 302.875879 83.563111 302.43348 
C 82.179349 301.991081 80.302302 301.742509 78.345367 301.742509 
C 76.388433 301.742509 74.511386 301.991081 73.127624 302.43348 
C 71.743863 302.875879 70.966364 303.475986 70.966364 304.101632 
C 70.966364 304.727279 71.743863 305.327386 73.127624 305.769785 
C 74.511386 306.212184 76.388433 306.460756 78.345367 306.460756 
z
" style="fill:#0000ff;opacity:0.2;stroke:#0000ff;stroke-linejoin:miter;stroke-width:2;"/>
   </g>
   <g id="[&quot;g_s&quot;:3,&quot;g_t&quot;:3,&quot;coords&quot;:[[70.0, -716.0],[86.0, -711.0]],&quot;certainty&quot;:11]">
    <path clip-path="url(#p01e86ac335)" d="M 58.668026 308.426692 
C 60.62496 308.426692 62.502007 308.17812 63.885769 307.735721 
C 65.26953 307.293322 66.047029 306.693216 66.047029 306.067569 
C 66.047029 305.441922 65.26953 304.841816 63.885769 304.399416 
C 62.502007 303.957017 60.62496 303.708445 58.668026 303.708445 
C 56.711091 303.708445 54.834044 303.957017 53.450283 304.399416 
C 52.066521 304.841816 51.289023 305.441922 51.289023 306.067569 
C 51.289023 306.693216 52.066521 307.293322 53.450283 307.735721 
C 54.834044 308.17812 56.711091 308.426692 58.668026 308.426692 
z
" style="fill:#ff0000;opacity:0.2;stroke:#ff0000;stroke-linejoin:miter;stroke-width:2;"/>
   </g>
   <g id="patch_18">
    <path d="M 78.345367 304.101632 
Q 69.503535 304.985008 62.772513 305.657495 
" style="fill:none;opacity:0.5;stroke:#ff0000;stroke-linecap:round;stroke-width:3;"/>
    <path d="M 64.414203 307.000944 
L 62.772513 305.657495 
L 64.115962 304.015805 
" style="fill:none;opacity:0.5;stroke:#ff0000;stroke-linecap:round;stroke-width:3;"/>
   </g>
   <g id="[&quot;g_s&quot;:4,&quot;g_t&quot;:4,&quot;coords&quot;:[[295.0, -9.0],[279.0, -24.0]],&quot;certainty&quot;:11]">
    <path clip-path="url(#p01e86ac335)" d="M 335.380644 30.443305 
C 337.337578 30.443305 339.214625 30.194733 340.598387 29.752334 
C 341.982149 29.309934 342.759647 28.709828 342.759647 28.084181 
C 342.759647 27.458534 341.982149 26.858428 340.598387 26.416029 
C 339.214625 25.97363 337.337578 25.725058 335.380644 25.725058 
C 333.423709 25.725058 331.546662 25.97363 330.162901 26.416029 
C 328.779139 26.858428 328.001641 27.458534 328.001641 28.084181 
C 328.001641 28.709828 328.779139 29.309934 330.162901 29.752334 
C 331.546662 30.194733 333.423709 30.443305 335.380644 30.443305 
z
" style="fill:#0000ff;opacity:0.2;stroke:#0000ff;stroke-linejoin:miter;stroke-width:2;"/>
   </g>
   <g id="[&quot;g_s&quot;:4,&quot;g_t&quot;:4,&quot;coords&quot;:[[279.0, -24.0],[295.0, -9.0]],&quot;certainty&quot;:11]">
    <path clip-path="url(#p01e86ac335)" d="M 315.703302 36.341114 
C 317.660237 36.341114 319.537284 36.092541 320.921045 35.650142 
C 322.304807 35.207743 323.082305 34.607637 323.082305 33.98199 
C 323.082305 33.356343 322.304807 32.756237 320.921045 32.313838 
C 319.537284 31.871439 317.660237 31.622867 315.703302 31.622867 
C 313.746368 31.622867 311.869321 31.871439 310.485559 32.313838 
C 309.101797 32.756237 308.324299 33.356343 308.324299 33.98199 
C 308.324299 34.607637 309.101797 35.207743 310.485559 35.650142 
C 311.869321 36.092541 313.746368 36.341114 315.703302 36.341114 
z
" style="fill:#ff0000;opacity:0.2;stroke:#ff0000;stroke-linejoin:miter;stroke-width:2;"/>
   </g>
   <g id="patch_19">
    <path d="M 335.380644 28.084181 
Q 326.499178 30.746187 319.649721 32.799146 
" style="fill:none;opacity:0.5;stroke:#ff0000;stroke-linecap:round;stroke-width:3;"/>
    <path d="M 321.517229 33.805333 
L 319.649721 32.799146 
L 320.655908 30.931638 
" style="fill:none;opacity:0.5;stroke:#ff0000;stroke-linecap:round;stroke-width:3;"/>
   </g>
   <g id="patch_20">
    <path clip-path="url(#p01e86ac335)" d="M 416.549678 32.999022 
C 418.180457 32.999022 419.744663 32.791879 420.897798 32.423213 
C 422.050932 32.054547 422.698848 31.554458 422.698848 31.033086 
C 422.698848 30.511713 422.050932 30.011625 420.897798 29.642959 
C 419.744663 29.274293 418.180457 29.067149 416.549678 29.067149 
C 414.9189 29.067149 413.354694 29.274293 412.201559 29.642959 
C 411.048424 30.011625 410.400509 30.511713 410.400509 31.033086 
C 410.400509 31.554458 411.048424 32.054547 412.201559 32.423213 
C 413.354694 32.791879 414.9189 32.999022 416.549678 32.999022 
z
" style="fill:#008000;opacity:0.2;stroke:#008000;stroke-linejoin:miter;stroke-width:2;"/>
   </g>
   <g id="patch_21">
    <path clip-path="url(#p01e86ac335)" d="M 159.514402 307.050537 
C 161.145181 307.050537 162.709387 306.843393 163.862521 306.474727 
C 165.015656 306.106061 165.663571 305.605973 165.663571 305.084601 
C 165.663571 304.563228 165.015656 304.06314 163.862521 303.694474 
C 162.709387 303.325808 161.145181 303.118664 159.514402 303.118664 
C 157.883623 303.118664 156.319417 303.325808 155.166283 303.694474 
C 154.013148 304.06314 153.365233 304.563228 153.365233 305.084601 
C 153.365233 305.605973 154.013148 306.106061 155.166283 306.474727 
C 156.319417 306.843393 157.883623 307.050537 159.514402 307.050537 
z
" style="fill:#008000;opacity:0.2;stroke:#008000;stroke-linejoin:miter;stroke-width:2;"/>
   </g>
   <g id="patch_22">
    <path clip-path="url(#p01e86ac335)" d="M 68.506697 307.050537 
C 70.137475 307.050537 71.701681 306.843393 72.854816 306.474727 
C 74.007951 306.106061 74.655866 305.605973 74.655866 305.084601 
C 74.655866 304.563228 74.007951 304.06314 72.854816 303.694474 
C 71.701681 303.325808 70.137475 303.118664 68.506697 303.118664 
C 66.875918 303.118664 65.311712 303.325808 64.158577 303.694474 
C 63.005443 304.06314 62.357527 304.563228 62.357527 305.084601 
C 62.357527 305.605973 63.005443 306.106061 64.158577 306.474727 
C 65.311712 306.843393 66.875918 307.050537 68.506697 307.050537 
z
" style="fill:#008000;opacity:0.2;stroke:#008000;stroke-linejoin:miter;stroke-width:2;"/>
   </g>
   <g id="patch_23">
    <path clip-path="url(#p01e86ac335)" d="M 325.541973 32.999022 
C 327.172752 32.999022 328.736958 32.791879 329.890092 32.423213 
C 331.043227 32.054547 331.691142 31.554458 331.691142 31.033086 
C 331.691142 30.511713 331.043227 30.011625 329.890092 29.642959 
C 328.736958 29.274293 327.172752 29.067149 325.541973 29.067149 
C 323.911194 29.067149 322.346988 29.274293 321.193854 29.642959 
C 320.040719 30.011625 319.392804 30.511713 319.392804 31.033086 
C 319.392804 31.554458 320.040719 32.054547 321.193854 32.423213 
C 322.346988 32.791879 323.911194 32.999022 325.541973 32.999022 
z
" style="fill:#008000;opacity:0.2;stroke:#008000;stroke-linejoin:miter;stroke-width:2;"/>
   </g>
   <g id="patch_24">
    <path clip-path="url(#p01e86ac335)" d="M 426.388349 41.845735 
C 432.911464 41.845735 439.168288 41.017161 443.780827 39.542498 
C 448.393365 38.067834 450.985026 36.06748 450.985026 33.98199 
C 450.985026 31.896501 448.393365 29.896146 443.780827 28.421483 
C 439.168288 26.946819 432.911464 26.118245 426.388349 26.118245 
C 419.865234 26.118245 413.608411 26.946819 408.995872 28.421483 
C 404.383333 29.896146 401.791672 31.896501 401.791672 33.98199 
C 401.791672 36.06748 404.383333 38.067834 408.995872 39.542498 
C 413.608411 41.017161 419.865234 41.845735 426.388349 41.845735 
z
" style="fill:none;opacity:0.2;stroke:#ff0000;stroke-linejoin:miter;stroke-width:2;"/>
   </g>
   <g id="patch_25">
    <path clip-path="url(#p01e86ac335)" d="M 406.711008 35.947926 
C 413.234123 35.947926 419.490946 35.119353 424.103485 33.644689 
C 428.716024 32.170025 431.307685 30.169671 431.307685 28.084181 
C 431.307685 25.998692 428.716024 23.998338 424.103485 22.523674 
C 419.490946 21.04901 413.234123 20.220436 406.711008 20.220436 
C 400.187893 20.220436 393.931069 21.04901 389.31853 22.523674 
C 384.705991 23.998338 382.11433 25.998692 382.11433 28.084181 
C 382.11433 30.169671 384.705991 32.170025 389.31853 33.644689 
C 393.931069 35.119353 400.187893 35.947926 406.711008 35.947926 
z
" style="fill:none;opacity:0.2;stroke:#0000ff;stroke-linejoin:miter;stroke-width:2;"/>
   </g>
   <g id="patch_26">
    <path clip-path="url(#p01e86ac335)" d="M 426.388349 37.913863 
C 429.649907 37.913863 432.778319 37.499576 435.084588 36.762244 
C 437.390857 36.024912 438.686688 35.024735 438.686688 33.98199 
C 438.686688 32.939245 437.390857 31.939068 435.084588 31.201736 
C 432.778319 30.464404 429.649907 30.050118 426.388349 30.050118 
C 423.126792 30.050118 419.99838 30.464404 417.692111 31.201736 
C 415.385841 31.939068 414.090011 32.939245 414.090011 33.98199 
C 414.090011 35.024735 415.385841 36.024912 417.692111 36.762244 
C 419.99838 37.499576 423.126792 37.913863 426.388349 37.913863 
z
" style="fill:none;opacity:0.2;stroke:#008000;stroke-linejoin:miter;stroke-width:2;"/>
   </g>
   <g id="patch_27">
    <path clip-path="url(#p01e86ac335)" d="M 406.711008 32.016054 
C 409.972565 32.016054 413.100977 31.601767 415.407246 30.864435 
C 417.713516 30.127103 419.009346 29.126926 419.009346 28.084181 
C 419.009346 27.041437 417.713516 26.04126 415.407246 25.303928 
C 413.100977 24.566596 409.972565 24.152309 406.711008 24.152309 
C 403.44945 24.152309 400.321038 24.566596 398.014769 25.303928 
C 395.7085 26.04126 394.412669 27.041437 394.412669 28.084181 
C 394.412669 29.126926 395.7085 30.127103 398.014769 30.864435 
C 400.321038 31.601767 403.44945 32.016054 406.711008 32.016054 
z
" style="fill:none;opacity:0.2;stroke:#008000;stroke-linejoin:miter;stroke-width:2;"/>
   </g>
   <g id="patch_28">
    <path d="M 416.549678 31.033086 
Q 288.03204 168.058843 159.514402 305.084601 
" style="fill:none;opacity:0.5;stroke:#008000;stroke-linecap:round;stroke-width:2;"/>
   </g>
   <g id="patch_29">
    <path d="M 425.033676 33.57596 
Q 417.506883 31.319985 409.98009 29.06401 
" style="fill:none;opacity:0.5;stroke:#800080;stroke-linecap:round;stroke-width:2;"/>
    <path d="M 424.027489 31.708451 
L 425.033676 33.57596 
L 423.166168 34.582147 
" style="fill:none;opacity:0.5;stroke:#800080;stroke-linecap:round;stroke-width:2;"/>
    <path d="M 410.986277 30.931518 
L 409.98009 29.06401 
L 411.847598 28.057823 
" style="fill:none;opacity:0.5;stroke:#800080;stroke-linecap:round;stroke-width:2;"/>
   </g>
   <g id="patch_30">
    <path d="M 159.514402 305.084601 
Q 114.010549 305.084601 68.506697 305.084601 
" style="fill:none;opacity:0.5;stroke:#008000;stroke-linecap:round;stroke-width:2;"/>
   </g>
   <g id="patch_31">
    <path d="M 167.945865 305.926976 
Q 160.51124 305.184193 153.076615 304.44141 
" style="fill:none;opacity:0.5;stroke:#800080;stroke-linecap:round;stroke-width:2;"/>
    <path d="M 166.602416 304.285287 
L 167.945865 305.926976 
L 166.304175 307.270425 
" style="fill:none;opacity:0.5;stroke:#800080;stroke-linecap:round;stroke-width:2;"/>
    <path d="M 154.420064 306.0831 
L 153.076615 304.44141 
L 154.718305 303.097961 
" style="fill:none;opacity:0.5;stroke:#800080;stroke-linecap:round;stroke-width:2;"/>
   </g>
   <g id="patch_32">
    <path d="M 68.506697 305.084601 
Q 197.024335 168.058843 325.541973 31.033086 
" style="fill:none;opacity:0.5;stroke:#008000;stroke-linecap:round;stroke-width:2;"/>
   </g>
   <g id="patch_33">
    <path d="M 60.075233 305.926976 
Q 67.509859 305.184193 74.944484 304.44141 
" style="fill:none;opacity:0.5;stroke:#800080;stroke-linecap:round;stroke-width:2;"/>
    <path d="M 61.716923 307.270425 
L 60.075233 305.926976 
L 61.418682 304.285287 
" style="fill:none;opacity:0.5;stroke:#800080;stroke-linecap:round;stroke-width:2;"/>
    <path d="M 73.302794 303.097961 
L 74.944484 304.44141 
L 73.601035 306.0831 
" style="fill:none;opacity:0.5;stroke:#800080;stroke-linecap:round;stroke-width:2;"/>
   </g>
   <g id="patch_34">
    <path d="M 325.541973 31.033086 
Q 371.045826 31.033086 416.549678 31.033086 
" style="fill:none;opacity:0.5;stroke:#008000;stroke-linecap:round;stroke-width:2;"/>
   </g>
   <g id="patch_35">
    <path d="M 317.057975 33.57596 
Q 324.584768 31.319985 332.111561 29.06401 
" style="fill:none;opacity:0.5;stroke:#800080;stroke-linecap:round;stroke-width:2;"/>
    <path d="M 318.925483 34.582147 
L 317.057975 33.57596 
L 318.064162 31.708451 
" style="fill:none;opacity:0.5;stroke:#800080;stroke-linecap:round;stroke-width:2;"/>
    <path d="M 330.244053 28.057823 
L 332.111561 29.06401 
L 331.105374 30.931518 
" style="fill:none;opacity:0.5;stroke:#800080;stroke-linecap:round;stroke-width:2;"/>
   </g>
   <g id="line2d_1">
    <path clip-path="url(#p01e86ac335)" d="M 426.388349 33.98199 
L 169.353073 306.067569 
L 58.668026 306.067569 
L 315.703302 33.98199 
" style="fill:none;stroke:#ff0000;stroke-linecap:square;stroke-width:0.2;"/>
   </g>
   <g id="line2d_2">
    <path clip-path="url(#p01e86ac335)" d="M 406.711008 28.084181 
L 149.675731 304.101632 
L 78.345367 304.101632 
L 335.380644 28.084181 
" style="fill:none;stroke:#0000ff;stroke-linecap:square;stroke-width:0.2;"/>
   </g>
  </g>
 </g>
 <defs>
  <clipPath id="p01e86ac335">
   <rect height="307.51175" width="409.903625" x="37.576375" y="13.32"/>
  </clipPath>
 </defs>
</svg>
