<?xml version="1.0" encoding="utf-8" standalone="no"?>
<!DOCTYPE svg PUBLIC "-//W3C//DTD SVG 1.1//EN"
  "http://www.w3.org/Graphics/SVG/1.1/DTD/svg11.dtd">
<!-- Created with matplotlib (http://matplotlib.org/) -->
<svg height="345.6pt" version="1.1" viewBox="0 0 460.8 345.6" width="460.8pt" xmlns="http://www.w3.org/2000/svg" xmlns:xlink="http://www.w3.org/1999/xlink">
 <defs>
  <style type="text/css">
*{stroke-linecap:butt;stroke-linejoin:round;}
  </style>
 </defs>
 <g id="figure_1">
  <g id="patch_1">
   <path d="M 0 345.6 
L 460.8 345.6 
L 460.8 0 
L 0 0 
z
" style="fill:#ffffff;"/>
  </g>
  <g id="axes_1">
   <g id="patch_2">
    <path clip-path="url(#pa47d037d42)" d="M 215.201279 31.899554 
C 216.518948 31.899554 217.782827 31.657119 218.71456 31.225644 
C 219.646292 30.794168 220.169808 30.208879 220.169808 29.59868 
C 220.169808 28.988482 219.646292 28.403193 218.71456 27.971717 
C 217.782827 27.540241 216.518948 27.297807 215.201279 27.297807 
C 213.88361 27.297807 212.619732 27.540241 211.687999 27.971717 
C 210.756266 28.403193 210.23275 28.988482 210.23275 29.59868 
C 210.23275 30.208879 210.756266 30.794168 211.687999 31.225644 
C 212.619732 31.657119 213.88361 31.899554 215.201279 31.899554 
z
" style="fill:#ff0000;opacity:0.2;stroke:#ff0000;stroke-linejoin:miter;stroke-width:2;"/>
   </g>
   <g id="patch_3">
    <path clip-path="url(#pa47d037d42)" d="M 423.879488 145.792795 
C 425.197157 145.792795 426.461036 145.55036 427.392769 145.118884 
C 428.324502 144.687409 428.848017 144.10212 428.848017 143.491921 
C 428.848017 142.881722 428.324502 142.296434 427.392769 141.864958 
C 426.461036 141.433482 425.197157 141.191048 423.879488 141.191048 
C 422.561819 141.191048 421.297941 141.433482 420.366208 141.864958 
C 419.434475 142.296434 418.910959 142.881722 418.910959 143.491921 
C 418.910959 144.10212 419.434475 144.687409 420.366208 145.118884 
C 421.297941 145.55036 422.561819 145.792795 423.879488 145.792795 
z
" style="fill:#ff0000;opacity:0.2;stroke:#ff0000;stroke-linejoin:miter;stroke-width:2;"/>
   </g>
   <g id="patch_4">
    <path clip-path="url(#pa47d037d42)" d="M 98.440853 306.853943 
C 99.758522 306.853943 101.0224 306.611509 101.954133 306.180033 
C 102.885866 305.748557 103.409381 305.163268 103.409381 304.55307 
C 103.409381 303.942871 102.885866 303.357582 101.954133 302.926106 
C 101.0224 302.494631 99.758522 302.252196 98.440853 302.252196 
C 97.123183 302.252196 95.859305 302.494631 94.927572 302.926106 
C 93.995839 303.357582 93.472324 303.942871 93.472324 304.55307 
C 93.472324 305.163268 93.995839 305.748557 94.927572 306.180033 
C 95.859305 306.611509 97.123183 306.853943 98.440853 306.853943 
z
" style="fill:#ff0000;opacity:0.2;stroke:#ff0000;stroke-linejoin:miter;stroke-width:2;"/>
   </g>
   <g id="patch_5">
    <path clip-path="url(#pa47d037d42)" d="M 78.566737 268.88953 
C 79.884407 268.88953 81.148285 268.647095 82.080018 268.215619 
C 83.011751 267.784144 83.535266 267.198855 83.535266 266.588656 
C 83.535266 265.978457 83.011751 265.393168 82.080018 264.961693 
C 81.148285 264.530217 79.884407 264.287783 78.566737 264.287783 
C 77.249068 264.287783 75.98519 264.530217 75.053457 264.961693 
C 74.121724 265.393168 73.598209 265.978457 73.598209 266.588656 
C 73.598209 267.198855 74.121724 267.784144 75.053457 268.215619 
C 75.98519 268.647095 77.249068 268.88953 78.566737 268.88953 
z
" style="fill:#ff0000;opacity:0.2;stroke:#ff0000;stroke-linejoin:miter;stroke-width:2;"/>
   </g>
   <g id="patch_6">
    <path clip-path="url(#pa47d037d42)" d="M 247.496716 187.208519 
C 248.814386 187.208519 250.078264 186.966084 251.009997 186.534608 
C 251.94173 186.103133 252.465245 185.517844 252.465245 184.907645 
C 252.465245 184.297446 251.94173 183.712157 251.009997 183.280682 
C 250.078264 182.849206 248.814386 182.606771 247.496716 182.606771 
C 246.179047 182.606771 244.915169 182.849206 243.983436 183.280682 
C 243.051703 183.712157 242.528188 184.297446 242.528188 184.907645 
C 242.528188 185.517844 243.051703 186.103133 243.983436 186.534608 
C 244.915169 186.966084 246.179047 187.208519 247.496716 187.208519 
z
" style="fill:#ff0000;opacity:0.2;stroke:#ff0000;stroke-linejoin:miter;stroke-width:2;"/>
   </g>
   <g id="patch_7">
    <path clip-path="url(#pa47d037d42)" d="M 138.189083 129.68668 
C 139.506752 129.68668 140.770631 129.444245 141.702363 129.01277 
C 142.634096 128.581294 143.157612 127.996005 143.157612 127.385806 
C 143.157612 126.775607 142.634096 126.190319 141.702363 125.758843 
C 140.770631 125.327367 139.506752 125.084933 138.189083 125.084933 
C 136.871414 125.084933 135.607535 125.327367 134.675803 125.758843 
C 133.74407 126.190319 133.220554 126.775607 133.220554 127.385806 
C 133.220554 127.996005 133.74407 128.581294 134.675803 129.01277 
C 135.607535 129.444245 136.871414 129.68668 138.189083 129.68668 
z
" style="fill:#ff0000;opacity:0.2;stroke:#ff0000;stroke-linejoin:miter;stroke-width:2;"/>
   </g>
   <g id="patch_8">
    <path clip-path="url(#pa47d037d42)" d="M 78.566737 89.421393 
C 79.884407 89.421393 81.148285 89.178958 82.080018 88.747482 
C 83.011751 88.316007 83.535266 87.730718 83.535266 87.120519 
C 83.535266 86.51032 83.011751 85.925032 82.080018 85.493556 
C 81.148285 85.06208 79.884407 84.819646 78.566737 84.819646 
C 77.249068 84.819646 75.98519 85.06208 75.053457 85.493556 
C 74.121724 85.925032 73.598209 86.51032 73.598209 87.120519 
C 73.598209 87.730718 74.121724 88.316007 75.053457 88.747482 
C 75.98519 89.178958 77.249068 89.421393 78.566737 89.421393 
z
" style="fill:#ff0000;opacity:0.2;stroke:#ff0000;stroke-linejoin:miter;stroke-width:2;"/>
   </g>
   <g id="patch_9">
    <path clip-path="url(#pa47d037d42)" d="M 227.622601 45.704795 
C 228.94027 45.704795 230.204149 45.462361 231.135882 45.030885 
C 232.067614 44.599409 232.59113 44.01412 232.59113 43.403922 
C 232.59113 42.793723 232.067614 42.208434 231.135882 41.776958 
C 230.204149 41.345483 228.94027 41.103048 227.622601 41.103048 
C 226.304932 41.103048 225.041054 41.345483 224.109321 41.776958 
C 223.177588 42.208434 222.654072 42.793723 222.654072 43.403922 
C 222.654072 44.01412 223.177588 44.599409 224.109321 45.030885 
C 225.041054 45.462361 226.304932 45.704795 227.622601 45.704795 
z
" style="fill:#0000ff;opacity:0.2;stroke:#0000ff;stroke-linejoin:miter;stroke-width:2;"/>
   </g>
   <g id="patch_10">
    <path clip-path="url(#pa47d037d42)" d="M 394.068316 141.191048 
C 395.385985 141.191048 396.649863 140.948613 397.581596 140.517137 
C 398.513329 140.085662 399.036844 139.500373 399.036844 138.890174 
C 399.036844 138.279975 398.513329 137.694686 397.581596 137.263211 
C 396.649863 136.831735 395.385985 136.5893 394.068316 136.5893 
C 392.750646 136.5893 391.486768 136.831735 390.555035 137.263211 
C 389.623302 137.694686 389.099787 138.279975 389.099787 138.890174 
C 389.099787 139.500373 389.623302 140.085662 390.555035 140.517137 
C 391.486768 140.948613 392.750646 141.191048 394.068316 141.191048 
z
" style="fill:#0000ff;opacity:0.2;stroke:#0000ff;stroke-linejoin:miter;stroke-width:2;"/>
   </g>
   <g id="patch_11">
    <path clip-path="url(#pa47d037d42)" d="M 120.799232 288.446955 
C 122.116901 288.446955 123.38078 288.20452 124.312513 287.773045 
C 125.244245 287.341569 125.767761 286.75628 125.767761 286.146081 
C 125.767761 285.535882 125.244245 284.950594 124.312513 284.519118 
C 123.38078 284.087642 122.116901 283.845208 120.799232 283.845208 
C 119.481563 283.845208 118.217685 284.087642 117.285952 284.519118 
C 116.354219 284.950594 115.830703 285.535882 115.830703 286.146081 
C 115.830703 286.75628 116.354219 287.341569 117.285952 287.773045 
C 118.217685 288.20452 119.481563 288.446955 120.799232 288.446955 
z
" style="fill:#0000ff;opacity:0.2;stroke:#0000ff;stroke-linejoin:miter;stroke-width:2;"/>
   </g>
   <g id="patch_12">
    <path clip-path="url(#pa47d037d42)" d="M 108.37791 252.783415 
C 109.695579 252.783415 110.959458 252.54098 111.891191 252.109504 
C 112.822923 251.678029 113.346439 251.09274 113.346439 250.482541 
C 113.346439 249.872342 112.822923 249.287054 111.891191 248.855578 
C 110.959458 248.424102 109.695579 248.181668 108.37791 248.181668 
C 107.060241 248.181668 105.796363 248.424102 104.86463 248.855578 
C 103.932897 249.287054 103.409381 249.872342 103.409381 250.482541 
C 103.409381 251.09274 103.932897 251.678029 104.86463 252.109504 
C 105.796363 252.54098 107.060241 252.783415 108.37791 252.783415 
z
" style="fill:#0000ff;opacity:0.2;stroke:#0000ff;stroke-linejoin:miter;stroke-width:2;"/>
   </g>
   <g id="patch_13">
    <path clip-path="url(#pa47d037d42)" d="M 264.886567 172.25284 
C 266.204236 172.25284 267.468115 172.010406 268.399847 171.57893 
C 269.33158 171.147455 269.855096 170.562166 269.855096 169.951967 
C 269.855096 169.341768 269.33158 168.756479 268.399847 168.325004 
C 267.468115 167.893528 266.204236 167.651093 264.886567 167.651093 
C 263.568898 167.651093 262.305019 167.893528 261.373287 168.325004 
C 260.441554 168.756479 259.918038 169.341768 259.918038 169.951967 
C 259.918038 170.562166 260.441554 171.147455 261.373287 171.57893 
C 262.305019 172.010406 263.568898 172.25284 264.886567 172.25284 
z
" style="fill:#0000ff;opacity:0.2;stroke:#0000ff;stroke-linejoin:miter;stroke-width:2;"/>
   </g>
   <g id="patch_14">
    <path clip-path="url(#pa47d037d42)" d="M 160.547462 118.182312 
C 161.865132 118.182312 163.12901 117.939878 164.060743 117.508402 
C 164.992476 117.076926 165.515991 116.491637 165.515991 115.881439 
C 165.515991 115.27124 164.992476 114.685951 164.060743 114.254475 
C 163.12901 113.823 161.865132 113.580565 160.547462 113.580565 
C 159.229793 113.580565 157.965915 113.823 157.034182 114.254475 
C 156.102449 114.685951 155.578934 115.27124 155.578934 115.881439 
C 155.578934 116.491637 156.102449 117.076926 157.034182 117.508402 
C 157.965915 117.939878 159.229793 118.182312 160.547462 118.182312 
z
" style="fill:#0000ff;opacity:0.2;stroke:#0000ff;stroke-linejoin:miter;stroke-width:2;"/>
   </g>
   <g id="patch_15">
    <path clip-path="url(#pa47d037d42)" d="M 123.283497 89.421393 
C 124.601166 89.421393 125.865044 89.178958 126.796777 88.747482 
C 127.72851 88.316007 128.252025 87.730718 128.252025 87.120519 
C 128.252025 86.51032 127.72851 85.925032 126.796777 85.493556 
C 125.865044 85.06208 124.601166 84.819646 123.283497 84.819646 
C 121.965827 84.819646 120.701949 85.06208 119.770216 85.493556 
C 118.838483 85.925032 118.314968 86.51032 118.314968 87.120519 
C 118.314968 87.730718 118.838483 88.316007 119.770216 88.747482 
C 120.701949 89.178958 121.965827 89.421393 123.283497 89.421393 
z
" style="fill:#0000ff;opacity:0.2;stroke:#0000ff;stroke-linejoin:miter;stroke-width:2;"/>
   </g>
   <g id="patch_16">
    <path clip-path="url(#pa47d037d42)" d="M 215.201279 29.59868 
C 297.182004 29.59868 423.879488 61.81091 423.879488 143.491921 
C 423.879488 237.827737 274.823625 287.296518 98.440853 304.55307 
C 63.661151 303.402633 56.208358 273.491277 78.566737 266.588656 
C 148.126141 255.084288 247.496716 224.022495 247.496716 184.907645 
C 247.496716 149.244105 185.390106 133.13799 138.189083 127.385806 
C 103.409381 122.784059 78.566737 106.677944 78.566737 87.120519 
C 78.566737 54.908289 140.673347 29.59868 215.201279 29.59868 
" style="fill:none;stroke:#ff0000;stroke-linejoin:miter;stroke-width:0.5;"/>
   </g>
   <g id="patch_17">
    <path clip-path="url(#pa47d037d42)" d="M 227.622601 43.403922 
C 299.666269 43.403922 394.068316 74.465715 394.068316 138.890174 
C 394.068316 220.571185 267.370831 265.438219 120.799232 286.146081 
C 100.925117 281.544334 98.440853 255.084288 108.37791 250.482541 
C 168.000256 241.279047 264.886567 214.819001 264.886567 169.951967 
C 264.886567 134.288427 177.937313 120.483186 160.547462 115.881439 
C 133.220554 108.978818 123.283497 98.624887 123.283497 87.120519 
C 123.283497 65.26222 160.547462 43.403922 227.622601 43.403922 
" style="fill:none;stroke:#0000ff;stroke-linejoin:miter;stroke-width:0.5;"/>
   </g>
   <g id="[&quot;g_s&quot;:1,&quot;g_t&quot;:1,&quot;coords&quot;:[[228.0, -745.0],[233.0, -757.0]],&quot;certainty&quot;:11]">
    <path clip-path="url(#pa47d037d42)" d="M 215.201279 36.501301 
C 219.154287 36.501301 222.945922 35.773997 225.74112 34.47957 
C 228.536319 33.185143 230.106866 31.429277 230.106866 29.59868 
C 230.106866 27.768084 228.536319 26.012218 225.74112 24.71779 
C 222.945922 23.423363 219.154287 22.69606 215.201279 22.69606 
C 211.248271 22.69606 207.456637 23.423363 204.661438 24.71779 
C 201.866239 26.012218 200.295693 27.768084 200.295693 29.59868 
C 200.295693 31.429277 201.866239 33.185143 204.661438 34.47957 
C 207.456637 35.773997 211.248271 36.501301 215.201279 36.501301 
z
" style="fill:#0000ff;opacity:0.2;stroke:#0000ff;stroke-linejoin:miter;stroke-width:2;"/>
   </g>
   <g id="[&quot;g_s&quot;:1,&quot;g_t&quot;:1,&quot;coords&quot;:[[233.0, -757.0],[228.0, -745.0]],&quot;certainty&quot;:11]">
    <path clip-path="url(#pa47d037d42)" d="M 227.622601 50.306542 
C 231.575609 50.306542 235.367244 49.579239 238.162442 48.284812 
C 240.957641 46.990384 242.528188 45.234518 242.528188 43.403922 
C 242.528188 41.573325 240.957641 39.817459 238.162442 38.523032 
C 235.367244 37.228605 231.575609 36.501301 227.622601 36.501301 
C 223.669593 36.501301 219.877958 37.228605 217.08276 38.523032 
C 214.287561 39.817459 212.717015 41.573325 212.717015 43.403922 
C 212.717015 45.234518 214.287561 46.990384 217.08276 48.284812 
C 219.877958 49.579239 223.669593 50.306542 227.622601 50.306542 
z
" style="fill:#ff0000;opacity:0.2;stroke:#ff0000;stroke-linejoin:miter;stroke-width:2;"/>
   </g>
   <g id="patch_18">
    <path d="M 215.201279 29.59868 
Q 220.743263 35.758123 224.866373 40.340609 
" style="fill:none;opacity:0.5;stroke:#0000ff;stroke-linecap:round;stroke-width:3;"/>
    <path d="M 224.978155 38.222235 
L 224.866373 40.340609 
L 222.748 40.228827 
" style="fill:none;opacity:0.5;stroke:#0000ff;stroke-linecap:round;stroke-width:3;"/>
   </g>
   <g id="[&quot;g_s&quot;:2,&quot;g_t&quot;:2,&quot;coords&quot;:[[312.0, -844.0],[300.0, -840.0]],&quot;certainty&quot;:11]">
    <path clip-path="url(#pa47d037d42)" d="M 423.879488 150.394542 
C 427.832496 150.394542 431.624131 149.667238 434.419329 148.372811 
C 437.214528 147.078384 438.785075 145.322518 438.785075 143.491921 
C 438.785075 141.661325 437.214528 139.905458 434.419329 138.611031 
C 431.624131 137.316604 427.832496 136.5893 423.879488 136.5893 
C 419.926481 136.5893 416.134846 137.316604 413.339647 138.611031 
C 410.544449 139.905458 408.973902 141.661325 408.973902 143.491921 
C 408.973902 145.322518 410.544449 147.078384 413.339647 148.372811 
C 416.134846 149.667238 419.926481 150.394542 423.879488 150.394542 
z
" style="fill:#0000ff;opacity:0.2;stroke:#0000ff;stroke-linejoin:miter;stroke-width:2;"/>
   </g>
   <g id="[&quot;g_s&quot;:2,&quot;g_t&quot;:2,&quot;coords&quot;:[[300.0, -840.0],[312.0, -844.0]],&quot;certainty&quot;:11]">
    <path clip-path="url(#pa47d037d42)" d="M 394.068316 145.792795 
C 398.021323 145.792795 401.812958 145.065491 404.608157 143.771064 
C 407.403355 142.476637 408.973902 140.72077 408.973902 138.890174 
C 408.973902 137.059578 407.403355 135.303711 404.608157 134.009284 
C 401.812958 132.714857 398.021323 131.987553 394.068316 131.987553 
C 390.115308 131.987553 386.323673 132.714857 383.528474 134.009284 
C 380.733276 135.303711 379.162729 137.059578 379.162729 138.890174 
C 379.162729 140.72077 380.733276 142.476637 383.528474 143.771064 
C 386.323673 145.065491 390.115308 145.792795 394.068316 145.792795 
z
" style="fill:#ff0000;opacity:0.2;stroke:#ff0000;stroke-linejoin:miter;stroke-width:2;"/>
   </g>
   <g id="patch_19">
    <path d="M 423.879488 143.491921 
Q 409.961906 141.343559 398.140814 139.518818 
" style="fill:none;opacity:0.5;stroke:#0000ff;stroke-linecap:round;stroke-width:3;"/>
    <path d="M 399.394422 141.230094 
L 398.140814 139.518818 
L 399.852091 138.26521 
" style="fill:none;opacity:0.5;stroke:#0000ff;stroke-linecap:round;stroke-width:3;"/>
   </g>
   <g id="[&quot;g_s&quot;:3,&quot;g_t&quot;:3,&quot;coords&quot;:[[181.0, -984.0],[190.0, -968.0]],&quot;certainty&quot;:10]">
    <path clip-path="url(#pa47d037d42)" d="M 98.440853 310.880472 
C 102.064443 310.880472 105.540108 310.213777 108.102374 309.027219 
C 110.664639 307.84066 112.104307 306.231116 112.104307 304.55307 
C 112.104307 302.875023 110.664639 301.265479 108.102374 300.078921 
C 105.540108 298.892362 102.064443 298.225667 98.440853 298.225667 
C 94.817262 298.225667 91.341597 298.892362 88.779332 300.078921 
C 86.217066 301.265479 84.777398 302.875023 84.777398 304.55307 
C 84.777398 306.231116 86.217066 307.84066 88.779332 309.027219 
C 91.341597 310.213777 94.817262 310.880472 98.440853 310.880472 
z
" style="fill:#0000ff;opacity:0.2;stroke:#0000ff;stroke-linejoin:miter;stroke-width:2;"/>
   </g>
   <g id="[&quot;g_s&quot;:3,&quot;g_t&quot;:3,&quot;coords&quot;:[[190.0, -968.0],[181.0, -984.0]],&quot;certainty&quot;:10]">
    <path clip-path="url(#pa47d037d42)" d="M 120.799232 292.473483 
C 124.422823 292.473483 127.898488 291.806788 130.460753 290.62023 
C 133.023019 289.433672 134.462686 287.824128 134.462686 286.146081 
C 134.462686 284.468035 133.023019 282.85849 130.460753 281.671932 
C 127.898488 280.485374 124.422823 279.818679 120.799232 279.818679 
C 117.175642 279.818679 113.699976 280.485374 111.137711 281.671932 
C 108.575446 282.85849 107.135778 284.468035 107.135778 286.146081 
C 107.135778 287.824128 108.575446 289.433672 111.137711 290.62023 
C 113.699976 291.806788 117.175642 292.473483 120.799232 292.473483 
z
" style="fill:#ff0000;opacity:0.2;stroke:#ff0000;stroke-linejoin:miter;stroke-width:2;"/>
   </g>
   <g id="patch_20">
    <path d="M 98.440853 304.55307 
Q 108.849017 295.984338 117.755938 288.651535 
" style="fill:none;opacity:0.5;stroke:#0000ff;stroke-linecap:round;stroke-width:2.75;"/>
    <path d="M 115.644513 288.446874 
L 117.755938 288.651535 
L 117.551277 290.762959 
" style="fill:none;opacity:0.5;stroke:#0000ff;stroke-linecap:round;stroke-width:2.75;"/>
   </g>
   <g id="[&quot;g_s&quot;:4,&quot;g_t&quot;:4,&quot;coords&quot;:[[173.0, -951.0],[185.0, -937.0]],&quot;certainty&quot;:6]">
    <path clip-path="url(#pa47d037d42)" d="M 78.566737 270.615185 
C 80.872659 270.615185 83.084446 270.190924 84.714978 269.435842 
C 86.345511 268.680759 87.261663 267.656504 87.261663 266.588656 
C 87.261663 265.520808 86.345511 264.496553 84.714978 263.74147 
C 83.084446 262.986388 80.872659 262.562127 78.566737 262.562127 
C 76.260816 262.562127 74.049029 262.986388 72.418497 263.74147 
C 70.787964 264.496553 69.871812 265.520808 69.871812 266.588656 
C 69.871812 267.656504 70.787964 268.680759 72.418497 269.435842 
C 74.049029 270.190924 76.260816 270.615185 78.566737 270.615185 
z
" style="fill:#0000ff;opacity:0.2;stroke:#0000ff;stroke-linejoin:miter;stroke-width:2;"/>
   </g>
   <g id="[&quot;g_s&quot;:4,&quot;g_t&quot;:4,&quot;coords&quot;:[[185.0, -937.0],[173.0, -951.0]],&quot;certainty&quot;:6]">
    <path clip-path="url(#pa47d037d42)" d="M 108.37791 254.50907 
C 110.683831 254.50907 112.895618 254.084809 114.526151 253.329727 
C 116.156683 252.574644 117.072836 251.550389 117.072836 250.482541 
C 117.072836 249.414693 116.156683 248.390438 114.526151 247.635355 
C 112.895618 246.880273 110.683831 246.456012 108.37791 246.456012 
C 106.071989 246.456012 103.860202 246.880273 102.22967 247.635355 
C 100.599137 248.390438 99.682985 249.414693 99.682985 250.482541 
C 99.682985 251.550389 100.599137 252.574644 102.22967 253.329727 
C 103.860202 254.084809 106.071989 254.50907 108.37791 254.50907 
z
" style="fill:#ff0000;opacity:0.2;stroke:#ff0000;stroke-linejoin:miter;stroke-width:2;"/>
   </g>
   <g id="patch_21">
    <path d="M 78.566737 266.588656 
Q 92.593491 259.010407 105.531541 252.020352 
" style="fill:none;opacity:0.5;stroke:#0000ff;stroke-linecap:round;stroke-width:1.75;"/>
    <path d="M 103.498832 251.413644 
L 105.531541 252.020352 
L 104.924833 254.053061 
" style="fill:none;opacity:0.5;stroke:#0000ff;stroke-linecap:round;stroke-width:1.75;"/>
   </g>
   <g id="[&quot;g_s&quot;:5,&quot;g_t&quot;:5,&quot;coords&quot;:[[241.0, -880.0],[248.0, -867.0]],&quot;certainty&quot;:11]">
    <path clip-path="url(#pa47d037d42)" d="M 247.496716 191.810266 
C 251.449724 191.810266 255.241359 191.082962 258.036557 189.788535 
C 260.831756 188.494108 262.402303 186.738241 262.402303 184.907645 
C 262.402303 183.077049 260.831756 181.321182 258.036557 180.026755 
C 255.241359 178.732328 251.449724 178.005024 247.496716 178.005024 
C 243.543709 178.005024 239.752074 178.732328 236.956875 180.026755 
C 234.161677 181.321182 232.59113 183.077049 232.59113 184.907645 
C 232.59113 186.738241 234.161677 188.494108 236.956875 189.788535 
C 239.752074 191.082962 243.543709 191.810266 247.496716 191.810266 
z
" style="fill:#0000ff;opacity:0.2;stroke:#0000ff;stroke-linejoin:miter;stroke-width:2;"/>
   </g>
   <g id="[&quot;g_s&quot;:5,&quot;g_t&quot;:5,&quot;coords&quot;:[[248.0, -867.0],[241.0, -880.0]],&quot;certainty&quot;:11]">
    <path clip-path="url(#pa47d037d42)" d="M 264.886567 176.854588 
C 268.839575 176.854588 272.63121 176.127284 275.426408 174.832857 
C 278.221607 173.53843 279.792153 171.782563 279.792153 169.951967 
C 279.792153 168.121371 278.221607 166.365504 275.426408 165.071077 
C 272.63121 163.77665 268.839575 163.049346 264.886567 163.049346 
C 260.933559 163.049346 257.141924 163.77665 254.346726 165.071077 
C 251.551527 166.365504 249.980981 168.121371 249.980981 169.951967 
C 249.980981 171.782563 251.551527 173.53843 254.346726 174.832857 
C 257.141924 176.127284 260.933559 176.854588 264.886567 176.854588 
z
" style="fill:#ff0000;opacity:0.2;stroke:#ff0000;stroke-linejoin:miter;stroke-width:2;"/>
   </g>
   <g id="patch_22">
    <path d="M 247.496716 184.907645 
Q 255.432746 178.082474 261.760441 172.640508 
" style="fill:none;opacity:0.5;stroke:#0000ff;stroke-linecap:round;stroke-width:3;"/>
    <path d="M 259.645102 172.481318 
L 261.760441 172.640508 
L 261.601251 174.755847 
" style="fill:none;opacity:0.5;stroke:#0000ff;stroke-linecap:round;stroke-width:3;"/>
   </g>
   <g id="[&quot;g_s&quot;:6,&quot;g_t&quot;:6,&quot;coords&quot;:[[197.0, -830.0],[206.0, -820.0]],&quot;certainty&quot;:4]">
    <path clip-path="url(#pa47d037d42)" d="M 138.189083 130.261898 
C 139.83617 130.261898 141.416017 129.958855 142.580683 129.41951 
C 143.74535 128.880166 144.399744 128.148555 144.399744 127.385806 
C 144.399744 126.623058 143.74535 125.891447 142.580683 125.352102 
C 141.416017 124.812758 139.83617 124.509714 138.189083 124.509714 
C 136.541996 124.509714 134.962149 124.812758 133.797482 125.352102 
C 132.632816 125.891447 131.978422 126.623058 131.978422 127.385806 
C 131.978422 128.148555 132.632816 128.880166 133.797482 129.41951 
C 134.962149 129.958855 136.541996 130.261898 138.189083 130.261898 
z
" style="fill:#0000ff;opacity:0.2;stroke:#0000ff;stroke-linejoin:miter;stroke-width:2;"/>
   </g>
   <g id="[&quot;g_s&quot;:6,&quot;g_t&quot;:6,&quot;coords&quot;:[[206.0, -820.0],[197.0, -830.0]],&quot;certainty&quot;:4]">
    <path clip-path="url(#pa47d037d42)" d="M 160.547462 118.75753 
C 162.194549 118.75753 163.774397 118.454487 164.939063 117.915143 
C 166.103729 117.375798 166.758123 116.644187 166.758123 115.881439 
C 166.758123 115.11869 166.103729 114.387079 164.939063 113.847734 
C 163.774397 113.30839 162.194549 113.005347 160.547462 113.005347 
C 158.900376 113.005347 157.320528 113.30839 156.155862 113.847734 
C 154.991196 114.387079 154.336802 115.11869 154.336802 115.881439 
C 154.336802 116.644187 154.991196 117.375798 156.155862 117.915143 
C 157.320528 118.454487 158.900376 118.75753 160.547462 118.75753 
z
" style="fill:#ff0000;opacity:0.2;stroke:#ff0000;stroke-linejoin:miter;stroke-width:2;"/>
   </g>
   <g id="patch_23">
    <path d="M 138.189083 127.385806 
Q 148.479887 122.090736 157.984748 117.200068 
" style="fill:none;opacity:0.5;stroke:#0000ff;stroke-linecap:round;stroke-width:1.25;"/>
    <path d="M 155.964662 116.552571 
L 157.984748 117.200068 
L 157.33725 119.220154 
" style="fill:none;opacity:0.5;stroke:#0000ff;stroke-linecap:round;stroke-width:1.25;"/>
   </g>
   <g id="[&quot;g_s&quot;:7,&quot;g_t&quot;:7,&quot;coords&quot;:[[173.0, -795.0],[191.0, -795.0]],&quot;certainty&quot;:11]">
    <path clip-path="url(#pa47d037d42)" d="M 78.566737 94.02314 
C 82.519745 94.02314 86.31138 93.295836 89.106579 92.001409 
C 91.901777 90.706982 93.472324 88.951116 93.472324 87.120519 
C 93.472324 85.289923 91.901777 83.534056 89.106579 82.239629 
C 86.31138 80.945202 82.519745 80.217898 78.566737 80.217898 
C 74.61373 80.217898 70.822095 80.945202 68.026896 82.239629 
C 65.231698 83.534056 63.661151 85.289923 63.661151 87.120519 
C 63.661151 88.951116 65.231698 90.706982 68.026896 92.001409 
C 70.822095 93.295836 74.61373 94.02314 78.566737 94.02314 
z
" style="fill:#0000ff;opacity:0.2;stroke:#0000ff;stroke-linejoin:miter;stroke-width:2;"/>
   </g>
   <g id="[&quot;g_s&quot;:7,&quot;g_t&quot;:7,&quot;coords&quot;:[[191.0, -795.0],[173.0, -795.0]],&quot;certainty&quot;:11]">
    <path clip-path="url(#pa47d037d42)" d="M 123.283497 94.02314 
C 127.236504 94.02314 131.028139 93.295836 133.823338 92.001409 
C 136.618536 90.706982 138.189083 88.951116 138.189083 87.120519 
C 138.189083 85.289923 136.618536 83.534056 133.823338 82.239629 
C 131.028139 80.945202 127.236504 80.217898 123.283497 80.217898 
C 119.330489 80.217898 115.538854 80.945202 112.743655 82.239629 
C 109.948457 83.534056 108.37791 85.289923 108.37791 87.120519 
C 108.37791 88.951116 109.948457 90.706982 112.743655 92.001409 
C 115.538854 93.295836 119.330489 94.02314 123.283497 94.02314 
z
" style="fill:#ff0000;opacity:0.2;stroke:#ff0000;stroke-linejoin:miter;stroke-width:2;"/>
   </g>
   <g id="patch_24">
    <path d="M 78.566737 87.120519 
Q 99.924831 87.120519 119.161603 87.120519 
" style="fill:none;opacity:0.5;stroke:#0000ff;stroke-linecap:round;stroke-width:3;"/>
    <path d="M 117.661603 85.620519 
L 119.161603 87.120519 
L 117.661603 88.620519 
" style="fill:none;opacity:0.5;stroke:#0000ff;stroke-linecap:round;stroke-width:3;"/>
   </g>
   <g id="[&quot;g_s&quot;:1,&quot;g_t&quot;:1,&quot;coords&quot;:[[233.0, -757.0],[228.0, -745.0]],&quot;certainty&quot;:11]">
    <path clip-path="url(#pa47d037d42)" d="M 227.622601 50.306542 
C 231.575609 50.306542 235.367244 49.579239 238.162442 48.284812 
C 240.957641 46.990384 242.528188 45.234518 242.528188 43.403922 
C 242.528188 41.573325 240.957641 39.817459 238.162442 38.523032 
C 235.367244 37.228605 231.575609 36.501301 227.622601 36.501301 
C 223.669593 36.501301 219.877958 37.228605 217.08276 38.523032 
C 214.287561 39.817459 212.717015 41.573325 212.717015 43.403922 
C 212.717015 45.234518 214.287561 46.990384 217.08276 48.284812 
C 219.877958 49.579239 223.669593 50.306542 227.622601 50.306542 
z
" style="fill:#0000ff;opacity:0.2;stroke:#0000ff;stroke-linejoin:miter;stroke-width:2;"/>
   </g>
   <g id="[&quot;g_s&quot;:1,&quot;g_t&quot;:1,&quot;coords&quot;:[[228.0, -745.0],[233.0, -757.0]],&quot;certainty&quot;:11]">
    <path clip-path="url(#pa47d037d42)" d="M 215.201279 36.501301 
C 219.154287 36.501301 222.945922 35.773997 225.74112 34.47957 
C 228.536319 33.185143 230.106866 31.429277 230.106866 29.59868 
C 230.106866 27.768084 228.536319 26.012218 225.74112 24.71779 
C 222.945922 23.423363 219.154287 22.69606 215.201279 22.69606 
C 211.248271 22.69606 207.456637 23.423363 204.661438 24.71779 
C 201.866239 26.012218 200.295693 27.768084 200.295693 29.59868 
C 200.295693 31.429277 201.866239 33.185143 204.661438 34.47957 
C 207.456637 35.773997 211.248271 36.501301 215.201279 36.501301 
z
" style="fill:#ff0000;opacity:0.2;stroke:#ff0000;stroke-linejoin:miter;stroke-width:2;"/>
   </g>
   <g id="patch_25">
    <path d="M 227.622601 43.403922 
Q 222.080617 37.244479 217.957508 32.661994 
" style="fill:none;opacity:0.5;stroke:#ff0000;stroke-linecap:round;stroke-width:3;"/>
    <path d="M 217.845726 34.780367 
L 217.957508 32.661994 
L 220.075881 32.773776 
" style="fill:none;opacity:0.5;stroke:#ff0000;stroke-linecap:round;stroke-width:3;"/>
   </g>
   <g id="[&quot;g_s&quot;:2,&quot;g_t&quot;:2,&quot;coords&quot;:[[300.0, -840.0],[312.0, -844.0]],&quot;certainty&quot;:11]">
    <path clip-path="url(#pa47d037d42)" d="M 394.068316 145.792795 
C 398.021323 145.792795 401.812958 145.065491 404.608157 143.771064 
C 407.403355 142.476637 408.973902 140.72077 408.973902 138.890174 
C 408.973902 137.059578 407.403355 135.303711 404.608157 134.009284 
C 401.812958 132.714857 398.021323 131.987553 394.068316 131.987553 
C 390.115308 131.987553 386.323673 132.714857 383.528474 134.009284 
C 380.733276 135.303711 379.162729 137.059578 379.162729 138.890174 
C 379.162729 140.72077 380.733276 142.476637 383.528474 143.771064 
C 386.323673 145.065491 390.115308 145.792795 394.068316 145.792795 
z
" style="fill:#0000ff;opacity:0.2;stroke:#0000ff;stroke-linejoin:miter;stroke-width:2;"/>
   </g>
   <g id="[&quot;g_s&quot;:2,&quot;g_t&quot;:2,&quot;coords&quot;:[[312.0, -844.0],[300.0, -840.0]],&quot;certainty&quot;:11]">
    <path clip-path="url(#pa47d037d42)" d="M 423.879488 150.394542 
C 427.832496 150.394542 431.624131 149.667238 434.419329 148.372811 
C 437.214528 147.078384 438.785075 145.322518 438.785075 143.491921 
C 438.785075 141.661325 437.214528 139.905458 434.419329 138.611031 
C 431.624131 137.316604 427.832496 136.5893 423.879488 136.5893 
C 419.926481 136.5893 416.134846 137.316604 413.339647 138.611031 
C 410.544449 139.905458 408.973902 141.661325 408.973902 143.491921 
C 408.973902 145.322518 410.544449 147.078384 413.339647 148.372811 
C 416.134846 149.667238 419.926481 150.394542 423.879488 150.394542 
z
" style="fill:#ff0000;opacity:0.2;stroke:#ff0000;stroke-linejoin:miter;stroke-width:2;"/>
   </g>
   <g id="patch_26">
    <path d="M 394.068316 138.890174 
Q 407.985897 141.038536 419.806989 142.863277 
" style="fill:none;opacity:0.5;stroke:#ff0000;stroke-linecap:round;stroke-width:3;"/>
    <path d="M 418.553382 141.152001 
L 419.806989 142.863277 
L 418.095713 144.116885 
" style="fill:none;opacity:0.5;stroke:#ff0000;stroke-linecap:round;stroke-width:3;"/>
   </g>
   <g id="[&quot;g_s&quot;:3,&quot;g_t&quot;:3,&quot;coords&quot;:[[190.0, -968.0],[181.0, -984.0]],&quot;certainty&quot;:5]">
    <path clip-path="url(#pa47d037d42)" d="M 120.799232 289.597392 
C 122.775736 289.597392 124.671554 289.23374 126.069153 288.586526 
C 127.466752 287.939313 128.252025 287.061379 128.252025 286.146081 
C 128.252025 285.230783 127.466752 284.35285 126.069153 283.705636 
C 124.671554 283.058423 122.775736 282.694771 120.799232 282.694771 
C 118.822728 282.694771 116.926911 283.058423 115.529312 283.705636 
C 114.131712 284.35285 113.346439 285.230783 113.346439 286.146081 
C 113.346439 287.061379 114.131712 287.939313 115.529312 288.586526 
C 116.926911 289.23374 118.822728 289.597392 120.799232 289.597392 
z
" style="fill:#0000ff;opacity:0.2;stroke:#0000ff;stroke-linejoin:miter;stroke-width:2;"/>
   </g>
   <g id="[&quot;g_s&quot;:3,&quot;g_t&quot;:3,&quot;coords&quot;:[[181.0, -984.0],[190.0, -968.0]],&quot;certainty&quot;:5]">
    <path clip-path="url(#pa47d037d42)" d="M 98.440853 308.00438 
C 100.417357 308.00438 102.313174 307.640728 103.710773 306.993515 
C 105.108373 306.346301 105.893646 305.468368 105.893646 304.55307 
C 105.893646 303.637771 105.108373 302.759838 103.710773 302.112625 
C 102.313174 301.465411 100.417357 301.101759 98.440853 301.101759 
C 96.464349 301.101759 94.568531 301.465411 93.170932 302.112625 
C 91.773333 302.759838 90.988059 303.637771 90.988059 304.55307 
C 90.988059 305.468368 91.773333 306.346301 93.170932 306.993515 
C 94.568531 307.640728 96.464349 308.00438 98.440853 308.00438 
z
" style="fill:#ff0000;opacity:0.2;stroke:#ff0000;stroke-linejoin:miter;stroke-width:2;"/>
   </g>
   <g id="patch_27">
    <path d="M 120.799232 286.146081 
Q 110.391068 294.714813 100.801764 302.609402 
" style="fill:none;opacity:0.5;stroke:#ff0000;stroke-linecap:round;stroke-width:1.5;"/>
    <path d="M 102.913188 302.814062 
L 100.801764 302.609402 
L 101.006424 300.497977 
" style="fill:none;opacity:0.5;stroke:#ff0000;stroke-linecap:round;stroke-width:1.5;"/>
   </g>
   <g id="[&quot;g_s&quot;:4,&quot;g_t&quot;:4,&quot;coords&quot;:[[185.0, -937.0],[173.0, -951.0]],&quot;certainty&quot;:6]">
    <path clip-path="url(#pa47d037d42)" d="M 108.37791 254.50907 
C 110.683831 254.50907 112.895618 254.084809 114.526151 253.329727 
C 116.156683 252.574644 117.072836 251.550389 117.072836 250.482541 
C 117.072836 249.414693 116.156683 248.390438 114.526151 247.635355 
C 112.895618 246.880273 110.683831 246.456012 108.37791 246.456012 
C 106.071989 246.456012 103.860202 246.880273 102.22967 247.635355 
C 100.599137 248.390438 99.682985 249.414693 99.682985 250.482541 
C 99.682985 251.550389 100.599137 252.574644 102.22967 253.329727 
C 103.860202 254.084809 106.071989 254.50907 108.37791 254.50907 
z
" style="fill:#0000ff;opacity:0.2;stroke:#0000ff;stroke-linejoin:miter;stroke-width:2;"/>
   </g>
   <g id="[&quot;g_s&quot;:4,&quot;g_t&quot;:4,&quot;coords&quot;:[[173.0, -951.0],[185.0, -937.0]],&quot;certainty&quot;:6]">
    <path clip-path="url(#pa47d037d42)" d="M 78.566737 270.615185 
C 80.872659 270.615185 83.084446 270.190924 84.714978 269.435842 
C 86.345511 268.680759 87.261663 267.656504 87.261663 266.588656 
C 87.261663 265.520808 86.345511 264.496553 84.714978 263.74147 
C 83.084446 262.986388 80.872659 262.562127 78.566737 262.562127 
C 76.260816 262.562127 74.049029 262.986388 72.418497 263.74147 
C 70.787964 264.496553 69.871812 265.520808 69.871812 266.588656 
C 69.871812 267.656504 70.787964 268.680759 72.418497 269.435842 
C 74.049029 270.190924 76.260816 270.615185 78.566737 270.615185 
z
" style="fill:#ff0000;opacity:0.2;stroke:#ff0000;stroke-linejoin:miter;stroke-width:2;"/>
   </g>
   <g id="patch_28">
    <path d="M 108.37791 250.482541 
Q 94.351157 258.060791 81.413107 265.050845 
" style="fill:none;opacity:0.5;stroke:#ff0000;stroke-linecap:round;stroke-width:1.75;"/>
    <path d="M 83.445816 265.657553 
L 81.413107 265.050845 
L 82.019815 263.018136 
" style="fill:none;opacity:0.5;stroke:#ff0000;stroke-linecap:round;stroke-width:1.75;"/>
   </g>
   <g id="[&quot;g_s&quot;:5,&quot;g_t&quot;:5,&quot;coords&quot;:[[248.0, -867.0],[241.0, -880.0]],&quot;certainty&quot;:11]">
    <path clip-path="url(#pa47d037d42)" d="M 264.886567 176.854588 
C 268.839575 176.854588 272.63121 176.127284 275.426408 174.832857 
C 278.221607 173.53843 279.792153 171.782563 279.792153 169.951967 
C 279.792153 168.121371 278.221607 166.365504 275.426408 165.071077 
C 272.63121 163.77665 268.839575 163.049346 264.886567 163.049346 
C 260.933559 163.049346 257.141924 163.77665 254.346726 165.071077 
C 251.551527 166.365504 249.980981 168.121371 249.980981 169.951967 
C 249.980981 171.782563 251.551527 173.53843 254.346726 174.832857 
C 257.141924 176.127284 260.933559 176.854588 264.886567 176.854588 
z
" style="fill:#0000ff;opacity:0.2;stroke:#0000ff;stroke-linejoin:miter;stroke-width:2;"/>
   </g>
   <g id="[&quot;g_s&quot;:5,&quot;g_t&quot;:5,&quot;coords&quot;:[[241.0, -880.0],[248.0, -867.0]],&quot;certainty&quot;:11]">
    <path clip-path="url(#pa47d037d42)" d="M 247.496716 191.810266 
C 251.449724 191.810266 255.241359 191.082962 258.036557 189.788535 
C 260.831756 188.494108 262.402303 186.738241 262.402303 184.907645 
C 262.402303 183.077049 260.831756 181.321182 258.036557 180.026755 
C 255.241359 178.732328 251.449724 178.005024 247.496716 178.005024 
C 243.543709 178.005024 239.752074 178.732328 236.956875 180.026755 
C 234.161677 181.321182 232.59113 183.077049 232.59113 184.907645 
C 232.59113 186.738241 234.161677 188.494108 236.956875 189.788535 
C 239.752074 191.082962 243.543709 191.810266 247.496716 191.810266 
z
" style="fill:#ff0000;opacity:0.2;stroke:#ff0000;stroke-linejoin:miter;stroke-width:2;"/>
   </g>
   <g id="patch_29">
    <path d="M 264.886567 169.951967 
Q 256.950537 176.777138 250.622842 182.219104 
" style="fill:none;opacity:0.5;stroke:#ff0000;stroke-linecap:round;stroke-width:3;"/>
    <path d="M 252.738181 182.378294 
L 250.622842 182.219104 
L 250.782033 180.103765 
" style="fill:none;opacity:0.5;stroke:#ff0000;stroke-linecap:round;stroke-width:3;"/>
   </g>
   <g id="[&quot;g_s&quot;:6,&quot;g_t&quot;:6,&quot;coords&quot;:[[206.0, -820.0],[197.0, -830.0]],&quot;certainty&quot;:3]">
    <path clip-path="url(#pa47d037d42)" d="M 160.547462 118.182312 
C 161.865132 118.182312 163.12901 117.939878 164.060743 117.508402 
C 164.992476 117.076926 165.515991 116.491637 165.515991 115.881439 
C 165.515991 115.27124 164.992476 114.685951 164.060743 114.254475 
C 163.12901 113.823 161.865132 113.580565 160.547462 113.580565 
C 159.229793 113.580565 157.965915 113.823 157.034182 114.254475 
C 156.102449 114.685951 155.578934 115.27124 155.578934 115.881439 
C 155.578934 116.491637 156.102449 117.076926 157.034182 117.508402 
C 157.965915 117.939878 159.229793 118.182312 160.547462 118.182312 
z
" style="fill:#0000ff;opacity:0.2;stroke:#0000ff;stroke-linejoin:miter;stroke-width:2;"/>
   </g>
   <g id="[&quot;g_s&quot;:6,&quot;g_t&quot;:6,&quot;coords&quot;:[[197.0, -830.0],[206.0, -820.0]],&quot;certainty&quot;:3]">
    <path clip-path="url(#pa47d037d42)" d="M 138.189083 129.68668 
C 139.506752 129.68668 140.770631 129.444245 141.702363 129.01277 
C 142.634096 128.581294 143.157612 127.996005 143.157612 127.385806 
C 143.157612 126.775607 142.634096 126.190319 141.702363 125.758843 
C 140.770631 125.327367 139.506752 125.084933 138.189083 125.084933 
C 136.871414 125.084933 135.607535 125.327367 134.675803 125.758843 
C 133.74407 126.190319 133.220554 126.775607 133.220554 127.385806 
C 133.220554 127.996005 133.74407 128.581294 134.675803 129.01277 
C 135.607535 129.444245 136.871414 129.68668 138.189083 129.68668 
z
" style="fill:#ff0000;opacity:0.2;stroke:#ff0000;stroke-linejoin:miter;stroke-width:2;"/>
   </g>
   <g id="patch_30">
    <path d="M 160.547462 115.881439 
Q 150.256658 121.176509 140.594609 126.148058 
" style="fill:none;opacity:0.5;stroke:#ff0000;stroke-linecap:round;"/>
    <path d="M 142.614695 126.795555 
L 140.594609 126.148058 
L 141.242106 124.127972 
" style="fill:none;opacity:0.5;stroke:#ff0000;stroke-linecap:round;"/>
   </g>
   <g id="[&quot;g_s&quot;:7,&quot;g_t&quot;:7,&quot;coords&quot;:[[191.0, -795.0],[173.0, -795.0]],&quot;certainty&quot;:11]">
    <path clip-path="url(#pa47d037d42)" d="M 123.283497 94.02314 
C 127.236504 94.02314 131.028139 93.295836 133.823338 92.001409 
C 136.618536 90.706982 138.189083 88.951116 138.189083 87.120519 
C 138.189083 85.289923 136.618536 83.534056 133.823338 82.239629 
C 131.028139 80.945202 127.236504 80.217898 123.283497 80.217898 
C 119.330489 80.217898 115.538854 80.945202 112.743655 82.239629 
C 109.948457 83.534056 108.37791 85.289923 108.37791 87.120519 
C 108.37791 88.951116 109.948457 90.706982 112.743655 92.001409 
C 115.538854 93.295836 119.330489 94.02314 123.283497 94.02314 
z
" style="fill:#0000ff;opacity:0.2;stroke:#0000ff;stroke-linejoin:miter;stroke-width:2;"/>
   </g>
   <g id="[&quot;g_s&quot;:7,&quot;g_t&quot;:7,&quot;coords&quot;:[[173.0, -795.0],[191.0, -795.0]],&quot;certainty&quot;:11]">
    <path clip-path="url(#pa47d037d42)" d="M 78.566737 94.02314 
C 82.519745 94.02314 86.31138 93.295836 89.106579 92.001409 
C 91.901777 90.706982 93.472324 88.951116 93.472324 87.120519 
C 93.472324 85.289923 91.901777 83.534056 89.106579 82.239629 
C 86.31138 80.945202 82.519745 80.217898 78.566737 80.217898 
C 74.61373 80.217898 70.822095 80.945202 68.026896 82.239629 
C 65.231698 83.534056 63.661151 85.289923 63.661151 87.120519 
C 63.661151 88.951116 65.231698 90.706982 68.026896 92.001409 
C 70.822095 93.295836 74.61373 94.02314 78.566737 94.02314 
z
" style="fill:#ff0000;opacity:0.2;stroke:#ff0000;stroke-linejoin:miter;stroke-width:2;"/>
   </g>
   <g id="patch_31">
    <path d="M 123.283497 87.120519 
Q 101.925403 87.120519 82.688631 87.120519 
" style="fill:none;opacity:0.5;stroke:#ff0000;stroke-linecap:round;stroke-width:3;"/>
    <path d="M 84.188631 88.620519 
L 82.688631 87.120519 
L 84.188631 85.620519 
" style="fill:none;opacity:0.5;stroke:#ff0000;stroke-linecap:round;stroke-width:3;"/>
   </g>
   <g id="patch_32">
    <path clip-path="url(#pa47d037d42)" d="M 221.41194 42.253485 
C 224.706113 42.253485 227.865809 41.647399 230.195141 40.568709 
C 232.524473 39.49002 233.833262 38.026798 233.833262 36.501301 
C 233.833262 34.975804 232.524473 33.512582 230.195141 32.433893 
C 227.865809 31.355204 224.706113 30.749117 221.41194 30.749117 
C 218.117767 30.749117 214.958071 31.355204 212.628739 32.433893 
C 210.299407 33.512582 208.990618 34.975804 208.990618 36.501301 
C 208.990618 38.026798 210.299407 39.49002 212.628739 40.568709 
C 214.958071 41.647399 218.117767 42.253485 221.41194 42.253485 
z
" style="fill:#008000;opacity:0.2;stroke:#008000;stroke-linejoin:miter;stroke-width:2;"/>
   </g>
   <g id="patch_33">
    <path clip-path="url(#pa47d037d42)" d="M 408.973902 146.943231 
C 412.268075 146.943231 415.427771 146.337145 417.757103 145.258456 
C 420.086435 144.179767 421.395224 142.716545 421.395224 141.191048 
C 421.395224 139.665551 420.086435 138.202329 417.757103 137.123639 
C 415.427771 136.04495 412.268075 135.438864 408.973902 135.438864 
C 405.679729 135.438864 402.520033 136.04495 400.190701 137.123639 
C 397.861369 138.202329 396.55258 139.665551 396.55258 141.191048 
C 396.55258 142.716545 397.861369 144.179767 400.190701 145.258456 
C 402.520033 146.337145 405.679729 146.943231 408.973902 146.943231 
z
" style="fill:#008000;opacity:0.2;stroke:#008000;stroke-linejoin:miter;stroke-width:2;"/>
   </g>
   <g id="patch_34">
    <path clip-path="url(#pa47d037d42)" d="M 109.620042 301.101759 
C 112.914216 301.101759 116.073911 300.495673 118.403243 299.416984 
C 120.732576 298.338294 122.041364 296.875072 122.041364 295.349575 
C 122.041364 293.824078 120.732576 292.360856 118.403243 291.282167 
C 116.073911 290.203478 112.914216 289.597392 109.620042 289.597392 
C 106.325869 289.597392 103.166174 290.203478 100.836841 291.282167 
C 98.507509 292.360856 97.19872 293.824078 97.19872 295.349575 
C 97.19872 296.875072 98.507509 298.338294 100.836841 299.416984 
C 103.166174 300.495673 106.325869 301.101759 109.620042 301.101759 
z
" style="fill:#008000;opacity:0.2;stroke:#008000;stroke-linejoin:miter;stroke-width:2;"/>
   </g>
   <g id="patch_35">
    <path clip-path="url(#pa47d037d42)" d="M 93.472324 264.287783 
C 96.766497 264.287783 99.926193 263.681696 102.255525 262.603007 
C 104.584857 261.524318 105.893646 260.061096 105.893646 258.535599 
C 105.893646 257.010102 104.584857 255.54688 102.255525 254.46819 
C 99.926193 253.389501 96.766497 252.783415 93.472324 252.783415 
C 90.178151 252.783415 87.018455 253.389501 84.689123 254.46819 
C 82.359791 255.54688 81.051002 257.010102 81.051002 258.535599 
C 81.051002 260.061096 82.359791 261.524318 84.689123 262.603007 
C 87.018455 263.681696 90.178151 264.287783 93.472324 264.287783 
z
" style="fill:#008000;opacity:0.2;stroke:#008000;stroke-linejoin:miter;stroke-width:2;"/>
   </g>
   <g id="patch_36">
    <path clip-path="url(#pa47d037d42)" d="M 256.191642 183.18199 
C 259.485815 183.18199 262.645511 182.575903 264.974843 181.497214 
C 267.304175 180.418525 268.612964 178.955303 268.612964 177.429806 
C 268.612964 175.904309 267.304175 174.441087 264.974843 173.362398 
C 262.645511 172.283708 259.485815 171.677622 256.191642 171.677622 
C 252.897469 171.677622 249.737773 172.283708 247.408441 173.362398 
C 245.079109 174.441087 243.77032 175.904309 243.77032 177.429806 
C 243.77032 178.955303 245.079109 180.418525 247.408441 181.497214 
C 249.737773 182.575903 252.897469 183.18199 256.191642 183.18199 
z
" style="fill:#008000;opacity:0.2;stroke:#008000;stroke-linejoin:miter;stroke-width:2;"/>
   </g>
   <g id="patch_37">
    <path clip-path="url(#pa47d037d42)" d="M 149.368273 127.385806 
C 152.662446 127.385806 155.822142 126.77972 158.151474 125.701031 
C 160.480806 124.622341 161.789595 123.159119 161.789595 121.633622 
C 161.789595 120.108125 160.480806 118.644903 158.151474 117.566214 
C 155.822142 116.487525 152.662446 115.881439 149.368273 115.881439 
C 146.0741 115.881439 142.914404 116.487525 140.585072 117.566214 
C 138.25574 118.644903 136.946951 120.108125 136.946951 121.633622 
C 136.946951 123.159119 138.25574 124.622341 140.585072 125.701031 
C 142.914404 126.77972 146.0741 127.385806 149.368273 127.385806 
z
" style="fill:#008000;opacity:0.2;stroke:#008000;stroke-linejoin:miter;stroke-width:2;"/>
   </g>
   <g id="patch_38">
    <path clip-path="url(#pa47d037d42)" d="M 100.925117 92.872703 
C 104.21929 92.872703 107.378986 92.266617 109.708318 91.187927 
C 112.03765 90.109238 113.346439 88.646016 113.346439 87.120519 
C 113.346439 85.595022 112.03765 84.1318 109.708318 83.053111 
C 107.378986 81.974422 104.21929 81.368335 100.925117 81.368335 
C 97.630944 81.368335 94.471248 81.974422 92.141916 83.053111 
C 89.812584 84.1318 88.503795 85.595022 88.503795 87.120519 
C 88.503795 88.646016 89.812584 90.109238 92.141916 91.187927 
C 94.471248 92.266617 97.630944 92.872703 100.925117 92.872703 
z
" style="fill:#008000;opacity:0.2;stroke:#008000;stroke-linejoin:miter;stroke-width:2;"/>
   </g>
   <g id="patch_39">
    <path clip-path="url(#pa47d037d42)" d="M 215.201279 52.607416 
C 228.377972 52.607416 241.016755 50.18307 250.334083 45.868313 
C 259.651412 41.553556 264.886567 35.700668 264.886567 29.59868 
C 264.886567 23.496692 259.651412 17.643805 250.334083 13.329047 
C 241.016755 9.01429 228.377972 6.589945 215.201279 6.589945 
C 202.024587 6.589945 189.385804 9.01429 180.068475 13.329047 
C 170.751147 17.643805 165.515991 23.496692 165.515991 29.59868 
C 165.515991 35.700668 170.751147 41.553556 180.068475 45.868313 
C 189.385804 50.18307 202.024587 52.607416 215.201279 52.607416 
z
" style="fill:none;opacity:0.2;stroke:#ff0000;stroke-linejoin:miter;stroke-width:2;"/>
   </g>
   <g id="patch_40">
    <path clip-path="url(#pa47d037d42)" d="M 227.622601 66.412657 
C 240.799294 66.412657 253.438077 63.988312 262.755405 59.673555 
C 272.072734 55.358797 277.307889 49.50591 277.307889 43.403922 
C 277.307889 37.301934 272.072734 31.449046 262.755405 27.134289 
C 253.438077 22.819532 240.799294 20.395186 227.622601 20.395186 
C 214.445909 20.395186 201.807126 22.819532 192.489797 27.134289 
C 183.172469 31.449046 177.937313 37.301934 177.937313 43.403922 
C 177.937313 49.50591 183.172469 55.358797 192.489797 59.673555 
C 201.807126 63.988312 214.445909 66.412657 227.622601 66.412657 
z
" style="fill:none;opacity:0.2;stroke:#0000ff;stroke-linejoin:miter;stroke-width:2;"/>
   </g>
   <g id="patch_41">
    <path clip-path="url(#pa47d037d42)" d="M 215.201279 41.103048 
C 221.789625 41.103048 228.109017 39.890875 232.767681 37.733497 
C 237.426345 35.576118 240.043923 32.649674 240.043923 29.59868 
C 240.043923 26.547686 237.426345 23.621242 232.767681 21.463864 
C 228.109017 19.306485 221.789625 18.094313 215.201279 18.094313 
C 208.612933 18.094313 202.293541 19.306485 197.634877 21.463864 
C 192.976213 23.621242 190.358635 26.547686 190.358635 29.59868 
C 190.358635 32.649674 192.976213 35.576118 197.634877 37.733497 
C 202.293541 39.890875 208.612933 41.103048 215.201279 41.103048 
z
" style="fill:none;opacity:0.2;stroke:#008000;stroke-linejoin:miter;stroke-width:2;"/>
   </g>
   <g id="patch_42">
    <path clip-path="url(#pa47d037d42)" d="M 227.622601 54.908289 
C 234.210947 54.908289 240.530339 53.696117 245.189003 51.538738 
C 249.847667 49.38136 252.465245 46.454916 252.465245 43.403922 
C 252.465245 40.352928 249.847667 37.426484 245.189003 35.269105 
C 240.530339 33.111727 234.210947 31.899554 227.622601 31.899554 
C 221.034255 31.899554 214.714863 33.111727 210.056199 35.269105 
C 205.397535 37.426484 202.779957 40.352928 202.779957 43.403922 
C 202.779957 46.454916 205.397535 49.38136 210.056199 51.538738 
C 214.714863 53.696117 221.034255 54.908289 227.622601 54.908289 
z
" style="fill:none;opacity:0.2;stroke:#008000;stroke-linejoin:miter;stroke-width:2;"/>
   </g>
   <g id="patch_43">
    <path d="M 221.41194 36.501301 
Q 315.192921 88.846174 408.973902 141.191048 
" style="fill:none;opacity:0.5;stroke:#008000;stroke-linecap:round;stroke-width:2;"/>
   </g>
   <g id="patch_44">
    <path d="M 216.147195 30.649986 
Q 220.743263 35.758123 225.339331 40.866261 
" style="fill:none;opacity:0.5;stroke:#800080;stroke-linecap:round;stroke-width:2;"/>
    <path d="M 216.035413 32.768359 
L 216.147195 30.649986 
L 218.265568 30.761768 
" style="fill:none;opacity:0.5;stroke:#800080;stroke-linecap:round;stroke-width:2;"/>
    <path d="M 225.451113 38.747888 
L 225.339331 40.866261 
L 223.220958 40.754479 
" style="fill:none;opacity:0.5;stroke:#800080;stroke-linecap:round;stroke-width:2;"/>
   </g>
   <g id="patch_45">
    <path d="M 408.973902 141.191048 
Q 259.296972 218.270311 109.620042 295.349575 
" style="fill:none;opacity:0.5;stroke:#008000;stroke-linecap:round;stroke-width:2;"/>
   </g>
   <g id="patch_46">
    <path d="M 422.481828 143.276174 
Q 409.961906 141.343559 397.441985 139.410944 
" style="fill:none;opacity:0.5;stroke:#800080;stroke-linecap:round;stroke-width:2;"/>
    <path d="M 421.228221 141.564897 
L 422.481828 143.276174 
L 420.770552 144.529782 
" style="fill:none;opacity:0.5;stroke:#800080;stroke-linecap:round;stroke-width:2;"/>
    <path d="M 398.695592 141.122221 
L 397.441985 139.410944 
L 399.153261 138.157337 
" style="fill:none;opacity:0.5;stroke:#800080;stroke-linecap:round;stroke-width:2;"/>
   </g>
   <g id="patch_47">
    <path d="M 109.620042 295.349575 
Q 101.546183 276.942587 93.472324 258.535599 
" style="fill:none;opacity:0.5;stroke:#008000;stroke-linecap:round;stroke-width:2;"/>
   </g>
   <g id="patch_48">
    <path d="M 99.532666 303.654212 
Q 108.849017 295.984338 118.165368 288.314463 
" style="fill:none;opacity:0.5;stroke:#800080;stroke-linecap:round;stroke-width:2;"/>
    <path d="M 101.64409 303.858873 
L 99.532666 303.654212 
L 99.737326 301.542788 
" style="fill:none;opacity:0.5;stroke:#800080;stroke-linecap:round;stroke-width:2;"/>
    <path d="M 116.053943 288.109803 
L 118.165368 288.314463 
L 117.960707 290.425888 
" style="fill:none;opacity:0.5;stroke:#800080;stroke-linecap:round;stroke-width:2;"/>
   </g>
   <g id="patch_49">
    <path d="M 93.472324 258.535599 
Q 174.831983 217.982702 256.191642 177.429806 
" style="fill:none;opacity:0.5;stroke:#008000;stroke-linecap:round;stroke-width:2;"/>
   </g>
   <g id="patch_50">
    <path d="M 79.810971 265.916433 
Q 92.593491 259.010407 105.376012 252.10438 
" style="fill:none;opacity:0.5;stroke:#800080;stroke-linecap:round;stroke-width:2;"/>
    <path d="M 81.843679 266.523141 
L 79.810971 265.916433 
L 80.417679 263.883724 
" style="fill:none;opacity:0.5;stroke:#800080;stroke-linecap:round;stroke-width:2;"/>
    <path d="M 103.343303 251.497672 
L 105.376012 252.10438 
L 104.769303 254.137089 
" style="fill:none;opacity:0.5;stroke:#800080;stroke-linecap:round;stroke-width:2;"/>
   </g>
   <g id="patch_51">
    <path d="M 256.191642 177.429806 
Q 202.779957 149.531714 149.368273 121.633622 
" style="fill:none;opacity:0.5;stroke:#008000;stroke-linecap:round;stroke-width:2;"/>
   </g>
   <g id="patch_52">
    <path d="M 248.56894 183.985508 
Q 255.432746 178.082474 262.296553 172.17944 
" style="fill:none;opacity:0.5;stroke:#800080;stroke-linecap:round;stroke-width:2;"/>
    <path d="M 250.684279 184.144698 
L 248.56894 183.985508 
L 248.72813 181.870169 
" style="fill:none;opacity:0.5;stroke:#800080;stroke-linecap:round;stroke-width:2;"/>
    <path d="M 260.181214 172.020249 
L 262.296553 172.17944 
L 262.137362 174.294779 
" style="fill:none;opacity:0.5;stroke:#800080;stroke-linecap:round;stroke-width:2;"/>
   </g>
   <g id="patch_53">
    <path d="M 149.368273 121.633622 
Q 125.146695 104.377071 100.925117 87.120519 
" style="fill:none;opacity:0.5;stroke:#008000;stroke-linecap:round;stroke-width:2;"/>
   </g>
   <g id="patch_54">
    <path d="M 139.446594 126.738762 
Q 148.479887 122.090736 157.513181 117.44271 
" style="fill:none;opacity:0.5;stroke:#800080;stroke-linecap:round;stroke-width:2;"/>
    <path d="M 141.46668 127.386259 
L 139.446594 126.738762 
L 140.094091 124.718676 
" style="fill:none;opacity:0.5;stroke:#800080;stroke-linecap:round;stroke-width:2;"/>
    <path d="M 155.493095 116.795212 
L 157.513181 117.44271 
L 156.865684 119.462795 
" style="fill:none;opacity:0.5;stroke:#800080;stroke-linecap:round;stroke-width:2;"/>
   </g>
   <g id="patch_55">
    <path d="M 100.925117 87.120519 
Q 161.168529 61.81091 221.41194 36.501301 
" style="fill:none;opacity:0.5;stroke:#008000;stroke-linecap:round;stroke-width:2;"/>
   </g>
   <g id="patch_56">
    <path d="M 79.980951 87.120519 
Q 99.924831 87.120519 119.86871 87.120519 
" style="fill:none;opacity:0.5;stroke:#800080;stroke-linecap:round;stroke-width:2;"/>
    <path d="M 81.480951 88.620519 
L 79.980951 87.120519 
L 81.480951 85.620519 
" style="fill:none;opacity:0.5;stroke:#800080;stroke-linecap:round;stroke-width:2;"/>
    <path d="M 118.36871 85.620519 
L 119.86871 87.120519 
L 118.36871 88.620519 
" style="fill:none;opacity:0.5;stroke:#800080;stroke-linecap:round;stroke-width:2;"/>
   </g>
   <g id="line2d_1">
    <path clip-path="url(#pa47d037d42)" d="M 215.201279 29.59868 
L 423.879488 143.491921 
L 98.440853 304.55307 
L 78.566737 266.588656 
L 247.496716 184.907645 
L 138.189083 127.385806 
L 78.566737 87.120519 
" style="fill:none;stroke:#ff0000;stroke-linecap:square;stroke-width:0.2;"/>
   </g>
   <g id="line2d_2">
    <path clip-path="url(#pa47d037d42)" d="M 227.622601 43.403922 
L 394.068316 138.890174 
L 120.799232 286.146081 
L 108.37791 250.482541 
L 264.886567 169.951967 
L 160.547462 115.881439 
L 123.283497 87.120519 
" style="fill:none;stroke:#0000ff;stroke-linecap:square;stroke-width:0.2;"/>
   </g>
  </g>
 </g>
 <defs>
  <clipPath id="pa47d037d42">
   <rect height="307.51175" width="409.903625" x="37.576375" y="13.32"/>
  </clipPath>
 </defs>
</svg>
