<?xml version="1.0" encoding="utf-8" standalone="no"?>
<!DOCTYPE svg PUBLIC "-//W3C//DTD SVG 1.1//EN"
  "http://www.w3.org/Graphics/SVG/1.1/DTD/svg11.dtd">
<!-- Created with matplotlib (http://matplotlib.org/) -->
<svg height="345.6pt" version="1.1" viewBox="0 0 460.8 345.6" width="460.8pt" xmlns="http://www.w3.org/2000/svg" xmlns:xlink="http://www.w3.org/1999/xlink">
 <defs>
  <style type="text/css">
*{stroke-linecap:butt;stroke-linejoin:round;}
  </style>
 </defs>
 <g id="figure_1">
  <g id="patch_1">
   <path d="M 0 345.6 
L 460.8 345.6 
L 460.8 0 
L 0 0 
z
" style="fill:#ffffff;"/>
  </g>
  <g id="axes_1">
   <g id="patch_2">
    <path clip-path="url(#pfb079f3c23)" d="M 290.572114 200.19038 
C 291.304083 200.19038 292.006171 199.896557 292.523752 199.373621 
C 293.041332 198.850685 293.332147 198.141333 293.332147 197.40179 
C 293.332147 196.662247 293.041332 195.952895 292.523752 195.429959 
C 292.006171 194.907024 291.304083 194.6132 290.572114 194.6132 
C 289.840144 194.6132 289.138056 194.907024 288.620476 195.429959 
C 288.102895 195.952895 287.812081 196.662247 287.812081 197.40179 
C 287.812081 198.141333 288.102895 198.850685 288.620476 199.373621 
C 289.138056 199.896557 289.840144 200.19038 290.572114 200.19038 
z
" style="fill:#ff0000;opacity:0.2;stroke:#ff0000;stroke-linejoin:miter;stroke-width:2;"/>
   </g>
   <g id="patch_3">
    <path clip-path="url(#pfb079f3c23)" d="M 222.951301 200.19038 
C 223.68327 200.19038 224.385359 199.896557 224.902939 199.373621 
C 225.42052 198.850685 225.711334 198.141333 225.711334 197.40179 
C 225.711334 196.662247 225.42052 195.952895 224.902939 195.429959 
C 224.385359 194.907024 223.68327 194.6132 222.951301 194.6132 
C 222.219332 194.6132 221.517243 194.907024 220.999663 195.429959 
C 220.482082 195.952895 220.191268 196.662247 220.191268 197.40179 
C 220.191268 198.141333 220.482082 198.850685 220.999663 199.373621 
C 221.517243 199.896557 222.219332 200.19038 222.951301 200.19038 
z
" style="fill:#ff0000;opacity:0.2;stroke:#ff0000;stroke-linejoin:miter;stroke-width:2;"/>
   </g>
   <g id="patch_4">
    <path clip-path="url(#pfb079f3c23)" d="M 98.749808 275.482307 
C 99.481777 275.482307 100.183866 275.188484 100.701446 274.665548 
C 101.219027 274.142612 101.509841 273.43326 101.509841 272.693717 
C 101.509841 271.954174 101.219027 271.244822 100.701446 270.721886 
C 100.183866 270.198951 99.481777 269.905127 98.749808 269.905127 
C 98.017839 269.905127 97.31575 270.198951 96.79817 270.721886 
C 96.280589 271.244822 95.989775 271.954174 95.989775 272.693717 
C 95.989775 273.43326 96.280589 274.142612 96.79817 274.665548 
C 97.31575 275.188484 98.017839 275.482307 98.749808 275.482307 
z
" style="fill:#ff0000;opacity:0.2;stroke:#ff0000;stroke-linejoin:miter;stroke-width:2;"/>
   </g>
   <g id="patch_5">
    <path clip-path="url(#pfb079f3c23)" d="M 53.20926 267.116537 
C 53.94123 267.116537 54.643318 266.822714 55.160899 266.299778 
C 55.678479 265.776843 55.969294 265.06749 55.969294 264.327947 
C 55.969294 263.588405 55.678479 262.879052 55.160899 262.356117 
C 54.643318 261.833181 53.94123 261.539357 53.20926 261.539357 
C 52.477291 261.539357 51.775203 261.833181 51.257622 262.356117 
C 50.740042 262.879052 50.449227 263.588405 50.449227 264.327947 
C 50.449227 265.06749 50.740042 265.776843 51.257622 266.299778 
C 51.775203 266.822714 52.477291 267.116537 53.20926 267.116537 
z
" style="fill:#ff0000;opacity:0.2;stroke:#ff0000;stroke-linejoin:miter;stroke-width:2;"/>
   </g>
   <g id="patch_6">
    <path clip-path="url(#pfb079f3c23)" d="M 112.549974 138.841402 
C 113.281943 138.841402 113.984031 138.547579 114.501612 138.024643 
C 115.019192 137.501708 115.310007 136.792355 115.310007 136.052812 
C 115.310007 135.31327 115.019192 134.603917 114.501612 134.080982 
C 113.984031 133.558046 113.281943 133.264223 112.549974 133.264223 
C 111.818004 133.264223 111.115916 133.558046 110.598336 134.080982 
C 110.080755 134.603917 109.789941 135.31327 109.789941 136.052812 
C 109.789941 136.792355 110.080755 137.501708 110.598336 138.024643 
C 111.115916 138.547579 111.818004 138.841402 112.549974 138.841402 
z
" style="fill:#ff0000;opacity:0.2;stroke:#ff0000;stroke-linejoin:miter;stroke-width:2;"/>
   </g>
   <g id="patch_7">
    <path clip-path="url(#pfb079f3c23)" d="M 200.871036 99.801144 
C 201.603005 99.801144 202.305093 99.507321 202.822674 98.984385 
C 203.340254 98.461449 203.631069 97.752097 203.631069 97.012554 
C 203.631069 96.273011 203.340254 95.563659 202.822674 95.040723 
C 202.305093 94.517788 201.603005 94.223964 200.871036 94.223964 
C 200.139066 94.223964 199.436978 94.517788 198.919397 95.040723 
C 198.401817 95.563659 198.111002 96.273011 198.111002 97.012554 
C 198.111002 97.752097 198.401817 98.461449 198.919397 98.984385 
C 199.436978 99.507321 200.139066 99.801144 200.871036 99.801144 
z
" style="fill:#ff0000;opacity:0.2;stroke:#ff0000;stroke-linejoin:miter;stroke-width:2;"/>
   </g>
   <g id="patch_8">
    <path clip-path="url(#pfb079f3c23)" d="M 282.292014 99.801144 
C 283.023984 99.801144 283.726072 99.507321 284.243652 98.984385 
C 284.761233 98.461449 285.052047 97.752097 285.052047 97.012554 
C 285.052047 96.273011 284.761233 95.563659 284.243652 95.040723 
C 283.726072 94.517788 283.023984 94.223964 282.292014 94.223964 
C 281.560045 94.223964 280.857957 94.517788 280.340376 95.040723 
C 279.822796 95.563659 279.531981 96.273011 279.531981 97.012554 
C 279.531981 97.752097 279.822796 98.461449 280.340376 98.984385 
C 280.857957 99.507321 281.560045 99.801144 282.292014 99.801144 
z
" style="fill:#ff0000;opacity:0.2;stroke:#ff0000;stroke-linejoin:miter;stroke-width:2;"/>
   </g>
   <g id="patch_9">
    <path clip-path="url(#pfb079f3c23)" d="M 380.273192 34.269282 
C 381.005161 34.269282 381.70725 33.975458 382.22483 33.452522 
C 382.742411 32.929587 383.033225 32.220234 383.033225 31.480692 
C 383.033225 30.741149 382.742411 30.031796 382.22483 29.508861 
C 381.70725 28.985925 381.005161 28.692102 380.273192 28.692102 
C 379.541223 28.692102 378.839134 28.985925 378.321554 29.508861 
C 377.803973 30.031796 377.513159 30.741149 377.513159 31.480692 
C 377.513159 32.220234 377.803973 32.929587 378.321554 33.452522 
C 378.839134 33.975458 379.541223 34.269282 380.273192 34.269282 
z
" style="fill:#ff0000;opacity:0.2;stroke:#ff0000;stroke-linejoin:miter;stroke-width:2;"/>
   </g>
   <g id="patch_10">
    <path clip-path="url(#pfb079f3c23)" d="M 425.81374 41.240756 
C 426.545709 41.240756 427.247797 40.946933 427.765378 40.423997 
C 428.282958 39.901062 428.573773 39.191709 428.573773 38.452166 
C 428.573773 37.712624 428.282958 37.003271 427.765378 36.480336 
C 427.247797 35.9574 426.545709 35.663576 425.81374 35.663576 
C 425.08177 35.663576 424.379682 35.9574 423.862101 36.480336 
C 423.344521 37.003271 423.053706 37.712624 423.053706 38.452166 
C 423.053706 39.191709 423.344521 39.901062 423.862101 40.423997 
C 424.379682 40.946933 425.08177 41.240756 425.81374 41.240756 
z
" style="fill:#ff0000;opacity:0.2;stroke:#ff0000;stroke-linejoin:miter;stroke-width:2;"/>
   </g>
   <g id="patch_11">
    <path clip-path="url(#pfb079f3c23)" d="M 377.513159 161.150121 
C 378.245128 161.150121 378.947217 160.856298 379.464797 160.333362 
C 379.982378 159.810427 380.273192 159.101074 380.273192 158.361532 
C 380.273192 157.621989 379.982378 156.912636 379.464797 156.389701 
C 378.947217 155.866765 378.245128 155.572942 377.513159 155.572942 
C 376.78119 155.572942 376.079101 155.866765 375.561521 156.389701 
C 375.04394 156.912636 374.753126 157.621989 374.753126 158.361532 
C 374.753126 159.101074 375.04394 159.810427 375.561521 160.333362 
C 376.079101 160.856298 376.78119 161.150121 377.513159 161.150121 
z
" style="fill:#ff0000;opacity:0.2;stroke:#ff0000;stroke-linejoin:miter;stroke-width:2;"/>
   </g>
   <g id="patch_12">
    <path clip-path="url(#pfb079f3c23)" d="M 193.970953 149.298614 
C 194.702922 149.298614 195.40501 149.004791 195.922591 148.481855 
C 196.440171 147.95892 196.730986 147.249567 196.730986 146.510025 
C 196.730986 145.770482 196.440171 145.061129 195.922591 144.538194 
C 195.40501 144.015258 194.702922 143.721435 193.970953 143.721435 
C 193.238983 143.721435 192.536895 144.015258 192.019314 144.538194 
C 191.501734 145.061129 191.210919 145.770482 191.210919 146.510025 
C 191.210919 147.249567 191.501734 147.95892 192.019314 148.481855 
C 192.536895 149.004791 193.238983 149.298614 193.970953 149.298614 
z
" style="fill:#0000ff;opacity:0.2;stroke:#0000ff;stroke-linejoin:miter;stroke-width:2;"/>
   </g>
   <g id="patch_13">
    <path clip-path="url(#pfb079f3c23)" d="M 278.151964 149.298614 
C 278.883934 149.298614 279.586022 149.004791 280.103603 148.481855 
C 280.621183 147.95892 280.911998 147.249567 280.911998 146.510025 
C 280.911998 145.770482 280.621183 145.061129 280.103603 144.538194 
C 279.586022 144.015258 278.883934 143.721435 278.151964 143.721435 
C 277.419995 143.721435 276.717907 144.015258 276.200326 144.538194 
C 275.682746 145.061129 275.391931 145.770482 275.391931 146.510025 
C 275.391931 147.249567 275.682746 147.95892 276.200326 148.481855 
C 276.717907 149.004791 277.419995 149.298614 278.151964 149.298614 
z
" style="fill:#0000ff;opacity:0.2;stroke:#0000ff;stroke-linejoin:miter;stroke-width:2;"/>
   </g>
   <g id="patch_14">
    <path clip-path="url(#pfb079f3c23)" d="M 388.553292 92.132522 
C 389.285261 92.132522 389.987349 91.838698 390.50493 91.315763 
C 391.02251 90.792827 391.313325 90.083475 391.313325 89.343932 
C 391.313325 88.604389 391.02251 87.895037 390.50493 87.372101 
C 389.987349 86.849165 389.285261 86.555342 388.553292 86.555342 
C 387.821322 86.555342 387.119234 86.849165 386.601653 87.372101 
C 386.084073 87.895037 385.793258 88.604389 385.793258 89.343932 
C 385.793258 90.083475 386.084073 90.792827 386.601653 91.315763 
C 387.119234 91.838698 387.821322 92.132522 388.553292 92.132522 
z
" style="fill:#0000ff;opacity:0.2;stroke:#0000ff;stroke-linejoin:miter;stroke-width:2;"/>
   </g>
   <g id="patch_15">
    <path clip-path="url(#pfb079f3c23)" d="M 412.013574 99.103996 
C 412.745543 99.103996 413.447631 98.810173 413.965212 98.287237 
C 414.482792 97.764302 414.773607 97.054949 414.773607 96.315407 
C 414.773607 95.575864 414.482792 94.866511 413.965212 94.343576 
C 413.447631 93.82064 412.745543 93.526817 412.013574 93.526817 
C 411.281604 93.526817 410.579516 93.82064 410.061935 94.343576 
C 409.544355 94.866511 409.25354 95.575864 409.25354 96.315407 
C 409.25354 97.054949 409.544355 97.764302 410.061935 98.287237 
C 410.579516 98.810173 411.281604 99.103996 412.013574 99.103996 
z
" style="fill:#0000ff;opacity:0.2;stroke:#0000ff;stroke-linejoin:miter;stroke-width:2;"/>
   </g>
   <g id="patch_16">
    <path clip-path="url(#pfb079f3c23)" d="M 358.192927 207.859002 
C 358.924896 207.859002 359.626984 207.565179 360.144565 207.042243 
C 360.662145 206.519307 360.95296 205.809955 360.95296 205.070412 
C 360.95296 204.33087 360.662145 203.621517 360.144565 203.098581 
C 359.626984 202.575646 358.924896 202.281822 358.192927 202.281822 
C 357.460957 202.281822 356.758869 202.575646 356.241288 203.098581 
C 355.723708 203.621517 355.432893 204.33087 355.432893 205.070412 
C 355.432893 205.809955 355.723708 206.519307 356.241288 207.042243 
C 356.758869 207.565179 357.460957 207.859002 358.192927 207.859002 
z
" style="fill:#0000ff;opacity:0.2;stroke:#0000ff;stroke-linejoin:miter;stroke-width:2;"/>
   </g>
   <g id="patch_17">
    <path clip-path="url(#pfb079f3c23)" d="M 287.812081 230.167721 
C 288.54405 230.167721 289.246138 229.873898 289.763719 229.350962 
C 290.281299 228.828027 290.572114 228.118674 290.572114 227.379131 
C 290.572114 226.639589 290.281299 225.930236 289.763719 225.407301 
C 289.246138 224.884365 288.54405 224.590541 287.812081 224.590541 
C 287.080111 224.590541 286.378023 224.884365 285.860442 225.407301 
C 285.342862 225.930236 285.052047 226.639589 285.052047 227.379131 
C 285.052047 228.118674 285.342862 228.828027 285.860442 229.350962 
C 286.378023 229.873898 287.080111 230.167721 287.812081 230.167721 
z
" style="fill:#0000ff;opacity:0.2;stroke:#0000ff;stroke-linejoin:miter;stroke-width:2;"/>
   </g>
   <g id="patch_18">
    <path clip-path="url(#pfb079f3c23)" d="M 210.531152 230.167721 
C 211.263121 230.167721 211.965209 229.873898 212.48279 229.350962 
C 213.00037 228.828027 213.291185 228.118674 213.291185 227.379131 
C 213.291185 226.639589 213.00037 225.930236 212.48279 225.407301 
C 211.965209 224.884365 211.263121 224.590541 210.531152 224.590541 
C 209.799182 224.590541 209.097094 224.884365 208.579513 225.407301 
C 208.061933 225.930236 207.771118 226.639589 207.771118 227.379131 
C 207.771118 228.118674 208.061933 228.828027 208.579513 229.350962 
C 209.097094 229.873898 209.799182 230.167721 210.531152 230.167721 
z
" style="fill:#0000ff;opacity:0.2;stroke:#0000ff;stroke-linejoin:miter;stroke-width:2;"/>
   </g>
   <g id="patch_19">
    <path clip-path="url(#pfb079f3c23)" d="M 94.609758 304.065353 
C 95.341727 304.065353 96.043816 303.77153 96.561396 303.248594 
C 97.078977 302.725659 97.369791 302.016306 97.369791 301.276763 
C 97.369791 300.537221 97.078977 299.827868 96.561396 299.304933 
C 96.043816 298.781997 95.341727 298.488174 94.609758 298.488174 
C 93.877789 298.488174 93.1757 298.781997 92.65812 299.304933 
C 92.140539 299.827868 91.849725 300.537221 91.849725 301.276763 
C 91.849725 302.016306 92.140539 302.725659 92.65812 303.248594 
C 93.1757 303.77153 93.877789 304.065353 94.609758 304.065353 
z
" style="fill:#0000ff;opacity:0.2;stroke:#0000ff;stroke-linejoin:miter;stroke-width:2;"/>
   </g>
   <g id="patch_20">
    <path clip-path="url(#pfb079f3c23)" d="M 67.009426 298.488174 
C 67.741396 298.488174 68.443484 298.19435 68.961065 297.671414 
C 69.478645 297.148479 69.76946 296.439126 69.76946 295.699584 
C 69.76946 294.960041 69.478645 294.250688 68.961065 293.727753 
C 68.443484 293.204817 67.741396 292.910994 67.009426 292.910994 
C 66.277457 292.910994 65.575369 293.204817 65.057788 293.727753 
C 64.540208 294.250688 64.249393 294.960041 64.249393 295.699584 
C 64.249393 296.439126 64.540208 297.148479 65.057788 297.671414 
C 65.575369 298.19435 66.277457 298.488174 67.009426 298.488174 
z
" style="fill:#0000ff;opacity:0.2;stroke:#0000ff;stroke-linejoin:miter;stroke-width:2;"/>
   </g>
   <g id="patch_21">
    <path clip-path="url(#pfb079f3c23)" d="M 120.830073 181.367398 
C 121.562043 181.367398 122.264131 181.073575 122.781712 180.550639 
C 123.299292 180.027703 123.590107 179.318351 123.590107 178.578808 
C 123.590107 177.839266 123.299292 177.129913 122.781712 176.606977 
C 122.264131 176.084042 121.562043 175.790218 120.830073 175.790218 
C 120.098104 175.790218 119.396016 176.084042 118.878435 176.606977 
C 118.360855 177.129913 118.07004 177.839266 118.07004 178.578808 
C 118.07004 179.318351 118.360855 180.027703 118.878435 180.550639 
C 119.396016 181.073575 120.098104 181.367398 120.830073 181.367398 
z
" style="fill:#0000ff;opacity:0.2;stroke:#0000ff;stroke-linejoin:miter;stroke-width:2;"/>
   </g>
   <g id="patch_22">
    <path clip-path="url(#pfb079f3c23)" d="M 290.572114 197.40179 
L 222.951301 197.40179 
C 158.090521 197.40179 131.870206 215.527624 98.749808 272.693717 
C 84.949642 278.270897 58.729327 275.482307 53.20926 264.327947 
C 61.48936 230.864869 89.089692 163.938711 112.549974 136.052812 
C 137.390272 106.772619 162.230571 97.012554 200.871036 97.012554 
L 282.292014 97.012554 
C 326.452545 97.012554 358.192927 88.646784 380.273192 31.480692 
C 398.213408 27.297807 420.293673 30.086397 425.81374 38.452166 
C 416.153623 83.069605 399.593424 126.292748 377.513159 158.361532 
C 356.81291 187.641725 336.112661 197.40179 290.572114 197.40179 
" style="fill:none;stroke:#ff0000;stroke-linejoin:miter;stroke-width:0.5;"/>
   </g>
   <g id="patch_23">
    <path clip-path="url(#pfb079f3c23)" d="M 193.970953 146.510025 
L 278.151964 146.510025 
C 337.492678 146.510025 354.052877 138.144255 388.553292 89.343932 
C 396.833391 83.766752 407.873524 85.161047 412.013574 96.315407 
C 403.733474 133.96137 378.893176 185.550283 358.192927 205.070412 
C 337.492678 224.590541 318.172446 227.379131 287.812081 227.379131 
L 210.531152 227.379131 
C 145.670372 227.379131 122.21009 249.68785 94.609758 301.276763 
C 86.329659 306.853943 71.149476 305.459648 67.009426 295.699584 
C 71.149476 271.99657 97.369791 199.493232 120.830073 178.578808 
C 142.910339 153.481499 162.230571 146.510025 193.970953 146.510025 
" style="fill:none;stroke:#0000ff;stroke-linejoin:miter;stroke-width:0.5;"/>
   </g>
   <g id="[&quot;g_s&quot;:1,&quot;g_t&quot;:6,&quot;coords&quot;:[[277.0, 46.0],[275.0, 24.5]],&quot;certainty&quot;:2]">
    <path clip-path="url(#pfb079f3c23)" d="M 290.572114 199.493232 
C 291.121091 199.493232 291.647657 199.272865 292.035842 198.880663 
C 292.424028 198.488461 292.642139 197.956447 292.642139 197.40179 
C 292.642139 196.847133 292.424028 196.315119 292.035842 195.922917 
C 291.647657 195.530715 291.121091 195.310348 290.572114 195.310348 
C 290.023137 195.310348 289.496571 195.530715 289.108385 195.922917 
C 288.7202 196.315119 288.502089 196.847133 288.502089 197.40179 
C 288.502089 197.956447 288.7202 198.488461 289.108385 198.880663 
C 289.496571 199.272865 290.023137 199.493232 290.572114 199.493232 
z
" style="fill:#0000ff;opacity:0.2;stroke:#0000ff;stroke-linejoin:miter;stroke-width:2;"/>
   </g>
   <g id="[&quot;g_s&quot;:6,&quot;g_t&quot;:1,&quot;coords&quot;:[[275.0, 24.5],[277.0, 46.0]],&quot;certainty&quot;:2]">
    <path clip-path="url(#pfb079f3c23)" d="M 287.812081 229.470574 
C 288.361058 229.470574 288.887624 229.250206 289.275809 228.858004 
C 289.663995 228.465803 289.882106 227.933788 289.882106 227.379131 
C 289.882106 226.824474 289.663995 226.29246 289.275809 225.900258 
C 288.887624 225.508056 288.361058 225.287689 287.812081 225.287689 
C 287.263104 225.287689 286.736537 225.508056 286.348352 225.900258 
C 285.960167 226.29246 285.742056 226.824474 285.742056 227.379131 
C 285.742056 227.933788 285.960167 228.465803 286.348352 228.858004 
C 286.736537 229.250206 287.263104 229.470574 287.812081 229.470574 
z
" style="fill:#ff0000;opacity:0.2;stroke:#ff0000;stroke-linejoin:miter;stroke-width:2;"/>
   </g>
   <g id="patch_24">
    <path d="M 290.572114 197.40179 
Q 289.283907 211.39329 288.044323 224.856693 
" style="fill:none;opacity:0.5;stroke:#0000ff;stroke-linecap:round;stroke-width:0.75;"/>
    <path d="M 289.67553 223.500535 
L 288.044323 224.856693 
L 286.688165 223.225486 
" style="fill:none;opacity:0.5;stroke:#0000ff;stroke-linecap:round;stroke-width:0.75;"/>
   </g>
   <g id="[&quot;g_s&quot;:2,&quot;g_t&quot;:7,&quot;coords&quot;:[[228.0, 46.0],[219.0, 24.5]],&quot;certainty&quot;:5]">
    <path clip-path="url(#pfb079f3c23)" d="M 222.951301 201.584675 
C 224.049255 201.584675 225.102387 201.14394 225.878758 200.359536 
C 226.655129 199.575133 227.091351 198.511104 227.091351 197.40179 
C 227.091351 196.292476 226.655129 195.228447 225.878758 194.444044 
C 225.102387 193.65964 224.049255 193.218905 222.951301 193.218905 
C 221.853347 193.218905 220.800214 193.65964 220.023844 194.444044 
C 219.247473 195.228447 218.811251 196.292476 218.811251 197.40179 
C 218.811251 198.511104 219.247473 199.575133 220.023844 200.359536 
C 220.800214 201.14394 221.853347 201.584675 222.951301 201.584675 
z
" style="fill:#0000ff;opacity:0.2;stroke:#0000ff;stroke-linejoin:miter;stroke-width:2;"/>
   </g>
   <g id="[&quot;g_s&quot;:7,&quot;g_t&quot;:2,&quot;coords&quot;:[[219.0, 24.5],[228.0, 46.0]],&quot;certainty&quot;:5]">
    <path clip-path="url(#pfb079f3c23)" d="M 210.531152 231.562016 
C 211.629106 231.562016 212.682238 231.121281 213.458609 230.336878 
C 214.23498 229.552474 214.671201 228.488445 214.671201 227.379131 
C 214.671201 226.269817 214.23498 225.205789 213.458609 224.421385 
C 212.682238 223.636982 211.629106 223.196247 210.531152 223.196247 
C 209.433198 223.196247 208.380065 223.636982 207.603694 224.421385 
C 206.827324 225.205789 206.391102 226.269817 206.391102 227.379131 
C 206.391102 228.488445 206.827324 229.552474 207.603694 230.336878 
C 208.380065 231.121281 209.433198 231.562016 210.531152 231.562016 
z
" style="fill:#ff0000;opacity:0.2;stroke:#ff0000;stroke-linejoin:miter;stroke-width:2;"/>
   </g>
   <g id="patch_25">
    <path d="M 222.951301 197.40179 
Q 217.124049 211.466476 211.702782 224.551277 
" style="fill:none;opacity:0.5;stroke:#0000ff;stroke-linecap:round;stroke-width:1.5;"/>
    <path d="M 213.662699 223.739657 
L 211.702782 224.551277 
L 210.891163 222.59136 
" style="fill:none;opacity:0.5;stroke:#0000ff;stroke-linecap:round;stroke-width:1.5;"/>
   </g>
   <g id="[&quot;g_s&quot;:3,&quot;g_t&quot;:8,&quot;coords&quot;:[[138.0, -8.0],[135.0, -28.5]],&quot;certainty&quot;:7]">
    <path clip-path="url(#pfb079f3c23)" d="M 98.749808 278.270897 
C 100.213747 278.270897 101.617923 277.68325 102.653084 276.637379 
C 103.688245 275.591507 104.269874 274.172802 104.269874 272.693717 
C 104.269874 271.214632 103.688245 269.795927 102.653084 268.750055 
C 101.617923 267.704184 100.213747 267.116537 98.749808 267.116537 
C 97.285869 267.116537 95.881693 267.704184 94.846532 268.750055 
C 93.811371 269.795927 93.229742 271.214632 93.229742 272.693717 
C 93.229742 274.172802 93.811371 275.591507 94.846532 276.637379 
C 95.881693 277.68325 97.285869 278.270897 98.749808 278.270897 
z
" style="fill:#0000ff;opacity:0.2;stroke:#0000ff;stroke-linejoin:miter;stroke-width:2;"/>
   </g>
   <g id="[&quot;g_s&quot;:8,&quot;g_t&quot;:3,&quot;coords&quot;:[[135.0, -28.5],[138.0, -8.0]],&quot;certainty&quot;:7]">
    <path clip-path="url(#pfb079f3c23)" d="M 94.609758 306.853943 
C 96.073697 306.853943 97.477873 306.266296 98.513034 305.220425 
C 99.548195 304.174554 100.129824 302.755849 100.129824 301.276763 
C 100.129824 299.797678 99.548195 298.378973 98.513034 297.333102 
C 97.477873 296.28723 96.073697 295.699584 94.609758 295.699584 
C 93.145819 295.699584 91.741643 296.28723 90.706482 297.333102 
C 89.671321 298.378973 89.089692 299.797678 89.089692 301.276763 
C 89.089692 302.755849 89.671321 304.174554 90.706482 305.220425 
C 91.741643 306.266296 93.145819 306.853943 94.609758 306.853943 
z
" style="fill:#ff0000;opacity:0.2;stroke:#ff0000;stroke-linejoin:miter;stroke-width:2;"/>
   </g>
   <g id="patch_26">
    <path d="M 98.749808 272.693717 
Q 96.823057 285.996069 95.09903 297.898812 
" style="fill:none;opacity:0.5;stroke:#0000ff;stroke-linecap:round;stroke-width:2;"/>
    <path d="M 96.798559 296.629324 
L 95.09903 297.898812 
L 93.829542 296.199283 
" style="fill:none;opacity:0.5;stroke:#0000ff;stroke-linecap:round;stroke-width:2;"/>
   </g>
   <g id="[&quot;g_s&quot;:4,&quot;g_t&quot;:9,&quot;coords&quot;:[[105.0, -2.0],[115.0, -24.5]],&quot;certainty&quot;:6]">
    <path clip-path="url(#pfb079f3c23)" d="M 53.20926 269.20798 
C 54.490207 269.20798 55.718861 268.693789 56.624627 267.778651 
C 57.530393 266.863514 58.039319 265.622147 58.039319 264.327947 
C 58.039319 263.033748 57.530393 261.792381 56.624627 260.877243 
C 55.718861 259.962106 54.490207 259.447915 53.20926 259.447915 
C 51.928314 259.447915 50.69966 259.962106 49.793894 260.877243 
C 48.888128 261.792381 48.379202 263.033748 48.379202 264.327947 
C 48.379202 265.622147 48.888128 266.863514 49.793894 267.778651 
C 50.69966 268.693789 51.928314 269.20798 53.20926 269.20798 
z
" style="fill:#0000ff;opacity:0.2;stroke:#0000ff;stroke-linejoin:miter;stroke-width:2;"/>
   </g>
   <g id="[&quot;g_s&quot;:9,&quot;g_t&quot;:4,&quot;coords&quot;:[[115.0, -24.5],[105.0, -2.0]],&quot;certainty&quot;:6]">
    <path clip-path="url(#pfb079f3c23)" d="M 67.009426 300.579616 
C 68.290373 300.579616 69.519027 300.065425 70.424793 299.150288 
C 71.330559 298.23515 71.839484 296.993783 71.839484 295.699584 
C 71.839484 294.405384 71.330559 293.164017 70.424793 292.24888 
C 69.519027 291.333742 68.290373 290.819551 67.009426 290.819551 
C 65.72848 290.819551 64.499825 291.333742 63.59406 292.24888 
C 62.688294 293.164017 62.179368 294.405384 62.179368 295.699584 
C 62.179368 296.993783 62.688294 298.23515 63.59406 299.150288 
C 64.499825 300.065425 65.72848 300.579616 67.009426 300.579616 
z
" style="fill:#ff0000;opacity:0.2;stroke:#ff0000;stroke-linejoin:miter;stroke-width:2;"/>
   </g>
   <g id="patch_27">
    <path d="M 53.20926 264.327947 
Q 59.705884 279.096589 65.704245 292.732542 
" style="fill:none;opacity:0.5;stroke:#0000ff;stroke-linecap:round;stroke-width:1.75;"/>
    <path d="M 66.473287 290.755531 
L 65.704245 292.732542 
L 63.727234 291.9635 
" style="fill:none;opacity:0.5;stroke:#0000ff;stroke-linecap:round;stroke-width:1.75;"/>
   </g>
   <g id="[&quot;g_s&quot;:5,&quot;g_t&quot;:10,&quot;coords&quot;:[[148.0, 90.0],[154.0, 59.5]],&quot;certainty&quot;:11]">
    <path clip-path="url(#pfb079f3c23)" d="M 112.549974 144.418582 
C 114.745882 144.418582 116.852147 143.537112 118.404888 141.968305 
C 119.95763 140.399498 120.830073 138.271441 120.830073 136.052812 
C 120.830073 133.834184 119.95763 131.706127 118.404888 130.13732 
C 116.852147 128.568513 114.745882 127.687043 112.549974 127.687043 
C 110.354066 127.687043 108.247801 128.568513 106.695059 130.13732 
C 105.142318 131.706127 104.269874 133.834184 104.269874 136.052812 
C 104.269874 138.271441 105.142318 140.399498 106.695059 141.968305 
C 108.247801 143.537112 110.354066 144.418582 112.549974 144.418582 
z
" style="fill:#0000ff;opacity:0.2;stroke:#0000ff;stroke-linejoin:miter;stroke-width:2;"/>
   </g>
   <g id="[&quot;g_s&quot;:10,&quot;g_t&quot;:5,&quot;coords&quot;:[[154.0, 59.5],[148.0, 90.0]],&quot;certainty&quot;:11]">
    <path clip-path="url(#pfb079f3c23)" d="M 120.830073 186.944578 
C 123.025981 186.944578 125.132246 186.063108 126.684988 184.494301 
C 128.237729 182.925494 129.110173 180.797436 129.110173 178.578808 
C 129.110173 176.36018 128.237729 174.232123 126.684988 172.663316 
C 125.132246 171.094509 123.025981 170.213039 120.830073 170.213039 
C 118.634165 170.213039 116.5279 171.094509 114.975159 172.663316 
C 113.422417 174.232123 112.549974 176.36018 112.549974 178.578808 
C 112.549974 180.797436 113.422417 182.925494 114.975159 184.494301 
C 116.5279 186.063108 118.634165 186.944578 120.830073 186.944578 
z
" style="fill:#ff0000;opacity:0.2;stroke:#ff0000;stroke-linejoin:miter;stroke-width:2;"/>
   </g>
   <g id="patch_28">
    <path d="M 112.549974 136.052812 
Q 116.498738 156.333383 120.042081 174.531735 
" style="fill:none;opacity:0.5;stroke:#0000ff;stroke-linecap:round;stroke-width:3;"/>
    <path d="M 121.227755 172.772708 
L 120.042081 174.531735 
L 118.283053 173.346061 
" style="fill:none;opacity:0.5;stroke:#0000ff;stroke-linecap:round;stroke-width:3;"/>
   </g>
   <g id="[&quot;g_s&quot;:6,&quot;g_t&quot;:1,&quot;coords&quot;:[[212.0, 118.0],[207.0, 82.5]],&quot;certainty&quot;:6]">
    <path clip-path="url(#pfb079f3c23)" d="M 200.871036 101.892586 
C 202.151982 101.892586 203.380636 101.378395 204.286402 100.463258 
C 205.192168 99.548121 205.701094 98.306754 205.701094 97.012554 
C 205.701094 95.718354 205.192168 94.476987 204.286402 93.56185 
C 203.380636 92.646713 202.151982 92.132522 200.871036 92.132522 
C 199.590089 92.132522 198.361435 92.646713 197.455669 93.56185 
C 196.549903 94.476987 196.040977 95.718354 196.040977 97.012554 
C 196.040977 98.306754 196.549903 99.548121 197.455669 100.463258 
C 198.361435 101.378395 199.590089 101.892586 200.871036 101.892586 
z
" style="fill:#0000ff;opacity:0.2;stroke:#0000ff;stroke-linejoin:miter;stroke-width:2;"/>
   </g>
   <g id="[&quot;g_s&quot;:1,&quot;g_t&quot;:6,&quot;coords&quot;:[[207.0, 82.5],[212.0, 118.0]],&quot;certainty&quot;:6]">
    <path clip-path="url(#pfb079f3c23)" d="M 193.970953 151.390057 
C 195.251899 151.390057 196.480553 150.875866 197.386319 149.960729 
C 198.292085 149.045591 198.801011 147.804224 198.801011 146.510025 
C 198.801011 145.215825 198.292085 143.974458 197.386319 143.059321 
C 196.480553 142.144183 195.251899 141.629992 193.970953 141.629992 
C 192.690006 141.629992 191.461352 142.144183 190.555586 143.059321 
C 189.64982 143.974458 189.140894 145.215825 189.140894 146.510025 
C 189.140894 147.804224 189.64982 149.045591 190.555586 149.960729 
C 191.461352 150.875866 192.690006 151.390057 193.970953 151.390057 
z
" style="fill:#ff0000;opacity:0.2;stroke:#ff0000;stroke-linejoin:miter;stroke-width:2;"/>
   </g>
   <g id="patch_29">
    <path d="M 200.871036 97.012554 
Q 197.55892 120.771884 194.417654 143.305628 
" style="fill:none;opacity:0.5;stroke:#0000ff;stroke-linecap:round;stroke-width:1.75;"/>
    <path d="M 196.11039 142.027095 
L 194.417654 143.305628 
L 193.139122 141.612892 
" style="fill:none;opacity:0.5;stroke:#0000ff;stroke-linecap:round;stroke-width:1.75;"/>
   </g>
   <g id="[&quot;g_s&quot;:7,&quot;g_t&quot;:2,&quot;coords&quot;:[[271.0, 118.0],[268.0, 82.5]],&quot;certainty&quot;:6]">
    <path clip-path="url(#pfb079f3c23)" d="M 282.292014 101.892586 
C 283.572961 101.892586 284.801615 101.378395 285.707381 100.463258 
C 286.613147 99.548121 287.122072 98.306754 287.122072 97.012554 
C 287.122072 95.718354 286.613147 94.476987 285.707381 93.56185 
C 284.801615 92.646713 283.572961 92.132522 282.292014 92.132522 
C 281.011068 92.132522 279.782413 92.646713 278.876647 93.56185 
C 277.970882 94.476987 277.461956 95.718354 277.461956 97.012554 
C 277.461956 98.306754 277.970882 99.548121 278.876647 100.463258 
C 279.782413 101.378395 281.011068 101.892586 282.292014 101.892586 
z
" style="fill:#0000ff;opacity:0.2;stroke:#0000ff;stroke-linejoin:miter;stroke-width:2;"/>
   </g>
   <g id="[&quot;g_s&quot;:2,&quot;g_t&quot;:7,&quot;coords&quot;:[[268.0, 82.5],[271.0, 118.0]],&quot;certainty&quot;:6]">
    <path clip-path="url(#pfb079f3c23)" d="M 278.151964 151.390057 
C 279.432911 151.390057 280.661565 150.875866 281.567331 149.960729 
C 282.473097 149.045591 282.982023 147.804224 282.982023 146.510025 
C 282.982023 145.215825 282.473097 143.974458 281.567331 143.059321 
C 280.661565 142.144183 279.432911 141.629992 278.151964 141.629992 
C 276.871018 141.629992 275.642364 142.144183 274.736598 143.059321 
C 273.830832 143.974458 273.321906 145.215825 273.321906 146.510025 
C 273.321906 147.804224 273.830832 149.045591 274.736598 149.960729 
C 275.642364 150.875866 276.871018 151.390057 278.151964 151.390057 
z
" style="fill:#ff0000;opacity:0.2;stroke:#ff0000;stroke-linejoin:miter;stroke-width:2;"/>
   </g>
   <g id="patch_30">
    <path d="M 282.292014 97.012554 
Q 280.30525 120.765842 278.421627 143.285998 
" style="fill:none;opacity:0.5;stroke:#0000ff;stroke-linecap:round;stroke-width:1.75;"/>
    <path d="M 280.041434 141.916244 
L 278.421627 143.285998 
L 277.051873 141.666192 
" style="fill:none;opacity:0.5;stroke:#0000ff;stroke-linecap:round;stroke-width:1.75;"/>
   </g>
   <g id="[&quot;g_s&quot;:8,&quot;g_t&quot;:3,&quot;coords&quot;:[[342.0, 165.0],[348.0, 123.5]],&quot;certainty&quot;:4]">
    <path clip-path="url(#pfb079f3c23)" d="M 380.273192 34.966429 
C 381.188154 34.966429 382.065764 34.59915 382.71274 33.94548 
C 383.359715 33.291811 383.723234 32.40512 383.723234 31.480692 
C 383.723234 30.556263 383.359715 29.669573 382.71274 29.015903 
C 382.065764 28.362234 381.188154 27.994954 380.273192 27.994954 
C 379.35823 27.994954 378.48062 28.362234 377.833644 29.015903 
C 377.186669 29.669573 376.823151 30.556263 376.823151 31.480692 
C 376.823151 32.40512 377.186669 33.291811 377.833644 33.94548 
C 378.48062 34.59915 379.35823 34.966429 380.273192 34.966429 
z
" style="fill:#0000ff;opacity:0.2;stroke:#0000ff;stroke-linejoin:miter;stroke-width:2;"/>
   </g>
   <g id="[&quot;g_s&quot;:3,&quot;g_t&quot;:8,&quot;coords&quot;:[[348.0, 123.5],[342.0, 165.0]],&quot;certainty&quot;:4]">
    <path clip-path="url(#pfb079f3c23)" d="M 388.553292 92.829669 
C 389.468253 92.829669 390.345864 92.46239 390.992839 91.80872 
C 391.639815 91.155051 392.003333 90.26836 392.003333 89.343932 
C 392.003333 88.419503 391.639815 87.532813 390.992839 86.879143 
C 390.345864 86.225474 389.468253 85.858194 388.553292 85.858194 
C 387.63833 85.858194 386.76072 86.225474 386.113744 86.879143 
C 385.466768 87.532813 385.10325 88.419503 385.10325 89.343932 
C 385.10325 90.26836 385.466768 91.155051 386.113744 91.80872 
C 386.76072 92.46239 387.63833 92.829669 388.553292 92.829669 
z
" style="fill:#ff0000;opacity:0.2;stroke:#ff0000;stroke-linejoin:miter;stroke-width:2;"/>
   </g>
   <g id="patch_31">
    <path d="M 380.273192 31.480692 
Q 384.271484 59.421672 388.144569 86.487682 
" style="fill:none;opacity:0.5;stroke:#0000ff;stroke-linecap:round;stroke-width:1.25;"/>
    <path d="M 389.416961 84.790326 
L 388.144569 86.487682 
L 386.447212 85.21529 
" style="fill:none;opacity:0.5;stroke:#0000ff;stroke-linecap:round;stroke-width:1.25;"/>
   </g>
   <g id="[&quot;g_s&quot;:9,&quot;g_t&quot;:4,&quot;coords&quot;:[[375.0, 160.0],[365.0, 118.5]],&quot;certainty&quot;:8]">
    <path clip-path="url(#pfb079f3c23)" d="M 425.81374 44.726494 
C 427.460671 44.726494 429.040369 44.065391 430.204925 42.888786 
C 431.369482 41.712181 432.023814 40.116137 432.023814 38.452166 
C 432.023814 36.788195 431.369482 35.192152 430.204925 34.015547 
C 429.040369 32.838942 427.460671 32.177839 425.81374 32.177839 
C 424.166808 32.177839 422.58711 32.838942 421.422554 34.015547 
C 420.257998 35.192152 419.603665 36.788195 419.603665 38.452166 
C 419.603665 40.116137 420.257998 41.712181 421.422554 42.888786 
C 422.58711 44.065391 424.166808 44.726494 425.81374 44.726494 
z
" style="fill:#0000ff;opacity:0.2;stroke:#0000ff;stroke-linejoin:miter;stroke-width:2;"/>
   </g>
   <g id="[&quot;g_s&quot;:4,&quot;g_t&quot;:9,&quot;coords&quot;:[[365.0, 118.5],[375.0, 160.0]],&quot;certainty&quot;:8]">
    <path clip-path="url(#pfb079f3c23)" d="M 412.013574 102.589734 
C 413.660505 102.589734 415.240203 101.928631 416.40476 100.752026 
C 417.569316 99.575421 418.223648 97.979378 418.223648 96.315407 
C 418.223648 94.651436 417.569316 93.055392 416.40476 91.878787 
C 415.240203 90.702182 413.660505 90.041079 412.013574 90.041079 
C 410.366643 90.041079 408.786944 90.702182 407.622388 91.878787 
C 406.457832 93.055392 405.803499 94.651436 405.803499 96.315407 
C 405.803499 97.979378 406.457832 99.575421 407.622388 100.752026 
C 408.786944 101.928631 410.366643 102.589734 412.013574 102.589734 
z
" style="fill:#ff0000;opacity:0.2;stroke:#ff0000;stroke-linejoin:miter;stroke-width:2;"/>
   </g>
   <g id="patch_32">
    <path d="M 425.81374 38.452166 
Q 419.145709 66.410805 412.846772 92.821859 
" style="fill:none;opacity:0.5;stroke:#0000ff;stroke-linecap:round;stroke-width:2.25;"/>
    <path d="M 414.653834 91.710766 
L 412.846772 92.821859 
L 411.735679 91.014797 
" style="fill:none;opacity:0.5;stroke:#0000ff;stroke-linecap:round;stroke-width:2.25;"/>
   </g>
   <g id="[&quot;g_s&quot;:10,&quot;g_t&quot;:5,&quot;coords&quot;:[[340.0, 74.0],[326.0, 40.5]],&quot;certainty&quot;:11]">
    <path clip-path="url(#pfb079f3c23)" d="M 377.513159 166.727301 
C 379.709067 166.727301 381.815332 165.845831 383.368073 164.277024 
C 384.920815 162.708217 385.793258 160.58016 385.793258 158.361532 
C 385.793258 156.142904 384.920815 154.014846 383.368073 152.446039 
C 381.815332 150.877232 379.709067 149.995762 377.513159 149.995762 
C 375.317251 149.995762 373.210986 150.877232 371.658244 152.446039 
C 370.105503 154.014846 369.233059 156.142904 369.233059 158.361532 
C 369.233059 160.58016 370.105503 162.708217 371.658244 164.277024 
C 373.210986 165.845831 375.317251 166.727301 377.513159 166.727301 
z
" style="fill:#0000ff;opacity:0.2;stroke:#0000ff;stroke-linejoin:miter;stroke-width:2;"/>
   </g>
   <g id="[&quot;g_s&quot;:5,&quot;g_t&quot;:10,&quot;coords&quot;:[[326.0, 40.5],[340.0, 74.0]],&quot;certainty&quot;:11]">
    <path clip-path="url(#pfb079f3c23)" d="M 358.192927 213.436182 
C 360.388835 213.436182 362.4951 212.554712 364.047841 210.985905 
C 365.600583 209.417098 366.473026 207.28904 366.473026 205.070412 
C 366.473026 202.851784 365.600583 200.723727 364.047841 199.15492 
C 362.4951 197.586113 360.388835 196.704643 358.192927 196.704643 
C 355.997019 196.704643 353.890754 197.586113 352.338012 199.15492 
C 350.785271 200.723727 349.912827 202.851784 349.912827 205.070412 
C 349.912827 207.28904 350.785271 209.417098 352.338012 210.985905 
C 353.890754 212.554712 355.997019 213.436182 358.192927 213.436182 
z
" style="fill:#ff0000;opacity:0.2;stroke:#ff0000;stroke-linejoin:miter;stroke-width:2;"/>
   </g>
   <g id="patch_33">
    <path d="M 377.513159 158.361532 
Q 368.235698 180.79086 359.769055 201.259941 
" style="fill:none;opacity:0.5;stroke:#0000ff;stroke-linecap:round;stroke-width:3;"/>
    <path d="M 361.728496 200.447171 
L 359.769055 201.259941 
L 358.956286 199.3005 
" style="fill:none;opacity:0.5;stroke:#0000ff;stroke-linecap:round;stroke-width:3;"/>
   </g>
   <g id="[&quot;g_s&quot;:1,&quot;g_t&quot;:5,&quot;coords&quot;:[[207.0, 82.5],[148.0, 90.0]],&quot;certainty&quot;:5]">
    <path clip-path="url(#pfb079f3c23)" d="M 193.970953 150.692909 
C 195.068907 150.692909 196.122039 150.252174 196.89841 149.467771 
C 197.674781 148.683367 198.111002 147.619339 198.111002 146.510025 
C 198.111002 145.400711 197.674781 144.336682 196.89841 143.552278 
C 196.122039 142.767875 195.068907 142.32714 193.970953 142.32714 
C 192.872999 142.32714 191.819866 142.767875 191.043495 143.552278 
C 190.267125 144.336682 189.830903 145.400711 189.830903 146.510025 
C 189.830903 147.619339 190.267125 148.683367 191.043495 149.467771 
C 191.819866 150.252174 192.872999 150.692909 193.970953 150.692909 
z
" style="fill:#0000ff;opacity:0.2;stroke:#0000ff;stroke-linejoin:miter;stroke-width:2;"/>
   </g>
   <g id="[&quot;g_s&quot;:5,&quot;g_t&quot;:1,&quot;coords&quot;:[[148.0, 90.0],[207.0, 82.5]],&quot;certainty&quot;:5]">
    <path clip-path="url(#pfb079f3c23)" d="M 112.549974 140.235697 
C 113.647928 140.235697 114.70106 139.794962 115.477431 139.010559 
C 116.253802 138.226155 116.690024 137.162127 116.690024 136.052812 
C 116.690024 134.943498 116.253802 133.87947 115.477431 133.095066 
C 114.70106 132.310663 113.647928 131.869928 112.549974 131.869928 
C 111.45202 131.869928 110.398887 132.310663 109.622517 133.095066 
C 108.846146 133.87947 108.409924 134.943498 108.409924 136.052812 
C 108.409924 137.162127 108.846146 138.226155 109.622517 139.010559 
C 110.398887 139.794962 111.45202 140.235697 112.549974 140.235697 
z
" style="fill:#ff0000;opacity:0.2;stroke:#ff0000;stroke-linejoin:miter;stroke-width:2;"/>
   </g>
   <g id="patch_34">
    <path d="M 193.970953 146.510025 
Q 154.253129 141.40891 115.587325 136.442911 
" style="fill:none;opacity:0.5;stroke:#ff0000;stroke-linecap:round;stroke-width:1.5;"/>
    <path d="M 116.884023 138.121772 
L 115.587325 136.442911 
L 117.266186 135.146213 
" style="fill:none;opacity:0.5;stroke:#ff0000;stroke-linecap:round;stroke-width:1.5;"/>
   </g>
   <g id="[&quot;g_s&quot;:2,&quot;g_t&quot;:7,&quot;coords&quot;:[[268.0, 82.5],[271.0, 118.0]],&quot;certainty&quot;:7]">
    <path clip-path="url(#pfb079f3c23)" d="M 278.151964 152.087204 
C 279.615903 152.087204 281.02008 151.499558 282.055241 150.453686 
C 283.090402 149.407815 283.672031 147.98911 283.672031 146.510025 
C 283.672031 145.030939 283.090402 143.612234 282.055241 142.566363 
C 281.02008 141.520492 279.615903 140.932845 278.151964 140.932845 
C 276.688026 140.932845 275.283849 141.520492 274.248688 142.566363 
C 273.213527 143.612234 272.631898 145.030939 272.631898 146.510025 
C 272.631898 147.98911 273.213527 149.407815 274.248688 150.453686 
C 275.283849 151.499558 276.688026 152.087204 278.151964 152.087204 
z
" style="fill:#0000ff;opacity:0.2;stroke:#0000ff;stroke-linejoin:miter;stroke-width:2;"/>
   </g>
   <g id="[&quot;g_s&quot;:7,&quot;g_t&quot;:2,&quot;coords&quot;:[[271.0, 118.0],[268.0, 82.5]],&quot;certainty&quot;:7]">
    <path clip-path="url(#pfb079f3c23)" d="M 282.292014 102.589734 
C 283.755953 102.589734 285.16013 102.002087 286.195291 100.956216 
C 287.230452 99.910344 287.812081 98.491639 287.812081 97.012554 
C 287.812081 95.533469 287.230452 94.114764 286.195291 93.068892 
C 285.16013 92.023021 283.755953 91.435374 282.292014 91.435374 
C 280.828076 91.435374 279.423899 92.023021 278.388738 93.068892 
C 277.353577 94.114764 276.771948 95.533469 276.771948 97.012554 
C 276.771948 98.491639 277.353577 99.910344 278.388738 100.956216 
C 279.423899 102.002087 280.828076 102.589734 282.292014 102.589734 
z
" style="fill:#ff0000;opacity:0.2;stroke:#ff0000;stroke-linejoin:miter;stroke-width:2;"/>
   </g>
   <g id="patch_35">
    <path d="M 278.151964 146.510025 
Q 280.138728 122.756737 282.007617 100.412742 
" style="fill:none;opacity:0.5;stroke:#ff0000;stroke-linecap:round;stroke-width:2;"/>
    <path d="M 280.387811 101.782497 
L 282.007617 100.412742 
L 283.377371 102.032548 
" style="fill:none;opacity:0.5;stroke:#ff0000;stroke-linecap:round;stroke-width:2;"/>
   </g>
   <g id="[&quot;g_s&quot;:3,&quot;g_t&quot;:8,&quot;coords&quot;:[[348.0, 123.5],[342.0, 165.0]],&quot;certainty&quot;:5]">
    <path clip-path="url(#pfb079f3c23)" d="M 388.553292 93.526817 
C 389.651246 93.526817 390.704378 93.086082 391.480749 92.301678 
C 392.25712 91.517275 392.693341 90.453246 392.693341 89.343932 
C 392.693341 88.234618 392.25712 87.170589 391.480749 86.386186 
C 390.704378 85.601782 389.651246 85.161047 388.553292 85.161047 
C 387.455338 85.161047 386.402205 85.601782 385.625834 86.386186 
C 384.849464 87.170589 384.413242 88.234618 384.413242 89.343932 
C 384.413242 90.453246 384.849464 91.517275 385.625834 92.301678 
C 386.402205 93.086082 387.455338 93.526817 388.553292 93.526817 
z
" style="fill:#0000ff;opacity:0.2;stroke:#0000ff;stroke-linejoin:miter;stroke-width:2;"/>
   </g>
   <g id="[&quot;g_s&quot;:8,&quot;g_t&quot;:3,&quot;coords&quot;:[[342.0, 165.0],[348.0, 123.5]],&quot;certainty&quot;:5]">
    <path clip-path="url(#pfb079f3c23)" d="M 380.273192 35.663576 
C 381.371146 35.663576 382.424279 35.222841 383.200649 34.438438 
C 383.97702 33.654034 384.413242 32.590006 384.413242 31.480692 
C 384.413242 30.371378 383.97702 29.307349 383.200649 28.522945 
C 382.424279 27.738542 381.371146 27.297807 380.273192 27.297807 
C 379.175238 27.297807 378.122106 27.738542 377.345735 28.522945 
C 376.569364 29.307349 376.133142 30.371378 376.133142 31.480692 
C 376.133142 32.590006 376.569364 33.654034 377.345735 34.438438 
C 378.122106 35.222841 379.175238 35.663576 380.273192 35.663576 
z
" style="fill:#ff0000;opacity:0.2;stroke:#ff0000;stroke-linejoin:miter;stroke-width:2;"/>
   </g>
   <g id="patch_36">
    <path d="M 388.553292 89.343932 
Q 384.555 61.402951 380.706956 34.511935 
" style="fill:none;opacity:0.5;stroke:#ff0000;stroke-linecap:round;stroke-width:1.5;"/>
    <path d="M 379.434564 36.209292 
L 380.706956 34.511935 
L 382.404313 35.784327 
" style="fill:none;opacity:0.5;stroke:#ff0000;stroke-linecap:round;stroke-width:1.5;"/>
   </g>
   <g id="[&quot;g_s&quot;:4,&quot;g_t&quot;:9,&quot;coords&quot;:[[365.0, 118.5],[375.0, 160.0]],&quot;certainty&quot;:5]">
    <path clip-path="url(#pfb079f3c23)" d="M 412.013574 100.498291 
C 413.111528 100.498291 414.16466 100.057556 414.941031 99.273153 
C 415.717402 98.488749 416.153623 97.424721 416.153623 96.315407 
C 416.153623 95.206093 415.717402 94.142064 414.941031 93.35766 
C 414.16466 92.573257 413.111528 92.132522 412.013574 92.132522 
C 410.91562 92.132522 409.862487 92.573257 409.086116 93.35766 
C 408.309746 94.142064 407.873524 95.206093 407.873524 96.315407 
C 407.873524 97.424721 408.309746 98.488749 409.086116 99.273153 
C 409.862487 100.057556 410.91562 100.498291 412.013574 100.498291 
z
" style="fill:#0000ff;opacity:0.2;stroke:#0000ff;stroke-linejoin:miter;stroke-width:2;"/>
   </g>
   <g id="[&quot;g_s&quot;:9,&quot;g_t&quot;:4,&quot;coords&quot;:[[375.0, 160.0],[365.0, 118.5]],&quot;certainty&quot;:5]">
    <path clip-path="url(#pfb079f3c23)" d="M 425.81374 42.635051 
C 426.911694 42.635051 427.964826 42.194316 428.741197 41.409913 
C 429.517568 40.625509 429.953789 39.56148 429.953789 38.452166 
C 429.953789 37.342852 429.517568 36.278824 428.741197 35.49442 
C 427.964826 34.710017 426.911694 34.269282 425.81374 34.269282 
C 424.715786 34.269282 423.662653 34.710017 422.886282 35.49442 
C 422.109912 36.278824 421.67369 37.342852 421.67369 38.452166 
C 421.67369 39.56148 422.109912 40.625509 422.886282 41.409913 
C 423.662653 42.194316 424.715786 42.635051 425.81374 42.635051 
z
" style="fill:#ff0000;opacity:0.2;stroke:#ff0000;stroke-linejoin:miter;stroke-width:2;"/>
   </g>
   <g id="patch_37">
    <path d="M 412.013574 96.315407 
Q 418.681604 68.356768 425.103573 41.429852 
" style="fill:none;opacity:0.5;stroke:#ff0000;stroke-linecap:round;stroke-width:1.5;"/>
    <path d="M 423.296511 42.540945 
L 425.103573 41.429852 
L 426.214666 43.236914 
" style="fill:none;opacity:0.5;stroke:#ff0000;stroke-linecap:round;stroke-width:1.5;"/>
   </g>
   <g id="[&quot;g_s&quot;:5,&quot;g_t&quot;:10,&quot;coords&quot;:[[326.0, 40.5],[340.0, 74.0]],&quot;certainty&quot;:11]">
    <path clip-path="url(#pfb079f3c23)" d="M 358.192927 213.436182 
C 360.388835 213.436182 362.4951 212.554712 364.047841 210.985905 
C 365.600583 209.417098 366.473026 207.28904 366.473026 205.070412 
C 366.473026 202.851784 365.600583 200.723727 364.047841 199.15492 
C 362.4951 197.586113 360.388835 196.704643 358.192927 196.704643 
C 355.997019 196.704643 353.890754 197.586113 352.338012 199.15492 
C 350.785271 200.723727 349.912827 202.851784 349.912827 205.070412 
C 349.912827 207.28904 350.785271 209.417098 352.338012 210.985905 
C 353.890754 212.554712 355.997019 213.436182 358.192927 213.436182 
z
" style="fill:#0000ff;opacity:0.2;stroke:#0000ff;stroke-linejoin:miter;stroke-width:2;"/>
   </g>
   <g id="[&quot;g_s&quot;:10,&quot;g_t&quot;:5,&quot;coords&quot;:[[340.0, 74.0],[326.0, 40.5]],&quot;certainty&quot;:11]">
    <path clip-path="url(#pfb079f3c23)" d="M 377.513159 166.727301 
C 379.709067 166.727301 381.815332 165.845831 383.368073 164.277024 
C 384.920815 162.708217 385.793258 160.58016 385.793258 158.361532 
C 385.793258 156.142904 384.920815 154.014846 383.368073 152.446039 
C 381.815332 150.877232 379.709067 149.995762 377.513159 149.995762 
C 375.317251 149.995762 373.210986 150.877232 371.658244 152.446039 
C 370.105503 154.014846 369.233059 156.142904 369.233059 158.361532 
C 369.233059 160.58016 370.105503 162.708217 371.658244 164.277024 
C 373.210986 165.845831 375.317251 166.727301 377.513159 166.727301 
z
" style="fill:#ff0000;opacity:0.2;stroke:#ff0000;stroke-linejoin:miter;stroke-width:2;"/>
   </g>
   <g id="patch_38">
    <path d="M 358.192927 205.070412 
Q 367.470388 182.641084 375.93703 162.172003 
" style="fill:none;opacity:0.5;stroke:#ff0000;stroke-linecap:round;stroke-width:3;"/>
    <path d="M 373.97759 162.984772 
L 375.93703 162.172003 
L 376.7498 164.131444 
" style="fill:none;opacity:0.5;stroke:#ff0000;stroke-linecap:round;stroke-width:3;"/>
   </g>
   <g id="[&quot;g_s&quot;:6,&quot;g_t&quot;:1,&quot;coords&quot;:[[275.0, 24.5],[277.0, 46.0]],&quot;certainty&quot;:4]">
    <path clip-path="url(#pfb079f3c23)" d="M 287.812081 230.864869 
C 288.727042 230.864869 289.604653 230.497589 290.251628 229.84392 
C 290.898604 229.19025 291.262122 228.30356 291.262122 227.379131 
C 291.262122 226.454703 290.898604 225.568012 290.251628 224.914343 
C 289.604653 224.260673 288.727042 223.893394 287.812081 223.893394 
C 286.897119 223.893394 286.019509 224.260673 285.372533 224.914343 
C 284.725557 225.568012 284.362039 226.454703 284.362039 227.379131 
C 284.362039 228.30356 284.725557 229.19025 285.372533 229.84392 
C 286.019509 230.497589 286.897119 230.864869 287.812081 230.864869 
z
" style="fill:#0000ff;opacity:0.2;stroke:#0000ff;stroke-linejoin:miter;stroke-width:2;"/>
   </g>
   <g id="[&quot;g_s&quot;:1,&quot;g_t&quot;:6,&quot;coords&quot;:[[277.0, 46.0],[275.0, 24.5]],&quot;certainty&quot;:4]">
    <path clip-path="url(#pfb079f3c23)" d="M 290.572114 200.887527 
C 291.487075 200.887527 292.364686 200.520248 293.011662 199.866579 
C 293.658637 199.212909 294.022155 198.326218 294.022155 197.40179 
C 294.022155 196.477362 293.658637 195.590671 293.011662 194.937002 
C 292.364686 194.283332 291.487075 193.916053 290.572114 193.916053 
C 289.657152 193.916053 288.779542 194.283332 288.132566 194.937002 
C 287.48559 195.590671 287.122072 196.477362 287.122072 197.40179 
C 287.122072 198.326218 287.48559 199.212909 288.132566 199.866579 
C 288.779542 200.520248 289.657152 200.887527 290.572114 200.887527 
z
" style="fill:#ff0000;opacity:0.2;stroke:#ff0000;stroke-linejoin:miter;stroke-width:2;"/>
   </g>
   <g id="patch_39">
    <path d="M 287.812081 227.379131 
Q 289.100287 213.387632 290.307456 200.276293 
" style="fill:none;opacity:0.5;stroke:#ff0000;stroke-linecap:round;stroke-width:1.25;"/>
    <path d="M 288.67625 201.632451 
L 290.307456 200.276293 
L 291.663615 201.9075 
" style="fill:none;opacity:0.5;stroke:#ff0000;stroke-linecap:round;stroke-width:1.25;"/>
   </g>
   <g id="[&quot;g_s&quot;:7,&quot;g_t&quot;:2,&quot;coords&quot;:[[219.0, 24.5],[228.0, 46.0]],&quot;certainty&quot;:4]">
    <path clip-path="url(#pfb079f3c23)" d="M 210.531152 230.864869 
C 211.446113 230.864869 212.323724 230.497589 212.970699 229.84392 
C 213.617675 229.19025 213.981193 228.30356 213.981193 227.379131 
C 213.981193 226.454703 213.617675 225.568012 212.970699 224.914343 
C 212.323724 224.260673 211.446113 223.893394 210.531152 223.893394 
C 209.61619 223.893394 208.73858 224.260673 208.091604 224.914343 
C 207.444628 225.568012 207.08111 226.454703 207.08111 227.379131 
C 207.08111 228.30356 207.444628 229.19025 208.091604 229.84392 
C 208.73858 230.497589 209.61619 230.864869 210.531152 230.864869 
z
" style="fill:#0000ff;opacity:0.2;stroke:#0000ff;stroke-linejoin:miter;stroke-width:2;"/>
   </g>
   <g id="[&quot;g_s&quot;:2,&quot;g_t&quot;:7,&quot;coords&quot;:[[228.0, 46.0],[219.0, 24.5]],&quot;certainty&quot;:4]">
    <path clip-path="url(#pfb079f3c23)" d="M 222.951301 200.887527 
C 223.866263 200.887527 224.743873 200.520248 225.390849 199.866579 
C 226.037824 199.212909 226.401342 198.326218 226.401342 197.40179 
C 226.401342 196.477362 226.037824 195.590671 225.390849 194.937002 
C 224.743873 194.283332 223.866263 193.916053 222.951301 193.916053 
C 222.036339 193.916053 221.158729 194.283332 220.511753 194.937002 
C 219.864778 195.590671 219.501259 196.477362 219.501259 197.40179 
C 219.501259 198.326218 219.864778 199.212909 220.511753 199.866579 
C 221.158729 200.520248 222.036339 200.887527 222.951301 200.887527 
z
" style="fill:#ff0000;opacity:0.2;stroke:#ff0000;stroke-linejoin:miter;stroke-width:2;"/>
   </g>
   <g id="patch_40">
    <path d="M 210.531152 227.379131 
Q 216.358403 213.314445 221.847334 200.06633 
" style="fill:none;opacity:0.5;stroke:#ff0000;stroke-linecap:round;stroke-width:1.25;"/>
    <path d="M 219.887417 200.87795 
L 221.847334 200.06633 
L 222.658954 202.026247 
" style="fill:none;opacity:0.5;stroke:#ff0000;stroke-linecap:round;stroke-width:1.25;"/>
   </g>
   <g id="[&quot;g_s&quot;:8,&quot;g_t&quot;:3,&quot;coords&quot;:[[135.0, -28.5],[138.0, -8.0]],&quot;certainty&quot;:5]">
    <path clip-path="url(#pfb079f3c23)" d="M 94.609758 305.459648 
C 95.707712 305.459648 96.760845 305.018913 97.537215 304.23451 
C 98.313586 303.450106 98.749808 302.386077 98.749808 301.276763 
C 98.749808 300.167449 98.313586 299.103421 97.537215 298.319017 
C 96.760845 297.534614 95.707712 297.093879 94.609758 297.093879 
C 93.511804 297.093879 92.458672 297.534614 91.682301 298.319017 
C 90.90593 299.103421 90.469708 300.167449 90.469708 301.276763 
C 90.469708 302.386077 90.90593 303.450106 91.682301 304.23451 
C 92.458672 305.018913 93.511804 305.459648 94.609758 305.459648 
z
" style="fill:#0000ff;opacity:0.2;stroke:#0000ff;stroke-linejoin:miter;stroke-width:2;"/>
   </g>
   <g id="[&quot;g_s&quot;:3,&quot;g_t&quot;:8,&quot;coords&quot;:[[138.0, -8.0],[135.0, -28.5]],&quot;certainty&quot;:5]">
    <path clip-path="url(#pfb079f3c23)" d="M 98.749808 276.876602 
C 99.847762 276.876602 100.900894 276.435867 101.677265 275.651463 
C 102.453636 274.86706 102.889858 273.803031 102.889858 272.693717 
C 102.889858 271.584403 102.453636 270.520374 101.677265 269.735971 
C 100.900894 268.951567 99.847762 268.510832 98.749808 268.510832 
C 97.651854 268.510832 96.598721 268.951567 95.822351 269.735971 
C 95.04598 270.520374 94.609758 271.584403 94.609758 272.693717 
C 94.609758 273.803031 95.04598 274.86706 95.822351 275.651463 
C 96.598721 276.435867 97.651854 276.876602 98.749808 276.876602 
z
" style="fill:#ff0000;opacity:0.2;stroke:#ff0000;stroke-linejoin:miter;stroke-width:2;"/>
   </g>
   <g id="patch_41">
    <path d="M 94.609758 301.276763 
Q 96.536509 287.974412 98.311217 275.721766 
" style="fill:none;opacity:0.5;stroke:#ff0000;stroke-linecap:round;stroke-width:1.5;"/>
    <path d="M 96.611687 276.991255 
L 98.311217 275.721766 
L 99.580705 277.421296 
" style="fill:none;opacity:0.5;stroke:#ff0000;stroke-linecap:round;stroke-width:1.5;"/>
   </g>
   <g id="[&quot;g_s&quot;:9,&quot;g_t&quot;:4,&quot;coords&quot;:[[115.0, -24.5],[105.0, -2.0]],&quot;certainty&quot;:5]">
    <path clip-path="url(#pfb079f3c23)" d="M 67.009426 299.882468 
C 68.10738 299.882468 69.160513 299.441733 69.936884 298.65733 
C 70.713254 297.872926 71.149476 296.808898 71.149476 295.699584 
C 71.149476 294.59027 70.713254 293.526241 69.936884 292.741837 
C 69.160513 291.957434 68.10738 291.516699 67.009426 291.516699 
C 65.911472 291.516699 64.85834 291.957434 64.081969 292.741837 
C 63.305598 293.526241 62.869377 294.59027 62.869377 295.699584 
C 62.869377 296.808898 63.305598 297.872926 64.081969 298.65733 
C 64.85834 299.441733 65.911472 299.882468 67.009426 299.882468 
z
" style="fill:#0000ff;opacity:0.2;stroke:#0000ff;stroke-linejoin:miter;stroke-width:2;"/>
   </g>
   <g id="[&quot;g_s&quot;:4,&quot;g_t&quot;:9,&quot;coords&quot;:[[105.0, -2.0],[115.0, -24.5]],&quot;certainty&quot;:5]">
    <path clip-path="url(#pfb079f3c23)" d="M 53.20926 268.510832 
C 54.307214 268.510832 55.360347 268.070097 56.136718 267.285694 
C 56.913088 266.50129 57.34931 265.437261 57.34931 264.327947 
C 57.34931 263.218633 56.913088 262.154605 56.136718 261.370201 
C 55.360347 260.585798 54.307214 260.145063 53.20926 260.145063 
C 52.111306 260.145063 51.058174 260.585798 50.281803 261.370201 
C 49.505432 262.154605 49.069211 263.218633 49.069211 264.327947 
C 49.069211 265.437261 49.505432 266.50129 50.281803 267.285694 
C 51.058174 268.070097 52.111306 268.510832 53.20926 268.510832 
z
" style="fill:#ff0000;opacity:0.2;stroke:#ff0000;stroke-linejoin:miter;stroke-width:2;"/>
   </g>
   <g id="patch_42">
    <path d="M 67.009426 295.699584 
Q 60.512803 280.930942 54.443261 267.133176 
" style="fill:none;opacity:0.5;stroke:#ff0000;stroke-linecap:round;stroke-width:1.5;"/>
    <path d="M 53.674219 269.110188 
L 54.443261 267.133176 
L 56.420273 267.902218 
" style="fill:none;opacity:0.5;stroke:#ff0000;stroke-linecap:round;stroke-width:1.5;"/>
   </g>
   <g id="[&quot;g_s&quot;:10,&quot;g_t&quot;:5,&quot;coords&quot;:[[154.0, 59.5],[148.0, 90.0]],&quot;certainty&quot;:11]">
    <path clip-path="url(#pfb079f3c23)" d="M 120.830073 186.944578 
C 123.025981 186.944578 125.132246 186.063108 126.684988 184.494301 
C 128.237729 182.925494 129.110173 180.797436 129.110173 178.578808 
C 129.110173 176.36018 128.237729 174.232123 126.684988 172.663316 
C 125.132246 171.094509 123.025981 170.213039 120.830073 170.213039 
C 118.634165 170.213039 116.5279 171.094509 114.975159 172.663316 
C 113.422417 174.232123 112.549974 176.36018 112.549974 178.578808 
C 112.549974 180.797436 113.422417 182.925494 114.975159 184.494301 
C 116.5279 186.063108 118.634165 186.944578 120.830073 186.944578 
z
" style="fill:#0000ff;opacity:0.2;stroke:#0000ff;stroke-linejoin:miter;stroke-width:2;"/>
   </g>
   <g id="[&quot;g_s&quot;:5,&quot;g_t&quot;:10,&quot;coords&quot;:[[148.0, 90.0],[154.0, 59.5]],&quot;certainty&quot;:11]">
    <path clip-path="url(#pfb079f3c23)" d="M 112.549974 144.418582 
C 114.745882 144.418582 116.852147 143.537112 118.404888 141.968305 
C 119.95763 140.399498 120.830073 138.271441 120.830073 136.052812 
C 120.830073 133.834184 119.95763 131.706127 118.404888 130.13732 
C 116.852147 128.568513 114.745882 127.687043 112.549974 127.687043 
C 110.354066 127.687043 108.247801 128.568513 106.695059 130.13732 
C 105.142318 131.706127 104.269874 133.834184 104.269874 136.052812 
C 104.269874 138.271441 105.142318 140.399498 106.695059 141.968305 
C 108.247801 143.537112 110.354066 144.418582 112.549974 144.418582 
z
" style="fill:#ff0000;opacity:0.2;stroke:#ff0000;stroke-linejoin:miter;stroke-width:2;"/>
   </g>
   <g id="patch_43">
    <path d="M 120.830073 178.578808 
Q 116.881309 158.298238 113.337966 140.099885 
" style="fill:none;opacity:0.5;stroke:#ff0000;stroke-linecap:round;stroke-width:3;"/>
    <path d="M 112.152292 141.858913 
L 113.337966 140.099885 
L 115.096994 141.285559 
" style="fill:none;opacity:0.5;stroke:#ff0000;stroke-linecap:round;stroke-width:3;"/>
   </g>
   <g id="patch_44">
    <path clip-path="url(#pfb079f3c23)" d="M 289.192097 219.361935 
C 291.022021 219.361935 292.777241 218.627377 294.071193 217.320038 
C 295.365144 216.012699 296.09218 214.239317 296.09218 212.390461 
C 296.09218 210.541604 295.365144 208.768223 294.071193 207.460884 
C 292.777241 206.153545 291.022021 205.418986 289.192097 205.418986 
C 287.362174 205.418986 285.606953 206.153545 284.313002 207.460884 
C 283.019051 208.768223 282.292014 210.541604 282.292014 212.390461 
C 282.292014 214.239317 283.019051 216.012699 284.313002 217.320038 
C 285.606953 218.627377 287.362174 219.361935 289.192097 219.361935 
z
" style="fill:#008000;opacity:0.2;stroke:#008000;stroke-linejoin:miter;stroke-width:2;"/>
   </g>
   <g id="patch_45">
    <path clip-path="url(#pfb079f3c23)" d="M 216.741226 219.361935 
C 218.57115 219.361935 220.32637 218.627377 221.620322 217.320038 
C 222.914273 216.012699 223.641309 214.239317 223.641309 212.390461 
C 223.641309 210.541604 222.914273 208.768223 221.620322 207.460884 
C 220.32637 206.153545 218.57115 205.418986 216.741226 205.418986 
C 214.911303 205.418986 213.156082 206.153545 211.862131 207.460884 
C 210.56818 208.768223 209.841143 210.541604 209.841143 212.390461 
C 209.841143 214.239317 210.56818 216.012699 211.862131 217.320038 
C 213.156082 218.627377 214.911303 219.361935 216.741226 219.361935 
z
" style="fill:#008000;opacity:0.2;stroke:#008000;stroke-linejoin:miter;stroke-width:2;"/>
   </g>
   <g id="patch_46">
    <path clip-path="url(#pfb079f3c23)" d="M 96.679783 293.956715 
C 98.509706 293.956715 100.264927 293.222156 101.558878 291.914817 
C 102.85283 290.607478 103.579866 288.834097 103.579866 286.98524 
C 103.579866 285.136384 102.85283 283.363002 101.558878 282.055663 
C 100.264927 280.748324 98.509706 280.013766 96.679783 280.013766 
C 94.84986 280.013766 93.094639 280.748324 91.800688 282.055663 
C 90.506736 283.363002 89.7797 285.136384 89.7797 286.98524 
C 89.7797 288.834097 90.506736 290.607478 91.800688 291.914817 
C 93.094639 293.222156 94.84986 293.956715 96.679783 293.956715 
z
" style="fill:#008000;opacity:0.2;stroke:#008000;stroke-linejoin:miter;stroke-width:2;"/>
   </g>
   <g id="patch_47">
    <path clip-path="url(#pfb079f3c23)" d="M 60.109343 286.98524 
C 61.939267 286.98524 63.694488 286.250682 64.988439 284.943343 
C 66.28239 283.636003 67.009426 281.862622 67.009426 280.013766 
C 67.009426 278.164909 66.28239 276.391528 64.988439 275.084188 
C 63.694488 273.776849 61.939267 273.042291 60.109343 273.042291 
C 58.27942 273.042291 56.524199 273.776849 55.230248 275.084188 
C 53.936297 276.391528 53.20926 278.164909 53.20926 280.013766 
C 53.20926 281.862622 53.936297 283.636003 55.230248 284.943343 
C 56.524199 286.250682 58.27942 286.98524 60.109343 286.98524 
z
" style="fill:#008000;opacity:0.2;stroke:#008000;stroke-linejoin:miter;stroke-width:2;"/>
   </g>
   <g id="patch_48">
    <path clip-path="url(#pfb079f3c23)" d="M 116.690024 164.287285 
C 118.519947 164.287285 120.275168 163.552727 121.569119 162.245387 
C 122.86307 160.938048 123.590107 159.164667 123.590107 157.31581 
C 123.590107 155.466954 122.86307 153.693572 121.569119 152.386233 
C 120.275168 151.078894 118.519947 150.344336 116.690024 150.344336 
C 114.8601 150.344336 113.104879 151.078894 111.810928 152.386233 
C 110.516977 153.693572 109.789941 155.466954 109.789941 157.31581 
C 109.789941 159.164667 110.516977 160.938048 111.810928 162.245387 
C 113.104879 163.552727 114.8601 164.287285 116.690024 164.287285 
z
" style="fill:#008000;opacity:0.2;stroke:#008000;stroke-linejoin:miter;stroke-width:2;"/>
   </g>
   <g id="patch_49">
    <path clip-path="url(#pfb079f3c23)" d="M 280.221989 128.732764 
C 282.051913 128.732764 283.807134 127.998205 285.101085 126.690866 
C 286.395036 125.383527 287.122072 123.610146 287.122072 121.761289 
C 287.122072 119.912433 286.395036 118.139051 285.101085 116.831712 
C 283.807134 115.524373 282.051913 114.789815 280.221989 114.789815 
C 278.392066 114.789815 276.636845 115.524373 275.342894 116.831712 
C 274.048943 118.139051 273.321906 119.912433 273.321906 121.761289 
C 273.321906 123.610146 274.048943 125.383527 275.342894 126.690866 
C 276.636845 127.998205 278.392066 128.732764 280.221989 128.732764 
z
" style="fill:#008000;opacity:0.2;stroke:#008000;stroke-linejoin:miter;stroke-width:2;"/>
   </g>
   <g id="patch_50">
    <path clip-path="url(#pfb079f3c23)" d="M 384.413242 67.383786 
C 386.243165 67.383786 387.998386 66.649228 389.292337 65.341889 
C 390.586289 64.03455 391.313325 62.261168 391.313325 60.412312 
C 391.313325 58.563455 390.586289 56.790074 389.292337 55.482735 
C 387.998386 54.175396 386.243165 53.440837 384.413242 53.440837 
C 382.583318 53.440837 380.828098 54.175396 379.534146 55.482735 
C 378.240195 56.790074 377.513159 58.563455 377.513159 60.412312 
C 377.513159 62.261168 378.240195 64.03455 379.534146 65.341889 
C 380.828098 66.649228 382.583318 67.383786 384.413242 67.383786 
z
" style="fill:#008000;opacity:0.2;stroke:#008000;stroke-linejoin:miter;stroke-width:2;"/>
   </g>
   <g id="patch_51">
    <path clip-path="url(#pfb079f3c23)" d="M 418.913657 74.355261 
C 420.74358 74.355261 422.498801 73.620703 423.792752 72.313364 
C 425.086703 71.006024 425.81374 69.232643 425.81374 67.383786 
C 425.81374 65.53493 425.086703 63.761549 423.792752 62.454209 
C 422.498801 61.14687 420.74358 60.412312 418.913657 60.412312 
C 417.083733 60.412312 415.328512 61.14687 414.034561 62.454209 
C 412.74061 63.761549 412.013574 65.53493 412.013574 67.383786 
C 412.013574 69.232643 412.74061 71.006024 414.034561 72.313364 
C 415.328512 73.620703 417.083733 74.355261 418.913657 74.355261 
z
" style="fill:#008000;opacity:0.2;stroke:#008000;stroke-linejoin:miter;stroke-width:2;"/>
   </g>
   <g id="patch_52">
    <path clip-path="url(#pfb079f3c23)" d="M 367.853043 188.687447 
C 369.682966 188.687447 371.438187 187.952888 372.732138 186.645549 
C 374.026089 185.33821 374.753126 183.564829 374.753126 181.715972 
C 374.753126 179.867115 374.026089 178.093734 372.732138 176.786395 
C 371.438187 175.479056 369.682966 174.744497 367.853043 174.744497 
C 366.023119 174.744497 364.267899 175.479056 362.973947 176.786395 
C 361.679996 178.093734 360.95296 179.867115 360.95296 181.715972 
C 360.95296 183.564829 361.679996 185.33821 362.973947 186.645549 
C 364.267899 187.952888 366.023119 188.687447 367.853043 188.687447 
z
" style="fill:#008000;opacity:0.2;stroke:#008000;stroke-linejoin:miter;stroke-width:2;"/>
   </g>
   <g id="patch_53">
    <path clip-path="url(#pfb079f3c23)" d="M 290.572114 225.287689 
C 297.891807 225.287689 304.912691 222.349455 310.088496 217.120098 
C 315.264301 211.890742 318.172446 204.797217 318.172446 197.40179 
C 318.172446 190.006363 315.264301 182.912838 310.088496 177.683482 
C 304.912691 172.454125 297.891807 169.515891 290.572114 169.515891 
C 283.25242 169.515891 276.231537 172.454125 271.055732 177.683482 
C 265.879927 182.912838 262.971782 190.006363 262.971782 197.40179 
C 262.971782 204.797217 265.879927 211.890742 271.055732 217.120098 
C 276.231537 222.349455 283.25242 225.287689 290.572114 225.287689 
z
" style="fill:none;opacity:0.2;stroke:#ff0000;stroke-linejoin:miter;stroke-width:2;"/>
   </g>
   <g id="patch_54">
    <path clip-path="url(#pfb079f3c23)" d="M 193.970953 174.395923 
C 201.290646 174.395923 208.311529 171.457689 213.487334 166.228333 
C 218.663139 160.998976 221.571284 153.905451 221.571284 146.510025 
C 221.571284 139.114598 218.663139 132.021073 213.487334 126.791716 
C 208.311529 121.56236 201.290646 118.624126 193.970953 118.624126 
C 186.651259 118.624126 179.630376 121.56236 174.454571 126.791716 
C 169.278766 132.021073 166.370621 139.114598 166.370621 146.510025 
C 166.370621 153.905451 169.278766 160.998976 174.454571 166.228333 
C 179.630376 171.457689 186.651259 174.395923 193.970953 174.395923 
z
" style="fill:none;opacity:0.2;stroke:#0000ff;stroke-linejoin:miter;stroke-width:2;"/>
   </g>
   <g id="patch_55">
    <path clip-path="url(#pfb079f3c23)" d="M 290.572114 211.344739 
C 294.231961 211.344739 297.742402 209.875622 300.330305 207.260944 
C 302.918207 204.646266 304.37228 201.099503 304.37228 197.40179 
C 304.37228 193.704077 302.918207 190.157314 300.330305 187.542636 
C 297.742402 184.927958 294.231961 183.458841 290.572114 183.458841 
C 286.912267 183.458841 283.401825 184.927958 280.813923 187.542636 
C 278.22602 190.157314 276.771948 193.704077 276.771948 197.40179 
C 276.771948 201.099503 278.22602 204.646266 280.813923 207.260944 
C 283.401825 209.875622 286.912267 211.344739 290.572114 211.344739 
z
" style="fill:none;opacity:0.2;stroke:#008000;stroke-linejoin:miter;stroke-width:2;"/>
   </g>
   <g id="patch_56">
    <path clip-path="url(#pfb079f3c23)" d="M 287.812081 241.322081 
C 291.471927 241.322081 294.982369 239.852964 297.570272 237.238285 
C 300.158174 234.623607 301.612247 231.076845 301.612247 227.379131 
C 301.612247 223.681418 300.158174 220.134655 297.570272 217.519977 
C 294.982369 214.905299 291.471927 213.436182 287.812081 213.436182 
C 284.152234 213.436182 280.641792 214.905299 278.05389 217.519977 
C 275.465987 220.134655 274.011915 223.681418 274.011915 227.379131 
C 274.011915 231.076845 275.465987 234.623607 278.05389 237.238285 
C 280.641792 239.852964 284.152234 241.322081 287.812081 241.322081 
z
" style="fill:none;opacity:0.2;stroke:#008000;stroke-linejoin:miter;stroke-width:2;"/>
   </g>
   <g id="patch_57">
    <path d="M 289.192097 212.390461 
Q 252.966662 212.390461 216.741226 212.390461 
" style="fill:none;opacity:0.5;stroke:#008000;stroke-linecap:round;stroke-width:2;"/>
   </g>
   <g id="patch_58">
    <path d="M 290.442455 198.810047 
Q 289.283907 211.39329 288.12536 223.976532 
" style="fill:none;opacity:0.5;stroke:#800080;stroke-linecap:round;stroke-width:2;"/>
    <path d="M 288.811248 200.166205 
L 290.442455 198.810047 
L 291.798613 200.441254 
" style="fill:none;opacity:0.5;stroke:#800080;stroke-linecap:round;stroke-width:2;"/>
    <path d="M 289.756567 222.620374 
L 288.12536 223.976532 
L 286.769202 222.345325 
" style="fill:none;opacity:0.5;stroke:#800080;stroke-linecap:round;stroke-width:2;"/>
   </g>
   <g id="patch_59">
    <path d="M 216.741226 212.390461 
Q 156.710505 249.68785 96.679783 286.98524 
" style="fill:none;opacity:0.5;stroke:#008000;stroke-linecap:round;stroke-width:2;"/>
   </g>
   <g id="patch_60">
    <path d="M 222.409988 198.708305 
Q 217.124049 211.466476 211.83811 224.224648 
" style="fill:none;opacity:0.5;stroke:#800080;stroke-linecap:round;stroke-width:2;"/>
    <path d="M 220.450072 199.519924 
L 222.409988 198.708305 
L 223.221608 200.668222 
" style="fill:none;opacity:0.5;stroke:#800080;stroke-linecap:round;stroke-width:2;"/>
    <path d="M 213.798027 223.413029 
L 211.83811 224.224648 
L 211.026491 222.264731 
" style="fill:none;opacity:0.5;stroke:#800080;stroke-linecap:round;stroke-width:2;"/>
   </g>
   <g id="patch_61">
    <path d="M 96.679783 286.98524 
Q 78.394563 283.499503 60.109343 280.013766 
" style="fill:none;opacity:0.5;stroke:#008000;stroke-linecap:round;stroke-width:2;"/>
   </g>
   <g id="patch_62">
    <path d="M 98.547085 274.093325 
Q 96.823057 285.996069 95.09903 297.898812 
" style="fill:none;opacity:0.5;stroke:#800080;stroke-linecap:round;stroke-width:2;"/>
    <path d="M 96.847555 275.362814 
L 98.547085 274.093325 
L 99.816573 275.792855 
" style="fill:none;opacity:0.5;stroke:#800080;stroke-linecap:round;stroke-width:2;"/>
    <path d="M 96.798559 296.629324 
L 95.09903 297.898812 
L 93.829542 296.199283 
" style="fill:none;opacity:0.5;stroke:#800080;stroke-linecap:round;stroke-width:2;"/>
   </g>
   <g id="patch_63">
    <path d="M 60.109343 280.013766 
Q 88.399683 218.664788 116.690024 157.31581 
" style="fill:none;opacity:0.5;stroke:#008000;stroke-linecap:round;stroke-width:2;"/>
   </g>
   <g id="patch_64">
    <path d="M 53.778703 265.622449 
Q 59.705884 279.096589 65.633065 292.570729 
" style="fill:none;opacity:0.5;stroke:#800080;stroke-linecap:round;stroke-width:2;"/>
    <path d="M 53.009661 267.599461 
L 53.778703 265.622449 
L 55.755714 266.391491 
" style="fill:none;opacity:0.5;stroke:#800080;stroke-linecap:round;stroke-width:2;"/>
    <path d="M 66.402107 290.593718 
L 65.633065 292.570729 
L 63.656053 291.801688 
" style="fill:none;opacity:0.5;stroke:#800080;stroke-linecap:round;stroke-width:2;"/>
   </g>
   <g id="patch_65">
    <path d="M 116.690024 157.31581 
Q 198.456006 139.53855 280.221989 121.761289 
" style="fill:none;opacity:0.5;stroke:#008000;stroke-linecap:round;stroke-width:2;"/>
   </g>
   <g id="patch_66">
    <path d="M 112.820255 137.440958 
Q 116.498738 156.333383 120.177221 175.225808 
" style="fill:none;opacity:0.5;stroke:#800080;stroke-linecap:round;stroke-width:2;"/>
    <path d="M 111.634581 139.199985 
L 112.820255 137.440958 
L 114.579282 138.626632 
" style="fill:none;opacity:0.5;stroke:#800080;stroke-linecap:round;stroke-width:2;"/>
    <path d="M 121.362895 173.466781 
L 120.177221 175.225808 
L 118.418194 174.040134 
" style="fill:none;opacity:0.5;stroke:#800080;stroke-linecap:round;stroke-width:2;"/>
   </g>
   <g id="patch_67">
    <path d="M 280.221989 121.761289 
Q 332.317616 91.086801 384.413242 60.412312 
" style="fill:none;opacity:0.5;stroke:#008000;stroke-linecap:round;stroke-width:2;"/>
   </g>
   <g id="patch_68">
    <path d="M 282.174139 98.421847 
Q 280.30525 120.765842 278.436362 143.109836 
" style="fill:none;opacity:0.5;stroke:#800080;stroke-linecap:round;stroke-width:2;"/>
    <path d="M 280.554332 99.791601 
L 282.174139 98.421847 
L 283.543893 100.041653 
" style="fill:none;opacity:0.5;stroke:#800080;stroke-linecap:round;stroke-width:2;"/>
    <path d="M 280.056168 141.740082 
L 278.436362 143.109836 
L 277.066607 141.49003 
" style="fill:none;opacity:0.5;stroke:#800080;stroke-linecap:round;stroke-width:2;"/>
   </g>
   <g id="patch_69">
    <path d="M 384.413242 60.412312 
Q 401.663449 63.898049 418.913657 67.383786 
" style="fill:none;opacity:0.5;stroke:#008000;stroke-linecap:round;stroke-width:2;"/>
   </g>
   <g id="patch_70">
    <path d="M 380.473522 32.880644 
Q 384.271484 59.421672 388.069445 85.9627 
" style="fill:none;opacity:0.5;stroke:#800080;stroke-linecap:round;stroke-width:2;"/>
    <path d="M 379.20113 34.578001 
L 380.473522 32.880644 
L 382.170879 34.153036 
" style="fill:none;opacity:0.5;stroke:#800080;stroke-linecap:round;stroke-width:2;"/>
    <path d="M 389.341837 84.265344 
L 388.069445 85.9627 
L 386.372089 84.690308 
" style="fill:none;opacity:0.5;stroke:#800080;stroke-linecap:round;stroke-width:2;"/>
   </g>
   <g id="patch_71">
    <path d="M 418.913657 67.383786 
Q 393.38335 124.549879 367.853043 181.715972 
" style="fill:none;opacity:0.5;stroke:#008000;stroke-linecap:round;stroke-width:2;"/>
   </g>
   <g id="patch_72">
    <path d="M 425.485657 39.827798 
Q 419.145709 66.410805 412.805761 92.993813 
" style="fill:none;opacity:0.5;stroke:#800080;stroke-linecap:round;stroke-width:2;"/>
    <path d="M 423.678595 40.938891 
L 425.485657 39.827798 
L 426.59675 41.63486 
" style="fill:none;opacity:0.5;stroke:#800080;stroke-linecap:round;stroke-width:2;"/>
    <path d="M 414.612823 91.88272 
L 412.805761 92.993813 
L 411.694668 91.186751 
" style="fill:none;opacity:0.5;stroke:#800080;stroke-linecap:round;stroke-width:2;"/>
   </g>
   <g id="patch_73">
    <path d="M 367.853043 181.715972 
Q 328.52257 197.053216 289.192097 212.390461 
" style="fill:none;opacity:0.5;stroke:#008000;stroke-linecap:round;stroke-width:2;"/>
   </g>
   <g id="patch_74">
    <path d="M 376.972613 159.668364 
Q 368.235698 180.79086 359.498782 201.913357 
" style="fill:none;opacity:0.5;stroke:#800080;stroke-linecap:round;stroke-width:2;"/>
    <path d="M 375.013173 160.481133 
L 376.972613 159.668364 
L 377.785382 161.627804 
" style="fill:none;opacity:0.5;stroke:#800080;stroke-linecap:round;stroke-width:2;"/>
    <path d="M 361.458223 201.100587 
L 359.498782 201.913357 
L 358.686013 199.953916 
" style="fill:none;opacity:0.5;stroke:#800080;stroke-linecap:round;stroke-width:2;"/>
   </g>
   <g id="line2d_1">
    <path clip-path="url(#pfb079f3c23)" d="M 290.572114 197.40179 
L 222.951301 197.40179 
L 98.749808 272.693717 
L 53.20926 264.327947 
L 112.549974 136.052812 
L 200.871036 97.012554 
L 282.292014 97.012554 
L 380.273192 31.480692 
L 425.81374 38.452166 
L 377.513159 158.361532 
" style="fill:none;stroke:#ff0000;stroke-linecap:square;stroke-width:0.2;"/>
   </g>
   <g id="line2d_2">
    <path clip-path="url(#pfb079f3c23)" d="M 193.970953 146.510025 
L 278.151964 146.510025 
L 388.553292 89.343932 
L 412.013574 96.315407 
L 358.192927 205.070412 
L 287.812081 227.379131 
L 210.531152 227.379131 
L 94.609758 301.276763 
L 67.009426 295.699584 
L 120.830073 178.578808 
" style="fill:none;stroke:#0000ff;stroke-linecap:square;stroke-width:0.2;"/>
   </g>
  </g>
 </g>
 <defs>
  <clipPath id="pfb079f3c23">
   <rect height="307.51175" width="415.937" x="31.543" y="13.32"/>
  </clipPath>
 </defs>
</svg>
