<?xml version="1.0" encoding="utf-8" standalone="no"?>
<!DOCTYPE svg PUBLIC "-//W3C//DTD SVG 1.1//EN"
  "http://www.w3.org/Graphics/SVG/1.1/DTD/svg11.dtd">
<!-- Created with matplotlib (http://matplotlib.org/) -->
<svg height="345.6pt" version="1.1" viewBox="0 0 460.8 345.6" width="460.8pt" xmlns="http://www.w3.org/2000/svg" xmlns:xlink="http://www.w3.org/1999/xlink">
 <defs>
  <style type="text/css">
*{stroke-linecap:butt;stroke-linejoin:round;}
  </style>
 </defs>
 <g id="figure_1">
  <g id="patch_1">
   <path d="M 0 345.6 
L 460.8 345.6 
L 460.8 0 
L 0 0 
z
" style="fill:#ffffff;"/>
  </g>
  <g id="axes_1">
   <g id="patch_2">
    <path clip-path="url(#p4770da848d)" d="M 297.734063 225.383298 
C 298.466101 225.383298 299.168256 225.04666 299.685885 224.447525 
C 300.203515 223.84839 300.494357 223.035675 300.494357 222.18837 
C 300.494357 221.341066 300.203515 220.528351 299.685885 219.929216 
C 299.168256 219.330081 298.466101 218.993443 297.734063 218.993443 
C 297.002024 218.993443 296.29987 219.330081 295.78224 219.929216 
C 295.264611 220.528351 294.973769 221.341066 294.973769 222.18837 
C 294.973769 223.035675 295.264611 223.84839 295.78224 224.447525 
C 296.29987 225.04666 297.002024 225.383298 297.734063 225.383298 
z
" style="fill:#ff0000;opacity:0.2;stroke:#ff0000;stroke-linejoin:miter;stroke-width:2;"/>
   </g>
   <g id="patch_3">
    <path clip-path="url(#p4770da848d)" d="M 220.445837 225.383298 
C 221.177876 225.383298 221.88003 225.04666 222.39766 224.447525 
C 222.915289 223.84839 223.206131 223.035675 223.206131 222.18837 
C 223.206131 221.341066 222.915289 220.528351 222.39766 219.929216 
C 221.88003 219.330081 221.177876 218.993443 220.445837 218.993443 
C 219.713799 218.993443 219.011644 219.330081 218.494015 219.929216 
C 217.976386 220.528351 217.685544 221.341066 217.685544 222.18837 
C 217.685544 223.035675 217.976386 223.84839 218.494015 224.447525 
C 219.011644 225.04666 219.713799 225.383298 220.445837 225.383298 
z
" style="fill:#ff0000;opacity:0.2;stroke:#ff0000;stroke-linejoin:miter;stroke-width:2;"/>
   </g>
   <g id="patch_4">
    <path clip-path="url(#p4770da848d)" d="M 101.753205 303.659016 
C 102.485244 303.659016 103.187398 303.322378 103.705028 302.723243 
C 104.222657 302.124109 104.513499 301.311393 104.513499 300.464089 
C 104.513499 299.616784 104.222657 298.804069 103.705028 298.204934 
C 103.187398 297.605799 102.485244 297.269161 101.753205 297.269161 
C 101.021167 297.269161 100.319012 297.605799 99.801383 298.204934 
C 99.283753 298.804069 98.992911 299.616784 98.992911 300.464089 
C 98.992911 301.311393 99.283753 302.124109 99.801383 302.723243 
C 100.319012 303.322378 101.021167 303.659016 101.753205 303.659016 
z
" style="fill:#ff0000;opacity:0.2;stroke:#ff0000;stroke-linejoin:miter;stroke-width:2;"/>
   </g>
   <g id="patch_5">
    <path clip-path="url(#p4770da848d)" d="M 58.968652 294.074234 
C 59.70069 294.074234 60.402845 293.737596 60.920474 293.138462 
C 61.438104 292.539327 61.728945 291.726611 61.728945 290.879307 
C 61.728945 290.032002 61.438104 289.219287 60.920474 288.620152 
C 60.402845 288.021017 59.70069 287.68438 58.968652 287.68438 
C 58.236613 287.68438 57.534459 288.021017 57.016829 288.620152 
C 56.4992 289.219287 56.208358 290.032002 56.208358 290.879307 
C 56.208358 291.726611 56.4992 292.539327 57.016829 293.138462 
C 57.534459 293.737596 58.236613 294.074234 58.968652 294.074234 
z
" style="fill:#ff0000;opacity:0.2;stroke:#ff0000;stroke-linejoin:miter;stroke-width:2;"/>
   </g>
   <g id="patch_6">
    <path clip-path="url(#p4770da848d)" d="M 115.554674 155.094898 
C 116.286712 155.094898 116.988867 154.75826 117.506496 154.159125 
C 118.024126 153.55999 118.314968 152.747275 118.314968 151.89997 
C 118.314968 151.052666 118.024126 150.239951 117.506496 149.640816 
C 116.988867 149.041681 116.286712 148.705043 115.554674 148.705043 
C 114.822636 148.705043 114.120481 149.041681 113.602852 149.640816 
C 113.085222 150.239951 112.79438 151.052666 112.79438 151.89997 
C 112.79438 152.747275 113.085222 153.55999 113.602852 154.159125 
C 114.120481 154.75826 114.822636 155.094898 115.554674 155.094898 
z
" style="fill:#ff0000;opacity:0.2;stroke:#ff0000;stroke-linejoin:miter;stroke-width:2;"/>
   </g>
   <g id="patch_7">
    <path clip-path="url(#p4770da848d)" d="M 199.743634 110.365916 
C 200.475673 110.365916 201.177827 110.029278 201.695456 109.430143 
C 202.213086 108.831009 202.503928 108.018293 202.503928 107.170989 
C 202.503928 106.323684 202.213086 105.510969 201.695456 104.911834 
C 201.177827 104.312699 200.475673 103.976061 199.743634 103.976061 
C 199.011596 103.976061 198.309441 104.312699 197.791812 104.911834 
C 197.274182 105.510969 196.98334 106.323684 196.98334 107.170989 
C 196.98334 108.018293 197.274182 108.831009 197.791812 109.430143 
C 198.309441 110.029278 199.011596 110.365916 199.743634 110.365916 
z
" style="fill:#ff0000;opacity:0.2;stroke:#ff0000;stroke-linejoin:miter;stroke-width:2;"/>
   </g>
   <g id="patch_8">
    <path clip-path="url(#p4770da848d)" d="M 277.03186 110.365916 
C 277.763898 110.365916 278.466053 110.029278 278.983682 109.430143 
C 279.501311 108.831009 279.792153 108.018293 279.792153 107.170989 
C 279.792153 106.323684 279.501311 105.510969 278.983682 104.911834 
C 278.466053 104.312699 277.763898 103.976061 277.03186 103.976061 
C 276.299821 103.976061 275.597667 104.312699 275.080037 104.911834 
C 274.562408 105.510969 274.271566 106.323684 274.271566 107.170989 
C 274.271566 108.018293 274.562408 108.831009 275.080037 109.430143 
C 275.597667 110.029278 276.299821 110.365916 277.03186 110.365916 
z
" style="fill:#ff0000;opacity:0.2;stroke:#ff0000;stroke-linejoin:miter;stroke-width:2;"/>
   </g>
   <g id="patch_9">
    <path clip-path="url(#p4770da848d)" d="M 384.683317 35.285125 
C 385.415355 35.285125 386.11751 34.948487 386.635139 34.349352 
C 387.152769 33.750218 387.44361 32.937502 387.44361 32.090198 
C 387.44361 31.242893 387.152769 30.430178 386.635139 29.831043 
C 386.11751 29.231908 385.415355 28.89527 384.683317 28.89527 
C 383.951278 28.89527 383.249124 29.231908 382.731494 29.831043 
C 382.213865 30.430178 381.923023 31.242893 381.923023 32.090198 
C 381.923023 32.937502 382.213865 33.750218 382.731494 34.349352 
C 383.249124 34.948487 383.951278 35.285125 384.683317 35.285125 
z
" style="fill:#ff0000;opacity:0.2;stroke:#ff0000;stroke-linejoin:miter;stroke-width:2;"/>
   </g>
   <g id="patch_10">
    <path clip-path="url(#p4770da848d)" d="M 426.087723 43.272443 
C 426.819762 43.272443 427.521916 42.935805 428.039546 42.336671 
C 428.557175 41.737536 428.848017 40.924821 428.848017 40.077516 
C 428.848017 39.230211 428.557175 38.417496 428.039546 37.818361 
C 427.521916 37.219226 426.819762 36.882589 426.087723 36.882589 
C 425.355685 36.882589 424.65353 37.219226 424.135901 37.818361 
C 423.618271 38.417496 423.32743 39.230211 423.32743 40.077516 
C 423.32743 40.924821 423.618271 41.737536 424.135901 42.336671 
C 424.65353 42.935805 425.355685 43.272443 426.087723 43.272443 
z
" style="fill:#ff0000;opacity:0.2;stroke:#ff0000;stroke-linejoin:miter;stroke-width:2;"/>
   </g>
   <g id="patch_11">
    <path clip-path="url(#p4770da848d)" d="M 380.542876 180.654316 
C 381.274915 180.654316 381.977069 180.317678 382.494698 179.718543 
C 383.012328 179.119409 383.30317 178.306693 383.30317 177.459389 
C 383.30317 176.612084 383.012328 175.799369 382.494698 175.200234 
C 381.977069 174.601099 381.274915 174.264461 380.542876 174.264461 
C 379.810838 174.264461 379.108683 174.601099 378.591054 175.200234 
C 378.073424 175.799369 377.782582 176.612084 377.782582 177.459389 
C 377.782582 178.306693 378.073424 179.119409 378.591054 179.718543 
C 379.108683 180.317678 379.810838 180.654316 380.542876 180.654316 
z
" style="fill:#ff0000;opacity:0.2;stroke:#ff0000;stroke-linejoin:miter;stroke-width:2;"/>
   </g>
   <g id="patch_12">
    <path clip-path="url(#p4770da848d)" d="M 203.884075 119.151966 
C 204.616113 119.151966 205.318268 118.815328 205.835897 118.216193 
C 206.353527 117.617059 206.644368 116.804343 206.644368 115.957039 
C 206.644368 115.109734 206.353527 114.297019 205.835897 113.697884 
C 205.318268 113.098749 204.616113 112.762111 203.884075 112.762111 
C 203.152036 112.762111 202.449882 113.098749 201.932252 113.697884 
C 201.414623 114.297019 201.123781 115.109734 201.123781 115.957039 
C 201.123781 116.804343 201.414623 117.617059 201.932252 118.216193 
C 202.449882 118.815328 203.152036 119.151966 203.884075 119.151966 
z
" style="fill:#0000ff;opacity:0.2;stroke:#0000ff;stroke-linejoin:miter;stroke-width:2;"/>
   </g>
   <g id="patch_13">
    <path clip-path="url(#p4770da848d)" d="M 278.412007 119.151966 
C 279.144045 119.151966 279.8462 118.815328 280.363829 118.216193 
C 280.881458 117.617059 281.1723 116.804343 281.1723 115.957039 
C 281.1723 115.109734 280.881458 114.297019 280.363829 113.697884 
C 279.8462 113.098749 279.144045 112.762111 278.412007 112.762111 
C 277.679968 112.762111 276.977813 113.098749 276.460184 113.697884 
C 275.942555 114.297019 275.651713 115.109734 275.651713 115.957039 
C 275.651713 116.804343 275.942555 117.617059 276.460184 118.216193 
C 276.977813 118.815328 277.679968 119.151966 278.412007 119.151966 
z
" style="fill:#0000ff;opacity:0.2;stroke:#0000ff;stroke-linejoin:miter;stroke-width:2;"/>
   </g>
   <g id="patch_14">
    <path clip-path="url(#p4770da848d)" d="M 384.683317 56.850884 
C 385.415355 56.850884 386.11751 56.514246 386.635139 55.915112 
C 387.152769 55.315977 387.44361 54.503261 387.44361 53.655957 
C 387.44361 52.808652 387.152769 51.995937 386.635139 51.396802 
C 386.11751 50.797667 385.415355 50.46103 384.683317 50.46103 
C 383.951278 50.46103 383.249124 50.797667 382.731494 51.396802 
C 382.213865 51.995937 381.923023 52.808652 381.923023 53.655957 
C 381.923023 54.503261 382.213865 55.315977 382.731494 55.915112 
C 383.249124 56.514246 383.951278 56.850884 384.683317 56.850884 
z
" style="fill:#0000ff;opacity:0.2;stroke:#0000ff;stroke-linejoin:miter;stroke-width:2;"/>
   </g>
   <g id="patch_15">
    <path clip-path="url(#p4770da848d)" d="M 408.145814 66.435666 
C 408.877852 66.435666 409.580007 66.099028 410.097636 65.499893 
C 410.615266 64.900759 410.906108 64.088043 410.906108 63.240739 
C 410.906108 62.393434 410.615266 61.580719 410.097636 60.981584 
C 409.580007 60.382449 408.877852 60.045811 408.145814 60.045811 
C 407.413775 60.045811 406.711621 60.382449 406.193991 60.981584 
C 405.676362 61.580719 405.38552 62.393434 405.38552 63.240739 
C 405.38552 64.088043 405.676362 64.900759 406.193991 65.499893 
C 406.711621 66.099028 407.413775 66.435666 408.145814 66.435666 
z
" style="fill:#0000ff;opacity:0.2;stroke:#0000ff;stroke-linejoin:miter;stroke-width:2;"/>
   </g>
   <g id="patch_16">
    <path clip-path="url(#p4770da848d)" d="M 355.700232 183.050511 
C 356.432271 183.050511 357.134425 182.713874 357.652055 182.114739 
C 358.169684 181.515604 358.460526 180.702889 358.460526 179.855584 
C 358.460526 179.008279 358.169684 178.195564 357.652055 177.596429 
C 357.134425 176.997295 356.432271 176.660657 355.700232 176.660657 
C 354.968194 176.660657 354.266039 176.997295 353.74841 177.596429 
C 353.23078 178.195564 352.939938 179.008279 352.939938 179.855584 
C 352.939938 180.702889 353.23078 181.515604 353.74841 182.114739 
C 354.266039 182.713874 354.968194 183.050511 355.700232 183.050511 
z
" style="fill:#0000ff;opacity:0.2;stroke:#0000ff;stroke-linejoin:miter;stroke-width:2;"/>
   </g>
   <g id="patch_17">
    <path clip-path="url(#p4770da848d)" d="M 288.073035 208.60993 
C 288.805073 208.60993 289.507228 208.273292 290.024857 207.674157 
C 290.542487 207.075022 290.833328 206.262307 290.833328 205.415002 
C 290.833328 204.567698 290.542487 203.754982 290.024857 203.155848 
C 289.507228 202.556713 288.805073 202.220075 288.073035 202.220075 
C 287.340996 202.220075 286.638842 202.556713 286.121212 203.155848 
C 285.603583 203.754982 285.312741 204.567698 285.312741 205.415002 
C 285.312741 206.262307 285.603583 207.075022 286.121212 207.674157 
C 286.638842 208.273292 287.340996 208.60993 288.073035 208.60993 
z
" style="fill:#0000ff;opacity:0.2;stroke:#0000ff;stroke-linejoin:miter;stroke-width:2;"/>
   </g>
   <g id="patch_18">
    <path clip-path="url(#p4770da848d)" d="M 214.92525 208.60993 
C 215.657288 208.60993 216.359443 208.273292 216.877072 207.674157 
C 217.394702 207.075022 217.685544 206.262307 217.685544 205.415002 
C 217.685544 204.567698 217.394702 203.754982 216.877072 203.155848 
C 216.359443 202.556713 215.657288 202.220075 214.92525 202.220075 
C 214.193211 202.220075 213.491057 202.556713 212.973427 203.155848 
C 212.455798 203.754982 212.164956 204.567698 212.164956 205.415002 
C 212.164956 206.262307 212.455798 207.075022 212.973427 207.674157 
C 213.491057 208.273292 214.193211 208.60993 214.92525 208.60993 
z
" style="fill:#0000ff;opacity:0.2;stroke:#0000ff;stroke-linejoin:miter;stroke-width:2;"/>
   </g>
   <g id="patch_19">
    <path clip-path="url(#p4770da848d)" d="M 100.373058 291.678039 
C 101.105097 291.678039 101.807251 291.341401 102.324881 290.742266 
C 102.84251 290.143131 103.133352 289.330416 103.133352 288.483111 
C 103.133352 287.635807 102.84251 286.823091 102.324881 286.223957 
C 101.807251 285.624822 101.105097 285.288184 100.373058 285.288184 
C 99.64102 285.288184 98.938865 285.624822 98.421236 286.223957 
C 97.903606 286.823091 97.612765 287.635807 97.612765 288.483111 
C 97.612765 289.330416 97.903606 290.143131 98.421236 290.742266 
C 98.938865 291.341401 99.64102 291.678039 100.373058 291.678039 
z
" style="fill:#0000ff;opacity:0.2;stroke:#0000ff;stroke-linejoin:miter;stroke-width:2;"/>
   </g>
   <g id="patch_20">
    <path clip-path="url(#p4770da848d)" d="M 76.910561 285.288184 
C 77.6426 285.288184 78.344754 284.951546 78.862384 284.352412 
C 79.380013 283.753277 79.670855 282.940561 79.670855 282.093257 
C 79.670855 281.245952 79.380013 280.433237 78.862384 279.834102 
C 78.344754 279.234967 77.6426 278.89833 76.910561 278.89833 
C 76.178523 278.89833 75.476368 279.234967 74.958739 279.834102 
C 74.441109 280.433237 74.150267 281.245952 74.150267 282.093257 
C 74.150267 282.940561 74.441109 283.753277 74.958739 284.352412 
C 75.476368 284.951546 76.178523 285.288184 76.910561 285.288184 
z
" style="fill:#0000ff;opacity:0.2;stroke:#0000ff;stroke-linejoin:miter;stroke-width:2;"/>
   </g>
   <g id="patch_21">
    <path clip-path="url(#p4770da848d)" d="M 127.975996 155.89363 
C 128.708034 155.89363 129.410189 155.556992 129.927818 154.957857 
C 130.445448 154.358722 130.73629 153.546007 130.73629 152.698702 
C 130.73629 151.851398 130.445448 151.038682 129.927818 150.439548 
C 129.410189 149.840413 128.708034 149.503775 127.975996 149.503775 
C 127.243958 149.503775 126.541803 149.840413 126.024174 150.439548 
C 125.506544 151.038682 125.215702 151.851398 125.215702 152.698702 
C 125.215702 153.546007 125.506544 154.358722 126.024174 154.957857 
C 126.541803 155.556992 127.243958 155.89363 127.975996 155.89363 
z
" style="fill:#0000ff;opacity:0.2;stroke:#0000ff;stroke-linejoin:miter;stroke-width:2;"/>
   </g>
   <g id="patch_22">
    <path clip-path="url(#p4770da848d)" d="M 297.734063 222.18837 
L 220.445837 222.18837 
C 158.339227 222.18837 126.595849 250.942716 101.753205 300.464089 
C 93.472324 306.853943 64.489239 303.659016 58.968652 290.879307 
C 67.249533 260.527498 93.472324 183.849243 115.554674 151.89997 
C 139.017171 118.353234 162.479668 107.170989 199.743634 107.170989 
L 277.03186 107.170989 
C 332.237735 107.170989 362.600967 97.586207 384.683317 32.090198 
C 395.724492 27.297807 420.567136 30.492734 426.087723 40.077516 
C 417.806842 91.196352 401.245079 140.717725 380.542876 177.459389 
C 361.22082 211.006125 340.518616 222.18837 297.734063 222.18837 
" style="fill:none;stroke:#ff0000;stroke-linejoin:miter;stroke-width:0.5;"/>
   </g>
   <g id="patch_23">
    <path clip-path="url(#p4770da848d)" d="M 203.884075 115.957039 
L 278.412007 115.957039 
C 334.998029 115.957039 351.559791 109.567184 384.683317 53.655957 
C 392.964198 48.863566 404.005373 50.46103 408.145814 63.240739 
C 399.864932 104.774793 375.022289 155.89363 355.700232 179.855584 
C 334.998029 200.622611 318.436266 205.415002 288.073035 205.415002 
L 214.92525 205.415002 
C 152.81864 205.415002 126.595849 230.97442 100.373058 288.483111 
C 93.472324 294.872966 81.051002 291.678039 76.910561 282.093257 
C 81.051002 256.533839 105.893646 178.25812 127.975996 152.698702 
C 150.058346 125.54182 170.760549 115.957039 203.884075 115.957039 
" style="fill:none;stroke:#0000ff;stroke-linejoin:miter;stroke-width:0.5;"/>
   </g>
   <g id="[&quot;g_s&quot;:1,&quot;g_t&quot;:6,&quot;coords&quot;:[[280.0, -185.0],[273.0, -174.5]],&quot;certainty&quot;:3]">
    <path clip-path="url(#p4770da848d)" d="M 297.734063 225.383298 
C 298.466101 225.383298 299.168256 225.04666 299.685885 224.447525 
C 300.203515 223.84839 300.494357 223.035675 300.494357 222.18837 
C 300.494357 221.341066 300.203515 220.528351 299.685885 219.929216 
C 299.168256 219.330081 298.466101 218.993443 297.734063 218.993443 
C 297.002024 218.993443 296.29987 219.330081 295.78224 219.929216 
C 295.264611 220.528351 294.973769 221.341066 294.973769 222.18837 
C 294.973769 223.035675 295.264611 223.84839 295.78224 224.447525 
C 296.29987 225.04666 297.002024 225.383298 297.734063 225.383298 
z
" style="fill:#0000ff;opacity:0.2;stroke:#0000ff;stroke-linejoin:miter;stroke-width:2;"/>
   </g>
   <g id="[&quot;g_s&quot;:6,&quot;g_t&quot;:1,&quot;coords&quot;:[[273.0, -174.5],[280.0, -185.0]],&quot;certainty&quot;:3]">
    <path clip-path="url(#p4770da848d)" d="M 288.073035 208.60993 
C 288.805073 208.60993 289.507228 208.273292 290.024857 207.674157 
C 290.542487 207.075022 290.833328 206.262307 290.833328 205.415002 
C 290.833328 204.567698 290.542487 203.754982 290.024857 203.155848 
C 289.507228 202.556713 288.805073 202.220075 288.073035 202.220075 
C 287.340996 202.220075 286.638842 202.556713 286.121212 203.155848 
C 285.603583 203.754982 285.312741 204.567698 285.312741 205.415002 
C 285.312741 206.262307 285.603583 207.075022 286.121212 207.674157 
C 286.638842 208.273292 287.340996 208.60993 288.073035 208.60993 
z
" style="fill:#ff0000;opacity:0.2;stroke:#ff0000;stroke-linejoin:miter;stroke-width:2;"/>
   </g>
   <g id="patch_24">
    <path d="M 297.734063 222.18837 
Q 293.402403 214.667792 289.423664 207.75995 
" style="fill:none;opacity:0.5;stroke:#0000ff;stroke-linecap:round;"/>
    <path d="M 288.872511 209.80842 
L 289.423664 207.75995 
L 291.472134 208.311104 
" style="fill:none;opacity:0.5;stroke:#0000ff;stroke-linecap:round;"/>
   </g>
   <g id="[&quot;g_s&quot;:2,&quot;g_t&quot;:7,&quot;coords&quot;:[[224.0, -185.0],[220.0, -174.5]],&quot;certainty&quot;:5]">
    <path clip-path="url(#p4770da848d)" d="M 220.445837 226.980761 
C 221.543895 226.980761 222.597127 226.475805 223.373571 225.577103 
C 224.150015 224.6784 224.586278 223.459327 224.586278 222.18837 
C 224.586278 220.917414 224.150015 219.698341 223.373571 218.799638 
C 222.597127 217.900936 221.543895 217.39598 220.445837 217.39598 
C 219.34778 217.39598 218.294548 217.900936 217.518104 218.799638 
C 216.74166 219.698341 216.305397 220.917414 216.305397 222.18837 
C 216.305397 223.459327 216.74166 224.6784 217.518104 225.577103 
C 218.294548 226.475805 219.34778 226.980761 220.445837 226.980761 
z
" style="fill:#0000ff;opacity:0.2;stroke:#0000ff;stroke-linejoin:miter;stroke-width:2;"/>
   </g>
   <g id="[&quot;g_s&quot;:7,&quot;g_t&quot;:2,&quot;coords&quot;:[[220.0, -174.5],[224.0, -185.0]],&quot;certainty&quot;:5]">
    <path clip-path="url(#p4770da848d)" d="M 214.92525 210.207393 
C 216.023307 210.207393 217.076539 209.702437 217.852983 208.803734 
C 218.629427 207.905032 219.06569 206.685959 219.06569 205.415002 
C 219.06569 204.144045 218.629427 202.924972 217.852983 202.02627 
C 217.076539 201.127568 216.023307 200.622611 214.92525 200.622611 
C 213.827192 200.622611 212.77396 201.127568 211.997516 202.02627 
C 211.221072 202.924972 210.784809 204.144045 210.784809 205.415002 
C 210.784809 206.685959 211.221072 207.905032 211.997516 208.803734 
C 212.77396 209.702437 213.827192 210.207393 214.92525 210.207393 
z
" style="fill:#ff0000;opacity:0.2;stroke:#ff0000;stroke-linejoin:miter;stroke-width:2;"/>
   </g>
   <g id="patch_25">
    <path d="M 220.445837 222.18837 
Q 217.997559 214.749693 215.880876 208.31851 
" style="fill:none;opacity:0.5;stroke:#0000ff;stroke-linecap:round;stroke-width:1.5;"/>
    <path d="M 214.925009 210.212268 
L 215.880876 208.31851 
L 217.774634 209.274376 
" style="fill:none;opacity:0.5;stroke:#0000ff;stroke-linecap:round;stroke-width:1.5;"/>
   </g>
   <g id="[&quot;g_s&quot;:3,&quot;g_t&quot;:8,&quot;coords&quot;:[[138.0, -234.0],[137.0, -226.5]],&quot;certainty&quot;:6]">
    <path clip-path="url(#p4770da848d)" d="M 101.753205 306.055211 
C 103.034272 306.055211 104.263043 305.466095 105.168894 304.417609 
C 106.074746 303.369123 106.583719 301.946872 106.583719 300.464089 
C 106.583719 298.981306 106.074746 297.559054 105.168894 296.510568 
C 104.263043 295.462082 103.034272 294.872966 101.753205 294.872966 
C 100.472138 294.872966 99.243367 295.462082 98.337516 296.510568 
C 97.431665 297.559054 96.922691 298.981306 96.922691 300.464089 
C 96.922691 301.946872 97.431665 303.369123 98.337516 304.417609 
C 99.243367 305.466095 100.472138 306.055211 101.753205 306.055211 
z
" style="fill:#0000ff;opacity:0.2;stroke:#0000ff;stroke-linejoin:miter;stroke-width:2;"/>
   </g>
   <g id="[&quot;g_s&quot;:8,&quot;g_t&quot;:3,&quot;coords&quot;:[[137.0, -226.5],[138.0, -234.0]],&quot;certainty&quot;:6]">
    <path clip-path="url(#p4770da848d)" d="M 100.373058 294.074234 
C 101.654126 294.074234 102.882896 293.485118 103.788748 292.436632 
C 104.694599 291.388146 105.203572 289.965894 105.203572 288.483111 
C 105.203572 287.000328 104.694599 285.578077 103.788748 284.529591 
C 102.882896 283.481105 101.654126 282.891989 100.373058 282.891989 
C 99.091991 282.891989 97.86322 283.481105 96.957369 284.529591 
C 96.051518 285.578077 95.542544 287.000328 95.542544 288.483111 
C 95.542544 289.965894 96.051518 291.388146 96.957369 292.436632 
C 97.86322 293.485118 99.091991 294.074234 100.373058 294.074234 
z
" style="fill:#ff0000;opacity:0.2;stroke:#ff0000;stroke-linejoin:miter;stroke-width:2;"/>
   </g>
   <g id="patch_26">
    <path d="M 101.753205 300.464089 
Q 101.177526 295.466652 100.743457 291.698523 
" style="fill:none;opacity:0.5;stroke:#0000ff;stroke-linecap:round;stroke-width:1.75;"/>
    <path d="M 99.424969 293.360326 
L 100.743457 291.698523 
L 102.40526 293.017012 
" style="fill:none;opacity:0.5;stroke:#0000ff;stroke-linecap:round;stroke-width:1.75;"/>
   </g>
   <g id="[&quot;g_s&quot;:4,&quot;g_t&quot;:9,&quot;coords&quot;:[[107.0, -228.0],[120.0, -222.5]],&quot;certainty&quot;:6]">
    <path clip-path="url(#p4770da848d)" d="M 58.968652 296.47043 
C 60.249719 296.47043 61.47849 295.881314 62.384341 294.832828 
C 63.290192 293.784342 63.799166 292.36209 63.799166 290.879307 
C 63.799166 289.396524 63.290192 287.974272 62.384341 286.925786 
C 61.47849 285.8773 60.249719 285.288184 58.968652 285.288184 
C 57.687584 285.288184 56.458814 285.8773 55.552962 286.925786 
C 54.647111 287.974272 54.138138 289.396524 54.138138 290.879307 
C 54.138138 292.36209 54.647111 293.784342 55.552962 294.832828 
C 56.458814 295.881314 57.687584 296.47043 58.968652 296.47043 
z
" style="fill:#0000ff;opacity:0.2;stroke:#0000ff;stroke-linejoin:miter;stroke-width:2;"/>
   </g>
   <g id="[&quot;g_s&quot;:9,&quot;g_t&quot;:4,&quot;coords&quot;:[[120.0, -222.5],[107.0, -228.0]],&quot;certainty&quot;:6]">
    <path clip-path="url(#p4770da848d)" d="M 76.910561 287.68438 
C 78.191629 287.68438 79.420399 287.095264 80.326251 286.046778 
C 81.232102 284.998292 81.741075 283.57604 81.741075 282.093257 
C 81.741075 280.610474 81.232102 279.188222 80.326251 278.139736 
C 79.420399 277.09125 78.191629 276.502134 76.910561 276.502134 
C 75.629494 276.502134 74.400723 277.09125 73.494872 278.139736 
C 72.589021 279.188222 72.080047 280.610474 72.080047 282.093257 
C 72.080047 283.57604 72.589021 284.998292 73.494872 286.046778 
C 74.400723 287.095264 75.629494 287.68438 76.910561 287.68438 
z
" style="fill:#ff0000;opacity:0.2;stroke:#ff0000;stroke-linejoin:miter;stroke-width:2;"/>
   </g>
   <g id="patch_27">
    <path d="M 58.968652 290.879307 
Q 67.039445 286.927086 73.998897 283.519082 
" style="fill:none;opacity:0.5;stroke:#0000ff;stroke-linecap:round;stroke-width:1.75;"/>
    <path d="M 71.992058 282.831624 
L 73.998897 283.519082 
L 73.31144 285.525921 
" style="fill:none;opacity:0.5;stroke:#0000ff;stroke-linecap:round;stroke-width:1.75;"/>
   </g>
   <g id="[&quot;g_s&quot;:5,&quot;g_t&quot;:10,&quot;coords&quot;:[[148.0, -141.0],[157.0, -141.5]],&quot;certainty&quot;:11]">
    <path clip-path="url(#p4770da848d)" d="M 115.554674 161.484752 
C 117.750789 161.484752 119.857253 160.474839 121.410141 158.677435 
C 122.963029 156.88003 123.835555 154.441884 123.835555 151.89997 
C 123.835555 149.358057 122.963029 146.919911 121.410141 145.122506 
C 119.857253 143.325102 117.750789 142.315189 115.554674 142.315189 
C 113.358559 142.315189 111.252095 143.325102 109.699207 145.122506 
C 108.146319 146.919911 107.273793 149.358057 107.273793 151.89997 
C 107.273793 154.441884 108.146319 156.88003 109.699207 158.677435 
C 111.252095 160.474839 113.358559 161.484752 115.554674 161.484752 
z
" style="fill:#0000ff;opacity:0.2;stroke:#0000ff;stroke-linejoin:miter;stroke-width:2;"/>
   </g>
   <g id="[&quot;g_s&quot;:10,&quot;g_t&quot;:5,&quot;coords&quot;:[[157.0, -141.5],[148.0, -141.0]],&quot;certainty&quot;:11]">
    <path clip-path="url(#p4770da848d)" d="M 127.975996 162.283484 
C 130.172111 162.283484 132.278575 161.273571 133.831463 159.476166 
C 135.384351 157.678762 136.256877 155.240616 136.256877 152.698702 
C 136.256877 150.156788 135.384351 147.718643 133.831463 145.921238 
C 132.278575 144.123834 130.172111 143.11392 127.975996 143.11392 
C 125.779881 143.11392 123.673417 144.123834 122.120529 145.921238 
C 120.567641 147.718643 119.695115 150.156788 119.695115 152.698702 
C 119.695115 155.240616 120.567641 157.678762 122.120529 159.476166 
C 123.673417 161.273571 125.779881 162.283484 127.975996 162.283484 
z
" style="fill:#ff0000;opacity:0.2;stroke:#ff0000;stroke-linejoin:miter;stroke-width:2;"/>
   </g>
   <g id="patch_28">
    <path d="M 115.554674 151.89997 
Q 120.76611 152.235083 123.860598 152.434069 
" style="fill:none;opacity:0.5;stroke:#0000ff;stroke-linecap:round;stroke-width:3;"/>
    <path d="M 122.459946 150.840904 
L 123.860598 152.434069 
L 122.267433 153.834721 
" style="fill:none;opacity:0.5;stroke:#0000ff;stroke-linecap:round;stroke-width:3;"/>
   </g>
   <g id="[&quot;g_s&quot;:6,&quot;g_t&quot;:1,&quot;coords&quot;:[[209.0, -113.0],[212.0, -118.5]],&quot;certainty&quot;:6]">
    <path clip-path="url(#p4770da848d)" d="M 199.743634 112.762111 
C 201.024701 112.762111 202.253472 112.172995 203.159323 111.124509 
C 204.065175 110.076023 204.574148 108.653772 204.574148 107.170989 
C 204.574148 105.688206 204.065175 104.265954 203.159323 103.217468 
C 202.253472 102.168982 201.024701 101.579866 199.743634 101.579866 
C 198.462567 101.579866 197.233796 102.168982 196.327945 103.217468 
C 195.422093 104.265954 194.91312 105.688206 194.91312 107.170989 
C 194.91312 108.653772 195.422093 110.076023 196.327945 111.124509 
C 197.233796 112.172995 198.462567 112.762111 199.743634 112.762111 
z
" style="fill:#0000ff;opacity:0.2;stroke:#0000ff;stroke-linejoin:miter;stroke-width:2;"/>
   </g>
   <g id="[&quot;g_s&quot;:1,&quot;g_t&quot;:6,&quot;coords&quot;:[[212.0, -118.5],[209.0, -113.0]],&quot;certainty&quot;:6]">
    <path clip-path="url(#p4770da848d)" d="M 203.884075 121.548161 
C 205.165142 121.548161 206.393913 120.959045 207.299764 119.910559 
C 208.205615 118.862073 208.714589 117.439822 208.714589 115.957039 
C 208.714589 114.474256 208.205615 113.052004 207.299764 112.003518 
C 206.393913 110.955032 205.165142 110.365916 203.884075 110.365916 
C 202.603007 110.365916 201.374237 110.955032 200.468385 112.003518 
C 199.562534 113.052004 199.053561 114.474256 199.053561 115.957039 
C 199.053561 117.439822 199.562534 118.862073 200.468385 119.910559 
C 201.374237 120.959045 202.603007 121.548161 203.884075 121.548161 
z
" style="fill:#ff0000;opacity:0.2;stroke:#ff0000;stroke-linejoin:miter;stroke-width:2;"/>
   </g>
   <g id="patch_29">
    <path d="M 199.743634 107.170989 
Q 201.388287 110.660955 202.505434 113.031552 
" style="fill:none;opacity:0.5;stroke:#0000ff;stroke-linecap:round;stroke-width:1.75;"/>
    <path d="M 203.222883 111.035239 
L 202.505434 113.031552 
L 200.509121 112.314104 
" style="fill:none;opacity:0.5;stroke:#0000ff;stroke-linecap:round;stroke-width:1.75;"/>
   </g>
   <g id="[&quot;g_s&quot;:7,&quot;g_t&quot;:2,&quot;coords&quot;:[[265.0, -113.0],[266.0, -118.5]],&quot;certainty&quot;:6]">
    <path clip-path="url(#p4770da848d)" d="M 277.03186 112.762111 
C 278.312927 112.762111 279.541698 112.172995 280.447549 111.124509 
C 281.3534 110.076023 281.862374 108.653772 281.862374 107.170989 
C 281.862374 105.688206 281.3534 104.265954 280.447549 103.217468 
C 279.541698 102.168982 278.312927 101.579866 277.03186 101.579866 
C 275.750792 101.579866 274.522022 102.168982 273.61617 103.217468 
C 272.710319 104.265954 272.201346 105.688206 272.201346 107.170989 
C 272.201346 108.653772 272.710319 110.076023 273.61617 111.124509 
C 274.522022 112.172995 275.750792 112.762111 277.03186 112.762111 
z
" style="fill:#0000ff;opacity:0.2;stroke:#0000ff;stroke-linejoin:miter;stroke-width:2;"/>
   </g>
   <g id="[&quot;g_s&quot;:2,&quot;g_t&quot;:7,&quot;coords&quot;:[[266.0, -118.5],[265.0, -113.0]],&quot;certainty&quot;:6]">
    <path clip-path="url(#p4770da848d)" d="M 278.412007 121.548161 
C 279.693074 121.548161 280.921844 120.959045 281.827696 119.910559 
C 282.733547 118.862073 283.242521 117.439822 283.242521 115.957039 
C 283.242521 114.474256 282.733547 113.052004 281.827696 112.003518 
C 280.921844 110.955032 279.693074 110.365916 278.412007 110.365916 
C 277.130939 110.365916 275.902169 110.955032 274.996317 112.003518 
C 274.090466 113.052004 273.581492 114.474256 273.581492 115.957039 
C 273.581492 117.439822 274.090466 118.862073 274.996317 119.910559 
C 275.902169 120.959045 277.130939 121.548161 278.412007 121.548161 
z
" style="fill:#ff0000;opacity:0.2;stroke:#ff0000;stroke-linejoin:miter;stroke-width:2;"/>
   </g>
   <g id="patch_30">
    <path d="M 277.03186 107.170989 
Q 277.566599 110.575154 277.909312 112.756873 
" style="fill:none;opacity:0.5;stroke:#0000ff;stroke-linecap:round;stroke-width:1.75;"/>
    <path d="M 279.15837 111.042272 
L 277.909312 112.756873 
L 276.194711 111.507815 
" style="fill:none;opacity:0.5;stroke:#0000ff;stroke-linecap:round;stroke-width:1.75;"/>
   </g>
   <g id="[&quot;g_s&quot;:8,&quot;g_t&quot;:3,&quot;coords&quot;:[[343.0, -66.0],[343.0, -79.5]],&quot;certainty&quot;:4]">
    <path clip-path="url(#p4770da848d)" d="M 384.683317 36.083857 
C 385.598365 36.083857 386.476058 35.66306 387.123095 34.914141 
C 387.770131 34.165223 388.133684 33.149328 388.133684 32.090198 
C 388.133684 31.031067 387.770131 30.015173 387.123095 29.266254 
C 386.476058 28.517336 385.598365 28.096539 384.683317 28.096539 
C 383.768269 28.096539 382.890575 28.517336 382.243539 29.266254 
C 381.596502 30.015173 381.232949 31.031067 381.232949 32.090198 
C 381.232949 33.149328 381.596502 34.165223 382.243539 34.914141 
C 382.890575 35.66306 383.768269 36.083857 384.683317 36.083857 
z
" style="fill:#0000ff;opacity:0.2;stroke:#0000ff;stroke-linejoin:miter;stroke-width:2;"/>
   </g>
   <g id="[&quot;g_s&quot;:3,&quot;g_t&quot;:8,&quot;coords&quot;:[[343.0, -79.5],[343.0, -66.0]],&quot;certainty&quot;:4]">
    <path clip-path="url(#p4770da848d)" d="M 384.683317 57.649616 
C 385.598365 57.649616 386.476058 57.228819 387.123095 56.4799 
C 387.770131 55.730982 388.133684 54.715088 388.133684 53.655957 
C 388.133684 52.596826 387.770131 51.580932 387.123095 50.832013 
C 386.476058 50.083095 385.598365 49.662298 384.683317 49.662298 
C 383.768269 49.662298 382.890575 50.083095 382.243539 50.832013 
C 381.596502 51.580932 381.232949 52.596826 381.232949 53.655957 
C 381.232949 54.715088 381.596502 55.730982 382.243539 56.4799 
C 382.890575 57.228819 383.768269 57.649616 384.683317 57.649616 
z
" style="fill:#ff0000;opacity:0.2;stroke:#ff0000;stroke-linejoin:miter;stroke-width:2;"/>
   </g>
   <g id="patch_31">
    <path d="M 384.683317 32.090198 
Q 384.683317 41.874029 384.683317 50.773976 
" style="fill:none;opacity:0.5;stroke:#0000ff;stroke-linecap:round;stroke-width:1.25;"/>
    <path d="M 386.183317 49.273976 
L 384.683317 50.773976 
L 383.183317 49.273976 
" style="fill:none;opacity:0.5;stroke:#0000ff;stroke-linecap:round;stroke-width:1.25;"/>
   </g>
   <g id="[&quot;g_s&quot;:9,&quot;g_t&quot;:4,&quot;coords&quot;:[[373.0, -71.0],[360.0, -85.5]],&quot;certainty&quot;:7]">
    <path clip-path="url(#p4770da848d)" d="M 426.087723 46.46737 
C 427.5518 46.46737 428.956109 45.794095 429.991368 44.595825 
C 431.026627 43.397556 431.608311 41.772125 431.608311 40.077516 
C 431.608311 38.382907 431.026627 36.757476 429.991368 35.559206 
C 428.956109 34.360937 427.5518 33.687661 426.087723 33.687661 
C 424.623646 33.687661 423.219337 34.360937 422.184078 35.559206 
C 421.14882 36.757476 420.567136 38.382907 420.567136 40.077516 
C 420.567136 41.772125 421.14882 43.397556 422.184078 44.595825 
C 423.219337 45.794095 424.623646 46.46737 426.087723 46.46737 
z
" style="fill:#0000ff;opacity:0.2;stroke:#0000ff;stroke-linejoin:miter;stroke-width:2;"/>
   </g>
   <g id="[&quot;g_s&quot;:4,&quot;g_t&quot;:9,&quot;coords&quot;:[[360.0, -85.5],[373.0, -71.0]],&quot;certainty&quot;:7]">
    <path clip-path="url(#p4770da848d)" d="M 408.145814 69.630593 
C 409.609891 69.630593 411.0142 68.957318 412.049459 67.759048 
C 413.084717 66.560778 413.666401 64.935348 413.666401 63.240739 
C 413.666401 61.546129 413.084717 59.920699 412.049459 58.722429 
C 411.0142 57.524159 409.609891 56.850884 408.145814 56.850884 
C 406.681737 56.850884 405.277428 57.524159 404.242169 58.722429 
C 403.20691 59.920699 402.625226 61.546129 402.625226 63.240739 
C 402.625226 64.935348 403.20691 66.560778 404.242169 67.759048 
C 405.277428 68.957318 406.681737 69.630593 408.145814 69.630593 
z
" style="fill:#ff0000;opacity:0.2;stroke:#ff0000;stroke-linejoin:miter;stroke-width:2;"/>
   </g>
   <g id="patch_32">
    <path d="M 426.087723 40.077516 
Q 417.728922 50.868829 410.236139 60.542103 
" style="fill:none;opacity:0.5;stroke:#0000ff;stroke-linecap:round;stroke-width:2;"/>
    <path d="M 412.34055 60.274794 
L 410.236139 60.542103 
L 409.96883 58.437692 
" style="fill:none;opacity:0.5;stroke:#0000ff;stroke-linecap:round;stroke-width:2;"/>
   </g>
   <g id="[&quot;g_s&quot;:10,&quot;g_t&quot;:5,&quot;coords&quot;:[[340.0, -157.0],[322.0, -158.5]],&quot;certainty&quot;:11]">
    <path clip-path="url(#p4770da848d)" d="M 380.542876 187.04417 
C 382.738991 187.04417 384.845455 186.034257 386.398343 184.236853 
C 387.951231 182.439448 388.823757 180.001302 388.823757 177.459389 
C 388.823757 174.917475 387.951231 172.479329 386.398343 170.681924 
C 384.845455 168.88452 382.738991 167.874607 380.542876 167.874607 
C 378.346761 167.874607 376.240297 168.88452 374.687409 170.681924 
C 373.134521 172.479329 372.261995 174.917475 372.261995 177.459389 
C 372.261995 180.001302 373.134521 182.439448 374.687409 184.236853 
C 376.240297 186.034257 378.346761 187.04417 380.542876 187.04417 
z
" style="fill:#0000ff;opacity:0.2;stroke:#0000ff;stroke-linejoin:miter;stroke-width:2;"/>
   </g>
   <g id="[&quot;g_s&quot;:5,&quot;g_t&quot;:10,&quot;coords&quot;:[[322.0, -158.5],[340.0, -157.0]],&quot;certainty&quot;:11]">
    <path clip-path="url(#p4770da848d)" d="M 355.700232 189.440366 
C 357.896348 189.440366 360.002811 188.430453 361.555699 186.633048 
C 363.108588 184.835644 363.981113 182.397498 363.981113 179.855584 
C 363.981113 177.31367 363.108588 174.875524 361.555699 173.07812 
C 360.002811 171.280715 357.896348 170.270802 355.700232 170.270802 
C 353.504117 170.270802 351.397653 171.280715 349.844765 173.07812 
C 348.291877 174.875524 347.419351 177.31367 347.419351 179.855584 
C 347.419351 182.397498 348.291877 184.835644 349.844765 186.633048 
C 351.397653 188.430453 353.504117 189.440366 355.700232 189.440366 
z
" style="fill:#ff0000;opacity:0.2;stroke:#ff0000;stroke-linejoin:miter;stroke-width:2;"/>
   </g>
   <g id="patch_33">
    <path d="M 380.542876 177.459389 
Q 369.117747 178.561399 359.804138 179.459742 
" style="fill:none;opacity:0.5;stroke:#0000ff;stroke-linecap:round;stroke-width:3;"/>
    <path d="M 361.441222 180.808799 
L 359.804138 179.459742 
L 361.153194 177.822657 
" style="fill:none;opacity:0.5;stroke:#0000ff;stroke-linecap:round;stroke-width:3;"/>
   </g>
   <g id="[&quot;g_s&quot;:1,&quot;g_t&quot;:6,&quot;coords&quot;:[[212.0, -118.5],[209.0, -113.0]],&quot;certainty&quot;:5]">
    <path clip-path="url(#p4770da848d)" d="M 203.884075 120.74943 
C 204.982132 120.74943 206.035364 120.244473 206.811808 119.345771 
C 207.588252 118.447068 208.024515 117.227996 208.024515 115.957039 
C 208.024515 114.686082 207.588252 113.467009 206.811808 112.568307 
C 206.035364 111.669604 204.982132 111.164648 203.884075 111.164648 
C 202.786017 111.164648 201.732785 111.669604 200.956341 112.568307 
C 200.179897 113.467009 199.743634 114.686082 199.743634 115.957039 
C 199.743634 117.227996 200.179897 118.447068 200.956341 119.345771 
C 201.732785 120.244473 202.786017 120.74943 203.884075 120.74943 
z
" style="fill:#0000ff;opacity:0.2;stroke:#0000ff;stroke-linejoin:miter;stroke-width:2;"/>
   </g>
   <g id="[&quot;g_s&quot;:6,&quot;g_t&quot;:1,&quot;coords&quot;:[[209.0, -113.0],[212.0, -118.5]],&quot;certainty&quot;:5]">
    <path clip-path="url(#p4770da848d)" d="M 199.743634 111.96338 
C 200.841692 111.96338 201.894924 111.458423 202.671368 110.559721 
C 203.447812 109.661018 203.884075 108.441946 203.884075 107.170989 
C 203.884075 105.900032 203.447812 104.680959 202.671368 103.782257 
C 201.894924 102.883554 200.841692 102.378598 199.743634 102.378598 
C 198.645576 102.378598 197.592344 102.883554 196.8159 103.782257 
C 196.039456 104.680959 195.603193 105.900032 195.603193 107.170989 
C 195.603193 108.441946 196.039456 109.661018 196.8159 110.559721 
C 197.592344 111.458423 198.645576 111.96338 199.743634 111.96338 
z
" style="fill:#ff0000;opacity:0.2;stroke:#ff0000;stroke-linejoin:miter;stroke-width:2;"/>
   </g>
   <g id="patch_34">
    <path d="M 203.884075 115.957039 
Q 202.239422 112.467072 201.046917 109.936565 
" style="fill:none;opacity:0.5;stroke:#ff0000;stroke-linecap:round;stroke-width:1.5;"/>
    <path d="M 200.329468 111.932879 
L 201.046917 109.936565 
L 203.04323 110.654014 
" style="fill:none;opacity:0.5;stroke:#ff0000;stroke-linecap:round;stroke-width:1.5;"/>
   </g>
   <g id="[&quot;g_s&quot;:2,&quot;g_t&quot;:7,&quot;coords&quot;:[[266.0, -118.5],[265.0, -113.0]],&quot;certainty&quot;:7]">
    <path clip-path="url(#p4770da848d)" d="M 278.412007 122.346893 
C 279.876083 122.346893 281.280393 121.673618 282.315651 120.475348 
C 283.35091 119.277078 283.932594 117.651648 283.932594 115.957039 
C 283.932594 114.262429 283.35091 112.636999 282.315651 111.438729 
C 281.280393 110.240459 279.876083 109.567184 278.412007 109.567184 
C 276.94793 109.567184 275.54362 110.240459 274.508362 111.438729 
C 273.473103 112.636999 272.891419 114.262429 272.891419 115.957039 
C 272.891419 117.651648 273.473103 119.277078 274.508362 120.475348 
C 275.54362 121.673618 276.94793 122.346893 278.412007 122.346893 
z
" style="fill:#0000ff;opacity:0.2;stroke:#0000ff;stroke-linejoin:miter;stroke-width:2;"/>
   </g>
   <g id="[&quot;g_s&quot;:7,&quot;g_t&quot;:2,&quot;coords&quot;:[[265.0, -113.0],[266.0, -118.5]],&quot;certainty&quot;:7]">
    <path clip-path="url(#p4770da848d)" d="M 277.03186 113.560843 
C 278.495937 113.560843 279.900246 112.887568 280.935505 111.689298 
C 281.970763 110.491028 282.552447 108.865598 282.552447 107.170989 
C 282.552447 105.476379 281.970763 103.850949 280.935505 102.652679 
C 279.900246 101.454409 278.495937 100.781134 277.03186 100.781134 
C 275.567783 100.781134 274.163473 101.454409 273.128215 102.652679 
C 272.092956 103.850949 271.511272 105.476379 271.511272 107.170989 
C 271.511272 108.865598 272.092956 110.491028 273.128215 111.689298 
C 274.163473 112.887568 275.567783 113.560843 277.03186 113.560843 
z
" style="fill:#ff0000;opacity:0.2;stroke:#ff0000;stroke-linejoin:miter;stroke-width:2;"/>
   </g>
   <g id="patch_35">
    <path d="M 278.412007 115.957039 
Q 277.877267 112.552873 277.561987 110.54579 
" style="fill:none;opacity:0.5;stroke:#ff0000;stroke-linecap:round;stroke-width:2;"/>
    <path d="M 276.312929 112.26039 
L 277.561987 110.54579 
L 279.276587 111.794847 
" style="fill:none;opacity:0.5;stroke:#ff0000;stroke-linecap:round;stroke-width:2;"/>
   </g>
   <g id="[&quot;g_s&quot;:3,&quot;g_t&quot;:8,&quot;coords&quot;:[[343.0, -79.5],[343.0, -66.0]],&quot;certainty&quot;:5]">
    <path clip-path="url(#p4770da848d)" d="M 384.683317 58.448348 
C 385.781374 58.448348 386.834606 57.943391 387.61105 57.044689 
C 388.387494 56.145987 388.823757 54.926914 388.823757 53.655957 
C 388.823757 52.385 388.387494 51.165927 387.61105 50.267225 
C 386.834606 49.368522 385.781374 48.863566 384.683317 48.863566 
C 383.585259 48.863566 382.532027 49.368522 381.755583 50.267225 
C 380.979139 51.165927 380.542876 52.385 380.542876 53.655957 
C 380.542876 54.926914 380.979139 56.145987 381.755583 57.044689 
C 382.532027 57.943391 383.585259 58.448348 384.683317 58.448348 
z
" style="fill:#0000ff;opacity:0.2;stroke:#0000ff;stroke-linejoin:miter;stroke-width:2;"/>
   </g>
   <g id="[&quot;g_s&quot;:8,&quot;g_t&quot;:3,&quot;coords&quot;:[[343.0, -66.0],[343.0, -79.5]],&quot;certainty&quot;:5]">
    <path clip-path="url(#p4770da848d)" d="M 384.683317 36.882589 
C 385.781374 36.882589 386.834606 36.377632 387.61105 35.47893 
C 388.387494 34.580228 388.823757 33.361155 388.823757 32.090198 
C 388.823757 30.819241 388.387494 29.600168 387.61105 28.701466 
C 386.834606 27.802763 385.781374 27.297807 384.683317 27.297807 
C 383.585259 27.297807 382.532027 27.802763 381.755583 28.701466 
C 380.979139 29.600168 380.542876 30.819241 380.542876 32.090198 
C 380.542876 33.361155 380.979139 34.580228 381.755583 35.47893 
C 382.532027 36.377632 383.585259 36.882589 384.683317 36.882589 
z
" style="fill:#ff0000;opacity:0.2;stroke:#ff0000;stroke-linejoin:miter;stroke-width:2;"/>
   </g>
   <g id="patch_36">
    <path d="M 384.683317 53.655957 
Q 384.683317 43.872126 384.683317 35.148955 
" style="fill:none;opacity:0.5;stroke:#ff0000;stroke-linecap:round;stroke-width:1.5;"/>
    <path d="M 383.183317 36.648955 
L 384.683317 35.148955 
L 386.183317 36.648955 
" style="fill:none;opacity:0.5;stroke:#ff0000;stroke-linecap:round;stroke-width:1.5;"/>
   </g>
   <g id="[&quot;g_s&quot;:4,&quot;g_t&quot;:9,&quot;coords&quot;:[[360.0, -85.5],[373.0, -71.0]],&quot;certainty&quot;:5]">
    <path clip-path="url(#p4770da848d)" d="M 408.145814 68.03313 
C 409.243871 68.03313 410.297103 67.528173 411.073547 66.629471 
C 411.849991 65.730768 412.286254 64.511696 412.286254 63.240739 
C 412.286254 61.969782 411.849991 60.750709 411.073547 59.852007 
C 410.297103 58.953304 409.243871 58.448348 408.145814 58.448348 
C 407.047756 58.448348 405.994524 58.953304 405.21808 59.852007 
C 404.441636 60.750709 404.005373 61.969782 404.005373 63.240739 
C 404.005373 64.511696 404.441636 65.730768 405.21808 66.629471 
C 405.994524 67.528173 407.047756 68.03313 408.145814 68.03313 
z
" style="fill:#0000ff;opacity:0.2;stroke:#0000ff;stroke-linejoin:miter;stroke-width:2;"/>
   </g>
   <g id="[&quot;g_s&quot;:9,&quot;g_t&quot;:4,&quot;coords&quot;:[[373.0, -71.0],[360.0, -85.5]],&quot;certainty&quot;:5]">
    <path clip-path="url(#p4770da848d)" d="M 426.087723 44.869907 
C 427.185781 44.869907 428.239013 44.36495 429.015457 43.466248 
C 429.791901 42.567546 430.228164 41.348473 430.228164 40.077516 
C 430.228164 38.806559 429.791901 37.587486 429.015457 36.688784 
C 428.239013 35.790082 427.185781 35.285125 426.087723 35.285125 
C 424.989666 35.285125 423.936434 35.790082 423.15999 36.688784 
C 422.383546 37.587486 421.947283 38.806559 421.947283 40.077516 
C 421.947283 41.348473 422.383546 42.567546 423.15999 43.466248 
C 423.936434 44.36495 424.989666 44.869907 426.087723 44.869907 
z
" style="fill:#ff0000;opacity:0.2;stroke:#ff0000;stroke-linejoin:miter;stroke-width:2;"/>
   </g>
   <g id="patch_37">
    <path d="M 408.145814 63.240739 
Q 416.504615 52.449425 424.213902 42.496642 
" style="fill:none;opacity:0.5;stroke:#ff0000;stroke-linecap:round;stroke-width:1.5;"/>
    <path d="M 422.109491 42.763951 
L 424.213902 42.496642 
L 424.481212 44.601053 
" style="fill:none;opacity:0.5;stroke:#ff0000;stroke-linecap:round;stroke-width:1.5;"/>
   </g>
   <g id="[&quot;g_s&quot;:5,&quot;g_t&quot;:10,&quot;coords&quot;:[[322.0, -158.5],[340.0, -157.0]],&quot;certainty&quot;:11]">
    <path clip-path="url(#p4770da848d)" d="M 355.700232 189.440366 
C 357.896348 189.440366 360.002811 188.430453 361.555699 186.633048 
C 363.108588 184.835644 363.981113 182.397498 363.981113 179.855584 
C 363.981113 177.31367 363.108588 174.875524 361.555699 173.07812 
C 360.002811 171.280715 357.896348 170.270802 355.700232 170.270802 
C 353.504117 170.270802 351.397653 171.280715 349.844765 173.07812 
C 348.291877 174.875524 347.419351 177.31367 347.419351 179.855584 
C 347.419351 182.397498 348.291877 184.835644 349.844765 186.633048 
C 351.397653 188.430453 353.504117 189.440366 355.700232 189.440366 
z
" style="fill:#0000ff;opacity:0.2;stroke:#0000ff;stroke-linejoin:miter;stroke-width:2;"/>
   </g>
   <g id="[&quot;g_s&quot;:10,&quot;g_t&quot;:5,&quot;coords&quot;:[[340.0, -157.0],[322.0, -158.5]],&quot;certainty&quot;:11]">
    <path clip-path="url(#p4770da848d)" d="M 380.542876 187.04417 
C 382.738991 187.04417 384.845455 186.034257 386.398343 184.236853 
C 387.951231 182.439448 388.823757 180.001302 388.823757 177.459389 
C 388.823757 174.917475 387.951231 172.479329 386.398343 170.681924 
C 384.845455 168.88452 382.738991 167.874607 380.542876 167.874607 
C 378.346761 167.874607 376.240297 168.88452 374.687409 170.681924 
C 373.134521 172.479329 372.261995 174.917475 372.261995 177.459389 
C 372.261995 180.001302 373.134521 182.439448 374.687409 184.236853 
C 376.240297 186.034257 378.346761 187.04417 380.542876 187.04417 
z
" style="fill:#ff0000;opacity:0.2;stroke:#ff0000;stroke-linejoin:miter;stroke-width:2;"/>
   </g>
   <g id="patch_38">
    <path d="M 355.700232 179.855584 
Q 367.125362 178.753574 376.43897 177.855231 
" style="fill:none;opacity:0.5;stroke:#ff0000;stroke-linecap:round;stroke-width:3;"/>
    <path d="M 374.801886 176.506174 
L 376.43897 177.855231 
L 375.089914 179.492315 
" style="fill:none;opacity:0.5;stroke:#ff0000;stroke-linecap:round;stroke-width:3;"/>
   </g>
   <g id="[&quot;g_s&quot;:6,&quot;g_t&quot;:1,&quot;coords&quot;:[[273.0, -174.5],[280.0, -185.0]],&quot;certainty&quot;:4]">
    <path clip-path="url(#p4770da848d)" d="M 288.073035 209.408661 
C 288.988083 209.408661 289.865776 208.987864 290.512813 208.238946 
C 291.159849 207.490027 291.523402 206.474133 291.523402 205.415002 
C 291.523402 204.355872 291.159849 203.339977 290.512813 202.591059 
C 289.865776 201.84214 288.988083 201.421343 288.073035 201.421343 
C 287.157987 201.421343 286.280293 201.84214 285.633257 202.591059 
C 284.98622 203.339977 284.622668 204.355872 284.622668 205.415002 
C 284.622668 206.474133 284.98622 207.490027 285.633257 208.238946 
C 286.280293 208.987864 287.157987 209.408661 288.073035 209.408661 
z
" style="fill:#0000ff;opacity:0.2;stroke:#0000ff;stroke-linejoin:miter;stroke-width:2;"/>
   </g>
   <g id="[&quot;g_s&quot;:1,&quot;g_t&quot;:6,&quot;coords&quot;:[[280.0, -185.0],[273.0, -174.5]],&quot;certainty&quot;:4]">
    <path clip-path="url(#p4770da848d)" d="M 297.734063 226.18203 
C 298.649111 226.18203 299.526804 225.761232 300.173841 225.012314 
C 300.820878 224.263395 301.18443 223.247501 301.18443 222.18837 
C 301.18443 221.12924 300.820878 220.113346 300.173841 219.364427 
C 299.526804 218.615508 298.649111 218.194711 297.734063 218.194711 
C 296.819015 218.194711 295.941322 218.615508 295.294285 219.364427 
C 294.647248 220.113346 294.283696 221.12924 294.283696 222.18837 
C 294.283696 223.247501 294.647248 224.263395 295.294285 225.012314 
C 295.941322 225.761232 296.819015 226.18203 297.734063 226.18203 
z
" style="fill:#ff0000;opacity:0.2;stroke:#ff0000;stroke-linejoin:miter;stroke-width:2;"/>
   </g>
   <g id="patch_39">
    <path d="M 288.073035 205.415002 
Q 292.404694 212.935581 296.295203 219.690238 
" style="fill:none;opacity:0.5;stroke:#ff0000;stroke-linecap:round;stroke-width:1.25;"/>
    <path d="M 296.846357 217.641768 
L 296.295203 219.690238 
L 294.246733 219.139085 
" style="fill:none;opacity:0.5;stroke:#ff0000;stroke-linecap:round;stroke-width:1.25;"/>
   </g>
   <g id="[&quot;g_s&quot;:7,&quot;g_t&quot;:2,&quot;coords&quot;:[[220.0, -174.5],[224.0, -185.0]],&quot;certainty&quot;:4]">
    <path clip-path="url(#p4770da848d)" d="M 214.92525 209.408661 
C 215.840298 209.408661 216.717991 208.987864 217.365028 208.238946 
C 218.012065 207.490027 218.375617 206.474133 218.375617 205.415002 
C 218.375617 204.355872 218.012065 203.339977 217.365028 202.591059 
C 216.717991 201.84214 215.840298 201.421343 214.92525 201.421343 
C 214.010202 201.421343 213.132508 201.84214 212.485472 202.591059 
C 211.838435 203.339977 211.474883 204.355872 211.474883 205.415002 
C 211.474883 206.474133 211.838435 207.490027 212.485472 208.238946 
C 213.132508 208.987864 214.010202 209.408661 214.92525 209.408661 
z
" style="fill:#0000ff;opacity:0.2;stroke:#0000ff;stroke-linejoin:miter;stroke-width:2;"/>
   </g>
   <g id="[&quot;g_s&quot;:2,&quot;g_t&quot;:7,&quot;coords&quot;:[[224.0, -185.0],[220.0, -174.5]],&quot;certainty&quot;:4]">
    <path clip-path="url(#p4770da848d)" d="M 220.445837 226.18203 
C 221.360885 226.18203 222.238579 225.761232 222.885615 225.012314 
C 223.532652 224.263395 223.896205 223.247501 223.896205 222.18837 
C 223.896205 221.12924 223.532652 220.113346 222.885615 219.364427 
C 222.238579 218.615508 221.360885 218.194711 220.445837 218.194711 
C 219.530789 218.194711 218.653096 218.615508 218.006059 219.364427 
C 217.359023 220.113346 216.99547 221.12924 216.99547 222.18837 
C 216.99547 223.247501 217.359023 224.263395 218.006059 225.012314 
C 218.653096 225.761232 219.530789 226.18203 220.445837 226.18203 
z
" style="fill:#ff0000;opacity:0.2;stroke:#ff0000;stroke-linejoin:miter;stroke-width:2;"/>
   </g>
   <g id="patch_40">
    <path d="M 214.92525 205.415002 
Q 217.373528 212.85368 219.545477 219.452779 
" style="fill:none;opacity:0.5;stroke:#ff0000;stroke-linecap:round;stroke-width:1.25;"/>
    <path d="M 220.501344 217.559021 
L 219.545477 219.452779 
L 217.651719 218.496912 
" style="fill:none;opacity:0.5;stroke:#ff0000;stroke-linecap:round;stroke-width:1.25;"/>
   </g>
   <g id="[&quot;g_s&quot;:8,&quot;g_t&quot;:3,&quot;coords&quot;:[[137.0, -226.5],[138.0, -234.0]],&quot;certainty&quot;:5]">
    <path clip-path="url(#p4770da848d)" d="M 100.373058 293.275502 
C 101.471116 293.275502 102.524348 292.770546 103.300792 291.871843 
C 104.077236 290.973141 104.513499 289.754068 104.513499 288.483111 
C 104.513499 287.212154 104.077236 285.993082 103.300792 285.094379 
C 102.524348 284.195677 101.471116 283.69072 100.373058 283.69072 
C 99.275001 283.69072 98.221769 284.195677 97.445325 285.094379 
C 96.668881 285.993082 96.232618 287.212154 96.232618 288.483111 
C 96.232618 289.754068 96.668881 290.973141 97.445325 291.871843 
C 98.221769 292.770546 99.275001 293.275502 100.373058 293.275502 
z
" style="fill:#0000ff;opacity:0.2;stroke:#0000ff;stroke-linejoin:miter;stroke-width:2;"/>
   </g>
   <g id="[&quot;g_s&quot;:3,&quot;g_t&quot;:8,&quot;coords&quot;:[[138.0, -234.0],[137.0, -226.5]],&quot;certainty&quot;:5]">
    <path clip-path="url(#p4770da848d)" d="M 101.753205 305.25648 
C 102.851263 305.25648 103.904495 304.751523 104.680939 303.852821 
C 105.457383 302.954118 105.893646 301.735046 105.893646 300.464089 
C 105.893646 299.193132 105.457383 297.974059 104.680939 297.075357 
C 103.904495 296.176654 102.851263 295.671698 101.753205 295.671698 
C 100.655147 295.671698 99.601916 296.176654 98.825472 297.075357 
C 98.049027 297.974059 97.612765 299.193132 97.612765 300.464089 
C 97.612765 301.735046 98.049027 302.954118 98.825472 303.852821 
C 99.601916 304.751523 100.655147 305.25648 101.753205 305.25648 
z
" style="fill:#ff0000;opacity:0.2;stroke:#ff0000;stroke-linejoin:miter;stroke-width:2;"/>
   </g>
   <g id="patch_41">
    <path d="M 100.373058 288.483111 
Q 100.948737 293.480548 101.403036 297.424292 
" style="fill:none;opacity:0.5;stroke:#ff0000;stroke-linecap:round;stroke-width:1.5;"/>
    <path d="M 102.721525 295.76249 
L 101.403036 297.424292 
L 99.741234 296.105804 
" style="fill:none;opacity:0.5;stroke:#ff0000;stroke-linecap:round;stroke-width:1.5;"/>
   </g>
   <g id="[&quot;g_s&quot;:9,&quot;g_t&quot;:4,&quot;coords&quot;:[[120.0, -222.5],[107.0, -228.0]],&quot;certainty&quot;:5]">
    <path clip-path="url(#p4770da848d)" d="M 76.910561 286.885648 
C 78.008619 286.885648 79.061851 286.380691 79.838295 285.481989 
C 80.614739 284.583287 81.051002 283.364214 81.051002 282.093257 
C 81.051002 280.8223 80.614739 279.603227 79.838295 278.704525 
C 79.061851 277.805822 78.008619 277.300866 76.910561 277.300866 
C 75.812504 277.300866 74.759272 277.805822 73.982828 278.704525 
C 73.206384 279.603227 72.770121 280.8223 72.770121 282.093257 
C 72.770121 283.364214 73.206384 284.583287 73.982828 285.481989 
C 74.759272 286.380691 75.812504 286.885648 76.910561 286.885648 
z
" style="fill:#0000ff;opacity:0.2;stroke:#0000ff;stroke-linejoin:miter;stroke-width:2;"/>
   </g>
   <g id="[&quot;g_s&quot;:4,&quot;g_t&quot;:9,&quot;coords&quot;:[[107.0, -228.0],[120.0, -222.5]],&quot;certainty&quot;:5]">
    <path clip-path="url(#p4770da848d)" d="M 58.968652 295.671698 
C 60.066709 295.671698 61.119941 295.166741 61.896385 294.268039 
C 62.672829 293.369337 63.109092 292.150264 63.109092 290.879307 
C 63.109092 289.60835 62.672829 288.389277 61.896385 287.490575 
C 61.119941 286.591872 60.066709 286.086916 58.968652 286.086916 
C 57.870594 286.086916 56.817362 286.591872 56.040918 287.490575 
C 55.264474 288.389277 54.828211 289.60835 54.828211 290.879307 
C 54.828211 292.150264 55.264474 293.369337 56.040918 294.268039 
C 56.817362 295.166741 57.870594 295.671698 58.968652 295.671698 
z
" style="fill:#ff0000;opacity:0.2;stroke:#ff0000;stroke-linejoin:miter;stroke-width:2;"/>
   </g>
   <g id="patch_42">
    <path d="M 76.910561 282.093257 
Q 68.839768 286.045478 61.721553 289.531227 
" style="fill:none;opacity:0.5;stroke:#ff0000;stroke-linecap:round;stroke-width:1.5;"/>
    <path d="M 63.728392 290.218684 
L 61.721553 289.531227 
L 62.40901 287.524388 
" style="fill:none;opacity:0.5;stroke:#ff0000;stroke-linecap:round;stroke-width:1.5;"/>
   </g>
   <g id="[&quot;g_s&quot;:10,&quot;g_t&quot;:5,&quot;coords&quot;:[[157.0, -141.5],[148.0, -141.0]],&quot;certainty&quot;:11]">
    <path clip-path="url(#p4770da848d)" d="M 127.975996 162.283484 
C 130.172111 162.283484 132.278575 161.273571 133.831463 159.476166 
C 135.384351 157.678762 136.256877 155.240616 136.256877 152.698702 
C 136.256877 150.156788 135.384351 147.718643 133.831463 145.921238 
C 132.278575 144.123834 130.172111 143.11392 127.975996 143.11392 
C 125.779881 143.11392 123.673417 144.123834 122.120529 145.921238 
C 120.567641 147.718643 119.695115 150.156788 119.695115 152.698702 
C 119.695115 155.240616 120.567641 157.678762 122.120529 159.476166 
C 123.673417 161.273571 125.779881 162.283484 127.975996 162.283484 
z
" style="fill:#0000ff;opacity:0.2;stroke:#0000ff;stroke-linejoin:miter;stroke-width:2;"/>
   </g>
   <g id="[&quot;g_s&quot;:5,&quot;g_t&quot;:10,&quot;coords&quot;:[[148.0, -141.0],[157.0, -141.5]],&quot;certainty&quot;:11]">
    <path clip-path="url(#p4770da848d)" d="M 115.554674 161.484752 
C 117.750789 161.484752 119.857253 160.474839 121.410141 158.677435 
C 122.963029 156.88003 123.835555 154.441884 123.835555 151.89997 
C 123.835555 149.358057 122.963029 146.919911 121.410141 145.122506 
C 119.857253 143.325102 117.750789 142.315189 115.554674 142.315189 
C 113.358559 142.315189 111.252095 143.325102 109.699207 145.122506 
C 108.146319 146.919911 107.273793 149.358057 107.273793 151.89997 
C 107.273793 154.441884 108.146319 156.88003 109.699207 158.677435 
C 111.252095 160.474839 113.358559 161.484752 115.554674 161.484752 
z
" style="fill:#ff0000;opacity:0.2;stroke:#ff0000;stroke-linejoin:miter;stroke-width:2;"/>
   </g>
   <g id="patch_43">
    <path d="M 127.975996 152.698702 
Q 122.76456 152.36359 119.670072 152.164604 
" style="fill:none;opacity:0.5;stroke:#ff0000;stroke-linecap:round;stroke-width:3;"/>
    <path d="M 121.070724 153.757769 
L 119.670072 152.164604 
L 121.263237 150.763952 
" style="fill:none;opacity:0.5;stroke:#ff0000;stroke-linecap:round;stroke-width:3;"/>
   </g>
   <g id="patch_44">
    <path clip-path="url(#p4770da848d)" d="M 292.903549 221.789005 
C 294.733645 221.789005 296.489032 220.94741 297.783105 219.449573 
C 299.077178 217.951736 299.804283 215.919948 299.804283 213.801686 
C 299.804283 211.683425 299.077178 209.651637 297.783105 208.1538 
C 296.489032 206.655962 294.733645 205.814368 292.903549 205.814368 
C 291.073453 205.814368 289.318066 206.655962 288.023993 208.1538 
C 286.729919 209.651637 286.002814 211.683425 286.002814 213.801686 
C 286.002814 215.919948 286.729919 217.951736 288.023993 219.449573 
C 289.318066 220.94741 291.073453 221.789005 292.903549 221.789005 
z
" style="fill:#008000;opacity:0.2;stroke:#008000;stroke-linejoin:miter;stroke-width:2;"/>
   </g>
   <g id="patch_45">
    <path clip-path="url(#p4770da848d)" d="M 217.685544 221.789005 
C 219.51564 221.789005 221.271026 220.94741 222.5651 219.449573 
C 223.859173 217.951736 224.586278 215.919948 224.586278 213.801686 
C 224.586278 211.683425 223.859173 209.651637 222.5651 208.1538 
C 221.271026 206.655962 219.51564 205.814368 217.685544 205.814368 
C 215.855447 205.814368 214.100061 206.655962 212.805987 208.1538 
C 211.511914 209.651637 210.784809 211.683425 210.784809 213.801686 
C 210.784809 215.919948 211.511914 217.951736 212.805987 219.449573 
C 214.100061 220.94741 215.855447 221.789005 217.685544 221.789005 
z
" style="fill:#008000;opacity:0.2;stroke:#008000;stroke-linejoin:miter;stroke-width:2;"/>
   </g>
   <g id="patch_46">
    <path clip-path="url(#p4770da848d)" d="M 101.063132 302.460918 
C 102.893228 302.460918 104.648614 301.619324 105.942688 300.121487 
C 107.236761 298.62365 107.963866 296.591862 107.963866 294.4736 
C 107.963866 292.355338 107.236761 290.32355 105.942688 288.825713 
C 104.648614 287.327876 102.893228 286.486282 101.063132 286.486282 
C 99.233036 286.486282 97.477649 287.327876 96.183576 288.825713 
C 94.889502 290.32355 94.162397 292.355338 94.162397 294.4736 
C 94.162397 296.591862 94.889502 298.62365 96.183576 300.121487 
C 97.477649 301.619324 99.233036 302.460918 101.063132 302.460918 
z
" style="fill:#008000;opacity:0.2;stroke:#008000;stroke-linejoin:miter;stroke-width:2;"/>
   </g>
   <g id="patch_47">
    <path clip-path="url(#p4770da848d)" d="M 67.939606 294.4736 
C 69.769703 294.4736 71.525089 293.632006 72.819163 292.134169 
C 74.113236 290.636332 74.840341 288.604543 74.840341 286.486282 
C 74.840341 284.36802 74.113236 282.336232 72.819163 280.838395 
C 71.525089 279.340558 69.769703 278.498964 67.939606 278.498964 
C 66.10951 278.498964 64.354124 279.340558 63.06005 280.838395 
C 61.765977 282.336232 61.038872 284.36802 61.038872 286.486282 
C 61.038872 288.604543 61.765977 290.636332 63.06005 292.134169 
C 64.354124 293.632006 66.10951 294.4736 67.939606 294.4736 
z
" style="fill:#008000;opacity:0.2;stroke:#008000;stroke-linejoin:miter;stroke-width:2;"/>
   </g>
   <g id="patch_48">
    <path clip-path="url(#p4770da848d)" d="M 121.765335 160.286655 
C 123.595431 160.286655 125.350818 159.44506 126.644891 157.947223 
C 127.938965 156.449386 128.666069 154.417598 128.666069 152.299336 
C 128.666069 150.181075 127.938965 148.149287 126.644891 146.65145 
C 125.350818 145.153612 123.595431 144.312018 121.765335 144.312018 
C 119.935239 144.312018 118.179852 145.153612 116.885779 146.65145 
C 115.591706 148.149287 114.864601 150.181075 114.864601 152.299336 
C 114.864601 154.417598 115.591706 156.449386 116.885779 157.947223 
C 118.179852 159.44506 119.935239 160.286655 121.765335 160.286655 
z
" style="fill:#008000;opacity:0.2;stroke:#008000;stroke-linejoin:miter;stroke-width:2;"/>
   </g>
   <g id="patch_49">
    <path clip-path="url(#p4770da848d)" d="M 201.813854 119.551332 
C 203.643951 119.551332 205.399337 118.709738 206.69341 117.2119 
C 207.987484 115.714063 208.714589 113.682275 208.714589 111.564014 
C 208.714589 109.445752 207.987484 107.413964 206.69341 105.916127 
C 205.399337 104.41829 203.643951 103.576695 201.813854 103.576695 
C 199.983758 103.576695 198.228372 104.41829 196.934298 105.916127 
C 195.640225 107.413964 194.91312 109.445752 194.91312 111.564014 
C 194.91312 113.682275 195.640225 115.714063 196.934298 117.2119 
C 198.228372 118.709738 199.983758 119.551332 201.813854 119.551332 
z
" style="fill:#008000;opacity:0.2;stroke:#008000;stroke-linejoin:miter;stroke-width:2;"/>
   </g>
   <g id="patch_50">
    <path clip-path="url(#p4770da848d)" d="M 277.721933 119.551332 
C 279.552029 119.551332 281.307416 118.709738 282.601489 117.2119 
C 283.895563 115.714063 284.622668 113.682275 284.622668 111.564014 
C 284.622668 109.445752 283.895563 107.413964 282.601489 105.916127 
C 281.307416 104.41829 279.552029 103.576695 277.721933 103.576695 
C 275.891837 103.576695 274.13645 104.41829 272.842377 105.916127 
C 271.548304 107.413964 270.821199 109.445752 270.821199 111.564014 
C 270.821199 113.682275 271.548304 115.714063 272.842377 117.2119 
C 274.13645 118.709738 275.891837 119.551332 277.721933 119.551332 
z
" style="fill:#008000;opacity:0.2;stroke:#008000;stroke-linejoin:miter;stroke-width:2;"/>
   </g>
   <g id="patch_51">
    <path clip-path="url(#p4770da848d)" d="M 384.683317 50.860395 
C 386.513413 50.860395 388.268799 50.018801 389.562873 48.520964 
C 390.856946 47.023127 391.584051 44.991339 391.584051 42.873077 
C 391.584051 40.754816 390.856946 38.723028 389.562873 37.22519 
C 388.268799 35.727353 386.513413 34.885759 384.683317 34.885759 
C 382.853221 34.885759 381.097834 35.727353 379.803761 37.22519 
C 378.509687 38.723028 377.782582 40.754816 377.782582 42.873077 
C 377.782582 44.991339 378.509687 47.023127 379.803761 48.520964 
C 381.097834 50.018801 382.853221 50.860395 384.683317 50.860395 
z
" style="fill:#008000;opacity:0.2;stroke:#008000;stroke-linejoin:miter;stroke-width:2;"/>
   </g>
   <g id="patch_52">
    <path clip-path="url(#p4770da848d)" d="M 417.116769 59.646445 
C 418.946865 59.646445 420.702251 58.804851 421.996325 57.307014 
C 423.290398 55.809177 424.017503 53.777389 424.017503 51.659127 
C 424.017503 49.540866 423.290398 47.509078 421.996325 46.01124 
C 420.702251 44.513403 418.946865 43.671809 417.116769 43.671809 
C 415.286672 43.671809 413.531286 44.513403 412.237212 46.01124 
C 410.943139 47.509078 410.216034 49.540866 410.216034 51.659127 
C 410.216034 53.777389 410.943139 55.809177 412.237212 57.307014 
C 413.531286 58.804851 415.286672 59.646445 417.116769 59.646445 
z
" style="fill:#008000;opacity:0.2;stroke:#008000;stroke-linejoin:miter;stroke-width:2;"/>
   </g>
   <g id="patch_53">
    <path clip-path="url(#p4770da848d)" d="M 368.121554 186.644805 
C 369.95165 186.644805 371.707037 185.80321 373.00111 184.305373 
C 374.295184 182.807536 375.022289 180.775748 375.022289 178.657486 
C 375.022289 176.539225 374.295184 174.507437 373.00111 173.0096 
C 371.707037 171.511762 369.95165 170.670168 368.121554 170.670168 
C 366.291458 170.670168 364.536071 171.511762 363.241998 173.0096 
C 361.947925 174.507437 361.22082 176.539225 361.22082 178.657486 
C 361.22082 180.775748 361.947925 182.807536 363.241998 184.305373 
C 364.536071 185.80321 366.291458 186.644805 368.121554 186.644805 
z
" style="fill:#008000;opacity:0.2;stroke:#008000;stroke-linejoin:miter;stroke-width:2;"/>
   </g>
   <g id="patch_54">
    <path clip-path="url(#p4770da848d)" d="M 297.734063 254.137643 
C 305.054448 254.137643 312.075994 250.771266 317.252287 244.779918 
C 322.428581 238.788569 325.337001 230.661417 325.337001 222.18837 
C 325.337001 213.715324 322.428581 205.588171 317.252287 199.596823 
C 312.075994 193.605475 305.054448 190.239098 297.734063 190.239098 
C 290.413678 190.239098 283.392132 193.605475 278.215838 199.596823 
C 273.039545 205.588171 270.131125 213.715324 270.131125 222.18837 
C 270.131125 230.661417 273.039545 238.788569 278.215838 244.779918 
C 283.392132 250.771266 290.413678 254.137643 297.734063 254.137643 
z
" style="fill:none;opacity:0.2;stroke:#ff0000;stroke-linejoin:miter;stroke-width:2;"/>
   </g>
   <g id="patch_55">
    <path clip-path="url(#p4770da848d)" d="M 203.884075 147.906311 
C 211.204459 147.906311 218.226006 144.539934 223.402299 138.548586 
C 228.578593 132.557238 231.487012 124.430085 231.487012 115.957039 
C 231.487012 107.483992 228.578593 99.35684 223.402299 93.365491 
C 218.226006 87.374143 211.204459 84.007766 203.884075 84.007766 
C 196.56369 84.007766 189.542144 87.374143 184.36585 93.365491 
C 179.189557 99.35684 176.281137 107.483992 176.281137 115.957039 
C 176.281137 124.430085 179.189557 132.557238 184.36585 138.548586 
C 189.542144 144.539934 196.56369 147.906311 203.884075 147.906311 
z
" style="fill:none;opacity:0.2;stroke:#0000ff;stroke-linejoin:miter;stroke-width:2;"/>
   </g>
   <g id="patch_56">
    <path clip-path="url(#p4770da848d)" d="M 297.734063 238.163007 
C 301.394255 238.163007 304.905028 236.479818 307.493175 233.484144 
C 310.081322 230.48847 311.535532 226.424894 311.535532 222.18837 
C 311.535532 217.951847 310.081322 213.888271 307.493175 210.892597 
C 304.905028 207.896923 301.394255 206.213734 297.734063 206.213734 
C 294.073871 206.213734 290.563098 207.896923 287.974951 210.892597 
C 285.386804 213.888271 283.932594 217.951847 283.932594 222.18837 
C 283.932594 226.424894 285.386804 230.48847 287.974951 233.484144 
C 290.563098 236.479818 294.073871 238.163007 297.734063 238.163007 
z
" style="fill:none;opacity:0.2;stroke:#008000;stroke-linejoin:miter;stroke-width:2;"/>
   </g>
   <g id="patch_57">
    <path clip-path="url(#p4770da848d)" d="M 288.073035 221.389639 
C 291.733227 221.389639 295.244 219.70645 297.832147 216.710776 
C 300.420294 213.715102 301.874504 209.651525 301.874504 205.415002 
C 301.874504 201.178479 300.420294 197.114903 297.832147 194.119229 
C 295.244 191.123554 291.733227 189.440366 288.073035 189.440366 
C 284.412842 189.440366 280.902069 191.123554 278.313923 194.119229 
C 275.725776 197.114903 274.271566 201.178479 274.271566 205.415002 
C 274.271566 209.651525 275.725776 213.715102 278.313923 216.710776 
C 280.902069 219.70645 284.412842 221.389639 288.073035 221.389639 
z
" style="fill:none;opacity:0.2;stroke:#008000;stroke-linejoin:miter;stroke-width:2;"/>
   </g>
   <g id="patch_58">
    <path d="M 292.903549 213.801686 
Q 255.294546 213.801686 217.685544 213.801686 
" style="fill:none;opacity:0.5;stroke:#008000;stroke-linecap:round;stroke-width:2;"/>
   </g>
   <g id="patch_59">
    <path d="M 297.028221 220.962896 
Q 293.402403 214.667792 289.776585 208.372687 
" style="fill:none;opacity:0.5;stroke:#800080;stroke-linecap:round;stroke-width:2;"/>
    <path d="M 297.579375 218.914426 
L 297.028221 220.962896 
L 294.979751 220.411742 
" style="fill:none;opacity:0.5;stroke:#800080;stroke-linecap:round;stroke-width:2;"/>
    <path d="M 289.225431 210.421157 
L 289.776585 208.372687 
L 291.825055 208.923841 
" style="fill:none;opacity:0.5;stroke:#800080;stroke-linecap:round;stroke-width:2;"/>
   </g>
   <g id="patch_60">
    <path d="M 217.685544 213.801686 
Q 159.374338 254.137643 101.063132 294.4736 
" style="fill:none;opacity:0.5;stroke:#008000;stroke-linecap:round;stroke-width:2;"/>
   </g>
   <g id="patch_61">
    <path d="M 220.003711 220.845045 
Q 217.997559 214.749693 215.991407 208.654341 
" style="fill:none;opacity:0.5;stroke:#800080;stroke-linecap:round;stroke-width:2;"/>
    <path d="M 220.959577 218.951287 
L 220.003711 220.845045 
L 218.109953 219.889178 
" style="fill:none;opacity:0.5;stroke:#800080;stroke-linecap:round;stroke-width:2;"/>
    <path d="M 215.035541 210.548099 
L 215.991407 208.654341 
L 217.885165 209.610208 
" style="fill:none;opacity:0.5;stroke:#800080;stroke-linecap:round;stroke-width:2;"/>
   </g>
   <g id="patch_62">
    <path d="M 101.063132 294.4736 
Q 84.501369 290.479941 67.939606 286.486282 
" style="fill:none;opacity:0.5;stroke:#008000;stroke-linecap:round;stroke-width:2;"/>
   </g>
   <g id="patch_63">
    <path d="M 101.591365 299.059166 
Q 101.177526 295.466652 100.763687 291.874138 
" style="fill:none;opacity:0.5;stroke:#800080;stroke-linecap:round;stroke-width:2;"/>
    <path d="M 102.909854 297.397363 
L 101.591365 299.059166 
L 99.929563 297.740677 
" style="fill:none;opacity:0.5;stroke:#800080;stroke-linecap:round;stroke-width:2;"/>
    <path d="M 99.445199 293.535941 
L 100.763687 291.874138 
L 102.42549 293.192627 
" style="fill:none;opacity:0.5;stroke:#800080;stroke-linecap:round;stroke-width:2;"/>
   </g>
   <g id="patch_64">
    <path d="M 67.939606 286.486282 
Q 94.852471 219.392809 121.765335 152.299336 
" style="fill:none;opacity:0.5;stroke:#008000;stroke-linecap:round;stroke-width:2;"/>
   </g>
   <g id="patch_65">
    <path d="M 60.238755 290.257344 
Q 67.039445 286.927086 73.840134 283.596827 
" style="fill:none;opacity:0.5;stroke:#800080;stroke-linecap:round;stroke-width:2;"/>
    <path d="M 62.245594 290.944802 
L 60.238755 290.257344 
L 60.926213 288.250506 
" style="fill:none;opacity:0.5;stroke:#800080;stroke-linecap:round;stroke-width:2;"/>
    <path d="M 71.833295 282.90937 
L 73.840134 283.596827 
L 73.152677 285.603666 
" style="fill:none;opacity:0.5;stroke:#800080;stroke-linecap:round;stroke-width:2;"/>
   </g>
   <g id="patch_66">
    <path d="M 121.765335 152.299336 
Q 161.789595 131.931675 201.813854 111.564014 
" style="fill:none;opacity:0.5;stroke:#008000;stroke-linecap:round;stroke-width:2;"/>
   </g>
   <g id="patch_67">
    <path d="M 116.965973 151.990722 
Q 120.76611 152.235083 124.566247 152.479444 
" style="fill:none;opacity:0.5;stroke:#800080;stroke-linecap:round;stroke-width:2;"/>
    <path d="M 118.366625 153.583886 
L 116.965973 151.990722 
L 118.559137 150.590069 
" style="fill:none;opacity:0.5;stroke:#800080;stroke-linecap:round;stroke-width:2;"/>
    <path d="M 123.165595 150.88628 
L 124.566247 152.479444 
L 122.973083 153.880096 
" style="fill:none;opacity:0.5;stroke:#800080;stroke-linecap:round;stroke-width:2;"/>
   </g>
   <g id="patch_68">
    <path d="M 201.813854 111.564014 
Q 239.767894 111.564014 277.721933 111.564014 
" style="fill:none;opacity:0.5;stroke:#008000;stroke-linecap:round;stroke-width:2;"/>
   </g>
   <g id="patch_69">
    <path d="M 200.346497 108.450268 
Q 201.388287 110.660955 202.430077 112.871642 
" style="fill:none;opacity:0.5;stroke:#800080;stroke-linecap:round;stroke-width:2;"/>
    <path d="M 199.629048 110.446582 
L 200.346497 108.450268 
L 202.34281 109.167717 
" style="fill:none;opacity:0.5;stroke:#800080;stroke-linecap:round;stroke-width:2;"/>
    <path d="M 203.147525 110.875329 
L 202.430077 112.871642 
L 200.433763 112.154194 
" style="fill:none;opacity:0.5;stroke:#800080;stroke-linecap:round;stroke-width:2;"/>
   </g>
   <g id="patch_70">
    <path d="M 277.721933 111.564014 
Q 331.202625 77.218545 384.683317 42.873077 
" style="fill:none;opacity:0.5;stroke:#008000;stroke-linecap:round;stroke-width:2;"/>
   </g>
   <g id="patch_71">
    <path d="M 277.251319 108.56807 
Q 277.566599 110.575154 277.88188 112.582238 
" style="fill:none;opacity:0.5;stroke:#800080;stroke-linecap:round;stroke-width:2;"/>
    <path d="M 276.002261 110.282671 
L 277.251319 108.56807 
L 278.965919 109.817128 
" style="fill:none;opacity:0.5;stroke:#800080;stroke-linecap:round;stroke-width:2;"/>
    <path d="M 279.130937 110.867637 
L 277.88188 112.582238 
L 276.167279 111.33318 
" style="fill:none;opacity:0.5;stroke:#800080;stroke-linecap:round;stroke-width:2;"/>
   </g>
   <g id="patch_72">
    <path d="M 384.683317 42.873077 
Q 400.900043 47.266102 417.116769 51.659127 
" style="fill:none;opacity:0.5;stroke:#008000;stroke-linecap:round;stroke-width:2;"/>
   </g>
   <g id="patch_73">
    <path d="M 384.683317 33.504411 
Q 384.683317 41.874029 384.683317 50.243646 
" style="fill:none;opacity:0.5;stroke:#800080;stroke-linecap:round;stroke-width:2;"/>
    <path d="M 383.183317 35.004411 
L 384.683317 33.504411 
L 386.183317 35.004411 
" style="fill:none;opacity:0.5;stroke:#800080;stroke-linecap:round;stroke-width:2;"/>
    <path d="M 386.183317 48.743646 
L 384.683317 50.243646 
L 383.183317 48.743646 
" style="fill:none;opacity:0.5;stroke:#800080;stroke-linecap:round;stroke-width:2;"/>
   </g>
   <g id="patch_74">
    <path d="M 417.116769 51.659127 
Q 392.619161 115.158307 368.121554 178.657486 
" style="fill:none;opacity:0.5;stroke:#008000;stroke-linecap:round;stroke-width:2;"/>
   </g>
   <g id="patch_75">
    <path d="M 425.221705 41.195556 
Q 417.728922 50.868829 410.236139 60.542103 
" style="fill:none;opacity:0.5;stroke:#800080;stroke-linecap:round;stroke-width:2;"/>
    <path d="M 423.117294 41.462865 
L 425.221705 41.195556 
L 425.489015 43.299967 
" style="fill:none;opacity:0.5;stroke:#800080;stroke-linecap:round;stroke-width:2;"/>
    <path d="M 412.34055 60.274794 
L 410.236139 60.542103 
L 409.96883 58.437692 
" style="fill:none;opacity:0.5;stroke:#800080;stroke-linecap:round;stroke-width:2;"/>
   </g>
   <g id="patch_76">
    <path d="M 368.121554 178.657486 
Q 330.512551 196.229586 292.903549 213.801686 
" style="fill:none;opacity:0.5;stroke:#008000;stroke-linecap:round;stroke-width:2;"/>
   </g>
   <g id="patch_77">
    <path d="M 379.135196 177.595166 
Q 369.117747 178.561399 359.100298 179.527631 
" style="fill:none;opacity:0.5;stroke:#800080;stroke-linecap:round;stroke-width:2;"/>
    <path d="M 377.498111 176.24611 
L 379.135196 177.595166 
L 377.786139 179.232251 
" style="fill:none;opacity:0.5;stroke:#800080;stroke-linecap:round;stroke-width:2;"/>
    <path d="M 360.737382 180.876688 
L 359.100298 179.527631 
L 360.449354 177.890546 
" style="fill:none;opacity:0.5;stroke:#800080;stroke-linecap:round;stroke-width:2;"/>
   </g>
   <g id="line2d_1">
    <path clip-path="url(#p4770da848d)" d="M 297.734063 222.18837 
L 220.445837 222.18837 
L 101.753205 300.464089 
L 58.968652 290.879307 
L 115.554674 151.89997 
L 199.743634 107.170989 
L 277.03186 107.170989 
L 384.683317 32.090198 
L 426.087723 40.077516 
L 380.542876 177.459389 
" style="fill:none;stroke:#ff0000;stroke-linecap:square;stroke-width:0.2;"/>
   </g>
   <g id="line2d_2">
    <path clip-path="url(#p4770da848d)" d="M 203.884075 115.957039 
L 278.412007 115.957039 
L 384.683317 53.655957 
L 408.145814 63.240739 
L 355.700232 179.855584 
L 288.073035 205.415002 
L 214.92525 205.415002 
L 100.373058 288.483111 
L 76.910561 282.093257 
L 127.975996 152.698702 
" style="fill:none;stroke:#0000ff;stroke-linecap:square;stroke-width:0.2;"/>
   </g>
  </g>
 </g>
 <defs>
  <clipPath id="p4770da848d">
   <rect height="307.51175" width="409.903625" x="37.576375" y="13.32"/>
  </clipPath>
 </defs>
</svg>
