<?xml version="1.0" encoding="utf-8" standalone="no"?>
<!DOCTYPE svg PUBLIC "-//W3C//DTD SVG 1.1//EN"
  "http://www.w3.org/Graphics/SVG/1.1/DTD/svg11.dtd">
<!-- Created with matplotlib (http://matplotlib.org/) -->
<svg height="345.6pt" version="1.1" viewBox="0 0 460.8 345.6" width="460.8pt" xmlns="http://www.w3.org/2000/svg" xmlns:xlink="http://www.w3.org/1999/xlink">
 <defs>
  <style type="text/css">
*{stroke-linecap:butt;stroke-linejoin:round;}
  </style>
 </defs>
 <g id="figure_1">
  <g id="patch_1">
   <path d="M 0 345.6 
L 460.8 345.6 
L 460.8 0 
L 0 0 
z
" style="fill:#ffffff;"/>
  </g>
  <g id="axes_1">
   <g id="patch_2">
    <path clip-path="url(#pf44bd8f1bc)" d="M 132.399108 261.852224 
C 132.862546 261.852224 133.307065 261.56485 133.634765 261.053393 
C 133.962464 260.541937 134.14659 259.848156 134.14659 259.124847 
C 134.14659 258.401538 133.962464 257.707757 133.634765 257.1963 
C 133.307065 256.684843 132.862546 256.39747 132.399108 256.39747 
C 131.935671 256.39747 131.491152 256.684843 131.163452 257.1963 
C 130.835752 257.707757 130.651626 258.401538 130.651626 259.124847 
C 130.651626 259.848156 130.835752 260.541937 131.163452 261.053393 
C 131.491152 261.56485 131.935671 261.852224 132.399108 261.852224 
z
" style="fill:#ff0000;opacity:0.2;stroke:#ff0000;stroke-linejoin:miter;stroke-width:2;"/>
   </g>
   <g id="patch_3">
    <path clip-path="url(#pf44bd8f1bc)" d="M 61.626094 151.393458 
C 62.089531 151.393458 62.53405 151.106084 62.86175 150.594627 
C 63.18945 150.083171 63.373576 149.389389 63.373576 148.666081 
C 63.373576 147.942772 63.18945 147.24899 62.86175 146.737534 
C 62.53405 146.226077 62.089531 145.938704 61.626094 145.938704 
C 61.162656 145.938704 60.718137 146.226077 60.390438 146.737534 
C 60.062738 147.24899 59.878612 147.942772 59.878612 148.666081 
C 59.878612 149.389389 60.062738 150.083171 60.390438 150.594627 
C 60.718137 151.106084 61.162656 151.393458 61.626094 151.393458 
z
" style="fill:#ff0000;opacity:0.2;stroke:#ff0000;stroke-linejoin:miter;stroke-width:2;"/>
   </g>
   <g id="patch_4">
    <path clip-path="url(#pf44bd8f1bc)" d="M 132.399108 38.207315 
C 132.862546 38.207315 133.307065 37.919941 133.634765 37.408484 
C 133.962464 36.897028 134.14659 36.203246 134.14659 35.479938 
C 134.14659 34.756629 133.962464 34.062847 133.634765 33.551391 
C 133.307065 33.039934 132.862546 32.752561 132.399108 32.752561 
C 131.935671 32.752561 131.491152 33.039934 131.163452 33.551391 
C 130.835752 34.062847 130.651626 34.756629 130.651626 35.479938 
C 130.651626 36.203246 130.835752 36.897028 131.163452 37.408484 
C 131.491152 37.919941 131.935671 38.207315 132.399108 38.207315 
z
" style="fill:#ff0000;opacity:0.2;stroke:#ff0000;stroke-linejoin:miter;stroke-width:2;"/>
   </g>
   <g id="patch_5">
    <path clip-path="url(#pf44bd8f1bc)" d="M 203.172123 151.393458 
C 203.63556 151.393458 204.080079 151.106084 204.407779 150.594627 
C 204.735479 150.083171 204.919605 149.389389 204.919605 148.666081 
C 204.919605 147.942772 204.735479 147.24899 204.407779 146.737534 
C 204.080079 146.226077 203.63556 145.938704 203.172123 145.938704 
C 202.708685 145.938704 202.264166 146.226077 201.936466 146.737534 
C 201.608767 147.24899 201.424641 147.942772 201.424641 148.666081 
C 201.424641 149.389389 201.608767 150.083171 201.936466 150.594627 
C 202.264166 151.106084 202.708685 151.393458 203.172123 151.393458 
z
" style="fill:#ff0000;opacity:0.2;stroke:#ff0000;stroke-linejoin:miter;stroke-width:2;"/>
   </g>
   <g id="patch_6">
    <path clip-path="url(#pf44bd8f1bc)" d="M 132.399108 140.48395 
C 132.862546 140.48395 133.307065 140.196576 133.634765 139.68512 
C 133.962464 139.173663 134.14659 138.479882 134.14659 137.756573 
C 134.14659 137.033264 133.962464 136.339483 133.634765 135.828026 
C 133.307065 135.31657 132.862546 135.029196 132.399108 135.029196 
C 131.935671 135.029196 131.491152 135.31657 131.163452 135.828026 
C 130.835752 136.339483 130.651626 137.033264 130.651626 137.756573 
C 130.651626 138.479882 130.835752 139.173663 131.163452 139.68512 
C 131.491152 140.196576 131.935671 140.48395 132.399108 140.48395 
z
" style="fill:#0000ff;opacity:0.2;stroke:#0000ff;stroke-linejoin:miter;stroke-width:2;"/>
   </g>
   <g id="patch_7">
    <path clip-path="url(#pf44bd8f1bc)" d="M 181.3286 220.94157 
C 181.792037 220.94157 182.236556 220.654196 182.564256 220.142739 
C 182.891956 219.631283 183.076082 218.937501 183.076082 218.214193 
C 183.076082 217.490884 182.891956 216.797102 182.564256 216.285646 
C 182.236556 215.774189 181.792037 215.486816 181.3286 215.486816 
C 180.865162 215.486816 180.420643 215.774189 180.092944 216.285646 
C 179.765244 216.797102 179.581118 217.490884 179.581118 218.214193 
C 179.581118 218.937501 179.765244 219.631283 180.092944 220.142739 
C 180.420643 220.654196 180.865162 220.94157 181.3286 220.94157 
z
" style="fill:#0000ff;opacity:0.2;stroke:#0000ff;stroke-linejoin:miter;stroke-width:2;"/>
   </g>
   <g id="patch_8">
    <path clip-path="url(#pf44bd8f1bc)" d="M 132.399108 295.944435 
C 132.862546 295.944435 133.307065 295.657062 133.634765 295.145605 
C 133.962464 294.634149 134.14659 293.940367 134.14659 293.217058 
C 134.14659 292.49375 133.962464 291.799968 133.634765 291.288512 
C 133.307065 290.777055 132.862546 290.489682 132.399108 290.489682 
C 131.935671 290.489682 131.491152 290.777055 131.163452 291.288512 
C 130.835752 291.799968 130.651626 292.49375 130.651626 293.217058 
C 130.651626 293.940367 130.835752 294.634149 131.163452 295.145605 
C 131.491152 295.657062 131.935671 295.944435 132.399108 295.944435 
z
" style="fill:#0000ff;opacity:0.2;stroke:#0000ff;stroke-linejoin:miter;stroke-width:2;"/>
   </g>
   <g id="patch_9">
    <path clip-path="url(#pf44bd8f1bc)" d="M 83.469617 220.94157 
C 83.933054 220.94157 84.377573 220.654196 84.705273 220.142739 
C 85.032973 219.631283 85.217099 218.937501 85.217099 218.214193 
C 85.217099 217.490884 85.032973 216.797102 84.705273 216.285646 
C 84.377573 215.774189 83.933054 215.486816 83.469617 215.486816 
C 83.006179 215.486816 82.56166 215.774189 82.233961 216.285646 
C 81.906261 216.797102 81.722135 217.490884 81.722135 218.214193 
C 81.722135 218.937501 81.906261 219.631283 82.233961 220.142739 
C 82.56166 220.654196 83.006179 220.94157 83.469617 220.94157 
z
" style="fill:#0000ff;opacity:0.2;stroke:#0000ff;stroke-linejoin:miter;stroke-width:2;"/>
   </g>
   <g id="patch_10">
    <path clip-path="url(#pf44bd8f1bc)" d="M 132.399108 259.124847 
C 97.449472 259.124847 61.626094 215.486816 61.626094 148.666081 
C 61.626094 84.572723 93.080767 35.479938 132.399108 35.479938 
C 174.338672 35.479938 203.172123 90.027476 203.172123 148.666081 
C 203.172123 211.39575 174.338672 259.124847 132.399108 259.124847 
" style="fill:none;stroke:#ff0000;stroke-linejoin:miter;stroke-width:0.5;"/>
   </g>
   <g id="patch_11">
    <path clip-path="url(#pf44bd8f1bc)" d="M 132.399108 137.756573 
C 162.1063 137.756573 181.3286 174.576162 181.3286 218.214193 
C 181.3286 261.852224 162.1063 293.217058 132.399108 293.217058 
C 107.060622 293.217058 83.469617 264.579601 83.469617 218.214193 
C 83.469617 171.848785 104.439399 137.756573 132.399108 137.756573 
" style="fill:none;stroke:#0000ff;stroke-linejoin:miter;stroke-width:0.5;"/>
   </g>
   <g id="[&quot;g_s&quot;:1,&quot;g_t&quot;:3,&quot;coords&quot;:[[175.0, -714.0],[175.0, -739.0]],&quot;certainty&quot;:10]">
    <path clip-path="url(#pf44bd8f1bc)" d="M 132.399108 266.625133 
C 133.673562 266.625133 134.895988 265.834856 135.797163 264.42835 
C 136.698338 263.021845 137.204683 261.113946 137.204683 259.124847 
C 137.204683 257.135747 136.698338 255.227849 135.797163 253.821343 
C 134.895988 252.414838 133.673562 251.62456 132.399108 251.62456 
C 131.124655 251.62456 129.902228 252.414838 129.001054 253.821343 
C 128.099879 255.227849 127.593533 257.135747 127.593533 259.124847 
C 127.593533 261.113946 128.099879 263.021845 129.001054 264.42835 
C 129.902228 265.834856 131.124655 266.625133 132.399108 266.625133 
z
" style="fill:#0000ff;opacity:0.2;stroke:#0000ff;stroke-linejoin:miter;stroke-width:2;"/>
   </g>
   <g id="[&quot;g_s&quot;:3,&quot;g_t&quot;:1,&quot;coords&quot;:[[175.0, -739.0],[175.0, -714.0]],&quot;certainty&quot;:10]">
    <path clip-path="url(#pf44bd8f1bc)" d="M 132.399108 300.717345 
C 133.673562 300.717345 134.895988 299.927068 135.797163 298.520562 
C 136.698338 297.114056 137.204683 295.206158 137.204683 293.217058 
C 137.204683 291.227959 136.698338 289.320061 135.797163 287.913555 
C 134.895988 286.507049 133.673562 285.716772 132.399108 285.716772 
C 131.124655 285.716772 129.902228 286.507049 129.001054 287.913555 
C 128.099879 289.320061 127.593533 291.227959 127.593533 293.217058 
C 127.593533 295.206158 128.099879 297.114056 129.001054 298.520562 
C 129.902228 299.927068 131.124655 300.717345 132.399108 300.717345 
z
" style="fill:#ff0000;opacity:0.2;stroke:#ff0000;stroke-linejoin:miter;stroke-width:2;"/>
   </g>
   <g id="patch_12">
    <path d="M 132.399108 259.124847 
Q 132.399108 275.170077 132.399108 289.270763 
" style="fill:none;opacity:0.5;stroke:#0000ff;stroke-linecap:round;stroke-width:2.75;"/>
    <path d="M 133.899108 287.770763 
L 132.399108 289.270763 
L 130.899108 287.770763 
" style="fill:none;opacity:0.5;stroke:#0000ff;stroke-linecap:round;stroke-width:2.75;"/>
   </g>
   <g id="[&quot;g_s&quot;:2,&quot;g_t&quot;:4,&quot;coords&quot;:[[94.0, -633.0],[119.0, -684.0]],&quot;certainty&quot;:12]">
    <path clip-path="url(#pf44bd8f1bc)" d="M 61.626094 157.530056 
C 63.132266 157.530056 64.576952 156.596091 65.641977 154.933858 
C 66.707001 153.271624 67.30541 151.016834 67.30541 148.666081 
C 67.30541 146.315327 66.707001 144.060538 65.641977 142.398304 
C 64.576952 140.73607 63.132266 139.802106 61.626094 139.802106 
C 60.119922 139.802106 58.675236 140.73607 57.610211 142.398304 
C 56.545186 144.060538 55.946778 146.315327 55.946778 148.666081 
C 55.946778 151.016834 56.545186 153.271624 57.610211 154.933858 
C 58.675236 156.596091 60.119922 157.530056 61.626094 157.530056 
z
" style="fill:#0000ff;opacity:0.2;stroke:#0000ff;stroke-linejoin:miter;stroke-width:2;"/>
   </g>
   <g id="[&quot;g_s&quot;:4,&quot;g_t&quot;:2,&quot;coords&quot;:[[119.0, -684.0],[94.0, -633.0]],&quot;certainty&quot;:12]">
    <path clip-path="url(#pf44bd8f1bc)" d="M 83.469617 227.078168 
C 84.975789 227.078168 86.420475 226.144203 87.4855 224.481969 
C 88.550524 222.819736 89.148933 220.564946 89.148933 218.214193 
C 89.148933 215.863439 88.550524 213.60865 87.4855 211.946416 
C 86.420475 210.284182 84.975789 209.350218 83.469617 209.350218 
C 81.963445 209.350218 80.518759 210.284182 79.453734 211.946416 
C 78.388709 213.60865 77.790301 215.863439 77.790301 218.214193 
C 77.790301 220.564946 78.388709 222.819736 79.453734 224.481969 
C 80.518759 226.144203 81.963445 227.078168 83.469617 227.078168 
z
" style="fill:#ff0000;opacity:0.2;stroke:#ff0000;stroke-linejoin:miter;stroke-width:2;"/>
   </g>
   <g id="patch_13">
    <path d="M 61.626094 148.666081 
Q 72.248547 182.487161 82.182384 214.115741 
" style="fill:none;opacity:0.5;stroke:#0000ff;stroke-linecap:round;stroke-width:3.25;"/>
    <path d="M 83.16399 212.235196 
L 82.182384 214.115741 
L 80.301839 213.134135 
" style="fill:none;opacity:0.5;stroke:#0000ff;stroke-linecap:round;stroke-width:3.25;"/>
   </g>
   <g id="[&quot;g_s&quot;:3,&quot;g_t&quot;:1,&quot;coords&quot;:[[175.0, -550.0],[175.0, -625.0]],&quot;certainty&quot;:11]">
    <path clip-path="url(#pf44bd8f1bc)" d="M 132.399108 43.662068 
C 133.789421 43.662068 135.122977 42.799948 136.106077 41.265578 
C 137.089177 39.731208 137.641554 37.649864 137.641554 35.479938 
C 137.641554 33.310011 137.089177 31.228667 136.106077 29.694297 
C 135.122977 28.159928 133.789421 27.297807 132.399108 27.297807 
C 131.008795 27.297807 129.675239 28.159928 128.69214 29.694297 
C 127.70904 31.228667 127.156663 33.310011 127.156663 35.479938 
C 127.156663 37.649864 127.70904 39.731208 128.69214 41.265578 
C 129.675239 42.799948 131.008795 43.662068 132.399108 43.662068 
z
" style="fill:#0000ff;opacity:0.2;stroke:#0000ff;stroke-linejoin:miter;stroke-width:2;"/>
   </g>
   <g id="[&quot;g_s&quot;:1,&quot;g_t&quot;:3,&quot;coords&quot;:[[175.0, -625.0],[175.0, -550.0]],&quot;certainty&quot;:11]">
    <path clip-path="url(#pf44bd8f1bc)" d="M 132.399108 145.938704 
C 133.789421 145.938704 135.122977 145.076583 136.106077 143.542213 
C 137.089177 142.007843 137.641554 139.926499 137.641554 137.756573 
C 137.641554 135.586646 137.089177 133.505302 136.106077 131.970933 
C 135.122977 130.436563 133.789421 129.574442 132.399108 129.574442 
C 131.008795 129.574442 129.675239 130.436563 128.69214 131.970933 
C 127.70904 133.505302 127.156663 135.586646 127.156663 137.756573 
C 127.156663 139.926499 127.70904 142.007843 128.69214 143.542213 
C 129.675239 145.076583 131.008795 145.938704 132.399108 145.938704 
z
" style="fill:#ff0000;opacity:0.2;stroke:#ff0000;stroke-linejoin:miter;stroke-width:2;"/>
   </g>
   <g id="patch_14">
    <path d="M 132.399108 35.479938 
Q 132.399108 85.617899 132.399108 133.634541 
" style="fill:none;opacity:0.5;stroke:#0000ff;stroke-linecap:round;stroke-width:3;"/>
    <path d="M 133.899108 132.134541 
L 132.399108 133.634541 
L 130.899108 132.134541 
" style="fill:none;opacity:0.5;stroke:#0000ff;stroke-linecap:round;stroke-width:3;"/>
   </g>
   <g id="[&quot;g_s&quot;:4,&quot;g_t&quot;:2,&quot;coords&quot;:[[256.0, -633.0],[231.0, -684.0]],&quot;certainty&quot;:11]">
    <path clip-path="url(#pf44bd8f1bc)" d="M 203.172123 156.848211 
C 204.562436 156.848211 205.895992 155.986091 206.879092 154.451721 
C 207.862191 152.917351 208.414568 150.836007 208.414568 148.666081 
C 208.414568 146.496154 207.862191 144.41481 206.879092 142.88044 
C 205.895992 141.346071 204.562436 140.48395 203.172123 140.48395 
C 201.78181 140.48395 200.448254 141.346071 199.465154 142.88044 
C 198.482054 144.41481 197.929677 146.496154 197.929677 148.666081 
C 197.929677 150.836007 198.482054 152.917351 199.465154 154.451721 
C 200.448254 155.986091 201.78181 156.848211 203.172123 156.848211 
z
" style="fill:#0000ff;opacity:0.2;stroke:#0000ff;stroke-linejoin:miter;stroke-width:2;"/>
   </g>
   <g id="[&quot;g_s&quot;:2,&quot;g_t&quot;:4,&quot;coords&quot;:[[231.0, -684.0],[256.0, -633.0]],&quot;certainty&quot;:11]">
    <path clip-path="url(#pf44bd8f1bc)" d="M 181.3286 226.396323 
C 182.718913 226.396323 184.052469 225.534203 185.035569 223.999833 
C 186.018668 222.465463 186.571045 220.384119 186.571045 218.214193 
C 186.571045 216.044266 186.018668 213.962922 185.035569 212.428552 
C 184.052469 210.894183 182.718913 210.032062 181.3286 210.032062 
C 179.938287 210.032062 178.604731 210.894183 177.621631 212.428552 
C 176.638531 213.962922 176.086154 216.044266 176.086154 218.214193 
C 176.086154 220.384119 176.638531 222.465463 177.621631 223.999833 
C 178.604731 225.534203 179.938287 226.396323 181.3286 226.396323 
z
" style="fill:#ff0000;opacity:0.2;stroke:#ff0000;stroke-linejoin:miter;stroke-width:2;"/>
   </g>
   <g id="patch_15">
    <path d="M 203.172123 148.666081 
Q 192.54967 182.487161 182.562862 214.284395 
" style="fill:none;opacity:0.5;stroke:#0000ff;stroke-linecap:round;stroke-width:3;"/>
    <path d="M 184.443407 213.302789 
L 182.562862 214.284395 
L 181.581256 212.40385 
" style="fill:none;opacity:0.5;stroke:#0000ff;stroke-linecap:round;stroke-width:3;"/>
   </g>
   <g id="[&quot;g_s&quot;:1,&quot;g_t&quot;:3,&quot;coords&quot;:[[175.0, -625.0],[175.0, -550.0]],&quot;certainty&quot;:10]">
    <path clip-path="url(#pf44bd8f1bc)" d="M 132.399108 145.256859 
C 133.673562 145.256859 134.895988 144.466582 135.797163 143.060076 
C 136.698338 141.653571 137.204683 139.745672 137.204683 137.756573 
C 137.204683 135.767474 136.698338 133.859575 135.797163 132.453069 
C 134.895988 131.046564 133.673562 130.256286 132.399108 130.256286 
C 131.124655 130.256286 129.902228 131.046564 129.001054 132.453069 
C 128.099879 133.859575 127.593533 135.767474 127.593533 137.756573 
C 127.593533 139.745672 128.099879 141.653571 129.001054 143.060076 
C 129.902228 144.466582 131.124655 145.256859 132.399108 145.256859 
z
" style="fill:#0000ff;opacity:0.2;stroke:#0000ff;stroke-linejoin:miter;stroke-width:2;"/>
   </g>
   <g id="[&quot;g_s&quot;:3,&quot;g_t&quot;:1,&quot;coords&quot;:[[175.0, -550.0],[175.0, -625.0]],&quot;certainty&quot;:10]">
    <path clip-path="url(#pf44bd8f1bc)" d="M 132.399108 42.980224 
C 133.673562 42.980224 134.895988 42.189947 135.797163 40.783441 
C 136.698338 39.376936 137.204683 37.469037 137.204683 35.479938 
C 137.204683 33.490838 136.698338 31.58294 135.797163 30.176434 
C 134.895988 28.769929 133.673562 27.979651 132.399108 27.979651 
C 131.124655 27.979651 129.902228 28.769929 129.001054 30.176434 
C 128.099879 31.58294 127.593533 33.490838 127.593533 35.479938 
C 127.593533 37.469037 128.099879 39.376936 129.001054 40.783441 
C 129.902228 42.189947 131.124655 42.980224 132.399108 42.980224 
z
" style="fill:#ff0000;opacity:0.2;stroke:#ff0000;stroke-linejoin:miter;stroke-width:2;"/>
   </g>
   <g id="patch_16">
    <path d="M 132.399108 137.756573 
Q 132.399108 87.618611 132.399108 39.425193 
" style="fill:none;opacity:0.5;stroke:#ff0000;stroke-linecap:round;stroke-width:2.75;"/>
    <path d="M 130.899108 40.925193 
L 132.399108 39.425193 
L 133.899108 40.925193 
" style="fill:none;opacity:0.5;stroke:#ff0000;stroke-linecap:round;stroke-width:2.75;"/>
   </g>
   <g id="[&quot;g_s&quot;:2,&quot;g_t&quot;:4,&quot;coords&quot;:[[231.0, -684.0],[256.0, -633.0]],&quot;certainty&quot;:12]">
    <path clip-path="url(#pf44bd8f1bc)" d="M 181.3286 227.078168 
C 182.834772 227.078168 184.279458 226.144203 185.344483 224.481969 
C 186.409507 222.819736 187.007916 220.564946 187.007916 218.214193 
C 187.007916 215.863439 186.409507 213.60865 185.344483 211.946416 
C 184.279458 210.284182 182.834772 209.350218 181.3286 209.350218 
C 179.822428 209.350218 178.377742 210.284182 177.312717 211.946416 
C 176.247692 213.60865 175.649284 215.863439 175.649284 218.214193 
C 175.649284 220.564946 176.247692 222.819736 177.312717 224.481969 
C 178.377742 226.144203 179.822428 227.078168 181.3286 227.078168 
z
" style="fill:#0000ff;opacity:0.2;stroke:#0000ff;stroke-linejoin:miter;stroke-width:2;"/>
   </g>
   <g id="[&quot;g_s&quot;:4,&quot;g_t&quot;:2,&quot;coords&quot;:[[256.0, -633.0],[231.0, -684.0]],&quot;certainty&quot;:12]">
    <path clip-path="url(#pf44bd8f1bc)" d="M 203.172123 157.530056 
C 204.678295 157.530056 206.122981 156.596091 207.188006 154.933858 
C 208.25303 153.271624 208.851439 151.016834 208.851439 148.666081 
C 208.851439 146.315327 208.25303 144.060538 207.188006 142.398304 
C 206.122981 140.73607 204.678295 139.802106 203.172123 139.802106 
C 201.665951 139.802106 200.221264 140.73607 199.15624 142.398304 
C 198.091215 144.060538 197.492807 146.315327 197.492807 148.666081 
C 197.492807 151.016834 198.091215 153.271624 199.15624 154.933858 
C 200.221264 156.596091 201.665951 157.530056 203.172123 157.530056 
z
" style="fill:#ff0000;opacity:0.2;stroke:#ff0000;stroke-linejoin:miter;stroke-width:2;"/>
   </g>
   <g id="patch_17">
    <path d="M 181.3286 218.214193 
Q 191.951053 184.393112 201.88489 152.764532 
" style="fill:none;opacity:0.5;stroke:#ff0000;stroke-linecap:round;stroke-width:3.25;"/>
    <path d="M 200.004345 153.746139 
L 201.88489 152.764532 
L 202.866496 154.645077 
" style="fill:none;opacity:0.5;stroke:#ff0000;stroke-linecap:round;stroke-width:3.25;"/>
   </g>
   <g id="[&quot;g_s&quot;:3,&quot;g_t&quot;:1,&quot;coords&quot;:[[175.0, -739.0],[175.0, -714.0]],&quot;certainty&quot;:11]">
    <path clip-path="url(#pf44bd8f1bc)" d="M 132.399108 301.399189 
C 133.789421 301.399189 135.122977 300.537068 136.106077 299.002699 
C 137.089177 297.468329 137.641554 295.386985 137.641554 293.217058 
C 137.641554 291.047132 137.089177 288.965788 136.106077 287.431418 
C 135.122977 285.897049 133.789421 285.034928 132.399108 285.034928 
C 131.008795 285.034928 129.675239 285.897049 128.69214 287.431418 
C 127.70904 288.965788 127.156663 291.047132 127.156663 293.217058 
C 127.156663 295.386985 127.70904 297.468329 128.69214 299.002699 
C 129.675239 300.537068 131.008795 301.399189 132.399108 301.399189 
z
" style="fill:#0000ff;opacity:0.2;stroke:#0000ff;stroke-linejoin:miter;stroke-width:2;"/>
   </g>
   <g id="[&quot;g_s&quot;:1,&quot;g_t&quot;:3,&quot;coords&quot;:[[175.0, -714.0],[175.0, -739.0]],&quot;certainty&quot;:11]">
    <path clip-path="url(#pf44bd8f1bc)" d="M 132.399108 267.306978 
C 133.789421 267.306978 135.122977 266.444857 136.106077 264.910487 
C 137.089177 263.376117 137.641554 261.294773 137.641554 259.124847 
C 137.641554 256.95492 137.089177 254.873576 136.106077 253.339207 
C 135.122977 251.804837 133.789421 250.942716 132.399108 250.942716 
C 131.008795 250.942716 129.675239 251.804837 128.69214 253.339207 
C 127.70904 254.873576 127.156663 256.95492 127.156663 259.124847 
C 127.156663 261.294773 127.70904 263.376117 128.69214 264.910487 
C 129.675239 266.444857 131.008795 267.306978 132.399108 267.306978 
z
" style="fill:#ff0000;opacity:0.2;stroke:#ff0000;stroke-linejoin:miter;stroke-width:2;"/>
   </g>
   <g id="patch_18">
    <path d="M 132.399108 293.217058 
Q 132.399108 277.171829 132.399108 263.247919 
" style="fill:none;opacity:0.5;stroke:#ff0000;stroke-linecap:round;stroke-width:3;"/>
    <path d="M 130.899108 264.747919 
L 132.399108 263.247919 
L 133.899108 264.747919 
" style="fill:none;opacity:0.5;stroke:#ff0000;stroke-linecap:round;stroke-width:3;"/>
   </g>
   <g id="[&quot;g_s&quot;:4,&quot;g_t&quot;:2,&quot;coords&quot;:[[119.0, -684.0],[94.0, -633.0]],&quot;certainty&quot;:11]">
    <path clip-path="url(#pf44bd8f1bc)" d="M 83.469617 226.396323 
C 84.85993 226.396323 86.193486 225.534203 87.176586 223.999833 
C 88.159685 222.465463 88.712062 220.384119 88.712062 218.214193 
C 88.712062 216.044266 88.159685 213.962922 87.176586 212.428552 
C 86.193486 210.894183 84.85993 210.032062 83.469617 210.032062 
C 82.079304 210.032062 80.745748 210.894183 79.762648 212.428552 
C 78.779548 213.962922 78.227171 216.044266 78.227171 218.214193 
C 78.227171 220.384119 78.779548 222.465463 79.762648 223.999833 
C 80.745748 225.534203 82.079304 226.396323 83.469617 226.396323 
z
" style="fill:#0000ff;opacity:0.2;stroke:#0000ff;stroke-linejoin:miter;stroke-width:2;"/>
   </g>
   <g id="[&quot;g_s&quot;:2,&quot;g_t&quot;:4,&quot;coords&quot;:[[94.0, -633.0],[119.0, -684.0]],&quot;certainty&quot;:11]">
    <path clip-path="url(#pf44bd8f1bc)" d="M 61.626094 156.848211 
C 63.016407 156.848211 64.349963 155.986091 65.333063 154.451721 
C 66.316162 152.917351 66.868539 150.836007 66.868539 148.666081 
C 66.868539 146.496154 66.316162 144.41481 65.333063 142.88044 
C 64.349963 141.346071 63.016407 140.48395 61.626094 140.48395 
C 60.235781 140.48395 58.902225 141.346071 57.919125 142.88044 
C 56.936025 144.41481 56.383648 146.496154 56.383648 148.666081 
C 56.383648 150.836007 56.936025 152.917351 57.919125 154.451721 
C 58.902225 155.986091 60.235781 156.848211 61.626094 156.848211 
z
" style="fill:#ff0000;opacity:0.2;stroke:#ff0000;stroke-linejoin:miter;stroke-width:2;"/>
   </g>
   <g id="patch_19">
    <path d="M 83.469617 218.214193 
Q 72.847164 184.393112 62.860356 152.595878 
" style="fill:none;opacity:0.5;stroke:#ff0000;stroke-linecap:round;stroke-width:3;"/>
    <path d="M 61.87875 154.476423 
L 62.860356 152.595878 
L 64.740901 153.577485 
" style="fill:none;opacity:0.5;stroke:#ff0000;stroke-linecap:round;stroke-width:3;"/>
   </g>
   <g id="patch_20">
    <path clip-path="url(#pf44bd8f1bc)" d="M 132.399108 282.989395 
C 133.557702 282.989395 134.668999 282.270961 135.488249 280.992319 
C 136.307499 279.713678 136.767813 277.979225 136.767813 276.170953 
C 136.767813 274.362681 136.307499 272.628227 135.488249 271.349586 
C 134.668999 270.070944 133.557702 269.35251 132.399108 269.35251 
C 131.240514 269.35251 130.129217 270.070944 129.309968 271.349586 
C 128.490718 272.628227 128.030404 274.362681 128.030404 276.170953 
C 128.030404 277.979225 128.490718 279.713678 129.309968 280.992319 
C 130.129217 282.270961 131.240514 282.989395 132.399108 282.989395 
z
" style="fill:#008000;opacity:0.2;stroke:#008000;stroke-linejoin:miter;stroke-width:2;"/>
   </g>
   <g id="patch_21">
    <path clip-path="url(#pf44bd8f1bc)" d="M 72.547855 190.258579 
C 73.706449 190.258579 74.817746 189.540145 75.636996 188.261503 
C 76.456246 186.982862 76.91656 185.248409 76.91656 183.440137 
C 76.91656 181.631865 76.456246 179.897411 75.636996 178.61877 
C 74.817746 177.340128 73.706449 176.621694 72.547855 176.621694 
C 71.389261 176.621694 70.277964 177.340128 69.458715 178.61877 
C 68.639465 179.897411 68.179151 181.631865 68.179151 183.440137 
C 68.179151 185.248409 68.639465 186.982862 69.458715 188.261503 
C 70.277964 189.540145 71.389261 190.258579 72.547855 190.258579 
z
" style="fill:#008000;opacity:0.2;stroke:#008000;stroke-linejoin:miter;stroke-width:2;"/>
   </g>
   <g id="patch_22">
    <path clip-path="url(#pf44bd8f1bc)" d="M 132.399108 93.436698 
C 133.557702 93.436698 134.668999 92.718264 135.488249 91.439622 
C 136.307499 90.160981 136.767813 88.426527 136.767813 86.618255 
C 136.767813 84.809983 136.307499 83.07553 135.488249 81.796888 
C 134.668999 80.518247 133.557702 79.799813 132.399108 79.799813 
C 131.240514 79.799813 130.129217 80.518247 129.309968 81.796888 
C 128.490718 83.07553 128.030404 84.809983 128.030404 86.618255 
C 128.030404 88.426527 128.490718 90.160981 129.309968 91.439622 
C 130.129217 92.718264 131.240514 93.436698 132.399108 93.436698 
z
" style="fill:#008000;opacity:0.2;stroke:#008000;stroke-linejoin:miter;stroke-width:2;"/>
   </g>
   <g id="patch_23">
    <path clip-path="url(#pf44bd8f1bc)" d="M 192.250361 190.258579 
C 193.408955 190.258579 194.520252 189.540145 195.339502 188.261503 
C 196.158752 186.982862 196.619066 185.248409 196.619066 183.440137 
C 196.619066 181.631865 196.158752 179.897411 195.339502 178.61877 
C 194.520252 177.340128 193.408955 176.621694 192.250361 176.621694 
C 191.091767 176.621694 189.98047 177.340128 189.161221 178.61877 
C 188.341971 179.897411 187.881657 181.631865 187.881657 183.440137 
C 187.881657 185.248409 188.341971 186.982862 189.161221 188.261503 
C 189.98047 189.540145 191.091767 190.258579 192.250361 190.258579 
z
" style="fill:#008000;opacity:0.2;stroke:#008000;stroke-linejoin:miter;stroke-width:2;"/>
   </g>
   <g id="patch_24">
    <path clip-path="url(#pf44bd8f1bc)" d="M 132.399108 286.398616 
C 137.033484 286.398616 141.478672 283.52488 144.755671 278.410314 
C 148.03267 273.295748 149.873927 266.357935 149.873927 259.124847 
C 149.873927 251.891759 148.03267 244.953945 144.755671 239.839379 
C 141.478672 234.724814 137.033484 231.851077 132.399108 231.851077 
C 127.764732 231.851077 123.319544 234.724814 120.042546 239.839379 
C 116.765547 244.953945 114.92429 251.891759 114.92429 259.124847 
C 114.92429 266.357935 116.765547 273.295748 120.042546 278.410314 
C 123.319544 283.52488 127.764732 286.398616 132.399108 286.398616 
z
" style="fill:none;opacity:0.2;stroke:#ff0000;stroke-linejoin:miter;stroke-width:2;"/>
   </g>
   <g id="patch_25">
    <path clip-path="url(#pf44bd8f1bc)" d="M 132.399108 165.030342 
C 137.033484 165.030342 141.478672 162.156606 144.755671 157.04204 
C 148.03267 151.927474 149.873927 144.989661 149.873927 137.756573 
C 149.873927 130.523485 148.03267 123.585671 144.755671 118.471106 
C 141.478672 113.35654 137.033484 110.482803 132.399108 110.482803 
C 127.764732 110.482803 123.319544 113.35654 120.042546 118.471106 
C 116.765547 123.585671 114.92429 130.523485 114.92429 137.756573 
C 114.92429 144.989661 116.765547 151.927474 120.042546 157.04204 
C 123.319544 162.156606 127.764732 165.030342 132.399108 165.030342 
z
" style="fill:none;opacity:0.2;stroke:#0000ff;stroke-linejoin:miter;stroke-width:2;"/>
   </g>
   <g id="patch_26">
    <path clip-path="url(#pf44bd8f1bc)" d="M 132.399108 272.761731 
C 134.716296 272.761731 136.93889 271.324863 138.57739 268.76758 
C 140.215889 266.210298 141.136517 262.741391 141.136517 259.124847 
C 141.136517 255.508303 140.215889 252.039396 138.57739 249.482113 
C 136.93889 246.92483 134.716296 245.487962 132.399108 245.487962 
C 130.08192 245.487962 127.859326 246.92483 126.220827 249.482113 
C 124.582328 252.039396 123.661699 255.508303 123.661699 259.124847 
C 123.661699 262.741391 124.582328 266.210298 126.220827 268.76758 
C 127.859326 271.324863 130.08192 272.761731 132.399108 272.761731 
z
" style="fill:none;opacity:0.2;stroke:#008000;stroke-linejoin:miter;stroke-width:2;"/>
   </g>
   <g id="patch_27">
    <path clip-path="url(#pf44bd8f1bc)" d="M 132.399108 306.853943 
C 134.716296 306.853943 136.93889 305.417075 138.57739 302.859792 
C 140.215889 300.302509 141.136517 296.833603 141.136517 293.217058 
C 141.136517 289.600514 140.215889 286.131608 138.57739 283.574325 
C 136.93889 281.017042 134.716296 279.580174 132.399108 279.580174 
C 130.08192 279.580174 127.859326 281.017042 126.220827 283.574325 
C 124.582328 286.131608 123.661699 289.600514 123.661699 293.217058 
C 123.661699 296.833603 124.582328 300.302509 126.220827 302.859792 
C 127.859326 305.417075 130.08192 306.853943 132.399108 306.853943 
z
" style="fill:none;opacity:0.2;stroke:#008000;stroke-linejoin:miter;stroke-width:2;"/>
   </g>
   <g id="patch_28">
    <path d="M 132.399108 276.170953 
Q 102.473482 229.805545 72.547855 183.440137 
" style="fill:none;opacity:0.5;stroke:#008000;stroke-linecap:round;stroke-width:2;"/>
   </g>
   <g id="patch_29">
    <path d="M 132.399108 260.53906 
Q 132.399108 275.170077 132.399108 289.801093 
" style="fill:none;opacity:0.5;stroke:#800080;stroke-linecap:round;stroke-width:2;"/>
    <path d="M 130.899108 262.03906 
L 132.399108 260.53906 
L 133.899108 262.03906 
" style="fill:none;opacity:0.5;stroke:#800080;stroke-linecap:round;stroke-width:2;"/>
    <path d="M 133.899108 288.301093 
L 132.399108 289.801093 
L 130.899108 288.301093 
" style="fill:none;opacity:0.5;stroke:#800080;stroke-linecap:round;stroke-width:2;"/>
   </g>
   <g id="patch_30">
    <path d="M 72.547855 183.440137 
Q 102.473482 135.029196 132.399108 86.618255 
" style="fill:none;opacity:0.5;stroke:#008000;stroke-linecap:round;stroke-width:2;"/>
   </g>
   <g id="patch_31">
    <path d="M 62.049857 150.015312 
Q 72.248547 182.487161 82.447236 214.959011 
" style="fill:none;opacity:0.5;stroke:#800080;stroke-linecap:round;stroke-width:2;"/>
    <path d="M 61.068251 151.895857 
L 62.049857 150.015312 
L 63.930402 150.996918 
" style="fill:none;opacity:0.5;stroke:#800080;stroke-linecap:round;stroke-width:2;"/>
    <path d="M 83.428843 213.078466 
L 82.447236 214.959011 
L 80.566691 213.977404 
" style="fill:none;opacity:0.5;stroke:#800080;stroke-linecap:round;stroke-width:2;"/>
   </g>
   <g id="patch_32">
    <path d="M 132.399108 86.618255 
Q 162.324735 135.029196 192.250361 183.440137 
" style="fill:none;opacity:0.5;stroke:#008000;stroke-linecap:round;stroke-width:2;"/>
   </g>
   <g id="patch_33">
    <path d="M 132.399108 36.894151 
Q 132.399108 85.617899 132.399108 134.341648 
" style="fill:none;opacity:0.5;stroke:#800080;stroke-linecap:round;stroke-width:2;"/>
    <path d="M 130.899108 38.394151 
L 132.399108 36.894151 
L 133.899108 38.394151 
" style="fill:none;opacity:0.5;stroke:#800080;stroke-linecap:round;stroke-width:2;"/>
    <path d="M 133.899108 132.841648 
L 132.399108 134.341648 
L 130.899108 132.841648 
" style="fill:none;opacity:0.5;stroke:#800080;stroke-linecap:round;stroke-width:2;"/>
   </g>
   <g id="patch_34">
    <path d="M 192.250361 183.440137 
Q 162.324735 229.805545 132.399108 276.170953 
" style="fill:none;opacity:0.5;stroke:#008000;stroke-linecap:round;stroke-width:2;"/>
   </g>
   <g id="patch_35">
    <path d="M 202.748359 150.015312 
Q 192.54967 182.487161 182.35098 214.959011 
" style="fill:none;opacity:0.5;stroke:#800080;stroke-linecap:round;stroke-width:2;"/>
    <path d="M 200.867814 150.996918 
L 202.748359 150.015312 
L 203.729966 151.895857 
" style="fill:none;opacity:0.5;stroke:#800080;stroke-linecap:round;stroke-width:2;"/>
    <path d="M 184.231525 213.977404 
L 182.35098 214.959011 
L 181.369374 213.078466 
" style="fill:none;opacity:0.5;stroke:#800080;stroke-linecap:round;stroke-width:2;"/>
   </g>
   <g id="patch_36">
    <path clip-path="url(#pf44bd8f1bc)" d="M 350.834338 261.852224 
C 351.297776 261.852224 351.742295 261.56485 352.069994 261.053393 
C 352.397694 260.541937 352.58182 259.848156 352.58182 259.124847 
C 352.58182 258.401538 352.397694 257.707757 352.069994 257.1963 
C 351.742295 256.684843 351.297776 256.39747 350.834338 256.39747 
C 350.370901 256.39747 349.926382 256.684843 349.598682 257.1963 
C 349.270982 257.707757 349.086856 258.401538 349.086856 259.124847 
C 349.086856 259.848156 349.270982 260.541937 349.598682 261.053393 
C 349.926382 261.56485 350.370901 261.852224 350.834338 261.852224 
z
" style="fill:#ff0000;opacity:0.2;stroke:#ff0000;stroke-linejoin:miter;stroke-width:2;"/>
   </g>
   <g id="patch_37">
    <path clip-path="url(#pf44bd8f1bc)" d="M 280.061324 151.393458 
C 280.524761 151.393458 280.96928 151.106084 281.29698 150.594627 
C 281.62468 150.083171 281.808806 149.389389 281.808806 148.666081 
C 281.808806 147.942772 281.62468 147.24899 281.29698 146.737534 
C 280.96928 146.226077 280.524761 145.938704 280.061324 145.938704 
C 279.597886 145.938704 279.153367 146.226077 278.825667 146.737534 
C 278.497968 147.24899 278.313842 147.942772 278.313842 148.666081 
C 278.313842 149.389389 278.497968 150.083171 278.825667 150.594627 
C 279.153367 151.106084 279.597886 151.393458 280.061324 151.393458 
z
" style="fill:#ff0000;opacity:0.2;stroke:#ff0000;stroke-linejoin:miter;stroke-width:2;"/>
   </g>
   <g id="patch_38">
    <path clip-path="url(#pf44bd8f1bc)" d="M 350.834338 38.207315 
C 351.297776 38.207315 351.742295 37.919941 352.069994 37.408484 
C 352.397694 36.897028 352.58182 36.203246 352.58182 35.479938 
C 352.58182 34.756629 352.397694 34.062847 352.069994 33.551391 
C 351.742295 33.039934 351.297776 32.752561 350.834338 32.752561 
C 350.370901 32.752561 349.926382 33.039934 349.598682 33.551391 
C 349.270982 34.062847 349.086856 34.756629 349.086856 35.479938 
C 349.086856 36.203246 349.270982 36.897028 349.598682 37.408484 
C 349.926382 37.919941 350.370901 38.207315 350.834338 38.207315 
z
" style="fill:#ff0000;opacity:0.2;stroke:#ff0000;stroke-linejoin:miter;stroke-width:2;"/>
   </g>
   <g id="patch_39">
    <path clip-path="url(#pf44bd8f1bc)" d="M 421.607353 151.393458 
C 422.07079 151.393458 422.515309 151.106084 422.843009 150.594627 
C 423.170709 150.083171 423.354834 149.389389 423.354834 148.666081 
C 423.354834 147.942772 423.170709 147.24899 422.843009 146.737534 
C 422.515309 146.226077 422.07079 145.938704 421.607353 145.938704 
C 421.143915 145.938704 420.699396 146.226077 420.371696 146.737534 
C 420.043996 147.24899 419.859871 147.942772 419.859871 148.666081 
C 419.859871 149.389389 420.043996 150.083171 420.371696 150.594627 
C 420.699396 151.106084 421.143915 151.393458 421.607353 151.393458 
z
" style="fill:#ff0000;opacity:0.2;stroke:#ff0000;stroke-linejoin:miter;stroke-width:2;"/>
   </g>
   <g id="patch_40">
    <path clip-path="url(#pf44bd8f1bc)" d="M 350.834338 140.48395 
C 351.297776 140.48395 351.742295 140.196576 352.069994 139.68512 
C 352.397694 139.173663 352.58182 138.479882 352.58182 137.756573 
C 352.58182 137.033264 352.397694 136.339483 352.069994 135.828026 
C 351.742295 135.31657 351.297776 135.029196 350.834338 135.029196 
C 350.370901 135.029196 349.926382 135.31657 349.598682 135.828026 
C 349.270982 136.339483 349.086856 137.033264 349.086856 137.756573 
C 349.086856 138.479882 349.270982 139.173663 349.598682 139.68512 
C 349.926382 140.196576 350.370901 140.48395 350.834338 140.48395 
z
" style="fill:#0000ff;opacity:0.2;stroke:#0000ff;stroke-linejoin:miter;stroke-width:2;"/>
   </g>
   <g id="patch_41">
    <path clip-path="url(#pf44bd8f1bc)" d="M 399.76383 220.94157 
C 400.227267 220.94157 400.671786 220.654196 400.999486 220.142739 
C 401.327186 219.631283 401.511311 218.937501 401.511311 218.214193 
C 401.511311 217.490884 401.327186 216.797102 400.999486 216.285646 
C 400.671786 215.774189 400.227267 215.486816 399.76383 215.486816 
C 399.300392 215.486816 398.855873 215.774189 398.528173 216.285646 
C 398.200473 216.797102 398.016348 217.490884 398.016348 218.214193 
C 398.016348 218.937501 398.200473 219.631283 398.528173 220.142739 
C 398.855873 220.654196 399.300392 220.94157 399.76383 220.94157 
z
" style="fill:#0000ff;opacity:0.2;stroke:#0000ff;stroke-linejoin:miter;stroke-width:2;"/>
   </g>
   <g id="patch_42">
    <path clip-path="url(#pf44bd8f1bc)" d="M 350.834338 295.944435 
C 351.297776 295.944435 351.742295 295.657062 352.069994 295.145605 
C 352.397694 294.634149 352.58182 293.940367 352.58182 293.217058 
C 352.58182 292.49375 352.397694 291.799968 352.069994 291.288512 
C 351.742295 290.777055 351.297776 290.489682 350.834338 290.489682 
C 350.370901 290.489682 349.926382 290.777055 349.598682 291.288512 
C 349.270982 291.799968 349.086856 292.49375 349.086856 293.217058 
C 349.086856 293.940367 349.270982 294.634149 349.598682 295.145605 
C 349.926382 295.657062 350.370901 295.944435 350.834338 295.944435 
z
" style="fill:#0000ff;opacity:0.2;stroke:#0000ff;stroke-linejoin:miter;stroke-width:2;"/>
   </g>
   <g id="patch_43">
    <path clip-path="url(#pf44bd8f1bc)" d="M 301.904847 220.94157 
C 302.368284 220.94157 302.812803 220.654196 303.140503 220.142739 
C 303.468203 219.631283 303.652328 218.937501 303.652328 218.214193 
C 303.652328 217.490884 303.468203 216.797102 303.140503 216.285646 
C 302.812803 215.774189 302.368284 215.486816 301.904847 215.486816 
C 301.441409 215.486816 300.99689 215.774189 300.66919 216.285646 
C 300.341491 216.797102 300.157365 217.490884 300.157365 218.214193 
C 300.157365 218.937501 300.341491 219.631283 300.66919 220.142739 
C 300.99689 220.654196 301.441409 220.94157 301.904847 220.94157 
z
" style="fill:#0000ff;opacity:0.2;stroke:#0000ff;stroke-linejoin:miter;stroke-width:2;"/>
   </g>
   <g id="patch_44">
    <path clip-path="url(#pf44bd8f1bc)" d="M 350.834338 259.124847 
C 315.884701 259.124847 280.061324 215.486816 280.061324 148.666081 
C 280.061324 84.572723 311.515997 35.479938 350.834338 35.479938 
C 392.773902 35.479938 421.607353 90.027476 421.607353 148.666081 
C 421.607353 211.39575 392.773902 259.124847 350.834338 259.124847 
" style="fill:none;stroke:#ff0000;stroke-linejoin:miter;stroke-width:0.5;"/>
   </g>
   <g id="patch_45">
    <path clip-path="url(#pf44bd8f1bc)" d="M 350.834338 137.756573 
C 380.541529 137.756573 399.76383 174.576162 399.76383 218.214193 
C 399.76383 261.852224 380.541529 293.217058 350.834338 293.217058 
C 325.495851 293.217058 301.904847 264.579601 301.904847 218.214193 
C 301.904847 171.848785 322.874629 137.756573 350.834338 137.756573 
" style="fill:none;stroke:#0000ff;stroke-linejoin:miter;stroke-width:0.5;"/>
   </g>
   <g id="[&quot;g_s&quot;:1,&quot;g_t&quot;:3,&quot;coords&quot;:[[425.0, -714.0],[425.0, -739.0]],&quot;certainty&quot;:10]">
    <path clip-path="url(#pf44bd8f1bc)" d="M 350.834338 266.625133 
C 352.108792 266.625133 353.331218 265.834856 354.232393 264.42835 
C 355.133567 263.021845 355.639913 261.113946 355.639913 259.124847 
C 355.639913 257.135747 355.133567 255.227849 354.232393 253.821343 
C 353.331218 252.414838 352.108792 251.62456 350.834338 251.62456 
C 349.559885 251.62456 348.337458 252.414838 347.436283 253.821343 
C 346.535109 255.227849 346.028763 257.135747 346.028763 259.124847 
C 346.028763 261.113946 346.535109 263.021845 347.436283 264.42835 
C 348.337458 265.834856 349.559885 266.625133 350.834338 266.625133 
z
" style="fill:#0000ff;opacity:0.2;stroke:#0000ff;stroke-linejoin:miter;stroke-width:2;"/>
   </g>
   <g id="[&quot;g_s&quot;:3,&quot;g_t&quot;:1,&quot;coords&quot;:[[425.0, -739.0],[425.0, -714.0]],&quot;certainty&quot;:10]">
    <path clip-path="url(#pf44bd8f1bc)" d="M 350.834338 300.717345 
C 352.108792 300.717345 353.331218 299.927068 354.232393 298.520562 
C 355.133567 297.114056 355.639913 295.206158 355.639913 293.217058 
C 355.639913 291.227959 355.133567 289.320061 354.232393 287.913555 
C 353.331218 286.507049 352.108792 285.716772 350.834338 285.716772 
C 349.559885 285.716772 348.337458 286.507049 347.436283 287.913555 
C 346.535109 289.320061 346.028763 291.227959 346.028763 293.217058 
C 346.028763 295.206158 346.535109 297.114056 347.436283 298.520562 
C 348.337458 299.927068 349.559885 300.717345 350.834338 300.717345 
z
" style="fill:#ff0000;opacity:0.2;stroke:#ff0000;stroke-linejoin:miter;stroke-width:2;"/>
   </g>
   <g id="patch_46">
    <path d="M 350.834338 259.124847 
Q 350.834338 275.170077 350.834338 289.270763 
" style="fill:none;opacity:0.5;stroke:#0000ff;stroke-linecap:round;stroke-width:2.75;"/>
    <path d="M 352.334338 287.770763 
L 350.834338 289.270763 
L 349.334338 287.770763 
" style="fill:none;opacity:0.5;stroke:#0000ff;stroke-linecap:round;stroke-width:2.75;"/>
   </g>
   <g id="[&quot;g_s&quot;:2,&quot;g_t&quot;:4,&quot;coords&quot;:[[344.0, -633.0],[369.0, -684.0]],&quot;certainty&quot;:12]">
    <path clip-path="url(#pf44bd8f1bc)" d="M 280.061324 157.530056 
C 281.567496 157.530056 283.012182 156.596091 284.077207 154.933858 
C 285.142231 153.271624 285.74064 151.016834 285.74064 148.666081 
C 285.74064 146.315327 285.142231 144.060538 284.077207 142.398304 
C 283.012182 140.73607 281.567496 139.802106 280.061324 139.802106 
C 278.555151 139.802106 277.110465 140.73607 276.045441 142.398304 
C 274.980416 144.060538 274.382008 146.315327 274.382008 148.666081 
C 274.382008 151.016834 274.980416 153.271624 276.045441 154.933858 
C 277.110465 156.596091 278.555151 157.530056 280.061324 157.530056 
z
" style="fill:#0000ff;opacity:0.2;stroke:#0000ff;stroke-linejoin:miter;stroke-width:2;"/>
   </g>
   <g id="[&quot;g_s&quot;:4,&quot;g_t&quot;:2,&quot;coords&quot;:[[369.0, -684.0],[344.0, -633.0]],&quot;certainty&quot;:12]">
    <path clip-path="url(#pf44bd8f1bc)" d="M 301.904847 227.078168 
C 303.411019 227.078168 304.855705 226.144203 305.920729 224.481969 
C 306.985754 222.819736 307.584163 220.564946 307.584163 218.214193 
C 307.584163 215.863439 306.985754 213.60865 305.920729 211.946416 
C 304.855705 210.284182 303.411019 209.350218 301.904847 209.350218 
C 300.398674 209.350218 298.953988 210.284182 297.888964 211.946416 
C 296.823939 213.60865 296.225531 215.863439 296.225531 218.214193 
C 296.225531 220.564946 296.823939 222.819736 297.888964 224.481969 
C 298.953988 226.144203 300.398674 227.078168 301.904847 227.078168 
z
" style="fill:#ff0000;opacity:0.2;stroke:#ff0000;stroke-linejoin:miter;stroke-width:2;"/>
   </g>
   <g id="patch_47">
    <path d="M 280.061324 148.666081 
Q 290.683777 182.487161 300.617614 214.115741 
" style="fill:none;opacity:0.5;stroke:#0000ff;stroke-linecap:round;stroke-width:3.25;"/>
    <path d="M 301.59922 212.235196 
L 300.617614 214.115741 
L 298.737069 213.134135 
" style="fill:none;opacity:0.5;stroke:#0000ff;stroke-linecap:round;stroke-width:3.25;"/>
   </g>
   <g id="[&quot;g_s&quot;:3,&quot;g_t&quot;:1,&quot;coords&quot;:[[425.0, -550.0],[425.0, -625.0]],&quot;certainty&quot;:11]">
    <path clip-path="url(#pf44bd8f1bc)" d="M 350.834338 43.662068 
C 352.224651 43.662068 353.558207 42.799948 354.541307 41.265578 
C 355.524407 39.731208 356.076784 37.649864 356.076784 35.479938 
C 356.076784 33.310011 355.524407 31.228667 354.541307 29.694297 
C 353.558207 28.159928 352.224651 27.297807 350.834338 27.297807 
C 349.444025 27.297807 348.110469 28.159928 347.127369 29.694297 
C 346.14427 31.228667 345.591893 33.310011 345.591893 35.479938 
C 345.591893 37.649864 346.14427 39.731208 347.127369 41.265578 
C 348.110469 42.799948 349.444025 43.662068 350.834338 43.662068 
z
" style="fill:#0000ff;opacity:0.2;stroke:#0000ff;stroke-linejoin:miter;stroke-width:2;"/>
   </g>
   <g id="[&quot;g_s&quot;:1,&quot;g_t&quot;:3,&quot;coords&quot;:[[425.0, -625.0],[425.0, -550.0]],&quot;certainty&quot;:11]">
    <path clip-path="url(#pf44bd8f1bc)" d="M 350.834338 145.938704 
C 352.224651 145.938704 353.558207 145.076583 354.541307 143.542213 
C 355.524407 142.007843 356.076784 139.926499 356.076784 137.756573 
C 356.076784 135.586646 355.524407 133.505302 354.541307 131.970933 
C 353.558207 130.436563 352.224651 129.574442 350.834338 129.574442 
C 349.444025 129.574442 348.110469 130.436563 347.127369 131.970933 
C 346.14427 133.505302 345.591893 135.586646 345.591893 137.756573 
C 345.591893 139.926499 346.14427 142.007843 347.127369 143.542213 
C 348.110469 145.076583 349.444025 145.938704 350.834338 145.938704 
z
" style="fill:#ff0000;opacity:0.2;stroke:#ff0000;stroke-linejoin:miter;stroke-width:2;"/>
   </g>
   <g id="patch_48">
    <path d="M 350.834338 35.479938 
Q 350.834338 85.617899 350.834338 133.634541 
" style="fill:none;opacity:0.5;stroke:#0000ff;stroke-linecap:round;stroke-width:3;"/>
    <path d="M 352.334338 132.134541 
L 350.834338 133.634541 
L 349.334338 132.134541 
" style="fill:none;opacity:0.5;stroke:#0000ff;stroke-linecap:round;stroke-width:3;"/>
   </g>
   <g id="[&quot;g_s&quot;:4,&quot;g_t&quot;:2,&quot;coords&quot;:[[506.0, -633.0],[481.0, -684.0]],&quot;certainty&quot;:11]">
    <path clip-path="url(#pf44bd8f1bc)" d="M 421.607353 156.848211 
C 422.997665 156.848211 424.331222 155.986091 425.314321 154.451721 
C 426.297421 152.917351 426.849798 150.836007 426.849798 148.666081 
C 426.849798 146.496154 426.297421 144.41481 425.314321 142.88044 
C 424.331222 141.346071 422.997665 140.48395 421.607353 140.48395 
C 420.21704 140.48395 418.883483 141.346071 417.900384 142.88044 
C 416.917284 144.41481 416.364907 146.496154 416.364907 148.666081 
C 416.364907 150.836007 416.917284 152.917351 417.900384 154.451721 
C 418.883483 155.986091 420.21704 156.848211 421.607353 156.848211 
z
" style="fill:#0000ff;opacity:0.2;stroke:#0000ff;stroke-linejoin:miter;stroke-width:2;"/>
   </g>
   <g id="[&quot;g_s&quot;:2,&quot;g_t&quot;:4,&quot;coords&quot;:[[481.0, -684.0],[506.0, -633.0]],&quot;certainty&quot;:11]">
    <path clip-path="url(#pf44bd8f1bc)" d="M 399.76383 226.396323 
C 401.154142 226.396323 402.487699 225.534203 403.470798 223.999833 
C 404.453898 222.465463 405.006275 220.384119 405.006275 218.214193 
C 405.006275 216.044266 404.453898 213.962922 403.470798 212.428552 
C 402.487699 210.894183 401.154142 210.032062 399.76383 210.032062 
C 398.373517 210.032062 397.03996 210.894183 396.056861 212.428552 
C 395.073761 213.962922 394.521384 216.044266 394.521384 218.214193 
C 394.521384 220.384119 395.073761 222.465463 396.056861 223.999833 
C 397.03996 225.534203 398.373517 226.396323 399.76383 226.396323 
z
" style="fill:#ff0000;opacity:0.2;stroke:#ff0000;stroke-linejoin:miter;stroke-width:2;"/>
   </g>
   <g id="patch_49">
    <path d="M 421.607353 148.666081 
Q 410.9849 182.487161 400.998092 214.284395 
" style="fill:none;opacity:0.5;stroke:#0000ff;stroke-linecap:round;stroke-width:3;"/>
    <path d="M 402.878637 213.302789 
L 400.998092 214.284395 
L 400.016486 212.40385 
" style="fill:none;opacity:0.5;stroke:#0000ff;stroke-linecap:round;stroke-width:3;"/>
   </g>
   <g id="[&quot;g_s&quot;:1,&quot;g_t&quot;:3,&quot;coords&quot;:[[425.0, -625.0],[425.0, -550.0]],&quot;certainty&quot;:10]">
    <path clip-path="url(#pf44bd8f1bc)" d="M 350.834338 145.256859 
C 352.108792 145.256859 353.331218 144.466582 354.232393 143.060076 
C 355.133567 141.653571 355.639913 139.745672 355.639913 137.756573 
C 355.639913 135.767474 355.133567 133.859575 354.232393 132.453069 
C 353.331218 131.046564 352.108792 130.256286 350.834338 130.256286 
C 349.559885 130.256286 348.337458 131.046564 347.436283 132.453069 
C 346.535109 133.859575 346.028763 135.767474 346.028763 137.756573 
C 346.028763 139.745672 346.535109 141.653571 347.436283 143.060076 
C 348.337458 144.466582 349.559885 145.256859 350.834338 145.256859 
z
" style="fill:#0000ff;opacity:0.2;stroke:#0000ff;stroke-linejoin:miter;stroke-width:2;"/>
   </g>
   <g id="[&quot;g_s&quot;:3,&quot;g_t&quot;:1,&quot;coords&quot;:[[425.0, -550.0],[425.0, -625.0]],&quot;certainty&quot;:10]">
    <path clip-path="url(#pf44bd8f1bc)" d="M 350.834338 42.980224 
C 352.108792 42.980224 353.331218 42.189947 354.232393 40.783441 
C 355.133567 39.376936 355.639913 37.469037 355.639913 35.479938 
C 355.639913 33.490838 355.133567 31.58294 354.232393 30.176434 
C 353.331218 28.769929 352.108792 27.979651 350.834338 27.979651 
C 349.559885 27.979651 348.337458 28.769929 347.436283 30.176434 
C 346.535109 31.58294 346.028763 33.490838 346.028763 35.479938 
C 346.028763 37.469037 346.535109 39.376936 347.436283 40.783441 
C 348.337458 42.189947 349.559885 42.980224 350.834338 42.980224 
z
" style="fill:#ff0000;opacity:0.2;stroke:#ff0000;stroke-linejoin:miter;stroke-width:2;"/>
   </g>
   <g id="patch_50">
    <path d="M 350.834338 137.756573 
Q 350.834338 87.618611 350.834338 39.425193 
" style="fill:none;opacity:0.5;stroke:#ff0000;stroke-linecap:round;stroke-width:2.75;"/>
    <path d="M 349.334338 40.925193 
L 350.834338 39.425193 
L 352.334338 40.925193 
" style="fill:none;opacity:0.5;stroke:#ff0000;stroke-linecap:round;stroke-width:2.75;"/>
   </g>
   <g id="[&quot;g_s&quot;:2,&quot;g_t&quot;:4,&quot;coords&quot;:[[481.0, -684.0],[506.0, -633.0]],&quot;certainty&quot;:12]">
    <path clip-path="url(#pf44bd8f1bc)" d="M 399.76383 227.078168 
C 401.270002 227.078168 402.714688 226.144203 403.779712 224.481969 
C 404.844737 222.819736 405.443146 220.564946 405.443146 218.214193 
C 405.443146 215.863439 404.844737 213.60865 403.779712 211.946416 
C 402.714688 210.284182 401.270002 209.350218 399.76383 209.350218 
C 398.257657 209.350218 396.812971 210.284182 395.747947 211.946416 
C 394.682922 213.60865 394.084514 215.863439 394.084514 218.214193 
C 394.084514 220.564946 394.682922 222.819736 395.747947 224.481969 
C 396.812971 226.144203 398.257657 227.078168 399.76383 227.078168 
z
" style="fill:#0000ff;opacity:0.2;stroke:#0000ff;stroke-linejoin:miter;stroke-width:2;"/>
   </g>
   <g id="[&quot;g_s&quot;:4,&quot;g_t&quot;:2,&quot;coords&quot;:[[506.0, -633.0],[481.0, -684.0]],&quot;certainty&quot;:12]">
    <path clip-path="url(#pf44bd8f1bc)" d="M 421.607353 157.530056 
C 423.113525 157.530056 424.558211 156.596091 425.623235 154.933858 
C 426.68826 153.271624 427.286669 151.016834 427.286669 148.666081 
C 427.286669 146.315327 426.68826 144.060538 425.623235 142.398304 
C 424.558211 140.73607 423.113525 139.802106 421.607353 139.802106 
C 420.10118 139.802106 418.656494 140.73607 417.59147 142.398304 
C 416.526445 144.060538 415.928037 146.315327 415.928037 148.666081 
C 415.928037 151.016834 416.526445 153.271624 417.59147 154.933858 
C 418.656494 156.596091 420.10118 157.530056 421.607353 157.530056 
z
" style="fill:#ff0000;opacity:0.2;stroke:#ff0000;stroke-linejoin:miter;stroke-width:2;"/>
   </g>
   <g id="patch_51">
    <path d="M 399.76383 218.214193 
Q 410.386283 184.393112 420.32012 152.764532 
" style="fill:none;opacity:0.5;stroke:#ff0000;stroke-linecap:round;stroke-width:3.25;"/>
    <path d="M 418.439575 153.746139 
L 420.32012 152.764532 
L 421.301726 154.645077 
" style="fill:none;opacity:0.5;stroke:#ff0000;stroke-linecap:round;stroke-width:3.25;"/>
   </g>
   <g id="[&quot;g_s&quot;:3,&quot;g_t&quot;:1,&quot;coords&quot;:[[425.0, -739.0],[425.0, -714.0]],&quot;certainty&quot;:11]">
    <path clip-path="url(#pf44bd8f1bc)" d="M 350.834338 301.399189 
C 352.224651 301.399189 353.558207 300.537068 354.541307 299.002699 
C 355.524407 297.468329 356.076784 295.386985 356.076784 293.217058 
C 356.076784 291.047132 355.524407 288.965788 354.541307 287.431418 
C 353.558207 285.897049 352.224651 285.034928 350.834338 285.034928 
C 349.444025 285.034928 348.110469 285.897049 347.127369 287.431418 
C 346.14427 288.965788 345.591893 291.047132 345.591893 293.217058 
C 345.591893 295.386985 346.14427 297.468329 347.127369 299.002699 
C 348.110469 300.537068 349.444025 301.399189 350.834338 301.399189 
z
" style="fill:#0000ff;opacity:0.2;stroke:#0000ff;stroke-linejoin:miter;stroke-width:2;"/>
   </g>
   <g id="[&quot;g_s&quot;:1,&quot;g_t&quot;:3,&quot;coords&quot;:[[425.0, -714.0],[425.0, -739.0]],&quot;certainty&quot;:11]">
    <path clip-path="url(#pf44bd8f1bc)" d="M 350.834338 267.306978 
C 352.224651 267.306978 353.558207 266.444857 354.541307 264.910487 
C 355.524407 263.376117 356.076784 261.294773 356.076784 259.124847 
C 356.076784 256.95492 355.524407 254.873576 354.541307 253.339207 
C 353.558207 251.804837 352.224651 250.942716 350.834338 250.942716 
C 349.444025 250.942716 348.110469 251.804837 347.127369 253.339207 
C 346.14427 254.873576 345.591893 256.95492 345.591893 259.124847 
C 345.591893 261.294773 346.14427 263.376117 347.127369 264.910487 
C 348.110469 266.444857 349.444025 267.306978 350.834338 267.306978 
z
" style="fill:#ff0000;opacity:0.2;stroke:#ff0000;stroke-linejoin:miter;stroke-width:2;"/>
   </g>
   <g id="patch_52">
    <path d="M 350.834338 293.217058 
Q 350.834338 277.171829 350.834338 263.247919 
" style="fill:none;opacity:0.5;stroke:#ff0000;stroke-linecap:round;stroke-width:3;"/>
    <path d="M 349.334338 264.747919 
L 350.834338 263.247919 
L 352.334338 264.747919 
" style="fill:none;opacity:0.5;stroke:#ff0000;stroke-linecap:round;stroke-width:3;"/>
   </g>
   <g id="[&quot;g_s&quot;:4,&quot;g_t&quot;:2,&quot;coords&quot;:[[369.0, -684.0],[344.0, -633.0]],&quot;certainty&quot;:11]">
    <path clip-path="url(#pf44bd8f1bc)" d="M 301.904847 226.396323 
C 303.295159 226.396323 304.628716 225.534203 305.611815 223.999833 
C 306.594915 222.465463 307.147292 220.384119 307.147292 218.214193 
C 307.147292 216.044266 306.594915 213.962922 305.611815 212.428552 
C 304.628716 210.894183 303.295159 210.032062 301.904847 210.032062 
C 300.514534 210.032062 299.180977 210.894183 298.197878 212.428552 
C 297.214778 213.962922 296.662401 216.044266 296.662401 218.214193 
C 296.662401 220.384119 297.214778 222.465463 298.197878 223.999833 
C 299.180977 225.534203 300.514534 226.396323 301.904847 226.396323 
z
" style="fill:#0000ff;opacity:0.2;stroke:#0000ff;stroke-linejoin:miter;stroke-width:2;"/>
   </g>
   <g id="[&quot;g_s&quot;:2,&quot;g_t&quot;:4,&quot;coords&quot;:[[344.0, -633.0],[369.0, -684.0]],&quot;certainty&quot;:11]">
    <path clip-path="url(#pf44bd8f1bc)" d="M 280.061324 156.848211 
C 281.451636 156.848211 282.785193 155.986091 283.768292 154.451721 
C 284.751392 152.917351 285.303769 150.836007 285.303769 148.666081 
C 285.303769 146.496154 284.751392 144.41481 283.768292 142.88044 
C 282.785193 141.346071 281.451636 140.48395 280.061324 140.48395 
C 278.671011 140.48395 277.337455 141.346071 276.354355 142.88044 
C 275.371255 144.41481 274.818878 146.496154 274.818878 148.666081 
C 274.818878 150.836007 275.371255 152.917351 276.354355 154.451721 
C 277.337455 155.986091 278.671011 156.848211 280.061324 156.848211 
z
" style="fill:#ff0000;opacity:0.2;stroke:#ff0000;stroke-linejoin:miter;stroke-width:2;"/>
   </g>
   <g id="patch_53">
    <path d="M 301.904847 218.214193 
Q 291.282394 184.393112 281.295586 152.595878 
" style="fill:none;opacity:0.5;stroke:#ff0000;stroke-linecap:round;stroke-width:3;"/>
    <path d="M 280.31398 154.476423 
L 281.295586 152.595878 
L 283.176131 153.577485 
" style="fill:none;opacity:0.5;stroke:#ff0000;stroke-linecap:round;stroke-width:3;"/>
   </g>
   <g id="patch_54">
    <path clip-path="url(#pf44bd8f1bc)" d="M 350.834338 282.989395 
C 351.992932 282.989395 353.104229 282.270961 353.923479 280.992319 
C 354.742728 279.713678 355.203043 277.979225 355.203043 276.170953 
C 355.203043 274.362681 354.742728 272.628227 353.923479 271.349586 
C 353.104229 270.070944 351.992932 269.35251 350.834338 269.35251 
C 349.675744 269.35251 348.564447 270.070944 347.745197 271.349586 
C 346.925948 272.628227 346.465634 274.362681 346.465634 276.170953 
C 346.465634 277.979225 346.925948 279.713678 347.745197 280.992319 
C 348.564447 282.270961 349.675744 282.989395 350.834338 282.989395 
z
" style="fill:#008000;opacity:0.2;stroke:#008000;stroke-linejoin:miter;stroke-width:2;"/>
   </g>
   <g id="patch_55">
    <path clip-path="url(#pf44bd8f1bc)" d="M 290.983085 190.258579 
C 292.141679 190.258579 293.252976 189.540145 294.072226 188.261503 
C 294.891475 186.982862 295.35179 185.248409 295.35179 183.440137 
C 295.35179 181.631865 294.891475 179.897411 294.072226 178.61877 
C 293.252976 177.340128 292.141679 176.621694 290.983085 176.621694 
C 289.824491 176.621694 288.713194 177.340128 287.893945 178.61877 
C 287.074695 179.897411 286.614381 181.631865 286.614381 183.440137 
C 286.614381 185.248409 287.074695 186.982862 287.893945 188.261503 
C 288.713194 189.540145 289.824491 190.258579 290.983085 190.258579 
z
" style="fill:#008000;opacity:0.2;stroke:#008000;stroke-linejoin:miter;stroke-width:2;"/>
   </g>
   <g id="patch_56">
    <path clip-path="url(#pf44bd8f1bc)" d="M 350.834338 93.436698 
C 351.992932 93.436698 353.104229 92.718264 353.923479 91.439622 
C 354.742728 90.160981 355.203043 88.426527 355.203043 86.618255 
C 355.203043 84.809983 354.742728 83.07553 353.923479 81.796888 
C 353.104229 80.518247 351.992932 79.799813 350.834338 79.799813 
C 349.675744 79.799813 348.564447 80.518247 347.745197 81.796888 
C 346.925948 83.07553 346.465634 84.809983 346.465634 86.618255 
C 346.465634 88.426527 346.925948 90.160981 347.745197 91.439622 
C 348.564447 92.718264 349.675744 93.436698 350.834338 93.436698 
z
" style="fill:#008000;opacity:0.2;stroke:#008000;stroke-linejoin:miter;stroke-width:2;"/>
   </g>
   <g id="patch_57">
    <path clip-path="url(#pf44bd8f1bc)" d="M 410.685591 190.258579 
C 411.844185 190.258579 412.955482 189.540145 413.774732 188.261503 
C 414.593981 186.982862 415.054296 185.248409 415.054296 183.440137 
C 415.054296 181.631865 414.593981 179.897411 413.774732 178.61877 
C 412.955482 177.340128 411.844185 176.621694 410.685591 176.621694 
C 409.526997 176.621694 408.4157 177.340128 407.59645 178.61877 
C 406.777201 179.897411 406.316887 181.631865 406.316887 183.440137 
C 406.316887 185.248409 406.777201 186.982862 407.59645 188.261503 
C 408.4157 189.540145 409.526997 190.258579 410.685591 190.258579 
z
" style="fill:#008000;opacity:0.2;stroke:#008000;stroke-linejoin:miter;stroke-width:2;"/>
   </g>
   <g id="patch_58">
    <path clip-path="url(#pf44bd8f1bc)" d="M 350.834338 286.398616 
C 355.468714 286.398616 359.913902 283.52488 363.190901 278.410314 
C 366.467899 273.295748 368.309157 266.357935 368.309157 259.124847 
C 368.309157 251.891759 366.467899 244.953945 363.190901 239.839379 
C 359.913902 234.724814 355.468714 231.851077 350.834338 231.851077 
C 346.199962 231.851077 341.754774 234.724814 338.477776 239.839379 
C 335.200777 244.953945 333.35952 251.891759 333.35952 259.124847 
C 333.35952 266.357935 335.200777 273.295748 338.477776 278.410314 
C 341.754774 283.52488 346.199962 286.398616 350.834338 286.398616 
z
" style="fill:none;opacity:0.2;stroke:#ff0000;stroke-linejoin:miter;stroke-width:2;"/>
   </g>
   <g id="patch_59">
    <path clip-path="url(#pf44bd8f1bc)" d="M 350.834338 165.030342 
C 355.468714 165.030342 359.913902 162.156606 363.190901 157.04204 
C 366.467899 151.927474 368.309157 144.989661 368.309157 137.756573 
C 368.309157 130.523485 366.467899 123.585671 363.190901 118.471106 
C 359.913902 113.35654 355.468714 110.482803 350.834338 110.482803 
C 346.199962 110.482803 341.754774 113.35654 338.477776 118.471106 
C 335.200777 123.585671 333.35952 130.523485 333.35952 137.756573 
C 333.35952 144.989661 335.200777 151.927474 338.477776 157.04204 
C 341.754774 162.156606 346.199962 165.030342 350.834338 165.030342 
z
" style="fill:none;opacity:0.2;stroke:#0000ff;stroke-linejoin:miter;stroke-width:2;"/>
   </g>
   <g id="patch_60">
    <path clip-path="url(#pf44bd8f1bc)" d="M 350.834338 272.761731 
C 353.151526 272.761731 355.37412 271.324863 357.012619 268.76758 
C 358.651119 266.210298 359.571747 262.741391 359.571747 259.124847 
C 359.571747 255.508303 358.651119 252.039396 357.012619 249.482113 
C 355.37412 246.92483 353.151526 245.487962 350.834338 245.487962 
C 348.51715 245.487962 346.294556 246.92483 344.656057 249.482113 
C 343.017557 252.039396 342.096929 255.508303 342.096929 259.124847 
C 342.096929 262.741391 343.017557 266.210298 344.656057 268.76758 
C 346.294556 271.324863 348.51715 272.761731 350.834338 272.761731 
z
" style="fill:none;opacity:0.2;stroke:#008000;stroke-linejoin:miter;stroke-width:2;"/>
   </g>
   <g id="patch_61">
    <path clip-path="url(#pf44bd8f1bc)" d="M 350.834338 306.853943 
C 353.151526 306.853943 355.37412 305.417075 357.012619 302.859792 
C 358.651119 300.302509 359.571747 296.833603 359.571747 293.217058 
C 359.571747 289.600514 358.651119 286.131608 357.012619 283.574325 
C 355.37412 281.017042 353.151526 279.580174 350.834338 279.580174 
C 348.51715 279.580174 346.294556 281.017042 344.656057 283.574325 
C 343.017557 286.131608 342.096929 289.600514 342.096929 293.217058 
C 342.096929 296.833603 343.017557 300.302509 344.656057 302.859792 
C 346.294556 305.417075 348.51715 306.853943 350.834338 306.853943 
z
" style="fill:none;opacity:0.2;stroke:#008000;stroke-linejoin:miter;stroke-width:2;"/>
   </g>
   <g id="patch_62">
    <path d="M 350.834338 276.170953 
Q 320.908712 229.805545 290.983085 183.440137 
" style="fill:none;opacity:0.5;stroke:#008000;stroke-linecap:round;stroke-width:2;"/>
   </g>
   <g id="patch_63">
    <path d="M 350.834338 260.53906 
Q 350.834338 275.170077 350.834338 289.801093 
" style="fill:none;opacity:0.5;stroke:#800080;stroke-linecap:round;stroke-width:2;"/>
    <path d="M 349.334338 262.03906 
L 350.834338 260.53906 
L 352.334338 262.03906 
" style="fill:none;opacity:0.5;stroke:#800080;stroke-linecap:round;stroke-width:2;"/>
    <path d="M 352.334338 288.301093 
L 350.834338 289.801093 
L 349.334338 288.301093 
" style="fill:none;opacity:0.5;stroke:#800080;stroke-linecap:round;stroke-width:2;"/>
   </g>
   <g id="patch_64">
    <path d="M 290.983085 183.440137 
Q 320.908712 135.029196 350.834338 86.618255 
" style="fill:none;opacity:0.5;stroke:#008000;stroke-linecap:round;stroke-width:2;"/>
   </g>
   <g id="patch_65">
    <path d="M 280.485087 150.015312 
Q 290.683777 182.487161 300.882466 214.959011 
" style="fill:none;opacity:0.5;stroke:#800080;stroke-linecap:round;stroke-width:2;"/>
    <path d="M 279.503481 151.895857 
L 280.485087 150.015312 
L 282.365632 150.996918 
" style="fill:none;opacity:0.5;stroke:#800080;stroke-linecap:round;stroke-width:2;"/>
    <path d="M 301.864072 213.078466 
L 300.882466 214.959011 
L 299.001921 213.977404 
" style="fill:none;opacity:0.5;stroke:#800080;stroke-linecap:round;stroke-width:2;"/>
   </g>
   <g id="patch_66">
    <path d="M 350.834338 86.618255 
Q 380.759965 135.029196 410.685591 183.440137 
" style="fill:none;opacity:0.5;stroke:#008000;stroke-linecap:round;stroke-width:2;"/>
   </g>
   <g id="patch_67">
    <path d="M 350.834338 36.894151 
Q 350.834338 85.617899 350.834338 134.341648 
" style="fill:none;opacity:0.5;stroke:#800080;stroke-linecap:round;stroke-width:2;"/>
    <path d="M 349.334338 38.394151 
L 350.834338 36.894151 
L 352.334338 38.394151 
" style="fill:none;opacity:0.5;stroke:#800080;stroke-linecap:round;stroke-width:2;"/>
    <path d="M 352.334338 132.841648 
L 350.834338 134.341648 
L 349.334338 132.841648 
" style="fill:none;opacity:0.5;stroke:#800080;stroke-linecap:round;stroke-width:2;"/>
   </g>
   <g id="patch_68">
    <path d="M 410.685591 183.440137 
Q 380.759965 229.805545 350.834338 276.170953 
" style="fill:none;opacity:0.5;stroke:#008000;stroke-linecap:round;stroke-width:2;"/>
   </g>
   <g id="patch_69">
    <path d="M 421.183589 150.015312 
Q 410.9849 182.487161 400.78621 214.959011 
" style="fill:none;opacity:0.5;stroke:#800080;stroke-linecap:round;stroke-width:2;"/>
    <path d="M 419.303044 150.996918 
L 421.183589 150.015312 
L 422.165195 151.895857 
" style="fill:none;opacity:0.5;stroke:#800080;stroke-linecap:round;stroke-width:2;"/>
    <path d="M 402.666755 213.977404 
L 400.78621 214.959011 
L 399.804604 213.078466 
" style="fill:none;opacity:0.5;stroke:#800080;stroke-linecap:round;stroke-width:2;"/>
   </g>
   <g id="line2d_1">
    <path clip-path="url(#pf44bd8f1bc)" d="M 132.399108 259.124847 
L 61.626094 148.666081 
L 132.399108 35.479938 
L 203.172123 148.666081 
" style="fill:none;stroke:#ff0000;stroke-linecap:square;stroke-width:0.2;"/>
   </g>
   <g id="line2d_2">
    <path clip-path="url(#pf44bd8f1bc)" d="M 132.399108 137.756573 
L 181.3286 218.214193 
L 132.399108 293.217058 
L 83.469617 218.214193 
" style="fill:none;stroke:#0000ff;stroke-linecap:square;stroke-width:0.2;"/>
   </g>
   <g id="line2d_3">
    <path clip-path="url(#pf44bd8f1bc)" d="M 350.834338 259.124847 
L 280.061324 148.666081 
L 350.834338 35.479938 
L 421.607353 148.666081 
" style="fill:none;stroke:#ff0000;stroke-linecap:square;stroke-width:0.2;"/>
   </g>
   <g id="line2d_4">
    <path clip-path="url(#pf44bd8f1bc)" d="M 350.834338 137.756573 
L 399.76383 218.214193 
L 350.834338 293.217058 
L 301.904847 218.214193 
" style="fill:none;stroke:#0000ff;stroke-linecap:square;stroke-width:0.2;"/>
   </g>
  </g>
 </g>
 <defs>
  <clipPath id="pf44bd8f1bc">
   <rect height="307.51175" width="404.148862" x="37.576375" y="13.32"/>
  </clipPath>
 </defs>
</svg>
