<?xml version="1.0" encoding="utf-8" standalone="no"?>
<!DOCTYPE svg PUBLIC "-//W3C//DTD SVG 1.1//EN"
  "http://www.w3.org/Graphics/SVG/1.1/DTD/svg11.dtd">
<!-- Created with matplotlib (http://matplotlib.org/) -->
<svg height="345.6pt" version="1.1" viewBox="0 0 460.8 345.6" width="460.8pt" xmlns="http://www.w3.org/2000/svg" xmlns:xlink="http://www.w3.org/1999/xlink">
 <defs>
  <style type="text/css">
*{stroke-linecap:butt;stroke-linejoin:round;}
  </style>
 </defs>
 <g id="figure_1">
  <g id="patch_1">
   <path d="M 0 345.6 
L 460.8 345.6 
L 460.8 0 
L 0 0 
z
" style="fill:#ffffff;"/>
  </g>
  <g id="axes_1">
   <g id="patch_2">
    <path clip-path="url(#p06e9bfb236)" d="M 78.908767 95.227335 
C 79.625204 95.227335 80.312393 94.67676 80.81899 93.696866 
C 81.325588 92.716973 81.610231 91.387766 81.610231 90.001987 
C 81.610231 88.616208 81.325588 87.287001 80.81899 86.307108 
C 80.312393 85.327214 79.625204 84.776639 78.908767 84.776639 
C 78.192331 84.776639 77.505141 85.327214 76.998544 86.307108 
C 76.491947 87.287001 76.207304 88.616208 76.207304 90.001987 
C 76.207304 91.387766 76.491947 92.716973 76.998544 93.696866 
C 77.505141 94.67676 78.192331 95.227335 78.908767 95.227335 
z
" style="fill:#ff0000;opacity:0.2;stroke:#ff0000;stroke-linejoin:miter;stroke-width:2;"/>
   </g>
   <g id="patch_3">
    <path clip-path="url(#p06e9bfb236)" d="M 401.733661 37.748504 
C 402.450098 37.748504 403.137287 37.197928 403.643884 36.218034 
C 404.150482 35.238141 404.435125 33.908934 404.435125 32.523155 
C 404.435125 31.137377 404.150482 29.808169 403.643884 28.828276 
C 403.137287 27.848382 402.450098 27.297807 401.733661 27.297807 
C 401.017225 27.297807 400.330035 27.848382 399.823438 28.828276 
C 399.316841 29.808169 399.032198 31.137377 399.032198 32.523155 
C 399.032198 33.908934 399.316841 35.238141 399.823438 36.218034 
C 400.330035 37.197928 401.017225 37.748504 401.733661 37.748504 
z
" style="fill:#ff0000;opacity:0.2;stroke:#ff0000;stroke-linejoin:miter;stroke-width:2;"/>
   </g>
   <g id="patch_4">
    <path clip-path="url(#p06e9bfb236)" d="M 420.643906 147.480819 
C 421.360343 147.480819 422.047532 146.930243 422.554129 145.95035 
C 423.060726 144.970456 423.34537 143.641249 423.34537 142.25547 
C 423.34537 140.869692 423.060726 139.540485 422.554129 138.560591 
C 422.047532 137.580698 421.360343 137.030122 420.643906 137.030122 
C 419.92747 137.030122 419.24028 137.580698 418.733683 138.560591 
C 418.227086 139.540485 417.942442 140.869692 417.942442 142.25547 
C 417.942442 143.641249 418.227086 144.970456 418.733683 145.95035 
C 419.24028 146.930243 419.92747 147.480819 420.643906 147.480819 
z
" style="fill:#ff0000;opacity:0.2;stroke:#ff0000;stroke-linejoin:miter;stroke-width:2;"/>
   </g>
   <g id="patch_5">
    <path clip-path="url(#p06e9bfb236)" d="M 403.084393 249.375111 
C 403.800829 249.375111 404.488019 248.824536 404.994616 247.844642 
C 405.501213 246.864749 405.785857 245.535542 405.785857 244.149763 
C 405.785857 242.763984 405.501213 241.434777 404.994616 240.454884 
C 404.488019 239.47499 403.800829 238.924415 403.084393 238.924415 
C 402.367956 238.924415 401.680767 239.47499 401.17417 240.454884 
C 400.667573 241.434777 400.382929 242.763984 400.382929 244.149763 
C 400.382929 245.535542 400.667573 246.864749 401.17417 247.844642 
C 401.680767 248.824536 402.367956 249.375111 403.084393 249.375111 
z
" style="fill:#ff0000;opacity:0.2;stroke:#ff0000;stroke-linejoin:miter;stroke-width:2;"/>
   </g>
   <g id="patch_6">
    <path clip-path="url(#p06e9bfb236)" d="M 78.908767 306.853943 
C 79.625204 306.853943 80.312393 306.303368 80.81899 305.323474 
C 81.325588 304.343581 81.610231 303.014373 81.610231 301.628595 
C 81.610231 300.242816 81.325588 298.913609 80.81899 297.933716 
C 80.312393 296.953822 79.625204 296.403246 78.908767 296.403246 
C 78.192331 296.403246 77.505141 296.953822 76.998544 297.933716 
C 76.491947 298.913609 76.207304 300.242816 76.207304 301.628595 
C 76.207304 303.014373 76.491947 304.343581 76.998544 305.323474 
C 77.505141 306.303368 78.192331 306.853943 78.908767 306.853943 
z
" style="fill:#ff0000;opacity:0.2;stroke:#ff0000;stroke-linejoin:miter;stroke-width:2;"/>
   </g>
   <g id="patch_7">
    <path clip-path="url(#p06e9bfb236)" d="M 58.647791 202.346976 
C 59.364227 202.346976 60.051417 201.796401 60.558014 200.816507 
C 61.064611 199.836614 61.349254 198.507407 61.349254 197.121628 
C 61.349254 195.735849 61.064611 194.406642 60.558014 193.426749 
C 60.051417 192.446855 59.364227 191.89628 58.647791 191.89628 
C 57.931354 191.89628 57.244165 192.446855 56.737567 193.426749 
C 56.23097 194.406642 55.946327 195.735849 55.946327 197.121628 
C 55.946327 198.507407 56.23097 199.836614 56.737567 200.816507 
C 57.244165 201.796401 57.931354 202.346976 58.647791 202.346976 
z
" style="fill:#ff0000;opacity:0.2;stroke:#ff0000;stroke-linejoin:miter;stroke-width:2;"/>
   </g>
   <g id="patch_8">
    <path clip-path="url(#p06e9bfb236)" d="M 77.558036 126.579425 
C 78.274472 126.579425 78.961662 126.02885 79.468259 125.048956 
C 79.974856 124.069063 80.259499 122.739856 80.259499 121.354077 
C 80.259499 119.968298 79.974856 118.639091 79.468259 117.659198 
C 78.961662 116.679304 78.274472 116.128729 77.558036 116.128729 
C 76.841599 116.128729 76.154409 116.679304 75.647812 117.659198 
C 75.141215 118.639091 74.856572 119.968298 74.856572 121.354077 
C 74.856572 122.739856 75.141215 124.069063 75.647812 125.048956 
C 76.154409 126.02885 76.841599 126.579425 77.558036 126.579425 
z
" style="fill:#0000ff;opacity:0.2;stroke:#0000ff;stroke-linejoin:miter;stroke-width:2;"/>
   </g>
   <g id="patch_9">
    <path clip-path="url(#p06e9bfb236)" d="M 392.278539 69.100594 
C 392.994975 69.100594 393.682165 68.550018 394.188762 67.570124 
C 394.695359 66.590231 394.980002 65.261024 394.980002 63.875245 
C 394.980002 62.489467 394.695359 61.160259 394.188762 60.180366 
C 393.682165 59.200473 392.994975 58.649897 392.278539 58.649897 
C 391.562102 58.649897 390.874913 59.200473 390.368316 60.180366 
C 389.861718 61.160259 389.577075 62.489467 389.577075 63.875245 
C 389.577075 65.261024 389.861718 66.590231 390.368316 67.570124 
C 390.874913 68.550018 391.562102 69.100594 392.278539 69.100594 
z
" style="fill:#0000ff;opacity:0.2;stroke:#0000ff;stroke-linejoin:miter;stroke-width:2;"/>
   </g>
   <g id="patch_10">
    <path clip-path="url(#p06e9bfb236)" d="M 412.539515 152.706167 
C 413.255952 152.706167 413.943141 152.155591 414.449739 151.175698 
C 414.956336 150.195805 415.240979 148.866597 415.240979 147.480819 
C 415.240979 146.09504 414.956336 144.765833 414.449739 143.785939 
C 413.943141 142.806046 413.255952 142.25547 412.539515 142.25547 
C 411.823079 142.25547 411.135889 142.806046 410.629292 143.785939 
C 410.122695 144.765833 409.838052 146.09504 409.838052 147.480819 
C 409.838052 148.866597 410.122695 150.195805 410.629292 151.175698 
C 411.135889 152.155591 411.823079 152.706167 412.539515 152.706167 
z
" style="fill:#0000ff;opacity:0.2;stroke:#0000ff;stroke-linejoin:miter;stroke-width:2;"/>
   </g>
   <g id="patch_11">
    <path clip-path="url(#p06e9bfb236)" d="M 401.733661 218.023021 
C 402.450098 218.023021 403.137287 217.472446 403.643884 216.492552 
C 404.150482 215.512659 404.435125 214.183452 404.435125 212.797673 
C 404.435125 211.411894 404.150482 210.082687 403.643884 209.102794 
C 403.137287 208.1229 402.450098 207.572325 401.733661 207.572325 
C 401.017225 207.572325 400.330035 208.1229 399.823438 209.102794 
C 399.316841 210.082687 399.032198 211.411894 399.032198 212.797673 
C 399.032198 214.183452 399.316841 215.512659 399.823438 216.492552 
C 400.330035 217.472446 401.017225 218.023021 401.733661 218.023021 
z
" style="fill:#0000ff;opacity:0.2;stroke:#0000ff;stroke-linejoin:miter;stroke-width:2;"/>
   </g>
   <g id="patch_12">
    <path clip-path="url(#p06e9bfb236)" d="M 87.013158 275.501853 
C 87.729594 275.501853 88.416784 274.951277 88.923381 273.971384 
C 89.429978 272.991491 89.714621 271.662283 89.714621 270.276505 
C 89.714621 268.890726 89.429978 267.561519 88.923381 266.581626 
C 88.416784 265.601732 87.729594 265.051156 87.013158 265.051156 
C 86.296721 265.051156 85.609532 265.601732 85.102935 266.581626 
C 84.596338 267.561519 84.311694 268.890726 84.311694 270.276505 
C 84.311694 271.662283 84.596338 272.991491 85.102935 273.971384 
C 85.609532 274.951277 86.296721 275.501853 87.013158 275.501853 
z
" style="fill:#0000ff;opacity:0.2;stroke:#0000ff;stroke-linejoin:miter;stroke-width:2;"/>
   </g>
   <g id="patch_13">
    <path clip-path="url(#p06e9bfb236)" d="M 66.752181 191.89628 
C 67.468618 191.89628 68.155807 191.345704 68.662405 190.365811 
C 69.169002 189.385917 69.453645 188.05671 69.453645 186.670931 
C 69.453645 185.285153 69.169002 183.955945 68.662405 182.976052 
C 68.155807 181.996159 67.468618 181.445583 66.752181 181.445583 
C 66.035745 181.445583 65.348555 181.996159 64.841958 182.976052 
C 64.335361 183.955945 64.050718 185.285153 64.050718 186.670931 
C 64.050718 188.05671 64.335361 189.385917 64.841958 190.365811 
C 65.348555 191.345704 66.035745 191.89628 66.752181 191.89628 
z
" style="fill:#0000ff;opacity:0.2;stroke:#0000ff;stroke-linejoin:miter;stroke-width:2;"/>
   </g>
   <g id="patch_14">
    <path clip-path="url(#p06e9bfb236)" d="M 78.908767 90.001987 
L 401.733661 32.523155 
C 413.890247 58.649897 420.643906 97.840009 420.643906 142.25547 
C 420.643906 176.220235 413.890247 218.023021 403.084393 244.149763 
L 78.908767 301.628595 
C 68.102913 280.727201 58.647791 244.149763 58.647791 197.121628 
C 58.647791 147.480819 68.102913 116.128729 78.908767 90.001987 
" style="fill:none;stroke:#ff0000;stroke-linejoin:miter;stroke-width:0.5;"/>
   </g>
   <g id="patch_15">
    <path clip-path="url(#p06e9bfb236)" d="M 77.558036 121.354077 
L 392.278539 63.875245 
C 407.136588 82.163964 412.539515 113.516054 412.539515 147.480819 
C 412.539515 173.60756 408.48732 197.121628 401.733661 212.797673 
L 87.013158 270.276505 
C 72.155108 246.762437 66.752181 212.797673 66.752181 186.670931 
C 66.752181 160.54419 70.804377 137.030122 77.558036 121.354077 
" style="fill:none;stroke:#0000ff;stroke-linejoin:miter;stroke-width:0.5;"/>
   </g>
   <g id="[&quot;g_s&quot;:1,&quot;g_t&quot;:1,&quot;coords&quot;:[[95.0, -463.0],[94.0, -475.0]],&quot;certainty&quot;:9]">
    <path clip-path="url(#p06e9bfb236)" d="M 78.908767 103.065358 
C 80.699859 103.065358 82.417832 101.688919 83.684325 99.239185 
C 84.950818 96.789451 85.662426 93.466433 85.662426 90.001987 
C 85.662426 86.53754 84.950818 83.214522 83.684325 80.764789 
C 82.417832 78.315055 80.699859 76.938616 78.908767 76.938616 
C 77.117676 76.938616 75.399702 78.315055 74.133209 80.764789 
C 72.866717 83.214522 72.155108 86.53754 72.155108 90.001987 
C 72.155108 93.466433 72.866717 96.789451 74.133209 99.239185 
C 75.399702 101.688919 77.117676 103.065358 78.908767 103.065358 
z
" style="fill:#0000ff;opacity:0.2;stroke:#0000ff;stroke-linejoin:miter;stroke-width:2;"/>
   </g>
   <g id="[&quot;g_s&quot;:1,&quot;g_t&quot;:1,&quot;coords&quot;:[[94.0, -475.0],[95.0, -463.0]],&quot;certainty&quot;:9]">
    <path clip-path="url(#p06e9bfb236)" d="M 77.558036 134.417448 
C 79.349127 134.417448 81.067101 133.041009 82.333593 130.591275 
C 83.600086 128.141542 84.311694 124.818523 84.311694 121.354077 
C 84.311694 117.889631 83.600086 114.566612 82.333593 112.116879 
C 81.067101 109.667145 79.349127 108.290706 77.558036 108.290706 
C 75.766944 108.290706 74.04897 109.667145 72.782478 112.116879 
C 71.515985 114.566612 70.804377 117.889631 70.804377 121.354077 
C 70.804377 124.818523 71.515985 128.141542 72.782478 130.591275 
C 74.04897 133.041009 75.766944 134.417448 77.558036 134.417448 
z
" style="fill:#ff0000;opacity:0.2;stroke:#ff0000;stroke-linejoin:miter;stroke-width:2;"/>
   </g>
   <g id="patch_16">
    <path d="M 78.908767 90.001987 
Q 78.276519 104.67723 77.72036 117.586344 
" style="fill:none;opacity:0.5;stroke:#0000ff;stroke-linecap:round;stroke-width:2.5;"/>
    <path d="M 79.283533 116.152298 
L 77.72036 117.586344 
L 76.286314 116.02317 
" style="fill:none;opacity:0.5;stroke:#0000ff;stroke-linecap:round;stroke-width:2.5;"/>
   </g>
   <g id="[&quot;g_s&quot;:2,&quot;g_t&quot;:2,&quot;coords&quot;:[[334.0, -441.0],[327.0, -453.0]],&quot;certainty&quot;:7]">
    <path clip-path="url(#p06e9bfb236)" d="M 401.733661 42.973852 
C 403.166534 42.973852 404.540913 41.872701 405.554108 39.912914 
C 406.567302 37.953127 407.136588 35.294712 407.136588 32.523155 
C 407.136588 29.751598 406.567302 27.093184 405.554108 25.133397 
C 404.540913 23.17361 403.166534 22.072458 401.733661 22.072458 
C 400.300788 22.072458 398.926409 23.17361 397.913215 25.133397 
C 396.900021 27.093184 396.330734 29.751598 396.330734 32.523155 
C 396.330734 35.294712 396.900021 37.953127 397.913215 39.912914 
C 398.926409 41.872701 400.300788 42.973852 401.733661 42.973852 
z
" style="fill:#0000ff;opacity:0.2;stroke:#0000ff;stroke-linejoin:miter;stroke-width:2;"/>
   </g>
   <g id="[&quot;g_s&quot;:2,&quot;g_t&quot;:2,&quot;coords&quot;:[[327.0, -453.0],[334.0, -441.0]],&quot;certainty&quot;:7]">
    <path clip-path="url(#p06e9bfb236)" d="M 392.278539 74.325942 
C 393.711412 74.325942 395.085791 73.224791 396.098985 71.265004 
C 397.112179 69.305217 397.681466 66.646802 397.681466 63.875245 
C 397.681466 61.103688 397.112179 58.445274 396.098985 56.485487 
C 395.085791 54.5257 393.711412 53.424549 392.278539 53.424549 
C 390.845666 53.424549 389.471287 54.5257 388.458092 56.485487 
C 387.444898 58.445274 386.875612 61.103688 386.875612 63.875245 
C 386.875612 66.646802 387.444898 69.305217 388.458092 71.265004 
C 389.471287 73.224791 390.845666 74.325942 392.278539 74.325942 
z
" style="fill:#ff0000;opacity:0.2;stroke:#ff0000;stroke-linejoin:miter;stroke-width:2;"/>
   </g>
   <g id="patch_17">
    <path d="M 401.733661 32.523155 
Q 397.295225 47.240497 393.26512 60.603857 
" style="fill:none;opacity:0.5;stroke:#0000ff;stroke-linecap:round;stroke-width:2;"/>
    <path d="M 395.134335 59.600845 
L 393.26512 60.603857 
L 392.262107 58.734642 
" style="fill:none;opacity:0.5;stroke:#0000ff;stroke-linecap:round;stroke-width:2;"/>
   </g>
   <g id="[&quot;g_s&quot;:3,&quot;g_t&quot;:3,&quot;coords&quot;:[[348.0, -483.0],[342.0, -485.0]],&quot;certainty&quot;:12]">
    <path clip-path="url(#p06e9bfb236)" d="M 420.643906 159.237852 
C 422.972325 159.237852 425.205691 157.448482 426.852131 154.263828 
C 428.498572 151.079174 429.423663 146.759251 429.423663 142.25547 
C 429.423663 137.75169 428.498572 133.431766 426.852131 130.247113 
C 425.205691 127.062459 422.972325 125.273088 420.643906 125.273088 
C 418.315487 125.273088 416.082121 127.062459 414.435681 130.247113 
C 412.78924 133.431766 411.864149 137.75169 411.864149 142.25547 
C 411.864149 146.759251 412.78924 151.079174 414.435681 154.263828 
C 416.082121 157.448482 418.315487 159.237852 420.643906 159.237852 
z
" style="fill:#0000ff;opacity:0.2;stroke:#0000ff;stroke-linejoin:miter;stroke-width:2;"/>
   </g>
   <g id="[&quot;g_s&quot;:3,&quot;g_t&quot;:3,&quot;coords&quot;:[[342.0, -485.0],[348.0, -483.0]],&quot;certainty&quot;:12]">
    <path clip-path="url(#p06e9bfb236)" d="M 412.539515 164.463201 
C 414.867934 164.463201 417.1013 162.67383 418.747741 159.489176 
C 420.394181 156.304523 421.319272 151.984599 421.319272 147.480819 
C 421.319272 142.977038 420.394181 138.657115 418.747741 135.472461 
C 417.1013 132.287808 414.867934 130.498437 412.539515 130.498437 
C 410.211097 130.498437 407.977731 132.287808 406.33129 135.472461 
C 404.684849 138.657115 403.759759 142.977038 403.759759 147.480819 
C 403.759759 151.984599 404.684849 156.304523 406.33129 159.489176 
C 407.977731 162.67383 410.211097 164.463201 412.539515 164.463201 
z
" style="fill:#ff0000;opacity:0.2;stroke:#ff0000;stroke-linejoin:miter;stroke-width:2;"/>
   </g>
   <g id="patch_18">
    <path d="M 420.643906 142.25547 
Q 417.43262 144.325964 416.152775 145.151151 
" style="fill:none;opacity:0.5;stroke:#0000ff;stroke-linecap:round;stroke-width:3.25;"/>
    <path d="M 418.226282 145.599 
L 416.152775 145.151151 
L 416.600624 143.077644 
" style="fill:none;opacity:0.5;stroke:#0000ff;stroke-linecap:round;stroke-width:3.25;"/>
   </g>
   <g id="[&quot;g_s&quot;:4,&quot;g_t&quot;:4,&quot;coords&quot;:[[335.0, -522.0],[334.0, -510.0]],&quot;certainty&quot;:5]">
    <path clip-path="url(#p06e9bfb236)" d="M 403.084393 251.987786 
C 404.159048 251.987786 405.189832 251.161922 405.949728 249.692082 
C 406.709623 248.222242 407.136588 246.228431 407.136588 244.149763 
C 407.136588 242.071095 406.709623 240.077284 405.949728 238.607444 
C 405.189832 237.137604 404.159048 236.311741 403.084393 236.311741 
C 402.009738 236.311741 400.978954 237.137604 400.219058 238.607444 
C 399.459163 240.077284 399.032198 242.071095 399.032198 244.149763 
C 399.032198 246.228431 399.459163 248.222242 400.219058 249.692082 
C 400.978954 251.161922 402.009738 251.987786 403.084393 251.987786 
z
" style="fill:#0000ff;opacity:0.2;stroke:#0000ff;stroke-linejoin:miter;stroke-width:2;"/>
   </g>
   <g id="[&quot;g_s&quot;:4,&quot;g_t&quot;:4,&quot;coords&quot;:[[334.0, -510.0],[335.0, -522.0]],&quot;certainty&quot;:5]">
    <path clip-path="url(#p06e9bfb236)" d="M 401.733661 220.635696 
C 402.808316 220.635696 403.8391 219.809832 404.598996 218.339992 
C 405.358892 216.870152 405.785857 214.876341 405.785857 212.797673 
C 405.785857 210.719005 405.358892 208.725194 404.598996 207.255354 
C 403.8391 205.785514 402.808316 204.95965 401.733661 204.95965 
C 400.659006 204.95965 399.628222 205.785514 398.868326 207.255354 
C 398.108431 208.725194 397.681466 210.719005 397.681466 212.797673 
C 397.681466 214.876341 398.108431 216.870152 398.868326 218.339992 
C 399.628222 219.809832 400.659006 220.635696 401.733661 220.635696 
z
" style="fill:#ff0000;opacity:0.2;stroke:#ff0000;stroke-linejoin:miter;stroke-width:2;"/>
   </g>
   <g id="patch_19">
    <path d="M 403.084393 244.149763 
Q 402.452144 229.47452 401.865549 215.858955 
" style="fill:none;opacity:0.5;stroke:#0000ff;stroke-linecap:round;stroke-width:1.5;"/>
    <path d="M 400.431504 217.422129 
L 401.865549 215.858955 
L 403.428723 217.293 
" style="fill:none;opacity:0.5;stroke:#0000ff;stroke-linecap:round;stroke-width:1.5;"/>
   </g>
   <g id="[&quot;g_s&quot;:5,&quot;g_t&quot;:5,&quot;coords&quot;:[[95.0, -544.0],[101.0, -532.0]],&quot;certainty&quot;:7]">
    <path clip-path="url(#p06e9bfb236)" d="M 78.908767 312.079292 
C 80.34164 312.079292 81.716019 310.97814 82.729214 309.018353 
C 83.742408 307.058566 84.311694 304.400152 84.311694 301.628595 
C 84.311694 298.857038 83.742408 296.198623 82.729214 294.238836 
C 81.716019 292.279049 80.34164 291.177898 78.908767 291.177898 
C 77.475894 291.177898 76.101515 292.279049 75.088321 294.238836 
C 74.075127 296.198623 73.50584 298.857038 73.50584 301.628595 
C 73.50584 304.400152 74.075127 307.058566 75.088321 309.018353 
C 76.101515 310.97814 77.475894 312.079292 78.908767 312.079292 
z
" style="fill:#0000ff;opacity:0.2;stroke:#0000ff;stroke-linejoin:miter;stroke-width:2;"/>
   </g>
   <g id="[&quot;g_s&quot;:5,&quot;g_t&quot;:5,&quot;coords&quot;:[[101.0, -532.0],[95.0, -544.0]],&quot;certainty&quot;:7]">
    <path clip-path="url(#p06e9bfb236)" d="M 87.013158 280.727201 
C 88.446031 280.727201 89.82041 279.62605 90.833604 277.666263 
C 91.846799 275.706476 92.416085 273.048062 92.416085 270.276505 
C 92.416085 267.504948 91.846799 264.846533 90.833604 262.886746 
C 89.82041 260.926959 88.446031 259.825808 87.013158 259.825808 
C 85.580285 259.825808 84.205906 260.926959 83.192712 262.886746 
C 82.179517 264.846533 81.610231 267.504948 81.610231 270.276505 
C 81.610231 273.048062 82.179517 275.706476 83.192712 277.666263 
C 84.205906 279.62605 85.580285 280.727201 87.013158 280.727201 
z
" style="fill:#ff0000;opacity:0.2;stroke:#ff0000;stroke-linejoin:miter;stroke-width:2;"/>
   </g>
   <g id="patch_20">
    <path d="M 78.908767 301.628595 
Q 82.711163 286.918908 86.159624 273.578428 
" style="fill:none;opacity:0.5;stroke:#0000ff;stroke-linecap:round;stroke-width:2;"/>
    <path d="M 84.331955 274.655288 
L 86.159624 273.578428 
L 87.236484 275.406097 
" style="fill:none;opacity:0.5;stroke:#0000ff;stroke-linecap:round;stroke-width:2;"/>
   </g>
   <g id="[&quot;g_s&quot;:6,&quot;g_t&quot;:6,&quot;coords&quot;:[[80.0, -504.0],[86.0, -500.0]],&quot;certainty&quot;:9]">
    <path clip-path="url(#p06e9bfb236)" d="M 58.647791 210.184999 
C 60.438882 210.184999 62.156856 208.80856 63.423349 206.358826 
C 64.689841 203.909093 65.40145 200.586074 65.40145 197.121628 
C 65.40145 193.657182 64.689841 190.334163 63.423349 187.88443 
C 62.156856 185.434696 60.438882 184.058257 58.647791 184.058257 
C 56.856699 184.058257 55.138725 185.434696 53.872233 187.88443 
C 52.60574 190.334163 51.894132 193.657182 51.894132 197.121628 
C 51.894132 200.586074 52.60574 203.909093 53.872233 206.358826 
C 55.138725 208.80856 56.856699 210.184999 58.647791 210.184999 
z
" style="fill:#0000ff;opacity:0.2;stroke:#0000ff;stroke-linejoin:miter;stroke-width:2;"/>
   </g>
   <g id="[&quot;g_s&quot;:6,&quot;g_t&quot;:6,&quot;coords&quot;:[[86.0, -500.0],[80.0, -504.0]],&quot;certainty&quot;:9]">
    <path clip-path="url(#p06e9bfb236)" d="M 66.752181 199.734302 
C 68.543273 199.734302 70.261247 198.357863 71.527739 195.908129 
C 72.794232 193.458396 73.50584 190.135378 73.50584 186.670931 
C 73.50584 183.206485 72.794232 179.883467 71.527739 177.433733 
C 70.261247 174.984 68.543273 173.60756 66.752181 173.60756 
C 64.96109 173.60756 63.243116 174.984 61.976623 177.433733 
C 60.710131 179.883467 59.998522 183.206485 59.998522 186.670931 
C 59.998522 190.135378 60.710131 193.458396 61.976623 195.908129 
C 63.243116 198.357863 64.96109 199.734302 66.752181 199.734302 
z
" style="fill:#ff0000;opacity:0.2;stroke:#ff0000;stroke-linejoin:miter;stroke-width:2;"/>
   </g>
   <g id="patch_21">
    <path d="M 58.647791 197.121628 
Q 62.087606 192.68595 64.444111 189.647212 
" style="fill:none;opacity:0.5;stroke:#0000ff;stroke-linecap:round;stroke-width:2.5;"/>
    <path d="M 62.33955 189.913335 
L 64.444111 189.647212 
L 64.710235 191.751773 
" style="fill:none;opacity:0.5;stroke:#0000ff;stroke-linecap:round;stroke-width:2.5;"/>
   </g>
   <g id="[&quot;g_s&quot;:1,&quot;g_t&quot;:1,&quot;coords&quot;:[[94.0, -475.0],[95.0, -463.0]],&quot;certainty&quot;:10]">
    <path clip-path="url(#p06e9bfb236)" d="M 77.558036 135.723785 
C 79.528236 135.723785 81.418007 134.209702 82.811149 131.514995 
C 84.204291 128.820288 84.98706 125.164968 84.98706 121.354077 
C 84.98706 117.543186 84.204291 113.887866 82.811149 111.193159 
C 81.418007 108.498452 79.528236 106.984369 77.558036 106.984369 
C 75.587835 106.984369 73.698064 108.498452 72.304922 111.193159 
C 70.91178 113.887866 70.129011 117.543186 70.129011 121.354077 
C 70.129011 125.164968 70.91178 128.820288 72.304922 131.514995 
C 73.698064 134.209702 75.587835 135.723785 77.558036 135.723785 
z
" style="fill:#0000ff;opacity:0.2;stroke:#0000ff;stroke-linejoin:miter;stroke-width:2;"/>
   </g>
   <g id="[&quot;g_s&quot;:1,&quot;g_t&quot;:1,&quot;coords&quot;:[[95.0, -463.0],[94.0, -475.0]],&quot;certainty&quot;:10]">
    <path clip-path="url(#p06e9bfb236)" d="M 78.908767 104.371695 
C 80.878968 104.371695 82.768739 102.857612 84.161881 100.162905 
C 85.555023 97.468198 86.337792 93.812878 86.337792 90.001987 
C 86.337792 86.191096 85.555023 82.535776 84.161881 79.841069 
C 82.768739 77.146362 80.878968 75.632279 78.908767 75.632279 
C 76.938567 75.632279 75.048796 77.146362 73.655653 79.841069 
C 72.262511 82.535776 71.479743 86.191096 71.479743 90.001987 
C 71.479743 93.812878 72.262511 97.468198 73.655653 100.162905 
C 75.048796 102.857612 76.938567 104.371695 78.908767 104.371695 
z
" style="fill:#ff0000;opacity:0.2;stroke:#ff0000;stroke-linejoin:miter;stroke-width:2;"/>
   </g>
   <g id="patch_22">
    <path d="M 77.558036 121.354077 
Q 78.190284 106.678834 78.738834 93.946333 
" style="fill:none;opacity:0.5;stroke:#ff0000;stroke-linecap:round;stroke-width:2.75;"/>
    <path d="M 77.17566 95.380379 
L 78.738834 93.946333 
L 80.17288 95.509507 
" style="fill:none;opacity:0.5;stroke:#ff0000;stroke-linecap:round;stroke-width:2.75;"/>
   </g>
   <g id="[&quot;g_s&quot;:2,&quot;g_t&quot;:2,&quot;coords&quot;:[[327.0, -453.0],[334.0, -441.0]],&quot;certainty&quot;:8]">
    <path clip-path="url(#p06e9bfb236)" d="M 392.278539 75.632279 
C 393.890521 75.632279 395.436697 74.393484 396.576541 72.188724 
C 397.716384 69.983963 398.356832 66.993247 398.356832 63.875245 
C 398.356832 60.757243 397.716384 57.766527 396.576541 55.561767 
C 395.436697 53.357007 393.890521 52.118211 392.278539 52.118211 
C 390.666557 52.118211 389.12038 53.357007 387.980537 55.561767 
C 386.840693 57.766527 386.200246 60.757243 386.200246 63.875245 
C 386.200246 66.993247 386.840693 69.983963 387.980537 72.188724 
C 389.12038 74.393484 390.666557 75.632279 392.278539 75.632279 
z
" style="fill:#0000ff;opacity:0.2;stroke:#0000ff;stroke-linejoin:miter;stroke-width:2;"/>
   </g>
   <g id="[&quot;g_s&quot;:2,&quot;g_t&quot;:2,&quot;coords&quot;:[[334.0, -441.0],[327.0, -453.0]],&quot;certainty&quot;:8]">
    <path clip-path="url(#p06e9bfb236)" d="M 401.733661 44.280189 
C 403.345643 44.280189 404.89182 43.041394 406.031663 40.836633 
C 407.171507 38.631873 407.811954 35.641157 407.811954 32.523155 
C 407.811954 29.405153 407.171507 26.414437 406.031663 24.209677 
C 404.89182 22.004917 403.345643 20.766121 401.733661 20.766121 
C 400.121679 20.766121 398.575503 22.004917 397.435659 24.209677 
C 396.295816 26.414437 395.655368 29.405153 395.655368 32.523155 
C 395.655368 35.641157 396.295816 38.631873 397.435659 40.836633 
C 398.575503 43.041394 400.121679 44.280189 401.733661 44.280189 
z
" style="fill:#ff0000;opacity:0.2;stroke:#ff0000;stroke-linejoin:miter;stroke-width:2;"/>
   </g>
   <g id="patch_23">
    <path d="M 392.278539 63.875245 
Q 396.716975 49.157904 400.696039 35.963791 
" style="fill:none;opacity:0.5;stroke:#ff0000;stroke-linecap:round;stroke-width:2.25;"/>
    <path d="M 398.826823 36.966803 
L 400.696039 35.963791 
L 401.699051 37.833006 
" style="fill:none;opacity:0.5;stroke:#ff0000;stroke-linecap:round;stroke-width:2.25;"/>
   </g>
   <g id="[&quot;g_s&quot;:3,&quot;g_t&quot;:3,&quot;coords&quot;:[[342.0, -485.0],[348.0, -483.0]],&quot;certainty&quot;:10]">
    <path clip-path="url(#p06e9bfb236)" d="M 412.539515 161.850527 
C 414.509716 161.850527 416.399487 160.336444 417.792629 157.641737 
C 419.185771 154.94703 419.96854 151.29171 419.96854 147.480819 
C 419.96854 143.669928 419.185771 140.014608 417.792629 137.319901 
C 416.399487 134.625194 414.509716 133.111111 412.539515 133.111111 
C 410.569315 133.111111 408.679544 134.625194 407.286402 137.319901 
C 405.89326 140.014608 405.110491 143.669928 405.110491 147.480819 
C 405.110491 151.29171 405.89326 154.94703 407.286402 157.641737 
C 408.679544 160.336444 410.569315 161.850527 412.539515 161.850527 
z
" style="fill:#0000ff;opacity:0.2;stroke:#0000ff;stroke-linejoin:miter;stroke-width:2;"/>
   </g>
   <g id="[&quot;g_s&quot;:3,&quot;g_t&quot;:3,&quot;coords&quot;:[[348.0, -483.0],[342.0, -485.0]],&quot;certainty&quot;:10]">
    <path clip-path="url(#p06e9bfb236)" d="M 420.643906 156.625178 
C 422.614106 156.625178 424.503878 155.111095 425.89702 152.416388 
C 427.290162 149.721681 428.072931 146.066361 428.072931 142.25547 
C 428.072931 138.444579 427.290162 134.789259 425.89702 132.094552 
C 424.503878 129.399846 422.614106 127.885762 420.643906 127.885762 
C 418.673706 127.885762 416.783934 129.399846 415.390792 132.094552 
C 413.99765 134.789259 413.214881 138.444579 413.214881 142.25547 
C 413.214881 146.066361 413.99765 149.721681 415.390792 152.416388 
C 416.783934 155.111095 418.673706 156.625178 420.643906 156.625178 
z
" style="fill:#ff0000;opacity:0.2;stroke:#ff0000;stroke-linejoin:miter;stroke-width:2;"/>
   </g>
   <g id="patch_24">
    <path d="M 412.539515 147.480819 
Q 415.750801 145.410325 417.327791 144.393553 
" style="fill:none;opacity:0.5;stroke:#ff0000;stroke-linecap:round;stroke-width:2.75;"/>
    <path d="M 415.254284 143.945704 
L 417.327791 144.393553 
L 416.879942 146.46706 
" style="fill:none;opacity:0.5;stroke:#ff0000;stroke-linecap:round;stroke-width:2.75;"/>
   </g>
   <g id="[&quot;g_s&quot;:4,&quot;g_t&quot;:4,&quot;coords&quot;:[[334.0, -510.0],[335.0, -522.0]],&quot;certainty&quot;:6]">
    <path clip-path="url(#p06e9bfb236)" d="M 401.733661 221.942033 
C 402.987425 221.942033 404.190007 220.978525 405.076552 219.263712 
C 405.963097 217.548898 406.461222 215.222786 406.461222 212.797673 
C 406.461222 210.37256 405.963097 208.046448 405.076552 206.331634 
C 404.190007 204.616821 402.987425 203.653313 401.733661 203.653313 
C 400.479897 203.653313 399.277316 204.616821 398.390771 206.331634 
C 397.504226 208.046448 397.0061 210.37256 397.0061 212.797673 
C 397.0061 215.222786 397.504226 217.548898 398.390771 219.263712 
C 399.277316 220.978525 400.479897 221.942033 401.733661 221.942033 
z
" style="fill:#0000ff;opacity:0.2;stroke:#0000ff;stroke-linejoin:miter;stroke-width:2;"/>
   </g>
   <g id="[&quot;g_s&quot;:4,&quot;g_t&quot;:4,&quot;coords&quot;:[[335.0, -522.0],[334.0, -510.0]],&quot;certainty&quot;:6]">
    <path clip-path="url(#p06e9bfb236)" d="M 403.084393 253.294123 
C 404.338157 253.294123 405.540739 252.330615 406.427284 250.615802 
C 407.313829 248.900988 407.811954 246.574876 407.811954 244.149763 
C 407.811954 241.724651 407.313829 239.398538 406.427284 237.683724 
C 405.540739 235.968911 404.338157 235.005403 403.084393 235.005403 
C 401.830629 235.005403 400.628047 235.968911 399.741502 237.683724 
C 398.854957 239.398538 398.356832 241.724651 398.356832 244.149763 
C 398.356832 246.574876 398.854957 248.900988 399.741502 250.615802 
C 400.628047 252.330615 401.830629 253.294123 403.084393 253.294123 
z
" style="fill:#ff0000;opacity:0.2;stroke:#ff0000;stroke-linejoin:miter;stroke-width:2;"/>
   </g>
   <g id="patch_25">
    <path d="M 401.733661 212.797673 
Q 402.36591 227.472916 402.944896 240.911869 
" style="fill:none;opacity:0.5;stroke:#ff0000;stroke-linecap:round;stroke-width:1.75;"/>
    <path d="M 404.378942 239.348695 
L 402.944896 240.911869 
L 401.381722 239.477823 
" style="fill:none;opacity:0.5;stroke:#ff0000;stroke-linecap:round;stroke-width:1.75;"/>
   </g>
   <g id="[&quot;g_s&quot;:5,&quot;g_t&quot;:5,&quot;coords&quot;:[[101.0, -532.0],[95.0, -544.0]],&quot;certainty&quot;:9]">
    <path clip-path="url(#p06e9bfb236)" d="M 87.013158 283.339876 
C 88.804249 283.339876 90.522223 281.963436 91.788716 279.513703 
C 93.055209 277.063969 93.766817 273.740951 93.766817 270.276505 
C 93.766817 266.812058 93.055209 263.48904 91.788716 261.039307 
C 90.522223 258.589573 88.804249 257.213134 87.013158 257.213134 
C 85.222067 257.213134 83.504093 258.589573 82.2376 261.039307 
C 80.971107 263.48904 80.259499 266.812058 80.259499 270.276505 
C 80.259499 273.740951 80.971107 277.063969 82.2376 279.513703 
C 83.504093 281.963436 85.222067 283.339876 87.013158 283.339876 
z
" style="fill:#0000ff;opacity:0.2;stroke:#0000ff;stroke-linejoin:miter;stroke-width:2;"/>
   </g>
   <g id="[&quot;g_s&quot;:5,&quot;g_t&quot;:5,&quot;coords&quot;:[[95.0, -544.0],[101.0, -532.0]],&quot;certainty&quot;:9]">
    <path clip-path="url(#p06e9bfb236)" d="M 78.908767 314.691966 
C 80.699859 314.691966 82.417832 313.315527 83.684325 310.865793 
C 84.950818 308.416059 85.662426 305.093041 85.662426 301.628595 
C 85.662426 298.164148 84.950818 294.84113 83.684325 292.391397 
C 82.417832 289.941663 80.699859 288.565224 78.908767 288.565224 
C 77.117676 288.565224 75.399702 289.941663 74.133209 292.391397 
C 72.866717 294.84113 72.155108 298.164148 72.155108 301.628595 
C 72.155108 305.093041 72.866717 308.416059 74.133209 310.865793 
C 75.399702 313.315527 77.117676 314.691966 78.908767 314.691966 
z
" style="fill:#ff0000;opacity:0.2;stroke:#ff0000;stroke-linejoin:miter;stroke-width:2;"/>
   </g>
   <g id="patch_26">
    <path d="M 87.013158 270.276505 
Q 83.210762 284.986192 79.850785 297.98437 
" style="fill:none;opacity:0.5;stroke:#ff0000;stroke-linecap:round;stroke-width:2.5;"/>
    <path d="M 81.678454 296.90751 
L 79.850785 297.98437 
L 78.773925 296.156701 
" style="fill:none;opacity:0.5;stroke:#ff0000;stroke-linecap:round;stroke-width:2.5;"/>
   </g>
   <g id="[&quot;g_s&quot;:6,&quot;g_t&quot;:6,&quot;coords&quot;:[[86.0, -500.0],[80.0, -504.0]],&quot;certainty&quot;:8]">
    <path clip-path="url(#p06e9bfb236)" d="M 66.752181 198.427965 
C 68.364163 198.427965 69.91034 197.18917 71.050183 194.98441 
C 72.190027 192.779649 72.830474 189.788933 72.830474 186.670931 
C 72.830474 183.552929 72.190027 180.562213 71.050183 178.357453 
C 69.91034 176.152693 68.364163 174.913898 66.752181 174.913898 
C 65.140199 174.913898 63.594023 176.152693 62.454179 178.357453 
C 61.314336 180.562213 60.673888 183.552929 60.673888 186.670931 
C 60.673888 189.788933 61.314336 192.779649 62.454179 194.98441 
C 63.594023 197.18917 65.140199 198.427965 66.752181 198.427965 
z
" style="fill:#0000ff;opacity:0.2;stroke:#0000ff;stroke-linejoin:miter;stroke-width:2;"/>
   </g>
   <g id="[&quot;g_s&quot;:6,&quot;g_t&quot;:6,&quot;coords&quot;:[[80.0, -504.0],[86.0, -500.0]],&quot;certainty&quot;:8]">
    <path clip-path="url(#p06e9bfb236)" d="M 58.647791 208.878662 
C 60.259773 208.878662 61.805949 207.639866 62.945793 205.435106 
C 64.085636 203.230346 64.726084 200.23963 64.726084 197.121628 
C 64.726084 194.003626 64.085636 191.01291 62.945793 188.80815 
C 61.805949 186.603389 60.259773 185.364594 58.647791 185.364594 
C 57.035809 185.364594 55.489632 186.603389 54.349788 188.80815 
C 53.209945 191.01291 52.569498 194.003626 52.569498 197.121628 
C 52.569498 200.23963 53.209945 203.230346 54.349788 205.435106 
C 55.489632 207.639866 57.035809 208.878662 58.647791 208.878662 
z
" style="fill:#ff0000;opacity:0.2;stroke:#ff0000;stroke-linejoin:miter;stroke-width:2;"/>
   </g>
   <g id="patch_27">
    <path d="M 66.752181 186.670931 
Q 63.312366 191.106609 60.84753 194.285041 
" style="fill:none;opacity:0.5;stroke:#ff0000;stroke-linecap:round;stroke-width:2.25;"/>
    <path d="M 62.952091 194.018918 
L 60.84753 194.285041 
L 60.581406 192.18048 
" style="fill:none;opacity:0.5;stroke:#ff0000;stroke-linecap:round;stroke-width:2.25;"/>
   </g>
   <g id="patch_28">
    <path clip-path="url(#p06e9bfb236)" d="M 78.233401 118.741403 
C 80.024493 118.741403 81.742467 117.364964 83.008959 114.91523 
C 84.275452 112.465497 84.98706 109.142478 84.98706 105.678032 
C 84.98706 102.213586 84.275452 98.890567 83.008959 96.440834 
C 81.742467 93.9911 80.024493 92.614661 78.233401 92.614661 
C 76.44231 92.614661 74.724336 93.9911 73.457843 96.440834 
C 72.191351 98.890567 71.479743 102.213586 71.479743 105.678032 
C 71.479743 109.142478 72.191351 112.465497 73.457843 114.91523 
C 74.724336 117.364964 76.44231 118.741403 78.233401 118.741403 
z
" style="fill:#008000;opacity:0.2;stroke:#008000;stroke-linejoin:miter;stroke-width:2;"/>
   </g>
   <g id="patch_29">
    <path clip-path="url(#p06e9bfb236)" d="M 397.0061 61.262571 
C 398.797191 61.262571 400.515165 59.886132 401.781658 57.436398 
C 403.048151 54.986665 403.759759 51.663647 403.759759 48.1992 
C 403.759759 44.734754 403.048151 41.411736 401.781658 38.962002 
C 400.515165 36.512268 398.797191 35.135829 397.0061 35.135829 
C 395.215009 35.135829 393.497035 36.512268 392.230542 38.962002 
C 390.964049 41.411736 390.252441 44.734754 390.252441 48.1992 
C 390.252441 51.663647 390.964049 54.986665 392.230542 57.436398 
C 393.497035 59.886132 395.215009 61.262571 397.0061 61.262571 
z
" style="fill:#008000;opacity:0.2;stroke:#008000;stroke-linejoin:miter;stroke-width:2;"/>
   </g>
   <g id="patch_30">
    <path clip-path="url(#p06e9bfb236)" d="M 416.591711 157.931515 
C 418.382802 157.931515 420.100776 156.555076 421.367269 154.105343 
C 422.633761 151.655609 423.34537 148.332591 423.34537 144.868145 
C 423.34537 141.403698 422.633761 138.08068 421.367269 135.630946 
C 420.100776 133.181213 418.382802 131.804774 416.591711 131.804774 
C 414.800619 131.804774 413.082646 133.181213 411.816153 135.630946 
C 410.54966 138.08068 409.838052 141.403698 409.838052 144.868145 
C 409.838052 148.332591 410.54966 151.655609 411.816153 154.105343 
C 413.082646 156.555076 414.800619 157.931515 416.591711 157.931515 
z
" style="fill:#008000;opacity:0.2;stroke:#008000;stroke-linejoin:miter;stroke-width:2;"/>
   </g>
   <g id="patch_31">
    <path clip-path="url(#p06e9bfb236)" d="M 402.409027 241.537089 
C 404.200118 241.537089 405.918092 240.16065 407.184585 237.710916 
C 408.451078 235.261183 409.162686 231.938164 409.162686 228.473718 
C 409.162686 225.009272 408.451078 221.686253 407.184585 219.23652 
C 405.918092 216.786786 404.200118 215.410347 402.409027 215.410347 
C 400.617936 215.410347 398.899962 216.786786 397.633469 219.23652 
C 396.366976 221.686253 395.655368 225.009272 395.655368 228.473718 
C 395.655368 231.938164 396.366976 235.261183 397.633469 237.710916 
C 398.899962 240.16065 400.617936 241.537089 402.409027 241.537089 
z
" style="fill:#008000;opacity:0.2;stroke:#008000;stroke-linejoin:miter;stroke-width:2;"/>
   </g>
   <g id="patch_32">
    <path clip-path="url(#p06e9bfb236)" d="M 82.960963 299.015921 
C 84.752054 299.015921 86.470028 297.639482 87.736521 295.189748 
C 89.003013 292.740014 89.714621 289.416996 89.714621 285.95255 
C 89.714621 282.488103 89.003013 279.165085 87.736521 276.715352 
C 86.470028 274.265618 84.752054 272.889179 82.960963 272.889179 
C 81.169871 272.889179 79.451897 274.265618 78.185405 276.715352 
C 76.918912 279.165085 76.207304 282.488103 76.207304 285.95255 
C 76.207304 289.416996 76.918912 292.740014 78.185405 295.189748 
C 79.451897 297.639482 81.169871 299.015921 82.960963 299.015921 
z
" style="fill:#008000;opacity:0.2;stroke:#008000;stroke-linejoin:miter;stroke-width:2;"/>
   </g>
   <g id="patch_33">
    <path clip-path="url(#p06e9bfb236)" d="M 62.699986 204.95965 
C 64.491077 204.95965 66.209051 203.583211 67.475544 201.133478 
C 68.742037 198.683744 69.453645 195.360726 69.453645 191.89628 
C 69.453645 188.431833 68.742037 185.108815 67.475544 182.659082 
C 66.209051 180.209348 64.491077 178.832909 62.699986 178.832909 
C 60.908895 178.832909 59.190921 180.209348 57.924428 182.659082 
C 56.657935 185.108815 55.946327 188.431833 55.946327 191.89628 
C 55.946327 195.360726 56.657935 198.683744 57.924428 201.133478 
C 59.190921 203.583211 60.908895 204.95965 62.699986 204.95965 
z
" style="fill:#008000;opacity:0.2;stroke:#008000;stroke-linejoin:miter;stroke-width:2;"/>
   </g>
   <g id="patch_34">
    <path clip-path="url(#p06e9bfb236)" d="M 78.908767 142.25547 
C 86.073132 142.25547 92.945028 136.749714 98.010999 126.950779 
C 103.07697 117.151845 105.923403 103.859773 105.923403 90.001987 
C 105.923403 76.144201 103.07697 62.852129 98.010999 53.053194 
C 92.945028 43.25426 86.073132 37.748504 78.908767 37.748504 
C 71.744402 37.748504 64.872506 43.25426 59.806535 53.053194 
C 54.740564 62.852129 51.894132 76.144201 51.894132 90.001987 
C 51.894132 103.859773 54.740564 117.151845 59.806535 126.950779 
C 64.872506 136.749714 71.744402 142.25547 78.908767 142.25547 
z
" style="fill:none;opacity:0.2;stroke:#ff0000;stroke-linejoin:miter;stroke-width:2;"/>
   </g>
   <g id="patch_35">
    <path clip-path="url(#p06e9bfb236)" d="M 77.558036 173.60756 
C 84.722401 173.60756 91.594296 168.101804 96.660267 158.302869 
C 101.726239 148.503935 104.572671 135.211863 104.572671 121.354077 
C 104.572671 107.496291 101.726239 94.204219 96.660267 84.405285 
C 91.594296 74.60635 84.722401 69.100594 77.558036 69.100594 
C 70.39367 69.100594 63.521775 74.60635 58.455804 84.405285 
C 53.389832 94.204219 50.5434 107.496291 50.5434 121.354077 
C 50.5434 135.211863 53.389832 148.503935 58.455804 158.302869 
C 63.521775 168.101804 70.39367 173.60756 77.558036 173.60756 
z
" style="fill:none;opacity:0.2;stroke:#0000ff;stroke-linejoin:miter;stroke-width:2;"/>
   </g>
   <g id="patch_36">
    <path clip-path="url(#p06e9bfb236)" d="M 78.908767 116.128729 
C 82.49095 116.128729 85.926898 113.37585 88.459883 108.476383 
C 90.992869 103.576916 92.416085 96.93088 92.416085 90.001987 
C 92.416085 83.073094 90.992869 76.427058 88.459883 71.527591 
C 85.926898 66.628124 82.49095 63.875245 78.908767 63.875245 
C 75.326585 63.875245 71.890637 66.628124 69.357651 71.527591 
C 66.824666 76.427058 65.40145 83.073094 65.40145 90.001987 
C 65.40145 96.93088 66.824666 103.576916 69.357651 108.476383 
C 71.890637 113.37585 75.326585 116.128729 78.908767 116.128729 
z
" style="fill:none;opacity:0.2;stroke:#008000;stroke-linejoin:miter;stroke-width:2;"/>
   </g>
   <g id="patch_37">
    <path clip-path="url(#p06e9bfb236)" d="M 77.558036 147.480819 
C 81.140218 147.480819 84.576166 144.72794 87.109151 139.828473 
C 89.642137 134.929006 91.065353 128.28297 91.065353 121.354077 
C 91.065353 114.425184 89.642137 107.779148 87.109151 102.879681 
C 84.576166 97.980214 81.140218 95.227335 77.558036 95.227335 
C 73.975853 95.227335 70.539905 97.980214 68.00692 102.879681 
C 65.473934 107.779148 64.050718 114.425184 64.050718 121.354077 
C 64.050718 128.28297 65.473934 134.929006 68.00692 139.828473 
C 70.539905 144.72794 73.975853 147.480819 77.558036 147.480819 
z
" style="fill:none;opacity:0.2;stroke:#008000;stroke-linejoin:miter;stroke-width:2;"/>
   </g>
   <g id="patch_38">
    <path d="M 78.233401 105.678032 
Q 237.619751 76.938616 397.0061 48.1992 
" style="fill:none;opacity:0.5;stroke:#008000;stroke-linecap:round;stroke-width:2;"/>
   </g>
   <g id="patch_39">
    <path d="M 78.847896 91.41489 
Q 78.276519 104.67723 77.705142 117.93957 
" style="fill:none;opacity:0.5;stroke:#800080;stroke-linecap:round;stroke-width:2;"/>
    <path d="M 77.284722 92.848936 
L 78.847896 91.41489 
L 80.281941 92.978064 
" style="fill:none;opacity:0.5;stroke:#800080;stroke-linecap:round;stroke-width:2;"/>
    <path d="M 79.268316 116.505524 
L 77.705142 117.93957 
L 76.271096 116.376396 
" style="fill:none;opacity:0.5;stroke:#800080;stroke-linecap:round;stroke-width:2;"/>
   </g>
   <g id="patch_40">
    <path d="M 397.0061 48.1992 
Q 406.798905 96.533672 416.591711 144.868145 
" style="fill:none;opacity:0.5;stroke:#008000;stroke-linecap:round;stroke-width:2;"/>
   </g>
   <g id="patch_41">
    <path d="M 401.325329 33.877136 
Q 397.295225 47.240497 393.26512 60.603857 
" style="fill:none;opacity:0.5;stroke:#800080;stroke-linecap:round;stroke-width:2;"/>
    <path d="M 399.456114 34.880149 
L 401.325329 33.877136 
L 402.328342 35.746352 
" style="fill:none;opacity:0.5;stroke:#800080;stroke-linecap:round;stroke-width:2;"/>
    <path d="M 395.134335 59.600845 
L 393.26512 60.603857 
L 392.262107 58.734642 
" style="fill:none;opacity:0.5;stroke:#800080;stroke-linecap:round;stroke-width:2;"/>
   </g>
   <g id="patch_42">
    <path d="M 416.591711 144.868145 
Q 409.500369 186.670931 402.409027 228.473718 
" style="fill:none;opacity:0.5;stroke:#008000;stroke-linecap:round;stroke-width:2;"/>
   </g>
   <g id="patch_43">
    <path d="M 419.455327 143.021813 
Q 417.43262 144.325964 415.409913 145.630115 
" style="fill:none;opacity:0.5;stroke:#800080;stroke-linecap:round;stroke-width:2;"/>
    <path d="M 417.38182 142.573963 
L 419.455327 143.021813 
L 419.007478 145.09532 
" style="fill:none;opacity:0.5;stroke:#800080;stroke-linecap:round;stroke-width:2;"/>
    <path d="M 417.48342 146.077964 
L 415.409913 145.630115 
L 415.857763 143.556608 
" style="fill:none;opacity:0.5;stroke:#800080;stroke-linecap:round;stroke-width:2;"/>
   </g>
   <g id="patch_44">
    <path d="M 402.409027 228.473718 
Q 242.684995 257.213134 82.960963 285.95255 
" style="fill:none;opacity:0.5;stroke:#008000;stroke-linecap:round;stroke-width:2;"/>
   </g>
   <g id="patch_45">
    <path d="M 403.023521 242.73686 
Q 402.452144 229.47452 401.880767 216.21218 
" style="fill:none;opacity:0.5;stroke:#800080;stroke-linecap:round;stroke-width:2;"/>
    <path d="M 404.457567 241.173686 
L 403.023521 242.73686 
L 401.460347 241.302814 
" style="fill:none;opacity:0.5;stroke:#800080;stroke-linecap:round;stroke-width:2;"/>
    <path d="M 400.446722 217.775354 
L 401.880767 216.21218 
L 403.443941 217.646226 
" style="fill:none;opacity:0.5;stroke:#800080;stroke-linecap:round;stroke-width:2;"/>
   </g>
   <g id="patch_46">
    <path d="M 82.960963 285.95255 
Q 72.830474 238.924415 62.699986 191.89628 
" style="fill:none;opacity:0.5;stroke:#008000;stroke-linecap:round;stroke-width:2;"/>
   </g>
   <g id="patch_47">
    <path d="M 79.262702 300.259387 
Q 82.711163 286.918908 86.159624 273.578428 
" style="fill:none;opacity:0.5;stroke:#800080;stroke-linecap:round;stroke-width:2;"/>
    <path d="M 81.090371 299.182527 
L 79.262702 300.259387 
L 78.185842 298.431718 
" style="fill:none;opacity:0.5;stroke:#800080;stroke-linecap:round;stroke-width:2;"/>
    <path d="M 84.331955 274.655288 
L 86.159624 273.578428 
L 87.236484 275.406097 
" style="fill:none;opacity:0.5;stroke:#800080;stroke-linecap:round;stroke-width:2;"/>
   </g>
   <g id="patch_48">
    <path d="M 62.699986 191.89628 
Q 70.466694 148.787156 78.233401 105.678032 
" style="fill:none;opacity:0.5;stroke:#008000;stroke-linecap:round;stroke-width:2;"/>
   </g>
   <g id="patch_49">
    <path d="M 59.514439 196.004076 
Q 62.087606 192.68595 64.660773 189.367824 
" style="fill:none;opacity:0.5;stroke:#800080;stroke-linecap:round;stroke-width:2;"/>
    <path d="M 61.619 195.737953 
L 59.514439 196.004076 
L 59.248315 193.899515 
" style="fill:none;opacity:0.5;stroke:#800080;stroke-linecap:round;stroke-width:2;"/>
    <path d="M 62.556212 189.633947 
L 64.660773 189.367824 
L 64.926897 191.472385 
" style="fill:none;opacity:0.5;stroke:#800080;stroke-linecap:round;stroke-width:2;"/>
   </g>
   <g id="line2d_1">
    <path clip-path="url(#p06e9bfb236)" d="M 78.908767 90.001987 
L 401.733661 32.523155 
L 420.643906 142.25547 
L 403.084393 244.149763 
L 78.908767 301.628595 
L 58.647791 197.121628 
" style="fill:none;stroke:#ff0000;stroke-linecap:square;stroke-width:0.2;"/>
   </g>
   <g id="line2d_2">
    <path clip-path="url(#p06e9bfb236)" d="M 77.558036 121.354077 
L 392.278539 63.875245 
L 412.539515 147.480819 
L 401.733661 212.797673 
L 87.013158 270.276505 
L 66.752181 186.670931 
" style="fill:none;stroke:#0000ff;stroke-linecap:square;stroke-width:0.2;"/>
   </g>
  </g>
 </g>
 <defs>
  <clipPath id="p06e9bfb236">
   <rect height="307.51175" width="404.138947" x="37.576375" y="13.32"/>
  </clipPath>
 </defs>
</svg>
