<?xml version="1.0" encoding="utf-8" standalone="no"?>
<!DOCTYPE svg PUBLIC "-//W3C//DTD SVG 1.1//EN"
  "http://www.w3.org/Graphics/SVG/1.1/DTD/svg11.dtd">
<!-- Created with matplotlib (http://matplotlib.org/) -->
<svg height="345.6pt" version="1.1" viewBox="0 0 460.8 345.6" width="460.8pt" xmlns="http://www.w3.org/2000/svg" xmlns:xlink="http://www.w3.org/1999/xlink">
 <defs>
  <style type="text/css">
*{stroke-linecap:butt;stroke-linejoin:round;}
  </style>
 </defs>
 <g id="figure_1">
  <g id="patch_1">
   <path d="M 0 345.6 
L 460.8 345.6 
L 460.8 0 
L 0 0 
z
" style="fill:#ffffff;"/>
  </g>
  <g id="axes_1">
   <g id="patch_2">
    <path clip-path="url(#pfbc37ebeb7)" d="M 242.324113 39.978704 
C 242.757082 39.978704 243.172376 39.857237 243.478532 39.641054 
C 243.784687 39.424871 243.956708 39.131623 243.956708 38.825895 
C 243.956708 38.520166 243.784687 38.226919 243.478532 38.010736 
C 243.172376 37.794553 242.757082 37.673086 242.324113 37.673086 
C 241.891144 37.673086 241.47585 37.794553 241.169695 38.010736 
C 240.863539 38.226919 240.691519 38.520166 240.691519 38.825895 
C 240.691519 39.131623 240.863539 39.424871 241.169695 39.641054 
C 241.47585 39.857237 241.891144 39.978704 242.324113 39.978704 
z
" style="fill:#ff0000;opacity:0.2;stroke:#ff0000;stroke-linejoin:miter;stroke-width:2;"/>
   </g>
   <g id="patch_3">
    <path clip-path="url(#pfbc37ebeb7)" d="M 423.542085 171.398908 
C 423.975055 171.398908 424.390349 171.277441 424.696504 171.061258 
C 425.002659 170.845075 425.17468 170.551828 425.17468 170.246099 
C 425.17468 169.940371 425.002659 169.647123 424.696504 169.43094 
C 424.390349 169.214758 423.975055 169.09329 423.542085 169.09329 
C 423.109116 169.09329 422.693822 169.214758 422.387667 169.43094 
C 422.081512 169.647123 421.909491 169.940371 421.909491 170.246099 
C 421.909491 170.551828 422.081512 170.845075 422.387667 171.061258 
C 422.693822 171.277441 423.109116 171.398908 423.542085 171.398908 
z
" style="fill:#ff0000;opacity:0.2;stroke:#ff0000;stroke-linejoin:miter;stroke-width:2;"/>
   </g>
   <g id="patch_4">
    <path clip-path="url(#pfbc37ebeb7)" d="M 242.324113 302.819112 
C 242.757082 302.819112 243.172376 302.697645 243.478532 302.481462 
C 243.784687 302.26528 243.956708 301.972032 243.956708 301.666304 
C 243.956708 301.360575 243.784687 301.067327 243.478532 300.851145 
C 243.172376 300.634962 242.757082 300.513495 242.324113 300.513495 
C 241.891144 300.513495 241.47585 300.634962 241.169695 300.851145 
C 240.863539 301.067327 240.691519 301.360575 240.691519 301.666304 
C 240.691519 301.972032 240.863539 302.26528 241.169695 302.481462 
C 241.47585 302.697645 241.891144 302.819112 242.324113 302.819112 
z
" style="fill:#ff0000;opacity:0.2;stroke:#ff0000;stroke-linejoin:miter;stroke-width:2;"/>
   </g>
   <g id="patch_5">
    <path clip-path="url(#pfbc37ebeb7)" d="M 61.106141 171.398908 
C 61.53911 171.398908 61.954404 171.277441 62.26056 171.061258 
C 62.566715 170.845075 62.738735 170.551828 62.738735 170.246099 
C 62.738735 169.940371 62.566715 169.647123 62.26056 169.43094 
C 61.954404 169.214758 61.53911 169.09329 61.106141 169.09329 
C 60.673172 169.09329 60.257878 169.214758 59.951722 169.43094 
C 59.645567 169.647123 59.473547 169.940371 59.473547 170.246099 
C 59.473547 170.551828 59.645567 170.845075 59.951722 171.061258 
C 60.257878 171.277441 60.673172 171.398908 61.106141 171.398908 
z
" style="fill:#ff0000;opacity:0.2;stroke:#ff0000;stroke-linejoin:miter;stroke-width:2;"/>
   </g>
   <g id="patch_6">
    <path clip-path="url(#pfbc37ebeb7)" d="M 242.324113 45.166343 
C 242.757082 45.166343 243.172376 45.044876 243.478532 44.828693 
C 243.784687 44.612511 243.956708 44.319263 243.956708 44.013535 
C 243.956708 43.707806 243.784687 43.414558 243.478532 43.198376 
C 243.172376 42.982193 242.757082 42.860726 242.324113 42.860726 
C 241.891144 42.860726 241.47585 42.982193 241.169695 43.198376 
C 240.863539 43.414558 240.691519 43.707806 240.691519 44.013535 
C 240.691519 44.319263 240.863539 44.612511 241.169695 44.828693 
C 241.47585 45.044876 241.891144 45.166343 242.324113 45.166343 
z
" style="fill:#0000ff;opacity:0.2;stroke:#0000ff;stroke-linejoin:miter;stroke-width:2;"/>
   </g>
   <g id="patch_7">
    <path clip-path="url(#pfbc37ebeb7)" d="M 409.665033 175.433739 
C 410.098003 175.433739 410.513297 175.312272 410.819452 175.096089 
C 411.125607 174.879906 411.297628 174.586659 411.297628 174.28093 
C 411.297628 173.975202 411.125607 173.681954 410.819452 173.465771 
C 410.513297 173.249588 410.098003 173.128121 409.665033 173.128121 
C 409.232064 173.128121 408.81677 173.249588 408.510615 173.465771 
C 408.20446 173.681954 408.032439 173.975202 408.032439 174.28093 
C 408.032439 174.586659 408.20446 174.879906 408.510615 175.096089 
C 408.81677 175.312272 409.232064 175.433739 409.665033 175.433739 
z
" style="fill:#0000ff;opacity:0.2;stroke:#0000ff;stroke-linejoin:miter;stroke-width:2;"/>
   </g>
   <g id="patch_8">
    <path clip-path="url(#pfbc37ebeb7)" d="M 242.324113 304.548326 
C 242.757082 304.548326 243.172376 304.426858 243.478532 304.210676 
C 243.784687 303.994493 243.956708 303.701245 243.956708 303.395517 
C 243.956708 303.089788 243.784687 302.796541 243.478532 302.580358 
C 243.172376 302.364175 242.757082 302.242708 242.324113 302.242708 
C 241.891144 302.242708 241.47585 302.364175 241.169695 302.580358 
C 240.863539 302.796541 240.691519 303.089788 240.691519 303.395517 
C 240.691519 303.701245 240.863539 303.994493 241.169695 304.210676 
C 241.47585 304.426858 241.891144 304.548326 242.324113 304.548326 
z
" style="fill:#0000ff;opacity:0.2;stroke:#0000ff;stroke-linejoin:miter;stroke-width:2;"/>
   </g>
   <g id="patch_9">
    <path clip-path="url(#pfbc37ebeb7)" d="M 74.983193 175.433739 
C 75.416162 175.433739 75.831456 175.312272 76.137611 175.096089 
C 76.443767 174.879906 76.615787 174.586659 76.615787 174.28093 
C 76.615787 173.975202 76.443767 173.681954 76.137611 173.465771 
C 75.831456 173.249588 75.416162 173.128121 74.983193 173.128121 
C 74.550224 173.128121 74.13493 173.249588 73.828774 173.465771 
C 73.522619 173.681954 73.350599 173.975202 73.350599 174.28093 
C 73.350599 174.586659 73.522619 174.879906 73.828774 175.096089 
C 74.13493 175.312272 74.550224 175.433739 74.983193 175.433739 
z
" style="fill:#0000ff;opacity:0.2;stroke:#0000ff;stroke-linejoin:miter;stroke-width:2;"/>
   </g>
   <g id="patch_10">
    <path clip-path="url(#pfbc37ebeb7)" d="M 242.324113 38.825895 
C 347.626448 38.825895 423.542085 95.889931 423.542085 170.246099 
C 423.542085 244.602267 355.78942 301.666304 242.324113 301.666304 
C 136.205481 301.666304 61.106141 247.484289 61.106141 170.246099 
C 61.106141 95.889931 136.205481 38.825895 242.324113 38.825895 
" style="fill:none;stroke:#ff0000;stroke-linejoin:miter;stroke-width:0.5;"/>
   </g>
   <g id="patch_11">
    <path clip-path="url(#pfbc37ebeb7)" d="M 242.324113 44.013535 
C 340.279774 44.013535 409.665033 98.195549 409.665033 174.28093 
C 409.665033 249.213503 340.279774 303.395517 242.324113 303.395517 
C 152.531424 303.395517 74.983193 252.095525 74.983193 174.28093 
C 74.983193 98.195549 144.368453 44.013535 242.324113 44.013535 
" style="fill:none;stroke:#0000ff;stroke-linejoin:miter;stroke-width:0.5;"/>
   </g>
   <g id="[&quot;g_s&quot;:1,&quot;g_t&quot;:1,&quot;coords&quot;:[[305.0, -258.0],[305.0, -267.0]],&quot;certainty&quot;:10]">
    <path clip-path="url(#pfbc37ebeb7)" d="M 242.324113 41.996119 
C 243.514778 41.996119 244.656837 41.662084 245.498764 41.067582 
C 246.340691 40.47308 246.813748 39.666648 246.813748 38.825895 
C 246.813748 37.985142 246.340691 37.17871 245.498764 36.584208 
C 244.656837 35.989706 243.514778 35.655671 242.324113 35.655671 
C 241.133448 35.655671 239.99139 35.989706 239.149462 36.584208 
C 238.307535 37.17871 237.834479 37.985142 237.834479 38.825895 
C 237.834479 39.666648 238.307535 40.47308 239.149462 41.067582 
C 239.99139 41.662084 241.133448 41.996119 242.324113 41.996119 
z
" style="fill:#0000ff;opacity:0.2;stroke:#0000ff;stroke-linejoin:miter;stroke-width:2;"/>
   </g>
   <g id="[&quot;g_s&quot;:1,&quot;g_t&quot;:1,&quot;coords&quot;:[[305.0, -267.0],[305.0, -258.0]],&quot;certainty&quot;:10]">
    <path clip-path="url(#pfbc37ebeb7)" d="M 242.324113 47.183759 
C 243.514778 47.183759 244.656837 46.849724 245.498764 46.255222 
C 246.340691 45.660719 246.813748 44.854288 246.813748 44.013535 
C 246.813748 43.172781 246.340691 42.36635 245.498764 41.771848 
C 244.656837 41.177345 243.514778 40.84331 242.324113 40.84331 
C 241.133448 40.84331 239.99139 41.177345 239.149462 41.771848 
C 238.307535 42.36635 237.834479 43.172781 237.834479 44.013535 
C 237.834479 44.854288 238.307535 45.660719 239.149462 46.255222 
C 239.99139 46.849724 241.133448 47.183759 242.324113 47.183759 
z
" style="fill:#ff0000;opacity:0.2;stroke:#ff0000;stroke-linejoin:miter;stroke-width:2;"/>
   </g>
   <g id="patch_12">
    <path d="M 242.324113 38.825895 
Q 242.324113 40.420436 242.324113 40.070432 
" style="fill:none;opacity:0.5;stroke:#0000ff;stroke-linecap:round;stroke-width:2.75;"/>
    <path d="M 243.824113 38.570432 
L 242.324113 40.070432 
L 240.824113 38.570432 
" style="fill:none;opacity:0.5;stroke:#0000ff;stroke-linecap:round;stroke-width:2.75;"/>
   </g>
   <g id="[&quot;g_s&quot;:2,&quot;g_t&quot;:2,&quot;coords&quot;:[[527.0, -486.0],[510.0, -493.0]],&quot;certainty&quot;:12]">
    <path clip-path="url(#pfbc37ebeb7)" d="M 423.542085 173.992728 
C 424.949235 173.992728 426.298941 173.597959 427.293946 172.895366 
C 428.288951 172.192772 428.848017 171.239717 428.848017 170.246099 
C 428.848017 169.252482 428.288951 168.299426 427.293946 167.596833 
C 426.298941 166.894239 424.949235 166.499471 423.542085 166.499471 
C 422.134936 166.499471 420.78523 166.894239 419.790225 167.596833 
C 418.79522 168.299426 418.236154 169.252482 418.236154 170.246099 
C 418.236154 171.239717 418.79522 172.192772 419.790225 172.895366 
C 420.78523 173.597959 422.134936 173.992728 423.542085 173.992728 
z
" style="fill:#0000ff;opacity:0.2;stroke:#0000ff;stroke-linejoin:miter;stroke-width:2;"/>
   </g>
   <g id="[&quot;g_s&quot;:2,&quot;g_t&quot;:2,&quot;coords&quot;:[[510.0, -493.0],[527.0, -486.0]],&quot;certainty&quot;:12]">
    <path clip-path="url(#pfbc37ebeb7)" d="M 409.665033 178.027559 
C 411.072183 178.027559 412.421889 177.63279 413.416894 176.930197 
C 414.411899 176.227603 414.970965 175.274548 414.970965 174.28093 
C 414.970965 173.287313 414.411899 172.334257 413.416894 171.631664 
C 412.421889 170.92907 411.072183 170.534301 409.665033 170.534301 
C 408.257884 170.534301 406.908178 170.92907 405.913173 171.631664 
C 404.918168 172.334257 404.359102 173.287313 404.359102 174.28093 
C 404.359102 175.274548 404.918168 176.227603 405.913173 176.930197 
C 406.908178 177.63279 408.257884 178.027559 409.665033 178.027559 
z
" style="fill:#ff0000;opacity:0.2;stroke:#ff0000;stroke-linejoin:miter;stroke-width:2;"/>
   </g>
   <g id="patch_13">
    <path d="M 423.542085 170.246099 
Q 417.564044 171.984248 413.792715 173.080783 
" style="fill:none;opacity:0.5;stroke:#0000ff;stroke-linecap:round;stroke-width:3.25;"/>
    <path d="M 415.651858 174.102345 
L 413.792715 173.080783 
L 414.814277 171.221641 
" style="fill:none;opacity:0.5;stroke:#0000ff;stroke-linecap:round;stroke-width:3.25;"/>
   </g>
   <g id="[&quot;g_s&quot;:3,&quot;g_t&quot;:3,&quot;coords&quot;:[[305.0, -714.0],[305.0, -717.0]],&quot;certainty&quot;:11]">
    <path clip-path="url(#pfbc37ebeb7)" d="M 242.324113 305.12473 
C 243.62302 305.12473 244.868903 304.760328 245.787369 304.11178 
C 246.705835 303.463232 247.221896 302.583489 247.221896 301.666304 
C 247.221896 300.749118 246.705835 299.869375 245.787369 299.220827 
C 244.868903 298.572279 243.62302 298.207877 242.324113 298.207877 
C 241.025206 298.207877 239.779324 298.572279 238.860858 299.220827 
C 237.942391 299.869375 237.42633 300.749118 237.42633 301.666304 
C 237.42633 302.583489 237.942391 303.463232 238.860858 304.11178 
C 239.779324 304.760328 241.025206 305.12473 242.324113 305.12473 
z
" style="fill:#0000ff;opacity:0.2;stroke:#0000ff;stroke-linejoin:miter;stroke-width:2;"/>
   </g>
   <g id="[&quot;g_s&quot;:3,&quot;g_t&quot;:3,&quot;coords&quot;:[[305.0, -717.0],[305.0, -714.0]],&quot;certainty&quot;:11]">
    <path clip-path="url(#pfbc37ebeb7)" d="M 242.324113 306.853943 
C 243.62302 306.853943 244.868903 306.489542 245.787369 305.840994 
C 246.705835 305.192446 247.221896 304.312702 247.221896 303.395517 
C 247.221896 302.478331 246.705835 301.598588 245.787369 300.95004 
C 244.868903 300.301492 243.62302 299.93709 242.324113 299.93709 
C 241.025206 299.93709 239.779324 300.301492 238.860858 300.95004 
C 237.942391 301.598588 237.42633 302.478331 237.42633 303.395517 
C 237.42633 304.312702 237.942391 305.192446 238.860858 305.840994 
C 239.779324 306.489542 241.025206 306.853943 242.324113 306.853943 
z
" style="fill:#ff0000;opacity:0.2;stroke:#ff0000;stroke-linejoin:miter;stroke-width:2;"/>
   </g>
   <g id="patch_14">
    <path d="M 242.324113 301.666304 
Q 242.324113 302.53091 242.324113 301.274196 
" style="fill:none;opacity:0.5;stroke:#0000ff;stroke-linecap:round;stroke-width:3;"/>
    <path d="M 243.824113 299.774196 
L 242.324113 301.274196 
L 240.824113 299.774196 
" style="fill:none;opacity:0.5;stroke:#0000ff;stroke-linecap:round;stroke-width:3;"/>
   </g>
   <g id="[&quot;g_s&quot;:4,&quot;g_t&quot;:4,&quot;coords&quot;:[[83.0, -486.0],[100.0, -493.0]],&quot;certainty&quot;:11]">
    <path clip-path="url(#pfbc37ebeb7)" d="M 61.106141 173.704526 
C 62.405048 173.704526 63.65093 173.340124 64.569397 172.691576 
C 65.487863 172.043028 66.003924 171.163285 66.003924 170.246099 
C 66.003924 169.328914 65.487863 168.44917 64.569397 167.800622 
C 63.65093 167.152074 62.405048 166.787673 61.106141 166.787673 
C 59.807234 166.787673 58.561352 167.152074 57.642885 167.800622 
C 56.724419 168.44917 56.208358 169.328914 56.208358 170.246099 
C 56.208358 171.163285 56.724419 172.043028 57.642885 172.691576 
C 58.561352 173.340124 59.807234 173.704526 61.106141 173.704526 
z
" style="fill:#0000ff;opacity:0.2;stroke:#0000ff;stroke-linejoin:miter;stroke-width:2;"/>
   </g>
   <g id="[&quot;g_s&quot;:4,&quot;g_t&quot;:4,&quot;coords&quot;:[[100.0, -493.0],[83.0, -486.0]],&quot;certainty&quot;:11]">
    <path clip-path="url(#pfbc37ebeb7)" d="M 74.983193 177.739356 
C 76.2821 177.739356 77.527982 177.374955 78.446449 176.726407 
C 79.364915 176.077859 79.880976 175.198115 79.880976 174.28093 
C 79.880976 173.363745 79.364915 172.484001 78.446449 171.835453 
C 77.527982 171.186905 76.2821 170.822504 74.983193 170.822504 
C 73.684286 170.822504 72.438403 171.186905 71.519937 171.835453 
C 70.601471 172.484001 70.08541 173.363745 70.08541 174.28093 
C 70.08541 175.198115 70.601471 176.077859 71.519937 176.726407 
C 72.438403 177.374955 73.684286 177.739356 74.983193 177.739356 
z
" style="fill:#ff0000;opacity:0.2;stroke:#ff0000;stroke-linejoin:miter;stroke-width:2;"/>
   </g>
   <g id="patch_15">
    <path d="M 61.106141 170.246099 
Q 67.084183 171.984248 71.025258 173.130138 
" style="fill:none;opacity:0.5;stroke:#0000ff;stroke-linecap:round;stroke-width:3;"/>
    <path d="M 70.003697 171.270996 
L 71.025258 173.130138 
L 69.166116 174.1517 
" style="fill:none;opacity:0.5;stroke:#0000ff;stroke-linecap:round;stroke-width:3;"/>
   </g>
   <g id="[&quot;g_s&quot;:1,&quot;g_t&quot;:1,&quot;coords&quot;:[[305.0, -267.0],[305.0, -258.0]],&quot;certainty&quot;:10]">
    <path clip-path="url(#pfbc37ebeb7)" d="M 242.324113 47.183759 
C 243.514778 47.183759 244.656837 46.849724 245.498764 46.255222 
C 246.340691 45.660719 246.813748 44.854288 246.813748 44.013535 
C 246.813748 43.172781 246.340691 42.36635 245.498764 41.771848 
C 244.656837 41.177345 243.514778 40.84331 242.324113 40.84331 
C 241.133448 40.84331 239.99139 41.177345 239.149462 41.771848 
C 238.307535 42.36635 237.834479 43.172781 237.834479 44.013535 
C 237.834479 44.854288 238.307535 45.660719 239.149462 46.255222 
C 239.99139 46.849724 241.133448 47.183759 242.324113 47.183759 
z
" style="fill:#0000ff;opacity:0.2;stroke:#0000ff;stroke-linejoin:miter;stroke-width:2;"/>
   </g>
   <g id="[&quot;g_s&quot;:1,&quot;g_t&quot;:1,&quot;coords&quot;:[[305.0, -258.0],[305.0, -267.0]],&quot;certainty&quot;:10]">
    <path clip-path="url(#pfbc37ebeb7)" d="M 242.324113 41.996119 
C 243.514778 41.996119 244.656837 41.662084 245.498764 41.067582 
C 246.340691 40.47308 246.813748 39.666648 246.813748 38.825895 
C 246.813748 37.985142 246.340691 37.17871 245.498764 36.584208 
C 244.656837 35.989706 243.514778 35.655671 242.324113 35.655671 
C 241.133448 35.655671 239.99139 35.989706 239.149462 36.584208 
C 238.307535 37.17871 237.834479 37.985142 237.834479 38.825895 
C 237.834479 39.666648 238.307535 40.47308 239.149462 41.067582 
C 239.99139 41.662084 241.133448 41.996119 242.324113 41.996119 
z
" style="fill:#ff0000;opacity:0.2;stroke:#ff0000;stroke-linejoin:miter;stroke-width:2;"/>
   </g>
   <g id="patch_16">
    <path d="M 242.324113 44.013535 
Q 242.324113 42.418994 242.324113 42.768997 
" style="fill:none;opacity:0.5;stroke:#ff0000;stroke-linecap:round;stroke-width:2.75;"/>
    <path d="M 240.824113 44.268997 
L 242.324113 42.768997 
L 243.824113 44.268997 
" style="fill:none;opacity:0.5;stroke:#ff0000;stroke-linecap:round;stroke-width:2.75;"/>
   </g>
   <g id="[&quot;g_s&quot;:2,&quot;g_t&quot;:2,&quot;coords&quot;:[[510.0, -493.0],[527.0, -486.0]],&quot;certainty&quot;:12]">
    <path clip-path="url(#pfbc37ebeb7)" d="M 409.665033 178.027559 
C 411.072183 178.027559 412.421889 177.63279 413.416894 176.930197 
C 414.411899 176.227603 414.970965 175.274548 414.970965 174.28093 
C 414.970965 173.287313 414.411899 172.334257 413.416894 171.631664 
C 412.421889 170.92907 411.072183 170.534301 409.665033 170.534301 
C 408.257884 170.534301 406.908178 170.92907 405.913173 171.631664 
C 404.918168 172.334257 404.359102 173.287313 404.359102 174.28093 
C 404.359102 175.274548 404.918168 176.227603 405.913173 176.930197 
C 406.908178 177.63279 408.257884 178.027559 409.665033 178.027559 
z
" style="fill:#0000ff;opacity:0.2;stroke:#0000ff;stroke-linejoin:miter;stroke-width:2;"/>
   </g>
   <g id="[&quot;g_s&quot;:2,&quot;g_t&quot;:2,&quot;coords&quot;:[[527.0, -486.0],[510.0, -493.0]],&quot;certainty&quot;:12]">
    <path clip-path="url(#pfbc37ebeb7)" d="M 423.542085 173.992728 
C 424.949235 173.992728 426.298941 173.597959 427.293946 172.895366 
C 428.288951 172.192772 428.848017 171.239717 428.848017 170.246099 
C 428.848017 169.252482 428.288951 168.299426 427.293946 167.596833 
C 426.298941 166.894239 424.949235 166.499471 423.542085 166.499471 
C 422.134936 166.499471 420.78523 166.894239 419.790225 167.596833 
C 418.79522 168.299426 418.236154 169.252482 418.236154 170.246099 
C 418.236154 171.239717 418.79522 172.192772 419.790225 172.895366 
C 420.78523 173.597959 422.134936 173.992728 423.542085 173.992728 
z
" style="fill:#ff0000;opacity:0.2;stroke:#ff0000;stroke-linejoin:miter;stroke-width:2;"/>
   </g>
   <g id="patch_17">
    <path d="M 409.665033 174.28093 
Q 415.643075 172.542781 419.414404 171.446246 
" style="fill:none;opacity:0.5;stroke:#ff0000;stroke-linecap:round;stroke-width:3.25;"/>
    <path d="M 417.555261 170.424684 
L 419.414404 171.446246 
L 418.392842 173.305389 
" style="fill:none;opacity:0.5;stroke:#ff0000;stroke-linecap:round;stroke-width:3.25;"/>
   </g>
   <g id="[&quot;g_s&quot;:3,&quot;g_t&quot;:3,&quot;coords&quot;:[[305.0, -717.0],[305.0, -714.0]],&quot;certainty&quot;:11]">
    <path clip-path="url(#pfbc37ebeb7)" d="M 242.324113 306.853943 
C 243.62302 306.853943 244.868903 306.489542 245.787369 305.840994 
C 246.705835 305.192446 247.221896 304.312702 247.221896 303.395517 
C 247.221896 302.478331 246.705835 301.598588 245.787369 300.95004 
C 244.868903 300.301492 243.62302 299.93709 242.324113 299.93709 
C 241.025206 299.93709 239.779324 300.301492 238.860858 300.95004 
C 237.942391 301.598588 237.42633 302.478331 237.42633 303.395517 
C 237.42633 304.312702 237.942391 305.192446 238.860858 305.840994 
C 239.779324 306.489542 241.025206 306.853943 242.324113 306.853943 
z
" style="fill:#0000ff;opacity:0.2;stroke:#0000ff;stroke-linejoin:miter;stroke-width:2;"/>
   </g>
   <g id="[&quot;g_s&quot;:3,&quot;g_t&quot;:3,&quot;coords&quot;:[[305.0, -714.0],[305.0, -717.0]],&quot;certainty&quot;:11]">
    <path clip-path="url(#pfbc37ebeb7)" d="M 242.324113 305.12473 
C 243.62302 305.12473 244.868903 304.760328 245.787369 304.11178 
C 246.705835 303.463232 247.221896 302.583489 247.221896 301.666304 
C 247.221896 300.749118 246.705835 299.869375 245.787369 299.220827 
C 244.868903 298.572279 243.62302 298.207877 242.324113 298.207877 
C 241.025206 298.207877 239.779324 298.572279 238.860858 299.220827 
C 237.942391 299.869375 237.42633 300.749118 237.42633 301.666304 
C 237.42633 302.583489 237.942391 303.463232 238.860858 304.11178 
C 239.779324 304.760328 241.025206 305.12473 242.324113 305.12473 
z
" style="fill:#ff0000;opacity:0.2;stroke:#ff0000;stroke-linejoin:miter;stroke-width:2;"/>
   </g>
   <g id="patch_18">
    <path d="M 242.324113 303.395517 
Q 242.324113 302.53091 242.324113 303.787624 
" style="fill:none;opacity:0.5;stroke:#ff0000;stroke-linecap:round;stroke-width:3;"/>
    <path d="M 240.824113 305.287624 
L 242.324113 303.787624 
L 243.824113 305.287624 
" style="fill:none;opacity:0.5;stroke:#ff0000;stroke-linecap:round;stroke-width:3;"/>
   </g>
   <g id="[&quot;g_s&quot;:4,&quot;g_t&quot;:4,&quot;coords&quot;:[[100.0, -493.0],[83.0, -486.0]],&quot;certainty&quot;:11]">
    <path clip-path="url(#pfbc37ebeb7)" d="M 74.983193 177.739356 
C 76.2821 177.739356 77.527982 177.374955 78.446449 176.726407 
C 79.364915 176.077859 79.880976 175.198115 79.880976 174.28093 
C 79.880976 173.363745 79.364915 172.484001 78.446449 171.835453 
C 77.527982 171.186905 76.2821 170.822504 74.983193 170.822504 
C 73.684286 170.822504 72.438403 171.186905 71.519937 171.835453 
C 70.601471 172.484001 70.08541 173.363745 70.08541 174.28093 
C 70.08541 175.198115 70.601471 176.077859 71.519937 176.726407 
C 72.438403 177.374955 73.684286 177.739356 74.983193 177.739356 
z
" style="fill:#0000ff;opacity:0.2;stroke:#0000ff;stroke-linejoin:miter;stroke-width:2;"/>
   </g>
   <g id="[&quot;g_s&quot;:4,&quot;g_t&quot;:4,&quot;coords&quot;:[[83.0, -486.0],[100.0, -493.0]],&quot;certainty&quot;:11]">
    <path clip-path="url(#pfbc37ebeb7)" d="M 61.106141 173.704526 
C 62.405048 173.704526 63.65093 173.340124 64.569397 172.691576 
C 65.487863 172.043028 66.003924 171.163285 66.003924 170.246099 
C 66.003924 169.328914 65.487863 168.44917 64.569397 167.800622 
C 63.65093 167.152074 62.405048 166.787673 61.106141 166.787673 
C 59.807234 166.787673 58.561352 167.152074 57.642885 167.800622 
C 56.724419 168.44917 56.208358 169.328914 56.208358 170.246099 
C 56.208358 171.163285 56.724419 172.043028 57.642885 172.691576 
C 58.561352 173.340124 59.807234 173.704526 61.106141 173.704526 
z
" style="fill:#ff0000;opacity:0.2;stroke:#ff0000;stroke-linejoin:miter;stroke-width:2;"/>
   </g>
   <g id="patch_19">
    <path d="M 74.983193 174.28093 
Q 69.005151 172.542781 65.064075 171.396891 
" style="fill:none;opacity:0.5;stroke:#ff0000;stroke-linecap:round;stroke-width:3;"/>
    <path d="M 66.085637 173.256034 
L 65.064075 171.396891 
L 66.923218 170.375329 
" style="fill:none;opacity:0.5;stroke:#ff0000;stroke-linecap:round;stroke-width:3;"/>
   </g>
   <g id="patch_20">
    <path clip-path="url(#pfbc37ebeb7)" d="M 242.324113 44.301737 
C 243.406536 44.301737 244.444771 43.998069 245.21016 43.457612 
C 245.975548 42.917155 246.405599 42.184036 246.405599 41.419715 
C 246.405599 40.655394 245.975548 39.922274 245.21016 39.381817 
C 244.444771 38.841361 243.406536 38.537693 242.324113 38.537693 
C 241.241691 38.537693 240.203455 38.841361 239.438067 39.381817 
C 238.672678 39.922274 238.242627 40.655394 238.242627 41.419715 
C 238.242627 42.184036 238.672678 42.917155 239.438067 43.457612 
C 240.203455 43.998069 241.241691 44.301737 242.324113 44.301737 
z
" style="fill:#008000;opacity:0.2;stroke:#008000;stroke-linejoin:miter;stroke-width:2;"/>
   </g>
   <g id="patch_21">
    <path clip-path="url(#pfbc37ebeb7)" d="M 416.603559 175.145537 
C 417.685982 175.145537 418.724217 174.841869 419.489606 174.301412 
C 420.254994 173.760955 420.685045 173.027836 420.685045 172.263515 
C 420.685045 171.499193 420.254994 170.766074 419.489606 170.225617 
C 418.724217 169.685161 417.685982 169.381493 416.603559 169.381493 
C 415.521137 169.381493 414.482902 169.685161 413.717513 170.225617 
C 412.952125 170.766074 412.522074 171.499193 412.522074 172.263515 
C 412.522074 173.027836 412.952125 173.760955 413.717513 174.301412 
C 414.482902 174.841869 415.521137 175.145537 416.603559 175.145537 
z
" style="fill:#008000;opacity:0.2;stroke:#008000;stroke-linejoin:miter;stroke-width:2;"/>
   </g>
   <g id="patch_22">
    <path clip-path="url(#pfbc37ebeb7)" d="M 242.324113 305.412932 
C 243.406536 305.412932 244.444771 305.109264 245.21016 304.568807 
C 245.975548 304.028351 246.405599 303.295231 246.405599 302.53091 
C 246.405599 301.766589 245.975548 301.03347 245.21016 300.493013 
C 244.444771 299.952556 243.406536 299.648888 242.324113 299.648888 
C 241.241691 299.648888 240.203455 299.952556 239.438067 300.493013 
C 238.672678 301.03347 238.242627 301.766589 238.242627 302.53091 
C 238.242627 303.295231 238.672678 304.028351 239.438067 304.568807 
C 240.203455 305.109264 241.241691 305.412932 242.324113 305.412932 
z
" style="fill:#008000;opacity:0.2;stroke:#008000;stroke-linejoin:miter;stroke-width:2;"/>
   </g>
   <g id="patch_23">
    <path clip-path="url(#pfbc37ebeb7)" d="M 68.044667 175.145537 
C 69.12709 175.145537 70.165325 174.841869 70.930713 174.301412 
C 71.696102 173.760955 72.126153 173.027836 72.126153 172.263515 
C 72.126153 171.499193 71.696102 170.766074 70.930713 170.225617 
C 70.165325 169.685161 69.12709 169.381493 68.044667 169.381493 
C 66.962244 169.381493 65.924009 169.685161 65.158621 170.225617 
C 64.393232 170.766074 63.963181 171.499193 63.963181 172.263515 
C 63.963181 173.027836 64.393232 173.760955 65.158621 174.301412 
C 65.924009 174.841869 66.962244 175.145537 68.044667 175.145537 
z
" style="fill:#008000;opacity:0.2;stroke:#008000;stroke-linejoin:miter;stroke-width:2;"/>
   </g>
   <g id="patch_24">
    <path clip-path="url(#pfbc37ebeb7)" d="M 242.324113 50.353983 
C 246.653804 50.353983 250.806745 49.139311 253.868299 46.977484 
C 256.929852 44.815657 258.650057 41.88318 258.650057 38.825895 
C 258.650057 35.76861 256.929852 32.836132 253.868299 30.674306 
C 250.806745 28.512479 246.653804 27.297807 242.324113 27.297807 
C 237.994422 27.297807 233.841482 28.512479 230.779928 30.674306 
C 227.718374 32.836132 225.99817 35.76861 225.99817 38.825895 
C 225.99817 41.88318 227.718374 44.815657 230.779928 46.977484 
C 233.841482 49.139311 237.994422 50.353983 242.324113 50.353983 
z
" style="fill:none;opacity:0.2;stroke:#ff0000;stroke-linejoin:miter;stroke-width:2;"/>
   </g>
   <g id="patch_25">
    <path clip-path="url(#pfbc37ebeb7)" d="M 242.324113 55.541623 
C 246.653804 55.541623 250.806745 54.326951 253.868299 52.165124 
C 256.929852 50.003297 258.650057 47.070819 258.650057 44.013535 
C 258.650057 40.95625 256.929852 38.023772 253.868299 35.861945 
C 250.806745 33.700119 246.653804 32.485446 242.324113 32.485446 
C 237.994422 32.485446 233.841482 33.700119 230.779928 35.861945 
C 227.718374 38.023772 225.99817 40.95625 225.99817 44.013535 
C 225.99817 47.070819 227.718374 50.003297 230.779928 52.165124 
C 233.841482 54.326951 237.994422 55.541623 242.324113 55.541623 
z
" style="fill:none;opacity:0.2;stroke:#0000ff;stroke-linejoin:miter;stroke-width:2;"/>
   </g>
   <g id="patch_26">
    <path clip-path="url(#pfbc37ebeb7)" d="M 242.324113 44.589939 
C 244.488959 44.589939 246.565429 43.982603 248.096206 42.90169 
C 249.626983 41.820776 250.487085 40.354537 250.487085 38.825895 
C 250.487085 37.297253 249.626983 35.831014 248.096206 34.7501 
C 246.565429 33.669187 244.488959 33.061851 242.324113 33.061851 
C 240.159268 33.061851 238.082797 33.669187 236.552021 34.7501 
C 235.021244 35.831014 234.161141 37.297253 234.161141 38.825895 
C 234.161141 40.354537 235.021244 41.820776 236.552021 42.90169 
C 238.082797 43.982603 240.159268 44.589939 242.324113 44.589939 
z
" style="fill:none;opacity:0.2;stroke:#008000;stroke-linejoin:miter;stroke-width:2;"/>
   </g>
   <g id="patch_27">
    <path clip-path="url(#pfbc37ebeb7)" d="M 242.324113 49.777579 
C 244.488959 49.777579 246.565429 49.170243 248.096206 48.089329 
C 249.626983 47.008416 250.487085 45.542177 250.487085 44.013535 
C 250.487085 42.484892 249.626983 41.018653 248.096206 39.93774 
C 246.565429 38.856827 244.488959 38.249491 242.324113 38.249491 
C 240.159268 38.249491 238.082797 38.856827 236.552021 39.93774 
C 235.021244 41.018653 234.161141 42.484892 234.161141 44.013535 
C 234.161141 45.542177 235.021244 47.008416 236.552021 48.089329 
C 238.082797 49.170243 240.159268 49.777579 242.324113 49.777579 
z
" style="fill:none;opacity:0.2;stroke:#008000;stroke-linejoin:miter;stroke-width:2;"/>
   </g>
   <g id="patch_28">
    <path d="M 242.324113 41.419715 
Q 329.463836 106.841615 416.603559 172.263515 
" style="fill:none;opacity:0.5;stroke:#008000;stroke-linecap:round;stroke-width:2;"/>
   </g>
   <g id="patch_29">
    <path d="M 242.324113 40.240108 
Q 242.324113 40.420436 242.324113 40.600763 
" style="fill:none;opacity:0.5;stroke:#800080;stroke-linecap:round;stroke-width:2;"/>
    <path d="M 240.824113 41.740108 
L 242.324113 40.240108 
L 243.824113 41.740108 
" style="fill:none;opacity:0.5;stroke:#800080;stroke-linecap:round;stroke-width:2;"/>
    <path d="M 243.824113 39.100763 
L 242.324113 40.600763 
L 240.824113 39.100763 
" style="fill:none;opacity:0.5;stroke:#800080;stroke-linecap:round;stroke-width:2;"/>
   </g>
   <g id="patch_30">
    <path d="M 416.603559 172.263515 
Q 329.463836 237.397212 242.324113 302.53091 
" style="fill:none;opacity:0.5;stroke:#008000;stroke-linecap:round;stroke-width:2;"/>
   </g>
   <g id="patch_31">
    <path d="M 422.184108 170.640939 
Q 417.564044 171.984248 412.943979 173.327558 
" style="fill:none;opacity:0.5;stroke:#800080;stroke-linecap:round;stroke-width:2;"/>
    <path d="M 420.324966 169.619377 
L 422.184108 170.640939 
L 421.162547 172.500081 
" style="fill:none;opacity:0.5;stroke:#800080;stroke-linecap:round;stroke-width:2;"/>
    <path d="M 414.803122 174.34912 
L 412.943979 173.327558 
L 413.965541 171.468415 
" style="fill:none;opacity:0.5;stroke:#800080;stroke-linecap:round;stroke-width:2;"/>
   </g>
   <g id="patch_32">
    <path d="M 242.324113 302.53091 
Q 155.18439 237.397212 68.044667 172.263515 
" style="fill:none;opacity:0.5;stroke:#008000;stroke-linecap:round;stroke-width:2;"/>
   </g>
   <g id="patch_33">
    <path d="M 242.324113 303.080517 
Q 242.324113 302.53091 242.324113 301.981303 
" style="fill:none;opacity:0.5;stroke:#800080;stroke-linecap:round;stroke-width:2;"/>
    <path d="M 240.824113 304.580517 
L 242.324113 303.080517 
L 243.824113 304.580517 
" style="fill:none;opacity:0.5;stroke:#800080;stroke-linecap:round;stroke-width:2;"/>
    <path d="M 243.824113 300.481303 
L 242.324113 301.981303 
L 240.824113 300.481303 
" style="fill:none;opacity:0.5;stroke:#800080;stroke-linecap:round;stroke-width:2;"/>
   </g>
   <g id="patch_34">
    <path d="M 68.044667 172.263515 
Q 155.18439 106.841615 242.324113 41.419715 
" style="fill:none;opacity:0.5;stroke:#008000;stroke-linecap:round;stroke-width:2;"/>
   </g>
   <g id="patch_35">
    <path d="M 62.464118 170.640939 
Q 67.084183 171.984248 71.704247 173.327558 
" style="fill:none;opacity:0.5;stroke:#800080;stroke-linecap:round;stroke-width:2;"/>
    <path d="M 63.48568 172.500081 
L 62.464118 170.640939 
L 64.323261 169.619377 
" style="fill:none;opacity:0.5;stroke:#800080;stroke-linecap:round;stroke-width:2;"/>
    <path d="M 70.682685 171.468415 
L 71.704247 173.327558 
L 69.845104 174.34912 
" style="fill:none;opacity:0.5;stroke:#800080;stroke-linecap:round;stroke-width:2;"/>
   </g>
   <g id="patch_36">
    <path clip-path="url(#pfbc37ebeb7)" d="M 242.324113 82.63263 
C 242.757082 82.63263 243.172376 82.511162 243.478532 82.29498 
C 243.784687 82.078797 243.956708 81.785549 243.956708 81.479821 
C 243.956708 81.174092 243.784687 80.880845 243.478532 80.664662 
C 243.172376 80.448479 242.757082 80.327012 242.324113 80.327012 
C 241.891144 80.327012 241.47585 80.448479 241.169695 80.664662 
C 240.863539 80.880845 240.691519 81.174092 240.691519 81.479821 
C 240.691519 81.785549 240.863539 82.078797 241.169695 82.29498 
C 241.47585 82.511162 241.891144 82.63263 242.324113 82.63263 
z
" style="fill:#ff0000;opacity:0.2;stroke:#ff0000;stroke-linejoin:miter;stroke-width:2;"/>
   </g>
   <g id="patch_37">
    <path clip-path="url(#pfbc37ebeb7)" d="M 333.749396 171.398908 
C 334.182366 171.398908 334.59766 171.277441 334.903815 171.061258 
C 335.20997 170.845075 335.381991 170.551828 335.381991 170.246099 
C 335.381991 169.940371 335.20997 169.647123 334.903815 169.43094 
C 334.59766 169.214758 334.182366 169.09329 333.749396 169.09329 
C 333.316427 169.09329 332.901133 169.214758 332.594978 169.43094 
C 332.288823 169.647123 332.116802 169.940371 332.116802 170.246099 
C 332.116802 170.551828 332.288823 170.845075 332.594978 171.061258 
C 332.901133 171.277441 333.316427 171.398908 333.749396 171.398908 
z
" style="fill:#ff0000;opacity:0.2;stroke:#ff0000;stroke-linejoin:miter;stroke-width:2;"/>
   </g>
   <g id="patch_38">
    <path clip-path="url(#pfbc37ebeb7)" d="M 242.324113 260.165186 
C 242.757082 260.165186 243.172376 260.043719 243.478532 259.827537 
C 243.784687 259.611354 243.956708 259.318106 243.956708 259.012378 
C 243.956708 258.706649 243.784687 258.413401 243.478532 258.197219 
C 243.172376 257.981036 242.757082 257.859569 242.324113 257.859569 
C 241.891144 257.859569 241.47585 257.981036 241.169695 258.197219 
C 240.863539 258.413401 240.691519 258.706649 240.691519 259.012378 
C 240.691519 259.318106 240.863539 259.611354 241.169695 259.827537 
C 241.47585 260.043719 241.891144 260.165186 242.324113 260.165186 
z
" style="fill:#ff0000;opacity:0.2;stroke:#ff0000;stroke-linejoin:miter;stroke-width:2;"/>
   </g>
   <g id="patch_39">
    <path clip-path="url(#pfbc37ebeb7)" d="M 150.89883 171.398908 
C 151.331799 171.398908 151.747093 171.277441 152.053248 171.061258 
C 152.359404 170.845075 152.531424 170.551828 152.531424 170.246099 
C 152.531424 169.940371 152.359404 169.647123 152.053248 169.43094 
C 151.747093 169.214758 151.331799 169.09329 150.89883 169.09329 
C 150.465861 169.09329 150.050567 169.214758 149.744411 169.43094 
C 149.438256 169.647123 149.266236 169.940371 149.266236 170.246099 
C 149.266236 170.551828 149.438256 170.845075 149.744411 171.061258 
C 150.050567 171.277441 150.465861 171.398908 150.89883 171.398908 
z
" style="fill:#ff0000;opacity:0.2;stroke:#ff0000;stroke-linejoin:miter;stroke-width:2;"/>
   </g>
   <g id="patch_40">
    <path clip-path="url(#pfbc37ebeb7)" d="M 242.324113 71.680946 
C 242.757082 71.680946 243.172376 71.559479 243.478532 71.343296 
C 243.784687 71.127113 243.956708 70.833866 243.956708 70.528137 
C 243.956708 70.222409 243.784687 69.929161 243.478532 69.712978 
C 243.172376 69.496796 242.757082 69.375328 242.324113 69.375328 
C 241.891144 69.375328 241.47585 69.496796 241.169695 69.712978 
C 240.863539 69.929161 240.691519 70.222409 240.691519 70.528137 
C 240.691519 70.833866 240.863539 71.127113 241.169695 71.343296 
C 241.47585 71.559479 241.891144 71.680946 242.324113 71.680946 
z
" style="fill:#0000ff;opacity:0.2;stroke:#0000ff;stroke-linejoin:miter;stroke-width:2;"/>
   </g>
   <g id="patch_41">
    <path clip-path="url(#pfbc37ebeb7)" d="M 354.973123 175.433739 
C 355.406092 175.433739 355.821386 175.312272 356.127541 175.096089 
C 356.433697 174.879906 356.605717 174.586659 356.605717 174.28093 
C 356.605717 173.975202 356.433697 173.681954 356.127541 173.465771 
C 355.821386 173.249588 355.406092 173.128121 354.973123 173.128121 
C 354.540154 173.128121 354.12486 173.249588 353.818704 173.465771 
C 353.512549 173.681954 353.340529 173.975202 353.340529 174.28093 
C 353.340529 174.586659 353.512549 174.879906 353.818704 175.096089 
C 354.12486 175.312272 354.540154 175.433739 354.973123 175.433739 
z
" style="fill:#0000ff;opacity:0.2;stroke:#0000ff;stroke-linejoin:miter;stroke-width:2;"/>
   </g>
   <g id="patch_42">
    <path clip-path="url(#pfbc37ebeb7)" d="M 242.324113 278.033723 
C 242.757082 278.033723 243.172376 277.912256 243.478532 277.696073 
C 243.784687 277.47989 243.956708 277.186643 243.956708 276.880914 
C 243.956708 276.575186 243.784687 276.281938 243.478532 276.065755 
C 243.172376 275.849573 242.757082 275.728105 242.324113 275.728105 
C 241.891144 275.728105 241.47585 275.849573 241.169695 276.065755 
C 240.863539 276.281938 240.691519 276.575186 240.691519 276.880914 
C 240.691519 277.186643 240.863539 277.47989 241.169695 277.696073 
C 241.47585 277.912256 241.891144 278.033723 242.324113 278.033723 
z
" style="fill:#0000ff;opacity:0.2;stroke:#0000ff;stroke-linejoin:miter;stroke-width:2;"/>
   </g>
   <g id="patch_43">
    <path clip-path="url(#pfbc37ebeb7)" d="M 129.675103 175.433739 
C 130.108073 175.433739 130.523367 175.312272 130.829522 175.096089 
C 131.135677 174.879906 131.307698 174.586659 131.307698 174.28093 
C 131.307698 173.975202 131.135677 173.681954 130.829522 173.465771 
C 130.523367 173.249588 130.108073 173.128121 129.675103 173.128121 
C 129.242134 173.128121 128.82684 173.249588 128.520685 173.465771 
C 128.21453 173.681954 128.042509 173.975202 128.042509 174.28093 
C 128.042509 174.586659 128.21453 174.879906 128.520685 175.096089 
C 128.82684 175.312272 129.242134 175.433739 129.675103 175.433739 
z
" style="fill:#0000ff;opacity:0.2;stroke:#0000ff;stroke-linejoin:miter;stroke-width:2;"/>
   </g>
   <g id="patch_44">
    <path clip-path="url(#pfbc37ebeb7)" d="M 242.324113 81.479821 
C 291.301944 81.479821 333.749396 116.064085 333.749396 170.246099 
C 333.749396 230.192157 291.301944 259.012378 242.324113 259.012378 
C 192.529986 259.012378 150.89883 227.310135 150.89883 170.246099 
C 150.89883 116.064085 184.367014 81.479821 242.324113 81.479821 
" style="fill:none;stroke:#ff0000;stroke-linejoin:miter;stroke-width:0.5;"/>
   </g>
   <g id="patch_45">
    <path clip-path="url(#pfbc37ebeb7)" d="M 242.324113 70.528137 
C 309.260481 70.528137 354.973123 114.911276 354.973123 174.28093 
C 354.973123 232.497775 309.260481 276.880914 242.324113 276.880914 
C 175.387745 276.880914 129.675103 232.497775 129.675103 174.28093 
C 129.675103 114.911276 175.387745 70.528137 242.324113 70.528137 
" style="fill:none;stroke:#0000ff;stroke-linejoin:miter;stroke-width:0.5;"/>
   </g>
   <g id="[&quot;g_s&quot;:1,&quot;g_t&quot;:1,&quot;coords&quot;:[[305.0, -332.0],[305.0, -313.0]],&quot;certainty&quot;:10]">
    <path clip-path="url(#pfbc37ebeb7)" d="M 242.324113 84.650045 
C 243.514778 84.650045 244.656837 84.31601 245.498764 83.721508 
C 246.340691 83.127006 246.813748 82.320574 246.813748 81.479821 
C 246.813748 80.639068 246.340691 79.832636 245.498764 79.238134 
C 244.656837 78.643631 243.514778 78.309597 242.324113 78.309597 
C 241.133448 78.309597 239.99139 78.643631 239.149462 79.238134 
C 238.307535 79.832636 237.834479 80.639068 237.834479 81.479821 
C 237.834479 82.320574 238.307535 83.127006 239.149462 83.721508 
C 239.99139 84.31601 241.133448 84.650045 242.324113 84.650045 
z
" style="fill:#0000ff;opacity:0.2;stroke:#0000ff;stroke-linejoin:miter;stroke-width:2;"/>
   </g>
   <g id="[&quot;g_s&quot;:1,&quot;g_t&quot;:1,&quot;coords&quot;:[[305.0, -313.0],[305.0, -332.0]],&quot;certainty&quot;:10]">
    <path clip-path="url(#pfbc37ebeb7)" d="M 242.324113 73.698361 
C 243.514778 73.698361 244.656837 73.364327 245.498764 72.769824 
C 246.340691 72.175322 246.813748 71.36889 246.813748 70.528137 
C 246.813748 69.687384 246.340691 68.880952 245.498764 68.28645 
C 244.656837 67.691948 243.514778 67.357913 242.324113 67.357913 
C 241.133448 67.357913 239.99139 67.691948 239.149462 68.28645 
C 238.307535 68.880952 237.834479 69.687384 237.834479 70.528137 
C 237.834479 71.36889 238.307535 72.175322 239.149462 72.769824 
C 239.99139 73.364327 241.133448 73.698361 242.324113 73.698361 
z
" style="fill:#ff0000;opacity:0.2;stroke:#ff0000;stroke-linejoin:miter;stroke-width:2;"/>
   </g>
   <g id="patch_46">
    <path d="M 242.324113 81.479821 
Q 242.324113 77.005299 242.324113 74.47532 
" style="fill:none;opacity:0.5;stroke:#0000ff;stroke-linecap:round;stroke-width:2.75;"/>
    <path d="M 240.824113 75.97532 
L 242.324113 74.47532 
L 243.824113 75.97532 
" style="fill:none;opacity:0.5;stroke:#0000ff;stroke-linecap:round;stroke-width:2.75;"/>
   </g>
   <g id="[&quot;g_s&quot;:2,&quot;g_t&quot;:2,&quot;coords&quot;:[[417.0, -486.0],[443.0, -493.0]],&quot;certainty&quot;:12]">
    <path clip-path="url(#pfbc37ebeb7)" d="M 333.749396 173.992728 
C 335.156546 173.992728 336.506252 173.597959 337.501257 172.895366 
C 338.496262 172.192772 339.055328 171.239717 339.055328 170.246099 
C 339.055328 169.252482 338.496262 168.299426 337.501257 167.596833 
C 336.506252 166.894239 335.156546 166.499471 333.749396 166.499471 
C 332.342247 166.499471 330.992541 166.894239 329.997536 167.596833 
C 329.002531 168.299426 328.443465 169.252482 328.443465 170.246099 
C 328.443465 171.239717 329.002531 172.192772 329.997536 172.895366 
C 330.992541 173.597959 332.342247 173.992728 333.749396 173.992728 
z
" style="fill:#0000ff;opacity:0.2;stroke:#0000ff;stroke-linejoin:miter;stroke-width:2;"/>
   </g>
   <g id="[&quot;g_s&quot;:2,&quot;g_t&quot;:2,&quot;coords&quot;:[[443.0, -493.0],[417.0, -486.0]],&quot;certainty&quot;:12]">
    <path clip-path="url(#pfbc37ebeb7)" d="M 354.973123 178.027559 
C 356.380272 178.027559 357.729978 177.63279 358.724983 176.930197 
C 359.719988 176.227603 360.279055 175.274548 360.279055 174.28093 
C 360.279055 173.287313 359.719988 172.334257 358.724983 171.631664 
C 357.729978 170.92907 356.380272 170.534301 354.973123 170.534301 
C 353.565973 170.534301 352.216268 170.92907 351.221263 171.631664 
C 350.226258 172.334257 349.667191 173.287313 349.667191 174.28093 
C 349.667191 175.274548 350.226258 176.227603 351.221263 176.930197 
C 352.216268 177.63279 353.565973 178.027559 354.973123 178.027559 
z
" style="fill:#ff0000;opacity:0.2;stroke:#ff0000;stroke-linejoin:miter;stroke-width:2;"/>
   </g>
   <g id="patch_47">
    <path d="M 333.749396 170.246099 
Q 343.378056 172.076598 350.749054 173.477895 
" style="fill:none;opacity:0.5;stroke:#0000ff;stroke-linecap:round;stroke-width:3.25;"/>
    <path d="M 349.555594 171.724141 
L 350.749054 173.477895 
L 348.995301 174.671355 
" style="fill:none;opacity:0.5;stroke:#0000ff;stroke-linecap:round;stroke-width:3.25;"/>
   </g>
   <g id="[&quot;g_s&quot;:3,&quot;g_t&quot;:3,&quot;coords&quot;:[[305.0, -640.0],[305.0, -671.0]],&quot;certainty&quot;:11]">
    <path clip-path="url(#pfbc37ebeb7)" d="M 242.324113 262.470804 
C 243.62302 262.470804 244.868903 262.106402 245.787369 261.457854 
C 246.705835 260.809306 247.221896 259.929563 247.221896 259.012378 
C 247.221896 258.095192 246.705835 257.215449 245.787369 256.566901 
C 244.868903 255.918353 243.62302 255.553951 242.324113 255.553951 
C 241.025206 255.553951 239.779324 255.918353 238.860858 256.566901 
C 237.942391 257.215449 237.42633 258.095192 237.42633 259.012378 
C 237.42633 259.929563 237.942391 260.809306 238.860858 261.457854 
C 239.779324 262.106402 241.025206 262.470804 242.324113 262.470804 
z
" style="fill:#0000ff;opacity:0.2;stroke:#0000ff;stroke-linejoin:miter;stroke-width:2;"/>
   </g>
   <g id="[&quot;g_s&quot;:3,&quot;g_t&quot;:3,&quot;coords&quot;:[[305.0, -671.0],[305.0, -640.0]],&quot;certainty&quot;:11]">
    <path clip-path="url(#pfbc37ebeb7)" d="M 242.324113 280.339341 
C 243.62302 280.339341 244.868903 279.974939 245.787369 279.326391 
C 246.705835 278.677843 247.221896 277.7981 247.221896 276.880914 
C 247.221896 275.963729 246.705835 275.083985 245.787369 274.435437 
C 244.868903 273.786889 243.62302 273.422488 242.324113 273.422488 
C 241.025206 273.422488 239.779324 273.786889 238.860858 274.435437 
C 237.942391 275.083985 237.42633 275.963729 237.42633 276.880914 
C 237.42633 277.7981 237.942391 278.677843 238.860858 279.326391 
C 239.779324 279.974939 241.025206 280.339341 242.324113 280.339341 
z
" style="fill:#ff0000;opacity:0.2;stroke:#ff0000;stroke-linejoin:miter;stroke-width:2;"/>
   </g>
   <g id="patch_48">
    <path d="M 242.324113 259.012378 
Q 242.324113 266.945467 242.324113 272.757236 
" style="fill:none;opacity:0.5;stroke:#0000ff;stroke-linecap:round;stroke-width:3;"/>
    <path d="M 243.824113 271.257236 
L 242.324113 272.757236 
L 240.824113 271.257236 
" style="fill:none;opacity:0.5;stroke:#0000ff;stroke-linecap:round;stroke-width:3;"/>
   </g>
   <g id="[&quot;g_s&quot;:4,&quot;g_t&quot;:4,&quot;coords&quot;:[[193.0, -486.0],[167.0, -493.0]],&quot;certainty&quot;:11]">
    <path clip-path="url(#pfbc37ebeb7)" d="M 150.89883 173.704526 
C 152.197737 173.704526 153.443619 173.340124 154.362086 172.691576 
C 155.280552 172.043028 155.796613 171.163285 155.796613 170.246099 
C 155.796613 169.328914 155.280552 168.44917 154.362086 167.800622 
C 153.443619 167.152074 152.197737 166.787673 150.89883 166.787673 
C 149.599923 166.787673 148.35404 167.152074 147.435574 167.800622 
C 146.517108 168.44917 146.001047 169.328914 146.001047 170.246099 
C 146.001047 171.163285 146.517108 172.043028 147.435574 172.691576 
C 148.35404 173.340124 149.599923 173.704526 150.89883 173.704526 
z
" style="fill:#0000ff;opacity:0.2;stroke:#0000ff;stroke-linejoin:miter;stroke-width:2;"/>
   </g>
   <g id="[&quot;g_s&quot;:4,&quot;g_t&quot;:4,&quot;coords&quot;:[[167.0, -493.0],[193.0, -486.0]],&quot;certainty&quot;:11]">
    <path clip-path="url(#pfbc37ebeb7)" d="M 129.675103 177.739356 
C 130.974011 177.739356 132.219893 177.374955 133.138359 176.726407 
C 134.056825 176.077859 134.572886 175.198115 134.572886 174.28093 
C 134.572886 173.363745 134.056825 172.484001 133.138359 171.835453 
C 132.219893 171.186905 130.974011 170.822504 129.675103 170.822504 
C 128.376196 170.822504 127.130314 171.186905 126.211848 171.835453 
C 125.293382 172.484001 124.77732 173.363745 124.77732 174.28093 
C 124.77732 175.198115 125.293382 176.077859 126.211848 176.726407 
C 127.130314 177.374955 128.376196 177.739356 129.675103 177.739356 
z
" style="fill:#ff0000;opacity:0.2;stroke:#ff0000;stroke-linejoin:miter;stroke-width:2;"/>
   </g>
   <g id="patch_49">
    <path d="M 150.89883 170.246099 
Q 141.27017 172.076598 133.725506 173.51091 
" style="fill:none;opacity:0.5;stroke:#0000ff;stroke-linecap:round;stroke-width:3;"/>
    <path d="M 135.47926 174.704371 
L 133.725506 173.51091 
L 134.918966 171.757157 
" style="fill:none;opacity:0.5;stroke:#0000ff;stroke-linecap:round;stroke-width:3;"/>
   </g>
   <g id="[&quot;g_s&quot;:1,&quot;g_t&quot;:1,&quot;coords&quot;:[[305.0, -313.0],[305.0, -332.0]],&quot;certainty&quot;:10]">
    <path clip-path="url(#pfbc37ebeb7)" d="M 242.324113 73.698361 
C 243.514778 73.698361 244.656837 73.364327 245.498764 72.769824 
C 246.340691 72.175322 246.813748 71.36889 246.813748 70.528137 
C 246.813748 69.687384 246.340691 68.880952 245.498764 68.28645 
C 244.656837 67.691948 243.514778 67.357913 242.324113 67.357913 
C 241.133448 67.357913 239.99139 67.691948 239.149462 68.28645 
C 238.307535 68.880952 237.834479 69.687384 237.834479 70.528137 
C 237.834479 71.36889 238.307535 72.175322 239.149462 72.769824 
C 239.99139 73.364327 241.133448 73.698361 242.324113 73.698361 
z
" style="fill:#0000ff;opacity:0.2;stroke:#0000ff;stroke-linejoin:miter;stroke-width:2;"/>
   </g>
   <g id="[&quot;g_s&quot;:1,&quot;g_t&quot;:1,&quot;coords&quot;:[[305.0, -332.0],[305.0, -313.0]],&quot;certainty&quot;:10]">
    <path clip-path="url(#pfbc37ebeb7)" d="M 242.324113 84.650045 
C 243.514778 84.650045 244.656837 84.31601 245.498764 83.721508 
C 246.340691 83.127006 246.813748 82.320574 246.813748 81.479821 
C 246.813748 80.639068 246.340691 79.832636 245.498764 79.238134 
C 244.656837 78.643631 243.514778 78.309597 242.324113 78.309597 
C 241.133448 78.309597 239.99139 78.643631 239.149462 79.238134 
C 238.307535 79.832636 237.834479 80.639068 237.834479 81.479821 
C 237.834479 82.320574 238.307535 83.127006 239.149462 83.721508 
C 239.99139 84.31601 241.133448 84.650045 242.324113 84.650045 
z
" style="fill:#ff0000;opacity:0.2;stroke:#ff0000;stroke-linejoin:miter;stroke-width:2;"/>
   </g>
   <g id="patch_50">
    <path d="M 242.324113 70.528137 
Q 242.324113 75.002659 242.324113 77.532638 
" style="fill:none;opacity:0.5;stroke:#ff0000;stroke-linecap:round;stroke-width:2.75;"/>
    <path d="M 243.824113 76.032638 
L 242.324113 77.532638 
L 240.824113 76.032638 
" style="fill:none;opacity:0.5;stroke:#ff0000;stroke-linecap:round;stroke-width:2.75;"/>
   </g>
   <g id="[&quot;g_s&quot;:2,&quot;g_t&quot;:2,&quot;coords&quot;:[[443.0, -493.0],[417.0, -486.0]],&quot;certainty&quot;:12]">
    <path clip-path="url(#pfbc37ebeb7)" d="M 354.973123 178.027559 
C 356.380272 178.027559 357.729978 177.63279 358.724983 176.930197 
C 359.719988 176.227603 360.279055 175.274548 360.279055 174.28093 
C 360.279055 173.287313 359.719988 172.334257 358.724983 171.631664 
C 357.729978 170.92907 356.380272 170.534301 354.973123 170.534301 
C 353.565973 170.534301 352.216268 170.92907 351.221263 171.631664 
C 350.226258 172.334257 349.667191 173.287313 349.667191 174.28093 
C 349.667191 175.274548 350.226258 176.227603 351.221263 176.930197 
C 352.216268 177.63279 353.565973 178.027559 354.973123 178.027559 
z
" style="fill:#0000ff;opacity:0.2;stroke:#0000ff;stroke-linejoin:miter;stroke-width:2;"/>
   </g>
   <g id="[&quot;g_s&quot;:2,&quot;g_t&quot;:2,&quot;coords&quot;:[[417.0, -486.0],[443.0, -493.0]],&quot;certainty&quot;:12]">
    <path clip-path="url(#pfbc37ebeb7)" d="M 333.749396 173.992728 
C 335.156546 173.992728 336.506252 173.597959 337.501257 172.895366 
C 338.496262 172.192772 339.055328 171.239717 339.055328 170.246099 
C 339.055328 169.252482 338.496262 168.299426 337.501257 167.596833 
C 336.506252 166.894239 335.156546 166.499471 333.749396 166.499471 
C 332.342247 166.499471 330.992541 166.894239 329.997536 167.596833 
C 329.002531 168.299426 328.443465 169.252482 328.443465 170.246099 
C 328.443465 171.239717 329.002531 172.192772 329.997536 172.895366 
C 330.992541 173.597959 332.342247 173.992728 333.749396 173.992728 
z
" style="fill:#ff0000;opacity:0.2;stroke:#ff0000;stroke-linejoin:miter;stroke-width:2;"/>
   </g>
   <g id="patch_51">
    <path d="M 354.973123 174.28093 
Q 345.344463 172.450431 337.973465 171.049135 
" style="fill:none;opacity:0.5;stroke:#ff0000;stroke-linecap:round;stroke-width:3.25;"/>
    <path d="M 339.166926 172.802888 
L 337.973465 171.049135 
L 339.727219 169.855674 
" style="fill:none;opacity:0.5;stroke:#ff0000;stroke-linecap:round;stroke-width:3.25;"/>
   </g>
   <g id="[&quot;g_s&quot;:3,&quot;g_t&quot;:3,&quot;coords&quot;:[[305.0, -671.0],[305.0, -640.0]],&quot;certainty&quot;:11]">
    <path clip-path="url(#pfbc37ebeb7)" d="M 242.324113 280.339341 
C 243.62302 280.339341 244.868903 279.974939 245.787369 279.326391 
C 246.705835 278.677843 247.221896 277.7981 247.221896 276.880914 
C 247.221896 275.963729 246.705835 275.083985 245.787369 274.435437 
C 244.868903 273.786889 243.62302 273.422488 242.324113 273.422488 
C 241.025206 273.422488 239.779324 273.786889 238.860858 274.435437 
C 237.942391 275.083985 237.42633 275.963729 237.42633 276.880914 
C 237.42633 277.7981 237.942391 278.677843 238.860858 279.326391 
C 239.779324 279.974939 241.025206 280.339341 242.324113 280.339341 
z
" style="fill:#0000ff;opacity:0.2;stroke:#0000ff;stroke-linejoin:miter;stroke-width:2;"/>
   </g>
   <g id="[&quot;g_s&quot;:3,&quot;g_t&quot;:3,&quot;coords&quot;:[[305.0, -640.0],[305.0, -671.0]],&quot;certainty&quot;:11]">
    <path clip-path="url(#pfbc37ebeb7)" d="M 242.324113 262.470804 
C 243.62302 262.470804 244.868903 262.106402 245.787369 261.457854 
C 246.705835 260.809306 247.221896 259.929563 247.221896 259.012378 
C 247.221896 258.095192 246.705835 257.215449 245.787369 256.566901 
C 244.868903 255.918353 243.62302 255.553951 242.324113 255.553951 
C 241.025206 255.553951 239.779324 255.918353 238.860858 256.566901 
C 237.942391 257.215449 237.42633 258.095192 237.42633 259.012378 
C 237.42633 259.929563 237.942391 260.809306 238.860858 261.457854 
C 239.779324 262.106402 241.025206 262.470804 242.324113 262.470804 
z
" style="fill:#ff0000;opacity:0.2;stroke:#ff0000;stroke-linejoin:miter;stroke-width:2;"/>
   </g>
   <g id="patch_52">
    <path d="M 242.324113 276.880914 
Q 242.324113 268.947825 242.324113 263.136056 
" style="fill:none;opacity:0.5;stroke:#ff0000;stroke-linecap:round;stroke-width:3;"/>
    <path d="M 240.824113 264.636056 
L 242.324113 263.136056 
L 243.824113 264.636056 
" style="fill:none;opacity:0.5;stroke:#ff0000;stroke-linecap:round;stroke-width:3;"/>
   </g>
   <g id="[&quot;g_s&quot;:4,&quot;g_t&quot;:4,&quot;coords&quot;:[[167.0, -493.0],[193.0, -486.0]],&quot;certainty&quot;:11]">
    <path clip-path="url(#pfbc37ebeb7)" d="M 129.675103 177.739356 
C 130.974011 177.739356 132.219893 177.374955 133.138359 176.726407 
C 134.056825 176.077859 134.572886 175.198115 134.572886 174.28093 
C 134.572886 173.363745 134.056825 172.484001 133.138359 171.835453 
C 132.219893 171.186905 130.974011 170.822504 129.675103 170.822504 
C 128.376196 170.822504 127.130314 171.186905 126.211848 171.835453 
C 125.293382 172.484001 124.77732 173.363745 124.77732 174.28093 
C 124.77732 175.198115 125.293382 176.077859 126.211848 176.726407 
C 127.130314 177.374955 128.376196 177.739356 129.675103 177.739356 
z
" style="fill:#0000ff;opacity:0.2;stroke:#0000ff;stroke-linejoin:miter;stroke-width:2;"/>
   </g>
   <g id="[&quot;g_s&quot;:4,&quot;g_t&quot;:4,&quot;coords&quot;:[[193.0, -486.0],[167.0, -493.0]],&quot;certainty&quot;:11]">
    <path clip-path="url(#pfbc37ebeb7)" d="M 150.89883 173.704526 
C 152.197737 173.704526 153.443619 173.340124 154.362086 172.691576 
C 155.280552 172.043028 155.796613 171.163285 155.796613 170.246099 
C 155.796613 169.328914 155.280552 168.44917 154.362086 167.800622 
C 153.443619 167.152074 152.197737 166.787673 150.89883 166.787673 
C 149.599923 166.787673 148.35404 167.152074 147.435574 167.800622 
C 146.517108 168.44917 146.001047 169.328914 146.001047 170.246099 
C 146.001047 171.163285 146.517108 172.043028 147.435574 172.691576 
C 148.35404 173.340124 149.599923 173.704526 150.89883 173.704526 
z
" style="fill:#ff0000;opacity:0.2;stroke:#ff0000;stroke-linejoin:miter;stroke-width:2;"/>
   </g>
   <g id="patch_53">
    <path d="M 129.675103 174.28093 
Q 139.303763 172.450431 146.848428 171.016119 
" style="fill:none;opacity:0.5;stroke:#ff0000;stroke-linecap:round;stroke-width:3;"/>
    <path d="M 145.094674 169.822659 
L 146.848428 171.016119 
L 145.654967 172.769873 
" style="fill:none;opacity:0.5;stroke:#ff0000;stroke-linecap:round;stroke-width:3;"/>
   </g>
   <g id="patch_54">
    <path clip-path="url(#pfbc37ebeb7)" d="M 242.324113 78.886001 
C 243.406536 78.886001 244.444771 78.582333 245.21016 78.041876 
C 245.975548 77.50142 246.405599 76.7683 246.405599 76.003979 
C 246.405599 75.239658 245.975548 74.506538 245.21016 73.966082 
C 244.444771 73.425625 243.406536 73.121957 242.324113 73.121957 
C 241.241691 73.121957 240.203455 73.425625 239.438067 73.966082 
C 238.672678 74.506538 238.242627 75.239658 238.242627 76.003979 
C 238.242627 76.7683 238.672678 77.50142 239.438067 78.041876 
C 240.203455 78.582333 241.241691 78.886001 242.324113 78.886001 
z
" style="fill:#008000;opacity:0.2;stroke:#008000;stroke-linejoin:miter;stroke-width:2;"/>
   </g>
   <g id="patch_55">
    <path clip-path="url(#pfbc37ebeb7)" d="M 344.36126 175.145537 
C 345.443682 175.145537 346.481918 174.841869 347.247306 174.301412 
C 348.012694 173.760955 348.442746 173.027836 348.442746 172.263515 
C 348.442746 171.499193 348.012694 170.766074 347.247306 170.225617 
C 346.481918 169.685161 345.443682 169.381493 344.36126 169.381493 
C 343.278837 169.381493 342.240602 169.685161 341.475213 170.225617 
C 340.709825 170.766074 340.279774 171.499193 340.279774 172.263515 
C 340.279774 173.027836 340.709825 173.760955 341.475213 174.301412 
C 342.240602 174.841869 343.278837 175.145537 344.36126 175.145537 
z
" style="fill:#008000;opacity:0.2;stroke:#008000;stroke-linejoin:miter;stroke-width:2;"/>
   </g>
   <g id="patch_56">
    <path clip-path="url(#pfbc37ebeb7)" d="M 242.324113 270.828668 
C 243.406536 270.828668 244.444771 270.525 245.21016 269.984543 
C 245.975548 269.444086 246.405599 268.710967 246.405599 267.946646 
C 246.405599 267.182325 245.975548 266.449205 245.21016 265.908749 
C 244.444771 265.368292 243.406536 265.064624 242.324113 265.064624 
C 241.241691 265.064624 240.203455 265.368292 239.438067 265.908749 
C 238.672678 266.449205 238.242627 267.182325 238.242627 267.946646 
C 238.242627 268.710967 238.672678 269.444086 239.438067 269.984543 
C 240.203455 270.525 241.241691 270.828668 242.324113 270.828668 
z
" style="fill:#008000;opacity:0.2;stroke:#008000;stroke-linejoin:miter;stroke-width:2;"/>
   </g>
   <g id="patch_57">
    <path clip-path="url(#pfbc37ebeb7)" d="M 140.286967 175.145537 
C 141.369389 175.145537 142.407625 174.841869 143.173013 174.301412 
C 143.938401 173.760955 144.368453 173.027836 144.368453 172.263515 
C 144.368453 171.499193 143.938401 170.766074 143.173013 170.225617 
C 142.407625 169.685161 141.369389 169.381493 140.286967 169.381493 
C 139.204544 169.381493 138.166309 169.685161 137.40092 170.225617 
C 136.635532 170.766074 136.205481 171.499193 136.205481 172.263515 
C 136.205481 173.027836 136.635532 173.760955 137.40092 174.301412 
C 138.166309 174.841869 139.204544 175.145537 140.286967 175.145537 
z
" style="fill:#008000;opacity:0.2;stroke:#008000;stroke-linejoin:miter;stroke-width:2;"/>
   </g>
   <g id="patch_58">
    <path clip-path="url(#pfbc37ebeb7)" d="M 242.324113 93.007909 
C 246.653804 93.007909 250.806745 91.793237 253.868299 89.63141 
C 256.929852 87.469583 258.650057 84.537106 258.650057 81.479821 
C 258.650057 78.422536 256.929852 75.490058 253.868299 73.328232 
C 250.806745 71.166405 246.653804 69.951733 242.324113 69.951733 
C 237.994422 69.951733 233.841482 71.166405 230.779928 73.328232 
C 227.718374 75.490058 225.99817 78.422536 225.99817 81.479821 
C 225.99817 84.537106 227.718374 87.469583 230.779928 89.63141 
C 233.841482 91.793237 237.994422 93.007909 242.324113 93.007909 
z
" style="fill:none;opacity:0.2;stroke:#ff0000;stroke-linejoin:miter;stroke-width:2;"/>
   </g>
   <g id="patch_59">
    <path clip-path="url(#pfbc37ebeb7)" d="M 242.324113 82.056225 
C 246.653804 82.056225 250.806745 80.841553 253.868299 78.679726 
C 256.929852 76.5179 258.650057 73.585422 258.650057 70.528137 
C 258.650057 67.470852 256.929852 64.538375 253.868299 62.376548 
C 250.806745 60.214721 246.653804 59.000049 242.324113 59.000049 
C 237.994422 59.000049 233.841482 60.214721 230.779928 62.376548 
C 227.718374 64.538375 225.99817 67.470852 225.99817 70.528137 
C 225.99817 73.585422 227.718374 76.5179 230.779928 78.679726 
C 233.841482 80.841553 237.994422 82.056225 242.324113 82.056225 
z
" style="fill:none;opacity:0.2;stroke:#0000ff;stroke-linejoin:miter;stroke-width:2;"/>
   </g>
   <g id="patch_60">
    <path clip-path="url(#pfbc37ebeb7)" d="M 242.324113 87.243865 
C 244.488959 87.243865 246.565429 86.636529 248.096206 85.555616 
C 249.626983 84.474702 250.487085 83.008463 250.487085 81.479821 
C 250.487085 79.951179 249.626983 78.48494 248.096206 77.404026 
C 246.565429 76.323113 244.488959 75.715777 242.324113 75.715777 
C 240.159268 75.715777 238.082797 76.323113 236.552021 77.404026 
C 235.021244 78.48494 234.161141 79.951179 234.161141 81.479821 
C 234.161141 83.008463 235.021244 84.474702 236.552021 85.555616 
C 238.082797 86.636529 240.159268 87.243865 242.324113 87.243865 
z
" style="fill:none;opacity:0.2;stroke:#008000;stroke-linejoin:miter;stroke-width:2;"/>
   </g>
   <g id="patch_61">
    <path clip-path="url(#pfbc37ebeb7)" d="M 242.324113 76.292181 
C 244.488959 76.292181 246.565429 75.684845 248.096206 74.603932 
C 249.626983 73.523018 250.487085 72.05678 250.487085 70.528137 
C 250.487085 68.999495 249.626983 67.533256 248.096206 66.452343 
C 246.565429 65.371429 244.488959 64.764093 242.324113 64.764093 
C 240.159268 64.764093 238.082797 65.371429 236.552021 66.452343 
C 235.021244 67.533256 234.161141 68.999495 234.161141 70.528137 
C 234.161141 72.05678 235.021244 73.523018 236.552021 74.603932 
C 238.082797 75.684845 240.159268 76.292181 242.324113 76.292181 
z
" style="fill:none;opacity:0.2;stroke:#008000;stroke-linejoin:miter;stroke-width:2;"/>
   </g>
   <g id="patch_62">
    <path d="M 242.324113 76.003979 
Q 293.342686 124.133747 344.36126 172.263515 
" style="fill:none;opacity:0.5;stroke:#008000;stroke-linecap:round;stroke-width:2;"/>
   </g>
   <g id="patch_63">
    <path d="M 242.324113 80.065607 
Q 242.324113 77.005299 242.324113 73.94499 
" style="fill:none;opacity:0.5;stroke:#800080;stroke-linecap:round;stroke-width:2;"/>
    <path d="M 243.824113 78.565607 
L 242.324113 80.065607 
L 240.824113 78.565607 
" style="fill:none;opacity:0.5;stroke:#800080;stroke-linecap:round;stroke-width:2;"/>
    <path d="M 240.824113 75.44499 
L 242.324113 73.94499 
L 243.824113 75.44499 
" style="fill:none;opacity:0.5;stroke:#800080;stroke-linecap:round;stroke-width:2;"/>
   </g>
   <g id="patch_64">
    <path d="M 344.36126 172.263515 
Q 293.342686 220.10508 242.324113 267.946646 
" style="fill:none;opacity:0.5;stroke:#008000;stroke-linecap:round;stroke-width:2;"/>
   </g>
   <g id="patch_65">
    <path d="M 335.138727 170.510224 
Q 343.378056 172.076598 351.617386 173.642973 
" style="fill:none;opacity:0.5;stroke:#800080;stroke-linecap:round;stroke-width:2;"/>
    <path d="M 336.332187 172.263978 
L 335.138727 170.510224 
L 336.89248 169.316764 
" style="fill:none;opacity:0.5;stroke:#800080;stroke-linecap:round;stroke-width:2;"/>
    <path d="M 350.423925 171.889219 
L 351.617386 173.642973 
L 349.863632 174.836433 
" style="fill:none;opacity:0.5;stroke:#800080;stroke-linecap:round;stroke-width:2;"/>
   </g>
   <g id="patch_66">
    <path d="M 242.324113 267.946646 
Q 191.30554 220.10508 140.286967 172.263515 
" style="fill:none;opacity:0.5;stroke:#008000;stroke-linecap:round;stroke-width:2;"/>
   </g>
   <g id="patch_67">
    <path d="M 242.324113 260.426591 
Q 242.324113 266.945467 242.324113 273.464343 
" style="fill:none;opacity:0.5;stroke:#800080;stroke-linecap:round;stroke-width:2;"/>
    <path d="M 240.824113 261.926591 
L 242.324113 260.426591 
L 243.824113 261.926591 
" style="fill:none;opacity:0.5;stroke:#800080;stroke-linecap:round;stroke-width:2;"/>
    <path d="M 243.824113 271.964343 
L 242.324113 273.464343 
L 240.824113 271.964343 
" style="fill:none;opacity:0.5;stroke:#800080;stroke-linecap:round;stroke-width:2;"/>
   </g>
   <g id="patch_68">
    <path d="M 140.286967 172.263515 
Q 191.30554 124.133747 242.324113 76.003979 
" style="fill:none;opacity:0.5;stroke:#008000;stroke-linecap:round;stroke-width:2;"/>
   </g>
   <g id="patch_69">
    <path d="M 149.5095 170.510224 
Q 141.27017 172.076598 133.030841 173.642973 
" style="fill:none;opacity:0.5;stroke:#800080;stroke-linecap:round;stroke-width:2;"/>
    <path d="M 147.755746 169.316764 
L 149.5095 170.510224 
L 148.316039 172.263978 
" style="fill:none;opacity:0.5;stroke:#800080;stroke-linecap:round;stroke-width:2;"/>
    <path d="M 134.784595 174.836433 
L 133.030841 173.642973 
L 134.224301 171.889219 
" style="fill:none;opacity:0.5;stroke:#800080;stroke-linecap:round;stroke-width:2;"/>
   </g>
   <g id="line2d_1">
    <path clip-path="url(#pfbc37ebeb7)" d="M 242.324113 38.825895 
L 423.542085 170.246099 
L 242.324113 301.666304 
L 61.106141 170.246099 
" style="fill:none;stroke:#ff0000;stroke-linecap:square;stroke-width:0.2;"/>
   </g>
   <g id="line2d_2">
    <path clip-path="url(#pfbc37ebeb7)" d="M 242.324113 44.013535 
L 409.665033 174.28093 
L 242.324113 303.395517 
L 74.983193 174.28093 
" style="fill:none;stroke:#0000ff;stroke-linecap:square;stroke-width:0.2;"/>
   </g>
   <g id="line2d_3">
    <path clip-path="url(#pfbc37ebeb7)" d="M 242.324113 81.479821 
L 333.749396 170.246099 
L 242.324113 259.012378 
L 150.89883 170.246099 
" style="fill:none;stroke:#ff0000;stroke-linecap:square;stroke-width:0.2;"/>
   </g>
   <g id="line2d_4">
    <path clip-path="url(#pfbc37ebeb7)" d="M 242.324113 70.528137 
L 354.973123 174.28093 
L 242.324113 276.880914 
L 129.675103 174.28093 
" style="fill:none;stroke:#0000ff;stroke-linecap:square;stroke-width:0.2;"/>
   </g>
  </g>
 </g>
 <defs>
  <clipPath id="pfbc37ebeb7">
   <rect height="307.51175" width="409.903625" x="37.576375" y="13.32"/>
  </clipPath>
 </defs>
</svg>
