<?xml version="1.0" encoding="utf-8" standalone="no"?>
<!DOCTYPE svg PUBLIC "-//W3C//DTD SVG 1.1//EN"
  "http://www.w3.org/Graphics/SVG/1.1/DTD/svg11.dtd">
<!-- Created with matplotlib (http://matplotlib.org/) -->
<svg height="345.6pt" version="1.1" viewBox="0 0 460.8 345.6" width="460.8pt" xmlns="http://www.w3.org/2000/svg" xmlns:xlink="http://www.w3.org/1999/xlink">
 <defs>
  <style type="text/css">
*{stroke-linecap:butt;stroke-linejoin:round;}
  </style>
 </defs>
 <g id="figure_1">
  <g id="patch_1">
   <path d="M 0 345.6 
L 460.8 345.6 
L 460.8 0 
L 0 0 
z
" style="fill:#ffffff;"/>
  </g>
  <g id="axes_1">
   <g id="patch_2">
    <path clip-path="url(#p5b3dbae062)" d="M 244.624549 61.923196 
C 245.036438 61.923196 245.431513 61.855945 245.722763 61.736255 
C 246.014013 61.616565 246.177658 61.454207 246.177658 61.28494 
C 246.177658 61.115672 246.014013 60.953315 245.722763 60.833625 
C 245.431513 60.713934 245.036438 60.646684 244.624549 60.646684 
C 244.21266 60.646684 243.817585 60.713934 243.526335 60.833625 
C 243.235085 60.953315 243.07144 61.115672 243.07144 61.28494 
C 243.07144 61.454207 243.235085 61.616565 243.526335 61.736255 
C 243.817585 61.855945 244.21266 61.923196 244.624549 61.923196 
z
" style="fill:#ff0000;opacity:0.2;stroke:#ff0000;stroke-linejoin:miter;stroke-width:2;"/>
   </g>
   <g id="patch_3">
    <path clip-path="url(#p5b3dbae062)" d="M 424.00864 166.278055 
C 424.420529 166.278055 424.815604 166.210804 425.106854 166.091114 
C 425.398104 165.971424 425.561749 165.809066 425.561749 165.639799 
C 425.561749 165.470531 425.398104 165.308174 425.106854 165.188484 
C 424.815604 165.068794 424.420529 165.001543 424.00864 165.001543 
C 423.596751 165.001543 423.201676 165.068794 422.910426 165.188484 
C 422.619176 165.308174 422.455531 165.470531 422.455531 165.639799 
C 422.455531 165.809066 422.619176 165.971424 422.910426 166.091114 
C 423.201676 166.210804 423.596751 166.278055 424.00864 166.278055 
z
" style="fill:#ff0000;opacity:0.2;stroke:#ff0000;stroke-linejoin:miter;stroke-width:2;"/>
   </g>
   <g id="patch_4">
    <path clip-path="url(#p5b3dbae062)" d="M 244.624549 270.632914 
C 245.036438 270.632914 245.431513 270.565663 245.722763 270.445973 
C 246.014013 270.326283 246.177658 270.163926 246.177658 269.994658 
C 246.177658 269.825391 246.014013 269.663033 245.722763 269.543343 
C 245.431513 269.423653 245.036438 269.356402 244.624549 269.356402 
C 244.21266 269.356402 243.817585 269.423653 243.526335 269.543343 
C 243.235085 269.663033 243.07144 269.825391 243.07144 269.994658 
C 243.07144 270.163926 243.235085 270.326283 243.526335 270.445973 
C 243.817585 270.565663 244.21266 270.632914 244.624549 270.632914 
z
" style="fill:#ff0000;opacity:0.2;stroke:#ff0000;stroke-linejoin:miter;stroke-width:2;"/>
   </g>
   <g id="patch_5">
    <path clip-path="url(#p5b3dbae062)" d="M 65.240458 166.278055 
C 65.652347 166.278055 66.047422 166.210804 66.338672 166.091114 
C 66.629921 165.971424 66.793567 165.809066 66.793567 165.639799 
C 66.793567 165.470531 66.629921 165.308174 66.338672 165.188484 
C 66.047422 165.068794 65.652347 165.001543 65.240458 165.001543 
C 64.828568 165.001543 64.433494 165.068794 64.142244 165.188484 
C 63.850994 165.308174 63.687349 165.470531 63.687349 165.639799 
C 63.687349 165.809066 63.850994 165.971424 64.142244 166.091114 
C 64.433494 166.210804 64.828568 166.278055 65.240458 166.278055 
z
" style="fill:#ff0000;opacity:0.2;stroke:#ff0000;stroke-linejoin:miter;stroke-width:2;"/>
   </g>
   <g id="patch_6">
    <path clip-path="url(#p5b3dbae062)" d="M 244.624549 61.923196 
C 245.036438 61.923196 245.431513 61.855945 245.722763 61.736255 
C 246.014013 61.616565 246.177658 61.454207 246.177658 61.28494 
C 246.177658 61.115672 246.014013 60.953315 245.722763 60.833625 
C 245.431513 60.713934 245.036438 60.646684 244.624549 60.646684 
C 244.21266 60.646684 243.817585 60.713934 243.526335 60.833625 
C 243.235085 60.953315 243.07144 61.115672 243.07144 61.28494 
C 243.07144 61.454207 243.235085 61.616565 243.526335 61.736255 
C 243.817585 61.855945 244.21266 61.923196 244.624549 61.923196 
z
" style="fill:#0000ff;opacity:0.2;stroke:#0000ff;stroke-linejoin:miter;stroke-width:2;"/>
   </g>
   <g id="patch_7">
    <path clip-path="url(#p5b3dbae062)" d="M 405.371332 166.278055 
C 405.783221 166.278055 406.178296 166.210804 406.469546 166.091114 
C 406.760796 165.971424 406.924441 165.809066 406.924441 165.639799 
C 406.924441 165.470531 406.760796 165.308174 406.469546 165.188484 
C 406.178296 165.068794 405.783221 165.001543 405.371332 165.001543 
C 404.959443 165.001543 404.564368 165.068794 404.273118 165.188484 
C 403.981868 165.308174 403.818223 165.470531 403.818223 165.639799 
C 403.818223 165.809066 403.981868 165.971424 404.273118 166.091114 
C 404.564368 166.210804 404.959443 166.278055 405.371332 166.278055 
z
" style="fill:#0000ff;opacity:0.2;stroke:#0000ff;stroke-linejoin:miter;stroke-width:2;"/>
   </g>
   <g id="patch_8">
    <path clip-path="url(#p5b3dbae062)" d="M 244.624549 270.632914 
C 245.036438 270.632914 245.431513 270.565663 245.722763 270.445973 
C 246.014013 270.326283 246.177658 270.163926 246.177658 269.994658 
C 246.177658 269.825391 246.014013 269.663033 245.722763 269.543343 
C 245.431513 269.423653 245.036438 269.356402 244.624549 269.356402 
C 244.21266 269.356402 243.817585 269.423653 243.526335 269.543343 
C 243.235085 269.663033 243.07144 269.825391 243.07144 269.994658 
C 243.07144 270.163926 243.235085 270.326283 243.526335 270.445973 
C 243.817585 270.565663 244.21266 270.632914 244.624549 270.632914 
z
" style="fill:#0000ff;opacity:0.2;stroke:#0000ff;stroke-linejoin:miter;stroke-width:2;"/>
   </g>
   <g id="patch_9">
    <path clip-path="url(#p5b3dbae062)" d="M 83.877766 166.278055 
C 84.289655 166.278055 84.68473 166.210804 84.97598 166.091114 
C 85.26723 165.971424 85.430875 165.809066 85.430875 165.639799 
C 85.430875 165.470531 85.26723 165.308174 84.97598 165.188484 
C 84.68473 165.068794 84.289655 165.001543 83.877766 165.001543 
C 83.465877 165.001543 83.070802 165.068794 82.779552 165.188484 
C 82.488302 165.308174 82.324657 165.470531 82.324657 165.639799 
C 82.324657 165.809066 82.488302 165.971424 82.779552 166.091114 
C 83.070802 166.210804 83.465877 166.278055 83.877766 166.278055 
z
" style="fill:#0000ff;opacity:0.2;stroke:#0000ff;stroke-linejoin:miter;stroke-width:2;"/>
   </g>
   <g id="patch_10">
    <path clip-path="url(#p5b3dbae062)" d="M 244.624549 61.28494 
C 370.426379 61.28494 424.00864 116.174957 424.00864 165.639799 
C 424.00864 217.019408 370.426379 269.994658 244.624549 269.994658 
C 118.822719 269.994658 65.240458 217.019408 65.240458 165.639799 
C 65.240458 116.174957 118.822719 61.28494 244.624549 61.28494 
" style="fill:none;stroke:#ff0000;stroke-linejoin:miter;stroke-width:0.5;"/>
   </g>
   <g id="patch_11">
    <path clip-path="url(#p5b3dbae062)" d="M 244.624549 61.28494 
C 358.001507 61.28494 405.371332 117.45147 405.371332 165.639799 
C 405.371332 215.742896 358.001507 269.994658 244.624549 269.994658 
C 131.247591 269.994658 83.877766 215.742896 83.877766 165.639799 
C 83.877766 117.45147 131.247591 61.28494 244.624549 61.28494 
" style="fill:none;stroke:#0000ff;stroke-linejoin:miter;stroke-width:0.5;"/>
   </g>
   <g id="[&quot;g_s&quot;:1,&quot;g_t&quot;:1,&quot;coords&quot;:[[310.0, -60.0],[310.0, -60.0]],&quot;certainty&quot;:10]">
    <path clip-path="url(#p5b3dbae062)" d="M 244.624549 63.040144 
C 245.757245 63.040144 246.8437 62.855205 247.644637 62.526057 
C 248.445574 62.196909 248.895599 61.750425 248.895599 61.28494 
C 248.895599 60.819454 248.445574 60.372971 247.644637 60.043823 
C 246.8437 59.714675 245.757245 59.529736 244.624549 59.529736 
C 243.491853 59.529736 242.405397 59.714675 241.604461 60.043823 
C 240.803524 60.372971 240.353499 60.819454 240.353499 61.28494 
C 240.353499 61.750425 240.803524 62.196909 241.604461 62.526057 
C 242.405397 62.855205 243.491853 63.040144 244.624549 63.040144 
z
" style="fill:#0000ff;opacity:0.2;stroke:#0000ff;stroke-linejoin:miter;stroke-width:2;"/>
   </g>
   <g id="[&quot;g_s&quot;:1,&quot;g_t&quot;:1,&quot;coords&quot;:[[310.0, -60.0],[310.0, -60.0]],&quot;certainty&quot;:10]">
    <path clip-path="url(#p5b3dbae062)" d="M 244.624549 63.040144 
C 245.757245 63.040144 246.8437 62.855205 247.644637 62.526057 
C 248.445574 62.196909 248.895599 61.750425 248.895599 61.28494 
C 248.895599 60.819454 248.445574 60.372971 247.644637 60.043823 
C 246.8437 59.714675 245.757245 59.529736 244.624549 59.529736 
C 243.491853 59.529736 242.405397 59.714675 241.604461 60.043823 
C 240.803524 60.372971 240.353499 60.819454 240.353499 61.28494 
C 240.353499 61.750425 240.803524 62.196909 241.604461 62.526057 
C 242.405397 62.855205 243.491853 63.040144 244.624549 63.040144 
z
" style="fill:#ff0000;opacity:0.2;stroke:#ff0000;stroke-linejoin:miter;stroke-width:2;"/>
   </g>
   <g id="patch_12">
    <path d="M 244.624549 61.28494 
Q 244.624549 61.28494 244.624549 61.28494 
" style="fill:none;opacity:0.5;stroke:#0000ff;stroke-linecap:round;stroke-width:2.75;"/>
   </g>
   <g id="[&quot;g_s&quot;:2,&quot;g_t&quot;:2,&quot;coords&quot;:[[541.0, -387.0],[517.0, -387.0]],&quot;certainty&quot;:12]">
    <path clip-path="url(#p5b3dbae062)" d="M 424.00864 167.714131 
C 425.34728 167.714131 426.631274 167.495566 427.577835 167.106573 
C 428.524397 166.71758 429.056244 166.189918 429.056244 165.639799 
C 429.056244 165.08968 428.524397 164.562018 427.577835 164.173025 
C 426.631274 163.784032 425.34728 163.565467 424.00864 163.565467 
C 422.67 163.565467 421.386006 163.784032 420.439445 164.173025 
C 419.492883 164.562018 418.961036 165.08968 418.961036 165.639799 
C 418.961036 166.189918 419.492883 166.71758 420.439445 167.106573 
C 421.386006 167.495566 422.67 167.714131 424.00864 167.714131 
z
" style="fill:#0000ff;opacity:0.2;stroke:#0000ff;stroke-linejoin:miter;stroke-width:2;"/>
   </g>
   <g id="[&quot;g_s&quot;:2,&quot;g_t&quot;:2,&quot;coords&quot;:[[517.0, -387.0],[541.0, -387.0]],&quot;certainty&quot;:12]">
    <path clip-path="url(#p5b3dbae062)" d="M 405.371332 167.714131 
C 406.709972 167.714131 407.993965 167.495566 408.940527 167.106573 
C 409.887089 166.71758 410.418936 166.189918 410.418936 165.639799 
C 410.418936 165.08968 409.887089 164.562018 408.940527 164.173025 
C 407.993965 163.784032 406.709972 163.565467 405.371332 163.565467 
C 404.032692 163.565467 402.748698 163.784032 401.802137 164.173025 
C 400.855575 164.562018 400.323728 165.08968 400.323728 165.639799 
C 400.323728 166.189918 400.855575 166.71758 401.802137 167.106573 
C 402.748698 167.495566 404.032692 167.714131 405.371332 167.714131 
z
" style="fill:#ff0000;opacity:0.2;stroke:#ff0000;stroke-linejoin:miter;stroke-width:2;"/>
   </g>
   <g id="patch_13">
    <path d="M 424.00864 165.639799 
Q 415.688738 165.639799 409.666933 165.639799 
" style="fill:none;opacity:0.5;stroke:#0000ff;stroke-linecap:round;stroke-width:3.25;"/>
    <path d="M 411.166933 167.139799 
L 409.666933 165.639799 
L 411.166933 164.139799 
" style="fill:none;opacity:0.5;stroke:#0000ff;stroke-linecap:round;stroke-width:3.25;"/>
   </g>
   <g id="[&quot;g_s&quot;:3,&quot;g_t&quot;:3,&quot;coords&quot;:[[310.0, -714.0],[310.0, -714.0]],&quot;certainty&quot;:11]">
    <path clip-path="url(#p5b3dbae062)" d="M 244.624549 271.909426 
C 245.860217 271.909426 247.045441 271.707674 247.919191 271.348604 
C 248.79294 270.989533 249.283876 270.502461 249.283876 269.994658 
C 249.283876 269.486856 248.79294 268.999783 247.919191 268.640713 
C 247.045441 268.281642 245.860217 268.07989 244.624549 268.07989 
C 243.388881 268.07989 242.203656 268.281642 241.329907 268.640713 
C 240.456158 268.999783 239.965222 269.486856 239.965222 269.994658 
C 239.965222 270.502461 240.456158 270.989533 241.329907 271.348604 
C 242.203656 271.707674 243.388881 271.909426 244.624549 271.909426 
z
" style="fill:#0000ff;opacity:0.2;stroke:#0000ff;stroke-linejoin:miter;stroke-width:2;"/>
   </g>
   <g id="[&quot;g_s&quot;:3,&quot;g_t&quot;:3,&quot;coords&quot;:[[310.0, -714.0],[310.0, -714.0]],&quot;certainty&quot;:11]">
    <path clip-path="url(#p5b3dbae062)" d="M 244.624549 271.909426 
C 245.860217 271.909426 247.045441 271.707674 247.919191 271.348604 
C 248.79294 270.989533 249.283876 270.502461 249.283876 269.994658 
C 249.283876 269.486856 248.79294 268.999783 247.919191 268.640713 
C 247.045441 268.281642 245.860217 268.07989 244.624549 268.07989 
C 243.388881 268.07989 242.203656 268.281642 241.329907 268.640713 
C 240.456158 268.999783 239.965222 269.486856 239.965222 269.994658 
C 239.965222 270.502461 240.456158 270.989533 241.329907 271.348604 
C 242.203656 271.707674 243.388881 271.909426 244.624549 271.909426 
z
" style="fill:#ff0000;opacity:0.2;stroke:#ff0000;stroke-linejoin:miter;stroke-width:2;"/>
   </g>
   <g id="patch_14">
    <path d="M 244.624549 269.994658 
Q 244.624549 269.994658 244.624549 269.994658 
" style="fill:none;opacity:0.5;stroke:#0000ff;stroke-linecap:round;stroke-width:3;"/>
   </g>
   <g id="[&quot;g_s&quot;:4,&quot;g_t&quot;:4,&quot;coords&quot;:[[79.0, -387.0],[103.0, -387.0]],&quot;certainty&quot;:11]">
    <path clip-path="url(#p5b3dbae062)" d="M 65.240458 167.554567 
C 66.476126 167.554567 67.66135 167.352815 68.535099 166.993744 
C 69.408849 166.634674 69.899785 166.147601 69.899785 165.639799 
C 69.899785 165.131997 69.408849 164.644924 68.535099 164.285853 
C 67.66135 163.926783 66.476126 163.725031 65.240458 163.725031 
C 64.00479 163.725031 62.819565 163.926783 61.945816 164.285853 
C 61.072067 164.644924 60.581131 165.131997 60.581131 165.639799 
C 60.581131 166.147601 61.072067 166.634674 61.945816 166.993744 
C 62.819565 167.352815 64.00479 167.554567 65.240458 167.554567 
z
" style="fill:#0000ff;opacity:0.2;stroke:#0000ff;stroke-linejoin:miter;stroke-width:2;"/>
   </g>
   <g id="[&quot;g_s&quot;:4,&quot;g_t&quot;:4,&quot;coords&quot;:[[103.0, -387.0],[79.0, -387.0]],&quot;certainty&quot;:11]">
    <path clip-path="url(#p5b3dbae062)" d="M 83.877766 167.554567 
C 85.113434 167.554567 86.298658 167.352815 87.172408 166.993744 
C 88.046157 166.634674 88.537093 166.147601 88.537093 165.639799 
C 88.537093 165.131997 88.046157 164.644924 87.172408 164.285853 
C 86.298658 163.926783 85.113434 163.725031 83.877766 163.725031 
C 82.642098 163.725031 81.456873 163.926783 80.583124 164.285853 
C 79.709375 164.644924 79.218439 165.131997 79.218439 165.639799 
C 79.218439 166.147601 79.709375 166.634674 80.583124 166.993744 
C 81.456873 167.352815 82.642098 167.554567 83.877766 167.554567 
z
" style="fill:#ff0000;opacity:0.2;stroke:#ff0000;stroke-linejoin:miter;stroke-width:2;"/>
   </g>
   <g id="patch_15">
    <path d="M 65.240458 165.639799 
Q 73.56036 165.639799 79.758941 165.639799 
" style="fill:none;opacity:0.5;stroke:#0000ff;stroke-linecap:round;stroke-width:3;"/>
    <path d="M 78.258941 164.139799 
L 79.758941 165.639799 
L 78.258941 167.139799 
" style="fill:none;opacity:0.5;stroke:#0000ff;stroke-linecap:round;stroke-width:3;"/>
   </g>
   <g id="[&quot;g_s&quot;:1,&quot;g_t&quot;:1,&quot;coords&quot;:[[310.0, -60.0],[310.0, -60.0]],&quot;certainty&quot;:10]">
    <path clip-path="url(#p5b3dbae062)" d="M 244.624549 63.040144 
C 245.757245 63.040144 246.8437 62.855205 247.644637 62.526057 
C 248.445574 62.196909 248.895599 61.750425 248.895599 61.28494 
C 248.895599 60.819454 248.445574 60.372971 247.644637 60.043823 
C 246.8437 59.714675 245.757245 59.529736 244.624549 59.529736 
C 243.491853 59.529736 242.405397 59.714675 241.604461 60.043823 
C 240.803524 60.372971 240.353499 60.819454 240.353499 61.28494 
C 240.353499 61.750425 240.803524 62.196909 241.604461 62.526057 
C 242.405397 62.855205 243.491853 63.040144 244.624549 63.040144 
z
" style="fill:#0000ff;opacity:0.2;stroke:#0000ff;stroke-linejoin:miter;stroke-width:2;"/>
   </g>
   <g id="[&quot;g_s&quot;:1,&quot;g_t&quot;:1,&quot;coords&quot;:[[310.0, -60.0],[310.0, -60.0]],&quot;certainty&quot;:10]">
    <path clip-path="url(#p5b3dbae062)" d="M 244.624549 63.040144 
C 245.757245 63.040144 246.8437 62.855205 247.644637 62.526057 
C 248.445574 62.196909 248.895599 61.750425 248.895599 61.28494 
C 248.895599 60.819454 248.445574 60.372971 247.644637 60.043823 
C 246.8437 59.714675 245.757245 59.529736 244.624549 59.529736 
C 243.491853 59.529736 242.405397 59.714675 241.604461 60.043823 
C 240.803524 60.372971 240.353499 60.819454 240.353499 61.28494 
C 240.353499 61.750425 240.803524 62.196909 241.604461 62.526057 
C 242.405397 62.855205 243.491853 63.040144 244.624549 63.040144 
z
" style="fill:#ff0000;opacity:0.2;stroke:#ff0000;stroke-linejoin:miter;stroke-width:2;"/>
   </g>
   <g id="patch_16">
    <path d="M 244.624549 61.28494 
Q 244.624549 61.28494 244.624549 61.28494 
" style="fill:none;opacity:0.5;stroke:#ff0000;stroke-linecap:round;stroke-width:2.75;"/>
   </g>
   <g id="[&quot;g_s&quot;:2,&quot;g_t&quot;:2,&quot;coords&quot;:[[517.0, -387.0],[541.0, -387.0]],&quot;certainty&quot;:12]">
    <path clip-path="url(#p5b3dbae062)" d="M 405.371332 167.714131 
C 406.709972 167.714131 407.993965 167.495566 408.940527 167.106573 
C 409.887089 166.71758 410.418936 166.189918 410.418936 165.639799 
C 410.418936 165.08968 409.887089 164.562018 408.940527 164.173025 
C 407.993965 163.784032 406.709972 163.565467 405.371332 163.565467 
C 404.032692 163.565467 402.748698 163.784032 401.802137 164.173025 
C 400.855575 164.562018 400.323728 165.08968 400.323728 165.639799 
C 400.323728 166.189918 400.855575 166.71758 401.802137 167.106573 
C 402.748698 167.495566 404.032692 167.714131 405.371332 167.714131 
z
" style="fill:#0000ff;opacity:0.2;stroke:#0000ff;stroke-linejoin:miter;stroke-width:2;"/>
   </g>
   <g id="[&quot;g_s&quot;:2,&quot;g_t&quot;:2,&quot;coords&quot;:[[541.0, -387.0],[517.0, -387.0]],&quot;certainty&quot;:12]">
    <path clip-path="url(#p5b3dbae062)" d="M 424.00864 167.714131 
C 425.34728 167.714131 426.631274 167.495566 427.577835 167.106573 
C 428.524397 166.71758 429.056244 166.189918 429.056244 165.639799 
C 429.056244 165.08968 428.524397 164.562018 427.577835 164.173025 
C 426.631274 163.784032 425.34728 163.565467 424.00864 163.565467 
C 422.67 163.565467 421.386006 163.784032 420.439445 164.173025 
C 419.492883 164.562018 418.961036 165.08968 418.961036 165.639799 
C 418.961036 166.189918 419.492883 166.71758 420.439445 167.106573 
C 421.386006 167.495566 422.67 167.714131 424.00864 167.714131 
z
" style="fill:#ff0000;opacity:0.2;stroke:#ff0000;stroke-linejoin:miter;stroke-width:2;"/>
   </g>
   <g id="patch_17">
    <path d="M 405.371332 165.639799 
Q 413.691234 165.639799 419.713039 165.639799 
" style="fill:none;opacity:0.5;stroke:#ff0000;stroke-linecap:round;stroke-width:3.25;"/>
    <path d="M 418.213039 164.139799 
L 419.713039 165.639799 
L 418.213039 167.139799 
" style="fill:none;opacity:0.5;stroke:#ff0000;stroke-linecap:round;stroke-width:3.25;"/>
   </g>
   <g id="[&quot;g_s&quot;:3,&quot;g_t&quot;:3,&quot;coords&quot;:[[310.0, -714.0],[310.0, -714.0]],&quot;certainty&quot;:11]">
    <path clip-path="url(#p5b3dbae062)" d="M 244.624549 271.909426 
C 245.860217 271.909426 247.045441 271.707674 247.919191 271.348604 
C 248.79294 270.989533 249.283876 270.502461 249.283876 269.994658 
C 249.283876 269.486856 248.79294 268.999783 247.919191 268.640713 
C 247.045441 268.281642 245.860217 268.07989 244.624549 268.07989 
C 243.388881 268.07989 242.203656 268.281642 241.329907 268.640713 
C 240.456158 268.999783 239.965222 269.486856 239.965222 269.994658 
C 239.965222 270.502461 240.456158 270.989533 241.329907 271.348604 
C 242.203656 271.707674 243.388881 271.909426 244.624549 271.909426 
z
" style="fill:#0000ff;opacity:0.2;stroke:#0000ff;stroke-linejoin:miter;stroke-width:2;"/>
   </g>
   <g id="[&quot;g_s&quot;:3,&quot;g_t&quot;:3,&quot;coords&quot;:[[310.0, -714.0],[310.0, -714.0]],&quot;certainty&quot;:11]">
    <path clip-path="url(#p5b3dbae062)" d="M 244.624549 271.909426 
C 245.860217 271.909426 247.045441 271.707674 247.919191 271.348604 
C 248.79294 270.989533 249.283876 270.502461 249.283876 269.994658 
C 249.283876 269.486856 248.79294 268.999783 247.919191 268.640713 
C 247.045441 268.281642 245.860217 268.07989 244.624549 268.07989 
C 243.388881 268.07989 242.203656 268.281642 241.329907 268.640713 
C 240.456158 268.999783 239.965222 269.486856 239.965222 269.994658 
C 239.965222 270.502461 240.456158 270.989533 241.329907 271.348604 
C 242.203656 271.707674 243.388881 271.909426 244.624549 271.909426 
z
" style="fill:#ff0000;opacity:0.2;stroke:#ff0000;stroke-linejoin:miter;stroke-width:2;"/>
   </g>
   <g id="patch_18">
    <path d="M 244.624549 269.994658 
Q 244.624549 269.994658 244.624549 269.994658 
" style="fill:none;opacity:0.5;stroke:#ff0000;stroke-linecap:round;stroke-width:3;"/>
   </g>
   <g id="[&quot;g_s&quot;:4,&quot;g_t&quot;:4,&quot;coords&quot;:[[103.0, -387.0],[79.0, -387.0]],&quot;certainty&quot;:11]">
    <path clip-path="url(#p5b3dbae062)" d="M 83.877766 167.554567 
C 85.113434 167.554567 86.298658 167.352815 87.172408 166.993744 
C 88.046157 166.634674 88.537093 166.147601 88.537093 165.639799 
C 88.537093 165.131997 88.046157 164.644924 87.172408 164.285853 
C 86.298658 163.926783 85.113434 163.725031 83.877766 163.725031 
C 82.642098 163.725031 81.456873 163.926783 80.583124 164.285853 
C 79.709375 164.644924 79.218439 165.131997 79.218439 165.639799 
C 79.218439 166.147601 79.709375 166.634674 80.583124 166.993744 
C 81.456873 167.352815 82.642098 167.554567 83.877766 167.554567 
z
" style="fill:#0000ff;opacity:0.2;stroke:#0000ff;stroke-linejoin:miter;stroke-width:2;"/>
   </g>
   <g id="[&quot;g_s&quot;:4,&quot;g_t&quot;:4,&quot;coords&quot;:[[79.0, -387.0],[103.0, -387.0]],&quot;certainty&quot;:11]">
    <path clip-path="url(#p5b3dbae062)" d="M 65.240458 167.554567 
C 66.476126 167.554567 67.66135 167.352815 68.535099 166.993744 
C 69.408849 166.634674 69.899785 166.147601 69.899785 165.639799 
C 69.899785 165.131997 69.408849 164.644924 68.535099 164.285853 
C 67.66135 163.926783 66.476126 163.725031 65.240458 163.725031 
C 64.00479 163.725031 62.819565 163.926783 61.945816 164.285853 
C 61.072067 164.644924 60.581131 165.131997 60.581131 165.639799 
C 60.581131 166.147601 61.072067 166.634674 61.945816 166.993744 
C 62.819565 167.352815 64.00479 167.554567 65.240458 167.554567 
z
" style="fill:#ff0000;opacity:0.2;stroke:#ff0000;stroke-linejoin:miter;stroke-width:2;"/>
   </g>
   <g id="patch_19">
    <path d="M 83.877766 165.639799 
Q 75.557864 165.639799 69.359283 165.639799 
" style="fill:none;opacity:0.5;stroke:#ff0000;stroke-linecap:round;stroke-width:3;"/>
    <path d="M 70.859283 167.139799 
L 69.359283 165.639799 
L 70.859283 164.139799 
" style="fill:none;opacity:0.5;stroke:#ff0000;stroke-linecap:round;stroke-width:3;"/>
   </g>
   <g id="patch_20">
    <path clip-path="url(#p5b3dbae062)" d="M 244.624549 62.88058 
C 245.654272 62.88058 246.641959 62.712453 247.370084 62.413228 
C 248.098208 62.114002 248.507321 61.708109 248.507321 61.28494 
C 248.507321 60.861771 248.098208 60.455877 247.370084 60.156652 
C 246.641959 59.857426 245.654272 59.6893 244.624549 59.6893 
C 243.594826 59.6893 242.607138 59.857426 241.879014 60.156652 
C 241.15089 60.455877 240.741776 60.861771 240.741776 61.28494 
C 240.741776 61.708109 241.15089 62.114002 241.879014 62.413228 
C 242.607138 62.712453 243.594826 62.88058 244.624549 62.88058 
z
" style="fill:#008000;opacity:0.2;stroke:#008000;stroke-linejoin:miter;stroke-width:2;"/>
   </g>
   <g id="patch_21">
    <path clip-path="url(#p5b3dbae062)" d="M 414.689986 167.235439 
C 415.719709 167.235439 416.707396 167.067312 417.435521 166.768087 
C 418.163645 166.468861 418.572758 166.062968 418.572758 165.639799 
C 418.572758 165.21663 418.163645 164.810737 417.435521 164.511511 
C 416.707396 164.212286 415.719709 164.044159 414.689986 164.044159 
C 413.660263 164.044159 412.672575 164.212286 411.944451 164.511511 
C 411.216327 164.810737 410.807213 165.21663 410.807213 165.639799 
C 410.807213 166.062968 411.216327 166.468861 411.944451 166.768087 
C 412.672575 167.067312 413.660263 167.235439 414.689986 167.235439 
z
" style="fill:#008000;opacity:0.2;stroke:#008000;stroke-linejoin:miter;stroke-width:2;"/>
   </g>
   <g id="patch_22">
    <path clip-path="url(#p5b3dbae062)" d="M 244.624549 271.590298 
C 245.654272 271.590298 246.641959 271.422171 247.370084 271.122946 
C 248.098208 270.823721 248.507321 270.417827 248.507321 269.994658 
C 248.507321 269.571489 248.098208 269.165596 247.370084 268.86637 
C 246.641959 268.567145 245.654272 268.399018 244.624549 268.399018 
C 243.594826 268.399018 242.607138 268.567145 241.879014 268.86637 
C 241.15089 269.165596 240.741776 269.571489 240.741776 269.994658 
C 240.741776 270.417827 241.15089 270.823721 241.879014 271.122946 
C 242.607138 271.422171 243.594826 271.590298 244.624549 271.590298 
z
" style="fill:#008000;opacity:0.2;stroke:#008000;stroke-linejoin:miter;stroke-width:2;"/>
   </g>
   <g id="patch_23">
    <path clip-path="url(#p5b3dbae062)" d="M 74.559112 167.235439 
C 75.588835 167.235439 76.576522 167.067312 77.304647 166.768087 
C 78.032771 166.468861 78.441884 166.062968 78.441884 165.639799 
C 78.441884 165.21663 78.032771 164.810737 77.304647 164.511511 
C 76.576522 164.212286 75.588835 164.044159 74.559112 164.044159 
C 73.529388 164.044159 72.541701 164.212286 71.813577 164.511511 
C 71.085453 164.810737 70.676339 165.21663 70.676339 165.639799 
C 70.676339 166.062968 71.085453 166.468861 71.813577 166.768087 
C 72.541701 167.067312 73.529388 167.235439 74.559112 167.235439 
z
" style="fill:#008000;opacity:0.2;stroke:#008000;stroke-linejoin:miter;stroke-width:2;"/>
   </g>
   <g id="patch_24">
    <path clip-path="url(#p5b3dbae062)" d="M 244.624549 67.6675 
C 248.743442 67.6675 252.694191 66.994993 255.606688 65.798091 
C 258.519185 64.60119 260.155639 62.977615 260.155639 61.28494 
C 260.155639 59.592265 258.519185 57.96869 255.606688 56.771788 
C 252.694191 55.574886 248.743442 54.90238 244.624549 54.90238 
C 240.505656 54.90238 236.554907 55.574886 233.64241 56.771788 
C 230.729912 57.96869 229.093459 59.592265 229.093459 61.28494 
C 229.093459 62.977615 230.729912 64.60119 233.64241 65.798091 
C 236.554907 66.994993 240.505656 67.6675 244.624549 67.6675 
z
" style="fill:none;opacity:0.2;stroke:#ff0000;stroke-linejoin:miter;stroke-width:2;"/>
   </g>
   <g id="patch_25">
    <path clip-path="url(#p5b3dbae062)" d="M 244.624549 67.6675 
C 248.743442 67.6675 252.694191 66.994993 255.606688 65.798091 
C 258.519185 64.60119 260.155639 62.977615 260.155639 61.28494 
C 260.155639 59.592265 258.519185 57.96869 255.606688 56.771788 
C 252.694191 55.574886 248.743442 54.90238 244.624549 54.90238 
C 240.505656 54.90238 236.554907 55.574886 233.64241 56.771788 
C 230.729912 57.96869 229.093459 59.592265 229.093459 61.28494 
C 229.093459 62.977615 230.729912 64.60119 233.64241 65.798091 
C 236.554907 66.994993 240.505656 67.6675 244.624549 67.6675 
z
" style="fill:none;opacity:0.2;stroke:#0000ff;stroke-linejoin:miter;stroke-width:2;"/>
   </g>
   <g id="patch_26">
    <path clip-path="url(#p5b3dbae062)" d="M 244.624549 64.47622 
C 246.683995 64.47622 248.65937 64.139967 250.115618 63.541516 
C 251.571867 62.943065 252.390094 62.131277 252.390094 61.28494 
C 252.390094 60.438602 251.571867 59.626815 250.115618 59.028364 
C 248.65937 58.429913 246.683995 58.09366 244.624549 58.09366 
C 242.565102 58.09366 240.589728 58.429913 239.133479 59.028364 
C 237.677231 59.626815 236.859004 60.438602 236.859004 61.28494 
C 236.859004 62.131277 237.677231 62.943065 239.133479 63.541516 
C 240.589728 64.139967 242.565102 64.47622 244.624549 64.47622 
z
" style="fill:none;opacity:0.2;stroke:#008000;stroke-linejoin:miter;stroke-width:2;"/>
   </g>
   <g id="patch_27">
    <path clip-path="url(#p5b3dbae062)" d="M 244.624549 64.47622 
C 246.683995 64.47622 248.65937 64.139967 250.115618 63.541516 
C 251.571867 62.943065 252.390094 62.131277 252.390094 61.28494 
C 252.390094 60.438602 251.571867 59.626815 250.115618 59.028364 
C 248.65937 58.429913 246.683995 58.09366 244.624549 58.09366 
C 242.565102 58.09366 240.589728 58.429913 239.133479 59.028364 
C 237.677231 59.626815 236.859004 60.438602 236.859004 61.28494 
C 236.859004 62.131277 237.677231 62.943065 239.133479 63.541516 
C 240.589728 64.139967 242.565102 64.47622 244.624549 64.47622 
z
" style="fill:none;opacity:0.2;stroke:#008000;stroke-linejoin:miter;stroke-width:2;"/>
   </g>
   <g id="patch_28">
    <path d="M 244.624549 61.28494 
Q 329.657267 113.462369 414.689986 165.639799 
" style="fill:none;opacity:0.5;stroke:#008000;stroke-linecap:round;stroke-width:2;"/>
   </g>
   <g id="patch_29">
    <path d="M 244.624549 61.28494 
Q 244.624549 61.28494 244.624549 61.28494 
" style="fill:none;opacity:0.5;stroke:#800080;stroke-linecap:round;stroke-width:2;"/>
   </g>
   <g id="patch_30">
    <path d="M 414.689986 165.639799 
Q 329.657267 217.817229 244.624549 269.994658 
" style="fill:none;opacity:0.5;stroke:#008000;stroke-linecap:round;stroke-width:2;"/>
   </g>
   <g id="patch_31">
    <path d="M 422.594426 165.639799 
Q 415.688738 165.639799 408.78305 165.639799 
" style="fill:none;opacity:0.5;stroke:#800080;stroke-linecap:round;stroke-width:2;"/>
    <path d="M 421.094426 164.139799 
L 422.594426 165.639799 
L 421.094426 167.139799 
" style="fill:none;opacity:0.5;stroke:#800080;stroke-linecap:round;stroke-width:2;"/>
    <path d="M 410.28305 167.139799 
L 408.78305 165.639799 
L 410.28305 164.139799 
" style="fill:none;opacity:0.5;stroke:#800080;stroke-linecap:round;stroke-width:2;"/>
   </g>
   <g id="patch_32">
    <path d="M 244.624549 269.994658 
Q 159.59183 217.817229 74.559112 165.639799 
" style="fill:none;opacity:0.5;stroke:#008000;stroke-linecap:round;stroke-width:2;"/>
   </g>
   <g id="patch_33">
    <path d="M 244.624549 269.994658 
Q 244.624549 269.994658 244.624549 269.994658 
" style="fill:none;opacity:0.5;stroke:#800080;stroke-linecap:round;stroke-width:2;"/>
   </g>
   <g id="patch_34">
    <path d="M 74.559112 165.639799 
Q 159.59183 113.462369 244.624549 61.28494 
" style="fill:none;opacity:0.5;stroke:#008000;stroke-linecap:round;stroke-width:2;"/>
   </g>
   <g id="patch_35">
    <path d="M 66.654671 165.639799 
Q 73.56036 165.639799 80.466048 165.639799 
" style="fill:none;opacity:0.5;stroke:#800080;stroke-linecap:round;stroke-width:2;"/>
    <path d="M 68.154671 167.139799 
L 66.654671 165.639799 
L 68.154671 164.139799 
" style="fill:none;opacity:0.5;stroke:#800080;stroke-linecap:round;stroke-width:2;"/>
    <path d="M 78.966048 164.139799 
L 80.466048 165.639799 
L 78.966048 167.139799 
" style="fill:none;opacity:0.5;stroke:#800080;stroke-linecap:round;stroke-width:2;"/>
   </g>
   <g id="patch_36">
    <path clip-path="url(#p5b3dbae062)" d="M 310.631682 126.067926 
C 311.043571 126.067926 311.438646 126.000675 311.729896 125.880985 
C 312.021146 125.761295 312.184791 125.598937 312.184791 125.42967 
C 312.184791 125.260402 312.021146 125.098045 311.729896 124.978355 
C 311.438646 124.858664 311.043571 124.791414 310.631682 124.791414 
C 310.219793 124.791414 309.824718 124.858664 309.533468 124.978355 
C 309.242218 125.098045 309.078573 125.260402 309.078573 125.42967 
C 309.078573 125.598937 309.242218 125.761295 309.533468 125.880985 
C 309.824718 126.000675 310.219793 126.067926 310.631682 126.067926 
z
" style="fill:#ff0000;opacity:0.2;stroke:#ff0000;stroke-linejoin:miter;stroke-width:2;"/>
   </g>
   <g id="patch_37">
    <path clip-path="url(#p5b3dbae062)" d="M 317.620673 166.278055 
C 318.032562 166.278055 318.427637 166.210804 318.718886 166.091114 
C 319.010136 165.971424 319.173782 165.809066 319.173782 165.639799 
C 319.173782 165.470531 319.010136 165.308174 318.718886 165.188484 
C 318.427637 165.068794 318.032562 165.001543 317.620673 165.001543 
C 317.208783 165.001543 316.813708 165.068794 316.522459 165.188484 
C 316.231209 165.308174 316.067564 165.470531 316.067564 165.639799 
C 316.067564 165.809066 316.231209 165.971424 316.522459 166.091114 
C 316.813708 166.210804 317.208783 166.278055 317.620673 166.278055 
z
" style="fill:#ff0000;opacity:0.2;stroke:#ff0000;stroke-linejoin:miter;stroke-width:2;"/>
   </g>
   <g id="patch_38">
    <path clip-path="url(#p5b3dbae062)" d="M 244.624549 255.953026 
C 245.036438 255.953026 245.431513 255.885775 245.722763 255.766085 
C 246.014013 255.646395 246.177658 255.484037 246.177658 255.31477 
C 246.177658 255.145502 246.014013 254.983145 245.722763 254.863454 
C 245.431513 254.743764 245.036438 254.676514 244.624549 254.676514 
C 244.21266 254.676514 243.817585 254.743764 243.526335 254.863454 
C 243.235085 254.983145 243.07144 255.145502 243.07144 255.31477 
C 243.07144 255.484037 243.235085 255.646395 243.526335 255.766085 
C 243.817585 255.885775 244.21266 255.953026 244.624549 255.953026 
z
" style="fill:#ff0000;opacity:0.2;stroke:#ff0000;stroke-linejoin:miter;stroke-width:2;"/>
   </g>
   <g id="patch_39">
    <path clip-path="url(#p5b3dbae062)" d="M 186.382961 225.635865 
C 186.79485 225.635865 187.189925 225.568614 187.481175 225.448924 
C 187.772424 225.329234 187.93607 225.166876 187.93607 224.997609 
C 187.93607 224.828341 187.772424 224.665984 187.481175 224.546294 
C 187.189925 224.426603 186.79485 224.359353 186.382961 224.359353 
C 185.971072 224.359353 185.575997 224.426603 185.284747 224.546294 
C 184.993497 224.665984 184.829852 224.828341 184.829852 224.997609 
C 184.829852 225.166876 184.993497 225.329234 185.284747 225.448924 
C 185.575997 225.568614 185.971072 225.635865 186.382961 225.635865 
z
" style="fill:#ff0000;opacity:0.2;stroke:#ff0000;stroke-linejoin:miter;stroke-width:2;"/>
   </g>
   <g id="patch_40">
    <path clip-path="url(#p5b3dbae062)" d="M 191.042288 185.5853 
C 191.454177 185.5853 191.849252 185.518049 192.140502 185.398359 
C 192.431752 185.278669 192.595397 185.116311 192.595397 184.947044 
C 192.595397 184.777776 192.431752 184.615419 192.140502 184.495728 
C 191.849252 184.376038 191.454177 184.308788 191.042288 184.308788 
C 190.630399 184.308788 190.235324 184.376038 189.944074 184.495728 
C 189.652824 184.615419 189.489179 184.777776 189.489179 184.947044 
C 189.489179 185.116311 189.652824 185.278669 189.944074 185.398359 
C 190.235324 185.518049 190.630399 185.5853 191.042288 185.5853 
z
" style="fill:#0000ff;opacity:0.2;stroke:#0000ff;stroke-linejoin:miter;stroke-width:2;"/>
   </g>
   <g id="patch_41">
    <path clip-path="url(#p5b3dbae062)" d="M 170.851871 124.63185 
C 171.26376 124.63185 171.658835 124.564599 171.950085 124.444909 
C 172.241334 124.325219 172.40498 124.162861 172.40498 123.993594 
C 172.40498 123.824326 172.241334 123.661969 171.950085 123.542279 
C 171.658835 123.422588 171.26376 123.355338 170.851871 123.355338 
C 170.439981 123.355338 170.044907 123.422588 169.753657 123.542279 
C 169.462407 123.661969 169.298762 123.824326 169.298762 123.993594 
C 169.298762 124.162861 169.462407 124.325219 169.753657 124.444909 
C 170.044907 124.564599 170.439981 124.63185 170.851871 124.63185 
z
" style="fill:#0000ff;opacity:0.2;stroke:#0000ff;stroke-linejoin:miter;stroke-width:2;"/>
   </g>
   <g id="patch_42">
    <path clip-path="url(#p5b3dbae062)" d="M 267.921184 29.850831 
C 268.333073 29.850831 268.728148 29.78358 269.019398 29.66389 
C 269.310648 29.5442 269.474293 29.381842 269.474293 29.212575 
C 269.474293 29.043307 269.310648 28.88095 269.019398 28.76126 
C 268.728148 28.64157 268.333073 28.574319 267.921184 28.574319 
C 267.509295 28.574319 267.11422 28.64157 266.82297 28.76126 
C 266.53172 28.88095 266.368075 29.043307 266.368075 29.212575 
C 266.368075 29.381842 266.53172 29.5442 266.82297 29.66389 
C 267.11422 29.78358 267.509295 29.850831 267.921184 29.850831 
z
" style="fill:#0000ff;opacity:0.2;stroke:#0000ff;stroke-linejoin:miter;stroke-width:2;"/>
   </g>
   <g id="patch_43">
    <path clip-path="url(#p5b3dbae062)" d="M 333.151763 50.275024 
C 333.563652 50.275024 333.958727 50.207773 334.249977 50.088083 
C 334.541226 49.968392 334.704872 49.806035 334.704872 49.636767 
C 334.704872 49.4675 334.541226 49.305143 334.249977 49.185452 
C 333.958727 49.065762 333.563652 48.998511 333.151763 48.998511 
C 332.739873 48.998511 332.344799 49.065762 332.053549 49.185452 
C 331.762299 49.305143 331.598654 49.4675 331.598654 49.636767 
C 331.598654 49.806035 331.762299 49.968392 332.053549 50.088083 
C 332.344799 50.207773 332.739873 50.275024 333.151763 50.275024 
z
" style="fill:#0000ff;opacity:0.2;stroke:#0000ff;stroke-linejoin:miter;stroke-width:2;"/>
   </g>
   <g id="patch_44">
    <path clip-path="url(#p5b3dbae062)" d="M 310.631682 125.42967 
C 316.844118 142.024326 317.620673 155.746831 317.620673 165.639799 
C 317.620673 194.042192 307.525464 255.31477 244.624549 255.31477 
C 213.562369 255.31477 196.478169 240.315753 186.382961 224.997609 
L 310.631682 125.42967 
" style="fill:none;stroke:#ff0000;stroke-linejoin:miter;stroke-width:0.5;"/>
   </g>
   <g id="patch_45">
    <path clip-path="url(#p5b3dbae062)" d="M 191.042288 184.947044 
C 173.958089 163.565467 170.851871 139.311738 170.851871 123.993594 
C 170.851871 93.995561 182.500188 29.212575 267.921184 29.212575 
C 297.430255 29.212575 318.397227 36.871647 333.151763 49.636767 
L 191.042288 184.947044 
" style="fill:none;stroke:#0000ff;stroke-linejoin:miter;stroke-width:0.5;"/>
   </g>
   <g id="[&quot;g_s&quot;:1,&quot;g_t&quot;:3,&quot;coords&quot;:[[395.0, -261.0],[340.0, 40.5]],&quot;certainty&quot;:10]">
    <path clip-path="url(#p5b3dbae062)" d="M 310.631682 127.184874 
C 311.764378 127.184874 312.850833 126.999934 313.65177 126.670786 
C 314.452707 126.341638 314.902732 125.895155 314.902732 125.42967 
C 314.902732 124.964184 314.452707 124.517701 313.65177 124.188553 
C 312.850833 123.859405 311.764378 123.674466 310.631682 123.674466 
C 309.498986 123.674466 308.41253 123.859405 307.611594 124.188553 
C 306.810657 124.517701 306.360632 124.964184 306.360632 125.42967 
C 306.360632 125.895155 306.810657 126.341638 307.611594 126.670786 
C 308.41253 126.999934 309.498986 127.184874 310.631682 127.184874 
z
" style="fill:#0000ff;opacity:0.2;stroke:#0000ff;stroke-linejoin:miter;stroke-width:2;"/>
   </g>
   <g id="[&quot;g_s&quot;:3,&quot;g_t&quot;:1,&quot;coords&quot;:[[340.0, 40.5],[395.0, -261.0]],&quot;certainty&quot;:10]">
    <path clip-path="url(#p5b3dbae062)" d="M 267.921184 30.967779 
C 269.05388 30.967779 270.140336 30.78284 270.941272 30.453692 
C 271.742209 30.124544 272.192234 29.67806 272.192234 29.212575 
C 272.192234 28.747089 271.742209 28.300606 270.941272 27.971458 
C 270.140336 27.64231 269.05388 27.457371 267.921184 27.457371 
C 266.788488 27.457371 265.702033 27.64231 264.901096 27.971458 
C 264.100159 28.300606 263.650134 28.747089 263.650134 29.212575 
C 263.650134 29.67806 264.100159 30.124544 264.901096 30.453692 
C 265.702033 30.78284 266.788488 30.967779 267.921184 30.967779 
z
" style="fill:#ff0000;opacity:0.2;stroke:#ff0000;stroke-linejoin:miter;stroke-width:2;"/>
   </g>
   <g id="patch_46">
    <path d="M 310.631682 125.42967 
Q 289.682449 78.235784 269.522157 32.819205 
" style="fill:none;opacity:0.5;stroke:#0000ff;stroke-linecap:round;stroke-width:2.75;"/>
    <path d="M 268.759743 34.798782 
L 269.522157 32.819205 
L 271.501734 33.581619 
" style="fill:none;opacity:0.5;stroke:#0000ff;stroke-linecap:round;stroke-width:2.75;"/>
   </g>
   <g id="[&quot;g_s&quot;:2,&quot;g_t&quot;:2,&quot;coords&quot;:[[404.0, -387.0],[215.0, -256.5]],&quot;certainty&quot;:11]">
    <path clip-path="url(#p5b3dbae062)" d="M 317.620673 167.554567 
C 318.856341 167.554567 320.041565 167.352815 320.915314 166.993744 
C 321.789063 166.634674 322.28 166.147601 322.28 165.639799 
C 322.28 165.131997 321.789063 164.644924 320.915314 164.285853 
C 320.041565 163.926783 318.856341 163.725031 317.620673 163.725031 
C 316.385005 163.725031 315.19978 163.926783 314.326031 164.285853 
C 313.452282 164.644924 312.961346 165.131997 312.961346 165.639799 
C 312.961346 166.147601 313.452282 166.634674 314.326031 166.993744 
C 315.19978 167.352815 316.385005 167.554567 317.620673 167.554567 
z
" style="fill:#0000ff;opacity:0.2;stroke:#0000ff;stroke-linejoin:miter;stroke-width:2;"/>
   </g>
   <g id="[&quot;g_s&quot;:2,&quot;g_t&quot;:2,&quot;coords&quot;:[[215.0, -256.5],[404.0, -387.0]],&quot;certainty&quot;:11]">
    <path clip-path="url(#p5b3dbae062)" d="M 170.851871 125.908362 
C 172.087539 125.908362 173.272763 125.70661 174.146512 125.347539 
C 175.020262 124.988469 175.511198 124.501396 175.511198 123.993594 
C 175.511198 123.485791 175.020262 122.998719 174.146512 122.639648 
C 173.272763 122.280578 172.087539 122.078826 170.851871 122.078826 
C 169.616203 122.078826 168.430978 122.280578 167.557229 122.639648 
C 166.68348 122.998719 166.192544 123.485791 166.192544 123.993594 
C 166.192544 124.501396 166.68348 124.988469 167.557229 125.347539 
C 168.430978 125.70661 169.616203 125.908362 170.851871 125.908362 
z
" style="fill:#ff0000;opacity:0.2;stroke:#ff0000;stroke-linejoin:miter;stroke-width:2;"/>
   </g>
   <g id="patch_47">
    <path d="M 317.620673 165.639799 
Q 245.197023 145.089313 174.814128 125.117899 
" style="fill:none;opacity:0.5;stroke:#0000ff;stroke-linecap:round;stroke-width:3;"/>
    <path d="M 175.847693 126.970396 
L 174.814128 125.117899 
L 176.666624 124.084334 
" style="fill:none;opacity:0.5;stroke:#0000ff;stroke-linecap:round;stroke-width:3;"/>
   </g>
   <g id="[&quot;g_s&quot;:3,&quot;g_t&quot;:4,&quot;coords&quot;:[[310.0, -668.0],[424.0, -23.5]],&quot;certainty&quot;:11]">
    <path clip-path="url(#p5b3dbae062)" d="M 244.624549 257.229538 
C 245.860217 257.229538 247.045441 257.027786 247.919191 256.668715 
C 248.79294 256.309645 249.283876 255.822572 249.283876 255.31477 
C 249.283876 254.806967 248.79294 254.319895 247.919191 253.960824 
C 247.045441 253.601754 245.860217 253.400002 244.624549 253.400002 
C 243.388881 253.400002 242.203656 253.601754 241.329907 253.960824 
C 240.456158 254.319895 239.965222 254.806967 239.965222 255.31477 
C 239.965222 255.822572 240.456158 256.309645 241.329907 256.668715 
C 242.203656 257.027786 243.388881 257.229538 244.624549 257.229538 
z
" style="fill:#0000ff;opacity:0.2;stroke:#0000ff;stroke-linejoin:miter;stroke-width:2;"/>
   </g>
   <g id="[&quot;g_s&quot;:4,&quot;g_t&quot;:3,&quot;coords&quot;:[[424.0, -23.5],[310.0, -668.0]],&quot;certainty&quot;:11]">
    <path clip-path="url(#p5b3dbae062)" d="M 333.151763 51.551536 
C 334.387431 51.551536 335.572655 51.349784 336.446404 50.990713 
C 337.320154 50.631642 337.81109 50.14457 337.81109 49.636767 
C 337.81109 49.128965 337.320154 48.641893 336.446404 48.282822 
C 335.572655 47.923751 334.387431 47.721999 333.151763 47.721999 
C 331.916095 47.721999 330.73087 47.923751 329.857121 48.282822 
C 328.983372 48.641893 328.492436 49.128965 328.492436 49.636767 
C 328.492436 50.14457 328.983372 50.631642 329.857121 50.990713 
C 330.73087 51.349784 331.916095 51.551536 333.151763 51.551536 
z
" style="fill:#ff0000;opacity:0.2;stroke:#ff0000;stroke-linejoin:miter;stroke-width:2;"/>
   </g>
   <g id="patch_48">
    <path d="M 244.624549 255.31477 
Q 288.493041 153.39375 331.522869 53.421227 
" style="fill:none;opacity:0.5;stroke:#0000ff;stroke-linecap:round;stroke-width:3;"/>
    <path d="M 329.552047 54.205996 
L 331.522869 53.421227 
L 332.307638 55.392048 
" style="fill:none;opacity:0.5;stroke:#0000ff;stroke-linecap:round;stroke-width:3;"/>
   </g>
   <g id="[&quot;g_s&quot;:4,&quot;g_t&quot;:2,&quot;coords&quot;:[[235.0, -573.0],[215.0, -256.5]],&quot;certainty&quot;:12]">
    <path clip-path="url(#p5b3dbae062)" d="M 186.382961 227.071941 
C 187.721601 227.071941 189.005594 226.853376 189.952156 226.464383 
C 190.898718 226.07539 191.430565 225.547728 191.430565 224.997609 
C 191.430565 224.447489 190.898718 223.919828 189.952156 223.530834 
C 189.005594 223.141841 187.721601 222.923277 186.382961 222.923277 
C 185.044321 222.923277 183.760327 223.141841 182.813766 223.530834 
C 181.867204 223.919828 181.335357 224.447489 181.335357 224.997609 
C 181.335357 225.547728 181.867204 226.07539 182.813766 226.464383 
C 183.760327 226.853376 185.044321 227.071941 186.382961 227.071941 
z
" style="fill:#0000ff;opacity:0.2;stroke:#0000ff;stroke-linejoin:miter;stroke-width:2;"/>
   </g>
   <g id="[&quot;g_s&quot;:2,&quot;g_t&quot;:4,&quot;coords&quot;:[[215.0, -256.5],[235.0, -573.0]],&quot;certainty&quot;:12]">
    <path clip-path="url(#p5b3dbae062)" d="M 170.851871 126.067926 
C 172.190511 126.067926 173.474504 125.849361 174.421066 125.460368 
C 175.367628 125.071375 175.899475 124.543713 175.899475 123.993594 
C 175.899475 123.443474 175.367628 122.915813 174.421066 122.526819 
C 173.474504 122.137826 172.190511 121.919262 170.851871 121.919262 
C 169.51323 121.919262 168.229237 122.137826 167.282675 122.526819 
C 166.336114 122.915813 165.804266 123.443474 165.804266 123.993594 
C 165.804266 124.543713 166.336114 125.071375 167.282675 125.460368 
C 168.229237 125.849361 169.51323 126.067926 170.851871 126.067926 
z
" style="fill:#ff0000;opacity:0.2;stroke:#ff0000;stroke-linejoin:miter;stroke-width:2;"/>
   </g>
   <g id="patch_49">
    <path d="M 186.382961 224.997609 
Q 178.769324 175.48351 171.504953 128.240812 
" style="fill:none;opacity:0.5;stroke:#0000ff;stroke-linecap:round;stroke-width:3.25;"/>
    <path d="M 170.250349 129.951358 
L 171.504953 128.240812 
L 173.215499 129.495416 
" style="fill:none;opacity:0.5;stroke:#0000ff;stroke-linecap:round;stroke-width:3.25;"/>
   </g>
   <g id="[&quot;g_s&quot;:1,&quot;g_t&quot;:3,&quot;coords&quot;:[[241.0, -447.5],[310.0, -668.0]],&quot;certainty&quot;:10]">
    <path clip-path="url(#p5b3dbae062)" d="M 191.042288 186.702248 
C 192.174984 186.702248 193.261439 186.517308 194.062376 186.18816 
C 194.863313 185.859012 195.313338 185.412529 195.313338 184.947044 
C 195.313338 184.481558 194.863313 184.035075 194.062376 183.705927 
C 193.261439 183.376779 192.174984 183.191839 191.042288 183.191839 
C 189.909592 183.191839 188.823136 183.376779 188.0222 183.705927 
C 187.221263 184.035075 186.771238 184.481558 186.771238 184.947044 
C 186.771238 185.412529 187.221263 185.859012 188.0222 186.18816 
C 188.823136 186.517308 189.909592 186.702248 191.042288 186.702248 
z
" style="fill:#0000ff;opacity:0.2;stroke:#0000ff;stroke-linejoin:miter;stroke-width:2;"/>
   </g>
   <g id="[&quot;g_s&quot;:3,&quot;g_t&quot;:1,&quot;coords&quot;:[[310.0, -668.0],[241.0, -447.5]],&quot;certainty&quot;:10]">
    <path clip-path="url(#p5b3dbae062)" d="M 244.624549 257.069974 
C 245.757245 257.069974 246.8437 256.885034 247.644637 256.555886 
C 248.445574 256.226738 248.895599 255.780255 248.895599 255.31477 
C 248.895599 254.849284 248.445574 254.402801 247.644637 254.073653 
C 246.8437 253.744505 245.757245 253.559566 244.624549 253.559566 
C 243.491853 253.559566 242.405397 253.744505 241.604461 254.073653 
C 240.803524 254.402801 240.353499 254.849284 240.353499 255.31477 
C 240.353499 255.780255 240.803524 256.226738 241.604461 256.555886 
C 242.405397 256.885034 243.491853 257.069974 244.624549 257.069974 
z
" style="fill:#ff0000;opacity:0.2;stroke:#ff0000;stroke-linejoin:miter;stroke-width:2;"/>
   </g>
   <g id="patch_50">
    <path d="M 191.042288 184.947044 
Q 217.227576 219.335275 242.234822 252.176424 
" style="fill:none;opacity:0.5;stroke:#ff0000;stroke-linecap:round;stroke-width:2.75;"/>
    <path d="M 242.519496 250.074292 
L 242.234822 252.176424 
L 240.13269 251.891751 
" style="fill:none;opacity:0.5;stroke:#ff0000;stroke-linecap:round;stroke-width:2.75;"/>
   </g>
   <g id="[&quot;g_s&quot;:2,&quot;g_t&quot;:2,&quot;coords&quot;:[[215.0, -256.5],[404.0, -387.0]],&quot;certainty&quot;:11]">
    <path clip-path="url(#p5b3dbae062)" d="M 170.851871 125.908362 
C 172.087539 125.908362 173.272763 125.70661 174.146512 125.347539 
C 175.020262 124.988469 175.511198 124.501396 175.511198 123.993594 
C 175.511198 123.485791 175.020262 122.998719 174.146512 122.639648 
C 173.272763 122.280578 172.087539 122.078826 170.851871 122.078826 
C 169.616203 122.078826 168.430978 122.280578 167.557229 122.639648 
C 166.68348 122.998719 166.192544 123.485791 166.192544 123.993594 
C 166.192544 124.501396 166.68348 124.988469 167.557229 125.347539 
C 168.430978 125.70661 169.616203 125.908362 170.851871 125.908362 
z
" style="fill:#0000ff;opacity:0.2;stroke:#0000ff;stroke-linejoin:miter;stroke-width:2;"/>
   </g>
   <g id="[&quot;g_s&quot;:2,&quot;g_t&quot;:2,&quot;coords&quot;:[[404.0, -387.0],[215.0, -256.5]],&quot;certainty&quot;:11]">
    <path clip-path="url(#p5b3dbae062)" d="M 317.620673 167.554567 
C 318.856341 167.554567 320.041565 167.352815 320.915314 166.993744 
C 321.789063 166.634674 322.28 166.147601 322.28 165.639799 
C 322.28 165.131997 321.789063 164.644924 320.915314 164.285853 
C 320.041565 163.926783 318.856341 163.725031 317.620673 163.725031 
C 316.385005 163.725031 315.19978 163.926783 314.326031 164.285853 
C 313.452282 164.644924 312.961346 165.131997 312.961346 165.639799 
C 312.961346 166.147601 313.452282 166.634674 314.326031 166.993744 
C 315.19978 167.352815 316.385005 167.554567 317.620673 167.554567 
z
" style="fill:#ff0000;opacity:0.2;stroke:#ff0000;stroke-linejoin:miter;stroke-width:2;"/>
   </g>
   <g id="patch_51">
    <path d="M 170.851871 123.993594 
Q 243.27552 144.544079 313.658416 164.515493 
" style="fill:none;opacity:0.5;stroke:#ff0000;stroke-linecap:round;stroke-width:3;"/>
    <path d="M 312.62485 162.662997 
L 313.658416 164.515493 
L 311.805919 165.549059 
" style="fill:none;opacity:0.5;stroke:#ff0000;stroke-linecap:round;stroke-width:3;"/>
   </g>
   <g id="[&quot;g_s&quot;:3,&quot;g_t&quot;:2,&quot;coords&quot;:[[340.0, 40.5],[404.0, -387.0]],&quot;certainty&quot;:11]">
    <path clip-path="url(#p5b3dbae062)" d="M 267.921184 31.127343 
C 269.156852 31.127343 270.342077 30.925591 271.215826 30.56652 
C 272.089575 30.20745 272.580511 29.720377 272.580511 29.212575 
C 272.580511 28.704772 272.089575 28.2177 271.215826 27.858629 
C 270.342077 27.499559 269.156852 27.297807 267.921184 27.297807 
C 266.685516 27.297807 265.500292 27.499559 264.626542 27.858629 
C 263.752793 28.2177 263.261857 28.704772 263.261857 29.212575 
C 263.261857 29.720377 263.752793 30.20745 264.626542 30.56652 
C 265.500292 30.925591 266.685516 31.127343 267.921184 31.127343 
z
" style="fill:#0000ff;opacity:0.2;stroke:#0000ff;stroke-linejoin:miter;stroke-width:2;"/>
   </g>
   <g id="[&quot;g_s&quot;:2,&quot;g_t&quot;:3,&quot;coords&quot;:[[404.0, -387.0],[340.0, 40.5]],&quot;certainty&quot;:11]">
    <path clip-path="url(#p5b3dbae062)" d="M 317.620673 167.554567 
C 318.856341 167.554567 320.041565 167.352815 320.915314 166.993744 
C 321.789063 166.634674 322.28 166.147601 322.28 165.639799 
C 322.28 165.131997 321.789063 164.644924 320.915314 164.285853 
C 320.041565 163.926783 318.856341 163.725031 317.620673 163.725031 
C 316.385005 163.725031 315.19978 163.926783 314.326031 164.285853 
C 313.452282 164.644924 312.961346 165.131997 312.961346 165.639799 
C 312.961346 166.147601 313.452282 166.634674 314.326031 166.993744 
C 315.19978 167.352815 316.385005 167.554567 317.620673 167.554567 
z
" style="fill:#ff0000;opacity:0.2;stroke:#ff0000;stroke-linejoin:miter;stroke-width:2;"/>
   </g>
   <g id="patch_52">
    <path d="M 267.921184 29.212575 
Q 292.428911 96.487334 316.210535 161.768911 
" style="fill:none;opacity:0.5;stroke:#ff0000;stroke-linecap:round;stroke-width:3;"/>
    <path d="M 317.106496 159.846086 
L 316.210535 161.768911 
L 314.28771 160.87295 
" style="fill:none;opacity:0.5;stroke:#ff0000;stroke-linecap:round;stroke-width:3;"/>
   </g>
   <g id="[&quot;g_s&quot;:4,&quot;g_t&quot;:2,&quot;coords&quot;:[[424.0, -23.5],[404.0, -387.0]],&quot;certainty&quot;:12]">
    <path clip-path="url(#p5b3dbae062)" d="M 333.151763 51.7111 
C 334.490403 51.7111 335.774396 51.492535 336.720958 51.103542 
C 337.66752 50.714549 338.199367 50.186887 338.199367 49.636767 
C 338.199367 49.086648 337.66752 48.558986 336.720958 48.169993 
C 335.774396 47.781 334.490403 47.562435 333.151763 47.562435 
C 331.813122 47.562435 330.529129 47.781 329.582567 48.169993 
C 328.636006 48.558986 328.104158 49.086648 328.104158 49.636767 
C 328.104158 50.186887 328.636006 50.714549 329.582567 51.103542 
C 330.529129 51.492535 331.813122 51.7111 333.151763 51.7111 
z
" style="fill:#0000ff;opacity:0.2;stroke:#0000ff;stroke-linejoin:miter;stroke-width:2;"/>
   </g>
   <g id="[&quot;g_s&quot;:2,&quot;g_t&quot;:4,&quot;coords&quot;:[[404.0, -387.0],[424.0, -23.5]],&quot;certainty&quot;:12]">
    <path clip-path="url(#p5b3dbae062)" d="M 317.620673 167.714131 
C 318.959313 167.714131 320.243306 167.495566 321.189868 167.106573 
C 322.136429 166.71758 322.668277 166.189918 322.668277 165.639799 
C 322.668277 165.08968 322.136429 164.562018 321.189868 164.173025 
C 320.243306 163.784032 318.959313 163.565467 317.620673 163.565467 
C 316.282032 163.565467 314.998039 163.784032 314.051477 164.173025 
C 313.104916 164.562018 312.573068 165.08968 312.573068 165.639799 
C 312.573068 166.189918 313.104916 166.71758 314.051477 167.106573 
C 314.998039 167.495566 316.282032 167.714131 317.620673 167.714131 
z
" style="fill:#ff0000;opacity:0.2;stroke:#ff0000;stroke-linejoin:miter;stroke-width:2;"/>
   </g>
   <g id="patch_53">
    <path d="M 333.151763 49.636767 
Q 325.518693 106.648816 318.190583 161.383093 
" style="fill:none;opacity:0.5;stroke:#ff0000;stroke-linecap:round;stroke-width:3.25;"/>
    <path d="M 319.876368 160.09541 
L 318.190583 161.383093 
L 316.9029 159.697307 
" style="fill:none;opacity:0.5;stroke:#ff0000;stroke-linecap:round;stroke-width:3.25;"/>
   </g>
   <g id="patch_54">
    <path clip-path="url(#p5b3dbae062)" d="M 244.236272 146.412336 
C 245.265995 146.412336 246.253682 146.24421 246.981806 145.944984 
C 247.709931 145.645759 248.119044 145.239865 248.119044 144.816696 
C 248.119044 144.393528 247.709931 143.987634 246.981806 143.688408 
C 246.253682 143.389183 245.265995 143.221056 244.236272 143.221056 
C 243.206548 143.221056 242.218861 143.389183 241.490737 143.688408 
C 240.762612 143.987634 240.353499 144.393528 240.353499 144.816696 
C 240.353499 145.239865 240.762612 145.645759 241.490737 145.944984 
C 242.218861 146.24421 243.206548 146.412336 244.236272 146.412336 
z
" style="fill:#008000;opacity:0.2;stroke:#008000;stroke-linejoin:miter;stroke-width:2;"/>
   </g>
   <g id="patch_55">
    <path clip-path="url(#p5b3dbae062)" d="M 310.631682 131.81223 
C 314.750575 131.81223 318.701324 131.139723 321.613821 129.942821 
C 324.526318 128.74592 326.162772 127.122345 326.162772 125.42967 
C 326.162772 123.736995 324.526318 122.11342 321.613821 120.916518 
C 318.701324 119.719616 314.750575 119.04711 310.631682 119.04711 
C 306.512789 119.04711 302.56204 119.719616 299.649543 120.916518 
C 296.737045 122.11342 295.100592 123.736995 295.100592 125.42967 
C 295.100592 127.122345 296.737045 128.74592 299.649543 129.942821 
C 302.56204 131.139723 306.512789 131.81223 310.631682 131.81223 
z
" style="fill:none;opacity:0.2;stroke:#ff0000;stroke-linejoin:miter;stroke-width:2;"/>
   </g>
   <g id="patch_56">
    <path clip-path="url(#p5b3dbae062)" d="M 191.042288 191.329604 
C 195.161181 191.329604 199.11193 190.657097 202.024427 189.460195 
C 204.936924 188.263293 206.573378 186.639718 206.573378 184.947044 
C 206.573378 183.254369 204.936924 181.630794 202.024427 180.433892 
C 199.11193 179.23699 195.161181 178.564483 191.042288 178.564483 
C 186.923395 178.564483 182.972646 179.23699 180.060149 180.433892 
C 177.147651 181.630794 175.511198 183.254369 175.511198 184.947044 
C 175.511198 186.639718 177.147651 188.263293 180.060149 189.460195 
C 182.972646 190.657097 186.923395 191.329604 191.042288 191.329604 
z
" style="fill:none;opacity:0.2;stroke:#0000ff;stroke-linejoin:miter;stroke-width:2;"/>
   </g>
   <g id="patch_57">
    <path clip-path="url(#p5b3dbae062)" d="M 177.840861 200.74388 
C 178.252751 200.74388 178.647825 200.676629 178.939075 200.556939 
C 179.230325 200.437249 179.39397 200.274891 179.39397 200.105624 
C 179.39397 199.936357 179.230325 199.773999 178.939075 199.654309 
C 178.647825 199.534619 178.252751 199.467368 177.840861 199.467368 
C 177.428972 199.467368 177.033897 199.534619 176.742647 199.654309 
C 176.451398 199.773999 176.287752 199.936357 176.287752 200.105624 
C 176.287752 200.274891 176.451398 200.437249 176.742647 200.556939 
C 177.033897 200.676629 177.428972 200.74388 177.840861 200.74388 
z
" style="fill:#ff0000;opacity:0.2;stroke:#ff0000;stroke-linejoin:miter;stroke-width:2;"/>
   </g>
   <g id="patch_58">
    <path clip-path="url(#p5b3dbae062)" d="M 171.628425 163.086775 
C 172.040315 163.086775 172.435389 163.019524 172.726639 162.899834 
C 173.017889 162.780144 173.181534 162.617786 173.181534 162.448519 
C 173.181534 162.279251 173.017889 162.116894 172.726639 161.997204 
C 172.435389 161.877514 172.040315 161.810263 171.628425 161.810263 
C 171.216536 161.810263 170.821461 161.877514 170.530211 161.997204 
C 170.238962 162.116894 170.075316 162.279251 170.075316 162.448519 
C 170.075316 162.617786 170.238962 162.780144 170.530211 162.899834 
C 170.821461 163.019524 171.216536 163.086775 171.628425 163.086775 
z
" style="fill:#ff0000;opacity:0.2;stroke:#ff0000;stroke-linejoin:miter;stroke-width:2;"/>
   </g>
   <g id="patch_59">
    <path clip-path="url(#p5b3dbae062)" d="M 244.624549 76.603084 
C 245.036438 76.603084 245.431513 76.535834 245.722763 76.416143 
C 246.014013 76.296453 246.177658 76.134096 246.177658 75.964828 
C 246.177658 75.795561 246.014013 75.633203 245.722763 75.513513 
C 245.431513 75.393823 245.036438 75.326572 244.624549 75.326572 
C 244.21266 75.326572 243.817585 75.393823 243.526335 75.513513 
C 243.235085 75.633203 243.07144 75.795561 243.07144 75.964828 
C 243.07144 76.134096 243.235085 76.296453 243.526335 76.416143 
C 243.817585 76.535834 244.21266 76.603084 244.624549 76.603084 
z
" style="fill:#ff0000;opacity:0.2;stroke:#ff0000;stroke-linejoin:miter;stroke-width:2;"/>
   </g>
   <g id="patch_60">
    <path clip-path="url(#p5b3dbae062)" d="M 299.759919 102.133325 
C 300.171808 102.133325 300.566883 102.066074 300.858133 101.946384 
C 301.149383 101.826694 301.313028 101.664337 301.313028 101.495069 
C 301.313028 101.325802 301.149383 101.163444 300.858133 101.043754 
C 300.566883 100.924064 300.171808 100.856813 299.759919 100.856813 
C 299.34803 100.856813 298.952955 100.924064 298.661705 101.043754 
C 298.370455 101.163444 298.20681 101.325802 298.20681 101.495069 
C 298.20681 101.664337 298.370455 101.826694 298.661705 101.946384 
C 298.952955 102.066074 299.34803 102.133325 299.759919 102.133325 
z
" style="fill:#ff0000;opacity:0.2;stroke:#ff0000;stroke-linejoin:miter;stroke-width:2;"/>
   </g>
   <g id="patch_61">
    <path clip-path="url(#p5b3dbae062)" d="M 298.983364 153.672499 
C 299.395254 153.672499 299.790329 153.605248 300.081578 153.485558 
C 300.372828 153.365868 300.536473 153.20351 300.536473 153.034243 
C 300.536473 152.864975 300.372828 152.702618 300.081578 152.582927 
C 299.790329 152.463237 299.395254 152.395987 298.983364 152.395987 
C 298.571475 152.395987 298.1764 152.463237 297.88515 152.582927 
C 297.593901 152.702618 297.430255 152.864975 297.430255 153.034243 
C 297.430255 153.20351 297.593901 153.365868 297.88515 153.485558 
C 298.1764 153.605248 298.571475 153.672499 298.983364 153.672499 
z
" style="fill:#0000ff;opacity:0.2;stroke:#0000ff;stroke-linejoin:miter;stroke-width:2;"/>
   </g>
   <g id="patch_62">
    <path clip-path="url(#p5b3dbae062)" d="M 315.291009 212.072924 
C 315.702898 212.072924 316.097973 212.005674 316.389223 211.885983 
C 316.680473 211.766293 316.844118 211.603936 316.844118 211.434668 
C 316.844118 211.265401 316.680473 211.103043 316.389223 210.983353 
C 316.097973 210.863663 315.702898 210.796412 315.291009 210.796412 
C 314.87912 210.796412 314.484045 210.863663 314.192795 210.983353 
C 313.901545 211.103043 313.7379 211.265401 313.7379 211.434668 
C 313.7379 211.603936 313.901545 211.766293 314.192795 211.885983 
C 314.484045 212.005674 314.87912 212.072924 315.291009 212.072924 
z
" style="fill:#0000ff;opacity:0.2;stroke:#0000ff;stroke-linejoin:miter;stroke-width:2;"/>
   </g>
   <g id="patch_63">
    <path clip-path="url(#p5b3dbae062)" d="M 218.221696 306.853943 
C 218.633585 306.853943 219.02866 306.786693 219.31991 306.667002 
C 219.611159 306.547312 219.774805 306.384955 219.774805 306.215687 
C 219.774805 306.04642 219.611159 305.884062 219.31991 305.764372 
C 219.02866 305.644682 218.633585 305.577431 218.221696 305.577431 
C 217.809806 305.577431 217.414731 305.644682 217.123482 305.764372 
C 216.832232 305.884062 216.668587 306.04642 216.668587 306.215687 
C 216.668587 306.384955 216.832232 306.547312 217.123482 306.667002 
C 217.414731 306.786693 217.809806 306.853943 218.221696 306.853943 
z
" style="fill:#0000ff;opacity:0.2;stroke:#0000ff;stroke-linejoin:miter;stroke-width:2;"/>
   </g>
   <g id="patch_64">
    <path clip-path="url(#p5b3dbae062)" d="M 156.097335 289.621031 
C 156.509224 289.621031 156.904299 289.55378 157.195549 289.43409 
C 157.486799 289.3144 157.650444 289.152042 157.650444 288.982775 
C 157.650444 288.813507 157.486799 288.65115 157.195549 288.531459 
C 156.904299 288.411769 156.509224 288.344519 156.097335 288.344519 
C 155.685446 288.344519 155.290371 288.411769 154.999121 288.531459 
C 154.707871 288.65115 154.544226 288.813507 154.544226 288.982775 
C 154.544226 289.152042 154.707871 289.3144 154.999121 289.43409 
C 155.290371 289.55378 155.685446 289.621031 156.097335 289.621031 
z
" style="fill:#0000ff;opacity:0.2;stroke:#0000ff;stroke-linejoin:miter;stroke-width:2;"/>
   </g>
   <g id="patch_65">
    <path clip-path="url(#p5b3dbae062)" d="M 177.840861 200.105624 
C 173.958089 185.106608 171.628425 173.937127 171.628425 162.448519 
C 171.628425 137.237406 188.712624 75.964828 244.624549 75.964828 
C 272.580511 75.964828 289.66471 88.091693 299.759919 101.495069 
L 177.840861 200.105624 
" style="fill:none;stroke:#ff0000;stroke-linejoin:miter;stroke-width:0.5;"/>
   </g>
   <g id="patch_66">
    <path clip-path="url(#p5b3dbae062)" d="M 298.983364 153.034243 
C 312.184791 171.862795 315.291009 196.116524 315.291009 211.434668 
C 315.291009 241.432701 303.642691 306.215687 218.221696 306.215687 
C 188.712624 306.215687 168.522207 298.556615 156.097335 288.982775 
L 298.983364 153.034243 
" style="fill:none;stroke:#0000ff;stroke-linejoin:miter;stroke-width:0.5;"/>
   </g>
   <g id="[&quot;g_s&quot;:1,&quot;g_t&quot;:2,&quot;coords&quot;:[[224.0, -495.0],[401.0, -530.5]],&quot;certainty&quot;:10]">
    <path clip-path="url(#p5b3dbae062)" d="M 177.840861 201.860828 
C 178.973557 201.860828 180.060013 201.675889 180.86095 201.346741 
C 181.661886 201.017593 182.111911 200.57111 182.111911 200.105624 
C 182.111911 199.640138 181.661886 199.193655 180.86095 198.864507 
C 180.060013 198.535359 178.973557 198.35042 177.840861 198.35042 
C 176.708166 198.35042 175.62171 198.535359 174.820773 198.864507 
C 174.019836 199.193655 173.569811 199.640138 173.569811 200.105624 
C 173.569811 200.57111 174.019836 201.017593 174.820773 201.346741 
C 175.62171 201.675889 176.708166 201.860828 177.840861 201.860828 
z
" style="fill:#0000ff;opacity:0.2;stroke:#0000ff;stroke-linejoin:miter;stroke-width:2;"/>
   </g>
   <g id="[&quot;g_s&quot;:2,&quot;g_t&quot;:1,&quot;coords&quot;:[[401.0, -530.5],[224.0, -495.0]],&quot;certainty&quot;:10]">
    <path clip-path="url(#p5b3dbae062)" d="M 315.291009 213.189872 
C 316.423705 213.189872 317.510161 213.004933 318.311097 212.675785 
C 319.112034 212.346637 319.562059 211.900154 319.562059 211.434668 
C 319.562059 210.969183 319.112034 210.5227 318.311097 210.193552 
C 317.510161 209.864404 316.423705 209.679464 315.291009 209.679464 
C 314.158313 209.679464 313.071858 209.864404 312.270921 210.193552 
C 311.469984 210.5227 311.019959 210.969183 311.019959 211.434668 
C 311.019959 211.900154 311.469984 212.346637 312.270921 212.675785 
C 313.071858 213.004933 314.158313 213.189872 315.291009 213.189872 
z
" style="fill:#ff0000;opacity:0.2;stroke:#ff0000;stroke-linejoin:miter;stroke-width:2;"/>
   </g>
   <g id="patch_67">
    <path d="M 177.840861 200.105624 
Q 245.569707 205.688034 311.36058 211.110711 
" style="fill:none;opacity:0.5;stroke:#0000ff;stroke-linecap:round;stroke-width:2.75;"/>
    <path d="M 309.988866 209.492564 
L 311.36058 211.110711 
L 309.742433 212.482425 
" style="fill:none;opacity:0.5;stroke:#0000ff;stroke-linecap:round;stroke-width:2.75;"/>
   </g>
   <g id="[&quot;g_s&quot;:2,&quot;g_t&quot;:2,&quot;coords&quot;:[[216.0, -377.0],[401.0, -530.5]],&quot;certainty&quot;:11]">
    <path clip-path="url(#p5b3dbae062)" d="M 171.628425 164.363287 
C 172.864093 164.363287 174.049318 164.161535 174.923067 163.802464 
C 175.796816 163.443394 176.287752 162.956321 176.287752 162.448519 
C 176.287752 161.940716 175.796816 161.453644 174.923067 161.094573 
C 174.049318 160.735503 172.864093 160.533751 171.628425 160.533751 
C 170.392757 160.533751 169.207533 160.735503 168.333783 161.094573 
C 167.460034 161.453644 166.969098 161.940716 166.969098 162.448519 
C 166.969098 162.956321 167.460034 163.443394 168.333783 163.802464 
C 169.207533 164.161535 170.392757 164.363287 171.628425 164.363287 
z
" style="fill:#0000ff;opacity:0.2;stroke:#0000ff;stroke-linejoin:miter;stroke-width:2;"/>
   </g>
   <g id="[&quot;g_s&quot;:2,&quot;g_t&quot;:2,&quot;coords&quot;:[[401.0, -530.5],[216.0, -377.0]],&quot;certainty&quot;:11]">
    <path clip-path="url(#p5b3dbae062)" d="M 315.291009 213.349436 
C 316.526677 213.349436 317.711902 213.147684 318.585651 212.788614 
C 319.4594 212.429543 319.950336 211.942471 319.950336 211.434668 
C 319.950336 210.926866 319.4594 210.439793 318.585651 210.080723 
C 317.711902 209.721652 316.526677 209.5199 315.291009 209.5199 
C 314.055341 209.5199 312.870116 209.721652 311.996367 210.080723 
C 311.122618 210.439793 310.631682 210.926866 310.631682 211.434668 
C 310.631682 211.942471 311.122618 212.429543 311.996367 212.788614 
C 312.870116 213.147684 314.055341 213.349436 315.291009 213.349436 
z
" style="fill:#ff0000;opacity:0.2;stroke:#ff0000;stroke-linejoin:miter;stroke-width:2;"/>
   </g>
   <g id="patch_68">
    <path d="M 171.628425 162.448519 
Q 242.514915 186.619434 311.393597 210.105726 
" style="fill:none;opacity:0.5;stroke:#0000ff;stroke-linecap:round;stroke-width:3;"/>
    <path d="M 310.457964 208.20189 
L 311.393597 210.105726 
L 309.489761 211.041359 
" style="fill:none;opacity:0.5;stroke:#0000ff;stroke-linecap:round;stroke-width:3;"/>
   </g>
   <g id="[&quot;g_s&quot;:3,&quot;g_t&quot;:2,&quot;coords&quot;:[[310.0, -106.0],[401.0, -530.5]],&quot;certainty&quot;:11]">
    <path clip-path="url(#p5b3dbae062)" d="M 244.624549 77.879596 
C 245.860217 77.879596 247.045441 77.677844 247.919191 77.318774 
C 248.79294 76.959703 249.283876 76.472631 249.283876 75.964828 
C 249.283876 75.457026 248.79294 74.969953 247.919191 74.610883 
C 247.045441 74.251812 245.860217 74.05006 244.624549 74.05006 
C 243.388881 74.05006 242.203656 74.251812 241.329907 74.610883 
C 240.456158 74.969953 239.965222 75.457026 239.965222 75.964828 
C 239.965222 76.472631 240.456158 76.959703 241.329907 77.318774 
C 242.203656 77.677844 243.388881 77.879596 244.624549 77.879596 
z
" style="fill:#0000ff;opacity:0.2;stroke:#0000ff;stroke-linejoin:miter;stroke-width:2;"/>
   </g>
   <g id="[&quot;g_s&quot;:2,&quot;g_t&quot;:3,&quot;coords&quot;:[[401.0, -530.5],[310.0, -106.0]],&quot;certainty&quot;:11]">
    <path clip-path="url(#p5b3dbae062)" d="M 315.291009 213.349436 
C 316.526677 213.349436 317.711902 213.147684 318.585651 212.788614 
C 319.4594 212.429543 319.950336 211.942471 319.950336 211.434668 
C 319.950336 210.926866 319.4594 210.439793 318.585651 210.080723 
C 317.711902 209.721652 316.526677 209.5199 315.291009 209.5199 
C 314.055341 209.5199 312.870116 209.721652 311.996367 210.080723 
C 311.122618 210.439793 310.631682 210.926866 310.631682 211.434668 
C 310.631682 211.942471 311.122618 212.429543 311.996367 212.788614 
C 312.870116 213.147684 314.055341 213.349436 315.291009 213.349436 
z
" style="fill:#ff0000;opacity:0.2;stroke:#ff0000;stroke-linejoin:miter;stroke-width:2;"/>
   </g>
   <g id="patch_69">
    <path d="M 244.624549 75.964828 
Q 279.495195 142.81296 313.384737 207.780285 
" style="fill:none;opacity:0.5;stroke:#0000ff;stroke-linecap:round;stroke-width:3;"/>
    <path d="M 314.020923 205.756608 
L 313.384737 207.780285 
L 311.36106 207.144098 
" style="fill:none;opacity:0.5;stroke:#0000ff;stroke-linecap:round;stroke-width:3;"/>
   </g>
   <g id="[&quot;g_s&quot;:4,&quot;g_t&quot;:2,&quot;coords&quot;:[[381.0, -186.0],[401.0, -530.5]],&quot;certainty&quot;:12]">
    <path clip-path="url(#p5b3dbae062)" d="M 299.759919 103.569401 
C 301.098559 103.569401 302.382552 103.350836 303.329114 102.961843 
C 304.275676 102.57285 304.807523 102.045188 304.807523 101.495069 
C 304.807523 100.94495 304.275676 100.417288 303.329114 100.028295 
C 302.382552 99.639302 301.098559 99.420737 299.759919 99.420737 
C 298.421279 99.420737 297.137285 99.639302 296.190724 100.028295 
C 295.244162 100.417288 294.712315 100.94495 294.712315 101.495069 
C 294.712315 102.045188 295.244162 102.57285 296.190724 102.961843 
C 297.137285 103.350836 298.421279 103.569401 299.759919 103.569401 
z
" style="fill:#0000ff;opacity:0.2;stroke:#0000ff;stroke-linejoin:miter;stroke-width:2;"/>
   </g>
   <g id="[&quot;g_s&quot;:2,&quot;g_t&quot;:4,&quot;coords&quot;:[[401.0, -530.5],[381.0, -186.0]],&quot;certainty&quot;:12]">
    <path clip-path="url(#p5b3dbae062)" d="M 315.291009 213.509 
C 316.629649 213.509 317.913643 213.290436 318.860204 212.901443 
C 319.806766 212.51245 320.338613 211.984788 320.338613 211.434668 
C 320.338613 210.884549 319.806766 210.356887 318.860204 209.967894 
C 317.913643 209.578901 316.629649 209.360336 315.291009 209.360336 
C 313.952369 209.360336 312.668375 209.578901 311.721814 209.967894 
C 310.775252 210.356887 310.243405 210.884549 310.243405 211.434668 
C 310.243405 211.984788 310.775252 212.51245 311.721814 212.901443 
C 312.668375 213.290436 313.952369 213.509 315.291009 213.509 
z
" style="fill:#ff0000;opacity:0.2;stroke:#ff0000;stroke-linejoin:miter;stroke-width:2;"/>
   </g>
   <g id="patch_70">
    <path d="M 299.759919 101.495069 
Q 307.385405 155.473439 314.689433 207.176307 
" style="fill:none;opacity:0.5;stroke:#0000ff;stroke-linecap:round;stroke-width:3.25;"/>
    <path d="M 315.964865 205.481234 
L 314.689433 207.176307 
L 312.99436 205.900875 
" style="fill:none;opacity:0.5;stroke:#0000ff;stroke-linecap:round;stroke-width:3.25;"/>
   </g>
   <g id="[&quot;g_s&quot;:1,&quot;g_t&quot;:3,&quot;coords&quot;:[[380.0, -347.5],[310.0, -106.0]],&quot;certainty&quot;:10]">
    <path clip-path="url(#p5b3dbae062)" d="M 298.983364 154.789447 
C 300.11606 154.789447 301.202516 154.604507 302.003453 154.275359 
C 302.804389 153.946211 303.254414 153.499728 303.254414 153.034243 
C 303.254414 152.568757 302.804389 152.122274 302.003453 151.793126 
C 301.202516 151.463978 300.11606 151.279039 298.983364 151.279039 
C 297.850669 151.279039 296.764213 151.463978 295.963276 151.793126 
C 295.162339 152.122274 294.712315 152.568757 294.712315 153.034243 
C 294.712315 153.499728 295.162339 153.946211 295.963276 154.275359 
C 296.764213 154.604507 297.850669 154.789447 298.983364 154.789447 
z
" style="fill:#0000ff;opacity:0.2;stroke:#0000ff;stroke-linejoin:miter;stroke-width:2;"/>
   </g>
   <g id="[&quot;g_s&quot;:3,&quot;g_t&quot;:1,&quot;coords&quot;:[[310.0, -106.0],[380.0, -347.5]],&quot;certainty&quot;:10]">
    <path clip-path="url(#p5b3dbae062)" d="M 244.624549 77.720032 
C 245.757245 77.720032 246.8437 77.535093 247.644637 77.205945 
C 248.445574 76.876797 248.895599 76.430314 248.895599 75.964828 
C 248.895599 75.499343 248.445574 75.05286 247.644637 74.723712 
C 246.8437 74.394564 245.757245 74.209624 244.624549 74.209624 
C 243.491853 74.209624 242.405397 74.394564 241.604461 74.723712 
C 240.803524 75.05286 240.353499 75.499343 240.353499 75.964828 
C 240.353499 76.430314 240.803524 76.876797 241.604461 77.205945 
C 242.405397 77.535093 243.491853 77.720032 244.624549 77.720032 
z
" style="fill:#ff0000;opacity:0.2;stroke:#ff0000;stroke-linejoin:miter;stroke-width:2;"/>
   </g>
   <g id="patch_71">
    <path d="M 298.983364 153.034243 
Q 272.380424 115.316846 246.898276 79.188497 
" style="fill:none;opacity:0.5;stroke:#ff0000;stroke-linecap:round;stroke-width:2.75;"/>
    <path d="M 246.537068 81.278839 
L 246.898276 79.188497 
L 248.988618 79.549705 
" style="fill:none;opacity:0.5;stroke:#ff0000;stroke-linecap:round;stroke-width:2.75;"/>
   </g>
   <g id="[&quot;g_s&quot;:2,&quot;g_t&quot;:2,&quot;coords&quot;:[[401.0, -530.5],[216.0, -377.0]],&quot;certainty&quot;:11]">
    <path clip-path="url(#p5b3dbae062)" d="M 315.291009 213.349436 
C 316.526677 213.349436 317.711902 213.147684 318.585651 212.788614 
C 319.4594 212.429543 319.950336 211.942471 319.950336 211.434668 
C 319.950336 210.926866 319.4594 210.439793 318.585651 210.080723 
C 317.711902 209.721652 316.526677 209.5199 315.291009 209.5199 
C 314.055341 209.5199 312.870116 209.721652 311.996367 210.080723 
C 311.122618 210.439793 310.631682 210.926866 310.631682 211.434668 
C 310.631682 211.942471 311.122618 212.429543 311.996367 212.788614 
C 312.870116 213.147684 314.055341 213.349436 315.291009 213.349436 
z
" style="fill:#0000ff;opacity:0.2;stroke:#0000ff;stroke-linejoin:miter;stroke-width:2;"/>
   </g>
   <g id="[&quot;g_s&quot;:2,&quot;g_t&quot;:2,&quot;coords&quot;:[[216.0, -377.0],[401.0, -530.5]],&quot;certainty&quot;:11]">
    <path clip-path="url(#p5b3dbae062)" d="M 171.628425 164.363287 
C 172.864093 164.363287 174.049318 164.161535 174.923067 163.802464 
C 175.796816 163.443394 176.287752 162.956321 176.287752 162.448519 
C 176.287752 161.940716 175.796816 161.453644 174.923067 161.094573 
C 174.049318 160.735503 172.864093 160.533751 171.628425 160.533751 
C 170.392757 160.533751 169.207533 160.735503 168.333783 161.094573 
C 167.460034 161.453644 166.969098 161.940716 166.969098 162.448519 
C 166.969098 162.956321 167.460034 163.443394 168.333783 163.802464 
C 169.207533 164.161535 170.392757 164.363287 171.628425 164.363287 
z
" style="fill:#ff0000;opacity:0.2;stroke:#ff0000;stroke-linejoin:miter;stroke-width:2;"/>
   </g>
   <g id="patch_72">
    <path d="M 315.291009 211.434668 
Q 244.40452 187.263753 175.525838 163.777461 
" style="fill:none;opacity:0.5;stroke:#ff0000;stroke-linecap:round;stroke-width:3;"/>
    <path d="M 176.46147 165.681297 
L 175.525838 163.777461 
L 177.429674 162.841828 
" style="fill:none;opacity:0.5;stroke:#ff0000;stroke-linecap:round;stroke-width:3;"/>
   </g>
   <g id="[&quot;g_s&quot;:3,&quot;g_t&quot;:4,&quot;coords&quot;:[[276.0, -827.5],[381.0, -186.0]],&quot;certainty&quot;:11]">
    <path clip-path="url(#p5b3dbae062)" d="M 218.221696 308.130455 
C 219.457364 308.130455 220.642588 307.928703 221.516337 307.569633 
C 222.390087 307.210562 222.881023 306.72349 222.881023 306.215687 
C 222.881023 305.707885 222.390087 305.220812 221.516337 304.861742 
C 220.642588 304.502671 219.457364 304.300919 218.221696 304.300919 
C 216.986028 304.300919 215.800803 304.502671 214.927054 304.861742 
C 214.053305 305.220812 213.562369 305.707885 213.562369 306.215687 
C 213.562369 306.72349 214.053305 307.210562 214.927054 307.569633 
C 215.800803 307.928703 216.986028 308.130455 218.221696 308.130455 
z
" style="fill:#0000ff;opacity:0.2;stroke:#0000ff;stroke-linejoin:miter;stroke-width:2;"/>
   </g>
   <g id="[&quot;g_s&quot;:4,&quot;g_t&quot;:3,&quot;coords&quot;:[[381.0, -186.0],[276.0, -827.5]],&quot;certainty&quot;:11]">
    <path clip-path="url(#p5b3dbae062)" d="M 299.759919 103.409837 
C 300.995587 103.409837 302.180811 103.208085 303.054561 102.849015 
C 303.92831 102.489944 304.419246 102.002871 304.419246 101.495069 
C 304.419246 100.987267 303.92831 100.500194 303.054561 100.141124 
C 302.180811 99.782053 300.995587 99.580301 299.759919 99.580301 
C 298.524251 99.580301 297.339026 99.782053 296.465277 100.141124 
C 295.591528 100.500194 295.100592 100.987267 295.100592 101.495069 
C 295.100592 102.002871 295.591528 102.489944 296.465277 102.849015 
C 297.339026 103.208085 298.524251 103.409837 299.759919 103.409837 
z
" style="fill:#ff0000;opacity:0.2;stroke:#ff0000;stroke-linejoin:miter;stroke-width:2;"/>
   </g>
   <g id="patch_73">
    <path d="M 218.221696 306.215687 
Q 258.620665 204.784705 298.234702 105.32448 
" style="fill:none;opacity:0.5;stroke:#ff0000;stroke-linecap:round;stroke-width:3;"/>
    <path d="M 296.286136 106.162983 
L 298.234702 105.32448 
L 299.073206 107.273046 
" style="fill:none;opacity:0.5;stroke:#ff0000;stroke-linecap:round;stroke-width:3;"/>
   </g>
   <g id="[&quot;g_s&quot;:4,&quot;g_t&quot;:2,&quot;coords&quot;:[[196.0, -773.5],[216.0, -377.0]],&quot;certainty&quot;:12]">
    <path clip-path="url(#p5b3dbae062)" d="M 156.097335 291.057107 
C 157.435975 291.057107 158.719969 290.838542 159.66653 290.449549 
C 160.613092 290.060556 161.144939 289.532894 161.144939 288.982775 
C 161.144939 288.432655 160.613092 287.904993 159.66653 287.516 
C 158.719969 287.127007 157.435975 286.908443 156.097335 286.908443 
C 154.758695 286.908443 153.474701 287.127007 152.52814 287.516 
C 151.581578 287.904993 151.049731 288.432655 151.049731 288.982775 
C 151.049731 289.532894 151.581578 290.060556 152.52814 290.449549 
C 153.474701 290.838542 154.758695 291.057107 156.097335 291.057107 
z
" style="fill:#0000ff;opacity:0.2;stroke:#0000ff;stroke-linejoin:miter;stroke-width:2;"/>
   </g>
   <g id="[&quot;g_s&quot;:2,&quot;g_t&quot;:4,&quot;coords&quot;:[[216.0, -377.0],[196.0, -773.5]],&quot;certainty&quot;:12]">
    <path clip-path="url(#p5b3dbae062)" d="M 171.628425 164.522851 
C 172.967066 164.522851 174.251059 164.304286 175.19762 163.915293 
C 176.144182 163.5263 176.676029 162.998638 176.676029 162.448519 
C 176.676029 161.8984 176.144182 161.370738 175.19762 160.981745 
C 174.251059 160.592752 172.967066 160.374187 171.628425 160.374187 
C 170.289785 160.374187 169.005792 160.592752 168.05923 160.981745 
C 167.112668 161.370738 166.580821 161.8984 166.580821 162.448519 
C 166.580821 162.998638 167.112668 163.5263 168.05923 163.915293 
C 169.005792 164.304286 170.289785 164.522851 171.628425 164.522851 
z
" style="fill:#ff0000;opacity:0.2;stroke:#ff0000;stroke-linejoin:miter;stroke-width:2;"/>
   </g>
   <g id="patch_74">
    <path d="M 156.097335 288.982775 
Q 163.740833 226.709988 171.104358 166.71818 
" style="fill:none;opacity:0.5;stroke:#ff0000;stroke-linecap:round;stroke-width:3.25;"/>
    <path d="M 169.432789 168.024265 
L 171.104358 166.71818 
L 172.410443 168.389749 
" style="fill:none;opacity:0.5;stroke:#ff0000;stroke-linecap:round;stroke-width:3.25;"/>
   </g>
   <g id="patch_75">
    <path clip-path="url(#p5b3dbae062)" d="M 243.459717 188.537234 
C 244.48944 188.537234 245.477128 188.369107 246.205252 188.069881 
C 246.933376 187.770656 247.34249 187.364762 247.34249 186.941594 
C 247.34249 186.518425 246.933376 186.112531 246.205252 185.813306 
C 245.477128 185.51408 244.48944 185.345954 243.459717 185.345954 
C 242.429994 185.345954 241.442307 185.51408 240.714182 185.813306 
C 239.986058 186.112531 239.576945 186.518425 239.576945 186.941594 
C 239.576945 187.364762 239.986058 187.770656 240.714182 188.069881 
C 241.442307 188.369107 242.429994 188.537234 243.459717 188.537234 
z
" style="fill:#008000;opacity:0.2;stroke:#008000;stroke-linejoin:miter;stroke-width:2;"/>
   </g>
   <g id="patch_76">
    <path clip-path="url(#p5b3dbae062)" d="M 177.840861 206.488184 
C 181.959755 206.488184 185.910503 205.815677 188.823 204.618776 
C 191.735498 203.421874 193.371951 201.798299 193.371951 200.105624 
C 193.371951 198.412949 191.735498 196.789374 188.823 195.592472 
C 185.910503 194.395571 181.959755 193.723064 177.840861 193.723064 
C 173.721968 193.723064 169.771219 194.395571 166.858722 195.592472 
C 163.946225 196.789374 162.309771 198.412949 162.309771 200.105624 
C 162.309771 201.798299 163.946225 203.421874 166.858722 204.618776 
C 169.771219 205.815677 173.721968 206.488184 177.840861 206.488184 
z
" style="fill:none;opacity:0.2;stroke:#ff0000;stroke-linejoin:miter;stroke-width:2;"/>
   </g>
   <g id="patch_77">
    <path clip-path="url(#p5b3dbae062)" d="M 298.983364 159.416803 
C 303.102258 159.416803 307.053006 158.744296 309.965504 157.547394 
C 312.878001 156.350492 314.514455 154.726917 314.514455 153.034243 
C 314.514455 151.341568 312.878001 149.717993 309.965504 148.521091 
C 307.053006 147.324189 303.102258 146.651682 298.983364 146.651682 
C 294.864471 146.651682 290.913723 147.324189 288.001225 148.521091 
C 285.088728 149.717993 283.452274 151.341568 283.452274 153.034243 
C 283.452274 154.726917 285.088728 156.350492 288.001225 157.547394 
C 290.913723 158.744296 294.864471 159.416803 298.983364 159.416803 
z
" style="fill:none;opacity:0.2;stroke:#0000ff;stroke-linejoin:miter;stroke-width:2;"/>
   </g>
   <g id="line2d_1">
    <path clip-path="url(#p5b3dbae062)" d="M 244.624549 61.28494 
L 424.00864 165.639799 
L 244.624549 269.994658 
L 65.240458 165.639799 
" style="fill:none;stroke:#ff0000;stroke-linecap:square;stroke-width:0.2;"/>
   </g>
   <g id="line2d_2">
    <path clip-path="url(#p5b3dbae062)" d="M 244.624549 61.28494 
L 405.371332 165.639799 
L 244.624549 269.994658 
L 83.877766 165.639799 
" style="fill:none;stroke:#0000ff;stroke-linecap:square;stroke-width:0.2;"/>
   </g>
   <g id="line2d_3">
    <path clip-path="url(#p5b3dbae062)" d="M 310.631682 125.42967 
L 317.620673 165.639799 
L 244.624549 255.31477 
L 186.382961 224.997609 
" style="fill:none;stroke:#ff0000;stroke-linecap:square;stroke-width:0.2;"/>
   </g>
   <g id="line2d_4">
    <path clip-path="url(#p5b3dbae062)" d="M 191.042288 184.947044 
L 170.851871 123.993594 
L 267.921184 29.212575 
L 333.151763 49.636767 
" style="fill:none;stroke:#0000ff;stroke-linecap:square;stroke-width:0.2;"/>
   </g>
   <g id="line2d_5">
    <path clip-path="url(#p5b3dbae062)" d="M 177.840861 200.105624 
L 171.628425 162.448519 
L 244.624549 75.964828 
L 299.759919 101.495069 
" style="fill:none;stroke:#ff0000;stroke-linecap:square;stroke-width:0.2;"/>
   </g>
   <g id="line2d_6">
    <path clip-path="url(#p5b3dbae062)" d="M 298.983364 153.034243 
L 315.291009 211.434668 
L 218.221696 306.215687 
L 156.097335 288.982775 
" style="fill:none;stroke:#0000ff;stroke-linecap:square;stroke-width:0.2;"/>
   </g>
  </g>
 </g>
 <defs>
  <clipPath id="p5b3dbae062">
   <rect height="307.51175" width="405.322625" x="42.157375" y="13.32"/>
  </clipPath>
 </defs>
</svg>
