<?xml version="1.0" encoding="utf-8" standalone="no"?>
<!DOCTYPE svg PUBLIC "-//W3C//DTD SVG 1.1//EN"
  "http://www.w3.org/Graphics/SVG/1.1/DTD/svg11.dtd">
<!-- Created with matplotlib (http://matplotlib.org/) -->
<svg height="345.6pt" version="1.1" viewBox="0 0 460.8 345.6" width="460.8pt" xmlns="http://www.w3.org/2000/svg" xmlns:xlink="http://www.w3.org/1999/xlink">
 <defs>
  <style type="text/css">
*{stroke-linecap:butt;stroke-linejoin:round;}
  </style>
 </defs>
 <g id="figure_1">
  <g id="patch_1">
   <path d="M 0 345.6 
L 460.8 345.6 
L 460.8 0 
L 0 0 
z
" style="fill:#ffffff;"/>
  </g>
  <g id="axes_1">
   <g id="patch_2">
    <path clip-path="url(#pf6a28d3ac2)" d="M 241.714564 41.734978 
C 242.289965 41.734978 242.841877 41.596688 243.248747 41.350565 
C 243.655618 41.104441 243.884227 40.770579 243.884227 40.422508 
C 243.884227 40.074437 243.655618 39.740575 243.248747 39.494452 
C 242.841877 39.248328 242.289965 39.110038 241.714564 39.110038 
C 241.139162 39.110038 240.58725 39.248328 240.18038 39.494452 
C 239.77351 39.740575 239.544901 40.074437 239.544901 40.422508 
C 239.544901 40.770579 239.77351 41.104441 240.18038 41.350565 
C 240.58725 41.596688 241.139162 41.734978 241.714564 41.734978 
z
" style="fill:#ff0000;opacity:0.2;stroke:#ff0000;stroke-linejoin:miter;stroke-width:2;"/>
   </g>
   <g id="patch_3">
    <path clip-path="url(#pf6a28d3ac2)" d="M 421.796612 172.981991 
C 422.372013 172.981991 422.923925 172.8437 423.330795 172.597577 
C 423.737665 172.351453 423.966275 172.017592 423.966275 171.66952 
C 423.966275 171.321449 423.737665 170.987587 423.330795 170.741464 
C 422.923925 170.49534 422.372013 170.35705 421.796612 170.35705 
C 421.22121 170.35705 420.669298 170.49534 420.262428 170.741464 
C 419.855558 170.987587 419.626948 171.321449 419.626948 171.66952 
C 419.626948 172.017592 419.855558 172.351453 420.262428 172.597577 
C 420.669298 172.8437 421.22121 172.981991 421.796612 172.981991 
z
" style="fill:#ff0000;opacity:0.2;stroke:#ff0000;stroke-linejoin:miter;stroke-width:2;"/>
   </g>
   <g id="patch_4">
    <path clip-path="url(#pf6a28d3ac2)" d="M 241.714564 304.229003 
C 242.289965 304.229003 242.841877 304.090713 243.248747 303.844589 
C 243.655618 303.598466 243.884227 303.264604 243.884227 302.916533 
C 243.884227 302.568462 243.655618 302.2346 243.248747 301.988476 
C 242.841877 301.742353 242.289965 301.604063 241.714564 301.604063 
C 241.139162 301.604063 240.58725 301.742353 240.18038 301.988476 
C 239.77351 302.2346 239.544901 302.568462 239.544901 302.916533 
C 239.544901 303.264604 239.77351 303.598466 240.18038 303.844589 
C 240.58725 304.090713 241.139162 304.229003 241.714564 304.229003 
z
" style="fill:#ff0000;opacity:0.2;stroke:#ff0000;stroke-linejoin:miter;stroke-width:2;"/>
   </g>
   <g id="patch_5">
    <path clip-path="url(#pf6a28d3ac2)" d="M 62.717348 172.981991 
C 63.292749 172.981991 63.844661 172.8437 64.251531 172.597577 
C 64.658401 172.351453 64.887011 172.017592 64.887011 171.66952 
C 64.887011 171.321449 64.658401 170.987587 64.251531 170.741464 
C 63.844661 170.49534 63.292749 170.35705 62.717348 170.35705 
C 62.141946 170.35705 61.590034 170.49534 61.183164 170.741464 
C 60.776294 170.987587 60.547684 171.321449 60.547684 171.66952 
C 60.547684 172.017592 60.776294 172.351453 61.183164 172.597577 
C 61.590034 172.8437 62.141946 172.981991 62.717348 172.981991 
z
" style="fill:#ff0000;opacity:0.2;stroke:#ff0000;stroke-linejoin:miter;stroke-width:2;"/>
   </g>
   <g id="patch_6">
    <path clip-path="url(#pf6a28d3ac2)" d="M 242.799395 41.734978 
C 243.374797 41.734978 243.926709 41.596688 244.333579 41.350565 
C 244.740449 41.104441 244.969059 40.770579 244.969059 40.422508 
C 244.969059 40.074437 244.740449 39.740575 244.333579 39.494452 
C 243.926709 39.248328 243.374797 39.110038 242.799395 39.110038 
C 242.223994 39.110038 241.672082 39.248328 241.265212 39.494452 
C 240.858342 39.740575 240.629732 40.074437 240.629732 40.422508 
C 240.629732 40.770579 240.858342 41.104441 241.265212 41.350565 
C 241.672082 41.596688 242.223994 41.734978 242.799395 41.734978 
z
" style="fill:#0000ff;opacity:0.2;stroke:#0000ff;stroke-linejoin:miter;stroke-width:2;"/>
   </g>
   <g id="patch_7">
    <path clip-path="url(#pf6a28d3ac2)" d="M 403.354474 172.981991 
C 403.929876 172.981991 404.481787 172.8437 404.888658 172.597577 
C 405.295528 172.351453 405.524137 172.017592 405.524137 171.66952 
C 405.524137 171.321449 405.295528 170.987587 404.888658 170.741464 
C 404.481787 170.49534 403.929876 170.35705 403.354474 170.35705 
C 402.779073 170.35705 402.227161 170.49534 401.820291 170.741464 
C 401.41342 170.987587 401.184811 171.321449 401.184811 171.66952 
C 401.184811 172.017592 401.41342 172.351453 401.820291 172.597577 
C 402.227161 172.8437 402.779073 172.981991 403.354474 172.981991 
z
" style="fill:#0000ff;opacity:0.2;stroke:#0000ff;stroke-linejoin:miter;stroke-width:2;"/>
   </g>
   <g id="patch_8">
    <path clip-path="url(#pf6a28d3ac2)" d="M 242.799395 304.229003 
C 243.374797 304.229003 243.926709 304.090713 244.333579 303.844589 
C 244.740449 303.598466 244.969059 303.264604 244.969059 302.916533 
C 244.969059 302.568462 244.740449 302.2346 244.333579 301.988476 
C 243.926709 301.742353 243.374797 301.604063 242.799395 301.604063 
C 242.223994 301.604063 241.672082 301.742353 241.265212 301.988476 
C 240.858342 302.2346 240.629732 302.568462 240.629732 302.916533 
C 240.629732 303.264604 240.858342 303.598466 241.265212 303.844589 
C 241.672082 304.090713 242.223994 304.229003 242.799395 304.229003 
z
" style="fill:#0000ff;opacity:0.2;stroke:#0000ff;stroke-linejoin:miter;stroke-width:2;"/>
   </g>
   <g id="patch_9">
    <path clip-path="url(#pf6a28d3ac2)" d="M 81.159485 172.981991 
C 81.734886 172.981991 82.286798 172.8437 82.693669 172.597577 
C 83.100539 172.351453 83.329148 172.017592 83.329148 171.66952 
C 83.329148 171.321449 83.100539 170.987587 82.693669 170.741464 
C 82.286798 170.49534 81.734886 170.35705 81.159485 170.35705 
C 80.584084 170.35705 80.032172 170.49534 79.625301 170.741464 
C 79.218431 170.987587 78.989822 171.321449 78.989822 171.66952 
C 78.989822 172.017592 79.218431 172.351453 79.625301 172.597577 
C 80.032172 172.8437 80.584084 172.981991 81.159485 172.981991 
z
" style="fill:#0000ff;opacity:0.2;stroke:#0000ff;stroke-linejoin:miter;stroke-width:2;"/>
   </g>
   <g id="patch_10">
    <path clip-path="url(#pf6a28d3ac2)" d="M 241.714564 40.422508 
C 367.555031 40.422508 421.796612 109.32719 421.796612 171.66952 
C 421.796612 235.324321 367.555031 302.916533 241.714564 302.916533 
C 116.958928 302.916533 62.717348 235.980556 62.717348 171.66952 
C 62.717348 109.32719 116.958928 40.422508 241.714564 40.422508 
" style="fill:none;stroke:#ff0000;stroke-linejoin:miter;stroke-width:0.5;"/>
   </g>
   <g id="patch_11">
    <path clip-path="url(#pf6a28d3ac2)" d="M 242.799395 40.422508 
C 354.537052 40.422508 403.354474 110.63966 403.354474 171.66952 
C 403.354474 235.324321 354.537052 302.916533 242.799395 302.916533 
C 129.976908 302.916533 81.159485 235.324321 81.159485 171.66952 
C 81.159485 110.63966 129.976908 40.422508 242.799395 40.422508 
" style="fill:none;stroke:#0000ff;stroke-linejoin:miter;stroke-width:0.5;"/>
   </g>
   <g id="[&quot;g_s&quot;:1,&quot;g_t&quot;:1,&quot;coords&quot;:[[250.0, -307.0],[251.0, -307.0]],&quot;certainty&quot;:10]">
    <path clip-path="url(#pf6a28d3ac2)" d="M 241.714564 44.031801 
C 243.296918 44.031801 244.814675 43.651503 245.933569 42.974663 
C 247.052462 42.297824 247.681138 41.379704 247.681138 40.422508 
C 247.681138 39.465312 247.052462 38.547192 245.933569 37.870353 
C 244.814675 37.193513 243.296918 36.813215 241.714564 36.813215 
C 240.13221 36.813215 238.614452 37.193513 237.495559 37.870353 
C 236.376666 38.547192 235.74799 39.465312 235.74799 40.422508 
C 235.74799 41.379704 236.376666 42.297824 237.495559 42.974663 
C 238.614452 43.651503 240.13221 44.031801 241.714564 44.031801 
z
" style="fill:#0000ff;opacity:0.2;stroke:#0000ff;stroke-linejoin:miter;stroke-width:2;"/>
   </g>
   <g id="[&quot;g_s&quot;:1,&quot;g_t&quot;:1,&quot;coords&quot;:[[251.0, -307.0],[250.0, -307.0]],&quot;certainty&quot;:10]">
    <path clip-path="url(#pf6a28d3ac2)" d="M 242.799395 44.031801 
C 244.381749 44.031801 245.899507 43.651503 247.0184 42.974663 
C 248.137293 42.297824 248.765969 41.379704 248.765969 40.422508 
C 248.765969 39.465312 248.137293 38.547192 247.0184 37.870353 
C 245.899507 37.193513 244.381749 36.813215 242.799395 36.813215 
C 241.217042 36.813215 239.699284 37.193513 238.580391 37.870353 
C 237.461497 38.547192 236.832822 39.465312 236.832822 40.422508 
C 236.832822 41.379704 237.461497 42.297824 238.580391 42.974663 
C 239.699284 43.651503 241.217042 44.031801 242.799395 44.031801 
z
" style="fill:#ff0000;opacity:0.2;stroke:#ff0000;stroke-linejoin:miter;stroke-width:2;"/>
   </g>
   <g id="patch_12">
    <path d="M 241.714564 40.422508 
Q 242.25698 40.422508 240.854852 40.422508 
" style="fill:none;opacity:0.5;stroke:#0000ff;stroke-linecap:round;stroke-width:2.75;"/>
    <path d="M 239.354852 38.922508 
L 240.854852 40.422508 
L 239.354852 41.922508 
" style="fill:none;opacity:0.5;stroke:#0000ff;stroke-linecap:round;stroke-width:2.75;"/>
   </g>
   <g id="[&quot;g_s&quot;:2,&quot;g_t&quot;:2,&quot;coords&quot;:[[416.0, -507.0],[399.0, -507.0]],&quot;certainty&quot;:12]">
    <path clip-path="url(#pf6a28d3ac2)" d="M 421.796612 175.935048 
C 423.666666 175.935048 425.46038 175.485605 426.782708 174.685704 
C 428.105036 173.885803 428.848017 172.800752 428.848017 171.66952 
C 428.848017 170.538289 428.105036 169.453238 426.782708 168.653337 
C 425.46038 167.853435 423.666666 167.403993 421.796612 167.403993 
C 419.926557 167.403993 418.132843 167.853435 416.810515 168.653337 
C 415.488187 169.453238 414.745206 170.538289 414.745206 171.66952 
C 414.745206 172.800752 415.488187 173.885803 416.810515 174.685704 
C 418.132843 175.485605 419.926557 175.935048 421.796612 175.935048 
z
" style="fill:#0000ff;opacity:0.2;stroke:#0000ff;stroke-linejoin:miter;stroke-width:2;"/>
   </g>
   <g id="[&quot;g_s&quot;:2,&quot;g_t&quot;:2,&quot;coords&quot;:[[399.0, -507.0],[416.0, -507.0]],&quot;certainty&quot;:12]">
    <path clip-path="url(#pf6a28d3ac2)" d="M 403.354474 175.935048 
C 405.224529 175.935048 407.018242 175.485605 408.340571 174.685704 
C 409.662899 173.885803 410.40588 172.800752 410.40588 171.66952 
C 410.40588 170.538289 409.662899 169.453238 408.340571 168.653337 
C 407.018242 167.853435 405.224529 167.403993 403.354474 167.403993 
C 401.48442 167.403993 399.690706 167.853435 398.368378 168.653337 
C 397.046049 169.453238 396.303069 170.538289 396.303069 171.66952 
C 396.303069 172.800752 397.046049 173.885803 398.368378 174.685704 
C 399.690706 175.485605 401.48442 175.935048 403.354474 175.935048 
z
" style="fill:#ff0000;opacity:0.2;stroke:#ff0000;stroke-linejoin:miter;stroke-width:2;"/>
   </g>
   <g id="patch_13">
    <path d="M 421.796612 171.66952 
Q 413.577344 171.66952 407.656173 171.66952 
" style="fill:none;opacity:0.5;stroke:#0000ff;stroke-linecap:round;stroke-width:3.25;"/>
    <path d="M 409.156173 173.16952 
L 407.656173 171.66952 
L 409.156173 170.16952 
" style="fill:none;opacity:0.5;stroke:#0000ff;stroke-linecap:round;stroke-width:3.25;"/>
   </g>
   <g id="[&quot;g_s&quot;:3,&quot;g_t&quot;:3,&quot;coords&quot;:[[250.0, -707.0],[251.0, -707.0]],&quot;certainty&quot;:11]">
    <path clip-path="url(#pf6a28d3ac2)" d="M 241.714564 306.853943 
C 243.440768 306.853943 245.096504 306.439073 246.317115 305.700702 
C 247.537725 304.962332 248.223553 303.960746 248.223553 302.916533 
C 248.223553 301.872319 247.537725 300.870734 246.317115 300.132363 
C 245.096504 299.393993 243.440768 298.979122 241.714564 298.979122 
C 239.98836 298.979122 238.332624 299.393993 237.112013 300.132363 
C 235.891402 300.870734 235.205574 301.872319 235.205574 302.916533 
C 235.205574 303.960746 235.891402 304.962332 237.112013 305.700702 
C 238.332624 306.439073 239.98836 306.853943 241.714564 306.853943 
z
" style="fill:#0000ff;opacity:0.2;stroke:#0000ff;stroke-linejoin:miter;stroke-width:2;"/>
   </g>
   <g id="[&quot;g_s&quot;:3,&quot;g_t&quot;:3,&quot;coords&quot;:[[251.0, -707.0],[250.0, -707.0]],&quot;certainty&quot;:11]">
    <path clip-path="url(#pf6a28d3ac2)" d="M 242.799395 306.853943 
C 244.5256 306.853943 246.181335 306.439073 247.401946 305.700702 
C 248.622557 304.962332 249.308385 303.960746 249.308385 302.916533 
C 249.308385 301.872319 248.622557 300.870734 247.401946 300.132363 
C 246.181335 299.393993 244.5256 298.979122 242.799395 298.979122 
C 241.073191 298.979122 239.417455 299.393993 238.196845 300.132363 
C 236.976234 300.870734 236.290406 301.872319 236.290406 302.916533 
C 236.290406 303.960746 236.976234 304.962332 238.196845 305.700702 
C 239.417455 306.439073 241.073191 306.853943 242.799395 306.853943 
z
" style="fill:#ff0000;opacity:0.2;stroke:#ff0000;stroke-linejoin:miter;stroke-width:2;"/>
   </g>
   <g id="patch_14">
    <path d="M 241.714564 302.916533 
Q 242.25698 302.916533 240.678075 302.916533 
" style="fill:none;opacity:0.5;stroke:#0000ff;stroke-linecap:round;stroke-width:3;"/>
    <path d="M 239.178075 301.416533 
L 240.678075 302.916533 
L 239.178075 304.416533 
" style="fill:none;opacity:0.5;stroke:#0000ff;stroke-linecap:round;stroke-width:3;"/>
   </g>
   <g id="[&quot;g_s&quot;:4,&quot;g_t&quot;:4,&quot;coords&quot;:[[85.0, -507.0],[102.0, -507.0]],&quot;certainty&quot;:11]">
    <path clip-path="url(#pf6a28d3ac2)" d="M 62.717348 175.606931 
C 64.443552 175.606931 66.099288 175.19206 67.319898 174.45369 
C 68.540509 173.71532 69.226337 172.713734 69.226337 171.66952 
C 69.226337 170.625307 68.540509 169.623721 67.319898 168.885351 
C 66.099288 168.14698 64.443552 167.73211 62.717348 167.73211 
C 60.991143 167.73211 59.335408 168.14698 58.114797 168.885351 
C 56.894186 169.623721 56.208358 170.625307 56.208358 171.66952 
C 56.208358 172.713734 56.894186 173.71532 58.114797 174.45369 
C 59.335408 175.19206 60.991143 175.606931 62.717348 175.606931 
z
" style="fill:#0000ff;opacity:0.2;stroke:#0000ff;stroke-linejoin:miter;stroke-width:2;"/>
   </g>
   <g id="[&quot;g_s&quot;:4,&quot;g_t&quot;:4,&quot;coords&quot;:[[102.0, -507.0],[85.0, -507.0]],&quot;certainty&quot;:11]">
    <path clip-path="url(#pf6a28d3ac2)" d="M 81.159485 175.606931 
C 82.885689 175.606931 84.541425 175.19206 85.762036 174.45369 
C 86.982647 173.71532 87.668475 172.713734 87.668475 171.66952 
C 87.668475 170.625307 86.982647 169.623721 85.762036 168.885351 
C 84.541425 168.14698 82.885689 167.73211 81.159485 167.73211 
C 79.433281 167.73211 77.777545 168.14698 76.556934 168.885351 
C 75.336324 169.623721 74.650495 170.625307 74.650495 171.66952 
C 74.650495 172.713734 75.336324 173.71532 76.556934 174.45369 
C 77.777545 175.19206 79.433281 175.606931 81.159485 175.606931 
z
" style="fill:#ff0000;opacity:0.2;stroke:#ff0000;stroke-linejoin:miter;stroke-width:2;"/>
   </g>
   <g id="patch_15">
    <path d="M 62.717348 171.66952 
Q 70.936616 171.66952 77.034563 171.66952 
" style="fill:none;opacity:0.5;stroke:#0000ff;stroke-linecap:round;stroke-width:3;"/>
    <path d="M 75.534563 170.16952 
L 77.034563 171.66952 
L 75.534563 173.16952 
" style="fill:none;opacity:0.5;stroke:#0000ff;stroke-linecap:round;stroke-width:3;"/>
   </g>
   <g id="[&quot;g_s&quot;:1,&quot;g_t&quot;:1,&quot;coords&quot;:[[251.0, -307.0],[250.0, -307.0]],&quot;certainty&quot;:10]">
    <path clip-path="url(#pf6a28d3ac2)" d="M 242.799395 44.031801 
C 244.381749 44.031801 245.899507 43.651503 247.0184 42.974663 
C 248.137293 42.297824 248.765969 41.379704 248.765969 40.422508 
C 248.765969 39.465312 248.137293 38.547192 247.0184 37.870353 
C 245.899507 37.193513 244.381749 36.813215 242.799395 36.813215 
C 241.217042 36.813215 239.699284 37.193513 238.580391 37.870353 
C 237.461497 38.547192 236.832822 39.465312 236.832822 40.422508 
C 236.832822 41.379704 237.461497 42.297824 238.580391 42.974663 
C 239.699284 43.651503 241.217042 44.031801 242.799395 44.031801 
z
" style="fill:#0000ff;opacity:0.2;stroke:#0000ff;stroke-linejoin:miter;stroke-width:2;"/>
   </g>
   <g id="[&quot;g_s&quot;:1,&quot;g_t&quot;:1,&quot;coords&quot;:[[250.0, -307.0],[251.0, -307.0]],&quot;certainty&quot;:10]">
    <path clip-path="url(#pf6a28d3ac2)" d="M 241.714564 44.031801 
C 243.296918 44.031801 244.814675 43.651503 245.933569 42.974663 
C 247.052462 42.297824 247.681138 41.379704 247.681138 40.422508 
C 247.681138 39.465312 247.052462 38.547192 245.933569 37.870353 
C 244.814675 37.193513 243.296918 36.813215 241.714564 36.813215 
C 240.13221 36.813215 238.614452 37.193513 237.495559 37.870353 
C 236.376666 38.547192 235.74799 39.465312 235.74799 40.422508 
C 235.74799 41.379704 236.376666 42.297824 237.495559 42.974663 
C 238.614452 43.651503 240.13221 44.031801 241.714564 44.031801 
z
" style="fill:#ff0000;opacity:0.2;stroke:#ff0000;stroke-linejoin:miter;stroke-width:2;"/>
   </g>
   <g id="patch_16">
    <path d="M 242.799395 40.422508 
Q 242.25698 40.422508 243.659107 40.422508 
" style="fill:none;opacity:0.5;stroke:#ff0000;stroke-linecap:round;stroke-width:2.75;"/>
    <path d="M 245.159107 41.922508 
L 243.659107 40.422508 
L 245.159107 38.922508 
" style="fill:none;opacity:0.5;stroke:#ff0000;stroke-linecap:round;stroke-width:2.75;"/>
   </g>
   <g id="[&quot;g_s&quot;:2,&quot;g_t&quot;:2,&quot;coords&quot;:[[399.0, -507.0],[416.0, -507.0]],&quot;certainty&quot;:12]">
    <path clip-path="url(#pf6a28d3ac2)" d="M 403.354474 175.935048 
C 405.224529 175.935048 407.018242 175.485605 408.340571 174.685704 
C 409.662899 173.885803 410.40588 172.800752 410.40588 171.66952 
C 410.40588 170.538289 409.662899 169.453238 408.340571 168.653337 
C 407.018242 167.853435 405.224529 167.403993 403.354474 167.403993 
C 401.48442 167.403993 399.690706 167.853435 398.368378 168.653337 
C 397.046049 169.453238 396.303069 170.538289 396.303069 171.66952 
C 396.303069 172.800752 397.046049 173.885803 398.368378 174.685704 
C 399.690706 175.485605 401.48442 175.935048 403.354474 175.935048 
z
" style="fill:#0000ff;opacity:0.2;stroke:#0000ff;stroke-linejoin:miter;stroke-width:2;"/>
   </g>
   <g id="[&quot;g_s&quot;:2,&quot;g_t&quot;:2,&quot;coords&quot;:[[416.0, -507.0],[399.0, -507.0]],&quot;certainty&quot;:12]">
    <path clip-path="url(#pf6a28d3ac2)" d="M 421.796612 175.935048 
C 423.666666 175.935048 425.46038 175.485605 426.782708 174.685704 
C 428.105036 173.885803 428.848017 172.800752 428.848017 171.66952 
C 428.848017 170.538289 428.105036 169.453238 426.782708 168.653337 
C 425.46038 167.853435 423.666666 167.403993 421.796612 167.403993 
C 419.926557 167.403993 418.132843 167.853435 416.810515 168.653337 
C 415.488187 169.453238 414.745206 170.538289 414.745206 171.66952 
C 414.745206 172.800752 415.488187 173.885803 416.810515 174.685704 
C 418.132843 175.485605 419.926557 175.935048 421.796612 175.935048 
z
" style="fill:#ff0000;opacity:0.2;stroke:#ff0000;stroke-linejoin:miter;stroke-width:2;"/>
   </g>
   <g id="patch_17">
    <path d="M 403.354474 171.66952 
Q 411.573742 171.66952 417.494913 171.66952 
" style="fill:none;opacity:0.5;stroke:#ff0000;stroke-linecap:round;stroke-width:3.25;"/>
    <path d="M 415.994913 170.16952 
L 417.494913 171.66952 
L 415.994913 173.16952 
" style="fill:none;opacity:0.5;stroke:#ff0000;stroke-linecap:round;stroke-width:3.25;"/>
   </g>
   <g id="[&quot;g_s&quot;:3,&quot;g_t&quot;:3,&quot;coords&quot;:[[251.0, -707.0],[250.0, -707.0]],&quot;certainty&quot;:11]">
    <path clip-path="url(#pf6a28d3ac2)" d="M 242.799395 306.853943 
C 244.5256 306.853943 246.181335 306.439073 247.401946 305.700702 
C 248.622557 304.962332 249.308385 303.960746 249.308385 302.916533 
C 249.308385 301.872319 248.622557 300.870734 247.401946 300.132363 
C 246.181335 299.393993 244.5256 298.979122 242.799395 298.979122 
C 241.073191 298.979122 239.417455 299.393993 238.196845 300.132363 
C 236.976234 300.870734 236.290406 301.872319 236.290406 302.916533 
C 236.290406 303.960746 236.976234 304.962332 238.196845 305.700702 
C 239.417455 306.439073 241.073191 306.853943 242.799395 306.853943 
z
" style="fill:#0000ff;opacity:0.2;stroke:#0000ff;stroke-linejoin:miter;stroke-width:2;"/>
   </g>
   <g id="[&quot;g_s&quot;:3,&quot;g_t&quot;:3,&quot;coords&quot;:[[250.0, -707.0],[251.0, -707.0]],&quot;certainty&quot;:11]">
    <path clip-path="url(#pf6a28d3ac2)" d="M 241.714564 306.853943 
C 243.440768 306.853943 245.096504 306.439073 246.317115 305.700702 
C 247.537725 304.962332 248.223553 303.960746 248.223553 302.916533 
C 248.223553 301.872319 247.537725 300.870734 246.317115 300.132363 
C 245.096504 299.393993 243.440768 298.979122 241.714564 298.979122 
C 239.98836 298.979122 238.332624 299.393993 237.112013 300.132363 
C 235.891402 300.870734 235.205574 301.872319 235.205574 302.916533 
C 235.205574 303.960746 235.891402 304.962332 237.112013 305.700702 
C 238.332624 306.439073 239.98836 306.853943 241.714564 306.853943 
z
" style="fill:#ff0000;opacity:0.2;stroke:#ff0000;stroke-linejoin:miter;stroke-width:2;"/>
   </g>
   <g id="patch_18">
    <path d="M 242.799395 302.916533 
Q 242.25698 302.916533 243.835884 302.916533 
" style="fill:none;opacity:0.5;stroke:#ff0000;stroke-linecap:round;stroke-width:3;"/>
    <path d="M 245.335884 304.416533 
L 243.835884 302.916533 
L 245.335884 301.416533 
" style="fill:none;opacity:0.5;stroke:#ff0000;stroke-linecap:round;stroke-width:3;"/>
   </g>
   <g id="[&quot;g_s&quot;:4,&quot;g_t&quot;:4,&quot;coords&quot;:[[102.0, -507.0],[85.0, -507.0]],&quot;certainty&quot;:11]">
    <path clip-path="url(#pf6a28d3ac2)" d="M 81.159485 175.606931 
C 82.885689 175.606931 84.541425 175.19206 85.762036 174.45369 
C 86.982647 173.71532 87.668475 172.713734 87.668475 171.66952 
C 87.668475 170.625307 86.982647 169.623721 85.762036 168.885351 
C 84.541425 168.14698 82.885689 167.73211 81.159485 167.73211 
C 79.433281 167.73211 77.777545 168.14698 76.556934 168.885351 
C 75.336324 169.623721 74.650495 170.625307 74.650495 171.66952 
C 74.650495 172.713734 75.336324 173.71532 76.556934 174.45369 
C 77.777545 175.19206 79.433281 175.606931 81.159485 175.606931 
z
" style="fill:#0000ff;opacity:0.2;stroke:#0000ff;stroke-linejoin:miter;stroke-width:2;"/>
   </g>
   <g id="[&quot;g_s&quot;:4,&quot;g_t&quot;:4,&quot;coords&quot;:[[85.0, -507.0],[102.0, -507.0]],&quot;certainty&quot;:11]">
    <path clip-path="url(#pf6a28d3ac2)" d="M 62.717348 175.606931 
C 64.443552 175.606931 66.099288 175.19206 67.319898 174.45369 
C 68.540509 173.71532 69.226337 172.713734 69.226337 171.66952 
C 69.226337 170.625307 68.540509 169.623721 67.319898 168.885351 
C 66.099288 168.14698 64.443552 167.73211 62.717348 167.73211 
C 60.991143 167.73211 59.335408 168.14698 58.114797 168.885351 
C 56.894186 169.623721 56.208358 170.625307 56.208358 171.66952 
C 56.208358 172.713734 56.894186 173.71532 58.114797 174.45369 
C 59.335408 175.19206 60.991143 175.606931 62.717348 175.606931 
z
" style="fill:#ff0000;opacity:0.2;stroke:#ff0000;stroke-linejoin:miter;stroke-width:2;"/>
   </g>
   <g id="patch_19">
    <path d="M 81.159485 171.66952 
Q 72.940217 171.66952 66.842269 171.66952 
" style="fill:none;opacity:0.5;stroke:#ff0000;stroke-linecap:round;stroke-width:3;"/>
    <path d="M 68.342269 173.16952 
L 66.842269 171.66952 
L 68.342269 170.16952 
" style="fill:none;opacity:0.5;stroke:#ff0000;stroke-linecap:round;stroke-width:3;"/>
   </g>
   <g id="patch_20">
    <path clip-path="url(#pf6a28d3ac2)" d="M 242.25698 43.703683 
C 243.695483 43.703683 245.075263 43.357958 246.092439 42.742649 
C 247.109614 42.127341 247.681138 41.292686 247.681138 40.422508 
C 247.681138 39.55233 247.109614 38.717675 246.092439 38.102367 
C 245.075263 37.487058 243.695483 37.141333 242.25698 37.141333 
C 240.818476 37.141333 239.438696 37.487058 238.421521 38.102367 
C 237.404345 38.717675 236.832822 39.55233 236.832822 40.422508 
C 236.832822 41.292686 237.404345 42.127341 238.421521 42.742649 
C 239.438696 43.357958 240.818476 43.703683 242.25698 43.703683 
z
" style="fill:#008000;opacity:0.2;stroke:#008000;stroke-linejoin:miter;stroke-width:2;"/>
   </g>
   <g id="patch_21">
    <path clip-path="url(#pf6a28d3ac2)" d="M 412.575543 174.950696 
C 414.014046 174.950696 415.393826 174.60497 416.411002 173.989662 
C 417.428177 173.374353 417.999701 172.539698 417.999701 171.66952 
C 417.999701 170.799343 417.428177 169.964688 416.411002 169.349379 
C 415.393826 168.73407 414.014046 168.388345 412.575543 168.388345 
C 411.137039 168.388345 409.75726 168.73407 408.740084 169.349379 
C 407.722908 169.964688 407.151385 170.799343 407.151385 171.66952 
C 407.151385 172.539698 407.722908 173.374353 408.740084 173.989662 
C 409.75726 174.60497 411.137039 174.950696 412.575543 174.950696 
z
" style="fill:#008000;opacity:0.2;stroke:#008000;stroke-linejoin:miter;stroke-width:2;"/>
   </g>
   <g id="patch_22">
    <path clip-path="url(#pf6a28d3ac2)" d="M 242.25698 306.197708 
C 243.695483 306.197708 245.075263 305.851983 246.092439 305.236674 
C 247.109614 304.621365 247.681138 303.786711 247.681138 302.916533 
C 247.681138 302.046355 247.109614 301.2117 246.092439 300.596391 
C 245.075263 299.981083 243.695483 299.635358 242.25698 299.635358 
C 240.818476 299.635358 239.438696 299.981083 238.421521 300.596391 
C 237.404345 301.2117 236.832822 302.046355 236.832822 302.916533 
C 236.832822 303.786711 237.404345 304.621365 238.421521 305.236674 
C 239.438696 305.851983 240.818476 306.197708 242.25698 306.197708 
z
" style="fill:#008000;opacity:0.2;stroke:#008000;stroke-linejoin:miter;stroke-width:2;"/>
   </g>
   <g id="patch_23">
    <path clip-path="url(#pf6a28d3ac2)" d="M 71.938416 174.950696 
C 73.37692 174.950696 74.7567 174.60497 75.773875 173.989662 
C 76.791051 173.374353 77.362574 172.539698 77.362574 171.66952 
C 77.362574 170.799343 76.791051 169.964688 75.773875 169.349379 
C 74.7567 168.73407 73.37692 168.388345 71.938416 168.388345 
C 70.499913 168.388345 69.120133 168.73407 68.102957 169.349379 
C 67.085782 169.964688 66.514258 170.799343 66.514258 171.66952 
C 66.514258 172.539698 67.085782 173.374353 68.102957 173.989662 
C 69.120133 174.60497 70.499913 174.950696 71.938416 174.950696 
z
" style="fill:#008000;opacity:0.2;stroke:#008000;stroke-linejoin:miter;stroke-width:2;"/>
   </g>
   <g id="patch_24">
    <path clip-path="url(#pf6a28d3ac2)" d="M 241.714564 53.547209 
C 247.468578 53.547209 252.987697 52.164308 257.0564 49.703073 
C 261.125102 47.241839 263.411196 43.90322 263.411196 40.422508 
C 263.411196 36.941797 261.125102 33.603177 257.0564 31.141943 
C 252.987697 28.680708 247.468578 27.297807 241.714564 27.297807 
C 235.96055 27.297807 230.44143 28.680708 226.372728 31.141943 
C 222.304026 33.603177 220.017932 36.941797 220.017932 40.422508 
C 220.017932 43.90322 222.304026 47.241839 226.372728 49.703073 
C 230.44143 52.164308 235.96055 53.547209 241.714564 53.547209 
z
" style="fill:none;opacity:0.2;stroke:#ff0000;stroke-linejoin:miter;stroke-width:2;"/>
   </g>
   <g id="patch_25">
    <path clip-path="url(#pf6a28d3ac2)" d="M 242.799395 53.547209 
C 248.55341 53.547209 254.072529 52.164308 258.141231 49.703073 
C 262.209934 47.241839 264.496028 43.90322 264.496028 40.422508 
C 264.496028 36.941797 262.209934 33.603177 258.141231 31.141943 
C 254.072529 28.680708 248.55341 27.297807 242.799395 27.297807 
C 237.045381 27.297807 231.526262 28.680708 227.45756 31.141943 
C 223.388857 33.603177 221.102763 36.941797 221.102763 40.422508 
C 221.102763 43.90322 223.388857 47.241839 227.45756 49.703073 
C 231.526262 52.164308 237.045381 53.547209 242.799395 53.547209 
z
" style="fill:none;opacity:0.2;stroke:#0000ff;stroke-linejoin:miter;stroke-width:2;"/>
   </g>
   <g id="patch_26">
    <path clip-path="url(#pf6a28d3ac2)" d="M 241.714564 46.984859 
C 244.591571 46.984859 247.35113 46.293408 249.385482 45.062791 
C 251.419833 43.832173 252.56288 42.162864 252.56288 40.422508 
C 252.56288 38.682152 251.419833 37.012843 249.385482 35.782225 
C 247.35113 34.551608 244.591571 33.860157 241.714564 33.860157 
C 238.837557 33.860157 236.077997 34.551608 234.043646 35.782225 
C 232.009295 37.012843 230.866248 38.682152 230.866248 40.422508 
C 230.866248 42.162864 232.009295 43.832173 234.043646 45.062791 
C 236.077997 46.293408 238.837557 46.984859 241.714564 46.984859 
z
" style="fill:none;opacity:0.2;stroke:#008000;stroke-linejoin:miter;stroke-width:2;"/>
   </g>
   <g id="patch_27">
    <path clip-path="url(#pf6a28d3ac2)" d="M 242.799395 46.984859 
C 245.676402 46.984859 248.435962 46.293408 250.470313 45.062791 
C 252.504665 43.832173 253.647712 42.162864 253.647712 40.422508 
C 253.647712 38.682152 252.504665 37.012843 250.470313 35.782225 
C 248.435962 34.551608 245.676402 33.860157 242.799395 33.860157 
C 239.922388 33.860157 237.162829 34.551608 235.128478 35.782225 
C 233.094126 37.012843 231.951079 38.682152 231.951079 40.422508 
C 231.951079 42.162864 233.094126 43.832173 235.128478 45.062791 
C 237.162829 46.293408 239.922388 46.984859 242.799395 46.984859 
z
" style="fill:none;opacity:0.2;stroke:#008000;stroke-linejoin:miter;stroke-width:2;"/>
   </g>
   <g id="patch_28">
    <path d="M 242.25698 40.422508 
Q 327.416261 106.046014 412.575543 171.66952 
" style="fill:none;opacity:0.5;stroke:#008000;stroke-linecap:round;stroke-width:2;"/>
   </g>
   <g id="patch_29">
    <path d="M 243.128777 40.422508 
Q 242.25698 40.422508 241.385182 40.422508 
" style="fill:none;opacity:0.5;stroke:#800080;stroke-linecap:round;stroke-width:2;"/>
    <path d="M 244.628777 41.922508 
L 243.128777 40.422508 
L 244.628777 38.922508 
" style="fill:none;opacity:0.5;stroke:#800080;stroke-linecap:round;stroke-width:2;"/>
    <path d="M 239.885182 38.922508 
L 241.385182 40.422508 
L 239.885182 41.922508 
" style="fill:none;opacity:0.5;stroke:#800080;stroke-linecap:round;stroke-width:2;"/>
   </g>
   <g id="patch_30">
    <path d="M 412.575543 171.66952 
Q 327.416261 237.293027 242.25698 302.916533 
" style="fill:none;opacity:0.5;stroke:#008000;stroke-linecap:round;stroke-width:2;"/>
   </g>
   <g id="patch_31">
    <path d="M 420.382398 171.66952 
Q 413.577344 171.66952 406.772289 171.66952 
" style="fill:none;opacity:0.5;stroke:#800080;stroke-linecap:round;stroke-width:2;"/>
    <path d="M 418.882398 170.16952 
L 420.382398 171.66952 
L 418.882398 173.16952 
" style="fill:none;opacity:0.5;stroke:#800080;stroke-linecap:round;stroke-width:2;"/>
    <path d="M 408.272289 173.16952 
L 406.772289 171.66952 
L 408.272289 170.16952 
" style="fill:none;opacity:0.5;stroke:#800080;stroke-linecap:round;stroke-width:2;"/>
   </g>
   <g id="patch_32">
    <path d="M 242.25698 302.916533 
Q 157.097698 237.293027 71.938416 171.66952 
" style="fill:none;opacity:0.5;stroke:#008000;stroke-linecap:round;stroke-width:2;"/>
   </g>
   <g id="patch_33">
    <path d="M 243.128777 302.916533 
Q 242.25698 302.916533 241.385182 302.916533 
" style="fill:none;opacity:0.5;stroke:#800080;stroke-linecap:round;stroke-width:2;"/>
    <path d="M 244.628777 304.416533 
L 243.128777 302.916533 
L 244.628777 301.416533 
" style="fill:none;opacity:0.5;stroke:#800080;stroke-linecap:round;stroke-width:2;"/>
    <path d="M 239.885182 301.416533 
L 241.385182 302.916533 
L 239.885182 304.416533 
" style="fill:none;opacity:0.5;stroke:#800080;stroke-linecap:round;stroke-width:2;"/>
   </g>
   <g id="patch_34">
    <path d="M 71.938416 171.66952 
Q 157.097698 106.046014 242.25698 40.422508 
" style="fill:none;opacity:0.5;stroke:#008000;stroke-linecap:round;stroke-width:2;"/>
   </g>
   <g id="patch_35">
    <path d="M 64.131561 171.66952 
Q 70.936616 171.66952 77.74167 171.66952 
" style="fill:none;opacity:0.5;stroke:#800080;stroke-linecap:round;stroke-width:2;"/>
    <path d="M 65.631561 173.16952 
L 64.131561 171.66952 
L 65.631561 170.16952 
" style="fill:none;opacity:0.5;stroke:#800080;stroke-linecap:round;stroke-width:2;"/>
    <path d="M 76.24167 170.16952 
L 77.74167 171.66952 
L 76.24167 173.16952 
" style="fill:none;opacity:0.5;stroke:#800080;stroke-linecap:round;stroke-width:2;"/>
   </g>
   <g id="patch_36">
    <path clip-path="url(#pf6a28d3ac2)" d="M 241.714564 64.04697 
C 242.289965 64.04697 242.841877 63.90868 243.248747 63.662557 
C 243.655618 63.416433 243.884227 63.082571 243.884227 62.7345 
C 243.884227 62.386429 243.655618 62.052567 243.248747 61.806444 
C 242.841877 61.56032 242.289965 61.42203 241.714564 61.42203 
C 241.139162 61.42203 240.58725 61.56032 240.18038 61.806444 
C 239.77351 62.052567 239.544901 62.386429 239.544901 62.7345 
C 239.544901 63.082571 239.77351 63.416433 240.18038 63.662557 
C 240.58725 63.90868 241.139162 64.04697 241.714564 64.04697 
z
" style="fill:#ff0000;opacity:0.2;stroke:#ff0000;stroke-linejoin:miter;stroke-width:2;"/>
   </g>
   <g id="patch_37">
    <path clip-path="url(#pf6a28d3ac2)" d="M 299.210639 172.981991 
C 299.786041 172.981991 300.337953 172.8437 300.744823 172.597577 
C 301.151693 172.351453 301.380303 172.017592 301.380303 171.66952 
C 301.380303 171.321449 301.151693 170.987587 300.744823 170.741464 
C 300.337953 170.49534 299.786041 170.35705 299.210639 170.35705 
C 298.635238 170.35705 298.083326 170.49534 297.676456 170.741464 
C 297.269585 170.987587 297.040976 171.321449 297.040976 171.66952 
C 297.040976 172.017592 297.269585 172.351453 297.676456 172.597577 
C 298.083326 172.8437 298.635238 172.981991 299.210639 172.981991 
z
" style="fill:#ff0000;opacity:0.2;stroke:#ff0000;stroke-linejoin:miter;stroke-width:2;"/>
   </g>
   <g id="patch_38">
    <path clip-path="url(#pf6a28d3ac2)" d="M 241.714564 281.917011 
C 242.289965 281.917011 242.841877 281.778721 243.248747 281.532597 
C 243.655618 281.286474 243.884227 280.952612 243.884227 280.604541 
C 243.884227 280.25647 243.655618 279.922608 243.248747 279.676484 
C 242.841877 279.430361 242.289965 279.292071 241.714564 279.292071 
C 241.139162 279.292071 240.58725 279.430361 240.18038 279.676484 
C 239.77351 279.922608 239.544901 280.25647 239.544901 280.604541 
C 239.544901 280.952612 239.77351 281.286474 240.18038 281.532597 
C 240.58725 281.778721 241.139162 281.917011 241.714564 281.917011 
z
" style="fill:#ff0000;opacity:0.2;stroke:#ff0000;stroke-linejoin:miter;stroke-width:2;"/>
   </g>
   <g id="patch_39">
    <path clip-path="url(#pf6a28d3ac2)" d="M 185.30332 172.981991 
C 185.878721 172.981991 186.430633 172.8437 186.837503 172.597577 
C 187.244374 172.351453 187.472983 172.017592 187.472983 171.66952 
C 187.472983 171.321449 187.244374 170.987587 186.837503 170.741464 
C 186.430633 170.49534 185.878721 170.35705 185.30332 170.35705 
C 184.727918 170.35705 184.176007 170.49534 183.769136 170.741464 
C 183.362266 170.987587 183.133657 171.321449 183.133657 171.66952 
C 183.133657 172.017592 183.362266 172.351453 183.769136 172.597577 
C 184.176007 172.8437 184.727918 172.981991 185.30332 172.981991 
z
" style="fill:#ff0000;opacity:0.2;stroke:#ff0000;stroke-linejoin:miter;stroke-width:2;"/>
   </g>
   <g id="patch_40">
    <path clip-path="url(#pf6a28d3ac2)" d="M 242.799395 58.79709 
C 243.374797 58.79709 243.926709 58.6588 244.333579 58.412676 
C 244.740449 58.166553 244.969059 57.832691 244.969059 57.48462 
C 244.969059 57.136549 244.740449 56.802687 244.333579 56.556563 
C 243.926709 56.31044 243.374797 56.17215 242.799395 56.17215 
C 242.223994 56.17215 241.672082 56.31044 241.265212 56.556563 
C 240.858342 56.802687 240.629732 57.136549 240.629732 57.48462 
C 240.629732 57.832691 240.858342 58.166553 241.265212 58.412676 
C 241.672082 58.6588 242.223994 58.79709 242.799395 58.79709 
z
" style="fill:#0000ff;opacity:0.2;stroke:#0000ff;stroke-linejoin:miter;stroke-width:2;"/>
   </g>
   <g id="patch_41">
    <path clip-path="url(#pf6a28d3ac2)" d="M 321.992103 174.294461 
C 322.567505 174.294461 323.119416 174.156171 323.526287 173.910047 
C 323.933157 173.663924 324.161766 173.330062 324.161766 172.981991 
C 324.161766 172.633919 323.933157 172.300057 323.526287 172.053934 
C 323.119416 171.807811 322.567505 171.66952 321.992103 171.66952 
C 321.416702 171.66952 320.86479 171.807811 320.45792 172.053934 
C 320.051049 172.300057 319.82244 172.633919 319.82244 172.981991 
C 319.82244 173.330062 320.051049 173.663924 320.45792 173.910047 
C 320.86479 174.156171 321.416702 174.294461 321.992103 174.294461 
z
" style="fill:#0000ff;opacity:0.2;stroke:#0000ff;stroke-linejoin:miter;stroke-width:2;"/>
   </g>
   <g id="patch_42">
    <path clip-path="url(#pf6a28d3ac2)" d="M 242.799395 287.166891 
C 243.374797 287.166891 243.926709 287.028601 244.333579 286.782478 
C 244.740449 286.536354 244.969059 286.202492 244.969059 285.854421 
C 244.969059 285.50635 244.740449 285.172488 244.333579 284.926365 
C 243.926709 284.680241 243.374797 284.541951 242.799395 284.541951 
C 242.223994 284.541951 241.672082 284.680241 241.265212 284.926365 
C 240.858342 285.172488 240.629732 285.50635 240.629732 285.854421 
C 240.629732 286.202492 240.858342 286.536354 241.265212 286.782478 
C 241.672082 287.028601 242.223994 287.166891 242.799395 287.166891 
z
" style="fill:#0000ff;opacity:0.2;stroke:#0000ff;stroke-linejoin:miter;stroke-width:2;"/>
   </g>
   <g id="patch_43">
    <path clip-path="url(#pf6a28d3ac2)" d="M 162.521856 174.294461 
C 163.097257 174.294461 163.649169 174.156171 164.05604 173.910047 
C 164.46291 173.663924 164.691519 173.330062 164.691519 172.981991 
C 164.691519 172.633919 164.46291 172.300057 164.05604 172.053934 
C 163.649169 171.807811 163.097257 171.66952 162.521856 171.66952 
C 161.946455 171.66952 161.394543 171.807811 160.987672 172.053934 
C 160.580802 172.300057 160.352193 172.633919 160.352193 172.981991 
C 160.352193 173.330062 160.580802 173.663924 160.987672 173.910047 
C 161.394543 174.156171 161.946455 174.294461 162.521856 174.294461 
z
" style="fill:#0000ff;opacity:0.2;stroke:#0000ff;stroke-linejoin:miter;stroke-width:2;"/>
   </g>
   <g id="patch_44">
    <path clip-path="url(#pf6a28d3ac2)" d="M 241.714564 62.7345 
C 290.531986 62.7345 299.210639 135.576592 299.210639 171.66952 
C 299.210639 206.449979 290.531986 280.604541 241.714564 280.604541 
C 193.981973 280.604541 185.30332 206.449979 185.30332 171.66952 
C 185.30332 135.576592 193.981973 62.7345 241.714564 62.7345 
" style="fill:none;stroke:#ff0000;stroke-linejoin:miter;stroke-width:0.5;"/>
   </g>
   <g id="patch_45">
    <path clip-path="url(#pf6a28d3ac2)" d="M 242.799395 57.48462 
C 312.228619 57.48462 321.992103 139.514002 321.992103 172.981991 
C 321.992103 206.449979 316.567945 285.854421 242.799395 285.854421 
C 167.946014 285.854421 162.521856 206.449979 162.521856 172.981991 
C 162.521856 139.514002 163.606688 57.48462 242.799395 57.48462 
" style="fill:none;stroke:#0000ff;stroke-linejoin:miter;stroke-width:0.5;"/>
   </g>
   <g id="[&quot;g_s&quot;:1,&quot;g_t&quot;:1,&quot;coords&quot;:[[250.0, -341.0],[251.0, -333.0]],&quot;certainty&quot;:10]">
    <path clip-path="url(#pf6a28d3ac2)" d="M 241.714564 66.343793 
C 243.296918 66.343793 244.814675 65.963495 245.933569 65.286656 
C 247.052462 64.609816 247.681138 63.691696 247.681138 62.7345 
C 247.681138 61.777305 247.052462 60.859184 245.933569 60.182345 
C 244.814675 59.505505 243.296918 59.125207 241.714564 59.125207 
C 240.13221 59.125207 238.614452 59.505505 237.495559 60.182345 
C 236.376666 60.859184 235.74799 61.777305 235.74799 62.7345 
C 235.74799 63.691696 236.376666 64.609816 237.495559 65.286656 
C 238.614452 65.963495 240.13221 66.343793 241.714564 66.343793 
z
" style="fill:#0000ff;opacity:0.2;stroke:#0000ff;stroke-linejoin:miter;stroke-width:2;"/>
   </g>
   <g id="[&quot;g_s&quot;:1,&quot;g_t&quot;:1,&quot;coords&quot;:[[251.0, -333.0],[250.0, -341.0]],&quot;certainty&quot;:10]">
    <path clip-path="url(#pf6a28d3ac2)" d="M 242.799395 61.093913 
C 244.381749 61.093913 245.899507 60.713615 247.0184 60.036775 
C 248.137293 59.359936 248.765969 58.441815 248.765969 57.48462 
C 248.765969 56.527424 248.137293 55.609304 247.0184 54.932464 
C 245.899507 54.255625 244.381749 53.875327 242.799395 53.875327 
C 241.217042 53.875327 239.699284 54.255625 238.580391 54.932464 
C 237.461497 55.609304 236.832822 56.527424 236.832822 57.48462 
C 236.832822 58.441815 237.461497 59.359936 238.580391 60.036775 
C 239.699284 60.713615 241.217042 61.093913 242.799395 61.093913 
z
" style="fill:#ff0000;opacity:0.2;stroke:#ff0000;stroke-linejoin:miter;stroke-width:2;"/>
   </g>
   <g id="patch_46">
    <path d="M 241.714564 62.7345 
Q 242.054368 61.090067 242.000667 61.349946 
" style="fill:none;opacity:0.5;stroke:#0000ff;stroke-linecap:round;stroke-width:2.75;"/>
    <path d="M 240.228155 62.515366 
L 242.000667 61.349946 
L 243.166087 63.122458 
" style="fill:none;opacity:0.5;stroke:#0000ff;stroke-linecap:round;stroke-width:2.75;"/>
   </g>
   <g id="[&quot;g_s&quot;:2,&quot;g_t&quot;:2,&quot;coords&quot;:[[303.0, -507.0],[324.0, -509.0]],&quot;certainty&quot;:12]">
    <path clip-path="url(#pf6a28d3ac2)" d="M 299.210639 175.935048 
C 301.080694 175.935048 302.874408 175.485605 304.196736 174.685704 
C 305.519064 173.885803 306.262045 172.800752 306.262045 171.66952 
C 306.262045 170.538289 305.519064 169.453238 304.196736 168.653337 
C 302.874408 167.853435 301.080694 167.403993 299.210639 167.403993 
C 297.340585 167.403993 295.546871 167.853435 294.224543 168.653337 
C 292.902214 169.453238 292.159234 170.538289 292.159234 171.66952 
C 292.159234 172.800752 292.902214 173.885803 294.224543 174.685704 
C 295.546871 175.485605 297.340585 175.935048 299.210639 175.935048 
z
" style="fill:#0000ff;opacity:0.2;stroke:#0000ff;stroke-linejoin:miter;stroke-width:2;"/>
   </g>
   <g id="[&quot;g_s&quot;:2,&quot;g_t&quot;:2,&quot;coords&quot;:[[324.0, -509.0],[303.0, -507.0]],&quot;certainty&quot;:12]">
    <path clip-path="url(#pf6a28d3ac2)" d="M 321.992103 177.247518 
C 323.862158 177.247518 325.655872 176.798076 326.9782 175.998174 
C 328.300528 175.198273 329.043509 174.113222 329.043509 172.981991 
C 329.043509 171.850759 328.300528 170.765708 326.9782 169.965807 
C 325.655872 169.165906 323.862158 168.716463 321.992103 168.716463 
C 320.122049 168.716463 318.328335 169.165906 317.006007 169.965807 
C 315.683678 170.765708 314.940698 171.850759 314.940698 172.981991 
C 314.940698 174.113222 315.683678 175.198273 317.006007 175.998174 
C 318.328335 176.798076 320.122049 177.247518 321.992103 177.247518 
z
" style="fill:#ff0000;opacity:0.2;stroke:#ff0000;stroke-linejoin:miter;stroke-width:2;"/>
   </g>
   <g id="patch_47">
    <path d="M 299.210639 171.66952 
Q 309.604404 172.268319 317.703876 172.73494 
" style="fill:none;opacity:0.5;stroke:#0000ff;stroke-linecap:round;stroke-width:3.25;"/>
    <path d="M 316.292633 171.151149 
L 317.703876 172.73494 
L 316.120085 174.146183 
" style="fill:none;opacity:0.5;stroke:#0000ff;stroke-linecap:round;stroke-width:3.25;"/>
   </g>
   <g id="[&quot;g_s&quot;:3,&quot;g_t&quot;:3,&quot;coords&quot;:[[250.0, -673.0],[251.0, -681.0]],&quot;certainty&quot;:11]">
    <path clip-path="url(#pf6a28d3ac2)" d="M 241.714564 284.541951 
C 243.440768 284.541951 245.096504 284.127081 246.317115 283.38871 
C 247.537725 282.65034 248.223553 281.648754 248.223553 280.604541 
C 248.223553 279.560327 247.537725 278.558742 246.317115 277.820371 
C 245.096504 277.082001 243.440768 276.66713 241.714564 276.66713 
C 239.98836 276.66713 238.332624 277.082001 237.112013 277.820371 
C 235.891402 278.558742 235.205574 279.560327 235.205574 280.604541 
C 235.205574 281.648754 235.891402 282.65034 237.112013 283.38871 
C 238.332624 284.127081 239.98836 284.541951 241.714564 284.541951 
z
" style="fill:#0000ff;opacity:0.2;stroke:#0000ff;stroke-linejoin:miter;stroke-width:2;"/>
   </g>
   <g id="[&quot;g_s&quot;:3,&quot;g_t&quot;:3,&quot;coords&quot;:[[251.0, -681.0],[250.0, -673.0]],&quot;certainty&quot;:11]">
    <path clip-path="url(#pf6a28d3ac2)" d="M 242.799395 289.791832 
C 244.5256 289.791832 246.181335 289.376961 247.401946 288.638591 
C 248.622557 287.90022 249.308385 286.898635 249.308385 285.854421 
C 249.308385 284.810208 248.622557 283.808622 247.401946 283.070252 
C 246.181335 282.331881 244.5256 281.917011 242.799395 281.917011 
C 241.073191 281.917011 239.417455 282.331881 238.196845 283.070252 
C 236.976234 283.808622 236.290406 284.810208 236.290406 285.854421 
C 236.290406 286.898635 236.976234 287.90022 238.196845 288.638591 
C 239.417455 289.376961 241.073191 289.791832 242.799395 289.791832 
z
" style="fill:#ff0000;opacity:0.2;stroke:#ff0000;stroke-linejoin:miter;stroke-width:2;"/>
   </g>
   <g id="patch_48">
    <path d="M 241.714564 280.604541 
Q 242.054368 282.248973 241.964894 281.815975 
" style="fill:none;opacity:0.5;stroke:#0000ff;stroke-linecap:round;stroke-width:3;"/>
    <path d="M 243.130313 280.043464 
L 241.964894 281.815975 
L 240.192382 280.650556 
" style="fill:none;opacity:0.5;stroke:#0000ff;stroke-linecap:round;stroke-width:3;"/>
   </g>
   <g id="[&quot;g_s&quot;:4,&quot;g_t&quot;:4,&quot;coords&quot;:[[198.0, -507.0],[177.0, -509.0]],&quot;certainty&quot;:11]">
    <path clip-path="url(#pf6a28d3ac2)" d="M 185.30332 175.606931 
C 187.029524 175.606931 188.68526 175.19206 189.905871 174.45369 
C 191.126481 173.71532 191.81231 172.713734 191.81231 171.66952 
C 191.81231 170.625307 191.126481 169.623721 189.905871 168.885351 
C 188.68526 168.14698 187.029524 167.73211 185.30332 167.73211 
C 183.577116 167.73211 181.92138 168.14698 180.700769 168.885351 
C 179.480158 169.623721 178.79433 170.625307 178.79433 171.66952 
C 178.79433 172.713734 179.480158 173.71532 180.700769 174.45369 
C 181.92138 175.19206 183.577116 175.606931 185.30332 175.606931 
z
" style="fill:#0000ff;opacity:0.2;stroke:#0000ff;stroke-linejoin:miter;stroke-width:2;"/>
   </g>
   <g id="[&quot;g_s&quot;:4,&quot;g_t&quot;:4,&quot;coords&quot;:[[177.0, -509.0],[198.0, -507.0]],&quot;certainty&quot;:11]">
    <path clip-path="url(#pf6a28d3ac2)" d="M 162.521856 176.919401 
C 164.24806 176.919401 165.903796 176.504531 167.124407 175.76616 
C 168.345018 175.02779 169.030846 174.026204 169.030846 172.981991 
C 169.030846 171.937777 168.345018 170.936191 167.124407 170.197821 
C 165.903796 169.459451 164.24806 169.04458 162.521856 169.04458 
C 160.795652 169.04458 159.139916 169.459451 157.919305 170.197821 
C 156.698695 170.936191 156.012866 171.937777 156.012866 172.981991 
C 156.012866 174.026204 156.698695 175.02779 157.919305 175.76616 
C 159.139916 176.504531 160.795652 176.919401 162.521856 176.919401 
z
" style="fill:#ff0000;opacity:0.2;stroke:#ff0000;stroke-linejoin:miter;stroke-width:2;"/>
   </g>
   <g id="patch_49">
    <path d="M 185.30332 171.66952 
Q 174.909555 172.268319 166.633599 172.745108 
" style="fill:none;opacity:0.5;stroke:#0000ff;stroke-linecap:round;stroke-width:3;"/>
    <path d="M 168.21739 174.156351 
L 166.633599 172.745108 
L 168.044842 171.161317 
" style="fill:none;opacity:0.5;stroke:#0000ff;stroke-linecap:round;stroke-width:3;"/>
   </g>
   <g id="[&quot;g_s&quot;:1,&quot;g_t&quot;:1,&quot;coords&quot;:[[251.0, -333.0],[250.0, -341.0]],&quot;certainty&quot;:10]">
    <path clip-path="url(#pf6a28d3ac2)" d="M 242.799395 61.093913 
C 244.381749 61.093913 245.899507 60.713615 247.0184 60.036775 
C 248.137293 59.359936 248.765969 58.441815 248.765969 57.48462 
C 248.765969 56.527424 248.137293 55.609304 247.0184 54.932464 
C 245.899507 54.255625 244.381749 53.875327 242.799395 53.875327 
C 241.217042 53.875327 239.699284 54.255625 238.580391 54.932464 
C 237.461497 55.609304 236.832822 56.527424 236.832822 57.48462 
C 236.832822 58.441815 237.461497 59.359936 238.580391 60.036775 
C 239.699284 60.713615 241.217042 61.093913 242.799395 61.093913 
z
" style="fill:#0000ff;opacity:0.2;stroke:#0000ff;stroke-linejoin:miter;stroke-width:2;"/>
   </g>
   <g id="[&quot;g_s&quot;:1,&quot;g_t&quot;:1,&quot;coords&quot;:[[250.0, -341.0],[251.0, -333.0]],&quot;certainty&quot;:10]">
    <path clip-path="url(#pf6a28d3ac2)" d="M 241.714564 66.343793 
C 243.296918 66.343793 244.814675 65.963495 245.933569 65.286656 
C 247.052462 64.609816 247.681138 63.691696 247.681138 62.7345 
C 247.681138 61.777305 247.052462 60.859184 245.933569 60.182345 
C 244.814675 59.505505 243.296918 59.125207 241.714564 59.125207 
C 240.13221 59.125207 238.614452 59.505505 237.495559 60.182345 
C 236.376666 60.859184 235.74799 61.777305 235.74799 62.7345 
C 235.74799 63.691696 236.376666 64.609816 237.495559 65.286656 
C 238.614452 65.963495 240.13221 66.343793 241.714564 66.343793 
z
" style="fill:#ff0000;opacity:0.2;stroke:#ff0000;stroke-linejoin:miter;stroke-width:2;"/>
   </g>
   <g id="patch_50">
    <path d="M 242.799395 57.48462 
Q 242.459591 59.129052 242.513292 58.869173 
" style="fill:none;opacity:0.5;stroke:#ff0000;stroke-linecap:round;stroke-width:2.75;"/>
    <path d="M 244.285804 57.703754 
L 242.513292 58.869173 
L 241.347873 57.096662 
" style="fill:none;opacity:0.5;stroke:#ff0000;stroke-linecap:round;stroke-width:2.75;"/>
   </g>
   <g id="[&quot;g_s&quot;:2,&quot;g_t&quot;:2,&quot;coords&quot;:[[324.0, -509.0],[303.0, -507.0]],&quot;certainty&quot;:12]">
    <path clip-path="url(#pf6a28d3ac2)" d="M 321.992103 177.247518 
C 323.862158 177.247518 325.655872 176.798076 326.9782 175.998174 
C 328.300528 175.198273 329.043509 174.113222 329.043509 172.981991 
C 329.043509 171.850759 328.300528 170.765708 326.9782 169.965807 
C 325.655872 169.165906 323.862158 168.716463 321.992103 168.716463 
C 320.122049 168.716463 318.328335 169.165906 317.006007 169.965807 
C 315.683678 170.765708 314.940698 171.850759 314.940698 172.981991 
C 314.940698 174.113222 315.683678 175.198273 317.006007 175.998174 
C 318.328335 176.798076 320.122049 177.247518 321.992103 177.247518 
z
" style="fill:#0000ff;opacity:0.2;stroke:#0000ff;stroke-linejoin:miter;stroke-width:2;"/>
   </g>
   <g id="[&quot;g_s&quot;:2,&quot;g_t&quot;:2,&quot;coords&quot;:[[303.0, -507.0],[324.0, -509.0]],&quot;certainty&quot;:12]">
    <path clip-path="url(#pf6a28d3ac2)" d="M 299.210639 175.935048 
C 301.080694 175.935048 302.874408 175.485605 304.196736 174.685704 
C 305.519064 173.885803 306.262045 172.800752 306.262045 171.66952 
C 306.262045 170.538289 305.519064 169.453238 304.196736 168.653337 
C 302.874408 167.853435 301.080694 167.403993 299.210639 167.403993 
C 297.340585 167.403993 295.546871 167.853435 294.224543 168.653337 
C 292.902214 169.453238 292.159234 170.538289 292.159234 171.66952 
C 292.159234 172.800752 292.902214 173.885803 294.224543 174.685704 
C 295.546871 175.485605 297.340585 175.935048 299.210639 175.935048 
z
" style="fill:#ff0000;opacity:0.2;stroke:#ff0000;stroke-linejoin:miter;stroke-width:2;"/>
   </g>
   <g id="patch_51">
    <path d="M 321.992103 172.981991 
Q 311.598338 172.383192 303.498866 171.916571 
" style="fill:none;opacity:0.5;stroke:#ff0000;stroke-linecap:round;stroke-width:3.25;"/>
    <path d="M 304.910109 173.500362 
L 303.498866 171.916571 
L 305.082657 170.505328 
" style="fill:none;opacity:0.5;stroke:#ff0000;stroke-linecap:round;stroke-width:3.25;"/>
   </g>
   <g id="[&quot;g_s&quot;:3,&quot;g_t&quot;:3,&quot;coords&quot;:[[251.0, -681.0],[250.0, -673.0]],&quot;certainty&quot;:11]">
    <path clip-path="url(#pf6a28d3ac2)" d="M 242.799395 289.791832 
C 244.5256 289.791832 246.181335 289.376961 247.401946 288.638591 
C 248.622557 287.90022 249.308385 286.898635 249.308385 285.854421 
C 249.308385 284.810208 248.622557 283.808622 247.401946 283.070252 
C 246.181335 282.331881 244.5256 281.917011 242.799395 281.917011 
C 241.073191 281.917011 239.417455 282.331881 238.196845 283.070252 
C 236.976234 283.808622 236.290406 284.810208 236.290406 285.854421 
C 236.290406 286.898635 236.976234 287.90022 238.196845 288.638591 
C 239.417455 289.376961 241.073191 289.791832 242.799395 289.791832 
z
" style="fill:#0000ff;opacity:0.2;stroke:#0000ff;stroke-linejoin:miter;stroke-width:2;"/>
   </g>
   <g id="[&quot;g_s&quot;:3,&quot;g_t&quot;:3,&quot;coords&quot;:[[250.0, -673.0],[251.0, -681.0]],&quot;certainty&quot;:11]">
    <path clip-path="url(#pf6a28d3ac2)" d="M 241.714564 284.541951 
C 243.440768 284.541951 245.096504 284.127081 246.317115 283.38871 
C 247.537725 282.65034 248.223553 281.648754 248.223553 280.604541 
C 248.223553 279.560327 247.537725 278.558742 246.317115 277.820371 
C 245.096504 277.082001 243.440768 276.66713 241.714564 276.66713 
C 239.98836 276.66713 238.332624 277.082001 237.112013 277.820371 
C 235.891402 278.558742 235.205574 279.560327 235.205574 280.604541 
C 235.205574 281.648754 235.891402 282.65034 237.112013 283.38871 
C 238.332624 284.127081 239.98836 284.541951 241.714564 284.541951 
z
" style="fill:#ff0000;opacity:0.2;stroke:#ff0000;stroke-linejoin:miter;stroke-width:2;"/>
   </g>
   <g id="patch_52">
    <path d="M 242.799395 285.854421 
Q 242.459591 284.209988 242.549065 284.642987 
" style="fill:none;opacity:0.5;stroke:#ff0000;stroke-linecap:round;stroke-width:3;"/>
    <path d="M 241.383646 286.415498 
L 242.549065 284.642987 
L 244.321577 285.808406 
" style="fill:none;opacity:0.5;stroke:#ff0000;stroke-linecap:round;stroke-width:3;"/>
   </g>
   <g id="[&quot;g_s&quot;:4,&quot;g_t&quot;:4,&quot;coords&quot;:[[177.0, -509.0],[198.0, -507.0]],&quot;certainty&quot;:11]">
    <path clip-path="url(#pf6a28d3ac2)" d="M 162.521856 176.919401 
C 164.24806 176.919401 165.903796 176.504531 167.124407 175.76616 
C 168.345018 175.02779 169.030846 174.026204 169.030846 172.981991 
C 169.030846 171.937777 168.345018 170.936191 167.124407 170.197821 
C 165.903796 169.459451 164.24806 169.04458 162.521856 169.04458 
C 160.795652 169.04458 159.139916 169.459451 157.919305 170.197821 
C 156.698695 170.936191 156.012866 171.937777 156.012866 172.981991 
C 156.012866 174.026204 156.698695 175.02779 157.919305 175.76616 
C 159.139916 176.504531 160.795652 176.919401 162.521856 176.919401 
z
" style="fill:#0000ff;opacity:0.2;stroke:#0000ff;stroke-linejoin:miter;stroke-width:2;"/>
   </g>
   <g id="[&quot;g_s&quot;:4,&quot;g_t&quot;:4,&quot;coords&quot;:[[198.0, -507.0],[177.0, -509.0]],&quot;certainty&quot;:11]">
    <path clip-path="url(#pf6a28d3ac2)" d="M 185.30332 175.606931 
C 187.029524 175.606931 188.68526 175.19206 189.905871 174.45369 
C 191.126481 173.71532 191.81231 172.713734 191.81231 171.66952 
C 191.81231 170.625307 191.126481 169.623721 189.905871 168.885351 
C 188.68526 168.14698 187.029524 167.73211 185.30332 167.73211 
C 183.577116 167.73211 181.92138 168.14698 180.700769 168.885351 
C 179.480158 169.623721 178.79433 170.625307 178.79433 171.66952 
C 178.79433 172.713734 179.480158 173.71532 180.700769 174.45369 
C 181.92138 175.19206 183.577116 175.606931 185.30332 175.606931 
z
" style="fill:#ff0000;opacity:0.2;stroke:#ff0000;stroke-linejoin:miter;stroke-width:2;"/>
   </g>
   <g id="patch_53">
    <path d="M 162.521856 172.981991 
Q 172.915621 172.383192 181.191577 171.906403 
" style="fill:none;opacity:0.5;stroke:#ff0000;stroke-linecap:round;stroke-width:3;"/>
    <path d="M 179.607786 170.49516 
L 181.191577 171.906403 
L 179.780334 173.490194 
" style="fill:none;opacity:0.5;stroke:#ff0000;stroke-linecap:round;stroke-width:3;"/>
   </g>
   <g id="patch_54">
    <path clip-path="url(#pf6a28d3ac2)" d="M 242.25698 63.390735 
C 243.695483 63.390735 245.075263 63.04501 246.092439 62.429701 
C 247.109614 61.814393 247.681138 60.979738 247.681138 60.10956 
C 247.681138 59.239382 247.109614 58.404727 246.092439 57.789419 
C 245.075263 57.17411 243.695483 56.828385 242.25698 56.828385 
C 240.818476 56.828385 239.438696 57.17411 238.421521 57.789419 
C 237.404345 58.404727 236.832822 59.239382 236.832822 60.10956 
C 236.832822 60.979738 237.404345 61.814393 238.421521 62.429701 
C 239.438696 63.04501 240.818476 63.390735 242.25698 63.390735 
z
" style="fill:#008000;opacity:0.2;stroke:#008000;stroke-linejoin:miter;stroke-width:2;"/>
   </g>
   <g id="patch_55">
    <path clip-path="url(#pf6a28d3ac2)" d="M 310.601371 175.606931 
C 312.039875 175.606931 313.419655 175.261205 314.43683 174.645897 
C 315.454006 174.030588 316.025529 173.195933 316.025529 172.325755 
C 316.025529 171.455578 315.454006 170.620923 314.43683 170.005614 
C 313.419655 169.390306 312.039875 169.04458 310.601371 169.04458 
C 309.162868 169.04458 307.783088 169.390306 306.765912 170.005614 
C 305.748737 170.620923 305.177213 171.455578 305.177213 172.325755 
C 305.177213 173.195933 305.748737 174.030588 306.765912 174.645897 
C 307.783088 175.261205 309.162868 175.606931 310.601371 175.606931 
z
" style="fill:#008000;opacity:0.2;stroke:#008000;stroke-linejoin:miter;stroke-width:2;"/>
   </g>
   <g id="patch_56">
    <path clip-path="url(#pf6a28d3ac2)" d="M 242.25698 286.510656 
C 243.695483 286.510656 245.075263 286.164931 246.092439 285.549622 
C 247.109614 284.934314 247.681138 284.099659 247.681138 283.229481 
C 247.681138 282.359303 247.109614 281.524648 246.092439 280.90934 
C 245.075263 280.294031 243.695483 279.948306 242.25698 279.948306 
C 240.818476 279.948306 239.438696 280.294031 238.421521 280.90934 
C 237.404345 281.524648 236.832822 282.359303 236.832822 283.229481 
C 236.832822 284.099659 237.404345 284.934314 238.421521 285.549622 
C 239.438696 286.164931 240.818476 286.510656 242.25698 286.510656 
z
" style="fill:#008000;opacity:0.2;stroke:#008000;stroke-linejoin:miter;stroke-width:2;"/>
   </g>
   <g id="patch_57">
    <path clip-path="url(#pf6a28d3ac2)" d="M 173.912588 175.606931 
C 175.351092 175.606931 176.730871 175.261205 177.748047 174.645897 
C 178.765223 174.030588 179.336746 173.195933 179.336746 172.325755 
C 179.336746 171.455578 178.765223 170.620923 177.748047 170.005614 
C 176.730871 169.390306 175.351092 169.04458 173.912588 169.04458 
C 172.474084 169.04458 171.094305 169.390306 170.077129 170.005614 
C 169.059953 170.620923 168.48843 171.455578 168.48843 172.325755 
C 168.48843 173.195933 169.059953 174.030588 170.077129 174.645897 
C 171.094305 175.261205 172.474084 175.606931 173.912588 175.606931 
z
" style="fill:#008000;opacity:0.2;stroke:#008000;stroke-linejoin:miter;stroke-width:2;"/>
   </g>
   <g id="patch_58">
    <path clip-path="url(#pf6a28d3ac2)" d="M 241.714564 75.859201 
C 247.468578 75.859201 252.987697 74.4763 257.0564 72.015065 
C 261.125102 69.553831 263.411196 66.215212 263.411196 62.7345 
C 263.411196 59.253789 261.125102 55.91517 257.0564 53.453935 
C 252.987697 50.9927 247.468578 49.609799 241.714564 49.609799 
C 235.96055 49.609799 230.44143 50.9927 226.372728 53.453935 
C 222.304026 55.91517 220.017932 59.253789 220.017932 62.7345 
C 220.017932 66.215212 222.304026 69.553831 226.372728 72.015065 
C 230.44143 74.4763 235.96055 75.859201 241.714564 75.859201 
z
" style="fill:none;opacity:0.2;stroke:#ff0000;stroke-linejoin:miter;stroke-width:2;"/>
   </g>
   <g id="patch_59">
    <path clip-path="url(#pf6a28d3ac2)" d="M 242.799395 70.609321 
C 248.55341 70.609321 254.072529 69.22642 258.141231 66.765185 
C 262.209934 64.30395 264.496028 60.965331 264.496028 57.48462 
C 264.496028 54.003908 262.209934 50.665289 258.141231 48.204054 
C 254.072529 45.74282 248.55341 44.359918 242.799395 44.359918 
C 237.045381 44.359918 231.526262 45.74282 227.45756 48.204054 
C 223.388857 50.665289 221.102763 54.003908 221.102763 57.48462 
C 221.102763 60.965331 223.388857 64.30395 227.45756 66.765185 
C 231.526262 69.22642 237.045381 70.609321 242.799395 70.609321 
z
" style="fill:none;opacity:0.2;stroke:#0000ff;stroke-linejoin:miter;stroke-width:2;"/>
   </g>
   <g id="patch_60">
    <path clip-path="url(#pf6a28d3ac2)" d="M 241.714564 69.296851 
C 244.591571 69.296851 247.35113 68.6054 249.385482 67.374783 
C 251.419833 66.144165 252.56288 64.474856 252.56288 62.7345 
C 252.56288 60.994144 251.419833 59.324835 249.385482 58.094218 
C 247.35113 56.8636 244.591571 56.17215 241.714564 56.17215 
C 238.837557 56.17215 236.077997 56.8636 234.043646 58.094218 
C 232.009295 59.324835 230.866248 60.994144 230.866248 62.7345 
C 230.866248 64.474856 232.009295 66.144165 234.043646 67.374783 
C 236.077997 68.6054 238.837557 69.296851 241.714564 69.296851 
z
" style="fill:none;opacity:0.2;stroke:#008000;stroke-linejoin:miter;stroke-width:2;"/>
   </g>
   <g id="patch_61">
    <path clip-path="url(#pf6a28d3ac2)" d="M 242.799395 64.04697 
C 245.676402 64.04697 248.435962 63.35552 250.470313 62.124902 
C 252.504665 60.894285 253.647712 59.224975 253.647712 57.48462 
C 253.647712 55.744264 252.504665 54.074954 250.470313 52.844337 
C 248.435962 51.61372 245.676402 50.922269 242.799395 50.922269 
C 239.922388 50.922269 237.162829 51.61372 235.128478 52.844337 
C 233.094126 54.074954 231.951079 55.744264 231.951079 57.48462 
C 231.951079 59.224975 233.094126 60.894285 235.128478 62.124902 
C 237.162829 63.35552 239.922388 64.04697 242.799395 64.04697 
z
" style="fill:none;opacity:0.2;stroke:#008000;stroke-linejoin:miter;stroke-width:2;"/>
   </g>
   <g id="patch_62">
    <path d="M 242.25698 60.10956 
Q 276.429175 116.217658 310.601371 172.325755 
" style="fill:none;opacity:0.5;stroke:#008000;stroke-linecap:round;stroke-width:2;"/>
   </g>
   <g id="patch_63">
    <path d="M 242.00075 61.349546 
Q 242.054368 61.090067 242.107987 60.830589 
" style="fill:none;opacity:0.5;stroke:#800080;stroke-linecap:round;stroke-width:2;"/>
    <path d="M 243.773261 60.184127 
L 242.00075 61.349546 
L 240.83533 59.577035 
" style="fill:none;opacity:0.5;stroke:#800080;stroke-linecap:round;stroke-width:2;"/>
    <path d="M 240.335475 61.996008 
L 242.107987 60.830589 
L 243.273406 62.6031 
" style="fill:none;opacity:0.5;stroke:#800080;stroke-linecap:round;stroke-width:2;"/>
   </g>
   <g id="patch_64">
    <path d="M 310.601371 172.325755 
Q 276.429175 227.777618 242.25698 283.229481 
" style="fill:none;opacity:0.5;stroke:#008000;stroke-linecap:round;stroke-width:2;"/>
   </g>
   <g id="patch_65">
    <path d="M 300.622512 171.75086 
Q 309.604404 172.268319 318.586296 172.785778 
" style="fill:none;opacity:0.5;stroke:#800080;stroke-linecap:round;stroke-width:2;"/>
    <path d="M 302.033755 173.334651 
L 300.622512 171.75086 
L 302.206303 170.339617 
" style="fill:none;opacity:0.5;stroke:#800080;stroke-linecap:round;stroke-width:2;"/>
    <path d="M 317.175053 171.201987 
L 318.586296 172.785778 
L 317.002506 174.197021 
" style="fill:none;opacity:0.5;stroke:#800080;stroke-linecap:round;stroke-width:2;"/>
   </g>
   <g id="patch_66">
    <path d="M 242.25698 283.229481 
Q 208.084784 227.777618 173.912588 172.325755 
" style="fill:none;opacity:0.5;stroke:#008000;stroke-linecap:round;stroke-width:2;"/>
   </g>
   <g id="patch_67">
    <path d="M 242.00075 281.989495 
Q 242.054368 282.248973 242.107987 282.508452 
" style="fill:none;opacity:0.5;stroke:#800080;stroke-linecap:round;stroke-width:2;"/>
    <path d="M 240.83533 283.762006 
L 242.00075 281.989495 
L 243.773261 283.154914 
" style="fill:none;opacity:0.5;stroke:#800080;stroke-linecap:round;stroke-width:2;"/>
    <path d="M 243.273406 280.735941 
L 242.107987 282.508452 
L 240.335475 281.343033 
" style="fill:none;opacity:0.5;stroke:#800080;stroke-linecap:round;stroke-width:2;"/>
   </g>
   <g id="patch_68">
    <path d="M 173.912588 172.325755 
Q 208.084784 116.217658 242.25698 60.10956 
" style="fill:none;opacity:0.5;stroke:#008000;stroke-linecap:round;stroke-width:2;"/>
   </g>
   <g id="patch_69">
    <path d="M 183.891447 171.75086 
Q 174.909555 172.268319 165.927663 172.785778 
" style="fill:none;opacity:0.5;stroke:#800080;stroke-linecap:round;stroke-width:2;"/>
    <path d="M 182.307657 170.339617 
L 183.891447 171.75086 
L 182.480204 173.334651 
" style="fill:none;opacity:0.5;stroke:#800080;stroke-linecap:round;stroke-width:2;"/>
    <path d="M 167.511454 174.197021 
L 165.927663 172.785778 
L 167.338906 171.201987 
" style="fill:none;opacity:0.5;stroke:#800080;stroke-linecap:round;stroke-width:2;"/>
   </g>
   <g id="line2d_1">
    <path clip-path="url(#pf6a28d3ac2)" d="M 241.714564 40.422508 
L 421.796612 171.66952 
L 241.714564 302.916533 
L 62.717348 171.66952 
" style="fill:none;stroke:#ff0000;stroke-linecap:square;stroke-width:0.2;"/>
   </g>
   <g id="line2d_2">
    <path clip-path="url(#pf6a28d3ac2)" d="M 242.799395 40.422508 
L 403.354474 171.66952 
L 242.799395 302.916533 
L 81.159485 171.66952 
" style="fill:none;stroke:#0000ff;stroke-linecap:square;stroke-width:0.2;"/>
   </g>
   <g id="line2d_3">
    <path clip-path="url(#pf6a28d3ac2)" d="M 241.714564 62.7345 
L 299.210639 171.66952 
L 241.714564 280.604541 
L 185.30332 171.66952 
" style="fill:none;stroke:#ff0000;stroke-linecap:square;stroke-width:0.2;"/>
   </g>
   <g id="line2d_4">
    <path clip-path="url(#pf6a28d3ac2)" d="M 242.799395 57.48462 
L 321.992103 172.981991 
L 242.799395 285.854421 
L 162.521856 172.981991 
" style="fill:none;stroke:#0000ff;stroke-linecap:square;stroke-width:0.2;"/>
   </g>
  </g>
 </g>
 <defs>
  <clipPath id="pf6a28d3ac2">
   <rect height="307.51175" width="409.903625" x="37.576375" y="13.32"/>
  </clipPath>
 </defs>
</svg>
