<?xml version="1.0" encoding="utf-8" standalone="no"?>
<!DOCTYPE svg PUBLIC "-//W3C//DTD SVG 1.1//EN"
  "http://www.w3.org/Graphics/SVG/1.1/DTD/svg11.dtd">
<!-- Created with matplotlib (http://matplotlib.org/) -->
<svg height="345.6pt" version="1.1" viewBox="0 0 460.8 345.6" width="460.8pt" xmlns="http://www.w3.org/2000/svg" xmlns:xlink="http://www.w3.org/1999/xlink">
 <defs>
  <style type="text/css">
*{stroke-linecap:butt;stroke-linejoin:round;}
  </style>
 </defs>
 <g id="figure_1">
  <g id="patch_1">
   <path d="M 0 345.6 
L 460.8 345.6 
L 460.8 0 
L 0 0 
z
" style="fill:#ffffff;"/>
  </g>
  <g id="axes_1">
   <g id="patch_2">
    <path clip-path="url(#pc2ad6c6238)" d="M 242.331855 36.34227 
C 242.748399 36.34227 243.147939 36.255635 243.442481 36.101446 
C 243.737022 35.947257 243.902517 35.738102 243.902517 35.520046 
C 243.902517 35.30199 243.737022 35.092835 243.442481 34.938646 
C 243.147939 34.784457 242.748399 34.697822 242.331855 34.697822 
C 241.91531 34.697822 241.51577 34.784457 241.221229 34.938646 
C 240.926687 35.092835 240.761192 35.30199 240.761192 35.520046 
C 240.761192 35.738102 240.926687 35.947257 241.221229 36.101446 
C 241.51577 36.255635 241.91531 36.34227 242.331855 36.34227 
z
" style="fill:#ff0000;opacity:0.2;stroke:#ff0000;stroke-linejoin:miter;stroke-width:2;"/>
   </g>
   <g id="patch_3">
    <path clip-path="url(#pc2ad6c6238)" d="M 423.743364 170.775883 
C 424.159909 170.775883 424.559449 170.689248 424.85399 170.535059 
C 425.148532 170.38087 425.314027 170.171715 425.314027 169.953659 
C 425.314027 169.735602 425.148532 169.526448 424.85399 169.372259 
C 424.559449 169.21807 424.159909 169.131435 423.743364 169.131435 
C 423.32682 169.131435 422.92728 169.21807 422.632738 169.372259 
C 422.338197 169.526448 422.172702 169.735602 422.172702 169.953659 
C 422.172702 170.171715 422.338197 170.38087 422.632738 170.535059 
C 422.92728 170.689248 423.32682 170.775883 423.743364 170.775883 
z
" style="fill:#ff0000;opacity:0.2;stroke:#ff0000;stroke-linejoin:miter;stroke-width:2;"/>
   </g>
   <g id="patch_4">
    <path clip-path="url(#pc2ad6c6238)" d="M 242.331855 305.209495 
C 242.748399 305.209495 243.147939 305.122861 243.442481 304.968672 
C 243.737022 304.814482 243.902517 304.605328 243.902517 304.387271 
C 243.902517 304.169215 243.737022 303.96006 243.442481 303.805871 
C 243.147939 303.651682 242.748399 303.565047 242.331855 303.565047 
C 241.91531 303.565047 241.51577 303.651682 241.221229 303.805871 
C 240.926687 303.96006 240.761192 304.169215 240.761192 304.387271 
C 240.761192 304.605328 240.926687 304.814482 241.221229 304.968672 
C 241.51577 305.122861 241.91531 305.209495 242.331855 305.209495 
z
" style="fill:#ff0000;opacity:0.2;stroke:#ff0000;stroke-linejoin:miter;stroke-width:2;"/>
   </g>
   <g id="patch_5">
    <path clip-path="url(#pc2ad6c6238)" d="M 60.920345 170.775883 
C 61.33689 170.775883 61.73643 170.689248 62.030971 170.535059 
C 62.325513 170.38087 62.491008 170.171715 62.491008 169.953659 
C 62.491008 169.735602 62.325513 169.526448 62.030971 169.372259 
C 61.73643 169.21807 61.33689 169.131435 60.920345 169.131435 
C 60.503801 169.131435 60.104261 169.21807 59.809719 169.372259 
C 59.515178 169.526448 59.349683 169.735602 59.349683 169.953659 
C 59.349683 170.171715 59.515178 170.38087 59.809719 170.535059 
C 60.104261 170.689248 60.503801 170.775883 60.920345 170.775883 
z
" style="fill:#ff0000;opacity:0.2;stroke:#ff0000;stroke-linejoin:miter;stroke-width:2;"/>
   </g>
   <g id="patch_6">
    <path clip-path="url(#pc2ad6c6238)" d="M 242.331855 36.34227 
C 242.748399 36.34227 243.147939 36.255635 243.442481 36.101446 
C 243.737022 35.947257 243.902517 35.738102 243.902517 35.520046 
C 243.902517 35.30199 243.737022 35.092835 243.442481 34.938646 
C 243.147939 34.784457 242.748399 34.697822 242.331855 34.697822 
C 241.91531 34.697822 241.51577 34.784457 241.221229 34.938646 
C 240.926687 35.092835 240.761192 35.30199 240.761192 35.520046 
C 240.761192 35.738102 240.926687 35.947257 241.221229 36.101446 
C 241.51577 36.255635 241.91531 36.34227 242.331855 36.34227 
z
" style="fill:#0000ff;opacity:0.2;stroke:#0000ff;stroke-linejoin:miter;stroke-width:2;"/>
   </g>
   <g id="patch_7">
    <path clip-path="url(#pc2ad6c6238)" d="M 404.895415 170.775883 
C 405.31196 170.775883 405.7115 170.689248 406.006041 170.535059 
C 406.300583 170.38087 406.466078 170.171715 406.466078 169.953659 
C 406.466078 169.735602 406.300583 169.526448 406.006041 169.372259 
C 405.7115 169.21807 405.31196 169.131435 404.895415 169.131435 
C 404.478871 169.131435 404.079331 169.21807 403.784789 169.372259 
C 403.490248 169.526448 403.324753 169.735602 403.324753 169.953659 
C 403.324753 170.171715 403.490248 170.38087 403.784789 170.535059 
C 404.079331 170.689248 404.478871 170.775883 404.895415 170.775883 
z
" style="fill:#0000ff;opacity:0.2;stroke:#0000ff;stroke-linejoin:miter;stroke-width:2;"/>
   </g>
   <g id="patch_8">
    <path clip-path="url(#pc2ad6c6238)" d="M 242.331855 305.209495 
C 242.748399 305.209495 243.147939 305.122861 243.442481 304.968672 
C 243.737022 304.814482 243.902517 304.605328 243.902517 304.387271 
C 243.902517 304.169215 243.737022 303.96006 243.442481 303.805871 
C 243.147939 303.651682 242.748399 303.565047 242.331855 303.565047 
C 241.91531 303.565047 241.51577 303.651682 241.221229 303.805871 
C 240.926687 303.96006 240.761192 304.169215 240.761192 304.387271 
C 240.761192 304.605328 240.926687 304.814482 241.221229 304.968672 
C 241.51577 305.122861 241.91531 305.209495 242.331855 305.209495 
z
" style="fill:#0000ff;opacity:0.2;stroke:#0000ff;stroke-linejoin:miter;stroke-width:2;"/>
   </g>
   <g id="patch_9">
    <path clip-path="url(#pc2ad6c6238)" d="M 79.768294 170.775883 
C 80.184839 170.775883 80.584379 170.689248 80.87892 170.535059 
C 81.173462 170.38087 81.338957 170.171715 81.338957 169.953659 
C 81.338957 169.735602 81.173462 169.526448 80.87892 169.372259 
C 80.584379 169.21807 80.184839 169.131435 79.768294 169.131435 
C 79.35175 169.131435 78.95221 169.21807 78.657668 169.372259 
C 78.363127 169.526448 78.197632 169.735602 78.197632 169.953659 
C 78.197632 170.171715 78.363127 170.38087 78.657668 170.535059 
C 78.95221 170.689248 79.35175 170.775883 79.768294 170.775883 
z
" style="fill:#0000ff;opacity:0.2;stroke:#0000ff;stroke-linejoin:miter;stroke-width:2;"/>
   </g>
   <g id="patch_10">
    <path clip-path="url(#pc2ad6c6238)" d="M 242.331855 35.520046 
C 369.555511 35.520046 423.743364 106.231304 423.743364 169.953659 
C 423.743364 236.142685 369.555511 304.387271 242.331855 304.387271 
C 115.108199 304.387271 60.920345 236.142685 60.920345 169.953659 
C 60.920345 106.231304 115.108199 35.520046 242.331855 35.520046 
" style="fill:none;stroke:#ff0000;stroke-linejoin:miter;stroke-width:0.5;"/>
   </g>
   <g id="patch_11">
    <path clip-path="url(#pc2ad6c6238)" d="M 242.331855 35.520046 
C 356.990211 35.520046 404.895415 107.875752 404.895415 169.953659 
C 404.895415 234.498237 356.990211 304.387271 242.331855 304.387271 
C 127.673498 304.387271 79.768294 234.498237 79.768294 169.953659 
C 79.768294 107.875752 127.673498 35.520046 242.331855 35.520046 
" style="fill:none;stroke:#0000ff;stroke-linejoin:miter;stroke-width:0.5;"/>
   </g>
   <g id="[&quot;g_s&quot;:1,&quot;g_t&quot;:1,&quot;coords&quot;:[[310.0, -60.0],[310.0, -60.0]],&quot;certainty&quot;:10]">
    <path clip-path="url(#pc2ad6c6238)" d="M 242.331855 37.781162 
C 243.477352 37.781162 244.576087 37.542917 245.386076 37.118896 
C 246.196065 36.694876 246.651176 36.119701 246.651176 35.520046 
C 246.651176 34.920391 246.196065 34.345216 245.386076 33.921196 
C 244.576087 33.497176 243.477352 33.25893 242.331855 33.25893 
C 241.186357 33.25893 240.087622 33.497176 239.277633 33.921196 
C 238.467644 34.345216 238.012533 34.920391 238.012533 35.520046 
C 238.012533 36.119701 238.467644 36.694876 239.277633 37.118896 
C 240.087622 37.542917 241.186357 37.781162 242.331855 37.781162 
z
" style="fill:#0000ff;opacity:0.2;stroke:#0000ff;stroke-linejoin:miter;stroke-width:2;"/>
   </g>
   <g id="[&quot;g_s&quot;:1,&quot;g_t&quot;:1,&quot;coords&quot;:[[310.0, -60.0],[310.0, -60.0]],&quot;certainty&quot;:10]">
    <path clip-path="url(#pc2ad6c6238)" d="M 242.331855 37.781162 
C 243.477352 37.781162 244.576087 37.542917 245.386076 37.118896 
C 246.196065 36.694876 246.651176 36.119701 246.651176 35.520046 
C 246.651176 34.920391 246.196065 34.345216 245.386076 33.921196 
C 244.576087 33.497176 243.477352 33.25893 242.331855 33.25893 
C 241.186357 33.25893 240.087622 33.497176 239.277633 33.921196 
C 238.467644 34.345216 238.012533 34.920391 238.012533 35.520046 
C 238.012533 36.119701 238.467644 36.694876 239.277633 37.118896 
C 240.087622 37.542917 241.186357 37.781162 242.331855 37.781162 
z
" style="fill:#ff0000;opacity:0.2;stroke:#ff0000;stroke-linejoin:miter;stroke-width:2;"/>
   </g>
   <g id="patch_12">
    <path d="M 242.331855 35.520046 
Q 242.331855 35.520046 242.331855 35.520046 
" style="fill:none;opacity:0.5;stroke:#0000ff;stroke-linecap:round;stroke-width:2.75;"/>
   </g>
   <g id="[&quot;g_s&quot;:2,&quot;g_t&quot;:2,&quot;coords&quot;:[[541.0, -387.0],[517.0, -387.0]],&quot;certainty&quot;:12]">
    <path clip-path="url(#pc2ad6c6238)" d="M 423.743364 172.625887 
C 425.097134 172.625887 426.395639 172.344324 427.352899 171.843209 
C 428.310159 171.342095 428.848017 170.662342 428.848017 169.953659 
C 428.848017 169.244976 428.310159 168.565223 427.352899 168.064108 
C 426.395639 167.562994 425.097134 167.281431 423.743364 167.281431 
C 422.389594 167.281431 421.091089 167.562994 420.13383 168.064108 
C 419.17657 168.565223 418.638711 169.244976 418.638711 169.953659 
C 418.638711 170.662342 419.17657 171.342095 420.13383 171.843209 
C 421.091089 172.344324 422.389594 172.625887 423.743364 172.625887 
z
" style="fill:#0000ff;opacity:0.2;stroke:#0000ff;stroke-linejoin:miter;stroke-width:2;"/>
   </g>
   <g id="[&quot;g_s&quot;:2,&quot;g_t&quot;:2,&quot;coords&quot;:[[517.0, -387.0],[541.0, -387.0]],&quot;certainty&quot;:12]">
    <path clip-path="url(#pc2ad6c6238)" d="M 404.895415 172.625887 
C 406.249185 172.625887 407.54769 172.344324 408.50495 171.843209 
C 409.46221 171.342095 410.000068 170.662342 410.000068 169.953659 
C 410.000068 169.244976 409.46221 168.565223 408.50495 168.064108 
C 407.54769 167.562994 406.249185 167.281431 404.895415 167.281431 
C 403.541645 167.281431 402.24314 167.562994 401.28588 168.064108 
C 400.328621 168.565223 399.790762 169.244976 399.790762 169.953659 
C 399.790762 170.662342 400.328621 171.342095 401.28588 171.843209 
C 402.24314 172.344324 403.541645 172.625887 404.895415 172.625887 
z
" style="fill:#ff0000;opacity:0.2;stroke:#ff0000;stroke-linejoin:miter;stroke-width:2;"/>
   </g>
   <g id="patch_13">
    <path d="M 423.743364 169.953659 
Q 415.320227 169.953659 409.195186 169.953659 
" style="fill:none;opacity:0.5;stroke:#0000ff;stroke-linecap:round;stroke-width:3.25;"/>
    <path d="M 410.695186 171.453659 
L 409.195186 169.953659 
L 410.695186 168.453659 
" style="fill:none;opacity:0.5;stroke:#0000ff;stroke-linecap:round;stroke-width:3.25;"/>
   </g>
   <g id="[&quot;g_s&quot;:3,&quot;g_t&quot;:3,&quot;coords&quot;:[[310.0, -714.0],[310.0, -714.0]],&quot;certainty&quot;:11]">
    <path clip-path="url(#pc2ad6c6238)" d="M 242.331855 306.853943 
C 243.581488 306.853943 244.780108 306.594039 245.663733 306.131472 
C 246.547357 305.668904 247.043842 305.04144 247.043842 304.387271 
C 247.043842 303.733102 246.547357 303.105638 245.663733 302.643071 
C 244.780108 302.180504 243.581488 301.9206 242.331855 301.9206 
C 241.082221 301.9206 239.883601 302.180504 238.999977 302.643071 
C 238.116352 303.105638 237.619867 303.733102 237.619867 304.387271 
C 237.619867 305.04144 238.116352 305.668904 238.999977 306.131472 
C 239.883601 306.594039 241.082221 306.853943 242.331855 306.853943 
z
" style="fill:#0000ff;opacity:0.2;stroke:#0000ff;stroke-linejoin:miter;stroke-width:2;"/>
   </g>
   <g id="[&quot;g_s&quot;:3,&quot;g_t&quot;:3,&quot;coords&quot;:[[310.0, -714.0],[310.0, -714.0]],&quot;certainty&quot;:11]">
    <path clip-path="url(#pc2ad6c6238)" d="M 242.331855 306.853943 
C 243.581488 306.853943 244.780108 306.594039 245.663733 306.131472 
C 246.547357 305.668904 247.043842 305.04144 247.043842 304.387271 
C 247.043842 303.733102 246.547357 303.105638 245.663733 302.643071 
C 244.780108 302.180504 243.581488 301.9206 242.331855 301.9206 
C 241.082221 301.9206 239.883601 302.180504 238.999977 302.643071 
C 238.116352 303.105638 237.619867 303.733102 237.619867 304.387271 
C 237.619867 305.04144 238.116352 305.668904 238.999977 306.131472 
C 239.883601 306.594039 241.082221 306.853943 242.331855 306.853943 
z
" style="fill:#ff0000;opacity:0.2;stroke:#ff0000;stroke-linejoin:miter;stroke-width:2;"/>
   </g>
   <g id="patch_14">
    <path d="M 242.331855 304.387271 
Q 242.331855 304.387271 242.331855 304.387271 
" style="fill:none;opacity:0.5;stroke:#0000ff;stroke-linecap:round;stroke-width:3;"/>
   </g>
   <g id="[&quot;g_s&quot;:4,&quot;g_t&quot;:4,&quot;coords&quot;:[[79.0, -387.0],[103.0, -387.0]],&quot;certainty&quot;:11]">
    <path clip-path="url(#pc2ad6c6238)" d="M 60.920345 172.420331 
C 62.169979 172.420331 63.368599 172.160426 64.252223 171.697859 
C 65.135848 171.235292 65.632332 170.607828 65.632332 169.953659 
C 65.632332 169.29949 65.135848 168.672026 64.252223 168.209458 
C 63.368599 167.746891 62.169979 167.486987 60.920345 167.486987 
C 59.670712 167.486987 58.472091 167.746891 57.588467 168.209458 
C 56.704843 168.672026 56.208358 169.29949 56.208358 169.953659 
C 56.208358 170.607828 56.704843 171.235292 57.588467 171.697859 
C 58.472091 172.160426 59.670712 172.420331 60.920345 172.420331 
z
" style="fill:#0000ff;opacity:0.2;stroke:#0000ff;stroke-linejoin:miter;stroke-width:2;"/>
   </g>
   <g id="[&quot;g_s&quot;:4,&quot;g_t&quot;:4,&quot;coords&quot;:[[103.0, -387.0],[79.0, -387.0]],&quot;certainty&quot;:11]">
    <path clip-path="url(#pc2ad6c6238)" d="M 79.768294 172.420331 
C 81.017928 172.420331 82.216548 172.160426 83.100172 171.697859 
C 83.983797 171.235292 84.480282 170.607828 84.480282 169.953659 
C 84.480282 169.29949 83.983797 168.672026 83.100172 168.209458 
C 82.216548 167.746891 81.017928 167.486987 79.768294 167.486987 
C 78.518661 167.486987 77.320041 167.746891 76.436416 168.209458 
C 75.552792 168.672026 75.056307 169.29949 75.056307 169.953659 
C 75.056307 170.607828 75.552792 171.235292 76.436416 171.697859 
C 77.320041 172.160426 78.518661 172.420331 79.768294 172.420331 
z
" style="fill:#ff0000;opacity:0.2;stroke:#ff0000;stroke-linejoin:miter;stroke-width:2;"/>
   </g>
   <g id="patch_15">
    <path d="M 60.920345 169.953659 
Q 69.343483 169.953659 75.6453 169.953659 
" style="fill:none;opacity:0.5;stroke:#0000ff;stroke-linecap:round;stroke-width:3;"/>
    <path d="M 74.1453 168.453659 
L 75.6453 169.953659 
L 74.1453 171.453659 
" style="fill:none;opacity:0.5;stroke:#0000ff;stroke-linecap:round;stroke-width:3;"/>
   </g>
   <g id="[&quot;g_s&quot;:1,&quot;g_t&quot;:1,&quot;coords&quot;:[[310.0, -60.0],[310.0, -60.0]],&quot;certainty&quot;:10]">
    <path clip-path="url(#pc2ad6c6238)" d="M 242.331855 37.781162 
C 243.477352 37.781162 244.576087 37.542917 245.386076 37.118896 
C 246.196065 36.694876 246.651176 36.119701 246.651176 35.520046 
C 246.651176 34.920391 246.196065 34.345216 245.386076 33.921196 
C 244.576087 33.497176 243.477352 33.25893 242.331855 33.25893 
C 241.186357 33.25893 240.087622 33.497176 239.277633 33.921196 
C 238.467644 34.345216 238.012533 34.920391 238.012533 35.520046 
C 238.012533 36.119701 238.467644 36.694876 239.277633 37.118896 
C 240.087622 37.542917 241.186357 37.781162 242.331855 37.781162 
z
" style="fill:#0000ff;opacity:0.2;stroke:#0000ff;stroke-linejoin:miter;stroke-width:2;"/>
   </g>
   <g id="[&quot;g_s&quot;:1,&quot;g_t&quot;:1,&quot;coords&quot;:[[310.0, -60.0],[310.0, -60.0]],&quot;certainty&quot;:10]">
    <path clip-path="url(#pc2ad6c6238)" d="M 242.331855 37.781162 
C 243.477352 37.781162 244.576087 37.542917 245.386076 37.118896 
C 246.196065 36.694876 246.651176 36.119701 246.651176 35.520046 
C 246.651176 34.920391 246.196065 34.345216 245.386076 33.921196 
C 244.576087 33.497176 243.477352 33.25893 242.331855 33.25893 
C 241.186357 33.25893 240.087622 33.497176 239.277633 33.921196 
C 238.467644 34.345216 238.012533 34.920391 238.012533 35.520046 
C 238.012533 36.119701 238.467644 36.694876 239.277633 37.118896 
C 240.087622 37.542917 241.186357 37.781162 242.331855 37.781162 
z
" style="fill:#ff0000;opacity:0.2;stroke:#ff0000;stroke-linejoin:miter;stroke-width:2;"/>
   </g>
   <g id="patch_16">
    <path d="M 242.331855 35.520046 
Q 242.331855 35.520046 242.331855 35.520046 
" style="fill:none;opacity:0.5;stroke:#ff0000;stroke-linecap:round;stroke-width:2.75;"/>
   </g>
   <g id="[&quot;g_s&quot;:2,&quot;g_t&quot;:2,&quot;coords&quot;:[[517.0, -387.0],[541.0, -387.0]],&quot;certainty&quot;:12]">
    <path clip-path="url(#pc2ad6c6238)" d="M 404.895415 172.625887 
C 406.249185 172.625887 407.54769 172.344324 408.50495 171.843209 
C 409.46221 171.342095 410.000068 170.662342 410.000068 169.953659 
C 410.000068 169.244976 409.46221 168.565223 408.50495 168.064108 
C 407.54769 167.562994 406.249185 167.281431 404.895415 167.281431 
C 403.541645 167.281431 402.24314 167.562994 401.28588 168.064108 
C 400.328621 168.565223 399.790762 169.244976 399.790762 169.953659 
C 399.790762 170.662342 400.328621 171.342095 401.28588 171.843209 
C 402.24314 172.344324 403.541645 172.625887 404.895415 172.625887 
z
" style="fill:#0000ff;opacity:0.2;stroke:#0000ff;stroke-linejoin:miter;stroke-width:2;"/>
   </g>
   <g id="[&quot;g_s&quot;:2,&quot;g_t&quot;:2,&quot;coords&quot;:[[541.0, -387.0],[517.0, -387.0]],&quot;certainty&quot;:12]">
    <path clip-path="url(#pc2ad6c6238)" d="M 423.743364 172.625887 
C 425.097134 172.625887 426.395639 172.344324 427.352899 171.843209 
C 428.310159 171.342095 428.848017 170.662342 428.848017 169.953659 
C 428.848017 169.244976 428.310159 168.565223 427.352899 168.064108 
C 426.395639 167.562994 425.097134 167.281431 423.743364 167.281431 
C 422.389594 167.281431 421.091089 167.562994 420.13383 168.064108 
C 419.17657 168.565223 418.638711 169.244976 418.638711 169.953659 
C 418.638711 170.662342 419.17657 171.342095 420.13383 171.843209 
C 421.091089 172.344324 422.389594 172.625887 423.743364 172.625887 
z
" style="fill:#ff0000;opacity:0.2;stroke:#ff0000;stroke-linejoin:miter;stroke-width:2;"/>
   </g>
   <g id="patch_17">
    <path d="M 404.895415 169.953659 
Q 413.318553 169.953659 419.443593 169.953659 
" style="fill:none;opacity:0.5;stroke:#ff0000;stroke-linecap:round;stroke-width:3.25;"/>
    <path d="M 417.943593 168.453659 
L 419.443593 169.953659 
L 417.943593 171.453659 
" style="fill:none;opacity:0.5;stroke:#ff0000;stroke-linecap:round;stroke-width:3.25;"/>
   </g>
   <g id="[&quot;g_s&quot;:3,&quot;g_t&quot;:3,&quot;coords&quot;:[[310.0, -714.0],[310.0, -714.0]],&quot;certainty&quot;:11]">
    <path clip-path="url(#pc2ad6c6238)" d="M 242.331855 306.853943 
C 243.581488 306.853943 244.780108 306.594039 245.663733 306.131472 
C 246.547357 305.668904 247.043842 305.04144 247.043842 304.387271 
C 247.043842 303.733102 246.547357 303.105638 245.663733 302.643071 
C 244.780108 302.180504 243.581488 301.9206 242.331855 301.9206 
C 241.082221 301.9206 239.883601 302.180504 238.999977 302.643071 
C 238.116352 303.105638 237.619867 303.733102 237.619867 304.387271 
C 237.619867 305.04144 238.116352 305.668904 238.999977 306.131472 
C 239.883601 306.594039 241.082221 306.853943 242.331855 306.853943 
z
" style="fill:#0000ff;opacity:0.2;stroke:#0000ff;stroke-linejoin:miter;stroke-width:2;"/>
   </g>
   <g id="[&quot;g_s&quot;:3,&quot;g_t&quot;:3,&quot;coords&quot;:[[310.0, -714.0],[310.0, -714.0]],&quot;certainty&quot;:11]">
    <path clip-path="url(#pc2ad6c6238)" d="M 242.331855 306.853943 
C 243.581488 306.853943 244.780108 306.594039 245.663733 306.131472 
C 246.547357 305.668904 247.043842 305.04144 247.043842 304.387271 
C 247.043842 303.733102 246.547357 303.105638 245.663733 302.643071 
C 244.780108 302.180504 243.581488 301.9206 242.331855 301.9206 
C 241.082221 301.9206 239.883601 302.180504 238.999977 302.643071 
C 238.116352 303.105638 237.619867 303.733102 237.619867 304.387271 
C 237.619867 305.04144 238.116352 305.668904 238.999977 306.131472 
C 239.883601 306.594039 241.082221 306.853943 242.331855 306.853943 
z
" style="fill:#ff0000;opacity:0.2;stroke:#ff0000;stroke-linejoin:miter;stroke-width:2;"/>
   </g>
   <g id="patch_18">
    <path d="M 242.331855 304.387271 
Q 242.331855 304.387271 242.331855 304.387271 
" style="fill:none;opacity:0.5;stroke:#ff0000;stroke-linecap:round;stroke-width:3;"/>
   </g>
   <g id="[&quot;g_s&quot;:4,&quot;g_t&quot;:4,&quot;coords&quot;:[[103.0, -387.0],[79.0, -387.0]],&quot;certainty&quot;:11]">
    <path clip-path="url(#pc2ad6c6238)" d="M 79.768294 172.420331 
C 81.017928 172.420331 82.216548 172.160426 83.100172 171.697859 
C 83.983797 171.235292 84.480282 170.607828 84.480282 169.953659 
C 84.480282 169.29949 83.983797 168.672026 83.100172 168.209458 
C 82.216548 167.746891 81.017928 167.486987 79.768294 167.486987 
C 78.518661 167.486987 77.320041 167.746891 76.436416 168.209458 
C 75.552792 168.672026 75.056307 169.29949 75.056307 169.953659 
C 75.056307 170.607828 75.552792 171.235292 76.436416 171.697859 
C 77.320041 172.160426 78.518661 172.420331 79.768294 172.420331 
z
" style="fill:#0000ff;opacity:0.2;stroke:#0000ff;stroke-linejoin:miter;stroke-width:2;"/>
   </g>
   <g id="[&quot;g_s&quot;:4,&quot;g_t&quot;:4,&quot;coords&quot;:[[79.0, -387.0],[103.0, -387.0]],&quot;certainty&quot;:11]">
    <path clip-path="url(#pc2ad6c6238)" d="M 60.920345 172.420331 
C 62.169979 172.420331 63.368599 172.160426 64.252223 171.697859 
C 65.135848 171.235292 65.632332 170.607828 65.632332 169.953659 
C 65.632332 169.29949 65.135848 168.672026 64.252223 168.209458 
C 63.368599 167.746891 62.169979 167.486987 60.920345 167.486987 
C 59.670712 167.486987 58.472091 167.746891 57.588467 168.209458 
C 56.704843 168.672026 56.208358 169.29949 56.208358 169.953659 
C 56.208358 170.607828 56.704843 171.235292 57.588467 171.697859 
C 58.472091 172.160426 59.670712 172.420331 60.920345 172.420331 
z
" style="fill:#ff0000;opacity:0.2;stroke:#ff0000;stroke-linejoin:miter;stroke-width:2;"/>
   </g>
   <g id="patch_19">
    <path d="M 79.768294 169.953659 
Q 71.345157 169.953659 65.04334 169.953659 
" style="fill:none;opacity:0.5;stroke:#ff0000;stroke-linecap:round;stroke-width:3;"/>
    <path d="M 66.54334 171.453659 
L 65.04334 169.953659 
L 66.54334 168.453659 
" style="fill:none;opacity:0.5;stroke:#ff0000;stroke-linecap:round;stroke-width:3;"/>
   </g>
   <g id="patch_20">
    <path clip-path="url(#pc2ad6c6238)" d="M 242.331855 37.575606 
C 243.373216 37.575606 244.372066 37.359019 245.10842 36.973546 
C 245.844773 36.588074 246.258511 36.065187 246.258511 35.520046 
C 246.258511 34.974905 245.844773 34.452019 245.10842 34.066546 
C 244.372066 33.681073 243.373216 33.464486 242.331855 33.464486 
C 241.290493 33.464486 240.291643 33.681073 239.55529 34.066546 
C 238.818936 34.452019 238.405199 34.974905 238.405199 35.520046 
C 238.405199 36.065187 238.818936 36.588074 239.55529 36.973546 
C 240.291643 37.359019 241.290493 37.575606 242.331855 37.575606 
z
" style="fill:#008000;opacity:0.2;stroke:#008000;stroke-linejoin:miter;stroke-width:2;"/>
   </g>
   <g id="patch_21">
    <path clip-path="url(#pc2ad6c6238)" d="M 414.31939 172.009219 
C 415.360751 172.009219 416.359601 171.792632 417.095955 171.407159 
C 417.832308 171.021686 418.246046 170.4988 418.246046 169.953659 
C 418.246046 169.408518 417.832308 168.885631 417.095955 168.500158 
C 416.359601 168.114686 415.360751 167.898099 414.31939 167.898099 
C 413.278028 167.898099 412.279178 168.114686 411.542825 168.500158 
C 410.806471 168.885631 410.392734 169.408518 410.392734 169.953659 
C 410.392734 170.4988 410.806471 171.021686 411.542825 171.407159 
C 412.279178 171.792632 413.278028 172.009219 414.31939 172.009219 
z
" style="fill:#008000;opacity:0.2;stroke:#008000;stroke-linejoin:miter;stroke-width:2;"/>
   </g>
   <g id="patch_22">
    <path clip-path="url(#pc2ad6c6238)" d="M 242.331855 306.442831 
C 243.373216 306.442831 244.372066 306.226244 245.10842 305.840772 
C 245.844773 305.455299 246.258511 304.932412 246.258511 304.387271 
C 246.258511 303.842131 245.844773 303.319244 245.10842 302.933771 
C 244.372066 302.548298 243.373216 302.331712 242.331855 302.331712 
C 241.290493 302.331712 240.291643 302.548298 239.55529 302.933771 
C 238.818936 303.319244 238.405199 303.842131 238.405199 304.387271 
C 238.405199 304.932412 238.818936 305.455299 239.55529 305.840772 
C 240.291643 306.226244 241.290493 306.442831 242.331855 306.442831 
z
" style="fill:#008000;opacity:0.2;stroke:#008000;stroke-linejoin:miter;stroke-width:2;"/>
   </g>
   <g id="patch_23">
    <path clip-path="url(#pc2ad6c6238)" d="M 70.34432 172.009219 
C 71.385681 172.009219 72.384531 171.792632 73.120885 171.407159 
C 73.857239 171.021686 74.270976 170.4988 74.270976 169.953659 
C 74.270976 169.408518 73.857239 168.885631 73.120885 168.500158 
C 72.384531 168.114686 71.385681 167.898099 70.34432 167.898099 
C 69.302958 167.898099 68.304108 168.114686 67.567755 168.500158 
C 66.831401 168.885631 66.417664 169.408518 66.417664 169.953659 
C 66.417664 170.4988 66.831401 171.021686 67.567755 171.407159 
C 68.304108 171.792632 69.302958 172.009219 70.34432 172.009219 
z
" style="fill:#008000;opacity:0.2;stroke:#008000;stroke-linejoin:miter;stroke-width:2;"/>
   </g>
   <g id="patch_24">
    <path clip-path="url(#pc2ad6c6238)" d="M 242.331855 43.742285 
C 246.4973 43.742285 250.4927 42.875938 253.438115 41.334047 
C 256.38353 39.792156 258.038479 37.700609 258.038479 35.520046 
C 258.038479 33.339483 256.38353 31.247936 253.438115 29.706045 
C 250.4927 28.164154 246.4973 27.297807 242.331855 27.297807 
C 238.166409 27.297807 234.171009 28.164154 231.225594 29.706045 
C 228.28018 31.247936 226.62523 33.339483 226.62523 35.520046 
C 226.62523 37.700609 228.28018 39.792156 231.225594 41.334047 
C 234.171009 42.875938 238.166409 43.742285 242.331855 43.742285 
z
" style="fill:none;opacity:0.2;stroke:#ff0000;stroke-linejoin:miter;stroke-width:2;"/>
   </g>
   <g id="patch_25">
    <path clip-path="url(#pc2ad6c6238)" d="M 242.331855 43.742285 
C 246.4973 43.742285 250.4927 42.875938 253.438115 41.334047 
C 256.38353 39.792156 258.038479 37.700609 258.038479 35.520046 
C 258.038479 33.339483 256.38353 31.247936 253.438115 29.706045 
C 250.4927 28.164154 246.4973 27.297807 242.331855 27.297807 
C 238.166409 27.297807 234.171009 28.164154 231.225594 29.706045 
C 228.28018 31.247936 226.62523 33.339483 226.62523 35.520046 
C 226.62523 37.700609 228.28018 39.792156 231.225594 41.334047 
C 234.171009 42.875938 238.166409 43.742285 242.331855 43.742285 
z
" style="fill:none;opacity:0.2;stroke:#0000ff;stroke-linejoin:miter;stroke-width:2;"/>
   </g>
   <g id="patch_26">
    <path clip-path="url(#pc2ad6c6238)" d="M 242.331855 39.631166 
C 244.414577 39.631166 246.412278 39.197992 247.884985 38.427047 
C 249.357692 37.656101 250.185167 36.610328 250.185167 35.520046 
C 250.185167 34.429764 249.357692 33.383991 247.884985 32.613046 
C 246.412278 31.8421 244.414577 31.408926 242.331855 31.408926 
C 240.249132 31.408926 238.251432 31.8421 236.778724 32.613046 
C 235.306017 33.383991 234.478543 34.429764 234.478543 35.520046 
C 234.478543 36.610328 235.306017 37.656101 236.778724 38.427047 
C 238.251432 39.197992 240.249132 39.631166 242.331855 39.631166 
z
" style="fill:none;opacity:0.2;stroke:#008000;stroke-linejoin:miter;stroke-width:2;"/>
   </g>
   <g id="patch_27">
    <path clip-path="url(#pc2ad6c6238)" d="M 242.331855 39.631166 
C 244.414577 39.631166 246.412278 39.197992 247.884985 38.427047 
C 249.357692 37.656101 250.185167 36.610328 250.185167 35.520046 
C 250.185167 34.429764 249.357692 33.383991 247.884985 32.613046 
C 246.412278 31.8421 244.414577 31.408926 242.331855 31.408926 
C 240.249132 31.408926 238.251432 31.8421 236.778724 32.613046 
C 235.306017 33.383991 234.478543 34.429764 234.478543 35.520046 
C 234.478543 36.610328 235.306017 37.656101 236.778724 38.427047 
C 238.251432 39.197992 240.249132 39.631166 242.331855 39.631166 
z
" style="fill:none;opacity:0.2;stroke:#008000;stroke-linejoin:miter;stroke-width:2;"/>
   </g>
   <g id="patch_28">
    <path d="M 242.331855 35.520046 
Q 328.325622 102.736852 414.31939 169.953659 
" style="fill:none;opacity:0.5;stroke:#008000;stroke-linecap:round;stroke-width:2;"/>
   </g>
   <g id="patch_29">
    <path d="M 242.331855 35.520046 
Q 242.331855 35.520046 242.331855 35.520046 
" style="fill:none;opacity:0.5;stroke:#800080;stroke-linecap:round;stroke-width:2;"/>
   </g>
   <g id="patch_30">
    <path d="M 414.31939 169.953659 
Q 328.325622 237.170465 242.331855 304.387271 
" style="fill:none;opacity:0.5;stroke:#008000;stroke-linecap:round;stroke-width:2;"/>
   </g>
   <g id="patch_31">
    <path d="M 422.329151 169.953659 
Q 415.320227 169.953659 408.311303 169.953659 
" style="fill:none;opacity:0.5;stroke:#800080;stroke-linecap:round;stroke-width:2;"/>
    <path d="M 420.829151 168.453659 
L 422.329151 169.953659 
L 420.829151 171.453659 
" style="fill:none;opacity:0.5;stroke:#800080;stroke-linecap:round;stroke-width:2;"/>
    <path d="M 409.811303 171.453659 
L 408.311303 169.953659 
L 409.811303 168.453659 
" style="fill:none;opacity:0.5;stroke:#800080;stroke-linecap:round;stroke-width:2;"/>
   </g>
   <g id="patch_32">
    <path d="M 242.331855 304.387271 
Q 156.338087 237.170465 70.34432 169.953659 
" style="fill:none;opacity:0.5;stroke:#008000;stroke-linecap:round;stroke-width:2;"/>
   </g>
   <g id="patch_33">
    <path d="M 242.331855 304.387271 
Q 242.331855 304.387271 242.331855 304.387271 
" style="fill:none;opacity:0.5;stroke:#800080;stroke-linecap:round;stroke-width:2;"/>
   </g>
   <g id="patch_34">
    <path d="M 70.34432 169.953659 
Q 156.338087 102.736852 242.331855 35.520046 
" style="fill:none;opacity:0.5;stroke:#008000;stroke-linecap:round;stroke-width:2;"/>
   </g>
   <g id="patch_35">
    <path d="M 62.334559 169.953659 
Q 69.343483 169.953659 76.352406 169.953659 
" style="fill:none;opacity:0.5;stroke:#800080;stroke-linecap:round;stroke-width:2;"/>
    <path d="M 63.834559 171.453659 
L 62.334559 169.953659 
L 63.834559 168.453659 
" style="fill:none;opacity:0.5;stroke:#800080;stroke-linecap:round;stroke-width:2;"/>
    <path d="M 74.852406 168.453659 
L 76.352406 169.953659 
L 74.852406 171.453659 
" style="fill:none;opacity:0.5;stroke:#800080;stroke-linecap:round;stroke-width:2;"/>
   </g>
   <g id="patch_36">
    <path clip-path="url(#pc2ad6c6238)" d="M 175.578702 170.775883 
C 175.995246 170.775883 176.394786 170.689248 176.689328 170.535059 
C 176.983869 170.38087 177.149364 170.171715 177.149364 169.953659 
C 177.149364 169.735602 176.983869 169.526448 176.689328 169.372259 
C 176.394786 169.21807 175.995246 169.131435 175.578702 169.131435 
C 175.162157 169.131435 174.762617 169.21807 174.468076 169.372259 
C 174.173534 169.526448 174.008039 169.735602 174.008039 169.953659 
C 174.008039 170.171715 174.173534 170.38087 174.468076 170.535059 
C 174.762617 170.689248 175.162157 170.775883 175.578702 170.775883 
z
" style="fill:#ff0000;opacity:0.2;stroke:#ff0000;stroke-linejoin:miter;stroke-width:2;"/>
   </g>
   <g id="patch_37">
    <path clip-path="url(#pc2ad6c6238)" d="M 242.331855 55.25342 
C 242.748399 55.25342 243.147939 55.166786 243.442481 55.012597 
C 243.737022 54.858408 243.902517 54.649253 243.902517 54.431197 
C 243.902517 54.21314 243.737022 54.003986 243.442481 53.849796 
C 243.147939 53.695607 242.748399 53.608973 242.331855 53.608973 
C 241.91531 53.608973 241.51577 53.695607 241.221229 53.849796 
C 240.926687 54.003986 240.761192 54.21314 240.761192 54.431197 
C 240.761192 54.649253 240.926687 54.858408 241.221229 55.012597 
C 241.51577 55.166786 241.91531 55.25342 242.331855 55.25342 
z
" style="fill:#ff0000;opacity:0.2;stroke:#ff0000;stroke-linejoin:miter;stroke-width:2;"/>
   </g>
   <g id="patch_38">
    <path clip-path="url(#pc2ad6c6238)" d="M 309.085008 170.775883 
C 309.501552 170.775883 309.901092 170.689248 310.195634 170.535059 
C 310.490175 170.38087 310.65567 170.171715 310.65567 169.953659 
C 310.65567 169.735602 310.490175 169.526448 310.195634 169.372259 
C 309.901092 169.21807 309.501552 169.131435 309.085008 169.131435 
C 308.668463 169.131435 308.268923 169.21807 307.974381 169.372259 
C 307.67984 169.526448 307.514345 169.735602 307.514345 169.953659 
C 307.514345 170.171715 307.67984 170.38087 307.974381 170.535059 
C 308.268923 170.689248 308.668463 170.775883 309.085008 170.775883 
z
" style="fill:#ff0000;opacity:0.2;stroke:#ff0000;stroke-linejoin:miter;stroke-width:2;"/>
   </g>
   <g id="patch_39">
    <path clip-path="url(#pc2ad6c6238)" d="M 242.331855 286.298345 
C 242.748399 286.298345 243.147939 286.21171 243.442481 286.057521 
C 243.737022 285.903332 243.902517 285.694177 243.902517 285.476121 
C 243.902517 285.258065 243.737022 285.04891 243.442481 284.894721 
C 243.147939 284.740532 242.748399 284.653897 242.331855 284.653897 
C 241.91531 284.653897 241.51577 284.740532 241.221229 284.894721 
C 240.926687 285.04891 240.761192 285.258065 240.761192 285.476121 
C 240.761192 285.694177 240.926687 285.903332 241.221229 286.057521 
C 241.51577 286.21171 241.91531 286.298345 242.331855 286.298345 
z
" style="fill:#ff0000;opacity:0.2;stroke:#ff0000;stroke-linejoin:miter;stroke-width:2;"/>
   </g>
   <g id="patch_40">
    <path clip-path="url(#pc2ad6c6238)" d="M 242.331855 48.675629 
C 242.748399 48.675629 243.147939 48.588994 243.442481 48.434805 
C 243.737022 48.280616 243.902517 48.071461 243.902517 47.853405 
C 243.902517 47.635349 243.737022 47.426194 243.442481 47.272005 
C 243.147939 47.117816 242.748399 47.031181 242.331855 47.031181 
C 241.91531 47.031181 241.51577 47.117816 241.221229 47.272005 
C 240.926687 47.426194 240.761192 47.635349 240.761192 47.853405 
C 240.761192 48.071461 240.926687 48.280616 241.221229 48.434805 
C 241.51577 48.588994 241.91531 48.675629 242.331855 48.675629 
z
" style="fill:#0000ff;opacity:0.2;stroke:#0000ff;stroke-linejoin:miter;stroke-width:2;"/>
   </g>
   <g id="patch_41">
    <path clip-path="url(#pc2ad6c6238)" d="M 335.000937 170.775883 
C 335.417482 170.775883 335.817022 170.689248 336.111564 170.535059 
C 336.406105 170.38087 336.5716 170.171715 336.5716 169.953659 
C 336.5716 169.735602 336.406105 169.526448 336.111564 169.372259 
C 335.817022 169.21807 335.417482 169.131435 335.000937 169.131435 
C 334.584393 169.131435 334.184853 169.21807 333.890311 169.372259 
C 333.59577 169.526448 333.430275 169.735602 333.430275 169.953659 
C 333.430275 170.171715 333.59577 170.38087 333.890311 170.535059 
C 334.184853 170.689248 334.584393 170.775883 335.000937 170.775883 
z
" style="fill:#0000ff;opacity:0.2;stroke:#0000ff;stroke-linejoin:miter;stroke-width:2;"/>
   </g>
   <g id="patch_42">
    <path clip-path="url(#pc2ad6c6238)" d="M 242.331855 292.876136 
C 242.748399 292.876136 243.147939 292.789502 243.442481 292.635313 
C 243.737022 292.481123 243.902517 292.271969 243.902517 292.053912 
C 243.902517 291.835856 243.737022 291.626701 243.442481 291.472512 
C 243.147939 291.318323 242.748399 291.231689 242.331855 291.231689 
C 241.91531 291.231689 241.51577 291.318323 241.221229 291.472512 
C 240.926687 291.626701 240.761192 291.835856 240.761192 292.053912 
C 240.761192 292.271969 240.926687 292.481123 241.221229 292.635313 
C 241.51577 292.789502 241.91531 292.876136 242.331855 292.876136 
z
" style="fill:#0000ff;opacity:0.2;stroke:#0000ff;stroke-linejoin:miter;stroke-width:2;"/>
   </g>
   <g id="patch_43">
    <path clip-path="url(#pc2ad6c6238)" d="M 149.662772 170.775883 
C 150.079316 170.775883 150.478857 170.689248 150.773398 170.535059 
C 151.067939 170.38087 151.233434 170.171715 151.233434 169.953659 
C 151.233434 169.735602 151.067939 169.526448 150.773398 169.372259 
C 150.478857 169.21807 150.079316 169.131435 149.662772 169.131435 
C 149.246227 169.131435 148.846687 169.21807 148.552146 169.372259 
C 148.257604 169.526448 148.09211 169.735602 148.09211 169.953659 
C 148.09211 170.171715 148.257604 170.38087 148.552146 170.535059 
C 148.846687 170.689248 149.246227 170.775883 149.662772 170.775883 
z
" style="fill:#0000ff;opacity:0.2;stroke:#0000ff;stroke-linejoin:miter;stroke-width:2;"/>
   </g>
   <g id="patch_44">
    <path clip-path="url(#pc2ad6c6238)" d="M 175.578702 169.953659 
C 175.578702 133.364694 182.646683 54.431197 242.331855 54.431197 
C 302.017027 54.431197 309.085008 133.364694 309.085008 169.953659 
C 309.085008 206.542624 302.017027 285.476121 242.331855 285.476121 
C 182.646683 285.476121 175.578702 206.542624 175.578702 169.953659 
" style="fill:none;stroke:#ff0000;stroke-linejoin:miter;stroke-width:0.5;"/>
   </g>
   <g id="patch_45">
    <path clip-path="url(#pc2ad6c6238)" d="M 242.331855 47.853405 
C 328.718288 47.853405 335.000937 131.309134 335.000937 169.953659 
C 335.000937 208.598183 328.718288 292.053912 242.331855 292.053912 
C 155.945422 292.053912 149.662772 208.598183 149.662772 169.953659 
C 149.662772 131.309134 155.945422 47.853405 242.331855 47.853405 
" style="fill:none;stroke:#0000ff;stroke-linejoin:miter;stroke-width:0.5;"/>
   </g>
   <g id="[&quot;g_s&quot;:1,&quot;g_t&quot;:4,&quot;coords&quot;:[[225.0, -387.0],[192.0, -387.0]],&quot;certainty&quot;:11]">
    <path clip-path="url(#pc2ad6c6238)" d="M 175.578702 172.420331 
C 176.828335 172.420331 178.026956 172.160426 178.91058 171.697859 
C 179.794204 171.235292 180.290689 170.607828 180.290689 169.953659 
C 180.290689 169.29949 179.794204 168.672026 178.91058 168.209458 
C 178.026956 167.746891 176.828335 167.486987 175.578702 167.486987 
C 174.329068 167.486987 173.130448 167.746891 172.246824 168.209458 
C 171.363199 168.672026 170.866715 169.29949 170.866715 169.953659 
C 170.866715 170.607828 171.363199 171.235292 172.246824 171.697859 
C 173.130448 172.160426 174.329068 172.420331 175.578702 172.420331 
z
" style="fill:#0000ff;opacity:0.2;stroke:#0000ff;stroke-linejoin:miter;stroke-width:2;"/>
   </g>
   <g id="[&quot;g_s&quot;:4,&quot;g_t&quot;:1,&quot;coords&quot;:[[192.0, -387.0],[225.0, -387.0]],&quot;certainty&quot;:11]">
    <path clip-path="url(#pc2ad6c6238)" d="M 149.662772 172.420331 
C 150.912406 172.420331 152.111026 172.160426 152.99465 171.697859 
C 153.878274 171.235292 154.374759 170.607828 154.374759 169.953659 
C 154.374759 169.29949 153.878274 168.672026 152.99465 168.209458 
C 152.111026 167.746891 150.912406 167.486987 149.662772 167.486987 
C 148.413138 167.486987 147.214518 167.746891 146.330894 168.209458 
C 145.447269 168.672026 144.950785 169.29949 144.950785 169.953659 
C 144.950785 170.607828 145.447269 171.235292 146.330894 171.697859 
C 147.214518 172.160426 148.413138 172.420331 149.662772 172.420331 
z
" style="fill:#ff0000;opacity:0.2;stroke:#ff0000;stroke-linejoin:miter;stroke-width:2;"/>
   </g>
   <g id="patch_46">
    <path d="M 175.578702 169.953659 
Q 163.622005 169.953659 153.786629 169.953659 
" style="fill:none;opacity:0.5;stroke:#0000ff;stroke-linecap:round;stroke-width:3;"/>
    <path d="M 155.286629 171.453659 
L 153.786629 169.953659 
L 155.286629 168.453659 
" style="fill:none;opacity:0.5;stroke:#0000ff;stroke-linecap:round;stroke-width:3;"/>
   </g>
   <g id="[&quot;g_s&quot;:2,&quot;g_t&quot;:1,&quot;coords&quot;:[[310.0, -106.0],[310.0, -90.0]],&quot;certainty&quot;:10]">
    <path clip-path="url(#pc2ad6c6238)" d="M 242.331855 56.692312 
C 243.477352 56.692312 244.576087 56.454067 245.386076 56.030047 
C 246.196065 55.606027 246.651176 55.030851 246.651176 54.431197 
C 246.651176 53.831542 246.196065 53.256366 245.386076 52.832346 
C 244.576087 52.408326 243.477352 52.170081 242.331855 52.170081 
C 241.186357 52.170081 240.087622 52.408326 239.277633 52.832346 
C 238.467644 53.256366 238.012533 53.831542 238.012533 54.431197 
C 238.012533 55.030851 238.467644 55.606027 239.277633 56.030047 
C 240.087622 56.454067 241.186357 56.692312 242.331855 56.692312 
z
" style="fill:#0000ff;opacity:0.2;stroke:#0000ff;stroke-linejoin:miter;stroke-width:2;"/>
   </g>
   <g id="[&quot;g_s&quot;:1,&quot;g_t&quot;:2,&quot;coords&quot;:[[310.0, -90.0],[310.0, -106.0]],&quot;certainty&quot;:10]">
    <path clip-path="url(#pc2ad6c6238)" d="M 242.331855 50.114521 
C 243.477352 50.114521 244.576087 49.876275 245.386076 49.452255 
C 246.196065 49.028235 246.651176 48.45306 246.651176 47.853405 
C 246.651176 47.25375 246.196065 46.678575 245.386076 46.254555 
C 244.576087 45.830535 243.477352 45.592289 242.331855 45.592289 
C 241.186357 45.592289 240.087622 45.830535 239.277633 46.254555 
C 238.467644 46.678575 238.012533 47.25375 238.012533 47.853405 
C 238.012533 48.45306 238.467644 49.028235 239.277633 49.452255 
C 240.087622 49.876275 241.186357 50.114521 242.331855 50.114521 
z
" style="fill:#ff0000;opacity:0.2;stroke:#ff0000;stroke-linejoin:miter;stroke-width:2;"/>
   </g>
   <g id="patch_47">
    <path d="M 242.331855 54.431197 
Q 242.331855 52.14278 242.331855 51.798908 
" style="fill:none;opacity:0.5;stroke:#0000ff;stroke-linecap:round;stroke-width:2.75;"/>
    <path d="M 240.831855 53.298908 
L 242.331855 51.798908 
L 243.831855 53.298908 
" style="fill:none;opacity:0.5;stroke:#0000ff;stroke-linecap:round;stroke-width:2.75;"/>
   </g>
   <g id="[&quot;g_s&quot;:3,&quot;g_t&quot;:2,&quot;coords&quot;:[[395.0, -387.0],[428.0, -387.0]],&quot;certainty&quot;:12]">
    <path clip-path="url(#pc2ad6c6238)" d="M 309.085008 172.625887 
C 310.438777 172.625887 311.737282 172.344324 312.694542 171.843209 
C 313.651802 171.342095 314.18966 170.662342 314.18966 169.953659 
C 314.18966 169.244976 313.651802 168.565223 312.694542 168.064108 
C 311.737282 167.562994 310.438777 167.281431 309.085008 167.281431 
C 307.731238 167.281431 306.432733 167.562994 305.475473 168.064108 
C 304.518213 168.565223 303.980355 169.244976 303.980355 169.953659 
C 303.980355 170.662342 304.518213 171.342095 305.475473 171.843209 
C 306.432733 172.344324 307.731238 172.625887 309.085008 172.625887 
z
" style="fill:#0000ff;opacity:0.2;stroke:#0000ff;stroke-linejoin:miter;stroke-width:2;"/>
   </g>
   <g id="[&quot;g_s&quot;:2,&quot;g_t&quot;:3,&quot;coords&quot;:[[428.0, -387.0],[395.0, -387.0]],&quot;certainty&quot;:12]">
    <path clip-path="url(#pc2ad6c6238)" d="M 335.000937 172.625887 
C 336.354707 172.625887 337.653212 172.344324 338.610472 171.843209 
C 339.567732 171.342095 340.10559 170.662342 340.10559 169.953659 
C 340.10559 169.244976 339.567732 168.565223 338.610472 168.064108 
C 337.653212 167.562994 336.354707 167.281431 335.000937 167.281431 
C 333.647168 167.281431 332.348663 167.562994 331.391403 168.064108 
C 330.434143 168.565223 329.896285 169.244976 329.896285 169.953659 
C 329.896285 170.662342 330.434143 171.342095 331.391403 171.843209 
C 332.348663 172.344324 333.647168 172.625887 335.000937 172.625887 
z
" style="fill:#ff0000;opacity:0.2;stroke:#ff0000;stroke-linejoin:miter;stroke-width:2;"/>
   </g>
   <g id="patch_48">
    <path d="M 309.085008 169.953659 
Q 321.041704 169.953659 330.700303 169.953659 
" style="fill:none;opacity:0.5;stroke:#0000ff;stroke-linecap:round;stroke-width:3.25;"/>
    <path d="M 329.200303 168.453659 
L 330.700303 169.953659 
L 329.200303 171.453659 
" style="fill:none;opacity:0.5;stroke:#0000ff;stroke-linecap:round;stroke-width:3.25;"/>
   </g>
   <g id="[&quot;g_s&quot;:4,&quot;g_t&quot;:3,&quot;coords&quot;:[[310.0, -668.0],[310.0, -684.0]],&quot;certainty&quot;:11]">
    <path clip-path="url(#pc2ad6c6238)" d="M 242.331855 287.942793 
C 243.581488 287.942793 244.780108 287.682889 245.663733 287.220321 
C 246.547357 286.757754 247.043842 286.13029 247.043842 285.476121 
C 247.043842 284.821952 246.547357 284.194488 245.663733 283.731921 
C 244.780108 283.269353 243.581488 283.009449 242.331855 283.009449 
C 241.082221 283.009449 239.883601 283.269353 238.999977 283.731921 
C 238.116352 284.194488 237.619867 284.821952 237.619867 285.476121 
C 237.619867 286.13029 238.116352 286.757754 238.999977 287.220321 
C 239.883601 287.682889 241.082221 287.942793 242.331855 287.942793 
z
" style="fill:#0000ff;opacity:0.2;stroke:#0000ff;stroke-linejoin:miter;stroke-width:2;"/>
   </g>
   <g id="[&quot;g_s&quot;:3,&quot;g_t&quot;:4,&quot;coords&quot;:[[310.0, -684.0],[310.0, -668.0]],&quot;certainty&quot;:11]">
    <path clip-path="url(#pc2ad6c6238)" d="M 242.331855 294.520584 
C 243.581488 294.520584 244.780108 294.26068 245.663733 293.798113 
C 246.547357 293.335545 247.043842 292.708081 247.043842 292.053912 
C 247.043842 291.399743 246.547357 290.772279 245.663733 290.309712 
C 244.780108 289.847145 243.581488 289.587241 242.331855 289.587241 
C 241.082221 289.587241 239.883601 289.847145 238.999977 290.309712 
C 238.116352 290.772279 237.619867 291.399743 237.619867 292.053912 
C 237.619867 292.708081 238.116352 293.335545 238.999977 293.798113 
C 239.883601 294.26068 241.082221 294.520584 242.331855 294.520584 
z
" style="fill:#ff0000;opacity:0.2;stroke:#ff0000;stroke-linejoin:miter;stroke-width:2;"/>
   </g>
   <g id="patch_49">
    <path d="M 242.331855 285.476121 
Q 242.331855 287.764537 242.331855 287.931633 
" style="fill:none;opacity:0.5;stroke:#0000ff;stroke-linecap:round;stroke-width:3;"/>
    <path d="M 243.831855 286.431633 
L 242.331855 287.931633 
L 240.831855 286.431633 
" style="fill:none;opacity:0.5;stroke:#0000ff;stroke-linecap:round;stroke-width:3;"/>
   </g>
   <g id="[&quot;g_s&quot;:1,&quot;g_t&quot;:2,&quot;coords&quot;:[[310.0, -90.0],[310.0, -106.0]],&quot;certainty&quot;:10]">
    <path clip-path="url(#pc2ad6c6238)" d="M 242.331855 50.114521 
C 243.477352 50.114521 244.576087 49.876275 245.386076 49.452255 
C 246.196065 49.028235 246.651176 48.45306 246.651176 47.853405 
C 246.651176 47.25375 246.196065 46.678575 245.386076 46.254555 
C 244.576087 45.830535 243.477352 45.592289 242.331855 45.592289 
C 241.186357 45.592289 240.087622 45.830535 239.277633 46.254555 
C 238.467644 46.678575 238.012533 47.25375 238.012533 47.853405 
C 238.012533 48.45306 238.467644 49.028235 239.277633 49.452255 
C 240.087622 49.876275 241.186357 50.114521 242.331855 50.114521 
z
" style="fill:#0000ff;opacity:0.2;stroke:#0000ff;stroke-linejoin:miter;stroke-width:2;"/>
   </g>
   <g id="[&quot;g_s&quot;:2,&quot;g_t&quot;:1,&quot;coords&quot;:[[310.0, -106.0],[310.0, -90.0]],&quot;certainty&quot;:10]">
    <path clip-path="url(#pc2ad6c6238)" d="M 242.331855 56.692312 
C 243.477352 56.692312 244.576087 56.454067 245.386076 56.030047 
C 246.196065 55.606027 246.651176 55.030851 246.651176 54.431197 
C 246.651176 53.831542 246.196065 53.256366 245.386076 52.832346 
C 244.576087 52.408326 243.477352 52.170081 242.331855 52.170081 
C 241.186357 52.170081 240.087622 52.408326 239.277633 52.832346 
C 238.467644 53.256366 238.012533 53.831542 238.012533 54.431197 
C 238.012533 55.030851 238.467644 55.606027 239.277633 56.030047 
C 240.087622 56.454067 241.186357 56.692312 242.331855 56.692312 
z
" style="fill:#ff0000;opacity:0.2;stroke:#ff0000;stroke-linejoin:miter;stroke-width:2;"/>
   </g>
   <g id="patch_50">
    <path d="M 242.331855 47.853405 
Q 242.331855 50.141821 242.331855 50.485694 
" style="fill:none;opacity:0.5;stroke:#ff0000;stroke-linecap:round;stroke-width:2.75;"/>
    <path d="M 243.831855 48.985694 
L 242.331855 50.485694 
L 240.831855 48.985694 
" style="fill:none;opacity:0.5;stroke:#ff0000;stroke-linecap:round;stroke-width:2.75;"/>
   </g>
   <g id="[&quot;g_s&quot;:2,&quot;g_t&quot;:3,&quot;coords&quot;:[[428.0, -387.0],[395.0, -387.0]],&quot;certainty&quot;:12]">
    <path clip-path="url(#pc2ad6c6238)" d="M 335.000937 172.625887 
C 336.354707 172.625887 337.653212 172.344324 338.610472 171.843209 
C 339.567732 171.342095 340.10559 170.662342 340.10559 169.953659 
C 340.10559 169.244976 339.567732 168.565223 338.610472 168.064108 
C 337.653212 167.562994 336.354707 167.281431 335.000937 167.281431 
C 333.647168 167.281431 332.348663 167.562994 331.391403 168.064108 
C 330.434143 168.565223 329.896285 169.244976 329.896285 169.953659 
C 329.896285 170.662342 330.434143 171.342095 331.391403 171.843209 
C 332.348663 172.344324 333.647168 172.625887 335.000937 172.625887 
z
" style="fill:#0000ff;opacity:0.2;stroke:#0000ff;stroke-linejoin:miter;stroke-width:2;"/>
   </g>
   <g id="[&quot;g_s&quot;:3,&quot;g_t&quot;:2,&quot;coords&quot;:[[395.0, -387.0],[428.0, -387.0]],&quot;certainty&quot;:12]">
    <path clip-path="url(#pc2ad6c6238)" d="M 309.085008 172.625887 
C 310.438777 172.625887 311.737282 172.344324 312.694542 171.843209 
C 313.651802 171.342095 314.18966 170.662342 314.18966 169.953659 
C 314.18966 169.244976 313.651802 168.565223 312.694542 168.064108 
C 311.737282 167.562994 310.438777 167.281431 309.085008 167.281431 
C 307.731238 167.281431 306.432733 167.562994 305.475473 168.064108 
C 304.518213 168.565223 303.980355 169.244976 303.980355 169.953659 
C 303.980355 170.662342 304.518213 171.342095 305.475473 171.843209 
C 306.432733 172.344324 307.731238 172.625887 309.085008 172.625887 
z
" style="fill:#ff0000;opacity:0.2;stroke:#ff0000;stroke-linejoin:miter;stroke-width:2;"/>
   </g>
   <g id="patch_51">
    <path d="M 335.000937 169.953659 
Q 323.044241 169.953659 313.385642 169.953659 
" style="fill:none;opacity:0.5;stroke:#ff0000;stroke-linecap:round;stroke-width:3.25;"/>
    <path d="M 314.885642 171.453659 
L 313.385642 169.953659 
L 314.885642 168.453659 
" style="fill:none;opacity:0.5;stroke:#ff0000;stroke-linecap:round;stroke-width:3.25;"/>
   </g>
   <g id="[&quot;g_s&quot;:3,&quot;g_t&quot;:4,&quot;coords&quot;:[[310.0, -684.0],[310.0, -668.0]],&quot;certainty&quot;:11]">
    <path clip-path="url(#pc2ad6c6238)" d="M 242.331855 294.520584 
C 243.581488 294.520584 244.780108 294.26068 245.663733 293.798113 
C 246.547357 293.335545 247.043842 292.708081 247.043842 292.053912 
C 247.043842 291.399743 246.547357 290.772279 245.663733 290.309712 
C 244.780108 289.847145 243.581488 289.587241 242.331855 289.587241 
C 241.082221 289.587241 239.883601 289.847145 238.999977 290.309712 
C 238.116352 290.772279 237.619867 291.399743 237.619867 292.053912 
C 237.619867 292.708081 238.116352 293.335545 238.999977 293.798113 
C 239.883601 294.26068 241.082221 294.520584 242.331855 294.520584 
z
" style="fill:#0000ff;opacity:0.2;stroke:#0000ff;stroke-linejoin:miter;stroke-width:2;"/>
   </g>
   <g id="[&quot;g_s&quot;:4,&quot;g_t&quot;:3,&quot;coords&quot;:[[310.0, -668.0],[310.0, -684.0]],&quot;certainty&quot;:11]">
    <path clip-path="url(#pc2ad6c6238)" d="M 242.331855 287.942793 
C 243.581488 287.942793 244.780108 287.682889 245.663733 287.220321 
C 246.547357 286.757754 247.043842 286.13029 247.043842 285.476121 
C 247.043842 284.821952 246.547357 284.194488 245.663733 283.731921 
C 244.780108 283.269353 243.581488 283.009449 242.331855 283.009449 
C 241.082221 283.009449 239.883601 283.269353 238.999977 283.731921 
C 238.116352 284.194488 237.619867 284.821952 237.619867 285.476121 
C 237.619867 286.13029 238.116352 286.757754 238.999977 287.220321 
C 239.883601 287.682889 241.082221 287.942793 242.331855 287.942793 
z
" style="fill:#ff0000;opacity:0.2;stroke:#ff0000;stroke-linejoin:miter;stroke-width:2;"/>
   </g>
   <g id="patch_52">
    <path d="M 242.331855 292.053912 
Q 242.331855 289.765496 242.331855 289.5984 
" style="fill:none;opacity:0.5;stroke:#ff0000;stroke-linecap:round;stroke-width:3;"/>
    <path d="M 240.831855 291.0984 
L 242.331855 289.5984 
L 243.831855 291.0984 
" style="fill:none;opacity:0.5;stroke:#ff0000;stroke-linecap:round;stroke-width:3;"/>
   </g>
   <g id="[&quot;g_s&quot;:4,&quot;g_t&quot;:1,&quot;coords&quot;:[[192.0, -387.0],[225.0, -387.0]],&quot;certainty&quot;:11]">
    <path clip-path="url(#pc2ad6c6238)" d="M 149.662772 172.420331 
C 150.912406 172.420331 152.111026 172.160426 152.99465 171.697859 
C 153.878274 171.235292 154.374759 170.607828 154.374759 169.953659 
C 154.374759 169.29949 153.878274 168.672026 152.99465 168.209458 
C 152.111026 167.746891 150.912406 167.486987 149.662772 167.486987 
C 148.413138 167.486987 147.214518 167.746891 146.330894 168.209458 
C 145.447269 168.672026 144.950785 169.29949 144.950785 169.953659 
C 144.950785 170.607828 145.447269 171.235292 146.330894 171.697859 
C 147.214518 172.160426 148.413138 172.420331 149.662772 172.420331 
z
" style="fill:#0000ff;opacity:0.2;stroke:#0000ff;stroke-linejoin:miter;stroke-width:2;"/>
   </g>
   <g id="[&quot;g_s&quot;:1,&quot;g_t&quot;:4,&quot;coords&quot;:[[225.0, -387.0],[192.0, -387.0]],&quot;certainty&quot;:11]">
    <path clip-path="url(#pc2ad6c6238)" d="M 175.578702 172.420331 
C 176.828335 172.420331 178.026956 172.160426 178.91058 171.697859 
C 179.794204 171.235292 180.290689 170.607828 180.290689 169.953659 
C 180.290689 169.29949 179.794204 168.672026 178.91058 168.209458 
C 178.026956 167.746891 176.828335 167.486987 175.578702 167.486987 
C 174.329068 167.486987 173.130448 167.746891 172.246824 168.209458 
C 171.363199 168.672026 170.866715 169.29949 170.866715 169.953659 
C 170.866715 170.607828 171.363199 171.235292 172.246824 171.697859 
C 173.130448 172.160426 174.329068 172.420331 175.578702 172.420331 
z
" style="fill:#ff0000;opacity:0.2;stroke:#ff0000;stroke-linejoin:miter;stroke-width:2;"/>
   </g>
   <g id="patch_53">
    <path d="M 149.662772 169.953659 
Q 161.619468 169.953659 171.454844 169.953659 
" style="fill:none;opacity:0.5;stroke:#ff0000;stroke-linecap:round;stroke-width:3;"/>
    <path d="M 169.954844 168.453659 
L 171.454844 169.953659 
L 169.954844 171.453659 
" style="fill:none;opacity:0.5;stroke:#ff0000;stroke-linecap:round;stroke-width:3;"/>
   </g>
   <g id="patch_54">
    <path clip-path="url(#pc2ad6c6238)" d="M 162.620737 172.009219 
C 163.662098 172.009219 164.660948 171.792632 165.397302 171.407159 
C 166.133656 171.021686 166.547393 170.4988 166.547393 169.953659 
C 166.547393 169.408518 166.133656 168.885631 165.397302 168.500158 
C 164.660948 168.114686 163.662098 167.898099 162.620737 167.898099 
C 161.579376 167.898099 160.580525 168.114686 159.844172 168.500158 
C 159.107818 168.885631 158.694081 169.408518 158.694081 169.953659 
C 158.694081 170.4988 159.107818 171.021686 159.844172 171.407159 
C 160.580525 171.792632 161.579376 172.009219 162.620737 172.009219 
z
" style="fill:#008000;opacity:0.2;stroke:#008000;stroke-linejoin:miter;stroke-width:2;"/>
   </g>
   <g id="patch_55">
    <path clip-path="url(#pc2ad6c6238)" d="M 242.331855 53.197861 
C 243.373216 53.197861 244.372066 52.981274 245.10842 52.595801 
C 245.844773 52.210328 246.258511 51.687442 246.258511 51.142301 
C 246.258511 50.59716 245.844773 50.074273 245.10842 49.688801 
C 244.372066 49.303328 243.373216 49.086741 242.331855 49.086741 
C 241.290493 49.086741 240.291643 49.303328 239.55529 49.688801 
C 238.818936 50.074273 238.405199 50.59716 238.405199 51.142301 
C 238.405199 51.687442 238.818936 52.210328 239.55529 52.595801 
C 240.291643 52.981274 241.290493 53.197861 242.331855 53.197861 
z
" style="fill:#008000;opacity:0.2;stroke:#008000;stroke-linejoin:miter;stroke-width:2;"/>
   </g>
   <g id="patch_56">
    <path clip-path="url(#pc2ad6c6238)" d="M 322.042973 172.009219 
C 323.084334 172.009219 324.083184 171.792632 324.819538 171.407159 
C 325.555891 171.021686 325.969629 170.4988 325.969629 169.953659 
C 325.969629 169.408518 325.555891 168.885631 324.819538 168.500158 
C 324.083184 168.114686 323.084334 167.898099 322.042973 167.898099 
C 321.001611 167.898099 320.002761 168.114686 319.266407 168.500158 
C 318.530054 168.885631 318.116316 169.408518 318.116316 169.953659 
C 318.116316 170.4988 318.530054 171.021686 319.266407 171.407159 
C 320.002761 171.792632 321.001611 172.009219 322.042973 172.009219 
z
" style="fill:#008000;opacity:0.2;stroke:#008000;stroke-linejoin:miter;stroke-width:2;"/>
   </g>
   <g id="patch_57">
    <path clip-path="url(#pc2ad6c6238)" d="M 242.331855 290.820577 
C 243.373216 290.820577 244.372066 290.60399 245.10842 290.218517 
C 245.844773 289.833044 246.258511 289.310158 246.258511 288.765017 
C 246.258511 288.219876 245.844773 287.696989 245.10842 287.311516 
C 244.372066 286.926044 243.373216 286.709457 242.331855 286.709457 
C 241.290493 286.709457 240.291643 286.926044 239.55529 287.311516 
C 238.818936 287.696989 238.405199 288.219876 238.405199 288.765017 
C 238.405199 289.310158 238.818936 289.833044 239.55529 290.218517 
C 240.291643 290.60399 241.290493 290.820577 242.331855 290.820577 
z
" style="fill:#008000;opacity:0.2;stroke:#008000;stroke-linejoin:miter;stroke-width:2;"/>
   </g>
   <g id="patch_58">
    <path clip-path="url(#pc2ad6c6238)" d="M 175.578702 178.175898 
C 179.744147 178.175898 183.739548 177.309551 186.684962 175.76766 
C 189.630377 174.225769 191.285326 172.134222 191.285326 169.953659 
C 191.285326 167.773095 189.630377 165.681549 186.684962 164.139658 
C 183.739548 162.597766 179.744147 161.731419 175.578702 161.731419 
C 171.413256 161.731419 167.417856 162.597766 164.472441 164.139658 
C 161.527027 165.681549 159.872078 167.773095 159.872078 169.953659 
C 159.872078 172.134222 161.527027 174.225769 164.472441 175.76766 
C 167.417856 177.309551 171.413256 178.175898 175.578702 178.175898 
z
" style="fill:none;opacity:0.2;stroke:#ff0000;stroke-linejoin:miter;stroke-width:2;"/>
   </g>
   <g id="patch_59">
    <path clip-path="url(#pc2ad6c6238)" d="M 242.331855 56.075644 
C 246.4973 56.075644 250.4927 55.209297 253.438115 53.667406 
C 256.38353 52.125515 258.038479 50.033968 258.038479 47.853405 
C 258.038479 45.672842 256.38353 43.581295 253.438115 42.039404 
C 250.4927 40.497513 246.4973 39.631166 242.331855 39.631166 
C 238.166409 39.631166 234.171009 40.497513 231.225594 42.039404 
C 228.28018 43.581295 226.62523 45.672842 226.62523 47.853405 
C 226.62523 50.033968 228.28018 52.125515 231.225594 53.667406 
C 234.171009 55.209297 238.166409 56.075644 242.331855 56.075644 
z
" style="fill:none;opacity:0.2;stroke:#0000ff;stroke-linejoin:miter;stroke-width:2;"/>
   </g>
   <g id="patch_60">
    <path clip-path="url(#pc2ad6c6238)" d="M 175.578702 174.064778 
C 177.661425 174.064778 179.659125 173.631605 181.131832 172.860659 
C 182.604539 172.089714 183.432014 171.04394 183.432014 169.953659 
C 183.432014 168.863377 182.604539 167.817604 181.131832 167.046658 
C 179.659125 166.275713 177.661425 165.842539 175.578702 165.842539 
C 173.495979 165.842539 171.498279 166.275713 170.025572 167.046658 
C 168.552864 167.817604 167.72539 168.863377 167.72539 169.953659 
C 167.72539 171.04394 168.552864 172.089714 170.025572 172.860659 
C 171.498279 173.631605 173.495979 174.064778 175.578702 174.064778 
z
" style="fill:none;opacity:0.2;stroke:#008000;stroke-linejoin:miter;stroke-width:2;"/>
   </g>
   <g id="patch_61">
    <path clip-path="url(#pc2ad6c6238)" d="M 149.662772 174.064778 
C 151.745495 174.064778 153.743195 173.631605 155.215902 172.860659 
C 156.68861 172.089714 157.516084 171.04394 157.516084 169.953659 
C 157.516084 168.863377 156.68861 167.817604 155.215902 167.046658 
C 153.743195 166.275713 151.745495 165.842539 149.662772 165.842539 
C 147.580049 165.842539 145.582349 166.275713 144.109642 167.046658 
C 142.636934 167.817604 141.80946 168.863377 141.80946 169.953659 
C 141.80946 171.04394 142.636934 172.089714 144.109642 172.860659 
C 145.582349 173.631605 147.580049 174.064778 149.662772 174.064778 
z
" style="fill:none;opacity:0.2;stroke:#008000;stroke-linejoin:miter;stroke-width:2;"/>
   </g>
   <g id="patch_62">
    <path d="M 162.620737 169.953659 
Q 202.476296 110.54798 242.331855 51.142301 
" style="fill:none;opacity:0.5;stroke:#008000;stroke-linecap:round;stroke-width:2;"/>
   </g>
   <g id="patch_63">
    <path d="M 174.164488 169.953659 
Q 163.622005 169.953659 153.079523 169.953659 
" style="fill:none;opacity:0.5;stroke:#800080;stroke-linecap:round;stroke-width:2;"/>
    <path d="M 172.664488 168.453659 
L 174.164488 169.953659 
L 172.664488 171.453659 
" style="fill:none;opacity:0.5;stroke:#800080;stroke-linecap:round;stroke-width:2;"/>
    <path d="M 154.579523 171.453659 
L 153.079523 169.953659 
L 154.579523 168.453659 
" style="fill:none;opacity:0.5;stroke:#800080;stroke-linecap:round;stroke-width:2;"/>
   </g>
   <g id="patch_64">
    <path d="M 242.331855 51.142301 
Q 282.187414 110.54798 322.042973 169.953659 
" style="fill:none;opacity:0.5;stroke:#008000;stroke-linecap:round;stroke-width:2;"/>
   </g>
   <g id="patch_65">
    <path d="M 242.331855 53.016983 
Q 242.331855 52.14278 242.331855 51.268578 
" style="fill:none;opacity:0.5;stroke:#800080;stroke-linecap:round;stroke-width:2;"/>
    <path d="M 243.831855 51.516983 
L 242.331855 53.016983 
L 240.831855 51.516983 
" style="fill:none;opacity:0.5;stroke:#800080;stroke-linecap:round;stroke-width:2;"/>
    <path d="M 240.831855 52.768578 
L 242.331855 51.268578 
L 243.831855 52.768578 
" style="fill:none;opacity:0.5;stroke:#800080;stroke-linecap:round;stroke-width:2;"/>
   </g>
   <g id="patch_66">
    <path d="M 322.042973 169.953659 
Q 282.187414 229.359338 242.331855 288.765017 
" style="fill:none;opacity:0.5;stroke:#008000;stroke-linecap:round;stroke-width:2;"/>
   </g>
   <g id="patch_67">
    <path d="M 310.499221 169.953659 
Q 321.041704 169.953659 331.584187 169.953659 
" style="fill:none;opacity:0.5;stroke:#800080;stroke-linecap:round;stroke-width:2;"/>
    <path d="M 311.999221 171.453659 
L 310.499221 169.953659 
L 311.999221 168.453659 
" style="fill:none;opacity:0.5;stroke:#800080;stroke-linecap:round;stroke-width:2;"/>
    <path d="M 330.084187 168.453659 
L 331.584187 169.953659 
L 330.084187 171.453659 
" style="fill:none;opacity:0.5;stroke:#800080;stroke-linecap:round;stroke-width:2;"/>
   </g>
   <g id="patch_68">
    <path d="M 242.331855 288.765017 
Q 202.476296 229.359338 162.620737 169.953659 
" style="fill:none;opacity:0.5;stroke:#008000;stroke-linecap:round;stroke-width:2;"/>
   </g>
   <g id="patch_69">
    <path d="M 242.331855 286.890335 
Q 242.331855 287.764537 242.331855 288.63874 
" style="fill:none;opacity:0.5;stroke:#800080;stroke-linecap:round;stroke-width:2;"/>
    <path d="M 240.831855 288.390335 
L 242.331855 286.890335 
L 243.831855 288.390335 
" style="fill:none;opacity:0.5;stroke:#800080;stroke-linecap:round;stroke-width:2;"/>
    <path d="M 243.831855 287.13874 
L 242.331855 288.63874 
L 240.831855 287.13874 
" style="fill:none;opacity:0.5;stroke:#800080;stroke-linecap:round;stroke-width:2;"/>
   </g>
   <g id="line2d_1">
    <path clip-path="url(#pc2ad6c6238)" d="M 242.331855 35.520046 
L 423.743364 169.953659 
L 242.331855 304.387271 
L 60.920345 169.953659 
" style="fill:none;stroke:#ff0000;stroke-linecap:square;stroke-width:0.2;"/>
   </g>
   <g id="line2d_2">
    <path clip-path="url(#pc2ad6c6238)" d="M 242.331855 35.520046 
L 404.895415 169.953659 
L 242.331855 304.387271 
L 79.768294 169.953659 
" style="fill:none;stroke:#0000ff;stroke-linecap:square;stroke-width:0.2;"/>
   </g>
   <g id="line2d_3">
    <path clip-path="url(#pc2ad6c6238)" d="M 175.578702 169.953659 
L 242.331855 54.431197 
L 309.085008 169.953659 
L 242.331855 285.476121 
" style="fill:none;stroke:#ff0000;stroke-linecap:square;stroke-width:0.2;"/>
   </g>
   <g id="line2d_4">
    <path clip-path="url(#pc2ad6c6238)" d="M 242.331855 47.853405 
L 335.000937 169.953659 
L 242.331855 292.053912 
L 149.662772 169.953659 
" style="fill:none;stroke:#0000ff;stroke-linecap:square;stroke-width:0.2;"/>
   </g>
  </g>
 </g>
 <defs>
  <clipPath id="pc2ad6c6238">
   <rect height="307.51175" width="409.903625" x="37.576375" y="13.32"/>
  </clipPath>
 </defs>
</svg>
