<?xml version="1.0" encoding="utf-8" standalone="no"?>
<!DOCTYPE svg PUBLIC "-//W3C//DTD SVG 1.1//EN"
  "http://www.w3.org/Graphics/SVG/1.1/DTD/svg11.dtd">
<!-- Created with matplotlib (http://matplotlib.org/) -->
<svg height="345.6pt" version="1.1" viewBox="0 0 460.8 345.6" width="460.8pt" xmlns="http://www.w3.org/2000/svg" xmlns:xlink="http://www.w3.org/1999/xlink">
 <defs>
  <style type="text/css">
*{stroke-linecap:butt;stroke-linejoin:round;}
  </style>
 </defs>
 <g id="figure_1">
  <g id="patch_1">
   <path d="M 0 345.6 
L 460.8 345.6 
L 460.8 0 
L 0 0 
z
" style="fill:#ffffff;"/>
  </g>
  <g id="axes_1">
   <g id="patch_2">
    <path clip-path="url(#pb9d4efe761)" d="M 242.334306 39.965644 
C 242.745649 39.965644 243.1402 39.844302 243.431064 39.628342 
C 243.721928 39.412382 243.885356 39.119436 243.885356 38.814023 
C 243.885356 38.508609 243.721928 38.215663 243.431064 37.999703 
C 243.1402 37.783743 242.745649 37.662401 242.334306 37.662401 
C 241.922963 37.662401 241.528412 37.783743 241.237549 37.999703 
C 240.946685 38.215663 240.783257 38.508609 240.783257 38.814023 
C 240.783257 39.119436 240.946685 39.412382 241.237549 39.628342 
C 241.528412 39.844302 241.922963 39.965644 242.334306 39.965644 
z
" style="fill:#ff0000;opacity:0.2;stroke:#ff0000;stroke-linejoin:miter;stroke-width:2;"/>
   </g>
   <g id="patch_3">
    <path clip-path="url(#pb9d4efe761)" d="M 423.807106 171.250503 
C 424.218449 171.250503 424.613 171.129161 424.903864 170.913201 
C 425.194727 170.697241 425.358156 170.404295 425.358156 170.098882 
C 425.358156 169.793468 425.194727 169.500522 424.903864 169.284562 
C 424.613 169.068602 424.218449 168.94726 423.807106 168.94726 
C 423.395763 168.94726 423.001212 169.068602 422.710348 169.284562 
C 422.419485 169.500522 422.256056 169.793468 422.256056 170.098882 
C 422.256056 170.404295 422.419485 170.697241 422.710348 170.913201 
C 423.001212 171.129161 423.395763 171.250503 423.807106 171.250503 
z
" style="fill:#ff0000;opacity:0.2;stroke:#ff0000;stroke-linejoin:miter;stroke-width:2;"/>
   </g>
   <g id="patch_4">
    <path clip-path="url(#pb9d4efe761)" d="M 242.334306 302.535362 
C 242.745649 302.535362 243.1402 302.41402 243.431064 302.19806 
C 243.721928 301.9821 243.885356 301.689154 243.885356 301.383741 
C 243.885356 301.078327 243.721928 300.785381 243.431064 300.569421 
C 243.1402 300.353461 242.745649 300.232119 242.334306 300.232119 
C 241.922963 300.232119 241.528412 300.353461 241.237549 300.569421 
C 240.946685 300.785381 240.783257 301.078327 240.783257 301.383741 
C 240.783257 301.689154 240.946685 301.9821 241.237549 302.19806 
C 241.528412 302.41402 241.922963 302.535362 242.334306 302.535362 
z
" style="fill:#ff0000;opacity:0.2;stroke:#ff0000;stroke-linejoin:miter;stroke-width:2;"/>
   </g>
   <g id="patch_5">
    <path clip-path="url(#pb9d4efe761)" d="M 60.861507 171.250503 
C 61.27285 171.250503 61.667401 171.129161 61.958264 170.913201 
C 62.249128 170.697241 62.412556 170.404295 62.412556 170.098882 
C 62.412556 169.793468 62.249128 169.500522 61.958264 169.284562 
C 61.667401 169.068602 61.27285 168.94726 60.861507 168.94726 
C 60.450164 168.94726 60.055613 169.068602 59.764749 169.284562 
C 59.473885 169.500522 59.310457 169.793468 59.310457 170.098882 
C 59.310457 170.404295 59.473885 170.697241 59.764749 170.913201 
C 60.055613 171.129161 60.450164 171.250503 60.861507 171.250503 
z
" style="fill:#ff0000;opacity:0.2;stroke:#ff0000;stroke-linejoin:miter;stroke-width:2;"/>
   </g>
   <g id="patch_6">
    <path clip-path="url(#pb9d4efe761)" d="M 242.334306 45.147941 
C 242.745649 45.147941 243.1402 45.026599 243.431064 44.810639 
C 243.721928 44.594679 243.885356 44.301733 243.885356 43.99632 
C 243.885356 43.690906 243.721928 43.39796 243.431064 43.182 
C 243.1402 42.96604 242.745649 42.844698 242.334306 42.844698 
C 241.922963 42.844698 241.528412 42.96604 241.237549 43.182 
C 240.946685 43.39796 240.783257 43.690906 240.783257 43.99632 
C 240.783257 44.301733 240.946685 44.594679 241.237549 44.810639 
C 241.528412 45.026599 241.922963 45.147941 242.334306 45.147941 
z
" style="fill:#0000ff;opacity:0.2;stroke:#0000ff;stroke-linejoin:miter;stroke-width:2;"/>
   </g>
   <g id="patch_7">
    <path clip-path="url(#pb9d4efe761)" d="M 412.949759 175.281179 
C 413.361102 175.281179 413.755653 175.159837 414.046517 174.943877 
C 414.33738 174.727917 414.500809 174.434971 414.500809 174.129557 
C 414.500809 173.824144 414.33738 173.531198 414.046517 173.315238 
C 413.755653 173.099278 413.361102 172.977936 412.949759 172.977936 
C 412.538416 172.977936 412.143865 173.099278 411.853001 173.315238 
C 411.562138 173.531198 411.398709 173.824144 411.398709 174.129557 
C 411.398709 174.434971 411.562138 174.727917 411.853001 174.943877 
C 412.143865 175.159837 412.538416 175.281179 412.949759 175.281179 
z
" style="fill:#0000ff;opacity:0.2;stroke:#0000ff;stroke-linejoin:miter;stroke-width:2;"/>
   </g>
   <g id="patch_8">
    <path clip-path="url(#pb9d4efe761)" d="M 242.334306 304.262795 
C 242.745649 304.262795 243.1402 304.141453 243.431064 303.925492 
C 243.721928 303.709532 243.885356 303.416587 243.885356 303.111173 
C 243.885356 302.805759 243.721928 302.512814 243.431064 302.296854 
C 243.1402 302.080894 242.745649 301.959552 242.334306 301.959552 
C 241.922963 301.959552 241.528412 302.080894 241.237549 302.296854 
C 240.946685 302.512814 240.783257 302.805759 240.783257 303.111173 
C 240.783257 303.416587 240.946685 303.709532 241.237549 303.925492 
C 241.528412 304.141453 241.922963 304.262795 242.334306 304.262795 
z
" style="fill:#0000ff;opacity:0.2;stroke:#0000ff;stroke-linejoin:miter;stroke-width:2;"/>
   </g>
   <g id="patch_9">
    <path clip-path="url(#pb9d4efe761)" d="M 71.718854 175.281179 
C 72.130197 175.281179 72.524748 175.159837 72.815611 174.943877 
C 73.106475 174.727917 73.269903 174.434971 73.269903 174.129557 
C 73.269903 173.824144 73.106475 173.531198 72.815611 173.315238 
C 72.524748 173.099278 72.130197 172.977936 71.718854 172.977936 
C 71.30751 172.977936 70.91296 173.099278 70.622096 173.315238 
C 70.331232 173.531198 70.167804 173.824144 70.167804 174.129557 
C 70.167804 174.434971 70.331232 174.727917 70.622096 174.943877 
C 70.91296 175.159837 71.30751 175.281179 71.718854 175.281179 
z
" style="fill:#0000ff;opacity:0.2;stroke:#0000ff;stroke-linejoin:miter;stroke-width:2;"/>
   </g>
   <g id="patch_10">
    <path clip-path="url(#pb9d4efe761)" d="M 242.334306 38.814023 
C 351.683301 38.814023 423.807106 95.81929 423.807106 170.098882 
C 423.807106 244.378473 351.683301 301.383741 242.334306 301.383741 
C 132.985312 301.383741 60.861507 244.378473 60.861507 170.098882 
C 60.861507 95.81929 132.985312 38.814023 242.334306 38.814023 
" style="fill:none;stroke:#ff0000;stroke-linejoin:miter;stroke-width:0.5;"/>
   </g>
   <g id="patch_11">
    <path clip-path="url(#pb9d4efe761)" d="M 242.334306 43.99632 
C 335.39728 43.99632 412.949759 98.122533 412.949759 174.129557 
C 412.949759 248.984959 335.39728 303.111173 242.334306 303.111173 
C 149.271332 303.111173 71.718854 248.984959 71.718854 174.129557 
C 71.718854 98.122533 149.271332 43.99632 242.334306 43.99632 
" style="fill:none;stroke:#0000ff;stroke-linejoin:miter;stroke-width:0.5;"/>
   </g>
   <g id="[&quot;g_s&quot;:1,&quot;g_t&quot;:1,&quot;coords&quot;:[[320.0, -258.0],[320.0, -267.0]],&quot;certainty&quot;:11]">
    <path clip-path="url(#pb9d4efe761)" d="M 242.334306 42.268887 
C 243.568336 42.268887 244.751989 41.904861 245.624579 41.256981 
C 246.49717 40.609101 246.987455 39.730263 246.987455 38.814023 
C 246.987455 37.897782 246.49717 37.018944 245.624579 36.371064 
C 244.751989 35.723184 243.568336 35.359158 242.334306 35.359158 
C 241.100277 35.359158 239.916624 35.723184 239.044033 36.371064 
C 238.171443 37.018944 237.681158 37.897782 237.681158 38.814023 
C 237.681158 39.730263 238.171443 40.609101 239.044033 41.256981 
C 239.916624 41.904861 241.100277 42.268887 242.334306 42.268887 
z
" style="fill:#0000ff;opacity:0.2;stroke:#0000ff;stroke-linejoin:miter;stroke-width:2;"/>
   </g>
   <g id="[&quot;g_s&quot;:1,&quot;g_t&quot;:1,&quot;coords&quot;:[[320.0, -267.0],[320.0, -258.0]],&quot;certainty&quot;:11]">
    <path clip-path="url(#pb9d4efe761)" d="M 242.334306 47.451184 
C 243.568336 47.451184 244.751989 47.087158 245.624579 46.439278 
C 246.49717 45.791398 246.987455 44.91256 246.987455 43.99632 
C 246.987455 43.080079 246.49717 42.201241 245.624579 41.553361 
C 244.751989 40.905481 243.568336 40.541455 242.334306 40.541455 
C 241.100277 40.541455 239.916624 40.905481 239.044033 41.553361 
C 238.171443 42.201241 237.681158 43.080079 237.681158 43.99632 
C 237.681158 44.91256 238.171443 45.791398 239.044033 46.439278 
C 239.916624 47.087158 241.100277 47.451184 242.334306 47.451184 
z
" style="fill:#ff0000;opacity:0.2;stroke:#ff0000;stroke-linejoin:miter;stroke-width:2;"/>
   </g>
   <g id="patch_12">
    <path d="M 242.334306 38.814023 
Q 242.334306 40.404391 242.334306 39.873438 
" style="fill:none;opacity:0.5;stroke:#0000ff;stroke-linecap:round;stroke-width:3;"/>
    <path d="M 243.834306 38.373438 
L 242.334306 39.873438 
L 240.834306 38.373438 
" style="fill:none;opacity:0.5;stroke:#0000ff;stroke-linecap:round;stroke-width:3;"/>
   </g>
   <g id="[&quot;g_s&quot;:2,&quot;g_t&quot;:2,&quot;coords&quot;:[[554.0, -486.0],[540.0, -493.0]],&quot;certainty&quot;:10]">
    <path clip-path="url(#pb9d4efe761)" d="M 423.807106 173.265841 
C 424.9383 173.265841 426.023315 172.93215 426.82319 172.33826 
C 427.623064 171.74437 428.072492 170.938769 428.072492 170.098882 
C 428.072492 169.258994 427.623064 168.453393 426.82319 167.859503 
C 426.023315 167.265613 424.9383 166.931922 423.807106 166.931922 
C 422.675912 166.931922 421.590897 167.265613 420.791022 167.859503 
C 419.991148 168.453393 419.54172 169.258994 419.54172 170.098882 
C 419.54172 170.938769 419.991148 171.74437 420.791022 172.33826 
C 421.590897 172.93215 422.675912 173.265841 423.807106 173.265841 
z
" style="fill:#0000ff;opacity:0.2;stroke:#0000ff;stroke-linejoin:miter;stroke-width:2;"/>
   </g>
   <g id="[&quot;g_s&quot;:2,&quot;g_t&quot;:2,&quot;coords&quot;:[[540.0, -493.0],[554.0, -486.0]],&quot;certainty&quot;:10]">
    <path clip-path="url(#pb9d4efe761)" d="M 412.949759 177.296516 
C 414.080953 177.296516 415.165968 176.962826 415.965843 176.368936 
C 416.765717 175.775045 417.215145 174.969445 417.215145 174.129557 
C 417.215145 173.28967 416.765717 172.484069 415.965843 171.890179 
C 415.165968 171.296289 414.080953 170.962598 412.949759 170.962598 
C 411.818565 170.962598 410.73355 171.296289 409.933675 171.890179 
C 409.133801 172.484069 408.684373 173.28967 408.684373 174.129557 
C 408.684373 174.969445 409.133801 175.775045 409.933675 176.368936 
C 410.73355 176.962826 411.818565 177.296516 412.949759 177.296516 
z
" style="fill:#ff0000;opacity:0.2;stroke:#ff0000;stroke-linejoin:miter;stroke-width:2;"/>
   </g>
   <g id="patch_13">
    <path d="M 423.807106 170.098882 
Q 419.315462 171.766357 416.646794 172.757072 
" style="fill:none;opacity:0.5;stroke:#0000ff;stroke-linecap:round;stroke-width:2.75;"/>
    <path d="M 418.575065 173.64125 
L 416.646794 172.757072 
L 417.530973 170.828801 
" style="fill:none;opacity:0.5;stroke:#0000ff;stroke-linecap:round;stroke-width:2.75;"/>
   </g>
   <g id="[&quot;g_s&quot;:3,&quot;g_t&quot;:3,&quot;coords&quot;:[[320.0, -714.0],[320.0, -717.0]],&quot;certainty&quot;:12]">
    <path clip-path="url(#pb9d4efe761)" d="M 242.334306 305.126511 
C 243.671172 305.126511 244.953462 304.732149 245.898769 304.030279 
C 246.844075 303.328409 247.375217 302.376335 247.375217 301.383741 
C 247.375217 300.391146 246.844075 299.439073 245.898769 298.737203 
C 244.953462 298.035332 243.671172 297.640971 242.334306 297.640971 
C 240.997441 297.640971 239.71515 298.035332 238.769844 298.737203 
C 237.824537 299.439073 237.293395 300.391146 237.293395 301.383741 
C 237.293395 302.376335 237.824537 303.328409 238.769844 304.030279 
C 239.71515 304.732149 240.997441 305.126511 242.334306 305.126511 
z
" style="fill:#0000ff;opacity:0.2;stroke:#0000ff;stroke-linejoin:miter;stroke-width:2;"/>
   </g>
   <g id="[&quot;g_s&quot;:3,&quot;g_t&quot;:3,&quot;coords&quot;:[[320.0, -717.0],[320.0, -714.0]],&quot;certainty&quot;:12]">
    <path clip-path="url(#pb9d4efe761)" d="M 242.334306 306.853943 
C 243.671172 306.853943 244.953462 306.459581 245.898769 305.757711 
C 246.844075 305.055841 247.375217 304.103767 247.375217 303.111173 
C 247.375217 302.118579 246.844075 301.166505 245.898769 300.464635 
C 244.953462 299.762765 243.671172 299.368403 242.334306 299.368403 
C 240.997441 299.368403 239.71515 299.762765 238.769844 300.464635 
C 237.824537 301.166505 237.293395 302.118579 237.293395 303.111173 
C 237.293395 304.103767 237.824537 305.055841 238.769844 305.757711 
C 239.71515 306.459581 240.997441 306.853943 242.334306 306.853943 
z
" style="fill:#ff0000;opacity:0.2;stroke:#ff0000;stroke-linejoin:miter;stroke-width:2;"/>
   </g>
   <g id="patch_14">
    <path d="M 242.334306 301.383741 
Q 242.334306 302.247457 242.334306 300.813076 
" style="fill:none;opacity:0.5;stroke:#0000ff;stroke-linecap:round;stroke-width:3.25;"/>
    <path d="M 243.834306 299.313076 
L 242.334306 300.813076 
L 240.834306 299.313076 
" style="fill:none;opacity:0.5;stroke:#0000ff;stroke-linecap:round;stroke-width:3.25;"/>
   </g>
   <g id="[&quot;g_s&quot;:4,&quot;g_t&quot;:4,&quot;coords&quot;:[[86.0, -486.0],[100.0, -493.0]],&quot;certainty&quot;:11]">
    <path clip-path="url(#pb9d4efe761)" d="M 60.861507 173.553746 
C 62.095536 173.553746 63.279189 173.18972 64.15178 172.54184 
C 65.02437 171.89396 65.514655 171.015122 65.514655 170.098882 
C 65.514655 169.182641 65.02437 168.303803 64.15178 167.655923 
C 63.279189 167.008043 62.095536 166.644017 60.861507 166.644017 
C 59.627477 166.644017 58.443824 167.008043 57.571234 167.655923 
C 56.698643 168.303803 56.208358 169.182641 56.208358 170.098882 
C 56.208358 171.015122 56.698643 171.89396 57.571234 172.54184 
C 58.443824 173.18972 59.627477 173.553746 60.861507 173.553746 
z
" style="fill:#0000ff;opacity:0.2;stroke:#0000ff;stroke-linejoin:miter;stroke-width:2;"/>
   </g>
   <g id="[&quot;g_s&quot;:4,&quot;g_t&quot;:4,&quot;coords&quot;:[[100.0, -493.0],[86.0, -486.0]],&quot;certainty&quot;:11]">
    <path clip-path="url(#pb9d4efe761)" d="M 71.718854 177.584422 
C 72.952883 177.584422 74.136536 177.220395 75.009127 176.572515 
C 75.881717 175.924635 76.372002 175.045798 76.372002 174.129557 
C 76.372002 173.213316 75.881717 172.334479 75.009127 171.686599 
C 74.136536 171.038719 72.952883 170.674692 71.718854 170.674692 
C 70.484824 170.674692 69.301171 171.038719 68.428581 171.686599 
C 67.55599 172.334479 67.065705 173.213316 67.065705 174.129557 
C 67.065705 175.045798 67.55599 175.924635 68.428581 176.572515 
C 69.301171 177.220395 70.484824 177.584422 71.718854 177.584422 
z
" style="fill:#ff0000;opacity:0.2;stroke:#ff0000;stroke-linejoin:miter;stroke-width:2;"/>
   </g>
   <g id="patch_15">
    <path d="M 60.861507 170.098882 
Q 65.353151 171.766357 67.856093 172.695548 
" style="fill:none;opacity:0.5;stroke:#0000ff;stroke-linecap:round;stroke-width:3;"/>
    <path d="M 66.971914 170.767277 
L 67.856093 172.695548 
L 65.927822 173.579727 
" style="fill:none;opacity:0.5;stroke:#0000ff;stroke-linecap:round;stroke-width:3;"/>
   </g>
   <g id="[&quot;g_s&quot;:1,&quot;g_t&quot;:1,&quot;coords&quot;:[[320.0, -267.0],[320.0, -258.0]],&quot;certainty&quot;:10]">
    <path clip-path="url(#pb9d4efe761)" d="M 242.334306 47.163279 
C 243.4655 47.163279 244.550515 46.829588 245.35039 46.235698 
C 246.150265 45.641808 246.599693 44.836207 246.599693 43.99632 
C 246.599693 43.156432 246.150265 42.350831 245.35039 41.756941 
C 244.550515 41.163051 243.4655 40.82936 242.334306 40.82936 
C 241.203113 40.82936 240.118097 41.163051 239.318223 41.756941 
C 238.518348 42.350831 238.06892 43.156432 238.06892 43.99632 
C 238.06892 44.836207 238.518348 45.641808 239.318223 46.235698 
C 240.118097 46.829588 241.203113 47.163279 242.334306 47.163279 
z
" style="fill:#0000ff;opacity:0.2;stroke:#0000ff;stroke-linejoin:miter;stroke-width:2;"/>
   </g>
   <g id="[&quot;g_s&quot;:1,&quot;g_t&quot;:1,&quot;coords&quot;:[[320.0, -258.0],[320.0, -267.0]],&quot;certainty&quot;:10]">
    <path clip-path="url(#pb9d4efe761)" d="M 242.334306 41.980982 
C 243.4655 41.980982 244.550515 41.647291 245.35039 41.053401 
C 246.150265 40.459511 246.599693 39.65391 246.599693 38.814023 
C 246.599693 37.974135 246.150265 37.168534 245.35039 36.574644 
C 244.550515 35.980754 243.4655 35.647063 242.334306 35.647063 
C 241.203113 35.647063 240.118097 35.980754 239.318223 36.574644 
C 238.518348 37.168534 238.06892 37.974135 238.06892 38.814023 
C 238.06892 39.65391 238.518348 40.459511 239.318223 41.053401 
C 240.118097 41.647291 241.203113 41.980982 242.334306 41.980982 
z
" style="fill:#ff0000;opacity:0.2;stroke:#ff0000;stroke-linejoin:miter;stroke-width:2;"/>
   </g>
   <g id="patch_16">
    <path d="M 242.334306 43.99632 
Q 242.334306 42.405952 242.334306 42.760127 
" style="fill:none;opacity:0.5;stroke:#ff0000;stroke-linecap:round;stroke-width:2.75;"/>
    <path d="M 240.834306 44.260127 
L 242.334306 42.760127 
L 243.834306 44.260127 
" style="fill:none;opacity:0.5;stroke:#ff0000;stroke-linecap:round;stroke-width:2.75;"/>
   </g>
   <g id="[&quot;g_s&quot;:2,&quot;g_t&quot;:2,&quot;coords&quot;:[[540.0, -493.0],[554.0, -486.0]],&quot;certainty&quot;:12]">
    <path clip-path="url(#pb9d4efe761)" d="M 412.949759 177.872327 
C 414.286624 177.872327 415.568915 177.477965 416.514221 176.776095 
C 417.459528 176.074225 417.99067 175.122151 417.99067 174.129557 
C 417.99067 173.136963 417.459528 172.184889 416.514221 171.483019 
C 415.568915 170.781149 414.286624 170.386787 412.949759 170.386787 
C 411.612894 170.386787 410.330603 170.781149 409.385297 171.483019 
C 408.43999 172.184889 407.908848 173.136963 407.908848 174.129557 
C 407.908848 175.122151 408.43999 176.074225 409.385297 176.776095 
C 410.330603 177.477965 411.612894 177.872327 412.949759 177.872327 
z
" style="fill:#0000ff;opacity:0.2;stroke:#0000ff;stroke-linejoin:miter;stroke-width:2;"/>
   </g>
   <g id="[&quot;g_s&quot;:2,&quot;g_t&quot;:2,&quot;coords&quot;:[[554.0, -486.0],[540.0, -493.0]],&quot;certainty&quot;:12]">
    <path clip-path="url(#pb9d4efe761)" d="M 423.807106 173.841652 
C 425.143971 173.841652 426.426262 173.44729 427.371568 172.74542 
C 428.316875 172.04355 428.848017 171.091476 428.848017 170.098882 
C 428.848017 169.106287 428.316875 168.154214 427.371568 167.452344 
C 426.426262 166.750473 425.143971 166.356112 423.807106 166.356112 
C 422.470241 166.356112 421.18795 166.750473 420.242644 167.452344 
C 419.297337 168.154214 418.766195 169.106287 418.766195 170.098882 
C 418.766195 171.091476 419.297337 172.04355 420.242644 172.74542 
C 421.18795 173.44729 422.470241 173.841652 423.807106 173.841652 
z
" style="fill:#ff0000;opacity:0.2;stroke:#ff0000;stroke-linejoin:miter;stroke-width:2;"/>
   </g>
   <g id="patch_17">
    <path d="M 412.949759 174.129557 
Q 417.441403 172.462082 419.77862 171.594414 
" style="fill:none;opacity:0.5;stroke:#ff0000;stroke-linecap:round;stroke-width:3.25;"/>
    <path d="M 417.850349 170.710236 
L 419.77862 171.594414 
L 418.894441 173.522685 
" style="fill:none;opacity:0.5;stroke:#ff0000;stroke-linecap:round;stroke-width:3.25;"/>
   </g>
   <g id="[&quot;g_s&quot;:3,&quot;g_t&quot;:3,&quot;coords&quot;:[[320.0, -717.0],[320.0, -714.0]],&quot;certainty&quot;:11]">
    <path clip-path="url(#pb9d4efe761)" d="M 242.334306 306.566038 
C 243.568336 306.566038 244.751989 306.202011 245.624579 305.554131 
C 246.49717 304.906251 246.987455 304.027414 246.987455 303.111173 
C 246.987455 302.194932 246.49717 301.316095 245.624579 300.668215 
C 244.751989 300.020335 243.568336 299.656308 242.334306 299.656308 
C 241.100277 299.656308 239.916624 300.020335 239.044033 300.668215 
C 238.171443 301.316095 237.681158 302.194932 237.681158 303.111173 
C 237.681158 304.027414 238.171443 304.906251 239.044033 305.554131 
C 239.916624 306.202011 241.100277 306.566038 242.334306 306.566038 
z
" style="fill:#0000ff;opacity:0.2;stroke:#0000ff;stroke-linejoin:miter;stroke-width:2;"/>
   </g>
   <g id="[&quot;g_s&quot;:3,&quot;g_t&quot;:3,&quot;coords&quot;:[[320.0, -714.0],[320.0, -717.0]],&quot;certainty&quot;:11]">
    <path clip-path="url(#pb9d4efe761)" d="M 242.334306 304.838605 
C 243.568336 304.838605 244.751989 304.474579 245.624579 303.826699 
C 246.49717 303.178819 246.987455 302.299982 246.987455 301.383741 
C 246.987455 300.4675 246.49717 299.588663 245.624579 298.940782 
C 244.751989 298.292902 243.568336 297.928876 242.334306 297.928876 
C 241.100277 297.928876 239.916624 298.292902 239.044033 298.940782 
C 238.171443 299.588663 237.681158 300.4675 237.681158 301.383741 
C 237.681158 302.299982 238.171443 303.178819 239.044033 303.826699 
C 239.916624 304.474579 241.100277 304.838605 242.334306 304.838605 
z
" style="fill:#ff0000;opacity:0.2;stroke:#ff0000;stroke-linejoin:miter;stroke-width:2;"/>
   </g>
   <g id="patch_18">
    <path d="M 242.334306 303.111173 
Q 242.334306 302.247457 242.334306 303.505061 
" style="fill:none;opacity:0.5;stroke:#ff0000;stroke-linecap:round;stroke-width:3;"/>
    <path d="M 240.834306 305.005061 
L 242.334306 303.505061 
L 243.834306 305.005061 
" style="fill:none;opacity:0.5;stroke:#ff0000;stroke-linecap:round;stroke-width:3;"/>
   </g>
   <g id="[&quot;g_s&quot;:4,&quot;g_t&quot;:4,&quot;coords&quot;:[[100.0, -493.0],[86.0, -486.0]],&quot;certainty&quot;:11]">
    <path clip-path="url(#pb9d4efe761)" d="M 71.718854 177.584422 
C 72.952883 177.584422 74.136536 177.220395 75.009127 176.572515 
C 75.881717 175.924635 76.372002 175.045798 76.372002 174.129557 
C 76.372002 173.213316 75.881717 172.334479 75.009127 171.686599 
C 74.136536 171.038719 72.952883 170.674692 71.718854 170.674692 
C 70.484824 170.674692 69.301171 171.038719 68.428581 171.686599 
C 67.55599 172.334479 67.065705 173.213316 67.065705 174.129557 
C 67.065705 175.045798 67.55599 175.924635 68.428581 176.572515 
C 69.301171 177.220395 70.484824 177.584422 71.718854 177.584422 
z
" style="fill:#0000ff;opacity:0.2;stroke:#0000ff;stroke-linejoin:miter;stroke-width:2;"/>
   </g>
   <g id="[&quot;g_s&quot;:4,&quot;g_t&quot;:4,&quot;coords&quot;:[[86.0, -486.0],[100.0, -493.0]],&quot;certainty&quot;:11]">
    <path clip-path="url(#pb9d4efe761)" d="M 60.861507 173.553746 
C 62.095536 173.553746 63.279189 173.18972 64.15178 172.54184 
C 65.02437 171.89396 65.514655 171.015122 65.514655 170.098882 
C 65.514655 169.182641 65.02437 168.303803 64.15178 167.655923 
C 63.279189 167.008043 62.095536 166.644017 60.861507 166.644017 
C 59.627477 166.644017 58.443824 167.008043 57.571234 167.655923 
C 56.698643 168.303803 56.208358 169.182641 56.208358 170.098882 
C 56.208358 171.015122 56.698643 171.89396 57.571234 172.54184 
C 58.443824 173.18972 59.627477 173.553746 60.861507 173.553746 
z
" style="fill:#ff0000;opacity:0.2;stroke:#ff0000;stroke-linejoin:miter;stroke-width:2;"/>
   </g>
   <g id="patch_19">
    <path d="M 71.718854 174.129557 
Q 67.227209 172.462082 64.724267 171.532891 
" style="fill:none;opacity:0.5;stroke:#ff0000;stroke-linecap:round;stroke-width:3;"/>
    <path d="M 65.608446 173.461162 
L 64.724267 171.532891 
L 66.652538 170.648712 
" style="fill:none;opacity:0.5;stroke:#ff0000;stroke-linecap:round;stroke-width:3;"/>
   </g>
   <g id="patch_20">
    <path clip-path="url(#pb9d4efe761)" d="M 242.334306 44.284225 
C 243.362664 44.284225 244.349042 43.98087 245.0762 43.44097 
C 245.803359 42.90107 246.21193 42.168705 246.21193 41.405171 
C 246.21193 40.641637 245.803359 39.909273 245.0762 39.369373 
C 244.349042 38.829472 243.362664 38.526117 242.334306 38.526117 
C 241.305948 38.526117 240.319571 38.829472 239.592412 39.369373 
C 238.865253 39.909273 238.456682 40.641637 238.456682 41.405171 
C 238.456682 42.168705 238.865253 42.90107 239.592412 43.44097 
C 240.319571 43.98087 241.305948 44.284225 242.334306 44.284225 
z
" style="fill:#008000;opacity:0.2;stroke:#008000;stroke-linejoin:miter;stroke-width:2;"/>
   </g>
   <g id="patch_21">
    <path clip-path="url(#pb9d4efe761)" d="M 418.378432 174.993273 
C 419.40679 174.993273 420.393168 174.689918 421.120327 174.150018 
C 421.847485 173.610118 422.256056 172.877753 422.256056 172.114219 
C 422.256056 171.350685 421.847485 170.618321 421.120327 170.078421 
C 420.393168 169.538521 419.40679 169.235165 418.378432 169.235165 
C 417.350075 169.235165 416.363697 169.538521 415.636538 170.078421 
C 414.909379 170.618321 414.500809 171.350685 414.500809 172.114219 
C 414.500809 172.877753 414.909379 173.610118 415.636538 174.150018 
C 416.363697 174.689918 417.350075 174.993273 418.378432 174.993273 
z
" style="fill:#008000;opacity:0.2;stroke:#008000;stroke-linejoin:miter;stroke-width:2;"/>
   </g>
   <g id="patch_22">
    <path clip-path="url(#pb9d4efe761)" d="M 242.334306 305.126511 
C 243.362664 305.126511 244.349042 304.823156 245.0762 304.283255 
C 245.803359 303.743355 246.21193 303.010991 246.21193 302.247457 
C 246.21193 301.483923 245.803359 300.751558 245.0762 300.211658 
C 244.349042 299.671758 243.362664 299.368403 242.334306 299.368403 
C 241.305948 299.368403 240.319571 299.671758 239.592412 300.211658 
C 238.865253 300.751558 238.456682 301.483923 238.456682 302.247457 
C 238.456682 303.010991 238.865253 303.743355 239.592412 304.283255 
C 240.319571 304.823156 241.305948 305.126511 242.334306 305.126511 
z
" style="fill:#008000;opacity:0.2;stroke:#008000;stroke-linejoin:miter;stroke-width:2;"/>
   </g>
   <g id="patch_23">
    <path clip-path="url(#pb9d4efe761)" d="M 66.29018 174.993273 
C 67.318538 174.993273 68.304915 174.689918 69.032074 174.150018 
C 69.759233 173.610118 70.167804 172.877753 70.167804 172.114219 
C 70.167804 171.350685 69.759233 170.618321 69.032074 170.078421 
C 68.304915 169.538521 67.318538 169.235165 66.29018 169.235165 
C 65.261822 169.235165 64.275445 169.538521 63.548286 170.078421 
C 62.821127 170.618321 62.412556 171.350685 62.412556 172.114219 
C 62.412556 172.877753 62.821127 173.610118 63.548286 174.150018 
C 64.275445 174.689918 65.261822 174.993273 66.29018 174.993273 
z
" style="fill:#008000;opacity:0.2;stroke:#008000;stroke-linejoin:miter;stroke-width:2;"/>
   </g>
   <g id="patch_24">
    <path clip-path="url(#pb9d4efe761)" d="M 242.334306 50.330238 
C 246.447738 50.330238 250.393248 49.116817 253.301883 46.957217 
C 256.210518 44.797616 257.844802 41.868159 257.844802 38.814023 
C 257.844802 35.759886 256.210518 32.830429 253.301883 30.670828 
C 250.393248 28.511228 246.447738 27.297807 242.334306 27.297807 
C 238.220875 27.297807 234.275365 28.511228 231.36673 30.670828 
C 228.458094 32.830429 226.823811 35.759886 226.823811 38.814023 
C 226.823811 41.868159 228.458094 44.797616 231.36673 46.957217 
C 234.275365 49.116817 238.220875 50.330238 242.334306 50.330238 
z
" style="fill:none;opacity:0.2;stroke:#ff0000;stroke-linejoin:miter;stroke-width:2;"/>
   </g>
   <g id="patch_25">
    <path clip-path="url(#pb9d4efe761)" d="M 242.334306 55.512535 
C 246.447738 55.512535 250.393248 54.299114 253.301883 52.139514 
C 256.210518 49.979913 257.844802 47.050456 257.844802 43.99632 
C 257.844802 40.942183 256.210518 38.012726 253.301883 35.853125 
C 250.393248 33.693525 246.447738 32.480104 242.334306 32.480104 
C 238.220875 32.480104 234.275365 33.693525 231.36673 35.853125 
C 228.458094 38.012726 226.823811 40.942183 226.823811 43.99632 
C 226.823811 47.050456 228.458094 49.979913 231.36673 52.139514 
C 234.275365 54.299114 238.220875 55.512535 242.334306 55.512535 
z
" style="fill:none;opacity:0.2;stroke:#0000ff;stroke-linejoin:miter;stroke-width:2;"/>
   </g>
   <g id="patch_26">
    <path clip-path="url(#pb9d4efe761)" d="M 242.334306 44.57213 
C 244.391022 44.57213 246.363777 43.96542 247.818095 42.88562 
C 249.272412 41.805819 250.089554 40.341091 250.089554 38.814023 
C 250.089554 37.286954 249.272412 35.822226 247.818095 34.742425 
C 246.363777 33.662625 244.391022 33.055915 242.334306 33.055915 
C 240.277591 33.055915 238.304836 33.662625 236.850518 34.742425 
C 235.3962 35.822226 234.579058 37.286954 234.579058 38.814023 
C 234.579058 40.341091 235.3962 41.805819 236.850518 42.88562 
C 238.304836 43.96542 240.277591 44.57213 242.334306 44.57213 
z
" style="fill:none;opacity:0.2;stroke:#008000;stroke-linejoin:miter;stroke-width:2;"/>
   </g>
   <g id="patch_27">
    <path clip-path="url(#pb9d4efe761)" d="M 242.334306 49.754427 
C 244.391022 49.754427 246.363777 49.147717 247.818095 48.067917 
C 249.272412 46.988117 250.089554 45.523388 250.089554 43.99632 
C 250.089554 42.469252 249.272412 41.004523 247.818095 39.924722 
C 246.363777 38.844922 244.391022 38.238212 242.334306 38.238212 
C 240.277591 38.238212 238.304836 38.844922 236.850518 39.924722 
C 235.3962 41.004523 234.579058 42.469252 234.579058 43.99632 
C 234.579058 45.523388 235.3962 46.988117 236.850518 48.067917 
C 238.304836 49.147717 240.277591 49.754427 242.334306 49.754427 
z
" style="fill:none;opacity:0.2;stroke:#008000;stroke-linejoin:miter;stroke-width:2;"/>
   </g>
   <g id="patch_28">
    <path d="M 242.334306 41.405171 
Q 330.356369 106.759695 418.378432 172.114219 
" style="fill:none;opacity:0.5;stroke:#008000;stroke-linecap:round;stroke-width:2;"/>
   </g>
   <g id="patch_29">
    <path d="M 242.334306 40.228236 
Q 242.334306 40.404391 242.334306 40.580545 
" style="fill:none;opacity:0.5;stroke:#800080;stroke-linecap:round;stroke-width:2;"/>
    <path d="M 240.834306 41.728236 
L 242.334306 40.228236 
L 243.834306 41.728236 
" style="fill:none;opacity:0.5;stroke:#800080;stroke-linecap:round;stroke-width:2;"/>
    <path d="M 243.834306 39.080545 
L 242.334306 40.580545 
L 240.834306 39.080545 
" style="fill:none;opacity:0.5;stroke:#800080;stroke-linecap:round;stroke-width:2;"/>
   </g>
   <g id="patch_30">
    <path d="M 418.378432 172.114219 
Q 330.356369 237.180838 242.334306 302.247457 
" style="fill:none;opacity:0.5;stroke:#008000;stroke-linecap:round;stroke-width:2;"/>
   </g>
   <g id="patch_31">
    <path d="M 422.481305 170.591071 
Q 419.315462 171.766357 416.149619 172.941643 
" style="fill:none;opacity:0.5;stroke:#800080;stroke-linecap:round;stroke-width:2;"/>
    <path d="M 420.553034 169.706893 
L 422.481305 170.591071 
L 421.597126 172.519342 
" style="fill:none;opacity:0.5;stroke:#800080;stroke-linecap:round;stroke-width:2;"/>
    <path d="M 418.07789 173.825821 
L 416.149619 172.941643 
L 417.033798 171.013372 
" style="fill:none;opacity:0.5;stroke:#800080;stroke-linecap:round;stroke-width:2;"/>
   </g>
   <g id="patch_32">
    <path d="M 242.334306 302.247457 
Q 154.312243 237.180838 66.29018 172.114219 
" style="fill:none;opacity:0.5;stroke:#008000;stroke-linecap:round;stroke-width:2;"/>
   </g>
   <g id="patch_33">
    <path d="M 242.334306 302.797954 
Q 242.334306 302.247457 242.334306 301.69696 
" style="fill:none;opacity:0.5;stroke:#800080;stroke-linecap:round;stroke-width:2;"/>
    <path d="M 240.834306 304.297954 
L 242.334306 302.797954 
L 243.834306 304.297954 
" style="fill:none;opacity:0.5;stroke:#800080;stroke-linecap:round;stroke-width:2;"/>
    <path d="M 243.834306 300.19696 
L 242.334306 301.69696 
L 240.834306 300.19696 
" style="fill:none;opacity:0.5;stroke:#800080;stroke-linecap:round;stroke-width:2;"/>
   </g>
   <g id="patch_34">
    <path d="M 66.29018 172.114219 
Q 154.312243 106.759695 242.334306 41.405171 
" style="fill:none;opacity:0.5;stroke:#008000;stroke-linecap:round;stroke-width:2;"/>
   </g>
   <g id="patch_35">
    <path d="M 62.187308 170.591071 
Q 65.353151 171.766357 68.518994 172.941643 
" style="fill:none;opacity:0.5;stroke:#800080;stroke-linecap:round;stroke-width:2;"/>
    <path d="M 63.071487 172.519342 
L 62.187308 170.591071 
L 64.115579 169.706893 
" style="fill:none;opacity:0.5;stroke:#800080;stroke-linecap:round;stroke-width:2;"/>
    <path d="M 67.634815 171.013372 
L 68.518994 172.941643 
L 66.590723 173.825821 
" style="fill:none;opacity:0.5;stroke:#800080;stroke-linecap:round;stroke-width:2;"/>
   </g>
   <g id="patch_36">
    <path clip-path="url(#pb9d4efe761)" d="M 146.944758 171.250503 
C 147.356101 171.250503 147.750652 171.129161 148.041515 170.913201 
C 148.332379 170.697241 148.495807 170.404295 148.495807 170.098882 
C 148.495807 169.793468 148.332379 169.500522 148.041515 169.284562 
C 147.750652 169.068602 147.356101 168.94726 146.944758 168.94726 
C 146.533415 168.94726 146.138864 169.068602 145.848 169.284562 
C 145.557137 169.500522 145.393708 169.793468 145.393708 170.098882 
C 145.393708 170.404295 145.557137 170.697241 145.848 170.913201 
C 146.138864 171.129161 146.533415 171.250503 146.944758 171.250503 
z
" style="fill:#ff0000;opacity:0.2;stroke:#ff0000;stroke-linejoin:miter;stroke-width:2;"/>
   </g>
   <g id="patch_37">
    <path clip-path="url(#pb9d4efe761)" d="M 242.334306 82.575642 
C 242.745649 82.575642 243.1402 82.4543 243.431064 82.23834 
C 243.721928 82.02238 243.885356 81.729434 243.885356 81.424021 
C 243.885356 81.118607 243.721928 80.825661 243.431064 80.609701 
C 243.1402 80.393741 242.745649 80.272399 242.334306 80.272399 
C 241.922963 80.272399 241.528412 80.393741 241.237549 80.609701 
C 240.946685 80.825661 240.783257 81.118607 240.783257 81.424021 
C 240.783257 81.729434 240.946685 82.02238 241.237549 82.23834 
C 241.528412 82.4543 241.922963 82.575642 242.334306 82.575642 
z
" style="fill:#ff0000;opacity:0.2;stroke:#ff0000;stroke-linejoin:miter;stroke-width:2;"/>
   </g>
   <g id="patch_38">
    <path clip-path="url(#pb9d4efe761)" d="M 337.723855 171.250503 
C 338.135198 171.250503 338.529749 171.129161 338.820613 170.913201 
C 339.111476 170.697241 339.274904 170.404295 339.274904 170.098882 
C 339.274904 169.793468 339.111476 169.500522 338.820613 169.284562 
C 338.529749 169.068602 338.135198 168.94726 337.723855 168.94726 
C 337.312512 168.94726 336.917961 169.068602 336.627097 169.284562 
C 336.336234 169.500522 336.172805 169.793468 336.172805 170.098882 
C 336.172805 170.404295 336.336234 170.697241 336.627097 170.913201 
C 336.917961 171.129161 337.312512 171.250503 337.723855 171.250503 
z
" style="fill:#ff0000;opacity:0.2;stroke:#ff0000;stroke-linejoin:miter;stroke-width:2;"/>
   </g>
   <g id="patch_39">
    <path clip-path="url(#pb9d4efe761)" d="M 242.334306 259.925364 
C 242.745649 259.925364 243.1402 259.804022 243.431064 259.588062 
C 243.721928 259.372102 243.885356 259.079156 243.885356 258.773743 
C 243.885356 258.468329 243.721928 258.175383 243.431064 257.959423 
C 243.1402 257.743463 242.745649 257.622121 242.334306 257.622121 
C 241.922963 257.622121 241.528412 257.743463 241.237549 257.959423 
C 240.946685 258.175383 240.783257 258.468329 240.783257 258.773743 
C 240.783257 259.079156 240.946685 259.372102 241.237549 259.588062 
C 241.528412 259.804022 241.922963 259.925364 242.334306 259.925364 
z
" style="fill:#ff0000;opacity:0.2;stroke:#ff0000;stroke-linejoin:miter;stroke-width:2;"/>
   </g>
   <g id="patch_40">
    <path clip-path="url(#pb9d4efe761)" d="M 242.334306 277.775499 
C 242.745649 277.775499 243.1402 277.654156 243.431064 277.438196 
C 243.721928 277.222236 243.885356 276.929291 243.885356 276.623877 
C 243.885356 276.318463 243.721928 276.025518 243.431064 275.809558 
C 243.1402 275.593597 242.745649 275.472255 242.334306 275.472255 
C 241.922963 275.472255 241.528412 275.593597 241.237549 275.809558 
C 240.946685 276.025518 240.783257 276.318463 240.783257 276.623877 
C 240.783257 276.929291 240.946685 277.222236 241.237549 277.438196 
C 241.528412 277.654156 241.922963 277.775499 242.334306 277.775499 
z
" style="fill:#0000ff;opacity:0.2;stroke:#0000ff;stroke-linejoin:miter;stroke-width:2;"/>
   </g>
   <g id="patch_41">
    <path clip-path="url(#pb9d4efe761)" d="M 123.679014 175.281179 
C 124.090357 175.281179 124.484908 175.159837 124.775772 174.943877 
C 125.066635 174.727917 125.230064 174.434971 125.230064 174.129557 
C 125.230064 173.824144 125.066635 173.531198 124.775772 173.315238 
C 124.484908 173.099278 124.090357 172.977936 123.679014 172.977936 
C 123.267671 172.977936 122.87312 173.099278 122.582257 173.315238 
C 122.291393 173.531198 122.127965 173.824144 122.127965 174.129557 
C 122.127965 174.434971 122.291393 174.727917 122.582257 174.943877 
C 122.87312 175.159837 123.267671 175.281179 123.679014 175.281179 
z
" style="fill:#0000ff;opacity:0.2;stroke:#0000ff;stroke-linejoin:miter;stroke-width:2;"/>
   </g>
   <g id="patch_42">
    <path clip-path="url(#pb9d4efe761)" d="M 242.334306 71.635237 
C 242.745649 71.635237 243.1402 71.513895 243.431064 71.297935 
C 243.721928 71.081975 243.885356 70.789029 243.885356 70.483616 
C 243.885356 70.178202 243.721928 69.885256 243.431064 69.669296 
C 243.1402 69.453336 242.745649 69.331994 242.334306 69.331994 
C 241.922963 69.331994 241.528412 69.453336 241.237549 69.669296 
C 240.946685 69.885256 240.783257 70.178202 240.783257 70.483616 
C 240.783257 70.789029 240.946685 71.081975 241.237549 71.297935 
C 241.528412 71.513895 241.922963 71.635237 242.334306 71.635237 
z
" style="fill:#0000ff;opacity:0.2;stroke:#0000ff;stroke-linejoin:miter;stroke-width:2;"/>
   </g>
   <g id="patch_43">
    <path clip-path="url(#pb9d4efe761)" d="M 360.989598 175.281179 
C 361.400942 175.281179 361.795493 175.159837 362.086356 174.943877 
C 362.37722 174.727917 362.540648 174.434971 362.540648 174.129557 
C 362.540648 173.824144 362.37722 173.531198 362.086356 173.315238 
C 361.795493 173.099278 361.400942 172.977936 360.989598 172.977936 
C 360.578255 172.977936 360.183704 173.099278 359.892841 173.315238 
C 359.601977 173.531198 359.438549 173.824144 359.438549 174.129557 
C 359.438549 174.434971 359.601977 174.727917 359.892841 174.943877 
C 360.183704 175.159837 360.578255 175.281179 360.989598 175.281179 
z
" style="fill:#0000ff;opacity:0.2;stroke:#0000ff;stroke-linejoin:miter;stroke-width:2;"/>
   </g>
   <g id="patch_44">
    <path clip-path="url(#pb9d4efe761)" d="M 146.944758 170.098882 
C 146.944758 115.972668 187.272047 81.424021 242.334306 81.424021 
C 297.396566 81.424021 337.723855 115.972668 337.723855 170.098882 
C 337.723855 224.225095 297.396566 258.773743 242.334306 258.773743 
C 187.272047 258.773743 146.944758 224.225095 146.944758 170.098882 
" style="fill:none;stroke:#ff0000;stroke-linejoin:miter;stroke-width:0.5;"/>
   </g>
   <g id="patch_45">
    <path clip-path="url(#pb9d4efe761)" d="M 242.334306 276.623877 
C 170.986026 276.623877 123.679014 232.286446 123.679014 174.129557 
C 123.679014 114.821046 170.986026 70.483616 242.334306 70.483616 
C 313.682587 70.483616 360.989598 114.821046 360.989598 174.129557 
C 360.989598 232.286446 313.682587 276.623877 242.334306 276.623877 
" style="fill:none;stroke:#0000ff;stroke-linejoin:miter;stroke-width:0.5;"/>
   </g>
   <g id="[&quot;g_s&quot;:1,&quot;g_t&quot;:2,&quot;coords&quot;:[[197.0, -486.0],[167.0, -493.0]],&quot;certainty&quot;:11]">
    <path clip-path="url(#pb9d4efe761)" d="M 146.944758 173.553746 
C 148.178787 173.553746 149.36244 173.18972 150.235031 172.54184 
C 151.107621 171.89396 151.597906 171.015122 151.597906 170.098882 
C 151.597906 169.182641 151.107621 168.303803 150.235031 167.655923 
C 149.36244 167.008043 148.178787 166.644017 146.944758 166.644017 
C 145.710728 166.644017 144.527075 167.008043 143.654485 167.655923 
C 142.781894 168.303803 142.291609 169.182641 142.291609 170.098882 
C 142.291609 171.015122 142.781894 171.89396 143.654485 172.54184 
C 144.527075 173.18972 145.710728 173.553746 146.944758 173.553746 
z
" style="fill:#0000ff;opacity:0.2;stroke:#0000ff;stroke-linejoin:miter;stroke-width:2;"/>
   </g>
   <g id="[&quot;g_s&quot;:2,&quot;g_t&quot;:1,&quot;coords&quot;:[[167.0, -493.0],[197.0, -486.0]],&quot;certainty&quot;:11]">
    <path clip-path="url(#pb9d4efe761)" d="M 123.679014 177.584422 
C 124.913044 177.584422 126.096697 177.220395 126.969287 176.572515 
C 127.841878 175.924635 128.332163 175.045798 128.332163 174.129557 
C 128.332163 173.213316 127.841878 172.334479 126.969287 171.686599 
C 126.096697 171.038719 124.913044 170.674692 123.679014 170.674692 
C 122.444985 170.674692 121.261332 171.038719 120.388741 171.686599 
C 119.516151 172.334479 119.025866 173.213316 119.025866 174.129557 
C 119.025866 175.045798 119.516151 175.924635 120.388741 176.572515 
C 121.261332 177.220395 122.444985 177.584422 123.679014 177.584422 
z
" style="fill:#ff0000;opacity:0.2;stroke:#ff0000;stroke-linejoin:miter;stroke-width:2;"/>
   </g>
   <g id="patch_46">
    <path d="M 146.944758 170.098882 
Q 136.295966 171.943732 127.737358 173.426469 
" style="fill:none;opacity:0.5;stroke:#0000ff;stroke-linecap:round;stroke-width:3;"/>
    <path d="M 129.471396 174.6484 
L 127.737358 173.426469 
L 128.959289 171.692432 
" style="fill:none;opacity:0.5;stroke:#0000ff;stroke-linecap:round;stroke-width:3;"/>
   </g>
   <g id="[&quot;g_s&quot;:2,&quot;g_t&quot;:3,&quot;coords&quot;:[[320.0, -332.0],[320.0, -313.0]],&quot;certainty&quot;:10]">
    <path clip-path="url(#pb9d4efe761)" d="M 242.334306 84.59098 
C 243.4655 84.59098 244.550515 84.257289 245.35039 83.663399 
C 246.150265 83.069509 246.599693 82.263908 246.599693 81.424021 
C 246.599693 80.584133 246.150265 79.778532 245.35039 79.184642 
C 244.550515 78.590752 243.4655 78.257061 242.334306 78.257061 
C 241.203113 78.257061 240.118097 78.590752 239.318223 79.184642 
C 238.518348 79.778532 238.06892 80.584133 238.06892 81.424021 
C 238.06892 82.263908 238.518348 83.069509 239.318223 83.663399 
C 240.118097 84.257289 241.203113 84.59098 242.334306 84.59098 
z
" style="fill:#0000ff;opacity:0.2;stroke:#0000ff;stroke-linejoin:miter;stroke-width:2;"/>
   </g>
   <g id="[&quot;g_s&quot;:3,&quot;g_t&quot;:2,&quot;coords&quot;:[[320.0, -313.0],[320.0, -332.0]],&quot;certainty&quot;:10]">
    <path clip-path="url(#pb9d4efe761)" d="M 242.334306 73.650575 
C 243.4655 73.650575 244.550515 73.316884 245.35039 72.722994 
C 246.150265 72.129104 246.599693 71.323503 246.599693 70.483616 
C 246.599693 69.643728 246.150265 68.838127 245.35039 68.244237 
C 244.550515 67.650347 243.4655 67.316656 242.334306 67.316656 
C 241.203113 67.316656 240.118097 67.650347 239.318223 68.244237 
C 238.518348 68.838127 238.06892 69.643728 238.06892 70.483616 
C 238.06892 71.323503 238.518348 72.129104 239.318223 72.722994 
C 240.118097 73.316884 241.203113 73.650575 242.334306 73.650575 
z
" style="fill:#ff0000;opacity:0.2;stroke:#ff0000;stroke-linejoin:miter;stroke-width:2;"/>
   </g>
   <g id="patch_47">
    <path d="M 242.334306 81.424021 
Q 242.334306 76.954107 242.334306 74.428736 
" style="fill:none;opacity:0.5;stroke:#0000ff;stroke-linecap:round;stroke-width:2.75;"/>
    <path d="M 240.834306 75.928736 
L 242.334306 74.428736 
L 243.834306 75.928736 
" style="fill:none;opacity:0.5;stroke:#0000ff;stroke-linecap:round;stroke-width:2.75;"/>
   </g>
   <g id="[&quot;g_s&quot;:3,&quot;g_t&quot;:4,&quot;coords&quot;:[[443.0, -486.0],[473.0, -493.0]],&quot;certainty&quot;:12]">
    <path clip-path="url(#pb9d4efe761)" d="M 337.723855 173.841652 
C 339.06072 173.841652 340.343011 173.44729 341.288317 172.74542 
C 342.233624 172.04355 342.764766 171.091476 342.764766 170.098882 
C 342.764766 169.106287 342.233624 168.154214 341.288317 167.452344 
C 340.343011 166.750473 339.06072 166.356112 337.723855 166.356112 
C 336.38699 166.356112 335.104699 166.750473 334.159392 167.452344 
C 333.214086 168.154214 332.682944 169.106287 332.682944 170.098882 
C 332.682944 171.091476 333.214086 172.04355 334.159392 172.74542 
C 335.104699 173.44729 336.38699 173.841652 337.723855 173.841652 
z
" style="fill:#0000ff;opacity:0.2;stroke:#0000ff;stroke-linejoin:miter;stroke-width:2;"/>
   </g>
   <g id="[&quot;g_s&quot;:4,&quot;g_t&quot;:3,&quot;coords&quot;:[[473.0, -493.0],[443.0, -486.0]],&quot;certainty&quot;:12]">
    <path clip-path="url(#pb9d4efe761)" d="M 360.989598 177.872327 
C 362.326464 177.872327 363.608754 177.477965 364.554061 176.776095 
C 365.499367 176.074225 366.030509 175.122151 366.030509 174.129557 
C 366.030509 173.136963 365.499367 172.184889 364.554061 171.483019 
C 363.608754 170.781149 362.326464 170.386787 360.989598 170.386787 
C 359.652733 170.386787 358.370442 170.781149 357.425136 171.483019 
C 356.479829 172.184889 355.948687 173.136963 355.948687 174.129557 
C 355.948687 175.122151 356.479829 176.074225 357.425136 176.776095 
C 358.370442 177.477965 359.652733 177.872327 360.989598 177.872327 
z
" style="fill:#ff0000;opacity:0.2;stroke:#ff0000;stroke-linejoin:miter;stroke-width:2;"/>
   </g>
   <g id="patch_48">
    <path d="M 337.723855 170.098882 
Q 348.372647 171.943732 356.757072 173.396293 
" style="fill:none;opacity:0.5;stroke:#0000ff;stroke-linecap:round;stroke-width:3.25;"/>
    <path d="M 355.535142 171.662255 
L 356.757072 173.396293 
L 355.023035 174.618223 
" style="fill:none;opacity:0.5;stroke:#0000ff;stroke-linecap:round;stroke-width:3.25;"/>
   </g>
   <g id="[&quot;g_s&quot;:4,&quot;g_t&quot;:1,&quot;coords&quot;:[[320.0, -640.0],[320.0, -671.0]],&quot;certainty&quot;:11]">
    <path clip-path="url(#pb9d4efe761)" d="M 242.334306 262.228607 
C 243.568336 262.228607 244.751989 261.864581 245.624579 261.216701 
C 246.49717 260.568821 246.987455 259.689983 246.987455 258.773743 
C 246.987455 257.857502 246.49717 256.978664 245.624579 256.330784 
C 244.751989 255.682904 243.568336 255.318878 242.334306 255.318878 
C 241.100277 255.318878 239.916624 255.682904 239.044033 256.330784 
C 238.171443 256.978664 237.681158 257.857502 237.681158 258.773743 
C 237.681158 259.689983 238.171443 260.568821 239.044033 261.216701 
C 239.916624 261.864581 241.100277 262.228607 242.334306 262.228607 
z
" style="fill:#0000ff;opacity:0.2;stroke:#0000ff;stroke-linejoin:miter;stroke-width:2;"/>
   </g>
   <g id="[&quot;g_s&quot;:1,&quot;g_t&quot;:4,&quot;coords&quot;:[[320.0, -671.0],[320.0, -640.0]],&quot;certainty&quot;:11]">
    <path clip-path="url(#pb9d4efe761)" d="M 242.334306 280.078742 
C 243.568336 280.078742 244.751989 279.714715 245.624579 279.066835 
C 246.49717 278.418955 246.987455 277.540118 246.987455 276.623877 
C 246.987455 275.707636 246.49717 274.828799 245.624579 274.180919 
C 244.751989 273.533039 243.568336 273.169012 242.334306 273.169012 
C 241.100277 273.169012 239.916624 273.533039 239.044033 274.180919 
C 238.171443 274.828799 237.681158 275.707636 237.681158 276.623877 
C 237.681158 277.540118 238.171443 278.418955 239.044033 279.066835 
C 239.916624 279.714715 241.100277 280.078742 242.334306 280.078742 
z
" style="fill:#ff0000;opacity:0.2;stroke:#ff0000;stroke-linejoin:miter;stroke-width:2;"/>
   </g>
   <g id="patch_49">
    <path d="M 242.334306 258.773743 
Q 242.334306 266.698662 242.334306 272.502261 
" style="fill:none;opacity:0.5;stroke:#0000ff;stroke-linecap:round;stroke-width:3;"/>
    <path d="M 243.834306 271.002261 
L 242.334306 272.502261 
L 240.834306 271.002261 
" style="fill:none;opacity:0.5;stroke:#0000ff;stroke-linecap:round;stroke-width:3;"/>
   </g>
   <g id="[&quot;g_s&quot;:1,&quot;g_t&quot;:4,&quot;coords&quot;:[[320.0, -671.0],[320.0, -640.0]],&quot;certainty&quot;:10]">
    <path clip-path="url(#pb9d4efe761)" d="M 242.334306 279.790836 
C 243.4655 279.790836 244.550515 279.457145 245.35039 278.863255 
C 246.150265 278.269365 246.599693 277.463764 246.599693 276.623877 
C 246.599693 275.78399 246.150265 274.978389 245.35039 274.384499 
C 244.550515 273.790608 243.4655 273.456918 242.334306 273.456918 
C 241.203113 273.456918 240.118097 273.790608 239.318223 274.384499 
C 238.518348 274.978389 238.06892 275.78399 238.06892 276.623877 
C 238.06892 277.463764 238.518348 278.269365 239.318223 278.863255 
C 240.118097 279.457145 241.203113 279.790836 242.334306 279.790836 
z
" style="fill:#0000ff;opacity:0.2;stroke:#0000ff;stroke-linejoin:miter;stroke-width:2;"/>
   </g>
   <g id="[&quot;g_s&quot;:4,&quot;g_t&quot;:1,&quot;coords&quot;:[[320.0, -640.0],[320.0, -671.0]],&quot;certainty&quot;:10]">
    <path clip-path="url(#pb9d4efe761)" d="M 242.334306 261.940702 
C 243.4655 261.940702 244.550515 261.607011 245.35039 261.013121 
C 246.150265 260.419231 246.599693 259.61363 246.599693 258.773743 
C 246.599693 257.933855 246.150265 257.128254 245.35039 256.534364 
C 244.550515 255.940474 243.4655 255.606783 242.334306 255.606783 
C 241.203113 255.606783 240.118097 255.940474 239.318223 256.534364 
C 238.518348 257.128254 238.06892 257.933855 238.06892 258.773743 
C 238.06892 259.61363 238.518348 260.419231 239.318223 261.013121 
C 240.118097 261.607011 241.203113 261.940702 242.334306 261.940702 
z
" style="fill:#ff0000;opacity:0.2;stroke:#ff0000;stroke-linejoin:miter;stroke-width:2;"/>
   </g>
   <g id="patch_50">
    <path d="M 242.334306 276.623877 
Q 242.334306 268.698958 242.334306 262.718582 
" style="fill:none;opacity:0.5;stroke:#ff0000;stroke-linecap:round;stroke-width:2.75;"/>
    <path d="M 240.834306 264.218582 
L 242.334306 262.718582 
L 243.834306 264.218582 
" style="fill:none;opacity:0.5;stroke:#ff0000;stroke-linecap:round;stroke-width:2.75;"/>
   </g>
   <g id="[&quot;g_s&quot;:2,&quot;g_t&quot;:1,&quot;coords&quot;:[[167.0, -493.0],[197.0, -486.0]],&quot;certainty&quot;:12]">
    <path clip-path="url(#pb9d4efe761)" d="M 123.679014 177.872327 
C 125.015879 177.872327 126.29817 177.477965 127.243477 176.776095 
C 128.188783 176.074225 128.719925 175.122151 128.719925 174.129557 
C 128.719925 173.136963 128.188783 172.184889 127.243477 171.483019 
C 126.29817 170.781149 125.015879 170.386787 123.679014 170.386787 
C 122.342149 170.386787 121.059858 170.781149 120.114552 171.483019 
C 119.169245 172.184889 118.638103 173.136963 118.638103 174.129557 
C 118.638103 175.122151 119.169245 176.074225 120.114552 176.776095 
C 121.059858 177.477965 122.342149 177.872327 123.679014 177.872327 
z
" style="fill:#0000ff;opacity:0.2;stroke:#0000ff;stroke-linejoin:miter;stroke-width:2;"/>
   </g>
   <g id="[&quot;g_s&quot;:1,&quot;g_t&quot;:2,&quot;coords&quot;:[[197.0, -486.0],[167.0, -493.0]],&quot;certainty&quot;:12]">
    <path clip-path="url(#pb9d4efe761)" d="M 146.944758 173.841652 
C 148.281623 173.841652 149.563914 173.44729 150.50922 172.74542 
C 151.454527 172.04355 151.985669 171.091476 151.985669 170.098882 
C 151.985669 169.106287 151.454527 168.154214 150.50922 167.452344 
C 149.563914 166.750473 148.281623 166.356112 146.944758 166.356112 
C 145.607893 166.356112 144.325602 166.750473 143.380295 167.452344 
C 142.434989 168.154214 141.903847 169.106287 141.903847 170.098882 
C 141.903847 171.091476 142.434989 172.04355 143.380295 172.74542 
C 144.325602 173.44729 145.607893 173.841652 146.944758 173.841652 
z
" style="fill:#ff0000;opacity:0.2;stroke:#ff0000;stroke-linejoin:miter;stroke-width:2;"/>
   </g>
   <g id="patch_51">
    <path d="M 123.679014 174.129557 
Q 134.327806 172.284706 142.712231 170.832146 
" style="fill:none;opacity:0.5;stroke:#ff0000;stroke-linecap:round;stroke-width:3.25;"/>
    <path d="M 140.978194 169.610215 
L 142.712231 170.832146 
L 141.490301 172.566183 
" style="fill:none;opacity:0.5;stroke:#ff0000;stroke-linecap:round;stroke-width:3.25;"/>
   </g>
   <g id="[&quot;g_s&quot;:3,&quot;g_t&quot;:2,&quot;coords&quot;:[[320.0, -313.0],[320.0, -332.0]],&quot;certainty&quot;:11]">
    <path clip-path="url(#pb9d4efe761)" d="M 242.334306 73.93848 
C 243.568336 73.93848 244.751989 73.574454 245.624579 72.926574 
C 246.49717 72.278694 246.987455 71.399857 246.987455 70.483616 
C 246.987455 69.567375 246.49717 68.688538 245.624579 68.040657 
C 244.751989 67.392777 243.568336 67.028751 242.334306 67.028751 
C 241.100277 67.028751 239.916624 67.392777 239.044033 68.040657 
C 238.171443 68.688538 237.681158 69.567375 237.681158 70.483616 
C 237.681158 71.399857 238.171443 72.278694 239.044033 72.926574 
C 239.916624 73.574454 241.100277 73.93848 242.334306 73.93848 
z
" style="fill:#0000ff;opacity:0.2;stroke:#0000ff;stroke-linejoin:miter;stroke-width:2;"/>
   </g>
   <g id="[&quot;g_s&quot;:2,&quot;g_t&quot;:3,&quot;coords&quot;:[[320.0, -332.0],[320.0, -313.0]],&quot;certainty&quot;:11]">
    <path clip-path="url(#pb9d4efe761)" d="M 242.334306 84.878885 
C 243.568336 84.878885 244.751989 84.514859 245.624579 83.866979 
C 246.49717 83.219099 246.987455 82.340261 246.987455 81.424021 
C 246.987455 80.50778 246.49717 79.628942 245.624579 78.981062 
C 244.751989 78.333182 243.568336 77.969156 242.334306 77.969156 
C 241.100277 77.969156 239.916624 78.333182 239.044033 78.981062 
C 238.171443 79.628942 237.681158 80.50778 237.681158 81.424021 
C 237.681158 82.340261 238.171443 83.219099 239.044033 83.866979 
C 239.916624 84.514859 241.100277 84.878885 242.334306 84.878885 
z
" style="fill:#ff0000;opacity:0.2;stroke:#ff0000;stroke-linejoin:miter;stroke-width:2;"/>
   </g>
   <g id="patch_52">
    <path d="M 242.334306 70.483616 
Q 242.334306 74.95353 242.334306 77.302123 
" style="fill:none;opacity:0.5;stroke:#ff0000;stroke-linecap:round;stroke-width:3;"/>
    <path d="M 243.834306 75.802123 
L 242.334306 77.302123 
L 240.834306 75.802123 
" style="fill:none;opacity:0.5;stroke:#ff0000;stroke-linecap:round;stroke-width:3;"/>
   </g>
   <g id="[&quot;g_s&quot;:4,&quot;g_t&quot;:3,&quot;coords&quot;:[[473.0, -493.0],[443.0, -486.0]],&quot;certainty&quot;:11]">
    <path clip-path="url(#pb9d4efe761)" d="M 360.989598 177.584422 
C 362.223628 177.584422 363.407281 177.220395 364.279871 176.572515 
C 365.152462 175.924635 365.642747 175.045798 365.642747 174.129557 
C 365.642747 173.213316 365.152462 172.334479 364.279871 171.686599 
C 363.407281 171.038719 362.223628 170.674692 360.989598 170.674692 
C 359.755569 170.674692 358.571916 171.038719 357.699325 171.686599 
C 356.826735 172.334479 356.33645 173.213316 356.33645 174.129557 
C 356.33645 175.045798 356.826735 175.924635 357.699325 176.572515 
C 358.571916 177.220395 359.755569 177.584422 360.989598 177.584422 
z
" style="fill:#0000ff;opacity:0.2;stroke:#0000ff;stroke-linejoin:miter;stroke-width:2;"/>
   </g>
   <g id="[&quot;g_s&quot;:3,&quot;g_t&quot;:4,&quot;coords&quot;:[[443.0, -486.0],[473.0, -493.0]],&quot;certainty&quot;:11]">
    <path clip-path="url(#pb9d4efe761)" d="M 337.723855 173.553746 
C 338.957884 173.553746 340.141537 173.18972 341.014128 172.54184 
C 341.886718 171.89396 342.377004 171.015122 342.377004 170.098882 
C 342.377004 169.182641 341.886718 168.303803 341.014128 167.655923 
C 340.141537 167.008043 338.957884 166.644017 337.723855 166.644017 
C 336.489825 166.644017 335.306172 167.008043 334.433582 167.655923 
C 333.560991 168.303803 333.070706 169.182641 333.070706 170.098882 
C 333.070706 171.015122 333.560991 171.89396 334.433582 172.54184 
C 335.306172 173.18972 336.489825 173.553746 337.723855 173.553746 
z
" style="fill:#ff0000;opacity:0.2;stroke:#ff0000;stroke-linejoin:miter;stroke-width:2;"/>
   </g>
   <g id="patch_53">
    <path d="M 360.989598 174.129557 
Q 350.340806 172.284706 341.782199 170.80197 
" style="fill:none;opacity:0.5;stroke:#ff0000;stroke-linecap:round;stroke-width:3;"/>
    <path d="M 343.00413 172.536007 
L 341.782199 170.80197 
L 343.516236 169.580039 
" style="fill:none;opacity:0.5;stroke:#ff0000;stroke-linecap:round;stroke-width:3;"/>
   </g>
   <g id="patch_54">
    <path clip-path="url(#pb9d4efe761)" d="M 135.311886 174.993273 
C 136.340244 174.993273 137.326621 174.689918 138.05378 174.150018 
C 138.780939 173.610118 139.18951 172.877753 139.18951 172.114219 
C 139.18951 171.350685 138.780939 170.618321 138.05378 170.078421 
C 137.326621 169.538521 136.340244 169.235165 135.311886 169.235165 
C 134.283528 169.235165 133.297151 169.538521 132.569992 170.078421 
C 131.842833 170.618321 131.434262 171.350685 131.434262 172.114219 
C 131.434262 172.877753 131.842833 173.610118 132.569992 174.150018 
C 133.297151 174.689918 134.283528 174.993273 135.311886 174.993273 
z
" style="fill:#008000;opacity:0.2;stroke:#008000;stroke-linejoin:miter;stroke-width:2;"/>
   </g>
   <g id="patch_55">
    <path clip-path="url(#pb9d4efe761)" d="M 242.334306 78.832872 
C 243.362664 78.832872 244.349042 78.529517 245.0762 77.989617 
C 245.803359 77.449717 246.21193 76.717352 246.21193 75.953818 
C 246.21193 75.190284 245.803359 74.45792 245.0762 73.91802 
C 244.349042 73.37812 243.362664 73.074764 242.334306 73.074764 
C 241.305948 73.074764 240.319571 73.37812 239.592412 73.91802 
C 238.865253 74.45792 238.456682 75.190284 238.456682 75.953818 
C 238.456682 76.717352 238.865253 77.449717 239.592412 77.989617 
C 240.319571 78.529517 241.305948 78.832872 242.334306 78.832872 
z
" style="fill:#008000;opacity:0.2;stroke:#008000;stroke-linejoin:miter;stroke-width:2;"/>
   </g>
   <g id="patch_56">
    <path clip-path="url(#pb9d4efe761)" d="M 349.356727 174.993273 
C 350.385084 174.993273 351.371462 174.689918 352.098621 174.150018 
C 352.82578 173.610118 353.234351 172.877753 353.234351 172.114219 
C 353.234351 171.350685 352.82578 170.618321 352.098621 170.078421 
C 351.371462 169.538521 350.385084 169.235165 349.356727 169.235165 
C 348.328369 169.235165 347.341991 169.538521 346.614832 170.078421 
C 345.887674 170.618321 345.479103 171.350685 345.479103 172.114219 
C 345.479103 172.877753 345.887674 173.610118 346.614832 174.150018 
C 347.341991 174.689918 348.328369 174.993273 349.356727 174.993273 
z
" style="fill:#008000;opacity:0.2;stroke:#008000;stroke-linejoin:miter;stroke-width:2;"/>
   </g>
   <g id="patch_57">
    <path clip-path="url(#pb9d4efe761)" d="M 242.334306 270.577864 
C 243.362664 270.577864 244.349042 270.274508 245.0762 269.734608 
C 245.803359 269.194708 246.21193 268.462344 246.21193 267.69881 
C 246.21193 266.935276 245.803359 266.202911 245.0762 265.663011 
C 244.349042 265.123111 243.362664 264.819756 242.334306 264.819756 
C 241.305948 264.819756 240.319571 265.123111 239.592412 265.663011 
C 238.865253 266.202911 238.456682 266.935276 238.456682 267.69881 
C 238.456682 268.462344 238.865253 269.194708 239.592412 269.734608 
C 240.319571 270.274508 241.305948 270.577864 242.334306 270.577864 
z
" style="fill:#008000;opacity:0.2;stroke:#008000;stroke-linejoin:miter;stroke-width:2;"/>
   </g>
   <g id="patch_58">
    <path clip-path="url(#pb9d4efe761)" d="M 146.944758 181.615097 
C 151.058189 181.615097 155.003699 180.401676 157.912334 178.242076 
C 160.82097 176.082475 162.455253 173.153018 162.455253 170.098882 
C 162.455253 167.044746 160.82097 164.115288 157.912334 161.955687 
C 155.003699 159.796087 151.058189 158.582666 146.944758 158.582666 
C 142.831326 158.582666 138.885816 159.796087 135.977181 161.955687 
C 133.068546 164.115288 131.434262 167.044746 131.434262 170.098882 
C 131.434262 173.153018 133.068546 176.082475 135.977181 178.242076 
C 138.885816 180.401676 142.831326 181.615097 146.944758 181.615097 
z
" style="fill:none;opacity:0.2;stroke:#ff0000;stroke-linejoin:miter;stroke-width:2;"/>
   </g>
   <g id="patch_59">
    <path clip-path="url(#pb9d4efe761)" d="M 242.334306 288.140093 
C 246.447738 288.140093 250.393248 286.926672 253.301883 284.767071 
C 256.210518 282.607471 257.844802 279.678013 257.844802 276.623877 
C 257.844802 273.569741 256.210518 270.640283 253.301883 268.480683 
C 250.393248 266.321082 246.447738 265.107661 242.334306 265.107661 
C 238.220875 265.107661 234.275365 266.321082 231.36673 268.480683 
C 228.458094 270.640283 226.823811 273.569741 226.823811 276.623877 
C 226.823811 279.678013 228.458094 282.607471 231.36673 284.767071 
C 234.275365 286.926672 238.220875 288.140093 242.334306 288.140093 
z
" style="fill:none;opacity:0.2;stroke:#0000ff;stroke-linejoin:miter;stroke-width:2;"/>
   </g>
   <g id="patch_60">
    <path clip-path="url(#pb9d4efe761)" d="M 146.944758 175.856989 
C 149.001474 175.856989 150.974228 175.250279 152.428546 174.170479 
C 153.882864 173.090679 154.700006 171.62595 154.700006 170.098882 
C 154.700006 168.571814 153.882864 167.107085 152.428546 166.027285 
C 150.974228 164.947484 149.001474 164.340774 146.944758 164.340774 
C 144.888042 164.340774 142.915287 164.947484 141.460969 166.027285 
C 140.006652 167.107085 139.18951 168.571814 139.18951 170.098882 
C 139.18951 171.62595 140.006652 173.090679 141.460969 174.170479 
C 142.915287 175.250279 144.888042 175.856989 146.944758 175.856989 
z
" style="fill:none;opacity:0.2;stroke:#008000;stroke-linejoin:miter;stroke-width:2;"/>
   </g>
   <g id="patch_61">
    <path clip-path="url(#pb9d4efe761)" d="M 123.679014 179.887665 
C 125.73573 179.887665 127.708485 179.280954 129.162803 178.201154 
C 130.61712 177.121354 131.434262 175.656625 131.434262 174.129557 
C 131.434262 172.602489 130.61712 171.13776 129.162803 170.05796 
C 127.708485 168.97816 125.73573 168.371449 123.679014 168.371449 
C 121.622298 168.371449 119.649544 168.97816 118.195226 170.05796 
C 116.740908 171.13776 115.923766 172.602489 115.923766 174.129557 
C 115.923766 175.656625 116.740908 177.121354 118.195226 178.201154 
C 119.649544 179.280954 121.622298 179.887665 123.679014 179.887665 
z
" style="fill:none;opacity:0.2;stroke:#008000;stroke-linejoin:miter;stroke-width:2;"/>
   </g>
   <g id="patch_62">
    <path d="M 135.311886 172.114219 
Q 188.823096 124.034019 242.334306 75.953818 
" style="fill:none;opacity:0.5;stroke:#008000;stroke-linecap:round;stroke-width:2;"/>
   </g>
   <g id="patch_63">
    <path d="M 145.551301 170.340291 
Q 136.295966 171.943732 127.04063 173.547174 
" style="fill:none;opacity:0.5;stroke:#800080;stroke-linecap:round;stroke-width:2;"/>
    <path d="M 143.817264 169.118361 
L 145.551301 170.340291 
L 144.329371 172.074329 
" style="fill:none;opacity:0.5;stroke:#800080;stroke-linecap:round;stroke-width:2;"/>
    <path d="M 128.774668 174.769104 
L 127.04063 173.547174 
L 128.262561 171.813136 
" style="fill:none;opacity:0.5;stroke:#800080;stroke-linecap:round;stroke-width:2;"/>
   </g>
   <g id="patch_64">
    <path d="M 242.334306 75.953818 
Q 295.845516 124.034019 349.356727 172.114219 
" style="fill:none;opacity:0.5;stroke:#008000;stroke-linecap:round;stroke-width:2;"/>
   </g>
   <g id="patch_65">
    <path d="M 242.334306 80.009807 
Q 242.334306 76.954107 242.334306 73.898406 
" style="fill:none;opacity:0.5;stroke:#800080;stroke-linecap:round;stroke-width:2;"/>
    <path d="M 243.834306 78.509807 
L 242.334306 80.009807 
L 240.834306 78.509807 
" style="fill:none;opacity:0.5;stroke:#800080;stroke-linecap:round;stroke-width:2;"/>
    <path d="M 240.834306 75.398406 
L 242.334306 73.898406 
L 243.834306 75.398406 
" style="fill:none;opacity:0.5;stroke:#800080;stroke-linecap:round;stroke-width:2;"/>
   </g>
   <g id="patch_66">
    <path d="M 349.356727 172.114219 
Q 295.845516 219.906515 242.334306 267.69881 
" style="fill:none;opacity:0.5;stroke:#008000;stroke-linecap:round;stroke-width:2;"/>
   </g>
   <g id="patch_67">
    <path d="M 339.117311 170.340291 
Q 348.372647 171.943732 357.627983 173.547174 
" style="fill:none;opacity:0.5;stroke:#800080;stroke-linecap:round;stroke-width:2;"/>
    <path d="M 340.339242 172.074329 
L 339.117311 170.340291 
L 340.851349 169.118361 
" style="fill:none;opacity:0.5;stroke:#800080;stroke-linecap:round;stroke-width:2;"/>
    <path d="M 356.406052 171.813136 
L 357.627983 173.547174 
L 355.893945 174.769104 
" style="fill:none;opacity:0.5;stroke:#800080;stroke-linecap:round;stroke-width:2;"/>
   </g>
   <g id="patch_68">
    <path d="M 242.334306 267.69881 
Q 188.823096 219.906515 135.311886 172.114219 
" style="fill:none;opacity:0.5;stroke:#008000;stroke-linecap:round;stroke-width:2;"/>
   </g>
   <g id="patch_69">
    <path d="M 242.334306 260.187956 
Q 242.334306 266.698662 242.334306 273.209368 
" style="fill:none;opacity:0.5;stroke:#800080;stroke-linecap:round;stroke-width:2;"/>
    <path d="M 240.834306 261.687956 
L 242.334306 260.187956 
L 243.834306 261.687956 
" style="fill:none;opacity:0.5;stroke:#800080;stroke-linecap:round;stroke-width:2;"/>
    <path d="M 243.834306 271.709368 
L 242.334306 273.209368 
L 240.834306 271.709368 
" style="fill:none;opacity:0.5;stroke:#800080;stroke-linecap:round;stroke-width:2;"/>
   </g>
   <g id="line2d_1">
    <path clip-path="url(#pb9d4efe761)" d="M 242.334306 38.814023 
L 423.807106 170.098882 
L 242.334306 301.383741 
L 60.861507 170.098882 
" style="fill:none;stroke:#ff0000;stroke-linecap:square;stroke-width:0.2;"/>
   </g>
   <g id="line2d_2">
    <path clip-path="url(#pb9d4efe761)" d="M 242.334306 43.99632 
L 412.949759 174.129557 
L 242.334306 303.111173 
L 71.718854 174.129557 
" style="fill:none;stroke:#0000ff;stroke-linecap:square;stroke-width:0.2;"/>
   </g>
   <g id="line2d_3">
    <path clip-path="url(#pb9d4efe761)" d="M 146.944758 170.098882 
L 242.334306 81.424021 
L 337.723855 170.098882 
L 242.334306 258.773743 
" style="fill:none;stroke:#ff0000;stroke-linecap:square;stroke-width:0.2;"/>
   </g>
   <g id="line2d_4">
    <path clip-path="url(#pb9d4efe761)" d="M 242.334306 276.623877 
L 123.679014 174.129557 
L 242.334306 70.483616 
L 360.989598 174.129557 
" style="fill:none;stroke:#0000ff;stroke-linecap:square;stroke-width:0.2;"/>
   </g>
  </g>
 </g>
 <defs>
  <clipPath id="pb9d4efe761">
   <rect height="307.51175" width="409.903625" x="37.576375" y="13.32"/>
  </clipPath>
 </defs>
</svg>
